<?xml version="1.0" encoding="UTF-8"?>
<svg cursor="default" enable-background="new" version="1.1" viewBox="0 0 256 256" xmlns="http://www.w3.org/2000/svg" xmlns:cc="http://creativecommons.org/ns#" xmlns:dc="http://purl.org/dc/elements/1.1/" xmlns:rdf="http://www.w3.org/1999/02/22-rdf-syntax-ns#" xmlns:xlink="http://www.w3.org/1999/xlink">
 <metadata>
  <rdf:RDF>
   <cc:Work rdf:about="">
    <dc:format>image/svg+xml</dc:format>
    <dc:type rdf:resource="http://purl.org/dc/dcmitype/StillImage"/>
    <dc:title/>
   </cc:Work>
  </rdf:RDF>
 </metadata>
 <defs>
  <linearGradient id="innoGrad2">
   <stop stop-color="#f55" offset="0"/>
   <stop stop-color="#ff8080" offset="1"/>
  </linearGradient>
  <linearGradient id="innoGrad3">
   <stop stop-color="#f55" offset="0"/>
   <stop stop-color="#ff8080" offset=".105"/>
   <stop stop-color="#ff8080" offset=".777"/>
   <stop stop-color="#f55" offset="1"/>
  </linearGradient>
  <linearGradient id="innoGrad1">
   <stop stop-color="#f55" offset="0"/>
   <stop stop-color="#ff2a2a" offset="1"/>
  </linearGradient>
  <linearGradient id="linearGradient2180" x1="5.9188" x2="89.66" y1="83.938" y2="83.938" gradientUnits="userSpaceOnUse" xlink:href="#innoGrad1"/>
  <linearGradient id="linearGradient2188" x1="167.25" x2="250.43" y1="84.099" y2="84.099" gradientUnits="userSpaceOnUse" xlink:href="#innoGrad1"/>
  <linearGradient id="linearGradient2196" x1="136.18" x2="211.62" y1="171.95" y2="171.95" gradientUnits="userSpaceOnUse" xlink:href="#innoGrad1"/>
  <linearGradient id="linearGradient2204" x1="44.893" x2="120.13" y1="171.18" y2="171.18" gradientUnits="userSpaceOnUse" xlink:href="#innoGrad1"/>
  <linearGradient id="linearGradient2212" x1="129.35" x2="158.63" y1="156.23" y2="156.23" gradientUnits="userSpaceOnUse" xlink:href="#innoGrad1"/>
  <linearGradient id="linearGradient2220" x1="133.14" x2="147.26" y1="172.53" y2="172.53" gradientUnits="userSpaceOnUse" xlink:href="#innoGrad1"/>
  <linearGradient id="linearGradient2228" x1="97.768" x2="127.04" y1="155.96" y2="155.96" gradientUnits="userSpaceOnUse" xlink:href="#innoGrad2"/>
  <linearGradient id="linearGradient2236" x1="91.511" x2="109.62" y1="144.12" y2="144.12" gradientUnits="userSpaceOnUse" xlink:href="#innoGrad2"/>
  <linearGradient id="linearGradient2244" x1="97.822" x2="127.03" y1="155.94" y2="155.94" gradientUnits="userSpaceOnUse" xlink:href="#innoGrad3"/>
  <linearGradient id="linearGradient2246" x1="39.367" x2="73.746" y1="41.122" y2="41.122" gradientUnits="userSpaceOnUse" xlink:href="#innoGrad3"/>
  <linearGradient id="linearGradient2248" x1="182.65" x2="252.4" y1="54.729" y2="54.729" gradientUnits="userSpaceOnUse" xlink:href="#innoGrad3"/>
  <linearGradient id="linearGradient2250" x1="217.66" x2="250.59" y1="82.928" y2="82.928" gradientUnits="userSpaceOnUse" xlink:href="#innoGrad3"/>
  <linearGradient id="linearGradient2252" x1="206.67" x2="223.27" y1="115.28" y2="115.28" gradientUnits="userSpaceOnUse" xlink:href="#innoGrad3"/>
  <linearGradient id="linearGradient2254" x1="204.03" x2="211.73" y1="134.17" y2="134.17" gradientUnits="userSpaceOnUse" xlink:href="#innoGrad3"/>
  <linearGradient id="linearGradient2256" x1="188.39" x2="208.34" y1="168.27" y2="168.27" gradientUnits="userSpaceOnUse" xlink:href="#innoGrad3"/>
  <linearGradient id="linearGradient2258" x1="174.24" x2="185.05" y1="218.38" y2="218.38" gradientUnits="userSpaceOnUse" xlink:href="#innoGrad3"/>
  <linearGradient id="linearGradient2260" x1="160.09" x2="182.39" y1="211.76" y2="211.76" gradientUnits="userSpaceOnUse" xlink:href="#innoGrad3"/>
  <linearGradient id="linearGradient2262" x1="146.07" x2="165.27" y1="216.34" y2="216.34" gradientUnits="userSpaceOnUse" xlink:href="#innoGrad3"/>
  <linearGradient id="linearGradient2264" x1="136.08" x2="154.29" y1="209.32" y2="209.32" gradientUnits="userSpaceOnUse" xlink:href="#innoGrad3"/>
  <linearGradient id="linearGradient2266" x1="72.414" x2="84.538" y1="207.7" y2="207.7" gradientUnits="userSpaceOnUse" xlink:href="#innoGrad3"/>
  <linearGradient id="linearGradient2268" x1="84.371" x2="100.15" y1="211.85" y2="211.85" gradientUnits="userSpaceOnUse" xlink:href="#innoGrad3"/>
  <linearGradient id="linearGradient2270" x1="97.796" x2="112.4" y1="210.52" y2="210.52" gradientUnits="userSpaceOnUse" xlink:href="#innoGrad3"/>
  <linearGradient id="linearGradient2272" x1="87.589" x2="119.06" y1="164.04" y2="164.04" gradientUnits="userSpaceOnUse" xlink:href="#innoGrad3"/>
  <linearGradient id="linearGradient2274" x1="40.383" x2="88.92" y1="82.904" y2="82.904" gradientUnits="userSpaceOnUse" xlink:href="#innoGrad3"/>
  <linearGradient id="linearGradient2282" x1="147.01" x2="164.84" y1="143.54" y2="143.54" gradientUnits="userSpaceOnUse" xlink:href="#innoGrad2"/>
 </defs>
 <g>
  <g stroke="#000">
   <g>
    <g stroke-width=".018817">
     <path d="m88.869 112.24c-6.9852 1.6137-13.299 6.9452-19.933 9.4944-7.8233 3.4339-16.056 5.9316-24.033 8.936 0.36573 2.3611 2.5736 4.1041 4.1246 5.8177 1.1953 1.5208 3.4417 1.9827 4.4843 3.5169-1.395 0.20538-3.9374-2.7145-5.2655-3.1842-0.6622-0.65933-0.15571 1.3175 0.35369 2.1063 4.8888 17.71 11.238 34.977 16.647 52.517 2.8944 9.1838 5.0618 18.59 8.0867 27.733 1.3179 3.253 5.6442 5.2278 8.611 2.827 1.479-0.92199 3.6046-2.4286 2.5982-4.2381-4.1259-9.0752-9.5773-18.188-12.269-27.798-0.3023-0.37812-0.146-2.0656 0.36115-0.95293 3.191 9.1971 6.6744 18.388 11.497 26.869 1.314 0.98705 1.2533 2.779 2.1565 4.1239 1.8703 2.7754 2.0924 6.5477 4.6376 8.8485 2.8646 2.0612 7.1096 0.43935 9.0377-2.16 0.14772-1.7-1.5404-3.1195-2.1517-4.6542-5.4592-9.4524-10.078-19.478-13.293-29.915-0.39999-1.1484 1.0994-0.77428 1.1069 0.17402 6.0443 9.7943 10.562 20.401 14.548 31.164 1.6021 3.3546 4.844 7.1358 8.9449 6.6073 3.3822-0.92537 3.8013-5.3713 2.3853-8.0755-1.5762-3.7823-2.434-7.8456-3.3742-11.835-3.8706-7.6228-8.6645-14.972-11.133-23.206-0.47415-0.53883 0.15204-1.7614 0.49559-0.79527 2.839 8.8012 6.9271 17.212 11.731 25.103 2.496 3.3305 5.1584 7.1932 9.2437 8.6203 1.8182 0.36861 1.8835-2.0013 1.4004-3.1578-2.0674-8.4579-4.5921-16.789-5.9554-25.407-1.9738-12.3-5.3008-24.357-9.9904-35.901-5.2341-13.472-11.109-26.769-14.329-40.91-0.18601-0.51221-0.0039-2.3382-0.72437-2.2684zm-19.097 29.672c4.6778 6.5998 8.251 13.948 12.344 20.926 3.0029 5.4741 6.2781 11.008 9.0368 16.495-4.045-5.3603-6.922-11.545-10.367-17.31-3.7152-6.7199-7.619-13.378-11.113-20.201zm-5.2798 1.6594c4.4891 12.622 9.0114 25.332 13.162 38.013-1.5087 0.0658-1.088-2.3886-1.8141-3.2675-3.9217-11.515-8.2365-22.924-11.534-34.634 0.05313-0.045 0.12582-0.10434 0.18644-0.11187zm-5.6092 1.7312c1.4267 1.0784 0.9384 3.5347 1.6903 5.0948 2.4493 10.471 5.3062 20.947 7.3502 31.452-0.63596 0.3551-0.66481-1.4037-0.88217-1.7181-2.7897-11.582-5.7912-23.211-8.2861-34.812 0.03573-0.0273 0.08679-0.0197 0.12775-0.0166z" fill="url(#linearGradient2204)"/>
     <path d="m70.141 37.825c-6.5203 0.57535-12.308 4.0551-18.528 5.8108-13.602 4.4521-28.225 8.0996-39.202 17.825-3.9397 3.5603-7.5225 8.8591-6.2044 14.407 2.8885 4.7317 6.7989 8.7979 10.115 13.241 7.035 8.7248 15.195 20.062 22.442 28.608 1.3386 0.13553-1.1358-4.3096-1.2346-4.9035-2.1938-6.5543-5.3296-12.769-8.6187-18.796-0.0027-1.2117 1.0206 0.44351 1.159 0.83017 6.5351 10.254 8.8976 23.354 13.257 34.553 0.29467 0.86705 1.1323 0.89535 2.1825 0.0948 11.346-3.8275 22.749-7.6719 33.339-13.341 3.2397-1.5341 7.2257-2.8593 10.795-3.4831 0.14669-2.0957-1.6826-4.8064-1.9827-6.9561-4.5584-20.078-9.2366-40.138-13.076-60.366-0.4387-2.3336 0.14662-5.0976-0.45739-7.3284-1.1255-0.21558-2.8283-0.25225-3.985-0.19635z" fill="url(#linearGradient2180)"/>
     <path d="m186.08 38.144c-1.3052 0.21376-3.8474-0.25022-3.7026 1.7864-0.57192 8.9044-3.0775 17.601-4.78 26.345-3.3762 15.365-6.775 30.728-10.331 46.05 2.1775 0.77614 4.7629 1.3147 6.9305 2.5039 8.6131 4.1791 17.229 8.4762 26.375 11.431 3.7937 1.2347 7.5463 2.879 11.399 3.7928 1.9037-2.5243 2.4175-5.9099 3.5818-8.8266 2.9877-9.5088 6.0417-19.335 11.786-27.514-0.1251 2.2603-2.0476 4.1595-2.8898 6.2493-2.3397 4.7981-5.8613 12.4-7.1127 17.592 0.65604 1.1643 2.7288-3.6539 3.2532-4.0546 9.8665-12.16 19.834-24.259 29.334-36.705 1.5246-4.5148-0.6214-9.5177-3.7745-12.828-9.4636-10.037-23.084-14.246-35.861-18.27-6.729-1.8704-13.143-4.6547-19.749-6.8715-1.4514-0.39956-2.9466-0.70388-4.4588-0.68156z" fill="url(#linearGradient2188)"/>
     <path d="m167.27 113.43c-1.0948 2.0902-1.2092 4.8813-1.997 7.1974-6.2817 22.429-18.235 43.119-21.962 66.311-1.4997 9.4169-3.6182 18.693-6.3232 27.835-0.12382 1.6239-1.6399 3.929-0.13811 5.266 2.0275 0.64055 3.8526-1.3287 5.3192-2.4956 7.0353-7.1428 11.177-16.558 14.872-25.734 0.88207-1.8215 1.1844-4.2798 2.4183-5.7629 0.17675 2.0947-1.2018 4.1477-1.8049 6.1475-2.3922 6.2705-6.4164 12.951-9.3729 18.957-1.1597 3.6655-1.3178 6.5747-3.0016 10.03-1.2183 2.8405-2.0651 7.1984 1.245 8.9673 3.5727 1.3645 6.8863-1.9342 8.7484-4.6411 3.2411-6.7398 5.2659-14.038 8.7456-20.668 2.337-4.4606 4.5429-9.101 7.5724-13.125 0.66545 0.19689-0.16464 1.5626-0.15813 2.0626-3.6097 11.207-9.8252 22.579-15.813 32.692-0.83218 1.8868 2.7368 2.286 4.0467 2.9556 2.5241 1.5362 6.0606 0.56434 7.2513-2.1959 1.3488-3.2808 3.6358-6.1681 4.9795-9.4472 0.36945-1.0893 0.93731-1.8878 1.2618-3.105 4.2544-8.2207 7.5731-16.909 10.769-25.56 0.55154-0.82352 0.43182 0.9737 0.20716 1.2236-2.9215 9.8305-8.2691 18.937-12.388 28.32-0.55227 1.9756 2.3043 3.454 3.78 4.2471 3.1524 1.5543 6.7018-0.82055 7.705-3.8974 3.354-10.675 5.9443-21.584 9.4599-32.213 5.0633-16.042 12.019-33.833 16.331-50.102-0.50303-0.94092-3.0493 2.4995-3.7749 2.7047-0.69282 0.25871-1.6805 1.2629-2.3098 1.098 0.20394-1.5492 2.3521-1.5302 3.2124-2.6758 1.3482-0.92209 2.491-2.1716 3.3491-3.4803 1.032-0.78746 1.9544-2.2476 2.1082-3.4078-11.843-4.1038-23.799-8.0696-34.876-14.025-3.0617-1.3376-6.0604-3.2076-9.4616-3.4781zm19.046 28.526c0.26568 1.0301-1.0128 2.3648-1.3728 3.452-6.2797 11.56-12.695 23.16-19.461 34.381 0.4337-1.8529 2.0239-3.9434 2.8926-5.8592 5.891-10.698 11.646-21.524 17.908-31.979zm5.8771 2.0826c0.29227 1.3477-1.0196 2.8903-1.1964 4.2826-3.9516 11.2-7.5647 22.621-12.016 33.586-0.0512-1.3986 1.0281-3.3834 1.4072-4.9726 3.7652-10.893 7.2139-21.923 11.563-32.599 0.0711-0.0637 0.12697-0.35432 0.24237-0.29762zm5.2225 1.6704c0.0961 2.2676-1.02 4.6547-1.3608 6.9557-2.3838 9.8319-4.6244 19.769-7.3075 29.484-0.44365-0.86527 0.40321-2.5721 0.46518-3.6978 2.4856-10.962 4.9225-22.002 8.2031-32.742z" fill="url(#linearGradient2196)"/>
    </g>
    <g stroke-width=".0033265">
     <path d="m91.734 119.33c-0.41748 0.13957-0.12146 0.65665-0.07927 0.94715 1.515 5.7282 3.4611 11.333 5.6443 16.838 3.7223 9.482 7.8218 18.82 11.051 28.488 0.20272 0.47891 0.90318 2.8419 1.1759 3.2821 0.22496 0.243 0.0113-1.8261-0.1385-2.1403-0.70335-4.2479-0.91841-8.5613-1.7092-12.797-0.92311-5.1593-2.1377-10.312-4.3086-15.104-1.7453-3.8955-3.7987-7.6458-5.9333-11.339-1.421-2.4838-3.2969-4.6554-4.8267-7.0648-0.27522-0.3466-0.36485-0.86929-0.76192-1.1017-0.03669-0.0106-0.07536-0.0136-0.11328-8e-3z" fill="url(#linearGradient2236)"/>
     <path d="m97.949 126.73c-0.39741 0.16227-0.02711 0.58714 0.08873 0.82059 2.1418 3.7776 4.2392 7.593 5.9829 11.566 1.9544 4.4752 3.0792 9.2246 3.9949 14.01 0.0659 0.23505 0.0833 0.57816 0.36035 0.66345 0.4115 2.1133 0.9005 4.2452 1.5943 6.2986 1.5531 4.806 3.9993 9.2743 6.8536 13.424 2.6522 3.8774 5.432 7.6601 8.0996 11.526 0.25489 0.41057 0.71308-0.0201 0.99267-0.20473 1.0283-0.87559 1.1688-2.3397 1.1158-3.6034-0.12518-3.4877-1.0304-6.8823-1.8292-10.261-1.1982-4.8214-2.5932-9.6245-4.7475-14.117-1.8596-4.0183-4.0095-7.9093-5.4975-12.088-0.8146-2.1193-1.615-4.3568-3.289-5.9696-2.9946-3.1195-6.0404-6.2069-9.4132-8.9229-1.3357-1.0659-2.6621-2.1546-4.0806-3.1081-0.06927-0.0344-0.14893-0.0554-0.22595-0.0348z" fill="url(#linearGradient2228)"/>
     <path d="m109.11 159.29c-0.40324 0.15852 0.0912 2.1283 0.0784 2.4469 0.4014 3.5048 0.94718 6.9959 1.6754 10.448 0.31326 0.70174 0.88741 1.2592 1.3428 1.8728 3.0734 3.7393 6.6473 7.0859 10.652 9.8108 0.22996 0.24498 0.6328-0.0769 0.39002-0.33948-3.9387-5.7879-8.4178-11.272-11.463-17.611-0.7882-1.5766-1.3945-3.2376-2.05-4.8772-0.0699-0.15116-0.42719-1.7793-0.62546-1.7498z" fill="#ff8080"/>
     <path d="m158.35 126.98c-0.85801 0.47561-1.5992 1.1497-2.3921 1.7277-4.1565 3.1616-7.8923 6.8294-11.492 10.601-1.8261 1.9904-2.5838 4.6505-3.5654 7.1028-2.056 5.3047-5.0903 10.178-6.9882 15.552-1.6492 4.5677-2.7914 9.2995-3.831 14.037-0.49316 2.3854-0.9042 4.8337-0.64527 7.2744 0.18652 0.93245 0.74758 1.9037 1.6986 2.2064 0.38859-0.0826 0.53132-0.55881 0.78696-0.82499 3.2596-4.7729 6.8146-9.3474 9.8408-14.277 2.9259-4.7928 5.0681-10.084 6.0865-15.615 0.10785-0.26332-5.2e-4 -0.66989 0.3061-0.78513 0.29825-0.58619 0.3082-1.2826 0.47725-1.9133 0.86639-4.4523 2.0244-8.8673 3.8827-13.016 1.7713-4.0307 3.9389-7.8576 6.0835-11.693 0.10824-0.17571-0.0381-0.42103-0.24866-0.37707z" fill="url(#linearGradient2212)"/>
     <path d="m146.94 160.9c-0.37643 0.19216-0.38504 0.7196-0.5736 1.0588-2.0872 5.9062-5.6195 11.143-9.2493 16.2-1.3184 1.875-2.7023 3.7093-3.955 5.6275-0.13815 0.3055 0.2793 0.48736 0.48499 0.27942 4.299-2.9569 8.1103-6.615 11.315-10.729 0.32385-0.379 0.59886-0.80194 0.64135-1.3121 0.70302-3.5794 1.3029-7.1854 1.6493-10.818 0.0274-0.17973-0.12888-0.34912-0.31311-0.3064z" fill="url(#linearGradient2220)"/>
     <path d="m164.53 119.72c-0.4332 0.1583-0.513 0.72212-0.78332 1.0504-1.5471 2.4392-3.4514 4.647-4.8836 7.1674-2.2968 4.0126-4.5462 8.0699-6.339 12.338-2.0899 4.9693-3.1966 10.278-4.1006 15.572-0.54857 3.5825-0.8121 7.2021-1.3597 10.78-0.0565 0.24942-0.14476 0.80009 0.27562 0.73316 0.36978-0.2531 0.39642-0.78786 0.58716-1.1684 1.7416-5.169 3.6827-10.264 5.731-15.321 3.5377-8.8464 7.3847-17.597 10.064-26.757 0.38538-1.3634 0.85061-2.7123 1.1136-4.1056 0.0162-0.16841-0.14157-0.30917-0.30542-0.28796z" fill="url(#linearGradient2282)"/>
    </g>
   </g>
   <g fill="#ff8080">
    <g stroke-width=".0033265">
     <path d="m169.82 195.71c-0.38607 0.13543-0.49822 0.6186-0.73081 0.92014-4.5184 7.7432-8.2402 15.948-11.138 24.43-0.0443 0.38386 0.49599 0.35392 0.60522 0.0681 2.8135-4.794 5.2969-9.7801 7.5314-14.869 1.4591-3.3573 2.8173-6.7629 4.0016-10.226 0.0303-0.16298-0.0936-0.33815-0.26928-0.32324z"/>
     <path d="m142.16 187.66c-0.41688 0.10471-0.35253 0.66798-0.50077 0.98803-1.9956 7.8077-3.5727 15.714-5.4873 23.541-0.16539 0.87066-0.71382 3.3633-0.69898 4.2557 0.0485 0.34979 0.7661-1.3717 0.8125-1.6686 0.46142-1.5744 0.86328-3.1666 1.3427-4.734 1.2262-4.078 2.417-8.1768 3.175-12.373 0.59248-3.2191 1.1821-6.4412 1.6466-9.6815 0.0386-0.171-0.11067-0.35351-0.28977-0.32817z"/>
     <path d="m113.7 184.4c-0.40083 0.10908 0.28423 3.4773 0.28565 3.7613 0.69165 4.2751 1.3905 8.5536 2.3347 12.782 1.0653 4.6458 2.647 9.1536 3.8104 13.772 0.12542 0.33608 0.83047 2.5063 0.76049 2.1531-0.16643-1.548-0.80511-5.3638-1.1383-6.8817-1.7696-7.3434-3.251-14.762-5.1488-22.079-0.0845-0.23983-0.55181-3.539-0.90412-3.5075z"/>
     <path d="m86.568 195.52c-0.44335 0.0969-0.14598 0.62925-0.0614 0.89514 2.9882 8.4032 6.7336 16.541 11.206 24.258 0.11556 0.29088 0.62524 0.35678 0.63306-0.0275-0.43524-1.4861-1.0239-2.9316-1.5561-4.388-2.6718-7.0312-5.9222-13.847-9.754-20.32-0.1218-0.16206-0.79378-1.667-1.0298-1.6669z"/>
     <path d="m70.654 35.587c-2.713 0.12908-5.3104 1.0248-7.8888 1.8062-8.4335 2.7403-17.046 4.8859-25.481 7.6195-7.4015 2.3825-14.602 5.4434-21.31 9.389-3.4521 2.0587-6.9961 4.2408-9.425 7.5234-1.808 2.4059-2.8505 5.4534-2.5453 8.4767 0.085189 1.0485 0.33686 2.0894 0.71948 3.0665 0.2065 0.3165 0.59623-5.5e-5 0.5481-0.30261 0.088713-2.5044 0.9001-4.9044 2.2271-7.0474 2.0459-3.2938 5.0628-5.8423 8.1493-8.1238 7.8986-5.7628 17.171-9.2031 26.455-12.033 5.9044-1.8301 11.899-3.4526 17.585-5.9151 2.8993-1.1758 5.8242-2.48 8.9699-2.8006 1.6089-0.08723 3.2779-0.08909 4.8624 0.31348 0.48575-0.04634 0.15573-0.57729-0.02698-0.80762-0.65671-0.88834-1.7772-1.2057-2.8379-1.1644z"/>
     <path d="m185.47 35.878c-0.97062-0.01051-1.9814 0.3372-2.5708 1.1454-0.14487 0.22505-0.46082 0.55395-0.197 0.80118 0.50581 0.05355 1.0079-0.1908 1.5182-0.21631 2.9239-0.42546 5.8948 0.15946 8.6296 1.2018 3.4031 1.2852 6.7141 2.8114 10.174 3.947 7.5641 2.5271 15.322 4.4615 22.723 7.4626 7.0499 2.8353 13.866 6.5414 19.457 11.753 2.6748 2.5385 4.9416 5.7006 5.6509 9.3816 0.17938 0.74748 0.16568 1.5077 0.33862 2.2465 0.14916 0.32268 0.55367 0.1057 0.59058-0.17444 1.0195-2.9158 0.78704-6.2428-0.61243-8.9963-1.6197-3.3148-4.5208-5.7726-7.5637-7.7466-7.4079-4.8297-15.553-8.4397-23.944-11.186-8.6484-2.8505-17.504-5.0154-26.159-7.8455-2.42-0.72869-4.8515-1.5412-7.3837-1.7586-0.21708-0.01373-0.43473-0.01936-0.65222-0.01454z"/>
    </g>
    <path d="m109.2 214c-0.16659 8e-3 -0.26733 0.19224-0.21225 0.34289 0.20217 0.67371 0.46533 1.3281 0.73944 1.9755 0.6553 1.5327 1.4266 3.0112 2.0869 4.5405 0.60005 1.4244 1.071 2.9387 1.074 4.4979 6e-3 0.41226-0.0317 0.84117-0.0905 1.2556-0.0183 0.19023 0.22184 0.33011 0.3753 0.21283 0.15466-0.12713 0.18095-0.34421 0.24623-0.5226 0.13148-0.45329 0.21546-0.92275 0.20452-1.3961 0.01-0.42106-0.0271-0.8425-0.12374-1.2529-0.29522-1.3608-0.97272-2.5917-1.5524-3.8449-0.84749-1.7888-1.6463-3.6004-2.4068-5.4306-0.0679-0.14108-0.10982-0.35545-0.29851-0.37371-0.0141-1e-3 -0.0281-4e-3 -0.0422-5e-3z" stroke-width=".00083162"/>
    <path d="m147.18 214.24c-0.19024 3e-3 -0.24764 0.20769-0.30904 0.35059-0.79229 1.9131-1.6283 3.8013-2.5161 5.6723-0.58839 1.2591-1.2622 2.5073-1.518 3.8877-0.17888 0.92894-0.10186 1.9076 0.23799 2.7914 0.0488 0.15983 0.25664 0.25945 0.39552 0.1461 0.16963-0.12964 0.0713-0.36445 0.0664-0.53412-0.0818-0.68563-0.0582-1.349 0.0343-2.0375 0.19681-1.4532 0.74453-2.8559 1.3568-4.183 0.85872-1.871 1.8297-3.7066 2.4596-5.6752 0.0537-0.13499 0.0529-0.32928-0.10373-0.39326-0.0302-0.0226-0.0686-0.0181-0.10373-0.025z" stroke-width=".00083162"/>
   </g>
   <g>
    <path d="m69.792 37.843c-6.3407 0.67241-11.994 4.0327-18.063 5.7564-3.6685 1.4421-7.6583 2.0821-11.217 3.7295-0.61717 0.97454 1.3144 1.4685 1.9245 1.8596 5.9965 1.5388 12.764-0.38963 18.239 3.1509 7.547 4.2322 10.32 13.192 11.904 21.155 1.6701 9.414 4.724 18.544 8.5574 27.259 1.9406 4.2062 1.5868 9.7767-2.2463 12.81-6.7871 5.678-15.818 7.153-23.767 10.598-1.9802 1.0438-4.6355 1.5113-6.0554 3.311 0.41365 1.1969 2.1723-0.12113 2.9993-0.17447 10.096-3.3668 19.97-7.3915 29.377-12.383 2.3622-1.1841 4.8324-2.1415 7.4367-2.6202 0.22029-1.9603-0.86292-4.1381-1.1207-6.158-4.5006-20.073-9.2843-40.101-13.068-60.317-0.54739-2.5088-0.46153-5.2405-1.0703-7.6463-1.2733-0.13836-2.5437-0.39505-3.8304-0.33146z" fill="url(#linearGradient2274)" stroke-width=".018817"/>
    <g stroke-width=".0047044">
     <path d="m89.378 115.01c-0.67929-0.10513-0.61902 0.72633-0.82961 1.1537-1.3775 4.3415-1.2077 9.0742 0.12526 13.405 1.5368 5.0572 3.4069 10.006 5.2426 14.96 2.4317 6.4922 5.2328 12.869 8.8216 18.813 1.544 2.6144 3.2503 5.3923 3.2799 8.5132 0.0213 1.1685-0.19253 2.3593-0.8393 3.3615-0.50508 0.9947-1.141 1.9278-1.576 2.955 0.0786 0.52724 0.68585 0.11155 0.99662 0.0701 0.98696-0.28549 2.0102-0.6646 2.9624-0.93844 0.0733 0.25344 0.33542 0.40231 0.59127 0.37393 0.37498 8.4029 2.9167 16.526 5.8499 24.348 1.3865 3.6541 2.8036 7.3046 4.4185 10.863 0.12439 0.37156 0.74624 0.24373 0.62269-0.16608-1.1928-4.6409-2.7958-9.1778-3.6772-13.894-1.4413-7.1546-2.2805-14.435-4.1295-21.509-2.2618-9.2493-5.5719-18.199-9.164-27.004-4.0861-10.254-8.5536-20.401-11.198-31.148-0.36285-1.3502-0.65098-2.729-0.99028-4.0724-0.08085-0.19036-0.35663-0.0749-0.50719-0.0849z" fill="url(#linearGradient2272)"/>
     <path d="m98.068 190.71c-0.48789 0.16058-0.16564 0.81138-0.17028 1.1749 0.93141 5.5564 2.5713 11.002 5.0248 16.08 2.1054 4.5917 4.8734 9.0013 5.6802 14.056 0.42813 2.633 0.23597 5.3886-0.63564 7.9363-0.0311 0.54092 0.69213 0.33627 1.0151 0.30055 2.1126-0.37729 3.4518-2.577 3.4057-4.6252 0.055-1.5847-0.38846-3.1296-1.0439-4.5579-1.2812-3.1276-3.0967-6.1174-3.4237-9.5499 0.015-0.6574-0.13154-1.3-0.52232-1.8408-2.746-4.5247-5.0239-9.3204-7.1295-14.166-0.68042-1.5105-1.2005-3.0884-1.8666-4.6042-0.06704-0.11806-0.18854-0.22459-0.33387-0.20405z" fill="url(#linearGradient2270)"/>
     <path d="m84.779 193.74c-0.44617 0.22349-0.27272 0.87655-0.36167 1.2882-0.11771 2.9788-0.03922 5.9943 0.69948 8.8981 1.1431 5.0839 3.6919 9.8139 7.2276 13.633 1.5953 1.8027 3.3277 3.8001 3.4877 6.3138 0.20304 2.1795-1.2226 4.3921-3.3325 5.0301-0.30559 0.0665-0.88427 0.4177-0.44522 0.71884 0.86462 0.37755 1.8223 0.38992 2.7431 0.25015 2.0464-0.21354 3.9567-1.3994 5.1864-3.0294 0.48157-0.81022-0.24683-1.6683-0.59887-2.3753-5.8507-9.4955-10.569-19.67-14.151-30.223-0.09327-0.19652-0.17467-0.52826-0.45489-0.5053z" fill="url(#linearGradient2268)"/>
     <path d="m72.712 192.14c-0.48624 0.14358-0.21433 0.82089-0.26356 1.1852 0.26473 4.7682 1.506 9.4579 3.4813 13.799 1.5571 3.6628 3.4109 7.4279 3.3792 11.481-0.03665 1.4338-0.14755 2.9299-0.56648 4.2772-0.18634 0.53501 0.50161 0.37501 0.80236 0.30362 2.0952-0.4457 4.218-1.8269 4.8465-3.9711 0.15626-0.53719 0.27583-1.1135-0.13864-1.5735-4.3488-7.8804-7.972-16.137-10.945-24.621-0.16989-0.27012-0.20328-0.84434-0.59576-0.88095z" fill="url(#linearGradient2266)"/>
     <path d="m154 198.31c-0.57349 0.2665-0.8343 0.9509-1.2602 1.3945-2.348 2.9917-5.0892 5.6606-8.1469 7.9253-2.536 1.95-5.1947 3.9114-6.9456 6.6436-0.84834 1.4725-1.6237 3.1284-1.5575 4.864 0.17074 0.57528 0.59891 1.2676 1.2972 1.1661 1.401 0.13817 2.5687-0.79356 3.6326-1.5679 2.5012-1.9911 4.4562-4.5691 6.2911-7.162 1.882-2.7238 3.4396-5.6565 4.9491-8.5989 0.68318-1.4535 1.4724-2.8756 2.0279-4.3792 6e-3 -0.15532-0.12446-0.30484-0.2876-0.28554z" fill="url(#linearGradient2264)"/>
     <path d="m164.97 202.03c-0.61375 0.35188-0.89949 1.0924-1.3514 1.6174-3.3378 4.6487-6.1962 9.6489-8.352 14.955-1.3992 3.2639-2.806 6.742-5.6602 9.0219-1.0094 0.87497-2.1843 1.4524-3.3779 2.0314-0.41818 0.28502 0.10022 0.67388 0.41639 0.7192 1.9702 0.75662 4.1082-0.18377 5.6738-1.3963 1.6324-1.2566 2.9806-2.8933 3.7743-4.8037 1.6845-3.6882 2.8227-7.5943 4.4303-11.315 1.4078-3.4655 3.0136-6.8411 4.6474-10.199 0.12062-0.22533 0.19822-0.66098-0.2006-0.63132z" fill="url(#linearGradient2262)"/>
     <path d="m182.09 193.28c-0.53724 0.30359-0.73629 0.99037-1.1019 1.4651-4.2566 6.9411-8.1474 14.096-11.965 21.285-2.481 4.5818-5.1538 9.1238-8.6304 13.033-0.24658 0.22959-0.51951 0.78414-8e-3 0.88302 1.1585 0.33686 2.4285 0.38137 3.603 0.10289 1.4717-0.46332 2.7186-1.6036 3.2357-3.0687 0.73502-1.6924 1.2828-3.4636 2.1674-5.091 0.57982-1.3054 1.4507-2.4889 1.9446-3.8356 0.0283-0.37919 0.0739-0.76499 0.18299-1.1289 0.52314 0.28196 0.79677-0.4182 0.99289-0.7681 3.8753-7.1427 6.9989-14.663 9.815-22.277 0.1105-0.22485 0.12616-0.63057-0.23703-0.60024z" fill="url(#linearGradient2260)"/>
     <path d="m184.76 213.24c-0.54616 0.27476-0.72193 0.97042-1.098 1.425-1.5638 2.3489-3.596 4.4118-6.087 5.7853-1.0066 0.62868-2.1331 1.0166-3.2006 1.5142-0.40592 0.36567 0.27491 0.68313 0.5488 0.82467 1.2599 0.74695 2.8151 0.90132 4.2228 0.55478 2.3314-0.74108 3.9276-2.9119 4.5506-5.2042 0.4684-1.5436 0.98922-3.0842 1.3519-4.6526-8e-3 -0.14342-0.1411-0.26889-0.28847-0.24721z" fill="url(#linearGradient2258)"/>
     <path d="m208.08 137.27c-0.66834 0.32653-1.1558 0.94648-1.7868 1.3453-0.69186 0.78296-0.92537 1.8628-1.4046 2.7742-6.0342 13.814-11.392 28.029-14.387 42.841-1.0115 4.8816-1.5813 9.8383-2.1119 14.791 0.0349 0.44651 0.65245 0.27264 0.65946-0.10134 1.0195-3.1319 1.8536-6.3231 2.8472-9.4642 2.1181-7.0477 4.673-13.958 6.9524-20.956 3.2477-9.7149 6.259-19.509 9.1054-29.348 0.1186-0.57637 0.40212-1.1477 0.38698-1.7377-0.0536-0.0947-0.14639-0.16678-0.26136-0.14363z" fill="url(#linearGradient2256)"/>
     <path d="m206.65 129.17c-0.29686 0.52239-0.18643 1.2129-0.32787 1.8013-0.34368 2.6264-1.0906 5.2091-2.199 7.6205-0.19894 0.2382-0.0828 0.74777 0.2902 0.55554 0.59414-0.25523 1.1559-0.68432 1.3894-1.2835 0.62162 0.24607 1.0924-0.46324 1.5279-0.78434 0.71338-0.75123 1.7211-1.38 1.9262-2.4677 0.82405-0.26976 1.2434-1.1872 1.7193-1.8558 0.31393-0.59991 0.85318-1.2164 0.72832-1.9323-1.5883-0.62721-3.2548-1.1007-4.8731-1.669-0.0604 5e-3 -0.12084 0.0102-0.18126 0.0154z" fill="url(#linearGradient2254)"/>
     <path d="m222.98 100.38c-0.52949 0.21531-0.7348 0.87267-1.1294 1.2608-3.6224 4.8817-7.4358 9.6457-10.58 14.86-2.1948 3.6258-3.9206 7.596-4.5927 11.801 0.13029 0.45912 0.80452 0.40407 1.1697 0.62016 1.3322 0.41687 2.638 0.98502 4.0085 1.2465 0.68482-0.18 0.86179-1.0208 1.1957-1.5537 1.552-3.6236 2.6453-7.4231 3.8237-11.179 1.6983-5.6027 3.6136-11.166 6.2807-16.386 0.12522-0.225 0.23254-0.67847-0.17609-0.66999z" fill="url(#linearGradient2252)"/>
     <path d="m220.38 48.872c-0.50395 0.16148-0.0139 0.68926 0.16909 0.92524 4.0393 4.9813 8.7497 9.4165 13.987 13.12 2.9203 2.1006 6.1212 4.137 7.9186 7.3656 1.2973 2.2925 1.6358 5.2712 0.36335 7.6342-1.1877 2.5306-3.3677 4.3624-5.2423 6.3663-3.3886 3.4331-6.8215 6.8235-10.216 10.25-3.5084 5.7639-6.4186 11.901-8.5022 18.324-0.39247 1.2867-0.95047 2.5423-1.187 3.8669 0.0381 0.43795 0.56373 0.25643 0.67914-0.0445 2.7796-3.5178 5.5954-7.0042 8.4254-10.482 7.32-9.0978 14.639-18.198 21.832-27.396 0.80381-1.0929 1.8051-2.1888 1.8818-3.6163 0.32599-2.3497-0.13604-4.7548-1.1726-6.8771-1.774-3.8193-5.052-6.64-8.3174-9.1691-3.994-3.0108-8.4402-5.3784-13.007-7.3925-2.4706-1.0178-4.9369-2.0744-7.491-2.8646-0.0398-0.0075-0.0805-0.01235-0.12101-0.0091z" fill="url(#linearGradient2250)"/>
     <path d="m185.42 35.876c-1.1025-0.01271-2.2457 0.56737-2.7604 1.5561-0.0365 0.525 0.61925 0.34562 0.92329 0.26936 2.4068-0.44208 4.9396-0.26333 7.2929 0.47013 3.6597 1.0627 7.0912 2.8252 10.702 4.0632 9.0351 3.1573 18.422 5.3054 27.17 9.2489 6.1239 2.7121 12.016 6.1855 16.84 10.883 2.573 2.499 4.6781 5.6383 5.3019 9.224 0.18509 0.62341 0.0829 1.3244 0.38219 1.9054 0.4425 0.33535 0.60353-0.39945 0.69002-0.69519 0.9815-3.3575 0.28207-7.1061-1.7156-9.961-2.6052-3.8733-6.7226-6.308-10.668-8.6083-7.2306-4.1754-15.026-7.2925-23.005-9.7107-7.9653-2.4663-16.037-4.5696-23.971-7.1369-2.3385-0.7015-4.7201-1.4607-7.182-1.5081z" fill="url(#linearGradient2248)"/>
     <path d="m70.627 35.599c-2.7779 0.14678-5.4316 1.0943-8.0801 1.8693-7.4188 2.3961-14.969 4.3704-22.425 6.6578-0.55939 0.61757-0.86313 1.5367-0.7147 2.3682 0.31089 0.38179 0.85476-0.06844 1.2361-0.09384 5.2376-1.6072 10.511-3.1193 15.655-5.0141 3.7925-1.3728 7.4194-3.3233 11.428-4.0156 1.9262-0.29303 3.9138-0.2403 5.8272 0.17315 0.47894-0.23839-0.06942-0.75804-0.26844-1.0106-0.6646-0.7457-1.6994-0.96078-2.6572-0.93429z" fill="url(#linearGradient2246)"/>
     <path d="m97.973 126.76c-0.40991 0.29893 0.14622 0.76953 0.25256 1.1026 2.2242 3.9001 4.353 7.8687 6.1187 12 1.764 4.1872 2.7523 8.628 3.6638 13.06 0.0697 0.54711 0.46378 0.94071 0.51013 1.4936 0.89269 4.8165 2.6365 9.4498 5.0024 13.733 2.8518 5.1196 6.4679 9.7538 9.7908 14.566 0.62141 0.79174 1.0746 1.7474 1.8354 2.4146 0.66772 0.0463 1.1036-0.6571 1.433-1.1485 0.61417-1.2856 0.43855-2.7821 0.35925-4.1604-0.41715-3.9079-1.4536-7.7163-2.4321-11.513-1.1859-4.4777-2.7041-8.8789-4.796-13.019-1.7054-3.5246-3.4902-7.0001-4.8226-10.687-0.81005-2.1474-1.6874-4.3726-3.3864-5.9874-4.0594-4.2599-8.356-8.3319-13.163-11.745-0.10973-0.0663-0.22946-0.15367-0.36633-0.11048z" fill="url(#linearGradient2244)"/>
    </g>
   </g>
  </g>
 </g>
 <g fill="none" stroke="#000" stroke-width="1px">
  <path transform="matrix(.88036 0 0 .94196 47.443 20.417)" d="m135.5 98.25c1.7809 0.12775 3.5468 0.46411 5.25 1 3.063 0.96375 5.8826 2.5547 8.75 4 8.466 4.2674 17.483 7.3204 26.5 10.25 3.9101 1.2704 7.8268 2.5205 11.75 3.75"/>
  <path transform="matrix(.88036 0 0 .94196 47.443 20.417)" d="m135.5 98.25c-1.0512 4.9053-2.3875 9.7495-4 14.5-2.8958 8.5314-6.6707 16.732-10.25 25-4.7399 10.949-9.1657 22.102-11.75 33.75-1.7139 7.7248-2.6096 15.632-4.75 23.25-1.084 3.858-2.4827 7.6239-3.5 11.5-0.39017 1.4866-0.72382 2.9881-0.99999 4.5"/>
  <path transform="matrix(.88036 0 0 .94196 47.443 20.417)" d="m135.5 98.25c-0.27543 0.48674-0.52586 0.98762-0.75 1.5-0.73531 1.6809-1.1859 3.4808-2 5.125-1.1154 2.2527-2.8625 4.1172-4.375 6.125-1.4334 1.9027-2.6647 3.9482-3.875 6-2.4934 4.2269-4.9212 8.5227-6.625 13.125-1.2751 3.4442-2.1325 7.0282-2.875 10.625-0.33384 1.6172-0.64523 3.2398-0.875 4.875-0.1985 1.4126-0.33587 2.833-0.5 4.25-0.62017 5.3541-1.6236 10.664-3 15.875"/>
  <path transform="matrix(.88036 0 0 .94196 47.443 20.417)" d="m95.375 175.62c1.1907-1.638 2.3991-3.2632 3.625-4.875 4.0152-5.2791 8.2473-10.461 11.25-16.375 2.0173-3.9732 3.4539-8.2407 4.25-12.625"/>
  <path transform="matrix(.88036 0 0 .94196 47.443 20.417)" d="m95.375 175.62c-0.61716-0.10561-1.1971-0.41789-1.625-0.875-0.454-0.485-0.72962-1.1169-0.86953-1.7663-0.13992-0.64943-0.1513-1.3197-0.13047-1.9837 0.08629-2.7509 0.71311-5.4536 1.375-8.125 1.3074-5.2768 2.772-10.541 5-15.5 2.0779-4.6246 4.8024-8.944 6.75-13.625 0.90427-2.1734 1.6522-4.445 3-6.375 0.69448-0.99447 1.5406-1.8829 2.5-2.625"/>
  <path transform="matrix(.88036 0 0 .94196 47.443 20.417)" d="m126.87 112.13c-2.0543 1.3379-4.0563 2.756-6 4.25-3.3496 2.5746-6.5258 5.3746-9.5 8.375"/>
  <path transform="matrix(.88036 0 0 .94196 47.443 20.417)" d="m158 129.13-24.125 40.125"/>
  <path transform="matrix(.88036 0 0 .94196 47.443 20.417)" d="m164.37 131.13-15 40.375"/>
  <path transform="matrix(.88036 0 0 .94196 47.443 20.417)" d="m170.37 132.88-10.125 38.875"/>
  <path transform="matrix(.88036 0 0 .94196 47.443 20.417)" d="m95.375 175.62c1.2359-0.70438 2.4453-1.4551 3.625-2.25 4.7622-3.209 9.0348-7.1432 12.625-11.625"/>
  <path transform="matrix(.88036 0 0 .94196 47.443 20.417)" d="m111.25 164.5c-1.8887 5.2183-3.5573 10.516-5 15.875-1.9415 7.2116-3.4725 14.528-5.375 21.75-0.37269 1.4148-0.76074 2.8315-0.94058 4.2835s-0.14465 2.9528 0.31558 4.3415c0.10596 0.31973 0.23492 0.63405 0.41642 0.9178 0.18149 0.28375 0.41793 0.53698 0.70858 0.7072 0.43262 0.25337 0.96084 0.30738 1.4567 0.23338s0.96581-0.26745 1.4183-0.48338c2.8244-1.3479 5.1205-3.5967 7.125-6 2.9137-3.4934 5.3203-7.3822 7.5-11.375 3.3019-6.0484 6.1061-12.368 8.375-18.875"/>
  <path transform="matrix(.88036 0 0 .94196 47.443 20.417)" d="m141.25 181.88c-6.3471 9.2395-11.565 19.254-15.5 29.75-0.92591 2.4695-1.803 5.0072-3.375 7.125-1.7127 2.3074-4.2231 4.0109-7 4.75"/>
  <path transform="matrix(.88036 0 0 .94196 47.443 20.417)" d="m114.5 201.75c0.0123 0.29149 0.0123 0.58351 0 0.875-0.13387 3.1598-1.6892 6.057-3.125 8.875-0.77957 1.53-1.542 3.0956-1.8721 4.7807-0.16507 0.84258-0.21922 1.7109-0.10859 2.5623 0.11064 0.85145 0.38917 1.6862 0.85569 2.407 0.53672 0.82928 1.3206 1.4964 2.2251 1.8934 0.90448 0.39709 1.9261 0.52271 2.8999 0.35656"/>
  <path transform="matrix(.88036 0 0 .94196 47.443 20.417)" d="m111 222.12c-0.90755-0.43783-1.6856-1.1402-2.2137-1.9983-0.5281-0.85816-0.80447-1.8692-0.78634-2.8767 0.0304-1.6889 0.85317-3.2474 1.625-4.75 1.7985-3.5012 3.4261-7.0902 4.875-10.75"/>
  <path transform="matrix(.88036 0 0 .94196 47.443 20.417)" d="m141.25 181.88c-3.0714 9.0966-7.0117 17.9-11.75 26.25-2.0604 3.6311-4.2712 7.1768-6.625 10.625"/>
  <path transform="matrix(.88036 0 0 .94196 47.443 20.417)" d="m155.37 178.88c-3.6614 10.988-8.5336 21.573-14.5 31.5-1.385 2.3044-2.8393 4.5953-3.75 7.125-0.36798 1.0222-0.65208 2.0929-1.25 3-0.66213 1.0045-1.6849 1.7482-2.8161 2.1578-1.1312 0.40954-2.3656 0.49575-3.5589 0.34223-2.6891-0.34598-5.1894-1.95-6.625-4.25"/>
  <path transform="matrix(.88036 0 0 .94196 47.443 20.417)" d="m166.37 173.38c-3.6918 11.038-7.1099 22.168-10.25 33.375-0.47255 1.6866-0.94472 3.39-1.7626 4.9389-0.81785 1.5489-2.0219 2.9526-3.6124 3.6861-1.1118 0.51273-2.3728 0.6753-3.5877 0.52374s-2.3831-0.61063-3.4123-1.2737c-0.85016-0.54776-1.6208-1.2483-2.125-2.125-0.68846-1.1972-0.82894-2.6957-0.375-4"/>
  <path transform="matrix(.88036 0 0 .94196 47.443 20.417)" d="m166.37 173.38c2.6847-7.0877 5.2684-14.214 7.75-21.375 3.5423-10.222 6.8766-20.517 10-30.875"/>
  <path transform="matrix(.88036 0 0 .94196 47.443 20.417)" d="m176.5 127.25c3.4562-1.4013 6.5173-3.7627 8.75-6.75 1.3208-1.7672 2.3493-3.736 3.25-5.75 2.5998-5.8129 4.1648-12.028 6.375-18 2.4442-6.6044 5.6833-12.914 9.625-18.75"/>
  <path transform="matrix(.88036 0 0 .94196 47.443 20.417)" d="m192 105.13c11.95-13.81 23.825-27.686 35.625-41.625 2.024-2.3911 4.0966-4.8754 5-7.875 0.60834-2.0199 0.6462-4.2059 0.125-6.25-0.69624-2.7306-2.3569-5.1449-4.3874-7.0988-2.0305-1.9539-4.4268-3.4843-6.8626-4.9012-5.8082-3.3787-11.94-6.1891-18.25-8.5-11.494-4.2095-23.521-6.7496-35.25-10.25-3.0922-0.92284-6.1808-1.9164-9.375-2.375-1.0173-0.14604-2.0665-0.23562-3.0629 0.01616-0.49819 0.12589-0.97796 0.33813-1.3857 0.65088-0.40772 0.31275-0.74138 0.72859-0.92644 1.208-0.19826 0.51356-0.22096 1.0753-0.25 1.625-0.30795 5.8287-1.5847 11.558-2.875 17.25-4.6404 20.472-9.5158 40.89-14.625 61.25"/>
  <path transform="matrix(.88036 0 0 .94196 47.443 20.417)" d="m153.12 19c1.6218-0.46154 3.3145-0.67313 5-0.625 4.5725 0.13057 8.8479 2.1277 13.125 3.75 5.9913 2.2724 12.216 3.8582 18.375 5.625 11.544 3.3113 23.132 7.395 32.625 14.75 1.9085 1.4786 3.7301 3.0913 5.2412 4.9742 1.5111 1.8829 2.7076 4.0503 3.2588 6.4008 0.4607 1.9645 0.4607 4.0355 0 6"/>
  <path transform="matrix(-.88036 0 0 .94196 208.93 20.124)" d="m135.5 98.25c1.7809 0.12775 3.5468 0.46411 5.25 1 3.063 0.96375 5.8826 2.5547 8.75 4 8.466 4.2674 17.483 7.3204 26.5 10.25 3.9101 1.2704 7.8268 2.5205 11.75 3.75"/>
  <path transform="matrix(-.88036 0 0 .94196 208.93 20.124)" d="m135.5 98.25c-1.0512 4.9053-2.3875 9.7495-4 14.5-2.8958 8.5314-6.6707 16.732-10.25 25-4.7399 10.949-9.1657 22.102-11.75 33.75-1.7139 7.7248-2.6096 15.632-4.75 23.25-1.084 3.858-2.4827 7.6239-3.5 11.5-0.39017 1.4866-0.72382 2.9881-0.99999 4.5"/>
  <path transform="matrix(-.88036 0 0 .94196 208.93 20.124)" d="m135.5 98.25c-0.27543 0.48674-0.52586 0.98762-0.75 1.5-0.73531 1.6809-1.1859 3.4808-2 5.125-1.1154 2.2527-2.8625 4.1172-4.375 6.125-1.4334 1.9027-2.6647 3.9482-3.875 6-2.4934 4.2269-4.9212 8.5227-6.625 13.125-1.2751 3.4442-2.1325 7.0282-2.875 10.625-0.33384 1.6172-0.64523 3.2398-0.875 4.875-0.1985 1.4126-0.33587 2.833-0.5 4.25-0.62017 5.3541-1.6236 10.664-3 15.875"/>
  <path transform="matrix(-.88036 0 0 .94196 208.93 20.124)" d="m95.375 175.62c1.1907-1.638 2.3991-3.2632 3.625-4.875 4.0152-5.2791 8.2473-10.461 11.25-16.375 2.0173-3.9732 3.4539-8.2407 4.25-12.625"/>
  <path transform="matrix(-.88036 0 0 .94196 208.93 20.124)" d="m95.375 175.62c-0.61716-0.10561-1.1971-0.41789-1.625-0.875-0.454-0.485-0.72962-1.1169-0.86953-1.7663-0.13992-0.64943-0.1513-1.3197-0.13047-1.9837 0.08629-2.7509 0.71311-5.4536 1.375-8.125 1.3074-5.2768 2.772-10.541 5-15.5 2.0779-4.6246 4.8024-8.944 6.75-13.625 0.90427-2.1734 1.6522-4.445 3-6.375 0.69448-0.99447 1.5406-1.8829 2.5-2.625"/>
  <path transform="matrix(-.88036 0 0 .94196 208.93 20.124)" d="m126.87 112.13c-2.0543 1.3379-4.0563 2.756-6 4.25-3.3496 2.5746-6.5258 5.3746-9.5 8.375"/>
  <path transform="matrix(-.88036 0 0 .94196 208.93 20.124)" d="m158 129.13-24.125 40.125"/>
  <path transform="matrix(-.88036 0 0 .94196 208.93 20.124)" d="m164.37 131.13-15 40.375"/>
  <path transform="matrix(-.88036 0 0 .94196 208.93 20.124)" d="m170.37 132.88-10.125 38.875"/>
  <path transform="matrix(-.88036 0 0 .94196 208.93 20.124)" d="m95.375 175.62c1.2359-0.70438 2.4453-1.4551 3.625-2.25 4.7622-3.209 9.0348-7.1432 12.625-11.625"/>
  <path transform="matrix(-.88036 0 0 .94196 208.93 20.124)" d="m111.25 164.5c-1.8887 5.2183-3.5573 10.516-5 15.875-1.9415 7.2116-3.4725 14.528-5.375 21.75-0.37269 1.4148-0.76074 2.8315-0.94058 4.2835s-0.14465 2.9528 0.31558 4.3415c0.10596 0.31973 0.23492 0.63405 0.41642 0.9178 0.18149 0.28375 0.41793 0.53698 0.70858 0.7072 0.43262 0.25337 0.96084 0.30738 1.4567 0.23338s0.96581-0.26745 1.4183-0.48338c2.8244-1.3479 5.1205-3.5967 7.125-6 2.9137-3.4934 5.3203-7.3822 7.5-11.375 3.3019-6.0484 6.1061-12.368 8.375-18.875"/>
  <path transform="matrix(-.88036 0 0 .94196 208.93 20.124)" d="m141.25 181.88c-6.3471 9.2395-11.565 19.254-15.5 29.75-0.92591 2.4695-1.803 5.0072-3.375 7.125-1.7127 2.3074-4.2231 4.0109-7 4.75"/>
  <path transform="matrix(-.88036 0 0 .94196 208.93 20.124)" d="m114.5 201.75c0.0123 0.29149 0.0123 0.58351 0 0.875-0.13387 3.1598-1.6892 6.057-3.125 8.875-0.77957 1.53-1.542 3.0956-1.8721 4.7807-0.16507 0.84258-0.21922 1.7109-0.10859 2.5623 0.11064 0.85145 0.38917 1.6862 0.85569 2.407 0.53672 0.82928 1.3206 1.4964 2.2251 1.8934 0.90448 0.39709 1.9261 0.52271 2.8999 0.35656"/>
  <path transform="matrix(-.88036 0 0 .94196 208.93 20.124)" d="m111 222.12c-0.90755-0.43783-1.6856-1.1402-2.2137-1.9983-0.5281-0.85816-0.80447-1.8692-0.78634-2.8767 0.0304-1.6889 0.85317-3.2474 1.625-4.75 1.7985-3.5012 3.4261-7.0902 4.875-10.75"/>
  <path transform="matrix(-.88036 0 0 .94196 208.93 20.124)" d="m141.25 181.88c-3.0714 9.0966-7.0117 17.9-11.75 26.25-2.0604 3.6311-4.2712 7.1768-6.625 10.625"/>
  <path transform="matrix(-.88036 0 0 .94196 208.93 20.124)" d="m155.37 178.88c-3.6614 10.988-8.5336 21.573-14.5 31.5-1.385 2.3044-2.8393 4.5953-3.75 7.125-0.36798 1.0222-0.65208 2.0929-1.25 3-0.66213 1.0045-1.6849 1.7482-2.8161 2.1578-1.1312 0.40954-2.3656 0.49575-3.5589 0.34223-2.6891-0.34598-5.1894-1.95-6.625-4.25"/>
  <path transform="matrix(-.88036 0 0 .94196 208.93 20.124)" d="m166.37 173.38c-3.6918 11.038-7.1099 22.168-10.25 33.375-0.47255 1.6866-0.94472 3.39-1.7626 4.9389-0.81785 1.5489-2.0219 2.9526-3.6124 3.6861-1.1118 0.51273-2.3728 0.6753-3.5877 0.52374s-2.3831-0.61063-3.4123-1.2737c-0.85016-0.54776-1.6208-1.2483-2.125-2.125-0.68846-1.1972-0.82894-2.6957-0.375-4"/>
  <path transform="matrix(-.88036 0 0 .94196 208.93 20.124)" d="m166.37 173.38c2.6847-7.0877 5.2684-14.214 7.75-21.375 3.5423-10.222 6.8766-20.517 10-30.875"/>
  <path transform="matrix(-.88036 0 0 .94196 208.93 20.124)" d="m176.5 127.25c3.4562-1.4013 6.5173-3.7627 8.75-6.75 1.3208-1.7672 2.3493-3.736 3.25-5.75 2.5998-5.8129 4.1648-12.028 6.375-18 2.4442-6.6044 5.6833-12.914 9.625-18.75"/>
  <path transform="matrix(-.88036 0 0 .94196 208.93 20.124)" d="m192 105.13c11.95-13.81 23.825-27.686 35.625-41.625 2.024-2.3911 4.0966-4.8754 5-7.875 0.60834-2.0199 0.6462-4.2059 0.125-6.25-0.69624-2.7306-2.3569-5.1449-4.3874-7.0988-2.0305-1.9539-4.4268-3.4843-6.8626-4.9012-5.8082-3.3787-11.94-6.1891-18.25-8.5-11.494-4.2095-23.521-6.7496-35.25-10.25-3.0922-0.92284-6.1808-1.9164-9.375-2.375-1.0173-0.14604-2.0665-0.23562-3.0629 0.01616-0.49819 0.12589-0.97796 0.33813-1.3857 0.65088-0.40772 0.31275-0.74138 0.72859-0.92644 1.208-0.19826 0.51356-0.22096 1.0753-0.25 1.625-0.30795 5.8287-1.5847 11.558-2.875 17.25-4.6404 20.472-9.5158 40.89-14.625 61.25"/>
  <path transform="matrix(-.88036 0 0 .94196 208.93 20.124)" d="m153.12 19c1.6218-0.46154 3.3145-0.67313 5-0.625 4.5725 0.13057 8.8479 2.1277 13.125 3.75 5.9913 2.2724 12.216 3.8582 18.375 5.625 11.544 3.3113 23.132 7.395 32.625 14.75 1.9085 1.4786 3.7301 3.0913 5.2412 4.9742 1.5111 1.8829 2.7076 4.0503 3.2588 6.4008 0.4607 1.9645 0.4607 4.0355 0 6"/>
 </g>
</svg>
