<?xml version="1.0" encoding="UTF-8"?>
<svg cursor="default" enable-background="new" version="1.1" viewBox="0 0 256 256" xmlns="http://www.w3.org/2000/svg" xmlns:cc="http://creativecommons.org/ns#" xmlns:dc="http://purl.org/dc/elements/1.1/" xmlns:rdf="http://www.w3.org/1999/02/22-rdf-syntax-ns#" xmlns:xlink="http://www.w3.org/1999/xlink">
 <metadata>
  <rdf:RDF>
   <cc:Work rdf:about="">
    <dc:format>image/svg+xml</dc:format>
    <dc:type rdf:resource="http://purl.org/dc/dcmitype/StillImage"/>
    <dc:title/>
   </cc:Work>
  </rdf:RDF>
 </metadata>
 <defs>
  <radialGradient id="radialGradient2046" cx="181.5" cy="84.794" r="56.421" gradientTransform="matrix(.27472 .26143 -.52704 .55384 176.33 -8.1618)" gradientUnits="userSpaceOnUse">
   <stop stop-color="#ffb380" offset="0"/>
   <stop stop-color="#f95" offset="1"/>
  </radialGradient>
  <radialGradient id="radialGradient2056" cx="234.25" cy="133.11" r="12.818" gradientTransform="matrix(1.2482 -.64361 1.5167 2.9414 -260.03 -109.52)" gradientUnits="userSpaceOnUse">
   <stop stop-color="#ffb380" offset="0"/>
   <stop stop-color="#f95" offset="1"/>
  </radialGradient>
 </defs>
 <g>
  <g>
   <g fill="#ff8080" stroke="#000" stroke-width=".181">
    <path d="m219.26 90.366c-5.7864 0.34495-11.14 2.9658-16.266 5.4714-8.2018 4.3928-15.574 10.141-23.174 15.468-21.3 15.453-42.244 31.451-61.899 48.972-6.3009 5.6076-12.767 11.049-18.923 16.81-0.25898 1.0377 1.1834 0.36154 1.6146 0.13291 16.4-7.1846 33.003-13.887 49.457-20.949 12.601-5.3534 24.456-12.312 37.06-17.624 5.8769-2.2993 12.034-4.2071 18.328-4.7567 0.30698 0.69023-1.1426 0.36443-1.5533 0.61802-9.3216 1.3237-18.149 4.8565-26.476 9.1412-11.65 5.7681-23.245 11.643-35.303 16.516-16.189 6.8586-32.544 13.353-48.477 20.794-3.585 2.1644-7.5718 3.4558-11.397 5.0952-1.1379 0.68058-2.6844 1.058-3.4808 2.1465 0.31339 0.93052 1.652-3e-3 2.3552 0.12097 15.948-2.4234 32.03-3.7097 48.132-4.6742 12.996-0.87622 26.186-2.095 38.452-6.7876 16.545-6.1004 32.215-14.61 46.556-24.798 1.4773-1.2696 3.5485-2.0838 4.2568-4.0186 5.1208-7.2839 9.2736-15.333 11.378-24.024 1.8298-7.0449 2.2988-14.462 1.4115-21.683-0.68194-6.4522-5.0426-12.154-12.054-11.971z"/>
    <path d="m100.83 150.53c-5.4885 0.0163-10.541 2.4221-15.798 3.6637-24.712 6.9916-49.519 13.691-74.228 20.684-0.79415 0.79941 0.90639 1.3534 1.3652 1.7817 11.348 7.4074 25.118 9.6535 38.412 10.372 7.8505 0.61052 15.749 0.32441 23.597-0.17234 3.7548-0.69186 7.8836-0.86348 11.02-3.2993 10.238-6.7562 19.104-15.301 28.37-23.28 2.8715-2.6376 5.9392-5.1017 8.6174-7.9291-0.20174-1.0159-1.6948-0.17056-2.4288-0.24572-6.308 0.61351-12.571-1.9153-18.928-1.5746z"/>
    <path d="m147.47 108.34c-9.4107 6.5421-20.361 12.117-32.095 11.905-4.7252-0.0211-9.2452-1.4528-13.504-3.398-1.01-0.0286-1.2618 1.4851-1.8262 2.1611-4.5343 8.1864-7.1678 17.414-7.3715 26.783 0.24068 1.0936-0.73351 3.092 0.30556 3.6453 5.2173-2.5485 11.219-2.408 16.796-1.3501 6.5803 1.1826 13.557 0.45901 19.509-2.7001 3.6238-1.7684 6.2311-4.9966 9.3573-7.4609 1.2414-1.1258 2.8223-2.0441 3.0036-3.877 1.8046-6.0491 4.348-11.802 6.7365-17.628 1.0791-2.5514 1.8854-6.1828-0.69331-8.1199l-0.034-0.0166z"/>
    <path d="m144.57 107.79c-4.7551 0.29909-9.0259 2.7497-13.403 4.4069-2.4233 0.92867-4.7209 2.457-7.4225 2.0585-6.6251 0.25749-13.289 0.65255-19.815 1.8599-1.0022 0.15877-0.38635 1.1982 0.32422 1.271 4.0868 1.7651 8.5526 2.5147 12.993 2.2046 7.3427 0.10381 14.306-2.709 20.749-5.9678 2.8289-1.5482 5.7271-3.1081 8.2389-5.1255 0.38251-0.98998-1.2165-0.63391-1.665-0.70752z"/>
   </g>
   <g stroke="#000" stroke-width=".181">
    <path d="m208.32 47.94c-11.468 0.21577-22.162 6.3494-29.831 14.608-8.4874 9.07-14.283 20.349-18.46 31.934-1.0577 0.1542-1.1733-1.4363-1.7129-2.0532-4.3936-8.1224-12.773-13.913-21.917-15.14-0.67641 0.85358 1.1487 1.2504 1.5814 1.7923 6.3574 4.3152 11.129 11.167 12.449 18.805 0.42975 2.1764 0.56957 4.415 0.71484 6.6392-0.99829 0.22644-0.48624-1.2849-0.72119-1.8008-0.35258-3.3644-2.3261-6.8831-5.562-8.1567-1.0107 0.37201 0.2007 1.6435 0.33789 2.2983 2.0222 4.5018 4.4913 9.1419 4.7392 14.125-0.0113 5.4028-3.3586 10.168-5.0503 15.208-0.84739 2.5216-2.1594 4.998-2.5015 7.6348 0.79367 0.72118 1.5678-0.83525 2.2399-1.1478 19.659-16.636 40.418-32.539 64.106-42.978 5.5116-2.3472 11.999-4.3643 17.775-1.7383 9.3453 4.3646 17.413 12.165 20.538 22.168 0.20793 0.52325 0.60157 2.2672 1.3257 1.3188 1.864-10.639-1.1434-22.07-7.9897-30.434-6.647-7.9395-16.386-13.547-26.799-14.311-3.9377-0.20781-8.5608-0.08409-11.464 2.9883-3.1825 5.5398-5.3886 11.652-9.2534 16.803-4.1107 5.5939-9.0771 10.622-14.808 14.556-0.57652 0.25744-0.36414-0.5293 0.167-0.56397 9.1099-6.633 16.604-15.658 20.839-26.139 0.0949-0.6823-0.32607-1.351 0.26562-1.9863 1.4038-2.2391 3.0218-4.3448 4.2617-6.6929 5.2482-8.3046 15.54-13.251 25.278-11.346 0.50395 0.22671 1.7775 0.0041 1.0939-0.6928-6.4909-3.9444-14.059-5.8613-21.643-5.6973z" fill="url(#radialGradient2046)"/>
    <path d="m228.57 134.67c-1.6229 3.7793-3.1942 7.6525-5.4673 11.089-2.5523 2.4509-5.6818 4.3022-8.2476 6.6665 0.0225 12.066 2.6122 23.932 5.0678 35.688 0.22333 0.6552 0.37787 3.8296 1.2304 2.3719 1.8066-11.407 6.8727-22.006 8.6558-33.429 0.73446-6.2255 0.80715-12.575-0.0168-18.795-0.26403-1.2413-0.27624-2.5994-0.76152-3.7543-0.15294 0.056-0.40531-0.14165-0.46094 0.1626z" fill="#f95"/>
    <path d="m231.73 91.596c-0.75792 0.70175 0.44745 1.8269 0.63551 2.6245 2.7136 6.2007 2.0125 13.187 1.4573 19.739-0.69376 6.5101-2.4939 12.792-4.5068 18.981 1.3519 5.9406 1.7425 11.959 1.442 18.033-0.19186 2.7011-0.0975 5.3787 0.63821 7.9995 1.1923 5.6373 1.8761 11.325 2.4145 17.044 0.7697 0.86118 1.0607-0.92971 1.1978-1.4277 1.3747-6.5023 4.0938-12.628 5.4072-19.138 0.96999-7.888 0.0381-15.892-1.2918-23.685-0.48401-3.2838-1.5784-6.4659-2.1237-9.7151 0.52076-0.25062 0.4959 1.3308 0.75928 1.6904 2.6918 10.234 4.2768 20.957 3.1963 31.523-0.0553 0.5465-0.67867 2.5046 0.45802 1.8449 3.2482-6.3222 2.8489-13.76 1.9999-20.609-0.91003-7.3851-2.9713-14.558-5.3065-21.6-0.27784-1.0214 0.72315-0.0454 0.85498 0.32422 5.6326 7.9472 11.035 16.307 13.995 25.648 0.45069 0.94448 0.2158 2.3681 1.1224 3.0117 1.065-0.26278 0.53764-1.8801 0.6798-2.6992-0.25767-7.7828-2.5232-15.593-7.151-21.924-3.5144-4.8669-6.579-10.084-8.2573-15.863-1.0252-2.6625-1.1568-5.6706-2.5547-8.1699-1.4796-1.3994-3.114-2.7693-4.957-3.6411z" fill="url(#radialGradient2056)"/>
    <path d="m162.2 63.841c-2.1222 2.1979-3.5291 5.0923-4.6001 7.9502-1.7902 4.9007-2.0024 10.231-1.1699 15.348 0.10117 2.2953 1.8794 4.0264 2.834 5.9946 1.016 0.44893 1.1281-1.288 1.478-1.8682 1.1077-2.562-0.20106-5.3286-0.0111-7.9837-0.29494-6.2833 0.053-12.672 1.8783-18.728 0.12208-0.30396 0.0357-0.82937-0.40918-0.71289z" fill="#ffb380"/>
   </g>
   <g fill="#ffe680" stroke="#000" stroke-width=".181">
    <path d="m127.52 146.84c-3.3366 1.2981-6.87 2.1496-10.464 2.1035-6.7888 0.59911-13.63-2.5271-20.341-0.35791-1.5692 0.61281-3.681 0.86467-4.5962 2.4414 0.35782 0.95271 1.6103-0.17062 2.3218-0.11817 6.3045-1.7839 12.795-0.56947 19.108 0.52149 3.3928 0.247 6.9985 0.44718 10.223-0.82374 1.5954-0.78582 2.9901-2.0169 4.1304-3.3535 0.048-0.23527-0.15526-0.44886-0.38233-0.41309z"/>
    <path d="m7.5878 175.71c-0.57761 0.19375-2.2858 0.45319-1.4556 1.3188 13.047 10.391 29.591 16.817 46.375 16.548 8.8782-0.29906 17.889-2.0131 25.808-6.1411 0.28193-1.0458-1.2853-0.49693-1.8657-0.44336-8.008 1.3273-16.219 0.87681-24.323 0.64027-13.926-0.70139-28.43-2.8183-40.293-10.672-1.2656-0.64468-2.4283-2.2724-3.9603-1.3298l-0.24086 0.067z"/>
    <path d="m221.03 87.298c-8.2213-0.0035-15.503 4.3595-22.629 7.9242-30.517 16.114-55.942 39.876-81.498 62.676-9.0042 7.972-17.889 16.12-27.456 23.415-0.3394 1.062 1.1753 0.40448 1.5942 0.14502 5.6893-2.3456 9.8681-7.0721 14.528-10.911 19.062-16.998 38.534-33.572 59.122-48.706 11.136-8.1333 22.123-16.507 33.73-23.959 5.8952-3.5445 12.248-6.7755 19.084-7.8358 4.024-0.66641 8.3988 0.74711 10.965 4.019 3.7184 4.7794 3.9409 11.221 3.7917 17.008-0.32371 6.9146-1.7185 13.845-4.0876 20.367 0.10505 0.91992 1.1832 0.29673 1.1802-0.36523 2.8569-8.2765 4.5226-17.038 4.5375-25.808-0.14301-5.0342-0.85406-10.529-4.2328-14.499-1.9845-1.9071-4.7276-2.8648-7.3657-3.4434-0.42014-0.04208-0.84311-0.03819-1.2646-0.02832z"/>
   </g>
   <g stroke-width="0">
    <path d="m204.39 134.43c-11.187 1.4362-21.531 6.2696-31.46 11.37-11.135 5.7396-22.5 11.003-34.095 15.733-15.485 6.5536-31.146 12.734-46.324 19.984-2.8871 1.5857-5.9547 2.7942-9.0112 3.9875-0.418 1.0271 1.2629 0.56797 1.8364 0.59131 24.229-1.439 48.399-5.484 71.513-12.997 11.385-3.6795 22.434-8.915 31.521-16.815 6.8991-5.8858 12.785-13.097 16.642-21.323 0.0567-0.35781-0.30046-0.57621-0.62158-0.52979z" fill="#f55"/>
    <path d="m93.454 155.07c-4.9901 1.4422-9.6636 3.8456-14.409 5.938-12.57 5.9699-24.49 13.407-35.184 22.324-0.93476 0.90388-2.1074 1.6542-2.8423 2.707 1.1101 0.76081 2.9223 0.3081 4.292 0.61208 3.2069 0.2111 6.4569 0.72718 9.6587 0.44309 11.616-11.921 27.055-19.243 38.689-31.167 0.34355-0.26614 0.36596-0.90714-0.20556-0.85742z" fill="#f55"/>
    <path d="m40.682 186.64c-2.0536 0.74306-3.3607 2.7825-5.0524 4.0896-1.3605 1.0931 1.0473 1.1465 1.7922 1.3752 3.8705 0.69555 7.8428 1.5777 11.765 1.2212 1.472-1.8087 3.2643-3.3849 4.6235-5.2363-1.2479-0.76039-3.0423-0.44929-4.5157-0.6749-2.8779-0.18327-5.754-0.38555-8.6127-0.7748z" fill="#ffd42a"/>
    <path d="m144.06 107.82c-4.6846 0.44147-8.8876 2.8635-13.216 4.5211-2.2094 0.94948-4.3655 2.1353-6.8515 1.8593-6.856 0.21476-13.728 0.76975-20.48 1.9248-0.63831 0.91983 1.1164 1.3652 1.7019 1.6647 5.5523 2.1948 11.74 2.2583 17.576 1.3968 8.6376-1.7201 16.759-5.763 23.822-10.893-0.28143-0.7959-1.7813-0.33024-2.5518-0.47332z" fill="#faa"/>
    <path d="m228.29 132c-1.2003 0.85339-1.2548 2.674-2.0515 3.8678-1.7322 3.7621-3.9217 7.2639-6.114 10.766 0.0851 1.1439 1.372 0.0787 1.7739-0.30566 2.3754-2.5058 3.4879-5.9203 5.0134-8.9637 0.57284-1.6768 1.7844-3.2925 1.8064-5.0862-0.0598-0.17622-0.23889-0.30435-0.42822-0.27783z" fill="#fd5"/>
   </g>
   <g fill="none" stroke="#000" stroke-width="1px">
    <path d="m4.75 176.25c3.8844 3.2214 8.0762 6.0719 12.5 8.5 6.194 3.3998 12.852 5.9713 19.75 7.5 13.043 2.8904 27.043 1.9279 39.25-3.5 9.4993-4.2238 17.641-10.945 25.5-17.75 18.89-16.357 36.939-33.702 56.5-49.25 14.763-11.735 30.438-22.466 47.5-30.5 4.3675-2.0565 8.9312-3.9609 13.75-4.25 1.6318-0.0979 3.283-0.0064 4.8706 0.38334 1.5876 0.38973 3.1119 1.0844 4.3794 2.1167 1.9434 1.5827 3.1932 3.877 4 6.25 1.5455 4.5458 1.6103 9.4622 1.25 14.25-0.94348 12.537-4.7325 24.851-11 35.75"/>
    <path d="m73.75 189.75c13.99-2.3577 28.096-4.0271 42.25-5 15.191-1.0442 30.61-1.3142 45.25-5.5 4.5137-1.2906 8.9164-2.9448 13.25-4.75 3.2027-1.3341 6.3707-2.7517 9.5-4.25 13.877-6.6443 26.991-14.882 39-24.5"/>
    <path d="m80.5 186.5c15.541-7.1176 31.211-13.952 47-20.5 12.516-5.1903 25.122-10.207 37.25-16.25 9.2895-4.6289 18.351-9.8814 28.25-13 4.1528-1.3083 8.4272-2.2302 12.75-2.75"/>
    <path d="m4.75 176.25 85.75-23.75"/>
    <path d="m92.5 150c-0.39127-7.0073 0.54694-14.087 2.75-20.75 1.5135-4.5778 3.6199-8.9591 6.25-13"/>
    <path d="m101.5 116.25c2.0752-0.3816 4.1593-0.71505 6.25-1 6.1288-0.83533 12.315-1.2533 18.5-1.25"/>
    <path d="m141.5 135.5c1.3744-4.9585 3.1313-9.811 5.25-14.5 1.3437-2.9738 2.8608-5.9897 3-9.25 0.11728-2.7473-0.76038-5.4345-1.75-8-1.3562-3.5159-2.9441-6.9425-4.75-10.25"/>
    <path d="m150.75 104.75c0.25283-5.275-0.97231-10.613-3.5-15.25-3.0776-5.6457-8.0919-10.212-14-12.75"/>
    <path d="m159.75 94.75c-2.22-5.1173-5.9034-9.59-10.5-12.75-4.6888-3.2234-10.313-5.0688-16-5.25"/>
    <path d="m159.75 94.75c2.3071-6.9903 5.4174-13.715 9.25-20 3.4601-5.6738 7.5318-11.015 12.447-15.488s10.699-8.0659 17.053-10.012c11.903-3.6459 25.536-1.0352 35.25 6.75"/>
    <path d="m233.75 56c-3.4646-1.4256-7.264-2.03-11-1.75-6.9389 0.52004-13.564 4.1919-17.75 9.75-3.1681 4.2062-4.9158 9.2798-7.25 14-4.6063 9.315-11.656 17.409-20.25 23.25"/>
    <path d="m199 73.75c0.13543-0.42827 0.30271-0.84647 0.5-1.25 0.70637-1.4447 1.7969-2.6889 3.0902-3.6447 1.2933-0.95582 2.7856-1.628 4.3394-2.0428 3.1075-0.82957 6.405-0.63276 9.5704-0.06252 10.247 1.846 19.766 7.7296 25.75 16.25 6.379 9.083 8.5384 21.007 5.75 31.75"/>
    <path d="m248 114.75c-0.80327-4.3312-2.4234-8.5095-4.75-12.25-4.5266-7.2776-11.784-12.811-20-15.25"/>
    <path d="m156.5 88.25c-1.3265-5.3367-1.0624-11.058 0.75-16.25 1.4063-4.0286 3.7324-7.7331 6.75-10.75"/>
    <path d="m161.75 90c-0.76592-3.8637-1.102-7.8124-1-11.75 0.15004-5.793 1.2526-11.56 3.25-17"/>
    <path d="m214.5 151.75c0.22787 8.7327 1.2331 17.445 3 26 1.2511 6.0579 2.8886 12.075 3.25 18.25 0.1905 3.2552 0.0225 6.5313-0.5 9.75"/>
    <path d="m220.25 205.75c-0.0694-8.0033 0.94266-16.015 3-23.75 1.8308-6.8829 4.4824-13.541 6-20.5 2.1323-9.7774 1.9596-20.05-0.5-29.75"/>
    <path d="m237 121.75c2.1713 7.4891 3.5154 15.218 4 23 0.2708 4.3486 0.26847 8.7637-0.75 13-0.57316 2.384-1.4603 4.6787-2.25 7-2.1208 6.2337-3.549 12.703-4.25 19.25"/>
    <path d="m230.25 155c1.2489 5.0159 2.1682 10.114 2.75 15.25 0.51693 4.5636 0.7675 9.1573 0.75 13.75"/>
    <path d="m237.5 95.5c0.23183 1.0874 0.48188 2.171 0.75 3.25 1.2776 5.1415 2.9883 10.229 5.75 14.75 1.6268 2.6633 3.6003 5.1008 5.25 7.75 4.9984 8.0265 6.8232 17.972 5 27.25"/>
    <path d="m254.25 148.5c-0.44531-3.8447-1.3714-7.6334-2.75-11.25-1.5686-4.1152-3.7116-7.9872-6-11.75-2.3426-3.8518-4.8454-7.6062-7.5-11.25"/>
    <path d="m238.75 162c0.54033-0.63511 1.0416-1.3034 1.5-2 2.178-3.3094 3.3507-7.2106 3.7987-11.147 0.44796-3.9364 0.19646-7.9223-0.29866-11.853-0.97996-7.7798-2.9158-15.439-5.75-22.75"/>
    <path d="m90.5 152.5 2-2.5"/>
    <path d="m130.5 145c-3.5123 2.0406-7.4599 3.3279-11.5 3.75-2.0756 0.21686-4.1734 0.2078-6.25 0-3.4277-0.34301-6.8053-1.2255-10.25-1.25-3.4725-0.0247-6.9476 0.84411-10 2.5"/>
    <path d="m90.5 152.5c3.0109-1.2748 6.2372-2.0389 9.5-2.25 2.1673-0.14023 4.3474-0.038 6.5 0.25 3.9212 0.52457 7.7974 1.6659 11.75 1.5 2.4196-0.10155 4.8173-0.70095 7-1.75"/>
    <path d="m101.5 116.25c1.5869 0.9126 3.2645 1.6675 5 2.25 4.5586 1.53 9.4789 1.849 14.25 1.25 6.525-0.81924 12.747-3.314 18.5-6.5 2.8533-1.5802 5.6101-3.3345 8.25-5.25"/>
    <path d="m126.25 114c3.1677-1.3309 6.3344-2.6643 9.5-4 2.9645-1.2509 6.0325-2.5256 9.25-2.5 0.85749 7e-3 1.7347 0.11319 2.5 0.5 0.56076 0.28342 1.0463 0.71397 1.3949 1.2368 0.34852 0.52279 0.55918 1.1366 0.60513 1.7632"/>
    <path d="m143.25 93.5c1.812 0.55469 3.4705 1.6022 4.75 3 2.0158 2.2023 3.0413 5.2787 2.75 8.25"/>
    <path d="m9 174.75c3.4782 2.5972 7.2627 4.7838 11.25 6.5 10.644 4.5813 22.424 5.7129 34 6.25 7.034 0.32636 14.116 0.45174 21.084-0.55852 6.9687-1.0103 13.862-3.2042 19.666-7.1915 2.3938-1.6446 4.5764-3.5737 6.75-5.5 10.831-9.5987 21.61-19.262 32.75-28.5 16.528-13.706 33.824-26.456 51.25-39 8.3045-5.9778 16.8-11.993 26.5-15.25 1.8155-0.60952 3.675-1.1208 5.58-1.3176 1.905-0.19675 3.8642-0.07014 5.67 0.56757 3.0289 1.0696 5.4559 3.5599 6.75 6.5 0.86645 1.9685 1.2559 4.1131 1.5 6.25 0.81133 7.1025 0.081 14.34-1.75 21.25-2.3256 8.7767-6.433 17.077-12 24.25"/>
    <path d="m233.75 56c-2.7786-1.7115-5.8282-2.9822-9-3.75-5.7348-1.3882-11.823-1.1091-17.5 0.5-5.3134 1.5061-10.296 4.169-14.5 7.75"/>
    <path d="m133.25 76.75c3.7738 0.70414 7.3875 2.2529 10.5 4.5 3.6176 2.6118 6.5476 6.1671 8.4202 10.217 1.8725 4.0499 2.6833 8.5852 2.3298 13.033"/>
    <path d="m248.38 111.46c-0.0213-3.5403-0.57107-7.0769-1.6254-10.457-1.8735-6.0058-5.3616-11.5-10-15.75"/>
    <path d="m221.16 190.49 1.0944-15.987 1.75-18.25 1.75-10.5"/>
    <path d="m234 178.75c1.9562-7.1685 3.0499-14.572 3.25-22 0.20798-7.7204-0.54978-15.466-2.25-23"/>
    <path d="m226 79c-3.7612-1.6745-7.883-2.5333-12-2.5-7.5086 0.06067-14.948 3.1833-20.25 8.5"/>
    <path d="m172.75 103.5c-2.8 1.3975-5.4136 3.168-7.75 5.25-1.8532 1.6514-3.5321 3.4983-5 5.5"/>
    <path d="m160.03 94.482c0.87647 2.5724 1.2907 5.3015 1.2169 8.018-0.1762 6.4897-3.2609 12.846-8.25 17"/>
   </g>
  </g>
 </g>
</svg>
