<?xml version="1.0" encoding="UTF-8"?>
<svg cursor="default" enable-background="new" version="1.1" viewBox="0 0 256 256" xmlns="http://www.w3.org/2000/svg" xmlns:cc="http://creativecommons.org/ns#" xmlns:dc="http://purl.org/dc/elements/1.1/" xmlns:rdf="http://www.w3.org/1999/02/22-rdf-syntax-ns#" xmlns:xlink="http://www.w3.org/1999/xlink">
 <metadata>
  <rdf:RDF>
   <cc:Work rdf:about="">
    <dc:format>image/svg+xml</dc:format>
    <dc:type rdf:resource="http://purl.org/dc/dcmitype/StillImage"/>
    <dc:title/>
   </cc:Work>
  </rdf:RDF>
 </metadata>
 <defs>
  <linearGradient id="innoGrad2">
   <stop stop-color="#f55" offset="0"/>
   <stop stop-color="#ff8080" offset="1"/>
  </linearGradient>
  <linearGradient id="innoGrad3">
   <stop stop-color="#f55" offset="0"/>
   <stop stop-color="#ff8080" offset=".105"/>
   <stop stop-color="#ff8080" offset=".777"/>
   <stop stop-color="#f55" offset="1"/>
  </linearGradient>
  <linearGradient id="linearGradient2300" x1="33.815" x2="163.82" y1="124.34" y2="124.34" gradientUnits="userSpaceOnUse">
   <stop stop-color="#f55" offset="0"/>
   <stop stop-color="#ff2a2a" offset="1"/>
  </linearGradient>
  <linearGradient id="linearGradient2308" x1="33.815" x2="163.82" y1="124.34" y2="124.34" gradientUnits="userSpaceOnUse" xlink:href="#innoGrad2"/>
  <linearGradient id="linearGradient2316" x1="155.64" x2="193.55" y1="116.28" y2="116.28" gradientUnits="userSpaceOnUse" xlink:href="#innoGrad3"/>
  <linearGradient id="linearGradient2324" x1="153.46" x2="196.71" y1="128.08" y2="128.08" gradientUnits="userSpaceOnUse" xlink:href="#innoGrad3"/>
  <linearGradient id="linearGradient2332" x1="107.97" x2="170.92" y1="130.35" y2="130.35" gradientUnits="userSpaceOnUse" xlink:href="#innoGrad2"/>
  <linearGradient id="linearGradient2348" x1="99.469" x2="124.81" y1="20.696" y2="20.696" gradientUnits="userSpaceOnUse" xlink:href="#innoGrad2"/>
  <linearGradient id="linearGradient2356" x1="134.11" x2="218.29" y1="97.199" y2="97.199" gradientUnits="userSpaceOnUse" xlink:href="#innoGrad2"/>
  <linearGradient id="linearGradient2364" x1="189.27" x2="211.86" y1="185.16" y2="185.16" gradientUnits="userSpaceOnUse" xlink:href="#innoGrad3"/>
  <linearGradient id="linearGradient2372" x1="182.36" x2="190.08" y1="192.23" y2="192.23" gradientUnits="userSpaceOnUse" xlink:href="#innoGrad2"/>
  <linearGradient id="linearGradient2380" x1="33.691" x2="65.282" y1="236.84" y2="236.84" gradientUnits="userSpaceOnUse" xlink:href="#innoGrad3"/>
  <radialGradient id="radialGradient2674" cx="137.63" cy="49.35" r="17.344" gradientTransform="matrix(1.5203 2.7674 -.47717 .26215 -44.924 -342)" gradientUnits="userSpaceOnUse">
   <stop stop-color="#ffe680" offset="0"/>
   <stop stop-color="#ffd42a" offset="1"/>
  </radialGradient>
 </defs>
 <g fill="#ffd5d5">
  <path d="m125.8-66.918c0.19113-0.13799 0.36408-0.30229 0.53601-0.46375 0.14221-0.10162 0.26069-0.22783 0.40714-0.32395 0.16197-0.1145 0.35231-0.17689 0.51665-0.28607 0.19959-0.09748 0.38503-0.22094 0.58248-0.32348 0.16429-0.1074 0.34952-0.17162 0.51877-0.26764 0.14546-0.05932 0.27793-0.1424 0.42003-0.20938 0.12023-0.08121 0.24331-0.16517 0.378-0.22069 0.11434-0.06734 0.23138-0.13631 0.3565-0.18236 0.11722-0.09046 0.2551-0.14972 0.3702-0.24206 0.12005-0.09046 0.26297-0.14524 0.38556-0.22991 0.0832-0.03548 0.15839-0.08157 0.23866-0.12261l-0.11422 1.0484c-0.0771 0.04202-0.15789 0.07632-0.23389 0.12041-0.12825 0.06313-0.2543 0.13186-0.37378 0.21041-0.13283 0.08533-0.25518 0.18803-0.3953 0.26009-0.11865 0.05795-0.23519 0.12005-0.35306 0.17953-0.12646 0.065-0.24907 0.13719-0.37221 0.20819-0.1363 0.07532-0.27366 0.14348-0.42109 0.19516-0.17679 0.07013-0.34407 0.15971-0.51427 0.24448-0.19875 0.0963-0.38624 0.21057-0.57564 0.32339-0.17845 0.09301-0.3488 0.19995-0.51187 0.31788-0.13309 0.10018-0.25447 0.21623-0.39786 0.30275-0.19966 0.13825-0.38689 0.29452-0.53694 0.48733l0.0901-1.0262z"/>
  <path d="m120.85-66.835c0.0444-0.58608 0.20712-1.1269 0.35945-1.6828 0.0426-0.17144 0.1709-0.29008 0.25244-0.43939 0.0908-0.12969 0.22965-0.20993 0.36355-0.28833 0.11481-0.09222 0.21597-0.20065 0.34376-0.27466 0.11691-0.08744 0.24277-0.16205 0.3659-0.24035 0.12401-0.06714 0.24427-0.13918 0.3693-0.20488 0.12704-0.04094 0.21978-0.13815 0.33958-0.19322 0.13016-0.05459 0.26091-0.10723 0.39545-0.15359 0.14758-0.07245 0.30124-0.12868 0.44917-0.20449 0.17264-0.07193 0.33051-0.17437 0.50194-0.24755 0.12905-0.04661 0.24417-0.11976 0.37097-0.17224l-0.12165 1.0114c-0.12107 0.04466-0.24065 0.09361-0.35806 0.1472-0.16553 0.09957-0.33096 0.19871-0.50549 0.28211-0.15026 0.07766-0.31182 0.12952-0.46037 0.21079-0.12918 0.05722-0.25712 0.11707-0.38583 0.17521-0.11047 0.06853-0.21729 0.14262-0.33882 0.1916-0.11929 0.06619-0.24306 0.12408-0.36002 0.19469-0.12268 0.08035-0.24608 0.15912-0.36658 0.24273-0.11993 0.08554-0.2223 0.19376-0.34622 0.27334-0.12488 0.07823-0.24168 0.15534-0.31459 0.28895-0.0894 0.12685-0.17877 0.2506-0.22355 0.40223-0.12757 0.38943-0.33775 1.4102-1e-3 -0.2908 0 0-0.32924 0.97202-0.32924 0.97202z"/>
  <path d="m116.69-60.997c-8e-3 -0.27892-0.0422-0.55612-0.0636-0.83416-0.0144-0.19126-0.0178-0.38306-0.0196-0.57478-3e-3 -0.19291 3e-3 -0.38573 3e-3 -0.57862-8e-3 -0.19185 1e-4 -0.38068 0.0301-0.57012 0.0312-0.17479 0.0437-0.35181 0.0508-0.52895 5e-3 -0.17638 5e-3 -0.35287 5e-3 -0.52932-0.0259-0.5256 0.0959-0.96293 0.19265-1.5112 5e-3 -0.02456 7e-3 -0.04987 0.0151-0.07367 0.0151-0.04588 0.042-0.08718 0.0589-0.13241 0.0252-0.06716 0.0376-0.13421 0.0653-0.20071 0.0986-0.12572 0.1407-0.27044 0.16332-0.4256-0.56284 3.1388 0.46621-2.5482-0.0863 0.55712 0.25734-0.39361 0.0866-1.0068 0.31962-1.4368 0.0806-0.16312 0.12873-0.34032 0.20621-0.50422 0.0611-0.14307 0.0859-0.29579 0.17526-0.42547 0.0814-0.11955 0.14631-0.24728 0.21101-0.37658 0.0908-0.10021 0.18811-0.19153 0.26557-0.30395 0.0752-0.06626 0.0866-0.17006 0.14547-0.2469 0.0299-0.03903 0.0664-0.07265 0.0969-0.11123 0.10869-0.07863 0.17624-0.18992 0.26088-0.28912 0.0619-0.11825 0.17487-0.1924 0.2583-0.29231 0.0973-0.11774 0.22929-0.19974 0.32915-0.3144 0.10773-0.11992 0.25125-0.19223 0.37742-0.28705 0.12143-0.07475 0.24236-0.15575 0.3517-0.24773 0.12999-0.07679 0.25194-0.16251 0.37874-0.24426 0.14604-0.08205 0.26276-0.2007 0.39206-0.30424 0.0893-0.06275 0.19297-0.08278 0.29835-0.09911l-0.14198 1.0279c-0.0899 0.02274-0.17662 0.05023-0.25004 0.10976-0.13004 0.1024-0.26926 0.19199-0.39861 0.2952-0.12313 0.08901-0.254 0.16632-0.3758 0.25725-0.12169 0.08038-0.23167 0.17662-0.35817 0.24985-0.12738 0.07281-0.24883 0.15756-0.35054 0.2642-0.11 0.11066-0.22164 0.21976-0.32804 0.33395-0.0909 0.09692-0.1768 0.19793-0.25361 0.30653-0.0767 0.104-0.17409 0.18662-0.26148 0.28128-0.0947 0.11298-0.14905 0.24957-0.24035 0.36545-0.0832 0.09657-0.17878 0.18364-0.24671 0.29129-0.072 0.12893-0.13739 0.26141-0.21607 0.38664-0.0614 0.1304-0.0975 0.27023-0.16246 0.39914-0.0692 0.16698-0.13273 0.33632-0.20505 0.50204-0.13125 0.38871-0.25925 1.2156 0.057-0.56814-0.0629 0.36254-0.12473 0.72529-0.18882 1.0876-8e-3 0.04401-0.0245 0.10434-0.0357 0.14775-6e-3 0.0232-0.0216 0.0933-0.0177 0.06966 4e-3 -0.02311 0.46746-2.7256-0.0262 0.1518-0.0374 0.15385-0.10712 0.28896-0.17821 0.42928-0.0398 0.13792-0.10051 0.26883-0.12475 0.41076 0.0541-0.3123 0.10996-0.62429 0.16224-0.93689 5e-3 -0.02782-0.0162 0.05434-0.0194 0.08236-0.0131 0.11632 0.0103 0.23678 4e-4 0.35345 2.2e-4 0.1768 8.6e-4 0.35361-2e-3 0.53039-4e-3 0.18005-0.011 0.36049-0.0401 0.53857-0.0324 0.19299-0.0665 0.38219-0.0503 0.57937-1e-5 0.18722 5e-3 0.37436 2e-3 0.56158-8.3e-4 0.20509-2e-3 0.41022 2e-3 0.61529 7e-3 0.26144 0.0104 0.52738 0.0721 0.78264l-0.30497 0.9799z"/>
  <path d="m108.85-91.646c0.23117-0.03403 0.45037-0.15603 0.64236-0.28693 0.15619-0.108 0.32335-0.19766 0.47698-0.30751 0.12875-0.09908 0.26113-0.18233 0.41072-0.24778 0.1327-0.08249 0.26417-0.16436 0.39515-0.24896 0.14616-0.08444 0.28946-0.17053 0.43193-0.26043 0.11886-0.10848 0.25624-0.19514 0.39074-0.28286 0.12926-0.11898 0.26959-0.22626 0.41095-0.33005 0.13551-0.09077 0.26887-0.18348 0.40245-0.2777 0.13575-0.11526 0.25915-0.24402 0.40211-0.35183 0.0913-0.09669 0.20725-0.16717 0.27054-0.28672 0.0964-0.10344 0.18158-0.21481 0.27209-0.32348 0.11927-0.11582 0.22739-0.24393 0.35215-0.35383 0.0802-0.11362 0.1979-0.18135 0.30135-0.2681 0.019-0.01151 0.0371-0.02451 0.057-0.03452 0.0593-0.02996 0.0675-0.0182 0.11552-0.06238 0.0501-0.04611 0.0814-0.08415 0.14206-0.12033 0.0888-0.09243 0.20435-0.14792 0.30326-0.22613 0.0932-0.0496 0.16266-0.12989 0.24579-0.19321l-0.0936 1.0544c-0.0796 0.07006-0.16361 0.13468-0.25317 0.19167-0.10721 0.06783-0.20161 0.15166-0.30424 0.22607-0.0991 0.08048-0.19922 0.15309-0.30975 0.21748-0.10682 0.07396-0.1961 0.16676-0.29148 0.25459-0.11826 0.10895-0.24209 0.21519-0.33366 0.34868-0.0864 0.11679-0.18519 0.22412-0.26767 0.34407-0.0884 0.10155-0.19549 0.18451-0.30231 0.26594-0.14015 0.10439-0.27227 0.21622-0.40044 0.3351-0.13038 0.10365-0.27151 0.19046-0.40541 0.28913-0.14034 0.09983-0.27729 0.20303-0.41076 0.31196-0.13303 0.09964-0.25716 0.21104-0.39867 0.2988-0.14533 0.08621-0.29466 0.16621-0.43054 0.26741-0.13305 0.08447-0.26748 0.1677-0.40673 0.24145-0.1363 0.0729-0.26356 0.15989-0.39675 0.23808-0.15964 0.09403-0.31528 0.19501-0.47781 0.28409-0.21554 0.11549-0.46179 0.17044-0.66026 0.31988l0.12017-1.0261z"/>
 </g>
 <g>
  <g transform="rotate(8.0832 49.143 41.067)">
   <g fill="#ffb380" stroke="#000" stroke-width=".053224">
    <path d="m167.42 146.84c-1.0691 0.20925-1.5614 1.7374-0.45844 2.2918 1.1168 0.88132 2.5392-0.91683 1.4964-1.8396-0.26868-0.27502-0.64681-0.46887-1.038-0.45219z"/>
    <path d="m165.22 125.33c-1.3878-0.0152-1.4825 2.0622-0.23593 2.4334 1.4242 0.56618 1.6205-1.9408 0.58445-2.3927-0.11286-0.033-0.23145-0.042-0.34852-0.0407z"/>
    <path d="m162.36 105.73c-1.3894 0.0704-1.4726 2.4386 0.0214 2.4213 0.91186 0.29286 1.3423-0.67964 0.97094-1.4048-0.12537-0.49723-0.3678-1.0957-0.99239-1.0165z"/>
    <path d="m158.86 91.04c-1.5489 0.15129-1.2469 2.855 0.36461 2.4513 1.2733-0.23204 0.81906-2.5393-0.36461-2.4513z"/>
    <path d="m153.66 74.565c-1.4922 0.08916-1.4002 2.5416 0.14522 2.4727 1.4517-0.03818 1.1162-2.476-0.14522-2.4727z"/>
   </g>
   <g stroke-width=".053224">
    <g stroke="#000">
     <path d="m149.86 64.725c-0.63519 1.1831-0.4832 2.7612-1.3177 3.9213-0.3998 0.99771-2.1168 1.7244-0.96536 2.8265 3.4817 5.8977 6.3545 12.256 7.3257 19.096 2.9693 21.17 6.1583 42.327 9.1008 63.506 1.4773 7.9217 0.14772 16.169-2.9709 23.564-0.51933 0.75122-0.63909 2.3576-1.7576 2.3922-2.683-1.4474-5.0045-3.6032-7.64-5.1959-12.108-7.9943-25.371-14.325-39.316-18.361-0.90056 0.36558-1.0643 1.7913-1.6979 2.5116-0.87585 1.6074-1.8133 3.1868-2.617 4.8306 0.86308 0.91524 2.4338 1.086 3.5543 1.7254 18.282 7.5182 35.415 17.833 50.651 30.439 0.81321-0.0895 0.85418-1.4256 1.3423-1.9772 2.8722-5.6801 5.322-11.649 6.5652-17.91 0.0482-0.43648 0.31411-2.1577 0.31411-2.1577 0.65148-5.4653 0.55469-11.018 0.0934-16.496-0.28976-2.709-0.65606-6.4059-1.0923-9.0944-0.82478-0.5043-1.6373 2.0162-2.5498 1.2451-1.5886-0.68545-0.96232-3.2888 0.76541-3.1358 0.47691-0.0629 1.7274 1.964 1.6843 0.99333-0.80611-5.989-1.8955-13.531-2.8827-19.472-0.8969-0.40062-2.5104 0.42423-2.7252-0.95711-0.38666-1.24 0.99715-2.015 2.0561-2.2096 0.6457-0.83748-0.36699-2.1417-0.26294-3.0995-0.58108-4.3381-1.1754-9.0023-1.7788-13.337-0.81447-0.34236-2.2894 0.56048-2.7618-0.62637-0.66788-1.3212 0.87775-2.1775 2.0676-2.2862 0.46874-0.75313-0.53219-2.004-0.49707-2.8384-0.62224-2.9033-1.4536-6.2118-2.1401-9.1004-0.82866-0.37392-2.0707 0.94281-2.6788-0.17743-1.0089-1.0869 0.48959-2.387 1.7573-2.6032 0.77096-0.91068-1.1009-2.7264-1.1844-3.8811-1.1462-3.1323-1.7633-6.8064-3.2436-9.7975-0.59857-0.47398-1.5679 0.69187-2.1911-0.0017-1.4943-0.84087-0.21964-3.0764 1.3311-2.9978 0.72143-0.5474-0.55833-1.6604-0.48498-2.3791-0.49353-1.9923-0.73059-4.1023-1.3676-6.0233-0.82583-0.26681-1.6197-0.85178-2.4852-0.9361z" fill="url(#linearGradient2332)"/>
     <path d="m154.72 64.992c-1.7408 0.3832-1.337 1.7288-0.63726 2.9403 0.35407 1.2492 0.9277 2.3398 0.94064 3.5108-1.2623 0.53858 0.19458 2.5493 0.28997 3.4652 3.2221 10.639 7.1236 21.124 8.8043 32.16 1.9031 12.024 3.4195 24.126 5.388 36.15 1.047 6.2334 1.5354 12.533 2.3379 18.799 1.8347 7.4204 4.6509 14.574 7.643 21.597 1.221 2.539 2.1807 5.3009 3.8198 7.5863 1.0433-0.37486 1.564-1.7188 2.3447-2.4906 1.2005-1.7215 2.8771-3.26 3.8393-5.0648 2.4002-2.0901 4.5388-4.4949 6.7895-6.7484 1.0232-1.0331-0.22188-2.4644-0.35004-3.6248-0.59884-1.4864-0.80377-3.2515-1.7299-4.5538-1.1589 0.0277-1.8029 1.4294-2.6965 2.0361-2.5132 2.1887-4.944 4.6598-7.9723 6.1144-1.5287-0.89162-2.1947-2.8159-3.0969-4.2596-5.7482-10.76-6.5986-23.187-7.8458-35.114-1.6746-17.986-2.9639-36.284-8.9871-53.465-2.2655-6.6164-5.1149-13.11-8.7335-19.066z" fill="url(#linearGradient2324)"/>
     <path d="m164.26 56.537c-0.68697 0.91796 1.1718 2.4072-0.0116 3.2462-1.7273 0.16387-3.4751-0.88309-5.168-0.70956-1.1324 1.7794-1.9042 3.8153-3.4115 5.3619 0.9616 2.4227 2.5555 4.6854 3.626 7.1228 6.8604 14.092 10.277 29.541 11.954 45.049 1.6913 13.643 2.1335 27.464 4.7593 40.985 1.3722 6.4996 3.4432 13.058 7.49 18.422 1.3552-0.34199 2.4682-1.6674 3.6554-2.4956 2.1857-1.9211 4.5602-3.7432 6.3664-6.0249-0.0865-1.7772-1.3652-3.3048-1.973-4.9444-3.6908-7.7273-7.7008-15.482-9.0927-24.02-0.0786-0.94642-0.62754-1.9098-0.6496-2.7996 0.0877-2.7211-0.23633-5.4577-0.14195-8.1938-3e-3 -6.7826-0.026-13.585 0.13963-20.354 1.111-5.6191 4.4502-10.369 7.4089-15.145 1.9238-3.2021 3.6091-6.7959 3.2588-10.633 0.31361-5.4323-3.3956-10.107-7.415-13.326-5.6185-4.7263-12.886-6.6148-19.028-10.469-0.57519-0.33822-1.0885-0.97962-1.7676-1.0715z" fill="url(#linearGradient2316)"/>
    </g>
    <path d="m98.533 22.457c-4.9196 4.4331-10.585 7.9773-16.616 10.682-2.6252 1.3538-5.5705 2.1939-7.984 3.904-0.22414 0.8672 1.252 0.57583 1.7654 0.668 4.8191 0.09159 9.6089 2.1083 13.074 5.3891 0.03338 0.8608-0.87084 0.43317-1.109-0.05228-4.5908-3.7558-10.988-5.646-16.816-4.1635-3.0049 1.0565-4.8847 3.9232-6.5594 6.4669-3.1262 5.4704-4.4382 11.735-6.0278 17.77-2.3165 10.048-4.4085 20.289-4.0291 30.658 0.02938 9.9966 1.1098 19.953 0.98031 29.951 0.03592 5.6779 0.0471 11.375-1.1276 16.943-2.6204 14.857-8.4779 28.866-13.59 42.991-2.1806 6.2389-4.8598 12.348-6.3121 18.813-0.69507 3.9836-0.4779 8.403 2.0984 11.722 2.1641 2.9691 5.7639 5.0323 9.4615 4.9289-0.30808-0.92702-1.578-1.5211-2.0668-2.5127-2.7576-4.1792-1.4495-9.4178 0.15444-13.751 4.5144-12.167 13.142-22.425 16.716-34.991 1.0496-3.2555 1.7183-6.6251 2.4026-9.961 0.738-0.43608 0.57863 0.79187 0.44727 1.1921-1.4248 8.4502-4.4071 16.676-8.7262 24.12-4.0995 7.6432-9.0986 15.011-11.283 23.505-0.63261 3.2832-1.1646 7.3323 1.3637 9.9865 1.0594 1.015 2.2455 2.542 3.8726 2.3244 3.7128 0.92488 7.235 3.9196 11.284 2.7694 1.1409-0.4733 2.6319-0.68756 3.458 0.44951 2.285 2.7645 5.9506 4.6345 9.5779 3.7428 4.5728-0.77424 7.7147-5.0216 8.4231-9.4099 1.2183-7.0407 0.39414-14.224 1.0998-21.31 1.5478-20.285 2.1796-40.632 3.8275-60.906 1.1532-15.395 4.2047-30.552 7.1837-45.685 1.7141-8.6074 2.8605-17.34 3.2796-26.099-0.31656-0.73398 1.0008-0.96093 0.69972-0.17492 0.02272 1.6638-0.40717 3.4234-0.10589 5.0291 1.0479 2.038 2.5952 3.9388 3.3253 6.0743-0.64138 0.78754-0.86142-0.68928-1.2413-1.0313-0.66112-0.88076-0.97814-2.296-2.0465-2.7609-0.71361 0.41315-0.33784 1.6401-0.60455 2.3476-0.67215 6.5228-1.8498 12.974-3.0089 19.418 0.79288 3.5133 2.8284 6.676 5.7605 8.7801 3.3171 2.6313 6.8326 5.3619 8.4946 9.4021 2.9695 7.2072 7.0122 13.924 10.119 21.053 1.8326 4.4096 2.6746 9.6566 0.46395 14.107-1.698 3.664-4.1486 6.9555-5.6974 10.68 0.78019 0.804 2.2363 0.84611 3.2587 1.3476 15.246 4.9387 29.849 12.666 42.721 22.183 0.65219 0.61899 1.0483-0.24709 1.148-0.9485 2.5231-5.7564 3.9768-12.009 3.722-18.316-0.3051-7.0181-1.7524-13.929-2.6395-20.886-2.4143-16.242-4.6715-32.506-7.0417-48.753-1.0312-6.8467-4.1241-13.121-7.5517-19.056-1.3268 0.07367-2.7203 0.85798-4.1626 0.72341-0.82311-0.09004-0.75579 0.94109-1.513 1.0576-1.5538 0.91307-3.3392 0.4125-4.873-0.23726-2.4805-0.76827-4.3878 1.5636-5.3445 3.5312-0.96687 0.32192-0.59247-1.2405-0.73473-1.7558 0.0115-5.5194-1.3539-10.88-2.5181-16.228-1.8216-8.9038-1.9506-18.098-0.93795-27.102 0.0304-1.3656 1.003-3.0625-0.48831-3.9641-0.90846-1.6291-2.9239-0.73891-4.4248-0.97457-5.8806 0.17422-11.745-0.49294-17.412-2.0608-1.8929-0.40392-3.7334-1.2781-5.5904-1.6205zm49.532 71.606c1.0767 0.35379-0.15252 1.2817-0.36059 1.8306-4.5737 6.7576-13.465 9.4216-21.232 7.8981-5.1632-0.98162-10.165-3.3546-13.858-7.1331-0.17115-0.62534 0.71181-0.53352 0.9142-0.07819 5.1262 4.7406 12.217 7.3576 19.208 6.7283 6.1759-0.27128 12.122-3.8071 15.227-9.1684l0.0737-0.09294z" fill="url(#linearGradient2308)" stroke="url(#linearGradient2300)"/>
    <g stroke="#000">
     <path d="m48.677 221.93c-3.6207 3.7744-6.0762 8.4561-9.435 12.45-1.6853 2.3956-3.9548 4.3807-5.501 6.8707-0.29674 2.0508 2.2873 3.7437 4.1456 3.1237 2.1131-1.9764 3.2608-4.8053 4.3253-7.4521 0.52108-0.96018 0.34064-2.4415 1.2359-3.1023 0.81555-0.23149-0.0017 1.0686 0.05675 1.4312-1.129 4.2334-3.3596 8.1594-6.3614 11.347-0.39869 1.0416 1.2008 1.0095 1.7989 1.1787 3.0549 0.8473 6.2843 0.38466 9.4114 0.51698 0.54125-1.1265 0.0889-2.7877 0.24888-4.117-0.16724-5.0999 1.2192-10.123 3.3373-14.742 0.28678-0.60211 0.9942 0.27444 0.45263 0.63002-1.9695 4.8435-3.2996 9.9957-3.1976 15.258-0.18999 1.8996 0.42009 3.9366 2.1346 4.9709 2.2326 1.452 5.5643 2.2465 7.8735 0.53887 2.3555-2.1678 1.4444-5.7335 1.1809-8.5132-0.34933-3.8542-1.3314-7.7857-0.66079-11.618 0.8392-0.65802 0.66222 0.89792 0.6378 1.4638 0.07065 4.7656 0.52899 9.5477 1.3412 14.241 0.59524 0.66298 1.7544 0.05 2.5371 0.0295 0.75595 0.0243 1.2333-0.56676 0.91956-1.2833-1.4086-6.6313-2.7848-13.361-2.9629-20.128 0.2774-1.4647-1.0991-0.39415-1.8105-0.25246-4.0233 0.95144-7.902-1.2237-11.441-2.8918l-0.22485 0.0422z" fill="url(#linearGradient2380)"/>
     <path d="m197.7 167.95c-0.81927 0.53748-2.471 1.0175-1.912 2.3369 0.47293 2.0285 1.4206 3.9938 1.6912 6.0406-1.9088 2.8213-4.8454 4.8356-6.764 7.6532-0.26512 1.2542 0.43996 2.5528 0.32109 3.8451 0.2323 3.1245-0.76538 6.1619-1.6736 9.1364-0.49207 2.0137 1.795 3.0704 3.1783 3.9325 2.6446 1.7096 6.5774 2.2805 9.0781 0.0308 0.4851-0.57836 1.4735-1.7638 0.73324-2.4084 0.46161-1.8476-0.26643-3.8079-0.49981-5.6563-0.32409-2.1596-1.2074-4.3957-1.5998-6.42 0.49197-0.30951 0.96828-0.1596 0.99955 0.47006 1.2537 3.4831 1.7062 7.168 2.4133 10.776 0.39043 1.1456 2.1154 0.49639 2.5438-0.30875 0.5287-2.3545-0.0243-4.8317-0.20465-7.2086-0.28383-2.9771-1.6143-5.7206-2.1809-8.617 0.45727-0.59445 0.79476 0.73101 0.95888 1.0527 1.2069 2.9856 1.6785 6.1743 2.3615 9.2908 0.64781 1.0651 1.9679-0.0572 2.735-0.41018 1.3087-0.77012 2.4175-2.2928 1.7506-3.857-0.96765-5.1282-5.0802-8.666-8.3793-12.378-2.1084-2.2038-3.8084-4.7862-5.4061-7.331z" fill="url(#linearGradient2364)"/>
     <path d="m189.37 185.57c-1.521 1.0663-2.3781 2.9149-3.6115 4.2924-1.1439 1.7495-3.0366 3.169-3.0684 5.4188-0.16345 1.0187-0.85725 2.7752 0.58518 3.1962 1.5351 0.64233 3.7344 0.62952 4.8856-0.70464 0.62895-2.7464 2.0555-5.3536 1.8461-8.2592-0.1183-1.2525 0.36195-2.7827-0.35769-3.8819-0.0805-0.0557-0.18274-0.0788-0.27926-0.0617z" fill="url(#linearGradient2372)"/>
     <path d="m179.04 185.51c-0.76268 1.1549-0.59136 2.7792-1.2235 4.0445-0.39429 1.0243-1.2162 2.5169 0.022 3.3187 0.97871 0.74121 2.2569 1.627 3.5205 1.4504 0.91823-0.67364 1.5722-1.9846 0.79007-3.024-0.93028-1.9387-1.6453-4.0956-2.95-5.7946z" fill="#ff8080"/>
     <path d="m134.41 27.936c-0.80517 0.40061 0.38829 1.2195 0.70732 1.5934 4.9588 4.5549 9.3898 9.6784 14.346 14.255 3.7195 3.5369 7.5799 6.9988 11.821 9.8887 0.80912-0.27297-0.22382-1.344-0.37313-1.8786-0.54842-1.3304-1.2364-2.7817-1.1997-4.1995 1.0084-0.30794 0.72981 1.238 1.0554 1.7922 1.4674 4.7825 5.6065 8.1497 10.067 10.049 7.0729 3.1325 14.569 6.4022 19.328 12.782 2.4296 3.1217 3.4833 7.2085 3.0194 11.143-0.29045 5.4188-3.934 9.8259-6.604 14.32-1.495 2.3848-2.7339 4.9335-3.5406 7.6351 1.0564 0.98624 2.7494 1.3706 4.0934 2.0536 1.916 0.90612 4.3783 1.2369 6.0782-0.30753 2.0409-1.4564 4.1073-3.148 6.2684-4.2653 0.7857 0.88052-0.96205 1.2045-1.3941 1.6854-0.42196 0.3584-1.9557 0.96988-1.0532 1.6019 0.93161 0.14699-0.0738 1.0496-0.19839 1.5509-1.1733 1.9189-2.4524 3.9611-4.311 5.2403-0.92009-0.47186 0.41373-1.1866 0.70107-1.6229 1.2893-1.5465 2.8218-3.124 3.3892-5.0844-0.45101-0.78545-1.3538 0.49197-1.8749 0.68856-0.95296 0.90073-2.2576 1.3563-3.2332 2.1787-1.0465 2.9058-1.3457 6.0455-2.2895 8.9919-1.633 6.1282-4.0208 12.001-6.499 17.83 0.94663 5.8782 2.5634 11.648 5.1206 17.037 2.1329 4.5374 4.1039 9.1827 6.6192 13.52 0.7077 0.31532 1.0023-0.91891 1.7748-0.84003 2.5049-0.64338 5.2561-0.61593 7.4494-2.1881 3.9912-2.9298 7.7414-6.2142 11.28-9.6768 2.436-2.3274 3.5722-5.7416 3.2484-9.0714-0.60564-8.0984-3.5022-15.819-4.1262-23.92-0.97021-7.8506-1.3958-16.22-5.8268-23.06-4.4919-7.0036-10.397-13.091-13.951-20.693-4.7326-9.227-7.5232-19.384-12.712-28.399-4.6468-7.9145-12.013-13.992-20.135-18.104-0.38203-0.30842-1.3225-0.49788-1.0938 0.28552 0.59515 2.6404 1.3686 5.3751 1.2873 8.0571-1.3155 0.45512-0.71503-1.39-0.93548-2.1969-0.28056-2.3908-0.52641-5.032-1.9903-7.0242-1.845-1.0332-4.1296-0.92162-6.1921-0.98569-3.4572 0.48732-6.8163 1.8232-10.342 1.5013-2.7076-0.13963-5.2986-1.1755-7.7783-2.1631z" fill="url(#linearGradient2356)"/>
     <path d="m104.21 10.623c-0.93044 0.54024-0.31957 2.1969-0.62196 3.123-0.64242 1.4539-0.0383 1.6013 0.88962 1.6574 5.7678 1.7509 12.005 3.5304 17.963 4.4847 0.97473 0.23632 1.9047 0.01683 2.1268-1.1911 0.19247-0.72132 1.9711-1.2437 1.5744-1.8776-6.4935-1.1172-13.372-3.3473-19.649-5.361-0.64194-0.18245-1.6337-0.70611-2.2835-0.83523z" fill="#ff8080"/>
     <path d="m133.24 16.089c-1.6608 0.29055-3.3418 0.67991-4.987 0.93476-0.40438 0.74674 0.76551 1.394 1.2337 1.8494 1.1169 0.32158 2.3359-0.12536 3.47-0.21224 0.65489-0.5634 0.74611-2.0391 0.69689-2.828-0.0574-0.0993-0.31075 0.25046-0.4136 0.25604z" fill="#ff8080"/>
     <path d="m103.12 15.779c-1.1906 1.9296-2.1781 4.0038-3.6193 5.7846 0.39777 0.80528 1.8339 0.84529 2.6952 1.2444 7.1083 1.9404 15.022 3.358 22.401 2.6432 0.67503-0.54577-0.74769-1.6332-0.67148-2.334-0.33648-0.89999 0.86706-2.7406-0.5909-2.5917-6.6806-0.64742-13.792-2.2934-20.035-4.7719zm2.8454 3.3472c3.6776 1.0702 7.4067 2.1284 11.271 2.2323 1.1706 0.17171 2.5493-0.10084 3.6023 0.41823 0.13502 0.67189-1.0883 0.17402-1.4678 0.34897-4.7454 0.06625-9.4687-0.81371-13.914-2.5107 0.11539-0.19268 0.22001-0.54555 0.50848-0.48882z" fill="url(#linearGradient2348)"/>
    </g>
   </g>
   <g fill="#ff8080" stroke="#000">
    <path d="m132.57 19.521c-0.59293 0.24462-2.3714-0.56013-2.4894 0.31405 0.40099 0.60496 0.80167 2.3938 1.7333 2.3151 0.62511-0.64468 0.76907-1.7143 0.9629-2.5317l-0.18096-0.09785z" stroke-width=".053224"/>
    <g stroke-width=".0094087">
     <path d="m131.82 26.169c-0.27215 0.15159-0.18517 0.53831 0.0395 0.69328 0.69571 0.64307 1.4068 1.2756 2.1485 1.8636 0.25689 0.09747 0.39288-0.19862 0.33846-0.40892-0.0397-0.1947 0.30459-0.27424 0.17457-0.49116-0.18312-0.20862-0.48212-0.34938-0.76129-0.38766-0.64966-0.3433-1.1239-0.9446-1.7824-1.2748-0.0535-0.01984-0.10384-0.0041-0.15735 0.0056z"/>
     <path d="m131.43 21.923c-0.2961 0.04847-0.21283 0.3805-0.13105 0.57495 0.0622 0.20636 0.14132 0.56968 0.43428 0.49739 0.28024-0.12351 0.25403-0.50948 0.31485-0.75832-6e-3 -0.29125-0.40457-0.28058-0.61808-0.31402z"/>
     <path d="m127.83 16.803c-0.22031-0.03423-0.55847 0.10557-0.43073 0.37827 0.19166 0.2182 0.42974 0.42741 0.7 0.5342 0.30959-0.05239 0.22471-0.42142 0.31208-0.64825-0.0184-0.3009-0.37167-0.2615-0.58135-0.26422z"/>
     <path d="m110.37 10.02c-1.3234 0.02585-2.6508-0.0014-3.971 0.10079-0.27034-0.01638-0.39706 0.37369-0.13909 0.48972 1.1031 0.48362 2.2649 0.82196 3.4029 1.2139 3.9812 1.3036 7.9981 2.5066 12.064 3.5176 1.9789 0.46242 3.9922 0.90341 6.0363 0.85408 1.0957 0.0029 2.2001-0.03 3.2683-0.29858 0.86443-0.20634 1.7426-0.43905 2.5214-0.8766 0.1574-0.08384 0.12741-0.29815 0.29889-0.34605 0.27228-0.26085-0.0131-0.6758-0.26579-0.83474-0.70807-0.39565-1.5108-0.58128-2.2702-0.85366-4.9757-1.6205-10.182-2.4336-15.391-2.8047-1.8488-0.12371-3.7022-0.17101-5.555-0.16175z"/>
    </g>
   </g>
   <g stroke="#000" stroke-width=".0094087">
    <path d="m131.32 27.371c-0.29308 0.20043-0.4587 0.54829-0.76399 0.74351-0.64063 0.52104-1.5206 0.66576-2.3132 0.47383-0.25261-0.02813-0.53472-0.2856-0.7567-0.06103-0.15597 0.65792-0.1817 1.3463-0.28634 2.0159-0.30057 2.4886-0.67645 4.974-0.74274 7.4837-0.32556 7.6643 0.38807 15.374 2.1571 22.84 0.65408 2.8231 1.3477 5.6488 1.6491 8.5331 0.1848 1.4835 0.22772 2.9693 0.27828 4.4672-0.0179 0.2448 0.2898 0.45827 0.477 0.25158 0.48277-0.55925 0.97716-1.0972 1.6003-1.5031 1.013-0.7023 2.3406-1.0985 3.546-0.69087 0.84676 0.32842 1.6482 0.9022 2.5954 0.86337 0.68717 0.0274 1.39-0.15489 1.9566-0.54085 0.22701-0.23568-0.1538-0.398-0.28626-0.43728 0.0233-0.1945-0.0272-0.43177 0.0359-0.60372 0.29113-0.22384-0.0228-0.58938-0.10703-0.82234-0.90087-2.082-1.637-4.2481-2.1205-6.4567 0.18278-0.04019 0.36607-0.07814 0.55023-0.11153 0.55836 2.2962 1.2678 4.5627 2.2679 6.7077 0.15856 0.239 0.17703 0.64696 0.4876 0.72866 1.623-0.03812 3.3378-0.1967 4.7357-1.101 1.556-1.015 2.5139-2.8345 2.5563-4.6831 0.065-0.86166-0.14016-1.713-0.12354-2.5724 0.027-0.77996 0.56336-1.6181 1.3873-1.7003 0.23189 0.02071 0.53098-0.15143 0.41635-0.41872-2.151-4.5475-4.8916-8.8117-8.0827-12.699-0.62375-0.75901-1.2729-1.5013-1.9333-2.2257 0.0743-0.15757-0.0709-0.35634-0.24336-0.33286-2.7144-4.7661-5.6439-9.4072-8.7134-13.952-0.22163-0.18193-0.0995-0.30758 0.10667-0.41307 0.089-0.03554 0.20874-0.23473 0.26248-0.04952 3.0843 4.5032 5.9784 9.132 8.694 13.865 0.49612 0.80892 1.215 1.4466 1.7994 2.1886 3.6348 4.2808 6.675 9.069 9.0007 14.171 0.54788 1.1777 1.0341 2.3853 1.5229 3.5921 0.17561 0.2901 0.49545 0.02537 0.70439-0.07416 1.7072-0.88192 3.0207-2.4067 3.8103-4.1433 0.82973-1.6864 1.4152-3.5204 2.5676-5.0288 0.24887-0.36558 0.62622-0.647 0.98278-0.90812 0.22422-0.27602-0.19871-0.45668-0.37439-0.60616-3.8581-2.9236-7.5722-6.0404-11.126-9.3228-2.9174-2.7303-5.7516-5.5572-8.4658-8.4921-1.0085-1.0828-1.9729-2.2135-2.9734-3.3036-2.1772-1.882-4.3356-3.7866-6.531-5.6472-0.0687-0.01191-0.1357-0.05506-0.20513-0.02449zm3.0279 19.439c0.73068 3.9186 1.6186 7.8066 2.6236 11.664-0.17777 7.03e-4 -0.48556 0.22544-0.57283 0.06722-1.0218-3.8866-1.9094-7.8193-2.6389-11.769 0.18545-0.04584 0.36587-0.08376 0.55695-0.11674 0.0104 0.05168 0.0208 0.10337 0.0312 0.15505z" fill="url(#radialGradient2674)"/>
    <path d="m150.27 61.742c-0.63354 0.02949-1.0129 0.72678-0.95883 1.3067-0.0127 0.25087-0.0422 0.59509 0.27958 0.65525 0.70305 0.30726 1.3808 0.68244 2.1009 0.94576 0.24383 0.04352 0.35519-0.25844 0.22541-0.43668-0.25443-0.64534-0.49581-1.3007-0.74871-1.9436-0.20244-0.298-0.51985-0.54602-0.89833-0.5274z" fill="#fd5"/>
    <path d="m161.81 55.181c-0.74881 0.0095-1.231 0.68793-1.6155 1.2443-0.3177 0.50984-0.67004 1.0157-0.87416 1.5828-8e-3 0.33734 0.43285 0.29777 0.65902 0.37865 1.2483 0.271 2.4936 0.56918 3.7473 0.80704 0.32963-0.06262 0.20456-0.44623 0.12883-0.66026-0.31799-0.92246-0.56523-1.8853-1.0558-2.7358-0.21208-0.336-0.56906-0.64106-0.98972-0.61666z" fill="#ffd42a"/>
   </g>
   <g fill="#ff8080" stroke="#000">
    <g stroke-width=".0094087">
     <path d="m161.58 53.233c-0.18332 0.13805-0.53472 0.37824-0.34352 0.64225 0.30117 0.25844 0.61103 0.52771 0.96863 0.70331 0.25336 0.0873 0.42759-0.26503 0.23436-0.43483-0.24103-0.2997-0.42676-0.65606-0.7109-0.91184-0.0495 3.69e-4 -0.0991 7.38e-4 -0.14857 0.0011z"/>
     <path d="m163.86 55.877c-0.31615 0.08078-0.16986 0.45598-0.0817 0.6575 0.0266 0.25257 0.32262 0.48967 0.53348 0.2564 0.20041-0.12815 0.32105-0.42026 0.073-0.57059-0.15557-0.12798-0.29638-0.36202-0.52476-0.3433z"/>
     <path d="m149.63 64.407c-0.2201 0.0273-0.24576 0.2694-0.18483 0.43759-1.3e-4 0.30628 0.45694 0.33874 0.53467 0.05695 0.12546-0.24595-0.0835-0.52023-0.34984-0.49454z"/>
    </g>
    <g stroke-width=".0055032">
     <path d="m48.725 220.44c-0.23679 2e-3 -0.30788 0.33785-0.11582 0.45859 0.80701 0.45634 1.6429 0.86169 2.4692 1.2824 1.914 0.94422 3.8984 1.852 6.0351 2.1308 0.67315 0.0962 1.3578 0.0914 2.0343 0.0384 1.168-0.12788 2.3402-0.50431 3.2671-1.2449 0.2218-0.18548 0.34203-0.53269 0.2092-0.80107-0.211-0.36013-0.697-0.38127-1.057-0.27295-0.7671 0.22901-1.5243 0.51331-2.3245 0.60743-1.5601 0.20255-3.1666 0.0173-4.6633-0.47322-0.51097-0.12764-1.0337-0.17963-1.548-0.30717-1.3285-0.27896-2.6118-0.71834-3.86-1.2517-0.14845-0.0534-0.28237-0.16918-0.44625-0.16665z"/>
     <path d="m107.98 163.7c-0.21528 0.0648-0.26632 0.32118-0.38832 0.48409-0.10985 0.22287-0.27847 0.42224-0.34054 0.66446 0.0518 0.21845 0.24247 0.36871 0.36334 0.5515 0.9107 1.1407 1.9981 2.1384 3.2176 2.9412 2.0764 1.3769 4.4059 2.299 6.7034 3.2327 4.2233 1.6797 8.5377 3.1305 12.918 4.3429 0.20571 0.0311 0.42077 0.1832 0.62839 0.0942 0.19265-0.10739 0.12759-0.39442-0.0579-0.47028-2.1709-1.2009-4.3727-2.346-6.59-3.4587-5.3252-2.6668-10.779-5.0754-16.328-7.2383 0.0903-0.27776 0.24121-0.54063 0.29235-0.82771-0.02-0.17127-0.20523-0.29435-0.36766-0.31958-0.0171 1e-3 -0.0342 2e-3 -0.0513 3e-3z"/>
     <path d="m171.85 165.56c-0.24222 0.0557-0.20924 0.34408-0.20827 0.5321-0.0282 1.9798-0.0984 3.9637-0.30169 5.9334-0.0643 0.68334-0.14584 1.3655-0.23877 2.0418-0.0164 0.19043 0.20723 0.29086 0.36513 0.21659 1.0153-0.22676 2.0378-0.42996 3.0493-0.6718 0.19712-0.0871 0.15714-0.33335 0.0782-0.49001-0.85319-2.3667-1.6203-4.7603-2.3811-7.1579-0.063-0.17735-0.11137-0.44176-0.36276-0.40419z"/>
    </g>
   </g>
   <path d="m127.92 21.331c-0.86418 0.01724-1.5517 0.93869-1.3078 1.7725 0.19894 0.89283 1.3781 1.3572 2.1193 0.80703 0.49675-0.3282 0.72798-0.95882 0.59044-1.5342-0.12139-0.63967-0.76867-1.0732-1.4019-1.0453z" fill="#ffe680" stroke-width="0"/>
   <path d="m126.5 17.444c-0.38853 0.1535-0.63124 0.54556-0.90176 0.84907-1.175 1.4729-1.4548 3.5265-0.89969 5.3049 0.45127 1.4208 1.2463 2.7661 2.379 3.748 0.57389 0.44636 1.2738 0.81285 2.0242 0.71844 1.0035-0.01073 1.7451-0.90893 1.9931-1.8127 0.16466-0.62285 0.0941-1.2821 0.0566-1.9179-0.28527-1.9535-1.2256-3.7892-2.5425-5.2493-0.58236-0.61561-1.2201-1.2064-1.9638-1.6191-0.0462-0.01683-0.0957-0.02678-0.14507-0.02153zm1.6297 3.0988c-0.0209 0.04212 0.039-0.12339 0 0zm-0.0268 0.0486c-0.0296 0.03606 0.0149-0.02407 0 0zm-0.0763 0.07947c0.87168 0.07286 1.6733 0.71207 1.8569 1.5801 0.22688 0.88005-0.2237 1.8648-1.0433 2.2635-0.75004 0.3803-1.738 0.22191-2.3099-0.40342-0.70221-0.70488-0.73888-1.944-0.0541-2.6745 0.36283-0.44099 0.91936-0.62988 1.462-0.72895 0.0311-0.0068 0.0596-0.0268 0.0884-0.03668z" fill="#ffb380" stroke-width="0"/>
   <g fill="#ff2a2a" stroke="#000" stroke-width=".005036">
    <path d="m196.92 166.06c-0.8877 0.17488-1.6372 0.84161-2.2165 1.4916 0.0101 0.3363 0.17879 0.77373 0.43966 1.0264 0.57929 0.0151 1.0497-0.4895 1.5167-0.78356 0.38808-0.38285 1.0758-0.91384 0.79225-1.5257-0.12046-0.16589-0.33855-0.21187-0.53205-0.20864z"/>
    <path d="m50.814 221.33c-0.46372 0.0661-0.24448 0.65507 0.1107 0.72128 2.49 1.2904 5.2199 2.5031 8.0934 2.2524 1.2393-0.11004 2.5818-0.44723 3.4721-1.3636 0.40526-0.43683-0.14048-1.0573-0.65346-0.91052-1.3478 0.32002-2.6814 0.8272-4.0551 0.69929-1.7678 8e-3 -3.4441-0.64486-5.1787-0.94785-0.60765-0.10175-1.1827-0.36737-1.7889-0.4511z"/>
    <path d="m109.02 10.042c-0.78584 0.06585-1.6533-0.10233-2.386 0.22527-0.30695 0.47891 0.4749 0.6413 0.78245 0.76841 5.4887 1.8645 11.034 3.6208 16.716 4.7967 2.0881 0.39583 4.2534 0.43644 6.357 0.14339 1.0522-0.23952 2.2113-0.3946 3.0877-1.0646 0.0985-0.23975 0.561-0.29912 0.35426-0.65217-0.64774-0.70569-1.6806-0.88111-2.5388-1.2306-7.2114-2.3216-14.827-3.0562-22.373-2.9864z"/>
    <path d="m107.74 164.8c-0.53745 0.1949 0.0328 0.74044 0.23613 0.98251 2.6204 3.0679 6.5176 4.5068 10.151 5.9803 3.9276 1.5139 7.9143 2.8969 11.976 4.0041 0.36935 0.14442 0.61335-0.38245 0.23636-0.54757-3.1153-1.7872-6.3569-3.3516-9.5913-4.9118-4.2157-1.9787-8.491-3.8479-12.845-5.4948-0.0534-0.0101-0.10818-0.0184-0.16263-0.0128z"/>
    <path d="m171.97 166.18c-0.43857 0.21959-0.21192 0.87497-0.32322 1.2688-0.046 2.1972-0.29697 4.3671-0.4596 6.5583 0.0977 0.53352 0.76936 0.0893 1.0977 0.0944 0.71022-0.19968 1.4868-0.24629 2.1616-0.53406 0.2915-0.48432-0.19875-1.0589-0.26964-1.5504-0.69392-1.8916-1.2072-3.8513-1.9681-5.7159-0.0459-0.096-0.14641-0.10324-0.23876-0.12123z"/>
   </g>
   <g fill="none" stroke="#000" stroke-width="1px">
    <path transform="translate(0 -15.25)" d="m126.5 32.25c-1.1421 0.84078-1.9592 2.1119-2.25 3.5-0.21914 1.0462-0.14489 2.1448 0.15449 3.171s0.81944 1.9813 1.4705 2.829c0.46265 0.60243 1.0041 1.1626 1.6747 1.5194 0.33529 0.17838 0.70068 0.30364 1.0777 0.34955 0.377 0.04591 0.76576 0.01112 1.1226-0.1189 0.39865-0.14526 0.75074-0.40734 1.0226-0.73306 0.27189-0.32572 0.46506-0.71358 0.58415-1.1208 0.2382-0.81445 0.18121-1.6884 0.0182-2.5211-0.55607-2.8412-2.3778-5.4103-4.875-6.875"/>
    <path transform="translate(.40035 -16.337)" d="m129.02 38.146c-0.26223-0.40076-0.69892-0.68287-1.172-0.75716-0.47313-0.07429-0.97527 0.06041-1.3477 0.36152-0.29231 0.23633-0.50361 0.5712-0.59049 0.93691-0.0869 0.36572-0.0487 0.76005 0.10735 1.102 0.15603 0.34198 0.42901 0.6294 0.76279 0.80228s0.72626 0.22998 1.0954 0.15878c0.41775-0.0806 0.80083-0.32591 1.0515-0.66966 0.25069-0.34375 0.36716-0.78213 0.32347-1.2053-0.0438-0.42415-0.24776-0.82983-0.56209-1.1179-0.31434-0.28812-0.73621-0.45607-1.1626-0.46283"/>
    <path d="m48.875 221.38c1.6424 0.84323 3.274 1.7196 5 2.375 1.3799 0.52397 2.8307 0.90604 4.3066 0.9289 1.4759 0.0229 2.9838-0.33296 4.1934-1.1789 0.19496-0.13635 0.38673-0.29079 0.5-0.5 0.08547-0.15786 0.12138-0.34237 0.09967-0.52056-0.02171-0.1782-0.10119-0.34914-0.22467-0.47944-0.12179-0.12851-0.28352-0.21582-0.45453-0.26168-0.17101-0.0459-0.35116-0.0516-0.5271-0.0318-0.35188 0.0396-0.68355 0.17821-1.0184 0.29347-2.3045 0.79329-4.8946 0.48255-7.125-0.5-1.0578-0.46597-2.0497-1.076-3.125-1.5-0.33119-0.1306-0.66931-0.24314-1-0.375-0.27032-0.10779-0.54042-0.22976-0.82956-0.26275-0.14457-0.0165-0.29297-0.01-0.4324 0.0317-0.13944 0.0416-0.26965 0.11949-0.36304 0.23108-0.12474 0.14906-0.1768 0.3518-0.15919 0.54536 0.01761 0.19357 0.10101 0.37768 0.21897 0.53216 0.2359 0.30897 0.59441 0.49493 0.94023 0.67248z"/>
    <path d="m194.25 167.5c0.48156-0.52364 1.0289-0.98675 1.625-1.375 0.29523-0.19228 0.61404-0.37018 0.96442-0.40708 0.1752-0.0184 0.35592 4e-5 0.51867 0.0675 0.16275 0.0674 0.3065 0.18555 0.39191 0.33962 0.10892 0.1965 0.11626 0.43788 0.0582 0.65492-0.058 0.21704-0.17631 0.41321-0.30822 0.59508-0.61971 0.85443-1.5839 1.4513-2.625 1.625"/>
    <path d="m194.25 167.5 0.625 1.5"/>
    <path d="m48.875 221.38c-1.236 1.0113-2.3329 2.1925-3.25 3.5-0.25883 0.36899-0.50331 0.74779-0.75 1.125-3.4806 5.322-7.4162 10.346-11.75 15"/>
    <path d="m62.5 225.25c0.2212 3.7268 0.63864 7.442 1.25 11.125 0.55157 3.3228 1.261 6.6194 2.125 9.875"/>
    <path d="m52.375 229.25c-2.3944 5.0578-3.6428 10.654-3.625 16.25 3e-3 0.93038 0.04421 1.8804 0.375 2.75 0.37467 0.98495 1.1073 1.8096 1.9775 2.404 0.87017 0.5944 1.8739 0.97064 2.8975 1.221 1.0454 0.25569 2.1368 0.38505 3.1999 0.21814 1.0632-0.16692 2.0999-0.65088 2.8001-1.4681 0.54267-0.63339 0.86077-1.4363 1.0143-2.2561 0.15357-0.81981 0.15079-1.6608 0.11066-2.4939-0.15545-3.2274-0.86135-6.4046-1.125-9.625-0.15657-1.9124-0.15657-3.8376 0-5.75"/>
    <path d="m43.5 233.62c-0.8303 4.5753-3.0329 8.8925-6.25 12.25-0.19908 0.20777-0.40469 0.41567-0.54076 0.66922-0.06803 0.12678-0.1178 0.2644-0.13588 0.40714-0.01808 0.14274-0.0036 0.2908 0.05164 0.42364 0.06714 0.16133 0.19241 0.29472 0.34008 0.38814 0.14768 0.0934 0.31703 0.14871 0.48902 0.17958 0.34399 0.0617 0.6976 0.0285 1.0459 0.0573 0.7775 0.0643 1.494 0.43254 2.25 0.625 1.0549 0.26854 2.1648 0.18993 3.2464 0.0666 1.0815-0.12336 2.1695-0.28995 3.2536-0.19158 0.6871 0.0624 1.3644 0.23167 2 0.5"/>
    <path d="m33.125 241c0.01066 0.65323 0.18398 1.3032 0.5 1.875 0.44627 0.80747 1.18 1.4522 2.0381 1.7909 0.85815 0.33874 1.8344 0.369 2.7119 0.0841"/>
    <path d="m65.875 246.25c-0.74464 0.37511-1.55 0.62943-2.375 0.75-0.74473 0.10884-1.5053 0.10884-2.25 0"/>
    <path d="m62.5 225.25 0.5-2.875"/>
    <path d="m197.87 167c1.39 2.6988 3.1158 5.2244 5.125 7.5 2.6324 2.9814 5.7917 5.5955 7.625 9.125 0.94344 1.8164 1.501 3.832 1.625 5.875"/>
    <path d="m203.87 181.38c1.1865 2.7131 2.0287 5.5766 2.5 8.5 0.41913 2.5999 0.54518 5.247 0.375 7.875"/>
    <path d="m206.75 197.75c-0.53394 0.4491-1.1878 0.75425-1.875 0.875-0.84453 0.1484-1.7362 0.0147-2.5-0.375"/>
    <path d="m212.25 189.5c-0.47434 0.89521-1.1666 1.674-2 2.25-1.0228 0.70688-2.2569 1.1036-3.5 1.125"/>
    <path d="m47.375 219.38c-1.1977 0.19592-2.4273 0.19592-3.625 0-2.9107-0.47613-5.5865-2.1323-7.4224-4.4407s-2.8412-5.237-2.9526-8.1843c-0.13413-3.5487 0.97293-7.0158 2.125-10.375 3.7846-11.035 8.1941-21.847 12-32.875 3.2949-9.5469 6.1498-19.323 7.125-29.375 1.6595-17.107-2.1734-34.407-0.375-51.5 0.58954-5.6034 1.7795-11.124 3-16.625 0.97892-4.4118 1.9809-8.8263 3.375-13.125 1.5149-4.6711 3.5965-9.3438 7.25-12.625 2.5255-2.2681 5.6526-3.7363 8.75-5.125 4.0153-1.8002 8.0771-3.5275 11.875-5.75 3.5761-2.0927 6.8994-4.6167 9.875-7.5"/>
    <path transform="translate(-.15422 -12.965)" d="m138.5 45.875c2.8582 3.2971 5.8621 6.4678 9 9.5 4.6378 4.4816 9.5684 8.6601 14.75 12.5"/>
    <path transform="translate(-.15422 -12.965)" d="m164.62 72.625c-0.27435-1.0593-0.60839-2.1032-1-3.125-0.13246-0.34563-0.27369-0.69273-0.49163-0.99191-0.21794-0.29918-0.52269-0.54992-0.88337-0.63309-0.19791-0.04563-0.40631-0.03928-0.6039 0.0078-0.19758 0.04703-0.38456 0.13405-0.55413 0.24585-0.33913 0.2236-0.60502 0.54145-0.84197 0.8714-1.427 1.987-1.9506 4.5111-3.375 6.5-0.96463 1.3469-2.3294 2.4035-3.875 3"/>
    <path transform="translate(-.15422 -12.965)" d="m140.75 58.5c2.9486 3.2097 5.5517 6.7365 7.75 10.5 1.7695 3.0294 3.2769 6.2118 4.5 9.5"/>
    <path transform="translate(-.15422 -12.965)" d="m126.5 48c-0.6552 8.3172-0.0632 16.731 1.75 24.875 0.45481 2.0426 0.986 4.0688 1.375 6.125 0.6382 3.3734 0.89036 6.8196 0.75 10.25"/>
    <path transform="translate(3.5958 -12.215)" d="m137.87 84.25c-0.72578-1.4123-1.3528-2.8754-1.875-4.375-0.45577-1.3088-0.83169-2.6455-1.125-4"/>
    <path transform="translate(-.15422 -12.965)" d="m164.62 72.625-5.75-1.25"/>
    <path d="m197.25 165.38c0.78647 0.11099 1.5885 0.11099 2.375 0 1.9298-0.27233 3.7137-1.2024 5.2917-2.3461 1.578-1.1437 2.9829-2.5055 4.4583-3.7789 1.7885-1.5436 3.6894-2.9646 5.3446-4.6504s3.0776-3.6838 3.6554-5.9746c0.47165-1.8698 0.3589-3.8359 0.125-5.75-0.69605-5.6962-2.4283-11.215-3.375-16.875-1.0837-6.4791-1.1365-13.132-2.75-19.5-0.49916-1.9699-1.1471-3.9054-2-5.75-0.87085-1.8833-1.9514-3.6638-3.125-5.375-2.5597-3.7323-5.564-7.1436-8.125-10.875-3.7616-5.4807-6.5198-11.583-9-17.75-3.503-8.7106-6.6321-17.863-12.875-24.875-1.7465-1.9618-3.7099-3.7206-5.75-5.375-3.2249-2.6152-6.681-4.9957-10.5-6.625-3.1086-1.3262-6.5572-2.144-9.875-1.5-1.2704 0.2466-2.4909 0.70113-3.75 1-2.328 0.5526-4.7728 0.56333-7.125 0.125-3.2049-0.59724-6.2499-2.0327-8.75-4.125"/>
    <path d="m97.125 61.75c-0.23021 6.1933-0.81481 12.373-1.75 18.5-1.1457 7.5054-2.815 14.919-4.25 22.375-1.3558 7.0442-2.5031 14.13-3.375 21.25-2.4422 19.944-2.7167 40.082-4.125 60.125-0.53243 7.5778-1.2275 15.154-1.25 22.75-0.0093 3.1274 0.09354 6.2806-0.47537 9.3558-0.5689 3.0752-1.8868 6.1245-4.2746 8.1442-2.1101 1.7848-4.984 2.6338-7.7253 2.2824-2.7413-0.35145-5.308-1.898-6.8997-4.1574"/>
    <path d="m160 47.375c0.0439 0.54676 0.12755 1.0903 0.25 1.625 0.7239 3.1609 2.8004 5.9034 5.375 7.875 3.3815 2.5895 7.5279 3.9225 11.375 5.75 3.1721 1.5068 6.1789 3.3748 8.875 5.625 2.2658 1.891 4.3394 4.0935 5.625 6.75 1.846 3.8144 1.9084 8.3782 0.5 12.375-1.771 5.0261-5.64 9.0373-7.875 13.875-1.2842 2.7796-2.011 5.8152-2.125 8.875"/>
    <path d="m148.37 94.125c-1.2536 2.3001-3.0164 4.3208-5.125 5.875-4.1072 3.0272-9.4163 4.1846-14.5 3.75-6.0288-0.51537-11.847-3.2213-16.125-7.5"/>
    <path d="m100.62 73.75-3.75-6.375"/>
    <path d="m93.375 91c0.34259 2.568 1.4419 5.0304 3.125 7 2.5367 2.9685 6.2631 4.7397 8.75 7.75 2.0373 2.466 3.0892 5.5711 4.375 8.5 2.5407 5.7874 6.1185 11.096 8.375 17 1.2478 3.2649 2.0834 6.8273 1.375 10.25-0.52028 2.5139-1.8354 4.7803-3.125 7-3.1597 5.4384-6.2848 10.897-9.375 16.375"/>
    <path d="m197.25 176.5c-0.62681-2.5483-1.4207-5.0554-2.375-7.5-2.3393-5.9927-5.625-11.572-8.125-17.5-2.0253-4.802-3.5319-9.8381-4.25-15-0.86238-6.1993-0.58163-12.492-0.5-18.75 0.0332-2.5415 0.0332-5.0835 0-7.625"/>
    <path d="m56 222c-3.0265-0.19048-6.0055-1.0972-8.625-2.625-1.2861-0.75012-2.505-1.6668-3.375-2.875-1.0867-1.5093-1.5642-3.3968-1.5998-5.2563-0.03558-1.8595 0.3465-3.7033 0.84982-5.4937 2.901-10.319 9.7181-19.036 14.25-28.75 2.8414-6.0906 4.7854-12.599 5.75-19.25"/>
    <path d="m182.75 105.75c1.3864 0.7285 2.805 1.396 4.25 2 0.67509 0.28216 1.3595 0.55157 2.0737 0.71071 0.71417 0.15915 1.4636 0.20503 2.1763 0.0393 1.1372-0.26448 2.0783-1.0332 3-1.75 1.7527-1.3631 3.5908-2.6164 5.5-3.75"/>
    <path d="m191 108.5c-0.64776 3.6231-1.4826 7.2128-2.5 10.75-1.6791 5.8374-3.8562 11.531-6.5 17"/>
    <path transform="matrix(.68955 .014813 -.014813 .68955 59.477 15.742)" d="m148.25 106.5c-0.35997-0.42542-0.89286-0.70004-1.4482-0.74632-0.55536-0.0463-1.1264 0.13635-1.5518 0.49632s-0.70004 0.89286-0.74632 1.4482c-0.0463 0.55536 0.13635 1.1264 0.49632 1.5518s0.89286 0.70004 1.4482 0.74632c0.55536 0.0463 1.1264-0.13635 1.5518-0.49632s0.70004-0.89286 0.74632-1.4482c0.0463-0.55536-0.13635-1.1264-0.49632-1.5518z"/>
    <path transform="matrix(.68955 .014813 -.014813 .68955 62.951 30.435)" d="m148.25 106.5c-0.35997-0.42542-0.89286-0.70004-1.4482-0.74632-0.55536-0.0463-1.1264 0.13635-1.5518 0.49632s-0.70004 0.89286-0.74632 1.4482c-0.0463 0.55536 0.13635 1.1264 0.49632 1.5518s0.89286 0.70004 1.4482 0.74632c0.55536 0.0463 1.1264-0.13635 1.5518-0.49632s0.70004-0.89286 0.74632-1.4482c0.0463-0.55536-0.13635-1.1264-0.49632-1.5518z"/>
    <path transform="matrix(.68955 .014813 -.014813 .68955 65.781 50)" d="m148.25 106.5c-0.35997-0.42542-0.89286-0.70004-1.4482-0.74632-0.55536-0.0463-1.1264 0.13635-1.5518 0.49632s-0.70004 0.89286-0.74632 1.4482c-0.0463 0.55536 0.13635 1.1264 0.49632 1.5518s0.89286 0.70004 1.4482 0.74632c0.55536 0.0463 1.1264-0.13635 1.5518-0.49632s0.70004-0.89286 0.74632-1.4482c0.0463-0.55536-0.13635-1.1264-0.49632-1.5518z"/>
    <path transform="matrix(.68955 .014813 -.014813 .68955 68.069 71.554)" d="m148.25 106.5c-0.35997-0.42542-0.89286-0.70004-1.4482-0.74632-0.55536-0.0463-1.1264 0.13635-1.5518 0.49632s-0.70004 0.89286-0.74632 1.4482c-0.0463 0.55536 0.13635 1.1264 0.49632 1.5518s0.89286 0.70004 1.4482 0.74632c0.55536 0.0463 1.1264-0.13635 1.5518-0.49632s0.70004-0.89286 0.74632-1.4482c0.0463-0.55536-0.13635-1.1264-0.49632-1.5518z"/>
    <path d="m148.25 73.5c1.5945 2.6128 2.9361 5.3799 4 8.25 1.4303 3.8586 2.3573 7.9036 2.75 12"/>
    <path d="m164 156c0.51028 4.5828 0.25571 9.2499-0.75 13.75-0.79576 3.5607-2.06 7.0164-3.75 10.25"/>
    <path d="m183.5 176.75c-1.551-2.1112-2.8929-4.3758-4-6.75-2.1004-4.5045-3.34-9.3639-4.25-14.25-1.4295-7.6754-2.0711-15.472-2.75-23.25-1.211-13.874-2.5622-27.82-6.25-41.25-1.8735-6.8228-4.3444-13.482-7.375-19.875"/>
    <path d="m155 93.75c0.41077 3.0008 0.82744 6.0008 1.25 9 1.4568 10.34 2.9835 20.669 4.5 31 1.0886 7.4159 2.1719 14.833 3.25 22.25"/>
    <path d="m103.75 10c-0.11515 2.4181-0.71367 4.8122-1.75 7-1.8009 3.8018-4.9481 6.9491-8.75 8.75"/>
    <path d="m103.75 10c1.8171 0.71017 3.6512 1.3771 5.5 2 3.2984 1.1113 6.6426 2.0821 10 3 2.298 0.62827 4.6163 1.2344 6.9895 1.4426 2.3732 0.20826 4.8235 2e-3 7.0105-0.94265 0.22769-0.09834 0.45517-0.20643 0.64321-0.36816 0.094-0.08087 0.17743-0.17489 0.24047-0.28169 0.063-0.1068 0.10534-0.22663 0.11632-0.35016 0.0141-0.15848-0.024-0.31953-0.0971-0.46083s-0.18025-0.26345-0.30337-0.36423c-0.24625-0.20155-0.55033-0.31646-0.84948-0.42494-4.2667-1.5472-8.7425-2.4702-13.25-3-5.3066-0.62376-10.676-0.70767-16-0.25"/>
    <path d="m98.375 21.875c4.2372 1.591 8.6459 2.7247 13.125 3.375 4.4649 0.64827 8.9994 0.81621 13.5 0.5"/>
    <path d="m133.5 19-4 0.5"/>
    <path d="m134 14.5c0.12076 1.5136-0.0499 3.0499-0.5 4.5-0.34712 1.1185-0.85761 2.1838-1.1555 3.3164-0.14894 0.56629-0.244 1.15-0.23367 1.7354 0.0103 0.58546 0.12863 1.1738 0.38915 1.6982 0.32019 0.6445 0.8555 1.1798 1.5 1.5"/>
    <path d="m69.5 38.75c1.5455-0.43977 3.1442-0.6922 4.75-0.75 5.3053-0.19096 10.656 1.8386 14.5 5.5"/>
    <path d="m159 28.75c0.78237 1.5878 1.3714 3.2708 1.75 5 0.37689 1.7214 0.54517 3.4884 0.5 5.25"/>
    <path transform="matrix(.68955 .014813 -.014813 .68955 54.243 -.80699)" d="m148.25 106.5c-0.35997-0.42542-0.89286-0.70004-1.4482-0.74632-0.55536-0.0463-1.1264 0.13635-1.5518 0.49632s-0.70004 0.89286-0.74632 1.4482c-0.0463 0.55536 0.13635 1.1264 0.49632 1.5518s0.89286 0.70004 1.4482 0.74632c0.55536 0.0463 1.1264-0.13635 1.5518-0.49632s0.70004-0.89286 0.74632-1.4482c0.0463-0.55536-0.13635-1.1264-0.49632-1.5518z"/>
    <path d="m148.25 73.5-1.75-3.25"/>
    <path d="m155.28 72.058-3.8135-9.7724"/>
    <path d="m158.87 71.375-3.875-7.125"/>
    <path d="m126.35 35.035 0.92545-7.3564"/>
    <path d="m138.35 32.91-7.0958-6.1603"/>
    <path d="m140.6 45.535c-1.9349-3.4028-3.9679-6.7498-6.0958-10.035-0.98001-1.5132-1.9801-3.0134-3-4.5"/>
    <path d="m183 192-1.25 6"/>
    <path transform="matrix(.72912 0 0 1.0492 49.214 -9.7674)" d="m181.75 198c1.7222 1.0053 3.7659 1.4496 5.75 1.25 1.5091-0.15178 2.98-0.6709 4.25-1.5"/>
    <path transform="matrix(1.2002 0 0 1 -40.674 -6)" d="m192 189.5c1.0714 3.7422 0.98298 7.8078-0.25 11.5-0.17649 0.52849-0.37622 1.0511-0.49562 1.5954-0.11941 0.54424-0.15572 1.1184-4e-3 1.6546 0.11487 0.40701 0.33437 0.77904 0.60054 1.1077 0.26617 0.32865 0.57887 0.6165 0.89946 0.89232 0.77488 0.66668 1.6077 1.2735 2.5216 1.7314s1.9127 0.7644 2.9338 0.81336c1.021 0.049 2.065-0.16819 2.9422-0.693 0.8772-0.52482 1.5758-1.3677 1.8524-2.3518 0.27261-0.96982 0.13269-2.0014 0-3-0.19948-1.5013-0.37822-3.0058-0.625-4.5-0.33456-2.0257-0.79405-4.0308-1.375-6"/>
    <path d="m178.25 181.75c0.23513 1.5717 0.23513 3.1783 0 4.75-0.27431 1.8335-0.86933 3.6186-1.75 5.25"/>
    <path d="m181.75 194.75c-0.85645 0.0182-1.7164-0.15377-2.5-0.5-1.1529-0.50944-2.1333-1.4007-2.75-2.5"/>
    <path transform="translate(.97078 2.5353)" d="m150.5 59.75c-0.13116-0.38648-0.4677-0.69644-0.86364-0.79543-0.39594-0.09898-0.83876 0.01614-1.1364 0.29543-0.16452 0.1544-0.28425 0.35307-0.36065 0.56536-0.0764 0.2123-0.11062 0.43817-0.11841 0.66366-0.0156 0.45098 0.0727 0.89816 0.11995 1.3469 0.1258 1.1944-0.0455 2.4253-0.53941 3.5199-0.49393 1.0947-1.3152 2.0472-2.3515 2.6541-1.3406 0.78513-2.9469 0.96138-4.5 1-0.4999 0.01243-1.0001 0.01243-1.5 0"/>
    <path d="m130.22 76.285c0.38795-1.1692 1.0971-2.23 2.0292-3.0353 0.54704-0.47268 1.177-0.86165 1.8714-1.0627s1.457-0.20504 2.1286 0.06269c0.34634 0.13807 0.66141 0.34388 1 0.5 0.68846 0.31745 1.4734 0.42179 2.2209 0.29523s1.4543-0.4835 1.9999-1.0099"/>
    <path d="m136.75 58.75c-0.63986-2.4026-1.2234-4.8201-1.75-7.25-0.36-1.6612-0.6934-3.3281-1-5"/>
    <path d="m152.85 65.535-3.8458-1.7853"/>
    <path d="m108 164.5c3.0309 1.174 6.0322 2.4245 9 3.75 16.394 7.322 31.757 16.945 45.5 28.5"/>
    <path d="m197.25 176.5c-1.7226 1.6094-3.3906 3.2774-5 5-3.8514 4.1224-7.3668 8.5585-10.5 13.25"/>
    <path d="m162.5 196.75c1.3705-2.4373 2.6224-4.9412 3.75-7.5 1.8747-4.2542 3.4097-8.6777 4.25-13.25 1.2395-6.7444 0.94667-13.678 0.25-20.5-1.0221-10.008-2.9004-19.907-4.3205-29.867-0.93026-6.5242-1.6646-13.079-2.8305-19.565-0.89082-4.9559-2.0334-9.868-3.474-14.693-1.6555-5.5443-3.7031-10.969-5.2341-16.549-0.8394-3.0593-1.5223-6.1616-2.0451-9.2906"/>
    <path d="m183 192c-1.6996-3.3612-3.2842-6.7805-4.75-10.25-2.8842-6.8267-5.3082-13.848-7.25-21"/>
    <path d="m159.5 180c-9.6021-7.3534-20.127-13.5-31.25-18.25-5.2149-2.227-10.56-4.148-16-5.75"/>
    <path d="m183.5 176.75c1.9033-1.3229 3.7397-2.742 5.5-4.25 1.8361-1.573 3.5894-3.2427 5.25-5"/>
    <path d="m106.87 164.88c0.67407 0.97252 1.4746 1.8573 2.375 2.625 1.967 1.6771 4.3612 2.7623 6.75 3.75 5.6795 2.3483 11.535 4.2721 17.5 5.75"/>
    <path d="m170.38 174.83 4.8748-1.0844"/>
    <path d="m197.25 106c-0.75861 1.7196-1.7732 3.3261-3 4.75-0.61595 0.71493-1.2851 1.384-2 2"/>
    <path d="m105.5 19.25c1.5474 0.60558 3.1355 1.1071 4.75 1.5 3.5092 0.85401 7.1435 1.1921 10.75 1"/>
    <path d="m102.9 15.338c1.904 0.59696 3.8122 1.1805 5.7244 1.7504 4.3616 1.3001 8.7694 2.5349 13.294 3.0278 0.78646 0.08568 1.5754 0.1488 2.3655 0.18924"/>
    <path d="m190.47 90.796c-1.3212 2.3833-3.1371 4.4909-5.2986 6.1502-0.57625 0.44235-1.1767 0.85318-1.7978 1.23"/>
   </g>
   <path d="m96.984 68.371c0.73168 1.666 1.2725 3.4157 1.6085 5.204 0.35105 1.8684 0.4784 3.7787 0.37848 5.6771" fill="#ff2a2a" stroke="#000" stroke-width="1px"/>
  </g>
 </g>
</svg>
