<?xml version="1.0" encoding="UTF-8"?>
<svg cursor="default" enable-background="new" version="1.1" viewBox="0 0 256 256" xmlns="http://www.w3.org/2000/svg" xmlns:cc="http://creativecommons.org/ns#" xmlns:dc="http://purl.org/dc/elements/1.1/" xmlns:rdf="http://www.w3.org/1999/02/22-rdf-syntax-ns#" xmlns:xlink="http://www.w3.org/1999/xlink">
 <metadata>
  <rdf:RDF>
   <cc:Work rdf:about="">
    <dc:format>image/svg+xml</dc:format>
    <dc:type rdf:resource="http://purl.org/dc/dcmitype/StillImage"/>
    <dc:title/>
   </cc:Work>
  </rdf:RDF>
 </metadata>
 <defs>
  <linearGradient id="linearGradient1852" x1="86.967" x2="155.97" y1="122.03" y2="122.03" gradientTransform="matrix(1.0668 0 0 1.0668 -5.7417 -1.9381)" gradientUnits="userSpaceOnUse">
   <stop stop-color="#f55" offset="0"/>
   <stop stop-color="#ff2a2a" offset="1"/>
  </linearGradient>
  <linearGradient id="linearGradient1860" x1="86.921" x2="155.97" y1="123.06" y2="123.06" gradientTransform="matrix(1.0668 0 0 1.0668 -5.7417 -1.9381)" gradientUnits="userSpaceOnUse">
   <stop stop-color="#f55" offset="0"/>
   <stop stop-color="#ff8080" offset=".105"/>
   <stop stop-color="#ff8080" offset=".777"/>
   <stop stop-color="#f55" offset="1"/>
  </linearGradient>
 </defs>
 <g display="none" fill="#ffd5d5">
  <path d="m125.8-66.918c0.19113-0.13799 0.36408-0.30229 0.53601-0.46375 0.14221-0.10162 0.26069-0.22783 0.40714-0.32395 0.16197-0.1145 0.35231-0.17689 0.51665-0.28607 0.19959-0.09748 0.38503-0.22094 0.58248-0.32348 0.16429-0.1074 0.34952-0.17162 0.51877-0.26764 0.14546-0.05932 0.27793-0.1424 0.42003-0.20938 0.12023-0.08121 0.24331-0.16517 0.378-0.22069 0.11434-0.06734 0.23138-0.13631 0.3565-0.18236 0.11722-0.09046 0.2551-0.14972 0.3702-0.24206 0.12005-0.09046 0.26297-0.14524 0.38556-0.22991 0.0832-0.03548 0.15839-0.08157 0.23866-0.12261l-0.11422 1.0484c-0.0771 0.04202-0.15789 0.07632-0.23389 0.12041-0.12825 0.06313-0.2543 0.13186-0.37378 0.21041-0.13283 0.08533-0.25518 0.18803-0.3953 0.26009-0.11865 0.05795-0.23519 0.12005-0.35306 0.17953-0.12646 0.065-0.24907 0.13719-0.37221 0.20819-0.1363 0.07532-0.27366 0.14348-0.42109 0.19516-0.17679 0.07013-0.34407 0.15971-0.51427 0.24448-0.19875 0.0963-0.38624 0.21057-0.57564 0.32339-0.17845 0.09301-0.3488 0.19995-0.51187 0.31788-0.13309 0.10018-0.25447 0.21623-0.39786 0.30275-0.19966 0.13825-0.38689 0.29452-0.53694 0.48733l0.0901-1.0262z"/>
  <path d="m120.85-66.835c0.0444-0.58608 0.20712-1.1269 0.35945-1.6828 0.0426-0.17144 0.1709-0.29008 0.25244-0.43939 0.0908-0.12969 0.22965-0.20993 0.36355-0.28833 0.11481-0.09222 0.21597-0.20065 0.34376-0.27466 0.11691-0.08744 0.24277-0.16205 0.3659-0.24035 0.12401-0.06714 0.24427-0.13918 0.3693-0.20488 0.12704-0.04094 0.21978-0.13815 0.33958-0.19322 0.13016-0.05459 0.26091-0.10723 0.39545-0.15359 0.14758-0.07245 0.30124-0.12868 0.44917-0.20449 0.17264-0.07193 0.33051-0.17437 0.50194-0.24755 0.12905-0.04661 0.24417-0.11976 0.37097-0.17224l-0.12165 1.0114c-0.12107 0.04466-0.24065 0.09361-0.35806 0.1472-0.16553 0.09957-0.33096 0.19871-0.50549 0.28211-0.15026 0.07766-0.31182 0.12952-0.46037 0.21079-0.12918 0.05722-0.25712 0.11707-0.38583 0.17521-0.11047 0.06853-0.21729 0.14262-0.33882 0.1916-0.11929 0.06619-0.24306 0.12408-0.36002 0.19469-0.12268 0.08035-0.24608 0.15912-0.36658 0.24273-0.11993 0.08554-0.2223 0.19376-0.34622 0.27334-0.12488 0.07823-0.24168 0.15534-0.31459 0.28895-0.0894 0.12685-0.17877 0.2506-0.22355 0.40223-0.12757 0.38943-0.33775 1.4102-1e-3 -0.2908 0 0-0.32924 0.97202-0.32924 0.97202z"/>
  <path d="m116.69-60.997c-8e-3 -0.27892-0.0422-0.55612-0.0636-0.83416-0.0144-0.19126-0.0178-0.38306-0.0196-0.57478-3e-3 -0.19291 3e-3 -0.38573 3e-3 -0.57862-8e-3 -0.19185 1e-4 -0.38068 0.0301-0.57012 0.0312-0.17479 0.0437-0.35181 0.0508-0.52895 5e-3 -0.17638 5e-3 -0.35287 5e-3 -0.52932-0.0259-0.5256 0.0959-0.96293 0.19265-1.5112 5e-3 -0.02456 7e-3 -0.04987 0.0151-0.07367 0.0151-0.04588 0.042-0.08718 0.0589-0.13241 0.0252-0.06716 0.0376-0.13421 0.0653-0.20071 0.0986-0.12572 0.1407-0.27044 0.16332-0.4256-0.56284 3.1388 0.46621-2.5482-0.0863 0.55712 0.25734-0.39361 0.0866-1.0068 0.31962-1.4368 0.0806-0.16312 0.12873-0.34032 0.20621-0.50422 0.0611-0.14307 0.0859-0.29579 0.17526-0.42547 0.0814-0.11955 0.14631-0.24728 0.21101-0.37658 0.0908-0.10021 0.18811-0.19153 0.26557-0.30395 0.0752-0.06626 0.0866-0.17006 0.14547-0.2469 0.0299-0.03903 0.0664-0.07265 0.0969-0.11123 0.10869-0.07863 0.17624-0.18992 0.26088-0.28912 0.0619-0.11825 0.17487-0.1924 0.2583-0.29231 0.0973-0.11774 0.22929-0.19974 0.32915-0.3144 0.10773-0.11992 0.25125-0.19223 0.37742-0.28705 0.12143-0.07475 0.24236-0.15575 0.3517-0.24773 0.12999-0.07679 0.25194-0.16251 0.37874-0.24426 0.14604-0.08205 0.26276-0.2007 0.39206-0.30424 0.0893-0.06275 0.19297-0.08278 0.29835-0.09911l-0.14198 1.0279c-0.0899 0.02274-0.17662 0.05023-0.25004 0.10976-0.13004 0.1024-0.26926 0.19199-0.39861 0.2952-0.12313 0.08901-0.254 0.16632-0.3758 0.25725-0.12169 0.08038-0.23167 0.17662-0.35817 0.24985-0.12738 0.07281-0.24883 0.15756-0.35054 0.2642-0.11 0.11066-0.22164 0.21976-0.32804 0.33395-0.0909 0.09692-0.1768 0.19793-0.25361 0.30653-0.0767 0.104-0.17409 0.18662-0.26148 0.28128-0.0947 0.11298-0.14905 0.24957-0.24035 0.36545-0.0832 0.09657-0.17878 0.18364-0.24671 0.29129-0.072 0.12893-0.13739 0.26141-0.21607 0.38664-0.0614 0.1304-0.0975 0.27023-0.16246 0.39914-0.0692 0.16698-0.13273 0.33632-0.20505 0.50204-0.13125 0.38871-0.25925 1.2156 0.057-0.56814-0.0629 0.36254-0.12473 0.72529-0.18882 1.0876-8e-3 0.04401-0.0245 0.10434-0.0357 0.14775-6e-3 0.0232-0.0216 0.0933-0.0177 0.06966 4e-3 -0.02311 0.46746-2.7256-0.0262 0.1518-0.0374 0.15385-0.10712 0.28896-0.17821 0.42928-0.0398 0.13792-0.10051 0.26883-0.12475 0.41076 0.0541-0.3123 0.10996-0.62429 0.16224-0.93689 5e-3 -0.02782-0.0162 0.05434-0.0194 0.08236-0.0131 0.11632 0.0103 0.23678 4e-4 0.35345 2.2e-4 0.1768 8.6e-4 0.35361-2e-3 0.53039-4e-3 0.18005-0.011 0.36049-0.0401 0.53857-0.0324 0.19299-0.0665 0.38219-0.0503 0.57937-1e-5 0.18722 5e-3 0.37436 2e-3 0.56158-8.3e-4 0.20509-2e-3 0.41022 2e-3 0.61529 7e-3 0.26144 0.0104 0.52738 0.0721 0.78264l-0.30497 0.9799z"/>
  <path d="m108.85-91.646c0.23117-0.03403 0.45037-0.15603 0.64236-0.28693 0.15619-0.108 0.32335-0.19766 0.47698-0.30751 0.12875-0.09908 0.26113-0.18233 0.41072-0.24778 0.1327-0.08249 0.26417-0.16436 0.39515-0.24896 0.14616-0.08444 0.28946-0.17053 0.43193-0.26043 0.11886-0.10848 0.25624-0.19514 0.39074-0.28286 0.12926-0.11898 0.26959-0.22626 0.41095-0.33005 0.13551-0.09077 0.26887-0.18348 0.40245-0.2777 0.13575-0.11526 0.25915-0.24402 0.40211-0.35183 0.0913-0.09669 0.20725-0.16717 0.27054-0.28672 0.0964-0.10344 0.18158-0.21481 0.27209-0.32348 0.11927-0.11582 0.22739-0.24393 0.35215-0.35383 0.0802-0.11362 0.1979-0.18135 0.30135-0.2681 0.019-0.01151 0.0371-0.02451 0.057-0.03452 0.0593-0.02996 0.0675-0.0182 0.11552-0.06238 0.0501-0.04611 0.0814-0.08415 0.14206-0.12033 0.0888-0.09243 0.20435-0.14792 0.30326-0.22613 0.0932-0.0496 0.16266-0.12989 0.24579-0.19321l-0.0936 1.0544c-0.0796 0.07006-0.16361 0.13468-0.25317 0.19167-0.10721 0.06783-0.20161 0.15166-0.30424 0.22607-0.0991 0.08048-0.19922 0.15309-0.30975 0.21748-0.10682 0.07396-0.1961 0.16676-0.29148 0.25459-0.11826 0.10895-0.24209 0.21519-0.33366 0.34868-0.0864 0.11679-0.18519 0.22412-0.26767 0.34407-0.0884 0.10155-0.19549 0.18451-0.30231 0.26594-0.14015 0.10439-0.27227 0.21622-0.40044 0.3351-0.13038 0.10365-0.27151 0.19046-0.40541 0.28913-0.14034 0.09983-0.27729 0.20303-0.41076 0.31196-0.13303 0.09964-0.25716 0.21104-0.39867 0.2988-0.14533 0.08621-0.29466 0.16621-0.43054 0.26741-0.13305 0.08447-0.26748 0.1677-0.40673 0.24145-0.1363 0.0729-0.26356 0.15989-0.39675 0.23808-0.15964 0.09403-0.31528 0.19501-0.47781 0.28409-0.21554 0.11549-0.46179 0.17044-0.66026 0.31988l0.12017-1.0261z"/>
 </g>
 <g>
  <g stroke="#000">
   <g>
    <path d="m122.84 8.8419c-6.7168 0.20856-13.515-0.32936-20.175 0.7064-3.0662 0.79536-6.5192 1.8963-8.457 4.5527-0.3248 4.7021-1.3372 9.4106-2.7811 13.924-2.5938 7.7332-3.9401 15.824-4.1358 23.974-0.74488 10.666-0.28228 21.6 3.3677 31.751 6.3767 18.574 16.992 35.623 21.326 54.884 1.0582 4.3877 0.90507 8.9457-0.53011 13.245-2.4462 8.4674-4.7686 17.112-4.521 26.008-0.0989 9.596 0.53152 19.199 0.7942 28.77-0.89867 3.701-1.4074 7.5095-1.3706 11.347-0.4971 3.0331 1.1069 6.0853 3.9096 7.367 2.5254 1.26 5.6514 2.084 8.3989 1.1811 2.0463-1.4029 0.96817-4.375 1.3298-6.4281 0.0796-5.4696-0.28635-11.067 1.6407-16.29 3.3864-12.277 6.2598-24.706 8.0351-37.324 1.6435-9.8425 8.2151-18.636 7.3403-28.921-1.1986-9.7206-4.2178-19.109-6.3579-28.645-2.5734-9.9085-4.4654-19.954-6.3923-29.998-0.83432-4.4689-2.8297-8.6901-6.0262-11.948-0.36638-1.0334 1.1552 0.0057 1.3904 0.39611 2.0468 1.6721 2.6888 4.6563 4.8656 6.1523 1.9539 0.1882 2.6947-2.3651 4.3412-3.0458 0.89804-0.42935 2.0553-1.6739 3.0516-1.2447-0.72308 1.467-2.9332 1.6483-3.8786 3.0811-2.5839 2.5238-3.0649 6.3751-2.1799 9.7442 2.7967 17.718 8.2841 34.904 11.722 52.46 0.78577 6.19-0.0174 12.496-2.508 18.229-2.4148 5.8248-4.6118 11.799-5.2197 18.124-1.4996 11.439-5.4998 22.71-4.468 34.409 0.41472 4.0485-0.69267 8.0678-0.37288 12.113 0.64346 3.0174 1.4357 6.2809-0.36664 9.0354-2.5984 4.5734-3.1573 9.9298-2.62 15.084 0.23629 2.0636 0.46933 4.2436 1.3019 6.1226 3.8269 0.68399 7.5731 2.3911 11.495 2.2968 2.1007-0.70968 1.2167-3.6095 1.5548-5.2663 0.34496-4.2682 2.1912-8.3274 2.2367-12.686 0.28428-3.5707 0.15061-7.2972 1.941-10.531 1.1647-5.5565 0.39212-11.375 1.6498-16.931 1.9695-10.766 4.6973-21.525 4.3919-32.56-0.13323-21.119 2.0224-42.301 7.3249-62.765 3.7409-15.407 8.0477-31.144 6.3772-47.157-0.78695-7.1944-1.2317-14.497-2.9975-21.533-1.723-5.0101-1.343-10.471-2.4209-15.648-0.72534-3.8243-0.68587-7.7387-1.0411-11.588-0.88819-2.6728-4.4282-2.4784-6.654-3.1402-4.2346-0.862-8.472-1.7221-12.818-1.3484-3.8309 0.01407-7.6617 0.02813-11.493 0.0422zm-25.171 28.005c17.675 0.87384 35.387 1.7465 53.032 2.7523 0.64286 1.11-1.3329 0.63377-1.8466 0.72819-7.6312-0.20185-15.332-1.0321-22.913-1.0286-1.0767 7.8963-1.0791 15.922-1.799 23.854-0.01 0.8566-1.133 0.61975-0.76846-0.21126 0.28345-7.8439 0.98768-15.733 1.5059-23.567-3.597-0.6902-7.502-0.51392-11.212-0.85616-5.897-0.39935-11.872-0.51738-17.731-0.97785-0.46816-1.1178 1.2725-0.57837 1.7323-0.6932z" fill="url(#linearGradient1860)" stroke-width=".017991"/>
    <path d="m96.551 36.622c-0.42939-0.0612-0.98655 0.21581-0.88533 0.72008 0.03672 0.47938 0.63229 0.42452 0.97659 0.46448 6.3086 0.43428 12.636 0.60268 18.937 1.0506 3.0381 0.17651 6.0832 0.159 9.078 0.69363-0.52439 7.711-1.1606 15.423-1.4983 23.141-0.0327 0.38909-0.15464 0.9221 0.28942 1.1321 0.46868 0.26701 0.94102-0.25276 0.91194-0.71611 0.59553-6.7559 0.71191-13.551 1.3854-20.292 0.11838-1.1028 0.23286-2.2065 0.38338-3.3055 4.1851 0.02332 8.3547 0.25324 12.532 0.51748 3.7719 0.20866 7.5443 0.48655 11.323 0.50053 0.38325 0.01069 0.93785 0.0013 1.0172-0.48396 0.10016-0.29443-0.0958-0.65405-0.43404-0.62309-3.5638-0.28462-7.1384-0.42041-10.707-0.63133-14.017-0.74934-28.036-1.4688-42.057-2.1348-0.41757-0.01565-0.83532-0.03405-1.2533-0.03283z" fill="#ff8080" stroke-width=".0031803"/>
    <path d="m127.73 8.5105c-2.5793 0.22935-5.393-0.29291-7.8437 0.59615-0.16128 1.1338 1.9024 0.96045 2.5919 1.3686 0.91305 0.36515 2.454 0.79221 2.7088 1.7607-0.54413 0.74348-0.0186 1.8778-0.87144 2.5919-0.58008 1.3056 1.4601 1.2618 2.1232 1.5079-0.0203 3.1566-0.71471 7.1318-3.87 8.6293-0.91225 0.87563-2.2429 1.2986-2.7147 2.5642-1.2333 1.276-2.5883 2.5486-4.4431 2.7272-3.1443 1.5746-6.6483-0.13491-9.619-1.3507-0.44206-0.34234-1.0954-0.93712-0.50438-1.3739 0.33007-1.2028-1.7384-0.87786-1.3131-2.1436-0.14221-3.027 0.276-6.1816 1.3963-8.9766 0.0457-1.3609 0.4684-2.7291 1.0662-3.8971 1.5644-2.1188 4.1721-2.8047 6.6646-2.9121 0.84617 0.0519 0.96564-1.0651 0.0363-0.89456-6.4488 0.07445-13.821 0.23637-18.796 4.9455-0.65316 2.0877-0.37467 4.4373-1.0216 6.5804-1.4743 7.8414-4.8366 15.243-5.4378 23.274-0.95001 10.679-1.3774 21.541 0.25103 32.161-0.15747 0.71281-0.0279 1.4417 0.74998 1.4643-0.37487 0.79777 0.73485 0.94863 0.2852 1.7713 0.3092 0.50183 0.50719 0.79748 0.33406 1.465 1.2862 2.1085 1.931 4.7353 2.9728 7.0627 0.78768 2.4393 2.0893 4.6779 2.7813 7.1461 1.3954 3.2678 2.9121 6.5015 4.0167 9.8749-0.1282 0.58562 0.45935 0.67112 0.48854 1.2451 0.97574 0.45644 0.27131 2.3692 1.2398 2.4401 0.0119 0.74651 0.96124 0.90161 0.60077 1.7482 0.5125 0.29215 0.28695 0.85367 0.74338 1.2656-0.25203 0.63796 0.51439 0.70487 0.42648 1.3811 0.88573 0.4877 0.32018 1.9885 1.2576 2.2169-0.0301 1.1383 1.3126 2.0647 1.1573 3.369 0.0858 0.93207 0.83508 1.3937 0.98566 2.1186 0.78288 0.19935-0.10156 1.9553 0.91239 2.0367-0.14582 0.68954 0.65829 0.70654 0.34594 1.4161 0.92447 0.52705 0.26612 2.1873 1.3719 2.4401-0.12573 0.51943 0.0865 1.1868 0.47863 1.6445 0.0331 0.82706 0.21521 1.8383 0.42715 2.4883 0.0766 0.53045 0.72275 0.76031 0.4958 1.4755 0.37219 1.8911 0.63251 3.9854 1.7726 5.5812-0.35237 0.66473-0.26608 2.8691 1.1078 2.5694 0.63964 0.091 2.0477 0.22881 2.1984 0.52552-1.2027-0.3823-2.9738 0.84245-1.8505 2.0393 0.33744 0.29099-0.50236 0.69321-0.39018 1.0722-0.94676 1.152-0.37491 3.4993 1.3468 3.6033 0.91997 0.39888-1.5-0.5358-1.8221 0.36443-0.83101 1.2917 0.87681 2.0879 1.9614 1.933 1.7886-0.0479 0.56933 0.22064-0.50925 0.31546-0.88722-0.14757-1.9591-0.10049-2.1573 1.0208-1.4653 4.8002-3.1546 9.6286-3.7941 14.616 0.24185 0.57801-0.83135 0.80544-0.44034 1.6029 0.32887 0.82698-1.1834 0.60369-0.6932 1.6003 1.2296 1.7746 0.23931 4.259 1.0353 6.252 0.3628 0.94639 0.19981 2.7375 1.4154 2.8784 0.84953 1.1445 0.0783 2.9995 1.1322 3.9196-0.6596 1.6418-0.9024 3.7345-0.25682 5.3832 0.60029 1.3197 0.14732 3.2324 0.0528 4.7798-0.39447 0.7756 0.0539 1.7161-0.42714 2.4922-0.0584 1.7906 0.57144 3.7124-0.6615 5.2604-0.3318 1.3677-1.5125 3.0826-0.71103 4.422 0.59124 0.18007 1.2681-0.36955 1.2029 0.61859 0.15315 0.79225 0.99294 1.0918 1.5409 1.3468-0.16849 0.98536-1.4829 1.7115-0.65821 2.8401 0.7051 1.114 0.65018 2.3098-0.11817 3.3419-0.51584 0.93745 0.35282 1.9117 0.27068 2.7292-0.96744 0.50025-1.565 1.567-0.80214 2.5457 0.14941 0.77465 0.95754 1.4175 1.1236 2.0842-0.70672 0.9131-1.1472-1.1524-1.5462-1.5244-0.26217-0.95889-1.494-2.7721-2.5298-1.6188-0.88083 1.2247-0.95764 2.9429 0.441 3.8251 0.5021 0.54517 1.2974 1.377 1.4927 1.8545-0.54701-0.45722-2.362-1.943-2.3952-0.42581 1.9228 4.112 7.0781 5.805 11.336 5.3944 1.5352-0.64431 2.6835-2.0038 2.1399-3.7681-0.29345-6.9124-0.19489-13.873 1.975-20.495 1.5238-5.7874 3.1991-11.586 4.2866-17.457-0.38759-1.2087-1.7779-0.51312-1.7957 0.51627-0.20572 0.86101-0.14544 0.7189-0.67801 0.32085-1.1321 0.2689-0.83558 2.0017-1.1151 2.7398-0.43505-1.7664 0.10209-3.959 1.0794-5.3112 0.64705 1.6323 3.5768 0.76699 3.1874-1.0484-2e-3 -1.5654-1.4348 0.1877-2.1727 0.072-0.95136-2.4581-0.33048-5.3217-0.47458-7.9201 0.0349-1.2482-0.1151-2.5161 0.81062-3.4153 0.76222-2.0744 0.27137-4.3681 1.4881-6.3101 0.72004-0.99368 0.25866-2.2494 0.74008-3.2376 0.66369-0.54407 0.4398-1.5815 1.4049-1.6993 1.6631-2.0841 1.5458-5.1541 1.185-7.5598 0.46028-1.2155 0.61384-2.5469 1.8338-3.3369 2.23-2.2554 4.1647-5.2145 3.7586-8.5075-0.01-2.3199 1.403-4.6507 0.78365-6.9307-0.44088-0.64538 0.32146-1.9367-0.38291-2.6903-3.1983-15.675-8.024-31.016-10.611-46.82-1.0561-5.7278-2.01-11.989-6.3389-16.285-0.34188-0.20962-1.1168-1.8834-0.23174-1.1474 2.2866 1.898 3.6194 4.5852 5.238 6.9815 1.8752 0.70711 2.8541-1.8863 4.2114-2.6975 1.0838-0.62928 2.3598-2.0158 3.6574-1.768-0.0695 1.1931-1.9532 1.2159-2.6282 2.0611-3.0623 1.9747-4.5046 5.7717-3.7433 9.3047 3.2606 19.389 9.0272 38.272 12.755 57.537 1.1028 0.5961 1.3568-1.3938 1.1124-2.0604 0.77417-6.7438 2.8864-13.249 3.7545-19.983 1.386-5.8515 0.55388-11.912 0.90167-17.862 0.33746-7.7615-0.25893-15.651 0.93563-23.31 0.43078-0.9248 0.57133-1.9645 0.82062-2.9075 0.81341-0.13741 1.167-1.0748 2.1951-0.66943 1.9701 0.32452 1.275 3.0668 1.5184 4.449 0.4299 8.7472-1.036 17.439-1.1537 26.186-0.68115 6.6584-1.325 13.382-2.9824 19.889-1.7372 4.4646-1.6912 9.3838-2.8996 14.003-0.80407 3.2792-1.6172 6.5685-2.1192 9.9345-0.43887 0.64445-0.64622 1.654-1.29 2.077-0.45691-0.59912-0.22285-2.7116-1.5356-2.1601-1.2211 2.7501-1.8476 5.7878-3.0936 8.5772-2.3573 5.486-4.1389 11.22-4.6992 17.187-1.1666 8.2034-3.2847 16.251-4.4946 24.438-0.64165 0.46205-0.58816 1.9813 0.21126 2.0776 0.0937 3.0346-0.34971 6.3009 0.14854 9.2618-0.44317 4.8923-0.96746 9.893 0.14261 14.757 0.36752 1.6131-0.62387 3.0911-0.83514 4.5778 0.2176 0.20685-0.93625 0.61244-0.93813 1.2002-0.2852 0.97957-1.6394 2.3378-0.87806 3.3076 1.0998-0.39384 1.6293 0.96032 2.582 1.1243-1.1307 0.91899-2.1102-1.3014-3.0672-0.57766-1.2012 4.949-0.95512 10.28 0.41791 15.167 0.0187 1.0581 2.1744 1.9068 1.7852 0.32416-0.18941-0.64446 0.95574-0.4439 0.7196-1.2405-0.3954-1.3081 2.24 0.0271 1.6828-1.3798-0.38879-0.73498-2.2375-1.0556-0.78958-1.6861 0.74855-0.41338 0.15748-0.86012 0.0151-1.2986-0.0236-0.45432 0.46742-1.9539 0.75922-1.6505 0.3705 0.91347 1.3988 2.2096 2.4599 2.0433 0.87466-3.0089-2.644-4.7829-3.7604-7.1545 2.0608-0.0517 4.5234 0.10113 6.2269 1.3131 0.94218-0.31363 2.4344 0.85681 2.2427 1.6696-1.4886-0.27528-3.6008-0.5592-4.2701 1.251-0.48206 2.4784 1.7531 4.7734 4.2206 4.7289 2.2894 0.94476 2.3548-1.63 2.8876-3.2008 0.169-1.4146 1.402-3.2008 0.59089-4.5366-1.0819 0.34001-0.79624-1.2254-0.0337-1.4669 0.60161-0.84326 1.6821-2.6951 0.59549-3.4581-0.60364 0.0197-1.3 1.2992-0.91833 0.0343 0.67791-1.0018 1.6223-2.5367 1.0827-3.7056-1.2094-0.13634-2.0229 1.4322-2.889 1.7396-1.4219 0.28074-3.9894 1.4079-2.9761 3.2514-4e-3 0.4891 1.1814 1.283 0.84967 1.3402-1.4968-0.10294-2.0318-1.5712-1.7211-2.8421-0.13852-2.3673-3.1458-3.9359-3.6429-5.6954 0.29926 0.78468 1.3562 0.0237 1.2431 0.83053 0.83575-0.0866 1.7186 0.0477 2.4004 0.71762 1.0617 0.98325 2.8943-0.15136 2.1027-1.5198-0.35845-0.54783-0.86836-0.89481 0.0396-1.0345 1.0484-0.99509 1.6261-2.4219 2.6789-3.4758 1.5471-1.4795-1.1238-1.1502-1.9144-0.56454-0.60382 0.25806-1.4639 1.0791-1.7528 1.2167 0.16559-1.3167 1.8353-1.7604 2.2625-2.8408 0.93651 0.34617 1.4022-0.94963 0.86286-1.5382-0.31597-3.9321 1.1413-7.7473 1.4351-11.672 1.6594-11.619 2.7421-23.386 1.8586-35.122 0.56757 0.15928 2.4213 0.0556 1.5217-0.90248-0.41468-0.45888-1.5503-1.2043-1.5191-1.4029 1.1425 0.66948 2.4874 1.5007 2.6777 2.8335 0.5289 4.1166-0.18528 8.5238-0.21094 12.753-0.58 10.804-2.0734 21.535-3.2036 32.283 0.11228 0.94696-1.5101 2.1612-0.61662 2.8916 1.1175-0.46796 0.29669 1.093 0.136 1.6353-0.23853 0.52345-1.1876 1.6713-0.14656 1.8268-0.22546 1.3298-2.4148 2.1679-1.834 3.5597 1.1362 0.42307 1.7033-1.352 2.8566-1.1441 1.2339-1.4281 1.9273-3.4826 2.1014-5.3376-0.82793-0.5475 0.23533-1.9275 0.0117-2.8556 0.0386-8.8334 2.495-17.45 3.787-26.119 1.2636-3.4584 1.0448-7.332 1.4354-10.973 0.1006-4.4693 0.72003-9.053-0.11238-13.466-0.63703-0.50619 0.74944-0.90028 0.35386-1.6914-0.88601-1.1765-0.21677-2.7992-0.8358-4.0839-0.96837-0.561 0.47906 0.19267 0.32679-0.65161-0.18612-0.86226-1.0647-1.8726 0.20862-1.2735 0.87795-0.58572-0.22943-2.1466 0.17429-2.8157 1.11 0.70038 1.3989-0.66332 0.99886-1.457-0.22804-0.90336 0.0897-2.5546-1.3019-2.4308-0.77231-0.39765-1.8154-1.6407-0.28058-1.1553 0.51554-0.47452 1.6383-0.22967 1.5805-1.2979 0.38961-4.1274 0.77489-8.3136 1.0913-12.402 0.76934-1.418 0.26243-3.2824 0.77836-4.8544 0.67146-4.9833 1.7996-9.8933 2.8025-14.816 0.12862-0.69668-0.38373-1.403 0.34659-1.663-0.19438-0.69388 0.13444-0.98285 0.32614-1.5739-0.27699-1.0084 0.68907-1.6626 0.44298-2.8032 0.27914-1.8915 1.6097-3.443 1.7759-5.4017 0.56468-3.6527 1.9474-7.1378 2.506-10.811 1.986-9.1358 3.5234-18.44 3.0449-27.823-0.13123-6.5317-0.89258-13.095-2.0109-19.488 0.39298-0.64168-0.0741-0.94384-0.36971-1.29-0.44738-1.3309-0.33662-2.7735-0.31227-4.0707-0.6751-0.23976-0.15073-1.3857-0.97906-1.8109-0.10102-2.3937-0.92074-4.7859-0.94767-7.2429-0.31019-5.0367-1.4665-9.9771-1.7512-14.99-1.1095-1.503-0.49853-3.7274-0.89258-5.469-1.866-1.9564-5.0011-1.7682-7.4551-2.4512-1.6816-0.18-3.7958-1.1778-5.14 0.33265-2.8418 0.94464-6.1264 0.71728-8.8908-0.38621 0.20512-0.78638-0.23633-1.5452-1.1778-1.3587-0.96237-0.04959-1.9266-0.016204-2.8896-0.011884zm9.7312 20.035c1.0998-0.18332 1.4231 0.66724 1.8875 1.3131 1.2606 0.60747 2.7677 0.96489 3.3696 2.3833 0.97943 0.48924 2.9961 1.283 1.7792 2.6216-0.96214 1.6034-3.3562 0.46983-4.867 0.87893-2.9691-0.0304-6.0911 0.19656-8.9152-0.75085-0.58535-0.70499-0.0798-1.2579 0.30171-1.8036 0.33329-1.0624 1.1486-1.9985 1.5752-2.994 1.6372-0.63478 3.0057-1.8855 4.8689-1.6485zm-41.95 5.0676c5.1569 0.92455 10.537 0.44739 15.745 1.2004 4.3733 0.58234 8.8006 1.035 13.136 1.7579-0.42277 0.46073-0.97519 1.604 0.12412 1.56 2.7041 0.09993 5.5874 0.68327 8.2187 0.09903 0.45437-0.81029 2.0951-0.19825 3.0085-0.37169 4.9453 0.31458 9.9984 0.42472 14.78 1.7086 0.86397 0.67815-0.25687 0.8419-0.75064 1.0312-0.54876 1.7943-0.4258 3.928 0.0522 5.7516 1.0188 1.3814 0.97255 3.2612 1.5746 4.859 0.4601 2.0409-2.3568 2.0456-3.6608 2.2783-6.5317 0.99478-13.151 1.2705-19.736 1.6874-1.0104 0.24251-2.0451 0.52384-2.8685-0.21324-1.1926 0.54012-0.44263 2.4756-0.68594 3.5214-0.0969 1.7219 0.0448 3.5389-0.60803 5.1732-0.72646-5.2887 0.39338-10.812 0.32746-16.198-2.1366-0.73-4.7129-0.31023-6.9966-0.63518-5.677-0.06469-11.085-2.3829-16.729-2.6235-0.92324 0.5368 1.0954 1.6753-0.2786 1.906-1.4476 0.60603-3.5911-0.04569-4.6814 1.1732 1.348 1.3324 3.6218 1.5801 5.3567 2.3537 4.4521 1.1382 8.6294 3.0332 13.013 4.3729 1.632 0.6395 3.3383 0.98441 5.0148 1.4504 0.92663 0.20914 2.4995-0.05617 3.0342 0.17495-4.3369 1.5781-9.1085 0.74409-13.542-0.01849-3.7776-0.57038-7.55-2.1545-11.394-1.8875-0.76297 1.1264 1.3113 1.7508 2.1641 1.838 1.2609 0.12089 2.0553 1.7072 3.2864 1.4359-1.2305 0.18452-3.5698 0.47864-2.718 2.3074 0.80739 1.4419 3.0415 1.0734 3.9631 2.5338 1.5397 2.959 1.5546 6.539 2.8764 9.5866 0.81679 3.845 2.5019 7.4634 3.3287 11.31 0.90028 2.5835 1.5262 5.2981 2.4143 7.8906 0.0407 1.3238 1.1267 2.2945 1.1001 3.6949 0.71483 3.4336 1.9098 6.6889 3.1713 9.9401 0.93633 2.972 2.0842 5.873 3.0646 8.8016 1.2883 2.7519 1.9032 5.7776 3.124 8.5686 0.0371 1.0698 0.41512 2.0854 0.27002 3.1584 1.3467 1.7024 0.80603 4.3517 1.6055 6.3613 0.62842 2.9352 2.557 6.2483 1.0709 9.1644-1.0263 1.2121-1.699-1.1587-2.5226-1.5468-2.6158-1.8275-3.914-4.9575-5.5093-7.6331-0.75843-2.2346-2.014-4.2612-2.582-6.5464-0.92988-2.0752-1.5866-4.2374-2.6985-6.2491-0.71897-2.4602-2.0407-4.7529-2.4582-7.3343-0.53041-2.5624-1.6977-4.9149-2.6447-7.307-0.27438-1.9394-0.56808-3.8921-1.2227-5.741-0.60535-2.829-1.4215-5.6612-2.1106-8.4352-0.55045-0.72756-0.38568-2.0037-1.0279-2.821-0.24284-0.7885 0.016-1.5715-0.48985-2.281-0.62337-2.1456-1.5845-4.2304-2.0684-6.3741-0.49976-0.39276 0.0111-1.4956-0.56711-2.0869-0.95859-1.7811-1.1713-3.9112-2.0954-5.6605-1.2801-1.8601-1.2884-4.2726-2.4004-6.2342 0.0348-1.3862-1.3352-2.567-1.1217-3.868 0.37052-0.55044 2.4812-0.71905 1.6023-1.4993-0.85758 0.16946-0.73291-0.23962-0.66217-0.82392-0.38272-0.55841-1.7767 0.06514-1.8386-0.29973 0.73674-0.45238 2.7344-0.02537 2.5602-1.2359-0.68454-0.66355-2.2408-0.1684-2.6916-0.64434 0.81687-0.8022-1.9493-1.0403-0.35188-1.4003 0.45117-0.4198 2.4075-0.09229 1.7858-1.0141-1.0069-0.41777-1.5605-0.503-0.32481-0.83514 0.47605-0.51407-0.95054-0.84152 0.27068-0.66019 0.59243 0.14028 2.6496 0.06734 1.6604-0.88795-1.6395-1.1353-4.4615-1.3397-5.2472-3.3604 0.44576-0.37771 2.2732 0.13178 1.6135-1.0477-1.1888-1.1961-0.03066-3.6437 1.7266-2.6678 1.5223 0.03229 3.5161 1.295 4.8383 0.19935 0.18003-0.96722-1.2867-0.34914-1.6848-1.0193-1.4504-0.77278-3.8537-0.29051-4.7395-1.8545-0.27496-0.82804 0.18551-1.9169 1.2029-1.5713 4.681 0.79947 9.3745 1.9165 14.037 2.6262 0.67113 0.55133 1.7123 0.31367 2.4018 0.8939 1.1166-0.36443-0.28792 0.94992 0.8061 1.2068 4.0373 1.9828 8.7153 2.0311 13.119 2.3093 0.66543-2.1565 0.48659-4.7892 0.61397-7.1459-0.95062-0.93544-2.8717-0.37355-4.1581-0.70358-4.8611-0.45839-9.8964 0.24992-14.639-0.65443-2.0384-0.79984-4.5506-0.19189-6.7452-0.41922-1.0006-0.23431-2.596 0.3268-3.3491-0.36046 0.03463-0.66417-0.04094-1.0549 0.84966-0.96256 1.064-0.42322 3.0602 0.28783 3.6198-0.91304-1.4529-0.95638-3.6237-0.22332-5.2934-0.50636-0.93102 0.23705-0.96124-0.58006-0.51561-1.1289 0.26893-0.14025 0.57717-0.19489 0.87805-0.204zm12.647 15.039c0.29748 0.29306-0.38288 0.15471 0 0zm43.253 5.8493c-0.43801 0.33002-0.94088 1.572 0.20731 1.5917 1.2776 0.08525-0.76085 0.82905-1.2874 1.0933-2.4604 0.97678-5.2588 1.7472-7.2588 3.4244-0.783-0.09744-3.0393 0.27454-2.0585 1.4339-0.38374 0.18002-2.7757 0.80887-1.5897 1.7079 0.56384 0.16897 2.7251 0.1506 1.1646 0.45685-3.2434 0.30091-6.6446 0.72474-9.8447 0.21126-0.56077-0.53943-2.0046-0.22739-2.211-0.53938 1.2508 0.18704 1.1884-1.6241 2.3991-1.4735 0.89446-0.68811 2.1376-0.69735 2.9359-1.4412 0.4878-0.8501 2.116 0.29012 2.4605-0.98566-0.023-1.6017-2.2058-0.63271-3.1385-0.64831-1.7386-0.09572-4.1389 1.0551-5.4083-0.54598 1.5179-1.7775 4.3094-1.182 6.3788-1.7224 5.1288-1.0145 10.363-1.185 15.497-2.139 0.58112-0.1508 1.1405-0.43046 1.7535-0.42384zm-4.7996 10.069c1.341 0.14871 3.3131-0.22908 4.2589 0.89852-0.50854 0.26291-0.4622 1.354-0.78432 1.3408-0.92828-0.22539-0.10294 1.0282-1.0332 1.1085-1.4069 0.97664-3.1663 0.62863-4.694 0.92096-0.22468 0.62319 9e-3 1.3125-0.68066 1.797-0.57888 1.8402-2.0065 3.0211-3.165 4.4926-0.58737 0.11685-1.0336 0.37552-0.7097 1.0794-0.71752-0.09988-1.0092 1.2491-1.7323 0.50702 0.22131-1.182-1.4795-0.09797-1.5066-1.2596-0.66968-1.7531-2.9796-1.3307-4.3744-2.0862 1.5113-0.42293 2.9138-1.1166 4.0338-2.2149 1.5947-0.89052 3.9986-0.33516 5.2333-1.7363-0.73932-0.96614-2.4519-0.0051-3.5218-0.35714-0.92811-0.05268-3.8544-0.21325-1.3578-0.48103 1.057-0.20768 2.5162-0.11643 3.0548-1.1827 2.7046-1.4077 5.9566-0.89224 8.7178-1.9621 0.29117-1.1196-1.6957-0.60224-2.3377-0.79091-1.0678-0.04791 0.42694-0.06758 0.5988-0.07394zm-27.022 0.30897c0.6196 0.1532 2.211 1.4186 0.72686 1.1296-0.65748 0.03389-0.88665-0.59352-0.72686-1.1296zm-5.9688 72.577c1.9196 0.0741 0.99641 0.12366 0 0zm16.64 3.1359c2.3364 0.63567 2.8665 4.8879 0.60473 5.9094-1.5812-0.70184-2.8359-2.5834-2.8269-4.319 0.3515-0.83734 1.2948-1.5789 2.2222-1.5904zm9.4348 12.172c2.0763 0.34735 0.4437 4.444-1.2174 2.8236-0.65376-0.48791-0.4771-1.0431 0.20466-1.3725 0.64415-0.36015 0.13109-1.5351 1.0127-1.4511zm-1.529 6.4368c0.41165 0.13392 1.3666 2.0477 0.62388 1.1329-0.20066-0.30968-0.74812-0.76052-0.62388-1.1329zm-3.0105 1.5013c0.48686 0.2221 1.0674 0.90893 1.0299 1.3164-0.37498-0.38581-0.82778-0.88123-1.0299-1.3164zm3.8766 3.7479c0.60167 0.35619 2.267 1.6455 0.83118 0.63577-0.17981-0.12396-1.3753-0.98697-0.83118-0.63577zm0.82259 2.2275c0.4388-0.0649 1.9741 0.87363 0.90446 0.66878-0.32089-0.19072-0.63418-0.42971-0.90446-0.66878zm-23.898 12.352c7e-3 0.79174-1.2203 0.51662-0.2337 0.0482-0.0362 0.11225 0.34191-0.27643 0.2337-0.0482zm-0.39281 1.9687c0.0537 1.0039 0.51622 2.6362-0.64171 3.1768 0.47227-0.9552-0.19215-2.4821 0.64171-3.1768zm9.8824 45.667c-0.30556 0.39203-0.0807 6e-3 0 0zm6.3886 12.717c0.51742-0.0268 2.0377 0.80218 0.82788 0.9817-0.55916 0.0476-0.90754-0.52247-0.82788-0.9817z" fill="url(#linearGradient1852)" stroke-width=".017991"/>
    <path d="m125.9 39.187c-0.45072 5.1226-1.2048 10.284-1.0629 15.421 0.41956 1.2073 2.7386 1.5643 3.0554 0.1941-0.38115-0.30739-1.8167-0.14842-0.98104-0.95529 1.5946-1.4106 4.8845-0.4781 5.4618-3.0494 0.30911-0.78113 0.33124-2.0504-0.77044-2.1417 2.941-0.86584 6.2269-1.2317 8.7264-3.0963-1.9258-0.93163-4.8028 0.11725-6.7947-1.0906-0.88652-0.57318-1.281-2.1821 0.0951-2.3523 0.96286-0.03027 1.3551-0.86014 2.2156-0.94473 0.8937-0.74651-0.72052-1.1208-1.0728-1.1837-0.47942-0.98453-2.2464-0.34551-3.1656-0.5876-1.8763 0.13523-3.9668-0.45388-5.7067-0.21388z" fill="#f55" stroke-width=".017991"/>
   </g>
   <g fill="none" stroke-width="1px">
    <path transform="matrix(1.0668 0 0 1.0668 -5.7417 -1.9381)" d="m93.208 14.579c1.2485-1.1933 2.6926-2.1813 4.2571-2.9127 3.328-1.5559 7.0824-1.9137 10.755-2.0165 4.3303-0.12126 8.664 0.079977 12.995 0 5.1216-0.094571 10.272-0.58074 15.348 0.11203 2.7075 0.36956 5.3607 1.0712 8.066 1.4564 0.87928 0.12518 1.769 0.218 2.6175 0.48038 0.8485 0.26238 1.6673 0.71322 2.1997 1.4241 0.47999 0.6409 0.69315 1.445 0.7842 2.2406 0.15725 1.3739-0.0189 2.7624 0 4.145 0.0409 2.9871 0.98797 5.8841 1.3443 8.8502 0.42395 3.5286 0.0281 7.2294 1.3443 10.531 0.17981 0.45098 0.39016 0.88957 0.56015 1.3443 0.48081 1.2862 0.62784 2.6688 0.78419 4.033 0.83348 7.2728 2.0433 14.526 2.1285 21.846 0.0939 8.0673-1.1818 16.094-2.9127 23.974-2.2042 10.035-5.1517 19.908-6.9458 30.024-1.1764 6.6332-1.8519 13.344-2.4646 20.053-0.50038 5.4785-0.95996 10.967-1.0083 16.468-0.0472 5.3802 0.29851 10.777-0.22405 16.132-0.17956 1.8401-0.46122 3.669-0.7842 5.4894-1.5733 8.8676-4.14 17.657-4.033 26.663 0.0189 1.5856 0.11307 3.2221-0.44811 4.7052-0.33718 0.8911-0.89778 1.6846-1.2323 2.5766-0.33073 0.88197-0.43035 1.8341-0.45077 2.7759-0.0204 0.94171 0.0354 1.8842 3e-3 2.8256-0.0458 1.3154-0.26413 2.6177-0.44811 3.921-0.22859 1.6193-0.40701 3.2568-0.89623 4.8172-0.17665 0.56345-0.39306 1.1141-0.56014 1.6804-0.47975 1.6262-0.54276 3.3485-0.44811 5.0413 0.0225 0.40286 0.0538 0.80709 0.0206 1.2092s-0.13448 0.8066-0.35669 1.1434c-0.30337 0.45977-0.8114 0.75695-1.3443 0.89623-0.98884 0.25843-2.0316 0.0172-3.0248-0.22406-2.7636-0.67123-5.527-1.3434-8.2901-2.0165"/>
    <path transform="matrix(1.0668 0 0 1.0668 -5.7417 -1.9381)" d="m120.54 234.27c-0.51571-1.5682-0.89112-3.1824-1.1203-4.8172-0.28578-2.0386-0.34388-4.1065-0.22405-6.1616 0.16473-2.8252 0.68342-5.6818 2.0165-8.1781 0.51249-0.95967 1.1461-1.87 1.4564-2.9127 0.42011-1.412 0.20748-2.931-0.11202-4.3691-0.21462-0.96604-0.47674-1.9267-0.56015-2.9127-0.1679-1.985 0.39436-3.9524 0.56015-5.9375 0.14624-1.751-0.0168-3.5108-0.11203-5.2653-0.23757-4.3772-0.0508-8.7837 0.67217-13.107 0.71162-4.2554 1.9377-8.4105 2.6887-12.659 0.84497-4.7802 1.0903-9.6839 2.4646-14.34 1.0312-3.4933 2.6768-6.7713 3.921-10.195 1.3054-3.5919 2.1705-7.3813 2.1285-11.203-0.0358-3.2544-0.72514-6.4631-1.4564-9.6344-3.2206-13.968-7.3182-27.752-9.6344-41.899-0.56661-3.4606-1.0404-6.9902-2.4646-10.195-1.0607-2.3865-2.6385-4.5416-4.5932-6.2736"/>
    <path transform="matrix(1.0668 0 0 1.0668 -5.7417 -1.9381)" d="m129.06 66.896c-1.52 0.41084-2.9272 1.2317-4.033 2.3526-1.6284 1.6507-2.5748 3.9549-2.5766 6.2736"/>
    <path transform="matrix(1.0668 0 0 1.0668 -5.7417 -1.9381)" d="m120.77 70.593c0.25607 0.39049 0.66573 0.67726 1.1203 0.7842 0.31964 0.0752 0.6594 0.063 0.97283-0.03495 0.31342-0.09795 0.59967-0.28137 0.81962-0.52519"/>
    <path transform="matrix(1.0668 0 0 1.0668 -5.7417 -1.9381)" d="m123.34 179.26c-0.73562 3.3068-1.5575 6.5945-2.4646 9.8585-1.0784 3.8805-2.2829 7.7559-2.6887 11.763-0.30523 3.0142-0.1528 6.0563 0.11203 9.0743 0.0574 0.65423 0.12012 1.3122 0.0647 1.9666-0.0554 0.6544-0.23661 1.3127-0.62487 1.8424-0.26904 0.36704-0.63081 0.66203-1.0334 0.87425-0.40256 0.21223-0.84531 0.34319-1.2956 0.40941-0.90048 0.13245-1.8186 9e-3 -2.7123-0.16337-1.4506-0.27931-2.8886-0.69122-4.1903-1.3898s-2.4662-1.6993-3.2036-2.9793c-0.50817-0.8821-0.80603-1.895-0.7842-2.9127 0.0186-0.86662 0.26419-1.7128 0.33609-2.5766 0.12724-1.5287-0.29186-3.0698-0.11203-4.5932 0.18615-1.577 1.0007-3.0222 1.2323-4.5932 0.18032-1.223 2e-5 -2.4658-0.11203-3.6969-0.14573-1.6011-0.17556-3.2102-0.22406-4.8172-0.28777-9.5345-1.2318-19.14 0.22406-28.567 0.71666-4.6405 2.0069-9.1714 3.3608-13.667 0.64148-2.1301 1.3024-4.2784 1.4564-6.4976 0.17515-2.5236-0.31197-5.0446-0.89623-7.5059-2.008-8.4592-5.1836-16.6-8.7382-24.534-5.5966-12.493-12.248-24.85-14.004-38.426-0.71461-5.5265-0.59371-11.126-0.33608-16.692 0.26666-5.7618 0.6846-11.556 2.1285-17.14 0.99415-3.8448 2.4668-7.5576 3.3608-11.427 0.62785-2.7174 0.96645-5.5015 1.0083-8.2901"/>
    <path transform="matrix(1.0668 0 0 1.0668 -5.7417 -1.9381)" d="m94.59 39.184c10.272-1.2786 20.662-1.6026 30.993-0.96652 7.7181 0.47522 15.403 1.4856 22.982 3.0215"/>
    <path transform="matrix(1.0668 0 0 1.0668 -5.7417 -1.9381)" d="m123.01 38.217c-0.41101 3.8767-0.74718 7.7613-1.0083 11.651-0.26291 3.9169-0.44967 7.8388-0.56014 11.763"/>
   </g>
  </g>
 </g>
</svg>
