<?xml version="1.0" encoding="UTF-8"?>
<svg cursor="default" enable-background="new" version="1.1" viewBox="0 0 256 256" xmlns="http://www.w3.org/2000/svg" xmlns:cc="http://creativecommons.org/ns#" xmlns:dc="http://purl.org/dc/elements/1.1/" xmlns:rdf="http://www.w3.org/1999/02/22-rdf-syntax-ns#" xmlns:xlink="http://www.w3.org/1999/xlink">
 <metadata>
  <rdf:RDF>
   <cc:Work rdf:about="">
    <dc:format>image/svg+xml</dc:format>
    <dc:type rdf:resource="http://purl.org/dc/dcmitype/StillImage"/>
    <dc:title/>
   </cc:Work>
  </rdf:RDF>
 </metadata>
 <defs>
  <linearGradient id="innoGrad2">
   <stop stop-color="#f55" offset="0"/>
   <stop stop-color="#ff8080" offset="1"/>
  </linearGradient>
  <linearGradient id="innoGrad3">
   <stop stop-color="#f55" offset="0"/>
   <stop stop-color="#ff8080" offset=".105"/>
   <stop stop-color="#ff8080" offset=".777"/>
   <stop stop-color="#f55" offset="1"/>
  </linearGradient>
  <linearGradient id="linearGradient2228" x1="148.13" x2="156" y1="42.357" y2="42.357" gradientUnits="userSpaceOnUse">
   <stop stop-color="#f55" offset="0"/>
   <stop stop-color="#ff2a2a" offset="1"/>
  </linearGradient>
  <linearGradient id="linearGradient1901" x1="106.84" x2="184.89" y1="216.76" y2="216.76" gradientUnits="userSpaceOnUse" xlink:href="#innoGrad2"/>
  <linearGradient id="linearGradient1909" x1="86.87" x2="146.16" y1="133.82" y2="133.82" gradientUnits="userSpaceOnUse" xlink:href="#innoGrad2"/>
  <linearGradient id="linearGradient1917" x1="82.217" x2="137.42" y1="37.986" y2="37.986" gradientUnits="userSpaceOnUse" xlink:href="#innoGrad2"/>
  <linearGradient id="linearGradient2103" x1="72.423" x2="109.34" y1="209.09" y2="209.09" gradientUnits="userSpaceOnUse" xlink:href="#innoGrad2"/>
  <linearGradient id="linearGradient2327" x1="142.77" x2="181.13" y1="111.74" y2="111.74" gradientUnits="userSpaceOnUse" xlink:href="#innoGrad2"/>
  <linearGradient id="linearGradient2335" x1="156.22" x2="172.66" y1="55.597" y2="55.597" gradientUnits="userSpaceOnUse" xlink:href="#innoGrad2"/>
  <linearGradient id="linearGradient2343" x1="153.86" x2="166.67" y1="45.002" y2="45.002" gradientUnits="userSpaceOnUse" xlink:href="#innoGrad2"/>
  <linearGradient id="linearGradient2351" x1="150.16" x2="157.68" y1="27.509" y2="27.509" gradientUnits="userSpaceOnUse" xlink:href="#innoGrad2"/>
  <linearGradient id="linearGradient2359" x1="149.59" x2="161.68" y1="37.045" y2="37.045" gradientUnits="userSpaceOnUse" xlink:href="#innoGrad3"/>
  <linearGradient id="linearGradient2367" x1="132.72" x2="148.97" y1="62.702" y2="62.702" gradientUnits="userSpaceOnUse" xlink:href="#innoGrad3"/>
  <linearGradient id="linearGradient2375" x1="134.99" x2="149.3" y1="51.257" y2="51.257" gradientUnits="userSpaceOnUse" xlink:href="#innoGrad3"/>
  <linearGradient id="linearGradient2383" x1="137.01" x2="149.72" y1="38.336" y2="38.336" gradientUnits="userSpaceOnUse" xlink:href="#innoGrad3"/>
  <linearGradient id="linearGradient2391" x1="148.06" x2="156.17" y1="19.274" y2="19.274" gradientUnits="userSpaceOnUse" xlink:href="#innoGrad3"/>
  <linearGradient id="linearGradient2399" x1="139.07" x2="146.01" y1="19.551" y2="19.551" gradientUnits="userSpaceOnUse" xlink:href="#innoGrad3"/>
  <linearGradient id="linearGradient2407" x1="144.13" x2="153.96" y1="17.663" y2="17.663" gradientUnits="userSpaceOnUse" xlink:href="#innoGrad3"/>
 </defs>
 <g fill="#ffd5d5">
  <path d="m125.8-66.918c0.19113-0.13799 0.36408-0.30229 0.53601-0.46375 0.14221-0.10162 0.26069-0.22783 0.40714-0.32395 0.16197-0.1145 0.35231-0.17689 0.51665-0.28607 0.19959-0.09748 0.38503-0.22094 0.58248-0.32348 0.16429-0.1074 0.34952-0.17162 0.51877-0.26764 0.14546-0.05932 0.27793-0.1424 0.42003-0.20938 0.12023-0.08121 0.24331-0.16517 0.378-0.22069 0.11434-0.06734 0.23138-0.13631 0.3565-0.18236 0.11722-0.09046 0.2551-0.14972 0.3702-0.24206 0.12005-0.09046 0.26297-0.14524 0.38556-0.22991 0.0832-0.03548 0.15839-0.08157 0.23866-0.12261l-0.11422 1.0484c-0.0771 0.04202-0.15789 0.07632-0.23389 0.12041-0.12825 0.06313-0.2543 0.13186-0.37378 0.21041-0.13283 0.08533-0.25518 0.18803-0.3953 0.26009-0.11865 0.05795-0.23519 0.12005-0.35306 0.17953-0.12646 0.065-0.24907 0.13719-0.37221 0.20819-0.1363 0.07532-0.27366 0.14348-0.42109 0.19516-0.17679 0.07013-0.34407 0.15971-0.51427 0.24448-0.19875 0.0963-0.38624 0.21057-0.57564 0.32339-0.17845 0.09301-0.3488 0.19995-0.51187 0.31788-0.13309 0.10018-0.25447 0.21623-0.39786 0.30275-0.19966 0.13825-0.38689 0.29452-0.53694 0.48733l0.0901-1.0262z"/>
  <path d="m120.85-66.835c0.0444-0.58608 0.20712-1.1269 0.35945-1.6828 0.0426-0.17144 0.1709-0.29008 0.25244-0.43939 0.0908-0.12969 0.22965-0.20993 0.36355-0.28833 0.11481-0.09222 0.21597-0.20065 0.34376-0.27466 0.11691-0.08744 0.24277-0.16205 0.3659-0.24035 0.12401-0.06714 0.24427-0.13918 0.3693-0.20488 0.12704-0.04094 0.21978-0.13815 0.33958-0.19322 0.13016-0.05459 0.26091-0.10723 0.39545-0.15359 0.14758-0.07245 0.30124-0.12868 0.44917-0.20449 0.17264-0.07193 0.33051-0.17437 0.50194-0.24755 0.12905-0.04661 0.24417-0.11976 0.37097-0.17224l-0.12165 1.0114c-0.12107 0.04466-0.24065 0.09361-0.35806 0.1472-0.16553 0.09957-0.33096 0.19871-0.50549 0.28211-0.15026 0.07766-0.31182 0.12952-0.46037 0.21079-0.12918 0.05722-0.25712 0.11707-0.38583 0.17521-0.11047 0.06853-0.21729 0.14262-0.33882 0.1916-0.11929 0.06619-0.24306 0.12408-0.36002 0.19469-0.12268 0.08035-0.24608 0.15912-0.36658 0.24273-0.11993 0.08554-0.2223 0.19376-0.34622 0.27334-0.12488 0.07823-0.24168 0.15534-0.31459 0.28895-0.0894 0.12685-0.17877 0.2506-0.22355 0.40223-0.12757 0.38943-0.33775 1.4102-1e-3 -0.2908 0 0-0.32924 0.97202-0.32924 0.97202z"/>
  <path d="m116.69-60.997c-8e-3 -0.27892-0.0422-0.55612-0.0636-0.83416-0.0144-0.19126-0.0178-0.38306-0.0196-0.57478-3e-3 -0.19291 3e-3 -0.38573 3e-3 -0.57862-8e-3 -0.19185 1e-4 -0.38068 0.0301-0.57012 0.0312-0.17479 0.0437-0.35181 0.0508-0.52895 5e-3 -0.17638 5e-3 -0.35287 5e-3 -0.52932-0.0259-0.5256 0.0959-0.96293 0.19265-1.5112 5e-3 -0.02456 7e-3 -0.04987 0.0151-0.07367 0.0151-0.04588 0.042-0.08718 0.0589-0.13241 0.0252-0.06716 0.0376-0.13421 0.0653-0.20071 0.0986-0.12572 0.1407-0.27044 0.16332-0.4256-0.56284 3.1388 0.46621-2.5482-0.0863 0.55712 0.25734-0.39361 0.0866-1.0068 0.31962-1.4368 0.0806-0.16312 0.12873-0.34032 0.20621-0.50422 0.0611-0.14307 0.0859-0.29579 0.17526-0.42547 0.0814-0.11955 0.14631-0.24728 0.21101-0.37658 0.0908-0.10021 0.18811-0.19153 0.26557-0.30395 0.0752-0.06626 0.0866-0.17006 0.14547-0.2469 0.0299-0.03903 0.0664-0.07265 0.0969-0.11123 0.10869-0.07863 0.17624-0.18992 0.26088-0.28912 0.0619-0.11825 0.17487-0.1924 0.2583-0.29231 0.0973-0.11774 0.22929-0.19974 0.32915-0.3144 0.10773-0.11992 0.25125-0.19223 0.37742-0.28705 0.12143-0.07475 0.24236-0.15575 0.3517-0.24773 0.12999-0.07679 0.25194-0.16251 0.37874-0.24426 0.14604-0.08205 0.26276-0.2007 0.39206-0.30424 0.0893-0.06275 0.19297-0.08278 0.29835-0.09911l-0.14198 1.0279c-0.0899 0.02274-0.17662 0.05023-0.25004 0.10976-0.13004 0.1024-0.26926 0.19199-0.39861 0.2952-0.12313 0.08901-0.254 0.16632-0.3758 0.25725-0.12169 0.08038-0.23167 0.17662-0.35817 0.24985-0.12738 0.07281-0.24883 0.15756-0.35054 0.2642-0.11 0.11066-0.22164 0.21976-0.32804 0.33395-0.0909 0.09692-0.1768 0.19793-0.25361 0.30653-0.0767 0.104-0.17409 0.18662-0.26148 0.28128-0.0947 0.11298-0.14905 0.24957-0.24035 0.36545-0.0832 0.09657-0.17878 0.18364-0.24671 0.29129-0.072 0.12893-0.13739 0.26141-0.21607 0.38664-0.0614 0.1304-0.0975 0.27023-0.16246 0.39914-0.0692 0.16698-0.13273 0.33632-0.20505 0.50204-0.13125 0.38871-0.25925 1.2156 0.057-0.56814-0.0629 0.36254-0.12473 0.72529-0.18882 1.0876-8e-3 0.04401-0.0245 0.10434-0.0357 0.14775-6e-3 0.0232-0.0216 0.0933-0.0177 0.06966 4e-3 -0.02311 0.46746-2.7256-0.0262 0.1518-0.0374 0.15385-0.10712 0.28896-0.17821 0.42928-0.0398 0.13792-0.10051 0.26883-0.12475 0.41076 0.0541-0.3123 0.10996-0.62429 0.16224-0.93689 5e-3 -0.02782-0.0162 0.05434-0.0194 0.08236-0.0131 0.11632 0.0103 0.23678 4e-4 0.35345 2.2e-4 0.1768 8.6e-4 0.35361-2e-3 0.53039-4e-3 0.18005-0.011 0.36049-0.0401 0.53857-0.0324 0.19299-0.0665 0.38219-0.0503 0.57937-1e-5 0.18722 5e-3 0.37436 2e-3 0.56158-8.3e-4 0.20509-2e-3 0.41022 2e-3 0.61529 7e-3 0.26144 0.0104 0.52738 0.0721 0.78264l-0.30497 0.9799z"/>
  <path d="m108.85-91.646c0.23117-0.03403 0.45037-0.15603 0.64236-0.28693 0.15619-0.108 0.32335-0.19766 0.47698-0.30751 0.12875-0.09908 0.26113-0.18233 0.41072-0.24778 0.1327-0.08249 0.26417-0.16436 0.39515-0.24896 0.14616-0.08444 0.28946-0.17053 0.43193-0.26043 0.11886-0.10848 0.25624-0.19514 0.39074-0.28286 0.12926-0.11898 0.26959-0.22626 0.41095-0.33005 0.13551-0.09077 0.26887-0.18348 0.40245-0.2777 0.13575-0.11526 0.25915-0.24402 0.40211-0.35183 0.0913-0.09669 0.20725-0.16717 0.27054-0.28672 0.0964-0.10344 0.18158-0.21481 0.27209-0.32348 0.11927-0.11582 0.22739-0.24393 0.35215-0.35383 0.0802-0.11362 0.1979-0.18135 0.30135-0.2681 0.019-0.01151 0.0371-0.02451 0.057-0.03452 0.0593-0.02996 0.0675-0.0182 0.11552-0.06238 0.0501-0.04611 0.0814-0.08415 0.14206-0.12033 0.0888-0.09243 0.20435-0.14792 0.30326-0.22613 0.0932-0.0496 0.16266-0.12989 0.24579-0.19321l-0.0936 1.0544c-0.0796 0.07006-0.16361 0.13468-0.25317 0.19167-0.10721 0.06783-0.20161 0.15166-0.30424 0.22607-0.0991 0.08048-0.19922 0.15309-0.30975 0.21748-0.10682 0.07396-0.1961 0.16676-0.29148 0.25459-0.11826 0.10895-0.24209 0.21519-0.33366 0.34868-0.0864 0.11679-0.18519 0.22412-0.26767 0.34407-0.0884 0.10155-0.19549 0.18451-0.30231 0.26594-0.14015 0.10439-0.27227 0.21622-0.40044 0.3351-0.13038 0.10365-0.27151 0.19046-0.40541 0.28913-0.14034 0.09983-0.27729 0.20303-0.41076 0.31196-0.13303 0.09964-0.25716 0.21104-0.39867 0.2988-0.14533 0.08621-0.29466 0.16621-0.43054 0.26741-0.13305 0.08447-0.26748 0.1677-0.40673 0.24145-0.1363 0.0729-0.26356 0.15989-0.39675 0.23808-0.15964 0.09403-0.31528 0.19501-0.47781 0.28409-0.21554 0.11549-0.46179 0.17044-0.66026 0.31988l0.12017-1.0261z"/>
 </g>
 <g>
  <g>
   <g fill="#ffb380" stroke-width="0">
    <path d="m135 189.57c-1.979-2.0614-4.5742-3.6728-7.4616-3.969-3.0186-0.28472-5.8979 0.94273-8.5488 2.2392-2.0446 0.9506-4.1369 2.0731-6.4671 2.0276-2.2712-0.0153-4.4906-1.3366-5.4287-3.4365-0.96565-2.0081-0.8227-4.2838-0.88021-6.4493-0.0759-5.5076-0.0755-11.081-1.3597-16.471-0.2026-0.83058-0.34585-1.6824-0.624-2.4909-0.27302-0.37411-0.65356-3e-3 -0.82817 0.26089-0.63604 0.75651-1.3009 1.5026-1.8902 2.2893-0.12052 0.41645 0.26576 0.80184 0.34861 1.2112 0.9108 2.5034 1.3379 5.1727 1.2525 7.8354-0.0461 3.0977-0.27841 6.2107 0.14237 9.2944 0.30399 2.3081 0.64425 4.6531 1.5322 6.8199 0.65317 1.2118 1.4392 2.4631 2.727 3.0785 1.9935 1.0482 4.3259 0.81136 6.4795 0.56522 2.3425-0.31406 4.7476-0.55289 6.9461-1.4765 1.4526-0.65511 2.7456-1.6783 4.2182-2.2472 1.3078-0.36427 2.6748 0.17844 3.7438 0.92306 1.2105 0.7441 2.4306 1.7541 3.9381 1.8341 1.0144 0.0941 2.2535-0.58443 2.2377-1.7059 7e-3 -0.0554-0.0665-0.0836-0.0775-0.13285z"/>
    <path d="m121.13 145.22c-0.43427-0.22226-0.95208 0.038-1.4119 0.061-5.7664 1.0003-11.664 0.83356-17.461 1.6531-3.6778 0.54818-7.3483 1.6626-10.412 3.8291-1.7912 1.2186-3.2908 3.0076-3.7583 5.1633-1.0909 4.7483-1.1312 9.648-1.423 14.489-0.13686 2.6511-0.33234 5.3012-0.69399 7.9316-0.11904 0.39575 0.44335 0.71544 0.66676 0.32771 2.3626-3.3762 5.6431-5.8586 8.5638-8.7399 1.9701-1.9487 3.8493-3.9963 5.5829-6.1582 0.35089-0.49014 0.83048-0.90856 1.2007-1.399 1.6311-1.9079 3.1768-3.887 4.6237-5.9379 0.73184-1.0456 1.9774-1.9448 3.3145-1.6619 1.2528 0.19367 2.2537 1.3085 2.3623 2.5617-0.21473-0.0205-0.41202 0.1676-0.57035 0.21188-0.96584-0.75938-2.5492-0.21849-2.8802 0.95361-0.38144 1.2364 0.6389 2.511 1.8381 2.7548 1.7858 0.41757 3.6167-0.75329 4.3973-2.3342 1.2722-2.4334 0.65896-5.4898-0.93953-7.619-0.10384-0.21813-0.50254-0.41287-0.21595-0.6276 0.1348-0.17773 0.0142-0.50305 0.35185-0.40936 2.6778-0.23633 5.225-1.77 6.6391-4.0648 0.14865-0.28295 0.52513-0.67184 0.22484-0.98468z"/>
    <path d="m87.213 157.52c-0.26707-0.35137-0.67349 1e-3 -0.77305 0.30924-2.2585 3.5973-4.3634 7.3118-6.8157 10.767-3.0857 4.3148-7.1356 7.7793-11.455 10.808-4.2533 2.9755-8.6294 5.7728-13.012 8.5566-0.32071 0.2234-0.86826 0.51874-0.57105 0.97856 0.27426 0.69062 0.63742 1.3712 1.0956 1.9468 0.41132 0.2133 0.73766-0.3409 1.0878-0.4997 7.2167-5.1301 14.681-9.9646 22.384-14.321 1.1821-0.67815 2.6155-1.265 3.9955-0.8218 0.8913 0.24603 1.556 0.93055 2.1493 1.592 0.39876 0.26702 0.60857-0.29829 0.55985-0.62086 0.65473-6.063 0.47602-12.203 1.4252-18.232 0.01211-0.15526 0.02602-0.32828-0.06997-0.46231z"/>
    <path d="m84.97 177.14c-0.74611-1.2151-2.2642-1.9907-3.6776-1.5843-1.5458 0.45332-2.8865 1.3961-4.286 2.1648-4.3617 2.5635-8.6582 5.2412-12.871 8.0431-2.5581 1.7515-5.159 3.4589-7.6485 5.3111-0.34216 0.2455-0.13603 0.69717 0.17798 0.856 0.26926 0.29943 0.69166 0.17581 0.93004-0.0885 7.3379-5.1327 15.199-9.5066 23.417-13.054 1.1334-0.48414 2.4023-0.93425 3.6695-0.66959 0.34599 0.16941 0.84702-0.14355 0.57298-0.52154-0.0951-0.15218-0.18718-0.30627-0.285-0.45674z"/>
    <path d="m103.93 253.49c-0.73583-1.0543-1.7632-1.8629-2.6586-2.7754-3.0256-2.8157-5.9778-5.7055-8.7194-8.8004-6.0229-6.7554-11.478-14.009-16.995-21.192-1.09-1.4593-2.1041-2.9502-2.8035-4.6141-1.1467-2.7585-1.0575-5.8783-0.26617-8.7143 0.19554-0.8232 0.55679-1.6031 0.71996-2.4319-0.01722-0.41943-0.57206-0.43008-0.7701-0.13485-2.055 2.0434-4.1528 4.261-5.0544 7.0816-0.55031 1.6823-0.46677 3.5829 0.38038 5.1546 1.0103 2.0883 2.3642 3.9854 3.5874 5.9505 2.1287 3.3729 4.6633 6.4637 7.1757 9.5532 6.5884 7.945 13.656 15.49 21.096 22.642 0.50655 0.44265 0.9424 1.0033 1.4977 1.3714 0.44683 0.11752 0.66098-0.46609 1.0354-0.60863 0.57839-0.46625 1.4297-0.42589 1.9534-0.96101 0.37523-0.46176 0.10163-1.089-0.17872-1.5206z"/>
   </g>
   <g fill="none" stroke="#000" stroke-width="1px">
    <path transform="rotate(58.249 123.28 151.79)" d="m116.5 149.25c0.9017 1.1614 1.509 2.5495 1.75 4 0.34042 2.0489-0.0655 4.2136-1.125 6"/>
    <path transform="rotate(58.249 123.28 151.79)" d="m117.12 159.25c1.4067-0.28336 2.8862-0.19633 4.25 0.25 1.4439 0.47257 2.7729 1.3672 3.625 2.625 0.49683 0.73341 0.82702 1.588 0.89144 2.4715 0.0644 0.8835-0.14574 1.7943-0.64144 2.5285-0.4037 0.59792-1.0041 1.0757-1.7008 1.2633-0.34832 0.0938-0.71721 0.11449-1.0722 0.0506-0.35501-0.0639-0.69552-0.21327-0.97702-0.43883-0.30326-0.243-0.53546-0.57365-0.6611-0.94139s-0.14429-0.77134-0.0531-1.1491c0.0912-0.37776 0.29189-0.72841 0.57145-0.99835s0.63703-0.45825 1.0178-0.53615"/>
    <path transform="rotate(58.249 123.28 151.79)" d="m128.62 200c-0.74483-1.1412-1.3741-2.3577-1.875-3.625-1.3395-3.3888-1.7389-7.0614-2.5-10.625-0.75228-3.5225-1.8637-6.957-3-10.375-0.68641-2.0647-1.3838-4.129-2.25-6.125-0.19942-0.45951-0.4082-0.91649-0.5577-1.3946-0.14951-0.47809-0.23891-0.98167-0.1923-1.4804 0.0512-0.54771 0.27024-1.0796 0.625-1.5 0.41578-0.49273 1.0165-0.82552 1.6548-0.9167 0.63823-0.0912 1.3081 0.0601 1.8452 0.4167"/>
    <path transform="rotate(58.249 123.28 151.79)" d="m120.62 172.5c2.2609 0.63317 4.4767 1.4275 6.625 2.375 4.0987 1.8077 7.9294 4.1612 11.75 6.5 1.0145 0.62101 2.0352 1.2445 3.1389 1.6879s2.3049 0.70205 3.4861 0.56209c1.523-0.18046 2.9367-1.0368 3.875-2.25 0.76528-0.98945 1.2206-2.1887 1.4953-3.409 0.27468-1.2203 0.37804-2.4715 0.50467-3.716 0.29456-2.8947 0.77128-5.9096 2.5-8.25 0.68604-0.92877 1.55-1.7186 2.5-2.375 1.5989-1.1047 3.4529-1.8377 5.375-2.125"/>
    <path transform="rotate(58.249 123.28 151.79)" d="m121.25 176.75c2.5286 0.2895 5.0017 1.057 7.25 2.25 2.0531 1.0894 3.9032 2.5196 5.875 3.75 2.2807 1.4232 4.7245 2.5784 7.25 3.5 1.1064 0.40374 2.2374 0.76498 3.4065 0.90731 1.1691 0.14233 2.3859 0.0564 3.4685-0.40731 1.2013-0.51455 2.1739-1.4661 2.9199-2.5391 0.74606-1.073 1.287-2.2722 1.8301-3.4609 1.1311-2.4757 2.3118-5.0289 2.375-7.75 0.0163-0.70159-0.0428-1.4038-0.0125-2.1049 0.0302-0.70112 0.15632-1.4154 0.51252-2.0201 0.31644-0.53717 0.79943-0.96052 1.3271-1.2925 0.52769-0.33201 1.103-0.57977 1.6729-0.83247 1.0014-0.444 2.0244-0.9294 2.75-1.75 0.27101-0.30649 0.49584-0.65719 0.6343-1.0422 0.13845-0.38498 0.18834-0.80521 0.1157-1.2078-0.0882-0.48879-0.36021-0.94216-0.75-1.25"/>
    <path transform="rotate(58.249 123.28 151.79)" d="m116.5 149.25c-0.80393 2.1713-1.7223 4.3002-2.75 6.375-1.7705 3.5743-3.8646 6.9869-5.5 10.625-1.5756 3.505-2.7273 7.2836-2.625 11.125 0.0527 1.9806 0.46838 4.0163 1.625 5.625 0.46552 0.64746 1.0388 1.2093 1.625 1.75 6.122 5.6469 13.909 9.3132 19.75 15.25 1.9967 2.0294 3.7368 4.2966 5.375 6.625 2.6391 3.751 5.0533 7.7332 6.375 12.125 1.0437 3.468 1.4078 7.1864 3.125 10.375 0.49482 0.91879 1.1005 1.7844 1.8517 2.5088 0.75115 0.72442 1.6522 1.3052 2.6483 1.6162 0.84605 0.26415 1.7398 0.32998 2.625 0.375 6.6434 0.33791 13.295-0.39952 19.875-1.375 10.36-1.5359 20.633-3.6656 30.75-6.375"/>
    <path transform="rotate(58.249 123.28 151.79)" d="m139.25 216.75c1.0407 2.562 2.5281 4.9418 4.375 7 1.5049 1.677 3.2832 3.1624 5.375 4 1.6578 0.66383 3.4644 0.90048 5.25 0.875 1.1284-0.0161 2.2525-0.13425 3.375-0.25 11.871-1.2241 23.836-2.2035 35.375-5.25 1.7492-0.46183 3.4866-0.97074 5.25-1.375 0.65737-0.1507 1.3452-0.28663 2-0.125 0.17999 0.0444 0.35585 0.11169 0.51015 0.21446 0.15429 0.10276 0.28654 0.2425 0.36485 0.41054 0.10828 0.23236 0.1072 0.50197 0.0623 0.75435-0.0449 0.25237-0.13099 0.49555-0.18725 0.74565-0.15956 0.70929-0.0698 1.4721 0.25 2.125"/>
    <path transform="rotate(58.249 123.28 151.79)" d="m127.5 198.5c-1.0214-0.85411-2.456-1.1888-3.75-0.875-0.77902 0.18895-1.5138 0.61268-2 1.25-0.34561 0.45302-0.55637 0.99749-0.67986 1.5538s-0.1634 1.1273-0.19514 1.6962c-0.0697 1.2488-0.10167 2.4994-0.125 3.75-0.15011 8.0456 0.0585 16.098 0.625 24.125"/>
    <path transform="rotate(58.249 123.28 151.79)" d="m105.62 180.25c2.2759 4.2564 4.4846 8.5488 6.625 12.875 0.89336 1.8057 1.776 3.62 2.5 5.5 1.0844 2.8161 1.8061 5.7652 2.25 8.75 0.47362 3.1848 0.63265 6.4074 0.75 9.625 0.15494 4.2482 0.23829 8.499 0.25 12.75"/>
    <path transform="rotate(58.249 123.28 151.79)" d="m126.25 198c-0.3842 0.22559-0.7254 0.52414-1 0.875-0.36983 0.47254-0.61497 1.0329-0.78143 1.6094-0.16645 0.57651-0.25724 1.1718-0.34357 1.7656-1.3102 9.0125-1.6878 18.16-1.125 27.25"/>
    <path transform="rotate(58.249 123.28 151.79)" d="m118 229.75c1.081 0.36122 2.2526 0.448 3.375 0.25 0.55954-0.0987 1.1068-0.26708 1.625-0.5"/>
    <path transform="rotate(58.249 123.28 151.79)" d="m161.25 166c0.17886 4.8234 0.72259 9.6333 1.625 14.375 1.0988 5.7737 2.7323 11.453 5 16.875 1.3712 3.2786 3.0642 6.5753 5.875 8.75 1.9721 1.5258 4.3657 2.3954 6.75 3.125 4.8615 1.4876 9.8583 2.4897 14.75 3.875 1.2285 0.34792 2.4785 0.73393 3.5 1.5 1.151 0.86315 1.9416 2.1981 2.125 3.625 0.14305 1.1128-0.0794 2.2696-0.625 3.25"/>
    <path transform="rotate(58.249 143.66 170.38)" d="m110.35 175.39c-0.66451 2.2622-1.5477 4.4602-2.6333 6.5532-2.1317 4.1099-5.0553 7.8502-6.4744 12.257-1.0805 3.3556-1.2317 6.9456-1.02 10.465 0.0761 1.2652 0.20203 2.546 0.65216 3.731 0.43762 1.152 1.1753 2.1815 2.0883 3.0092 0.25532 0.23145 0.52409 0.44754 0.79406 0.66171 4.2678 3.3858 8.869 6.3225 13.367 9.3964 1.456 0.99513 2.9057 2.0081 4.2264 3.1768 2.6221 2.3204 4.6827 5.2079 6.4934 8.2047 1.9552 3.2361 3.6443 6.6254 5.2566 10.045 1.6857 3.5756 3.2953 7.2031 4.4045 10.997 0.3079 1.0533 0.57924 2.1247 1.0498 3.116 0.47056 0.99135 1.1651 1.9133 2.1264 2.4424 0.99504 0.54763 2.1733 0.62717 3.3086 0.66172 9.7012 0.29521 19.294-1.8103 28.8-3.7662 7.4201-1.5266 14.857-2.9688 22.31-4.3263"/>
   </g>
   <g stroke-width="0">
    <path d="m144.6 185.89c-1.8112 0.60903-4.3648 1.5554-4.1584 3.9236-0.41715 5.8175-2.31 12.027-6.8149 15.98-2.9506 1.9912-6.7662 0.19436-9.728-0.86546-5.8179-2.0993-10.239-7.2784-16.49-8.2261-1.3724 0.6595 0.16043 2.5822 0.19376 3.6095 2.1211 6.9083 2.0188 14.966 7.1708 20.575 4.402 5.3671 8.2717 11.28 10.539 17.854 2.6748 5.412 8.5018 9.7579 14.774 8.7643 14.917-1.4203 30.037-2.7639 44.344-7.4702 1.278-2.4261-0.21602-6.0273-2.9555-6.7534-7.2716-2.6553-15.226-3.4028-22.169-6.9419-5.5154-3.5047-7.5608-10.187-9.6223-16.001-2.5981-7.8147-3.6327-15.996-4.5571-24.144-0.0617-0.2296-0.30789-0.33515-0.52687-0.30453z" fill="url(#linearGradient1901)"/>
    <path d="m134.54 56.948c-0.979 1.9335-0.85493 4.4588-1.3787 6.6039-0.43913 1.194-0.29955 2.6866 1.1874 2.9497 3.9774 1.3174 8.868 3.5719 12.768 0.86317 1.3769-0.77259 2.032-2.3189 1.2996-3.7724-0.45801-1.3553 0.21278-3.2-0.57176-4.2274-4.5866 1.0675-8.9136-1.0634-13.151-2.4321l-0.0477-6.91e-4z" fill="#ff8080"/>
    <path d="m136.59 46.074c-1.2998 0.86608-0.63939 2.996-1.1167 4.3264-0.69021 1.9333-0.2168 3.4985 2.0116 3.9262 2.9063 1.3372 6.4458 3.6936 9.5805 1.5737 2.4354-1.0486 2.0895-3.8993 1.8775-6.0428 0.49457-2.1256-0.7919-2.3132-2.3823-1.7112-3.4307 0.37799-6.7814-0.99232-9.9706-2.0723z" fill="#ff8080"/>
    <path d="m138.68 31.549c-1.4316 0.73331-0.8513 2.9824-1.2738 4.291-0.0592 2.1877-1.4297 5.5627 1.2911 6.741 2.8575 1.6474 6.6589 3.8437 9.8076 1.5565 2.307-1.0769 0.62209-4.0155 0.66568-5.826-0.31726-1.896 0.27977-3.8744 0.24652-5.768-1.3586-0.04256-3.2298 0.20757-3.2345 2.0046-0.97339 2.4123-1.4847 5.1962-2.8574 7.3632-0.54921-3.0446 0.41001-6.3646-0.23893-9.2828-1.4916-0.27498-2.9278-0.76278-4.4063-1.0793z" fill="url(#linearGradient2383)"/>
    <path d="m145.44 9.993c-3.5505 1.6799-5.6448 5.6125-5.7321 9.4762-0.19439 2.8503-1.0214 5.846-0.41846 8.6558 1.2123 0.80554 3.0146 1.1715 4.4401 0.90115 1.4016-2.9025 1.273-6.3889 1.7046-9.5592 0.0584-3.0768 0.88734-6.2501 0.45333-9.2882-0.0983-0.14085-0.27845-0.21528-0.44746-0.18575z" fill="url(#linearGradient2399)"/>
   </g>
   <g fill="#ff8080" stroke-width="0">
    <path d="m155 9.6153c-1.6976 1.2304-2.2428 3.5879-3.4064 5.2853-1.4563 4.1795-1.3652 8.7612-3.0722 12.891-0.82048 0.88333 0.24693 1.9765 1.0475 1.1663 2.5525-4.0235 4.6141-8.4507 5.9752-13.023 0.2071-1.9959 0.96744-4.4807-0.22442-6.2576-0.0947-0.05756-0.21015-0.08132-0.31972-0.06146z"/>
    <path d="m144.9 6.1323c-1.3545 0.68972 0.78438 1.597 1.1283 2.3747 1.1972 3.1898 0.0169 6.7254-0.0379 10.042-0.25913 3.4297-0.88331 6.8857-1.1747 10.273 1.0842 1.1444 3.0789 0.05979 3.289-1.397 1.3497-3.3251 1.6996-6.9053 2.2629-10.4 0.52535-2.7695 2.6249-4.8861 3.4872-7.4688-0.94477-1.3025-3.0637-0.94229-4.3511-1.8285-1.5167-0.54149-2.9744-1.4516-4.6038-1.5944z"/>
    <path d="m144.93 32.838c-1.3847-0.02846-1.25 3.245 0.1022 2.6164 0.55118-0.63214 1.6391-2.8313-0.1022-2.6164z"/>
   </g>
   <g stroke-width="0">
    <path d="m86.188 7.5237c-1.4844 1.0335-1.0139 3.4176-1.3926 5.0109-0.45478 10.811-1.6778 21.565-2.1115 32.377-0.13309 4.7717-0.25882 9.5438-0.46647 14.313 2.8985 1.4742 6.4342 2.0698 9.6279 3.0396 9.8585 2.5366 19.871 4.4838 29.897 6.1846 0.59751-1.0236-1.1152-2.1794-0.72437-3.4016-0.31792-3.1604 3.1897-6.6282 6.2466-4.6307 0.67882 0.3059 2.034 2.2457 2.47 0.7368 0.42364-2.1263 0.9505-4.2883 0.97918-6.4537-1.1265-0.65378-2.1669 1.1623-3.3643 1.2823-3.5272 1.2366-6.8905-3.0446-5.2032-6.268 0.85951-2.3553 4.077-4.1431 6.1754-2.0985 1.3676 0.51998 1.3631 2.507 2.72 2.836 1.4543-0.7063 0.65186-2.9732 1.0496-4.2724 0.16491-0.87701 0.25712-3.3293-1.2706-2.4748-1.8845 1.7789-5.2646 1.561-6.663-0.73266-1.8185-2.6113-0.0796-7.6285 3.5307-7.4281 2.3868-0.28909 3.2519 2.4463 5.1362 3.231 0.92942-1.319 0.49407-3.439 0.87535-5.0384-0.12883-1.1345 0.81279-3.4755-0.7407-3.882-1.3455 0.55686-2.2557 2.155-3.9602 1.7404-2.799 0.61096-5.0617-2.4484-4.4291-5.0066 0.0499-3.0303 4.1061-5.718 6.5207-3.2531 1.1668 0.69162 1.9052 2.567 3.3084 2.6565 1.1235-4.6727 0.98233-9.7095 3.019-14.135-0.47441-1.3542-2.6512-0.67379-3.7543-1.0293-15.816-1.265-31.828-0.50331-47.476-3.3031z" fill="url(#linearGradient1917)"/>
    <path d="m144.21 35.07c-0.59297 0.16638-0.28518 0.9338-0.39103 1.3764 0.0457 0.5024-0.2715 1.1945 0.17403 1.5849 0.59946 0.18561 0.72258-0.65893 0.90753-1.042 0.12312-0.53892 0.51592-1.0694 0.43814-1.6259-0.24835-0.34169-0.7686-0.17086-1.1287-0.29348z" fill="#ff8080"/>
    <path d="m154.96 9.2573c-0.48975 0.23419-0.8077 0.6792-0.89994 1.2057-0.89372 2.0883-2.7561 3.6947-3.1665 5.9996-0.58451 2.9172-0.58822 5.9386-1.5423 8.749-0.33473 1.2405-0.90521 2.4009-1.29 3.6206-0.0454 0.62555 0.74827 0.49511 1.1472 0.43966 0.32916-0.02876 0.91667 0.0407 0.91617-0.44277 0.29583-0.29187 0.32422-0.80006 0.56675-1.1627 1.4562-3.3754 3.2576-6.599 4.5554-10.042 0.86298-2.3748 1.1995-4.9966 0.66689-7.4826-0.11-0.40421-0.46085-1.0652-0.95363-0.88457z" fill="url(#linearGradient2391)"/>
    <path d="m144.61 5.8932c-0.48211 0.25942-0.70367 0.9853-0.19714 1.3369 0.65529 0.4132 1.4342 0.74968 1.7605 1.5152 0.77895 1.5312 0.21367 3.2263 0.11645 4.8468-0.32678 3.8786-0.3346 7.7876-1.0358 11.611-0.17012 1.2049-0.51388 2.3807-0.72862 3.5725 0.0831 0.73192 1.0179 0.6483 1.5573 0.65765 0.59471-0.0093 1.5206-0.06696 1.594-0.82562 1.3677-2.8788 2.0755-6.0206 2.3899-9.1803 0.23727-2.0396 0.47493-4.1773 1.696-5.9084 0.82295-1.3335 2.0171-2.5788 2.1996-4.1976-0.0468-0.68688-0.87928-0.58714-1.3607-0.66465-1.8189-0.22508-3.4578-1.0712-5.0889-1.8487-0.92703-0.39274-1.8864-0.90012-2.9027-0.91496zm2.9822 22.663c0.0719 0.16558 0.0137 0.06969 0 0z" fill="url(#linearGradient2407)"/>
   </g>
   <g fill="#ff8080" stroke-width="0">
    <path d="m143.63 5.8708c-0.36396-0.04056-1.0492 0.05616-0.87508 0.58091 0.31462 0.42394 0.91925 0.52723 1.3995 0.66637 0.42952-0.12973 0.42689-0.7273 0.38256-1.0928-0.23534-0.26267-0.59993-0.11796-0.90702-0.15451z"/>
    <path d="m138.07 6.247c-1.9325-0.0039-3.8209 0.46456-5.7097 0.81522-3.5894 0.71423-7.1664 1.4589-10.811 1.6383-1.708 0.08743-3.4397 0.05747-5.1652 3e-3 -3.3559-0.16308-6.6866-0.64231-10.031-1.0224-1.5922-0.174-3.1906-0.32224-4.7942-0.29437-2.0794-0.01279-4.1594 0.0168-6.2354 0.14352-0.32291 0.03716-0.66671-0.0025-0.97679 0.09095-0.32061 0.11834-0.2339 0.61791 0.0893 0.66468 0.91998 0.16263 1.8572 0.21312 2.7853 0.31702 6.8241 0.65015 13.685 0.69136 20.53 0.93374 6.7479 0.22066 13.49 0.61773 20.222 1.1705 0.35203 0.0019 0.72913 0.15778 1.0563-0.03759 1.0113-0.3875 2.1687-0.33941 3.109-0.94098 0.72769-0.45946 1.365-1.1133 1.6995-1.9144 0.0887-0.28802-0.19417-0.46439-0.43035-0.53133-1.694-0.6287-3.4829-1.0824-5.3021-1.036l-0.034 9.8e-5z"/>
    <path d="m128.93 25.517c-0.99699-0.0084-1.9221 0.87686-1.8979 1.884-0.0876 1.0792 0.93726 2.102 2.0214 1.9875 0.9564-0.0077 1.7929-0.84067 1.8404-1.7893 0.10014-1.0053-0.7171-1.9777-1.7192-2.0701-0.0812-0.0095-0.16306-0.01305-0.2448-0.01208z"/>
    <path d="m127.9 38.626c-1.0267-0.01385-1.9646 0.91205-1.9232 1.9465-0.0266 0.98578 0.81674 1.8847 1.7997 1.9333 0.97969 0.08985 1.9368-0.68091 2.057-1.6576 0.16526-0.95259-0.50575-1.9403-1.4417-2.1617-0.16043-0.0414-0.32617-0.06169-0.49185-0.06051z"/>
    <path d="m126.25 49.875c-0.98985 0.0075-1.8694 0.87365-1.8997 1.8616-0.0658 1.0304 0.82597 2.026 1.8711 2.0116 0.89737 0.07182 1.7562-0.59422 1.9546-1.4631 0.23048-0.86593-0.22287-1.853-1.0467-2.2182-0.27285-0.13161-0.57606-0.20039-0.87927-0.19188z"/>
    <path d="m125.53 63.011c-0.99593-0.02996-1.8945 0.83965-1.9265 1.83-0.0742 1.0229 0.79143 1.9821 1.8087 2.0472 1.0652 0.08857 2.0918-0.84602 2.0729-1.9213 0.0277-0.97375-0.77741-1.9033-1.7631-1.9496-0.0639-0.0046-0.12792-0.0069-0.19195-0.0064z"/>
    <path d="m129.48 61.285c-0.17271 0.04575-0.33785 0.1163-0.51903 0.12802-0.27485 0.05197-0.32249 0.40896-0.14987 0.59663 0.15892 0.22912 0.26045 0.62749 0.59966 0.61795 0.3418-0.02718 0.34038-0.42764 0.39338-0.68172 0.0534-0.22012 0.0893-0.54326-0.17785-0.63562-0.0446-0.0275-0.0963-0.02242-0.14629-0.02526z"/>
    <path d="m131.38 49.871c-0.15655 0.01436-0.26891 0.18563-0.40706 0.20204-0.21879-0.11895-0.54165-0.27528-0.72392-0.01133-0.19019 0.27102 0.073 0.56593 0.31559 0.68107 0.25456 0.13415 0.50477 0.3047 0.78115 0.3814 0.28708 0.0592 0.43214-0.25043 0.42882-0.49035 0.0316-0.26809 0.0764-0.6621-0.25485-0.75838-0.0465-9.72e-4 -0.0933-0.0048-0.13973-0.0044z"/>
    <path d="m136.31 45.706c-0.39109 0.02261-0.48604 0.57287-0.27552 0.83412 0.19472 0.2188 0.49317 0.06489 0.65183-0.11498 0.24364-0.148 0.21277-0.53738-0.0626-0.62851-0.096-0.0527-0.20174-0.09864-0.31373-0.09063z"/>
   </g>
   <path d="m136.28 45.711c-0.30158 0.02044-0.35243 0.34866-0.36432 0.58892-0.21881 2.1118-0.5071 4.236-0.89573 6.3392-0.10035 0.26245 0.0937 0.50267 0.3287 0.59682 1.6596 0.8867 3.2881 1.8376 4.9968 2.6288 1.3128 0.56714 2.7276 1.01 4.1742 0.92798 1.7021-0.01441 3.3622-0.88436 4.3902-2.2328 0.20323-0.29785 0.27998-0.66201 0.38589-1.0002-0.0208-0.36424-0.16704-0.71175-0.20683-1.0761-0.1647-0.85956-0.24138-1.7642-0.21504-2.6396-0.01-0.59807 0.0498-1.1931 0.0947-1.788-0.0196-0.29996-0.35739-0.43794-0.60983-0.48946-0.49168 0.16712-0.97984 0.3601-1.4936 0.45888-0.81954 0.18906-1.6759 0.17915-2.4976 0.15698-2.1741-0.16945-4.2873-0.843-6.2914-1.705-0.58405-0.23294-1.1278-0.56641-1.7254-0.76212-0.0236 5.73e-4 -0.0471-0.0055-0.0707-0.0042z" fill="url(#linearGradient2375)" stroke-width="0"/>
   <path d="m134.36 56.653c-0.35256 0.3973-0.33854 0.96946-0.43625 1.4648-0.34681 2.4427-0.74697 4.8781-1.2016 7.3021 8e-3 0.26638 0.20021 0.4879 0.32203 0.71257 0.1731 0.22545 0.49596 0.22682 0.73817 0.34302 2.1556 0.72621 4.3156 1.4566 6.5309 1.9813 1.6835 0.39137 3.4977 0.53415 5.1523-0.06217 1.4611-0.51562 2.7183-1.5864 3.4734-2.9356 0.10673-0.27768-0.11886-0.54424-0.17854-0.80837-0.38367-1.1129-0.54959-2.3203-0.46114-3.4671 0.0118-0.41406 0.0844-0.83946 0.1471-1.2586-0.0333-0.31149-0.18306-0.66064-0.46072-0.81714-0.29489-0.0588-0.56605 0.14662-0.85402 0.19356-1.7459 0.47699-3.5678 0.33736-5.3025-0.065-2.4436-0.59486-4.8151-1.4885-7.0765-2.5716-0.12464-0.07078-0.26447-0.08027-0.3926-0.01171zm-1.2751 9.0775c0.12175-0.10192 0.1434-0.08594 0 0zm-0.0698 0.11976c0.0208-0.07697 0.0558-0.09274 0 0zm-0.0157 0.14c-9e-3 -0.04209 3.7e-4 -0.0685 0 0z" fill="url(#linearGradient2367)" stroke-width="0"/>
   <g fill="#ff8080" stroke-width="0">
    <path d="m129.95 54.05c-0.22384 0.06662-0.39566 0.31556-0.402 0.54346-5e-3 0.28755 0.3249 0.37299 0.55553 0.32228 0.23495 0.01639 0.55831-0.09522 0.52293-0.38356-0.0207-0.25848-0.3109-0.37518-0.51523-0.47474-0.0523-0.01872-0.10728-0.0061-0.16123-0.0074z"/>
    <path d="m131.95 43.243c-0.23513 0.01688-0.56614 0.11734-0.53225 0.41409 0.0459 0.23497 0.24233 0.4433 0.44661 0.55896 0.27177 0.10356 0.51034-0.17585 0.47379-0.4374 0.0382-0.23467-0.0527-0.53466-0.33301-0.54089l-0.0338 0.0032z"/>
    <path d="m137.15 11.007c-0.30704-0.02173-0.47778 0.3766-0.27429 0.59815 0.13419 0.22589 0.41245 0.49099 0.67823 0.28842 0.17989-0.17454 0.46675-0.43619 0.29004-0.69784-0.14744-0.2174-0.46146-0.16518-0.69398-0.18873z"/>
   </g>
   <g fill="#ffb380" stroke-width="0">
    <path d="m144.46 7.805c-0.45553 0.21496-0.5282 0.81535-0.90369 1.1323-0.6844 0.86073-1.6549 1.4805-2.7452 1.6672-0.97277 0.21108-2.1053 0.35961-2.7174 1.2505-1.0265 1.4474-1.3932 3.2335-1.7824 4.9331-0.6152 3.1034-0.96226 6.2604-1.1059 9.4195-0.0966 0.42739 0.12549 0.79313 0.55915 0.87856 0.77131 0.33168 1.5285 0.75142 2.3559 0.91661 0.51953-0.07427 0.40837-0.73638 0.46889-1.1159 0.20626-3.3252 0.45051-6.6558 0.95493-9.9398 0.3563-2.0385 1.4145-3.9214 2.9506-5.3172 0.96078-0.93956 2.0408-1.7516 3.193-2.4386 0.32179-0.42168-0.23515-0.83446-0.52084-1.0871-0.2036-0.1514-0.4352-0.34385-0.70716-0.29924z"/>
    <path d="m133.15 26.405c-0.19409 0.61535-0.0117 1.2786-0.15021 1.9147-0.063 0.33942-0.30104 0.8808 0.17437 1.0291 3.567 1.1759 7.1546 2.3709 10.87 2.9827 2.0901 0.29887 4.3525 0.16789 6.2242-0.88948 0.69307-0.3659 1.2493-1.1217 1.1299-1.9288-0.33148-0.34978-0.83425 0.02068-1.2484 0.0021-2.072 0.35514-4.1821 0.2734-6.2607 0.19983-2.9911-0.32256-5.9416-1.0991-8.6191-2.475-0.62897-0.27422-1.2163-0.65903-1.8371-0.92726-0.10763-0.05599-0.189 0.05913-0.28293 0.09204z"/>
    <path d="m128.77 22.765c-1.5284 0.04233-2.902 1.0942-3.4899 2.4826-0.69447 1.4547-0.64195 3.2975 0.37673 4.5929 1.0743 1.4818 3.2442 2.0417 4.8696 1.157 1.3066-0.64345 2.1973-2.041 2.1564-3.5067-5e-3 -0.7272-0.043-1.5843-0.60365-2.1073 0.0817-0.5683-0.41955-1.0195-0.74484-1.4262-0.66509-0.68982-1.5945-1.1757-2.5643-1.1922zm0.17357 2.4393c1.2514-0.15559 2.3695 1.0905 2.3029 2.3192 0.0112 1.2145-1.0953 2.2775-2.3082 2.2124-1.5414 0.11111-2.7338-1.6918-2.1321-3.0836 0.33626-0.84279 1.1856-1.5642 2.1374-1.448z"/>
    <path d="m134.72 30.376c-0.39379 0.25512-0.21805 0.81394-0.33372 1.2081-0.28192 2.5727-0.5807 5.1471-0.82316 7.7219 0.16904 0.51864 0.798 0.67249 1.1976 0.97385 0.47423 0.24145 0.91235 0.60614 1.4154 0.76563 0.51557 0.0344 0.3818-0.62855 0.42982-0.95774 0.06-2.7513 0.32384-5.4669 0.89575-8.1461 0.0745-0.32847 0.1427-0.85282-0.32558-0.90305-0.78121-0.2233-1.5452-0.52794-2.3433-0.68252l-0.0669 0.01181z"/>
    <path d="m132.18 39.463c-0.27341 0.40448-0.11802 0.95754-0.1944 1.4184 0.0239 0.53995-0.19714 1.0661-0.30506 1.5921-9e-3 0.30622 0.35629 0.35469 0.5556 0.37236 0.0585 0.33141 0.51632 0.42945 0.71406 0.16296 3.1016 2.3978 6.7769 4.1195 10.663 4.727 1.7473 0.26107 3.656 0.08728 5.1768-0.87051 0.80142-0.54693 1.4308-1.3736 1.5662-2.3538 0.15222-0.33322-0.0383-0.90835-0.48234-0.72354-0.73041 0.49163-1.4196 1.0692-2.2607 1.3941-2.068 0.89759-4.449 0.34478-6.3561-0.69283-2.9742-1.5961-5.8058-3.4414-8.7552-5.081-0.11259 0.0067-0.23052-0.0319-0.32207 0.05454z"/>
    <path d="m133.01 43.698c-0.48767 0.16408-0.27601 0.79163-0.38202 1.1828-0.17977 2.1554-0.38507 4.3102-0.52034 6.4683 0.18068 0.43779 0.75359 0.48964 1.1072 0.75214 0.40114 0.15194 0.76196 0.51022 1.2033 0.5036 0.4444-0.20179 0.32395-0.81723 0.45113-1.2088 0.30738-1.962 0.59919-3.9301 0.73999-5.912-0.11077-0.48148-0.72246-0.58771-1.0559-0.89703-0.49274-0.2853-0.93991-0.69242-1.4758-0.88255l-0.065-0.0067z"/>
    <path d="m127.67 35.876c-1.9115 0.05755-3.4148 1.7631-3.7876 3.5487-0.42271 1.7657 0.38519 3.7895 2.0296 4.6271 1.4566 0.83684 3.4628 0.54006 4.606-0.68579 0.0895-0.1619 0.0781-0.33444 0.2938-0.37328 0.56324-0.58192 0.76716-1.4431 0.84077-2.2306 0.0796-1.7248-0.79531-3.5266-2.2875-4.4265-0.51388-0.28897-1.1033-0.46308-1.6951-0.45961zm0.26262 2.44c1.5268-0.16472 2.7245 1.6577 2.1456 3.0324-0.33197 0.91272-1.2676 1.611-2.2626 1.4869-1.4372 0.06282-2.5375-1.5485-2.1046-2.8853 0.25886-0.95647 1.1993-1.7546 2.2217-1.6339z"/>
    <path d="m131.52 55.12c-0.40261 0.24127-0.25657 0.80933-0.39864 1.1977-0.47521 2.8122-0.97179 5.6222-1.4005 8.4415 0.13332 0.48026 0.77786 0.43881 1.1455 0.6643 0.40828 0.09661 0.8042 0.42365 1.2315 0.33626 0.38067-0.29758 0.28582-0.88084 0.42729-1.3013 0.49038-2.5784 0.84-5.1804 1.262-7.7696 0.011-0.08364 0.0971-0.27052-0.0516-0.43021-0.64087-0.45835-1.3452-0.86242-2.0773-1.152-0.0461-0.0057-0.0921 0.01657-0.13814 0.01327z"/>
    <path d="m130.78 51.376c-0.54597 0.10818-0.3347 0.78821-0.44417 1.1829-0.0335 0.42001-0.42428 0.99905 0.11967 1.2373 3.4071 2.2773 7.2048 3.9736 11.169 5.012 1.165 0.33235 2.3756 0.45842 3.5842 0.379 1.5085-3e-3 3.0828-0.47661 4.1883-1.5341 0.73262-0.76956 0.94418-1.984 0.53134-2.9558-0.2851-0.3672-0.67933 0.03685-0.88513 0.27402-0.91839 1.0252-2.1212 1.8288-3.4905 2.0776-2.3989 0.46486-4.7692-0.4836-6.8518-1.5934-2.3352-1.2132-4.6075-2.5706-7.0066-3.6621-0.29337-0.13272-0.5371-0.44913-0.91404-0.41734z"/>
    <path d="m126.05 47.142c-1.9121 0.02215-3.4459 1.708-3.7947 3.5004-0.20427 1.1333-0.0995 2.3627 0.57441 3.3307 0.92155 1.4578 2.8753 2.2096 4.5132 1.5964 1.0569-0.31363 1.9106-1.1666 2.3638-2.1533 0.9197-2.284-0.26411-5.3041-2.6448-6.1189-0.32564-0.10682-0.66927-0.15892-1.0119-0.15533zm0.33294 2.3743c1.4043 0.0173 2.536 1.5196 2.132 2.871-0.27415 1.0644-1.3557 1.866-2.4651 1.7144-1.4796-0.0761-2.533-1.8783-1.866-3.2114 0.39498-0.82366 1.2662-1.4317 2.1991-1.374z"/>
    <path d="m129.65 65.656c-0.18764 0.635-0.42252 1.2555-0.74737 1.8321-0.17508 0.43053 0.37631 1.1075 0.78028 0.67584 3.983 1.6068 8.1896 2.7584 12.488 3.0344 2.1976 0.10153 4.6346-0.28941 6.2342-1.9324 0.72221-0.70994 1.1866-1.7531 1.0088-2.7705-0.23362-0.41752-0.67797-0.05042-0.87927 0.19759-0.91902 0.97599-1.9985 1.7961-3.3109 2.1581-1.38 0.37831-2.845 0.34961-4.2423 0.11199-2.7224-0.56109-5.3592-1.5017-7.9848-2.3788-1.0123-0.33425-2.0047-0.75416-3.017-1.0693-0.15034-0.04189-0.22445 0.05309-0.32962 0.14097z"/>
    <path d="m125.29 60.264c-1.7546 0.01996-3.1812 1.4711-3.6736 3.0749-0.38128 1.3395-0.25305 2.908 0.6555 4.0164 1.069 1.4371 3.1807 1.9997 4.7857 1.1565 1.4162-0.62201 2.2853-2.1632 2.2102-3.6901-8e-3 -1.9048-1.2016-3.8981-3.0891-4.4456-0.28921-0.07797-0.58914-0.1163-0.88869-0.11213zm0.35616 2.3849c1.4366 0.01609 2.567 1.5963 2.1022 2.956-0.34233 1.1751-1.6948 1.9184-2.8667 1.5364-1.0416-0.26878-1.7655-1.3823-1.6021-2.4419 0.0403-1.1737 1.2219-2.1246 2.3666-2.0505z"/>
    <path d="m82.198 60.054c-0.43316 0.21897-0.31235 0.82027-0.41283 1.222-0.06024 0.34586-0.06984 0.8048 0.33719 0.93899 3.344 1.6728 7.0033 2.5506 10.578 3.5813 6.5092 1.8033 13.092 3.334 19.722 4.6193 3.5625 0.69219 7.0996 1.481 10.666 2.1438 1.7395 0.33068 3.5262 0.34497 5.2854 0.19834 1.4541-0.22529 2.8572-1.2766 3.1206-2.7843 0.18087-0.52404-0.33985-0.88002-0.77603-1.0053-0.52271-0.15851-1.0158-0.52904-1.566-0.51548-1.2604 0.27254-2.487 0.75243-3.7782 0.85546-1.615-0.07389-3.2046-0.44441-4.811-0.6626-11.796-1.9102-23.541-4.263-35.005-7.6346-1.0945-0.29902-2.1773-0.71335-3.2844-0.96023l-0.06787 3e-3z"/>
    <path d="m145.89 180.97c-2.7943 0.59807-5.5302 1.9569-7.3016 4.2562-1.8306 2.417-2.302 5.5113-2.5946 8.4477-0.26758 2.2388-0.41411 4.6087-1.679 6.5663-1.2082 1.9232-3.4997 3.1151-5.779 2.8078-2.2157-0.23558-4.0756-1.5547-5.9473-2.6454-4.7233-2.8337-9.462-5.7668-14.721-7.5112-0.81289-0.2648-1.6126-0.59122-2.4464-0.78017-0.46179 0.0353-0.34652 0.55415-0.21396 0.84152 0.30858 0.93895 0.59317 1.897 0.95198 2.812 0.2907 0.32163 0.82169 0.19596 1.2134 0.34092 2.6081 0.5429 5.1026 1.5844 7.3219 3.0582 2.6098 1.6693 5.1347 3.505 7.9784 4.77 2.1226 0.9561 4.2958 1.9008 6.6055 2.286 1.3742 0.0823 2.8518 0.0724 4.0528-0.69884 1.9404-1.1436 2.9664-3.2515 3.8904-5.2123 0.96564-2.1572 2.0282-4.328 2.3997-6.6836 0.20734-1.5799 0.0177-3.2179 0.30884-4.7694 0.37847-1.3038 1.5593-2.1806 2.755-2.6978 1.2697-0.63775 2.7706-1.1438 3.632-2.3836 0.61389-0.81306 0.68889-2.2238-0.27301-2.8005-0.0432-0.0355-0.10608 0.0125-0.15376-4e-3z"/>
    <path d="m100.88 169.42c-0.41752 0.25231-0.46866 0.82961-0.6911 1.2326-2.1839 5.4298-5.4291 10.357-7.7827 15.718-1.4692 3.4158-2.4531 7.1235-2.223 10.869 0.0936 2.1644 0.8258 4.381 2.4128 5.913 3.4636 3.4263 7.6088 6.039 11.571 8.8344 2.1823 1.5115 4.3329 3.0723 6.3794 4.764 0.27387 0.30948 0.84167-5.1e-4 0.62953-0.39452-1.6276-3.7857-2.0122-7.8816-2.9254-11.881-0.62033-2.7007-1.3726-5.3762-2.2986-7.988-0.23214-0.55631-0.33556-1.1843-0.55774-1.7572-0.76403-2.391-1.6335-4.7468-2.6161-7.0564-0.50401-1.1726-0.61313-2.7049 0.33105-3.693 0.82397-0.96342 2.2987-1.2278 3.4214-0.66071-0.13042 0.17181-0.0743 0.43855-0.11996 0.59649-1.154 0.42168-1.5273 2.0527-0.70477 2.951 0.85066 0.97501 2.4714 0.77807 3.3098-0.11333 1.2948-1.2988 1.2627-3.4719 0.32912-4.9676-1.3997-2.3624-4.3214-3.4493-6.9732-3.2104-0.24013-0.0265-0.61553 0.21006-0.64731-0.14664-0.0802-0.20815-0.42029-0.27681-0.16295-0.51461 1.2082-2.4014 1.2445-5.3744 0.0373-7.7845-0.16238-0.2753-0.29495-0.80008-0.719-0.70936z"/>
    <path d="m93.492 204.73c-0.43933 0.0422-0.35322 0.57343-0.14385 0.82009 1.8704 3.8135 3.9214 7.5581 5.5691 11.462 2.0453 4.8945 2.86 10.161 3.1621 15.428 0.29196 5.1826 0.36779 10.376 0.42861 15.567 0.0212 0.39027-0.0158 1.0113 0.5316 1.0005 0.73159 0.13021 1.5014 0.17954 2.232 0.0928 0.39783-0.23752 0.0983-0.80665 0.14751-1.1879-0.56471-8.8363-0.74783-17.727-0.39883-26.57 0.0454-1.362 0.30071-2.8897 1.4037-3.83 0.67824-0.62844 1.6101-0.8334 2.4848-0.98992 0.4369-0.19856 0.0666-0.67446-0.23333-0.80278-4.8111-3.7473-10.126-6.8266-14.754-10.806-0.12565-0.092-0.26546-0.19488-0.42994-0.18379z"/>
    <path d="m108.99 216.96c-1.4259-5e-3 -2.8843 0.87783-3.2825 2.2935-0.42798 1.553-0.3318 3.1892-0.41464 4.7838-0.11543 5.058-0.0994 10.12 0.0664 15.177 0.14318 3.097 0.22638 6.2071 0.49137 9.2987 0.0287 0.42014 0.52125 0.48255 0.82155 0.29911 0.39631-0.0714 0.51347-0.49563 0.41417-0.83742-0.50311-8.9407-0.0858-17.927 1.2224-26.782 0.18474-1.2185 0.46975-2.5344 1.3616-3.4726 0.32613-0.20506 0.32366-0.7958-0.14197-0.76168-0.17945 7.9e-4 -0.35893-2e-3 -0.53836 2e-3z"/>
    <path d="m183.9 241.02c-1.2837 0.0709-2.512 0.51894-3.7591 0.80018-3.9865 1.0911-7.9973 2.0807-12.072 2.7834-8.9138 1.5666-17.952 2.3881-26.964 3.2995-1.8145 0.15892-3.616 0.23669-5.3988-0.0442-2.9491-0.47654-5.5551-2.1941-7.5502-4.3594-0.59709-0.59947-1.0702-1.317-1.689-1.8919-0.36572-0.20607-0.66675 0.26012-0.51992 0.58388 0.65615 2.8227 1.438 5.7736 3.3619 8.0246 1.141 1.3532 2.8011 2.2824 4.5833 2.3891 2.3075 0.23985 4.633 0.0869 6.9478 0.0808 3.9883-0.0352 7.9503-0.56398 11.9-1.0746 10.223-1.4215 20.358-3.4611 30.355-6.0238 0.64297-0.19781 1.3491-0.27338 1.9543-0.55189 0.33507-0.31812-0.0485-0.80733 0.0273-1.2007-0.0921-0.73719 0.39022-1.4399 0.21073-2.1667-0.19519-0.56207-0.87255-0.65949-1.3871-0.64824z"/>
   </g>
   <g stroke-width="0">
    <path d="m88.137 65.127c-0.95932 0.98484 0.28107 2.8463 0.07507 4.1497-0.08672 4.2782-1.7354 8.5227-1.2543 12.906-0.27614 5.2805 1.6424 10.265 4.0703 14.848 2.282 4.0525 2.6202 8.6358 1.8148 13.16-0.69334 3.1127 0.93011 5.9959 3.161 8.0419 3.6789 3.5373 4.0099 8.8593 3.73 13.648-0.10758 3.5204-0.85201 7.3054 1.2101 10.455 2.9894 5.335 0.68369 11.907 3.3164 17.401 1.1378 2.368 0.95009 5.4824-1.3715 7.0435-2.2795 0.96193-0.88653 2.9208-0.34531 4.5753 0.89834 1.9438 0.24121 4.0782 0.0293 6.0609 1.2392 1.098 3.3766 0.5964 4.7112 1.7536 3.0746 1.5044 4.6263 6.8979 0.93458 8.5546-2.0549 1.0396-3.7322-1.091-3.4741-3.0259-0.72604-1.3137-1.9644 0.54411-1.5914 1.4525 0.23436 2.5612 1.3551 5.6365 4.2777 6.0557 7.0344 2.2047 12.953 6.7366 19.558 9.8772 3.251 1.4338 7.0377-0.87861 7.6988-4.2585 1.284-4.7728 0.64707-10.707 4.8598-14.162 1.5204-1.6628 3.89-2.1907 5.5872-3.438-0.46002-4.576-0.33418-9.0552 0.70052-13.529 0.65635-7.3905 0.54292-15.117-2.4316-22.042-1.4723-5.5787 1.3264-11.227 1.2077-16.925 0.72986-6.8191-0.58377-13.612-2.1866-20.181-0.83171-7.4151-0.31388-14.949-5e-3 -22.381 0.7296-4.094 0.30925-8.3021 0.81672-12.375 1.2135-1.0763-1.1518-1.3498-1.8827-1.3159-3.1583-0.04045-6.3054-1.1846-9.2849-1.5426-0.33871 2.2084-2.4586 3.5035-4.5983 3.3009-8.9386-0.38874-17.753-3.0061-26.531-4.8517-4.3067-0.92535-8.5286-2.2453-12.803-3.2565z" fill="url(#linearGradient1909)"/>
    <path d="m100.92 164.72c-1.7727 1.5344-3.1543 3.4744-4.8761 5.0744-3.2407 3.353-7.1462 6.1704-9.6242 10.189-0.88412 1.7101-1.0865 3.6963-1.8885 5.4374-2.4592 5.8065-4.9232 11.797-9.1263 16.597-1.6283 2.4883-2.6009 5.4134-2.9381 8.3611-0.20297 2.3708 0.21844 4.7932 1.4226 6.8645 1.4321 2.5988 3.4678 4.8029 5.1945 7.2036 6.8699 8.9954 13.893 17.959 22.267 25.624 1.155 1.0482 2.2362 2.1923 3.2951 3.3291 0.99643 0.25854 2.0022-0.43732 2.7892-0.99413 1.764-1.2794 2.2125-3.6722 1.6912-5.6881-0.32402-1.2056-0.47945-2.5441-1.154-3.6056-0.6559-0.21395-0.49524 0.82402-0.52662 1.1922-8e-3 1.4004 0.14117 2.8858 0.17763 4.2362-0.31258 0.32543-0.49264 0.79585-1.0443 0.8214-1.3584 0.34034-2.8905 0.43172-4.2154-0.0376 0.2085-0.42146-0.40958-0.50939-0.27816-0.92303-0.33783-7.0653-0.13064-14.19-1.0404-21.225-0.60686-4.77-2.1037-9.4001-4.3293-13.659-2.1355-4.5194-4.5335-8.9091-6.7276-13.398-0.25457-0.63691-0.03092-1.3717-0.25991-2.0438-0.3655-3.4223 0.35198-6.85 1.4393-10.078 1.2342-4.4928 4.1516-8.2257 6.1163-12.41 1.2223-2.3238 2.2277-4.7505 3.2769-7.1523 0.20583-0.31179 0.12154-0.75377 0.46751-1.0328 0.49126-0.48428 0.89411-1.1114 0.55686-1.806-0.12053-0.3064-0.21042-0.94337-0.66557-0.87726z" fill="url(#linearGradient2103)"/>
    <path d="m174.45 59.861c-1.0381 0.61726-1.4764 1.9866-2.6677 2.5043-3.2712 2.1232-7.074 3.2419-10.823 4.25-0.16319 1.462-0.19813 3.3433-1.6722 4.2953-3.2328 1.7127-7.0928 1.9245-10.603 2.9124-1.579 0.44953-3.3662 0.61731-4.7753 1.3785-0.10421 6.0493-1.3121 12.02-1.1028 18.092 0.0604 4.394-0.18764 8.8286 0.12104 13.197 1.6405 6.225 2.8235 12.604 2.5036 19.061 0.15181 5.2037-1.2858 10.244-1.8395 15.382-0.14898 3.4897 2.0879 6.454 2.6819 9.8013 0.0336 0.8586 1.3907 0.5032 0.9786 1.4881-0.98713 3.343-0.19599 6.9807-1e-3 10.419-0.1171 0.72911 0.57273 1.4217 1.0647 0.61299 4.4209-5.1317 7.1033-11.642 7.7056-18.382 0.79056-6.7652 1.1821-13.757 4.3739-19.933 5.7448-11.451 15.28-20.895 19.224-33.279 2.7381-8.0035 1.5063-16.784-1.6304-24.477-1.0546-2.4403-1.8237-5.1094-3.3427-7.2922-0.0605-0.02928-0.12956-0.03702-0.19561-0.02779z" fill="url(#linearGradient2327)"/>
    <path d="m153.94 22.04c-0.18854 0.08855-0.22329 0.32535-0.32926 0.48647-0.96607 1.9483-1.8921 3.9172-2.7539 5.914-0.0882 0.14058-0.0689 0.36809 0.11368 0.41641 0.0679 0.04165 0.18347-0.0301 0.22323 0.01675 0.0323 0.16427 0.0633 0.40611 0.27784 0.41258 0.11451-0.0011 0.21622-0.06532 0.32197-0.10201 0.20581 0.70134 0.0119 1.4939-0.48717 2.0266-0.2409 0.2821-0.55044 0.49282-0.85883 0.6915-0.14381 0.14609-0.13711 0.37621-0.21342 0.5595-0.045 0.15618-0.15211 0.37867 0.0305 0.4848 0.16626 0.08803 0.37042 0.0074 0.55231 0.01542 1.1308-0.08533 2.2665-0.19092 3.3726-0.45007 1.0381-0.25588 1.959-0.89955 2.5986-1.7511 0.34753-0.46115 0.6527-0.95941 0.8841-1.4886 0.0446-0.20835-0.13319-0.3788-0.20124-0.56287-1.1238-2.1356-2.1911-4.3026-3.2065-6.4873-0.0578-0.13014-0.17541-0.22332-0.32455-0.18208z" fill="url(#linearGradient2351)"/>
    <path d="m158.39 30.741c-0.23287 0.04197-0.27073 0.31427-0.36949 0.48921-0.59922 1.3364-1.5324 2.5544-2.7725 3.3531-0.90767 0.56812-1.907 0.95876-2.9311 1.2505-0.80786 0.22636-1.653 0.37868-2.5023 0.4094-0.19131 0.01714-0.24009 0.22409-0.21687 0.38432 3e-3 0.23673-0.0365 0.49014 0.11318 0.69441 0.96253 1.9158 1.9088 3.8401 2.886 5.7484 0.0713 0.14385 0.19357 0.32524 0.38154 0.2669 1.6852-0.48461 3.3458-1.0596 4.9641-1.7352 1.0341-0.42097 2.035-1.0205 2.7104-1.9299 0.71731-0.95952 1.0272-2.1756 1.0291-3.3604-0.0562-0.2259-0.22256-0.40897-0.32481-0.617-0.91638-1.5737-1.7985-3.1661-2.6935-4.7522-0.0541-0.1093-0.14081-0.20687-0.27361-0.20155z" fill="url(#linearGradient2359)"/>
    <path d="m162.85 38.623c-0.22137 0.07933-0.19684 0.35428-0.25938 0.54086-0.31605 1.2528-1.0826 2.3604-2.0721 3.1728-0.92288 0.75624-1.9626 1.3572-3.022 1.8996-1.0999 0.55295-2.2559 0.99082-3.4418 1.3195-0.17778 0.03753-0.24904 0.25191-0.15825 0.40146 0.65558 1.7638 1.3239 3.5232 2.0094 5.2754 0.0682 0.16823 0.27111 0.18444 0.41839 0.11978 2.0276-0.54064 4.039-1.1495 6.0076-1.8779 1.2998-0.48618 2.5616-1.2251 3.3848-2.3697 0.48813-0.68409 0.7992-1.4892 0.94893-2.3126-8.8e-4 -0.20473-0.17779-0.35618-0.2574-0.536-1.0894-1.831-2.1684-3.6686-3.2641-5.4956-0.0633-0.09848-0.17304-0.16951-0.29399-0.13746z" fill="url(#linearGradient2343)"/>
   </g>
   <g fill="#ff8080" stroke-width="0">
    <path d="m151.39 47.922c-0.19807 0.03666-0.3787 0.14284-0.58001 0.17518-0.37914 0.09642-0.7754 0.07585-1.1607 0.04333-0.20701 0.0062-0.25757 0.23555-0.2603 0.40277-0.0509 0.57886-0.0899 1.1613-0.0701 1.7424 0.0271 0.19483 0.28984 0.25998 0.41768 0.11856 0.49669-0.45176 1.1643-0.72623 1.8393-0.71103 0.1711-0.01745 0.41859 0.02381 0.49562-0.17492 0.0532-0.19318-0.088-0.3734-0.12632-0.55847-0.11232-0.30774-0.20161-0.62571-0.33275-0.92566-0.0485-0.0732-0.13503-0.1159-0.22248-0.11213z"/>
    <path d="m152.25 52.027c-0.75878 0.0042-1.4119 0.70336-1.4098 1.453-0.0638 0.6128 0.29174 1.2331 0.84649 1.4975 0.55442 0.29609 1.2761 0.10401 1.6702-0.36698 0.45584-0.5202 0.51032-1.339 0.12166-1.9125-0.25929-0.41542-0.73593-0.6861-1.2286-0.67103z"/>
    <path d="m150.5 56.857c-0.17026 0.12032-0.19186 0.35243-0.31344 0.51309-0.24059 0.41099-0.58765 0.74834-0.93507 1.0611-0.0949 0.09083-0.065 0.25074 0.0143 0.32882-0.55273 1.4702-0.68894 3.0924-0.38139 4.6333 0.14164 0.75323 0.40267 1.4799 0.74914 2.1625 0.33777 0.73748 0.37509 1.5883 0.15018 2.3594-0.15452 0.50463-0.42696 0.96322-0.74826 1.3787-0.13572 0.13362-0.086 0.39949 0.11709 0.42891 0.23778-0.0028 0.46496-0.09868 0.70039-0.13726 0.80177-0.18398 1.6067-0.35583 2.4066-0.5471 0.18846-0.06737 0.19405-0.32025 0.0666-0.44889-1.0026-1.2652-1.2584-3.1129-0.56546-4.5835 0.42509-0.89102 1.2602-1.5948 2.2398-1.7799 0.3816-0.10224 0.78257-0.02915 1.1673-0.0795 0.18472-0.04434 0.19158-0.27698 0.0993-0.41182-0.62702-1.4333-1.0679-2.9257-1.2787-4.4775-0.0136-0.15925-0.0466-0.37502-0.24209-0.3974-0.23151 0.02521-0.43221 0.17033-0.65957 0.22094-0.58922 0.16806-1.229 0.1633-1.8185-7.01e-4 -0.21512-0.05585-0.40845-0.17681-0.61849-0.24003-0.0521-2e-3 -0.10209-0.01087-0.14965 0.01682z"/>
   </g>
   <path d="m167.88 47.102c-0.23317 0.0679-0.25247 0.35382-0.34221 0.5422-0.47371 1.2586-1.4332 2.2672-2.5011 3.0578-1.0324 0.73361-2.1668 1.2956-3.3148 1.8255-1.7169 0.77499-3.4976 1.3987-5.3296 1.8394-0.1901 0.05721-0.18316 0.27266-0.15667 0.4321 0.18424 2.7113 1.112 5.3736 2.6961 7.5855 0.20084 0.28354 0.41078 0.56061 0.62865 0.83127-0.18908 0.17701-0.41997 0.32099-0.57086 0.5328-0.10431 0.19421 0.12529 0.4105 0.31868 0.32864 2.5563-0.57992 5.0965-1.2398 7.5929-2.0409 1.3669-0.45472 2.7455-1.0277 3.7949-2.0463 0.98179-0.91724 1.587-2.2098 1.6918-3.5469 0.0307-0.26034 0.0152-0.54625 0.0183-0.79274 0.21451-0.0064 0.31898-0.26521 0.21635-0.43918-0.37152-0.75263-0.7909-1.4813-1.1903-2.2195-1.0376-1.8679-2.073-3.7378-3.168-5.5728-0.0934-0.14028-0.17667-0.34921-0.38423-0.31696z" fill="url(#linearGradient2335)" stroke-width="0"/>
   <g fill="#ffb380" stroke-width="0">
    <path d="m159.67 66.754c-0.17744 0.03288-0.37465 0.03207-0.53329 0.12039-0.15372 0.1287-0.13317 0.35581-0.20361 0.53077-0.32765 1.1412-1.2323 2.1058-2.3699 2.4646-1.1091 0.3807-2.3882 0.20622-3.3521-0.46277-0.12088-0.10085-0.31548-0.15605-0.42658-0.0093-0.0203 0.11197-0.10156 0.13249-0.2058 0.14457-1.7837 0.40858-3.5718 0.79961-5.3538 1.2145-1.2411 0.62108-2.4883 1.2351-3.7233 1.866-0.19436 0.12829-0.0611 0.36905-0.0544 0.55309 0.0514 0.33706 0.0854 0.68175 0.13257 1.0215 0.0523 0.17579 0.26349 0.20116 0.40838 0.13002 3.5591-0.99862 7.1628-1.8449 10.794-2.53 1.2398-0.24945 2.5337-0.43707 3.6368-1.0987 0.81527-0.47628 1.5193-1.2443 1.6941-2.1965 0.0951-0.54163 0.0593-1.125-0.18597-1.623-0.0553-0.0846-0.15635-0.13522-0.25744-0.12507z"/>
    <path d="m154.63 62.581c-0.92469-0.01134-1.8329 0.49178-2.311 1.2842-0.54323 0.83887-0.64161 1.9015-0.42999 2.8623 0.28373 1.3128 1.2956 2.4771 2.6115 2.8199 0.40744 0.09953 0.82696 0.15161 1.2432 0.07794 1.0531-0.10133 2.0322-0.75451 2.5232-1.6928 0.10861-0.21894 0.22947-0.44247 0.26983-0.68514 0.0183-0.12472-0.12458-0.17684-0.12158-0.29416-0.0187-0.13189-0.0719-0.28425-0.0642-0.40048 0.18813-0.0016 0.34403-0.16562 0.31976-0.35524-0.0327-0.50267-0.18844-0.99705-0.41907-1.4435-0.5952-1.0786-1.6869-1.8612-2.8861-2.1235-0.24233-0.04319-0.49003-0.05024-0.73563-0.04959zm0.85661 1.6374c0.79664-0.0035 1.5535 0.51882 1.8471 1.2565 0.29269 0.68792 0.15158 1.5317-0.34179 2.0925-0.58954 0.71066-1.6906 0.90631-2.4925 0.45325-0.68684-0.36639-1.1278-1.1503-1.0552-1.9293 0.0608-0.90085 0.78678-1.7128 1.6855-1.8455 0.11784-0.01986 0.23749-0.02864 0.35696-0.02748z"/>
    <path d="m172.98 56.314c-0.22074 0.09751-0.17219 0.37816-0.22006 0.57288-0.20928 1.3395-0.86688 2.6004-1.8774 3.5061-1.1389 1.036-2.5984 1.6438-4.0372 2.0988-2.2951 0.72555-4.617 1.3356-6.9605 1.88-0.3212 0.08755-0.66007 0.11934-0.97097 0.23925-0.14923 0.07497-0.15915 0.26857-0.08 0.39865 0.14043 0.3743 0.2149 0.76911 0.26478 1.1639 0.0426 0.18614 0.25927 0.23474 0.41906 0.17604 2.9988-0.57149 5.9399-1.4585 8.745-2.6642 1.4718-0.64447 2.9498-1.3687 4.1216-2.4915 0.83289-0.8103 1.5193-1.857 1.6286-3.0385 0.0452-0.17843-0.0104-0.35079-0.10808-0.50057-0.22302-0.42241-0.42256-0.85882-0.66919-1.2679-0.0624-0.07148-0.16553-0.09743-0.25584-0.07298z"/>
    <path d="m155.39 54.941c-0.20692 0.09215-0.2374 0.35136-0.35546 0.52329-0.14846 0.28593-0.35636 0.53538-0.55004 0.78815-0.0782 0.17132 9e-3 0.36854 9e-3 0.55058 0.20531 1.8817 0.78259 3.711 1.613 5.4083 0.0528 0.13607 0.0361 0.05617 0.0717 0.16903 0.17075 0.17049 0.42246 0.22993 0.62208 0.36288 0.60552 0.34624 1.1464 0.80982 1.5544 1.3776 0.15043 0.19333 0.40698 0.06138 0.60137 0.03211 0.28197-0.05221 0.29346-0.43864 0.1325-0.6207-0.7701-0.97211-1.4442-2.0227-1.9703-3.147-0.75745-1.6042-1.2374-3.3172-1.4013-5.081-6e-3 -0.15581-0.0589-0.36862-0.25248-0.36762-0.025-0.01024-0.0494 0.0011-0.0742 0.0045zm0.8176 7.1611c0.0218-0.04589 0.0502-0.04637 0 0zm-0.0648 0.15848c-6e-3 -0.03418 0.0172-0.04406 0 0z"/>
    <path d="m151.59 50.058c-0.83854-0.0077-1.6494 0.45943-2.0864 1.1713-0.17648 0.18602-0.0712 0.44348-0.0513 0.66538 0.10481 0.58929 0.20186 1.1844 0.38282 1.7559 0.084 0.14858 0.18531 0.29802 0.32191 0.40241 0.16416 0.08997 0.36378-0.05713 0.34959-0.23724 8e-3 -0.36648 6e-3 -0.74931 0.18189-1.0829 0.24093-0.54393 0.75639-0.9874 1.3555-1.0608 0.33099-0.0099 0.68104-0.02375 0.97702 0.15149 0.55298 0.26672 0.92306 0.8193 1.0208 1.4177 0.0157 0.3533 0.0388 0.72084-0.10854 1.0526-0.24235 0.6942-0.93545 1.2176-1.6792 1.1998-0.48438-0.0043-0.92842-0.25609-1.2683-0.58639-0.13495-0.14632-0.41086-0.0766-0.42778 0.13211 0.0131 0.21222 0.0599 0.41999 0.0467 0.62928 0.0144 0.22823-0.0302 0.46372 0.0299 0.68597 0.14589 0.16164 0.37427 0.21311 0.56676 0.30384 1.0925 0.42194 2.424 0.07322 3.1747-0.82493 0.34738-0.4113 0.60605-0.91013 0.70793-1.44 8e-3 -0.09352-0.0406-0.18468 0.0356-0.25882 0.0817-0.26877 0.0307-0.5581 0.0186-0.83416-0.10839-1.0374-0.7402-1.9773-1.5828-2.5715-0.57354-0.39941-1.2586-0.67476-1.9652-0.67094z"/>
    <path d="m150.54 41.822c-0.1708 0.07091-0.16344 0.27206-0.10106 0.41533 0.16858 0.5602 0.41722 1.1096 0.41736 1.7056 0.0449 0.99238-0.3497 1.9864-1.0484 2.6901-0.15388 0.19756-0.17373 0.46272-0.22132 0.69968-4e-3 0.21332 0.23084 0.28882 0.40729 0.2744 0.45419 0.02995 0.9184-0.06284 1.3057-0.30858 0.74798-0.44933 1.2281-1.3022 1.2239-2.1747 0.031-0.56976-0.1018-1.1385-0.35497-1.6478-0.31471-0.66351-0.81325-1.2379-1.4264-1.6413-0.0631-0.0391-0.13362-0.02483-0.20206-0.01273z"/>
    <path d="m153.11 46.032c-0.19972 0.0069-0.24341 0.2222-0.30198 0.37026-0.17373 0.37454-0.4362 0.6959-0.69511 1.0132-0.10567 0.19367 0.0535 0.39621 0.0946 0.58697 0.21349 0.6166 0.41788 1.2384 0.64227 1.8499 0.10494 0.17297 0.33288 0.20257 0.49136 0.315 0.57884 0.32791 1.0743 0.79102 1.4623 1.3297 0.10862 0.17728 0.41251 0.23202 0.516 0.02207 0.0847-0.19618-0.0813-0.38715-0.12477-0.57376-0.6118-1.5944-1.2223-3.1895-1.8568-4.775-0.0465-0.08104-0.13015-0.14518-0.22783-0.13841z"/>
    <path d="m166.91 45.513c-0.19143 0.10618-0.2016 0.35695-0.29106 0.53667-0.28412 0.71756-0.68049 1.3972-1.2277 1.9468-0.96929 1.0046-2.2692 1.6035-3.5634 2.0585-2.1134 0.75218-4.2742 1.3623-6.4436 1.9295-0.16811 0.05501-0.19693 0.25266-0.12956 0.39619 0.16334 0.49902 0.26427 1.0263 0.23381 1.5523 0.0291 0.19116 0.25358 0.23168 0.40692 0.16382 2.7687-0.62884 5.455-1.6437 7.9247-3.0474 0.80104-0.45879 1.5648-0.99528 2.198-1.672 0.72256-0.74958 1.2744-1.6927 1.4671-2.7229 0.0243-0.21578 0.11578-0.46166-0.0429-0.64773-0.11931-0.16645-0.17918-0.40218-0.37255-0.4991-0.0536 4.37e-4 -0.10897-0.01911-0.15982 0.0054z"/>
    <path d="m161.92 37.042c-0.22109 0.08792-0.18949 0.36247-0.24034 0.55417-0.20744 1.1404-0.74678 2.2449-1.6238 3.0295-0.93136 0.84924-2.1392 1.2861-3.2912 1.7358-1.2134 0.46162-2.4433 0.87251-3.6841 1.2426-0.21025 0.10309-0.13178 0.36094-0.0852 0.53638 0.0831 0.35536 0.092 0.72111 0.1082 1.0834 0.0207 0.189 0.23961 0.26421 0.39557 0.18423 1.5961-0.37806 3.1352-0.98014 4.5772-1.7601 1.1578-0.63074 2.302-1.3422 3.1966-2.3246 0.70823-0.81116 1.2127-1.8253 1.338-2.9011 4e-3 -0.23973 0.0904-0.51266-0.0741-0.71799-0.13458-0.20677-0.23777-0.43943-0.40561-0.62184-0.0593-0.04593-0.14007-0.0528-0.21126-0.0404z"/>
    <path d="m157.7 29.55c-0.2041 0.08461-0.24017 0.33588-0.35357 0.50415-0.36039 0.65124-0.76819 1.2889-1.3241 1.7923-0.64883 0.65959-1.5184 1.0696-2.422 1.2386-1.1362 0.21621-2.2871 0.30769-3.436 0.39088-0.20806 0.01498-0.24893 0.24139-0.27145 0.40741-0.0924 0.54959-0.18127 1.1027-0.22867 1.6572-7e-3 0.19384 0.21214 0.26757 0.37237 0.2245 1.6065-0.08154 3.1835-0.52698 4.628-1.2266 1.0084-0.47812 1.901-1.1989 2.5604-2.1009 0.45564-0.61792 0.8266-1.3039 1.0867-2.0244 0.0252-0.19034-0.13913-0.34369-0.20561-0.51352-0.093-0.15702-0.17193-0.40446-0.40613-0.34967z"/>
    <path d="m155.59 18.326c-0.18427 0.12026-0.2157 0.365-0.31324 0.54879-0.216 0.5439-0.46011 1.0757-0.68789 1.6164-0.045 0.19799 0.11982 0.36663 0.17487 0.54852 0.95974 2.1499 2.0029 4.2614 3.0857 6.3516 0.0633 0.19602 0.35726 0.28383 0.47483 0.08821 0.0491-0.09638 0.0656-0.20532 0.0956-0.30845 0.0989 0.04641 0.22893-0.12836 0.23021 0.0192 0.11318 0.49244 0.11083 1.0057 0.0785 1.5075-0.0332 0.18212-0.0338 0.37332 0.0875 0.52529 2.4915 4.6234 5.1913 9.1299 7.8771 13.642 0.10522 0.17934 0.22102 0.36068 0.34255 0.52373 0.21326 0.47399 0.51269 0.90427 0.76658 1.357 0.0856 0.15174 0.18334 0.35894 0.39291 0.32622 0.59012-0.0038 1.1822 0.0075 1.7711-0.0056 0.20301-0.01282 0.26437-0.2783 0.13118-0.41212-1.8918-2.8047-3.9309-5.526-5.4672-8.5521-1.9044-3.7234-3.2847-7.6904-5.1799-11.42-1.0494-2.1116-2.2063-4.171-3.482-6.1544-0.0798-0.13688-0.20274-0.27154-0.37837-0.20151zm11.6 25.088c-7e-3 -6.1e-4 0.0271 1.1e-4 0 0z"/>
    <path d="m169.99 44.832c0.0223-0.0058-0.15444 0.0069-0.2101 0.0059-0.51439 0.01888-1.0341 0.0025-1.5499 0.03388-0.19197 0.04156-0.22598 0.28685-0.10615 0.42094 2.444 4.1685 4.8493 8.3581 6.9869 12.696 0.37083 0.73472 0.71729 1.4781 1.0824 2.2123 0.0723 0.18984 0.36116 0.21511 0.45088 0.02679 0.4681-0.89571 0.46038-1.9652 0.21896-2.9259-0.27883-1.147-0.88523-2.174-1.4214-3.2139-1.2778-2.3951-2.4849-4.8325-3.8893-7.1584-0.41351-0.6653-0.81903-1.3377-1.2738-1.9757-0.066-0.08861-0.17569-0.15135-0.28842-0.12158z"/>
   </g>
   <g fill="#ff8080" stroke-width="0">
    <path d="m174.42 59.187c-0.19289 0.09467-0.22766 0.33733-0.32628 0.5097-0.0721 0.14382-0.15324 0.342 5e-3 0.46361 0.13656 0.10358 0.29742-0.0025 0.4129-0.0678 0.0874 0.16156 0.31769 0.29494 0.47116 0.13526 0.16197-0.17825-0.0227-0.39707-0.0938-0.57109-0.0958-0.15385-0.13491-0.36197-0.29812-0.46173-0.0574-0.0072-0.11359-0.03131-0.17039-0.0079z"/>
    <path d="m160.89 66.498c-0.15624 0.02254-0.37059 0.07919-0.36059 0.27712 0.0355 0.17038 0.0544 0.37415 0.19093 0.49671 0.16172 0.13258 0.40479-0.0091 0.41039-0.20668 0.0134-0.17613 0.10897-0.4133-0.0678-0.53333-0.0554-0.03127-0.10953-0.04528-0.17296-0.03382z"/>
    <path d="m155.38 64.68c-1.2864 0.05824-1.9343 1.8399-0.97192 2.71 0.94118 1.0374 2.7846 0.01763 2.5808-1.3076-0.0636-0.8088-0.81598-1.4134-1.6089-1.4023z"/>
    <path d="m147.11 161.84c-0.23631 0.0713-0.18836 0.36054-0.19481 0.55109-0.0117 0.70318-0.0511 1.4096-0.10273 2.1068-4e-3 0.21412 0.28938 0.32165 0.42567 0.15847 0.28612-0.29374 0.58495-0.58053 0.83736-0.9036 0.0978-0.18098-0.0832-0.38049-0.27168-0.36038-0.2891-0.0896-0.35704-0.43198-0.34227-0.69666-0.0169-0.24894 0.0185-0.51742-0.087-0.74992-0.055-0.0865-0.1647-0.13233-0.26451-0.10582z"/>
   </g>
   <g fill="none" stroke="#000" stroke-width="1px">
    <path transform="matrix(1.3597 0 0 1.4601 -54.227 -54.461)" d="m147.16 151.45c3.7634-3.0928 6.4482-7.4734 7.4961-12.231 0.80088-3.6357 0.66937-7.4367 1.5781-11.047 1.0986-4.3642 3.6516-8.2065 6.3125-11.836 2.5506-3.4791 5.2517-6.8685 7.3768-10.623 2.1251-3.7542 3.6697-7.9463 3.6702-12.26 4.1e-4 -3.5317-1.0302-6.989-2.3672-10.258-4.4201-10.807-12.147-19.931-17.359-30.379-1.3424-2.6907-2.5158-5.4658-3.5108-8.3034"/>
    <path transform="matrix(.46077 -.39987 .30237 .60934 61.448 45.188)" d="m139.37 88.875c2.8722 1.1239 5.7924 2.1251 8.75 3 1.1186 0.3309 2.2472 0.64471 3.4036 0.79766s2.3478 0.14105 3.4714-0.17266c1.7609-0.49166 3.2944-1.7464 4.125-3.375"/>
    <path transform="matrix(.46077 -.39987 .30237 .60934 61.448 45.188)" d="m139.25 92c3.4606 1.5026 7.1334 2.5158 10.875 3 1.3591 0.17588 2.7387 0.28216 4.0987 0.1129 1.36-0.16926 2.7083-0.6291 3.7763-1.4879 0.71631-0.576 1.3065-1.3514 1.5-2.25 0.16396-0.76123 0.027-1.5831-0.375-2.25"/>
    <path transform="matrix(.4934 -.32913 .020312 .85883 78.151 2.7949)" d="m139.37 88.875c2.8722 1.1239 5.7924 2.1251 8.75 3 1.1186 0.3309 2.2472 0.64471 3.4036 0.79766s2.3478 0.14105 3.4714-0.17266c1.7609-0.49166 3.2944-1.7464 4.125-3.375"/>
    <path transform="matrix(.4934 -.32913 .020312 .85883 78.151 2.7949)" d="m139.25 92c3.4606 1.5026 7.1334 2.5158 10.875 3 1.3591 0.17588 2.7387 0.28216 4.0987 0.1129 1.36-0.16926 2.7083-0.6291 3.7763-1.4879 0.71631-0.576 1.3065-1.3514 1.5-2.25 0.16396-0.76123 0.027-1.5831-0.375-2.25"/>
    <path d="m149.43 40.979c1.3848 0.2921 2.5935 1.3146 3.1112 2.6317 0.3244 0.82533 0.38054 1.775 0.045 2.5959-0.29997 0.73386-0.92037 1.3407-1.6768 1.5781-0.76075 0.23884-1.6331 0.08713-2.2686-0.39453"/>
    <path d="m143.31 74.81c3.833-1.1041 7.7184-2.0261 11.639-2.7617 1.0565-0.19825 2.1291-0.38717 3.1047-0.83862 0.48777-0.22573 0.94819-0.51717 1.3368-0.88843 0.38865-0.37126 0.70425-0.82431 0.88471-1.3306 0.28526-0.80027 0.21159-1.7211-0.19727-2.4658"/>
    <path d="m159.49 63.566c-0.97627-1.1536-1.7773-2.4553-2.3672-3.8467-0.71385-1.6838-1.1171-3.4986-1.1836-5.3262"/>
    <path d="m155.64 51.336-2.2154-5.7706"/>
    <path d="m152.54 43.611-3.8146-7.6344"/>
    <path d="m147.16 70.48 5.7212-1.2917"/>
    <path d="m155.94 62.481c-0.49036-0.9443-0.88745-1.937-1.1836-2.959-0.30747-1.061-0.50611-2.1536-0.5918-3.2549"/>
    <path d="m152.59 49.955-0.8877-2.5645"/>
    <path d="m155.64 17.504c1.9025 2.8921 3.5856 5.9284 5.0303 9.0743 1.6462 3.5847 2.9871 7.319 4.9317 10.751 1.8031 3.1824 4.0991 6.0582 6.0166 9.1729 1.5121 2.4562 2.7829 5.0511 4.1426 7.5948 0.43558 0.81488 0.88248 1.6293 1.1859 2.5021s0.45896 1.8164 0.2936 2.7255c-0.12513 0.68793-0.43468 1.3414-0.8877 1.874"/>
    <path transform="translate(-9.9131 -23.793)" d="m141.87 48.875c1.844 1.3103 3.8693 2.3651 6 3.125 4.3026 1.5345 9.0354 1.8412 13.5 0.875"/>
    <path transform="translate(-9.9131 -23.793)" d="m142.5 53.125c2.6672 0.95993 5.3795 1.7945 8.125 2.5 1.526 0.39215 3.0724 0.7459 4.6461 0.82337 1.5737 0.07748 3.1875-0.13324 4.6039-0.82337 0.3118-0.15192 0.61446-0.32754 0.87834-0.55262 0.26389-0.22509 0.48868-0.50204 0.62166-0.82238 0.18034-0.43443 0.18034-0.94057 0-1.375"/>
    <path transform="translate(-9.9131 -23.793)" d="m141.62 62.5c2.5509 1.4844 5.0926 2.9844 7.625 4.5 0.89311 0.53451 1.788 1.0725 2.7403 1.4925 0.95234 0.42001 1.9695 0.72119 3.0097 0.75752 2.0388 0.0712 4.0837-0.95126 5.25-2.625"/>
    <path transform="translate(-9.9131 -23.793)" d="m142.5 66.75c2.5689 2.0759 5.5672 3.6179 8.75 4.5 1.8298 0.50713 3.7736 0.7966 5.625 0.375 0.70947-0.16156 1.4009-0.42915 1.9985-0.84422 0.59764-0.41507 1.0987-0.98325 1.3765-1.6558 0.32638-0.79028 0.32638-1.7097 0-2.5"/>
    <path transform="translate(-9.9131 -23.793)" d="m140 74.5c2.4813 1.2474 4.9401 2.5393 7.375 3.875 1.2797 0.70201 2.5614 1.4199 3.9427 1.8915s2.8852 0.68715 4.3073 0.3585c1.6421-0.37948 3.0963-1.5053 3.875-3"/>
    <path transform="translate(-9.9131 -23.793)" d="m139.87 77.5c3.1089 2.1142 6.5336 3.7631 10.125 4.875 1.2814 0.39671 2.592 0.72685 3.9299 0.82316 1.3379 0.09631 2.7103-0.04911 3.9451-0.57316 0.80494-0.34163 1.5656-0.86607 2-1.625 0.30066-0.52532 0.42967-1.1471 0.36283-1.7486-0.0668-0.60157-0.32919-1.1798-0.73783-1.6264"/>
    <path transform="translate(-9.9131 -23.793)" d="m139.37 88.875c2.8722 1.1239 5.7924 2.1251 8.75 3 1.1186 0.3309 2.2472 0.64471 3.4036 0.79766s2.3478 0.14105 3.4714-0.17266c1.7609-0.49166 3.2944-1.7464 4.125-3.375"/>
    <path transform="translate(-9.9131 -23.793)" d="m139.25 92c3.4606 1.5026 7.1334 2.5158 10.875 3 1.3591 0.17588 2.7387 0.28216 4.0987 0.1129 1.36-0.16926 2.7083-0.6291 3.7763-1.4879 0.71631-0.576 1.3065-1.3514 1.5-2.25 0.16396-0.76123 0.027-1.5831-0.375-2.25"/>
    <path transform="translate(6.0869 -20.793)" d="m122.87 46.125c-0.5776-3.61e-4 -1.1512 0.2467-1.5478 0.66662-0.3966 0.41992-0.6105 1.0067-0.57716 1.5834 0.0366 0.63258 0.37275 1.2413 0.88866 1.6092 0.5159 0.36787 1.201 0.48733 1.8109 0.31578 0.60997-0.17155 1.1323-0.63061 1.3808-1.2135s0.21808-1.2776-0.0804-1.8365c-0.18033-0.33761-0.45368-0.62493-0.78189-0.82186-0.3282-0.19692-0.71036-0.3029-1.0931-0.30314z"/>
    <path transform="translate(6.0869 -20.793)" d="m122.87 43.375c-0.73519-0.04507-1.4769 0.1653-2.1043 0.55114-0.62743 0.38584-1.1426 0.94176-1.5207 1.5739-0.49035 0.81967-0.75523 1.7779-0.72196 2.7325 0.0333 0.95456 0.36956 1.9013 0.97196 2.6425 0.83634 1.0291 2.1872 1.6205 3.5099 1.5261 1.3227-0.0944 2.5798-0.8761 3.2401-2.0261 0.38888-0.67727 0.57433-1.4646 0.56282-2.2455-0.0115-0.78089-0.21663-1.5544-0.56282-2.2545-0.32512-0.65744-0.7789-1.2573-1.3575-1.708s-1.2854-0.74714-2.0175-0.79202z"/>
    <path transform="translate(5.0426 -7.6828)" d="m122.87 46.125c-0.5776-3.61e-4 -1.1512 0.2467-1.5478 0.66662-0.3966 0.41992-0.6105 1.0067-0.57716 1.5834 0.0366 0.63258 0.37275 1.2413 0.88866 1.6092 0.5159 0.36787 1.201 0.48733 1.8109 0.31578 0.60997-0.17155 1.1323-0.63061 1.3808-1.2135s0.21808-1.2776-0.0804-1.8365c-0.18033-0.33761-0.45368-0.62493-0.78189-0.82186-0.3282-0.19692-0.71036-0.3029-1.0931-0.30314z"/>
    <path transform="translate(5.0426 -7.6828)" d="m122.87 43.375c-0.73519-0.04507-1.4769 0.1653-2.1043 0.55114-0.62743 0.38584-1.1426 0.94176-1.5207 1.5739-0.49035 0.81967-0.75523 1.7779-0.72196 2.7325 0.0333 0.95456 0.36956 1.9013 0.97196 2.6425 0.83634 1.0291 2.1872 1.6205 3.5099 1.5261 1.3227-0.0944 2.5798-0.8761 3.2401-2.0261 0.38888-0.67727 0.57433-1.4646 0.56282-2.2455-0.0115-0.78089-0.21663-1.5544-0.56282-2.2545-0.32512-0.65744-0.7789-1.2573-1.3575-1.708s-1.2854-0.74714-2.0175-0.79202z"/>
    <path transform="translate(3.4176 3.5672)" d="m122.87 46.125c-0.5776-3.61e-4 -1.1512 0.2467-1.5478 0.66662-0.3966 0.41992-0.6105 1.0067-0.57716 1.5834 0.0366 0.63258 0.37275 1.2413 0.88866 1.6092 0.5159 0.36787 1.201 0.48733 1.8109 0.31578 0.60997-0.17155 1.1323-0.63061 1.3808-1.2135s0.21808-1.2776-0.0804-1.8365c-0.18033-0.33761-0.45368-0.62493-0.78189-0.82186-0.3282-0.19692-0.71036-0.3029-1.0931-0.30314z"/>
    <path transform="translate(3.4176 3.5672)" d="m122.87 43.375c-0.73519-0.04507-1.4769 0.1653-2.1043 0.55114-0.62743 0.38584-1.1426 0.94176-1.5207 1.5739-0.49035 0.81967-0.75523 1.7779-0.72196 2.7325 0.0333 0.95456 0.36956 1.9013 0.97196 2.6425 0.83634 1.0291 2.1872 1.6205 3.5099 1.5261 1.3227-0.0944 2.5798-0.8761 3.2401-2.0261 0.38888-0.67727 0.57433-1.4646 0.56282-2.2455-0.0115-0.78089-0.21663-1.5544-0.56282-2.2545-0.32512-0.65744-0.7789-1.2573-1.3575-1.708s-1.2854-0.74714-2.0175-0.79202z"/>
    <path transform="translate(2.6676 16.692)" d="m122.87 46.125c-0.5776-3.61e-4 -1.1512 0.2467-1.5478 0.66662-0.3966 0.41992-0.6105 1.0067-0.57716 1.5834 0.0366 0.63258 0.37275 1.2413 0.88866 1.6092 0.5159 0.36787 1.201 0.48733 1.8109 0.31578 0.60997-0.17155 1.1323-0.63061 1.3808-1.2135s0.21808-1.2776-0.0804-1.8365c-0.18033-0.33761-0.45368-0.62493-0.78189-0.82186-0.3282-0.19692-0.71036-0.3029-1.0931-0.30314z"/>
    <path transform="translate(2.6676 16.692)" d="m122.87 43.375c-0.73519-0.04507-1.4769 0.1653-2.1043 0.55114-0.62743 0.38584-1.1426 0.94176-1.5207 1.5739-0.49035 0.81967-0.75523 1.7779-0.72196 2.7325 0.0333 0.95456 0.36956 1.9013 0.97196 2.6425 0.83634 1.0291 2.1872 1.6205 3.5099 1.5261 1.3227-0.0944 2.5798-0.8761 3.2401-2.0261 0.38888-0.67727 0.57433-1.4646 0.56282-2.2455-0.0115-0.78089-0.21663-1.5544-0.56282-2.2545-0.32512-0.65744-0.7789-1.2573-1.3575-1.708s-1.2854-0.74714-2.0175-0.79202z"/>
    <path transform="translate(-9.9131 -23.793)" d="m153.5 61.25 0.125-4.625"/>
    <path transform="translate(-9.9131 -23.793)" d="m154 53.375c0.85076-3.1033 1.3959-6.2903 1.625-9.5 0.17844-2.4999 0.16602-5.0161 0.5-7.5 0.10601-0.78847 0.24718-1.5808 0.19079-2.3743-0.0282-0.39678-0.10663-0.79215-0.25889-1.1596-0.15226-0.36749-0.38018-0.70681-0.6819-0.96604-0.3268-0.28077-0.72736-0.45914-1.125-0.625-1.6772-0.69954-3.437-1.2509-5.25-1.375-1.9709-0.13493-3.9379 0.23745-5.875 0.625-3.5219 0.70461-7.0444 1.467-10.625 1.75-3.7879 0.29937-7.6001 0.05829-11.375-0.375-2.8305-0.32489-5.6533-0.7581-8.5-0.875-4.0818-0.16762-8.1653 0.31696-12.25 0.25-1.7136-0.02809-3.4256-0.15336-5.125-0.375"/>
    <path transform="translate(-9.9131 -23.793)" d="m95.25 30.875c4.0919 0.79195 8.224 1.3763 12.375 1.75 6.6058 0.59471 13.246 0.65554 19.875 0.875 7.0925 0.23481 14.179 0.65166 21.25 1.25"/>
    <path transform="translate(-9.9131 -23.793)" d="m154 31.5c-0.48581 1.2541-1.582 2.255-2.875 2.625-0.78992 0.22607-1.6526 0.23351-2.375 0.625-0.44167 0.23936-0.80218 0.61052-1.0828 1.0272-0.28058 0.4167-0.48559 0.87941-0.66725 1.3478-0.71414 1.8413-1.0852 3.7965-1.375 5.75-0.39325 2.6506-0.64374 5.3225-0.75 8"/>
    <path transform="translate(-9.9131 -23.793)" d="m144.25 54-1 9.25"/>
    <path transform="translate(-9.9131 -23.793)" d="m142.5 66.75-2.25 0.375"/>
    <path transform="translate(-9.9131 -23.793)" d="m142.5 66.75-0.75 9.125"/>
    <path transform="translate(-9.9131 -23.793)" d="m141.12 78.375-1.75 10.5"/>
    <path transform="translate(-9.9131 -23.793)" d="m139.25 92-3.875 1"/>
   </g>
   <path transform="translate(-9.9131 -23.793)" d="m155.75 33.125c-0.88511 0.50426-1.7232 1.091-2.5 1.75-1.3292 1.1277-2.496 2.4993-3.125 4.125-0.44649 1.1541-0.60844 2.3957-0.75 3.625-0.35871 3.115-0.60891 6.2426-0.75 9.375" fill="url(#linearGradient2228)" stroke="#000" stroke-width="1px"/>
   <g fill="none" stroke="#000" stroke-width="1px">
    <path transform="translate(-9.9131 -23.793)" d="m147.87 54.625c-0.39097 1.5629-0.68341 3.1504-0.875 4.75-0.23333 1.9481-0.31699 3.9141-0.25 5.875"/>
    <path transform="translate(-9.9131 -23.793)" d="m145.75 69.125c-0.10223 1.1274-0.22726 2.2527-0.375 3.375-0.17614 1.3381-0.38455 2.6719-0.625 4"/>
    <path transform="translate(-9.9131 -23.793)" d="m143.87 80.375c-0.15333 1.1685-0.32001 2.3353-0.5 3.5-0.29713 1.9227-0.63055 3.8398-1 5.75"/>
    <path transform="translate(-9.9131 -23.793)" d="m141.62 93c0.0682 0.90579-0.25686 1.8344-0.875 2.5-0.5219 0.56196-1.2299 0.92856-1.9696 1.1311-0.73971 0.20253-1.5135 0.24954-2.2804 0.2439-2.5326-0.01859-5.023-0.59683-7.5-1.125-3.9081-0.8333-7.8404-1.5488-11.75-2.375-6.0128-1.2707-11.968-2.8028-17.875-4.5-2.2058-0.63382-4.4136-1.2939-6.5-2.25-0.5083-0.23292-1.0087-0.48311-1.5-0.75"/>
    <path transform="translate(-9.9131 -23.793)" d="m95.25 30.875c-0.32905 1.4012-0.57957 2.8208-0.75 4.25-0.41012 3.4392-0.35518 6.9145-0.5 10.375-0.32157 7.684-1.6293 15.31-1.75 23-0.04185 2.6664 0.05926 5.3339 0 8-0.0698 3.1404-0.36245 6.2759-0.875 9.375"/>
    <path transform="translate(-9.9131 -23.793)" d="m135.37 93c-6.9088-1.0042-13.788-2.2133-20.625-3.625-6.4746-1.3369-12.916-2.8566-19.25-4.75-1.3384-0.40008-2.6719-0.81679-4-1.25"/>
    <path transform="translate(-15.678 19.253)" d="m116.5 149.25c0.9017 1.1614 1.509 2.5495 1.75 4 0.34042 2.0489-0.0655 4.2136-1.125 6"/>
    <path transform="translate(-15.678 19.253)" d="m117.12 159.25c1.4067-0.28336 2.8862-0.19633 4.25 0.25 1.4439 0.47257 2.7729 1.3672 3.625 2.625 0.49683 0.73341 0.82702 1.588 0.89144 2.4715 0.0644 0.8835-0.14574 1.7943-0.64144 2.5285-0.4037 0.59792-1.0041 1.0757-1.7008 1.2633-0.34832 0.0938-0.71721 0.11449-1.0722 0.0506-0.35501-0.0639-0.69552-0.21327-0.97702-0.43883-0.30326-0.243-0.53546-0.57365-0.6611-0.94139s-0.14429-0.77134-0.0531-1.1491c0.0912-0.37776 0.29189-0.72841 0.57145-0.99835s0.63703-0.45825 1.0178-0.53615"/>
    <path transform="translate(-15.678 19.253)" d="m128.62 200c-0.74483-1.1412-1.3741-2.3577-1.875-3.625-1.3395-3.3888-1.7389-7.0614-2.5-10.625-0.75228-3.5225-1.8637-6.957-3-10.375-0.68641-2.0647-1.3838-4.129-2.25-6.125-0.19942-0.45951-0.4082-0.91649-0.5577-1.3946-0.14951-0.47809-0.23891-0.98167-0.1923-1.4804 0.0512-0.54771 0.27024-1.0796 0.625-1.5 0.41578-0.49273 1.0165-0.82552 1.6548-0.9167 0.63823-0.0912 1.3081 0.0601 1.8452 0.4167"/>
    <path transform="translate(-15.678 19.253)" d="m120.62 172.5c2.2609 0.63317 4.4767 1.4275 6.625 2.375 4.0987 1.8077 7.9294 4.1612 11.75 6.5 1.0145 0.62101 2.0352 1.2445 3.1389 1.6879s2.3049 0.70205 3.4861 0.56209c1.523-0.18046 2.9367-1.0368 3.875-2.25 0.76528-0.98945 1.2206-2.1887 1.4953-3.409 0.27468-1.2203 0.37804-2.4715 0.50467-3.716 0.29456-2.8947 0.77128-5.9096 2.5-8.25 0.68604-0.92877 1.55-1.7186 2.5-2.375 1.5989-1.1047 3.4529-1.8377 5.375-2.125"/>
    <path transform="translate(-15.678 19.253)" d="m121.25 176.75c2.5286 0.2895 5.0017 1.057 7.25 2.25 2.0531 1.0894 3.9032 2.5196 5.875 3.75 2.2807 1.4232 4.7245 2.5784 7.25 3.5 1.1064 0.40374 2.2374 0.76498 3.4065 0.90731 1.1691 0.14233 2.3859 0.0564 3.4685-0.40731 1.2013-0.51455 2.1739-1.4661 2.9199-2.5391 0.74606-1.073 1.287-2.2722 1.8301-3.4609 1.1311-2.4757 2.3118-5.0289 2.375-7.75 0.0163-0.70159-0.0428-1.4038-0.0125-2.1049 0.0302-0.70112 0.15632-1.4154 0.51252-2.0201 0.31644-0.53717 0.79943-0.96052 1.3271-1.2925 0.52769-0.33201 1.103-0.57977 1.6729-0.83247 1.0014-0.444 2.0244-0.9294 2.75-1.75 0.27101-0.30649 0.49584-0.65719 0.6343-1.0422 0.13845-0.38498 0.18834-0.80521 0.1157-1.2078-0.0882-0.48879-0.36021-0.94216-0.75-1.25"/>
    <path transform="translate(-15.678 19.253)" d="m116.5 149.25c-0.80393 2.1713-1.7223 4.3002-2.75 6.375-1.7705 3.5743-3.8646 6.9869-5.5 10.625-1.5756 3.505-2.7273 7.2836-2.625 11.125 0.0527 1.9806 0.46838 4.0163 1.625 5.625 0.46552 0.64746 1.0388 1.2093 1.625 1.75 6.122 5.6469 13.909 9.3132 19.75 15.25 1.9967 2.0294 3.7368 4.2966 5.375 6.625 2.6391 3.751 5.0533 7.7332 6.375 12.125 1.0437 3.468 1.4078 7.1864 3.125 10.375 0.49482 0.91879 1.1005 1.7844 1.8517 2.5088 0.75115 0.72442 1.6522 1.3052 2.6483 1.6162 0.84605 0.26415 1.7398 0.32998 2.625 0.375 6.6434 0.33791 13.295-0.39952 19.875-1.375 10.36-1.5359 20.633-3.6656 30.75-6.375"/>
    <path transform="translate(-15.678 19.253)" d="m139.25 216.75c1.0407 2.562 2.5281 4.9418 4.375 7 1.5049 1.677 3.2832 3.1624 5.375 4 1.6578 0.66383 3.4644 0.90048 5.25 0.875 1.1284-0.0161 2.2525-0.13425 3.375-0.25 11.871-1.2241 23.836-2.2035 35.375-5.25 1.7492-0.46183 3.4866-0.97074 5.25-1.375 0.65737-0.1507 1.3452-0.28663 2-0.125 0.17999 0.0444 0.35585 0.11169 0.51015 0.21446 0.15429 0.10276 0.28654 0.2425 0.36485 0.41054 0.10828 0.23236 0.1072 0.50197 0.0623 0.75435-0.0449 0.25237-0.13099 0.49555-0.18725 0.74565-0.15956 0.70929-0.0698 1.4721 0.25 2.125"/>
    <path transform="translate(-15.678 19.253)" d="m127.5 198.5c-1.0214-0.85411-2.456-1.1888-3.75-0.875-0.77902 0.18895-1.5138 0.61268-2 1.25-0.34561 0.45302-0.55637 0.99749-0.67986 1.5538s-0.1634 1.1273-0.19514 1.6962c-0.0697 1.2488-0.10167 2.4994-0.125 3.75-0.15011 8.0456 0.0585 16.098 0.625 24.125"/>
    <path transform="translate(-15.678 19.253)" d="m105.62 180.25c2.2759 4.2564 4.4846 8.5488 6.625 12.875 0.89336 1.8057 1.776 3.62 2.5 5.5 1.0844 2.8161 1.8061 5.7652 2.25 8.75 0.47362 3.1848 0.63265 6.4074 0.75 9.625 0.15494 4.2482 0.23829 8.499 0.25 12.75"/>
    <path transform="translate(-15.678 19.253)" d="m126.25 198c-0.3842 0.22559-0.7254 0.52414-1 0.875-0.36983 0.47254-0.61497 1.0329-0.78143 1.6094-0.16645 0.57651-0.25724 1.1718-0.34357 1.7656-1.3102 9.0125-1.6878 18.16-1.125 27.25"/>
    <path transform="translate(-15.678 19.253)" d="m118 229.75c1.081 0.36122 2.2526 0.448 3.375 0.25 0.55954-0.0987 1.1068-0.26708 1.625-0.5"/>
    <path transform="translate(-9.9131 -23.793)" d="m153.12 65.875c0.71017-1.7751 1.3771-3.5675 2-5.375 0.48515-1.4078 0.94359-2.8248 1.375-4.25"/>
    <path transform="translate(-9.9131 -23.793)" d="m157.62 52.75c1.2119-2.5171 2.0171-5.2294 2.375-8 0.2908-2.2513 0.31106-4.6198 1.375-6.625 0.37808-0.71257 0.87627-1.3528 1.3433-2.0105s0.91001-1.3465 1.1567-2.1145c0.1168-0.36367 0.19184-0.74953 0.40246-1.0682 0.10531-0.15932 0.24519-0.29919 0.41643-0.38376 0.17124-0.08457 0.37544-0.11 0.55611-0.04807 0.1765 0.0605 0.31836 0.19866 0.41627 0.3575 0.0979 0.15883 0.15637 0.33842 0.20873 0.5175 0.54339 1.8585 0.51556 3.8535 0.125 5.75-0.59005 2.8652-1.9713 5.4939-3.25 8.125-0.92106 1.8952-1.7964 3.8126-2.625 5.75"/>
    <path transform="translate(-9.9131 -23.793)" d="m165.12 32.375c-1.8271 0.13727-3.6858-0.1653-5.375-0.875-1.308-0.54954-2.5171-1.3388-3.875-1.75-1.6291-0.4933-3.4283-0.40334-5 0.25"/>
    <path transform="translate(-9.9131 -23.793)" d="m153.5 61.25-0.375 4.625"/>
    <path transform="translate(-9.9131 -23.793)" d="m160 55.75c-0.58902 1.8948-0.8441 3.893-0.75 5.875 0.0809 1.7041 0.41924 3.3958 1 5"/>
    <path transform="translate(-9.9131 -23.793)" d="m159.37 70.375c-0.38738 1.5052-0.51482 3.077-0.375 4.625 0.0803 0.88855 0.24799 1.7692 0.5 2.625"/>
    <path transform="translate(-9.9131 -23.793)" d="m159 82.25c-0.4977 1.2222-0.7132 2.5583-0.625 3.875 0.0693 1.0339 0.32456 2.0551 0.75 3"/>
    <path transform="matrix(1.0157 0 0 1.5975 -17.051 -77.63)" d="m157.62 94c0.36089 1.297 0.48854 2.6585 0.375 4-0.13931 1.646-0.63533 3.2406-0.875 4.875-0.26649 1.8173-0.21365 3.6637-0.25 5.5-0.043 2.1735-0.20945 4.3752 0.25 6.5 0.36229 1.6755 1.1018 3.2426 1.625 4.875 0.9904 3.0902 1.1935 6.4104 0.75 9.625-0.22271 1.6142-0.60573 3.2054-1.125 4.75-0.21158 0.62933-0.44632 1.2531-0.59022 1.9012-0.1439 0.64817-0.19431 1.3293-0.0348 1.9738 0.13985 0.56501 0.43476 1.0794 0.76175 1.5609 0.32699 0.48153 0.68985 0.93933 0.98825 1.4391 0.89286 1.4953 1.1587 3.2719 1.375 5 0.29195 2.3322 0.52101 4.7401-0.125 7-0.21733 0.76025-0.53064 1.4903-0.75 2.25-0.6276 2.1734-0.44669 4.5704 0.5 6.625"/>
    <path transform="translate(-15.678 19.253)" d="m161.25 166c0.17886 4.8234 0.72259 9.6333 1.625 14.375 1.0988 5.7737 2.7323 11.453 5 16.875 1.3712 3.2786 3.0642 6.5753 5.875 8.75 1.9721 1.5258 4.3657 2.3954 6.75 3.125 4.8615 1.4876 9.8583 2.4897 14.75 3.875 1.2285 0.34792 2.4785 0.73393 3.5 1.5 1.151 0.86315 1.9416 2.1981 2.125 3.625 0.14305 1.1128-0.0794 2.2696-0.625 3.25"/>
    <path transform="matrix(1.0157 0 0 1.5975 -17.506 -69.925)" d="m116.5 149.25c0.47178-0.49829 1.0224-0.92182 1.625-1.25 0.37317-0.20322 0.76632-0.37029 1.1264-0.59585 0.3601-0.22555 0.69274-0.51963 0.87357-0.90415 0.13064-0.27779 0.17566-0.59158 0.15434-0.89782-0.0213-0.30623-0.10712-0.60555-0.2272-0.88806-0.24016-0.56502-0.61332-1.0614-0.92714-1.5891-0.65294-1.0979-1.0519-2.3497-1.125-3.625-0.0408-0.71223 0.0185-1.426 0.0269-2.1394 8e-3 -0.71335-0.0367-1.4389-0.27685-2.1106-0.30144-0.84307-0.88899-1.5476-1.459-2.2381-0.56997-0.69049-1.1458-1.4084-1.416-2.2619-0.28703-0.9066-0.20324-1.8888-0.0254-2.823 0.17787-0.93417 0.44706-1.8543 0.52537-2.802 0.10507-1.2716-0.14368-2.568-0.69403-3.7191-0.55034-1.1511-1.3992-2.1553-2.431-2.9059-0.70595-0.51354-1.4918-0.90822-2.2055-1.4109-0.71374-0.50266-1.3727-1.1431-1.6695-1.9641-0.19397-0.53666-0.22174-1.1214-0.1696-1.6896 0.0522-0.56825 0.1815-1.1261 0.2946-1.6854 0.2416-1.1948 0.40894-2.4396 0.125-3.625-0.2677-1.1176-0.91955-2.1055-1.6484-2.9941s-1.5462-1.7047-2.2266-2.6309c-1.4799-2.0145-2.2574-4.5031-2.375-7-0.0794-1.686 0.13304-3.3854 0.625-5"/>
    <path transform="translate(-9.5287 -6.8819)" d="m96.639 81.532c0.85521-2.3277 1.0648-4.8888 0.59936-7.3246-0.22879-1.1973-0.61766-2.3639-1.153-3.4591"/>
    <path transform="translate(-9.5287 -6.8819)" d="m110.35 175.39c-0.66451 2.2622-1.5477 4.4602-2.6333 6.5532-2.1317 4.1099-5.0553 7.8502-6.4744 12.257-1.0805 3.3556-1.2317 6.9456-1.02 10.465 0.0761 1.2652 0.20203 2.546 0.65216 3.731 0.43762 1.152 1.1753 2.1815 2.0883 3.0092 0.25532 0.23145 0.52409 0.44754 0.79406 0.66171 4.2678 3.3858 8.869 6.3225 13.367 9.3964 1.456 0.99513 2.9057 2.0081 4.2264 3.1768 2.6221 2.3204 4.6827 5.2079 6.4934 8.2047 1.9552 3.2361 3.6443 6.6254 5.2566 10.045 1.6857 3.5756 3.2953 7.2031 4.4045 10.997 0.3079 1.0533 0.57924 2.1247 1.0498 3.116 0.47056 0.99135 1.1651 1.9133 2.1264 2.4424 0.99504 0.54763 2.1733 0.62717 3.3086 0.66172 9.7012 0.29521 19.294-1.8103 28.8-3.7662 7.4201-1.5266 14.857-2.9688 22.31-4.3263"/>
    <path d="m147.16 151.45-0.98633 2.959"/>
    <path d="m143.05 72.536 4.1137-2.0559"/>
    <path transform="matrix(.7156 -.4696 .4696 .7156 16.863 66.351)" d="m139.37 88.875c2.8722 1.1239 5.7924 2.1251 8.75 3 1.1186 0.3309 2.2472 0.64471 3.4036 0.79766s2.3478 0.14105 3.4714-0.17266c1.7609-0.49166 3.2944-1.7464 4.125-3.375"/>
    <path transform="matrix(.80189 -.4696 .52623 .7156 -1.914 66.351)" d="m139.25 92c3.4606 1.5026 7.1334 2.5158 10.875 3 1.3591 0.17588 2.7387 0.28216 4.0987 0.1129 1.36-0.16926 2.7083-0.6291 3.7763-1.4879 0.71631-0.576 1.3065-1.3514 1.5-2.25 0.16396-0.76123 0.027-1.5831-0.375-2.25"/>
    <path transform="matrix(.7156 -.4696 .4696 .7156 44.878 89.414)" d="m122.87 46.125c-0.5776-3.61e-4 -1.1512 0.2467-1.5478 0.66662-0.3966 0.41992-0.6105 1.0067-0.57716 1.5834 0.0366 0.63258 0.37275 1.2413 0.88866 1.6092 0.5159 0.36787 1.201 0.48733 1.8109 0.31578 0.60997-0.17155 1.1323-0.63061 1.3808-1.2135s0.21808-1.2776-0.0804-1.8365c-0.18033-0.33761-0.45368-0.62493-0.78189-0.82186-0.3282-0.19692-0.71036-0.3029-1.0931-0.30314z"/>
    <path transform="matrix(.7156 -.4696 .4696 .7156 44.878 89.414)" d="m122.87 43.375c-0.73519-0.04507-1.4769 0.1653-2.1043 0.55114-0.62743 0.38584-1.1426 0.94176-1.5207 1.5739-0.49035 0.81967-0.75523 1.7779-0.72196 2.7325 0.0333 0.95456 0.36956 1.9013 0.97196 2.6425 0.83634 1.0291 2.1872 1.6205 3.5099 1.5261 1.3227-0.0944 2.5798-0.8761 3.2401-2.0261 0.38888-0.67727 0.57433-1.4646 0.56282-2.2455-0.0115-0.78089-0.21663-1.5544-0.56282-2.2545-0.32512-0.65744-0.7789-1.2573-1.3575-1.708s-1.2854-0.74714-2.0175-0.79202z"/>
    <path transform="matrix(.60372 -.44861 .39618 .68361 35.491 53.684)" d="m139.37 88.875c2.8722 1.1239 5.7924 2.1251 8.75 3 1.1186 0.3309 2.2472 0.64471 3.4036 0.79766s2.3478 0.14105 3.4714-0.17266c1.7609-0.49166 3.2944-1.7464 4.125-3.375"/>
    <path transform="matrix(.63769 -.44799 .41847 .68267 27.589 54.07)" d="m139.25 92c3.4606 1.5026 7.1334 2.5158 10.875 3 1.3591 0.17588 2.7387 0.28216 4.0987 0.1129 1.36-0.16926 2.7083-0.6291 3.7763-1.4879 0.71631-0.576 1.3065-1.3514 1.5-2.25 0.16396-0.76123 0.027-1.5831-0.375-2.25"/>
    <path transform="matrix(.63769 -.44799 .41847 .68267 53.737 75.678)" d="m122.87 46.125c-0.5776-3.61e-4 -1.1512 0.2467-1.5478 0.66662-0.3966 0.41992-0.6105 1.0067-0.57716 1.5834 0.0366 0.63258 0.37275 1.2413 0.88866 1.6092 0.5159 0.36787 1.201 0.48733 1.8109 0.31578 0.60997-0.17155 1.1323-0.63061 1.3808-1.2135s0.21808-1.2776-0.0804-1.8365c-0.18033-0.33761-0.45368-0.62493-0.78189-0.82186-0.3282-0.19692-0.71036-0.3029-1.0931-0.30314z"/>
    <path transform="matrix(.63769 -.44799 .41847 .68267 53.737 75.678)" d="m122.87 43.375c-0.73519-0.04507-1.4769 0.1653-2.1043 0.55114-0.62743 0.38584-1.1426 0.94176-1.5207 1.5739-0.49035 0.81967-0.75523 1.7779-0.72196 2.7325 0.0333 0.95456 0.36956 1.9013 0.97196 2.6425 0.83634 1.0291 2.1872 1.6205 3.5099 1.5261 1.3227-0.0944 2.5798-0.8761 3.2401-2.0261 0.38888-0.67727 0.57433-1.4646 0.56282-2.2455-0.0115-0.78089-0.21663-1.5544-0.56282-2.2545-0.32512-0.65744-0.7789-1.2573-1.3575-1.708s-1.2854-0.74714-2.0175-0.79202z"/>
   </g>
  </g>
 </g>
</svg>
