<?xml version="1.0" encoding="UTF-8" standalone="no"?>
<svg
   xmlns:dc="http://purl.org/dc/elements/1.1/"
   xmlns:cc="http://creativecommons.org/ns#"
   xmlns:rdf="http://www.w3.org/1999/02/22-rdf-syntax-ns#"
   xmlns:svg="http://www.w3.org/2000/svg"
   xmlns="http://www.w3.org/2000/svg"
   xmlns:sodipodi="http://sodipodi.sourceforge.net/DTD/sodipodi-0.dtd"
   xmlns:inkscape="http://www.inkscape.org/namespaces/inkscape"
   version="1.1"
   id="svg4206"
   viewBox="0 0 256 256"
   sodipodi:docname="scepter.svg"
   inkscape:version="0.92.3 (2405546, 2018-03-11)">
  <sodipodi:namedview
     pagecolor="#ffffff"
     bordercolor="#666666"
     borderopacity="1"
     objecttolerance="10"
     gridtolerance="10"
     guidetolerance="10"
     inkscape:pageopacity="0"
     inkscape:pageshadow="2"
     inkscape:window-width="1920"
     inkscape:window-height="1001"
     id="namedview58"
     showgrid="false"
     inkscape:zoom="2"
     inkscape:cx="36.752806"
     inkscape:cy="137.11225"
     inkscape:window-x="-9"
     inkscape:window-y="-9"
     inkscape:window-maximized="1"
     inkscape:current-layer="svg4206"
     inkscape:snap-global="true"
     showguides="false"
     inkscape:snap-bbox="false" />
  <style
     id="style3">
    svg { cursor: default; }
  </style>
  <defs
     id="defs4208">
    <inkscape:path-effect
       effect="powerstroke"
       id="path-effect907"
       is_visible="true"
       offset_points="0.55768567,0.32361255"
       sort_points="true"
       interpolator_type="CubicBezierJohan"
       interpolator_beta="0.2"
       start_linecap_type="zerowidth"
       linejoin_type="extrp_arc"
       miter_limit="4"
       end_linecap_type="zerowidth" />
    <inkscape:path-effect
       effect="powerstroke"
       id="path-effect903"
       is_visible="true"
       offset_points="0.36787538,0.40439423"
       sort_points="true"
       interpolator_type="CubicBezierJohan"
       interpolator_beta="0.2"
       start_linecap_type="zerowidth"
       linejoin_type="extrp_arc"
       miter_limit="4"
       end_linecap_type="zerowidth" />
    <inkscape:path-effect
       effect="powerstroke"
       id="path-effect880"
       is_visible="true"
       offset_points="0.43866375,0.47000421"
       sort_points="true"
       interpolator_type="CubicBezierJohan"
       interpolator_beta="0.2"
       start_linecap_type="zerowidth"
       linejoin_type="extrp_arc"
       miter_limit="4"
       end_linecap_type="zerowidth" />
    <inkscape:path-effect
       effect="powerstroke"
       id="path-effect876"
       is_visible="true"
       offset_points="0.31349214,0.3253567"
       sort_points="true"
       interpolator_type="CubicBezierJohan"
       interpolator_beta="0.2"
       start_linecap_type="zerowidth"
       linejoin_type="extrp_arc"
       miter_limit="4"
       end_linecap_type="zerowidth" />
    <inkscape:path-effect
       effect="powerstroke"
       id="path-effect872"
       is_visible="true"
       offset_points="0.47974354,0.61540457"
       sort_points="true"
       interpolator_type="CubicBezierJohan"
       interpolator_beta="0.2"
       start_linecap_type="zerowidth"
       linejoin_type="extrp_arc"
       miter_limit="4"
       end_linecap_type="zerowidth" />
    <inkscape:path-effect
       effect="powerstroke"
       id="path-effect868"
       is_visible="true"
       offset_points="0.22476176,0.72470812"
       sort_points="true"
       interpolator_type="CubicBezierJohan"
       interpolator_beta="0.2"
       start_linecap_type="zerowidth"
       linejoin_type="extrp_arc"
       miter_limit="4"
       end_linecap_type="zerowidth" />
    <inkscape:path-effect
       effect="powerstroke"
       id="path-effect880-1"
       is_visible="true"
       offset_points="0.43759178,0.29829899"
       sort_points="true"
       interpolator_type="CubicBezierJohan"
       interpolator_beta="0.2"
       start_linecap_type="zerowidth"
       linejoin_type="extrp_arc"
       miter_limit="4"
       end_linecap_type="zerowidth" />
  </defs>
  <metadata
     id="metadata4211">
    <rdf:RDF>
      <cc:Work
         rdf:about="">
        <dc:format>image/svg+xml</dc:format>
        <dc:type
           rdf:resource="http://purl.org/dc/dcmitype/StillImage" />
        <dc:title />
      </cc:Work>
    </rdf:RDF>
  </metadata>
  <path
     style="opacity:1;fill:#ffb380;fill-opacity:1;stroke:none;stroke-width:0.03125;stroke-opacity:1"
     d="m 14.456999,231.91699 -2.093912,-0.25527 -0.267645,-0.28029 c -1.201679,-1.25844 -1.568852,-1.68748 -1.890104,-2.20853 l -0.138802,-0.22513 v -2.36652 c 0,-2.22681 0.0032,-2.36748 0.05469,-2.38274 0.03008,-0.009 0.263849,-0.0662 0.51949,-0.12718 1.545418,-0.36893 3.378281,-0.98734 4.800822,-1.6198 3.79163,-1.68576 6.835132,-4.1855 8.903296,-7.3126 0.144469,-0.21844 0.271341,-0.39716 0.281938,-0.39716 0.0106,0 0.09424,0.15117 0.185869,0.33594 0.676197,1.36349 1.672162,2.56331 3.344092,4.02859 l 0.10582,0.0927 -0.19957,0.072 c -0.411977,0.14872 -0.967377,0.39081 -1.51207,0.65909 -2.511907,1.23721 -4.64814,3.03068 -6.426006,5.39496 -0.549885,0.73125 -1.044981,1.49572 -1.602215,2.47394 -0.572501,1.00502 -1.361325,2.80794 -1.7558,4.01301 -0.08631,0.26367 -0.133699,0.3662 -0.168088,0.36368 -0.02634,-0.002 -0.990152,-0.11838 -2.141803,-0.25877 z"
     id="path2546"
     inkscape:connector-curvature="0" />
  <path
     style="fill:none;stroke:#000000;stroke-width:1.17255211px;stroke-linecap:butt;stroke-linejoin:miter;stroke-opacity:1"
     d="M 200.3899,63.317028 28.748654,211.68971 31.912896,215.391 203.72758,66.988605 Z"
     id="path947"
     inkscape:connector-curvature="0" />
  <path
     style="fill:none;stroke:#000000;stroke-width:1.17255211px;stroke-linecap:butt;stroke-linejoin:miter;stroke-opacity:1"
     d="m 203.72759,66.988605 3.06798,0.535692 1.31201,-1.145001 c -2.58161,-1.969661 -4.52271,-4.767346 -6.14843,-7.56243 l -1.43733,1.011295 -0.13192,3.488867"
     id="path959"
     inkscape:connector-curvature="0"
     sodipodi:nodetypes="cccccc" />
  <path
     style="fill:none;stroke:#000000;stroke-width:1.17255211px;stroke-linecap:butt;stroke-linejoin:miter;stroke-opacity:1"
     d="m 202.75665,59.722228 5.63391,-4.872981 c 1.25806,2.220562 3.20344,4.093725 4.75924,5.645199 l -5.71109,5.059379"
     id="path963"
     inkscape:connector-curvature="0" />
  <path
     style="fill:none;stroke:#000000;stroke-width:1.17255211px;stroke-linecap:butt;stroke-linejoin:miter;stroke-opacity:1"
     d="m 28.748654,211.68971 -3.999834,1.60039 c -3.068838,5.72717 -8.625316,9.02922 -15.280261,10.43132 v 5.38509 c -2.24853,3.76468 -1.168826,4.73764 2.583068,3.12561"
     id="path972"
     inkscape:connector-curvature="0" />
  <path
     style="fill:none;stroke:#000000;stroke-width:1.17255211px;stroke-linecap:butt;stroke-linejoin:miter;stroke-opacity:1"
     d="m 31.912908,215.391 -2.434498,4.03739 c -6.312489,1.87366 -10.479424,7.0128 -12.406093,13.40624 l -5.02069,-0.60251 c -5.886822,3.34011 -4.545419,0.018 -2.583068,-3.12561"
     id="path974"
     inkscape:connector-curvature="0"
     sodipodi:nodetypes="cccc" />
  <path
     style="fill:none;stroke:#000000;stroke-width:1.17255211px;stroke-linecap:butt;stroke-linejoin:miter;stroke-opacity:1"
     d="m 9.468559,229.10651 c 0.625811,1.20998 1.712142,2.1363 2.583068,3.12561"
     id="path978"
     inkscape:connector-curvature="0" />
  <path
     style="fill:none;stroke:#000000;stroke-width:1.17255211px;stroke-linecap:butt;stroke-linejoin:miter;stroke-opacity:1"
     d="m 24.74882,213.2901 c 0.843739,2.82663 2.741492,4.48906 4.72959,6.13829"
     id="path980"
     inkscape:connector-curvature="0" />
  <path
     style="fill:none;stroke:#000000;stroke-width:1.17255211px;stroke-linecap:butt;stroke-linejoin:miter;stroke-opacity:1"
     d="m 213.1498,60.494446 5.5124,-2.581404 1.52801,1.581632 2.11013,-1.543982 c -4.02578,-2.955679 -7.44219,-6.880268 -10.04129,-11.636328 l -1.67355,1.694615 1.09144,1.694615 -3.28638,5.145653"
     id="path986"
     inkscape:connector-curvature="0"
     sodipodi:nodetypes="cccccccc" />
  <path
     style="fill:none;stroke:#000000;stroke-width:1.17255211px;stroke-linecap:butt;stroke-linejoin:miter;stroke-opacity:1"
     d="m 211.67694,49.703583 c 1.89361,3.087284 4.79425,5.913218 6.98526,8.209459"
     id="path990"
     inkscape:connector-curvature="0" />
  <path
     style="fill:none;stroke:#000000;stroke-width:1.17255211px;stroke-linecap:butt;stroke-linejoin:miter;stroke-opacity:1"
     d="m 222.30035,57.950692 c 1.87138,-4.196748 6.27433,-5.47017 10.4009,-7.122305 l 3.9103,-1.49117 c 8.0749,-2.005056 10.38803,-5.648823 10.18733,-12.86678 l -0.30876,-2.417839 c -2.05712,-2.445122 -5.36066,-6.397674 -7.04881,-8.574299 l -2.16094,-0.745591 c -8.1894,-2.816342 -11.48865,2.052869 -14.04619,8.734058 l -1.90369,3.195401 c -2.86285,5.246767 -5.42378,8.854116 -9.07149,9.652197"
     id="path994"
     inkscape:connector-curvature="0"
     sodipodi:nodetypes="cccccccccc" />
  <path
     style="fill:none;stroke:#000000;stroke-width:1.17255211px;stroke-linecap:butt;stroke-linejoin:miter;stroke-opacity:1"
     d="m 223.23424,33.466766 c 3.98548,5.246707 9.62018,12.033722 13.37731,15.870439"
     id="path998"
     inkscape:connector-curvature="0"
     sodipodi:nodetypes="cc" />
  <path
     style="fill:none;stroke:#000000;stroke-width:1.17255211px;stroke-linecap:butt;stroke-linejoin:miter;stroke-opacity:1"
     d="m 246.49017,34.052586 1.45913,-1.1445 c -0.79265,-4.161819 -3.44729,-7.296225 -7.27631,-8.774308 l -1.23163,1.344521"
     id="path1000"
     inkscape:connector-curvature="0"
     sodipodi:nodetypes="cccc" />
  <path
     style="fill:none;stroke:#000000;stroke-width:1.17255211px;stroke-linecap:butt;stroke-linejoin:miter;stroke-opacity:1"
     d="m 221.28166,36.862188 c 3.07153,5.097696 7.57224,9.571005 11.53294,13.933477"
     id="path1002"
     inkscape:connector-curvature="0" />
  <path
     style="fill:none;stroke:#000000;stroke-width:1.17255211px;stroke-linecap:butt;stroke-linejoin:miter;stroke-opacity:1"
     d="m 173.76742,86.551987 c 0.61837,1.900446 1.16028,2.526814 3.16519,3.53984"
     id="path1022"
     inkscape:connector-curvature="0"
     sodipodi:nodetypes="cc" />
  <path
     style="fill:none;stroke:#000000;stroke-width:1.17255211px;stroke-linecap:butt;stroke-linejoin:miter;stroke-opacity:1"
     d="m 169.33002,90.389718 c 0.61835,1.900458 1.16026,2.526814 3.16519,3.53984"
     id="path1022-7"
     inkscape:connector-curvature="0"
     sodipodi:nodetypes="cc" />
  <path
     style="fill:none;stroke:#000000;stroke-width:1.17255211px;stroke-linecap:butt;stroke-linejoin:miter;stroke-opacity:1"
     d="m 150.38402,106.72221 c 0.61837,1.90045 1.16028,2.52681 3.16519,3.53984"
     id="path1022-5"
     inkscape:connector-curvature="0"
     sodipodi:nodetypes="cc" />
  <path
     style="fill:none;stroke:#000000;stroke-width:1.17255211px;stroke-linecap:butt;stroke-linejoin:miter;stroke-opacity:1"
     d="m 146.10043,110.31083 c 0.61836,1.90045 1.16027,2.5268 3.16519,3.53984"
     id="path1022-2"
     inkscape:connector-curvature="0"
     sodipodi:nodetypes="cc" />
  <path
     style="fill:none;stroke:#000000;stroke-width:1.17255211px;stroke-linecap:butt;stroke-linejoin:miter;stroke-opacity:1"
     d="m 126.30486,127.25263 c 0.61836,1.90045 1.16027,2.5268 3.16518,3.53984"
     id="path1022-57"
     inkscape:connector-curvature="0"
     sodipodi:nodetypes="cc" />
  <path
     style="fill:none;stroke:#000000;stroke-width:1.17255211px;stroke-linecap:butt;stroke-linejoin:miter;stroke-opacity:1"
     d="m 121.7257,131.27347 c 0.61836,1.90044 1.16027,2.5268 3.16519,3.53983"
     id="path1022-8"
     inkscape:connector-curvature="0"
     sodipodi:nodetypes="cc" />
  <path
     style="fill:none;stroke:#000000;stroke-width:1.17255211px;stroke-linecap:butt;stroke-linejoin:miter;stroke-opacity:1"
     d="m 193.01134,69.762228 c 0.61837,1.900446 1.16028,2.526802 3.16519,3.53984"
     id="path1022-6"
     inkscape:connector-curvature="0"
     sodipodi:nodetypes="cc" />
  <path
     style="fill:none;stroke:#000000;stroke-width:1.17255211px;stroke-linecap:butt;stroke-linejoin:miter;stroke-opacity:1"
     d="m 102.97173,147.67646 c 0.61836,1.90045 1.16027,2.52682 3.16519,3.53984"
     id="path1022-87"
     inkscape:connector-curvature="0"
     sodipodi:nodetypes="cc" />
  <path
     style="fill:none;stroke:#000000;stroke-width:1.17255211px;stroke-linecap:butt;stroke-linejoin:miter;stroke-opacity:1"
     d="m 98.85563,151.08491 c 0.61837,1.90046 1.16027,2.52682 3.16519,3.53984"
     id="path1022-52"
     inkscape:connector-curvature="0"
     sodipodi:nodetypes="cc" />
  <path
     style="fill:none;stroke:#000000;stroke-width:1.17255211px;stroke-linecap:butt;stroke-linejoin:miter;stroke-opacity:1"
     d="m 33.33252,207.61666 c 0.618355,1.90046 1.160264,2.52681 3.165188,3.53984"
     id="path1022-3"
     inkscape:connector-curvature="0"
     sodipodi:nodetypes="cc" />
  <path
     style="fill:none;stroke:#000000;stroke-width:1.17255211px;stroke-linecap:butt;stroke-linejoin:miter;stroke-opacity:1"
     d="m 52.523814,191.5865 c 0.618366,1.90044 1.160275,2.5268 3.165188,3.53983"
     id="path1022-9"
     inkscape:connector-curvature="0"
     sodipodi:nodetypes="cc" />
  <path
     style="fill:none;stroke:#000000;stroke-width:1.17255211px;stroke-linecap:butt;stroke-linejoin:miter;stroke-opacity:1"
     d="m 56.408385,188.23134 c 0.618355,1.90044 1.160264,2.5268 3.165188,3.53984"
     id="path1022-66"
     inkscape:connector-curvature="0"
     sodipodi:nodetypes="cc" />
  <path
     style="fill:none;stroke:#000000;stroke-width:1.17255211px;stroke-linecap:butt;stroke-linejoin:miter;stroke-opacity:1"
     d="m 79.43279,168.12699 c 0.61837,1.90045 1.16028,2.5268 3.16519,3.53984"
     id="path1022-1"
     inkscape:connector-curvature="0"
     sodipodi:nodetypes="cc" />
  <path
     style="fill:none;stroke:#000000;stroke-width:1.17255211px;stroke-linecap:butt;stroke-linejoin:miter;stroke-opacity:1"
     d="m 75.4196,171.5088 c 0.618366,1.90045 1.160275,2.5268 3.165188,3.53983"
     id="path1022-877"
     inkscape:connector-curvature="0"
     sodipodi:nodetypes="cc" />
  <path
     style="fill:none;stroke:#000000;stroke-width:1.17255211px;stroke-linecap:butt;stroke-linejoin:miter;stroke-opacity:1"
     d="m 243.99414,25.951258 1.18852,-1.67758 h 4.24987 l -0.86438,4.548106 -1.90884,0.410075"
     id="path1852"
     inkscape:connector-curvature="0" />
  <path
     style="fill:none;stroke:#000000;stroke-width:1.17255211px;stroke-linecap:butt;stroke-linejoin:miter;stroke-opacity:1"
     d="m 242.15733,28.821784 c -5.71399,1.848865 -10.23135,6.335996 -13.75805,10.848352"
     id="path2284"
     inkscape:connector-curvature="0" />
  <path
     style="fill:none;stroke:#000000;stroke-width:1.17255211px;stroke-linecap:butt;stroke-linejoin:miter;stroke-opacity:1"
     d="m 243.85008,30.760321 c -2.38093,4.672898 -8.18347,9.011337 -12.64157,12.041298"
     id="path2286"
     inkscape:connector-curvature="0"
     sodipodi:nodetypes="cc" />
  <path
     style="fill:none;stroke:#000000;stroke-width:1.17255211px;stroke-linecap:butt;stroke-linejoin:miter;stroke-opacity:1"
     d="m 245.39876,32.959815 c 0.0927,7.87436 -4.83803,11.265363 -10.69671,13.979835"
     id="path2288"
     inkscape:connector-curvature="0"
     sodipodi:nodetypes="cc" />
  <path
     style="fill:none;stroke:#000000;stroke-width:1.17255211px;stroke-linecap:butt;stroke-linejoin:miter;stroke-opacity:1"
     d="m 244.39031,31.804149 c -0.78601,6.993737 -5.56427,10.830544 -10.76873,13.793437"
     id="path2290"
     inkscape:connector-curvature="0" />
  <path
     style="fill:none;stroke:#000000;stroke-width:1.17255211px;stroke-linecap:butt;stroke-linejoin:miter;stroke-opacity:1"
     d="m 240.46459,26.771408 c -6.60372,-1.728622 -11.97324,2.849371 -15.27072,8.797976"
     id="path2292"
     inkscape:connector-curvature="0"
     sodipodi:nodetypes="cc" />
  <path
     style="fill:none;stroke:#000000;stroke-width:1.17255211px;stroke-linecap:butt;stroke-linejoin:miter;stroke-opacity:1"
     d="m 241.43701,27.964354 c -7.45246,-0.454536 -11.30887,3.866293 -15.12665,8.947094"
     id="path2294"
     inkscape:connector-curvature="0"
     sodipodi:nodetypes="cc" />
  <path
     style="opacity:1;fill:#ffb380;fill-opacity:1;stroke:none;stroke-width:0.00390625;stroke-opacity:1"
     d="m 9.2633483,232.38879 c -0.1637275,-0.0121 -0.2831882,-0.051 -0.3207934,-0.10432 -0.069049,-0.098 -0.06826,-0.33716 0.00212,-0.64173 0.066478,-0.28771 0.1984824,-0.64305 0.3918081,-1.05469 0.048291,-0.10283 0.1589878,-0.32422 0.1621096,-0.32422 0.00144,0 0.025346,0.0303 0.053113,0.0673 0.1949741,0.26009 0.4260157,0.53657 0.7025804,0.84075 0.153444,0.16876 0.290612,0.31476 0.604742,0.64367 0.09614,0.10066 0.174805,0.18442 0.174805,0.18613 0,0.003 -0.08206,0.0329 -0.240234,0.0865 -0.493656,0.16713 -0.900935,0.26365 -1.2433308,0.29465 -0.080813,0.007 -0.227349,0.0104 -0.2869154,0.006 z"
     id="path2454"
     inkscape:connector-curvature="0" />
  <path
     style="opacity:1;fill:#ffb380;fill-opacity:1;stroke:none;stroke-width:0.015625;stroke-opacity:1"
     d="m 29.034879,218.27386 c -0.464458,-0.40254 -0.701004,-0.61994 -1.068288,-0.98181 -0.890974,-0.87785 -1.471922,-1.62516 -1.968263,-2.53189 -0.173214,-0.31643 -0.523453,-1.10184 -0.50108,-1.12367 0.01475,-0.0144 3.065705,-1.22889 3.076548,-1.22469 0.02338,0.009 2.601618,3.03533 2.597309,3.04865 -0.0088,0.0272 -1.839573,3.05732 -1.847164,3.05724 -0.0043,-4e-5 -0.134375,-0.10976 -0.289062,-0.24383 z"
     id="path2469"
     inkscape:connector-curvature="0" />
  <path
     style="opacity:1;fill:#ffb380;fill-opacity:1;stroke:none;stroke-width:0.015625;stroke-opacity:1"
     d="m 30.784879,213.15452 c -0.653125,-0.76465 -1.187425,-1.3947 -1.187334,-1.40012 9.2e-5,-0.005 0.787157,-0.6902 1.749032,-1.52172 l 1.748865,-1.51186 0.150537,0.30873 c 0.250337,0.51341 0.480151,0.85245 0.8091,1.19364 0.363974,0.37752 0.78052,0.69191 1.362612,1.02844 0.107422,0.0621 0.200568,0.11789 0.206992,0.12397 0.0092,0.009 -3.488372,3.04789 -3.618351,3.14406 -0.0334,0.0247 -0.05346,0.002 -1.221453,-1.36514 z"
     id="path2471"
     inkscape:connector-curvature="0" />
  <path
     style="opacity:1;fill:#ffb380;fill-opacity:1;stroke:none;stroke-width:0.015625;stroke-opacity:1"
     d="m 55.178225,194.17299 c -0.880989,-0.51952 -1.290056,-0.92897 -1.649589,-1.65113 -0.17721,-0.35595 -0.440449,-1.06128 -0.411518,-1.10263 0.0078,-0.0112 0.647045,-0.56651 1.420482,-1.23405 0.773438,-0.66754 1.420931,-1.22714 1.438874,-1.24355 l 0.03262,-0.0298 0.09757,0.24644 c 0.19729,0.49832 0.455678,0.97868 0.702398,1.30583 0.364686,0.48356 0.749674,0.81584 1.506218,1.29998 0.01969,0.0126 -0.257903,0.25921 -1.4323,1.27247 -0.801194,0.69126 -1.463307,1.25878 -1.471362,1.26115 -0.0081,0.002 -0.113083,-0.0537 -0.233396,-0.12467 z"
     id="path2473"
     inkscape:connector-curvature="0" />
  <path
     style="opacity:1;fill:#ffb380;fill-opacity:1;stroke:none;stroke-width:0.01104854;stroke-opacity:1"
     d="m 78.362006,174.26202 c -0.395445,-0.21519 -0.769603,-0.45514 -1.021636,-0.65516 -0.176906,-0.14041 -0.455289,-0.42486 -0.574524,-0.58705 -0.241638,-0.3287 -0.456676,-0.76127 -0.651626,-1.31082 l -0.04863,-0.13708 1.509573,-1.30488 c 0.830265,-0.71768 1.513209,-1.30488 1.517653,-1.30488 0.0044,0 0.0141,0.0186 0.02146,0.0414 0.02303,0.0713 0.172752,0.41615 0.247095,0.56909 0.438017,0.90109 1.032415,1.51927 2.031351,2.11263 0.05941,0.0353 0.110413,0.068 0.113333,0.0727 0.0029,0.005 -0.66733,0.58963 -1.489445,1.29977 l -1.494756,1.29118 z"
     id="path2475"
     inkscape:connector-curvature="0" />
  <path
     style="opacity:1;fill:#ffb380;fill-opacity:1;stroke:none;stroke-width:0.01104854;stroke-opacity:1"
     d="m 101.89215,153.88859 c -0.65161,-0.34845 -1.07641,-0.64011 -1.3984,-0.96012 -0.3823,-0.37994 -0.645802,-0.83056 -0.914819,-1.56443 l -0.03279,-0.0894 1.551639,-1.34134 c 0.8534,-0.73774 1.55533,-1.3426 1.55985,-1.34415 0.005,-0.002 0.0373,0.0681 0.0728,0.15468 0.46737,1.13918 1.08571,1.83195 2.24692,2.51739 0.0865,0.0511 0.15615,0.096 0.15468,0.0998 -0.004,0.0103 -3.03734,2.6282 -3.04524,2.62815 -0.004,-2e-5 -0.0913,-0.0452 -0.19465,-0.10049 z"
     id="path2477"
     inkscape:connector-curvature="0" />
  <path
     style="opacity:1;fill:#ffb380;fill-opacity:1;stroke:none;stroke-width:0.01104854;stroke-opacity:1"
     d="m 124.79823,134.09647 c -0.29962,-0.1597 -0.54506,-0.30393 -0.77033,-0.45268 -0.81226,-0.53636 -1.18168,-1.02351 -1.57308,-2.07443 l -0.0276,-0.0741 1.81404,-1.56808 c 0.99772,-0.86245 1.81856,-1.56903 1.82407,-1.57018 0.006,-0.001 0.0479,0.0815 0.0943,0.18376 0.35979,0.79376 0.80247,1.34946 1.47563,1.85233 0.23692,0.17698 0.59708,0.40658 0.91426,0.58282 0.0592,0.0329 0.10647,0.0631 0.10496,0.0671 -0.003,0.009 -3.64078,3.15124 -3.65217,3.15533 -0.004,0.002 -0.096,-0.0444 -0.20407,-0.10194 z"
     id="path2479"
     inkscape:connector-curvature="0" />
  <path
     style="opacity:1;fill:#ffb380;fill-opacity:1;stroke:none;stroke-width:0.01104854;stroke-opacity:1"
     d="m 149.13447,113.11319 c -0.43921,-0.23637 -0.81494,-0.47237 -1.08151,-0.67929 -0.18594,-0.14433 -0.48379,-0.44534 -0.60779,-0.61422 -0.1746,-0.23779 -0.31926,-0.49685 -0.46123,-0.82596 -0.0946,-0.21922 -0.21043,-0.53255 -0.20199,-0.54621 0.006,-0.009 3.21078,-2.78226 3.26808,-2.8276 0.0165,-0.013 0.02,-0.0123 0.026,0.006 0.004,0.0113 0.0445,0.11007 0.0904,0.21945 0.46085,1.09861 1.06464,1.77192 2.19164,2.44396 l 0.19509,0.11634 -1.427,1.2326 c -0.78485,0.67794 -1.51458,1.30849 -1.62161,1.40124 l -0.1946,0.16863 z"
     id="path2481"
     inkscape:connector-curvature="0" />
  <path
     style="opacity:1;fill:#ffb380;fill-opacity:1;stroke:none;stroke-width:0.01104854;stroke-opacity:1"
     d="m 172.20521,93.104745 c -0.93112,-0.516172 -1.39442,-0.924882 -1.75186,-1.545414 -0.14002,-0.243072 -0.29845,-0.602985 -0.43377,-0.985411 l -0.0594,-0.167819 1.7292,-1.494987 c 0.95107,-0.822243 1.73459,-1.496241 1.74116,-1.497773 0.007,-0.0015 0.0414,0.07056 0.0773,0.160204 0.32337,0.806644 0.73452,1.401846 1.30875,1.894568 0.27067,0.232258 0.64767,0.493299 1.02483,0.709612 l 0.0787,0.04515 -1.6628,1.436102 c -0.91454,0.789857 -1.69874,1.46692 -1.74266,1.504584 l -0.0798,0.06848 z"
     id="path2483"
     inkscape:connector-curvature="0" />
  <path
     style="opacity:1;fill:#ffb380;fill-opacity:1;stroke:none;stroke-width:0.01104854;stroke-opacity:1"
     d="m 196.18042,72.637238 c -0.14324,-0.07462 -0.45389,-0.248255 -0.59542,-0.332803 -0.94519,-0.564623 -1.38386,-1.072836 -1.76665,-2.046696 -0.12876,-0.327579 -0.13766,-0.355743 -0.11815,-0.373951 0.0836,-0.07805 6.63208,-5.73037 6.63891,-5.73037 0.0107,0 2.51876,2.756707 2.52657,2.777045 0.006,0.01537 -6.59532,5.723223 -6.62371,5.727304 -0.01,0.0014 -0.0373,-0.0079 -0.0616,-0.02053 z"
     id="path2485"
     inkscape:connector-curvature="0" />
  <path
     style="opacity:1;fill:#ffe680;fill-opacity:1;stroke:none;stroke-width:0.02209709;stroke-opacity:1"
     d="m 176.64866,89.262065 c -0.71501,-0.396138 -1.17335,-0.750109 -1.4803,-1.143204 -0.25688,-0.32897 -0.41377,-0.627087 -0.64194,-1.21977 -0.12177,-0.31632 -0.12424,-0.326961 -0.0834,-0.360166 0.0231,-0.01882 4.14052,-3.57713 9.14972,-7.907358 5.0092,-4.330228 9.11551,-7.87021 9.12513,-7.866626 0.01,0.0036 0.0687,0.120896 0.13123,0.260695 0.4627,1.033901 1.03701,1.650969 2.16691,2.328227 l 0.24773,0.148486 -0.17039,0.149347 c -0.24809,0.217454 -18.15178,15.676665 -18.1908,15.707117 -0.0264,0.02057 -0.0769,0.0013 -0.25388,-0.09675 z"
     id="path2487"
     inkscape:connector-curvature="0" />
  <path
     style="opacity:1;fill:#ffe680;fill-opacity:1;stroke:none;stroke-width:0.02209709;stroke-opacity:1"
     d="m 153.2994,109.44983 c -0.50524,-0.28011 -0.8131,-0.48437 -1.10262,-0.73156 -0.33267,-0.28404 -0.57211,-0.60199 -0.79908,-1.06113 -0.14136,-0.28594 -0.35149,-0.80309 -0.35149,-0.86502 0,-0.0145 4.03898,-3.51781 8.97551,-7.785147 l 8.97551,-7.758792 0.0697,0.172811 c 0.4609,1.142515 1.0783,1.849062 2.20518,2.523587 0.1072,0.06417 0.18675,0.124 0.17678,0.132956 -0.0223,0.02005 -17.85925,15.419635 -17.90644,15.459615 -0.0285,0.0242 -0.0667,0.0105 -0.24307,-0.0873 z"
     id="path2489"
     inkscape:connector-curvature="0" />
  <path
     style="opacity:1;fill:#ffe680;fill-opacity:1;stroke:none;stroke-width:0.02209709;stroke-opacity:1"
     d="m 129.38001,130.06923 c -1.1402,-0.60799 -1.69043,-1.1096 -2.06743,-1.88473 -0.0984,-0.20232 -0.28968,-0.65743 -0.27926,-0.66445 0.002,-0.002 4.22917,-3.65446 9.39279,-8.11739 l 9.38838,-8.11443 0.0928,0.21841 c 0.2537,0.59702 0.65488,1.19322 1.04755,1.55676 0.31429,0.29098 0.7319,0.59543 1.16032,0.84592 l 0.21779,0.12734 -0.0521,0.0495 c -0.0286,0.0272 -4.2135,3.64195 -9.29969,8.03278 -5.0862,4.39082 -9.27249,8.00506 -9.30288,8.03163 l -0.0552,0.0483 z"
     id="path2491"
     inkscape:connector-curvature="0" />
  <path
     style="opacity:1;fill:#ffe680;fill-opacity:1;stroke:none;stroke-width:0.02209709;stroke-opacity:1"
     d="m 105.99024,150.465 c -0.0425,-0.025 -0.2066,-0.12001 -0.3646,-0.2111 -1.02311,-0.58984 -1.47153,-1.11344 -1.88767,-2.20412 l -0.1096,-0.28726 0.0485,-0.0472 c 0.0267,-0.0259 4.016,-3.4753 8.8652,-7.66525 4.84921,-4.18995 8.84173,-7.64116 8.87227,-7.66936 l 0.0555,-0.0513 0.10113,0.22788 c 0.44371,0.99988 1.08347,1.67977 2.18533,2.32244 0.13977,0.0815 0.25676,0.15069 0.26,0.15371 0.0106,0.01 -17.89556,15.46897 -17.92244,15.47303 -0.0145,0.002 -0.0611,-0.0165 -0.10362,-0.0415 z"
     id="path2493"
     inkscape:connector-curvature="0" />
  <path
     style="opacity:1;fill:#ffe680;fill-opacity:1;stroke:none;stroke-width:0.02209709;stroke-opacity:1"
     d="m 82.368459,170.86907 c -0.599833,-0.33092 -0.95759,-0.58397 -1.284764,-0.90877 -0.294159,-0.29202 -0.482683,-0.5612 -0.669766,-0.95632 -0.124656,-0.26328 -0.350852,-0.84826 -0.339325,-0.87756 0.0109,-0.0277 18.494883,-15.99973 18.516052,-15.99973 0.01054,0 0.01916,0.0114 0.01916,0.0253 0,0.0139 0.06787,0.16553 0.150822,0.33698 0.461725,0.9543 1.007768,1.53045 2.036272,2.14857 0.16436,0.0988 0.29883,0.18508 0.29883,0.19179 0,0.0101 -18.498382,15.99609 -18.596411,16.07071 -0.02366,0.018 -0.05604,0.0103 -0.130872,-0.0309 z"
     id="path2495"
     inkscape:connector-curvature="0" />
  <path
     style="opacity:1;fill:#ffe680;fill-opacity:1;stroke:none;stroke-width:0.02209709;stroke-opacity:1"
     d="m 58.986812,190.76528 c -1.046343,-0.63054 -1.471777,-1.16902 -1.899518,-2.40425 l -0.09734,-0.2811 0.06629,-0.0639 c 0.133094,-0.12825 18.001061,-15.56258 18.028722,-15.5732 0.01902,-0.007 0.05639,0.0575 0.112119,0.19445 0.168279,0.41347 0.437372,0.87943 0.69288,1.19977 0.353655,0.44339 0.840783,0.84972 1.467429,1.22401 l 0.192801,0.11517 -0.170704,0.14962 c -0.162546,0.14247 -17.989096,15.53568 -18.058296,15.59332 -0.02756,0.023 -0.08391,-0.003 -0.334385,-0.15392 z"
     id="path2497"
     inkscape:connector-curvature="0" />
  <path
     style="opacity:1;fill:#ffe680;fill-opacity:1;stroke:none;stroke-width:0.02209709;stroke-opacity:1"
     d="m 36.505955,210.48737 c -0.03646,-0.0217 -0.180644,-0.10189 -0.320408,-0.1783 -0.353952,-0.1935 -0.769528,-0.46979 -1.009333,-0.67106 -0.448509,-0.37643 -0.751861,-0.82738 -1.034481,-1.5378 l -0.08288,-0.20832 0.117625,-0.10104 c 0.06469,-0.0556 4.129546,-3.56897 9.033006,-7.80755 l 8.915381,-7.70651 0.116258,0.2886 c 0.44596,1.10707 0.956296,1.74108 1.916263,2.38065 0.271012,0.18056 0.281412,0.19027 0.243068,0.22696 -0.185278,0.17731 -17.767938,15.34222 -17.794019,15.34721 -0.01881,0.004 -0.06403,-0.0112 -0.100485,-0.0328 z"
     id="path2499"
     inkscape:connector-curvature="0" />
  <path
     style="fill:none;stroke:#000000;stroke-width:1px;stroke-linecap:butt;stroke-linejoin:miter;stroke-opacity:1"
     d="m 225.1875,42.25 c -3.39239,2.318303 -6.84599,5.956838 -9.6875,8.90625"
     id="path2503"
     inkscape:connector-curvature="0" />
  <path
     style="fill:none;stroke:#000000;stroke-width:1px;stroke-linecap:butt;stroke-linejoin:miter;stroke-opacity:1"
     d="m 223.34375,39.9375 c -2.66816,2.751161 -6.41321,6.068147 -9.4375,9.28125"
     id="path2509"
     inkscape:connector-curvature="0"
     sodipodi:nodetypes="cc" />
  <path
     style="fill:none;stroke:#000000;stroke-width:1px;stroke-linecap:butt;stroke-linejoin:miter;stroke-opacity:1"
     d="m 227.96875,45.78125 c -2.92433,2.68264 -6.61507,5.579081 -9.96875,8.1875"
     id="path2511"
     inkscape:connector-curvature="0"
     sodipodi:nodetypes="cc" />
  <path
     style="fill:none;stroke:#000000;stroke-width:1px;stroke-linecap:butt;stroke-linejoin:miter;stroke-opacity:1"
     d="m 230.03125,47.9375 c -3.05041,2.334339 -6.59107,5.490348 -9.96875,7.8125"
     id="path2515"
     inkscape:connector-curvature="0"
     sodipodi:nodetypes="cc" />
  <path
     style="opacity:1;fill:#ffb380;fill-opacity:1;stroke:none;stroke-width:0.02209709;stroke-opacity:1"
     d="m 205.32329,66.661339 -1.28163,-0.224238 -1.51852,-1.667182 -1.51852,-1.667182 2e-4,-0.154679 c 3.2e-4,-0.236177 0.10238,-2.796292 0.11178,-2.80374 0.005,-0.0036 0.15196,-0.107683 0.32761,-0.231307 0.25096,-0.176625 0.32477,-0.218801 0.34459,-0.196901 0.0139,0.01533 0.11786,0.181997 0.23109,0.370375 1.05733,1.758996 2.31394,3.463827 3.46081,4.695244 0.37314,0.400641 1.04927,1.061287 1.37834,1.34677 0.15191,0.131796 0.284,0.24655 0.29352,0.25501 0.0136,0.01207 -0.34088,0.340082 -0.51449,0.476099 -0.026,0.02041 -0.30758,-0.02205 -1.31478,-0.198269 z"
     id="path2557"
     inkscape:connector-curvature="0" />
  <path
     style="opacity:1;fill:#ffb380;fill-opacity:1;stroke:none;stroke-width:0.02209709;stroke-opacity:1"
     d="m 206.7577,64.368242 c -0.95481,-0.967515 -1.72958,-1.921231 -2.6616,-3.276339 -0.46461,-0.675531 -0.72932,-1.102496 -0.70026,-1.129501 0.0432,-0.04014 4.77512,-4.126606 4.81401,-4.157357 0.0305,-0.02411 0.0634,0.01447 0.25098,0.294232 0.74522,1.11148 1.6991,2.230039 3.2308,3.78857 l 0.57573,0.585809 -2.48084,2.19764 c -1.36446,1.208701 -2.48995,2.200679 -2.5011,2.204394 -0.0111,0.0037 -0.24862,-0.224637 -0.52772,-0.507448 z"
     id="path2559"
     inkscape:connector-curvature="0" />
  <path
     style="opacity:1;fill:#ffb380;fill-opacity:1;stroke:none;stroke-width:0.02209709;stroke-opacity:1"
     d="m 212.65578,59.151003 c -1.30177,-1.317062 -2.02041,-2.124273 -2.72844,-3.064739 -0.23939,-0.317971 -0.64667,-0.912806 -0.78631,-1.1484 l -0.0458,-0.07734 1.28498,-2.015226 c 0.70674,-1.108374 1.29098,-2.015736 1.29831,-2.016359 0.007,-6.23e-4 0.0612,0.07096 0.11971,0.15907 0.36102,0.543691 1.08441,1.489375 1.74524,2.281525 0.89365,1.071243 1.73141,1.989416 3.32432,3.643438 0.41999,0.436102 0.76573,0.799047 0.76831,0.806544 0.003,0.01007 -3.06789,1.455982 -4.25099,2.001242 l -0.11415,0.05261 z"
     id="path2561"
     inkscape:connector-curvature="0" />
  <path
     style="opacity:1;fill:#ffb380;fill-opacity:1;stroke:none;stroke-width:0.02209709;stroke-opacity:1"
     d="m 219.39558,57.805207 c -1.55456,-1.610574 -2.06869,-2.145066 -2.47164,-2.569545 -2.01844,-2.126241 -3.35881,-3.744303 -4.34696,-5.247546 -0.53856,-0.819294 -1.21298,-1.880625 -1.2062,-1.898176 0.012,-0.03097 0.74733,-0.783003 0.75631,-0.773461 0.005,0.0049 0.0901,0.14815 0.19005,0.318298 2.0548,3.499409 4.56228,6.544796 7.47226,9.075204 0.37677,0.327632 1.01191,0.851415 1.29426,1.067358 0.11124,0.08507 0.20229,0.159652 0.20233,0.165729 7e-5,0.01036 -0.93975,0.6988 -1.00301,0.734725 -0.0201,0.0114 -0.29714,-0.261051 -0.8874,-0.872586 z"
     id="path2563"
     inkscape:connector-curvature="0" />
  <path
     style="opacity:1;fill:#ffb380;fill-opacity:1;stroke:none;stroke-width:0.02209709;stroke-opacity:1"
     d="m 217.76994,53.054087 c -0.38578,-0.415979 -0.97953,-1.112538 -1.50424,-1.764694 l -0.082,-0.101888 0.67825,-0.704655 c 0.96384,-1.001363 2.84795,-2.891446 3.57573,-3.587071 1.29437,-1.237191 2.32082,-2.144385 3.38085,-2.988082 0.54147,-0.430961 1.14513,-0.881015 1.17314,-0.874617 0.0132,0.003 0.18797,0.199404 0.38827,0.436396 0.47404,0.560897 0.85153,0.996842 1.43398,1.656068 0.26062,0.294968 0.47676,0.543957 0.48032,0.553309 0.004,0.0094 -0.21967,0.218169 -0.49605,0.464037 -1.54855,1.377605 -3.46496,2.969864 -5.84123,4.853225 -1.21793,0.965294 -2.93215,2.306564 -2.94793,2.306564 -0.005,0 -0.11232,-0.111866 -0.23911,-0.248592 z"
     id="path2565"
     inkscape:connector-curvature="0" />
  <path
     style="opacity:1;fill:#ffb380;fill-opacity:1;stroke:none;stroke-width:0.02209709;stroke-opacity:1"
     d="m 213.80434,47.772883 c -0.33108,-0.535633 -0.65284,-1.07993 -0.64315,-1.087946 0.004,-0.003 0.0613,-0.02289 0.1281,-0.04424 0.36493,-0.116544 1.04917,-0.438781 1.48273,-0.698278 2.08059,-1.245302 4.03633,-3.599289 6.29617,-7.578267 l 0.20758,-0.365496 0.41353,0.619613 c 0.22744,0.340787 0.52772,0.778712 0.66728,0.973166 l 0.25375,0.353553 -0.35711,0.360951 c -0.55114,0.557055 -1.64779,1.620884 -3.3181,3.218777 -2.04114,1.952642 -2.69479,2.588856 -3.84492,3.742377 -0.53475,0.536325 -0.97752,0.975185 -0.98394,0.975244 -0.006,5.9e-5 -0.14228,-0.211196 -0.30192,-0.469456 z"
     id="path2567"
     inkscape:connector-curvature="0" />
  <path
     style="opacity:1;fill:#ffb380;fill-opacity:1;stroke:none;stroke-width:0.02209709;stroke-opacity:1"
     d="m 221.80772,56.823035 c -0.37066,-0.294928 -1.09595,-0.896169 -1.08874,-0.902529 0.003,-0.0029 0.22474,-0.161981 0.49212,-0.353506 1.33418,-0.955697 2.65954,-1.995286 5.59056,-4.38514 1.23137,-1.004022 2.61693,-2.119224 3.09719,-2.492865 l 0.092,-0.07157 0.41625,0.44824 c 0.75192,0.809731 1.34421,1.4555 1.3503,1.472234 0.003,0.009 -0.22044,0.103972 -0.49719,0.210949 -2.17031,0.838954 -3.20019,1.279067 -4.23589,1.81019 -2.24639,1.151987 -3.75362,2.472019 -4.76619,4.174212 -0.0994,0.167109 -0.18175,0.303146 -0.18299,0.302304 -0.001,-8.42e-4 -0.12157,-0.09648 -0.26741,-0.212521 z"
     id="path2569"
     inkscape:connector-curvature="0" />
  <path
     style="opacity:1;fill:#ff8080;fill-opacity:1;stroke:none;stroke-width:0.02209709;stroke-opacity:1"
     d="m 219.48333,54.806226 c -0.24076,-0.228796 -0.51079,-0.490357 -0.60007,-0.581247 l -0.16232,-0.165254 0.35014,-0.272906 c 3.72506,-2.903315 6.24238,-4.957273 8.21372,-6.701834 0.29004,-0.256671 0.56998,-0.503907 0.62209,-0.549414 l 0.0948,-0.08274 0.64405,0.701458 0.64406,0.701458 -0.0729,0.05891 c -0.0401,0.0324 -0.42093,0.336091 -0.8463,0.674871 -0.42537,0.338779 -1.4794,1.191509 -2.34229,1.894954 -2.99552,2.442006 -4.39173,3.530374 -5.80468,4.524831 l -0.3025,0.212906 z"
     id="path2571"
     inkscape:connector-curvature="0" />
  <path
     style="opacity:1;fill:#ff8080;fill-opacity:1;stroke:none;stroke-width:0.02209709;stroke-opacity:1"
     d="m 215.38873,50.134433 c -0.25949,-0.352297 -0.68523,-0.967281 -0.68523,-0.989815 0,-0.06684 2.28318,-2.331293 4.19845,-4.164022 2.22908,-2.133014 2.98846,-2.864872 3.62917,-3.49767 0.38641,-0.381628 0.70575,-0.689882 0.70965,-0.685009 0.004,0.0049 0.0827,0.10946 0.17501,0.232415 0.0923,0.122955 0.3381,0.43982 0.5461,0.704144 0.20801,0.264324 0.37521,0.483175 0.37155,0.486336 -0.004,0.0032 -0.18563,0.139399 -0.40439,0.302751 -2.11546,1.57965 -4.38008,3.687741 -8.02168,7.467239 l -0.35389,0.367287 z"
     id="path2573"
     inkscape:connector-curvature="0" />
  <path
     style="opacity:1;fill:#ff8080;fill-opacity:1;stroke:none;stroke-width:0.02209709;stroke-opacity:1"
     d="m 224.44048,34.053056 -0.52712,-0.684941 0.2159,-0.534358 c 1.14715,-2.839216 2.25438,-4.730634 3.54502,-6.055773 1.27752,-1.311662 2.65837,-2.00747 4.39753,-2.215897 0.38623,-0.04629 1.30935,-0.05179 1.71253,-0.0102 1.24936,0.128858 2.08765,0.331926 3.8007,0.920683 0.44967,0.15455 0.86453,0.297061 0.9219,0.316691 0.0994,0.034 0.0622,0.0357 -0.78445,0.03582 -0.94907,1.37e-4 -1.17602,0.01632 -1.86611,0.133032 -2.3098,0.390664 -4.49498,1.50179 -6.53526,3.323071 -1.50079,1.339695 -2.92736,3.099532 -4.12146,5.084294 -0.11333,0.188377 -0.21191,0.349258 -0.21906,0.357513 -0.007,0.0083 -0.2502,-0.293216 -0.54012,-0.669933 z"
     id="path2575"
     inkscape:connector-curvature="0" />
  <path
     style="opacity:1;fill:#ff8080;fill-opacity:1;stroke:none;stroke-width:0.02209709;stroke-opacity:1"
     d="m 228.14842,38.733997 c -0.12569,-0.154142 -1.2218,-1.515397 -1.25121,-1.553866 -0.0202,-0.02641 0.25909,-0.403668 0.95673,-1.292412 2.48439,-3.164923 4.50863,-4.976793 6.81266,-6.097899 1.3706,-0.666916 2.73803,-1.041622 4.39894,-1.205408 0.35077,-0.03459 1.92474,-0.06913 1.99103,-0.0437 0.0268,0.01029 -0.0955,0.06902 -0.39043,0.187534 -4.17173,1.676179 -8.2143,4.942616 -12.11803,9.791481 -0.13209,0.164071 -0.25094,0.31021 -0.2641,0.324754 -0.018,0.01987 -0.0517,-0.0076 -0.13559,-0.110484 z"
     id="path2577"
     inkscape:connector-curvature="0" />
  <path
     style="opacity:1;fill:#ff8080;fill-opacity:1;stroke:none;stroke-width:0.02209709;stroke-opacity:1"
     d="m 233.02918,44.53566 c -0.21996,-0.252183 -0.58519,-0.672304 -0.81162,-0.933602 l -0.41168,-0.475087 0.0501,-0.03791 c 0.0276,-0.02085 0.26887,-0.188666 0.53624,-0.37292 5.35789,-3.692238 8.99572,-7.017487 11.06001,-10.109674 0.15776,-0.236325 0.28685,-0.421793 0.28685,-0.41215 0,0.0096 -0.0301,0.196331 -0.0669,0.414862 -0.43136,2.560662 -1.47782,4.833132 -3.14916,6.83863 -1.49442,1.793209 -3.46546,3.397056 -6.18589,5.033507 -0.54097,0.325409 -0.86605,0.512862 -0.88941,0.512862 -0.0102,0 -0.19854,-0.206332 -0.4185,-0.458515 z"
     id="path2579"
     inkscape:connector-curvature="0" />
  <path
     style="opacity:1;fill:#ff8080;fill-opacity:1;stroke:none;stroke-width:0.02209709;stroke-opacity:1"
     d="m 236.50042,48.358448 c -0.5461,-0.573874 -1.02565,-1.092082 -1.02419,-1.106742 8.1e-4,-0.0081 0.36624,-0.195513 0.81207,-0.416535 2.27639,-1.128527 3.93001,-2.198436 5.3405,-3.455358 0.38212,-0.340508 1.08377,-1.062811 1.39401,-1.435036 1.40497,-1.685664 2.25813,-3.491493 2.69318,-5.700502 0.0825,-0.418793 0.1774,-1.081618 0.20181,-1.409236 0.008,-0.112419 0.0218,-0.204398 0.0298,-0.204398 0.008,0 0.0714,0.449952 0.14092,0.999893 0.12633,0.999358 0.1264,1.000213 0.12582,1.596515 -0.003,3.413107 -0.62084,5.683922 -2.025,7.446718 -0.26483,0.332472 -0.90656,0.968901 -1.26781,1.257331 -0.33521,0.267643 -0.98711,0.707646 -1.37002,0.924696 -1.00093,0.567381 -2.27002,1.090915 -3.64805,1.504925 -0.47896,0.143898 -1.04689,0.301576 -1.08617,0.301563 -0.0152,-4e-6 -0.1578,-0.13673 -0.31682,-0.303834 z"
     id="path2581"
     inkscape:connector-curvature="0" />
  <path
     style="opacity:1;fill:#ffb380;fill-opacity:1;stroke:none;stroke-width:0.02209709;stroke-opacity:1"
     d="m 230.9448,42.109645 c -0.0425,-0.05101 -0.37592,-0.449546 -0.74092,-0.885633 -0.36501,-0.436087 -0.77586,-0.929303 -0.913,-1.096036 l -0.24934,-0.303151 0.12747,-0.160888 c 3.77714,-4.767392 7.64375,-7.997543 11.57591,-9.670486 0.5619,-0.239062 1.18587,-0.472947 1.20446,-0.451473 0.10832,0.125124 1.08953,1.321773 1.10779,1.351021 0.0629,0.100703 -0.94922,1.607839 -1.67408,2.492875 -2.19263,2.677146 -5.37136,5.392861 -10.15103,8.672437 l -0.20998,0.144081 z"
     id="path2583"
     inkscape:connector-curvature="0" />
  <path
     style="opacity:1;fill:#ffb380;fill-opacity:1;stroke:none;stroke-width:0.02209709;stroke-opacity:1"
     d="m 226.01348,36.072476 c -0.0437,-0.05773 -0.11588,-0.151071 -0.1604,-0.207426 l -0.081,-0.102466 0.17002,-0.295282 c 1.48417,-2.577578 3.2681,-4.675159 5.23474,-6.155133 1.27421,-0.958887 2.74176,-1.676306 4.12358,-2.015819 0.90659,-0.22275 1.37377,-0.277368 2.37296,-0.277424 0.92121,-5.1e-5 1.34585,0.04332 2.17619,0.222262 0.31385,0.06764 0.35407,0.09738 0.13186,0.09752 -0.23828,1.48e-4 -0.84025,0.03839 -1.23634,0.07855 -2.58265,0.261823 -4.88911,1.174341 -7.02687,2.780082 -1.16721,0.876729 -2.36868,2.033544 -3.58394,3.450746 -0.54995,0.641336 -1.39878,1.700475 -1.90719,2.379727 -0.0608,0.08119 -0.11582,0.148067 -0.12234,0.148621 -0.007,5.55e-4 -0.0476,-0.04622 -0.0913,-0.103952 z"
     id="path2585"
     inkscape:connector-curvature="0" />
  <path
     style="opacity:1;fill:#ffb380;fill-opacity:1;stroke:none;stroke-width:0.02209709;stroke-opacity:1"
     d="m 234.52113,46.212567 c -0.053,-0.05637 -0.13422,-0.143358 -0.1805,-0.193308 l -0.0841,-0.09082 0.49312,-0.29391 c 2.5142,-1.498509 4.38448,-2.930585 5.88241,-4.504178 2.11846,-2.225464 3.44572,-4.690233 4.07743,-7.571932 l 0.0871,-0.397236 0.001,0.265165 c 7e-4,0.14584 -0.009,0.439179 -0.0207,0.651864 -0.24384,4.287004 -2.10019,7.389481 -5.94358,9.933371 -1.14446,0.757508 -2.56284,1.537716 -4.03598,2.220076 l -0.18004,0.0834 z"
     id="path2587"
     inkscape:connector-curvature="0" />
  <path
     style="opacity:1;fill:#ffb380;fill-opacity:1;stroke:none;stroke-width:0.02209709;stroke-opacity:1"
     d="m 232.21234,49.252325 c -0.41492,-0.45213 -1.14081,-1.240043 -1.61309,-1.750919 -3.10463,-3.358387 -4.64958,-5.14272 -6.19824,-7.158668 -0.8207,-1.068335 -1.85788,-2.560211 -2.36901,-3.407576 l -0.0828,-0.137207 0.66949,-1.125448 c 0.36822,-0.618996 0.67613,-1.121479 0.68423,-1.116629 0.008,0.0048 0.18149,0.225015 0.38528,0.489256 3.64682,4.728446 8.09688,10.029169 11.30202,13.462477 0.28931,0.309912 0.52486,0.57342 0.52343,0.585573 -0.002,0.01867 -2.49588,0.985347 -2.53387,0.982257 -0.007,-5.85e-4 -0.35256,-0.370987 -0.76748,-0.823116 z"
     id="path2589"
     inkscape:connector-curvature="0" />
  <path
     style="opacity:1;fill:#ffb380;fill-opacity:1;stroke:none;stroke-width:0.02209709;stroke-opacity:1"
     d="m 245.62369,32.083762 c -2.05669,-2.455429 -3.65863,-4.401213 -4.87704,-5.923842 -0.28048,-0.350518 -0.50905,-0.6428 -0.50794,-0.649516 0.001,-0.0067 0.13493,-0.158678 0.29737,-0.337693 l 0.29534,-0.325482 0.16976,0.07266 c 0.48012,0.205503 1.2624,0.636992 1.75457,0.96779 0.25035,0.168261 0.6909,0.501265 0.95018,0.718221 0.28476,0.238274 1.02653,0.986698 1.2737,1.285131 0.81298,0.981555 1.42701,2.0561 1.87518,3.281546 0.15883,0.434288 0.4198,1.343323 0.4198,1.462284 0,0.02547 -0.11864,0.133244 -0.32399,0.294306 -0.17819,0.139764 -0.33625,0.261489 -0.35125,0.2705 -0.0182,0.01097 -0.34075,-0.357873 -0.97568,-1.115903 z"
     id="path2591"
     inkscape:connector-curvature="0" />
  <path
     style="opacity:1;fill:#ffb380;fill-opacity:1;stroke:none;stroke-width:0.02209709;stroke-opacity:1"
     d="m 246.76711,28.299481 c -0.4249,-0.669447 -0.93002,-1.293818 -1.56315,-1.932173 l -0.44832,-0.452012 0.0718,-0.101663 c 0.0395,-0.05591 0.206,-0.292169 0.37007,-0.525011 l 0.29831,-0.423349 1.60996,-7.72e-4 1.60996,-7.73e-4 -0.0121,0.04972 c -0.007,0.02734 -0.15244,0.790523 -0.32392,1.695951 -0.17147,0.905428 -0.31618,1.661355 -0.32158,1.679837 -0.007,0.02453 -0.15757,0.06492 -0.55684,0.149542 -0.30086,0.06377 -0.55278,0.115764 -0.55981,0.115551 -0.007,-2.21e-4 -0.0855,-0.114894 -0.1743,-0.254847 z"
     id="path2593"
     inkscape:connector-curvature="0" />
</svg>
