<svg xmlns="http://www.w3.org/2000/svg" xmlns:xlink="http://www.w3.org/1999/xlink" viewBox="0 0 256 256"><defs><linearGradient id="a" x1="36.89846" y1="208.76589" x2="81.85346" y2="208.76589" gradientTransform="matrix(1, 0, 0, -1, 0, 258)" gradientUnits="userSpaceOnUse"><stop offset="0" stop-color="#ffb380"/><stop offset="1" stop-color="#f95"/></linearGradient><linearGradient id="b" x1="-15.94211" y1="131.99686" x2="80.12222" y2="123.70538" gradientTransform="matrix(1, 0, 0, -1, 0, 258)" gradientUnits="userSpaceOnUse"><stop offset="0" stop-color="#f55"/><stop offset="0.105" stop-color="#ff8080"/><stop offset="0.777" stop-color="#ff8080"/><stop offset="1" stop-color="#f55"/></linearGradient><linearGradient id="c" x1="63.0561" y1="102.4927" x2="117.30766" y2="102.4927" xlink:href="#b"/><linearGradient id="d" x1="5.22211" y1="107.73238" x2="117.23863" y2="101.08093" xlink:href="#b"/><linearGradient id="e" x1="73.65005" y1="179.54737" x2="114.73152" y2="190.25291" xlink:href="#a"/><linearGradient id="f" x1="127.78098" y1="217.76015" x2="200.05528" y2="217.76015" xlink:href="#a"/><linearGradient id="g" x1="177.82674" y1="130.94795" x2="144.02004" y2="128.12299" gradientTransform="matrix(1, 0, 0, -1, 0, 258)" gradientUnits="userSpaceOnUse"><stop offset="0" stop-color="#f55"/><stop offset="1" stop-color="#ff8080"/></linearGradient><linearGradient id="h" x1="165.44347" y1="197.20658" x2="237.71777" y2="197.20658" xlink:href="#a"/><linearGradient id="i" x1="145.71548" y1="107.4238" x2="234.11015" y2="107.4238" gradientTransform="matrix(1, 0, 0, -1, 0, 258)" gradientUnits="userSpaceOnUse"><stop offset="0" stop-color="#f55"/><stop offset="0.40597" stop-color="#ff8080"/><stop offset="1" stop-color="#f55"/></linearGradient></defs><path d="M38.01446,56.58087c2.593,26.95307,2.89028,51.53139,4.76106,81.979-.8101,11.00253,1.19563,33.88728-1.26211,38.66285-3.15394.75642-12.86866,3.79506-14.40764,9.14168-.73979,7.17376-1.0565,15.962.8815,16.10868.9611.8646-2.60629,4.41207,9.84051,5.67008,4.63641-.40727,3.3318.42239,7.68425-.606,6.88355-1.706-4.03988,1.85649,3.08273-.966,5.47058-2.39187.14412,2.71729,10.955-4.89738,17.10954-14.11621,4.47456-1.94055,12.904-10.91985,4.40931-31.59134,5.07881-99.97113,8.3287-133.88617Z" style="fill:none"/><path d="M80.78246,56.86773l1.071-14.00056c-5.766-1.581-41.046-1.7383-44.955-.2387.29,3.71957.285,8.85525,1.116,13.9524C55.93289,57.5394,66.25885,55.79426,80.78246,56.86773Z" style="stroke:#000;stroke-width:1.0345900058746338px;fill-rule:evenodd;fill:url(#a)"/><path d="M38.01446,56.58087l42.768.28686c-1.178,4.6976-4.47879,137.36121-9.91584,135.5589-10.17743,10.78327-28.90614,20.83559-41.20948,12.99306-4.24069-2.70314-3.088-15.50074-3.088-15.50074.03769-5.92281,4.50635-11.43019,9.37041-11.16968C53.2,179.67368,35.99308,57.616,38.01443,56.58086" style="stroke:#000;stroke-width:1.0345900058746338px;fill:url(#b)"/><path d="M26.93985,188.16611a3.95974,3.95974,0,0,0,.01225,2.751c1.821-8.1151,10.68717-8.74129,17.2189-10.24528C37.86648,179.856,30.18184,181.79569,26.93985,188.16611Z"/><path d="M74.53967,79.72616c2.593,26.95307,2.89028,51.53137,4.76107,81.979-.81012,11.00253,1.19564,33.88728-1.26213,38.66285-3.15393.75642-12.86865,3.79506-14.40763,9.14167-.7398,7.17377-1.0565,15.962.8815,16.10869.96109.8646-2.6063,4.41207,9.84051,5.67008,4.63641-.40728,3.3318.42239,7.68425-.606,6.88355-1.706-4.03988,1.8565,3.08273-.966,5.47058-2.39188.14412,2.71729,10.955-4.89738,17.10955-14.11621,4.47458-1.94056,12.904-10.91985,4.40931-31.59134,5.07882-99.97112,8.32869-133.88617Z" style="fill:url(#c)"/><path d="M117.30766,80.013l1.071-14.00056c-5.766-1.581-41.046-1.73829-44.955-.2387.29,3.71957.285,8.85525,1.116,13.9524C92.4581,80.68469,102.78406,78.93955,117.30766,80.013Z" style="fill:#f55;stroke:#000;stroke-width:1.0345900058746338px;fill-rule:evenodd"/><path d="M74.53966,79.72616l42.768.28686c-1.178,4.69767-4.47876,137.36109-9.91584,135.55889C97.2144,226.35516,78.48567,236.40749,66.18234,228.565c-4.2407-2.70314-3.088-15.50073-3.088-15.50073.0377-5.92281,4.55819-11.92426,9.37041-11.16966C88.44211,204.4,72.51826,80.76138,74.53962,79.72622" style="stroke:#000;stroke-width:1.0345900058746338px;fill:url(#d)"/><path d="M63.46506,211.31139a3.96,3.96,0,0,0,.0122,2.751c1.821-8.11511,10.68715-8.74127,17.21888-10.24527-6.30506-.81553-13.98857,1.12363-17.23114,7.49414Z"/><path d="M75.775,79.088l-.74538-.14907a114.60407,114.60407,0,0,1-.859-12.60577c.84505-.90449,26.64491-1.25333,36.95635-.49969a44.242,44.242,0,0,1,6.51.73571c.067.59395-.68624,10.21216-.86648,12.49735C109.06261,79.091,78.071,79.28073,75.775,79.088Z" style="fill:#f55;fill-rule:evenodd"/><path d="M75.775,79.08825l-.74538-.14932c-.5027-3.43155-1.09055-12.36251-.72772-12.663,1.16831-.77292,19.61286-1.15275,31.90554-.657,5.59041.22544,11.18067.68383,11.4164.93615.08559.60517-.67338,10.21745-.85331,12.51285-7.708.02426-38.6995.21343-40.99555.02034Z" style="fill:#f55;fill-rule:evenodd"/><path d="M80.929,79.39668a55.05628,55.05628,0,0,1-5.90764-.29138c-.6463-2.90838-.90225-11.20173-1.02071-12.90073,5.53928-1.07351,22.96266-1.11362,35.95414-.5043,2.575.26033,6.64033.21853,7.82995.91524-.0022.3974-.96832,12.71929-1,12.75323-6.59861-.64159-27.42412.23011-35.85574.02791Z" style="fill-rule:evenodd;fill:url(#e)"/><path d="M197.68732,46.76991l1.6896-11.9766c-9.0964-1.3524-64.75395-1.487-70.92076-.20418.45751,3.18185.44962,7.5751,1.76061,11.93539C158.48477,47.34452,174.775,45.85162,197.68732,46.76991Z" style="stroke:#000;stroke-width:1.2018799781799316px;fill-rule:evenodd;fill:url(#f)"/><path d="M130.21677,46.52451c2.77458,25.315,3.77006,46.47966,28.66053,66.309,6.37982,18.47825-6.33626,59.61627-13.74858,71.66977-2.92811.64708-5.44627.62663-14.145,1.20166-9.69835,5.32859-13.22536,23.5497.30681,26.28325,12.924,1.6928,27.43368,1.94769,39.94964-.67856,3.00272-3.29,8.31438-17.75035,11.14914-24.45921,9.06333-14.95174,19.42728-52.86812,22.06313-64.498,1.6354-8.52672-5.66811-10.50087-8.46053-25.26128-.713-22.53578-.13714-26.66742,1.69545-50.32119Z" style="fill:none"/><path d="M130.21675,46.52452c.28186,15.80537,5.823,45.0124,19.8984,58.501,3.09513,3.91351,10.00492,6.96564,10.17983,10.99671,1.06252,24.48634-7.30945,57.31427-14.72738,67.67925-1.82654,2.5522-11.04471,1.55121-13.701,1.65463-7.62808,2.91622-12.12008,15.30742-7.82923,22.3373,6.17173,9.0135,44.881,5.4207,47.814,3.31088,3.91448-6.62006,25.02166-56.68683,32.71461-87.42057,1.92811-7.703-6.862-16.03234-8.13689-24.54925-2.12746-20.67888-.993-34.06411,1.25835-52.26447Z" style="stroke:#000;stroke-width:0.921999990940094px;fill:url(#g)"/><path d="M123.81166,195.106a7.88751,7.88751,0,0,0-.99682,2.2636,7.88706,7.88706,0,0,0,1.75595-1.74187l-.01.01441c4.12044-6.313,12.02763-8.39786,19.209-7.17879l-.005-.00081a12.202,12.202,0,0,0,3.09671.03528C138.87916,185.38336,128.63913,187.81261,123.81166,195.106Z"/><path d="M235.34981,67.32348l1.6896-11.97659c-9.0964-1.3524-64.75395-1.487-70.92076-.20419.45751,3.18186.44962,7.57511,1.76061,11.93539C196.14728,67.89805,212.43745,66.4052,235.34981,67.32348Z" style="stroke:#000;stroke-width:1.2018799781799316px;fill-rule:evenodd;fill:url(#h)"/><path d="M167.87926,67.07809c2.77451,25.315,3.77009,46.47966,28.66053,66.309,6.37982,18.47826-6.33626,59.61626-13.74858,71.66979-2.92811.64708-5.44627.62662-14.145,1.20164-9.69834,5.3286-13.22539,23.5497.3068,26.28324,12.92395,1.69279,27.43368,1.9477,39.94963-.67856,3.00272-3.29,8.31439-17.75034,11.14915-24.4592,9.06332-14.95175,19.42727-52.8681,22.06312-64.49805,1.63541-8.52671-5.6681-10.50086-8.46052-25.26127-.713-22.53578-.13715-26.66742,1.69545-50.32119Z" style="fill:none"/><path d="M167.87926,67.07809c.28184,15.80537,5.8229,45.01241,19.89835,58.501,3.09513,3.9135,10.00492,6.96564,10.17983,10.99671C199.02,161.0621,190.648,193.89,183.23006,204.255c-1.82654,2.55221-11.04471,1.5512-13.701,1.65464-7.62808,2.91622-12.12008,15.30744-7.82923,22.33733,6.17172,9.01351,44.881,5.42068,47.814,3.31088,3.91447-6.62006,25.02168-56.68682,32.71461-87.42058,1.92813-7.703-6.862-16.03235-8.13687-24.54925-2.12747-20.67888-.993-34.06411,1.25836-52.26448Z" style="stroke:#000;stroke-width:0.921999990940094px;fill:url(#i)"/><path d="M161.47415,215.65958a7.88706,7.88706,0,0,0-.99682,2.26359,7.887,7.887,0,0,0,1.756-1.74187l-.01.01441c4.602-7.237,13.46575-8.18294,21.28912-7.07549.29344-.009.54212-.02609.71871-.04069.08869-.007.15988-.01421.20942-.0193a.14164.14164,0,0,1,.08333-.00891.14639.14639,0,0,1-.07553-.03621c-.0452-.0214-.10967-.05141-.19132-.08771-.16249-.0724-.39135-.16951-.66726-.27341C175.69477,206.26069,166.14535,208.57477,161.47415,215.65958Z"/></svg>