<?xml version="1.0" encoding="UTF-8" standalone="no"?>
<svg
   xmlns:dc="http://purl.org/dc/elements/1.1/"
   xmlns:cc="http://creativecommons.org/ns#"
   xmlns:rdf="http://www.w3.org/1999/02/22-rdf-syntax-ns#"
   xmlns:svg="http://www.w3.org/2000/svg"
   xmlns="http://www.w3.org/2000/svg"
   xmlns:sodipodi="http://sodipodi.sourceforge.net/DTD/sodipodi-0.dtd"
   xmlns:inkscape="http://www.inkscape.org/namespaces/inkscape"
   version="1.1"
   viewBox="0 0 64 64"
   id="svg835"
   sodipodi:docname="crest_of_blaiddyd copy.svg"
   inkscape:version="1.1-dev (ddb55ca, 2020-02-02)">
  <metadata
     id="metadata841">
    <rdf:RDF>
      <cc:Work
         rdf:about="">
        <dc:format>image/svg+xml</dc:format>
        <dc:type
           rdf:resource="http://purl.org/dc/dcmitype/StillImage" />
        <dc:title />
      </cc:Work>
    </rdf:RDF>
  </metadata>
  <defs
     id="defs839" />
  <sodipodi:namedview
     pagecolor="#ffffff"
     bordercolor="#666666"
     borderopacity="1"
     objecttolerance="10"
     gridtolerance="10"
     guidetolerance="10"
     inkscape:pageopacity="0"
     inkscape:pageshadow="2"
     inkscape:window-width="1084"
     inkscape:window-height="682"
     id="namedview837"
     showgrid="false"
     inkscape:zoom="2.3450153"
     inkscape:cx="34.338574"
     inkscape:cy="63.845376"
     inkscape:window-x="114"
     inkscape:window-y="74"
     inkscape:window-maximized="0"
     inkscape:current-layer="svg835" />
  <path
     inkscape:connector-curvature="0"
     id="path854"
     d="m 31.802681,58.111303 c -1.21939,-1.21939 -1.37163,-1.91213 -0.76881,-3.49819 0.26001,-0.68411 0.4728,-1.57275 0.47287,-1.97477 l 1.1e-4,-0.73094 -3.28882,-1.08177 c -4.63417,-1.52429 -6.77818,-2.59764 -8.60815,-4.30949 -1.46008,-1.36583 -3.935021,-4.56117 -5.772301,-7.45249 -1.466802,-2.30829 -2.593406,-6.61167 -1.937732,-7.40171 0.257786,-0.31061 0.403959,-0.0736 1.031057,1.67173 1.468903,4.08826 2.977671,6.62182 5.521086,9.27116 2.06553,2.15156 3.8904,3.4584 6.66392,4.77223 2.28762,1.08366 6.00159,2.18881 6.31213,1.87827 0.0987,-0.0987 0.1828,-1.39447 0.18685,-2.87945 0.007,-2.50461 -0.0399,-2.79621 -0.64587,-4.03025 -0.35928,-0.73165 -0.87857,-1.48545 -1.15397,-1.67511 -0.27541,-0.18965 -1.44618,-0.96357 -2.60171,-1.71981 -2.77707,-1.81746 -4.67363,-3.8644 -5.83545,-6.29811 -1.96726,-4.12093 -1.91182,-7.94604 0.1713,-11.81952 0.5474,-1.01787 1.1298,-1.76399 1.58393,-2.02922 l 0.71823,-0.41947 -0.30839,1.0247 c -0.16962,0.56358 -0.46848,1.33428 -0.66415,1.71266 -0.64569,1.24863 -1.29611,4.05651 -1.29611,5.59535 0,3.08069 1.19385,6.00892 3.34651,8.20819 2.20314,2.25085 4.39228,3.09617 8.01818,3.09617 5.50997,0 9.49367,-3.32304 10.67637,-8.9058 0.18589,-0.87744 0.33798,-1.90692 0.33798,-2.28773 0,-1.21377 -0.61106,-3.63042 -1.48065,-5.85581 -0.46403,-1.18752 -0.78129,-2.22152 -0.70502,-2.29779 0.53637,-0.53637 2.23071,1.94933 3.00978,4.41553 1.54199,4.88125 0.26529,9.71106 -3.58092,13.54683 -0.97035,0.96772 -2.44781,2.13802 -3.35074,2.65414 -3.5084,2.0054 -4.03939,2.99404 -4.03939,7.52079 v 2.70574 l 1.32707,-0.33582 c 5.122,-1.29615 8.39835,-3.05918 11.48257,-6.17886 2.59257,-2.62238 4.35221,-5.58167 5.67229,-9.53941 0.39164,-1.17417 0.80371,-2.13485 0.91571,-2.13485 0.47133,0 0.72354,1.01259 0.56744,2.27823 -0.4052,3.28521 -3.32259,8.37432 -6.78012,11.82727 -1.67951,1.67729 -2.33486,2.15336 -4.18398,3.0394 -1.71967,0.82401 -6.46744,2.62034 -8.73772,3.30594 -0.35177,0.10623 -0.2266,1.14228 0.33152,2.744 0.57063,1.63763 0.43922,2.33291 -0.661,3.49737 l -0.9894,1.04717 z m -7.81166,-14.42214 c -1.70754,-0.83552 -2.39217,-1.33955 -3.724,-2.74162 -1.89102,-1.99075 -3.3184,-4.27343 -4.16681,-6.6636 -0.487154,-1.37243 -0.617359,-2.22633 -0.699801,-4.5894 -0.295269,-8.46343 3.412221,-15.50329 10.967841,-20.8259771 3.03123,-2.1354 5.86346,-3.850704 6.3581,-3.850704 0.68331,0 4.36229,2.181155 6.88758,4.083435 5.03364,3.7917881 8.62977,8.9693661 9.92741,14.2931061 0.38282,1.5706 0.5012,2.77594 0.50721,5.16449 0.009,3.66182 -0.31309,5.16996 -1.72629,8.0778 -0.79227,1.63017 -1.32947,2.33615 -3.17825,4.1768 -1.74054,1.73288 -2.5973,2.39522 -3.93589,3.04271 -1.2936,0.62572 -1.81299,0.7731 -2.12885,0.60406 -0.22978,-0.12298 -0.41779,-0.37192 -0.41779,-0.55321 0,-0.18128 1.18543,-1.21555 2.63428,-2.29836 2.92818,-2.1884 4.37147,-3.80974 5.55596,-6.24137 1.14952,-2.35985 1.53245,-4.03382 1.53919,-6.72856 0.0187,-7.46214 -3.52716,-13.72615 -10.29153,-18.180831 -4.31864,-2.8440481 -5.28705,-3.1169961 -7.36679,-2.0763471 -2.20803,1.104846 -5.71023,3.5969811 -7.38666,5.2562881 -4.89043,4.84046 -7.319602,12.11404 -6.00857,17.99118 0.9951,4.46091 3.72517,8.29522 7.71726,10.83871 1.66425,1.06035 1.98638,1.44167 1.60555,1.90054 -0.15802,0.19041 -0.35249,0.34583 -0.43215,0.3454 -0.0797,-4.7e-4 -1.08631,-0.46149 -2.237,-1.02454 z m 4.37248,-9.22664 c -1.41988,-0.95883 -2.67241,-2.37564 -3.36502,-3.80638 -0.43288,-0.89421 -0.5115,-1.45475 -0.52039,-3.71015 -0.01,-2.47025 0.0352,-2.74593 0.63979,-3.92617 0.86302,-1.68472 2.04906,-2.88213 3.73484,-3.77063 1.3002,-0.68529 1.53305,-0.72986 3.81296,-0.72986 2.27623,0 2.52415,0.0472 3.96146,0.75482 1.81164,0.89187 2.7676,1.90637 3.73671,3.96553 1.37045,2.91192 0.97683,6.66754 -0.94837,9.0486 -1.38586,1.71401 -2.75064,2.73285 -3.66076,2.73285 -0.43228,0 -0.78595,-0.0485 -0.78595,-0.10771 0,-0.0592 0.79111,-1.01993 1.75803,-2.13485 0.96692,-1.11493 1.97161,-2.4945 2.23265,-3.06571 1.43555,-3.14127 -0.4881,-7.60428 -3.82725,-8.87951 -0.82111,-0.31358 -1.50713,-0.38645 -2.8714,-0.30498 -2.90166,0.17327 -4.29439,1.13986 -5.58506,3.87622 -1.44154,3.05621 -0.81628,5.61994 2.09485,8.5894 0.87942,0.89704 1.56063,1.74608 1.5138,1.88676 -0.1658,0.49803 -0.75354,0.37006 -1.92089,-0.41823 z"
     style="fill:#ff8080;stroke:#ffb380;stroke-width:0.230794;fill-opacity:1" />
</svg>
