<?xml version="1.0" encoding="UTF-8" standalone="no"?>
<svg
   xmlns:dc="http://purl.org/dc/elements/1.1/"
   xmlns:cc="http://creativecommons.org/ns#"
   xmlns:rdf="http://www.w3.org/1999/02/22-rdf-syntax-ns#"
   xmlns:svg="http://www.w3.org/2000/svg"
   xmlns="http://www.w3.org/2000/svg"
   xmlns:sodipodi="http://sodipodi.sourceforge.net/DTD/sodipodi-0.dtd"
   xmlns:inkscape="http://www.inkscape.org/namespaces/inkscape"
   version="1.1"
   viewBox="0 0 64 64"
   id="svg939"
   sodipodi:docname="beetle_salad.svg"
   inkscape:version="1.0.1 (3bc2e813f5, 2020-09-07)">
  <metadata
     id="metadata943">
    <rdf:RDF>
      <cc:Work
         rdf:about="">
        <dc:format>image/svg+xml</dc:format>
        <dc:type
           rdf:resource="http://purl.org/dc/dcmitype/StillImage" />
      </cc:Work>
    </rdf:RDF>
  </metadata>
  <sodipodi:namedview
     pagecolor="#ffffff"
     bordercolor="#666666"
     borderopacity="1"
     objecttolerance="10"
     gridtolerance="10"
     guidetolerance="10"
     inkscape:pageopacity="0"
     inkscape:pageshadow="2"
     inkscape:window-width="1920"
     inkscape:window-height="1027"
     id="namedview941"
     showgrid="false"
     inkscape:zoom="6.71875"
     inkscape:cx="16.820012"
     inkscape:cy="27.620736"
     inkscape:window-x="1592"
     inkscape:window-y="-8"
     inkscape:window-maximized="1"
     inkscape:current-layer="svg939"
     inkscape:document-rotation="0" />
  <defs
     id="defs917">
    <linearGradient
       id="linearGradient874"
       x1="18.969"
       x2="43.269"
       y1="36.366"
       y2="36.366"
       gradientTransform="matrix(1.1576,0,0,1.1576,-40.562788,-4.7858698)"
       gradientUnits="userSpaceOnUse">
      <stop
         stop-color="#4950b6"
         offset="0"
         id="stop912" />
      <stop
         stop-color="#45389b"
         offset="1"
         id="stop914" />
    </linearGradient>
    <linearGradient
       id="SVGID_6_"
       y2="32.849998"
       gradientUnits="userSpaceOnUse"
       x2="44.249001"
       gradientTransform="matrix(1.4502,0,0,1.4502,-8.0502,-24.85)"
       y1="32.849998"
       x1="9.0995998">
      <stop
         stop-color="#A9CAD1"
         offset="0"
         id="stop3904" />
      <stop
         stop-color="#fff"
         offset="1"
         id="stop3906" />
    </linearGradient>
    <linearGradient
       id="SVGID_7_"
       y2="-29.113001"
       gradientUnits="userSpaceOnUse"
       x2="0.0253"
       gradientTransform="matrix(-1.1513,0.8819,-0.8819,-1.1513,-8.0514,-24.849)"
       y1="-29.113001"
       x1="-5.895">
      <stop
         stop-color="#FF543D"
         offset="0"
         id="stop4015" />
      <stop
         stop-color="#B31205"
         offset="1"
         id="stop4017" />
    </linearGradient>
    <linearGradient
       id="SVGID_8_"
       y2="-2.3110001"
       gradientUnits="userSpaceOnUse"
       x2="39.341999"
       gradientTransform="matrix(0.5632,1.3364,-1.3364,0.5632,-8.0502,-24.85)"
       y1="-2.3110001"
       x1="31.746">
      <stop
         stop-color="#FF543D"
         offset="0"
         id="stop4062" />
      <stop
         stop-color="#B31205"
         offset="1"
         id="stop4064" />
    </linearGradient>
    <linearGradient
       id="SVGID_9_"
       y2="-0.25"
       gradientUnits="userSpaceOnUse"
       x2="43.410999"
       gradientTransform="matrix(1.1371,0.9002,-0.9002,1.1371,-8.0499,-24.849)"
       y1="-0.25"
       x1="36.522999">
      <stop
         stop-color="#FF543D"
         offset="0"
         id="stop4085" />
      <stop
         stop-color="#B31205"
         offset="1"
         id="stop4087" />
    </linearGradient>
    <linearGradient
       id="SVGID_10_"
       y2="38.356998"
       gradientUnits="userSpaceOnUse"
       x2="26.934"
       gradientTransform="matrix(1.4502,0,0,1.4502,-8.0502,-24.85)"
       y1="32.181999"
       x1="26.466">
      <stop
         stop-color="#FF543D"
         offset="0"
         id="stop4110" />
      <stop
         stop-color="#B31205"
         offset="1"
         id="stop4112" />
    </linearGradient>
    <linearGradient
       id="SVGID_11_"
       y2="29.627001"
       gradientUnits="userSpaceOnUse"
       x2="37.174999"
       gradientTransform="matrix(1.4502,0,0,1.4502,-8.0502,-24.85)"
       y1="34.973"
       x1="43.554001">
      <stop
         stop-color="#FF543D"
         offset="0"
         id="stop4133" />
      <stop
         stop-color="#B31205"
         offset="1"
         id="stop4135" />
    </linearGradient>
    <linearGradient
       id="SVGID_12_"
       y2="40.474998"
       gradientUnits="userSpaceOnUse"
       x2="49.25"
       gradientTransform="matrix(1.4502,0,0,1.4502,-8.0502,-24.85)"
       y1="40.474998"
       x1="4.25">
      <stop
         stop-color="#fff"
         offset="0"
         id="stop4172" />
      <stop
         stop-color="#A9CAD1"
         offset="1"
         id="stop4174" />
    </linearGradient>
  </defs>
  <g
     id="g4962"
     transform="translate(1.3264743,9.8294629)">
    <path
       fill-rule="evenodd"
       clip-rule="evenodd"
       d="m 48.654,18.295 c 4.979,1.208 7.469,2.707 7.469,4.495 0,1.741 -2.489,3.239 -7.469,4.497 -4.979,1.256 -10.974,1.885 -17.982,1.885 -7.01,0 -13.028,-0.629 -18.056,-1.885 -4.979,-1.258 -7.469,-2.756 -7.469,-4.497 0,-1.789 2.49,-3.287 7.469,-4.495 4.979,-1.256 10.998,-1.885 18.056,-1.885 7.058,0 13.052,0.629 17.982,1.885 z"
       fill="url(#SVGID_6_)"
       id="path3909"
       style="fill:url(#SVGID_6_)" />
    <path
       fill-rule="evenodd"
       clip-rule="evenodd"
       d="m 57.283,22.574 h -1.16 C 55.93,20.882 53.367,19.431 48.437,18.223 43.458,17.014 37.536,16.41 30.671,16.41 c -6.865,0 -12.763,0.603 -17.693,1.813 -4.931,1.208 -7.517,2.659 -7.759,4.351 H 3.77 c 0.629,-2.031 3.48,-3.722 8.556,-5.076 5.125,-1.402 11.191,-2.103 18.201,-2.103 6.962,0 13.004,0.701 18.128,2.103 5.074,1.354 7.951,3.044 8.628,5.076 z"
       fill="#ffffff"
       id="path3911" />
    <path
       fill-rule="evenodd"
       clip-rule="evenodd"
       d="M 25.306,9.013 25.451,7.926 C 25.548,6.718 25.79,5.703 26.177,4.881 26.563,4.059 26.998,3.648 27.482,3.648 h 2.466 l 1.813,0.436 0.362,-0.943 c 0.532,-0.628 1.377,-0.942 2.538,-0.942 0.435,0 1.547,-0.072 3.335,-0.217 1.016,-0.048 1.765,0.024 2.248,0.217 0.821,0.291 1.909,1.136 3.263,2.538 l 1.016,1.813 0.943,-0.145 c 0.579,0.049 0.701,0.581 0.362,1.595 -0.339,1.064 -1.111,1.668 -2.321,1.813 -0.966,0.145 -1.74,0.024 -2.319,-0.362 -0.291,-0.194 -0.871,0.241 -1.741,1.304 -0.145,0.194 -0.869,1.234 -2.175,3.119 -0.821,1.256 -1.669,2.054 -2.538,2.392 l -1.233,1.886 c -0.482,0.822 -1.063,1.813 -1.739,2.973 -0.483,0.725 -0.968,0.991 -1.45,0.797 -0.532,-0.194 -0.871,-0.194 -1.016,0 -0.048,0.048 -0.435,0.869 -1.16,2.466 l -1.232,2.828 c -0.677,1.595 -1.209,2.803 -1.596,3.625 -0.048,0.193 -0.193,1.377 -0.435,3.553 -0.146,1.209 -0.146,2.876 0,5.003 0.048,0.968 -0.218,1.522 -0.798,1.669 -1.015,0.338 -2.417,0.072 -4.206,-0.798 -2.223,-1.111 -3.843,-2.828 -4.858,-5.149 0,-4.978 0.942,-8.459 2.828,-10.44 0.58,-0.677 0.967,-1.5 1.16,-2.466 0.145,-0.773 0.436,-1.233 0.87,-1.378 l 1.233,-0.507 0.797,-4.279 c -0.29,-0.096 -0.508,-0.266 -0.652,-0.508 -0.338,-0.483 -0.121,-1.112 0.652,-1.885 l 1.741,-1.885 c 0.532,-0.629 0.966,-1.426 1.305,-2.394 0.192,-0.484 0.313,-0.605 0.361,-0.364 z"
       fill="#719b3f"
       id="path3913" />
    <path
       fill-rule="evenodd"
       clip-rule="evenodd"
       d="m 27.916,8.434 c 0.387,0.338 0.774,0.604 1.161,0.797 0.145,-0.338 0.362,-0.701 0.652,-1.087 0.483,-0.725 0.991,-1.16 1.523,-1.305 0.773,-0.242 1.281,-0.363 1.522,-0.363 -0.29,-0.677 -0.29,-1.426 0,-2.248 0.29,-0.87 1.063,-1.305 2.32,-1.305 h 1.45 C 36.23,2.929 35.892,2.978 35.528,3.068 34.708,3.261 34.2,3.575 34.007,4.01 33.62,4.735 33.476,5.388 33.572,5.968 l 0.942,-0.507 c 0.821,-0.435 1.692,-0.75 2.611,-0.943 0.773,-0.145 1.618,-0.386 2.538,-0.725 0.725,-0.241 1.208,-0.362 1.45,-0.362 0.435,0 0.989,0.483 1.667,1.45 C 42.054,4.446 41.378,4.325 40.75,4.518 l -1.596,0.58 1.088,-0.217 c 0.821,0 1.522,0.338 2.103,1.016 0.049,0.048 0.459,0.556 1.232,1.522 0.194,0.193 0.412,0.29 0.653,0.29 0.484,0 0.919,-0.049 1.306,-0.145 C 45.052,8.821 44.424,9.087 43.651,8.361 42.635,7.394 42.054,6.862 41.91,6.765 41.233,6.282 40.58,6.065 39.951,6.113 l -2.175,0.217 0.073,0.363 c 0.145,0.29 0.483,0.507 1.015,0.653 0.774,0.241 1.548,0.411 2.321,0.507 0,0.145 -0.75,0.218 -2.248,0.218 C 38.26,8.071 37.631,7.853 37.05,7.418 36.615,7.127 36.133,7.104 35.6,7.346 l -3.045,1.378 2.538,1.376 c 1.112,0.484 2.031,0.484 2.756,0 -1.209,1.112 -2.151,1.668 -2.828,1.668 -0.193,0 -0.75,-0.242 -1.668,-0.725 -0.821,-0.483 -1.475,-0.605 -1.957,-0.363 -0.774,0.339 -1.5,0.919 -2.176,1.741 -0.822,0.87 -1.378,1.813 -1.668,2.828 l -0.725,2.973 2.756,-0.581 c 1.063,-0.29 1.692,-0.483 1.885,-0.579 0.241,-0.146 0.579,-0.629 1.015,-1.45 0.629,-1.063 1.208,-1.645 1.74,-1.741 l -1.74,3.117 c -0.531,1.063 -0.918,1.741 -1.16,2.031 -0.483,0.531 -1.088,0.797 -1.813,0.797 -0.966,-0.048 -1.62,-0.072 -1.958,-0.072 -0.532,0 -0.894,0.194 -1.087,0.581 -0.338,0.579 -0.943,1.376 -1.813,2.392 0.097,0.726 0.605,0.726 1.523,0 0.87,-0.773 1.715,-1.232 2.538,-1.378 0.242,0.581 -0.073,1.33 -0.942,2.249 -0.387,0.435 -1.982,2.635 -4.786,6.599 -2.658,3.383 -4.206,4.181 -4.641,2.392 -0.338,-1.353 -0.242,-2.778 0.29,-4.276 0.629,-1.307 0.943,-2.104 0.943,-2.394 -0.338,-1.886 -0.363,-3.167 -0.072,-3.844 0.193,-0.435 0.508,-0.845 0.942,-1.232 l 0.653,-0.507 0.435,0.941 c 0.338,0.629 0.677,0.943 1.015,0.943 0.628,0 1.015,-0.218 1.16,-0.653 -0.967,-0.629 -1.475,-1.499 -1.522,-2.61 0,-0.246 -0.048,-0.827 -0.146,-1.74 0.152,0.78 0.419,1.361 0.797,1.74 l 1.668,1.741 c 0.821,-0.484 0.991,-1.306 0.507,-2.466 -0.387,-0.821 -0.604,-1.378 -0.652,-1.668 -0.145,-0.387 -0.169,-0.992 -0.073,-1.813 l 0.653,-3.916 0.145,4.569 c 0.096,0.725 0.435,1.256 1.015,1.595 0,-1.401 0.193,-2.707 0.581,-3.915 0.193,-0.774 0.435,-1.426 0.725,-1.958 0.145,-0.291 0.266,-0.483 0.363,-0.58 C 27.046,10.536 26.659,10.1 26.61,9.23 26.417,8.36 26.296,7.731 26.247,7.345 26.102,6.668 26.271,6.088 26.755,5.604 27.239,5.024 27.65,4.662 27.988,4.516 28.23,4.419 28.568,4.371 29.003,4.371 h 0.544 c -0.569,0.078 -1.089,0.489 -1.559,1.233 -0.821,1.307 -0.845,2.249 -0.072,2.83 z"
       fill="#5a873c"
       id="path3915" />
    <path
       fill-rule="evenodd"
       clip-rule="evenodd"
       d="m 29.729,13.075 c 0.774,-0.919 1.548,-1.161 2.32,-0.725 0.919,0.435 1.112,0.749 0.58,0.942 -0.145,0.048 -0.482,0.581 -1.015,1.596 -0.58,0.966 -1.088,1.474 -1.523,1.522 l -2.319,0.435 c 0.676,-1.741 1.329,-2.997 1.957,-3.77 z"
       fill="#7bb342"
       id="path3917" />
    <path
       fill-rule="evenodd"
       clip-rule="evenodd"
       d="m 25.741,9.231 c 0.581,0.387 0.846,0.773 0.798,1.16 -0.048,0.242 -0.291,0.701 -0.725,1.378 -0.387,0.87 -0.436,2.151 -0.145,3.844 -0.291,-0.291 -0.46,-0.992 -0.508,-2.103 -0.048,-1.064 -0.024,-2.031 0.073,-2.901 0.096,-1.112 0.265,-1.572 0.507,-1.378 z"
       fill="#7bb342"
       id="path3919" />
    <path
       fill-rule="evenodd"
       clip-rule="evenodd"
       d="m 23.13,14.307 c 0.338,0.048 0.532,0.29 0.58,0.725 0,0.29 -0.048,0.821 -0.146,1.595 -0.048,0.823 0.218,1.813 0.798,2.974 -1.063,-0.823 -1.717,-1.645 -1.958,-2.466 -0.145,-0.629 -0.145,-1.282 0,-1.959 0.146,-0.627 0.388,-0.917 0.726,-0.869 z"
       fill="#7bb342"
       id="path3921" />
    <path
       fill-rule="evenodd"
       clip-rule="evenodd"
       d="m 29.947,4.373 c 0.29,0.097 0.386,0.459 0.29,1.088 -0.048,0.628 -0.314,1.063 -0.797,1.305 -0.436,0.193 -0.701,0.46 -0.798,0.798 -0.048,0.193 -0.048,0.362 0,0.508 C 28.4,8.023 28.279,7.54 28.279,6.622 c 0,-0.725 0.169,-1.306 0.508,-1.741 0.338,-0.485 0.724,-0.653 1.16,-0.508 z"
       fill="#7bb342"
       id="path3923" />
    <path
       fill-rule="evenodd"
       clip-rule="evenodd"
       d="M 34.66,4.518 35.095,3.793 C 35.53,3.31 36.038,3.02 36.617,2.923 37.101,2.827 37.729,2.681 38.502,2.488 39.035,2.44 39.18,2.584 38.939,2.923 38.841,3.116 38.165,3.31 36.908,3.503 35.699,3.745 34.949,4.083 34.66,4.518 Z"
       fill="#7bb342"
       id="path3925" />
    <path
       fill-rule="evenodd"
       clip-rule="evenodd"
       d="m 34.732,8.578 c 0.387,0.194 0.652,0.291 0.797,0.291 0.097,-0.048 0.267,-0.097 0.509,-0.145 0.192,0 0.507,-0.05 0.941,-0.146 0.436,0 0.943,0.17 1.522,0.508 0.533,0.387 0.581,0.604 0.146,0.652 -0.773,0 -1.378,0.024 -1.813,0.073 -0.483,0.048 -0.967,-0.146 -1.45,-0.581 z"
       fill="#7bb342"
       id="path3927" />
    <path
       fill-rule="evenodd"
       clip-rule="evenodd"
       d="m 29.149,20.47 c -0.193,0.291 -0.411,0.483 -0.652,0.581 -0.436,0.048 -0.822,0.216 -1.161,0.507 -0.677,0.581 -1.426,0.749 -2.248,0.507 0.532,-0.241 1.088,-0.651 1.667,-1.232 0.387,-0.435 0.943,-0.701 1.668,-0.797 0.678,-0.146 0.919,0 0.726,0.434 z"
       fill="#7bb342"
       id="path3929" />
    <path
       fill-rule="evenodd"
       clip-rule="evenodd"
       d="m 39.228,6.765 h 1.596 c 0.483,0 0.918,0.121 1.305,0.363 0.387,0.242 0.532,0.484 0.437,0.725 -0.05,0.242 -0.339,0.338 -0.871,0.291 -0.531,-0.048 -1.016,-0.242 -1.45,-0.58 z"
       fill="#7bb342"
       id="path3931" />
    <path
       fill-rule="evenodd"
       clip-rule="evenodd"
       d="M 5.728,10.247 C 5.776,10.101 5.994,9.642 6.381,8.869 7.009,7.564 7.348,6.863 7.396,6.765 7.687,6.282 8.097,5.968 8.629,5.823 l 2.466,-0.797 c 1.112,-2.272 1.933,-3.674 2.465,-4.206 0.291,-0.29 0.773,0.169 1.45,1.377 0.387,0.677 0.967,1.886 1.741,3.625 0.435,0.871 0.556,1.499 0.362,1.886 -0.435,0.773 -0.677,1.402 -0.725,1.885 -0.097,0.919 -0.097,1.595 0,2.031 0.048,0.289 0.169,1.136 0.363,2.538 0.145,1.014 0.266,1.474 0.362,1.376 0.29,-0.241 0.677,-0.048 1.16,0.581 0.532,0.629 0.725,0.967 0.58,1.016 -0.29,0.096 -0.411,0.507 -0.363,1.232 0.049,0.773 0.145,1.136 0.291,1.088 0.387,-0.096 0.846,0.17 1.378,0.797 0.58,0.677 0.895,1.087 0.942,1.233 0.193,0.483 0.701,1.354 1.522,2.61 2.804,4.255 3.433,6.284 1.886,6.092 -1.063,-0.146 -2.2,-0.194 -3.408,-0.146 -2.079,0.099 -3.143,0.146 -3.191,0.146 -2.514,0 -4.351,-0.122 -5.51,-0.362 C 11.627,29.631 10.804,28.833 9.934,27.431 9.209,26.223 8.58,24.845 8.049,23.298 7.759,22.427 7.517,21.896 7.324,21.702 7.276,21.654 7.203,21.315 7.107,20.688 7.01,19.865 6.865,19.43 6.671,19.382 l -0.29,0.145 C 5.607,18.271 5.148,17.255 5.003,16.482 4.906,15.563 5.051,14.162 5.438,12.275 5.63,11.116 5.728,10.439 5.728,10.247 Z"
       fill="#719b3f"
       id="path3933" />
    <path
       fill-rule="evenodd"
       clip-rule="evenodd"
       d="m 11.456,6.113 c 0.483,-1.837 1.232,-2.949 2.248,-3.336 0.58,-0.193 0.895,0.024 0.943,0.653 -0.146,-0.097 -0.339,-0.121 -0.58,-0.072 -0.435,0.048 -0.822,0.435 -1.16,1.16 -0.387,0.773 -0.604,1.644 -0.653,2.61 -0.048,0.291 -0.072,1.257 -0.072,2.9 0,1.402 0.048,2.634 0.145,3.698 l 0.218,-0.725 c 0.338,-1.208 0.797,-1.957 1.377,-2.248 0.338,-0.145 0.628,-0.579 0.87,-1.304 0.387,-1.064 0.653,-1.717 0.797,-1.958 0.291,-0.435 0.556,-0.652 0.798,-0.652 0.146,0 0.242,0.048 0.29,0.145 l -0.435,0.435 c -0.193,0.193 -0.314,0.386 -0.362,0.58 -0.048,0.048 -0.146,0.484 -0.291,1.305 -0.145,0.581 -0.314,1.016 -0.507,1.306 -0.097,0.193 -0.388,0.604 -0.871,1.232 -0.58,0.967 -0.942,2.271 -1.087,3.916 -0.048,1.063 0,1.595 0.145,1.595 0.435,-0.822 0.967,-1.571 1.595,-2.248 0.436,-0.435 0.725,-1.112 0.87,-2.03 l 0.073,-1.233 v 2.248 c 0,0.774 -0.339,1.837 -1.016,3.191 -0.628,1.257 -0.87,2.321 -0.725,3.19 0.145,0.581 0.314,0.919 0.508,1.016 0.145,0 0.362,-0.122 0.652,-0.362 0.339,-0.242 0.798,-1.136 1.378,-2.684 0.29,-0.821 0.604,-1.45 0.942,-1.885 l 0.508,-0.363 -0.508,1.306 c -0.29,2.03 -0.483,3.191 -0.58,3.48 -0.387,1.548 -0.822,2.345 -1.305,2.394 l 0.58,1.088 c 0.193,0.435 0.411,0.772 0.653,1.015 1.354,-0.29 2.224,-0.967 2.61,-2.03 0.193,-0.629 0.338,-1.329 0.435,-2.104 v -0.941 l 0.218,0.579 c 0.145,0.484 0.217,0.967 0.217,1.45 0,0.725 -0.024,1.186 -0.073,1.378 -0.048,0.339 -0.242,0.871 -0.58,1.596 -0.532,1.064 -0.967,1.595 -1.305,1.595 l 2.61,-0.072 c 0.822,-0.096 1.692,-0.484 2.611,-1.159 l 0.797,0.869 -0.072,2.61 c -0.242,0.581 -0.991,0.871 -2.249,0.871 -1.982,0.338 -3.939,0.459 -5.873,0.362 -1.257,-0.05 -2.562,-0.604 -3.916,-1.668 l -1.667,-1.669 1.813,-0.145 c 0.87,0 1.523,-0.218 1.958,-0.652 -0.483,-0.145 -0.99,-0.217 -1.522,-0.217 -1.112,0 -2.006,-0.339 -2.683,-1.016 -0.29,-0.29 -0.58,-0.773 -0.87,-1.45 L 8.991,22.79 9.426,23.009 c 0.338,0.193 0.653,0.458 0.943,0.797 0.29,0.387 0.532,0.629 0.725,0.726 0.145,0.096 0.483,0.242 1.015,0.435 0.677,0.29 1.016,0.17 1.016,-0.362 L 11.167,22.719 C 10.055,22.091 9.306,21.656 8.919,21.415 8.435,21.125 8.097,20.158 7.903,18.515 7.855,18.128 7.612,17.596 7.178,16.919 6.791,16.34 6.598,15.879 6.598,15.541 l 0.29,-4.205 v 2.03 c 0,0.581 0.121,1.087 0.363,1.524 0.097,0.289 0.338,0.701 0.725,1.232 0.242,0.387 0.508,1.136 0.798,2.248 0.097,0.387 0.314,0.677 0.652,0.871 0.436,0.289 0.774,0.604 1.016,0.942 0.628,0.821 1.185,1.402 1.667,1.741 l -0.508,-1.16 C 11.408,20.329 11.288,19.628 11.239,18.661 L 11.167,17.355 C 10.539,16.437 9.789,15.494 8.919,14.528 8.338,13.899 7.976,13.343 7.831,12.86 7.734,12.522 7.686,11.845 7.686,10.829 7.686,10.104 7.758,9.33 7.903,8.509 L 8.12,7.418 8.048,8.868 c 0,1.256 0.387,2.441 1.16,3.553 0.677,1.063 1.281,1.643 1.813,1.741 v -3.191 c 0,-1.16 0.073,-2.321 0.218,-3.481 z"
       fill="#5a873c"
       id="path3935" />
    <path
       fill-rule="evenodd"
       clip-rule="evenodd"
       d="m 10.731,11.841 c 0.193,0.677 0.169,1.087 -0.073,1.233 C 9.981,12.251 9.329,11.382 8.7,10.463 8.265,9.836 8.072,9.158 8.12,8.433 8.168,7.804 8.337,7.272 8.628,6.838 c 0.484,-0.58 0.942,0.193 1.378,2.32 0.242,1.209 0.483,2.104 0.725,2.683 z"
       fill="#7bb342"
       id="path3937" />
    <path
       fill-rule="evenodd"
       clip-rule="evenodd"
       d="M 11.021,6.476 10.804,9.884 C 10.321,8.047 10.079,6.886 10.079,6.403 c 0,-0.387 0.145,-0.604 0.435,-0.652 0.289,-0.048 0.459,0.193 0.507,0.725 z"
       fill="#7bb342"
       id="path3939" />
    <path
       fill-rule="evenodd"
       clip-rule="evenodd"
       d="m 12.544,9.303 c -0.145,-1.546 0,-2.731 0.435,-3.553 0.773,-1.498 1.354,-1.837 1.741,-1.015 0.387,0.773 0.048,1.426 -1.016,1.958 -0.484,0.29 -0.871,1.16 -1.16,2.61 z"
       fill="#7bb342"
       id="path3941" />
    <path
       fill-rule="evenodd"
       clip-rule="evenodd"
       d="m 12.544,10.972 c 0.241,-0.773 0.773,-1.62 1.595,-2.538 0.29,-0.29 0.556,-0.798 0.798,-1.523 0.242,-0.677 0.411,-1.063 0.508,-1.16 0.242,-0.193 0.363,-0.073 0.363,0.363 0,0.435 -0.193,0.966 -0.581,1.595 -0.629,0.917 -1.523,2.005 -2.683,3.263 z"
       fill="#7bb342"
       id="path3943" />
    <path
       fill-rule="evenodd"
       clip-rule="evenodd"
       d="M 8.266,16.192 C 7.879,15.613 7.613,15.201 7.469,14.96 7.227,14.476 7.178,14.065 7.323,13.726 c 0.338,-0.87 0.846,-0.168 1.522,2.104 0.387,1.209 1.016,2.199 1.886,2.973 0.628,0.919 0.797,1.474 0.507,1.668 L 11.02,19.818 C 10.827,19.239 10.343,18.852 9.57,18.658 9.329,18.562 9.087,18.247 8.845,17.715 8.604,17.039 8.411,16.53 8.266,16.192 Z"
       fill="#7bb342"
       id="path3945" />
    <path
       fill-rule="evenodd"
       clip-rule="evenodd"
       d="m 13.486,15.975 c -0.097,-1.257 0.193,-2.321 0.871,-3.19 0.532,-0.629 0.918,-0.871 1.16,-0.726 0.242,0.097 0.242,0.435 0,1.016 -0.145,0.387 -0.314,0.604 -0.508,0.651 -0.241,0.098 -0.483,0.314 -0.725,0.653 -0.194,0.29 -0.459,0.822 -0.798,1.596 z"
       fill="#7bb342"
       id="path3947" />
    <path
       fill-rule="evenodd"
       clip-rule="evenodd"
       d="m 14.646,20.615 c -0.242,-0.627 -0.121,-1.474 0.362,-2.538 0.193,-0.435 0.363,-1.038 0.508,-1.813 0.097,-0.387 0.242,-0.579 0.435,-0.579 0.581,0 0.532,0.653 -0.144,1.957 -0.193,0.484 -0.46,1.04 -0.798,1.668 -0.241,0.483 -0.363,0.918 -0.363,1.305 z"
       fill="#7bb342"
       id="path3949" />
    <path
       fill-rule="evenodd"
       clip-rule="evenodd"
       d="m 16.387,23.661 c 0.773,-0.242 1.16,-0.797 1.16,-1.668 0,-0.677 0.193,-1.16 0.58,-1.45 0.387,-0.241 0.604,0 0.653,0.725 0.097,0.967 -0.387,1.813 -1.45,2.538 -0.084,0.068 -0.145,0.128 -0.182,0.182 -0.106,-0.094 -0.359,-0.204 -0.761,-0.327 z"
       fill="#7bb342"
       id="path3951" />
    <path
       fill-rule="evenodd"
       clip-rule="evenodd"
       d="m 21.535,23.371 c 0.483,0.145 0.677,0.58 0.58,1.306 -0.096,0.579 -0.337,1.136 -0.725,1.667 -0.435,0.532 -1.281,0.677 -2.538,0.435 l 0.581,-0.289 c 0.338,0 0.773,-0.58 1.305,-1.74 0.193,-0.581 0.338,-0.943 0.435,-1.088 0.048,-0.243 0.169,-0.34 0.362,-0.291 z"
       fill="#7bb342"
       id="path3953" />
    <path
       fill-rule="evenodd"
       clip-rule="evenodd"
       d="m 53.078,16.12 c -2.225,0.725 -3.795,1.499 -4.713,2.32 -0.437,0.338 -1.04,0.484 -1.813,0.436 -0.726,-0.049 -1.402,0.193 -2.031,0.726 -0.629,0.579 -1.33,1.739 -2.104,3.48 -0.821,1.836 -1.304,2.828 -1.45,2.973 -0.24,0.242 -0.725,1.015 -1.45,2.321 -0.821,1.304 -1.86,2.175 -3.117,2.609 -1.402,0.726 -2.345,1.16 -2.828,1.306 -0.629,0.241 -1.692,0.193 -3.19,-0.146 -0.822,-0.145 -2.03,-0.24 -3.626,-0.29 -0.725,0 -1.233,-0.289 -1.522,-0.87 -0.193,-0.387 -1.087,-0.991 -2.683,-1.813 -1.112,-0.629 -1.281,-1.16 -0.508,-1.595 1.112,-0.629 1.885,-1.111 2.321,-1.45 0.628,-0.484 1.74,-1.523 3.335,-3.118 0.483,-0.483 1.33,-0.459 2.538,0.072 1.547,0.725 2.466,1.087 2.756,1.087 0.821,0 1.475,-0.168 1.957,-0.507 0.532,-0.484 1.016,-1.33 1.451,-2.538 0.241,-0.629 0.531,-2.007 0.87,-4.134 0.29,-1.45 0.629,-2.248 1.016,-2.392 2.996,-0.919 4.833,-2.055 5.51,-3.409 0.726,-1.45 1.112,-2.2 1.16,-2.248 0.387,-0.532 0.871,-0.556 1.45,-0.072 0.242,0.194 0.726,0.797 1.45,1.813 0.484,0.581 1.016,0.87 1.597,0.87 h 4.351 l 3.045,2.684 c 0.387,0.241 0.894,1.378 1.522,3.407 -0.483,-0.387 -1.063,-0.725 -1.74,-1.015 C 55.278,16 54.093,15.83 53.078,16.12 Z"
       fill="#719b3f"
       id="path3955" />
    <path
       fill-rule="evenodd"
       clip-rule="evenodd"
       d="m 52.57,14.163 c 2.417,0.675 3.844,1.184 4.278,1.522 0.919,0.725 1.426,1.378 1.522,1.957 -0.579,-0.531 -1.136,-0.797 -1.667,-0.797 -0.532,0.145 -0.968,0.266 -1.306,0.363 -0.581,0.096 -1.185,-0.024 -1.813,-0.363 -0.193,-0.096 -1.111,-0.677 -2.756,-1.74 -1.111,-0.677 -1.813,-0.966 -2.102,-0.87 -0.29,0.096 -0.532,0.338 -0.725,0.725 -0.387,0.725 -0.653,1.184 -0.799,1.378 -1.45,2.514 -2.368,3.722 -2.755,3.625 -1.596,-0.338 -2.634,-0.412 -3.118,-0.218 -0.436,0.194 -0.726,0.411 -0.87,0.653 l -0.072,0.362 0.579,-0.146 c 0.291,-0.096 0.991,0.098 2.104,0.581 0.387,0.194 0.821,0.242 1.306,0.145 -0.339,0.242 -0.701,0.412 -1.088,0.509 -0.629,0.096 -1.281,0 -1.958,-0.291 -0.58,-0.194 -1.402,0.072 -2.466,0.797 -0.773,0.533 -1.522,1.596 -2.248,3.19 l 1.813,-0.58 c 0.339,0 0.701,-0.241 1.088,-0.726 0.435,-0.338 0.896,-0.507 1.378,-0.507 0.436,0 0.678,0.097 0.726,0.29 h -0.653 c -0.192,0 -0.459,0.217 -0.797,0.653 -0.387,0.482 -0.677,0.773 -0.87,0.869 -0.242,0.097 -0.557,0.145 -0.943,0.145 -0.29,0 -0.482,0.098 -0.58,0.291 l -0.145,0.871 c -0.048,0.24 -0.024,0.313 0.072,0.216 0.242,-0.192 0.509,-0.314 0.797,-0.362 0.533,-0.096 1.064,0.024 1.597,0.362 h -0.726 c -1.111,0 -2.297,0.701 -3.553,2.104 -0.58,0.677 -2.104,1.281 -4.568,1.813 -2.03,0.483 -3.432,0.726 -4.206,0.726 -0.532,0 -2.224,-0.991 -5.076,-2.973 -0.339,-0.242 -0.532,-0.459 -0.581,-0.653 0,-0.193 0.097,-0.314 0.291,-0.362 0.532,-0.145 1.62,-0.846 3.263,-2.104 l 2.538,-2.466 -0.362,1.451 c -0.242,1.111 -0.338,2.078 -0.291,2.9 0.436,-0.387 0.871,-0.99 1.306,-1.813 0.483,-1.014 1.305,-1.57 2.465,-1.667 0.339,-0.048 0.678,0.049 1.016,0.291 0.387,0.24 0.435,0.338 0.146,0.289 -0.629,-0.097 -1.281,0.146 -1.958,0.725 -0.677,0.629 -1.064,1.161 -1.161,1.596 l 0.581,-0.071 c 0.435,-0.05 0.869,-0.171 1.305,-0.363 0.532,-0.193 1.208,-0.701 2.03,-1.523 0.387,-0.387 0.749,-0.531 1.088,-0.435 0.435,0.096 0.508,0.193 0.218,0.29 -0.242,0 -0.773,0.29 -1.596,0.869 -0.58,0.437 -0.797,0.701 -0.652,0.799 l 1.233,-0.146 c 0.869,-0.145 1.716,-0.653 2.537,-1.522 0.193,-0.194 0.339,-0.581 0.436,-1.16 0.145,-0.677 0.362,-1.209 0.652,-1.596 0.339,-0.483 0.579,-1.014 0.726,-1.595 0.145,-0.725 0.266,-1.354 0.362,-1.885 0.241,-1.258 0.507,-2.175 0.797,-2.756 0.242,-0.483 0.605,-0.75 1.088,-0.797 0.242,-0.048 0.459,-0.048 0.653,0 -0.194,0.048 -0.387,0.144 -0.581,0.29 -0.435,0.241 -0.749,0.531 -0.941,0.87 -0.194,0.338 -0.314,0.797 -0.362,1.378 v 1.885 c 0,1.015 -0.098,1.62 -0.291,1.813 0.193,-0.096 0.435,-0.386 0.726,-0.869 0.338,-0.435 0.579,-0.773 0.725,-1.016 0.291,-0.435 0.483,-0.846 0.579,-1.232 0.242,-1.015 0.726,-2.007 1.451,-2.974 0.677,-0.966 1.137,-1.546 1.378,-1.739 l -0.363,0.87 -1.307,2.391 c -0.339,0.627 -0.363,1.038 -0.074,1.232 0.484,-0.338 1.016,-0.797 1.597,-1.378 0.435,-0.387 0.677,-0.653 0.725,-0.797 V 14.96 c -0.048,-0.629 -0.072,-1.136 -0.072,-1.522 0,-0.677 0.097,-1.209 0.289,-1.596 l 1.016,-1.741 -0.435,1.668 c -0.194,0.435 -0.267,0.87 -0.219,1.306 0.05,0.289 0.122,0.749 0.219,1.376 0.096,0.484 0.266,0.509 0.507,0.074 0.146,-0.29 0.362,-0.799 0.652,-1.524 0.194,-0.338 0.291,-0.725 0.291,-1.16 v -1.45 c 0.048,-0.483 0.145,-0.87 0.29,-1.16 l 0.217,-0.29 -0.072,3.481 1.233,-0.508 c 0.87,-0.145 1.475,0.146 1.813,0.871 0.096,0.24 1.256,0.7 3.479,1.378 z"
       fill="#5a873c"
       id="path3957" />
    <path
       fill-rule="evenodd"
       clip-rule="evenodd"
       d="m 40.099,15.032 c -0.631,0.396 -1.041,1.412 -1.233,3.045 -0.097,0.919 -0.411,1.982 -0.942,3.19 0.145,-0.579 0.217,-1.087 0.217,-1.522 0,-1.063 0.098,-2.055 0.29,-2.973 0.097,-0.581 0.339,-1.015 0.726,-1.306 0.194,-0.145 0.387,-0.217 0.581,-0.217 z"
       fill="#7bb342"
       id="path3959" />
    <path
       fill-rule="evenodd"
       clip-rule="evenodd"
       d="m 40.968,17.714 c 0,-0.145 0.363,-1.112 1.088,-2.9 l 0.798,-1.885 -0.508,2.61 c -0.048,0.291 -0.096,0.677 -0.145,1.161 -0.098,0.387 -0.242,0.604 -0.436,0.652 -0.145,0.049 -0.313,0.218 -0.507,0.508 -0.144,0.145 -0.241,0.097 -0.29,-0.146 z"
       fill="#7bb342"
       id="path3961" />
    <path
       fill-rule="evenodd"
       clip-rule="evenodd"
       d="m 45.103,9.375 c 0.096,-0.096 0.192,-0.168 0.288,-0.217 l -0.435,0.797 c -0.338,0.677 -0.482,1.232 -0.435,1.668 0.048,0.387 0.169,0.773 0.362,1.16 0.194,0.386 0.267,0.701 0.219,0.941 -0.05,0.533 -0.267,0.919 -0.653,1.162 -0.532,-0.871 -0.701,-1.789 -0.509,-2.756 0.05,-0.144 0.267,-0.821 0.653,-2.031 0.097,-0.287 0.267,-0.53 0.51,-0.724 z"
       fill="#7bb342"
       id="path3963" />
    <path
       fill-rule="evenodd"
       clip-rule="evenodd"
       d="m 46.044,12.422 0.072,-1.885 c -0.048,-0.532 -0.024,-0.895 0.073,-1.087 0.145,-0.242 0.313,-0.194 0.508,0.145 0.144,0.194 0.29,0.458 0.435,0.797 0.096,0.29 0.242,0.484 0.435,0.581 0.387,0.241 0.604,0.531 0.653,0.87 -1.16,0.24 -1.886,0.433 -2.176,0.579 z"
       fill="#7bb342"
       id="path3965" />
    <path
       fill-rule="evenodd"
       clip-rule="evenodd"
       d="m 31.76,24.604 c -0.049,0.29 -0.483,0.556 -1.306,0.798 -0.483,0.145 -0.919,0.436 -1.305,0.87 -0.165,0.166 -0.298,0.323 -0.399,0.472 0.121,-0.205 0.253,-0.437 0.399,-0.689 0.386,-0.628 0.773,-1.064 1.161,-1.305 0.387,-0.29 0.749,-0.387 1.088,-0.29 0.143,-0.001 0.264,0.047 0.362,0.144 z"
       fill="#7bb342"
       id="path3967" />
    <path
       fill-rule="evenodd"
       clip-rule="evenodd"
       d="m 31.614,26.489 c 0.048,-0.193 0.146,-0.412 0.29,-0.652 0.29,-0.484 0.701,-0.821 1.232,-1.016 0.387,-0.194 0.87,-0.314 1.45,-0.362 0.387,-0.049 0.653,-0.194 0.798,-0.436 l 0.653,-1.087 -0.073,0.435 c -0.049,0.387 -0.169,0.725 -0.363,1.016 -0.338,0.677 -0.966,1.231 -1.885,1.667 -0.532,0.193 -1.039,0.338 -1.522,0.436 h -0.58 z"
       fill="#7bb342"
       id="path3969" />
    <path
       fill-rule="evenodd"
       clip-rule="evenodd"
       d="m 26.828,27.504 c 0,-0.531 0.073,-1.257 0.218,-2.176 0.145,-1.353 0.532,-2.077 1.16,-2.176 0.677,0 1.136,0.024 1.378,0.074 l 0.506,0.072 -0.58,0.29 c -0.483,0.241 -0.845,0.531 -1.087,0.87 -0.193,0.29 -0.532,0.991 -1.015,2.103 -0.241,0.629 -0.435,0.943 -0.58,0.943 z"
       fill="#7bb342"
       id="path3971" />
    <path
       fill-rule="evenodd"
       clip-rule="evenodd"
       d="m 37.995,23.589 c 0.194,-0.387 0.435,-0.749 0.726,-1.087 0.629,-0.725 1.306,-1.064 2.03,-1.016 1.16,0.048 1.837,0.241 2.03,0.579 -0.291,-0.096 -1.04,0 -2.248,0.291 -0.725,0.194 -1.354,0.459 -1.885,0.797 -0.291,0.146 -0.508,0.29 -0.653,0.436 z"
       fill="#7bb342"
       id="path3973" />
    <path
       fill-rule="evenodd"
       clip-rule="evenodd"
       d="m 51.772,33.305 c -0.725,1.402 -2.055,2.272 -3.988,2.611 -2.562,0.387 -5.583,0.773 -9.063,1.16 -2.514,0.482 -4.134,0.652 -4.858,0.507 -1.16,-0.241 -1.692,-1.691 -1.596,-4.351 0.097,-2.368 0.87,-2.853 2.32,-1.45 1.74,1.645 2.852,2.007 3.336,1.088 1.595,-2.805 3.045,-6.116 4.351,-9.934 0.58,-1.546 1.16,-2.804 1.741,-3.771 0.676,-1.014 1.231,-1.909 1.667,-2.682 1.258,-2.127 2.03,-3.529 2.321,-4.207 0.338,-1.208 0.603,-2.029 0.797,-2.464 0.29,-0.725 0.846,-1.185 1.667,-1.378 0.29,-0.049 1.063,0.121 2.321,0.507 0.677,0.242 1.28,-0.169 1.813,-1.232 0.678,-1.354 1.595,-2.079 2.755,-2.175 1.21,-0.049 1.813,0.676 1.813,2.175 0,1.112 -0.41,3.167 -1.231,6.164 -0.968,3.529 -1.522,5.801 -1.669,6.816 -0.24,1.739 -0.531,3.117 -0.869,4.133 -0.242,0.677 -0.821,1.957 -1.741,3.844 -0.581,1.159 -1.21,2.705 -1.887,4.639 z"
       fill="#719b3f"
       id="path3975" />
    <path
       fill-rule="evenodd"
       clip-rule="evenodd"
       d="m 54.311,8.144 c 0.048,-0.387 0.194,-0.58 0.435,-0.58 0.194,0 0.459,-0.024 0.798,-0.073 0.29,-0.048 0.338,0.049 0.146,0.29 -0.29,0.291 -0.484,0.508 -0.581,0.653 -0.192,0.291 -0.313,0.701 -0.362,1.232 -0.048,0.435 -0.072,0.991 -0.072,1.668 -0.048,0.531 -0.193,0.966 -0.435,1.305 -0.967,1.112 -1.498,1.716 -1.596,1.813 -1.064,1.112 -1.981,2.225 -2.755,3.337 -0.677,0.966 -0.726,1.353 -0.146,1.16 0.532,-0.194 1.426,-1.063 2.684,-2.61 2.175,-2.756 3.359,-4.254 3.553,-4.497 0.773,-0.87 1.475,-1.354 2.103,-1.45 -0.967,1.112 -1.981,2.465 -3.045,4.06 -1.934,2.901 -3.408,4.569 -4.424,5.004 l -2.175,1.16 -0.362,0.653 c -0.097,0.387 0.338,0.459 1.304,0.218 1.258,-0.291 2.226,-0.604 2.9,-0.943 0.775,-0.483 1.378,-1.16 1.813,-2.029 l 2.103,-3.481 c -0.629,3.094 -1.256,4.882 -1.885,5.366 -0.387,0.386 -0.701,0.677 -0.943,0.869 -0.387,0.291 -1.16,0.629 -2.319,1.016 l -3.626,1.088 -0.218,0.869 c 0.146,0.484 0.967,0.509 2.466,0.074 2.175,-0.726 3.335,-1.112 3.48,-1.162 0.579,-0.24 0.991,-0.603 1.232,-1.087 l 0.653,-1.087 0.071,1.596 c -0.29,1.112 -1.231,1.813 -2.828,2.103 -1.643,0.339 -2.803,0.651 -3.479,0.941 -0.194,0.049 -0.677,0.339 -1.45,0.871 -0.725,0.531 -1.258,0.846 -1.596,0.942 l 0.943,0.218 c 0.821,0.097 1.716,0.024 2.682,-0.218 1.548,-0.339 2.95,-0.508 4.206,-0.508 -2.03,2.176 -4.06,4.205 -6.091,6.092 -4.108,3.674 -6.235,4.664 -6.38,2.973 -0.05,-3.481 -0.122,-5.511 -0.219,-6.091 -0.048,-0.387 0.169,-1.04 0.653,-1.958 l 0.253,-0.436 c -0.007,0.231 0.15,0.4 0.472,0.508 0.58,0.192 1.016,0.217 1.305,0.072 0.29,-0.096 0.29,-0.362 0,-0.797 C 43.24,26.853 43,26.562 42.854,26.417 42.709,26.225 42.613,25.958 42.565,25.619 l -0.074,-1.885 0.437,1.016 c 0.339,0.677 0.676,1.016 1.014,1.016 0.581,0 0.943,-0.242 1.088,-0.726 l -0.725,-1.887 c -0.531,-1.111 -0.58,-2.343 -0.145,-3.697 0.096,-0.338 0.096,-0.145 0,0.581 -0.097,1.016 -0.024,1.45 0.218,1.304 l 0.507,-0.289 0.219,-1.016 c 0.144,-0.533 0.362,-0.847 0.651,-0.943 0.193,-0.096 0.484,-0.145 0.871,-0.145 0.192,-0.048 0.314,0.024 0.362,0.217 0.048,0.098 0.096,-0.048 0.145,-0.435 l 0.218,-1.088 c 0,-0.145 0.024,-0.29 0.072,-0.435 0.097,-0.338 0.314,-0.507 0.653,-0.507 h 0.869 c 0.194,-0.242 0.218,-0.628 0.072,-1.161 L 48.8,14.814 c 0.145,-0.096 0.145,-0.459 0,-1.088 l -0.072,-0.579 -0.146,-0.362 0.146,-1.306 0.435,1.306 c 0.291,0.917 0.531,1.426 0.726,1.522 0.145,0.048 0.267,0.168 0.362,0.362 l 0.072,-0.218 0.072,-1.45 c 0,-0.387 -0.145,-0.675 -0.435,-0.87 -0.097,-0.048 0.048,-0.144 0.435,-0.29 0.773,-0.241 1.378,-0.363 1.813,-0.363 0.678,0 1.064,-0.024 1.16,-0.072 0.339,-0.194 0.557,-0.653 0.653,-1.378 0.145,-1.159 0.242,-1.788 0.29,-1.884 z"
       fill="#5a873c"
       id="path3977" />
    <path
       fill-rule="evenodd"
       clip-rule="evenodd"
       d="m 53.804,22.646 c -1.983,0.87 -3.361,1.426 -4.134,1.668 -0.483,0.145 -1.016,0.555 -1.595,1.231 -0.291,0.339 -0.533,0.653 -0.726,0.943 h 0.726 c 0.725,0.049 1.667,0.192 2.828,0.435 1.643,0.291 0.579,2.32 -3.191,6.092 -3.577,3.576 -5.294,3.818 -5.147,0.725 0.096,-1.499 -0.05,-2.876 -0.437,-4.134 -0.435,-1.16 -0.604,-2.005 -0.507,-2.538 l 0.762,-2.973 c 0.094,0.241 0.299,0.556 0.616,0.943 0.725,0.87 1.256,1.305 1.595,1.305 -0.339,-0.145 -0.579,-0.821 -0.726,-2.029 -0.096,-0.775 -0.072,-1.813 0.072,-3.119 l 0.219,-1.74 0.435,1.958 c 0.339,1.304 0.725,1.958 1.16,1.958 0.435,0 0.652,-0.267 0.652,-0.797 -0.096,-0.822 -0.145,-1.547 -0.145,-2.175 l 0.145,-4.859 c 0.435,4.254 0.919,5.632 1.45,4.134 0.387,-1.16 0.677,-1.982 0.871,-2.465 0.289,-0.725 0.821,-1.645 1.595,-2.756 0.629,-0.966 1.282,-1.691 1.957,-2.175 0.484,-0.387 0.75,-0.701 0.799,-0.942 l 0.145,-0.943 c 0.145,0.629 -0.193,1.498 -1.016,2.61 l -2.138,3.337 c 0.218,-0.086 0.495,-0.159 0.834,-0.218 1.353,-0.242 2.658,-1.354 3.914,-3.335 -0.676,1.498 -1.474,2.682 -2.392,3.553 -1.402,1.112 -2.298,1.909 -2.684,2.392 -0.531,0.629 -0.895,1.112 -1.088,1.45 -0.241,0.581 0.121,0.847 1.088,0.797 0.677,-0.096 1.185,-0.193 1.523,-0.289 0.606,-0.203 1.089,-0.469 1.45,-0.799 -1.042,1.098 -2.034,1.775 -2.974,2.031 -0.726,0.194 -1.232,0.507 -1.522,0.943 -0.241,0.483 -0.121,0.725 0.362,0.725 0.725,0 1.716,-0.146 2.973,-0.437 z"
       fill="#769e3f"
       id="path3979" />
    <path
       fill-rule="evenodd"
       clip-rule="evenodd"
       d="m 51.266,8.796 c 0.048,0 0.097,0.12 0.145,0.362 0,0.338 0.048,0.629 0.145,0.87 0.242,0.435 0.677,0.701 1.306,0.797 H 51.7 c -0.532,0 -0.919,-0.387 -1.16,-1.16 -0.098,-0.291 -0.266,-0.459 -0.508,-0.507 -0.145,0 -0.169,-0.096 -0.072,-0.29 0.145,-0.194 0.338,-0.267 0.58,-0.218 z"
       fill="#7bb342"
       id="path3981" />
    <path
       fill-rule="evenodd"
       clip-rule="evenodd"
       d="m 49.162,9.666 c 0,0.338 0.241,1.474 0.726,3.409 0.078,0.704 0.187,1.139 0.325,1.304 -0.385,-0.277 -0.712,-0.614 -0.979,-1.015 -0.193,-0.289 -0.314,-0.821 -0.362,-1.595 L 48.8,10.681 c 0.048,-0.29 0.097,-0.557 0.145,-0.797 0.096,-0.485 0.169,-0.557 0.217,-0.218 z"
       fill="#7bb342"
       id="path3983" />
    <path
       fill-rule="evenodd"
       clip-rule="evenodd"
       d="m 47.856,13.872 c 0,0.579 0.363,1.329 1.088,2.248 h -0.507 c -0.435,0 -0.896,-0.314 -1.378,-0.943 -0.097,-0.192 0,-0.627 0.29,-1.304 0.339,-0.63 0.507,-0.63 0.507,-10e-4 z"
       fill="#7bb342"
       id="path3985" />
    <path
       fill-rule="evenodd"
       clip-rule="evenodd"
       d="m 56.921,6.548 c 1.063,-0.628 1.33,0.073 0.797,2.103 -0.145,0.581 -0.289,0.895 -0.435,0.943 -0.29,0.096 -0.652,0.29 -1.088,0.581 l -1.595,1.45 c 0.241,-0.823 0.411,-1.692 0.507,-2.611 0.097,-0.968 0.702,-1.789 1.814,-2.466 z"
       fill="#7bb342"
       id="path3987" />
    <path
       fill-rule="evenodd"
       clip-rule="evenodd"
       d="m 53.514,13.438 c 0.869,-0.775 1.184,-0.799 0.941,-0.074 -0.241,0.774 -0.701,1.426 -1.377,1.958 -1.306,1.16 -1.74,1.402 -1.306,0.725 0.145,-0.194 0.29,-0.532 0.435,-1.015 0.242,-0.483 0.678,-1.015 1.307,-1.594 z"
       fill="#7bb342"
       id="path3989" />
    <path
       fill-rule="evenodd"
       clip-rule="evenodd"
       d="m 54.238,15.83 1.667,-2.755 c 0.629,-1.063 1.426,-2.055 2.394,-2.974 l -0.218,0.291 c -0.339,1.16 -0.726,2.199 -1.16,3.119 -0.241,0.628 -0.749,1.474 -1.522,2.538 -1.063,1.981 -1.957,3.215 -2.683,3.698 -0.437,0.291 -0.943,0.387 -1.523,0.291 l -0.652,-0.218 1.813,-1.522 c 0.24,-0.245 0.869,-1.067 1.884,-2.468 z"
       fill="#7bb342"
       id="path3991" />
    <path
       fill-rule="evenodd"
       clip-rule="evenodd"
       d="m 55.471,17.063 c 0.532,-0.677 0.797,-0.847 0.797,-0.508 0,0.146 -0.072,0.532 -0.217,1.16 -0.096,1.016 -0.772,2.273 -2.03,3.771 -0.579,0.773 -1.063,1.088 -1.45,0.942 l -0.436,-0.507 1.958,-2.104 c 0.532,-0.579 0.991,-1.498 1.378,-2.754 z"
       fill="#7bb342"
       id="path3993" />
    <path
       fill-rule="evenodd"
       clip-rule="evenodd"
       d="m 51.12,14.525 c -1.45,2.514 -2.416,4.713 -2.9,6.599 -0.339,1.546 -0.87,3.818 -1.595,6.816 -0.581,2.416 -1.04,3.965 -1.379,4.64 -0.628,1.112 -1.426,1.741 -2.393,1.887 -1.112,0.192 -1.401,-0.847 -0.87,-3.118 0.919,-0.436 1.885,-1.886 2.9,-4.352 0.919,-2.609 1.909,-5.051 2.973,-7.323 0.677,-1.45 1.765,-3.263 3.264,-5.438 0.513,-0.786 0.995,-1.499 1.45,-2.14 -0.476,0.708 -0.961,1.518 -1.45,2.429 z"
       fill="#d2d6a7"
       id="path3995" />
    <path
       fill-rule="evenodd"
       clip-rule="evenodd"
       d="m 44.812,27.794 1.667,-5.292 c 0.532,-1.692 1.524,-3.675 2.975,-5.947 0.725,-1.112 1.4,-2.079 2.029,-2.901 -0.241,0.339 -0.531,0.75 -0.87,1.234 -0.677,0.966 -1.209,1.813 -1.596,2.538 -0.918,2.03 -1.691,4.277 -2.319,6.743 -0.773,3.434 -1.402,5.415 -1.886,5.947 -0.338,0.387 -0.484,0.289 -0.435,-0.29 0,-0.582 0.144,-1.259 0.435,-2.032 z"
       fill="#dbddbb"
       id="path3997" />
    <path
       fill-rule="evenodd"
       clip-rule="evenodd"
       d="m 19.65,22.501 c 0.483,0 0.967,0.096 1.45,0.289 0.338,0.05 0.725,-0.338 1.16,-1.16 0.677,-1.304 1.04,-1.958 1.087,-1.958 0.242,-0.338 0.58,-0.508 1.016,-0.508 h 2.103 c 0.532,-0.048 0.87,-0.096 1.015,-0.145 0.193,-0.194 0.46,-0.386 0.797,-0.581 0.338,-0.192 0.653,-0.435 0.943,-0.725 0.242,-0.145 0.604,-0.096 1.088,0.146 0.387,0.192 0.773,0.459 1.16,0.797 0.192,0.145 0.386,0.168 0.579,0.072 0.242,-0.048 0.46,-0.072 0.653,-0.072 0.193,-0.048 0.482,-0.363 0.87,-0.943 0.338,-0.821 0.556,-1.329 0.652,-1.522 0.097,-0.291 0.58,-0.435 1.451,-0.435 0.725,0 1.136,-0.169 1.231,-0.507 0.049,-0.098 0.339,0.072 0.87,0.507 0.484,0.386 1.548,0.943 3.19,1.668 1.45,0.627 2.321,1.16 2.61,1.595 0.194,0.242 0.557,0.387 1.088,0.435 0.437,0 0.967,0.508 1.596,1.522 1.016,1.74 1.571,3.239 1.667,4.496 0.05,0.387 0.098,0.942 0.146,1.667 0,0.581 -0.267,0.92 -0.798,1.016 -7.251,2.176 -12.666,2.997 -16.243,2.466 -0.918,-0.145 -4.013,-0.194 -9.282,-0.145 -3.577,0.048 -5.487,-0.46 -5.728,-1.523 -0.291,-1.16 0.072,-2.44 1.087,-3.843 0.729,-0.965 1.575,-1.836 2.542,-2.609 z"
       fill="#5a873c"
       id="path3999" />
    <path
       fill-rule="evenodd"
       clip-rule="evenodd"
       d="m 37.271,18.513 c 0.096,0.048 0.58,0.555 1.45,1.522 0.677,0.677 1.33,1.016 1.957,1.016 0.146,0 0.749,-0.074 1.813,-0.218 0.533,-0.096 1.016,0 1.45,0.291 0.339,0.29 0.823,0.653 1.45,1.087 0.533,0.387 0.871,0.749 1.016,1.088 0.291,0.531 0.604,1.256 0.943,2.175 -1.74,-2.079 -2.973,-3.214 -3.697,-3.409 -0.437,-0.096 -0.871,-0.144 -1.307,-0.144 -0.58,0.048 -1.111,0.072 -1.595,0.072 -0.677,0 -1.087,-0.024 -1.233,-0.072 -0.192,-0.048 -0.629,-0.314 -1.304,-0.797 -0.775,-0.533 -1.21,-0.822 -1.307,-0.871 -0.242,-0.048 -0.604,0.024 -1.087,0.218 -0.58,0.242 -1.185,0.629 -1.813,1.16 -0.628,0.533 -0.966,0.919 -1.015,1.16 -0.242,1.016 0.218,1.402 1.378,1.161 0.531,-0.098 1.159,-0.338 1.885,-0.725 0.58,-0.194 1.16,-0.074 1.74,0.362 l 2.248,1.667 c 0.677,0.435 1.063,0.677 1.16,0.726 0.242,0.096 0.604,0.121 1.087,0.072 0.726,-0.049 1.524,0.266 2.394,0.942 -0.435,0.194 -1.45,0.097 -3.045,-0.29 -0.774,-0.192 -1.5,-0.482 -2.175,-0.869 -0.533,-0.339 -1.04,-0.533 -1.524,-0.581 -1.498,-0.531 -2.416,-0.677 -2.755,-0.435 -0.29,0.194 -1.063,0.387 -2.32,0.58 l 1.45,0.145 c 1.015,0.145 1.788,0.436 2.32,0.87 0.049,0.05 0.387,0.412 1.016,1.088 0.241,0.242 0.628,0.436 1.16,0.58 0.918,0.242 2.104,0.362 3.554,0.362 -0.919,0.773 -1.789,1.16 -2.612,1.16 -6.332,-0.629 -10.393,-0.918 -12.181,-0.869 -2.272,0.29 -3.94,0.482 -5.004,0.579 -1.934,0.242 -2.61,0.05 -2.03,-0.579 0.435,-0.677 1.257,-1.45 2.465,-2.321 1.112,-0.773 2.175,-1.353 3.191,-1.739 1.305,-0.484 2.054,-0.943 2.248,-1.378 -0.048,-0.773 0.193,-1.499 0.725,-2.175 0.338,-0.435 0.846,-0.797 1.523,-1.088 0.338,-0.146 0.651,-0.266 0.942,-0.363 l -0.726,0.726 c -0.531,0.531 -0.797,1.039 -0.797,1.522 0,0.386 -0.025,0.628 -0.073,0.725 l 0.726,-0.363 c 1.354,-0.435 2.175,-0.967 2.465,-1.595 0.193,-0.629 0.339,-1.087 0.436,-1.378 0.193,-0.533 0.531,-0.797 1.016,-0.797 0.241,0 0.7,-0.074 1.377,-0.218 0.338,-0.048 0.676,0.024 1.015,0.218 z"
       fill="#4f7835"
       id="path4001" />
    <path
       fill-rule="evenodd"
       clip-rule="evenodd"
       d="m 21.245,19.673 1.595,1.16 -0.652,1.306 c -0.436,1.063 -0.701,2.126 -0.798,3.189 -0.145,1.161 0.121,2.176 0.798,3.047 0.628,0.725 1.329,1.136 2.103,1.231 0.725,0.049 1.91,-0.023 3.553,-0.217 1.741,-0.146 2.586,-0.29 2.538,-0.436 1.934,-6.188 2.924,-9.499 2.973,-9.934 0,-0.29 0.072,-0.531 0.218,-0.725 l 0.145,-0.218 1.016,2.611 c 0.725,1.933 1.232,3.407 1.522,4.423 0.339,1.402 -1.354,2.997 -5.076,4.786 -3.867,1.836 -6.864,2.175 -8.991,1.015 -1.934,-1.063 -2.659,-3.263 -2.175,-6.598 z"
       fill="#52702f"
       id="path4003" />
    <path
       fill-rule="evenodd"
       clip-rule="evenodd"
       d="m 39.155,9.159 1.813,-0.653 0.726,1.016 c 0.435,0.579 0.677,0.653 0.725,0.217 0.049,-0.531 0.75,-0.846 2.104,-0.942 1.306,-0.096 2.127,0.072 2.466,0.507 0.387,0.484 0.701,1.04 0.941,1.668 -0.579,0.435 -1.111,0.653 -1.595,0.653 -0.773,0 -1.281,0.289 -1.522,0.87 L 43.217,16.483 43,16.411 41.041,15.323 c -0.145,0.241 -0.604,0.701 -1.376,1.378 -1.162,0.966 -2.298,1.45 -3.409,1.45 -0.726,0 -1.112,-0.146 -1.16,-0.436 z"
       fill="#52702f"
       id="path4005" />
    <path
       fill-rule="evenodd"
       clip-rule="evenodd"
       d="m 20.665,18.042 c -0.87,-0.464 -1.305,-0.79 -1.305,-0.979 l -0.797,-5.657 0.942,-2.32 c 2.175,0.87 3.311,1.353 3.408,1.45 0.096,0.097 0.169,0.725 0.217,1.885 0.048,1.063 0.048,1.691 0,1.885 0,0.096 -0.097,0.458 -0.291,1.087 -0.194,0.629 -0.411,0.943 -0.652,0.943 -0.097,0 -0.411,-0.242 -0.943,-0.725 -0.387,-0.338 -0.581,-0.314 -0.581,0.072 v 2.359 z"
       fill="#52702f"
       id="path4007" />
    <path
       fill-rule="evenodd"
       clip-rule="evenodd"
       d="m 30.091,17.135 0.073,2.029 c 0.048,0.871 0.266,1.692 0.652,2.466 l -1.74,1.522 -1.958,-6.017 -0.508,1.667 c -0.29,0.823 -0.604,1.015 -0.942,0.581 -0.339,-0.435 -0.46,-1.063 -0.363,-1.885 0.193,-0.919 0.895,-2.031 2.103,-3.335 1.401,-1.45 2.538,-2.055 3.408,-1.813 0.918,0.193 1.475,0.749 1.668,1.667 0.145,0.871 -0.049,1.692 -0.58,2.466 -0.387,0.628 -0.798,0.919 -1.232,0.87 z"
       fill="#52702f"
       id="path4009" />
    <path
       fill-rule="evenodd"
       clip-rule="evenodd"
       d="m 52.57,18.658 1.306,-1.813 c 1.208,3.77 1.426,6.357 0.652,7.759 -0.774,1.354 -1.644,1.958 -2.611,1.813 l 0.437,-8.121 z"
       fill="#52702f"
       id="path4011" />
    <path
       fill-rule="evenodd"
       clip-rule="evenodd"
       d="m 19.939,4.88 c 0.677,-1.112 1.306,-1.837 1.886,-2.175 0.338,-0.146 0.58,-0.193 0.725,-0.146 l 2.393,0.291 -0.218,5.511 c -0.193,2.949 -0.483,5.125 -0.87,6.527 -3.287,-1.162 -5.293,-2.175 -6.019,-3.046 z"
       fill="#d66e40"
       id="path4013" />
    <path
       fill-rule="evenodd"
       clip-rule="evenodd"
       d="m 25.016,2.85 c -0.29,0.048 -0.652,0.266 -1.088,0.652 -0.967,0.725 -1.909,1.886 -2.828,3.481 -1.257,2.224 -1.91,4.157 -1.958,5.801 -0.29,0.144 -0.725,-0.17 -1.305,-0.943 -0.338,-0.531 -0.725,-0.918 -1.16,-1.16 l -0.58,-0.218 c 0,-1.547 0.411,-3.335 1.233,-5.366 0.532,-1.305 1.498,-2.538 2.9,-3.698 0.725,-0.58 1.378,-1.04 1.958,-1.378 l 0.87,0.653 c 0.58,0.435 1.233,1.16 1.958,2.176 z"
       fill="url(#SVGID_7_)"
       id="path4020"
       style="fill:url(#SVGID_7_)" />
    <path
       fill-rule="evenodd"
       clip-rule="evenodd"
       d="M 23.783,13.726 22.405,10.101 C 21.777,8.12 22.018,6.645 23.13,5.678 c 0.484,-0.387 0.822,-0.483 1.016,-0.29 0.241,0.193 0.337,0.894 0.29,2.103 -0.097,1.74 -0.315,3.819 -0.653,6.235 z"
       fill="#ad5630"
       id="path4022" />
    <path
       fill-rule="evenodd"
       clip-rule="evenodd"
       d="m 23.565,14.017 c 0.146,0.387 0.193,0.653 0.146,0.797 l -1.522,-0.507 -2.683,-1.306 c 0.097,-0.821 0.266,-1.498 0.508,-2.029 0.193,-0.484 0.435,-0.847 0.725,-1.088 0.386,-0.29 0.701,-0.29 0.942,0 0.434,0.435 1.063,1.813 1.884,4.133 z"
       fill="#ad5630"
       id="path4024" />
    <path
       fill-rule="evenodd"
       clip-rule="evenodd"
       d="m 23.638,8.144 -0.145,0.87 -0.291,-2.03 c 0.097,-0.145 0.218,-0.049 0.362,0.29 0.098,0.338 0.122,0.628 0.074,0.87 z"
       fill="#ab782a"
       id="path4026" />
    <path
       fill-rule="evenodd"
       clip-rule="evenodd"
       d="m 21.39,12.494 c -0.435,0.048 -0.725,-0.048 -0.87,-0.291 -0.097,-0.192 -0.073,-0.362 0.072,-0.507 0.097,-0.048 0.266,0.072 0.508,0.362 0.096,0.146 0.193,0.292 0.29,0.436 z"
       fill="#ab782a"
       id="path4028" />
    <path
       fill-rule="evenodd"
       clip-rule="evenodd"
       d="M 23.565,7.636 C 23.469,8.7 23.421,8.65 23.421,7.491 23.372,7.346 23.396,7.273 23.493,7.273 c 0.097,0 0.121,0.121 0.072,0.363 z"
       fill="#e0bb82"
       id="path4030" />
    <path
       fill-rule="evenodd"
       clip-rule="evenodd"
       d="m 31.76,13.872 c 0.773,0.966 0.895,1.837 0.362,2.61 -0.531,0.387 -1.063,0.653 -1.596,0.797 l -1.595,0.146 0.218,1.088 c 0.193,0.773 0.411,1.304 0.653,1.595 0.387,0.435 0.58,0.701 0.58,0.797 l -1.305,0.797 c -0.484,-0.821 -0.967,-1.667 -1.45,-2.538 -0.967,-1.789 -1.475,-2.803 -1.523,-3.045 -0.048,-0.531 0.242,-1.256 0.87,-2.175 0.291,-0.435 0.605,-0.846 0.943,-1.232 l 1.523,0.072 c 1.111,0.193 1.884,0.556 2.32,1.088 z"
       fill="#7a6227"
       id="path4034" />
    <path
       fill-rule="evenodd"
       clip-rule="evenodd"
       d="m 24.798,19.673 0.146,-3.553 c 0.338,-0.725 0.653,-1.256 0.942,-1.595 0.629,-0.725 0.87,-0.218 0.725,1.522 -0.096,1.741 -0.435,2.876 -1.015,3.408 -0.29,0.242 -0.556,0.315 -0.798,0.218 z"
       fill="#7a6227"
       id="path4036" />
    <path
       fill-rule="evenodd"
       clip-rule="evenodd"
       d="m 31.687,15.176 c 0.146,0.677 -0.024,1.209 -0.508,1.596 -0.58,0.483 -1.498,0.677 -2.755,0.58 l 0.145,0.943 c 0.193,0.677 0.387,1.232 0.58,1.668 l 0.58,1.014 -1.305,0.653 c -0.58,0.338 -0.918,0.581 -1.015,0.725 l -0.362,-1.885 -0.943,-2.465 -0.652,1.668 c -0.532,0.87 -1.136,0.846 -1.813,-0.072 -0.629,-1.016 -0.459,-2.346 0.508,-3.988 0.676,-1.209 1.57,-2.007 2.682,-2.394 1.063,-0.387 2.103,-0.338 3.119,0.145 0.965,0.484 1.545,1.087 1.739,1.812 z"
       fill="#ded8a0"
       id="path4038" />
    <path
       fill-rule="evenodd"
       clip-rule="evenodd"
       d="m 28.424,17.352 c -0.097,-0.193 -0.169,-0.435 -0.218,-0.725 -0.097,-0.483 0,-0.797 0.291,-0.942 0.338,-0.194 0.604,-0.218 0.797,-0.072 0.193,0.096 0.193,0.289 0,0.579 -0.048,0.096 -0.217,0.242 -0.508,0.435 -0.193,0.098 -0.314,0.338 -0.362,0.725 z"
       fill="#968f48"
       id="path4040" />
    <path
       fill-rule="evenodd"
       clip-rule="evenodd"
       d="m 26.103,18.223 c -0.096,-0.146 -0.266,-0.17 -0.507,-0.072 -0.338,0.097 -0.581,0.121 -0.725,0.072 -0.242,-0.048 -0.267,-0.218 -0.073,-0.508 0.146,-0.338 0.363,-0.507 0.653,-0.507 0.386,0 0.604,0.338 0.652,1.015 z"
       fill="#968f48"
       id="path4042" />
    <path
       fill-rule="evenodd"
       clip-rule="evenodd"
       d="m 38.576,8.289 3.842,-1.523 c 3.529,0.193 5.391,0.46 5.585,0.798 0.192,0.338 0.217,1.208 0.072,2.611 -0.097,0.338 -0.411,0.555 -0.943,0.651 -0.339,0.05 -0.821,0 -1.45,-0.145 l -0.87,-0.29 -0.58,2.175 c -0.291,1.063 -0.773,2.103 -1.45,3.119 -0.193,-0.242 -0.508,-0.459 -0.942,-0.653 -0.242,-0.097 -0.532,-0.121 -0.871,-0.072 l -0.507,0.072 -0.435,-1.16 2.319,-1.668 0.145,-3.045 -0.869,0.942 c -0.339,0.387 -0.798,0.533 -1.378,0.436 l -0.798,-0.29 z"
       fill="#7a6227"
       id="path4044" />
    <path
       fill-rule="evenodd"
       clip-rule="evenodd"
       d="M 41.693,8.941 C 40.146,9.714 39.13,9.618 38.648,8.65 38.309,7.878 38.429,7.031 39.01,6.113 c 0.579,-0.967 1.354,-1.596 2.32,-1.886 2.514,-0.773 4.374,-0.459 5.584,0.943 0.725,0.773 1.111,1.644 1.16,2.61 0.048,0.87 -0.122,1.45 -0.509,1.741 -0.241,0.192 -0.798,0.192 -1.667,0 l -1.306,-0.363 -1.885,5.148 c -0.531,-0.242 -1.063,-0.363 -1.595,-0.363 l -1.088,-0.072 c 0.821,-1.499 1.305,-2.562 1.45,-3.191 z"
       fill="#ded8a0"
       id="path4046" />
    <path
       fill-rule="evenodd"
       clip-rule="evenodd"
       d="M 41.693,8.65 C 41.306,7.925 40.944,7.539 40.605,7.49 40.266,7.49 40.218,7.272 40.46,6.838 40.652,6.451 40.943,6.33 41.33,6.475 c 0.581,0.242 0.701,0.967 0.363,2.175 z"
       fill="#968f48"
       id="path4048" />
    <path
       fill-rule="evenodd"
       clip-rule="evenodd"
       d="m 44.594,8.869 0.581,-1.16 c 0.482,-0.725 0.966,-0.967 1.45,-0.725 0.53,0.242 0.677,0.556 0.435,0.942 -0.291,0.387 -0.653,0.58 -1.088,0.58 -0.387,-0.097 -0.629,-0.145 -0.726,-0.145 -0.143,0 -0.362,0.169 -0.652,0.508 z"
       fill="#968f48"
       id="path4050" />
    <path
       fill-rule="evenodd"
       clip-rule="evenodd"
       d="m 17.982,8.578 1.232,0.363 c 0.822,0.338 1.088,0.773 0.798,1.306 -0.436,0.87 -1.161,1.256 -2.176,1.16 l -0.073,4.351 h -1.522 v -0.725 c 0.048,-0.339 -0.048,-0.992 -0.291,-1.958 l -0.29,-1.378 -0.725,0.435 c -0.967,0.483 -1.837,0.581 -2.611,0.291 -0.58,-0.146 -0.966,-0.581 -1.16,-1.306 -0.193,-0.87 0.121,-1.765 0.942,-2.683 1.305,-1.402 3.118,-2.127 5.438,-2.175 l 0.29,0.652 -0.145,0.653 c -0.142,0.434 -0.045,0.773 0.293,1.014 z"
       fill="#7a6227"
       id="path4052" />
    <path
       fill-rule="evenodd"
       clip-rule="evenodd"
       d="m 13.559,7.781 c 1.209,-0.966 2.562,-1.474 4.061,-1.522 1.401,-0.049 2.393,0.29 2.973,1.015 0.484,0.629 0.604,1.305 0.363,2.03 -0.242,0.677 -0.653,1.136 -1.233,1.378 -0.387,0.145 -0.749,0.218 -1.088,0.218 h -0.362 l 0.217,2.61 0.581,2.103 -2.031,0.87 c -0.145,-0.581 -0.266,-1.354 -0.362,-2.32 l -0.145,-2.612 c -2.175,1.112 -3.36,1.186 -3.554,0.218 -0.338,-0.291 -0.556,-0.701 -0.653,-1.232 -0.242,-0.968 0.169,-1.887 1.233,-2.756 z"
       fill="#ded8a0"
       id="path4054" />
    <path
       fill-rule="evenodd"
       clip-rule="evenodd"
       d="m 15.879,10.826 c -0.097,-0.048 -0.339,0.024 -0.725,0.218 -0.339,0.096 -0.532,0.024 -0.58,-0.218 -0.097,-0.289 -0.024,-0.531 0.217,-0.725 0.242,-0.145 0.58,-0.192 1.016,-0.145 0.58,0.145 0.821,0.677 0.725,1.595 -0.049,-0.387 -0.266,-0.628 -0.653,-0.725 z"
       fill="#968f48"
       id="path4056" />
    <path
       fill-rule="evenodd"
       clip-rule="evenodd"
       d="M 18.272,10.899 C 18.127,10.27 18.248,9.762 18.634,9.375 18.925,9.086 19.166,8.94 19.359,8.94 c 0.193,0 0.267,0.146 0.218,0.435 -0.048,0.194 -0.193,0.338 -0.435,0.436 -0.241,0.097 -0.411,0.217 -0.508,0.363 z"
       fill="#968f48"
       id="path4058" />
    <path
       fill-rule="evenodd"
       clip-rule="evenodd"
       d="m 14.864,22.283 c -0.532,-1.208 -0.821,-2.296 -0.87,-3.263 l 0.072,-1.16 0.797,-3.553 3.408,1.813 c 1.837,0.967 3.143,1.909 3.916,2.828 l -1.305,3.698 c -1.016,2.513 -1.741,4.036 -2.175,4.569 z"
       fill="#d66e40"
       id="path4060" />
    <path
       fill-rule="evenodd"
       clip-rule="evenodd"
       d="m 14.864,14.307 0.145,1.813 c 0.193,1.546 0.677,3.191 1.45,4.932 1.112,2.513 2.175,3.988 3.191,4.422 l -0.145,0.508 c -0.146,0.387 -0.411,0.797 -0.797,1.233 -0.629,0.676 -1.063,1.426 -1.306,2.247 -0.967,-0.338 -1.982,-1.401 -3.045,-3.19 -0.677,-1.112 -1.209,-2.853 -1.596,-5.22 l -0.362,-3.263 0.58,-1.088 c 0.291,-0.484 0.677,-1.015 1.16,-1.596 z"
       fill="url(#SVGID_8_)"
       id="path4067"
       style="fill:url(#SVGID_8_)" />
    <path
       fill-rule="evenodd"
       clip-rule="evenodd"
       d="m 21.39,18.875 c -0.676,0.339 -1.546,0.701 -2.61,1.088 -1.45,0.483 -2.321,-0.242 -2.61,-2.175 -0.145,-0.823 -0.121,-1.354 0.072,-1.596 0.193,-0.291 0.653,-0.241 1.378,0.146 1.063,0.531 2.319,1.376 3.77,2.537 z"
       fill="#ad5630"
       id="path4069" />
    <path
       fill-rule="evenodd"
       clip-rule="evenodd"
       d="m 22.042,19.165 -2.175,5.947 c -0.483,-0.387 -0.87,-0.847 -1.16,-1.378 -0.677,-1.208 -0.75,-2.127 -0.218,-2.756 0.193,-0.338 0.774,-0.75 1.741,-1.232 l 1.305,-0.581 c 0.242,-0.097 0.411,-0.097 0.507,0 z"
       fill="#ad5630"
       id="path4071" />
    <path
       fill-rule="evenodd"
       clip-rule="evenodd"
       d="m 17.837,17.642 0.508,0.435 c -0.822,0.146 -1.257,0.098 -1.306,-0.145 -0.048,-0.194 0.025,-0.314 0.218,-0.363 0.242,-0.095 0.435,-0.071 0.58,0.073 z"
       fill="#ab782a"
       id="path4073" />
    <path
       fill-rule="evenodd"
       clip-rule="evenodd"
       d="m 20.013,22.065 c -0.097,1.016 -0.314,1.354 -0.653,1.016 -0.048,-0.145 0.048,-0.363 0.291,-0.653 z"
       fill="#ab782a"
       id="path4075" />
    <path
       fill-rule="evenodd"
       clip-rule="evenodd"
       d="m 17.547,17.642 c 0.29,0.146 0.242,0.218 -0.145,0.218 -0.145,0 -0.193,-0.072 -0.145,-0.218 0.048,-0.096 0.145,-0.096 0.29,0 z"
       fill="#e0bb82"
       id="path4077" />
    <path
       fill-rule="evenodd"
       clip-rule="evenodd"
       d="m 39.518,11.625 1.813,2.029 c 0,0.533 -0.436,1.088 -1.305,1.668 -0.823,0.629 -1.813,1.232 -2.975,1.813 l -1.376,0.653 -0.798,0.217 z"
       fill="#bd502f"
       id="path4081" />
    <path
       fill-rule="evenodd"
       clip-rule="evenodd"
       d="m 34.949,8.506 c 0.919,0.194 1.74,0.507 2.466,0.943 1.063,0.675 1.716,1.643 1.958,2.9 0.049,0.435 -0.121,1.426 -0.508,2.973 l -1.16,1.088 c -0.483,0.387 -1.426,0.917 -2.827,1.595 -0.193,-1.208 -0.484,-2.32 -0.871,-3.335 -0.29,-0.677 -0.628,-1.789 -1.015,-3.335 l -0.508,-2.103 0.87,-0.797 c 0.291,-0.098 0.823,-0.074 1.595,0.071 z"
       fill="#eb7855"
       id="path4083" />
    <path
       fill-rule="evenodd"
       clip-rule="evenodd"
       d="m 34.878,6.04 1.232,0.363 c 1.016,0.483 2.006,1.257 2.973,2.321 0.773,0.821 1.522,2.464 2.248,4.93 0.048,0.291 -0.241,0.653 -0.87,1.088 -0.387,0.291 -0.773,0.459 -1.16,0.508 l -0.436,0.072 -0.798,-2.103 C 37.585,12.059 36.472,10.923 34.732,9.811 34.055,9.425 33.475,9.207 32.992,9.158 L 32.484,9.23 C 32.435,9.134 32.581,8.747 32.92,8.07 33.499,6.911 34.152,6.233 34.878,6.04 Z"
       fill="url(#SVGID_9_)"
       id="path4090"
       style="fill:url(#SVGID_9_)" />
    <path
       fill-rule="evenodd"
       clip-rule="evenodd"
       d="m 33.064,10.391 c 0,-0.387 0.29,-0.411 0.87,-0.072 0.532,0.29 0.87,0.677 1.015,1.16 0.387,1.45 0.484,2.9 0.291,4.351 -0.049,0.677 -0.193,1.306 -0.436,1.885 0,-0.966 -0.169,-1.837 -0.507,-2.61 -0.532,-1.016 -0.919,-2.296 -1.161,-3.843 z"
       fill="#ad5630"
       id="path4094" />
    <path
       fill-rule="evenodd"
       clip-rule="evenodd"
       d="m 35.385,17.135 c -0.145,0.192 0.291,-1.112 1.305,-3.916 0.194,-0.291 0.46,-0.218 0.799,0.218 0.289,0.435 0.411,0.941 0.362,1.522 -0.049,0.483 -0.412,0.917 -1.087,1.304 z"
       fill="#ad5630"
       id="path4096" />
    <path
       fill-rule="evenodd"
       clip-rule="evenodd"
       d="m 34.152,13.075 c -0.097,-0.194 -0.169,-0.412 -0.218,-0.653 -0.097,-0.435 -0.072,-0.725 0.072,-0.871 0.291,-0.289 0.436,-0.096 0.436,0.581 0,0.194 -0.096,0.507 -0.29,0.943 z"
       fill="#c48a30"
       id="path4098" />
    <path
       fill-rule="evenodd"
       clip-rule="evenodd"
       d="m 36.327,15.539 c 0.05,-0.289 0.122,-0.555 0.218,-0.797 0.145,-0.483 0.314,-0.629 0.507,-0.435 0.291,0.29 0.05,0.701 -0.725,1.232 z"
       fill="#c48a30"
       id="path4100" />
    <path
       fill-rule="evenodd"
       clip-rule="evenodd"
       d="m 34.007,11.551 c 0.193,-0.338 0.291,-0.241 0.291,0.291 0,0.194 -0.073,0.387 -0.219,0.581 z"
       fill="#e0bb82"
       id="path4102" />
    <path
       fill-rule="evenodd"
       clip-rule="evenodd"
       d="m 36.764,14.451 c 0.24,0.194 0.144,0.437 -0.291,0.725 0,-0.144 0.024,-0.289 0.072,-0.435 0.049,-0.29 0.12,-0.386 0.219,-0.29 z"
       fill="#e0bb82"
       id="path4104" />
    <path
       fill-rule="evenodd"
       clip-rule="evenodd"
       d="m 32.774,28.156 0.436,-10.368 0.435,1.014 0.58,2.175 c 0.29,0.871 0.629,2.466 1.016,4.787 0.241,1.45 0.217,2.392 -0.073,2.826 z"
       fill="#bd502f"
       id="path4106" />
    <path
       fill-rule="evenodd"
       clip-rule="evenodd"
       d="m 33.21,17.788 1.015,4.495 0.218,2.176 c -0.629,1.692 -1.088,2.658 -1.378,2.9 -0.87,0.821 -1.86,0.869 -2.974,0.145 -0.773,-0.483 -1.498,-1.16 -2.175,-2.03 -0.628,-0.772 -0.991,-1.354 -1.088,-1.74 l -0.217,-1.595 c 0.483,-0.338 1.016,-0.701 1.595,-1.087 1.16,-0.823 2.006,-1.354 2.538,-1.596 0.87,-0.388 1.692,-0.943 2.466,-1.668 z"
       fill="#eb7855"
       id="path4108" />
    <path
       fill-rule="evenodd"
       clip-rule="evenodd"
       d="m 26.466,27.432 c -0.387,-1.016 -0.435,-2.32 -0.145,-3.916 l 0.29,-1.377 0.291,0.651 c 0.386,0.484 0.918,0.943 1.595,1.378 0.967,0.581 1.715,0.943 2.248,1.088 0.677,0.242 1.329,0.218 1.958,-0.072 0.87,-0.435 1.45,-0.677 1.74,-0.725 l 0.29,0.507 c 0.193,0.484 0.338,1.063 0.435,1.74 0.146,1.063 0.146,1.692 0,1.885 -1.885,1.162 -3.335,1.645 -4.351,1.45 -1.257,-0.192 -2.369,-0.7 -3.335,-1.522 z"
       fill="url(#SVGID_10_)"
       id="path4115"
       style="fill:url(#SVGID_10_)" />
    <path
       fill-rule="evenodd"
       clip-rule="evenodd"
       d="m 31.179,19.383 c 0.677,-0.194 1.281,-0.677 1.813,-1.45 l -0.726,2.031 c -0.241,0.483 -0.652,1.063 -1.232,1.739 -0.58,0.677 -1.063,1.137 -1.45,1.378 -0.388,0.241 -0.847,0.17 -1.378,-0.217 -0.58,-0.387 -0.749,-0.725 -0.507,-1.015 0.193,-0.194 0.362,-0.387 0.507,-0.581 0.193,-0.192 0.58,-0.507 1.16,-0.941 0.725,-0.485 1.33,-0.8 1.813,-0.944 z"
       fill="#ad5630"
       id="path4119" />
    <path
       fill-rule="evenodd"
       clip-rule="evenodd"
       d="m 33.064,19.02 c 0,0.048 0.146,0.773 0.435,2.175 0.242,1.112 0.242,1.909 0,2.394 -0.241,0.531 -0.604,0.798 -1.087,0.798 -0.483,-0.049 -0.701,-0.291 -0.652,-0.726 0.869,-3.385 1.304,-4.931 1.304,-4.641 z"
       fill="#ad5630"
       id="path4121" />
    <path
       fill-rule="evenodd"
       clip-rule="evenodd"
       d="m 29.947,20.905 -0.291,1.16 c -0.386,0.387 -0.604,0.363 -0.653,-0.072 0,-0.29 0.169,-0.555 0.508,-0.797 z"
       fill="#c48a30"
       id="path4123" />
    <path
       fill-rule="evenodd"
       clip-rule="evenodd"
       d="m 32.774,21.414 c 0.242,1.256 0.169,1.861 -0.218,1.813 -0.241,-0.05 -0.266,-0.363 -0.072,-0.943 z"
       fill="#c48a30"
       id="path4125" />
    <path
       fill-rule="evenodd"
       clip-rule="evenodd"
       d="m 29.003,21.993 0.581,-0.579 -0.218,0.579 c -0.289,0.484 -0.41,0.484 -0.363,0 z"
       fill="#e0bb82"
       id="path4127" />
    <path
       fill-rule="evenodd"
       clip-rule="evenodd"
       d="m 32.557,22.79 c -0.097,-0.048 -0.097,-0.216 0,-0.507 l 0.146,-0.435 c 0.145,0.677 0.096,0.992 -0.146,0.942 z"
       fill="#e0bb82"
       id="path4129" />
    <path
       fill-rule="evenodd"
       clip-rule="evenodd"
       d="m 51.41,16.989 0.435,1.016 c 0.29,1.015 0.362,2.321 0.218,3.916 l -2.03,7.686 c -0.579,-0.192 -1.741,-1.16 -3.479,-2.9 l -2.394,-2.61 c 0.387,-1.498 1.281,-3.407 2.682,-5.729 l 2.685,-4.278 z"
       fill="#d66e40"
       id="path4131" />
    <path
       fill-rule="evenodd"
       clip-rule="evenodd"
       d="m 51.991,30.84 c -0.437,-0.629 -1.088,-1.039 -1.959,-1.233 -0.531,-0.096 -0.918,-0.29 -1.16,-0.579 l -0.29,-0.437 c 0.871,-1.208 1.402,-3.432 1.596,-6.67 0.145,-2.272 0.072,-4.255 -0.218,-5.946 l -0.507,-1.886 0.941,0.218 c 0.677,0.194 1.21,0.435 1.597,0.725 l 1.014,0.653 0.652,3.479 c 0.436,2.612 0.509,4.689 0.219,6.237 -0.435,2.563 -1.063,4.375 -1.885,5.439 z"
       fill="url(#SVGID_11_)"
       id="path4138"
       style="fill:url(#SVGID_11_)" />
    <path
       fill-rule="evenodd"
       clip-rule="evenodd"
       d="m 44.812,23.443 c 0.966,-2.224 1.861,-3.988 2.683,-5.293 0.629,-0.919 1.088,-1.306 1.378,-1.161 0.242,0.098 0.411,0.605 0.507,1.524 0.387,2.078 -0.192,3.408 -1.739,3.988 z"
       fill="#ad5630"
       id="path4140" />
    <path
       fill-rule="evenodd"
       clip-rule="evenodd"
       d="m 44.304,24.168 0.508,-0.362 1.45,-0.362 c 1.016,-0.241 1.691,-0.291 2.029,-0.145 0.678,0.24 0.896,1.208 0.653,2.9 -0.097,0.725 -0.314,1.45 -0.653,2.176 z"
       fill="#ad5630"
       id="path4142" />
    <path
       fill-rule="evenodd"
       clip-rule="evenodd"
       d="m 47.784,19.601 c 0.097,-0.242 0.267,-0.413 0.507,-0.509 0.242,-0.096 0.363,-0.048 0.363,0.146 0,0.289 -0.411,0.676 -1.232,1.16 z"
       fill="#ab782a"
       id="path4144" />
    <path
       fill-rule="evenodd"
       clip-rule="evenodd"
       d="m 47.132,25.546 0.508,0.072 c 0.289,0.097 0.459,0.219 0.508,0.363 0.048,0.29 -0.024,0.435 -0.219,0.435 -0.241,0.05 -0.507,-0.241 -0.797,-0.87 z"
       fill="#ab782a"
       id="path4146" />
    <path
       fill-rule="evenodd"
       clip-rule="evenodd"
       d="m 48.075,19.311 c 0.096,-0.194 0.192,-0.242 0.29,-0.146 0.048,0.098 0.024,0.194 -0.074,0.291 -0.144,0.146 -0.24,0.218 -0.288,0.218 -0.098,0.047 -0.074,-0.073 0.072,-0.363 z"
       fill="#e0bb82"
       id="path4148" />
    <path
       fill-rule="evenodd"
       clip-rule="evenodd"
       d="m 16.387,28.375 c -0.048,-0.291 0.121,-0.943 0.508,-1.959 0.145,-0.339 0.435,-0.651 0.87,-0.942 0.436,-0.29 0.701,-0.508 0.798,-0.652 0.096,-0.145 0.265,-0.629 0.507,-1.45 0.242,-0.822 0.459,-1.354 0.652,-1.595 0.242,-0.242 0.508,-0.339 0.798,-0.291 0.145,0.048 0.387,0.121 0.725,0.217 0.29,0 0.532,0.122 0.726,0.362 0.193,0.242 0.556,0.823 1.087,1.741 0.387,0.773 0.676,1.111 0.87,1.016 0.629,-0.29 0.967,-0.435 1.016,-0.435 0.677,0 1.329,0.314 1.958,0.941 0.58,0.677 0.556,1.161 -0.073,1.45 -1.788,0.919 -2.875,1.45 -3.263,1.597 -2.078,0.869 -3.891,1.304 -5.438,1.304 -1.499,0 -2.224,-0.145 -2.176,-0.435 0.338,-0.339 0.483,-0.629 0.435,-0.869 z"
       fill="#7bb342"
       id="path4152" />
    <path
       fill-rule="evenodd"
       clip-rule="evenodd"
       d="m 37.561,22.139 c 0.531,-0.242 0.894,-0.532 1.088,-0.871 0.338,-0.579 0.579,-0.917 0.725,-1.015 0.193,-0.193 0.483,-0.289 0.87,-0.289 1.063,0 1.813,0.168 2.247,0.507 0.098,0.048 0.267,0.363 0.509,0.943 0.192,0.435 0.411,0.651 0.653,0.651 0.192,0 0.482,-0.168 0.869,-0.507 0.387,-0.387 0.701,-0.581 0.943,-0.581 0.482,0 0.99,0.242 1.522,0.725 -0.242,0.338 -0.484,0.749 -0.726,1.233 -0.484,0.917 -0.797,1.741 -0.943,2.465 -0.048,0.339 0.072,0.99 0.363,1.958 0.193,0.58 -0.049,1.063 -0.726,1.45 -0.966,0.629 -3.311,0.773 -7.033,0.435 -3.818,-0.387 -5.729,-1.111 -5.729,-2.176 0,-0.966 0.266,-1.378 0.798,-1.231 0.677,0.24 1.16,0.12 1.45,-0.363 0.097,-0.193 0.338,-0.7 0.725,-1.522 0.146,-0.338 0.435,-0.677 0.871,-1.015 0.242,-0.146 0.75,-0.411 1.524,-0.797 z"
       fill="#7bb342"
       id="path4154" />
    <path
       fill-rule="evenodd"
       clip-rule="evenodd"
       d="m 8.918,22.428 c -0.193,0 -0.291,-0.217 -0.291,-0.651 L 8.7,20.688 9.716,20.398 c 0.773,-0.194 1.522,-0.218 2.248,-0.072 1.063,0.241 2.079,0.701 3.045,1.376 1.209,0.871 1.982,1.862 2.321,2.974 0.338,1.111 0.435,1.934 0.29,2.464 -0.097,0.339 -0.387,0.701 -0.87,1.088 -0.532,0.387 -1.644,0.362 -3.336,-0.072 l -0.652,1.813 C 11.699,30.066 10.973,29.607 10.587,28.591 10.296,27.916 9.934,26.682 9.499,24.894 Z"
       fill="#7a6227"
       id="path4156" />
    <path
       fill-rule="evenodd"
       clip-rule="evenodd"
       d="M 8.266,25.111 C 7.202,23.466 7.154,22.163 8.12,21.195 c 1.016,-1.111 2.9,-0.773 5.656,1.016 1.257,0.87 2.104,2.006 2.538,3.407 0.387,1.402 0.049,2.079 -1.015,2.031 -0.918,-0.048 -1.765,-0.146 -2.538,-0.29 L 11.891,27.14 11.6,27.503 c -0.193,0.338 -0.29,0.652 -0.29,0.942 0.048,0.436 -0.073,0.87 -0.362,1.307 -0.871,-0.194 -1.499,-0.509 -1.886,-0.943 l -0.58,-0.581 0.362,-2.247 z"
       fill="#ded8a0"
       id="path4158" />
    <path
       fill-rule="evenodd"
       clip-rule="evenodd"
       d="m 10.875,26.853 c 0,-0.146 -0.29,-0.363 -0.87,-0.653 C 9.328,25.91 8.942,25.619 8.844,25.329 8.748,24.847 8.82,24.483 9.062,24.241 c 0.29,-0.289 0.628,-0.265 1.015,0.074 0.581,0.531 0.847,1.375 0.798,2.538 z"
       fill="#968f48"
       id="path4160" />
    <path
       fill-rule="evenodd"
       clip-rule="evenodd"
       d="m 11.891,27.141 c 0.342,-0.34 0.729,-0.63 1.16,-0.869 0.822,-0.483 1.402,-0.507 1.741,-0.072 0.291,0.339 0,0.531 -0.87,0.579 -1.101,-0.001 -1.777,0.121 -2.031,0.362 z"
       fill="#968f48"
       id="path4162" />
    <path
       fill-rule="evenodd"
       clip-rule="evenodd"
       d="m 45.827,23.733 c -3.385,3.287 -5.149,4.932 -5.294,4.932 -2.658,0 -4.206,-0.412 -4.641,-1.233 -0.339,-0.579 -0.363,-1.329 -0.072,-2.248 0.242,-0.869 0.652,-1.498 1.231,-1.885 1.258,-0.822 2.78,-1.209 4.569,-1.16 1.933,0.096 3.215,0.411 3.844,0.942 0.24,0.193 0.362,0.338 0.362,0.435 10e-4,0.048 10e-4,0.121 10e-4,0.217 z"
       fill="#7a6227"
       id="path4164" />
    <path
       fill-rule="evenodd"
       clip-rule="evenodd"
       d="m 37.052,27.287 c -0.145,-0.435 -0.192,-0.943 -0.145,-1.522 0.097,-1.112 0.629,-1.935 1.595,-2.466 1.112,-0.629 2.563,-0.919 4.352,-0.871 1.74,0.098 2.828,0.46 3.263,1.088 0.484,0.677 0.652,1.354 0.509,2.03 -0.097,0.773 -0.509,1.307 -1.234,1.595 L 43,27.65 l -0.146,1.595 -2.465,0.218 -0.073,-1.378 c -1.982,0.048 -3.07,-0.219 -3.264,-0.798 z"
       fill="#ded8a0"
       id="path4166" />
    <path
       fill-rule="evenodd"
       clip-rule="evenodd"
       d="m 41.911,28.229 c -0.338,0.146 -1.016,0.122 -2.03,-0.072 -0.773,-0.096 -1.016,-0.459 -0.726,-1.088 0.242,-0.629 0.653,-0.894 1.233,-0.797 0.676,0.096 1.185,0.749 1.523,1.957 z"
       fill="#968f48"
       id="path4168" />
    <path
       fill-rule="evenodd"
       clip-rule="evenodd"
       d="m 42.999,28.084 c -0.194,0.194 -0.072,-0.168 0.362,-1.088 0.339,-0.821 0.726,-1.256 1.16,-1.306 0.482,-0.048 0.653,0.146 0.507,0.581 -0.096,0.387 -0.289,0.677 -0.579,0.869 -0.871,0.485 -1.353,0.799 -1.45,0.944 z"
       fill="#968f48"
       id="path4170" />
    <path
       fill-rule="evenodd"
       clip-rule="evenodd"
       d="m 56.631,23.589 h 0.798 c -0.967,5.85 -3.964,10.731 -8.991,14.647 -5.124,3.915 -11.095,5.873 -17.911,5.873 -6.816,0 -12.762,-1.958 -17.838,-5.873 C 7.613,34.32 4.616,29.438 3.698,23.589 h 0.797 c 2.127,2.078 5.511,3.746 10.152,5.002 4.786,1.307 10.104,1.959 15.952,1.959 5.802,0 11.095,-0.652 15.88,-1.959 4.689,-1.256 8.074,-2.924 10.152,-5.002 z"
       fill="url(#SVGID_12_)"
       id="path4177"
       style="fill:url(#SVGID_12_)" />
    <path
       fill-rule="evenodd"
       clip-rule="evenodd"
       d="m 56.123,22.574 h 1.16 l 0.072,0.725 c 0,2.175 -2.61,4.036 -7.83,5.583 -5.271,1.546 -11.603,2.321 -18.999,2.321 -7.444,0 -13.777,-0.775 -18.998,-2.321 C 6.259,27.335 3.624,25.474 3.624,23.299 l 0.145,-0.725 h 1.45 L 5.147,22.79 c 0,1.741 2.49,3.239 7.469,4.497 5.028,1.256 11.046,1.885 18.056,1.885 7.009,0 13.004,-0.629 17.982,-1.885 4.979,-1.258 7.469,-2.756 7.469,-4.497 z"
       fill="#ffffff"
       id="path4179" />
    <path
       fill-rule="evenodd"
       clip-rule="evenodd"
       d="m 4.64,24.677 c 1.016,-0.339 2.104,-0.17 3.263,0.507 0.58,0.339 1.063,0.701 1.45,1.088 -0.145,0 -0.338,0.024 -0.58,0.072 C 8.193,26.49 7.565,26.828 6.887,27.36 5.776,28.181 5.413,29.173 5.8,30.333 L 4.93,28.376 C 4.64,27.068 4.543,25.837 4.64,24.677 Z"
       fill="#7c9fa3"
       id="path4181" />
    <path
       fill-rule="evenodd"
       clip-rule="evenodd"
       d="m 15.444,33.016 c 0.193,-1.161 0.459,-2.007 0.797,-2.538 0.725,-0.871 3.142,-1.548 7.251,-2.031 2.9,-0.386 5.39,-0.58 7.469,-0.58 1.45,0 4.085,0.29 7.903,0.871 -0.531,0 -1.232,0.507 -2.102,1.522 -0.291,0.387 -0.992,0.991 -2.104,1.813 -0.483,0.387 -0.968,0.507 -1.45,0.362 -0.822,-0.242 -1.257,-0.362 -1.306,-0.362 -0.532,0 -0.87,0.12 -1.015,0.362 -0.146,0.242 -0.411,0.992 -0.799,2.248 -0.289,0.967 -0.676,1.426 -1.16,1.378 l -1.015,-0.145 c -0.096,0.145 -0.387,0.048 -0.87,-0.29 -0.629,-0.435 -1.137,-0.629 -1.523,-0.581 -0.918,0.146 -1.765,-0.024 -2.538,-0.507 -0.58,-0.29 -1.329,-0.362 -2.248,-0.218 -0.967,0.193 -1.861,0.557 -2.683,1.087 -0.822,0.629 -1.402,0.943 -1.741,0.943 -0.338,0 -0.652,-0.338 -0.942,-1.016 -0.142,-0.385 -0.117,-1.158 0.076,-2.318 z"
       fill="#7c9fa3"
       id="path4183" />
    <path
       fill-rule="evenodd"
       clip-rule="evenodd"
       d="m 51.917,28.375 c 1.354,-0.242 2.732,-0.411 4.134,-0.509 l -1.522,2.611 c -0.994,1.702 -2.105,3.201 -3.336,4.495 0.24,-0.265 0.554,-0.701 0.942,-1.306 0.291,-0.435 0.459,-1.014 0.508,-1.739 0.049,-0.677 -0.049,-1.088 -0.289,-1.233 -1.016,-0.048 -1.669,-0.192 -1.959,-0.435 -0.677,-0.677 -1.28,-1.232 -1.813,-1.669 -0.339,-0.24 -1.063,-0.435 -2.176,-0.579 l -1.595,-0.218 2.683,-0.435 c 0.677,0 1.45,0.193 2.321,0.58 0.774,0.388 1.475,0.533 2.102,0.437 z"
       fill="#7c9fa3"
       id="path4185" />
    <path
       fill-rule="evenodd"
       clip-rule="evenodd"
       d="m 21.245,32.942 c -1.789,0.242 -3.312,0.798 -4.568,1.668 -1.16,0.773 -2.296,0.677 -3.408,-0.29 -0.532,-0.436 -1.185,-1.28 -1.958,-2.538 -0.291,-0.435 -0.145,-0.726 0.435,-0.87 0.968,-0.242 1.572,-0.459 1.813,-0.652 0.436,-0.339 1.136,-1.088 2.103,-2.248 0.339,-0.387 0.918,-0.677 1.74,-0.871 0.387,-0.096 0.87,-0.217 1.45,-0.362 0.338,-0.097 1.523,-0.048 3.553,0.146 0.58,0 1.088,-0.096 1.522,-0.29 0.291,-0.145 0.75,-0.41 1.378,-0.797 0.58,-0.291 3.094,-0.122 7.542,0.507 2.996,0.435 5.244,1.258 6.742,2.466 -0.869,0 -1.57,0.096 -2.102,0.29 -0.098,0.048 -0.532,0.411 -1.306,1.088 -0.677,0.579 -1.378,0.894 -2.104,0.941 -0.725,0.05 -1.28,0.291 -1.667,0.726 -0.242,0.242 -0.58,0.701 -1.015,1.378 -0.339,0.435 -0.701,0.701 -1.088,0.797 -0.532,0 -1.016,0.024 -1.451,0.074 -0.483,0.096 -1.015,0 -1.595,-0.291 -0.58,-0.29 -0.991,-0.41 -1.233,-0.362 -0.435,0.145 -0.725,0.192 -0.87,0.145 -0.096,-0.048 -0.387,-0.217 -0.87,-0.507 -0.483,-0.29 -1.496,-0.341 -3.043,-0.148 z"
       fill="#8abd4d"
       id="path4187" />
    <path
       fill-rule="evenodd"
       clip-rule="evenodd"
       d="m 52.716,25.474 c 0.435,-0.532 0.941,-0.821 1.522,-0.87 0.29,0 0.701,0.023 1.232,0.073 0.484,-0.05 1.016,0 1.596,0.145 0.387,0 1.305,-0.507 2.755,-1.522 0.484,-0.339 0.847,-0.435 1.088,-0.29 0.29,0.096 0.387,0.362 0.29,0.797 0,0.29 -0.242,0.509 -0.726,0.653 -0.58,0.145 -1.015,0.482 -1.306,1.015 -0.289,0.531 -0.651,1.499 -1.087,2.901 -0.339,1.159 -0.604,1.813 -0.798,1.957 -0.192,0.193 -0.531,0.121 -1.016,-0.217 -0.627,-0.484 -1.136,-0.871 -1.522,-1.161 -0.435,-0.387 -1.039,-0.411 -1.813,-0.072 -0.773,0.435 -1.305,0.701 -1.595,0.797 -0.339,0.146 -0.701,0.098 -1.088,-0.145 -0.194,-0.096 -0.677,-0.459 -1.45,-1.088 C 48.363,28.109 47.517,27.94 46.26,27.94 l -1.74,0.145 c 0.29,-0.096 0.991,-0.314 2.104,-0.652 0.772,-0.291 1.378,-0.459 1.813,-0.508 1.402,-0.193 2.127,-0.29 2.175,-0.29 0.918,-0.243 1.619,-0.63 2.104,-1.161 z"
       fill="#8abd4d"
       id="path4189" />
    <path
       fill-rule="evenodd"
       clip-rule="evenodd"
       d="M 9.861,26.344 C 9.425,26.44 9.088,26.416 8.845,26.272 8.652,26.078 8.168,26.103 7.395,26.344 6.574,26.538 6.042,26.876 5.8,27.36 c -0.29,0.531 -0.435,1.668 -0.435,3.407 0,0.29 -0.169,0.314 -0.507,0.073 C 4.278,30.404 3.891,30.14 3.698,30.041 2.731,29.559 2.078,28.543 1.74,26.996 1.547,26.077 1.039,25.28 0.218,24.603 c -0.29,-0.289 -0.29,-1.064 0,-2.32 0.096,-0.387 0.338,-0.749 0.725,-1.088 0.435,-0.386 0.967,-0.581 1.595,-0.581 h 2.249 c 0.532,0 0.918,0.074 1.16,0.218 0.242,0.145 0.725,0.531 1.45,1.16 0.965,0.872 1.787,2.322 2.464,4.352 z"
       fill="#8abd4d"
       id="path4191" />
    <path
       fill-rule="evenodd"
       clip-rule="evenodd"
       d="m 7.033,23.733 c 0.223,-0.044 0.429,-0.044 0.617,0 L 7.106,23.588 C 6.815,23.49 6.163,23.442 5.148,23.442 c -0.483,0 -0.773,0.895 -0.87,2.684 -0.097,1.208 -0.097,2.296 0,3.263 C 3.94,28.47 3.77,27.552 3.77,26.633 l 0.436,-3.045 c -0.097,0 -0.242,0.048 -0.436,0.145 -0.338,0.145 -0.628,0.387 -0.87,0.726 l -1.088,1.595 c 0.193,-0.87 0.436,-1.571 0.725,-2.103 0.193,-0.338 0.459,-0.629 0.798,-0.87 L 3.77,22.79 C 3.335,22.452 2.803,22.283 2.175,22.283 l -1.377,0.145 0.725,-0.363 c 0.58,-0.192 1.087,-0.241 1.522,-0.144 0.725,0.144 1.112,0.266 1.161,0.362 l 0.58,-0.362 H 4.567 L 3.552,21.124 3.987,21.34 c 0.291,0.098 0.581,0.146 0.871,0.146 0.435,0 0.798,0.291 1.087,0.87 h 0.58 c 0.677,0 1.402,0.435 2.175,1.306 0.532,0.531 0.774,1.063 0.725,1.595 L 9.135,24.822 8.555,24.46 H 7.831 c -0.483,0 -1.087,0.218 -1.813,0.652 -0.435,0.29 -0.725,0.749 -0.87,1.378 C 5.051,26.829 5.003,27.118 5.003,27.36 4.955,26.344 5.196,25.451 5.728,24.677 6.114,24.145 6.55,23.83 7.033,23.733 Z"
       fill="#719b3f"
       id="path4193" />
    <path
       fill-rule="evenodd"
       clip-rule="evenodd"
       d="m 17.402,29.462 c -1.208,1.402 -2.151,2.104 -2.828,2.104 h -0.871 c 1.16,-0.339 1.958,-0.943 2.393,-1.813 0.532,-1.064 1.837,-1.597 3.916,-1.597 0.483,0 1.402,0.122 2.755,0.362 1.064,0.194 1.692,0.219 1.885,0.072 1.161,-0.772 1.765,-1.159 1.813,-1.159 0.193,0 0.483,-0.169 0.87,-0.508 l -3.408,0.363 c 0.145,-0.146 0.338,-0.291 0.581,-0.435 0.435,-0.291 0.918,-0.437 1.45,-0.437 1.257,0 2.079,-0.12 2.465,-0.362 0.193,-0.145 0.556,-0.241 1.087,-0.289 h 0.725 l 2.104,0.507 c -0.242,0.048 -0.508,0.097 -0.799,0.145 -0.628,0.098 -1.038,0.218 -1.231,0.362 -0.146,0.098 0.169,0.29 0.942,0.581 0.87,0.29 1.377,0.557 1.522,0.797 0.29,0.435 0.483,1.185 0.58,2.248 -0.241,-0.531 -0.58,-0.99 -1.015,-1.377 -0.339,-0.339 -0.919,-0.652 -1.741,-0.943 -0.387,-0.096 -0.821,-0.314 -1.305,-0.652 l -0.653,-0.508 -2.248,1.886 1.813,0.943 c 0.435,0.338 0.846,0.869 1.233,1.595 0.29,0.435 0.604,0.7 0.943,0.797 -0.58,0 -1.136,-0.267 -1.668,-0.797 -0.967,-1.064 -1.789,-1.595 -2.466,-1.595 h -0.942 l -0.508,0.216 c -0.387,0.242 -0.725,0.509 -1.015,0.798 -0.436,0.532 -0.967,0.847 -1.595,0.943 0.435,-0.629 0.845,-1.112 1.233,-1.45 l 0.87,-0.653 c -1.015,-0.096 -1.934,-0.145 -2.755,-0.145 -0.871,-0.193 -1.571,-0.338 -2.103,-0.435 -0.917,-0.144 -1.594,0.001 -2.029,0.436 z"
       fill="#719b3f"
       id="path4195" />
    <path
       fill-rule="evenodd"
       clip-rule="evenodd"
       d="m 51.628,27.359 c -0.05,-0.097 -0.314,-0.219 -0.799,-0.363 l -0.725,-0.218 1.161,-0.362 h 0.869 c 0.387,0 1.209,-0.192 2.466,-0.579 l 2.9,-0.072 c 0.374,-0.027 0.798,-0.185 1.27,-0.472 -0.54,0.547 -0.891,0.922 -1.053,1.123 -0.192,0.29 -0.459,0.437 -0.797,0.437 l -0.435,-0.146 0.145,0.581 0.508,1.378 c -0.387,-0.242 -0.701,-0.604 -0.943,-1.088 -0.29,-0.629 -0.894,-0.943 -1.813,-0.943 -0.339,0 -0.701,0.145 -1.088,0.435 l -0.435,0.363 0.725,0.146 c 0.483,0.048 0.87,0.241 1.16,0.579 l -0.362,-0.145 c -0.145,-0.096 -0.411,-0.121 -0.798,-0.072 -0.725,0.049 -1.136,0.072 -1.231,0.072 -0.339,0 -0.557,-0.096 -0.653,-0.29 z"
       fill="#719b3f"
       id="path4197" />
  </g>
</svg>
