<?xml version="1.0" encoding="UTF-8" standalone="no"?>
<!-- Generator: Adobe Illustrator 16.0.0, SVG Export Plug-In . SVG Version: 6.00 Build 0)  -->

<svg
   xmlns:dc="http://purl.org/dc/elements/1.1/"
   xmlns:cc="http://creativecommons.org/ns#"
   xmlns:rdf="http://www.w3.org/1999/02/22-rdf-syntax-ns#"
   xmlns:svg="http://www.w3.org/2000/svg"
   xmlns="http://www.w3.org/2000/svg"
   xmlns:sodipodi="http://sodipodi.sourceforge.net/DTD/sodipodi-0.dtd"
   xmlns:inkscape="http://www.inkscape.org/namespaces/inkscape"
   version="1.1"
   viewBox="0 0 256 256"
   enable-background="new 0 0 256 256"
   xml:space="preserve"
   id="svg44"
   sodipodi:docname="pceseticon.svg"
   inkscape:version="0.92.3 (2405546, 2018-03-11)"><metadata
   id="metadata50"><rdf:RDF><cc:Work
       rdf:about=""><dc:format>image/svg+xml</dc:format><dc:type
         rdf:resource="http://purl.org/dc/dcmitype/StillImage" /></cc:Work></rdf:RDF></metadata><defs
   id="defs48" /><sodipodi:namedview
   pagecolor="#ffffff"
   bordercolor="#666666"
   borderopacity="1"
   objecttolerance="10"
   gridtolerance="10"
   guidetolerance="10"
   inkscape:pageopacity="0"
   inkscape:pageshadow="2"
   inkscape:window-width="1920"
   inkscape:window-height="1027"
   id="namedview46"
   showgrid="false"
   inkscape:zoom="0.921875"
   inkscape:cx="128"
   inkscape:cy="118.77966"
   inkscape:window-x="-8"
   inkscape:window-y="-8"
   inkscape:window-maximized="1"
   inkscape:current-layer="svg44" />
<g
   id="Layer_1"
   transform="matrix(0.95703125,0,0,0.95703125,5.5,5.5)"
   style="stroke-width:1.04489791">
	<circle
   cx="128"
   cy="128"
   r="128"
   id="circle2"
   style="fill:#fdf5fb;stroke-width:1.04489791" />
	<path
   d="m 50.224,50.213 c -0.003,0.003 -0.007,0.007 -0.011,0.011 z"
   id="path4"
   inkscape:connector-curvature="0"
   style="fill:none;stroke-width:1.04489791" />
	<path
   d="m 205.799,50.236 c -0.012,-0.012 -0.023,-0.024 -0.035,-0.036 l 0.018,0.018 z"
   id="path6"
   inkscape:connector-curvature="0"
   style="fill:none;stroke-width:1.04489791" />
	<path
   d="m 18,128 c 0,9.853 1.303,19.399 3.732,28.485 L 156.485,21.732 C 147.399,19.303 137.853,18 128,18 97.627,18 70.129,30.31 50.224,50.213 l -0.011,0.011 C 30.31,70.129 18,97.627 18,128 Z"
   id="path8"
   inkscape:connector-curvature="0"
   style="fill:#63c6e3;stroke-width:1.04489791" />
	<path
   d="M 50.219,205.782 205.781,50.218 205.763,50.2 C 192.316,36.759 175.404,26.79 156.485,21.732 L 21.732,156.485 c 5.061,18.928 15.037,35.847 28.487,49.297 z"
   id="path10"
   inkscape:connector-curvature="0"
   style="fill:#64dcb7;stroke-width:1.04489791" />
	<path
   d="m 50.219,205.782 c 13.449,13.449 30.368,23.425 49.296,28.485 L 234.268,99.515 C 229.209,80.596 219.241,63.683 205.799,50.237 l -0.018,-0.018 z"
   id="path12"
   inkscape:connector-curvature="0"
   style="fill:#93b9ff;stroke-width:1.04489791" />
	<path
   d="m 128,238 c 60.751,0 110,-49.249 110,-110 0,-9.853 -1.303,-19.399 -3.732,-28.485 L 99.515,234.268 C 108.601,236.697 118.147,238 128,238 Z"
   id="path14"
   inkscape:connector-curvature="0"
   style="fill:#f5adff;stroke-width:1.04489791" />
	<g
   id="g34"
   style="opacity:0.7;stroke-width:1.04489791">
		<polygon
   points="113.757,195.191 116.409,200.039 121.257,202.691 116.409,205.342 113.757,210.191 111.105,205.342 106.257,202.691 111.105,200.039 "
   id="polygon16"
   style="fill:#ffffff;stroke-width:1.04489791" />
		<polygon
   points="39.921,117.527 42.104,122.603 46.679,125.702 41.603,127.882 38.504,132.46 36.323,127.381 31.747,124.285 36.824,122.102 "
   id="polygon18"
   style="fill:#ffffff;stroke-width:1.04489791" />
		<polygon
   points="92.848,99.515 95.5,104.363 100.348,107.015 95.5,109.666 92.848,114.515 90.197,109.666 85.348,107.015 90.197,104.363 "
   id="polygon20"
   style="fill:#ffffff;stroke-width:1.04489791" />
		<polygon
   points="116.142,21.979 117.115,27.419 120.868,31.474 115.429,32.446 111.372,36.201 110.4,30.76 106.646,26.705 112.086,25.732 "
   id="polygon22"
   style="fill:#ffffff;stroke-width:1.04489791" />
		<polygon
   points="174.536,195.392 178.229,199.501 183.557,200.971 179.446,204.663 177.978,209.991 174.284,205.879 168.957,204.412 173.067,200.718 "
   id="polygon24"
   style="fill:#ffffff;stroke-width:1.04489791" />
		<polygon
   points="206.984,87.599 210.986,91.409 216.411,92.459 212.601,96.46 211.551,101.887 207.549,98.075 202.123,97.026 205.935,93.024 "
   id="polygon26"
   style="fill:#ffffff;stroke-width:1.04489791" />
		<polygon
   points="132.054,54.812 134.212,59.899 138.772,63.019 133.686,65.176 130.565,69.738 128.408,64.649 123.847,61.531 128.935,59.373 "
   id="polygon28"
   style="fill:#ffffff;stroke-width:1.04489791" />
		<polygon
   points="51.519,177.04 53.294,182.273 57.611,185.724 52.378,187.496 48.928,191.815 47.154,186.58 42.836,183.132 48.07,181.357 "
   id="polygon30"
   style="fill:#ffffff;stroke-width:1.04489791" />
		<polygon
   points="226.283,149.26 227.535,154.644 231.492,158.5 226.11,159.751 222.252,163.71 221.001,158.326 217.044,154.469 222.426,153.218 "
   id="polygon32"
   style="fill:#ffffff;stroke-width:1.04489791" />
	</g>
</g>
<g
   id="Layer_2"
   transform="matrix(0.95703125,0,0,0.95703125,5.5,5.5)"
   style="stroke-width:1.04489791">
	<path
   d="m 146.331,88.324 1.643,6.026 c -5.752,-3.378 -12.188,-5.022 -19.31,-4.931 l -5.34,0.274 c -4.383,-4.474 -6.482,-9.176 -6.3,-14.106 0.183,-6.117 3.743,-9.906 10.682,-11.367 9.313,-2.1 13.833,-5.478 13.558,-10.134 -0.092,-3.287 -1.689,-5.706 -4.793,-7.258 -3.469,-1.644 -6.756,-0.913 -9.86,2.191 2.1,-4.382 6.436,-5.843 13.009,-4.382 6.665,1.46 11.139,5.249 13.421,11.366 2.282,6.665 0.548,13.055 -5.203,19.172 -2.374,2.65 -2.876,7.032 -1.507,13.149 m 5.888,8.903 c 0.457,-5.935 2.693,-10.454 6.711,-13.559 5.021,-3.743 10.454,-3.561 16.297,0.548 7.761,5.387 13.284,6.437 16.57,3.15 2.374,-2.282 3.059,-5.113 2.055,-8.491 -1.188,-3.743 -3.926,-5.661 -8.217,-5.751 4.564,-1.279 8.582,0.913 12.052,6.573 3.378,5.843 3.515,11.686 0.41,17.53 -3.195,6.208 -8.992,9.312 -17.393,9.312 -3.651,0 -7.304,2.328 -10.956,6.984 l -3.424,5.205 c -1.551,-6.848 -4.93,-12.873 -10.133,-18.077 l -3.972,-3.424 m 14.927,25.746 c 4.383,-3.926 9.039,-5.706 13.969,-5.341 6.117,0.456 9.86,4.154 11.229,11.092 0.548,3.195 1.689,6.3 3.424,9.313 2.01,3.104 4.018,4.656 6.026,4.656 3.194,0 5.66,-1.552 7.396,-4.656 1.644,-3.378 1.003,-6.664 -1.919,-9.86 4.2,2.374 5.524,6.711 3.973,13.011 -1.644,6.665 -5.615,11.001 -11.914,13.01 -6.574,2.009 -12.873,0.092 -18.899,-5.752 -2.557,-2.465 -6.894,-3.149 -13.01,-2.055 l -4.931,1.233 c 3.287,-5.752 4.931,-12.234 4.931,-19.447 l -0.275,-5.204 m -7.943,29.306 c 5.479,0.729 9.633,3.104 12.463,7.121 3.47,5.021 3.059,10.408 -1.232,16.159 -5.66,7.487 -6.939,12.965 -3.835,16.435 2.101,2.281 4.886,3.013 8.354,2.191 3.742,-1.005 5.797,-3.607 6.162,-7.807 1.095,4.564 -1.232,8.445 -6.984,11.641 -6.025,3.195 -11.914,3.195 -17.665,0 -6.026,-3.561 -8.856,-9.495 -8.491,-17.802 0.091,-3.563 -2.009,-7.168 -6.3,-10.819 l -4.52,-3.288 c 7.121,-1.461 13.466,-4.93 19.036,-10.407 l 3.012,-3.424 m -26.43,14.517 c 3.834,4.473 5.614,9.175 5.34,14.104 -0.182,6.301 -3.788,10.135 -10.818,11.504 -3.196,0.548 -6.254,1.689 -9.175,3.424 -3.196,2.01 -4.794,4.018 -4.794,6.026 0,3.194 1.552,5.66 4.656,7.396 3.287,1.734 6.574,1.141 9.861,-1.781 -2.374,4.109 -6.71,5.387 -13.01,3.834 -6.665,-1.643 -11.002,-5.614 -13.01,-11.913 -2.008,-6.757 -0.091,-13.056 5.752,-18.898 2.465,-2.558 3.15,-6.895 2.054,-13.011 l -1.644,-6.3 c 6.026,3.834 12.919,5.798 20.679,5.889 l 4.109,-0.274 m -28.759,-8.628 c -0.73,5.935 -3.196,10.454 -7.395,13.558 -5.021,3.47 -10.362,3.059 -16.022,-1.232 -7.669,-5.661 -13.147,-6.938 -16.435,-3.835 -2.465,2.101 -3.241,4.886 -2.328,8.354 1.004,3.743 3.606,5.797 7.807,6.162 -4.565,1.096 -8.445,-1.232 -11.641,-6.984 -3.196,-6.024 -3.15,-11.914 0.137,-17.665 3.469,-6.026 9.404,-8.856 17.803,-8.491 3.561,0.091 7.167,-2.009 10.819,-6.3 l 3.835,-5.479 c 1.46,7.305 5.021,13.786 10.681,19.447 l 2.739,2.465 M 90.046,132.56 c -4.383,4.199 -9.13,6.299 -14.243,6.299 -6.3,-0.092 -10.18,-3.606 -11.641,-10.546 -2.1,-9.312 -5.478,-13.831 -10.134,-13.557 -3.287,0.182 -5.661,1.825 -7.121,4.93 -1.735,3.378 -1.05,6.573 2.054,9.587 -4.291,-2.101 -5.706,-6.346 -4.246,-12.737 1.37,-6.847 5.113,-11.273 11.229,-13.282 6.574,-2.374 12.964,-0.73 19.173,4.93 2.556,2.282 6.893,2.83 13.009,1.644 2.922,-0.64 5.478,-1.461 7.669,-2.465 -4.018,6.117 -6.026,13.056 -6.026,20.816 l 0.277,4.381 m 8.353,-28.759 C 91.826,103.527 86.896,101.29 83.608,97.09 79.682,92.069 79.865,86.683 84.156,80.931 c 5.387,-7.852 6.437,-13.421 3.15,-16.708 -2.283,-2.191 -5.113,-2.784 -8.491,-1.78 -3.652,0.913 -5.523,3.561 -5.615,7.942 -1.369,-4.564 0.776,-8.582 6.437,-12.051 5.843,-3.47 11.687,-3.652 17.529,-0.548 6.208,3.195 9.313,9.038 9.313,17.529 0,3.561 2.328,7.258 6.985,11.092 2.1,1.644 4.154,2.967 6.162,3.972 -6.939,1.552 -13.056,4.976 -18.351,10.271 l -2.876,3.151"
   id="path37"
   inkscape:connector-curvature="0"
   style="fill:#fcc38b;stroke:#fcc38b;stroke-width:0.71826285" />
	<path
   d="m 123.324,89.694 5.34,-0.273 c 7.122,-0.092 13.558,1.552 19.311,4.93 l 4.244,2.876 3.973,3.424 c 5.203,5.204 8.582,11.229 10.133,18.077 l 0.824,4.245 0.272,5.203 c 0,7.213 -1.644,13.695 -4.931,19.447 l -3.286,4.656 -3.013,3.423 c -5.57,5.479 -11.914,8.948 -19.036,10.409 l -4.382,0.685 -4.109,0.273 c -7.76,-0.091 -14.653,-2.055 -20.679,-5.889 l -3.971,-3.013 -2.739,-2.466 c -5.661,-5.66 -9.221,-12.142 -10.681,-19.446 l -0.548,-3.696 -0.274,-4.384 c 0,-7.76 2.008,-14.698 6.026,-20.815 l 2.602,-3.561 2.876,-3.149 c 5.295,-5.296 11.412,-8.72 18.351,-10.271 l 3.697,-0.685 m 5.34,13.421 c -6.938,-0.092 -12.873,2.328 -17.803,7.259 -4.93,4.93 -7.395,10.863 -7.395,17.802 0,7.03 2.465,13.057 7.395,18.078 4.93,4.839 10.864,7.258 17.803,7.258 6.939,0 12.919,-2.419 17.94,-7.258 4.931,-5.021 7.396,-11.048 7.396,-18.078 0,-6.938 -2.466,-12.872 -7.396,-17.802 -5.021,-4.931 -11,-7.351 -17.94,-7.259"
   id="path39"
   inkscape:connector-curvature="0"
   style="fill:#ffd791;stroke:#ffd791;stroke-width:0.71826285" />
	<path
   d="m 110.861,110.373 c 4.931,-4.931 10.865,-7.35 17.803,-7.259 6.939,-0.091 12.92,2.328 17.94,7.259 4.931,4.93 7.396,10.864 7.396,17.803 0,7.03 -2.466,13.056 -7.396,18.077 -5.021,4.839 -11.001,7.259 -17.94,7.259 -6.938,0 -12.873,-2.42 -17.802,-7.259 -4.931,-5.021 -7.396,-11.047 -7.396,-18.077 0,-6.939 2.466,-12.873 7.395,-17.803"
   id="path41"
   inkscape:connector-curvature="0"
   style="fill:#fff6b9;stroke:#fff6b9;stroke-width:0.71826285" />
</g>
</svg>