<svg xmlns="http://www.w3.org/2000/svg" viewBox="0 0 256 256">
    <path fill="#c4b2ae" d="M133.646 186.904l-58.75 30.887a2.5 2.5 0 1 1-3.628-2.635l3.503-20.428c-5.09 10.859-12.716 20.661-23.378 28.868l-.005-.002C72.369 240.429 99.009 250.5 128 250.5c6.973 0 13.81-.583 20.464-1.702 14.311-12.329 22.111-26.224 25.056-40.932zM69.792 94.282l32.238-4.685 8.879-17.99c-18.919-20.846-37.46-37.686-48.336-47.18l-.213.125a123.136 123.136 0 0 0-21.884 17.741l.005.005c11.49 15.481 21.75 33.355 29.311 51.984z"/>
    <path fill="#6e6262" d="M240.75 175.961c-5.414-21.181-13.935-39.692-25.009-56.381l-30.938 30.157 11.22 65.419a2.5 2.5 0 0 1-3.627 2.636l-18.877-9.925c-2.944 14.708-10.745 28.603-25.056 40.932 41.772-7.024 76.369-35.19 92.409-73.115zM110.908 71.607l16.716-33.87c-12.594-8.528-25.857-16.961-39.631-25.549l-.001-.006a121.941 121.941 0 0 0-25.633 12.371l.213-.125c10.876 9.493 29.417 26.333 48.336 47.179zm54.355 17.99l30.39 4.416c-14.277-15.621-31.015-29.749-49.598-43.335z"/>
    <path fill="#353140" d="M128 5.5c-14.01 0-27.47 2.352-40.008 6.682l.001.006c13.773 8.588 27.037 17.021 39.631 25.549l3.78-7.659a2.501 2.501 0 0 1 4.484 0l10.166 20.6c18.583 13.586 35.32 27.715 49.598 43.335l35.295 5.129a2.501 2.501 0 0 1 1.386 4.265l-16.592 16.173c11.074 16.689 19.595 35.201 25.009 56.381l.123-.278c6.199-14.655 9.627-30.769 9.627-47.683C250.5 60.345 195.655 5.5 128 5.5zM82.489 149.736l-47.53-46.33a2.499 2.499 0 0 1 1.386-4.265l33.446-4.86C62.231 75.653 51.97 57.779 40.48 42.298l-.005-.005C18.84 64.386 5.501 94.635 5.5 128c0 38.663 17.911 73.143 45.889 95.594l.005.002c10.662-8.207 18.288-18.009 23.378-28.868z"/>
    <path fill="#27AAE1" d="M42.077 103.362l44.843 43.711a2.5 2.5 0 0 1 .719 2.213l-10.586 61.722 55.43-29.141a2.498 2.498 0 0 1 2.326 0l55.43 29.141-10.586-61.722c-.14-.812.13-1.639.719-2.213l44.844-43.711-61.973-9.005a2.503 2.503 0 0 1-1.883-1.368l-27.714-56.156-27.715 56.156a2.501 2.501 0 0 1-1.882 1.368l-61.972 9.005z"/>
    <path fill="#fbfcfc" d="M107.429 62.75c2.009 1.42 4.335 2.037 6.822 2.085l5.596-11.338c-3.223.882-6.11 1.027-7.846-.323-6-4.667.965-25.122.965-25.122l.009-.017a1247.792 1247.792 0 0 0-8.108-5.217C102 32 94.929 53.917 107.429 62.75zm43.688-1.815l5.246 10.629c4.593-2.672 8.918-6.04 8.918-6.04a407.06 407.06 0 0 0-11.145-8.812l.003.002c.001 0-1.379 1.78-3.022 4.221zm35.526 31.769c2.767-2.013 4.739-3.25 4.739-3.25l-.002-.004a270.69 270.69 0 0 0-10.507-10.327v.002s-6.117 4.324-12.407 10.938zm35.207 36.719a180.975 180.975 0 0 1 8.21 15.977s-33.392 18.769-38.059 10.102c-4.667-8.667 29.848-26.08 29.849-26.079z"/>
    <path fill="#DCFA64" d="M133.646 75.537l-15.896 32.209-35.544 5.165 25.72 25.071-6.072 35.401 31.792-16.713 31.792 16.713-6.071-35.401 25.721-25.071-35.545-5.165-15.897-32.209z"/>
</svg>
