<svg xmlns="http://www.w3.org/2000/svg" viewBox="0 0 256 256">
    <path fill="#FC038E" d="M244.645 101.026c-1.376 7.305-44.6 74.814-60.894 76.966-4.443.584-25.179-.855-41.119-3.85-6.05-1.135-21.218 15.065-51.483 9.391-5.53-1.029 17.614-11.143 17.605-16.86-.011-1.672-14.836-.136-27.85-4.116-15.019-4.623-24.577-14.805-27.947-16.689-3.35-1.898-39.7 15.982-42.01 13.398-2.328-2.621 18.25-11.559 22.766-32.799 1-4.676.836-9.907.014-15.173l8.373-6.791-10.707-3.649c-4.276-14.976-11.376-28.269-9.699-29.532 1.313-.964 14.59 9.491 23.671 23.517 9.071 14.028 13.96 31.645 18.635 33.364 9.335 3.471 23.464 3.711 26.763.674 8.249-7.648-20.149-20.302-13.58-22.075 9.468-2.579 38.311 10.792 48.681 12.104 13.913 1.794 89.625-15.375 105.393-22.166 12.872-5.53 15.335-5.892 13.388 4.286z"/>
    <path fill="#FFF" d="M114.58 133.049c-6.458 6.406-.376 23.335 12.485 24.486-6.277-3.014-13.619-19.435-12.485-24.486z"/>
    <path fill="#FFF" d="M106.633 138.018c-4.568 4.559-.256 16.548 8.845 17.377-2.858-1.387-9.784-13.17-8.845-17.377M98.015 141.051c-3.406 3.383-.182 12.313 6.605 12.934-2.121-1.01-7.285-9.799-6.605-12.934M155.736 117.349c-1.561 1.306-1.843 4.308 3.066 7.557 6.215 4.147 15.57 6.333 18.208 5.315 1.002-.381 4.042-4.14-3.854-8.49-8.658-4.746-15.866-5.675-17.42-4.382zM189.893 137.479l-5.465 23.002c-2.568 10.78 2.035 13.141 12.716 1.908l17.407-23.053c4.293-6.135 2.482-8.109-9.023-7.719-14.055.475-14.065.815-15.635 5.862zM184.521 143.26c.969-7.563-3.338-7.896-8.468-.368l-11.537 19.088c-2.851 4.222-2.763 6.173 4.382 8.735l3.023.563c2.416.18 4.857.931 5.539-.039 1.091-1.55 7.061-27.979 7.061-27.979zM163.758 155.539l7.918-13.509c1.022-1.712.191-2.573-1.658-3.026l-9.99-1.767c-2.307-.288-3.783.837-3.443 3.305l1.838 13.071c.78 6.504 3.05 6.037 5.335 1.926zM152.737 142.774c-1.897-8.316-4.268-9.366-8.372-3.443l-4.202 6.771c-1.603 3.598-1.887 3.87 1.194 6.605-.002-.01 7.396 5.297 7.396 5.297 5.045 3.439 7.221 3.949 6.162-3.694l-2.178-11.536zM131.193 143.938c2.788 3.859 3.912 3.88 6.775.503l2.014-2.721c2.516-3.767 3.283-5.906 1.023-6.888l-9.064-4.646c-8.158-4.799-8.357.471-5.743 5.723l4.995 8.029z"/>
    <path fill="#D9E9F9" d="M215.519 42.299c-12.247 17.354-25.563 39.441-34.217 63.124l.001.001c-21.605 4.805-43.861 8.826-52.951 8.827-.963 0-1.551-.05-1.874-.092-2.586-.327-6.835-1.628-11.671-3.231 24.498-35.325 57.21-67.263 78.621-86.501a122.967 122.967 0 0 1 22.091 17.872zM204.604 223.59c-14.367-12.441-23.277-26.283-28.1-40.788v.004c-9.114-.381-23.254-1.81-34.584-3.927-.946.113-3.535 1.346-5.627 2.342-6.95 3.309-17.452 8.308-32.535 8.308-4.381 0-8.92-.435-13.484-1.291-3.656-.681-4.491-3.45-4.66-4.284-.844-4.166 2.606-6.445 8.869-10.583 1.196-.79 2.936-1.94 4.616-3.132-3.871-.24-8.586-.65-13.434-1.596-8.318 29.375-4.479 57.735 21.873 80.146A123.295 123.295 0 0 0 128 250.5c28.99 0 55.628-10.07 76.606-26.904l-.002-.006z"/>
    <path fill="#9DB0D1" d="M193.428 24.425c-21.41 19.238-54.123 51.176-78.621 86.501l-.001-.001a810.83 810.83 0 0 1-5.248-1.769c-10.817-3.673-22.003-7.471-29.465-7.471-1.574 0-2.937.163-4.167.498-3.341.901-4.195 3.375-4.407 4.395-.84 4.047 2.428 6.652 7.375 10.596 2.334 1.861 7.609 6.066 8.491 8.202-.769.305-2.871.83-6.675.83-5.041 0-10.671-.915-14.781-2.395-1.404-1.294-4.123-7.217-6.122-11.572-1.591-3.464-3.417-7.425-5.5-11.432 37.138-43 89.918-75.299 113.7-88.619a121.912 121.912 0 0 1 25.127 12.054l.294.183zM85.665 168.643c-8.318 29.375-4.479 57.735 21.873 80.146l-.003.009c-41.667-7.009-76.193-35.054-92.285-72.837.719-4.383 1.73-8.719 2.979-13.006 3.892-1.238 9.067-3.277 15.693-5.923 5.821-2.323 14.351-5.729 17.536-6.406.624.47 1.43 1.119 2.172 1.717 5.133 4.132 13.723 11.048 25.869 14.786a61.224 61.224 0 0 0 6.164 1.523l.002-.009z"/>
    <path fill="#1c2739" d="M11.878 150.525c5.428-4.724 14.513-12.629 17.156-25.061.792-3.701.78-8.22-.033-13.435l-.425-2.72 2.138-1.734 1.65-1.338-2.513-.857-2.371-.808-.687-2.408c-1.915-6.708-4.431-13.104-6.453-18.245-1.204-3.063-2.244-5.707-2.886-7.739a34.709 34.709 0 0 1-.189-.617C9.724 91.461 5.5 109.236 5.5 128c0 8.883.954 17.543 2.75 25.891.949-1.022 2.161-2.088 3.628-3.366zm169.424-45.102c8.653-23.683 21.97-45.77 34.217-63.124 12.601 12.867 22.384 28.502 28.36 45.906a8.805 8.805 0 0 0-1.222-.091c-2.948 0-6.481 1.305-13.288 4.227-7.424 3.199-27.45 8.496-48.067 13.082zm67.011-.537c-3.473 7.964-14.617 25.448-24.639 39.354-7.327 10.167-14.329 18.857-20.248 25.129-7.979 8.457-14.031 12.704-19.05 13.367-.864.114-2.034.17-3.573.17-1.244 0-2.703-.039-4.299-.104 4.822 14.505 13.732 28.347 28.1 40.788C232.582 201.139 250.5 166.664 250.5 128c0-7.903-.757-15.628-2.187-23.114zm-80.305-92.698c-23.782 13.319-76.563 45.618-113.7 88.619l.007-.002c-1.5-2.884-3.138-5.794-4.93-8.565-5.377-8.303-11.641-14.665-14.896-17.717-8.283-7.766-11.257-8.038-12.434-8.048C43.275 30.013 82.772 5.5 128 5.5c14.008 0 27.467 2.352 40.003 6.681zM15.249 175.961c.719-4.383 1.73-8.719 2.979-13.006v.002c-2.748.876-4.853 1.35-6.366 1.35-.321 0-.621-.022-.907-.059a121.38 121.38 0 0 0 4.292 11.709z"/>
</svg>
