<?xml version="1.0" encoding="UTF-8" standalone="no"?>
<svg
   xmlns:dc="http://purl.org/dc/elements/1.1/"
   xmlns:cc="http://creativecommons.org/ns#"
   xmlns:rdf="http://www.w3.org/1999/02/22-rdf-syntax-ns#"
   xmlns:svg="http://www.w3.org/2000/svg"
   xmlns="http://www.w3.org/2000/svg"
   xmlns:sodipodi="http://sodipodi.sourceforge.net/DTD/sodipodi-0.dtd"
   xmlns:inkscape="http://www.inkscape.org/namespaces/inkscape"
   viewBox="0 0 50 50"
   version="1.1"
   id="svg48"
   sodipodi:docname="spell_book.svg"
   inkscape:version="0.92.4 (5da689c313, 2019-01-14)">
  <metadata
     id="metadata54">
    <rdf:RDF>
      <cc:Work
         rdf:about="">
        <dc:format>image/svg+xml</dc:format>
        <dc:type
           rdf:resource="http://purl.org/dc/dcmitype/StillImage" />
        <dc:title></dc:title>
      </cc:Work>
    </rdf:RDF>
  </metadata>
  <defs
     id="defs52" />
  <sodipodi:namedview
     pagecolor="#ffffff"
     bordercolor="#666666"
     borderopacity="1"
     objecttolerance="10"
     gridtolerance="10"
     guidetolerance="10"
     inkscape:pageopacity="0"
     inkscape:pageshadow="2"
     inkscape:window-width="1920"
     inkscape:window-height="1057"
     id="namedview50"
     showgrid="false"
     inkscape:zoom="3.6875"
     inkscape:cx="32"
     inkscape:cy="32"
     inkscape:window-x="760"
     inkscape:window-y="-8"
     inkscape:window-maximized="1"
     inkscape:current-layer="svg48" />
  <g
     transform="matrix(0.729,0,0,0.729,1.2748135,1.6923385)"
     id="g46">
    <path
       d="m 5.3,41.888 c 7.351,5.306 19.04,9.954 27.21,12.475 C 37.086,51.01 56.44,34.931 58.62,30.787 L 41.245,25.525 C 29.262,30.98 15.246,33.825 5.3,41.888 Z"
       id="path2"
       inkscape:connector-curvature="0"
       style="fill:#ff5555;fill-rule:evenodd;stroke:#000000;stroke-width:0.81" />
    <path
       d="m 54.778,33.873 c -0.59,0.616 0.704,1.292 1.228,0.762 1.073,-1.082 3.956,-3.221 3.649,-4.135 -0.376,-1.116 -2.166,-1.211 -4.248,-1.813 -0.993,-0.288 -1.068,0.786 -0.567,1.104 1.005,0.638 2.252,0.282 2.468,1.014 0.299,1.01 -1.47,1.96 -2.53,3.068 z M 8.986,39.19 C 9.686,38.703 8.576,37.963 7.957,38.38 6.692,39.23 3.879,40.706 4,41.662 4.148,42.831 5.424,43.149 7.346,44.15 8.263,44.628 8.548,43.59 8.12,43.18 7.26,42.356 5.967,42.459 5.9,41.699 5.807,40.649 7.727,40.066 8.986,39.189 Z"
       id="path4"
       inkscape:connector-curvature="0"
       style="fill:#d3c22a;fill-rule:evenodd;stroke:#000000;stroke-width:0.81" />
    <path
       d="m 5.68,41.743 c 0.583,-0.3 4.666,-2.685 4.628,-2.676 L 9.513,28.002 6.258,30.714 C 4.754,34.522 5.326,38.122 5.68,41.744 Z"
       id="path6"
       inkscape:connector-curvature="0"
       style="fill:#ff2a2a;fill-rule:evenodd;stroke:#000000;stroke-width:0.81" />
    <path
       d="M 5.246,41.888 C 4.043,41.388 4.152,29.229 6.005,29.648 l 0.94,0.976 c -1.348,3.58 -0.965,6.884 -0.831,10.65 z"
       id="path8"
       inkscape:connector-curvature="0"
       style="fill:#ff5555;fill-rule:evenodd;stroke:#000000;stroke-width:0.81" />
    <path
       d="M 6.945,40.984 C 6.909,40.767 7.09,30.751 7.09,30.751 l 50.95,-9.62 c -0.615,3.215 -2.7,5.612 -0.976,10.126 L 31.913,52.212 Z"
       id="path10"
       inkscape:connector-curvature="0"
       style="fill:#f4eed7;fill-rule:evenodd;stroke:#000000;stroke-width:0.81" />
    <path
       d="m 27.358,51.398 c -0.77,-0.366 -1.574,1.193 -0.922,1.555 1.83,1.02 4.878,2.178 5.786,2.098 1.683,-0.15 3.693,-1.794 4.917,-3.327 0.646,-0.808 -0.836,-1.341 -1.193,-0.868 -0.216,0.287 -2.25,2.217 -3.833,2.332 -1.689,0.123 -4.211,-1.53 -4.755,-1.79 z"
       id="path12"
       inkscape:connector-curvature="0"
       style="fill:#d3c22a;fill-rule:evenodd;stroke:#000000;stroke-width:0.81" />
    <path
       d="M 5.499,29.991 C 5.491,28.653 33.368,10.807 34.934,10.934 36.658,11.075 59.97,18.979 60.391,20.155 60.844,21.422 33.991,41.667 33.126,41.78 32.191,41.901 5.506,31.062 5.499,29.991 Z"
       id="path14"
       inkscape:connector-curvature="0"
       style="fill:#ff8080;fill-rule:evenodd;stroke:#000000;stroke-width:0.81" />
    <path
       d="m 56.289,23.092 c -0.59,0.615 0.704,1.291 1.229,0.762 1.072,-1.083 3.955,-3.222 3.648,-4.135 -0.376,-1.117 -2.038,-1.467 -4.12,-2.07 -0.993,-0.287 -1.502,0.838 -1.002,1.156 1.005,0.638 2.892,0.512 3.108,1.244 0.298,1.01 -1.802,1.935 -2.863,3.043 z"
       id="path16"
       inkscape:connector-curvature="0"
       style="fill:#d3c22a;fill-rule:evenodd;stroke:#000000;stroke-width:0.81" />
    <path
       d="m 11.935,29.991 18.406,8.39 c 1.345,-0.768 2.77,-1.24 4.593,-0.29 L 55.11,21.963 C 53.837,21.347 53.434,20.627 54.568,19.721 L 37.03,13.031 c -1.575,1.13 -2.78,0.779 -3.978,0.399 L 12.19,28.147 c 0.82,0.44 1.395,0.929 -0.254,1.844 z"
       id="path18"
       inkscape:connector-curvature="0"
       style="fill:none;stroke:#000000;stroke-width:0.405" />
    <ellipse
       cx="34.789001"
       cy="12.724"
       rx="0.66299999"
       ry="0.28299999"
       id="ellipse20"
       style="fill:none;stroke:#000000;stroke-width:0.20299999;stroke-linecap:round;stroke-linejoin:round" />
    <ellipse
       cx="10.742"
       cy="29.34"
       rx="0.68699998"
       ry="0.21699999"
       id="ellipse22"
       style="fill:none;stroke:#000000;stroke-width:0.20299999;stroke-linecap:round;stroke-linejoin:round" />
    <ellipse
       cx="32.872002"
       cy="39.212002"
       rx="0.65899998"
       ry="0.37"
       id="ellipse24"
       style="fill:none;stroke:#000000;stroke-width:0.259;stroke-linecap:round;stroke-linejoin:round" />
    <ellipse
       cx="56.050999"
       cy="20.788"
       rx="0.66100001"
       ry="0.354"
       id="ellipse26"
       style="fill:none;stroke:#000000;stroke-width:0.25400001;stroke-linecap:round;stroke-linejoin:round" />
    <path
       d="m 31.883,51.689 c 0.18,-0.148 0.365,-0.299 0.548,-0.446 A 20.292,20.292 0 0 1 32.033,49.285 26.682,26.682 0 0 1 31.75,46.57 18.47,18.47 0 0 1 31.786,43.922 c 0.078,-0.815 0.228,-1.548 0.476,-2.114 -0.346,0.521 -0.607,1.237 -0.795,2.062 -0.189,0.824 -0.304,1.75 -0.365,2.696 -0.06,0.945 -0.067,1.909 -0.037,2.81 0.025,0.752 0.076,1.466 0.142,2.088 0.226,0.082 0.451,0.158 0.676,0.225 z"
       id="path28"
       inkscape:connector-curvature="0"
       style="fill:#d38d5f;fill-rule:evenodd" />
    <path
       d="m 31.656,50.107 0.149,-0.376 c -1.266,-0.501 -5.212,-1.627 -6.478,-2.128 1.266,0.501 4.914,2.38 6.18,2.881 z"
       id="path30"
       inkscape:connector-curvature="0"
       style="fill:#784421;fill-rule:evenodd" />
    <path
       d="m 31.113,50.234 0.38,0.27 8.66,-7.556 -9.223,6.857 z m 0.452,-4.317 0.158,-0.373 -12.67,-4.915 12.354,5.661 z"
       id="path32"
       inkscape:connector-curvature="0"
       style="fill:#784421;fill-rule:evenodd" />
    <path
       d="m 31.022,46.044 0.395,0.177 5.138,-4.57 -5.616,3.969 z m -7.947,-5.174 -5.7,-3.048 -7.656,-2.93 7.285,3.757 z m 28.357,-8.62 -5.385,3.578 -6.204,5.356 6.758,-4.638 z"
       id="path34"
       inkscape:connector-curvature="0"
       style="fill:#784421;fill-rule:evenodd" />
    <path
       d="m 9.973,27.093 c 0.7,-0.487 -0.41,-1.226 -1.028,-0.81 -1.265,0.85 -4.079,2.326 -3.958,3.282 0.148,1.17 1.424,1.487 3.346,2.488 0.917,0.478 1.202,-0.56 0.774,-0.97 -0.86,-0.824 -2.153,-0.721 -2.22,-1.481 -0.093,-1.05 1.828,-1.633 3.086,-2.509 z"
       id="path36"
       inkscape:connector-curvature="0"
       style="fill:#d3c22a;fill-rule:evenodd;stroke:#000000;stroke-width:0.81" />
    <path
       d="m 39.283,12.784 c 0.706,0.32 1.493,-0.95 0.897,-1.265 -1.675,-0.885 -4.043,-1.462 -4.888,-1.416 -1.568,0.084 -4.138,1.374 -5.316,2.614 -0.62,0.653 0.743,1.128 1.087,0.745 0.209,-0.233 2.77,-2.137 4.245,-2.196 1.573,-0.063 3.476,1.29 3.975,1.518 z"
       id="path38"
       inkscape:connector-curvature="0"
       style="fill:#d3c22a;fill-rule:evenodd;stroke:#000000;stroke-width:0.70999998" />
    <path
       d="m 27.888,38.792 c -0.77,-0.366 -1.574,1.193 -0.923,1.555 1.831,1.02 4.88,2.178 5.786,2.098 1.683,-0.15 4.019,-1.577 5.243,-3.11 0.646,-0.808 -0.836,-1.341 -1.193,-0.868 -0.216,0.287 -2.575,2 -4.158,2.115 -1.69,0.123 -4.211,-1.53 -4.755,-1.79 z"
       id="path40"
       inkscape:connector-curvature="0"
       style="fill:#d3c22a;fill-rule:evenodd;stroke:#000000;stroke-width:0.81" />
    <path
       d="m 55.47,27.28 -0.67,0.921 -4.79,3.362 4.407,-3.85 z"
       id="path42"
       inkscape:connector-curvature="0"
       style="fill:#784421;fill-rule:evenodd" />
    <path
       d="M 22.691,26.36 43.94,18.057 34.442,32.745 28.569,18.315 47.076,25.913 Z"
       id="path44"
       inkscape:connector-curvature="0"
       style="fill:none;stroke:#ff2a2a;stroke-width:1.47899997;stroke-linecap:round;stroke-linejoin:round" />
  </g>
</svg>
