<?xml version="1.0" encoding="UTF-8" standalone="no"?>
<svg
   xmlns:dc="http://purl.org/dc/elements/1.1/"
   xmlns:cc="http://creativecommons.org/ns#"
   xmlns:rdf="http://www.w3.org/1999/02/22-rdf-syntax-ns#"
   xmlns:svg="http://www.w3.org/2000/svg"
   xmlns="http://www.w3.org/2000/svg"
   xmlns:sodipodi="http://sodipodi.sourceforge.net/DTD/sodipodi-0.dtd"
   xmlns:inkscape="http://www.inkscape.org/namespaces/inkscape"
   cursor="default"
   viewBox="0 0 256 256"
   version="1.1"
   id="svg27"
   sodipodi:docname="Skull_shirt.svg"
   inkscape:version="0.92.3 (2405546, 2018-03-11)">
  <metadata
     id="metadata33">
    <rdf:RDF>
      <cc:Work
         rdf:about="">
        <dc:format>image/svg+xml</dc:format>
        <dc:type
           rdf:resource="http://purl.org/dc/dcmitype/StillImage" />
      </cc:Work>
    </rdf:RDF>
  </metadata>
  <defs
     id="defs31" />
  <sodipodi:namedview
     pagecolor="#ffffff"
     bordercolor="#666666"
     borderopacity="1"
     objecttolerance="10"
     gridtolerance="10"
     guidetolerance="10"
     inkscape:pageopacity="0"
     inkscape:pageshadow="2"
     inkscape:window-width="1920"
     inkscape:window-height="1017"
     id="namedview29"
     showgrid="false"
     inkscape:zoom="2.6074563"
     inkscape:cx="47.053089"
     inkscape:cy="122.38629"
     inkscape:window-x="1912"
     inkscape:window-y="-8"
     inkscape:window-maximized="1"
     inkscape:current-layer="svg27" />
  <g
     id="patternLayer"
     display="inline">
    <path
       d="M193.866 243.187c-15.915-.16-23.765.226-38.261-.34-10.627-.414-24.635-1.623-37.604-1.987-16.483-.462-32.533.055-51.415 1.064 2.272-44.78 1.937-89.503 1.516-133.011-8.91 4.708-13.089 9.51-22.981 13.813-12.538-13.821-23.245-22.757-34.85-34.092 26.31-28.64 32.83-34.85 49.244-52.276 14.647-9.572 24.01-13.668 35.315-19.902 14.17 45.805 55.74 37.79 68.64-1.428 17.423 6.647 25.002 12.563 36.962 18.805 17.706 19.702 32.19 35.565 48.235 53.285-10.017 12.712-22.055 23.403-33.083 35.103-9.53-3.027-13.836-9.97-20.56-16.744-1.683 42.805-.686 95.208-1.158 137.71z"
       id="path2"
       stroke="#000"
       fill-rule="evenodd"
       fill="#ff8080" />
  </g>
  <g
     id="g25">
    <path
       fill="#f55"
       fill-rule="evenodd"
       stroke="#000"
       d="M97.035 20.719c25.609 56.27 66.686 11.482 64.65-1.137z"
       id="path5" />
    <path
       fill="#ff8080"
       fill-rule="evenodd"
       stroke="#000"
       d="M97.792 15.194l1.642-1.105c19.745 5.856 44.134 7.179 58.841-.757l5.114 2.525c1.82.976-1.642 3.47-4.21 5.921-10.837 4.457-42.409 6.563-60.544-.105-1.78-1.487-.42-3.21-.843-6.479z"
       id="path7" />
    <path
       fill="none"
       stroke="#000"
       d="M193.946 243.457c-15.914-.16-23.764.226-38.26-.34-10.628-.413-24.635-1.623-37.605-1.986-16.483-.462-32.532.054-51.414 1.064 2.271-44.781 1.936-89.504 1.515-133.012-8.91 4.708-13.088 9.51-22.98 13.814-12.539-13.822-23.245-22.758-34.85-34.093 26.31-28.64 32.829-34.85 49.244-52.276 14.646-9.572 24.01-13.668 35.315-19.902 14.169 45.806 55.74 37.79 68.64-1.427 17.423 6.646 25.002 12.563 36.961 18.804 17.706 19.703 32.191 35.565 48.235 53.286-10.017 12.711-22.054 23.402-33.082 35.102-9.53-3.027-13.837-9.97-20.56-16.744-1.683 42.805-.686 95.208-1.159 137.71z"
       id="path9" />
    <path
       fill="#faa"
       fill-rule="evenodd"
       stroke="#000"
       d="M93.102 17.688c13.316 48.14 65.258 37.497 71.668-1.999l-5.37-1.863c-4.405 39.456-53.108 44.894-61.694 1.412z"
       id="path11" />
    <path
       fill="none"
       stroke="#faa"
       stroke-dasharray="1,.5"
       stroke-width=".5"
       d="M68.337 88.375c-.564-46.362-5.43-34.49-8.15-51.669"
       id="path13" />
    <path
       fill="none"
       stroke="#000"
       d="M68.127 109.804c.25-7.76.37-16.247.63-24.526"
       id="path15" />
    <path
       fill="none"
       stroke="#faa"
       stroke-dasharray=".97331638,.48665819"
       stroke-width=".487"
       d="M194.326 92.247c-8.714-23.918 3.984-60.994 4.952-58.372"
       id="path17" />
    <path
       fill="none"
       stroke="#000"
       d="M195.073 106.615c.295-9.365-.667-14.417-1-21.625"
       id="path19" />
    <path
       fill="none"
       stroke="#faa"
       stroke-dasharray="1,.5"
       stroke-width=".5"
       d="M14.472 84.92c18.96 14.317 27.322 27.932 35.09 35.447M67.15 236.528c41.954-3.03 58.801.246 126.429 1.25M211.972 120.367c21.859-28.024 24.555-26.847 34.107-36.518"
       id="path21" />
    <path
       fill="#b3b3b3"
       fill-rule="evenodd"
       stroke="#000"
       d="M120.633 29.831c.446.09 15.446.18 15.446.18l-.446 2.32-14.911-.089z"
       id="path23" />
  </g>
  <path
     style="fill:#ffdd55;stroke-width:0.36277544;stroke:#000000;stroke-opacity:1"
     d="m 125.91012,154.95041 c -6.56518,-2.37865 -12.74763,-5.65335 -17.55607,-10.05649 -1.92908,-4.77365 -1.61168,-9.89776 -2.64113,-14.81756 0.0209,-3.23326 4.70547,0.57068 6.35099,1.09846 0.99167,2.17464 -0.53124,6.7873 1.71816,7.46976 0.58973,-2.70812 0.49241,-6.58602 -1.2391,-8.83848 -4.32189,-2.02755 -9.47265,-3.2057 -13.024198,-6.13035 -1.41782,-2.67868 -3.74424,-6.12814 -0.74343,-8.60372 3.456748,-3.11477 -0.9345,-6.89214 -1.19413,-10.49742 -2.14261,-8.171481 -2.51362,-17.822092 4.503838,-24.560916 6.84356,-6.70418 18.19398,-8.657796 28.40807,-8.185812 6.87854,-0.06808 13.98451,0.169203 20.23189,2.819807 7.49336,2.711597 12.83622,8.634629 13.97196,15.247775 1.56663,7.606664 -0.69554,15.312296 -3.58056,22.511576 1.93661,3.06807 4.39962,6.25942 1.68493,9.78246 -1.79984,3.87113 -7.50398,4.52027 -11.33707,6.57241 -5.35012,0.86247 -3.63207,5.93784 -4.11567,9.29735 1.21414,2.48289 1.98713,-3.16291 1.61228,-4.60656 -0.77356,-2.9509 4.28468,-4.69094 6.87605,-4.39658 -0.8322,4.98953 -1.13519,10.11835 -2.28487,15.10605 -4.22724,4.86294 -10.84457,7.80382 -17.15653,10.51512 -3.30269,1.1004 -7.11562,1.29548 -10.48541,0.27312 z m 5.51475,-14.63889 c 0.8202,-2.24389 -1.69285,-4.17993 -1.525,-0.86307 -0.68618,1.46859 1.08111,5.96416 1.5655,2.20247 -0.008,-0.44656 -0.025,-0.89296 -0.0406,-1.3394 z m -6.01543,-0.51885 c 1.40267,-2.63607 -2.28131,-4.14202 -1.60929,-0.63356 -0.42124,1.502 1.00416,5.7976 1.52886,1.99962 0.0411,-0.45471 0.0633,-0.91039 0.0804,-1.36606 z m 12.03084,0 c 1.40265,-2.63607 -2.28133,-4.14202 -1.60931,-0.63356 -0.42124,1.502 1.00418,5.7976 1.52887,1.99962 0.0411,-0.45471 0.0631,-0.91039 0.0805,-1.36606 z m -18.16102,-1.0673 c 0.90254,-1.93276 -1.40594,-4.4452 -1.37084,-1.14072 -0.54464,1.3191 0.59918,6.54864 1.33986,2.68841 0.0257,-0.51561 0.0295,-1.03172 0.031,-1.54769 z m 24.06166,0 c 0.90254,-1.93276 -1.40594,-4.4452 -1.37083,-1.14072 -0.54465,1.3191 0.59917,6.54864 1.33985,2.68841 0.0257,-0.51561 0.0295,-1.03172 0.0311,-1.54769 z m -10.3523,-10.0391 c 2.11438,-2.7324 -0.75266,-9.42277 -2.76481,-9.48892 -1.06583,3.0525 -4.7709,7.21571 -0.86895,9.83252 1.09718,0.74474 2.68204,0.40529 3.63376,-0.3436 z M 116.8209,118.43402 c 5.26511,-0.92764 9.16782,-5.22864 6.86933,-9.55634 -2.36383,-4.60876 -9.21429,-2.28466 -12.93748,-0.27594 -4.82836,1.86978 -5.33303,8.84203 0.14572,10.26672 1.93362,0.5368 4.13362,0.36645 5.9225,-0.43444 z m 34.25972,0.33139 c 5.53199,-2.345 3.67171,-9.61429 -2.04047,-10.87573 -3.24513,-1.53314 -8.89754,-3.20391 -10.90438,0.50165 -2.39202,3.88405 0.3186,8.79991 5.53382,9.76615 2.28197,0.83871 4.99537,1.46971 7.41103,0.60793 z"
     id="path829"
     inkscape:connector-curvature="0" />
  <path
     style="fill:#ffd42a;stroke-width:0.36277544;fill-opacity:0"
     d="m 125.97769,154.86892 c -6.24584,-2.33104 -12.13904,-5.40721 -16.99188,-9.40562 -2.56565,-4.10761 -1.6859,-8.90637 -2.88961,-13.30621 -1.17166,-2.72621 1.70785,-4.04169 4.03639,-1.98065 3.95242,1.00914 1.39655,5.17916 2.56334,7.65321 1.75966,3.8689 1.6864,-3.20804 1.18848,-4.84926 0.85902,-4.73203 -7.0725,-4.58895 -10.37871,-7.02074 -4.639538,-1.48997 -7.032378,-6.392 -5.212128,-10.12942 3.497798,-2.37089 1.46229,-5.39776 0.37107,-8.2499 -3.00529,-8.638172 -3.85306,-18.695541 2.424798,-26.531847 6.56246,-7.314902 18.39555,-9.23709 28.86934,-9.364726 10.07222,-0.121139 21.17505,1.420229 28.48502,7.5698 7.19944,6.478245 7.68613,15.921679 5.55853,24.087053 -0.77353,3.20293 -1.91643,6.33885 -3.23989,9.41641 3.74444,3.22409 3.84589,7.69099 0.62748,11.22748 -3.41921,2.65637 -8.27992,3.71181 -12.31024,5.68417 -2.76759,1.99059 -1.54477,6.6048 -1.5752,9.66893 3.29167,-1.97838 -0.12853,-6.52992 2.69151,-8.74173 2.13171,-0.95579 7.07208,-2.71336 5.05998,1.09077 -0.73187,4.45422 -0.62839,9.06249 -2.52311,13.3386 -4.11954,3.85734 -9.52007,6.73581 -15.07039,9.04335 -3.61338,1.34898 -7.87667,2.05801 -11.68478,0.80033 z m 5.45271,-11.42335 c 0.41555,-1.62899 1.83971,-6.90841 -1.69396,-5.81222 0.22335,1.4488 -1.70998,6.556 1.69396,5.81222 z m -5.93521,-1.19891 c 0.43952,-1.45625 0.74462,-7.5875 -1.86951,-4.62588 -0.23405,0.986 -0.75161,7.76878 1.86951,4.62588 z m 12.34585,-2.21344 c 1.49674,-1.64145 -2.1499,-5.41703 -1.88279,-1.70088 -0.97539,1.51621 0.72555,7.15277 1.82624,2.9431 0.0247,-0.41389 0.0402,-0.82808 0.0566,-1.24222 z m -18.56178,-1.28501 c 1.29759,-2.56569 -2.28204,-4.3692 -1.78141,-0.79342 -0.64803,1.38647 0.74542,6.08342 1.75742,2.52225 0.0254,-0.57605 0.0212,-1.15253 0.024,-1.72883 z m 24.46269,0 c 1.29759,-2.56569 -2.28204,-4.3692 -1.78141,-0.79342 -0.64804,1.38647 0.74541,6.08342 1.75742,2.52225 0.0254,-0.57605 0.0212,-1.15253 0.024,-1.72883 z m -11.15029,-9.66215 c 3.62925,-3.07441 -0.49251,-7.45015 -1.72974,-10.66288 -2.03319,2.24017 -3.65014,6.0904 -3.42558,9.05185 0.59648,1.79847 3.23088,2.91304 5.15532,1.61103 z m -13.86075,-11.24517 c 5.22701,-1.06896 6.93537,-6.38893 4.50178,-9.97856 -3.7476,-3.87885 -10.8398,-0.67922 -14.41327,1.87068 -3.87111,2.92341 -2.07932,9.65171 3.79853,9.45959 2.13787,0.007 4.2315,-0.55256 6.11296,-1.35171 z m 33.30219,0.5741 c 5.32239,-3.26263 1.73883,-10.01994 -4.05562,-11.10634 -4.58001,-2.94914 -11.63684,-0.80162 -10.84872,4.36214 -0.32721,4.50209 5.30563,6.6452 9.83453,7.4628 1.7211,0.23982 3.5807,0.0697 5.06981,-0.7186 z"
     id="path827"
     inkscape:connector-curvature="0" />
  <path
     style="fill:#ffdd55;stroke-width:0.36277544;fill-opacity:1"
     d="m 128.30238,155.41619 c -7.32484,-1.91491 -13.6262,-5.80699 -19.16526,-10.05045 -2.71315,-3.5342 -1.44918,-7.96951 -2.73567,-11.8566 -1.23919,-2.33526 0.0761,-6.18707 3.53299,-3.35208 4.47033,1.96261 0.37176,7.68645 3.94706,9.10482 1.02586,-2.6316 -0.0312,-5.78281 -0.0716,-8.61822 -2.47544,-1.91813 -6.59903,-3.17878 -9.78001,-4.71996 -0.52952,-2.97815 2.22967,-6.29943 -0.19924,-9.60028 -0.98094,-4.40344 2.95947,4.24462 2.10425,-0.34539 0.71988,-3.79635 0.63723,1.04732 2.53667,1.92739 2.27975,2.67787 0.5924,5.96493 4.18884,7.69449 3.39941,-1.19483 5.64606,-1.88746 3.86143,-5.02433 -1.41658,-2.92445 6.00073,-4.54714 6.50244,-1.75964 1.33898,3.42841 7.60017,-2.16563 6.23162,1.98885 -1.7761,2.87825 -3.98953,8.1241 1.555,9.18364 2.11812,-0.76159 4.68045,-2.21223 5.15722,1.12151 0.36853,2.6311 3.64097,0.57732 5.74819,1.34597 -2.04454,-1.45329 2.31287,-6.44762 0.76665,-2.46128 0.42496,3.77423 5.28532,5.6157 5.34125,9.3948 3.3545,-1.21227 -0.027,-5.40322 2.32868,-7.20171 1.091,-0.56588 2.93783,2.40813 3.39751,-0.0988 -1.74572,-1.25883 2.37698,1.76407 0.64588,-0.96056 -1.31263,-2.76129 2.47767,-2.7683 0.89,-0.0434 -0.9561,3.3546 -0.59171,6.76902 -1.25757,10.15999 0.10148,4.29267 -4.88858,6.41612 -8.38161,8.80954 -4.92577,2.87305 -10.81349,6.05756 -17.14465,5.36178 z m 3.52278,-14.89102 c 1.58845,-2.20148 -2.611,-5.58961 -2.35454,-1.41986 -0.7524,1.53419 0.75139,6.78989 2.27043,3.12489 0.0466,-0.56767 0.0599,-1.13658 0.0841,-1.70503 z m -6.41017,2.59223 c 0.55666,-1.92517 2.48349,-6.56142 -1.06022,-6.44605 -0.69717,0.91307 -2.27,7.26595 1.06022,6.44605 z m 12.42559,-3.51176 c 1.60478,-2.79649 -3.13549,-4.22316 -2.3214,-0.62476 -0.76318,1.50378 1.11873,6.29157 2.30372,2.74758 0.0613,-0.70669 0.0366,-1.41543 0.0177,-2.12282 z m -18.14928,1.85339 c 0.0359,-1.45979 1.16073,-6.86173 -1.98824,-5.25171 0.33722,1.29917 -1.77279,7.72276 1.98824,5.25171 z m 24.05065,-2.70631 c 0.78769,-2.10737 -1.56448,-3.88018 -1.27551,-4.48732 -1.04153,-0.84829 0.30546,-1.94666 -2.0956,-1.05123 -2.1356,1.58853 2.03137,-0.0916 0.68978,1.99255 0.80658,1.75693 -0.57793,7.77395 2.58793,6.29689 0.28307,-0.90622 -0.0713,-1.83801 0.0933,-2.75089 z m 8.44518,-2.30764 c -2.85233,-1.49643 1.28426,1.51746 0,0 z m -11.85392,-0.15363 c -1.23622,-1.42131 -0.33686,1.17098 0,0 z m 13.63495,-0.65635 c -1.40223,-1.42371 -1.57294,1.39213 0,0 z m -8.37183,-0.74386 c -1.34269,-0.5335 1.31226,1.46195 0,0 z m -13.35742,-1.39065 c -1.68595,-2.37664 0.99091,2.44125 0,0 z m 18.92205,-0.49087 c -1.23623,-1.42129 -0.33686,1.17099 0,0 z m -42.66933,-7.08851 c -1.70722,-1.33491 0.76831,1.90667 0,0 z m -1.44986,-0.21332 c -0.92173,-2.92738 -3.81249,1.34985 0,0 z m 1.03736,-2.19697 c -1.30201,-1.43556 -0.18303,1.92953 0,0 z m -1.83327,-0.71472 c -1.56514,-0.78893 -0.42361,2.06947 0,0 z m 1.04047,-3.4056 c 2.20767,-2.35462 -3.33123,2.34311 0,0 z m -1.04047,-0.82043 c -1.02764,-1.39269 -0.98994,1.34152 0,0 z m 46.11818,9.21192 c -0.84352,-2.71622 -4.47993,-6.32343 -4.02427,-8.30431 3.55863,-1.43339 7.15855,-0.29697 7.49638,3.12945 0.29344,2.20787 4.53671,1.9677 1.25814,3.52483 -1.35591,0.81443 -2.94422,1.84914 -4.73025,1.65003 z m -15.23905,-1.027 c 0.95712,-0.70315 0.78521,1.19253 0,0 z m -37.11552,-3.08773 c -1.759178,-2.47935 2.44414,-1.91578 1.64955,-4.57608 1.27578,-1.30344 0.0369,8.49557 -1.64955,4.57608 z m 13.85593,0.5714 c 0.40591,-1.67862 0.7064,-3.79927 1.08219,-0.84859 -0.0961,0.23098 -0.5736,1.31828 -1.08219,0.84859 z m -10.94995,-1.42112 c 0.64994,-1.91421 0.71016,2.16103 0,0 z m 35.01159,-0.32879 c -1.63794,-0.99055 2.10512,0.43207 0.0274,0.057 z m -27.26987,-0.10449 c 0.649,-1.57567 2.29894,-0.41799 0,0 z m 21.35212,-2.24308 c -2.06726,-3.35616 5.54321,-5.05819 8.25307,-3.53589 4.13096,2.42163 -2.42741,3.94001 -4.28276,4.63444 -1.52975,0.9935 -4.05799,0.90358 -3.97031,-1.09855 z m 7.6931,0.88317 c 2.51923,-1.13862 -1.34261,1.64371 0,0 z m -41.209778,-1.33396 c 0.71525,-3.48101 0.70737,2.0193 -0.0539,0.36206 l 0.0299,-0.20096 z m 58.683758,-0.13583 c -1.25801,-2.37837 1.83935,2.16901 0,0 z m -1.6793,-0.55234 c 1.76488,-0.50657 -0.0893,0.72041 0,0 z m -1.28709,-0.37748 c 0.5413,-1.00091 0.91407,0.86193 0,0 z m -55.354488,-1.88308 c -1.79743,-2.20063 2.340828,1.44752 0,0 z m 2.329948,-0.28419 c -3.401018,-0.75788 -0.36574,-2.40947 0.0893,-3.11101 0.26667,-1.48526 0.50901,-4.47175 -1.284798,-3.89906 -2.94128,-2.5042 -2.4449,-6.82143 2.548298,-6.49153 3.82692,-0.55017 7.0348,-3.057333 4.04215,-6.023014 -2.44206,-2.458921 -3.02989,-4.444176 -5.75859,-6.586682 -2.029548,-3.315365 -2.956658,-7.544675 1.34126,-10.058206 6.41201,-6.52128 17.14054,-8.330133 26.86367,-8.527024 9.41725,-0.09681 19.55205,0.994562 27.15286,5.933317 -0.80112,0.88041 -4.2832,-0.147751 -5.44508,0.207209 -1.80099,-0.23911 -3.45535,0.0942 -4.64939,-1.343481 -3.12713,0.899235 -6.85785,0.969436 -9.08636,2.244626 0.36381,-1.066919 -1.92911,1.371235 -1.94754,-0.925912 -1.47199,0.407611 -1.89318,2.836835 -3.86354,1.467591 1.03622,3.166913 0.76383,6.650109 2.54123,9.624653 3.27074,3.084352 7.64911,-1.554641 11.34932,-2.128679 4.7926,-1.873308 9.55244,-3.80694 14.42768,-5.53444 4.37402,2.434023 4.49203,7.422409 5.32077,11.297706 -1.48696,-0.292562 -3.17309,-5.247626 -4.74419,-7.241942 -2.06701,-1.85326 -6.18021,2.16022 -9.34546,2.310028 -3.67814,1.095162 -8.35323,2.926627 -10.36828,5.023551 2.03538,4.927017 5.56615,9.343469 7.47022,14.312319 -4.16985,-0.32166 -6.87011,-3.65461 -6.70365,-6.26977 -0.83068,-3.018752 -3.64623,-6.377528 -7.49291,-3.345696 -6.91765,2.594883 -13.86127,5.149056 -20.65855,7.951686 3.02277,2.27669 -4.32513,4.27143 -5.18126,1.08871 -1.61845,-0.41608 -1.05758,1.5886 -3.01551,1.02975 -0.34901,2.41968 1.89882,5.28987 -2.13157,5.92216 -0.63997,0.55626 0.19548,3.99295 -1.47003,3.07314 z m 3.25296,-4.4471 c -1.05389,-0.60643 -0.81165,1.03569 0,0 z m -0.19767,-1.55461 c -0.59586,-1.80085 -0.52431,2.63994 0,0 z m 10.82774,-9.607 c 3.65771,-1.887112 7.85837,-3.009062 11.82523,-4.355905 4.18967,-0.138771 7.86571,-3.081267 4.39059,-6.095287 -2.20599,-3.837698 -4.27917,-7.739394 -6.93078,-11.391303 -3.45269,0.376216 -5.69758,1.764267 -9.34795,0.239584 -3.7488,1.385014 -11.02434,-0.425325 -12.10081,4.002851 3.44589,5.635352 6.42255,11.550449 9.98036,17.18174 0.34544,0.42635 1.85997,1.26982 2.18336,0.41832 z m 9.46426,14.899 c -0.54164,-2.11136 1.35307,1.30464 0,0 z m 30.15157,-2.18234 c -0.84609,-2.96744 6.28791,-4.19813 7.26751,-3.84999 0.15874,2.46868 -5.45579,6.73422 -7.21487,4.31739 -0.0175,-0.15575 -0.0351,-0.3116 -0.0526,-0.4674 z m -47.63639,-4.51237 c 1.02765,-1.39269 0.98994,1.34154 0,0 z m 26.96912,-29.068598 c 0.42453,-1.935379 0.47711,2.070411 0,0 z m 8.64716,-1.675567 c 1.76488,-0.506563 -0.0893,0.7204 0,0 z"
     id="path819"
     inkscape:connector-curvature="0" />
  <path
     style="fill:#ff9955;stroke-width:0.36277544"
     d="m 128.12265,155.28404 c -3.63384,-1.27959 -11.08058,-3.28108 -11.31512,-5.6713 4.7897,-2.26906 10.12213,-3.72991 14.93679,-5.90019 0.68952,-2.66028 0.82479,-6.85892 -2.92446,-7.64442 -2.25384,-2.57275 -1.88102,-6.2436 -4.46183,-8.53859 -4.06959,-0.59552 -7.44497,3.90335 -11.82306,2.26202 -5.02524,-1.97316 3.33973,-1.90242 5.14691,-2.89716 4.71854,-2.25761 -4.50493,-6.95791 0.46257,-8.31421 1.38506,2.11319 3.80241,4.12965 6.92075,1.97161 2.09067,-1.36009 6.66469,-2.25454 3.39537,0.62477 -4.35766,2.3342 -0.90199,6.49155 0.93408,9.22536 2.84788,3.35862 4.66007,7.14771 6.00954,11.0592 1.95529,4.48114 8.39297,0.85676 11.70287,-0.62528 2.18217,-1.39034 9.46067,-3.95221 6.49773,0.67668 -5.29911,2.21738 -10.8666,4.13703 -16.07183,6.55997 3.86574,2.43723 4.30613,5.90225 -1.42954,6.3678 -2.48396,0.869 -5.30577,1.54777 -7.98077,0.84374 z m 5.66505,-3.43847 c 0.76852,-4.53655 -7.23076,-2.01298 -7.09544,0.0764 1.47968,-0.6179 3.37612,-1.57939 4.01861,-1.09265 0.66277,-0.74701 0.96901,1.43909 1.83684,0.87289 0.18033,0.65555 0.99613,0.94016 1.23999,0.14334 z m -27.38423,-18.64494 c -3.33629,-3.90927 7.87879,-3.77025 3.92784,-1.06506 -1.1784,0.54712 -2.48495,1.37713 -3.92784,1.06506 z m 47.87598,-2.595 c -0.91374,-3.24707 2.99196,-0.0612 0.55224,0.97979 l -0.24815,-0.46578 z m -3.83089,-6.78652 c -1.05806,-1.63211 -3.95628,-5.80435 0.36664,-3.92933 1.62807,2.17577 3.26803,4.82903 3.97873,7.01879 -2.56592,2.77713 -3.19083,-1.96472 -4.34537,-3.08946 z m -18.85925,-4.74641 c 0.69148,-2.13379 8.05589,-5.05928 8.19856,-1.36445 -3.08229,-0.73868 -5.80177,2.99744 -8.19856,1.36445 z m 23.1809,-5.09696 c 0.80105,-2.3749 9.56306,-3.56748 4.41406,-0.48101 -0.94951,0.46119 -4.05608,2.20801 -4.41406,0.48101 z m -45.8593,-7.33317 c -0.93084,-4.64787 -5.37059,-1.80008 -8.03903,-0.18904 -4.498558,1.62143 -2.196058,-3.27045 0.89589,-3.09975 3.74279,-1.24983 11.02002,-2.90398 6.42555,-6.923615 -2.05117,-3.39146 -3.50065,-6.956939 -6.18505,-10.046565 -1.99899,-1.742014 -4.255868,-3.475441 -0.3936,-5.014458 2.41649,3.082164 3.94425,7.146843 6.14176,10.573208 2.42593,3.281652 3.36299,7.950097 7.03222,10.2208 4.7119,-0.38959 8.45335,-3.420562 13.0725,-4.278372 4.29649,-0.15118 7.46574,-3.360165 4.17018,-6.387703 -3.06199,-5.520694 -6.25701,-10.99623 -9.79594,-16.324327 -4.95187,-0.891235 -9.28153,2.359349 -14.02316,3.072484 -2.12703,0.426336 -7.9527,2.634473 -3.62975,-0.135996 7.38551,-5.292816 17.68427,-6.163252 27.08488,-6.474539 1.636,1.245199 -5.96475,1.293964 -3.61103,4.061691 0.28422,3.332621 0.91336,6.66552 2.69073,9.676161 0.15791,3.185736 2.9153,7.197731 7.13566,4.314547 7.18903,-2.577268 14.11533,-5.632527 21.41866,-7.99821 4.54835,1.011068 3.12414,6.138926 5.24992,8.873331 0.68544,2.202668 -0.16559,2.23439 -0.97807,0.241331 -2.06868,-2.046037 -2.90403,-7.473297 -5.90954,-7.201045 -5.85072,2.474658 -12.22488,4.152903 -17.75033,7.10606 -0.64044,3.410823 3.39226,6.475568 4.42321,9.802147 0.78734,1.66026 4.02338,5.63694 2.60043,6.12231 -3.78225,-2.34616 -3.80062,-6.721473 -6.13901,-9.872336 -3.98364,-3.093119 -9.00344,2.243584 -13.47484,2.827103 -5.33764,1.986253 -10.64663,4.033103 -15.80282,6.321173 0.56175,2.16431 -1.74116,3.67188 -2.60942,0.73358 z"
     id="path817"
     inkscape:connector-curvature="0" />
  <path
     style="opacity:1;fill:#ff9955;fill-opacity:1;stroke:#000000;stroke-width:0.09587888;stroke-opacity:1"
     d="m 109.72497,107.94881 c -0.37,-0.31134 -0.59099,-0.7371 -0.86463,-1.66582 -0.33233,-1.1279 -0.73703,-1.67864 -1.48755,-2.02435 -0.47763,-0.22001 -1.30465,-0.23221 -2.0955,-0.0309 -0.70046,0.17829 -2.44196,0.99561 -3.5589,1.67027 -1.21007,0.73092 -2.129748,0.9841 -2.786928,0.7672 -0.57689,-0.19038 -0.67463,-0.66531 -0.29223,-1.41993 0.47633,-0.93999 1.590608,-1.68782 2.727598,-1.83059 0.96366,-0.121 4.63449,-1.3753 5.94729,-2.03215 1.13857,-0.56967 1.87726,-1.16251 2.19687,-1.763108 0.0869,-0.163336 0.15293,-0.515522 0.15276,-0.814971 -3.9e-4,-0.659499 -0.26209,-1.187818 -0.94773,-1.913302 -0.61646,-0.652279 -0.69237,-0.773989 -2.1557,-3.455915 -2.55449,-4.68179 -3.33946,-5.837682 -5.24147,-7.718251 -0.81727,-0.808066 -1.441858,-1.511079 -1.569298,-1.766359 -0.29664,-0.594216 -0.22107,-1.068703 0.24646,-1.547503 0.330578,-0.338541 1.333848,-0.952748 1.556258,-0.952748 0.12082,0 1.25091,1.659321 1.95896,2.876367 0.29145,0.500967 0.99354,1.795332 1.5602,2.876366 1.45227,2.770559 1.99076,3.725451 2.81154,4.985702 0.39496,0.606434 1.31482,2.240939 2.04415,3.632235 0.72932,1.391294 1.60265,2.944532 1.94074,3.45164 0.64619,0.969257 1.72902,2.132597 2.44088,2.622367 0.39947,0.27484 0.45749,0.28724 1.07559,0.2298 1.47411,-0.13701 3.37158,-0.75302 6.46617,-2.09925 3.14591,-1.36856 5.05615,-1.995027 6.51976,-2.138179 2.11778,-0.207134 3.92848,-1.167372 4.71067,-2.498129 0.24452,-0.416025 0.27504,-0.558345 0.27504,-1.282906 0,-0.957154 -0.20111,-1.450235 -0.91616,-2.246302 -0.24022,-0.267435 -0.90597,-1.327584 -1.47944,-2.355885 -2.34189,-4.199265 -5.1691,-8.918827 -7.60822,-12.700646 -0.84125,-1.30434 -1.10345,-1.642095 -1.32332,-1.704663 -0.15082,-0.04292 -0.8351,-0.08038 -1.52064,-0.08326 -1.58617,-0.0067 -3.04675,0.277136 -5.17924,1.006316 -0.84275,0.288168 -2.35204,0.805682 -3.35398,1.150031 -1.00193,0.344349 -2.36101,0.74029 -3.02018,0.879867 -0.65917,0.139577 -2.02993,0.485377 -3.04614,0.768444 -1.91643,0.533824 -2.80247,0.708041 -2.80247,0.551035 0,-0.311815 2.71148,-2.124993 4.67307,-3.124895 5.35972,-2.732075 11.36478,-3.974679 21.68159,-4.48649 1.95526,-0.097 2.15905,-0.09239 2.3011,0.05203 0.14409,0.146509 0.13664,0.175147 -0.0989,0.379848 -0.14011,0.121765 -0.76572,0.401893 -1.39025,0.622505 -1.45323,0.513351 -2.22272,0.925709 -2.49953,1.339461 -0.27741,0.414628 -0.27518,0.709142 0.009,1.199853 0.17579,0.303483 0.26291,0.694884 0.38601,1.734244 0.33814,2.85495 0.96031,5.132635 1.96426,7.190916 0.32451,0.665284 0.58973,1.352739 0.62884,1.629941 0.43147,3.057772 2.59711,5.153309 4.90956,4.750615 0.6428,-0.111941 1.48149,-0.43942 1.93225,-0.754484 0.14247,-0.09958 0.88464,-0.407418 1.64927,-0.684094 1.78786,-0.646923 3.63401,-1.352559 8.48528,-3.243246 7.26369,-2.830877 11.34148,-4.278727 11.78744,-4.185219 0.63416,0.132973 1.4631,0.615927 1.96129,1.142687 0.72159,0.762977 1.06295,1.583979 1.63556,3.933703 0.45562,1.869645 0.91959,3.16065 1.29159,3.593879 0.26797,0.312073 0.44509,1.555705 0.23965,1.682673 -0.14752,0.09117 -0.51359,-0.284713 -0.77502,-0.795786 -0.12354,-0.241502 -0.44678,-0.738708 -0.71832,-1.104904 -0.27154,-0.366197 -0.9765,-1.606347 -1.56659,-2.755888 -0.59008,-1.149543 -1.27518,-2.342032 -1.52243,-2.649977 -0.56243,-0.700473 -1.22106,-1.151118 -1.81309,-1.240554 -0.49428,-0.07467 -0.3982,-0.103581 -2.89771,0.871984 -0.76463,0.298439 -2.61989,0.988243 -4.12279,1.532897 -5.78243,2.095566 -7.33765,2.715432 -9.80362,3.907448 l -1.60597,0.776304 v 0.740916 c 0,1.420864 0.42021,2.374014 2.3011,5.219481 1.25139,1.893148 1.74494,2.757734 2.08977,3.660779 0.097,0.25411 0.66145,1.23863 1.25427,2.18783 0.59281,0.9492 1.21113,1.99652 1.37404,2.32737 0.35453,0.71999 0.45832,1.45355 0.23222,1.6412 -0.12926,0.10728 -0.22138,0.0749 -0.62075,-0.21828 -1.28105,-0.94037 -2.29213,-2.39141 -3.23468,-4.6422 -1.61514,-3.856901 -2.09075,-4.716396 -2.87181,-5.189766 -0.76607,-0.46429 -1.31637,-0.607859 -2.34586,-0.612018 -1.49682,-0.0061 -2.39673,0.288553 -5.66714,1.855219 -2.43174,1.164911 -3.22125,1.481687 -4.39472,1.763312 -1.42045,0.340894 -9.43531,3.434203 -14.2424,5.496803 l -2.19337,0.94112 0.0234,0.574 c 0.0281,0.68796 -0.091,1.04029 -0.49244,1.45643 -0.39128,0.40566 -0.8772,0.42778 -1.31446,0.0599 z"
     id="path961"
     inkscape:connector-curvature="0" />
  <path
     style="opacity:1;fill:#ff9955;fill-opacity:1;stroke:#000000;stroke-width:0.09587888;stroke-opacity:1"
     d="m 129.29592,155.46411 c -0.80929,-0.10087 -5.1573,-1.50835 -7.57571,-2.45232 -2.95564,-1.15366 -4.40676,-2.09789 -4.79551,-3.12039 -0.0963,-0.25317 -0.0884,-0.25911 0.92824,-0.70472 1.86591,-0.81783 2.62128,-1.11364 6.49041,-2.54167 5.64663,-2.08408 7.39455,-2.79724 7.47142,-3.0484 0.15283,-0.49936 0.34271,-1.97177 0.34271,-2.65753 0,-2.54037 -0.94584,-4.1309 -2.82718,-4.75422 -0.86289,-0.28589 -1.4393,-1.26949 -2.49311,-4.25427 -0.75507,-2.13861 -1.24421,-3.11268 -1.96063,-3.90435 l -0.52193,-0.57675 -1.06031,0.0445 c -1.25015,0.0525 -1.8123,0.22139 -4.12274,1.23872 -2.40701,1.05985 -3.06415,1.2558 -4.38485,1.30751 -1.26281,0.0494 -2.03154,-0.11907 -3.08071,-0.67533 -1.37408,-0.72853 -0.87658,-1.06556 2.37829,-1.61115 2.28782,-0.38349 3.23646,-0.61425 3.81129,-0.92711 0.64279,-0.34985 1.10248,-0.90275 1.17992,-1.41916 0.11636,-0.77595 -0.17268,-1.42284 -1.68196,-3.76434 -1.00526,-1.55956 -0.89919,-2.43687 0.34919,-2.88829 0.35698,-0.12908 0.36238,-0.12733 0.59864,0.19473 0.13113,0.17874 0.57253,0.66021 0.9809,1.06993 1.62014,1.62552 3.4011,1.92613 5.2115,0.87964 1.13243,-0.65459 2.31463,-1.18261 3.08542,-1.37808 1.3239,-0.33573 2.05208,-0.22566 1.91769,0.28988 -0.0987,0.37881 -0.81264,1.12529 -1.52494,1.59455 -1.91527,1.26179 -2.18193,2.91362 -0.88906,5.50739 0.44415,0.89105 1.9107,3.09278 2.91067,4.36977 1.99193,2.54375 3.56477,5.44844 4.94548,9.1332 0.53997,1.44104 0.77178,1.85452 1.3262,2.36557 1.76531,1.6272 4.94291,1.02304 11.21331,-2.13202 1.63275,-0.82154 3.30034,-1.42432 4.52516,-1.63569 1.98976,-0.34337 2.64291,0.29492 1.88245,1.83963 -0.35026,0.71149 0.27245,0.41523 -6.33219,3.01255 -5.99211,2.35643 -10.07873,4.06699 -10.05965,4.21071 0.004,0.0316 0.35699,0.3168 0.78398,0.63371 1.37288,1.01898 2.19035,2.36439 2.04115,3.35936 -0.17846,1.19001 -1.33767,1.86619 -3.98331,2.32349 -0.29003,0.0501 -1.06267,0.24891 -1.71698,0.44174 -2.01711,0.59445 -3.88434,0.8135 -5.36325,0.62919 z m 4.15163,-3.12294 c 0.42986,-0.16495 0.57084,-1.22062 0.25453,-1.90596 -0.37961,-0.82252 -1.00905,-1.13799 -2.26369,-1.13457 -1.72895,0.005 -3.84809,0.89426 -4.5443,1.90754 -0.18111,0.26359 -0.27755,0.71316 -0.15298,0.71316 0.0268,0 0.55533,-0.21273 1.17452,-0.47272 1.36158,-0.57173 1.90909,-0.71715 2.46442,-0.65455 0.23376,0.0264 0.46667,0.003 0.5224,-0.053 0.0702,-0.0702 0.19534,0.0104 0.41413,0.26645 0.6501,0.76091 0.74821,0.83971 0.98833,0.79381 0.16642,-0.0318 0.24784,0.006 0.2885,0.13412 0.0311,0.0982 0.17232,0.24127 0.31371,0.31804 0.29822,0.16193 0.33252,0.1675 0.54043,0.0877 z"
     id="path963"
     inkscape:connector-curvature="0" />
  <path
     style="opacity:1;fill:#ff9955;fill-opacity:1;stroke:#000000;stroke-width:0.09587888;stroke-opacity:1"
     d="m 132.03763,119.26523 c -0.19775,-0.0852 -0.35954,-0.2207 -0.35954,-0.30103 0,-0.0803 0.29288,-0.43377 0.65086,-0.78541 1.22992,-1.20816 3.46228,-2.13301 5.19775,-2.1534 0.80412,-0.009 0.9614,0.0174 1.3423,0.229 0.3024,0.168 0.49599,0.36767 0.64718,0.6675 0.34618,0.68648 0.31953,0.72766 -0.44734,0.69122 -0.79541,-0.0378 -1.58115,0.14682 -2.64475,0.62143 -2.27357,1.01452 -2.56935,1.11753 -3.30782,1.15206 -0.5123,0.0239 -0.82249,-0.011 -1.07864,-0.12137 z"
     id="path965"
     inkscape:connector-curvature="0" />
  <path
     style="opacity:1;fill:#ff9955;fill-opacity:1;stroke:#000000;stroke-width:0.09587888;stroke-opacity:1"
     d="m 152.91117,127.58124 c -0.47945,-0.29238 -0.79509,-0.74744 -1.49512,-2.15551 -0.36585,-0.73589 -0.76877,-1.4611 -0.89538,-1.61156 -0.37349,-0.44387 -1.48499,-2.34061 -1.74141,-2.97166 -0.46364,-1.14101 -0.15216,-1.56354 0.94535,-1.28237 0.32764,0.0839 0.72655,0.22811 0.88645,0.32037 0.6583,0.37982 3.56479,5.20234 3.98925,6.61905 0.11155,0.3723 0.10442,0.41625 -0.10342,0.63748 -0.23674,0.252 -0.92614,0.62306 -1.15648,0.62246 -0.0756,-2e-4 -0.26879,-0.0804 -0.42924,-0.17826 z"
     id="path967"
     inkscape:connector-curvature="0" />
  <path
     style="opacity:1;fill:#ff9955;fill-opacity:1;stroke:#000000;stroke-width:0.09587888;stroke-opacity:1"
     d="m 155.38535,114.6082 c -0.19193,-0.0522 -0.36356,-0.18727 -0.44967,-0.3538 -0.12574,-0.24316 -0.12151,-0.2985 0.0436,-0.56994 0.49787,-0.81868 2.32461,-1.66559 4.17673,-1.9364 0.86313,-0.12621 1.57342,-0.0148 1.57342,0.24679 0,0.42305 -0.82016,1.07465 -2.25316,1.79011 -1.41007,0.70401 -2.48101,0.98925 -3.09088,0.82324 z"
     id="path969"
     inkscape:connector-curvature="0" />
  <path
     style="opacity:1;fill:#ff9955;fill-opacity:1;stroke:#000000;stroke-width:0.09587888;stroke-opacity:1"
     d="m 106.40094,133.08519 c -0.29165,-0.20429 -0.63559,-1.0602 -0.56153,-1.39742 0.20745,-0.94451 1.56494,-1.49915 3.46934,-1.41749 1.4125,0.0606 2.01145,0.41887 1.75106,1.04751 -0.16291,0.3933 -0.66519,0.75598 -1.70611,1.23195 -1.43874,0.65788 -2.50255,0.85079 -2.95276,0.53545 z"
     id="path971"
     inkscape:connector-curvature="0" />
</svg>
