<?xml version="1.0" encoding="UTF-8" standalone="no"?>
<svg
   xmlns:dc="http://purl.org/dc/elements/1.1/"
   xmlns:cc="http://creativecommons.org/ns#"
   xmlns:rdf="http://www.w3.org/1999/02/22-rdf-syntax-ns#"
   xmlns:svg="http://www.w3.org/2000/svg"
   xmlns="http://www.w3.org/2000/svg"
   xmlns:sodipodi="http://sodipodi.sourceforge.net/DTD/sodipodi-0.dtd"
   xmlns:inkscape="http://www.inkscape.org/namespaces/inkscape"
   version="1.1"
   viewBox="0 0 64 64"
   id="svg835"
   sodipodi:docname="crest_of_charon copy.svg"
   inkscape:version="1.1-dev (ddb55ca, 2020-02-02)">
  <metadata
     id="metadata841">
    <rdf:RDF>
      <cc:Work
         rdf:about="">
        <dc:format>image/svg+xml</dc:format>
        <dc:type
           rdf:resource="http://purl.org/dc/dcmitype/StillImage" />
      </cc:Work>
    </rdf:RDF>
  </metadata>
  <defs
     id="defs839" />
  <sodipodi:namedview
     pagecolor="#ffffff"
     bordercolor="#666666"
     borderopacity="1"
     objecttolerance="10"
     gridtolerance="10"
     guidetolerance="10"
     inkscape:pageopacity="0"
     inkscape:pageshadow="2"
     inkscape:window-width="900"
     inkscape:window-height="651"
     id="namedview837"
     showgrid="false"
     inkscape:zoom="1.121284"
     inkscape:cx="34.520162"
     inkscape:cy="8.8988194"
     inkscape:window-x="368"
     inkscape:window-y="89"
     inkscape:window-maximized="0"
     inkscape:current-layer="svg835" />
  <path
     inkscape:connector-curvature="0"
     id="path852"
     d="m 32.800502,60.278702 c -0.143304,-0.177333 -0.733767,-2.176005 -1.312142,-4.441494 -1.208029,-4.731843 -1.789465,-5.784258 -3.852041,-6.972309 -0.738884,-0.4256 -2.348527,-1.35418 -3.576985,-2.063513 -1.228457,-0.709332 -3.088798,-2.087323 -4.134092,-3.062201 l -1.900534,-1.772503 -2.802948,1.353654 c -1.541621,0.74451 -2.928103,1.276303 -3.08107,1.181766 -0.326048,-0.20151 0.669487,-2.621164 1.526819,-3.710946 0.736888,-0.93668 1.274644,-2.275193 1.274644,-3.172676 0,-0.405287 -0.286566,-1.59055 -0.636813,-2.633919 C 13.955093,33.941192 13.493915,32.007926 13.280499,30.688416 12.837001,27.946335 12.49187,27.27801 11.286502,26.827158 10.814447,26.650592 10.165347,26.40235 9.8440583,26.275509 9.2723133,26.049792 8.5369735,24.87626 8.8015188,24.611715 c 0.073536,-0.07354 0.8178445,-0.262072 1.6540182,-0.418969 2.753429,-0.516642 2.703995,-0.473037 4.429366,-3.90706 1.772902,-3.528627 3.29392,-5.601698 5.236728,-7.1374 2.349664,-1.857302 2.780874,-1.158702 0.738465,1.19638 -1.463989,1.688111 -5.130446,8.727611 -4.734634,9.090372 0.129446,0.118637 1.250991,0.593977 2.492323,1.056312 1.241331,0.462335 2.256966,0.932933 2.256966,1.045773 0,0.193066 -1.516822,0.819927 -3.654998,1.510509 -1.904591,0.615141 -2.024556,1.446045 -0.852775,5.906471 0.510003,1.941348 1.007436,3.603388 1.105407,3.693427 0.09797,0.09004 1.338854,-0.277439 2.757519,-0.816617 1.418665,-0.53918 2.672274,-0.891396 2.7858,-0.782703 0.113525,0.108693 -0.379784,1.162751 -1.096241,2.342352 -1.443959,2.377389 -1.594296,3.255821 -0.722288,4.220407 0.621707,0.687709 3.893745,2.553424 8.037729,4.583105 3.515413,1.721815 4.524731,1.722024 8.041844,0.0015 3.414525,-1.670182 7.321594,-3.860804 8.037729,-4.506601 0.949564,-0.856298 0.778199,-2.107094 -0.574843,-4.195812 -0.635364,-0.980821 -1.15769,-1.928404 -1.160726,-2.105737 -0.009,-0.527349 0.862829,-0.371788 2.678645,0.477935 1.648943,0.771633 1.734171,0.784741 2.374541,0.365154 0.843352,-0.552585 1.578832,-2.212299 2.089051,-4.714248 0.679043,-3.329798 0.103993,-4.318537 -3.000958,-5.159838 -0.909911,-0.246545 -1.699484,-0.584232 -1.754605,-0.750416 -0.0591,-0.17817 0.805477,-0.646184 2.107001,-1.140573 1.213972,-0.461021 2.20722,-0.971402 2.20722,-1.13407 0,-0.720989 -0.897578,-3.239127 -1.701799,-4.774356 -0.483053,-0.922132 -1.57456,-2.597424 -2.425568,-3.722869 -0.851011,-1.125446 -1.547292,-2.141081 -1.547292,-2.256967 0,-0.483949 0.979583,-0.144821 2.063513,0.714382 1.908155,1.512545 3.304534,3.413403 4.910187,6.684119 0.835735,1.702397 1.749913,3.237612 2.031507,3.411587 0.281592,0.173975 1.329189,0.502187 2.32799,0.72936 0.998802,0.227173 1.889056,0.53124 1.978339,0.675705 0.230388,0.372776 -0.346436,0.874607 -1.947427,1.694236 -1.862109,0.953306 -2.267919,1.593954 -2.574686,4.064613 -0.140917,1.134932 -0.609205,3.10092 -1.04064,4.368866 -0.431436,1.267943 -0.784428,2.506084 -0.784428,2.75142 0,0.429092 1.007156,2.473375 2.623941,5.325954 1.095599,1.933029 0.59072,1.987206 -2.883392,0.309421 l -2.822944,-1.363263 -0.525659,0.668269 c -0.960697,1.221328 -3.873087,3.340775 -7.181011,5.225871 -4.103451,2.338444 -4.458685,2.838774 -5.695655,8.022005 -1.035306,4.338197 -1.548026,5.330065 -2.284277,4.418981 z m 0.07233,-23.966882 c -0.06893,-0.189131 -0.406035,-1.54326 -0.74912,-3.009176 -0.723607,-3.091782 -1.086135,-3.590334 -3.421094,-4.704708 -1.819049,-0.868151 -2.724446,-1.818354 -3.668781,-3.850339 -0.563462,-1.212437 -0.658394,-1.774876 -0.653049,-3.869086 0.009,-3.528746 0.49992,-4.514771 3.73092,-7.493748 2.266446,-2.08966 2.667832,-2.601791 3.863413,-4.9293391 l 1.334195,-2.597405 0.487435,0.7393461 c 0.268089,0.4066404 0.488202,0.919683 0.489135,1.1400948 0.001,0.2204115 0.301018,1.0014014 0.66685,1.7355335 0.506033,1.0154707 1.17734,1.7347297 2.806191,3.0066287 3.554893,2.775863 4.699513,5.074757 4.449341,8.936214 -0.245192,3.784571 -1.599166,5.896859 -4.730118,7.379294 -0.768279,0.363764 -1.631392,0.990744 -1.918029,1.393286 -0.286635,0.402543 -0.835308,1.974821 -1.219268,3.493953 -0.645418,2.55356 -1.159851,3.474991 -1.468021,2.629451 z m 2.695318,-9.368519 c 2.496776,-0.880913 4.136156,-3.029141 4.136156,-5.419973 0,-4.247774 -2.961248,-7.989561 -6.307515,-7.970076 -2.954395,0.01721 -5.5669,2.615947 -6.363395,6.32987 -1.026061,4.78436 3.761094,8.744425 8.534754,7.060179 z"
     style="fill:#ff8080;stroke:#ffb380;stroke-width:0.257939;fill-opacity:1" />
</svg>
