<?xml version="1.0" encoding="UTF-8" standalone="no"?>
<svg
   xmlns:dc="http://purl.org/dc/elements/1.1/"
   xmlns:cc="http://creativecommons.org/ns#"
   xmlns:rdf="http://www.w3.org/1999/02/22-rdf-syntax-ns#"
   xmlns:svg="http://www.w3.org/2000/svg"
   xmlns="http://www.w3.org/2000/svg"
   xmlns:sodipodi="http://sodipodi.sourceforge.net/DTD/sodipodi-0.dtd"
   xmlns:inkscape="http://www.inkscape.org/namespaces/inkscape"
   cursor="default"
   viewBox="0 0 256 256"
   version="1.1"
   id="svg31"
   sodipodi:docname="apple_cutie.svg"
   inkscape:version="0.92.4 (5da689c313, 2019-01-14)">
  <metadata
     id="metadata37">
    <rdf:RDF>
      <cc:Work
         rdf:about="">
        <dc:format>image/svg+xml</dc:format>
        <dc:type
           rdf:resource="http://purl.org/dc/dcmitype/StillImage" />
        <dc:title></dc:title>
      </cc:Work>
    </rdf:RDF>
  </metadata>
  <defs
     id="defs35" />
  <sodipodi:namedview
     pagecolor="#ffffff"
     bordercolor="#666666"
     borderopacity="1"
     objecttolerance="10"
     gridtolerance="10"
     guidetolerance="10"
     inkscape:pageopacity="0"
     inkscape:pageshadow="2"
     inkscape:window-width="1920"
     inkscape:window-height="1057"
     id="namedview33"
     showgrid="false"
     inkscape:zoom="2.6074563"
     inkscape:cx="79.250757"
     inkscape:cy="136.37231"
     inkscape:window-x="1912"
     inkscape:window-y="-8"
     inkscape:window-maximized="1"
     inkscape:current-layer="svg31" />
  <g
     transform="matrix(1.400732,0,0,1.400732,-255.20708,-1025.7498)"
     inkscape:label="Mark"
     id="layer2">
    <path
       sodipodi:nodetypes="ccc"
       inkscape:connector-curvature="0"
       id="path2993"
       d="m 224.00133,860.4332 c 45.49126,-57.04603 51.63385,49.95644 5.80837,40.4061 -43.84884,30.56412 -73.37579,-74.86353 -5.80837,-40.4061 z"
       style="fill:#ea403f;fill-opacity:1;stroke:none" />
    <path
       sodipodi:nodetypes="ccc"
       inkscape:connector-curvature="0"
       id="path2995"
       d="m 220.8446,854.87736 c -11.56689,-4.4233 -20.32765,-10.24967 -13.25825,-23.99112 8.38317,3.82467 11.18173,13.52787 13.25825,23.99112 z"
       style="fill:#60ba50;fill-opacity:1;stroke:none" />
    <path
       sodipodi:nodetypes="cccc"
       inkscape:connector-curvature="0"
       id="path2997"
       d="m 222.35983,852.22571 c -3.41678,-11.62913 -5.12263,-23.38986 -4.16688,-35.35534 4.01341,-0.2577 8.07888,-0.82777 11.11168,4.79822 -3.27109,1.34128 -4.95064,17.40426 -6.9448,30.55712 z"
       style="fill:#60ba50;fill-opacity:1;stroke:none" />
    <path
       sodipodi:nodetypes="ccc"
       inkscape:connector-curvature="0"
       id="path2999"
       d="m 257.58929,768.70147 c 50.30492,-54.52687 63.09526,48.24109 11.42857,40.80357 -54.73038,16.2315 -54.89322,-77.59279 -11.42857,-40.80357 z"
       style="fill:#ea403f;fill-opacity:1;stroke:none" />
    <path
       sodipodi:nodetypes="ccc"
       inkscape:connector-curvature="0"
       id="path3001"
       d="m 256.42857,757.09432 c 0.31375,-12.04866 5.04649,-19.25748 15.35715,-20.35714 0.52209,19.94837 -5.91635,23.65551 -15.35715,20.35714 z"
       style="fill:#60ba50;fill-opacity:1;stroke:none" />
    <path
       sodipodi:nodetypes="cccc"
       inkscape:connector-curvature="0"
       id="path3003"
       d="m 255.80357,760.66575 c -7.17286,-8.13758 -13.71805,-13.79246 -16.96428,-14.73214 0.2549,-2.28747 2.65413,-6.11119 6.60714,-6.78571 8.14704,4.39059 8.22366,13.56366 10.35714,21.51785 z"
       style="fill:#60ba50;fill-opacity:1;stroke:none" />
    <path
       sodipodi:nodetypes="ccc"
       inkscape:connector-curvature="0"
       id="path3005"
       d="m 331.96429,839.1479 c 63.88009,-27.69986 19.61101,69.05973 -14.28572,45.89285 -43.78577,3.52389 -21.20647,-97.60183 14.28572,-45.89285 z"
       style="fill:#ea403f;fill-opacity:1;stroke:none" />
    <path
       sodipodi:nodetypes="cccc"
       inkscape:connector-curvature="0"
       id="path3007"
       d="m 332.84526,836.50521 c -3.99547,-11.31036 -7.95319,-21.43131 -11.61675,-22.28649 1.04168,-2.52355 2.27169,-4.88094 6.12405,-4.92449 9.22958,4.43077 6.43924,19.81657 5.4927,27.21098 z"
       style="fill:#60ba50;fill-opacity:1;stroke:none" />
    <path
       sodipodi:nodetypes="ccc"
       inkscape:connector-curvature="0"
       id="path3009"
       d="m 335.37065,832.78027 c 11.04571,0.80723 19.71252,-2.3376 20.39245,-18.75095 -13.37354,1.60509 -17.5075,10.42724 -20.39245,18.75095 z"
       style="fill:#60ba50;fill-opacity:1;stroke:none" />
  </g>
</svg>
