<svg xmlns="http://www.w3.org/2000/svg" cursor="pointer" viewBox="0 0 256 256">
    <g id="patternLayer" stroke="#000" display="inline">
        <path fill="#faa" fill-rule="evenodd" d="M137 212.7c9.4 21 98.7-4 99.7-17.8 2.8-43.7 7.2-87.3-6-131L28 64.9c-15 43.5-6.8 87.4-9.9 131.5 9.2 15.8 81 25.2 97.5 14l1.8-17.7c8.4 1.6 12.3-.3 18.2 0a62 62 0 011.4 20z"/>
    </g>
    <g stroke="#000">
        <path fill="none" d="M137 212.7c9.4 21 98.7-4 99.7-17.8 2.8-43.7 7.2-87.4-6-131L28 64.8c-15 43.4-6.8 87.4-9.9 131.5 9.2 15.8 81 25.2 97.5 14l1.8-17.8c8.4 1.7 12.3-.2 18.2 0 1.7 7 1.9 13.4 1.4 20.1z"/>
        <path fill="#fca" fill-rule="evenodd" d="M116.3 202.9C87.8 191 60.1 136.6 86.2 71.2c2.7-.4 4.7-.6 7.3.5-14.9 43.7-20.3 88.2 23.2 127.5 0 0-.1 2-.4 3.7zm45-131.8c10.4 64.2-5.2 108.1-25.3 122.5.2 1.3.5 3.7.8 4.8 35-17.8 37-84.4 30.5-127.6-1-.1-6 0-6 .3zm-47 146.6c-19.5 8.8-93.3-6.4-96.6-13.8-.9-4.8 0-7.3.6-7.2 33.6 12.8 68.3 19.2 97.4 13.6.4 2.9 0 5-1.4 7.4z"/>
        <path fill="#fca" fill-rule="evenodd" d="M31.7 44.1c-2.1 8.3-5 16.3-5 25.2 67.7 3.8 135.7 3.7 204-2.3l-4.2-23zm205.6 159.4c-15.8 17.3-85 21.4-100 18.7-1-4.3-.8-9.5-.2-9.5 47 3.8 78.8-6.8 99.4-16.6 1.2 2.6 1.4 4.7.8 7.4z"/>
        <path fill="none" stroke-width=".3" d="M122.6 193.8c1-10.2 3.6-19.7 2.3-31"/>
        <path fill="#fca" fill-rule="evenodd" stroke-width=".9" d="M1145.1 441.3c10.4 49.6 13.2 84.7-7 95.8.2 1 .6 2.9.9 3.7 35-13.7 16-70.6 15.4-97.3-11.8-.1-9.3-2.4-9.3-2.2z" transform="matrix(1.0027 0 0 .88077 -1054.5 -317.5)"/>
    </g>
</svg>
