<?xml version="1.0" encoding="UTF-8"?>
<svg cursor="default" version="1.1" viewBox="0 0 256 256" xmlns="http://www.w3.org/2000/svg" xmlns:cc="http://creativecommons.org/ns#" xmlns:dc="http://purl.org/dc/elements/1.1/" xmlns:rdf="http://www.w3.org/1999/02/22-rdf-syntax-ns#">
 <metadata>
  <rdf:RDF>
   <cc:Work rdf:about="">
    <dc:format>image/svg+xml</dc:format>
    <dc:type rdf:resource="http://purl.org/dc/dcmitype/StillImage"/>
    <dc:title/>
   </cc:Work>
  </rdf:RDF>
 </metadata>
 <g stroke-linecap="round" stroke-linejoin="round" stroke-miterlimit="0">
  <g fill="none">
   <path d="m133.69 150.24-2.7797 1.4915s-2.2373 0.88135-1.8983 6.4407c0.33898 5.5593 9.5443 15.82 9.5443 15.82" stroke="#000000" stroke-dasharray="3.3, 3.3" stroke-width="3.3"/>
   <path d="m133.69 150.24-2.7797 1.4915s-2.2373 0.88135-1.8983 6.4407c0.33898 5.5593 9.5443 15.82 9.5443 15.82" stroke="#ffccaa" stroke-dasharray="1.562, 1.56200000000000006" stroke-width="1.562"/>
   <path d="m138.6 155.27c-224.14-25.08-87.209-34.864-31.398-75.387 17.964-13.044-77.973-24.802 26.446-62.128" stroke="#000" stroke-dasharray="3.3,3.3" stroke-width="3.3"/>
   <path d="m139.55 155.38c-224.74-25.2-88.537-35.045-32.347-75.492 18.018-12.97-77.973-24.802 26.446-62.128" stroke="#ffccaa" stroke-dasharray="1.65,1.65" stroke-width="1.65"/>
   <path d="m141.1 155.64c169.62-12.184 55.644-60.923 69.816-85.208 25.475-43.656-7.15-65.884-77.337-53.492" stroke="#000" stroke-dasharray="3.3,3.3" stroke-width="3.3"/>
   <path d="m141.1 155.64c169.62-12.184 55.644-60.923 69.816-85.208 25.475-43.656-7.15-65.884-77.337-53.492" stroke="#ffccaa" stroke-dasharray="1.562, 1.56200000000000006" stroke-width="1.562"/>
  </g>
  <ellipse transform="matrix(.9545 -.29818 .22243 .97495 0 0)" cx="124.08" cy="57.128" rx="4.49" ry="2.002" fill="#ffb380" stroke="#000" stroke-dasharray="1.60270768,1.60270768" stroke-width="1.603" paint-order="stroke fill markers"/>
  <ellipse transform="matrix(.99988 -.01567 -.03318 .99945 0 0)" cx="137.45" cy="19.297" rx="4.366" ry="1.885" fill="#ffccaa" stroke="#000" stroke-dasharray="1.53363891,1.53363891" stroke-width="1.534" paint-order="stroke fill markers"/>
 </g>
 <g transform="translate(0 -.57527)" stroke="#000000">
  <path d="m127.31 171.56c1.405-3.9853 12.1-3.6953 16.7-2.0983 5.0841 1.7662 13.805 8.0019 12.35 12.189l-16.746 48.207c-1.3112 3.7772-11.761 2.5189-16.694 0.80332-4.8253-1.6756-13.88-7.2881-12.58-10.972z" fill="none" stroke-width=".7149"/>
  <ellipse transform="rotate(19.156)" cx="191.57" cy="119.76" rx="4.8091" ry="4.3282" fill="none" stroke-linecap="square" stroke-width=".7149"/>
  <path d="m121.65 229.81c-0.15204-0.0679-0.63403-0.30408-1.0718-0.51003-2.9868-1.4104-6.1009-3.4872-7.8876-5.262-1.3381-1.3317-1.9991-2.3938-2.0972-3.375l-0.0518-0.51866 8.4332-23.967c4.6388-13.184 8.5432-24.223 8.6758-24.533 0.32564-0.7548 0.79038-1.2034 1.7802-1.7145 2.7874-1.4395 8.6748-1.6433 13.408-0.46366 2.8531 0.71167 7.0433 3.1367 9.9072 5.7343 1.9021 1.7252 3.1701 3.5907 3.402 5.0011l0.0863 0.53914-8.568 24.738-8.5702 24.739-0.31162 0.31594c-0.43886 0.44533-1.6293 0.98123-2.6192 1.1764-3.1313 0.62541-8.5637 0.0787-12.7-1.2637-0.84537-0.27604-1.6627-0.56071-1.8169-0.63296zm19.699-49.148c2.7054 0.34181 5.193-1.5193 5.3936-4.0328 0.0981-1.2432-0.39572-2.603-1.2918-3.5508-0.78714-0.83027-1.3069-1.1451-2.5038-1.5128-0.88095-0.26957-1.0966-0.30407-1.7684-0.27819-3.5378 0.14017-5.6254 3.4828-4.0565 6.4956 0.82704 1.5883 2.3808 2.6472 4.2269 2.879z" fill="#ff8080" stroke-linecap="square" stroke-width=".43131"/>
 </g>
 <g transform="translate(0 -.57527)" fill="none">
  <path d="m146.49 188.09-13.772 39.647m5.8712-42.482-13.772 39.646m6.3921-42.118-13.772 39.645" stroke="#ffd42a" stroke-width="3.0192"/>
  <path d="m155.8 171.42c-1.405-3.9853-12.1-3.6953-16.7-2.0983-5.0841 1.7662-13.805 8.0008-12.35 12.19l16.746 48.209c1.3112 3.7729 11.761 2.5146 16.694 0.80224 4.8253-1.6767 13.88-7.2892 12.58-10.973z" stroke="#000000" stroke-width=".7149"/>
  <ellipse transform="matrix(-.94463 .32814 .32814 .94463 0 0)" cx="-75.912" cy="212.53" rx="4.8091" ry="4.3282" stroke="#000000" stroke-linecap="square" stroke-width=".7149"/>
 </g>
 <path d="m161.46 229.09c0.15312-0.0679 0.63619-0.30192 1.0729-0.50895 2.9868-1.4093 6.0998-3.4872 7.8876-5.2642 1.3382-1.3317 1.9991-2.3938 2.0973-3.3729l0.0507-0.51866-8.4322-23.969c-4.6388-13.182-8.5432-24.221-8.6769-24.531-0.32457-0.75588-0.79038-1.2044-1.7792-1.7156-2.7874-1.4395-8.6748-1.6433-13.408-0.46366-2.8531 0.71167-7.0444 3.1367-9.9072 5.7343-1.9021 1.7252-3.1712 3.5907-3.402 5.0011l-0.0873 0.54022 8.5691 24.739 8.5691 24.736 0.3127 0.31594c0.43886 0.44533 1.6293 0.98016 2.6181 1.1786 3.1324 0.62325 8.5648 0.0787 12.7-1.2659 0.84645-0.27604 1.6638-0.56071 1.818-0.6308zm-19.698-49.148c-2.7054 0.34289-5.193-1.5182-5.3936-4.0328-0.0981-1.2433 0.39573-2.603 1.2929-3.5508 0.78499-0.83027 1.3047-1.1451 2.5016-1.5128 0.88204-0.26957 1.0977-0.30408 1.7684-0.2782 3.5389 0.14018 5.6265 3.4828 4.0586 6.4956-0.82812 1.5872-2.3819 2.6461-4.2269 2.879z" fill="#ff8080" stroke="#000000" stroke-linecap="square" stroke-width=".43131"/>
 <g fill="none">
  <path d="m136.62 187.95 13.772 39.646m-5.8712-42.483 13.772 39.645m-6.392-42.117 13.772 39.645" stroke="#ffd42a" stroke-width="3.0192"/>
  <path d="m145.08 148.07 2.7797 1.4915s2.2373 0.88135 1.8983 6.4407c-0.33898 5.5593-6.7119 16.542-6.7119 16.542l-4.4896 1.447" stroke="#000000" stroke-dasharray="3.3, 3.3" stroke-linecap="round" stroke-linejoin="round" stroke-miterlimit="0" stroke-width="3.3"/>
  <path d="m145.08 148.07 2.7797 1.4915s2.2373 0.88135 1.8983 6.4407c-0.33898 5.5593-6.7119 16.542-6.7119 16.542l-4.4896 1.447" stroke="#ffccaa" stroke-dasharray="1.562, 1.56200000000000006" stroke-linecap="round" stroke-linejoin="round" stroke-miterlimit="0" stroke-width="1.562"/>
 </g>
 <ellipse transform="matrix(.95451 -.29818 .22243 .97495 0 0)" cx="100.32" cy="183.61" rx="4.49" ry="2.002" fill="#ffb380" stroke="#000000" stroke-dasharray="1.60270134, 1.60270134000000009" stroke-linecap="round" stroke-linejoin="round" stroke-miterlimit="0" stroke-width="1.603" style="paint-order:stroke fill markers"/>
 <ellipse transform="matrix(.99988 -.01567 -.03318 .99945 0 0)" cx="147.24" cy="149.92" rx="4.366" ry="1.885" fill="#ffccaa" stroke="#000000" stroke-dasharray="1.53364151, 1.53364151000000004" stroke-linecap="round" stroke-linejoin="round" stroke-miterlimit="0" stroke-width="1.534" style="paint-order:stroke fill markers"/>
</svg>
