<svg xmlns="http://www.w3.org/2000/svg" xmlns:xlink="http://www.w3.org/1999/xlink" viewBox="0 0 256 256">
    <defs>
        <linearGradient id="innoGrad5">
            <stop offset="0" stop-color="#ff2a2a" stop-opacity="0"/>
            <stop offset="1" stop-color="#ff2a2a" stop-opacity=".251"/>
        </linearGradient>
        <linearGradient id="innoGrad6">
            <stop offset="0" stop-color="#ff2a2a" stop-opacity=".251"/>
            <stop offset="1" stop-color="#ff2a2a" stop-opacity="0"/>
        </linearGradient>
        <linearGradient id="innoGrad4">
            <stop offset="0" stop-color="#ff7f2a"/>
            <stop offset="1" stop-color="#ff7f2a" stop-opacity="0"/>
        </linearGradient>
        <linearGradient id="innoGrad3">
            <stop offset="0" stop-color="#ff2a2a"/>
            <stop offset="1" stop-color="#ff2a2a" stop-opacity="0"/>
        </linearGradient>
        <linearGradient id="innoGrad2">
            <stop offset="0" stop-color="#ff7f2a" stop-opacity="0"/>
            <stop offset="1" stop-color="#ff7f2a"/>
        </linearGradient>
        <linearGradient id="innoGrad1">
            <stop offset="0" stop-color="#ff2a2a" stop-opacity="0"/>
            <stop offset="1" stop-color="#ff2a2a"/>
        </linearGradient>
        <linearGradient id="linearGradient891" x1="182.174" x2="207.08" y1="123.539" y2="123.539" gradientUnits="userSpaceOnUse" xlink:href="#innoGrad1"/>
        <linearGradient id="linearGradient914" x1="159.238" x2="196.773" y1="48.4" y2="48.4" gradientUnits="userSpaceOnUse" xlink:href="#innoGrad1"/>
        <linearGradient id="linearGradient937" x1="131.942" x2="203.422" y1="120.282" y2="120.282" gradientUnits="userSpaceOnUse" xlink:href="#innoGrad2"/>
        <linearGradient id="linearGradient960" x1="48.919" x2="73.809" y1="123.539" y2="123.539" gradientUnits="userSpaceOnUse" xlink:href="#innoGrad3"/>
        <linearGradient id="linearGradient991" x1="59.223" x2="96.759" y1="48.401" y2="48.401" gradientUnits="userSpaceOnUse" xlink:href="#innoGrad3"/>
        <linearGradient id="linearGradient1014" x1="52.573" x2="124.058" y1="120.282" y2="120.282" gradientUnits="userSpaceOnUse" xlink:href="#innoGrad4"/>
        <linearGradient id="linearGradient1045" x1="60.624" x2="118.881" y1="180.68" y2="180.68" gradientUnits="userSpaceOnUse" xlink:href="#innoGrad6"/>
        <linearGradient id="linearGradient1074" x1="61.946" x2="118.881" y1="185.718" y2="185.718" gradientUnits="userSpaceOnUse" xlink:href="#innoGrad6"/>
        <linearGradient id="linearGradient1097" x1="137.839" x2="196.096" y1="180.68" y2="180.68" gradientUnits="userSpaceOnUse" xlink:href="#innoGrad5"/>
        <linearGradient id="linearGradient1137" x1="137.839" x2="194.774" y1="185.718" y2="185.718" gradientUnits="userSpaceOnUse" xlink:href="#innoGrad5"/>
        <linearGradient id="linearGradient1160" x1="53.676" x2="105.387" y1="13.8" y2="13.8" gradientUnits="userSpaceOnUse" xlink:href="#innoGrad3"/>
        <linearGradient id="linearGradient1183" x1="150.609" x2="202.323" y1="13.8" y2="13.8" gradientUnits="userSpaceOnUse" xlink:href="#innoGrad1"/>
    </defs>
    <g fill="#ff2a2a" stroke="#000" stroke-miterlimit="10" stroke-width="2">
        <path d="M94.401 19.727s8.355 11.397 32.715 11.659c24.356.265 37.008-10.448 37.008-10.448l-35.742 92.417zM57.45 39.78s.458 30.62-1.799 53.523c-1.86 18.862-6.642 30.374-5.918 30.698 2.1.943 11.327-27.659 11.327-27.659zM198.548 39.78s-.457 30.62 1.797 53.523c1.86 18.862 6.645 30.374 5.922 30.698-2.102.943-11.332-27.659-11.332-27.659z"/>
    </g>
    <g stroke="#000" stroke-miterlimit="10">
        <path fill="#f55" d="M121.165 80.185h13.923v162.708h-13.923z"/>
        <path fill="#fd5" d="M123.567 237.612h3.04v6.078h-3.04zM130.604 238.092h3.042v5.599h-3.042zM127.724 80.185l.377-7.203 2.42.514-.718 6.689zM123.556 80.185l-1.402-5.96 2.159-.729 1.651 6.689z"/>
        <path fill="#ffe680" d="M125.417 81.063h2.709s1.974 8.4 2.069 17.2c.032 3.861.42 32.762.412 62.894-.004 15.673.873 35.436.721 49.1-.229 19.963-.878 30.995-.878 30.995h-3.525s.431-8.315.48-21.559c.032-7.794-.284-17.607-.318-27.596-.038-10.4-.426-21.646-.455-32.396-.092-29.167-.144-55.857-.062-59.679.198-8.879-1.153-18.959-1.153-18.959z"/>
        <path fill="#fd5" d="M126.204 241.251h4.4v3.959h-4.4z"/>
        <path fill="none" stroke-linejoin="bevel" stroke-width=".5" d="M129.769 91.303l-3.199.961 3.371.796-3.431 1.117 3.553.639-3.493 1.498 3.594.587-3.579.402 3.61.96-3.612 1.039 3.612.56-3.685 1.28 3.685.8-3.685 1.2 3.685.8-3.685.88 3.685.64-3.685 1.12 3.685.56-3.685 1.36 3.685.879-3.685.96 3.825.799-3.825 1.042 3.843.72-3.843.88 3.862 1.04-3.862.4 3.881 1.44-3.881.639 3.896 1.041-3.872.8 3.89 1.121-3.889.8 3.889 1.52-3.886.319 3.919 1.202-3.916.718 3.921.882-3.919.638 3.919 1.039-3.952.962 3.977.96-3.977.959 3.993 1.201-3.993.96 4.006 1.041-3.955.958 3.965.799-3.961.88 3.973 1.042-3.967 1.441 3.967 1.038-3.961 1.198 3.961 1.043-3.956.879 3.986.401-3.982 1.041 3.982.96-3.978.72 3.978 1.438-3.643.558 3.643 1.121-3.967.641 3.967.959-4.058 1.199 4.058.961-3.955 1.041 3.955 1.118-4.058.401 4.058 1.201-3.943.959 3.943.879-3.938.722 3.938.959-3.564.802 3.603.333-3.958 1.426 3.962.48-3.948 1.362 3.964.957-3.938 1.04 4.315.4-4.295.961 3.953.717-3.929.727 3.956 1.115-3.92.881 3.939.796-3.906 1.202 4.202.721-4.17.883 3.948.954-3.913.805 3.951.957-3.91 1.362 3.959.795-3.922 1.122 4.057 1.199-4.026.481 3.983 1.434-3.954.571 3.997 1.201-3.966.872 3.966 1.6-3.935 1.202 3.935.879-3.922.8 4.066.797-4.058.882 4.058 1.121-4.045.876 4.127 1.523-4.108.718 4.108 1.2-4.087.56 4.087 1.361-4.049 1.197 4.049.642-4.016 1.357 4.134.962-4.111.479 4.109 1.041-4.085.479 4.086 1.203-4.054.64 4.046.959-4.014.879 3.999.64-3.975.88 3.949 1.123-3.926.958 3.9.721-3.881 1.037 3.85.881-3.838.8 3.812.644-3.809 1.674 3.754 1.439-3.764.642 3.719 1.278-3.738.96 3.7.561-3.716.878 3.675.643-3.691.878 3.635 1.044-3.67 1.033 3.294 1.204-3.334.719 3.334 1.521h-3.367l3.367 1.76-3.432.686 3.554.586-3.604 1.054 3.482.552-3.528.882 3.497 1.132-3.572.861"/>
        <path fill="#ffe680" d="M126.867 77.637l.481-1.053h2.847l-.507 6.279h-4.442l-2.039-6.279h1.618l.513 1.053z"/>
        <path fill="#ffe680" d="M126.204 82.502l-.787-4.54 1.748.282.559 4.258z"/>
        <path fill="#ffe680" d="M124.647 79.724h1.073l.243 4.519c0 1.02 2.194.705 2.137 0l-.352-4.519h1.098s1.019 10.518.663 10.758c-.365.24-3.8.36-4.093-.36-.288-.719-.769-10.398-.769-10.398zm1.317 10.038c.183.66 2.522.54 2.883.24.36-.299-.303-3.958-.303-3.958-.122-.73-2.58-.9-2.58 0z"/>
    </g>
    <g>
        <path fill="#ff8080" d="M130.523 65.824c.183-.893 4.158-.709 9.118-5.279 5.181-4.771 10.879-10.425 13.081-16.799 4.902-14.15-2.28-27.6 26.401-24.238 5.096.598 9.592 5.486 13.676 10.2 2.118 2.444 4.961 3.425 6.002 6.717 2.037 6.48-2.47 34.798-2.519 48.358-.124 29.758 9.956 37.677 10.798 38.756.239 1.68-2.277 2.461-2.879 3.841-1.912 4.35-4.303 12.989-5.524 25.677-.687 7.132.819 18.479.479 26.397-.264 6.261-1.894 13.114-2.157 18.84-.403 8.708.725 16.361.719 22.199-.006 7.398 0 9.479-1.079 11.878-.431.96.903 5.199-11.28 8.639-4.274 1.207-10.699 1.606-16.075 2.64-6.072 1.168-11.019 3.009-16.562 3.842-6.567.985-10.483.28-14.157 0-2.211-.169-5.044.239-5.761-.121-.299-.149 1.412-31.585.236-68.035-1.082-33.672.026-71.722-1.316-93.953-.395-6.574-.065-12.177-.115-15.598-.041-2.368-1.145-3.686-1.086-3.961z"/>
        <path fill="url(#linearGradient891)" stroke="#000" stroke-miterlimit="10" d="M130.523 65.824c.183-.893 4.158-.709 9.118-5.279 5.181-4.771 10.879-10.425 13.081-16.799 4.902-14.15-2.28-27.6 26.401-24.238 5.096.598 9.592 5.486 13.676 10.2 2.118 2.444 4.961 3.425 6.002 6.717 2.037 6.48-2.47 34.798-2.519 48.358-.124 29.758 9.956 37.677 10.798 38.756.239 1.68-2.277 2.461-2.879 3.841-1.912 4.35-4.303 12.989-5.524 25.677-.687 7.132.819 18.479.479 26.397-.264 6.261-1.894 13.114-2.157 18.84-.403 8.708.725 16.361.719 22.199-.006 7.398 0 9.479-1.079 11.878-.431.96.903 5.199-11.28 8.639-4.274 1.207-10.699 1.606-16.075 2.64-6.072 1.168-11.019 3.009-16.562 3.842-6.567.985-10.483.28-14.157 0-2.211-.169-5.044.239-5.761-.121-.299-.149 1.412-31.585.236-68.035-1.082-33.672.026-71.722-1.316-93.953-.395-6.574-.065-12.177-.115-15.598-.041-2.368-1.145-3.686-1.086-3.961z"/>
        <path fill="none" stroke="#000" stroke-miterlimit="10" stroke-width=".5" d="M131.609 69.785s12.331-3.461 21.955-17.161c2.457-3.505 4.456-8.133 5.16-13.317 1.174-8.641-.721-18.242 14.635-18.241 2.949 0 1.932 3.779 5.284 4.443 25.559 5.039 17.317 16.73 16.291 31.538-1.017 14.81-1.724 31.536-1.532 42.375.117 6.719 10.8 27.958 10.8 27.958"/>
        <path fill="#ff8080" d="M189.649 82.806s3.989-34.434 5.285-51.107c.365-4.617 1.666-8.278 1.229-8.98 0 0-32.883-11.013-36.123-8.491-1.33 1.036 2.139 4.492 2.628 9.953.697 7.811-.073 8.258-.073 8.258s7.27-1.442 13.976-.934c8.148.624 16.021 3.314 16.11 4.561l-5.664 45.957z"/>
        <path fill="url(#linearGradient914)" stroke="#000" stroke-miterlimit="10" d="M189.649 82.806s3.989-34.434 5.285-51.107c.365-4.617 1.666-8.278 1.229-8.98 0 0-32.883-11.013-36.123-8.491-1.33 1.036 2.139 4.492 2.628 9.953.697 7.811-.073 8.258-.073 8.258s7.27-1.442 13.976-.934c8.148.624 16.021 3.314 16.11 4.561l-5.664 45.957z"/>
        <path fill="#f55" stroke="#000" stroke-miterlimit="10" stroke-width=".5" d="M159.22 34.148s3.778-1.595 8.686-1.563c9.165.065 23.309 1.456 23.938 3.72.957 3.482-6.964 45.357-5.763 47.278 1.201 1.919 7.171 4.322 7.171 4.322l.286-3.001-5.177-2.762 6.574-46.584s-1.743-3.89-18.329-5.25c-16.594-1.365-17.099 1.24-17.099 1.24z"/>
        <path fill="#ffb380" d="M132.443 115.14s27.592-.583 41.28-1.319c13.683-.737 23.323-2.158 23.323-2.158l5.645 12.633s-15.538 1.98-32.206 3.084c-16.67 1.102-38 1.56-38 1.56z"/>
        <path fill="url(#linearGradient937)" stroke="#000" stroke-miterlimit="10" d="M132.443 115.14s27.592-.583 41.28-1.319c13.683-.737 23.323-2.158 23.323-2.158l5.645 12.633s-15.538 1.98-32.206 3.084c-16.67 1.102-38 1.56-38 1.56z"/>
        <path fill="none" stroke="#000" stroke-miterlimit="10" stroke-width=".5" d="M132.431 113.22s23.406-.558 41.293-1.556c17.885-.999 22.533-2.008 22.533-2.008M133.166 130.621s36.152.018 52.674-1.68c16.531-1.696 17.154-4.02 17.154-4.02"/>
        <path fill="#faa" stroke="#000" stroke-miterlimit="10" d="M166.161 50.945l12.242 2.761s2.811 1.659 2.401 5.16l-1.44 12.238s-1.441 4.56-10.08 3.121c-8.638-1.441-9.118-7.082-9.118-7.082l1.557-12.957c.84-3.96 4.438-3.241 4.438-3.241z"/>
        <path fill="none" stroke="#000" stroke-miterlimit="10" stroke-width=".5" d="M166.507 51.987l11.172 2.519s2.566 1.513 2.194 4.711l-1.321 11.173s-1.311 4.163-9.198 2.848c-7.891-1.315-8.327-6.463-8.327-6.463l1.425-11.831c.769-3.616 4.055-2.957 4.055-2.957z"/>
        <path fill="#faa" stroke="#000" stroke-miterlimit="10" d="M164.605 62.718l-.481 4.906s1.15 2.15 6.053 3.121c4.902.97 6.055-.719 6.055-.719l.34-4.414-10.045-1.707.596-10.319H166.1z"/>
        <path fill="none" stroke="#000" stroke-miterlimit="10" stroke-width=".5" d="M172.762 63.185c0 1.126-.772 2.041-1.724 2.041-.95 0-1.713-.915-1.713-2.041s.763-2.041 1.713-2.041c.951 0 1.724.915 1.724 2.041z"/>
        <path fill="none" stroke="#000" stroke-miterlimit="10" stroke-width=".5" d="M171.801 63.144c0 .574-.327 1.04-.729 1.04-.399 0-.729-.466-.729-1.04 0-.575.329-1.041.729-1.041.402.001.729.466.729 1.041z"/>
        <path fill="#faa" stroke="#000" stroke-miterlimit="10" d="M166.526 53.585l-1.638 11.973c-.313 2.237 11.343 5.306 11.343 3.146l1.367-12.6-.91-.239-.457 4.38-2.748 1.104s1.192 3.691-2.244 3.216c-3.334-.461-2.429-4.319-2.429-4.319l-1.448-2.701.543-3.958h-1.379z"/>
        <path fill="#f55" stroke="#000" stroke-miterlimit="10" d="M198.278 16.588s.32 4.32-8.795 3.017c-9.117-1.302-22.479-8.939-22.479-8.939l-7.246 4.458s25.705 7.734 34.521 8.662c8.819.928 7.52-4.239 7.52-4.239z"/>
        <path fill="#f55" stroke="#000" stroke-miterlimit="10" d="M184.599 23.226c.081.643 4.405 1.682 4.959 1.28.563-.398.482-1.866.323-3.439-.105-.99-.81-1.866-.961-2.081-.396-.559-4.001-1.806-4.8-1.702-.368.045.617.973.8 2.322.217 1.581-.399 2.98-.321 3.62zM168.28 18.426c.073.658 4.375 1.646 4.962 1.179.582-.467-.862-7.021-.862-7.021l-4.1-.729s.536 2.099.53 3.937c-.003 1.245-.559 2.366-.53 2.634z"/>
        <path fill="#ff8080" d="M158.525 14.268l-6.965-3.842s1.668-1.144 9.466-1.839c10.783-.962 28.894-.974 33.173 1.76 5.363 3.421 5.02 5.448 6.081 7.04 1.06 1.588 1.678 1.919 1.519 2.158-.32.479.563-2.08-10.8-4.159-10.878-1.992-32.474-1.118-32.474-1.118z"/>
        <path fill="url(#linearGradient1183)" stroke="#000" stroke-miterlimit="10" d="M158.525 14.268l-6.965-3.842s1.668-1.144 9.466-1.839c10.783-.962 28.894-.974 33.173 1.76 5.363 3.421 5.02 5.448 6.081 7.04 1.06 1.588 1.678 1.919 1.519 2.158-.32.479.563-2.08-10.8-4.159-10.878-1.992-32.474-1.118-32.474-1.118z"/>
        <path fill="#ffe680" stroke="#000" stroke-miterlimit="10" d="M164.253 11.092c-.072.61-1.616.92-3.433.686-1.815-.233-3.227-.92-3.154-1.535.082-.614 1.619-.92 3.441-.687 1.817.236 3.228.922 3.146 1.536z"/>
        <path fill="#ff8080" d="M121.674 66.424c-.183-.892-.356-1.309-5.322-5.879-5.176-4.771-10.874-10.425-13.078-16.799-4.896-14.15 2.281-27.6-26.399-24.238-5.097.598-9.593 5.486-13.678 10.2-2.119 2.444-4.962 3.425-6 6.717-2.039 6.48 2.465 34.798 2.521 48.358.12 29.758-9.959 37.677-10.799 38.756-.24 1.68 2.274 2.461 2.878 3.841 1.911 4.35 4.3 12.989 5.52 25.677.687 7.132-.815 18.479-.479 26.397.266 6.261 1.434 35.201 1.44 41.039.008 7.398.176 17.077 12.36 20.517 4.273 1.207 27.095 5.648 32.637 6.481 6.571.985 10.484.28 14.158 0 2.206-.169 5.04.239 5.761-.121.3-.149-1.416-31.585-.24-68.035 1.087-33.672-.026-71.722 1.321-93.953.395-6.574-2.179-12.522-2.12-15.942.04-2.368-.424-2.74-.481-3.016z"/>
        <path fill="url(#linearGradient960)" stroke="#000" stroke-miterlimit="10" d="M121.674 66.424c-.183-.892-.356-1.309-5.322-5.879-5.176-4.771-10.874-10.425-13.078-16.799-4.896-14.15 2.281-27.6-26.399-24.238-5.097.598-9.593 5.486-13.678 10.2-2.119 2.444-4.962 3.425-6 6.717-2.039 6.48 2.465 34.798 2.521 48.358.12 29.758-9.959 37.677-10.799 38.756-.24 1.68 2.274 2.461 2.878 3.841 1.911 4.35 4.3 12.989 5.52 25.677.687 7.132-.815 18.479-.479 26.397.266 6.261 1.434 35.201 1.44 41.039.008 7.398.176 17.077 12.36 20.517 4.273 1.207 27.095 5.648 32.637 6.481 6.571.985 10.484.28 14.158 0 2.206-.169 5.04.239 5.761-.121.3-.149-1.416-31.585-.24-68.035 1.087-33.672-.026-71.722 1.321-93.953.395-6.574-2.179-12.522-2.12-15.942.04-2.368-.424-2.74-.481-3.016z"/>
        <path fill="none" stroke="#000" stroke-miterlimit="10" stroke-width=".5" d="M122.154 69.44s-10.096-3.117-19.721-16.816c-2.461-3.505-4.456-8.133-5.16-13.317-1.174-8.641.721-18.242-14.639-18.241-2.945 0-1.929 3.779-5.28 4.443C51.797 30.548 60.037 42.24 61.06 57.047c1.025 14.81 1.732 31.536 1.537 42.375-.12 6.719-10.799 27.958-10.799 27.958"/>
        <path fill="#ff8080" d="M66.349 82.806s-3.989-34.434-5.29-51.107c-.36-4.617-1.664-8.278-1.226-8.98 0 0 32.881-11.013 36.122-8.491 1.333 1.036-2.136 4.492-2.625 9.953-.697 7.811.068 8.258.068 8.258s-7.27-1.442-13.968-.934c-8.152.624-16.027 3.314-16.113 4.561l5.663 45.957z"/>
        <path fill="url(#linearGradient991)" stroke="#000" stroke-miterlimit="10" d="M66.349 82.806s-3.989-34.434-5.29-51.107c-.36-4.617-1.664-8.278-1.226-8.98 0 0 32.881-11.013 36.122-8.491 1.333 1.036-2.136 4.492-2.625 9.953-.697 7.811.068 8.258.068 8.258s-7.27-1.442-13.968-.934c-8.152.624-16.027 3.314-16.113 4.561l5.663 45.957z"/>
        <path fill="#f55" stroke="#000" stroke-miterlimit="10" stroke-width=".5" d="M96.78 34.148s-3.774-1.595-8.684-1.563c-9.163.065-23.313 1.456-23.938 3.72-.961 3.482 6.959 45.357 5.76 47.278-1.201 1.919-7.168 4.322-7.168 4.322l-.292-3.001 5.178-2.762-6.576-46.584s1.749-3.89 18.338-5.25c16.584-1.365 17.098 1.24 17.098 1.24z"/>
        <path fill="#ffb380" d="M123.556 115.14s-27.596-.583-41.281-1.319c-13.684-.737-23.328-2.158-23.328-2.158l-5.643 12.633s15.543 1.98 32.212 3.084c16.666 1.102 37.997 1.56 37.997 1.56z"/>
        <path fill="url(#linearGradient1014)" stroke="#000" stroke-miterlimit="10" d="M123.556 115.14s-27.596-.583-41.281-1.319c-13.684-.737-23.328-2.158-23.328-2.158l-5.643 12.633s15.543 1.98 32.212 3.084c16.666 1.102 37.997 1.56 37.997 1.56z"/>
        <path fill="none" stroke="#000" stroke-miterlimit="10" stroke-width=".5" d="M123.568 113.22s-23.407-.558-41.293-1.556c-17.881-.999-22.53-2.008-22.53-2.008M122.833 130.621s-36.149.018-52.676-1.68c-16.526-1.696-17.153-4.02-17.153-4.02"/>
        <path fill="#faa" stroke="#000" stroke-miterlimit="10" d="M89.837 50.945l-12.241 2.761s-2.812 1.659-2.399 5.16l1.439 12.238s1.44 4.56 10.079 3.121c8.641-1.441 9.12-7.082 9.12-7.082l-1.559-12.957c-.84-3.96-4.439-3.241-4.439-3.241z"/>
        <path fill="none" stroke="#000" stroke-miterlimit="10" stroke-width=".5" d="M89.495 51.987L78.32 54.506s-2.566 1.513-2.19 4.711l1.314 11.173s1.313 4.163 9.202 2.848c7.888-1.315 8.325-6.463 8.325-6.463l-1.424-11.831c-.765-3.616-4.052-2.957-4.052-2.957z"/>
        <path fill="#faa" stroke="#000" stroke-miterlimit="10" d="M91.395 62.718l.48 4.906s-1.151 2.15-6.053 3.121c-4.902.97-6.055-.719-6.055-.719l-.336-4.414 10.046-1.707-.601-10.319h1.019z"/>
        <ellipse cx="84.957" cy="63.185" fill="none" stroke="#000" stroke-miterlimit="10" stroke-width=".5" rx="1.72" ry="2.041"/>
        <ellipse cx="84.925" cy="63.144" fill="none" stroke="#000" stroke-miterlimit="10" stroke-width=".5" rx=".727" ry="1.04"/>
        <path fill="#faa" stroke="#000" stroke-miterlimit="10" d="M89.477 53.585l1.638 11.973c.309 2.237-11.348 5.306-11.348 3.146l-1.371-12.6.913-.239.458 4.38 2.749 1.104s-1.191 3.691 2.243 3.216c3.338-.461 2.429-4.319 2.429-4.319l1.448-2.701-.54-3.958h1.381z"/>
        <path fill="#f55" stroke="#000" stroke-miterlimit="10" d="M57.72 16.588s-.317 4.32 8.799 3.017c9.115-1.302 22.479-8.939 22.479-8.939l7.241 4.458s-25.701 7.734-34.52 8.662c-8.819.928-7.519-4.241-7.519-4.241z"/>
        <path fill="#f55" stroke="#000" stroke-miterlimit="10" d="M71.398 23.226c-.079.643-4.4 1.682-4.96 1.28-.561-.398-.482-1.866-.32-3.439.102-.99.806-1.866.961-2.081.399-.559 4.001-1.806 4.8-1.702.368.045-.617.973-.8 2.322-.219 1.581.399 2.98.319 3.62zM87.718 18.426c-.072.658-4.377 1.646-4.961 1.179-.584-.467.867-7.021.867-7.021l4.094-.729s-.536 2.099-.53 3.937c.003 1.245.558 2.366.53 2.634z"/>
        <path fill="#ff8080" d="M97.476 14.268l6.959-3.842s-1.67-1.144-9.462-1.839c-10.783-.962-28.891-.974-33.173 1.76-5.359 3.421-5.019 5.448-6.08 7.04-1.061 1.588-1.681 1.919-1.52 2.158.318.479-.56-2.08 10.798-4.159 10.883-1.992 32.478-1.118 32.478-1.118z"/>
        <path fill="url(#linearGradient1160)" stroke="#000" stroke-miterlimit="10" d="M97.476 14.268l6.959-3.842s-1.67-1.144-9.462-1.839c-10.783-.962-28.891-.974-33.173 1.76-5.359 3.421-5.019 5.448-6.08 7.04-1.061 1.588-1.681 1.919-1.52 2.158.318.479-.56-2.08 10.798-4.159 10.883-1.992 32.478-1.118 32.478-1.118z"/>
        <path fill="#ffe680" stroke="#000" stroke-miterlimit="10" d="M91.743 11.092c.081.61 1.619.92 3.436.686 1.819-.233 3.23-.92 3.149-1.535-.077-.614-1.616-.92-3.433-.687-1.82.236-3.231.922-3.152 1.536z"/>
        <path fill="#ff8080" d="M138.339 163.982l55.935-5.667v44.667c0 4-55.935 12.999-55.935 9.333z"/>
        <path fill="url(#linearGradient1137)" stroke="#000" stroke-miterlimit="10" d="M138.339 163.982l55.935-5.667v44.667c0 4-55.935 12.999-55.935 9.333z"/>
        <path fill="#ff8080" d="M138.339 158.315l2 47.334 5.333 3.666 45.667-7.666 4.257-4.334v-44.666c.076-2.334-57.257 2.333-57.257 5.666z"/>
        <path fill="url(#linearGradient1097)" stroke="#000" stroke-miterlimit="10" d="M138.339 158.315l2 47.334 5.333 3.666 45.667-7.666 4.257-4.334v-44.666c.076-2.334-57.257 2.333-57.257 5.666z"/>
        <path fill="none" stroke="#000" stroke-miterlimit="10" stroke-width=".5" d="M142.339 156.634l1.667 45.681 4 2.667 41.331-6.728 3.098-2.834.264-43.356"/>
        <path fill="#ff8080" stroke="#000" stroke-miterlimit="10" d="M118.381 163.982l-55.935-5.667v44.667c0 4 55.935 12.999 55.935 9.333z"/>
        <path fill="url(#linearGradient1074)" stroke="#000" stroke-miterlimit="10" d="M118.381 163.982l-55.935-5.667v44.667c0 4 55.935 12.999 55.935 9.333z"/>
        <path fill="#ff8080" d="M118.381 158.315l-2 47.334-5.333 3.666-45.667-7.666-4.257-4.334v-44.666c-.076-2.334 57.257 2.333 57.257 5.666z"/>
        <path fill="url(#linearGradient1045)" stroke="#000" stroke-miterlimit="10" d="M118.381 158.315l-2 47.334-5.333 3.666-45.667-7.666-4.257-4.334v-44.666c-.076-2.334 57.257 2.333 57.257 5.666z"/>
        <path fill="none" stroke="#000" stroke-miterlimit="10" stroke-width=".5" d="M114.381 156.634l-1.667 45.681-4 2.667-41.331-6.728-3.098-2.834-.264-43.356"/>
    </g>
</svg>
