<?xml version="1.0" encoding="UTF-8" standalone="no"?>
<svg
   xmlns:dc="http://purl.org/dc/elements/1.1/"
   xmlns:cc="http://creativecommons.org/ns#"
   xmlns:rdf="http://www.w3.org/1999/02/22-rdf-syntax-ns#"
   xmlns:svg="http://www.w3.org/2000/svg"
   xmlns="http://www.w3.org/2000/svg"
   xmlns:xlink="http://www.w3.org/1999/xlink"
   xmlns:sodipodi="http://sodipodi.sourceforge.net/DTD/sodipodi-0.dtd"
   xmlns:inkscape="http://www.inkscape.org/namespaces/inkscape"
   viewBox="0 0 256 256"
   version="1.1"
   id="svg10"
   sodipodi:docname="snusnu_tease.svg"
   inkscape:version="1.0.1 (3bc2e813f5, 2020-09-07)">
  <metadata
     id="metadata16">
    <rdf:RDF>
      <cc:Work
         rdf:about="">
        <dc:format>image/svg+xml</dc:format>
        <dc:type
           rdf:resource="http://purl.org/dc/dcmitype/StillImage" />
        <dc:title></dc:title>
      </cc:Work>
    </rdf:RDF>
  </metadata>
  <defs
     id="defs14">
    <radialGradient
       inkscape:collect="always"
       xlink:href="#linearGradient874"
       id="radialGradient876"
       cx="127.99119"
       cy="127.97542"
       fx="127.99119"
       fy="127.97542"
       r="124.78231"
       gradientTransform="matrix(0.91918364,0,0,0.93632973,10.789014,19.299541)"
       gradientUnits="userSpaceOnUse" />
    <linearGradient
       inkscape:collect="always"
       id="linearGradient874">
      <stop
         style="stop-color:#ff2a2a;stop-opacity:1;"
         offset="0"
         id="stop870" />
      <stop
         style="stop-color:#ff2a2a;stop-opacity:0;"
         offset="1"
         id="stop872" />
    </linearGradient>
    <radialGradient
       inkscape:collect="always"
       xlink:href="#linearGradient2874"
       id="radialGradient2876"
       cx="105.15375"
       cy="138.61662"
       fx="105.15375"
       fy="138.61662"
       r="104.04958"
       gradientTransform="matrix(1.5771111,-0.24299102,0.25724539,1.6696274,-73.106026,-78.264041)"
       gradientUnits="userSpaceOnUse" />
    <linearGradient
       inkscape:collect="always"
       id="linearGradient2874">
      <stop
         style="stop-color:#040404;stop-opacity:1;"
         offset="0"
         id="stop2870" />
      <stop
         style="stop-color:#040404;stop-opacity:0;"
         offset="1"
         id="stop2872" />
    </linearGradient>
    <radialGradient
       inkscape:collect="always"
       xlink:href="#linearGradient874"
       id="radialGradient866"
       cx="70.310204"
       cy="158.39999"
       fx="70.310204"
       fy="158.39999"
       r="32.37949"
       gradientTransform="matrix(1,0,0,1.0389131,0,-6.1638336)"
       gradientUnits="userSpaceOnUse" />
  </defs>
  <sodipodi:namedview
     pagecolor="#ffffff"
     bordercolor="#666666"
     borderopacity="1"
     objecttolerance="10"
     gridtolerance="10"
     guidetolerance="10"
     inkscape:pageopacity="0"
     inkscape:pageshadow="2"
     inkscape:window-width="1315"
     inkscape:window-height="1018"
     id="namedview12"
     showgrid="false"
     inkscape:zoom="2.90625"
     inkscape:cx="128"
     inkscape:cy="128"
     inkscape:window-x="0"
     inkscape:window-y="0"
     inkscape:window-maximized="0"
     inkscape:current-layer="svg10"
     inkscape:document-rotation="0"
     inkscape:snap-global="false" />
  <ellipse
     cx="128.43643"
     cy="139.12668"
     rx="114.69788"
     ry="116.83737"
     fill="url(#radialGradient861)"
     id="ellipse21"
     style="display:inline;fill:url(#radialGradient876);fill-opacity:1;stroke-width:0.930233" />
  <path
     style="display:inline;fill:url(#radialGradient2876);fill-opacity:1;stroke:none;stroke-width:1.0864"
     d="M 95.799505,81.42551 81.777838,85.173619 66.108867,102.0624 41.479336,125.17714 14.319261,144.43691 c 8.058837,-0.0162 19.23682,0.90821 26.824914,-1.97401 4.903055,-1.86101 6.506795,-7.90249 10.422856,-11.09434 5.52588,-4.50314 13.130372,-5.66341 19.245184,-9.22031 5.267871,-3.06473 9.430965,-7.2941 14.11717,-11.10848 2.101857,-1.71109 5.071446,-4.24033 8.023407,-3.27222 5.301862,1.7404 3.931802,11.86351 3.932452,16.0277 0.001,11.61582 -1.571256,23.13712 -0.937443,34.76489 0.223344,4.09792 0.08714,9.73308 2.195723,13.38341 2.804446,4.85513 10.296586,3.98277 15.038426,3.99688 l 24.98727,0.001 c 4.61395,0.002 9.7483,-0.45522 14.09825,1.37864 6.42173,2.70731 10.13506,9.37455 13.7984,14.9174 6.9052,10.44793 13.7593,20.95238 20.50262,31.50569 3.49494,5.47004 8.32944,16.00272 15.76369,16.59265 5.65475,0.44759 11.77229,-4.72369 16.2298,-7.61568 4.10876,-2.66604 9.93405,-5.72537 12.01017,-10.42948 2.65844,-6.02302 -3.49062,-13.96574 -9.87756,-13.35732 -4.41841,0.42042 -8.25775,4.2424 -12.80654,3.66116 -3.0919,-0.39546 -5.21254,-2.94198 -6.97903,-5.27123 -7.74065,-10.20241 -14.22756,-21.72046 -21.20227,-32.46823 -3.08212,-4.74759 -8.17951,-10.51096 -8.91067,-16.29607 -0.58123,-4.59439 2.90502,-8.04914 4.66827,-11.95042 1.72521,-3.81763 1.83059,-7.89382 0.98537,-11.95045 -2.67255,-12.82824 -6.07082,-21.62051 -1.56985,-34.764017 1.11029,-3.244982 2.45634,-7.589179 5.39184,-9.679108 6.26852,-4.463054 12.18725,9.133938 14.68273,12.937435 10.52506,16.03532 23.30334,29.84784 23.60861,49.97455 l 23.90088,-2.17281 v -1.0864 c -5.18213,-2.89852 -10.62503,-5.54173 -14.67405,-10.0112 -8.21431,-9.06821 -11.63972,-24.39736 -16.18414,-35.61772 -2.63562,-6.507773 -7.88295,-14.445592 -8.39355,-21.497536 -0.44218,-6.113946 6.69005,-5.017873 10.55549,-6.603701 3.71006,-1.522485 2.78879,-4.151481 0.0652,-6.104177 -0.81913,-0.587308 -1.76107,-1.012195 -2.6204,-1.535195 -1.67197,-1.017629 -3.08864,-2.128267 -4.59982,-3.369912 11.83202,-2.2e-4 22.90136,0.920184 30.41928,-9.777626 -12.21117,-0.667916 -20.04957,4.258803 -30.30305,-5.667217 -2.44983,-2.370866 -5.56128,-5.599112 -5.00939,-9.325367 0.56926,-3.833587 4.34777,-7.558327 5.97955,-11.0811 -14.04397,0.70384 -14.59586,-10.618443 -22.28001,-19.4052671 -8.99214,-10.2821658 -26.5332,-12.8472166 -37.23102,-3.726935 -10.04597,8.5641331 -6.31853,16.9389011 -2.97784,27.4779911 1.383,4.362228 1.99029,8.914263 4.95074,12.594671 3.00173,3.73114 11.08675,6.607938 10.03946,12.428005 -1.81864,10.101712 -19.38904,8.845829 -19.6324,19.602735 -0.21728,9.597941 11.4257,15.445515 10.87273,25.984911 -0.18577,3.54755 -1.48512,9.02953 -5.94588,9.08605 -4.94422,0.0629 -10.09814,-5.08982 -13.84405,-7.78822 -6.05994,-4.36615 -16.0052,-9.949178 -15.63594,-18.651051 0.33603,-7.918675 10.0942,-12.112732 13.70759,-18.51642 9.0237,-15.991937 -2.63448,-36.351997 -20.88606,-36.7179 C 93.395434,31.33604 80.776427,45.417241 84.037381,60.782894 85.744437,68.826848 91.41971,74.743393 95.799545,81.42455 m -15.440242,47.28919 c -6.093727,1.34929 -11.680018,7.91988 -15.48081,12.47407 -13.175889,15.78436 -17.632215,36.48468 -14.271315,56.48212 7.209811,42.89878 55.084322,68.93988 95.166842,51.59979 8.95088,-3.87303 20.16908,-10.15026 24.89712,-19.10657 2.37486,-4.49988 1.18961,-14.58388 -5.57759,-14.62842 -6.78026,-0.0457 -14.50458,10.36538 -20.40592,13.54311 -17.40743,9.37565 -39.26065,6.69658 -54.299736,-5.91981 -15.284387,-12.82173 -22.87596,-33.23199 -16.419567,-52.6482 2.681571,-8.06436 8.67634,-14.66426 11.010591,-22.81446 1.19918,-4.18699 3.581976,-20.79702 -4.619615,-18.98163 m 61.069117,25.50004 c -5.48526,1.11251 -18.93927,3.65793 -23.11464,-1.2765 -3.94885,-4.66829 -1.87263,-15.80718 -1.87263,-21.53795 10.02315,4.57591 18.21462,14.31878 24.98727,22.81445 z"
     id="path2831" />
  <path
     sodipodi:type="star"
     style="display:inline;fill:url(#radialGradient866);fill-opacity:1;stroke:#ff2a2a;stroke-width:0.779857;stroke-linecap:round;stroke-miterlimit:4;stroke-dasharray:none"
     id="path862-4"
     sodipodi:sides="5"
     sodipodi:cx="67.437447"
     sodipodi:cy="157.99367"
     sodipodi:r1="35.239231"
     sodipodi:r2="4.7979603"
     sodipodi:arg1="-2.4766279"
     sodipodi:arg2="-1.3265547"
     inkscape:flatsided="false"
     inkscape:rounded="0"
     inkscape:randomized="0"
     d="m 39.706338,136.24996 28.891354,17.08815 10.94987,-28.43747 -7.323878,32.75784 30.429336,1.62628 -33.417761,3.15731 7.856493,29.44257 -13.329434,-30.80652 -25.573754,16.57022 25.179716,-22.19678 z"
     inkscape:transform-center-x="-1.094099"
     inkscape:transform-center-y="-0.29337585"
     transform="matrix(0.32458875,-1.5111409,1.5111409,0.32458875,-133.04251,193.85815)" />
</svg>
