<?xml version="1.0" encoding="UTF-8"?>
<svg cursor="default" version="1.1" viewBox="0 0 256 256" xmlns="http://www.w3.org/2000/svg" xmlns:cc="http://creativecommons.org/ns#" xmlns:dc="http://purl.org/dc/elements/1.1/" xmlns:rdf="http://www.w3.org/1999/02/22-rdf-syntax-ns#" xmlns:xlink="http://www.w3.org/1999/xlink">
 <metadata>
  <rdf:RDF>
   <cc:Work rdf:about="">
    <dc:format>image/svg+xml</dc:format>
    <dc:type rdf:resource="http://purl.org/dc/dcmitype/StillImage"/>
    <dc:title/>
   </cc:Work>
  </rdf:RDF>
 </metadata>
 <g stroke-linecap="round" stroke-linejoin="round">
  <g fill="#f55" stroke="#f55" stroke-width=".073135">
   <path d="m92.026 105.18-3.642-3.6426 0.75346-0.73395c0.65783-0.64081 3.9101-3.7229 7.6282-7.229 2.2794-2.1495 5.4024-5.0208 5.7611-5.2969 0.15869-0.12213 0.0871-0.18824 4.0551 3.7442l2.8683 2.8426-6.8528 6.9791c-3.7691 3.8385-6.87 6.9791-6.891 6.9791-0.021 0-1.6771-1.6392-3.6802-3.6426z" style="paint-order:markers fill stroke"/>
   <path d="m64.837 77.99-18.316-18.32 0.62165-0.57868 13.483-14.081 12.789 12.986 12.011 12.334c6.5633 6.7397 11.742 12.577 11.742 12.608 0 0.05018-13.116 12.582-13.764 13.151l-0.25085 0.22024z" style="paint-order:markers fill stroke"/>
   <path d="m123.63 137.19c-12.646-12.76-22.993-23.234-22.993-23.275 0-0.0416 2.6658-2.6725 5.9239-5.8463 3.2582-3.1738 6.3222-6.1634 6.809-6.6434l0.88509-0.87281 26.754 26.938c14.715 14.816 27.932 28.452 29.721 29.919 21.029 17.25 38.357 39.504 57.977 57.601l23.728 37.983c-14.251-6.4019-29.323-14.232-41.534-27.029-15.825-16.585-43.677-43.189-64.278-65.575z" style="paint-order:markers fill stroke"/>
  </g>
  <g fill="#ff7f2a" stroke="#ff7f2a">
   <path d="m25.778 63.829c-1.5398-0.49189-4.684-3.822-4.7234-4.7198-0.01898-0.43184 1.5175-0.68626 3.5251-2.1232 2.0377-1.4585 4.7088-3.4411 8.1097-7.652 6.1554-7.6213 11.295-12.756 18.474-18.059 3.4954-3.093 6.0015-5.6113 7.5436-7.5803 1.5744-2.0103 1.7711-3.941 2.2355-3.9703 1.1116-0.19229 6.9861 4.0451 6.941 5.1135-0.08234 1.9479-0.96809 0.89067-3.1849 2.7923-1.8405 1.5789-5.1121 2.4928-5.9221 4.7032-0.52686 1.4379-4.9578 6.6927-9.8336 11.285-6.5845 6.202-8.6231 8.8417-10.982 9.9313-2.3217 1.0724-3.2835 2.3565-6.1135 5.408-1.9212 2.0716-3.3986 4.7097-3.6095 5.0864-0.27144 0.48484-1.2083 0.44315-2.1441 0.1442z" stroke-width=".44127" style="paint-order:markers fill stroke"/>
   <path d="m4.738 8.0239c-1.348-1.2882-2.5181-1.8964-2.4894-3.5707l0.038754-2.2582 3.1095 0.07211c1.926 0.04467 5.7163 2.9178 5.6786 3.6234-0.0067 0.12561-1.6108 0.86982-2.681 1.8981l-2.2865 2.6209-1.37-2.3855z" stroke-width=".44127" style="paint-order:markers fill stroke"/>
   <g stroke-width=".34577">
    <path d="m41.426 57.68-2.5798-2.5972 17.324-17.324 5.2953 5.4028-8.5457 8.5577c-4.7001 4.7068-8.6285 8.5577-8.7298 8.5577-0.10127 0-1.3451-1.1687-2.764-2.5972z" style="paint-order:markers fill stroke"/>
    <path d="m243.52 238.61c-4.6943-6.6619-13.254-18.16-14.764-19.831l-1.2349-1.3669 1.3341-1.5504 1.3341-1.5504 6.9003 6.9153 5.0625 11.01c2.7844 6.0558 7.9703 16.267 7.9015 16.336-0.0688 0.0688-4.6391-7.2747-6.5335-9.9631z" style="paint-order:markers fill stroke"/>
    <path d="m231.6 242.8-11.237-5.1604-6.7681-6.729 1.5486-1.4695c0.85176-0.80823 1.6744-1.4645 1.8281-1.4584 0.1537 6e-3 2.7625 1.95 5.7974 4.3197 3.0349 2.3697 8.7141 6.6366 12.62 9.4819 9.1925 6.6956 14.201 8.8497 13.582 8.8236-0.28526-0.012-11.191-4.9697-17.371-7.8079z" style="paint-order:markers fill stroke"/>
   </g>
   <path d="m100.43 109.07-1.7928-1.6679 0.72132-0.72981 1.4937 1.4924c1.3095 1.3083 1.5221 1.4924 1.7238 1.4924 0.19949 0 0.38529-0.15477 1.3974-1.1641 0.64201-0.64024 1.1854-1.2346 1.2074-1.3208 0.0602-0.23494-0.12396-0.51947-0.70325-1.0866-0.2876-0.28157-0.91382-0.92596-1.3916-1.432l-0.86869-0.92003 0.77737-0.76772 1.73 1.8488 1.73 1.8488-2.0593 2.0148c-1.1326 1.1082-2.0848 2.0249-2.1159 2.0372-0.0312 0.0123-0.86344-0.72821-1.8495-1.6455z" stroke-width=".073135" style="paint-order:markers fill stroke"/>
   <path d="m88.049 96.749-1.9143-1.7476 0.75051-0.71594 0.51514 0.42243c0.28332 0.23233 0.97589 0.80408 1.539 1.2705 0.80826 0.6695 1.071 0.84847 1.2476 0.8498 0.2845 0.0021 0.26463 0.0194 1.4481-1.2577 0.88375-0.95366 0.99762-1.1056 0.99762-1.3309 0-0.23711-0.09403-0.33974-1.39-1.5172l-1.39-1.2629 0.41924-0.42366c0.23058-0.23301 0.44153-0.41518 0.46877-0.4048 0.02724 0.01037 0.90727 0.80041 1.9556 1.7556l1.9061 1.7368-2.1367 2.0246c-1.1752 1.1135-2.219 2.0974-2.3196 2.1865l-0.18284 0.16194z" stroke-width=".073135" style="paint-order:markers fill stroke"/>
  </g>
  <g fill="#ffd42a" stroke="#ffd42a">
   <g stroke-width=".078448">
    <path d="m42.559 36.729c0.08495-0.59588 0.16555-1.1586 0.17913-1.2505 0.02328-0.15766 0.06041-0.13305 0.65476 0.43385l0.63005 0.60099-0.8092 0.64958-0.8092 0.64957z" style="paint-order:markers fill stroke"/>
    <path d="m37.842 40.309-0.66016-0.63585 0.14193-0.75747c0.33995-1.8143 1.4305-7.2019 1.4632-7.228 0.01978-0.01581 0.70804 0.62536 1.5295 1.425l1.4937 1.4537-0.29239 2.0963-0.29238 2.0963-2.723 2.1858z" style="paint-order:markers fill stroke"/>
    <path d="m34.138 36.672-2.177-2.0765 0.61351-4.0181 0.6135-4.0181 0.36337 0.27795c0.19986 0.15287 1.2539 1.119 2.3422 2.147l1.9789 1.869-0.67067 3.3697c-0.36887 1.8533-0.71929 3.6298-0.77874 3.9476l-0.10807 0.57788z" style="paint-order:markers fill stroke"/>
    <path d="m29.435 32.173c-0.88835-0.85471-1.8559-1.8144-2.1502-2.1327l-0.53499-0.57872 0.23072-0.97842c0.1269-0.53813 0.47266-2.2185 0.76839-3.7342l0.53768-2.7558 0.86212 0.75466c0.4742 0.41503 1.374 1.2367 1.9997 1.8258l1.1375 1.0712-0.6178 4.041-0.61781 4.041z" style="paint-order:markers fill stroke"/>
    <path d="m23.868 26.768-1.9987-1.9064 0.80912-3.6502c0.44502-2.0076 0.82574-3.6488 0.84602-3.6471 0.02037 0.0017 0.89787 0.80619 1.9501 1.7877l1.9132 1.7845-0.30346 1.6172c-0.36444 1.9421-1.1136 5.6469-1.1742 5.8066-0.03712 0.09785-0.32792-0.15737-2.042-1.7923z" style="paint-order:markers fill stroke"/>
    <path d="m19.125 22.211-1.8706-1.8525 0.06811-0.45638c0.07589-0.50844 0.44943-3.9821 0.65123-6.0561l0.13097-1.346 2.275 2.1041c1.2513 1.1573 2.2609 2.1295 2.2435 2.1605-0.0173 0.03096-0.06842 0.23253-0.11352 0.44788-0.04509 0.21534-0.40424 1.8449-0.79808 3.6213l-0.71607 3.2298z" style="paint-order:markers fill stroke"/>
    <path d="m14.647 17.863-1.6858-1.6088 0.11093-0.30194c0.20616-0.56117 0.5754-3.3084 0.83339-6.2006l0.09437-1.0579 3.132 2.9227-0.06423 0.78817c-0.07138 0.87583-0.60973 6.1361-0.68621 6.7049l-0.04869 0.36213-1.6858-1.6088z" style="paint-order:markers fill stroke"/>
    <path d="m10.58 13.985-1.5748-1.502 0.10885-2.0143 0.10884-2.0143 2.3758-1.996 1.4208 1.3552-0.07334 0.99234c-0.14363 1.9432-0.49042 4.9767-0.71318 6.2383l-0.0782 0.44294z" style="paint-order:markers fill stroke"/>
    <path d="m7.4304 10.872-0.53661-0.5118 1.2071-0.96895-0.050205 0.98285c-0.027623 0.54058-0.057742 0.98891-0.066933 0.99629-0.00918 0.0073-0.25816-0.21693-0.55331-0.49841z" style="paint-order:markers fill stroke"/>
   </g>
   <g stroke-width=".073135">
    <path d="m105.9 104.49c-0.72222-0.77379-1.4998-1.6068-1.728-1.8512l-0.41483-0.44433 3.3836-3.4544c3.1713-3.2377 3.4286-3.4822 4.1021-3.897l0.71859-0.4426 3.5225 3.5302-0.71738 0.67247c-0.39456 0.36986-2.0566 1.9706-3.6933 3.5572s-3.1749 3.0764-3.4181 3.3107l-0.44212 0.42601z" style="paint-order:markers fill stroke"/>
    <path d="m101.32 107.16-1.2243-1.2258 0.67821-0.67538c0.37301-0.37147 0.69843-0.67539 0.72317-0.67539 0.0247 0 0.57362 0.55365 1.2198 1.2303l1.1748 1.2303-1.3474 1.3418z" style="paint-order:markers fill stroke"/>
    <path d="m94.9 114.56c-0.90505-0.87003-1.6455-1.6093-1.6455-1.6429 0-0.0336 1.0478-1.1122 2.3285-2.3969l2.3285-2.3359 1.782 1.6568 1.782 1.6568-0.6365 0.64541c-0.65281 0.66193-4.1564 3.9476-4.2443 3.9803-0.0269 0.01-0.78941-0.69365-1.6945-1.5637z" style="paint-order:markers fill stroke"/>
    <path d="m93.448 91.62-1.9276-1.7568 0.39176-0.38147c2.8676-2.7922 6.5109-6.1715 7.2654-6.739l0.90244-0.6787 1.3046 1.2145c0.7175 0.66798 1.5449 1.4449 1.8386 1.7264l0.53402 0.51194-0.82656 0.84811c-0.4546 0.46646-1.1228 1.1075-1.4848 1.4245s-1.7389 1.5841-3.0597 2.8157c-1.3208 1.2316-2.5385 2.3591-2.706 2.5055l-0.30448 0.26613z" style="paint-order:markers fill stroke"/>
    <path d="m88.894 94.559-1.2162-1.0178 1.3697-1.3432 0.16031 0.14035c0.69949 0.61239 2.0768 1.8819 2.0946 1.9306 0.0121 0.03321-0.25119 0.34107-0.58508 0.68412l-0.60708 0.62374z" style="paint-order:markers fill stroke"/>
    <path d="m83.838 102.66c-0.45045-0.4123-1.1593-1.0787-1.5753-1.481l-0.75632-0.73135 1.0388-1.5213c0.92523-1.355 1.1317-1.6086 1.8883-2.3193 0.46725-0.43891 0.87036-0.80746 0.8958-0.819 0.02544-0.01154 0.9052 0.76104 1.955 1.7168l1.9088 1.7378-0.84823 0.82192c-0.46653 0.45205-0.98427 0.91137-1.1505 1.0207-0.16627 0.10933-0.76306 0.67753-1.3262 1.2627s-1.066 1.0634-1.1175 1.0628c-0.05148-6e-4 -0.46216-0.33843-0.91261-0.75073z" style="paint-order:markers fill stroke"/>
   </g>
  </g>
 </g>
 <g fill="none" stroke="#000">
  <g stroke-linecap="round" stroke-linejoin="round" stroke-width=".88788px">
   <path d="m38.515 41.591-32.091-30.984-4.1262-4.1845-0.77433-4.933 6.0756 0.92779 4.6778 4.0157 32.509 30.124z"/>
   <path d="m6.108 10.409 5.6215-4.6465"/>
   <path d="m8.4884 12.386 0.20221-3.7811"/>
   <path d="m12.456 16.17c0.5327-0.96373 1.0747-8.1002 1.0747-8.1002"/>
   <path d="m16.722 20.386c0.19752-0.69467 0.95204-8.8059 0.95204-8.8059"/>
   <path d="m21.384 24.685 1.6926-7.6581"/>
   <path d="m26.274 29.203c0.28134-0.76195 1.6313-8.0109 1.6313-8.0109"/>
   <path d="m31.441 34.572 1.3561-8.8622"/>
   <path d="m36.713 39.454c0.12872-0.9075 1.6538-8.431 1.6538-8.431"/>
   <path d="m41.713 38.925c0.11374-0.62742 0.6436-4.5375 0.6436-4.5375"/>
  </g>
  <path d="m40.375 52.484c-5.6088 2.6262-8.647 7.903-12.49 12.35-5.0124-0.96738-6.0986-3.4314-7.3384-5.8369 6.992-4.2417 12.668-10.159 17.725-16.865l5.7515-5.6188c6.4471-4.5178 12.863-10.934 16.92-16.788 3.5818 0.99639 6.1533 2.8524 7.6972 5.5827-4.5519 3.4564-10.249 5.9126-12.38 11.484z" stroke-width=".88788px"/>
  <g stroke-linecap="round" stroke-linejoin="round" stroke-width="1px">
   <path d="m217.13 226.73c-0.30198 0.3016-4.4668 4.1041-4.4668 4.1041l7.4236 7.4246 32.351 14.73-14.786-32.052-7.484-7.485-3.6821 3.9231c0.81872-0.61396 26.007 34.394 25.047 34.708-0.99366 0.32468-34.797-24.565-34.403-25.353z"/>
   <path d="m214.25 229.38-114.45-115.49m-4.097-4.2683-8.12-8.0985m-4.4271-4.4503-37.385-37.39 14.854-14.681 37.368 37.943m130.72 132.05-114.41-115.18 1.9602-1.8679-4.2204-4.221-1.8243 1.1152-14.512 14.784-3.2872 3.2783 4.1464 3.9989 3.238-3.0086 14.534-14.17m-4.1194-4.8829-7.5112-7.4094c-0.66057 0.29571-15.121 14.095-15.121 14.095-0.34999-0.17526-2.4976 2.8606-3.0159 2.4903-0.5183-0.37027-3.7762-3.4805-3.7762-3.4805l2.365-3.4601 14.836-14.129 2.1266-1.5882 4.4426 4.147-1.9994 1.9992"/>
   <path d="m107.21 106.68-4.2003-4.4882"/>
   <path d="m101.47 103.75 3.183 3.2958"/>
   <path d="m99.346 105.92 3.2149 3.2125"/>
   <path d="m97.879 107.42 4.3842 4.084"/>
   <path d="m104.66 107.05-2.0952 2.0836"/>
   <path d="m89.057 91.464 3.0649 2.7854-1.9254 2.0732-3.3418-2.7614"/>
   <path d="m85.337 95.006 4.6554 4.234"/>
   <path d="m95.4 94.122-4.6713-4.2504"/>
   <path d="m45.772 59.692-1.6716 1.6268-6.2373-6.3438 18.397-18.183 6.2373 6.3438-1.8718 1.8756"/>
  </g>
 </g>
</svg>
