<?xml version="1.0" encoding="UTF-8"?>
<svg version="1.1" viewBox="0 0 256 256" xmlns="http://www.w3.org/2000/svg" xmlns:cc="http://creativecommons.org/ns#" xmlns:dc="http://purl.org/dc/elements/1.1/" xmlns:rdf="http://www.w3.org/1999/02/22-rdf-syntax-ns#" xmlns:xlink="http://www.w3.org/1999/xlink">
 <style>svg { cursor: default; }</style>
 <metadata>
  <rdf:RDF>
   <cc:Work rdf:about="">
    <dc:format>image/svg+xml</dc:format>
    <dc:type rdf:resource="http://purl.org/dc/dcmitype/StillImage"/>
    <dc:title/>
   </cc:Work>
  </rdf:RDF>
 </metadata>
 <g transform="matrix(1.5985 0 0 1.5985 -63.129 -107.55)">
  <path d="m114.34 177.41 1.1654 2.2316 2.9781 9.0193-0.508 5.4056-0.71909 3.6434-6.6156 11.841-5.4172 7.143-2.2134-0.60332-2.0717-0.74385-1.9423-11.53 0.4532-14.133 2.9781-10.414 5.8915-7.0666 4.273 1.4877z" fill="#ffb380"/>
  <g transform="matrix(-.65317 -.1433 -.09744 .83982 229.71 33.107)">
   <path d="m145.35 199.15-3.7834 17.119 10.218-6.7654-0.3216-8.8922z" fill="#ffffff"/>
   <path d="m141.56 216.27-2.4584-7.3168 6.2417-9.802z" fill="#ffccaa"/>
   <path d="m151.78 209.51 4.826 2.1968-2.1085-8.8389-2.9751-2.2041z" fill="#ffccaa"/>
   <path d="m141.56 216.27 8.152 12.169 6.892-16.738-4.826-2.1968z" fill="#ffb380"/>
   <path d="m149.71 228.44 7.8325 5.367-0.94053-22.105z" fill="#ffffff"/>
   <path d="m157.55 233.81 6.5751-3.5654-2.5492 7.2678z" fill="#ff9955"/>
   <path d="m157.3 243.35 3.3753 1.062 1.9378-5.1115z" fill="#ffccaa"/>
   <path d="m162.61 239.3-1.041-1.7899-4.272 5.8394z" fill="#ff9955"/>
   <path d="m164.12 230.24-1.9971-11.865-4.578 15.431z" fill="#ff7f2a"/>
   <path d="m162.12 218.38-5.5185-6.674 0.94053 22.105z" fill="#ff9955"/>
   <path d="m164.12 230.24 1.451 1.2759-2.9592 7.7818-1.041-1.7899z" fill="#ff7f2a"/>
   <path d="m162.12 218.38 4.0114-4.0925-2.0143 15.958z" fill="#ffb380"/>
   <path d="m166.14 214.28 1.2083 0.70694-1.7716 16.527-1.451-1.2759z" fill="#ff9955"/>
   <path d="m156.61 211.7 2.9656-7.0774 2.6011 0.8021-0.0482 12.949z" fill="#ff7f2a"/>
   <path d="m162.17 205.43 0.60487-5.8083 3.1947 6.994 0.16369 7.6711-4.0114 4.0925z" fill="#ff9955"/>
   <path d="m162.78 199.62-4.9406-0.90271-3.3395 4.1474 5.0741 1.7615 2.6011 0.80211z" fill="#ffccaa"/>
  </g>
  <g stroke="#000000" stroke-width=".30723px">
   <path d="m114.34 177.41 1.1654 2.2316 2.9781 9.0193-0.508 5.4056-0.71909 3.6434-6.6156 11.841-5.4172 7.143-2.2134-0.60332-2.0717-0.74385-1.9423-11.53 0.4532-14.133 2.9781-10.414 5.8915-7.0666 4.273 1.4877z" fill="none"/>
   <path d="m100.94 197.49-0.90639-0.23253-0.38845-2.371c0.31218-7.1596 0.1693-13.516 2.2984-19.805 1.0617-3.1363 2.1606-4.1605 4.2082-4.8351 2.1582-0.71101 3.8344 0.99347 3.9816 1.1158 0.60247 0.50036 1.1006 1.9061 1.1006 1.9061l-2.9781 0.27895-5.2765 5.021-1.6185 11.111-0.42082 4.9745z" fill="#ff8080"/>
   <path d="m100.94 197.49-0.29134-2.5105c0.018-6.2381 0.63822-12.131 2.3631-18.875 0.54952-2.1486 2.8898-5.51 4.3053-5.6719 2.2202-0.25403 2.2891 0.78422 3.3342 1.3482l-0.80927 3.9052c-1.1588-1.0796-2.4354-0.39362-3.4961 0-0.92492 0.34326-2.0428 2.001-2.7839 3.5798-1.6301 3.4725-1.8117 12.011-2.622 18.224z" fill="#ff5555"/>
   <path d="m111.49 170.85-3.5284-0.65087c-1.871-0.033-2.0008 1.7279-1.3758 2.6965l1.3596 0.37191c1.4625 0.0523 2.9827 1.0576 3.5446-2.4175z" fill="#ff8080"/>
  </g>
  <path d="m104.89 171.04c-0.20349 0.14336-0.61049 0.4301-0.98667 0.82149-0.37619 0.39139-0.72173 0.88764-1.0827 1.621-0.36094 0.73334-0.73708 1.7035-1.1327 3.1817-0.39561 1.4782-0.80998 3.4619-1.0597 5.5417-0.24972 2.0797-0.33412 4.2505-0.23039 3.9747s0.39541-2.9987 0.68341-4.9177c0.28801-1.9189 0.57213-3.0328 0.86387-4.0968 0.29175-1.064 0.59137-2.0791 0.87149-2.6413s0.5412-0.67243 0.9215-1.0531 0.87915-1.031 1.1942-1.4779c0.31503-0.44697 0.4455-0.68948 0.51844-0.82174 0.0729-0.13226 0.0884-0.15438 0.0188-0.18187-0.0695-0.0275-0.22311-0.0606-0.29958-0.0771-0.0765-0.0165-0.0765-0.0164-0.28 0.12696z" fill="#ffd5d5"/>
  <g stroke="#000000">
   <path d="m109.61 168.53c-0.35263-0.15417-0.59625-0.37524-0.69661-0.68425-0.11968-0.36869-0.0139-0.94025 0.26671-1.668 0.51905-1.1892 1.1966-2.0433 1.8791-2.8871 0 0 1.2219 0.0535 1.1091 0.0943-0.1801 0.0651-1.9654 2.602-1.4737 2.761l-0.52193 2.3323c-0.1893 0.16901-0.37583 0.0978-0.56269 0.0518z" fill="#ffe680" stroke-width=".15171"/>
   <path d="m110.42 165.83c-0.4402-0.0137-0.90365 0.0276-1.3754 0.12468-3.1323 0.64488-4.0809 3.392-3.4731 5.4886 0.58148 2.0058 3.2364 3.5896 6.2179 2.259 1.7372-0.77532 2.7495-3.7734 1.5545-6.2664-0.49211-1.0266-1.6033-1.5647-2.9239-1.6059zm-0.16228 0.86283c1.0478 0.0327 1.9289 0.4599 2.3193 1.2744 0.94825 1.9781 0.14456 4.3569-1.2339 4.9721-2.3658 1.0558-4.4712-0.20039-4.9326-1.792-0.48228-1.6636 0.27033-3.844 2.7557-4.3557 0.3743-0.0771 0.74211-0.10985 1.0914-0.0989z" fill="#ffe680" stroke-width=".10132"/>
   <path d="m105.91 198.49-1.5261-0.31346-0.38106-2.5062c-0.54305-3.5715 1.4848-17.12 2.7368-20.462 0.69076-1.8441 2.589-4.0227 4.3714-4.3748 1.2751-0.25187 3.524 1.0557 4.2674 2.1499 2.1894 3.2224 2.5354 9.0537 2.8333 14.522-3.5862-20.102-12.583-2.6378-12.302 10.985z" fill="#ff8080" stroke-width=".30723px"/>
   <path d="m115.97 177.65-2.5667-1.4666-4.3978 2.1496c-2.6069 5.6596-3.0313 11.585-3.4792 17.358l0.36625 3.0244c0.97728-6.2084 1.7915-13.545 5.2875-18.804l4.2804-0.42736c1.0836 3.1886 1.7515 5.3755 2.7468 8.3172l-0.0153-1.0745c-0.8709-3.4698-0.75048-6.4689-2.2219-9.0763z" fill="#ff5555" stroke-width=".30723px"/>
  </g>
  <g fill="#ffd5d5">
   <path d="m115.58 173.85c0.0998 0.41434 0.29938 1.2434 0.38575 1.8673 0.0864 0.62389 0.0594 1.0421-0.0109 1.2592-0.0703 0.21715-0.18348 0.23264-0.21849 0.0585-0.035-0.17415 8e-3 -0.5391-0.0295-1.1161-0.0378-0.57697-0.15657-1.368-0.20779-1.8173-0.0512-0.44933-0.035-0.55789-0.027-0.61196 8e-3 -0.0541 8e-3 -0.0541 0.10791 0.36028z"/>
   <path d="m108.76 177.37c-0.0837-0.38762-0.25092-1.1625-0.45594-1.7551-0.20501-0.59263-0.44793-1.0035-0.59621-1.2009s-0.2023-0.18186-0.21581-0.0778c-0.0135 0.10403 0.0136 0.29846 0.10538 0.57779 0.0918 0.27934 0.24795 0.64272 0.45582 1.1468 0.20787 0.50403 0.46653 1.1464 0.61485 1.4912s0.18606 0.39132 0.1969 0.37547c0.0108-0.0158-5e-3 -0.0927-0.0132-0.13122-8e-3 -0.0385-8e-3 -0.0385-0.0917-0.42618z"/>
   <path d="m108.83 173.63c-0.0241-0.43771 0.39676-0.95687 1.0603-1.3636 0.66353-0.40674 1.5699-0.70116 1.7696-0.31762s-0.30736 1.4449-0.52864 2.1848-0.15654 1.1583-0.019 1.4839c0.13756 0.32559 0.34775 0.5578 0.12081 0.81-0.22694 0.25219-0.88964 0.52302-1.1539 0.43383-0.2643-0.0892-0.12938-0.53873-0.11057-0.94552 0.0188-0.40679-0.0784-0.77114-0.36143-1.1312-0.28308-0.36002-0.75302-0.71687-0.7771-1.1546z"/>
   <path d="m104.31 195c0.10233 0.0232 0.30741 0.0696 0.49096 0.15478 0.18354 0.0852 0.34517 0.20899 0.31271 0.3177-0.0325 0.10872-0.25863 0.20152-0.44753 0.18592-0.18891-0.0156-0.34007-0.13967-0.41006-0.27127-0.07-0.1316-0.0592-0.2714-0.0538-0.34096 5e-3 -0.0696 5e-3 -0.0693 0.10774-0.0462z"/>
   <path d="m105.19 186.66c-0.0863 0.83667-0.25895 2.5103-0.38305 3.9517-0.1241 1.4413-0.19962 2.6499-0.28613 3.2311-0.0865 0.58124-0.18361 0.53476-0.23739 0.28742-0.0538-0.24734-0.0646-0.69817-0.0107-1.519 0.0539-0.82082 0.1727-2.0151 0.31296-3.2779 0.14025-1.2628 0.30216-2.5959 0.42073-3.1926 0.11857-0.59668 0.19411-0.4572 0.23198-0.38726 0.0379 0.0699 0.0379 0.0699-0.0484 0.90658z"/>
  </g>
  <path d="m113.58 175.09c-0.0952-0.48768-0.19442-1.3862-0.10679-1.4193 0.0876-0.0331 0.36244 0.80013 0.71344 1.4304 0.35101 0.63024 0.77805 1.0574 0.73589 1.1286-0.0421 0.0712-0.55301-0.21353-0.85436-0.39436-0.30135-0.18082-0.39295-0.25756-0.48818-0.74525z" fill="#ff5555"/>
  <path d="m100.39 195.16c-0.046 0.0441-0.13815 0.13228-0.24213 0.12659-0.10399-6e-3 -0.2193-0.10507-0.25357-0.23148-0.03426-0.12641 0.01205-0.28162 0.10361-0.32023 0.09156-0.0386 0.23009 0.0388 0.31102 0.12146 0.0809 0.0827 0.10386 0.17054 0.11548 0.21506 0.0116 0.0445 0.0116 0.0445-0.0344 0.0886z" fill="#ffd5d5"/>
  <path d="m100.26 190.53c4e-3 0.44077 0.0115 1.3231-0.0307 2.0237s-0.13429 1.2185-0.18812 1.2016c-0.05383-0.0169-0.06918-0.56776-0.05383-1.2399s0.0615-1.4673 0.11142-1.8916c0.0499-0.42428 0.10374-0.47949 0.13055-0.50699 0.0268-0.0275 0.0269-0.0275 0.0307 0.41326z" fill="#ffd5d5"/>
  <g fill="#ffe680" stroke="#000000">
   <g stroke-width=".14148px">
    <path d="m65.863 97.174c-0.06697-0.01502-0.20089-0.04506-0.38352 0.02734s-0.41275 0.24725-0.45658 0.51702c-0.04383 0.26977 0.09758 0.63148 0.55669 0.99458 0.45911 0.3631 1.2408 0.72946 1.9578 0.87312s1.3723 0.06589 1.8867-0.17794c0.51441-0.24383 0.88837-0.65387 1.3275-0.68632 0.43914-0.03244 0.94361 0.31258 1.3135 0.41298 0.36989 0.10039 0.60554-0.04376 0.54783-0.33425-0.05771-0.2905-0.40895-0.72805-0.98955-1.0491s-1.3904-0.52554-2.049-0.42284c-0.65851 0.1027-1.1652 0.51258-1.7473 0.54055-0.58214 0.02798-1.2394-0.32608-1.5682-0.5032-0.32881-0.17712-0.32895-0.17695-0.39592-0.19197z"/>
    <path d="m61.382 96.134c-0.06757-0.01206-0.20268-0.03617-0.38194 0.0442s-0.40146 0.26518-0.43337 0.53661c-0.03191 0.27143 0.12528 0.62657 0.59993 0.96911 0.47465 0.34254 1.2717 0.67413 1.9943 0.78609 0.72267 0.11196 1.3739 0.0054 1.8771-0.26083 0.50317-0.26624 0.85872-0.69235 1.296-0.74409 0.43728-0.05174 0.95646 0.27074 1.3304 0.35476 0.37395 0.08401 0.60303-0.07037 0.53258-0.35805-0.07044-0.28768-0.44061-0.70934-1.0348-1.0045-0.59416-0.29515-1.4122-0.46382-2.0656-0.33223-0.65335 0.13159-1.1415 0.56337-1.7218 0.61695-0.58034 0.05358-1.2526-0.2712-1.5889-0.43368-0.33629-0.16247-0.33642-0.1623-0.40399-0.17436z"/>
    <path d="m56.924 95.921c-0.0686-0.0022-0.20578-0.0066-0.37158 0.09879-0.16581 0.10538-0.35904 0.32029-0.35149 0.59348 0.0076 0.2732 0.2143 0.60197 0.73337 0.8725 0.51907 0.27053 1.3556 0.48376 2.0868 0.49037 0.73126 0.0066 1.3603-0.19271 1.8199-0.52871 0.45954-0.336 0.74994-0.80891 1.1752-0.92315 0.42526-0.11424 0.9855 0.13003 1.3677 0.15926 0.38215 0.02923 0.58658-0.15657 0.4754-0.43109-0.11118-0.27451-0.53826-0.63841-1.1688-0.84482-0.6305-0.20641-1.4643-0.25539-2.0919-0.03098-0.62755 0.2244-1.0484 0.72205-1.6149 0.85873s-1.2786-0.08779-1.6348-0.20009c-0.3562-0.1123-0.35631-0.1121-0.4249-0.11429z"/>
    <path d="m52.944 97.709c-0.06502 0.02199-0.19503 0.06595-0.31339 0.22275-0.11836 0.1568-0.22402 0.4258-0.1212 0.67902 0.10282 0.25322 0.41167 0.48868 0.99264 0.56015 0.58096 0.07146 1.4391-0.02199 2.1263-0.27208 0.68719-0.25009 1.2065-0.65723 1.5192-1.133 0.31264-0.47574 0.41889-1.0204 0.77714-1.2765 0.35825-0.25603 0.96857-0.22359 1.3367-0.33015 0.36816-0.10656 0.49451-0.35221 0.29418-0.57036s-0.72786-0.40928-1.3907-0.38164c-0.66286 0.02764-1.461 0.274-1.9701 0.70411-0.50911 0.4301-0.72882 1.0437-1.2115 1.3702-0.48272 0.32656-1.2283 0.36587-1.6012 0.38553-0.37296 0.01966-0.37299 0.01988-0.43801 0.04187z"/>
    <path d="m50.204 101c-0.05005 0.047-0.15014 0.14087-0.19285 0.33263-0.04271 0.19176-0.02735 0.48036 0.1712 0.66818 0.19854 0.18781 0.57722 0.27405 1.1355 0.0982 0.55832-0.17581 1.3005-0.61663 1.8222-1.1291s0.8255-1.0983 0.91278-1.6608c0.08729-0.56254-0.04183-1.1023 0.17804-1.4838 0.21988-0.38151 0.78872-0.60501 1.0796-0.8546 0.29086-0.24959 0.304-0.52552 0.03126-0.64099s-0.83204-0.07071-1.4238 0.22924c-0.59175 0.29995-1.2159 0.85501-1.5009 1.4575-0.285 0.60246-0.23058 1.2519-0.53449 1.7492-0.3039 0.4973-0.96608 0.84214-1.2973 1.0146-0.33126 0.17251-0.33119 0.17273-0.38124 0.21969z"/>
    <path d="m48.064 104.73c-0.03621 0.0583-0.10863 0.1749-0.10031 0.37118 0.0083 0.19629 0.09776 0.47111 0.33812 0.60121 0.24035 0.1301 0.62844 0.11552 1.1223-0.19865 0.49389-0.31416 1.0969-0.93187 1.4684-1.5618 0.37147-0.62991 0.51352-1.2743 0.45242-1.8403-0.0611-0.56599-0.32536-1.054-0.21158-1.4794 0.11378-0.42538 0.60552-0.78833 0.82196-1.1046s0.15781-0.58625-0.1355-0.62728c-0.29332-0.04104-0.82204 0.14678-1.3161 0.58951-0.4941 0.44273-0.95357 1.1403-1.0731 1.7959-0.11957 0.65565 0.10088 1.2689-0.06414 1.8279-0.16502 0.55896-0.71554 1.0633-0.99094 1.3155-0.2754 0.25228-0.27528 0.25247-0.31149 0.31077z"/>
    <path d="m47.993 108.99c-0.0089 0.068-0.02673 0.20415 0.06187 0.37949 0.0886 0.17535 0.28353 0.38873 0.55616 0.40801 0.27263 0.0193 0.62009-0.1542 0.94023-0.64423s0.61439-1.3016 0.69268-2.0287c0.07829-0.72709-0.05836-1.3727-0.34767-1.863-0.28931-0.49027-0.73146-0.82566-0.80344-1.2601s0.22606-0.968 0.29262-1.3454c0.06656-0.37745-0.09828-0.59911-0.38238-0.51539-0.2841 0.0837-0.68813 0.47305-0.95538 1.0803-0.26726 0.60722-0.39778 1.4322-0.236 2.0788 0.16177 0.64654 0.61574 1.1141 0.6962 1.6913 0.08046 0.57723-0.21277 1.2638-0.35946 1.6073-0.14669 0.34347-0.14652 0.34355-0.15544 0.41159z"/>
    <path d="m49.174 113.02c0.01492 0.067 0.04478 0.20097 0.18806 0.33538 0.14329 0.13441 0.39949 0.26816 0.66224 0.19293 0.26275-0.0752 0.52981-0.35719 0.66283-0.92722 0.13302-0.57002 0.13161-1.4333-0.04377-2.1432-0.17538-0.70995-0.52481-1.2697-0.96449-1.6313s-0.96994-0.52532-1.1863-0.90883c-0.21637-0.38351-0.11903-0.98689-0.18572-1.3643-0.06669-0.37743-0.29747-0.52925-0.53574-0.35333-0.23826 0.17593-0.48457 0.68008-0.52777 1.3421s0.11664 1.4819 0.48999 2.0339c0.37335 0.55207 0.95998 0.83595 1.2332 1.3508 0.27323 0.51479 0.2328 1.2603 0.21258 1.6332-0.02023 0.37293-0.02004 0.37295-0.0051 0.43992z"/>
    <path d="m52.378 116.89c0.02267 0.17452 0.06802 0.52379 0.26308 0.72929 0.19506 0.20549 0.53962 0.26704 0.76739-0.0268 0.22778-0.2938 0.3383-0.94237 0.2192-1.6585-0.1191-0.71613-0.47011-1.5048-0.91807-2.0828-0.44796-0.57802-0.99422-0.94823-1.5427-1.1007s-1.0996-0.0873-1.4528-0.35032c-0.35318-0.26298-0.50864-0.85406-0.72252-1.1721-0.21389-0.31805-0.48638-0.36335-0.63294-0.10598-0.14656 0.25737-0.1675 0.81808 0.06121 1.4408 0.22871 0.62276 0.70698 1.3075 1.272 1.661 0.565 0.35348 1.2163 0.37538 1.6747 0.73535s0.72343 1.0579 0.85602 1.4071c0.13259 0.34914 0.13277 0.34908 0.15543 0.5236z"/>
    <path d="m55.068 120.75c0.02846 0.17368 0.0854 0.52123 0.28719 0.72013 0.20179 0.1989 0.54821 0.24895 0.76608-0.0523 0.21787-0.30122 0.30677-0.95311 0.16392-1.6649-0.14286-0.71176-0.5199-1.4883-0.98684-2.0511-0.46694-0.5628-1.0252-0.91464-1.5785-1.0488s-1.1019-0.0507-1.4636-0.30181c-0.36173-0.25108-0.53677-0.83667-0.76111-1.1474-0.22434-0.31076-0.49819-0.34698-0.6361-0.0849-0.13791 0.2621-0.14018 0.82321 0.10913 1.438 0.24931 0.6148 0.75008 1.2833 1.3265 1.6178s1.2282 0.3347 1.6982 0.67921c0.47008 0.34452 0.75822 1.0333 0.90235 1.3778s0.14426 0.34452 0.17272 0.51819z"/>
    <path d="m58.427 123.96c0.05477 0.16724 0.16438 0.50194 0.3943 0.66753 0.22992 0.16558 0.57992 0.16188 0.74899-0.1692s0.15686-0.98888-0.09353-1.6703c-0.25039-0.68141-0.74215-1.3909-1.2899-1.8754-0.54778-0.48447-1.1534-0.74645-1.7207-0.79408-0.56727-0.0476-1.0966 0.11898-1.4926-0.0736-0.39598-0.1926-0.65881-0.74439-0.92819-1.017-0.26938-0.27265-0.54554-0.26641-0.6416 0.0137-0.09606 0.28017-0.0122 0.83497 0.32849 1.4042 0.3407 0.56926 0.93814 1.153 1.5591 1.395 0.62095 0.24206 1.265 0.14225 1.7823 0.41055 0.51739 0.26829 0.9078 0.90467 1.1031 1.223 0.1953 0.31834 0.19548 0.31821 0.25026 0.48546z"/>
    <path d="m123.04 143.33c-0.11446 0.1337-0.3435 0.40125-0.36551 0.68371-0.022 0.28247 0.16301 0.57958 0.53375 0.55202 0.37073-0.0276 0.92643-0.37974 1.3786-0.94771 0.45215-0.56797 0.80291-1.3568 0.93226-2.0765 0.12934-0.71973 0.0385-1.3733-0.2155-1.8828-0.25402-0.50945-0.67143-0.87521-0.71258-1.3136-0.0412-0.43838 0.29378-0.94964 0.38678-1.3215s-0.0558-0.60454-0.34506-0.54106c-0.28926 0.0635-0.71974 0.42342-1.0291 1.0103s-0.49773 1.4006-0.38195 2.057 0.53564 1.1548 0.57521 1.7362c0.0396 0.58149-0.30136 1.2457-0.47189 1.578-0.17054 0.33226-0.1705 0.3323-0.28496 0.466z"/>
    <path d="m124.77 138.5c0.0299 0.17345 0.0897 0.52053 0.29309 0.71775 0.20341 0.19722 0.55024 0.2444 0.76562-0.0586 0.21538-0.30302 0.29891-0.95559 0.1502-1.6662-0.1487-0.71057-0.53213-1.484-1.0037-2.043-0.47156-0.55892-1.0327-0.90613-1.587-1.0357s-1.1023-0.0416-1.4661-0.28973c-0.36377-0.24809-0.54362-0.83223-0.77054-1.1411s-0.50103-0.34287-0.63678-0.0797c-0.13576 0.26322-0.13342 0.82432 0.12093 1.437s0.76061 1.2771 1.3398 1.6068c0.57919 0.32974 1.2309 0.32458 1.7038 0.66522s0.76669 1.027 0.91364 1.3703c0.14696 0.34334 0.14716 0.34332 0.17704 0.51676z"/>
   </g>
   <path d="m127.56 129.24c-0.0113-0.37492 0.0848-0.68151 0.32204-0.89831 0.28312-0.2586 0.84701-0.40233 1.6271-0.45762 1.301-0.0363 2.366 0.20637 3.4237 0.45762 0 0 0.47511 1.0994 0.38983 1.017-0.13621-0.13174-3.2022-0.65208-3.1356-0.15254l-2.339 0.50847c-0.23441-0.0967-0.24974-0.29076-0.28814-0.47457z" stroke-width=".15"/>
   <path d="m124.25 123.44c-0.8689-0.0271-1.7837 0.0544-2.7148 0.24609-6.1828 1.2729-8.0552 6.6954-6.8555 10.834 1.1478 3.9593 6.3882 7.0856 12.273 4.459 3.4291-1.5304 5.4273-7.4484 3.0684-12.369-0.97138-2.0263-3.1648-3.0885-5.7715-3.1699zm-0.32032 1.7031c2.0684 0.0646 3.8074 0.90781 4.5781 2.5156 1.8718 3.9045 0.28535 8.6001-2.4356 9.8144-4.6698 2.0841-8.8256-0.39555-9.7363-3.5371-0.95197-3.2838 0.5336-7.5876 5.4395-8.5977 0.73883-0.15211 1.4648-0.21684 2.1543-0.19531z" stroke-width=".2"/>
   <g stroke-width=".14148px">
    <path d="m120.49 147.57c-0.14167 0.10445-0.42515 0.31344-0.5103 0.58367-0.0851 0.27022 0.0281 0.60141 0.39549 0.65816 0.3674 0.0568 0.98821-0.16101 1.5568-0.61237 0.56859-0.45136 1.0882-1.1408 1.3766-1.8128 0.28833-0.67203 0.34726-1.3293 0.21468-1.8829s-0.45674-1.0041-0.39796-1.4405c0.0588-0.43637 0.50039-0.85892 0.67484-1.2002 0.17446-0.34129 0.082-0.60155-0.21413-0.60494-0.29613-3e-3 -0.7967 0.25019-1.2305 0.75218-0.43377 0.50198-0.80079 1.2523-0.83602 1.9178-0.0352 0.66555 0.26141 1.2458 0.1688 1.8212-0.0926 0.57542-0.57453 1.1456-0.8156 1.4309-0.24108 0.28524-0.24105 0.28528-0.38271 0.38972z"/>
    <path d="m116.5 151.02c-0.16684 0.056-0.50071 0.16817-0.66453 0.39932s-0.15746 0.58111 0.1749 0.74767c0.33235 0.16655 0.99003 0.14939 1.6696-0.10613 0.67951-0.25552 1.3853-0.75263 1.8656-1.304 0.48031-0.55142 0.7377-1.159 0.78106-1.7266 0.0434-0.56761-0.12726-1.0957 0.0624-1.4931 0.1896-0.3974 0.7394-0.66438 1.01-0.93583s0.26231-0.54753-0.0186-0.64146c-0.28086-0.0939-0.83504-6e-3 -1.4017 0.33916-0.56667 0.34501-1.1458 0.94682-1.3832 1.5696-0.23739 0.62278-0.13272 1.266-0.39712 1.7854-0.26439 0.51941-0.8978 0.91461-1.2147 1.1123-0.31685 0.19769-0.31683 0.19774-0.48368 0.25377z"/>
    <path d="m114.27 154.81c-0.152 0.0888-0.45615 0.26632-0.56963 0.52592-0.11347 0.2596-0.0362 0.60098 0.32308 0.69659 0.35926 0.0956 0.99975-0.0547 1.6132-0.44285 0.61348-0.38816 1.2037-1.0182 1.562-1.6557 0.35836-0.63744 0.48703-1.2847 0.41424-1.8492-0.0728-0.56459-0.34705-1.0471-0.24208-1.4747 0.10497-0.42761 0.58913-0.80066 0.79899-1.1214 0.20986-0.32073 0.14568-0.58938-0.1484-0.62433-0.29409-0.0349-0.81883 0.1638-1.3036 0.61667-0.48483 0.45287-0.92976 1.1597-1.0358 1.8177-0.106 0.658 0.12707 1.2666-0.0264 1.8289-0.15344 0.56227-0.69342 1.0778-0.96354 1.3357-0.27011 0.2579-0.27012 0.25793-0.42212 0.34667z"/>
    <path d="m111.65 158.95c-0.14833 0.0952-0.44516 0.28575-0.55288 0.55303-0.10772 0.26727-0.0262 0.61101 0.32915 0.69578 0.3554 0.0848 0.98397-0.0896 1.5822-0.5042 0.59819-0.41464 1.1698-1.0742 1.5128-1.7331 0.34303-0.65897 0.45965-1.32 0.45497-1.8954-5e-3 -0.57534-0.13062-1.0654-0.0339-1.5029 0.0968-0.43747 0.41598-0.82246 0.54183-1.1501 0.12584-0.32761 0.0584-0.59799-0.23182-0.62344-0.29024-0.0255-0.80403 0.19408-1.2745 0.67008s-0.89773 1.2084-0.99186 1.8796c-0.0941 0.67121 0.14499 1.2808 3e-3 1.8565-0.14235 0.57571-0.6662 1.1172-0.92825 1.3881s-0.26205 0.27085-0.41039 0.36607z"/>
    <path d="m110.77 163.69c-0.11646 0.13197-0.34948 0.39605-0.37572 0.67816-0.0263 0.2821 0.1543 0.58196 0.52541 0.55995 0.37111-0.022 0.93204-0.3658 1.3927-0.92692 0.46061-0.56112 0.82316-1.3446 0.96328-2.0623 0.14013-0.71772 0.0591-1.3726-0.18724-1.8858-0.24635-0.51321-0.65822-0.88519-0.6928-1.3241-0.0346-0.43895 0.30799-0.94513 0.40655-1.3155 0.0986-0.37041-0.0467-0.60532-0.3369-0.54618-0.29019 0.0591-0.72601 0.41257-1.0442 0.99475s-0.51868 1.393-0.41275 2.051c0.10592 0.65801 0.51827 1.1627 0.5491 1.7447 0.0308 0.58201-0.32 1.241-0.49549 1.5707-0.1755 0.32966-0.1755 0.32969-0.29195 0.46166z"/>
    <path d="m117.68 134.26c0.16163 0.0696 0.48507 0.20903 0.76136 0.14628 0.27628-0.0628 0.50516-0.32757 0.36888-0.67345-0.13627-0.34587-0.63742-0.77214-1.3139-1.0355s-1.5338-0.36437-2.2596-0.27444c-0.72573 0.0899-1.323 0.37051-1.7342 0.7642-0.41119 0.39369-0.63667 0.90079-1.0431 1.0701-0.40645 0.16934-0.99403 1e-3 -1.3767 0.0226-0.38269 0.0215-0.5608 0.23257-0.41439 0.49001s0.61779 0.56183 1.27 0.68325c0.65221 0.12142 1.4852 0.06 2.0777-0.24527 0.59248-0.30524 0.94394-0.85405 1.4875-1.0643s1.279-0.0816 1.6469-0.0173c0.36788 0.0643 0.36795 0.0642 0.52958 0.13381z"/>
    <path d="m122.46 134.22c0.15925 0.075 0.47789 0.22493 0.75611 0.17133 0.27821-0.0536 0.5157-0.3107 0.39091-0.66089s-0.6116-0.79275-1.279-1.0783c-0.66745-0.28553-1.521-0.41479-2.2493-0.34886-0.72829 0.0659-1.3345 0.32664-1.7584 0.70654s-0.66607 0.87928-1.0779 1.0351c-0.41182 0.15582-0.99353-0.0317-1.3767-0.0229-0.38319 9e-3 -0.56817 0.21393-0.43034 0.47606s0.59891 0.58191 1.2468 0.72479c0.64786 0.14288 1.4824 0.10894 2.0846-0.17657 0.60223-0.28551 0.97161-0.82242 1.5218-1.0146s1.281-0.0394 1.6466 0.037c0.36556 0.0764 0.36566 0.0763 0.5249 0.15121z"/>
    <path d="m61.824 127.25c0.06035 0.16531 0.18114 0.49615 0.41648 0.65393s0.58502 0.14235 0.74288-0.19422c0.15786-0.33656 0.1236-0.99359-0.14951-1.6662-0.27311-0.67262-0.7884-1.3652-1.3521-1.8311-0.56372-0.46581-1.1778-0.70732-1.7464-0.7359-0.56855-0.0286-1.092 0.15571-1.4942-0.0235-0.40222-0.1792-0.68341-0.72186-0.96178-0.98531-0.27838-0.26345-0.55417-0.24794-0.64078 0.0353-0.08661 0.28324 0.01582 0.83491 0.37542 1.3924 0.3596 0.55752 0.97629 1.1209 1.605 1.342 0.62872 0.2211 1.269 0.0997 1.7951 0.35052 0.5261 0.25079 0.93764 0.87372 1.1435 1.1853 0.20587 0.31161 0.20606 0.31143 0.26641 0.47674z"/>
    <path d="m65.269 130.34c0.06468 0.16367 0.19411 0.49121 0.43352 0.64275s0.58856 0.12692 0.73752-0.21368c0.14896-0.3406 0.09744-0.99651-0.19326-1.6617-0.2907-0.66521-0.82403-1.344-1.3998-1.7949s-1.196-0.67611-1.7651-0.68973c-0.5691-0.0136-1.0876 0.18438-1.4944 0.0158-0.4068-0.16857-0.70216-0.70365-0.98738-0.95969-0.28521-0.25603-0.56048-0.23329-0.63961 0.0521-0.07913 0.28541 0.03776 0.83419 0.4119 1.3821 0.37414 0.54787 1.0054 1.0948 1.6397 1.2993 0.63432 0.20449 1.2712 0.0663 1.8037 0.3032 0.53251 0.23688 0.96028 0.84875 1.1743 1.1548s0.21418 0.30592 0.27886 0.4696z"/>
    <path d="m69.129 133.03c0.0823 0.15557 0.24699 0.46687 0.50162 0.59113s0.59894 0.0614 0.70952-0.29357c0.11058-0.35494-0.01281-1.0012-0.37495-1.6304-0.36214-0.62919-0.96692-1.2452-1.5888-1.63-0.62189-0.38475-1.2631-0.54043-1.8303-0.49134-0.56715 0.0491-1.0607 0.30292-1.4835 0.18014s-0.77532-0.6221-1.087-0.84521-0.58278-0.17021-0.63002 0.12217c-0.04724 0.29238 0.12933 0.82498 0.56148 1.3284s1.1198 0.97753 1.7728 1.111c0.65297 0.13345 1.2708-0.074 1.8261 0.10288 0.55534 0.17684 1.0479 0.73793 1.2942 1.0186 0.24638 0.28068 0.24653 0.2806 0.32884 0.43617z"/>
    <path d="m73.208 134.86c0.1067 0.13995 0.32024 0.42002 0.59181 0.50082 0.27157 0.0808 0.60089-0.0377 0.65174-0.40601 0.05085-0.36826-0.17689-0.9855-0.63735-1.5467-0.46046-0.56125-1.1581-1.0697-1.8347-1.3472s-1.3347-0.32586-1.8861-0.18439c-0.55141 0.14146-0.99659 0.47283-1.4339 0.42109-0.43729-0.0517-0.86688-0.48647-1.2109-0.65542-0.34403-0.16896-0.6028-0.0723-0.60143 0.22388 0.0014 0.29618 0.26292 0.79258 0.77181 1.2182 0.50888 0.42565 1.265 0.78056 1.931 0.80507 0.66601 0.0245 1.2414-0.28143 1.8183-0.19811 0.57683 0.0833 1.1547 0.55602 1.4438 0.79247 0.28908 0.23646 0.28923 0.23635 0.39593 0.3763z"/>
    <path d="m77.467 136.87c0.1113 0.13632 0.33403 0.40914 0.60814 0.48086 0.27411 0.0717 0.59931-0.0577 0.63788-0.42746 0.03857-0.36975-0.20958-0.97908-0.68845-1.5247-0.47887-0.54562-1.193-1.0306-1.8785-1.2854-0.68544-0.25484-1.3448-0.28128-1.8912-0.12155-0.5464 0.15972-0.98031 0.50571-1.4191 0.46855-0.43876-0.0372-0.88258-0.45737-1.232-0.61478s-0.60487-0.0522-0.59365 0.24376c0.01122 0.29596 0.28914 0.7834 0.8119 1.1919 0.52276 0.40848 1.2903 0.73805 1.9567 0.74039 0.66646 2e-3 1.2314-0.32257 1.8107-0.25849 0.57928 0.0641 1.1726 0.5173 1.4694 0.74401 0.29679 0.22671 0.29693 0.22661 0.40823 0.36294z"/>
    <path d="m81.976 137.97c0.1309 0.11763 0.39287 0.35303 0.67473 0.38184 0.28187 0.0288 0.58335-0.149 0.56472-0.52029-0.01863-0.37129-0.35735-0.93532-0.91429-1.401-0.55693-0.46567-1.3371-0.83528-2.0535-0.9819-0.71643-0.14663-1.372-0.0715-1.8874 0.17014-0.51541 0.2417-0.89109 0.65018-1.3304 0.68079-0.43927 0.0306-0.94232-0.3165-1.3118-0.41842s-0.60571 0.0413-0.54921 0.33198c0.0565 0.29073 0.40594 0.72974 0.9852 1.0532 0.57925 0.32342 1.3882 0.5313 2.0472 0.43134 0.65892-0.1 1.1673-0.50774 1.7495-0.53331 0.58226-0.0256 1.2381 0.33122 1.5661 0.5097 0.32807 0.17848 0.32818 0.17831 0.45909 0.29594z"/>
    <path d="m86.561 139.13c0.13477 0.11317 0.40449 0.33965 0.68717 0.35899 0.28268 0.0193 0.57803-0.16849 0.54694-0.53894-0.03108-0.37046-0.38853-0.92281-0.96077-1.3695-0.57224-0.44671-1.3643-0.78994-2.0853-0.91245s-1.3737-0.0255-1.8807 0.23337c-0.50702 0.25885-0.86878 0.67971-1.3068 0.72504-0.43799 0.0453-0.9524-0.28472-1.3251-0.37419-0.37269-0.0895-0.60398 0.0615-0.53776 0.35022 0.06622 0.28867 0.43019 0.71571 1.02 1.0195s1.4053 0.48444 2.0605 0.36242c0.6552-0.12201 1.1496-0.54661 1.7307-0.59169 0.58107-0.0451 1.2485 0.2895 1.5824 0.45687 0.33387 0.16738 0.33398 0.1672 0.46876 0.28037z"/>
    <path d="m91.215 140.08c0.13975 0.10697 0.41941 0.32105 0.70267 0.3276 0.28326 7e-3 0.56983-0.19441 0.52206-0.56309-0.04777-0.36867-0.4298-0.90432-1.0216-1.3248-0.59183-0.42042-1.3986-0.72754-2.1244-0.81737-0.72574-0.0898-1.3734 0.0366-1.8682 0.31804-0.49481 0.28148-0.8372 0.71824-1.2727 0.7833-0.4355 0.0651-0.96429-0.24142-1.3406-0.31397-0.37635-0.0726-0.60059 0.0887-0.5214 0.37414 0.07919 0.28539 0.46207 0.69556 1.065 0.97243s1.4257 0.42049 2.0747 0.26902c0.64902-0.15148 1.1237-0.59796 1.7022-0.66924 0.57844-0.0713 1.2603 0.23284 1.6014 0.38497s0.34119 0.15195 0.48094 0.25892z"/>
    <path d="m95.752 140.4c0.1506 0.0911 0.45198 0.27329 0.73426 0.24885 0.28228-0.0244 0.54517-0.25551 0.4574-0.61676-0.08777-0.36124-0.52604-0.85194-1.1603-1.2052-0.63422-0.35324-1.4697-0.57035-2.201-0.58034-0.73122-0.01-1.3612 0.18642-1.8223 0.52028-0.46109 0.33387-0.7537 0.80543-1.1795 0.91768-0.42578 0.11226-0.9849-0.1346-1.3669-0.16559-0.38202-0.031-0.58729 0.15385-0.47739 0.42887 0.1099 0.27503 0.53531 0.6409 1.1648 0.85024 0.62954 0.20933 1.4631 0.26218 2.0917 0.0407s1.0517-0.71717 1.6189-0.85123 1.2782 0.0937 1.6339 0.20767c0.35567 0.11395 0.35575 0.11376 0.50635 0.20482z"/>
    <path d="m100.41 140.36c0.15668 0.0802 0.47021 0.24059 0.75005 0.19622 0.27983-0.0444 0.5257-0.29349 0.41256-0.64761-0.11315-0.35413-0.58507-0.81254-1.2427-1.12-0.65765-0.30742-1.5064-0.46481-2.2365-0.42297-0.73008 0.0418-1.3446 0.28238-1.7808 0.64807-0.43628 0.36568-0.69476 0.85678-1.1115 0.99892-0.41676 0.14214-0.99196-0.0645-1.3752-0.0684-0.38326-4e-3 -0.57492 0.19507-0.44581 0.46161 0.12911 0.26655 0.57936 0.60137 1.2221 0.76559 0.64278 0.16421 1.478 0.15787 2.0893-0.10758 0.61132-0.26546 0.99823-0.78987 1.5545-0.96377s1.2816 3e-3 1.6445 0.0914c0.36285 0.0885 0.36292 0.0883 0.51959 0.16843z"/>
    <path d="m105.03 139.61c0.16595 0.0586 0.49805 0.17587 0.76949 0.0947 0.27144-0.0812 0.48197-0.36084 0.3227-0.69675-0.15926-0.33592-0.68799-0.72745-1.3807-0.94462s-1.5549-0.26019-2.2729-0.12157-1.295 0.45881-1.6788 0.8793c-0.38374 0.4205-0.57456 0.94163-0.96869 1.138-0.39414 0.19634-0.99172 0.0681-1.3721 0.11527-0.38036 0.0472-0.54385 0.26984-0.38041 0.51684s0.65424 0.51892 1.3132 0.59612c0.65892 0.0772 1.4859-0.0402 2.0564-0.3847 0.57055-0.34446 0.88424-0.9157 1.4124-1.1621 0.52817-0.24639 1.2706-0.16764 1.642-0.12825 0.37139 0.0394 0.37144 0.0392 0.53738 0.0978z"/>
    <path d="m109.08 137.24c0.17592 5e-3 0.52797 0.0152 0.76159-0.14511 0.23361-0.16032 0.34858-0.49091 0.0943-0.76205-0.25433-0.27114-0.87745-0.4823-1.6034-0.4773s-1.56 0.22761-2.2013 0.5791-1.0928 0.83275-1.3296 1.3504c-0.23681 0.51767-0.25919 1.0722-0.57443 1.3796s-0.92343 0.368-1.2712 0.52921c-0.34773 0.16122-0.43532 0.42318-0.2042 0.60839s0.78155 0.29407 1.4325 0.16614 1.4024-0.49257 1.8404-0.99496c0.43793-0.50239 0.56197-1.1422 0.98953-1.5382 0.42757-0.39606 1.1585-0.54805 1.5242-0.62408 0.36565-0.076 0.36565-0.0762 0.54156-0.0711z"/>
    <path d="m112.3 134.12c0.17153-0.0394 0.51479-0.11816 0.70054-0.3321 0.18575-0.21395 0.2138-0.56283-0.10059-0.76123-0.31438-0.1984-0.97058-0.24593-1.6719-0.0584-0.70131 0.18755-1.4525 0.61292-1.9846 1.1145-0.53216 0.50158-0.84799 1.081-0.94689 1.6416s0.019 1.1029-0.2087 1.4798c-0.22771 0.37688-0.80107 0.58857-1.097 0.83213-0.29596 0.24355-0.3148 0.51912-0.0445 0.64019 0.27029 0.12108 0.83042 0.0879 1.4282-0.19976s1.2333-0.82968 1.5307-1.4261c0.29739-0.59645 0.25641-1.2469 0.57053-1.7378 0.31413-0.49091 0.9833-0.82199 1.318-0.9876s0.33466-0.16583 0.5062-0.2052z"/>
   </g>
  </g>
  <path d="m103.01 216.09 0.23636-1.1521 1.9771 1.7554z" fill="#ff7f2a"/>
  <path d="m105.23 216.69-1.9771-1.7554 0.76895-8.0486 5.6389-3.3849 0.98634 6.046z" fill="#ff9955"/>
  <path d="m110.64 209.55-0.98634-6.046 4.2065 0.0586z" fill="#ffffff"/>
  <path d="m109.66 203.5 4.2065 0.0586 3.3955-5.8537-1.0916-3.2565z" fill="#ffccaa"/>
  <path d="m117.26 197.71-1.0916-3.2565 1.8107-0.38689z" fill="#ffe6d5"/>
  <path d="m116.17 194.45 2.3187-5.7925-0.508 5.4056z" fill="#ffb380"/>
  <path d="m103.01 216.09 2.2134 0.60332 5.4172-7.143 3.2599-6.0404 3.3558-5.8007 0.71909-3.6434 0.508-5.4056" fill="none" stroke="#000000" stroke-linecap="round" stroke-linejoin="round" stroke-width=".3"/>
  <g fill="#ffe680" stroke="#000000">
   <path d="m127.65 128.67c-0.10603 0.29127-0.21221 0.58296-0.0146 0.8539 0.19756 0.27094 0.69922 0.5223 1.3608 0.57214 0.66156 0.0498 1.483-0.10175 2.0388-0.46955 0.55579-0.36779 0.84554-0.95153 1.3631-1.2196 0.51751-0.26804 1.2626-0.2201 1.6353-0.19612 0.3727 0.024 0.37273 0.0237 0.54097 0.0754s0.50489 0.15508 0.77274 0.0627c0.26784-0.0924 0.4666-0.3805 0.29356-0.70953-0.17303-0.32902-0.71753-0.69831-1.4187-0.88658-0.70113-0.18828-1.5644-0.19554-2.276-0.0273-0.71167 0.16826-1.2749 0.51207-1.6578 0.94244-0.38292 0.43036-0.58491 0.94513-0.79468 1.1722-0.20977 0.2271-0.42503 0.16179-0.64144 0.0961" stroke-linecap="round" stroke-linejoin="round" stroke-width=".14148px"/>
   <g>
    <g stroke-width=".14148px">
     <path d="m139.11 127.17c0.17136 0.0401 0.51429 0.12036 0.77522 0.01 0.26093-0.11041 0.43962-0.41138 0.24459-0.72786-0.19504-0.31649-0.76342-0.64787-1.4757-0.78807s-1.574-0.0888-2.2726 0.12737c-0.69857 0.21621-1.2371 0.59756-1.5726 1.0575-0.33545 0.45992-0.46815 0.9988-0.83846 1.2371-0.37031 0.23825-0.97832 0.1761-1.3512 0.2646s-0.51109 0.32769-0.32163 0.55533c0.18945 0.22765 0.70706 0.44428 1.3705 0.44897 0.66341 5e-3 1.4726-0.20245 2.002-0.60722 0.52947-0.40476 0.77882-1.0069 1.2769-1.3096s1.2447-0.3057 1.6181-0.3072c0.37347-2e-3 0.37355-9.4e-4 0.54491 0.0392z"/>
     <path d="m143.2 125.47c0.17514 0.0173 0.52564 0.0519 0.76985-0.0918 0.2442-0.14367 0.3819-0.46547 0.14707-0.75366-0.23484-0.28818-0.84174-0.54219-1.5663-0.58774-0.72453-0.0456-1.5721 0.11846-2.2363 0.42446s-1.1481 0.75465-1.4204 1.2546-0.3332 1.0515-0.66907 1.3363c-0.33588 0.28473-0.9468 0.3028-1.3049 0.4394-0.3581 0.13661-0.46371 0.39184-0.24606 0.59269 0.21766 0.20084 0.7592 0.34776 1.4175 0.26546 0.65831-0.0823 1.4334-0.39372 1.9052-0.8644 0.47185-0.47068 0.64012-1.1003 1.0942-1.4656 0.4541-0.36533 1.1939-0.46607 1.5639-0.51647 0.37005-0.0504 0.37004-0.0505 0.54518-0.0332z"/>
     <path d="m147.61 123.89c0.17514 0.0173 0.52563 0.0519 0.76984-0.0918 0.2442-0.14367 0.38191-0.46546 0.14707-0.75365-0.23483-0.2882-0.84174-0.54221-1.5663-0.58776-0.72454-0.0455-1.5721 0.11847-2.2363 0.42447s-1.1481 0.75465-1.4204 1.2546c-0.27227 0.49993-0.33319 1.0515-0.66907 1.3363s-0.94679 0.30281-1.3049 0.43942-0.46373 0.39185-0.24606 0.5927c0.21766 0.20085 0.7592 0.34776 1.4175 0.26546 0.65831-0.0823 1.4334-0.39373 1.9052-0.86441 0.47184-0.47067 0.64012-1.1003 1.0942-1.4656s1.1939-0.46608 1.5639-0.51647c0.37006-0.0504 0.37005-0.0506 0.54519-0.0333z"/>
     <path d="m151.69 121.84c0.17596 3e-3 0.52813 9e-3 0.75977-0.15467 0.23164-0.16322 0.34256-0.49519 0.0849-0.76322-0.25762-0.26802-0.88327-0.47155-1.6091-0.4577-0.72583 0.0139-1.5571 0.24663-2.1941 0.60592-0.63693 0.3593-1.0825 0.84602-1.3131 1.3665-0.23054 0.52052-0.24628 1.0753-0.55781 1.3865-0.31154 0.31125-0.91894 0.37925-1.2647 0.5447-0.34573 0.16544-0.43012 0.42846-0.19676 0.61084 0.23337 0.18238 0.78509 0.28451 1.4345 0.14865 0.64936-0.13585 1.3963-0.50962 1.8281-1.0173 0.43177-0.50769 0.54799-1.1489 0.9707-1.5502s1.1518-0.56214 1.5165-0.64263c0.36469-0.0805 0.36505-0.0803 0.54101-0.0775z"/>
     <path d="m155.96 119.87c0.17596 3e-3 0.5281 9e-3 0.75975-0.15467 0.23165-0.16322 0.34257-0.49521 0.0849-0.76323-0.25762-0.26802-0.88327-0.47155-1.6091-0.4577-0.72583 0.0139-1.5571 0.24663-2.194 0.60592-0.63694 0.35928-1.0825 0.84602-1.3131 1.3665-0.23054 0.52052-0.24628 1.0753-0.55782 1.3865-0.31155 0.31126-0.91892 0.37926-1.2646 0.5447s-0.43013 0.42848-0.19677 0.61085c0.23336 0.18238 0.78509 0.28451 1.4344 0.14866 0.64937-0.13586 1.3964-0.50963 1.8281-1.0173s0.548-1.1489 0.9707-1.5502c0.4227-0.40125 1.1518-0.56215 1.5165-0.64264 0.36469-0.0805 0.36506-0.0803 0.54103-0.0775z"/>
     <path d="m160.24 117.91c0.17596 3e-3 0.52812 9e-3 0.75977-0.15467 0.23165-0.16322 0.34257-0.49519 0.085-0.76321-0.25761-0.26802-0.88326-0.47155-1.6091-0.4577-0.72583 0.0139-1.5571 0.24663-2.1941 0.60591-0.63693 0.35929-1.0825 0.84602-1.3131 1.3665-0.23054 0.52052-0.24628 1.0753-0.55782 1.3865-0.31154 0.31123-0.91893 0.3792-1.2647 0.54464-0.34573 0.16543-0.43012 0.42846-0.19677 0.61083s0.78509 0.28451 1.4344 0.14865c0.64937-0.13585 1.3964-0.50962 1.8281-1.0173 0.43177-0.50768 0.54799-1.1489 0.9707-1.5502s1.1518-0.56214 1.5165-0.64263c0.3647-0.0805 0.36506-0.0802 0.54102-0.0774z"/>
     <path d="m164.08 115.47c0.17523-0.0163 0.52592-0.049 0.73835-0.23649 0.21242-0.18749 0.2864-0.52958 1e-3 -0.76785-0.28537-0.23826-0.92951-0.37221-1.6495-0.27912-0.71996 0.0931-1.5208 0.41529-2.1147 0.84203-0.59387 0.42675-0.9836 0.95924-1.1558 1.5018s-0.12713 1.0957-0.40273 1.4392c-0.27561 0.34342-0.87192 0.47737-1.1975 0.6796-0.32559 0.20224-0.38073 0.47291-0.12884 0.62868s0.81149 0.19701 1.4421-9e-3 1.3323-0.65916 1.706-1.211c0.37371-0.55183 0.41917-1.202 0.7955-1.647 0.37634-0.44503 1.0834-0.68463 1.4372-0.80449s0.35371-0.12007 0.52894-0.13639z"/>
     <path d="m167.8 112.67c0.17364-0.0287 0.52113-0.0861 0.71974-0.2882 0.19861-0.20205 0.24817-0.54854-0.0534-0.766-0.30152-0.21745-0.95353-0.30544-1.6651-0.16159-0.71156 0.14385-1.4876 0.522-2.0497 0.98973-0.56213 0.46773-0.91316 1.0265-1.0465 1.5799s-0.0492 1.102-0.29975 1.4641c-0.25057 0.36209-0.83593 0.53795-1.1464 0.76273s-0.34626 0.49867-0.084 0.63631c0.2623 0.13765 0.82339 0.13931 1.4378-0.11075 0.61445-0.25007 1.2823-0.75179 1.616-1.3287 0.3337-0.57691 0.33304-1.2286 0.67692-1.6992 0.34388-0.47057 1.0322-0.75965 1.3766-0.90427s0.34412-0.14536 0.51775-0.17406z"/>
     <path d="m171.73 109.93c0.17393-0.0269 0.52198-0.0806 0.72273-0.28055 0.20075-0.19994 0.25398-0.54589-0.0452-0.76653-0.29919-0.22064-0.95021-0.31554-1.6633-0.17925-0.71307 0.13629-1.4931 0.50617-2.0602 0.96791-0.56707 0.46173-0.92403 1.0168-1.0632 1.5687-0.13922 0.55199-0.0609 1.1014-0.31527 1.4608-0.2544 0.3594-0.84159 0.52904-1.1544 0.7505-0.31281 0.22146-0.35155 0.49497-0.0907 0.63531 0.26081 0.14033 0.82187 0.1478 1.439-0.0958 0.61708-0.24361 1.2902-0.73821 1.63-1.3116 0.33979-0.57333 0.34599-1.225 0.69483-1.6919s1.0402-0.74862 1.3861-0.88955c0.34586-0.14094 0.34577-0.14125 0.51971-0.16811z"/>
     <path d="m175.32 106.94c0.1717-0.0386 0.51531-0.11593 0.70199-0.32908s0.21627-0.5619-0.0972-0.76166c-0.31351-0.19977-0.96951-0.25015-1.6717-0.0657-0.70216 0.18444-1.4553 0.60642-1.9896 1.1056-0.53437 0.49919-0.85275 1.0772-0.95409 1.6374s0.0142 1.103-0.21514 1.4789c-0.22936 0.37589-0.80361 0.58508-1.1006 0.82734-0.29701 0.24225-0.31705 0.51776-0.0473 0.64001 0.26976 0.12225 0.83002 0.0915 1.4291-0.19355 0.59906-0.28505 1.2369-0.82431 1.5369-1.4194 0.29998-0.59513 0.26182-1.2457 0.57806-1.7353 0.31623-0.48959 0.9868-0.81784 1.3222-0.98205 0.33544-0.1642 0.33573-0.16375 0.50742-0.20238z"/>
     <path d="m178.26 103.63c0.16515-0.0608 0.49566-0.18249 0.65279-0.41826 0.15712-0.23578 0.14073-0.58542-0.19627-0.74236-0.33699-0.15694-0.99392-0.12089-1.6658 0.15405-0.67188 0.27495-1.3631 0.79211-1.8274 1.3571-0.46429 0.56499-0.70413 1.1798-0.73116 1.7484-0.027 0.56864 0.15868 1.0916-0.0194 1.4943-0.17811 0.40268-0.72002 0.68534-0.98272 0.96442-0.26271 0.27909-0.24646 0.55484 0.037 0.64068 0.28344 0.0858 0.83485-0.0181 1.3914-0.37921 0.55654-0.36112 1.1182-0.97933 1.3376-1.6086 0.21939-0.62932 0.0963-1.2693 0.34564-1.7961 0.24936-0.52678 0.87116-0.94001 1.1822-1.1467 0.31105-0.20671 0.31098-0.20685 0.47614-0.26766z"/>
     <path d="m181.54 100.29c0.16516-0.0608 0.49566-0.18249 0.65279-0.41826 0.15713-0.23577 0.14074-0.58541-0.19626-0.74236s-0.99394-0.1209-1.6658 0.15404-1.3631 0.79212-1.8274 1.3571c-0.46429 0.56499-0.70413 1.1797-0.73116 1.7484-0.027 0.56863 0.15868 1.0916-0.0194 1.4943-0.17811 0.4027-0.71999 0.68535-0.9827 0.96444-0.2627 0.2791-0.24646 0.55485 0.037 0.64069 0.28345 0.0858 0.83485-0.0181 1.3914-0.37921 0.55654-0.36113 1.1182-0.97935 1.3376-1.6087s0.0963-1.2693 0.34563-1.7961c0.24935-0.52677 0.87116-0.94001 1.1822-1.1467s0.31098-0.20687 0.47613-0.26767z"/>
     <path d="m184.32 96.658c0.15959-0.07417 0.479-0.2226 0.61627-0.47048s0.0923-0.59501-0.25642-0.72388c-0.34873-0.12887-1.0005-0.03923-1.6476 0.28973-0.64715 0.32896-1.2938 0.90092-1.7103 1.502-0.41652 0.60107-0.60528 1.2334-0.58578 1.8023s0.24723 1.075 0.1026 1.491c-0.14463 0.41596-0.66159 0.74201-0.90058 1.0416-0.23898 0.29963-0.20024 0.57315 0.0893 0.63552 0.28953 0.0624 0.83058-0.0863 1.3557-0.49172s1.0344-1.0675 1.2016-1.7126c0.16718-0.64515-8e-3 -1.2729 0.1976-1.8183 0.20544-0.54541 0.79137-1.0081 1.0845-1.2396s0.29358-0.23143 0.45318-0.30559z"/>
     <path d="m187.3 93.027c0.15959-0.07417 0.47897-0.22258 0.61625-0.47048 0.13729-0.24789 0.0923-0.59502-0.2564-0.72389-0.34872-0.12887-1.0005-0.03923-1.6477 0.28973-0.64714 0.32896-1.2937 0.90092-1.7103 1.502s-0.60529 1.2334-0.58579 1.8023 0.24724 1.0751 0.1026 1.491c-0.14464 0.41595-0.66159 0.742-0.90057 1.0416-0.23899 0.29964-0.20024 0.57317 0.0893 0.63553 0.28952 0.06236 0.83059-0.08631 1.3557-0.49172 0.52513-0.40542 1.0344-1.0675 1.2016-1.7127s-8e-3 -1.2729 0.19759-1.8183c0.20543-0.54541 0.79138-1.0081 1.0845-1.2396 0.2931-0.23146 0.29358-0.23142 0.45318-0.30558z"/>
     <path d="m190.3 89.396c0.15959-0.07416 0.47899-0.22259 0.61627-0.47048 0.13729-0.24789 0.0923-0.59501-0.25639-0.72388-0.34872-0.12886-1.0005-0.03921-1.6477 0.28976-0.64714 0.32897-1.2938 0.90093-1.7103 1.502-0.41653 0.60106-0.60529 1.2334-0.58579 1.8023 0.0195 0.56896 0.24724 1.0751 0.10259 1.491s-0.66161 0.74195-0.90061 1.0416c-0.23899 0.29963-0.20025 0.57314 0.0893 0.63551 0.28952 0.06236 0.83058-0.0863 1.3557-0.49172 0.52514-0.40542 1.0344-1.0675 1.2016-1.7127s-8e-3 -1.2729 0.1976-1.8183c0.20545-0.54541 0.79137-1.0081 1.0845-1.2396 0.2931-0.23146 0.29363-0.23139 0.45322-0.30556z"/>
     <path d="m81.398 102.02c0.14409 0.10104 0.43246 0.30324 0.71574 0.29794 0.28328-5e-3 0.56121-0.21805 0.49807-0.58441-0.06314-0.36635-0.46722-0.88557-1.0761-1.281s-1.4277-0.66867-2.1566-0.72818c-0.72884-0.05951-1.3707 0.09384-1.8533 0.39574-0.48261 0.30191-0.80646 0.7526-1.2389 0.8358-0.4324 0.0832-0.97353-0.20091-1.3526-0.25766-0.37905-0.0568-0.59636 0.11377-0.50531 0.3956 0.09105 0.28182 0.49074 0.67564 1.1047 0.92707 0.61394 0.25143 1.442 0.36054 2.0842 0.18208s1.0978-0.6444 1.6728-0.73983c0.57497-0.0954 1.269 0.17983 1.6161 0.31753s0.34703 0.13825 0.49112 0.23929z"/>
     <path d="m85.833 101.97c0.1561 0.0813 0.4685 0.24393 0.74864 0.20155 0.28014-0.0424 0.52779-0.28976 0.41717-0.64467s-0.57926-0.81667-1.2347-1.1288c-0.65545-0.3121-1.5031-0.47553-2.2335-0.43891-0.73037 0.03662-1.3466 0.27278-1.7854 0.63536-0.43888 0.36257-0.70084 0.8518-1.1186 0.99096s-0.99146-0.0716-1.3747-0.0782c-0.38322-7e-3 -0.57629 0.19096-0.44909 0.45841 0.1272 0.26746 0.57506 0.60549 1.2167 0.7743 0.6416 0.16882 1.4769 0.16848 2.0901-0.0926 0.61319-0.26106 1.0038-0.7827 1.5613-0.95263s1.2816 0.0121 1.6438 0.10313c0.3622 0.091 0.36225 0.0908 0.51835 0.17205z"/>
     <path d="m90.505 102.14c0.1561 0.0813 0.46849 0.24393 0.74863 0.20156 0.28014-0.0424 0.52778-0.28974 0.41717-0.64466s-0.57925-0.81669-1.2347-1.1288c-0.65545-0.31211-1.5031-0.47554-2.2335-0.43891-0.73037 0.0366-1.3466 0.27278-1.7854 0.63535-0.43888 0.36258-0.70084 0.85181-1.1186 0.99097-0.41776 0.13917-0.99146-0.0716-1.3747-0.0782-0.38322-7e-3 -0.5763 0.19096-0.4491 0.45843 0.12721 0.26746 0.57506 0.60549 1.2167 0.7743 0.6416 0.16882 1.4769 0.16848 2.0901-0.0926 0.61319-0.26107 1.0038-0.78272 1.5613-0.95265 0.55749-0.16993 1.2816 0.0121 1.6438 0.10313 0.36221 0.091 0.36226 0.0907 0.51836 0.17202z"/>
     <path d="m95.06 101.76c0.16224 0.0682 0.48695 0.20461 0.76271 0.1394 0.27576-0.0652 0.50234-0.33199 0.36307-0.67668-0.13927-0.34468-0.64411-0.76658-1.3229-1.024-0.67877-0.25746-1.537-0.35103-2.2619-0.25479-0.72493 0.09623-1.3197 0.382-1.7275 0.77921-0.40781 0.39722-0.62902 0.90619-1.0341 1.079-0.40504 0.17284-0.99408 0.01-1.3766 0.0345-0.38247 0.0248-0.55875 0.23745-0.4101 0.49362s0.62265 0.55643 1.2759 0.67219 1.4857 0.0471 2.0755-0.26329c0.58979-0.31037 0.93646-0.86219 1.4782-1.0771 0.54173-0.21496 1.2783-0.0928 1.6467-0.0316 0.36843 0.0611 0.3687 0.0614 0.53095 0.12958z"/>
     <path d="m99.755 101.52c0.16225 0.0682 0.48693 0.20461 0.7627 0.1394 0.27577-0.0652 0.50236-0.33199 0.36308-0.67668-0.13927-0.34469-0.64412-0.76659-1.3229-1.024-0.67877-0.25746-1.5369-0.35102-2.2619-0.25479-0.72492 0.09623-1.3197 0.382-1.7275 0.77921s-0.62903 0.9062-1.0341 1.079c-0.40505 0.17284-0.99406 0.01-1.3765 0.0345-0.38247 0.0248-0.55876 0.23745-0.41011 0.49362 0.14865 0.25616 0.62265 0.55643 1.2759 0.67219 0.65325 0.11576 1.4857 0.0471 2.0755-0.26328 0.58979-0.31036 0.93647-0.86221 1.4782-1.0772 0.54173-0.21496 1.2783-0.0928 1.6467-0.0316 0.36844 0.0611 0.3687 0.0614 0.53095 0.12959z"/>
     <path d="m104.46 101.3c0.16224 0.0682 0.48693 0.20461 0.7627 0.13941s0.50235-0.33198 0.36309-0.67667c-0.13926-0.34468-0.64411-0.76658-1.3229-1.024-0.67878-0.25746-1.537-0.35102-2.2619-0.2548-0.72492 0.09623-1.3197 0.38199-1.7275 0.7792-0.40782 0.39722-0.62903 0.9062-1.0341 1.079-0.40504 0.17282-0.99405 0.01-1.3765 0.0345-0.38247 0.0248-0.55875 0.23745-0.4101 0.49361 0.14865 0.25616 0.62265 0.55643 1.2759 0.6722 0.65325 0.11576 1.4857 0.0471 2.0755-0.26327 0.58979-0.31035 0.93647-0.8622 1.4782-1.0772 0.54174-0.21496 1.2783-0.0928 1.6467-0.0316 0.36844 0.0611 0.36868 0.0615 0.53092 0.12964z"/>
     <path d="m108.93 100.46c0.16871 0.0501 0.50632 0.15039 0.77329 0.0555 0.26698-0.0949 0.46304-0.38482 0.28694-0.71222-0.1761-0.3274-0.72402-0.69161-1.4269-0.87335s-1.5661-0.18098-2.2762-0.0061c-0.71008 0.17487-1.2701 0.52392-1.632 0.96334-0.36191 0.43941-0.52606 0.96956-0.90974 1.1856-0.38368 0.21607-0.98698 0.1183-1.3645 0.18473-0.37748 0.0664-0.52946 0.29711-0.35371 0.53548 0.17576 0.23837 0.67976 0.48506 1.3417 0.52873 0.66198 0.0437 1.4819-0.11556 2.0343-0.48851s0.83665-0.95939 1.3516-1.2322c0.515-0.27286 1.2605-0.23188 1.6334-0.21138 0.37291 0.0205 0.37299 0.0203 0.54169 0.0704z"/>
     <path d="m113.43 99.247c0.17184 0.03803 0.51572 0.11414 0.77529 5.8e-4s0.43461-0.41666 0.23576-0.73076c-0.19884-0.3141-0.77118-0.63858-1.4851-0.77009-0.71396-0.1315-1.575-0.06958-2.2709 0.15515-0.69589 0.22473-1.2298 0.61257-1.5596 1.0765-0.32988 0.46396-0.45605 1.0044-0.82344 1.2471-0.36739 0.24273-0.97612 0.18793-1.3479 0.28094-0.37182 0.093-0.50707 0.33383-0.31491 0.55926 0.19216 0.22542 0.71227 0.43594 1.3757 0.4327 0.66338-3e-3 1.47-0.22015 1.9946-0.63128s0.76665-1.0162 1.261-1.3249c0.49439-0.30866 1.2409-0.32059 1.6143-0.32656 0.37344-6e-3 0.37351-0.0067 0.54534 0.03129z"/>
     <path d="m118.44 99.044c0.16396 0.06396 0.49206 0.19195 0.766 0.11958 0.27393-0.07236 0.49343-0.345 0.34517-0.68591-0.14827-0.34091-0.66399-0.7494-1.3493-0.98896-0.6853-0.23956-1.5456-0.31056-2.2678-0.19533s-1.3093 0.4165-1.7064 0.82431c-0.39719 0.40782-0.60482 0.92247-1.0051 1.1059-0.4003 0.18343-0.99341 0.03583-1.3751 0.07064-0.38169 0.03481-0.55233 0.25203-0.39702 0.50421 0.15532 0.25218 0.63703 0.53992 1.2931 0.6385 0.65606 0.0986 1.4864 8e-3 2.0679-0.31766 0.58143-0.32574 0.9135-0.8865 1.4494-1.1156 0.5359-0.22908 1.2754-0.12624 1.6453-0.0748 0.36991 0.05144 0.36999 0.05113 0.53396 0.11509z"/>
     <path d="m123.04 98.26c0.16793 0.05265 0.504 0.15803 0.77238 0.06719 0.26839-0.09084 0.46882-0.37776 0.2977-0.70779s-0.71347-0.70248-1.4135-0.89492-1.5632-0.20488-2.2758-0.04086c-0.71263 0.16402-1.2779 0.50454-1.6464 0.93843-0.36852 0.43389-0.54066 0.96149-0.92755 1.1717-0.3869 0.21025-0.98866 0.10336-1.3671 0.16407-0.37844 0.06071-0.5339 0.28904-0.36178 0.53006 0.17213 0.24102 0.67232 0.4953 1.3336 0.54899 0.66125 0.0537 1.4835-0.09313 2.0414-0.45768 0.55792-0.36455 0.85107-0.9466 1.3701-1.2117 0.51907-0.26508 1.2638-0.21292 1.6364-0.18684s0.37259 0.02663 0.54051 0.07928z"/>
     <path d="m127.25 96.867c0.17338 0.03019 0.52036 0.09059 0.77452-0.03464 0.25415-0.12523 0.41526-0.43598 0.20235-0.74072-0.21291-0.30474-0.79939-0.60288-1.5186-0.70182-0.71919-0.09894-1.5765 2e-3 -2.2615 0.25812-0.68498 0.2561-1.2007 0.66778-1.5092 1.1462-0.30847 0.47847-0.40996 1.0241-0.76595 1.2832-0.35598 0.25914-0.96658 0.23203-1.3338 0.34181-0.36722 0.10978-0.49141 0.35652-0.28919 0.57289 0.20223 0.21637 0.73143 0.40289 1.394 0.36944 0.66259-0.03345 1.4585-0.28677 1.9638-0.72131 0.50532-0.43454 0.71964-1.05 1.1995-1.3808 0.47985-0.33079 1.225-0.37661 1.5978-0.39953 0.37277-0.02292 0.37278-0.02308 0.54617 0.0071z"/>
     <path d="m131.76 95.62c0.17338 0.03019 0.52036 0.0906 0.77451-0.03463 0.25415-0.12522 0.41526-0.43597 0.20235-0.74072-0.2129-0.30475-0.7994-0.60291-1.5186-0.70184-0.71919-0.09894-1.5765 2e-3 -2.2615 0.25812-0.68498 0.2561-1.2007 0.66778-1.5092 1.1462-0.30846 0.47846-0.40995 1.0241-0.76595 1.2832-0.356 0.25915-0.96656 0.23204-1.3338 0.34183-0.36723 0.10978-0.49142 0.35652-0.28919 0.5729s0.73142 0.40289 1.394 0.36944c0.6626-0.03345 1.4585-0.28678 1.9638-0.72132 0.50532-0.43454 0.71963-1.05 1.1995-1.3808 0.47984-0.33079 1.225-0.37661 1.5978-0.39954 0.37278-0.02292 0.37279-0.02309 0.54617 0.0071z"/>
     <path d="m135.98 93.873c0.17528 0.01584 0.52606 0.04754 0.76911-0.09813s0.37816-0.46856 0.14103-0.75489-0.84603-0.53553-1.5709-0.57533c-0.72487-0.0398-1.5711 0.13093-2.2328 0.44219-0.66174 0.31126-1.1421 0.76374-1.4104 1.2658-0.26836 0.50207-0.32503 1.0541-0.65871 1.3415-0.33367 0.2874-0.94443 0.31034-1.3014 0.44979-0.357 0.13945-0.46059 0.39553-0.24134 0.59465 0.21925 0.19912 0.76193 0.34173 1.4196 0.2542 0.65763-0.08752 1.4302-0.40509 1.8983-0.87949 0.46809-0.4744 0.63137-1.1053 1.0826-1.4742 0.45119-0.36892 1.1901-0.47553 1.5598-0.52886s0.37004-0.05306 0.54531-0.03722z"/>
     <path d="m140.38 92.228c0.17528 0.01584 0.52602 0.04753 0.76909-0.09813 0.24306-0.14566 0.37818-0.46856 0.14105-0.75489-0.23712-0.28633-0.84602-0.53553-1.5709-0.57534-0.72487-0.0398-1.5711 0.13093-2.2328 0.44218s-1.1421 0.76375-1.4104 1.2658-0.32503 1.0542-0.65872 1.3415c-0.33368 0.28739-0.94443 0.31035-1.3014 0.4498-0.357 0.13945-0.4606 0.39556-0.24135 0.59466 0.21925 0.19911 0.76194 0.34172 1.4196 0.2542 0.65763-0.08752 1.4302-0.4051 1.8983-0.8795 0.46808-0.47441 0.63136-1.1053 1.0825-1.4743s1.1902-0.47554 1.5598-0.52887c0.36965-0.05333 0.37005-0.05306 0.54532-0.03722z"/>
     <path d="m144.8 90.59c0.17527 0.01584 0.52604 0.04754 0.7691-0.09812 0.24306-0.14566 0.37818-0.46855 0.14105-0.75488s-0.84604-0.53552-1.5709-0.57531c-0.72486-0.03979-1.5711 0.13094-2.2328 0.44219s-1.1421 0.76374-1.4104 1.2658-0.32504 1.0542-0.65872 1.3415-0.94443 0.31029-1.3014 0.44973c-0.357 0.13944-0.4606 0.39552-0.24136 0.59463 0.21924 0.19911 0.76194 0.34173 1.4196 0.2542 0.65762-0.08752 1.4302-0.4051 1.8983-0.87949 0.46809-0.4744 0.63138-1.1053 1.0826-1.4743 0.45119-0.36892 1.1901-0.47553 1.5598-0.52886 0.36965-0.05333 0.37007-0.053 0.54534-0.03717z"/>
     <path d="m148.81 88.437c0.17596-0.0033 0.5281-0.01001 0.7538-0.18129 0.22569-0.17128 0.32474-0.50699 0.0578-0.76568-0.26699-0.25869-0.89948-0.43985-1.6244-0.40021-0.72487 0.03965-1.5474 0.30183-2.1711 0.68353-0.62377 0.38171-1.0518 0.88396-1.2636 1.4123-0.21185 0.52838-0.20775 1.0833-0.50798 1.4055-0.30023 0.32212-0.90482 0.41166-1.2444 0.58928s-0.41462 0.44351-0.17492 0.61746c0.2397 0.17394 0.79472 0.2564 1.4388 0.09755 0.64412-0.15886 1.3773-0.55895 1.7908-1.0817 0.41345-0.52272 0.5068-1.1677 0.91498-1.5837 0.40818-0.41602 1.131-0.60273 1.4926-0.69614 0.36161-0.0934 0.36166-0.09361 0.53762-0.09694z"/>
     <path d="m152.87 86.374c0.1759-0.0056 0.52793-0.01666 0.75145-0.19076 0.22353-0.1741 0.31835-0.51103 0.0481-0.76635-0.27021-0.25532-0.90493-0.42853-1.6292-0.37977-0.72432 0.04875-1.5435 0.32125-2.1624 0.71076-0.6189 0.38951-1.0406 0.8971-1.2457 1.4281s-0.19408 1.0858-0.49021 1.4117c-0.29613 0.32588-0.89956 0.423-1.2369 0.60489s-0.409 0.44865-0.16715 0.61968c0.24186 0.17103 0.79783 0.24668 1.4399 0.07983 0.64206-0.16685 1.3702-0.57611 1.7771-1.104 0.40687-0.52786 0.49216-1.174 0.8951-1.5951 0.40294-0.42111 1.1234-0.61689 1.4838-0.71483 0.36042-0.09794 0.36028-0.0987 0.53619-0.10425z"/>
     <path d="m157.79 85.33c0.17294 0.03265 0.51902 0.09799 0.77493-0.02361 0.2559-0.12159 0.42141-0.43002 0.21287-0.73777-0.20855-0.30775-0.79075-0.61421-1.5085-0.72337s-1.5764-0.02041-2.2649 0.22592c-0.68855 0.24633-1.2101 0.65064-1.5253 1.1247-0.31524 0.47402-0.42448 1.0181-0.78414 1.2722-0.35965 0.25406-0.96975 0.21827-1.3385 0.32282-0.36875 0.10455-0.49645 0.3495-0.29732 0.56873s0.72562 0.41325 1.3886 0.38923c0.663-0.02403 1.4625-0.266 1.9739-0.69332 0.51145-0.42731 0.7345-1.0396 1.219-1.3636s1.2303-0.35915 1.6033-0.37678c0.37307-0.01762 0.37307-0.01778 0.54601 0.01487z"/>
    </g>
    <path d="m189.09 92.254c0.44694-0.18669 1.3396-0.55957 1.7966-1.2773 0.45704-0.71777 0.47964-1.7799 0.17479-2.446-0.30486-0.66605-0.93763-0.93724-1.3447-1.4575-0.4071-0.52024-0.58767-1.2877-0.92101-1.2087-0.33333 0.07896-0.81803 1.0033-0.59189 1.711 0.22614 0.70778 1.1628 1.1931 1.4002 1.6785 0.23738 0.48548-0.22548 0.97092-0.45761 1.1912-0.23213 0.2203-0.23213 0.1752-0.27064 0.29614-0.0385 0.12095-0.11936 0.42124-0.16469 0.63626-0.0453 0.21501-0.0566 0.35006-0.0735 0.46337s-0.0394 0.20298-0.0394 0.2999c-8e-5 0.09692 0.0222 0.1973 0.0336 0.24851 0.0114 0.05122 0.0114 0.05122 0.4583-0.13548z" stroke-width=".15"/>
    <path d="m190.75 87.824c0.0396-0.2774 0.11872-0.83107-0.0392-1.4006-0.15795-0.56958-0.55423-1.1583-1.0111-1.4182-0.45689-0.25986-0.97631-0.19211-1.4854-0.15246-0.50907 0.03965-1.0048 0.05092-1.4015-0.09059-0.39675-0.1415-0.68853-0.43328-0.77376-0.21794-0.0852 0.21534 0.0384 0.93496 0.38926 1.3252 0.3508 0.39028 0.92705 0.44677 1.3338 0.41261 0.40675-0.03416 0.64441-0.15865 0.83041-0.22048 0.186-0.06183 0.32227-0.06183 0.44555 0.05572 0.12328 0.11756 0.2371 0.35659 0.33892 0.53763s0.19204 0.30509 0.28814 0.44641 0.19765 0.29929 0.31657 0.4295c0.11891 0.13021 0.25429 0.23174 0.37853 0.3221 0.12425 0.09036 0.23738 0.16955 0.29378 0.20903 0.0564 0.03948 0.0564 0.03947 0.096-0.23792z" stroke-width=".15"/>
    <g stroke-width=".14148px">
     <path d="m162.37 84.161c0.17233 0.03565 0.51724 0.107 0.77526-0.01011 0.25803-0.11711 0.42896-0.42256 0.2259-0.73398-0.20307-0.31142-0.7797-0.62819-1.4954-0.75009s-1.5758-0.04842-2.2686 0.18564c-0.69282 0.23406-1.2214 0.62904-1.5451 1.0974-0.32367 0.46832-0.4427 1.0104-0.80686 1.258-0.36417 0.24762-0.97359 0.20102-1.3441 0.29899-0.37053 0.09798-0.50255 0.34064-0.30734 0.56338 0.1952 0.22274 0.71817 0.42609 1.3815 0.41385 0.66331-0.01224 1.467-0.23997 1.9859-0.65811 0.51896-0.41814 0.75287-1.0264 1.2431-1.3417 0.4902-0.31527 1.2365-0.33722 1.6098-0.34821 0.37331-0.01098 0.37368-0.01065 0.54602 0.025z"/>
     <path d="m167.29 83.747c0.16676 0.05628 0.50042 0.1689 0.77076 0.08394 0.27033-0.08495 0.47704-0.36744 0.31323-0.70117-0.16381-0.33373-0.6978-0.71808-1.3934-0.92585-0.69559-0.20777-1.5583-0.2391-2.2744-0.09076-0.71608 0.14834-1.2887 0.47632-1.6668 0.90194-0.37806 0.42562-0.56193 0.94928-0.95344 1.1509s-0.99077 0.08152-1.3704 0.13386c-0.37968 0.05234-0.54016 0.27722-0.37339 0.52197 0.16676 0.24475 0.66122 0.51001 1.3211 0.57828 0.6599 0.06827 1.4852-0.06036 2.051-0.41251 0.56583-0.35215 0.87175-0.9276 1.3965-1.1811 0.52478-0.25352 1.2682-0.18485 1.6401-0.1505 0.37189 0.03435 0.37221 0.03472 0.53896 0.091z"/>
     <path d="m171.92 83.067c0.16723 0.05486 0.50188 0.16464 0.77147 0.07739 0.26959-0.08726 0.47388-0.37148 0.30723-0.70381s-0.70391-0.7121-1.4012-0.91392-1.5603-0.2258-2.2751-0.07137c-0.71478 0.15443-1.2846 0.48728-1.659 0.91612s-0.55382 0.95403-0.94359 1.159-0.99003 0.0899-1.3692 0.14547c-0.37923 0.05557-0.53777 0.28178-0.36893 0.5251s0.66555 0.50435 1.326 0.567c0.66047 0.06264 1.4846-0.07302 2.0474-0.42997 0.5628-0.35695 0.86382-0.93499 1.3864-1.193 0.5226-0.25798 1.2666-0.19564 1.6388-0.16446 0.37217 0.03118 0.3725 0.03159 0.53972 0.08645z"/>
     <path d="m176.83 83.263c0.15764 0.07824 0.47314 0.23483 0.7524 0.18704 0.27927-0.0478 0.52206-0.29991 0.40459-0.65262-0.11748-0.35271-0.59498-0.80531-1.2564-1.1047-0.66136-0.29934-1.512-0.44632-2.2416-0.39555-0.72953 0.05077-1.341 0.29883-1.7728 0.66982-0.43178 0.37099-0.68424 0.86522-1.0992 1.0124-0.41501 0.14722-0.99269-0.05237-1.376-0.05151-0.38328 8.53e-4 -0.5725 0.20211-0.44012 0.46704 0.13237 0.26493 0.5867 0.59422 1.2314 0.75054 0.64474 0.15632 1.4799 0.13976 2.0879-0.13316s0.98848-0.80204 1.5426-0.98274c0.5541-0.1807 1.2815-0.01276 1.6454 0.07126 0.36391 0.08402 0.36405 0.08385 0.52169 0.1621z"/>
     <path d="m181.81 83.595c0.1538 0.08556 0.46157 0.25677 0.74277 0.22215 0.2812-0.03462 0.53558-0.27506 0.43481-0.63289-0.10077-0.35783-0.55651-0.83238-1.2031-1.1625s-1.4894-0.51684-2.2205-0.50038c-0.73109 0.01646-1.3536 0.23552-1.8024 0.5858-0.4488 0.35028-0.7243 0.83201-1.1458 0.95956-0.42151 0.12755-0.98919-0.09895-1.3721-0.1161-0.38288-0.01716-0.58135 0.175-0.46163 0.44594 0.11972 0.27095 0.55796 0.62134 1.1946 0.80783s1.4716 0.20918 2.0918-0.03488c0.62017-0.24405 1.0251-0.75468 1.5871-0.90915 0.56199-0.15447 1.2807 0.04746 1.6403 0.14847 0.35957 0.10102 0.36027 0.10054 0.51407 0.1861z"/>
     <path d="m186.39 83.813c0.1538 0.08556 0.46157 0.25677 0.74277 0.22215 0.2812-0.03462 0.53558-0.27506 0.43481-0.63289-0.10077-0.35783-0.55651-0.83238-1.2031-1.1625s-1.4894-0.51684-2.2205-0.50038c-0.73109 0.01646-1.3536 0.23552-1.8024 0.5858-0.4488 0.35028-0.7243 0.83201-1.1458 0.95956-0.42151 0.12755-0.98919-0.09895-1.3721-0.1161-0.38288-0.01716-0.58135 0.175-0.46163 0.44594 0.11972 0.27095 0.55796 0.62134 1.1946 0.80783s1.4716 0.20918 2.0918-0.03488c0.62017-0.24405 1.0251-0.75468 1.5871-0.90915 0.56199-0.15447 1.2807 0.04746 1.6403 0.14847 0.35957 0.10102 0.36027 0.10054 0.51407 0.1861z"/>
    </g>
    <path d="m189.38 84.64c-0.048-0.19211-0.14391-0.57562-0.38301-0.87859-0.2391-0.30297-0.62332-0.5271-0.97857-0.54343-0.35525-0.01634-0.68257 0.17527-1.067 0.27149-0.3844 0.09622-0.82226 0.09622-1.1423 0.06429-0.32001-0.03193-0.5193-0.09571-0.77526-0.12377-0.25595-0.02806-0.5666-0.0201-0.83454 0.03175s-0.49091 0.14741-0.63913 0.24725c-0.14822 0.09984-0.21974 0.20315-0.32419 0.30774-0.10446 0.10459-0.23879 0.20732-0.20245 0.33626 0.0363 0.12895 0.24237 0.27951 0.57806 0.39534s0.7995 0.19579 1.135 0.23567c0.33549 0.03988 0.54359 0.03988 0.79069-0.01202 0.24709-0.0519 0.53611-0.15627 0.82698-0.19602 0.29086-0.03974 0.58773-0.01567 0.71958 0.01565 0.13186 0.03132 0.0998 0.07136 0.25215 0.10012 0.15234 0.02876 0.47093 0.0443 0.75031 0.04027 0.27938-4e-3 0.51176-0.02808 0.6832-0.036 0.17144-0.0079 0.28381 1.08e-4 0.38347-8e-3 0.0997-0.0081 0.18824-0.03225 0.2316-0.04407 0.0434-0.01182 0.0434-0.01182-5e-3 -0.20394z" stroke-width=".15"/>
    <path d="m70.443 98.518c-0.05828 0.0075-0.17455 0.02245-0.34644 0.11762-0.17188 0.09518-0.3938 0.26804-0.44746 0.51605-0.05366 0.24801 0.06522 0.56467 0.51593 0.87431 0.45071 0.30963 1.238 0.61363 1.9557 0.75727s1.3659 0.12807 1.8382 0.0451c0.4723-0.0829 0.76714-0.23304 1.0737-0.18596 0.30657 0.0471 0.62372 0.28973 1.0338 0.25982 0.41008-0.0299 0.90886-0.33081 0.96764-0.66117 0.05878-0.33037-0.32628-0.68869-0.95503-0.96462s-1.4982-0.46859-2.1409-0.42558c-0.64268 0.04301-1.0523 0.3223-1.491 0.33376-0.43865 0.01146-0.90389-0.24657-1.2324-0.40379s-0.52007-0.2135-0.61677-0.2419c-0.0967-0.02841-0.0967-0.02842-0.15499-0.02093z" stroke-width=".14148px"/>
   </g>
   <path d="m109.13 168.19c0.22519 0.22332 0.45071 0.44697 0.78601 0.38758 0.3353-0.0594 0.78162-0.40163 1.1089-0.9764 0.3273-0.57477 0.53562-1.382 0.46721-2.0318-0.0684-0.64981-0.41347-1.1416-0.48567-1.5853-0.0722-0.44365 0.12728-0.83653 0.27989-1.1345s0.25728-0.49906 0.29141-0.66958c0.0341-0.17051-9.2e-4 -0.31296-0.0636-0.62894-0.0627-0.31598-0.15173-0.79893-0.37773-0.88348-0.22601-0.0845-0.5879 0.2331-0.93085 0.72671-0.34294 0.49361-0.66723 1.1648-0.69954 1.7856-0.0323 0.62079 0.22782 1.1882 0.40515 1.7179 0.17733 0.5297 0.27097 1.0186 0.25351 1.3647-0.0175 0.34604-0.14699 0.54258-0.27712 0.74004" stroke-linecap="round" stroke-linejoin="round" stroke-width=".1431px"/>
  </g>
 </g>
</svg>
