<?xml version="1.0" encoding="UTF-8"?>
<!-- Created with Inkscape (http://www.inkscape.org/) -->
<svg version="1.1" viewBox="0 0 256 256" xmlns="http://www.w3.org/2000/svg" xmlns:cc="http://creativecommons.org/ns#" xmlns:dc="http://purl.org/dc/elements/1.1/" xmlns:rdf="http://www.w3.org/1999/02/22-rdf-syntax-ns#">
 <style>svg { cursor: default; }</style>
 <metadata>
  <rdf:RDF>
   <cc:Work rdf:about="">
    <dc:format>image/svg+xml</dc:format>
    <dc:type rdf:resource="http://purl.org/dc/dcmitype/StillImage"/>
    <dc:title/>
   </cc:Work>
  </rdf:RDF>
 </metadata>
 <g transform="matrix(1.2067 -.18041 .18001 1.0573 -50.522 -.50785)">
  <path d="m147.24 196.95-2.1264 2.2944-6.0086 9.7142-1.8686 5.8813-2.1745 11.254 2.3848 20.557 7.1208 10.737 12.887-12.637 3.2219-0.33596 4.897-12.893 1.7716-16.527-2.6423-12.851-7.5719-9.7065-6.6372 0.63894z" fill="#ffb380"/>
  <path d="m135.06 226.09 6.5014-9.8187-4.3269-1.4355z" fill="#ff7f2a"/>
  <g>
   <path d="m145.35 199.15-3.7834 17.119 10.218-6.7654-0.3216-8.8922z" fill="#ff9955"/>
   <path d="m141.56 216.27-2.4584-7.3168 6.2417-9.802z" fill="#ff7f2a"/>
   <path d="m151.78 209.51 4.826 2.1968-2.1085-8.8389-2.9751-2.2041z" fill="#ffccaa"/>
   <path d="m141.56 216.27 8.152 12.169 6.892-16.738-4.826-2.1968z" fill="#ff7f2a"/>
   <path d="m149.71 228.44 7.8325 5.367-0.94053-22.105z" fill="#ffccaa"/>
   <path d="m139.1 208.95-1.8686 5.8813 4.3269 1.4355z" fill="#ff9955"/>
   <path d="m135.06 226.09 14.653 2.3503-8.152-12.169z" fill="#ffccaa"/>
   <path d="m149.71 228.44-4.6756 12.578-7.593 5.6295-2.3848-20.557z" fill="#ff7f2a"/>
   <path d="m145.04 241.02 3.7571 6.7317 8.5048-4.4006 0.24619-9.5418-7.8325-5.367z" fill="#ffffff"/>
   <path d="m148.8 247.75-4.2872 5.2396 0.0579 4.3948 7.2331-6.9723z" fill="#ff9955"/>
   <path d="m151.8 250.41 5.6543-5.6648-0.15333-1.398-8.5048 4.4006z" fill="#ff7f2a"/>
   <path d="m148.8 247.75-4.2872 5.2396-7.0629-6.3419 7.593-5.6295z" fill="#ffb380"/>
   <path d="m144.57 257.38-0.0579-4.3948-7.0629-6.3419z" fill="#ff7f2a"/>
   <path d="m157.55 233.81 6.5751-3.5654-2.5492 7.2678z" fill="#ff7f2a"/>
   <path d="m157.3 243.35 3.3753 1.062 1.9378-5.1115z" fill="#ffccaa"/>
   <path d="m162.61 239.3-1.041-1.7899-4.272 5.8394z" fill="#ffe6d5"/>
   <path d="m164.12 230.24-1.9971-11.865-4.578 15.431z" fill="#ffffff"/>
   <path d="m162.12 218.38-5.5185-6.674 0.94053 22.105z" fill="#ff9955"/>
   <path d="m164.12 230.24 1.451 1.2759-2.9592 7.7818-1.041-1.7899z" fill="#ffffff"/>
   <path d="m162.12 218.38 4.0114-4.0925-2.0143 15.958z" fill="#ff7f2a"/>
   <path d="m166.14 214.28 1.2083 0.70694-1.7716 16.527-1.451-1.2759z" fill="#ffe6d5"/>
   <path d="m156.61 211.7 2.9656-7.0774 2.6011 0.8021-0.0482 12.949z" fill="#ff7f2a"/>
   <path d="m162.17 205.43 0.60487-5.8083 3.1947 6.994 0.16369 7.6711-4.0114 4.0925z" fill="#ff9955"/>
   <path d="m162.78 199.62-4.9406-0.90271-3.3395 4.1474 5.0741 1.7615 2.6011 0.80211z" fill="#ffccaa"/>
  </g>
  <g stroke="#000000" stroke-width=".40964px">
   <path d="m147.24 196.95-2.1264 2.2944-6.0086 9.7142-1.8686 5.8813-2.1745 11.254 2.3848 20.557 7.1208 10.737 12.887-12.637 3.2219-0.33596 4.897-12.893 1.7716-16.527-2.6423-12.851-7.5719-9.7065-6.6372 0.63894z" fill="none"/>
   <path d="m163.77 223.68 1.3935-0.0391 0.99067-2.6542c0.77413-8.3931 2.0885-15.737-7.3e-4 -23.583-1.0418-3.9122-2.5051-5.3815-5.4453-6.6864-3.099-1.3754-5.8967 0.17678-6.1378 0.28129-0.98616 0.42752-1.9734 1.933-1.9734 1.933l4.398 1.0826 7.0079 7.1745 0.49171 13.315-0.23344 5.8835z" fill="#ff8080"/>
   <path d="m163.77 223.68 0.86985-2.8409c1.0537-7.2481 1.1486-14.249-0.25839-22.52-0.44823-2.6349-3.36-7.1342-5.4453-7.6829-3.2708-0.86057-3.5534 0.32748-5.2115 0.71615l0.53175 4.7408c1.917-0.95846 3.7043 0.16337 5.2196 0.89063 1.3214 0.6342 2.7032 2.8439 3.5362 4.866 1.8322 4.4475 0.62436 14.408 0.75776 21.83z" fill="#ff5555"/>
   <path d="m152.63 190.06 5.3807 0.1431c2.799 0.43824 2.6878 2.5161 1.5869 3.4816l-2.0943 0.0855c-2.1925-0.31185-4.6363 0.46816-4.8733-3.7102z" fill="#ff8080"/>
   <path d="m156.18 223.58 2.3328 0.0248 1.003-2.813c1.4294-4.0088 0.74872-20.257-0.54147-24.457-0.71187-2.3172-3.1685-5.3307-5.7687-6.1936-1.8601-0.61731-5.4442 0.32813-6.7436 1.4092-3.8269 3.184-5.3537 9.867-6.7456 16.14 8.8362-22.428 19.244 0.14261 16.464 15.889z" fill="#ff8080"/>
   <path d="m144.76 196.81 4.086-1.049 6.1936 3.6164c2.9118 7.2359 2.5189 14.224 2.1877 21.041l-1.0707 3.4186c-0.38363-7.458-0.3285-16.184-4.6369-23.182l-6.3165-1.5867c-2.1702 3.4265-3.5462 5.7957-5.5416 8.9579l0.209-1.2438c1.9013-3.8072 2.241-7.3203 4.8894-9.9731z" fill="#ff5555"/>
  </g>
  <g fill="#ffd5d5">
   <path d="m146.02 192.5c-0.22071 0.45569-0.66235 1.3676-0.89939 2.07-0.23703 0.70247-0.26922 1.195-0.20187 1.465 0.0674 0.27005 0.23367 0.31686 0.31609 0.12358 0.0824-0.19329 0.0811-0.62805 0.23743-1.2884 0.15635-0.66037 0.47072-1.5486 0.62501-2.0573 0.15429-0.50869 0.14892-0.63885 0.14625-0.70372-3e-3 -0.0649-3e-3 -0.0649-0.22352 0.39083z"/>
   <path d="m155.59 198.32c0.19207-0.4288 0.576-1.2859 0.98474-1.9218 0.40875-0.63592 0.8426-1.0512 1.0982-1.2426 0.25562-0.19141 0.33357-0.15964 0.33567-0.0354 2e-3 0.12422-0.072 0.34308-0.25748 0.64405-0.18548 0.30096-0.48151 0.68315-0.87917 1.2155s-0.8951 1.2123-1.1763 1.575c-0.2812 0.36268-0.34554 0.40696-0.35897 0.38582-0.0134-0.0211 0.0239-0.1063 0.0425-0.149 0.0187-0.0427 0.0187-0.0427 0.21076-0.47147z"/>
   <path d="m156.12 193.96c0.11183-0.50208-0.42653-1.2121-1.3467-1.8535s-2.2224-1.2141-2.5869-0.81961c-0.36456 0.39454 0.20859 1.7561 0.41077 2.6716 0.20217 0.91546 0.0331 1.3848-0.22875 1.7278-0.26179 0.34304-0.61583 0.55913-0.32065 0.90981 0.29518 0.35067 1.2377 0.83398 1.6477 0.79775 0.41001-0.0362 0.28646-0.59258 0.32884-1.0698 0.0424-0.47721 0.25054-0.8755 0.73551-1.2214 0.48496-0.3459 1.2484-0.64057 1.3602-1.1426z"/>
   <path d="m159.17 219.93c-0.15685 8.3e-4 -0.47098 3e-3 -0.75977 0.0547-0.2888 0.0522-0.55155 0.15475-0.52186 0.28927 0.0297 0.13451 0.35129 0.2999 0.63596 0.32989 0.28466 0.03 0.53185-0.0756 0.65915-0.21056 0.12729-0.135 0.13537-0.30005 0.1394-0.3822 4e-3 -0.0821 4e-3 -0.0819-0.15288-0.0811z"/>
   <path d="m159.3 210.02c-0.0161 0.99352-0.0482 2.9809-0.11264 4.6862-0.0644 1.7052-0.16099 3.1278-0.13254 3.8248 0.0284 0.69695 0.18148 0.66772 0.30462 0.39421 0.12315-0.27351 0.21741-0.79426 0.27909-1.7611 0.0617-0.96684 0.0912-2.3839 0.10055-3.886 9e-3 -1.5021-1e-3 -3.0913-0.0751-3.8144-0.0737-0.72308-0.2106-0.58035-0.27927-0.50879-0.0687 0.0716-0.0686 0.0715-0.0847 1.0651z"/>
  </g>
  <path d="m148.78 194.45c0.22667-0.54204 0.53042-1.5602 0.40531-1.6209-0.1251-0.0607-0.67971 0.83674-1.3129 1.4792-0.63323 0.64242-1.3448 1.0296-1.2942 1.123 0.0506 0.0934 0.86261-0.10707 1.3438-0.24026 0.48123-0.1332 0.63132-0.19898 0.858-0.74102z" fill="#ff5555"/>
  <g fill="#ffe680" stroke="#000000">
   <g stroke-width=".41228">
    <path d="m158.74 195.51c0.50533-0.11163 1.1694 0.0951 1.5133-0.33272 0.47524-0.59108 0.59994-1.4956 0.58749-2.2832-0.01-0.60829-0.3731-1.147-0.65066-1.6672-0.27777-0.52052-0.59648-1.0304-1.0032-1.4319-0.24596-0.24279-0.601-0.30042-0.90286-0.44953-0.0211-0.0506-0.043-0.10015-0.0659-0.14913-0.18934-7e-3 -0.54745 6e-3 -0.54745 6e-3l-1.1981-0.12563-0.38404 0.56481 1.972 2.8579 0.13477 2.1701z"/>
    <path d="m158.44 195.09c0.23374-0.57729 0.46786-1.1555 0.47868-1.8478 0.0108-0.69228-0.20079-1.5001-0.50927-2.1177-0.30849-0.6176-0.71393-1.0455-1.1079-1.3509-0.39393-0.30545-0.77678-0.48855-1.1593-0.67148l-2.2976-0.22829c0.0931 0.31356 0.18609 0.62662 0.5922 1.0077 0.40612 0.38112 1.1244 0.82889 1.533 1.2725 0.40859 0.44362 0.5079 0.88451 0.60707 1.3247l1.1852 1.4375 0.67786 1.1737z"/>
    <path d="m158.45 186.74c0.14198 0.10787 0.42572 0.32343 0.58838 0.68018s0.20461 0.85659 0.0807 1.1884c-0.12394 0.33179-0.41408 0.4956-0.95526 0.54763-0.54117 0.052-1.3276-8e-3 -2.1137-0.0633-0.78609-0.0552-1.5676-0.10502-2.0921-0.18517-0.52455-0.0801-0.79044-0.19044-1.0298-0.0922-0.23931 0.0982-0.45098 0.40497-0.51269 0.65046-0.0617 0.24548 0.0272 0.42731-0.0961 0.50386-0.12328 0.0766-0.45946 0.0471-0.82466 0.0683-0.3652 0.0213-0.75741 0.0933-0.96131 0.0908-0.20391-2e-3 -0.21737-0.0789-0.14074-0.42604 0.0766-0.34717 0.24525-0.97264 0.58093-1.4953 0.33568-0.52268 0.8404-0.94805 1.2637-1.2237s0.76713-0.40303 1.1702-0.38048c0.40307 0.0225 0.86921 0.19521 1.3203 0.31856 0.45111 0.12335 0.88943 0.19814 1.3836 0.19888 0.49414 7.5e-4 1.0464-0.0725 1.4218-0.16635 0.37544-0.0939 0.57576-0.20854 0.67524-0.26549 0.0995-0.0569 0.0994-0.057 0.24143 0.0509z"/>
   </g>
   <path d="m131.94 29.728c-9.1202-1.4764-18.804-2.2342-31.076-0.51611-20.663 2.893-45.498 17.659-56.491 39.38-10.089 19.935-9.0971 48.506 0.82274 68.245 11.284 22.453 35.516 31.154 61.184 36.758 13.601 2.969 17.722 1.7213 31.552 3.0208 1.5031 0.14122 8.125 1.2534 10.18 3.0814 2.1562 1.9185 4.5796 4.8235 5.4794 7.0227l0.6809 0.16272c0.57926 0.10999 1.1654 0.22057 1.7543 0.19765l1.2399-0.15039c-0.63411-3.9508 0.39712-8.2986 2.5547-11.447 5.7035-8.3212 14.749-14.946 26.235-19.671 14.954-6.1516 28.821-14.37 36.777-31.32 6.4149-13.666 8.5138-32.132 2.712-45.952-11.841-28.205-41.586-39.901-72.397-44.888-7.361-1.1914-14.114-2.7754-21.207-3.9237zm-1e-3 2.0164c6.9069 1.1181 13.481 2.6597 20.649 3.8198 30 4.8558 58.964 16.245 70.493 43.708 5.6492 13.456 3.6048 31.438-2.6413 44.744-7.7471 16.503-21.248 24.506-35.808 30.496-11.184 4.6006-19.993 11.05-25.546 19.153-2.9576 4.5104-3.6438 7.3301-4.0735 11.325-0.73286-2.3927-4.8074-6.2677-7.142-7.7425-2.2287-1.4079-8.6331-2.342-10.097-2.4795-13.466-1.2653-17.478-0.0502-30.722-2.9411-24.993-5.4557-48.587-13.927-59.574-35.79-9.6589-19.22-10.624-47.04-0.80037-66.45 10.704-21.149 34.884-35.526 55.003-38.343 11.949-1.6729 21.378-0.93676 30.259 0.50079z" stroke-width=".53499"/>
  </g>
  <path d="m155 184.81c0.12791 0.76592 0.49889 1.3715 0.71288 2.1408" fill="none" stroke="#000000" stroke-width=".41228"/>
  <g fill="#ffd5d5">
   <path d="m162.46 191.96c0.27908 0.21839 0.83705 0.65504 1.3309 1.2054s0.92373 1.2146 1.3355 2.1581c0.4118 0.94347 0.80531 2.1658 1.1399 3.983s0.60958 4.2262 0.62216 6.7047c0.0126 2.4785-0.23746 5.0207-0.34455 4.674-0.10709-0.34667-0.0709-3.5828-0.16846-5.8843-0.0976-2.3016-0.32881-3.6673-0.58006-4.9772-0.25125-1.3098-0.52274-2.5648-0.84352-3.289-0.32077-0.72416-0.69145-0.91872-1.1933-1.4575-0.50183-0.5388-1.134-1.421-1.5269-2.0203s-0.54572-0.9141-0.63169-1.0862c-0.086-0.17216-0.10516-0.20176 3e-3 -0.21609 0.10844-0.0143 0.34348-0.0137 0.46054-0.0133 0.11707 3.3e-4 0.11713 3.8e-4 0.39621 0.21878z"/>
   <path d="m165.02 221.07c0.0361 0.11176 0.15839 0.23768 0.31447 0.25748 0.15607 0.0198 0.34549-0.0662 0.4186-0.20422 0.0731-0.13798 0.0308-0.33002-0.0992-0.39825-0.13007-0.0682-0.35031-0.0137-0.4854 0.0617-0.13508 0.0754-0.18453 0.17153-0.14843 0.28328z"/>
   <path d="m166 215.77c-0.0821 0.51084-0.24637 1.5334-0.30469 2.3577-0.0583 0.82432-0.0106 1.4491 0.0727 1.4432 0.0833-6e-3 0.20161-0.6417 0.29512-1.4261 0.0935-0.7844 0.16236-1.7195 0.16142-2.2248-9.4e-4 -0.50529-0.0717-0.5831-0.10708-0.62198-0.0354-0.0389-0.0354-0.0389-0.11748 0.47195z"/>
  </g>
 </g>
</svg>
