<?xml version="1.0" encoding="UTF-8"?>
<svg version="1.1" viewBox="0 0 256 256" xmlns="http://www.w3.org/2000/svg" xmlns:cc="http://creativecommons.org/ns#" xmlns:dc="http://purl.org/dc/elements/1.1/" xmlns:rdf="http://www.w3.org/1999/02/22-rdf-syntax-ns#" xmlns:xlink="http://www.w3.org/1999/xlink">
 <style>svg { cursor: default; }</style>
 <defs>
  <linearGradient id="linearGradient4951" x1="67.13" x2="139.69" y1="202.64" y2="97.966" gradientUnits="userSpaceOnUse">
   <stop stop-color="#ff2a2a" offset="0"/>
   <stop stop-color="#ff2a2a" stop-opacity="0" offset="1"/>
  </linearGradient>
 </defs>
 <metadata>
  <rdf:RDF>
   <cc:Work rdf:about="">
    <dc:format>image/svg+xml</dc:format>
    <dc:type rdf:resource="http://purl.org/dc/dcmitype/StillImage"/>
    <dc:title/>
   </cc:Work>
  </rdf:RDF>
 </metadata>
 <g stroke="#000000">
  <path d="m42.034 72.949 14.373-43.661c24.346-20.17 58.698-21.245 99.797-11.661 35.059 8.1755 74.276 47.159 82.169 78.915 12.457 50.116 4.5267 68.966-6.2373 93.288 0 0-26.405 11.143-26.626 8.0124s-31.95-112.69-31.95-112.69l-71.051-34.441-43.39 16.814z" fill="#ff8080" stroke-width="1px"/>
  <path d="m76.17 61.751c-22.647 45.172 19.68 101.46 65.344 115.83 28.57 8.9927 60.1 4.283 67.57-38.734l3.7966 38.237-58.305 55.051-90.034-36.881-40.136-78.644 32.271-53.153z" fill="#ff8080" stroke-width="1px"/>
  <path d="m65.825 72.583c-13.315 52.249 8.9098 91.291 70.481 115.17 29.622 11.49 64.825 4.6197 72.882-41.78l4.0951 41.243-64.245 49.345-84.496-41.311-47.228-75.432 27.486-55.162z" fill="#ffb380" stroke-width="1.0786px"/>
 </g>
 <path d="m178.19 31.096c5.175 2.8022 11.322 6.87 17.853 12.542 6.5309 5.6722 13.446 12.949 19.254 20.135 5.8079 7.1864 10.508 14.282 13.974 20.774 3.4653 6.4915 5.755 12.536 7.2918 17.147 1.5368 4.6102 2.3503 7.8642 2.4858 6.9596 0.13558-0.90459-0.40667-5.9656-1.9432-11.479-1.5366-5.5134-4.0681-11.481-8-18.215-3.932-6.734-9.2657-14.237-15.842-21.584s-14.486-14.62-21.051-19.752c-6.5648-5.1329-11.966-8.2455-16.35-9.963-4.384-1.7176-7.8188-2.0791-7.4343-1.4913 0.38456 0.58782 4.5869 2.1242 9.7618 4.9264z" fill="#ffd5d5"/>
 <path d="m56.561 78.097c0.01657 2.95-0.72265 7.6541-1.3276 13.703-0.60493 6.0491-1.0752 13.439-0.43681 20.429s2.3854 13.574 4.5024 19.724c2.117 6.1494 4.6032 11.861 7.4594 16.767 2.8563 4.9061 6.0817 9.005 9.7443 13.071 3.6626 4.0658 7.7618 8.0978 12.768 12.13 5.0066 4.0322 10.92 8.0643 17.237 11.66 6.317 3.5953 13.037 6.7539 19.993 9.4082s14.146 4.805 21.505 5.9809c7.3584 1.1759 14.886 1.3776 21.102 0.73903 6.2159-0.63851 11.122-2.1172 15.893-3.0242 4.7707-0.90703 9.4088-1.2431 8.2346 1.8705s-8.1629 9.6811-26.31 11.597c-18.147 1.9156-47.444-0.81933-66.262-6.8914-18.818-6.072-27.151-15.48-36.055-28.383-8.9043-12.903-18.38-29.3-22.177-45.194-3.7968-15.893-1.9151-31.283 1.1265-41.021 3.0416-9.7376 7.2428-13.824 9.7286-15.269 2.4857-1.4446 3.2579-0.24749 3.2745 2.7025z" fill="#ff7f2a"/>
 <path d="m56.667 75.017c-19.372 57.189 18.703 106.1 69.019 123.4 35.336 12.152 67.221 4.9339 75.577-44.62l4.2465 44.048-63.608 38.124-84.011-40.834-41.162-67.783 14.068-60.401z" fill="#ff8080" stroke="#000000" stroke-width="1.1351px"/>
 <path d="m61.311 78.033c-0.51986 2.4633-1.017 5.5368-1.4691 8.656s-0.8587 6.2819-1.0396 9.4916c-0.18086 3.2097-0.13568 6.4628 0.08826 10.26 0.22394 3.7975 0.63475 8.2252 1.3354 12.113 0.70061 3.8875 1.6948 7.2766 3.0831 10.843 1.3883 3.5665 3.2218 7.4168 5.4295 11.226 2.2077 3.809 4.8432 7.6714 7.3744 10.835 2.5312 3.164 4.9717 5.6497 7.3673 8 2.3955 2.3503 4.7458 4.565 7.4469 6.7944s5.7962 4.5052 8.96 6.6294c3.1638 2.1243 6.4182 4.1131 9.8758 5.9661s7.1189 3.5707 10.35 4.9492c3.2315 1.3785 6.0341 2.4182 5.6728 1.8986-0.36136-0.51958-3.8875-2.5991-6.8028-4.2602-2.9153-1.6611-5.2202-2.9039-8.4409-4.7911-3.2207-1.8872-7.3556-4.4179-11.378-7.3107-4.0228-2.8928-7.9322-6.1468-11.571-9.6046-3.6385-3.4577-7.0057-7.1186-9.8193-10.701-2.8136-3.582-5.0735-7.0849-7.0509-10.735-1.9774-3.6497-3.6724-7.4466-5.0396-11.446s-2.4068-8.2038-3.1186-12.497c-0.71178-4.2935-1.096-8.6784-1.1751-12.565-0.07904-3.8867 0.14699-7.2773 0.47464-10.712 0.32765-3.4345 0.75716-6.9158 1.1616-9.5375 0.40445-2.6217 0.7934-4.4292 0.77071-5.8974-0.02269-1.4682-0.45234-2.6215-0.93781-2.272-0.48547 0.34952-1.0281 2.2035-1.548 4.6668z" fill="#ffe6d5"/>
 <path d="m159.85 223.32 2.6381 6.0648c11.426-1.3576-4.0693 2.7692 8.6743 4.229 8.5857 0.9835 34.528-2.2997 56.115-32.669 12.571-17.685 15.676-38.986 14.544-59.191-1.1812-21.086-4.5472-36.627-12.512-53.186-8.2339-17.119-18.075-29.418-32.081-42.527-16.25-15.21-26.103-20.633-46.216-27.12-20.044-6.4645-43.178-8.9702-64.54-5.9882-18.072 2.5227-27.075 8.7812-38.878 16.231-11.478 7.2452-21.919 19.716-27.265 31.629-6.6736 14.871-5.2177 25.952-5.1775 32.599l0.19176 31.64 9.0662-8.4193 22.766-56.97 55.226-4.9857 75.169 46.981 18.984 52.35-22.814 58.046z" fill="#ffb380" stroke="#000000" stroke-width="1px"/>
 <g>
  <path d="m219.25 209.67 0.94042-10.727 9.1113-5.5771z" fill="#ff7f2a"/>
  <path d="m220.19 198.94-6.5012 9.0396 5.5608 1.6878z" fill="#ff9955"/>
  <path d="m213.69 207.98 5.5608 1.6878-9.9098 4.0307z" fill="#ff7f2a"/>
  <path d="m219.25 209.67-11.278 10.477 1.368-6.4465z" fill="#ff9955"/>
  <path d="m207.98 220.15-13.11 9.7182 1.2731-6.5448 11.102-10.816 2.1038 1.1956z" fill="#ff7f2a"/>
  <path d="m219.25 209.67 0.21388 0.49805 6.376-7.91 3.4619-8.8925z" fill="#ffe6d5"/>
  <path d="m219.47 210.17-6.6636 6.3999-6.0643 4.8898-3.3078 2.1333-0.0959-0.024 4.64-3.4199 11.278-10.477z" fill="#ffccaa"/>
  <path d="m229.3 193.37 0.61292-12.441 5.7527-20.614-0.76703 20.326z" fill="#ffe6d5"/>
 </g>
 <path d="m234.9 180.64-5.5986 12.728-0.2199 4.6666 3.9322-6.7797 3.0508-6.7797z" fill="#ffb380"/>
 <g>
  <path d="m229.08 198.03-3.242 4.226 3.4619-8.8925z" fill="#ff7f2a"/>
  <path d="m236.07 184.47-1.1645-3.8354 6.0404-17.594-1.2944 9.5879-2.0614 7.4786z" fill="#ffccaa"/>
  <path d="m235.67 160.31 4.1941-10.211 1.0792 12.944-6.0404 17.594z" fill="#ff9955"/>
  <path d="m229.92 180.93-0.61292 12.441-9.1113 5.5771 0.80752-12.744 3.4516-6.9992z" fill="#ff9955"/>
  <path d="m229.92 180.93-5.4651-1.7258-0.47939-33.174 11.697 14.286z" fill="#ff7f2a"/>
  <path d="m235.67 160.31-11.697-14.286 1.5184-22.502z" fill="#ff9955"/>
  <path d="m225.49 123.53-0.40678-27.797 13.153 29.695-2.567 34.889z" fill="#ffccaa"/>
 </g>
 <path d="m225.49 123.53-10.441-20.068 2.8475 20.746 6.0748 21.824z" fill="#ff7f2a"/>
 <g>
  <path d="m215.05 103.46-9.103-31.545 19.137 23.816 0.40678 27.797z" fill="#ff9955"/>
  <path d="m205.95 71.913-28.955-18.025 2.4928 21.86 35.566 27.71z" fill="#ffe6d5"/>
  <path d="m239.86 150.1 2.038-8.1017 0.0959 14.669-1.0547 6.376z" fill="#ffb380"/>
  <path d="m241.9 142-1.4382-16.204-2.227-0.37274-2.567 34.889z" fill="#ffe6d5"/>
  <path d="m225.08 95.729-3.5086-21.036 7.2868 12.752 3.7393 8.4373 3.931 11.314 2.7805 12.177 1.1506 6.4239-2.227-0.37274z" fill="#ffffff"/>
 </g>
 <path d="m221.58 74.693-8.1524-11.507-10.169-11.39 2.6936 20.116 19.137 23.816z" fill="#ffe6d5"/>
 <g>
  <path d="m205.95 71.913-22.219-35.845 19.525 15.729z" fill="#ffffff"/>
  <path d="m183.73 36.068-34.441-10.441 27.704 28.26 28.955 18.025z" fill="#ffccaa"/>
  <path d="m149.29 25.627-18.893-12.009 19.943 5.1775 18.601 6.7115 14.79 10.561z" fill="#ff9955"/>
 </g>
 <path d="m149.29 25.627-18.509 8.7009 46.214 19.559z" fill="#ff7f2a"/>
 <path d="m149.29 25.627-44.013-6.8315 25.12-5.1775z" fill="#ffe6d5"/>
 <path d="m105.28 18.796 11.889 14.957 13.615 0.57527 18.509-8.7009z" fill="#ffffff"/>
 <path d="m105.28 18.796-35.859 12.464 47.748 2.4929z" fill="#ffb380"/>
 <path d="m69.416 31.26 35.859-12.464-33.558 1.3423-30.489 18.984z" fill="#ff7f2a"/>
 <path d="m105.28 18.796-25.672-4.8385 16.329-1.9572 13.085-0.27119 13.695 0.94915 7.6834 0.94021z" fill="#ffffff"/>
 <path d="m79.603 13.957 25.672 4.8385-33.558 1.3423-8.3954-0.40913 5.4237-2.3729 6.5763-1.9661z" fill="#ffb380"/>
 <path d="m41.228 39.122-15.601 11.861-4.4068 7.5932-2.0339 5.0847-1.3559 3.7966-1.017 4 13.085-0.33898 39.518-39.859z" fill="#ff9955"/>
 <path d="m41.228 39.122-4.9567-1.0203 7.3898-6.4407 12.068-7.4576 7.5932-4.4746 8.3954 0.40913z" fill="#ffe6d5"/>
 <path d="m159.85 223.35 2.6381 6.0648c11.426-1.3576-4.0693 2.7692 8.6743 4.229 8.5857 0.9835 34.528-2.2997 56.115-32.669 12.571-17.685 15.676-38.986 14.544-59.191-1.1812-21.086-4.5472-36.627-12.512-53.186-8.2339-17.119-18.075-29.418-32.081-42.527-16.25-15.21-26.103-20.633-46.216-27.12-20.044-6.4645-43.178-8.9702-64.54-5.9882-18.072 2.5227-27.075 8.7812-38.878 16.231-11.478 7.2452-21.919 19.716-27.265 31.629-6.6736 14.871-5.2177 25.952-5.1775 32.599l0.19176 31.64 9.0662-8.4193 22.766-56.97 55.226-4.9857 75.169 46.981 18.984 52.35-22.814 58.046z" fill="none" stroke="#000000" stroke-width="1px"/>
 <path d="m179.78 176.75 40.698 23.049c6.9098-18.238 11.125-44.255-0.27118-81.627-15.986-48.281-50.368-80.96-108.47-89.153-39.372-3.4854-61.734 5.557-78.866 20.898-11.815 11.904-17.781 25.956-20.746 41.566-1.5812 19.554 0.28668 39.471 8.3913 58.756 17.393 46.453 53.165 72.325 95.313 87.931 15.785 3.7948 32.791 6.8746 51.724 3.1083 20.837-6.1006 37.449-14.324 49.913-35.542 4.3256-9.3687 7.812-18.859 8.8155-28.739l-45.728-13.131c2.0066 46.137-36.735 51.557-65.691 43.058-34.29-10.064-62.898-43.004-69.567-71.058-10.828-45.548 20.733-71.679 61.424-62.237 67.571 15.679 77.326 73.158 73.064 103.12z" fill="#ff8080"/>
 <path d="m179.49 179.29 40.986 20.778c6.9098-18.238 11.125-44.255-0.27118-81.627-15.986-48.281-50.368-80.96-108.47-89.153-39.372-3.4854-61.734 5.557-78.866 20.898-11.815 11.904-17.781 26.566-20.746 42.176-1.5812 19.554 0.28668 38.929 8.3913 58.214 19.214 45.591 53.165 72.257 95.313 87.863 15.785 3.7948 28.658 6.0926 51.52 2.9049 15.23-2.1234 37.653-14.12 50.117-35.338 4.3256-9.3687 7.812-18.859 8.8155-28.739l-45.732-9.7416c-2.6296 43.423-31.9 46.996-64.196 38.177-34.474-9.4142-64.186-41.562-71.059-69.567-11.085-45.173 19.731-72.139 61.048-62.405 70.203 16.539 77.515 75.709 73.153 105.56z" fill="url(#linearGradient4951)"/>
 <path d="m101.69 28.475c-20.911-0.83092-41.96 0.98371-62.78 16.542-11.702 8.7451-20.042 20.268-25.398 38.542-1.8152 6.1938-2.6627 26.599-1.9189 31.84 8.1108 57.154 42.256 99.201 101.35 122.19 9.2566 3.6015 41.347 7.6006 57.535 3.0167 19.17-5.4281 31.535-13.191 42.946-28.712 7.9129-10.763 11.654-22.614 12.848-34.9 6.8923-70.914-35.949-145-124.58-148.52z" fill="none" stroke="#000000" stroke-width="1px"/>
 <path d="m100.73 43.81c-4.0774-0.16472-12.233-0.4942-21.432 0.17511-9.1986 0.6693-19.44 2.3376-26.852 5.1568-7.4121 2.8193-11.994 6.7902-11.091 7.0432 0.90337 0.25299 7.2924-3.2123 13.687-5.3707 6.3945-2.1584 12.795-3.0103 22.15-3.3167 9.3556-0.30642 21.667-0.06747 32.519 2.1546 10.852 2.2221 20.245 6.4273 28.771 11.049 8.5259 4.6219 16.185 9.6606 22.642 15.439 6.4568 5.7781 11.712 12.296 16.547 18.501 4.8355 6.2057 9.2515 12.099 12.68 18.408 3.4282 6.3089 5.8688 13.033 7.9475 19.708 2.0788 6.6747 3.7957 13.3 5.037 19.712 1.2413 6.4122 2.0068 12.612 2.3863 18.628s0.37255 11.849-0.57979 17.784-2.8504 11.973-1.9773 11.561 4.5172-7.2712 6.2177-13.261c1.7004-5.9898 1.4579-11.109 1.3514-16.114-0.10652-5.005-0.0771-9.8949-0.65373-15.557-0.57667-5.6625-1.7593-12.098-3.4625-18.524-1.7032-6.4259-3.9268-12.842-7.1742-19.562-3.2475-6.72-7.5188-13.744-13.1-21.745-5.5817-8.0017-12.474-16.982-18.969-23.592s-12.593-10.85-18.634-14.179c-6.041-3.3293-12.025-5.7479-19.338-7.9183-7.3124-2.1704-15.953-4.0926-20.274-5.0538s-4.3207-0.96118-8.3981-1.1259z" fill="#ffd5d5"/>
 <path d="m49.085 147.53c-10.001-22.644-7.9521-45.479 2.8475-58.712 18.046-22.113 51.714-20.872 81.085-5.2881 27.642 14.667 41.425 34.183 46.237 66.576 5.3876 36.267-5.8889 49.908-24.949 58.169" fill="none" stroke="#000000" stroke-width="1px"/>
 <g fill="#ffd5d5">
  <path d="m190.67 221.67c-3.0041 1.981-7.862 6.0718-13.488 9.7157-5.6255 3.6439-12.016 6.8392-12.982 8.1276-0.96592 1.2885 3.7783 0.62956 8.7995-1.2718 5.0212-1.9013 10.575-5.1303 14.474-8.3901 3.8986-3.2598 6.2002-6.5843 6.7757-8.3094 0.57552-1.7252-0.57542-1.8531-3.5795 0.12793z"/>
  <path d="m68.458 108.41c0.31938 3.2594 1.9813 10.418 5.1775 18.025 3.1962 7.607 7.9257 15.66 13.103 22.372 5.1777 6.7118 10.802 12.081 15.788 15.98 4.9858 3.8992 9.3324 6.3281 13.551 7.99s8.3099 2.5568 7.6548 1.4343c-0.65506-1.1225-6.2486-4.3746-11.171-7.8264-4.922-3.4518-9.2683-7.1589-13.935-11.953-4.6662-4.7941-9.6518-10.675-13.423-15.852s-6.3281-9.652-8.6291-14.893-4.3466-11.25-5.8804-14.574-2.5566-3.9626-2.2372-0.70321z"/>
  <path d="m55.672 143.59c0.07328 0.45557 0.21967 1.3655 1.7878 4.8238 1.5681 3.4582 4.5546 9.4562 9.2376 15.073 4.683 5.6163 11.06 10.848 12.23 11.105 1.1705 0.25659-2.8647-4.4617-6.5894-9.5594-3.7247-5.0977-7.1387-10.575-9.9065-14.862-2.7678-4.2867-4.8902-7.3838-5.9219-8.3589-1.0317-0.97501-0.97154 0.17226-0.94138 0.74772 0.03016 0.57545 0.03015 0.57545 0.10344 1.031z"/>
 </g>
 <path d="m139.79 190.59c2.3015 0.20793 7.479 1.4544 12.976 2.0455 5.4968 0.59117 11.314 0.52724 13.759 0.99006 2.445 0.46282 1.518 1.4537-1.3769 1.8857-2.8949 0.43191-7.7477 0.30421-12.494-0.36699s-9.3798-1.8854-11.985-2.9084c-2.6052-1.023-3.1804-1.8538-0.87884-1.6459z" fill="#ffe6d5"/>
 <path d="m129.5 51.586c2.5574-0.38331 8.0544-0.38331 4.987-3.5786-3.0674-3.1953-14.703-9.5884-22.437-12.848-7.734-3.26-11.569-3.3878-9.7144-3.2599s9.3952 0.51131 19.749 2.94c10.354 2.4287 23.523 6.9036 34.772 12.528 11.249 5.6247 20.582 12.4 26.846 18.281 6.2639 5.8803 9.4599 10.866 6.1999 9.5238-3.26-1.3423-12.975-9.0122-21.668-13.934-8.6928-4.9218-16.363-7.095-18.186-6.232-1.8229 0.86301 2.3336 4.8896 2.9092 6.5515s-2.3646 1.0228-7.1596-0.70338c-4.7949-1.7262-11.441-4.5379-14.957-6.328-3.5159-1.7901-3.8994-2.557-1.342-2.9404z" fill="#ffd5d5"/>
</svg>
