<?xml version="1.0" encoding="UTF-8" standalone="no"?>
<svg
   xmlns:dc="http://purl.org/dc/elements/1.1/"
   xmlns:cc="http://creativecommons.org/ns#"
   xmlns:rdf="http://www.w3.org/1999/02/22-rdf-syntax-ns#"
   xmlns:svg="http://www.w3.org/2000/svg"
   xmlns="http://www.w3.org/2000/svg"
   xmlns:xlink="http://www.w3.org/1999/xlink"
   version="1.1"
   id="svg4206"
   viewBox="0 0 256 256">
  <style
     id="style3">
    svg { cursor: default; }
  </style>
  <defs
     id="defs4208">
    <linearGradient
       id="innoGrad1">
      <stop
         id="stop4597"
         offset="0"
         style="stop-color:#ff2a2a;stop-opacity:1;" />
      <stop
         id="stop4599"
         offset="1"
         style="stop-color:#ff2a2a;stop-opacity:0;" />
    </linearGradient>
    <marker
       style="overflow:visible"
       id="DistanceStart"
       refX="0.0"
       refY="0.0"
       orient="auto">
      <g
         id="g2300"
         style="stroke:#000000;stroke-opacity:1;fill:#000000;fill-opacity:1">
        <path
           style="fill:#000000;stroke:#000000;stroke-width:1.15;stroke-linecap:square;stroke-opacity:1;fill-opacity:1"
           d="M 0,0 L 2,0"
           id="path2306" />
        <path
           style="fill:#000000;fill-rule:evenodd;stroke:#000000;stroke-opacity:1;fill-opacity:1"
           d="M 0,0 L 13,4 L 9,0 13,-4 L 0,0 z "
           id="path2302" />
        <path
           style="fill:#000000;stroke:#000000;stroke-width:1;stroke-linecap:square;stroke-opacity:1;fill-opacity:1"
           d="M 0,-4 L 0,40"
           id="path2304" />
      </g>
    </marker>
    <marker
       orient="auto"
       refY="0.0"
       refX="0.0"
       id="Arrow2Lend"
       style="overflow:visible;">
      <path
         id="path5373"
         style="fill-rule:evenodd;stroke-width:0.625;stroke-linejoin:round;stroke:#000000;stroke-opacity:1;fill:#000000;fill-opacity:1"
         d="M 8.7185878,4.0337352 L -2.2072895,0.016013256 L 8.7185884,-4.0017078 C 6.9730900,-1.6296469 6.9831476,1.6157441 8.7185878,4.0337352 z "
         transform="scale(1.1) rotate(180) translate(1,0)" />
    </marker>
    <linearGradient
       gradientUnits="userSpaceOnUse"
       y2="84.208244"
       x2="176.90108"
       y1="195.60648"
       x1="66.295998"
       id="linearGradient4603"
       xlink:href="#innoGrad1" />
  </defs>
  <metadata
     id="metadata4211">
    <rdf:RDF>
      <cc:Work
         rdf:about="">
        <dc:format>image/svg+xml</dc:format>
        <dc:type
           rdf:resource="http://purl.org/dc/dcmitype/StillImage" />
        <dc:title></dc:title>
      </cc:Work>
    </rdf:RDF>
  </metadata>
  <g
     style="opacity:1"
     id="layer3" />
  <g
     id="g5347"
     transform="matrix(1.1519872,0,0,1.1519872,-31.41727,-17.734291)">
    <path
       id="path5325-9"
       d="m 112.58911,31.14112 c -15.167145,0.0759 -30.416225,4.01406 -43.262115,12.19591 -4.15554,2.47376 -7.90469,5.64702 -10.63182,9.67151 -8.82914,11.75619 -12.74643,26.74531 -12.03033,41.33597 0.44566,19.83145 7.51285,38.96544 17.23755,56.05092 8.87913,15.6223 20.89879,29.38514 35.03335,40.46378 16.644005,13.06621 35.723255,23.44444 56.367875,28.47683 14.32809,3.49316 30.11432,3.53256 43.58633,-3.06674 8.0321,-3.87904 14.27861,-10.5889 19.66155,-17.54608 10.19139,-13.25783 15.21857,-30.27994 14.40062,-46.88059 0.42074,-14.65016 -3.68799,-38.43016 -17.50095,-60.897654 C 207.85146,77.892604 195.56925,65.312111 183.40218,56.326431 163.72013,40.362501 138.09925,30.6645 112.58911,31.14112 Z m -4.04026,36.54979 c 7.56005,-0.0609 15.18233,0.53105 22.44285,2.66166 9.02329,2.37346 17.27873,7.18514 24.49783,13.01524 7.59372,6.67552 14.03047,14.50768 20.45551,22.27538 9.33295,12.00186 16.37527,26.20265 18.4714,41.31573 0.78899,8.63152 0.87511,17.91816 -1.93697,26.10274 -1.38281,-0.85502 -3.18657,0.0566 -4.73337,-0.0147 -6.95593,0.46242 -13.91695,0.21719 -20.69619,-1.63575 -19.70438,-4.92259 -36.58072,-17.72669 -49.44686,-33.11087 -9.89185,-12.0173 -17.798857,-26.07327 -21.094455,-41.35367 -1.82703,-9.2298 -1.66991,-19.07199 2.56621,-27.66155 0.146852,-0.97143 -0.50584,-1.53482 0.949685,-1.33316 2.82694,-0.19604 5.66869,-0.26156 8.52436,-0.26112 z"
       style="opacity:1;fill:#ffaaaa;fill-opacity:1;stroke:none;stroke-width:0.25518644;stroke-miterlimit:4;stroke-dasharray:none;stroke-opacity:0" />
    <path
       id="path5325"
       d="m 112.66107,31.101805 c -15.167148,0.07589 -30.416228,4.014061 -43.262117,12.195913 -4.155535,2.473756 -7.904687,5.647019 -10.631819,9.671506 -8.829138,11.756189 -12.746432,26.745315 -12.030325,41.33597 0.44566,19.831456 7.51285,38.965436 17.237549,56.050916 8.879121,15.6223 20.898788,29.38515 35.033348,40.46379 16.644004,13.0662 35.723254,23.44443 56.367874,28.47682 14.32809,3.49316 30.11432,3.53256 43.58633,-3.06674 8.0321,-3.87904 14.27861,-10.58889 19.66155,-17.54608 10.19139,-13.25783 14.23109,-30.24062 14.32866,-46.84127 -0.99415,-22.30724 -8.3099,-45.72224 -20.04213,-64.44442 C 205.14382,75.094902 195.0586,65.272798 183.14123,56.370343 163.45918,40.406411 138.17121,30.625189 112.66107,31.101805 Z m -4.04026,36.549789 c 7.56005,-0.06089 15.18233,0.53105 22.44285,2.661662 9.02329,2.373459 17.27873,7.185134 24.49783,13.015243 7.59372,6.67552 14.03047,14.507675 20.45551,22.275381 9.33295,12.00185 16.37527,26.20264 18.4714,41.31572 0.78899,8.63153 0.87511,17.91816 -1.93697,26.10275 -1.38281,-0.85503 -3.18657,0.0566 -4.73337,-0.0147 -6.95593,0.46242 -13.91695,0.21719 -20.69619,-1.63576 -19.70438,-4.92256 -36.58072,-17.72666 -49.44686,-33.11083 -9.89185,-12.01731 -17.798859,-26.07327 -21.094452,-41.35368 -1.827032,-9.229798 -1.66991,-19.071986 2.56621,-27.661548 0.14685,-0.971428 -0.505842,-1.534815 0.949682,-1.333156 2.82694,-0.196038 5.66869,-0.261562 8.52436,-0.261122 z"
       style="opacity:0.75;fill:url(#linearGradient4603);fill-opacity:1;stroke:none;stroke-width:0.25518644;stroke-miterlimit:4;stroke-dasharray:none;stroke-opacity:0" />
    <path
       id="path5331"
       d="M 90.576271,69.423728 C 65.336453,93.41179 77.782817,145.69659 125.72918,181.65746 80.826393,154.21055 73.424721,123.66483 72.135593,109.55932 70.580503,94.16868 72.255681,77.764316 90.576271,69.423728 Z"
       style="fill:#ff2a2a;stroke:none;stroke-width:1px;stroke-linecap:butt;stroke-linejoin:miter;stroke-opacity:1" />
    <path
       id="path5319"
       d="m 112.66107,31.101805 c -15.167148,0.07589 -30.416228,4.014061 -43.262117,12.195913 -4.155535,2.473756 -7.904687,5.647019 -10.631819,9.671506 -8.829138,11.756189 -12.746432,26.745315 -12.030325,41.33597 0.44566,19.831456 7.51285,38.965436 17.237549,56.050916 8.879121,15.6223 20.898788,29.38515 35.033348,40.46379 16.644004,13.0662 35.723254,23.44443 56.367874,28.47682 14.32809,3.49316 30.11432,3.53256 43.58633,-3.06674 8.0321,-3.87904 14.27861,-10.58889 19.66155,-17.54608 10.19139,-13.25783 14.80242,-30.27994 13.98447,-46.88059 -0.99415,-22.30724 -9.87998,-43.51896 -21.61221,-62.241143 C 203.22955,77.258859 194.39277,65.356027 182.80831,56.370343 163.12626,40.406411 138.17121,30.625189 112.66107,31.101805 Z m -4.04026,36.549789 c 7.56005,-0.06089 15.18233,0.53105 22.44285,2.661662 9.02329,2.373459 17.27873,7.185134 24.49783,13.015243 7.59372,6.67552 14.03047,14.507675 20.45551,22.275381 9.33295,12.00185 16.37527,26.20264 18.4714,41.31572 0.78899,8.63153 0.87511,17.91816 -1.93697,26.10275 -1.38281,-0.85503 -3.18657,0.0566 -4.73337,-0.0147 -6.95593,0.46242 -13.91695,0.21719 -20.69619,-1.63576 -19.70438,-4.92256 -36.58072,-17.72666 -49.44686,-33.11083 -9.89185,-12.01731 -17.798859,-26.07327 -21.094452,-41.35368 -1.827032,-9.229798 -1.66991,-19.071986 2.56621,-27.661548 0.14685,-0.971428 -0.505842,-1.534815 0.949682,-1.333156 2.82694,-0.196038 5.66869,-0.261562 8.52436,-0.261122 z"
       style="fill:#ff2a2a;fill-opacity:0;stroke:#000000;stroke-width:0.25518644;stroke-miterlimit:4;stroke-dasharray:none;stroke-opacity:0" />
    <g
       id="g5311">
      <path
         style="fill:none;stroke:#000000;stroke-width:0.652785;stroke-linecap:butt;stroke-linejoin:round;stroke-miterlimit:4;stroke-dasharray:none;stroke-opacity:1"
         d="m 64.206689,47.229439 c 27.135678,-21.388294 65.304931,-20.01114 95.325771,-5.406541 20.89706,9.819543 42.47836,26.947053 54.378,46.64922 16.05073,25.031032 23.58658,55.155242 16.46363,85.122242 -4.46256,17.5433 -15.75217,34.00687 -31.83657,42.67512 -22.72032,10.52628 -48.77473,3.36783 -70.14533,-7.03365 -33.140426,-16.11269 -60.796868,-44.1595 -73.83756,-78.88344 -9.417153,-24.07378 -12.32782,-53.597586 3.303109,-75.822557 1.691655,-2.403896 4.317211,-5.176392 6.34895,-7.300394 z"
         id="path5302" />
      <path
         style="fill:none;stroke:#000000;stroke-width:0.652785;stroke-linecap:round;stroke-linejoin:round;stroke-miterlimit:4;stroke-dasharray:none;stroke-opacity:1"
         d="M 72.135593,109.55932 C 70.931858,97.395683 71.660056,83.113542 82.342877,75.084755 c 7.407751,-7.085084 17.689963,-8.124871 27.458893,-7.771546 19.82668,-0.497171 39.60225,7.612014 52.86928,22.446379 13.75441,14.802682 26.96824,31.377532 31.07667,51.690662 2.81601,15.17975 2.80481,33.92848 -9.60898,45.03623 -6.93655,5.73578 -17.20154,8.07187 -25.76586,4.97115"
         id="path5304" />
      <path
         style="fill:none;stroke:#000000;stroke-width:0.652785;stroke-linecap:round;stroke-linejoin:round;stroke-miterlimit:4;stroke-dasharray:none;stroke-opacity:1"
         d="m 99.79661,67.79661 c -7.439036,12.808852 -4.789514,28.619845 0.35282,41.77388 9.13257,22.45445 25.92219,41.81439 46.90534,53.96352 13.80028,7.8862 30.21551,12.0548 46.02997,8.94057"
         id="path5306" />
    </g>
    <path
       id="path5327"
       d="m 113.08475,35.79661 c 61.72752,-8.432854 149.91552,89.68521 96.61392,161.56491 C 229.21739,164.50727 225.29724,130.22024 196.33899,89.491525 167.75852,53.589527 144.62319,38.089316 113.08475,35.79661 Z"
       style="fill:#ffffff;fill-opacity:1;stroke:none;stroke-width:1px;stroke-linecap:butt;stroke-linejoin:miter;stroke-opacity:1" />
    <path
       id="path5335"
       d="m 91.932204,106.74575 c 20.512016,38.95789 37.928726,60.51664 82.169496,73.22035 -16.08179,-3.422 -31.222,-8.52901 -43.11865,-17.08475 -23.48485,-18.75593 -28.70642,-33.82976 -39.050846,-56.1356 z"
       style="fill:#ffd5d5;fill-opacity:1;stroke:none;stroke-width:1px;stroke-linecap:butt;stroke-linejoin:miter;stroke-opacity:1" />
    <path
       id="path4605"
       d="m 185.40757,75.488879 c 13.52102,13.159497 55.41531,76.678921 14.31542,132.500771 6.92527,-4.78803 10.23621,-8.27943 15.44025,-16.3379 12.43901,-19.23832 11.17542,-38.02212 10.69368,-48.24791 L 210.37631,97.128451 Z"
       style="fill:#ffffff;fill-opacity:1;stroke:none;stroke-width:0.86806518px;stroke-linecap:butt;stroke-linejoin:miter;stroke-opacity:1" />
  </g>
</svg>
