<?xml version="1.0" encoding="UTF-8" standalone="no"?>
<!-- Created with Inkscape (http://www.inkscape.org/) -->

<svg
   xmlns:dc="http://purl.org/dc/elements/1.1/"
   xmlns:cc="http://creativecommons.org/ns#"
   xmlns:rdf="http://www.w3.org/1999/02/22-rdf-syntax-ns#"
   xmlns:svg="http://www.w3.org/2000/svg"
   xmlns="http://www.w3.org/2000/svg"
   xmlns:sodipodi="http://sodipodi.sourceforge.net/DTD/sodipodi-0.dtd"
   xmlns:inkscape="http://www.inkscape.org/namespaces/inkscape"
   version="1.1"
   viewBox="0 0 256 256"
   id="svg6"
   sodipodi:docname="Thompson.svg"
   inkscape:version="0.92.3 (2405546, 2018-03-11)">
  <defs
     id="defs10" />
  <sodipodi:namedview
     pagecolor="#ffffff"
     bordercolor="#666666"
     borderopacity="1"
     objecttolerance="10"
     gridtolerance="10"
     guidetolerance="10"
     inkscape:pageopacity="0"
     inkscape:pageshadow="2"
     inkscape:window-width="1920"
     inkscape:window-height="1017"
     id="namedview8"
     showgrid="true"
     inkscape:zoom="2.6074563"
     inkscape:cx="255.78511"
     inkscape:cy="179.57507"
     inkscape:window-x="1912"
     inkscape:window-y="-8"
     inkscape:window-maximized="1"
     inkscape:current-layer="svg6"
     showguides="false">
    <inkscape:grid
       type="xygrid"
       id="grid817" />
  </sodipodi:namedview>
  <style
     id="style2">svg { cursor: default;}</style>
  <metadata
     id="metadata4">
    <rdf:RDF>
      <cc:Work
         rdf:about="">
        <dc:format>image/svg+xml</dc:format>
        <dc:type
           rdf:resource="http://purl.org/dc/dcmitype/StillImage" />
        <dc:title />
      </cc:Work>
    </rdf:RDF>
  </metadata>
  <path
     style="fill:none;stroke:#000000;stroke-width:1px;stroke-linecap:butt;stroke-linejoin:miter;stroke-opacity:1"
     d=""
     id="path853"
     inkscape:connector-curvature="0" />
  <g
     transform="matrix(0.14029886,-0.09326604,0.09326604,0.14029886,-35.40187,180.25621)"
     style="fill:none;stroke:#000000;stroke-width:1px;opacity:1"
     id="g90">
    <path
       inkscape:connector-curvature="0"
       d="m 480,141 h 16 v -2 h 4 v -3 h 1 l 6.6987,-25 h 0.30127 v -1 h 1 v -1 h 1 v -1 h 1 v -1 h 2 v -1 h 1 l 106,-1 v 1 h 3 v 1 h 1 v 1 h 1 v 1 h 1 v 1 h 1 v 1 h 1 v 1 h 2 v 1 h 1 v 1 h 1 v 1 h 1 v 1 h 1 v 3 h 1 v 2 h 1 l 5,15.492 235,-0.49156 v -1.5314 l 3,0.0584 v -0.91423 l 4,-1.6128 v -2 l -2,-1 h -1 v -2 l -1.4238,-3 -0.57615,-1 v -11 h 1 v -2 h 1 v -1 h 1 v -1 h 1 v -1 h 1 v -1 h 1 v -1 h 2 v -1 h 9 v 1 h 3 v 1 h 1 v 1 h 1 v 1 h 1 v 1 h 1 v 1 h 1 v 2 h 1 v 11 l -1,4 v 2 h -1 l -2,1.1547 v 1.8453 l 5,1.3398 v 2.6602 H 1101 l 2,2 h 6 l 2,2 4,1 c 116,-0.20037 224,-2 340,-2 h 362 v -3 l 3,-5 1,-1 h 2 v -4 l 3,-6 1,-7 v -9 h 14 l 3,1 3,2 3,3 1,5 2,7 1,7.5862 1,1.4138 h 77 l 3,0.49956 2,1.5004 4,4 2,3 1,3 1,5 v 11.542 l -1,3.4582 -1,3.486 -1.802,3.514 -2.9567,3.2358 -3.2413,2.7642 -2,1 -78,1 -3,3 h -30 v -1 h -1 v -1 h -1 v -1 h -1 v -1 h -1 v -2 h -1 v -3 h -1 v -3 l -356,7 h -7 l -343,1 v 4 l -1,2 h -6 l -1,0.43618 v 7.5638 l 0.4812,0.77318 0.7781,0.58355 h 1.1671 l 0.9142,-0.35673 0.6594,-1.1994 1,-0.8006 1,-0.4054 252,3.1706 h 10 l 5,0.46684 5,2.7679 v 5 l -4.4952,9 -5.5048,7 -8,9 -5.519,6 -7.0804,8.4607 -3.4006,4.5393 -3,6 -2,6 -2,7 v 9 l 1,4 1,3 v 4 l -1,2 h -11 l -12,4 -5,4 -3,4 -3,3 -2,3 -1,4 -1,5 v 10 l -1,2 -12,4 -3,2 -4,3 -3,3 -4,5 -4,10 v 11 l -3,2 -4,1 -4,2 -5,3 -5,4 -3,4 -2,3 -2,4 c 0,0 -1,3 -1,4 v 9 l 1,4 4,9 v 3 l -1,1 -23,1 -3,-1.4354 -4,-1.5646 -5.4064,-1 -7.5936,-2 -6.6061,-2 -5.3939,-2.4999 -4,-2.5001 -3,-3.491 -4,-4.509 -3,-5 -2,-3 -2,-4 -2.5546,-4 -1.9452,-5 -1.0504,-5 -1.4498,-5 v -15.377 l 1,-6.1856 4,-11.438 2,-5 2,-4 4,-7 4.5947,-7 4.9407,-6 7.4646,-9 5,-4 6,-5 16,-12 4,-4 4,-5 4,-7 2,-4 v -13 l -1,-3 -3,-5 -4,-5 -4,-4 -7,-4 -5,-2 -3,-1 h -9 l -6,1 -8,4 -52,23.118 -8,2.8824 -8,2 -3,1 -7,1 -1,-3 -1,-5.5552 -2,-13.445 -1,-6 -1,-19 h -92.758 l -1.2415,-29 -1,-0.59715 -67.99998,1.5972 v 250 h -12.545 v -122.44 l -29.878,0.46684 h -72.577 l -3.2846,0.97128 -5.7154,3 -7,5 -4,5 -3,5 -12,18 -4,9 -3,6 -1,6 -1,7 v 15 l -2,2 h -2 l -4,1 -4,2 -4,3 -4,4 -3,4 -3,6 -3,8 v 10 l 1,2 v 7 l -2,2.5268 -1,0.47315 -21,1 h -4 l -12,-3 -9,-9 -5,-3 -3,-2 -6,-5 -4,-5 -2,-4 -1,-4 -2,-6 -1,-6 v -24 l 1,-10 2,-6 2,-3 6,-13 3,-4 8,-11 13,-17 7,-11 4,-7 4,-12 v -19 l -7,-7 -4,-3 -5,-3 -3,-1 -4.5935,-1 h -48.407 v 3 l -3.4641,6 -3.5359,6 -3,3 -6,6.5967 -5,4.4033 -5.5991,5 -9.4009,6 -11,6 -9,5 -15,7 -21,6 -15,3 -7,1 h -12 l -6,1 -5,1.3398 -7,3.1195 -3.5106,1.5407 -22.489,9 -48,19 -26,12 -10,5 -18,10 -12,8 -16,10 -18,12 -16,10 -14,9 -17,11 -13,8 -20,11 -11,5 -8,5 -14,6 -11,5 -41,15.227 -25,7.7729 -15,5 -50,10 -20,5 c 0,0 -6,1 -7,0 l -2,-2 -4,-6 -2,-7 -3,-13 v -22 l 1,-12 1,-17 2,-16 1,-10 1,-11 1,-19 2,-31 v -9 l 1,-12 2,-15 1,-3 2,-4 2,-2 3,-1 20,-4 36,-8 262,-61 19,-3 8,-1 h 7 l 6.3961,2 8.6039,3.4503 16.512,8.2251 c 0,0 10.811,3.3246 10.866,3.3246 0.055,0 2.6224,0.60915 2.6224,0.60915 l 12.645,-0.19256 12.355,-4.4166 6.5161,-3 12.484,-6 1,-1 v -2 l -15,-14 h -5 v -4 l -1,-2 h -7 v -29 h -4 l -2,-2 v -15 l 1.732,-1 h 3.268 v -15"
       id="path6"
       style="" />
    <path
       inkscape:connector-curvature="0"
       d="m 480,156 v 18"
       id="path8"
       style="" />
    <path
       inkscape:connector-curvature="0"
       d="m 500,139 141,-2"
       id="path10"
       style="" />
    <path
       inkscape:connector-curvature="0"
       d="m 613,116 v 10 l -0.29643,1 -0.70357,1 -1.6347,1 -2.3653,1 -82,1 -1.5832,-1 -1.1282,-1 -1.0504,-1.3589 -0.99204,-1.4005 v -9.2405 l 0.5252,-1.205 0.87532,-0.795 1.3533,-1.2085 1.6811,-1.0115 2.0035,-0.77999 77.315,-1 2,0.52817 1.5497,0.47183 2.4503,1.2887 1,0.71127 z"
       id="path12"
       style="" />
    <path
       inkscape:connector-curvature="0"
       d="m 883,131 h 17"
       id="path14"
       style="" />
    <path
       inkscape:connector-curvature="0"
       d="m 876,136 h 29.514"
       id="path16"
       style="" />
    <path
       inkscape:connector-curvature="0"
       d="m 1047,136 c 1,1 5,6 5,6 l 2,4 1,4 v 5 l -2,3 -2,1 h -14 l -6,-8 h -68 l -2,-1 v -6 l 0.65273,-2.4597 1.3473,-1.5403 1.6512,-1.5682 2.3488,-2.4318"
       id="path18"
       style="" />
    <path
       inkscape:connector-curvature="0"
       d="m 960.45,149.54 -2.4452,-0.97258 -3,-1.571 -6,-3 -4,-3 -1,-3 v -2"
       id="path20"
       style="" />
    <path
       inkscape:connector-curvature="0"
       d="m 1270,192 v -3 l 1,-1 h 4 l 3,1 1,1 v 1.4814"
       id="path22"
       style="" />
    <path
       inkscape:connector-curvature="0"
       d="m 1299.6,192 v -4 l 1.3956,-0.52563 h 11 l 1,0.52563 v 4"
       id="path24"
       style="" />
    <path
       inkscape:connector-curvature="0"
       d="m 1817,139 v 33"
       id="path26"
       style="" />
    <path
       inkscape:connector-curvature="0"
       d="m 1855,178 c 1,-1 0,-47 0,-47"
       id="path28"
       style="" />
    <path
       inkscape:connector-curvature="0"
       d="m 1842,138 c 1.4142,1.4142 4.5858,1.4142 6,0 1.4142,-1.4142 1.4142,-4.5858 0,-6 -1.4142,-1.4142 -4.5858,-1.4142 -6,0 -1.4142,1.4142 -1.4142,4.5858 0,6 z"
       id="path30"
       style="" />
    <path
       inkscape:connector-curvature="0"
       d="m 1844,134 c 0.4714,-0.4714 1.5286,-0.4714 2,0 0.4714,0.4714 0.4714,1.5286 0,2 -0.4714,0.4714 -1.5286,0.4714 -2,0 -0.4714,-0.4714 -0.4714,-1.5286 0,-2 z"
       id="path32"
       style="" />
    <path
       inkscape:connector-curvature="0"
       d="m 509,225 6,-4 8,-5 5,-3 1,-1 128,-1 1,27"
       id="path34"
       style="" />
    <path
       inkscape:connector-curvature="0"
       d="m 552,226 c 8.7233,0.12422 18.882,9.2766 19,18 0.121,8.9559 -10.044,19.115 -19,19 -9.1946,-0.11786 -19.373,-10.812 -19,-20 0.34466,-8.4914 10.502,-17.121 19,-17 z"
       id="path36"
       style="" />
    <path
       inkscape:connector-curvature="0"
       d="m 543,244.11 c 0.12393,-4.267 5.7327,-8.5509 10,-8.4401 4.0125,0.10415 8.8821,4.428 9,8.4401 0.12462,4.2408 -4.4837,9.5487 -8.7249,9.6602 -4.483,0.11789 -10.405,-5.1776 -10.275,-9.6602 z"
       id="path38"
       style="" />
    <path
       inkscape:connector-curvature="0"
       d="m 550,236 1,17"
       id="path40"
       style="" />
    <path
       inkscape:connector-curvature="0"
       d="m 553,236 2,17"
       id="path42"
       style="" />
    <path
       inkscape:connector-curvature="0"
       d="m 844,254 11,6 3,5 -1,5 v 5 l 1,6 1,2.5267 2,3.4733 2,3 2,2 5,4 3.4185,2 L 875,298.64304 875.33011,298 875,296.4423 l -1,-0.44234 -2,-1.4008 -2,-1.8981 c 0,0 -1.7102,-2.8609 -2,-2.9985 -0.28983,-0.13754 -1.5277,-2.7027 -1.5277,-2.7027 l -0.77024,-2.689 -0.70203,-3.311 0.31691,-4.5566 0.68309,-4.4434 1.5451,-5 2.4549,-4.6136 4,-5.3864 4,-4 7,-5 4,-2 8,-3 h 2 l 3,1 8,4 5,4 3,4 c 0,0 3,4 3,5 0,1 1,5 1,5 l -1,4 -4,4 h -1 l -1,1 -1,2 c 0,0 -3,8 -3,8 v 2 l 1,1 h 4 l 1,1 -3,4 -5,3 -6,3 c 0,0 -3,1 -3,1 h -42 l -6,-2 -6,-3 -5,-6 -4,-6 -2,-11 1,-9 2,-6 3,-3 h 2 z"
       id="path44"
       style="" />
    <path
       inkscape:connector-curvature="0"
       d="m 840,255 4,-5 6,-5 4,-1 10,-1 h 12 21"
       id="path46"
       style="" />
    <path
       inkscape:connector-curvature="0"
       d="m 846,255 c 1,0 31,-2 31,-2"
       id="path48"
       style="" />
    <path
       inkscape:connector-curvature="0"
       d="m 917,290 3,-4 3,-7 1,-9 v -4 l -1,-6 -7,-6"
       id="path50"
       style="" />
    <path
       inkscape:connector-curvature="0"
       d="m 832,304 -0.40259,-26 -1.5974,-4 -1,-3 -2.46,-5.5634 -2.54,-4.4366 -8,-8 -4,-3 -3,-2 -5.413,-2 -2.587,-1 h -40 l -1,1 v 7 l -0.56825,1 h -29.839"
       id="path52"
       style="" />
    <path
       inkscape:connector-curvature="0"
       d="m 738,254 -3,-6 -2,-3.4934 -4,-4.007 -4,-2.4996 -6,-4 -4,-4 -5,-3 -6,-5 -8,-4 -21,-7 h -19"
       id="path54"
       style="" />
    <path
       inkscape:connector-curvature="0"
       d="m 940,206 -310,1.8877"
       id="path56"
       style="" />
    <path
       inkscape:connector-curvature="0"
       d="m 940,201 h -7 l -3,-2 -1,-3 v -4 l 1,-3 1,-2 4,-2 5,-1"
       id="path58"
       style="" />
    <path
       inkscape:connector-curvature="0"
       d="m 922,206 v -7 h -57 v -12 l -360,2"
       id="path60"
       style="" />
    <path
       inkscape:connector-curvature="0"
       d="m 499,139 3.3501,1.5721 4,4 v 63 h 172"
       id="path62"
       style="" />
    <path
       inkscape:connector-curvature="0"
       d="m 496,211 7,-5 3,-4"
       id="path64"
       style="" />
    <path
       inkscape:connector-curvature="0"
       d="m 495,141 v 70"
       id="path66"
       style="" />
    <path
       inkscape:connector-curvature="0"
       d="m 883,243 6,-3 6,-5 2,-5 1,-6 v -3.4578 L 895,216 l -5,-5 -6.4278,-5"
       id="path68"
       style="" />
    <path
       inkscape:connector-curvature="0"
       d="m 910,236 c 0,-2.357 2.643,-5 5,-5 2.357,0 5,2.643 5,5 0,2.357 -2.643,5 -5,5 -2.357,0 -5,-2.643 -5,-5 z"
       id="path70"
       style="" />
    <path
       inkscape:connector-curvature="0"
       d="m 880,211 c 2.357,0 5,2.643 5,5 0,2.357 -2.643,5 -5,5 -2.357,0 -5,-2.643 -5,-5 0,-2.357 2.643,-5 5,-5 z"
       id="path72"
       style="" />
    <path
       inkscape:connector-curvature="0"
       d="m 675,211 h 105 l 1,-1 2,-3"
       id="path74"
       style="" />
    <path
       inkscape:connector-curvature="0"
       d="m 780,211 -4,4 v 3 l 1,3 1,2 2,2 2,1 3,1 h 4 l 3,-2 4,-5 4,-1 59,-1 2,1 1,1 1,2 v 10 l -4,4 -14,5 -46,2 h -10 l -3,-0.51633 -8,-2.4837 -8,-3 -9,-4 -4,-3 -9,-5 h -3 l -2,1 -3,1.467 -7,-0.46698 -3,-5 -1,-6 3,-5"
       id="path76"
       style="" />
    <path
       inkscape:connector-curvature="0"
       d="m 735,216 c 1.1785,-1.1785 3.8215,-1.1785 5,0 1.1785,1.1785 1.1785,3.8215 0,5 -1.1785,1.1785 -3.8215,1.1785 -5,0 -1.1785,-1.1785 -1.1785,-3.8215 0,-5 z"
       id="path78"
       style="" />
    <path
       inkscape:connector-curvature="0"
       d="m 785,220 c 1.8856,0 4,-2.1144 4,-4 0,-1.8856 -2.1144,-4 -4,-4 -1.8856,0 -4,2.1144 -4,4 0,1.8856 2.1144,4 4,4 z"
       id="path80"
       style="" />
    <path
       d="m 997,175 v 8 l 2,2 2,1.1547 4.3094,-1.1547 H 1008 l -0.5359,2 -5.4641,2 -2,2 v 237.67 l -1,1.325 h -12 l -2,1.1547 H 944 V 426 h -4 l 5.2e-4,-249.99986 z"
       id="path82"
       inkscape:connector-curvature="0"
       sodipodi:nodetypes="cccccccccccccccccc"
       style="" />
    <path
       inkscape:connector-curvature="0"
       d="m 1103,204 2,-8 0.3406,-4"
       id="path86"
       style="" />
    <path
       inkscape:connector-curvature="0"
       d="m 1051,159 -1,44.738"
       id="path88"
       style="" />
  </g>
  <path
     style="fill:none;stroke:#000000;stroke-width:0.16847055px;stroke-linecap:butt;stroke-linejoin:miter;stroke-opacity:1;opacity:1"
     d="m 123.03093,136.34525 1.75997,-1.16997"
     id="path928"
     inkscape:connector-curvature="0" />
  <path
     style="opacity:1;fill:#ff7f2a;fill-opacity:1;stroke:#000000;stroke-width:0.02621626;stroke-linecap:round;stroke-miterlimit:4;stroke-dasharray:none;stroke-dashoffset:0;stroke-opacity:1;paint-order:stroke markers fill"
     d="m 112.90525,122.4767 -0.34833,-0.52398 -4.01716,2.67048 -4.01716,2.67047 -0.55151,-0.82963 -0.55151,-0.82963 -0.85002,0.56819 c -0.46782,0.31203 -10.263353,6.90807 -21.768428,14.65696 -11.505046,7.74895 -22.40121,15.07604 -24.213664,16.28246 l -3.29525,2.1937 -2.043996,-3.07476 -2.043948,-3.07468 -0.543519,-0.1162 -0.543525,-0.1162 2.001585,-1.33683 c 1.101016,-0.73504 5.417465,-3.69951 9.592327,-6.58735 5.514214,-3.81426 13.39654,-9.12153 28.814371,-19.40105 l 21.223657,-14.15051 0.15303,0.23019 c 0.23884,0.35929 1.04163,0.42957 2.5899,0.22676 l 1.39155,-0.18229 4.73472,-3.14749 4.73474,-3.14749 0.82345,0.2711 L 125,106 l 0.91548,-0.60857 0.91549,-0.60859 0.68726,1.03384 c 0.378,0.56861 1.25338,1.94162 1.94522,3.05117 l 1.25805,2.01729 -2.68413,1.78432 -2.68412,1.78431 -1.34003,-1.87723 c -0.88266,-1.23637 -1.40855,-1.90243 -1.54074,-1.9511 -0.18484,-0.068 -0.51304,0.14508 -4.14475,2.69134 -2.1692,1.52087 -4.32741,3.01957 -4.79605,3.33037 l -0.85194,0.5653 0.40637,0.61131 c 0.38256,0.57547 0.39492,0.61899 0.21046,0.74277 -0.10784,0.0722 -0.33485,0.3589 -0.50465,0.63689 -0.27262,0.44632 -0.29288,0.5653 -0.17331,1.01787 0.16001,0.60565 0.25807,0.76738 0.67561,1.11403 0.40302,0.33468 0.85962,0.31182 1.43687,-0.0719 0.43623,-0.28999 0.44833,-0.29083 0.61917,-0.0338 l 0.17416,0.262 -1.13528,0.7547 -1.13528,0.75469 z"
     id="path1030"
     inkscape:connector-curvature="0" />
  <path
     style="opacity:1;fill:#ff7f2a;fill-opacity:1;stroke:#000000;stroke-width:0.02621626;stroke-linecap:round;stroke-miterlimit:4;stroke-dasharray:none;stroke-dashoffset:0;stroke-opacity:1;paint-order:stroke markers fill"
     d="m 47.721147,152.7627 c -0.02286,-0.11598 -0.266016,-0.88331 -0.540262,-1.70522 -0.27425,-0.82191 -0.573729,-1.7278 -0.665494,-2.01307 -0.174033,-0.541 -0.116607,-1.37059 0.105081,-1.51796 0.07075,-0.047 0.118749,-0.1288 0.106609,-0.1818 -0.01236,-0.0541 3.262033,-2.29981 7.466875,-5.12114 l 7.488931,-5.02482 0.737655,0.17072 c 0.4057,0.0939 0.774001,0.14655 0.818434,0.11702 0.145626,-0.0968 1.081066,0.17499 1.195682,0.34741 0.06159,0.0926 0.151258,0.14233 0.199307,0.11039 0.04803,-0.0319 0.136787,0.0163 0.197227,0.10725 0.06045,0.0909 0.174459,0.15088 0.253388,0.1332 0.130408,-0.0292 1.972892,1.39095 1.944544,1.4988 -0.0067,0.0253 -3.185731,2.21906 -7.064574,4.87501 -3.878857,2.65594 -8.21107,5.63585 -9.627123,6.62203 -2.504265,1.74402 -2.575773,1.78729 -2.616265,1.5822 z m 11.017402,-8.58555 c 3.429137,-2.35447 3.529821,-2.4309 3.681102,-2.79715 0.154803,-0.37469 0.15303,-0.38058 -0.368226,-1.21996 -0.288049,-0.46391 -0.597139,-0.91073 -0.687375,-0.99259 -0.269454,-0.24571 -1.087419,-0.11906 -1.765814,0.27342 -0.330581,0.19118 -2.8788,1.90953 -5.663259,3.81774 l -5.062293,3.47001 -0.191908,0.41785 c -0.2963,0.64516 -0.26276,0.87941 0.232346,1.62277 0.479626,0.72073 0.815663,0.93918 1.436466,0.9354 0.370513,-0.002 -0.340675,0.46633 8.388993,-5.52739 z"
     id="path1032"
     inkscape:connector-curvature="0" />
  <path
     style="opacity:1;fill:#ff9955;fill-opacity:1;stroke:#000000;stroke-width:0.02621626;stroke-linecap:round;stroke-miterlimit:4;stroke-dasharray:none;stroke-dashoffset:0;stroke-opacity:1;paint-order:stroke markers fill"
     d="m 50.080482,149.39666 c -0.405015,-0.0816 -0.45864,-0.12837 -0.889768,-0.77691 -0.485539,-0.73039 -0.51037,-0.93902 -0.181863,-1.52771 0.08175,-0.14645 1.931418,-1.44985 5.616792,-3.95789 5.478976,-3.72861 5.496344,-3.73963 5.977895,-3.79465 0.265624,-0.0303 0.549894,-0.008 0.631696,0.0505 0.08181,0.0581 0.353701,0.41406 0.604242,0.79095 0.504515,0.75893 0.52204,0.93186 0.141236,1.39462 -0.133282,0.16193 -2.548133,1.8516 -5.848137,4.09189 l -5.621133,3.81602 z"
     id="path1034"
     inkscape:connector-curvature="0" />
  <path
     style="opacity:1;fill:#ff7f2a;fill-opacity:1;stroke:#000000;stroke-width:0.02621626;stroke-linecap:round;stroke-miterlimit:4;stroke-dasharray:none;stroke-dashoffset:0;stroke-opacity:1;paint-order:stroke markers fill"
     d="m 52.555521,163.53133 c -0.292757,-0.44039 -0.512774,-0.46933 -1.017423,-0.13385 l -0.46309,0.30784 -2.10405,-3.04004 c -1.157284,-1.67199 -2.45027,-3.56069 -2.873413,-4.19706 l -0.769339,-1.15702 0.916954,-0.60956 0.916961,-0.60957 3.076846,4.62846 3.07685,4.62847 -0.305656,0.20319 c -0.269897,0.17942 -0.323088,0.17695 -0.454602,-0.0209 z"
     id="path1036"
     inkscape:connector-curvature="0" />
  <path
     style="opacity:1;fill:#ff7f2a;fill-opacity:1;stroke:#000000;stroke-width:0.02621626;stroke-linecap:round;stroke-miterlimit:4;stroke-dasharray:none;stroke-dashoffset:0;stroke-opacity:1;paint-order:stroke markers fill"
     d="m 47.551729,160.04521 c -0.05335,-0.0107 -0.419137,-0.50418 -0.812936,-1.09657 l -0.715992,-1.07706 0.218331,-0.14514 0.218324,-0.14513 0.754695,1.13528 c 0.693124,1.04266 0.741675,1.14394 0.594598,1.24171 -0.08806,0.0585 -0.203723,0.0977 -0.257045,0.0869 z"
     id="path1038"
     inkscape:connector-curvature="0" />
  <path
     style="opacity:1;fill:#ff7f2a;fill-opacity:1;stroke:#000000;stroke-width:0.02621626;stroke-linecap:round;stroke-miterlimit:4;stroke-dasharray:none;stroke-dashoffset:0;stroke-opacity:1;paint-order:stroke markers fill"
     d="m 50.52932,158.54787 c -1.77441,-2.69856 -3.216841,-4.95251 -3.205514,-5.00871 0.03908,-0.19361 0.546042,-0.28788 1.102132,-0.20497 l 0.557369,0.0831 2.650282,3.99925 2.650192,3.9993 -0.01996,0.40758 c -0.01717,0.35061 -0.208158,0.99507 -0.441206,1.48884 -0.05424,0.11507 -0.680976,-0.79166 -3.293191,-4.76447 z"
     id="path1040"
     inkscape:connector-curvature="0" />
  <path
     style="opacity:1;fill:#ff7f2a;fill-opacity:1;stroke:#000000;stroke-width:0.02621626;stroke-linecap:round;stroke-miterlimit:4;stroke-dasharray:none;stroke-dashoffset:0;stroke-opacity:1;paint-order:stroke markers fill"
     d="m 54.265788,160.80025 -0.7858,-1.18207 4.70242,-3.20237 c 5.22776,-3.56005 36.996071,-24.93082 42.026312,-28.27137 l 3.21029,-2.13205 0.55151,0.82963 0.55151,0.82963 3.9735,-2.64144 3.97349,-2.64145 0.25231,0.37956 0.25233,0.37956 -6.92661,4.68684 c -3.80962,2.57777 -16.842077,11.31553 -28.961067,19.41716 l -22.034487,14.7303 z"
     id="path1042"
     inkscape:connector-curvature="0" />
  <path
     style="opacity:1;fill:#ff9955;fill-opacity:1;stroke:#000000;stroke-width:0.02621626;stroke-linecap:round;stroke-miterlimit:4;stroke-dasharray:none;stroke-dashoffset:0;stroke-opacity:1;paint-order:stroke markers fill"
     d="m 55.531019,163.74205 c -0.788673,-0.1464 -1.426348,-0.29585 -1.417032,-0.33211 0.0094,-0.0363 0.120474,-0.39499 0.247015,-0.79716 l 0.230083,-0.73121 0.184636,0.21859 0.18463,0.21857 19.309132,-12.86321 c 10.620039,-7.07474 19.331162,-12.83006 19.358067,-12.78959 0.0269,0.0405 0.02582,0.14539 -0.0024,0.23313 -0.03356,0.10409 -6.148933,4.23529 -17.600465,11.88973 -15.292857,10.22214 -17.557291,11.75953 -17.612741,11.95812 -0.035,0.12534 -0.374872,0.91044 -0.755306,1.74461 l -0.691691,1.5167 z"
     id="path1044"
     inkscape:connector-curvature="0" />
  <path
     style="opacity:1;fill:#ff9955;fill-opacity:1;stroke:#000000;stroke-width:0.0185377;stroke-linecap:round;stroke-miterlimit:4;stroke-dasharray:none;stroke-dashoffset:0;stroke-opacity:1;paint-order:stroke markers fill"
     d="m 89.793336,147.38686 c -1.254207,-0.26195 -2.354289,-0.26792 -3.151576,-0.0171 -0.58081,0.18271 -0.617398,0.20516 -4.029742,2.47357 l -3.443611,2.2892 -0.622799,-0.8548 c -0.342569,-0.47013 -0.922236,-1.26679 -1.288106,-1.7704 l -0.665298,-0.91559 1.167109,-0.77586 1.167101,-0.77585 1.885237,-0.50965 c 2.124616,-0.57438 2.952757,-0.70338 3.843975,-0.59875 0.338801,0.0398 0.828934,0.0624 1.089169,0.0502 0.260261,-0.0121 0.723167,0.0225 1.028707,0.0769 0.305539,0.0545 1.012895,0.0939 1.571901,0.0876 1.220732,-0.0137 1.813505,0.11356 2.589261,0.55592 0.321044,0.18306 0.593372,0.34735 0.605164,0.36509 0.01179,0.0177 -0.155357,0.14302 -0.371445,0.27839 l -0.392805,0.24623 z"
     id="path1046"
     inkscape:connector-curvature="0" />
  <path
     style="opacity:1;fill:#ff7f2a;fill-opacity:1;stroke:#000000;stroke-width:0.0185377;stroke-linecap:round;stroke-miterlimit:4;stroke-dasharray:none;stroke-dashoffset:0;stroke-opacity:1;paint-order:stroke markers fill"
     d="m 108.53862,143.4391 -1.16414,-1.75119 -0.69593,-0.50712 c -1.33276,-0.97116 -1.78805,-1.19104 -3.0031,-1.45039 -1.28919,-0.27517 -2.28241,-0.30335 -3.16627,-0.0898 l -0.63817,0.15417 -2.89054,1.92153 c -2.296197,1.52644 -2.89327,1.94713 -2.903783,2.0461 -0.0073,0.0685 0.134675,0.36478 0.31549,0.65841 l 0.328723,0.53387 -1.440797,0.98025 -1.440803,0.98025 -0.708985,-0.39703 c -0.914635,-0.51219 -1.435969,-0.63241 -2.681779,-0.61843 -0.559014,0.006 -1.266374,-0.0331 -1.571901,-0.0876 -0.305546,-0.0545 -0.769214,-0.0889 -1.0304,-0.0767 -0.261174,0.0123 -0.775588,-0.008 -1.143139,-0.0453 -0.913828,-0.0925 -1.799806,0.0329 -3.580739,0.50697 l -1.513061,0.40275 3.628208,-2.41911 c 2.887199,-1.92412 3.629518,-2.39694 3.634024,-2.31143 0.0031,0.0592 0.01007,0.25167 0.01542,0.42786 0.0093,0.30803 0.02448,0.33593 0.39367,0.72525 0.268732,0.28342 0.525781,0.47137 0.856644,0.6264 l 0.472688,0.2215 0.553868,-0.30971 c 0.528137,-0.29537 0.565185,-0.32973 0.798236,-0.73999 0.134419,-0.23661 0.317442,-0.47877 0.406728,-0.53812 0.178051,-0.11837 1.613693,-0.25238 2.34142,-0.2186 0.673346,0.0313 2.189427,-0.25054 4.120868,-0.76601 0.96339,-0.2571 1.80164,-0.79118 5.69186,-3.62649 l 3.17894,-2.31691 0.77798,-1.03952 c 0.70308,-0.93941 0.78775,-1.08612 0.87928,-1.52356 l 0.10129,-0.48405 -0.48552,-0.73035 c -0.57064,-0.85842 -0.83944,-1.06135 -1.31579,-0.99338 -0.26752,0.0382 -0.54339,0.21662 -3.66417,2.37025 -5.72615,3.95177 -5.28424,3.58652 -5.36677,4.43565 -0.0962,0.98926 -0.329119,1.29769 -1.115206,1.47642 -0.522022,0.11869 -0.895089,0.045 -1.317245,-0.26031 -0.550109,-0.39781 -0.573765,-0.47529 -0.416121,-1.36226 0.07749,-0.43595 0.124981,-0.81656 0.105538,-0.84581 -0.01949,-0.0293 3.120214,-2.18037 6.977074,-4.78018 l 7.01239,-4.72705 0.52771,0.03 c 1.42911,0.0812 2.52811,0.42731 2.8382,0.89379 0.25594,0.38499 0.52148,1.02274 0.62258,1.49527 0.11005,0.51432 -0.0996,1.34908 -0.52631,2.09518 l -0.29749,0.52021 -1.40472,0.93742 c -1.34548,0.89683 -2.50027,1.80323 -2.87358,2.25483 -0.22699,0.27457 -0.54469,1.35009 -0.60459,2.04666 -0.0274,0.31823 -0.0727,0.6686 -0.10073,0.77859 -0.0738,0.28972 0.21738,1.24343 0.61329,2.00837 0.31261,0.60393 0.40245,0.72356 1.01723,1.35395 0.61979,0.63553 0.72211,0.71159 1.26469,0.94007 1.24062,0.52245 1.67899,0.61714 2.4383,0.52667 1.46542,-0.17463 1.2944,-0.0882 4.67219,-2.36169 l 2.97901,-2.00508 0.41777,-0.70701 c 0.59656,-1.00956 0.83164,-1.54558 0.83567,-1.90554 0.002,-0.17284 0.0347,-0.3353 0.0729,-0.36101 0.10781,-0.0727 0.0927,-0.92837 -0.0277,-1.56383 -0.12345,-0.65154 -0.40969,-1.27693 -0.97958,-2.14021 -0.70934,-1.07428 -0.77158,-1.11624 -2.04122,-1.37054 -1.51396,-0.30323 -1.82882,-0.32356 -2.86019,-0.18466 l -0.8947,0.12049 -1.00873,0.62603 c -0.88834,0.55127 -0.99411,0.60261 -0.88624,0.43001 0.0673,-0.10781 0.21646,-0.50745 0.33137,-0.88808 0.14912,-0.49403 0.19044,-0.79445 0.14442,-1.04988 -0.0906,-0.50273 -0.37986,-1.20515 -0.68892,-1.67279 -0.23896,-0.36105 -0.30931,-0.41779 -0.76794,-0.6153 -0.48395,-0.20843 -1.22363,-0.37 -2.02872,-0.44314 l -0.37676,-0.0343 1.07897,-0.72087 c 0.59326,-0.39678 2.25415,-1.52982 3.69112,-2.51749 l 2.61269,-1.7958 4.49495,6.76168 4.49494,6.76169 -4.00203,2.7195 c -2.20116,1.49568 -5.56507,3.75867 -7.47549,5.02866 l -3.47348,2.30912 z m 7.19382,-14.85352 c 0.0601,-0.0707 0.13006,-0.28201 0.15531,-0.46956 0.1305,-0.96918 -1.22222,-1.41367 -1.69746,-0.55777 -0.29878,0.5381 -0.0662,1.16109 0.49465,1.32516 0.16417,0.048 0.40762,0.0677 0.541,0.0437 0.23535,-0.0424 0.2744,-0.0687 0.50705,-0.34068 z m -6.64548,0.14068 c 0.1449,-0.6476 -0.19098,-1.11611 -0.82996,-1.15764 -0.58841,-0.0382 -0.98997,0.37583 -0.97338,1.00371 0.0115,0.43682 0.29429,0.71617 0.81148,0.80175 0.38311,0.0634 0.43526,0.052 0.67163,-0.14668 0.17464,-0.14671 0.27665,-0.30643 0.3202,-0.50112 z m -13.500757,8.83786 c 0.108752,-0.40298 0.01098,-0.6937 -0.289388,-0.86047 -0.298061,-0.1655 -0.579663,-0.16081 -0.842695,0.0141 -0.418967,0.27851 -0.46835,0.92212 -0.09146,1.19164 0.530047,0.37903 1.069144,0.22692 1.223542,-0.34522 z"
     id="path1048"
     inkscape:connector-curvature="0" />
  <path
     style="opacity:1;fill:#ff9955;fill-opacity:1;stroke:#000000;stroke-width:0.0185377;stroke-linecap:round;stroke-miterlimit:4;stroke-dasharray:none;stroke-dashoffset:0;stroke-opacity:1;paint-order:stroke markers fill"
     d="m 65.944581,163.66036 c -0.419051,-0.44315 -1.545993,-1.81366 -1.535236,-1.86705 0.05166,-0.25658 1.306831,-0.0535 1.613075,0.26096 0.302011,0.31011 0.381748,1.01852 0.175464,1.55861 l -0.08578,0.22464 z"
     id="path1050"
     inkscape:connector-curvature="0" />
  <path
     style="opacity:1;fill:#ff9955;fill-opacity:1;stroke:#000000;stroke-width:0.0185377;stroke-linecap:round;stroke-miterlimit:4;stroke-dasharray:none;stroke-dashoffset:0;stroke-opacity:1;paint-order:stroke markers fill"
     d="m 65.747977,165.87637 c -1.389145,0.28779 -3.146623,-0.39377 -3.667519,-1.42227 -0.378764,-0.74788 -0.244586,-2.07142 0.30212,-2.98026 0.244669,-0.40673 0.338473,-0.50012 0.831541,-0.82789 0.510893,-0.33963 0.601732,-0.37504 1.124817,-0.43909 0.71227,-0.0872 1.701566,0.10038 2.266628,0.42969 0.350943,0.20451 0.461936,0.31494 0.739564,0.73579 0.275165,0.417 0.33732,0.57238 0.394359,0.9844 0.08979,0.64885 -0.141743,1.8016 -0.476241,2.37112 -0.321998,0.54823 -0.963035,1.03411 -1.515269,1.14851 z m 0.633865,-2.08508 c 0.254485,-0.51597 0.239182,-1.30196 -0.03333,-1.7119 -0.177314,-0.26673 -0.56534,-0.50829 -0.957112,-0.59585 -1.040186,-0.23246 -1.824629,0.29816 -2.042877,1.38181 -0.0773,0.38388 -0.07756,0.62031 -8.85e-4,0.80104 0.251012,0.59165 0.822808,0.92539 1.592711,0.9296 0.769202,0.004 1.146319,-0.20633 1.441471,-0.80474 z"
     id="path1052"
     inkscape:connector-curvature="0" />
  <path
     style="opacity:1;fill:#ff9955;fill-opacity:1;stroke:#000000;stroke-width:0.0185377;stroke-linecap:round;stroke-miterlimit:4;stroke-dasharray:none;stroke-dashoffset:0;stroke-opacity:1;paint-order:stroke markers fill"
     d="m 64.94578,164.35419 c -0.885922,-0.0357 -1.404003,-0.43284 -1.406834,-1.07853 -0.0014,-0.32947 0.177218,-0.94422 0.267942,-0.92191 0.04275,0.0105 1.517654,1.95098 1.512965,1.99053 -0.0016,0.0137 -0.169952,0.0181 -0.374073,0.01 z"
     id="path1056"
     inkscape:connector-curvature="0" />
  <path
     style="opacity:1;fill:#ff9955;fill-opacity:1;stroke:#000000;stroke-width:0.01310813;stroke-linecap:round;stroke-miterlimit:4;stroke-dasharray:none;stroke-dashoffset:0;stroke-opacity:1;paint-order:stroke markers fill"
     d="m 65.601396,164.26506 c -0.02791,-0.0128 -0.411202,-0.49899 -0.851721,-1.0804 -0.659517,-0.87033 -0.795194,-1.07035 -0.768238,-1.13211 0.09431,-0.2162 0.152056,-0.16665 1.073195,0.92057 0.493286,0.58224 0.893877,1.0736 0.890191,1.09188 -0.01223,0.0608 -0.291811,0.22377 -0.343393,0.20006 z"
     id="path1058"
     inkscape:connector-curvature="0" />
  <path
     style="opacity:1;fill:#ff7f2a;fill-opacity:1;stroke:#000000;stroke-width:0.01310813;stroke-linecap:round;stroke-miterlimit:4;stroke-dasharray:none;stroke-dashoffset:0;stroke-opacity:1;paint-order:stroke markers fill"
     d="m 97.60197,140.80696 c -1.614571,0.54732 -4.182027,1.0841 -4.935523,1.0319 -0.209764,-0.0145 -0.773343,0.004 -1.252408,0.0421 -0.827371,0.065 -0.884579,0.0775 -1.141121,0.24802 -0.22176,0.14741 -0.306235,0.24296 -0.471971,0.53411 -0.173903,0.30541 -0.243183,0.38137 -0.499866,0.54798 -0.163806,0.10649 -0.39387,0.23793 -0.510976,0.29249 -0.20153,0.0937 -0.233991,0.0891 -0.602003,-0.0837 -0.313143,-0.14714 -0.454348,-0.25175 -0.724154,-0.53648 l -0.33517,-0.3537 -0.01954,-0.43297 -0.01954,-0.43298 3.22977,-2.14705 3.22978,-2.14705 -0.06852,0.35409 -0.06851,0.35408 0.231053,0.30913 c 0.621634,0.83187 1.583442,0.99685 2.531958,0.43435 0.367661,-0.21799 0.377631,-0.22846 0.504631,-0.53066 0.0734,-0.17455 0.14857,-0.53792 0.17335,-0.83781 l 0.0438,-0.52959 0.28521,-0.29034 c 0.23727,-0.24155 0.96049,-0.75462 4.30382,-3.05331 3.79703,-2.6106 4.02862,-2.76359 4.1997,-2.77441 0.0996,-0.006 0.269,0.0248 0.37649,0.0691 0.18282,0.0754 0.22592,0.1264 0.66552,0.78769 l 0.47006,0.70709 -0.10001,0.4415 c -0.0997,0.4401 -0.10239,0.44465 -0.83746,1.41583 l -0.73745,0.97431 -1.50559,1.09741 c -0.82809,0.60356 -1.87535,1.37228 -2.3273,1.70818 -0.93163,0.69232 -3.9317,2.74773 -4.08802,2.80067 z m -8.510226,1.54692 c 0.113461,-0.30003 -0.0412,-0.68044 -0.345272,-0.84928 -0.403181,-0.22386 -1.038292,0.18222 -0.994889,0.63616 0.02327,0.24338 0.258036,0.56653 0.466036,0.64158 0.324651,0.11705 0.745887,-0.0894 0.874093,-0.4284 z"
     id="path1060"
     inkscape:connector-curvature="0" />
  <path
     style="opacity:1;fill:#ff9955;fill-opacity:1;stroke:#000000;stroke-width:0.01310813;stroke-linecap:round;stroke-miterlimit:4;stroke-dasharray:none;stroke-dashoffset:0;stroke-opacity:1;paint-order:stroke markers fill"
     d="m 88.391272,142.59423 c -0.178224,-0.004 -0.333132,-0.1518 -0.394561,-0.37561 -0.05811,-0.21152 -0.004,-0.33677 0.205377,-0.47599 0.207067,-0.13765 0.412659,-0.10727 0.581926,0.086 0.203702,0.23251 0.175152,0.48105 -0.07421,0.64682 -0.100984,0.0671 -0.244295,0.12061 -0.318512,0.1188 z"
     id="path1062"
     inkscape:connector-curvature="0" />
  <path
     style="opacity:1;fill:#ff9955;fill-opacity:1;stroke:#000000;stroke-width:0.01310813;stroke-linecap:round;stroke-miterlimit:4;stroke-dasharray:none;stroke-dashoffset:0;stroke-opacity:1;paint-order:stroke markers fill"
     d="m 94.853712,137.87144 c -0.407353,-0.0471 -0.551033,-0.23557 -0.473449,-0.62104 0.06469,-0.3212 0.16777,-0.41557 0.466698,-0.42732 0.409564,-0.0161 0.640057,0.28797 0.52263,0.68937 -0.07239,0.24744 -0.273033,0.38705 -0.515882,0.35903 z"
     id="path1064"
     inkscape:connector-curvature="0" />
  <path
     style="opacity:1;fill:#ff9955;fill-opacity:1;stroke:#000000;stroke-width:0.01310813;stroke-linecap:round;stroke-miterlimit:4;stroke-dasharray:none;stroke-dashoffset:0;stroke-opacity:1;paint-order:stroke markers fill"
     d="m 108.35909,129.17964 c -0.23701,0.0307 -0.64972,-0.11356 -0.74811,-0.26157 -0.18467,-0.2778 -0.0751,-0.84639 0.19809,-1.028 0.27318,-0.1816 0.83985,-0.0626 1.02452,0.21524 0.10051,0.15119 0.0706,0.58962 -0.0543,0.79763 -0.12964,0.21575 -0.17364,0.24474 -0.42006,0.27684 z"
     id="path1066"
     inkscape:connector-curvature="0" />
  <path
     style="opacity:1;fill:#ff7f2a;fill-opacity:1;stroke:#000000;stroke-width:0.01310813;stroke-linecap:round;stroke-miterlimit:4;stroke-dasharray:none;stroke-dashoffset:0;stroke-opacity:1;paint-order:stroke markers fill"
     d="m 114.69583,140.5111 c -0.43446,0.0288 -1.38035,-0.0505 -1.80781,-0.15149 -0.37667,-0.089 -1.15818,-0.44971 -1.47069,-0.67879 -0.29015,-0.21265 -0.82187,-0.79238 -1.07314,-1.17 -0.11844,-0.17801 -0.29662,-0.51736 -0.39601,-0.75413 l -0.18065,-0.43052 -0.45864,-0.22026 -0.45865,-0.22027 -0.70141,0.057 c -0.39125,0.0318 -0.67021,0.0296 -0.63088,-0.005 0.14194,-0.12497 3.3065,-2.52917 3.48582,-2.64837 l 0.18502,-0.123 -0.062,0.37176 c -0.14979,0.89814 -0.1102,1.96382 0.10008,2.69313 0.14363,0.49816 0.49304,1.26147 0.76789,1.67755 0.20307,0.30701 0.72707,0.80375 1.02553,0.97162 0.53491,0.30089 1.30889,0.51845 1.75915,0.4945 0.10812,-0.006 0.21337,0.0148 0.23388,0.0456 0.0474,0.0714 0.0695,0.065 -0.3175,0.0906 z"
     id="path1070"
     inkscape:connector-curvature="0" />
  <path
     style="opacity:1;fill:#ff7f2a;fill-opacity:1;stroke:#000000;stroke-width:0.01310813;stroke-linecap:round;stroke-miterlimit:4;stroke-dasharray:none;stroke-dashoffset:0;stroke-opacity:1;paint-order:stroke markers fill"
     d="m 106.86501,137.04546 c -0.0883,0.009 -0.23133,0.0469 -0.31801,0.0849 l -0.1576,0.069 0.0232,-0.27618 c 0.0127,-0.15188 0.10509,-0.55561 0.2052,-0.89713 0.16396,-0.55937 0.20761,-0.64819 0.44013,-0.89564 0.56202,-0.59808 1.43525,-1.2503 3.55506,-2.65527 l 2.03206,-1.34724 -0.27478,0.39169 c -0.36772,0.52419 -0.56295,0.90496 -0.84428,1.64671 l -0.23552,0.62094 -0.32302,0.24367 c -0.17764,0.13406 -1.05663,0.80232 -1.95318,1.48518 -0.89659,0.68284 -1.71092,1.30264 -1.8096,1.37737 -0.0985,0.0751 -0.25161,0.14301 -0.33992,0.15164 z"
     id="path1072"
     inkscape:connector-curvature="0" />
  <path
     style="opacity:1;fill:#ff7f2a;fill-opacity:1;stroke:#000000;stroke-width:0.01310813;stroke-linecap:round;stroke-miterlimit:4;stroke-dasharray:none;stroke-dashoffset:0;stroke-opacity:1;paint-order:stroke markers fill"
     d="m 120.08206,135.15565 c -0.076,-0.0228 -0.18012,0.0181 -0.37504,0.14773 -0.15158,0.10076 -0.30792,0.17167 -0.35696,0.16176 -0.16332,-0.0329 -0.27478,-0.29919 -0.44939,-1.07293 -0.17696,-0.78453 -0.18979,-1.00801 -0.0627,-1.0925 0.0389,-0.0259 0.11548,-0.28218 0.17016,-0.56959 0.0899,-0.47269 0.0879,-0.55426 -0.0213,-0.8547 -0.11396,-0.31358 -0.14164,-0.35287 -0.49345,-0.70273 -0.20501,-0.2038 -0.36895,-0.389 -0.36443,-0.41146 0.0192,-0.0952 0.17261,0.009 0.46292,0.31359 0.3932,0.41302 0.72103,0.90745 1.11006,1.67528 0.27444,0.54109 0.32087,0.67785 0.42679,1.25884 0.0653,0.35849 0.10519,0.77032 0.0885,0.91518 -0.0271,0.23587 -0.0413,0.26006 -0.13559,0.23178 z"
     id="path1074"
     inkscape:connector-curvature="0" />
  <path
     style="opacity:1;fill:#ff9955;fill-opacity:1;stroke:#000000;stroke-width:0.01310813;stroke-linecap:round;stroke-miterlimit:4;stroke-dasharray:none;stroke-dashoffset:0;stroke-opacity:1;paint-order:stroke markers fill"
     d="m 115.19141,128.70738 c -0.21097,0.037 -0.52897,-0.0354 -0.70223,-0.15979 -0.18723,-0.13445 -0.24308,-0.38554 -0.15909,-0.71525 0.0813,-0.31902 0.2785,-0.48288 0.59628,-0.49533 0.55188,-0.0216 0.87806,0.42471 0.69126,0.94592 -0.0945,0.26356 -0.21962,0.38821 -0.42621,0.42444 z"
     id="path1076"
     inkscape:connector-curvature="0" />
  <path
     style="opacity:1;fill:#ff9955;fill-opacity:1;stroke:#000000;stroke-width:0.01310813;stroke-linecap:round;stroke-miterlimit:4;stroke-dasharray:none;stroke-dashoffset:0;stroke-opacity:1;paint-order:stroke markers fill"
     d="m 113.92562,121.32604 c -0.4963,-0.0148 -0.95158,-0.53266 -1.09892,-1.25001 -0.0647,-0.31485 -0.0578,-0.35145 0.12936,-0.69388 0.10869,-0.19883 0.26869,-0.42696 0.35556,-0.50696 0.0868,-0.08 0.19483,-0.18585 0.23992,-0.23523 l 0.082,-0.0898 0.72882,1.09635 0.72882,1.09635 -0.44899,0.29535 c -0.42501,0.2805 -0.46295,0.29514 -0.71666,0.28761 z"
     id="path1078"
     inkscape:connector-curvature="0" />
  <path
     style="opacity:1;fill:#ff9955;fill-opacity:1;stroke:#000000;stroke-width:0.01310813;stroke-linecap:round;stroke-miterlimit:4;stroke-dasharray:none;stroke-dashoffset:0;stroke-opacity:1;paint-order:stroke markers fill"
     d="m 112.18252,111.72112 c -1.43664,0.18301 -1.91939,0.1209 -2.20193,-0.28329 l -0.0968,-0.14024 1.44526,-0.96076 1.44525,-0.96075 -0.0877,0.52829 c -0.1,0.60212 -0.0593,0.78467 0.29314,1.31481 0.12065,0.18149 0.20179,0.34167 0.1803,0.35595 -0.0215,0.0143 -0.46096,0.0797 -0.97659,0.14541 z"
     id="path1080"
     inkscape:connector-curvature="0" />
  <path
     style="opacity:1;fill:#ff9955;fill-opacity:1;stroke:#000000;stroke-width:0.01310813;stroke-linecap:round;stroke-miterlimit:4;stroke-dasharray:none;stroke-dashoffset:0;stroke-opacity:1;paint-order:stroke markers fill"
     d="m 124.09897,105.43637 -0.80593,-0.28255 -4.80306,3.19291 c -3.22736,2.14544 -4.84062,3.1965 -4.91756,3.20384 -0.0998,0.009 -0.14696,-0.0379 -0.36723,-0.36974 -0.3743,-0.56383 -0.39915,-0.68894 -0.27465,-1.37989 l 0.10828,-0.60075 5.57263,-3.70348 5.57262,-3.70347 0.60024,0.18222 c 0.97066,0.29464 1.49896,0.65518 1.9464,1.32826 0.20718,0.31165 0.23596,0.38583 0.23644,0.60912 8.8e-4,0.41936 -0.0383,0.46072 -1.11042,1.17325 l -0.95195,0.63264 z"
     id="path1082"
     inkscape:connector-curvature="0" />
  <path
     style="opacity:1;fill:#ff7f2a;fill-opacity:1;stroke:#000000;stroke-width:0.01310813;stroke-linecap:round;stroke-miterlimit:4;stroke-dasharray:none;stroke-dashoffset:0;stroke-opacity:1;paint-order:stroke markers fill"
     d="m 130.49113,110.04899 c -0.70403,-1.13799 -2.82887,-4.49158 -3.191,-5.03633 l -0.31418,-0.47262 0.0973,-0.14493 c 0.0558,-0.0831 0.0982,-0.28209 0.0993,-0.46628 0.002,-0.30907 -0.008,-0.33699 -0.27002,-0.73045 -0.47214,-0.71023 -1.0682,-1.13369 -1.98736,-1.41186 l -0.50438,-0.15265 3.66052,-2.43339 3.66053,-2.433403 0.24973,0.05436 0.24972,0.05436 0.43371,-0.288317 c 0.4299,-0.285782 0.43605,-0.287832 0.69069,-0.249985 0.48697,0.07261 0.1748,0.266548 7.70636,-4.787628 3.75036,-2.516686 8.87955,-5.972298 11.39826,-7.679097 3.97877,-2.696168 13.07848,-8.844049 19.38845,-13.099024 l 1.98891,-1.341141 1.65987,2.496923 1.65988,2.496932 -4.18502,2.82045 c -2.3018,1.551233 -8.57976,5.756422 -13.95102,9.344905 -5.37129,3.588485 -12.59198,8.421317 -16.04598,10.739641 l -6.27994,4.215274 0.19761,0.29727 c 0.10869,0.16349 0.20807,0.36248 0.22092,0.44214 0.0225,0.14018 0.01,0.15379 -0.38251,0.41464 -0.22316,0.14835 -0.44064,0.32578 -0.4833,0.3943 -0.0774,0.12436 -0.0768,0.12573 0.30576,0.70118 0.34381,0.51719 0.40041,0.58228 0.55027,0.63147 0.11878,0.0391 0.20765,0.0278 0.30798,-0.0388 l 0.14101,-0.0937 0.15135,0.29289 c 0.0833,0.16106 0.23801,0.53986 0.3439,0.84173 l 0.19251,0.54884 -3.64185,2.42098 -3.64185,2.42098 z"
     id="path1084"
     inkscape:connector-curvature="0" />
  <path
     style="opacity:1;fill:#ff7f2a;fill-opacity:1;stroke:#000000;stroke-width:0.05243251;stroke-linecap:round;stroke-miterlimit:4;stroke-dasharray:none;stroke-dashoffset:0;stroke-opacity:1;paint-order:stroke markers fill"
     d="m 175.59891,71.901193 -1.62551,-2.445228 29.25536,-19.447996 29.25537,-19.448003 1.26471,1.902475 1.2647,1.902475 -2.94102,2.110952 C 227.7411,39.584824 184.5135,69.506636 180.58781,72.11321 l -3.36311,2.23364 z"
     id="path1086"
     inkscape:connector-curvature="0" />
  <path
     style="opacity:1;fill:#ff7f2a;fill-opacity:1;stroke:#000000;stroke-width:0.05243251;stroke-linecap:round;stroke-miterlimit:4;stroke-dasharray:none;stroke-dashoffset:0;stroke-opacity:1;paint-order:stroke markers fill"
     d="m 239.35041,28.765777 -2.08993,-3.143865 5.40833,-3.595279 5.40835,-3.595296 0.97103,0.130745 c 0.54471,0.07335 1.23608,0.360068 1.57479,0.65307 1.46472,1.267125 2.27543,3.406653 1.80494,4.76778 l -0.27903,0.808015 -5.35428,3.559349 -5.35426,3.559339 z"
     id="path1088"
     inkscape:connector-curvature="0" />
  <path
     style="opacity:1;fill:#ff7f2a;fill-opacity:1;stroke:#000000;stroke-width:0.05243251;stroke-linecap:round;stroke-miterlimit:4;stroke-dasharray:none;stroke-dashoffset:0;stroke-opacity:1;paint-order:stroke markers fill"
     d="m 236.71621,35.316142 c -0.58836,-0.06415 -0.6818,-0.17323 -2.53052,-2.954237 -1.69299,-2.546747 -1.90138,-2.938608 -1.76567,-3.319058 0.21019,-0.589063 -0.0585,-1.724933 -0.77515,-3.27663 l -0.60067,-1.300645 0.99637,-0.662349 c 1.27169,-0.845376 1.8766,-0.796562 3.04049,0.245375 2.06388,1.847633 6.33666,7.672847 6.18402,8.430857 -0.0464,0.230583 -0.72621,0.782131 -2.0041,1.626097 -1.62972,1.07606 -2.02995,1.266719 -2.54477,1.21059 z m 0.13331,-8.022035 c 0.0229,-0.215397 -0.10444,-0.555707 -0.28303,-0.756276 -0.2506,-0.281421 -0.46113,-0.291821 -0.92243,-0.04557 -0.50908,0.271763 -0.57018,0.396867 -0.41174,0.843621 0.3259,0.919001 1.51821,0.888194 1.6172,-0.04178 z"
     id="path1090"
     inkscape:connector-curvature="0" />
  <path
     style="opacity:1;fill:#ff9955;fill-opacity:1;stroke:#000000;stroke-width:0.00655407;stroke-linecap:round;stroke-miterlimit:4;stroke-dasharray:none;stroke-dashoffset:0;stroke-opacity:1;paint-order:stroke markers fill"
     d="m 236.26464,27.668472 c -0.27807,0.120689 -0.53722,0.04318 -0.70699,-0.211374 -0.20957,-0.315242 -0.1505,-0.613657 0.16404,-0.823256 0.27905,-0.185872 0.54792,-0.15278 0.75714,0.09332 0.17187,0.202194 0.21253,0.460792 0.10285,0.654639 -0.0556,0.09817 -0.21511,0.242407 -0.31703,0.28669 z m 0.0982,-0.471734 c 0.0469,-0.184662 -0.1289,-0.412156 -0.31281,-0.404984 -0.19851,0.0078 -0.36601,0.191786 -0.33252,0.365177 0.0312,0.161653 0.14587,0.277417 0.28961,0.292778 0.13061,0.01394 0.32264,-0.122677 0.35572,-0.252946 z"
     id="path1092"
     inkscape:connector-curvature="0" />
  <path
     style="opacity:1;fill:#ff9955;fill-opacity:1;stroke:#000000;stroke-width:0.00655407;stroke-linecap:round;stroke-miterlimit:4;stroke-dasharray:none;stroke-dashoffset:0;stroke-opacity:1;paint-order:stroke markers fill"
     d="m 235.97504,27.234173 c -0.0795,-0.05685 -0.0855,-0.176949 -0.0111,-0.226392 0.0701,-0.04661 0.13697,-0.02117 0.18619,0.07091 0.0375,0.07084 0.0348,0.08208 -0.0362,0.138228 -0.0678,0.05349 -0.0849,0.05595 -0.13891,0.01723 z"
     id="path1094"
     inkscape:connector-curvature="0" />
  <path
     style="opacity:1;fill:#ff7f2a;fill-opacity:1;stroke:#000000;stroke-width:0.0185377;stroke-linecap:round;stroke-miterlimit:4;stroke-dasharray:none;stroke-dashoffset:0;stroke-opacity:1;paint-order:stroke markers fill"
     d="m 100.62055,116.05084 c -0.0523,-0.0372 -0.17763,-0.0384 -0.27842,-0.003 -0.10073,0.0358 -0.20954,0.0254 -0.2417,-0.023 -0.0322,-0.0484 -0.21909,-0.17891 -0.41539,-0.29002 -0.31935,-0.18077 -0.40671,-0.27695 -0.83034,-0.91421 -0.28827,-0.43363 -0.4493,-0.72825 -0.41165,-0.75327 0.034,-0.0226 0.0344,-0.0822 9.7e-4,-0.13256 -0.0792,-0.11917 0.18139,-1.41331 0.30055,-1.49252 0.0504,-0.0335 0.073,-0.0886 0.0504,-0.1226 -0.0241,-0.0363 0.17506,-0.20546 0.48382,-0.41071 0.30876,-0.20525 0.54176,-0.32353 0.56595,-0.28714 0.0226,0.034 0.12394,0.007 0.22519,-0.0606 0.14432,-0.0959 0.32895,-0.0932 0.85422,0.0126 0.36855,0.0742 0.69748,0.17611 0.73093,0.22643 0.0335,0.0504 0.0913,0.0712 0.12844,0.0465 0.0475,-0.0316 0.22625,0.21571 0.598,0.82677 0.78339,1.28773 0.81997,1.38357 0.62729,1.64392 -0.088,0.1189 -0.14273,0.24218 -0.12161,0.27395 0.0224,0.0337 -0.42208,0.36382 -1.06654,0.79223 -0.91523,0.60842 -1.12125,0.72294 -1.20011,0.6669 z"
     id="path1096"
     inkscape:connector-curvature="0" />
  <path
     style="opacity:1;fill:#ff7f2a;fill-opacity:1;stroke:#000000;stroke-width:0.0185377;stroke-linecap:round;stroke-miterlimit:4;stroke-dasharray:none;stroke-dashoffset:0;stroke-opacity:1;paint-order:stroke markers fill"
     d="m 100.55581,117.11201 c -0.0234,-0.0352 0.0469,-0.20067 0.15618,-0.36779 0.10927,-0.16713 0.17958,-0.33261 0.1562,-0.36778 -0.0673,-0.10125 2.14384,-1.54964 2.25029,-1.47402 0.0457,0.0324 0.24933,8.9e-4 0.45266,-0.0701 0.22475,-0.0785 0.39235,-0.0949 0.42748,-0.0421 0.0483,0.0727 -0.22597,0.27554 -1.67126,1.23632 -1.15108,0.7652 -1.74322,1.12806 -1.77154,1.08546 z"
     id="path1098"
     inkscape:connector-curvature="0" />
  <path
     style="opacity:1;fill:#ffd42a;fill-opacity:1;stroke:#000000;stroke-width:0.05243251;stroke-linecap:round;stroke-miterlimit:4;stroke-dasharray:none;stroke-dashoffset:0;stroke-opacity:1;paint-order:stroke markers fill"
     d="m 19.618844,246.07421 c -1.297594,-0.46736 -2.720834,-1.9351 -4.522331,-4.66373 -1.574202,-2.38431 -2.07272,-3.25449 -5.203349,-9.08138 -0.877347,-1.63299 -2.631123,-4.717 -3.8972685,-6.85334 -2.7501104,-4.64022 -4.0892748,-7.19476 -4.2775926,-8.15972 -0.1593441,-0.81649 -0.2903323,-0.64897 3.6040277,-4.60947 1.4462464,-1.47081 9.8710494,-10.36322 18.7217894,-19.7609 8.850735,-9.39769 16.903946,-17.814 17.896035,-18.70292 2.132679,-1.9109 2.232917,-1.95191 6.244369,-2.55495 2.475718,-0.37217 2.882417,-0.49614 4.216005,-1.28515 1.090613,-0.64515 1.667124,-1.11666 2.209076,-1.80375 1.030087,-1.30746 2.378436,-3.71351 3.363104,-6.00123 l 0.839215,-1.94978 8.812419,-5.85821 8.812427,-5.85821 1.378472,1.87462 c 1.311041,1.78291 1.382906,1.92918 1.469663,2.98955 0.160002,1.95634 -0.75015,5.51837 -2.081888,8.14774 -2.613931,5.16091 -4.709155,7.7974 -8.627415,10.85615 l -1.823813,1.42375 -4.673508,6.79755 c -2.570423,3.73864 -5.574302,8.34063 -6.675272,10.22665 -1.837362,3.14747 -2.67739,4.89551 -5.336262,11.10439 -3.111146,7.26501 -5.966955,13.46678 -7.317337,15.89058 -0.852612,1.53035 -1.588233,2.89572 -1.634728,3.03415 -0.190081,0.56606 -2.810373,4.51114 -4.908826,7.39066 -3.59274,4.92999 -6.453285,8.36127 -9.4578,11.34477 -1.543565,1.53276 -3.44082,3.48308 -4.216119,4.33404 -0.775301,0.85096 -1.568227,1.65263 -1.76207,1.78149 -0.194783,0.12949 -0.70967,0.10562 -1.151023,-0.0533 z m 48.103395,-81.59668 c 0.96237,-2.3338 -0.265235,-4.42535 -2.689915,-4.58298 -2.089056,-0.13579 -3.724,1.68096 -3.435091,3.81709 0.119802,0.88579 0.21892,1.07985 0.796549,1.55952 1.889138,1.56876 4.515615,1.17758 5.328457,-0.79363 z"
     id="path1100"
     inkscape:connector-curvature="0" />
  <path
     style="opacity:1;fill:#ffd42a;fill-opacity:1;stroke:#000000;stroke-width:0.05243251;stroke-linecap:round;stroke-miterlimit:4;stroke-dasharray:none;stroke-dashoffset:0;stroke-opacity:1;paint-order:stroke markers fill"
     d="m 105.80892,174.22302 c -0.3356,0.10238 -1.06963,0.10631 -1.63117,0.009 -0.56154,-0.0976 -1.53389,-0.18181 -2.1608,-0.18722 -3.15979,-0.0272 -4.60961,-1.06036 -7.077087,-5.04314 l -1.550807,-2.50318 -0.250869,-2.11182 c -0.137973,-1.1615 -0.165687,-3.57967 -0.06159,-5.37369 0.351918,-6.06456 0.147452,-7.64314 -1.267479,-9.78582 l -0.895498,-1.35648 2.095902,-1.39328 2.095912,-1.3933 -0.406373,-0.6113 -0.406379,-0.61131 2.887478,-1.9195 c 2.11818,-1.4081 3.09238,-1.95917 3.65669,-2.06817 1.29663,-0.25058 3.57093,0.25238 4.9145,1.08685 1.09391,0.6794 1.34592,0.9473 2.4415,2.59537 l 1.22167,1.83774 -0.6688,0.4446 c -1.11226,0.7394 -1.67968,2.57655 -1.71566,5.55483 -0.0516,4.27355 0.51745,6.71385 2.13494,9.15498 l 0.58089,0.8769 -0.64744,0.86447 c -0.86126,1.14992 -1.19565,3.18361 -0.80412,4.89055 0.24749,1.079 0.45235,1.49205 1.20471,2.42893 0.59917,0.74613 0.89302,1.25517 0.86684,1.50145 -0.0456,0.42866 -3.50533,2.79194 -4.55688,3.11272 z"
     id="path1102"
     inkscape:connector-curvature="0" />
  <path
     style="opacity:1;fill:#ffd42a;fill-opacity:1;stroke:#000000;stroke-width:0.05243251;stroke-linecap:round;stroke-miterlimit:4;stroke-dasharray:none;stroke-dashoffset:0;stroke-opacity:1;paint-order:stroke markers fill"
     d="m 174.42595,124.61137 c -0.19867,0.0137 -0.67285,0.1528 -1.0537,0.30916 -3.33331,1.36851 -4.85815,1.35979 -7.68484,-0.044 -2.73758,-1.35947 -4.25046,-2.94974 -5.07081,-5.33015 -1.41899,-4.11745 -1.23016,-8.22547 0.61259,-13.3271 0.64478,-1.78511 0.8523,-2.75533 0.84289,-3.94117 -0.0118,-1.48971 -0.0589,-1.64288 -0.88744,-2.88931 -0.94936,-1.42811 -1.21308,-1.602722 -3.10343,-2.054673 -1.52,-0.363425 -3.1297,-0.08749 -4.40065,0.754343 -0.92828,0.61469 -1.32499,1.14868 -4.18757,5.63427 -1.73922,2.7253 -3.33887,5.2008 -3.55477,5.50111 -0.56089,0.78015 -2.22297,2.5847 -2.35599,2.55792 -0.0617,-0.0124 -0.97786,-0.96799 -2.03599,-2.12349 -1.97937,-2.16152 -3.35864,-4.23075 -3.62346,-5.43627 l -0.13184,-0.59988 3.60031,-2.26797 c 1.98016,-1.2474 10.48186,-6.724358 18.89263,-12.171038 15.50887,-10.043287 15.96898,-10.315885 16.37661,-9.702685 0.31397,0.472302 0.33786,2.03948 0.063,4.130542 -0.64485,4.905309 -0.68022,5.826113 -0.28019,7.297586 0.33557,1.234407 0.55385,1.650554 1.52641,2.91002 l 1.13484,1.469642 -0.81877,0.563741 c -1.60686,1.106493 -2.39737,2.607072 -2.54151,4.824412 -0.0433,0.66623 0.11867,1.18189 0.72218,2.29899 l 0.77801,1.44011 -0.62347,0.81336 c -1.61646,2.10881 -1.82304,4.78807 -0.52029,6.74778 0.49587,0.74592 0.4945,0.75651 -0.20639,1.80075 -0.86777,1.29271 -1.18881,2.34311 -1.15773,3.78779 0.0302,1.40164 0.98579,2.96627 2.36102,3.8656 0.49085,0.321 0.89579,0.68452 0.89989,0.8078 0.009,0.28309 -3.08563,2.33924 -3.57124,2.37299 z"
     id="path1104"
     inkscape:connector-curvature="0" />
  <path
     style="opacity:1;fill:#ff9955;fill-opacity:1;stroke:#000000;stroke-width:0.00599243;stroke-linecap:round;stroke-miterlimit:4;stroke-dasharray:none;stroke-dashoffset:0;stroke-opacity:1;paint-order:stroke markers fill"
     d="m 164.71978,85.635761 -0.1426,-0.212083 0.0756,-0.08597 c 0.0826,-0.094 1.4741,-1.020237 1.57794,-1.050362 0.0606,-0.01759 0.0725,-0.006 0.21368,0.208107 0.12689,0.192431 0.14438,0.231401 0.1156,0.257615 -0.0282,0.02572 -1.57898,1.027987 -1.66874,1.078529 -0.0184,0.01036 -0.0805,-0.06061 -0.17146,-0.195836 z"
     id="path893"
     inkscape:connector-curvature="0" />
  <path
     style="opacity:1;fill:#ff9955;fill-opacity:1;stroke:#000000;stroke-width:0.00599243;stroke-linecap:round;stroke-miterlimit:4;stroke-dasharray:none;stroke-dashoffset:0;stroke-opacity:1;paint-order:stroke markers fill"
     d="m 160.59035,88.429832 c -0.1286,-0.196445 -0.11216,-0.232613 0.20303,-0.446601 0.22673,-0.153931 0.29042,-0.184546 0.50328,-0.241929 0.13404,-0.03613 0.25449,-0.06294 0.26767,-0.05957 0.0132,0.0034 0.051,0.01202 0.0841,0.01922 0.0331,0.0072 0.0778,0.0432 0.0993,0.08 l 0.0392,0.0669 -0.54032,0.34756 c -0.29717,0.191159 -0.54776,0.350577 -0.55686,0.354263 -0.009,0.0037 -0.0538,-0.05025 -0.0994,-0.119848 z"
     id="path895"
     inkscape:connector-curvature="0" />
  <path
     style="opacity:1;fill:#ff7f2a;fill-opacity:1;stroke:#000000;stroke-width:0.02396972;stroke-linecap:round;stroke-miterlimit:4;stroke-dasharray:none;stroke-dashoffset:0;stroke-opacity:1;paint-order:stroke markers fill"
     d="m 137.05294,152.16898 -0.22801,-0.36892 -0.29173,0.17909 -0.29173,0.1791 -11.40959,-17.16695 c -6.27527,-9.44182 -11.48504,-17.28384 -11.57726,-17.42671 l -0.16768,-0.25976 2.51671,-1.73504 c 1.38419,-0.95427 3.11065,-2.14584 3.83657,-2.64794 l 1.31986,-0.91291 0.34149,0.51432 c 0.34405,0.51817 0.52144,0.62497 1.04207,0.62737 0.20566,9.5e-4 0.39743,-0.11 0.69513,-0.40217 0.47243,-0.46365 0.53464,-0.38999 0.12629,0.14954 -0.58126,0.76799 -1.54644,-0.82073 10.64824,17.52737 6.07528,9.14087 11.06399,16.68689 11.08603,16.76895 0.0272,0.10144 -0.22422,0.32506 -0.78559,0.69865 -0.45411,0.3022 -0.85129,0.61626 -0.88261,0.69789 -0.0313,0.0816 -1.33794,1.00312 -2.90358,2.04773 l -2.84661,1.89931 z"
     id="path898"
     inkscape:connector-curvature="0" />
  <path
     style="opacity:1;fill:#ff7f2a;fill-opacity:1;stroke:#000000;stroke-width:0.02396972;stroke-linecap:round;stroke-miterlimit:4;stroke-dasharray:none;stroke-dashoffset:0;stroke-opacity:1;paint-order:stroke markers fill"
     d="m 128.86897,144.88682 c -3.0905,-4.6459 -5.61909,-8.46493 -5.61909,-8.48672 0,-0.11135 1.46919,-1.01137 1.53741,-0.94182 0.0915,0.0933 11.21448,16.80769 11.21448,16.8519 0,0.0256 -0.46819,0.34481 -1.26022,0.85913 l -0.25349,0.16461 z"
     id="path900"
     inkscape:connector-curvature="0" />
</svg>
