<?xml version="1.0" encoding="UTF-8"?>
<!-- Created with Inkscape (http://www.inkscape.org/) -->
<svg version="1.1" viewBox="0 0 256 256" xmlns="http://www.w3.org/2000/svg" xmlns:cc="http://creativecommons.org/ns#" xmlns:dc="http://purl.org/dc/elements/1.1/" xmlns:rdf="http://www.w3.org/1999/02/22-rdf-syntax-ns#" xmlns:xlink="http://www.w3.org/1999/xlink">
 <style>svg { cursor: default; }</style>
 <defs>
  <linearGradient id="innoGrad3">
   <stop stop-color="#faa" offset="0"/>
   <stop stop-color="#ff8080" offset="1"/>
  </linearGradient>
  <linearGradient id="linearGradient1533" x1="-85.175" x2="-26.069" y1="25.676" y2="25.676" gradientUnits="userSpaceOnUse" xlink:href="#innoGrad3"/>
  <linearGradient id="linearGradient1545" x1="77.591" x2="111.54" y1="67.173" y2="100.48" gradientUnits="userSpaceOnUse">
   <stop stop-opacity=".50829" offset="0"/>
   <stop stop-opacity="0" offset="1"/>
  </linearGradient>
  <filter id="filter1547" x="-.012" y="-.012" width="1.024" height="1.024" color-interpolation-filters="sRGB">
   <feGaussianBlur stdDeviation="0.22424"/>
  </filter>
  <radialGradient id="radialGradient1598" cx="-15.909" cy="100.43" r="58.42" gradientTransform="matrix(.45476 -.024635 .025403 .46893 .60497 78.45)" gradientUnits="userSpaceOnUse">
   <stop stop-color="#fd5" offset="0"/>
   <stop stop-color="#ffe680" offset="1"/>
  </radialGradient>
  <linearGradient id="linearGradient1650" x1="147.71" x2="87.225" y1="94.863" y2="37.234" gradientUnits="userSpaceOnUse">
   <stop stop-color="#fca" offset="0"/>
   <stop stop-color="#f95" offset="1"/>
  </linearGradient>
  <linearGradient id="linearGradient1658" x1=".51844" x2="120.36" y1="124.48" y2="143.44" gradientUnits="userSpaceOnUse" xlink:href="#innoGrad3"/>
  <linearGradient id="linearGradient1666" x1="186.67" x2="251.78" y1="140.56" y2="140.56" gradientUnits="userSpaceOnUse" xlink:href="#innoGrad3"/>
 </defs>
 <metadata>
  <rdf:RDF>
   <cc:Work rdf:about="">
    <dc:format>image/svg+xml</dc:format>
    <dc:type rdf:resource="http://purl.org/dc/dcmitype/StillImage"/>
    <dc:title/>
   </cc:Work>
  </rdf:RDF>
 </metadata>
 <style>svg { cursor: default; }</style>
 <style>svg { cursor: default; }</style>
 <style>svg { cursor: default; }</style>
 <style>svg { cursor: default; }</style>
 <style>svg { cursor: default; }</style>
 <style>svg { cursor: default; }</style>
 <style>svg { cursor: default; }</style>
 <g transform="matrix(.90127 -.00017701 .00017701 .90127 18.543 14.997)">
  <g transform="matrix(1.7591 -.075309 .055106 1.8048 -298.48 -46.937)" fill-rule="evenodd" stroke-width=".28043">
   <path d="m186.67 112.39c16.895 10.78 30.312 48.312 13.836 52.68 6.0012 0.51903 40.04-0.48966 44.557 3.67 2.1973-1.1393 0.41331-2.2787 0.226-3.418l-31.113-3.743c-8.0571-1.8671-3.5186-21.249 3.584-21.092 26.761-4.9125 32.934 1.4498 32.611 8.949 6.357-13.925-10.688-27.03-26.65-16.643-7.8788 5.1271-9.7686 7.7132-14.026 6.4112-0.98049-5.5038-18.256-25.605-23.025-26.814z" fill="#faa" stroke="#000"/>
   <path d="m250.37 149.44c0.6-6.932-5.713-13.998-32.611-8.949-6.5352-0.14452-11.995 18.403-3.584 21.092 3.6883 0.42413 28.952 3.2629 31.113 3.743 0.29298 0.84936 1.8425 2.5262-0.226 3.418-5.2475-3.7788-29.408-3.0948-44.557-3.67 17.661-5.2712 0.97775-43.958-13.836-52.68 8.2393 3.6742 22.699 23.512 23.025 26.814 2.3106 0.70454 4.6261 0.77443 13.623-6.4245 19.057-11.537 33.083 5.46 27.053 16.657z" fill="url(#linearGradient1666)" opacity=".48"/>
  </g>
  <g transform="matrix(1.0613 0 0 1.0613 -272.08 -64.624)">
   <path d="m280 234.54c-7.761 0.37925-24.702 43.72-21.947 58.17 7.4256-23.129 46.357-39.593 57.707-39.865-8.9053-3.9156-36.788-1.1039-35.759-18.305z" fill="#faa" fill-rule="evenodd" stroke="#000" stroke-width=".42871"/>
  </g>
  <path d="m1.7982 246.04c11.056-27.48 50.433-41.978 61.246-42.31-9.1158-4.6735-39.667-1.5362-37.952-19.427-8.9767-0.20831-25.751 46.995-23.294 61.738z" fill-opacity=".502" fill-rule="evenodd" opacity=".662" stroke-width=".15495"/>
  <path d="m103.4 63.831 34.55-26.058c20.301-17.585 44.808-23.851 72.249-20.407-17.238 3.2405-32.961 15.71-17.457 38.998-49.709 2.3384-69.814 40.067-50.543 60.444-59.302-10.054-62.927 44.46-59.951 72.122-10.749-11.14-16.46-49.292-15.39-63.491z" fill="url(#linearGradient1650)" stroke="#000" stroke-width=".669"/>
  <path d="m193.36 24.517c5.2536-4.5232 16.841-7.1519 16.841-7.1519-28.355-8.4653-63.427 8.5611-75.228 27.221 41.741-31.213 57.487-22.673 58.387-20.069z" fill-opacity=".502" fill-rule="evenodd" opacity=".453" stroke-width=".5163"/>
  <path d="m98.892 101.49c23.932-3.9842 39.701 14.728 43.308 15.317-50.929-29.886-72.409 11.139-59.619 65.688-15.886-44.376-9.4504-71.562 16.312-81.005z" fill-opacity=".502" fill-rule="evenodd" opacity=".453" stroke-width="1.0613"/>
  <g transform="matrix(-.10589 .03351 -.03351 -.10589 75.547 216.94)">
   <g>
    <g transform="matrix(1.4886 .56754 -.56754 1.4886 36.334 -151.58)">
     <circle transform="rotate(-44.903)" cx="-7.212" cy="145.78" r="57.911" fill="url(#radialGradient1598)" fill-rule="evenodd" stroke="#000" stroke-linecap="round" stroke-linejoin="round" stroke-width="2.27" style="paint-order:markers fill stroke"/>
     <path d="m112.43 145.66c49.53-9.4005-18.178-125.84-57.929-45.76 3.1372-27.032 15.754-35.752 27.901-39.639 55.101-5.764 86.794 46.41 50.642 77.888-13.663 13.992-30.359 7.0128-20.615 7.5114z" fill="#f7f9fd" opacity=".382"/>
     <path d="m108.56 80.276c8.6381 6.564 18.897 18.094 21.183 33.508 2.6282 17.724-9.9371 29.749-17.312 31.878 10.651-56.083-37.822-62.423-57.931-45.76 16.931-32.173 38.794-30.51 54.06-19.626z" fill="url(#linearGradient1545)" opacity=".093"/>
     <g>
      <circle transform="matrix(.66021 -.65797 .65797 .66021 -8.5684 49.306)" cx="19.4" cy="131.9" r="22.424" fill="#fff" fill-rule="evenodd" filter="url(#filter1547)" opacity=".581" style="paint-order:markers fill stroke"/>
      <path d="m145.84 132.68c-12.405 26.186-35.805 31.498-48.942 31.305-37.254-0.54985-67.8-36.519-40.18-83.51-32.824 77.636 60.625 106.1 89.123 52.206z" fill="#f7f9fd" opacity=".382"/>
     </g>
    </g>
    <g transform="matrix(.38314 0 0 .50801 68.507 -610.99)"></g>
    <g transform="matrix(.9481 .16438 -.16438 .9481 178.9 -87.488)" fill="url(#linearGradient1533)" stroke="#000" stroke-width=".48013"></g>
   </g>
  </g>
  <g stroke="#000">
   <path d="m81.983 181.33c-6.8352-37.562-15.091-67.804 16.91-79.836-4.2293-18.833 9.9743-48.45 36.079-56.904 28.825-37.096 69.062-25.652 75.57-25.545 13.336-5.9154 23.155-12.625 44.845-16.486-61.593 4.051-183.39 22.921-199.24 137.7 2.6645 4.5683 9.398 5.1057 10.35 14.193 7.4979 27.309-25.146 66.195-41.406 29.857-11.871 4.7078-28.212 34.054-23.294 61.738 3.0594-25.234 36.015-43.281 55.87-42.162 15.737-0.88621 15.057 16.521 5.6016 19.222-3.923 0.86928-8.0346 0.51577-10.997-2.3947l-26.573 9.1853 4.396 1.3418c6.3481 1.9524 15.329-1.9348 18.688-2.7929 3.3589-0.85812 6.9274 3.5349 13.01 7.0907 12.782 0.19987 26.99-14.976 31.119-16.242 18.633-5.7135 24.637 11.152 14.818 22.022 10.384 11.982 105.08 0.3051 109.29-9.5454-6.4832 7.1612-97.607 11.146-91.895-16.399-2.2944-8.0238-6.4765-22.953-11.89-25.019-9.4097 14.842-21.208 15.272-27.13 10.77-3.9815-5.566-3.7503-12.859-4.1276-19.794z" fill="url(#linearGradient1658)" fill-rule="evenodd" stroke-linecap="round" stroke-width=".762"/>
   <path d="m192.74 56.364c-10.518-4.2187-21.035-8.4376-30.664-10.4-9.6282-1.9629-18.367-1.6698-27.108-1.3766" fill="none" stroke-width=".24591"/>
   <path d="m142.2 116.81c-7.8258-5.4982-15.652-10.996-22.869-13.549-7.2174-2.5528-13.828-2.1604-20.439-1.7679" fill="none" stroke-width=".24591"/>
  </g>
  <path d="m217.03 231.77c-6.6271 11.035-125.91 17.74-100.13-31.21 2.6208-4.9766 3.473-1.5672 8.2363 14.81-4.392 27.584 83.33 24.083 91.895 16.399z" fill-opacity=".502" fill-rule="evenodd" opacity=".267" stroke-width="1.0613"/>
  <path d="m7.7685 216.94c-2.7643-0.0221-6.663 18.975-6.1999 24.555 0.57452-0.53879 7.4806-18.995 14.029-20.87-1.9648-0.54246-6.3284-1.5425-7.8288-3.6848z" fill="#ffd5d5" opacity=".372"/>
  <g fill-opacity=".502" fill-rule="evenodd">
   <path d="m25.141 184.21c1.8715 4.5106 2.8364 6.4148 5.8654 9.3105-6.4457 7.361-10.481 8.1456-14.605 10.443-2.0222 1.1267-6.6862-0.87377-5.1858-4.9745 2.2936-6.2686 8.4121-11.362 13.926-14.779z" opacity=".071" stroke-width=".81273"/>
   <g stroke-width="1.0613">
    <path d="m51.944 221.06c6.4601 3.6348 25 0.62169 9.8488 14.473-4.8428-2.4965-8.3355-8.4392-14.81-7.6083-5.9967 0.76954-9.4385 2.0598 4.9615-6.8647z" opacity=".101"/>
    <path d="m80.564 182.07c0 6.5007 2.5892 15.717 3.9057 17.546 3.5583 4.9443-17.735 6.0337-28.862 1.0252-0.87989-5.3769 17.998-8.5384 13.473-13.244-2.0953-2.179-0.77726-4.2899-0.7266-6.4304 1.7456-0.99246 3.938-1.491 12.209 1.103z" opacity=".04"/>
    <path d="m66.03 103.39c2.9368 8.4833 29.236-2.0727 32.862-1.8988 0.22839-1.1047-19.839 10.002-20.5 22.987-2.6502 0.63055-6.6832 15.905-10.85 20.474s-8.4663-1.5654-8.4663-1.5654c-0.01802-6e-3 -0.60347-24.661 6.9537-39.998z" opacity=".102"/>
    <path d="m134.97 44.587c31.833-2.5249 54.839 11.425 57.771 11.777-64.28-18.293-93.852 4.8179-93.85 45.127-4.5303-40.482 29.952-54.36 36.079-56.904z" opacity=".453"/>
   </g>
   <path d="m227.11 11.264c5.9645-3.5827 23.236-7.6845 28.281-8.7077-7.0193 1.226-36.172-1.5954-45.187 14.809 5.5234-0.03626 13.409-4.0011 16.906-6.1015z" opacity=".086" stroke-width=".5163"/>
   <path d="m116.19 42.408c-0.81324 8.9403 14.896 1.7481 18.786 2.179-0.27289-1.9117-21.647 10.305-29.294 23.855-4.1799 3.2538-7.1234-7.8448-7.1234-7.8448 0.08-4.563 4.4335-7.3201 17.631-18.19z" opacity=".088" stroke-width="1.0613"/>
  </g>
  <g fill="#ffd5d5">
   <path d="m40.322 225.64c-0.61016 0.38806-1.3263 0.92769-2.7903 1.7291-1.1969 0.65455-2.4523 1.2281-3.5712 1.6462-0.4331 0.16192-0.81334 0.28714-1.1072 0.37008-0.72838 0.20509-2.1018 0.42058-3.5767 0.52511-1.4329 0.10263-2.8122 0.0603-3.4785 0.0801 1.3327-0.0397 5.4079-1.3052 6.7521-1.6837 0.28124-0.0799 0.66311-0.17523 1.0952-0.28674 1.2455-0.31096 2.4777-0.67283 3.6935-1.0847 1.4384-0.49788 2.4731-0.97148 2.983-1.2954z" opacity=".23" stroke-width="1.0613"/>
   <path d="m113.71 190.85c-0.18401 0.57052-0.33551 1.3195-0.87622 2.5661-0.44257 1.0186-0.99328 1.9806-1.5554 2.7501-0.21751 0.29797-0.42143 0.54361-0.58964 0.72038-0.41725 0.43776-1.3351 1.1018-2.4179 1.6953-1.0515 0.57728-2.171 1.0006-2.6812 1.2429 1.0204-0.48462 3.2645-3.0451 4.0345-3.853 0.16052-0.16975 0.38867-0.3877 0.64398-0.63781 0.7439-0.71108 1.4384-1.4657 2.0817-2.2619 0.75293-0.95201 1.2061-1.7456 1.3602-2.2221z" opacity=".618" stroke-width="1.0613"/>
   <path d="m96.562 100.59c-0.98627 0.5891-7.7446 2.0317-10.009 3.0112-1.8502 0.80028-3.7026 1.2604-5.2798 1.3603-0.61054 0.0387-4.5105 0.39209-4.9034 0.32812-0.97393-0.15858-3.2623-0.0193-4.965-1.3588-1.7027-1.3395-3.277-1.7442-4.0357-2.4501 1.5172 1.4119 4.4319 0.78395 6.2296 1.0747 0.37629 0.0608 4.2568 0.26793 4.8244 0.40515 1.6361 0.39555 3.2943 0.26028 4.9735 0.18798 1.8164-0.0782 12.342-2.0676 13.166-2.5588z" opacity=".27" stroke-width="2.2857"/>
   <path d="m54.266 198.38c4.4591-2.0747 3.4339-1.6312 6.3497-3.677 7.6764-4.5537 6.2721-3.55 7.0443-4.2011 1.1637-0.98126-0.1866-5.0254-1.248-5.9487-1.0614-0.92326-0.76564-0.50449-1.5925-0.77314-0.33411 1.4754 0.27871 0.86464-0.42195 2.3422 1.1773-0.19521 3.7457 1.3868 1.3623 2.6849 1.5758 0.56701 2.5353 1.2031-2.8048 3.959-1.7347 1.7843-7.1711 4.457-8.6891 5.6138z" opacity=".35" stroke-width="2.4596"/>
   <path d="m135.14 42.761c-0.59495 0.65062-4.6908 2.1104-6.5177 2.3-1.3989 0.14518-2.4151 0.78939-3.4059 0.80336-0.38357 0.0054-2.8428 0.14588-3.082 0.06083-0.59271-0.21082-2.0298-0.19625-2.9739-1.6231-0.94405-1.4268-1.8893-1.9154-2.3004-2.6598 0.82226 1.4889 2.6918 1.0215 3.786 1.4086 0.22904 0.081 2.6275 0.49789 2.9691 0.66539 0.98451 0.48283 2.0289 0.43804 3.0808 0.45713 1.1379 0.02063 7.9117-1.1557 8.4675-1.483z" opacity=".365" stroke-width="1.8071"/>
   <path d="m139.57 244.13c-1.1017 0.32545-8.0065 0.043-10.443 0.42882-1.991 0.31527-3.8997 0.30049-5.4522 5e-3 -0.601-0.11423-4.4664-0.74134-4.8311-0.90098-0.90395-0.39568-3.1551-0.8296-4.4715-2.5503-1.3163-1.7207-2.7406-2.504-3.3-3.3763 1.1187 1.7447 4.403 1.3827 5.767 2.5894 0.70114 0.62031 3.9757 1.6413 4.5723 1.5916 1.6774-0.13967 3.1263 1.071 4.7707 1.4183 1.7788 0.37572 12.468 1.0649 13.388 0.79392z" opacity=".334" stroke="#ffd5d5" stroke-width=".1"/>
   <path d="m184.77 14.246c-5.0792 1.8929-19.159 6.7867-22.247 7.7256-2.3643 0.71895-7.8086 2.6933-8.8685 2.963-0.41034 0.10444-3.7728 1.059-3.417 0.88581 0.88215-0.42939-0.61577-0.05351 8.3367-3.678 8.9525-3.6245 11.413-4.7199 16.163-6.63-9.5001 3.8203-4.4492 2.1226-6.0638 2.9099-0.33767 0.16467-0.88977 0.7265-1.7164 1.098-2.3829 1.0708-1.0578 0.70543-0.16716 0.51048 0.96351-0.21091 15.686-4.968 18.491-5.9805z" opacity=".412" stroke-width="1.8071"/>
   <path d="m102.98 70.614c-0.47969-0.24592-2.4737-2.5622-3.3891-3.2176-0.74795-0.5355-1.3267-1.1546-1.6741-1.7528-0.13451-0.23153-1.0463-1.6847-1.0885-1.8554-0.10465-0.42296-0.60578-1.2922-0.25929-2.2901 0.34652-0.99791 0.25124-1.7177 0.46001-2.1888-0.41757 0.94231 0.44525 1.9398 0.63944 2.7201 0.04065 0.16331 0.66945 1.7452 0.70813 2.0026 0.11146 0.74196 0.49168 1.3635 0.8445 2.0086 0.38163 0.69783 3.3588 4.3677 3.7591 4.5734z" opacity=".405" stroke-width="1.1259"/>
   <path d="m214.97 235.45c-2.4291 0.78237-18.954 3.5378-24.514 4.9594-4.5428 1.1615-9.0753 1.9817-12.92 2.3877-1.4886 0.15699-11.002 1.2658-11.956 1.2775-2.3644 0.029-7.9437 0.61132-12.028-0.40484-4.0845-1.0162-7.8996-1.1182-9.7143-1.6806 3.6294 1.1247 10.756-0.0695 15.121-0.12488 0.91352-0.0123 10.354-0.55388 11.73-0.52578 3.966 0.081 8.0106-0.37547 12.103-0.77273 4.427-0.42972 30.151-4.4627 32.18-5.1153z" opacity=".399" stroke-width="3.5681"/>
   <path d="m27.541 205.01c0.15589 0.65654-2.2064 3.6736-2.342 4.9679-0.11074 1.0575-0.67268 1.9214-1.537 2.4903-0.33453 0.22025-2.3314 1.6876-2.6643 1.7786-0.82508 0.22546-2.0868 1.0476-4.9341 0.83495-2.8472-0.21258-4.3771 0.0671-5.7899-0.0899 2.8258 0.31413 3.837-0.99033 5.3573-1.4076 0.3183-0.0872 3.0439-1.2282 3.584-1.3341 1.5569-0.30496 2.4257-0.92033 3.3911-1.5065 1.0442-0.63409 5.0635-5.1858 4.9346-5.7338z" opacity=".358" stroke-width="2.0316"/>
  </g>
  <g fill="#ff7f2a">
   <path d="m81.564 170.81c-1.4726-3.6814-0.85779-9.5634-1.3099-15.173-0.45417-5.6392 1.014-11.216 2.9791-16.615 3.5423-9.7307 10.363-16.321 16.251-20.286 1.6823-1.1301 3.4205-2.1472 5.1994-3.0426 3.7513-1.8941 10.03-4.4929 17.313-4.6922 3.8197-0.10497 7.3229 0.48332 10.343 1.7118 4.0077 1.6296 6.7034 2.096 8.1173 4.0682-1.9518-2.744-4.8488-2.8974-7.9823-4.2952-2.9865-1.3421-6.485-2.0667-10.348-2.0855-7.3566-0.0367-13.865 2.446-17.724 4.3953-1.8296 0.92512-3.6125 1.9877-5.3299 3.1766-6.0383 4.1803-12.858 11.076-16.256 20.992-1.8798 5.4865-3.2361 11.09-2.6974 16.714 0.53633 5.5992-0.02833 11.448 1.4447 15.131z" opacity=".253" stroke-width=".67022"/>
   <path d="m137.55 117.55c-2.2346-3.2692-2.715-8.957-4.2543-14.219-1.5472-5.2897-1.0807-10.82-0.0631-16.26 1.8348-9.8042 7.6812-17.136 13.057-21.826 1.5364-1.3374 3.1525-2.5762 4.8342-3.7056 3.5452-2.3873 9.5874-5.8398 17.133-7.1685 3.9572-0.69726 7.717-0.68601 11.096 0.0093 4.4834 0.92225 7.3792 0.94395 9.2271 2.5975-2.5551-2.3032-5.6008-1.9959-9.1298-2.8344-3.3653-0.80866-7.1462-0.95022-11.172-0.36381-7.667 1.1158-13.971 4.494-17.618 6.9506-1.7288 1.1656-3.3828 2.4546-4.9446 3.8534-5.491 4.9184-11.279 12.54-12.928 22.498-0.91212 5.5096-1.2571 11.048 0.37532 16.31 1.6251 5.2388 2.1514 10.887 4.3867 14.158z" opacity=".253" stroke-width=".67676"/>
   <path d="m133.31 113.57c-2.2434-2.9827-2.9178-8.3021-4.5793-13.181-1.6699-4.9051-1.4411-10.113-0.68667-15.257 1.3606-9.271 6.6176-16.375 11.53-20.982 1.4043-1.3138 2.8878-2.538 4.4378-3.6621 3.2672-2.3758 8.8593-5.8465 15.958-7.3816 3.7227-0.80544 7.2857-0.93844 10.514-0.4149 4.2837 0.69431 7.0284 0.60411 8.8431 2.0854-2.5098-2.0639-5.3839-1.6592-8.76-2.3114-3.2199-0.6304-6.8079-0.61889-10.6 0.08516-7.2217 1.3399-13.064 4.7508-16.425 7.1956-1.5932 1.1599-3.1107 2.4327-4.5366 3.8051-5.0133 4.8254-10.203 12.199-11.382 21.607-0.65187 5.2053-0.7652 10.416 0.98442 15.292 1.7418 4.8544 2.4582 10.135 4.7023 13.119z" opacity=".253" stroke-width=".63871"/>
   <path d="m82.801 172.88c-1.982-3.3573-2.2893-9.1804-3.583-14.573-1.3002-5.4214-0.73847-11.079 0.32911-16.64 1.9248-10.024 7.4886-17.496 12.555-22.267 1.4481-1.3606 2.9673-2.6197 4.5445-3.7666 3.3248-2.4244 8.9768-5.9257 15.964-7.2457 3.6643-0.6927 7.1298-0.66138 10.228 0.068 4.1108 0.96739 6.7796 1.0049 8.4436 2.7068-2.3004-2.3704-5.1152-2.072-8.3483-2.9487-3.0829-0.84527-6.5646-1.0101-10.29-0.43116-7.094 1.1015-12.985 4.5253-16.405 7.0201-1.6214 1.1837-3.1767 2.4941-4.6497 3.9173-5.1787 5.0043-10.695 12.774-12.452 22.955-0.97202 5.6334-1.4219 11.3-0.04251 16.693 1.3732 5.3697 1.7238 11.153 3.7064 14.512z" opacity=".253" stroke-width=".65735"/>
   <path d="m192.77 56.399c-2.3981-1.1021 0.37339 0.53121-2.4426-1.7137-2.8307-2.2569-4.733-5.0938-6.3204-8.0121-2.8608-5.2598-2.73-10.218-1.8164-13.764 0.26231-1.012 0.60319-1.9935 1.0197-2.9361 0.87551-1.9902 2.6059-5.078 5.9206-7.4616 1.7381-1.2503 3.6501-2.1056 5.6336-2.5361 2.6314-0.57131 4.1091-1.2236 5.6862-0.83048-2.1871-0.55191-3.6136 0.29718-5.7284 0.69125-2.0202 0.37137-3.9933 1.1672-5.8093 2.3785-3.4585 2.3063-5.3503 5.4172-6.2507 7.465-0.42639 0.97125-0.76707 1.9862-1.0185 3.0343-0.88387 3.6852-0.87265 8.7728 2.1418 14.066 1.668 2.9286 3.635 5.7416 6.4983 7.9654 2.8506 2.214 0.0873 0.55075 2.4862 1.6533z" opacity=".142" stroke-width=".39404"/>
   <path d="m194.44 58.606c-2.6946-1.0671-5.4401-3.6791-8.6042-5.8527-3.1807-2.1852-5.3181-4.932-7.1019-7.7576-3.2144-5.0928-3.0675-9.8932-2.0409-13.327 0.29475-0.97985 0.67778-1.9302 1.1457-2.8428 0.98375-1.927 2.9281-4.9167 6.6526-7.2246 1.953-1.2106 4.1014-2.0387 6.33-2.4555 2.9568-0.55316 4.6171-1.1848 6.3892-0.8041-2.4575-0.53438-4.0603 0.28774-6.4366 0.6693-2.27 0.35957-4.487 1.1301-6.5275 2.303-3.8861 2.233-6.0118 5.2451-7.0235 7.2278-0.47911 0.94039-0.8619 1.9231-1.1444 2.938-0.99315 3.5681-0.98054 8.4942 2.4065 13.619 1.8742 2.8355 4.0844 5.5592 7.3017 7.7124 3.203 2.1436 5.9577 4.7267 8.6532 5.7943z" opacity=".162" stroke-width=".411"/>
  </g>
  <path d="m86.082 201.71c-2.2626 1.4863-2.1053 1.1095-4.2269 2.0412-4.8103 2.5015-3.4064 1.3241-4.0702 1.5645-1.0003 0.36227-3.6738 0.23702-4.4557-0.19929s-1.4417-0.1395-1.6309-0.45318c1.3995-0.0345 0.78507 0.15082 2.2136-0.0156-0.26887 0.41294 1.0818 0.63479 2.4675-0.14861 0.41189 0.60097 0.86738 1.3487 3.8298-0.41547 1.7907-0.52132 4.6828-1.8938 5.8729-2.3736z" fill="#ffd5d5" opacity=".557" stroke-width="1.4345"/>
  <path d="m67.586 221.59c0.45954 0.6836 1.2516 1.5387 1.9652 3.0976 0.58141 1.2741 0.85218 2.5396 0.81405 3.6091-0.01459 0.41403-0.0782 0.76693-0.16865 1.031-0.22607 0.65418-1.1662 1.7803-2.5567 2.9102-1.3476 1.0984-3.0682 2.0671-3.7785 2.5603 1.4206-0.98653 3.7365-4.0908 4.1537-5.2981 0.08512-0.25305 0.24031-0.58837 0.40491-0.97008 0.50582-1.0937-0.56174-2.8396-0.39289-3.9752 0.16786-1.3501-0.05797-2.3937-0.44097-2.9648z" fill="#ffd5d5" opacity=".507" stroke-width="1.8042"/>
 </g>
 <style>svg { cursor: default;}</style>
 <style>svg { cursor: default;}</style>
 <style>svg { cursor: default;}</style>
 <style>svg { cursor: default; }</style>
 <style>svg { cursor: default; }</style>
 <style>svg { cursor: default; }</style>
 <style>svg { cursor: default; }</style>
 <style>svg { cursor: default; }</style>
 <style>svg { cursor: default; }</style>
 <style>svg { cursor: default; }</style>
 <style>svg { cursor: default; }</style>
 <style>svg { cursor: default; }</style>
 <style>svg { cursor: default;}</style>
 <style>svg { cursor: default; }</style>
 <style>svg { cursor: default; }</style>
 <style>svg { cursor: default; }</style>
 <style>svg { cursor: default; }</style>
 <style>svg { cursor: default; }</style>
 <style>svg { cursor: default; }</style>
 <style>svg { cursor: default; }</style>
 <style>svg { cursor: default;}</style>
 <style>svg { cursor: default; }</style>
 <style>svg { cursor: default; }</style>
 <style>svg { cursor: default; }</style>
 <style>svg { cursor: default; }</style>
 <style>svg { cursor: default; }</style>
 <style>svg { cursor: default; }</style>
 <style>svg { cursor: default; }</style>
 <style>svg { cursor: default; }</style>
 <style>svg { cursor: default; }</style>
 <style>svg { cursor: default; }</style>
 <style>svg { cursor: default;}</style>
 <style>svg { cursor: default; }</style>
 <style>svg { cursor: default; }</style>
 <style>svg { cursor: default; }</style>
 <style>svg { cursor: default; }</style>
 <style>svg { cursor: default; }</style>
 <style>svg { cursor: default; }</style>
 <style>svg { cursor: default; }</style>
 <style>svg { cursor: default;}</style>
 <style>svg { cursor: default; }</style>
 <style>svg { cursor: default; }</style>
 <g transform="translate(260.72 45.676)" stroke-linecap="round">
  <g>
   <g stroke-linejoin="round" stroke-width=".5"></g>
  </g>
 </g>
</svg>
