<?xml version="1.0" encoding="UTF-8"?>
<!-- Created with Inkscape (http://www.inkscape.org/) -->
<svg version="1.1" viewBox="0 0 256 256" xmlns="http://www.w3.org/2000/svg" xmlns:cc="http://creativecommons.org/ns#" xmlns:dc="http://purl.org/dc/elements/1.1/" xmlns:rdf="http://www.w3.org/1999/02/22-rdf-syntax-ns#" xmlns:xlink="http://www.w3.org/1999/xlink">
 <defs>
  <linearGradient id="innoGrad3">
   <stop stop-color="#ffe680" offset="0"/>
   <stop stop-color="#fd5" offset="1"/>
  </linearGradient>
  <radialGradient id="radialGradient1029" cx="61.414" cy="293.64" r="26.203" gradientTransform="matrix(.90502 -.00036863 .00033578 .82445 -2.6237 49.947)" gradientUnits="userSpaceOnUse" xlink:href="#innoGrad3"/>
  <radialGradient id="radialGradient1031" cx="-.11164" cy="293.32" r="26.203" gradientTransform="matrix(1 0 0 1.4879 0 -143.1)" gradientUnits="userSpaceOnUse" xlink:href="#innoGrad3"/>
  <linearGradient id="linearGradient1047" x1="61.653" x2="79.501" y1="130.09" y2="159.92" gradientUnits="userSpaceOnUse">
   <stop stop-color="#ffb380" offset="0"/>
   <stop stop-color="#f95" offset="1"/>
  </linearGradient>
  <linearGradient id="linearGradient1059" x1="99.264" x2="144.79" y1="53.59" y2="82.232" gradientUnits="userSpaceOnUse">
   <stop stop-color="#f55" offset="0"/>
   <stop stop-color="#faa" offset="1"/>
  </linearGradient>
 </defs>
 <style>svg { cursor: default; }</style>
 <metadata>
  <rdf:RDF>
   <cc:Work rdf:about="">
    <dc:format>image/svg+xml</dc:format>
    <dc:type rdf:resource="http://purl.org/dc/dcmitype/StillImage"/>
    <dc:title/>
   </cc:Work>
  </rdf:RDF>
 </metadata>
 <style>svg { cursor: default; }</style>
 <style>svg { cursor: default; }</style>
 <style>svg { cursor: default; }</style>
 <style>svg { cursor: default; }</style>
 <style>svg { cursor: default; }</style>
 <style>svg { cursor: default; }</style>
 <style>svg { cursor: default; }</style>
 <style>svg { cursor: default; }</style>
 <style>svg { cursor: default; }</style>
 <style>svg { cursor: default; }</style>
 <style>svg { cursor: default; }</style>
 <style>svg { cursor: default; }</style>
 <style>svg { cursor: default; }</style>
 <style>svg { cursor: default; }</style>
 <style>svg { cursor: default; }</style>
 <style>svg { cursor: default; }</style>
 <style>svg { cursor: default; }</style>
 <style>svg { cursor: default; }</style>
 <style>svg { cursor: default; }</style>
 <style>svg { cursor: default; }</style>
 <style>svg { cursor: default; }</style>
 <style>svg { cursor: default; }</style>
 <style>svg { cursor: default; }</style>
 <style>svg { cursor: default; }</style>
 <style>svg { cursor: default;}</style>
 <style>svg { cursor: default; }</style>
 <style>svg { cursor: default; }</style>
 <style>svg { cursor: default; }</style>
 <style>svg { cursor: default; }</style>
 <style>svg { cursor: default; }</style>
 <style>svg { cursor: default; }</style>
 <style>svg { cursor: default; }</style>
 <style>svg { cursor: default;}</style>
 <style>svg { cursor: default; }</style>
 <style>svg { cursor: default; }</style>
 <style>svg { cursor: default; }</style>
 <style>svg { cursor: default; }</style>
 <style>svg { cursor: default; }</style>
 <style>svg { cursor: default; }</style>
 <style>svg { cursor: default; }</style>
 <style>svg { cursor: default; }</style>
 <style>svg { cursor: default; }</style>
 <style>svg { cursor: default; }</style>
 <style>svg { cursor: default;}</style>
 <style>svg { cursor: default; }</style>
 <style>svg { cursor: default; }</style>
 <style>svg { cursor: default; }</style>
 <style>svg { cursor: default; }</style>
 <style>svg { cursor: default; }</style>
 <style>svg { cursor: default; }</style>
 <style>svg { cursor: default; }</style>
 <style>svg { cursor: default;}</style>
 <style>svg { cursor: default; }</style>
 <style>svg { cursor: default; }</style>
 <style>svg { cursor: default; }</style>
 <style>svg { cursor: default; }</style>
 <style>svg { cursor: default; }</style>
 <style>svg { cursor: default; }</style>
 <style>svg { cursor: default; }</style>
 <style>svg { cursor: default; }</style>
 <style>svg { cursor: default; }</style>
 <style>svg { cursor: default; }</style>
 <style>svg { cursor: default; }</style>
 <style>svg { cursor: default; }</style>
 <style>svg { cursor: default; }</style>
 <style>svg { cursor: default; }</style>
 <style>svg { cursor: default; }</style>
 <style>svg { cursor: default; }</style>
 <g>
  <g transform="matrix(1.4522 .5266 -.47673 .9895 -203.34 -66.513)" fill-rule="evenodd" stroke-width=".28043">
   <path d="m200.51 165.07c6.0012 0.51903 41.151-3.758 44.557 3.67-1.123-2.2423-0.515-2.768 0.226-3.418l-31.113-3.743c-8.0571-1.8671-3.5186-21.249 3.584-21.092 26.761-4.9125 31.082-8.996 32.611 8.949 6.357-13.925-10.688-27.03-26.65-16.643-7.8788 5.1271-9.7686 7.7132-14.026 6.4112z" fill="#ffb380" stroke="#000"/>
   <path d="m250.37 149.44c-1.6252-18.16-5.713-13.998-32.611-8.949-6.5352-0.14452-11.995 18.403-3.584 21.092 3.6883 0.42413 28.952 3.2629 31.113 3.743 0.4127 0.76805-1.9002-0.36736-0.226 3.418-3.1304-7.0839-29.408-3.0948-44.557-3.67 4.3198-11.105 4.4394-22.091 9.189-25.866 2.3106 0.70454 4.6261 0.77443 13.623-6.4245 20.066-8.4647 33.083 5.46 27.053 16.657z" fill-opacity=".502" opacity=".118"/>
  </g>
  <path d="m67.378 150.08c46.997-51.161 80.954-63.746 93.39-64.504-34.394-18.415 56.81-65.815 91.841-80.586-44.012 12.052-82.501 16.855-162.93 76.696-10.862 16.502-30.411 56.482-47.507 101.47z" fill="url(#linearGradient1059)" fill-rule="evenodd" stroke="#000" stroke-linecap="round" stroke-width=".85425"/>
  <path d="m160.87 85.179c-19.086-0.4101-38.169-0.82012-52.245 3.7402-14.076 4.5604-23.142 14.092-32.209 23.624" fill="none" stroke="#000" stroke-width=".34009"/>
 </g>
 <g>
  <path d="m158.09 85.094c-3.736 0.41301-7.4611 0.94842-11.168 1.2684-5.5588 0.47979-11.066 0.91766-16.341 1.5166-8.7713 0.99597-17.098 2.4587-24.07 5.3706 0 1e-6 -7.8e-4 3.26e-4 -7.8e-4 3.26e-4 -7.0079 2.9272-12.383 7.1635-16.946 11.749-2.9139 2.9282-5.5276 6.027-8.0922 9.0822-1.4472 1.7241-2.9875 3.3553-4.4622 5.0394l1.0236 0.8963c1.4745-1.6839 2.8847-3.4222 4.4473-5.0226 2.7807-2.8481 5.7075-5.5231 8.8663-7.9885 4.9276-3.846 10.363-7.1403 16.792-9.9201l7.2e-4 -3.11e-4c6.4882-2.8055 14.19-5.2118 22.785-7.1954 5.1349-1.1851 10.53-2.2051 16.053-3.0521 3.6754-0.56365 7.4278-0.85488 11.164-1.2679z" fill="#faa" opacity=".355"/>
  <path d="m158.02 84.865c-3.5207 1.0538-7.0274 2.1562-10.533 3.1741-13.995 4.0635-27.697 8.0916-38.904 13.501-0.0776 0.0375-0.15516 0.075-0.23256 0.11263-11.034 5.3612-19.518 11.989-27.575 18.578-2.11 1.7254-4.2156 3.4347-6.3017 5.1544l0.89613 1.087c2.0878-1.7212 4.1598-3.4558 6.2891-5.1442 8.1465-6.4593 16.825-12.486 27.578-17.88-1.9e-4 9e-5 0.22738-0.1138 0.22719-0.11371 10.976-5.482 24.232-10.371 38.163-14.838 3.4746-1.114 7.0099-2.1195 10.531-3.1733z" fill="#faa" opacity=".35"/>
  <path d="m22.862 208.54c-1.6589-24.67 14.757-33.759 25.554-47.691l13.368-24.948 10.739-25.162c4.4538 0.52836 5.0292 3.3604 6.5609 6.6697-0.09376 3.9548 0.0214 7.8702-2.0519 12.198 0 0-5.5959 3.6513-7.0509 6.4968-2.4455 5.7974 0.33983 12.779-1.3606 17.41-0.86812 1.8727-4.521 4.4845-6.3256 5.9132-0.66174 0.5239-2.4578 2.8044-4.8709 6.0634-8.8334 11.93-29.76 26.878-29.76 26.878-3.2564 6.2525-5.1327 12.119-2.1333 16.62z" fill="url(#linearGradient1047)" stroke="#000" stroke-width=".82978"/>
 </g>
 <g fill="none" stroke="#000">
  <g>
   <path d="m55.027 162.56c-1.1206-2.7019 0.76845-3.5836 2.9199-4.1929 0.17477-0.12711 0.45427-0.32003 0.38208-0.52371-0.20968-0.59154-1.1928-0.45868-1.8199-0.48252-0.50712-0.0193-1.2904 0.21414-1.497 0.27736" stroke-width=".69148"/>
   <g stroke-width=".41489">
    <path d="m67.911 153.06c0.10673-2.2104-0.4291-4.448-1.5255-6.3703-0.21233-0.37229-0.44636-0.73456-0.73192-1.0542-0.28556-0.3196-0.62495-0.59646-1.0148-0.7745-0.38986-0.17803-0.83245-0.25331-1.2536-0.17359-0.4211 0.0797-0.81665 0.32228-1.0464 0.68406-0.20778 0.32714-0.27123 0.73159-0.23288 1.1172s0.17229 0.75583 0.3346 1.1078c0.32461 0.70385 0.77425 1.3776 0.85334 2.1487 0.04611 0.44951-0.03997 0.90711-0.21122 1.3253s-0.42561 0.79865-0.71762 1.1435c-0.58403 0.68966-1.3144 1.2378-1.9625 1.8677-0.65777 0.63928-1.2521 1.3794-2.0721 1.7905-0.40998 0.20555-0.8742 0.32058-1.3299 0.26846-0.22782-0.026-0.45157-0.0939-0.65175-0.20574-0.20018-0.11185-0.37638-0.26815-0.50485-0.45809-0.14444-0.21354-0.22653-0.4667-0.24861-0.72356s0.01472-0.51721 0.09395-0.76254c0.15848-0.49064 0.48057-0.91301 0.84183-1.2809 0.83667-0.85202 1.8921-1.4509 2.8247-2.1968 0.46628-0.37292 0.90523-0.78646 1.2547-1.2706 0.34944-0.48413 0.60746-1.0429 0.68699-1.6347 0.09103-0.67735-0.05267-1.3609-0.15864-2.0361-0.10596-0.67518-0.17136-1.3852 0.06587-2.0262 0.15705-0.4243 0.45163-0.8043 0.84717-1.0239 0.19777-0.10982 0.41881-0.17878 0.64444-0.19503 0.22563-0.0163 0.4556 0.0207 0.66246 0.11229 0.38019 0.16826 0.65558 0.50202 0.95727 0.78809 0.15084 0.14304 0.31274 0.27726 0.49749 0.37256s0.3947 0.15017 0.60136 0.1276c0.1591-0.0174 0.3122-0.0806 0.44068-0.17601 0.12848-0.0954 0.23247-0.2225 0.30572-0.3648 0.1465-0.2846 0.16705-0.62344 0.09809-0.93601s-0.22226-0.6013-0.40707-0.86264c-0.18482-0.26135-0.40153-0.4982-0.61254-0.73889-0.22366-0.2551-0.44333-0.51793-0.60103-0.81832-0.1577-0.30038-0.25078-0.64414-0.20512-0.98032 0.04535-0.33387 0.22615-0.64055 0.46912-0.87397 0.24297-0.23343 0.54527-0.39799 0.86038-0.51727 0.63023-0.23855 1.3152-0.30369 1.9469-0.5383 0.97067-0.3605 1.7887-1.145 2.1309-2.1223 0.32472-0.92737 0.21885-1.9408 0.25603-2.9227 0.05085-1.343 0.37653-2.6683 0.36995-4.0122-0.0098-2.0072-0.79451-4.0009-2.1554-5.4764" opacity=".321"/>
    <path d="m69.974 131.01c1.8456-0.23124 3.5695-1.3014 4.5957-2.8528 0.95492-1.4438 1.2923-3.2047 1.4754-4.926 0.1532-1.4406 0.21106-2.9131-0.12029-4.3234s-1.0908-2.7651-2.2954-3.5698c-0.61823-0.41301-1.3394-0.67061-2.0794-0.74274" opacity=".321"/>
    <path d="m71.096 115.88c0.52604 0.38787 1.0083 0.83505 1.4348 1.3303 1.4804 1.7194 2.2467 4.0068 2.237 6.2756-0.0066 1.532-0.35489 3.0615-1.0123 4.4453-0.02757 0.44851-0.27551 0.87822-0.65001 1.1266s-0.86683 0.30948-1.2907 0.16033c-0.18387-0.0647-0.35599-0.16791-0.48863-0.31074-0.13264-0.14284-0.22415-0.3265-0.2432-0.52049-0.01904-0.19399 0.03781-0.39714 0.16623-0.54378 0.06421-0.0733 0.14536-0.13201 0.23585-0.16821s0.19023-0.0497 0.28684-0.0368c0.10435 0.0139 0.20442 0.0586 0.28436 0.12706 0.07995 0.0685 0.1395 0.16049 0.16923 0.26147 1.3048-1.27 2.0207-3.1219 1.9096-4.9393-0.05998-0.98105-0.34832-1.9394-0.76517-2.8295-0.34167-0.72957-0.77002-1.4179-1.2664-2.0525-0.09954-0.12725-0.20227-0.25284-0.32105-0.36234s-0.25468-0.20298-0.40677-0.25747c-0.15209-0.0545-0.3214-0.0682-0.47596-0.0212-0.15457 0.047-0.29206 0.15831-0.35466 0.30724-0.05772 0.1373-0.04916 0.29559-4e-3 0.4375 0.0452 0.14191 0.12455 0.27026 0.20732 0.39408 0.35913 0.53729 0.79519 1.0181 1.193 1.5274 0.3978 0.50932 0.76296 1.0585 0.95 1.6771 0.09352 0.3093 0.14105 0.634 0.12253 0.9566s-0.10426 0.64309-0.26457 0.92364c-0.16032 0.28056-0.39661 0.51988-0.68337 0.66882-0.28676 0.14893-0.62403 0.20447-0.94043 0.13887-0.27982-0.058-0.53662-0.20822-0.74031-0.40865s-0.35584-0.44957-0.46225-0.71479c-0.29186-0.72743-0.229-1.588 0.16546-2.2652l1.5649 0.3443c0.21671 0.0666 0.41072 0.20491 0.54435 0.38806 0.13363 0.18314 0.20613 0.4101 0.20343 0.6368s-0.08059 0.45187-0.21855 0.63177c-0.13796 0.17991-0.3352 0.31356-0.55344 0.37498-0.17171 0.0483-0.3563 0.0522-0.52881 7e-3 -0.1725-0.0454-0.33226-0.14053-0.45107-0.27358s-0.19566-0.3039-0.21197-0.48154c-0.01631-0.17763 0.02879-0.36102 0.12929-0.50839 0.04365-0.064 0.09762-0.1214 0.1613-0.16554 0.06367-0.0441 0.13722-0.0748 0.21404-0.0848 0.13684-0.0179 0.281 0.0335 0.37564 0.13391 0.09464 0.10046 0.13735 0.24741 0.1113 0.38295-0.02605 0.13553-0.1202 0.25618-0.24534 0.31439-0.12514 0.0582-0.27807 0.0525-0.39851-0.0149" opacity=".321"/>
   </g>
  </g>
  <path transform="matrix(.63228 .8791 -.8791 .63228 126.97 -18.428)" d="m82.179 126.71h-1e-6 1e-6 -1e-6 1e-6 -1e-6 1e-6 -2e-6 4e-6 -7e-6c0-1e-5 3e-6 -1e-5 6e-6 -1e-5s6e-6 1e-5 6e-6 1e-5 -5e-6 1e-5 -9e-6 1e-5c-6e-6 0-1.1e-5 -1e-5 -1.1e-5 -1e-5 1e-6 -1e-5 8e-6 -2e-5 1.6e-5 -2e-5 1e-5 0 1.7e-5 1e-5 1.6e-5 2e-5 0 1e-5 -1.2e-5 2e-5 -2.5e-5 2e-5 -1.6e-5 0-2.8e-5 -1e-5 -2.7e-5 -3e-5s2e-5 -3e-5 4.1e-5 -3e-5c2.7e-5 0 4.6e-5 2e-5 4.5e-5 5e-5 -2e-6 3e-5 -3.4e-5 6e-5 -6.7e-5 6e-5 -4.4e-5 -1e-5 -7.4e-5 -5e-5 -7.2e-5 -9e-5 2e-6 -5e-5 5.4e-5 -9e-5 1.07e-4 -9e-5 7e-5 0 1.19e-4 7e-5 1.16e-4 1.4e-4 -4e-6 8e-5 -8.7e-5 1.5e-4 -1.72e-4 1.4e-4 -1.1e-4 0-1.88e-4 -1.1e-4 -1.83e-4 -2.1e-4 7e-6 -1.4e-4 1.37e-4 -2.4e-4 2.71e-4 -2.3e-4 1.74e-4 0 2.97e-4 1.7e-4 2.88e-4 3.4e-4 -1.2e-5 2.1e-4 -2.16e-4 3.7e-4 -4.26e-4 3.5e-4 -2.71e-4 -1e-5 -4.61e-4 -2.6e-4 -4.47e-4 -5.3e-4 1.9e-5 -3.3e-4 3.36e-4 -5.7e-4 6.62e-4 -5.5e-4 4.19e-4 2e-5 7.14e-4 4.1e-4 6.9e-4 8.2e-4 -3.1e-5 5.2e-4 -5.19e-4 8.9e-4 -1e-3 8.5e-4 -6.42e-4 -3e-5 -0.0011-6.4e-4 -0.0011-1e-3 4.9e-5 -7.9e-4 7.95e-4 -1e-3 0.0016-1e-3 9.79e-4 6e-5 0.0017 9.8e-4 0.0016 2e-3 -7.7e-5 1e-3 -0.0012 2e-3 -0.0024 2e-3 -0.0015-9e-5 -0.0025-1e-3 -0.0024-3e-3 1.2e-4 -2e-3 0.0018-3e-3 0.0036-3e-3 0.0022 1.5e-4 0.0038 2e-3 0.0036 4e-3 -1.85e-4 3e-3 -0.0027 5e-3 -0.0054 4e-3 -0.0033-2.3e-4 -0.0056-3e-3 -0.0054-7e-3 2.83e-4 -4e-3 0.0041-7e-3 8e-3 -7e-3 0.0049 3.5e-4 0.0084 5e-3 8e-3 0.01-4.3e-4 6e-3 -0.0061 0.0102-0.01188 0.01-0.0072-5.3e-4 -0.01232-7e-3 -0.0118-0.0144 6.49e-4 -9e-3 0.0089-0.0149 0.01747-0.0143 0.01062 8e-4 0.01803 0.0108 0.01725 0.0212-9.71e-4 0.0128-0.01309 0.0218-0.02555 0.0208-0.01546-1e-3 -0.02624-0.0158-0.02508-0.0308 0.0014-0.0186 0.01904-0.0316 0.03714-0.0302 0.02237 2e-3 0.03798 0.0229 0.03625 0.0447-0.0021 0.0269-0.02755 0.0456-0.05369 0.0435-0.03221-3e-3 -0.05465-0.0331-0.05211-0.0644 0.0031-0.0386 0.03965-0.0654 0.07718-0.0624 0.04612 4e-3 0.07823 0.0475 0.07452 0.0924-0.0046 0.0551-0.05675 0.0934-0.11038 0.0889-0.06569-5e-3 -0.11141-0.0678-0.10602-0.13174 0.0066-0.0782 0.0808-0.13269 0.15702-0.1262 0.0931 8e-3 0.15786 0.0962 0.15006 0.18693-0.0095 0.11063-0.11448 0.18756-0.22227 0.17821-0.1313-0.0114-0.22257-0.13601-0.21138-0.26396 0.01361-0.15565 0.16139-0.26381 0.3131-0.25043 0.18429 0.0162 0.31232 0.19128 0.29634 0.37095-0.01938 0.21795-0.22644 0.36932-0.43897 0.35027-0.25747-0.0231-0.43623-0.26776-0.41354-0.51886 0.02746-0.30381 0.31625-0.51468 0.61259-0.48769 0.35809 0.0326 0.60657 0.3731 0.57451 0.72244-0.03869 0.4216-0.43969 0.71407-0.85106 0.67603-0.49584-0.0458-0.83972-0.51759-0.79464-1.0015 0.05426-0.58252 0.60863-0.98642 1.1772-0.93307 0.68364 0.0641 1.1575 0.71492 1.0945 1.3823-0.07573 0.80147-0.8389 1.3569-1.6214 1.2824-0.93866-0.0893-1.589-0.98333-1.5012-1.8999 0.1052-1.0982 1.1515-1.8589 2.224-1.7554 1.2836 0.12378 2.1724 1.347 2.0507 2.6008-0.14548 1.4988-1.5741 2.5364-3.0383 2.3933-1.7483-0.17079-2.9584-1.8377-2.7904-3.546 0.13278-1.3507 1.0669-2.513 2.3217-3.0036" opacity=".321" stroke-width=".35504"/>
  <path d="m252.61 4.9909c-54.532 21.304-109.05 42.602-124.34 55.967-15.291 13.365 8.6518 18.793 32.597 24.221" stroke-width=".34009"/>
 </g>
 <path d="m252.52 4.7703c-9.9486 4.1845-19.859 8.4631-29.575 12.492-14.573 6.0425-28.589 11.856-41.084 17.321-10.411 4.554-19.792 8.878-27.575 12.902-7.6064 3.9327-13.766 7.619-17.866 10.99-0.084 0.07267-0.16705 0.14503-0.24903 0.21707-2.1394 1.8801-3.5942 3.5616-4.5609 5.075-1.1137 1.7435-1.609 3.3122-1.6833 4.7115-0.0883 1.6647 0.42234 3.0264 1.1092 4.0958 0.84669 1.3182 2.0567 2.3409 3.1592 3.1043 2.0828 1.4421 4.6005 2.5041 6.1391 3.1062 1.6134 0.63133 3.1576 1.1406 4.105 1.4474 1.6111 0.52169 2.6941 0.85763 4.4342 1.4156 2.186 0.70088 3.7162 1.1887 8.6314 2.6832l0.0696-0.22887c-4.6602-1.4169-6.6977-2.0567-8.615-2.7137-1.6131-0.55272-2.8812-1.0394-4.3315-1.6598-0.91523-0.39154-2.3808-1.0424-3.8996-1.8201-1.4739-0.75471-3.7559-2.0094-5.5137-3.5459-0.94258-0.82393-1.8018-1.7845-2.3004-2.8505-0.39227-0.83868-0.5654-1.7454-0.37835-2.7634 0.15765-0.858 0.5936-1.9243 1.5957-3.2331 0.87912-1.1482 2.2205-2.5178 4.2791-4.1357 0.0787-0.06185 0.15848-0.1241 0.23937-0.18674 3.8364-3.1404 9.6437-6.8742 17.064-11.066 7.5531-4.2662 16.686-8.9554 26.906-13.896 12.259-5.9272 26.056-12.204 40.513-18.529 9.6351-4.2153 19.624-8.3062 29.573-12.491z" fill="#faa" opacity=".355"/>
 <path d="m252.51 4.7741c-8.7806 4.0996-17.53 8.2669-26.116 12.242-12.879 5.9626-25.292 11.731-36.443 17.18-9.2911 4.5408-17.722 8.8684-24.823 12.909-6.7006 3.8129-12.258 7.393-16.237 10.673-0.23176 0.19812-0.45679 0.39381-0.67522 0.58712-4.4658 3.9522-6.3452 7.0685-7.0587 9.5118-0.45994 1.575-0.44896 2.9294-0.21834 4.0617 0.28686 1.4084 0.93059 2.5526 1.5815 3.4319 0.89983 1.2155 2.0097 2.1824 2.8656 2.8494 1.4667 1.1432 3.0409 2.0521 3.7801 2.4736 0.74507 0.42477 2.1559 1.1969 3.0084 1.6585 1.4425 0.78103 2.6109 1.3982 5.9303 3.0774l0.10798-0.21346c-3.2152-1.6264-4.5878-2.3451-5.9104-3.0946-1.0909-0.61816-1.962-1.1635-2.8936-1.8122-0.70096-0.48812-2.1418-1.5248-3.4414-2.7644-0.76555-0.73022-1.6889-1.7233-2.3761-2.8885-0.49759-0.84371-0.91016-1.8398-1.0202-2.9726-0.0871-0.89614 7e-3 -1.9476 0.47979-3.1759 0.73344-1.9044 2.4942-4.5555 6.8773-8.1293 0.21443-0.17484 0.43564-0.35231 0.66379-0.53245 3.8247-3.1388 9.1625-6.7537 15.716-10.734 6.9286-4.2083 15.167-8.7958 24.305-13.614 10.962-5.7808 23.2-11.884 35.986-18.05 8.5217-4.1091 17.334-8.1414 26.114-12.241z" fill="#faa" opacity=".355"/>
 <path d="m98.058 80.672c10.079-8.6418 14.866-7.9384 18.953-17.568-10.518 6.4512-13.27 8.8838-27.329 18.584-3.9643 6.5615-6.2254 12.64-10.475 18.884-4.8122 7.0697-5.4866 12.342-5.4866 12.342 19.89-22.503 14.722-23.996 24.338-32.241z" fill-opacity=".502" fill-rule="evenodd" opacity=".102" stroke-width="1.4678"/>
 <path d="m144.79 82.232c-6.9514-1.1429-16.35-1.5333-21.672-4.2699-2.1115-1.0218-4.7692-4.1525-4.0623-6.6226 0.71021-2.4817 1.79-5.0665 3.9321-6.5277-3.2403 2.644 2.3941 10.115 4.8596 12.224 1.3333 1.0911 14.674 5.3218 16.944 5.1964z" fill="#ffd5d5" opacity=".098" stroke-width="4.0852"/>
 <g transform="matrix(.85869 .5062 -.5062 .85869 191.27 -64.412)">
  <path d="m-3.9569 319.55c-6.2043-0.79524-8.1146-15.676-1.4024-16.661 6.7122-0.98464 7.6067 17.456 1.4024 16.661zm5.1706-63.965c33.02 9.8352 33.045 82.458-2.5775 75.886-35.623-6.5723-30.442-85.721 2.5775-75.886z" fill="url(#radialGradient1031)" fill-rule="evenodd" stroke="#000" stroke-width=".83245"/>
  <path d="m19.399 311.3c-1.8229 6.2134-6.8321 14.987-13.562 15.547-2.5982 0.28927-6.1931 0.12214-7.9151-0.93006-2.627-1.6052-5.9263-3.5042-7.4963-4.6651 1.4057 1.0441 3.0466 5.2441 5.9551 6.8881 3.0673 1.7382 7.5965 2.0581 9.4485 1.7541 17.649-2.8968 19.612-32.658 13.709-48.545-1.8523 7.0529 3.6936 16.886-0.13921 29.951z" fill="#fff" fill-opacity=".73367" opacity=".186" stroke-width="2.1769"/>
  <path d="m-18.9 281.64c1.3838-16.945 16.631-21.746 23.983-23.667-20.83-5.4515-33.694 19.155-23.983 23.667z" fill="#fff" fill-opacity=".73367" opacity=".186" stroke-width="2.1769"/>
  <path d="m49.735 318.04c-6.2043-0.79524-8.1146-15.676-1.4024-16.661 6.7122-0.98464 7.6067 17.456 1.4024 16.661zm5.1706-63.965c33.02 9.8352 33.045 82.458-2.5775 75.886-35.625-6.5687-33.173-81.566 2.5775-75.886z" fill="url(#radialGradient1029)" fill-rule="evenodd" stroke="#000" stroke-width=".83245"/>
  <path d="m73.091 309.8c-1.8229 6.2134-6.832 14.987-13.562 15.547-2.5982 0.28927-6.1931 0.12214-7.9151-0.93006-2.627-1.6052-5.9263-3.5042-7.4963-4.6651 1.4057 1.0441 3.0466 5.2441 5.9551 6.8881 3.0673 1.7382 7.5965 2.0581 9.4485 1.7541 17.649-2.8968 19.612-32.658 13.709-48.545-1.8524 7.0529 3.6936 16.886-0.13921 29.951z" fill="#fff" fill-opacity=".73367" opacity=".186" stroke-width="2.1769"/>
  <path d="m34.791 280.13c1.3838-16.945 16.631-21.746 23.983-23.667-20.83-5.4515-33.694 19.155-23.983 23.667z" fill="#fff" fill-opacity=".73367" opacity=".186" stroke-width="2.1769"/>
 </g>
</svg>
