<?xml version="1.0" encoding="UTF-8"?>
<!-- Created with Inkscape (http://www.inkscape.org/) -->
<svg version="1.1" viewBox="0 0 256 256" xmlns="http://www.w3.org/2000/svg" xmlns:cc="http://creativecommons.org/ns#" xmlns:dc="http://purl.org/dc/elements/1.1/" xmlns:rdf="http://www.w3.org/1999/02/22-rdf-syntax-ns#" xmlns:xlink="http://www.w3.org/1999/xlink">
 <defs>
  <linearGradient id="innoGrad1">
   <stop stop-color="#ff8080" offset="0"/>
   <stop stop-color="#f55" offset="1"/>
  </linearGradient>
  <linearGradient id="linearGradient4802" x1="192.3" x2="212.99" y1="23.834" y2="23.834" gradientUnits="userSpaceOnUse" xlink:href="#innoGrad1"/>
  <linearGradient id="linearGradient4804" x1="134.46" x2="182.37" y1="21.111" y2="21.111" gradientUnits="userSpaceOnUse" xlink:href="#innoGrad1"/>
  <linearGradient id="linearGradient4806" x1="98.121" x2="232.57" y1="139.24" y2="111.63" gradientUnits="userSpaceOnUse" xlink:href="#innoGrad1"/>
 </defs>
 <style>svg { cursor: default; }</style>
 <metadata>
  <rdf:RDF>
   <cc:Work rdf:about="">
    <dc:format>image/svg+xml</dc:format>
    <dc:type rdf:resource="http://purl.org/dc/dcmitype/StillImage"/>
    <dc:title/>
   </cc:Work>
  </rdf:RDF>
 </metadata>
 <style>svg { cursor: default; }</style>
 <style>svg { cursor: default; }</style>
 <style>svg { cursor: default; }</style>
 <style>svg { cursor: default; }</style>
 <style>svg { cursor: default; }</style>
 <style>svg { cursor: default; }</style>
 <style>svg { cursor: default; }</style>
 <style>svg { cursor: default; }</style>
 <style>svg { cursor: default; }</style>
 <style>svg { cursor: default; }</style>
 <style>svg { cursor: default;}</style>
 <style>svg { cursor: default; }</style>
 <style>svg { cursor: default; }</style>
 <style>svg { cursor: default; }</style>
 <style>svg { cursor: default; }</style>
 <style>svg { cursor: default; }</style>
 <style>svg { cursor: default; }</style>
 <style>svg { cursor: default; }</style>
 <style>svg { cursor: default;}</style>
 <style>svg { cursor: default; }</style>
 <style>svg { cursor: default; }</style>
 <style>svg { cursor: default; }</style>
 <style>svg { cursor: default; }</style>
 <style>svg { cursor: default; }</style>
 <style>svg { cursor: default; }</style>
 <style>svg { cursor: default; }</style>
 <style>svg { cursor: default; }</style>
 <style>svg { cursor: default; }</style>
 <style>svg { cursor: default; }</style>
 <style>svg { cursor: default;}</style>
 <style>svg { cursor: default; }</style>
 <style>svg { cursor: default; }</style>
 <style>svg { cursor: default; }</style>
 <style>svg { cursor: default; }</style>
 <style>svg { cursor: default; }</style>
 <style>svg { cursor: default; }</style>
 <style>svg { cursor: default; }</style>
 <style>svg { cursor: default;}</style>
 <style>svg { cursor: default; }</style>
 <style>svg { cursor: default; }</style>
 <style>svg { cursor: default; }</style>
 <style>svg { cursor: default; }</style>
 <style>svg { cursor: default; }</style>
 <style>svg { cursor: default; }</style>
 <style>svg { cursor: default; }</style>
 <style>svg { cursor: default; }</style>
 <style>svg { cursor: default; }</style>
 <style>svg { cursor: default;}</style>
 <style>svg { cursor: default; }</style>
 <style>svg { cursor: default; }</style>
 <style>svg { cursor: default; }</style>
 <style>svg { cursor: default; }</style>
 <style>svg { cursor: default; }</style>
 <style>svg { cursor: default; }</style>
 <style>svg { cursor: default; }</style>
 <style>svg { cursor: default;}</style>
 <style>svg { cursor: default; }</style>
 <style>svg { cursor: default; }</style>
 <style>svg { cursor: default; }</style>
 <style>svg { cursor: default; }</style>
 <style>svg { cursor: default; }</style>
 <style>svg { cursor: default; }</style>
 <style>svg { cursor: default; }</style>
 <style>svg { cursor: default; }</style>
 <style>svg { cursor: default; }</style>
 <style>svg { cursor: default; }</style>
 <style>svg { cursor: default;}</style>
 <style>svg { cursor: default; }</style>
 <style>svg { cursor: default; }</style>
 <style>svg { cursor: default; }</style>
 <style>svg { cursor: default; }</style>
 <style>svg { cursor: default; }</style>
 <style>svg { cursor: default; }</style>
 <style>svg { cursor: default; }</style>
 <style>svg { cursor: default;}</style>
 <style>svg { cursor: default; }</style>
 <style>svg { cursor: default; }</style>
 <style>svg { cursor: default; }</style>
 <style>svg { cursor: default; }</style>
 <style>svg { cursor: default; }</style>
 <style>svg { cursor: default; }</style>
 <style>svg { cursor: default; }</style>
 <style>svg { cursor: default; }</style>
 <style>svg { cursor: default; }</style>
 <style>svg { cursor: default; }</style>
 <style>svg { cursor: default;}</style>
 <style>svg { cursor: default; }</style>
 <style>svg { cursor: default; }</style>
 <style>svg { cursor: default; }</style>
 <style>svg { cursor: default; }</style>
 <style>svg { cursor: default; }</style>
 <style>svg { cursor: default; }</style>
 <style>svg { cursor: default; }</style>
 <style>svg { cursor: default;}</style>
 <style>svg { cursor: default; }</style>
 <g transform="matrix(-.85218 0 0 1.0279 243.73 -8.5765)">
  <g stroke="#000">
   <path d="m42.856 226.31c3.3784-1.7205 6.6269-3.5837 9.6724-5.3633-4.5962-8.865 0.33321 1.8939 1.9236-1.2301 1.7393-1.0428 6.8223-3.9869 8.3185-4.8936-4.6616 0.29625-0.45323-9.791-4.972-7.5852-7.2614-0.68396-19.471-0.0559-26.732-0.74611-3.2754 0.23262 10.702 18.826 11.79 19.818z" fill="#ff2a2a" fill-rule="evenodd" stroke-width=".38691"/>
   <path d="m42.856 226.31c-3.5291-4.1206-9.6549-12.937-7.9285-13.691 8.4582-22.014 24.706 9.9769 26.411-2.9824 9.0154-3.1678 2.0415 5.8312-7.5826 10.471-1.1555 0.55713-2.6685-1.1268-3.3289-2.9604 2.7011 4.9155 3.3186 1.9833-7.5705 9.1627z" opacity=".081" stroke-width=".14426"/>
   <path d="m192.66 36.662c10.885-3.4471 17.362-14.858 19.878-19.805-27.211 4.4495-28.327-4.3962-35.497 0.1784-2.459 1.5689-37.68-9.8754-42.138-5.4815 3.7876 4.4654 5.7064 5.2335 12.072 11.473-3.4541 1.7289 3.8836 9.521-9.0933 14.792-6.0331 18.171-10.023 48.502-11.225 80.267-48.775 14.341-53.332 62.024-16.52 80.838 2.8269 40.861 28.726 44.505 45.192 42.172 0.54931 0.0724-2.9064-23.907 15.463-1.5942 0.2855-0.0849 0.67897-0.0654 1.142 0.0195 0.19395 0.0355 1.7025-1.7409 0.94719 0.39852 0.83643-0.70677 3.8146 1.2185 5.2927 1.2512 7e-3 -1.644-0.28651 1.3358 3.4074-1.7323-0.0248-5.7549 1.0854-8.2441 2.4645-8.7573 0.0827-4.8891-0.90024-6.9639 2.2534 0.62553 2.0296 1.7051 3.6883 6.0579 2.4687 9.3248 2.1646 0.42833 4.2912 0.90137 6.261 1.3692 5.8348 1.3859 10.295 2.7266 10.295 2.7266 21.481-80.662-4.618-161.6-12.664-208.07z" fill="#ff2a2a" fill-rule="evenodd" stroke-width=".50741"/>
  </g>
  <path d="m169.85 30.113c2.9359 2.302 5.8677 3.9126 11.267 3.6938" fill="none" opacity=".47" stroke="#000" stroke-width=".4"/>
  <g fill-rule="evenodd">
   <path d="m189.64 24.777c12.306 2.5204 20.412-3.6011 22.928-8.5481-24.143 4.5091-26.614 2.3705-35.497 0.1784-2.4835 1.5262-37.74-9.7016-42.138-5.4815 3.7876 4.4654 5.7064 5.2335 12.072 11.473-3.5218 1.7628 12.271 11.536-9.2454 15.255-17.362 53.324-17.556 207.79 17.599 202.81 0.54931 0.0724-2.9064-23.907 15.463-1.5942 0.13561-0.67389 2.6662 0.31676 2.8-0.45761 6.727-38.951 1.896-201.97 7.8299-205.02 2.5154-1.2931 8.105-11.205 8.1881-8.6216z" fill-opacity=".070352"/>
   <path d="m172.72 14.971c-3.1819 3.0492-33.447-7.6826-37.818-3.4168 3.7876 4.4654 5.7064 5.2335 12.072 11.473-3.5218 1.7628 12.271 11.536-9.2454 15.255-17.362 53.324-17.556 207.79 17.599 202.81 0.54931 0.0724-1.165-11.851 3.5413-10.971-4.1855-16.182-41.791-66.168 1.4047-157.31 6.3767-13.455 8.25-41.833 16.991-56.45z" fill-opacity=".070352"/>
   <path d="m105.74 242.32-0.5197-3.7862c2.106-0.044 4.0587 5.0042 3.6818 3.0414-0.87864-4.5753 4.0721-10.331 8.3805-7.019-1.6858-2.7858-0.45324-9.791-4.972-7.5852-7.072-9.0205-23.737-15.347-31.083-12.291-2.754-0.644-0.77319 16.193 7.0673 19.444s15.563 8.3606 17.445 8.196z" fill="#ff2a2a" stroke="#000" stroke-width=".38717"/>
   <path d="m148.99 9.7565c-11.239 0.12357-7.4741-1.3119-14.087 1.7973 11.761 17.684 0.0439-10.091 10.357 21.84l7.509-9.2113 9.9963 3.988 5.3296 3.0446 2.5026 1.5146c0.77224-1.5693-0.21437-4.9056 3.5774-4.1658 0 0 11.647-12.011 6.6577-19.695-0.94525 2.4792-6.6236 7.3891-8.1113 6.1013s-8.5597-0.27219-13.093 0.03451c1.8546 0.45696-0.0198 1.9973-3.2314 1.7285-2.6295 0.52092-5.5462-4.5219-5.9378-4.6172 4.1219-1.8762-0.0234-1.6764-1.4687-2.3597z" fill="url(#linearGradient4804)" stroke="#000" stroke-width=".6012"/>
  </g>
  <path d="m83.88 220.48 0.04196 9.9732c-9.2086-34.037 33.242 0.79033 25.52 4.888-2.046-4.0409-6.398-14.612-12.539-5.9645-0.47701 0.67164-1.6491 0.38804-2.3334 1.1391-0.27361-1.354-2.213-5.8462-3.5301-5.3579-0.79304-4.005-0.03108-6.844-7.1589-4.6779z" opacity=".081" stroke="#000" stroke-width=".14426"/>
  <g fill-rule="evenodd">
   <path d="m192.2 254.09c3.3384-3.4989 3.3265-2.0964 4.6442-8.0544 5.3974-7.0025 0.68409-3.4397 8.5745-0.97922l3.1883-10.362 4.4916 5.1202c0.0539-0.0429 2.2868-1.2666 2.3356-2.2706s1.8212-7.6502 1.8557-9.5201c0.0346-1.8699 0.8113-0.84233 0.82264-3.4829 0.0108-2.6406 12.784-0.98334 12.763-4.2993-0.0209-3.316 5.0499 8.535 4.9876 4.6388s-3.0032-11.065-3.1159-15.446c-0.11266-4.3812 7.2622 15.367 7.0901 10.596-0.0215-0.59638 0.8841-4.8097 2.2219 8.2537 0.88692-10.985-9.0665-47.979-10.365-50.411l-3.9663 6.6544 2.0507-12.921c-1.474-9.7903-2.4126-16.773-3.1813-26.284-6.7602-29.234-4.7416-34.139-17.561-58.508l-2.2318-6.5892c-2.3298-9.9985-3.4572-13.52-5.4835-22.849-0.48669-2.2309-6.7271-10.016-7.3016-12.003-0.28724-0.99362 1.7592-3.4074 2.5325-4.0157 0.77331-0.60831-0.72069-5.3234-0.99926-6.3221-0.97601 0.23646-1.7089 1.9836-2.6004 1.5213-0.6567 53.683 44.983 105.72-0.75223 217.53zm-53.759-158.7c-5.7996 6.273-25.909 76.786-27.191 80.641 4.1394-4.0115 25.753-76 27.191-80.641zm22.627-36.074c3.2948-7.6979 4.8306-10.522 5.1019-14.423 0.21999-4.0125 0.13243-5.4021-0.033-6.0381 2.638-1.0061 2.9088-3.6839 4.4608-6.1243h2e-5c-9.9562-6.4711-12.416-6.1764-17.829-8.5472 0 0-15.583 12.444-17.227 15.439-15.906 28.973-48.386 64.948-74.973 85.703-29.249 22.833-42.181 51.797-56.623 84.506l3.61e-5 -1.1e-4 6.4265 9.1838c-0.82247 0.49641-0.84127-6.8365-0.12429-9.8043 2.4624 2.5193 5.0401 3.7708 7.5981 5.2396 0.94191-0.11135-1.5448 4.4506-0.03114 4.3645 1.5137-0.0861 4.1721 4.4983 6.0859 4.4319 1.9137-0.0664-6.8371 2.7314-4.6951 2.6794 2.142-0.0521 7.2109 7.2663 9.4094 7.2231 2.1985-0.0433 11.897-6.8469 13.981-6.8867 0.79117 0.21862-10.847-13.329-7.6648-13.648 8.3388-1.3869 32.379 0.45469 48.894 15.799 1.0955 1.2902-2.4926-3.5109-0.04196-9.9732 4.1549-0.24024 4.3559-1.1866 5.9211-0.2258 1.9942 10.571 0.99057-0.5236 4.7679 10.262l2.3334-1.1391c0.45962-0.35349 3.4328-4.8153 6.3852-2.9974s4.6086 5.2394 6.1542 8.9619c3.7774 2.6598 10.951 4.6641 13.886 8.0051 2.6288-1.3144 0.0663 5.9844 4.4988 7.8421l5.367 0.63768s-2.5612 2.4241-1.6398 2.0527c0.92134-0.37139 18.623 4.9939 27.093 3.8457l-0.48334-9.0072c-27.647-66.304-28.849-123.79 3.0014-187.36z" fill="url(#linearGradient4806)" stroke="#000" stroke-width=".701"/>
   <g>
    <path d="m183.85 227.69c0.76267-3.7345 1.2188-8.4469 1.4377-13.873 0.21889-5.4252 0.20057-11.56 0.0158-18.142-0.30933-11.02-1.0852-23.29-1.9951-35.579-0.21546-2.3883-0.43599-4.7771-0.65913-7.1574-1.3698-14.612-2.8385-28.906-3.8409-40.793-0.50122-5.9435-0.88591-11.285-1.0835-15.765-0.19756-4.4785-0.20832-8.0986 0.0392-10.6-0.35595 2.4928-0.4542 6.1182-0.36485 10.61 0.0893 4.4911 0.36609 9.8467 0.75941 15.803 0.78651 11.912 2.0397 26.234 3.1923 40.856 0.1878 2.3822 0.37293 4.7724 0.55297 7.1617 1.1224 12.261 2.1105 24.5 2.633 35.492 0.31207 6.5653 0.45809 12.686 0.36736 18.103-0.0907 5.4151-0.41809 10.13-1.0543 13.884z" opacity=".642"/>
    <path d="m218.06 224.02c0.56541-4.0879 1.1417-7.4555 1.7901-10.654 0.27626-1.1116 0.5611-2.2009 0.85712-3.2917 1.139-4.1969 2.4432-8.416 4.0644-14.023-1.4849 5.6474-2.6521 9.9039-3.6515 14.128-0.2596 1.0973-0.50775 2.192-0.74712 3.3079-0.81992 3.1454-1.5709 6.4726-2.313 10.532z"/>
    <path d="m158.55 255.68c-0.39699-1.1704-0.79772-2.3778-1.2006-3.6179-4.9763-10.927-10.236-24.895-14.582-39.074-2.4072-7.8545-4.5335-15.773-6.1755-23.273-1.6419-7.5002-2.7999-14.585-3.27-20.772 0.3967 6.1945 1.4822 13.295 3.0538 20.819 1.5715 7.5235 3.6287 15.469 5.9684 23.355 4.2227 14.232 9.3664 28.274 14.238 39.291 0.66076 1.13 1.3173 2.2225 1.968 3.2736z"/>
    <path d="m144.53 207.78c-0.27142-1.9221-0.78767-4.3599-1.4105-7.304-0.25104-1.1867-0.51927-2.4551-0.79602-3.8062-0.46059-1.9894-0.93988-4.1602-1.4092-6.5131-1.572-7.8817-3.0324-17.811-3.2979-29.804-0.53095-23.984 3.7172-56.239 21.434-96.877 2.2234-4.7064 3.7882-8.2282 4.8729-10.955 1.0847-2.7266 1.6899-4.6595 1.9956-6.1925 0.30588-1.5341 0.31094-2.6639 0.19926-3.7846-0.11162-1.12-0.33937-2.2301-0.50236-3.735 0.13256 1.5079 0.33036 2.6265 0.41096 3.7429 0.0806 1.1157 0.0445 2.2299-0.28742 3.7391-0.33214 1.5103-0.9614 3.4201-2.0712 6.1271-1.1098 2.7071-2.6995 6.2099-4.9515 10.905-17.796 40.667-22.122 72.975-21.65 97.041 0.23574 12.033 1.6706 22.001 3.2182 29.917 0.46188 2.3626 0.93372 4.542 1.3865 6.5383 0.33991 1.3397 0.67106 2.5957 0.98452 3.7678 0.77722 2.9062 1.4476 5.304 1.8746 7.1929z"/>
    <path d="m143.77 106.39c1.9985-11.737 3.9521-22.923 6.8443-33.703 0.1509-0.64204 0.3051-1.2828 0.46282-1.9222 2.8224-11.443 6.7751-22.504 13.045-33.336-6.5753 10.663-10.876 21.632-14.058 33.07-0.17757 0.63833-0.35163 1.278-0.52239 1.9192-2.5462 10.914-4.1408 22.198-5.7721 33.971z"/>
    <path d="m34.451 212.59c4.6738-9.8973 8.6484-17.962 12.923-25.883 0.65606-1.3478 1.3207-2.6921 1.9986-4.0407 4.7467-9.4439 10.142-19.102 17.772-31.652-7.9474 12.346-13.677 21.829-18.772 31.127-0.72769 1.328-1.4424 2.6521-2.1488 3.9802-3.903 8.1394-7.4944 16.401-11.773 26.468z"/>
    <path d="m95.219 93.064c-7.542 7.9286-15.706 16.238-24.377 24.588-11.203 11.486-23.33 23.071-36.107 33.948 13.055-10.549 25.487-21.829 37.018-33.035 8.3815-8.6698 16.242-17.284 23.465-25.501z"/>
    <path d="m58.225 179.45c2.9183-9.5044 7.2148-19.956 12.264-30.519 3.6074-7.5465 7.6004-15.152 11.751-22.511 1.6049-2.9728 3.2359-5.9074 4.8783-8.7844 5.7501-10.072 11.64-19.435 17.047-27.249 2.7036-3.9068 5.2867-7.4267 7.6716-10.455 2.3846-3.0277 4.5724-5.5653 6.486-7.5076-1.9808 1.8765-4.2423 4.355-6.7055 7.3303-2.463 2.975-5.1267 6.4455-7.913 10.306-5.5723 7.7213-11.634 17.003-17.562 27.007-1.6933 2.8575-3.3758 5.7741-5.0328 8.7301-4.0068 7.4683-7.8503 15.176-11.304 22.816-4.8347 10.696-8.9024 21.256-11.582 30.836z"/>
    <path d="m148.55 28.81c-5.6052 5.8483-12.021 14.708-18.768 24.924-4.8192 7.2964-9.8064 15.282-14.788 23.354-0.94123 1.583-4.86 8.1996-5.8012 9.7826-6.7413 11.375-13.337 22.446-19.321 31.576-2.992 4.565-5.8311 8.6449-8.4594 12.035-2.6276 3.3892-5.047 6.0924-7.2018 7.9039 2.2178-1.7415 4.7128-4.3867 7.4229-7.7286 2.7095-3.3411 5.6319-7.3758 8.7077-11.897 6.1512-9.0417 12.916-20.029 19.819-31.308 57.406-93.792-51.467 84.094 5.9384-9.6979 4.8261-8.1608 9.6547-16.231 14.316-23.613 6.5235-10.331 12.724-19.323 18.136-25.332z"/>
    <path d="m188.22 76.938c2.5987-8.5113 3.9784-15.95 4.6465-22.236 0.0632-0.73394 0.11677-1.4519 0.16142-2.1537 0.42772-6.7231 0.0402-11.967-0.44737-15.617 0.36256 3.6663 0.62181 8.9005 0.0702 15.589-0.0576 0.6981-0.12397 1.412-0.20001 2.1417-0.52693 6.2722-1.7656 13.725-4.2308 22.276z" opacity=".804"/>
    <path d="m217.41 107.71c-0.0368 7.8423 1.0155 16.585 2.4994 24.506 0.22417 1.0668 0.45615 2.1181 0.69429 3.1496 0.99908 4.3274 2.1068 8.307 3.2018 11.624 0.54754 1.6585 1.0919 3.1512 1.6179 4.4387 0.52603 1.2876 1.0334 2.3692 1.5065 3.2051-0.43378-0.85588-0.89977-1.9535-1.3832-3.2532-0.48348-1.3-0.98472-2.8032-1.4887-4.4704-1.008-3.3345-2.0272-7.3255-2.937-11.658-0.21686-1.0327-0.42749-2.0847-0.63027-3.1518-1.6716-7.8513-2.92-16.554-3.0807-24.39z"/>
    <path d="m181.12 84.766c-0.52621 1.8698-1.1844 3.3073-1.8607 4.8667-0.43188 0.9958-0.87331 2.046-1.2928 3.2916-0.16319 0.731-0.31748 1.5189-0.45798 2.3905 0.26578-0.8417 0.54319-1.5908 0.82642-2.2742 0.36718-1.2466 0.75754-2.3046 1.1428-3.319 0.60457-1.5917 1.191-3.0619 1.6422-4.9555z" opacity=".416"/>
    <path d="m222.65 201.25c0.0244-4.6877 0.0191-8.5402-1e-3 -12.19 0.11853-6.2118 0.19265-11.837 0.29276-19.996 0.0135 8.1587 0.053 13.785 0.0481 19.999-0.0931 3.6496-0.20145 7.5008-0.33943 12.187z"/>
    <path d="m201.24 65.402c1.1424 2.7326 1.8773 5.6365 2.2542 8.9905 0.0287 0.25548 0.0553 0.51365 0.0799 0.77462 0.56549 3.1367 0.83369 6.7357 0.82386 11.019 0.29836-4.2648 0.32205-7.9037 0.0356-11.134-0.0456-0.26352-0.0932-0.52396-0.14287-0.78143-0.65372-3.3871-1.6641-6.248-3.0508-8.8687z"/>
    <path d="m203.55 73.089c-0.60909-2.5021-1.5691-5.4551-2.551-8.8705-0.13203-0.45923-0.26446-0.92683-0.39651-1.4029-0.96962-3.0275-1.9274-6.4175-2.6627-10.19 0.59591 3.7998 1.4171 7.2306 2.2543 10.311 0.14863 0.47279 0.29756 0.93681 0.446 1.3921 1.1039 3.3864 2.18 6.2908 2.91 8.7604z"/>
   </g>
   <path d="m192.87 36.635c8.5402-0.94698 18.168-14.855 19.75-19.822-1.5485 0.15714-2.1998-0.27893-2.8886-0.39879-4.5581-0.2719-5.5936-0.73022-8.3571-5.0444-2.2133 9.2669-1.1364 9.1855-1.7506 12.98-1.5585 2.7822-2.5237 3.8536-3.0856 7.2705z" fill="url(#linearGradient4802)" stroke="#000" stroke-width=".52703"/>
   <g>
    <path d="m224.77 196.05c-0.42022-6.7494-1.5333-15.204-3.0075-24.196-1.1664-7.1149-2.5586-14.566-4.0123-21.776-0.39792-1.8993-0.8001-3.7817-1.2035-5.6366-1.9324-8.8851-3.8931-17.14-5.5502-23.598-0.82855-3.2291-1.5812-6.0092-2.2164-8.1945-0.31761-1.0926-0.60587-2.0366-0.85955-2.8135-0.25371-0.77697-0.4728-1.3868-0.65199-1.8111 0.16446 0.42985 0.36848 1.0444 0.60691 1.8253 0.23846 0.78102 0.5114 1.7288 0.81367 2.825 0.60454 2.1926 1.3264 4.9794 2.124 8.2149 1.5953 6.471 3.4939 14.736 5.3638 23.631 0.39035 1.8567 0.77945 3.7408 1.1643 5.6417 1.513 7.1934 2.965 14.629 4.1914 21.73 1.5499 8.9742 2.7398 17.415 3.2374 24.157z"/>
    <path d="m227.57 191.59c-1.763-11.59-4.7161-27.263-7.6735-41.655-0.35905-1.6743-0.71814-3.3312-1.0754-4.9622-1.7113-7.8125-3.3807-15.03-4.8017-20.72-0.71052-2.8449-1.359-5.3078-1.9195-7.272-0.28027-0.98211-0.53855-1.8395-0.77161-2.5576-0.23307-0.71808-0.44086-1.2966-0.62005-1.7209 0.16446 0.42986 0.35717 1.0131 0.57494 1.735 0.21779 0.72203 0.46073 1.5831 0.72561 2.5687 0.52976 1.9712 1.1473 4.4405 1.8269 7.2916 1.3592 5.7022 2.9665 12.931 4.6157 20.755 0.34429 1.6332 0.69039 3.2922 1.0364 4.9687 3.0925 14.358 6.1819 30.002 8.0822 41.569z"/>
    <path d="m160.71 15.289c0.0125 0.062 0.0362 0.11865 0.068 0.17236 0.0317 0.05361 0.0708 0.10308 0.11276 0.15081 0.0837 0.09524 0.17726 0.18317 0.24248 0.27556 0.0328 0.04651 0.058 0.09283 0.0745 0.14156 0.0163 0.04816 0.0242 0.09907 0.0224 0.15579-2e-3 0.05679-0.0135 0.12272-0.0398 0.201-0.0264 0.07866-0.0678 0.1704-0.12955 0.27848a0.16333 0.13657 53.353 0 0-7e-3 0.12661c1.0051 2.8165 2.4561 5.7383 4.0905 8.5115 0.99133 1.682 2.0505 3.3099 3.1192 4.8271 0.77988 0.92242 1.5609 1.7942 2.3265 2.5999-0.6156-0.92524-1.2405-1.9091-1.8588-2.9355-1.0863-1.4865-2.1646-3.0846-3.1764-4.7381-1.6568-2.7074-3.1348-5.5618-4.1794-8.3169 0.0417-0.1033 0.07-0.19814 0.0862-0.28566 0.0197-0.10682 0.0213-0.20253 7e-3 -0.28862-0.014-0.08631-0.0432-0.15998-0.0819-0.22357-0.0384-0.06312-0.0855-0.11536-0.13494-0.16038-0.0945-0.08611-0.21442-0.15926-0.30706-0.2275-0.0487-0.03587-0.0948-0.0735-0.13488-0.11601-0.04-0.04248-0.0749-0.09081-0.0999-0.14847z"/>
    <path d="m143.26 10.484c1.8131 0.98906 3.9934 2.5316 6.316 4.3504 2.3231 1.8192 4.7902 3.9162 7.1762 6.0143 2.3861 2.0983 4.6909 4.1975 6.6901 6.0222-3.9292-3.5861 5.5096 5.028 1.5805 1.442 1.3906 1.1084 2.5896 2.0337 3.5045 2.665-0.7926-0.77918-1.8599-1.8444-3.1219-3.0952-0.51068-0.44337-1.0495-0.91357-1.6119-1.405-2.0382-1.7809-4.3843-3.8386-6.8116-5.895-2.4273-2.0565-4.9358-4.1116-7.2989-5.8877-2.3635-1.7764-4.5803-3.2726-6.4229-4.211z"/>
   </g>
   <path d="m198.67 24.339c-0.0724 0.07946 0.89906 1.3544 1.0229 1.3177l-0.15577 0.13153c-0.43101-0.40458-0.8292-0.8273-1.0616-1.3417z" fill="#ff8080" stroke="#000" stroke-width=".09545"/>
   <path d="m197.32 26.835c-0.0639 0.09623 1.0184 1.1184 1.1373 1.0519l-0.1413 0.16809c-0.46475-0.29434-0.89881-0.61464-1.1778-1.0661z" fill="#ff8080" stroke="#000" stroke-width=".09545"/>
  </g>
  <g stroke="#000">
   <path d="m46.51 186.14c-2.4166 4.0875-6.7125 15.597-12.059 26.45-0.08331 0.16912 0.16821-0.0835 0 0-1.9738 0.98018 7.516 13.803 8.1407 13.668 3.0511-0.65696-6.29 4.226-13.981 6.8868-3.4416-0.82372-6.4632-6.6613-9.0589-7.4786-0.49123-0.15467 4.8405-2.2736 4.3446-2.4238-1.0622-0.3219-4.1888-3.5725-6.356-4.9099-0.26471-0.16336 0.84364-3.6048 0.57896-3.76-1.9647-1.1521-7.1342-3.5294-7.8757-5.3661 8.1229-21.631 53.12-69.813 61.556-90.465l47.655-51.186c-56.767 83.793-8.4467 10.211-72.945 118.58z" opacity=".081" stroke-width=".14426"/>
   <path d="m143.77 106.39c5.3708-30.488 15.535-57.661 21.84-67.579 3.0425 10.791-6.6581 17.075-21.84 67.579z" opacity=".101" stroke-width=".14426"/>
   <path d="m183.85 227.69c8.3187-27.001-4.4812-121.09-6.338-132.37-1.237 6.4679 11.448 115.18 6.338 132.37z" opacity=".071" stroke-width=".096825"/>
   <path d="m168.52 30.978c-6.1616-2.6574-9.8144-5.3015-15.756-6.7954-5.43 3.8229-2.5296 2.5468-8.1766 6.7168l-5.4852-16.82c-3.5394-3.0684-1.7609 0.42096-4.2038-2.5256 8.142-0.27934 5.0317-4.427 33.622 19.424z" opacity=".101" stroke-width=".14426"/>
  </g>
  <path d="m177.51 20.11c-0.0961-0.10141-1.1105 1.622-1.0438 1.8109l-0.16788-0.22437c0.2916-0.73972 0.60915-1.4307 1.0579-1.8754z" fill="#ff8080" fill-rule="evenodd" stroke="#000" stroke-width=".12013"/>
 </g>
</svg>
