<?xml version="1.0" encoding="UTF-8"?>
<!-- Created with Inkscape (http://www.inkscape.org/) -->
<svg version="1.1" viewBox="0 0 256 256" xmlns="http://www.w3.org/2000/svg" xmlns:cc="http://creativecommons.org/ns#" xmlns:dc="http://purl.org/dc/elements/1.1/" xmlns:rdf="http://www.w3.org/1999/02/22-rdf-syntax-ns#" xmlns:xlink="http://www.w3.org/1999/xlink">
 <style>svg { cursor: default; }</style>
 <defs>
  <linearGradient id="innoGrad3">
   <stop stop-color="#ffe680" offset="0"/>
   <stop stop-color="#fd5" offset="1"/>
  </linearGradient>
  <linearGradient id="innoGrad1">
   <stop stop-color="#ff8080" offset="0"/>
   <stop stop-color="#f55" offset="1"/>
  </linearGradient>
  <filter id="filter7970" x="-.013001" y="-.011142" width="1.026" height="1.0223" color-interpolation-filters="sRGB">
   <feGaussianBlur stdDeviation="0.31869384"/>
  </filter>
  <filter id="filter7966" x="-.013001" y="-.011142" width="1.026" height="1.0223" color-interpolation-filters="sRGB">
   <feGaussianBlur stdDeviation="0.31869386"/>
  </filter>
  <linearGradient id="linearGradient5382" x1="187.08" x2="-83.99" y1="151.32" y2="116.4" gradientUnits="userSpaceOnUse" xlink:href="#innoGrad1"/>
  <linearGradient id="linearGradient5384" x1="224.27" x2="-35.395" y1="245.69" y2="213.45" gradientUnits="userSpaceOnUse" xlink:href="#innoGrad1"/>
  <linearGradient id="linearGradient5442" x1="199.93" x2="186.85" y1="27.408" y2="227.22" gradientUnits="userSpaceOnUse" xlink:href="#innoGrad1"/>
  <linearGradient id="linearGradient5444" x1="147.17" x2="-21.33" y1="75.015" y2="84.115" gradientUnits="userSpaceOnUse" xlink:href="#innoGrad1"/>
  <linearGradient id="linearGradient5486" x1="46.405" x2="51.391" y1="146.7" y2="112.18" gradientUnits="userSpaceOnUse" xlink:href="#innoGrad3"/>
  <linearGradient id="linearGradient5508" x1="127.23" x2="154.12" y1="168.68" y2="165.05" gradientUnits="userSpaceOnUse" xlink:href="#innoGrad1"/>
  <linearGradient id="linearGradient5510" x1="75.454" x2="114.43" y1="143.08" y2="152.89" gradientUnits="userSpaceOnUse" xlink:href="#innoGrad1"/>
 </defs>
 <metadata>
  <rdf:RDF>
   <cc:Work rdf:about="">
    <dc:format>image/svg+xml</dc:format>
    <dc:type rdf:resource="http://purl.org/dc/dcmitype/StillImage"/>
    <dc:title/>
   </cc:Work>
  </rdf:RDF>
 </metadata>
 <style>svg { cursor: default; }</style>
 <style>svg { cursor: default; }</style>
 <style>svg { cursor: default; }</style>
 <style>svg { cursor: default; }</style>
 <style>svg { cursor: default; }</style>
 <style>svg { cursor: default; }</style>
 <style>svg { cursor: default; }</style>
 <style>svg { cursor: default; }</style>
 <style>svg { cursor: default; }</style>
 <style>svg { cursor: default; }</style>
 <style>svg { cursor: default; }</style>
 <style>svg { cursor: default; }</style>
 <style>svg { cursor: default; }</style>
 <style>svg { cursor: default; }</style>
 <style>svg { cursor: default; }</style>
 <style>svg { cursor: default; }</style>
 <style>svg { cursor: default;}</style>
 <style>svg { cursor: default; }</style>
 <style>svg { cursor: default; }</style>
 <style>svg { cursor: default; }</style>
 <style>svg { cursor: default; }</style>
 <style>svg { cursor: default; }</style>
 <style>svg { cursor: default; }</style>
 <style>svg { cursor: default; }</style>
 <style>svg { cursor: default;}</style>
 <style>svg { cursor: default; }</style>
 <style>svg { cursor: default; }</style>
 <style>svg { cursor: default; }</style>
 <style>svg { cursor: default; }</style>
 <style>svg { cursor: default; }</style>
 <style>svg { cursor: default; }</style>
 <style>svg { cursor: default; }</style>
 <style>svg { cursor: default; }</style>
 <style>svg { cursor: default; }</style>
 <style>svg { cursor: default; }</style>
 <style>svg { cursor: default;}</style>
 <style>svg { cursor: default; }</style>
 <style>svg { cursor: default; }</style>
 <style>svg { cursor: default; }</style>
 <style>svg { cursor: default; }</style>
 <style>svg { cursor: default; }</style>
 <style>svg { cursor: default; }</style>
 <style>svg { cursor: default; }</style>
 <style>svg { cursor: default;}</style>
 <style>svg { cursor: default; }</style>
 <style>svg { cursor: default; }</style>
 <style>svg { cursor: default; }</style>
 <style>svg { cursor: default; }</style>
 <style>svg { cursor: default; }</style>
 <style>svg { cursor: default; }</style>
 <style>svg { cursor: default; }</style>
 <style>svg { cursor: default; }</style>
 <style>svg { cursor: default; }</style>
 <style>svg { cursor: default; }</style>
 <style>svg { cursor: default; }</style>
 <style>svg { cursor: default; }</style>
 <style>svg { cursor: default; }</style>
 <style>svg { cursor: default; }</style>
 <style>svg { cursor: default; }</style>
 <style>svg { cursor: default; }</style>
 <style>svg { cursor: default; }</style>
 <style>svg { cursor: default; }</style>
 <style>svg { cursor: default; }</style>
 <style>svg { cursor: default;}</style>
 <style>svg { cursor: default; }</style>
 <style>svg { cursor: default; }</style>
 <style>svg { cursor: default; }</style>
 <style>svg { cursor: default; }</style>
 <style>svg { cursor: default; }</style>
 <style>svg { cursor: default; }</style>
 <style>svg { cursor: default; }</style>
 <style>svg { cursor: default;}</style>
 <style>svg { cursor: default; }</style>
 <style>svg { cursor: default; }</style>
 <style>svg { cursor: default; }</style>
 <style>svg { cursor: default; }</style>
 <style>svg { cursor: default; }</style>
 <style>svg { cursor: default; }</style>
 <style>svg { cursor: default; }</style>
 <style>svg { cursor: default; }</style>
 <style>svg { cursor: default; }</style>
 <style>svg { cursor: default; }</style>
 <style>svg { cursor: default;}</style>
 <style>svg { cursor: default; }</style>
 <style>svg { cursor: default; }</style>
 <style>svg { cursor: default; }</style>
 <style>svg { cursor: default; }</style>
 <style>svg { cursor: default; }</style>
 <style>svg { cursor: default; }</style>
 <style>svg { cursor: default; }</style>
 <style>svg { cursor: default;}</style>
 <style>svg { cursor: default; }</style>
 <style>svg { cursor: default; }</style>
 <style>svg { cursor: default; }</style>
 <style>svg { cursor: default; }</style>
 <style>svg { cursor: default; }</style>
 <style>svg { cursor: default; }</style>
 <style>svg { cursor: default; }</style>
 <style>svg { cursor: default; }</style>
 <style>svg { cursor: default; }</style>
 <style>svg { cursor: default; }</style>
 <style>svg { cursor: default; }</style>
 <style>svg { cursor: default;}</style>
 <style>svg { cursor: default; }</style>
 <style>svg { cursor: default; }</style>
 <style>svg { cursor: default; }</style>
 <style>svg { cursor: default; }</style>
 <style>svg { cursor: default; }</style>
 <style>svg { cursor: default; }</style>
 <style>svg { cursor: default; }</style>
 <style>svg { cursor: default;}</style>
 <style>svg { cursor: default; }</style>
 <style>svg { cursor: default; }</style>
 <style>svg { cursor: default; }</style>
 <style>svg { cursor: default; }</style>
 <style>svg { cursor: default; }</style>
 <style>svg { cursor: default; }</style>
 <style>svg { cursor: default; }</style>
 <style>svg { cursor: default; }</style>
 <style>svg { cursor: default; }</style>
 <style>svg { cursor: default; }</style>
 <style>svg { cursor: default;}</style>
 <style>svg { cursor: default; }</style>
 <style>svg { cursor: default; }</style>
 <style>svg { cursor: default; }</style>
 <style>svg { cursor: default; }</style>
 <style>svg { cursor: default; }</style>
 <style>svg { cursor: default; }</style>
 <style>svg { cursor: default; }</style>
 <style>svg { cursor: default;}</style>
 <style>svg { cursor: default; }</style>
 <style>svg { cursor: default; }</style>
 <style>svg { cursor: default; }</style>
 <style>svg { cursor: default; }</style>
 <style>svg { cursor: default; }</style>
 <style>svg { cursor: default; }</style>
 <style>svg { cursor: default; }</style>
 <style>svg { cursor: default; }</style>
 <g fill="url(#linearGradient5486)" stroke="#000">
  <g stroke-width=".39979">
   <path d="m45.026 160.77c9.244 0.78763 10.46-4.3116 10.46-4.3116l8.5987-49.622-18.81-2.5995-9.4635 50.609s0.78862 5.2054 9.2147 5.9234z"/>
   <path d="m27.162 159.37c8.1411-0.16713 8.6494-4.5265 8.6494-4.5265l10.524-51.09-17.192 8.1807-7.903 44.246s0.44258 3.3019 5.922 3.1894z"/>
   <path d="m17.972 157.28c0.62285 1.7765 2.1078 1.1939 3.2683-1.0989l7.903-44.246z"/>
  </g>
  <g stroke-width=".49455">
   <path d="m163.43 166.67c-10.92-0.77985-11.308-5.7692-11.308-5.7692l-10.689-58.803 22.532 10.54 8.0204 50.095s-1.2059 4.4619-8.5553 3.937z"/>
   <path d="m165.02 116.24c-0.19129 1.0488 6.6114 44.835 6.6114 44.835s0.68428 7.3089 13.04 6.271c12.032-1.0107 12.693-8.1002 12.693-8.1002l-10.799-60.658z"/>
   <path d="m211.43 164.15c-12.432 0.89623-14.066-4.906-14.066-4.906l-11.564-56.463 25.296-2.9578 12.727 57.587s-1.0605 5.923-12.392 6.74z"/>
   <path d="m235.46 162.56c-10.948-0.19017-11.632-5.1506-11.632-5.1506l-14.153-58.133 23.12 9.3086 10.628 50.346s-0.59519 3.7571-7.964 3.6291z"/>
   <path d="m247.82 160.18c-0.83762 2.0214-2.8346 1.3586-4.3953-1.2504l-10.628-50.346z"/>
  </g>
 </g>
 <g transform="rotate(9.5915 148.52 52.632)" fill="#ffb380" fill-rule="evenodd" stroke="#000" stroke-width=".476">
  <path d="m141.91 47.477c2.7282-1.3825 2.4047-8.8084-2.9609-10.488l4.8191-4.85c3.1512 5.8126 2.5203 10.359 1.5168 15.526z"/>
  <path d="m161.79 45.762c3e-3 -2.3006-0.53959-9.7218-3.3359-11.926l3.0691-7.475c3.1512 5.8126 1.2703 14.234 0.26676 19.401 10.562 19.182 10.562 19.182 0 0z"/>
  <path d="m143.44 47.257c-2.7633 1.0049-6.421-8.684-2.5332-9.9908 3.6389-1.2232 6.1658 8.6699 2.5332 9.9908zm19.354-5.8753c-0.4723-2.1739 0.52934-7.2256-1.5239-6.3129-6.7416 1.6913-8.8097 4.0805-11.024 6.9125-2.503 5.5008-1.7404 10.409-1.0761 16.104l4.2105 1.837 6.7736 7.2641-5.3813 3.5761-11.784-1.5348c-0.63049-11.108-5.6348-20.132-11.598-29.707 9.4999-10.411 19.947-12.775 31.135-17.541 3.1512 5.8126 1.2703 14.234 0.26676 19.401l9.5313 17.31z"/>
 </g>
 <g stroke="#000">
  <path d="m71.617 172.58c8.1197-0.73981 8.4089-5.473 8.4089-5.473l12.254-54.498-16.755 9.9985-10.27 46.237s0.89669 4.2328 6.3617 3.7349z" fill="#ffe785" stroke-width=".41537"/>
  <path d="m76.529 123.27 14.321 3.3921 0.04572 0.27168c1.54e-4 9.3e-4 0.0063 0.0679 0.0063 0.081 1.69e-4 0.013 7.76e-4 0.0198 7.76e-4 0.0277-4.11e-4 0.0155-7.76e-4 0.0283-0.0015 0.0426-0.0015 0.0287-0.0046 0.063-8e-3 0.1055-7e-3 0.0852-0.01537 0.20391-0.02841 0.35175-0.02585 0.29566-0.0638 0.71009-0.11027 1.2093-0.09287 0.99847-0.21954 2.3323-0.3503 3.7044-0.26149 2.7442-0.54128 5.6551-0.59527 6.314-0.62268 7.5991-2.521 22.049-2.521 22.049l7.77e-4 -0.024s-4.3872 0.22324-5.4287 1.6136c-1.0414 1.3903-2.2837 7.9919-6.7531 8.8919-3.5897 0.72291-5.9069 0.81518-6.961-0.74924-0.64203-0.8471-1.2028-1.6665-1.2157-2.9606zm0.57312 0.98303-9.4812 43.327c-0.0086 0.723 0.11744 1.1614 1.0353 2.4203 0.93884 1.2877 5.0903 0.79479 6.492 0.47165 3.4062-0.78524 5.3152-7.4316 6.2072-8.6223 0.8919-1.1907 5.2522-1.1054 5.2522-1.1054l7.77e-4 -0.013 7.76e-4 -0.0112s1.9-14.467 2.5199-22.032c0.05721-0.69837 0.33347-3.585 0.59494-6.3288 0.13073-1.3719 0.25772-2.704 0.35039-3.7007 0.04634-0.49833 0.08483-0.91363 0.11035-1.2056 0.0031-0.0431 0.0046-0.0624 0.0087-0.1z" color="#000000" color-rendering="auto" dominant-baseline="auto" fill="#ffde5c" image-rendering="auto" shape-rendering="auto" solid-color="#000000" stroke-width=".1533" style="font-feature-settings:normal;font-variant-alternates:normal;font-variant-caps:normal;font-variant-ligatures:normal;font-variant-numeric:normal;font-variant-position:normal;isolation:auto;mix-blend-mode:normal;shape-padding:0;text-decoration-color:#000000;text-decoration-line:none;text-decoration-style:solid;text-indent:0;text-orientation:mixed;text-transform:none;white-space:normal"/>
  <path d="m79.537 118.66c0.14225 0.92168-4.9162 39.403-4.9162 39.403s-0.50883 6.4233-9.6964 5.5112c-8.9472-0.88823-9.4383-7.1188-9.4383-7.1188l8.0297-53.309z" fill="#ffe680" stroke-width=".39979"/>
  <g fill="#fd5" shape-rendering="auto">
   <path d="m45.411 113.87 15.385 2.1268-6.7982 39.227-0.0031 0.0136s-0.07844 0.31394-0.30171 0.71636-0.59931 0.9213-1.2083 1.4122c-1.218 0.9818-3.3545 1.8395-7.0256 1.5267-3.3559-0.28594-5.2479-1.4783-6.2888-2.6363s-1.228-2.3149-1.228-2.3149l-0.01064-0.0736zm0.53822 0.85141-7.3182 39.138c0.01094 0.0701 0.14421 0.87347 1.0203 1.8482 0.91494 1.0179 2.6258 2.1419 5.8597 2.4175 3.5585 0.3032 5.5121-0.52663 6.5768-1.3848 0.53236-0.42912 0.84548-0.86729 1.0264-1.1934 0.18092-0.32608 0.22135-0.50949 0.22135-0.50949l6.6496-38.377z" color="#000000" color-rendering="auto" dominant-baseline="auto" image-rendering="auto" solid-color="#000000" stroke-width=".14755" style="font-feature-settings:normal;font-variant-alternates:normal;font-variant-caps:normal;font-variant-ligatures:normal;font-variant-numeric:normal;font-variant-position:normal;isolation:auto;mix-blend-mode:normal;shape-padding:0;text-decoration-color:#000000;text-decoration-line:none;text-decoration-style:solid;text-indent:0;text-orientation:mixed;text-transform:none;white-space:normal"/>
   <path d="m44.353 109.15-9.0936 44.147 0.0063-0.041s-0.03983 0.31447-0.20922 0.71294c-0.16941 0.39848-0.47436 0.91717-1.0021 1.4293-1.0556 1.0242-2.9889 2.0069-6.501 2.079-2.3922 0.0491-3.7634-0.65678-4.5225-1.431-0.37955-0.38711-0.60236-0.78526-0.72924-1.0925-0.12688-0.30723-0.16374-0.55735-0.16374-0.55735l-0.0091-0.077 6.7527-37.808zm-1.1128 1.4891-13.672 6.5054-6.639 37.17c0.0039 0.0269 0.01023 0.0841 0.0849 0.26501 0.0886 0.21453 0.2495 0.50975 0.54428 0.81038 0.58955 0.60129 1.7277 1.2481 3.9798 1.2019 3.3883-0.0697 5.1203-1.0049 6.0053-1.8636 0.44247-0.42934 0.67803-0.8433 0.80505-1.1421 0.12702-0.29875 0.13948-0.44622 0.13948-0.44622l0.0031-0.0205z" color="#000000" color-rendering="auto" dominant-baseline="auto" image-rendering="auto" solid-color="#000000" stroke-width=".16486" style="font-feature-settings:normal;font-variant-alternates:normal;font-variant-caps:normal;font-variant-ligatures:normal;font-variant-numeric:normal;font-variant-position:normal;isolation:auto;mix-blend-mode:normal;shape-padding:0;text-decoration-color:#000000;text-decoration-line:none;text-decoration-style:solid;text-indent:0;text-orientation:mixed;text-transform:none;white-space:normal"/>
   <path d="m27.248 120.36c0.91973-3.8063 1.0453-3.9337 0.2728 0.0996l-6.5634 34.645-0.03035 0.0615c-0.42513 0.83993-0.83383 1.4461-1.3539 1.7251-0.26002 0.1395-0.58822 0.17032-0.86114 0.0171-0.19711-0.11219-0.29728-0.21178-0.41541-0.43768-0.0239-0.0539 0.0089-0.22351 0.0288-0.32484l0.18648-0.76763c0.28785 0.17021 0.20829 0.51954 0.56247 0.70951 0.03509 0.0196 0.04797 0.0291 0.1501-0.0257 0.19866-0.10659 0.59126-0.58429 0.96878-1.313z" color="#000000" color-rendering="auto" dominant-baseline="auto" image-rendering="auto" solid-color="#000000" stroke-width=".122" style="font-feature-settings:normal;font-variant-alternates:normal;font-variant-caps:normal;font-variant-ligatures:normal;font-variant-numeric:normal;font-variant-position:normal;isolation:auto;mix-blend-mode:normal;shape-padding:0;text-decoration-color:#000000;text-decoration-line:none;text-decoration-style:solid;text-indent:0;text-orientation:mixed;text-transform:none;white-space:normal"/>
   <path d="m63.968 114.12 14.238 3.8774 0.03944 0.27314c1.33e-4 9.2e-4 0.0046 0.0681 0.0046 0.0811-1.24e-4 0.013 3.89e-4 0.0199 0 0.0277-7.76e-4 0.0155-0.0015 0.0282-0.0031 0.0425-0.0023 0.0286-0.0063 0.0627-0.01064 0.10518-0.0085 0.0849-0.02011 0.20331-0.0364 0.35064-0.0326 0.29468-0.08012 0.70766-0.13797 1.2051-0.11569 0.99493-0.27295 2.3239-0.43512 3.691-0.32433 2.7342-0.67077 5.6345-0.73985 6.2914-0.79672 7.575-3.6356 30.896-3.6356 30.896l0.0015-0.0241s-0.11572 1.5062-1.1886 2.8606c-1.0729 1.3544-3.0947 2.5511-6.7512 2.1592-3.5613-0.38163-5.5054-1.9338-6.5344-3.4271s-1.1431-2.9473-1.1431-2.9473l-0.0046-0.0535zm0.55035 1.0021-6.1963 44.42c4e-3 0.0506 0.09075 1.1649 0.9794 2.4545 0.90895 1.3191 2.6484 2.7668 6.072 3.1337 3.5161 0.3768 5.2805-0.74831 6.1993-1.9083 0.91887-1.16 1.0006-2.3586 1.0006-2.3586l0.0015-0.013 0.0015-0.0111s2.8409-23.338 3.6341-30.879c0.0732-0.69615 0.41556-3.5723 0.73985-6.3061 0.16214-1.3669 0.31963-2.6942 0.43512-3.6873 0.05775-0.49656 0.10574-0.91039 0.13796-1.2014 0.0046-0.0429 0.0063-0.0622 0.01064-0.0996z" color="#000000" color-rendering="auto" dominant-baseline="auto" image-rendering="auto" solid-color="#000000" stroke-width=".1533" style="font-feature-settings:normal;font-variant-alternates:normal;font-variant-caps:normal;font-variant-ligatures:normal;font-variant-numeric:normal;font-variant-position:normal;isolation:auto;mix-blend-mode:normal;shape-padding:0;text-decoration-color:#000000;text-decoration-line:none;text-decoration-style:solid;text-indent:0;text-orientation:mixed;text-transform:none;white-space:normal"/>
  </g>
 </g>
 <path d="m76.426 128.4c-16.1-1.2296-33.234-10.011-47.593-10.762-1.9748 6.3362-3.758 9.1306-5.1455 15.3 1.7759 0.0216 8.4934 0.40886 12.38-0.0287 4.2904 1.1116 5.1862 0.73629 9.8093 1.6875 13.02 2.6788 22.542 11.673 28.807 14.986 1.9303 1.0207 6.666-2.4449 6.8041-3.6851 1.5544-13.951-2.9581-15.936-5.0597-17.498z" fill-rule="evenodd" opacity=".147" stroke-width="1.5758"/>
 <g fill="#fd5" shape-rendering="auto" stroke="#000">
  <path d="m162.62 113.35-19.259 3.5756-0.0615 0.28638c-2.1e-4 9.2e-4 -8e-3 0.0716-8e-3 0.0853-2.3e-4 0.0137-1e-3 0.021-1e-3 0.0292 5.6e-4 0.0164 1e-3 0.0298 2e-3 0.045 2e-3 0.0303 6e-3 0.0664 0.0108 0.11124 9e-3 0.0898 0.0207 0.21494 0.0382 0.37079 0.0348 0.31166 0.0858 0.74852 0.1483 1.2748 0.12488 1.0525 0.29525 2.4585 0.47109 3.9049 0.35166 2.8927 0.72793 5.9611 0.80053 6.6558 0.83739 8.0103 3.3903 23.242 3.3903 23.242l-1e-3 -0.0254s0.10909 1.5912 1.5096 3.0568c1.4005 1.4656 3.0711 8.4244 9.0816 9.3732 4.8275 0.76204 7.9437 0.85931 9.3612-0.78979 0.86341-0.89293 1.6175-1.7567 1.6349-3.1208zm-0.77073 1.0362 6.9596 47.027c0.0115 0.76213-0.15793 1.2242-1.3923 2.5513-1.2626 1.3574-6.8456 0.8378-8.7306 0.49717-4.5807-0.82773-7.148-7.8338-8.3475-9.0889-1.1994-1.2552-1.2724-2.5211-1.2724-2.5211l-1e-3 -0.0137-1e-3 -0.0118s-2.5551-15.25-3.3888-23.224c-0.0769-0.73616-0.44846-3.779-0.80008-6.6713-0.1758-1.4461-0.34658-2.8504-0.4712-3.901-0.0623-0.5253-0.11408-0.96307-0.1484-1.2709-4e-3 -0.0454-6e-3 -0.0657-0.0116-0.10538z" color="#000000" color-rendering="auto" dominant-baseline="auto" image-rendering="auto" solid-color="#000000" stroke-width=".18252" style="font-feature-settings:normal;font-variant-alternates:normal;font-variant-caps:normal;font-variant-ligatures:normal;font-variant-numeric:normal;font-variant-position:normal;isolation:auto;mix-blend-mode:normal;shape-padding:0;text-decoration-color:#000000;text-decoration-line:none;text-decoration-style:solid;text-indent:0;text-orientation:mixed;text-transform:none;white-space:normal"/>
  <path d="m210.92 110.79-20.69 2.4201 9.1423 44.635 4e-3 0.0155s0.10548 0.35721 0.40574 0.81511 0.80596 1.0483 1.625 1.6069c1.638 1.1172 4.5112 2.0932 9.4481 1.7372 4.5131-0.32538 7.0574-1.6821 8.4573-2.9998 1.3998-1.3177 1.6515-2.6341 1.6515-2.6341l0.0143-0.0837zm-0.7238 0.9688 9.8416 44.534c-0.0147 0.0798-0.19394 0.9939-1.3722 2.103-1.2304 1.1582-3.5312 2.4372-7.8803 2.7508-4.7855 0.345-7.4128-0.59923-8.8446-1.5758-0.71593-0.48828-1.137-0.98685-1.3803-1.3579-0.2433-0.37104-0.29768-0.57973-0.29768-0.57973l-8.9425-43.668z" color="#000000" color-rendering="auto" dominant-baseline="auto" image-rendering="auto" solid-color="#000000" stroke-width=".18252" style="font-feature-settings:normal;font-variant-alternates:normal;font-variant-caps:normal;font-variant-ligatures:normal;font-variant-numeric:normal;font-variant-position:normal;isolation:auto;mix-blend-mode:normal;shape-padding:0;text-decoration-color:#000000;text-decoration-line:none;text-decoration-style:solid;text-indent:0;text-orientation:mixed;text-transform:none;white-space:normal"/>
  <path d="m212.34 105.43 12.229 50.234-8e-3 -0.0467s0.0536 0.35782 0.28136 0.81122c0.22782 0.45342 0.63792 1.0436 1.3477 1.6264 1.4196 1.1654 4.0195 2.2836 8.7427 2.3656 3.2171 0.0559 5.0611-0.74733 6.082-1.6283 0.51043-0.44048 0.81007-0.89351 0.9807-1.2431 0.17062-0.34959 0.2202-0.6342 0.2202-0.6342l0.0122-0.0875-9.0812-43.02zm1.4965 1.6944 18.387 7.4022 8.9282 42.295c-5e-3 0.0305-0.0138 0.0957-0.11418 0.30153-0.11914 0.24412-0.33553 0.58003-0.73195 0.92212-0.79284 0.68419-2.3234 1.4202-5.352 1.3676-4.5566-0.0792-6.8859-1.1434-8.076-2.1205-0.59504-0.48853-0.91183-0.95956-1.0826-1.2995-0.17081-0.33994-0.18758-0.50774-0.18758-0.50774l-4e-3 -0.0233z" color="#000000" color-rendering="auto" dominant-baseline="auto" image-rendering="auto" solid-color="#000000" stroke-width=".20394" style="font-feature-settings:normal;font-variant-alternates:normal;font-variant-caps:normal;font-variant-ligatures:normal;font-variant-numeric:normal;font-variant-position:normal;isolation:auto;mix-blend-mode:normal;shape-padding:0;text-decoration-color:#000000;text-decoration-line:none;text-decoration-style:solid;text-indent:0;text-orientation:mixed;text-transform:none;white-space:normal"/>
  <path d="m235.34 118.18c-1.2369-4.3311-1.4058-4.476-0.36686 0.11333l8.9507 40.254 0.0408 0.0701c0.57172 0.95572 1.1214 1.6454 1.8207 1.9629 0.34968 0.15872 0.79105 0.19379 1.1581 0.0194 0.26508-0.12766 0.39978-0.24098 0.55864-0.49802 0.0322-0.0613-0.0119-0.25434-0.0387-0.36963l-0.25079-0.87347c-0.38711 0.19369-0.28011 0.59117-0.75643 0.80733-0.0472 0.0224-0.0645 0.0332-0.20185-0.0291-0.26715-0.12127-0.79514-0.66482-1.3028-1.4941z" color="#000000" color-rendering="auto" dominant-baseline="auto" image-rendering="auto" solid-color="#000000" stroke-width=".15091" style="font-feature-settings:normal;font-variant-alternates:normal;font-variant-caps:normal;font-variant-ligatures:normal;font-variant-numeric:normal;font-variant-position:normal;isolation:auto;mix-blend-mode:normal;shape-padding:0;text-decoration-color:#000000;text-decoration-line:none;text-decoration-style:solid;text-indent:0;text-orientation:mixed;text-transform:none;white-space:normal"/>
 </g>
 <g transform="matrix(.96063 .058286 -.064072 1.0669 5.8841 -7.7633)">
  <path d="m0.96742 77.492 14.488 6.7429 10.377 4.8182 1.5898 2.4394 6.5406-2.2607-10.9-6.6115c-5.785-4.2306-17.48-9.3921-22.096-5.1283z" fill="#ff8080" stroke="#000" stroke-width=".8"/>
  <path d="m127.24 89.41-20.054 17.244-12.732 18.258-26.043-20.581 27.339-48.067 24.48 13.223z" fill="#ff8080" stroke="#000" stroke-width=".8"/>
  <path d="m127.66 89.294s-13.162 10.938-20.186 17.123c-3.9921 3.5149-12.6 18.379-12.6 18.379l-26.043-20.581 27.339-48.067 24.48 13.223z" filter="url(#filter7966)" opacity=".223"/>
  <path d="m127.24 89.41s-14.489 3.1618-21.813 8.9891c-7.4848 5.9549-10.973 26.513-10.973 26.513l-26.043-20.581 27.339-48.067 24.48 13.223z" filter="url(#filter7970)" opacity=".164"/>
  <g stroke="#000">
   <path d="m107.66 175.64-1.5162-30.577-4.8014-28.555c-20.788-13.879-23.722 0.18922-22.996 2.0216-0.50541 1.0108-2.527 20.722-2.527 20.722l9.0973 8.8446 3.0324-0.2527c5.8688 11.721 10.111 29.134 19.711 27.797z" fill="url(#linearGradient5510)" stroke-width=".7"/>
  </g>
  <path d="m85.783 63.59c-4.0674 1.0815 9.2456 31.45 10.721 32.521 1.2107 0.87879-1.7869 11.793-1.7869 11.793l-1.7869 8.7557-33.236 14.652c-10.048-10.451-13.06-9.1346-35.358-7.5049l2.3006-5.6734c1.799-1.9947 1.9497-3.7268 2.0549-5.7047l-0.65382-0.96595c-0.49034-1.3256-1.5388-2.9074 0.31308-4.7822 1.8304-0.62485 2.3731-1.9023 3.6465-3.155-3.6764-3.7681-2.2642-9.2731-1.0721-10.989 1.9547-0.37722 2.6139-1.7509 3.0377-3.3057-2.2359-0.44752-4.6039-0.78706-8.1303-0.17868-0.06304-2.3007-0.1467-4.5976-2.7697-6.4328-7.6648-3.0627-12.566-4.8813-22.248-5.2537 9.7029-6.7511 13.742-8.8424 21.174-11.524 0.88252-0.75889 1.066-1.7974 0.7581-3.0324 15.576-1.6426 15.499-12.762 32.725-14.404 10.9-5.8289 19.594-5.0405 28.935-6.1912-4.5959 7.584-0.86043 14.412 1.3758 21.376z" fill="url(#linearGradient5444)" stroke="#000" stroke-width=".7"/>
  <path d="m86.2 164.6c-4.955 5.5595-6.3817 6.1979-12.214 11-24.647-33.604-0.31337-53.052-29.703-52.836-0.35032-2.1056 7.7541 1.9417-2.72-7.7587 3.1398-9.4514 0.63683-6.4512-9.6387-11.111 2.3505 1.0156 7.9202 1.4797 8.5122 1.127 10.221-0.0788 13.288-1.9174 8.9777-25.418 2.7634-1.0975 6.4176-1.028 11.262 0.84654 5.746 10.921-3.0354 20.779 25.561 25.523 4.3579 4.2759 7.9714 14.249 6.5153 23.977 0.47828-2.3041-10.961 23.704-6.5533 34.649z" opacity=".193"/>
  <path d="m92.93 116.66 7.1475-10.721c1.9919-23.714-6.6097-34.837 0.8919-40.922 8.6778-7.0386 14.578 4.8466 23.231 13.582l4.6459 6.7902c0.8292-1.1433 1.2365-3.6862 3.9312-3.0377-12.7-23.027-16.575-18.091-24.354-27.772-8.137-1.6541-12.023-9.0943-19.106-12.651-1.2973-0.38767-3.5898 0.13674-4.8221 0.3134-7.8039 7.3096-0.87321 18.565 1.2875 21.349-9.7819 6.3681 3.657 22.359 10.721 32.521-3.8349 8.4166-2.8093 15.694-3.5738 20.549z" fill="#faa" stroke="#000" stroke-width=".8"/>
  <path d="m100.08 105.94c2.0515-14.318-5.1226-21.99-3.3057-33.951 2.1143-8.963 7.1128-9.867 10.318-9.5662 7.3937 0.69388 16.525 13.256 21.757 22.968 1.2348-1.2905-1.9113 1.675-1.6083 4.0205-2.6896-3.8737-14.408-25.477-22.578-21.379-7.8883 3.9565-1.3898 16.738-0.51754 25.578-0.21716 3.0343-1.4802 8.7111-4.0651 12.33z" fill="#ff8080" stroke="#000" stroke-width=".8"/>
 </g>
 <path d="m84.049 65.128c-9.9065 4.8615-13.434 6.2423-22.429 10.983-10.975 12.704-23.448 10.549-35.562 15.481l-0.9063-2.8784-23.442-13.886c18.63-10.823 23.199-9.6015 22.347-14.142 14.479-2.4041 18.461-13.402 31.893-13.324 9.4821-5.4435 18.729-4.5031 28.043-5.3926-7.7248 8.1126-2.8343 15.572 0.0557 23.159z" fill-opacity=".98492" opacity=".026852" stroke-width="1.0142"/>
 <path d="m23.986 60.749c-0.0071 0.14417-0.01718 0.3102-0.05769 0.49044-0.01711 0.07611-0.03622 0.1552-0.05715 0.23712-0.07039 0.2755-0.16147 0.58366-0.26651 0.91924-0.21017 0.67145-0.47663 1.4539-0.7464 2.3084-0.53628 1.6985-1.0966 3.7143-1.2225 5.6774-1e-3 0.0153-2e-3 0.03071-3e-3 0.04619-0.03129 0.49528-0.04926 1.4361 0.03491 3.1596 0.05606 1.1478 0.14712 2.4369 0.25728 3.7577 0.21677 2.5991 0.45975 4.7457 0.42635 4.4445l0.78734-0.11787c2.23e-4 0.0019-0.20487-1.8031-0.42748-4.4185-0.11206-1.3164-0.20508-2.5886-0.26615-3.7251-0.09231-1.7179-0.08306-2.5932-0.07338-3.0715 2.93e-4 -0.0145 5.78e-4 -0.0289 9.55e-4 -0.0432 0.04874-1.8635 0.45264-3.8357 0.85556-5.5895 0.19983-0.86983 0.39825-1.6814 0.54473-2.3758 0.07341-0.348 0.13404-0.66778 0.17584-0.95314 0.01242-0.0848 0.02317-0.16653 0.0321-0.24502 0.02109-0.18543 0.0512-0.3502 0.05851-0.49811z" opacity=".959" stroke-width="1.0142"/>
 <path d="m50.559 84.757c-5.131 2.0514-12.017 3.0712-17.766 4.6622" fill="none" opacity=".959" stroke="#000" stroke-width=".40569"/>
 <g transform="matrix(.96063 .058286 -.064072 1.0669 5.8841 -7.7633)">
  <path d="m74.287 103.71c2.0277 0.33966 4.0628 0.0659 5.9701-0.37758 1.9117-0.44448 3.7142-1.062 5.3126-1.4406 0.18636-0.0441 0.37329-0.0859 0.56074-0.12513-0.15794-0.10705-0.31503-0.21536-0.47124-0.32491-2.033-1.4258-4.0054-3.1242-5.9285-5.0345-1.9783-1.9652-3.892-4.1611-5.7667-6.5076-2.9604-3.7054-5.8232-7.7855-8.7016-11.939-0.71676-1.0342-1.4687-2.0483-2.2019-3.0778 0 0-0.02427-0.03409-0.02427-0.03409-0.0048-0.0045-0.0096-0.0089-0.01443-0.01343-0.04359-0.04079-0.08611-0.08265-0.12694-0.12612-0.98325-1.0465-1.7572-2.03-2.5756-2.8017-1.3161-1.2409-2.5857-1.8889-3.8332-2.2913-1.778-3.9302-1.9768-6.9619-1.9908-7.0939-0.05234-0.49339-0.16727-1.7214-0.14344-3.243 0.03699-2.3617 0.19796-3.8156 1.4325-10.82l-0.62413-0.11407c-1.3285 7.0178-1.5252 8.4673-1.5983 10.916-0.04925 1.6515 0.06412 2.7556 0.13467 3.3508 0.0142 0.1198 0.27458 3.3813 2.1662 7.477 0.02432 0.05265 0.04879 0.10524 0.07341 0.15775 0.05414 0.01542 0.10815 0.03128 0.16203 0.04758 1.2054 0.36472 2.4228 0.96072 3.6943 2.1695 0.76728 0.72944 1.5109 1.6873 2.5253 2.7833 0.03131 0.03383 0.06196 0.06838 0.09223 0.10342 0.70592 1.0435 1.3937 2.0986 2.1197 3.1233 2.9261 4.1303 5.9095 8.1483 8.9638 11.809 1.9341 2.3182 3.8972 4.4941 5.8955 6.4684 1.7989 1.7773 3.6364 3.3858 5.5266 4.7722-1.4943 0.34895-3.1224 0.82162-4.7994 1.1603-1.8873 0.38115-3.8167 0.5903-5.7108 0.29437z"/>
  <path d="m85.549 101.39c-1.8767-0.24375-3.3463-0.55235-3.5136-0.58707-0.41704-0.0865-0.49346-0.11069-0.74526-0.17669 0.16273 0.0427-1.3092-0.33361-2.4-0.64488-1.5563-0.44409-3.9959-1.1878-7.9764-2.7401-1.3724-0.53519-2.2552-0.86166-3.6276-1.3969l-0.35266 0.89933c1.2076 0.47356 2.4131 0.96169 3.6418 1.4023 4.0507 1.4525 6.5463 2.1251 8.136 2.5124 1.4228 0.3467 2.3127 0.50317 2.4566 0.52844 0.37861 0.0665 0.22004 0.0331 0.76098 0.14074 0.13368 0.0266 1.6899 0.35012 3.5515 0.5919z"/>
  <path d="m49.204 67.301c-1.0878 0.42926 0.01203 1.9257 0.80833 1.5146 0.63936-0.32999 0.53099-2.0432-0.80833-1.5146zm-6.9279 3.1849c-0.82576 0.4148-0.22961 1.68 0.61512 1.3128 0.94564-0.41102 0.38381-1.8146-0.61512-1.3128zm13.363-1.0136c-5.0805 1.2787-10.226 7.001-18.275 8.5266-2.9861-1.785-4.2339-3.883-4.2339-3.883s1.3587-3.7665 5.2433-6.6387c6.973-3.4082 9.6826-5.4525 15.055-7.9201 0.13884 3.8635 0.78817 6.655 2.2103 9.9153z" fill-rule="evenodd" opacity=".149"/>
 </g>
 <path d="m49.306 67.47c-1.0725 0.39458-0.11183 2.0553 0.67946 1.6631 0.63533-0.31481 0.641-2.149-0.67946-1.6631zm-6.8592 2.9942c-0.81983 0.39443-0.32821 1.779 0.50679 1.4365 0.93475-0.38341 0.48496-1.9137-0.50679-1.4365zm12.902-0.30256c-4.9624 1.0682-10.272 6.8735-18.102 8.0321-2.7542-2.0785-3.8184-4.3896-3.8184-4.3896s1.5465-3.9394 5.4622-6.7774c6.9169-3.2299 9.6508-5.253 14.97-7.5726-0.11417 4.1302 0.33074 7.1463 1.488 10.708z" fill="#ffe680" fill-rule="evenodd" opacity=".959" stroke="#000" stroke-width=".50711"/>
 <g transform="matrix(.96063 .058286 -.064072 1.0669 5.8841 -7.7633)" fill="none" stroke="#000">
  <path d="m85.783 63.59-22.926 11.739" stroke-width=".4"/>
  <path d="m63.106 75.204c-3.3 2.7437-6.8379 6.5745-11.007 8.6666l3.0824 2.9484" stroke-width=".4"/>
  <path d="m52.314 87.702c-2.1269 0.86436-4.2538 0.6055-6.3808 0.31589-3.3864-0.10573-5.9696 1.7964-8.7183 3.2852 2.8406 0.95556 5.4074 1.3663 5.9385 3.5378 0.37907 0.12635 6.0017 0.12635 6.0017 0.12635" stroke-width=".5"/>
  <path d="m107.29 168.6-2.5996-8.1211-2.8429-12.003c-2.5887-0.82717-5.2495-1.366-7.5179-3.4747l-1.9585-0.88447c-0.35257 3.7444-1.8799 4.868-4.4223 3.7274" stroke-width=".8"/>
  <path d="m101.84 148.48 1.5162-7.4548-0.8213-2.4639-7.0125-7.4548-1.074-6.1912" stroke-width=".8"/>
  <path d="m31.997 103.53c3.74 2.6746 16.728 1.0604 21.294 0.5008" stroke-width=".6"/>
 </g>
 <g transform="matrix(.96063 .058286 -.064072 1.0669 5.8841 -7.7633)" fill="#ff8080">
  <path d="m93.17 116.8c1.9987-4.1139 4.3043-7.4607 6.5381-10.987 2.5204-16.176-9.6771-29.967 0.48481-41.54 8.6285-6.9106 16.721 2.5706 24.756 13.737l3.9113 6.5734c0.46592-0.8542 1.0855-2.7622 3.2298-2.7281-9.8473-19.883-14.88-16.543-23.785-26.98-7.8822-1.2574-12.259-8.942-19.186-12.578-1.0377-0.25508-3.1542-0.0068-4.5025 0.26928-5.9032 6.229-3.2238 13.985 1.5628 20.979-10.114 6.3305 4.3282 23.139 10.784 32.595-3.8349 8.0242-2.6374 15.366-3.7925 20.659z" opacity=".723"/>
  <path d="m92.979 116.41 6.4777-9.9558c3.6221-8.7936-7.7932-26.404-3.9967-60.917-3.8347-1.8491-4.8472-2.6598-6.4036-3.2683-0.97515-0.18538-2.202-0.08981-4.4404 0.29793-6.4089 7.9389-2.3676 14.529 1.5628 20.979-10.565 7.1585 5.5648 21.406 10.374 32.314-3.8349 8.4166-2.8093 15.694-3.5738 20.549z" opacity=".203"/>
 </g>
 <path d="m97.406 55.512c-0.05065-0.99145 1.4563-3.4486-0.0048-4.2859-0.01588-5.7053 0.42193-9.8287-2.1973-16.705 1.1428 0.26659 3.0684 3.3746 3.4206 6.4168 2.3458 11.432-0.78346 9.7854-1.2186 14.574z" fill="#ffb380" stroke="#000" stroke-width=".3"/>
 <g transform="matrix(.96063 .058286 -.064072 1.0669 5.8841 -7.7633)" fill-opacity=".35176" fill-rule="evenodd" stroke="#000" stroke-linecap="round" stroke-linejoin="round">
  <ellipse transform="matrix(.70756 -.70665 .1442 .98955 0 0)" cx="15.896" cy="121.09" rx="1.6245" ry="1.739" stroke-width=".55429" style="paint-order:markers fill stroke"/>
  <ellipse transform="rotate(21.931)" cx="65.003" cy="76.277" rx="1.6605" ry="2.4258" stroke-width=".66189" style="paint-order:markers fill stroke"/>
 </g>
 <path d="m49.649 72.013c-0.59332-1.1111 3.3686-3.0435 3.2638-2.9987-0.51319-0.29795-3.7505 2.3789-3.6519 2.4619-0.13519-0.2812 1.9335-2.188 1.9908-2.0079-0.23406-0.14043-1.6276 0.78881-2.2138 1.2264 1.7613-1.2594 3.07-2.3895 4.8637-3.4024-1.7285 0.61754-3.9084 3.1954-4.8342 2.1624-1.9722-0.63296-0.05771-2.2025 0.35726-3.5629-0.76107 1.3738-1.2803 2.3931-2.2018 3.4334-0.19864 0.22423 0.0069 1.8721-1.5146 0.23871-0.02214 0.18112-0.08673 0.36111-0.21408 1.3709-1.1089 0.82053-3.0158 2.0668-5.0713 3.2368l2.7155-1.0354-2.7613 3.0413c2.0428-1.1299 3.5187-2.6037 6.495-3.1674-2.724 0.96861-4.9032 1.8635-6.7545 3.2693 2.0766-0.80807 3.8962-2.2176 6.9019-2.6582z" fill="#fd5" stroke-width="1.2901"/>
 <path d="m41.44 66.354c1.0126 0.7776-4.1427 3.3801 1.0126 0.7776 0.13519 0.2812-5.3462 3.492-5.4036 3.3119 0.23406 0.14043 6.0267-2.2122 5.6265-2.5303-1.071 1.5191-3.068 2.3903-4.8637 3.4024 1.7285-0.61754 3.6294-1.0828 4.8342-2.1624-1.1441 1.0861-2.8381 2.0269-4.7613 2.907 0.9656-0.07403 3.0839-0.99205 4.9953-2.4365 3.9018-2.9488 1.4638 1.7824 3.3604-2.2442-1.2985-0.44143 1.5456-1.6343 2.3345-1.908l2.7613-3.0413c-2.0428 1.1299-3.5187 2.6037-6.495 3.1674 2.724-0.96861 4.3446-2.0615 5.6257-3.6033-1.4339 1.5948-3.392 2.311-6.3977 2.7516z" fill="#fd5" stroke-width="1.2901"/>
 <path d="m101.07 65.468c6.0174 1.4473 8.2176-0.29564 22.894 25.649-5.3521-11.908-10.763-23.59-19.571-25.657-1.039-0.27656-2.3356 0.10123-3.3227 0.0069z" fill-rule="evenodd" opacity=".155" stroke-width="1.0142"/>
 <g transform="matrix(.96063 .058286 -.064072 1.0669 5.8841 -7.7633)">
  <path d="m84.099 42.526c-7.296 7.4281 2.0379 22.051 1.2372 20.896-14.888-19.724 4.2292-20.946-20.814-18.194 7.0132-2.2727 9.14-2.3649 19.577-2.7018z" fill-rule="evenodd" opacity=".147"/>
  <path d="m22.544 65.432c-1.4603 4.8642-1.407 10.87 0.48614 16.882l-7.513-2.5191c3.9571-1.7274 4.6666-8.4892 7.0269-14.363z" fill="#000009" opacity=".076"/>
 </g>
 <path d="m98.271 178.4-1.9769-8.8161-1.9619-12.972c-2.4338-1.0334-4.9553-1.7634-6.9993-4.1454l-1.8247-1.0578c-0.5786 3.9744-2.1178 5.0842-4.487 3.7191 16.435-1.7477 14.195 21.508 17.248 30.995z" fill="#000005" opacity=".11316" stroke-width="1.0142"/>
 <g transform="matrix(.95055 .16604 -.14513 1.0568 9.5576 -37.366)">
  <path d="m149.89 153.41c-2.3015-2.1566-15.482-17.814-15.482-17.814-4.0017 3.7288 0.66978 23.728-1.132 29.336 1.7148 8.7198 6.4954 22.18 10.974 29.472 13.405-17.152 10.036-36.222 5.6399-40.993z" fill="url(#linearGradient5508)" stroke="#000" stroke-width=".7"/>
 </g>
 <path d="m185.96 110.16-19.147 4.0873-0.053 0.28791c-1.8e-4 9.2e-4 -6e-3 0.0718-6e-3 0.0856 1.7e-4 0.0137-5.2e-4 0.021 0 0.0292 1e-3 0.0164 2e-3 0.0297 4e-3 0.0447 3e-3 0.0302 8e-3 0.0661 0.0143 0.1109 0.0114 0.0896 0.027 0.2143 0.049 0.36962 0.0438 0.31062 0.10775 0.74595 0.18554 1.2703 0.15559 1.0488 0.36707 2.4497 0.58516 3.8908 0.43617 2.8822 0.90206 5.9394 0.99497 6.6318 1.0714 7.9849 4.8892 32.568 4.8892 32.568l-2e-3 -0.0253s0.15562 1.5877 1.5985 3.0154c1.4429 1.4277 4.1618 2.6892 9.0791 2.2761 4.7893-0.40229 7.4037-2.0384 8.7876-3.6126 1.3838-1.5742 1.5373-3.1068 1.5373-3.1068l6e-3 -0.0564zm-0.74012 1.0563 8.3329 46.824c-5e-3 0.0533-0.12204 1.228-1.3171 2.5874-1.2224 1.3905-3.5616 2.9165-8.1657 3.3033-4.7285 0.39719-7.1012-0.78881-8.337-2.0115-1.2357-1.2227-1.3456-2.4862-1.3456-2.4862l-2e-3 -0.0136-2e-3 -0.0117s-3.8205-24.601-4.8872-32.55c-0.0984-0.73383-0.55886-3.7656-0.99497-6.6474-0.21805-1.4409-0.42985-2.84-0.58516-3.8869-0.0777-0.52344-0.1422-0.95966-0.18553-1.2664-6e-3 -0.0452-8e-3 -0.0656-0.0143-0.10505z" color="#000000" color-rendering="auto" dominant-baseline="auto" fill="#fd5" image-rendering="auto" shape-rendering="auto" solid-color="#000000" stroke="#000" stroke-width=".18252" style="font-feature-settings:normal;font-variant-alternates:normal;font-variant-caps:normal;font-variant-ligatures:normal;font-variant-numeric:normal;font-variant-position:normal;isolation:auto;mix-blend-mode:normal;shape-padding:0;text-decoration-color:#000000;text-decoration-line:none;text-decoration-style:solid;text-indent:0;text-orientation:mixed;text-transform:none;white-space:normal"/>
 <path d="m166.49 118.84c21.651-1.3991 47.325-12.676 66.636-13.53 1.0666 9.6576 2.4216 11.674 4.2875 18.693-2.3882 0.0245-11.422 0.46523-16.649-0.0326-7.8756 2.1212-8.1565 3.382-11.612 6.0591-16.01-6.5209-31.894 9.1434-40.32 12.914-2.5959 1.1614-8.9645-2.782-9.1503-4.1931-2.0903-15.875 3.9782-18.133 6.8043-19.91z" fill-rule="evenodd" opacity=".147" stroke-width="1.9494"/>
 <path d="m164.01 37.439c-4.6179 10.399 1.5152 19.499-23.874 22.691 1.1013 12.465 1.6623 19.2-10.413 32.517 0.7454 19.024 8.3491 32.74 14.12 43.649 20.7-5.2069 38.338-21.878 63.121-11.801 3.3137-4.8636 7.0157-7.2133 10.847-8.7242 9.5119-0.34029 16.28 0.37493 25.419-0.62328-1.6036-9.1315-6.5547-14.725-5.944-19.961-5.0399-5.704-5.2513-10.275-6.3181-13.128 8.139-5.4191 7.1091-10.092 13.433-12.83 4.7932-2.4384 5.5777-3.5724 10.695-6.3733-12.684-5.8417-21.354-6.1172-23.14-11.847-22.606-9.3562-14.983-10.047-39.072-14.422z" fill="url(#linearGradient5442)" fill-rule="evenodd" stroke="#000" stroke-width=".70996"/>
 <path d="m116.24 185.03c-0.58744-8.3852-0.10471-17.253-1.7697-25.589 1.4292-2.5314 1.174-8.5927 1.0729-12.274 0.0309-2.3185 6.7172-4.3492 5.14-7.5376" fill="none" stroke="#000" stroke-width=".70996"/>
 <g transform="matrix(.95055 .16604 -.14513 1.0568 9.5576 -37.366)">
  <g>
   <path d="m160.61 93.51c0.14528-0.20507 0.28807-0.41107 0.42861-0.61787 1.1959-1.7597 2.0215-3.1618 2.7337-4.2525 1.5845-2.4264 2.6648-3.6373 3.4774-4.4466 2.5045-0.44864 5.3528-0.86148 8.5551-1.1496 3.4726-0.31248 7.4169-0.49496 12.978-0.4163 2.5078 0.03547 13.726 0.46555 19.939 0.24164l-0.0364-0.98053c-6.1743 0.23637-17.322-0.16375-19.891-0.19353-5.5911-0.06482-9.5665 0.12861-13.072 0.45178-3.2874 0.30307-6.209 0.73493-8.766 1.1991l-0.13466 0.02454c-0.0327 0.03193-0.0652 0.06397-0.0977 0.09613-0.86132 0.85371-2.0117 2.1165-3.6953 4.6875-0.72377 1.1053-1.556 2.5131-2.729 4.2362-0.13784 0.20251-0.27724 0.40392-0.4189 0.60387z"/>
   <path d="m240.73 45.668c-0.3729 0.01802-0.7798 0.1393-1.2141 0.341-0.43499 0.20203-0.90477 0.48813-1.4071 0.84392-0.40991 0.29031-0.8435 0.62844-1.3 1.0078-0.66365 0.55155-1.3737 1.1958-2.1221 1.9197-2.5262 2.4437-5.4945 5.8014-8.5796 9.5692-0.21277 0.25985-0.42609 0.52165-0.63987 0.78524-2.885 3.5572-5.8603 7.4355-8.7533 11.153-1.1832 1.5204-2.3528 3.0142-3.4975 4.449-1.8627 2.3348-3.6518 4.5163-5.3044 6.4174l0.62354 0.54203c1.6633-1.9135 3.4584-4.1067 5.3264-6.4438 1.1484-1.4368 2.3274-2.927 3.5198-4.4418 2.9166-3.705 5.9151-7.5583 8.7503-11.143-0.0219 0.02762 0.6491-0.81981 0.62725-0.79219 3.0177-3.8063 5.8258-7.268 8.2389-9.7845 0.71463-0.74527 1.3941-1.4071 2.0332-1.9696 0.43969-0.38702 0.86134-0.72454 1.2611-1.0095 0.49086-0.34996 0.94613-0.6189 1.3596-0.80365 0.41433-0.18512 0.77944-0.2825 1.0944-0.29772z"/>
   <path d="m171.9 97.821c11.937-5.6164 0.40929-0.1672 15.681-7.4927 11.687-5.6057 9.8964-4.7606 15.661-7.4729l-0.26276-0.55847c-5.7647 2.7123-3.9724 1.8719-15.742 7.3021-15.38 7.0962-3.8324 1.6885-15.77 7.305z"/>
  </g>
  <path d="m187.75 63.129c1.2131 0.91338 0.66014 2.6655-0.99785 1.8305-1.658-0.83502-0.21527-2.7439 0.99785-1.8305zm6.4857 1.4475c1.1732 0.57274 0.10322 2.5961-1.0258 2.071-0.93491-0.43484 0.0213-2.5614 1.0258-2.071zm-18.408 3.26c5.0806 1.2787 10.433 3.325 18.482 4.8506 5.0397-0.98145 8.5804-3.4872 8.5804-3.4872s0.0229-3.069-1.719-7.7269c-6.7944-1.7564-9.3138-2.0841-14.686-4.5517z" fill-rule="evenodd" opacity=".179"/>
 </g>
 <path d="m179.26 59.616c1.0205 1.1667 0.24064 2.9266-1.2142 1.7688-1.4548-1.1578 0.19362-2.9355 1.2142-1.7688zm5.9549 2.6066c1.0321 0.80008-0.27866 2.7607-1.2756 2.0183-0.82556-0.61478 0.39199-2.7034 1.2756-2.0183zm-18.097 0.0878c4.6438 2.1949 9.5606 5.5472 16.99 8.4959 4.9329-0.20044 8.6622-2.2607 8.6622-2.2607s0.46719-3.2396-0.51256-8.4513c-6.2035-2.9843-8.879-4.0214-13.628-7.5213-3.9719 3.8395-7.4308 6.8846-11.512 9.7372z" fill="#ffe680" fill-rule="evenodd" stroke="#000" stroke-width=".50711"/>
 <g transform="matrix(.95055 .16604 -.14513 1.0568 9.5576 -37.366)">
  <path d="m145.88 112.38c1.9371-4.6909 3.5364-8.5736 4.8581-11.856 2.3076-5.7316 3.5402-9.0098 4.4078-11.52 0.97848-2.8306 1.515-4.7772 1.8876-6.3067 0.51491-2.1138 0.87782-4.1587 1.135-5.6901 3.6016-1.1585 6.995-2.6387 10.22-4.5078 3.3239-1.9267 7.5454-4.8747 12.186-9.7927 4.9014-5.1938 9.224-11.228 16.645-23.375l-0.19068-0.11793c-7.5456 12.052-11.954 18.017-16.877 23.088-4.6614 4.8018-8.8759 7.6507-12.161 9.5013-3.2658 1.8395-6.7149 3.2954-10.356 4.4272-0.087 0.02702-0.17397 0.05385-0.26104 0.08047l-0.0486 0.27342c-0.27384 1.5353-0.66603 3.7011-1.2094 5.8869-0.37313 1.501-0.90844 3.4143-1.8865 6.2139-0.86967 2.4893-2.1023 5.7389-4.4213 11.463-1.3273 3.276-2.9183 7.1589-4.8551 11.849z"/>
  <path d="m214.06 76.078c1.4384-0.67667 2.9445-1.3032 4.4902-1.9245 2.7947-1.1233 5.7307-2.1945 8.6718-3.3683 4.5669-1.8226 9.1478-3.8934 13.234-6.8004 0.24376-0.17342 0.48552-0.34965 0.72522-0.52864l-0.89152 0.0472c0.15253-0.0081-0.59919 0.03169-0.44665 0.02361-2.6326 0.13871-5.4834 0.27728-8.1784 0.21073-1.9526-0.04821-3.8135-0.20394-5.4442-0.54215-0.74776-0.15509-1.4451-0.34691-2.0786-0.58545l-0.19938 0.52956c0.6668 0.25106 1.393 0.45238 2.1639 0.6101 1.6784 0.34341 3.5778 0.48787 5.5466 0.5254 2.7177 0.05179 5.5873-0.10005 8.2162-0.22148-0.0178 8.2e-4 0.46436-0.02122 0.44659-0.0204l-0.16631-0.48144c-4.0444 2.8511-8.599 4.8539-13.168 6.6216-2.9412 1.138-5.8876 2.1783-8.707 3.2868-1.5589 0.61292-3.0754 1.2573-4.5322 1.9427z"/>
  <path d="m239.6 64.183c0.24902-0.09747 0.49719-0.19716 0.74706-0.29242 4.6546-1.7746 9.3299-3.4956 13.966-5.3172 8.4586-3.1628 9.0524-4.0951 11.49-5.4332l-0.10354-0.26451c-1.8056 1.1096-3.9827 2.0034-11.623 5.0912-4.641 1.8099-9.2423 3.7201-13.865 5.5768-0.24814 0.09968-0.49804 0.19495-0.74706 0.29242z"/>
 </g>
 <g transform="matrix(.95055 .16604 -.14513 1.0568 9.5576 -37.366)" stroke="#000">
  <path d="m244.32 74.619c-2.0162 4.0556-3.2454 6.974-3.6035 11.03-8.6164 3.0502-17.408 9.467-22.112 16.426-6.4264-2.4215-13.302-4.3524-19.964-3.1588-6.1857 1.1083-20.017 12.687-23.511 15.695" fill="none" stroke-width=".4"/>
  <g stroke-width=".8">
   <path d="m208.86 81.483 5.9533 8.7143 3.7906 11.877 7.0416 15.633" fill="none"/>
   <circle cx="216.33" cy="93.799" r="2.4258" fill-opacity=".35176" fill-rule="evenodd" stroke-linecap="round" stroke-linejoin="round" style="paint-order:markers fill stroke"/>
   <circle cx="220.88" cy="108.58" r="2.4258" fill-opacity=".35176" fill-rule="evenodd" stroke-linecap="round" stroke-linejoin="round" style="paint-order:markers fill stroke"/>
  </g>
 </g>
 <g transform="matrix(.95055 .16604 -.14513 1.0568 9.5576 -37.366)" fill="none" stroke="#000">
  <path d="m261.59 103.22c-8.0066-4.3858-14.522-10.859-20.87-17.567" stroke-width=".5"/>
  <path d="m252.66 85.73c-4.3977-0.73932-8.383-0.7716-11.947-0.0814" stroke-width=".4"/>
  <path d="m244.32 74.619c-2.2371-1.7128-5.5114-2.981-8.9103-4.1958 6.444-1.3197 12.301-4.5185 17.765-7.4719" stroke-width=".4"/>
 </g>
 <g transform="matrix(.95055 .16604 -.14513 1.0568 9.5576 -37.366)" fill="#faa" fill-rule="evenodd">
  <path d="m175.79 67.313c-4.6119 4.0595-12.832 8.4309-17.622 9.6973-2.0743 12.847-6.6843 20.914-11.006 32.536 7.2297-12.559 11.688-24.85 12.802-30.414 8.3783-2.7633 11.576-4.9797 15.825-11.819z" opacity=".416"/>
  <path d="m197.09 39.463c-3.5291 6.1891-6.482 10.122-10.414 16.125 5.8454-6.1701 10.688-13.438 12.087-16.458z" opacity=".416"/>
  <path d="m188.65 81.64c5.2309 0.03889 13.608 0.43937 19.341 0.26206 8.3622-9.8356 15.992-20.378 24.172-29.764-11.45 8.8828-21.443 23.547-24.582 28.273-8.99 1.3392-7.8936 0.23391-18.932 1.2283z" opacity=".416"/>
 </g>
 <path d="m180.5 68.998c0.94286-1.304 4.4704 0.81228 4.3843 0.73118 0.12028-0.71703-3.8981-2.4173-3.9481-2.2636 0.24422-0.31448 3.0178 0.65045 2.8504 0.82148 0.0596-0.32984-1.9307-2.1492-2.1145-1.5371 1.9936 0.16998 3.6545 1.7021 5.3879 2.9381-1.2945-1.4107-2.4939-3.0946-4.0768-3.6758 1.567 0.51417 3.1875 1.6888 4.8302 3.1388-2.9256-3.022-5.8968-6.0416-13.733-8.8096l2.8234 1.8006-4.2223-0.98064c1.9493 1.4193 4.047 2.0376 5.7521 4.7762-2.0352-2.2261-4.1291-2.6683-6.2252-3.0419 1.9882 0.90212 4.0341 1.5252 5.6212 4.3706z" fill="#fd5"/>
 <path d="m183.37 56.182c-0.43621 1.5324-5.0946-2.2039-0.43621 1.5324-0.24422 0.31448-5.6625-3.3832-5.495-3.5544-0.0596 0.32984 4.5754 4.8821 4.7591 4.2699-1.9936-0.16998-3.6545-1.7021-5.3879-2.9381 1.2945 1.4107 2.4939 3.0946 4.0767 3.6758-1.567-0.51417-3.1875-1.6888-4.8302-3.1388 0.43907 0.95594 2.1945 2.5849 4.4244 3.6731 4.5522 2.2212-1.3208 2.623 3.6109 2.096-0.0233-1.6207 2.292 0.59109 2.8743 1.24l4.2223 0.98064c-1.9493-1.4193-4.047-2.0376-5.7521-4.7762 2.0352 2.2261 4.5265 1.1208 6.6226 1.4946-2.2088-0.49962-4.4315 0.02212-6.0185-2.8233z" fill="#fd5"/>
 <g transform="matrix(.95055 .16604 -.14513 1.0568 9.5576 -37.366)" fill-rule="evenodd">
  <path d="m241.2 85.743c8.2278 8.9627 11.32 11.028 19.309 16.482-13.224-11.946-16.381-13.608-17.995-16.201 6.0505-0.36417 10.109 0.1037 9.6571-0.16192-1.3669-0.35027-6.9289-0.81507-10.971-0.11916z" fill="#faa" opacity=".416"/>
  <path d="m244.24 75.137c-1.5022 3.4041-2.4921 4.4987-3.3032 10.264 2.117-6.5801 2.9366-9.4632 3.8755-9.0867z" fill="#faa" opacity=".416"/>
  <path d="m165.31 86.333c4.8239-4.2235 23.742-2.2642 36.259-3.3736-15.97-0.77802-28.027-0.15227-34.162 1.0754-0.85316 0.71465-1.4137 1.5268-2.0966 2.2983z" opacity=".155"/>
  <path d="m240.81 63.677c11.952-4.8801 12.722-5.4078 24.19-10.256-20.382 11.795-15.231 8.0966-27.925 12.717 1.2698-0.80186 2.6295-1.5363 3.7355-2.461z" opacity=".155"/>
 </g>
 <path d="m129.84 171.46c-0.14208-0.30415-2.259 6.5492-2.3916 6.1452 0.99694-13.534-12.611-18.638-12.677-17.554 2.5914 0.55091 5.2267 0.78237 8.0693-0.49469 1.4004-1.283 1.6361-1.0078 2.2572-1.2483 1.2324 2.0118 1.6566 2.6244 3.1311 4.4118 1.089 0.50821 2.2454 0.52562 3.1745 2.1971z" opacity=".122" stroke-width="1.0142"/>
 <path d="m210.85 68.251c4.1166-1.2594 10.903 3.9066 17.439 1.7804-6.9081-0.22393-13.011-2.4511-14.953-3.4542-0.81469 0.45338-1.6794 1.132-2.4865 1.6737z" fill-rule="evenodd" opacity=".155" stroke-width="1.0142"/>
 <path d="m140.19 60.039 8.2157 9.8968" fill="none" stroke="#000" stroke-width=".40569"/>
 <path d="m114.47 159.44c4.1612 0.34527 8.2368 3.1347 12.727-5.9158" fill="none" stroke="#000" stroke-width=".63801"/>
 <g transform="matrix(1.0439 0 0 1.0832 -47.041 -114.81)">
  <g stroke="#000">
   <path d="m181.53 180.63c-4.3885 9.3228-8.4522 14.564-20.289 17.664-3.1169 4.981-5.7205 12.307-6.6205 22.358 1.7143 17.03 15.048 50.937 27.148 55.676 1.0694-0.43825 10.087-3.6165 10.093-4.5373-2.4431-23.097 5.6959-40.155 21.345-43.831-19.523-13.695-15.776-34.558-12.948-41.391-10.214-5.5257-12.55-6.0436-18.728-5.9385z" fill="url(#linearGradient5384)" fill-rule="evenodd" stroke-width=".66766"/>
   <path d="m161.24 198.29c-2.3083 6.6732-2.8201 14.065-1.5126 22.185 0.88872 2.1143 2.6719 3.9304 7.8644 4.6102 14.841-1.5864 30.049-0.60488 45.613 2.8708" fill="none" stroke-width=".5"/>
   <path d="m181.77 276.32c-7.6983-13.229-23.174-36.504-14.175-51.239 9.4377-9.0693 15.318-22.408 13.938-44.458" fill="none" stroke-width=".5"/>
  </g>
  <path d="m167.59 225.08c32.615-27.331 5.0349-50.539 32.665-38.52-14.145-6.9429-15.815-5.3178-18.272-5.6509 1.5384 11.975-1.4767 34.354-14.393 44.171z" fill="#faa" fill-rule="evenodd" opacity=".416" stroke-width=".9538"/>
  <path d="m181.77 276.32c-22.953-41.159-23.966-58.091 31.438-48.369-21.74-3.4628-34.859-3.7309-45.613-2.8708-7.9149 17.221 5.3915 34.109 14.175 51.239z" fill-rule="evenodd" opacity=".147" stroke-width=".9538"/>
 </g>
 <g stroke="#000">
  <path d="m65.912 80.357c3.8058 12.073 7.5952 18.386 17.86 27.07 2.7031 6.798 4.6958 17.098 5.4763 28.39-1.4867 17.675-13.05 48.401-23.543 48.089-0.9274-0.95595-8.7477-8.4568-8.7529-9.4568 2.1187-23.918-4.9396-46.057-18.511-57.082 16.931-6.0471 13.682-30.332 11.229-39.006 8.8582-1.3883 10.884-0.8981 16.241 1.9958z" fill="url(#linearGradient5382)" fill-rule="evenodd" stroke-width=".6471"/>
  <path d="m83.773 107.43c2.0018 8.267 2.1805 17.697 1.0466 25.903-0.77072 1.8902-2.3172 3.0548-6.8202 1.4542-12.871-8.3974-26.059-14.178-39.557-17.418" fill="none" stroke-width=".4846"/>
  <path d="m65.706 183.91c6.6761-10.865 20.097-29.111 12.293-49.121-8.1846-14.071-13.284-31.165-12.087-54.428" fill="none" stroke-width=".4846"/>
 </g>
 <g fill-rule="evenodd">
  <path d="m65.706 183.91c19.906-34.252 20.784-52.136-27.264-66.539 18.854 6.0333 30.231 11.647 39.557 17.418 6.864 22.216-4.6757 34.519-12.293 49.121z" opacity=".147" stroke-width=".92442"/>
  <path d="m83.529 107.52c2.0307 12.932 2.4362 19.777 1.2898 25.814 3.5078-26.831-17.15-31.286-18.826-51.408 3.8225 14.305 14 22.393 17.537 25.593z" fill="#faa" opacity=".314" stroke-width="1.2486"/>
  <path d="m77.999 134.78c-27.028-34.958 2.0428-60.87-28.099-56.205 12.806-2.5301 13.505 1.1069 16.012 1.7775-0.90144 7.2797-1.7347 33.069 12.087 54.428z" fill="#000004" opacity=".169" stroke-width="1.0142"/>
 </g>
 <style>svg { cursor: default; }</style>
 <style>svg { cursor: default; }</style>
 <style>svg { cursor: default; }</style>
 <style>svg { cursor: default; }</style>
 <style>svg { cursor: default; }</style>
 <style>svg { cursor: default; }</style>
 <style>svg { cursor: default; }</style>
 <style>svg { cursor: default; }</style>
 <style>svg { cursor: default; }</style>
 <style>svg { cursor: default; }</style>
 <style>svg { cursor: default; }</style>
 <style>svg { cursor: default; }</style>
 <style>svg { cursor: default; }</style>
 <style>svg { cursor: default; }</style>
 <style>svg { cursor: default; }</style>
 <style>svg { cursor: default; }</style>
 <style>svg { cursor: default; }</style>
 <style>svg { cursor: default; }</style>
 <style>svg { cursor: default; }</style>
 <style>svg { cursor: default; }</style>
 <style>svg { cursor: default; }</style>
 <style>svg { cursor: default; }</style>
 <style>svg { cursor: default; }</style>
 <style>svg { cursor: default; }</style>
 <style>svg { cursor: default;}</style>
 <style>svg { cursor: default; }</style>
 <style>svg { cursor: default; }</style>
 <style>svg { cursor: default; }</style>
 <style>svg { cursor: default; }</style>
 <style>svg { cursor: default; }</style>
 <style>svg { cursor: default; }</style>
 <style>svg { cursor: default; }</style>
 <style>svg { cursor: default;}</style>
 <style>svg { cursor: default; }</style>
 <style>svg { cursor: default; }</style>
 <style>svg { cursor: default; }</style>
 <style>svg { cursor: default; }</style>
 <style>svg { cursor: default; }</style>
 <style>svg { cursor: default; }</style>
 <style>svg { cursor: default; }</style>
 <style>svg { cursor: default; }</style>
 <style>svg { cursor: default; }</style>
 <style>svg { cursor: default; }</style>
 <style>svg { cursor: default;}</style>
 <style>svg { cursor: default; }</style>
 <style>svg { cursor: default; }</style>
 <style>svg { cursor: default; }</style>
 <style>svg { cursor: default; }</style>
 <style>svg { cursor: default; }</style>
 <style>svg { cursor: default; }</style>
 <style>svg { cursor: default; }</style>
 <style>svg { cursor: default;}</style>
 <style>svg { cursor: default; }</style>
 <style>svg { cursor: default; }</style>
 <style>svg { cursor: default; }</style>
 <style>svg { cursor: default; }</style>
 <style>svg { cursor: default; }</style>
 <style>svg { cursor: default; }</style>
 <style>svg { cursor: default; }</style>
 <style>svg { cursor: default; }</style>
 <style>svg { cursor: default; }</style>
 <style>svg { cursor: default; }</style>
 <style>svg { cursor: default; }</style>
 <style>svg { cursor: default; }</style>
 <style>svg { cursor: default; }</style>
 <style>svg { cursor: default; }</style>
 <style>svg { cursor: default; }</style>
 <style>svg { cursor: default; }</style>
 <style>svg { cursor: default; }</style>
 <style>svg { cursor: default; }</style>
 <style>svg { cursor: default; }</style>
 <style>svg { cursor: default;}</style>
 <style>svg { cursor: default; }</style>
 <style>svg { cursor: default; }</style>
 <style>svg { cursor: default; }</style>
 <style>svg { cursor: default; }</style>
 <style>svg { cursor: default; }</style>
 <style>svg { cursor: default; }</style>
 <style>svg { cursor: default; }</style>
 <style>svg { cursor: default;}</style>
 <style>svg { cursor: default; }</style>
 <style>svg { cursor: default; }</style>
 <style>svg { cursor: default; }</style>
 <style>svg { cursor: default; }</style>
 <style>svg { cursor: default; }</style>
 <style>svg { cursor: default; }</style>
 <style>svg { cursor: default; }</style>
 <style>svg { cursor: default; }</style>
 <style>svg { cursor: default; }</style>
 <style>svg { cursor: default; }</style>
 <style>svg { cursor: default;}</style>
 <style>svg { cursor: default; }</style>
 <style>svg { cursor: default; }</style>
 <style>svg { cursor: default; }</style>
 <style>svg { cursor: default; }</style>
 <style>svg { cursor: default; }</style>
 <style>svg { cursor: default; }</style>
 <style>svg { cursor: default; }</style>
 <style>svg { cursor: default;}</style>
 <style>svg { cursor: default; }</style>
 <style>svg { cursor: default; }</style>
 <style>svg { cursor: default; }</style>
 <style>svg { cursor: default; }</style>
 <style>svg { cursor: default; }</style>
 <style>svg { cursor: default; }</style>
 <style>svg { cursor: default; }</style>
 <style>svg { cursor: default; }</style>
 <style>svg { cursor: default; }</style>
 <style>svg { cursor: default; }</style>
 <style>svg { cursor: default; }</style>
 <style>svg { cursor: default;}</style>
 <style>svg { cursor: default; }</style>
 <style>svg { cursor: default; }</style>
 <style>svg { cursor: default; }</style>
 <style>svg { cursor: default; }</style>
 <style>svg { cursor: default; }</style>
 <style>svg { cursor: default; }</style>
 <style>svg { cursor: default; }</style>
 <style>svg { cursor: default;}</style>
 <style>svg { cursor: default; }</style>
 <style>svg { cursor: default; }</style>
 <style>svg { cursor: default; }</style>
 <style>svg { cursor: default; }</style>
 <style>svg { cursor: default; }</style>
 <style>svg { cursor: default; }</style>
 <style>svg { cursor: default; }</style>
 <style>svg { cursor: default; }</style>
 <style>svg { cursor: default; }</style>
 <style>svg { cursor: default; }</style>
 <style>svg { cursor: default;}</style>
 <style>svg { cursor: default; }</style>
 <style>svg { cursor: default; }</style>
 <style>svg { cursor: default; }</style>
 <style>svg { cursor: default; }</style>
 <style>svg { cursor: default; }</style>
 <style>svg { cursor: default; }</style>
 <style>svg { cursor: default; }</style>
 <style>svg { cursor: default;}</style>
 <style>svg { cursor: default; }</style>
 <style>svg { cursor: default; }</style>
 <style>svg { cursor: default; }</style>
 <style>svg { cursor: default; }</style>
 <style>svg { cursor: default; }</style>
 <style>svg { cursor: default; }</style>
 <style>svg { cursor: default; }</style>
 <style>svg { cursor: default; }</style>
 <g transform="matrix(1.1375 .14986 -.013784 1.1298 -11.607 -22.06)" stroke="#000">
  <g stroke-width=".4">
   <path d="m80.362 41.504c-2.4492 1.4367 0.11806 7.9758 2.137 6.1445s0.3122-7.5812-2.137-6.1445zm21.699 8.7674c0.0513 1.7422-1.0106 3.5857-1.1772 4.9679l-2.8969 1.4048-1.4704-0.78567c0.17296-1.7115 1.2678-3.6439 1.1901-5.3554 0.16925-6.1798-1.6424-11.553-3.3478-12.938-3.721-0.85453-7.3457 3.7194-9.3384 10.021-0.35803 3.8399-1.1153 8.3538-0.05429 13.202 0.87123 3.3052-0.01936 3.5196-0.75055 4.2944l-2.2186-4.2086-6.0883-18.999c4.9799-7.1724 14.069-9.0181 19.97-12.222 4.6824 7.6097 5.9552 14.374 6.1819 20.619z" fill="#ffb380"/>
   <path d="m80.5 41.104c-2.6064 1.6865 0.30913 8.37 2.3343 6.7676 2.0251-1.6024 0.27209-8.4541-2.3343-6.7676zm21.551 8.8561c0.0664 1.8602-0.99051 3.8152-1.167 5.2794l-2.8969 1.4048-1.4704-0.78567c0.18381-1.8188 1.3127-2.1724 1.209-3.9912 0.85032-6.325-1.5506-12.893-3.3667-14.302-3.6814-0.58264-7.6495 3.5459-9.3384 10.021-0.33176 3.6336-1.3973 7.8947-0.05429 13.202-0.32504 1.3348-1.3041 1.8253-0.75055 4.2944l-2.2186-4.2086-6.0883-18.999c4.4093-6.1147 13.953-9.0872 19.97-12.222 4.4806 8.4061 5.9116 14.15 6.1718 20.308z" opacity=".057"/>
   <path d="m84.049 65.128-2.844-4.3818-5.2962-18.872c0.14389-0.23035 0.60697-0.45938 0.82924-0.54522l5.6594 19.323 1.9362 3.213c0.09861 0.47691 0.28853 0.98028-0.28451 1.2626z" fill="#ffb380"/>
  </g>
  <ellipse transform="matrix(-.2697 .96294 -.98808 -.15392 0 0)" cx="38.483" cy="-111.01" rx="1.209" ry=".78995" fill="#ff8080" fill-rule="evenodd" stroke-linecap="square" stroke-linejoin="round" stroke-width=".20071" style="paint-order:markers fill stroke"/>
 </g>
 <g stroke="#000">
  <ellipse transform="matrix(-.045453 .99897 -.60037 -.79972 0 0)" cx="-48.032" cy="-134.96" rx="1.3557" ry="1.0026" fill="#ff8080" fill-rule="evenodd" stroke-linecap="square" stroke-linejoin="round" stroke-width=".23944" style="paint-order:markers fill stroke"/>
  <path d="m144.4 46.485c1.1456 4.3129 1.1464 8.6259-0.0649 12.939" fill="none" stroke-width=".4"/>
  <path d="m146.37 38.299c9.6464-7.1247 15.301-6.2666 21.567-6.6291" fill="none" stroke-width=".4"/>
 </g>
 <style>svg { cursor: default; }</style>
 <style>svg { cursor: default; }</style>
 <style>svg { cursor: default; }</style>
 <style>svg { cursor: default; }</style>
 <style>svg { cursor: default; }</style>
 <style>svg { cursor: default; }</style>
 <style>svg { cursor: default; }</style>
 <path d="m95.204 34.521c1.4343-2.6165 2.0706-5.5123 1.8383-8.7121" fill="none" stroke="#000" stroke-width=".1"/>
</svg>
