<?xml version="1.0" encoding="UTF-8"?>
<!-- Generator: Adobe Illustrator 16.0.0, SVG Export Plug-In . SVG Version: 6.00 Build 0)  -->
<svg enable-background="new 0 0 256 256" version="1.1" viewBox="0 0 256 256" xml:space="preserve" xmlns="http://www.w3.org/2000/svg" xmlns:cc="http://creativecommons.org/ns#" xmlns:dc="http://purl.org/dc/elements/1.1/" xmlns:rdf="http://www.w3.org/1999/02/22-rdf-syntax-ns#" xmlns:xlink="http://www.w3.org/1999/xlink"><defs><linearGradient id="innoGrad3"><stop stop-color="#fd5" offset="0"/><stop stop-color="#ffe680" offset="1"/></linearGradient><linearGradient id="innoGrad2"><stop stop-color="#f95" offset="0"/><stop stop-color="#ffb380" offset="1"/></linearGradient><linearGradient id="innoGrad1"><stop stop-color="#ff8080" offset="0"/><stop stop-color="#f55" offset="1"/></linearGradient><linearGradient id="linearGradient932" x1="219.92" x2="270.87" y1="108.68" y2="108.68" gradientUnits="userSpaceOnUse" xlink:href="#innoGrad1"/><linearGradient id="linearGradient940" x1="59.716" x2="112.56" y1="64.045" y2="55.956" gradientUnits="userSpaceOnUse" xlink:href="#innoGrad1"/><linearGradient id="linearGradient948" x1="134.06" x2="188.48" y1="76.454" y2="76.454" gradientUnits="userSpaceOnUse" xlink:href="#innoGrad1"/><linearGradient id="linearGradient956" x1="173.34" x2="63.869" y1="132.55" y2="104.23" gradientUnits="userSpaceOnUse" xlink:href="#innoGrad1"/><linearGradient id="linearGradient4667" x1="63.902" x2="128.81" y1="161.55" y2="160.34" gradientUnits="userSpaceOnUse" xlink:href="#innoGrad2"/><linearGradient id="linearGradient4669" x1="77.823" x2="128.81" y1="160.83" y2="160.34" gradientUnits="userSpaceOnUse" xlink:href="#innoGrad2"/><linearGradient id="linearGradient4717" x1="70.082" x2="173.15" y1="164.04" y2="164.04" gradientUnits="userSpaceOnUse" xlink:href="#innoGrad3"/><linearGradient id="linearGradient4719" x1="80.906" x2="111.99" y1="152.18" y2="152.18" gradientUnits="userSpaceOnUse" xlink:href="#innoGrad3"/><linearGradient id="linearGradient4721" x1="77.149" x2="110.06" y1="242.06" y2="242.06" gradientUnits="userSpaceOnUse" xlink:href="#innoGrad3"/><radialGradient id="radialGradient935" cx="125.11" cy="100.18" r="34.105" gradientTransform="matrix(1 0 0 1.5827 0 -58.998)" gradientUnits="userSpaceOnUse" xlink:href="#innoGrad1"/><linearGradient id="linearGradient943" x1="111.83" x2="91.972" y1="168.36" y2="165.66" gradientUnits="userSpaceOnUse" xlink:href="#innoGrad1"/><linearGradient id="linearGradient945" x1="128.29" x2="86.251" y1="151.68" y2="137.92" gradientUnits="userSpaceOnUse" xlink:href="#innoGrad1"/></defs><metadata><rdf:RDF><cc:Work rdf:about=""><dc:format>image/svg+xml</dc:format><dc:type rdf:resource="http://purl.org/dc/dcmitype/StillImage"/><dc:title/></cc:Work></rdf:RDF></metadata>
<g id="Folds" transform="translate(438.28 315.59)" fill="none" stroke="#000" stroke-miterlimit="10">
	<path d="m207.14 199.02s-4.222 3.15-12.806 3.14c-6.263-8e-3 -12.818-2.248-12.417-4.166 0.371-1.771 11.74 0.631 20-1.584 8.454-2.267 13.8-9.13 13.8-9.13" display="none"/>
	<path d="m155.5 222.67s17.003-7.925 17.086-8.758c0.041-0.414-13.619-2.669-27.125-5.666-13.64-3.026-27.125-6.791-27.125-6.791" display="none" stroke-width=".5"/>
	<path d="m205.62 201.46s-6.874 6.792-9.957 9.208-28.583-2.5-28.583-2.5" display="none" stroke-width=".5"/>
</g><style>svg { cursor: default; }</style><style>svg { cursor: default; }</style><style>svg { cursor: default; }</style><style>svg { cursor: default; }</style><style>svg { cursor: default; }</style><style>svg { cursor: default; }</style><style>
    svg { cursor: default; }
  </style><g transform="matrix(1.4223 0 0 1.4223 -43.814 -34.96)"><path d="m140.95 126.74 31.12 60.13c-2.5497 6.1499 2.0911 4.4807 0.45516 9.0095-20.471 4.8824-91.47 6.5943-101.46 5.0855-1.6903-1.5823 1.0466-9.8301-0.6649-14.228z" fill="url(#linearGradient4717)" stroke="#000" stroke-miterlimit="4.4737" stroke-width=".52855"/><path d="m136.81 127.67 34.573 59.162c-2.4731 5.9651 1.355 3.6484-0.23191 8.0409-26.306 3.5587-55.351 6.0364-78.61 4.78-6.1294 0.36637-14.922-1.0124-20.314-0.26664-1.6394-1.5348 1.008-8.2538-1.2418-10.677" fill="none" stroke="#000" stroke-dasharray="1.02539451, 1.02539451" stroke-miterlimit="4.4737" stroke-width=".5127"/><g transform="matrix(1.3889 0 -.5833 .99699 -3.8416 1.4971)"><g stroke="#000" stroke-miterlimit="4.4737"><path transform="matrix(-1.2168,0,0,1.1893,305.91,-42.136)" d="m150.28 60.447-12.353 4.7138c0.407 4.2227-3.4486 6.6174-3.6056 6.9394 0.27742 2.5782 0.3844 5.5222 0.0171 9.4836 5.2795 3.9065 7.6429 7.7217 11.183 11.574 6.9752-7.4294 21.175-2.7767 27.478-7.6334 2.398-10.283 11.483-22.532 14.744-25.777-16.994 2.6181-18.358 3.0199-22.796 2.9692-3.4412 1.4669-12.69-2.9447-14.667-2.2699z" fill="url(#linearGradient948)" stroke-miterlimit="4.4737" stroke-width=".51058"/><ellipse transform="matrix(-1.1434 -.40694 -.41635 1.1175 305.91 -42.136)" cx="129.31" cy="129.22" rx="1.2542" ry="1.2203" fill="#ffb380" fill-rule="evenodd" stroke-linecap="round" stroke-linejoin="round" stroke-width=".12498" style="paint-order:fill markers stroke"/><ellipse transform="matrix(-1.1591 .36192 .37029 1.1329 305.91 -42.136)" cx="154.81" cy="34.443" rx=".77966" ry="1.0847" fill="#ffb380" fill-rule="evenodd" stroke-linecap="round" stroke-linejoin="round" stroke-width=".19366" style="paint-order:fill markers stroke"/></g><path d="m128.85 68.656c2.3812-19.594 18.719-30.094-6.4914-38.922-0.62517-0.23871-9.8343 3.338-16.857 2.9158-6.9907-0.58421-9.1656 1.6398-28.272-3.4891 5.3407 5.1388 15.096 17.583 17.536 28.28 0.82204-0.27049 2.1827-0.21353 3.7241-0.42018-0.01 3.1083 8.5785-6.0065 7.6762-8.7403 0.67225-0.93906-0.0974-1.3111 2.7992-1.6902 1.863 2.7532 4.3942 8.5831 3.4848 11.964 6.4296 3.5948 12.146 4.9646 16.4 10.102z" fill-opacity=".080402" stroke-width="1.203"/></g><g stroke="#000" stroke-miterlimit="10"><path d="m99.643 43.68c15.155-2.4348 18.817 7.8651 24.302 17.034-29.073 11.116-33.946-14.902-24.302-17.034z" fill="#f55" stroke-width="1.0058"/><path d="m99.643 43.68c15.155-2.4348 18.817 7.8651 24.302 17.034-29.073 11.116-33.946-14.902-24.302-17.034z" fill="#414042" opacity=".318" stroke-width="1.0058"/><path d="m152.87 52.999c8.7926-2.7933 8.1588-12.785 19.362-7.6469 14.528 6.6621 31.842 56.554 13.516 81.975-17.829 17.535-32.951-3.4312-39-28.747-6.0487-25.316-12.345-45.716 6.1221-45.581z" fill="#ff2a2a" stroke-width="1.1268"/><path d="m82.334 49.736c-10.535 10.765-22.77 61.39-17.561 101.22l9.4622-40.768z" fill="#f55" opacity=".98" stroke-width=".73785"/><path d="m152.87 52.999c8.7926-2.7933 8.1588-12.785 19.362-7.6469 12.211 8.3473 31.842 56.554 13.516 81.975-17.829 17.535-32.951-3.4312-39-28.747-6.0487-25.316-12.345-45.716 6.1221-45.581z" fill="#414042" opacity=".255" stroke-width="1.1268"/></g><g stroke-miterlimit="10"><path d="m144.73 39.243c-1.6687 3.9415-14.728 13.768-28.001 14.268-10.916 0.411-16.294-1.9539-17.558-10.235-3.9477 2.168-13.714 5.1034-17.235 7.043-5.1155 14.564-17.814 46.275-18.854 82.74 1.9644 25.426 2.9626 30.508 7.8074 54.954 4.801 17.63 81.657 1.3625 101.35-1.1713-0.58466-1.1082-0.94707-1.7763-1.0507-2.0486 0.5236-16.801 0.89123-36.738 11.759-50.836 1.3778-3.1692 9.8082-16.138 9.1426-20.053-31.582 22.755-60.316-62.428-17.737-67.286-5.7779-3.667-21.088-6.1939-29.624-7.3752z" fill="url(#linearGradient956)" stroke="#000" stroke-width=".65133"/><path d="m99.171 43.276c4.2991-3.4169 37.537-8.4075 45.559-4.033-15.663 18.594-51.967 8.1533-45.559 4.033z" fill="#ffb380" stroke="#000" stroke-width=".65455"/><path d="m99.171 43.276c3.5312-3.4006 37.399-7.4447 45.559-4.033-15.663 18.594-55.203 6.1647-45.559 4.033z" opacity=".318"/><path d="m144.73 39.243c-10.967 9.5651-37.223 11.626-45.06 3.7871-3.5302 3.573-14.288 4.1795-17.336 6.7059-0.0591 8.4597 9.1066 73.785-18.078 111.48l97.441 12.7c-11.737-4.6218-26.044-9.0254-42.686-27.148-16.642-18.123-0.20494-99.3 52.625-101.45-2.3526-2.6385-18.232-3.0663-26.906-6.0808z" fill="url(#linearGradient4667)" stroke="#000" stroke-width=".56456"/></g><g stroke="#000"><path d="m170 145.16c-1.4778 13.75-1.7212 17.107-2.5508 29.77" fill="none" stroke-width=".21387"/><path d="m70.858 189.41c1.2348 3.4272 5.8089 5.3985 12.413 6.3525 7.0448-0.57198 15.83 0.39219 25.428 0.19069 24.19-1.739 52.901-7.2254 63.801-8.9748-0.58503-0.93994-1.1742-0.88332-1.2779-1.1143l1.4082-16.795c-22.521 2.2484-54.866-10.001-74.576-31.18-6.6546-5.2179-6.4315-6.622-8.9917-6.9103-7.3359 1.8469-17.356 17.58-25.161 30.568 0.37476 2.1631 0.52989 2.961 1.1157 3.9333 2.6402 10.437 3.578 14.55 5.8412 23.93z" fill="url(#linearGradient4669)" stroke-miterlimit="10" stroke-width=".7789"/><path d="m70.729 170.96-3.7643 0.29018-0.74632-1.3631 14.291-19.598c3.4367-3.196 7.9907-7.2607 8.9911-7.0258l5.798 4.9968c4.4969 2.2458 8.3549 4.2334 11.754 6.0082 3.3994 1.7748 6.3402 3.3368 9.0026 4.7311 2.6625 1.3943 5.0467 2.621 7.3328 3.7253 2.2862 1.1043 4.4744 2.0861 6.7448 2.9907 2.2705 0.90465 4.6232 1.7321 7.2386 2.5276 6.8501 1.9765 13.522 4.294 19.612 5.5201 4.387 0.84843 8.9565 1.4 15.076 1.1243-0.26677 0.86903-0.50346 2.0521-3.4943 2.404l-3.0752-1.7257-4.9214 2.2452-2.1648-2.7199-5.534 1.844-1.4803-4.1108-5.0571 1.8726-2.0692-3.6066-5.2848 1.8038-2.7367-4.3685-5.5737 1.071-2.1197-3.7196-6.1663 1.2811-0.88414-3.7386-6.1301 0.21216-0.72515-3.3378-5.4942 0.4412-1.1941-4.227-4.999 0.54996-1.6268-3.9037-4.0997 0.46898-0.86537-2.8606-2.7422 0.64978 0.13085-3.1395-2.7006 0.34757-1.8122-3.7022-0.59909 4.0568-3.102-1.3764 1.0483 4.0549-5.0872-0.27322 0.18133 3.8037-4.9557 0.29557 1.099 5.3461-4.6022 0.36186 0.56982 4.5801-3.7279 0.22775z" opacity=".939" stroke-miterlimit="10" stroke-width=".42217"/></g><g fill="none" stroke="#000"><path d="m186.29 127.85c-2.488 3.8404-4.9764 7.6812-7.2545 10.575-2.2782 2.8935-4.3459 4.8389-6.4145 6.7849" stroke-width=".26247"/><path d="m88.511 173.24c-2.6516 6.1639-6.0658 13.98-1.5567 22.36" stroke-width=".29728"/><path d="m104.35 55.537c-4.8614 5.446-4.9971 7.953-6.8819 13.511" stroke-width=".18258"/><path d="m155.99 49.527c-25.966 34.303-15.897 78.948 7.019 93.23" stroke-width=".26893"/><path d="m179.3 117.51c-0.83211 7.817-6.6213 22.691-9.3054 27.642" stroke-width=".21387"/></g><path d="m110.36 194.18 0.29492-5.5363 2.4834-3.3272 18.26-1.124-2.8984 9.2355-15.251 3.0788z" fill="#000004" opacity=".186" stroke-miterlimit="10"/><g stroke="#000"><path d="m135.92 192.56 2.7499-2.5088c-0.0889-1.8628-0.52433-3.6442-0.61333-5.507l-2.6705-3.1608c-7.3616 0.74731-14.744 1.0026-22.13 1.2861l-2.2871 3.4812c0.12594 1.8604-0.10136 3.6846 0.0246 5.545l3.018 2.136c7.295-0.57965 14.601-0.91871 21.908-1.2718z" stroke-miterlimit="10" stroke-width=".51883"/><path d="m83.052 196.22c-3.0436-27.144 6.0545-18.933-1.948-61.768l2.5921-9.9282c9.2281 1.0516 15.9-18.473 27.893-16.261 1.0215 0.18848-2.0668 13.284-2.4625 19.955-1.3652 23.016-10.262 50.012-0.30066 68.163" fill="url(#linearGradient4719)" stroke-miterlimit="4.4737" stroke-width=".38622"/><g fill="#ff8080" stroke-miterlimit="10"><ellipse transform="matrix(.055862 -.99844 -.99649 -.083748 0 0)" cx="-175.98" cy="-142.97" rx="2.9042" ry="2.1203" stroke-width=".30963"/><g stroke-miterlimit="10" stroke-width=".40147"><ellipse transform="matrix(.53277 -.84626 .84253 .53866 0 0)" cx="-24.223" cy="215.81" rx=".82635" ry=".94764"/><ellipse transform="matrix(.53277 -.84626 .84253 .53866 0 0)" cx="-36.183" cy="217.89" rx=".82635" ry=".94764"/><ellipse transform="matrix(.53277 -.84626 .84253 .53866 0 0)" cx="-44.04" cy="222.37" rx=".82635" ry=".94764"/></g></g></g><path d="m172.62 145.21c4.8173-4.0479 8.6585-9.7845 12.131-16.159-6.6685 10.299-11.231 20.324-10.375 30.177 1.7675-17.154 2.7251-10.623-1.7564-14.019z" fill="#000004" opacity=".078" stroke-miterlimit="10"/><path d="m121.88 57.156c8.7248-2.7027-8.318 4.5652 29.615-12.827-4.3497 12.625-27.365 53.098 3.1102 99.204-55.388-63.53 12.421-100.53-32.725-86.377z" fill="#fff" opacity=".044" stroke-miterlimit="10"/><g transform="matrix(-.30354 -.41645 .39356 -.32119 167.69 190.69)" stroke-miterlimit="4.1353" stroke-width=".9507"><path d="m269.44 78.353c-6.6457-5.6758-13.022-12.14-18.433-21.437-5.835-4.598-8.9206-11.211-12.366-17.56l-6.7666 15.052c0.092 7.5536-0.17004 14.416-0.7 20.753-2.1718 6.3272-4.6563 12.4-10.5 15.736-1.9465 43.723 6.7087 60.408 11.433 87.117 7.7454-8.9558 15.199-18.075 18.667-29.42-4.2689 0.73186 6.5951-61.204 18.667-70.241z" fill="url(#linearGradient932)" stroke="#000"/><path d="m231.77 176.94-6.1047-35.155 0.32997-30.64c5.163-5.2963 7.2396-14.265 7.9811-24.822 0.60224-8.5738 0.32398-18.195 0.10345-27.748l5.9397-12.094-1.3779-7.1322" fill="none" stroke="#000"/><path d="m238.64 39.355 1.3779 7.1322-5.9397 12.094c-0.18927 18.965-0.14688 39.198-9.9511 50.005l1.5367 33.205 6.443 36.221c-4.404-27.494-14.064-41.29-11.433-87.117 5.6601-2.0784 7.8164-9.2938 10.5-15.736l0.7-20.753z" fill-opacity=".18593" opacity=".545"/><path d="m269.44 78.353-17.751-5.3848c-8.04-2.4389-9.2841-7.2946-11.398-14.182l-0.21428-12.284" fill="none" stroke="#000"/><path d="m247.39 70.961c1.7057 6.9826 1.1618 11.66-1.9799 17.9-3.1417 6.2405-19.415 22.292-19.415 22.292" fill="none" stroke="#000"/></g><g><g stroke-miterlimit="10"><path d="m97.162 113.83c3.7833 2.6687 21.925 23.062 41.138 31.651-0.29464-6.7139-52.848-15.516-23.835-87.779-19.326 42.657-11.734 44.571-17.303 56.128z" fill="#fff" opacity=".044"/><path d="m96.066 140.14c-2.522 4.0033-0.70142 13.233-1.08 31.056 6.2256-35.376-11.221-27.719 57.07 2.9821-40.312-20.45-45.068-28.146-55.99-34.038z" fill="#fff" opacity=".044"/><path d="m83.896 193.72-0.18251-5.5363-1.5369-3.3272-11.3-1.124 1.7936 9.2355 9.4379 3.0788z" fill="#000004" opacity=".186"/><path d="m70.709 192.89-1.1904-2.5459c0.03849-1.8903 0.22697-3.6981 0.26549-5.5884l1.156-3.2076c3.1866 0.75836 6.3823 1.0175 9.5794 1.3051l0.99004 3.5327c-0.05451 1.8879 0.04388 3.7391-0.01063 5.627l-1.3064 2.1676c-3.3661-0.5567-6.6362-0.86824-9.4835-1.2905z" stroke="#000" stroke-width=".53856"/></g><path d="m98.183 186.4c-3.7096-4.7572-8.6924-7.8364-14.377-7.3085-1.9686 0.18283-4.1486 1.3878-7.8024 3.8137 1.5742-2.3377 2.0208-5.0962 2.9082-6.4574 1.5856-2.4323 2.2339-1.7745 2.8619-4.4376 2.9797-3.2106 3.8384-6.5467 5.1559-9.8556l3.0658-11.03 13.162 14.092c-0.83984 3.059-1.1457 6.3421-0.69074 9.9445l0.98925 3.2118 1.8144 3.2606c-2.4359 2.5538-3.381 3.2224-7.0878 4.7669z" opacity=".2"/><path d="m97.84 184.91c-3.7096-4.7572-8.6924-7.8364-14.377-7.3085-1.9686 0.18283-4.1009 2.3411-7.8024 3.8137 1.5742-2.3377 0.89885-4.769 2.9082-6.4574 0.9183-2.7183 0.66723-2.8688 2.0993-5.2003 2.2925-3.7325 4.601-5.7841 5.9186-9.093l3.0658-11.03 13.162 14.092c-0.83984 3.059-2.671 6.6281-2.216 10.23 0.46636 2.3921 1.6374 4.3766 2.8037 6.4723-2.4359 2.5538-1.8557 2.9364-5.5626 4.4809z" fill="url(#linearGradient943)" stroke="#000" stroke-width=".48606"/><path d="m76.602 169.21 4.0322-1.8473c1.5881-0.72136 3.1763-0.61393 4.7644-0.44763 3.9375 0.338 16.922 2.552 18.989 3.6478 3.1441-2.507 1.9867-2.5672 3.653-5.5503-6.4657-7.3394-1.2965-17.186 1.8369-28.386-1.1672-13.681 2.6088-19.18 9.1751-20.223 6.711-1.0666 12.934 2.5834 11.311 11.53 19.453-54.543 5.3744-39.726-1.851-44.279l-47.476-0.7052-5.12 12.31 9.0334 23.308 1.4732 9.7221c0.27524 9.8861 2.3397 22.471-2.4391 30.513-0.81552 3.6703-3.0196 4.2496-4.2242 5.5524-1.9607 2.1208-2.4255 2.9209-3.1573 4.8559z" opacity=".2"/><ellipse transform="matrix(-.02403 -.99971 .9814 -.19199 0 0)" cx="-203.15" cy="75.531" rx="2.9465" ry=".9396" fill="#ff8080" stroke="#000" stroke-miterlimit="10" stroke-width=".20761"/></g><path d="m83.373 177.71c6.1551-5.4182 4.9836-7.614 7.0766-11.505" fill="none" stroke="#000" stroke-width=".38885"/><g transform="matrix(.94503 0 0 1 5.2387 1.1505)" stroke-miterlimit="4.3553" stroke-width=".56919"><g stroke="#000"><path d="m85.629 29.168c1.1244 7.098-2.0972 13.423-3.4938 20.135 7.6276 9.5699 13.919 19.305 19.873 29.082 2.9064 2.0494 6.1607 3.7945 9.8859 5.1292-6.5743-10.669-11.637-21.748-14.577-34.971-3.5269-5.1329-7.585-10.156-6.9983-16.292-1.8729-0.94406-2.8624-2.552-4.2586-3.9216z" fill="url(#linearGradient940)"/><path d="m111.89 83.513c-4.5843-7.4057-9.6503-14.496-13.302-22.511-8.3031-6.5326-10.931-14.893-7.96-24.412" fill="none"/><path d="m89.676 46.893c-2.5409-0.9963-3.2595-4.9392-3.3504-7.5643 0.02638-2.7513-0.67015-8.6946-0.34061-11.046" fill="none"/></g><path d="m85.629 29.168c1.1244 7.098-2.0972 13.423-3.4938 20.135 7.4675 9.5306 14.501 20.28 19.873 29.082 2.9064 2.0494 6.1607 3.7945 9.8859 5.1292-6.5743-10.669-11.937-5.1988-13.302-22.511-10.972-7.4623-10.968-17.304-7.96-24.412-0.43659-1.8856-0.43691-3.0386-0.31252-4.3397-1.8729-0.94406-2.7665-1.0419-4.1627-2.4115z" fill="#0a0000" fill-opacity=".34673" opacity=".184"/><path d="m98.588 61.003s-5.1409-1.9794-7.4018-3.3359c-2.0699-1.242-2.7573-2.005-4.4167-3.5692-0.49746-0.46891-1.8756-2.0776-2.7357-3.487-0.89239-1.4623 1.227-10.463 2.2501-10.782" fill="none" stroke="#000"/></g><path d="m76.399 168.12c2.9759-1.2615 5.3311-2.5261 8.5106-2.1996 3.9375 0.338 16.922 2.552 18.989 3.6478 1.5496-1.3892 2.4856-2.8278 3.653-5.5503-6.4656-7.3394-3.2985-17.948-0.16504-29.148-2.5972-14.635 3.2932-20.608 12.798-22.893 8.5932-0.71986 12.934 2.5834 11.311 11.53 19.453-54.543 3.7537-36.294-3.4716-40.847l-47.476-0.7052-5.12 12.31 9.0334 23.308 1.4732 9.7221c-0.46089 14.293 2.7972 26.379-6.6633 36.065-1.785 1.3254-1.0363 1.8322-2.8723 4.7598z" fill="url(#linearGradient945)" stroke="#000" stroke-width=".48606"/><path d="m84.83 166.04c5.5329-6.0113 8.7244-11.537 9.255-23.729" fill="none" stroke="#000" stroke-width=".38885"/><g><path d="m108.94 141.43c-3.2946 2.1907-2.8775 6.9009-0.93262 8.2471-7.7538 7.7846-18.881 4.3306-30.412 6.9478 1.246-4.8222 2.3616-9.1541 3.3323-12.942 1.3256-16.572-0.17594-31.226-3.452-39.748-2.1351-5.5542-4.2325-5.4555-6.7852-4.6524-0.73066-6.7016-1.5469-13.775-2.3102-19.86 0.59048-3.8764 2.0958-4.4591 0.15562-8.0928 5.0534-0.18542 6.1299-5.346 9.638-7.1666l8.6495-3.98 4.7512-2.1901 3.7035-7.3585 1.5591-1.3093s4.1524 4.3329 6.8568 4.9602c5.575 1.2931 18.229-3.9748 18.229-3.9748l2.5658 4.7064 6.8793 10.491c0.74885 3.4837 2.443 6.058 5.0713 7.7338-1.489 1.212-2.3747 14.937 0.45308 16.992-3.3229-0.11474-5.4638 5.3265-6.9252 8.8751-0.66949 1.6255-4.5851 2.1814-4.5851 2.1814-8.0768-4.3147-20.117-6.1781-25.399 4.4543-5.282 10.632-0.78344 31.299 8.9564 35.685z" opacity=".2"/><path d="m120.21 112.18c8.5932-0.71986 12.934 2.5834 11.311 11.53 19.453-54.543 3.7537-36.294-3.4716-40.847l-47.476-0.7052-5.12 12.31 9.0334 23.308 1.4732 9.7221 19.017 14.759 2.2621-7.4442c-0.35932-8.2323-3.3535-16.852 12.972-22.632z" opacity=".12" stroke="#000" stroke-width=".48606"/><path d="m108.67 139.7c-3.2946 2.1907-2.8775 6.9009-0.93262 8.2471-7.7538 7.7846-18.881 4.3306-30.412 6.9478 1.246-4.8222 2.3616-9.1541 3.3323-12.942 1.3256-16.572 1.1587-31.226-2.1173-39.748-2.1351-5.5542-4.2325-5.4555-6.7852-4.6524-0.17158-6.7016-0.15162-13.775-2.3102-19.86 0.21353-3.0209 0.1915-5.5707 0.15562-8.0928 4.242-1.2125 7.1654-3.9319 9.638-7.1666 5.3204-1.792 9.9044-3.4024 12.066-6.1701 1.958-2.0911 3.27-4.5052 3.7035-7.3585l1.5591-1.3093s4.1524 4.3329 6.8568 4.9602c5.575 1.2931 16.881-3.031 16.881-3.031l2.5658 4.7064 6.8793 10.491c0.74886 3.4837 2.4431 6.058 5.0713 7.7338-1.489 1.212-1.0265 13.993 1.8013 16.048-3.3229-0.11474-5.4638 5.3265-6.9252 8.8751-0.66949 1.6255-4.5851 2.1814-4.5851 2.1814-8.0768-4.3146-20.117-6.1781-25.399 4.4543-5.282 10.632-0.78344 31.299 8.9564 35.685z" fill="url(#radialGradient935)" stroke="#000" stroke-width=".48606"/></g><g fill="none" stroke="#000" stroke-miterlimit="4.0677" stroke-width=".41552"><path d="m77.323 154.89c11.613-31.605 4.313-51.314 2.0035-70.413"/><path d="m79.326 84.477c7.124-3.8356 12.658-9.1848 15.839-12.989 3.327-3.9788 6.3212-13.616 8.2429-18.91"/><path d="m79.326 84.477c10.367 0.4152 44.835-9.367 55.492-12.026"/><path d="m79.326 84.477c11.186-1.3702 39.26-15.736 50.446-19.752"/><path d="m79.326 84.477c-2.5492-5.1513-2.6658-15.786-0.090227-22.049"/><path d="m79.326 84.477c-4.1025-2.0558-7.5376-3.7551-9.9243-6.8701"/></g><g fill="#ff8080" stroke="#000" stroke-miterlimit="10"><ellipse transform="matrix(.9794 -.20193 .22162 -.97513 0 0)" cx="124.88" cy="-194.77" rx="1.097" ry="1.0673" stroke-width=".13501"/><ellipse transform="matrix(-.022796 -.99974 -.99609 .088318 0 0)" cx="-193.76" cy="-67.094" rx="2.947" ry=".92805" stroke-width=".20635"/><ellipse transform="matrix(.42395 -.90569 -.96563 -.25993 0 0)" cx="-152.5" cy="-147.91" rx="1.3905" ry=".87019" stroke-width=".13725"/><ellipse transform="matrix(-.4035 -.91498 -.90569 .42395 0 0)" cx="-204.89" cy="-18.239" rx="1.7932" ry="1.334" stroke-width=".19299"/><ellipse transform="matrix(-.4035 -.91498 -.90569 .42395 0 0)" cx="-192.86" cy="-27.808" rx="1.7932" ry="1.334" stroke-width=".19299"/></g><g fill-opacity=".73869"><path d="m77.323 154.89 6.3382-11.026s1.6271-35.39 1.8983-36.61c0.27119-1.2203-2.9185-7.1564-3.7735-15.583-0.75592-7.4494 27.046-10.073 40.755-14.129l5.4089-3.0557c-16.881 4.3875-33.093 8.9019-48.623 9.9903 4.3447 21.904 7.4688 48.051-2.0035 70.413z" opacity=".207"/><path d="m112.24 74.352c-8.0739 4.0521-25.014 9.4178-25.014 9.4178l-6.1959 0.45225c16.065-5.0306 32.069-12.026 46.015-18.617 0 0-9.6685 6.169-14.806 8.7472z" opacity=".207"/><path d="m96.165 71.772c-2.8609 4.2593-11.276 10.477-11.276 10.477l-5.5626 2.2282c19.53-10.167 22.384-27.475 24.082-31.899 1.0949 0.68431-3.4298 13.517-7.2426 19.193z" opacity=".307"/></g></g><path d="m190.36 35.594c27.354-12.381 47.907 73.703 30.655 95.66" fill="none" stroke="#000" stroke-width=".6"/><ellipse transform="matrix(.055862 -.99844 -.99649 -.083748 0 0)" cx="-221.71" cy="-133.53" rx="4.1308" ry="3.0159" fill="#ff8080" stroke="#000" stroke-miterlimit="10" stroke-width=".4404"/><style>svg { cursor: default; }</style><style>svg { cursor: default; }</style><style>svg { cursor: default; }</style><path d="m77.209 237.8c10.118-0.96856 7.0574 1.9267 23.024-0.6199l3.7007 0.82489c-0.39199 2.9366 6.8858 5.0598 6.0613 8.8764-0.0703 0.32507-4.9516-0.65771-7.4382-0.78364-8.5792-0.43444-18.642-3.2658-25.408-0.0957" fill="url(#linearGradient4721)" stroke-miterlimit="4.4737"/></svg>
