<?xml version="1.0" encoding="UTF-8"?>
<!-- Generator: Adobe Illustrator 16.0.0, SVG Export Plug-In . SVG Version: 6.00 Build 0)  -->
<svg enable-background="new 0 0 256 256" version="1.1" viewBox="0 0 256 256" xml:space="preserve" xmlns="http://www.w3.org/2000/svg" xmlns:cc="http://creativecommons.org/ns#" xmlns:dc="http://purl.org/dc/elements/1.1/" xmlns:rdf="http://www.w3.org/1999/02/22-rdf-syntax-ns#" xmlns:xlink="http://www.w3.org/1999/xlink"><defs><linearGradient id="innoGrad2"><stop stop-color="#ffb380" offset="0"/><stop stop-color="#f95" offset="1"/></linearGradient><linearGradient id="innoGrad3"><stop stop-color="#ffe680" offset="0"/><stop stop-color="#fd5" offset="1"/></linearGradient><linearGradient id="innoGrad1"><stop stop-color="#ff8080" offset="0"/><stop stop-color="#f55" offset="1"/></linearGradient><linearGradient id="linearGradient1347" x1="194.98" x2="126.1" y1="82.562" y2="74.163" gradientUnits="userSpaceOnUse" xlink:href="#innoGrad1"/><linearGradient id="linearGradient1355" x1="231.78" x2="206.55" y1="77.633" y2="80.783" gradientUnits="userSpaceOnUse" xlink:href="#innoGrad1"/><linearGradient id="linearGradient1363" x1="71.507" x2="88.326" y1="24.504" y2="25.416" gradientUnits="userSpaceOnUse" xlink:href="#innoGrad1"/><linearGradient id="linearGradient1371" x1="219.66" x2="199.08" y1="172.19" y2="172.32" gradientUnits="userSpaceOnUse" xlink:href="#innoGrad1"/><linearGradient id="linearGradient1379" x1="111.01" x2="81.18" y1="108.65" y2="111.1" gradientUnits="userSpaceOnUse" xlink:href="#innoGrad1"/><linearGradient id="linearGradient1387" x1="108.57" x2="163.91" y1="99.336" y2="105.93" gradientUnits="userSpaceOnUse" xlink:href="#innoGrad1"/><linearGradient id="linearGradient1395" x1="78.029" x2="46.767" y1="77.627" y2="70.76" gradientUnits="userSpaceOnUse" xlink:href="#innoGrad1"/><linearGradient id="linearGradient1397" x1="152.17" x2="111.32" y1="73.297" y2="79.608" gradientUnits="userSpaceOnUse" xlink:href="#innoGrad1"/><linearGradient id="linearGradient1405" x1="161.12" x2="131.15" y1="40.446" y2="44.173" gradientUnits="userSpaceOnUse" xlink:href="#innoGrad1"/><linearGradient id="linearGradient1413" x1="51.335" x2="102.05" y1="28.665" y2="30.243" gradientUnits="userSpaceOnUse" xlink:href="#innoGrad1"/><radialGradient id="radialGradient1421" cx="92.131" cy="36.177" r="1.9416" gradientTransform="matrix(1 0 0 1.4698 0 -16.994)" gradientUnits="userSpaceOnUse" xlink:href="#innoGrad1"/><radialGradient id="radialGradient1423" cx="-119.06" cy="37.934" r="3.3153" gradientTransform="matrix(1 0 0 .85664 0 5.4384)" gradientUnits="userSpaceOnUse" xlink:href="#innoGrad1"/><linearGradient id="linearGradient1431" x1="217.97" x2="148.22" y1="77.812" y2="47.122" gradientUnits="userSpaceOnUse" xlink:href="#innoGrad1"/><linearGradient id="linearGradient1439" x1="223.36" x2="205.3" y1="131.53" y2="105.95" gradientUnits="userSpaceOnUse" xlink:href="#innoGrad1"/><linearGradient id="linearGradient1447" x1="70.249" x2="122.41" y1="80.239" y2="80.239" gradientUnits="userSpaceOnUse" xlink:href="#innoGrad1"/><linearGradient id="linearGradient1455" x1="93.846" x2="187.31" y1="20.475" y2="111.44" gradientUnits="userSpaceOnUse" xlink:href="#innoGrad3"/><linearGradient id="linearGradient1463" x1="145.56" x2="122.6" y1="616.96" y2="559.64" gradientUnits="userSpaceOnUse" xlink:href="#innoGrad3"/><linearGradient id="linearGradient1465" x1="-628.75" x2="-608.63" y1="205.61" y2="92.279" gradientUnits="userSpaceOnUse" xlink:href="#innoGrad3"/><linearGradient id="linearGradient1467" x1="124.34" x2="126.03" y1="141.37" y2="88.136" gradientUnits="userSpaceOnUse" xlink:href="#innoGrad3"/><linearGradient id="linearGradient1469" x1="-159.97" x2="-179.7" y1="249.86" y2="179.24" gradientUnits="userSpaceOnUse" xlink:href="#innoGrad3"/><linearGradient id="linearGradient1471" x1="157.56" x2="142.38" y1="457.52" y2="398.04" gradientUnits="userSpaceOnUse" xlink:href="#innoGrad3"/><linearGradient id="linearGradient1479" x1="206.35" x2="187.35" y1="89.704" y2="50.171" gradientUnits="userSpaceOnUse" xlink:href="#innoGrad2"/><linearGradient id="linearGradient1495" x1="58.383" x2="63.839" y1="77.468" y2="75.612" gradientUnits="userSpaceOnUse" xlink:href="#innoGrad2"/><linearGradient id="linearGradient1497" x1="181.91" x2="193.94" y1="70.98" y2="80.435" gradientUnits="userSpaceOnUse" xlink:href="#innoGrad2"/><linearGradient id="linearGradient1499" x1="138.71" x2="155.4" y1="73.457" y2="73.457" gradientUnits="userSpaceOnUse" xlink:href="#innoGrad2"/><linearGradient id="linearGradient1507" x1="87.244" x2="130.07" y1="27.608" y2="27.608" gradientUnits="userSpaceOnUse" xlink:href="#innoGrad2"/><linearGradient id="linearGradient1509" x1="86.619" x2="130.02" y1="36.652" y2="36.652" gradientUnits="userSpaceOnUse" xlink:href="#innoGrad2"/><linearGradient id="linearGradient1511" x1="75.932" x2="128.51" y1="56.173" y2="56.173" gradientUnits="userSpaceOnUse" xlink:href="#innoGrad2"/><linearGradient id="linearGradient1513" x1="72.452" x2="124.78" y1="63.039" y2="63.039" gradientUnits="userSpaceOnUse" xlink:href="#innoGrad2"/></defs><metadata><rdf:RDF><cc:Work rdf:about=""><dc:format>image/svg+xml</dc:format><dc:type rdf:resource="http://purl.org/dc/dcmitype/StillImage"/><dc:title/></cc:Work></rdf:RDF></metadata>
<style>svg { cursor: default; }</style><style>svg { cursor: default; }</style><style>svg { cursor: default; }</style><style>svg { cursor: default; }</style><style>svg { cursor: default; }</style><style>svg { cursor: default; }</style><style>
    svg { cursor: default; }
  </style><style>svg { cursor: default; }</style><style>svg { cursor: default; }</style><style>svg { cursor: default; }</style><style>svg { cursor: default; }</style><style>svg { cursor: default; }</style><style>svg { cursor: default; }</style><style>svg { cursor: default; }</style><style>svg { cursor: default; }</style><style>svg { cursor: default; }</style><style>svg { cursor: default; }</style><style>svg { cursor: default; }</style><style>svg { cursor: default; }</style><style>svg { cursor: default; }</style><style>svg { cursor: default; }</style><style>svg { cursor: default; }</style><style>svg { cursor: default; }</style><style>svg { cursor: default; }</style><style>svg { cursor: default;}</style><style>svg { cursor: default; }</style><style>svg { cursor: default; }</style><style>svg { cursor: default; }</style><style>svg { cursor: default; }</style><style>svg { cursor: default; }</style><style>svg { cursor: default; }</style><style>svg { cursor: default; }</style><style>svg { cursor: default;}</style><style>svg { cursor: default; }</style><style>svg { cursor: default; }</style><style>svg { cursor: default; }</style><style>svg { cursor: default; }</style><style>svg { cursor: default; }</style><style>svg { cursor: default; }</style><style>svg { cursor: default; }</style><style>svg { cursor: default; }</style><style>svg { cursor: default; }</style><style>svg { cursor: default; }</style><style>svg { cursor: default;}</style><style>svg { cursor: default; }</style><style>svg { cursor: default; }</style><style>svg { cursor: default; }</style><style>svg { cursor: default; }</style><style>svg { cursor: default; }</style><style>svg { cursor: default; }</style><style>svg { cursor: default; }</style><style>svg { cursor: default;}</style><style>svg { cursor: default; }</style><style>svg { cursor: default; }</style><style>svg { cursor: default; }</style><style>svg { cursor: default; }</style><style>svg { cursor: default; }</style><style>svg { cursor: default; }</style><style>svg { cursor: default; }</style><style>svg { cursor: default; }</style><style>svg { cursor: default; }</style><style>svg { cursor: default; }</style><style>svg { cursor: default; }</style><style>svg { cursor: default; }</style><style>svg { cursor: default; }</style><style>svg { cursor: default; }</style><style>svg { cursor: default; }</style><style>svg { cursor: default; }</style><style>svg { cursor: default; }</style><style>svg { cursor: default; }</style><style>svg { cursor: default; }</style><style>svg { cursor: default;}</style><style>svg { cursor: default; }</style><style>svg { cursor: default; }</style><style>svg { cursor: default; }</style><style>svg { cursor: default; }</style><style>svg { cursor: default; }</style><style>svg { cursor: default; }</style><style>svg { cursor: default; }</style><style>svg { cursor: default;}</style><style>svg { cursor: default; }</style><style>svg { cursor: default; }</style><style>svg { cursor: default; }</style><style>svg { cursor: default; }</style><style>svg { cursor: default; }</style><style>svg { cursor: default; }</style><style>svg { cursor: default; }</style><style>svg { cursor: default; }</style><style>svg { cursor: default; }</style><style>svg { cursor: default; }</style><style>svg { cursor: default;}</style><style>svg { cursor: default; }</style><style>svg { cursor: default; }</style><style>svg { cursor: default; }</style><style>svg { cursor: default; }</style><style>svg { cursor: default; }</style><style>svg { cursor: default; }</style><style>svg { cursor: default; }</style><style>svg { cursor: default;}</style><style>svg { cursor: default; }</style><style>svg { cursor: default; }</style><style>svg { cursor: default; }</style><style>svg { cursor: default; }</style><style>svg { cursor: default; }</style><style>svg { cursor: default; }</style><style>svg { cursor: default; }</style><style>svg { cursor: default; }</style><style>svg { cursor: default; }</style><style>svg { cursor: default; }</style><style>svg { cursor: default; }</style><style>svg { cursor: default;}</style><style>svg { cursor: default; }</style><style>svg { cursor: default; }</style><style>svg { cursor: default; }</style><style>svg { cursor: default; }</style><style>svg { cursor: default; }</style><style>svg { cursor: default; }</style><style>svg { cursor: default; }</style><style>svg { cursor: default;}</style><style>svg { cursor: default; }</style><style>svg { cursor: default; }</style><style>svg { cursor: default; }</style><style>svg { cursor: default; }</style><style>svg { cursor: default; }</style><style>svg { cursor: default; }</style><style>svg { cursor: default; }</style><style>svg { cursor: default; }</style><style>svg { cursor: default; }</style><style>svg { cursor: default; }</style><style>svg { cursor: default;}</style><style>svg { cursor: default; }</style><style>svg { cursor: default; }</style><style>svg { cursor: default; }</style><style>svg { cursor: default; }</style><style>svg { cursor: default; }</style><style>svg { cursor: default; }</style><style>svg { cursor: default; }</style><style>svg { cursor: default;}</style><style>svg { cursor: default; }</style><style>svg { cursor: default; }</style><style>svg { cursor: default; }</style><style>svg { cursor: default; }</style><style>svg { cursor: default; }</style><style>svg { cursor: default; }</style><style>svg { cursor: default; }</style><style>svg { cursor: default; }</style><g transform="matrix(1 0 0 1.0332 -.27115 5.0017)"><path d="m240.24 83.721 5.2567 27.684s-10.814 12.12-40.546 10.91c-14.46-0.58842-31.796-5.8641-48.067-11.359-2.3013-0.77726-5.6494 14.462-8.2975 18.228-2.1013-5.9715-6.1836-21.817-7.9685-22.43-12.882-4.4265-16.846-8.3425-24.566-8.8976-1.2397-0.08915-4.8106 7.952-9.4558 21.266-6.7982-14.842-11.385-18.55-12.138-18.313-8.8785 4.6883-11.035 3.3114-18.67 3.2266-0.91871-0.0102-1.9842 24.687-3.7517 24.827-1.4946 0.11873-8.5915-22.438-9.4324-22.44-7.8083-0.0168-6.6621-1.9316-20.473 2.647-0.76671 0.25418-1.5589 0.48484-2.3701 0.69393-1.4672 0.37819-5.1995 11.467-8.3547 15.053-0.37644-9.1569 1.4363-13.775 0.24825-13.649-9.7963 1.0406-19.384 0.1304-19.384 0.1304l59.774-78.569 17.182-10.345c2.8999-6.3143-0.326-5.9737 1.2623-10.464 21.573-1.462 33.751 0.7237 50.866 1.5074 10.831 0.496 25.356 0.31195 32.932 1.529 2.1418 11.861 36.053 9.8615 45.608 13.993z" fill="#fd5" opacity=".858" stroke="#000" stroke-miterlimit="4.4737" stroke-width=".48447"/><path d="m240.24 83.721 5.2567 27.684s-10.814 12.12-40.546 10.91c-14.46-0.58842-31.796-5.8641-48.067-11.359-2.3013-0.77726-5.6494 14.462-8.2975 18.228-2.1013-5.9715-6.1836-21.817-7.9685-22.43-12.882-4.4265-16.846-8.3425-24.566-8.8976-1.2397-0.08911-4.8106 7.952-9.4558 21.266-6.7982-14.842-11.385-18.55-12.138-18.313-8.8785 4.6883-11.035 3.3114-18.67 3.2266-0.91871-0.0102-1.9842 24.687-3.7517 24.827-1.4946 0.11873-8.5915-22.438-9.4324-22.44-7.8083-0.0168-6.6621-1.9316-20.473 2.647-0.76671 0.25418-1.5589 0.48484-2.3701 0.69393-1.4672 0.37819-5.1995 11.467-8.3547 15.053-0.37644-9.1569 1.4363-13.775 0.24825-13.649-9.7963 1.0406-19.384 0.1304-19.384 0.1304l59.774-78.569 17.182-10.345c2.8999-6.3143-0.326-5.9737 1.2623-10.464 21.573-1.462 33.751 0.7237 50.866 1.5074 10.831 0.496 25.356 0.31195 32.932 1.529 2.1418 11.861 36.053 9.8615 45.608 13.993z" fill="#000001" opacity=".135" stroke-miterlimit="4.4737"/><path d="m240.24 83.721 5.2567 27.684s-10.814 12.12-40.546 10.91c-33.887-1.3789-86.775-54.366-92.089-32.549-19.239 10.159-34.148-2.5259-65.823 7.9749-11.873 3.9364-34.769 13.557-34.769 13.557l59.774-78.569 17.182-10.345c2.8999-6.3143-0.326-5.9737 1.2623-10.464 21.074-1.368 35.393 0.26981 51.602 1.4263 16.209 1.2354 24.703-0.74342 32.196 1.6102 2.1418 11.861 36.053 9.8615 45.608 13.993z" fill-opacity=".060302" stroke-width="1.2112"/><path d="m224.73 82.413c0.87231 1.7737 9.4702 1.1583 17.089 5.9128 3.9556 9.426 9.7877 21.597 9.9853 30.092-3.8843-1.7976-10.329-11.907-13.559-16.498-1.3487 8.6235 2.7271 19.896 2.1129 21.924-8.7816-7.6199-7.4397-8.5203-13.214-12.29-1.8379 7.412-3.5378 17.172-4.8107 19.64-1.1784 0.19871-7.7972-13.803-15.899-17.344-1.4329-0.62556 0.18438 26.785-1.4212 26.196-9.0708-7.6631-18.174-29.295-25.032-32.35-4.2665 7.3225-4.5012 13.435-10.694 29.278-4.1659-5.2348-13.792-29.186-16.795-35.683-3.8036 2.5817-8.7565 22.068-12.72 31.709-4.3638-4.1103-13.23-13.19-14.519-31.895-3.0366 2.1012-12.836-7.1583-15.671-5.7275-2.8344 1.4308-11.819 8.0316-14.527 8.9444-2.708 0.91282-4.8361 4.5677-7.4936 5.1148-2.6574 0.54709-9.9159 14.886-12.268 17.816-2.8024-6.881-8.9045-32.631-12.691-20.828-2.7838 0.27261-19.044 25.362-23.138 30.068-2.772-3.79-0.08042-27.353-2.7266-27.814-3.7917 1.7121-13.019 16.66-19.317 21.251-0.25525-4.0759 0.48511-9.7687 2.962-18.834-4.9625 2.5101-11.988 11.699-11.988 11.699 2.4664-9.6873 1.6158-17.719 6.9473-24.995 16.805-22.934 34.425-42.343 54.201-65.515l14.81-11.671c2.6996-3.2115 5.6565-5.4916 6.1334-8.6924 4.0091 0.32275 7.905 0.75156 12.016 1.1967 4.5656 3.5973 35.055 8.1627 60.781 2.6703 4.0425-0.131 7.8044-0.38872 11-0.83056 0.95854 1.8756 2.9009 5.5876 5.2248 7.3138l11.597 9.674z" fill="url(#linearGradient1455)" stroke="#000" stroke-miterlimit="4.4737" stroke-width=".49681"/><path d="m89.839 13.218-0.03269 0.22308c-0.22402 1.5035-0.86118 2.5827-1.7827 3.6962-0.91664 1.1076-2.1209 2.2407-3.4327 3.7981l-14.375 11.331-0.01539 0.01731c-19.191 22.487-36.298 41.33-52.618 63.602-5.232 7.1403-4.4 14.984-6.7827 24.342l0.42693 0.20577s1.699-2.2223 3.9981-4.7481c2.1529-2.3652 4.8136-4.8884 7.0712-6.1866-2.2452 8.378-2.9856 13.845-2.7423 17.729l0.02692 0.43846 0.35577-0.25962c3.112-2.2683 6.8712-7.0135 10.335-11.406 1.7318-2.1962 3.3868-4.3038 4.8327-5.9596 1.4139-1.6191 2.6262-2.7598 3.4596-3.1635 0.06091 0.0279 0.12252 0.0531 0.2 0.175 0.10132 0.15947 0.20243 0.40922 0.28846 0.7327 0.17207 0.64696-0.15313 1.7364-0.07451 2.8611 0.15725 2.2494-0.07615 5.2621-0.07402 8.3789 0.0022 3.1168-0.02698 6.3369 0.14739 9.0174 0.17435 2.6805 0.04687 4.8039 0.80072 5.8346l0.17692 0.24424 0.19808-0.22885c2.0221-2.3248 7.5217-10.584 12.299-17.273 2.3889-3.3445 5.3027-5.6575 7.2184-8.0417 0.95785-1.1921 1.8092-2.1782 2.4962-2.8673 0.34349-0.34459 0.64724-0.61392 0.89616-0.79616s0.44934-0.26857 0.53462-0.27692l0.15769-0.0154 0.04808-0.15c0.45261-1.4108 0.94553-2.2342 1.3904-2.5769 0.22243-0.17139 0.42251-0.23127 0.6327-0.21731 0.21019 0.014 0.44107 0.10999 0.69424 0.29999 1.0127 0.76004 2.2109 3.0036 3.3462 5.8174 2.2706 5.6275 4.4235 13.53 5.8 16.91l0.15577 0.37885 0.25577-0.31924c1.186-1.4771 3.4959-5.6429 5.8616-9.5385 1.1829-1.9478 2.375-3.8227 3.425-5.2346 0.52502-0.70601 1.0148-1.2966 1.4442-1.7192 0.42946-0.42267 0.80731-0.66587 1.0385-0.71347 1.381-0.28432 2.5613-1.3418 3.7308-2.4077s2.3293-2.1474 3.5693-2.5654c0.70218-0.23669 1.7378-0.80763 2.9731-1.5577 1.2353-0.75005 2.6613-1.6776 4.0885-2.6212 2.8543-1.8871 5.7374-3.8421 7.0712-4.5154 0.27223-0.13743 0.66594-0.15852 1.1654-0.05577 0.49945 0.10275 1.0936 0.32567 1.7462 0.62885 1.3052 0.60637 2.8418 1.5323 4.3885 2.4423s3.1034 1.8055 4.4789 2.35c0.68774 0.27224 1.33 0.45669 1.9135 0.5077 0.45276 0.03958 0.83344-0.09613 1.2-0.25577 1.3241 18.04 10.845 27.58 14.969 31.759l0.25578 0.24039 0.13269-0.32309c1.9316-4.6989 3.2601-12.667 5.4022-18.872 1.071-3.1025 2.1356-5.9876 3.1596-8.2462 0.94608-2.0867 1.8672-3.5433 2.6558-4.2096 1.4833 3.2377 4.4313 10.333 7.577 17.433 1.6035 3.6193 3.2437 7.2021 4.7366 10.2 1.4928 2.998 2.8308 5.4048 3.8693 6.7097l0.26154 0.32885 0.15192-0.39039c5.9483-15.218 6.2684-21.19 10.248-28.144 1.5402 0.76184 3.2603 2.5018 5.0808 4.8962 1.8925 2.4892 3.8932 5.6204 5.9635 8.8943 4.1406 6.5479 8.545 13.666 13.002 17.431l0.0327 0.027 0.0404 0.0154c0.11812 0.0433 0.2768 0.0109 0.36923-0.0615 0.0925-0.0725 0.1442-0.16214 0.19039-0.26346 0.0924-0.20265 0.15349-0.46941 0.20962-0.81539 0.11223-0.69195 0.18374-1.6877 0.23077-2.8942 0.094-2.4132 0.0888-5.6672 0.0769-8.9193s-0.0302-6.5022 0.0423-8.8943c0.0362-1.196 0.0959-2.1791 0.18654-2.8289 0.0453-0.32491 0.10195-0.56881 0.15192-0.69231 2e-3 -4e-3 2.1e-4 -2e-3 2e-3 -6e-3 3.8102 1.7092 8.8992 3.6168 11.6 7.3767 1.3618 1.8957 2.515 3.6797 3.4039 4.9846 0.44445 0.65249 0.82113 1.1846 1.1327 1.5577 0.15579 0.18658 0.29513 0.33299 0.42886 0.44038 0.13373 0.1074 0.27032 0.20213 0.46539 0.16924l0.11923-0.0192 0.0557-0.1077c0.65709-1.2736-0.19815-1.9532 0.59233-5.5228 0.76552-3.4568 1.5977-7.4569 2.4577-10.967 2.5142 1.6775 6.8686 3.2543 8.2416 4.7797 1.4383 1.598 3.2591 3.6816 7.5289 7.3866l0.28077 0.24423 0.10769-0.35577c0.0942-0.31103 0.0882-0.71417 0.0385-1.2308-0.0498-0.5166-0.15074-1.1417-0.28463-1.8616-0.26777-1.4396-0.66581-3.2523-1.0404-5.2616-0.70893-3.8028-4.5109-8.7545-4.0281-12.73 1.5541 2.2346 3.8922 0.39173 6.1642 3.4139 2.4334 3.2367 0.29044 2.4452 10.299 12.725l0.35 0.16154-8e-3 -0.38653c-0.19424-8.3505-7.9443-22.291-11.779-31.43l-0.0288-0.07116-0.0654-0.04039c-3.7357-2.3313-9.2606-1.8485-12.386-2.4931-1.5629-0.32231-2.9166-0.55554-3.9173-0.80962-0.50035-0.12704-0.91334-0.26072-1.2116-0.40577-0.29819-0.14505-0.47038-0.29805-0.54038-0.44039l-8e-3 -0.01346-0.01-0.01346-32.654-49.014-11.287-9.4154-6e-3 -0.0038c-2.2004-1.6344-3.4021-3.9925-4.3327-5.8135l-0.0769-0.15192-0.17116 0.02308c-0.64837-0.05911-7.2016 0.41668-7.9488 0.38721-7.4722 4.7997-58.224 5.7298-64.715-2.6221-3.3867-0.44709-6.6462-0.84916-9.9505-1.1152zm0.37308 0.52116c3.2462 0.26642 6.4579 0.66345 9.799 1.1039 6.0512 8.1599 57.479 7.5859 64.844 2.9842 0.63061 0.12298 7.1072-0.67437 7.7233-0.75154 0.92254 1.805 2.1378 4.1624 4.3943 5.8385l-0.0115-0.0077 11.229 9.3674 32.616 48.954-0.0154-0.02692c0.14167 0.28804 0.41244 0.49172 0.76154 0.66154 0.34911 0.16982 0.78728 0.30731 1.3039 0.43846 1.0332 0.26232 2.385 0.49308 3.9385 0.81347 3.0904 0.63733 8.5273 0.14726 12.169 2.4047 3.7589 8.9486 11.204 22.496 11.616 30.59-9.855-11.429-7.4315-9.2245-9.6841-12.221-2.4206-3.2197-5.0036-1.7658-6.5758-4.0004l-0.34232-0.48655-0.0923 0.58846c-0.66271 4.2374 3.2638 9.5567 4.0166 13.593 0.37627 2.0182 0.77309 3.8348 1.0385 5.2616 0.1327 0.71339 0.23345 1.3301 0.28078 1.8212 0.0263 0.27272-4e-3 0.39222-0.0115 0.57886-3.9018-3.4225-5.7204-5.455-7.1058-6.9943-1.4424-1.6026-5.8057-3.2352-8.6224-5.074l-0.28462-0.18654-0.0807 0.32885c-0.89368 3.6042-1.753 7.7724-2.5423 11.337-0.76615 3.4597 0.082 3.9891-0.4885 5.1824-0.0877-0.0746-0.19744-0.18648-0.33076-0.34616-0.28938-0.34657-0.66428-0.87107-1.1058-1.5192-0.88301-1.2963-2.0414-3.0869-3.4116-4.9943-2.7403-3.8147-7.876-5.8385-11.892-7.594-0.11552-0.0504-0.28664-0.0162-0.375 0.0597-0.0883 0.0758-0.13086 0.16385-0.17115 0.26345-0.0806 0.19923-0.1348 0.46245-0.1827 0.80578-0.0958 0.68667-0.15388 1.6789-0.19038 2.8827-0.073 2.4076-0.0561 5.6581-0.0442 8.9097s0.0183 6.5028-0.075 8.8981c-0.0467 1.1977-0.11939 2.1835-0.22501 2.8346-0.0524 0.32282-0.11692 0.56356-0.17307 0.68847-4.3092-3.6999-8.6834-10.708-12.789-17.2-2.0711-3.2752-4.0773-6.4151-5.9885-8.9289s-3.7172-4.4084-5.4596-5.1846l-0.19616-0.0884-0.10961 0.18655c-4.1181 7.0678-4.4287 13.021-10.223 27.971-0.9632-1.2934-2.1814-3.409-3.575-6.2077-1.4873-2.9869-3.125-6.5631-4.727-10.179-3.2039-7.2315-6.2637-14.615-7.727-17.781l-0.11924-0.25769-0.23653 0.15962c-1.0194 0.69194-1.993 2.3653-3.0289 4.65-1.0358 2.2847-2.1038 5.1819-3.177 8.2904-2.1032 6.0925-3.3811 13.827-5.2675 18.486-3.695-4.2745-13.363-13.655-14.588-31.424l-0.0289-0.42308-0.34807 0.24231c-0.3094 0.21408-0.71727 0.29279-1.2289 0.24808-0.51159-0.04471-1.1174-0.21703-1.7789-0.47885-1.3228-0.52364-2.8681-1.4072-4.4116-2.3154-1.5435-0.90819-3.0848-1.8391-4.4289-2.4635-0.67202-0.3122-1.2951-0.54851-1.8539-0.66347-0.55879-0.11496-1.0633-0.1136-1.4788 0.09616-1.4172 0.7154-4.2704 2.6594-7.1212 4.5443-1.4254 0.94243-2.8462 1.8678-4.0712 2.6116-1.2249 0.74376-2.265 1.3072-2.8769 1.5135-1.3883 0.46799-2.5752 1.6034-3.7404 2.6654s-2.3057 2.0437-3.5039 2.2904c-0.41366 0.0852-0.82044 0.39115-1.2789 0.84231-0.45842 0.45118-0.96042 1.0572-1.4942 1.775-1.0677 1.4357-2.2619 3.3198-3.4481 5.2731-2.2704 3.7388-4.4238 7.5425-5.575 9.0789-1.35-3.4516-3.4123-10.923-5.6385-16.44-1.1447-2.8372-2.2874-5.1102-3.5039-6.0231-0.30411-0.22824-0.62326-0.37228-0.95385-0.39423-0.33059-0.022-0.66116 0.0869-0.9577 0.31538-0.57353 0.44191-1.0511 1.3492-1.5039 2.7192-0.1997 0.054-0.39417 0.12753-0.61924 0.29231-0.28105 0.20576-0.59754 0.49064-0.95193 0.84616-0.70877 0.71103-1.5651 1.7064-2.5289 2.9058-1.9275 2.3988-4.8447 4.7154-7.2357 8.0628-4.6791 6.5508-9.9844 14.488-12.019 16.891-0.50638-0.93999-0.42367-2.7911-0.58149-5.2173-0.17277-2.6562-0.14719-5.8702-0.14932-8.9866-0.0022-3.1164 0.23531-6.1341 0.07594-8.4135-0.07968-1.1397 0.24436-2.2459 0.0572-2.9496-0.09358-0.35185-0.20227-0.64277-0.34616-0.86924-0.14389-0.22646-0.33879-0.40109-0.58654-0.44423l-0.07308-0.0135-0.06731 0.0307c-1.0065 0.4545-2.2445 1.6866-3.7039 3.3577s-3.1168 3.7832-4.8481 5.9789c-3.316 4.2053-6.8861 8.6091-9.8212 10.906-0.15972-3.8808 0.52738-9.1833 2.8308-17.614l0.14423-0.52308-0.48462 0.24424c-2.4731 1.2509-5.38 4.1018-7.6943 6.6443-1.964 2.1577-2.9976 3.5206-3.4154 4.0577 2.1197-9.0112 1.577-16.503 6.5193-23.248 16.297-22.241 33.392-41.07 52.583-63.556l14.373-11.329 0.01538-0.01731c1.3002-1.5468 2.5035-2.6747 3.4539-3.8231 0.89999-1.0875 1.5437-2.2291 1.8154-3.7058z" color="#000000" color-rendering="auto" dominant-baseline="auto" enable-background="accumulate" fill="#ffd42a" image-rendering="auto" shape-rendering="auto" solid-color="#000000" stroke="#000" stroke-miterlimit="4.4737" stroke-width=".18708" style="font-feature-settings:normal;font-variant-alternates:normal;font-variant-caps:normal;font-variant-ligatures:normal;font-variant-numeric:normal;font-variant-position:normal;isolation:auto;mix-blend-mode:normal;shape-padding:0;text-decoration-color:#000000;text-decoration-line:none;text-decoration-style:solid;text-indent:0;text-orientation:mixed;text-transform:none;white-space:normal"/><path d="m224.73 82.413c0.87231 1.7737 9.4702 1.1583 17.089 5.9128 3.9556 9.426 9.7877 21.597 9.9853 30.092-3.8843-1.7976-10.329-11.907-13.559-16.498-1.3487 8.6235 2.7271 19.896 2.1129 21.924-8.7816-7.6199-7.4397-8.5203-13.214-12.29-1.8379 7.412-3.5378 17.172-4.8107 19.64-1.1784 0.19871-7.7972-13.803-15.899-17.344-1.4329-0.62556 0.18438 26.785-1.4212 26.196-9.0708-7.6631-18.174-29.295-25.032-32.35-4.2665 7.3225-4.5012 13.435-10.694 29.278-4.1659-5.2348-13.792-29.186-16.795-35.683-3.8036 2.5817-12.433 20.289-12.72 31.709-4.3638-4.1103-13.23-13.19-14.519-31.895-3.0366 2.1012-12.836-7.1583-15.671-5.7275-2.8344 1.4308-11.819 8.0316-14.527 8.9444-2.708 0.91282-4.8361 4.5677-7.4936 5.1148-2.6574 0.54709-9.9159 14.886-12.268 17.816-2.8024-6.881-8.9045-32.631-12.691-20.828-2.7838 0.27261-19.044 25.362-23.138 30.068-2.772-3.79-0.08042-27.353-2.7266-27.814-3.7917 1.7121-13.019 16.66-19.317 21.251-0.25525-4.0759 0.48511-9.7687 2.962-18.834-4.9625 2.5101-11.988 11.699-11.988 11.699 2.4664-9.6873 1.6158-17.719 6.9473-24.995 16.805-22.934 34.425-42.343 54.201-65.515l12.167 10.608c2.6997-3.2115 5.6565-5.4916 6.1334-8.6924 4.0091 0.32275 7.905 0.75156 12.016 1.1967 4.5656 3.5973 35.055 8.1627 60.781 2.6703 4.0425-0.131 7.8044-0.38872 11-0.83056 0.95854 1.8756 2.9008 5.5876 5.2248 7.3138l14.24-12.605z" fill-opacity=".1206" stroke-miterlimit="4.4737"/><g stroke="#000"><g><path d="m109.81 84.666c-0.27024 32.134 6.5613 72.029 13.414 106.32l19.849-114.66c-26.304 1.1149-3.0294 0.72116-33.263 8.3385z" fill="url(#linearGradient1467)" stroke-width=".52283"/><path d="m123.94 138.59-0.0526-0.5105c-0.10417 0.13419-0.43797 0.17792-0.56739-0.059-0.14994-0.31325-0.0838-0.62668-0.0278-0.94012-0.1265 0.19641-0.32722 0.11617-0.42625-0.0542 0.0612 0.36851 0.0832 0.70324-0.0341 0.9174-0.10588 0.14083-0.42058 0.15519-0.53411-0.0746-0.0238 0.15527 3e-3 0.32662-0.0144 0.49821 0.14686-0.22835 0.46315 0.0217 0.58401 0.10943l0.32543 6.1826 0.14197-6.1463c0.13489-0.13885 0.48276-0.0144 0.60533 0.0795zm-0.59837-9.5302 0.98677 0.14842-5e-3 -0.791-0.99624-0.17051-0.24717-3.1607-0.20257 3.0974-0.99606-0.14078 6e-3 0.7911 0.98686 0.16012-0.016 4.1671-0.29221 2.6733-1.4019 1.7478 0.88503 3.4346c1.2672 4.5379 0.87481 8.3 0.055 11.837l0.0679 4.0742c-0.19764 0.35214-0.59511 0.33425-0.73262-0.0575 0 0-0.27205 0.34889-0.29556 0.64544-0.0319 0.40305 0.43075 1.1252 0.43075 1.1252 0.25392-0.1099 0.49503-0.47545 0.79029 0.23584l1.0606 14.726 0.85285-14.434c0.28578-0.6205 0.53245-0.17922 0.78869 0.0109 0 0 0.45346-0.57905 0.41571-0.99298-0.0278-0.30453-0.30545-0.7393-0.30545-0.7393-0.13219 0.34944-0.53031 0.24318-0.73342-0.17169l0.01-4.0621c-0.86946-4.073-1.4158-8.0976-0.11363-11.847l0.83805-3.1653-1.43-2.1903-0.33098-2.7706z" fill="#ffd42a" fill-rule="evenodd" stroke-miterlimit="4.4737" stroke-width=".096082"/><path d="m127.24 80.37c0.62824-0.18123 1.3956-0.32962 2.4617-0.46002 2.1323-0.26079 5.4788-0.45575 11.39-0.7063l0.44859-0.01881-17.929 104.22-0.34338 1.8668-0.29402-1.9001c-5.9539-30.682-11.696-66.932-11.68-96.18 0.15622-0.0016 0.16759-0.35747 0.25138-0.5362 13.573-3.4198 12.039-4.6038 14.07-5.6305 0.5077-0.25666 0.9964-0.47032 1.6246-0.65151zm0.15976 0.88506c-0.5952 0.17109-1.0504 0.37093-1.542 0.61943-1.9469 0.98426-0.59969 2.2198-13.848 5.58-0.0293 28.522 5.3201 63.954 11.293 93.917l17.38-101.23c-5.4805 0.23649-8.8848 0.42722-10.902 0.67399-1.0505 0.12849-1.7851 0.27009-2.3803 0.44119z" color="#000000" color-rendering="auto" dominant-baseline="auto" enable-background="accumulate" fill="#ffd42a" image-rendering="auto" shape-rendering="auto" solid-color="#000000" stroke-width=".15795" style="font-feature-settings:normal;font-variant-alternates:normal;font-variant-caps:normal;font-variant-ligatures:normal;font-variant-numeric:normal;font-variant-position:normal;isolation:auto;mix-blend-mode:normal;shape-padding:0;text-decoration-color:#000000;text-decoration-line:none;text-decoration-style:solid;text-indent:0;text-orientation:mixed;text-transform:none;white-space:normal"/></g><g transform="matrix(.74458 .028758 -.015805 .7311 294.8 -38.311)"><path d="m-151.24 175.51c1.4997 37.744 9.2337 96.305 7.7221 134.94-27.21-43.229-48.954-112.9-67.414-150.07 44.147-33.327 12.415 17.873 59.691 15.13z" fill="url(#linearGradient1469)" stroke-width=".78571"/><path d="m-159.95 256.06-0.0746-0.56456c0.19537 0.10509 0.70569 0.0293 0.82744-0.27127 0.12946-0.3896-0.063-0.70008-0.24039-1.0143 0.2473 0.16335 0.52222 4e-3 0.61868-0.21431 0.0192 0.41606 0.0868 0.78163 0.32575 0.9673 0.1999 0.11156 0.67298 0.0114 0.7732-0.2757 0.0821 0.15707 0.0942 0.34976 0.17077 0.52683-0.28719-0.19-0.68338 0.19311-0.83711 0.33121l1.3682 6.7227-2.0535-6.5125c-0.24253-0.0988-0.72338 0.16182-0.87782 0.30707zm-1.9649-10.398-1.4253 0.52066-0.22905-0.84679 1.4328-0.54773-0.57909-3.4664 1.23 3.2339 1.4415-0.51592 0.22831 0.84709-1.422 0.53319 1.2726 4.4449 1.2364 2.748 2.612 1.3522-0.28893 3.9931c-0.52757 5.3118 1.1844 9.1858 3.4657 12.663l1.1198 4.3763c0.39992 0.30358 0.9866 0.1386 1.074-0.33024 0 0 0.50979 0.2728 0.63367 0.5809 0.1683 0.41878-0.30436 1.3599-0.30436 1.3599-0.41117-0.0242-0.87986-0.32614-1.1065 0.54192l2.8336 16.117-5.5962-15.103c-0.61165-0.55784-0.84683 4e-3 -1.1715 0.30111 0 0-0.84898-0.45204-0.91681-0.90799-0.0499-0.33544 0.23341-0.90171 0.23341-0.90171 0.30162 0.3247 0.86279 0.0651 1.041-0.45254l-1.2324-4.3348c0.0744-4.6692-0.31802-9.1682-3.3813-12.695l-2.197-3.0731 1.4736-2.8641-0.33736-3.0806z" fill="#ffd42a" fill-rule="evenodd" stroke-miterlimit="4.4737" stroke-width=".12531"/><path d="m-184.47 178.2c-0.9901 0.037-2.8061-29.45-4.4332-29.198-3.2542 0.50399-9.3465 11.831-18.227 13.733l-0.67383 0.14454c19.263 47.452 38.766 94.818 61.757 140.93l1.071 1.8678-0.13152-2.1373-7.5986-124.78c-0.23316 0.0557-0.35677-0.32029-0.53516-0.48043-21.243 1.3288-25.281 0.3727-28.613 0.0215-0.83315-0.0878-1.6251-0.13665-2.6152-0.0996zm0.0273 1.0039c0.93783-0.0357 1.6757 0.0107 2.4824 0.0957 3.195 0.33672 7.527 1.2792 28.268 6e-3l7.497 122.22c-22.476-45.411-41.289-91.67-60.044-137.94 8.2342-1.7587 14.411-13.111 17.491-13.588 1.6032-0.24829 3.3684 29.243 4.3063 29.208z" color="#000000" color-rendering="auto" dominant-baseline="auto" enable-background="accumulate" fill="#ffd42a" image-rendering="auto" shape-rendering="auto" solid-color="#000000" stroke-width=".206" style="font-feature-settings:normal;font-variant-alternates:normal;font-variant-caps:normal;font-variant-ligatures:normal;font-variant-numeric:normal;font-variant-position:normal;isolation:auto;mix-blend-mode:normal;shape-padding:0;text-decoration-color:#000000;text-decoration-line:none;text-decoration-style:solid;text-indent:0;text-orientation:mixed;text-transform:none;white-space:normal"/></g><g transform="matrix(.42916 -.023148 .11122 .80306 125.48 -225.83)"><path d="m166.89 393.78c2.6268 38.058 8.6798 77.067 4.4991 113.23-26.926-34.398-41.737-72.686-62.513-109.06 39.516-8.4629 10.697-1.2131 58.014-4.1729z" fill="url(#linearGradient1471)" stroke-width="1.4527"/><path d="m154.63 451.31-0.0746-0.56456c0.19537 0.10509 0.70569 0.0293 0.82744-0.27127 0.12946-0.3896-0.063-0.70008-0.24039-1.0143 0.2473 0.16335 0.52222 4e-3 0.61868-0.21431 0.0192 0.41606 0.0868 0.78163 0.32575 0.9673 0.1999 0.11156 0.67298 0.0114 0.7732-0.2757 0.0821 0.15707 0.0942 0.34976 0.17077 0.52683-0.28719-0.19-0.68338 0.19311-0.83711 0.33121l1.3682 6.7227-2.0535-6.5125c-0.24253-0.0988-0.72338 0.16182-0.87782 0.30707zm-1.9649-10.398-1.4253 0.52066-0.22905-0.84679 1.4328-0.54773-0.57909-3.4664 1.23 3.2339 1.4415-0.51592 0.22831 0.84709-1.422 0.53319 1.2726 4.4449 1.2364 2.748 2.612 1.3522-0.28893 3.9931c-0.52757 5.3118 1.1844 9.1858 3.4657 12.663l1.1198 4.3763c0.39992 0.30358 0.9866 0.1386 1.074-0.33024 0 0 0.50979 0.2728 0.63367 0.5809 0.1683 0.41878-0.30436 1.3599-0.30436 1.3599-0.41117-0.0242-0.87986-0.32614-1.1065 0.54192l2.8336 16.117-5.5962-15.103c-0.61165-0.55784-0.84683 4e-3 -1.1715 0.30111 0 0-0.84898-0.45204-0.91681-0.90799-0.0499-0.33544 0.23341-0.90171 0.23341-0.90171 0.30162 0.3247 0.86279 0.0651 1.041-0.45254l-1.2324-4.3348c0.0744-4.6692-0.31802-9.1682-3.3813-12.695l-2.197-3.0731 1.4736-2.8641-0.33736-3.0806z" fill="#ffd42a" fill-rule="evenodd" stroke-miterlimit="4.4737" stroke-width=".12531"/><path d="m133.66 396.47c-0.9901 0.037-2.1776 0.16012-3.8047 0.41211-3.2542 0.50399-8.2974 1.5239-17.178 3.4258l-0.67383 0.14454 56.523 98.609 1.071 1.8678-0.13152-2.1373-4.043-101.76c-0.23316 0.0557-0.35677-0.32029-0.53516-0.48043-21.243 1.3288-25.281 0.3727-28.613 0.0215-0.83315-0.0878-1.6251-0.13665-2.6152-0.0996zm0.0273 1.0039c0.93783-0.0357 1.6757 0.0107 2.4824 0.0957 3.195 0.33672 7.527 1.2792 28.268 6e-3l3.9414 99.205-54.811-95.623c8.2342-1.7587 13.362-2.8044 16.441-3.2812 1.6032-0.24829 2.7399-0.36665 3.6777-0.40234z" color="#000000" color-rendering="auto" dominant-baseline="auto" enable-background="accumulate" fill="#ffd42a" image-rendering="auto" shape-rendering="auto" solid-color="#000000" stroke-width=".206" style="font-feature-settings:normal;font-variant-alternates:normal;font-variant-caps:normal;font-variant-ligatures:normal;font-variant-numeric:normal;font-variant-position:normal;isolation:auto;mix-blend-mode:normal;shape-padding:0;text-decoration-color:#000000;text-decoration-line:none;text-decoration-style:solid;text-indent:0;text-orientation:mixed;text-transform:none;white-space:normal"/></g><g transform="matrix(.52236 -.056383 .0073929 .52765 388.37 -9.356)"><path d="m-652.19 95.012c-3.881 68.098-4.0258 137 2.2014 207.26 17.968-72.783 38.668-144.31 65.999-212.77-46.825-6.484-39.369-59.838-68.2 5.5102z" fill="url(#linearGradient1465)" stroke-width="1.0045"/><path d="m-638.51 202.11 0.0323-1.0556c-0.21643 0.26024-0.81529 0.30132-0.98519-0.20395-0.18731-0.66493 6e-3 -1.2987 0.18175-1.9339-0.27107 0.38474-0.60503 0.1907-0.73772-0.17347 0.0183 0.76531-0.0258 1.4557-0.2852 1.8782-0.22108 0.27364-0.77911 0.25721-0.92273-0.23103-0.0801 0.31524-0.0758 0.67084-0.14761 1.0206 0.31477-0.44734 0.8107 0.112 1.0021 0.30991l-0.94361 12.739 1.7582-12.596c0.27171-0.26537 0.85406 0.0409 1.0471 0.25125zm1.2841-19.651 1.7022 0.44868 0.18458-1.6245-1.7134-0.49537 0.34005-6.5242-1.117 6.3287-1.7204-0.43436-0.18373 1.6248 1.6995 0.47267-1.0505 8.5518-1.1708 5.4451-2.899 3.3832 0.71662 7.1795c1.1194 9.5001-0.49555 17.165-2.8075 24.307l-0.87995 8.3732c-0.43464 0.69403-1.1305 0.59929-1.2767-0.22495 0 0-0.56495 0.67651-0.6791 1.2818-0.15506 0.82275 0.48281 2.3727 0.48281 2.3727 0.47437-0.18856 0.98886-0.90377 1.3346 0.59943l-1.7446 30.383 5.0443-29.505c0.65576-1.232 0.9821-0.29017 1.3869 0.13707 0 0 0.94102-1.1225 0.97608-1.9777 0.0261-0.62919-0.35678-1.5622-0.35678-1.5622-0.31863 0.69802-0.99401 0.42179-1.2501-0.45947l1.0144-8.337c-0.53249-8.4878-0.50763-16.829 2.7066-24.335l2.2532-6.3753-1.9821-4.7048 0.0967-5.7356z" fill="#ffd42a" fill-rule="evenodd" stroke-miterlimit="4.4737" stroke-width=".18363"/><path d="m-608.63 92.279c3.8434 0.18253 9.8154 0.9005 20.338 2.3576l0.79848 0.11098c-24.849 61.221-46.169 124.82-60.538 192.19l-0.93896 4.3152-0.17876-4.5938c-5.7101-63.891-2.7429-124.83-1.1161-186.07 0.27667 0.0488 0.3966-0.664 0.5949-0.996 18.171-65.581 28.221-18.095 33.503-6.4272 2.4265-0.93093 5.2137-0.98698 7.5373-0.88178zm-7.3478 2.6792c-3.8879-0.58822-14.904-66.139-33.096 6.3992-1.4327 60.452-3.914 120.69 1.0662 181.39 11.818-64.239 32.451-126.1 58.73-186.36-9.7569-1.3424-15.83-2.0881-19.467-2.2608-2.544-0.17397-4.9886 0.0333-7.2328 0.83339z" color="#000000" color-rendering="auto" dominant-baseline="auto" enable-background="accumulate" fill="#ffd42a" image-rendering="auto" shape-rendering="auto" solid-color="#000000" stroke-width=".30188" style="font-feature-settings:normal;font-variant-alternates:normal;font-variant-caps:normal;font-variant-ligatures:normal;font-variant-numeric:normal;font-variant-position:normal;isolation:auto;mix-blend-mode:normal;shape-padding:0;text-decoration-color:#000000;text-decoration-line:none;text-decoration-style:solid;text-indent:0;text-orientation:mixed;text-transform:none;white-space:normal"/></g><g transform="matrix(.23841 .4377 -.45779 .75723 269.15 -396.08)"><path d="m150.62 547.82 4.4991 113.23-62.513-109.06c39.516-8.4629 10.697-1.2131 58.014-4.1729z" fill="url(#linearGradient1463)" stroke-width="1.4527"/><path d="m135.5 606.99-0.12244-0.53691c0.19568 0.10491 0.67492 0.0471 0.76355-0.23434 0.0879-0.36556-0.12372-0.66498-0.3213-0.96752 0.25045 0.16153 0.49784 0.0181 0.56986-0.18609 0.0562 0.3947 0.15381 0.74289 0.39834 0.92534 0.20057 0.11117 0.64212 0.0292 0.71147-0.24002 0.0925 0.15106 0.12156 0.33395 0.21061 0.5038-0.29087-0.18787-0.63342 0.16423-0.7673 0.29086l1.9151 6.4066-2.5488-6.2262c-0.24002-0.10025-0.67437 0.13349-0.80828 0.26687zm-2.818-9.9052-1.3104 0.45423-0.29525-0.80852 1.3151-0.47968-0.86708-3.3 1.466 3.0975 1.3262-0.4493 0.29457 0.80879-1.3061 0.46619 1.6168 4.2459 1.4279 2.6373 2.6113 1.3526 0.0881 3.7752c-0.0192 5.0179 1.9642 8.7351 4.4537 12.092l1.465 4.1768c0.40859 0.29857 0.95246 0.15834 0.99309-0.28345 0 0 0.51046 0.27242 0.6565 0.56771 0.19844 0.40136-0.16619 1.28-0.16619 1.28-0.39388-0.0342-0.86784-0.33309-1.0047 0.48311l4.1659 15.347-6.7054-14.462c-0.63342-0.54525-0.80633-0.0194-1.0886 0.25318 0 0-0.84988-0.45152-0.95599-0.88534-0.0781-0.31917 0.1403-0.84789 0.1403-0.84789 0.31687 0.31588 0.82783 0.0853 0.95048-0.40022l-1.5684-4.1406c-0.35401-4.4216-1.1372-8.6946-4.3762-12.12l-2.3725-2.9716 1.1431-2.6731-0.6017-2.9278z" fill="#ffd42a" fill-rule="evenodd" stroke-miterlimit="4.4737" stroke-width=".11888"/><path d="m117.39 550.5c-0.9901 0.037-2.1776 0.16012-3.8047 0.41211-3.2542 0.50399-8.2974 1.5239-17.178 3.4258l-0.67383 0.14454 56.523 98.609 1.071 1.8678-0.13152-2.1373-4.043-101.76c-0.23316 0.0557-0.35677-0.32029-0.53516-0.48043-21.243 1.3288-25.281 0.3727-28.613 0.0215-0.83315-0.0878-1.6251-0.13665-2.6152-0.0996zm0.0273 1.0039c0.93783-0.0357 1.6757 0.0107 2.4824 0.0957 3.195 0.33672 7.527 1.2792 28.268 6e-3l3.9414 99.205-54.811-95.623c8.2342-1.7587 13.362-2.8044 16.441-3.2812 1.6032-0.24829 2.7399-0.36665 3.6777-0.40234z" color="#000000" color-rendering="auto" dominant-baseline="auto" enable-background="accumulate" fill="#ffd42a" image-rendering="auto" shape-rendering="auto" solid-color="#000000" stroke-width=".206" style="font-feature-settings:normal;font-variant-alternates:normal;font-variant-caps:normal;font-variant-ligatures:normal;font-variant-numeric:normal;font-variant-position:normal;isolation:auto;mix-blend-mode:normal;shape-padding:0;text-decoration-color:#000000;text-decoration-line:none;text-decoration-style:solid;text-indent:0;text-orientation:mixed;text-transform:none;white-space:normal"/></g><g><path d="m65.438 81.698 3.0749-9.5491c0.49464-1.536-1.8369-7.1064-6.7699-15.562l2.8019-16.915c-0.9448-1.2688-3.504 0.04185-7.0053 0.07129l-3.0726 19.798c-0.64944 2.9901-0.39437 14.766-0.39437 14.766l5.3579 7.7243 6.0073-0.33222z" fill="url(#linearGradient1495)" stroke-miterlimit="4.4737" stroke-width=".48447"/><g transform="matrix(-1.2251 0 0 1.1974 287.49 -1.1639)" stroke-miterlimit="4.4737" stroke-width=".4"><path d="m149.51 49.26-6.8044 0.57668-12.333-1.3874-2.4985-13.748 20.047-3.3144 16.042 3.1527c-0.28188 4.7426 2.288 9.2553 0.97534 13.864l-6.983 0.33898c-3.8107 3.2205-0.90276-3.2725-8.4451 0.51677z" fill="url(#linearGradient1405)"/><path d="m226.42 104.34-7.8258-4.3055c12.849 31.395 10.392 42.242 14.532 59.974 0.28387-1.6137 1.1858-3.2275 0.56114-4.8412z" fill="url(#linearGradient1439)"/><path d="m222.64 90.57c-0.38351 0-23.586-9.3961-23.586-9.3961l-8.6876-9.493-8.0624-20.038 35.925 20.135z" fill="url(#linearGradient1497)"/></g><path d="m61.997 62.241s-8.8457 21.526-9.1211 21.787c-1.8947 1.7989-9.4423 9.1963-10.249 10.434-0.94403 1.448-19.513 8.3383-19.513 8.3383" fill="none" stroke-width=".36335"/><path d="m144.22 85.072-5.3174-6.9109 2.1638-16.855 14.115 4.7953-5.0983 19.553-5.8626-0.58029z" fill="url(#linearGradient1499)" stroke-miterlimit="4.4737" stroke-width=".36333"/><path d="m216.43 32.631-26.239-7.0615-18.758-1.2715-18.663 6.9432-8.267 13.312c7.3699 13.284 9.2482 27.006 5.6345 41.168 10.249 8.7265 21.459 16.277 29.248 28.017l6.3875 8.5973c10.584-3.208 21.648-5.3793 31.078-11.077l6.6661-6.8194 15.469 7.8838c1.9432-10.594 1.2213-18.509-2.9011-23.007z" fill="url(#linearGradient1479)" stroke-miterlimit="4.4737" stroke-width=".48447"/><path d="m226.37 73.476c-6.5607 2.7893-6.7336 5.1875-14.303 6.7806-0.8268-0.16507-4.6613-3.0783-6.914-3.4945-1.6146 1.9077-4.1932 1.4324-4.1932 1.4324l-23.467-13.562" fill="none" stroke-width=".48447"/><path d="m162.42 28.675c0.0573 0.317-5.0272 2.0796-8.798 3.4812l-3.8076 7.3031c0.58786 3.4493 3.1795 19.495 3.3157 20.018 0.78394 3.0097 0.26792 9.3626 0.33878 12.241 0.10236 4.1572-0.86907 8.4672-0.70059 12.317 5.7003 5.3704 13.161 11.465 18.095 15.98 4.2589 3.8959 9.9454 11.6 15.433 19.75 8.7685-2.5008 17.811-2.6704 26.558-7.9946 5.0868-3.0962 8.2894-7.5033 12.412-11.274l8.3972 7.6947c0.92933 0.66339 3.4433 1.6419 4.4332 1.9511 0.72928-6.8459-0.0964-11.648-1.6515-15.266" fill="none" stroke-width=".36335"/><path d="m226.09 130.57c-10.624-1.2919-21.329-2.875-32.007-4.3573 18.6 17.231 17.62 58.764 16.887 92.2 6.8955-16.551 1.217-74.697 15.12-87.842z" fill="url(#linearGradient1371)" stroke-miterlimit="4.4737" stroke-width=".48447"/><path d="m223.28 63.831c-6.5607 2.7893-7.1158 5.4516-14.303 6.7806-0.8054-0.16081-3.7823-2.597-5.9751-3.0022-2.4758 1.6771-5.1321 0.94022-5.1321 0.94022l-23.467-13.562" fill="none" stroke-width=".48447"/></g><g stroke-miterlimit="4.4737"><path d="m218.71 146.1c1.4712-26.349-1.9689-37.446-3.4924-53.839 2.1937-1.848 3.8537-10.857 3.1948-21.611-0.73143-11.94-8.3278-14.395-6.8097-17.495l10.078-18.469 7.3833 10.281 12.759 43.363c-6.3581 15.062-12.216 30.301-11.496 47.865-3.5274 2.9906-6.4704 6.209-8.5413 9.7677-1.5639-0.29423-2.7626-0.35809-3.0758 0.13663z" fill="url(#linearGradient1355)" stroke-width=".48447"/><path d="m97.797 97.468 7.8074-2.9225 16.504-8.3657-2.9103-18.521-26.599-4.659-21.285 4.4317c0.37401 6.6666-1.8612-4.0961-0.11945 2.3826 2.7356 4.1463 4.3637 9.9207 0.2717 15.558 0.45107 5.2366 20.288 7.6078 26.33 12.096z" fill="url(#linearGradient1447)" stroke-width=".54627"/><path d="m171.43 24.299 7.2364 10.964 8.1056 0.71977 3.8698 4.2233-2.6484 3.0592 4.1475 3.405c-9.9369 13.668 5.5582 32.54 14.212 43.034-0.36677 17.877-0.57374 29.119-1.1 53.629-0.30134-0.61821-1.8799-0.76819-3.2358-0.69495-2.8239-4.8324-9.348-11.349-15.459-14.204 2.6791-22.172-8.0995-39.739-25.764-54.951 0.94527-10.73-3.0829-20.574-7.2644-30.39 2.7025-6.1366 5.9239-11.982 6.2939-19.427 3.2687-0.9693 6.9944-1.0403 11.606 0.62965z" fill="url(#linearGradient1347)" stroke-width=".48447"/></g><path d="m215.22 92.25c7.8526-8.2739 15.965-20.665-0.93872-41.745" fill="none" stroke-width=".48447"/></g><path d="m215.22 92.25c7.2399-7.9717 8.7964-12.431 8.9083-21.658-2.9271-13.41-7.7441-16.34-11.87-22.23l0.92329 7.8752c2.5966 4.1725 5.4705 8.719 5.5377 16.043-9.8e-4 10.912-1.3817 15.449-3.4992 19.97z" fill-opacity=".14573" stroke-width="1.2112"/><path d="m184.79 105.99c7.996-4.2799 15.209-9.6733 21.563-16.287-18.223-13.695-27.737-33.508-20.761-43.594-2.8139-8.3899-7.9554-7.9321-6.926-10.848l4.3677-10.336c-3.8592-0.92499-7.7109-2.4187-11.606-0.62965-0.061 7.7924-3.8399 13.181-6.2939 19.427 2.5067 9.5416 11.538-0.27292 12.355 20.909 5.5281-9.9749 8.663 12.401 4.8572 19.064 6.3269 6.1623-0.89625 13.446 2.4439 22.296z" fill-opacity=".31156" opacity=".19" stroke-width="1.2112"/><g stroke="#000"><g stroke-miterlimit="4.4737"><g transform="matrix(-1.2251 .0013873 .0013559 1.1974 289.57 .78606)" stroke-width=".39984"><path d="m74.324 12.296-4.7226-2.1475c-11.031 6.9672-14.551 15.194-14.708 15.516 0.27742 2.5782 0.3844 5.5222 0.0171 9.4836 5.2795 3.9065 7.6429 7.7217 11.183 11.574 6.9752-7.4294 18.287-9.4093 24.59-14.266 2.398-10.283 8.0218-13.411 11.283-16.656-6.4105-4.5902-15.568-5.4092-20.487-5.2969-4.4127 0.10071-6.3909 2.6564-7.1565 1.7938z" fill="url(#linearGradient1363)"/><ellipse transform="rotate(-20.009)" cx="70.564" cy="58.414" rx="1.2542" ry="1.2203" fill="#ffb380" fill-rule="evenodd" stroke-linecap="round" stroke-linejoin="round" style="paint-order:fill markers stroke"/><ellipse transform="rotate(17.717)" cx="65.024" cy="14.38" rx=".77966" ry="1.0847" fill="#ffb380" fill-rule="evenodd" stroke-linecap="round" stroke-linejoin="round" style="paint-order:fill markers stroke"/></g><path d="m208.66 56.822c0.44104-12.276 0.82659-24.574-10.129-41.209" fill="none" stroke-width=".48447"/><g fill="#ffb380"><g fill-rule="evenodd" stroke-linecap="round" stroke-linejoin="round"><ellipse transform="matrix(-.42825 -.90366 -.91259 .40888 0 0)" cx="-131.9" cy="-120.99" rx="1.351" ry="1.8318" stroke-width=".48452" style="paint-order:fill markers stroke"/><ellipse transform="matrix(-.87219 -.48916 -.50193 .86491 0 0)" cx="-237.77" cy="15.86" rx="2.5481" ry="2.2736" stroke-width=".48449" style="paint-order:fill markers stroke"/><ellipse transform="matrix(-.9761 .21732 .20382 .97901 0 0)" cx="-190.93" cy="180.02" rx="1.4488" ry="1.9955" stroke-width=".34072" style="paint-order:fill markers stroke"/></g><path d="m121.88 63.21s-8.5746 0.52553-13.758 0.232c-5.1826-1.3267-6.7419-3.0421-10.688-3.5907-3.946-0.54853-12.598 0.59851-12.598 0.59851l-8.6379 0.64944 0.37376-4.2417s7.9444-2.7561 12.085-3.3893c2.1384-0.32705 4.3939 0.33011 6.4903-0.19669 3.2012-0.80444 8.83-4.4093 8.83-4.4093s8.6071 5.7707 14.271 6.6872c3.0017 0.48564 9.6907-1.3968 9.6907-1.3968z" fill="url(#linearGradient1511)" stroke-width=".48447"/><path d="m118.4 68.502s-8.5746 0.52553-13.758 0.232c-5.1826-1.3267-6.7419-3.0421-10.688-3.5907-3.946-0.54853-12.598 0.59851-12.598 0.59851l-8.6379 0.64944 0.37376-4.2417s7.9571-2.6808 12.085-3.3893c2.9476-0.50594 5.9753-0.34812 8.9569-0.59851 2.9366-0.24659 4.8226 0.13265 8.7949-0.88989 3.7924 2.0944 15.305 4.0861 15.305 4.0861l6.0495 0.78452z" fill="url(#linearGradient1513)" stroke-width=".48447"/></g></g><g><path d="m129.29 50.115s-6.2766 2.045-9.2252 2.2353c-0.58276 0.03759-1.1892 0.01549-1.7442-0.16236-5.1794-1.6597-14.037-8.1992-14.037-8.1992s-2.8344 2.715-4.402 3.8966c-1.806 1.3613-3.5093 3.1492-5.731 3.653-1.3313 0.30197-2.8835 0.17622-4.0698-0.48708-1.937-1.083-4.0698-5.1955-4.0698-5.1955" fill="none" stroke-width=".36335"/><g stroke-miterlimit="4.4737"><path d="m129.44 40.804-9.5491 3.0749c-1.536 0.49464-7.1064-1.8369-15.562-6.7699-11.894 6.5141-9.7115 8.1663-13.009 5.7104l-3.9061-2.9085c-1.2688-0.9448 0.04185-3.504 0.07129-7.0053l9.2312-3.2234s7.1614-0.82334 10.567 0.15083c2.9901-0.64944 14.766-0.39436 14.766-0.39436l7.7243 5.3579-0.33222 6.0073z" fill="url(#linearGradient1509)" stroke-width=".48447"/><path d="m90.382 36.322a1.7024 2.7295 13.348 0 0 1.458 2.5357 1.7024 2.7295 13.348 0 0 2.0382-2.8136 1.7024 2.7295 13.348 0 0-1.4481-2.5494 1.7024 2.7295 13.348 0 0-2.0452 2.8012" fill="url(#radialGradient1421)" fill-rule="evenodd" stroke-linecap="round" stroke-linejoin="round" stroke-width=".33792" style="paint-order:fill markers stroke"/><path d="m129.78 34.797 0.0465-7.2806c-2.4165-1.8463-3.4798-3.5784-7.2496-5.539-4.6728 1.7018-12.502 5.5537-16.819 3.6025-6.4474 1.2164-5.7262-1.4478-11.635-5.3459-3.4551 1.5315-4.589 5.4559-6.5169 7.3945l-0.11344 5.2777c4.6585-0.73321 4.8014-1.7081 9.2311-3.2234 0 0 3.8217 2.349 7.8651 2.3895 4.6982 0.04723 17.467-2.6331 17.467-2.6331z" fill="url(#linearGradient1507)" stroke-width=".48447"/></g></g></g><path d="m124.36 29.076 2.5855-6.1008 2.8993 4.9807c1.1734 16.807-0.7705 29.599-11.276 36.738l-0.16125 3.8089 0.0773 19.242-20.684 9.7233c3.7663-11.343 23.046-22.941 8.7783-33.989 5.0058-2.8422 11.044-11.725 12.636-15.06l3.5541-7.6806z" fill-opacity=".18593" opacity=".545"/><path d="m10.105 123.77 9.5873-5.1554c-18.383 44.208-12.211 44.692-17.804 71.814-0.29127-1.9145-1.501-3.5666-0.68746-5.7969 2.9681-20.287 7.8824-41.045 8.9042-60.862z" fill-opacity=".24121" opacity=".189" stroke-width="1.2112"/><path d="m1.8884 190.43c2.2757-23.357 6.7097-45.995 11.062-68.66" fill="none" stroke="#000" stroke-width=".20136"/><g transform="matrix(-1.2251 0 0 1.1974 287.49 -1.1639)" stroke="#000"><path d="m129.08 40.167s5.1234 1.7079 7.5302 1.8668c0.47569 0.0314 0.97073 0.01293 1.4237-0.13559 4.2278-1.3861 11.458-6.8475 11.458-6.8475s2.3136 2.2674 3.5932 3.2542c1.4742 1.1369 2.8645 2.63 4.678 3.0508 1.0867 0.25219 2.3537 0.14717 3.322-0.40678 1.5811-0.90447 3.322-4.339 3.322-4.339" fill="none" stroke-width=".3"/><path d="m229.26 107.91c-2.246-3.0178-4.902-5.2108-8.3178-6.0896-3.3239-9.9778-7.1972-19.661-19.655-24.739l-7.712-10.812-3.5243-9.8316-14.576-7.207c-4.4416-3.3773-6.9838 0.69452-10.532-0.82603 0.93238-10.93-3.6646-22.875-3.176-31.247-0.79493-1.836-1.7725-3.5867-3.5176-4.9792 1.3825-0.59631 2.0275 0.05289 2.8876-0.90996 8.5592 4.8345 18.833 8.0266 25.652 12.93 8.9765 11.619 19.054 33.635 25.242 36.167 13.725 17.742 12.279 31.978 17.229 47.544z" fill="url(#linearGradient1431)" stroke-miterlimit="4.4737" stroke-width=".4"/><ellipse transform="matrix(-.085254 -.99636 .7828 .62227 0 0)" cx="86.622" cy="297.11" rx="1.152" ry="1.062" fill="#ffb380" fill-rule="evenodd" stroke-linecap="round" stroke-linejoin="round" stroke-miterlimit="4.4737" stroke-width=".22264" style="paint-order:fill markers stroke"/></g><g transform="matrix(.98462 0 0 .98462 -7.4658 1.2241)"><path d="m101.65 162.68c-15.951-30.778-14.121-88.205-5.6216-103.91" fill="url(#linearGradient1379)" stroke="#000" stroke-width=".82927"/><path d="m131.52 62.133-11.541 15.553c-3.4699 4.6761-3.0002 8.9074-0.8967 13.871-15.015 12.322-9.8408 46.761-10.747 68.827l-6.6758 2.2949c-6.2273-9.1549-11.119-47.621-7.3765-79.44-0.66235-6.2686-4.1396-14.707 1.755-24.468 6.8468 9.5072 24.896 7.035 35.482 3.3614z" fill="url(#linearGradient1387)" stroke="#000" stroke-miterlimit="4.4737" stroke-width=".51004"/><path d="m108.33 160.38c-3.1734 1.6211-4.5316-0.32338-6.6758 2.2949-9.0944-9.9357 0.94658-73.713-7.3659-79.442 15.003-3.1535 24.886-13.71 37.238-21.107-8.7488 12.501-14.882 18.214-14.521 23.66-11.651 27.537-8.6699 49.37-8.6747 74.593z" fill="#00000f" fill-opacity=".055276" stroke-width="1.7001"/><path d="m112.67 102.97c2.5208-13.492-0.90391-13.003-12.599-11.524 15.003-3.1535 19.101-21.92 31.453-29.318-8.7488 12.501-14.882 18.214-14.521 23.66 0.24066 3.6371 2.0732 5.7659 2.0732 5.7659-3.9315 2.6028-4.881 7.2018-6.4055 11.416z" fill="#00000f" fill-opacity=".1005" stroke-width="1.7001"/><path d="m131.52 62.133c-16.172 11.275-22.847 16.67-37.238 21.107" fill="none" stroke="#000" stroke-width=".51004"/><path d="m108.34 65.164s-2.4994 5.9255-4.9734 9.2978c-1.6593 2.2618-9.0865 8.7773-9.0865 8.7773" fill="none" stroke="#000" stroke-width=".17001"/></g><path d="m162.75 52.442c-6.691-5.7145-13.111-12.223-18.559-21.583-5.8748-4.6293-8.9814-11.288-12.451-17.68l-6.8128 15.154c0.0927 7.6051-0.17119 14.514-0.70477 20.895-2.1866 6.3703-4.6881 12.484-10.571 15.843-1.9598 44.021-6.1958 48.137-1.4392 75.028 7.7982-9.0168 15.303-18.198 18.794-29.62-4.298 0.73685 19.59-48.938 31.744-58.037z" fill="url(#linearGradient1397)" stroke="#000" stroke-miterlimit="4.4737" stroke-width=".48447"/><path d="m7.042 128.07c2.7516-3.6135 5.0002-6.3402 9.1849-7.3925 4.0721-11.947 9.4177-24.555 24.679-30.637 3.3697-7.2587 5.1528-15.438 14.171-23.604l17.857-8.6297c1.008-6.2684 0.87903-20.358 16.794-38.404l4.0744-5.7326c-1.8112 0.83586-2.2489-0.16627-3.3026-1.3192-10.486 5.7889-23.072 9.6111-31.426 15.482-10.962 14.789-27.324 45.066-30.924 43.307 0 0-15.043 38.291-21.107 56.929z" fill-opacity=".24121" opacity=".189" stroke-width="1.2112"/><path d="m74.594 16.398c-14.832 8.0737-23.982 15.965-27.105 27.688 6.4679 4.6777 5.5427 1.2903 9.8801 5.9027 8.5453-8.896 22.403-11.267 30.125-17.082 2.9378-12.313 9.9936-18.494 13.989-22.38-11.125-0.60789-18.294 0.65509-26.888 5.8717z" fill="url(#linearGradient1413)" stroke="#000" stroke-miterlimit="4.4737" stroke-width=".48447"/><path d="m91.916 10.78c-10.762 3.5638-17.587 9.4382-24.784 17.68-6.3211 8.6249-9.5574 13.187-19.649 15.625" fill="none" stroke="#000" stroke-width=".36335"/><path d="m101.48 10.527c-32.519-0.3769-34.632 31.285-53.995 33.559 12.661 3.4256 26.618 1.3066 27.4-2.3052l5.7127-13.71c7.9541-7.9441 13.812-8.829 20.882-17.544z" fill-opacity=".18593" opacity=".686" stroke-width=".75515"/><g stroke="#000" stroke-miterlimit="4.4737"><path d="m89.47 10.4c-6.3101 15.73-19.086 26.488-29.218 39.464 1.8428 25.925 1.2317 51.165 0 76.232 2.5504 6.5341 6.0422 12.7 10.806 18.369 1.2129-27.413 5.4609-54.518 15.784-84.475-0.03289-13.47-1.092-27.12 7.0027-39.516-2.0793-3.4222-3.5959-6.1289-4.3754-10.074z" fill="url(#linearGradient1395)" stroke-width=".48447"/><path d="m186.94 122.62c8.4205-10.156 16.052-19.229 19.409-32.918-5.3763 6.7453-13.634 12.327-21.563 16.287" fill="none" stroke-width=".48447"/><path d="m170.74 83.067c3.0345-4.1136 6.6726-7.8191 7.6412-13.33-2.0029-0.60497-5.1085-1.0552-7.4336-0.0634l-3.8056 2.6097c-1.5956 0.08297-2.4978-0.8763-3.0878-1.8605-2.4115 0.3368-2.0217 1.9331-3.2624 3.0619" fill="none" stroke-width=".012112"/><ellipse transform="scale(-1,1)" cx="-119.06" cy="37.934" rx="3.0731" ry="2.5978" fill="url(#radialGradient1423)" fill-rule="evenodd" stroke-linecap="round" stroke-linejoin="round" stroke-width=".48447" style="paint-order:fill markers stroke"/></g><g fill="none" stroke="#000" stroke-miterlimit="4.4737"><path d="m206.35 89.704c-24.567-18.823-26.024-36.85-19.305-45.385" stroke-width=".48447"/><path d="m192.14 46.67c0.9021-3.7552-1.366-8.2784-3.5222-12.042-2.1104 0.1967-2.22 0.5109-2.8164 1.7049 0.50592 1.147 0.30532 3.1291-1.6301 3.382-1.9238 0.25133-2.3701-1.3232-2.5591-2.5193l-3.749 0.42729" stroke-width=".012112"/><path d="m71.057 144.46c0.8066-19.045 0.43198-37.8 3.5239-57.402-6.5018-20.086-1.2762-39.621 14.771-57.26" stroke-width=".48447"/><path d="m75.81 50.638c-3.1502-4.0471 0.19586-12.858 3.0799-18.424 3.2286-5.7405 7.6294-16.927 10.571-21.813" stroke-width=".36335"/></g><path d="m89.47 10.4c-6.3101 15.73-19.086 26.488-29.218 39.464 1.6171 25.719 1.0879 53.656 0 76.232 2.5504 6.5341 6.0422 12.7 10.806 18.369 1.2129-27.413-14.2-20.098 3.5239-57.402-9.946-24.093 1.4493-44.697 14.771-57.26 1.4428-4.2853 2.7766-6.6997 4.4929-9.328-2.0794-3.4222-3.5959-6.1289-4.3754-10.074z" fill="#0a0000" fill-opacity=".34673" opacity=".184" stroke-width="1.2112"/><path d="m111.88 139.02 2.2085-28.927 4.9277-24.632c9.4199-9.6631 8.6351-31.468 8.1396-52.929l5.9802-12.176-1.3873-7.1808" fill="none" stroke="#000" stroke-miterlimit="4.4737" stroke-width=".48447"/><path d="m208.66 56.822c2.3751-19.73-4.0446-30.295-10.129-41.209-0.62968-0.23963-1.3837 0.21496-2.0453-0.20937-4.5368-2.9101-19.064-3.5621-31.816 4.4424 5.3829 5.1678 10.722 7.0102 13.19 17.777 0.82732-0.27327 2.1973-0.21747 3.749-0.42729 0.18496 3.7859 4.8518 1.8933 4.1892-0.86268 0.67576-0.94623-0.0995-1.3199 2.8164-1.7049 1.8789 2.7699 4.434 8.6365 3.5222 12.042 6.4775 3.6119 12.234 4.9846 16.523 10.152z" fill-opacity=".080402" opacity=".605"/><path d="m105.76 25.579s-1.7608 4.4464-1.7113 6.4972c-0.33792 1.7259-0.20373 3.5021 0.0831 5.0322-0.0111 1.2209-0.18909 2.4882 0.22201 3.6975-0.19574 0.99431-0.37996 2.2491-0.0638 3.1829-0.36584 1.8692-0.6414 3.2367-0.30038 4.8726-0.30484 2.5192-1.4191 5.7748-1.0517 8.4103-1.2365 3.3763-3.4173 5.785-4.2338 9.361-0.91158 1.9575-2.6429 5.9126-2.6429 5.9126" fill="none" stroke="#000" stroke-width=".12112"/><path d="m215.66 48.092c-0.85916-2.1734-0.22104-4.5882 0.51001-7.018 0.85588-0.19107 0.89333-0.20091 1.2447 0.3432-0.18465 2.082 3.2111 2.4706 3.2186 0.12954 0.87398-0.20402 1.1772-0.04512 1.8031-0.04381l-0.10582 1.2563c-1.7781 1.9144-4.1324 3.6058-6.5534 5.9771z" fill-opacity=".090452" stroke-width="1.2112"/><path d="m241.82 88.321s-4.9179 3.288-6.1718 5.7967c-2.2668 4.5353-2.1272 9.4922-1.6255 15.096z" fill-opacity=".23116" opacity=".53" stroke-width="1.2112"/><g stroke="#000"><g transform="matrix(-1.2076 -.20629 -.20163 1.1803 297.31 19.158)"><path d="m56.008 71.715c-7.5527 8.5382-13.892 19.367-18.196 34.043" fill="none" stroke-width=".4"/><path d="m56.008 71.715c-6.3212 3.6048-11.934 7.9183-17.358 12.42" fill="none" stroke-width=".4"/><ellipse transform="matrix(.55621 .83104 -.5754 .81787 0 0)" cx="70.992" cy="1.2347" rx=".9751" ry="1.3541" fill="#ffb380" fill-rule="evenodd" stroke-linecap="round" stroke-linejoin="round" stroke-miterlimit="4.4737" stroke-width=".23027" style="paint-order:fill markers stroke"/></g><g fill="none"><path d="m74.573 87.062s-6.4157-8.1121-8.6748-12.697c-2.0682-4.1981-2.3492-6.3263-3.3494-10.882-0.29982-1.3658-0.77207-5.7978-0.59765-9.4128 0.18098-3.7506 14.187-20.962 16.289-20.841" stroke-width=".24223"/><path d="m25.7 73.846c2.5315 9.1093 3.2472 17.857 0.24917 27.763m-0.24917-27.763c-0.83524 16.392-3.027 29.819-7.2437 42.594" stroke-width=".48447"/><path d="m210.97 218.41c5.275-32.16 3.2299-69.098 2.358-89.404" stroke-width=".48447"/><path d="m205.82 114.52 2.438-16.026c1.7442-7.5681 0.0609-15.581-3.1139-21.729 0.46425-3.2236-0.54218-6.2312-2.1434-9.1515-2.1277-6.5801-5.0217-14.828-9.0494-20.65" stroke-width=".24223"/></g><g transform="matrix(-1.2251 0 0 1.1974 287.49 -1.1639)" stroke-linecap="round" stroke-linejoin="round"><ellipse transform="matrix(.99927 -.038076 .021297 .99977 0 0)" cx="108.92" cy="24.562" rx="1.5157" ry="1.7424" fill="#ffb380" stroke-width=".60349" style="paint-order:stroke fill markers"/><ellipse transform="matrix(.99927 -.038076 .021297 .99977 0 0)" cx="108.92" cy="24.562" rx=".52848" ry=".60752" fill="#f95" stroke-width=".21042" style="paint-order:stroke fill markers"/><ellipse transform="matrix(.88508 .46544 -.14802 .98898 0 0)" cx="163.8" cy="-60.643" rx="1.4655" ry="1.7694" fill="#ffb380" stroke-width=".59799" style="paint-order:stroke fill markers"/><ellipse transform="matrix(.88508 .46544 -.14802 .98898 0 0)" cx="163.8" cy="-60.643" rx=".51097" ry=".61696" fill="#f95" stroke-width=".20851" style="paint-order:stroke fill markers"/></g></g><path d="m131.75 13.178 1.3873 7.1808-5.9802 12.176c-0.19056 19.094-0.14788 39.465-10.019 50.346l-3.0483 27.215-1.8679 30.001c-4.434-27.682-1.2093-28.888 1.4392-75.028 5.6986-2.0926 7.8696-9.3571 10.571-15.843l0.70477-20.895z" fill-opacity=".18593" opacity=".545" stroke-width="1.2112"/><path d="m162.75 52.442-17.872-5.4215c-8.0948-2.4555-9.3473-7.3443-11.476-14.279l-0.21574-12.368" fill="none" stroke="#000" stroke-width=".36335"/><path d="m140.56 44.999c1.7173 7.0302 1.1697 11.739-1.9934 18.022s-19.548 22.444-19.548 22.444" fill="none" stroke="#000" stroke-width=".36335"/></g></svg>
