<?xml version="1.0" encoding="UTF-8"?>
<!-- Created with Inkscape (http://www.inkscape.org/) -->
<svg version="1.1" viewBox="0 0 256 256" xmlns="http://www.w3.org/2000/svg" xmlns:cc="http://creativecommons.org/ns#" xmlns:dc="http://purl.org/dc/elements/1.1/" xmlns:rdf="http://www.w3.org/1999/02/22-rdf-syntax-ns#" xmlns:xlink="http://www.w3.org/1999/xlink">
 <style>svg { cursor: default; }</style>
 <defs>
  <radialGradient id="radialGradient856" cx="167.12" cy="94.811" r="102.14" gradientTransform="matrix(-.61961 .76072 -.46167 -.3532 303.99 57.304)" gradientUnits="userSpaceOnUse">
   <stop stop-color="#f55" offset="0"/>
   <stop stop-color="#ff8080" offset="1"/>
  </radialGradient>
 </defs>
 <metadata>
  <rdf:RDF>
   <cc:Work rdf:about="">
    <dc:format>image/svg+xml</dc:format>
    <dc:type rdf:resource="http://purl.org/dc/dcmitype/StillImage"/>
    <dc:title/>
   </cc:Work>
  </rdf:RDF>
 </metadata>
 <g transform="matrix(-.025377 1.2471 -1.2264 .0073763 420.91 -280.1)" fill="none" stroke-linecap="round" stroke-linejoin="round" stroke-miterlimit="0">
  <path d="m416.28 241.43c-14.24-22.619-101.1-112.12-169.42-99.219" stroke="#000" stroke-dasharray="3.3, 3.3" stroke-width="3.3"/>
  <path d="m416.28 241.43c-14.237-22.598-99.235-111.61-169.42-99.219" stroke="#ffb380" stroke-dasharray="1.56207979, 1.56207979000000008" stroke-width="1.562"/>
 </g>
 <g transform="matrix(.99975 0 0 1.0316 -.97834 2.4456)">
  <g transform="matrix(1.2177 0 0 1.2177 -190.26 -114.11)" fill="none" stroke-linecap="round" stroke-linejoin="round" stroke-miterlimit="0">
   <path d="m251.88 280.54c-163.49-38.557-59.026-100.77-31.903-123.87 17.964-13.044 25.42-7.3029 129.84-44.629" stroke="#000" stroke-dasharray="3.3, 3.3" stroke-width="3.3"/>
   <path d="m252.82 280.65c-164.65-37.864-60.108-100.68-32.86-123.99 18.018-12.97 24.557-7.1243 128.98-44.45" stroke="#ffb380" stroke-dasharray="1.65, 1.64999999999999991" stroke-width="1.65"/>
  </g>
  <g transform="matrix(-.58429 -1.0684 1.0684 -.58429 75.658 513.32)" fill="none" stroke-linecap="round" stroke-linejoin="round" stroke-miterlimit="0">
   <path d="m281 318.22c71.259-66.79 93.989-124.01 91.087-151.69-4.173-39.808-55.042-36.723-125.23-24.331" stroke="#000" stroke-dasharray="3.3, 3.3" stroke-width="3.3"/>
   <path d="m280.87 318.24c71.259-66.79 94.114-124.03 91.213-151.71-4.173-39.808-55.042-36.723-125.23-24.331" stroke="#ffb380" stroke-dasharray="1.56207979, 1.56207979000000008" stroke-width="1.562"/>
  </g>
  <path d="m238.25 19.801c-5.5075 1.3873-1.8121 8.7718 2.5627 7.5254 5.1534-1.4683 2.9784-8.9211-2.5627-7.5254zm-177.71 115.64c-3.4186 1.888-7.6209-6.0673-2.8768-8.058 5.7426-2.4096 6.1978 6.2238 2.8768 8.058zm-10.104-2.6718c-0.42425-3.719-0.28405-6.8636 0.57536-9.1978 6.6706-18.117-4.7788-16.099 35.99-35.966 8.6297-12.966 30.541-47.245 60.83-54.458 3.773 9.0117 2.6007 12.846 7.762 13.866 18.083-12.211 52.328-20.648 69.093-25.226 5.665-3.7448 8.7368-8.8582 9.5826-13.909 11.008 3.7141 14.612 2.8373 18.781 14.674-5.7827 6.4805-15.865 25.091-14.878 37.474-5.2678-0.37641-40.464 26.722-32.23 62.36-22.016 12.07-35.51 66.683-38.382 78.906-27.135 14.155-42.362 17.627-45.735 40.462-7.269-11.799-11.222-5.526-17.757-16.511-9.4447-48.555-37.898-62.517-53.63-92.473zm67.176 98.403c4.1158-1.4608 1.9661-8.3315-2.6278-5.9984-4.4961 2.2835-1.0106 7.2897 2.6278 5.9984z" fill="url(#radialGradient856)" fill-rule="evenodd" stroke="#000" stroke-width="1.3383"/>
  <g fill="#faa" fill-rule="evenodd">
   <path d="m50.908 125.48c6.6706-18.117-4.3224-18.609 36.446-38.476 8.6297-12.966 30.541-47.245 60.83-54.458-23.862 34.311-56.693 74.254-97.276 92.934z" opacity=".389"/>
   <path d="m108.49 145.67c1.6507-10.816-0.89991-10.167 31.198-43.496 7.717-2.4704 16.851 5.2357 44.63-23.426-6.3209 15.858-23.586 18.304-31.504 25.96-15.417 14.906-33.569 35.237-44.323 40.962z" opacity=".633"/>
   <path d="m121.97 220.21c9.7477-26.507 3.6747-28.532 12.742-53.688 6.4356-4.9233 25.859-8.8883 42.372-45.227-0.61574 17.06-18.148 33.967-23.028 43.842-13.582 19.877-14.118 45.572-32.086 55.074z" opacity=".52"/>
   <path d="m192.07 32.197c20.753-6.113 27.367-7.6894 32.747-9.5391 2.4859-0.85477 6.2769-5.0259 9.2026-13.411 7.336 1.2645 9.1865 4.0995 14.701 9.9578-7.9448-10.193-12.334-3.0835-20.792 7.8486-31.269 3.5639-33.403 9.0089-35.858 5.1433z" opacity=".733"/>
  </g>
  <path d="m137.73 81.18s-19.085 26.8-26.24 41.528c-2.1866 4.5007-5.0199 13.234-5.0199 14.147 0 0.9127-1.5206 6.5569 0.45634 8.6707 3.5698 1.3622 13.23-9.3564 18.482-14.147 11.257-10.268 22.06-22.913 33.77-30.804 2.0284-1.7869 3.38-2.5009 5.8127-3.304" fill="none" stroke="#000" stroke-width="1.0222"/>
  <path d="m128.15 145.07s-4.7917 21.449-5.248 22.818c-0.46935 1.3712-8.5112 48.955-1.369 52.024 15.982-3.7114 24.517-50.349 41.813-69.137" fill="none" opacity=".851" stroke="#000" stroke-width="1.0222"/>
  <g fill-rule="evenodd">
   <path d="m187.6 58.895c19.167 2.7101-26.099 47.43-47.538 43.789-7.4806 5.7666-14.132 13.467-20.716 21.326 0.0882-9.1821 5.2922-17.389 14.497-28.248 2.3324-20.807 39.678-39.784 53.757-36.868z" fill="#f55" stroke="#000" stroke-width=".69411"/>
   <path d="m169.17 102.32c25.992 0.12217-9.9869 57.642-31.36 61.655-5.0191 8.0014-8.5908 17.53-12.043 27.183-3.0988-8.6439-1.061-18.146 3.8112-31.521-5.0216-20.326 24.69-55.517 39.592-57.318z" fill="#f55" stroke="#000" stroke-width=".69411"/>
   <path d="m187.31 59.228c12.172 4.0231 0 0-48.843 41.832-7.4806 5.7666-12.828 15.424-19.411 23.284 0.0882-9.1821 5.2922-17.39 14.497-28.248 2.3324-20.807 39.678-39.784 53.757-36.868z" opacity=".172"/>
   <path d="m169.15 102.2c23.366-0.85488-20.79 53.291-33.099 60.677-5.0191 8.0014-6.8512 18.508-10.304 28.162-3.0989-8.6439-1.061-18.146 3.8112-31.521-5.0216-20.326 24.69-55.517 39.592-57.318z" fill="#000004" opacity=".175"/>
   <path d="m190.11 59.336c-7.9356 1.8645-46.321 14.355-53.842 39.945-7.4806 5.7666-10.75 16.696-17.333 24.555 0.0882-9.1821 5.2922-17.39 14.497-28.248 2.3324-20.807 41.677-40.707 56.679-36.253z" opacity=".172"/>
   <path d="m168.7 103.09c-3.6252 2.1326-37.511 34.43-35.825 57.913-5.5573 7.3863-4.1252 21.271-7.5778 30.925-3.0988-8.6439-1.061-18.146 3.8112-31.521-5.0216-20.326 27.3-58.344 39.592-57.318z" fill="#000004" opacity=".175"/>
  </g>
  <g transform="matrix(-.58429 -1.0684 1.0684 -.58429 78.233 513.3)" fill="none" stroke-linecap="round" stroke-linejoin="round" stroke-miterlimit="0">
   <path d="m282.19 316.21c4.9554-5.025 6.5635-6.8851 8.6011-8.3332" stroke="#000" stroke-dasharray="3.3, 3.3" stroke-width="3.3"/>
   <path d="m282.19 316.21c4.5761-5.114 4.1806-3.819 8.6011-8.3332" stroke="#ffb380" stroke-dasharray="1.56207979, 1.56207979000000008" stroke-width="1.562"/>
  </g>
  <g transform="matrix(.27788 -1.1856 1.1856 .27788 -397.02 376.43)" fill="none" stroke-linecap="round" stroke-linejoin="round" stroke-miterlimit="0">
   <path d="m280.89 317.75c4.9554-5.025 6.7051-9.2819 8.7426-10.73" stroke="#000" stroke-dasharray="3.3, 3.3" stroke-width="3.3"/>
   <path d="m280.89 317.75c4.5761-5.114 4.3133-6.2537 8.7338-10.768" stroke="#ffb380" stroke-dasharray="1.56207979, 1.56207979000000008" stroke-width="1.562"/>
  </g>
  <g transform="matrix(-.59927 -1.0601 1.0601 -.59927 -52.084 715.94)" fill="none" stroke-linecap="round" stroke-linejoin="round" stroke-miterlimit="0">
   <path d="m280.89 317.75c4.2491-8.5303 7.6027-9.7076 9.8994-9.8692" stroke="#000" stroke-dasharray="3.3, 3.3" stroke-width="3.3"/>
   <path d="m280.89 317.75c4.3058-8.1232 5.254-7.8588 9.8994-9.8692" stroke="#ffb380" stroke-dasharray="1.56207979, 1.56207979000000008" stroke-width="1.562"/>
  </g>
 </g>
</svg>
