<?xml version="1.0" encoding="UTF-8"?>
<svg version="1.1" viewBox="0 0 256 256" xmlns="http://www.w3.org/2000/svg" xmlns:cc="http://creativecommons.org/ns#" xmlns:dc="http://purl.org/dc/elements/1.1/" xmlns:rdf="http://www.w3.org/1999/02/22-rdf-syntax-ns#" xmlns:xlink="http://www.w3.org/1999/xlink">
 <defs>
  <linearGradient id="innoGrad4">
   <stop stop-color="#f55" offset="0"/>
   <stop stop-color="#ff8080" offset="1"/>
  </linearGradient>
  <linearGradient id="innoGrad1">
   <stop stop-color="#f55" offset="0"/>
   <stop stop-color="#ff2a2a" offset="1"/>
  </linearGradient>
  <linearGradient id="innoGrad2">
   <stop stop-color="#ffb380" offset="0"/>
   <stop stop-color="#f95" offset="1"/>
  </linearGradient>
  <linearGradient id="linearGradient1198" x1="139.64" x2="160.12" y1="132.84" y2="136.72" gradientUnits="userSpaceOnUse" xlink:href="#innoGrad2"/>
  <linearGradient id="linearGradient1206" x1="108.67" x2="165.78" y1="134.3" y2="139.18" gradientUnits="userSpaceOnUse" xlink:href="#innoGrad2"/>
  <linearGradient id="linearGradient1214" x1="222.69" x2="235.7" y1="227.4" y2="229.78" gradientUnits="userSpaceOnUse" xlink:href="#innoGrad1"/>
  <linearGradient id="linearGradient1222" x1="210.56" x2="222.82" y1="220.71" y2="221.97" gradientUnits="userSpaceOnUse" xlink:href="#innoGrad1"/>
  <linearGradient id="linearGradient1230" x1="192.01" x2="204.52" y1="224.38" y2="224.72" gradientUnits="userSpaceOnUse" xlink:href="#innoGrad1"/>
  <linearGradient id="linearGradient1238" x1="174.72" x2="185.26" y1="220.22" y2="220.59" gradientUnits="userSpaceOnUse" xlink:href="#innoGrad1"/>
  <linearGradient id="linearGradient1246" x1="159.25" x2="166.72" y1="197.72" y2="198.69" gradientUnits="userSpaceOnUse" xlink:href="#innoGrad1"/>
  <linearGradient id="linearGradient1254" x1="94.759" x2="253.58" y1="139.41" y2="177" gradientUnits="userSpaceOnUse" xlink:href="#innoGrad1"/>
  <linearGradient id="linearGradient1262" x1="184.78" x2="271.5" y1="194.76" y2="162.57" gradientUnits="userSpaceOnUse" xlink:href="#innoGrad1"/>
  <linearGradient id="innoGrad3" x1="234.11" x2="200.92" y1="174.01" y2="206.7" gradientUnits="userSpaceOnUse">
   <stop stop-color="#fea" offset="0"/>
   <stop stop-color="#ffe680" offset="1"/>
  </linearGradient>
  <linearGradient id="linearGradient1278" x1="208.96" x2="268.77" y1="112.65" y2="73.849" gradientUnits="userSpaceOnUse" xlink:href="#innoGrad1"/>
  <linearGradient id="linearGradient1286" x1="82.342" x2="33.077" y1="121.73" y2="54.542" gradientUnits="userSpaceOnUse" xlink:href="#innoGrad1"/>
  <linearGradient id="linearGradient1294" x1="112.28" x2="117.29" y1="216.78" y2="216.78" gradientUnits="userSpaceOnUse" xlink:href="#innoGrad1"/>
  <linearGradient id="linearGradient1302" x1="91.652" x2="104.55" y1="229.35" y2="224.32" gradientUnits="userSpaceOnUse" xlink:href="#innoGrad1"/>
  <linearGradient id="linearGradient1310" x1="78.745" x2="86.933" y1="224.69" y2="222.38" gradientUnits="userSpaceOnUse" xlink:href="#innoGrad1"/>
  <linearGradient id="linearGradient1318" x1="64.237" x2="75.098" y1="224.45" y2="221.45" gradientUnits="userSpaceOnUse" xlink:href="#innoGrad1"/>
  <linearGradient id="linearGradient1326" x1="46.342" x2="54.73" y1="217.49" y2="216.98" gradientUnits="userSpaceOnUse" xlink:href="#innoGrad1"/>
  <linearGradient id="linearGradient1602" x1="161.69" x2="203.12" y1="111.91" y2="37.993" gradientUnits="userSpaceOnUse" xlink:href="#innoGrad4"/>
  <linearGradient id="linearGradient1610" x1="93.883" x2="68.461" y1="103.94" y2="67.889" gradientUnits="userSpaceOnUse" xlink:href="#innoGrad4"/>
  <linearGradient id="linearGradient1618" x1="40.023" x2="116.01" y1="215.99" y2="215.99" gradientUnits="userSpaceOnUse" xlink:href="#innoGrad3"/>
 </defs>
 <style>svg { cursor: default; }</style>
 <metadata>
  <rdf:RDF>
   <cc:Work rdf:about="">
    <dc:format>image/svg+xml</dc:format>
    <dc:type rdf:resource="http://purl.org/dc/dcmitype/StillImage"/>
    <dc:title/>
   </cc:Work>
  </rdf:RDF>
 </metadata>
 <style>svg { cursor: default; }</style>
 <style>svg { cursor: default; }</style>
 <style>svg { cursor: default; }</style>
 <style>svg { cursor: default; }</style>
 <style>svg { cursor: default; }</style>
 <style>svg { cursor: default; }</style>
 <style>svg { cursor: default; }</style>
 <style>svg { cursor: default; }</style>
 <style>svg { cursor: default;}</style>
 <style>svg { cursor: default; }</style>
 <style>svg { cursor: default; }</style>
 <style>svg { cursor: default; }</style>
 <style>svg { cursor: default; }</style>
 <style>svg { cursor: default; }</style>
 <style>svg { cursor: default; }</style>
 <style>svg { cursor: default; }</style>
 <style>svg { cursor: default;}</style>
 <style>svg { cursor: default; }</style>
 <style>svg { cursor: default; }</style>
 <style>svg { cursor: default; }</style>
 <style>svg { cursor: default; }</style>
 <style>svg { cursor: default; }</style>
 <style>svg { cursor: default; }</style>
 <style>svg { cursor: default; }</style>
 <style>svg { cursor: default; }</style>
 <style>svg { cursor: default; }</style>
 <style>svg { cursor: default; }</style>
 <style>svg { cursor: default;}</style>
 <style>svg { cursor: default; }</style>
 <style>svg { cursor: default; }</style>
 <style>svg { cursor: default; }</style>
 <style>svg { cursor: default; }</style>
 <style>svg { cursor: default; }</style>
 <style>svg { cursor: default; }</style>
 <style>svg { cursor: default; }</style>
 <style>svg { cursor: default;}</style>
 <style>svg { cursor: default; }</style>
 <style>svg { cursor: default; }</style>
 <g stroke="#000">
  <g transform="matrix(-.87397 .60623 .54398 .97394 170.63 -89.033)" stroke-width=".37362px">
   <path d="m218.01 59.385c-0.7335 0.82588-7.3202 13.84-7.7054 14.465s-2.1705 4.427-2.4049 4.535c0.73521-2.7296 0.81548-3.9314 1.1536-4.9145 0.30282-0.88037 7.3506-15.345 8.272-17.195-4.8634-13.265-10.249-18.4-16.886-19.839-6.8693 1.7032-12.756 4.1177-19.55 7.8047-2.1293 1.1555-4.283 4.3854-5.5834 10.074l-14.246 7.4406-13.137-8.236c-0.60811-3.9157-2.3605-8.7388-6.41-11.375-3.0327-1.9745-8.146-3.3763-16.936-5.0543-7.052 3.6035-10.85 6.7384-16.663 16.317-0.57221 7.2508 2.344 21.512 3.1103 23.683-0.37854-0.36522-4.6818-10.594-4.9789-14.257-0.29699-3.6628-2.7004-16.491 0.85171-23.466 3.3892-6.6551 10.425-13.353 18.471-18.464 5.6102 1.987 15.604 2.3065 23.305 1.2109l28.912 1.8156c8.1285 0.6805 12.043 0.7082 24.065-4.4359 10.551 7.4899 22.067 32.51 16.36 39.893z" fill="#f55"/>
   <path d="m218.26 59.44c-0.7335 0.82588-7.3202 13.84-7.7054 14.465s-2.1705 4.427-2.4049 4.535c0.73521-2.7296 0.81548-3.9314 1.1536-4.9145 0.30282-0.88037 7.3506-15.345 8.272-17.195-4.8634-13.265-10.249-18.4-16.886-19.839-6.8693 1.7032-12.756 4.1177-19.55 7.8047-2.1293 1.1555-4.283 4.3854-5.5834 10.074l-14.246 7.4406-13.137-8.236c-0.60811-3.9157-2.3605-8.7388-6.41-11.375-3.0327-1.9745-8.146-3.3763-16.936-5.0543-7.052 3.6035-10.85 6.7384-16.663 16.317-0.57221 7.2508 2.344 21.512 3.1103 23.683-0.37854-0.36522-4.6818-10.594-4.9789-14.257-0.29699-3.6628-2.7004-16.491 0.85171-23.466 3.3892-6.6551 10.425-13.353 18.471-18.464 5.6102 1.987 15.604 2.3065 23.305 1.2109 8.4587 2.3568 19.275 1.2104 28.912 1.8156 8.1285 0.6805 12.043 0.7082 24.065-4.4359 10.551 7.4899 22.067 32.51 16.36 39.893z" opacity=".179"/>
  </g>
  <g transform="matrix(1.169 -.81087 .72761 1.3027 -100.16 -25.898)" fill="none">
   <g stroke-width=".27933px">
    <path d="m44.281 156.78s8.4886-10.45 11.205-9.7216c2.7161 0.72858 6.4451-3.2322 10.267-2.4929 3.8224 0.7393 7.223-2.7925 12.668 0.28514 5.4452 3.0777 13.064 1.3153 15.378 7.1172"/>
    <path d="m93.115 197.17s-0.33438 6.5324 0.73101 8.3252"/>
   </g>
  </g>
  <g transform="matrix(1.169 -.81087 .72761 1.3027 -100.16 -25.898)" stroke-width=".27933px">
   <path d="m115.15 221s-0.21575 3.5956-1.3905 2.434c-1.9309-1.9092-1.5261-0.84637-3.2556-2.1256 0 0 2.655 5.8235 5.5025 10.748" fill="#f55"/>
   <path d="m42.78 190.04c-3.6857 5.452-2.4232 4.0798-2.3497 11.51 4.3274 1.8467 4.312 32.186 7.6774 33.947 2.4885 1.3022 4.1839 3.3633 5.3966-0.60257 0.82133-2.6861-0.53199-29.186-0.74812-37.984-0.02493-1.7597 0.0023-1.0734 0.43802-2.1013 0.84076 1.0197 0.75141 0.49537 1.0093 1.7681 1.2069 7.8793 4.0868 37.251 4.3941 38.124 1.0828 3.0774 3.6822 9.7111 5.7629 9.972 1.9008 0.23833 3.7668-5.2653 4.2548-8.9185 0.46624-3.4908 0.22647-5.9025 0.44226-9.4171 0.12328-2.0077 0.0629-7.4325-0.0896-12.974-0.25495-1.8251-0.81889-12.574-0.734-17.427 0.55048-0.83698 0.57034-0.36575 1.2115-1.2869 0.45617 0.70191 0.51909 0.43017 0.97668 1.3183 0.68236 4.2676 1.1002 13.902 1.2081 14.419 0.12713 0.60982 0.30869 1.8978 0.54143 4.5866 1.6097 5.9562 1.4882 14.178 2.9148 19.681 1.1969 3.546 1.1965 8.0161 3.2566 12.365 2.114 4.4632 3.8003 2.9712 5.1554-1.2074 2.3561-7.2654 2.7812-13.19 2.9833-15.192 0.23528-2.3306-0.1998-25.888 0.2805-34.675 0.84603-0.97062 1.4359-1.5484 1.6652-2.2933-8e-3 0.89341 0.90281 1.2572 1.301 2.3259 1.1203 4.6994 0.53999 10.885 1.3153 17.087 0.8372 6.6957 1.0091 13.692 0.4582 17.835 0.56642 2.0818 0.93381 4.0443 3.1697 11.615 0.92867 3.1446 3.8721 3.2985 5.7475 2.6685 3.9401-7.5897 2.8088-41.984 3.0657-44.412 0.0943-0.88742-2.265 0.87606-0.67131 3.2793 0.27484 4.3641 3.3268 5.6852 4.2217 7.9247-0.16688 6.698 0.90925 9.2388 2.1096 13.114 3.1847 2.563 7.2541 4.4775 6.3712-0.57387 0.24716-2.1466-0.0605-7.3023-0.97254-10.66-0.91211-3.3577 0.32839-0.42892 1.0523 0.17221 0.72389 0.60119-0.16477-6.6993-0.51936-9.5114s0.15769-1.0247 0.52696-3.2357c-2.7758-4.7335-1.8738-6.0137-3.8513-11.164-1.9775-5.1505-4.4192-6.1465-13.337-7.6915-8.9174-1.545-55.636 7.6154-55.636 7.6154z" fill="url(#linearGradient1618)"/>
   <path d="m40.472 199.88c5.3523 7.5061 8.2845 12.022 10.024 19.849 0.41362 3.8035 0.58268 7.6993 1.7681 11.36 1.9605 0.56391 1.0796-5.3408 1.3878-7.11-11.995-17.79 51.558-40.342 57.77-20.452 0.92328 5.7146 1.4016 11.499 2.9404 17.109 0.98439 3.6552 0.97652 7.4527 1.6287 11.161 0.99291-3.2121 0.21337-7.0641 0.24044-10.528-0.22725-6.3254-0.93171-12.677-1.0943-18.97 0.65922-3.3602-2.5497-7.0436-2.697-10.792-10.607-17.373-75.265-14.036-71.968 8.373z" fill="#080000" opacity=".106"/>
  </g>
  <path d="m169.52 208.24-13.915-23.512" fill="none" stroke-dasharray="0.32601683, 0.65203365" stroke-width=".32603"/>
  <path d="m77.85 16.952 14.453-1.2451 10.384 8.6772 10.959 15.817s0.83695 6.1534 2.0327 10.388c1.8931 13.161 2.5033 25.633 3.4783 40.366l16.949 4.2145-59.7 26.63s-11.558 15.17-10.621 16.715c-13.296-7.9855-26.527-16.617-39.204-25.379-5.3311-3.6849-9.9969-8.2362-15.79-11.367-6.1353-3.2214-4.2597-25.421-4.2597-25.421-0.13694-4.8353 2.7519-4.8117 4.229-9.3776 54.574-9.2363 62.789-43.094 67.09-50.016z" fill="url(#linearGradient1610)" stroke-width=".40603px"/>
  <g transform="matrix(1.169 -.81087 .72761 1.3027 -100.16 -25.898)" fill="#f55">
   <path d="m24.426 114.84c0.54838 0.61745 5.4727 10.347 5.7607 10.814 0.28794 0.46658 1.6227 3.3097 1.798 3.3904-0.54966-2.0407-0.60967-2.9392-0.86248-3.6742-0.22639-0.65819-5.3242-11.548-4.9343-13.043 2.6656-10.221 7.6497-13.657 12.612-14.733 5.1356 1.2734 9.5364 3.0785 14.616 5.835 1.5919 0.8639 3.2021 3.2786 4.1742 7.5312l10.651 5.5627 9.8218-6.1574c0.45464-2.9275 1.7647-6.5333 4.7923-8.5044 2.2673-1.4762 6.0901-2.5242 12.661-3.7787 5.2722 2.694 8.112 5.0378 12.457 12.199 0.4278 5.4208-1.7525 16.083-2.3254 17.706 0.28301-0.27304 3.5002-7.9204 3.7224-10.659 0.22204-2.7384 2.0188-12.329-0.63675-17.544-2.5338-4.9755-7.7942-9.9827-13.809-13.804-4.1943 1.4855-10.633 3.7199-16.676 8.9422l-10.275 5.2288-12.088-4.9929c-7.9834-4.8396-9.0039-6.386-17.992-10.232-7.8881 5.5996-17.735 24.393-13.468 29.913z" fill="url(#linearGradient1286)" stroke-width=".27933px"/>
   <path d="m45.697 154.65s-2.2059-4.8201-1.2267-7.7461c2.8404-7.3056 8.5006-13.194 16.308-15.17 8.4117-1.9372 21.194-2.516 28.034 1.4184 4.8116 3.6619 6.9179 8.0034 8.1434 11.821 0.0938 1.028-1.1246 3.8941-1.6851 3.2332-0.71678-0.84837-6.8265-5.7781-17.376-5.926-10.549-0.14797-23.391 3.221-25.792 6.4537-2.1322 2.8713-3.5435 7.6164-3.5435 7.6164s-2.3134 0.22332-2.8627-1.7006z" stroke-width=".18412"/>
  </g>
  <path d="m157.27 216.28-15.4-22.567" fill="none" stroke-dasharray="0.32601683, 0.65203365" stroke-width=".32603"/>
  <path d="m149.43 222.31-13.915-23.512" fill="none" stroke-dasharray="0.32601683, 0.65203365" stroke-width=".32603"/>
  <g transform="matrix(1.169 -.81087 .72761 1.3027 -100.16 -25.898)">
   <path d="m73.402 215.24c3.4311 4.3844 2.9121 10.879 1.5052 13.294 2.2774 2.5701 1.0808 4.5097-0.8699 3.6622 0.77335 5.0867 5.4939 21.697 6.7861 23.398 1.6015-2.6753 5.0772-18.363 5.6714-23.192-1.4659 0.44847-2.6817-0.44423-1.3976-3.3283-1.9879-5.8917-0.80093-10.649 1.6729-14.017-22.817-45.309-15.548-22.161-13.368 0.1831z" fill="url(#linearGradient1310)" stroke-width=".27933px"/>
   <path d="m41.045 184.9c0.28466-8.1994 1.3283-18.832 2.6514-25.268 0.58532-2.857-0.42169-4.2712 0.77544-6.7442 1.1968-2.473 2.4042-5.9477 7.2874-8.5174 11.709-6.1613 27.185-6.755 38.608 0.15916z" fill="#ff2a2a" stroke-width=".27933px"/>
   <path d="m52.736 211.98c-0.27912 8.2816 1.6781 17.018-0.70564 24.96" fill="none" stroke-dasharray="0.22428621, 0.44857242" stroke-width=".22429"/>
   <path d="m44 211.26c0.32254 3.0403 1.2137 5.9439 1.6177 10.554 4.1463-0.79353 6.2476 0.68992 8.0098-0.54243-0.09827-4.1004-0.27982-8.0276-0.12914-11.457-2.7069-0.78478-2.7076 0.67503-9.4984 1.4459z" fill="#ff8080" stroke-width=".23434px"/>
   <path d="m40.291 190.33c0.37881 3.6201 2.5786 7.3219 0.13954 11.221 2.489 3.1943 2.5727 4.7323 2.4007 9.1385 2.8917 5.8266 2.4162 7.454 1.4429 11.6 2.143 3.0591 2.852 6.1277 0.60524 3.8639 0.86447 4.7652 3.359 14.666 5.981 18.021 1.4734-2.7562 3.504-12.587 2.8786-16.513-1.3465 1.3649-3.3924-0.0789-2.3065-3.362-1.861-4.8728-0.88977-7.7795 0.34352-11.099-2.1281-4.2345-0.34615-7.1874 1.3068-12.144-3.9399-5.7482-3.7434-5.7083-4.8146-10.026-0.4628-1.865-6.8743-7.9691-6.7144-6.6587z" fill="url(#linearGradient1326)" stroke-width=".24663px"/>
  </g>
  <g transform="matrix(1.169 -.81087 .72761 1.3027 -100.16 -25.898)" fill="none">
   <path d="m47.599 189.63c1.3394 3.5066 0.14916 4.9536-1.5972 9.1707 4.0163 9e-3 4.7122 0.89731 7.0678 2.261" stroke-width=".14952"/>
   <path d="m53.083 201.05c-1.9907-0.20108-6.0496 0.50142-7.5399 1.8044-1.1722-1.6294-2.3273-0.83944-4.2801-0.57627" stroke-width=".098571"/>
  </g>
  <g transform="matrix(1.169 -.81087 .72761 1.3027 -100.16 -25.898)">
   <g>
    <path d="m69.321 142.88c-4.9407 0.17312-11.158 1.8217-13.754 2.9004-3.6089 1.4995-5.4054 2.9865-7.928 5.4648-2.551 2.5062-5.0409 12.965-5.1934 13.758-0.49041 0.91346-3.7505 14.393-2.3144 25.269 0.28027 2.1225-0.53649 5.4155 0.29976 11.277 0.97414 0.27246 3.2335-0.29831 4.3069-1.389 2.4605-2.5001 3.5565-1.6063 4.6876-2.3328 0 0 2.6809-3.9074 3.0966-9.812z" fill="#ff8080" stroke-width=".27933px"/>
    <path d="m58.839 233.09-1.5974-13.974" fill="none" stroke-dasharray="0.22428621, 0.44857242" stroke-width=".22429"/>
    <path d="m55.832 210.46c0.01373 3.2595 0.96609 6.7698 1.0272 10.794 0.34885 0.0837 0.7439 0.43694 1.0145 0.2376 4.9019-3.6117 7.8401-0.59914 10.421 0.65797 0.26039 0.12687 0.68351-0.11246 0.96234-0.19942 0.09637-3.7654-0.43469-8.387-0.38669-11.816-1.2888-1.7387-3.4308-0.11778-13.039 0.32597z" fill="#ff8080" stroke-width=".27933px"/>
    <path d="m55.415 189.49c0.24077 4.1491 1.8024 8.4963-1.9327 13.3 1.9215 3.4512 6.1461 7.1482 2.5099 12.176 2.424 4.2823 5.0324 7.203 2.5191 13.356 1.672 2.7946 1.788 4.7766-0.8166 4.074 1.4126 5.7269 3.8828 13.751 6.6681 18.576 2.0595-4.6597 3.893-13.05 5.0221-18.706-1.6922 0.8057-2.5408-0.0941-1.256-3.832-2.6899-6.1234-0.5201-9.0058 0.97722-13.795-3.3581-3.8251-3.5694-7.1273 0.41026-12.152-5.1071-6.3783-1.9113-7.7327-0.20531-12.272-1.2533-1.4955-13.606-2.4418-13.896-0.72558z" fill="url(#linearGradient1318)" stroke-width=".27933px"/>
    <path d="m114.97 223.95c-0.83406-3.0144-2.3593-5.3678-1.7781-9.1388-0.92287-2.3701-0.88063-7.1577-0.81218-9.6588" fill="none" stroke-dasharray="0.22428621, 0.44857242" stroke-width=".22429"/>
    <path d="m115.42 226.46c-5.3318 2.1694-7.7045-7.3099-8.2474-15.399-0.0303-0.45254 5.1068-4.6282 5.0877-5.0698" fill="none" stroke-dasharray="0.22428621, 0.44857242" stroke-width=".22429"/>
    <path d="m106.75 211.57c8e-3 1.8874 0.0895 6.1626 0.72351 8.2325 0.43112 0.0922 1.0935 0.20399 1.3984-4e-4 3.969-2.3328 5.0987 1.4726 7.1306 0.37257 0.051-2.6628 0.33805-5.8634 0.54462-7.7675-0.81057-0.95281-1.9491 3.0166-8.2917-0.84779-0.40597-0.24737-0.9767 8e-3 -1.5054 0.0106z" fill="#ff8080" stroke-width=".17585px"/>
    <path d="m113.66 213.02c-0.74295 0.52408 0.75346 3.705-1.0298 4.353 0.44742 3.5876 2.2853 7.093 2.5572 8.5205 0.3681 1.4152 0.049 4.3101 0.81875 6.159 0.46908-3.8836 0.3539-9.2093 0.64322-12.327-0.58808-3.7615 0.31311-6.007 0.49777-10.002-0.77026-2.529-1.3499-4.5205-0.76773-8.2824l-3.9527 4.8413z" fill="url(#linearGradient1294)" stroke-width=".27933px"/>
   </g>
   <g>
    <path d="m94.472 147.77c-9.3709-8.5894-32.584-7.8104-43.595-0.52039-3.6628 2.425-4.8496 4.8388-7 9.6459" fill="none" stroke-width=".14952"/>
    <path d="m74.318 151.13c-6.7549-0.43567-14.203-0.1025-22.926 1.1562-8.0857-0.16434-11.988 38.2-10.696 40.501 0.96942 1.0156 1.156 1.2094 2.885 2.5913 0.89136-1.4612 1.0668-2.1764 1.4656-2.9824 1.5104-5.4426 6.2591-7.4847 12.582-7.9188z" fill="#f55" stroke-width=".3191"/>
   </g>
  </g>
  <g transform="matrix(1.169 -.81087 .72761 1.3027 -100.16 -25.898)" stroke-width=".27933px">
   <path d="m91.562 230.53c-0.0466 3.2592 1.8183 8.973 3.6396 13.24 1.4491 2.0209 4.3115 2.1578 5.3833 1.0418 0.15626-4.6 2.1042-10.045 2.4646-13.339-1.2564-1.7622-1.4394-0.94273-11.054-0.67686z" fill="#f55"/>
   <path d="m90.629 208.91c-0.0466 3.2592 1.0132 9.7753 0.9999 13.8 0.62728 0.14602 1.491 0.71231 1.9428 0.34996 2.8692-2.3013 4.8837-3.2093 8.7038 1.0504 0.22314 0.24882 0.81849-0.13217 1.1398-0.22586 0.15626-4.6-0.11773-10.099 0.24265-13.393-1.2564-1.7622-3.1548-1.9582-12.769-1.6924z" fill="#ff8080"/>
   <path d="m91.876 214.47c2.6725 5.4301 2.3009 8.4803 1.3888 13.185 1.4081 2.4709 0.81737 3.5184-1.1378 3.0005 1.772 4.1946 5.0666 17.35 5.9553 19.746 2.1123-2.8054 5.3976-14.901 5.5236-19.695-1.304 0.7334-1.8961-0.66395-0.97019-3.7763-1.231-6.535 0.21447-8.9999 0.98737-12.125 1.1293-13-6.5476-3.5031-11.747-0.3352z" fill="url(#linearGradient1302)"/>
  </g>
  <g transform="matrix(1 0 0 1.0533 0 -.3261)" fill="none">
   <g transform="matrix(1.169 -.76984 .72761 1.2368 -100.16 -24.278)">
    <path d="m98.083 250.4c1.12-6.8954 1.8211-13.933 0.67363-21.134l-0.1369-16.631" stroke-width=".15392"/>
    <path d="m50.86 244.17-3.064-19.156-1.2623-10.558-0.99123-11.599" stroke-width=".074762"/>
    <path d="m64.363 250.97c-0.16973-6.666-0.22017-13.318-0.85887-20.038l-0.89683-13.725-0.44635-12.711" stroke-width=".074762"/>
   </g>
   <g transform="matrix(1.169 -.76984 .72761 1.2368 -100.16 -24.278)">
    <g>
     <g stroke-width=".14952">
      <g>
       <path d="m113.39 216.62s2.3623 1.4515 2.5313 3.4661c0.16899 2.0146 0.12969 11.485 0.12969 11.485"/>
       <path d="m84.644 231.7s-2.3146 0.0884-2.1498 3.5874c0.16475 3.499-1.6705 20.309-1.6705 20.309"/>
       <path d="m76.017 231.68s2.0196-0.3756 2.1024 3.1263c0.08287 3.5019 2.7047 20.793 2.7047 20.793" stroke-width=".14968"/>
       <path d="m51.731 227.76s-1.8919-1.4465-1.4524 5.1882c0.43948 6.6347 0.58132 11.223 0.58132 11.223"/>
       <path d="m46.075 226.89s1.4831-0.44465 1.6916 2.9712c0.3018 4.9447 3.0942 14.303 3.0942 14.303"/>
       <path d="m67.786 232.28s-2.6902-0.71803-2.5174 3.5344c0.24231 5.9638-0.90538 15.159-0.90538 15.159"/>
       <path d="m59.629 231.94s2.4846-0.70192 2.8477 3.0701c0.48205 5.0088 1.8859 15.959 1.8859 15.959"/>
       <path d="m94.123 229.77s3.4332-0.9018 3.9059 3.177c0.54248 4.6809 0.0536 17.456 0.0536 17.456"/>
       <path d="m102.06 229.68c-1.0016 0.61722-1.3672 3.2359-1.3672 3.2359-0.87 5.8279-0.61089 11.598-2.6101 17.484"/>
       <path d="m85.098 229.08c-1.1823-2.184-1.986-5.7008-3.2783-6.68 1.3186-1.5505 2.4598-4.8974 4.9511-7.3369"/>
       <path d="m74.908 228.54c1.3571-1.8493 1.968-4.466 3.6026-6.1479-1.3911-1.0544-3.183-5.307-5.1078-7.1464"/>
       <path d="m86.77 215.06c-2.1717 0.68678-5.2811 0.68794-6.7167 2.4776-2.2718-1.8486-4.4694-1.6478-6.6512-2.2945"/>
       <path d="m85.098 229.08c-1.1939 1.1947-3.5735 0.73574-4.625 2.5-1.5014-1.7509-3.4549-1.7598-5.5649-3.0395"/>
       <path d="m68.129 228.43c-1.1939 1.1947-3.5735 0.73575-4.625 2.5-1.5014-1.7509-2.8825-1.3324-4.9926-2.6121"/>
       <path d="m68.129 228.43c-1.1823-2.184-2.612-5.7797-3.9043-6.7589"/>
       <path d="m58.511 228.32c1.3571-1.8493 1.0946-4.9352 2.7292-6.6171"/>
      </g>
      <path d="m62.888 208.69c3.0654 2.52 3.5055 4.1327 6.2182 5.9514"/>
      <path d="m61.159 208.71c-2.2057 1.871-2.9288 3.7238-5.1672 6.2548"/>
     </g>
     <path d="m51.776 213.2c-1.6018 0.52005-3.6217-0.32383-5.2419 1.2596-1.615-1.8783-2.1859-2.5008-3.7028-3.7711" stroke-width=".1113"/>
     <g stroke-width=".14952">
      <path d="m47.75 218.21c1.7473-0.93617 1.4058-2.9277 4.026-5.0199"/>
      <path d="m46.354 218.02c-1.2879-1.3752-1.5976-5.504-3.5224-7.3434"/>
      <path d="m102.64 226.93c-1.1823-2.184-1.2937-4.5159-2.586-5.4951 1.3186-1.5505 1.082-4.1901 3.5734-6.6296"/>
      <path d="m93.381 227.76c1.3571-1.8493 1.968-4.466 3.6026-6.1479-1.3911-1.0544-3.183-5.307-5.1078-7.1464"/>
     </g>
     <path d="m103.62 214.81c-1.8878 0.59697-3.6873 0.51303-4.9353 2.0687-1.9748-1.6068-4.9153-1.842-6.8118-2.4042" stroke-width=".12997"/>
     <path d="m102.64 226.93c-0.93624 1.5782-2.9577 0.7118-3.8798 2.337-0.92661-1.2332-2.9441-1.869-5.3747-1.503" stroke-width=".13037"/>
     <path d="m116.37 218.09c0.25404-1.5696-0.71535-3.5228-2.7242-5.0669" stroke-width=".13439"/>
     <g stroke-width=".14952">
      <path d="m113.66 213.02c0.47933-1.1514 0.43893-2.1787 1.4663-3.3479-1.5631-0.85787-1.5688-2.6057-2.6996-3.3901"/>
     </g>
     <path d="m117.14 209.72c-1.6006-1.9799-2.9809-2.4996-4.7205-3.4412" stroke-width=".12997"/>
     <path d="m112.47 206.07c0.66596-1.0545 0.79874-2.074 2.008-3.054" stroke-width=".14952"/>
    </g>
    <g>
     <path d="m68.241 116.52c0.23318-5.5078 0.36119-10.877-0.26668-16.372" stroke-width=".14952"/>
     <path d="m38.8 97.591-0.9053-12.668" stroke-width=".22429"/>
     <path d="m95.516 98.079c0.49597-3.8192-0.47237-8.0372-0.59165-12.102" stroke-width=".22429"/>
    </g>
   </g>
   <g transform="matrix(1.169 -.76984 .72761 1.2368 -100.16 -24.278)">
    <g>
     <g stroke-width=".074762">
      <path d="m49.02 196.76 1.0771 3.4735"/>
      <path d="m45.543 202.86c0.61247-1.0214 0.19458-2.1604 0.29063-3.2408l3.1868-2.8618"/>
      <path d="m43.22 200.24 2.6133-0.62626"/>
     </g>
     <g stroke-width=".14952">
      <path d="m43.579 195.37-1.9538-3.5896 0.66767-7.3078 4.7325-7.1792 2.7928-5.0548"/>
      <path d="m43.22 200.24-1.7496-4.0412-0.77644-3.4234"/>
     </g>
     <path d="m80.053 217.54 0.43757 15.273 0.33323 22.789" stroke-width=".074762"/>
     <g stroke-width=".14952">
      <path d="m94.924 85.977-9.5971 11.221-16.898 11.023-19.031-11.63-11.504-11.668"/>
     </g>
     <path d="m78.062 110.36c5.6512-4.1314 8.9909-8.7765 17.454-12.283" stroke-width=".074762"/>
     <path d="m57.59 110.96c-5.6377-5.7068-12.104-9.7571-18.79-13.366" stroke-width=".074762"/>
    </g>
    <g stroke-width=".074762">
     <path d="m58.931 175.61-4.3287 1.2314-4.373 4.6063"/>
     <path d="m107.97 110.28c-5.7383 3.806-11.473 7.6159-15.491 13.142-0.37824 3.9488-1.1943 7.5326-3.6701 9.7334"/>
     <path d="m26.175 112.42c6.0693 2.6539 11.585 6.1374 16.246 10.904 2.1659 6.0132 5.9674 9.4093 9.8618 12.657"/>
    </g>
   </g>
  </g>
 </g>
 <g transform="matrix(1.169 -.81087 .72761 1.3027 -100.16 -25.898)">
  <path d="m80.824 255.6 1.9895-22.581c0.73081-1.3075 1.2774-1.1967 1.8308-1.316 0.24233 0.8731 0.9749 0.92493 1.979 0.52189-4.2631 4.236-2.5401 13.462-5.7993 23.375z" opacity=".121"/>
  <path d="m64.363 250.97c1.3275-10.572 0.75014-14.249 0.9798-17.047 0.52785-1.5526 2.0267-1.6622 2.443-1.6461 0.18088 0.65168 0.8499 0.28836 1.5994-0.0125-4.4069 5.15-2.141 11.828-5.0221 18.706z" opacity=".121"/>
  <path d="m50.86 244.17c0.06687-7.5457-0.93813-11.567-0.64597-14.709 0.49735-1.3829 0.78812-1.8549 1.2044-1.8387 0.33045 0.24381 1.4798 0.94807 2.3202 0.035-2.6767 5.2698-1.9179 5.6793-2.8786 16.513z" opacity=".128"/>
  <path d="m98.083 250.4c2.8371-9.9672 1.7477-15.255 2.6156-17.428 0.27814-1.1533 0.78947-3.3365 1.3616-3.2916 0.24233 0.8731 0.35477 1.475 1.5464 1.0251-0.93834 3.6599-1.0086 5.932-5.5236 19.695z" opacity=".091"/>
  <path d="m102.64 226.93c-0.9044-1.5208-1.2668-4.147-2.586-5.4951 0.94295-0.80052 1.7508-5.177 3.5734-6.6296-2.225 4.0394-2.9523 6.1915-0.98737 12.125z" opacity=".121"/>
  <path d="m50.86 244.17c-1.1053-8.4002-2.7155-15.576-3.064-19.156 1.1224-2.3516 1.4698-0.42233 3.6361-0.71868-0.67159 1.3662-0.44659 2.1896-0.01364 3.327-1.2226-0.0792-1.2366 2.7276-1.2649 3.5766-0.38263 4.8297-0.04349 4.7384 0.70646 12.971z" opacity=".078"/>
  <path d="m43.22 200.24c1.2309-0.33891 1.8127-0.4077 2.6133-0.62623-2.6133 0.62623-1.2744 2.1926-1.0467 2.4789z" opacity=".141"/>
  <path d="m45.833 199.62c0.10949 1.8324 0.07905 1.4277-0.11895 2.9965 0.7402-2.3153 0.65898-3.3024 3.3057-5.8583z" opacity=".141"/>
  <path d="m71.969 105.81c-3.8403 2.722-3.0221-0.26402-3.874-5.672 0.21802 6.6447 0.24179 7.4445 0.3341 8.0797z" opacity=".151"/>
  <path d="m95.516 98.079c-10.946 1.7569-16.232 4.0786-17.454 12.283 5.3621-4.902 9.069-9.1647 17.454-12.283z" opacity=".091"/>
  <path d="m40.291 190.33c-0.03185-5.2924 0.52094-11.7 0.42761-15.172 2.6684-12.182 5.4817-16.007 5.4117-16.645-2.2195 2.4441-5.8956 25.789-5.8394 31.818z" opacity=".151"/>
 </g>
 <path d="m198.57 178.46c1.6534 1.2387 1.9168 1.7193 4.5339 2.8856-3.0426-3.8854-2.3253-3.3888-3.0259-4.4385-1.4776 1.5947 0 0-1.508 1.553z" opacity="0" stroke-width=".81114px"/>
 <g transform="matrix(1.169 -.81087 .72761 1.3027 -100.16 -25.898)" fill="#fff">
  <path d="m77.4 137.91c1.3096 14.428-1.9622 26.767-2.6562 47.187-0.44566-14.519 1.4518-28.958 2.6562-47.187z" opacity=".15"/>
 </g>
 <g transform="matrix(1.169 -.81087 .72761 1.3027 -378.65 -482.93)">
  <path transform="matrix(-.74279 -.08483 -.08483 .74279 207.34 431.15)" d="m169.99 117.43c-12.631-1.8629-16.606-9.4864-21.443-16.536-6.6989 5.656-13.244 12.448-24.59 11.882-2.659 8.1436-6.2517 13.268-14.951 12.937 23.757 39.042 26.683 27.883 42.748 40.226 4.4312-3.4088 6.1144-1.7257 9.9045 1.7026 4.405-15.387 7.0949-17.842 21.5-33.089-7.1821-3.6566-12.767-9.6694-13.171-17.122z" fill="url(#linearGradient1206)" stroke="#000" stroke-width=".37362px"/>
  <g fill="none">
   <g stroke="#000">
    <path transform="matrix(-.74279 -.08483 -.08483 .74279 207.34 431.15)" d="m148.54 100.9c-4.5568 24.888-5.4598 19.172-7.0225 45.058" stroke-width=".2"/>
    <g stroke-width=".3">
     <path transform="matrix(-.74279 -.08483 -.08483 .74279 207.34 431.15)" d="m109 125.71c9.4778 11.932 9.3578 8.1567 13.982 22.777"/>
     <path transform="matrix(-.74279 -.08483 -.08483 .74279 207.34 431.15)" d="m161.66 167.64c1.8123-17.084 9.2733-24.832 21.494-33.084"/>
     <path transform="matrix(-.74279 -.08483 -.08483 .74279 207.34 431.15)" d="m129.1 150.88c0.90141-19.779-0.67537-19.017-5.1597-38.094"/>
     <path transform="matrix(-.74279 -.08483 -.08483 .74279 207.34 431.15)" d="m169.99 117.43c-9.7331 15.71-18.192 23.802-18.236 48.509"/>
    </g>
   </g>
   <path d="m113.78 517.3c-4.661-0.35587-7.9847-2.8015-9.1052-9.9425-7.0563 0.13461-11.217-5.6668-15.963-10.234-4.6018 4.7765-8.9979 10.378-16.276 9.6769-1.6341 5.7879-5.3746 9.0513-10.416 10.755" stroke="#080000" stroke-width=".094948"/>
  </g>
  <g>
   <path d="m71.109 503.96c5.2985 2.2576 10.771-2.0571 13.895-5.1968 3.6609-3.68 3.0649-2.368 3.71-1.6436l-0.2743-3.6234c-1.528 2.4574-7.9582 10.613-17.33 10.464z" opacity=".091"/>
   <path d="m59.874 515.56c6.4789-1.6745 9.4299-5.5384 10.481-7.9469 1.0576-2.4225 1.5629-1.928 2.0833-0.81745-1.3291-2.8365-0.99151-2.5924-1.3291-2.8365-0.45827 2.7677-3.0662 8.8855-11.236 11.601z" opacity=".151"/>
  </g>
 </g>
 <g transform="matrix(1.169 -.81087 .72761 1.3027 -100.16 -25.898)" fill="#fff">
  <path d="m64.619 249.3c-69.685-31.686-34.842-15.843 0 0z" opacity=".106"/>
 </g>
 <g transform="matrix(1.169 -.81087 .72761 1.3027 -100.16 -25.898)">
  <path d="m112.42 206.28c0.18773 2.4818 2.0838 4.6929 1.7569 6.762-0.22332 1.4138 0.0948 2.8193-0.4766 3.8677-0.2405 0.44126-0.7632 0.0993-1.0768 0.46141 1.8666 4.5184 2.8913 7.1369 3.376 14.679 1.1023-1.9692 0.33015-8.9439 0.37128-13.964 0.0283-3.4505 1.1036-4.4718 0.7697-8.3656-0.52887-2.5044-1.5364-4.3556-0.76773-8.2824z" opacity=".106"/>
  <path d="m85.098 229.08c-1.2944-3.004-1.9591-5.3319-3.2783-6.68 1.3804-2.1443 4.5348-7.3531 4.9511-7.3369-2.5775 3.3487-5.1216 5.9958-1.6728 14.017z" opacity=".121"/>
  <path d="m68.129 228.43c-1.6022-3.3907-2.5851-5.4108-3.9043-6.7589 8.0687-12.94 0.7097 1.4734 3.9043 6.759z" opacity=".121"/>
 </g>
 <g>
  <g style="">
   <g transform="matrix(1 0 0 1.0533 0 -.3261)" stroke="#000" style="">
    <g transform="matrix(.86438 .59152 -.55907 .91451 89.745 -87.157)" stroke-width=".37362px" style="">
     <path d="m218.01 59.385c-0.7335 0.82588-7.3202 13.84-7.7054 14.465s-2.1705 4.427-2.4049 4.535c0.73521-2.7296 0.81548-3.9314 1.1536-4.9145 0.30282-0.88037 7.3506-15.345 8.272-17.195-4.8634-13.265-10.249-18.4-16.886-19.839-6.8693 1.7032-12.756 4.1177-19.55 7.8047-2.1293 1.1555-4.283 4.3854-5.5834 10.074l-14.246 7.4406-13.137-8.236c-0.60811-3.9157-2.3605-8.7388-6.41-11.375-3.0327-1.9745-8.146-3.3763-16.936-5.0543-7.052 3.6035-10.85 6.7384-16.663 16.317-0.57221 7.2508 2.344 21.512 3.1103 23.683-0.37854-0.36522-4.6818-10.594-4.9789-14.257-0.29699-3.6628-2.7004-16.491 0.85171-23.466 3.3892-6.6551 10.425-13.353 18.471-18.464 5.6102 1.987 15.604 2.3065 23.305 1.2109l28.912 1.8156c8.1285 0.6805 12.043 0.7082 24.065-4.4359 10.551 7.4899 22.067 32.51 16.36 39.893z" fill="#f55" style=""/>
     <path d="m218.26 59.44c-0.7335 0.82588-7.3202 13.84-7.7054 14.465s-2.1705 4.427-2.4049 4.535c0.73521-2.7296 0.81548-3.9314 1.1536-4.9145 0.30282-0.88037 7.3506-15.345 8.272-17.195-4.8634-13.265-10.249-18.4-16.886-19.839-6.8693 1.7032-12.756 4.1177-19.55 7.8047-2.1293 1.1555-4.283 4.3854-5.5834 10.074l-14.246 7.4406-13.137-8.236c-0.60811-3.9157-2.3605-8.7388-6.41-11.375-3.0327-1.9745-8.146-3.3763-16.936-5.0543-7.052 3.6035-10.85 6.7384-16.663 16.317-0.57221 7.2508 2.344 21.512 3.1103 23.683-0.37854-0.36522-4.6818-10.594-4.9789-14.257-0.29699-3.6628-2.7004-16.491 0.85171-23.466 3.3892-6.6551 10.425-13.353 18.471-18.464 5.6102 1.987 15.604 2.3065 23.305 1.2109l28.912 1.8156c0.0521 1.0148 0.35509 0.58598 0.67281 0.0555 7.6811 0.6225 11.707 0.50874 23.392-4.4914 10.551 7.4899 22.067 32.51 16.36 39.893z" opacity=".179" style=""/>
    </g>
    <g transform="matrix(1.0932 .88578 -.83719 1.1566 65.681 -251.66)" fill="none" style="">
     <g stroke-width=".27933px" style="">
      <path d="m231.26 159.64s-8.1254-10.735-10.865-10.1-6.3306-3.4512-10.176-2.8433c-3.8454 0.60788-7.1231-3.0384-12.671-0.14919-5.5475 2.8892-13.101 0.86675-15.613 6.586" style=""/>
      <path d="m181.08 198.34s0.1103 6.54-1.0159 8.2953" style=""/>
      <path d="m170.6 177.82s3.5831 0.35816 2.5511 1.1972c-1.032 0.83908-1.9416 2.7077-2.7623 1.1748s0.21126-2.372 0.21126-2.372z" style=""/>
     </g>
    </g>
    <g transform="matrix(1.0932 .88578 -.83719 1.1566 65.681 -251.66)" stroke-width=".27933px" style="">
     <path d="m158.24 221.4s0.0924 3.6009 1.3063 2.4802c1.9952-1.8419 1.5543-0.79357 3.3265-2.0128 0 0-2.8531 5.729-5.8677 10.553" fill="#f55"/>
     <path d="m231.63 192.93c3.4967 5.5751 2.282 4.1605 1.9538 11.584-4.3882 1.6973-5.4126 32.019-8.8364 33.664-2.5317 1.2162-4.2968 3.218-5.3728-0.78717-0.72879-2.7127 1.532-29.151 2.0495-37.936 0.0852-1.7578 0.0345-1.0728-0.36574-2.1151-0.87522 0.9903-0.76795 0.46934-1.0693 1.7325-1.4763 7.8333-5.3611 37.089-5.6982 37.951-1.1876 3.0385-4.0128 9.5792-6.1013 9.7686-1.9078 0.17301-3.5841-5.3913-3.9466-9.0591-0.34633-3.5048-0.024-5.9068-0.11926-9.4267-0.0544-2.0107 0.19187-7.4303 0.53421-12.963 0.31736-1.8153 1.2494-12.538 1.3309-17.392-0.52148-0.85535-0.55747-0.3851-1.1667-1.3277-0.47996 0.68587-0.53353 0.41213-1.0213 1.2841-0.82823 4.2417-1.576 13.856-1.7016 14.37-0.14795 0.60511-0.37355 1.8861-0.69831 4.5654-1.8128 5.8976-1.9732 14.118-3.5876 19.569-1.3177 3.5029-1.4705 7.9703-3.6785 12.247-2.2657 4.3881-3.8999 2.8392-5.111-1.3834-2.1057-7.3418-2.3275-13.277-2.4609-15.285-0.15522-2.3373 1.0869-25.866 0.90809-34.664-0.81226-0.99905-1.382-1.5967-1.5856-2.349-0.0224 0.89317-0.94536 1.2255-1.3799 2.2799-1.2807 4.6583-0.91276 10.861-1.9002 17.031-1.0662 6.663-1.4778 13.65-1.0692 17.808-0.63745 2.0612-1.0719 4.01-3.566 11.5-1.0359 3.1109-3.9828 3.1638-5.8356 2.47-3.6777-7.7203-1.3682-42.056-1.5418-44.491-0.0634-0.89016 2.2337 0.95318 0.55852 3.3004-0.42425 4.3522-3.5197 5.5679-4.4908 7.7754-0.0627 6.6998-1.2254 9.2022-2.5578 13.034-3.2707 2.4524-7.4033 4.2262-6.3478-0.79189-0.17354-2.1538 0.31068-7.2959 1.3373-10.62 1.0266-3.3245-0.3135-0.43993-1.0576 0.13608-0.74407 0.57602 0.39427-6.6897 0.84504-9.4881 0.45076-2.7983-0.12244-1.0295-0.41575-3.2518 2.9364-4.6356 2.0788-5.946 4.2317-11.026 2.1528-5.0797 4.6272-5.9914 13.592-7.2299s55.342 9.5177 55.342 9.5177z" fill="url(#innoGrad3)"/>
     <path d="m231.57 192.56c3.4967 5.5752 2.2819 4.1605 1.9538 11.584-4.8371 7.5859-7.8126 8.1663-9.729 9.6834-5.1234 4.0558-2.0942-6.0223-2.4306-14.743 0.0852-1.7578 0.0345-1.0729-0.36574-2.1151-0.87521 0.99031-0.76794 0.46934-1.0693 1.7325-2.7815 11.762 0.5001 17.741-9.2588 19.676-6.8072-4.0835-6.4276 2.3958-6.0722-3.4053 0.31736-1.8153 1.2494-12.538 1.3309-17.392-0.52148-0.85536-0.55748-0.3851-1.1667-1.3277-0.47995 0.68587-0.53353 0.41213-1.0213 1.2841-0.82823 4.2417-1.576 13.856-1.7016 14.37-2.8866 11.116-0.81653 0.82504-5.762 10.75-11.607 4.4489-7.9548-17.754-8.8662-25.703-0.81226-0.99905-1.382-1.5967-1.5856-2.349-0.0224 0.89318-0.94537 1.2255-1.3799 2.2799-1.2807 4.6583-0.91275 10.861-1.9002 17.031l-11.437-12.56c-0.0634-0.89016-0.7434 0.1958-1.1632 2.9071-2.6523 2.2912-5.7631 1.6777-6.9988 5.6316-1.82 20.894-7.8849 29.637-4.1268-5.3458 0.45076-2.7984-0.12243-1.0295-0.41575-3.2518 2.9364-4.6356 2.0788-5.946 4.2317-11.026 2.1528-5.0797 4.6272-5.9914 13.592-7.2299s55.342 9.5177 55.342 9.5177z" fill="#080000" opacity=".106" style=""/>
    </g>
    <path d="m74.169 185.42 8.5607-11.167" fill="none" stroke-dasharray="0.31766096, 0.63532192" stroke-width=".31767" style=""/>
    <path d="m180.85 15.152-14.432-1.4476-10.518 8.046-11.204 14.813s-0.93274 5.8258-2.1943 9.8231c-2.098 12.458-1.6482 18.043-2.8522 32.008l7.3459 11.048 33.663 25.261s11.32 14.612 10.359 16.062c13.418-7.3358 25.417-16.372 38.229-24.457 5.3877-3.3999 10.124-7.6344 15.965-10.5 6.1845-2.9452 6.0205-22.967 6.0205-22.967 0.21227-4.5875-2.6764-4.618-4.0821-8.9796-54.421-9.7709-62.107-42.061-66.3-48.711z" fill="url(#linearGradient1602)" stroke-width=".39562px"/>
    <g transform="matrix(1.0932 .88578 -.83719 1.1566 65.681 -251.66)" style="">
     <path d="m248.68 111.7c-0.49766 0.65901-4.6344 10.749-4.8844 11.237-0.25001 0.48796-1.355 3.428-1.5233 3.5224 0.38599-2.0779 0.37452-2.9783 0.56821-3.731 0.17346-0.67407 4.5678-11.872 5.1448-13.305-4.4114-9.5971-8.7297-13.105-13.762-13.784-5.0184 1.6769-9.2621 3.8255-14.107 6.9763-1.5184 0.9875-2.9318 3.5224-3.5635 7.8387l-10.176 6.3903-10.279-5.3587c-0.68549-2.8822-2.2776-6.3727-5.452-8.0974-2.3773-1.2916-6.2712-2.033-12.921-2.7621-5.0418 3.1039-7.6866 5.6656-11.45 13.149 4e-3 5.4377 3.0231 15.893 3.7229 17.465-0.30378-0.24973-4.1177-7.6177-4.5564-10.33-0.43863-2.7121-2.9908-12.13-0.75734-17.539 2.1311-5.1609 6.9776-10.57 12.67-14.856 4.2989 1.148 10.895 2.8644 17.333 7.5908l10.657 4.397 11.653-5.9363c7.5742-5.4578 8.4688-7.0803 17.123-11.627 8.3075 4.956 18.374 22.919 14.559 28.76z" fill="url(#linearGradient1278)" stroke="#000" stroke-width=".27933px"/>
     <path d="m231.88 153.07s1.8165-4.9799 0.60822-7.819c-3.4111-7.0572-9.5206-12.477-17.461-13.828-8.5389-1.2636-21.327-0.82636-27.833 3.6384-4.5059 4.0322-5.907 8.2481-6.8258 12.151-0.0119 1.0322 2.0484 2.8969 2.6956 1.9944 0.64719-0.90257 5.2332-4.9276 15.738-5.9122 10.504-0.98458 23.573 1.3548 26.223 4.3868 2.3534 2.693 4.1367 7.3113 4.1367 7.3113s2.3238 0.039 2.7187-1.9224z" fill="#f55" stroke="#000" stroke-width=".18412" style=""/>
     <path d="m202.37 211.34c-0.24419 3.2504-2.0898 9.5388-2.4354 13.549-0.52697 0.074-1.2432 0.60474-1.5505 0.19797-3.2589-4.3134-5.5207-4.3592-10.629-0.29182-0.27071 0.21554-0.64569-0.19624-0.93621-0.30994-0.79786-2.0726 0.21252-10.014 0.1473-13.327 1.4086-1.6432 5.4253-1.0879 14.978 0.0341z" fill="#ff8080" stroke-width=".27933px" style=""/>
    </g>
    <g transform="matrix(1.0932 .88578 -.83719 1.1566 65.681 -251.66)" style="">
     <path d="m202.73 202.61c0.61461-2.2152 0.28242-6.1353 2.0222-6.5202l0.4364-5.8346" fill="none" stroke-dasharray="0.22428621, 0.44857242" stroke-width=".22429" style=""/>
     <path d="m204.38 193.37c-2.0018 3.7171-3.4478 5.8703-0.50527 11.125-1.9518 2.9606-4.1225 7.4627-3.715 12.583-3.5793 4.2642-3.2832 10.773-1.96 13.235-2.3642 2.4906-1.2348 4.47 0.74387 3.6898-0.94723 5.0572-6.2343 21.496-7.584 23.151-1.5089-2.7286-4.4449-18.526-4.8732-23.373 1.4497 0.49844 2.6953-0.35206 1.5108-3.2785 2.1887-5.8201 1.1654-10.615-1.1914-14.066 0.99391-3.7192 0.77364-7.0402-1.3326-13.261 4.1701-5.3606 3.9502-5.377 4.9507-10.001 1.3481-1.2858 13.687-1.4358 13.956 0.19605z" fill="url(#linearGradient1230)" stroke="#000" stroke-width=".27933px"/>
     <path d="m233.54 187.86c-3e-3 -8.2043-0.68213-18.866-1.7838-25.345-0.48706-2.8754 0.56782-4.2542-0.54388-6.7668-1.1114-2.5126-2.1989-6.0266-6.9912-8.7621-11.491-6.559-26.937-7.6827-38.59-1.1641-6.8145 3.3415-9.6757 11.661-12.494 19.377-1.4835 2.7419-3.4533 10.757-5.1783 13.578s-1.5487 6.4993-0.58534 7.2793c0.96337 0.78006 6.083 0.14944 7.9533-2.1818 1.8703-2.3313 21.556 0.74866 21.556 0.74866z" fill="#ff2a2a" stroke-width=".27933px" style=""/>
     <path d="m221.11 196.64s0.76503 0.96688 0.90192 1.4238c0.20789 0.69393-0.0874 2.2834-0.0874 2.2834l-0.30541 7.4565-0.69168 6.7172-0.8876 14.041s-0.31676 4.7668-0.0786 7.1324c0.12966 1.2879 0.81594 3.7964 0.81594 3.7964" fill="none" stroke-dasharray="0.22428621, 0.44857242" stroke-width=".22429" style=""/>
     <path d="m229.68 214.1c-0.42656 3.0275-1.4167 5.8988-1.9785 10.492-3.2446 0.71591-4.1842-2.5858-7.0983 0.16091-0.32236 0.30384-0.79224-0.2882-1.1756-0.48985 0.23874-4.0946 0.84213-8.5009 0.80907-11.934 2.7322-0.69155 2.6828 0.76743 9.4432 1.7706z" fill="#ff8080" stroke-width=".23434px" style=""/>
     <path d="m234.1 193.31c-0.50266 3.605-2.828 7.2292-0.52402 11.209-2.597 3.1072-2.7334 4.6413-2.7125 9.0509-3.0897 5.7241-2.6702 7.3668-1.8396 11.544-2.2466 2.9838-3.0604 6.0263-0.73731 3.8409-1.0273 4.7327-3.8597 14.542-6.5951 17.805-1.3781-2.8051-3.0706-12.7-2.311-16.602 1.299 1.4103 3.3931 0.0375 2.4204-3.281 2.0269-4.8062 1.1559-7.7444 0.0371-11.104 2.272-4.1591 0.59228-7.1714-0.88981-12.181 4.1346-5.6098 3.9368-5.5766 5.1554-9.8546 0.52644-1.848 7.1434-7.7288 6.9387-6.4247z" fill="url(#linearGradient1214)" stroke="#000" stroke-width=".24663px"/>
    </g>
    <g transform="matrix(1.0932 .88578 -.83719 1.1566 65.681 -251.66)" fill="none" style="">
     <path d="m226.82 192.36c-1.4588 3.4587-0.31884 4.9455 1.2819 9.22-4.0143-0.12825-4.7402 0.73528-7.1466 2.0138 1.5746 1.5742 2.8138 4.2896 5.9658 4.9554-3.2352 1.3422-2.3747 4.659-5.0828 7.2195 2.5456 2.1783 2.136 4.1569 3.8502 5.1524-1.7889 0.938-1.1156 2.1245-3.8957 5.9457 1.1187 0.665 2.6487-1.6891 3.6163 0.8461 1.2184-1.6038 1.7-1.8953 3.6137-2.6061-1.293-1.8947-0.0661-2.7739-1.9254-4.3225 1.3343-1.3302 1.7853-5.446 3.771-7.2159-1.594-1.9281-0.50815-3.4007-2.0936-4.8419 1.7322-0.7729 2.9059-2.6093 4.8051-4.2065l-0.85619-5.3774-0.89826-1.7966" stroke-width=".14952" style=""/>
     <path d="m220.95 203.59c1.9965-0.13274 6.0289 0.70846 7.4736 2.0617 1.2274-1.5883 2.3547-0.75918 4.2973-0.42922" stroke-width=".098571" style=""/>
    </g>
    <g transform="matrix(1.0932 .88578 -.83719 1.1566 65.681 -251.66)" style="">
     <g style="">
      <path d="m179.01 151.61c0.52563-0.31382 15.428-7.5712 27.712-6.7186 4.9318 0.34235 11.089 2.203 13.646 3.3701 3.5554 1.6223 5.2999 3.17 7.7361 5.7333 2.4636 2.5921 4.5936 13.13 4.7188 13.928 0.45881 0.92974 3.255 14.513 1.447 25.333-0.35285 2.1117 0.35058 5.4307-0.68609 11.261-0.9829 0.23893-3.2214-0.40895-4.2568-1.5357-2.3734-2.583-3.4993-1.7272-4.6049-2.492 0 0-2.5454-3.997-2.7584-9.9124-0.0264-0.73147-57.337-1.7576-55.462-3.3929-0.58227-13.1 11.909-33.991 12.508-35.573z" fill="#ff8080" stroke-width=".27933px" style=""/>
      <path d="m206.41 202.68c-1.0243 9.6345-1.5616 20.521-1.9226 31.862" fill="none" stroke-dasharray="0.22428621, 0.44857242" stroke-width=".22429" style=""/>
      <path d="m214.1 235.41 5.3737-36.019c0.0737-1.2807 0.94733-2.1169 1.6323-2.7567l0.58899-3.6148" fill="none" stroke-dasharray="0.22428621, 0.44857242" stroke-width=".22429" style=""/>
      <path d="m217.88 212.9c-0.12543 3.2571-1.1976 6.7327-1.3966 10.752-0.35151 0.0717-0.75844 0.4112-1.022 0.20269-4.7752-3.7776-7.815-0.86749-10.438 0.30042-0.26459 0.11781-0.67925-0.13582-0.95494-0.23228 0.0327-3.7666 0.72188-8.3672 0.79144-11.796 1.3477-1.6935 3.4328-8e-5 13.02 0.77265z" fill="#ff8080" stroke-width=".27933px" style=""/>
      <path d="m204.75 196.09c0.43228 0.08 1.0772 0.32352 1.5763 0.75084 0.14193 1.0708 0.24721 3.2074 0.2738 3.8562 0.0355 0.86403-0.18984 1.9872-0.18984 1.9872" fill="none" stroke-dasharray="0.22428621, 0.44857242" stroke-width=".22429" style=""/>
      <path d="m219.02 191.95c-0.38283 4.1385-2.0926 8.4296 1.4758 13.359-2.0386 3.3834-6.3875 6.9334-2.9257 12.083-2.5694 4.1967-5.2763 7.0263-2.9754 13.262-1.7668 2.7357-1.9507 4.7126 0.67649 4.0996-1.608 5.6751-4.3518 13.609-7.3008 18.337-1.8986-4.7276-3.4434-13.176-4.3781-18.867 1.6636 0.86322 2.5426-7e-3 1.3866-3.7867 2.8982-6.0276 0.82844-8.9826-0.50385-13.82 3.4872-3.7078 3.8116-7.0008 6e-3 -12.159 5.3228-6.1996 2.1752-7.6627 0.62579-12.258 1.3038-1.4517 13.681-1.974 13.913-0.2489z" fill="url(#linearGradient1222)" stroke="#000" stroke-width=".27933px"/>
      <path d="m158.32 224.35c0.93687-2.984 2.5418-5.2838 2.0903-9.0724 1.0036-2.3371 0.99169-4.8439 1.009-7.3458 0.43924-3.1797 1.3428-6.2372 2.2115-9.3165 0.93678-1.9801 2.3408-3.5619 4.2162-4.7418" fill="none" stroke-dasharray="0.22428621, 0.44857242" stroke-width=".22429" style=""/>
      <path d="m157.78 226.84c5.2543 2.3509 7.9505-7.0415 8.7704-15.108 0.0459-0.45123-4.9452-4.8005-4.9109-5.2412" fill="none" stroke-dasharray="0.22428621, 0.44857242" stroke-width=".22429" style=""/>
      <path d="m166.95 212.26c-0.0725 1.8861-0.30061 6.1559-1.0052 8.2029-0.43403 0.0774-1.0999 0.16638-1.3975-0.0483-3.8868-2.4674-5.1462 1.297-7.1392 0.12797 0.0403-2.663-0.13689-5.8716-0.27808-7.7816 0.84275-0.92448 1.8446 3.0817 8.3158-0.56312 0.41421-0.2333 0.97586 0.0411 1.5042 0.0623z" fill="#ff8080" stroke="#000" stroke-width=".17585px" style=""/>
      <path d="m160 213.47c0.72456 0.54924-0.88 3.677 0.87997 4.3858-0.57011 3.5702-2.5271 7.0105-2.8477 8.4279-0.41639 1.4018-0.19665 4.3059-1.0294 6.1273-0.33572-3.8974-0.0377-9.216-0.22034-12.342 0.71665-3.7391-0.10708-6.0142-0.15468-10.013 0.85649-2.5011 1.504-4.4715 1.0512-8.2512 2.9814-4.876 4.5729-9.5091 5.2831-15.136 2.8225-6.3493 4.5185-10.432 5.8872-16.14 0.91654-1.5101 3.199-5.2332 4.5145-7.3413 0.0268 1.4268-1.6844 6.9732-2.34 8.4418-0.48034 1.076-1.0677 2.5984-2.0518 5.8306-0.91593 3.0084-1.9486 10.832-2.3567 13.136-0.82977 4.6858-5.7069 8.7815-4.0804 11.455-1.185 2.7777-2.015 2.5349-1.0714 4.7275z" fill="url(#linearGradient1246)" stroke="#000" stroke-width=".27933px"/>
     </g>
     <g style="">
      <path d="m179.01 151.61c7.4506-11.2 34.196-10.122 45.995-1.7147 3.5775 2.5491 4.6809 5.0022 6.6653 9.8801" fill="none" stroke-width=".14952" style=""/>
      <path d="m225.81 190.95s-6.5338 0.22568-12.197-0.59722c-0.35852-0.99807-1.2448-1.8266-1.665-2.391-2.4477-4.1619 0.55519-3.2274-2.8846-0.51721-1.0614-0.0585-2.1353 0.17147-2.894 1.7326-4.4711 0.12326-9.4523 1.1349-13.277-1.4282 0.0413-1.5004-1.4388-2.3888-1.9859-2.6813-2.4154-3.2739 0.30708-3.3296-2.8211-0.2337-1.3848 0.31463-2.7539 0.69524-3.3753 0.70441-2.7038 2.2618-12.395 3.6146-15.649 0.1885-1.4877-1.5661-2.2935-0.85245-3.4958-2.3496 1.126-3.4064 2.3155-8.0678 3.6393-10.092 2.4559-6.4055 4.9176-13.375 6.9015-15.556 14.203-4.7885 27.747-6.5049 48.208-2.8329 8.0866 0.11289 10.672 38.589 9.3016 40.844-1.0037 0.98182-1.1967 1.1691-2.9721 2.4909-0.84075-1.4909-0.99158-2.2117-1.3625-3.0309-0.0428-0.38099 0.94464-2.3508-0.5716-5.2036-0.28623-2.016 4e-3 -1.8694-1.5194-0.27308z" fill="url(#linearGradient1262)" stroke="#000" stroke-width=".3191"/>
      <path d="m186.02 179.38-2.7973-2.773-4.1348 2.3058-4.2352 2.1974 0.43814-3.5657 7.9734-6.9198" fill="none" stroke-width=".074762" style=""/>
     </g>
     <path d="m176.28 245.73 4.6329-13.895c-1.084 3.2512 1.1051-23.417 3.0335-34.438 0.64877-0.91671 1.0828-2.1059 1.9931-2.6908l0.13126-3.5302" fill="none" stroke-dasharray="0.22428621, 0.44857242" stroke-width=".22429" style=""/>
    </g>
    <g transform="matrix(1.0932 .88578 -.83719 1.1566 65.681 -251.66)" stroke-width=".27933px" style="">
     <path d="m181.48 231.73c-0.0651 3.2589-2.1248 8.9054-4.0912 13.108-1.5175 1.9701-4.3829 2.0088-5.4158 0.85667 1e-3 -4.6027-1.7587-10.111-2.0059-13.416 1.3161-1.7181 1.4708-0.89284 11.071-0.29762z" fill="#ff8080" style=""/>
     <path d="m183.16 210.16c-0.0651 3.2589-1.3477 9.7348-1.4723 13.758-0.63192 0.12447-1.5145 0.66079-1.9536 0.28315-2.7887-2.3982-4.7709-3.3748-8.7347 0.75145-0.23153 0.24102-0.81347-0.16014-1.1314-0.2648 1e-3 -4.6027 0.46378-10.089 0.21652-13.394 1.3161-1.7181 3.2201-1.849 12.82-1.2538z" fill="#ff8080" style=""/>
     <path d="m181.76 193.42c-0.18588 3.9984 0.29268 4.4863 3.3319 10.229-1.9086 2.6348-3.8666 6.8333-3.3726 12.019-2.857 5.3353-2.5902 8.3964-1.8399 13.13-1.4919 2.4212-0.93747 3.4884 1.0344 3.0377-1.9147 4.1314-5.6582 17.166-6.6286 19.53-2.0149-2.8762-4.8837-15.077-4.8454-19.872 1.2781 0.77766 1.9177-0.59859 1.099-3.7409 1.4542-6.489 0.0941-9.002-0.57124-12.151 2.1841-3.6801 1.189-6.4879-0.13253-12.75 4.0939-4.6647 1.9686-8.1867 2.8953-12.643 0.40033-1.9248 9.1229 1.7764 9.0297 3.2123z" fill="url(#linearGradient1238)" stroke="#000"/>
    </g>
    <g transform="matrix(1.0932 .88578 -.83719 1.1566 65.681 -251.66)" fill="none" style="">
     <g stroke-width=".14952" style="">
      <path d="m192.96 192.15c-1.122 3.5821-1.753 4.5428-0.2956 8.8757-4.0601-0.39654-4.9258 0.644-7.1939 2.1469 2.5619 3.1945 2.692 4.6164 6.5905 7.004-3.1499 2.4135-3.091 3.2931-5.2604 6.2561 2.4042 2.5248 3.43 5.9088 4.6947 7.5036-1.3251 0.9343-2.2488 4.4215-3.5053 6.5637 1.1523 1.2349 3.5462 0.85778 4.5366 2.657 1.5605-1.6984 3.5131-1.6404 5.6696-2.847-1.2892-1.8947-1.8099-4.5308-3.386-6.2677 1.4264-1.0061 3.363-5.1948 5.3472-6.9684-0.53075-3.135-1.2716-5.5404-4.163-6.929 2.8497-1.283 5.3118-3.4988 7.8756-5.6549-1.9921-2.6487-3.1242-3.2584-6.4866-3.4796 3.6083-3.062 3.6724-5.8929 5.4443-9.6146" style=""/>
      <path d="m185.09 203.65c-1.9921-2.6487-3.1242-3.2584-6.4866-3.4796 3.6083-3.062 3.6724-5.8929 5.4443-9.6146" style=""/>
     </g>
     <path d="m174.29 251.37c-0.88298-6.9297-1.3426-13.987 0.0511-21.145l0.49281-12.383 2.258-13.115 1.1863-12.166" stroke-width=".22429" style=""/>
     <path d="m173.81 191.84c-1.122 3.5821 1.0283 4.0893 2.4856 8.4223-4.0601-0.39654-4.1948 1.083-6.4624 2.5885" stroke-width=".14952" style=""/>
     <path d="m207.97 253.09c0.39809-6.6563 0.6765-13.303 1.5451-19.997l1.3667-13.687 0.88174-12.688 2.1288-15.851" stroke-width=".074762" style=""/>
     <path d="m221.69 246.76 3.7187-19.04 1.6234-10.508 1.3882-11.558-1.6016-13.293" stroke-width=".074762" style=""/>
    </g>
   </g>
   <g transform="matrix(1.0932 .93302 -.83719 1.2183 65.681 -265.41)" style="">
    <path d="m219.71 204.16c-2.4215-2.1617-3.8121-2.3406-5.709-2.3252 2.8938-2.2015 4.2948-6.426 4.3865-7.0613-0.16849 3.8033-3.2787 5.3833 1.3225 9.3865z" opacity=".121" style=""/>
    <path d="m203.6 203.99c-1.883-2.3494-3.4006-2.929-6.2127-2.9754 1.8912-1.2567 5.603-8.4073 6.0607-8.2849-0.0726 0.58785 0.351 0.9675 0.25854 1.4866-4.8095 5.8002-2.6257 5.3832-0.10654 9.7737z" opacity=".121" style=""/>
    <path d="m185.09 203.65c-1.8159-2.5178-3.7628-3.5917-6.4866-3.4796 1.7096-1.3962 2.9232-3.6398 3.269-3.8722 0.0188 2.836-4e-3 3.466 3.2177 7.3518z" opacity=".121" style=""/>
   </g>
   <path d="m144.66 173.52c-5.0529 2.8808-7.493 6.2699-14.001 6.6336 3.4906 3.4067 4.2178 5.2058 4.1781 10.291-4.6078 0.23466-9.914 0.4518-13.344-0.45882 0.71102 4.3671-0.14204 7.2753 0.0268 12.457-3.6564 0.3068-9.0731 2.9821-11.475 2.877 0.26872 3.5864-2.7082 6.9893-2.8767 10.505-3.3593-0.53729-4.4628-2.3791-7.5906-1.7659 0.42358-3.116-2.5091-4.8901-2.735-7.4697 3.167-1.4375 7.8312-4.3077 10.062-4.2096-0.0474-3.1229 1.4752-7.7782 0.95623-13.099 4.4746 0.485 6.3527-0.99821 11.817-0.99961-2.263-6.5462-1.5067-7.5235-1.6294-13.812 3.7413 0.27895 5.2188-0.25538 9.8145 3.1731 1.2463-6.8651 0.99863-9.7269 5.2241-13.044" fill="none" stroke="#000" stroke-width=".21734" style=""/>
   <path d="m140.88 177.78s-6.73-4.1331-12.102-9.2447c0.97477-1.4462 0.66406-3.6553-0.2165-4.7467 0.44959-7.1675 2.8133-3.5976-2.7874-2.5206-1.0766-0.83327-2.3767-1.2994-4.3133 0.19279-4.8044-3.0288-10.794-5.2641-12.961-11.332 1.1362-1.9251 0.22226-4.1382-0.14167-4.9095-0.16294-5.9878 2.7484-4.1183-2.8047-2.3168-1.6893-0.5779-3.6931-0.47777-5.8534 1.3924-4.7211-6.1338-7.494-7.5461-11.54-7.6304 0.46222-1.0405-0.57008-1.5464-0.43006-2.1621 2.7505-8.6007 3.0099-2.8453-4.7824-3.1529l-4.3402-1.5694-4.4072 2.3679 0.78986-2.9542c0.83238-1.5738 3.5191-2.8556 6.7408-5.6994 3.6678-3.6342 9.9687-7.1512 12.838-8.8428 1.8265-0.20384 6.5606 0.38789 8.5674 2.6308 17.046 8.5404 34.914 31.658 53.816 51.036 4.5154 9.6661 4.832 14.685-5.0959 22.985l-2.7989-0.78239c-3.0674 1.7877-0.86864 4.5781-1.0793 6.9098-0.79658 0.24907-3.5634 1.1836-4.7565 0.83699l-2.5471-7.5541c0.19906-2.5418 0.56487-3.5884 0.77029-4.9201 0.23229-0.52682 3.6358-2.4028 4.1142-7.2006 1.1662-2.8304 1.5464-2.2166-1.2222-1.2237z" fill="url(#linearGradient1254)" stroke="#000" stroke-width=".43905"/>
   <path d="m184.61 117.35c-9.8769-9.6648-9.0498-19.485-9.2891-29.289-8.9526 1.2744-18.406 3.7385-27.898-3.8754-28.142 7.0931-21.276 25.379-32.566 51.165-0.22046 0.50203-6.1935-0.86453-6.4165-0.3573 3.4436 0.44954 5.9197 4.2035 5.3576 9.0235 7.4173-0.75688 5.4173 3.7411 5.8993 10.2 5.7075 0.20736 9.8637-1.994 11.628 4.1524 5.736-0.52266 6.4121 2.2641 7.7715 7.9281 12.41-12.078 26.349-18.536 47.325-24.248-4.1639-7.9973-5.6292-17.269-1.8118-24.7z" fill="#040000" opacity=".104" stroke-width="1.4536" style=""/>
   <g transform="matrix(1 0 0 1.0533 0 -.3261)" fill="none" stroke="#000" style="">
    <path d="m83.463 132.16c-0.44244-2.9091 3.303-5.8188 6.1406-8.7284" stroke-dasharray="0.31766096, 0.63532192" stroke-width=".31767" style=""/>
    <path d="m104.03 145.6 2.2022-3.195c0.49329-1.5411 0.21353-2.9422-0.30188-4.3006" stroke-dasharray="0.31766097, 0.63532194" stroke-width=".31767" style=""/>
    <g transform="matrix(1.0932 .88578 -.83719 1.1566 65.681 -251.66)" stroke-width=".14952" style="">
     <path d="m160.14 217.09s-2.4107 1.3697-2.6486 3.3774c-0.23793 2.0076-0.52325 11.474-0.52325 11.474" style=""/>
     <path d="m188.36 233.14s2.3102 0.16766 2.0256 3.659c-0.28458 3.4913 0.97346 20.354 0.97346 20.354" style=""/>
     <path d="m196.98 233.41s-2.0055-0.44459-2.2083 3.0524c-0.20285 3.497-3.4157 20.688-3.4157 20.688" style=""/>
     <path d="m221.39 230.33s1.9404-1.3808 1.2738 5.235-0.96562 11.196-0.96562 11.196" style=""/>
     <path d="m227.07 229.66s-1.467-0.49523-1.7924 2.9115c-0.4711 4.9314-3.5826 14.189-3.5826 14.189" style=""/>
     <path d="m205.19 234.29s2.7132-0.62541 2.3948 3.6186c-0.44656 5.952 0.3853 15.181 0.3853 15.181" style=""/>
     <path d="m213.35 234.24s-2.4591-0.78666-2.9512 2.9707c-0.65343 4.9893-2.4318 15.885-2.4318 15.885" style=""/>
     <path d="m178.95 230.88s-3.4003-1.019-4.0125 3.0413c-0.70258 4.6595-0.65183 17.443-0.65183 17.443" style=""/>
     <path d="m171.02 230.52c0.9799 0.65119 1.2555 3.2809 1.2555 3.2809 0.66974 5.8543 0.21305 11.612 2.0093 17.563" style=""/>
     <path d="m186.8 216.43c2.1469 0.7608 5.2544 0.86853 6.6279 2.7064 2.3338-1.7696 4.5233-1.4936 6.726-2.0652" style=""/>
     <path d="m185.47 203.17c3.0285-0.20132 6.3306 0.33559 8.5221 2.3884 3.0104-1.8252 6.9326-1.5691 9.8794-1.0686" style=""/>
    </g>
    <path d="m107.86 180c1.662 2.7491 4.7256 5.5792 4.6599 8.9027 3.9763-0.0188 6.1726 2.3375 9.0067 3.5931" stroke-width=".20969" style=""/>
    <path d="m118.05 165.94c3.2198 2.267 5.4414 5.0725 6.068 9.066 4.4596 0.51409 8.1324 3.1529 10.726 6.1042" stroke-width=".19598" style=""/>
    <path d="m127.56 194.4c1.2494 2.0668 4.136 2.9851 4.4755 6.2659 3.36-0.6204 4.5116-0.79307 7.2359-0.81988" stroke-width=".15764" style=""/>
    <path d="m61.445 162.82c3.167-1.3647 5.3239-3.8864 7.5547-3.7932-0.04742-2.9648 2.5117-5.717 1.9939-10.767" stroke-width=".21177" style=""/>
    <path d="m70.562 172.31c0.17272-3.3367 1.8104-6.8469 1.5415-10.252 2.4016 0.0998 8.0255-3.0294 11.681-3.3196" stroke-width=".21177" style=""/>
    <path d="m70.994 148.26c1.4865 2.4179 3.4744 3.9879 3.4421 6.8931 3.5055 0.0179 6.8395 2.4729 9.3485 3.5942" stroke-width=".18408" style=""/>
    <path d="m61.445 162.82c-0.38351 2.6422 2.5243 3.5367 2.0846 6.2188 2.0638-0.53098 4.7659 0.6193 7.0318 3.2793" stroke-width=".18465" style=""/>
    <path d="m54.549 140.16c1.1019-2.0016 3.8405-3.3035 7.3275-3.1836" stroke-width=".19034" style=""/>
    <g transform="matrix(1.0932 .88578 -.83719 1.1566 65.681 -251.66)" stroke-width=".14952" style="">
     <path d="m160 213.47c-0.43958-1.1671-0.36399-2.1925-1.3507-3.3962 1.5916-0.80379 1.6572-2.5504 2.8142-3.2956" style=""/>
     <path d="m169.84 202.85c2.5624 3.1971 1.2276 4.5368 5.1261 6.9244-3.1499 2.4135-2.8262 2.8642-4.9935 5.8259" style=""/>
     <path d="m185.09 203.65c-2.5638 2.1561-3.7376 4.7334-6.5873 6.0164 2.8915 1.3886 2.6864 2.8692 3.2147 6.0029" style=""/>
    </g>
    <path d="m81.526 133.4c2.6725 1.8816 5.8405 5.2742 6.3606 8.5889 3.7017 0.42673 7.4973 3.3989 9.6498 5.8485" stroke-width=".16266" style=""/>
    <path d="m61.049 130.04c3.4335-0.74803 5.3563-0.0565 8.0301 0.49263" stroke-width=".18408" style=""/>
    <path d="m69.207 130.24c0.21331-1.8028 0.96321-3.0731 0.53349-5.2946 2.4549 0.0444 3.6554-2.1625 5.543-2.3376" stroke-width=".21177" style=""/>
    <path d="m69.103 121.42c2.7412 0.31602 4.5898-0.62916 6.1838 1.1849" stroke-width=".12046" style=""/>
    <g transform="matrix(1.0932 .88578 -.83719 1.1566 65.681 -251.66)" stroke-width=".14952" style="">
     <path d="m186.07 191.18 4.6304-3.9544 10.566-0.68925 3.8096 5.1377" style=""/>
     <path d="m170.34 193.85s1.1938-4.2332 2.0408-6.2569c0.54249-1.2962 5.9194-3.9183 5.9194-3.9183s5.3047 2.3018 6.0841 3.5172c0.92218 1.4382 1.6922 3.9874 1.6922 3.9874" style=""/>
     <path d="m205.08 191.67 4.6409-3.4801 4.3643-1.5094 4.1943 2.0947 3.4172 4.2462" style=""/>
     <path d="m224.31 154.9 1.6744 8.047-0.3416 6.3083-1.1721 14.838" style=""/>
     <path d="m225.2 174.9-10.376-9.5165" style=""/>
    </g>
    <path d="m121.44 95.896-11.999 6.4826-0.76719 6.5754" stroke-width=".10589" style=""/>
   </g>
   <g transform="matrix(1 0 0 1.0533 0 -.3261)" stroke="#000" style="">
    <g transform="matrix(.86438 .59152 -.55907 .91451 97.577 -97.999)" style="">
     <path d="m169.99 117.43c-12.631-1.8629-16.606-9.4864-21.443-16.536-6.6989 5.656-13.244 12.448-24.59 11.882-2.659 8.1436-6.2517 13.268-14.951 12.937 9.5942 16.021 11.022 28.372 12.784 43.152 3.0215-1.4878 4.304-1.4441 6.1274 2.3803 5.6916-4.4672 7.5646 1.1926 11.015 5.6657 4.7536-2.8594 7.4765-6.6634 11.825-3.0955 4.4312-3.4088 6.1144-1.7257 9.9045 1.7026 4.405-15.387 8.0917-25.718 22.497-40.965-7.1821-3.6566-12.767-9.6694-13.171-17.122z" fill="url(#linearGradient1198)" stroke-width=".37362px"/>
     <g fill="none" style="">
      <path d="m148.54 100.9c-4.5568 24.888-8.0508 50.13-9.6135 76.016" stroke-width=".2" style=""/>
      <g stroke-width=".3" style="">
       <path d="m109 125.71c9.4778 11.932 13.683 24.809 12.784 43.152" style=""/>
       <path d="m160.66 175.52c1.8123-17.084 10.276-32.713 22.497-40.965" style=""/>
       <path d="m127.91 171.25c0.90141-19.779 0.52361-39.392-3.9607-58.469" style=""/>
       <path d="m169.99 117.43c-9.7331 15.71-19.187 31.678-19.231 56.385" style=""/>
      </g>
     </g>
    </g>
    <g transform="matrix(1.0932 .88578 -.83719 1.1566 65.681 -251.66)" fill="none" style="">
     <path d="m206.38 116.84c-0.66948-5.4719-1.2231-10.814-1.0333-16.342" stroke-width=".14952" style=""/>
     <path d="m234.22 95.639-0.10273-12.7" stroke-width=".22429" style=""/>
     <path d="m177.72 100.63c-0.79746-3.7678-0.16686-8.0493-0.37053-12.111" stroke-width=".22429" style=""/>
    </g>
    <g transform="matrix(1.0932 .88578 -.83719 1.1566 65.681 -251.66)" fill="#ff8080" stroke-width=".14114px" style="">
     <path d="m166.23 192.6c-1.3701 0.5228-0.76284 2.2893 0.671 1.8311 1.6139-0.51575 0.8227-2.4011-0.671-1.8311z" style=""/>
     <path d="m168.07 186.1c-1.3701 0.5228-0.76284 2.2893 0.671 1.8311 1.6139-0.51575 0.8227-2.4011-0.671-1.8311z" style=""/>
     <path d="m169.62 178.55c-1.3701 0.52281-0.76284 2.2893 0.671 1.8311 1.6139-0.51575 0.8227-2.4011-0.671-1.8311z" style=""/>
     <path d="m170.78 174.19c-1.3701 0.52281-0.76284 2.2893 0.671 1.8311 1.6139-0.51575 0.8227-2.4011-0.671-1.8311z" style=""/>
     <path d="m171.98 170.44c-1.3701 0.5228-0.76284 2.2893 0.671 1.8311 1.6139-0.51575 0.8227-2.4011-0.671-1.8311z" style=""/>
     <path d="m173.61 166.19c-1.3701 0.5228-0.76284 2.2893 0.671 1.8311 1.6139-0.51575 0.8227-2.4011-0.671-1.8311z" style=""/>
    </g>
   </g>
   <g transform="matrix(1 0 0 1.0533 0 -.3261)" fill="none" style="">
    <g stroke="#000" style="">
     <g transform="matrix(1.0932 .88578 -.83719 1.1566 65.681 -251.66)" style="">
      <path d="m178.3 183.67 0.28714-3.082" stroke-width=".14952" style=""/>
      <path d="m214.08 186.68 0.52912-3.6475" stroke-width=".14952" style=""/>
      <g stroke-width=".074762" style="">
       <path d="m228.72 199.07-3.5616 0.36681-1.1955 3.4345" style=""/>
       <path d="m228.42 205.65c-0.5771-1.0418-0.12042-2.1658-0.17938-3.2488l-3.0868-2.9694" style=""/>
       <path d="m230.84 203.12-2.5903-0.71546" style=""/>
       <path d="m225.16 199.43-0.25855-5.7466-3.2048-0.66243" style=""/>
       <path d="m230.64 198.23-2.2414-3.4354-0.34558-2.2595-3.157 1.1462" style=""/>
       <path d="m228.06 192.54-0.59459-3.1024-2.1417-3.3751-0.84544-1.9692" style=""/>
      </g>
      <g stroke-width=".14952" style="">
       <path d="m230.64 198.23 2.0756-3.5205-0.41681-7.3263-4.4837-7.3372-2.618-5.1475" style=""/>
       <path d="m230.84 203.12 1.8871-3.9789 0.89332-3.3948" style=""/>
      </g>
      <path d="m195.71 197.12-1.7182 8.4353-0.27503 4.7266-0.28652 8.8528-0.89987 14.017-1.1743 23.994" stroke-width=".074762" style=""/>
      <g stroke-width=".14952" style="">
       <path d="m177.35 88.515 10.457 10.425 17.719 9.6479 18.048-13.104 10.542-12.544" style=""/>
      </g>
      <path d="m196.1 111.49c-5.9612-3.67-9.6589-8.0355-18.373-10.86" stroke-width=".074762" style=""/>
      <path d="m216.55 110.45c5.1671-6.1361 11.291-10.687 17.67-14.815" stroke-width=".074762" style=""/>
     </g>
     <path d="m152.8 145.48 3.5287 5.3898 0.62553 9.2292" stroke-width=".10589" style=""/>
     <path d="m186.47 136.74s1.1998-3.5378 1.3508-5.3896c0.33212-4.0702 0.059-8.283-1.0066-12.21-0.99138-3.6535-2.8786-7.0146-4.9019-10.156-3.2554-5.0536-7.0875-9.9545-11.49-13.741" stroke-dasharray="0.21177397, 0.42354795" stroke-width=".21177" style=""/>
     <path d="m152.2 27.205c3.7883 9.1959 7.5694 18.394 8.0823 28.333-2.5156 5.1295-4.2522 10.159-3.0355 14.81" stroke-width=".10589" style=""/>
     <path d="m245.18 94.56c-9.0018-1.5558-17.985-1.659-26.937 0.48294-7.0008 5.6419-13.936 6.7883-20.867 7.679" stroke-width=".10589" style=""/>
    </g>
    <path d="m121.8 85.495c5.2698 3.9104 11.252 4.2318 18.686-2.7694 7.3892 6.6778 16.579 3.9963 25.62 3.2445 0.72026 9.6324 0.50078 20.003 8.8554 25.945-3.3211 8.026-2.1945 15.159 1.6801 21.74" stroke="#080000" stroke-width=".13448" style=""/>
   </g>
   <g transform="matrix(1.0932 .93302 -.83719 1.2183 65.681 -265.41)" style="">
    <path d="m191.36 257.15 3.7492-22.488c0.77519-1.2817 1.3177-1.1522 1.8749-1.2525 0.21226 0.88089 0.94263 0.9578 1.9599 0.58941-3.5158 6.5058-3.987 13.356-7.584 23.151z" opacity=".121" style=""/>
    <path d="m207.97 253.09c0.93284-5.7932 2.1522-14.351 2.7985-17.379 0.58075-1.5336 2.0825-1.5918 2.498-1.5614 0.15844 0.6575 1.2451 0.87908 2.0044 0.60412-5.1171 5.1339-4.7834 11.666-7.3008 18.337z" opacity=".121" style=""/>
    <path d="m221.69 246.76c1.9359-5.2637 3.2928-12.813 3.9391-15.841 0.54446-1.365 1.0204-1.2894 1.4359-1.259 0.33713 0.19582 0.45865-0.24739 1.22-0.70481-2.8557 5.1749-3.4063 11.202-6.5951 17.805z" opacity=".128" style=""/>
    <path d="m174.29 251.37c-0.12166-10.594 0.22958-17.801 1.4022-19.485 0.7752-1.2817 2.6919-1.0639 3.2622-0.99947 0.21226 0.88089 0.94687 1.3232 1.9642 0.95477-4.0656 1.8185-4.8808 6.5749-6.6286 19.53z" opacity=".091" style=""/>
    <path d="m214.59 230.66c-1.072-1.9481-1.2287-5.3142-2.5008-6.7067 0.96983-0.76774 5.0608-6.5858 5.4762-6.5554-3.2516 5.6355-5.8278 5.529-2.9754 13.262z" opacity=".121" style=""/>
    <path d="m197.82 229.69c-1.072-1.9481-1.7356-4.2591-3.0078-5.6517 0.96984-0.76774 4.7417-6.7614 5.1572-6.731-2.668 3.5093-4.7693 7.3-2.1494 12.383z" opacity=".121" style=""/>
    <path d="m200 216.2c-0.86006-2.8854-1.4541-5.1349-4.0022-6.0524 2.2252-0.45229 7.0954-5.1174 7.5108-5.087-2.722 3.4421-5.1828 5.4407-3.5087 11.139z" opacity=".121" style=""/>
    <path d="m217.41 217.16c-2.1546-3.0386-3.4517-4.859-4.798-6.1954 2.1331-0.7262 6.9117-4.8966 7.4275-5.2787-2.6315 2.9002-7.3699 5.7583-2.6295 11.474z" opacity=".121" style=""/>
    <path d="m181.55 214.07c-0.56563-2.5878-0.84976-3.3714-3.0433-4.3992 2.2252-0.45229 5.6574-5.6045 6.3566-5.6904-2.2913 3.1845-4.8364 4.0472-3.3133 10.09z" opacity=".111" style=""/>
    <path d="m179.88 228.8c-0.99595-0.99297-2.2376-4.77-3.5098-6.1626 0.96983-0.76774 4.7417-6.7614 5.1572-6.731-3.0719 3.6863-4.5795 7.3253-1.6474 12.894z" opacity=".121" style=""/>
    <path d="m216.17 147.09c-5.3727 2.0747-10.694-2.4251-13.708-5.67-3.5326-3.8034-2.982-2.4716-3.6515-1.7698l0.39833-3.6118c1.4429 2.5084 7.5898 10.879 16.961 11.052z" opacity=".091" style=""/>
    <path d="m227 159.07c-6.4177-1.8956-9.2345-5.8584-10.203-8.3014-0.974-2.4573-1.496-1.9805-2.0541-0.88837 1.4255-2.7893 1.0798-2.5569 1.4255-2.7893 0.36314 2.7818 2.7599 8.9854 10.831 11.979z" opacity=".151" style=""/>
    <path d="m198.81 139.65c2.5266 18.282-3.7415 28.377 0.42009 51.317l-2.6769 2.2937c-0.51839-20.725 1.2092-38.253 2.2568-53.611z" opacity=".091" style=""/>
    <path d="m214.75 149.88c-4.0463 13.639-7.7558 19.547-8.1017 25.534-0.34589 5.9876-2.4143 13.417 1.6954 13.01-1.2803 0.36339-2.2316 1.0815-3.1555 1.8292-0.82961-20.513 3.7455-27.214 9.5618-40.373z" opacity=".091" style=""/>
    <path d="m230.8 213.39c-1.0669-1.1646-0.80031-3.724-2.0293-4.6644 1.2157-0.41389 3.8176-3.2783 4.1116-3.496-1.7213 1.6776-3.7317 4.3661-2.0823 8.1604z" opacity=".121" style=""/>
    <path d="m228.87 224.63c-0.75228-0.84664-0.11466-2.3535-1.7761-3.8476 1.6015-2.409 2.5847-6.6863 3.772-7.2184-1.5447 2.224-4.0217 6.3004-1.9959 11.066z" opacity=".121" style=""/>
    <path d="m221.82 246.31c1.3504-6.4358 2.9454-15.562 3.5917-18.59 0.54446-1.365 3.1982-2.6365 3.6137-2.6061-0.97318 1.0462-1.8166 2.361-2.2691 4.484-0.24608 0.0363-0.52754 0.18658-0.87292 0.5427-0.23465 0.81204-0.54167 1.1828-0.66769 2.657-0.54793 4.8137-2.2103 9.0369-3.3957 13.513z" opacity=".078" style=""/>
    <path d="m228.42 205.65c-0.59321-1.252 0.0116-2.4412-0.17938-3.2488 0.0121 3.4107 1.0428 2.3453 1.3368 2.1275z" opacity=".141" style=""/>
    <path d="m225.16 199.43c3.5616-0.36681 1.1911-0.0588 3.3153-0.30492-4.7953 0.47888-1.1061 0.32346-0.2285 3.2743z" opacity=".141" style=""/>
    <path d="m224.9 193.69 3.157-1.1462c-3.786 1.2575-2.0211 4.5763-2.8984 6.8929z" opacity=".141" style=""/>
    <g stroke="#000" stroke-width=".14952" style="">
     <path d="m168.16 187.79c-1.2162-0.37031-0.18228-2.1124 0.77625-1.3923-0.91309-0.17051-1.3381 0.71322-0.77625 1.3923z" opacity=".314" style=""/>
     <path d="m166.3 194.26c-1.2162-0.37031-0.18228-2.1124 0.77625-1.3923-0.91309-0.1705-1.3381 0.71321-0.77625 1.3923z" opacity=".314" style=""/>
     <path d="m169.63 180.21c-1.2162-0.37032-0.18228-2.1124 0.77625-1.3923-0.91309-0.1705-1.3381 0.71321-0.77625 1.3923z" opacity=".314" style=""/>
     <path d="m170.87 175.8c-1.2162-0.37031-0.18228-2.1124 0.77625-1.3922-0.91327-0.17047-1.3379 0.71316-0.77625 1.3922z" opacity=".314" style=""/>
     <path d="m172.05 172.07c-1.2162-0.3703-0.18227-2.1124 0.77625-1.3922-0.91309-0.1705-1.3381 0.7132-0.77625 1.3922z" opacity=".314" style=""/>
     <path d="m173.67 167.89c-1.2162-0.37026-0.18229-2.1124 0.77625-1.3922-0.91308-0.1705-1.3381 0.71321-0.77625 1.3922z" opacity=".314" style=""/>
    </g>
    <path d="m209.02 106.04c-3.8893 2.6515-2.9267-0.11431-3.6798-5.5369 0.0967 6.6475 0.10589 7.4477 0.18659 8.0845z" opacity=".151" style=""/>
    <path d="m234.22 95.639c-11.945 5.1516-17.104 6.5394-17.67 14.815 4.9562-5.312 11.336-9.9912 17.67-14.815z" opacity=".121" style=""/>
    <path d="m232.38 151.45c2.6484-4.2463-0.84594-18.533-8.5486-16.466 3.8829 3.2864 11.286 9.2386 8.5486 16.466z" opacity=".121" style=""/>
    <path d="m234.1 193.31c0.21321-5.2882-0.11964-11.711 0.0926-15.178-2.2493-12.266-4.9298-16.186-4.8381-16.821 2.1345 2.5188 5.0083 25.976 4.7454 31.999z" opacity=".151" style=""/>
    <path d="m159.35 228.16c-1.2705 1.2259-0.77813 1.6506-1.915 3.2728 0.65132-3.297 0.36138-2.7566 0.46096-3.6033 1.4486 0.36508 0 0 1.4541 0.33053z" fill="#00000f" opacity=".211"/>
   </g>
   <g transform="matrix(1.0932 .93302 -.83719 1.2183 65.681 -265.41)" fill="#fff" style="">
    <path d="m198.81 139.65c-1.9338 16.156-2.6324 33.714-2.2568 53.611-1.3755-10.188-3.3298-38.056 2.2568-53.611z" opacity=".071" style=""/>
    <path d="m214.75 149.88c-7.5785 14.731-10.369 23.112-9.6679 41.792-1.3755-10.188-2.448-23.468 9.6679-41.792z" opacity=".071" style=""/>
    <path d="m182.69 149.2c4.2226 17.406 3.644 25.238 5.3241 40.497-1.9189-13.352-2.8003-26.723-5.3241-40.497z" opacity=".071" style=""/>
   </g>
  </g>
 </g>
 <style>svg { cursor: default; }</style>
 <style>svg { cursor: default; }</style>
 <style>svg { cursor: default; }</style>
 <style>svg { cursor: default; }</style>
 <style>svg { cursor: default; }</style>
 <style>svg { cursor: default; }</style>
</svg>
