<?xml version="1.0" encoding="UTF-8"?>
<!-- Generator: Adobe Illustrator 16.0.0, SVG Export Plug-In . SVG Version: 6.00 Build 0)  -->
<svg enable-background="new 0 0 256 256" version="1.1" viewBox="0 0 256 256" xml:space="preserve" xmlns="http://www.w3.org/2000/svg" xmlns:cc="http://creativecommons.org/ns#" xmlns:dc="http://purl.org/dc/elements/1.1/" xmlns:rdf="http://www.w3.org/1999/02/22-rdf-syntax-ns#" xmlns:xlink="http://www.w3.org/1999/xlink"><metadata><rdf:RDF><cc:Work rdf:about=""><dc:format>image/svg+xml</dc:format><dc:type rdf:resource="http://purl.org/dc/dcmitype/StillImage"/><dc:title/></cc:Work></rdf:RDF></metadata><defs><linearGradient id="innoGrad2"><stop stop-color="#ffb380" offset="0"/><stop stop-color="#f95" offset="1"/></linearGradient><linearGradient id="innoGrad3"><stop stop-color="#ffe680" offset="0"/><stop stop-color="#fd5" offset="1"/></linearGradient><linearGradient id="innoGrad1"><stop stop-color="#ff8080" offset="0"/><stop stop-color="#f55" offset="1"/></linearGradient><linearGradient id="linearGradient917" x1="65.104" x2="99.689" y1="50.918" y2="58.515" gradientUnits="userSpaceOnUse" xlink:href="#innoGrad1"/><linearGradient id="linearGradient943" x1="181.29" x2="207.88" y1="56.053" y2="27.986" gradientUnits="userSpaceOnUse" xlink:href="#innoGrad1"/><linearGradient id="linearGradient951" x1="226.93" x2="231.78" y1="138.66" y2="138.19" gradientUnits="userSpaceOnUse" xlink:href="#innoGrad1"/><linearGradient id="linearGradient959" x1="153.91" x2="120.61" y1="81.876" y2="80.753" gradientUnits="userSpaceOnUse" xlink:href="#innoGrad1"/><linearGradient id="linearGradient961" x1="68.713" x2="99.963" y1="25.158" y2="28.469" gradientUnits="userSpaceOnUse" xlink:href="#innoGrad1"/><linearGradient id="linearGradient963" x1="34.931" x2="80.743" y1="69.915" y2="25.291" gradientUnits="userSpaceOnUse" xlink:href="#innoGrad1"/><linearGradient id="linearGradient965" x1="56.994" x2="129.11" y1="104.96" y2="-4.6284" gradientUnits="userSpaceOnUse" xlink:href="#innoGrad1"/><linearGradient id="linearGradient967" x1="44.633" x2="56.986" y1="148.98" y2="151.82" gradientUnits="userSpaceOnUse" xlink:href="#innoGrad1"/><linearGradient id="linearGradient975" x1="158.61" x2="173.3" y1="66.759" y2="76.013" gradientUnits="userSpaceOnUse" xlink:href="#innoGrad1"/><linearGradient id="linearGradient993" x1="127.64" x2="171.73" y1="40.611" y2="50.98" gradientUnits="userSpaceOnUse" xlink:href="#innoGrad1"/><linearGradient id="linearGradient995" x1="87.609" x2="119.38" y1="78.602" y2="78.602" gradientUnits="userSpaceOnUse" xlink:href="#innoGrad1"/><linearGradient id="linearGradient1003" x1="153.98" x2="139.18" y1="126.89" y2="126.73" gradientUnits="userSpaceOnUse" xlink:href="#innoGrad3"/><linearGradient id="linearGradient1011" x1="65.659" x2="190.39" y1="63.99" y2="39.438" gradientUnits="userSpaceOnUse" xlink:href="#innoGrad3"/><linearGradient id="linearGradient1019" x1="53.593" x2="109.29" y1="25.247" y2="25.247" gradientUnits="userSpaceOnUse" xlink:href="#innoGrad1"/><radialGradient id="radialGradient1027" cx="-131.54" cy="32.675" r="3.3672" gradientTransform="matrix(.21837 .0071159 -.016938 .51979 -102.27 16.627)" gradientUnits="userSpaceOnUse" xlink:href="#innoGrad1"/><radialGradient id="radialGradient1029" cx="99.213" cy="31.273" r="1.9719" gradientTransform="matrix(.44991 -1.4383e-7 2.1706e-7 .67898 54.576 10.039)" gradientUnits="userSpaceOnUse" xlink:href="#innoGrad1"/><linearGradient id="linearGradient1037" x1="91.867" x2="54.343" y1="78.478" y2="50.471" gradientUnits="userSpaceOnUse" xlink:href="#innoGrad2"/><linearGradient id="linearGradient1045" x1="191.99" x2="197.15" y1="78.164" y2="71.541" gradientUnits="userSpaceOnUse" xlink:href="#innoGrad2"/><linearGradient id="linearGradient1053" x1="164.94" x2="128.55" y1="48.404" y2="48.932" gradientUnits="userSpaceOnUse" xlink:href="#innoGrad2"/><linearGradient id="linearGradient1055" x1="168.34" x2="143.62" y1="51.727" y2="53.706" gradientUnits="userSpaceOnUse" xlink:href="#innoGrad2"/><linearGradient id="linearGradient1063" x1="93.967" x2="123.75" y1="20.462" y2="23.721" gradientUnits="userSpaceOnUse" xlink:href="#innoGrad2"/><linearGradient id="linearGradient1065" x1="88.534" x2="125.62" y1="28.784" y2="32.523" gradientUnits="userSpaceOnUse" xlink:href="#innoGrad2"/></defs>
<style>svg { cursor: default; }</style><style>svg { cursor: default; }</style><style>svg { cursor: default; }</style><style>svg { cursor: default; }</style><style>svg { cursor: default; }</style><style>svg { cursor: default; }</style><path d="m249.64 79.561 5.3388 28.116s-10.983 12.309-41.179 11.081c-34.417-1.4005-88.13-55.215-93.527-33.057-19.539 10.318-39.667 8.9401-71.837 19.605-12.059 3.9978-30.327 2.2637-30.327 2.2637l60.707-79.796 17.45-10.507c2.9452-6.4129-0.33109-6.067 1.2821-10.628 21.91-1.4849 34.821-0.62093 52.203 0.17505 11 0.50375 25.209 1.6728 32.904 2.9088 2.1753 12.046 36.616 10.015 46.32 14.211z" fill="#fd5" stroke="#000" stroke-miterlimit="4.4737" stroke-width=".49203"/><path d="m249.64 79.561 5.3388 28.116s-10.983 12.309-41.179 11.081c-34.417-1.4005-88.13-55.215-93.527-33.057-19.539 10.318-39.667 8.9401-71.837 19.605-12.059 3.9978-30.327 2.2637-30.327 2.2637l60.707-79.796 17.45-10.507c2.9452-6.4129-0.33109-6.067 1.2821-10.628 21.403-1.6498 35.403-1.162 51.866 0.092602 16.462 1.2547 25.631 0.6009 33.241 2.9913 2.1753 12.046 36.616 10.015 46.32 14.211z" fill-opacity=".060302" stroke-width="1.2301"/><g stroke="#000"><g stroke-miterlimit="4.4737"><path d="m249.64 79.561c8.6555 11.158 5.3388 28.116 5.3388 28.116s-17.816 11.705-40.742 10.927c-34.453-1.1677-58.907-44.782-93.626-37.851-26.288 16.748-39.498 11.578-74.874 23.233-12.067 3.9754-27.628 3.5829-27.628 3.5829 20.125-30.719 37.266-52.318 60.707-79.796l17.45-10.507c2.468-6.1798-0.33109-6.067 1.2821-10.628 12.266 0.80589 24.642 2.8441 42.602 3.3952 13.996 0.42952 29.283 1.2301 42.504-0.31134 1.3491 1.6884-0.61857 7.6026 2.1946 9.1566 11.216 6.1953 33.237 1.9978 40.938 5.1629z" fill="url(#linearGradient1011)" stroke-width=".49203"/><path d="m249.31 78.819c6.7926 13.214 4.0818 27.766 4.0818 27.766s-16.184 10.858-38.422 10.104c-33.417-1.1326-57.136-43.437-90.812-36.714-9.4284 4.7197-16.982 7.289-24.293 9.1214-2.4703 0.61918-9.8619-5.4898-12.34-4.9844-2.4104 0.4917 0.09506 7.5995-2.4399 8.0853-9.1599 1.7557-19.512 3.8011-33.79 8.505-11.704 3.8559-26.559 5.2825-26.559 5.2825 19.521-29.796 36.146-50.746 58.883-77.398l14.302-10.541c2.3939-5.9941 2.3033-5.535 3.868-9.9587 3.6006 0.39689 2.57 0.20088 3.9483 0.34812-1.4724 9.5627 1.4036 9.6445 2.2634 0.1804 5.111 0.43427 27.622 2.7583 33.664 3.0319 3.4465 0.15605 14.321-0.31999 19.314 0.22238-0.0286 10.73 3.2048 9.3142 3.7808-0.04167 5.2018-0.11735 14.982-0.21377 19.579-0.74986 1.3086 1.6377-0.59998 7.3741 2.1286 8.8814 10.879 6.0092 32.238 1.9379 39.708 5.0077l23.136 53.85" fill="none" stroke-dasharray="0.95454749, 0.95454749" stroke-width=".47727"/><g transform="matrix(-1.2442 0 0 1.2161 297.62 -6.6503)" stroke-width=".4"><path d="m149.51 49.26-6.8044 0.57668-12.333-1.3874-2.4985-13.748 20.047-3.3144 16.042 3.1527c-0.28188 4.7426 2.288 9.2553 0.97534 13.864l-6.983 0.33898c-3.8107 3.2205-0.90276-3.2725-8.4451 0.51677z" fill="url(#linearGradient993)"/><path d="m226.42 104.34-7.8258-4.3055c11.662 51.29 10.888 54.822 17.464 84.25l1.4276 1.8149 1.0243-2.9736z" fill="url(#linearGradient951)"/><path d="m222.64 90.57c-0.38351 0-23.586-9.3961-23.586-9.3961l-8.6876-9.493-0.32502-15.244 28.188 15.341z" fill="url(#linearGradient1045)"/></g></g><g transform="matrix(-1.2442 0 0 1.2161 297.62 -6.6503)"><path d="m191.8 57.746s-0.51696 13.183-0.29221 13.401c1.5466 1.5023 7.7074 7.6802 8.3663 8.7142 0.77058 1.2093 15.928 6.9636 15.928 6.9636" fill="none" stroke-width=".3"/><path d="m63.229 22.466 22.083-2.1232 15.268 1.5912 14.062 8.3402 4.822 12.121c-7.7557 9.8988-11.153 20.931-10.192 33.098-9.4461 5.7425-19.503 10.382-27.384 18.951l-6.3211 6.1792c-8.0749-4.1292-16.679-7.4726-23.483-13.489l-4.4263-6.5512-13.53 4.3147c-0.10733-8.9946 1.5614-15.409 5.4965-18.532z" fill="url(#linearGradient1037)" stroke-miterlimit="4.4737" stroke-width=".4"/><path d="m49.618 54.692c4.8954 3.2188 4.7049 5.2173 10.576 7.5932 0.68794-0.01962 4.1736-1.8786 6.0434-1.9044 1.0369 1.7975 3.177 1.7688 3.177 1.7688l20.746-7.8644" fill="none" stroke-width=".4"/><path d="m107.19 62.708c0.0639 3.6754 0.90289 7.6607 0.19175 11.026-5.3247 3.6194-12.165 7.5876-16.756 10.61-3.9622 2.6083-9.5965 8.1503-15.132 14.088-6.7115-3.2918-13.964-4.703-20.27-10.316-3.6673-3.2642-5.6384-7.3425-8.4373-11.026l-7.8141 5.1535c-0.83894 0.41542-2.9962 0.86742-3.8352 0.98276 0.35416-5.7382 1.6786-9.5755 3.4271-12.335" fill="none" stroke-width=".3"/><g stroke-width=".4"><path d="m41.991 101.73c8.7255 0.43043 17.557 0.63271 26.352 0.91396-18.411 29.102-21.765 62.356-27.973 94.673l-1.5384 3.6213-2.1652-5.9461c1.6537-29.926 3.6794-55.399 5.3241-93.262z" fill="url(#linearGradient967)" stroke-miterlimit="4.4737"/><path d="m53.424 47.186c4.8954 3.2188 4.9761 5.4885 10.576 7.5932 0.67014-0.01912 3.4002-1.606 5.2203-1.6312 1.7615 1.7288 4.0001 1.4957 4.0001 1.4957l20.746-7.8644" fill="none"/><path d="m45.798 115.55c2.4379-21.898 6.731-30.549 10.21-43.83-1.5111-1.8298-1.6084-9.4798 0.39986-18.24 2.2297-9.7267 6.8115-9.3258 6.0161-12.091l-4.8846-16.981-6.1717 6.4321-16.226 33.903c3.0456 13.293 5.664 26.662 2.671 41.02 2.4271 2.9579 4.3527 6.0212 5.5299 9.242 1.2988-0.0223 2.272 0.0937 2.456 0.545z" fill="url(#linearGradient963)" stroke-miterlimit="4.4737"/><path d="m167.26 74.456c-11.898 0.88353-18.09-15.797-33.647-13.938-1.3251 0.15836-3.4785 16.345-4.9343 16.538l-0.8625 50.334c7.7957 22.28 11.303 41.62 17.027 66.262 14.529-34.97 17.782-73.579 24.622-110.85-0.50001-5.1854-1.4236-6.0374-2.2052-8.3415z" fill="url(#linearGradient1003)" stroke-miterlimit="4.4737"/></g></g></g><path d="m138.59 148.27-1.0182 4.2965c-2.5351-4.5618 1.4849-9.3629-3.8532-12.449-7.7108 1.4708-11.481 10.466-14.172 10.718-4.6874-20.802 1.2616-32.979 2.5039-48.973-0.11087 1.6008-6.7622 16.911-7.3956 16.16-3.0717-8.1117-5.4581-12.743-8.1251-14.841-0.66424-4.9047-3.8433-8.0887-9.279-9.7289l-2.765 12.561c-1.2477-6.3695-2.9836-17.872-8.6731-20.258l3.5087-2.197 39.984-19.705z" fill="#00000f" fill-opacity=".21608" opacity=".2" stroke-width="1.2301"/><path d="m122.05 101.86c-0.11085 1.6008-6.7657 16.915-7.399 16.163-3.7422-9.0695-4.5906-12.078-8.1216-14.844-0.66424-4.9047-3.8433-8.0887-9.279-9.7289l-2.7685 12.565c-1.2477-6.3695-2.309-17.109-7.9985-19.495l2.8376-2.9641 39.984-19.705c-2.4182 12.669 26.284 23.787-7.2545 38.008z" fill="#00000f" fill-opacity=".11558" opacity=".263" stroke-width="1.2301"/><g transform="matrix(-1.2442 0 0 1.2161 297.62 -6.6503)" stroke="#000" stroke-miterlimit="4.4737"><path d="m128.97 121.61 0.98513-11.787 2.2748 12.075c6.0956 19.674 8.5292 39.347 12.689 59.021 9.0004-25.406 15.187-63.482 19.239-94.784 0.92845-7.1724-1.0642-8.1533-2.5442-9.9698l3.3151-3.0003c0.80911 2.0345 1.2247 2.1805 1.5515 5.5011 0.21813 3.791 0.29149 7.6643-0.40478 11.975-4.3359 26.215-7.6248 60.072-21.008 97.562-5.7929-21.621-8.2957-44.886-16.097-66.593z" fill="#ffd42a" stroke-width=".1"/><path d="m154.84 82.371-6.3729-2.4407-13.472-6.9865 2.3756-15.468 21.712-3.8909 17.374 3.7011c-0.30529 5.5675 1.5192-3.4208 0.0975 1.9898-2.233 3.4627-3.5619 8.2852-0.22178 12.993-0.36819 4.3733-16.56 6.3536-21.492 10.102z" fill="url(#linearGradient975)" stroke-width=".45103"/><path d="m100.58 21.934-7.3294 8.0081-6.6208-0.54733-3.6942 2.9325 1.7105 2.8908-3.8051 2.2198c6.1167 12.649-8.9447 26.006-17.35 33.428-2.162 14.768-3.5407 24.052-6.4861 44.303 0.32743-0.46654 1.6182-0.36801 2.6991-0.11706 2.9363-3.581 9.0814-8.0283 14.391-9.5187 0.89184-18.629 11.979-31.575 28.283-41.613 0.7143-8.9664 5.3083-16.503 10.022-23.996-1.331-5.4318-3.1195-10.697-2.3939-16.878-2.4968-1.2576-5.4848-1.84-9.4245-1.1137z" fill="url(#linearGradient965)" stroke-width=".4"/></g><path d="m227.94 80.563c6.4465-9.6261 12.448-23.419-8.0788-41.631" fill="none" stroke="#000" stroke-width=".49203"/><path d="m227.94 80.563c5.8847-9.2187 6.6804-13.949 5.2144-23.206-5.2238-12.925-10.547-15.034-15.685-20.225l2.2711 7.726c3.313 3.7331 6.9677 7.7932 8.2874 15.114 1.8646 10.924 1.2588 15.702-0.0879 20.591z" fill-opacity=".14573" stroke-width="1.2301"/><path d="m199.83 99.523c7.273-5.6521 13.572-12.285 18.802-19.993-20.586-10.594-33.498-28.802-28.239-40.093-4.2519-7.9181-9.3208-6.5805-8.7888-9.6755l-9.1194-9.7387c-4.0217-0.26604-8.1332-1.1027-11.726 1.3544 1.2715 7.8115-1.59 13.853-2.9785 20.525 4.1413 9.1236 8.029 8.1163 12.47 29.182 0.69598-1.3637 0.68194-3.2353 2.7424-3.6233 0.62371 0.86192 1.4209 1.5828 3.4094 1.3346 2.4995-2.334 4.3197-5.186 10.816-4.4713-0.16346 5.9961-3.3023 9.9577-5.3701 14.652 7.3878 5.0872 13.127 12.258 17.984 20.547z" fill-opacity=".31156" opacity=".23" stroke-width="1.2301"/><g stroke="#000"><g stroke-miterlimit="4.4737"><g transform="matrix(-1.2442 0 0 1.2161 297.62 -6.6503)" stroke-width=".39984"><path d="m74.324 12.296-4.7226-2.1475c-11.031 6.9672-14.551 15.194-14.708 15.516 0.27742 2.5782 0.3844 5.5222 0.0171 9.4836 5.2795 3.9065 7.6429 7.7217 11.183 11.574 6.9752-7.4294 18.287-9.4093 24.59-14.266 2.398-10.283 8.0218-13.411 11.283-16.656-6.4105-4.5902-15.568-5.4092-20.487-5.2969-4.4127 0.10071-6.3909 2.6564-7.1565 1.7938z" fill="url(#linearGradient961)"/><ellipse transform="rotate(-20.009)" cx="70.564" cy="58.414" rx="1.2542" ry="1.2203" fill="#ffb380" fill-rule="evenodd" stroke-linecap="round" stroke-linejoin="round" style="paint-order:fill markers stroke"/><ellipse transform="rotate(17.717)" cx="65.024" cy="14.38" rx=".77966" ry="1.0847" fill="#ffb380" fill-rule="evenodd" stroke-linecap="round" stroke-linejoin="round" style="paint-order:fill markers stroke"/></g><path d="m215.39 50.167c0.46203-12.468 0.86776-24.957-10.24-41.864" fill="none" stroke-width=".49203"/><g transform="matrix(-1.2442 0 0 1.2161 297.62 -6.6503)" fill="#ffb380"><g fill-rule="evenodd" stroke-linecap="round" stroke-linejoin="round"><ellipse transform="rotate(-55.563)" cx="5.9568" cy="114.72" rx="1.1199" ry="1.506" stroke-width=".4" style="paint-order:fill markers stroke"/><ellipse transform="rotate(-20.009)" cx="23.753" cy="120.43" rx="2.0854" ry="1.8936" stroke-width=".4" style="paint-order:fill markers stroke"/><ellipse transform="matrix(.92248 .38604 -.35857 .9335 0 0)" cx="78.838" cy="80.513" rx="1.1866" ry="1.6615" stroke-width=".28136" style="paint-order:fill markers stroke"/></g><path d="m135.18 53.761s6.9991 0.43889 11.23 0.19375c4.2304-1.108 5.5032-2.5406 8.7242-2.9987s10.283 0.49984 10.283 0.49984l7.0508 0.54237-0.30509-3.5424s-6.4847-2.3017-9.8644-2.8305c-1.7455-0.27313-3.5866 0.27569-5.2978-0.16426-2.613-0.67182-7.2076-3.6824-7.2076-3.6824s-7.0257 4.8193-11.649 5.5847c-2.4502 0.40558-7.9102-1.1665-7.9102-1.1665z" fill="url(#linearGradient1053)" stroke-width=".4"/><path d="m138.02 58.181s6.9991 0.43889 11.23 0.19375c4.2304-1.108 5.5032-2.5406 8.7242-2.9987s10.283 0.49984 10.283 0.49984l7.0508 0.54237-0.30509-3.5424s-6.4951-2.2388-9.8644-2.8305c-2.406-0.42253-4.8774-0.29073-7.3112-0.49984-2.397-0.20594-3.9365 0.11078-7.179-0.74318-3.0956 1.7491-12.493 3.4125-12.493 3.4125l-4.938 0.65518z" fill="url(#linearGradient1055)" stroke-width=".4"/></g></g><path d="m136.96 45.429s-6.3747 2.077-9.3693 2.2702c-0.59186 0.03818-1.2078 0.01573-1.7714-0.16489-5.2603-1.6856-14.256-8.3273-14.256-8.3273s-2.8786 2.7574-4.4708 3.9575c-1.8342 1.3826-3.5641 3.1984-5.8205 3.7101-1.3521 0.30669-2.9285 0.17898-4.1333-0.49469-1.9672-1.0999-4.1333-5.2767-4.1333-5.2767" fill="none" stroke-width=".36903"/><path d="m175.93 47.409c-6.7955-5.8038-13.316-12.414-18.849-21.92-5.9666-4.7016-9.1217-11.464-12.645-17.956l-6.9192 15.391c0.0941 7.7239-0.17387 14.74-0.71578 21.221-2.2207 6.4698-4.7613 12.679-10.737 16.09-1.9904 44.709 6.8599 61.77 11.691 89.081 7.92-9.1576 15.542-18.482 19.088-30.083-4.3651 0.74836 6.7437-62.583 19.088-71.825z" fill="url(#linearGradient959)" stroke-miterlimit="4.4737" stroke-width=".49203"/></g><g stroke="#000" stroke-miterlimit="4.4737"><path d="m119.14 68.458-4.0517 8.1315c-2.6883 2.7764 0.91023 5.4974-0.33742 8.9043l-1.853 5.0601-7.9294 2.9682c-6.4671-6.4631-8.4653-10.028-15.498-14.069-0.71523-4.1002-3.7795-9.8034 0.73594-15.695 5.8331 6.6345 20.433 6.3211 28.933 4.6995z" fill="url(#linearGradient995)" stroke-width=".36903"/><path d="m137.11 35.973-9.6982 3.123c-1.56 0.50236-7.2174-1.8656-15.805-6.8756-12.08 6.6159-9.8632 8.2939-13.212 5.7996l-3.9671-2.9539c-1.2886-0.95956 0.04254-3.5587 0.0724-7.1147l9.3754-3.2738s7.2732-0.8362 10.732 0.15318c3.0368-0.65958 14.997-0.40052 14.997-0.40052l7.845 5.4416-0.33741 6.1011z" fill="url(#linearGradient1065)" stroke-width=".49203"/><ellipse transform="scale(-1,1)" cx="-131.54" cy="32.675" rx="3.1211" ry="2.6383" fill="url(#radialGradient1027)" fill-rule="evenodd" stroke-linecap="round" stroke-linejoin="round" stroke-width=".49203" style="paint-order:fill markers stroke"/><path d="m97.437 31.421a1.729 2.7722 13.348 0 0 1.4808 2.5753 1.729 2.7722 13.348 0 0 2.0701-2.8575 1.729 2.7722 13.348 0 0-1.4707-2.5892 1.729 2.7722 13.348 0 0-2.0772 2.8449" fill="url(#radialGradient1029)" fill-rule="evenodd" stroke-linecap="round" stroke-linejoin="round" stroke-width=".3432" style="paint-order:fill markers stroke"/><path d="m137.46 29.872 0.0472-7.3943c-2.4542-1.8751-3.5341-3.6343-7.3628-5.6255-4.7457 1.7283-12.697 5.6404-17.082 3.6588-6.5481 1.2354-5.8156-1.4704-11.817-5.4294-3.5091 1.5554-4.6606 5.5411-6.6187 7.51l-0.11521 5.3601c4.7313-0.74466 4.8764-1.7348 9.3752-3.2738 0 0 3.8814 2.3856 7.9879 2.4269 4.7716 0.04797 17.74-2.6742 17.74-2.6742z" fill="url(#linearGradient1063)" stroke-width=".49203"/></g><path d="m2.1381 219.67 16.659-101.46" fill="none" stroke="#000" stroke-width=".20451"/><path d="m15.906 120.24 9.5453-4.2772c-14.51 62.374-13.355 65.711-21.537 101.5l-1.7763 2.2071-1.2745-3.6162z" fill-opacity=".19337" opacity=".189" stroke-width="1.2301"/><g transform="matrix(-1.2442 0 0 1.2161 297.62 -6.6503)" stroke="#000"><path d="m129.08 40.167s5.1234 1.7079 7.5302 1.8668c0.47569 0.0314 0.97073 0.01293 1.4237-0.13559 4.2278-1.3861 11.458-6.8475 11.458-6.8475s2.3136 2.2674 3.5932 3.2542c1.4742 1.1369 2.8645 2.63 4.678 3.0508 1.0867 0.25219 2.3537 0.14717 3.322-0.40678 1.5811-0.90447 3.322-4.339 3.322-4.339" fill="none" stroke-width=".3"/><path d="m229.26 107.91c-2.246-3.0178-4.902-5.2108-8.3178-6.0896-3.3239-9.9778-7.1972-19.661-19.655-24.739l-7.712-10.812-3.5243-9.8316-14.576-7.207c-4.4416-3.3773-6.9838 0.69452-10.532-0.82603 0.93238-10.93-3.6646-22.875-3.176-31.247-0.79493-1.836-1.7725-3.5867-3.5176-4.9792 1.3825-0.59631 2.0275 0.05289 2.8876-0.90996 8.5592 4.8345 18.833 8.0266 25.652 12.93 8.9765 11.619 19.054 33.635 25.242 36.167 13.725 17.742 12.279 31.978 17.229 47.544z" fill="url(#linearGradient943)" stroke-miterlimit="4.4737" stroke-width=".4"/><ellipse transform="matrix(-.085254 -.99636 .7828 .62227 0 0)" cx="86.622" cy="297.11" rx="1.152" ry="1.062" fill="#ffb380" fill-rule="evenodd" stroke-linecap="round" stroke-linejoin="round" stroke-miterlimit="4.4737" stroke-width=".22264" style="paint-order:fill markers stroke"/></g><path d="m131.94 24.062 2.6259-6.1961 2.9446 5.0585c1.1917 17.069-0.78254 30.061-11.452 37.311l-0.16377 3.8684 0.0785 19.542-21.007 9.8752c3.8252-11.521 23.406-23.3 8.9154-34.52 5.084-2.8866 11.217-11.909 12.833-15.296l3.6096-7.8005z" fill-opacity=".18593" opacity=".545" stroke-width=".76694"/><path d="m12.796 124.6c2.7945-3.67 5.0783-6.4393 9.3284-7.508 4.1357-12.134 9.5648-24.939 25.065-31.115 3.4224-7.372 5.2332-15.679 14.392-23.973l18.136-8.7645c1.0238-6.3663 0.89276-20.676 17.056-39.004l4.138-5.8221c-1.8395 0.84892-2.284-0.16887-3.3542-1.3398-10.65 5.8793-23.433 9.7612-31.917 15.724-11.133 15.02-27.751 45.769-31.407 43.983 0 0-15.278 38.889-21.437 57.819z" fill-opacity=".24121" opacity=".189" stroke-width="1.2301"/><path d="m81.403 11.186c-15.064 8.1998-24.357 16.214-27.529 28.12 6.5689 4.7507 5.6292 1.3105 10.034 5.9949 8.6787-9.0349 22.753-11.443 30.596-17.349 2.9836-12.505 10.15-18.783 14.208-22.729-11.299-0.61738-18.58 0.66532-27.308 5.9634z" fill="url(#linearGradient1019)" stroke="#000" stroke-miterlimit="4.4737" stroke-width=".49203"/><path d="m98.996 5.4801c-10.93 3.6195-17.862 9.5856-25.171 17.956-6.4198 8.7596-9.7067 13.393-19.956 15.869" fill="none" stroke="#000" stroke-width=".36903"/><path d="m108.71 5.2232c-33.027-0.38278-35.173 31.774-54.838 34.083 12.859 3.4792 27.034 1.327 27.828-2.3412l5.8019-13.924c8.0784-8.0681 14.028-8.9669 21.208-17.818z" fill-opacity=".18593" opacity=".686" stroke-width=".76694"/><path d="m88.457 6.6283c-6.4086 15.976-19.384 26.902-29.675 40.08 1.8716 26.33 1.2509 51.964 0 77.422 2.5902 6.6362 6.1365 12.898 10.975 18.656 1.2319-27.842 5.5461-55.369 16.031-85.794-0.033435-13.68-1.109-27.544 7.1121-40.133-2.1118-3.4756-3.6521-6.2246-4.4438-10.232z" fill="url(#linearGradient917)" stroke="#000" stroke-miterlimit="4.4737" stroke-width=".49203"/><g transform="matrix(-1.2442 0 0 1.2161 297.62 -6.6503)" fill="none" stroke="#000" stroke-miterlimit="4.4737"><path d="m128.77 127.35 5.017-29.559-0.27118-25.763c-7.6891-8.07-7.0485-26.28-6.6441-44.203l-4.8814-10.169 1.1324-5.997" stroke-width=".4"/><path d="m74.583 100.69c-5.3794-9.5443-10.273-18.087-11.092-29.828 3.3987 6.3089 9.2761 12.065 15.111 16.44" stroke-width=".4"/><path d="m93.056 70.41c-1.8762-3.8131-4.2941-7.3751-4.316-12.048 1.6947-0.21636 4.2554-0.15029 5.9899 0.99317l2.7033 2.6835c1.2724 0.29268 2.1302-0.37013 2.7402-1.0974 1.894 0.61637 1.361 1.8757 2.2041 2.9794" stroke-width=".01"/><path d="m63.491 70.866c22.354-12.041 25.923-27.1 21.69-35.071" stroke-width=".4"/><path d="m79.572 38.227c-0.73982-3.1353 1.1074-6.9149 2.8639-10.06 1.7228 0.16228 1.8126 0.42457 2.3005 1.4212-0.41191 0.95836-0.24634 2.6135 1.3337 2.8229 1.5706 0.20808 1.9334-1.1073 2.0866-2.1064l3.0606 0.3533" stroke-width=".01"/><path d="m183.14 122.88c-0.6584-15.905-0.35261-31.568-2.8764-47.939 5.3072-16.775 1.0417-33.089-12.057-47.82" stroke-width=".4"/><path d="m179.26 44.523c2.5714-3.3799-0.15987-10.738-2.514-15.387-2.6354-4.7941-6.2276-14.136-8.6291-18.217" stroke-width=".3"/></g><g stroke-width="1.2301"><path d="m112.91 90.553c-2.5335 0.8222-6.2604 1.428-7.9293 2.9682-7.6719-7.0715-8.5804-9.7736-15.498-14.069 12.105-0.97079 19.839-7.0926 29.67-10.996-5.3677 10.001-5.2053 9.1347-4.7589 12.682 0.29822 2.3687-1.4834 9.4146-1.4834 9.4146z" fill="#00000f" fill-opacity=".055276"/><path d="m112.91 90.553c-2.5335 0.8222-6.2604 1.428-7.9293 2.9682 1.6681-8.5441-1.1016-8.4715-10.565-8.3478 12.105-0.97079 14.906-12.813 24.736-16.717-4.4568 9.4254-5.6847 7.7445-5.2383 11.291 2.4555 4.1425-1.004 10.805-1.004 10.805z" fill="#00000f" fill-opacity=".1005"/><path d="m88.457 6.6283c-6.4086 15.976-19.384 26.902-29.675 40.08 1.6424 26.121 1.1049 54.494 0 77.422 2.5902 6.6362 6.1365 12.898 10.975 18.656 1.2319-27.842-14.422-20.412 3.5789-58.299-10.101-24.469 1.4719-45.395 15.002-58.154 1.4653-4.3522 2.8199-6.8044 4.5631-9.4737-2.1118-3.4756-3.6521-6.2246-4.4438-10.232z" fill="#0a0000" fill-opacity=".34673" opacity=".184"/></g><path d="m119.14 68.458c-12.826 6.1388-18.099 9.1516-29.67 10.996" fill="none" stroke="#000" stroke-width=".36903"/><path d="m114.46 168.92 0.0667-0.52029c0.17024 0.15207 0.70303 0.24026 0.90108 0.0122 0.22812-0.30413 0.11236-0.63628 0.0128-0.9671 0.20795 0.21906 0.52465 0.16217 0.67661-1e-3 -0.0851 0.37263-0.109 0.71533 0.085 0.95158 0.17317 0.15919 0.67441 0.2151 0.84758-8e-3 0.043 0.16328 7e-3 0.33697 0.0396 0.51626-0.24135-0.25477-0.73644-0.0373-0.92587 0.0377l-0.31113 6.3415-0.4316-6.3644c-0.21935-0.16066-0.76881-0.0771-0.96075 4e-3zm0.63376-9.7628-1.5656 0.026-0.0179-0.81602 1.5799-0.0477 0.28765-3.2314 0.42604 3.2241 1.5807-0.017 0.0171 0.81603-1.5654 0.0381 0.1647 4.3045 0.5545 2.7978 2.2899 1.9853-1.2938 3.4321c-1.8652 4.5221-1.1148 8.4568 0.3084 12.215 0.68532-3.0849-0.79412-8.5173 2.244-9.6662 0.79602-0.38385 2.0081-0.0161 2.5789 0.64824 0.66598 0.7751 0.71742 2.0581 0.24224 3.0274-0.4752 0.96922-2.0699 0.92769-2.8831 1.9235-0.81329 0.99591-1.3725 4.161-1.3725 4.161-1.5725 2.8228-1.5464 2.8416-0.78139 4.1039 0.32632 0.38903 0.95842 0.42164 1.1641 0.0351 0 0 0.44467 0.3953 0.49198 0.70449 0.0643 0.42027-0.64802 1.1063-0.64802 1.1063-0.40786-0.14611-0.80379-0.55474-1.25 0.14164l-1.1955 15.068-1.8401-15.013c-0.47557-0.6775-0.85364-0.25303-1.2549-0.0904 0 0-0.7411-0.65629-0.69486-1.0788 0.0341-0.31086 0.46137-0.72403 0.46137-0.72403 0.2221 0.37784 0.85223 0.31938 1.1616-0.0828 0.71026-1.2926 0.73541-1.3123-0.95656-4.0684 0 0-0.69441-3.1395-1.5497-4.1012-0.85522-0.96173-2.4466-0.85493-2.963-1.8039-0.5163-0.9489-0.51987-2.2329 0.11223-3.0347 0.54189-0.68713 1.7372-1.1042 2.5489-0.75324 3.232 0.97111 2.0227 6.4196 2.6562 9.5659 1.2477-4.0932 1.9826-8.1782-0.21534-12.217l-1.4397-3.3762 2.2028-2.0772 0.43413-2.818z" fill="#ffd42a" fill-rule="evenodd" stroke="#000" stroke-miterlimit="4.4737" stroke-width=".12301"/><path d="m144.44 7.5319 1.409 7.293-6.0736 12.367c-0.19354 19.392-0.15019 40.082-10.175 51.132l1.5713 33.954 6.5882 37.038c-4.5032-28.114-14.381-42.221-11.691-89.081 5.7876-2.1253 7.9925-9.5033 10.737-16.09l0.71578-21.221z" fill-opacity=".18593" opacity=".545" stroke-width="1.2301"/><path d="m215.39 50.167c2.4348-20.035-4.073-30.772-10.24-41.864-0.63925-0.2441-1.4056 0.21672-2.077-0.215-4.6043-2.9607-19.358-3.6397-32.318 4.4752 5.461 5.2547 10.881 7.132 13.375 18.07 0.84056-0.27659 2.2319-0.21834 3.8081-0.42965 0.24725 3.9645 5.5817 3.1562 4.2556-0.87134 0.6874-0.96023-0.0995-1.3406 2.8623-1.7283 1.905 2.8153 4.4933 8.7765 3.5634 12.234 6.5745 3.6758 12.42 5.0765 16.77 10.33z" fill-opacity=".080402" stroke-width="1.2301"/><path d="m113.06 20.51s-1.7883 4.5159-1.7381 6.5987c-0.3432 1.7529-0.20691 3.5567 0.0844 5.1108-0.0113 1.2399-0.19204 2.5271 0.22548 3.7552-0.1988 1.0098-0.3859 2.2842-0.0648 3.2327-0.37155 1.8983-0.65142 3.2873-0.30507 4.9487-0.3096 2.5586-1.4413 5.865-1.0681 8.5417-1.2558 3.4291-3.4706 5.8754-4.2999 9.5072-0.92582 1.9881-2.6842 6.0049-2.6842 6.0049" fill="none" stroke="#000" stroke-width=".12301"/><path d="m222.5 41.309c-0.87009-2.2083-0.21922-4.6601 0.52605-7.127 0.86946-0.19307 0.90751-0.20302 1.2638 0.35-0.18994 2.1143 3.2584 2.5128 3.2687 0.13527 0.88786-0.20619 1.1956-0.04447 1.8313-0.04241l-0.1089 1.2758c-1.8081 1.9422-4.2011 3.6573-6.6626 6.0629z" fill-opacity=".090452" stroke-width="1.2301"/><path d="m253.9 72.079s-4.3611 4.1327-5.1874 6.8586c-1.4937 4.928-0.50629 9.8666 0.95435 15.391z" fill-opacity=".23116" opacity=".53" stroke-width="1.2301"/><g stroke="#000"><g transform="matrix(-1.2442 0 0 1.2161 297.62 -6.6503)"><path d="m56.008 71.715c-7.5527 8.5382-13.892 19.367-18.196 34.043" fill="none" stroke-width=".4"/><path d="m56.008 71.715c-6.3212 3.6048-11.934 7.9183-17.358 12.42" fill="none" stroke-width=".4"/><ellipse transform="matrix(.55621 .83104 -.5754 .81787 0 0)" cx="70.992" cy="1.2347" rx=".9751" ry="1.3541" fill="#ffb380" fill-rule="evenodd" stroke-linecap="round" stroke-linejoin="round" stroke-miterlimit="4.4737" stroke-width=".23027" style="paint-order:fill markers stroke"/></g><g transform="matrix(-1.2442 0 0 1.2161 297.62 -6.6503)" fill="none"><path d="m97.811 44.453 14.588-4.5277c6.6075-2.0507 7.6299-6.1335 9.3673-11.925l0.1761-10.329" stroke-width=".3"/><path d="m115.93 38.237c-1.4018 5.8712-0.95482 9.8037 1.6271 15.051 2.5819 5.2472 15.956 18.744 15.956 18.744" stroke-width=".3"/><path d="m180.27 74.942s5.2369-6.7747 7.0809-10.604c1.6882-3.506 1.9176-5.2833 2.734-9.0881 0.24473-1.1406 0.63021-4.842 0.48784-7.861-0.14773-3.1323-11.58-17.506-13.296-17.405" stroke-width=".2"/><path d="m156.26 61.558s3.5162 3.3065 5.4685 4.7136c2.2852 1.647 5.5636 4.531 5.5636 4.531" stroke-width=".1"/><path d="m213.69 62.644c-2.0664 7.6075-2.6506 14.913-0.20339 23.186m0.20339-23.186c0.68178 13.69 2.4708 24.903 5.9128 35.572" stroke-width=".4"/><path d="m38.832 200.94 0.38803-0.93632-1.5254-5.0508 0.84746-2.2373c3.9474-30.158 7.5523-60.316 13.932-90.475" stroke-width=".4"/><path d="m60.505 91.366 0.24111-13.536c-0.36316-6.4754 2.0926-12.835 5.4921-17.45 0.06951-2.719 1.2927-5.0534 2.9824-7.2322 2.6164-5.1176 5.3827-10.142 9.4238-14.369" stroke-width=".2"/></g><g transform="matrix(-1.2442 0 0 1.2161 297.62 -6.6503)" stroke-linecap="round" stroke-linejoin="round"><ellipse transform="matrix(.99944 -.033412 .024272 .99971 0 0)" cx="107.96" cy="23.077" rx="1.71" ry="1.7251" fill="#ffb380" stroke-width=".63782" style="paint-order:stroke fill markers"/><ellipse transform="matrix(.99944 -.033412 .024272 .99971 0 0)" cx="107.96" cy="23.077" rx=".59624" ry=".60149" fill="#f95" stroke-width=".22239" style="paint-order:stroke fill markers"/><ellipse transform="matrix(.88508 .46544 -.14802 .98898 0 0)" cx="163.8" cy="-60.643" rx="1.4655" ry="1.7694" fill="#ffb380" stroke-width=".59799" style="paint-order:stroke fill markers"/><ellipse transform="matrix(.88508 .46544 -.14802 .98898 0 0)" cx="163.8" cy="-60.643" rx=".51097" ry=".61696" fill="#f95" stroke-width=".20851" style="paint-order:stroke fill markers"/></g></g><style>
    svg { cursor: default; }
  </style></svg>
