<?xml version="1.0" encoding="UTF-8"?>
<svg version="1.1" viewBox="0 0 256 256" xmlns="http://www.w3.org/2000/svg" xmlns:cc="http://creativecommons.org/ns#" xmlns:dc="http://purl.org/dc/elements/1.1/" xmlns:rdf="http://www.w3.org/1999/02/22-rdf-syntax-ns#" xmlns:xlink="http://www.w3.org/1999/xlink">
 <defs>
  <linearGradient id="innoGrad1">
   <stop stop-color="#ff8080" offset="0"/>
   <stop stop-color="#f55" offset="1"/>
  </linearGradient>
  <linearGradient id="linearGradient866" x1="117.19" x2="93.83" y1="71.099" y2="69.424" gradientUnits="userSpaceOnUse" xlink:href="#innoGrad1"/>
  <linearGradient id="linearGradient883" x1="142.9" x2="89.792" y1="125.55" y2="128.26" gradientUnits="userSpaceOnUse">
   <stop stop-color="#ffb380" offset="0"/>
   <stop stop-color="#f95" offset="1"/>
  </linearGradient>
  <linearGradient id="linearGradient906" x1="140.19" x2="100.92" y1="51.978" y2="51.706" gradientUnits="userSpaceOnUse" xlink:href="#innoGrad1"/>
  <linearGradient id="linearGradient914" x1="161.43" x2="92.058" y1="25.321" y2="25.235" gradientUnits="userSpaceOnUse" xlink:href="#innoGrad1"/>
  <linearGradient id="linearGradient916" x1="114.88" x2="100.92" y1="51.211" y2="51.706" gradientUnits="userSpaceOnUse" xlink:href="#innoGrad1"/>
 </defs>
 <metadata>
  <rdf:RDF>
   <cc:Work rdf:about="">
    <dc:format>image/svg+xml</dc:format>
    <dc:type rdf:resource="http://purl.org/dc/dcmitype/StillImage"/>
    <dc:title/>
   </cc:Work>
  </rdf:RDF>
 </metadata>
 <style>svg { cursor: default; }</style>
 <style>svg { cursor: default; }</style>
 <style>svg { cursor: default; }</style>
 <g transform="translate(8.1356 9.2203)">
  <g stroke="#000">
   <path d="m73.714 243.18c6.6832 0.96981 10.844 3.5155 12.852 3.6212 1.3668-0.53297 10.476-3.1089 15.655-3.85-0.84205-34.741 1.7044-66.117 4.7704-96.615 3.81-37.913 7.2623-56.015 10.196-75.237 1.9093 4.7486 7.0556 32.478 8.551 75.611 3.1826 38.055-0.33495 75.986-2.148 95.668 8.217 0.727 10.422 1.3655 16.744 3.6705 1.984-0.88 8.6201-3.1442 11.073-3.5562 0.382-22.824 1.3475-63.846 3.4355-106.9 1.932-39.847 8.889-95.694 3.7391-121.7-28.905 4.645-50.875 2.1959-80.678 0.32487-5.7639 20.037-1.641 59.532-1.255 107.39 0.275 34.137 0.27168 95.259-2.9363 121.57z" fill="url(#linearGradient866)" fill-rule="evenodd" stroke-width=".6"/>
   <path d="m117.19 71.103c-1.4456-15.4-0.16434-39.731 0.664-54.356" fill="none" stroke-dasharray="0.7, 0.7" stroke-width=".35"/>
  </g>
  <g transform="translate(-9.4555 -17.848)">
   <path d="m163.56 14.223c0 2.325-16.259 8.983-35.813 8.983-19.555 0-35.301-6.588-35.301-8.912 0-2.331 16.149-4.295 35.704-4.295 19.556 1e-3 35.41 1.893 35.41 4.224z" fill="#ff2a2a" stroke="#000" stroke-miterlimit="9.6" stroke-width=".5"/>
  </g>
  <g stroke="#000">
   <g transform="translate(-9.4555 -17.848)">
    <path d="m168.04 31.747c-1.041-2.076-1.4971-3.4641-2.2111-5.2891-0.376-0.968-0.495-2.335-0.827-2.997-0.604-1.201-1.444-1.512-1.444-1.512s0.594-7.508 0-7.655c-0.598-0.148-5.606 2.452-13.782 3.574-4.047 0.556-8.365 1.447-17.122 1.454h-7.246s-0.829 1.155-0.91 1.155c-8.759-0.033-14.224-2.052-18.273-2.609-8.173-1.122-13.184-3.722-13.78-3.574-0.596 0.146 0 7.655 0 7.655s-0.842 0.312-1.447 1.512c-0.331 0.662-0.449 2.029-0.829 2.997-0.713 1.826-1.764 3.539-2.807 5.614 10.39 3.9816 39.65 12.058 80.678-0.32487z" fill="url(#linearGradient914)" stroke-miterlimit="9.6" stroke-width=".5"/>
    <path d="m153.22 26.586-0.467-1.401-1.6029 0.17615 0.20788 1.3618z" fill="#f55" stroke-linejoin="round" stroke-miterlimit="10"/>
    <path d="m150.06 17.83c0.205-0.035 1.94-0.313 2.12-0.346 0.016-3e-3 0.041 0.421 0.195 0.683 0.203 0.345 0.547 0.583 0.593 0.936 0.318 2.365 0.259 7.484 0.259 7.484s-1.581 0.114-0.981 0.072c0.603-0.043-0.88 0.065-0.88 0.065s0.165-4.14-0.222-6.771c-0.127-0.844-0.163-1.531-0.438-1.872-0.185-0.227-0.674-0.247-0.646-0.251z" fill="#f55" stroke-miterlimit="9.6" stroke-width=".5"/>
    <path d="m92.159 22.103s6.395 3.479 12.874 4.696c3.241 0.608 12.852 2.409 22.895 2.297 10.043-0.111 20.193-1.763 23.433-2.372 6.481-1.217 12.48-4.622 12.48-4.622" fill="none" stroke-miterlimit="9.6" stroke-width=".5"/>
    <path d="m102.78 26.586 0.468-1.401 1.1924 0.296 0.20061 1.242z" fill="#f55" stroke-linejoin="round" stroke-miterlimit="10"/>
    <g stroke-miterlimit="9.6" stroke-width=".5">
     <path d="m105.94 17.83c-0.205-0.035-1.941-0.313-2.12-0.346-0.45494 0.31847-0.49116 0.85562-0.79 1.619-0.315 2.365-0.255 7.484-0.255 7.484s1.579 0.114 0.979 0.072c-0.601-0.043 0.883 0.065 0.883 0.065s-0.168-4.14 0.223-6.771c0.125-0.844 0.161-1.531 0.436-1.872 0.183-0.226 0.671-0.247 0.644-0.251z" fill="#f55"/>
     <path d="m134.46 19.322h-9.051l-3.403 4.329 3.231 5.429 9.2428-0.2397" fill="none" stroke-linejoin="round"/>
     <circle cx="128.23" cy="24.2" r="2.952" fill="#fd5"/>
     <circle cx="128.23" cy="24.2" r="1.658" fill="#fd5"/>
     <path d="m134.12 24.2h-2.941" fill="none" stroke-linecap="round"/>
    </g>
   </g>
   <path d="m124.97 10.992-9.1948 0.2397-3.403 4.329 3.0872 4.8537 9.7306-0.2387" fill="none" stroke-linejoin="round" stroke-miterlimit="9.6" stroke-width=".5"/>
   <g fill="#fd5" stroke-miterlimit="9.6" stroke-width=".5">
    <circle cx="118.6" cy="16.11" r="2.952"/>
    <circle cx="118.6" cy="16.11" r="1.658"/>
   </g>
   <g>
    <path d="m124.5 16.11h-2.941" fill="none" stroke-linecap="round" stroke-miterlimit="9.6" stroke-width=".5"/>
    <path d="m144.63 20.111-0.467-1.6007-2.298 0.33819 0.903 1.419z" fill="#f55" stroke-linejoin="round" stroke-miterlimit="10" stroke-width="1.0689"/>
    <g>
     <path d="m77.692 13.9s7.2166 3.4655 14.528 4.6777c3.6574 0.60563 14.584 1.9202 25.918 1.8087 11.333-0.11057 22.522-2.2346 26.179-2.8412 7.3137-1.2123 14.267-3.6462 14.267-3.6462" fill="none" stroke-miterlimit="10" stroke-width=".442"/>
     <path d="m144.39 16.397c1.9792 0.05229 2.3186 2.2236 2.2484 4.6611-0.0701 2.4375-0.6933 4.1864-2.6725 4.1343-1.9792-0.05229-3.5268-2.0706-3.4565-4.5081 0.0702-2.4375 1.9014-4.3394 3.8806-4.2873zm-0.0722 1.1483c-1.608-0.04204-2.5709 1.313-2.6255 3.2109-0.0548 1.8979 0.71534 3.1793 2.3234 3.222 1.6084 0.04276 1.8234-0.99744 1.878-2.8959 0.0548-1.8984 0.0325-3.495-1.5759-3.5371z" fill="#fd5" stroke-linecap="round" stroke-linejoin="round" stroke-width="1.044" style="paint-order:stroke fill markers"/>
     <path d="m141.65 9.1334c0.205-0.04 1.94-0.35761 2.12-0.39531 0.11188 0.21232 0.30424 1.131 0.4103 1.6461 0.14308 0.46609 0.1515 0.77396 0.1975 1.1773 0.318 2.7021 0.259 8.5507 0.259 8.5507s-1.581 0.13024-0.981 0.0823c0.603-0.0491-0.88 0.0743-0.88 0.0743s0.165-4.7301-0.222-7.7361c-0.127-0.96429-0.163-1.7492-0.438-2.1388-0.185-0.25935-0.4938-1.2558-0.4658-1.2604z" fill="#f55" stroke-miterlimit="9.6" stroke-width=".5"/>
    </g>
    <path d="m92.199 19.853 0.467-1.6007 2.298 0.33818-0.903 1.419z" fill="#f55" stroke-linejoin="round" stroke-miterlimit="10" stroke-width="1.0689"/>
   </g>
  </g>
  <path d="m86.49 246.47c-0.082-57.034 6.1213-117.83 7.2793-172.78 0.301-14.297 2.1332-40.814 2.6997-54.431m42.745 0.23062c3.047 4.985 8.2051 55.017 7.6761 65.144-1.574 30.106-4.4997 99.443-6.5547 161.41" fill="none" opacity=".439" stroke="#ff2a2a" stroke-width=".5"/>
  <g stroke="#000">
   <g>
    <path d="m92.883 15.709c-1.9791-0.05453-2.4352 2.0953-2.4965 4.533-0.06148 2.4378 0.46653 4.2177 2.4457 4.2724 1.9792 0.05453 3.6333-1.8774 3.6946-4.3151 0.06138-2.4377-1.6646-4.4356-3.6438-4.4904zm0.01018 1.1505c1.608 0.04472 2.4964 1.4498 2.4485 3.3479-0.04767 1.8981-0.88575 3.1361-2.4937 3.092-1.6084-0.04403-1.767-1.0943-1.7191-2.9929 0.04768-1.8986 0.15602-3.4917 1.7643-3.4469z" fill="#fd5" stroke-linecap="round" stroke-linejoin="round" stroke-width="1.044" style="paint-order:stroke fill markers"/>
    <path d="m95.186 8.8751c-0.205-0.04-1.94-0.35761-2.12-0.39531-0.11188 0.21232-0.30424 1.131-0.4103 1.6461-0.14308 0.46608-0.1515 0.77395-0.1975 1.1773-0.318 2.7021-0.259 8.5507-0.259 8.5507s1.581 0.13025 0.981 0.0823c-0.603-0.0491 0.88 0.0743 0.88 0.0743s-0.165-4.7301 0.222-7.736c0.127-0.9643 0.163-1.7492 0.438-2.1388 0.185-0.25936 0.4938-1.2558 0.4658-1.2604z" fill="#f55" stroke-miterlimit="9.6" stroke-width=".5"/>
    <g fill="url(#linearGradient883)" stroke="none" stroke-width=".2">
     <path d="m76.193 243.35 3.1912 0.84458c0.9446-21.989 1.5451-48.782 2.0445-75.892l0.51599-9.7261c1.1761-62.641 0.70223-126.49 4.8206-141.36l-6.1577-1.9423-1.8753 143.1-0.56332 9.1502z"/>
     <path d="m128.89 242.63 6.4734 1.347-0.81302-224.48c-3.6891 0.33341-4.5848 0.45835-8.6936 0.53996 4.3243 74.398 6.3584 127.9 3.0332 222.59z"/>
     <path d="m148.95 242.98-3.2542 0.98306c0.057-75.354 8.9274-205.04 0.92107-227.09 3.0088-0.25191 5.7891-0.87248 8.2596-1.8421z"/>
     <path d="m98.917 243.5-6.5783 1.2436 5.0152-225.43c3.8803 0.51618 5.3072 0.81584 9.011 1.0673-5.0438 74.509-9.183 127.96-7.448 223.12z"/>
    </g>
   </g>
   <g>
    <g stroke-width=".50437">
     <path d="m145.28 22.775c6.527 20.472-2.194 41.547 14.043 53.398 0.44908 2.0584 0.0218 3.3768-0.46705 7.5453-0.568-0.73728-2.1645-1.3662-3.1135-2.1097-15.867-12.269-9.4355-39.199-13.509-58.677 1.8352 1.2738 1.7701 1.3227 3.0471-0.1572z" fill="url(#linearGradient906)"/>
     <path d="m91.644 22.029c-7.6215 20.09-0.04972 41.605-16.902 52.563-0.55943 2.0312 0.23681 3.5232 0.50016 7.712 0.60693-0.70557 1.7943-1.4 2.782-2.0913 16.506-11.395 11.536-38.633 16.654-57.863-1.9012 1.173-1.8388 1.2253-3.0342-0.3213z" fill="url(#linearGradient916)"/>
    </g>
    <g fill="none">
     <path d="m159.19 82.398c-8.088-4.6416-8.7586-9.3012-11.128-13.062-4.3771-16.19-2.2906-33.387-4.541-45.457" stroke-dasharray="0.4, 0.4" stroke-width=".2"/>
     <path d="m159.77 77.853c-6.2756-4.2455-7.767-8.3822-9.5296-12.055-4.4365-15.052-1.8048-31.656-5.4876-42.035" stroke-dasharray="0.38544259, 0.38544259" stroke-width=".19272"/>
     <path d="m75.068 80.697c8.3265-4.1987 8.7221-8.6967 11.29-12.324 5.2438-15.93 4.0877-33.215 6.9858-45.146" stroke-dasharray="0.4, 0.4" stroke-width=".2"/>
     <path d="m74.534 76.229c6.4955-3.9009 7.8856-7.9342 9.8438-11.507 5.2417-14.791 3.5093-31.513 7.7465-41.678" stroke-dasharray="0.38544259, 0.38544259" stroke-width=".19272"/>
    </g>
   </g>
  </g>
 </g>
</svg>
