<?xml version="1.0" encoding="UTF-8"?>
<!-- Created with Inkscape (http://www.inkscape.org/) -->
<svg version="1.1" viewBox="0 0 256 256" xmlns="http://www.w3.org/2000/svg" xmlns:cc="http://creativecommons.org/ns#" xmlns:dc="http://purl.org/dc/elements/1.1/" xmlns:rdf="http://www.w3.org/1999/02/22-rdf-syntax-ns#" xmlns:xlink="http://www.w3.org/1999/xlink">
 <defs>
  <linearGradient id="linearGradient4797" x1="164.14" x2="78.237" y1="147.08" y2="158.59" gradientUnits="userSpaceOnUse">
   <stop stop-color="#ff8080" offset="0"/>
   <stop stop-color="#f55" offset="1"/>
  </linearGradient>
 </defs>
 <style>svg { cursor: default; }</style>
 <metadata>
  <rdf:RDF>
   <cc:Work rdf:about="">
    <dc:format>image/svg+xml</dc:format>
    <dc:type rdf:resource="http://purl.org/dc/dcmitype/StillImage"/>
    <dc:title/>
   </cc:Work>
  </rdf:RDF>
 </metadata>
 <style>svg { cursor: default; }</style>
 <style>svg { cursor: default; }</style>
 <style>svg { cursor: default; }</style>
 <style>svg { cursor: default; }</style>
 <style>svg { cursor: default; }</style>
 <style>svg { cursor: default; }</style>
 <style>svg { cursor: default; }</style>
 <style>svg { cursor: default; }</style>
 <style>svg { cursor: default; }</style>
 <style>svg { cursor: default; }</style>
 <style>svg { cursor: default;}</style>
 <style>svg { cursor: default; }</style>
 <style>svg { cursor: default; }</style>
 <style>svg { cursor: default; }</style>
 <style>svg { cursor: default; }</style>
 <style>svg { cursor: default; }</style>
 <style>svg { cursor: default; }</style>
 <style>svg { cursor: default; }</style>
 <style>svg { cursor: default;}</style>
 <style>svg { cursor: default; }</style>
 <style>svg { cursor: default; }</style>
 <style>svg { cursor: default; }</style>
 <style>svg { cursor: default; }</style>
 <style>svg { cursor: default; }</style>
 <style>svg { cursor: default; }</style>
 <style>svg { cursor: default; }</style>
 <style>svg { cursor: default; }</style>
 <style>svg { cursor: default; }</style>
 <style>svg { cursor: default; }</style>
 <style>svg { cursor: default;}</style>
 <style>svg { cursor: default; }</style>
 <style>svg { cursor: default; }</style>
 <style>svg { cursor: default; }</style>
 <style>svg { cursor: default; }</style>
 <style>svg { cursor: default; }</style>
 <style>svg { cursor: default; }</style>
 <style>svg { cursor: default; }</style>
 <style>svg { cursor: default;}</style>
 <style>svg { cursor: default; }</style>
 <style>svg { cursor: default; }</style>
 <style>svg { cursor: default; }</style>
 <style>svg { cursor: default; }</style>
 <style>svg { cursor: default; }</style>
 <style>svg { cursor: default; }</style>
 <style>svg { cursor: default; }</style>
 <style>svg { cursor: default; }</style>
 <style>svg { cursor: default; }</style>
 <style>svg { cursor: default;}</style>
 <style>svg { cursor: default; }</style>
 <style>svg { cursor: default; }</style>
 <style>svg { cursor: default; }</style>
 <style>svg { cursor: default; }</style>
 <style>svg { cursor: default; }</style>
 <style>svg { cursor: default; }</style>
 <style>svg { cursor: default; }</style>
 <style>svg { cursor: default;}</style>
 <style>svg { cursor: default; }</style>
 <style>svg { cursor: default; }</style>
 <style>svg { cursor: default; }</style>
 <style>svg { cursor: default; }</style>
 <style>svg { cursor: default; }</style>
 <style>svg { cursor: default; }</style>
 <style>svg { cursor: default; }</style>
 <style>svg { cursor: default; }</style>
 <style>svg { cursor: default; }</style>
 <style>svg { cursor: default; }</style>
 <style>svg { cursor: default;}</style>
 <style>svg { cursor: default; }</style>
 <style>svg { cursor: default; }</style>
 <style>svg { cursor: default; }</style>
 <style>svg { cursor: default; }</style>
 <style>svg { cursor: default; }</style>
 <style>svg { cursor: default; }</style>
 <style>svg { cursor: default; }</style>
 <style>svg { cursor: default;}</style>
 <style>svg { cursor: default; }</style>
 <style>svg { cursor: default; }</style>
 <style>svg { cursor: default; }</style>
 <style>svg { cursor: default; }</style>
 <style>svg { cursor: default; }</style>
 <style>svg { cursor: default; }</style>
 <style>svg { cursor: default; }</style>
 <style>svg { cursor: default; }</style>
 <style>svg { cursor: default; }</style>
 <style>svg { cursor: default; }</style>
 <style>svg { cursor: default;}</style>
 <style>svg { cursor: default; }</style>
 <style>svg { cursor: default; }</style>
 <style>svg { cursor: default; }</style>
 <style>svg { cursor: default; }</style>
 <style>svg { cursor: default; }</style>
 <style>svg { cursor: default; }</style>
 <style>svg { cursor: default; }</style>
 <style>svg { cursor: default;}</style>
 <style>svg { cursor: default; }</style>
 <g stroke="#000">
  <path d="m207.21 224.03c-9.0961-5.3291-10.492-6.9014-16.971-11.807 3.9725 0.3045 0.38623-10.064 4.237-7.7965 6.188-0.70301 16.593-0.0575 22.781-0.76689 4.5796 4.3004-8.1303 21.597-10.047 20.37z" fill="#f55" fill-rule="evenodd" stroke-width=".36211"/>
  <path d="m207.21 224.03c6.6607-4.8946 15.426-14.984 6.7565-14.073-7.2079-22.627-21.053 10.255-22.506-3.0655-7.6827-3.2561-1.7397 5.9936 6.4617 10.763 4.7145 3.8476 3.0707 2.152 9.2882 6.3751z" opacity=".081" stroke-width=".13502"/>
  <path d="m79.556 29.107c-11.956-8.8136-12.973-13.112-12.628-13.167 21.705 5.8184 49.73-9.3907 54.091-5.6027l-2.5306 4.7547c2.9435 1.7771-3.3095 9.7862 7.7491 15.205 14.939 54.272 15.178 214.07-14.868 208.94-4.9032-0.4214-9.112-0.99707-14.958-1.209-7.0273-0.25472-12.193 0.23034-18.874 2.139-4.9723 1.4245-8.773 2.8026-8.773 2.8026-0.28573-1.2941-0.56158-2.5883-0.82777-3.8824-1.6276-7.9128-21.456-3.9481-22.41-11.825-8.8806-73.366 27.934-155.7 34.029-198.16z" fill="#ff2a2a" fill-rule="evenodd" stroke-width=".47489"/>
 </g>
 <path d="m98.995 22.376c-2.5019 2.3661-5.0003 4.0216-9.601 3.7967" fill="none" opacity=".47" stroke="#000" stroke-width=".37436"/>
 <g fill-opacity=".070352" fill-rule="evenodd">
  <path d="m82.625 19.141c-10.487 2.5906-13.59 1.9206-15.734-3.1641 12.325 2.2611 19.634 1.4625 26.351-0.37621 2.1164 1.5688 23.56-8.3203 27.805-5.3561l-2.589 4.2025c3.0012 1.8119-10.457 11.858 7.8786 15.68 14.795 54.81 14.961 213.58-14.998 208.46-0.84455 0.88156-8.2758 0.067-12.912-0.57793-0.29234 0.14703-2.0069 0.0604-2.9606-0.29358 40.384-40.712 15.957-206.84-6.3631-211.97-2.4582-0.5647-6.4069-9.2672-6.4777-6.6117z"/>
  <path d="m96.36 14.936c2.7115 3.1342 21.11-8.928 24.835-4.5434l-2.7074 4.6995c3.0012 1.8119-10.457 11.858 7.8786 15.68 14.795 54.81 14.961 213.58-14.998 208.46-0.46811 0.0744 0.99276-12.181-3.0178-11.277 3.5668-16.633 35.613-68.012-1.197-161.7-5.4341-13.83-7.2179-34.873-14.667-49.898z"/>
 </g>
 <g fill="url(#linearGradient4797)" stroke="#000">
  <path d="m120.91 10.496c-3.7738 6.4846 2.5477 4.5821-0.95903 15.251l-6.3989-9.4679-8.5186 4.0991-4.5418 3.1294-2.1327 1.5568c-2.4501-4.1659-6.1642-7.2129-5.6099-11.751 17.945-0.051578 11.838-5.2412 28.161-2.8178z" stroke-width=".56266"/>
  <path d="m79.949 252.59c-8.0295-5.189-6.7838-5.9594-11.265-9.2853-2.7678-2.526-4.4874-3.9959-6.5447-5.388-7.4611-5.2572-16.889-4.217-24.68-11.851 1.9845-28.834 11.105-56.423 13.176-85.272 5.7609-30.048 4.0407-35.09 14.965-60.138l1.9019-6.7728c3.3787-16.439 10.975-32.903 9.5885-46.449 0.83173 0.24305 1.4485 0.82009 2.2629 1.6574 0.55962 55.179-38.38 108.57 0.59416 223.5zm18.409-227.53c8.4845-6.6514 10.58-6.3485 15.193-8.7853 0 0 13.279 12.79 14.681 15.869 13.555 29.78 41.234 66.757 63.89 88.091 24.925 23.469 35.945 53.24 48.253 86.86l-3e-5 -1.2e-4c-8.0467 7.4639-19.675 19.293-32.936 16.889-0.67422 0.22471 12.559-13.25 6.5317-14.028-5.1815-1.0412-66.7 35.196-105.35 44.27l0.41189-9.2582c16.438-47.37 30.326-114.85-2.5576-192.58-4.2942-9.4025-5.6817-17.507-8.121-27.326z" stroke-width=".65607"/>
  <path d="m79.211 28.977c-7.2778-0.97336-10.889-7.9203-12.237-13.026 6.5625-0.31206 5.8101-0.31045 7.2083 2.5622 2.0995 5.0654 2.1746 5.5943 5.029 10.464z" fill-rule="evenodd" stroke-width=".49325"/>
 </g>
 <g fill-rule="evenodd">
  <path d="m87.061 225.45c-0.53641-3.856-0.80988-8.702-0.8816-14.269-0.07173-5.5682 0.05833-11.862 0.32994-18.612 0.45474-11.301 1.3063-23.885 2.2724-36.491 0.15187-2.4557 0.30809-4.9123 0.46657-7.3607 0.97274-15.028 2.0309-29.746 2.6915-41.986 0.33034-6.121 0.56135-11.624 0.63267-16.239 0.07133-4.6153-0.01712-8.3409-0.32524-10.904 0.20618 2.5697 0.19228 6.2912 0.01911 10.896-0.1732 4.6059-0.50586 10.098-0.93783 16.209-0.86394 12.221-2.1252 26.916-3.302 41.937-0.19172 2.4469-0.3812 4.9024-0.56635 7.3574-0.76586 12.628-1.4174 25.236-1.6715 36.559-0.15178 6.7633-0.16176 13.068 0.03035 18.643 0.19214 5.5759 0.58635 10.42 1.242 14.261z" opacity=".642"/>
  <path d="m62.306 237.47c-5.8559-6.0938-9.9588-12.964-12.776-20.196-0.92442-2.524-1.6919-5.0842-2.3233-7.6628-2.4522-10.015-2.8543-20.324-2.4053-29.885-0.29138 9.576 0.2729 19.843 2.8654 29.768 0.66686 2.5529 1.4676 5.082 2.4219 7.5697 2.6047 7.2315 6.5089 14.178 12.217 20.405z" opacity=".679"/>
  <path d="m108.62 254.23c0.56914-1.0938 1.1432-2.2297 1.7206-3.4039 4.1429-11.315 8.519-25.739 12.111-40.361 3.9802-16.204 6.9976-32.655 7.6672-45.389-0.80762 12.72-3.9603 29.135-8.0704 45.288-3.71 14.58-8.1997 28.946-12.448 40.187-0.32896 1.262-0.65594 2.49-0.97957 3.6796z"/>
  <path d="m120.57 204.99c0.3712-1.9457 0.9499-4.4148 1.6197-7.4067 0.27011-1.2065 0.55525-2.499 0.84782-3.8774 0.38533-2.0511 0.78686-4.2902 1.1799-6.7174 1.3169-8.1326 2.5378-18.374 2.7373-30.736 0.39893-24.727-3.2884-57.928-18.453-99.721-1.9226-4.8327-3.279-8.4351-4.2266-11.22-0.94751-2.7845-1.4857-4.75-1.7705-6.3051-0.28462-1.5542-0.31668-2.7014-0.24932-3.8488 0.0674-1.1479 0.23455-2.2966 0.34615-3.8462-0.14025 1.5472-0.33574 2.6892-0.43216 3.84-0.0964 1.1513-0.0934 2.3106 0.16542 3.8844 0.25873 1.573 0.77253 3.5572 1.6951 6.3577 0.92253 2.8004 2.2542 6.4183 4.1493 11.26 15.094 41.768 18.714 74.927 18.258 99.59-0.22767 12.332-1.4741 22.543-2.8156 30.648-0.40047 2.4196-0.80947 4.6519-1.2025 6.6975-0.23292 1.3874-0.45857 2.6896-0.66952 3.9076-0.52333 3.0217-0.9557 5.5222-1.1797 7.494z"/>
  <path d="m121.21 100.77c-1.3748-12.106-3.9205-24.747-7.3474-37.072-4.1842-13.68-9.4534-26.906-15.388-38.494 5.6228 11.739 10.555 25.064 14.391 38.786 3.7447 12.178 6.6265 24.721 8.3446 36.78z"/>
  <path d="m214.38 209.94c-3.6241-10.328-6.6617-18.798-9.9639-27.14-0.60463-1.3674-1.2164-2.7308-1.8393-4.0982-4.3609-9.5738-9.2637-19.341-16.057-32.052 6.4816 12.877 11.059 22.785 15.085 32.475 0.57493 1.3838 1.1386 2.7632 1.695 4.1462 3.6661 8.165 7.0761 16.476 11.081 26.669z"/>
  <path d="m162.59 87.08c6.1298 8.4192 12.802 17.246 19.918 26.13 9.8524 11.545 20.473 23.167 31.624 34.037-10.862-11.153-21.17-23.033-30.691-34.812-7.4147-8.6105-14.398-17.178-20.851-25.355z"/>
  <path d="m194.12 175.87c-3.8941-16.87-11.262-36.681-19.432-55.078-1.4147-3.0405-2.8511-6.0405-4.2968-8.98-5.061-10.291-10.237-19.84-14.996-27.787-2.3795-3.9734-4.6547-7.5459-6.759-10.609-2.1045-3.0637-4.0373-5.6171-5.731-7.5518 1.625 1.9904 3.4838 4.593 5.5106 7.6994 2.027 3.1068 4.223 6.7194 6.5217 10.73 4.5977 8.0213 9.6071 17.636 14.498 27.98 1.397 2.9547 2.7842 5.9689 4.1492 9.0223 8.5134 18.177 16.252 37.815 20.535 54.575z"/>
  <path d="m117.14 21.036c2.2998 3.082 4.7664 6.9293 7.3507 11.33 2.5846 4.4017 5.2886 9.3601 8.0621 14.664 3.9626 7.5785 8.0678 15.864 12.171 24.242 0.86256 1.6932 4.207 8.2839 5.0696 9.977 5.8928 11.603 11.667 22.906 16.92 32.209 2.6261 4.652 5.1217 8.8041 7.4359 12.244 2.3147 3.4403 4.4465 6.1651 6.3422 7.9611-1.8305-1.8559-3.8867-4.6286-6.1206-8.1069-2.2345-3.4792-4.6488-7.6676-7.1935-12.355-5.0895-9.375-10.7-20.745-16.434-32.426 26.38 53.736-31.314-63.783-4.9347-10.046-4.2552-8.3064-8.5148-16.524-12.631-24.033-2.8814-5.256-5.6925-10.164-8.3827-14.513-2.6905-4.349-5.2589-8.1358-7.6536-11.148z"/>
  <path d="m83.335 70.505c-2.0941-8.7842-3.1437-16.443-3.5868-22.891-0.06541-0.75048-0.12261-1.4848-0.17227-2.2028-0.47581-6.8791-0.2602-12.26 0.04312-16.027-0.42114 3.7537-0.75668 9.1422-0.39795 16.048 0.03745 0.7209 0.08246 1.4583 0.13573 2.2122 0.57523 6.4592 1.757 14.107 3.9782 22.86z" opacity=".804"/>
  <path d="m62.808 96.466c-1.0199 7.9908-3.0587 16.772-5.3621 24.646-0.29007 1.0716-0.58509 2.1271-0.8832 3.1621-1.2508 4.3424-2.5558 8.3249-3.7779 11.637-0.61103 1.656-1.2014 3.1445-1.7538 4.4267-0.55241 1.282-1.0673 2.3588-1.5278 3.1911 0.49673-0.81219 1.0497-1.872 1.6414-3.1402 0.59161-1.2681 1.2216-2.744 1.8728-4.3888 1.3023-3.2895 2.6891-7.2542 4.0226-11.584 0.31784-1.0319 0.63267-2.0846 0.94261-3.1539 2.1311-7.9482 3.9896-16.78 4.8255-24.797z"/>
  <path d="m89.385 78.551c0.38067 1.9435 0.87635 3.4509 1.3875 5.0833 0.32581 1.0405 0.65631 2.127 0.96717 3.408 0.24784 0.70796 0.49045 1.4826 0.72295 2.3514-0.11372-0.89226-0.23901-1.6975-0.37159-2.4433-0.35949-1.2806-0.73782-2.3611-1.1084-3.3868-0.5804-1.6064-1.1454-3.0878-1.5976-5.0125z" opacity=".416"/>
  <path d="m54 198.28c-0.12257-4.8165-0.21993-8.7752-0.30423-12.526 6.46e-4 -5.1571 0.05531-15.399 0.05596-20.556 0.0903 8.3857 0.15846 14.168 0.26446 20.553-0.02251 3.7514-0.03196 7.7111-0.01618 12.529z"/>
  <path d="m72.239 58.647c-1.1957 2.7067-2.068 5.653-2.6361 9.1307-0.04319 0.26441-0.08461 0.53183-0.12428 0.8024-0.23038 3.309-0.19782 7.0443 0.0692 11.43 0.0043-4.4006 0.24535-8.1048 0.74093-11.34 0.02011-0.26854 0.04197-0.53416 0.06559-0.797 0.31018-3.451 0.92526-6.4303 1.8847-9.2259z"/>
  <path d="m70.21 61.986c0.62658-2.5367 2.142-5.517 3.6825-8.992 0.20727-0.46755 0.41506-0.94422 0.62122-1.43 1.2195-3.1752 2.362-6.707 2.8637-10.612-0.63273 3.8788-1.9003 7.3579-3.2345 10.461-0.19058 0.48948-0.383 0.97038-0.57517 1.4429-1.4298 3.5154-2.8436 6.5573-3.3577 9.13z"/>
 </g>
 <g>
  <g fill-rule="evenodd">
   <path d="m52.187 192.93c0.42752-6.931 1.445-15.609 2.7694-24.835 1.0479-7.3006 2.2881-14.945 3.5804-22.341 0.32735-1.9536 0.65834-3.89 0.9904-5.7983 1.5906-9.1408 3.2057-17.635 4.5623-24.285 0.6783-3.3248 1.292-6.1885 1.8057-8.4412 0.25685-1.1264 0.48871-2.1 0.69118-2.9023 0.20244-0.80222 0.37555-1.4333 0.51491-1.8745-0.15349 0.43673-0.34095 1.0641-0.55789 1.8632-0.21693 0.79907-0.46331 1.7698-0.73471 2.8933-0.54279 2.247-1.1856 5.1054-1.8932 8.4253-1.415 6.6396-3.0888 15.125-4.7383 24.259-0.34436 1.9068-0.68768 3.8418-1.0274 5.7942-1.2359 7.4087-2.4194 15.066-3.4105 22.377-1.2526 9.2408-2.1977 17.929-2.5523 24.865z"/>
   <path d="m106.78 10.889c-0.022 0.0598-0.0525 0.11035-0.0875 0.155-0.035 0.04464-0.0752 0.08422-0.11746 0.12192-0.0807 0.07195-0.18423 0.14861-0.26641 0.23877-0.0863 0.09464-0.16104 0.21546-0.18578 0.38713-0.0228 0.15805-2e-3 0.34908 0.0787 0.58693-0.89005 2.8184-2.1467 4.8173-3.5556 6.6667-0.8607 1.1298-1.7817 2.2079-2.7158 3.3879-0.52793 0.82833-1.0554 1.6914-1.5695 2.6322 0.6633-0.83924 1.3333-1.5914 1.9971-2.3006 0.90241-1.1886 1.8028-2.2892 2.6491-3.4505 1.3982-1.9186 2.6393-3.9915 3.4961-6.8942a0.12297 0.15433 35.709 0 0-5e-3 -0.10133c-0.10755-0.22587-0.14694-0.38785-0.1507-0.51129-4e-3 -0.12275 0.0273-0.21947 0.0815-0.31315 0.0543-0.0937 0.13218-0.1821 0.2019-0.2783 0.035-0.04823 0.0674-0.09816 0.0936-0.15234 0.0262-0.0542 0.0456-0.11157 0.0556-0.17476z" fill-opacity=".55779"/>
   <path d="m120.51 10.722c-3.1435 1.9339-7.2584 4.0185-11.102 6.1112-1.9212 1.0461-3.7785 2.0963-5.4127 3.1315-0.45121 0.28584-0.88589 0.57083-1.3006 0.85458-1.0258 0.83542-1.9027 1.6542-2.568 2.4446 0.78851-0.65875 1.7698-1.3282 2.8803-2.0027 0.39989-0.29188 0.82076-0.5859 1.2594-0.8817 1.5907-1.0726 3.41-2.1647 5.3032-3.2582 3.7853-2.1863 7.8531-4.3708 10.94-6.3993z" fill-opacity=".61307"/>
  </g>
  <g stroke="#000">
   <path d="m204.1 182.75c2.0593 4.2013 5.7202 16.031 10.276 27.187 0.071 0.17383-0.14825-0.0771 0 0 4.5379 2.359-6.7144 13.643-6.9373 14.049 3.4861 0.15468 5.6082 1.1976 15.931-3.0997 3.9044-3.4977 6.3768-7.3109 7.6914-11.367 9.1996-28.387-38.3-68.679-48.513-96.045l-40.611-52.612c48.375 86.127 7.1981 10.496 62.162 121.89z" opacity=".081" stroke-width=".13502"/>
   <path d="m121.21 100.77c-4.5769-31.337-13.239-59.267-18.612-69.462-2.5927 11.092 5.6739 17.55 18.612 69.462z" opacity=".021" stroke-width=".13502"/>
   <path d="m87.061 225.45c-7.089-27.753 3.8187-124.46 5.4011-136.06 1.0542 6.6481-9.7559 118.39-5.4011 136.06z" opacity=".071" stroke-width=".090619"/>
   <path d="m100.12 23.264c5.2508-2.7314 8.3636-5.4492 13.427-6.9847 4.6273 3.9294 2.1557 2.6177 6.9679 6.9039 0.94613-5.5009-2.4851-8.457 0.39011-12.687-6.9384-0.28713 0.20365-6.1849-20.785 12.768z" opacity=".071" stroke-width=".13502"/>
  </g>
 </g>
</svg>
