<?xml version="1.0" encoding="UTF-8"?>
<!-- Created with Inkscape (http://www.inkscape.org/) -->
<svg version="1.1" viewBox="0 0 256 256" xmlns="http://www.w3.org/2000/svg" xmlns:cc="http://creativecommons.org/ns#" xmlns:dc="http://purl.org/dc/elements/1.1/" xmlns:rdf="http://www.w3.org/1999/02/22-rdf-syntax-ns#">
 <style>svg { cursor: default; }</style>
 <metadata>
  <rdf:RDF>
   <cc:Work rdf:about="">
    <dc:format>image/svg+xml</dc:format>
    <dc:type rdf:resource="http://purl.org/dc/dcmitype/StillImage"/>
    <dc:title/>
   </cc:Work>
  </rdf:RDF>
 </metadata>
 <g display="none" fill="none" stroke="#000" stroke-width="1px">
  <path d="m0 2.56e-5 256 257"/>
  <path d="m256.5 2.56e-5 -256.5 256"/>
 </g>
 <g>
  <g transform="translate(.1033 .31545)" stroke="#000">
   <path d="m136.94 113.6c-3.1394-0.0464-6.1599 1.767-7.7553 4.4438-0.54218 0.90566-0.95817 1.8994-1.1764 2.9333-0.33922 0.0203-0.69662 0.0699-0.67626-0.36316-0.47385-1.809-1.4758-3.4747-2.8814-4.7129-1.8032-1.7096-4.367-2.4654-6.8202-2.2826-3.1668 0.18601-6.0457 2.2429-7.5494 4.9911-1.6317 2.8829-1.8052 6.4581-0.70945 9.5583 0.96682 2.9169 2.904 5.4426 5.2956 7.3446 3.0904 2.5583 6.7155 4.4595 9.5092 7.3611 1.2634 1.3404 2.3207 2.8548 3.1736 4.477 0.0921 0.24881 0.44596 0.50498 0.62549 0.18799 0.68102-1.152 1.3323-2.3286 2.1943-3.3666 2.0653-2.64 4.8925-4.5135 7.6249-6.4134 2.3447-1.6372 4.6882-3.3895 6.3383-5.7654 1.7725-2.4704 2.8164-5.5231 2.609-8.5814-0.1249-3.6393-2.2446-7.2057-5.5329-8.8447-1.3102-0.69763-2.7891-1.0082-4.2692-0.96704z" fill="#faa" stroke-width=".0033265"/>
   <g stroke-width=".006653">
    <path d="m103.36 77.357c-8.1621 0.06052-16.366 4.0991-20.839 11.026-2.9543 4.492-4.2734 9.9219-4.1717 15.268-0.05626 8.1087 2.6619 16.03 6.6557 23.01 4.7319 8.3105 11.333 15.331 18.068 22.039 7.7539 7.8802 15.966 15.487 22.021 24.824 1.0251 1.425 1.8169 3.0138 2.8456 4.4277 0.57396 0.0918 0.67878-0.79069 1.0099-1.1253 4.0123-7.2206 9.3241-13.624 15.181-19.413 6.0079-6.1816 12.359-12.043 18.005-18.567 5.9203-6.8188 10.933-14.606 13.61-23.284 2.2306-7.4308 2.7085-15.69-0.16767-23.017-2.9055-7.366-9.748-12.867-17.445-14.52-6.468-1.4507-13.557-0.53998-19.18 3.0764-4.8231 3.042-8.6906 8.0206-9.4757 13.766-0.39624 3.3953 0.47039 7.0392 2.8852 9.5474 2.5828 2.8637 6.9707 3.863 10.521 2.3357 1.9322-0.81496 3.5223-2.3752 4.5933-4.1548 0.26684-0.56216-0.49451-0.58046-0.83315-0.39729-3.3971 1.0302-7.3467-0.57546-9.052-3.6947-1.3905-2.2959-1.4189-5.3147-0.10412-7.6275 2.4107-3.6579 6.6703-5.7825 10.896-6.4257 3.139-0.37027 6.4129-0.12022 9.361 1.1415 5.6974 2.2191 10.007 7.2846 11.852 13.034 1.0688 3.1016 1.4098 6.3719 1.2319 9.6386-0.20674 5.7951-2.4087 11.3-5.021 16.403-5.2434 9.9126-11.726 19.159-19.154 27.555-5.5406 6.2174-11.556 12.027-18.102 17.174-0.20092 0.12308-0.48738-0.16547-0.71533 0.0442-2.1094-1.3785-3.9492-3.1416-5.885-4.751-13.097-11.486-24.228-25.32-32.261-40.801-2.6372-5.2416-4.7078-10.987-4.6375-16.915-0.18398-7.0965 2.7735-14.461 8.532-18.774 3.4042-2.5466 7.6203-4.0903 11.892-3.8899 3.7053 0.03772 7.4098 1.3904 10.349 3.6766 2.1492 1.6752 3.8181 4.2793 3.5338 7.0993-0.17964 2.9683-2.1847 5.8449-5.0122 6.8508-1.77 0.72457-3.7659 0.73058-5.5623 0.14697-0.58955-0.12896-0.43406 0.62803-0.14477 0.87744 1.7386 2.8592 5.0918 4.7606 8.4675 4.4529 2.5936-0.0516 5.0051-1.3945 6.6975-3.3134 1.4304-1.5005 2.2102-3.541 2.5574-5.5608 0.81767-5.3382-1.8032-10.647-5.5331-14.332-4.5548-4.591-11.045-6.9681-17.47-6.8503z" fill="#ffb380"/>
    <path d="m17.829 79.476c-4.8153-0.11528-9.5883 0.83458-14.172 2.2432-0.59438 0.0665-0.51209 0.90704 0.07666 0.89014 5.5094 0.67283 10.95 2.3122 16.021 4.6187 5.6055 2.6048 11.097 6.2215 14.144 11.752 1.5008 2.6352 2.2836 5.6669 2.1711 8.6907-0.03776 3.1436-1.1948 6.1976-2.8586 8.842-0.3589 0.42605 0.23313 0.69209 0.58887 0.46314 2.2318-0.64623 4.5326-0.98593 6.8506-0.80859 5.3378 0.0585 10.656 2.9901 13.196 7.771 1.0101 1.788 1.4867 3.8649 1.406 5.9426 0.04023 0.99916-0.06712 1.9959-0.28075 2.9648 0.33078 0.46658 1.0622 0.019 1.5473 0.0747 3.2721-0.29668 6.6085-0.29402 9.8839-0.0694 4.7957 0.53659 9.4975 1.7521 13.933 3.6172 0.58353 4e-3 0.23797-0.68917-0.09302-0.81958-8.3946-6.9789-16.658-14.262-23.323-22.955-5.0718-6.6046-8.7687-14.399-9.6975-22.706-0.12776-0.75344-3.14e-4 -1.7588-0.84233-2.1443-6.9271-4.6811-15.075-7.4976-23.387-8.2825-1.7198-0.08639-3.4429-0.0882-5.1645-0.08516z" fill="#ffe680"/>
    <path d="m186.15 144.9c-7.7045 3e-3 -14.971 3.3145-21.304 7.4617-9.0432 6.0018-16.674 13.919-23.276 22.482-5.198 6.7884-9.5981 14.165-13.294 21.87-0.88246 0.28989-0.94775-0.76987-1.3154-1.33-6.2988-12.96-14.871-24.862-25.406-34.711-6.1269-5.6342-12.998-10.674-20.821-13.667-3.9547-1.4758-8.1855-2.3296-12.419-2.0444-4.8448 0.0553-9.6054 1.9375-13.358 4.9666-4.1431 3.3667-7.0164 8.6503-6.5784 14.084 0.12504 4.222 2.6633 8.3866 6.5806 10.104 2.4166 1.0185 5.3031 1.0184 7.6916-0.0806 2.3931-1.2452 4.3152-3.6681 4.5603-6.4009 0.08587-1.7979 0.06082-3.7068-0.96728-5.2681-0.08129-0.42183-0.78232-0.81934-0.88843-0.20874-0.01052 2.1394-1.4248 4.1258-3.3218 5.0383-2.7858 1.2515-6.3826-0.0751-7.6418-2.872-1.4712-2.915-0.19463-6.7704 2.6567-8.3211 2.8958-1.5702 6.3741-1.5664 9.5993-1.4418 7.8339 0.5428 15.472 2.9734 22.513 6.4084 16.523 8.2869 29.839 22.933 36.073 40.379 1.0184 2.7116 1.6978 5.5449 2.4855 8.3282 0.15758 0.46856 0.73892 0.2582 0.74292-0.18775 0.88027-3.3722 1.719-6.7606 3.004-10.019 6.0484-16.064 18.459-29.496 33.545-37.586 7.5674-4.0089 15.925-6.7873 24.499-7.3171 2.8444-0.0772 5.8656-0.16938 8.5293 1.0215 1.9162 0.91215 3.6071 2.5718 3.959 4.7386 0.63334 2.7646-0.91341 5.8198-3.5437 6.9043-1.1089 0.51942-2.4206 0.50864-3.606 0.29786-2.2832-0.56472-4.0329-2.6214-4.293-4.9495 0.0174-0.41402-0.4744-0.9182-0.75732-0.40112-2.0128 3.1194-1.433 7.4937 1.126 10.126 1.5079 1.5432 3.6483 2.6413 5.8484 2.4972 1.4891 0.089 3.0079-0.0577 4.3442-0.77187 4.1343-1.8726 6.5309-6.4529 6.4614-10.891 0.0383-5.8932-3.5395-11.35-8.374-14.511-3.8325-2.5758-8.4496-3.8248-13.054-3.727z" fill="#ffb380"/>
    <path d="m236.34 79.431c-7.9556 0.06844-15.862 2.2361-22.852 6.0085-1.5665 0.87727-3.1541 1.7884-4.575 2.863-0.45036 3.967-1.1996 7.9289-2.6966 11.655-3.6336 9.4398-10.424 17.225-17.572 24.212-4.0696 3.9999-8.4586 7.6563-12.786 11.372-0.35043 0.1388-0.61594 0.8021-0.0542 0.79475 5.5914-2.1959 11.537-3.6952 17.579-3.6377 2.4561-0.0512 4.8997 0.0732 7.3272 0.34595 0.45265-0.37923-0.0783-1.0546-0.0149-1.5615-0.21885-2.2148-0.0638-4.5234 0.90137-6.5854 2.2514-5.2962 7.8916-8.5922 13.542-8.7534 2.5453-0.12207 5.1434 0.19359 7.5588 1.0513 0.71868-0.2661-0.35877-1.0898-0.5039-1.5669-3.0375-4.892-3.2001-11.409-0.29956-16.417 1.4866-2.9567 3.9273-5.2902 6.4282-7.3833 5.9012-4.3265 12.854-7.0693 19.97-8.5881 1.5452-0.30263 3.1077-0.55152 4.6611-0.78174 0.42189-0.51164-0.52456-0.64339-0.85254-0.78589-4.8136-1.5135-9.8537-2.3102-14.904-2.2437-0.28581-0.0019-0.57163-5.55e-4 -0.85743 0.0012z" fill="#ffe680"/>
   </g>
  </g>
 </g>
</svg>
