<svg xmlns="http://www.w3.org/2000/svg" xmlns:xlink="http://www.w3.org/1999/xlink" viewBox="0 0 256 256">
    <defs>
        <linearGradient id="innoGrad10">
            <stop offset="0" stop-color="#dcfa64"/>
            <stop offset=".765" stop-color="#c6e15a"/>
            <stop offset="1" stop-color="#84963c"/>
        </linearGradient>
        <linearGradient id="innoGrad11">
            <stop offset="0" stop-color="#b1b2b0"/>
            <stop offset="1" stop-color="#b1b2b0" stop-opacity="0"/>
        </linearGradient>
        <linearGradient id="innoGrad9">
            <stop offset="0" stop-color="#cacbca"/>
            <stop offset="1" stop-color="#989897"/>
        </linearGradient>
        <linearGradient id="innoGrad8">
            <stop offset="0" stop-color="#c6e15a"/>
            <stop offset=".32" stop-color="#dcfa64"/>
            <stop offset=".481" stop-color="#c6e15a"/>
            <stop offset=".833" stop-color="#dcfa64"/>
            <stop offset="1" stop-color="#c6e15a"/>
        </linearGradient>
        <linearGradient id="innoGrad6">
            <stop offset="0" stop-color="#e4e5e3"/>
            <stop offset="1" stop-color="#fdfefc"/>
        </linearGradient>
        <linearGradient id="innoGrad5">
            <stop offset="0" stop-color="#dcfa64"/>
            <stop offset="1" stop-color="#c6e15a"/>
        </linearGradient>
        <linearGradient id="innoGrad7">
            <stop offset="0" stop-color="#e4e5e3"/>
            <stop offset=".25" stop-color="#fdfefc"/>
            <stop offset=".75" stop-color="#fdfefc"/>
            <stop offset="1" stop-color="#e4e5e3"/>
        </linearGradient>
        <linearGradient id="innoGrad4">
            <stop offset="0" stop-color="#989897"/>
            <stop offset="1" stop-color="#989897" stop-opacity="0"/>
        </linearGradient>
        <linearGradient id="innoGrad3">
            <stop offset="0" stop-color="#fdfefc"/>
            <stop offset="1" stop-color="#e4e5e3"/>
        </linearGradient>
        <linearGradient id="innoGrad1">
            <stop offset="0" stop-color="#e4e5e3"/>
            <stop offset="1" stop-color="#cacbca"/>
        </linearGradient>
        <linearGradient id="linearGradient939" x1="86.949" x2="86.949" y1="18.721" y2="41.157" gradientTransform="matrix(1.0595 0 0 1.05944 -13.558 -14.536)" gradientUnits="userSpaceOnUse" xlink:href="#innoGrad1"/>
        <linearGradient id="linearGradient949" x1="101.63" x2="101.63" y1="34.073" y2="57.191" gradientTransform="matrix(1.0595 0 0 1.05944 -13.558 -14.536)" gradientUnits="userSpaceOnUse" xlink:href="#innoGrad9"/>
        <linearGradient id="linearGradient957" x1="57.444" x2="91.626" y1="126.756" y2="135.897" gradientTransform="matrix(1.0595 0 0 1.05944 -13.558 -14.536)" gradientUnits="userSpaceOnUse" xlink:href="#innoGrad3"/>
        <linearGradient id="linearGradient978" x1="51.172" x2="51.098" y1="239.779" y2="243.336" gradientTransform="matrix(1.0595 0 0 1.05944 -13.558 -14.536)" gradientUnits="userSpaceOnUse" xlink:href="#innoGrad4"/>
        <linearGradient id="linearGradient992" x1="37.913" x2="68.425" y1="228.636" y2="228.636" gradientTransform="matrix(1.0595 0 0 1.05944 -13.558 -14.536)" gradientUnits="userSpaceOnUse" xlink:href="#innoGrad3"/>
        <linearGradient id="linearGradient1000" x1="209.226" x2="178.046" y1="125.942" y2="134.62" gradientTransform="matrix(1.0595 0 0 1.05944 -13.558 -14.536)" gradientUnits="userSpaceOnUse" xlink:href="#innoGrad3"/>
        <linearGradient id="linearGradient1010" x1="216.045" x2="216.045" y1="239.779" y2="243.514" gradientTransform="matrix(1.0595 0 0 1.05944 -13.558 -14.536)" gradientUnits="userSpaceOnUse" xlink:href="#innoGrad4"/>
        <linearGradient id="linearGradient1018" x1="73.15" x2="194.071" y1="197.464" y2="197.464" gradientTransform="matrix(1.0595 0 0 1.05944 -13.558 -14.536)" gradientUnits="userSpaceOnUse" xlink:href="#innoGrad7"/>
        <linearGradient id="linearGradient1036" x1="83.151" x2="47.237" y1="55.91" y2="209.463" gradientTransform="matrix(1.0595 0 0 1.05944 -13.558 -14.536)" gradientUnits="userSpaceOnUse" xlink:href="#innoGrad5"/>
        <linearGradient id="linearGradient1044" x1="184.068" x2="219.981" y1="55.91" y2="209.463" gradientTransform="matrix(1.0595 0 0 1.05944 -13.558 -14.536)" gradientUnits="userSpaceOnUse" xlink:href="#innoGrad5"/>
        <linearGradient id="linearGradient1052" x1="198.793" x2="229.305" y1="228.636" y2="228.636" gradientTransform="matrix(1.0595 0 0 1.05944 -13.558 -14.536)" gradientUnits="userSpaceOnUse" xlink:href="#innoGrad6"/>
        <linearGradient id="linearGradient1070" x1="131.906" x2="131.906" y1="203.767" y2="196.171" gradientUnits="userSpaceOnUse" xlink:href="#innoGrad5"/>
        <linearGradient id="linearGradient1078" x1="131.24" x2="131.24" y1="210.179" y2="204.188" gradientUnits="userSpaceOnUse" xlink:href="#innoGrad5"/>
        <linearGradient id="linearGradient1086" x1="73.314" x2="193.907" y1="116.337" y2="116.337" gradientTransform="matrix(1.0595 0 0 1.05944 -13.558 -14.536)" gradientUnits="userSpaceOnUse" xlink:href="#innoGrad7"/>
        <linearGradient id="linearGradient1102" x1="162.644" x2="182.57" y1="190.301" y2="190.301" gradientTransform="matrix(1.0595 0 0 1.05944 -13.558 -14.536)" gradientUnits="userSpaceOnUse" xlink:href="#innoGrad5"/>
        <linearGradient id="linearGradient1110" x1="104.575" x2="83.434" y1="189.866" y2="189.866" gradientTransform="matrix(1.0595 0 0 1.05944 -13.558 -14.536)" gradientUnits="userSpaceOnUse" xlink:href="#innoGrad5"/>
        <linearGradient id="linearGradient1118" x1="182.767" x2="179.676" y1="62.2" y2="42.165" gradientTransform="matrix(1.0595 0 0 1.05944 -13.558 -14.536)" gradientUnits="userSpaceOnUse" xlink:href="#innoGrad10"/>
        <linearGradient id="linearGradient1126" x1="84.452" x2="87.271" y1="62.2" y2="43.25" gradientTransform="matrix(1.0595 0 0 1.05944 -13.558 -14.536)" gradientUnits="userSpaceOnUse" xlink:href="#innoGrad10"/>
        <linearGradient id="linearGradient1134" x1="135.466" x2="135.577" y1="56.793" y2="196.99" gradientTransform="matrix(1.0595 0 0 1.05944 -13.558 -14.536)" gradientUnits="userSpaceOnUse" xlink:href="#innoGrad8"/>
        <linearGradient id="linearGradient1160" x1="144.718" x2="148.794" y1="50.069" y2="83.085" gradientTransform="matrix(1.0595 0 0 1.05944 -13.558 -14.536)" gradientUnits="userSpaceOnUse" xlink:href="#innoGrad6"/>
        <linearGradient id="linearGradient1168" x1="122.616" x2="118.54" y1="50.069" y2="83.085" gradientTransform="matrix(1.0595 0 0 1.05944 -13.558 -14.536)" gradientUnits="userSpaceOnUse" xlink:href="#innoGrad6"/>
        <linearGradient id="linearGradient1176" x1="165.589" x2="139.13" y1="34.073" y2="50.673" gradientTransform="matrix(1.0595 0 0 1.05944 -13.558 -14.536)" gradientUnits="userSpaceOnUse" xlink:href="#innoGrad6"/>
        <linearGradient id="linearGradient1184" x1="134.262" x2="183.269" y1="44.864" y2="44.864" gradientTransform="matrix(1.0595 0 0 1.05944 -13.558 -14.536)" gradientUnits="userSpaceOnUse" xlink:href="#innoGrad3"/>
        <linearGradient id="linearGradient1192" x1="101.63" x2="128.088" y1="34.073" y2="50.674" gradientTransform="matrix(1.0595 0 0 1.05944 -13.558 -14.536)" gradientUnits="userSpaceOnUse" xlink:href="#innoGrad6"/>
        <linearGradient id="linearGradient1200" x1="83.95" x2="132.956" y1="44.864" y2="44.864" gradientTransform="matrix(1.0595 0 0 1.05944 -13.558 -14.536)" gradientUnits="userSpaceOnUse" xlink:href="#innoGrad6"/>
        <linearGradient id="linearGradient1238" x1="118.775" x2="118.162" y1="49.762" y2="52.632" gradientTransform="matrix(1.0595 0 0 1.05944 -13.558 -14.536)" gradientUnits="userSpaceOnUse" xlink:href="#innoGrad11"/>
        <linearGradient id="linearGradient1238-6" x1="118.775" x2="118.162" y1="49.762" y2="52.835" gradientTransform="matrix(-1.0595 0 0 1.05944 269.557 -14.536)" gradientUnits="userSpaceOnUse" xlink:href="#innoGrad11"/>
    </defs>
    <path fill="url(#linearGradient939)" stroke="#000" stroke-linejoin="round" stroke-miterlimit="10" d="M76.696 19.743c20.6-16.357 85.23-20.19 102.609 0 .458.53.277 2.867.277 2.867l-9.859 9.34L128 45.634 88.37 32.568 76.12 21.774s.178-1.715.576-2.03z"/>
    <path fill="url(#linearGradient949)" stroke="#000" stroke-linejoin="round" stroke-miterlimit="10" d="M94.118 21.562c10.127-3.697 57.394-3.412 67.764 0 2.603.858 3.084 10.519 3.084 10.519l-35.052 13.552h-4.22L89.565 31.198s2.05-8.721 4.552-9.636z"/>
    <path fill="url(#linearGradient957)" stroke="#000" stroke-linejoin="round" stroke-miterlimit="10" d="M72.968 36.836c-7.55 5.033-4.15 11.757-6.894 17.716-.41.89-9.791 20.435-10.765 25.997-.974 5.562 3.708 10.268 3.093 12.184-2.147 6.675-21.104 45.026-13.614 57.964-3.84 14.7-.132 28.737-4.238 34.961-11.412 17.3-3.62 18.1-3.62 18.1l-.44 3.62 21.277 14.831s8.932-5.124 13.7-8.7c4.767-3.576 6.091-41.094 6.091-41.094l26.687-75.485z"/>
    <path fill="url(#linearGradient1036)" stroke="#000" stroke-linejoin="round" stroke-miterlimit="10" d="M36.49 207.378l.44-3.62s-7.792-.8 3.62-18.1c4.106-6.224.398-20.261 4.238-34.961-7.49-12.938 11.467-51.289 13.614-57.964.615-1.916-4.067-6.622-3.093-12.184.71-4.064 5.913-15.596 8.822-21.857l3.488.942c1.099-9.941 8.766-19.033 15.729-21.336l12.365 1.463C81.322 43.12 70.556 50.357 70.639 71.63l-6.986-1.941s-3.267 5.821-4.106 11.654c-.84 5.832 5.095 7.813.397 18.143-5.564 12.237-11.168 23.087-13.09 44.807-.402 4.553 2.194 2.807 1.138 9.092-2.747 16.333.52 21.63-2.329 29.346-3.189 8.639-6.305 9.675-7.339 15.547-.258 1.468-.8 4.106 2.227 5.43l-.816 5.93z"/>
    <path fill="url(#linearGradient992)" stroke="#000" stroke-linejoin="round" stroke-miterlimit="10" d="M58.297 219.562c-1.148-3.445-11.571-19.802-21.808-12.184-1.165.867-.354 6.003-4.238 17.127-3.41 9.768-5.557 18.716-5.027 21.277.53 2.56 21.008 7.945 27.717.176.837-.97.321-7.823 1.149-13.42.83-5.613 2.782-11.252 2.207-12.976z"/>
    <path fill="url(#linearGradient978)" d="M51.498 243.663c-7.327-5.474-18.806-4.062-21.808-.707"/>
    <path fill="url(#linearGradient1000)" stroke="#000" stroke-linejoin="round" stroke-miterlimit="10" d="M183.033 36.836c7.55 5.033 4.15 11.757 6.895 17.716 2.744 5.96 26.98 86.742 21.285 96.145 3.84 14.7.132 28.737 4.238 34.961 11.412 17.3 3.62 18.1 3.62 18.1l.44 3.62-21.277 14.831s-9.403-2.516-14.17-6.092c-4.769-3.575-5.621-43.702-5.621-43.702L151.756 96.93z"/>
    <path fill="url(#linearGradient1044)" stroke="#000" stroke-linejoin="round" stroke-miterlimit="10" d="M216.266 209.64l3.245-2.262-.441-3.62s7.792-.8-3.62-18.1c-4.106-6.224-.398-20.261-4.238-34.961 5.142-8.49-14.114-75.16-19.924-92.422v.002l-2.907 1.357c-1.099-9.941-8.766-19.033-15.729-21.336l-12.365 1.463c14.391 3.359 25.157 10.596 25.074 31.87l5.836-1.502s3.17 9.89 9.263 34.082c4.46 17.704 8.189 30.12 8.475 40.17.13 4.569-2.076 2.737-.927 9.005 3.203 17.48-1.04 17.663 1.104 24.19 2.873 8.75 7.53 14.832 8.564 20.703.258 1.468.8 4.106-2.227 5.43l.817 5.93 3.245-2.261z"/>
    <path fill="url(#linearGradient1052)" stroke="#000" stroke-linejoin="round" stroke-miterlimit="10" d="M197.703 219.562c1.148-3.445 11.571-19.802 21.808-12.184 1.165.867.354 6.003 4.238 17.127 3.41 9.768 5.557 18.716 5.027 21.277-.53 2.56-21.008 7.945-27.717.176-.837-.97-.321-7.823-1.149-13.42-.83-5.613-2.782-11.252-2.207-12.976z"/>
    <path fill="url(#linearGradient1010)" d="M204.502 243.663c7.327-5.474 18.806-4.062 21.808-.707"/>
    <path fill="url(#linearGradient1018)" stroke="#000" stroke-linejoin="round" stroke-miterlimit="10" d="M190.974 197.176c2.518-1.169-4.36-15.685-4.36-15.685H69.36S62.568 195.84 65 197.176c27.608 15.154 97.407 13.255 125.974 0z"/>
    <path fill="url(#linearGradient1070)" stroke="#000" stroke-linejoin="round" stroke-miterlimit="10" stroke-width=".944" d="M131.432 209.829l1.014-13.658h2.429l1.015 13.658z" transform="matrix(1.0595 0 0 1.05944 -13.558 -14.536)"/>
    <path fill="none" stroke="#000" stroke-linejoin="round" stroke-miterlimit="10" stroke-width=".708" d="M135.471 204.188l-3.403-2.93 3.024-2.17-2.646-2.917" transform="matrix(1.0595 0 0 1.05944 -13.558 -14.536)"/>
    <path fill="url(#linearGradient1078)" stroke="#000" stroke-linejoin="round" stroke-miterlimit="10" stroke-width=".944" d="M130.74 210.563l.5-6.375h5.01l.5 6.375z" transform="matrix(1.0595 0 0 1.05944 -13.558 -14.536)"/>
    <path fill="url(#linearGradient1086)" stroke="#000" stroke-linejoin="round" stroke-miterlimit="10" d="M189.17 171.71c-.49-2.776.642-6.365-.132-9.8-2.101-9.315-5.49-18.79-8.092-27.328-2.152-7.06-3.565-13.574-5.057-17.97-1.439-4.237-2.361-6.788-2.361-6.788.516-2.063.99-4.146 1.431-6.238 9.635-5.7 17.031-18.235 4.74-41.729.08-2.426.133-4.821.156-7.172.073-7.235 3.014-12.926 3.178-17.849-3.885-7.578-26.84-12.7-26.84-12.7l-28.192 21.538-28.193-21.537s-22.956 5.121-26.84 12.7c.164 4.922 3.104 10.613 3.178 17.848.023 2.35.076 4.746.157 7.172-12.293 23.493-4.896 36.03 4.74 41.727.44 2.093.913 4.175 1.43 6.238 0 0-2.42 5.569-4.913 13.723-.945 3.088-1.246 6.437-2.384 10.153-2.662 8.695-6.054 18.65-8.211 28.212-.775 3.435.357 7.024-.133 9.8-.75 4.253-2.567 4.755-2.119 6.886 4.126 19.598 122.451 19.602 126.577 0 .448-2.131-1.37-2.633-2.12-6.886z"/>
    <path fill="url(#linearGradient1102)" stroke="#000" stroke-linejoin="round" stroke-miterlimit="10" d="M179.874 187.077s-12.381-18.593-13.44-21.507c-1.06-2.913-2.111-21.38-2.111-21.38l-4.951-.869s-.707 20.66 1.412 24.368c2.119 3.708 12.478 21.28 12.479 21.281 2.396-.573 4.613-1.203 6.612-1.89z"/>
    <path fill="url(#linearGradient1110)" stroke="#000" stroke-linejoin="round" stroke-miterlimit="10" d="M74.84 186.616c2.321.869 4.975 1.654 7.9 2.352 0 0 10.358-17.57 12.477-21.279 2.12-3.708 1.412-24.368 1.412-24.368l-4.952.873s-1.052 18.463-2.111 21.376c-1.06 2.914-14.726 21.046-14.726 21.046z"/>
    <path fill="url(#linearGradient1238-6)" d="M177.65 34.001c-1.446 1.669-8.608-1.972-33.812 3.867-6.656 1.543-10.041 2.484-11.57 5.083-1.789 3.049-3.454 4.155-2.958 2.58"/>
    <path fill="url(#linearGradient1118)" stroke="#000" stroke-linejoin="round" stroke-miterlimit="10" d="M180.083 51.361c.295-2.385.838-4.595 1.378-6.663-2.149-2.686-5.368-5.137-8.807-6.4l2.709-6.572-17.636-7.59-5.972 3.391 11.854 4.737-3.322 7.497c8.888 1.766 17.227 6.483 19.797 11.601z"/>
    <path fill="url(#linearGradient1238)" d="M78.349 34.001c1.446 1.669 8.608-1.972 33.812 3.867 6.656 1.543 10.041 2.484 11.57 5.083 1.789 3.049 3.454 4.155 2.958 2.58"/>
    <path fill="url(#linearGradient1126)" stroke="#000" stroke-linejoin="round" stroke-miterlimit="10" d="M75.918 51.361c-.295-2.385-.838-4.595-1.378-6.663 2.149-2.686 5.368-5.137 8.808-6.4l-2.71-6.572 17.636-7.59 5.972 3.391-11.855 4.737 3.322 7.497c-8.888 1.766-17.227 6.483-19.797 11.601z"/>
    <path d="M131.219 76.841c1.495-.39 3.257-.395 4.752 0-1.494.395-3.256.39-4.752 0zm-6.336 3.885c-1.916.86-3.764 1.814-5.651 2.736 1.388-1.582 3.548-2.671 5.651-2.736zm-6.137-7.858c1.965.706 3.944 1.185 5.952 1.722-2.055.288-4.398-.297-5.952-1.722zm55.268 37.166l-2.987 5.566c.672-1.995 1.344-3.991 2.014-5.986.325.139.649.28.973.42zm-91.054-.421l2.015 5.987-2.988-5.566.973-.421zm27.179-2.605c5.932-.978 11.863-1.096 17.861-1.21 5.96-.013 11.979.226 17.861 1.21-5.931-.39-11.918-.509-17.862-.416-5.964.017-11.907.04-17.86.416zm65.088-2.965c-3.621 1.878-7.574 2.949-11.617 3.482 3.911-.87 7.698-2.243 11.08-4.396.18.304.358.61.537.914zm4.02-41.903l-8.22-14.082 9.118 13.519-.897.563zM81.31 103.128c3.384 2.153 7.17 3.526 11.082 4.395-4.042-.531-7.996-1.601-11.617-3.48l.535-.915zm-5.455-41.553l9.12-13.519-8.223 14.083c-.3-.187-.598-.375-.897-.564zm-31.568 88.951l5.99-15.945-4.988 16.286-1.002-.34zm13.63-58.007l6.724-13.956-5.755 14.383-.97-.427zm146.585 151.144c3.15-2.7 6.778-3.745 10.839-4.167 3.835-.005 8.27.381 10.969 3.46-3.061-2.325-7.233-2.45-10.917-2.403a38.43 38.43 0 0 0-5.997 1.005c-1.737.485-3.296 1.3-4.894 2.105zm10.491-57.738l-10.49-18.983 11.406 18.45c-.307.177-.61.355-.916.533zm-4.208-34.915c-5.096-7.256-10.193-14.51-15.289-21.767l16.143 21.14-.854.627zm-20.33-96.41l-1.58 11.779.525-11.874 1.055.094zm-2.086-11.393l-4.685 19.106 3.908-19.28.777.174zM51.498 243.663c-1.496-.755-2.942-1.483-4.546-2-2.073-.667-4.19-.92-6.346-1.11-3.685-.048-7.856.077-10.917 2.403 2.699-3.078 7.133-3.465 10.97-3.46 4.06.422 7.69 1.466 10.839 4.167z"/>
    <path fill="url(#linearGradient1134)" stroke="#000" stroke-linejoin="round" stroke-miterlimit="10" d="M126.196 193.296c-1.314-21.633 1.107-49.786.746-72.223-.511-31.784-.38-46.349 0-64.097.196-9.129-.746-11.343-.746-11.343h3.771s-.941 2.214-.745 11.343c.38 17.748.51 32.313 0 64.097-.362 22.437 2.194 51.474.745 72.223z"/>
    <path fill="none" stroke="#000" stroke-linejoin="round" stroke-miterlimit="10" stroke-width=".708" d="M135.466 56.793l-3.01 2.288 2.306 2.565-2.127 2.331 2.184 2.521-2.31 2.375 2.38 2.478-2.433 2.418 2.499 2.434-2.557 2.462 2.608 2.391-2.55 2.505 2.581 2.348-2.72 2.548 2.745 2.304-2.763 2.592 2.78 2.261-2.786 2.635 2.779 2.217-2.768 2.68 2.744 2.173-2.719 2.723 2.703 2.129-2.673 2.767 2.643 2.086-2.607 2.809 2.558 2.044-2.511 2.852 2.458 2-2.412 2.896 2.347 1.957-2.259 2.939 2.201 1.914-2.144 2.983 2.096 1.869-2.1 3.026 2.164 1.827-2.227 3.07 2.288 1.782-2.371 3.114 2.449 1.739-2.537 3.157 2.729 1.695-2.831 3.201 3 1.653-3.211 3.243 3.339 1.609-3.339 3.287 3.503 1.566-3.819 3.331 4.019 1.521-4.195 3.374 4.195 1.479-4.353 3.418 4.442 1.434-4.241 3.461 4.035 1.392-3.762 3.505" transform="matrix(1.0595 0 0 1.05944 -13.558 -14.536)"/>
    <path fill="url(#linearGradient1160)" stroke="#231f20" stroke-linejoin="round" stroke-miterlimit="10" d="M139.77 38.51s4.82 4.8 2.599 35.044l1.72-.066c1.151-35.427-2.72-35.738-2.72-35.738z"/>
    <path fill="#d9ff44" stroke="#231f20" stroke-linejoin="round" stroke-miterlimit="10" d="M145.657 67.705h.729v4.212h-.729z" transform="rotate(2.315)"/>
    <path fill="url(#linearGradient1168)" stroke="#231f20" stroke-linejoin="round" stroke-miterlimit="10" d="M116.353 38.51s-4.82 4.8-2.599 35.044l-1.72-.066c-1.151-35.427 2.72-35.738 2.72-35.738z"/>
    <path fill="#d9ff44" stroke="#231f20" stroke-linejoin="round" stroke-miterlimit="10" d="M-110.266-82.264h.729v4.212h-.729z" transform="rotate(177.685)"/>
    <path fill="url(#linearGradient1176)" stroke="#000" stroke-linejoin="round" stroke-miterlimit="10" d="M161.883 21.562s8.637 4.306 7.113 6.39c-1.523 2.084-35.147 11.197-35.147 11.197 19.08-21.606 28.034-17.587 28.034-17.587z"/>
    <path fill="url(#linearGradient1184)" stroke="#000" stroke-linejoin="round" stroke-miterlimit="10" d="M129.31 45.531c5.58-17.672 47.24-11.756 49.995-25.788 2.422.329-1.502 5.735-2.273 8.873-.828 3.378 1.37 4.522.62 5.385-1.445 1.669-8.608-1.972-33.811 3.867-6.657 1.543-10.043 2.484-11.57 5.083-1.79 3.049-3.456 4.155-2.961 2.58z"/>
    <path fill="url(#linearGradient1192)" stroke="#000" stroke-miterlimit="10" d="M94.118 21.562s-8.643 4.306-7.12 6.391c1.524 2.084 35.153 11.197 35.153 11.197-19.08-21.607-28.033-17.588-28.033-17.588z"/>
    <path fill="url(#linearGradient1200)" stroke="#000" stroke-linejoin="round" stroke-miterlimit="10" d="M126.69 45.531C121.11 27.86 79.45 33.775 76.695 19.743c-2.422.329 1.502 5.735 2.273 8.873.828 3.378-1.37 4.522-.62 5.385 1.446 1.669 8.608-1.972 33.812 3.867 6.656 1.543 10.041 2.484 11.57 5.083 1.789 3.049 3.454 4.155 2.958 2.58z"/>
    <path fill="#d9fb43" stroke="#000" stroke-linejoin="round" stroke-miterlimit="10" d="M130.454 49.606h-4.69l.72-2.793s-1.162-2.222-.72-2.792c.718-.927 3.98-.934 4.69 0 .438.576-.774 2.792-.774 2.792z"/>
    <path fill="#d9fb43" stroke="#000" stroke-linejoin="round" stroke-miterlimit="10" d="M130.4 56.273h-4.707l.79-9.459h3.211zm-1.026-.886l-.174-1.854h-2.248l-.174 1.854z"/>
    <path fill="#d9fb43" stroke="#000" stroke-linejoin="round" stroke-miterlimit="10" d="M127.267 45.391h1.589v3.201h-1.589z"/>
</svg>
