<svg xmlns="http://www.w3.org/2000/svg" xmlns:xlink="http://www.w3.org/1999/xlink" viewBox="0 0 256 256">
    <defs>
        <linearGradient id="innoGrad6">
            <stop offset="0" stop-color="#939598"/>
            <stop offset="1" stop-color="#ccc"/>
        </linearGradient>
        <linearGradient id="innoGrad7">
            <stop offset="0" stop-color="#25222d"/>
            <stop offset="1" stop-color="#353140"/>
        </linearGradient>
        <linearGradient id="innoGrad5">
            <stop offset="0" stop-color="#27aae1"/>
            <stop offset="1" stop-color="#1f88b4"/>
        </linearGradient>
        <linearGradient id="innoGrad4">
            <stop offset="0" stop-color="#e4e5e3"/>
            <stop offset="1" stop-color="#fdfefc"/>
        </linearGradient>
        <linearGradient id="innoGrad3">
            <stop offset="0" stop-color="#c6e15a"/>
            <stop offset="1" stop-color="#dcfa64"/>
        </linearGradient>
        <linearGradient id="innoGrad2">
            <stop offset="0" stop-color="#1f88b4"/>
            <stop offset="1" stop-color="#27aae1"/>
        </linearGradient>
        <linearGradient id="innoGrad1">
            <stop offset="0" stop-color="#dcfa64"/>
            <stop offset="1" stop-color="#c6e15a"/>
        </linearGradient>
        <linearGradient id="linearGradient972" x1="76.164" x2="177.202" y1="76.883" y2="188.226" gradientUnits="userSpaceOnUse" xlink:href="#innoGrad1"/>
        <linearGradient id="linearGradient980" x1="113.551" x2="147.163" y1="131.634" y2="131.634" gradientUnits="userSpaceOnUse" xlink:href="#innoGrad2"/>
        <linearGradient id="linearGradient988" x1="121.499" x2="156.12" y1="139.189" y2="139.189" gradientUnits="userSpaceOnUse" xlink:href="#innoGrad2"/>
        <linearGradient id="linearGradient1012" x1="155.018" x2="169.542" y1="162.475" y2="150.546" gradientUnits="userSpaceOnUse" xlink:href="#innoGrad2"/>
        <linearGradient id="linearGradient1020" x1="133.036" x2="166.763" y1="146.721" y2="146.721" gradientUnits="userSpaceOnUse" xlink:href="#innoGrad2"/>
        <linearGradient id="linearGradient1028" x1="28.5" x2="96.707" y1="156.375" y2="112.407" gradientUnits="userSpaceOnUse" xlink:href="#innoGrad3"/>
        <linearGradient id="linearGradient1067" x1="191.235" x2="200.813" y1="163.921" y2="177.377" gradientUnits="userSpaceOnUse" xlink:href="#innoGrad4"/>
        <linearGradient id="linearGradient1075" x1="26.524" x2="229.679" y1="185.443" y2="185.443" gradientUnits="userSpaceOnUse" xlink:href="#innoGrad4"/>
        <linearGradient id="linearGradient1083" x1="131.491" x2="230.071" y1="196.874" y2="196.874" gradientUnits="userSpaceOnUse" xlink:href="#innoGrad4"/>
        <linearGradient id="linearGradient1103" x1="149.424" x2="182.391" y1="169.487" y2="156.915" gradientUnits="userSpaceOnUse" xlink:href="#innoGrad5"/>
        <linearGradient id="linearGradient1119" x1="135.714" x2="153.634" y1="164.172" y2="143.598" gradientUnits="userSpaceOnUse" xlink:href="#innoGrad5"/>
        <linearGradient id="linearGradient1127" x1="122.958" x2="142.927" y1="155.023" y2="135.449" gradientUnits="userSpaceOnUse" xlink:href="#innoGrad5"/>
        <linearGradient id="linearGradient1135" x1="111.856" x2="135.802" y1="148.976" y2="126.5" gradientUnits="userSpaceOnUse" xlink:href="#innoGrad5"/>
        <linearGradient id="linearGradient1143" x1="92.203" x2="140.399" y1="123.506" y2="123.506" gradientUnits="userSpaceOnUse" xlink:href="#innoGrad5"/>
        <linearGradient id="linearGradient1151" x1="101.875" x2="135.69" y1="138.271" y2="119.15" gradientUnits="userSpaceOnUse" xlink:href="#innoGrad5"/>
        <linearGradient id="linearGradient1159" x1="39.218" x2="70.393" y1="145.152" y2="145.152" gradientUnits="userSpaceOnUse" xlink:href="#innoGrad7"/>
        <linearGradient id="linearGradient1167" x1="74.726" x2="154.225" y1="101.689" y2="173.575" gradientUnits="userSpaceOnUse" xlink:href="#innoGrad6"/>
        <linearGradient id="linearGradient1183" x1="115.493" x2="199.503" y1="62.807" y2="170.865" gradientUnits="userSpaceOnUse" xlink:href="#innoGrad1"/>
        <linearGradient id="linearGradient1191" x1="133.332" x2="166.516" y1="122.281" y2="122.281" gradientUnits="userSpaceOnUse" xlink:href="#innoGrad2"/>
        <linearGradient id="linearGradient1193" x1="142.257" x2="175.261" y1="129.657" y2="129.657" gradientUnits="userSpaceOnUse" xlink:href="#innoGrad2"/>
        <linearGradient id="linearGradient1195" x1="171.302" x2="188.355" y1="151.521" y2="140.745" gradientUnits="userSpaceOnUse" xlink:href="#innoGrad2"/>
        <linearGradient id="linearGradient1197" x1="152.702" x2="185.653" y1="137.011" y2="137.011" gradientUnits="userSpaceOnUse" xlink:href="#innoGrad2"/>
        <linearGradient id="linearGradient1205" x1="50.043" x2="188.875" y1="137.407" y2="137.407" gradientUnits="userSpaceOnUse" xlink:href="#innoGrad3"/>
        <linearGradient id="linearGradient1213" x1="208.563" x2="233.739" y1="153.933" y2="169.388" gradientUnits="userSpaceOnUse" xlink:href="#innoGrad4"/>
        <linearGradient id="linearGradient1221" x1="48.707" x2="247.081" y1="174.819" y2="174.819" gradientUnits="userSpaceOnUse" xlink:href="#innoGrad4"/>
        <linearGradient id="linearGradient1229" x1="151.194" x2="247.464" y1="185.979" y2="185.979" gradientUnits="userSpaceOnUse" xlink:href="#innoGrad4"/>
        <linearGradient id="linearGradient1237" x1="168.157" x2="200.9" y1="152.674" y2="146.964" gradientUnits="userSpaceOnUse" xlink:href="#innoGrad5"/>
        <linearGradient id="linearGradient1239" x1="159.832" x2="172.822" y1="146.091" y2="133.961" gradientUnits="userSpaceOnUse" xlink:href="#innoGrad5"/>
        <linearGradient id="linearGradient1241" x1="147.755" x2="162.369" y1="133.857" y2="126.006" gradientUnits="userSpaceOnUse" xlink:href="#innoGrad5"/>
        <linearGradient id="linearGradient1243" x1="141.284" x2="155.413" y1="126.552" y2="117.383" gradientUnits="userSpaceOnUse" xlink:href="#innoGrad5"/>
        <linearGradient id="linearGradient1245" x1="132.634" x2="159.913" y1="112.183" y2="114.344" gradientUnits="userSpaceOnUse" xlink:href="#innoGrad5"/>
        <linearGradient id="linearGradient1247" x1="135.69" x2="155.493" y1="119.15" y2="109.147" gradientUnits="userSpaceOnUse" xlink:href="#innoGrad5"/>
    </defs>
    <g stroke-width=".902">
        <path fill="#6e7d32" stroke="#000" stroke-linejoin="round" stroke-miterlimit="10" d="M57.971 91.963c-.061-2.458 6.419-5.953 80.669-10.672l-6.494 37.376c-3.25 1.876-74.175-26.704-74.175-26.704z" transform="matrix(1.1089 0 0 1.10912 -23.913 -24.383)"/>
        <path fill="#6e7d32" d="M213.465 149.402l-7.444-6.4s-24.457-6.84-47.91-29.816c-18.024-17.658-24.346-53.123-24.346-53.123l-7.458.812 26.932 69.712z"/>
        <path fill="#dcfa64" stroke="#000" stroke-linejoin="round" stroke-miterlimit="10" d="M140.892 75.278s-1.393-.106 2.721.102c5.647 13.817 2.108 49.333 62.115 73.62 3.118 1.263 5.729 4.596 9.194 5.654l-5.387-.849s-.792-1.587-4.5-2.975c-13.082-4.901-45.577-18.806-58.254-53.29z" transform="matrix(1.1089 0 0 1.10912 -23.913 -24.383)"/>
        <path fill="url(#linearGradient1183)" stroke="#000" stroke-linejoin="round" stroke-miterlimit="10" d="M101.445 97.374s-14.038-14.758-9.766-23.912c4.272-9.153 39.396-15.509 43.816-12.385 12.91 14.695-4.896 61.821 65.513 88.411 3.088 1.165 4.161 3.487 7.555 4.445l-19.149 34.854z" transform="matrix(1.1089 0 0 1.10912 -23.913 -24.383)"/>
        <path fill="url(#linearGradient1191)" stroke="#000" stroke-miterlimit="10" d="M162.169 119.863c3.239.171 4.238 3.324 3.787 4.172-11.032-1.661-19.625-1.371-28.547.862l-3.281-2.98s6.536-3.185 28.041-2.054z" transform="matrix(1.1089 0 0 1.10912 -23.913 -24.383)"/>
        <path fill="url(#linearGradient1193)" stroke="#000" stroke-miterlimit="10" d="M168.61 126.623c3.64.182 6.592 5.062 6.157 5.217-12.266-1.635-17.979-2.053-27.785.963l-4.274-3.398c0-.001 6.437-3.756 25.902-2.782z" transform="matrix(1.1089 0 0 1.10912 -23.913 -24.383)"/>
        <path fill="url(#linearGradient1195)" stroke="#000" stroke-linejoin="round" stroke-miterlimit="10" d="M188.355 140.745s-.302-2.626-3.885-2.266c-3.582.36-13.06 7.128-13.063 10.953-.002 1.729 5.156 3.061 5.156 3.061s3.47-5.943 6.687-8.589c3.216-2.644 5.105-3.159 5.105-3.159z" transform="matrix(1.1089 0 0 1.10912 -23.913 -24.383)"/>
        <path fill="url(#linearGradient1197)" stroke="#000" stroke-linejoin="round" stroke-miterlimit="10" d="M153.153 137.407c11.443-3.349 18.582-4.944 29.364-1.729 3.652 1.141 2.793 2.107 1.953 2.802-19.955-.268-27.521 1.607-27.521 1.607z" transform="matrix(1.1089 0 0 1.10912 -23.913 -24.383)"/>
        <path fill="url(#linearGradient1205)" stroke="#000" stroke-linejoin="round" stroke-miterlimit="10" stroke-width=".88" d="M50.646 146.438c-.894-.448 2.146-9.127 2.768-20.952.569-10.822.732-22.375 4.557-33.522 6.671 1.382 32.79-7.242 47.189-9.683 5.315 3.68 6.834 35.149 80.226 75.18 2.968 6.059 3.049 21.282 3.049 21.282-6.629 28.187-82.949 4.43-82.949 4.43l-54.839-27.99v-8.745z" transform="matrix(1.1089 0 0 1.10912 -23.913 -24.383)"/>
        <path fill="url(#linearGradient1213)" stroke="#000" stroke-miterlimit="10" d="M238.11 164.948c-1.223-1.955-14.562-8.603-26.482-11.068-7.078-1.465-26.895 10.822-23.193 24.863l40.888 1.379 12.543-12.079z" transform="matrix(1.1089 0 0 1.10912 -23.913 -24.383)"/>
        <path fill="url(#linearGradient1221)" stroke="#000" stroke-linejoin="round" stroke-miterlimit="10" d="M50.646 146.438c-3.051 7.2 17.587 15.913 40.397 21.479 22 5.368 49.443 10.83 74.814 11.351 43.049.883 78.094-9.291 72.252-14.319 6.346 3.945 9.406 10.658 8.298 22.618-21.643 14.808-65.72 17.777-96.678 14.317-32.039-3.579-44.813-15.052-53.683-17.246-35.038-8.675-43.47-13.07-44.587-14.972-3.253-5.532-2.611-19.953-.813-23.228z" transform="matrix(1.1089 0 0 1.10912 -23.913 -24.383)"/>
        <path fill="url(#linearGradient1229)" stroke="#000" stroke-linejoin="round" stroke-miterlimit="10" d="M152.067 183.051c74.813 2.075 87.541-11.309 90.575-14.075 3.359 2.563 5.475 15.052 3.766 18.591-1.708 3.539-29.779 18.673-92.013 14.781-2.085-2.689-3.497-17.954-2.328-19.297z" transform="matrix(1.1089 0 0 1.10912 -23.913 -24.383)"/>
        <path fill="url(#linearGradient1237)" stroke="#000" stroke-linejoin="round" stroke-miterlimit="10" d="M200.9 146.964s-13.874 1.562-22.684 6.485c-3.139 1.754-4.666 5.98-6.134 7.938-1.315 1.755-4.049 1.465-3.365-2.16.706-3.748-.261-4.125 4.458-8.73 4.719-4.607 20.413-7.878 23.763-7.56 4.719.449 3.962 4.027 3.962 4.027z" transform="matrix(1.1089 0 0 1.10912 -23.913 -24.383)"/>
        <path fill="url(#linearGradient1239)" stroke="#000" stroke-linejoin="round" stroke-miterlimit="10" d="M169.151 132.104c-12.509 2.921-14.039 15.324-14.219 20.016-.181 4.69 2.42 3.152 3.236 1.64.817-1.511 6.712-15.314 14.654-19.799.687-2.133-1.791-2.295-3.671-1.857z" transform="matrix(1.1089 0 0 1.10912 -23.913 -24.383)"/>
        <path fill="url(#linearGradient1241)" stroke="#000" stroke-linejoin="round" stroke-miterlimit="10" d="M146.16 147.179c1.734-6.111 8.266-21.772 16.209-21.173 0-1.476-1.17-3.756-3.332-3.625-4.327.262-18.261 15.438-16.329 24.058.563 2.505 3.452.74 3.452.74z" transform="matrix(1.1089 0 0 1.10912 -23.913 -24.383)"/>
        <path fill="url(#linearGradient1243)" stroke="#000" stroke-miterlimit="10" d="M135.102 139.318c.853-1.369 3.582-9.647 20.395-21.449 1.294-.908-1.659-5.117-2.971-4.526-16.973 7.654-21.137 22.076-20.271 24.869.863 2.794 2.847 1.106 2.847 1.106z" transform="matrix(1.1089 0 0 1.10912 -23.913 -24.383)"/>
        <path fill="url(#linearGradient1245)" stroke="#000" stroke-miterlimit="10" d="M155.304 110.091c3.903 1.257 4.922 5.826 3.624 5.606-19.248-3.251-36.601.104-42.986 3.583-3.02 1.646-3.034-1.302-2.091-2.441 9.996-12.081 41.453-6.748 41.453-6.748z" transform="matrix(1.1089 0 0 1.10912 -23.913 -24.383)"/>
        <path fill="url(#linearGradient1247)" stroke="#000" stroke-miterlimit="10" d="M122.288 128.762c-.384-1.411 1.221-8.077 8.117-12.349 6.896-4.271 18.399-11.423 21.838-12.29 2.083-.525 4.073 4.293 2.682 5.302-1.393 1.008-19.72 8.75-29.646 20.476-2.035 1.619-2.607.269-2.991-1.139z" transform="matrix(1.1089 0 0 1.10912 -23.913 -24.383)"/>
    </g>
    <g stroke-width=".902">
        <path fill="#6e7d32" stroke="#000" stroke-linejoin="round" stroke-miterlimit="10" d="M36.002 100.583c-.061-2.458 6.057-5.989 80.307-10.708L52.5 144.742c-3.25 1.875-16.498-44.159-16.498-44.159z" transform="matrix(1.1089 0 0 1.10912 -23.913 -24.383)"/>
        <path fill="#6e7d32" d="M193.293 160.7l-7.624-6.556s-25.049-7.003-49.069-30.535c-18.46-18.087-24.937-54.41-24.937-54.41l-7.637.832 27.584 71.399z"/>
        <path fill="#dcfa64" stroke="#000" stroke-linejoin="round" stroke-miterlimit="10" d="M120.929 83.494s-1.426-.109 2.787.104c5.785 14.151 2.16 50.526 63.619 75.402 3.194 1.293 5.867 4.706 9.417 5.791l-5.517-.87s-.812-1.625-4.609-3.047c-13.398-5.02-46.68-19.26-59.664-54.579z" transform="matrix(1.1089 0 0 1.10912 -23.913 -24.383)"/>
        <path fill="url(#linearGradient972)" stroke="#000" stroke-linejoin="round" stroke-miterlimit="10" d="M80.528 106.125S66.151 91.01 70.526 81.635c4.375-9.375 40.35-15.885 44.877-12.685 13.223 15.05-5.014 63.317 67.098 90.55 3.163 1.194 4.262 3.573 7.738 4.553l-19.613 35.697z" transform="matrix(1.1089 0 0 1.10912 -23.913 -24.383)"/>
        <path fill="url(#linearGradient980)" stroke="#000" stroke-miterlimit="10" d="M142.722 129.158c3.317.175 4.341 3.404 3.879 4.273-11.3-1.701-20.101-1.404-29.239.883l-3.36-3.052c0 .001 6.694-3.262 28.72-2.104z" transform="matrix(1.1089 0 0 1.10912 -23.913 -24.383)"/>
        <path fill="url(#linearGradient988)" stroke="#000" stroke-miterlimit="10" d="M149.318 136.082c3.729.187 6.752 5.185 6.307 5.343-12.563-1.675-18.415-2.103-28.458.986l-4.377-3.481c.001 0 6.592-3.845 26.528-2.848z" transform="matrix(1.1089 0 0 1.10912 -23.913 -24.383)"/>
        <path fill="url(#linearGradient1012)" stroke="#000" stroke-linejoin="round" stroke-miterlimit="10" d="M169.542 150.546s-.31-2.689-3.979-2.32c-3.669.369-13.376 7.3-13.38 11.218-.002 1.771 5.281 3.136 5.281 3.136s3.554-6.089 6.848-8.798c3.294-2.709 5.23-3.236 5.23-3.236z" transform="matrix(1.1089 0 0 1.10912 -23.913 -24.383)"/>
        <path fill="url(#linearGradient1020)" stroke="#000" stroke-linejoin="round" stroke-miterlimit="10" d="M133.487 147.127c11.721-3.429 19.032-5.064 30.075-1.771 3.741 1.167 2.86 2.157 2.001 2.869-20.438-.274-28.187 1.646-28.187 1.646z" transform="matrix(1.1089 0 0 1.10912 -23.913 -24.383)"/>
        <path fill="url(#linearGradient1028)" stroke="#000" stroke-linejoin="round" stroke-miterlimit="10" d="M28.5 156.375c-.915-.458 2.198-9.348 2.835-21.458.583-11.083.75-22.917 4.667-34.333 6.833 1.416 33.583-7.417 48.331-9.917 5.443 3.769 7 36 82.167 77 3.04 6.204 3.123 21.797 3.123 21.797-6.79 28.869-84.957 4.536-84.957 4.536L28.5 165.333z" transform="matrix(1.1089 0 0 1.10912 -23.913 -24.383)"/>
        <g fill="none" stroke="#000" stroke-miterlimit="10">
            <path d="M166.758 189.64s-.036-.363-.102-.991" transform="matrix(1.1089 0 0 1.10912 -23.913 -24.383)"/>
            <path stroke-dasharray="1.82180866,1.82180866" d="M166.44 186.641c-.574-5.178-1.828-15.375-2.94-16.766-1.479-1.849-64.178-30.299-79.732-74.215" transform="matrix(1.1089 0 0 1.10912 -23.913 -24.383)"/>
            <path d="M83.437 94.7c-.106-.316-.21-.633-.312-.95l-.958.285" transform="matrix(1.1089 0 0 1.10912 -23.913 -24.383)"/>
            <path stroke-dasharray="1.84362997,1.84362997" d="M80.204 94.61c-25.185 7.318-38.351 8.47-43.026 8.616" transform="matrix(1.1089 0 0 1.10912 -23.913 -24.383)"/>
            <path d="M36.16 103.245c-.674.002-.995-.02-.995-.02" transform="matrix(1.1089 0 0 1.10912 -23.913 -24.383)"/>
        </g>
        <g fill="none" stroke="#000" stroke-linejoin="round">
            <path d="M152.751 190.054c.094-.284.161-.615.207-.979" transform="matrix(1.1089 0 0 1.10912 -23.913 -24.383)"/>
            <path stroke-dasharray="2.2690553,2.2690553" d="M153.005 186.562c-.07-1.303-.248-2.665-.421-3.759" transform="matrix(1.1089 0 0 1.10912 -23.913 -24.383)"/>
            <path d="M152.374 181.564c-.11-.604-.19-.978-.19-.978l-.907-.425" transform="matrix(1.1089 0 0 1.10912 -23.913 -24.383)"/>
            <path stroke-dasharray="1.77266564,1.77266564" d="M149.502 179.315c-54.704-26.38-74.943-63.915-79.001-72.514" transform="matrix(1.1089 0 0 1.10912 -23.913 -24.383)"/>
            <path d="M70.091 105.914a25.77 25.77 0 0 1-.395-.914c-.322.078-.646.154-.972.23" transform="matrix(1.1089 0 0 1.10912 -23.913 -24.383)"/>
            <path stroke-dasharray="1.8420069,1.8420069" d="M66.736 105.679c-12.389 2.717-26.216 4.266-31.295 4.78" transform="matrix(1.1089 0 0 1.10912 -23.913 -24.383)"/>
            <path d="M34.423 110.56c-.643.063-.992.093-.992.093" transform="matrix(1.1089 0 0 1.10912 -23.913 -24.383)"/>
        </g>
        <path fill="url(#linearGradient1067)" stroke="#000" stroke-miterlimit="10" d="M220.501 175.334c-1.252-2.001-14.914-8.81-27.123-11.336-7.25-1.5-27.546 11.085-23.755 25.466l41.877 1.411 12.847-12.371z" transform="matrix(1.1089 0 0 1.10912 -23.913 -24.383)"/>
        <path fill="url(#linearGradient1075)" stroke="#000" stroke-linejoin="round" stroke-miterlimit="10" d="M28.5 156.375c-3.125 7.375 18.013 16.3 41.375 22 22.532 5.498 50.64 11.092 76.625 11.625 44.091.904 79.984-9.516 74.001-14.666C227 179.375 230.135 186.25 229 198.5c-22.167 15.167-67.311 18.207-99.018 14.665C97.168 209.499 84.084 197.749 75 195.5c-35.886-8.885-44.521-13.387-45.667-15.333C26 174.5 26.658 159.73 28.5 156.375z" transform="matrix(1.1089 0 0 1.10912 -23.913 -24.383)"/>
        <path fill="url(#linearGradient1083)" stroke="#000" stroke-linejoin="round" stroke-miterlimit="10" d="M132.375 193.875c76.625 2.125 89.66-11.582 92.768-14.416 3.44 2.625 5.607 15.416 3.857 19.041s-30.5 19.125-94.24 15.139c-2.137-2.753-3.582-18.389-2.385-19.764z" transform="matrix(1.1089 0 0 1.10912 -23.913 -24.383)"/>
        <path fill="none" stroke="#000" stroke-linejoin="round" stroke-miterlimit="10" d="M26.989 165.998c6.597 9.835 22.402 11.629 44.014 18.002 20.085 5.923 33 12.5 60.942 12.874" transform="matrix(1.1089 0 0 1.10912 -23.913 -24.383)"/>
        <path fill="url(#linearGradient1167)" stroke="#000" stroke-miterlimit="10" d="M74.726 101.689c-1.501 2.13-1.158 4.944.763 6.286 1.923 1.342 4.698.704 6.199-1.426 1.501-2.131 1.158-4.944-.764-6.286-1.923-1.342-4.697-.704-6.198 1.426zm15.873 23.217c-1.531 2.171-1.181 5.038.779 6.405 1.962 1.368 4.793.718 6.324-1.453 1.532-2.171 1.182-5.038-.78-6.405-1.961-1.367-4.791-.718-6.323 1.453zm9.37 10.777a4.493 5 35.049 0 1 6.55-1.513 4.493 5 35.049 0 1 .807 6.674 4.493 5 35.049 0 1-6.55 1.513 4.493 5 35.049 0 1-.807-6.674zm10.358 9.68a4.493 5 35.049 0 1 6.55-1.514 4.493 5 35.049 0 1 .807 6.674 4.493 5 35.049 0 1-6.55 1.513 4.493 5 35.049 0 1-.807-6.674zm10.714 8.423a4.493 5 35.049 0 1 6.55-1.514 4.493 5 35.049 0 1 .807 6.674 4.493 5 35.049 0 1-6.55 1.513 4.493 5 35.049 0 1-.807-6.673zm12.346 7.181a4.493 5 35.049 0 1 6.55-1.513 4.493 5 35.049 0 1 .807 6.674 4.493 5 35.049 0 1-6.55 1.513 4.493 5 35.049 0 1-.807-6.674zm14.12 7.28a4.493 5 35.049 0 1 6.55-1.513 4.493 5 35.049 0 1 .806 6.673 4.493 5 35.049 0 1-6.55 1.514 4.493 5 35.049 0 1-.807-6.674z" transform="matrix(1.1089 0 0 1.10912 -23.913 -24.383)"/>
        <path d="M60.971 89.674c-.993 1.273-.978 2.944.037 3.73 1.015.785 2.646.39 3.64-.883.994-1.273.978-2.943-.036-3.73-1.015-.786-2.645-.39-3.64.883zm17.644 25.775c-1.015 1.298-.998 3 .038 3.8 1.036.802 2.699.398 3.714-.9 1.015-1.297.998-2.999-.037-3.8-1.037-.8-2.7-.398-3.715.9zm10.455 12.026a2.46 3.102 37.843 0 1 3.846-.938 2.46 3.102 37.843 0 1 .04 3.96 2.46 3.102 37.843 0 1-3.847.938 2.46 3.102 37.843 0 1-.039-3.96zm11.486 10.737a2.46 3.102 37.843 0 1 3.846-.938 2.46 3.102 37.843 0 1 .039 3.96 2.46 3.102 37.843 0 1-3.846.938 2.46 3.102 37.843 0 1-.039-3.96zm11.88 9.343a2.46 3.102 37.843 0 1 3.846-.938 2.46 3.102 37.843 0 1 .038 3.96 2.46 3.102 37.843 0 1-3.846.938 2.46 3.102 37.843 0 1-.039-3.96zm13.69 7.967a2.46 3.102 37.843 0 1 3.847-.938 2.46 3.102 37.843 0 1 .038 3.96 2.46 3.102 37.843 0 1-3.846.937 2.46 3.102 37.843 0 1-.038-3.959zm15.657 8.076a2.46 3.102 37.843 0 1 3.846-.938 2.46 3.102 37.843 0 1 .039 3.96 2.46 3.102 37.843 0 1-3.846.937 2.46 3.102 37.843 0 1-.039-3.96z"/>
        <path fill="url(#linearGradient1103)" stroke="#000" stroke-linejoin="round" stroke-miterlimit="10" d="M182.391 156.915s-14.21 1.599-23.232 6.643c-3.215 1.797-4.779 6.124-6.283 8.13-1.347 1.797-4.146 1.5-3.446-2.212.724-3.838-.267-4.225 4.566-8.942 4.833-4.717 20.906-8.068 24.338-7.742 4.832.458 4.057 4.123 4.057 4.123z" transform="matrix(1.1089 0 0 1.10912 -23.913 -24.383)"/>
        <path fill="url(#linearGradient1119)" stroke="#000" stroke-linejoin="round" stroke-miterlimit="10" d="M149.873 141.695c-12.812 2.992-14.379 15.695-14.563 20.5-.184 4.805 2.479 3.229 3.315 1.681.836-1.548 6.874-15.686 15.009-20.278.702-2.185-1.836-2.352-3.761-1.903z" transform="matrix(1.1089 0 0 1.10912 -23.913 -24.383)"/>
        <path fill="url(#linearGradient1127)" stroke="#000" stroke-linejoin="round" stroke-miterlimit="10" d="M126.326 157.136c1.776-6.26 8.465-22.3 16.601-21.687 0-1.512-1.198-3.847-3.413-3.713-4.432.268-18.703 15.811-16.723 24.639.576 2.569 3.535.761 3.535.761z" transform="matrix(1.1089 0 0 1.10912 -23.913 -24.383)"/>
        <path fill="url(#linearGradient1135)" stroke="#000" stroke-miterlimit="10" d="M114.999 149.085c.874-1.403 3.669-9.881 20.888-21.969 1.325-.93-1.699-5.241-3.042-4.636-17.384 7.839-21.649 22.609-20.763 25.471.886 2.862 2.917 1.134 2.917 1.134z" transform="matrix(1.1089 0 0 1.10912 -23.913 -24.383)"/>
        <path fill="url(#linearGradient1143)" stroke="#000" stroke-miterlimit="10" d="M135.69 119.15c3.997 1.288 5.041 5.967 3.711 5.742-19.714-3.33-37.486.106-44.026 3.67-3.092 1.686-3.107-1.333-2.142-2.5 10.239-12.374 42.457-6.912 42.457-6.912z" transform="matrix(1.1089 0 0 1.10912 -23.913 -24.383)"/>
        <path fill="url(#linearGradient1151)" stroke="#000" stroke-miterlimit="10" d="M101.875 138.271c-.394-1.444 1.25-8.271 8.313-12.646 7.063-4.375 18.846-11.7 22.367-12.587 2.133-.538 4.172 4.397 2.746 5.43-1.426 1.033-20.197 8.961-30.363 20.97-2.084 1.658-2.669.278-3.063-1.167z" transform="matrix(1.1089 0 0 1.10912 -23.913 -24.383)"/>
        <path fill="url(#linearGradient1159)" stroke="#000" stroke-linejoin="round" stroke-miterlimit="10" d="M69.729 147.039c-1.388 10.98-9.197 19.037-17.438 17.992-8.242-1.039-13.797-10.785-12.409-21.768 1.389-10.982 9.197-19.037 17.436-17.99 8.241 1.037 13.8 10.783 12.411 21.766z" transform="matrix(1.1089 0 0 1.10912 -23.913 -24.383)"/>
        <path fill="#fff" d="M33.488 127.996l5.89-11.301 2.894 12.408 9.576 3.151-8.27 8.328.026 13.242-8.003-7.268-9.558 5.047 3.323-12.82-5.936-10.129z"/>
    </g>
</svg>
