<?xml version="1.0" encoding="UTF-8" standalone="no"?>
<svg
   xmlns:osb="http://www.openswatchbook.org/uri/2009/osb"
   xmlns:dc="http://purl.org/dc/elements/1.1/"
   xmlns:cc="http://creativecommons.org/ns#"
   xmlns:rdf="http://www.w3.org/1999/02/22-rdf-syntax-ns#"
   xmlns:svg="http://www.w3.org/2000/svg"
   xmlns="http://www.w3.org/2000/svg"
   xmlns:xlink="http://www.w3.org/1999/xlink"
   xmlns:sodipodi="http://sodipodi.sourceforge.net/DTD/sodipodi-0.dtd"
   xmlns:inkscape="http://www.inkscape.org/namespaces/inkscape"
   cursor="default"
   version="1.1"
   viewBox="0 0 256 256"
   id="svg4702"
   sodipodi:docname="latex_crotchless_bodysuit(original).svg"
   inkscape:version="0.92.4 (5da689c313, 2019-01-14)">
  <metadata
     id="metadata4706">
    <rdf:RDF>
      <cc:Work
         rdf:about="">
        <dc:format>image/svg+xml</dc:format>
        <dc:type
           rdf:resource="http://purl.org/dc/dcmitype/StillImage" />
        <dc:title />
      </cc:Work>
    </rdf:RDF>
  </metadata>
  <sodipodi:namedview
     pagecolor="#ffffff"
     bordercolor="#666666"
     borderopacity="1"
     objecttolerance="10"
     gridtolerance="10"
     guidetolerance="10"
     inkscape:pageopacity="0"
     inkscape:pageshadow="2"
     inkscape:window-width="1366"
     inkscape:window-height="715"
     id="namedview4704"
     showgrid="false"
     inkscape:zoom="2"
     inkscape:cx="170.22274"
     inkscape:cy="94.513835"
     inkscape:window-x="-8"
     inkscape:window-y="-8"
     inkscape:window-maximized="1"
     inkscape:current-layer="layer3"
     inkscape:snap-global="false"
     inkscape:object-paths="true" />
  <defs
     id="defs4658">
    <linearGradient
       inkscape:collect="always"
       id="innoGrad1">
      <stop
         style="stop-color:#ffffff;stop-opacity:1;"
         offset="0"
         id="stop883" />
      <stop
         style="stop-color:#ffffff;stop-opacity:0;"
         offset="1"
         id="stop885" />
    </linearGradient>
    <linearGradient
       inkscape:collect="always"
       id="linearGradient884">
      <stop
         style="stop-color:#ffffff;stop-opacity:1;"
         offset="0"
         id="stop880" />
      <stop
         style="stop-color:#ffffff;stop-opacity:0;"
         offset="1"
         id="stop882" />
    </linearGradient>
    <linearGradient
       id="linearGradient5243"
       osb:paint="solid">
      <stop
         style="stop-color:#e1fb18;stop-opacity:1;"
         offset="0"
         id="stop5241" />
    </linearGradient>
    <radialGradient
       inkscape:collect="always"
       xlink:href="#linearGradient884"
       id="radialGradient888"
       cx="131.95888"
       cy="173.84361"
       fx="131.95888"
       fy="173.84361"
       r="31.011"
       gradientTransform="matrix(2.5819627,-0.13708298,0.10089486,1.6283003,-230.44896,-77.434826)"
       gradientUnits="userSpaceOnUse" />
    <linearGradient
       inkscape:collect="always"
       xlink:href="#innoGrad1"
       id="linearGradient889"
       x1="108.07944"
       y1="88.21508"
       x2="114.17844"
       y2="86.365204"
       gradientUnits="userSpaceOnUse"
       gradientTransform="matrix(1.5683101,0,0,1.4517141,-79.030342,-65.250975)" />
    <linearGradient
       inkscape:collect="always"
       xlink:href="#innoGrad1"
       id="linearGradient150897"
       gradientUnits="userSpaceOnUse"
       gradientTransform="matrix(-1.5683101,0,0,1.4517141,334.43209,-65.324198)"
       x1="108.07944"
       y1="88.21508"
       x2="114.17844"
       y2="86.365204" />
  </defs>
  <g
     id="g1147"
     transform="matrix(2.0434266,0,0,2.1842187,-85.642841,-64.148916)" />
  <g
     inkscape:groupmode="layer"
     id="layer2"
     inkscape:label="Layer 2"
     style="display:inline" />
  <g
     inkscape:groupmode="layer"
     id="layer3"
     inkscape:label="details"
     style="display:inline">
    <rect
       style="opacity:1;fill:#ff8080;fill-opacity:1;fill-rule:nonzero;stroke:none;stroke-width:0.34631419;stroke-linecap:square;stroke-linejoin:round;stroke-miterlimit:4;stroke-dasharray:0.69262837, 1.38525672;stroke-dashoffset:0;stroke-opacity:1;paint-order:normal"
       id="rect987"
       width="2.4951661"
       height="129.05336"
       x="125.97825"
       y="76.754204" />
    <path
       style="display:inline;opacity:1;fill:#ffaaaa;fill-opacity:1;fill-rule:nonzero;stroke:#000000;stroke-width:0.30177727;stroke-linecap:square;stroke-linejoin:round;stroke-miterlimit:4;stroke-dasharray:none;stroke-dashoffset:0;stroke-opacity:1;paint-order:normal"
       d="m 124.26725,253.45938 c 6.05542,0.15429 0.45051,-11.40747 -0.17342,-12.77052 -6.73925,-12.14364 -19.01741,-23.38297 -18.61761,-24.16435 0.37087,-2.93482 1.70964,-4.82437 3.14228,-6.61255 -10.933993,-15.71866 -24.474359,-19.95584 -37.105246,-28.19941 1.087215,5.67957 17.544669,21.70642 32.074216,36.4354 12.64536,13.02061 25.78162,33.43682 20.67978,35.31143 z m 7.0951,0 c -6.05542,0.15429 -0.45051,-11.40747 0.17342,-12.77052 6.73925,-12.14364 19.01741,-23.38297 18.61761,-24.16435 -0.37087,-2.93482 -1.70964,-4.82437 -3.14228,-6.61255 10.93399,-15.71866 24.47436,-19.95584 37.10525,-28.19941 -1.08722,5.67957 -17.54467,21.70642 -32.07422,36.4354 -12.64536,13.02061 -25.78162,33.43682 -20.67978,35.31143 z"
       id="path2888"
       inkscape:connector-curvature="0"
       sodipodi:nodetypes="ccccccc" />
    <path
       style="display:inline;opacity:1;fill:#ff8080;fill-opacity:1;fill-rule:nonzero;stroke:#000000;stroke-width:0.30177727;stroke-linecap:square;stroke-linejoin:round;stroke-miterlimit:4;stroke-dasharray:none;stroke-dashoffset:0;stroke-opacity:1;paint-order:normal"
       d="m 127.8148,206.28438 c -1.76814,0.30339 -5.12048,1.43868 -7.37159,3.31075 -2.03829,2.11872 -3.60203,9.12591 -2.90139,19.35996 1.29935,8.86943 0.61329,22.10815 6.72543,24.50429 -0.52537,0.20092 -1.62467,0.22476 -2.6711,0.26491 -5.92887,-4.15465 -5.92034,-15.62657 -7.38658,-26.17789 -0.76716,-5.52059 -2.13999,-11.22525 -4.9441,-16.54238 -8.25886,-14.49384 -24.839723,-21.05233 -37.752216,-29.29147 -3.884234,-6.46726 8.697817,-31.38741 12.523991,-48.25927 0.664666,-9.29481 2.405537,-23.38983 -6.745521,-47.704322 -3.557382,-11.324417 -0.324577,-28.024576 8.254471,-49.072367 0.416214,-1.021123 0.275019,-2.701695 0.665983,-3.760898 l 0.753588,-1.016031 C 86.516947,22.458998 85.608112,12.269051 85.656165,3.5776714 85.595625,2.6676862 88.07373,2.3984498 89.163831,1.9542268 c 0.04454,10.9240182 0.416293,21.3440142 0.978108,28.4727332 1.402321,6.486289 2.995065,13.023605 11.087171,21.302441 10.58121,9.963378 14.24972,13.79431 26.57198,25.73794 m 0.0137,128.817039 c 1.76814,0.30339 5.12048,1.43868 7.37159,3.31075 2.03829,2.11872 3.60203,9.12591 2.90139,19.35996 -1.29935,8.86943 -0.61329,22.10815 -6.72543,24.50429 0.52537,0.20092 1.62467,0.22476 2.6711,0.26491 5.92887,-4.15465 5.92034,-15.62657 7.38658,-26.17789 0.76716,-5.52059 2.13999,-11.22525 4.9441,-16.54238 8.25886,-14.49384 24.83972,-21.05233 37.75222,-29.29147 3.88423,-6.46726 -8.69782,-31.38741 -12.52399,-48.25927 -0.66467,-9.29481 -2.40554,-23.38983 6.74552,-47.704322 3.55738,-11.324417 0.32457,-28.024576 -8.25447,-49.072367 -0.41622,-1.021123 -0.27502,-2.701695 -0.66599,-3.760898 l -0.75358,-1.016031 c 0.44881,-9.440664 1.35765,-19.630611 1.3096,-28.3219906 0.0605,-0.9099852 -2.41757,-1.1792216 -3.50767,-1.6234446 -0.0445,10.9240172 -0.41629,21.3440142 -0.97811,28.4727332 -1.40232,6.486289 -2.99506,13.023605 -11.08717,21.302441 -10.58121,9.963378 -14.24972,13.79431 -26.57198,25.73794"
       id="path2858-8"
       inkscape:connector-curvature="0"
       sodipodi:nodetypes="cccccsccccsccccccc" />
    <path
       style="display:inline;opacity:1;fill:#ffaaaa;fill-opacity:1;fill-rule:nonzero;stroke:#000000;stroke-width:0.30177727;stroke-linecap:square;stroke-linejoin:round;stroke-miterlimit:4;stroke-dasharray:none;stroke-dashoffset:0;stroke-opacity:1;paint-order:normal"
       d="m 89.163831,1.9542268 c 3.922438,5.693656 6.349241,31.6375852 7.508191,44.4181852 L 94.235903,42.52511 C 93.463448,32.102947 91.828626,17.941776 89.221686,7.9741904 Z m 77.301939,0 c -3.92244,5.693656 -6.34924,31.6375852 -7.50819,44.4181852 l 2.43612,-3.847302 c 0.77245,-10.422163 2.40728,-24.583334 5.01422,-34.5509196 z"
       id="path2890"
       inkscape:connector-curvature="0"
       sodipodi:nodetypes="ccccc" />
    <path
       style="display:inline;opacity:1;fill:none;fill-opacity:1;fill-rule:nonzero;stroke:#000000;stroke-width:0.30177727;stroke-linecap:square;stroke-linejoin:round;stroke-miterlimit:4;stroke-dasharray:none;stroke-dashoffset:0;stroke-opacity:1;paint-order:normal"
       d="m 81.505522,98.901749 c 8.846775,5.119391 30.341628,-9.184487 46.232648,-17.106186 m 46.38591,17.106186 c -8.84678,5.119391 -30.34163,-9.184487 -46.23265,-17.106186"
       id="path2902"
       inkscape:connector-curvature="0"
       sodipodi:nodetypes="cc" />
    <path
       style="opacity:0.561;fill:url(#radialGradient888);fill-opacity:1;fill-rule:nonzero;stroke:none;stroke-width:0.15088864;stroke-linecap:square;stroke-linejoin:round;stroke-miterlimit:4;stroke-dasharray:none;stroke-dashoffset:0;stroke-opacity:1;paint-order:normal"
       d="m 81.847147,182.05494 c 4.075176,-0.17165 5.1548,0.84273 6.677724,1.58946 2.063017,1.21043 4.054771,2.7363 4.769795,4.94502 0.785253,2.42564 -0.375328,3.57633 -0.667771,4.32688 -0.387231,0.99384 -8.508788,-3.87119 -12.306074,-6.62278 -2.169522,-1.57208 -1.264387,-2.44065 -0.953972,-3.17893 0.521228,-1.2397 1.613258,-1.02313 2.480298,-1.05965 z m 91.935303,0 c -4.07517,-0.17165 -5.1548,0.84273 -6.67772,1.58946 -2.06302,1.21043 -4.05477,2.7363 -4.76979,4.94502 -0.78526,2.42564 0.37532,3.57633 0.66777,4.32688 0.38723,0.99384 8.50878,-3.87119 12.30607,-6.62278 2.16952,-1.57208 1.26439,-2.44065 0.95397,-3.17893 -0.52123,-1.2397 -1.61325,-1.02313 -2.4803,-1.05965 z"
       id="path831"
       inkscape:connector-curvature="0"
       sodipodi:nodetypes="scsssss" />
    <path
       style="display:inline;opacity:1;fill:none;fill-opacity:1;fill-rule:nonzero;stroke:#ff2a2a;stroke-width:0.30177727;stroke-linecap:square;stroke-linejoin:round;stroke-miterlimit:4;stroke-dasharray:0.30177726, 0.60355452;stroke-dashoffset:0;stroke-opacity:1;paint-order:normal"
       d="m 70.943644,175.93145 c -0.0218,7.4109 20.846527,11.31281 35.215936,26.2416 5.41915,5.75502 6.43537,12.55673 8.18289,19.42684 1.20491,8.07872 1.44184,20.50863 3.35861,25.47564 1.26823,3.52483 2.44748,5.10091 4.24512,6.57863 m 62.73976,-77.72271 c 0.0218,7.4109 -20.84653,11.31281 -35.21594,26.2416 -5.41915,5.75502 -6.43537,12.55673 -8.18289,19.42684 -1.20491,8.07872 -1.44184,20.50863 -3.35861,25.47564 -1.26823,3.52483 -2.44748,5.10091 -4.24512,6.57863"
       id="path2892"
       inkscape:connector-curvature="0"
       sodipodi:nodetypes="ccccc" />
    <path
       style="display:inline;opacity:1;fill:none;fill-opacity:1;fill-rule:nonzero;stroke:#ff2a2a;stroke-width:0.30177727;stroke-linecap:square;stroke-linejoin:round;stroke-miterlimit:4;stroke-dasharray:0.30177726, 0.60355452;stroke-dashoffset:0;stroke-opacity:1;paint-order:normal"
       d="m 123.72666,253.82277 c -4.2489,-1.82839 -5.09177,-9.57067 -6.92743,-25.29442 -1.30316,-11.1625 -1.53753,-22.35349 11.00464,-23.68017 m 4.09907,48.97459 c 4.2489,-1.82839 5.09177,-9.57067 6.92743,-25.29442 1.30316,-11.1625 1.53753,-22.35349 -11.00464,-23.68017"
       id="path2894"
       inkscape:connector-curvature="0"
       sodipodi:nodetypes="csc" />
    <path
       style="display:inline;opacity:0.626;fill:#ffffff;stroke:none;stroke-width:0.60355455;stroke-linecap:butt;stroke-linejoin:miter;stroke-miterlimit:4;stroke-dasharray:none;stroke-opacity:1"
       d="m 89.018214,71.545892 c 0.69335,-0.816072 5.470626,-1.813073 5.847099,-1.464586 0.29732,0.275213 0.561251,0.431217 0.858556,0.70643 0.19033,0.176169 -0.190785,0.87759 -0.190785,1.147949 0,0.606827 0.418237,0.774286 0.667771,1.236254 0.349152,0.646374 -0.424448,1.598409 -0.09535,2.207594 0.120917,0.223935 0.45401,0.50856 0.572386,0.618126 0.08516,0.07883 0.570489,2.034477 0.476971,2.207594 -0.504886,0.934704 -2.887134,-0.506447 -3.338854,-0.08831 -0.73949,0.684515 -0.690637,2.140453 -1.335542,2.737413 -0.03717,0.03441 -0.32337,0 -0.381585,0 -1.238103,0 -0.816478,-3.404891 -1.144757,-3.708755 -0.249,-0.230499 -0.350188,-0.5002 -0.858556,-0.264912 -0.14993,0.06935 -0.511896,1.027329 -0.66777,0.883039 -0.964558,-0.931374 -0.99089,-5.533643 -0.40958,-6.217839 z m 77.593176,0 c -0.69335,-0.816072 -5.47063,-1.813073 -5.8471,-1.464586 -0.29732,0.275213 -0.56125,0.431217 -0.85856,0.70643 -0.19033,0.176169 0.19079,0.87759 0.19079,1.147949 0,0.606827 -0.41824,0.774286 -0.66777,1.236254 -0.34916,0.646374 0.42445,1.598409 0.0953,2.207594 -0.12092,0.223935 -0.45401,0.50856 -0.57239,0.618126 -0.0852,0.07883 -0.57049,2.034477 -0.47697,2.207594 0.50489,0.934704 2.88713,-0.506447 3.33885,-0.08831 0.73949,0.684515 0.69064,2.140453 1.33555,2.737413 0.0372,0.03441 0.32337,0 0.38158,0 1.2381,0 0.81648,-3.404891 1.14476,-3.708755 0.249,-0.230499 0.35019,-0.5002 0.85855,-0.264912 0.14993,0.06935 0.5119,1.027329 0.66777,0.883039 0.96456,-0.931374 0.99089,-5.533643 0.40958,-6.217839 z"
       id="path2904"
       inkscape:connector-curvature="0"
       sodipodi:nodetypes="sccsccccccscccs" />
    <path
       style="opacity:0.493;fill:#ffffff;stroke:none;stroke-width:1.50888634px;stroke-linecap:butt;stroke-linejoin:miter;stroke-opacity:1"
       d="m 106.98355,86.498899 c -0.28052,-0.519322 -0.23747,-1.213052 -0.51649,-1.7295 -0.47631,-0.881814 -1.21655,-1.899001 -1.71713,-2.825718 -0.32262,-0.597264 -0.54585,-1.250884 -0.76317,-1.854376 -0.16393,-0.455228 -0.30082,-4.211501 -0.0954,-4.591792 0.4076,-0.754615 0.57454,-1.240243 0.95397,-1.942683 0.44211,-0.818491 0.47719,-2.296104 1.14474,-2.914026 0.43493,-0.402604 1.26036,-0.706433 1.14476,-0.706433 -0.16765,0 0.67508,-0.08159 1.14476,0.353216 0.64638,0.598324 0.96151,2.383314 1.73348,2.961323 1.32628,0.993058 4.32789,5.653547 4.3044,5.905637 -0.0745,0.799328 2.50627,3.710566 2.35696,3.84877 -0.20313,0.188026 -1.62847,-1.065878 -1.71714,-1.147943 -0.50755,-0.469819 -0.95565,-1.944237 -1.14474,-2.119285 -1.11651,-1.03349 -1.1294,-2.347924 -2.14641,-3.289317 -0.24553,-0.227281 -0.6255,-0.865974 -0.81088,-1.037566 -0.25831,-0.239112 -0.43916,-0.784954 -0.78361,-1.103794 -0.62334,-0.577013 -0.96538,-1.309913 -1.60128,-1.89854 -0.0678,-0.06271 -0.32236,-0.672942 -0.38158,-0.618125 -0.071,0.454677 -0.0753,0.842546 -0.0954,1.147957 0,1.755892 0.59732,2.867469 1.26808,4.109266 0.49695,1.812601 1.41536,3.202792 2.45236,4.721096 0.0461,0.04268 0.65922,1.493262 1.04935,1.854376 0.0373,0.564964 -1.69779,1.008346 -1.71708,0.618125 -0.16526,0.152982 0.0179,0.01655 0,0 -0.27558,-0.25508 -0.0943,-0.70427 -0.28618,-1.059635 -0.49507,-0.433162 -0.61268,-0.950437 -0.85858,-1.412866 -0.76627,-0.709308 -0.86514,-1.948752 -1.71712,-2.737396 -0.34478,-0.319145 -0.27861,-1.229259 -0.57237,-1.50118 -0.0917,-0.08492 -0.16375,-0.239866 -0.2862,-0.353216 -0.11465,-0.10612 -0.47697,0.06184 -0.47697,-0.08826 0,-0.0029 -0.1938,0.532605 -0.28619,0.618125 -0.21549,0.199466 0,0.456869 0,0.883054 0.76277,1.235569 1.48046,2.453833 1.81248,3.708738 0.81162,1.492943 1.33391,3.145168 1.90793,4.591801 0.16911,0.156538 1.57788,1.541764 1.33554,1.766083 -0.48936,0.452978 -0.83617,-0.685703 -1.14476,-0.971342 -0.3206,-0.296789 -1.75183,-2.444048 -1.75183,-2.444048 -0.36874,-0.02366 -1.49162,-3.811316 -1.49162,-4.090437 0,-0.500667 -1.02133,-2.093328 -1.24016,-2.295886 -0.099,-0.0916 -0.33634,-1.013229 -0.38158,-0.971347 -0.12703,0.117588 -0.58821,2.281229 -0.38159,2.472492 1.51955,2.848815 2.23663,5.770419 3.33887,7.859043 -1.18421,-0.117008 -1.20509,-0.913854 -1.58231,-1.714387 z m 41.6625,0 c 0.28052,-0.519322 0.23747,-1.213052 0.51649,-1.7295 0.47631,-0.881814 1.21656,-1.899001 1.71713,-2.825718 0.32262,-0.597264 0.54585,-1.250884 0.76317,-1.854376 0.16394,-0.455228 0.30082,-4.211501 0.0954,-4.591792 -0.4076,-0.754615 -0.57453,-1.240243 -0.95397,-1.942683 -0.44211,-0.818491 -0.47719,-2.296104 -1.14474,-2.914026 -0.43493,-0.402604 -1.26036,-0.706433 -1.14476,-0.706433 0.16765,0 -0.67508,-0.08159 -1.14476,0.353216 -0.64637,0.598324 -0.96151,2.383314 -1.73348,2.961323 -1.32628,0.993058 -4.32789,5.653547 -4.3044,5.905637 0.0745,0.799328 -2.50627,3.710566 -2.35696,3.84877 0.20313,0.188026 1.62847,-1.065878 1.71714,-1.147943 0.50755,-0.469819 0.95565,-1.944237 1.14474,-2.119285 1.11651,-1.03349 1.1294,-2.347924 2.14641,-3.289317 0.24553,-0.227281 0.6255,-0.865974 0.81088,-1.037566 0.25831,-0.239112 0.43917,-0.784954 0.78361,-1.103794 0.62334,-0.577013 0.96538,-1.309913 1.60128,-1.89854 0.0678,-0.06271 0.32237,-0.672942 0.38159,-0.618125 0.071,0.454677 0.0753,0.842546 0.0953,1.147957 0,1.755892 -0.59733,2.867469 -1.26809,4.109266 -0.49695,1.812601 -1.41536,3.202792 -2.45236,4.721096 -0.0461,0.04268 -0.65922,1.493262 -1.04935,1.854376 -0.0373,0.564964 1.69779,1.008346 1.71708,0.618125 0.16526,0.152982 -0.0179,0.01655 0,0 0.27558,-0.25508 0.0943,-0.70427 0.28618,-1.059635 0.49507,-0.433162 0.61268,-0.950437 0.85858,-1.412866 0.76627,-0.709308 0.86514,-1.948752 1.71712,-2.737396 0.34478,-0.319145 0.27861,-1.229259 0.57237,-1.50118 0.0917,-0.08492 0.16375,-0.239866 0.2862,-0.353216 0.11465,-0.10612 0.47697,0.06184 0.47697,-0.08826 0,-0.0029 0.1938,0.532605 0.28619,0.618125 0.21549,0.199466 0,0.456869 0,0.883054 -0.76276,1.235569 -1.48045,2.453833 -1.81248,3.708738 -0.81162,1.492943 -1.33391,3.145168 -1.90793,4.591801 -0.16911,0.156538 -1.57788,1.541764 -1.33554,1.766083 0.48936,0.452978 0.83617,-0.685703 1.14476,-0.971342 0.32061,-0.296789 1.75183,-2.444048 1.75183,-2.444048 0.36874,-0.02366 1.49162,-3.811316 1.49162,-4.090437 0,-0.500667 1.02133,-2.093328 1.24016,-2.295886 0.099,-0.0916 0.33634,-1.013229 0.38158,-0.971347 0.12704,0.117588 0.58821,2.281229 0.38159,2.472492 -1.51955,2.848815 -2.23663,5.770419 -3.33887,7.859043 1.18421,-0.117008 1.20509,-0.913854 1.58231,-1.714387 z"
       id="path2908"
       inkscape:connector-curvature="0"
       sodipodi:nodetypes="ccsccccscsssccsscscccccccccssssscccscssssccc" />
    <path
       style="opacity:0.496;fill:#ffffff;stroke:none;stroke-width:1.50888634px;stroke-linecap:butt;stroke-linejoin:miter;stroke-opacity:1"
       d="m 108.6466,68.978298 c 0.0499,0.838687 1.24041,0.967895 1.45522,1.728904 0.99955,1.317666 2.11515,2.56398 2.94568,3.985183 0.47849,0.764446 1.02183,1.495587 1.60676,2.19026 0.40168,0.775488 0.33498,1.731356 0.97545,2.4044 0.52565,0.725363 0.92047,1.543157 1.03133,2.414926 0.30913,0.644242 1.19584,-0.0073 0.66355,-0.492654 -0.30063,-0.750231 -0.78051,-1.427819 -1.07647,-2.179182 -0.42666,-0.704071 -0.80584,-1.4331 -1.08351,-2.19817 -0.65948,-1.340732 -1.57768,-2.552064 -2.4328,-3.788153 -0.35636,-0.561674 -1.33033,-1.205912 -0.97241,-1.883126 0.76198,0.05643 0.9893,1.006605 1.72553,1.221304 0.69495,0.48108 1.27541,1.130142 2.16504,1.305937 0.43252,0.155461 0.92693,0.399364 0.43796,0.742656 -0.24473,0.247377 -0.39325,0.320366 -0.63535,0.506042 -0.49635,0.447505 -0.0394,1.07125 0.2424,1.503026 0.74167,1.192943 1.02378,2.585214 1.83734,3.746455 0.48627,0.51485 0.20333,1.075836 0.99772,1.37171 0.52743,-0.170359 0.39944,-0.878824 0.3054,-1.168253 -0.52577,-0.182117 -0.73801,-0.688475 -0.91694,-1.142818 -0.20112,-0.655768 -0.72215,-1.154728 -1.00769,-1.774227 -0.27957,-0.566981 -0.62172,-1.109604 -0.92869,-1.658974 -0.0298,-0.736084 1.186,-0.407886 1.03698,0.228028 0.0339,0.406929 0.42486,1.472647 0.90713,0.780657 0.28512,-0.604909 -0.73706,-1.314298 -0.43533,-1.723953 0.75597,0.110098 0.89069,-0.693597 0.26481,-0.970485 -0.99944,-1.007654 -2.08913,-1.933942 -3.10352,-2.928267 -0.67537,-0.391561 -1.74154,0.355327 -2.18437,-0.484501 -0.61749,-0.398468 -1.58605,-0.338733 -1.87311,-1.121001 -0.34887,-0.531541 -0.79609,-1.223687 -1.56691,-1.184869 -0.2785,0.03237 -0.535,0.311981 -0.3812,0.569145 z m 38.3364,0 c -0.0499,0.838687 -1.24041,0.967895 -1.45522,1.728904 -0.99955,1.317666 -2.11515,2.56398 -2.94568,3.985183 -0.47849,0.764446 -1.02183,1.495587 -1.60676,2.19026 -0.40168,0.775488 -0.33498,1.731356 -0.97545,2.4044 -0.52565,0.725363 -0.92047,1.543157 -1.03133,2.414926 -0.30913,0.644242 -1.19584,-0.0073 -0.66355,-0.492654 0.30063,-0.750231 0.78051,-1.427819 1.07647,-2.179182 0.42666,-0.704071 0.80584,-1.4331 1.08351,-2.19817 0.65948,-1.340732 1.57768,-2.552064 2.4328,-3.788153 0.35636,-0.561674 1.33033,-1.205912 0.97241,-1.883126 -0.76198,0.05643 -0.9893,1.006605 -1.72553,1.221304 -0.69495,0.48108 -1.27541,1.130142 -2.16504,1.305937 -0.43252,0.155461 -0.92693,0.399364 -0.43796,0.742656 0.24473,0.247377 0.39325,0.320366 0.63535,0.506042 0.49635,0.447505 0.0394,1.07125 -0.2424,1.503026 -0.74167,1.192943 -1.02378,2.585214 -1.83734,3.746455 -0.48627,0.51485 -0.20333,1.075836 -0.99772,1.37171 -0.52743,-0.170359 -0.39944,-0.878824 -0.3054,-1.168253 0.52577,-0.182117 0.73801,-0.688475 0.91694,-1.142818 0.20112,-0.655768 0.72215,-1.154728 1.00769,-1.774227 0.27957,-0.566981 0.62172,-1.109604 0.92869,-1.658974 0.0298,-0.736084 -1.186,-0.407886 -1.03698,0.228028 -0.0339,0.406929 -0.42486,1.472647 -0.90713,0.780657 -0.28512,-0.604909 0.73706,-1.314298 0.43533,-1.723953 -0.75597,0.110098 -0.89069,-0.693597 -0.26481,-0.970485 0.99944,-1.007654 2.08913,-1.933942 3.10352,-2.928267 0.67537,-0.391561 1.74154,0.355327 2.18437,-0.484501 0.61749,-0.398468 1.58605,-0.338733 1.87311,-1.121001 0.34887,-0.531541 0.79609,-1.223687 1.56692,-1.184869 0.2785,0.03237 0.53499,0.311981 0.38119,0.569145 z"
       id="path2910"
       inkscape:connector-curvature="0"
       sodipodi:nodetypes="ccccccccccccccccccccccccccccccc" />
    <path
       style="opacity:0.38848919;fill:#ffffff;fill-opacity:1;fill-rule:nonzero;stroke:none;stroke-width:0.15088864;stroke-linecap:square;stroke-linejoin:round;stroke-miterlimit:4;stroke-dasharray:none;stroke-dashoffset:0;stroke-opacity:1;paint-order:normal"
       d="m 99.585127,95.613079 c 0.814593,-0.469498 1.437933,-0.895591 2.170243,-1.288831 0.46529,-0.24984 0.96081,-0.279354 1.42453,-0.528366 0.40525,-0.217627 1.96707,-1.585141 2.37351,-0.69855 0.006,0.01306 -8e-4,0.15166 -0.011,0.16008 -0.19932,0.162824 -0.66649,0.0302 -0.84523,0.176166 -0.60014,0.490258 -4.62198,2.693757 -5.112264,2.179501 z m 56.459343,0 c -0.81459,-0.469498 -1.43793,-0.895591 -2.17024,-1.288831 -0.46528,-0.24984 -0.96081,-0.279354 -1.42453,-0.528366 -0.40525,-0.217627 -1.96706,-1.585141 -2.37351,-0.69855 -0.006,0.01306 8e-4,0.15166 0.011,0.16008 0.19932,0.162824 0.66649,0.0302 0.84523,0.176166 0.60014,0.490258 4.62198,2.693757 5.11227,2.179501 z"
       id="path918"
       inkscape:connector-curvature="0" />
    <path
       style="opacity:0.38848919;fill:#ffffff;fill-opacity:1;fill-rule:nonzero;stroke:none;stroke-width:0.15088864;stroke-linecap:square;stroke-linejoin:round;stroke-miterlimit:4;stroke-dasharray:none;stroke-dashoffset:0;stroke-opacity:1;paint-order:normal"
       d="m 110.98023,63.815489 c 0.79564,-0.69227 0.69642,0.644654 0,0 z m 33.66914,0 c -0.79564,-0.69227 -0.69642,0.644654 0,0 z"
       id="path947"
       inkscape:connector-curvature="0" />
    <path
       style="opacity:0.38848919;fill:#ffffff;fill-opacity:1;fill-rule:nonzero;stroke:none;stroke-width:0.15088864;stroke-linecap:square;stroke-linejoin:round;stroke-miterlimit:4;stroke-dasharray:none;stroke-dashoffset:0;stroke-opacity:1;paint-order:normal"
       d="m 111.8624,65.085739 c 0.67287,-0.479609 0.47894,0.664982 0,0 z m 31.9048,0 c -0.67287,-0.479609 -0.47894,0.664982 0,0 z"
       id="path949"
       inkscape:connector-curvature="0" />
    <path
       style="opacity:0.38848919;fill:#ffffff;fill-opacity:1;fill-rule:nonzero;stroke:none;stroke-width:0.15088864;stroke-linecap:square;stroke-linejoin:round;stroke-miterlimit:4;stroke-dasharray:none;stroke-dashoffset:0;stroke-opacity:1;paint-order:normal"
       d="m 112.69557,66.197207 c 0.59702,-0.958782 0.32368,0.503764 0.26955,0.453661 -0.13237,-0.122467 -0.19273,-0.382562 -0.26955,-0.453661 z m 30.23846,0 c -0.59702,-0.958782 -0.32368,0.503764 -0.26955,0.453661 0.13237,-0.122467 0.19273,-0.382562 0.26955,-0.453661 z"
       id="path951"
       inkscape:connector-curvature="0" />
    <path
       style="opacity:0.38848919;fill:#ffffff;fill-opacity:1;fill-rule:nonzero;stroke:none;stroke-width:0.15088864;stroke-linecap:square;stroke-linejoin:round;stroke-miterlimit:4;stroke-dasharray:none;stroke-dashoffset:0;stroke-opacity:1;paint-order:normal"
       d="m 113.30818,66.855015 c 0.12876,-0.201421 0.6007,-0.03432 0.61263,-0.04537 1.40094,-1.29678 -0.1975,1.623689 -0.44109,0.04537 m 28.8417,0 c -0.12876,-0.201421 -0.6007,-0.03432 -0.61263,-0.04537 -1.40094,-1.29678 0.1975,1.623689 0.44109,0.04537"
       id="path953"
       inkscape:connector-curvature="0" />
    <path
       style="opacity:0.38848919;fill:#ffffff;fill-opacity:1;fill-rule:nonzero;stroke:none;stroke-width:0.15088864;stroke-linecap:square;stroke-linejoin:round;stroke-miterlimit:4;stroke-dasharray:none;stroke-dashoffset:0;stroke-opacity:1;paint-order:normal"
       d="m 114.3864,68.102582 c -0.27984,-0.633726 0.40566,-0.103304 0.58811,-0.272196 0.11825,-0.109474 -0.0353,-0.284827 0.098,-0.408295 0.54002,-0.499867 -0.1159,1.632381 -0.58811,0.612442 m 26.7588,0.06805 c 0.27984,-0.633726 -0.40566,-0.103304 -0.58811,-0.272196 -0.11825,-0.109474 0.0353,-0.284827 -0.098,-0.408295 -0.54002,-0.499867 0.1159,1.632381 0.58811,0.612442"
       id="path955"
       inkscape:connector-curvature="0" />
    <path
       style="opacity:0.38848919;fill:#ffffff;fill-opacity:1;fill-rule:nonzero;stroke:none;stroke-width:0.15088864;stroke-linecap:square;stroke-linejoin:round;stroke-miterlimit:4;stroke-dasharray:none;stroke-dashoffset:0;stroke-opacity:1;paint-order:normal"
       d="m 116.24876,69.894541 c -0.0449,-0.19665 0.13409,-0.204147 0.31858,-0.204147 0.67816,0 -0.0427,1.087797 -0.34307,0.06806 m 23.15657,0.136087 c 0.0449,-0.19665 -0.13409,-0.204147 -0.31858,-0.204147 -0.67816,0 0.0427,1.087797 0.34307,0.06806"
       id="path957"
       inkscape:connector-curvature="0" />
    <path
       style="opacity:0.38848919;fill:#ffffff;fill-opacity:1;fill-rule:nonzero;stroke:none;stroke-width:0.15088864;stroke-linecap:square;stroke-linejoin:round;stroke-miterlimit:4;stroke-dasharray:none;stroke-dashoffset:0;stroke-opacity:1;paint-order:normal"
       d="m 114.41091,65.085739 c 0.19748,1.344956 0.90661,-0.359661 0,0 z m 26.80778,0 c -0.19748,1.344956 -0.90661,-0.359661 0,0 z"
       id="path959"
       inkscape:connector-curvature="0" />
    <path
       style="opacity:0.38848919;fill:#ffffff;fill-opacity:1;fill-rule:nonzero;stroke:none;stroke-width:0.15088864;stroke-linecap:square;stroke-linejoin:round;stroke-miterlimit:4;stroke-dasharray:none;stroke-dashoffset:0;stroke-opacity:1;paint-order:normal"
       d="m 115.21956,65.630131 c -0.28488,1.181514 1.53825,0.94925 0,0 z m 25.19048,0 c 0.28488,1.181514 -1.53825,0.94925 0,0 z"
       id="path961"
       inkscape:connector-curvature="0" />
    <path
       style="opacity:0.38848919;fill:#ffffff;fill-opacity:1;fill-rule:nonzero;stroke:none;stroke-width:0.15088864;stroke-linecap:square;stroke-linejoin:round;stroke-miterlimit:4;stroke-dasharray:none;stroke-dashoffset:0;stroke-opacity:1;paint-order:normal"
       d="m 122.54652,73.433095 c -0.63958,-1.005934 -1.98747,-1.591396 -2.62203,-2.472451 -0.28868,-0.400833 -2.96555,-3.265914 -2.89157,-3.334406 0.22617,-0.209338 1.11375,0.872164 1.24975,0.998054 1.70967,1.582563 3.05071,3.14147 4.90097,4.854169 0.16885,0.156288 1.6496,1.376471 1.42128,1.587812 -0.11009,0.101867 -1.96783,-1.595695 -2.13192,-1.769277 m 10.61008,0.136099 c 0.63958,-1.005934 1.98747,-1.591396 2.62203,-2.472451 0.28868,-0.400833 2.96555,-3.265914 2.89157,-3.334406 -0.22617,-0.209338 -1.11375,0.872164 -1.24975,0.998054 -1.70967,1.582563 -3.05071,3.14147 -4.90097,4.854169 -0.16885,0.156288 -1.6496,1.376471 -1.42128,1.587812 0.11009,0.101867 1.96783,-1.595695 2.13192,-1.769277"
       id="path963"
       inkscape:connector-curvature="0" />
    <path
       style="opacity:0.38848919;fill:#ffffff;fill-opacity:1;fill-rule:nonzero;stroke:none;stroke-width:0.15088864;stroke-linecap:square;stroke-linejoin:round;stroke-miterlimit:4;stroke-dasharray:none;stroke-dashoffset:0;stroke-opacity:1;paint-order:normal"
       d="m 118.33168,72.140162 c -0.32865,-0.861617 0.53814,-0.271298 0.68614,-0.408295 0.25124,-0.23257 0.3139,-0.145811 0.19604,0.181464 -0.0403,0.111855 -0.34826,0.09554 -0.41659,0.158782 -0.31758,0.293972 0.22232,0.340951 -0.46559,0.06806 z m 18.96624,0 c 0.32865,-0.861617 -0.53814,-0.271298 -0.68614,-0.408295 -0.25124,-0.23257 -0.3139,-0.145811 -0.19604,0.181464 0.0403,0.111855 0.34826,0.09554 0.41659,0.158782 0.31758,0.293972 -0.22232,0.340951 0.46559,0.06806 z"
       id="path965"
       inkscape:connector-curvature="0" />
    <path
       style="opacity:0.38848919;fill:#ffffff;fill-opacity:1;fill-rule:nonzero;stroke:none;stroke-width:0.15088864;stroke-linecap:square;stroke-linejoin:round;stroke-miterlimit:4;stroke-dasharray:none;stroke-dashoffset:0;stroke-opacity:1;paint-order:normal"
       d="m 119.85098,72.866019 c 0.83987,-0.240811 0.2619,0.363624 0,0 z m 15.92764,0 c -0.83987,-0.240811 -0.2619,0.363624 0,0 z"
       id="path967"
       inkscape:connector-curvature="0" />
    <path
       style="opacity:0.38848919;fill:#ffffff;fill-opacity:1;fill-rule:nonzero;stroke:none;stroke-width:0.15088864;stroke-linecap:square;stroke-linejoin:round;stroke-miterlimit:4;stroke-dasharray:none;stroke-dashoffset:0;stroke-opacity:1;paint-order:normal"
       d="m 121.81137,74.771394 c -0.43519,-0.653196 0.22689,-0.709308 -0.0489,-0.113423 m 12.05576,0.113423 c 0.43519,-0.653196 -0.22689,-0.709308 0.0489,-0.113423"
       id="path969"
       inkscape:connector-curvature="0" />
    <path
       style="opacity:0.38848919;fill:#ffffff;fill-opacity:1;fill-rule:nonzero;stroke:none;stroke-width:0.15088864;stroke-linecap:square;stroke-linejoin:round;stroke-miterlimit:4;stroke-dasharray:none;stroke-dashoffset:0;stroke-opacity:1;paint-order:normal"
       d="m 120.95369,73.591876 c -0.50786,-0.301765 -0.41597,0.256711 0,0 z m 13.72222,0 c 0.50786,-0.301765 0.41597,0.256711 0,0 z"
       id="path971"
       inkscape:connector-curvature="0" />
    <path
       style="opacity:0.38848919;fill:#ffffff;fill-opacity:1;fill-rule:nonzero;stroke:none;stroke-width:0.15088864;stroke-linecap:square;stroke-linejoin:round;stroke-miterlimit:4;stroke-dasharray:none;stroke-dashoffset:0;stroke-opacity:1;paint-order:normal"
       d="m 88.197768,30.800136 c 0.05066,-0.01543 1.192088,-0.763376 0.987675,-0.384943 -0.06289,0.116558 -0.267225,0.05487 -0.34655,0.128317 -0.181986,0.168455 -0.14005,0.555131 -0.519832,0.320786 m 79.112769,-0.06416 c -0.0507,-0.01543 -1.19208,-0.763376 -0.98767,-0.384943 0.0629,0.116558 0.26722,0.05487 0.34655,0.128317 0.18198,0.168455 0.14005,0.555131 0.51983,0.320786"
       id="path973"
       inkscape:connector-curvature="0" />
    <path
       style="opacity:0.38848919;fill:#ffffff;fill-opacity:1;fill-rule:nonzero;stroke:none;stroke-width:0.15088864;stroke-linecap:square;stroke-linejoin:round;stroke-miterlimit:4;stroke-dasharray:none;stroke-dashoffset:0;stroke-opacity:1;paint-order:normal"
       d="m 99.374032,175.76357 c -0.392109,-0.10336 -0.913384,0.0491 -1.351538,-0.0321 -1.26503,-0.23421 -2.984949,0.004 -2.703108,-0.25664 0.184104,-0.17041 5.024994,0.0102 5.024994,0.0962 0,0.3062 -0.6663,0.0719 -0.970348,0.19247 z m 56.881538,0 c 0.39211,-0.10336 0.91338,0.0491 1.35154,-0.0321 1.26503,-0.23421 2.98495,0.004 2.70311,-0.25664 -0.18411,-0.17041 -5.025,0.0102 -5.025,0.0962 0,0.3062 0.6663,0.0719 0.97035,0.19247 z"
       id="path977"
       inkscape:connector-curvature="0" />
    <path
       style="opacity:0.38848919;fill:#ffffff;fill-opacity:1;fill-rule:nonzero;stroke:none;stroke-width:0.15088864;stroke-linecap:square;stroke-linejoin:round;stroke-miterlimit:4;stroke-dasharray:none;stroke-dashoffset:0;stroke-opacity:1;paint-order:normal"
       d="m 95.804558,175.25032 c -0.199802,0.007 -1.83671,0.0361 -1.83671,-0.22455 0,-0.25664 0.554476,0 0.831721,0 0.243685,0 0.727759,-0.28972 0.727759,-0.0642 0,0.41851 -2.404862,-0.65053 -0.797078,-0.35287 0.412309,0.0764 0.806065,0.0962 1.247591,0.0962 0.115584,0 0.346549,-0.10699 0.346549,0 0,0.23532 -2.165067,-0.64157 -2.113956,-0.64157 0.358484,0 0.690621,0.0642 1.039648,0.0642 1.974032,0 -0.500448,-0.56327 -0.31189,-0.73781 0.04046,-0.0374 1.003546,0.22455 1.178272,0.22455 1.010337,0 1.778181,0.25662 2.737752,0.25662 0.118093,0 1.025439,-0.15461 1.039648,-0.12833 0.224296,0.41523 -1.810159,0.0245 -1.455517,0.35285 0.492622,0.456 1.606313,0.32079 1.594143,0.32079 -0.512276,0 -1.05902,0.0962 -1.594143,0.0962 h -0.415853 c 0.183084,0 1.282234,0.23202 1.282234,0.32078 0,0.091 -3.23867,0.25565 -3.50017,0.41702 z m 64.020482,0 c 0.19981,0.007 1.83671,0.0361 1.83671,-0.22455 0,-0.25664 -0.55447,0 -0.83172,0 -0.24368,0 -0.72776,-0.28972 -0.72776,-0.0642 0,0.41851 2.40487,-0.65053 0.79708,-0.35287 -0.41231,0.0764 -0.80606,0.0962 -1.24759,0.0962 -0.11558,0 -0.34655,-0.10699 -0.34655,0 0,0.23532 2.16507,-0.64157 2.11396,-0.64157 -0.35849,0 -0.69062,0.0642 -1.03965,0.0642 -1.97403,0 0.50045,-0.56327 0.31189,-0.73781 -0.0405,-0.0374 -1.00355,0.22455 -1.17827,0.22455 -1.01034,0 -1.77818,0.25662 -2.73775,0.25662 -0.1181,0 -1.02544,-0.15461 -1.03965,-0.12833 -0.2243,0.41523 1.81016,0.0245 1.45551,0.35285 -0.49262,0.456 -1.6063,0.32079 -1.59414,0.32079 0.51228,0 1.05902,0.0962 1.59414,0.0962 h 0.41586 c -0.18309,0 -1.28224,0.23202 -1.28224,0.32078 0,0.091 3.23867,0.25565 3.50017,0.41702 z"
       id="path979"
       inkscape:connector-curvature="0" />
    <path
       style="opacity:0.38848919;fill:#ffffff;fill-opacity:1;fill-rule:nonzero;stroke:none;stroke-width:0.15088864;stroke-linecap:square;stroke-linejoin:round;stroke-miterlimit:4;stroke-dasharray:none;stroke-dashoffset:0;stroke-opacity:1;paint-order:normal"
       d="m 97.502662,172.45947 c 0.06979,0.0195 -3.343904,-0.48117 -3.257584,-0.48117 1.200745,0 2.402949,0.19247 3.604133,0.19247 0.114801,0 0.585795,-0.0672 0.658455,0 0.01568,0.0145 -0.704328,0.30381 -0.797078,0.35286 m 60.416352,-0.0642 c -0.0698,0.0195 3.3439,-0.48117 3.25758,-0.48117 -1.20074,0 -2.40295,0.19247 -3.60413,0.19247 -0.1148,0 -0.58579,-0.0672 -0.65845,0 -0.0157,0.0145 0.70432,0.30381 0.79707,0.35286"
       id="path981"
       inkscape:connector-curvature="0" />
    <path
       style="opacity:0.38848919;fill:#ffffff;fill-opacity:1;fill-rule:nonzero;stroke:none;stroke-width:0.15088864;stroke-linecap:square;stroke-linejoin:round;stroke-miterlimit:4;stroke-dasharray:none;stroke-dashoffset:0;stroke-opacity:1;paint-order:normal"
       d="m 95.423365,171.01593 c -0.210687,-0.16387 4.511699,0.42309 4.12395,0.0642 -0.390855,-0.36181 -1.471232,0.0176 -1.836727,-0.32078 -0.209385,-0.19383 1.30794,-0.42532 1.247591,-0.48119 -0.333078,-0.3083 -0.891051,-0.0756 -1.282235,-0.25663 -0.06446,-0.0298 -0.440162,-0.2662 -0.485172,-0.22455 -0.06571,0.061 0.398962,0.43267 0.346549,0.48118 -0.464172,0.42967 -1.576935,0.24071 -2.113956,0.73781 z m 64.782875,0 c 0.21068,-0.16387 -4.5117,0.42309 -4.12395,0.0642 0.39085,-0.36181 1.47123,0.0176 1.83672,-0.32078 0.20939,-0.19383 -1.30794,-0.42532 -1.24759,-0.48119 0.33308,-0.3083 0.89105,-0.0756 1.28224,-0.25663 0.0645,-0.0298 0.44016,-0.2662 0.48517,-0.22455 0.0657,0.061 -0.39896,0.43267 -0.34655,0.48118 0.46417,0.42967 1.57694,0.24071 2.11396,0.73781 z"
       id="path983"
       inkscape:connector-curvature="0" />
    <path
       style="opacity:0.38848919;fill:#ffffff;fill-opacity:1;fill-rule:nonzero;stroke:none;stroke-width:0.15088864;stroke-linecap:square;stroke-linejoin:round;stroke-miterlimit:4;stroke-dasharray:none;stroke-dashoffset:0;stroke-opacity:1;paint-order:normal"
       d="m 99.096802,172.68402 c 1.841828,-0.50061 0.830875,0.64093 0,0 z m 57.435998,0 c -1.84182,-0.50061 -0.83088,0.64093 0,0 z"
       id="path985"
       inkscape:connector-curvature="0" />
    <path
       style="opacity:0.38848919;fill:#ffffff;fill-opacity:1;fill-rule:nonzero;stroke:none;stroke-width:0.15088864;stroke-linecap:square;stroke-linejoin:round;stroke-miterlimit:4;stroke-dasharray:none;stroke-dashoffset:0;stroke-opacity:1;paint-order:normal"
       d="m 88.527003,174.06341 c -0.354814,-0.10075 -0.737246,-0.0642 -1.108967,-0.0642 -0.255227,0 -1.908759,-0.60696 -1.732763,-0.76988 0.02352,-0.0218 0.360382,0.21171 0.415868,0.22455 0.305554,0.0707 0.643776,0.14899 0.970345,0.22455 0.449995,0.10409 2.072804,-0.23056 2.391203,0.0642 0.03137,0.029 -0.83086,0.30693 -0.935686,0.32079 z m 78.575597,0 c 0.35481,-0.10075 0.73724,-0.0642 1.10897,-0.0642 0.25522,0 1.90875,-0.60696 1.73276,-0.76988 -0.0235,-0.0218 -0.36038,0.21171 -0.41587,0.22455 -0.30555,0.0707 -0.64378,0.14899 -0.97034,0.22455 -0.45,0.10409 -2.07281,-0.23056 -2.39121,0.0642 -0.0314,0.029 0.83086,0.30693 0.93569,0.32079 z"
       id="path989"
       inkscape:connector-curvature="0" />
    <path
       style="opacity:0.058;fill:#ffffff;fill-opacity:1;fill-rule:nonzero;stroke:none;stroke-width:0.34704384;stroke-linecap:square;stroke-linejoin:round;stroke-miterlimit:4;stroke-dasharray:0.6940877, 1.38817539999999995;stroke-dashoffset:0;stroke-opacity:1;paint-order:normal"
       d="m 75.771124,184.34434 -3.879464,-2.39147 12.523991,-48.25927 1.152975,-10.42598 c 2.414601,0.36687 7.590433,-19.26944 9.609349,-18.60666 1.305368,-0.84959 -0.368349,25.95793 -0.485188,28.16506 0.312204,3.572 -3.965707,17.90354 -4.782404,17.64326 -0.600695,2e-5 -1.157962,-2.56186 -1.524821,-2.30966 -0.718961,-0.37958 -4.03545,5.62198 -4.435856,5.13258 -0.543968,0.0877 -0.641282,-6.72691 -1.108952,-6.41572 -0.554491,-0.14488 -1.8709,10.43793 -2.217935,12.3182 -1.852692,7.94732 -4.066195,15.22667 -6.099293,22.83999 z m 104.087356,0 3.87946,-2.39147 -12.52399,-48.25927 -1.15297,-10.42598 c -2.41461,0.36687 -7.59044,-19.26944 -9.60935,-18.60666 -1.30537,-0.84959 0.36835,25.95793 0.48518,28.16506 -0.3122,3.572 3.96571,17.90354 4.78241,17.64326 0.60069,2e-5 1.15796,-2.56186 1.52482,-2.30966 0.71896,-0.37958 4.03545,5.62198 4.43586,5.13258 0.54396,0.0877 0.64128,-6.72691 1.10895,-6.41572 0.55449,-0.14488 1.8709,10.43793 2.21793,12.3182 1.85269,7.94732 4.0662,15.22667 6.0993,22.83999 z"
       id="path866"
       inkscape:connector-curvature="0"
       sodipodi:nodetypes="ccccccccccccc" />
    <path
       style="opacity:1;fill:#ffd5d5;fill-opacity:1;fill-rule:nonzero;stroke:none;stroke-width:0.34704384;stroke-linecap:square;stroke-linejoin:round;stroke-miterlimit:4;stroke-dasharray:0.6940877, 1.3881754;stroke-dashoffset:0;stroke-opacity:1;paint-order:normal"
       d="m 96.449808,93.457763 c -1.515474,-1.967218 -2.953724,-3.892292 -4.239346,-6.101728 -0.834639,-1.43441 -3.610328,-6.736099 -4.28834,-9.86712 -0.249299,-0.461542 -0.793361,-1.647631 -1.176233,-2.177571 -0.422785,-0.585179 2.339464,6.094085 2.352466,6.169778 0.211925,1.234102 4.77141,9.180974 5.979182,10.343463 0.47239,0.454662 0.816446,1.278321 1.372271,1.633178 z m 62.729982,0 c 1.51548,-1.967218 2.95373,-3.892292 4.23935,-6.101728 0.83464,-1.43441 3.61033,-6.736099 4.28834,-9.86712 0.2493,-0.461542 0.79336,-1.647631 1.17623,-2.177571 0.42279,-0.585179 -2.33946,6.094085 -2.35246,6.169778 -0.21193,1.234102 -4.77141,9.180974 -5.97919,10.343463 -0.47239,0.454662 -0.81644,1.278321 -1.37227,1.633178 z"
       id="path870"
       inkscape:connector-curvature="0"
       sodipodi:nodetypes="cscsssc" />
    <path
       style="opacity:1;fill:#ff5555;fill-opacity:1;fill-rule:nonzero;stroke:none;stroke-width:0.34704384;stroke-linecap:square;stroke-linejoin:round;stroke-miterlimit:4;stroke-dasharray:0.6940877, 1.3881754;stroke-dashoffset:0;stroke-opacity:1;paint-order:normal"
       d="m 80.251157,84.184852 c -0.155734,0.910704 -0.09802,1.935963 -0.09802,2.903428 0,2.474186 0.783732,5.261695 1.764349,7.077107 0.476641,0.882424 0.686136,2.289527 0.686136,3.175624 0,0.213852 0.329047,0.635125 0.09802,0.635125 -0.05364,0 0.09802,-4.989483 0.09802,-5.443928 0,-1.315354 -1.074825,-3.169353 -1.764348,-4.445874 -0.630179,-1.166641 -0.470054,-2.738485 -0.784155,-3.901482 z m 95.127293,0 c 0.15573,0.910704 0.098,1.935963 0.098,2.903428 0,2.474186 -0.78373,5.261695 -1.76434,7.077107 -0.47665,0.882424 -0.68614,2.289527 -0.68614,3.175624 0,0.213852 -0.32905,0.635125 -0.098,0.635125 0.0536,0 -0.098,-4.989483 -0.098,-5.443928 0,-1.315354 1.07482,-3.169353 1.76435,-4.445874 0.63018,-1.166641 0.47005,-2.738485 0.78415,-3.901482 z"
       id="path912"
       inkscape:connector-curvature="0" />
    <path
       style="opacity:1;fill:#ff5555;fill-opacity:1;fill-rule:nonzero;stroke:none;stroke-width:0.34704384;stroke-linecap:square;stroke-linejoin:round;stroke-miterlimit:4;stroke-dasharray:0.6940877, 1.3881754;stroke-dashoffset:0;stroke-opacity:1;paint-order:normal"
       d="m 84.760048,87.995602 c -0.513182,1.113319 0,2.629214 0,3.720017 0,0.843809 0.490097,1.808197 0.490097,2.5405 0,0.740026 0.942993,4.808803 1.372271,4.808803 0.294058,0 0,-0.544393 0,-0.816589 0,-0.685398 0.294058,-1.45591 0.294058,-2.08684 0,-3.142627 0.241442,-4.36182 -1.078213,-6.804909 -0.264903,-0.490418 -0.426361,-1.210135 -1.078213,-1.360982 z m 86.109502,0 c 0.51319,1.113319 0,2.629214 0,3.720017 0,0.843809 -0.49009,1.808197 -0.49009,2.5405 0,0.740026 -0.943,4.808803 -1.37227,4.808803 -0.29406,0 0,-0.544393 0,-0.816589 0,-0.685398 -0.29406,-1.45591 -0.29406,-2.08684 0,-3.142627 -0.24144,-4.36182 1.07821,-6.804909 0.2649,-0.490418 0.42636,-1.210135 1.07821,-1.360982 z"
       id="path916"
       inkscape:connector-curvature="0" />
    <path
       style="opacity:1;fill:#ff5555;fill-opacity:1;fill-rule:nonzero;stroke:none;stroke-width:0.34704384;stroke-linecap:square;stroke-linejoin:round;stroke-miterlimit:4;stroke-dasharray:0.6940877, 1.3881754;stroke-dashoffset:0;stroke-opacity:1;paint-order:normal"
       d="m 89.464978,92.441476 c 0.35516,1.210933 -0.0367,1.939301 -0.784155,2.631232 -0.505246,0.467684 0.490097,4.523585 0.490097,3.901482 0,-1.181551 2.40171,-6.532714 0.294058,-6.532714 z m 76.699642,0 c -0.35516,1.210933 0.0367,1.939301 0.78416,2.631232 0.50524,0.467684 -0.4901,4.523585 -0.4901,3.901482 0,-1.181551 -2.40171,-6.532714 -0.29406,-6.532714 z"
       id="path925"
       inkscape:connector-curvature="0" />
    <path
       style="opacity:0.327;fill:#ffffff;fill-opacity:1;fill-rule:nonzero;stroke:none;stroke-width:0.34704384;stroke-linecap:square;stroke-linejoin:round;stroke-miterlimit:4;stroke-dasharray:0.6940877, 1.38817539999999995;stroke-dashoffset:0;stroke-opacity:1;paint-order:normal"
       d="m 87.308552,69.486247 c -2.830549,0.16401 -4.32438,3.087585 -3.675727,5.489294 0.314211,1.163422 1.323544,1.951263 1.862368,2.948794 0.130641,0.241905 1.585797,2.025286 1.519301,2.086839 -0.263225,0.243656 -0.637126,-1.703274 -0.637126,-1.905375 0,-1.021715 -0.686136,-1.921024 -0.686136,-2.858062 0,-0.941632 0.778729,-1.764258 1.323262,-2.268303 0.495272,-0.458448 -0.865786,-0.725988 -0.637126,-1.360982 0.316077,-0.877718 1.127223,-0.992411 1.127223,-2.132205 m 80.816459,0 c 2.83055,0.16401 4.32438,3.087585 3.67573,5.489294 -0.31421,1.163422 -1.32355,1.951263 -1.86237,2.948794 -0.13064,0.241905 -1.5858,2.025286 -1.5193,2.086839 0.26322,0.243656 0.63712,-1.703274 0.63712,-1.905375 0,-1.021715 0.68614,-1.921024 0.68614,-2.858062 0,-0.941632 -0.77873,-1.764258 -1.32326,-2.268303 -0.49527,-0.458448 0.86578,-0.725988 0.63712,-1.360982 -0.31607,-0.877718 -1.12722,-0.992411 -1.12722,-2.132205"
       id="path939"
       inkscape:connector-curvature="0" />
    <path
       style="opacity:0.04;fill:url(#linearGradient889);fill-opacity:1;fill-rule:nonzero;stroke:none;stroke-width:0.15088864;stroke-linecap:square;stroke-linejoin:round;stroke-miterlimit:4;stroke-dasharray:none;stroke-dashoffset:0;stroke-opacity:1;paint-order:normal"
       d="m 75.007653,183.86022 c -1.448507,-0.85472 -2.391846,-1.46223 -3.494399,-2.14767 -3.053954,-7.47171 6.535305,-26.1462 12.325522,-48.10721 4.097696,-15.54167 -1.94952,-34.579779 -6.76293,-48.579502 -1.54052,-10.233608 2.165429,-27.302171 10.337014,-50.188461 0.998026,-0.946538 1.745278,-1.196708 2.384898,-1.147949 0.951494,4.445334 2.271211,8.444968 4.38821,11.479492 0.450921,1.954934 11.001582,15.484274 13.666382,18.964354 1.40958,1.84086 -11.485458,-0.979322 -14.429553,-0.597167 -8.327541,-3.005139 -25.865144,7.871659 -2.751553,27.98605 4.513197,3.927569 -5.030966,24.986843 -4.215367,26.664253 -0.0563,1.56673 10.138451,-22.442393 10.369353,-17.5149 0.781144,16.67037 -0.643321,48.7976 -8.649199,58.4976 -1.913887,1.0247 -2.979742,0.32243 -3.625054,-1.23625 -2.932019,-4.50034 -6.361772,17.26126 -9.543324,25.92736 z"
       id="path841"
       inkscape:connector-curvature="0"
       sodipodi:nodetypes="ccsccccscscsccc" />
    <path
       sodipodi:nodetypes="ccsccccscscsccc"
       inkscape:connector-curvature="0"
       id="path150895"
       d="m 180.3941,183.787 c 1.44851,-0.85472 2.39184,-1.46223 3.4944,-2.14767 3.05395,-7.47171 -6.53531,-26.1462 -12.32552,-48.10721 -4.09771,-15.54167 1.94952,-34.579782 6.76293,-48.579505 1.54052,-10.233608 -2.16543,-27.302171 -10.33703,-50.188461 -0.99802,-0.946538 -1.74527,-1.196708 -2.38489,-1.147949 -0.9515,4.445334 -2.27121,8.444968 -4.38821,11.479492 -0.45092,1.954934 -11.00159,15.484274 -13.66638,18.964354 -1.40958,1.84086 11.48545,-0.979322 14.42955,-0.597167 7.05153,-2.686137 25.3208,8.007746 2.75155,27.98605 -4.47985,3.965564 5.03097,24.986846 4.21537,26.664256 0.0563,1.56673 -10.13845,-22.442396 -10.36936,-17.5149 -0.78114,16.67037 0.64333,48.7976 8.6492,58.4976 1.91389,1.0247 2.97975,0.32243 3.62506,-1.23625 2.93202,-4.50034 6.36178,17.26126 9.54333,25.92736 z"
       style="opacity:0.04;fill:url(#linearGradient150897);fill-opacity:1;fill-rule:nonzero;stroke:none;stroke-width:0.15088864;stroke-linecap:square;stroke-linejoin:round;stroke-miterlimit:4;stroke-dasharray:none;stroke-dashoffset:0;stroke-opacity:1;paint-order:normal" />
  </g>
</svg>
