<?xml version="1.0" encoding="UTF-8" standalone="no"?>
<svg
   xmlns:osb="http://www.openswatchbook.org/uri/2009/osb"
   xmlns:dc="http://purl.org/dc/elements/1.1/"
   xmlns:cc="http://creativecommons.org/ns#"
   xmlns:rdf="http://www.w3.org/1999/02/22-rdf-syntax-ns#"
   xmlns:svg="http://www.w3.org/2000/svg"
   xmlns="http://www.w3.org/2000/svg"
   xmlns:sodipodi="http://sodipodi.sourceforge.net/DTD/sodipodi-0.dtd"
   xmlns:inkscape="http://www.inkscape.org/namespaces/inkscape"
   version="1.1"
   id="svg10"
   viewBox="0 0 341.33334 341.33334"
   sodipodi:docname="long_qipao_slevees.svg"
   inkscape:version="1.0.2 (e86c870879, 2021-01-15)">
  <metadata
     id="metadata16">
    <rdf:RDF>
      <cc:Work
         rdf:about="">
        <dc:format>image/svg+xml</dc:format>
        <dc:type
           rdf:resource="http://purl.org/dc/dcmitype/StillImage" />
        <dc:title></dc:title>
      </cc:Work>
    </rdf:RDF>
  </metadata>
  <defs
     id="defs14">
    <linearGradient
       id="Red"
       osb:paint="gradient">
      <stop
         style="stop-color:#000000;stop-opacity:1;"
         offset="0"
         id="stop920" />
      <stop
         style="stop-color:#ff2a2a;stop-opacity:0;"
         offset="1"
         id="stop922" />
    </linearGradient>
  </defs>
  <sodipodi:namedview
     pagecolor="#ffffff"
     bordercolor="#666666"
     borderopacity="1"
     objecttolerance="10"
     gridtolerance="10"
     guidetolerance="10"
     inkscape:pageopacity="0"
     inkscape:pageshadow="2"
     inkscape:window-width="1920"
     inkscape:window-height="1057"
     id="namedview12"
     showgrid="false"
     inkscape:snap-global="true"
     inkscape:zoom="5.33"
     inkscape:cx="126.5779"
     inkscape:cy="47.055364"
     inkscape:window-x="-8"
     inkscape:window-y="-8"
     inkscape:window-maximized="1"
     inkscape:current-layer="layer6"
     inkscape:document-rotation="0" />
  <g
     inkscape:groupmode="layer"
     id="layer5"
     inkscape:label="Sleeves"
     style="display:inline"
     sodipodi:insensitive="true">
    <path
       style="fill:#ffd5d5;stroke:#000000;stroke-width:1px;stroke-linecap:butt;stroke-linejoin:miter;stroke-opacity:1"
       d="m 149.56897,28.87931 c 0,0 -6.73945,5.081286 -8.98542,8.521221 -3.78495,5.797059 -7.42705,28.249337 -7.42705,28.249337 8.3362,4.432553 11.62258,4.415395 16.44563,4.376658 l 5.25975,-7.485282 c 0.24001,0.763194 -0.59697,-1.850565 -1.73688,-9.132153 -1.78517,-4.577644 -3.25969,-11.019181 -3.55603,-24.529781"
       id="path36"
       sodipodi:nodetypes="csccccc" />
    <path
       style="fill:#ffd5d5;stroke:#000000;stroke-width:1px;stroke-linecap:butt;stroke-linejoin:miter;stroke-opacity:1"
       d="m 208.18966,29.310345 c 0,0 4.68159,4.80378 6.84302,7.617759 5.83406,7.595398 10.13072,31.699347 10.13072,31.699347 -6.21519,5.322233 -12.38743,5.432172 -18.62746,5.555555 l -5.90626,-12.908189 c 1.2849,-4.436375 2.83308,-9.248878 7.55998,-18.602403 0.68476,-3.671959 0.87056,-8.787939 0,-13.362069 z"
       id="path862"
       sodipodi:nodetypes="csccccc" />
  </g>
  <g
     inkscape:groupmode="layer"
     id="layer6"
     inkscape:label="Sleeves Lining"
     style="display:inline"
     sodipodi:insensitive="true">
    <path
       style="fill:#ffe6d5;stroke:#000000;stroke-width:1px;stroke-linecap:butt;stroke-linejoin:miter;stroke-opacity:1"
       d="m 133.58349,63.227017 c 5.81613,2.891571 11.63227,4.792692 17.4484,4.690431 l -1.42976,2.109078 c -5.75874,0.479161 -11.18594,-1.362481 -16.44563,-4.376658 z"
       id="path864"
       sodipodi:nodetypes="ccccc" />
    <path
       style="fill:#ffe6d5;stroke:#000000;stroke-width:1px;stroke-linecap:butt;stroke-linejoin:miter;stroke-opacity:1"
       d="m 205.4409,71.857411 c 6.8434,-0.206137 13.47404,-1.263308 19.32457,-5.440901 l 0.39793,2.210941 c -6.87441,5.843403 -12.72421,5.539141 -18.62746,5.555555 z"
       id="path872"
       sodipodi:nodetypes="ccccc" />
  </g>
</svg>
