<?xml version="1.0" encoding="UTF-8" standalone="no"?>
<svg
   xmlns:osb="http://www.openswatchbook.org/uri/2009/osb"
   xmlns:dc="http://purl.org/dc/elements/1.1/"
   xmlns:cc="http://creativecommons.org/ns#"
   xmlns:rdf="http://www.w3.org/1999/02/22-rdf-syntax-ns#"
   xmlns:svg="http://www.w3.org/2000/svg"
   xmlns="http://www.w3.org/2000/svg"
   xmlns:sodipodi="http://sodipodi.sourceforge.net/DTD/sodipodi-0.dtd"
   xmlns:inkscape="http://www.inkscape.org/namespaces/inkscape"
   version="1.1"
   id="svg10"
   viewBox="0 0 341.33334 341.33334"
   sodipodi:docname="qipao_sleevs.svg"
   inkscape:version="1.0.2 (e86c870879, 2021-01-15)">
  <metadata
     id="metadata16">
    <rdf:RDF>
      <cc:Work
         rdf:about="">
        <dc:format>image/svg+xml</dc:format>
        <dc:type
           rdf:resource="http://purl.org/dc/dcmitype/StillImage" />
        <dc:title></dc:title>
      </cc:Work>
    </rdf:RDF>
  </metadata>
  <defs
     id="defs14">
    <linearGradient
       id="Red"
       osb:paint="gradient">
      <stop
         style="stop-color:#000000;stop-opacity:1;"
         offset="0"
         id="stop920" />
      <stop
         style="stop-color:#ff2a2a;stop-opacity:0;"
         offset="1"
         id="stop922" />
    </linearGradient>
  </defs>
  <sodipodi:namedview
     pagecolor="#ffffff"
     bordercolor="#666666"
     borderopacity="1"
     objecttolerance="10"
     gridtolerance="10"
     guidetolerance="10"
     inkscape:pageopacity="0"
     inkscape:pageshadow="2"
     inkscape:window-width="1920"
     inkscape:window-height="1057"
     id="namedview12"
     showgrid="false"
     inkscape:snap-global="true"
     inkscape:zoom="3.52"
     inkscape:cx="206.67672"
     inkscape:cy="81.929087"
     inkscape:window-x="-8"
     inkscape:window-y="-8"
     inkscape:window-maximized="1"
     inkscape:current-layer="layer6"
     inkscape:document-rotation="0" />
  <g
     inkscape:groupmode="layer"
     id="layer5"
     inkscape:label="Sleeves"
     style="display:inline"
     sodipodi:insensitive="true">
    <path
       style="fill:#ffd5d5;stroke:#000000;stroke-width:1.65345px;stroke-linecap:butt;stroke-linejoin:miter;stroke-opacity:1"
       d="m 114.64297,49.49231 c 0,0 -11.14332,8.401633 -14.856909,14.08938 -6.258211,9.585125 -12.280227,46.70876 -12.280227,46.70876 13.783456,7.32899 19.217306,7.30062 27.191956,7.23657 l 8.81104,-11.74633 c -0.42956,-1.28248 -1.85634,-9.545463 -2.98616,-15.729708 -2.29674,-11.273957 -5.65684,-15.458846 -5.8797,-40.558672"
       id="path36"
       sodipodi:nodetypes="csccccc" />
    <path
       style="fill:#ffd5d5;stroke:#000000;stroke-width:1.65345px;stroke-linecap:butt;stroke-linejoin:miter;stroke-opacity:1"
       d="m 211.56913,50.205003 c 0,0 7.74075,7.942791 11.31456,12.595554 9.6463,12.558582 16.7506,52.413163 16.7506,52.413163 -10.27648,8.80003 -20.48195,8.98181 -30.7995,9.18581 l -10.72901,-20.3438 c 3.97023,-10.240717 7.34728,-20.085987 13.46335,-31.757265 1.34348,-7.095792 2.38104,-14.252767 0,-22.093462 z"
       id="path862"
       sodipodi:nodetypes="csccccc" />
  </g>
  <g
     inkscape:groupmode="layer"
     id="layer6"
     inkscape:label="Sleeves Lining"
     style="display:inline"
     sodipodi:insensitive="true">
    <path
       style="fill:#ffe6d5;stroke:#000000;stroke-width:1.65345px;stroke-linecap:butt;stroke-linejoin:miter;stroke-opacity:1"
       d="m 88.211839,106.28439 c 9.616658,4.78106 19.233331,7.92446 28.849991,7.75538 l -2.36404,3.48725 c -9.52176,0.79226 -18.495342,-2.25279 -27.191956,-7.23657 z"
       id="path864"
       sodipodi:nodetypes="ccccc" />
    <path
       style="fill:#ffe6d5;stroke:#000000;stroke-width:1.65345px;stroke-linecap:butt;stroke-linejoin:miter;stroke-opacity:1"
       d="m 207.0242,120.55429 c 11.31519,-0.34084 22.2786,-2.08882 31.95213,-8.99624 l 0.65796,3.65567 c -11.36647,9.66175 -21.0388,9.15867 -30.7995,9.18581 z"
       id="path872"
       sodipodi:nodetypes="ccccc" />
  </g>
</svg>
