<?xml version="1.0" encoding="UTF-8" standalone="no"?>
<svg
   xmlns:dc="http://purl.org/dc/elements/1.1/"
   xmlns:cc="http://creativecommons.org/ns#"
   xmlns:rdf="http://www.w3.org/1999/02/22-rdf-syntax-ns#"
   xmlns:svg="http://www.w3.org/2000/svg"
   xmlns="http://www.w3.org/2000/svg"
   xmlns:sodipodi="http://sodipodi.sourceforge.net/DTD/sodipodi-0.dtd"
   xmlns:inkscape="http://www.inkscape.org/namespaces/inkscape"
   version="1.1"
   id="svg4206"
   viewBox="0 0 256 256"
   sodipodi:docname="RiderPistol.svg"
   inkscape:version="0.92.3 (2405546, 2018-03-11)">
  <sodipodi:namedview
     pagecolor="#ffffff"
     bordercolor="#666666"
     borderopacity="1"
     objecttolerance="10"
     gridtolerance="10"
     guidetolerance="10"
     inkscape:pageopacity="0"
     inkscape:pageshadow="2"
     inkscape:window-width="1920"
     inkscape:window-height="1001"
     id="namedview58"
     showgrid="false"
     inkscape:zoom="2.6074563"
     inkscape:cx="152.23167"
     inkscape:cy="121.67379"
     inkscape:window-x="-9"
     inkscape:window-y="41"
     inkscape:window-maximized="1"
     inkscape:current-layer="svg4206"
     inkscape:snap-global="false"
     showguides="false" />
  <style
     id="style3">
    svg { cursor: default; }
  </style>
  <defs
     id="defs4208">
    <inkscape:path-effect
       effect="powerstroke"
       id="path-effect907"
       is_visible="true"
       offset_points="0.55768567,0.32361255"
       sort_points="true"
       interpolator_type="CubicBezierJohan"
       interpolator_beta="0.2"
       start_linecap_type="zerowidth"
       linejoin_type="extrp_arc"
       miter_limit="4"
       end_linecap_type="zerowidth" />
    <inkscape:path-effect
       effect="powerstroke"
       id="path-effect903"
       is_visible="true"
       offset_points="0.36787538,0.40439423"
       sort_points="true"
       interpolator_type="CubicBezierJohan"
       interpolator_beta="0.2"
       start_linecap_type="zerowidth"
       linejoin_type="extrp_arc"
       miter_limit="4"
       end_linecap_type="zerowidth" />
    <inkscape:path-effect
       effect="powerstroke"
       id="path-effect880"
       is_visible="true"
       offset_points="0.43866375,0.47000421"
       sort_points="true"
       interpolator_type="CubicBezierJohan"
       interpolator_beta="0.2"
       start_linecap_type="zerowidth"
       linejoin_type="extrp_arc"
       miter_limit="4"
       end_linecap_type="zerowidth" />
    <inkscape:path-effect
       effect="powerstroke"
       id="path-effect876"
       is_visible="true"
       offset_points="0.31349214,0.3253567"
       sort_points="true"
       interpolator_type="CubicBezierJohan"
       interpolator_beta="0.2"
       start_linecap_type="zerowidth"
       linejoin_type="extrp_arc"
       miter_limit="4"
       end_linecap_type="zerowidth" />
    <inkscape:path-effect
       effect="powerstroke"
       id="path-effect872"
       is_visible="true"
       offset_points="0.47974354,0.61540457"
       sort_points="true"
       interpolator_type="CubicBezierJohan"
       interpolator_beta="0.2"
       start_linecap_type="zerowidth"
       linejoin_type="extrp_arc"
       miter_limit="4"
       end_linecap_type="zerowidth" />
    <inkscape:path-effect
       effect="powerstroke"
       id="path-effect868"
       is_visible="true"
       offset_points="0.22476176,0.72470812"
       sort_points="true"
       interpolator_type="CubicBezierJohan"
       interpolator_beta="0.2"
       start_linecap_type="zerowidth"
       linejoin_type="extrp_arc"
       miter_limit="4"
       end_linecap_type="zerowidth" />
    <inkscape:path-effect
       effect="powerstroke"
       id="path-effect880-1"
       is_visible="true"
       offset_points="0.43759178,0.29829899"
       sort_points="true"
       interpolator_type="CubicBezierJohan"
       interpolator_beta="0.2"
       start_linecap_type="zerowidth"
       linejoin_type="extrp_arc"
       miter_limit="4"
       end_linecap_type="zerowidth" />
  </defs>
  <metadata
     id="metadata4211">
    <rdf:RDF>
      <cc:Work
         rdf:about="">
        <dc:format>image/svg+xml</dc:format>
        <dc:type
           rdf:resource="http://purl.org/dc/dcmitype/StillImage" />
        <dc:title></dc:title>
      </cc:Work>
    </rdf:RDF>
  </metadata>
  <path
     style="fill:#333333;stroke:#000000;stroke-width:0.75601554px;stroke-linecap:butt;stroke-linejoin:miter;stroke-opacity:1"
     d="m 96.038749,141.67931 -10.674628,12.06874 -9.607176,8.39565 -14.143889,2.62364 c 0,0 -4.803585,2.88602 -7.472243,9.44511 -2.66866,6.5591 -6.137914,13.64295 -6.404781,15.21713 -0.266865,1.57419 12.275829,13.64293 12.275829,13.64293 0,0 4.269853,6.29674 4.269853,8.39565 0,2.09891 9.073438,6.29674 9.073438,6.29674 0,0 6.938514,-3.14837 7.73911,-2.36129 0.800602,0.7871 2.935528,-2.36128 2.935528,-2.36128"
     id="path1230"
     inkscape:connector-curvature="0" />
  <path
     style="fill:#333333;stroke:none;stroke-width:0.75601554px;stroke-linecap:butt;stroke-linejoin:miter;stroke-opacity:1"
     d="m 96.038749,141.67931 c 0,0 -45.634058,55.6212 -41.097338,60.60611 4.536719,4.9849 5.871048,20.72676 12.542695,19.67731 6.671645,-1.04946 34.425684,-11.80639 34.425684,-11.80639 l 10.94151,-8.39566 6.93851,-11.01928 2.4018,-10.75693 -8.27284,-12.59348 z"
     id="path1237"
     inkscape:connector-curvature="0" />
  <path
     style="fill:#4d4d4d;stroke:#000000;stroke-width:0.75601554px;stroke-linecap:butt;stroke-linejoin:miter;stroke-opacity:1"
     d="m 133.39997,107.83432 9.87403,-0.78709 c 0,0 1.86808,4.98492 -0.8006,7.3462 -2.66865,2.36128 -3.46925,7.08382 -4.53672,7.08382 -1.06745,0 -10.40776,7.08384 -10.40776,7.08384 0,0 -7.20538,-1.31182 -8.5397,1.31182 -1.33433,2.62363 -6.13792,3.67311 -11.47525,1.5742 0,0 -13.610151,9.70746 -13.877021,12.06875 -0.266859,2.36127 -10.674621,11.54401 -10.674621,11.54401 l -4.00299,3.67309 c 0,0 -3.202393,3.41074 -6.671648,3.93548 -3.469256,0.52471 -10.674634,2.0989 -10.674634,2.0989 0,0 -9.874035,5.50965 -10.941498,5.24729 -1.067464,-0.26237 -5.337317,-0.7871 -5.337317,-0.7871 0,0 -9.607172,-6.29674 -6.137916,-16.26658 0,0 11.208366,-9.70747 12.809562,-9.44509 1.601193,0.26235 -0.800599,-4.72258 1.868061,-3.67311 l 2.668658,1.04946 c 0,0 -1.067464,-6.55911 -1.33433,-7.87092 -0.266865,-1.31183 2.134927,4.19781 4.002988,3.14837 1.86806,-1.04947 7.739109,-4.98492 7.739109,-4.98492 l -0.266865,-9.44512 c 0,0 0.266865,-4.98491 4.803584,-6.03438 4.536718,-1.04944 10.941499,-2.0989 10.941499,-2.0989 l 2.668661,-11.0193 c 0,0 -4.536719,1.57419 0,0 4.536717,-1.57418 11.208367,-4.984913 12.542696,-1.83655 1.33433,3.14837 1.33433,3.14837 1.33433,3.14837 0,0 7.472242,-3.41074 7.739092,-2.36128 0.26688,1.04946 0.53375,-2.886002 0.53375,-2.886002 0,0 -1.06747,1.836542 3.73611,-1.311819 4.80358,-3.148373 4.80358,-3.148373 4.80358,-3.148373 0,0 -0.26684,-5.247285 2.93554,-2.361269 l 9.87404,-6.559113 c 0,0 -2.13493,-2.36128 3.20237,-4.460192 5.33732,-2.098912 4.53672,-3.410731 4.53672,-3.410731 0,0 2.13493,-5.247285 5.07046,-4.984927 2.93554,0.262368 10.40778,-7.083828 10.40778,-7.083828 l -1.33433,-2.886005 c 0,0 -4.80359,-3.673099 -2.13493,-7.083834 2.66866,-3.410733 4.26985,-8.133287 4.26985,-8.133287 L 204.65315,4.9875674 c 0,0 10.9415,8.6580176 11.20837,10.2322036 0.26686,1.574184 10.67462,12.855843 10.67462,12.855843 0,0 3.46926,4.722556 3.46926,4.722556 l -10.94149,9.969839 c 0,0 3.73611,2.361279 2.40179,7.346196 l -31.49018,24.924597 c 0,0 -11.20836,5.247285 -10.9415,7.608564 0.26686,2.36127 -26.95343,24.924584 -26.95343,24.924584 z"
     id="path1196"
     inkscape:connector-curvature="0" />
  <path
     style="fill:#333333;stroke:#000000;stroke-width:0.75601554px;stroke-linecap:butt;stroke-linejoin:miter;stroke-opacity:1"
     d="m 89.100242,186.80594 c 0,0 -10.941504,1.31181 -5.871056,3.93546 5.070459,2.62365 25.352264,13.11821 25.352264,15.21712 0,2.0989 13.34328,1.31181 6.13791,-8.92039"
     id="path1222"
     inkscape:connector-curvature="0" />
  <path
     style="fill:#333333;stroke:#000000;stroke-width:0.75601554px;stroke-linecap:butt;stroke-linejoin:miter;stroke-opacity:1"
     d="m 86.965313,193.62741 c 0,0 -9.874038,-2.09892 -10.674636,1.57418 -0.800598,3.6731 15.74509,9.96983 15.74509,9.96983 0,0 5.070441,6.29674 7.47224,5.77202 2.401783,-0.52474 9.874043,1.3118 10.140893,-4.72256"
     id="path1224"
     inkscape:connector-curvature="0" />
  <path
     style="fill:#333333;stroke:#000000;stroke-width:0.75601554px;stroke-linecap:butt;stroke-linejoin:miter;stroke-opacity:1"
     d="m 86.965313,193.62741 c 0.177916,-0.26236 0.277146,-0.59789 0.533737,-0.7871 0.48593,-0.35831 0.530675,0.12967 0.800595,0.26236 0.07958,0.0391 0.266868,-0.0874 0.266868,0 0,0.0875 -0.182484,-0.0276 -0.266868,0 -0.454459,0.14893 -0.889549,0.34982 -1.334332,0.52474"
     id="path1226"
     inkscape:connector-curvature="0" />
  <path
     style="fill:#333333;stroke:#000000;stroke-width:0.75601554px;stroke-linecap:butt;stroke-linejoin:miter;stroke-opacity:1"
     d="m 109.6489,206.22088 c 0,0 3.2024,2.36128 0.53373,3.93546 -2.66866,1.57418 -12.275812,6.55911 -13.343271,6.29674 -1.06747,-0.26237 -13.076436,-1.57419 -13.076436,-3.67309 0,-2.09892 8.005975,-3.14839 8.005975,-3.14839 l 2.668662,-1.83654"
     id="path1228"
     inkscape:connector-curvature="0" />
  <path
     style="fill:#f9f9f9;stroke:#000000;stroke-width:0.75601554px;stroke-linecap:butt;stroke-linejoin:miter;stroke-opacity:1"
     d="m 94.170689,96.815034 c 0,0 10.140891,-5.247285 12.275831,-6.034379 2.13493,-0.787093 -1.86805,-3.673098 2.13493,-5.509651 4.00298,-1.836544 10.40777,-4.460192 10.40777,-4.460192 0,0 -5.07045,-2.623637 -1.06748,-4.460192 4.00299,-1.836544 12.00899,-3.673098 12.00899,-3.673098 0,0 -1.60121,-6.296738 1.86803,-6.821467 3.46927,-0.524729 14.41077,-7.346197 14.41077,-7.346197 0,0 5.07047,5.247284 4.53672,6.29674 -0.53373,1.049457 -7.7391,7.083831 -9.07344,7.083831 -1.33432,0 -3.73613,0.262367 -4.26985,2.361279 -0.53373,2.098912 -5.33732,6.034379 -5.33732,6.034379 0,0 -3.2024,2.623637 -4.26985,1.574186 -1.06747,-1.049461 1.86805,2.098912 0.26686,3.148363 -1.60119,1.049461 -8.27284,5.772019 -9.3403,6.296745 -1.06746,0.524736 -3.20238,-4.197824 -2.93554,2.886005 0,0 -7.7391,6.034374 -11.20834,6.821474 -3.46926,0.78709 -5.604192,2.886 -5.604192,2.886 z"
     id="path1154"
     inkscape:connector-curvature="0" />
  <path
     style="fill:#999999;stroke:#000000;stroke-width:0.75601554px;stroke-linecap:butt;stroke-linejoin:miter;stroke-opacity:1"
     d="m 97.639948,100.75049 c 0,0 18.146862,-6.559104 18.146862,-6.559104 l -1.86804,-2.623637 c 0,0 -3.20239,2.623637 -5.33732,0.262368 -2.13493,-2.361291 5.07044,-2.098923 5.07044,-2.098923 0,0 9.07344,-4.722558 12.5427,-4.46019 3.46925,0.262368 0.8006,-4.72256 0.8006,-4.72256 0,0 -5.33731,3.410741 -6.40479,3.148383 -1.06745,-0.262367 -1.60118,-2.886015 -1.60118,-2.886015 0,0 9.07343,0 12.00894,-3.148373 2.93554,-3.148363 6.4048,-4.722549 6.4048,-4.722549 0,0 -7.47223,-0.262368 -7.47223,-0.262368 0,0 2.40177,0 6.1379,-1.311819 3.73612,-1.311818 11.7421,-7.346198 11.7421,-7.346198 0,0 4.26986,-1.049457 3.20239,1.049457 -1.06746,2.098913 -9.60718,7.346192 -9.60718,7.346192 0,0 -3.20238,-0.262358 -4.80359,4.197824 -1.60119,4.460202 -7.47222,2.36129 -8.27283,5.509653 -0.8006,3.148373 -9.60717,9.707486 -9.60717,9.707486 0,0 -3.46926,-3.935467 -2.93554,2.361269"
     id="path1156"
     inkscape:connector-curvature="0" />
  <path
     style="fill:#f9f9f9;stroke:#000000;stroke-width:0.75601554px;stroke-linecap:butt;stroke-linejoin:miter;stroke-opacity:1"
     d="m 85.097252,102.58704 c 0,0 -15.211354,-3.673094 -19.481207,0.26236 -4.269854,3.93546 -10.941501,7.34621 -11.742097,14.43003 -0.8006,7.08383 1.601194,18.89023 4.536718,19.15258 2.935525,0.26237 8.539707,-5.24727 8.539707,-5.24727 0,0 -1.601195,-11.54404 1.868061,-13.90531 3.469256,-2.36129 12.809563,-4.98492 13.34329,-3.41073 0.533735,1.57418 2.401792,-7.34619 2.935528,-11.28166 z"
     id="path1166"
     inkscape:connector-curvature="0" />
  <path
     style="fill:#666666;stroke:#000000;stroke-width:0.75601554px;stroke-linecap:butt;stroke-linejoin:miter;stroke-opacity:1"
     d="m 65.349178,126.46218 c 0,0 -6.938512,3.6731 -9.340303,3.93545 -2.401795,0.26238 -4.536722,-3.93545 -8.539708,-3.93545 -4.002989,0 -7.73911,2.36129 -5.871049,3.93545 1.86806,1.57419 8.272842,-0.52472 8.272842,-0.52472 0,0 6.137915,0.52472 6.137915,1.83655 0,1.31183 11.742096,-5.50964 10.941498,-0.52472 z"
     id="path1172"
     inkscape:connector-curvature="0" />
  <path
     style="fill:#ffffff;stroke:#000000;stroke-width:0.75601554px;stroke-linecap:butt;stroke-linejoin:miter;stroke-opacity:1"
     d="m 56.542606,140.89221 c 0,0 -4.803585,-0.26238 -4.269853,1.3118 0.533731,1.5742 6.137913,9.96987 8.27284,9.44513 2.134925,-0.52474 2.935525,-2.36128 2.935525,-2.36128 0,0 -5.604183,-7.34619 -6.938512,-8.39565 z"
     id="path1174"
     inkscape:connector-curvature="0" />
  <path
     style="fill:#000000;stroke:#000000;stroke-width:0.75601554px;stroke-linecap:butt;stroke-linejoin:miter;stroke-opacity:1"
     d="m 221.4657,50.114205 c 0,0 -30.15585,29.122431 -33.89197,28.860063 -3.73612,-0.262368 -7.20538,0.787083 -6.93852,-2.886016 0.26688,-3.673098 12.27584,-13.905295 14.14391,-16.266574 1.86805,-2.361277 5.33732,-4.197825 4.26985,-4.197825 -1.06747,0 -11.47524,2.098912 -13.87704,-0.52473 -2.40179,-2.62364 0,-11.544021 0.80061,-12.855842 0.80059,-1.311821 26.68658,-23.87514 30.68957,-21.251499 4.003,2.623642 14.41075,10.232202 13.61015,11.806388 -0.8006,1.574185 -27.48718,20.989133 -28.82151,23.875139 -1.33431,2.886005 -16.54567,14.954762 -16.54567,14.954762 0,0 -5.6042,5.247275 -1.86806,5.247275 3.73611,0 9.07343,-0.787094 13.87702,-6.034368 4.80358,-5.247286 22.6836,-21.513865 24.55166,-20.726773 z"
     id="path1178"
     inkscape:connector-curvature="0" />
  <path
     style="fill:#808080;stroke:#000000;stroke-width:0.75601554px;stroke-linecap:butt;stroke-linejoin:miter;stroke-opacity:1"
     d="m 212.12539,11.021944 c 0,0 -54.70749,39.879353 -55.24122,50.636285 -0.53375,10.756925 -17.88002,23.612775 -17.88002,23.612775 l -29.08838,21.776226 5.87104,4.98492 c 0,0 26.95346,-15.217116 29.62212,-16.791303 2.66865,-1.574186 10.1409,-6.034378 17.61314,-3.935466 0,0 8.53971,-6.296745 11.20838,-9.445108 2.66864,-3.148373 6.9385,-13.642942 6.9385,-18.62786 0,-4.984919 -2.40179,-22.038589 12.80958,-34.107342 l 14.14387,-9.445109 c 0,0 -1.06746,-5.247283 4.00299,-8.658018 z"
     id="path1180"
     inkscape:connector-curvature="0" />
  <path
     style="fill:none;stroke:#000000;stroke-width:0.75601554px;stroke-linecap:butt;stroke-linejoin:miter;stroke-opacity:1"
     d="m 139.00415,102.32468 c 0,0 6.93851,-0.26237 8.27285,1.04946"
     id="path1182"
     inkscape:connector-curvature="0" />
  <path
     style="fill:none;stroke:#000000;stroke-width:0.75601554px;stroke-linecap:butt;stroke-linejoin:miter;stroke-opacity:1"
     d="m 143.54087,97.864484 c 0,0 9.60716,-1.04945 11.20837,0.787094"
     id="path1184"
     inkscape:connector-curvature="0" />
  <path
     style="fill:none;stroke:#000000;stroke-width:0.75601554px;stroke-linecap:butt;stroke-linejoin:miter;stroke-opacity:1"
     d="m 150.47939,92.354832 c 0,0 10.67462,-0.262358 10.67462,1.574186"
     id="path1186"
     inkscape:connector-curvature="0" />
  <path
     style="fill:#666666;stroke:#000000;stroke-width:0.75601554px;stroke-linecap:butt;stroke-linejoin:miter;stroke-opacity:1"
     d="m 204.65315,4.9875674 c 0,0 -55.24124,44.0771816 -53.37315,44.3395456 1.86803,0.262363 -1.06748,5.247283 2.93549,5.77201 4.00301,0.52473 -2.1349,14.954762 -2.1349,14.954762 0,0 -36.8275,30.171875 -38.69556,30.434235 -1.86806,0.26237 -6.13791,-1.836542 -6.13791,-1.836542 0,0 -1.6012,4.722562 -2.13492,6.034372 -0.53373,1.31182 1.06745,2.09891 -1.33432,4.19782 -2.40181,2.09893 -5.604192,0 -5.604192,0 l -5.337328,-0.78708 c 0,0 -6.137914,4.19782 -5.33731,8.65802 0.800595,4.46018 -2.401798,4.19783 -2.401798,4.19783 0,0 -12.809562,-7.60857 -14.677624,-0.26237 l -0.53373,4.72255 c 0,0 0.53373,-7.34619 5.07045,-5.77202 4.536724,1.57419 10.674634,0 10.140904,3.67311 -0.533736,3.67309 -8.005977,10.49456 -10.407769,10.49456 -2.401793,0 -2.401793,4.46018 -0.800599,4.46018 1.601195,0 7.739113,-0.78708 9.073444,0.52474 1.334328,1.31182 -2.935529,15.47949 -4.80359,16.00421 -1.868061,0.52473 -0.800598,-4.98491 1.334334,-7.08383 2.134925,-2.09892 1.60119,-7.08384 1.60119,-7.08384 0,0 -0.800596,1.04948 -4.803585,3.14838 -4.002987,2.09892 -8.806571,12.06875 -8.806571,12.06875 0,0 -18.146878,14.43003 -19.214341,14.6924 -1.067464,0.26236 6.671646,-1.57419 11.208365,-4.98493 4.53672,-3.41073 16.011949,-10.2322 19.481208,-6.82147 0,0 14.143892,-11.80638 15.211351,-16.00421 1.06746,-4.19782 18.146871,-13.38056 17.346281,-14.69239 -0.80059,-1.31182 -4.53672,-4.46019 -6.67164,-3.6731 -2.13493,0.7871 -3.46926,-3.93546 -3.20239,-7.3462 0.26685,-3.41072 6.13791,-7.87093 6.13791,-7.87093 l 2.13492,-2.0989 c 0,0 37.62809,-28.33533 38.16181,-29.647149 0,0 8.27284,-8.920385 8.80659,-15.217124 0.53373,-6.296741 16.54568,-19.677312 16.54568,-19.677312 l 25.35226,-22.825683 13.34328,-8.658018 z"
     id="path1188"
     inkscape:connector-curvature="0" />
  <path
     style="fill:#4d4d4d;stroke:#000000;stroke-width:0.75601554px;stroke-linecap:butt;stroke-linejoin:miter;stroke-opacity:1"
     d="M 40.263788,159.78242 53.340215,149.0255 c 0,0 8.806573,3.41074 7.472244,6.82146 -1.334329,3.41073 -15.478218,13.38057 -15.478218,13.38057 0,0 -7.205379,-4.98491 -5.070453,-9.44511 z"
     id="path1190"
     inkscape:connector-curvature="0" />
  <path
     style="fill:none;stroke:#000000;stroke-width:0.75601554px;stroke-linecap:butt;stroke-linejoin:miter;stroke-opacity:1"
     d="m 110.71638,127.24927 c 0,0 20.81552,-19.93968 23.75105,-19.67732 2.93553,0.26237 17.07941,0.52474 18.14688,-0.52472 1.06745,-1.04946 25.35227,-20.726766 26.68657,-23.088045 1.33433,-2.36128 -0.53372,-3.673098 5.07046,-5.77201 5.60418,-2.098923 24.28479,-16.528946 25.35226,-18.627861 1.06747,-2.098913 11.7421,-9.445109 11.7421,-9.445109 0,0 0.53373,-7.60856 -2.66867,-7.60856 -3.20238,0 10.40776,-6.559105 11.20837,-9.707475 0,0 -17.88001,-21.776226 -17.88001,-21.776226"
     id="path1194"
     inkscape:connector-curvature="0" />
  <path
     style="fill:#000000;stroke:#000000;stroke-width:0.75601554px;stroke-linecap:butt;stroke-linejoin:miter;stroke-opacity:1"
     d="m 127.52892,128.56109 c 0,0 -6.13792,9.70746 -8.27284,8.65801 -2.13494,-1.04944 -4.80359,-0.26236 -5.60419,1.57419 -0.80059,1.83654 0.8006,-5.77201 -2.66866,-6.5591 -3.46926,-0.78708 5.07046,2.36127 7.73912,-2.62365 0,0 8.80657,-1.04945 8.80657,-1.04945 z"
     id="path1199"
     inkscape:connector-curvature="0" />
  <path
     style="fill:#4d4d4d;stroke:#000000;stroke-width:0.75601554px;stroke-linecap:butt;stroke-linejoin:miter;stroke-opacity:1"
     d="m 101.64294,158.4706 c 0,0 -1.868063,-4.98492 4.00298,-11.28165 5.87105,-6.29674 12.5427,-11.54403 12.5427,-11.54403 0,0 -6.67165,18.10313 -16.54568,22.82568"
     id="path1201"
     inkscape:connector-curvature="0" />
  <path
     style="fill:#333333;stroke:#000000;stroke-width:0.75601554px;stroke-linecap:butt;stroke-linejoin:miter;stroke-opacity:1"
     d="m 96.038749,141.67931 c 0,0 4.269861,-4.46021 6.137921,-3.93547 1.86804,0.52471 7.20538,-0.52474 4.5367,4.19783 -2.66866,4.72255 -14.14388,20.72677 -5.07043,16.52893 0,0 10.67462,-9.70747 11.20836,-7.3462 0.53373,2.36128 4.00299,3.6731 0.53373,10.2322 -3.46926,6.55912 -6.93851,10.49458 -6.93851,10.49458"
     id="path1203"
     inkscape:connector-curvature="0" />
  <path
     style="fill:#333333;stroke:#000000;stroke-width:0.75601554px;stroke-linecap:butt;stroke-linejoin:miter;stroke-opacity:1"
     d="m 113.65189,162.40607 c 0,0 5.87106,2.36127 4.80359,5.24729 -1.06746,2.886 -1.33434,5.50965 -1.33434,5.50965 l -10.67462,-1.31183 c 0,0 -14.14389,2.62364 -10.140901,4.19782"
     id="path1205"
     inkscape:connector-curvature="0" />
  <path
     style="fill:#333333;stroke:#000000;stroke-width:0.75601554px;stroke-linecap:butt;stroke-linejoin:miter;stroke-opacity:1"
     d="m 96.305619,176.049 c 0,0 1.334329,2.62365 6.404781,3.41074 5.07045,0.78708 12.27582,1.31181 15.47822,4.98491 3.20238,3.6731 8.00597,0 8.00597,0 0,0 -1.33433,-8.13328 -2.40179,-9.4451 -1.06747,-1.31183 -6.67166,-1.83654 -6.67166,-1.83654"
     id="path1207"
     inkscape:connector-curvature="0" />
  <path
     style="fill:none;stroke:#000000;stroke-width:0.75601554px;stroke-linecap:butt;stroke-linejoin:miter;stroke-opacity:1"
     d="M 113.65189,162.40607 Z"
     id="path1211"
     inkscape:connector-curvature="0" />
  <path
     style="fill:none;stroke:#000000;stroke-width:0.75601554px;stroke-linecap:butt;stroke-linejoin:miter;stroke-opacity:1"
     d="m 113.65189,162.40607 c -0.35582,-0.34982 -0.35582,-0.34982 0,0 z"
     id="path1213"
     inkscape:connector-curvature="0" />
  <path
     style="fill:#333333;stroke:#000000;stroke-width:0.75601554px;stroke-linecap:butt;stroke-linejoin:miter;stroke-opacity:1"
     d="m 98.707408,178.41027 c 0,0 -13.076426,0.52474 -13.076426,4.19784"
     id="path1215"
     inkscape:connector-curvature="0" />
  <path
     style="fill:#333333;stroke:#000000;stroke-width:0.75601554px;stroke-linecap:butt;stroke-linejoin:miter;stroke-opacity:1"
     d="m 85.630982,182.60811 c 0,0 -0.800598,4.19783 1.334331,4.46019 2.134929,0.26237 12.542694,0.7871 14.143897,3.14837 0,0 13.34328,3.6731 13.61015,6.82146 0,0 6.93852,0.26238 7.47225,-11.28165"
     id="path1217"
     inkscape:connector-curvature="0" />
  <path
     style="fill:#333333;stroke:#000000;stroke-width:0.75601554px;stroke-linecap:butt;stroke-linejoin:miter;stroke-opacity:1"
     d="m 47.736032,189.42958 c 0,0 -4.536718,6.29674 -6.938511,8.92038 -2.401793,2.62364 -9.073439,9.96983 -9.073439,11.54401 0,1.57419 -17.613144,13.64293 -17.613144,13.64293 0,0 -6.1379157,2.09892 -5.8710509,4.4602 0.266867,2.36127 1.3343305,13.9053 3.4692579,14.43003 2.134926,0.52473 9.073439,9.70748 13.610157,7.3462 4.536719,-2.36128 25.085389,-8.39566 27.220316,-12.3311 2.134926,-3.93547 29.355246,-17.0537 29.355246,-17.0537 l 8.272835,-5.24728 -6.137909,-2.09892 -1.601199,2.62365 c 0,0 -9.073439,2.09892 -9.073439,2.09892 l -9.073438,-5.50966 c 0,0 -2.935523,-9.70745 -9.874034,-14.16764 -6.938513,-4.46019 -6.671648,-8.65802 -6.671648,-8.65802 z"
     id="path1232"
     inkscape:connector-curvature="0" />
</svg>
