<svg xmlns="http://www.w3.org/2000/svg" xmlns:xlink="http://www.w3.org/1999/xlink" viewBox="0 0 256 256">
    <defs>
        <linearGradient id="innoGrad6">
            <stop offset="0" stop-color="#ff2a2a" stop-opacity="0"/>
            <stop offset="1" stop-color="#ff2a2a" stop-opacity=".502"/>
        </linearGradient>
        <linearGradient id="innoGrad5">
            <stop offset="0" stop-color="#ff2a2a" stop-opacity="0"/>
            <stop offset=".444" stop-color="#ff2a2a" stop-opacity=".502"/>
            <stop offset=".453" stop-color="#ff2a2a" stop-opacity=".502"/>
            <stop offset="1" stop-color="#ff2a2a" stop-opacity="0"/>
        </linearGradient>
        <linearGradient id="innoGrad4">
            <stop offset="0" stop-color="#ff2a2a" stop-opacity="0"/>
            <stop offset=".547" stop-color="#ff2a2a" stop-opacity=".502"/>
            <stop offset=".556" stop-color="#ff2a2a" stop-opacity=".502"/>
            <stop offset="1" stop-color="#ff2a2a" stop-opacity="0"/>
        </linearGradient>
        <linearGradient id="innoGrad3">
            <stop offset="0" stop-color="#ff7f2a" stop-opacity=".502"/>
            <stop offset="1" stop-color="#ff7f2a" stop-opacity="0"/>
        </linearGradient>
        <linearGradient id="innoGrad2">
            <stop offset="0" stop-color="#ff7f2a" stop-opacity="0"/>
            <stop offset="1" stop-color="#ff7f2a" stop-opacity=".502"/>
        </linearGradient>
        <linearGradient id="innoGrad1">
            <stop offset="0" stop-color="#ff2a2a" stop-opacity=".502"/>
            <stop offset="1" stop-color="#ff2a2a" stop-opacity="0"/>
        </linearGradient>
        <linearGradient id="linearGradient910" x1="146.396" x2="146.396" y1="33.728" y2="7.841" gradientUnits="userSpaceOnUse" xlink:href="#innoGrad1"/>
        <linearGradient id="linearGradient933" x1="9.008" x2="42.491" y1="192.666" y2="192.666" gradientUnits="userSpaceOnUse" xlink:href="#innoGrad2"/>
        <linearGradient id="linearGradient956" x1="64.054" x2="134.171" y1="128.779" y2="128.779" gradientUnits="userSpaceOnUse" xlink:href="#innoGrad3"/>
        <linearGradient id="linearGradient1003" x1="9.379" x2="130.123" y1="136.237" y2="136.237" gradientUnits="userSpaceOnUse" xlink:href="#innoGrad4"/>
        <linearGradient id="linearGradient1036" x1="96.995" x2="124.47" y1="24.439" y2="24.439" gradientUnits="userSpaceOnUse" xlink:href="#innoGrad1"/>
        <linearGradient id="linearGradient1067" x1="57.276" x2="80.35" y1="61.334" y2="61.334" gradientUnits="userSpaceOnUse" xlink:href="#innoGrad2"/>
        <linearGradient id="linearGradient1092" x1="213.51" x2="246.992" y1="192.667" y2="192.667" gradientUnits="userSpaceOnUse" xlink:href="#innoGrad3"/>
        <linearGradient id="linearGradient1115" x1="121.828" x2="191.944" y1="128.781" y2="128.781" gradientUnits="userSpaceOnUse" xlink:href="#innoGrad2"/>
        <linearGradient id="linearGradient1140" x1="125.876" x2="246.624" y1="136.237" y2="136.237" gradientUnits="userSpaceOnUse" xlink:href="#innoGrad5"/>
        <linearGradient id="linearGradient1177" x1="128.226" x2="150.864" y1="24.235" y2="24.235" gradientUnits="userSpaceOnUse" xlink:href="#innoGrad6"/>
        <linearGradient id="linearGradient1208" x1="175.654" x2="198.723" y1="61.334" y2="61.334" gradientUnits="userSpaceOnUse" xlink:href="#innoGrad3"/>
        <linearGradient id="linearGradient1233" x1="112.248" x2="125.965" y1="186.378" y2="186.378" gradientUnits="userSpaceOnUse" xlink:href="#innoGrad1"/>
        <linearGradient id="linearGradient1256" x1="123.815" x2="151.35" y1="187.067" y2="187.067" gradientUnits="userSpaceOnUse" xlink:href="#innoGrad6"/>
        <linearGradient id="linearGradient1319" x1="112.248" x2="125.965" y1="186.378" y2="186.378" gradientTransform="translate(1.194 -46.486)" gradientUnits="userSpaceOnUse" xlink:href="#innoGrad1"/>
        <linearGradient id="linearGradient1321" x1="123.815" x2="151.35" y1="187.067" y2="187.067" gradientTransform="translate(1.194 -46.486)" gradientUnits="userSpaceOnUse" xlink:href="#innoGrad6"/>
        <linearGradient id="linearGradient1351" x1="112.248" x2="125.965" y1="186.378" y2="186.378" gradientTransform="translate(1.416 -93.288)" gradientUnits="userSpaceOnUse" xlink:href="#innoGrad1"/>
        <linearGradient id="linearGradient1353" x1="123.815" x2="151.35" y1="187.067" y2="187.067" gradientTransform="translate(1.416 -93.288)" gradientUnits="userSpaceOnUse" xlink:href="#innoGrad6"/>
        <linearGradient id="linearGradient1383" x1="112.248" x2="125.965" y1="186.378" y2="186.378" gradientTransform="rotate(-3.933 -1861.132 89.744)" gradientUnits="userSpaceOnUse" xlink:href="#innoGrad1"/>
        <linearGradient id="linearGradient1385" x1="123.815" x2="151.35" y1="187.067" y2="187.067" gradientTransform="rotate(-3.933 -1861.132 89.744)" gradientUnits="userSpaceOnUse" xlink:href="#innoGrad6"/>
    </defs>
    <g>
        <path fill="#f55" d="M111.612 10.372S116.023 8 128.29 8c15.521 0 17.549 3.3 17.549 3.3l-18.147 46.058z"/>
        <path fill="url(#linearGradient910)" stroke="#000" stroke-miterlimit="10" d="M111.612 10.372S116.023 8 128.29 8c15.521 0 17.549 3.3 17.549 3.3l-18.147 46.058z"/>
    </g>
    <g>
        <path fill="#ffb380" d="M41.876 194.912c.387-.672-9.014.84-17.015-1.391-8-2.225-14.744-6.733-14.744-6.733s-1.132 1.286-.33 2.887c.141.287.84 1.644 2.405 2.325 1.098.478 2.81.175 4.249.87 1.698.823 3.089 2.253 5.213 2.977 2.332.796 5.878.759 8.261 1.288 5.695 1.255 9.734 2.31 10.666.88 2.406-3.688.912-2.429 1.295-3.103z"/>
        <path fill="url(#linearGradient933)" stroke="#000" stroke-miterlimit="10" d="M41.876 194.912c.387-.672-9.014.84-17.015-1.391-8-2.225-14.744-6.733-14.744-6.733s-1.132 1.286-.33 2.887c.141.287.84 1.644 2.405 2.325 1.098.478 2.81.175 4.249.87 1.698.823 3.089 2.253 5.213 2.977 2.332.796 5.878.759 8.261 1.288 5.695 1.255 9.734 2.31 10.666.88 2.406-3.688.912-2.429 1.295-3.103z"/>
        <path fill="#ffb380" d="M102.162 28.171s-.608 8.179 4.896 11.381c5.146 2.996 15.573 1.482 16.078 2.489 1.042 2.085 6.135 198.714 4.851 199.677-.511.383-9.071.085-21.333-2.087-18.409-3.255-41.147-8.112-41.702-7.381-.555.73-.555 1.367.164 2.331.723.964 44.057 11.613 61.588 13.473 4.045.431 6.518-.531 6.899-1.284.385-.772-1.093-7.944-1.121-19.084-.147-46.398-1.666-161.631-2.252-170.488-.72-10.986-3.528-15.806-3.528-15.806s3.044-.677 3.769-2.798c0 0-.075-13.637-.241-16.282-.093-1.617-6.032-5.526-10.883-7.817-3.087-1.459-5.84-1.756-6.023-2.023-.473-.685 5.359-2.005 5.18-2.487-.233-.624-7.92-2.186-11.116 4.997-1.25 2.807-1.026 8.069-2.013 11.259-.74 2.394-3.213 1.93-3.213 1.93z"/>
        <path fill="url(#linearGradient956)" stroke="#000" stroke-miterlimit="10" d="M102.162 28.171s-.608 8.179 4.896 11.381c5.146 2.996 15.573 1.482 16.078 2.489 1.042 2.085 6.135 198.714 4.851 199.677-.511.383-9.071.085-21.333-2.087-18.409-3.255-41.147-8.112-41.702-7.381-.555.73-.555 1.367.164 2.331.723.964 44.057 11.613 61.588 13.473 4.045.431 6.518-.531 6.899-1.284.385-.772-1.093-7.944-1.121-19.084-.147-46.398-1.666-161.631-2.252-170.488-.72-10.986-3.528-15.806-3.528-15.806s3.044-.677 3.769-2.798c0 0-.075-13.637-.241-16.282-.093-1.617-6.032-5.526-10.883-7.817-3.087-1.459-5.84-1.756-6.023-2.023-.473-.685 5.359-2.005 5.18-2.487-.233-.624-7.92-2.186-11.116 4.997-1.25 2.807-1.026 8.069-2.013 11.259-.74 2.394-3.213 1.93-3.213 1.93z"/>
        <path fill="#ff8080" d="M9.904 188.178c.802 3.526 29.26 10.362 31.344 8.436.849-.788 5.034-15.539 12.002-34.362 10.112-27.323 23.256-60.308 23.256-60.308s3.646 20.487.319 44.75a656.658 656.658 0 0 1-1.165 8.129c-4.14 27.794-9.477 53.28-10.062 63.08-.284 4.797-1.127 12.743-.646 14.349.481 1.603 21.9 5.363 34.323 7.78 5.526 1.081 12.246 2.46 18.783 3.457 7.331 1.12 9.777 1.263 11.221-.688.543-.732.335-4.394.113-17.682-.412-24.752-1.205-64.836-1.084-101.764.092-27.425 1.631-64.574-5.171-81.313-.849-2.087-16.613-5.756-18.192-8.66-1.837-3.384-1.333-4.213-1.977-5.056-.64-.838-11.086 1.772-21.329 4.652-10.394 2.922-19.326 6.82-21.012 8.021-1.683 1.197-16.044 27.018-27.745 60.463-13.78 39.392-23.414 84.81-22.978 86.716z"/>
        <path fill="url(#linearGradient1003)" stroke="#000" stroke-miterlimit="10" d="M9.904 188.178c.802 3.526 29.26 10.362 31.344 8.436.849-.788 5.034-15.539 12.002-34.362 10.112-27.323 23.256-60.308 23.256-60.308s3.646 20.487.319 44.75a656.658 656.658 0 0 1-1.165 8.129c-4.14 27.794-9.477 53.28-10.062 63.08-.284 4.797-1.127 12.743-.646 14.349.481 1.603 21.9 5.363 34.323 7.78 5.526 1.081 12.246 2.46 18.783 3.457 7.331 1.12 9.777 1.263 11.221-.688.543-.732.335-4.394.113-17.682-.412-24.752-1.205-64.836-1.084-101.764.092-27.425 1.631-64.574-5.171-81.313-.849-2.087-16.613-5.756-18.192-8.66-1.837-3.384-1.333-4.213-1.977-5.056-.64-.838-11.086 1.772-21.329 4.652-10.394 2.922-19.326 6.82-21.012 8.021-1.683 1.197-16.044 27.018-27.745 60.463-13.78 39.392-23.414 84.81-22.978 86.716z"/>
        <path fill="#ff8080" d="M108.158 13.677s15.001 8.196 15.321 9.961c.32 1.765.983 9.958-.121 11.278-1.095 1.318-4.627-.539-10.208-3.626-4.62-2.559-7.512-6.081-7.512-6.081s.167-4.338.842-7.585c.504-2.413 1.678-3.947 1.678-3.947z"/>
        <path fill="url(#linearGradient1036)" stroke="#000" stroke-miterlimit="10" d="M108.158 13.677s15.001 8.196 15.321 9.961c.32 1.765.983 9.958-.121 11.278-1.095 1.318-4.627-.539-10.208-3.626-4.62-2.559-7.512-6.081-7.512-6.081s.167-4.338.842-7.585c.504-2.413 1.678-3.947 1.678-3.947z"/>
        <path fill="#ffb380" d="M57.868 45.13s9.888 14.084 11.887 17.281c2.003 3.193 10.04 17.723 10.04 17.723l-.198-7.381s-2.452-5.433-6.942-12.588c-4.489-7.155-11.626-19.168-12.028-19.167-.398.002-2.759 4.132-2.759 4.132z"/>
        <path fill="url(#linearGradient1067)" stroke="#000" stroke-miterlimit="10" d="M57.868 45.13s9.888 14.084 11.887 17.281c2.003 3.193 10.04 17.723 10.04 17.723l-.198-7.381s-2.452-5.433-6.942-12.588c-4.489-7.155-11.626-19.168-12.028-19.167-.398.002-2.759 4.132-2.759 4.132z"/>
        <path d="M76.99 102.065a1456.315 1456.315 0 0 1 1.93-7.537c.308-1.183.552-2.1.72-2.712.103-.376.185-.84.25-1.321.073-.533.13-1.118.176-1.693.106-1.338.162-2.79.193-3.872.097-3.43.031-4.801.037-4.8-.016-.002-.008-2.005-.317-7.753-.098-1.82-.257-4.385-.501-7.022-.195-2.098-.475-4.571-.871-6.758-.996-5.49-3.97-12.022-4.587-11.504-.082.069 3.119 5.56 4.075 11.59.345 2.176.576 4.631.731 6.726.195 2.64.303 5.176.365 7.003.186 5.561.09 7.722.105 7.725-.015-.001.026 1.37-.064 4.765a80.028 80.028 0 0 1-.182 3.82c-.044.564-.098 1.13-.166 1.637a9.712 9.712 0 0 1-.22 1.19c-.168.619-.41 1.542-.717 2.727-.266 1.026-.566 2.196-.874 3.405l-.846 3.326-.206.814z"/>
        <path fill="none" stroke="#ff2a2a" stroke-miterlimit="10" stroke-width=".25" d="M76.909 102.267s.694 2.284.881 4.17c.221 2.222-.034 4.08.399 3.689.416-.371.34-5.281.644-10.023.282-4.439.963-8.74.963-8.74M111.15 37.552s2.336 7.178 2.952 21.089c1.027 23.252.562 58.842.654 63.754l2.302 120.936M99.112 28.578s1.683 21.547 1.771 48.511c.162 48.678 1.256 118.738 1.298 124.377.067 8.739 3.074 39.738 3.074 39.738M89.897 30.738s-3.23-.114-3.128 13.072c.128 16.4 3.597 48.76 3.609 73.615.01 20.488-.722 41.467-.481 59.586.359 27.155 2.542 47.334 2.576 48.666.102 4.165 2.577 13.545 2.577 13.545M76.025 34.916s-.288 3.32-1.201 6.083c-.646 1.952-2.079 3.248-1.847 4.574M36.57 194.333s9.865-35.454 20.048-66.887C63.46 106.324 71.323 87.019 73.137 81.5c2.51-7.635 1.986-9.749 1.986-9.749M66.803 58.885S54.662 89.683 44.59 119.593c-8.44 25.061-14.979 49.67-16.04 53.325-2.325 8.023-4.248 20.443-4.248 20.443M62.545 51.826s-1.537 7.517-6.005 16.843c-4.802 10.011-12.741 22.353-18.525 37.05-11.273 28.641-20.363 60.173-21.573 63.27-2.405 6.181-2.957 19.797-2.957 19.797M80.995 101.943s2.163 11.914 2.118 27.588c-.087 31.177-5.004 50.359-2.118 86.769.965 12.147 4.41 21.083 4.41 21.083M75.174 235.317s-3.303-9.879-3.479-20.463c-.178-10.581 2.324-49.47 2.324-49.47"/>
        <path fill="none" stroke="#000" stroke-miterlimit="10" stroke-width=".5" d="M66.803 39.236s-3.296 1.962-4.848 3.61c-1.555 1.648-3.172 4.892-3.172 4.892M70.09 42.364s-3.226.704-4.811 2.487c-.827.928-1.209 2.924-1.923 4.49a9.832 9.832 0 0 1-1.686 2.484M70.09 47.738s-3.413.64-4.648 2.405c-1.239 1.765-1.366 6.172-1.366 6.172M72.954 53.188l-6.151 8.34M76.025 59.684l-5.292 7.538"/>
        <circle cx="72.817" cy="53.229" r="1.203" stroke="#000" stroke-miterlimit="10"/>
        <path stroke="#000" stroke-miterlimit="10" d="M74.487 59.69a1.211 1.211 0 0 0 2.421 0 1.21 1.21 0 0 0-2.421 0z"/>
        <circle cx="70.733" cy="67.222" r="1.191" stroke="#000" stroke-miterlimit="10"/>
        <circle cx="66.884" cy="61.768" r="1.204" stroke="#000" stroke-miterlimit="10"/>
    </g>
    <g>
        <path fill="#ffb380" d="M214.123 194.913c-.384-.672 9.014.84 17.012-1.391 8.005-2.225 14.75-6.733 14.75-6.733s1.131 1.285.326 2.887c-.14.287-.839 1.643-2.4 2.324-1.104.479-2.812.176-4.252.87-1.701.824-3.092 2.254-5.215 2.977-2.326.796-5.875.759-8.26 1.288-5.692 1.256-9.735 2.311-10.667.881-2.4-3.689-.911-2.429-1.294-3.103z"/>
        <path fill="url(#linearGradient1092)" stroke="#000" stroke-miterlimit="10" d="M214.123 194.913c-.384-.672 9.014.84 17.012-1.391 8.005-2.225 14.75-6.733 14.75-6.733s1.131 1.285.326 2.887c-.14.287-.839 1.643-2.4 2.324-1.104.479-2.812.176-4.252.87-1.701.824-3.092 2.254-5.215 2.977-2.326.796-5.875.759-8.26 1.288-5.692 1.256-9.735 2.311-10.667.881-2.4-3.689-.911-2.429-1.294-3.103z"/>
        <path fill="#ffb380" d="M153.832 28.172s.617 8.179-4.889 11.381c-5.147 2.996-15.576 1.482-16.081 2.489-1.042 2.085-6.135 198.714-4.851 199.677.511.384 9.071.086 21.333-2.086 18.408-3.256 41.147-8.113 41.706-7.382.551.73.551 1.367-.172 2.332-.723.963-44.049 11.613-61.584 13.473-4.045.43-6.521-.532-6.898-1.285-.385-.772 1.09-7.943 1.125-19.084.14-46.397 1.661-161.63 2.243-170.487.723-10.986 3.531-15.806 3.531-15.806s-3.048-.677-3.772-2.798c0 0 .083-13.637.241-16.282.098-1.617 6.04-5.526 10.891-7.817 3.079-1.459 5.832-1.756 6.023-2.023.473-.685-5.362-2.005-5.185-2.487.233-.624 7.922-2.186 11.117 4.997 1.253 2.807 1.026 8.069 2.012 11.259.741 2.393 3.21 1.928 3.21 1.929z"/>
        <path fill="url(#linearGradient1115)" stroke="#000" stroke-miterlimit="10" d="M153.832 28.172s.617 8.179-4.889 11.381c-5.147 2.996-15.576 1.482-16.081 2.489-1.042 2.085-6.135 198.714-4.851 199.677.511.384 9.071.086 21.333-2.086 18.408-3.256 41.147-8.113 41.706-7.382.551.73.551 1.367-.172 2.332-.723.963-44.049 11.613-61.584 13.473-4.045.43-6.521-.532-6.898-1.285-.385-.772 1.09-7.943 1.125-19.084.14-46.397 1.661-161.63 2.243-170.487.723-10.986 3.531-15.806 3.531-15.806s-3.048-.677-3.772-2.798c0 0 .083-13.637.241-16.282.098-1.617 6.04-5.526 10.891-7.817 3.079-1.459 5.832-1.756 6.023-2.023.473-.685-5.362-2.005-5.185-2.487.233-.624 7.922-2.186 11.117 4.997 1.253 2.807 1.026 8.069 2.012 11.259.741 2.393 3.21 1.928 3.21 1.929z"/>
        <path fill="#ff8080" d="M246.099 188.178c-.806 3.527-29.264 10.362-31.349 8.436-.848-.788-5.032-15.538-12.001-34.362-10.107-27.323-23.255-60.307-23.255-60.307s-3.648 20.487-.32 44.75c.37 2.721.766 5.432 1.165 8.128 4.14 27.794 9.477 53.28 10.057 63.08.289 4.797 1.134 12.744.654 14.349-.481 1.604-21.905 5.364-34.326 7.781-5.526 1.081-12.246 2.459-18.783 3.456-7.326 1.121-9.777 1.264-11.221-.688-.542-.732-.334-4.394-.112-17.681.412-24.752 1.205-64.836 1.084-101.765-.093-27.425-1.627-64.574 5.171-81.313.845-2.087 16.613-5.756 18.188-8.66 1.836-3.384 1.341-4.213 1.98-5.056.64-.838 11.087 1.772 21.333 4.652 10.39 2.922 19.32 6.82 21.008 8.021 1.688 1.197 16.048 27.018 27.745 60.463 13.778 39.392 23.414 84.811 22.982 86.716z"/>
        <path fill="url(#linearGradient1140)" stroke="#000" stroke-miterlimit="10" d="M246.099 188.178c-.806 3.527-29.264 10.362-31.349 8.436-.848-.788-5.032-15.538-12.001-34.362-10.107-27.323-23.255-60.307-23.255-60.307s-3.648 20.487-.32 44.75c.37 2.721.766 5.432 1.165 8.128 4.14 27.794 9.477 53.28 10.057 63.08.289 4.797 1.134 12.744.654 14.349-.481 1.604-21.905 5.364-34.326 7.781-5.526 1.081-12.246 2.459-18.783 3.456-7.326 1.121-9.777 1.264-11.221-.688-.542-.732-.334-4.394-.112-17.681.412-24.752 1.205-64.836 1.084-101.765-.093-27.425-1.627-64.574 5.171-81.313.845-2.087 16.613-5.756 18.188-8.66 1.836-3.384 1.341-4.213 1.98-5.056.64-.838 11.087 1.772 21.333 4.652 10.39 2.922 19.32 6.82 21.008 8.021 1.688 1.197 16.048 27.018 27.745 60.463 13.778 39.392 23.414 84.811 22.982 86.716z"/>
        <path fill="#ff8080" d="M147.837 13.677s-18.221 8.629-18.542 10.395c-.319 1.765-1.103 9.021 0 10.346 1.1 1.313 7.973-.04 13.554-3.127 4.62-2.559 7.508-6.081 7.508-6.081s-.163-4.338-.838-7.585c-.504-2.414-1.682-3.948-1.682-3.948z"/>
        <path fill="url(#linearGradient1177)" stroke="#000" stroke-miterlimit="10" d="M147.837 13.677s-18.221 8.629-18.542 10.395c-.319 1.765-1.103 9.021 0 10.346 1.1 1.313 7.973-.04 13.554-3.127 4.62-2.559 7.508-6.081 7.508-6.081s-.163-4.338-.838-7.585c-.504-2.414-1.682-3.948-1.682-3.948z"/>
        <path fill="#ffb380" d="M198.131 45.131s-9.884 14.084-11.892 17.281c-1.998 3.193-10.031 17.723-10.031 17.723l.194-7.381s2.448-5.433 6.941-12.588c4.486-7.155 11.631-19.168 12.028-19.167.4.002 2.76 4.132 2.76 4.132z"/>
        <path fill="url(#linearGradient1208)" stroke="#000" stroke-miterlimit="10" d="M198.131 45.131s-9.884 14.084-11.892 17.281c-1.998 3.193-10.031 17.723-10.031 17.723l.194-7.381s2.448-5.433 6.941-12.588c4.486-7.155 11.631-19.168 12.028-19.167.4.002 2.76 4.132 2.76 4.132z"/>
        <path d="M179.979 101.822l-.206-.814-.846-3.326c-.309-1.209-.609-2.379-.874-3.405-.307-1.185-.55-2.108-.717-2.726a9.718 9.718 0 0 1-.22-1.19 30.092 30.092 0 0 1-.164-1.637 80.036 80.036 0 0 1-.181-3.82c-.09-3.396-.048-4.767-.063-4.764l-.5.089v.406c0 .65-.005-2.891.207-7.845l.394-.377c.061-1.827.168-4.363.363-7.003.154-2.095.384-4.55.73-6.726.96-6.03 4.16-11.521 4.079-11.59-.615-.517-3.591 6.013-4.59 11.503-.397 2.188-.677 4.661-.87 6.759a184.423 184.423 0 0 0-.5 7.022l.394-.377c-.248 5.682-.207 7.65-.207 7.634l-.5.495c.006 0-.06 1.371.036 4.801.03 1.082.086 2.534.191 3.872.046.574.103 1.16.175 1.693.065.48.147.945.25 1.321.168.611.411 1.529.72 2.713a1490.055 1490.055 0 0 1 1.93 7.537z"/>
        <path fill="none" stroke="#ff2a2a" stroke-miterlimit="10" stroke-width=".25" d="M179.089 102.267s-.694 2.284-.88 4.17c-.22 2.222.034 4.08-.397 3.688-.413-.37-.343-5.281-.641-10.023-.285-4.439-.963-8.74-.963-8.74M144.849 37.552s-2.34 7.177-2.951 21.089c-1.031 23.252-.565 58.842-.653 63.754-.155 7.858-2.298 120.935-2.298 120.935M156.888 28.579s-1.687 21.547-1.771 48.511c-.159 48.678-1.261 118.739-1.304 124.376-.059 8.74-3.065 39.74-3.065 39.74M166.098 30.738s3.23-.113 3.132 13.072c-.132 16.4-3.601 48.761-3.613 73.615-.007 20.488.722 41.468.481 59.586-.354 27.155-2.542 47.335-2.574 48.668-.1 4.164-2.569 13.543-2.569 13.543M179.97 34.917s.292 3.32 1.205 6.083c.644 1.952 2.076 3.248 1.844 4.574M219.43 194.334s-9.862-35.454-20.046-66.888c-6.845-21.122-14.708-40.427-16.521-45.945-2.51-7.635-1.983-9.749-1.983-9.749M189.199 58.885s12.138 30.798 22.214 60.708c8.436 25.061 14.976 49.67 16.032 53.324 2.326 8.023 4.252 20.444 4.252 20.444M193.454 51.826s1.54 7.517 6.005 16.843c4.801 10.011 12.741 22.352 18.524 37.05 11.272 28.64 20.363 60.173 21.574 63.27 2.408 6.18 2.956 19.797 2.956 19.797M175.004 101.944s-2.163 11.914-2.117 27.588c.092 31.177 5 50.359 2.117 86.768-.965 12.148-4.409 21.084-4.409 21.084M180.832 235.317s3.293-9.879 3.476-20.463c.175-10.581-2.326-49.47-2.326-49.47"/>
        <path fill="none" stroke="#000" stroke-miterlimit="10" stroke-width=".5" d="M189.199 39.236s3.289 1.962 4.849 3.61c1.551 1.648 3.168 4.892 3.168 4.892M185.91 42.364s3.225.704 4.81 2.487c.823.928 1.21 2.924 1.928 4.49a9.806 9.806 0 0 0 1.678 2.484M185.91 47.738s3.412.64 4.651 2.405c1.231 1.765 1.362 6.172 1.362 6.172M183.045 53.189l6.154 8.339M179.97 59.684l5.3 7.539"/>
        <path stroke="#000" stroke-miterlimit="10" d="M184.381 53.229a1.2 1.2 0 1 1-2.399 0 1.199 1.199 0 1 1 2.399 0zM181.512 59.691a1.212 1.212 0 0 1-2.423 0 1.21 1.21 0 0 1 2.423 0zM186.452 67.223a1.185 1.185 0 1 1-2.373 0 1.186 1.186 0 1 1 2.373 0z"/>
        <circle cx="189.117" cy="61.768" r="1.206" stroke="#000" stroke-miterlimit="10"/>
    </g>
    <g>
        <path fill="#ffd5d5" d="M112.956 184.532c.241-.48 12.509-.309 12.509-.309v4.329s-12.218.106-12.518-.373c-.299-.478-.232-3.164.009-3.647z"/>
        <path fill="url(#linearGradient1233)" stroke="#000" stroke-miterlimit="10" d="M112.956 184.532c.241-.48 12.509-.309 12.509-.309v4.329s-12.218.106-12.518-.373c-.299-.478-.232-3.164.009-3.647z"/>
        <path fill="#ffd5d5" d="M150.843 187.589c.063.42-1.202 1.803-1.865 1.803-.66 0-24.052.482-24.414 0-.361-.48-.303-4.328 0-4.747.299-.421 22.496.419 23.218.48.714.056 3.007 2.045 3.061 2.464zm-15.297-.693a.642.642 0 0 0 0 1.284.644.644 0 0 0 .648-.644c0-.349-.29-.64-.648-.64zm3.571 0a.642.642 0 0 0 0 1.284.642.642 0 0 0 0-1.284zm3.731 0c-.359 0-.64.29-.64.64 0 .358.28.644.64.644a.642.642 0 0 0 0-1.284zm4.171 0a.64.64 0 0 0-.641.64c0 .358.281.644.641.644a.642.642 0 0 0 0-1.284z"/>
        <path fill="url(#linearGradient1256)" stroke="#000" stroke-miterlimit="10" d="M150.843 187.589c.063.42-1.202 1.803-1.865 1.803-.66 0-24.052.482-24.414 0-.361-.48-.303-4.328 0-4.747.299-.421 22.496.419 23.218.48.714.056 3.007 2.045 3.061 2.464zm-15.297-.693a.642.642 0 0 0 0 1.284.644.644 0 0 0 .648-.644c0-.349-.29-.64-.648-.64zm3.571 0a.642.642 0 0 0 0 1.284.642.642 0 0 0 0-1.284zm3.731 0c-.359 0-.64.29-.64.64 0 .358.28.644.64.644a.642.642 0 0 0 0-1.284zm4.171 0a.64.64 0 0 0-.641.64c0 .358.281.644.641.644a.642.642 0 0 0 0-1.284z"/>
        <path fill="#f55" stroke="#000" stroke-miterlimit="10" d="M120.892 186.688c-.12-.481 1.67-2.89 3.423-3.187 1.753-.302 5.121-.364 5.844 0 .723.358 2.82 2.921 2.883 3.563.063.646-2.284 3.05-2.767 3.354-.481.301-6.072.419-6.614 0-.543-.421-2.649-3.248-2.769-3.73zm6.074-2.18c-2.382 0-2.802 1.145-2.802 2.557 0 1.411.379 2.574 2.802 2.556 2.47-.018 2.798-.469 2.798-2.556 0-1.94-.628-2.557-2.798-2.557z"/>
        <path fill="#f55" stroke="#000" stroke-miterlimit="10" d="M124.601 186.29c.162-.223-2.845-.221-3.007 0-.158.22-.199.941 0 1.182.203.239 3.169.276 3.007.035-.158-.24-.157-.995 0-1.217zM114.665 186.351a1.827 1.827 0 1 1-3.655.003 1.827 1.827 0 0 1 3.655-.003z"/>
        <path fill="#ffd5d5" d="M114.15 138.046c.241-.48 12.509-.309 12.509-.309v4.329s-12.218.106-12.518-.373c-.299-.478-.232-3.164.009-3.647z"/>
        <path fill="url(#linearGradient1319)" stroke="#000" stroke-miterlimit="10" d="M114.15 138.046c.241-.48 12.509-.309 12.509-.309v4.329s-12.218.106-12.518-.373c-.299-.478-.232-3.164.009-3.647z"/>
        <path fill="#ffd5d5" d="M152.037 141.103c.063.42-1.202 1.803-1.865 1.803-.66 0-24.052.482-24.414 0-.361-.48-.303-4.328 0-4.747.299-.421 22.496.419 23.218.48.714.056 3.007 2.045 3.061 2.464zm-15.297-.693a.642.642 0 0 0 0 1.284.644.644 0 0 0 .648-.644c0-.349-.29-.64-.648-.64zm3.571 0a.642.642 0 0 0 0 1.284.642.642 0 0 0 0-1.284zm3.731 0c-.359 0-.64.29-.64.64 0 .358.28.644.64.644a.642.642 0 0 0 0-1.284zm4.171 0a.64.64 0 0 0-.641.64c0 .358.281.644.641.644a.642.642 0 0 0 0-1.284z"/>
        <path fill="url(#linearGradient1321)" stroke="#000" stroke-miterlimit="10" d="M152.037 141.103c.063.42-1.202 1.803-1.865 1.803-.66 0-24.052.482-24.414 0-.361-.48-.303-4.328 0-4.747.299-.421 22.496.419 23.218.48.714.056 3.007 2.045 3.061 2.464zm-15.297-.693a.642.642 0 0 0 0 1.284.644.644 0 0 0 .648-.644c0-.349-.29-.64-.648-.64zm3.571 0a.642.642 0 0 0 0 1.284.642.642 0 0 0 0-1.284zm3.731 0c-.359 0-.64.29-.64.64 0 .358.28.644.64.644a.642.642 0 0 0 0-1.284zm4.171 0a.64.64 0 0 0-.641.64c0 .358.281.644.641.644a.642.642 0 0 0 0-1.284z"/>
        <path fill="#f55" stroke="#000" stroke-miterlimit="10" d="M122.086 140.202c-.12-.481 1.67-2.89 3.423-3.187 1.753-.302 5.121-.364 5.844 0 .723.358 2.82 2.921 2.883 3.563.063.646-2.284 3.05-2.767 3.354-.481.301-6.072.419-6.614 0-.543-.421-2.649-3.248-2.769-3.73zm6.074-2.18c-2.382 0-2.802 1.145-2.802 2.557 0 1.411.379 2.574 2.802 2.556 2.47-.018 2.798-.469 2.798-2.556 0-1.94-.628-2.557-2.798-2.557z"/>
        <path fill="#f55" stroke="#000" stroke-miterlimit="10" d="M125.795 139.804c.162-.223-2.845-.221-3.007 0-.158.22-.199.941 0 1.182.203.239 3.169.276 3.007.035-.158-.24-.157-.995 0-1.217zM115.859 139.865a1.827 1.827 0 1 1-3.655.003 1.827 1.827 0 0 1 3.655-.003z"/>
        <path fill="#ffd5d5" d="M114.372 91.244c.241-.48 12.509-.309 12.509-.309v4.329s-12.218.106-12.518-.373c-.299-.478-.232-3.164.009-3.647z"/>
        <path fill="url(#linearGradient1351)" stroke="#000" stroke-miterlimit="10" d="M114.372 91.244c.241-.48 12.509-.309 12.509-.309v4.329s-12.218.106-12.518-.373c-.299-.478-.232-3.164.009-3.647z"/>
        <path fill="#ffd5d5" d="M152.259 94.301c.063.42-1.202 1.803-1.865 1.803-.66 0-24.052.482-24.414 0-.361-.48-.303-4.328 0-4.747.299-.421 22.496.419 23.218.48.714.056 3.007 2.045 3.061 2.464zm-15.297-.693a.642.642 0 0 0 0 1.284.644.644 0 0 0 .648-.644c0-.349-.29-.64-.648-.64zm3.571 0a.642.642 0 0 0 0 1.284.642.642 0 0 0 0-1.284zm3.731 0c-.359 0-.64.29-.64.64 0 .358.28.644.64.644a.642.642 0 0 0 0-1.284zm4.171 0a.64.64 0 0 0-.641.64c0 .358.281.644.641.644a.642.642 0 0 0 0-1.284z"/>
        <path fill="url(#linearGradient1353)" stroke="#000" stroke-miterlimit="10" d="M152.259 94.301c.063.42-1.202 1.803-1.865 1.803-.66 0-24.052.482-24.414 0-.361-.48-.303-4.328 0-4.747.299-.421 22.496.419 23.218.48.714.056 3.007 2.045 3.061 2.464zm-15.297-.693a.642.642 0 0 0 0 1.284.644.644 0 0 0 .648-.644c0-.349-.29-.64-.648-.64zm3.571 0a.642.642 0 0 0 0 1.284.642.642 0 0 0 0-1.284zm3.731 0c-.359 0-.64.29-.64.64 0 .358.28.644.64.644a.642.642 0 0 0 0-1.284zm4.171 0a.64.64 0 0 0-.641.64c0 .358.281.644.641.644a.642.642 0 0 0 0-1.284z"/>
        <path fill="#f55" stroke="#000" stroke-miterlimit="10" d="M122.308 93.4c-.12-.481 1.67-2.89 3.423-3.187 1.753-.302 5.121-.364 5.844 0 .723.358 2.82 2.921 2.883 3.563.063.646-2.284 3.05-2.767 3.354-.481.301-6.072.419-6.614 0-.543-.421-2.649-3.248-2.769-3.73zm6.074-2.18c-2.382 0-2.802 1.145-2.802 2.557 0 1.411.379 2.574 2.802 2.556 2.47-.018 2.798-.469 2.798-2.556 0-1.94-.628-2.557-2.798-2.557z"/>
        <path fill="#f55" stroke="#000" stroke-miterlimit="10" d="M126.017 93.002c.162-.223-2.845-.221-3.007 0-.158.22-.199.941 0 1.182.203.239 3.169.276 3.007.035-.158-.24-.157-.995 0-1.217zM116.081 93.063a1.827 1.827 0 1 1-3.655.003 1.827 1.827 0 0 1 3.655-.003z"/>
        <path fill="#ffd5d5" d="M114.808 48.902c.208-.495 12.459-1.166 12.459-1.166l.297 4.318s-12.182.944-12.514.487c-.332-.456-.449-3.14-.242-3.639z"/>
        <path fill="url(#linearGradient1383)" stroke="#000" stroke-miterlimit="10" d="M114.808 48.902c.208-.495 12.459-1.166 12.459-1.166l.297 4.318s-12.182.944-12.514.487c-.332-.456-.449-3.14-.242-3.639z"/>
        <path fill="#ffd5d5" d="M152.816 49.353c.091.415-1.076 1.881-1.737 1.927-.659.045-23.962 2.13-24.357 1.674-.393-.454-.599-4.297-.325-4.736.27-.44 22.471-1.125 23.196-1.113.716.007 3.14 1.834 3.223 2.248zm-15.309.358a.642.642 0 0 0 .088 1.281.644.644 0 0 0 .603-.687.647.647 0 0 0-.69-.594zm3.563-.245a.642.642 0 0 0 .088 1.28.642.642 0 0 0-.088-1.28zm3.722-.256a.639.639 0 0 0-.595.682.636.636 0 0 0 .683.599.642.642 0 0 0-.088-1.28zm4.161-.286a.64.64 0 0 0-.595.682.637.637 0 0 0 .683.599.642.642 0 0 0-.088-1.281z"/>
        <path fill="url(#linearGradient1385)" stroke="#000" stroke-miterlimit="10" d="M152.816 49.353c.091.415-1.076 1.881-1.737 1.927-.659.045-23.962 2.13-24.357 1.674-.393-.454-.599-4.297-.325-4.736.27-.44 22.471-1.125 23.196-1.113.716.007 3.14 1.834 3.223 2.248zm-15.309.358a.642.642 0 0 0 .088 1.281.644.644 0 0 0 .603-.687.647.647 0 0 0-.69-.594zm3.563-.245a.642.642 0 0 0 .088 1.28.642.642 0 0 0-.088-1.28zm3.722-.256a.639.639 0 0 0-.595.682.636.636 0 0 0 .683.599.642.642 0 0 0-.088-1.28zm4.161-.286a.64.64 0 0 0-.595.682.637.637 0 0 0 .683.599.642.642 0 0 0-.088-1.281z"/>
        <path fill="#f55" stroke="#000" stroke-miterlimit="10" d="M122.874 50.509c-.153-.472 1.467-2.998 3.196-3.415 1.728-.421 5.084-.714 5.83-.4.746.307 3.014 2.72 3.12 3.356.108.64-2.069 3.2-2.53 3.536-.459.333-6.029.835-6.598.454-.57-.383-2.866-3.059-3.018-3.531zm5.91-2.592c-2.377.163-2.717 1.335-2.62 2.743.096 1.408.554 2.542 2.97 2.358 2.463-.187 2.76-.66 2.616-2.742-.133-1.935-.801-2.508-2.966-2.359z"/>
        <path fill="#f55" stroke="#000" stroke-miterlimit="10" d="M126.546 49.857c.147-.234-2.853-.025-3 .206-.142.23-.133.953.082 1.18.219.224 3.18.058 3.002-.172-.174-.228-.225-.982-.084-1.214zM116.638 50.6a1.827 1.827 0 1 1-3.646.253 1.827 1.827 0 0 1 3.646-.254z"/>
    </g>
</svg>
