<svg xmlns="http://www.w3.org/2000/svg" xmlns:xlink="http://www.w3.org/1999/xlink" viewBox="0 0 256 256">
    <defs>
        <linearGradient id="innoGrad3">
            <stop offset="0" stop-color="#ff2a2a" stop-opacity=".502"/>
            <stop offset="1" stop-color="#ff2a2a" stop-opacity="0"/>
        </linearGradient>
        <linearGradient id="innoGrad2">
            <stop offset="0" stop-color="#ff2a2a" stop-opacity="0"/>
            <stop offset="1" stop-color="#ff2a2a" stop-opacity=".502"/>
        </linearGradient>
        <linearGradient id="innoGrad4">
            <stop offset="0" stop-color="#ff7f2a" stop-opacity=".502"/>
            <stop offset="1" stop-color="#ff7f2a" stop-opacity="0"/>
        </linearGradient>
        <linearGradient id="innoGrad1">
            <stop offset="0" stop-color="#ff7f2a" stop-opacity="0"/>
            <stop offset="1" stop-color="#ff7f2a" stop-opacity=".502"/>
        </linearGradient>
        <radialGradient id="radialGradient1126" cx="176.634" cy="227.982" r="2.722" fx="176.634" fy="227.982" gradientUnits="userSpaceOnUse" xlink:href="#innoGrad1"/>
        <radialGradient id="radialGradient1142" cx="128.256" cy="227.185" r="2.722" fx="128.256" fy="227.185" gradientUnits="userSpaceOnUse" xlink:href="#innoGrad1"/>
        <radialGradient id="radialGradient1150" cx="104.362" cy="222.585" r="2.486" fx="104.362" fy="222.585" gradientTransform="matrix(1 0 0 1.09453 0 -21.04)" gradientUnits="userSpaceOnUse" xlink:href="#innoGrad1"/>
        <radialGradient id="radialGradient1158" cx="86.799" cy="217.826" r="2.236" fx="86.799" fy="217.826" gradientTransform="matrix(1 0 0 1.2169 0 -47.213)" gradientUnits="userSpaceOnUse" xlink:href="#innoGrad1"/>
        <radialGradient id="radialGradient1166" cx="80.219" cy="214.575" r="2.278" fx="80.219" fy="214.575" gradientTransform="matrix(1 0 0 1.19447 0 -41.681)" gradientUnits="userSpaceOnUse" xlink:href="#innoGrad1"/>
        <radialGradient id="radialGradient1174" cx="79.77" cy="200.487" r="2.278" fx="79.77" fy="200.487" gradientTransform="matrix(1 0 0 1.19447 0 -39.004)" gradientUnits="userSpaceOnUse" xlink:href="#innoGrad1"/>
        <radialGradient id="radialGradient1182" cx="79.562" cy="178.134" r="2.486" fx="79.562" fy="178.134" gradientTransform="matrix(1 0 0 1.09453 0 -16.839)" gradientUnits="userSpaceOnUse" xlink:href="#innoGrad1"/>
        <radialGradient id="radialGradient1190" cx="79.27" cy="158.302" r="2.194" fx="79.27" fy="158.302" gradientTransform="matrix(1 0 0 1.2402 0 -38.024)" gradientUnits="userSpaceOnUse" xlink:href="#innoGrad1"/>
        <radialGradient id="radialGradient1198" cx="38.903" cy="155.39" r="2.001" fx="38.903" fy="155.39" gradientTransform="matrix(1 0 0 1.35982 0 -55.908)" gradientUnits="userSpaceOnUse" xlink:href="#innoGrad1"/>
        <radialGradient id="radialGradient1206" cx="63.589" cy="126.504" r="2.722" fx="63.589" fy="126.504" gradientUnits="userSpaceOnUse" xlink:href="#innoGrad1"/>
        <radialGradient id="radialGradient1214" cx="50.217" cy="117.309" r="2.402" fx="50.217" fy="117.309" gradientTransform="matrix(1 0 0 1.1328 0 -15.602)" gradientUnits="userSpaceOnUse" xlink:href="#innoGrad1"/>
        <radialGradient id="radialGradient1230" cx="46.911" cy="89.392" r="2.238" fx="46.911" fy="89.392" gradientTransform="matrix(1 0 0 1.0925 0 -8.268)" gradientUnits="userSpaceOnUse" xlink:href="#innoGrad1"/>
        <radialGradient id="radialGradient1238" cx="64.428" cy="86.056" r="2.287" fx="64.428" fy="86.056" gradientTransform="matrix(1 0 0 1.06821 0 -5.87)" gradientUnits="userSpaceOnUse" xlink:href="#innoGrad1"/>
        <radialGradient id="radialGradient1246" cx="90.302" cy="79.521" r="2.722" fx="90.302" fy="79.521" gradientUnits="userSpaceOnUse" xlink:href="#innoGrad1"/>
        <radialGradient id="radialGradient1254" cx="115.409" cy="73.705" r="2.722" fx="115.409" fy="73.705" gradientUnits="userSpaceOnUse" xlink:href="#innoGrad1"/>
        <radialGradient id="radialGradient1262" cx="138.915" cy="69.361" r="3.34" fx="138.915" fy="69.361" gradientTransform="matrix(1 0 0 .6991 0 20.912)" gradientUnits="userSpaceOnUse" xlink:href="#innoGrad1"/>
        <radialGradient id="radialGradient1270" cx="158.354" cy="67.551" r="2.881" fx="158.354" fy="67.551" gradientTransform="matrix(1 0 0 .72836 0 18.206)" gradientUnits="userSpaceOnUse" xlink:href="#innoGrad1"/>
        <radialGradient id="radialGradient1278" cx="170.788" cy="69.411" r="2.246" fx="170.788" fy="69.411" gradientTransform="matrix(1 0 0 1.08172 0 -5.672)" gradientUnits="userSpaceOnUse" xlink:href="#innoGrad1"/>
        <radialGradient id="radialGradient1286" cx="175.832" cy="72.355" r="1.868" fx="175.832" fy="72.355" gradientTransform="matrix(1 0 0 1.12652 0 -9.154)" gradientUnits="userSpaceOnUse" xlink:href="#innoGrad1"/>
        <radialGradient id="radialGradient1294" cx="225.702" cy="191.446" r="2.078" fx="225.702" fy="191.446" gradientTransform="matrix(1 0 0 1.56785 0 -108.74)" gradientUnits="userSpaceOnUse" xlink:href="#innoGrad1"/>
        <radialGradient id="radialGradient1302" cx="204.271" cy="219.333" r="1.719" fx="204.271" fy="219.333" gradientTransform="matrix(1 0 0 1.69649 0 -152.763)" gradientUnits="userSpaceOnUse" xlink:href="#innoGrad1"/>
        <radialGradient id="radialGradient1310" cx="208.624" cy="212.245" r="1.208" fx="208.624" fy="212.245" gradientTransform="matrix(1 0 0 2.13438 0 -240.768)" gradientUnits="userSpaceOnUse" xlink:href="#innoGrad1"/>
        <radialGradient id="radialGradient1312" cx="153.417" cy="229.752" r="2.722" fx="153.417" fy="229.752" gradientUnits="userSpaceOnUse" xlink:href="#innoGrad1"/>
        <radialGradient id="radialGradient1335" cx="110.864" cy="93.822" r="71.127" fx="110.864" fy="93.822" gradientTransform="matrix(1.18333 0 0 1.25957 -18.17 -32.127)" gradientUnits="userSpaceOnUse" xlink:href="#innoGrad2"/>
        <linearGradient id="linearGradient1368" x1="28.333" x2="35.281" y1="100.54" y2="100.947" gradientUnits="userSpaceOnUse" xlink:href="#innoGrad3"/>
        <linearGradient id="linearGradient1397" x1="35.586" x2="40.455" y1="100.791" y2="100.791" gradientUnits="userSpaceOnUse" xlink:href="#innoGrad3"/>
        <radialGradient id="radialGradient1420" cx="32.402" cy="100.785" r="2.229" fx="32.402" fy="100.785" gradientTransform="matrix(1 0 0 1.4979 0 -50.18)" gradientUnits="userSpaceOnUse" xlink:href="#innoGrad2"/>
        <linearGradient id="linearGradient1443" x1="39.485" x2="213.506" y1="181.08" y2="158.07" gradientUnits="userSpaceOnUse" xlink:href="#innoGrad4"/>
        <linearGradient id="linearGradient1494" x1="38.5" x2="208.17" y1="170.88" y2="170.88" gradientUnits="userSpaceOnUse" xlink:href="#innoGrad4"/>
        <linearGradient id="linearGradient1517" x1="39.463" x2="181.475" y1="79.482" y2="79.482" gradientUnits="userSpaceOnUse" xlink:href="#innoGrad4"/>
        <radialGradient id="radialGradient1570" cx="65.761" cy="172.618" r="3.672" fx="65.761" fy="172.618" gradientTransform="matrix(1 0 0 1.0631 0 -10.894)" gradientUnits="userSpaceOnUse" xlink:href="#innoGrad2"/>
        <radialGradient id="radialGradient1597" cx="62.286" cy="189.863" r="3.148" fx="62.286" fy="189.863" gradientTransform="matrix(1 0 0 1.07116 0 -13.491)" gradientUnits="userSpaceOnUse" xlink:href="#innoGrad2"/>
        <linearGradient id="linearGradient1620" x1="42.353" x2="49.335" y1="81.032" y2="81.032" gradientUnits="userSpaceOnUse" xlink:href="#innoGrad3"/>
        <linearGradient id="linearGradient1643" x1="31.833" x2="50.168" y1="72.584" y2="72.584" gradientUnits="userSpaceOnUse" xlink:href="#innoGrad3"/>
        <linearGradient id="linearGradient1674" x1="36.25" x2="44.584" y1="85.334" y2="85.334" gradientUnits="userSpaceOnUse" xlink:href="#innoGrad3"/>
        <linearGradient id="linearGradient1697" x1="36.918" x2="44.584" y1="97.167" y2="97.167" gradientUnits="userSpaceOnUse" xlink:href="#innoGrad3"/>
        <linearGradient id="linearGradient1720" x1="39.493" x2="47.341" y1="115.418" y2="115.418" gradientUnits="userSpaceOnUse" xlink:href="#innoGrad3"/>
        <linearGradient id="linearGradient1766" x1="37.17" x2="46.896" y1="103.344" y2="103.344" gradientUnits="userSpaceOnUse" xlink:href="#innoGrad3"/>
        <linearGradient id="linearGradient1789" x1="35.532" x2="43.612" y1="79.53" y2="79.53" gradientUnits="userSpaceOnUse" xlink:href="#innoGrad3"/>
        <linearGradient id="linearGradient1817" x1="44.695" x2="52.388" y1="126.919" y2="126.919" gradientUnits="userSpaceOnUse" xlink:href="#innoGrad3"/>
    </defs>
    <g>
        <path fill="#ff8080" d="M169 68.125S129.75 6 60.5 23.75l-2.25 3.875s-9.134 8.15-15.5 19.875c-7.77 14.312-13.123 33.35-14.083 41.892-3.273 29.129 3.615 62.805 8.833 86.94 2.175 10.062 4.796 18.739 6 24.234.678 3.096.025 5.182.75 5.934 2.713 2.813 12.133 7.373 22 10.305 14.678 4.36 32.25-2.471 32.25-2.471z"/>
        <path fill="url(#radialGradient1335)" stroke="#000" stroke-miterlimit="10" d="M169 68.125S129.75 6 60.5 23.75l-2.25 3.875s-9.134 8.15-15.5 19.875c-7.77 14.312-13.123 33.35-14.083 41.892-3.273 29.129 3.615 62.805 8.833 86.94 2.175 10.062 4.796 18.739 6 24.234.678 3.096.025 5.182.75 5.934 2.713 2.813 12.133 7.373 22 10.305 14.678 4.36 32.25-2.471 32.25-2.471z"/>
        <path d="M148.667 60c.049-.03-1.142-2.059-3.18-5.088a166.809 166.809 0 0 0-3.762-5.362c-2.113-2.888-4.592-6.065-7.271-9.089-2.605-2.94-5.407-5.743-8.25-7.991l-.238-.187c-3.797-2.958-8.184-5.177-12.613-6.843-4.429-1.666-8.91-2.783-12.91-3.531a95.045 95.045 0 0 0-11.44-1.425 101.51 101.51 0 0 0-2.665-.136l-.008.5c-.004 0 .966 0 2.637.135 2.508.201 6.59.651 11.34 1.623 3.959.81 8.374 1.982 12.726 3.673 4.352 1.69 8.632 3.896 12.335 6.772.078.06.156.121.233.183 2.79 2.195 5.593 4.915 8.24 7.782 2.72 2.946 5.266 6.038 7.455 8.858 1.49 1.918 2.81 3.708 3.906 5.235 2.123 2.962 3.416 4.921 3.465 4.891z"/>
    </g>
    <g>
        <path fill="#f55" d="M41.334 86.056h-4.167s-2.038-.3-2.872.336l-.629 7.439s-4.833.499-4.833 6.835c0 7.5 3.833 7.5 3.833 7.5s-.75 6.635-.417 6.839c.333.204 7.75 0 7.75 0z"/>
        <path fill="url(#linearGradient1368)" stroke="#000" stroke-miterlimit="10" d="M41.334 86.056h-4.167s-2.038-.3-2.872.336l-.629 7.439s-4.833.499-4.833 6.835c0 7.5 3.833 7.5 3.833 7.5s-.75 6.635-.417 6.839c.333.204 7.75 0 7.75 0z"/>
        <path fill="#f55" stroke="#000" stroke-miterlimit="10" d="M34.295 114.812l2.288-28.356H41l-2.208 28.64z"/>
        <path fill="url(#linearGradient1397)" stroke="#000" stroke-miterlimit="10" d="M34.295 114.812l2.288-28.356H41l-2.208 28.64z"/>
        <path fill="none" stroke="#000" stroke-miterlimit="10" stroke-width=".75" d="M40.63 91.25h-4.433M35.516 99.688l4.456.107M39.326 108.167h-4.494"/>
        <path fill="#f55" d="M31.583 97.707c.542-.042 1.922-.125 1.917 2.869-.004 2.467-1.417 3.299-2.583 3.298-.668-.001-1.583-1.125-1.333-3.583s1.458-2.542 1.999-2.584z"/>
        <path fill="url(#radialGradient1420)" stroke="#000" stroke-miterlimit="10" stroke-width=".5" d="M31.583 97.707c.542-.042 1.922-.125 1.917 2.869-.004 2.467-1.417 3.299-2.583 3.298-.668-.001-1.583-1.125-1.333-3.583s1.458-2.542 1.999-2.584z"/>
    </g>
    <g>
        <path fill="#ffb380" d="M41.25 90.667L40 113.5l38.167 26.167 3 74.5s36.834 15.501 71.167 15.167c34.333-.334 54.917-17.993 54.917-17.993l-.751-9.007-1.5-1.5s-.551-.159.281-.771c1.737-1.279 4.406-1.594 7.886-5.561 1.752-1.998 2.167-3.917 2.583-7.502 0 0 4.369-4.329 6.334-6.583 6.478-7.43 13.166-14.026 13.166-15.333 0-2.014-15.831-17.226-26.75-28.166-6.257-6.269-10.333-11.251-10.333-11.251l3.667-13.833-4.169-11-6.833-6.667-12.388-18.298-8.61-6.701s-36.119 2.098-46.497 3.833C112.959 74.735 41.25 90.667 41.25 90.667z"/>
        <g fill="#ff7f2a" fill-opacity=".502">
            <path d="M155.604 222.899s.67-.342 1.77-.832a412.008 412.008 0 0 0 6.81-3.104c1.984-.926 4.22-1.991 5.944-2.864a43.555 43.555 0 0 0 2.011-1.07c.247-.142.466-.278.628-.396.08-.058.166-.127.238-.202a.917.917 0 0 0 .12-.153.733.733 0 0 0 .105-.3.675.675 0 0 0-.145-.5.84.84 0 0 0-.172-.162 1.417 1.417 0 0 0-.23-.13 4.393 4.393 0 0 0-.515-.191 26.324 26.324 0 0 0-1.749-.457c-1.59-.372-3.918-.85-6.16-1.297-2.01-.4-4.23-.832-5.84-1.135a703.974 703.974 0 0 1-12.815-2.513c-13.658-2.84-27.215-6.334-27.27-6.136-.055.198 13.358 4.233 26.98 7.446 4.406 1.04 8.83 1.991 12.789 2.81 1.725.356 3.71.742 5.842 1.145 2.278.43 4.552.846 6.16 1.155.734.14 1.3.254 1.695.341.187.042.327.078.385.091.033.007.034.007-.002-.021-.012-.01-.065-.05-.116-.116a.634.634 0 0 1-.129-.458.495.495 0 0 1 .073-.211c.022-.033.037-.044.04-.045.01-.003-.02.033-.06.073a4.183 4.183 0 0 1-.478.363c-.449.305-1.103.698-1.883 1.139-1.653.936-3.86 2.087-5.795 3.079a847.404 847.404 0 0 1-6.675 3.367 34.69 34.69 0 0 1-1.767.83zM205.162 200.99c0-.001-.546.595-1.463 1.43-.39.355-1.345 1.197-2.446 2.16-.97.848-2.222 1.938-3.376 2.915-1.131.957-2.121 1.766-2.87 2.329-.059.028-.143.088-.453.17a7.394 7.394 0 0 1-1.106.185c-.996.103-2.243.114-3.505.09a96.288 96.288 0 0 1-1.02-.027c-2.585-.08-5.624-.335-8.606-.643-6.768-.698-13.19-1.661-13.234-1.434-.044.227 6.285 1.722 13.036 2.878 2.968.508 6.036.953 8.682 1.193.347.032.7.06 1.054.083 1.293.085 2.654.111 3.802.005a8.591 8.591 0 0 0 1.463-.248c.411-.113.85-.285 1.205-.57.777-.632 1.78-1.558 2.843-2.586a144.864 144.864 0 0 0 3.18-3.189c.723-.746 1.543-1.622 2.265-2.368.866-.897 1.47-1.438 1.471-1.439z"/>
        </g>
        <path fill="url(#linearGradient1443)" stroke="#000" stroke-miterlimit="10" d="M41.25 90.667L40 113.5l38.167 26.167 3 74.5s36.834 15.501 71.167 15.167c34.333-.334 54.917-17.993 54.917-17.993l-.751-9.007-1.5-1.5s-.551-.159.281-.771c1.737-1.279 4.406-1.594 7.886-5.561 1.752-1.998 2.167-3.917 2.583-7.502 0 0 4.369-4.329 6.334-6.583 6.478-7.43 13.166-14.026 13.166-15.333 0-2.014-15.831-17.226-26.75-28.166-6.257-6.269-10.333-11.251-10.333-11.251l3.667-13.833-4.169-11-6.833-6.667-12.388-18.298-8.61-6.701s-36.119 2.098-46.497 3.833C112.959 74.735 41.25 90.667 41.25 90.667z"/>
        <path fill="none" stroke="#000" stroke-miterlimit="10" d="M198.167 125.667s-12.857-13.738-19.333-13.167c-5.668.5-69.417 36-69.417 36l-7.75-37.833s32.129-13.231 53.833-17.5 35.009.522 35.009.522"/>
        <path d="M117 125.167c-7.93 22.59-5.394 14.813-8.108 23.163l1.05.34c2.713-8.349.191-.567 7.058-23.503z"/>
        <path fill="#1a1a1a" stroke="#000" stroke-miterlimit="10" d="M113.167 111.333s15.289-8.108 27.833-12c12.544-3.892 27.5-5.167 27.5-5.167l4.666 10.167s-15.634 3.088-24.833 6.5C139.134 114.245 117 125.167 117 125.167zM182.166 92.833s4.811.821 9.834 2.667c8.165 3 7.332 8.667 7.332 8.667l2.502 7.667s-2.509-6.242-5.168-7.667c-4.666-2.5-9.166-1.833-9.166-1.833z"/>
        <path d="M173.749 104.833c.025-.057.787.207 1.58.517.445.173.92.369 1.365.563.464.203.904.408 1.259.594.224.123.436.308.63.519.197.215.389.47.572.743.366.548.713 1.196 1.016 1.81.303.614.562 1.191.765 1.628.099.214.179.38.237.487.042.078.032.055.046.08 0 0-.012-.02-.044-.051a.562.562 0 0 0-.642-.083.383.383 0 0 0-.082.06c-.02.019-.002.004.023-.027a4.58 4.58 0 0 0 .243-.357c.196-.309.434-.71.753-1.236l.084-.138c.676-1.111 1.556-2.51 2.48-3.593.923-1.08 1.814-1.835 2.502-2.31a5.98 5.98 0 0 1 .863-.507 1.81 1.81 0 0 1 .28-.105.5.5 0 0 1 .13-.017c.01 0 .018.003.024.006l-.019.015-.024.02-.07.056a14.14 14.14 0 0 0-.944.826 17.655 17.655 0 0 0-2.145 2.484c-.789 1.101-1.55 2.503-2.155 3.648l-.075.142c-.278.528-.508.968-.695 1.3-.104.184-.201.346-.287.466a1.32 1.32 0 0 1-.162.19.758.758 0 0 1-.152.114.62.62 0 0 1-.748-.098.833.833 0 0 1-.11-.13 1.82 1.82 0 0 1-.122-.215 9.839 9.839 0 0 1-.25-.561c-.188-.453-.42-1.04-.679-1.646a19.642 19.642 0 0 0-.841-1.767 6.524 6.524 0 0 0-.431-.685 2.188 2.188 0 0 0-.378-.416 14.89 14.89 0 0 0-1.117-.734c-.412-.25-.845-.498-1.261-.734-.736-.417-1.443-.804-1.419-.858zM168.5 94.167c.014-.01.02-.018.037-.023.015-.004.03-.004.053-.01.026-.007.065-.021.127-.04.072-.02.165-.045.291-.073.334-.074.79-.145 1.357-.214a75.27 75.27 0 0 1 2.837-.267c1.59-.128 2.673-.215 4.318-.342.916-.07 1.673-.122 2.724-.187.88-.054 1.92-.108 1.922-.177.003-.083-1.038-.177-1.924-.224-.95-.05-1.929-.068-2.748-.065-1.59.005-2.89.08-4.364.249-.94.107-1.985.261-2.861.458-.562.127-1.048.27-1.38.429-.128.06-.229.122-.303.184a.442.442 0 0 0-.13.16c-.02.048-.02.09-.004.12.014.024.036.03.048.022zM113.167 111.333c-11.313-1.088-7.477-.862-11.475-1.094l-.05.856c3.998.231.162.012 11.525.238z"/>
        <path fill="#fca" d="M40 108.167s12.306 5.995 22.333 12.667 21 16.167 21 16.167l1 74.5s41.082 15.159 94.333 10.167c32-3 27.833-19.333 27.833-19.333l1.167 14s1.396 14.281-36.667 17c-49 3.5-94.333-15.5-94.333-15.5L75 140.167l-35-23.333s-1-2.333-1-5c0-1.501 1-3.667 1-3.667z"/>
        <path fill="url(#linearGradient1494)" stroke="#000" stroke-miterlimit="10" d="M40 108.167s12.306 5.995 22.333 12.667 21 16.167 21 16.167l1 74.5s41.082 15.159 94.333 10.167c32-3 27.833-19.333 27.833-19.333l1.167 14s1.396 14.281-36.667 17c-49 3.5-94.333-15.5-94.333-15.5L75 140.167l-35-23.333s-1-2.333-1-5c0-1.501 1-3.667 1-3.667z"/>
        <path fill="#fca" d="M40 85.333S137.5 65 149.334 64.166c12-.845 20.666 2.5 20.666 2.5s3.427 2.583 5 4.333 3.834 5.5 3.834 5.5-5.993-6.121-20.334-4.333C144.159 73.954 40.833 94.833 40.833 94.833z"/>
        <path fill="url(#linearGradient1517)" stroke="#000" stroke-miterlimit="10" d="M40 85.333S137.5 65 149.334 64.166c12-.845 20.666 2.5 20.666 2.5s3.427 2.583 5 4.333 3.834 5.5 3.834 5.5-5.993-6.121-20.334-4.333C144.159 73.954 40.833 94.833 40.833 94.833z"/>
    </g>
    <g>
        <path fill="#ff8080" stroke="#000" stroke-miterlimit="10" d="M61.321 186.724v5.742s4.443.587 4.198-2.871c-.25-3.542-4.198-2.871-4.198-2.871zM57.751 201.083s2.999-1.023 2.999 2.977c.001 3.097-1.916 3.189-1.916 3.189zM65.39 169.234s4.694-.567 4.361 4.1c-.239 3.346-4.75 2.667-4.75 2.667z"/>
        <path fill="#f55" d="M64.668 169.233s-2.773-.399-2.75 3.018c.025 3.784 3.083 3.75 3.083 3.75s3.5.482 3.25-3.384c-.25-3.866-3.583-3.384-3.583-3.384z"/>
        <path fill="url(#radialGradient1570)" stroke="#000" stroke-miterlimit="10" d="M64.668 169.233s-2.773-.399-2.75 3.018c.025 3.784 3.083 3.75 3.083 3.75s3.5.482 3.25-3.384c-.25-3.866-3.583-3.384-3.583-3.384z"/>
        <path fill="#f55" d="M61.085 186.75c1.25-.167 3 .414 3.167 2.83.167 2.416-1.5 3.087-2.75 2.837s-2.25-1.115-2.5-2.782.833-2.718 2.083-2.885z"/>
        <path fill="url(#radialGradient1597)" stroke="#000" stroke-miterlimit="10" d="M61.085 186.75c1.25-.167 3 .414 3.167 2.83.167 2.416-1.5 3.087-2.75 2.837s-2.25-1.115-2.5-2.782.833-2.718 2.083-2.885z"/>
        <path fill="#f55" stroke="#000" stroke-miterlimit="10" d="M57.751 201.083c1.637-.892 2.563 6.467 1.083 6.166-1.083-.221-1.834-1.166-2.251-2.333-.417-1.167.2-3.306 1.168-3.833zM45.25 193.933c-.968-.447-2.749.149-3.416.566-.667.417 1 6.226 1.667 6.571.667.345 2.639-.328 3.139-.729.5-.401-.308-5.908-1.39-6.408zM35.918 188.833c.75-1 3.25-.907 3.583 0 .333.907.834 4.999.417 5.666-.417.667-2 .666-3.083 0-1.083-.666-1.667-4.666-.917-5.666z"/>
        <path fill="#f55" stroke="#000" stroke-miterlimit="10" d="M35.918 188.833s1.25.698 1.25 2.726c0 2.374-1.25 2.374-1.25 2.374M41.834 194.499s1.201.655 1.853 3.286c.726 2.926.253 3.285.253 3.285M41.834 189.92H39.75l.326 2.547h1.758s.714-.376.666-1.273c-.048-.897-.666-1.274-.666-1.274z"/>
    </g>
    <g>
        <circle cx="176.159" cy="228.05" r="2.472" fill="#ffe6d5"/>
        <circle cx="152.65" cy="229.752" r="2.472" fill="#ffe6d5"/>
        <circle cx="127.585" cy="227.281" r="2.472" fill="#ffe6d5"/>
        <ellipse cx="103.403" cy="222.585" fill="#ffe6d5" rx="2.236" ry="2.471"/>
        <ellipse cx="86.32" cy="217.668" fill="#ffe6d5" rx="1.986" ry="2.471"/>
        <ellipse cx="79.835" cy="214.334" fill="#ffe6d5" rx="2.028" ry="2.471"/>
        <ellipse cx="79.195" cy="200.567" fill="#ffe6d5" rx="2.028" ry="2.471"/>
        <ellipse cx="78.987" cy="178.134" fill="#ffe6d5" rx="2.236" ry="2.471"/>
        <ellipse cx="78.695" cy="158.302" fill="#ffe6d5" rx="1.944" ry="2.471"/>
        <ellipse cx="78.293" cy="139.504" fill="#ffe6d5" rx="1.751" ry="2.471" transform="rotate(-15.549 78.273 139.496)"/>
        <circle cx="62.918" cy="126.504" r="2.472" fill="#ffe6d5"/>
        <ellipse cx="49.738" cy="117.478" fill="#ffe6d5" rx="2.152" ry="2.471"/>
        <ellipse cx="46.24" cy="89.392" fill="#ffe6d5" rx="1.988" ry="2.195"/>
        <ellipse cx="63.853" cy="86.056" fill="#ffe6d5" rx="2.037" ry="2.193"/>
        <circle cx="89.631" cy="79.521" r="2.472" fill="#ffe6d5"/>
        <circle cx="114.834" cy="73.417" r="2.472" fill="#ffe6d5"/>
        <ellipse cx="138.244" cy="69.498" fill="#ffe6d5" rx="3.09" ry="2.085"/>
        <path fill="#ffe6d5" d="M155.083 66c-.25.833 1.018 1.87 2.167 2.417 1.149.547 2.584.667 2.917 0 .333-.667.249-1.083-1.834-2.417-2.083-1.334-3-.834-3.25 0zM168.494 67.412c.588-.412 1.829-.089 2.672.754 1 1.001 1.051 3.665.5 3.417-.551-.248-2.692-1.125-3.172-2.087-.662-1.33-.588-1.672 0-2.084zM174.499 70.5s1.309-.019 2.25 1.083c.941 1.102.667 2.333.667 2.333z"/>
        <ellipse cx="192.583" cy="224.279" fill="#ffe6d5" rx="1.828" ry="3.008" transform="rotate(8.974 192.618 224.328)"/>
        <path fill="#ffe6d5" d="M204.025 216.667c1.372-.084 2.229 5.333-.229 5.333-1.229 0-1.515-1.312-1.322-2.635.193-1.322.865-2.656 1.551-2.698zM207.666 209.917v4.583s1.916-.5 1.916-2.75c0-1.863-1.916-1.833-1.916-1.833z"/>
        <circle cx="176.159" cy="228.05" r="2.472" fill="url(#radialGradient1126)" stroke="#000" stroke-miterlimit="10" stroke-width=".5"/>
        <circle cx="152.65" cy="229.752" r="2.472" fill="url(#radialGradient1312)" stroke="#000" stroke-miterlimit="10" stroke-width=".5"/>
        <circle cx="127.585" cy="227.281" r="2.472" fill="url(#radialGradient1142)" stroke="#000" stroke-miterlimit="10" stroke-width=".5"/>
        <ellipse cx="103.403" cy="222.585" fill="url(#radialGradient1150)" stroke="#000" stroke-miterlimit="10" stroke-width=".5" rx="2.236" ry="2.471"/>
        <ellipse cx="86.32" cy="217.668" fill="url(#radialGradient1158)" stroke="#000" stroke-miterlimit="10" stroke-width=".5" rx="1.986" ry="2.471"/>
        <ellipse cx="79.835" cy="214.334" fill="url(#radialGradient1166)" stroke="#000" stroke-miterlimit="10" stroke-width=".5" rx="2.028" ry="2.471"/>
        <ellipse cx="79.195" cy="200.567" fill="url(#radialGradient1174)" stroke="#000" stroke-miterlimit="10" stroke-width=".5" rx="2.028" ry="2.471"/>
        <ellipse cx="78.987" cy="178.134" fill="url(#radialGradient1182)" stroke="#000" stroke-miterlimit="10" stroke-width=".5" rx="2.236" ry="2.471"/>
        <ellipse cx="78.695" cy="158.302" fill="url(#radialGradient1190)" stroke="#000" stroke-miterlimit="10" stroke-width=".5" rx="1.944" ry="2.471"/>
        <ellipse cx="38.044" cy="155.379" fill="url(#radialGradient1198)" stroke="#000" stroke-miterlimit="10" stroke-width=".5" rx="1.751" ry="2.471" transform="rotate(-15.546)"/>
        <circle cx="62.918" cy="126.504" r="2.472" fill="url(#radialGradient1206)" stroke="#000" stroke-miterlimit="10" stroke-width=".5"/>
        <ellipse cx="49.738" cy="117.478" fill="url(#radialGradient1214)" stroke="#000" stroke-miterlimit="10" stroke-width=".5" rx="2.152" ry="2.471"/>
        <ellipse cx="46.24" cy="89.392" fill="url(#radialGradient1230)" stroke="#000" stroke-miterlimit="10" stroke-width=".5" rx="1.988" ry="2.195"/>
        <ellipse cx="63.853" cy="86.056" fill="url(#radialGradient1238)" stroke="#000" stroke-miterlimit="10" stroke-width=".5" rx="2.037" ry="2.193"/>
        <circle cx="89.631" cy="79.521" r="2.472" fill="url(#radialGradient1246)" stroke="#000" stroke-miterlimit="10" stroke-width=".5"/>
        <circle cx="114.834" cy="73.417" r="2.472" fill="url(#radialGradient1254)" stroke="#000" stroke-miterlimit="10" stroke-width=".5"/>
        <ellipse cx="138.244" cy="69.498" fill="url(#radialGradient1262)" stroke="#000" stroke-miterlimit="10" stroke-width=".5" rx="3.09" ry="2.085"/>
        <path fill="url(#radialGradient1270)" stroke="#000" stroke-miterlimit="10" stroke-width=".5" d="M155.083 66c-.25.833 1.018 1.87 2.167 2.417 1.149.547 2.584.667 2.917 0 .333-.667.249-1.083-1.834-2.417-2.083-1.334-3-.834-3.25 0z"/>
        <path fill="url(#radialGradient1278)" stroke="#000" stroke-miterlimit="10" stroke-width=".5" d="M168.494 67.412c.588-.412 1.829-.089 2.672.754 1 1.001 1.051 3.665.5 3.417-.551-.248-2.692-1.125-3.172-2.087-.662-1.33-.588-1.672 0-2.084z"/>
        <path fill="url(#radialGradient1286)" stroke="#000" stroke-miterlimit="10" stroke-width=".5" d="M174.499 70.5s1.309-.019 2.25 1.083c.941 1.102.667 2.333.667 2.333z"/>
        <ellipse cx="225.228" cy="191.494" fill="url(#radialGradient1294)" stroke="#000" stroke-miterlimit="10" stroke-width=".5" rx="1.828" ry="3.008" transform="rotate(8.974)"/>
        <path fill="url(#radialGradient1302)" stroke="#000" stroke-miterlimit="10" stroke-width=".5" d="M204.025 216.667c1.372-.084 2.229 5.333-.229 5.333-1.229 0-1.515-1.312-1.322-2.635.193-1.322.865-2.656 1.551-2.698z"/>
        <path fill="url(#radialGradient1310)" stroke="#000" stroke-miterlimit="10" stroke-width=".5" d="M207.666 209.917v4.583s1.916-.5 1.916-2.75c0-1.863-1.916-1.833-1.916-1.833z"/>
    </g>
    <g fill="#1a1a1a" stroke="#000" stroke-miterlimit="10" stroke-width=".5">
        <circle cx="117" cy="166.5" r="2.733"/>
        <circle cx="121.5" cy="177.5" r="2.733"/>
        <circle cx="128" cy="188.167" r="2.733"/>
        <circle cx="134.892" cy="197.833" r="2.733"/>
        <circle cx="127" cy="161.034" r="2.733"/>
        <circle cx="130.732" cy="172.666" r="2.733"/>
        <circle cx="136.199" cy="182.701" r="2.733"/>
        <circle cx="143.166" cy="192.367" r="2.733"/>
        <circle cx="136.199" cy="155.568" r="2.733"/>
        <circle cx="140.434" cy="166.5" r="2.733"/>
        <circle cx="145.898" cy="176.332" r="2.733"/>
        <circle cx="151.365" cy="186.901" r="2.733"/>
        <circle cx="147.184" cy="149.253" r="2.733"/>
        <circle cx="149.917" cy="158.999" r="2.733"/>
        <circle cx="155.383" cy="169.933" r="2.733"/>
        <circle cx="161.726" cy="180.233" r="2.733"/>
        <circle cx="155.383" cy="142.332" r="2.733"/>
        <circle cx="159.833" cy="151.232" r="2.733"/>
        <circle cx="165.299" cy="162.666" r="2.733"/>
        <circle cx="170.433" cy="172.666" r="2.733"/>
        <circle cx="178.063" cy="182.701" r="2.733"/>
        <circle cx="188.5" cy="189.634" r="2.733"/>
        <circle cx="186.833" cy="175.399" r="2.733"/>
        <circle cx="198.167" cy="182.966" r="2.733"/>
        <circle cx="180.167" cy="166.101" r="2.733"/>
        <circle cx="196" cy="167.2" r="2.733"/>
        <circle cx="188.5" cy="158.999" r="2.733"/>
        <circle cx="174.701" cy="155.568" r="2.733"/>
        <circle cx="169.234" cy="144.787" r="2.733"/>
        <circle cx="166.502" cy="136.166" r="2.733"/>
        <circle cx="184.1" cy="148.499" r="2.733"/>
        <circle cx="178.063" cy="139.599" r="2.733"/>
        <circle cx="174.701" cy="130.732" r="2.733"/>
        <circle cx="184.1" cy="125.166" r="2.733"/>
        <circle cx="189.566" cy="132.499" r="2.733"/>
        <circle cx="195.434" cy="142.054" r="2.733"/>
        <circle cx="198.731" cy="151.231" r="2.733"/>
    </g>
    <g fill="#ff2a2a">
        <circle cx="56.169" cy="122.668" r="1.805" fill="#1a1a1a" stroke="#000" stroke-miterlimit="10" stroke-width=".5"/>
        <path fill="#faa" d="M48.075 82.475c-1.1 1.7-2.991 2.433-4.223 1.635-1.232-.797-1.339-2.822-.239-4.522 1.1-1.7 2.991-2.432 4.223-1.635 1.232.797 1.339 2.822.239 4.522zm-.915-3.478c-.814-.527-2.064-.043-2.791 1.081-.727 1.124-.657 2.461.158 2.988.814.527 2.064.043 2.791-1.08.727-1.124.657-2.463-.158-2.989z"/>
        <path fill="url(#linearGradient1620)" stroke="#000" stroke-miterlimit="10" d="M48.075 82.475c-1.1 1.7-2.991 2.433-4.223 1.635-1.232-.797-1.339-2.822-.239-4.522 1.1-1.7 2.991-2.432 4.223-1.635 1.232.797 1.339 2.822.239 4.522zm-.915-3.478c-.814-.527-2.064-.043-2.791 1.081-.727 1.124-.657 2.461.158 2.988.814.527 2.064.043 2.791-1.08.727-1.124.657-2.463-.158-2.989z"/>
        <path fill="#ffd5d5" stroke="#000" stroke-miterlimit="10" d="M49.668 72.583A8.667 8.667 0 0 1 41 81.251a8.667 8.667 0 0 1-8.667-8.668A8.667 8.667 0 0 1 41 63.916a8.667 8.667 0 0 1 8.668 8.667zM41 68.664a3.918 3.918 0 1 0 0 7.838 3.919 3.919 0 1 0 0-7.838z"/>
        <path fill="url(#linearGradient1643)" stroke="#000" stroke-miterlimit="10" d="M49.668 72.583A8.667 8.667 0 0 1 41 81.251a8.667 8.667 0 0 1-8.667-8.668A8.667 8.667 0 0 1 41 63.916a8.667 8.667 0 0 1 8.668 8.667zM41 68.664a3.918 3.918 0 1 0 0 7.838 3.919 3.919 0 1 0 0-7.838z"/>
        <path fill="#faa" d="M44.084 85.334a3.667 3.667 0 1 1-7.335 0 3.667 3.667 0 0 1 7.335 0zm-3.667-2.423a2.424 2.424 0 1 0 0 4.847 2.424 2.424 0 0 0 0-4.847z"/>
        <path fill="url(#linearGradient1674)" stroke="#000" stroke-miterlimit="10" d="M44.084 85.334a3.667 3.667 0 1 1-7.335 0 3.667 3.667 0 0 1 7.335 0zm-3.667-2.423a2.424 2.424 0 1 0 0 4.847 2.424 2.424 0 0 0 0-4.847z"/>
        <path fill="#faa" d="M44.084 97.167c0 2.025-1.492 3.667-3.333 3.667-1.841 0-3.333-1.642-3.333-3.667S38.91 93.5 40.751 93.5c1.841 0 3.333 1.643 3.333 3.667zm-3.334-2.423c-1.217 0-2.204 1.085-2.204 2.424 0 1.338.986 2.423 2.204 2.423 1.216 0 2.203-1.085 2.203-2.423 0-1.339-.986-2.424-2.203-2.424z"/>
        <path fill="url(#linearGradient1697)" stroke="#000" stroke-miterlimit="10" d="M44.084 97.167c0 2.025-1.492 3.667-3.333 3.667-1.841 0-3.333-1.642-3.333-3.667S38.91 93.5 40.751 93.5c1.841 0 3.333 1.643 3.333 3.667zm-3.334-2.423c-1.217 0-2.204 1.085-2.204 2.424 0 1.338.986 2.423 2.204 2.423 1.216 0 2.203-1.085 2.203-2.423 0-1.339-.986-2.424-2.203-2.424z"/>
        <path fill="#faa" d="M46.791 114.875c.321 2-.928 3.863-2.792 4.163-1.864.299-3.635-1.079-3.956-3.078-.321-2 .929-3.863 2.792-4.163 1.864-.299 3.634 1.079 3.956 3.078zm-3.758-1.85c-1.233.198-2.058 1.43-1.846 2.752.213 1.321 1.383 2.232 2.615 2.034 1.232-.198 2.057-1.429 1.845-2.75-.213-1.323-1.383-2.234-2.614-2.036z"/>
        <path fill="url(#linearGradient1720)" stroke="#000" stroke-miterlimit="10" d="M46.791 114.875c.321 2-.928 3.863-2.792 4.163-1.864.299-3.635-1.079-3.956-3.078-.321-2 .929-3.863 2.792-4.163 1.864-.299 3.634 1.079 3.956 3.078zm-3.758-1.85c-1.233.198-2.058 1.43-1.846 2.752.213 1.321 1.383 2.232 2.615 2.034 1.232-.198 2.057-1.429 1.845-2.75-.213-1.323-1.383-2.234-2.614-2.036z"/>
        <path fill="#faa" d="M51.594 125.686c.759 1.878.007 3.952-1.679 4.633s-3.667-.289-4.426-2.167c-.759-1.877-.007-3.951 1.679-4.632 1.686-.681 3.668.289 4.426 2.166zm-3.96-1.014c-1.115.451-1.611 1.821-1.11 3.063.501 1.241 1.811 1.882 2.925 1.432 1.114-.45 1.611-1.82 1.109-3.062-.502-1.242-1.81-1.883-2.924-1.433z"/>
        <path fill="url(#linearGradient1817)" stroke="#000" stroke-miterlimit="10" d="M51.594 125.686c.759 1.878.007 3.952-1.679 4.633s-3.667-.289-4.426-2.167c-.759-1.877-.007-3.951 1.679-4.632 1.686-.681 3.668.289 4.426 2.166zm-3.96-1.014c-1.115.451-1.611 1.821-1.11 3.063.501 1.241 1.811 1.882 2.925 1.432 1.114-.45 1.611-1.82 1.109-3.062-.502-1.242-1.81-1.883-2.924-1.433z"/>
        <path fill="#faa" stroke="#000" stroke-miterlimit="10" d="M39.91 87.197s.267-.196.679-.28c.412-.084.661.28.661.28l.018 7.845s-.215.25-.679.25c-.464 0-.661-.25-.661-.25zM43.625 116.879l3.781 8.597s.314.431.76.236.196-.653.196-.653l-3.613-8.722s-.212-.549-.833-.25c-.621.299-.291.792-.291.792zM56.169 122.375c-.544.182-4.279 7.548-2.377 8.673 1.878 1.111 3.25-3.048 3.25-3.048l-.873-.507s-.794 2.513-1.419 2.055c-.625-.458 1.418-5.075 1.418-5.075s.744-.176 1.019-.44c.229-.22.627-1.206.396-1.678-.253-.52-.87-.162-1.414.02z"/>
        <path fill="#faa" stroke="#000" stroke-miterlimit="10" d="M54.848 128c.29-.132.606 5.594-3.473 5.09-1.997-.247-1.618-3.617-1.637-4.072-.007-.177.559-.529.794-.907.37-.592.449-1.227.214-1.191-.385.058-1.205-.156-1.778 1.081-.573 1.237-1.094 6.551 2.698 6.34 6.833-.38 3.649-7.576 3.623-7.679 0-.001-.539 1.383-.441 1.338z"/>
        <path fill="#faa" stroke="#000" stroke-miterlimit="10" d="M52.086 127.732h1.445l.135-.614.146-.566-2.042-.049s.289 0 .316.416c.027.416 0 .813 0 .813z"/>
        <path fill="#faa" d="M41.486 99.446s.872-.54 1.054-.869c.182-.329-2.407-.561-3.15.47-5.924 8.216 5.219 12.84 6.849 6.109.958-3.958-2.702-5.977-2.702-5.977l-.854.976s3.67 2.674 2.254 5.095c-2.438 4.169-6.998.886-5.844-3.344.242-.888.821-1.978 1.286-2.35z"/>
        <path fill="url(#linearGradient1766)" stroke="#000" stroke-miterlimit="10" d="M41.486 99.446s.872-.54 1.054-.869c.182-.329-2.407-.561-3.15.47-5.924 8.216 5.219 12.84 6.849 6.109.958-3.958-2.702-5.977-2.702-5.977l-.854.976s3.67 2.674 2.254 5.095c-2.438 4.169-6.998.886-5.844-3.344.242-.888.821-1.978 1.286-2.35z"/>
        <path fill="#faa" stroke="#000" stroke-miterlimit="10" d="M41.419 106.659s.357-.997.956-.94c.599.057 1.163.814 1.163.814l.714 6.657s-.211 1.042-.835 1.091c-.624.049-1.068-1.017-1.068-1.017z"/>
        <path fill="#faa" d="M43.111 75.884c.031-.438-5.288-4.294-6.955 3.741-1.219 5.875 6.738 5.161 6.182 4.237-.556-.924-1.921-.831-1.921-.831s-3.903-.329-3.104-3.438c1.156-4.5 4.116-3.164 4.116-3.164s1.651-.108 1.682-.545z"/>
        <path fill="url(#linearGradient1789)" stroke="#000" stroke-miterlimit="10" d="M43.111 75.884c.031-.438-5.288-4.294-6.955 3.741-1.219 5.875 6.738 5.161 6.182 4.237-.556-.924-1.921-.831-1.921-.831s-3.903-.329-3.104-3.438c1.156-4.5 4.116-3.164 4.116-3.164s1.651-.108 1.682-.545z"/>
        <path fill="#faa" stroke="#000" stroke-miterlimit="10" d="M42.752 81.073l1.663-.522-.99 2.688-.991-.967z"/>
    </g>
</svg>
