<svg xmlns="http://www.w3.org/2000/svg" xmlns:xlink="http://www.w3.org/1999/xlink" viewBox="0 0 256 256">
    <defs>
        <linearGradient id="innoGrad7">
            <stop offset="0" stop-color="#ff2a2a" stop-opacity=".502"/>
            <stop offset="1" stop-color="#ff2a2a" stop-opacity="0"/>
        </linearGradient>
        <linearGradient id="innoGrad6">
            <stop offset="0" stop-color="#ff7f2a" stop-opacity=".502"/>
            <stop offset="1" stop-color="#ff7f2a" stop-opacity="0"/>
        </linearGradient>
        <linearGradient id="innoGrad5">
            <stop offset="0" stop-color="#ff2a2a" stop-opacity="0"/>
            <stop offset="1" stop-color="#ff2a2a" stop-opacity=".502"/>
        </linearGradient>
        <linearGradient id="innoGrad4">
            <stop offset="0" stop-color="#ff7f2a" stop-opacity="0"/>
            <stop offset="1" stop-color="#ff7f2a" stop-opacity=".502"/>
        </linearGradient>
        <linearGradient id="innoGrad3">
            <stop offset="0" stop-color="#ff7f2a" stop-opacity=".502"/>
            <stop offset=".419" stop-color="#ff7f2a" stop-opacity="0"/>
            <stop offset=".919" stop-color="#ff7f2a" stop-opacity="0"/>
            <stop offset="1" stop-color="#ff7f2a" stop-opacity=".502"/>
        </linearGradient>
        <linearGradient id="innoGrad1">
            <stop offset="0" stop-color="#ff7f2a" stop-opacity=".502"/>
            <stop offset=".655" stop-color="#ff7f2a" stop-opacity="0"/>
            <stop offset="1" stop-color="#ff7f2a" stop-opacity=".502"/>
        </linearGradient>
        <linearGradient id="innoGrad2">
            <stop offset="0" stop-color="#ff2a2a" stop-opacity=".502"/>
            <stop offset=".648" stop-color="#ff8080" stop-opacity="0"/>
            <stop offset="1" stop-color="#ff2a2a" stop-opacity=".502"/>
        </linearGradient>
        <linearGradient id="linearGradient921" x1="116.127" x2="194.187" y1="142.491" y2="142.491" gradientUnits="userSpaceOnUse" xlink:href="#innoGrad1"/>
        <linearGradient id="linearGradient931" x1="119.23" x2="192.475" y1="142.819" y2="142.819" gradientUnits="userSpaceOnUse" xlink:href="#innoGrad2"/>
        <linearGradient id="linearGradient964" x1="116.59" x2="198.382" y1="112.485" y2="112.485" gradientUnits="userSpaceOnUse" xlink:href="#innoGrad1"/>
        <linearGradient id="linearGradient980" x1="120.011" x2="196.291" y1="112.107" y2="112.107" gradientUnits="userSpaceOnUse" xlink:href="#innoGrad2"/>
        <linearGradient id="linearGradient988" x1="120.535" x2="198.707" y1="94.291" y2="94.291" gradientUnits="userSpaceOnUse" xlink:href="#innoGrad1"/>
        <linearGradient id="linearGradient996" x1="123.056" x2="196.867" y1="90.738" y2="90.738" gradientUnits="userSpaceOnUse" xlink:href="#innoGrad2"/>
        <linearGradient id="linearGradient1004" x1="105.228" x2="212.959" y1="61.685" y2="61.685" gradientUnits="userSpaceOnUse" xlink:href="#innoGrad1"/>
        <linearGradient id="linearGradient1020" x1="106.065" x2="212.753" y1="60.854" y2="60.854" gradientUnits="userSpaceOnUse" xlink:href="#innoGrad2"/>
        <linearGradient id="linearGradient1043" x1="38.483" x2="210" y1="28.096" y2="28.096" gradientUnits="userSpaceOnUse" xlink:href="#innoGrad3"/>
        <linearGradient id="linearGradient4810" x1="209.185" x2="218.943" y1="189.188" y2="189.188" gradientUnits="userSpaceOnUse" xlink:href="#innoGrad4"/>
        <linearGradient id="linearGradient4818" x1="210.862" x2="220.053" y1="186.244" y2="186.244" gradientUnits="userSpaceOnUse" xlink:href="#innoGrad5"/>
        <linearGradient id="linearGradient4826" x1="208.455" x2="228.728" y1="158.863" y2="158.863" gradientUnits="userSpaceOnUse" xlink:href="#innoGrad4"/>
        <linearGradient id="linearGradient4842" x1="209.859" x2="227.891" y1="159.668" y2="159.668" gradientUnits="userSpaceOnUse" xlink:href="#innoGrad5"/>
        <linearGradient id="linearGradient4850" x1="204.909" x2="226.278" y1="133.835" y2="133.835" gradientUnits="userSpaceOnUse" xlink:href="#innoGrad4"/>
        <linearGradient id="linearGradient4858" x1="206.741" x2="225.681" y1="133.072" y2="133.072" gradientUnits="userSpaceOnUse" xlink:href="#innoGrad5"/>
        <linearGradient id="linearGradient4874" x1="208.413" x2="223.135" y1="101.047" y2="101.047" gradientUnits="userSpaceOnUse" xlink:href="#innoGrad4"/>
        <linearGradient id="linearGradient4882" x1="210.04" x2="222.127" y1="99.523" y2="99.523" gradientUnits="userSpaceOnUse" xlink:href="#innoGrad5"/>
        <linearGradient id="linearGradient4890" x1="198.881" x2="227.37" y1="65.264" y2="65.264" gradientUnits="userSpaceOnUse" xlink:href="#innoGrad4"/>
        <linearGradient id="linearGradient4898" x1="199.658" x2="224.778" y1="62.28" y2="62.28" gradientUnits="userSpaceOnUse" xlink:href="#innoGrad5"/>
        <linearGradient id="linearGradient4948" x1="36.899" x2="97.47" y1="221.373" y2="221.373" gradientUnits="userSpaceOnUse" xlink:href="#innoGrad6"/>
        <linearGradient id="linearGradient4964" x1="37.258" x2="94.629" y1="221.074" y2="221.074" gradientUnits="userSpaceOnUse" xlink:href="#innoGrad7"/>
        <linearGradient id="linearGradient4980" x1="31.327" x2="97.961" y1="189.338" y2="189.338" gradientUnits="userSpaceOnUse" xlink:href="#innoGrad6"/>
        <linearGradient id="linearGradient4996" x1="32.335" x2="94.949" y1="188.742" y2="188.742" gradientUnits="userSpaceOnUse" xlink:href="#innoGrad7"/>
        <linearGradient id="linearGradient5004" x1="26.608" x2="102.02" y1="154.989" y2="154.989" gradientUnits="userSpaceOnUse" xlink:href="#innoGrad6"/>
        <linearGradient id="linearGradient5012" x1="28.168" x2="98.552" y1="154.698" y2="154.698" gradientUnits="userSpaceOnUse" xlink:href="#innoGrad7"/>
        <linearGradient id="linearGradient5020" x1="30.214" x2="110.597" y1="116.468" y2="116.468" gradientUnits="userSpaceOnUse" xlink:href="#innoGrad6"/>
        <linearGradient id="linearGradient5028" x1="32.307" x2="107.204" y1="115.922" y2="115.922" gradientUnits="userSpaceOnUse" xlink:href="#innoGrad7"/>
        <linearGradient id="linearGradient5036" x1="34.451" x2="122.508" y1="75.171" y2="75.171" gradientUnits="userSpaceOnUse" xlink:href="#innoGrad6"/>
        <linearGradient id="linearGradient5044" x1="35.818" x2="119.951" y1="74.991" y2="74.991" gradientUnits="userSpaceOnUse" xlink:href="#innoGrad7"/>
        <radialGradient id="radialGradient5115" cx="97.384" cy="43.75" r="2.75" fx="97.384" fy="43.75" gradientTransform="matrix(1 0 0 .9091 0 3.977)" gradientUnits="userSpaceOnUse" xlink:href="#innoGrad5"/>
        <radialGradient id="radialGradient5117" cx="130.979" cy="45.015" r="3" fx="130.979" fy="45.015" gradientTransform="matrix(1 0 0 .875 0 5.64)" gradientUnits="userSpaceOnUse" xlink:href="#innoGrad5"/>
        <radialGradient id="radialGradient5119" cx="163.861" cy="111.623" r="2.187" fx="163.861" fy="111.623" gradientTransform="matrix(1 0 0 1.17147 0 -19.117)" gradientUnits="userSpaceOnUse" xlink:href="#innoGrad5"/>
        <radialGradient id="radialGradient5121" cx="42.107" cy="57.687" r="1.49" fx="42.107" fy="57.687" gradientTransform="matrix(1 0 0 1.48644 0 -28.061)" gradientUnits="userSpaceOnUse" xlink:href="#innoGrad5"/>
        <radialGradient id="radialGradient5123" cx="211.84" cy="38.902" r="1.579" fx="211.84" fy="38.902" gradientTransform="matrix(1 0 0 1.46165 0 -18.067)" gradientUnits="userSpaceOnUse" xlink:href="#innoGrad5"/>
        <radialGradient id="radialGradient5178" cx="44.606" cy="37.28" r="1.319" fx="44.606" fy="37.28" gradientTransform="matrix(1 0 0 1.82115 0 -30.612)" gradientUnits="userSpaceOnUse" xlink:href="#innoGrad4"/>
        <radialGradient id="radialGradient5180" cx="98.632" cy="24.72" r="2.322" fx="98.632" fy="24.72" gradientTransform="matrix(1 0 0 .866 0 3.335)" gradientUnits="userSpaceOnUse" xlink:href="#innoGrad4"/>
        <radialGradient id="radialGradient5182" cx="118.985" cy="24.344" r="2.188" fx="118.985" fy="24.344" gradientTransform="matrix(1 0 0 .95521 0 1.09)" gradientUnits="userSpaceOnUse" xlink:href="#innoGrad4"/>
        <radialGradient id="radialGradient5184" cx="141.1" cy="25.672" r="2.482" fx="141.1" fy="25.672" gradientUnits="userSpaceOnUse" xlink:href="#innoGrad4"/>
        <radialGradient id="radialGradient5186" cx="189.732" cy="23.46" r="1.782" fx="189.732" fy="23.46" gradientTransform="matrix(1 0 0 1.40285 0 -9.492)" gradientUnits="userSpaceOnUse" xlink:href="#innoGrad4"/>
        <radialGradient id="radialGradient5188" cx="197.867" cy="19.19" r="1.734" fx="197.867" fy="19.19" gradientTransform="matrix(1 0 0 1.25617 0 -4.877)" gradientUnits="userSpaceOnUse" xlink:href="#innoGrad4"/>
        <radialGradient id="radialGradient5190" cx="207.797" cy="21.058" r="1.611" fx="207.797" fy="21.058" gradientTransform="matrix(1 0 0 1.7202 0 -15.347)" gradientUnits="userSpaceOnUse" xlink:href="#innoGrad4"/>
    </defs>
    <g fill="#ff2a2a" stroke="#000" stroke-miterlimit="10">
        <path d="M106.528 84.902s-1.711-.623-3.378 2.607c-1.667 3.23.711 35.479 1.689 37.563.251.537 2.211 3.096 6.478 4.75 5.353 2.076 14.617 3.115 21.916 5.166 11.307 3.176 13.75 5.775 17.584 5.775 5.25 0 10.273-5.41 16.584-10.525 7.559-6.129 15.271-12.379 15.75-13.95.875-2.883-1.316-19.31-1.316-19.31z"/>
        <path d="M106.557 83.654s-.5 13.234 2.092 17.004c2.75 4 12.868 5.617 20 6.667 13.25 1.949 21.75 8.507 27.5 8.257s11.166-7.833 16.084-11.503c2.646-1.976 5.447-3.716 7.834-5.586 2.047-1.604 3.93-3.14 3.582-6.833-.49-5.233-1.814-17.959-1.814-17.959z"/>
        <path d="M97.565 45.406s27.573-9.543 51.417-10.667c23.844-1.124 45.414 5.417 45.414 5.417s4.553 11.69 3.338 22.443c-.518 4.574-5.549 11.79-9.168 16.641-1.881 2.52-2.076 5.06-3.705 4.905-1.629-.155-3.879-7.239-27.129-6.655-15.396.386-34.168 11.832-38 11.916-3.833.084-8.667-5.261-18.359-7.25-4.52-.927-10.07-1.083-10.07-1.083z"/>
    </g>
    <g stroke="#000">
        <path fill="#ff2a2a" stroke-miterlimit="10" d="M164.875 24.5l31.934 23.625c4.806-6.01 6.634-4.956 9.566-8.625 2.871-3.592 3.125-7.25 3.125-7.25z"/>
        <path fill="#ff7f2a" stroke-miterlimit="10" d="M104.25 75.875l-1.5 9.375 31.625-.719-1.25-8.031zM145.75 33.25l-19 2.041-.625 12.834h19.625z"/>
        <path fill="#ff7f2a" fill-rule="evenodd" d="M177.488 21.75l14.228-2.509 5.093 28.884-14.228 2.508z"/>
    </g>
    <g fill="#ff2a2a" stroke="#000" stroke-miterlimit="10">
        <path d="M215.046 208.833s-.85-1.347-.487-2.425c.363-1.078 1.529-.911 1.529-.911l1.625 3.833s.888 3.167-.209 3.708c-1.097.541-2.458-4.205-2.458-4.205zM226.266 96.663s-.519.452-1.515-.736c-1.089-1.3-.792-2.583-3.115-4.412-2.022-1.592-16.093-15.545-16.093-15.545l6.333-10.254zM222.004 130.975c-.269.223-.514-2.496-2.626-5.501-3.79-5.393-12.125-15.211-12.125-15.211l4.25-13.515 8.875 24.434 1.626 5.75c0-.001.751 3.42 0 4.043zM227.646 183.963c-.393.003-1.081-1.667-1.871-3.078-.757-1.352-1.624-2.447-1.624-2.447l1.624-.178 1.871 3.125s.768 2.572 0 2.578zM224.919 159.184c-.5.094-.582-1.457-1.166-2.291-.584-.834-7.813-.292-7.813-.292l.188-13 5.841 3.205 3.721 10.805c-.001-.001-.271 1.479-.771 1.573z"/>
    </g>
    <g>
        <path fill="#ffb380" d="M118.483 118.827s-4.911 25.175 1.247 31.091c4.771 4.583 13.188 4.355 21.771 7.583 9.222 3.469 17.147 8.666 21.667 8.666 4.927 0 10.379-6.45 15.917-11.008 6.452-5.309 12.719-8.948 13.75-10.742 1.916-3.333 0-23.519 0-23.519z"/>
        <path fill="url(#linearGradient921)" stroke="#000" stroke-miterlimit="10" d="M118.483 118.827s-4.911 25.175 1.247 31.091c4.771 4.583 13.188 4.355 21.771 7.583 9.222 3.469 17.147 8.666 21.667 8.666 4.927 0 10.379-6.45 15.917-11.008 6.452-5.309 12.719-8.948 13.75-10.742 1.916-3.333 0-23.519 0-23.519z"/>
        <path fill="#ff8080" d="M191.658 121.907s1.14 15.854-.908 21.694c-.3.854-5.564 4.13-11 8.399-6.65 5.224-14.187 11.933-16.75 11.75-7-.5-10.447-4.523-18.75-7.25-7.609-2.498-16.402-3.684-20.693-5.833-1.43-.716-2.767-2.768-3.045-3.667-1.159-3.753-.687-21.576-.687-21.576z"/>
        <path fill="url(#linearGradient931)" stroke="#000" stroke-miterlimit="10" d="M191.658 121.907s1.14 15.854-.908 21.694c-.3.854-5.564 4.13-11 8.399-6.65 5.224-14.187 11.933-16.75 11.75-7-.5-10.447-4.523-18.75-7.25-7.609-2.498-16.402-3.684-20.693-5.833-1.43-.716-2.767-2.768-3.045-3.667-1.159-3.753-.687-21.576-.687-21.576z"/>
        <path fill="#ffb380" d="M121.045 84.579s-1.711-.623-3.378 2.607c-1.667 3.23.711 35.479 1.689 37.563.251.537 2.211 3.096 6.478 4.75 5.353 2.076 14.617 3.115 21.917 5.166 11.306 3.176 13.75 5.775 17.584 5.775 5.25 0 10.272-5.41 16.583-10.525 7.56-6.129 15.272-12.379 15.75-13.95.876-2.883-1.315-19.31-1.315-19.31z"/>
        <path fill="url(#linearGradient964)" stroke="#000" stroke-miterlimit="10" d="M121.045 84.579s-1.711-.623-3.378 2.607c-1.667 3.23.711 35.479 1.689 37.563.251.537 2.211 3.096 6.478 4.75 5.353 2.076 14.617 3.115 21.917 5.166 11.306 3.176 13.75 5.775 17.584 5.775 5.25 0 10.272-5.41 16.583-10.525 7.56-6.129 15.272-12.379 15.75-13.95.876-2.883-1.315-19.31-1.315-19.31z"/>
        <path fill="#ff8080" d="M194.583 98.168s1.916 13.5.916 16.25c-.568 1.563-10.622 9.229-18.082 15.331-5.667 4.635-8.842 8.299-11 8.083-5-.5-9.834-3.046-17.584-5.688s-24.825-1.706-26.825-8.895c-.88-3.165-.691-10.603-.973-17.917-.359-9.299-.974-18.449.002-18.916 1.743-.833 73.546 11.752 73.546 11.752z"/>
        <path fill="url(#linearGradient980)" stroke="#000" stroke-miterlimit="10" d="M194.583 98.168s1.916 13.5.916 16.25c-.568 1.563-10.622 9.229-18.082 15.331-5.667 4.635-8.842 8.299-11 8.083-5-.5-9.834-3.046-17.584-5.688s-24.825-1.706-26.825-8.895c-.88-3.165-.691-10.603-.973-17.917-.359-9.299-.974-18.449.002-18.916 1.743-.833 73.546 11.752 73.546 11.752z"/>
        <path fill="#ffb380" d="M121.074 83.331s-.5 13.234 2.092 17.004c2.75 4 12.868 5.617 20 6.667 13.25 1.949 21.75 8.507 27.5 8.257s11.166-7.833 16.083-11.503c2.646-1.976 5.447-3.716 7.834-5.586 2.048-1.604 3.93-3.14 3.583-6.833-.49-5.233-1.814-17.959-1.814-17.959z"/>
        <path fill="url(#linearGradient988)" stroke="#000" stroke-miterlimit="10" d="M121.074 83.331s-.5 13.234 2.092 17.004c2.75 4 12.868 5.617 20 6.667 13.25 1.949 21.75 8.507 27.5 8.257s11.166-7.833 16.083-11.503c2.646-1.976 5.447-3.716 7.834-5.586 2.048-1.604 3.93-3.14 3.583-6.833-.49-5.233-1.814-17.959-1.814-17.959z"/>
        <path fill="#ff8080" d="M123.557 84.361s.026 13.558 2.193 14.975c1.019.666 12.196 2.699 21.75 5.583 10.764 3.249 20.135 7.326 23.313 6.93 2.965-.37 7.576-4.84 13.021-9.263 5.575-4.528 11-5.855 12.333-10.5.831-2.895-1.401-11.446-1.401-11.446l-6.182-10.971z"/>
        <path fill="url(#linearGradient996)" stroke="#000" stroke-miterlimit="10" d="M123.557 84.361s.026 13.558 2.193 14.975c1.019.666 12.196 2.699 21.75 5.583 10.764 3.249 20.135 7.326 23.313 6.93 2.965-.37 7.576-4.84 13.021-9.263 5.575-4.528 11-5.855 12.333-10.5.831-2.895-1.401-11.446-1.401-11.446l-6.182-10.971z"/>
        <path fill="#ffb380" d="M112.083 45.083s27.573-9.543 51.417-10.667c23.844-1.124 45.414 5.417 45.414 5.417s4.553 11.69 3.338 22.443c-.517 4.574-5.549 11.79-9.168 16.641-1.88 2.52-2.076 5.06-3.705 4.905-1.629-.155-3.879-7.239-27.129-6.655-15.396.386-34.167 11.832-38 11.916-3.833.084-8.667-5.261-18.359-7.25-4.52-.927-10.07-1.083-10.07-1.083z"/>
        <path fill="url(#linearGradient1004)" stroke="#000" stroke-miterlimit="10" d="M112.083 45.083s27.573-9.543 51.417-10.667c23.844-1.124 45.414 5.417 45.414 5.417s4.553 11.69 3.338 22.443c-.517 4.574-5.549 11.79-9.168 16.641-1.88 2.52-2.076 5.06-3.705 4.905-1.629-.155-3.879-7.239-27.129-6.655-15.396.386-34.167 11.832-38 11.916-3.833.084-8.667-5.261-18.359-7.25-4.52-.927-10.07-1.083-10.07-1.083z"/>
        <path fill="#ff8080" d="M114.333 45.832s37.675-9.89 49.666-10.5C175.99 34.722 206 41.167 206 41.167s6.781 8.765 6.218 13.834c-1.249 11.232-7.239 16.982-10.886 22.5-1.632 2.47-1.053 3.731-1.954 3.731-3.02 0-3.406-7.682-29.212-6.241-18.084 1.01-30.456 11.329-35.5 11.426-4.333.083-9.637-4.231-14.583-6.583C113.617 76.759 106.691 76 106.691 76z"/>
        <path fill="url(#linearGradient1020)" stroke="#000" stroke-miterlimit="10" d="M114.333 45.832s37.675-9.89 49.666-10.5C175.99 34.722 206 41.167 206 41.167s6.781 8.765 6.218 13.834c-1.249 11.232-7.239 16.982-10.886 22.5-1.632 2.47-1.053 3.731-1.954 3.731-3.02 0-3.406-7.682-29.212-6.241-18.084 1.01-30.456 11.329-35.5 11.426-4.333.083-9.637-4.231-14.583-6.583C113.617 76.759 106.691 76 106.691 76z"/>
    </g>
    <g>
        <path fill="#ffb380" d="M38.983 28.55c.016.847 1.23 3.504 2.142 6.2 2.065 6.109 4.75 14.875 4.75 14.875s59.631-10.293 69.5-11c4.804-.344 33.824 1.503 54.625-.375 7.65-.691 15.346-2.998 21-4.625.867-.25 1.979-1.902 2.625-2.125 1.531-.53 2.299.476 4.354.479 7.892.009 11.535 1.116 11.521.271-.063-3.499-3.373-8.122-3.125-11.625.254-3.599 2.219-4.978 1.625-6.25-.232-.499-4.746-7.84-6.75-7.875-2.25-.039-17.205 3.482-33.375 4.375-20.63 1.14-49.436-.5-71.75 1.125-25.75 1.875-57.173 14.875-57.142 16.55z"/>
        <path fill="url(#linearGradient1043)" stroke="#000" stroke-miterlimit="10" d="M38.983 28.55c.016.847 1.23 3.504 2.142 6.2 2.065 6.109 4.75 14.875 4.75 14.875s59.631-10.293 69.5-11c4.804-.344 33.824 1.503 54.625-.375 7.65-.691 15.346-2.998 21-4.625.867-.25 1.979-1.902 2.625-2.125 1.531-.53 2.299.476 4.354.479 7.892.009 11.535 1.116 11.521.271-.063-3.499-3.373-8.122-3.125-11.625.254-3.599 2.219-4.978 1.625-6.25-.232-.499-4.746-7.84-6.75-7.875-2.25-.039-17.205 3.482-33.375 4.375-20.63 1.14-49.436-.5-71.75 1.125-25.75 1.875-57.173 14.875-57.142 16.55z"/>
        <path d="M206.375 20.625c.07-.018-.177-1.348-.656-3.14a46.6 46.6 0 0 0-1.082-3.506 34.128 34.128 0 0 0-.952-2.41c-.416-.935-.866-1.791-1.336-2.45a4.949 4.949 0 0 0-.745-.85c-.259-.226-.55-.407-.87-.488a1.43 1.43 0 0 0-.997.11c-.315.157-.59.424-.831.771-.48.688-.9 1.786-1.268 3.35-2.35 9.99-1.027 16.844-.403 19.217.155.594.27.908.274.921l.94-.342c.005.013-.1-.271-.247-.833-.59-2.248-1.84-8.928.41-18.737.35-1.53.728-2.485 1.092-3.026.18-.266.34-.406.466-.475a.496.496 0 0 1 .349-.053c.134.028.302.11.501.272.198.162.409.389.629.678.44.578.887 1.365 1.323 2.266.352.728.693 1.521 1.014 2.325.471 1.179.907 2.37 1.275 3.403.619 1.736 1.044 3.015 1.114 2.997z"/>
    </g>
    <g>
        <path fill="#ffb380" d="M212.739 164.25s-1.348-.117-2.234 4.048c-.581 2.729-.985 10.334-.751 17.498.219 6.722 1.047 13.05 1.417 14.747 1.208 5.539 6.042 6.997 6.042 10.04 0 5.291-1.753-1.991-2.167-1.75-.5.291 1.203 5.289 1.875 5.292.453.002 1.382-1.455 1.5-2.918.153-1.897-.583-3.915-.583-3.915z"/>
        <path fill="url(#linearGradient4810)" stroke="#000" stroke-miterlimit="10" d="M212.739 164.25s-1.348-.117-2.234 4.048c-.581 2.729-.985 10.334-.751 17.498.219 6.722 1.047 13.05 1.417 14.747 1.208 5.539 6.042 6.997 6.042 10.04 0 5.291-1.753-1.991-2.167-1.75-.5.291 1.203 5.289 1.875 5.292.453.002 1.382-1.455 1.5-2.918.153-1.897-.583-3.915-.583-3.915z"/>
        <path fill="#ff8080" d="M212.88 164.8s-1.224 1.625-1.417 6.46c-.345 8.615.285 23.063.583 25.619.465 3.989 5.792 10.413 5.792 10.413l1.708-30.905z"/>
        <path fill="url(#linearGradient4818)" stroke="#000" stroke-miterlimit="10" d="M212.88 164.8s-1.224 1.625-1.417 6.46c-.345 8.615.285 23.063.583 25.619.465 3.989 5.792 10.413 5.792 10.413l1.708-30.905z"/>
        <path fill="#ffb380" d="M209.067 135.952s1.438 35.272 9.58 39.936c6.291 3.603 7.565 2.187 8.105 5.168.893 4.933 1.593 2.688 1.459.539-.078-1.263-.912-2.323-.912-2.323z"/>
        <path fill="url(#linearGradient4826)" stroke="#000" stroke-miterlimit="10" d="M209.067 135.952s1.438 35.272 9.58 39.936c6.291 3.603 7.565 2.187 8.105 5.168.893 4.933 1.593 2.688 1.459.539-.078-1.263-.912-2.323-.912-2.323z"/>
        <path fill="#ff8080" d="M210.505 140.752s.973 10.521 2.623 18.889c1.113 5.642 2.864 9.638 3.583 11.292.944 2.177 5.029 3.72 7.583 5.414 2.267 1.504 2.774 3.429 3.084 3.291.31-.138-5.36-25.063-5.36-25.063z"/>
        <path fill="url(#linearGradient4842)" stroke="#000" stroke-miterlimit="10" d="M210.505 140.752s.973 10.521 2.623 18.889c1.113 5.642 2.864 9.638 3.583 11.292.944 2.177 5.029 3.72 7.583 5.414 2.267 1.504 2.774 3.429 3.084 3.291.31-.138-5.36-25.063-5.36-25.063z"/>
        <path fill="#ffb380" d="M209.66 108.611s-3.824 1.194-4.199 1.777c-.215.334.169 9.99 2.417 20.599 1.676 7.902 4.664 17.072 7.726 19.362 6.794 5.083 6.69 3.875 8.232 5.542 1.542 1.667.249 3.292 1.083 3.292 2.084 0-.291-4.125-.291-4.125z"/>
        <path fill="url(#linearGradient4850)" stroke="#000" stroke-miterlimit="10" d="M209.66 108.611s-3.824 1.194-4.199 1.777c-.215.334.169 9.99 2.417 20.599 1.676 7.902 4.664 17.072 7.726 19.362 6.794 5.083 6.69 3.875 8.232 5.542 1.542 1.667.249 3.292 1.083 3.292 2.084 0-.291-4.125-.291-4.125z"/>
        <path fill="#ff8080" d="M209.734 109.23l-2.481 1.617s.778 17.882 2.333 21.837c.764 1.942 1.699 9.184 5.209 14.209 1.683 2.41 4.546 3.415 6.458 4.792 2.219 1.597 3.375 3.374 3.375 3.374s-3.133-14.666-3.375-16.583c-.242-1.917-1.54-15.185-1.54-15.185z"/>
        <path fill="url(#linearGradient4858)" stroke="#000" stroke-miterlimit="10" d="M209.734 109.23l-2.481 1.617s.778 17.882 2.333 21.837c.764 1.942 1.699 9.184 5.209 14.209 1.683 2.41 4.546 3.415 6.458 4.792 2.219 1.597 3.375 3.374 3.375 3.374s-3.133-14.666-3.375-16.583c-.242-1.917-1.54-15.185-1.54-15.185z"/>
        <path fill="#ffb380" d="M209.284 73.375s-.426 8.541-.365 17.261c.064 9.078.621 18.363.919 19.128 1.251 3.213 2.708 6 5.083 8.417 2.562 2.606 6.551 5.544 6.706 10.626.039 1.276.197 1.956.377 2.167.397.466.899-1.336.459-4.043-.381-2.342-.876-3.334-.876-3.334l-4.124-24.048z"/>
        <path fill="url(#linearGradient4874)" stroke="#000" stroke-miterlimit="10" d="M209.284 73.375s-.426 8.541-.365 17.261c.064 9.078.621 18.363.919 19.128 1.251 3.213 2.708 6 5.083 8.417 2.562 2.606 6.551 5.544 6.706 10.626.039 1.276.197 1.956.377 2.167.397.466.899-1.336.459-4.043-.381-2.342-.876-3.334-.876-3.334l-4.124-24.048z"/>
        <path fill="#ff8080" d="M210.714 75.492s-.524 29.821.249 33.272c.437 1.948 4.398 6.305 7.166 9.875 2.137 2.754 3.24 5.14 3.458 4.958.136-.114-.072-3.685-.666-8.75-.351-2.99-1.024-6.448-1.333-10.167-1.09-13.132-1.375-28.585-1.375-28.585z"/>
        <path fill="url(#linearGradient4882)" stroke="#000" stroke-miterlimit="10" d="M210.714 75.492s-.524 29.821.249 33.272c.437 1.948 4.398 6.305 7.166 9.875 2.137 2.754 3.24 5.14 3.458 4.958.136-.114-.072-3.685-.666-8.75-.351-2.99-1.024-6.448-1.333-10.167-1.09-13.132-1.375-28.585-1.375-28.585z"/>
        <path fill="#ffb380" d="M206.688 34.5c-2.79.438-5.802.642-6.529 2.125-1.533 3.125-.658 6.875 1.342 14.25s4.938 20.75 10.718 26.313c1.665 1.602 2.72 3.5 8.608 8.609 2.239 1.943 5.384 7.098 4.924 9.766-.313 1.813.875 1.188 1.063.313.145-.674.005-2.271-.563-4-.746-2.277-2-4.699-2-4.699l-12.938-48.239.813-1.563s-.433-.688-.166-1.5c.122-.371 1.163-1.137 1.163-1.542-.001-1.041-3.348-.317-6.435.167z"/>
        <path fill="url(#linearGradient4890)" stroke="#000" stroke-miterlimit="10" d="M206.688 34.5c-2.79.438-5.802.642-6.529 2.125-1.533 3.125-.658 6.875 1.342 14.25s4.938 20.75 10.718 26.313c1.665 1.602 2.72 3.5 8.608 8.609 2.239 1.943 5.384 7.098 4.924 9.766-.313 1.813.875 1.188 1.063.313.145-.674.005-2.271-.563-4-.746-2.277-2-4.699-2-4.699l-12.938-48.239.813-1.563s-.433-.688-.166-1.5c.122-.371 1.163-1.137 1.163-1.542-.001-1.041-3.348-.317-6.435.167z"/>
        <path fill="#ff8080" d="M212.125 37.375s-10.5-.061-11.875.97c-.822.616 4 21.343 9.688 32.905 2.973 6.044 9.322 11.412 12.25 13.75 1.481 1.183 1.937 2.306 2.063 2.176.685-.706-12.126-49.801-12.126-49.801z"/>
        <path fill="url(#linearGradient4898)" stroke="#000" stroke-miterlimit="10" d="M212.125 37.375s-10.5-.061-11.875.97c-.822.616 4 21.343 9.688 32.905 2.973 6.044 9.322 11.412 12.25 13.75 1.481 1.183 1.937 2.306 2.063 2.176.685-.706-12.126-49.801-12.126-49.801z"/>
    </g>
    <g>
        <path fill="#ffb380" d="M93.503 194.224s7.123 24.088.95 31.859c-6.619 8.333-17.714 11.916-27.073 17.083-5.43 2.998-8.827 5.512-10.296 5.42-1.694-.105-4.826-4.25-9.417-8.92-2.821-2.869-7.275-5.734-9.083-8.583-2.196-3.461-.639-8.003-.639-8.003l2.889-19.914z"/>
        <path fill="url(#linearGradient4948)" stroke="#000" stroke-miterlimit="10" d="M93.503 194.224s7.123 24.088.95 31.859c-6.619 8.333-17.714 11.916-27.073 17.083-5.43 2.998-8.827 5.512-10.296 5.42-1.694-.105-4.826-4.25-9.417-8.92-2.821-2.869-7.275-5.734-9.083-8.583-2.196-3.461-.639-8.003-.639-8.003l2.889-19.914z"/>
        <path fill="#ff8080" d="M91.043 197.303s4.625 19.697 2.541 24.28c-.717 1.579-1.363 4.908-6.583 8.5-3.525 2.426-8.937 4.443-13.333 6.75-7.995 4.193-14.813 8.071-16.25 8.083-2.167.018-5.637-5.025-10.75-9.5-4.534-3.969-8.985-7.955-8.75-11.833.414-6.822-.137-17.408-.137-17.408z"/>
        <path fill="url(#linearGradient4964)" stroke="#000" stroke-miterlimit="10" d="M91.043 197.303s4.625 19.697 2.541 24.28c-.717 1.579-1.363 4.908-6.583 8.5-3.525 2.426-8.937 4.443-13.333 6.75-7.995 4.193-14.813 8.071-16.25 8.083-2.167.018-5.637-5.025-10.75-9.5-4.534-3.969-8.985-7.955-8.75-11.833.414-6.822-.137-17.408-.137-17.408z"/>
        <path fill="#ffb380" d="M95.366 161.162s4.698 20.173 0 29.757c-2.722 5.554-6.864 11.5-26.031 18.417-8.161 2.945-9.333 7.75-15.667 8.25-2.735.216-7.019-4.494-12.333-9-5.027-4.263-12.167-4.75-8.5-11.667 4.249-8.015 12.127-26.269 12.127-26.269z"/>
        <path fill="url(#linearGradient4980)" stroke="#000" stroke-miterlimit="10" d="M95.366 161.162s4.698 20.173 0 29.757c-2.722 5.554-6.864 11.5-26.031 18.417-8.161 2.945-9.333 7.75-15.667 8.25-2.735.216-7.019-4.494-12.333-9-5.027-4.263-12.167-4.75-8.5-11.667 4.249-8.015 12.127-26.269 12.127-26.269z"/>
        <path fill="#ff8080" d="M92.827 164.029s6.028 24.12-5.159 31.057c-.666.413-1.784 2.136-4.5 3.917-3.153 2.068-12.987 6.401-17.333 8.833-7.024 3.93-5.167 5.083-11.833 5.667-2.48.217-4.917-3.917-10.371-6.845-4.746-2.547-10.796-5.822-10.796-9.739 0-6.342 2.085-24.88 2.085-24.88z"/>
        <path fill="url(#linearGradient4996)" stroke="#000" stroke-miterlimit="10" d="M92.827 164.029s6.028 24.12-5.159 31.057c-.666.413-1.784 2.136-4.5 3.917-3.153 2.068-12.987 6.401-17.333 8.833-7.024 3.93-5.167 5.083-11.833 5.667-2.48.217-4.917-3.917-10.371-6.845-4.746-2.547-10.796-5.822-10.796-9.739 0-6.342 2.085-24.88 2.085-24.88z"/>
        <path fill="#ffb380" d="M101.484 128s-1.233 29.587-7.816 35.337c-6.583 5.75-17.502 7.167-23.918 9.5s-20.832 11-22.749 9.25c-3.184-2.907-5.254-5.809-9.083-8.5-3.559-2.5-9.699-3.15-10.382-3.953-1.417-1.667 1.132-3.38 1.132-3.38z"/>
        <path fill="url(#linearGradient5004)" stroke="#000" stroke-miterlimit="10" d="M101.484 128s-1.233 29.587-7.816 35.337c-6.583 5.75-17.502 7.167-23.918 9.5s-20.832 11-22.749 9.25c-3.184-2.907-5.254-5.809-9.083-8.5-3.559-2.5-9.699-3.15-10.382-3.953-1.417-1.667 1.132-3.38 1.132-3.38z"/>
        <path fill="#ff8080" d="M98.043 131.104s-.459 29.484-10.125 33.15c-4.692 1.779-12.867 3.347-20.833 6.583-8.447 3.431-13.75 7.17-17.667 7.503-2.083.177-7.661-6.621-12.5-9.253-3.481-1.895-8.25-2.241-8.25-2.833.001-3.751 6.678-28.958 6.678-28.958z"/>
        <path fill="url(#linearGradient5012)" stroke="#000" stroke-miterlimit="10" d="M98.043 131.104s-.459 29.484-10.125 33.15c-4.692 1.779-12.867 3.347-20.833 6.583-8.447 3.431-13.75 7.17-17.667 7.503-2.083.177-7.661-6.621-12.5-9.253-3.481-1.895-8.25-2.241-8.25-2.833.001-3.751 6.678-28.958 6.678-28.958z"/>
        <path fill="#ffb380" d="M109.36 87.176s3.058 18.327-3.359 32.327c-1.774 3.87-3.1 7.531-6.25 10.333-5.29 4.706-17.532 6.014-24.333 8.834-8.892 3.688-12.929 7.024-17.083 7.166-4.182.143-8.696-4.596-14.167-7.083-4.121-1.874-9.435-1.936-11.917-.667-3.75 1.917.583-3.666.583-3.666l10.083-35.75z"/>
        <path fill="url(#linearGradient5020)" stroke="#000" stroke-miterlimit="10" d="M109.36 87.176s3.058 18.327-3.359 32.327c-1.774 3.87-3.1 7.531-6.25 10.333-5.29 4.706-17.532 6.014-24.333 8.834-8.892 3.688-12.929 7.024-17.083 7.166-4.182.143-8.696-4.596-14.167-7.083-4.121-1.874-9.435-1.936-11.917-.667-3.75 1.917.583-3.666.583-3.666l10.083-35.75z"/>
        <path fill="#ff8080" d="M106.189 89.573s4.229 26.763-11.854 40.012c-3.087 2.543-6.696 1.215-12 3.251-9.623 3.695-21.707 9.947-24.167 9.5-4.583-.833-7.712-4.996-13.833-6.916-5.291-1.66-11.268-.574-11.5-1-.5-.917 6.5-31.75 6.5-31.75z"/>
        <path fill="url(#linearGradient5028)" stroke="#000" stroke-miterlimit="10" d="M106.189 89.573s4.229 26.763-11.854 40.012c-3.087 2.543-6.696 1.215-12 3.251-9.623 3.695-21.707 9.947-24.167 9.5-4.583-.833-7.712-4.996-13.833-6.916-5.291-1.66-11.268-.574-11.5-1-.5-.917 6.5-31.75 6.5-31.75z"/>
        <path fill="#ffb380" d="M43.583 49c-1.25 1.917.157 4.461.157 4.461l1.093 24.122-8.51 27.875s-2.914 3.628-.238 2.833c.822-.244 5.567-3.847 9.998-2.957 6.17 1.239 11.89 6.664 14.417 6.664 6.583.001 13.237-6.013 27.417-13.581 7.662-4.089 17.827-6.64 23.5-13.334 5.579-6.583 7.274-14.829 8.833-22.5 2.056-10.123 2.678-19.164-.167-21.251-2.721-1.996-24.75-5.5-55.75-.167C47.756 44.018 43.583 49 43.583 49z"/>
        <path fill="url(#linearGradient5036)" stroke="#000" stroke-miterlimit="10" d="M43.583 49c-1.25 1.917.157 4.461.157 4.461l1.093 24.122-8.51 27.875s-2.914 3.628-.238 2.833c.822-.244 5.567-3.847 9.998-2.957 6.17 1.239 11.89 6.664 14.417 6.664 6.583.001 13.237-6.013 27.417-13.581 7.662-4.089 17.827-6.64 23.5-13.334 5.579-6.583 7.274-14.829 8.833-22.5 2.056-10.123 2.678-19.164-.167-21.251-2.721-1.996-24.75-5.5-55.75-.167C47.756 44.018 43.583 49 43.583 49z"/>
        <path fill="#ff8080" d="M119.207 42.649c-.471-1.191-20.79-4.066-54.957.434-13.262 1.747-20.332 9.155-20.417 9.75-.085.595-7.833 52.251-7.5 52.917.14.279 5.118-3.466 9.917-2.667 6.641 1.105 13.811 6.429 15.75 6.25 4.5-.416 10.851-6.08 21.75-11.5 10.977-5.458 22.683-10.439 25.25-13.417 9.917-11.499 11.104-39.499 10.207-41.767z"/>
        <path fill="url(#linearGradient5044)" stroke="#000" stroke-miterlimit="10" d="M119.207 42.649c-.471-1.191-20.79-4.066-54.957.434-13.262 1.747-20.332 9.155-20.417 9.75-.085.595-7.833 52.251-7.5 52.917.14.279 5.118-3.466 9.917-2.667 6.641 1.105 13.811 6.429 15.75 6.25 4.5-.416 10.851-6.08 21.75-11.5 10.977-5.458 22.683-10.439 25.25-13.417 9.917-11.499 11.104-39.499 10.207-41.767z"/>
    </g>
    <g>
        <ellipse cx="97" cy="43.75" fill="#faa" rx="2.25" ry="2"/>
        <ellipse cx="130.5" cy="45.125" fill="#faa" rx="2.5" ry="2.125"/>
        <ellipse cx="193.313" cy="42.313" fill="#faa" rx="1.687" ry="2.062" transform="rotate(-21.945 193.332 42.315)"/>
        <path fill="#faa" d="M43 56l-.75 3.375s-1.25.375-1.125-1.688C41.25 55.624 43 56 43 56zM210.25 37.625l.75 3.25s1.762.647 1.25-2.25c-.375-2.125-2-1-2-1z"/>
        <ellipse cx="97" cy="43.75" fill="url(#radialGradient5115)" stroke="#000" stroke-miterlimit="10" rx="2.25" ry="2"/>
        <ellipse cx="130.5" cy="45.125" fill="url(#radialGradient5117)" stroke="#000" stroke-miterlimit="10" rx="2.5" ry="2.125"/>
        <ellipse cx="163.483" cy="111.493" fill="url(#radialGradient5119)" stroke="#000" stroke-miterlimit="10" rx="1.687" ry="2.062" transform="rotate(-21.945)"/>
        <path fill="url(#radialGradient5121)" stroke="#000" stroke-miterlimit="10" d="M43 56l-.75 3.375s-1.25.375-1.125-1.688C41.25 55.624 43 56 43 56z"/>
        <path fill="url(#radialGradient5123)" stroke="#000" stroke-miterlimit="10" d="M210.25 37.625l.75 3.25s1.762.647 1.25-2.25c-.375-2.125-2-1-2-1z"/>
        <ellipse cx="45.063" cy="37.406" fill="#fca" stroke="#000" stroke-miterlimit="10" rx="1.063" ry="3.094"/>
        <ellipse cx="98.188" cy="24.875" fill="#fca" stroke="#000" stroke-miterlimit="10" rx="3.125" ry="3.281"/>
        <ellipse cx="118.375" cy="24.344" fill="#fca" stroke="#000" stroke-miterlimit="10" rx="3.188" ry="3.422"/>
        <ellipse cx="140.5" cy="25.938" fill="#fca" stroke="#000" stroke-miterlimit="10" rx="3.406" ry="3.438"/>
        <ellipse cx="188.5" cy="23.438" fill="#fca" stroke="#000" stroke-miterlimit="10" rx="1.563" ry="3.563"/>
        <ellipse cx="196.748" cy="19.125" fill="#fca" stroke="#000" stroke-miterlimit="10" rx="1.69" ry="3.375" transform="rotate(12.82 196.733 19.123)"/>
        <path fill="#ffe6d5" d="M45.188 35.438v3.688s-1.438.563-1.625-1.844c-.187-2.407 1.625-1.844 1.625-1.844zM100 24.064s-.25 1.625-1.125 2.125-2-.125-2-.125-1.375-.938.438-2.188c1.813-1.25 2.687.188 2.687.188z"/>
        <ellipse cx="118.375" cy="24.344" fill="#ffe6d5" rx="1.688" ry="1.59"/>
        <circle cx="140.625" cy="25.875" r="1.982" fill="#ffe6d5"/>
        <path fill="#ffe6d5" d="M188.438 21.563s-.563.438-.563 2 .563 2 .563 2 1.938 0 2-2c.062-2-2-2-2-2zM197.125 17.438s-1 .5-1.063 1.625c-.063 1.125.563 1.625.563 1.625s1.625-.25 1.875-1.188-1.375-2.062-1.375-2.062zM206.25 19.063l1 4.188s1.438-1 1-2.563c-.438-1.563-2-1.625-2-1.625z"/>
        <path fill="url(#radialGradient5178)" stroke="#000" stroke-miterlimit="10" d="M45.188 35.438v3.688s-1.438.563-1.625-1.844c-.187-2.407 1.625-1.844 1.625-1.844z"/>
        <path fill="url(#radialGradient5180)" stroke="#000" stroke-miterlimit="10" d="M100 24.064s-.25 1.625-1.125 2.125-2-.125-2-.125-1.375-.938.438-2.188c1.813-1.25 2.687.188 2.687.188z"/>
        <ellipse cx="118.375" cy="24.344" fill="url(#radialGradient5182)" stroke="#000" stroke-miterlimit="10" rx="1.688" ry="1.59"/>
        <circle cx="140.625" cy="25.875" r="1.982" fill="url(#radialGradient5184)" stroke="#000" stroke-miterlimit="10"/>
        <path fill="url(#radialGradient5186)" stroke="#000" stroke-miterlimit="10" d="M188.438 21.563s-.563.438-.563 2 .563 2 .563 2 1.938 0 2-2c.062-2-2-2-2-2z"/>
        <path fill="url(#radialGradient5188)" stroke="#000" stroke-miterlimit="10" d="M197.125 17.438s-1 .5-1.063 1.625c-.063 1.125.563 1.625.563 1.625s1.625-.25 1.875-1.188-1.375-2.062-1.375-2.062z"/>
        <path fill="url(#radialGradient5190)" stroke="#000" stroke-miterlimit="10" d="M206.25 19.063l1 4.188s1.438-1 1-2.563c-.438-1.563-2-1.625-2-1.625z"/>
    </g>
</svg>
