<svg xmlns="http://www.w3.org/2000/svg" xmlns:xlink="http://www.w3.org/1999/xlink" viewBox="0 0 256 256">
    <defs>
        <linearGradient id="innoGrad3">
            <stop offset="0" stop-color="#ff2a2a" stop-opacity="0"/>
            <stop offset="1" stop-color="#ff2a2a" stop-opacity=".502"/>
        </linearGradient>
        <linearGradient id="innoGrad2">
            <stop offset="0" stop-color="#ff7f2a" stop-opacity=".502"/>
            <stop offset="1" stop-color="#ff7f2a" stop-opacity="0"/>
        </linearGradient>
        <linearGradient id="innoGrad1">
            <stop offset="0" stop-color="#ff2a2a" stop-opacity=".502"/>
            <stop offset="1" stop-color="#ff2a2a" stop-opacity="0"/>
        </linearGradient>
        <linearGradient id="linearGradient866" x1="145.344" x2="153.39" y1="96.088" y2="53.512" gradientUnits="userSpaceOnUse" xlink:href="#innoGrad1"/>
        <linearGradient id="linearGradient929" x1="48.427" x2="24.552" y1="142.004" y2="155.788" gradientUnits="userSpaceOnUse" xlink:href="#innoGrad1"/>
        <linearGradient id="linearGradient968" x1="12.909" x2="243.501" y1="165.704" y2="165.704" gradientUnits="userSpaceOnUse" xlink:href="#innoGrad2"/>
        <linearGradient id="linearGradient991" x1="5.96" x2="192.684" y1="149.08" y2="149.08" gradientUnits="userSpaceOnUse" xlink:href="#innoGrad1"/>
        <linearGradient id="linearGradient1016" x1="28.746" x2="174.253" y1="87.656" y2="87.656" gradientUnits="userSpaceOnUse" xlink:href="#innoGrad1"/>
        <linearGradient id="linearGradient1039" x1="80.638" x2="170.597" y1="68.357" y2="68.357" gradientUnits="userSpaceOnUse" xlink:href="#innoGrad1"/>
        <radialGradient id="radialGradient1106" cx="84.36" cy="128.375" r="2.75" fx="84.36" fy="128.375" gradientTransform="matrix(1 0 0 .9091 0 11.67)" gradientUnits="userSpaceOnUse" xlink:href="#innoGrad3"/>
        <radialGradient id="radialGradient1122" cx="-.585" cy="146.065" r="2.625" fx="-.585" fy="146.065" gradientTransform="matrix(1 0 0 .83352 0 24.263)" gradientUnits="userSpaceOnUse" xlink:href="#innoGrad3"/>
        <radialGradient id="radialGradient1130" cx="55.631" cy="114.491" r="3.658" fx="55.631" fy="114.491" gradientTransform="matrix(1 0 0 .87337 0 14.576)" gradientUnits="userSpaceOnUse" xlink:href="#innoGrad3"/>
        <radialGradient id="radialGradient1138" cx="90.522" cy="106.484" r="3.786" fx="90.522" fy="106.484" gradientTransform="matrix(1 0 0 1.0257 0 -2.734)" gradientUnits="userSpaceOnUse" xlink:href="#innoGrad3"/>
        <radialGradient id="radialGradient1146" cx="98.709" cy="90.971" r="3.75" fx="98.709" fy="90.971" gradientTransform="matrix(1 0 0 1.05163 0 -4.701)" gradientUnits="userSpaceOnUse" xlink:href="#innoGrad3"/>
        <radialGradient id="radialGradient1154" cx="69.791" cy="87.608" r="2.577" fx="69.791" fy="87.608" gradientTransform="matrix(1 0 0 1.17904 0 -15.744)" gradientUnits="userSpaceOnUse" xlink:href="#innoGrad3"/>
        <radialGradient id="radialGradient1162" cx="55.389" cy="99.984" r="2.553" fx="55.389" fy="99.984" gradientTransform="matrix(1 0 0 .79316 0 20.73)" gradientUnits="userSpaceOnUse" xlink:href="#innoGrad3"/>
        <radialGradient id="radialGradient1170" cx="77.239" cy="69.826" r="2.721" fx="77.239" fy="69.826" gradientTransform="matrix(1 0 0 1.33134 0 -23.279)" gradientUnits="userSpaceOnUse" xlink:href="#innoGrad3"/>
        <radialGradient id="radialGradient1178" cx="171.392" cy="150.5" r="3.063" fx="171.392" fy="150.5" gradientUnits="userSpaceOnUse" xlink:href="#innoGrad3"/>
        <radialGradient id="radialGradient1180" cx="184.45" cy="148.904" r="2.625" fx="184.45" fy="148.904" gradientUnits="userSpaceOnUse" xlink:href="#innoGrad3"/>
        <radialGradient id="radialGradient1188" cx="208.127" cy="116.594" r="2.155" fx="208.127" fy="116.594" gradientTransform="matrix(1 0 0 .86482 0 15.76)" gradientUnits="userSpaceOnUse" xlink:href="#innoGrad3"/>
        <radialGradient id="radialGradient1190" cx="206.177" cy="110.8" r="2.285" fx="206.177" fy="110.8" gradientTransform="matrix(1 0 0 .72695 0 30.254)" gradientUnits="userSpaceOnUse" xlink:href="#innoGrad3"/>
        <radialGradient id="radialGradient1192" cx="201.972" cy="101.447" r="3.086" fx="201.972" fy="101.447" gradientTransform="matrix(1 0 0 .80476 0 19.771)" gradientUnits="userSpaceOnUse" xlink:href="#innoGrad3"/>
        <radialGradient id="radialGradient1194" cx="195.216" cy="98.606" r="1.571" fx="195.216" fy="98.606" gradientTransform="matrix(1 0 0 1.96382 0 -95.32)" gradientUnits="userSpaceOnUse" xlink:href="#innoGrad3"/>
        <radialGradient id="radialGradient1196" cx="193.588" cy="83.798" r="1.033" fx="193.588" fy="83.798" gradientTransform="matrix(1 0 0 2.60047 0 -134.138)" gradientUnits="userSpaceOnUse" xlink:href="#innoGrad3"/>
    </defs>
    <g>
        <path fill="#f55" d="M151.75 36.875c-18.961-5.061-33.418-3.877-33.418-3.877s-24.957.502-30.207 5.752c-.838.838-2.78 2.419-3.292 4.834-.725 3.415-.105 8.411-2.585 14.581-.519 1.292-2.4 1.317-2.874 3.46-.541 2.454.321 7.047-.375 8.625-1.23 2.788-2.217 6.106-3.333 8.75L63.938 98.063l92.813 28.688 48.25-3.125s-14.125-3.25-12.204-28.877c.293-3.904-1.032-10.664-.798-14.666.099-1.687-2.417 1.364-2.373-.268.188-6.982 3.557-13.734 3.303-15.48-1.431-9.835-22.218-22.399-41.179-27.46z"/>
        <path fill="url(#linearGradient866)" stroke="#000" stroke-miterlimit="10" d="M151.75 36.875c-18.961-5.061-33.418-3.877-33.418-3.877s-24.957.502-30.207 5.752c-.838.838-2.78 2.419-3.292 4.834-.725 3.415-.105 8.411-2.585 14.581-.519 1.292-2.4 1.317-2.874 3.46-.541 2.454.321 7.047-.375 8.625-1.23 2.788-2.217 6.106-3.333 8.75L63.938 98.063l92.813 28.688 48.25-3.125s-14.125-3.25-12.204-28.877c.293-3.904-1.032-10.664-.798-14.666.099-1.687-2.417 1.364-2.373-.268.188-6.982 3.557-13.734 3.303-15.48-1.431-9.835-22.218-22.399-41.179-27.46z"/>
    </g>
    <g>
        <path fill="#f55" d="M106 144.833s-21.393 25.724-43.833 28c-28.75 2.917-35.167-3.25-40.75-9.583-3.554-4.031-5.25-7.749-5.25-7.749s-4.75-13.501-.75-23.668 15.667-13.167 15.667-13.167z"/>
        <path fill="url(#linearGradient929)" stroke="#000" stroke-miterlimit="10" d="M106 144.833s-21.393 25.724-43.833 28c-28.75 2.917-35.167-3.25-40.75-9.583-3.554-4.031-5.25-7.749-5.25-7.749s-4.75-13.501-.75-23.668 15.667-13.167 15.667-13.167z"/>
        <path fill="#ffb380" d="M206.332 104.253s.304-.603 1.043-.69c.739-.087 1.625.375 1.625.375s12.855 6.288 22.668 20.729c6.473 9.525 11.333 23.299 11.333 38.668 0 7.524-.92 14.996-3.667 21.833-9.728 24.205-32.99 42.266-36.333 42.667-2.692.324-30.171-3.309-61.5-15.334-15.199-5.834-30.235-14.413-45.833-23.999-27.055-16.625-51.999-55.834-65-62.334-21.282-10.64-14.042 29.252-14.042 29.252s-5.299-11.044-2.291-22.585c3.008-11.542 10.999-12.501 10.999-12.501l146.763 6.417z"/>
        <path fill="url(#linearGradient968)" stroke="#000" stroke-miterlimit="10" d="M206.332 104.253s.304-.603 1.043-.69c.739-.087 1.625.375 1.625.375s12.855 6.288 22.668 20.729c6.473 9.525 11.333 23.299 11.333 38.668 0 7.524-.92 14.996-3.667 21.833-9.728 24.205-32.99 42.266-36.333 42.667-2.692.324-30.171-3.309-61.5-15.334-15.199-5.834-30.235-14.413-45.833-23.999-27.055-16.625-51.999-55.834-65-62.334-21.282-10.64-14.042 29.252-14.042 29.252s-5.299-11.044-2.291-22.585c3.008-11.542 10.999-12.501 10.999-12.501l146.763 6.417z"/>
        <path fill="#ff8080" d="M25.333 120.333s32.9-20.95 38.542-25.583C69.517 90.117 75.667 79 75.667 79s-4.737 5.396.833 9.5c14.336 10.566 46.929 31.317 93.875 29.625 24.5-.883 23.207-21.04 23.207-21.04l.086 2.148 12.664 5.02S239.667 123.166 240.5 162c.415 19.332-17.84 42.074-29.625 53.875-4.783 4.79-7.912 8.052-9.208 8.125-1.839.104-13.872-2.913-31.917-8.375-19.996-6.052-47.14-15.274-70.875-30.25-11.651-7.352-26.417-22.714-39.25-37.375-10.297-11.764-18.678-23.606-28.25-26.5-3.9-1.179-6.042-1.167-6.042-1.167z"/>
        <path fill="url(#linearGradient991)" stroke="#000" stroke-miterlimit="10" d="M25.333 120.333s32.9-20.95 38.542-25.583C69.517 90.117 75.667 79 75.667 79s-4.737 5.396.833 9.5c14.336 10.566 46.929 31.317 93.875 29.625 24.5-.883 23.207-21.04 23.207-21.04l.086 2.148 12.664 5.02S239.667 123.166 240.5 162c.415 19.332-17.84 42.074-29.625 53.875-4.783 4.79-7.912 8.052-9.208 8.125-1.839.104-13.872-2.913-31.917-8.375-19.996-6.052-47.14-15.274-70.875-30.25-11.651-7.352-26.417-22.714-39.25-37.375-10.297-11.764-18.678-23.606-28.25-26.5-3.9-1.179-6.042-1.167-6.042-1.167z"/>
        <path d="M201.667 224c.39-.08-2.097-9.775-3.345-14.22-1.328-4.732-2.607-8.83-2.565-8.695-.21-.674.084.311.027.223-.1-.154-.379-1.086-2.261-6.622-1.138-3.35-2.762-8.194-4.926-14.794a2765.939 2765.939 0 0 1-7.88-24.448 2630.438 2630.438 0 0 1-4.714-14.99c-.621-1.999-1.106-3.573-1.453-4.714-.183-.604-.33-1.089-.438-1.458a30.082 30.082 0 0 1-.223-.775c-.125-.461-.25-1.047-.37-1.687a65.353 65.353 0 0 1-.373-2.244 156.726 156.726 0 0 1-.673-5.166c-.26-2.261-.419-3.948-.483-4.692-.074-.843-.093-1.2-.097-1.365-.008-.313.027-.218.044-.132.025.121.063.428.068.454.006.027-.067-.672-.066-.669l-1.734.174c.028.271.073.704.073.677 0-.028-.027-.338-.028-.463 0-.09.015-.186.07.121.034.183.082.502.194 1.364.016.119.391 3.057.615 4.7.19 1.396.47 3.378.779 5.195.131.773.275 1.561.426 2.28.137.652.284 1.272.437 1.775a3165.34 3165.34 0 0 1 .709 2.244l1.493 4.705c1.118 3.515 2.798 8.78 4.791 14.97 3.066 9.52 5.708 17.62 7.952 24.433a2631.447 2631.447 0 0 0 4.921 14.803c1.81 5.397 2.119 6.623 2.12 6.655.005.104-.33-.865-.108-.197-.096-.288 1.382 4.078 2.81 8.596 1.652 5.23 3.993 14.007 4.208 13.962z"/>
    </g>
    <g fill="#ff2a2a" stroke="#000" stroke-miterlimit="10">
        <path d="M58.167 115.5l1.74 1s2.098-.359 2.929.745c.255.338.305 2.505-.753 3.255-1.122.795-4.634 1.293-5.583.75-1.241-.709-.583-2-.583-2l-2.583-.583zM198.5 102.375c-.313.5 3.375 2.438 3.375 2.438s2.563 1.875 3.063 1.75-2.688-3-2.688-3-3.437-1.688-3.75-1.188z"/>
    </g>
    <g>
        <path fill="#ff8080" d="M82.249 58.165s-1.25.333-2.25 1.5-.917 2.25-.917 2.25L75.667 79s-2.76 6.533 2.082 9.917c12.095 8.453 40.583 28.167 92.916 28.666 23.594.225 22.25-20.667 22.25-20.667l-.916-16.833s2.367 14.391-20.668 21.167c-7.83 2.303-61.465-6.544-90.382-34.294-3.677-3.529 1.3-8.791 1.3-8.791z"/>
        <path fill="url(#linearGradient1016)" stroke="#000" stroke-miterlimit="10" d="M82.249 58.165s-1.25.333-2.25 1.5-.917 2.25-.917 2.25L75.667 79s-2.76 6.533 2.082 9.917c12.095 8.453 40.583 28.167 92.916 28.666 23.594.225 22.25-20.667 22.25-20.667l-.916-16.833s2.367 14.391-20.668 21.167c-7.83 2.303-61.465-6.544-90.382-34.294-3.677-3.529 1.3-8.791 1.3-8.791z"/>
        <path fill="none" stroke="#000" stroke-miterlimit="10" stroke-width="1.5" d="M171.33 101.249l-.258 16.844"/>
    </g>
    <g>
        <path fill="#ff8080" d="M91 36.667s-6.964 1.904-7.336 6.332c-.079.943-.413 2.446-.352 3.689.076 1.542.563 2.75.563 2.75l-1.877 12.061s-1.944 1.912 0 5.002c4.658 7.405 21.399 20.92 59.002 30.833 10.206 2.69 15.308 3.628 29.688 3.666 4.155.011 13.262-4.464 17.5-9.438 3.922-4.602 3.144-9.731 3.144-9.731l.167-6.833s3.002-2.748 2.377-8.936-5.139-8.896-5.139-8.896 4.693 4.925 2.762 11.666c-3.798 13.252-28.194 20.835-93.25-12.835C77 45 91 36.667 91 36.667z"/>
        <path fill="url(#linearGradient1039)" stroke="#000" stroke-miterlimit="10" d="M91 36.667s-6.964 1.904-7.336 6.332c-.079.943-.413 2.446-.352 3.689.076 1.542.563 2.75.563 2.75l-1.877 12.061s-1.944 1.912 0 5.002c4.658 7.405 21.399 20.92 59.002 30.833 10.206 2.69 15.308 3.628 29.688 3.666 4.155.011 13.262-4.464 17.5-9.438 3.922-4.602 3.144-9.731 3.144-9.731l.167-6.833s3.002-2.748 2.377-8.936-5.139-8.896-5.139-8.896 4.693 4.925 2.762 11.666c-3.798 13.252-28.194 20.835-93.25-12.835C77 45 91 36.667 91 36.667z"/>
        <path fill="none" stroke="#000" stroke-miterlimit="10" d="M83.875 49.438s1.96 4.326 8.875 9.438c5.918 4.375 15.863 9.23 26.875 13.5C138 79.5 159.721 85.197 169.75 85.125c17.082-.124 21.748-10.127 21.748-10.127"/>
        <path fill="#6d6e71" stroke="#000" stroke-miterlimit="10" stroke-width="1.5" d="M171.33 101.249l1.667-16.277"/>
    </g>
    <g>
        <ellipse cx="83.75" cy="128.375" fill="#faa" rx="2.25" ry="2"/>
        <ellipse cx="76.5" cy="124.063" fill="#faa" rx="2.125" ry="1.688" transform="rotate(-32.092 76.495 124.053)"/>
        <path fill="#faa" d="M57.875 113.625s-.881 2.073-2 2.875-3.75 1.25-3.75 1.25-1.5-3.125.875-4.75 4.875.625 4.875.625zM91.875 103.875c-.875-1-2.683-1.562-4.75.75-1.625 1.817-1.125 4.25 0 4.875s3.817.108 4.75-1.25c1.25-1.82.875-3.375 0-4.375zM98.375 87.625s2.625.5 2.625 3.438-2.625 3.437-2.625 3.437S94.5 94 94.5 91.063s3.875-3.438 3.875-3.438zM71.25 85.75s-2.039-1.125-3.75.625c-.813.832 0 4 0 4s1.625-.375 2.875-1.75.875-2.875.875-2.875zM57 99.25s-.235.934-1.5 1.75c-1.265.816-2.375.75-2.375.75s-.75-1.25.875-2.5 3 0 3 0zM78.512 67.375s-2.887-1.125-4.023 1.5C73.357 71.488 76.5 73.25 76.5 73.25s1.61-1.765 2.012-2.938c.402-1.173 0-2.937 0-2.937z"/>
        <circle cx="170.625" cy="150.5" r="2.563" fill="#faa"/>
        <circle cx="183.875" cy="149" r="2.125" fill="#faa"/>
        <path fill="#faa" d="M209.25 117.875s.295-1.794-.5-2.375c-.795-.581-2.75 0-2.75 0s-.231 1.129.875 1.938c1.106.809 2.375.437 2.375.437zM203.625 109.875s1.797-.518 2.75 0c.953.518.813 1.938.813 1.938s-1.705.304-2.313 0c-1.25-.625-1.25-1.938-1.25-1.938zM200.25 102.688c.917.593 3.375.563 3.375.563s.438-1.688-2.125-3.313c-2.563-1.625-3 .25-3 .25s.833 1.907 1.75 2.5zM193.5 96.313l.688 4.95s1.75-.763 1.313-3.138c-.199-1.078-.813-1.812-2.001-1.812zM192.75 82.125v3.438s1.125-.75 1.063-1.719c-.062-.969-1.063-1.719-1.063-1.719z"/>
        <ellipse cx="94.313" cy="68.284" fill="none" stroke="#000" stroke-miterlimit="10" rx="1.125" ry="1.909"/>
        <ellipse cx="83.75" cy="128.375" fill="url(#radialGradient1106)" stroke="#000" stroke-miterlimit="10" rx="2.25" ry="2"/>
        <ellipse cx="-1.098" cy="145.747" fill="url(#radialGradient1122)" stroke="#000" stroke-miterlimit="10" rx="2.125" ry="1.688" transform="rotate(-32.093)"/>
        <path fill="url(#radialGradient1130)" stroke="#000" stroke-miterlimit="10" d="M57.875 113.625s-.881 2.073-2 2.875-3.75 1.25-3.75 1.25-1.5-3.125.875-4.75 4.875.625 4.875.625z"/>
        <path fill="url(#radialGradient1138)" stroke="#000" stroke-miterlimit="10" d="M91.875 103.875c-.875-1-2.683-1.562-4.75.75-1.625 1.817-1.125 4.25 0 4.875s3.817.108 4.75-1.25c1.25-1.82.875-3.375 0-4.375z"/>
        <path fill="url(#radialGradient1146)" stroke="#000" stroke-miterlimit="10" d="M98.375 87.625s2.625.5 2.625 3.438-2.625 3.437-2.625 3.437S94.5 94 94.5 91.063s3.875-3.438 3.875-3.438z"/>
        <path fill="url(#radialGradient1154)" stroke="#000" stroke-miterlimit="10" d="M71.25 85.75s-2.039-1.125-3.75.625c-.813.832 0 4 0 4s1.625-.375 2.875-1.75.875-2.875.875-2.875z"/>
        <path fill="url(#radialGradient1162)" stroke="#000" stroke-miterlimit="10" d="M57 99.25s-.235.934-1.5 1.75c-1.265.816-2.375.75-2.375.75s-.75-1.25.875-2.5 3 0 3 0z"/>
        <path fill="url(#radialGradient1170)" stroke="#000" stroke-miterlimit="10" d="M78.512 67.375s-2.887-1.125-4.023 1.5C73.357 71.488 76.5 73.25 76.5 73.25s1.61-1.765 2.012-2.938c.402-1.173 0-2.937 0-2.937z"/>
        <circle cx="170.625" cy="150.5" r="2.563" fill="url(#radialGradient1178)" stroke="#000" stroke-miterlimit="10"/>
        <circle cx="183.875" cy="149" r="2.125" fill="url(#radialGradient1180)" stroke="#000" stroke-miterlimit="10"/>
        <path fill="url(#radialGradient1188)" stroke="#000" stroke-miterlimit="10" d="M209.25 117.875s.295-1.794-.5-2.375c-.795-.581-2.75 0-2.75 0s-.231 1.129.875 1.938c1.106.809 2.375.437 2.375.437z"/>
        <path fill="url(#radialGradient1190)" stroke="#000" stroke-miterlimit="10" d="M203.625 109.875s1.797-.518 2.75 0c.953.518.813 1.938.813 1.938s-1.705.304-2.313 0c-1.25-.625-1.25-1.938-1.25-1.938z"/>
        <path fill="url(#radialGradient1192)" stroke="#000" stroke-miterlimit="10" d="M200.25 102.688c.917.593 3.375.563 3.375.563s.438-1.688-2.125-3.313c-2.563-1.625-3 .25-3 .25s.833 1.907 1.75 2.5z"/>
        <path fill="url(#radialGradient1194)" stroke="#000" stroke-miterlimit="10" d="M193.5 96.313l.688 4.95s1.75-.763 1.313-3.138c-.199-1.078-.813-1.812-2.001-1.812z"/>
        <path fill="url(#radialGradient1196)" stroke="#000" stroke-miterlimit="10" d="M192.75 82.125v3.438s1.125-.75 1.063-1.719c-.062-.969-1.063-1.719-1.063-1.719z"/>
    </g>
</svg>
