<svg xmlns="http://www.w3.org/2000/svg" xmlns:xlink="http://www.w3.org/1999/xlink" viewBox="0 0 256 256">
    <defs>
        <linearGradient id="innoGrad3">
            <stop offset="0" stop-color="#ff7f2a" stop-opacity=".502"/>
            <stop offset=".5" stop-color="#ff7f2a" stop-opacity="0"/>
            <stop offset="1" stop-color="#ff7f2a" stop-opacity=".502"/>
        </linearGradient>
        <linearGradient id="innoGrad2">
            <stop offset="0" stop-color="#ff2a2a" stop-opacity="0"/>
            <stop offset="1" stop-color="#ff2a2a" stop-opacity=".502"/>
        </linearGradient>
        <linearGradient id="innoGrad1">
            <stop offset="0" stop-color="#ff2a2a" stop-opacity=".502"/>
            <stop offset="1" stop-color="#ff2a2a" stop-opacity="0"/>
        </linearGradient>
        <linearGradient id="linearGradient892" x1="76.004" x2="118.701" y1="19.788" y2="19.788" gradientUnits="userSpaceOnUse" xlink:href="#innoGrad1"/>
        <linearGradient id="linearGradient894" x1="75.578" x2="121.417" y1="19.771" y2="19.771" gradientUnits="userSpaceOnUse" xlink:href="#innoGrad1"/>
        <linearGradient id="linearGradient917" x1="56.345" x2="90.95" y1="212.918" y2="212.918" gradientUnits="userSpaceOnUse" xlink:href="#innoGrad1"/>
        <linearGradient id="linearGradient940" x1="52.492" x2="119.563" y1="101.669" y2="101.669" gradientUnits="userSpaceOnUse" xlink:href="#innoGrad1"/>
        <linearGradient id="linearGradient990" x1="122.566" x2="168.407" y1="19.771" y2="19.771" gradientUnits="userSpaceOnUse" xlink:href="#innoGrad2"/>
        <linearGradient id="linearGradient998" x1="125.283" x2="167.978" y1="19.788" y2="19.788" gradientUnits="userSpaceOnUse" xlink:href="#innoGrad2"/>
        <linearGradient id="linearGradient1029" x1="153.023" x2="187.64" y1="212.918" y2="212.918" gradientUnits="userSpaceOnUse" xlink:href="#innoGrad2"/>
        <linearGradient id="linearGradient1052" x1="124.421" x2="191.492" y1="101.669" y2="101.669" gradientUnits="userSpaceOnUse" xlink:href="#innoGrad2"/>
        <linearGradient id="linearGradient1075" x1="79.243" x2="164.931" y1="51.555" y2="51.555" gradientUnits="userSpaceOnUse" xlink:href="#innoGrad3"/>
    </defs>
    <g>
        <path fill="#f55" d="M120.641 33.244c.361-2.352.602-14.774-.848-18.759-1.451-3.98-32.01-10.842-37.712-7.672-1.204.667-5.884 17.368-5.884 17.368s44.092 11.358 44.444 9.063z"/>
        <path fill="url(#linearGradient894)" stroke="#000" stroke-miterlimit="10" d="M120.641 33.244c.361-2.352.602-14.774-.848-18.759-1.451-3.98-32.01-10.842-37.712-7.672-1.204.667-5.884 17.368-5.884 17.368s44.092 11.358 44.444 9.063z"/>
        <path fill="#ff8080" d="M81.184 8.437s6.691-1.895 19.452 1.63c8.833 2.448 15.568 3.346 16.602 5.372 2.125 4.165.416 15.618-2.432 16.181-2.845.564-38.166-8.994-38.166-8.994z"/>
        <path fill="url(#linearGradient892)" stroke="#000" stroke-miterlimit="10" d="M81.184 8.437s6.691-1.895 19.452 1.63c8.833 2.448 15.568 3.346 16.602 5.372 2.125 4.165.416 15.618-2.432 16.181-2.845.564-38.166-8.994-38.166-8.994z"/>
    </g>
    <g>
        <path fill="#f55" d="M90.408 179.734s-.263 2.867-.924 5.565c-.844 3.452-2.688 13.425-3.461 19.55-.498 3.98-.435 14.771-.55 18.101-.163 4.71-1.027 8.133-.492 12.036.456 3.367 2.243 4.908 3.074 7.332 1.337 3.895 1.687 7.773 1.268 7.875-2.262.541-6.064-9.506-9.142-9.414-1.89.057-4.67 7.045-14.21 6.518-6.515-.363-4.189-7.775-4.888-8.51-1.809-1.9-2.715 6.518-3.439 5.972-.724-.541 1.711-7.692 1.631-14.928-.095-8.627-1.723-19.886-2.171-29.961-.583-13.124 0-24.188 0-24.188z"/>
        <path fill="none" stroke="#ff2a2a" stroke-miterlimit="10" stroke-width=".5" d="M68.153 180.882s.957 21.705 1.105 28.948c.145 7.24-.544 31.595-.544 31.595M78.204 181.261l-1.556 59.841"/>
        <path fill="none" stroke="#ff2a2a" stroke-miterlimit="10" stroke-width=".5" d="M84.861 180.882l-4.68 59.897s-3.483.416-9.216.635c-5.731.217-9.487-2.627-9.487-2.627v-60.456"/>
        <path fill="none" stroke="#ff2a2a" stroke-miterlimit="10" stroke-width=".5" d="M85.236 236.26s-1.131-.1-2.527.58c-1.397.682-2.528 3.939-2.528 3.939M61.479 238.787s-.648-1.58-1.212-2.532c-.561-.952-1.257-1.637-1.257-1.637"/>
        <path fill="url(#linearGradient917)" stroke="#000" stroke-miterlimit="10" d="M90.408 179.734s-.263 2.867-.924 5.565c-.844 3.452-2.688 13.425-3.461 19.55-.498 3.98-.435 14.771-.55 18.101-.163 4.71-1.027 8.133-.492 12.036.456 3.367 2.243 4.908 3.074 7.332 1.337 3.895 1.687 7.773 1.268 7.875-2.262.541-6.064-9.506-9.142-9.414-1.89.057-4.67 7.045-14.21 6.518-6.515-.363-4.189-7.775-4.888-8.51-1.809-1.9-2.715 6.518-3.439 5.972-.724-.541 1.711-7.692 1.631-14.928-.095-8.627-1.723-19.886-2.171-29.961-.583-13.124 0-24.188 0-24.188z"/>
        <path fill="#ff8080" d="M96.472 176.061c-.279.94-5.583 6.58-24.98 4.893-12.489-1.088-17.853-8.461-18.462-9.418-.323-.504 1.426-10.031 5.066-23.708 1.905-7.16 5.577-15.048 7.06-24.261 3.815-23.667 2.662-53.979 4.887-74.398 1.791-16.421 6.467-26.067 7.063-26.662 2.172-2.171 40.911 4.394 41.636 5.663 0 0 .722 5.066 0 5.974-.724.907-5.974-1.086-6.698-.181-.728.904-4.801 36.384-4.163 37.473.632 1.088 9.776 3.256 9.776 3.98 0 .104-.712 6.478-1.994 11.585-1.299 5.188-3.18 9.155-4.525 15.931-1.625 8.167-1.491 14.021-3.619 22.808-2.969 12.229-7.096 19.949-9.235 30.049-2.569 12.133-1.813 20.272-1.812 20.272z"/>
        <path fill="none" stroke="#ff2a2a" stroke-miterlimit="10" d="M53.117 169.91s5.975 8.511 19.642 9.234c21.062 1.119 23.643-4.256 23.643-4.256M76.64 23.273s5.933-.056 13.136.828c11.971 1.458 27.051 4.32 27.333 4.886.451.902.992 3.799.182 4.072-.815.271-5.161-1.993-6.61-.546-1.446 1.453-6.604 40.189-4.795 40.732 1.809.543 11.611 3.455 11.611 3.455"/>
        <path fill="none" stroke="#ff2a2a" stroke-miterlimit="10" stroke-width=".5" d="M79.423 23.317s-2.682 5.541-4.748 12.367c-2.065 6.829-5.326 21.609-5.326 21.609M88.055 23.904s-9.782 25.803-15.112 54.774c-3.376 18.312-2.051 38.8-4.617 51.957-1.735 8.874-3.809 14.938-4.164 16.563-1.714 7.824-8.668 25.238-8.668 25.238M95.258 24.831s-8.772 15.291-13.086 36.925c-5.825 29.203-7.824 67.809-9.592 75.667-1.513 6.707-4.894 16.179-7.333 24.076-2.534 8.205-4.097 14.719-4.098 14.719M98.43 25.303s-4.826 9.919-7.568 25.501c-3.796 21.578-6.271 53.011-10.407 75.032-2.801 14.879-5.746 25.962-6.158 27.973-1.458 7.115-7.26 24.521-7.26 24.521M102.323 25.924s-7.284 66.34-14.631 108.604c-3.318 19.104-9.826 32.625-10.136 34.033-.994 4.526-.906 10.726-.906 10.726M108.615 27.022s-6.866 66.862-13.357 109.408c-2.707 17.725-10.237 32.895-10.461 34.393-.758 5.104-.708 8.252-.708 8.252M109.326 74.271s-1.479 24.847-6.156 48.312c-4.517 22.649-12.231 44.601-12.67 46.883-.896 4.652-1.016 8.823-1.016 8.823"/>
        <path fill="url(#linearGradient940)" stroke="#000" stroke-miterlimit="10" d="M96.472 176.061c-.279.94-5.583 6.58-24.98 4.893-12.489-1.088-17.853-8.461-18.462-9.418-.323-.504 1.426-10.031 5.066-23.708 1.905-7.16 5.577-15.048 7.06-24.261 3.815-23.667 2.662-53.979 4.887-74.398 1.791-16.421 6.467-26.067 7.063-26.662 2.172-2.171 40.911 4.394 41.636 5.663 0 0 .722 5.066 0 5.974-.724.907-5.974-1.086-6.698-.181-.728.904-4.801 36.384-4.163 37.473.632 1.088 9.776 3.256 9.776 3.98 0 .104-.712 6.478-1.994 11.585-1.299 5.188-3.18 9.155-4.525 15.931-1.625 8.167-1.491 14.021-3.619 22.808-2.969 12.229-7.096 19.949-9.235 30.049-2.569 12.133-1.813 20.272-1.812 20.272z"/>
    </g>
    <g>
        <path fill="#f55" d="M123.342 33.244c-.361-2.352-.602-14.774.847-18.759 1.452-3.98 32.004-10.842 37.708-7.672 1.205.667 5.891 17.368 5.891 17.368s-44.094 11.358-44.446 9.063z"/>
        <path fill="url(#linearGradient990)" stroke="#000" stroke-miterlimit="10" d="M123.342 33.244c-.361-2.352-.602-14.774.847-18.759 1.452-3.98 32.004-10.842 37.708-7.672 1.205.667 5.891 17.368 5.891 17.368s-44.094 11.358-44.446 9.063z"/>
        <path fill="#ff8080" d="M162.8 8.437s-6.692-1.895-19.45 1.63c-8.83 2.448-15.571 3.346-16.604 5.372-2.125 4.165-.416 15.618 2.43 16.181 2.844.564 38.166-8.994 38.166-8.994z"/>
        <path fill="url(#linearGradient998)" stroke="#000" stroke-miterlimit="10" d="M162.8 8.437s-6.692-1.895-19.45 1.63c-8.83 2.448-15.571 3.346-16.604 5.372-2.125 4.165-.416 15.618 2.43 16.181 2.844.564 38.166-8.994 38.166-8.994z"/>
        <path fill="#f55" d="M186.879 175.682l-33.313 4.052s.272 2.867.926 5.565c.85 3.452 2.7 13.426 3.469 19.55.5 3.98.439 14.77.549 18.1.163 4.71 1.024 8.134.494 12.037-.463 3.367-2.245 4.908-3.08 7.332-1.328 3.895-1.686 7.773-1.266 7.875 2.261.541 6.059-9.506 9.139-9.414 1.89.057 4.676 7.045 14.217 6.518 6.512-.363 4.188-7.775 4.88-8.51 1.814-1.9 2.725 6.519 3.446 5.973.726-.541-1.706-7.694-1.633-14.93.09-8.627 1.723-19.886 2.172-29.96.588-13.125 0-24.188 0-24.188z"/>
        <path fill="none" stroke="#ff2a2a" stroke-miterlimit="10" stroke-width=".5" d="M175.831 180.882s-.956 21.705-1.106 28.948c-.142 7.24.537 31.595.537 31.595M165.784 181.261l1.549 59.841"/>
        <path fill="none" stroke="#ff2a2a" stroke-miterlimit="10" stroke-width=".5" d="M159.127 180.882l4.67 59.897s3.487.416 9.221.635c5.73.217 9.49-2.627 9.49-2.627v-60.456M158.748 236.26s1.13-.1 2.527.58c1.398.682 2.521 3.939 2.521 3.939M182.508 238.787s.643-1.58 1.21-2.532a8.885 8.885 0 0 1 1.255-1.637"/>
        <path fill="url(#linearGradient1029)" stroke="#000" stroke-miterlimit="10" d="M186.879 175.682l-33.313 4.052s.272 2.867.926 5.565c.85 3.452 2.7 13.426 3.469 19.55.5 3.98.439 14.77.549 18.1.163 4.71 1.024 8.134.494 12.037-.463 3.367-2.245 4.908-3.08 7.332-1.328 3.895-1.686 7.773-1.266 7.875 2.261.541 6.059-9.506 9.139-9.414 1.89.057 4.676 7.045 14.217 6.518 6.512-.363 4.188-7.775 4.88-8.51 1.814-1.9 2.725 6.519 3.446 5.973.726-.541-1.706-7.694-1.633-14.93.09-8.627 1.723-19.886 2.172-29.96.588-13.125 0-24.188 0-24.188z"/>
        <path fill="#ff8080" d="M147.509 176.061c.28.94 5.581 6.58 24.986 4.893 12.483-1.088 17.854-8.461 18.458-9.418.326-.504-1.428-10.031-5.066-23.708-1.904-7.16-5.57-15.048-7.063-24.261-3.818-23.667-2.658-53.979-4.885-74.398-1.795-16.421-6.465-26.067-7.063-26.662-2.17-2.171-40.909 4.394-41.634 5.663 0 0-.721 5.066 0 5.974.725.907 5.977-1.086 6.703-.181.723.904 4.796 36.384 4.16 37.473-.629 1.088-9.777 3.256-9.777 3.98 0 .104.712 6.478 1.994 11.585 1.303 5.188 3.183 9.155 4.534 15.931 1.615 8.167 1.484 14.021 3.612 22.808 2.966 12.229 7.089 19.949 9.228 30.049 2.572 12.133 1.814 20.272 1.813 20.272z"/>
        <path fill="none" stroke="#ff2a2a" stroke-miterlimit="10" d="M190.865 169.91s-5.973 8.511-19.645 9.234c-21.06 1.119-23.646-4.256-23.646-4.256M167.341 23.273s-5.937-.056-13.135.828c-11.972 1.458-27.051 4.32-27.333 4.886-.451.902-.992 3.799-.182 4.072.815.271 5.157-1.993 6.605-.546 1.459 1.453 6.608 40.189 4.808 40.732-1.815.543-11.619 3.455-11.619 3.455"/>
        <path fill="none" stroke="#ff2a2a" stroke-miterlimit="10" stroke-width=".5" d="M164.563 23.317s2.684 5.541 4.742 12.367c2.067 6.829 5.334 21.609 5.334 21.609M155.924 23.904s9.778 25.803 15.122 54.774c3.37 18.312 2.041 38.8 4.61 51.957 1.73 8.874 3.81 14.938 4.164 16.563 1.721 7.824 8.668 25.238 8.668 25.238M148.723 24.831s8.772 15.291 13.088 36.925c5.823 29.203 7.828 67.809 9.594 75.667 1.519 6.707 4.896 16.179 7.332 24.076 2.539 8.205 4.096 14.719 4.097 14.719M145.555 25.303s4.827 9.919 7.57 25.501c3.788 21.578 6.264 53.011 10.402 75.032 2.802 14.879 5.744 25.962 6.158 27.973 1.459 7.115 7.256 24.521 7.256 24.521M141.654 25.924s7.289 66.34 14.636 108.604c3.321 19.104 9.826 32.625 10.135 34.033.998 4.526.906 10.726.906 10.726M135.367 27.022s6.865 66.862 13.355 109.408c2.702 17.725 10.237 32.895 10.463 34.393.762 5.104.707 8.252.707 8.252M134.656 74.271s1.475 24.847 6.158 48.312c4.516 22.649 12.227 44.601 12.67 46.883.894 4.652 1.009 8.823 1.009 8.823"/>
        <path fill="url(#linearGradient1052)" stroke="#000" stroke-miterlimit="10" d="M147.509 176.061c.28.94 5.581 6.58 24.986 4.893 12.483-1.088 17.854-8.461 18.458-9.418.326-.504-1.428-10.031-5.066-23.708-1.904-7.16-5.57-15.048-7.063-24.261-3.818-23.667-2.658-53.979-4.885-74.398-1.795-16.421-6.465-26.067-7.063-26.662-2.17-2.171-40.909 4.394-41.634 5.663 0 0-.721 5.066 0 5.974.725.907 5.977-1.086 6.703-.181.723.904 4.796 36.384 4.16 37.473-.629 1.088-9.777 3.256-9.777 3.98 0 .104.712 6.478 1.994 11.585 1.303 5.188 3.183 9.155 4.534 15.931 1.615 8.167 1.484 14.021 3.612 22.808 2.966 12.229 7.089 19.949 9.228 30.049 2.572 12.133 1.814 20.272 1.813 20.272z"/>
    </g>
    <g>
        <path fill="#ffb380" d="M123.068 24.588s14.213-2.298 15.759-.928c1.532 1.375 2.866 43.25 1.353 47.051-1.504 3.801-5.879 9.164-18.188 9.174-12.306.012-16.685-5.373-18.194-9.174-1.504-3.802-.177-45.676 1.362-47.051 1.54-1.37 15.754.928 15.754.928z"/>
        <path fill="url(#linearGradient1075)" stroke="#000" stroke-miterlimit="10" d="M123.068 24.588s14.213-2.298 15.759-.928c1.532 1.375 2.866 43.25 1.353 47.051-1.504 3.801-5.879 9.164-18.188 9.174-12.306.012-16.685-5.373-18.194-9.174-1.504-3.802-.177-45.676 1.362-47.051 1.54-1.37 15.754.928 15.754.928z"/>
        <path fill="#6d6e71" stroke="#000" stroke-miterlimit="10" d="M135.837 25.419a.588.588 0 1 0 1.176.002.588.588 0 0 0-1.176-.002zM124.337 26.361a.59.59 0 0 0 .59.589.593.593 0 0 0 .587-.589.587.587 0 1 0-1.177 0z"/>
        <circle cx="107.559" cy="25.419" r=".589" fill="#6d6e71" stroke="#000" stroke-miterlimit="10"/>
        <path fill="#6d6e71" stroke="#000" stroke-miterlimit="10" d="M119.646 26.361a.59.59 0 0 1-.589.589.592.592 0 0 1-.586-.589.587.587 0 1 1 1.175 0zM106.971 64.272a.59.59 0 0 1-.589.589.592.592 0 0 1-.586-.589.59.59 0 0 1 .586-.588.59.59 0 0 1 .589.588zM138.187 64.272a.59.59 0 0 1-.589.589.591.591 0 0 1-.586-.589.59.59 0 0 1 .586-.588.59.59 0 0 1 .589.588zM137.6 69.983a.59.59 0 0 1-.59.589.592.592 0 0 1-.586-.589.59.59 0 0 1 .586-.588.59.59 0 0 1 .59.588zM107.558 69.983a.59.59 0 0 1-.589.589.592.592 0 0 1-.586-.589.59.59 0 0 1 .586-.588.59.59 0 0 1 .589.588z"/>
    </g>
</svg>
