<svg xmlns="http://www.w3.org/2000/svg" xmlns:xlink="http://www.w3.org/1999/xlink" viewBox="0 0 256 256">
    <defs>
        <linearGradient id="innoGrad3">
            <stop offset="0" stop-color="#ff7f2a" stop-opacity="0"/>
            <stop offset="1" stop-color="#ff7f2a" stop-opacity=".502"/>
        </linearGradient>
        <linearGradient id="innoGrad2">
            <stop offset="0" stop-color="#ff2a2a" stop-opacity=".502"/>
            <stop offset="1" stop-color="#ff2a2a" stop-opacity="0"/>
        </linearGradient>
        <linearGradient id="innoGrad1">
            <stop offset="0" stop-color="#ff7f2a" stop-opacity=".502"/>
            <stop offset="1" stop-color="#ff7f2a" stop-opacity="0"/>
        </linearGradient>
        <linearGradient id="linearGradient862" x1="15.774" x2="241.75" y1="127.475" y2="127.475" gradientUnits="userSpaceOnUse" xlink:href="#innoGrad1"/>
        <linearGradient id="linearGradient885" x1="17.199" x2="240.492" y1="127.572" y2="127.572" gradientUnits="userSpaceOnUse" xlink:href="#innoGrad2"/>
        <radialGradient id="radialGradient911" cx="176.744" cy="52.101" r="2.258" fx="176.744" fy="52.101" gradientTransform="matrix(1 0 0 1.252 0 -13.118)" gradientUnits="userSpaceOnUse" xlink:href="#innoGrad3"/>
        <radialGradient id="radialGradient913" cx="170.231" cy="79.385" r="2.258" fx="170.231" fy="79.385" gradientTransform="matrix(1 0 0 1.252 0 -19.972)" gradientUnits="userSpaceOnUse" xlink:href="#innoGrad3"/>
        <radialGradient id="radialGradient952" cx="40.067" cy="193.737" r="2.083" fx="40.067" fy="193.737" gradientTransform="matrix(1 0 0 1.22617 0 -43.818)" gradientUnits="userSpaceOnUse" xlink:href="#innoGrad3"/>
        <linearGradient id="linearGradient975" x1="94.677" x2="99.177" y1="248.23" y2="248.23" gradientUnits="userSpaceOnUse" xlink:href="#innoGrad1"/>
        <linearGradient id="linearGradient998" x1="43.43" x2="47.836" y1="181.668" y2="181.668" gradientUnits="userSpaceOnUse" xlink:href="#innoGrad1"/>
        <linearGradient id="linearGradient1021" x1="169.233" x2="189.739" y1="33.233" y2="32.377" gradientUnits="userSpaceOnUse" xlink:href="#innoGrad2"/>
        <linearGradient id="linearGradient1044" x1="29.118" x2="52.133" y1="182.208" y2="182.208" gradientUnits="userSpaceOnUse" xlink:href="#innoGrad2"/>
    </defs>
    <g>
        <path fill="#ffb380" d="M22.113 83.507c-1.424 1.709 4.493 39.69 10.213 69.469 3.82 19.885 7.837 34.08 8.075 35.862.102.773-2.542 8.89-4.513 17.813-2.563 11.606-4.977 23.08-3.79 25.217 1.188 2.138 54.971 15.751 121.234 11.951 70.936-4.068 82.294-15.437 82.294-23.512 0-3.563-1.663-2.969-1.663-2.969l-17.812-37.406-1.581-122.418s1.106-2.151.75-3.338c-.116-.385-1.674-5.128-5.463-10.807-7.909-11.848-22.892-28.974-36.219-28.975-13.656 0-36.931 26.007-74.575 40.613-35.549 13.794-74.575 25.65-76.95 28.5z"/>
        <path fill="url(#linearGradient862)" stroke="#000" stroke-miterlimit="10" d="M16.5 79.125c-1.499 1.799 4.729 41.779 10.75 73.125 4.021 20.932 8.25 35.875 8.5 37.75.108.814-2.675 9.357-4.75 18.75-2.698 12.217-5.239 24.295-3.989 26.545s57.864 16.58 127.614 12.58c74.67-4.282 86.625-16.25 86.625-24.75 0-3.75-1.75-3.125-1.75-3.125l-18.75-39.375-1.664-128.861s1.164-2.264.789-3.514c-.121-.405-1.761-5.397-5.75-11.375C205.8 24.403 190.028 6.376 176 6.375c-14.375-.001-38.875 27.375-78.5 42.75-37.42 14.52-78.5 27-81 30z" transform="matrix(.95 0 0 .95 6.438 8.338)"/>
    </g>
    <g>
        <path fill="#ff8080" d="M23.3 85.763c1.307-2.019 46.074-13.24 83.482-30.281 41.444-18.881 52.25-37.846 66.386-37.845 16.066 0 32.306 22.033 38.826 32.739 2.06 3.38 2.494 6.175 2.494 6.175s.491 5.704 1.162 14.726c.071.96.782 1.58.857 2.611.683 9.369.865 21.975 1.544 34.913 1.78 33.962-.673 65.84.118 66.975.792 1.135 2.504 4.278 5.463 11.637 4.703 11.695 10.13 28.907 10.331 29.925.329 1.66 7.465 11.984-47.856 20.781-67.213 10.688-151.505-7.905-151.881-8.431-.594-.831 1.54-12.54 2.453-17.06 3.22-15.942 5.622-22.009 5.86-23.552.237-1.544-2.932-9.25-5.582-22.563-3.485-17.503-7.233-41.353-10.094-58.662-2.043-12.366-3.94-21.506-3.562-22.088z"/>
        <path fill="url(#linearGradient885)" stroke="#000" stroke-miterlimit="10" d="M17.75 81.5c1.375-2.125 48.498-13.936 87.875-31.875 43.625-19.875 55-39.838 69.88-39.837 16.912.001 34.007 23.193 40.87 34.462 2.168 3.558 2.625 6.5 2.625 6.5s.517 6.005 1.223 15.502c.075 1.01.823 1.663.902 2.748.719 9.862.911 23.132 1.625 36.75 1.875 35.75-.708 69.305.125 70.5.833 1.195 2.635 4.504 5.75 12.25 4.951 12.311 10.663 30.428 10.875 31.5.346 1.748 7.858 12.615-50.375 21.875-70.75 11.25-159.479-8.321-159.875-8.875-.625-.875 1.622-13.2 2.583-17.957 3.39-16.782 5.917-23.168 6.167-24.793s-3.085-9.736-5.875-23.75c-3.668-18.424-7.614-43.53-10.625-61.75-2.151-13.016-4.147-22.637-3.75-23.25z" transform="matrix(.95 0 0 .95 6.438 8.338)"/>
        <path fill="none" stroke="#000" stroke-miterlimit="10" stroke-width=".95" d="M25.979 102.626s56.951-16.614 76.884-25.532c8.903-3.982 27.064-10.416 40.256-19 16.345-10.635 27.493-23.24 32.775-22.827 8.053.631 23.267 15.68 32.42 26.39 5.016 5.872 7.606 10.566 7.606 10.566M43.132 188.838s80.037 7.719 158.769-7.125c17.94-3.383 16.138-6.762 16.138-6.762"/>
    </g>
    <g transform="matrix(.95 0 0 .95 6.438 8.338)">
        <path fill="#6d6e71" stroke="#000" stroke-miterlimit="10" d="M173.338 8.044l-.958-2.584 10.25 1.409-.45 1.547z"/>
        <path fill="#ff7f2a" stroke="#000" stroke-miterlimit="10" d="M178.168 15.209s-2.549-.008-3.583-1.375c-2.067-2.731-4.582-7.041-2.917-7.792 1.155-.521 11.167.541 12 1.499.584.671 2.691 3.44 3.25 5.042.367 1.052-.667 1.251-.667 1.251s-3.167-4.5-3.625-5.167c-.458-.667-9.459-2.25-9.876-1.625-.217.324.958 3.146 2.376 4.625 1.315 1.371 2.875 1.417 2.875 1.417z"/>
        <path fill="#faa" stroke="#000" stroke-miterlimit="10" d="M185.537 52.96l-1.662 3.087h-4.624l-3.126-3.172s-2.835-19.126-2.625-21.5c.21-2.374.655-3.386 1.251-5.333.596-1.947 4.229-14.857 2.042-13.125-1.347 1.066-2.626 14.75-2.626 14.75l-1.417-1.292s.481-1.386.834-3.583c.286-1.786.426-4.401.708-6.375.319-2.226.776-3.749 1-4.458.664-2.113 3.078-1.147 3.75-.792.672.355 1.083 9.208 1.083 9.208z"/>
        <path fill="#ffd5d5" d="M175.625 28.336c.197-6.064 3.875-9.461 3.125-15.336-.252-1.977-1.423-2.123-1.275-2.334.875-1.25 9.409-1.182 10.9 1.459 1.491 2.641.762 1.933 0 4.75-.815 3.015-3.164 7.062-3.375 11.461-.407 8.51 1.5 23.039 1.5 23.039l-2.125 3.5h-3.75l-3.125-3.5s-2.237-11.947-1.875-23.039zm7.087-14.21c.069 1.596-.702 3.371-.542 4.417.243 1.583.958 1.583 1.625.167.375-.798.763-2.93.583-4.75-.14-1.412-.784-2.654-1-2.833-.495-.41-1.588-.334-1.625 0-.018.161.894 1.508.959 2.999z"/>
        <path fill="url(#linearGradient1021)" stroke="#000" stroke-miterlimit="10" d="M175.625 28.336c.197-6.064 3.875-9.461 3.125-15.336-.252-1.977-1.423-2.123-1.275-2.334.875-1.25 9.409-1.182 10.9 1.459 1.491 2.641.762 1.933 0 4.75-.815 3.015-3.164 7.062-3.375 11.461-.407 8.51 1.5 23.039 1.5 23.039l-2.125 3.5h-3.75l-3.125-3.5s-2.237-11.947-1.875-23.039zm7.087-14.21c.069 1.596-.702 3.371-.542 4.417.243 1.583.958 1.583 1.625.167.375-.798.763-2.93.583-4.75-.14-1.412-.784-2.654-1-2.833-.495-.41-1.588-.334-1.625 0-.018.161.894 1.508.959 2.999z"/>
        <path fill="#ffb380" stroke="#000" stroke-miterlimit="10" d="M182.18 12.078l.908-.159v.417s6.62-3.808 6.958-2.792c.09.27.159.756-.25 1.092-.409.336-6.041 3.242-6.041 3.242s-.032 1.069-.334 1.792c-.302.723-1.008 1.417-1.008 1.417s.367-1.504.299-2.959-.532-2.05-.532-2.05z"/>
        <path fill="none" stroke="#000" stroke-miterlimit="10" d="M188.463 9.674s-.501.553-.292.961c.209.408.672.415.672.415M183.088 12.336s-.197.668 0 1.125c.197.457.667.417.667.417"/>
        <path fill="#ff7f2a" stroke="#000" stroke-miterlimit="10" d="M172.38 5.46s.258-.625 1.416-.5 8.959 1.625 8.959 1.625.341.52.245 1.141c-.096.621-.587 1.068-.587 1.068s-8.992-.292-9.075-.75c-.083-.458.693-2.063.5-2.583-.193-.52-1.458-.001-1.458-.001z"/>
        <ellipse cx="180.745" cy="24.504" fill="#ffe6d5" stroke="#000" stroke-miterlimit="10" rx="1.456" ry="2.75" transform="rotate(16.605 180.73 24.507)"/>
        <path fill="#ff7f2a" stroke="#000" stroke-miterlimit="10" d="M176.953 17.452c-3.114 0-1.849 7.378-1.114 7.552 3.934.931 10.538 1.033 11.158.417 1.846-1.833.153-5.125.153-5.125l-.529 1.363s.376 2.22-.157 2.47c-.884.414-8.209.75-9.125-.458-.916-1.208-.817-4.278-.817-4.278z"/>
        <path fill="#ffd5d5" stroke="#000" stroke-miterlimit="10" d="M29.688 177s.928-.513 1.625-.563c.697-.05 18.625-1.875 18.813-1.563.188.312 2.19 3.063 2.44 3.5.25.437.81 5.372.747 6.125-.063.753-2.055 3.188-2.309 3.563s-20.504.626-20.504.626z"/>
        <path fill="#faa" d="M29.688 177c.313-.375 17.688-1.625 18.25-1.25.562.375 2.688 3.313 2.875 3.813.187.5.875 3.744.813 4.185-.062.441-1.5 3.503-1.813 3.753-.313.25-18.75 1.625-19.188 1.125-.438-.5-1.25-11.251-.937-11.626z"/>
        <path fill="url(#linearGradient1044)" stroke="#000" stroke-miterlimit="10" d="M29.688 177c.313-.375 17.688-1.625 18.25-1.25.562.375 2.688 3.313 2.875 3.813.187.5.875 3.744.813 4.185-.062.441-1.5 3.503-1.813 3.753-.313.25-18.75 1.625-19.188 1.125-.438-.5-1.25-11.251-.937-11.626z"/>
    </g>
    <g transform="matrix(.95 0 0 .95 6.438 8.338)">
        <ellipse cx="180.381" cy="34.839" fill="#ffb380" stroke="#000" stroke-miterlimit="10" rx="2.896" ry="3.833" transform="rotate(-5.532 180.473 34.852)"/>
        <ellipse cx="180.381" cy="34.838" fill="#ffe6d5" rx="1.758" ry="2.327" transform="rotate(-5.532 180.321 34.83)"/>
        <ellipse cx="181.522" cy="46.335" fill="#ffb380" stroke="#000" stroke-miterlimit="10" rx="2.896" ry="3.833" transform="rotate(-10.719 181.51 46.333)"/>
        <ellipse cx="181.521" cy="46.335" fill="#ffe6d5" rx="1.758" ry="2.327" transform="rotate(-10.704 181.523 46.323)"/>
        <ellipse cx="176.176" cy="52.057" fill="url(#radialGradient911)" stroke="#000" stroke-miterlimit="10" rx="1.758" ry="2.327" transform="rotate(-5.532)"/>
        <ellipse cx="169.754" cy="79.255" fill="url(#radialGradient913)" stroke="#000" stroke-miterlimit="10" rx="1.758" ry="2.327" transform="rotate(-10.708)"/>
        <path fill="#fca" d="M39.188 195.75s1.457.427 1.938-1.438c.5-1.938-.563-2.625-.563-2.625s-1.875.063-2.375 1.625 1 2.438 1 2.438z"/>
        <path fill="url(#radialGradient952)" stroke="#000" stroke-miterlimit="10" d="M39.188 195.75s1.457.427 1.938-1.438c.5-1.938-.563-2.625-.563-2.625s-1.875.063-2.375 1.625 1 2.438 1 2.438z"/>
        <ellipse cx="187.938" cy="188.938" fill="#fca" rx="1.75" ry="2.437" transform="rotate(-23.517 187.954 188.952)"/>
        <ellipse cx="96.927" cy="248.23" fill="url(#linearGradient975)" stroke="#000" stroke-miterlimit="10" rx="1.75" ry="2.437" transform="rotate(-23.517)"/>
        <ellipse cx="45.719" cy="181.768" fill="#ffb380" stroke="#000" stroke-miterlimit="10" rx="2.63" ry="3.719" transform="rotate(-8.028 45.71 181.772)"/>
        <path fill="#ffe6d5" d="M45.438 179.563s1.688 0 1.875 1.688c.224 2.012-1.188 2.497-1.188 2.497s-2.063-.626-2.188-2.093 1.501-2.092 1.501-2.092z"/>
        <path fill="url(#linearGradient998)" stroke="#000" stroke-miterlimit="10" d="M45.438 179.563s1.688 0 1.875 1.688c.224 2.012-1.188 2.497-1.188 2.497s-2.063-.626-2.188-2.093 1.501-2.092 1.501-2.092z"/>
    </g>
</svg>
