<svg xmlns="http://www.w3.org/2000/svg" xmlns:xlink="http://www.w3.org/1999/xlink" viewBox="0 0 256 256">
    <defs>
        <linearGradient id="innoGrad3">
            <stop offset="0" stop-color="#ff2a2a" stop-opacity="0"/>
            <stop offset="1" stop-color="#ff2a2a" stop-opacity=".502"/>
        </linearGradient>
        <linearGradient id="innoGrad2">
            <stop offset="0" stop-color="#ff7f2a" stop-opacity=".502"/>
            <stop offset="1" stop-color="#ff7f2a" stop-opacity="0"/>
        </linearGradient>
        <linearGradient id="innoGrad1">
            <stop offset="0" stop-color="#ff2a2a" stop-opacity=".502"/>
            <stop offset="1" stop-color="#ff2a2a" stop-opacity="0"/>
        </linearGradient>
        <linearGradient id="linearGradient952" x1="131.375" x2="188.818" y1="232.5" y2="193.485" gradientUnits="userSpaceOnUse" xlink:href="#innoGrad1"/>
        <linearGradient id="linearGradient977" x1="128.349" x2="168.022" y1="191.33" y2="191.33" gradientUnits="userSpaceOnUse" xlink:href="#innoGrad2"/>
        <linearGradient id="linearGradient1000" x1="128.008" x2="170.5" y1="132.603" y2="132.603" gradientUnits="userSpaceOnUse" xlink:href="#innoGrad1"/>
        <linearGradient id="linearGradient1023" x1="144.822" x2="173.106" y1="116.905" y2="116.905" gradientUnits="userSpaceOnUse" xlink:href="#innoGrad1"/>
        <linearGradient id="linearGradient1053" x1="102.899" x2="134.655" y1="38.918" y2="11.304" gradientUnits="userSpaceOnUse" xlink:href="#innoGrad1"/>
        <linearGradient id="linearGradient1076" x1="119.013" x2="132.742" y1="49.769" y2="46.915" gradientUnits="userSpaceOnUse" xlink:href="#innoGrad1"/>
        <linearGradient id="linearGradient1099" x1="151.102" x2="173.315" y1="46.592" y2="46.592" gradientUnits="userSpaceOnUse" xlink:href="#innoGrad2"/>
        <linearGradient id="linearGradient1131" x1="133.068" x2="179.751" y1="42.903" y2="42.903" gradientUnits="userSpaceOnUse" xlink:href="#innoGrad2"/>
        <linearGradient id="linearGradient1154" x1="136.464" x2="179.753" y1="42.9" y2="42.9" gradientUnits="userSpaceOnUse" xlink:href="#innoGrad1"/>
        <linearGradient id="linearGradient1185" x1="117.476" x2="144.5" y1="98.176" y2="98.176" gradientUnits="userSpaceOnUse" xlink:href="#innoGrad1"/>
        <linearGradient id="linearGradient1193" x1="113.659" x2="140.683" y1="186.018" y2="186.018" gradientUnits="userSpaceOnUse" xlink:href="#innoGrad1"/>
        <linearGradient id="linearGradient1201" x1="116.121" x2="143.145" y1="224.206" y2="224.206" gradientUnits="userSpaceOnUse" xlink:href="#innoGrad1"/>
        <linearGradient id="linearGradient1230" x1="9.995" x2="41.625" y1="93.861" y2="93.861" gradientUnits="userSpaceOnUse" xlink:href="#innoGrad1"/>
        <linearGradient id="linearGradient1232" x1="8.917" x2="40.547" y1="180.965" y2="180.965" gradientUnits="userSpaceOnUse" xlink:href="#innoGrad1"/>
        <linearGradient id="linearGradient1234" x1="7.551" x2="39.181" y1="222.443" y2="222.443" gradientUnits="userSpaceOnUse" xlink:href="#innoGrad1"/>
        <linearGradient id="linearGradient1257" x1="58.834" x2="98.237" y1="244.328" y2="217.444" gradientUnits="userSpaceOnUse" xlink:href="#innoGrad1"/>
        <linearGradient id="linearGradient1297" x1="32.895" x2="77.337" y1="202.505" y2="202.505" gradientUnits="userSpaceOnUse" xlink:href="#innoGrad2"/>
        <linearGradient id="linearGradient1320" x1="33.476" x2="83.215" y1="136.254" y2="136.254" gradientUnits="userSpaceOnUse" xlink:href="#innoGrad1"/>
        <linearGradient id="linearGradient1343" x1="49.593" x2="83.675" y1="124.733" y2="124.733" gradientUnits="userSpaceOnUse" xlink:href="#innoGrad1"/>
        <linearGradient id="linearGradient1368" x1="47.88" x2="91.829" y1="50.147" y2="50.339" gradientUnits="userSpaceOnUse" xlink:href="#innoGrad2"/>
        <linearGradient id="linearGradient1400" x1="17.675" x2="94.092" y1="43.6" y2="43.6" gradientUnits="userSpaceOnUse" xlink:href="#innoGrad2"/>
        <linearGradient id="linearGradient1423" x1="22.743" x2="94.185" y1="45.223" y2="45.223" gradientUnits="userSpaceOnUse" xlink:href="#innoGrad1"/>
        <radialGradient id="radialGradient1570" cx="65.621" cy="95.14" r="1.875" fx="65.621" fy="95.14" gradientUnits="userSpaceOnUse" xlink:href="#innoGrad3"/>
        <radialGradient id="radialGradient1586" cx="63.907" cy="116.511" r="1.875" fx="63.907" fy="116.511" gradientUnits="userSpaceOnUse" xlink:href="#innoGrad3"/>
        <radialGradient id="radialGradient1588" cx="61.975" cy="138.443" r="1.875" fx="61.975" fy="138.443" gradientUnits="userSpaceOnUse" xlink:href="#innoGrad3"/>
        <radialGradient id="radialGradient1590" cx="61.157" cy="158.75" r="1.875" fx="61.157" fy="158.75" gradientUnits="userSpaceOnUse" xlink:href="#innoGrad3"/>
        <radialGradient id="radialGradient1592" cx="50.595" cy="224.492" r="2.267" fx="50.595" fy="224.492" gradientUnits="userSpaceOnUse" xlink:href="#innoGrad3"/>
        <radialGradient id="radialGradient1594" cx="56.032" cy="226.53" r="2.267" fx="56.032" fy="226.53" gradientUnits="userSpaceOnUse" xlink:href="#innoGrad3"/>
        <radialGradient id="radialGradient1596" cx="62.464" cy="228.228" r="2.267" fx="62.464" fy="228.228" gradientUnits="userSpaceOnUse" xlink:href="#innoGrad3"/>
        <radialGradient id="radialGradient1598" cx="68.43" cy="230.911" r="2.267" fx="68.43" fy="230.911" gradientUnits="userSpaceOnUse" xlink:href="#innoGrad3"/>
        <radialGradient id="radialGradient1600" cx="74.547" cy="233.387" r="2.267" fx="74.547" fy="233.387" gradientUnits="userSpaceOnUse" xlink:href="#innoGrad3"/>
        <radialGradient id="radialGradient1602" cx="37.792" cy="196.375" r="2.267" fx="37.792" fy="196.375" gradientUnits="userSpaceOnUse" xlink:href="#innoGrad3"/>
        <radialGradient id="radialGradient1604" cx="49.428" cy="63.75" r="2.267" fx="49.428" fy="63.75" gradientUnits="userSpaceOnUse" xlink:href="#innoGrad3"/>
        <radialGradient id="radialGradient1606" cx="55.303" cy="34.443" r="2.267" fx="55.303" fy="34.443" gradientUnits="userSpaceOnUse" xlink:href="#innoGrad3"/>
        <radialGradient id="radialGradient1608" cx="42.85" cy="47.875" r="2.267" fx="42.85" fy="47.875" gradientUnits="userSpaceOnUse" xlink:href="#innoGrad3"/>
        <radialGradient id="radialGradient1610" cx="51.585" cy="43.598" r="2.267" fx="51.585" fy="43.598" gradientUnits="userSpaceOnUse" xlink:href="#innoGrad3"/>
        <radialGradient id="radialGradient1612" cx="48.678" cy="56.129" r="2.267" fx="48.678" fy="56.129" gradientUnits="userSpaceOnUse" xlink:href="#innoGrad3"/>
        <radialGradient id="radialGradient1614" cx="68.225" cy="72.334" r="1.875" fx="68.225" fy="72.334" gradientUnits="userSpaceOnUse" xlink:href="#innoGrad3"/>
        <radialGradient id="radialGradient1616" cx="81.202" cy="94.313" r="1.048" fx="81.202" fy="94.313" gradientTransform="matrix(1 0 0 1.84924 0 -80.094)" gradientUnits="userSpaceOnUse" xlink:href="#innoGrad3"/>
        <radialGradient id="radialGradient1618" cx="87.912" cy="107.737" r="1.048" fx="87.912" fy="107.737" gradientTransform="matrix(1 0 0 1.84924 0 -91.494)" gradientUnits="userSpaceOnUse" xlink:href="#innoGrad3"/>
        <radialGradient id="radialGradient1620" cx="93.374" cy="125.094" r="1.048" fx="93.374" fy="125.094" gradientTransform="matrix(1 0 0 1.84828 0 -106.115)" gradientUnits="userSpaceOnUse" xlink:href="#innoGrad3"/>
        <radialGradient id="radialGradient1622" cx="85.965" cy="150.935" r="1.048" fx="85.965" fy="150.935" gradientTransform="matrix(1 0 0 1.84924 0 -128.18)" gradientUnits="userSpaceOnUse" xlink:href="#innoGrad3"/>
        <radialGradient id="radialGradient1624" cx="137.507" cy="29.916" r="2.267" fx="137.507" fy="29.916" gradientUnits="userSpaceOnUse" xlink:href="#innoGrad3"/>
        <radialGradient id="radialGradient1626" cx="136.459" cy="39.999" r="2.267" fx="136.459" fy="39.999" gradientUnits="userSpaceOnUse" xlink:href="#innoGrad3"/>
        <radialGradient id="radialGradient1628" cx="137.711" cy="52.415" r="2.267" fx="137.711" fy="52.415" gradientUnits="userSpaceOnUse" xlink:href="#innoGrad3"/>
        <radialGradient id="radialGradient1630" cx="139.274" cy="61.43" r="2.267" fx="139.274" fy="61.43" gradientUnits="userSpaceOnUse" xlink:href="#innoGrad3"/>
        <radialGradient id="radialGradient1632" cx="141.814" cy="100.08" r="2.267" fx="141.814" fy="100.08" gradientUnits="userSpaceOnUse" xlink:href="#innoGrad3"/>
        <radialGradient id="radialGradient1634" cx="137.564" cy="187.688" r="2.267" fx="137.564" fy="187.688" gradientUnits="userSpaceOnUse" xlink:href="#innoGrad3"/>
        <radialGradient id="radialGradient1636" cx="139.996" cy="225.567" r="2.267" fx="139.996" fy="225.567" gradientUnits="userSpaceOnUse" xlink:href="#innoGrad3"/>
        <radialGradient id="radialGradient1638" cx="150.858" cy="222.288" r="2.267" fx="150.858" fy="222.288" gradientUnits="userSpaceOnUse" xlink:href="#innoGrad3"/>
        <radialGradient id="radialGradient1640" cx="158.033" cy="223.373" r="2.267" fx="158.033" fy="223.373" gradientUnits="userSpaceOnUse" xlink:href="#innoGrad3"/>
        <radialGradient id="radialGradient1642" cx="165.882" cy="224.865" r="2.267" fx="165.882" fy="224.865" gradientUnits="userSpaceOnUse" xlink:href="#innoGrad3"/>
        <radialGradient id="radialGradient1644" cx="171.541" cy="226.395" r="2.267" fx="171.541" fy="226.395" gradientUnits="userSpaceOnUse" xlink:href="#innoGrad3"/>
        <radialGradient id="radialGradient1646" cx="180.845" cy="227.199" r="2.267" fx="180.845" fy="227.199" gradientUnits="userSpaceOnUse" xlink:href="#innoGrad3"/>
        <radialGradient id="radialGradient1648" cx="152.839" cy="150.751" r="1.875" fx="152.839" fy="150.751" gradientUnits="userSpaceOnUse" xlink:href="#innoGrad3"/>
        <radialGradient id="radialGradient1650" cx="153.042" cy="129.501" r="1.875" fx="153.042" fy="129.501" gradientUnits="userSpaceOnUse" xlink:href="#innoGrad3"/>
        <radialGradient id="radialGradient1652" cx="154.77" cy="108.953" r="1.875" fx="154.77" fy="108.953" gradientUnits="userSpaceOnUse" xlink:href="#innoGrad3"/>
        <radialGradient id="radialGradient1654" cx="155.725" cy="87.348" r="1.875" fx="155.725" fy="87.348" gradientUnits="userSpaceOnUse" xlink:href="#innoGrad3"/>
        <radialGradient id="radialGradient1656" cx="157.588" cy="65.938" r="1.875" fx="157.588" fy="65.938" gradientUnits="userSpaceOnUse" xlink:href="#innoGrad3"/>
        <radialGradient id="radialGradient1658" cx="170.74" cy="85.791" r="1.24" fx="170.74" fy="85.791" gradientTransform="matrix(1 0 0 1.71371 0 -61.23)" gradientUnits="userSpaceOnUse" xlink:href="#innoGrad3"/>
        <radialGradient id="radialGradient1660" cx="171.132" cy="103.231" r="1.24" fx="171.132" fy="103.231" gradientTransform="matrix(1 0 0 1.7129 0 -73.594)" gradientUnits="userSpaceOnUse" xlink:href="#innoGrad3"/>
        <radialGradient id="radialGradient1662" cx="183.763" cy="101.386" r="1.24" fx="183.763" fy="101.386" gradientTransform="matrix(1 0 0 1.71452 0 -72.442)" gradientUnits="userSpaceOnUse" xlink:href="#innoGrad3"/>
        <radialGradient id="radialGradient1664" cx="188.543" cy="114.748" r="1.24" fx="188.543" fy="114.748" gradientTransform="matrix(1 0 0 1.71371 0 -81.897)" gradientUnits="userSpaceOnUse" xlink:href="#innoGrad3"/>
    </defs>
    <g>
        <path fill="#ff8080" d="M227.375 241.875c-.686-.008-19.686-.226-27.625-.438s-21.625-.875-21.625-.875-6.938.125-7.375-.25c-.437-.375.313-.75 0-1.25s-5.063.188-5.5-.063c-.437-.251.375-.375-.188-.688-.563-.313-6.75-.063-7.125-.25s.25-.625-.188-.938c-.438-.313-7.305-.188-7.746-.375-.441-.187.121-.688-.379-1-.5-.312-17.125-.938-18.25-3.25-1.125-2.312.305-20.63 1.375-28.063 1.188-8.25 26.375-25.73 26.375-25.73s1.66 3.453 5.125 7.543c3.502 4.135 8.813 8.906 9.063 9 .499.188.524-.516 1.137-.57.613-.054 2.862 3.383 3.425 3.57.563.187.617-.604 1.09-.708.473-.104 5.16 5.208 5.785 5.333s.321-.207 1.068-.305c.747-.098 4.869 4.439 5.682 4.435.813-.004.449-.632 1.037-.631.588.001 3.717 3.535 4.461 3.459.744-.076 1.439-.147 2.439.104s14.076 9.66 17.375 13.063c6.002 6.19 11.25 18.885 10.564 18.877z"/>
        <path fill="url(#linearGradient952)" stroke="#000" stroke-miterlimit="10" d="M227.375 241.875c-.686-.008-19.686-.226-27.625-.438s-21.625-.875-21.625-.875-6.938.125-7.375-.25c-.437-.375.313-.75 0-1.25s-5.063.188-5.5-.063c-.437-.251.375-.375-.188-.688-.563-.313-6.75-.063-7.125-.25s.25-.625-.188-.938c-.438-.313-7.305-.188-7.746-.375-.441-.187.121-.688-.379-1-.5-.312-17.125-.938-18.25-3.25-1.125-2.312.305-20.63 1.375-28.063 1.188-8.25 26.375-25.73 26.375-25.73s1.66 3.453 5.125 7.543c3.502 4.135 8.813 8.906 9.063 9 .499.188.524-.516 1.137-.57.613-.054 2.862 3.383 3.425 3.57.563.187.617-.604 1.09-.708.473-.104 5.16 5.208 5.785 5.333s.321-.207 1.068-.305c.747-.098 4.869 4.439 5.682 4.435.813-.004.449-.632 1.037-.631.588.001 3.717 3.535 4.461 3.459.744-.076 1.439-.147 2.439.104s14.076 9.66 17.375 13.063c6.002 6.19 11.25 18.885 10.564 18.877z"/>
        <path fill="none" stroke="#000" stroke-miterlimit="10" stroke-width=".5" d="M173.313 195.25s-21.813 19.875-22.126 22.688c-.614 5.525-2.252 17.698-2.252 17.698"/>
        <path fill="none" stroke="#000" stroke-miterlimit="10" stroke-width=".5" d="M177.875 198.25s-19.836 17.821-20.125 22.438c-.302 4.813-.302 16.357-.302 16.357"/>
        <path fill="none" stroke="#000" stroke-miterlimit="10" stroke-width=".5" d="M184.75 202.875s-18 13.563-20.188 19.625c-.287.797-.876 15.666-.876 15.666"/>
        <path fill="none" stroke="#000" stroke-miterlimit="10" stroke-width=".5" d="M191.5 207.005s-20.063 15.433-20.938 17.87c-.875 2.437-.562 14.01-.562 14.01"/>
        <path fill="none" stroke="#000" stroke-miterlimit="10" stroke-width=".5" d="M196.998 209.833s-16.259 11.639-18.686 16.917c-1.021 2.222-1.188 13.825-1.188 13.825"/>
        <path d="M199.087 210.323s2.068 1.886 3.268 2.974c1.294 1.174 2.05 1.85 3.642 3.274 1.11.992 3.144 2.81 5.58 5.009a679.389 679.389 0 0 1 4.222 3.835c.456.42.994.994 1.625 1.748a49.385 49.385 0 0 1 1.841 2.363c1.165 1.581 2.443 3.451 3.781 5.504 2.07 3.176 4.286 6.872 4.33 6.846.061-.035-2.223-3.98-4.095-6.995a122.906 122.906 0 0 0-3.67-5.603 54 54 0 0 0-1.797-2.432c-.616-.78-1.15-1.392-1.611-1.851-1.064-1.064-2.838-2.755-4.114-3.967-2.002-1.9-4.753-4.49-5.456-5.15a422.768 422.768 0 0 0-3.584-3.341 912.384 912.384 0 0 0-3.26-2.984z"/>
        <path fill="none" stroke="#000" stroke-miterlimit="10" d="M172.313 195.25s-5.574-3.178-9.063-6.375c-3-2.75-4.75-8.75-4.75-8.75"/>
        <path fill="#f55" stroke="#000" stroke-miterlimit="10" d="M118.188 222.945v5.672l13.187 3.883-.361-7.331z"/>
    </g>
    <g>
        <path fill="#ffb380" d="M129.75 198.011s-1.5 7.364-.625 8.989c.301.559 5.812-.641 10-4.488 7.986-7.337 14.378-19.813 21.625-19.387 4.292.253 5.375 6.137 6.625 5.756.57-.174-.659-1.473-1.75-3.381-1.302-2.275-2.566-5.205-2.566-5.205l-5.934-4.625z"/>
        <path fill="url(#linearGradient977)" stroke="#000" stroke-miterlimit="10" d="M129.75 198.011s-1.5 7.364-.625 8.989c.301.559 5.812-.641 10-4.488 7.986-7.337 14.378-19.813 21.625-19.387 4.292.253 5.375 6.137 6.625 5.756.57-.174-.659-1.473-1.75-3.381-1.302-2.275-2.566-5.205-2.566-5.205l-5.934-4.625z"/>
        <path fill="#ff8080" d="M131.365 60.375s-2.485 21.636-1.99 48.375c.31 16.685 3.867 35.587 3.5 51.75-.563 24.816-6.208 42.358-3.75 43.75 6.625 3.75 12.628-10.069 21.625-17.5 4.173-3.446 8.131-5.8 9.125-5.8 4 0 5.875 3.925 5.875 3.925s-4.125-4.875-4.625-12.375c-.287-4.314 4.417-39.634 7-68.875C170.032 82.035 170 63.75 170 63.75z"/>
        <path fill="url(#linearGradient1000)" stroke="#000" stroke-miterlimit="10" d="M131.365 60.375s-2.485 21.636-1.99 48.375c.31 16.685 3.867 35.587 3.5 51.75-.563 24.816-6.208 42.358-3.75 43.75 6.625 3.75 12.628-10.069 21.625-17.5 4.173-3.446 8.131-5.8 9.125-5.8 4 0 5.875 3.925 5.875 3.925s-4.125-4.875-4.625-12.375c-.287-4.314 4.417-39.634 7-68.875C170.032 82.035 170 63.75 170 63.75z"/>
        <path fill="#faa" d="M153.875 63.75s2.834 6.021 2.534 11.512c-.3 5.491-3.673 9.264-3.784 11.363-.057 1.063 2.027 6.516 1.75 11.75-.271 5.101-2.803 8.383-2.905 10-.048.747 1.579 5.43 1.28 10.125-.349 5.47-2.625 9.75-2.625 11 0 .585 2.25 5.916 2.25 10.625 0 5.354-2 8.625-2.25 10.125-.125.75 3.578 6.047 5.25 10.875 1.672 4.828 1.313 9.188 2.125 9 .914-.211 1.585-5.857 2.625-10.5.809-3.613 1.228-4.363 2.125-6.5.311-.738-.182-3.028.125-5.625.583-4.922 1.86-10.934 1.625-9.5-.359 2.19 2.312-7.367 2.375-10 .063-2.633.161-8.419.481-11.06.32-2.641 2.019-9.565 2.019-9.565l1.366-10.985c.409-3.292 1.376-8.64 1.384-11.14.008-2.5.062-13.954-.125-9.988-.187 3.966 1.063-9.989 1.063-9.989z"/>
        <path fill="url(#linearGradient1023)" stroke="#000" stroke-miterlimit="10" d="M153.875 63.75s2.834 6.021 2.534 11.512c-.3 5.491-3.673 9.264-3.784 11.363-.057 1.063 2.027 6.516 1.75 11.75-.271 5.101-2.803 8.383-2.905 10-.048.747 1.579 5.43 1.28 10.125-.349 5.47-2.625 9.75-2.625 11 0 .585 2.25 5.916 2.25 10.625 0 5.354-2 8.625-2.25 10.125-.125.75 3.578 6.047 5.25 10.875 1.672 4.828 1.313 9.188 2.125 9 .914-.211 1.585-5.857 2.625-10.5.809-3.613 1.228-4.363 2.125-6.5.311-.738-.182-3.028.125-5.625.583-4.922 1.86-10.934 1.625-9.5-.359 2.19 2.312-7.367 2.375-10 .063-2.633.161-8.419.481-11.06.32-2.641 2.019-9.565 2.019-9.565l1.366-10.985c.409-3.292 1.376-8.64 1.384-11.14.008-2.5.062-13.954-.125-9.988-.187 3.966 1.063-9.989 1.063-9.989z"/>
        <path d="M159.483 181.006c.05-.017-.362-1.396-.667-2.515a50.725 50.725 0 0 1-.552-2.19c-.19-.852-.3-1.5-.343-1.983-.02-.406-.009-.879.005-1.219.024-.576.075-1.166.09-1.372.022-.297.033-.496.046-.82l.029-.754-1.184-.056c-.005.105-.019.443-.023.78-.004.312 0 .556.017.841.013.225.055.805.123 1.415.038.334.104.86.206 1.288.105.506.28 1.172.541 2.012.204.657.454 1.398.728 2.159.395 1.096.923 2.436.984 2.414z"/>
        <path fill="none" stroke="#000" stroke-miterlimit="10" d="M157.5 170.125s.68-1.55.808-2.75 10.255-101.438 10.255-101.438"/>
    </g>
    <g>
        <path fill="#f55" d="M131.86 21.379c-.89-2.677-8.678-17.149-25.352-13.565-4.526.973-2.987 11.673-2.258 18.906.336 3.343-.376 5.662-.37 6.446.008.74 1.247 5.728 1.059 9.443-.254 5.016-1.222 9.705-1.16 15.305.073 6.435 3.216 11.47 6.032 12.15 13.868 3.347 18.614-10.35 18.614-10.35s-.651-7.734 2.861-7.885c2.193-.094 16.665 6.505 26.616 10.025 5.99 2.119 9.47 2.009 10.105 1.794 1.688-.57 9.904-12.31 9.868-18.025-.035-5.716-3.631-17.915-4.485-18.392-.853-.476-2.407-1.558-4.214-1.267-3.59.577-9.417 3.037-15.846 4.637-6.43 1.6-13.462 2.338-18.128 3.354-5.365 1.17-2.9-11.246-3.342-12.576z"/>
        <path fill="url(#linearGradient1053)" stroke="#000" stroke-miterlimit="10" d="M131.86 21.379c-.89-2.677-8.678-17.149-25.352-13.565-4.526.973-2.987 11.673-2.258 18.906.336 3.343-.376 5.662-.37 6.446.008.74 1.247 5.728 1.059 9.443-.254 5.016-1.222 9.705-1.16 15.305.073 6.435 3.216 11.47 6.032 12.15 13.868 3.347 18.614-10.35 18.614-10.35s-.651-7.734 2.861-7.885c2.193-.094 16.665 6.505 26.616 10.025 5.99 2.119 9.47 2.009 10.105 1.794 1.688-.57 9.904-12.31 9.868-18.025-.035-5.716-3.631-17.915-4.485-18.392-.853-.476-2.407-1.558-4.214-1.267-3.59.577-9.417 3.037-15.846 4.637-6.43 1.6-13.462 2.338-18.128 3.354-5.365 1.17-2.9-11.246-3.342-12.576z"/>
        <path fill="#fd5" stroke="#000" stroke-miterlimit="10" d="M120.501 44.344c.973.422 3.713 10.091 2.548 11.223-1.166 1.132-8.617.981-9.867-4.572-1.251-5.553 6.346-7.073 7.319-6.651zm-5.769 6.375c.915 4.057 6.358 4.167 7.209 3.341.853-.829-1.151-7.893-1.862-8.201-.709-.308-6.261.803-5.347 4.86z"/>
        <path fill="#fd5" stroke="#000" stroke-miterlimit="10" d="M118.519 48.602s-3.337.339-2.927 2.031c.371 1.532 4.418.218 3.245.504"/>
        <path fill="#f55" d="M139.105 42.109s-18.981 3.663-20.136 4.823c-1.155 1.16.044 2.837.044 2.837s.058 2.53 1.193 3.023c1.135.493 20.428-5.104 20.428-5.104s4.67-1.112 3.775-3.372c-1.518-3.837-5.304-2.207-5.304-2.207z"/>
        <path fill="url(#linearGradient1076)" stroke="#000" stroke-miterlimit="10" d="M139.105 42.109s-18.981 3.663-20.136 4.823c-1.155 1.16.044 2.837.044 2.837s.058 2.53 1.193 3.023c1.135.493 20.428-5.104 20.428-5.104s4.67-1.112 3.775-3.372c-1.518-3.837-5.304-2.207-5.304-2.207z"/>
    </g>
    <g>
        <path fill="#ffb380" d="M130.125 33.5c0-7.75 8.443-6.049 17.75-6.5 11.345-.55 24.204-.5 24.204-.5s1.503 38.625.212 39.875-9.713-1.688-18.916-1.625c-11.06.076-22.752 1.931-22.755-4.864-.004-9.525 5.005-9.512 5.005-9.512V41s-5.5 1.9-5.5-7.5z"/>
        <path fill="url(#linearGradient1099)" stroke="#000" stroke-miterlimit="10" d="M130.125 33.5c0-7.75 8.443-6.049 17.75-6.5 11.345-.55 24.204-.5 24.204-.5s1.503 38.625.212 39.875-9.713-1.688-18.916-1.625c-11.06.076-22.752 1.931-22.755-4.864-.004-9.525 5.005-9.512 5.005-9.512V41s-5.5 1.9-5.5-7.5z"/>
        <path fill="#f55" stroke="#000" stroke-miterlimit="10" d="M165.375 30.25s-10.223.653-19.5.916c-7.573.214-14.299-.432-14.5 3.084-.302 5.282 6.321 4.345 13.125 4.107 7.264-.253 14.75 0 14.75 0l-.956 14.571s-8.091-.315-15.294 0c-5.787.253-11 .636-11 4.006 0 3.59 8.239 2.845 16.5 3.065 9.146.245 17.805 1.991 18.402 1.246.597-.745-1.527-30.995-1.527-30.995z"/>
        <path fill="#ffb380" d="M134.25 37.75c.618-1.03 9.81-2.982 18.625-6.584 7.224-2.953 14.229-7.778 15.75-7.666 1.744.129 10.549 10.199 10.625 20.097.072 9.332-5.456 18.23-6 18.653-.657.511-12.282-2.465-22.75-4.5-7.448-1.448-14.647-1.897-15.375-2.625-1.75-1.75-2-15.5-.875-17.375z"/>
        <path fill="url(#linearGradient1131)" stroke="#000" d="M134.25 37.75c.618-1.03 9.81-2.982 18.625-6.584 7.224-2.953 14.229-7.778 15.75-7.666 1.744.129 10.549 10.199 10.625 20.097.072 9.332-5.456 18.23-6 18.653-.657.511-12.282-2.465-22.75-4.5-7.448-1.448-14.647-1.897-15.375-2.625-1.75-1.75-2-15.5-.875-17.375z"/>
        <path fill="#ff8080" d="M176.193 56.935s-1.779 2.288-3.549 2.364c-1.77.076-8.883-3.257-17.77-5.424-8.435-2.057-16.885-3.015-17.25-3.501-.75-.999-1-8.999 0-10.374.393-.541 6.597-2.15 12.75-4.625 9.488-3.817 18.81-8.859 20.25-8.875 1.44-.016 3.334 2.48 3.334 2.48s5.166 7.089 5.291 14.617c.125 7.528-3.056 13.338-3.056 13.338z"/>
        <path fill="url(#linearGradient1154)" stroke="#000" stroke-miterlimit="10" d="M176.193 56.935s-1.779 2.288-3.549 2.364c-1.77.076-8.883-3.257-17.77-5.424-8.435-2.057-16.885-3.015-17.25-3.501-.75-.999-1-8.999 0-10.374.393-.541 6.597-2.15 12.75-4.625 9.488-3.817 18.81-8.859 20.25-8.875 1.44-.016 3.334 2.48 3.334 2.48s5.166 7.089 5.291 14.617c.125 7.528-3.056 13.338-3.056 13.338z"/>
        <path d="M168.875 24.5c-.082.066 2.425 3.562 3.989 6.381 1.3 2.347 2.223 4.4 2.872 6.167 1.007 2.739 1.405 4.918 1.515 6.582.11 1.664-.002 3.82-.648 6.5-.417 1.73-1.07 3.734-2.064 6.012-1.196 2.737-3.25 6.105-3.164 6.166.19.134 2.485-3.593 3.648-5.94 1.112-2.247 1.874-4.278 2.373-6.028.783-2.75.972-4.977.853-6.776-.119-1.799-.602-4.033-1.75-6.815-.73-1.771-1.762-3.838-3.174-6.137-1.472-2.397-4.277-6.251-4.45-6.112z"/>
    </g>
    <g>
        <path fill="#fd5" stroke="#000" stroke-miterlimit="10" d="M121.75 92c.75.75-.25 10.75-1.75 11.375s-8.375-2.25-7.5-7.875 8.5-4.25 9.25-3.5zm-7.706 3.813c-.639 4.11 4.385 6.21 5.479 5.754 1.098-.458 1.826-7.764 1.278-8.312-.546-.548-6.118-1.552-6.757 2.558z"/>
        <path fill="#fd5" stroke="#000" stroke-miterlimit="10" d="M118.343 95.233s-3.229-.909-3.468.815c-.217 1.562 4.029 1.825 2.833 1.66zM117.933 179.841c.75.75-.25 10.75-1.75 11.375s-8.375-2.25-7.5-7.875 8.5-4.25 9.25-3.5zm-7.706 3.812c-.639 4.109 4.385 6.21 5.479 5.754 1.098-.457 1.826-7.764 1.278-8.312-.546-.547-6.118-1.551-6.757 2.558z"/>
        <path fill="#fd5" stroke="#000" stroke-miterlimit="10" d="M114.526 183.073s-3.229-.908-3.468.816c-.217 1.561 4.029 1.824 2.833 1.66M120.395 218.029c.75.75-.25 10.75-1.75 11.375s-8.375-2.25-7.5-7.875 8.5-4.25 9.25-3.5zm-7.706 3.813c-.639 4.109 4.385 6.21 5.479 5.754 1.098-.457 1.826-7.764 1.278-8.312-.546-.548-6.118-1.552-6.757 2.558z"/>
        <path fill="#fd5" stroke="#000" stroke-miterlimit="10" d="M116.988 221.262s-3.229-.908-3.468.816c-.217 1.561 4.029 1.824 2.833 1.66"/>
        <path fill="#f55" d="M139.875 96.75s-19-3.56-20.5-2.905c-1.5.655-1 2.655-1 2.655s-.875 2.375 0 3.25 20.875 2.75 20.875 2.75 4.753.68 4.75-1.75c-.005-4.127-4.125-4-4.125-4z"/>
        <path fill="url(#linearGradient1185)" stroke="#000" stroke-miterlimit="10" d="M139.875 96.75s-19-3.56-20.5-2.905c-1.5.655-1 2.655-1 2.655s-.875 2.375 0 3.25 20.875 2.75 20.875 2.75 4.753.68 4.75-1.75c-.005-4.127-4.125-4-4.125-4z"/>
        <path fill="#f55" d="M136.058 184.591s-19-3.56-20.5-2.904c-1.5.654-1 2.654-1 2.654s-.875 2.375 0 3.25 20.875 2.75 20.875 2.75 4.753.68 4.75-1.75c-.005-4.127-4.125-4-4.125-4z"/>
        <path fill="url(#linearGradient1193)" stroke="#000" stroke-miterlimit="10" d="M136.058 184.591s-19-3.56-20.5-2.904c-1.5.654-1 2.654-1 2.654s-.875 2.375 0 3.25 20.875 2.75 20.875 2.75 4.753.68 4.75-1.75c-.005-4.127-4.125-4-4.125-4z"/>
        <path fill="#f55" d="M138.52 222.779s-19-3.56-20.5-2.904c-1.5.654-1 2.654-1 2.654s-.875 2.375 0 3.25 20.875 2.75 20.875 2.75 4.754.68 4.75-1.75c-.004-4.127-4.125-4-4.125-4z"/>
        <path fill="url(#linearGradient1201)" stroke="#000" stroke-miterlimit="10" d="M138.52 222.779s-19-3.56-20.5-2.904c-1.5.654-1 2.654-1 2.654s-.875 2.375 0 3.25 20.875 2.75 20.875 2.75 4.754.68 4.75-1.75c-.004-4.127-4.125-4-4.125-4z"/>
    </g>
    <g fill="#f55">
        <path d="M41.125 94.625v4.5s-12.089-.773-15.642-1.592C21.93 96.714 14.125 93 14.125 93s-3.75-2.5-3.625-3.625 3.625-.75 3.625-.75 8.682 3.625 11.591 4.5c2.909.875 15.409 1.5 15.409 1.5zM40.047 181.729v4.5s-12.089-.773-15.642-1.592c-3.553-.819-11.358-4.533-11.358-4.533s-3.75-2.5-3.625-3.625 3.625-.75 3.625-.75 8.682 3.625 11.591 4.5c2.909.875 15.409 1.5 15.409 1.5zM38.681 223.207v4.5s-12.089-.773-15.642-1.592c-3.553-.819-11.358-4.533-11.358-4.533s-3.75-2.5-3.625-3.625 3.625-.75 3.625-.75 8.682 3.625 11.591 4.5c2.909.875 15.409 1.5 15.409 1.5z"/>
        <path fill="url(#linearGradient1230)" stroke="#000" stroke-miterlimit="10" d="M41.125 94.625v4.5s-12.089-.773-15.642-1.592C21.93 96.714 14.125 93 14.125 93s-3.75-2.5-3.625-3.625 3.625-.75 3.625-.75 8.682 3.625 11.591 4.5c2.909.875 15.409 1.5 15.409 1.5z"/>
        <path fill="url(#linearGradient1232)" stroke="#000" stroke-miterlimit="10" d="M40.047 181.729v4.5s-12.089-.773-15.642-1.592c-3.553-.819-11.358-4.533-11.358-4.533s-3.75-2.5-3.625-3.625 3.625-.75 3.625-.75 8.682 3.625 11.591 4.5c2.909.875 15.409 1.5 15.409 1.5z"/>
        <path fill="url(#linearGradient1234)" stroke="#000" stroke-miterlimit="10" d="M38.681 223.207v4.5s-12.089-.773-15.642-1.592c-3.553-.819-11.358-4.533-11.358-4.533s-3.75-2.5-3.625-3.625 3.625-.75 3.625-.75 8.682 3.625 11.591 4.5c2.909.875 15.409 1.5 15.409 1.5z"/>
    </g>
    <g>
        <path fill="#ff8080" stroke="#000" stroke-miterlimit="10" d="M121.833 248.328c1.872-1.399 3.583-4.334 3.833-6.667.091-.853-4.896-10.059-14.167-18.724-1.055-.986-29.06-20.023-35.167-25.104-4.279-3.56-8.07-7.536-8.07-7.536l-33.076 10.827-.938 17.813-.721 20.308 7.909 1.067.25.938 4.25-.25.313.813 2.938-.25.188.938L52.5 242l.25 1 5.917.161.167 1.167 5.229-.141-.146 1.474 7.917.75s9.867 1.618 17.667 1.917c7.8.299 32.332 0 32.332 0z"/>
        <path fill="url(#linearGradient1257)" stroke="#000" stroke-miterlimit="10" d="M121.833 248.328c1.872-1.399 3.583-4.334 3.833-6.667.091-.853-4.896-10.059-14.167-18.724-1.055-.986-29.06-20.023-35.167-25.104-4.279-3.56-8.07-7.536-8.07-7.536l-33.076 10.827-.938 17.813-.721 20.308 7.909 1.067.25.938 4.25-.25.313.813 2.938-.25.188.938L52.5 242l.25 1 5.917.161.167 1.167 5.229-.141-.146 1.474 7.917.75s9.867 1.618 17.667 1.917c7.8.299 32.332 0 32.332 0z"/>
        <path fill="none" stroke="#000" stroke-miterlimit="10" stroke-width=".5" d="M45.938 241s.67-13.047 5.75-21.352c7.813-12.773 21.749-21.636 22.553-21.638 1.65-.005 4.481 1.694 4.481 1.694"/>
        <path fill="none" stroke="#000" stroke-miterlimit="10" stroke-width=".5" d="M82.239 202.304s-3.051-1.494-4.372-1.369c-1.321.125-18.805 15.209-22.368 24.19-2.913 7.344-3 16.875-3 16.875"/>
        <path fill="none" stroke="#000" stroke-miterlimit="10" stroke-width=".5" d="M58.701 243.399s.203-7.258 2.924-15.587c3.063-9.375 21.694-22.521 23-22.375 1.125.125 3.266.915 3.266.915"/>
        <path fill="none" stroke="#000" stroke-miterlimit="10" stroke-width=".5" d="M64.063 244.188s1.783-13.126 6.063-19.375c5.938-8.669 19.383-15.048 20.375-15.125.992-.077 4.795 1.873 4.795 1.873"/>
        <path fill="none" stroke="#000" stroke-miterlimit="10" stroke-width=".5" d="M71.188 245.438s1.169-10.772 5.641-16.375c4.75-5.952 15.012-13.079 19.068-15.347.97-.542 2.922.303 2.922.303"/>
        <path d="M121.833 248.328c.063-.037-2.792-5.008-5.084-8.887a461.416 461.416 0 0 0-4.63-7.676c-1.827-2.958-3.277-5.203-4.396-6.841-2.778-4.03-6.28-7.24-8.696-9.285-2.537-2.148-5.187-4.099-7.523-5.75-2.664-1.884-4.31-2.97-7.557-5.205-2.501-1.722-6.542-4.521-9.733-7.377-2.844-2.542-4.618-5.048-5.353-6.832-.092-.223-.124-.336-.12-.32l-.958.285c.004.015.048.16.154.416.809 1.963 2.68 4.591 5.597 7.21 3.248 2.914 7.331 5.745 9.83 7.464 2.869 1.972 5.28 3.582 7.565 5.177 2.324 1.621 4.996 3.546 7.52 5.624 2.416 1.989 5.914 5.096 8.702 8.995 1.156 1.602 2.641 3.792 4.53 6.716a470.385 470.385 0 0 1 4.776 7.576c2.543 4.11 5.32 8.742 5.376 8.71z"/>
        <path fill="#f55" stroke="#000" stroke-miterlimit="10" d="M33.977 229.488l-.448 9.757-7.195-2.2 1.297-7.557z"/>
    </g>
    <g>
        <path fill="#ffb380" stroke="#000" stroke-miterlimit="10" d="M35.833 189.834s-3.109 23.667-2.305 24.5c.354.366 5.937 4.569 10.472-1.252 5.583-7.167 17.026-19.77 25.333-19.582 1.916.109 4.014 1.004 5.167 2.167.831.838.717 2.027 1.833 2.167 1.215.152-.067-1.311-1.052-3.364-1.177-2.455-2.235-5.589-2.235-5.589z"/>
        <path fill="url(#linearGradient1297)" stroke="#000" stroke-miterlimit="10" d="M35.833 189.834s-3.109 23.667-2.305 24.5c.354.366 5.937 4.569 10.472-1.252 5.583-7.167 17.026-19.77 25.333-19.582 1.916.109 4.014 1.004 5.167 2.167.831.838.717 2.027 1.833 2.167 1.215.152-.067-1.311-1.052-3.364-1.177-2.455-2.235-5.589-2.235-5.589z"/>
        <path fill="#ff8080" d="M38.917 59s-2.329 20.782-2.25 47c.048 15.996 2.818 33.911 2.25 50.667-.513 15.117-2.748 29.434-3.919 39.825-1.113 9.869-1.188 16.188-.831 16.675.89.747 4.641.666 8.5-2.667 7.396-6.387 15.833-18.833 26.001-18.905 6.263-.045 5.499 4.572 6.832 3.572.418-.313-5.9-8.775-4.333-26.667 1.521-17.361 5.487-38.192 8.667-58.167C83.839 85.173 82.5 63 82.5 63z"/>
        <path fill="url(#linearGradient1320)" stroke="#000" stroke-miterlimit="10" d="M38.917 59s-2.329 20.782-2.25 47c.048 15.996 2.818 33.911 2.25 50.667-.513 15.117-2.748 29.434-3.919 39.825-1.113 9.869-1.188 16.188-.831 16.675.89.747 4.641.666 8.5-2.667 7.396-6.387 15.833-18.833 26.001-18.905 6.263-.045 5.499 4.572 6.832 3.572.418-.313-5.9-8.775-4.333-26.667 1.521-17.361 5.487-38.192 8.667-58.167C83.839 85.173 82.5 63 82.5 63z"/>
        <path fill="#faa" d="M66.167 70.662c-.938.895.964 9.796.167 15.167-.763 5.137-4.248 6.739-4.167 8.083.096 1.582 2.09 7.572 1.833 12.501-.189 3.637-2.608 6.35-2.75 8.083-.163 1.998 1.316 8.949.833 13.503-.504 4.757-2.962 7.121-2.75 9.164.202 1.942 1.62 7.585 1.583 11.501-.039 4.146-1.901 7.489-2 9.418-.095 1.836 3.481 6.648 4.667 11.5 1.237 5.059 1.474 9.207 2.75 9.249 1.37.045 2.434-4.553 3.583-9.666.948-4.217 2.079-8.818 2.39-11.15.389-2.914.361-7.652 1.026-12.101.513-3.428 1.727-6.687 2.074-8.793.385-2.34.473-6.411 1.176-10.625.751-4.502 2.118-9.152 2.503-11.541.455-2.817.91-8.459 1.567-13.626.421-3.316 1.185-6.564 1.231-8.323.06-2.282-.183-7.226.198-11.761.37-4.407 1.37-8.429 1-9.25-.748-1.666-16.914-1.333-16.914-1.333z"/>
        <path fill="url(#linearGradient1343)" stroke="#000" stroke-miterlimit="10" d="M66.167 70.662c-.938.895.964 9.796.167 15.167-.763 5.137-4.248 6.739-4.167 8.083.096 1.582 2.09 7.572 1.833 12.501-.189 3.637-2.608 6.35-2.75 8.083-.163 1.998 1.316 8.949.833 13.503-.504 4.757-2.962 7.121-2.75 9.164.202 1.942 1.62 7.585 1.583 11.501-.039 4.146-1.901 7.489-2 9.418-.095 1.836 3.481 6.648 4.667 11.5 1.237 5.059 1.474 9.207 2.75 9.249 1.37.045 2.434-4.553 3.583-9.666.948-4.217 2.079-8.818 2.39-11.15.389-2.914.361-7.652 1.026-12.101.513-3.428 1.727-6.687 2.074-8.793.385-2.34.473-6.411 1.176-10.625.751-4.502 2.118-9.152 2.503-11.541.455-2.817.91-8.459 1.567-13.626.421-3.316 1.185-6.564 1.231-8.323.06-2.282-.183-7.226.198-11.761.37-4.407 1.37-8.429 1-9.25-.748-1.666-16.914-1.333-16.914-1.333z"/>
        <path d="M78.5 75.2c.007.002-2.719 22.012-5.561 45.39a9375.433 9375.433 0 0 0-4.025 33.516c-.576 4.897-1.078 9.235-1.465 12.69a660.477 660.477 0 0 0-.49 4.484c-.13 1.248-.227 2.236-.285 2.925-.144 1.706-.107 3.305-.089 4.78.1 8.08 1.973 12.653 2.084 12.61.112-.043-1.544-4.632-1.362-12.605.034-1.459.207-3.023.363-4.697.063-.679.165-1.66.3-2.905.135-1.244.303-2.75.5-4.476.392-3.453.897-7.789 1.475-12.685 1.155-9.792 2.6-21.823 4.014-33.513 2.827-23.379 5.528-45.392 5.534-45.39z"/>
    </g>
    <g>
        <path fill="#ffb380" d="M48.667 31.166s38.833 8.333 42.083 5.25-8.333 33.167-8.333 33.167-20.892-.852-26.535-1.5c-5.643-.648-16.965-3.5-16.965-3.5z"/>
        <path fill="url(#linearGradient1368)" stroke="#000" stroke-miterlimit="10" d="M48.667 31.166s38.833 8.333 42.083 5.25-8.333 33.167-8.333 33.167-20.892-.852-26.535-1.5c-5.643-.648-16.965-3.5-16.965-3.5z"/>
        <path fill="#f55" stroke="#000" stroke-miterlimit="10" d="M55.5 37.166c-1.25.75-5.25 25.75-4.5 26.5s27.75 5.083 27.75 5.083L87 40.999s-7.841-.464-15.417-1.5c-7.846-1.074-15.447-2.715-16.083-2.333z"/>
        <path fill="#ffb380" d="M51.167 28.666c-.514-2.774-6.241-18.178-23.249-16.918-4.617.342-4.562 11.152-4.833 18.417-.126 3.357-1.15 5.557-1.251 6.334-.095.733.448 5.845-.249 9.499-.94 4.933-2.543 9.445-3.25 15.001-.812 6.384 1.61 11.802 4.306 12.862C35.918 79.082 42.5 66.166 42.5 66.166s.417-7.75 3.917-7.417c2.185.208 15.613 8.732 24.987 13.585 5.642 2.921 9.105 3.29 9.763 3.165 1.75-.333 11.5-10.834 12.25-16.5S92.28 40.755 91.5 40.166c-.78-.589-2.171-1.874-4-1.834-3.635.079-9.745 1.715-16.333 2.417-6.589.701-13.656.467-18.417.833-5.475.421-1.328-11.538-1.583-12.916z"/>
        <path fill="url(#linearGradient1400)" stroke="#000" stroke-miterlimit="10" d="M51.167 28.666c-.514-2.774-6.241-18.178-23.249-16.918-4.617.342-4.562 11.152-4.833 18.417-.126 3.357-1.15 5.557-1.251 6.334-.095.733.448 5.845-.249 9.499-.94 4.933-2.543 9.445-3.25 15.001-.812 6.384 1.61 11.802 4.306 12.862C35.918 79.082 42.5 66.166 42.5 66.166s.417-7.75 3.917-7.417c2.185.208 15.613 8.732 24.987 13.585 5.642 2.921 9.105 3.29 9.763 3.165 1.75-.333 11.5-10.834 12.25-16.5S92.28 40.755 91.5 40.166c-.78-.589-2.171-1.874-4-1.834-3.635.079-9.745 1.715-16.333 2.417-6.589.701-13.656.467-18.417.833-5.475.421-1.328-11.538-1.583-12.916z"/>
        <path fill="#ff8080" d="M46.918 41.748c2.63 5.425 20.28 3.851 31.833 1.849 3.856-.668 7.582-.93 10.242-1.057l3.707 2.696s1.787 8.137.537 14.637c-1.066 5.548-8.413 12.462-8.413 12.462l-2.802 1.688c-6.15-4.024-28.549-18.382-35.021-18.524-7.583-.167-6.432 12.742-20.259 11.941-4.741-.275-3.742-12.028-2.324-19.942.461-2.576.327-5.453.449-6.441.166-1.332.97-4.252 1.134-8.059.331-7.699.526-17.736 4.917-16.583 14.916 3.917 14.348 21.925 16 25.333z"/>
        <path fill="url(#linearGradient1423)" stroke="#000" stroke-miterlimit="10" d="M46.918 41.748c2.63 5.425 20.28 3.851 31.833 1.849 3.856-.668 7.582-.93 10.242-1.057l3.707 2.696s1.787 8.137.537 14.637c-1.066 5.548-8.413 12.462-8.413 12.462l-2.802 1.688c-6.15-4.024-28.549-18.382-35.021-18.524-7.583-.167-6.432 12.742-20.259 11.941-4.741-.275-3.742-12.028-2.324-19.942.461-2.576.327-5.453.449-6.441.166-1.332.97-4.252 1.134-8.059.331-7.699.526-17.736 4.917-16.583 14.916 3.917 14.348 21.925 16 25.333z"/>
        <path d="M88.001 38.357c-.1.035 1.362 4.776 2.15 8.145.655 2.805 1.043 5.032 1.255 6.805.329 2.756.24 4.502.022 5.593-.219 1.09-.799 2.694-2.127 4.988-.855 1.476-2.037 3.27-3.675 5.444-1.966 2.61-5.049 6.107-4.972 6.18.132.126 3.629-3.712 5.392-5.85 1.733-2.101 3.026-3.889 3.956-5.348 1.46-2.29 2.153-3.955 2.406-5.218.254-1.262.261-3.105-.19-5.903-.287-1.783-.778-4.049-1.55-6.824-.783-2.816-2.499-8.07-2.667-8.012z"/>
    </g>
    <g fill="#ffd5d5">
        <circle cx="64.875" cy="95.14" r="1.375"/>
        <circle cx="63.5" cy="116.375" r="1.375"/>
        <circle cx="61.5" cy="138.375" r="1.375"/>
        <circle cx="60.75" cy="158.75" r="1.375"/>
        <circle cx="50.392" cy="225.17" r="1.767"/>
        <circle cx="55.625" cy="226.937" r="1.767"/>
        <circle cx="62.125" cy="228.703" r="1.767"/>
        <circle cx="68.159" cy="231.25" r="1.767"/>
        <circle cx="74.14" cy="233.794" r="1.767"/>
        <circle cx="37.25" cy="196.375" r="1.767"/>
        <circle cx="48.75" cy="63.75" r="1.767"/>
        <circle cx="54.625" cy="34.375" r="1.767"/>
        <circle cx="42.375" cy="47.875" r="1.767"/>
        <circle cx="50.907" cy="43.598" r="1.767"/>
        <circle cx="48" cy="56.129" r="1.767"/>
        <circle cx="67.75" cy="72.334" r="1.375"/>
        <ellipse cx="81.202" cy="94.313" rx=".548" ry="1.438"/>
        <ellipse cx="78.167" cy="115" rx=".548" ry="1.438" transform="rotate(4.997 78.162 115.047)"/>
        <ellipse cx="74.833" cy="137" rx=".548" ry="1.437" transform="rotate(8.094 74.832 136.997)"/>
        <ellipse cx="71.602" cy="158.253" rx=".548" ry="1.438" transform="rotate(5.315 71.596 158.268)"/>
        <circle cx="136.965" cy="29.916" r="1.767"/>
        <circle cx="135.917" cy="39.999" r="1.767"/>
        <circle cx="136.965" cy="52.415" r="1.767"/>
        <circle cx="138.732" cy="61.43" r="1.767"/>
        <circle cx="141" cy="99.944" r="1.767"/>
        <circle cx="136.75" cy="187.688" r="1.767"/>
        <circle cx="139.25" cy="225.906" r="1.767"/>
        <circle cx="150.858" cy="222.288" r="1.767"/>
        <circle cx="157.491" cy="223.78" r="1.767"/>
        <circle cx="165.407" cy="225.204" r="1.767"/>
        <circle cx="171.066" cy="226.937" r="1.767"/>
        <circle cx="180.167" cy="227.674" r="1.767"/>
        <circle cx="152.5" cy="150.751" r="1.375"/>
        <circle cx="152.5" cy="129.501" r="1.375"/>
        <circle cx="154.499" cy="108.75" r="1.375"/>
        <circle cx="155.25" cy="87.416" r="1.375"/>
        <circle cx="157.249" cy="65.938" r="1.375"/>
        <ellipse cx="170.74" cy="85.791" rx=".74" ry="1.625"/>
        <ellipse cx="168.563" cy="107.376" rx=".74" ry="1.624" transform="rotate(1.403 168.566 107.358)"/>
        <ellipse cx="165.748" cy="128.751" rx=".74" ry="1.626" transform="rotate(8.959 165.787 128.75)"/>
        <ellipse cx="162.498" cy="149.376" rx=".74" ry="1.625" transform="rotate(11.275 162.48 149.316)"/>
        <circle cx="64.875" cy="95.14" r="1.375" fill="url(#radialGradient1570)" stroke="#000" stroke-miterlimit="10"/>
        <circle cx="63.5" cy="116.375" r="1.375" fill="url(#radialGradient1586)" stroke="#000" stroke-miterlimit="10"/>
        <circle cx="61.5" cy="138.375" r="1.375" fill="url(#radialGradient1588)" stroke="#000" stroke-miterlimit="10"/>
        <circle cx="60.75" cy="158.75" r="1.375" fill="url(#radialGradient1590)" stroke="#000" stroke-miterlimit="10"/>
        <circle cx="50.392" cy="225.17" r="1.767" fill="url(#radialGradient1592)" stroke="#000" stroke-miterlimit="10"/>
        <circle cx="55.625" cy="226.937" r="1.767" fill="url(#radialGradient1594)" stroke="#000" stroke-miterlimit="10"/>
        <circle cx="62.125" cy="228.703" r="1.767" fill="url(#radialGradient1596)" stroke="#000" stroke-miterlimit="10"/>
        <circle cx="68.159" cy="231.25" r="1.767" fill="url(#radialGradient1598)" stroke="#000" stroke-miterlimit="10"/>
        <circle cx="74.14" cy="233.794" r="1.767" fill="url(#radialGradient1600)" stroke="#000" stroke-miterlimit="10"/>
        <circle cx="37.25" cy="196.375" r="1.767" fill="url(#radialGradient1602)" stroke="#000" stroke-miterlimit="10"/>
        <circle cx="48.75" cy="63.75" r="1.767" fill="url(#radialGradient1604)" stroke="#000" stroke-miterlimit="10"/>
        <circle cx="54.625" cy="34.375" r="1.767" fill="url(#radialGradient1606)" stroke="#000" stroke-miterlimit="10"/>
        <circle cx="42.375" cy="47.875" r="1.767" fill="url(#radialGradient1608)" stroke="#000" stroke-miterlimit="10"/>
        <circle cx="50.907" cy="43.598" r="1.767" fill="url(#radialGradient1610)" stroke="#000" stroke-miterlimit="10"/>
        <circle cx="48" cy="56.129" r="1.767" fill="url(#radialGradient1612)" stroke="#000" stroke-miterlimit="10"/>
        <circle cx="67.75" cy="72.334" r="1.375" fill="url(#radialGradient1614)" stroke="#000" stroke-miterlimit="10"/>
        <ellipse cx="81.202" cy="94.313" fill="url(#radialGradient1616)" stroke="#000" stroke-miterlimit="10" rx=".548" ry="1.438"/>
        <ellipse cx="87.912" cy="107.737" fill="url(#radialGradient1618)" stroke="#000" stroke-miterlimit="10" rx=".548" ry="1.438" transform="rotate(5.008)"/>
        <ellipse cx="93.374" cy="125.094" fill="url(#radialGradient1620)" stroke="#000" stroke-miterlimit="10" rx=".548" ry="1.437" transform="rotate(8.094)"/>
        <ellipse cx="85.965" cy="150.935" fill="url(#radialGradient1622)" stroke="#000" stroke-miterlimit="10" rx=".548" ry="1.438" transform="rotate(5.319)"/>
        <circle cx="136.965" cy="29.916" r="1.767" fill="url(#radialGradient1624)" stroke="#000" stroke-miterlimit="10"/>
        <circle cx="135.917" cy="39.999" r="1.767" fill="url(#radialGradient1626)" stroke="#000" stroke-miterlimit="10"/>
        <circle cx="136.965" cy="52.415" r="1.767" fill="url(#radialGradient1628)" stroke="#000" stroke-miterlimit="10"/>
        <circle cx="138.732" cy="61.43" r="1.767" fill="url(#radialGradient1630)" stroke="#000" stroke-miterlimit="10"/>
        <circle cx="141" cy="99.944" r="1.767" fill="url(#radialGradient1632)" stroke="#000" stroke-miterlimit="10"/>
        <circle cx="136.75" cy="187.688" r="1.767" fill="url(#radialGradient1634)" stroke="#000" stroke-miterlimit="10"/>
        <circle cx="139.25" cy="225.906" r="1.767" fill="url(#radialGradient1636)" stroke="#000" stroke-miterlimit="10"/>
        <circle cx="150.858" cy="222.288" r="1.767" fill="url(#radialGradient1638)" stroke="#000" stroke-miterlimit="10"/>
        <circle cx="157.491" cy="223.78" r="1.767" fill="url(#radialGradient1640)" stroke="#000" stroke-miterlimit="10"/>
        <circle cx="165.407" cy="225.204" r="1.767" fill="url(#radialGradient1642)" stroke="#000" stroke-miterlimit="10"/>
        <circle cx="171.066" cy="226.937" r="1.767" fill="url(#radialGradient1644)" stroke="#000" stroke-miterlimit="10"/>
        <circle cx="180.167" cy="227.674" r="1.767" fill="url(#radialGradient1646)" stroke="#000" stroke-miterlimit="10"/>
        <circle cx="152.5" cy="150.751" r="1.375" fill="url(#radialGradient1648)" stroke="#000" stroke-miterlimit="10"/>
        <circle cx="152.5" cy="129.501" r="1.375" fill="url(#radialGradient1650)" stroke="#000" stroke-miterlimit="10"/>
        <circle cx="154.499" cy="108.75" r="1.375" fill="url(#radialGradient1652)" stroke="#000" stroke-miterlimit="10"/>
        <circle cx="155.25" cy="87.416" r="1.375" fill="url(#radialGradient1654)" stroke="#000" stroke-miterlimit="10"/>
        <circle cx="157.249" cy="65.938" r="1.375" fill="url(#radialGradient1656)" stroke="#000" stroke-miterlimit="10"/>
        <ellipse cx="170.74" cy="85.791" fill="url(#radialGradient1658)" stroke="#000" stroke-miterlimit="10" rx=".74" ry="1.625"/>
        <ellipse cx="171.132" cy="103.231" fill="url(#radialGradient1660)" stroke="#000" stroke-miterlimit="10" rx=".74" ry="1.624" transform="rotate(1.398)"/>
        <ellipse cx="183.763" cy="101.386" fill="url(#radialGradient1662)" stroke="#000" stroke-miterlimit="10" rx=".74" ry="1.626" transform="rotate(8.952)"/>
        <ellipse cx="188.543" cy="114.748" fill="url(#radialGradient1664)" stroke="#000" stroke-miterlimit="10" rx=".74" ry="1.625" transform="rotate(11.268)"/>
    </g>
</svg>
