<svg xmlns="http://www.w3.org/2000/svg" xmlns:xlink="http://www.w3.org/1999/xlink" viewBox="0 0 256 256">
    <defs>
        <linearGradient id="innoGrad5">
            <stop offset="0" stop-color="#ff2a2a"/>
            <stop offset="1" stop-color="#ff8080" stop-opacity="0"/>
        </linearGradient>
        <linearGradient id="innoGrad3">
            <stop offset="0" stop-color="#ff7f2a" stop-opacity="0"/>
            <stop offset="1" stop-color="#ff7f2a" stop-opacity=".502"/>
        </linearGradient>
        <linearGradient id="innoGrad4">
            <stop offset="0" stop-color="#ffd42a" stop-opacity="0"/>
            <stop offset="1" stop-color="#ffd42a" stop-opacity=".502"/>
        </linearGradient>
        <linearGradient id="innoGrad2">
            <stop offset="0" stop-color="#ffd42a" stop-opacity=".502"/>
            <stop offset="1" stop-color="#ffd42a" stop-opacity="0"/>
        </linearGradient>
        <linearGradient id="innoGrad1">
            <stop offset="0" stop-color="#ff7f2a" stop-opacity=".502"/>
            <stop offset="1" stop-color="#ff7f2a" stop-opacity="0"/>
        </linearGradient>
        <linearGradient id="linearGradient870" x1="49.066" x2="186.331" y1="77.98" y2="77.98" gradientUnits="userSpaceOnUse" xlink:href="#innoGrad1"/>
        <linearGradient id="linearGradient893" x1="70.528" x2="166.576" y1="170.189" y2="170.189" gradientUnits="userSpaceOnUse" xlink:href="#innoGrad3"/>
        <linearGradient id="linearGradient942" x1="50.798" x2="184.439" y1="73.288" y2="73.288" gradientUnits="userSpaceOnUse" xlink:href="#innoGrad2"/>
        <linearGradient id="linearGradient950" x1="66.636" x2="158.972" y1="167.483" y2="167.483" gradientUnits="userSpaceOnUse" xlink:href="#innoGrad4"/>
        <linearGradient id="linearGradient1012" x1="82.232" x2="170.267" y1="92.224" y2="68.223" gradientUnits="userSpaceOnUse" xlink:href="#innoGrad1"/>
        <linearGradient id="linearGradient1020" x1="95.732" x2="156.388" y1="148.311" y2="192.501" gradientUnits="userSpaceOnUse" xlink:href="#innoGrad3"/>
        <linearGradient id="linearGradient1082" x1="148.311" x2="157.989" y1="233.755" y2="233.755" gradientUnits="userSpaceOnUse" xlink:href="#innoGrad5"/>
        <linearGradient id="linearGradient1100" x1="150.738" x2="164.182" y1="224.376" y2="224.376" gradientUnits="userSpaceOnUse" xlink:href="#innoGrad5"/>
        <linearGradient id="linearGradient1108" x1="154.832" x2="172.317" y1="208.706" y2="208.706" gradientUnits="userSpaceOnUse" xlink:href="#innoGrad5"/>
        <linearGradient id="linearGradient1116" x1="155.387" x2="174.795" y1="184.26" y2="184.26" gradientUnits="userSpaceOnUse" xlink:href="#innoGrad5"/>
        <linearGradient id="linearGradient1132" x1="154.985" x2="173.92" y1="179.566" y2="169.833" gradientUnits="userSpaceOnUse" xlink:href="#innoGrad5"/>
        <linearGradient id="linearGradient1140" x1="143.498" x2="159.081" y1="159.333" y2="141.166" gradientUnits="userSpaceOnUse" xlink:href="#innoGrad5"/>
        <linearGradient id="linearGradient1148" x1="120.388" x2="134.915" y1="147.524" y2="119.667" gradientUnits="userSpaceOnUse" xlink:href="#innoGrad5"/>
        <linearGradient id="linearGradient1164" x1="86.793" x2="104.5" y1="144.135" y2="110.834" gradientUnits="userSpaceOnUse" xlink:href="#innoGrad5"/>
        <linearGradient id="linearGradient1172" x1="44.904" x2="77.628" y1="122.509" y2="103.958" gradientUnits="userSpaceOnUse" xlink:href="#innoGrad5"/>
        <linearGradient id="linearGradient1180" x1="43.84" x2="68.087" y1="82.618" y2="97.432" gradientUnits="userSpaceOnUse" xlink:href="#innoGrad5"/>
        <linearGradient id="linearGradient1188" x1="61.197" x2="90.295" y1="70.077" y2="70.077" gradientUnits="userSpaceOnUse" xlink:href="#innoGrad5"/>
        <linearGradient id="linearGradient1196" x1="84.252" x2="113.564" y1="56.379" y2="56.379" gradientUnits="userSpaceOnUse" xlink:href="#innoGrad5"/>
        <linearGradient id="linearGradient1204" x1="110.825" x2="141.756" y1="46.661" y2="46.661" gradientUnits="userSpaceOnUse" xlink:href="#innoGrad5"/>
        <linearGradient id="linearGradient1212" x1="136.893" x2="184.792" y1="38.183" y2="38.183" gradientUnits="userSpaceOnUse" xlink:href="#innoGrad5"/>
        <linearGradient id="linearGradient1235" x1="174.008" x2="186.039" y1="61.428" y2="61.909" gradientUnits="userSpaceOnUse" xlink:href="#innoGrad1"/>
    </defs>
    <g>
        <path fill="#ffb380" d="M183.05 53.804c.505 11.742 2.7 27.071 2.7 27.071s-49.704-2.653-81 16.125c-27.5 16.5 10.125 26.75 10.125 26.75L50 104.775l46.625-48.311 87.174-24.079c0 .001-1.278 9.098-.749 21.419z"/>
        <path fill="url(#linearGradient870)" stroke="#000" stroke-miterlimit="10" d="M183.05 53.804c.505 11.742 2.7 27.071 2.7 27.071s-49.704-2.653-81 16.125c-27.5 16.5 10.125 26.75 10.125 26.75L50 104.775l46.625-48.311 87.174-24.079c0 .001-1.278 9.098-.749 21.419z"/>
        <path fill="#ffb380" d="M71.301 142.688s48.949 5.146 68.824 24.812c18.096 17.905 16.248 44 16.248 44L166 166.75l-87.988-37.335z"/>
        <path fill="url(#linearGradient893)" stroke="#000" stroke-miterlimit="10" d="M71.301 142.688s48.949 5.146 68.824 24.812c18.096 17.905 16.248 44 16.248 44L166 166.75l-87.988-37.335z"/>
        <path fill="#ff7f2a" d="M183.042 79.082c0-.152-11.388.092-21.227.781-16.443 1.152-29.754 3.257-39.409 5.972-8.884 2.493-14.582 5.954-16.961 7.488a49.293 49.293 0 0 0-5.775 4.33 39.499 39.499 0 0 0-3.813 3.81c-1.423 1.64-2.352 3.027-2.667 3.587l1.012.568c-.023.042 1.337-2.016 2.529-3.399a43.176 43.176 0 0 1 3.67-3.745 48.408 48.408 0 0 1 5.572-4.348c2.305-1.548 7.853-5.054 16.625-7.625 9.598-2.806 22.787-5 39.242-6.308 10.383-.826 21.202-1.05 21.202-1.111z"/>
        <path fill="none" stroke="#ff7f2a" stroke-miterlimit="10" stroke-width=".5" d="M93.696 105.334s-7.155-2.122-9.776-3.61c-2.621-1.488-5.001-3.835-5.001-3.835"/>
        <path fill="#ff7f2a" d="M88.594 103.998c-.012.015 2.409-2.917 4.12-4.8a132.245 132.245 0 0 1 4.843-5.05c1.322-1.306 4.88-4.788 9.214-8.015 2.445-1.82 6.327-4.462 10.663-6.137 4.853-1.857 11.204-3.575 19.337-5.04 6.376-1.15 13.391-2.06 20.746-2.751 11.209-1.052 23.298-1.383 23.297-1.453-.002-.184-12.76.19-23.331 1.076-7.362.617-14.412 1.466-20.813 2.556-8.166 1.39-14.583 3.05-19.516 4.868-4.468 1.631-8.48 4.258-10.988 6.051-4.464 3.194-8.128 6.635-9.49 7.936a104.381 104.381 0 0 0-4.95 5.06c-1.736 1.897-4.178 4.856-4.19 4.871z"/>
        <path fill="#ff7f2a" d="M83.04 101.2c-.015.025.54-.9 1.163-1.808a58.645 58.645 0 0 1 1.995-2.724 77.747 77.747 0 0 1 4.648-5.448 76.883 76.883 0 0 1 6.923-6.52c3.08-2.565 9.453-7.516 18.898-11.82 1.87-.86 4.297-1.771 7.363-2.735 2.69-.846 5.824-1.716 9.413-2.61 6.197-1.543 13.4-3.066 21.197-4.536 12.075-2.275 25.852-4.329 25.84-4.417-.021-.156-14.602 1.946-25.926 3.942-7.81 1.377-15.062 2.827-21.285 4.293-3.61.85-6.773 1.683-9.494 2.494-3.1.923-5.584 1.805-7.52 2.647-9.606 4.213-16.185 9.122-19.369 11.66a82.72 82.72 0 0 0-7.217 6.468c-2.08 2.1-3.65 3.921-4.88 5.478-.7.886-1.411 1.837-2.076 2.803a30.435 30.435 0 0 0-1.248 1.937z"/>
    </g>
    <g>
        <path fill="#ffe680" d="M183.875 53.667s-66 10.708-87 24.458c-4.27 2.795-19.914 17.965-18.25 22.125 1.25 3.125 36.25 14.97 36.25 14.97l-63.25-8.97L78.012 63.5 106.514 49l77.361-17.5s-.75 8.375-.75 12.625.75 9.542.75 9.542z"/>
        <g>
            <path fill="none" stroke="#ffd42a" stroke-miterlimit="10" stroke-width=".25" d="M142.345 160.388c-.065 1.642-2.595.413-1.352-.653.518-.44 1.373-.028 1.352.653zm-30.379-13.216c-.065 1.642-2.595.413-1.352-.653.518-.44 1.373-.028 1.352.653zm1.85.355c-.065 1.642-2.595.413-1.352-.653.518-.44 1.373-.028 1.352.653zm10.85 4.777c-.065 1.642-2.595.413-1.352-.653.518-.44 1.373-.028 1.352.653zm-1.666-.316c-.065 1.642-2.595.413-1.352-.653.518-.44 1.373-.028 1.352.653zm-1.166-.49c-.065 1.642-2.595.413-1.352-.653.518-.44 1.373-.028 1.352.653zm25.83 13.749c-.065 1.642-2.595.413-1.352-.653.518-.44 1.373-.028 1.352.653zm-.638-1.074c-.065 1.642-2.595.413-1.352-.653.518-.44 1.373-.028 1.352.653zm-.833-.833c-.065 1.642-2.595.413-1.352-.653.518-.44 1.373-.028 1.352.653zm-.833-1.052c-.065 1.642-2.595.413-1.352-.653.518-.44 1.373-.028 1.352.653zm-.833-.833c-.065 1.642-2.595.413-1.352-.653.518-.44 1.373-.028 1.352.653zm12.223 24.159c-.065 1.642-2.595.413-1.352-.653.518-.44 1.373-.028 1.352.653zm-.157-.833c-.065 1.642-2.595.413-1.352-.653.518-.44 1.373-.028 1.352.653zm0-2.083c-.065 1.642-2.595.413-1.352-.653.518-.44 1.373-.028 1.352.653zm-.773.833c-.065 1.642-2.595.413-1.352-.653.518-.44 1.373-.028 1.352.653zm-.835-3.965c-.065 1.64-2.592.412-1.35-.653.517-.438 1.37-.027 1.35.653zm.774 1.953c-.065 1.64-2.592.412-1.35-.653.517-.438 1.37-.027 1.35.653zm-.466.785c-.065 1.642-2.595.413-1.352-.653.518-.44 1.373-.028 1.352.653zm-.466-1.149c-.065 1.64-2.592.412-1.35-.653.517-.438 1.37-.027 1.35.653zm-.524-1.111c-.065 1.64-2.592.412-1.35-.652.517-.439 1.37-.028 1.35.652zm-.765-1.09c-.065 1.64-2.592.412-1.35-.653.517-.438 1.37-.027 1.35.653zm-7.938-14.125c-.065 1.64-2.592.412-1.35-.653.517-.438 1.37-.027 1.35.653zm.236 1.579c-.065 1.64-2.592.412-1.35-.653.517-.438 1.37-.027 1.35.653zm-.779-.948c-.065 1.64-2.592.412-1.35-.652.517-.439 1.37-.028 1.35.652zm-1.881-4.199c-.065 1.638-2.589.412-1.35-.652.518-.437 1.37-.027 1.35.652zm.685 1.246c-.065 1.64-2.592.412-1.35-.653.517-.438 1.37-.027 1.35.653zm-.798.472c-.498 4.007 3.607-1.174 0 0zm.984 1.612c-.065 1.64-2.592.412-1.35-.653.517-.438 1.37-.027 1.35.653zm-.659-1.022c-.065 1.64-2.592.412-1.35-.653.517-.438 1.37-.027 1.35.653zm-.702-.974c-.065 1.64-2.592.412-1.35-.653.517-.438 1.37-.027 1.35.653zm-.748-.919c-.065 1.64-2.592.412-1.35-.653.517-.438 1.37-.027 1.35.653zm-.964-1.429c-.065 1.64-2.592.412-1.35-.653.517-.438 1.37-.027 1.35.653zm-.078.91c-.065 1.64-2.592.412-1.35-.653.517-.438 1.37-.027 1.35.653zm-.919-.832c-.065 1.64-2.592.412-1.35-.653.517-.438 1.37-.027 1.35.653zm-16.706-12.485c-.065 1.64-2.592.412-1.35-.653.517-.438 1.37-.027 1.35.653zm2.083.266c-.065 1.64-2.592.412-1.35-.653.517-.438 1.37-.027 1.35.653zm.463.788c-.065 1.64-2.592.412-1.35-.653.517-.438 1.37-.027 1.35.653zm-1.231-.148c-.065 1.64-2.592.412-1.35-.653.517-.438 1.37-.027 1.35.653zm-1.225-.078c-.065 1.64-2.592.412-1.35-.653.517-.438 1.37-.027 1.35.653zm-4.351-1.496c-.065 1.64-2.592.412-1.35-.653.517-.438 1.37-.027 1.35.653zm1.378.352c-.065 1.64-2.592.412-1.35-.653.517-.438 1.37-.027 1.35.653zm1.196.208c-.065 1.64-2.592.412-1.35-.653.517-.438 1.37-.027 1.35.653zm.453 1.08c-.065 1.64-2.592.412-1.35-.653.517-.438 1.37-.027 1.35.653zm-1.198-.217c-.065 1.64-2.592.412-1.35-.653.517-.438 1.37-.027 1.35.653zm-1.189-.152c-.065 1.64-2.592.412-1.35-.653.517-.438 1.37-.027 1.35.653zm-1.183-.083c-.065 1.64-2.592.412-1.35-.653.517-.438 1.37-.027 1.35.653zm4.865 1.182c-.065 1.64-2.592.412-1.35-.653.517-.438 1.37-.027 1.35.653zm1.333.498c-.065 1.64-2.592.412-1.35-.653.517-.438 1.37-.027 1.35.653zm1.166.336c-.065 1.64-2.592.412-1.35-.653.517-.438 1.37-.027 1.35.653zm-.833.777c-.065 1.64-2.592.412-1.35-.653.517-.438 1.37-.027 1.35.653zm-1.166-.279c-.065 1.64-2.592.412-1.35-.653.517-.438 1.37-.027 1.35.653zm-1.167-.209c-.065 1.64-2.592.412-1.35-.653.517-.438 1.37-.027 1.35.653zm-3.708-1.332c-.065 1.64-2.592.412-1.35-.653.517-.438 1.37-.027 1.35.653zm2.042.488c-.065 1.64-2.592.412-1.35-.653.517-.438 1.37-.027 1.35.653zm.376.833c-.065 1.64-2.592.412-1.35-.652.517-.439 1.37-.028 1.35.652zm-1.209-.279c-.065 1.64-2.592.412-1.35-.653.517-.438 1.37-.027 1.35.653zm-1.209-.209c-.065 1.64-2.592.412-1.35-.653.517-.438 1.37-.027 1.35.653zm-4.166-1.956c-.065 1.64-2.592.412-1.35-.652.517-.439 1.37-.028 1.35.652zm1.333.498c-.065 1.64-2.592.412-1.35-.653.517-.438 1.37-.027 1.35.653zm1.167.336c-.065 1.64-2.592.412-1.35-.652.517-.439 1.37-.028 1.35.652zm.334 1.122c-.065 1.64-2.592.412-1.35-.653.517-.438 1.37-.027 1.35.653zm-1.167-.345c-.065 1.64-2.592.412-1.35-.653.517-.438 1.37-.027 1.35.653zm-1.167-.279c-.065 1.64-2.592.412-1.35-.652.517-.439 1.37-.028 1.35.652zm-1.166-.209c-.065 1.64-2.592.412-1.35-.653.517-.438 1.37-.027 1.35.653zm-3.428-1.58c-.065 1.64-2.592.412-1.35-.652.517-.439 1.37-.028 1.35.652zm1.988.675c-.065 1.64-2.592.412-1.35-.653.517-.438 1.37-.027 1.35.653zm.297.864c-.065 1.64-2.592.412-1.35-.652.517-.439 1.37-.028 1.35.652zm-1.178-.39c-.065 1.64-2.592.412-1.35-.653.517-.438 1.37-.027 1.35.653zm-1.185-.32c-.065 1.64-2.592.412-1.35-.653.517-.438 1.37-.027 1.35.653zm-16.87-5.082c-.065 1.64-2.592.412-1.35-.653.517-.438 1.37-.027 1.35.653zm2.042.488c-.065 1.64-2.592.412-1.35-.652.517-.439 1.37-.028 1.35.652zm.375.833c-.065 1.64-2.592.412-1.35-.653.517-.438 1.37-.027 1.35.653zm-1.208-.279c-.065 1.64-2.592.412-1.35-.652.517-.439 1.37-.028 1.35.652zm-1.209-.209c-.065 1.64-2.592.412-1.35-.653.517-.438 1.37-.027 1.35.653zm-4.166-1.956c-.065 1.64-2.592.412-1.35-.653.517-.438 1.37-.027 1.35.653zm1.333.498c-.065 1.64-2.592.412-1.35-.653.517-.438 1.37-.027 1.35.653zm1.167.336c-.065 1.64-2.592.412-1.35-.653.517-.438 1.37-.027 1.35.653zm.333 1.122c-.065 1.64-2.592.412-1.35-.653.517-.438 1.37-.027 1.35.653zm-1.166-.345c-.065 1.64-2.592.412-1.35-.652.517-.439 1.37-.028 1.35.652zm-1.167-.279c-.065 1.64-2.592.412-1.35-.653.517-.438 1.37-.027 1.35.653zm-1.167-.209c-.065 1.64-2.592.412-1.35-.653.517-.438 1.37-.027 1.35.653zm85.166-104.75c-.065 1.64-2.592.412-1.35-.653.517-.438 1.37-.027 1.35.653zm-1.246.312c-.065 1.64-2.592.412-1.35-.653.517-.438 1.37-.027 1.35.653zm-1.17.208c-.065 1.64-2.592.412-1.35-.653.517-.438 1.37-.027 1.35.653zm-1.31.146c-.065 1.64-2.592.412-1.35-.653.517-.438 1.37-.027 1.35.653zm-1.19.375c-.065 1.64-2.592.412-1.35-.653.517-.438 1.37-.027 1.35.653zm-1.288.229c-.065 1.64-2.592.412-1.35-.653.517-.438 1.37-.027 1.35.653zM91.481 61.521c-.065 1.64-2.592.412-1.35-.653.517-.438 1.37-.027 1.35.653zm.208 1.33c-.065 1.64-2.592.412-1.35-.653.517-.438 1.37-.027 1.35.653zm.167 1.289c-.065 1.64-2.592.412-1.35-.653.517-.438 1.37-.027 1.35.653zm.167 1.336c-.065 1.64-2.592.412-1.35-.653.517-.438 1.37-.027 1.35.653zm-1.438-1.705c-.065 1.64-2.592.412-1.35-.653.517-.438 1.37-.027 1.35.653zm.167 1.289c-.065 1.64-2.592.412-1.35-.653.517-.438 1.37-.027 1.35.653zm.167 1.336c-.065 1.64-2.592.412-1.35-.653.517-.438 1.37-.027 1.35.653zm-1.646-3.229c-.065 1.64-2.592.412-1.35-.653.517-.438 1.37-.027 1.35.653zm.208 1.33c-.065 1.64-2.592.412-1.35-.653.517-.438 1.37-.027 1.35.653zm.167 1.289c-.065 1.64-2.592.412-1.35-.653.517-.438 1.37-.027 1.35.653zm.167 1.336c-.065 1.64-2.592.412-1.35-.653.517-.438 1.37-.027 1.35.653zm-1.438-1.625c-.065 1.64-2.592.412-1.35-.653.517-.438 1.37-.027 1.35.653zm.167 1.29c-.065 1.64-2.592.412-1.35-.653.517-.438 1.37-.027 1.35.653zm.167 1.335c-.065 1.64-2.592.412-1.35-.653.517-.438 1.37-.027 1.35.653zm-1.646-2.829c-.065 1.64-2.592.412-1.35-.653.517-.438 1.37-.027 1.35.653zm.208 1.33c-.065 1.64-2.592.412-1.35-.653.517-.438 1.37-.027 1.35.653zm.167 1.29c-.065 1.64-2.592.412-1.35-.653.517-.438 1.37-.027 1.35.653zm.167 1.335c-.065 1.64-2.592.412-1.35-.653.517-.438 1.37-.027 1.35.653zm-1.438-1.167c-.065 1.64-2.592.412-1.35-.653.517-.438 1.37-.027 1.35.653zm.167 1.289c-.065 1.64-2.592.412-1.35-.653.517-.438 1.37-.027 1.35.653zm.167 1.336c-.065 1.64-2.592.412-1.35-.653.517-.438 1.37-.027 1.35.653zm-1.542-1.629c-.065 1.64-2.592.412-1.35-.653.517-.438 1.37-.027 1.35.653zm.167 1.289c-.065 1.64-2.592.412-1.35-.653.517-.438 1.37-.027 1.35.653zm.167 1.336c-.065 1.64-2.592.412-1.35-.653.517-.438 1.37-.027 1.35.653zm-1.334-1.784c-.065 1.64-2.592.412-1.35-.653.517-.438 1.37-.027 1.35.653zm.167 1.29c-.065 1.64-2.592.412-1.35-.653.517-.438 1.37-.027 1.35.653zm.167 1.335c-.065 1.64-2.592.412-1.35-.653.517-.438 1.37-.027 1.35.653zm-1.334-1.462c-.065 1.64-2.592.412-1.35-.653.517-.438 1.37-.027 1.35.653zm.167 1.289c-.065 1.64-2.592.412-1.35-.653.517-.438 1.37-.027 1.35.653zm.167 1.336c-.065 1.64-2.592.412-1.35-.653.517-.438 1.37-.027 1.35.653zm-1.126-1.477c-.065 1.64-2.592.412-1.35-.653.517-.438 1.37-.027 1.35.653zm.167 1.29c-.065 1.64-2.592.412-1.35-.653.517-.438 1.37-.027 1.35.653zm.167 1.335c-.065 1.64-2.592.412-1.35-.653.517-.438 1.37-.027 1.35.653zm-1.376-1.423c-.065 1.64-2.592.412-1.35-.653.517-.438 1.37-.027 1.35.653zm.167 1.289c-.065 1.64-2.592.412-1.35-.653.517-.438 1.37-.027 1.35.653zm.167 1.336c-.065 1.64-2.592.412-1.35-.653.517-.438 1.37-.027 1.35.653zm-5.854 9.025c-.065 1.64-2.592.412-1.35-.653.517-.438 1.37-.027 1.35.653zm-1.438-2.272c-.065 1.64-2.592.412-1.35-.653.517-.438 1.37-.027 1.35.653zm.167 1.29c-.065 1.64-2.592.412-1.35-.653.517-.438 1.37-.027 1.35.653zm.167 1.335c-.065 1.64-2.592.412-1.35-.653.517-.438 1.37-.027 1.35.653zm-1.646-3.891c-.065 1.64-2.592.412-1.35-.653.517-.438 1.37-.027 1.35.653zm.208 1.33c-.065 1.64-2.592.412-1.35-.653.517-.438 1.37-.027 1.35.653zm.167 1.29c-.065 1.64-2.592.412-1.35-.653.517-.438 1.37-.027 1.35.653zm.167 1.335c-.065 1.64-2.592.412-1.35-.653.517-.438 1.37-.027 1.35.653zm-1.729-2.583c-.065 1.64-2.592.412-1.35-.653.517-.438 1.37-.027 1.35.653zm.167 1.289c-.065 1.64-2.592.412-1.35-.653.517-.438 1.37-.027 1.35.653zm.167 1.336c-.065 1.64-2.592.412-1.35-.653.517-.438 1.37-.027 1.35.653zm-1.271-1.523c-.065 1.64-2.592.412-1.35-.653.517-.438 1.37-.027 1.35.653zm.167 1.335c-.065 1.64-2.592.412-1.35-.653.517-.438 1.37-.027 1.35.653zm4.54 25.956c-.065 1.64-2.592.412-1.35-.653.517-.438 1.37-.027 1.35.653zm0-1.354c-.065 1.64-2.592.412-1.35-.653.517-.438 1.37-.027 1.35.653zm0-1.208c-.065 1.64-2.592.412-1.35-.653.517-.438 1.37-.027 1.35.653zm0-1.334c-.065 1.64-2.592.412-1.35-.653.517-.438 1.37-.027 1.35.653zm0-1.291c-.065 1.64-2.592.412-1.35-.653.517-.438 1.37-.027 1.35.653zm0-1.209c-.065 1.64-2.592.412-1.35-.653.517-.438 1.37-.027 1.35.653zm0-1.499c-.065 1.64-2.592.412-1.35-.653.517-.438 1.37-.027 1.35.653zm0-1.292c-.065 1.64-2.592.412-1.35-.653.517-.438 1.37-.027 1.35.653zm.937 10.28c-.065 1.64-2.592.412-1.35-.653.517-.438 1.37-.027 1.35.653zm0-1.359c-.065 1.64-2.592.412-1.35-.653.517-.438 1.37-.027 1.35.653zm0-1.354c-.065 1.64-2.592.412-1.35-.653.517-.438 1.37-.027 1.35.653zm0-1.208c-.065 1.64-2.592.412-1.35-.653.517-.438 1.37-.027 1.35.653zm0-1.334c-.065 1.64-2.592.412-1.35-.653.517-.438 1.37-.027 1.35.653zm0-1.291c-.065 1.64-2.592.412-1.35-.653.517-.438 1.37-.027 1.35.653zm0-1.208c-.065 1.64-2.592.412-1.35-.653.517-.438 1.37-.027 1.35.653zm0-1.5c-.065 1.64-2.592.412-1.35-.653.517-.438 1.37-.027 1.35.653zm0-1.292c-.065 1.64-2.592.412-1.35-.653.517-.438 1.37-.027 1.35.653zm1.251 9.857c-.065 1.64-2.592.412-1.35-.653.517-.438 1.37-.027 1.35.653zm.208 1.33c-.065 1.64-2.592.412-1.35-.653.517-.438 1.37-.027 1.35.653zm-.208-2.688c-.065 1.64-2.592.412-1.35-.653.517-.438 1.37-.027 1.35.653zm0-1.354c-.065 1.64-2.592.412-1.35-.653.517-.438 1.37-.027 1.35.653zm0-1.208c-.065 1.64-2.592.412-1.35-.653.517-.438 1.37-.027 1.35.653zm0-1.334c-.065 1.64-2.592.412-1.35-.653.517-.438 1.37-.027 1.35.653zm0-1.291c-.065 1.64-2.592.412-1.35-.653.517-.438 1.37-.027 1.35.653zm0-1.209c-.065 1.64-2.592.412-1.35-.653.517-.438 1.37-.027 1.35.653zm0-1.499c-.065 1.64-2.592.412-1.35-.653.517-.438 1.37-.027 1.35.653zm0-1.292c-.065 1.64-2.592.412-1.35-.653.517-.438 1.37-.027 1.35.653zm8.561 14.378c-.065 1.64-2.592.412-1.35-.653.517-.438 1.37-.027 1.35.653zm0-1.358c-.065 1.64-2.592.412-1.35-.653.517-.438 1.37-.027 1.35.653zm0-1.354c-.065 1.64-2.592.412-1.35-.653.517-.438 1.37-.027 1.35.653zm0-1.208c-.065 1.64-2.592.412-1.35-.653.517-.438 1.37-.027 1.35.653zm0-1.334c-.065 1.64-2.592.412-1.35-.653.517-.438 1.37-.027 1.35.653zm0-1.291c-.065 1.64-2.592.412-1.35-.653.517-.438 1.37-.027 1.35.653zm0-1.208c-.065 1.64-2.592.412-1.35-.653.517-.438 1.37-.027 1.35.653zm0-1.5c-.065 1.64-2.592.412-1.35-.653.517-.438 1.37-.027 1.35.653zm0-1.292c-.065 1.64-2.592.412-1.35-.653.517-.438 1.37-.027 1.35.653zm-.937 10.089c-.065 1.64-2.592.412-1.35-.653.517-.438 1.37-.027 1.35.653zm0-1.359c-.065 1.64-2.592.412-1.35-.653.517-.438 1.37-.027 1.35.653zm0-1.354c-.065 1.64-2.592.412-1.35-.653.517-.438 1.37-.027 1.35.653zm0-1.208c-.065 1.64-2.592.412-1.35-.653.517-.438 1.37-.027 1.35.653zm0-1.334c-.065 1.64-2.592.412-1.35-.653.517-.438 1.37-.027 1.35.653zm0-1.291c-.065 1.64-2.592.412-1.35-.653.517-.438 1.37-.027 1.35.653zm0-1.208c-.065 1.64-2.592.412-1.35-.653.517-.438 1.37-.027 1.35.653zm0-1.5c-.065 1.64-2.592.412-1.35-.653.517-.438 1.37-.027 1.35.653zm0-1.292c-.065 1.64-2.592.412-1.35-.653.517-.438 1.37-.027 1.35.653zm-1.167 10.002c-.065 1.64-2.592.412-1.35-.653.517-.438 1.37-.027 1.35.653zm0-1.358c-.065 1.64-2.592.412-1.35-.653.517-.438 1.37-.027 1.35.653zm0-1.354c-.065 1.64-2.592.412-1.35-.653.517-.438 1.37-.027 1.35.653zm0-1.208c-.065 1.64-2.592.412-1.35-.653.517-.438 1.37-.027 1.35.653zm0-1.334c-.065 1.64-2.592.412-1.35-.653.517-.438 1.37-.027 1.35.653zm0-1.291c-.065 1.64-2.592.412-1.35-.653.517-.438 1.37-.027 1.35.653zm0-1.208c-.065 1.64-2.592.412-1.35-.653.517-.438 1.37-.027 1.35.653zm0-1.5c-.065 1.64-2.592.412-1.35-.653.517-.438 1.37-.027 1.35.653zm0-1.292c-.065 1.64-2.592.412-1.35-.653.517-.438 1.37-.027 1.35.653zm-.937 10.129c-.065 1.64-2.592.412-1.35-.653.517-.438 1.37-.027 1.35.653zm0-1.358c-.065 1.64-2.592.412-1.35-.653.517-.438 1.37-.027 1.35.653zm0-1.354c-.065 1.64-2.592.412-1.35-.653.517-.438 1.37-.027 1.35.653zm0-1.209c-.065 1.64-2.592.412-1.35-.653.517-.438 1.37-.027 1.35.653zm0-1.333c-.065 1.64-2.592.412-1.35-.653.517-.438 1.37-.027 1.35.653zm0-1.292c-.065 1.64-2.592.412-1.35-.653.517-.438 1.37-.027 1.35.653zm0-1.208c-.065 1.64-2.592.412-1.35-.653.517-.438 1.37-.027 1.35.653zm0-1.5c-.065 1.64-2.592.412-1.35-.653.517-.438 1.37-.027 1.35.653zm0-1.292c-.065 1.64-2.592.412-1.35-.653.517-.438 1.37-.027 1.35.653zm-.896 9.916c-.065 1.64-2.592.412-1.35-.653.517-.438 1.37-.027 1.35.653zm0-1.358c-.065 1.64-2.592.412-1.35-.653.517-.438 1.37-.027 1.35.653zm0-1.354c-.065 1.64-2.592.412-1.35-.653.517-.438 1.37-.027 1.35.653zm0-1.208c-.065 1.64-2.592.412-1.35-.653.517-.438 1.37-.027 1.35.653zm0-1.334c-.065 1.64-2.592.412-1.35-.653.517-.438 1.37-.027 1.35.653zm0-1.291c-.065 1.64-2.592.412-1.35-.653.517-.438 1.37-.027 1.35.653zm0-1.209c-.065 1.64-2.592.412-1.35-.653.517-.438 1.37-.027 1.35.653zm0-1.499c-.065 1.64-2.592.412-1.35-.653.517-.438 1.37-.027 1.35.653zm0-1.292c-.065 1.64-2.592.412-1.35-.653.517-.438 1.37-.027 1.35.653zm-1.187 9.759c-.065 1.64-2.592.412-1.35-.653.517-.438 1.37-.027 1.35.653zm.208 1.329c-.065 1.64-2.592.412-1.35-.653.517-.438 1.37-.027 1.35.653zm-.208-2.688c-.065 1.64-2.592.412-1.35-.653.517-.438 1.37-.027 1.35.653zm0-1.354c-.065 1.64-2.592.412-1.35-.653.517-.438 1.37-.027 1.35.653zm0-1.208c-.065 1.64-2.592.412-1.35-.653.517-.438 1.37-.027 1.35.653zm0-1.334c-.065 1.64-2.592.412-1.35-.653.517-.438 1.37-.027 1.35.653zm0-1.291c-.065 1.64-2.592.412-1.35-.653.517-.438 1.37-.027 1.35.653zm0-1.208c-.065 1.64-2.592.412-1.35-.653.517-.438 1.37-.027 1.35.653zm0-1.5c-.065 1.64-2.592.412-1.35-.653.517-.438 1.37-.027 1.35.653zm0-1.292c-.065 1.64-2.592.412-1.35-.653.517-.438 1.37-.027 1.35.653zm-1.209 9.916c-.065 1.64-2.592.412-1.35-.653.517-.438 1.37-.027 1.35.653zm.208 1.33c-.065 1.64-2.592.412-1.35-.653.517-.438 1.37-.027 1.35.653zm-.208-2.688c-.065 1.64-2.592.412-1.35-.653.517-.438 1.37-.027 1.35.653zm0-1.354c-.065 1.64-2.592.412-1.35-.653.517-.438 1.37-.027 1.35.653zm0-1.208c-.065 1.64-2.592.412-1.35-.653.517-.438 1.37-.027 1.35.653zm0-1.334c-.065 1.64-2.592.412-1.35-.653.517-.438 1.37-.027 1.35.653zm0-1.291c-.065 1.64-2.592.412-1.35-.653.517-.438 1.37-.027 1.35.653zm0-1.209c-.065 1.64-2.592.412-1.35-.653.517-.438 1.37-.027 1.35.653zm0-1.499c-.065 1.64-2.592.412-1.35-.653.517-.438 1.37-.027 1.35.653zm0-1.292c-.065 1.64-2.592.412-1.35-.653.517-.438 1.37-.027 1.35.653zm-1.104 9.759c-.065 1.64-2.592.412-1.35-.653.517-.438 1.37-.027 1.35.653zm.208 1.329c-.065 1.64-2.592.412-1.35-.653.517-.438 1.37-.027 1.35.653zm-.208-2.688c-.065 1.64-2.592.412-1.35-.653.517-.438 1.37-.027 1.35.653zm0-1.354c-.065 1.64-2.592.412-1.35-.653.517-.438 1.37-.027 1.35.653zm0-1.208c-.065 1.64-2.592.412-1.35-.653.517-.438 1.37-.027 1.35.653zm0-1.334c-.065 1.64-2.592.412-1.35-.653.517-.438 1.37-.027 1.35.653zm0-1.291c-.065 1.64-2.592.412-1.35-.653.517-.438 1.37-.027 1.35.653zm0-1.208c-.065 1.64-2.592.412-1.35-.653.517-.438 1.37-.027 1.35.653zm0-1.5c-.065 1.64-2.592.412-1.35-.653.517-.438 1.37-.027 1.35.653zm0-1.292c-.065 1.64-2.592.412-1.35-.653.517-.438 1.37-.027 1.35.653zM66.504 96.75c-.065 1.64-2.592.412-1.35-.653.517-.438 1.37-.027 1.35.653zm.208 1.33c-.065 1.64-2.592.412-1.35-.653.517-.438 1.37-.027 1.35.653zm.167 1.29c-.065 1.64-2.592.412-1.35-.653.517-.438 1.37-.027 1.35.653zm.167 1.335c-.065 1.64-2.592.412-1.35-.653.517-.438 1.37-.027 1.35.653zm-.542-5.313c-.065 1.64-2.592.412-1.35-.653.517-.438 1.37-.027 1.35.653zm0-1.354c-.065 1.64-2.592.412-1.35-.653.517-.438 1.37-.027 1.35.653zm0-1.208c-.065 1.64-2.592.412-1.35-.653.517-.438 1.37-.027 1.35.653zm0-1.334c-.065 1.64-2.592.412-1.35-.653.517-.438 1.37-.027 1.35.653zm0-1.291c-.065 1.64-2.592.412-1.35-.653.517-.438 1.37-.027 1.35.653zm0-1.208c-.065 1.64-2.592.412-1.35-.653.517-.438 1.37-.027 1.35.653zm1.375 7.106c-.065 1.64-2.592.412-1.35-.653.517-.438 1.37-.027 1.35.653zm.208 1.329c-.065 1.64-2.592.412-1.35-.653.517-.438 1.37-.027 1.35.653zm.167 1.29c-.065 1.64-2.592.412-1.35-.653.517-.438 1.37-.027 1.35.653zm.167 1.335c-.065 1.64-2.592.412-1.35-.653.517-.438 1.37-.027 1.35.653zm-.542-5.313c-.065 1.64-2.592.412-1.35-.653.517-.438 1.37-.027 1.35.653zm0-1.354c-.065 1.64-2.592.412-1.35-.653.517-.438 1.37-.027 1.35.653zm0-1.208c-.065 1.64-2.592.412-1.35-.653.517-.438 1.37-.027 1.35.653zm0-1.334c-.065 1.64-2.592.412-1.35-.653.517-.438 1.37-.027 1.35.653zm0-1.291c-.065 1.64-2.592.412-1.35-.653.517-.438 1.37-.027 1.35.653zm0-1.208c-.065 1.64-2.592.412-1.35-.653.517-.438 1.37-.027 1.35.653zm0-1.5c-.065 1.64-2.592.412-1.35-.653.517-.438 1.37-.027 1.35.653zm1.104 8.589c-.065 1.64-2.592.412-1.35-.653.517-.438 1.37-.027 1.35.653zm.208 1.33c-.065 1.64-2.592.412-1.35-.653.517-.438 1.37-.027 1.35.653zm.167 1.29c-.065 1.64-2.592.412-1.35-.653.517-.438 1.37-.027 1.35.653zm.167 1.335c-.065 1.64-2.592.412-1.35-.653.517-.438 1.37-.027 1.35.653zm-.542-5.313c-.065 1.64-2.592.412-1.35-.653.517-.438 1.37-.027 1.35.653zm0-1.354c-.065 1.64-2.592.412-1.35-.653.517-.438 1.37-.027 1.35.653zm0-1.208c-.065 1.64-2.592.412-1.35-.653.517-.438 1.37-.027 1.35.653zm0-1.334c-.065 1.64-2.592.412-1.35-.653.517-.438 1.37-.027 1.35.653zm0-1.291c-.065 1.64-2.592.412-1.35-.653.517-.438 1.37-.027 1.35.653zm0-1.208c-.065 1.64-2.592.412-1.35-.653.517-.438 1.37-.027 1.35.653zm0-1.5c-.065 1.64-2.592.412-1.35-.653.517-.438 1.37-.027 1.35.653zm1.104 10.941c-.065 1.64-2.592.412-1.35-.653.517-.438 1.37-.027 1.35.653zm.208 1.33c-.065 1.64-2.592.412-1.35-.653.517-.438 1.37-.027 1.35.653zm.167 1.29c-.065 1.64-2.592.412-1.35-.653.517-.438 1.37-.027 1.35.653zm.167 1.335c-.065 1.64-2.592.412-1.35-.653.517-.438 1.37-.027 1.35.653zm-.542-5.313c-.065 1.64-2.592.412-1.35-.653.517-.438 1.37-.027 1.35.653zm0-1.354c-.065 1.64-2.592.412-1.35-.653.517-.438 1.37-.027 1.35.653zm0-1.208c-.065 1.64-2.592.412-1.35-.653.517-.438 1.37-.027 1.35.653zm0-1.334c-.065 1.64-2.592.412-1.35-.653.517-.438 1.37-.027 1.35.653zm0-1.291c-.065 1.64-2.592.412-1.35-.653.517-.438 1.37-.027 1.35.653zm0-1.208c-.065 1.64-2.592.412-1.35-.653.517-.438 1.37-.027 1.35.653zm0-1.5c-.065 1.64-2.592.412-1.35-.653.517-.438 1.37-.027 1.35.653zm0-1.292c-.065 1.64-2.592.412-1.35-.653.517-.438 1.37-.027 1.35.653zm1.104 10.564c-.065 1.64-2.592.412-1.35-.653.517-.438 1.37-.027 1.35.653zm.208 1.329c-.065 1.64-2.592.412-1.35-.653.517-.438 1.37-.027 1.35.653zm.167 1.29c-.065 1.64-2.592.412-1.35-.653.517-.438 1.37-.027 1.35.653zm.167 1.335c-.065 1.64-2.592.412-1.35-.653.517-.438 1.37-.027 1.35.653zm-.542-5.313c-.065 1.64-2.592.412-1.35-.653.517-.438 1.37-.027 1.35.653zm0-1.354c-.065 1.64-2.592.412-1.35-.653.517-.438 1.37-.027 1.35.653zm0-1.208c-.065 1.64-2.592.412-1.35-.653.517-.438 1.37-.027 1.35.653zm0-1.334c-.065 1.64-2.592.412-1.35-.653.517-.438 1.37-.027 1.35.653zm0-1.291c-.065 1.64-2.592.412-1.35-.653.517-.438 1.37-.027 1.35.653zm0-1.208c-.065 1.64-2.592.412-1.35-.653.517-.438 1.37-.027 1.35.653zm0-1.5c-.065 1.64-2.592.412-1.35-.653.517-.438 1.37-.027 1.35.653zm0-1.292c-.065 1.64-2.592.412-1.35-.653.517-.438 1.37-.027 1.35.653zm1.104 10.608c-.065 1.64-2.592.412-1.35-.653.517-.438 1.37-.027 1.35.653zm.208 1.329c-.065 1.64-2.592.412-1.35-.653.517-.438 1.37-.027 1.35.653zm.167 1.29c-.065 1.64-2.592.412-1.35-.653.517-.438 1.37-.027 1.35.653zm.167 1.335c-.065 1.64-2.592.412-1.35-.653.517-.438 1.37-.027 1.35.653zm-.542-5.313c-.065 1.64-2.592.412-1.35-.653.517-.438 1.37-.027 1.35.653zm0-1.354c-.065 1.64-2.592.412-1.35-.653.517-.438 1.37-.027 1.35.653zm0-1.208c-.065 1.64-2.592.412-1.35-.653.517-.438 1.37-.027 1.35.653zm0-1.334c-.065 1.64-2.592.412-1.35-.653.517-.438 1.37-.027 1.35.653zm0-1.291c-.065 1.64-2.592.412-1.35-.653.517-.438 1.37-.027 1.35.653zm0-1.208c-.065 1.64-2.592.412-1.35-.653.517-.438 1.37-.027 1.35.653zm0-1.5c-.065 1.64-2.592.412-1.35-.653.517-.438 1.37-.027 1.35.653zm0-1.292c-.065 1.64-2.592.412-1.35-.653.517-.438 1.37-.027 1.35.653zm1.104 10.484c-.065 1.64-2.592.412-1.35-.653.517-.438 1.37-.027 1.35.653zm.208 1.329c-.065 1.64-2.592.412-1.35-.653.517-.438 1.37-.027 1.35.653zm.167 1.29c-.065 1.64-2.592.412-1.35-.653.517-.438 1.37-.027 1.35.653zm.167 1.335c-.065 1.64-2.592.412-1.35-.653.517-.438 1.37-.027 1.35.653zm-.542-5.313c-.065 1.64-2.592.412-1.35-.653.517-.438 1.37-.027 1.35.653zm0-1.354c-.065 1.64-2.592.412-1.35-.653.517-.438 1.37-.027 1.35.653zm0-1.208c-.065 1.64-2.592.412-1.35-.653.517-.438 1.37-.027 1.35.653zm0-1.334c-.065 1.64-2.592.412-1.35-.653.517-.438 1.37-.027 1.35.653zm0-1.291c-.065 1.64-2.592.412-1.35-.653.517-.438 1.37-.027 1.35.653zm0-1.208c-.065 1.64-2.592.412-1.35-.653.517-.438 1.37-.027 1.35.653zm0-1.5c-.065 1.64-2.592.412-1.35-.653.517-.438 1.37-.027 1.35.653zm0-1.292c-.065 1.64-2.592.412-1.35-.653.517-.438 1.37-.027 1.35.653zm1.104 10.337c-.065 1.64-2.592.412-1.35-.653.517-.438 1.37-.027 1.35.653zm.208 1.33c-.065 1.64-2.592.412-1.35-.653.517-.438 1.37-.027 1.35.653zm.167 1.289c-.065 1.64-2.592.412-1.35-.653.517-.438 1.37-.027 1.35.653zm.167 1.336c-.065 1.64-2.592.412-1.35-.653.517-.438 1.37-.027 1.35.653zm-.542-5.313c-.065 1.64-2.592.412-1.35-.653.517-.438 1.37-.027 1.35.653zm0-1.354c-.065 1.64-2.592.412-1.35-.653.517-.438 1.37-.027 1.35.653zm0-1.208c-.065 1.64-2.592.412-1.35-.653.517-.438 1.37-.027 1.35.653zm0-1.334c-.065 1.64-2.592.412-1.35-.653.517-.438 1.37-.027 1.35.653zm0-1.291c-.065 1.64-2.592.412-1.35-.653.517-.438 1.37-.027 1.35.653zm0-1.209c-.065 1.64-2.592.412-1.35-.653.517-.438 1.37-.027 1.35.653zm0-1.499c-.065 1.64-2.592.412-1.35-.653.517-.438 1.37-.027 1.35.653zm0-1.292c-.065 1.64-2.592.412-1.35-.653.517-.438 1.37-.027 1.35.653zm1.104 10.406c-.065 1.64-2.592.412-1.35-.653.517-.438 1.37-.027 1.35.653zm.208 1.329c-.065 1.64-2.592.412-1.35-.653.517-.438 1.37-.027 1.35.653zm.167 1.29c-.065 1.64-2.592.412-1.35-.653.517-.438 1.37-.027 1.35.653zm.167 1.335c-.065 1.64-2.592.412-1.35-.653.517-.438 1.37-.027 1.35.653zm-.542-5.313c-.065 1.64-2.592.412-1.35-.653.517-.438 1.37-.027 1.35.653zm0-1.354c-.065 1.64-2.592.412-1.35-.653.517-.438 1.37-.027 1.35.653zm0-1.208c-.065 1.64-2.592.412-1.35-.653.517-.438 1.37-.027 1.35.653zm0-1.334c-.065 1.64-2.592.412-1.35-.653.517-.438 1.37-.027 1.35.653zm0-1.291c-.065 1.64-2.592.412-1.35-.653.517-.438 1.37-.027 1.35.653zm0-1.208c-.065 1.64-2.592.412-1.35-.653.517-.438 1.37-.027 1.35.653zm0-1.5c-.065 1.64-2.592.412-1.35-.653.517-.438 1.37-.027 1.35.653zm0-1.292c-.065 1.64-2.592.412-1.35-.653.517-.438 1.37-.027 1.35.653zm1.104 10.003c-.065 1.64-2.592.412-1.35-.653.517-.438 1.37-.027 1.35.653zm.208 1.329c-.065 1.64-2.592.412-1.35-.653.517-.438 1.37-.027 1.35.653zm.167 1.29c-.065 1.64-2.592.412-1.35-.653.517-.438 1.37-.027 1.35.653zm.167 1.335c-.065 1.64-2.592.412-1.35-.653.517-.438 1.37-.027 1.35.653zm-.542-5.312c-.065 1.64-2.592.412-1.35-.653.517-.438 1.37-.027 1.35.653zm0-1.354c-.065 1.64-2.592.412-1.35-.653.517-.438 1.37-.027 1.35.653zm0-1.209c-.065 1.64-2.592.412-1.35-.653.517-.438 1.37-.027 1.35.653zm0-1.333c-.065 1.64-2.592.412-1.35-.653.517-.438 1.37-.027 1.35.653zm0-1.292c-.065 1.64-2.592.412-1.35-.653.517-.438 1.37-.027 1.35.653zm0-1.208c-.065 1.64-2.592.412-1.35-.653.517-.438 1.37-.027 1.35.653zm0-1.5c-.065 1.64-2.592.412-1.35-.653.517-.438 1.37-.027 1.35.653zm0-1.292c-.065 1.64-2.592.412-1.35-.653.517-.438 1.37-.027 1.35.653zm1.312 11.141c-.065 1.64-2.592.412-1.35-.653.517-.438 1.37-.027 1.35.653zm.167 1.29c-.065 1.64-2.592.412-1.35-.653.517-.438 1.37-.027 1.35.653zm.167 1.335c-.065 1.64-2.592.412-1.35-.653.517-.438 1.37-.027 1.35.653zm-.167-5.932c-.065 1.64-2.592.412-1.35-.653.517-.438 1.37-.027 1.35.653zm.208 1.33c-.065 1.64-2.592.412-1.35-.653.517-.438 1.37-.027 1.35.653zm.167 1.289c-.065 1.64-2.592.412-1.35-.653.517-.438 1.37-.027 1.35.653zm.167 1.336c-.065 1.64-2.592.412-1.35-.653.517-.438 1.37-.027 1.35.653zm-.542-5.313c-.065 1.64-2.592.412-1.35-.653.517-.438 1.37-.027 1.35.653zm0-1.354c-.065 1.64-2.592.412-1.35-.653.517-.438 1.37-.027 1.35.653zm0-1.208c-.065 1.64-2.592.412-1.35-.653.517-.438 1.37-.027 1.35.653zm0-1.334c-.065 1.64-2.592.412-1.35-.653.517-.438 1.37-.027 1.35.653zm.729 3.837c-.065 1.64-2.592.412-1.35-.653.517-.438 1.37-.027 1.35.653zm.208 1.33c-.065 1.64-2.592.412-1.35-.653.517-.438 1.37-.027 1.35.653zm.167 1.29c-.065 1.64-2.592.412-1.35-.653.517-.438 1.37-.027 1.35.653zm.167 1.335c-.065 1.64-2.592.412-1.35-.653.517-.438 1.37-.027 1.35.653zm-.542-5.313c-.065 1.64-2.592.412-1.35-.653.517-.438 1.37-.027 1.35.653zm0-1.354c-.065 1.64-2.592.412-1.35-.653.517-.438 1.37-.027 1.35.653zm0-1.208c-.065 1.64-2.592.412-1.35-.653.517-.438 1.37-.027 1.35.653zm.729 2.504c-.065 1.64-2.592.412-1.35-.653.517-.438 1.37-.027 1.35.653zm.208 1.33c-.065 1.64-2.592.412-1.35-.653.517-.438 1.37-.027 1.35.653zm.167 1.29c-.065 1.64-2.592.412-1.35-.653.517-.438 1.37-.027 1.35.653zm.167 1.335c-.065 1.64-2.592.412-1.35-.653.517-.438 1.37-.027 1.35.653zm-.542-5.313c-.065 1.64-2.592.412-1.35-.653.517-.438 1.37-.027 1.35.653zm1.104 1.538c-.065 1.64-2.592.412-1.35-.653.517-.438 1.37-.027 1.35.653zm.167 1.289c-.065 1.64-2.592.412-1.35-.653.517-.438 1.37-.027 1.35.653zm.167 1.336c-.065 1.64-2.592.412-1.35-.653.517-.438 1.37-.027 1.35.653zm1.146-1.29c-.065 1.64-2.592.412-1.35-.653.517-.438 1.37-.027 1.35.653zm.354-14.476c-.065 1.64-2.592.412-1.35-.653.517-.438 1.37-.027 1.35.653zm0-1.292c-.065 1.64-2.592.412-1.35-.653.517-.438 1.37-.027 1.35.653zm.896 1.727c-.065 1.64-2.592.412-1.35-.653.517-.438 1.37-.027 1.35.653zm0-1.499c-.065 1.64-2.592.412-1.35-.653.517-.438 1.37-.027 1.35.653zm0-1.292c-.065 1.64-2.592.412-1.35-.653.517-.438 1.37-.027 1.35.653zm1 4.001c-.065 1.64-2.592.412-1.35-.653.517-.438 1.37-.027 1.35.653zm0-1.291c-.065 1.64-2.592.412-1.35-.653.517-.438 1.37-.027 1.35.653zm0-1.208c-.065 1.64-2.592.412-1.35-.653.517-.438 1.37-.027 1.35.653zm0-1.5c-.065 1.64-2.592.412-1.35-.653.517-.438 1.37-.027 1.35.653zm0-1.292c-.065 1.64-2.592.412-1.35-.653.517-.438 1.37-.027 1.35.653zm1.104 6.83c-.065 1.64-2.592.412-1.35-.653.517-.438 1.37-.027 1.35.653zm0-1.208c-.065 1.64-2.592.412-1.35-.653.517-.438 1.37-.027 1.35.653zm0-1.334c-.065 1.64-2.592.412-1.35-.653.517-.438 1.37-.027 1.35.653zm0-1.291c-.065 1.64-2.592.412-1.35-.653.517-.438 1.37-.027 1.35.653zm0-1.208c-.065 1.64-2.592.412-1.35-.653.517-.438 1.37-.027 1.35.653zm0-1.5c-.065 1.64-2.592.412-1.35-.653.517-.438 1.37-.027 1.35.653zm0-1.292c-.065 1.64-2.592.412-1.35-.653.517-.438 1.37-.027 1.35.653zm1.104 9.611c-.065 1.64-2.592.412-1.35-.653.517-.438 1.37-.027 1.35.653zm0-1.358c-.065 1.64-2.592.412-1.35-.653.517-.438 1.37-.027 1.35.653zm0-1.354c-.065 1.64-2.592.412-1.35-.653.517-.438 1.37-.027 1.35.653zm0-1.208c-.065 1.64-2.592.412-1.35-.653.517-.438 1.37-.027 1.35.653zm0-1.334c-.065 1.64-2.592.412-1.35-.653.517-.438 1.37-.027 1.35.653zm0-1.291c-.065 1.64-2.592.412-1.35-.653.517-.438 1.37-.027 1.35.653zm0-1.208c-.065 1.64-2.592.412-1.35-.653.517-.438 1.37-.027 1.35.653zm0-1.5c-.065 1.64-2.592.412-1.35-.653.517-.438 1.37-.027 1.35.653zm0-1.292c-.065 1.64-2.592.412-1.35-.653.517-.438 1.37-.027 1.35.653zm1.104 8.961c-.065 1.64-2.592.412-1.35-.653.517-.438 1.37-.027 1.35.653zm.208 1.33c-.065 1.64-2.592.412-1.35-.653.517-.438 1.37-.027 1.35.653zm.167 1.289c-.065 1.64-2.592.412-1.35-.653.517-.438 1.37-.027 1.35.653zm-.375-3.977c-.065 1.64-2.592.412-1.35-.653.517-.438 1.37-.027 1.35.653zm0-1.354c-.065 1.64-2.592.412-1.35-.653.517-.438 1.37-.027 1.35.653zm0-1.208c-.065 1.64-2.592.412-1.35-.653.517-.438 1.37-.027 1.35.653zm0-1.334c-.065 1.64-2.592.412-1.35-.653.517-.438 1.37-.027 1.35.653zm0-1.291c-.065 1.64-2.592.412-1.35-.653.517-.438 1.37-.027 1.35.653zm0-1.209c-.065 1.64-2.592.412-1.35-.653.517-.438 1.37-.027 1.35.653zm0-1.499c-.065 1.64-2.592.412-1.35-.653.517-.438 1.37-.027 1.35.653zm0-1.292c-.065 1.64-2.592.412-1.35-.653.517-.438 1.37-.027 1.35.653zm1.104 9.441c-.065 1.64-2.592.412-1.35-.653.517-.438 1.37-.027 1.35.653zm.208 1.33c-.065 1.64-2.592.412-1.35-.653.517-.438 1.37-.027 1.35.653zm.167 1.29c-.065 1.64-2.592.412-1.35-.653.517-.438 1.37-.027 1.35.653zm.167 1.335c-.065 1.64-2.592.412-1.35-.653.517-.438 1.37-.027 1.35.653zm-.542-5.313c-.065 1.64-2.592.412-1.35-.653.517-.438 1.37-.027 1.35.653zm0-1.354c-.065 1.64-2.592.412-1.35-.653.517-.438 1.37-.027 1.35.653zm0-1.208c-.065 1.64-2.592.412-1.35-.653.517-.438 1.37-.027 1.35.653zm0-1.334c-.065 1.64-2.592.412-1.35-.653.517-.438 1.37-.027 1.35.653zm0-1.291c-.065 1.64-2.592.412-1.35-.653.517-.438 1.37-.027 1.35.653zm0-1.208c-.065 1.64-2.592.412-1.35-.653.517-.438 1.37-.027 1.35.653zm0-1.5c-.065 1.64-2.592.412-1.35-.653.517-.438 1.37-.027 1.35.653zm0-1.292c-.065 1.64-2.592.412-1.35-.653.517-.438 1.37-.027 1.35.653zm1.104 9.441c-.065 1.64-2.592.412-1.35-.653.517-.438 1.37-.027 1.35.653zm.208 1.33c-.065 1.64-2.592.412-1.35-.653.517-.438 1.37-.027 1.35.653zm.167 1.29c-.065 1.64-2.592.412-1.35-.653.517-.438 1.37-.027 1.35.653zm.167 1.335c-.065 1.64-2.592.412-1.35-.653.517-.438 1.37-.027 1.35.653zm-.542-5.313c-.065 1.64-2.592.412-1.35-.653.517-.438 1.37-.027 1.35.653zm0-1.354c-.065 1.64-2.592.412-1.35-.653.517-.438 1.37-.027 1.35.653zm0-1.208c-.065 1.64-2.592.412-1.35-.653.517-.438 1.37-.027 1.35.653zm0-1.334c-.065 1.64-2.592.412-1.35-.653.517-.438 1.37-.027 1.35.653zm0-1.291c-.065 1.64-2.592.412-1.35-.653.517-.438 1.37-.027 1.35.653zm0-1.208c-.065 1.64-2.592.412-1.35-.653.517-.438 1.37-.027 1.35.653zm0-1.5c-.065 1.64-2.592.412-1.35-.653.517-.438 1.37-.027 1.35.653zm0-1.292c-.065 1.64-2.592.412-1.35-.653.517-.438 1.37-.027 1.35.653zm1.104 9.757c-.065 1.64-2.592.412-1.35-.653.517-.438 1.37-.027 1.35.653zm.208 1.33c-.065 1.64-2.592.412-1.35-.653.517-.438 1.37-.027 1.35.653zm.167 1.29c-.065 1.64-2.592.412-1.35-.653.517-.438 1.37-.027 1.35.653zm.167 1.335c-.065 1.64-2.592.412-1.35-.653.517-.438 1.37-.027 1.35.653zm-.542-5.313c-.065 1.64-2.592.412-1.35-.653.517-.438 1.37-.027 1.35.653zm0-1.354c-.065 1.64-2.592.412-1.35-.653.517-.438 1.37-.027 1.35.653zm0-1.208c-.065 1.64-2.592.412-1.35-.653.517-.438 1.37-.027 1.35.653zm0-1.334c-.065 1.64-2.592.412-1.35-.653.517-.438 1.37-.027 1.35.653zm0-1.291c-.065 1.64-2.592.412-1.35-.653.517-.438 1.37-.027 1.35.653zm0-1.209c-.065 1.64-2.592.412-1.35-.653.517-.438 1.37-.027 1.35.653zm0-1.499c-.065 1.64-2.592.412-1.35-.653.517-.438 1.37-.027 1.35.653zm0-1.292c-.065 1.64-2.592.412-1.35-.653.517-.438 1.37-.027 1.35.653zm1.104 9.643c-.065 1.64-2.592.412-1.35-.653.517-.438 1.37-.027 1.35.653zm.208 1.329c-.065 1.64-2.592.412-1.35-.653.517-.438 1.37-.027 1.35.653zm.167 1.29c-.065 1.64-2.592.412-1.35-.653.517-.438 1.37-.027 1.35.653zm.167 1.335c-.065 1.64-2.592.412-1.35-.653.517-.438 1.37-.027 1.35.653zm-.542-5.313c-.065 1.64-2.592.412-1.35-.653.517-.438 1.37-.027 1.35.653zm0-1.354c-.065 1.64-2.592.412-1.35-.653.517-.438 1.37-.027 1.35.653zm0-1.208c-.065 1.64-2.592.412-1.35-.653.517-.438 1.37-.027 1.35.653zm0-1.334c-.065 1.64-2.592.412-1.35-.653.517-.438 1.37-.027 1.35.653zm0-1.291c-.065 1.64-2.592.412-1.35-.653.517-.438 1.37-.027 1.35.653zm0-1.208c-.065 1.64-2.592.412-1.35-.653.517-.438 1.37-.027 1.35.653zm0-1.5c-.065 1.64-2.592.412-1.35-.653.517-.438 1.37-.027 1.35.653zm0-1.292c-.065 1.64-2.592.412-1.35-.653.517-.438 1.37-.027 1.35.653zm1.111 9.339c-.065 1.64-2.592.412-1.35-.653.517-.438 1.37-.027 1.35.653zm.208 1.33c-.065 1.64-2.592.412-1.35-.653.517-.438 1.37-.027 1.35.653zm.167 1.289c-.065 1.64-2.592.412-1.35-.653.517-.438 1.37-.027 1.35.653zm.167 1.336c-.065 1.64-2.592.412-1.35-.653.517-.438 1.37-.027 1.35.653zm-.542-5.313c-.065 1.64-2.592.412-1.35-.653.517-.438 1.37-.027 1.35.653zm0-1.354c-.065 1.64-2.592.412-1.35-.653.517-.438 1.37-.027 1.35.653zm0-1.208c-.065 1.64-2.592.412-1.35-.653.517-.438 1.37-.027 1.35.653zm0-1.334c-.065 1.64-2.592.412-1.35-.653.517-.438 1.37-.027 1.35.653zm0-1.291c-.065 1.64-2.592.412-1.35-.653.517-.438 1.37-.027 1.35.653zm0-1.209c-.065 1.64-2.592.412-1.35-.653.517-.438 1.37-.027 1.35.653zm0-1.499c-.065 1.64-2.592.412-1.35-.653.517-.438 1.37-.027 1.35.653zm1.104 8.295c-.065 1.64-2.592.412-1.35-.653.517-.438 1.37-.027 1.35.653zm.208 1.33c-.065 1.64-2.592.412-1.35-.653.517-.438 1.37-.027 1.35.653zm.167 1.289c-.065 1.64-2.592.412-1.35-.653.517-.438 1.37-.027 1.35.653zm.167 1.336c-.065 1.64-2.592.412-1.35-.653.517-.438 1.37-.027 1.35.653zm-.542-5.313c-.065 1.64-2.592.412-1.35-.653.517-.438 1.37-.027 1.35.653zm0-1.354c-.065 1.64-2.592.412-1.35-.653.517-.438 1.37-.027 1.35.653zm0-1.208c-.065 1.64-2.592.412-1.35-.653.517-.438 1.37-.027 1.35.653zm0-1.334c-.065 1.64-2.592.412-1.35-.653.517-.438 1.37-.027 1.35.653zm1.104 4.484c-.065 1.64-2.592.412-1.35-.653.517-.438 1.37-.027 1.35.653zm.208 1.33c-.065 1.64-2.592.412-1.35-.653.517-.438 1.37-.027 1.35.653zm.167 1.29c-.065 1.64-2.592.412-1.35-.653.517-.438 1.37-.027 1.35.653zm.167 1.335c-.065 1.64-2.592.412-1.35-.653.517-.438 1.37-.027 1.35.653zm-.542-5.313c-.065 1.64-2.592.412-1.35-.653.517-.438 1.37-.027 1.35.653zm1.917 4.336c-.065 1.64-2.592.412-1.35-.653.517-.438 1.37-.027 1.35.653zm7.433-18.44c-.065 1.64-2.592.412-1.35-.653.517-.438 1.37-.027 1.35.653zm1.104-.352c-.065 1.64-2.592.412-1.35-.653.517-.438 1.37-.027 1.35.653zm1.104 2.272c-.065 1.64-2.592.412-1.35-.653.517-.438 1.37-.027 1.35.653zm0-1.499c-.065 1.64-2.592.412-1.35-.653.517-.438 1.37-.027 1.35.653zm0-1.292c-.065 1.64-2.592.412-1.35-.653.517-.438 1.37-.027 1.35.653zm1.104 5.996c-.065 1.64-2.592.412-1.35-.653.517-.438 1.37-.027 1.35.653zm0-1.334c-.065 1.64-2.592.412-1.35-.653.517-.438 1.37-.027 1.35.653zm0-1.291c-.065 1.64-2.592.412-1.35-.653.517-.438 1.37-.027 1.35.653zm0-1.208c-.065 1.64-2.592.412-1.35-.653.517-.438 1.37-.027 1.35.653zm0-1.5c-.065 1.64-2.592.412-1.35-.653.517-.438 1.37-.027 1.35.653zm0-1.292c-.065 1.64-2.592.412-1.35-.653.517-.438 1.37-.027 1.35.653zm1.104 10.071c-.065 1.64-2.592.412-1.35-.653.517-.438 1.37-.027 1.35.653zm0-1.359c-.065 1.64-2.592.412-1.35-.653.517-.438 1.37-.027 1.35.653zm0-1.354c-.065 1.64-2.592.412-1.35-.653.517-.438 1.37-.027 1.35.653zm0-1.208c-.065 1.64-2.592.412-1.35-.653.517-.438 1.37-.027 1.35.653zm0-1.334c-.065 1.64-2.592.412-1.35-.653.517-.438 1.37-.027 1.35.653zm0-1.291c-.065 1.64-2.592.412-1.35-.653.517-.438 1.37-.027 1.35.653zm0-1.208c-.065 1.64-2.592.412-1.35-.653.517-.438 1.37-.027 1.35.653zm0-1.5c-.065 1.64-2.592.412-1.35-.653.517-.438 1.37-.027 1.35.653zm0-1.292c-.065 1.64-2.592.412-1.35-.653.517-.438 1.37-.027 1.35.653zm1.104 10.058c-.065 1.64-2.592.412-1.35-.653.517-.438 1.37-.027 1.35.653zm.208 1.33c-.065 1.64-2.592.412-1.35-.653.517-.438 1.37-.027 1.35.653zm.167 1.289c-.065 1.64-2.592.412-1.35-.653.517-.438 1.37-.027 1.35.653zm.167 1.336c-.065 1.64-2.592.412-1.35-.653.517-.438 1.37-.027 1.35.653zm-.542-5.313c-.065 1.64-2.592.412-1.35-.653.517-.438 1.37-.027 1.35.653zm0-1.354c-.065 1.64-2.592.412-1.35-.653.517-.438 1.37-.027 1.35.653zm0-1.208c-.065 1.64-2.592.412-1.35-.653.517-.438 1.37-.027 1.35.653zm0-1.334c-.065 1.64-2.592.412-1.35-.653.517-.438 1.37-.027 1.35.653zm0-1.291c-.065 1.64-2.592.412-1.35-.653.517-.438 1.37-.027 1.35.653zm0-1.209c-.065 1.64-2.592.412-1.35-.653.517-.438 1.37-.027 1.35.653zm0-1.499c-.065 1.64-2.592.412-1.35-.653.517-.438 1.37-.027 1.35.653zm0-1.292c-.065 1.64-2.592.412-1.35-.653.517-.438 1.37-.027 1.35.653zm1.104 10.337c-.065 1.64-2.592.412-1.35-.653.517-.438 1.37-.027 1.35.653zm.208 1.33c-.065 1.64-2.592.412-1.35-.653.517-.438 1.37-.027 1.35.653zm.167 1.289c-.065 1.64-2.592.412-1.35-.653.517-.438 1.37-.027 1.35.653zm.167 1.336c-.065 1.64-2.592.412-1.35-.653.517-.438 1.37-.027 1.35.653zm-.542-5.313c-.065 1.64-2.592.412-1.35-.653.517-.438 1.37-.027 1.35.653zm0-1.354c-.065 1.64-2.592.412-1.35-.653.517-.438 1.37-.027 1.35.653zm0-1.208c-.065 1.64-2.592.412-1.35-.653.517-.438 1.37-.027 1.35.653zm0-1.334c-.065 1.64-2.592.412-1.35-.653.517-.438 1.37-.027 1.35.653zm0-1.291c-.065 1.64-2.592.412-1.35-.653.517-.438 1.37-.027 1.35.653zm0-1.209c-.065 1.64-2.592.412-1.35-.653.517-.438 1.37-.027 1.35.653zm0-1.499c-.065 1.64-2.592.412-1.35-.653.517-.438 1.37-.027 1.35.653zm0-1.292c-.065 1.64-2.592.412-1.35-.653.517-.438 1.37-.027 1.35.653zm1.104 10.299c-.065 1.64-2.592.412-1.35-.653.517-.438 1.37-.027 1.35.653zm.208 1.33c-.065 1.64-2.592.412-1.35-.653.517-.438 1.37-.027 1.35.653zm.167 1.29c-.065 1.64-2.592.412-1.35-.653.517-.438 1.37-.027 1.35.653zm.167 1.335c-.065 1.64-2.592.412-1.35-.653.517-.438 1.37-.027 1.35.653zm-.542-5.313c-.065 1.64-2.592.412-1.35-.653.517-.438 1.37-.027 1.35.653zm0-1.354c-.065 1.64-2.592.412-1.35-.653.517-.438 1.37-.027 1.35.653zm0-1.208c-.065 1.64-2.592.412-1.35-.653.517-.438 1.37-.027 1.35.653zm0-1.334c-.065 1.64-2.592.412-1.35-.653.517-.438 1.37-.027 1.35.653zm0-1.291c-.065 1.64-2.592.412-1.35-.653.517-.438 1.37-.027 1.35.653zm0-1.208c-.065 1.64-2.592.412-1.35-.653.517-.438 1.37-.027 1.35.653zm0-1.5c-.065 1.64-2.592.412-1.35-.653.517-.438 1.37-.027 1.35.653zm0-1.292c-.065 1.64-2.592.412-1.35-.653.517-.438 1.37-.027 1.35.653zm1.104 9.86c-.065 1.64-2.592.412-1.35-.653.517-.438 1.37-.027 1.35.653zm.208 1.33c-.065 1.64-2.592.412-1.35-.653.517-.438 1.37-.027 1.35.653zm.167 1.29c-.065 1.64-2.592.412-1.35-.653.517-.438 1.37-.027 1.35.653zm.167 1.335c-.065 1.64-2.592.412-1.35-.653.517-.438 1.37-.027 1.35.653zm-.542-5.313c-.065 1.64-2.592.412-1.35-.653.517-.438 1.37-.027 1.35.653zm0-1.354c-.065 1.64-2.592.412-1.35-.653.517-.438 1.37-.027 1.35.653zm0-1.208c-.065 1.64-2.592.412-1.35-.653.517-.438 1.37-.027 1.35.653zm0-1.334c-.065 1.64-2.592.412-1.35-.653.517-.438 1.37-.027 1.35.653zm0-1.291c-.065 1.64-2.592.412-1.35-.653.517-.438 1.37-.027 1.35.653zm0-1.209c-.065 1.64-2.592.412-1.35-.653.517-.438 1.37-.027 1.35.653zm0-1.499c-.065 1.64-2.592.412-1.35-.653.517-.438 1.37-.027 1.35.653zm0-1.292c-.065 1.64-2.592.412-1.35-.653.517-.438 1.37-.027 1.35.653zm1 10.003c-.065 1.64-2.592.412-1.35-.653.517-.438 1.37-.027 1.35.653zm.208 1.33c-.065 1.64-2.592.412-1.35-.653.517-.438 1.37-.027 1.35.653zm.167 1.289c-.065 1.64-2.592.412-1.35-.653.517-.438 1.37-.027 1.35.653zm.167 1.336c-.065 1.64-2.592.412-1.35-.653.517-.438 1.37-.027 1.35.653zm-.542-5.313c-.065 1.64-2.592.412-1.35-.653.517-.438 1.37-.027 1.35.653zm0-1.354c-.065 1.64-2.592.412-1.35-.653.517-.438 1.37-.027 1.35.653zm0-1.208c-.065 1.64-2.592.412-1.35-.653.517-.438 1.37-.027 1.35.653zm0-1.334c-.065 1.64-2.592.412-1.35-.653.517-.438 1.37-.027 1.35.653zm0-1.291c-.065 1.64-2.592.412-1.35-.653.517-.438 1.37-.027 1.35.653zm0-1.209c-.065 1.64-2.592.412-1.35-.653.517-.438 1.37-.027 1.35.653zm0-1.5c-.065 1.64-2.592.412-1.35-.653.517-.438 1.37-.027 1.35.653zm0-1.291c-.065 1.64-2.592.412-1.35-.653.517-.438 1.37-.027 1.35.653zm1.104 10.438c-.065 1.64-2.592.412-1.35-.653.517-.438 1.37-.027 1.35.653zm.208 1.33c-.065 1.64-2.592.412-1.35-.653.517-.438 1.37-.027 1.35.653zm.167 1.289c-.065 1.64-2.592.412-1.35-.653.517-.438 1.37-.027 1.35.653zm.167 1.336c-.065 1.64-2.592.412-1.35-.653.517-.438 1.37-.027 1.35.653zm-.542-5.313c-.065 1.64-2.592.412-1.35-.653.517-.438 1.37-.027 1.35.653zm0-1.354c-.065 1.64-2.592.412-1.35-.653.517-.438 1.37-.027 1.35.653zm0-1.208c-.065 1.64-2.592.412-1.35-.653.517-.438 1.37-.027 1.35.653zm0-1.334c-.065 1.64-2.592.412-1.35-.653.517-.438 1.37-.027 1.35.653zm0-1.291c-.065 1.64-2.592.412-1.35-.653.517-.438 1.37-.027 1.35.653zm0-1.209c-.065 1.64-2.592.412-1.35-.653.517-.438 1.37-.027 1.35.653zm0-1.499c-.065 1.64-2.592.412-1.35-.653.517-.438 1.37-.027 1.35.653zm0-1.292c-.065 1.64-2.592.412-1.35-.653.517-.438 1.37-.027 1.35.653zm1.104 10.067c-.065 1.64-2.592.412-1.35-.653.517-.438 1.37-.027 1.35.653zm.208 1.33c-.065 1.64-2.592.412-1.35-.653.517-.438 1.37-.027 1.35.653zm.167 1.29c-.065 1.64-2.592.412-1.35-.653.517-.438 1.37-.027 1.35.653zm.167 1.335c-.065 1.64-2.592.412-1.35-.653.517-.438 1.37-.027 1.35.653zm-.542-5.313c-.065 1.64-2.592.412-1.35-.653.517-.438 1.37-.027 1.35.653zm0-1.354c-.065 1.64-2.592.412-1.35-.653.517-.438 1.37-.027 1.35.653zm0-1.208c-.065 1.64-2.592.412-1.35-.653.517-.438 1.37-.027 1.35.653zm0-1.334c-.065 1.64-2.592.412-1.35-.653.517-.438 1.37-.027 1.35.653zm0-1.291c-.065 1.64-2.592.412-1.35-.653.517-.438 1.37-.027 1.35.653zm0-1.208c-.065 1.64-2.592.412-1.35-.653.517-.438 1.37-.027 1.35.653zm0-1.5c-.065 1.64-2.592.412-1.35-.653.517-.438 1.37-.027 1.35.653zm0-1.292c-.065 1.64-2.592.412-1.35-.653.517-.438 1.37-.027 1.35.653zm1.104 10.293c-.065 1.64-2.592.412-1.35-.653.517-.438 1.37-.027 1.35.653zm.208 1.33c-.065 1.64-2.592.412-1.35-.653.517-.438 1.37-.027 1.35.653zm.167 1.29c-.065 1.64-2.592.412-1.35-.653.517-.438 1.37-.027 1.35.653zm.167 1.335c-.065 1.64-2.592.412-1.35-.653.517-.438 1.37-.027 1.35.653zm-.542-5.313c-.065 1.64-2.592.412-1.35-.653.517-.438 1.37-.027 1.35.653zm0-1.354c-.065 1.64-2.592.412-1.35-.653.517-.438 1.37-.027 1.35.653zm0-1.208c-.065 1.64-2.592.412-1.35-.653.517-.438 1.37-.027 1.35.653zm0-1.334c-.065 1.64-2.592.412-1.35-.653.517-.438 1.37-.027 1.35.653zm0-1.291c-.065 1.64-2.592.412-1.35-.653.517-.438 1.37-.027 1.35.653zm0-1.208c-.065 1.64-2.592.412-1.35-.653.517-.438 1.37-.027 1.35.653zm0-1.5c-.065 1.64-2.592.412-1.35-.653.517-.438 1.37-.027 1.35.653zm0-1.292c-.065 1.64-2.592.412-1.35-.653.517-.438 1.37-.027 1.35.653zm1.104 10.11c-.065 1.64-2.592.412-1.35-.653.517-.438 1.37-.027 1.35.653zm.208 1.33c-.065 1.64-2.592.412-1.35-.653.517-.438 1.37-.027 1.35.653zm.167 1.289c-.065 1.64-2.592.412-1.35-.653.517-.438 1.37-.027 1.35.653zm.167 1.336c-.065 1.64-2.592.412-1.35-.653.517-.438 1.37-.027 1.35.653zm-.542-5.313c-.065 1.64-2.592.412-1.35-.653.517-.438 1.37-.027 1.35.653zm0-1.354c-.065 1.64-2.592.412-1.35-.653.517-.438 1.37-.027 1.35.653zm0-1.208c-.065 1.64-2.592.412-1.35-.653.517-.438 1.37-.027 1.35.653zm0-1.334c-.065 1.64-2.592.412-1.35-.653.517-.438 1.37-.027 1.35.653zm0-1.291c-.065 1.64-2.592.412-1.35-.653.517-.438 1.37-.027 1.35.653zm0-1.209c-.065 1.64-2.592.412-1.35-.653.517-.438 1.37-.027 1.35.653zm0-1.499c-.065 1.64-2.592.412-1.35-.653.517-.438 1.37-.027 1.35.653zm0-1.292c-.065 1.64-2.592.412-1.35-.653.517-.438 1.37-.027 1.35.653zm1.104 10.274c-.065 1.64-2.592.412-1.35-.653.517-.438 1.37-.027 1.35.653zm.208 1.33c-.065 1.64-2.592.412-1.35-.653.517-.438 1.37-.027 1.35.653zm.167 1.289c-.065 1.64-2.592.412-1.35-.653.517-.438 1.37-.027 1.35.653zm.167 1.336c-.065 1.64-2.592.412-1.35-.653.517-.438 1.37-.027 1.35.653zm-.542-5.313c-.065 1.64-2.592.412-1.35-.653.517-.438 1.37-.027 1.35.653zm0-1.354c-.065 1.64-2.592.412-1.35-.653.517-.438 1.37-.027 1.35.653zm0-1.208c-.065 1.64-2.592.412-1.35-.653.517-.438 1.37-.027 1.35.653zm0-1.334c-.065 1.64-2.592.412-1.35-.653.517-.438 1.37-.027 1.35.653zm0-1.291c-.065 1.64-2.592.412-1.35-.653.517-.438 1.37-.027 1.35.653zm0-1.209c-.065 1.64-2.592.412-1.35-.653.517-.438 1.37-.027 1.35.653zm0-1.499c-.065 1.64-2.592.412-1.35-.653.517-.438 1.37-.027 1.35.653zm0-1.292c-.065 1.64-2.592.412-1.35-.653.517-.438 1.37-.027 1.35.653zm1.167 10.168c-.065 1.64-2.592.412-1.35-.653.517-.438 1.37-.027 1.35.653zm.208 1.33c-.065 1.64-2.592.412-1.35-.653.517-.438 1.37-.027 1.35.653zm.167 1.29c-.065 1.64-2.592.412-1.35-.653.517-.438 1.37-.027 1.35.653zm.167 1.335c-.065 1.64-2.592.412-1.35-.653.517-.438 1.37-.027 1.35.653zm-.542-13.208c-.065 1.64-2.592.412-1.35-.653.517-.438 1.37-.027 1.35.653zm0-1.292c-.065 1.64-2.592.412-1.35-.653.517-.438 1.37-.027 1.35.653zm1.104.836c-.065 1.64-2.592.412-1.35-.653.517-.438 1.37-.027 1.35.653zm0-1.292c-.065 1.64-2.592.412-1.35-.653.517-.438 1.37-.027 1.35.653zm.896 1.099c-.065 1.64-2.592.412-1.35-.653.517-.438 1.37-.027 1.35.653zm0-1.292c-.065 1.64-2.592.412-1.35-.653.517-.438 1.37-.027 1.35.653zm1.104.709c-.065 1.64-2.592.412-1.35-.653.517-.438 1.37-.027 1.35.653zm0-1.292c-.065 1.64-2.592.412-1.35-.653.517-.438 1.37-.027 1.35.653zm1.104.988c-.065 1.64-2.592.412-1.35-.653.517-.438 1.37-.027 1.35.653zm0-1.292c-.065 1.64-2.592.412-1.35-.653.517-.438 1.37-.027 1.35.653zm1.104 1.14c-.065 1.64-2.592.412-1.35-.653.517-.438 1.37-.027 1.35.653zm0-1.292c-.065 1.64-2.592.412-1.35-.653.517-.438 1.37-.027 1.35.653zm1.104-.102c-.065 1.64-2.592.412-1.35-.653.517-.438 1.37-.027 1.35.653zm1.104-.268c-.065 1.64-2.592.412-1.35-.653.517-.438 1.37-.027 1.35.653zm1.105.702c-.065 1.64-2.592.412-1.35-.653.517-.438 1.37-.027 1.35.653zm0-1.292c-.065 1.64-2.592.412-1.35-.653.517-.438 1.37-.027 1.35.653zm1.104.025c-.065 1.64-2.592.412-1.35-.653.517-.438 1.37-.027 1.35.653zm1.104.753c-.065 1.64-2.592.412-1.35-.653.517-.438 1.37-.027 1.35.653zm0-1.292c-.065 1.64-2.592.412-1.35-.653.517-.438 1.37-.027 1.35.653zm1.105 1.038c-.065 1.64-2.592.412-1.35-.653.517-.438 1.37-.027 1.35.653zm0-1.292c-.065 1.64-2.592.412-1.35-.653.517-.438 1.37-.027 1.35.653zm1.103 1.022c-.065 1.64-2.592.412-1.35-.653.517-.438 1.37-.027 1.35.653zm0-1.292c-.065 1.64-2.592.412-1.35-.653.517-.438 1.37-.027 1.35.653zm1.105 1.04c-.065 1.64-2.592.412-1.35-.653.517-.438 1.37-.027 1.35.653zm0-1.292c-.065 1.64-2.592.412-1.35-.653.517-.438 1.37-.027 1.35.653zm1.313 10.005c-.065 1.64-2.592.412-1.35-.653.517-.438 1.37-.027 1.35.653zm.208 1.33c-.065 1.64-2.592.412-1.35-.653.517-.438 1.37-.027 1.35.653zm.167 1.29c-.065 1.64-2.592.412-1.35-.653.517-.438 1.37-.027 1.35.653zm-.375-3.978c-.065 1.64-2.592.412-1.35-.653.517-.438 1.37-.027 1.35.653zm0-1.354c-.065 1.64-2.592.412-1.35-.653.517-.438 1.37-.027 1.35.653zm0-1.208c-.065 1.64-2.592.412-1.35-.653.517-.438 1.37-.027 1.35.653zm0-1.334c-.065 1.64-2.592.412-1.35-.653.517-.438 1.37-.027 1.35.653zm0-1.291c-.065 1.64-2.592.412-1.35-.653.517-.438 1.37-.027 1.35.653zm0-1.208c-.065 1.64-2.592.412-1.35-.653.517-.438 1.37-.027 1.35.653zm0-1.5c-.065 1.64-2.592.412-1.35-.653.517-.438 1.37-.027 1.35.653zm0-1.292c-.065 1.64-2.592.412-1.35-.653.517-.438 1.37-.027 1.35.653zm1.104 10.192c-.065 1.64-2.592.412-1.35-.653.517-.438 1.37-.027 1.35.653zm.208 1.33c-.065 1.64-2.592.412-1.35-.653.517-.438 1.37-.027 1.35.653zm.167 1.289c-.065 1.64-2.592.412-1.35-.653.517-.438 1.37-.027 1.35.653zm.167 1.336c-.065 1.64-2.592.412-1.35-.653.517-.438 1.37-.027 1.35.653zm-.542-5.313c-.065 1.64-2.592.412-1.35-.653.517-.438 1.37-.027 1.35.653zm0-1.354c-.065 1.64-2.592.412-1.35-.653.517-.438 1.37-.027 1.35.653zm0-1.208c-.065 1.64-2.592.412-1.35-.653.517-.438 1.37-.027 1.35.653zm0-1.334c-.065 1.64-2.592.412-1.35-.653.517-.438 1.37-.027 1.35.653zm0-1.291c-.065 1.64-2.592.412-1.35-.653.517-.438 1.37-.027 1.35.653zm0-1.209c-.065 1.64-2.592.412-1.35-.653.517-.438 1.37-.027 1.35.653zm0-1.499c-.065 1.64-2.592.412-1.35-.653.517-.438 1.37-.027 1.35.653zm0-1.292c-.065 1.64-2.592.412-1.35-.653.517-.438 1.37-.027 1.35.653zm1.104 10.295c-.065 1.64-2.592.412-1.35-.653.517-.438 1.37-.027 1.35.653zm.208 1.33c-.065 1.64-2.592.412-1.35-.653.517-.438 1.37-.027 1.35.653zm.167 1.289c-.065 1.64-2.592.412-1.35-.653.517-.438 1.37-.027 1.35.653zm.167 1.336c-.065 1.64-2.592.412-1.35-.653.517-.438 1.37-.027 1.35.653zm-.542-5.313c-.065 1.64-2.592.412-1.35-.653.517-.438 1.37-.027 1.35.653zm0-1.354c-.065 1.64-2.592.412-1.35-.653.517-.438 1.37-.027 1.35.653zm0-1.208c-.065 1.64-2.592.412-1.35-.653.517-.438 1.37-.027 1.35.653zm0-1.334c-.065 1.64-2.592.412-1.35-.653.517-.438 1.37-.027 1.35.653zm0-1.291c-.065 1.64-2.592.412-1.35-.653.517-.438 1.37-.027 1.35.653zm0-1.209c-.065 1.64-2.592.412-1.35-.653.517-.438 1.37-.027 1.35.653zm0-1.499c-.065 1.64-2.592.412-1.35-.653.517-.438 1.37-.027 1.35.653zm0-1.292c-.065 1.64-2.592.412-1.35-.653.517-.438 1.37-.027 1.35.653zm1.105 10.209c-.065 1.64-2.592.412-1.35-.653.517-.438 1.37-.027 1.35.653zm.208 1.329c-.065 1.64-2.592.412-1.35-.653.517-.438 1.37-.027 1.35.653zm.167 1.29c-.065 1.64-2.592.412-1.35-.653.517-.438 1.37-.027 1.35.653zm.167 1.335c-.065 1.64-2.592.412-1.35-.653.517-.438 1.37-.027 1.35.653zm-.542-5.313c-.065 1.64-2.592.412-1.35-.653.517-.438 1.37-.027 1.35.653zm0-1.354c-.065 1.64-2.592.412-1.35-.653.517-.438 1.37-.027 1.35.653zm0-1.208c-.065 1.64-2.592.412-1.35-.653.517-.438 1.37-.027 1.35.653zm0-1.334c-.065 1.64-2.592.412-1.35-.653.517-.438 1.37-.027 1.35.653zm0-1.291c-.065 1.64-2.592.412-1.35-.653.517-.438 1.37-.027 1.35.653zm0-1.208c-.065 1.64-2.592.412-1.35-.653.517-.438 1.37-.027 1.35.653zm0-1.5c-.065 1.64-2.592.412-1.35-.653.517-.438 1.37-.027 1.35.653zm0-1.292c-.065 1.64-2.592.412-1.35-.653.517-.438 1.37-.027 1.35.653zm1.104 10.384c-.065 1.64-2.592.412-1.35-.653.517-.438 1.37-.027 1.35.653zm.208 1.329c-.065 1.64-2.592.412-1.35-.653.517-.438 1.37-.027 1.35.653zm.167 1.29c-.065 1.64-2.592.412-1.35-.653.517-.438 1.37-.027 1.35.653zm.167 1.335c-.065 1.64-2.592.412-1.35-.653.517-.438 1.37-.027 1.35.653zm-.542-5.313c-.065 1.64-2.592.412-1.35-.653.517-.438 1.37-.027 1.35.653zm0-1.354c-.065 1.64-2.592.412-1.35-.653.517-.438 1.37-.027 1.35.653zm0-1.208c-.065 1.64-2.592.412-1.35-.653.517-.438 1.37-.027 1.35.653zm0-1.334c-.065 1.64-2.592.412-1.35-.653.517-.438 1.37-.027 1.35.653zm0-1.291c-.065 1.64-2.592.412-1.35-.653.517-.438 1.37-.027 1.35.653zm0-1.208c-.065 1.64-2.592.412-1.35-.653.517-.438 1.37-.027 1.35.653zm0-1.5c-.065 1.64-2.592.412-1.35-.653.517-.438 1.37-.027 1.35.653zm0-1.292c-.065 1.64-2.592.412-1.35-.653.517-.438 1.37-.027 1.35.653zm1.104 10.333c-.065 1.64-2.592.412-1.35-.653.517-.438 1.37-.027 1.35.653zm.208 1.33c-.065 1.64-2.592.412-1.35-.653.517-.438 1.37-.027 1.35.653zm.167 1.289c-.065 1.64-2.592.412-1.35-.653.517-.438 1.37-.027 1.35.653zm.167 1.336c-.065 1.64-2.592.412-1.35-.653.517-.438 1.37-.027 1.35.653zm-.542-5.313c-.065 1.64-2.592.412-1.35-.653.517-.438 1.37-.027 1.35.653zm0-1.354c-.065 1.64-2.592.412-1.35-.653.517-.438 1.37-.027 1.35.653zm0-1.208c-.065 1.64-2.592.412-1.35-.653.517-.438 1.37-.027 1.35.653zm0-1.334c-.065 1.64-2.592.412-1.35-.653.517-.438 1.37-.027 1.35.653zm0-1.291c-.065 1.64-2.592.412-1.35-.653.517-.438 1.37-.027 1.35.653zm0-1.209c-.065 1.64-2.592.412-1.35-.653.517-.438 1.37-.027 1.35.653zm0-1.499c-.065 1.64-2.592.412-1.35-.653.517-.438 1.37-.027 1.35.653zm0-1.292c-.065 1.64-2.592.412-1.35-.653.517-.438 1.37-.027 1.35.653zm.896 10.193c-.065 1.64-2.592.412-1.35-.653.517-.438 1.37-.027 1.35.653zm.208 1.33c-.065 1.64-2.592.412-1.35-.653.517-.438 1.37-.027 1.35.653zm.167 1.289c-.065 1.64-2.592.412-1.35-.653.517-.438 1.37-.027 1.35.653zm.167 1.336c-.065 1.64-2.592.412-1.35-.653.517-.438 1.37-.027 1.35.653zm-.542-5.313c-.065 1.64-2.592.412-1.35-.653.517-.438 1.37-.027 1.35.653zm0-1.354c-.065 1.64-2.592.412-1.35-.653.517-.438 1.37-.027 1.35.653zm0-1.208c-.065 1.64-2.592.412-1.35-.653.517-.438 1.37-.027 1.35.653zm0-1.334c-.065 1.64-2.592.412-1.35-.653.517-.438 1.37-.027 1.35.653zm0-1.291c-.065 1.64-2.592.412-1.35-.653.517-.438 1.37-.027 1.35.653zm0-1.209c-.065 1.64-2.592.412-1.35-.653.517-.438 1.37-.027 1.35.653zm0-1.499c-.065 1.64-2.592.412-1.35-.653.517-.438 1.37-.027 1.35.653zm0-1.292c-.065 1.64-2.592.412-1.35-.653.517-.438 1.37-.027 1.35.653zm1.105 10.502c-.065 1.64-2.592.412-1.35-.653.517-.438 1.37-.027 1.35.653zm.208 1.33c-.065 1.64-2.592.412-1.35-.653.517-.438 1.37-.027 1.35.653zm.167 1.29c-.065 1.64-2.592.412-1.35-.653.517-.438 1.37-.027 1.35.653zm.167 1.335c-.065 1.64-2.592.412-1.35-.653.517-.438 1.37-.027 1.35.653zm-.542-5.313c-.065 1.64-2.592.412-1.35-.653.517-.438 1.37-.027 1.35.653zm0-1.354c-.065 1.64-2.592.412-1.35-.653.517-.438 1.37-.027 1.35.653zm0-1.208c-.065 1.64-2.592.412-1.35-.653.517-.438 1.37-.027 1.35.653zm0-1.334c-.065 1.64-2.592.412-1.35-.653.517-.438 1.37-.027 1.35.653zm0-1.291c-.065 1.64-2.592.412-1.35-.653.517-.438 1.37-.027 1.35.653zm0-1.208c-.065 1.64-2.592.412-1.35-.653.517-.438 1.37-.027 1.35.653zm0-1.5c-.065 1.64-2.592.412-1.35-.653.517-.438 1.37-.027 1.35.653zm0-1.292c-.065 1.64-2.592.412-1.35-.653.517-.438 1.37-.027 1.35.653zm1.104 10.275c-.065 1.64-2.592.412-1.35-.653.517-.438 1.37-.027 1.35.653zm.208 1.33c-.065 1.64-2.592.412-1.35-.653.517-.438 1.37-.027 1.35.653zm.167 1.29c-.065 1.64-2.592.412-1.35-.653.517-.438 1.37-.027 1.35.653zm.167 1.335c-.065 1.64-2.592.412-1.35-.653.517-.438 1.37-.027 1.35.653zm-.542-5.313c-.065 1.64-2.592.412-1.35-.653.517-.438 1.37-.027 1.35.653zm0-1.354c-.065 1.64-2.592.412-1.35-.653.517-.438 1.37-.027 1.35.653zm0-1.208c-.065 1.64-2.592.412-1.35-.653.517-.438 1.37-.027 1.35.653zm0-1.334c-.065 1.64-2.592.412-1.35-.653.517-.438 1.37-.027 1.35.653zm0-1.291c-.065 1.64-2.592.412-1.35-.653.517-.438 1.37-.027 1.35.653zm0-1.208c-.065 1.64-2.592.412-1.35-.653.517-.438 1.37-.027 1.35.653zm0-1.5c-.065 1.64-2.592.412-1.35-.653.517-.438 1.37-.027 1.35.653zm0-1.292c-.065 1.64-2.592.412-1.35-.653.517-.438 1.37-.027 1.35.653zm1.104 10.171c-.065 1.64-2.592.412-1.35-.653.517-.438 1.37-.027 1.35.653zm.208 1.33c-.065 1.64-2.592.412-1.35-.653.517-.438 1.37-.027 1.35.653zm.167 1.29c-.065 1.64-2.592.412-1.35-.653.517-.438 1.37-.027 1.35.653zm.167 1.335c-.065 1.64-2.592.412-1.35-.653.517-.438 1.37-.027 1.35.653zm-.542-5.313c-.065 1.64-2.592.412-1.35-.653.517-.438 1.37-.027 1.35.653zm0-1.354c-.065 1.64-2.592.412-1.35-.653.517-.438 1.37-.027 1.35.653zm0-1.208c-.065 1.64-2.592.412-1.35-.653.517-.438 1.37-.027 1.35.653zm0-1.334c-.065 1.64-2.592.412-1.35-.653.517-.438 1.37-.027 1.35.653zm0-1.291c-.065 1.64-2.592.412-1.35-.653.517-.438 1.37-.027 1.35.653zm21.291-8.667c-.065 1.64-2.592.412-1.35-.653.517-.438 1.37-.027 1.35.653zm1.103 10.17c-.065 1.64-2.592.412-1.35-.653.517-.438 1.37-.027 1.35.653zm.208 1.33c-.065 1.64-2.592.412-1.35-.653.517-.438 1.37-.027 1.35.653zm.167 1.29c-.065 1.64-2.592.412-1.35-.653.517-.438 1.37-.027 1.35.653zm.167 1.335c-.065 1.64-2.592.412-1.35-.653.517-.438 1.37-.027 1.35.653zm-.542-5.313c-.065 1.64-2.592.412-1.35-.653.517-.438 1.37-.027 1.35.653zm0-1.354c-.065 1.64-2.592.412-1.35-.653.517-.438 1.37-.027 1.35.653zm0-1.208c-.065 1.64-2.592.412-1.35-.653.517-.438 1.37-.027 1.35.653zm0-1.334c-.065 1.64-2.592.412-1.35-.653.517-.438 1.37-.027 1.35.653zm0-1.291c-.065 1.64-2.592.412-1.35-.653.517-.438 1.37-.027 1.35.653zm0-1.208c-.065 1.64-2.592.412-1.35-.653.517-.438 1.37-.027 1.35.653zm0-1.5c-.065 1.64-2.592.412-1.35-.653.517-.438 1.37-.027 1.35.653zm0-1.292c-.065 1.64-2.592.412-1.35-.653.517-.438 1.37-.027 1.35.653zm1.105 10.337c-.065 1.64-2.592.412-1.35-.653.517-.438 1.37-.027 1.35.653zm.208 1.33c-.065 1.64-2.592.412-1.35-.653.517-.438 1.37-.027 1.35.653zm.167 1.289c-.065 1.64-2.592.412-1.35-.653.517-.438 1.37-.027 1.35.653zm.167 1.336c-.065 1.64-2.592.412-1.35-.653.517-.438 1.37-.027 1.35.653zm-.542-5.313c-.065 1.64-2.592.412-1.35-.653.517-.438 1.37-.027 1.35.653zm0-1.354c-.065 1.64-2.592.412-1.35-.653.517-.438 1.37-.027 1.35.653zm0-1.208c-.065 1.64-2.592.412-1.35-.653.517-.438 1.37-.027 1.35.653zm0-1.334c-.065 1.64-2.592.412-1.35-.653.517-.438 1.37-.027 1.35.653zm0-1.291c-.065 1.64-2.592.412-1.35-.653.517-.438 1.37-.027 1.35.653zm0-1.209c-.065 1.64-2.592.412-1.35-.653.517-.438 1.37-.027 1.35.653zm0-1.499c-.065 1.64-2.592.412-1.35-.653.517-.438 1.37-.027 1.35.653zm0-1.292c-.065 1.64-2.592.412-1.35-.653.517-.438 1.37-.027 1.35.653zm1.103 10.337c-.065 1.64-2.592.412-1.35-.653.517-.438 1.37-.027 1.35.653zm.208 1.33c-.065 1.64-2.592.412-1.35-.653.517-.438 1.37-.027 1.35.653zm.167 1.289c-.065 1.64-2.592.412-1.35-.653.517-.438 1.37-.027 1.35.653zm.167 1.336c-.065 1.64-2.592.412-1.35-.653.517-.438 1.37-.027 1.35.653zm-.542-5.313c-.065 1.64-2.592.412-1.35-.653.517-.438 1.37-.027 1.35.653zm0-1.354c-.065 1.64-2.592.412-1.35-.653.517-.438 1.37-.027 1.35.653zm0-1.208c-.065 1.64-2.592.412-1.35-.653.517-.438 1.37-.027 1.35.653zm0-1.334c-.065 1.64-2.592.412-1.35-.653.517-.438 1.37-.027 1.35.653zm0-1.291c-.065 1.64-2.592.412-1.35-.653.517-.438 1.37-.027 1.35.653zm0-1.209c-.065 1.64-2.592.412-1.35-.653.517-.438 1.37-.027 1.35.653zm0-1.499c-.065 1.64-2.592.412-1.35-.653.517-.438 1.37-.027 1.35.653zm0-1.292c-.065 1.64-2.592.412-1.35-.653.517-.438 1.37-.027 1.35.653zm1.105 10.336c-.065 1.64-2.592.412-1.35-.653.517-.438 1.37-.027 1.35.653zm.208 1.33c-.065 1.64-2.592.412-1.35-.653.517-.438 1.37-.027 1.35.653zm.167 1.29c-.065 1.64-2.592.412-1.35-.653.517-.438 1.37-.027 1.35.653zm.167 1.335c-.065 1.64-2.592.412-1.35-.653.517-.438 1.37-.027 1.35.653zm-.542-5.313c-.065 1.64-2.592.412-1.35-.653.517-.438 1.37-.027 1.35.653zm0-1.354c-.065 1.64-2.592.412-1.35-.653.517-.438 1.37-.027 1.35.653zm0-1.208c-.065 1.64-2.592.412-1.35-.653.517-.438 1.37-.027 1.35.653zm0-1.334c-.065 1.64-2.592.412-1.35-.653.517-.438 1.37-.027 1.35.653zm0-1.291c-.065 1.64-2.592.412-1.35-.653.517-.438 1.37-.027 1.35.653zm0-1.208c-.065 1.64-2.592.412-1.35-.653.517-.438 1.37-.027 1.35.653zm0-1.5c-.065 1.64-2.592.412-1.35-.653.517-.438 1.37-.027 1.35.653zm0-1.292c-.065 1.64-2.592.412-1.35-.653.517-.438 1.37-.027 1.35.653zm1.375 10.295c-.065 1.64-2.592.412-1.35-.653.517-.438 1.37-.027 1.35.653zm.208 1.33c-.065 1.64-2.592.412-1.35-.653.517-.438 1.37-.027 1.35.653zm.167 1.289c-.065 1.64-2.592.412-1.35-.653.517-.438 1.37-.027 1.35.653zm.167 1.336c-.065 1.64-2.592.412-1.35-.653.517-.438 1.37-.027 1.35.653zm-.542-5.313c-.065 1.64-2.592.412-1.35-.653.517-.438 1.37-.027 1.35.653zm0-1.354c-.065 1.64-2.592.412-1.35-.653.517-.438 1.37-.027 1.35.653zm0-1.208c-.065 1.64-2.592.412-1.35-.653.517-.438 1.37-.027 1.35.653zm0-1.334c-.065 1.64-2.592.412-1.35-.653.517-.438 1.37-.027 1.35.653zm0-1.291c-.065 1.64-2.592.412-1.35-.653.517-.438 1.37-.027 1.35.653zm0-1.209c-.065 1.64-2.592.412-1.35-.653.517-.438 1.37-.027 1.35.653zm0-1.499c-.065 1.64-2.592.412-1.35-.653.517-.438 1.37-.027 1.35.653zm0-1.292c-.065 1.64-2.592.412-1.35-.653.517-.438 1.37-.027 1.35.653zm1.375 10.17c-.065 1.64-2.592.412-1.35-.653.517-.438 1.37-.027 1.35.653zm.208 1.33c-.065 1.64-2.592.412-1.35-.653.517-.438 1.37-.027 1.35.653zm.167 1.289c-.065 1.64-2.592.412-1.35-.653.517-.438 1.37-.027 1.35.653zm.167 1.336c-.065 1.64-2.592.412-1.35-.653.517-.438 1.37-.027 1.35.653zm-.542-5.313c-.065 1.64-2.592.412-1.35-.653.517-.438 1.37-.027 1.35.653zm0-1.354c-.065 1.64-2.592.412-1.35-.653.517-.438 1.37-.027 1.35.653zm0-1.208c-.065 1.64-2.592.412-1.35-.653.517-.438 1.37-.027 1.35.653zm0-1.334c-.065 1.64-2.592.412-1.35-.653.517-.438 1.37-.027 1.35.653zm0-1.291c-.065 1.64-2.592.412-1.35-.653.517-.438 1.37-.027 1.35.653zm0-1.209c-.065 1.64-2.592.412-1.35-.653.517-.438 1.37-.027 1.35.653zm0-1.499c-.065 1.64-2.592.412-1.35-.653.517-.438 1.37-.027 1.35.653zm0-1.292c-.065 1.64-2.592.412-1.35-.653.517-.438 1.37-.027 1.35.653zm1.103 10.337c-.065 1.64-2.592.412-1.35-.653.517-.438 1.37-.027 1.35.653zm.208 1.33c-.065 1.64-2.592.412-1.35-.653.517-.438 1.37-.027 1.35.653zm.167 1.289c-.065 1.64-2.592.412-1.35-.653.517-.438 1.37-.027 1.35.653zm.167 1.336c-.065 1.64-2.592.412-1.35-.653.517-.438 1.37-.027 1.35.653zm-.542-5.313c-.065 1.64-2.592.412-1.35-.653.517-.438 1.37-.027 1.35.653zm0-1.354c-.065 1.64-2.592.412-1.35-.653.517-.438 1.37-.027 1.35.653zm0-1.208c-.065 1.64-2.592.412-1.35-.653.517-.438 1.37-.027 1.35.653zm0-1.334c-.065 1.64-2.592.412-1.35-.653.517-.438 1.37-.027 1.35.653zm0-1.291c-.065 1.64-2.592.412-1.35-.653.517-.438 1.37-.027 1.35.653zm0-1.209c-.065 1.64-2.592.412-1.35-.653.517-.438 1.37-.027 1.35.653zm0-1.499c-.065 1.64-2.592.412-1.35-.653.517-.438 1.37-.027 1.35.653zm0-1.292c-.065 1.64-2.592.412-1.35-.653.517-.438 1.37-.027 1.35.653zm1.104 10.274c-.065 1.64-2.592.412-1.35-.653.517-.438 1.37-.027 1.35.653zm.208 1.33c-.065 1.64-2.592.412-1.35-.653.517-.438 1.37-.027 1.35.653zm.167 1.29c-.065 1.64-2.592.412-1.35-.653.517-.438 1.37-.027 1.35.653zm.167 1.335c-.065 1.64-2.592.412-1.35-.653.517-.438 1.37-.027 1.35.653zm-.542-5.313c-.065 1.64-2.592.412-1.35-.653.517-.438 1.37-.027 1.35.653zm0-1.354c-.065 1.64-2.592.412-1.35-.653.517-.438 1.37-.027 1.35.653zm0-1.208c-.065 1.64-2.592.412-1.35-.653.517-.438 1.37-.027 1.35.653zm0-1.334c-.065 1.64-2.592.412-1.35-.653.517-.438 1.37-.027 1.35.653zm0-1.291c-.065 1.64-2.592.412-1.35-.653.517-.438 1.37-.027 1.35.653zm0-1.208c-.065 1.64-2.592.412-1.35-.653.517-.438 1.37-.027 1.35.653zm0-1.5c-.065 1.64-2.592.412-1.35-.653.517-.438 1.37-.027 1.35.653zm0-1.292c-.065 1.64-2.592.412-1.35-.653.517-.438 1.37-.027 1.35.653zm1.104 10.503c-.065 1.64-2.592.412-1.35-.653.517-.438 1.37-.027 1.35.653zm.208 1.33c-.065 1.64-2.592.412-1.35-.653.517-.438 1.37-.027 1.35.653zm.167 1.29c-.065 1.64-2.592.412-1.35-.653.517-.438 1.37-.027 1.35.653zm.167 1.335c-.065 1.64-2.592.412-1.35-.653.517-.438 1.37-.027 1.35.653zm-.542-5.313c-.065 1.64-2.592.412-1.35-.653.517-.438 1.37-.027 1.35.653zm0-1.354c-.065 1.64-2.592.412-1.35-.653.517-.438 1.37-.027 1.35.653zm0-1.208c-.065 1.64-2.592.412-1.35-.653.517-.438 1.37-.027 1.35.653zm0-1.334c-.065 1.64-2.592.412-1.35-.653.517-.438 1.37-.027 1.35.653zm0-1.291c-.065 1.64-2.592.412-1.35-.653.517-.438 1.37-.027 1.35.653zm0-1.208c-.065 1.64-2.592.412-1.35-.653.517-.438 1.37-.027 1.35.653zm0-1.5c-.065 1.64-2.592.412-1.35-.653.517-.438 1.37-.027 1.35.653zm0-1.292c-.065 1.64-2.592.412-1.35-.653.517-.438 1.37-.027 1.35.653zm1.375 10.379c-.065 1.64-2.592.412-1.35-.653.517-.438 1.37-.027 1.35.653zm.208 1.33c-.065 1.64-2.592.412-1.35-.653.517-.438 1.37-.027 1.35.653zm.167 1.289c-.065 1.64-2.592.412-1.35-.653.517-.438 1.37-.027 1.35.653zm.167 1.336c-.065 1.64-2.592.412-1.35-.653.517-.438 1.37-.027 1.35.653zm-.542-5.313c-.065 1.64-2.592.412-1.35-.653.517-.438 1.37-.027 1.35.653zm0-1.354c-.065 1.64-2.592.412-1.35-.653.517-.438 1.37-.027 1.35.653zm0-1.208c-.065 1.64-2.592.412-1.35-.653.517-.438 1.37-.027 1.35.653zm0-1.334c-.065 1.64-2.592.412-1.35-.653.517-.438 1.37-.027 1.35.653zm0-1.291c-.065 1.64-2.592.412-1.35-.653.517-.438 1.37-.027 1.35.653zm0-1.209c-.065 1.64-2.592.412-1.35-.653.517-.438 1.37-.027 1.35.653zm0-1.499c-.065 1.64-2.592.412-1.35-.653.517-.438 1.37-.027 1.35.653zm0-1.292c-.065 1.64-2.592.412-1.35-.653.517-.438 1.37-.027 1.35.653zm1.105 10.337c-.065 1.64-2.592.412-1.35-.653.517-.438 1.37-.027 1.35.653zm.208 1.33c-.065 1.64-2.592.412-1.35-.653.517-.438 1.37-.027 1.35.653zm.167 1.289c-.065 1.64-2.592.412-1.35-.653.517-.438 1.37-.027 1.35.653zm.167 1.336c-.065 1.64-2.592.412-1.35-.653.517-.438 1.37-.027 1.35.653zm-.542-5.313c-.065 1.64-2.592.412-1.35-.653.517-.438 1.37-.027 1.35.653zm0-1.354c-.065 1.64-2.592.412-1.35-.653.517-.438 1.37-.027 1.35.653zm0-1.208c-.065 1.64-2.592.412-1.35-.653.517-.438 1.37-.027 1.35.653zm0-1.334c-.065 1.64-2.592.412-1.35-.653.517-.438 1.37-.027 1.35.653zm0-1.291c-.065 1.64-2.592.412-1.35-.653.517-.438 1.37-.027 1.35.653zm0-1.209c-.065 1.64-2.592.412-1.35-.653.517-.438 1.37-.027 1.35.653zm0-1.499c-.065 1.64-2.592.412-1.35-.653.517-.438 1.37-.027 1.35.653zm0-1.292c-.065 1.64-2.592.412-1.35-.653.517-.438 1.37-.027 1.35.653zm1.103 10.336c-.065 1.64-2.592.412-1.35-.653.517-.438 1.37-.027 1.35.653zm.208 1.33c-.065 1.64-2.592.412-1.35-.653.517-.438 1.37-.027 1.35.653zm.167 1.29c-.065 1.64-2.592.412-1.35-.653.517-.438 1.37-.027 1.35.653zm.167 1.335c-.065 1.64-2.592.412-1.35-.653.517-.438 1.37-.027 1.35.653zm-.542-5.313c-.065 1.64-2.592.412-1.35-.653.517-.438 1.37-.027 1.35.653zm0-1.354c-.065 1.64-2.592.412-1.35-.653.517-.438 1.37-.027 1.35.653zm0-1.208c-.065 1.64-2.592.412-1.35-.653.517-.438 1.37-.027 1.35.653zm0-1.334c-.065 1.64-2.592.412-1.35-.653.517-.438 1.37-.027 1.35.653zm0-1.291c-.065 1.64-2.592.412-1.35-.653.517-.438 1.37-.027 1.35.653zm0-1.208c-.065 1.64-2.592.412-1.35-.653.517-.438 1.37-.027 1.35.653zm0-1.5c-.065 1.64-2.592.412-1.35-.653.517-.438 1.37-.027 1.35.653zm0-1.292c-.065 1.64-2.592.412-1.35-.653.517-.438 1.37-.027 1.35.653z"/>
        </g>
        <path fill="url(#linearGradient942)" stroke="#000" stroke-miterlimit="10" d="M183.875 53.667s-66 10.708-87 24.458c-4.27 2.795-19.914 17.965-18.25 22.125 1.25 3.125 36.25 14.97 36.25 14.97l-63.25-8.97L78.012 63.5 106.514 49l77.361-17.5s-.75 8.375-.75 12.625.75 9.542.75 9.542z"/>
        <path fill="#ffe680" d="M70.625 141.166s47.11 7.328 63.375 16.459c16.266 9.131 24.25 36.25 24.25 36.25l-2.335-44.625-46.29-11.875z"/>
        <path fill="url(#linearGradient950)" stroke="#000" stroke-miterlimit="10" d="M70.625 141.166s47.11 7.328 63.375 16.459c16.266 9.131 24.25 36.25 24.25 36.25l-2.335-44.625-46.29-11.875z"/>
    </g>
    <g>
        <path fill="#f95" d="M144.65 46.164s4.225 36.961 4.787 37.273c.562.312 21.547-1.5 22.023-1.813.476-.313-4.398-42.042-4.398-42.042l-12.393 1.354zM134.919 49.606s5.796 35.206 5.626 35.581c-.17.375-15.039 4.134-15.5 3.625-.461-.509-6.316-34.207-6.316-34.207zM105.535 58.908s12.407 32.191 12.342 32.673c-.065.482-12.373 6.579-13.063 6.405-.69-.174-13.167-33.574-13.167-33.574l5.478-6.1zM79.072 73.887S100.5 99.892 100.5 100.579c0 .687-4.252 5.955-4.971 5.923-.719-.032-23.732-25.034-23.732-25.034L71.25 73.5zM96.09 144.057s-1.226 3.258-.97 3.851 12.584 3.97 13.076 3.625c.492-.345 1.402-4.816 1.402-4.816zM125.844 149.334s-5.423 6.557-5.133 7.205c.29.648 13.762 8.516 14.463 8.301.701-.215 4.346-6.199 4.346-6.199l-4.332-8.703zM141.287 170.157c.025.843 6.965 10.929 7.651 11.198.686.269 5.411-3.045 5.411-3.045l.982-9.248-7.937-4.615s-6.132 4.867-6.107 5.71zM151.653 186.686c.397-.69 4.735-1.245 4.735-1.245l1.736 3.247-1.736 3.813s-1.924 1.264-2.563 1.163c-.639-.101-2.569-6.288-2.172-6.978z"/>
        <path fill="url(#linearGradient1012)" stroke="#000" stroke-miterlimit="10" d="M79.072 73.887S100.5 99.892 100.5 100.579c0 .687-4.252 5.955-4.971 5.923-.719-.032-23.732-25.034-23.732-25.034L71.25 73.5zm26.463-14.979s12.407 32.191 12.342 32.673c-.065.482-12.373 6.579-13.063 6.405-.69-.174-13.167-33.574-13.167-33.574l5.478-6.1zm29.384-9.302s5.796 35.206 5.626 35.581c-.17.375-15.039 4.134-15.5 3.625-.461-.509-6.316-34.207-6.316-34.207zm9.731-3.442s4.225 36.961 4.787 37.273c.562.312 21.547-1.5 22.023-1.813.476-.313-4.398-42.042-4.398-42.042l-12.393 1.354z"/>
        <path fill="url(#linearGradient1020)" stroke="#000" stroke-miterlimit="10" d="M151.653 186.686c.397-.69 4.735-1.245 4.735-1.245l1.736 3.247-1.736 3.813s-1.924 1.264-2.563 1.163c-.639-.101-2.569-6.288-2.172-6.978zm-10.366-16.529c.025.843 6.965 10.929 7.651 11.198.686.269 5.411-3.045 5.411-3.045l.982-9.248-7.937-4.615s-6.132 4.867-6.107 5.71zm-15.443-20.823s-5.423 6.557-5.133 7.205c.29.648 13.762 8.516 14.463 8.301.701-.215 4.346-6.199 4.346-6.199l-4.332-8.703zm-29.754-5.277s-1.226 3.258-.97 3.851 12.584 3.97 13.076 3.625c.492-.345 1.402-4.816 1.402-4.816z"/>
    </g>
    <g>
        <path fill="#ff8080" d="M156.938 231.099s-7.522 6.98-8.022 6.397c-.5-.583.676-.974 1.583-2.583 1.167-2.065 1.502-4.834 1.502-4.834z"/>
        <path fill="url(#linearGradient1082)" stroke="#000" stroke-miterlimit="10" d="M156.938 231.099s-7.522 6.98-8.022 6.397c-.5-.583.676-.974 1.583-2.583 1.167-2.065 1.502-4.834 1.502-4.834z"/>
        <path fill="#ff8080" d="M155.915 216.829s-.702 4.371-1.917 8.334c-.873 2.85-2.23 5.389-2.753 6.399-.336.649 4.67.517 5.253.017.27-.231 1.777-1.961 3.333-5 1.805-3.527 3.668-8.416 3.668-8.416z"/>
        <path fill="url(#linearGradient1100)" stroke="#000" stroke-miterlimit="10" d="M155.915 216.829s-.702 4.371-1.917 8.334c-.873 2.85-2.23 5.389-2.753 6.399-.336.649 4.67.517 5.253.017.27-.231 1.777-1.961 3.333-5 1.805-3.527 3.668-8.416 3.668-8.416z"/>
        <path fill="#ff8080" d="M157.165 195.997s.39 5.559-.167 11.084c-.537 5.316-2.032 10.597-1.583 11.25.916 1.333 5.666 4.25 7.833 2.583 2.167-1.667 8.417-24.917 8.417-24.917z"/>
        <path fill="url(#linearGradient1108)" stroke="#000" stroke-miterlimit="10" d="M157.165 195.997s.39 5.559-.167 11.084c-.537 5.316-2.032 10.597-1.583 11.25.916 1.333 5.666 4.25 7.833 2.583 2.167-1.667 8.417-24.917 8.417-24.917z"/>
        <path fill="#ff8080" d="M173.92 169.833s.854 3.833-.005 11.833c-.752 7.006-.868 16.162-2.084 16.917-1.179.731-3.381-.347-6.725-.751-3.506-.423-8.142-.199-8.525-.583-.364-.364-.09-5.408-.166-10.5-.08-5.39-.5-10.833-.5-10.833z"/>
        <path fill="url(#linearGradient1116)" stroke="#000" stroke-miterlimit="10" d="M173.92 169.833s.854 3.833-.005 11.833c-.752 7.006-.868 16.162-2.084 16.917-1.179.731-3.381-.347-6.725-.751-3.506-.423-8.142-.199-8.525-.583-.364-.364-.09-5.408-.166-10.5-.08-5.39-.5-10.833-.5-10.833z"/>
        <path fill="#ff8080" d="M159.081 141.166s5.816 5.326 10.084 13.333c3.9 7.319 6.331 17.356 5.416 17.834-.894.466.672-1.498-9.666 2.416-8.584 3.25-8.743 6.679-9.5 5.834-.696-.778-2.491-6.637-5.25-11.667-2.856-5.21-6.667-9.583-6.667-9.583z"/>
        <path fill="url(#linearGradient1132)" stroke="#000" stroke-miterlimit="10" d="M159.081 141.166s5.816 5.326 10.084 13.333c3.9 7.319 6.331 17.356 5.416 17.834-.894.466.672-1.498-9.666 2.416-8.584 3.25-8.743 6.679-9.5 5.834-.696-.778-2.491-6.637-5.25-11.667-2.856-5.21-6.667-9.583-6.667-9.583z"/>
        <path fill="#ff8080" d="M134.915 119.667s10.801 6.02 14.25 9.083c3.449 3.063 11.588 12.332 11.837 13.333.134.54-4.003 2.334-8.837 8.167-3.398 4.102-5.228 10.324-8.334 10.17-2.933-.145-7.769-4.271-12.833-7.753-6.594-4.534-14.5-8.68-14.5-8.68L122.165 127z"/>
        <path fill="url(#linearGradient1140)" stroke="#000" stroke-miterlimit="10" d="M134.915 119.667s10.801 6.02 14.25 9.083c3.449 3.063 11.588 12.332 11.837 13.333.134.54-4.003 2.334-8.837 8.167-3.398 4.102-5.228 10.324-8.334 10.17-2.933-.145-7.769-4.271-12.833-7.753-6.594-4.534-14.5-8.68-14.5-8.68L122.165 127z"/>
        <path fill="#ff8080" d="M104.5 110.834s31.582 5.75 31.916 9.583c.057.657-.036-.676-1.25-.25-1.946.684-4.975 3.703-8.084 8.833-7.374 12.166-5.771 18.096-6.832 18.834-1.916 1.333-34.416-6-34.416-6l3.833-19z"/>
        <path fill="url(#linearGradient1148)" stroke="#000" stroke-miterlimit="10" d="M104.5 110.834s31.582 5.75 31.916 9.583c.057.657-.036-.676-1.25-.25-1.946.684-4.975 3.703-8.084 8.833-7.374 12.166-5.771 18.096-6.832 18.834-1.916 1.333-34.416-6-34.416-6l3.833-19z"/>
        <path fill="#ff8080" d="M49.518 136.667c.313 2.5 33.483 9.168 37.316 6.834 2.257-1.374-.167-6.334 7.833-20.667 3.419-6.125 12.237-11.412 11.833-12.667-.247-.766-25.475-6-27.167-5.333-.704.278-12.694 1.923-18.667 8-8.369 8.516-11.331 22.374-11.148 23.833z"/>
        <path fill="url(#linearGradient1164)" stroke="#000" stroke-miterlimit="10" d="M49.518 136.667c.313 2.5 33.483 9.168 37.316 6.834 2.257-1.374-.167-6.334 7.833-20.667 3.419-6.125 12.237-11.412 11.833-12.667-.247-.766-25.475-6-27.167-5.333-.704.278-12.694 1.923-18.667 8-8.369 8.516-11.331 22.374-11.148 23.833z"/>
        <path fill="#ff8080" d="M67.501 96.667s1.833 2.667 4.667 4.5c2.834 1.833 6.667 2.833 7.167 3.667.468.779-12.771 5.28-19.333 12.667-7.468 8.408-8.517 19.801-10.48 20.333-3.687 1-15.02-8-19.02-16s0-20.5 0-20.5 10.879-7.64 19.02-8.667c8.141-1.027 17.979 4 17.979 4z"/>
        <path fill="url(#linearGradient1172)" stroke="#000" stroke-miterlimit="10" d="M67.501 96.667s1.833 2.667 4.667 4.5c2.834 1.833 6.667 2.833 7.167 3.667.468.779-12.771 5.28-19.333 12.667-7.468 8.408-8.517 19.801-10.48 20.333-3.687 1-15.02-8-19.02-16s0-20.5 0-20.5 10.879-7.64 19.02-8.667c8.141-1.027 17.979 4 17.979 4z"/>
        <path fill="#ff8080" d="M64.667 69.167c-1.235-1.321-9.736 4.135-19.333 12.667-8.151 7.247-16.41 18.925-16.334 20.609.09 1.993 9.662-5.301 20.521-6.776 9.123-1.238 19.781 3.471 20.313 3.167 1.167-.667-2.965-4.127-3.167-8.333-.229-4.783.379-4.484.379-4.484s-1.143-15.529-2.379-16.85z"/>
        <path fill="url(#linearGradient1180)" stroke="#000" stroke-miterlimit="10" d="M64.667 69.167c-1.235-1.321-9.736 4.135-19.333 12.667-8.151 7.247-16.41 18.925-16.334 20.609.09 1.993 9.662-5.301 20.521-6.776 9.123-1.238 19.781 3.471 20.313 3.167 1.167-.667-2.965-4.127-3.167-8.333-.229-4.783.379-4.484.379-4.484s-1.143-15.529-2.379-16.85z"/>
        <path fill="#ff8080" d="M89.667 53.667s-25.142 11.87-27 15C59.501 74 65.001 86.5 68.001 86.833c1.229.136 2.167-3.787 6-8.333 2.302-2.73 5.629-4.792 8.167-7.333 3.543-3.55 6-7.167 6-7.167z"/>
        <path fill="url(#linearGradient1188)" stroke="#000" stroke-miterlimit="10" d="M89.667 53.667s-25.142 11.87-27 15C59.501 74 65.001 86.5 68.001 86.833c1.229.136 2.167-3.787 6-8.333 2.302-2.73 5.629-4.792 8.167-7.333 3.543-3.55 6-7.167 6-7.167z"/>
        <path fill="#ff8080" d="M112.886 45.134s-21.552 5.033-23.719 7.533c-2.167 2.5-5.833 12.833-3.833 15 .763.827 4.401-2.514 8.667-4.5 6.918-3.221 15.167-4.667 16-6.881.488-1.298 2.885-11.152 2.885-11.152z"/>
        <path fill="url(#linearGradient1196)" stroke="#000" stroke-miterlimit="10" d="M112.886 45.134s-21.552 5.033-23.719 7.533c-2.167 2.5-5.833 12.833-3.833 15 .763.827 4.401-2.514 8.667-4.5 6.918-3.221 15.167-4.667 16-6.881.488-1.298 2.885-11.152 2.885-11.152z"/>
        <path fill="#ff8080" d="M141.167 37.333s-25.5 3.333-27.333 5.833c-1.833 2.5-3.333 12.167-2 12.833 1.333.666 27.085-7.128 28.459-8.48 1.374-1.352.874-10.186.874-10.186z"/>
        <path fill="url(#linearGradient1204)" stroke="#000" stroke-miterlimit="10" d="M141.167 37.333s-25.5 3.333-27.333 5.833c-1.833 2.5-3.333 12.167-2 12.833 1.333.666 27.085-7.128 28.459-8.48 1.374-1.352.874-10.186.874-10.186z"/>
        <path fill="#ff8080" d="M183.667 28.333c.833.167.833 7.333 0 8.833s-7.223.023-15 2c-13.35 3.393-30.474 9.465-31 8.833-.833-1 .334-10.167 2.167-11.667 1.833-1.5 43-8.165 43.833-7.999z"/>
        <path fill="url(#linearGradient1212)" stroke="#000" stroke-miterlimit="10" d="M183.667 28.333c.833.167.833 7.333 0 8.833s-7.223.023-15 2c-13.35 3.393-30.474 9.465-31 8.833-.833-1 .334-10.167 2.167-11.667 1.833-1.5 43-8.165 43.833-7.999z"/>
    </g>
    <g>
        <ellipse cx="184.984" cy="54.579" fill="#f95" rx="2.879" ry="26.278" transform="rotate(-2.292 184.791 54.545)"/>
        <ellipse cx="182.66" cy="61.909" fill="url(#linearGradient1235)" stroke="#000" stroke-miterlimit="10" rx="2.879" ry="26.278" transform="rotate(-2.287)"/>
    </g>
</svg>
