<?xml version="1.0" encoding="UTF-8" standalone="no"?>
<svg
   xmlns:dc="http://purl.org/dc/elements/1.1/"
   xmlns:cc="http://creativecommons.org/ns#"
   xmlns:rdf="http://www.w3.org/1999/02/22-rdf-syntax-ns#"
   xmlns:svg="http://www.w3.org/2000/svg"
   xmlns="http://www.w3.org/2000/svg"
   xmlns:xlink="http://www.w3.org/1999/xlink"
   xmlns:sodipodi="http://sodipodi.sourceforge.net/DTD/sodipodi-0.dtd"
   xmlns:inkscape="http://www.inkscape.org/namespaces/inkscape"
   viewBox="0 0 256 256"
   version="1.1"
   id="svg283"
   sodipodi:docname="DragonRifle.svg"
   inkscape:version="1.0 (4035a4fb49, 2020-05-01)">
  <metadata
     id="metadata287">
    <rdf:RDF>
      <cc:Work
         rdf:about="">
        <dc:format>image/svg+xml</dc:format>
        <dc:type
           rdf:resource="http://purl.org/dc/dcmitype/StillImage" />
      </cc:Work>
    </rdf:RDF>
  </metadata>
  <sodipodi:namedview
     inkscape:document-rotation="0"
     pagecolor="#ffffff"
     bordercolor="#666666"
     borderopacity="1"
     objecttolerance="10"
     gridtolerance="10"
     guidetolerance="10"
     inkscape:pageopacity="0"
     inkscape:pageshadow="2"
     inkscape:window-width="1920"
     inkscape:window-height="1001"
     id="namedview285"
     showgrid="false"
     inkscape:zoom="2.8284271"
     inkscape:cx="162.6379"
     inkscape:cy="113.52343"
     inkscape:window-x="-9"
     inkscape:window-y="-9"
     inkscape:window-maximized="1"
     inkscape:current-layer="svg283" />
  <defs
     id="defs83">
    <linearGradient
       id="innoGrad10">
      <stop
         offset="0"
         stop-color="#362f2a"
         stop-opacity=".502"
         id="stop2" />
      <stop
         offset="1"
         stop-color="#362f2a"
         stop-opacity="0"
         id="stop4" />
    </linearGradient>
    <linearGradient
       id="innoGrad9">
      <stop
         offset="0"
         stop-color="#362f2a"
         stop-opacity=".502"
         id="stop7" />
      <stop
         offset=".86"
         stop-color="#362f2a"
         stop-opacity=".502"
         id="stop9" />
      <stop
         offset="1"
         stop-color="#362f2a"
         stop-opacity="0"
         id="stop11" />
    </linearGradient>
    <linearGradient
       id="innoGrad8">
      <stop
         offset="0"
         stop-color="#333"
         id="stop14" />
      <stop
         offset="1"
         stop-color="#4d4d4d"
         id="stop16" />
    </linearGradient>
    <linearGradient
       id="innoGrad7">
      <stop
         offset="0"
         stop-color="#ffd42a"
         stop-opacity="0"
         id="stop19" />
      <stop
         offset="1"
         stop-color="#ffd42a"
         stop-opacity=".502"
         id="stop21" />
    </linearGradient>
    <linearGradient
       id="InnoGrad6">
      <stop
         offset="0"
         stop-color="#ff7f2a"
         stop-opacity="0"
         id="stop24" />
      <stop
         offset="1"
         stop-color="#ff7f2a"
         stop-opacity=".502"
         id="stop26" />
    </linearGradient>
    <linearGradient
       id="innoGrad5">
      <stop
         offset="0"
         stop-color="#ffd42a"
         stop-opacity=".502"
         id="stop29" />
      <stop
         offset=".5"
         stop-color="#ffd42a"
         stop-opacity="0"
         id="stop31" />
      <stop
         offset="1"
         stop-color="#ffd42a"
         stop-opacity=".502"
         id="stop33" />
    </linearGradient>
    <linearGradient
       id="innoGrad4">
      <stop
         offset="0"
         stop-color="#abc837"
         stop-opacity=".502"
         id="stop36" />
      <stop
         offset=".5"
         stop-color="#abc837"
         stop-opacity="0"
         id="stop38" />
      <stop
         offset="1"
         stop-color="#abc837"
         stop-opacity=".502"
         id="stop40" />
    </linearGradient>
    <linearGradient
       id="innoGrad3">
      <stop
         offset="0"
         stop-color="#abc837"
         stop-opacity=".502"
         id="stop43" />
      <stop
         offset="1"
         stop-color="#abc837"
         stop-opacity="0"
         id="stop45" />
    </linearGradient>
    <linearGradient
       id="innoGrad2">
      <stop
         offset="0"
         stop-color="#ffd42a"
         stop-opacity=".502"
         id="stop48" />
      <stop
         offset="1"
         stop-color="#ffd42a"
         stop-opacity="0"
         id="stop50" />
    </linearGradient>
    <linearGradient
       id="innoGrad1">
      <stop
         offset="0"
         stop-color="#ff2a2a"
         stop-opacity=".502"
         id="stop53" />
      <stop
         offset="1"
         stop-color="#ff2a2a"
         stop-opacity="0"
         id="stop55" />
    </linearGradient>
    <linearGradient
       id="linearGradient1466"
       x1="112.884"
       x2="113.125"
       y1="127.633"
       y2="133.425"
       gradientUnits="userSpaceOnUse"
       xlink:href="#innoGrad1" />
    <linearGradient
       id="linearGradient1517"
       x1="102.477"
       x2="103.825"
       y1="128.076"
       y2="132.183"
       gradientUnits="userSpaceOnUse"
       xlink:href="#innoGrad2" />
    <linearGradient
       id="linearGradient1525"
       x1="100.675"
       x2="101.268"
       y1="128.413"
       y2="135.625"
       gradientUnits="userSpaceOnUse"
       xlink:href="#innoGrad2" />
    <linearGradient
       id="linearGradient1558"
       x1="161.947"
       x2="161.947"
       y1="110.309"
       y2="108.865"
       gradientUnits="userSpaceOnUse"
       xlink:href="#innoGrad3" />
    <linearGradient
       id="linearGradient1581"
       x1="165.873"
       x2="165.873"
       y1="117.451"
       y2="109.733"
       gradientUnits="userSpaceOnUse"
       xlink:href="#innoGrad4" />
    <linearGradient
       id="linearGradient1617"
       x1="99.898"
       x2="99.898"
       y1="116.875"
       y2="109.75"
       gradientUnits="userSpaceOnUse"
       xlink:href="#innoGrad4" />
    <linearGradient
       id="linearGradient1648"
       x1="113.187"
       x2="113.188"
       y1="109.75"
       y2="116.875"
       gradientUnits="userSpaceOnUse"
       xlink:href="#innoGrad4" />
    <linearGradient
       id="linearGradient1679"
       x1="101.792"
       x2="101.792"
       y1="109.75"
       y2="108.152"
       gradientUnits="userSpaceOnUse"
       xlink:href="#innoGrad3" />
    <linearGradient
       id="linearGradient1702"
       x1="130.625"
       x2="137.156"
       y1="110.438"
       y2="110.438"
       gradientUnits="userSpaceOnUse"
       xlink:href="#innoGrad4" />
    <linearGradient
       id="linearGradient1725"
       x1="135.166"
       x2="135.166"
       y1="118.5"
       y2="122.75"
       gradientUnits="userSpaceOnUse"
       xlink:href="#innoGrad5" />
    <linearGradient
       id="linearGradient1756"
       x1="259.711"
       x2="259.711"
       y1="119.203"
       y2="116.931"
       gradientUnits="userSpaceOnUse"
       xlink:href="#innoGrad2" />
    <linearGradient
       id="linearGradient1779"
       x1="135.166"
       x2="135.166"
       y1="118.5"
       y2="122.75"
       gradientUnits="userSpaceOnUse"
       xlink:href="#innoGrad5" />
    <linearGradient
       id="linearGradient1802"
       x1="97.968"
       x2="97.968"
       y1="117.749"
       y2="122.219"
       gradientUnits="userSpaceOnUse"
       xlink:href="#innoGrad5" />
    <linearGradient
       id="linearGradient1844"
       x1="50.376"
       x2="50.915"
       y1="118.188"
       y2="139.397"
       gradientUnits="userSpaceOnUse"
       xlink:href="#InnoGrad6" />
    <linearGradient
       id="linearGradient1869"
       x1="113.613"
       x2="113.613"
       y1="119.25"
       y2="127.511"
       gradientUnits="userSpaceOnUse"
       xlink:href="#InnoGrad6" />
    <linearGradient
       id="linearGradient1896"
       x1="98"
       x2="100.675"
       y1="120.535"
       y2="128.413"
       gradientUnits="userSpaceOnUse"
       xlink:href="#InnoGrad6" />
    <linearGradient
       id="linearGradient2046"
       x1="106.824"
       x2="103.487"
       y1="119.999"
       y2="123.829"
       gradientUnits="userSpaceOnUse"
       xlink:href="#innoGrad2" />
    <radialGradient
       id="radialGradient2069"
       cx="102.833"
       cy="125.729"
       r="2.141"
       fx="102.833"
       fy="125.729"
       gradientTransform="matrix(1 0 0 .8538 0 18.381)"
       gradientUnits="userSpaceOnUse"
       xlink:href="#innoGrad7" />
    <linearGradient
       id="linearGradient2108"
       x1="50.915"
       x2="50.376"
       y1="139.397"
       y2="118.187"
       gradientUnits="userSpaceOnUse"
       xlink:href="#innoGrad8" />
    <radialGradient
       id="radialGradient1037"
       cx="93.65"
       cy="196.359"
       r="23.64"
       fx="93.65"
       fy="196.359"
       gradientTransform="matrix(.4788 1.10304 -1.26079 .54728 306.433 -30.412)"
       gradientUnits="userSpaceOnUse"
       xlink:href="#innoGrad9" />
    <linearGradient
       id="linearGradient1066"
       x1="129.033"
       x2="145.625"
       y1="139.047"
       y2="179.801"
       gradientUnits="userSpaceOnUse"
       xlink:href="#innoGrad10" />
    <linearGradient
       id="linearGradient1089"
       x1="145.345"
       x2="135.13"
       y1="175.624"
       y2="192.682"
       gradientUnits="userSpaceOnUse"
       xlink:href="#innoGrad10" />
    <linearGradient
       id="linearGradient1112"
       x1="131.733"
       x2="134.206"
       y1="136.017"
       y2="147.507"
       gradientUnits="userSpaceOnUse"
       xlink:href="#innoGrad10" />
    <linearGradient
       id="linearGradient1135"
       x1="49.569"
       x2="73.41"
       y1="231.262"
       y2="254.47"
       gradientUnits="userSpaceOnUse"
       xlink:href="#innoGrad10" />
    <linearGradient
       id="linearGradient1182"
       x1="81.462"
       x2="83.697"
       y1="216.261"
       y2="218.188"
       gradientUnits="userSpaceOnUse"
       xlink:href="#innoGrad10" />
  </defs>
  <path
     style="fill:#ffb380;stroke:#000000;stroke-width:1.38539px;stroke-linecap:butt;stroke-linejoin:miter;stroke-opacity:1;fill-opacity:1"
     d="m 104.1629,161.86442 c -5.621532,-0.66609 -7.001955,-0.76339 -7.001955,-0.76339 0,0 1.784448,-9.46603 10.183605,-14.90039 8.39915,-5.43436 13.59255,-7.86807 17.16258,-4.99255 3.57005,2.87552 4.25343,8.85578 -0.32595,12.82048 -4.5794,3.96473 -3.38051,5.03477 -3.38051,5.03477 l -0.22306,4.67973 -2.76896,4.90834 c 0,0 -1.19089,7.813 2.90023,13.0039 0,0 -6.00502,-1.90463 -10.58937,-1.25469 -4.58431,0.64991 -7.39601,1.44357 -9.45862,3.18772 l 2.73183,-15.78334 c 0,0 1.31661,2.87364 4.19024,1.55703 2.87367,-1.3166 6.83165,-11.78449 6.36387,-13.43075 -0.4678,-1.64625 -1.62022,-3.10847 -1.62022,-3.10847 0,0 -7.14755,3.26271 -8.16371,9.0416 z"
     id="path1140"
     sodipodi:nodetypes="ccsssccccsccsscc" />
  <path
     style="fill:#ffe680;stroke:#000000;stroke-width:1.38539px;stroke-linecap:butt;stroke-linejoin:miter;stroke-opacity:1;fill-opacity:1"
     d="m 78.83538,168.07689 c 3.304319,-10.54536 3.304319,-10.54536 3.304319,-10.54536 l 10.170575,-13.11228 4.347685,-12.07882 16.215271,-12.6612 15.28705,3.00444 -2.77336,19.49032 c 0,0 -3.75219,-5.81359 -17.66135,3.60778 C 93.8164,155.20315 97.160914,161.101 97.160914,161.101 l -12.468556,-2.73677 z"
     id="path1142" />
  <path
     style="fill:#abc837;stroke:#000000;stroke-width:1.38539px;stroke-linecap:butt;stroke-linejoin:miter;stroke-opacity:1;fill-opacity:1"
     d="m 35.671804,179.93122 c 9.994586,-4.91388 39.216227,-18.81788 43.163576,-11.85433 l 3.304319,-10.54536 10.170575,-13.11228 4.347685,-12.07882 z"
     id="path1144" />
  <path
     style="fill:#ffe680;stroke:#000000;stroke-width:1.38539px;stroke-linecap:butt;stroke-linejoin:miter;stroke-opacity:1;fill-opacity:1"
     d="m 27.559429,205.88134 c 5.205145,1.94244 27.112492,2.21826 27.112492,2.21826 l 4.649427,-9.59057 -17.664418,-1.96046 13.865815,-17.44689 -2.398384,-6.05089 -12.186048,4.38911 C 29.22495,186.79 2.842854,208.05659 2.842854,208.05659 l 23.478481,30.09098 c 0,0 14.122947,-16.81987 13.103801,-30.59514 z"
     id="path1146" />
  <path
     style="fill:none;stroke:#ff0000;stroke-width:1.38539px;stroke-linecap:butt;stroke-linejoin:miter;stroke-opacity:1"
     d="m 55.139236,177.86313 3.03536,-1.56258 c 0,0 8.39347,15.3119 3.076752,22.7023 l -2.503741,0.43246"
     id="path1148" />
  <path
     style="fill:#ffb380;stroke:#000000;stroke-width:1.38539px;stroke-linecap:butt;stroke-linejoin:miter;stroke-opacity:1;fill-opacity:1"
     d="m 55.230172,207.30405 c 5.198325,0.88107 23.847908,-2.67588 23.847908,-2.67588 0,0 -4.507463,-3.91456 -5.358774,-6.79938 l 1.309209,-2.09853 -1.210655,-5.44617 -2.832132,-2.39038 0.557662,-4.70638 4.098599,-3.82283 c 0,0 -12.282085,-0.39474 -9.511849,-11.46736 l -13.005779,5.15365 2.014875,4.81234 3.03536,-1.56258 c 0,0 8.223078,16.74995 3.076752,22.7023 l -2.503741,0.43246 z"
     id="path1150" />
  <path
     style="fill:#abc837;stroke:#000000;stroke-width:1.38539px;stroke-linecap:butt;stroke-linejoin:miter;stroke-opacity:1;fill-opacity:1"
     d="m 65.842626,171.44242 2.86498,-0.12454 1.777579,3.45856 3.463477,1.5372 -1.240424,2.63695 c 0,0 -6.082493,-1.25098 -6.865612,-7.50817 z"
     id="path1152"
     sodipodi:nodetypes="cccccc" />
  <path
     style="fill:#ffe680;stroke:#000000;stroke-width:1.38539px;stroke-linecap:butt;stroke-linejoin:miter;stroke-opacity:1;fill-opacity:1"
     d="m 59.393456,148.67195 4.92446,6.54905 57.053624,-44.60996 c 0,0 18.80083,-14.343365 17.59392,-24.296412 z"
     id="path1154" />
  <path
     style="fill:#abc837;stroke:#000000;stroke-width:1.38539px;stroke-linecap:butt;stroke-linejoin:miter;stroke-opacity:1;fill-opacity:1"
     d="m 134.62511,117.35157 c -1.43124,0.89097 -10.83473,2.4944 -21.75186,2.3277 l 15.28706,3.00444 -2.77335,19.49033 c 0,0 0.93378,-8.44 9.23815,-24.82247 z"
     id="path1156" />
  <path
     style="fill:none;stroke:#ff0000;stroke-width:1.38539px;stroke-linecap:butt;stroke-linejoin:miter;stroke-opacity:1"
     d="M 134.62511,117.35157 198.9899,66.979477"
     id="path1158" />
  <path
     style="fill:#ffb380;stroke:#000000;stroke-width:1.38539px;stroke-linecap:butt;stroke-linejoin:miter;stroke-opacity:1;fill-opacity:1"
     d="m 132.10461,124.07904 69.61331,-54.390102 -4.96658,-6.752893 c 0,0 -3.84516,-5.029183 2.09239,-9.827259 l -83.80564,66.760684 19.58702,-2.5179 z"
     id="path1164" />
  <path
     style="fill:#ffb380;stroke:#000000;stroke-width:1.38539px;stroke-linecap:butt;stroke-linejoin:miter;stroke-opacity:1;fill-opacity:1"
     d="m 185.01751,83.088049 16.25486,-0.128804 8.3347,-6.568812 0.3557,-6.917692 -6.69402,-1.124569 -1.55084,1.34074 z"
     id="path1166" />
  <path
     style="fill:#ffe680;stroke:#000000;stroke-width:1.38539px;stroke-linecap:butt;stroke-linejoin:miter;stroke-opacity:1;fill-opacity:1"
     d="m 126.62243,136.2223 68.20872,-53.164572 -9.81364,0.03032 -52.9129,40.990992 z"
     id="path1168" />
  <path
     style="fill:#abc837;stroke:#000000;stroke-width:1.38539px;stroke-linecap:butt;stroke-linejoin:miter;stroke-opacity:1;fill-opacity:1"
     d="m 195.70054,59.497326 27.3282,-21.419639 1.44855,10.710805 -23.95394,19.234343 -4.43684,-5.629586 z"
     id="path1170" />
  <path
     style="fill:#ffe680;stroke:#000000;stroke-width:1.38539px;stroke-linecap:butt;stroke-linejoin:miter;stroke-opacity:1;fill-opacity:1"
     d="m 225.7741,52.388954 -2.7701,-16.899239 25.17701,-19.487128 3.27752,17.091934 z"
     id="path1172" />
  <path
     style="fill:#ffe680;stroke:#000000;stroke-width:1.38539px;stroke-linecap:butt;stroke-linejoin:miter;stroke-opacity:1;fill-opacity:1"
     d="m 251.45853,33.094521 -2.20328,9.084998 -19.92414,14.873079 -3.55704,-4.663616 z"
     id="path1174" />
  <path
     style="fill:#ffb380;stroke:#000000;stroke-width:1.38539px;stroke-linecap:butt;stroke-linejoin:miter;stroke-opacity:1;fill-opacity:1"
     d="m 84.692385,158.36427 -6.724463,17.03365 21.629134,6.53983 3.504484,-20.06653 z"
     id="path1176" />
  <path
     style="fill:#abc837;stroke:#000000;stroke-width:1px;stroke-linecap:butt;stroke-linejoin:miter;stroke-opacity:1;fill-opacity:1"
     d="m 79.588541,171.88174 3.934346,1.06555 -0.901621,3.44256 -4.653344,-0.99193 1.620619,-3.02439 z"
     id="path1178" />
  <path
     id="path1178-6"
     d="m 87.60268,174.2502 3.934346,1.06555 -0.901621,3.44256 -4.653344,-0.99193 1.620619,-3.02439 z"
     style="fill:#abc837;stroke:#000000;stroke-width:1px;stroke-linecap:butt;stroke-linejoin:miter;stroke-opacity:1;fill-opacity:1" />
  <path
     id="path1178-9"
     d="m 96.026425,176.63553 3.934346,1.06555 -0.90161,3.44256 -4.653346,-0.99193 1.62061,-3.02439 z"
     style="fill:#abc837;stroke:#000000;stroke-width:1px;stroke-linecap:butt;stroke-linejoin:miter;stroke-opacity:1;fill-opacity:1" />
  <path
     style="fill:none;stroke:#abc837;stroke-width:1px;stroke-linecap:butt;stroke-linejoin:miter;stroke-opacity:1;fill-opacity:1"
     d="m 207.31487,68.19161 5.61266,-7.51301 c 0,0 4.68458,5.170719 6.0546,4.110059 1.37002,-1.06066 6.0546,-8.662058 6.0546,-8.662058 l 4.37523,3.800699 -6.36397,3.623922 -8.70625,-3.668116 12.9047,-4.065865 -6.23138,0.928078 -3.27037,8.485281 -3.18198,6.275573 -3.88909,-4.817165 6.01041,-5.480077 c 0,0 7.6014,-4.728777 7.77818,-4.861359 0.17678,-0.132583 0.7513,-1.767768 0.7513,-1.767768 l -8.48528,2.872622 c 0,0 -1.14905,2.165514 -1.06066,2.386485 0.0884,0.220971 3.53553,6.761709 3.53553,6.761709 l -2.60745,3.270369 -5.48008,2.607456 c 9.47971,0.198336 11.57887,-10.915961 11.79984,-11.048543 0.22097,-0.132582 1.81196,-2.121321 2.34229,-2.519068 0.53033,-0.397748 2.25391,-1.060661 2.25391,-1.060661 l -2.38649,6.142991 -8.3085,2.209708 c 0,0 -3.62393,-2.828427 -3.97748,-3.093592 -0.35355,-0.265165 -4.46361,5.170719 -4.46361,5.170719"
     id="path1216"
     sodipodi:nodetypes="ccsccccccccccsccscccsscccsc" />
</svg>
