<?xml version="1.0" encoding="UTF-8" standalone="no"?>
<svg
   xmlns:dc="http://purl.org/dc/elements/1.1/"
   xmlns:cc="http://creativecommons.org/ns#"
   xmlns:rdf="http://www.w3.org/1999/02/22-rdf-syntax-ns#"
   xmlns:svg="http://www.w3.org/2000/svg"
   xmlns="http://www.w3.org/2000/svg"
   xmlns:sodipodi="http://sodipodi.sourceforge.net/DTD/sodipodi-0.dtd"
   xmlns:inkscape="http://www.inkscape.org/namespaces/inkscape"
   version="1.1"
   id="svg4206"
   viewBox="0 0 256 256"
   sodipodi:docname="claws.svg"
   inkscape:version="0.92.3 (2405546, 2018-03-11)">
  <sodipodi:namedview
     pagecolor="#ffffff"
     bordercolor="#666666"
     borderopacity="1"
     objecttolerance="10"
     gridtolerance="10"
     guidetolerance="10"
     inkscape:pageopacity="0"
     inkscape:pageshadow="2"
     inkscape:window-width="1920"
     inkscape:window-height="1001"
     id="namedview58"
     showgrid="false"
     inkscape:zoom="2.8284271"
     inkscape:cx="84.023731"
     inkscape:cy="128.77007"
     inkscape:window-x="-9"
     inkscape:window-y="-9"
     inkscape:window-maximized="1"
     inkscape:current-layer="svg4206"
     inkscape:snap-global="true"
     showguides="false"
     inkscape:snap-bbox="false" />
  <style
     id="style3">
    svg { cursor: default; }
  </style>
  <defs
     id="defs4208">
    <inkscape:path-effect
       effect="powerstroke"
       id="path-effect907"
       is_visible="true"
       offset_points="0.55768567,0.32361255"
       sort_points="true"
       interpolator_type="CubicBezierJohan"
       interpolator_beta="0.2"
       start_linecap_type="zerowidth"
       linejoin_type="extrp_arc"
       miter_limit="4"
       end_linecap_type="zerowidth" />
    <inkscape:path-effect
       effect="powerstroke"
       id="path-effect903"
       is_visible="true"
       offset_points="0.36787538,0.40439423"
       sort_points="true"
       interpolator_type="CubicBezierJohan"
       interpolator_beta="0.2"
       start_linecap_type="zerowidth"
       linejoin_type="extrp_arc"
       miter_limit="4"
       end_linecap_type="zerowidth" />
    <inkscape:path-effect
       effect="powerstroke"
       id="path-effect880"
       is_visible="true"
       offset_points="0.43866375,0.47000421"
       sort_points="true"
       interpolator_type="CubicBezierJohan"
       interpolator_beta="0.2"
       start_linecap_type="zerowidth"
       linejoin_type="extrp_arc"
       miter_limit="4"
       end_linecap_type="zerowidth" />
    <inkscape:path-effect
       effect="powerstroke"
       id="path-effect876"
       is_visible="true"
       offset_points="0.31349214,0.3253567"
       sort_points="true"
       interpolator_type="CubicBezierJohan"
       interpolator_beta="0.2"
       start_linecap_type="zerowidth"
       linejoin_type="extrp_arc"
       miter_limit="4"
       end_linecap_type="zerowidth" />
    <inkscape:path-effect
       effect="powerstroke"
       id="path-effect872"
       is_visible="true"
       offset_points="0.47974354,0.61540457"
       sort_points="true"
       interpolator_type="CubicBezierJohan"
       interpolator_beta="0.2"
       start_linecap_type="zerowidth"
       linejoin_type="extrp_arc"
       miter_limit="4"
       end_linecap_type="zerowidth" />
    <inkscape:path-effect
       effect="powerstroke"
       id="path-effect868"
       is_visible="true"
       offset_points="0.22476176,0.72470812"
       sort_points="true"
       interpolator_type="CubicBezierJohan"
       interpolator_beta="0.2"
       start_linecap_type="zerowidth"
       linejoin_type="extrp_arc"
       miter_limit="4"
       end_linecap_type="zerowidth" />
    <inkscape:path-effect
       effect="powerstroke"
       id="path-effect880-1"
       is_visible="true"
       offset_points="0.43759178,0.29829899"
       sort_points="true"
       interpolator_type="CubicBezierJohan"
       interpolator_beta="0.2"
       start_linecap_type="zerowidth"
       linejoin_type="extrp_arc"
       miter_limit="4"
       end_linecap_type="zerowidth" />
  </defs>
  <metadata
     id="metadata4211">
    <rdf:RDF>
      <cc:Work
         rdf:about="">
        <dc:format>image/svg+xml</dc:format>
        <dc:type
           rdf:resource="http://purl.org/dc/dcmitype/StillImage" />
        <dc:title></dc:title>
      </cc:Work>
    </rdf:RDF>
  </metadata>
  <path
     style="fill:none;stroke:#000000;stroke-width:0.99999994px;stroke-linecap:butt;stroke-linejoin:miter;stroke-opacity:1"
     d="M 158.78274,98.686557 C 116.45216,116.99859 79.177671,133.67916 35.039051,157.52794 58.758131,135.76372 100.10017,115.4214 130.49847,97.423854 c 10.74697,0.41101 18.4918,-7.5064 24.4962,-13.51079 10.59614,0.32689 14.86508,-3.44026 21.71828,-11.11168 14.98404,0.8357 26.75718,-6.65661 37.18624,-14.079 2.69169,2.55454 1.99951,4.57307 2.08344,7.57614 -14.50282,5.48536 -21.85738,6.45084 -19.50857,14.71035"
     id="path1091"
     inkscape:connector-curvature="0"
     sodipodi:nodetypes="cccccccc" />
  <path
     style="opacity:1;fill:#ff8080;fill-opacity:1;stroke:none;stroke-width:0.125;stroke-opacity:1"
     d="m 39.717019,154.18982 c 6.977913,-5.66429 11.482707,-9.00199 18.421443,-13.64886 11.006735,-7.3712 22.154207,-14.02901 44.687498,-26.68953 14.82244,-8.3281 19.2808,-10.85692 24.6875,-14.002963 l 3.0625,-1.781994 1.4375,-0.08472 c 3.74506,-0.220723 6.38793,-0.936628 9.75,-2.641098 3.56023,-1.804932 6.88993,-4.384147 11.625,-9.00484 l 1.8125,-1.768717 1.9375,-0.08691 c 7.69358,-0.34513 11.93923,-2.502034 18.07874,-9.184495 l 1.69895,-1.849199 2.8299,-0.07106 c 1.55645,-0.03909 3.53304,-0.161446 4.39241,-0.271912 8.84161,-1.136523 17.33119,-4.923547 28.22838,-12.592094 1.60766,-1.13134 1.53248,-1.131732 2.26003,0.01176 0.61734,0.970285 0.77335,1.756369 0.73399,3.698 l -0.0349,1.72078 -3.9375,1.42226 c -7.80565,2.819472 -9.984,3.699756 -11.74306,4.745436 -2.0409,1.213225 -3.18333,2.40261 -3.7744,3.929546 -0.32391,0.836743 -0.44638,2.730865 -0.2459,3.803079 0.0765,0.408887 0.0967,0.783469 0.0449,0.832402 -0.32933,0.311497 -5.22727,1.061873 -8.21986,1.259305 l -2.25079,0.148494 -1.12421,1.505104 c -1.39854,1.872387 -4.36321,4.87014 -5.8442,5.909397 -0.60226,0.422622 -1.56055,1.006787 -2.12955,1.298145 l -1.03455,0.529743 -0.83431,-0.333778 c -1.67718,-0.67098 -3.75855,-0.701132 -6.09409,-0.08829 -1.75457,0.460404 -2.57365,0.918766 -2.13082,1.192446 0.0656,0.04051 0.24278,0.24725 0.39387,0.459419 l 0.27469,0.385761 -1.25278,-0.04579 -1.25276,-0.04579 -2.67235,2.529223 c -1.46979,1.391074 -2.78865,2.610512 -2.93079,2.709863 -0.14214,0.09935 -3.51714,1.596304 -7.5,3.326567 -28.15883,12.23291 -46.61974,20.61162 -66.804058,30.31983 -12.707194,6.11188 -32.750223,16.27713 -42.894897,21.75506 -1.698491,0.91715 -2.159263,1.11257 -1.651546,0.70043 z"
     id="path1508"
     inkscape:connector-curvature="0" />
  <path
     style="fill:none;stroke:#000000;stroke-width:0.99999994px;stroke-linecap:butt;stroke-linejoin:miter;stroke-opacity:1"
     d="m 102.2142,98.686557 c 42.33058,18.312033 79.60507,34.992603 123.74369,58.841383 -23.71908,-21.76422 -65.06112,-42.10654 -95.45942,-60.104086 -10.74697,0.41101 -18.4918,-7.5064 -24.4962,-13.51079 -10.59614,0.32689 -14.86508,-3.44026 -21.71828,-11.11168 -14.98404,0.8357 -26.75718,-6.65661 -37.18624,-14.079 -2.69169,2.55454 -1.99951,4.57307 -2.08344,7.57614 14.50282,5.48536 21.85738,6.45084 19.50857,14.71035"
     id="path1091-2"
     inkscape:connector-curvature="0"
     sodipodi:nodetypes="cccccccc" />
  <path
     style="opacity:1;fill:#ff8080;fill-opacity:1;stroke:none;stroke-width:0.125;stroke-opacity:1"
     d="m 221.27992,154.18982 c -6.97792,-5.66429 -11.48271,-9.00199 -18.42145,-13.64886 -11.00673,-7.3712 -22.1542,-14.02901 -44.6875,-26.68953 -14.82243,-8.3281 -19.28079,-10.85692 -24.68749,-14.002963 l -3.0625,-1.781993 -1.4375,-0.0847 c -3.74506,-0.22072 -6.38793,-0.93663 -9.75,-2.6411 -3.56023,-1.80493 -6.88993,-4.38415 -11.625,-9.00484 l -1.8125,-1.76872 -1.9375,-0.0869 c -7.69358,-0.34513 -11.93923,-2.50203 -18.07874,-9.18449 l -1.69895,-1.8492 -2.8299,-0.0711 c -1.55645,-0.0391 -3.53304,-0.16145 -4.39241,-0.27191 -8.84161,-1.13653 -17.33119,-4.92355 -28.22838,-12.5921 -1.60766,-1.13134 -1.53248,-1.13173 -2.26003,0.0118 -0.61734,0.97029 -0.77335,1.75637 -0.73399,3.698 l 0.0349,1.72078 3.9375,1.42226 c 7.80565,2.81948 9.984,3.69976 11.74306,4.74544 2.0409,1.21322 3.18333,2.40261 3.7744,3.92955 0.32391,0.83674 0.44638,2.73086 0.2459,3.80307 -0.0765,0.40889 -0.0967,0.78347 -0.0449,0.83241 0.32933,0.31149 5.22727,1.06187 8.21986,1.2593 l 2.25079,0.1485 1.12421,1.5051 c 1.39854,1.87239 4.36321,4.87014 5.8442,5.9094 0.60226,0.42262 1.56055,1.00678 2.12955,1.29814 l 1.03455,0.52974 0.83431,-0.33377 c 1.67718,-0.67098 3.75855,-0.70114 6.09409,-0.0883 1.75457,0.4604 2.57365,0.91876 2.13082,1.19244 -0.0656,0.0405 -0.24278,0.24725 -0.39387,0.45942 l -0.27469,0.38576 1.25278,-0.0458 1.25276,-0.0458 2.67235,2.52923 c 1.46979,1.39107 2.78865,2.61051 2.93079,2.70986 0.14214,0.0994 3.51714,1.596303 7.5,3.326566 28.15883,12.23291 46.61974,20.61162 66.80405,30.31983 12.7072,6.11188 32.75023,16.27713 42.8949,21.75506 1.69849,0.91715 2.15926,1.11257 1.65155,0.70043 z"
     id="path1508-2"
     inkscape:connector-curvature="0" />
  <path
     style="fill:none;stroke:#000000;stroke-width:0.99999994px;stroke-linecap:butt;stroke-linejoin:miter;stroke-opacity:1"
     d="m 166.75367,109.44872 c -41.61558,19.23277 -75.615059,38.23639 -122.623239,65.50436 25.33795,-24.76199 66.604219,-48.9134 95.622659,-66.23895 10.10442,-1.56064 17.94858,-8.64789 24.61498,-15.314286 10.72343,0.90636 16.35806,-4.0306 21.16071,-10.80357 15.97126,-0.38735 26.10629,-7.81685 39.91071,-15.08929 1.68546,1.5564 1.64475,3.7801 1.33929,6.16072 -18.28769,6.45978 -25.40708,7.44975 -22.97258,15.64125"
     id="path1083"
     inkscape:connector-curvature="0"
     sodipodi:nodetypes="cccccccc" />
  <path
     style="opacity:1;fill:#ff8080;fill-opacity:1;stroke:none;stroke-width:0.125;stroke-opacity:1"
     d="m 48.766303,171.3653 c 0.170312,-0.16283 1.128659,-1.02064 2.129659,-1.90625 13.401046,-11.85621 30.841216,-24.41702 54.340628,-39.13737 7.42285,-4.64978 12.73545,-7.89089 24.07785,-14.68946 9.08706,-5.44672 10.71401,-6.37978 11.3125,-6.48773 4.31709,-0.77867 9.24899,-2.97751 13.51152,-6.02398 2.66574,-1.90522 4.89625,-3.797253 8.45447,-7.171484 l 2.01696,-1.912675 2.04554,-0.0024 c 2.9024,-0.0035 4.84297,-0.280172 7.10803,-1.01355 2.22678,-0.720982 4.3953,-1.917937 6.3125,-3.484301 1.28586,-1.050551 3.60828,-3.508034 4.748,-5.024128 l 0.99615,-1.325098 1.19043,-0.08173 c 5.25972,-0.361094 9.27353,-1.14728 13.85228,-2.713251 4.20175,-1.437039 8.80349,-3.588338 15.21314,-7.112105 6.59971,-3.628256 9.11619,-4.993404 9.20471,-4.993404 0.15402,0 0.60357,0.70659 0.79529,1.249983 0.41518,1.176755 0.38903,3.660724 -0.0399,3.78746 -0.68519,0.202464 -11.78644,4.061771 -13.22529,4.597718 -4.73855,1.765036 -6.92971,2.955265 -8.43114,4.579757 -1.37284,1.485358 -1.83675,3.191969 -1.46372,5.384684 0.11311,0.664909 0.19228,1.222299 0.17595,1.238645 -0.0163,0.01635 -0.72975,0.140976 -1.58533,0.276955 -1.90112,0.30215 -4.34055,0.509798 -5.98906,0.509798 h -1.23235 l -1.11915,2.28125 c -1.60919,3.280123 -2.98484,5.217811 -4.75876,6.703023 l -0.60272,0.50462 -1.167,-0.23909 c -3.87886,-0.7947 -7.95715,-0.16669 -10.56372,1.626683 l -0.56613,0.38951 0.44825,0.52325 0.44824,0.52325 -1.39905,0.0355 -1.39906,0.0355 -2.26505,2.16781 c -1.24577,1.19229 -2.86016,2.69507 -3.58752,3.33951 -1.2968,1.14894 -1.37632,1.19666 -4.09477,2.45746 -9.85672,4.57147 -26.72435,12.83674 -36.45775,17.86457 -20.73936,10.71302 -40.531069,21.6306 -70.279254,38.76771 -4.553591,2.6232 -8.321062,4.76945 -8.372159,4.76945 -0.0511,0 0.04644,-0.13322 0.216756,-0.29605 z"
     id="path1506"
     inkscape:connector-curvature="0" />
  <path
     style="fill:none;stroke:#000000;stroke-width:0.99999994px;stroke-linecap:butt;stroke-linejoin:miter;stroke-opacity:1"
     d="m 94.24327,109.44872 c 41.61558,19.23277 75.61506,38.23639 122.62324,65.50436 -25.33795,-24.76199 -66.60422,-48.9134 -95.62266,-66.23895 -10.10442,-1.56064 -17.94858,-8.64789 -24.61498,-15.314286 -10.72343,0.90636 -16.35806,-4.0306 -21.16071,-10.80357 -15.97126,-0.38735 -26.10629,-7.81685 -39.91071,-15.08929 -1.68546,1.5564 -1.64475,3.7801 -1.33929,6.16072 18.28769,6.45978 25.40708,7.44975 22.97258,15.64125"
     id="path1083-8"
     inkscape:connector-curvature="0"
     sodipodi:nodetypes="cccccccc" />
  <path
     style="opacity:1;fill:#ff8080;fill-opacity:1;stroke:none;stroke-width:0.125;stroke-opacity:1"
     d="m 212.23063,171.3653 c -0.17031,-0.16283 -1.12866,-1.02064 -2.12966,-1.90625 -13.40104,-11.85621 -30.84121,-24.41702 -54.34062,-39.13737 -7.42285,-4.64978 -12.73545,-7.89089 -24.07785,-14.68946 -9.08706,-5.44672 -10.71401,-6.37978 -11.3125,-6.48773 -4.31709,-0.77867 -9.24899,-2.97751 -13.51152,-6.02398 -2.66574,-1.90522 -4.89625,-3.797253 -8.45447,-7.171486 l -2.01696,-1.91267 -2.04554,-0.002 c -2.9024,-0.004 -4.84297,-0.28018 -7.10803,-1.01355 -2.22678,-0.72099 -4.3953,-1.91794 -6.3125,-3.4843 -1.28586,-1.05056 -3.60828,-3.50804 -4.748,-5.02413 l -0.99615,-1.3251 -1.19043,-0.0817 c -5.25972,-0.36109 -9.27353,-1.14728 -13.85228,-2.71325 -4.20175,-1.43704 -8.80349,-3.58834 -15.21314,-7.11211 -6.59971,-3.62825 -9.11619,-4.9934 -9.20471,-4.9934 -0.15402,0 -0.60357,0.70659 -0.79529,1.24998 -0.41518,1.17676 -0.38903,3.66073 0.0399,3.78746 0.68519,0.20247 11.78644,4.06177 13.22529,4.59772 4.73855,1.76504 6.92971,2.95527 8.43114,4.57976 1.37284,1.48536 1.83675,3.19197 1.46372,5.38468 -0.11311,0.66491 -0.19228,1.2223 -0.17595,1.23865 0.0163,0.0164 0.72975,0.14097 1.58533,0.27695 1.90112,0.30215 4.34055,0.5098 5.98906,0.5098 h 1.23235 l 1.11915,2.28125 c 1.60919,3.28012 2.98484,5.21781 4.75876,6.703023 l 0.60272,0.50462 1.167,-0.23909 c 3.87886,-0.7947 7.95715,-0.16669 10.56372,1.626683 l 0.56613,0.38951 -0.44825,0.52325 -0.44824,0.52325 1.39905,0.0355 1.39906,0.0355 2.26505,2.16781 c 1.24577,1.19229 2.86016,2.69507 3.58752,3.33951 1.2968,1.14894 1.37632,1.19666 4.09477,2.45746 9.85672,4.57147 26.72435,12.83674 36.45775,17.86457 20.73935,10.71302 40.53107,21.6306 70.27925,38.76771 4.55359,2.6232 8.32106,4.76945 8.37216,4.76945 0.0511,0 -0.0464,-0.13322 -0.21676,-0.29605 z"
     id="path1506-2"
     inkscape:connector-curvature="0" />
  <path
     style="fill:none;stroke:#000000;stroke-width:0.99999994px;stroke-linecap:butt;stroke-linejoin:miter;stroke-opacity:1"
     d="m 215.3502,105.89982 -13.57143,5.71431 c -3.59662,-4.23817 -11.36365,-5.01819 -17.79848,-0.0695 l 3.11099,3.95338 c -41.94135,18.10462 -100.467239,54.31114 -135.491069,78.97323 24.81297,-27.38392 64.359799,-52.97492 97.678569,-75.89284 10.26559,-1.92291 17.49495,-8.80274 24.55357,-15.71429 13.18745,0.3137 16.89758,-3.441413 20.80357,-12.410736 15.33598,0.30622 28.04965,-8.45431 41.1977,-15.71691 3.49207,2.41986 2.67759,4.71925 2.64159,7.14549 -14.44869,3.88852 -16.1073,2.79608 -23.01717,8.24323 -1.69845,1.33891 -2.96417,8.353153 -0.10783,15.774606 z"
     id="path1062"
     inkscape:connector-curvature="0"
     sodipodi:nodetypes="ccccccccccscc" />
  <path
     style="fill:none;stroke:#000000;stroke-width:0.99999994px;stroke-linecap:butt;stroke-linejoin:miter;stroke-opacity:1"
     d="m 187.76149,100.01234 c -4.28289,-1.243093 -8.76603,-0.597243 -11.4012,1.25635 l 1.27036,1.53241"
     id="path1079"
     inkscape:connector-curvature="0"
     sodipodi:nodetypes="ccc" />
  <path
     style="fill:none;stroke:#000000;stroke-width:0.99999994px;stroke-linecap:butt;stroke-linejoin:miter;stroke-opacity:1"
     d="m 238.47521,81.881904 c 16.34653,11.41822 -11.8554,35.707996 -23.12501,24.017916"
     id="path1087"
     inkscape:connector-curvature="0"
     sodipodi:nodetypes="cc" />
  <path
     style="fill:none;stroke:#000000;stroke-width:0.99999994px;stroke-linecap:butt;stroke-linejoin:miter;stroke-opacity:1"
     d="m 174.99175,92.066904 c -2.20129,-1.71935 -6.01691,-1.03626 -8.30357,-0.0893 l 1.20536,1.51785"
     id="path1089"
     inkscape:connector-curvature="0"
     sodipodi:nodetypes="ccc" />
  <path
     style="fill:none;stroke:#000000;stroke-width:0.99999994px;stroke-linecap:butt;stroke-linejoin:miter;stroke-opacity:1"
     d="m 225.12816,74.287284 4.55465,3.81739"
     id="path1093"
     inkscape:connector-curvature="0"
     sodipodi:nodetypes="cc" />
  <path
     style="fill:none;stroke:#000000;stroke-width:0.99999994px;stroke-linecap:butt;stroke-linejoin:miter;stroke-opacity:1"
     d="m 215.09874,66.740464 4.29315,3.78807"
     id="path1095"
     inkscape:connector-curvature="0" />
  <path
     style="fill:none;stroke:#000000;stroke-width:0.99999994px;stroke-linecap:butt;stroke-linejoin:miter;stroke-opacity:1"
     d="m 242.04663,85.364124 c -6.30694,0.1045 -12.06078,1.98879 -15.625,3.21429 -6.65308,2.04377 -9.0168,2.56398 -9.1288,8.73917 0.16392,4.724206 -0.40048,9.606566 3.24415,11.572036"
     id="path1125"
     inkscape:connector-curvature="0"
     sodipodi:nodetypes="cccc" />
  <path
     style="fill:none;stroke:#000000;stroke-width:0.99999994px;stroke-linecap:butt;stroke-linejoin:miter;stroke-opacity:1"
     d="m 224.16644,92.980754 c -2.45875,-0.002 -2.46142,3.79314 -0.0395,3.81174 2.53225,0.007 2.54721,-3.80032 0.0395,-3.81174 z"
     id="path1138"
     inkscape:connector-curvature="0"
     sodipodi:nodetypes="ccc" />
  <path
     style="fill:none;stroke:#000000;stroke-width:0.99999994px;stroke-linecap:butt;stroke-linejoin:miter;stroke-opacity:1"
     d="m 224.49565,101.70515 c -2.45876,-0.002 -2.46143,3.79314 -0.0395,3.81173 2.53224,0.008 2.5472,-3.80031 0.0395,-3.81173 z"
     id="path1138-8"
     inkscape:connector-curvature="0"
     sodipodi:nodetypes="ccc" />
  <path
     style="fill:none;stroke:#000000;stroke-width:0.99999994px;stroke-linecap:butt;stroke-linejoin:miter;stroke-opacity:1"
     d="m 238.19584,90.151524 c -2.45875,-0.002 -2.46142,3.79317 -0.0395,3.81176 2.53225,0.008 2.54721,-3.80031 0.0395,-3.81176 z"
     id="path1138-86"
     inkscape:connector-curvature="0"
     sodipodi:nodetypes="ccc" />
  <path
     style="opacity:1;fill:#ff8080;fill-opacity:1;stroke:none;stroke-width:0.125;stroke-opacity:1"
     d="m 58.996465,187.60956 c 10.147192,-9.99304 21.614343,-19.6376 36.74091,-30.9013 10.629965,-7.91539 19.918155,-14.44818 41.460325,-29.16084 4.99693,-3.41276 9.80631,-6.69998 10.6875,-7.30495 1.59689,-1.0963 1.60774,-1.1013 3.28968,-1.51593 6.71908,-1.65638 12.76546,-5.50241 20.69666,-13.1649 l 2.13416,-2.06185 2.49674,-0.0806 c 9.73106,-0.31403 13.90439,-2.82848 17.69391,-10.660683 l 0.85283,-1.76264 2.2816,-0.07478 c 6.45675,-0.211625 13.19095,-2.134213 21.2816,-6.075821 3.05992,-1.490738 5.74636,-2.943003 11.75425,-6.354248 6.08906,-3.457342 5.34585,-3.122604 5.92125,-2.666879 1.25741,0.995889 1.84586,2.537454 1.70185,4.458311 -0.0778,1.037908 -0.11335,1.160236 -0.35689,1.22858 -0.85284,0.239336 -6.17698,1.547274 -9.45796,2.323462 -4.36778,1.033292 -5.9082,1.506884 -7.72642,2.375428 -2.18767,1.045026 -5.31157,3.229276 -5.92545,4.143097 -1.7406,2.591094 -1.86791,9.07316 -0.27712,14.108903 0.17834,0.56455 0.27751,1.07318 0.22037,1.13029 -0.0571,0.0571 -2.88826,1.27892 -6.29138,2.71515 l -6.1875,2.61133 -0.4375,-0.39595 c -2.69175,-2.43609 -6.4881,-3.42505 -10.50923,-2.73767 -2.5849,0.44186 -5.43695,1.73585 -7.65647,3.47377 -0.21345,0.16714 -0.13072,0.30251 1.28071,2.0955 l 1.5089,1.91681 -0.34321,0.14452 c -0.18877,0.0795 -1.8057,0.80147 -3.5932,1.60441 -27.82329,12.49813 -65.28898,33.66815 -103.937505,58.73 -4.594371,2.97924 -15.93316,10.54849 -19.660551,13.12446 -1.360178,0.94001 -2.513303,1.70669 -2.5625,1.70374 -0.0492,-0.003 1.264642,-1.3389 2.919641,-2.96875 z"
     id="path1504"
     inkscape:connector-curvature="0" />
  <path
     style="opacity:1;fill:#ffe680;fill-opacity:1;stroke:none;stroke-width:0.0625;stroke-opacity:1"
     d="m 221.99987,108.42993 c -0.81676,-0.0723 -1.50939,-0.21965 -1.75975,-0.37438 -0.29364,-0.18148 -0.96354,-0.91864 -1.20589,-1.32696 -0.59617,-1.00444 -0.93073,-2.34047 -1.06811,-4.2653 -0.11015,-1.54324 -0.1547,-5.666425 -0.0699,-6.468752 0.20601,-1.949025 0.58516,-2.900414 1.53182,-3.84375 0.88137,-0.87827 1.86251,-1.367393 4.37592,-2.181507 4.31994,-1.399262 6.408,-2.06216 7.21982,-2.292079 2.15501,-0.610328 4.70283,-1.158759 6.625,-1.426066 1.26093,-0.175352 3.07148,-0.330067 3.59375,-0.307094 l 0.4375,0.01925 0.29863,0.59375 c 0.32961,0.655362 0.60035,1.442172 0.77473,2.251496 0.0903,0.418954 0.11358,0.79773 0.11146,1.811004 -0.002,1.144145 -0.0205,1.36485 -0.16911,2.0625 -0.34082,1.599755 -1.1308,3.494505 -2.09133,5.015981 -3.44772,5.461227 -9.93086,9.841377 -15.73688,10.632187 -0.91897,0.12517 -2.11159,0.16664 -2.86766,0.0997 z m 3.43016,-2.56503 c 0.51317,-0.1925 1.0783,-0.75476 1.28312,-1.27661 0.11884,-0.30277 0.14789,-0.49686 0.15079,-1.00766 0.004,-0.61795 -0.002,-0.64406 -0.24641,-1.12229 -0.31294,-0.61288 -0.71315,-0.96164 -1.3179,-1.14842 -1.52398,-0.47071 -2.93502,0.38194 -3.14459,1.90021 -0.18306,1.32623 0.58226,2.5336 1.76593,2.78589 0.40069,0.0854 1.09198,0.0253 1.50906,-0.13112 z m -0.52697,-8.655834 c 1.42141,-0.41022 2.08397,-2.114093 1.37116,-3.526158 -0.45321,-0.897804 -1.49942,-1.38048 -2.57286,-1.187006 -1.05019,0.189284 -1.78669,1.01744 -1.90151,2.138162 -0.12139,1.18486 0.54355,2.246885 1.61681,2.582302 0.36367,0.113657 1.07946,0.110143 1.4864,-0.0073 z m 13.96634,-2.811393 c 0.99492,-0.259142 1.64719,-1.09707 1.70484,-2.190095 0.0589,-1.115827 -0.48791,-2.044253 -1.4205,-2.412073 -0.27404,-0.108082 -0.48255,-0.13823 -0.97371,-0.14079 -0.54965,-0.0029 -0.66776,0.01675 -0.9797,0.162683 -0.49633,0.2322 -0.88877,0.616299 -1.12968,1.105664 -0.19353,0.39312 -0.20312,0.446588 -0.20312,1.132661 0,0.649097 0.0164,0.755023 0.16627,1.074761 0.50667,1.080814 1.62773,1.5818 2.8356,1.267189 z"
     id="path1510"
     inkscape:connector-curvature="0" />
  <path
     style="opacity:1;fill:#ffe680;fill-opacity:1;stroke:none;stroke-width:0.0625;stroke-opacity:1"
     d="m 217.39326,106.87739 c -0.59302,-0.39212 -1.34901,-1.00234 -1.53914,-1.24235 -0.10278,-0.12975 -0.65641,-1.81602 -0.88743,-2.703 -0.47059,-1.80673 -0.68957,-3.398473 -0.73637,-5.352667 -0.063,-2.629642 0.2354,-4.611046 0.91173,-6.0543 0.29387,-0.627094 0.48994,-0.850611 1.28134,-1.460665 2.52169,-1.943859 4.59151,-3.080854 7.0621,-3.879361 1.05545,-0.341126 3.30607,-0.910885 6.66781,-1.687995 2.33209,-0.539092 3.76916,-0.891783 7.59535,-1.864075 l 0.63111,-0.160377 0.40014,0.302384 c 0.22007,0.166311 0.79388,0.69788 1.27513,1.181264 l 0.875,0.878881 -0.4375,0.04502 c -0.24063,0.02476 -0.91563,0.09141 -1.5,0.148118 -3.55632,0.345092 -6.7997,1.091818 -11.78125,2.712404 -1.15156,0.374623 -2.83906,0.923103 -3.75,1.218844 -0.91094,0.295741 -1.96563,0.673177 -2.34375,0.838748 -3.27208,1.432753 -4.34801,3.385016 -4.34227,7.879008 0.002,1.939926 0.11496,4.988829 0.21516,5.832499 0.1637,1.37816 0.44402,2.43537 0.88087,3.32212 0.11771,0.23895 0.20473,0.44374 0.19336,0.45511 -0.0114,0.0114 -0.31349,-0.17296 -0.67139,-0.40961 z"
     id="path1512"
     inkscape:connector-curvature="0" />
  <path
     style="opacity:1;fill:#ffe680;fill-opacity:1;stroke:none;stroke-width:0.0625;stroke-opacity:1"
     d="m 204.25398,88.885392 c -0.0151,-0.02591 -0.0931,-0.314292 -0.17334,-0.640854 -0.12349,-0.502644 -0.14604,-0.756782 -0.14696,-1.65625 -0.001,-0.991289 0.0103,-1.096012 0.16791,-1.5625 0.43002,-1.272338 1.42561,-2.353824 3.1035,-3.371251 2.03436,-1.233579 4.75698,-2.330527 11.53744,-4.648448 1.30625,-0.446545 3.24392,-1.109501 4.30594,-1.473235 l 1.93094,-0.661334 1.92133,1.607509 1.92134,1.607509 -0.97728,0.554484 c -4.02,2.280859 -6.20894,3.458706 -9.07102,4.88103 -4.8979,2.434034 -8.96422,4.012142 -12.96875,5.033076 -1.50668,0.384118 -1.51822,0.386576 -1.55105,0.330264 z"
     id="path1514"
     inkscape:connector-curvature="0" />
  <path
     style="opacity:1;fill:#ffe680;fill-opacity:1;stroke:none;stroke-width:0.0625;stroke-opacity:1"
     d="m 196.74965,79.889878 c -0.17042,-0.85061 -0.20269,-2.007177 -0.0737,-2.643502 0.21575,-1.064808 0.61002,-1.770653 1.46945,-2.630713 1.2653,-1.266238 3.28079,-2.353728 7.04335,-3.800354 0.72664,-0.279379 2.72352,-1.011495 4.4375,-1.626924 1.71398,-0.615428 3.58842,-1.292508 4.16542,-1.504622 0.577,-0.212114 1.07482,-0.37662 1.10627,-0.365569 0.0314,0.01105 0.88583,0.750313 1.89864,1.642803 l 1.84146,1.62271 -0.16648,0.100338 c -0.38965,0.234836 -4.85174,2.673913 -6.22337,3.401828 -4.37615,2.322397 -7.84344,3.892625 -11.3153,5.124342 -1.03845,0.368413 -3.4642,1.118064 -3.85025,1.189877 l -0.22243,0.04138 z"
     id="path1516"
     inkscape:connector-curvature="0" />
  <path
     style="opacity:1;fill:#ffb380;fill-opacity:1;stroke:none;stroke-width:0.0625;stroke-opacity:1"
     d="m 223.5343,96.11043 c -0.62797,-0.310834 -0.86722,-1.229197 -0.50515,-1.93893 0.22858,-0.448053 0.81011,-0.729034 1.32979,-0.642527 0.6029,0.100358 0.97231,0.453886 1.10804,1.060401 0.13628,0.608963 -0.18528,1.293949 -0.72187,1.537685 -0.35053,0.159227 -0.86995,0.152093 -1.21081,-0.01663 z"
     id="path1518"
     inkscape:connector-curvature="0" />
  <path
     style="opacity:1;fill:#ffb380;fill-opacity:1;stroke:none;stroke-width:0.0625;stroke-opacity:1"
     d="m 224.05503,104.92284 c -0.53644,-0.19812 -0.85625,-0.68058 -0.85625,-1.29174 0,-0.82456 0.51486,-1.38167 1.28013,-1.38519 0.58869,-0.003 1.08947,0.34932 1.26995,0.89271 0.16019,0.48226 0.0463,1.06958 -0.27949,1.4407 -0.27168,0.30952 -1.01655,0.49043 -1.41434,0.34352 z"
     id="path1520"
     inkscape:connector-curvature="0" />
  <path
     style="opacity:1;fill:#ffb380;fill-opacity:1;stroke:none;stroke-width:0.0625;stroke-opacity:1"
     d="m 237.72449,93.361489 c -0.28138,-0.08115 -0.65641,-0.472632 -0.74909,-0.781953 -0.11997,-0.400428 -0.0937,-0.82697 0.073,-1.184967 0.45727,-0.982055 1.88972,-0.94029 2.35688,0.06872 0.23714,0.512207 0.11984,1.171348 -0.27954,1.570723 -0.36496,0.364961 -0.86559,0.48196 -1.40126,0.327478 z"
     id="path1522"
     inkscape:connector-curvature="0" />
  <path
     style="fill:none;stroke:#000000;stroke-width:0.99999994px;stroke-linecap:butt;stroke-linejoin:miter;stroke-opacity:1"
     d="m 45.64674,105.89982 13.57143,5.71431 c 3.59662,-4.23817 11.36365,-5.01819 17.79848,-0.0695 l -3.11099,3.95338 c 41.94135,18.10462 100.46724,54.31114 135.49107,78.97323 -24.81297,-27.38392 -64.3598,-52.97492 -97.67857,-75.89284 -10.26559,-1.92291 -17.49495,-8.80274 -24.55357,-15.71429 -13.18745,0.3137 -16.89758,-3.441413 -20.80357,-12.410736 -15.33598,0.30622 -28.04965,-8.45431 -41.1977,-15.71691 -3.49207,2.41986 -2.67759,4.71925 -2.64159,7.14549 14.44869,3.88852 16.1073,2.79608 23.01717,8.24323 1.69845,1.33891 2.96417,8.353153 0.10783,15.774606 z"
     id="path1062-7"
     inkscape:connector-curvature="0"
     sodipodi:nodetypes="ccccccccccscc" />
  <path
     style="fill:none;stroke:#000000;stroke-width:0.99999994px;stroke-linecap:butt;stroke-linejoin:miter;stroke-opacity:1"
     d="m 73.23545,100.01234 c 4.28289,-1.243093 8.76603,-0.597243 11.4012,1.25635 l -1.27036,1.53241"
     id="path1079-6"
     inkscape:connector-curvature="0"
     sodipodi:nodetypes="ccc" />
  <path
     style="fill:none;stroke:#000000;stroke-width:0.99999994px;stroke-linecap:butt;stroke-linejoin:miter;stroke-opacity:1"
     d="M 22.52173,81.881904 C 6.1752002,93.300124 34.37713,117.5899 45.64674,105.89982"
     id="path1087-1"
     inkscape:connector-curvature="0"
     sodipodi:nodetypes="cc" />
  <path
     style="fill:none;stroke:#000000;stroke-width:0.99999994px;stroke-linecap:butt;stroke-linejoin:miter;stroke-opacity:1"
     d="m 86.00519,92.066904 c 2.20129,-1.71935 6.01691,-1.03626 8.30357,-0.0893 l -1.20536,1.51785"
     id="path1089-9"
     inkscape:connector-curvature="0"
     sodipodi:nodetypes="ccc" />
  <path
     style="fill:none;stroke:#000000;stroke-width:0.99999994px;stroke-linecap:butt;stroke-linejoin:miter;stroke-opacity:1"
     d="m 35.86878,74.287284 -4.55465,3.81739"
     id="path1093-2"
     inkscape:connector-curvature="0"
     sodipodi:nodetypes="cc" />
  <path
     style="fill:none;stroke:#000000;stroke-width:0.99999994px;stroke-linecap:butt;stroke-linejoin:miter;stroke-opacity:1"
     d="m 45.8982,66.740464 -4.29315,3.78807"
     id="path1095-9"
     inkscape:connector-curvature="0" />
  <path
     style="fill:none;stroke:#000000;stroke-width:0.99999994px;stroke-linecap:butt;stroke-linejoin:miter;stroke-opacity:1"
     d="m 18.95031,85.364124 c 6.30694,0.1045 12.06078,1.98879 15.625,3.21429 6.65308,2.04377 9.0168,2.56398 9.1288,8.73917 -0.16392,4.724206 0.40048,9.606566 -3.24415,11.572036"
     id="path1125-9"
     inkscape:connector-curvature="0"
     sodipodi:nodetypes="cccc" />
  <path
     style="fill:none;stroke:#000000;stroke-width:0.99999994px;stroke-linecap:butt;stroke-linejoin:miter;stroke-opacity:1"
     d="m 36.8305,92.980754 c 2.45875,-0.002 2.46142,3.79314 0.0395,3.81174 -2.53225,0.007 -2.54721,-3.80032 -0.0395,-3.81174 z"
     id="path1138-7"
     inkscape:connector-curvature="0"
     sodipodi:nodetypes="ccc" />
  <path
     style="fill:none;stroke:#000000;stroke-width:0.99999994px;stroke-linecap:butt;stroke-linejoin:miter;stroke-opacity:1"
     d="m 36.50129,101.70515 c 2.45876,-0.002 2.46143,3.79314 0.0395,3.81173 -2.53224,0.008 -2.5472,-3.80031 -0.0395,-3.81173 z"
     id="path1138-8-4"
     inkscape:connector-curvature="0"
     sodipodi:nodetypes="ccc" />
  <path
     style="fill:none;stroke:#000000;stroke-width:0.99999994px;stroke-linecap:butt;stroke-linejoin:miter;stroke-opacity:1"
     d="m 22.8011,90.151524 c 2.45875,-0.002 2.46142,3.79317 0.0395,3.81176 -2.53225,0.008 -2.54721,-3.80031 -0.0395,-3.81176 z"
     id="path1138-86-1"
     inkscape:connector-curvature="0"
     sodipodi:nodetypes="ccc" />
  <path
     style="opacity:1;fill:#ff8080;fill-opacity:1;stroke:none;stroke-width:0.125;stroke-opacity:1"
     d="m 202.00047,187.60956 c -10.14719,-9.99304 -21.61434,-19.6376 -36.74091,-30.9013 -10.62996,-7.91539 -19.91815,-14.44818 -41.46032,-29.16084 -4.99693,-3.41276 -9.80631,-6.69998 -10.6875,-7.30495 -1.59689,-1.0963 -1.60774,-1.1013 -3.28968,-1.51593 -6.71908,-1.65638 -12.76546,-5.50241 -20.69666,-13.1649 l -2.13416,-2.06185 -2.49674,-0.0806 C 74.76344,103.10516 70.59011,100.59071 66.80059,92.758504 l -0.85283,-1.76264 -2.2816,-0.0748 c -6.45675,-0.21162 -13.19095,-2.13421 -21.2816,-6.07582 -3.05992,-1.49074 -5.74636,-2.943 -11.75425,-6.35425 -6.08906,-3.45734 -5.34585,-3.1226 -5.92125,-2.66688 -1.25741,0.99589 -1.84586,2.53746 -1.70185,4.45832 0.0778,1.0379 0.11335,1.16023 0.35689,1.22858 0.85284,0.23933 6.17698,1.54727 9.45796,2.32346 4.36778,1.03329 5.9082,1.50688 7.72642,2.37543 2.18767,1.04502 5.31157,3.22927 5.92545,4.14309 1.7406,2.5911 1.86791,9.073163 0.27712,14.108906 -0.17834,0.56455 -0.27751,1.07318 -0.22037,1.13029 0.0571,0.0571 2.88826,1.27892 6.29138,2.71515 l 6.1875,2.61133 0.4375,-0.39595 c 2.69175,-2.43609 6.4881,-3.42505 10.50923,-2.73767 2.5849,0.44186 5.43695,1.73585 7.65647,3.47377 0.21345,0.16714 0.13072,0.30251 -1.28071,2.0955 l -1.5089,1.91681 0.34321,0.14452 c 0.18877,0.0795 1.8057,0.80147 3.5932,1.60441 27.82329,12.49813 65.28898,33.66815 103.9375,58.73 4.59437,2.97924 15.93316,10.54849 19.66055,13.12446 1.36018,0.94001 2.51331,1.70669 2.5625,1.70374 0.0492,-0.003 -1.26464,-1.3389 -2.91964,-2.96875 z"
     id="path1504-0"
     inkscape:connector-curvature="0" />
  <path
     style="opacity:1;fill:#ffe680;fill-opacity:1;stroke:none;stroke-width:0.0625;stroke-opacity:1"
     d="m 38.99707,108.42993 c 0.81676,-0.0723 1.50939,-0.21965 1.75975,-0.37438 0.29364,-0.18148 0.96354,-0.91864 1.20589,-1.32696 0.59617,-1.00444 0.93073,-2.34047 1.06811,-4.2653 0.11015,-1.54324 0.1547,-5.666426 0.0699,-6.468756 -0.20601,-1.94902 -0.58516,-2.90041 -1.53182,-3.84375 -0.88137,-0.87827 -1.86251,-1.36739 -4.37592,-2.1815 -4.31994,-1.39927 -6.408,-2.06216 -7.21982,-2.29208 -2.15501,-0.61033 -4.70283,-1.15876 -6.625,-1.42607 -1.26093,-0.17535 -3.07148,-0.33007 -3.59375,-0.30709 l -0.4375,0.0192 -0.29863,0.59375 c -0.32961,0.65536 -0.60035,1.44217 -0.77473,2.25149 -0.0903,0.41896 -0.11358,0.79773 -0.11146,1.81101 0.002,1.14414 0.0205,1.36485 0.16911,2.0625 0.34082,1.59975 1.1308,3.4945 2.09133,5.01598 3.44772,5.461226 9.93086,9.841376 15.73688,10.632186 0.91897,0.12517 2.11159,0.16664 2.86766,0.0997 z m -3.43016,-2.56503 c -0.51317,-0.1925 -1.0783,-0.75476 -1.28312,-1.27661 -0.11884,-0.30277 -0.14789,-0.49686 -0.15079,-1.00766 -0.004,-0.61795 0.002,-0.64406 0.24641,-1.12229 0.31294,-0.61288 0.71315,-0.96164 1.3179,-1.14842 1.52398,-0.47071 2.93502,0.38194 3.14459,1.90021 0.18306,1.32623 -0.58226,2.5336 -1.76593,2.78589 -0.40069,0.0854 -1.09198,0.0253 -1.50906,-0.13112 z m 0.52697,-8.655836 c -1.42141,-0.41022 -2.08397,-2.11409 -1.37116,-3.52616 0.45321,-0.8978 1.49942,-1.38048 2.57286,-1.187 1.05019,0.18928 1.78669,1.01744 1.90151,2.13816 0.12139,1.18486 -0.54355,2.24688 -1.61681,2.5823 -0.36367,0.11366 -1.07946,0.11014 -1.4864,-0.007 z m -13.96634,-2.81139 c -0.99492,-0.25914 -1.64719,-1.09707 -1.70484,-2.1901 -0.0589,-1.11582 0.48791,-2.04425 1.4205,-2.41207 0.27404,-0.10808 0.48255,-0.13823 0.97371,-0.14079 0.54965,-0.003 0.66776,0.0168 0.9797,0.16268 0.49633,0.2322 0.88877,0.6163 1.12968,1.10567 0.19353,0.39312 0.20312,0.44659 0.20312,1.13266 0,0.6491 -0.0164,0.75502 -0.16627,1.07476 -0.50667,1.08081 -1.62773,1.5818 -2.8356,1.26719 z"
     id="path1510-5"
     inkscape:connector-curvature="0" />
  <path
     style="opacity:1;fill:#ffe680;fill-opacity:1;stroke:none;stroke-width:0.0625;stroke-opacity:1"
     d="m 43.60368,106.87739 c 0.59302,-0.39212 1.34901,-1.00234 1.53914,-1.24235 0.10278,-0.12975 0.65641,-1.81602 0.88743,-2.703 0.47059,-1.80673 0.68957,-3.398473 0.73637,-5.352666 0.063,-2.62964 -0.2354,-4.61105 -0.91173,-6.0543 -0.29387,-0.6271 -0.48994,-0.85061 -1.28134,-1.46067 -2.52169,-1.94386 -4.59151,-3.08085 -7.0621,-3.87936 -1.05545,-0.34112 -3.30607,-0.91088 -6.66781,-1.68799 -2.33209,-0.53909 -3.76916,-0.89179 -7.59535,-1.86408 l -0.63111,-0.16037 -0.40014,0.30238 c -0.22007,0.16631 -0.79388,0.69788 -1.27513,1.18126 l -0.875,0.87888 0.4375,0.045 c 0.24063,0.0248 0.91563,0.0914 1.5,0.14812 3.55632,0.34509 6.7997,1.09182 11.78125,2.71241 1.15156,0.37462 2.83906,0.9231 3.75,1.21884 0.91094,0.29574 1.96563,0.67318 2.34375,0.83875 3.27208,1.43275 4.34801,3.38501 4.34227,7.87901 -0.002,1.939923 -0.11496,4.988826 -0.21516,5.832496 -0.1637,1.37816 -0.44402,2.43537 -0.88087,3.32212 -0.11771,0.23895 -0.20473,0.44374 -0.19336,0.45511 0.0114,0.0114 0.31349,-0.17296 0.67139,-0.40961 z"
     id="path1512-7"
     inkscape:connector-curvature="0" />
  <path
     style="opacity:1;fill:#ffe680;fill-opacity:1;stroke:none;stroke-width:0.0625;stroke-opacity:1"
     d="m 56.74296,88.885394 c 0.0151,-0.0259 0.0931,-0.31429 0.17334,-0.64086 0.12349,-0.50264 0.14604,-0.75678 0.14696,-1.65625 10e-4,-0.99129 -0.0103,-1.09601 -0.16791,-1.5625 -0.43002,-1.27233 -1.42561,-2.35382 -3.1035,-3.37125 -2.03436,-1.23358 -4.75698,-2.33052 -11.53744,-4.64845 -1.30625,-0.44654 -3.24392,-1.1095 -4.30594,-1.47323 l -1.93094,-0.66133 -1.92133,1.6075 -1.92134,1.60751 0.97728,0.55449 c 4.02,2.28086 6.20894,3.4587 9.07102,4.88103 4.8979,2.43403 8.96422,4.01214 12.96875,5.03307 1.50668,0.38412 1.51822,0.38658 1.55105,0.33027 z"
     id="path1514-8"
     inkscape:connector-curvature="0" />
  <path
     style="opacity:1;fill:#ffe680;fill-opacity:1;stroke:none;stroke-width:0.0625;stroke-opacity:1"
     d="m 64.24729,79.889874 c 0.17042,-0.85061 0.20269,-2.00717 0.0737,-2.6435 -0.21575,-1.06481 -0.61002,-1.77065 -1.46945,-2.63071 -1.2653,-1.26624 -3.28079,-2.35373 -7.04335,-3.80036 -0.72664,-0.27937 -2.72352,-1.01149 -4.4375,-1.62692 -1.71398,-0.61543 -3.58842,-1.29251 -4.16542,-1.50462 -0.577,-0.21212 -1.07482,-0.37662 -1.10627,-0.36557 -0.0314,0.011 -0.88583,0.75031 -1.89864,1.6428 l -1.84146,1.62271 0.16648,0.10034 c 0.38965,0.23484 4.85174,2.67391 6.22337,3.40183 4.37615,2.3224 7.84344,3.89262 11.3153,5.12434 1.03845,0.36841 3.4642,1.11806 3.85025,1.18988 l 0.22243,0.0414 z"
     id="path1516-9"
     inkscape:connector-curvature="0" />
  <path
     style="opacity:1;fill:#ffb380;fill-opacity:1;stroke:none;stroke-width:0.0625;stroke-opacity:1"
     d="m 37.46264,96.110434 c 0.62797,-0.31084 0.86722,-1.2292 0.50515,-1.93893 -0.22858,-0.44806 -0.81011,-0.72904 -1.32979,-0.64253 -0.6029,0.10036 -0.97231,0.45388 -1.10804,1.0604 -0.13628,0.60896 0.18528,1.29395 0.72187,1.53768 0.35053,0.15923 0.86995,0.1521 1.21081,-0.0166 z"
     id="path1518-6"
     inkscape:connector-curvature="0" />
  <path
     style="opacity:1;fill:#ffb380;fill-opacity:1;stroke:none;stroke-width:0.0625;stroke-opacity:1"
     d="m 36.94191,104.92284 c 0.53644,-0.19812 0.85625,-0.68058 0.85625,-1.29174 0,-0.82456 -0.51486,-1.38167 -1.28013,-1.38519 -0.58869,-0.003 -1.08947,0.34932 -1.26995,0.89271 -0.16019,0.48226 -0.0463,1.06958 0.27949,1.4407 0.27168,0.30952 1.01655,0.49043 1.41434,0.34352 z"
     id="path1520-1"
     inkscape:connector-curvature="0" />
  <path
     style="opacity:1;fill:#ffb380;fill-opacity:1;stroke:none;stroke-width:0.0625;stroke-opacity:1"
     d="m 23.27245,93.361484 c 0.28138,-0.0811 0.65641,-0.47263 0.74909,-0.78195 0.11997,-0.40043 0.0937,-0.82697 -0.073,-1.18497 -0.45727,-0.98205 -1.88972,-0.94029 -2.35688,0.0687 -0.23714,0.51221 -0.11984,1.17135 0.27954,1.57073 0.36496,0.36496 0.86559,0.48196 1.40126,0.32748 z"
     id="path1522-0"
     inkscape:connector-curvature="0" />
</svg>
