<?xml version="1.0" encoding="UTF-8"?>
<svg cursor="default" version="1.1" viewBox="0 0 256 256" xmlns="http://www.w3.org/2000/svg" xmlns:cc="http://creativecommons.org/ns#" xmlns:dc="http://purl.org/dc/elements/1.1/" xmlns:rdf="http://www.w3.org/1999/02/22-rdf-syntax-ns#" xmlns:xlink="http://www.w3.org/1999/xlink">
 <metadata>
  <rdf:RDF>
   <cc:Work rdf:about="">
    <dc:format>image/svg+xml</dc:format>
    <dc:type rdf:resource="http://purl.org/dc/dcmitype/StillImage"/>
    <dc:title/>
   </cc:Work>
  </rdf:RDF>
 </metadata>
 <defs>
  <linearGradient id="innoGrad4">
   <stop stop-color="#ff9955" offset="0"/>
   <stop stop-color="#ff9955" stop-opacity="0" offset="1"/>
  </linearGradient>
  <linearGradient id="innoGrad3">
   <stop stop-color="#333333" stop-opacity=".58333" offset="0"/>
   <stop stop-color="#333333" stop-opacity=".45062" offset="1"/>
  </linearGradient>
  <linearGradient id="innoGrad2">
   <stop stop-color="#333333" offset="0"/>
   <stop stop-color="#333333" stop-opacity="0" offset="1"/>
  </linearGradient>
  <linearGradient id="innoGrad1">
   <stop stop-color="#ff5555" offset="0"/>
   <stop stop-color="#ff2a2a" offset="1"/>
  </linearGradient>
  <linearGradient id="linearGradient2313" x1="109.5" x2="133.46" y1="128.91" y2="110.93" gradientTransform="matrix(.53738 .023725 -.046367 1.0502 -25.456 -2.2076)" gradientUnits="userSpaceOnUse" xlink:href="#innoGrad1"/>
  <linearGradient id="linearGradient1299" x1="109.5" x2="133.46" y1="128.91" y2="110.93" gradientTransform="translate(-32.692,-38.255)" gradientUnits="userSpaceOnUse" xlink:href="#innoGrad1"/>
  <linearGradient id="linearGradient1166" x1="109.5" x2="133.46" y1="128.91" y2="110.93" gradientTransform="matrix(.58044 -.0080309 .015806 .97733 -38.809 100.33)" gradientUnits="userSpaceOnUse" xlink:href="#innoGrad1"/>
  <linearGradient id="linearGradient1180" x1="109.5" x2="133.46" y1="128.91" y2="110.93" gradientTransform="matrix(.86519 .0010891 -.0010473 .98895 -46.39 99.535)" gradientUnits="userSpaceOnUse" xlink:href="#innoGrad1"/>
  <linearGradient id="linearGradient1194" x1="109.5" x2="133.46" y1="128.91" y2="110.93" gradientTransform="matrix(.98304 .00054413 -.00061047 1.1029 2.4692 -51.588)" gradientUnits="userSpaceOnUse" xlink:href="#innoGrad1"/>
  <linearGradient id="linearGradient1208" x1="109.5" x2="133.46" y1="128.91" y2="110.93" gradientTransform="matrix(.55557 -.023163 .038194 .93862 103.88 104.59)" gradientUnits="userSpaceOnUse" xlink:href="#innoGrad1"/>
  <linearGradient id="linearGradient1222" x1="109.5" x2="133.46" y1="128.91" y2="110.93" gradientTransform="matrix(.87134 -.0002219 .00016784 1.0737 -48.108 44.594)" gradientUnits="userSpaceOnUse" xlink:href="#innoGrad1"/>
  <linearGradient id="linearGradient1236" x1="109.5" x2="133.46" y1="128.91" y2="110.93" gradientTransform="matrix(.56128 -.00048786 .00027752 .99216 106.78 53.473)" gradientUnits="userSpaceOnUse" xlink:href="#innoGrad1"/>
  <linearGradient id="linearGradient1250" x1="109.5" x2="133.46" y1="128.91" y2="110.93" gradientTransform="matrix(1.0181,-1.7584e-4,2.0973e-4,1.0196,-35.175,96.408)" gradientUnits="userSpaceOnUse" xlink:href="#innoGrad1"/>
  <linearGradient id="linearGradient1264" x1="109.5" x2="133.46" y1="128.91" y2="110.93" gradientTransform="matrix(.83946 .0027798 -.0026653 1.0948 49.802 -5.3076)" gradientUnits="userSpaceOnUse" xlink:href="#innoGrad1"/>
  <linearGradient id="linearGradient1278" x1="109.5" x2="133.46" y1="128.91" y2="110.93" gradientTransform="matrix(1.0322,-5.3619e-4,5.8332e-4,1.0601,-3.0457,45.98)" gradientUnits="userSpaceOnUse" xlink:href="#innoGrad1"/>
  <linearGradient id="linearGradient1292" x1="109.5" x2="133.46" y1="128.91" y2="110.93" gradientTransform="matrix(1.0511 -.0012679 .0013219 1.0958 -39.265 -4.6903)" gradientUnits="userSpaceOnUse" xlink:href="#innoGrad1"/>
  <linearGradient id="linearGradient1306" x1="109.5" x2="133.46" y1="128.91" y2="110.93" gradientTransform="matrix(.7992 -.0032064 .0021917 1.0807 53.552 -48.885)" gradientUnits="userSpaceOnUse" xlink:href="#innoGrad1"/>
  <linearGradient id="linearGradient1320" x1="109.5" x2="133.46" y1="128.91" y2="110.93" gradientTransform="matrix(.90481 .0032118 -.0025951 1.032 -51.497 -42.287)" gradientUnits="userSpaceOnUse" xlink:href="#innoGrad1"/>
  <linearGradient id="linearGradient1334" x1="109.5" x2="133.46" y1="128.91" y2="110.93" gradientTransform="matrix(1.0186 -.0013839 .0015004 1.1044 -35.057 41.377)" gradientUnits="userSpaceOnUse" xlink:href="#innoGrad1"/>
  <linearGradient id="linearGradient1348" x1="109.5" x2="133.46" y1="128.91" y2="110.93" gradientTransform="matrix(.872 .00020838 -.00016484 1.1033 -48.15 -5.207)" gradientUnits="userSpaceOnUse" xlink:href="#innoGrad1"/>
  <linearGradient id="linearGradient1362" x1="109.5" x2="133.46" y1="128.91" y2="110.93" gradientTransform="matrix(1.093 -.001121 .0010635 1.037 -9.9719 93.422)" gradientUnits="userSpaceOnUse" xlink:href="#innoGrad1"/>
  <linearGradient id="linearGradient1376" x1="109.5" x2="133.46" y1="128.91" y2="110.93" gradientTransform="matrix(.82609 .0013153 -.0010508 1.0053 52.76 51.92)" gradientUnits="userSpaceOnUse" xlink:href="#innoGrad1"/>
  <linearGradient id="linearGradient1390" x1="109.5" x2="133.46" y1="128.91" y2="110.93" gradientTransform="matrix(.83927 .00028785 -.00027372 1.0013 51.01 95.171)" gradientUnits="userSpaceOnUse" xlink:href="#innoGrad1"/>
  <linearGradient id="linearGradient1404" x1="109.5" x2="133.46" y1="128.91" y2="110.93" gradientTransform="matrix(.5764 -.0021483 .0011029 1.0631 -37.025 45.378)" gradientUnits="userSpaceOnUse" xlink:href="#innoGrad1"/>
  <linearGradient id="linearGradient1418" x1="109.5" x2="133.46" y1="128.91" y2="110.93" gradientTransform="matrix(.53908 -.021843 .041758 1.074 103.68 1.2288)" gradientUnits="userSpaceOnUse" xlink:href="#innoGrad1"/>
  <linearGradient id="linearGradient1432" x1="109.5" x2="133.46" y1="128.91" y2="110.93" gradientTransform="matrix(1.0192 -.0023907 .0026119 1.1135 -2.2585 -6.4264)" gradientUnits="userSpaceOnUse" xlink:href="#innoGrad1"/>
  <linearGradient id="linearGradient2809" x1="42.538" x2="63.778" y1="47.148" y2="47.148" gradientTransform="translate(20.662 -6.6766)" gradientUnits="userSpaceOnUse" xlink:href="#innoGrad2"/>
  <radialGradient id="radialGradient2873" cx="131.05" cy="74.443" r="73.229" gradientTransform="matrix(1 0 0 .4995 -1.0326 36.992)" gradientUnits="userSpaceOnUse" xlink:href="#innoGrad3"/>
  <linearGradient id="linearGradient2948" x1="157.87" x2="172.64" y1="58.355" y2="58.355" gradientTransform="translate(-1.0326 -.26664)" gradientUnits="userSpaceOnUse" xlink:href="#innoGrad4"/>
  <linearGradient id="linearGradient2993" x1="76.598" x2="91.369" y1="60.406" y2="60.406" gradientUnits="userSpaceOnUse" xlink:href="#innoGrad3"/>
  <linearGradient id="linearGradient2995" x1="157.87" x2="172.64" y1="58.355" y2="58.355" gradientUnits="userSpaceOnUse" xlink:href="#innoGrad3"/>
  <linearGradient id="linearGradient3852" x1="76.598" x2="91.369" y1="60.406" y2="60.406" gradientTransform="translate(-1.0326 -.26664)" gradientUnits="userSpaceOnUse" xlink:href="#innoGrad4"/>
  <linearGradient id="linearGradient1246" x1="30.877" x2="173.23" y1="70.008" y2="70.008" gradientTransform="translate(26.384,68.658)" gradientUnits="userSpaceOnUse" xlink:href="#innoGrad3"/>
  <linearGradient id="linearGradient1269" x1="158.17" x2="216.6" y1="49.459" y2="49.459" gradientTransform="translate(-17.766,-1.1368)" gradientUnits="userSpaceOnUse" xlink:href="#innoGrad2"/>
  <linearGradient id="linearGradient1293" x1="3.3764" x2="62.8" y1="29.257" y2="29.257" gradientTransform="translate(49.376,21.084)" gradientUnits="userSpaceOnUse" xlink:href="#innoGrad2"/>
  <linearGradient id="linearGradient2253" x1="42.478" x2="201.7" y1="165.67" y2="168.46" gradientTransform="translate(-1.0326 -.26664)" gradientUnits="userSpaceOnUse" xlink:href="#innoGrad2"/>
  <linearGradient id="linearGradient2290" x1="163.68" x2="185.11" y1="38.648" y2="38.648" gradientTransform="translate(-1.0326 -.26664)" gradientUnits="userSpaceOnUse" xlink:href="#innoGrad2"/>
  <radialGradient id="radialGradient1241" cx="-82.505" cy="124.13" r="36.304" gradientTransform="matrix(1 -.7191 .59571 .8284 105.18 11.213)" gradientUnits="userSpaceOnUse" xlink:href="#innoGrad2"/>
 </defs>
 <g stroke="#000000">
  <g stroke-width=".85214px">
   <g transform="translate(-1.0326 -.26664)" fill="#ff7f2a">
    <path d="m58.092 121.11c-0.07686-1.7129 3.1164-1.4654 3.1164-1.4654l-0.09275 4.3778s-2.9609-1.5144-3.0236-2.9123z"/>
    <path d="m197.48 121.58c0.0769-1.7129-2.5917-1.4654-2.5917-1.4654l0.0927 4.3778s2.4362-1.5144 2.499-2.9123z"/>
    <path d="m64.87 35.612c-1.6484 0.4718-0.39843 3.4206-0.39843 3.4206l4.1211-1.48s-2.3773-2.3257-3.7227-1.9406z"/>
    <path d="m184.36 33.56c1.6484 0.4718 0.39843 3.4206 0.39843 3.4206l-4.1211-1.48s2.3773-2.3257 3.7226-1.9406z"/>
    <path d="m57.136 198.32c-0.07686-1.7129 3.1164-1.4654 3.1164-1.4654l-0.09275 4.3778s-2.9609-1.5144-3.0236-2.9124z"/>
    <path d="m200.5 194.29c0.0769-1.7129-3.1164-1.4654-3.1164-1.4654l0.0927 4.3778s2.9609-1.5144 3.0236-2.9124z"/>
    <path d="m58.336 72.157c2.7166 13.29 4.6421 26.128 4.6004 37.842l131.04 0.59361c-0.86084-10.08 4.2584-28.704 9.5409-37.246l-10.415-0.02623c3.4315-7.8419 7.2023-14.978 8.5907-25.797 0.44237-3.4475-0.35807-6.0846-1.484-6.2328l-22.557-2.968-22.854 33.093-55.056-1.0388-4.8972-20.924-27.751-0.2968 0.5936 22.408z"/>
   </g>
   <path d="m57.303 71.89c2.7166 13.29 4.6421 26.128 4.6004 37.842l131.04 0.59361c-0.43042-5.04 0.63418-12.216 2.4667-19.2 1.8325-6.9838 4.433-13.775 7.0742-18.046l-10.415-0.02623c3.4315-7.8419 7.2023-14.978 8.5907-25.797 0.44237-3.4475-0.35807-6.0846-1.484-6.2328l-22.557-2.968-22.854 33.093-55.056-1.0388-4.8972-20.924-27.751-0.2968 0.5936 22.408z" fill="url(#radialGradient2873)"/>
   <path d="m59.366 224.42c0.96446 1.5005 5.1639 3.1458 69.169 4.1807 56.764 0.91773 66.083-4.6067 69.541-7.4649 2.8706-2.3728-0.70597-22.596-0.97937-34.681-0.28978-12.809-1.0069-25.001-1.4256-37.806-0.444-13.579 0.0275-39.306-1.2456-41.291-1.4054-2.1909-8.4798-0.31818-11.872-2.5228-4.052-2.6334 0.18131-45.949 0.1484-46.004l-27.306-10.091-6.9748 17.511c-1.2401 3.1134-40.105 5.6377-45.758 0.08631l-5.5882-15.965-28.344 8.7556c-0.77666 0.932 3.5307 41.149 0.5936 45.707-1.9108 2.9651-7.8271 0.68006-8.5606 3.3008-0.41661 1.4885-2.8137 37.162-2.9034 58.2-0.07636 17.9-0.82096 55.132 1.5064 58.085 2.24e-4 2.8e-4 -4e-4 -1e-3 -4e-4 -1e-3z" fill="#ffb380"/>
   <path d="m59.366 224.42c0.96446 1.5005 5.1639 3.1458 69.169 4.1807 56.764 0.91773 66.083-4.6067 69.541-7.4649 2.8706-2.3728-0.70597-22.596-0.97937-34.681-0.28978-12.809-1.0069-25.001-1.4256-37.806-0.444-13.579 0.0275-39.306-1.2456-41.291-1.4054-2.1909-8.4798-0.31818-11.872-2.5228-4.052-2.6334 0.18131-45.949 0.1484-46.004l-27.306-10.091-6.9748 17.511c-1.2401 3.1134-40.105 5.6377-45.758 0.08631l-5.5882-15.965-28.344 8.7556c-0.77666 0.932 3.5307 41.149 0.5936 45.707-1.9108 2.9651-7.8271 0.68006-8.5606 3.3008-0.41661 1.4885-2.8137 37.162-2.9034 58.2-0.07636 17.9-0.82096 55.132 1.5064 58.085 2.24e-4 2.8e-4 -4e-4 -1e-3 -4e-4 -1e-3z" fill="url(#linearGradient1246)" opacity=".45"/>
   <path d="m167.14 60.333c-8.5529 10.373-10.679 6.5787-9.6366-2.9126 4.2433-11.39-1.0459 2.4691 3.2712-7.6728 3.703 1.228 6.3874 1.6493 10.214 3.7521-4.7324 6.9782 1.4754-3.7773-3.8483 6.8333z" fill="url(#linearGradient2948)"/>
   <g transform="translate(-1.0326 -.26664)">
    <path d="m168.17 60.6c-8.5529 10.373-10.679 6.5787-9.6366-2.9126 4.2433-11.39-1.0459 2.4691 3.2712-7.6728 3.703 1.228 6.3874 1.6493 10.214 3.7521-4.7324 6.9782 1.4754-3.7773-3.8483 6.8333z" fill="url(#linearGradient2995)" opacity=".68299"/>
    <path d="m81.061 62.651c8.5529 10.373 10.679 6.5787 9.6366-2.9126-4.2433-11.39 1.0459 2.4691-3.2712-7.6728-3.703 1.228-6.3874 1.6493-10.214 3.7521 4.7324 6.9782-1.4754-3.7773 3.8483 6.8333z" fill="url(#linearGradient2993)" opacity=".68299"/>
   </g>
  </g>
  <path d="m198.34 40.708c-7.7712 3.0636-8.822 18.075-13.208 27.157-10.711-4.7302-23.775-9.2642-43.926-13.208 5.9309-9.6676 9.6131-23.491 18.127-25.992 2.2529-0.6618 28.244 8.0283 39.007 12.042z" fill="#ffb380"/>
  <path d="m198.34 40.708c-7.7712 3.0636-8.822 18.075-13.208 27.157-10.711-4.7302-23.775-9.2642-43.926-13.208 5.9309-9.6676 9.6131-23.491 18.127-25.992 2.2529-0.6618 28.244 8.0283 39.007 12.042z" fill="url(#linearGradient1269)" opacity=".5"/>
  <path d="m80.028 62.384c8.5529 10.373 10.679 6.5787 9.6366-2.9126-4.2433-11.39 1.0459 2.4691-3.2712-7.6728-3.703 1.228-6.3874 1.6493-10.214 3.7521 4.7324 6.9782-1.4754-3.7773 3.8483 6.8333z" fill="url(#linearGradient3852)"/>
  <path d="m53.57 41.605c1.1807-1.5025 31.338-13.81 37.905-14.231 6.0957-0.39062 12.803 20.396 19.697 27.449-19.178 3.7851-30.072 11.469-42.928 18.229-2.0577-11.974-17.375-28.01-14.674-31.447z" fill="#ffb380"/>
  <path d="m53.57 41.605c1.1807-1.5025 31.338-13.81 37.905-14.231 6.0957-0.39062 12.803 20.396 19.697 27.449-19.178 3.7851-30.072 11.469-42.928 18.229-2.0577-11.974-17.375-28.01-14.674-31.447z" fill="url(#linearGradient1293)" opacity=".5"/>
  <path d="m173.51 46.63-10.214-3.7521c4.2433-11.39 5.6778-10.985 7.3987-12.706 0.17846-0.12614 8.8147 1.019 12.641 3.1218-2.2068 2.9182-4.5023 2.7256-9.826 13.336z" fill="#ff9955"/>
  <path d="m164.61 39.31-1.3117 3.5678 10.966 4.1449 1.7314-3.5678 2.6234 1.1018-3.4104 6.1911-15.216-6.4535 2.361-5.8239z" fill="#ff7f2a"/>
  <path d="m73.401 48.681 10.476-3.7521c-4.1282-10.124-5.6688-10.886-7.3987-12.706-1.237-0.34601-8.8147 1.019-12.641 3.1218 2.2068 2.9182 4.24 2.7256 9.5637 13.336z" fill="#ff9955"/>
  <path d="m82.565 41.361 1.3117 3.5678-10.966 4.1449-1.7314-3.5678-2.6234 1.1018 3.4104 6.1911 15.216-6.4535-2.361-5.8239z" fill="#ff7f2a"/>
 </g>
 <g transform="matrix(.85214 0 0 .85214 38.753 19.801)">
  <path d="m27.05 107.84c6.5971-0.061 15.083-0.58234 16.122 0.71176-1.0538 15.62-1.5317 28.871-1.8264 41.369-3.0559-0.13492-10.408 0.82325-16.15-0.0716 0.36296-13.554 0.82222-27.278 1.8547-42.009z" fill="url(#linearGradient2313)"/>
  <path d="m73.849 64.124c12.247-0.33473 27.965-1.1862 30 0-0.67628 14.888-0.47736 27.501 0 39.39-5.6867 0-19.263 1.219-30 0.60953-0.4373-12.896-0.70962-25.957 0-40z" fill="url(#linearGradient1299)"/>
  <path d="m24.65 199.53c7.1037-0.4255 16.213-1.3839 17.413-0.24093-0.15722 14.556 0.1576 26.882 0.6226 38.498-3.3008 0.0457-11.162 1.3461-17.404 0.83664-0.45766-12.6-0.82216-25.363-0.63223-39.093z" fill="url(#linearGradient1166)"/>
  <path d="m45.681 200.9c10.597-0.31769 24.196-1.1427 25.956 0.0327-0.60071 14.723-0.44181 27.197-0.04125 38.955-4.9201-6e-3 -16.668 1.1846-25.956 0.57011-0.36484-12.754-0.58677-25.671 0.04189-39.558z" fill="url(#linearGradient1180)"/>
  <path d="m107.14 61.384c12.04-0.36251 27.491-1.2931 29.491 0.01632-0.6739 16.42-0.48606 30.331-0.024 43.444-5.5903-3e-3 -18.937 1.334-29.492 0.65592-0.42201-14.223-0.68174-28.629 0.0244-44.116z" fill="url(#linearGradient1194)"/>
  <path d="m166.98 198.22c6.7915-0.59787 15.491-1.7612 16.667-0.6949 0.19293 13.99 0.78519 25.824 1.5045 36.973-3.1593 0.13172-10.655 1.5904-16.644 1.267-0.7355-12.094-1.3856-24.347-1.5278-37.545z" fill="url(#linearGradient1208)"/>
  <path d="m44.743 154.5c10.672-0.36212 24.367-1.2799 26.14-7e-3 -0.58677 15.986-0.41133 29.529 0.0066 42.294-4.9551 1e-3 -16.785 1.3132-26.14 0.66111-0.3832-13.846-0.62268-27.87-0.0067-42.948z" fill="url(#linearGradient1222)"/>
  <path d="m166.61 155c6.8742-0.33808 15.696-1.1906 16.838-0.0146-0.37545 14.772-0.2603 27.286 0.0109 39.082-3.1918 3e-3 -10.812 1.2189-16.838 0.61938-0.24903-12.795-0.4055-25.753-0.0111-39.686z" fill="url(#linearGradient1236)"/>
  <path d="m73.317 200.77c12.469-0.34342 28.471-1.2144 30.544-5e-3 -0.68541 15.18-0.48024 28.039 8e-3 40.161-5.7897 1e-3 -19.612 1.2463-30.543 0.62672-0.44793-13.148-0.72792-26.465-0.0084-40.782z" fill="url(#linearGradient1250)"/>
  <path d="m138.97 107.07c10.282-0.33241 23.478-1.221 25.184 0.0834-0.60739 16.298-0.47402 30.107-0.10498 43.125-4.7737-0.0158-16.174 1.2811-25.185 0.58391-0.33272-14.12-0.52651-28.42 0.10661-43.792z" fill="url(#linearGradient1264)"/>
  <path d="m106.6 107.32c12.482-0.40201 28.499-1.3878 30.577-0.0717-0.6504 16.581-0.41471 30.625 0.10289 43.863-5.7961 0.0136-19.631 1.4035-30.575 0.75045-0.4794-14.359-0.79107-28.902-0.10448-44.542z" fill="url(#linearGradient1432)"/>
  <path d="m106.98 154.46c12.641-0.36143 28.863-1.2726 30.965-0.0161-0.68934 15.784-0.47667 29.156 0.023 41.759-5.8695 3e-3 -19.882 1.3027-30.964 0.66227-0.45888-13.671-0.74757-27.518-0.0233-42.406z" fill="url(#linearGradient1278)"/>
  <path d="m72.851 107.36c12.872-0.38232 29.391-1.3353 31.532-0.038-0.69113 16.315-0.46538 30.136 0.0521 43.163-5.977 7e-3 -20.245 1.3602-31.531 0.70594-0.47667-14.131-0.78016-28.442-0.05287-43.831z" fill="url(#linearGradient1292)"/>
  <path d="m138.92 61.418c9.7874-0.40102 22.347-1.3717 23.976-0.09619-0.50785 16.093-0.32123 29.723 0.0863 42.571-4.5448 0.0182-15.392 1.3792-23.975 0.75492-0.37775-13.936-0.62402-28.05-0.0877-43.229z" fill="url(#linearGradient1306)"/>
  <path d="m44.636 63.706c11.082-0.30609 25.306-1.1343 27.144 0.09635-0.65054 15.362-0.50329 28.379-0.10222 40.649-5.1454-0.0183-17.433 1.1961-27.146 0.53266-0.36221-13.31-0.57471-26.789 0.1038-41.278z" fill="url(#linearGradient1320)"/>
  <path d="m73.616 154.29c12.474-0.38661 28.482-1.3487 30.557-0.0415-0.66651 16.443-0.44497 30.372 0.0591 43.502-5.7923 8e-3 -19.619 1.3729-30.556 0.71466-0.46477-14.241-0.76175-28.665-0.06002-44.175z" fill="url(#linearGradient1334)"/>
  <path d="m44.737 107.77c10.68-0.36675 24.386-1.303 26.16 6e-3 -0.59217 16.426-0.42079 30.342-0.0065 43.46-4.9588-1e-3 -16.798 1.341-26.16 0.66624-0.3792-14.228-0.61451-28.639 0.0066-44.132z" fill="url(#linearGradient1348)"/>
  <path d="m106.59 199.47c13.386-0.36085 30.565-1.2615 32.791-0.0336-0.72336 15.441-0.49252 28.521 0.0419 40.849-6.2157 6e-3 -21.054 1.2858-32.79 0.66573-0.4917-13.373-0.80324-26.918-0.0425-41.482z" fill="url(#linearGradient1362)"/>
  <path d="m140.67 154.98c10.118-0.3204 23.103-1.1558 24.783 0.0395-0.57432 14.967-0.42324 27.647-0.0414 39.6-4.6977-7e-3 -15.915 1.2002-24.783 0.57331-0.3477-12.965-0.55894-26.096 0.042-40.213z" fill="url(#linearGradient1376)"/>
  <path d="m140.4 197.72c10.279-0.33165 23.47-1.1798 25.178 9e-3 -0.57165 14.908-0.40816 27.537-0.0108 39.442-4.7726-2e-3 -16.167 1.2151-25.178 0.60169-0.36348-12.913-0.58845-25.991 0.011-40.053z" fill="url(#linearGradient1390)"/>
  <path d="m24.499 153.99c7.0591-0.38215 16.118-1.3211 17.292-0.0644-0.37339 15.829-0.24482 29.237 0.04344 41.875-3.2778 0.0122-11.102 1.3373-17.291 0.71242-0.26628-13.709-0.43765-27.593-0.04412-42.523z" fill="url(#linearGradient1404)"/>
  <path d="m165.39 108.86c6.5884-0.62703 15.026-1.8849 16.172-0.65528 0.25714 16.006 0.89107 29.548 1.6449 42.307-3.0656 0.12421-10.334 1.7301-16.147 1.3099-0.77425-13.841-1.4664-27.863-1.6703-42.962z" fill="url(#linearGradient1418)"/>
  <g fill="#ffd42a" stroke="#000000" stroke-width=".2">
   <ellipse transform="rotate(-.13439)" cx="110.65" cy="112.36" rx="1.7572" ry="1.9197"/>
   <ellipse transform="rotate(-.13439)" cx="132.62" cy="112.36" rx="1.7572" ry="1.9197"/>
   <ellipse transform="rotate(-.13439)" cx="110.65" cy="147.33" rx="1.7572" ry="1.9197"/>
   <ellipse transform="rotate(-.13439)" cx="132.62" cy="147.33" rx="1.7572" ry="1.9197"/>
   <ellipse transform="rotate(2.528)" cx="34.053" cy="111.06" rx=".92735" ry="1.8123"/>
   <ellipse transform="rotate(2.528)" cx="45.645" cy="111.06" rx=".92735" ry="1.8123"/>
   <ellipse transform="rotate(2.528)" cx="34.053" cy="144.07" rx=".92735" ry="1.8123"/>
   <ellipse transform="rotate(2.528)" cx="45.645" cy="144.07" rx=".92735" ry="1.8123"/>
   <circle cx="78.074" cy="68.424" r="1.724"/>
   <circle cx="99.624" cy="68.424" r="1.724"/>
   <circle cx="78.074" cy="99.825" r="1.724"/>
   <circle cx="99.624" cy="99.825" r="1.724"/>
   <ellipse transform="matrix(.9999 -.013834 .01617 .99987 0 0)" cx="23.873" cy="204.06" rx="1.0008" ry="1.6851"/>
   <ellipse transform="matrix(.9999 -.013834 .01617 .99987 0 0)" cx="36.382" cy="204.06" rx="1.0008" ry="1.6851"/>
   <ellipse transform="matrix(.9999 -.013834 .01617 .99987 0 0)" cx="23.873" cy="234.75" rx="1.0008" ry="1.6851"/>
   <ellipse transform="matrix(.9999 -.013834 .01617 .99987 0 0)" cx="36.382" cy="234.75" rx="1.0008" ry="1.6851"/>
   <ellipse transform="matrix(1 .0012588 -.001059 1 0 0)" cx="49.549" cy="205.09" rx="1.4916" ry="1.7049"/>
   <ellipse transform="matrix(1 .0012588 -.001059 1 0 0)" cx="68.194" cy="205.09" rx="1.4916" ry="1.7049"/>
   <ellipse transform="matrix(1 .0012588 -.001059 1 0 0)" cx="49.549" cy="236.15" rx="1.4916" ry="1.7049"/>
   <ellipse transform="matrix(1 .0012588 -.001059 1 0 0)" cx="68.194" cy="236.15" rx="1.4916" ry="1.7049"/>
   <ellipse transform="rotate(.031714)" cx="111.33" cy="66.067" rx="1.6948" ry="1.9014"/>
   <ellipse transform="rotate(.031714)" cx="132.51" cy="66.067" rx="1.6948" ry="1.9014"/>
   <ellipse transform="rotate(.031714)" cx="111.33" cy="100.7" rx="1.6948" ry="1.9014"/>
   <ellipse transform="rotate(.031714)" cx="132.51" cy="100.7" rx="1.6948" ry="1.9014"/>
   <ellipse transform="matrix(.99913 -.041657 .040658 .99917 0 0)" cx="161.14" cy="209.04" rx=".95863" ry="1.6195"/>
   <ellipse transform="matrix(.99913 -.041657 .040658 .99917 0 0)" cx="173.12" cy="209.04" rx=".95863" ry="1.6195"/>
   <ellipse transform="matrix(.99913 -.041657 .040658 .99917 0 0)" cx="161.14" cy="238.54" rx=".95863" ry="1.6195"/>
   <ellipse transform="matrix(.99913 -.041657 .040658 .99917 0 0)" cx="173.12" cy="238.54" rx=".95863" ry="1.6195"/>
   <ellipse transform="matrix(1,-2.5466e-4,1.5632e-4,1,0,0)" cx="48.401" cy="159.12" rx="1.5022" ry="1.8511"/>
   <ellipse transform="matrix(1,-2.5466e-4,1.5632e-4,1,0,0)" cx="67.178" cy="159.12" rx="1.5022" ry="1.8511"/>
   <ellipse transform="matrix(1,-2.5466e-4,1.5632e-4,1,0,0)" cx="48.401" cy="192.84" rx="1.5022" ry="1.8511"/>
   <ellipse transform="matrix(1,-2.5466e-4,1.5632e-4,1,0,0)" cx="67.178" cy="192.84" rx="1.5022" ry="1.8511"/>
   <ellipse transform="matrix(1,-8.6918e-4,2.7972e-4,1,0,0)" cx="168.94" cy="159.41" rx=".96764" ry="1.7105"/>
   <ellipse transform="matrix(1,-8.6918e-4,2.7972e-4,1,0,0)" cx="181.04" cy="159.41" rx=".96764" ry="1.7105"/>
   <ellipse transform="matrix(1,-8.6918e-4,2.7972e-4,1,0,0)" cx="168.94" cy="190.56" rx=".96764" ry="1.7105"/>
   <ellipse transform="matrix(1,-8.6918e-4,2.7972e-4,1,0,0)" cx="181.04" cy="190.56" rx=".96764" ry="1.7105"/>
   <ellipse transform="matrix(1,-1.7271e-4,2.0571e-4,1,0,0)" cx="77.578" cy="205.17" rx="1.7552" ry="1.7577"/>
   <ellipse transform="matrix(1,-1.7271e-4,2.0571e-4,1,0,0)" cx="99.518" cy="205.17" rx="1.7552" ry="1.7577"/>
   <ellipse transform="matrix(1,-1.7271e-4,2.0571e-4,1,0,0)" cx="77.578" cy="237.18" rx="1.7552" ry="1.7577"/>
   <ellipse transform="matrix(1,-1.7271e-4,2.0571e-4,1,0,0)" cx="99.518" cy="237.18" rx="1.7552" ry="1.7577"/>
   <ellipse transform="matrix(.99999 .0033114 -.0024345 1 0 0)" cx="142.77" cy="111.32" rx="1.4472" ry="1.8874"/>
   <ellipse transform="matrix(.99999 .0033114 -.0024345 1 0 0)" cx="160.86" cy="111.32" rx="1.4472" ry="1.8874"/>
   <ellipse transform="matrix(.99999 .0033114 -.0024345 1 0 0)" cx="142.77" cy="145.7" rx="1.4472" ry="1.8874"/>
   <ellipse transform="matrix(.99999 .0033114 -.0024345 1 0 0)" cx="160.86" cy="145.7" rx="1.4472" ry="1.8874"/>
   <ellipse transform="matrix(1,-5.1949e-4,5.5023e-4,1,0,0)" cx="111.26" cy="159.07" rx="1.7794" ry="1.8277"/>
   <ellipse transform="matrix(1,-5.1949e-4,5.5023e-4,1,0,0)" cx="133.5" cy="159.07" rx="1.7794" ry="1.8277"/>
   <ellipse transform="matrix(1,-5.1949e-4,5.5023e-4,1,0,0)" cx="111.26" cy="192.36" rx="1.7794" ry="1.8277"/>
   <ellipse transform="matrix(1,-5.1949e-4,5.5023e-4,1,0,0)" cx="133.5" cy="192.36" rx="1.7794" ry="1.8277"/>
   <ellipse transform="rotate(-.069117)" cx="77.162" cy="112.16" rx="1.812" ry="1.8891"/>
   <ellipse transform="rotate(-.069117)" cx="99.812" cy="112.16" rx="1.812" ry="1.8891"/>
   <ellipse transform="rotate(-.069117)" cx="77.162" cy="146.57" rx="1.812" ry="1.8891"/>
   <ellipse transform="rotate(-.069117)" cx="99.812" cy="146.57" rx="1.812" ry="1.8891"/>
   <ellipse transform="matrix(.99999 -.0040119 .002028 1 0 0)" cx="142.18" cy="66.621" rx="1.3778" ry="1.8632"/>
   <ellipse transform="matrix(.99999 -.0040119 .002028 1 0 0)" cx="159.4" cy="66.621" rx="1.3778" ry="1.8632"/>
   <ellipse transform="matrix(.99999 -.0040119 .002028 1 0 0)" cx="142.18" cy="100.56" rx="1.3778" ry="1.8632"/>
   <ellipse transform="matrix(.99999 -.0040119 .002028 1 0 0)" cx="159.4" cy="100.56" rx="1.3778" ry="1.8632"/>
   <ellipse transform="matrix(.99999 .0035496 -.0025147 1 0 0)" cx="48.619" cy="67.984" rx="1.5599" ry="1.7791"/>
   <ellipse transform="matrix(.99999 .0035496 -.0025147 1 0 0)" cx="68.118" cy="67.984" rx="1.5599" ry="1.7791"/>
   <ellipse transform="matrix(.99999 .0035496 -.0025147 1 0 0)" cx="48.619" cy="100.39" rx="1.5599" ry="1.7791"/>
   <ellipse transform="matrix(.99999 .0035496 -.0025147 1 0 0)" cx="68.118" cy="100.39" rx="1.5599" ry="1.7791"/>
   <ellipse transform="rotate(-.077843)" cx="77.71" cy="159.14" rx="1.756" ry="1.9039"/>
   <ellipse transform="rotate(-.077843)" cx="99.66" cy="159.14" rx="1.756" ry="1.9039"/>
   <ellipse transform="rotate(-.077843)" cx="77.71" cy="193.82" rx="1.756" ry="1.9039"/>
   <ellipse transform="rotate(-.077843)" cx="99.66" cy="193.82" rx="1.756" ry="1.9039"/>
   <ellipse transform="matrix(1,2.3896e-4,-1.494e-4,1,0,0)" cx="48.438" cy="112.5" rx="1.5033" ry="1.9021"/>
   <ellipse transform="matrix(1,2.3896e-4,-1.494e-4,1,0,0)" cx="67.229" cy="112.5" rx="1.5033" ry="1.9021"/>
   <ellipse transform="matrix(1,2.3896e-4,-1.494e-4,1,0,0)" cx="48.438" cy="147.15" rx="1.5033" ry="1.9021"/>
   <ellipse transform="matrix(1,2.3896e-4,-1.494e-4,1,0,0)" cx="67.229" cy="147.15" rx="1.5033" ry="1.9021"/>
   <ellipse transform="rotate(-.05876)" cx="111" cy="204.04" rx="1.8844" ry="1.7878"/>
   <ellipse transform="rotate(-.05876)" cx="134.56" cy="204.04" rx="1.8844" ry="1.7878"/>
   <ellipse transform="rotate(-.05876)" cx="111" cy="236.61" rx="1.8844" ry="1.7878"/>
   <ellipse transform="rotate(-.05876)" cx="134.56" cy="236.61" rx="1.8844" ry="1.7878"/>
   <ellipse transform="matrix(1 .0015922 -.0010452 1 0 0)" cx="144.32" cy="159.08" rx="1.4242" ry="1.7332"/>
   <ellipse transform="matrix(1 .0015922 -.0010452 1 0 0)" cx="162.12" cy="159.08" rx="1.4242" ry="1.7332"/>
   <ellipse transform="matrix(1 .0015922 -.0010452 1 0 0)" cx="144.32" cy="190.65" rx="1.4242" ry="1.7332"/>
   <ellipse transform="matrix(1 .0015922 -.0010452 1 0 0)" cx="162.12" cy="190.65" rx="1.4242" ry="1.7332"/>
   <ellipse transform="matrix(1,3.4298e-4,-2.7336e-4,1,0,0)" cx="144" cy="201.97" rx="1.4469" ry="1.7263"/>
   <ellipse transform="matrix(1,3.4298e-4,-2.7336e-4,1,0,0)" cx="162.08" cy="201.97" rx="1.4469" ry="1.7263"/>
   <ellipse transform="matrix(1,3.4298e-4,-2.7336e-4,1,0,0)" cx="144" cy="233.41" rx="1.4469" ry="1.7263"/>
   <ellipse transform="matrix(1,3.4298e-4,-2.7336e-4,1,0,0)" cx="162.08" cy="233.41" rx="1.4469" ry="1.7263"/>
   <ellipse transform="matrix(.99999 -.003727 .0010374 1 0 0)" cx="26.774" cy="158.65" rx=".99372" ry="1.8328"/>
   <ellipse transform="matrix(.99999 -.003727 .0010374 1 0 0)" cx="39.196" cy="158.65" rx=".99372" ry="1.8328"/>
   <ellipse transform="matrix(.99999 -.003727 .0010374 1 0 0)" cx="26.774" cy="192.03" rx=".99372" ry="1.8328"/>
   <ellipse transform="matrix(.99999 -.003727 .0010374 1 0 0)" cx="39.196" cy="192.03" rx=".99372" ry="1.8328"/>
   <ellipse transform="matrix(.99918 -.040485 .03885 .99925 0 0)" cx="163.32" cy="120.09" rx=".93014" ry="1.853"/>
   <ellipse transform="matrix(.99918 -.040485 .03885 .99925 0 0)" cx="174.94" cy="120.09" rx=".93014" ry="1.853"/>
   <ellipse transform="matrix(.99918 -.040485 .03885 .99925 0 0)" cx="163.32" cy="153.84" rx=".93014" ry="1.853"/>
   <ellipse transform="matrix(.99918 -.040485 .03885 .99925 0 0)" cx="174.94" cy="153.84" rx=".93014" ry="1.853"/>
  </g>
 </g>
 <g stroke="#000000">
  <g transform="translate(-1.0326 -.26664)" fill="#ff7f2a" stroke-width=".85214px">
   <path d="m166.27 201.47 0.5194 10.982c12.148-0.40595 26.548-1.6224 33.603-5.4511 1.4145-0.76765 0.89237-8.4189 0.11548-12.715-11.195 4.8339-22.485 5.5114-34.238 7.1847z"/>
   <path d="m94.058 205.1-0.30952 10.877c-12.148-0.40117-31.071-1.646-35.553-4.6768-0.95511-0.64594-1.8368-8.6812-1.0599-12.978 11.195 4.8339 25.169 5.1043 36.922 6.7777z"/>
   <path d="m166.69 127.43 0.0997 11.506c12.148-0.40116 30.599-3.3123 31.097-4.5374 0.0657-1.855 0.26276-8.4189-0.51413-12.715-11.195 4.8339-18.93 4.073-30.682 5.7463z"/>
   <path d="m91.762 127.36-0.57186 11.454c-11.428-0.24956-23.453-0.83429-32.039-4.7293-1.05-0.47633-1.8368-8.6812-1.0599-12.978 11.195 4.8339 21.918 4.5797 33.671 6.253z"/>
  </g>
  <g fill="url(#linearGradient2253)" stroke-width=".85214px">
   <path d="m165.24 201.2 0.5194 10.982c12.148-0.40595 26.548-1.6224 33.603-5.4511 1.4145-0.76765 0.89237-8.4189 0.11548-12.715-11.195 4.8339-22.485 5.5114-34.238 7.1847z"/>
   <path d="m93.025 204.83-0.30952 10.877c-12.148-0.40117-31.071-1.646-35.553-4.6768-0.95511-0.64594-1.8368-8.6812-1.0599-12.978 11.195 4.8339 25.169 5.1043 36.922 6.7777z" opacity=".34031"/>
   <path d="m165.66 127.16 0.0997 11.506c12.148-0.40116 30.599-3.3123 31.097-4.5374 0.0657-1.855 0.26276-8.4189-0.51413-12.715-11.195 4.8339-18.93 4.073-30.682 5.7463z"/>
   <path d="m90.729 127.09-0.57186 11.454c-11.428-0.24956-23.453-0.83429-32.039-4.7293-1.05-0.47633-1.8368-8.6812-1.0599-12.978 11.195 4.8339 21.918 4.5797 33.671 6.253z" opacity=".34293"/>
  </g>
  <g transform="translate(-1.0326 -.26664)" fill="#ffd42a" stroke-width=".17043">
   <ellipse transform="scale(-1,1)" cx="-169.44" cy="204" rx="1.3513" ry="1.4691"/>
   <ellipse transform="scale(-1,1)" cx="-169.39" cy="209.37" rx="1.3513" ry="1.4691"/>
   <ellipse transform="scale(-1,1)" cx="-90.606" cy="207.42" rx="1.3513" ry="1.4691"/>
   <ellipse transform="scale(-1,1)" cx="-90.556" cy="212.79" rx="1.3513" ry="1.4691"/>
   <ellipse transform="scale(-1,1)" cx="-170.04" cy="130.29" rx="1.3513" ry="1.4691"/>
   <ellipse transform="scale(-1,1)" cx="-169.99" cy="135.66" rx="1.3513" ry="1.4691"/>
   <ellipse transform="scale(-1,1)" cx="-88.154" cy="130.21" rx="1.3513" ry="1.4691"/>
   <ellipse transform="scale(-1,1)" cx="-88.104" cy="135.58" rx="1.3513" ry="1.4691"/>
  </g>
  <path d="m73.401 48.681 10.476-3.7521c-4.1282-10.124-5.6688-10.886-7.3987-12.706-1.237-0.34601-8.8147 1.019-12.641 3.1218 2.2068 2.9182 4.24 2.7256 9.5637 13.336z" fill="url(#linearGradient2809)" opacity=".6366" stroke-width=".85214px"/>
  <path d="m173.51 46.631-10.214-3.7521c4.2433-11.39 5.6778-10.985 7.3987-12.706 0.17846-0.12614 8.8147 1.019 12.641 3.1218-2.2068 2.9182-4.5023 2.7256-9.826 13.336z" fill="url(#linearGradient2290)" opacity=".46859"/>
 </g>
 <ellipse cx="96.616" cy="173.37" rx="36.204" ry="36.943" fill="url(#radialGradient1241)" opacity=".1466"/>
</svg>
