<?xml version="1.0" encoding="UTF-8"?>
<svg version="1.1" viewBox="0 0 256 256" xmlns="http://www.w3.org/2000/svg" xmlns:cc="http://creativecommons.org/ns#" xmlns:dc="http://purl.org/dc/elements/1.1/" xmlns:rdf="http://www.w3.org/1999/02/22-rdf-syntax-ns#">
 <style>svg { cursor: default; }</style>
 <defs>
  <linearGradient id="linearGradient4937" x1="187.2" x2="190.84" y1="211.76" y2="206.01" gradientTransform="matrix(1.1136 .097428 -.097428 1.1136 7.592 -52.388)" gradientUnits="userSpaceOnUse">
   <stop stop-color="#ffd42a" offset="0"/>
   <stop stop-color="#ffd42a" stop-opacity="0" offset="1"/>
  </linearGradient>
  <clipPath id="clipPath5158">
   <g transform="translate(-.0025371 -.0035904)">
    <path d="m179.24 208.83c0.21697 0.89747 0.19563 1.805 0.17358 2.5277-0.15391 1.0708-0.58526 1.8535-1.6736 2.2488-1.7016 0.46985-2.6597-0.16801-3.3471-0.52298-0.93823-0.73786-1.1925-1.5294-1.2552-2.3534-0.089-0.84211 0.22812-0.46622 0.47069-0.31379 0.4402 0.55347 0.6647 1.4272 1.6474 1.6212 0.51333 0.0833 0.71841 6e-3 0.953-0.39809 0.6375-1.1258 0.26569-1.55-0.0261-2.275z" fill="#ffb380" stroke="#000000" stroke-width=".29287px"/>
    <path d="m164.96 193.81c-0.92187 2.1092-2.1982 4.0933-2.0074 6.5952-0.10051 2.0781 0.82683 4.3697 4.1957 5.6316 2.1341 0.68845 3.9235 0.57053 6.4824 1.6869 1.6335 0.82014 2.2347 1.5256 3.3111 2.2838l2.2928-1.1834c-0.34247-1.6346-1.9881-3.083-3.772-4.5116-1.5301-0.87721-2.4878-0.9748-4.6804-1.7444-2.0987-0.98836-1.5574-2.8658-1.1625-4.2464 0.38988-1.1481 0.9425-2.1009 1.681-2.8306" fill="#ffb380" stroke="#000000" stroke-width=".29287px"/>
    <path d="m176.05 209.04c0.62676 0.58986 0.4979 1.174 0.76941 1.7597l2.4319-0.36609c-0.0632-0.72593 0.0259-1.4225-0.38168-2.2319z" fill="#ffb380"/>
   </g>
  </clipPath>
 </defs>
 <metadata>
  <rdf:RDF>
   <cc:Work rdf:about="">
    <dc:format>image/svg+xml</dc:format>
    <dc:type rdf:resource="http://purl.org/dc/dcmitype/StillImage"/>
    <dc:title/>
   </cc:Work>
  </rdf:RDF>
 </metadata>
 <path d="m224.34 220.48c-0.74241 0.10337-1.433 0.29875-2.4184-0.0292-1.5556-0.74316-3.5732-1.7126-4.6342-1.3675-0.8521 0.29675-1.4774 0.69433-2.1721 1.0637-0.38485 0.10828-0.52412 0.74739 0.22423 0.48544 0.64428-0.2197 1.3257-0.26693 1.9784-0.13959 1.1358 0.34263 2.1688 1.2803 2.9775 2.0854 0.95978 0.70027 1.6876 0.87278 2.6073 0.86719 1.2737 0.0128 2.2-0.69624 3.2018-1.2486z" fill="#ff5555" stroke="#000000" stroke-width=".29577px"/>
 <g transform="matrix(1.1136 .097428 -.097428 1.1136 7.592 -52.388)" fill="#ff5555">
  <path d="m179.24 208.83c0.21697 0.89747 0.19563 1.805 0.17358 2.5277-0.15391 1.0708-0.58526 1.8535-1.6736 2.2488-1.7016 0.46985-2.6597-0.16801-3.3471-0.52298-0.93823-0.73786-1.1925-1.5294-1.2552-2.3534-0.089-0.84211 0.22812-0.46622 0.47069-0.31379 0.4402 0.55347 0.6647 1.4272 1.6474 1.6212 0.51333 0.0833 0.71841 6e-3 0.953-0.39809 0.6375-1.1258 0.26569-1.55-0.0261-2.275z" stroke="#000000" stroke-width=".29287px"/>
  <path d="m164.96 193.81c-0.92187 2.1092-2.1982 4.0933-2.0074 6.5952-0.10051 2.0781 0.82683 4.3697 4.1957 5.6316 2.1341 0.68845 3.9235 0.57053 6.4824 1.6869 1.6335 0.82014 2.2347 1.5256 3.3111 2.2838l2.2928-1.1834c-0.34247-1.6346-1.9881-3.083-3.772-4.5116-1.5301-0.87721-2.4878-0.9748-4.6804-1.7444-2.0987-0.98836-1.5574-2.8658-1.1625-4.2464 0.38988-1.1481 0.9425-2.1009 1.681-2.8306" stroke="#000000" stroke-width=".29287px"/>
  <path d="m176.05 209.04c0.62676 0.58986 0.4979 1.174 0.76941 1.7597l2.4319-0.36609c-0.0632-0.72593 0.0259-1.4225-0.38168-2.2319z"/>
 </g>
 <rect transform="matrix(1.1136 .097428 -.097428 1.1136 7.592 -52.388)" x="156.63" y="189.37" width="26.269" height="27.64" clip-path="url(#clipPath5158)" fill="#000000" opacity=".5"/>
 <path d="m173.2 185.42 46.2 35.38c7.0197 6.5123 12.186-5.8954 9.6437-8.6047l-46.248-34.504c-5.2148-2.8125-11.079 2.2264-9.5964 7.7285z" fill="#ffe680" stroke="#000000" stroke-width=".32739px"/>
 <path d="m228.65 213.56c-0.0924-1.0084-1.1448-1.3508-2.2285-1.5644-1.9113 0.12664-3.2001 1.8286-4.3961 3.7651-0.65909 1.2011-1.2545 2.7397-1.1803 4.0049 0.088 0.93173 0.56714 1.417 1.5479 1.7538 0.63551 0.21181 1.2946 0.37693 2.1934 0.0674 0.90248-0.49665 1.4435-0.66172 2.3667-2.0279" fill="none" stroke="#000000" stroke-linecap="round" stroke-linejoin="round" stroke-width=".3279"/>
 <path d="m166.66 180.75c-0.84483 1.0894-1.9027 1.7608-2.3154 3.6982-0.71216 2.0152-0.86931 4.5158 0.45512 6.1814 2.2261 2.2514 4.3052 2.1369 6.8311 3.5024 1.5855 0.85733 2.8644 1.8956 3.78 3.277 0.67415 1.2336 0.81512 2.4522 0.98273 3.9452 0.16341 1.1419 0.0937 2.1405 0.0556 3.1586 0.12525 1.9433 1.2233 1.1594 1.2354 0.10808 0.23195-1.197 0.35704-2.4032 0.48177-3.6096 0.26929-2.0593 0.0254-3.5463-0.0402-5.2321-0.28517-2.7578-1.8215-4.8022-3.6045-6.7059-0.98809-0.92617-1.6516-1.8195-2.1739-3.1365-0.0689-1.318 0.0876-2.1356 0.51011-2.9847" fill="#ff5555" stroke="#000000" stroke-width=".32739px"/>
 <path transform="matrix(1.1136 .097428 -.097428 1.1136 7.592 -52.388)" d="m153.08 189.65 9.0463 16.289c3.2304 0.55248 5.0239 1.8753 6.6505 3.2877 1.0668 1.2702 2.0956 8.1206 2.2047 7.4931 0.50879-2.9278-1.2128-7.6153-1.6195-8.121-0.89347-1.1108-1.5285-1.5122-2.2287-2.0792-0.45698-0.37012-1.4655-0.44946-1.4856-1.4672 0.0324-1.4257 0.73369-1.9497 1.8739-2.9118l-2.7286-4.2256c-1.8023-0.75107-7.319-6.0602-11.713-8.2651z" fill="#000000" opacity=".35"/>
 <path d="m164.91 180.39c-1.0596 0.0878-2.0412 0.64431-3.154 1.4254-1.3206 1.3408-2.8379 2.5516-3.1092 4.7076-0.3044 1.92 0.75029 4.7756 2.1044 5.8277 1.3705 0.90342 1.9574 1.6437 2.6984 3.3069 0.34098 2.0142 0.15449 3.9489-1.2457 5.7006-1.0456 0.79346-1.468 1.025-3.9936 1.0615-1.7264 0.0724-0.68441 1.0509 0.644 1.1768 1.9048 0.18264 3.6956-0.0122 5.4293-0.39643 4.1844-1.28 4.8634-4.7716 4.5917-7.8977-0.35076-2.2159-1.2949-4.1428-2.2064-6.0856 0.0461-1.3892 0.53045-1.9186 1.0398-2.3988 1.6268-1.2203 1.3327-2.7302 1.2807-4.2037" fill="#ff5555" stroke="#000000" stroke-width=".32739px"/>
 <path transform="matrix(1.1136 .097428 -.097428 1.1136 7.592 -52.388)" d="m161.21 209.42c0.76074-2.3144-3.1545-2.8718-4.163-3.5395-1.4403-0.95353-2.714-2.9879-2.3851-4.7809 0.62789-3.4222 2.3288-1.7303 5.1298-2.1363-3.7169 3.1569-3.0233 4.9865-3.1546 7.9119l1.828 4.0174c0.83592 4.7845-5.6972 4.3312-5.0272 4.548-1.2488 1.06 5.8257 0.19924 7.0848-2.4282 0.31494-0.65723 1.2074-0.0272 1.9971 0.0231 0.18984-0.36904 0.16782-0.24728 0.31627-0.49727l1.3496-0.29848-2.0486-2.7953c-0.44164-1.287-0.35086-2.8905 0.0768-3.4997-0.13447-0.4231-0.12809-0.35236-0.32936-0.74687l2.4429-8.1717-5.1037-2.2827c-2.0114 0.98965-4.0538 1.7284-5.7973 4.8855-1.1819 7.3833 4.6794 6.9016 7.7836 9.7911z" fill="#000000" opacity=".35"/>
 <path d="m179.84 172.36-3.8006 4.719-10.35 5.2471c-3.1802-0.40457-6.1396-0.36488-10.724-3.594-8.9614-6.3447-15.949-13.314-22.44-20.716-9.8116-10.626-12.344-21.354-11.008-33.335 1.2024-10.832 5.0401-17.683 7.4284-29.955 1.9493-9.2833 0.88543-25.023-2.8554-33.739-3.3609-7.875-10.032-12.206-17.588-15.21-4.5838-1.9554-18.57-5.3499-32.142-4.472-10.904 0.5648-21.715 3.2549-29.717 8.2011-9.7064 5.9014-12.305 12.606-13.53 19.387-1.3998 6.932-1.6249 10.979-0.91197 18.013 0.73355 7.9767 3.231 15.358 9.0993 21.213 5.0575 5.0889 10.344 6.7964 14.189 11.279 3.2398 4.0588 3.9992 9.8092 3.5804 13.819-0.61076 5.3599-5.3242 11.802-9.1366 13.709-7.3944 3.7724-14.533 3.5985-19.914 2.8651-7.1594-1.0266-13.453-3.02-18.995-5.8116-3.2523-1.9918-5.4698-4.377-6.4388-7.0368-0.88032-4.0495 0.38973-2.973 1.2478-2.8786 2.3058 2.0976 7.0351 4.9923 9.5663 6.0631 4.2442 1.4496 12.109 3.1835 15.802 3.1614 5.2324-0.0189 13.489-1.5459 16.096-4.7861 2.1931-2.7957 4.7219-7.5666 1.4626-12.817-4.4576-5.2686-13.049-8.601-18.181-13.222-4.3237-3.4977-10.122-11.286-11.883-21.283-1.8913-9.4527-0.88007-17.609 0.8184-26.604 5.3528-17.783 13.009-23.083 20.576-28.021 9.4056-5.6078 19.434-10.346 36.429-10.448 11.384 0.36474 21.893 0.96931 34.27 3.7963 16.768 3.7876 31.298 19.584 33.582 26.418 3.3325 9.5446 5.3202 25.77 3.4677 40.7-1.3106 9.6984-6.1708 18.815-5.6169 30.05 0.73382 9.8949 7.3643 19.683 16.737 25.209 6.394 3.3776 10.688 5.7335 15.721 9.4939 3.134 3.5336 3.7531 7.0568 5.16 10.583z" fill="#ff5555" stroke="#000000" stroke-width=".32739px"/>
 <path d="m172.52 184.59c-0.55888-0.55291-1.2024-2.4335-0.46503-3.948 1.012-1.798 4.4384-6.8883 6.0585-6.6379" fill="none" stroke="#000000" stroke-linecap="round" stroke-linejoin="round" stroke-width=".28668"/>
 <path d="m173.22 185.22 46.2 35.38c7.0196 6.5123 12.186-5.8954 9.6437-8.6047l-46.248-34.504c-5.2148-2.8125-11.079 2.2264-9.5964 7.7285z" fill="url(#linearGradient4937)" stroke-opacity="0"/>
 <path d="m178.02 189.02c-1.0338-1.1038-1.8628-2.3229-0.92869-4.5347 0.49341-1.1725 0.34347-2.4013 0.48506-3.6046 2.6642 1.4662 3.623 2.6756 3.7394 4.5991-0.0581 1.5888-0.94113 0.80529-1.3941 4.9902l3.9876 3.091c-0.24074-4.1651 2.053-4.9016 2.9085-7.5355l-4.2435-9.0661-10.437 0.51838 1.5858 7.9323 1.1615 1.268z" fill="#000000" opacity=".35"/>
 <path d="m169.38 176.18c2.3373-0.38625 4.4495-0.52136 5.332 0.71547 1.4626 1.7057 1.932 3.7379 1.8018 5.9672-0.34623 2.8449-0.85253 4.0592-3.3768 6.3441-2.1879 1.4263-3.607 0.70668-5.126 2.6223-1.1445 1.5099-1.3521 3.4143-0.33557 4.7843 1.2411 1.1972 3.3366 1.8302 5.0983 2.4379 1.9098 0.36742 2.0394 1.6251-0.80302 1.5896-2.8697-0.13335-5.3474-0.80689-7.4622-1.9808-3.0929-2.1518-2.3359-5.5436-1.5176-8.2662 1.0496-3.2385 4.7448-4.2595 6.8577-6.2885-1.7289-0.0959-3.4365-0.26497-4.8553-1.4207-1.6582-1.4176-1.7385-2.5313-1.9068-3.8186" fill="#ff5555" stroke="#000000" stroke-width=".32739px"/>
 <g stroke="#000000">
  <path d="m178.09 189.1c-0.55887-0.55291-1.2024-2.4335-0.46503-3.948 1.012-1.7981 4.4384-6.8883 6.0585-6.6379" fill="none" stroke-linecap="round" stroke-linejoin="round" stroke-width=".28668"/>
  <path d="m184.96 177.11c1.8071-0.49674 3.6198-0.90909 5.4927-0.39973 2.3009 0.93875 3.479 2.4253 5.3315 2.7845 2.0983 0.49359 4.3742 0.40362 6.5159-0.69171 0.55145-0.3747 0.86218-0.83245 1.1124-1.3111 0.23055-0.66599 0.58629-0.35642 0.61516 0.34725-0.0381 0.8063-0.34751 1.5856-0.96605 2.3216-0.98449 0.98702-1.8966 1.3415-3.2119 1.8317-1.7285 0.57543-3.6857 1.0531-5.3096 1.3254-4.0583 0.22173-5.1866-0.71458-6.9491-1.4002" fill="#ff5555" stroke-width=".32739px"/>
  <path d="m182.64 192.45c-0.57321-0.55894-1.2349-2.4583-0.48148-3.9864 1.0342-1.814 4.5374-6.9484 6.1973-6.6935" fill="none" stroke-linecap="round" stroke-linejoin="round" stroke-width=".29154"/>
  <path d="m180.16 169.26c1.5242-0.57169 2.7293-1.2993 6.1216-0.95831 1.6965 0.23931 3.3963 0.50815 5.1357 1.1357 2.6111 1.1479 5.8198 1.3541 6.9142 5.153 0.34249 1.6927 0.97313 3.0879 1.4888 5.1185 0.403 1.4258 2.0117 2.5706 3.4318 3.704 0.38915 0.30407 1.2653 1.018-0.99299 0.61738-1.5098-0.29892-2.8086-0.86341-4.0804-2.9979-0.77463-1.6384-1.5414-3.2767-3.3831-4.9321-2.0469-1.1992-3.9766-2.0612-6.2724-2.4267-1.8306-0.1126-3.2712 0.51753-4.7145 1.2307" fill="#ff5555" stroke-width=".32739px"/>
 </g>
 <path d="m187.99 182.01c2.6771 1.6446 0.73587 5.1036 0.8767 6.2624 0.73416-1.0854 1.7239-2.036 3.4148-3.0377z" fill="#fff6d5"/>
 <path d="m187.34 196.16c-0.59557-0.56064-1.287-2.4618-0.51147-3.9872 1.0656-1.8103 4.6782-6.9327 6.3985-6.6725" fill="none" stroke="#000000" stroke-linecap="round" stroke-linejoin="round" stroke-width=".29669"/>
 <path transform="matrix(1.1136 .097428 -.097428 1.1136 7.592 -52.388)" d="m174.09 182.98c1.2526 1.1674 1.6512 1.5935 2.6393 2.6727 0.59202 0.5356 2.0889 1.0642 2.8397 1.2027 1.5414 0.3787 2.2704 0.62472 2.9066 0.13364 0.53869-0.79948 0.42718-1.4602 0.20045-2.0379-0.38615-0.89542-0.86847-0.91262-1.4311-1.5832l2.734-0.32109 1.0691 3.3075 0.60135 1.7038c0.40358 0.62095 0.81196 1.0032 1.2361 1.8041 0.57909 1.1832 1.0914 2.1467 1.6036 3.0736 1.7103 1.9699 2.4287 1.7132 3.8148 2.6292l-2.5725-0.67561c-2.581-1.8994-1.5957-4.7052-7.8062-6.9449-6.6254-1.8159-6.0698 2.8226-14.731-3.0175z" fill="#000000" opacity=".35"/>
 <path d="m194.75 179.23c-0.18414 0.6731-0.61702 1.3244-1.1134 1.9702-0.13146 0.47325 0.61938 0.83385 1.5237 0.91532 0.8018 0.015 1.2706-0.11454 1.72-0.41945 0.29233-0.71193-0.23676-1.267-0.0676-1.9543l0.84643 0.0211 1.3759 2.4531-4.2854 1.1096-3.8547-0.17817-2.4611-0.95756 0.11304-1.8987 5.2878-1.6581 0.69977 0.48536z" fill="#000000" opacity=".35"/>
 <path d="m176.22 175.78c1.4083 1.3123 2.9054 2.6033 4.983 3.7557 4.2104 1.9013 8.4113 2.5813 12.586-0.14376 1.1922-1.345 2.4371-2.6813 2.9908-4.303 0.50966-1.7884 0.4619-4.4861-1.2932-6.0887-1.6988-0.98519-3.4504-1.9495-5.8252-2.6675-0.6887-0.38652-0.93862 0.42764-0.41591 0.95954 1.2891 0.93908 2.5544 1.9168 3.7156 3.0639 1.0682 0.92758 1.4024 3.0285-0.27079 4.043-2.7887 0.78487-6.3935 0.0444-7.423-1.4794-1.0031-1.5721-1.6486-2.9064-3.2781-4.2705-0.91214-0.64226-1.8543-1.2704-4.1212-1.2735-1.1867 0.12583-2.0962 0.7216-2.8014 1.6638" fill="#ff5555" stroke="#000000" stroke-width=".32739px"/>
 <path d="m100.16 32.804c2.9886 1.3927 9.2559 3.2841 15.886 7.0805 6.6306 3.7964 13.625 9.4982 18.312 15.316s7.0658 11.752 7.9704 19.996c0.90465 8.2438 0.33478 18.797-0.6376 26.276-0.97239 7.4788-2.3473 11.883-2.27 13.02 0.0773 1.1377 1.6065-0.9904 3.1597-5.4135s3.1309-11.143 3.7828-18.19 0.37818-14.423-0.61893-20.802-2.7177-11.76-4.9315-15.948-4.9209-7.1814-9.6698-10.672c-4.7489-3.4905-11.54-7.4777-17.445-9.8676-5.9056-2.39-10.926-3.1826-13.581-3.1323-2.6554 0.05028-2.9456 0.94382 0.043 2.3365z" fill="#ffd5d5"/>
 <path d="m43.53 112.45c0.35865 0.75615 2.661 3.007 4.8455 5.7473s4.2512 5.9703 5.0918 9.2178 0.45493 6.5127-0.33592 9.2678-1.9868 4.9995-2.708 6.386-0.96728 1.9147-0.3519 1.7434c0.61538-0.17137 2.0902-1.0414 3.4172-2.4996s2.506-3.505 3.2329-5.8154 1.0022-4.886 0.72968-7.4839-1.093-5.2192-2.3309-7.3518-2.8936-3.7771-4.4264-5.1108-2.9428-2.3568-4.4403-3.2376c-1.4975-0.88081-3.0823-1.6192-2.7236-0.8631z" fill="#ffd5d5"/>
 <path d="m70.633 41.823c-4.2137 0.5785-4.9846 0.64621-11.09 2.1268 4.3444-1.814 18.881-5.5161 23.741-5.829 4.8598-0.3129 9.7209-0.15187 14.477 0.33665 4.7563 0.48851 9.4079 1.3045 13.849 2.3016 11.15 3.4305 15.941 9.3756 18.429 13.803 4.9581 8.5496 6.1968 16.244 8.5332 24.246 1.2749 14.185-1.6629 27.09-5.5727 39.701-3.8336 9.7591-3.2444 18.559 1.2801 26.504 5.9977 9.9563 15.803 18.818 25.467 27.72 1.7323 1.1004 3.4595 2.2292 5.7288 0.34353l1.0773 4.6538 9.5788 1.5488 0.34106 2.0829c-1.3041-0.69537-1.3487-0.0191-2.83 0.16962-0.93965 0.48331-1.5854 0.99232-1.831 1.5364 0.4284 0.15725 0.96247 0.3666 1.3432 0.32959-2.3358 2.8878-4.4785 3.5668-6.7177 5.3502-2.4953 2.3092-2.2809 3.7878-2.4097 5.7271-0.21789 2.593 1.2583 3.463 2.4548 4.3705 2.4137 1.1925 3.8212 1.5966 6.6302 1.7127l-5.0328-0.44368c-1.087 1.8325-2.6495 2.6409-4.3185 3.2199-5.0631 0.60691-5.3363 0.0292-6.3863-0.35634l0.0413-0.35673c1.4707-0.27067 2.908 0.32937 4.4188-0.98347 1.7838-1.1028 1.3818-2.4628 1.7747-3.7292l-1.1084-1.7756-0.244-2.5383-1.0915-0.91122-1.7525-2.0977-0.8185-3.5428 0.89336-2.7462 2.2654-2.4787-3.3021-1.0483-3.3658-2.0347-7.2932-5.5798-7.4288-6.7323-6.5475-6.9357-6.4119-7.9526c-8.7366-14.031-5.8029-27.506-5.3485-30.828 4.7254-20.313 11.523-29.132 5.6083-55.295-1.3849-4.7863-3.5197-8.8418-6.7277-12.101-3.208-3.2593-7.4891-5.7223-12.353-7.5946s-14.677-3.8578-20.606-4.2629c-5.1063-0.33775-9.6208-0.49451-17.343 0.37055z" fill="#000000" opacity=".35" stroke="#000000" stroke-width=".29577px"/>
 <path transform="matrix(1.1136 .097428 -.097428 1.1136 7.592 -52.388)" d="m166.92 183.63c0.43074-0.39299 0.61338-0.48897 0.61338-0.48897 0.93826-0.1397 4.2359 1.1844 5.0619 1.88 1.5876 0.97274 2.8489 2.3966 4.4183 3.4939l2.9708 2.7384c1.0231 1.1306 2.42 0.93091 3.5273 0.37658 1.0723-0.69251 2.0017-2.3243 2.8993-3.7159-1.0138 3.7418-3.4454 5.2141-6.2465 6.095l-13.333-4.783-0.1612-5.2248z" fill="#000000" opacity=".35"/>
 <g stroke="#000000">
  <path d="m170.59 169.26c3.8601-1.4161 7.1949 0.15255 9.86 1.408 2.9711 1.7349 4.9072 3.2791 7.2663 6.6342 1.6597 2.405 1.7631 4.8676 1.6287 7.4296-0.1811 2.0577-0.45527 3.8436-2.0369 5.7935-0.78213 0.77865-1.8382 1.334-2.7358 1.7559-1.4324 0.50096-2.8307 1.0427-5.0421 0.61523-0.88074-0.24483-1.2998-0.54072-1.6278-0.84665-0.95598-0.92485-0.44731-0.94988 0.0284-0.99517 0.60333 0.0155 1.2831-0.0333 2.0056-0.11795 1.2828-0.35893 2.5751-0.8373 3.5677-1.8739 0.91936-1.1528 1.129-2.7257 0.85698-4.4291-0.45671-1.8188-1.1255-2.7238-3.4435-4.1676-1.9412-1.042-4.2463-1.2545-6.5614-0.87438-2.2246 0.1906-4.6308 0.0496-7.237-0.45714-0.81997-0.32344-1.5218-0.83923-1.956-1.7905-0.36362-1.2905-0.0913-2.7082 0.2454-4.3912" fill="#ff5555" stroke-width=".32739px"/>
  <g stroke-width=".29577px">
   <path d="m227.15 217.55c0.67623 0.58997 1.5823 0.99415 1.987 2.2447 0.23488 1.0204 0.0749 2.2991-0.39538 3.1962-0.53357 0.90474-1.5667 1.1944-2.3462 1.3296-1.0956 0.12978-2.0139-0.2959-2.5818-0.75338-1.4098-1.0406-1.0736-2.4092-1.3226-3.6679l2.0456-1.3355z" fill="#ffb380"/>
   <path d="m230.56 216.34c0.67623 0.58998 1.5823 0.99416 1.987 2.2447 0.23488 1.0204 0.075 2.2991-0.39537 3.1962-0.53356 0.90476-1.5667 1.1944-2.3462 1.3296-1.0956 0.12979-2.0139-0.29589-2.5817-0.75337-1.4098-1.0406-1.0736-2.4092-1.3226-3.6679l2.0456-1.3355z" fill="#ffb380"/>
   <path d="m232.38 214.96c0.12731-0.73867 0.15105-1.456 0.76313-2.295 1.1809-1.256 2.7178-2.8834 2.7117-3.999-0.0236-0.90197-0.21227-1.6186-0.35299-2.3927 0.014-0.39953-0.55267-0.72653-0.53062 0.0661 0.0135 0.68056-0.14877 1.3441-0.46853 1.9272-0.67174 0.9779-1.8791 1.6768-2.8919 2.2025-0.95891 0.70142-1.3445 1.3423-1.6188 2.2202-0.39944 1.2095-6e-3 2.3076 0.21605 3.4299z" fill="#ff5555"/>
  </g>
 </g>
 <path d="m235 206.89c0.10256 0.62153-0.0371 1.3987-0.31482 1.8844-0.44737 0.68565-0.97347 1.0926-1.3024 1.8167-0.23378 0.76547-0.26419 1.2971-0.68894 1.9829l0.15641-2.1045-0.0749-0.64385 0.602-0.45343 0.8901-0.74689 0.36668-0.54899z" fill="#000000" opacity=".35"/>
 <path d="m231.26 212.55c0.67623 0.58996 1.5823 0.99416 1.987 2.2447 0.23488 1.0204 0.0749 2.2991-0.39536 3.1962-0.53358 0.90474-1.5667 1.1944-2.3463 1.3296-1.0956 0.12977-2.0139-0.29592-2.5818-0.75339-1.4098-1.0406-1.0736-2.4092-1.3226-3.6679l2.0456-1.3355z" fill="#ff5555" stroke="#000000" stroke-width=".29577px"/>
 <path d="m219.31 205.37c2.6771 1.6446 0.73587 5.1036 0.87669 6.2624 0.73416-1.0854 1.7239-2.036 3.4148-3.0378z" fill="#fff6d5"/>
 <path d="m226.6 214.9c1.5799 0.25043 2.933 0.38282 4.3124-0.2059 1.9149-0.94916 2.201-3.6523 1.7142-5.6554-0.55822-1.6969-1.9267-3.0863-3.664-3.8727-2.6698-0.97075-4.2953-0.34507-6.0589-0.13245-0.9136 0.0807-1.8114-0.34032-2.1546-0.82471-0.22022-0.46109-0.0802-0.89063 0.11511-1.3154 0.0442-0.54443-0.23874-1.169-0.82343-0.28411-0.49231 0.73006-0.45938 1.3346-0.54323 1.9671 0.12011 0.60778 0.32194 1.1522 0.93591 1.7254 0.79093 0.5883 1.5616 0.80889 2.5492 0.85924 1.651-0.0687 3.7724 0.25053 4.6676 0.88546 0.80369 0.72086 1.0296 1.7875 0.05 2.7613-0.73777 0.55493-1.8423 0.454-2.5814 1.6298l-0.34401 1.5074z" fill="#ff5555" stroke="#000000" stroke-width=".29577px"/>
 <path d="m224.46 218.93c0.67623 0.58998 1.5823 0.99416 1.987 2.2447 0.23486 1.0204 0.0749 2.2991-0.39538 3.1962-0.53356 0.90476-1.5667 1.1944-2.3463 1.3296-1.0956 0.1298-2.0139-0.29588-2.5817-0.75336-1.4098-1.0406-1.0736-2.4092-1.3226-3.6679l2.0456-1.3355z" fill="#ff5555" stroke="#000000" stroke-width=".29577px"/>
 <g stroke="#000000">
  <path d="m212.73 215.67c-0.59509-0.58045-1.282-2.553-0.49978-4.14 1.0738-1.8839 4.7111-7.2163 6.4344-6.9516" fill="none" stroke-linecap="round" stroke-linejoin="round" stroke-width=".30273"/>
  <path d="m223.81 222.17c-0.55573-0.58527-0.73817-1.2449-3.02-1.487-1.5086-0.0993-2.6307 0.84642-3.8879 1.2315-0.89502 0.13115-1.8054 0.08-2.7603-0.50052-0.82838-0.66758-1.2977-1.5064-1.5271-2.4598-0.11717-0.70655-0.75648-0.39364-0.57892 0.65192 0.32061 1.7939 0.42565 2.4806 0.97046 3.3797 0.49783 0.68005 1.4893 1.5476 2.0628 1.7235 0.86745 0.1983 1.6375 0.27579 2.1957 0.0906 1.3641-0.43888 2.4156 0.4616 3.5152 0.63971l1.554 0.12388" fill="#ff5555" stroke-width=".29577px"/>
  <path d="m218.54 220.02c-0.61036-0.58679-1.3165-2.5791-0.51734-4.1803 1.0975-1.9005 4.8163-7.2792 6.582-7.0098" fill="none" stroke-linecap="round" stroke-linejoin="round" stroke-width=".30785"/>
  <path d="m223.8 217.26c0.5381 1.1696 0.93537 2.1892 0.77965 3.3862-0.31839 1.6905-2.3505 2.5008-4.0086 2.5599-1.4363-0.063-2.8111-0.8202-3.7986-1.9955-1.3336-1.8572-1.2028-3.2529-1.4222-4.6657-0.13644-0.72547-0.6582-1.3294-1.1082-1.4898-0.40522-0.0702-0.70755 0.13185-0.99411 0.37566-0.41219 0.15287-0.95775 0.0696-0.39946-0.57614 0.45844-0.54046 0.93404-0.64664 1.4059-0.84934 0.49708-0.0393 0.96286-1e-3 1.5407 0.34939 0.62808 0.48467 0.96687 1.0338 1.2209 1.788 0.3063 1.2942 1.0158 2.8684 1.7026 3.4237 0.73358 0.46573 1.6092 0.40839 2.1504-0.56265 0.26928-0.69249-0.0495-1.5264 0.70061-2.3551l1.093-0.59485z" fill="#ff5555" stroke-width=".23805px"/>
  <path d="m223.55 223.92c-0.6341-0.58862-1.372-2.5828-0.54919-4.1812 1.1309-1.8966 4.966-7.2626 6.7959-6.9875" fill="none" stroke-linecap="round" stroke-linejoin="round" stroke-width=".31329"/>
 </g>
 <path d="m219.63 204.06c0.20747 0.56106 0.43108 1.1178 1.0286 1.5745 0.68693 0.3968 1.4809 0.59397 2.293 0.75729 0.85455 0.10642 1.6549 0.0954 2.3907-0.0559 2.2467-0.30371 3.3478 0.3701 3.8622 1.0006 0.64082 1.1518 1.054 2.1776 1.1707 3.2835 0.17842 1.7812 0.83306 2.2387 1.5619 3.3574l0.37294-0.52712c0.10836 0.42878-0.30415 0.80133 0.79822 1.8369l-2.8468-0.94287-1.2957 0.1152-1.7997-6.8509-1.9569-0.35677-1.2124-0.0796-1.4155-0.0311-1.2443-0.32093-0.9451-0.55986-0.59439-0.78097-0.25355-0.73792 2e-3 -0.47698z" fill="#000000" opacity=".35"/>
 <path d="m228.98 213.58c1.2641 0.38637 2.0872-0.0754 4.1176 1.7848 1.013 1.2383 1.9006 2.4656 2.0816 3.6311 0.47466 1.6585 5e-3 2.9253 0.50881 4.4682 0.74209 2.0498 3.0967 2.6296 4.8096 2.4452 3.7374-0.73452 6.1605-0.4791 8.4053-0.0894 2.9083 1.401 3.8981 2.8903 4.5569 4.3725 0.9617 1.6995 0.22936 2.2928-1.0545 1.3104-2.2538-1.7811-3.7065-1.7644-5.6816-2.1996-4.4039 0.1863-6.0482 1.6397-9.5512 1.1888-3.337-0.3094-6.5229-0.99681-8.6275-2.4702-2.5891-1.5874-3.6616-2.2121-4.9381-3.7803-1.1382-1.6241-1.6373-2.9273-1.2464-4.4176" fill="#ff5555" stroke="#000000" stroke-width=".29577px"/>
 <path d="m228.69 215.88c0.57057-0.57084 1.225-0.77082 1.4074-3.0579 0.06-1.5107-0.915-2.6077-1.3328-3.8543-0.15454-0.89129-0.12716-1.8027 0.42811-2.7725 0.64563-0.84559 1.4719-1.3367 2.419-1.591 0.70323-0.13566 0.37365-0.76655-0.66658-0.56197-1.7848 0.36748-2.4686 0.49043-3.3532 1.0586-0.66676 0.51552-1.508 1.5294-1.6688 2.1072-0.17553 0.87234-0.23287 1.6441-0.0332 2.1973 0.47443 1.3521-0.39822 2.4268-0.54748 3.5308l-0.0832 1.5567" fill="#ff5555" stroke="#000000" stroke-width=".29577px"/>
 <path d="m212.57 215.27c0.55872-0.97895 1.6697-1.2478 3.1222-1.0777 1.0479 0.89512 1.4229 2.5473 1.9982 3.9742 1.4446 2.1671 2.9825 2.0866 3.2925-0.12461l2.2618-0.98752 3.2925-0.26842c-0.69652 1.366-0.54817 1.475-0.81231 2.5227 0.13407-0.21553 0.34952-0.50443 0.8637-0.77964-0.49075 0.5381-0.69923 1.497-0.77003 2.1185-0.12955 1.3654 0.47768 1.534 0.69931 2.4602 1.3303 2.0596 3.3444 3.0382 5.4608 4.242 2.0683 1.0271 4.3177 1.2838 6.6954 1.3413 2.5066 0.0144 4.8539-0.38125 7.2179-0.3891 2.1427-0.0255 3.7728 0.35623 5.3549 1.2107 1.4745 0.9553 1.2137 1.4835 2.1337 2.4892l-1.5407-0.87551c-1.9637-1.4611-3.7049-1.5133-5.4861-1.8188-3.2188 0.45855-5.8147 1.3979-8.5795 1.2415-6.0936 0.0202-9.5149-2.6319-13.134-5.0865-1.3814 0.41696-2.5095 0.20101-3.6417-5e-3l-3.0185-0.79591c-1.6266 0.4309-2.9879 0.19846-4.1032-0.64899-1.5818-1.45-1.75-3.3712-1.8261-5.3231l0.45104-0.0977c1.7814 4.4698 3.1636 3.1103 4.6457 3.2101l-0.88046-1.3495-1.3598 0.23248-0.11344-0.43867 1.0084-0.58018-0.42976-2.7375c-1.0349-3.3495-1.8314-0.83771-2.8028-1.6588z" fill="#000000" opacity=".35"/>
 <path d="m227 216.68c0.42158-1.991 0.24936-2.396-0.23022-3.7313-0.35315-0.9531-1.9558-1.8903-3.7186-2.34-1.4992-0.35442-3.0837-0.1294-4.7471 0.32693-1.8204 0.39736-2.6872 0.0454-4.2262-1.1584-0.44855-0.45345-0.42784-1.4306-0.83475-2.2004-0.19692-0.29759-0.84072-0.43277-1.2693-0.64122-0.9656-0.31981-1.0035 0.53769-0.5656 1.0108 0.29237 0.30359 0.65976 0.66965 0.69576 1.0616 0.0433 0.97044-0.25279 1.9916-0.0109 3.1117 0.5796 1.9583 2.7148 2.5882 4.3604 3.0013 1.3743 0.38979 1.6591 0.31647 2.2506 0.93915 0.84131 0.96701 1.8962 1.6972 2.9224 2.3498 1.1343 0.70561 2.9521 0.93969 3.8165 0.91711" fill="#ff5555" stroke="#000000" stroke-width=".29577px"/>
 <g fill="none" stroke="#000000" stroke-linecap="round" stroke-linejoin="round">
  <path d="m191.98 199.73c-0.58234-0.568-1.2545-2.4983-0.48908-4.0512 1.0508-1.8435 4.61-7.0616 6.2964-6.8026" stroke-width=".29623"/>
  <path d="m196.84 203.55c-0.58234-0.56801-1.2545-2.4983-0.48907-4.0513 1.0508-1.8435 4.61-7.0616 6.2964-6.8026" stroke-width=".29623"/>
  <path d="m202.52 207.8c-0.59726-0.57419-1.2883-2.5238-0.50625-4.0906 1.074-1.8598 4.713-7.1231 6.4408-6.8594" stroke-width=".30125"/>
  <path d="m207.42 211.62c-0.62051-0.576-1.3426-2.5274-0.53745-4.0915 1.1066-1.856 4.8596-7.1068 6.6502-6.8376" stroke-width=".30658"/>
 </g>
 <g fill="#fff6d5">
  <path d="m203.22 193.41c2.6771 1.6445 0.73585 5.1036 0.87668 6.2624 0.73417-1.0854 1.7239-2.036 3.4148-3.0378z"/>
  <path d="m208.26 197.16c2.6771 1.6446 0.73586 5.1036 0.87668 6.2624 0.73418-1.0854 1.7239-2.036 3.4149-3.0378z"/>
  <path d="m213.5 201.07c2.6771 1.6446 0.73587 5.1036 0.8767 6.2624 0.73417-1.0854 1.7239-2.036 3.4148-3.0377z"/>
  <path d="m197.52 189.18c2.6771 1.6445 0.73586 5.1036 0.8767 6.2624 0.73415-1.0854 1.7239-2.036 3.4148-3.0378z"/>
  <path d="m193.15 185.95c2.6771 1.6445 0.14245 4.6018 0.28329 5.7606 0.73416-1.0854 1.7239-2.036 3.4148-3.0378z"/>
  <ellipse transform="rotate(-73.4)" cx="-137.99" cy="253.29" rx="1.6993" ry=".84029"/>
  <ellipse transform="rotate(-73.4)" cx="-135.82" cy="246.54" rx="1.6993" ry=".84029"/>
  <ellipse transform="rotate(-73.4)" cx="-133.51" cy="240.69" rx="1.6993" ry=".84029"/>
  <ellipse transform="rotate(-73.4)" cx="-131.58" cy="235.22" rx="1.6993" ry=".84029"/>
  <ellipse transform="rotate(-73.4)" cx="-140.26" cy="259.08" rx="1.6993" ry=".84029"/>
  <ellipse transform="rotate(-73.4)" cx="-127.49" cy="224.7" rx="1.6993" ry=".84029"/>
 </g>
 <g fill="#000000">
  <path transform="matrix(1.1136 .097428 -.097428 1.1136 7.592 -52.388)" d="m160.6 186.18c-1.1436 1.8227-1.5546 2.3642-1.4208 3.0515 0.81142-0.94449 0.82452-1.5362 2.4812-3.2816-1.5931 2.6356-1.3672 3.8626-0.49875 4.6464 2.0303 1.046 2.7815 0.58332 5.4334 0.18899 3.1578-0.53629 5.2083 0.23593 6.9926 1.3229 1.8535 1.5749 3.2938 3.0553 3.6853 4.7247 0.42647 2.0845 0.31898 4.1013-0.75595 5.5752-2.5794 2.4862-4.2981 1.449-6.0468 1.3517 9.4826-1.3158 4.8011-9.2297 2.3907-9.5069-4.4921-2.4998-12.179 2.4455-14.645-2.0679l-0.0753-3.5387z" opacity=".35"/>
  <path transform="matrix(1.1136 .097428 -.097428 1.1136 7.592 -52.388)" d="m201.65 215.39 1.1773 0.72107c0.41566 0.5859 0.77707 1.1978 0.85045 1.8899 0.0704 0.72273 0.47525 1.2678 0.89868 1.9591 1.0038 0.96908 1.5364 1.3046 3.3536 1.0175 0.49935-0.41959 0.56985-1.3241 0.734-1.7157-0.11064 0.71601-0.15091 1.5549 0.21667 2.0292 0.6262-2e-3 0.45594-0.55232 0.6834-0.75357 0.0569 0.20815 0.23186 0.84739 0.56459 1.169 0.55964 0.61914 1.1423 0.87717 1.74 1.4721 1.1378 0.59276 1.4182 0.70677 2.5249 0.70998 0.42146 9e-3 0.65231-7e-3 1.1972-0.0585-0.17588 0.3775-0.31496 0.51821-0.33737 0.85076l0.0441 0.53094-2.6743-0.20745c-1.496-0.66928-2.8014-1.6182-4.0711-2.6194-4.0591-0.25926-6.5921-1.665-5.9521-5.4546-0.36413-0.49455-0.84152-0.94403-0.95002-1.5403z" opacity=".35"/>
  <path d="m227.1 216.43 0.15921-1.3919-0.1393-1.1931-0.35136-0.91172-0.44693-0.67643-0.62898-0.52364 0.21787-0.56201 0.17761-0.95918-0.15975-0.74502-0.21302-0.99335 0.14209-0.98103 0.22764-0.67363 0.53341-0.74059 0.88845-0.85734 0.67281-0.41827c-0.47647 1.0882-1.5755 1.8526-1.5255 3.4982 0.17151 1.3686 0.34829 2.5805 1.1382 4.2614 0.28165 0.75024 0.15323 1.5499 8e-3 2.3335-0.11028 0.8863-0.43414 1.1224-0.70039 1.5341z" opacity=".35"/>
  <path d="m68.428 26.354c-15.307 4.2429-20.557 4.7782-35.316 18.61-6.5053 8.264-8.0202 16.159-9.8176 23.741-1.9863 8.1359-1.7435 16.065-0.60743 23.911 1.8924 7.9729 4.3134 15.751 14.667 21.43 4.193 2.4679 9.0204 4.5821 12.692 8.8509 2.7546 3.5132 3.8656 8.7608 1.7864 13.517-3.5087 5.4475-5.7563 6.1947-9.4061 6.9176-11.938 2.8407-27.713-2.2876-29.584-4.4886 9.8822 4.3199 20.045 6.598 31.197 1.8996 6.9717-3.552 9.6709-13.783-0.77831-19.721-12.686-7.1787-21.452-15.544-23.909-26.696-3.7064-14.996-1.2905-28.121 4.1834-40.311 4.3174-7.6244 8.998-14.044 19.159-19.053 7.5669-4.3857 16.122-7.289 25.734-8.6066z" opacity=".35"/>
 </g>
 <g fill="#ffd5d5">
  <path d="m72.046 29.625c-4.0704 0.81863-11.042 1.6583-18.317 5.3956-7.2751 3.7373-14.853 10.372-19.42 17.72s-6.1219 15.41-6.4418 22.78 0.59536 14.048 2.1081 18.754c1.5128 4.7061 3.6228 7.4399 4.1297 7.3592 0.50688-0.0807-0.58942-2.9757-1.4988-6.5792-0.90935-3.6035-1.6318-7.9156-1.7652-12.676-0.13335-4.7602 0.32237-9.969 1.5231-14.837 1.2007-4.8684 3.1466-9.397 6.0645-13.04 2.9179-3.6434 6.8085-6.4023 11.334-8.7055 4.525-2.3032 9.6857-4.1512 15.951-5.7773s13.636-3.0308 17.037-4.4827c3.4009-1.4519 2.8322-2.9513 1.4549-4.3463s-3.5639-2.6861-5.2417-2.933-2.8472 0.55048-6.9176 1.3691z"/>
  <path d="m172.43 162.25c0.98401 1.0358 1.7362 2.1513 1.3023 3.1129-0.43387 0.96168-2.054 1.7696-3.7262 2.5981-1.6722 0.82852-3.3956 1.6772-6.2929-0.3511s-6.966-6.932-10.389-11.805c-3.4225-4.8731-6.198-9.7146-6.079-10.504 0.11905-0.78934 3.1327 2.4735 7.2432 5.4823 4.1105 3.0089 9.3179 5.7638 12.53 7.6193 3.2116 1.8555 4.4276 2.8117 5.4116 3.8474z"/>
  <path d="m143.95 140.5c-1.006 0.3892-2.7541 0.9785-3.4283 1.0077-0.67415 0.0292-0.27436-0.50121 0.73123-0.89013 1.0056-0.38892 2.6188-0.63682 3.2929-0.66632s0.41014 0.15952-0.59588 0.54872z"/>
  <path d="m144.2 138.49c-0.59547 0.16653-1.7868 0.49967-3.1553 0.99861-1.3685 0.49893-2.9132 1.1633-3.5342 1.3338-0.621 0.17049-0.31786-0.15279 0.49331-0.57505s2.1327-0.94455 3.3338-1.3205 2.2838-0.60623 2.8401-0.68257c0.5563-0.0764 0.58704 1e-3 0.60241 0.0403 0.0154 0.0389 0.0154 0.0389-0.58011 0.2054z"/>
  <path d="m141.74 137.26c-0.69499 0.23278-2.0853 0.69847-2.6475 0.76786-0.56218 0.0694-0.29624-0.25716 0.40222-0.53317s1.8315-0.5021 2.3936-0.57172c0.56208-0.0696 0.55465 0.0172 0.55092 0.0607-4e-3 0.0435-4e-3 0.0435-0.6992 0.2763z"/>
  <path d="m140.58 136.15c0.29928-0.20513 0.8975-0.61517 0.85328-0.75022-0.0442-0.13505-0.73165 5e-3 -0.95374-0.0272-0.2221-0.0321 0.0206-0.23568-0.0108-0.37567-0.0313-0.14-0.33743-0.21684-0.64842-1.451-0.311-1.2342-0.62655-3.6217-0.75779-6.2636-0.13124-2.6418-0.0779-5.5366-0.11184-6.9329-0.0339-1.3963-0.15525-1.2945-0.28548 0.12232-0.13022 1.4168-0.26825 4.1342-0.19413 6.7151 0.0741 2.5809 0.36075 5.0175 0.37721 6.331 0.0165 1.3135-0.2376 1.5037-0.22627 1.6612 0.0113 0.15742 0.28754 0.28144 0.0794 0.45048-0.20818 0.16905-0.90215 0.38343-0.71944 0.51194 0.18271 0.12852 1.2406 0.17112 1.7697 0.19243 0.52908 0.0213 0.52909 0.0213 0.82836-0.18386z"/>
  <path d="m144.43 141.95c-0.2982 0.12367-0.63055 0.49447-0.55248 0.88903 0.0781 0.39455 0.56598 0.81182 1.0363 0.86532s0.92236-0.25686 0.97643-0.58927c0.0541-0.3324-0.29003-0.68767-0.59397-0.92668s-0.56805-0.36207-0.86625-0.2384z"/>
  <path d="m173.78 169.86c-0.46087-0.0153-1.3829-0.046-2.0654 0.46907-0.68253 0.51511-1.1251 1.5757-0.63775 2.2934s1.9038 1.0914 3.3903 1.0965c1.4865 5e-3 3.0432-0.35869 4.7332-0.11085 1.69 0.24783 3.5147 1.1074 4.8556 2.0619 1.341 0.95449 2.1989 2.0043 2.2852 1.8744 0.0863-0.12994-0.59887-1.4395-1.9671-2.7963-1.3682-1.3567-3.4199-2.761-5.2225-3.581-1.8026-0.82004-3.3565-1.056-4.1336-1.1739s-0.77709-0.11791-1.238-0.13325z"/>
  <path d="m187.9 185.26c-0.26359 0.0143-0.58105 0.78631-0.63209 1.3694-0.051 0.5831 0.16435 0.97666 0.4282 0.96208 0.26385-0.0146 0.57569-0.43709 0.62662-1.0196 0.0509-0.5825-0.15913-1.3262-0.42273-1.3119z"/>
  <path d="m193.78 168.96c0.30881 0.32694 0.9264 0.98079 1.1481 1.8748 0.22171 0.89395 0.0475 2.0284-0.32084 3.096-0.36831 1.0676-0.93055 2.0678-1.0661 2.6185-0.13559 0.55068 0.15545 0.6511 0.65954 0.45781 0.50408-0.19329 1.222-0.68071 1.5915-1.3355 0.36954-0.65477 0.39155-1.478 0.41246-2.2883 0.0209-0.81032 0.0408-1.6086-0.20953-2.3176-0.25028-0.70896-0.77101-1.3295-1.2366-1.7201-0.46558-0.3906-0.87636-0.5515-1.0819-0.63199-0.20549-0.0805-0.20548-0.0805 0.10333 0.24645z"/>
  <path d="m190.81 176.56c-0.43511-0.0258-0.61648 0.33324-0.38942 0.74089 0.22705 0.40764 0.86138 0.86263 1.2966 0.88804 0.43518 0.0254 0.67052-0.37895 0.44398-0.78579-0.22654-0.40685-0.91601-0.81736-1.3511-0.84314z"/>
  <path d="m187.97 169.47c-0.41542 0.17598-0.29605 0.81123 0.30788 1.3391 0.60394 0.52788 1.6915 0.94782 2.4232 1.0117 0.73172 0.0639 1.1072-0.22823 0.97872-0.61401-0.12852-0.38577-0.76187-0.86644-1.5532-1.2481-0.79135-0.38166-1.7412-0.66468-2.1566-0.4887z"/>
  <path d="m173.09 184.7c-0.26218 0.42675-0.78675 1.2806-1.8254 2.1522-1.0387 0.8716-2.5904 1.7601-3.6037 2.7712s-1.4873 2.144-1.4096 2.4007c0.0777 0.25664 0.70654-0.36295 1.599-0.99693 0.8925-0.63399 2.0494-1.2829 3.0989-1.8533s1.9926-1.0629 2.7472-1.834 1.3215-1.8216 1.7096-2.6872c0.38808-0.86566 0.59773-1.5474 0.23051-1.9167s-1.3124-0.42706-1.4822-0.34189c-0.16985 0.0852 0.43483 0.31296 0.45377 0.52691 0.0189 0.21394-0.54861 0.4143-0.59326 0.4979-0.0447 0.0836 0.43279 0.0505 0.40974 0.1732-0.0231 0.12275-0.5477 0.40199-0.81001 0.5416s-0.26232 0.1396-0.5245 0.56635z"/>
  <path d="m165.98 194.77c-0.0493 0.4204-0.14783 1.2615 0.14423 1.9246s0.9742 1.1475 2.1208 1.6102c1.1466 0.46269 2.7578 0.9036 2.6873 0.71005s-1.8227-1.0218-2.8771-1.8264c-1.0544-0.80465-1.4109-1.5856-1.6323-2.0548-0.22137-0.46922-0.30756-0.62671-0.35063-0.70543-0.0431-0.0787-0.0431-0.0787-0.0924 0.3417z"/>
  <path d="m174.94 191.28c-0.22215 0.25532-0.66673 0.76626-0.64874 1.418 0.018 0.65175 0.49826 1.4431 1.1136 2.4092 0.6153 0.9661 1.3652 2.1063 1.7373 3.1385s0.36621 1.9563 0.40793 1.6223c0.0417-0.334 0.13097-1.9252-0.0462-3.3276-0.1772-1.4024-0.62096-2.6161-1.0556-3.5038-0.43463-0.88769-0.86037-1.4498-1.0732-1.7309-0.21284-0.28104-0.21287-0.28104-0.43503-0.0257z"/>
  <path d="m162.29 185.63c-0.24913 0.27796-0.74765 0.83415-1.0005 1.4371-0.2528 0.60291-0.2596 1.2518-0.0993 1.2781s0.48723-0.56961 0.94629-1.1041 1.0506-1.0079 1.1398-1.3123c0.0892-0.30441-0.32401-0.44058-0.53059-0.50867-0.20659-0.0681-0.20663-0.0681-0.45576 0.20987z"/>
  <path d="m226.23 214.43c0.0261 0.40862 0.0783 1.2261-0.0458 1.7366-0.12405 0.51052-0.42454 0.71391-1.242 0.55395-0.81746-0.15995-2.1486-0.68242-2.6924-1.4372-0.54373-0.75474-0.29846-1.7405-0.53015-2.4232-0.2317-0.68273-0.94091-1.063-1.3786-1.1103-0.43768-0.0473-0.60404 0.23851-0.80117 0.67227-0.19714 0.43376-0.42443 1.014-0.53977 1.1188-0.11534 0.10473-0.11834-0.26643-0.0553-0.68493 0.0631-0.41849 0.19228-0.88468 0.35301-1.2063s0.35311-0.49933 0.47857-0.62086c0.12545-0.12153 0.1843-0.18719 0.22336-0.13112 0.0391 0.0561 0.0589 0.23539 0.23657 0.33054 0.17764 0.0952 0.51198 0.10674 0.89271 0.0959 0.38072-0.0109 0.80818-0.0442 1.4913 0.12151 0.6831 0.16573 1.6239 0.53102 2.2637 0.99336s0.97966 1.0223 1.1496 1.3023c0.16993 0.27998 0.17023 0.28004 0.19631 0.68866z"/>
  <path d="m217.87 211.75c-0.16735 0.19726-0.50233 0.5921-0.93921 0.63349-0.43688 0.0414-0.97466-0.27054-1.5507-0.65676-0.57601-0.38622-1.1895-0.84627-1.5112-1.2103-0.32166-0.36407-0.35126-0.63171-0.15509-0.55274 0.19616 0.079 0.61877 0.50508 1.0853 0.82867s0.97741 0.54502 1.5245 0.65469c0.54707 0.10967 1.1306 0.10767 1.4222 0.10667 0.29152-1e-3 0.29152-9.4e-4 0.12417 0.19632z"/>
  <path d="m229.37 216.18c-0.0372 0.0232-0.11195 0.0696-0.33324 0.16556-0.22128 0.096-0.58566 0.23997-0.92148 0.44041-0.33581 0.20044-0.64065 0.45624-0.93952 0.73952s-0.59079 0.59316-0.51162 0.59996c0.0792 7e-3 0.52881-0.28932 0.96841-0.56884 0.4396-0.27951 0.8694-0.54258 0.83821-0.38655-0.0312 0.15603-0.52376 0.73197-0.49735 0.93756 0.0264 0.20558 0.57066 0.0413 0.56793 0.37638-3e-3 0.33513-0.55336 1.1712-0.64294 1.791-0.0896 0.6198 0.28143 1.0232 0.99926 1.4042s1.7822 0.73915 2.4726 1.3296c0.69041 0.59041 1.0073 1.4135 1.8128 2.0054 0.80557 0.59191 2.0993 0.95248 2.7408 0.99082 0.64156 0.0384 0.63102-0.24541 0.35888-0.66647-0.27214-0.42107-0.8069-0.98082-1.1356-1.7696-0.32866-0.78881-0.45165-1.8069-0.5697-2.7802-0.11806-0.97338-0.23122-1.9025-0.66113-2.744s-1.177-1.5962-1.8249-1.8651-1.197-0.0518-1.7006 0.24882c-0.50363 0.30063-0.96106 0.68445-1.1251 0.74066-0.16402 0.0562-0.0343-0.21499-0.071-0.29773-0.0367-0.0827-0.24063 0.0233-0.23281-0.0647 8e-3 -0.088 0.22643-0.36878 0.3358-0.50925 0.10938-0.14048 0.10941-0.14048 0.0722-0.11734z"/>
  <path d="m252 229.06c-0.36733-0.44744-1.102-1.3423-2.4165-1.9698-1.3146-0.62749-3.2094-0.98766-4.8035-1.0476-1.5942-0.06-2.8874 0.18028-3.6131 0.29359-0.72568 0.11331-0.88349 0.0995-1.037 0.23644-0.15354 0.1369-0.30213 0.42377 0.16861 0.60646 0.47074 0.18268 1.5584 0.26011 2.8572 0.25884 1.2988-1e-3 2.8084-0.0813 4.0862 0.057 1.2778 0.13832 2.3248 0.49507 3.1405 0.86683 0.81564 0.37176 1.4004 0.75876 1.6927 0.95219 0.29229 0.19343 0.29228 0.19355-0.075-0.25389z"/>
  <path d="m228.22 207.87c-0.1269 0.13895-0.381 0.41716-0.37818 0.48806 3e-3 0.0709 0.26186-0.0653 0.23145 0.0819-0.0304 0.14717-0.35138 0.57924-0.37149 0.70999-0.0201 0.13076 0.25964-0.039 0.44872-0.18148 0.18908-0.14247 0.28766-0.25774 0.30627-0.16817 0.0186 0.0896-0.0427 0.38548-0.1353 0.83721-0.0926 0.45172-0.2163 1.0588-0.20337 1.8201 0.0129 0.76135 0.1626 1.6753 0.26138 2.3643 0.0988 0.68907 0.14656 1.1526 0.34429 1.1167s0.54481-0.57078 0.70594-1.2014c0.16114-0.63068 0.13636-1.3579 0.0261-1.9152-0.11025-0.55733-0.30609-0.94571-0.48508-1.3236s-0.34126-0.74565-0.40852-1.0874c-0.0673-0.34172-0.0396-0.6575-0.0622-0.80079-0.0226-0.1433-0.0958-0.11437-0.12987-0.23294-0.0341-0.11856-0.0286-0.38183-0.0258-0.51399 3e-3 -0.13216 3e-3 -0.13216-0.12427 7e-3z"/>
  <path d="m231.45 211.98c-0.19042-0.44969-0.57122-1.349-0.87343-2.3385-0.3022-0.98957-0.52585-2.0696-0.55781-2.6114-0.032-0.54175 0.12746-0.54552 0.35486-0.32285 0.22741 0.22268 0.52441 0.67366 0.83037 1.1158s0.62141 0.87612 0.80404 1.6166 0.2324 1.7874 0.14916 2.3369c-0.0832 0.54948-0.2998 0.60121-0.40828 0.62712-0.10848 0.0259-0.10848 0.026-0.29891-0.42366z"/>
  <path d="m235.19 208.91c-0.11814 0.13971-0.35469 0.41946-0.29659 0.56606s0.41001 0.15972 0.52816 0.0199c0.11814-0.13981 2e-3 -0.43296-0.0556-0.57934-0.0579-0.14639-0.0579-0.14633-0.176-7e-3z"/>
  <path d="m220.41 204.14c0.15958 0.29669 0.47878 0.89013 1.0851 1.2348s1.4991 0.44049 2.323 0.41536c0.82388-0.0251 1.5791-0.1712 1.8647-0.30516 0.28558-0.13396 0.10176-0.25613-0.29136-0.30823s-0.99522-0.0342-1.5707-0.0226c-0.57552 0.0115-1.1235 0.0165-1.5942-0.06s-0.86304-0.23448-1.1795-0.45666c-0.3165-0.22219-0.55644-0.50815-0.67647-0.65119-0.12002-0.14304-0.12002-0.143 0.0396 0.15369z"/>
 </g>
</svg>
