<?xml version="1.0" encoding="UTF-8"?>
<svg cursor="default" version="1.1" viewBox="0 0 256 256" xmlns="http://www.w3.org/2000/svg" xmlns:cc="http://creativecommons.org/ns#" xmlns:dc="http://purl.org/dc/elements/1.1/" xmlns:rdf="http://www.w3.org/1999/02/22-rdf-syntax-ns#">
 <metadata>
  <rdf:RDF>
   <cc:Work rdf:about="">
    <dc:format>image/svg+xml</dc:format>
    <dc:type rdf:resource="http://purl.org/dc/dcmitype/StillImage"/>
    <dc:title/>
   </cc:Work>
  </rdf:RDF>
 </metadata>
 <path d="m202.62 53.383c-41.208-41.21-108.02-41.21-149.23 2e-6 -41.21 41.208-41.21 108.02 2e-5 149.23 41.208 41.21 108.02 41.21 149.23 3e-5 41.21-41.208 41.21-108.02 0-149.23z" fill="#ffffff" stroke="#ff0000" stroke-width="1.6879"/>
 <g fill="#000000">
  <path d="m55.17 172.41c-0.74871-2.0877-8.3515-7.2359-5.7153-10.045 18.633-19.855 59.654-30.527 75.858-56.98 1.0572-1.7258-1.1323-1.5581 0.19943-4.3716 8.5693-2.5159 32.356-5.2053 34.266 6.7962 0.57803 4.4556-2.6426 8.8384-6.4553 11.215-1.9602 1.222-5.2281-0.86621-6.7072 0.908-20.872 25.036-59.798 37.426-61.483 48.32 9.1149 5.0657 26.466 23.132 6.2349 36.024-8.0408 4.7503-20.263-0.49194-27.191-6.7544-6.5972-5.9633-9.0059-25.113-9.0059-25.113z"/>
  <path d="m159.5 99.725c0.0921 0.43192 5.2791-6.7875 9.1833-8.7329 1.8935-0.94349 5.1573 0.08929 6.0155 2.0228 0.79792 1.7978-0.57371 4.5802-2.3573 5.4093-3.8313 1.7809-13.235 0.46482-12.842 1.3008z"/>
  <path d="m181.71 93.804c-0.28231 0.28383 7.7673 0.64724 11.178 2.6482 1.6539 0.97043 2.4859 3.9598 1.4428 5.5688-0.96987 1.496-3.7616 1.8324-5.2742 0.88868-3.2492-2.0271-6.9065-9.8187-7.3462-9.1057z"/>
  <path d="m197.78 110.54c-0.33733 0.042 4.8549 4.4981 6.088 7.621 0.59797 1.5145-0.4103 3.9489-1.9499 4.4788-1.4315 0.49271-3.4743-0.74355-3.9918-2.1663-1.1117-3.056 0.52091-10.18-0.14616-9.9335z"/>
 </g>
 <path d="m202.62 53.383a105.52 105.52 0 0 0-149.23 2e-6 105.52 105.52 0 0 0 1.7e-5 149.23 105.52 105.52 0 0 0 149.23 3e-5 105.52 105.52 0 0 0 0-149.23zm-14.096 13.947a85.695 85.695 0 0 1 0.0746 0.07458 85.695 85.695 0 0 1 6.8346 113.48l-120.31-120.31a85.695 85.695 0 0 1 113.4 6.7624zm-127.95 7.788 120.31 120.31a85.695 85.695 0 0 1-113.48-6.8346 85.695 85.695 0 0 1-6.8369-113.48z" fill="#ff0000" stroke="#ff0000" stroke-width="1.6879"/>
</svg>
