<?xml version="1.0" encoding="UTF-8" standalone="no"?>
<svg
   xmlns:dc="http://purl.org/dc/elements/1.1/"
   xmlns:cc="http://creativecommons.org/ns#"
   xmlns:rdf="http://www.w3.org/1999/02/22-rdf-syntax-ns#"
   xmlns:svg="http://www.w3.org/2000/svg"
   xmlns="http://www.w3.org/2000/svg"
   xmlns:sodipodi="http://sodipodi.sourceforge.net/DTD/sodipodi-0.dtd"
   xmlns:inkscape="http://www.inkscape.org/namespaces/inkscape"
   viewBox="0 0 256 256"
   version="1.1"
   id="svg40"
   sodipodi:docname="lloydsbeacon.svg"
   inkscape:version="0.92.2 5c3e80d, 2017-08-06">
  <metadata
     id="metadata46">
    <rdf:RDF>
      <cc:Work
         rdf:about="">
        <dc:format>image/svg+xml</dc:format>
        <dc:type
           rdf:resource="http://purl.org/dc/dcmitype/StillImage" />
      </cc:Work>
    </rdf:RDF>
  </metadata>
  <defs
     id="defs44" />
  <sodipodi:namedview
     pagecolor="#ffffff"
     bordercolor="#666666"
     borderopacity="1"
     objecttolerance="10"
     gridtolerance="10"
     guidetolerance="10"
     inkscape:pageopacity="0"
     inkscape:pageshadow="2"
     inkscape:window-width="667"
     inkscape:window-height="709"
     id="namedview42"
     showgrid="false"
     inkscape:zoom="2.6074563"
     inkscape:cx="69.274838"
     inkscape:cy="97.318757"
     inkscape:window-x="0"
     inkscape:window-y="0"
     inkscape:window-maximized="0"
     inkscape:current-layer="svg40"
     inkscape:snap-global="false" />
  <path
     d="M 144.05,3.2539998 V 18.898 H 128.407 V 34.542 H 112.763 V 97.12 H 97.119 v 15.644 H 81.475 v 15.644 H 65.83 v 15.644 H 50.186 v 15.644 H 34.542 V 175.34 H 18.898 v 15.644 H 3.2540004 V 253.56 H 65.831 v -15.644 h 15.644 v -15.644 h 15.644 v -15.644 h 15.644 v -15.644 h 15.644 V 175.34 h 15.644 v -15.644 h 15.644 V 144.05 h 62.576 v -15.644 h 15.644 v -15.644 h 15.644 V 34.542 H 237.915 V 18.897 H 222.271 V 3.2539998 Z"
     id="path2"
     inkscape:connector-curvature="0"
     style="fill:#000000" />
  <path
     fill="#f1fafa"
     d="M144.05 3.254v15.644h-15.643v15.644h-15.644v78.22h15.644v15.645h15.644v15.644h78.22v-15.644h15.644v-15.644h15.644v-78.22h-15.644V18.897h-15.644V3.254z"
     id="path4" />
  <path
     fill="#a3dada"
     d="M144.05 3.254h78.221v15.644h15.644v15.644h15.644v78.22h-15.644v15.645h-15.644v15.644h-62.576v-15.644h46.932v-15.644h15.644V97.119h15.644V50.186h-15.644V34.542h-15.644V18.898h-46.932v15.644H144.05v15.644h-15.644V97.12h-15.644V34.542h15.644V18.898h15.644z"
     id="path6" />
  <path
     fill="#b6e7e7"
     d="M159.695 18.898h46.932v15.644h-46.932zM144.05 34.542h15.644v15.644H144.05zm62.576 0h15.644v15.644h-15.644zm-78.22 15.644h15.644V97.12h-15.644zm93.864 0h15.644V97.12h-15.644z"
     id="path8" />
  <path
     fill="#edecda"
     d="M159.695 65.83h15.644v15.645h-15.644zM144.05 81.476h15.644v15.644H144.05z"
     id="path10" />
  <path
     fill="#e4e1d0"
     d="M159.695 81.475h15.644v15.644h-15.644z"
     id="path12" />
  <path
     fill="#d4d3c2"
     d="M175.339 81.475h15.644v15.644h-15.644z"
     id="path14" />
  <path
     fill="#6aa1a1"
     d="M112.763 97.119h15.644v15.644h-15.644z"
     id="path16" />
  <path
     fill="#9bba90"
     d="M128.407 97.119h15.644v15.644h-15.644z"
     id="path18" />
  <path
     fill="#a9cdbc"
     d="M144.05 97.119h15.645v15.644H144.05z"
     id="path20" />
  <path
     fill="#d4d3c2"
     d="M159.695 97.119h15.644v15.644h-15.644z"
     id="path22" />
  <path
     fill="#b6e7e7"
     d="M206.627 97.119h15.644v15.644h-15.644z"
     id="path24" />
  <path
     fill="#edc578"
     d="M112.763 112.763v15.644h15.644v-15.644zm0 15.644H97.119v15.644h15.644zM97.119 144.05H81.475v15.644h15.644zm-15.644 15.644H65.83v15.644h15.644zM65.83 175.339H50.186v15.644h15.645zm-15.645 15.644H34.542v15.644c4.302 10.263 10.435 0 15.644 0zm-15.644 15.644H18.898v15.644h15.644z"
     id="path26" />
  <path
     fill="#89a078"
     d="M128.407 112.763h15.644v15.644h-15.644z"
     id="path28" />
  <path
     fill="#648159"
     d="M144.05 112.763h15.645v15.644H144.05z"
     id="path30" />
  <path
     d="M159.695 112.763h46.932v15.644h-46.932z"
     id="path32"
     fill="#b6e7e7" />
  <path
     fill="#cb974e"
     d="M112.763 128.407v15.644h15.644v-15.644zm0 15.644H97.119v15.644h15.644zm-15.644 15.644H81.475v15.644h15.644zm-15.644 15.644H65.83v15.644h15.644zM65.83 190.983H50.186v15.644h15.645zm-15.645 15.644H34.542v15.644h15.644zm-15.644 15.644H18.898v15.644h15.644z"
     id="path34" />
  <path
     fill="#8a5c12"
     d="M128.407 128.407v15.644h15.644v-15.644zm0 15.644h-15.644v15.644h15.644zm-15.644 15.644H97.119v15.644h15.644zm-15.644 15.644H81.475v15.644h15.644zm-15.644 15.644H65.83v15.644h15.644zM65.83 206.627H50.186v15.644h15.645zm-15.645 15.644H34.542v15.644h15.644z"
     id="path36" />
  <path
     fill="#6aa1a1"
     d="M144.05 128.407h15.645v15.644H144.05z"
     id="path38" />
</svg>
