<?xml version="1.0" encoding="UTF-8" standalone="no"?>
<svg
   xmlns:dc="http://purl.org/dc/elements/1.1/"
   xmlns:cc="http://creativecommons.org/ns#"
   xmlns:rdf="http://www.w3.org/1999/02/22-rdf-syntax-ns#"
   xmlns:svg="http://www.w3.org/2000/svg"
   xmlns="http://www.w3.org/2000/svg"
   xmlns:sodipodi="http://sodipodi.sourceforge.net/DTD/sodipodi-0.dtd"
   xmlns:inkscape="http://www.inkscape.org/namespaces/inkscape"
   version="1.1"
   viewBox="0 0 64 64"
   id="svg835"
   sodipodi:docname="crest_of_indech.svg"
   inkscape:version="1.1-dev (ddb55ca, 2020-02-02)">
  <metadata
     id="metadata841">
    <rdf:RDF>
      <cc:Work
         rdf:about="">
        <dc:format>image/svg+xml</dc:format>
        <dc:type
           rdf:resource="http://purl.org/dc/dcmitype/StillImage" />
      </cc:Work>
    </rdf:RDF>
  </metadata>
  <defs
     id="defs839" />
  <sodipodi:namedview
     pagecolor="#ffffff"
     bordercolor="#666666"
     borderopacity="1"
     objecttolerance="10"
     gridtolerance="10"
     guidetolerance="10"
     inkscape:pageopacity="0"
     inkscape:pageshadow="2"
     inkscape:window-width="900"
     inkscape:window-height="651"
     id="namedview837"
     showgrid="false"
     inkscape:zoom="1.121284"
     inkscape:cx="34.520162"
     inkscape:cy="8.8988194"
     inkscape:window-x="262"
     inkscape:window-y="66"
     inkscape:window-maximized="0"
     inkscape:current-layer="svg835" />
  <path
     inkscape:connector-curvature="0"
     id="path852"
     d="m 31.578911,59.405736 c -0.458392,-0.506518 -0.488753,-1.045402 -0.435745,-7.734227 0.03133,-3.954376 -0.04724,-8.242358 -0.174624,-9.528848 -0.281497,-2.842997 -0.59713,-3.238552 -3.629315,-4.548318 -2.780129,-1.200891 -4.410115,-2.829411 -4.28954,-4.285682 0.126648,-1.529614 0.966128,-1.48823 2.679368,0.132084 1.912076,1.808361 3.369453,2.315194 6.657247,2.315194 2.333998,0 2.826887,-0.08558 4.201691,-0.72951 0.856634,-0.401231 1.935951,-1.130768 2.398481,-1.621195 0.462534,-0.490427 1.219256,-0.974773 1.68161,-1.076322 l 0.840639,-0.184635 v 1.220755 c 0,1.098003 -0.118842,1.33626 -1.181948,2.369479 -0.740411,0.719595 -1.847216,1.415047 -2.962787,1.861641 -2.406081,0.963219 -3.190213,1.570443 -3.506309,2.715245 -0.146247,0.529662 -0.344521,4.956839 -0.440608,9.838177 -0.14557,7.395008 -0.241903,8.952326 -0.577616,9.337886 -0.51471,0.591134 -0.660149,0.581704 -1.260544,-0.08173 z M 12.617113,50.936593 C 11.951838,50.549236 10.635072,47.816943 10.176657,45.872645 9.7071753,43.881407 9.6641091,40.24808 10.08514,38.151614 l 0.30658,-1.526585 -2.6863434,-2.505702 c -2.189154,-2.041948 -2.6863441,-2.644969 -2.6863441,-3.258155 0,-0.797804 0.5912815,-1.583475 1.1916934,-1.583475 0.3146384,0 1.4516088,1.188604 3.9204381,4.09848 0.89275,1.052236 1.25422,0.805741 2.599398,-1.772588 l 1.062756,-2.037005 -1.711619,-2.854728 C 8.714776,21.096328 8.4718473,19.998818 10.461194,19.39069 c 0.494457,-0.151151 0.746617,0.26034 2.479789,4.046672 l 1.929361,4.214934 2.147527,-1.332012 c 3.183377,-1.9745 3.086231,-1.723442 1.478535,-3.821008 -1.596688,-2.083203 -2.224825,-3.412564 -2.618357,-5.541368 -0.330283,-1.786669 0.02409,-4.566458 0.738287,-5.791395 0.613775,-1.052692 1.734298,-1.4583753 2.344026,-0.848649 0.404313,0.404313 0.41163,0.569547 0.07551,1.705119 -0.96752,3.268776 -0.515926,6.462058 1.318042,9.32005 0.874543,1.362856 1.255597,1.570597 4.080042,2.224349 1.007121,0.233109 2.672954,0.886663 3.701852,1.452344 1.635688,0.899283 1.870727,1.12261 1.870727,1.777512 0,1.049042 -1.16091,1.473119 -2.192092,0.800759 -1.753742,-1.143484 -3.021275,-1.557288 -4.260721,-1.390965 -3.103392,0.416439 -7.139801,3.483186 -8.82606,6.705781 -1.53819,2.939625 -2.121865,5.270905 -1.993237,7.961269 0.101906,2.131396 0.213368,2.516607 1.485748,5.134636 0.756567,1.556704 1.375578,3.019253 1.375578,3.250108 0,0.579158 -1.438808,1.967352 -2.0289,1.957529 -0.26569,-0.0044 -0.693074,-0.130315 -0.949742,-0.279762 z m 37.068231,-0.485112 c -0.977093,-0.977094 -0.973077,-1.645249 0.01918,-3.191553 1.173148,-1.828194 1.864824,-4.084923 2.026622,-6.612255 0.127578,-1.992879 0.06269,-2.472266 -0.572627,-4.230688 -1.715477,-4.74805 -3.950049,-7.609135 -7.106482,-9.098937 -2.953737,-1.394131 -4.948899,-1.440087 -6.586797,-0.151715 -0.662802,0.52136 -2.15318,0.695908 -2.742192,0.321159 -0.583319,-0.371127 0.304369,-1.769716 1.685944,-2.65627 1.191781,-0.764765 2.11199,-1.033094 5.158049,-1.504072 1.404695,-0.217192 2.370812,-1.15645 3.329994,-3.237422 1.372735,-2.978188 1.594973,-5.117506 0.798255,-7.684232 -0.196727,-0.633779 -0.182793,-1.08925 0.05056,-1.652613 0.359301,-0.8674318 0.477837,-0.9071456 1.422675,-0.476649 1.112882,0.507063 1.614346,1.911637 1.591764,4.45847 -0.02269,2.559324 -0.54766,4.095726 -2.637366,7.718658 -0.669913,1.161432 -1.178995,2.146858 -1.131293,2.189836 0.0477,0.04298 1.111358,0.736405 2.363677,1.540943 l 2.276942,1.462795 2.001466,-4.207318 c 1.697699,-3.568771 2.074484,-4.181214 2.482581,-4.035307 1.713179,0.612506 1.582289,1.796443 -0.621531,5.621974 -0.97003,1.683841 -1.989658,3.388928 -2.265842,3.78908 l -0.502151,0.727549 1.142065,2.147563 c 0.628138,1.181159 1.306245,2.211035 1.506908,2.288613 0.223667,0.08647 1.129674,-0.69567 2.341416,-2.021305 2.388008,-2.612461 2.830475,-2.896221 3.529565,-2.263556 0.278771,0.252276 0.50685,0.717436 0.50685,1.033687 0,0.641455 -2.748499,3.838141 -3.300018,3.838141 -0.190879,0 -0.71765,0.422092 -1.170606,0.937979 l -0.823557,0.937978 0.174277,4.041838 c 0.160572,3.723997 0.127444,4.19606 -0.42127,6.002995 -1.362887,4.488045 -2.770715,5.720969 -4.527052,3.964634 z M 31.435189,23.658812 C 31.240363,23.186166 30.11169,21.828853 28.927025,20.642562 25.62702,17.338025 24.6816,14.830453 25.826258,12.418266 c 0.245873,-0.518133 1.322459,-1.878149 2.392414,-3.0222571 1.069958,-1.1441073 2.168464,-2.5824785 2.441124,-3.1963797 0.272663,-0.6139023 0.77267,-1.4489354 1.111127,-1.8556289 l 0.615379,-0.7394416 1.586508,2.666035 c 1.030347,1.7314378 1.926664,2.9018636 2.556835,3.3387602 1.41378,0.9801701 2.392266,2.5291961 2.53073,4.0063531 0.193293,2.062156 -0.658436,3.845511 -3.127666,6.54871 -1.170279,1.281171 -2.36015,2.784883 -2.644155,3.34158 -0.65044,1.274967 -1.366482,1.334006 -1.853365,0.152815 z m 2.645722,-5.205089 c 1.073992,-0.76475 2.167568,-2.485149 2.3097,-3.633591 0.252424,-2.039623 -1.950699,-4.388231 -4.116406,-4.388231 -1.865632,0 -4.250802,2.255001 -4.250802,4.018815 0,1.238496 2.137982,4.10191 3.437435,4.603785 0.622119,0.240273 1.826883,-0.03597 2.620073,-0.600778 z"
     style="fill:#ff8080;stroke:#ffb380;stroke-width:0.264418;fill-opacity:1" />
</svg>
