<?xml version="1.0" encoding="UTF-8" standalone="no"?>
<svg
   xmlns:dc="http://purl.org/dc/elements/1.1/"
   xmlns:cc="http://creativecommons.org/ns#"
   xmlns:rdf="http://www.w3.org/1999/02/22-rdf-syntax-ns#"
   xmlns:svg="http://www.w3.org/2000/svg"
   xmlns="http://www.w3.org/2000/svg"
   xmlns:xlink="http://www.w3.org/1999/xlink"
   xmlns:sodipodi="http://sodipodi.sourceforge.net/DTD/sodipodi-0.dtd"
   xmlns:inkscape="http://www.inkscape.org/namespaces/inkscape"
   inkscape:version="1.0 (4035a4fb49, 2020-05-01)"
   sodipodi:docname="chinos.svg"
   id="svg92"
   viewBox="0 0 256 256"
   version="1.1"
   cursor="default">
  <metadata
     id="metadata96">
    <rdf:RDF>
      <cc:Work
         rdf:about="">
        <dc:format>image/svg+xml</dc:format>
        <dc:type
           rdf:resource="http://purl.org/dc/dcmitype/StillImage" />
      </cc:Work>
    </rdf:RDF>
  </metadata>
  <sodipodi:namedview
     inkscape:current-layer="svg92"
     inkscape:window-maximized="0"
     inkscape:window-y="0"
     inkscape:window-x="0"
     inkscape:cy="105.33297"
     inkscape:cx="87.161187"
     inkscape:zoom="1.6601563"
     showgrid="false"
     id="namedview94"
     inkscape:window-height="909"
     inkscape:window-width="957"
     inkscape:pageshadow="2"
     inkscape:pageopacity="0"
     guidetolerance="10"
     gridtolerance="10"
     objecttolerance="10"
     borderopacity="1"
     bordercolor="#666666"
     pagecolor="#ffffff" />
  <defs
     id="defs20">
    <linearGradient
       id="innoGrad2">
      <stop
         id="stop2"
         offset="0"
         stop-color="#ff2a2a" />
      <stop
         id="stop4"
         offset="1"
         stop-color="#f55" />
    </linearGradient>
    <linearGradient
       id="innoGrad1">
      <stop
         id="stop7"
         offset="0"
         stop-color="#ff8080" />
      <stop
         id="stop9"
         offset="1"
         stop-color="#faa" />
    </linearGradient>
    <linearGradient
       xlink:href="#innoGrad1"
       gradientUnits="userSpaceOnUse"
       gradientTransform="matrix(1.0721 0 0 1.0721 -6.1266 -14.27)"
       y2="176.2"
       y1="194.38"
       x2="158.85"
       x1="130.82"
       id="linearGradient1" />
    <linearGradient
       xlink:href="#innoGrad1"
       gradientUnits="userSpaceOnUse"
       gradientTransform="matrix(1.0721 0 0 1.0721 -6.1266 -14.27)"
       y2="150.69"
       y1="177.97"
       x2="124.25"
       x1="81.822"
       id="linearGradient3" />
    <linearGradient
       xlink:href="#innoGrad1"
       gradientUnits="userSpaceOnUse"
       gradientTransform="matrix(1.0721 0 0 1.0721 -6.1266 -14.27)"
       y2="111.8"
       y1="131.75"
       x2="101.77"
       x1="62.377"
       id="linearGradient5" />
    <linearGradient
       xlink:href="#innoGrad1"
       gradientUnits="userSpaceOnUse"
       gradientTransform="matrix(1.0721 0 0 1.0721 -6.1266 -14.27)"
       y2="148.86"
       y1="172.79"
       x2="218.39"
       x1="189.29"
       id="linearGradient7" />
    <linearGradient
       xlink:href="#innoGrad1"
       gradientUnits="userSpaceOnUse"
       gradientTransform="matrix(1.0721 0 0 1.0721 -6.1266 -14.27)"
       y2="123.32"
       y1="148.68"
       x2="188.75"
       x1="149.29"
       id="linearGradient9" />
    <linearGradient
       xlink:href="#innoGrad1"
       gradientUnits="userSpaceOnUse"
       gradientTransform="matrix(1.0721 0 0 1.0721 -6.1266 -14.27)"
       y2="95.643"
       y1="107.07"
       x2="155.71"
       x1="115.36"
       id="linearGradient11" />
    <linearGradient
       xlink:href="#innoGrad2"
       gradientUnits="userSpaceOnUse"
       gradientTransform="matrix(1.0721,0,0,1.0721,-6.1266,-14.27)"
       y2="81.309"
       y1="120.94"
       x2="43.913"
       x1="37.906"
       id="linearGradient939" />
    <linearGradient
       xlink:href="#innoGrad2"
       gradientUnits="userSpaceOnUse"
       gradientTransform="matrix(1.0721,0,0,1.0721,-6.1266,-14.27)"
       y2="72.488"
       y1="92.622"
       x2="102.59"
       x1="98.755"
       id="linearGradient947" />
    <clipPath
       id="SVGID_2_">
      <use
         id="use7"
         style="overflow:visible"
         xlink:href="#SVGID_1_"
         x="0"
         y="0"
         width="100%"
         height="100%" />
    </clipPath>
    <clipPath
       id="clipPath124">
      <use
         id="use122"
         style="overflow:visible"
         xlink:href="#SVGID_1_"
         x="0"
         y="0"
         width="100%"
         height="100%" />
    </clipPath>
    <clipPath
       id="clipPath128">
      <use
         id="use126"
         style="overflow:visible"
         xlink:href="#SVGID_1_"
         x="0"
         y="0"
         width="100%"
         height="100%" />
    </clipPath>
    <clipPath
       id="clipPath132">
      <use
         id="use130"
         style="overflow:visible"
         xlink:href="#SVGID_1_"
         x="0"
         y="0"
         width="100%"
         height="100%" />
    </clipPath>
    <clipPath
       id="clipPath136">
      <use
         id="use134"
         style="overflow:visible"
         xlink:href="#SVGID_1_"
         x="0"
         y="0"
         width="100%"
         height="100%" />
    </clipPath>
    <clipPath
       id="clipPath140">
      <use
         id="use138"
         style="overflow:visible"
         xlink:href="#SVGID_1_"
         x="0"
         y="0"
         width="100%"
         height="100%" />
    </clipPath>
    <clipPath
       id="clipPath144">
      <use
         id="use142"
         style="overflow:visible"
         xlink:href="#SVGID_1_"
         x="0"
         y="0"
         width="100%"
         height="100%" />
    </clipPath>
    <clipPath
       id="clipPath148">
      <use
         id="use146"
         style="overflow:visible"
         xlink:href="#SVGID_1_"
         x="0"
         y="0"
         width="100%"
         height="100%" />
    </clipPath>
    <clipPath
       id="clipPath152">
      <use
         id="use150"
         style="overflow:visible"
         xlink:href="#SVGID_1_"
         x="0"
         y="0"
         width="100%"
         height="100%" />
    </clipPath>
    <clipPath
       id="clipPath156">
      <use
         id="use154"
         style="overflow:visible"
         xlink:href="#SVGID_1_"
         x="0"
         y="0"
         width="100%"
         height="100%" />
    </clipPath>
    <clipPath
       id="clipPath160">
      <use
         id="use158"
         style="overflow:visible"
         xlink:href="#SVGID_1_"
         x="0"
         y="0"
         width="100%"
         height="100%" />
    </clipPath>
    <clipPath
       id="clipPath164">
      <use
         id="use162"
         style="overflow:visible"
         xlink:href="#SVGID_1_"
         x="0"
         y="0"
         width="100%"
         height="100%" />
    </clipPath>
    <clipPath
       id="clipPath168">
      <use
         id="use166"
         style="overflow:visible"
         xlink:href="#SVGID_1_"
         x="0"
         y="0"
         width="100%"
         height="100%" />
    </clipPath>
    <clipPath
       id="clipPath172">
      <use
         id="use170"
         style="overflow:visible"
         xlink:href="#SVGID_1_"
         x="0"
         y="0"
         width="100%"
         height="100%" />
    </clipPath>
    <clipPath
       id="clipPath176">
      <use
         id="use174"
         style="overflow:visible"
         xlink:href="#SVGID_1_"
         x="0"
         y="0"
         width="100%"
         height="100%" />
    </clipPath>
    <clipPath
       id="clipPath180">
      <use
         id="use178"
         style="overflow:visible"
         xlink:href="#SVGID_1_"
         x="0"
         y="0"
         width="100%"
         height="100%" />
    </clipPath>
    <clipPath
       id="clipPath184">
      <use
         id="use182"
         style="overflow:visible"
         xlink:href="#SVGID_1_"
         x="0"
         y="0"
         width="100%"
         height="100%" />
    </clipPath>
    <clipPath
       id="clipPath188">
      <use
         id="use186"
         style="overflow:visible"
         xlink:href="#SVGID_1_"
         x="0"
         y="0"
         width="100%"
         height="100%" />
    </clipPath>
    <clipPath
       id="clipPath192">
      <use
         id="use190"
         style="overflow:visible"
         xlink:href="#SVGID_1_"
         x="0"
         y="0"
         width="100%"
         height="100%" />
    </clipPath>
    <clipPath
       id="clipPath196">
      <use
         id="use194"
         style="overflow:visible"
         xlink:href="#SVGID_1_"
         x="0"
         y="0"
         width="100%"
         height="100%" />
    </clipPath>
    <clipPath
       id="clipPath200">
      <use
         id="use198"
         style="overflow:visible"
         xlink:href="#SVGID_1_"
         x="0"
         y="0"
         width="100%"
         height="100%" />
    </clipPath>
    <clipPath
       id="clipPath204">
      <use
         id="use202"
         style="overflow:visible"
         xlink:href="#SVGID_1_"
         x="0"
         y="0"
         width="100%"
         height="100%" />
    </clipPath>
    <clipPath
       id="clipPath208">
      <use
         id="use206"
         style="overflow:visible"
         xlink:href="#SVGID_1_"
         x="0"
         y="0"
         width="100%"
         height="100%" />
    </clipPath>
    <clipPath
       id="clipPath212">
      <use
         id="use210"
         style="overflow:visible"
         xlink:href="#SVGID_1_"
         x="0"
         y="0"
         width="100%"
         height="100%" />
    </clipPath>
    <clipPath
       id="clipPath216">
      <use
         id="use214"
         style="overflow:visible"
         xlink:href="#SVGID_1_"
         x="0"
         y="0"
         width="100%"
         height="100%" />
    </clipPath>
    <clipPath
       id="clipPath220">
      <use
         id="use218"
         style="overflow:visible"
         xlink:href="#SVGID_1_"
         x="0"
         y="0"
         width="100%"
         height="100%" />
    </clipPath>
    <clipPath
       id="clipPath224">
      <use
         id="use222"
         style="overflow:visible"
         xlink:href="#SVGID_1_"
         x="0"
         y="0"
         width="100%"
         height="100%" />
    </clipPath>
    <clipPath
       id="clipPath228">
      <use
         id="use226"
         style="overflow:visible"
         xlink:href="#SVGID_1_"
         x="0"
         y="0"
         width="100%"
         height="100%" />
    </clipPath>
    <clipPath
       id="clipPath232">
      <use
         id="use230"
         style="overflow:visible"
         xlink:href="#SVGID_1_"
         x="0"
         y="0"
         width="100%"
         height="100%" />
    </clipPath>
    <clipPath
       id="clipPath236">
      <use
         id="use234"
         style="overflow:visible"
         xlink:href="#SVGID_1_"
         x="0"
         y="0"
         width="100%"
         height="100%" />
    </clipPath>
    <clipPath
       id="clipPath240">
      <use
         id="use238"
         style="overflow:visible"
         xlink:href="#SVGID_1_"
         x="0"
         y="0"
         width="100%"
         height="100%" />
    </clipPath>
    <clipPath
       id="clipPath244">
      <use
         id="use242"
         style="overflow:visible"
         xlink:href="#SVGID_1_"
         x="0"
         y="0"
         width="100%"
         height="100%" />
    </clipPath>
    <clipPath
       id="clipPath248">
      <use
         id="use246"
         style="overflow:visible"
         xlink:href="#SVGID_1_"
         x="0"
         y="0"
         width="100%"
         height="100%" />
    </clipPath>
    <clipPath
       id="clipPath252">
      <use
         id="use250"
         style="overflow:visible"
         xlink:href="#SVGID_1_"
         x="0"
         y="0"
         width="100%"
         height="100%" />
    </clipPath>
    <clipPath
       id="clipPath256">
      <use
         id="use254"
         style="overflow:visible"
         xlink:href="#SVGID_1_"
         x="0"
         y="0"
         width="100%"
         height="100%" />
    </clipPath>
    <clipPath
       id="clipPath260">
      <use
         id="use258"
         style="overflow:visible"
         xlink:href="#SVGID_1_"
         x="0"
         y="0"
         width="100%"
         height="100%" />
    </clipPath>
    <clipPath
       id="clipPath264">
      <use
         id="use262"
         style="overflow:visible"
         xlink:href="#SVGID_1_"
         x="0"
         y="0"
         width="100%"
         height="100%" />
    </clipPath>
    <clipPath
       id="clipPath268">
      <use
         id="use266"
         style="overflow:visible"
         xlink:href="#SVGID_1_"
         x="0"
         y="0"
         width="100%"
         height="100%" />
    </clipPath>
    <clipPath
       id="clipPath272">
      <use
         id="use270"
         style="overflow:visible"
         xlink:href="#SVGID_1_"
         x="0"
         y="0"
         width="100%"
         height="100%" />
    </clipPath>
    <clipPath
       id="clipPath276">
      <use
         id="use274"
         style="overflow:visible"
         xlink:href="#SVGID_1_"
         x="0"
         y="0"
         width="100%"
         height="100%" />
    </clipPath>
    <clipPath
       id="clipPath280">
      <use
         id="use278"
         style="overflow:visible"
         xlink:href="#SVGID_1_"
         x="0"
         y="0"
         width="100%"
         height="100%" />
    </clipPath>
    <clipPath
       id="clipPath284">
      <use
         id="use282"
         style="overflow:visible"
         xlink:href="#SVGID_1_"
         x="0"
         y="0"
         width="100%"
         height="100%" />
    </clipPath>
    <clipPath
       id="clipPath288">
      <use
         id="use286"
         style="overflow:visible"
         xlink:href="#SVGID_1_"
         x="0"
         y="0"
         width="100%"
         height="100%" />
    </clipPath>
    <clipPath
       id="clipPath292">
      <use
         id="use290"
         style="overflow:visible"
         xlink:href="#SVGID_1_"
         x="0"
         y="0"
         width="100%"
         height="100%" />
    </clipPath>
    <clipPath
       id="clipPath296">
      <use
         id="use294"
         style="overflow:visible"
         xlink:href="#SVGID_1_"
         x="0"
         y="0"
         width="100%"
         height="100%" />
    </clipPath>
    <clipPath
       id="clipPath300">
      <use
         id="use298"
         style="overflow:visible"
         xlink:href="#SVGID_1_"
         x="0"
         y="0"
         width="100%"
         height="100%" />
    </clipPath>
    <clipPath
       id="clipPath304">
      <use
         id="use302"
         style="overflow:visible"
         xlink:href="#SVGID_1_"
         x="0"
         y="0"
         width="100%"
         height="100%" />
    </clipPath>
    <clipPath
       id="clipPath308">
      <use
         id="use306"
         style="overflow:visible"
         xlink:href="#SVGID_1_"
         x="0"
         y="0"
         width="100%"
         height="100%" />
    </clipPath>
    <clipPath
       id="clipPath312">
      <use
         id="use310"
         style="overflow:visible"
         xlink:href="#SVGID_1_"
         x="0"
         y="0"
         width="100%"
         height="100%" />
    </clipPath>
    <clipPath
       id="clipPath316">
      <use
         id="use314"
         style="overflow:visible"
         xlink:href="#SVGID_1_"
         x="0"
         y="0"
         width="100%"
         height="100%" />
    </clipPath>
    <clipPath
       id="clipPath320">
      <use
         id="use318"
         style="overflow:visible"
         xlink:href="#SVGID_1_"
         x="0"
         y="0"
         width="100%"
         height="100%" />
    </clipPath>
    <clipPath
       id="clipPath324">
      <use
         id="use322"
         style="overflow:visible"
         xlink:href="#SVGID_1_"
         x="0"
         y="0"
         width="100%"
         height="100%" />
    </clipPath>
    <clipPath
       id="clipPath328">
      <use
         id="use326"
         style="overflow:visible"
         xlink:href="#SVGID_1_"
         x="0"
         y="0"
         width="100%"
         height="100%" />
    </clipPath>
    <clipPath
       id="clipPath332">
      <use
         id="use330"
         style="overflow:visible"
         xlink:href="#SVGID_1_"
         x="0"
         y="0"
         width="100%"
         height="100%" />
    </clipPath>
    <clipPath
       id="clipPath336">
      <use
         id="use334"
         style="overflow:visible"
         xlink:href="#SVGID_1_"
         x="0"
         y="0"
         width="100%"
         height="100%" />
    </clipPath>
    <radialGradient
       gradientUnits="userSpaceOnUse"
       gradientTransform="matrix(23.8158,0,0,-6.7601,227.5142,2968.9771)"
       r="1"
       cy="378.8721"
       cx="-3.9749999"
       id="SVGID_5_">
      <stop
         id="stop129"
         style="stop-color:#808285"
         offset="0" />
      <stop
         id="stop131"
         style="stop-color:#FFFFFF"
         offset="1" />
    </radialGradient>
    <clipPath
       id="SVGID_4_">
      <use
         id="use341"
         style="overflow:visible"
         xlink:href="#SVGID_3_"
         x="0"
         y="0"
         width="100%"
         height="100%" />
    </clipPath>
    <radialGradient
       gradientUnits="userSpaceOnUse"
       gradientTransform="matrix(23.8158,0,0,-6.7601,227.5142,2968.9771)"
       r="1"
       cy="379.05551"
       cx="-0.72369999"
       id="SVGID_8_">
      <stop
         id="stop144"
         style="stop-color:#808285"
         offset="0" />
      <stop
         id="stop146"
         style="stop-color:#FFFFFF"
         offset="1" />
    </radialGradient>
    <clipPath
       id="SVGID_7_">
      <use
         id="use141"
         style="overflow:visible"
         xlink:href="#SVGID_6_"
         x="0"
         y="0"
         width="100%"
         height="100%" />
    </clipPath>
    <rect
       height="425"
       width="425"
       y="-16"
       x="-38.5"
       id="SVGID_1_" />
    <path
       d="m 109,407.8 c 0,3.7 10.7,6.8 23.8,6.8 13.2,0 23.8,-3 23.8,-6.8 0,-3.8 -10.6,-6.8 -23.8,-6.8 -13.1,0 -23.8,3 -23.8,6.8"
       class="st29"
       id="SVGID_3_" />
    <path
       d="m 186.5,406.5 c 0,3.7 10.7,6.8 23.8,6.8 13.2,0 23.8,-3 23.8,-6.8 0,-3.8 -10.7,-6.8 -23.8,-6.8 -13.2,0.1 -23.8,3.1 -23.8,6.8"
       class="st29"
       id="SVGID_6_" />
  </defs>
  <g
     transform="matrix(0.6708676,0,0,0.6094001,16.630281,2.2936115)"
     id="g215">
    <g
       id="Calque_1">
      <g
         id="g120">
        <defs
           id="defs5">
          <rect
             height="425"
             width="425"
             y="-16"
             x="-38.5"
             id="rect450" />
        </defs>
        <clipPath
           id="clipPath353">
          <use
             id="use351"
             style="overflow:visible"
             xlink:href="#SVGID_1_"
             x="0"
             y="0"
             width="100%"
             height="100%" />
        </clipPath>
        <path
           id="path10"
           clip-path="url(#SVGID_2_)"
           d="m 186.6,104.6 c 1.1,0.2 2.3,0.6 3.4,0.4 0.3,-0.1 0.4,-0.3 0.2,-0.5 -0.1,-0.2 -0.3,-0.4 -0.5,-0.6 -0.4,-0.4 -0.9,-0.7 -1.3,-1.1 -1.9,-1.3 -3.9,-2.4 -5.9,-3.4 -2.1,-1 -4.2,-1.9 -6.3,-2.6 -1.1,-0.3 -2.2,-0.7 -3.3,-0.8 -1.1,-0.2 -2.2,-0.1 -3.4,-0.2 h 0.1 c -4.2,0.7 -8,2.8 -11.4,5.3 -3.4,2.6 -6.3,5.8 -8.5,9.4 2,-3.8 4.9,-7.1 8.2,-9.8 1.7,-1.4 3.5,-2.5 5.4,-3.5 1.9,-1 4,-1.7 6.2,-2.1 v 0 0 l 1.7,0.1 c 0.6,0 1.2,0.1 1.8,0.2 1.2,0.2 2.3,0.5 3.4,0.9 2.2,0.7 4.3,1.7 6.4,2.7 2,1.1 4,2.2 5.9,3.6 0.5,0.4 0.9,0.7 1.3,1.2 0.2,0.2 0.4,0.4 0.5,0.7 0.1,0.1 0.1,0.3 0,0.5 -0.1,0.2 -0.3,0.2 -0.4,0.3 -1.3,0 -2.4,-0.4 -3.5,-0.7"
           class="st0" />
        <line
           id="line12"
           clip-path="url(#SVGID_2_)"
           y2="16.9"
           x2="199.3"
           y1="24.200001"
           x1="200.10001"
           class="st1" />
        <path
           id="path14"
           clip-path="url(#SVGID_2_)"
           d="m 185.5,218.8 c 7.4,18.6 14.8,41.9 11.6,38.7 m -40.8,-38.7 c -2.4,6 -4.8,12.5 -6.8,18.4"
           class="st2" />
        <path
           id="path16"
           clip-path="url(#SVGID_2_)"
           d="m 169.7,76.4 c -0.2,0 -0.4,0 -0.6,0"
           class="st3" />
        <line
           id="line18"
           clip-path="url(#SVGID_2_)"
           y2="95.199997"
           x2="170.39999"
           y1="76.400002"
           x1="170.39999"
           class="st4" />
        <path
           id="path20"
           clip-path="url(#SVGID_2_)"
           d="m 189.2,371.3 c 6.2,2.3 12.8,3.4 19.4,3.6"
           class="st5" />
        <path
           id="path22"
           clip-path="url(#SVGID_2_)"
           d="m 211.6,374.9 c 6.6,-0.1 13.2,-0.8 19.7,-2.4"
           class="st5" />
        <path
           id="path24"
           clip-path="url(#SVGID_2_)"
           d="m 231.7,372.4 c 0.3,-0.1 0.5,-0.1 0.8,-0.2 m -23.4,2.7 c 0.3,0 0.6,0 0.8,0 0.3,0 0.6,0 0.8,0 m -23,-4.2 c 0.3,0.1 0.5,0.2 0.8,0.3"
           class="st6" />
        <path
           id="path26"
           clip-path="url(#SVGID_2_)"
           d="m 187.1,371.2 c 20.6,9.8 45.9,1.6 45.9,1.6"
           class="st7" />
        <path
           id="path28"
           clip-path="url(#SVGID_2_)"
           d="M 151.4,389.7 C 150.8,359 151,277.4 152.5,228 154.3,171.1 165,101.6 166.3,99.4"
           class="st2" />
        <path
           id="path30"
           clip-path="url(#SVGID_2_)"
           d="M 98,88.8 C 98,57.2 99.5,16 99.5,16"
           class="st8" />
        <path
           id="path32"
           clip-path="url(#SVGID_2_)"
           d="m 113.8,391.7 c 0,0 -4.1,-73.7 -7.3,-127 m 0.1,0 C 105.4,245.2 98,133.7 98,88.8"
           class="st2" />
        <path
           id="path34"
           clip-path="url(#SVGID_2_)"
           d="m 235.3,264.7 c 1.2,-19.5 8.6,-131 8.6,-175.9 m 0,0 c 0,-31.6 -1.5,-72.7 -1.5,-72.7 m -51.5,353.1 c 0.5,-32.2 0,-94.5 -1.5,-141.2 -1.8,-56.9 -12.5,-126.5 -13.8,-128.7"
           class="st2" />
        <path
           id="path36"
           clip-path="url(#SVGID_2_)"
           d="m 229.4,370.4 c 1.5,-26.2 3.9,-71.8 5.9,-105.6"
           class="st9" />
        <path
           id="path38"
           clip-path="url(#SVGID_2_)"
           d="m 142.5,4.1 c 12.4,0.3 23.8,0.5 29,0.5"
           class="st10" />
        <path
           id="path40"
           clip-path="url(#SVGID_2_)"
           d="m 203.6,3.9 42.5,-0.9 0.7,12.9 h -0.3 l 0.1,8.3 c 0,0 7.1,60.4 -14.2,356.1 0,0 -21,8.6 -45.4,-1.5 0,0 -1.1,-149.4 -1.2,-152.7 0,-3.3 1.5,-2.6 1.2,-3.4 -0.3,-0.7 -1.6,-3 -1.5,-4 0,-1 -6.4,-93.4 -9.5,-117 0,0 -0.7,-6.3 -5,-6.3 h -0.2 c -4.3,0 -5,6.3 -5,6.3 -3.2,23.6 -9.5,116.1 -9.5,117 0,1 -1.3,3.2 -1.5,4 -0.3,0.7 1.2,0 1.2,3.4 0,3.3 -1.2,162.5 -1.2,162.5 -24.4,10.1 -45.4,1.5 -45.4,1.5 C 88.2,94.4 95.3,24.3 95.3,24.3 L 95.5,16 H 95.2 L 95.8,3 c 0,0 22.6,0.6 43.6,1"
           class="st10" />
        <line
           id="line42"
           clip-path="url(#SVGID_2_)"
           y2="4"
           x2="200.10001"
           y1="4.6999998"
           x1="168.89999"
           class="st10" />
        <path
           id="path44"
           clip-path="url(#SVGID_2_)"
           d="m 156,17.1 -5.7,-4.9 c -0.5,-0.7 -0.5,-1.5 0,-2.1 l 5.9,-5.8"
           class="st11" />
        <path
           id="path46"
           clip-path="url(#SVGID_2_)"
           d="m 200.4,16.9 -29,0.6 c -0.7,0 -1.5,0 -2.4,0 m 77.5,-1.5 -42.9,0.9 m -61,0.1 26.5,0.6 M 95.4,16 l 43.5,0.9"
           class="st12" />
        <path
           id="path48"
           clip-path="url(#SVGID_2_)"
           d="m 232.8,375.7 0.8,-6.5 c 0,0 -22.7,8.2 -47.1,-1.9 l 0.6,6.5"
           class="st13" />
        <line
           id="line50"
           clip-path="url(#SVGID_2_)"
           y2="95.900002"
           x2="169"
           y1="17.799999"
           x1="169"
           class="st14" />
        <line
           id="line52"
           clip-path="url(#SVGID_2_)"
           y2="380.10001"
           x2="189.8"
           y1="372.5"
           x1="190"
           class="st2" />
        <path
           id="path54"
           clip-path="url(#SVGID_2_)"
           d="m 190.2,372.5 -0.3,7.5 m 0.1,0 c -0.3,0 -0.6,-0.4 -0.6,-0.9 0,-0.5 0.3,-0.8 0.6,-0.8 0.3,0 0.6,0.4 0.6,0.9 0,0.4 -0.3,0.8 -0.6,0.8 z m 0,-1.8 c -0.3,0 -0.6,-0.4 -0.6,-0.9 0,-0.5 0.3,-0.8 0.6,-0.8 0.3,0 0.6,0.4 0.6,0.9 0.1,0.5 -0.2,0.8 -0.6,0.8 z m 0.2,-3.5 c -0.3,0 -0.6,-0.4 -0.6,-0.9 0,-0.5 0.3,-0.8 0.6,-0.8 0.3,0 0.6,0.4 0.6,0.9 0,0.5 -0.3,0.8 -0.6,0.8 z m -0.1,1.8 c -0.3,0 -0.6,-0.4 -0.6,-0.9 0,-0.5 0.3,-0.8 0.6,-0.8 0.3,0 0.6,0.4 0.6,0.9 0,0.4 -0.3,0.8 -0.6,0.8 z"
           class="st15" />
        <line
           id="line56"
           clip-path="url(#SVGID_2_)"
           y2="380.5"
           x2="190.60001"
           y1="372.89999"
           x1="190.8"
           class="st16" />
        <path
           id="path58"
           clip-path="url(#SVGID_2_)"
           d="m 168.9,17.6 c 0.2,2.5 0.3,5.1 0.4,7.6 l 0.2,7.6 c 0.1,5.1 0.2,10.1 0.2,15.2 0,5.1 0,10.1 -0.2,15.2 l -0.2,7.6 c -0.1,2.5 -0.2,5.1 -0.4,7.6 -0.2,-2.5 -0.3,-5.1 -0.4,-7.6 l -0.2,-7.6 c -0.1,-5.1 -0.2,-10.1 -0.2,-15.2 0,-5.1 0,-10.1 0.2,-15.2 l 0.2,-7.6 c 0.1,-2.5 0.2,-5 0.4,-7.6"
           class="st17" />
        <line
           id="line60"
           clip-path="url(#SVGID_2_)"
           y2="77.099998"
           x2="98.099998"
           y1="16.1"
           x1="104.5"
           class="st18" />
        <line
           id="line62"
           clip-path="url(#SVGID_2_)"
           y2="75.099998"
           x2="99.699997"
           y1="16.1"
           x1="106"
           class="st4" />
        <path
           id="path64"
           clip-path="url(#SVGID_2_)"
           d="m 104.5,16.1 c -0.3,5.1 -0.8,10.2 -1.2,15.3 l -1.5,15.3 -1.7,15.3 c -0.6,5.1 -1.3,10.2 -2,15.2 0.3,-5.1 0.8,-10.2 1.2,-15.3 l 1.5,-15.3 1.7,-15.3 c 0.7,-5.1 1.3,-10.2 2,-15.2"
           class="st17" />
        <line
           id="line66"
           clip-path="url(#SVGID_2_)"
           y2="77.099998"
           x2="243.89999"
           y1="16.1"
           x1="237.39999"
           class="st19" />
        <line
           id="line68"
           clip-path="url(#SVGID_2_)"
           y2="76.599998"
           x2="241.10001"
           y1="16.1"
           x1="234.7"
           class="st4" />
        <path
           id="path70"
           clip-path="url(#SVGID_2_)"
           d="m 237.4,16.1 c 0.7,5.1 1.4,10.1 2,15.2 l 1.7,15.3 1.5,15.3 c 0.5,5.1 0.9,10.2 1.2,15.3 -0.7,-5.1 -1.4,-10.2 -2,-15.2 l -1.7,-15.3 -1.5,-15.3 c -0.4,-5.1 -0.8,-10.2 -1.2,-15.3"
           class="st17" />
        <path
           id="path72"
           clip-path="url(#SVGID_2_)"
           d="m 141.2,3 c -1.2,0 -2.1,0.2 -2.1,0.2 -0.2,14.7 -0.2,13 0.2,20.7 0,0.4 0.4,0.7 0.8,0.7 h 2.4 c 0.4,0 0.8,-0.4 0.8,-0.8 -0.4,-7.6 -0.4,-5.9 0,-20.6 C 142.5,3.1 141.8,3 141.2,3 m 0,0.7 c 0.5,0 0.9,0 1.3,0.1 l -0.1,2.8 c -0.3,10.4 -0.3,10.4 0,16 l 0.1,1.7 0.7,-0.5 -0.8,0.1 H 140 c 0,0 -0.1,0 -0.1,-0.1 l -0.1,-1.7 c -0.3,-5.5 -0.3,-5.5 -0.1,-16.8 V 3.7 c 0.4,0.1 0.9,0 1.5,0"
           class="st17" />
        <line
           id="line74"
           clip-path="url(#SVGID_2_)"
           y2="16.9"
           x2="143.7"
           y1="23.700001"
           x1="142.8"
           class="st20" />
        <path
           id="path76"
           clip-path="url(#SVGID_2_)"
           d="m 201.8,3 c -0.6,0 -1.3,0.1 -2,0.2 0.4,14.7 0.4,13 0,20.7 0,0.4 0.3,0.7 0.7,0.7 h 2.6 c 0.3,0 0.6,-0.3 0.7,-0.6 0.4,-7.7 0.4,-6 0.2,-20.8 C 203.9,3.3 203,3 201.8,3 m 0,0.7 c 0.6,0 1.1,0.1 1.4,0.1 v 1.6 c 0.2,11.4 0.2,11.4 -0.2,16.9 V 24 h -2.6 l 0.1,-1.4 c 0.3,-5.6 0.3,-5.6 0,-16.1 l -0.1,-2.8 c 0.5,0 0.9,0 1.4,0"
           class="st17" />
        <circle
           id="ellipse78"
           clip-path="url(#SVGID_2_)"
           cy="11.1"
           cx="156.2"
           class="st21"
           transform="matrix(0.1683,-0.9857,0.9857,0.1683,118.9715,163.2357)"
           r="2.5" />
        <path
           id="path80"
           clip-path="url(#SVGID_2_)"
           d="m 156.1,10.5 c 0,0.2 -0.2,0.4 -0.5,0.3 -0.2,0 -0.4,-0.2 -0.3,-0.5 0,-0.2 0.2,-0.4 0.5,-0.3 0.2,0.1 0.4,0.3 0.3,0.5"
           class="st22" />
        <path
           id="path82"
           clip-path="url(#SVGID_2_)"
           d="m 156.1,10.5 c 0,-0.2 -0.2,-0.4 -0.3,-0.4 -0.2,0 -0.4,0.1 -0.4,0.3 0,0.2 0.1,0.4 0.3,0.4 0.2,0.1 0.4,-0.1 0.4,-0.3"
           class="st17" />
        <path
           id="path84"
           clip-path="url(#SVGID_2_)"
           d="m 157.3,10.7 c 0,0.2 -0.2,0.4 -0.5,0.3 -0.2,0 -0.4,-0.2 -0.3,-0.5 0,-0.2 0.2,-0.4 0.5,-0.3 0.2,0.1 0.3,0.3 0.3,0.5"
           class="st22" />
        <path
           id="path86"
           clip-path="url(#SVGID_2_)"
           d="m 157.3,10.7 c 0,-0.2 -0.2,-0.4 -0.3,-0.4 -0.2,0 -0.4,0.1 -0.4,0.3 0,0.2 0.1,0.4 0.3,0.4 0.1,0 0.3,-0.1 0.4,-0.3"
           class="st17" />
        <path
           id="path88"
           clip-path="url(#SVGID_2_)"
           d="m 156,11.7 c 0,0.2 -0.2,0.4 -0.5,0.3 -0.2,0 -0.4,-0.2 -0.3,-0.5 0,-0.2 0.2,-0.4 0.5,-0.3 0.1,0 0.3,0.3 0.3,0.5"
           class="st22" />
        <path
           id="path90"
           clip-path="url(#SVGID_2_)"
           d="m 155.9,11.7 c 0,-0.2 -0.2,-0.4 -0.3,-0.4 -0.2,0 -0.4,0.1 -0.4,0.3 0,0.2 0.1,0.4 0.3,0.4 0.2,0 0.4,-0.1 0.4,-0.3"
           class="st17" />
        <path
           id="path92"
           clip-path="url(#SVGID_2_)"
           d="m 157.1,11.9 c 0,0.2 -0.2,0.4 -0.5,0.3 -0.2,0 -0.4,-0.2 -0.3,-0.5 0,-0.2 0.2,-0.4 0.5,-0.3 0.2,0 0.3,0.2 0.3,0.5"
           class="st22" />
        <path
           id="path94"
           clip-path="url(#SVGID_2_)"
           d="m 157.1,11.9 c 0,-0.2 -0.2,-0.4 -0.3,-0.4 -0.2,0 -0.4,0.1 -0.4,0.3 0,0.2 0.1,0.4 0.3,0.4 0.1,0 0.4,-0.1 0.4,-0.3"
           class="st17" />
        <path
           id="path96"
           clip-path="url(#SVGID_2_)"
           d="m 172.3,76.3 v 0.8 L 172,76.4 v 0 l -0.2,0.8 -0.2,-0.7 -0.2,0.8 -0.2,-0.7 -0.2,0.8 -0.2,-0.7 -0.1,0.8 -0.3,-0.7 v 0 l -0.2,0.8 -0.2,-0.7 -0.2,0.8 -0.2,-0.7 -0.2,0.8 -0.1,-0.8 m -68.3,-3.3 -0.1,0.8 -0.2,-0.8 v 0 l -0.3,0.7 -0.1,-0.8 -0.3,0.7 -0.1,-0.8 -0.3,0.7 -0.1,-0.8 -0.2,0.7 -0.2,-0.8 v 0 L 98.8,74 98.7,73.2 98.4,73.9 98.3,73.1 98,74.2 v -0.8 m 145.9,1.8 V 76 l -0.3,-0.7 v 0 l -0.2,0.8 -0.2,-0.7 -0.2,0.8 -0.2,-0.7 -0.2,0.8 -0.2,-0.7 -0.1,0.8 -0.3,-0.7 v 0 l -0.2,0.8 -0.2,-0.7 -0.2,0.8 -0.2,-0.7 -0.2,0.8 -0.1,-0.8"
           class="st23" />
        <path
           id="path98"
           clip-path="url(#SVGID_2_)"
           d="m 227.5,381.7 0.4,-7.8 m 3,7 c 0,0 0,0.3 0.4,-7.9 m -2.1,8.3 c 0,0 0,-0.1 0.4,-7.8"
           class="st24" />
        <path
           id="path100"
           clip-path="url(#SVGID_2_)"
           d="m 228.6,374.2 -0.4,7.3 m 0.1,-0.1 c -0.2,0 -0.3,-0.4 -0.3,-0.8 0,-0.5 0.2,-0.8 0.3,-0.8 0.2,0 0.3,0.4 0.3,0.8 0,0.4 -0.2,0.8 -0.3,0.8 z m 0,-1.7 c -0.2,0 -0.3,-0.4 -0.3,-0.8 0,-0.5 0.2,-0.8 0.3,-0.8 0.2,0 0.3,0.4 0.3,0.8 0.1,0.4 -0.1,0.8 -0.3,0.8 z m 0.2,-3.4 c -0.2,0 -0.3,-0.4 -0.3,-0.8 0,-0.5 0.2,-0.8 0.3,-0.8 0.2,0 0.3,0.4 0.3,0.8 0,0.5 -0.1,0.8 -0.3,0.8 z m -0.1,1.7 c -0.2,0 -0.3,-0.4 -0.3,-0.8 0,-0.5 0.2,-0.8 0.3,-0.8 0.2,0 0.3,0.4 0.3,0.8 0,0.5 -0.1,0.8 -0.3,0.8 z m 2.4,-4.5 -0.4,7.3 m 0,-0.1 c -0.2,0 -0.3,-0.4 -0.3,-0.8 0,-0.5 0.2,-0.8 0.3,-0.8 0.2,0 0.3,0.4 0.3,0.8 0,0.4 -0.1,0.8 -0.3,0.8 z m 0.1,-1.7 c -0.2,0 -0.3,-0.4 -0.3,-0.8 0,-0.5 0.2,-0.8 0.3,-0.8 0.2,0 0.3,0.4 0.3,0.8 0,0.4 -0.1,0.8 -0.3,0.8 z m 0.2,-3.4 c -0.2,0 -0.3,-0.4 -0.3,-0.8 0,-0.5 0.2,-0.8 0.3,-0.8 0.2,0 0.3,0.4 0.3,0.8 0,0.4 -0.2,0.8 -0.3,0.8 z m -0.1,1.7 c -0.2,0 -0.3,-0.4 -0.3,-0.8 0,-0.5 0.2,-0.8 0.3,-0.8 0.2,0 0.3,0.4 0.3,0.8 0,0.4 -0.1,0.8 -0.3,0.8 z"
           class="st25" />
        <path
           id="path102"
           clip-path="url(#SVGID_2_)"
           d="m 154,384.7 c -2.6,1.6 -5.4,2.6 -8.4,3.3"
           class="st26" />
        <path
           id="path104"
           clip-path="url(#SVGID_2_)"
           d="m 143,388.6 c -3,0.5 -6,0.8 -9,0.9"
           class="st26" />
        <path
           id="path106"
           clip-path="url(#SVGID_2_)"
           d="m 131.2,389.5 c -3,0 -6,-0.2 -9,-0.6"
           class="st26" />
        <path
           id="path108"
           clip-path="url(#SVGID_2_)"
           d="m 119.1,388.5 c -0.8,-0.1 -1.6,-0.3 -2.4,-0.4"
           class="st27" />
        <path
           id="path110"
           clip-path="url(#SVGID_2_)"
           d="m 110.5,386.6 c -0.3,-0.1 -0.6,-0.3 -0.8,-0.4 m 3.6,1.2 c -0.3,-0.1 -0.6,-0.2 -0.9,-0.2 -0.3,-0.1 -0.6,-0.2 -0.9,-0.3 m 4.7,1.1 c -0.3,-0.1 -0.6,-0.1 -0.9,-0.2 -0.3,-0.1 -0.6,-0.1 -0.9,-0.2 m 7.4,1.3 c -0.3,0 -0.5,-0.1 -0.8,-0.1 -0.3,0 -0.6,-0.1 -0.9,-0.1 m 13.5,0.8 c -0.3,0 -0.5,0 -0.8,0 -0.3,0 -0.5,0 -0.8,0 m 13.3,-1.4 c -0.3,0.1 -0.5,0.1 -0.8,0.2 -0.3,0.1 -0.5,0.1 -0.8,0.2 m 11.6,-4.6 c -0.2,0.2 -0.4,0.3 -0.7,0.4"
           class="st6" />
        <path
           id="path112"
           clip-path="url(#SVGID_2_)"
           d="m 156.9,10.7 -1.3,0.9 m 0.1,-1.1 1,1.4"
           class="st28" />
        <path
           id="path114"
           clip-path="url(#SVGID_2_)"
           d="m 180.7,21.3 c 0,9.8 0.2,35.2 0,42.9 0,3.1 -1.7,12.1 -10.4,12.1"
           class="st4" />
        <path
           id="path116"
           clip-path="url(#SVGID_2_)"
           d="m 210.8,372.3 c 0,0 9.1,-235 6.3,-306.9"
           class="st2" />
        <path
           id="path118"
           clip-path="url(#SVGID_2_)"
           d="m 129.2,63.6 c 0,0 -4.2,58.7 4.1,329.7"
           class="st2" />
      </g>
    </g>
    <g
       id="Ombre">
      <g
         id="g136"
         class="st29">
        <defs
           id="defs124">
          <path
             d="m 109,407.8 c 0,3.7 10.7,6.8 23.8,6.8 13.2,0 23.8,-3 23.8,-6.8 0,-3.8 -10.6,-6.8 -23.8,-6.8 -13.1,0 -23.8,3 -23.8,6.8"
             class="st29"
             id="path512" />
        </defs>
        <clipPath
           id="clipPath416">
          <use
             id="use414"
             style="overflow:visible"
             xlink:href="#SVGID_3_"
             x="0"
             y="0"
             width="100%"
             height="100%" />
        </clipPath>
        <radialGradient
           gradientUnits="userSpaceOnUse"
           gradientTransform="matrix(23.8158,0,0,-6.7601,227.5142,2968.9771)"
           r="1"
           cy="378.8721"
           cx="-3.9749999"
           id="radialGradient422">
          <stop
             id="stop418"
             style="stop-color:#808285"
             offset="0" />
          <stop
             id="stop420"
             style="stop-color:#FFFFFF"
             offset="1" />
        </radialGradient>
        <rect
           style="fill:url(#SVGID_5_)"
           id="rect134"
           clip-path="url(#SVGID_4_)"
           height="13.5"
           width="47.599998"
           class="st30"
           y="401"
           x="109" />
      </g>
      <g
         id="g151"
         class="st29">
        <defs
           id="defs139">
          <path
             d="m 186.5,406.5 c 0,3.7 10.7,6.8 23.8,6.8 13.2,0 23.8,-3 23.8,-6.8 0,-3.8 -10.7,-6.8 -23.8,-6.8 -13.2,0.1 -23.8,3.1 -23.8,6.8"
             class="st29"
             id="path522" />
        </defs>
        <clipPath
           id="clipPath430">
          <use
             id="use428"
             style="overflow:visible"
             xlink:href="#SVGID_6_"
             x="0"
             y="0"
             width="100%"
             height="100%" />
        </clipPath>
        <radialGradient
           gradientUnits="userSpaceOnUse"
           gradientTransform="matrix(23.8158,0,0,-6.7601,227.5142,2968.9771)"
           r="1"
           cy="379.05551"
           cx="-0.72369999"
           id="radialGradient436">
          <stop
             id="stop432"
             style="stop-color:#808285"
             offset="0" />
          <stop
             id="stop434"
             style="stop-color:#FFFFFF"
             offset="1" />
        </radialGradient>
        <rect
           style="fill:url(#SVGID_8_)"
           id="rect149"
           clip-path="url(#SVGID_7_)"
           height="13.5"
           width="47.599998"
           class="st31"
           y="399.79999"
           x="186.5" />
      </g>
    </g>
    <path
       id="path162"
       d="m 203.91112,371.2344 c -1.93631,-0.2436 -5.4821,-0.93524 -7.87953,-1.53698 l -4.35896,-1.09407 -0.32798,-47.52341 c -0.18039,-26.13788 -0.56729,-56.27708 -0.85978,-66.976 -0.2925,-10.69893 -0.51582,-20.00662 -0.49628,-20.68377 0.0408,-1.41486 3.14261,7.32412 5.68086,16.0053 1.03556,3.54178 1.62188,6.45228 1.46332,7.26394 -0.19928,1.02008 -0.0715,1.35429 0.51774,1.35429 0.65413,0 0.72487,-0.38303 0.43174,-2.33777 -0.47713,-3.18174 -3.22899,-12.53468 -5.93416,-20.16884 l -2.23345,-6.30292 -0.47167,-9.84941 c -1.49779,-31.2765 -5.5763,-71.41664 -10.60812,-104.40377 -2.59436,-17.007789 -3.20011,-18.899369 -6.38937,-19.951921 -1.50097,-0.495367 -1.70285,-0.761798 -1.70285,-2.247444 0,-2.411894 -0.8922,-2.086317 -1.11682,0.407544 -0.10368,1.15115 -0.18851,-1.785206 -0.18851,-6.525235 0,-4.74003 0.0848,-7.676386 0.18851,-6.525236 0.24916,2.766311 1.11682,2.696444 1.11682,-0.08993 0,-1.750417 0.19516,-2.244873 0.98494,-2.49554 0.54172,-0.171937 0.98495,-0.495263 0.98495,-0.718505 0,-0.223242 0.55961,-0.546352 1.24359,-0.718017 1.45344,-0.364793 5.26415,-3.657565 4.90514,-4.238448 -0.13487,-0.218234 -0.0102,-0.475141 0.27713,-0.570907 0.2873,-0.09577 0.57193,-0.502517 0.63251,-0.903885 0.0606,-0.401374 0.27994,-1.001503 0.48746,-1.333625 0.68956,-1.103563 1.01189,-5.552025 0.40229,-5.552025 -0.30858,0 -0.55997,0.720238 -0.55863,1.600529 0.004,2.860476 -1.55001,6.184702 -3.9221,8.387951 -1.83147,1.701107 -2.63733,2.104445 -4.45234,2.228405 l -2.21611,0.151356 V 47.119219 18.352383 l 6.89459,-0.315365 c 3.79202,-0.17345 10.37493,-0.316175 14.62868,-0.317166 l 7.7341,-0.0018 0.26369,1.60053 c 0.14503,0.880291 0.32128,2.37617 0.39167,3.324176 0.12589,1.695568 0.16408,1.723647 2.34409,1.723647 h 2.21612 l 0.14553,-3.320419 c 0.13015,-2.969414 0.2603,-3.344223 1.23118,-3.54559 2.05657,-0.426547 28.91033,-0.607543 28.97179,-0.195272 0.0339,0.227111 0.11696,0.63454 0.18468,0.905399 0.0677,0.270859 0.15081,0.714082 0.18467,0.984941 0.0338,0.270859 0.24479,0.492471 0.46874,0.492471 0.22395,0 0.3096,-0.664836 0.19034,-1.477412 -0.17914,-1.220538 -0.046,-1.477412 0.76614,-1.477412 0.86937,0 1.02113,0.441127 1.31313,3.816647 1.21477,14.043023 1.99133,21.872729 3.50452,35.334766 0.94381,8.396623 1.852,16.208438 2.0182,17.359588 0.27464,1.902281 0.20652,2.093 -0.74761,2.093 -0.79145,0 -1.04978,-0.302963 -1.04978,-1.231176 0,-0.677148 -0.24931,-1.231177 -0.55403,-1.231177 -0.35786,0 -0.44505,0.544909 -0.24624,1.538971 0.16929,0.846434 0.3078,1.758031 0.3078,2.025777 0,0.267742 0.66483,0.38923 1.47741,0.269968 l 1.47741,-0.216835 -0.004,8.656057 c -0.0117,26.743733 -2.80279,85.894633 -7.65851,162.306883 -0.68849,10.83436 -2.54322,42.70091 -4.12163,70.81456 -1.57841,28.11366 -3.00501,51.2509 -3.17022,51.41611 -0.58136,0.58136 -7.01949,1.59189 -12.29289,1.9295 l -5.33211,0.34136 0.29569,-5.12417 c 0.2669,-4.62269 0.61338,-14.34212 2.23685,-62.74324 2.66408,-79.42544 4.42946,-159.73412 4.43311,-201.66671 0.002,-21.932971 -0.38467,-37.428061 -0.93374,-37.427418 -0.16074,1.88e-4 -0.30309,22.105963 -0.31633,49.123938 -0.0132,27.01798 -0.29637,60.09338 -0.62918,73.5009 -1.31067,52.80131 -2.858,104.36526 -4.52946,150.94223 -0.5346,14.89724 -0.97226,28.47096 -0.97259,30.16383 l -5.8e-4,3.07794 -1.60053,-0.0636 c -0.88029,-0.035 -3.18478,-0.26286 -5.1211,-0.50646 z M 170.74263,89.864993 c 0,-0.406289 -0.22161,-0.738706 -0.49247,-0.738706 -0.27086,0 -0.49247,0.332417 -0.49247,0.738706 0,0.406288 0.22161,0.738705 0.49247,0.738705 0.27086,0 0.49247,-0.332417 0.49247,-0.738705 z m 0,-3.201059 c 0,-1.083436 -0.22161,-1.969883 -0.49247,-1.969883 -0.27086,0 -0.49247,0.886447 -0.49247,1.969883 0,1.083435 0.22161,1.969882 0.49247,1.969882 0.27086,0 0.49247,-0.886447 0.49247,-1.969882 z m 0,-3.201059 c 0,-0.406288 -0.22161,-0.738706 -0.49247,-0.738706 -0.27086,0 -0.49247,0.332418 -0.49247,0.738706 0,0.406288 0.22161,0.738706 0.49247,0.738706 0.27086,0 0.49247,-0.332418 0.49247,-0.738706 z m 70.4233,-11.819294 c 0,-0.406289 -0.22161,-0.738706 -0.49247,-0.738706 -0.27086,0 -0.49247,0.332417 -0.49247,0.738706 0,0.406288 0.22161,0.738705 0.49247,0.738705 0.27086,0 0.49247,-0.332417 0.49247,-0.738705 z m -0.72164,-4.982532 c -0.17801,-1.18706 -0.50447,-2.158292 -0.72546,-2.158292 -0.41758,0 -0.16564,4.123678 0.33097,5.417176 0.49331,1.284891 0.75352,-0.864704 0.39449,-3.258884 z m -0.50032,-5.482469 c -0.35685,-2.883003 -0.54611,-3.443909 -1.00664,-2.983381 -0.44232,0.442317 0.36681,5.815087 0.87573,5.815087 0.2984,0 0.34816,-1.076548 0.13091,-2.831706 z m -58.85945,1.108059 c 0,-0.406288 -0.22162,-0.738706 -0.49247,-0.738706 -0.27086,0 -0.49248,0.332418 -0.49248,0.738706 0,0.406289 0.22162,0.738706 0.49248,0.738706 0.27085,0 0.49247,-0.332417 0.49247,-0.738706 z m 0,-4.186 c 0,-1.625153 -0.19265,-2.954823 -0.4281,-2.954823 -0.23546,0 -0.45816,1.32967 -0.49489,2.954823 -0.0383,1.695516 0.14412,2.954824 0.42809,2.954824 0.27656,0 0.4949,-1.303619 0.4949,-2.954824 z m 58.604,-0.955877 c 0,-0.254874 -0.22161,-0.60037 -0.49247,-0.76777 -0.27086,-0.1674 -0.49247,0.04113 -0.49247,0.463407 0,0.422273 0.22161,0.76777 0.49247,0.76777 0.27086,0 0.49247,-0.208533 0.49247,-0.463407 z m -0.63958,-4.266911 c -0.2675,-2.591868 -0.59403,-3.584751 -1.02218,-3.108173 -0.40487,0.450669 0.33988,5.868608 0.8067,5.868608 0.31324,0 0.39383,-1.032418 0.21548,-2.760435 z m -57.96442,-1.17933 c 0,-1.651205 -0.21834,-2.954823 -0.4949,-2.954823 -0.28397,0 -0.46642,1.259307 -0.42809,2.954823 0.0367,1.625153 0.25943,2.954824 0.49489,2.954824 0.23545,0 0.4281,-1.329671 0.4281,-2.954824 z m 57.30872,-5.294058 c -0.33645,-2.987145 -0.48491,-3.431793 -0.9804,-2.936305 -0.46246,0.462465 0.30835,5.76801 0.838,5.76801 0.2703,0 0.32926,-1.172641 0.1424,-2.831705 z m -57.30872,-1.108059 c 0,-1.651205 -0.21834,-2.954824 -0.4949,-2.954824 -0.28397,0 -0.46642,1.259308 -0.42809,2.954824 0.0367,1.625153 0.25943,2.954823 0.49489,2.954823 0.23545,0 0.4281,-1.32967 0.4281,-2.954823 z m 56.81221,-3.201059 c -0.15591,-0.406288 -0.47442,-0.738706 -0.7078,-0.738706 -0.23338,0 -0.29676,0.332418 -0.14086,0.738706 0.15591,0.406288 0.47442,0.738706 0.7078,0.738706 0.23338,0 0.29676,-0.332418 0.14086,-0.738706 z m -56.81221,-0.984941 c 0,-0.406289 -0.22162,-0.738706 -0.49247,-0.738706 -0.27086,0 -0.49248,0.332417 -0.49248,0.738706 0,0.406288 0.22162,0.738706 0.49248,0.738706 0.27085,0 0.49247,-0.332418 0.49247,-0.738706 z m 56.3971,-3.077942 c -0.34916,-2.820853 -0.54843,-3.441597 -0.96959,-3.020437 -0.41955,0.419551 0.36002,5.852143 0.83978,5.852143 0.29706,0 0.34658,-1.080402 0.12981,-2.831706 z m -56.3971,-0.123117 c 0,-1.083436 -0.22162,-1.969883 -0.49247,-1.969883 -0.27086,0 -0.49248,0.886447 -0.49248,1.969883 0,1.083435 0.22162,1.969882 0.49248,1.969882 0.27085,0 0.49247,-0.886447 0.49247,-1.969882 z m 0,-3.201059 c 0,-0.406288 -0.22162,-0.738706 -0.49247,-0.738706 -0.27086,0 -0.49248,0.332418 -0.49248,0.738706 0,0.406288 0.22162,0.738706 0.49248,0.738706 0.27085,0 0.49247,-0.332418 0.49247,-0.738706 z m 55.95957,-1.354294 c -0.16332,-0.609433 -0.29998,-1.939103 -0.30367,-2.954824 -0.004,-1.01572 -0.22834,-1.846765 -0.4992,-1.846765 -0.27086,0 -0.49247,0.637134 -0.49247,1.415853 0,2.196977 0.56424,4.493795 1.10394,4.493795 0.26859,0 0.35472,-0.498627 0.1914,-1.108059 z m -55.95957,-2.831706 c 0,-1.641569 -0.21888,-2.954824 -0.49247,-2.954824 -0.2736,0 -0.49248,1.313255 -0.49248,2.954824 0,1.641568 0.21888,2.954823 0.49248,2.954823 0.27359,0 0.49247,-1.313255 0.49247,-2.954823 z m 55.1567,-3.201059 c 0,-0.406288 -0.22161,-0.738706 -0.49247,-0.738706 -0.27086,0 -0.49247,0.332418 -0.49247,0.738706 0,0.406288 0.22161,0.738706 0.49247,0.738706 0.27086,0 0.49247,-0.332418 0.49247,-0.738706 z m -55.1567,-3.201059 c 0,-1.641568 -0.21888,-2.954823 -0.49247,-2.954823 -0.2736,0 -0.49248,1.313255 -0.49248,2.954823 0,1.641569 0.21888,2.954824 0.49248,2.954824 0.27359,0 0.49247,-1.313255 0.49247,-2.954824 z m 54.84637,-0.861823 c -0.33645,-2.987145 -0.48491,-3.431793 -0.9804,-2.936305 -0.46247,0.462465 0.30835,5.76801 0.838,5.76801 0.27029,0 0.32926,-1.172641 0.1424,-2.831705 z"
       style="fill:#ffaaaa;stroke:#ffaaaa;stroke-width:0.492471" />
    <path
       id="path164"
       d="m 188.4221,367.53935 c -0.71088,-0.19033 -0.8197,-4.08503 -1.10952,-39.70987 -0.17673,-21.72436 -0.46462,-53.8482 -0.63976,-71.38631 -0.19624,-19.65152 -0.14195,-31.88747 0.14147,-31.88747 0.25294,0 0.85008,1.05266 1.32697,2.33924 1.16748,3.14968 1.74446,22.88185 2.19958,75.22488 0.43008,49.46137 0.29829,65.76669 -0.53092,65.6877 -0.3298,-0.0314 -0.95432,-0.1521 -1.38782,-0.26817 z"
       style="fill:#ffaaaa;stroke:#ffaaaa;stroke-width:0.492471" />
    <path
       id="path166"
       d="m 230.05318,366.26377 c 0.16392,-1.96353 0.85375,-13.87501 1.53294,-26.46995 2.04241,-37.87403 4.59909,-83.00254 5.63584,-99.47906 2.13844,-33.98533 4.22421,-71.55768 5.70012,-102.68012 1.10803,-23.36493 1.42899,-61.566275 0.76392,-90.923598 -0.31523,-13.914704 -0.69958,-26.352118 -0.85411,-27.638697 l -0.28097,-2.339236 h 1.69041 1.69042 l 0.65212,19.968367 c 0.88837,27.202583 0.16581,77.657154 -1.72051,120.139514 -3.1285,70.45757 -4.87335,101.23734 -10.8598,191.57107 -0.70004,10.56349 -1.43542,19.51731 -1.63416,19.89737 -0.19875,0.38006 -0.86827,0.87853 -1.48781,1.10772 -1.1241,0.41582 -1.12583,0.40922 -0.82841,-3.15338 z"
       style="fill:#ffaaaa;stroke:#ffaaaa;stroke-width:0.492471" />
    <path
       id="path168"
       d=""
       style="fill:#ffaaaa;stroke:#ffaaaa;stroke-width:0.492471" />
    <path
       id="path170"
       d="m 187.33779,221.97023 c -1.15676,-3.59033 -1.42828,-5.83855 -2.33439,-19.32947 -1.15121,-17.14 -4.00685,-54.90907 -5.18597,-68.59017 -0.42668,-4.95067 -0.69642,-9.23932 -0.59942,-9.53032 0.22676,-0.68028 2.45962,16.31878 4.34242,33.05943 1.71053,15.20885 3.67795,37.45049 4.39981,49.73953 0.27842,4.74003 0.63951,10.88976 0.80241,13.66606 0.1629,2.7763 0.20347,5.04782 0.0902,5.04782 -0.1133,0 -0.79507,-1.82829 -1.51502,-4.06288 z"
       style="fill:#ffaaaa;stroke:#ffaaaa;stroke-width:0.492471" />
    <path
       id="path172"
       d="M 242.44227,57.997286 C 242.25395,55.502712 241.31502,46.582838 240.35576,38.175344 239.3965,29.76785 238.45462,21.503918 238.2627,19.81105 l -0.34895,-3.077941 h 2.04538 2.04538 l 0.31555,9.480059 c 0.60721,18.241871 0.96304,36.319707 0.7149,36.319707 -0.13767,0 -0.40438,-2.041015 -0.59269,-4.535589 z"
       style="fill:#ffaaaa;stroke:#ffaaaa;stroke-width:0.492471" />
    <path
       id="path174"
       d="m 122.97299,392.42946 c -2.03145,-0.23287 -4.857,-0.66305 -6.279,-0.95596 -2.43464,-0.5015 -2.58547,-0.61984 -2.58547,-2.02845 0,-1.31346 0.13764,-1.46134 1.12863,-1.21262 0.62075,0.1558 2.44905,0.40001 4.06288,0.54268 l 2.93425,0.25942 -3.84694,-0.92999 c -2.11582,-0.51148 -3.98999,-1.07302 -4.16482,-1.24785 -0.17482,-0.17482 -0.71204,-7.34511 -1.19381,-15.93396 -1.04452,-18.62128 -5.71099,-100.01321 -6.07644,-105.98444 -0.14091,-2.3023 -0.799,-13.05047 -1.46243,-23.88482 -4.87325,-79.58374 -7.123384,-127.97806 -7.13554,-153.466154 -0.0058,-12.201038 0.126882,-13.167526 1.76494,-12.854389 1.66172,0.317659 1.59077,-1.245103 -0.0755,-1.663314 -0.838662,-0.210487 -1.168307,-0.556753 -0.984941,-1.034602 0.151585,-0.395021 0.308813,-1.53114 0.349396,-2.52471 0.06074,-1.487093 0.110061,-1.567041 0.278947,-0.452191 0.340538,2.24799 0.968928,1.528284 1.277688,-1.463381 0.18257,-1.768881 0.0958,-2.938188 -0.23306,-3.141445 -0.35911,-0.221944 -0.34401,-0.383722 0.048,-0.514398 0.78118,-0.260396 1.34812,-5.838247 0.5934,-5.838247 -0.30875,0 -0.56137,-0.554029 -0.56137,-1.231176 0,-0.720535 0.28285,-1.231177 0.68196,-1.231177 0.86566,0 1.6741,-5.534685 0.84864,-5.80984 -0.36024,-0.12008 -0.32507,-0.390749 0.10691,-0.822727 0.35407,-0.354075 0.68893,-1.832146 0.74412,-3.284603 0.0724,-1.905472 -0.0374,-2.435132 -0.39439,-1.902124 -0.38379,0.573035 -0.48772,0.407364 -0.46341,-0.738706 0.0172,-0.812576 0.14312,-1.200397 0.27973,-0.861824 0.346,0.857478 1.15126,0.771362 1.15126,-0.123117 0,-0.406288 -0.27701,-0.7421 -0.61559,-0.746247 -0.47091,-0.0058 -0.46442,-0.103417 0.0276,-0.415499 0.84172,-0.533846 1.43992,-5.979078 0.65685,-5.979078 -0.33439,0 -0.5295,-0.746703 -0.48255,-1.846765 0.0776,-1.818253 0.0819,-1.822054 0.27743,-0.246235 0.24113,1.942998 1.06968,2.143144 1.01936,0.246235 -0.0198,-0.744861 0.12347,-2.074532 0.3183,-2.954823 0.21756,-0.98301 0.16235,-1.60053 -0.14312,-1.60053 -0.27354,0 -0.60864,0.498627 -0.74467,1.108059 -0.38139,1.708706 0.23157,-8.347538 0.66499,-10.909786 0.324,-1.915438 0.39184,-2.017506 0.44085,-0.663273 0.0319,0.880292 0.29347,1.60053 0.58135,1.60053 0.28789,0 0.48398,-0.387821 0.43576,-0.861824 -0.0482,-0.474003 -0.0621,-1.11461 -0.031,-1.423571 0.0416,-0.41215 3.95837,-0.50439 14.70771,-0.346367 8.05805,0.118459 15.37123,0.325884 16.25153,0.460945 1.48436,0.227742 1.60052,0.382455 1.60052,2.131573 0,1.037305 0.13851,2.578545 0.3078,3.424979 0.28845,1.442235 0.44322,1.538971 2.46235,1.538971 h 2.15456 l 0.007,-2.339236 c 0.0131,-4.576913 -0.0112,-4.555353 5.14335,-4.555353 2.4985,0 7.84674,0.143052 11.88498,0.317893 l 7.34224,0.317893 0.0942,38.411858 0.0942,38.41186 -1.14507,1.529717 c -1.53246,2.047239 -1.45619,1.710591 -3.69372,16.303839 -5.22486,34.07679 -9.29194,73.49739 -10.86216,105.28257 -0.49259,9.97118 -0.63292,11.0074 -1.98875,14.6846 -1.64088,4.45031 -1.6251,4.38166 -1.00733,4.38166 0.24828,0 0.91494,-1.27427 1.48145,-2.83171 l 1.03002,-2.83171 -0.2439,6.89459 c -0.59566,16.83787 -1.34014,102.66074 -1.07537,123.96547 l 0.29208,23.50146 -2.56838,0.76732 c -3.21718,0.96115 -10.28436,2.21552 -12.48231,2.21552 -0.91253,0 -1.65914,0.22423 -1.65914,0.49829 0,0.28901 0.77564,0.4002 1.84676,0.26474 1.01572,-0.12846 3.0349,-0.36359 4.48706,-0.52253 2.94665,-0.3225 8.2263,-1.5846 9.54836,-2.28253 0.72807,-0.38437 0.86182,-0.23138 0.86182,0.98581 0,1.3819 -0.15599,1.48207 -3.81665,2.45094 -4.85608,1.28526 -9.15451,2.05257 -11.49837,2.05257 h -1.83742 l -0.27527,-3.57041 c -0.1514,-1.96372 -0.5103,-12.65649 -0.79756,-23.7617 -0.28725,-11.10522 -0.73515,-27.8369 -0.99531,-37.18153 -2.62953,-94.44687 -3.93322,-209.45528 -2.85264,-251.652479 0.25747,-10.054014 0.20891,-12.485101 -0.21148,-10.588118 -0.785,3.542287 -0.76655,128.763917 0.0245,165.962587 1.20435,56.63728 2.41908,104.91737 3.56149,141.55456 0.38359,12.30164 0.35575,15.57197 -0.13554,15.91967 -0.49386,0.34952 -0.49441,0.48785 -0.003,0.68736 0.33857,0.13739 0.61558,0.89616 0.61558,1.68616 v 1.43637 l -3.07794,-0.0639 c -1.69287,-0.0351 -4.74003,-0.25442 -6.77147,-0.48729 z m 8.372,-2.89611 c 0,-0.27243 -1.29274,-0.49247 -2.89327,-0.49247 -1.59129,0 -3.5858,-0.13851 -4.43223,-0.30779 -0.9602,-0.19204 -1.53897,-0.10868 -1.53897,0.22166 0,0.47268 1.08115,0.61824 7.26394,0.97795 0.88029,0.0512 1.60053,-0.12849 1.60053,-0.39935 z M 100.49743,71.643581 c 0.15591,-0.406289 0.0925,-0.738706 -0.14086,-0.738706 -0.23338,0 -0.551885,0.332417 -0.707792,0.738706 -0.155908,0.406288 -0.09252,0.738705 0.140857,0.738705 0.233375,0 0.551885,-0.332417 0.707795,-0.738705 z m 1.79179,-14.774118 c 0,-0.406289 -0.22161,-0.738706 -0.49247,-0.738706 -0.27086,0 -0.49247,0.332417 -0.49247,0.738706 0,0.406288 0.22161,0.738706 0.49247,0.738706 0.27086,0 0.49247,-0.332418 0.49247,-0.738706 z m 2.95482,-29.548236 c 0,-0.406288 -0.22161,-0.738706 -0.49247,-0.738706 -0.27085,0 -0.49247,0.332418 -0.49247,0.738706 0,0.406288 0.22162,0.738706 0.49247,0.738706 0.27086,0 0.49247,-0.332418 0.49247,-0.738706 z m 0.49434,-4.449191 c 0.28447,-2.584448 -0.0612,-3.545675 -0.68788,-1.912649 -0.41632,1.084901 -0.37618,5.372069 0.0463,4.949552 0.1899,-0.189898 0.47859,-1.556504 0.64154,-3.036903 z"
       style="fill:#ffaaaa;stroke:#ffaaaa;stroke-width:0.492471" />
    <path
       id="path176"
       d="m 99.112018,46.773816 c 0.130896,-8.261195 0.378779,-18.399933 0.55085,-22.53053 l 0.312858,-7.510177 h 1.895454 c 2.33063,0 2.29196,-0.726434 0.66244,12.44269 -0.67816,5.480597 -1.77899,15.061793 -2.4463,21.291546 l -1.213294,11.326824 z"
       style="fill:#ffaaaa;stroke:#ffaaaa;stroke-width:0.492471" />
    <path
       id="path178"
       d="m 111.49508,390.17343 c -0.48939,-0.12683 -1.09882,-0.78038 -1.3543,-1.45234 -0.60045,-1.57933 -0.59015,-2.27835 0.028,-1.89633 0.27086,0.1674 0.49247,0.0881 0.49247,-0.17613 0,-0.26427 -0.1971,-0.55436 -0.43801,-0.64465 -0.44066,-0.16515 -2.72281,-31.38825 -5.46533,-74.77345 C 96.604202,182.24349 93.333886,82.310957 95.563576,30.276051 l 0.569762,-13.296707 1.354295,-0.155828 1.354294,-0.155829 -0.0128,4.588064 c -0.007,2.523435 -0.229442,11.790447 -0.494225,20.593359 -0.647801,21.53662 -0.653745,62.68832 -0.01142,79.04153 1.284015,32.69009 2.762028,60.57904 6.185498,116.71553 0.94154,15.43895 2.49052,41.58914 3.44217,58.11153 2.04871,35.56913 5.17173,90.47889 5.17214,90.93784 1.5e-4,0.17779 -0.47759,0.19828 -1.06167,0.0456 -0.7276,-0.19027 -0.95102,-0.0982 -0.70964,0.29234 0.19377,0.31351 0.67165,0.57004 1.06195,0.57004 0.46018,0 0.70964,0.51936 0.70964,1.47741 0,0.81258 -0.1662,1.4517 -0.36935,1.42028 -0.20314,-0.0314 -0.76976,-0.1609 -1.25914,-0.28773 z"
       style="fill:#ffaaaa;stroke:#ffaaaa;stroke-width:0.492471" />
    <path
       id="path180"
       d="m 153.04503,223.81699 c -0.0385,-2.86732 1.33287,-24.65539 2.20075,-34.96541 1.17379,-13.94398 3.04591,-31.76896 4.93954,-47.03094 2.62813,-21.18172 2.71336,-19.7009 0.46769,8.12577 -0.67762,8.39662 -2.11208,27.34443 -3.18769,42.10623 -1.78051,24.43618 -2.06481,27.14835 -3.17474,30.28694 -1.18825,3.36003 -1.21978,3.39743 -1.24555,1.47741 z"
       style="fill:#ffaaaa;stroke:#ffaaaa;stroke-width:0.492471" />
    <path
       id="path182"
       d=""
       style="fill:#ffaaaa;stroke:#ffaaaa;stroke-width:0.492471" />
    <path
       id="path184"
       d=""
       style="fill:#ffaaaa;stroke:#ffaaaa;stroke-width:0.492471" />
    <path
       id="path186"
       d="m 151.71164,321.99886 c 0.38488,-75.68231 0.75587,-92.14802 2.15543,-95.66532 0.55694,-1.39967 1.06756,-2.1215 1.21931,-1.72365 0.40115,1.05173 -0.85555,158.73217 -1.27043,159.40346 -0.20056,0.3245 -0.82896,0.8385 -1.39647,1.14222 l -1.03183,0.55221 z"
       style="fill:#ffaaaa;stroke:#ffaaaa;stroke-width:0.492471" />
    <path
       id="path188"
       d="m 208.4091,383.13613 c -5.7912,-0.39748 -10.4798,-1.24364 -15.53973,-2.80448 l -2.04585,-0.63108 -0.0206,-0.79854 c -0.0113,-0.43919 -0.001,-0.87689 0.022,-0.97265 0.0421,-0.17197 0.16066,-3.13431 0.16864,-4.2129 l 0.004,-0.5565 1.00116,0.34633 c 2.77222,0.959 7.46169,1.96187 11.44804,2.44824 2.91617,0.3558 12.17427,0.30281 15.49621,-0.0887 2.29145,-0.27006 6.33776,-0.90261 8.07506,-1.26235 l 0.58813,-0.12179 -0.12106,3.11675 c -0.0666,1.71422 -0.15945,3.25143 -0.20639,3.41604 -0.0469,0.1646 -0.37464,0.38124 -0.72824,0.48142 -1.19815,0.33945 -5.15858,1.02344 -7.52045,1.29884 -2.29052,0.26708 -8.70131,0.47312 -10.62099,0.34137 z"
       style="fill:#ffaaaa;stroke:#ffaaaa;stroke-width:0.174115" />
    <path
       id="path190"
       d="m 206.06327,375.5752 c -6.3013,-0.46499 -13.21893,-2.07932 -17.52138,-4.08889 -0.77521,-0.36208 -0.83694,-0.41999 -0.35299,-0.33121 0.76263,0.13991 0.68008,-0.29071 -0.10081,-0.52586 -0.51586,-0.15534 -0.53909,-0.20467 -0.615,-1.30586 -0.0434,-0.62943 -0.069,-1.15965 -0.057,-1.17827 0.012,-0.0186 0.73372,0.23354 1.60376,0.56034 3.84752,1.44518 9.85787,2.88492 14.47079,3.46636 6.64295,0.83733 13.57877,0.72062 20.50174,-0.34498 2.30152,-0.35426 6.54408,-1.25461 8.22692,-1.74591 0.3542,-0.10341 0.39176,-0.0551 0.39176,0.504 0,1.08418 -0.24572,1.46369 -1.03387,1.59685 -0.46447,0.0785 -0.70728,0.21038 -0.70728,0.38424 0,0.263 0.18652,0.25414 1.30586,-0.062 0.24127,-0.0682 0.29475,-0.0416 0.17411,0.0864 -0.0958,0.10163 -0.50711,0.23797 -0.9141,0.303 -0.61593,0.0984 -0.73999,0.0707 -0.73999,-0.16521 0,-0.15588 -0.0433,-0.28342 -0.0962,-0.28342 -0.18,0 -2.60137,0.54494 -2.86373,0.6445 -0.24685,0.0937 -0.4059,0.11652 -1.34939,0.19393 -0.21787,0.0179 -0.39176,0.14807 -0.39176,0.29331 0,0.14365 0.0306,0.26118 0.0679,0.26118 0.0853,0 3.36427,-0.66151 3.89322,-0.78543 0.21546,-0.0505 0.39175,-0.0237 0.39175,0.0595 0,0.35015 -7.62394,1.74478 -12.01391,2.19769 -3.29987,0.34044 -9.45237,0.47368 -12.27036,0.26573 z m 0.25645,-0.77988 c 0,-0.18863 -0.19346,-0.26118 -0.69646,-0.26118 -0.74511,0 -0.95436,0.27434 -0.3047,0.39947 0.77643,0.14955 1.00116,0.1185 1.00116,-0.13829 z m 1.74115,0.10643 c 0,-0.19174 -1.1614,-0.42363 -1.39588,-0.27872 -0.39167,0.24207 -0.12129,0.43346 0.61236,0.43346 0.43094,0 0.78352,-0.0696 0.78352,-0.15474 z m 0.69646,-0.0194 c 0,-0.0958 -0.11753,-0.17411 -0.26117,-0.17411 -0.14365,0 -0.26118,0.0784 -0.26118,0.17411 0,0.0958 0.11753,0.17412 0.26118,0.17412 0.14364,0 0.26117,-0.0784 0.26117,-0.17412 z m 2.08937,0 c 0,-0.0958 -0.43093,-0.17411 -0.95763,-0.17411 -0.52669,0 -0.95763,0.0784 -0.95763,0.17411 0,0.0958 0.43094,0.17412 0.95763,0.17412 0.5267,0 0.95763,-0.0784 0.95763,-0.17412 z m 3.65641,-0.11835 c 0,-0.21335 -0.11951,-0.2495 -0.54411,-0.16458 -0.29926,0.0598 -1.00442,0.10882 -1.56703,0.10882 -0.56261,0 -1.02292,0.0752 -1.02292,0.16707 0,0.0945 0.6807,0.166 1.56703,0.16459 1.30695,-0.002 1.56703,-0.0479 1.56703,-0.2759 z m 2.54897,0.11835 c 0.58527,0 0.75921,-0.0649 0.75921,-0.28342 0,-0.23752 -0.11985,-0.26262 -0.73999,-0.15493 -0.40699,0.0707 -1.11215,0.116 -1.56703,0.10071 -0.6705,-0.0225 -0.82704,0.0277 -0.82704,0.26565 0,0.24892 0.12255,0.27664 0.80781,0.18272 0.4443,-0.0609 1.14947,-0.11073 1.56704,-0.11073 z m -12.29939,-0.27432 c 0,-0.21225 -0.16744,-0.26625 -0.73999,-0.23867 -0.40699,0.0196 -0.85751,-0.007 -1.00116,-0.0602 -0.14364,-0.0527 -0.75615,-0.14571 -1.36114,-0.20659 -0.60499,-0.0609 -1.21221,-0.15376 -1.34939,-0.2064 -0.15271,-0.0586 -0.24941,0.0128 -0.24941,0.18409 0,0.15389 0.1567,0.29351 0.34823,0.31027 0.83731,0.0733 1.36622,0.14096 2.26349,0.28969 1.5575,0.25818 2.08937,0.23981 2.08937,-0.0721 z m 14.20459,0.10021 c 0.23157,0 0.42104,-0.0784 0.42104,-0.17412 0,-0.0958 -0.3134,-0.17411 -0.69646,-0.17411 -0.5236,0 -0.69646,0.0694 -0.69646,0.2798 0,0.18361 0.0947,0.24347 0.27542,0.17411 0.15147,-0.0581 0.46488,-0.10568 0.69646,-0.10568 z m 2.74915,-0.28591 c 0.49116,-0.0485 1.04972,-0.11148 1.24124,-0.14005 0.19153,-0.0286 0.5637,-0.0619 0.82705,-0.0742 0.31504,-0.0146 0.47881,-0.11818 0.47881,-0.30277 0,-0.23136 -0.11449,-0.25763 -0.65293,-0.14982 -0.86267,0.17273 -0.94034,0.18284 -2.61172,0.34014 -1.09227,0.1028 -1.43644,0.19702 -1.43644,0.39326 0,0.20227 0.1363,0.23249 0.63049,0.13978 0.34677,-0.0651 1.03234,-0.15792 1.5235,-0.20638 z m -21.82895,-0.40266 c 0,-0.18554 -1.18014,-0.45282 -1.33141,-0.30155 -0.053,0.053 -0.0447,0.17994 0.0184,0.28208 0.1424,0.2304 1.31302,0.24776 1.31302,0.0195 z m -1.56703,-0.26906 c 0,-0.16162 -0.18252,-0.27253 -0.47882,-0.29096 -0.72436,-0.0451 -0.97617,-0.0844 -1.26233,-0.19741 -0.14364,-0.0567 -0.80963,-0.23287 -1.47997,-0.39147 -1.40318,-0.33198 -2.67671,-0.70247 -3.6148,-1.0516 -0.36017,-0.13404 -0.71275,-0.2319 -0.78352,-0.21746 -0.0708,0.0144 -0.42593,-0.10587 -0.78926,-0.26735 -0.63225,-0.28101 -1.10062,-0.2485 -0.90809,0.063 0.0883,0.14284 2.17281,0.8842 2.70043,0.9604 0.14365,0.0207 0.48174,0.12716 0.75132,0.23646 0.26959,0.10931 0.60773,0.19875 0.75144,0.19875 0.1437,0 0.40791,0.0785 0.58712,0.17438 0.17921,0.0959 0.54623,0.20314 0.8156,0.23828 0.26937,0.0351 0.60729,0.11294 0.75093,0.17289 0.2763,0.11531 2.37296,0.5861 2.74231,0.61577 0.1197,0.01 0.21764,-0.10005 0.21764,-0.24369 z m 27.2347,0.15548 c 0.41848,-0.16058 0.32897,-0.41665 -0.14563,-0.41665 -0.53308,0 -0.97187,0.16563 -0.97187,0.36685 0,0.17698 0.7043,0.20837 1.1175,0.0498 z"
       style="fill:#ffaaaa;stroke:#ffaaaa;stroke-width:0.174115" />
    <path
       id="path192"
       d="m 188.25533,378.75115 -0.73999,-0.28433 v -3.34373 -3.34372 l 1.13817,0.45157 c 0.88423,0.35083 1.11181,0.51246 1.02006,0.72446 -0.23988,0.55426 -0.27722,1.24062 -0.0804,1.47778 0.1451,0.17484 0.14853,0.27747 0.0121,0.3618 -0.10477,0.0648 -0.18561,0.48307 -0.17964,0.92961 0.006,0.44653 -0.0375,1.05944 -0.0966,1.36202 -0.0591,0.30258 -0.0328,0.68357 0.0585,0.84665 0.10832,0.19354 0.0993,0.44038 -0.0261,0.71083 -0.22239,0.47986 -0.15329,0.47317 -1.10611,0.10706 z"
       style="fill:#ffaaaa;stroke:#ffaaaa;stroke-width:0.174115" />
    <path
       id="path194"
       d="m 231.28719,378.93054 c 0.0574,-0.6464 0.14983,-2.11507 0.20535,-3.2637 0.0555,-1.14863 0.11441,-2.09871 0.13089,-2.11127 0.0165,-0.0126 0.20546,-0.0768 0.41993,-0.1427 0.37004,-0.11373 0.38562,-0.0815 0.30506,0.6313 -0.0467,0.41313 -0.16546,1.87844 -0.2639,3.25623 -0.0984,1.3778 -0.22076,2.57266 -0.2718,2.65525 -0.0511,0.0826 -0.21366,0.15016 -0.36138,0.15016 -0.2258,0 -0.25194,-0.18715 -0.16415,-1.17527 z"
       style="fill:#ffaaaa;stroke:#ffaaaa;stroke-width:0.174115" />
    <path
       id="path196"
       d="m 151.64772,387.68427 v -1.4755 l 0.56588,-0.28994 c 0.31123,-0.15947 0.62343,-0.37694 0.69379,-0.48329 0.0704,-0.10634 0.12912,-0.12684 0.13058,-0.0456 0.001,0.0813 0.2769,-0.014 0.61207,-0.21177 l 0.6094,-0.35956 v 1.71676 1.71676 l -1.13357,0.4538 c -0.62347,0.24959 -1.21111,0.4538 -1.30586,0.4538 -0.10008,0 -0.17229,-0.61837 -0.17229,-1.4755 z"
       style="fill:#ffaaaa;stroke:#ffaaaa;stroke-width:0.174115" />
    <path
       id="path198"
       d="m 200.72262,13.816619 c -0.0241,-9.3791049 0.0173,-10.098258 0.58092,-10.098258 1.73991,0 1.70878,-0.164436 1.70468,9.004161 -0.002,4.71978 -0.10096,9.169056 -0.21968,9.887278 -0.18542,1.121811 -0.34439,1.305805 -1.12791,1.305468 l -0.91207,-3.92e-4 z"
       style="fill:#ffaaaa;stroke:#ffaaaa;stroke-width:0.348229" />
    <path
       id="path200"
       d="m 139.80206,18.865373 c -0.13851,-2.586132 -0.13855,-6.968345 -8e-5,-9.7382511 0.21822,-4.3652733 0.33326,-5.0620613 0.86357,-5.2303728 1.56087,-0.4954031 1.58049,-0.3722198 1.58049,9.9234299 v 9.746278 l -1.09607,4.87e-4 -1.09607,4.87e-4 z"
       style="fill:#ffaaaa;stroke:#ffaaaa;stroke-width:0.348229" />
    <path
       id="path202"
       d="m 153.81263,14.520985 c -1.62692,-1.396275 -3.09422,-2.772093 -3.26065,-3.057375 -0.22633,-0.387929 0.4321,-1.244101 2.61172,-3.3961199 L 156.07803,5.1900634 177.92942,4.9709332 199.7808,4.751803 v 5.703318 5.703317 l -2.17643,0.213808 c -1.19704,0.117595 -10.87432,0.320371 -21.50506,0.450614 l -19.32864,0.236806 z m 4.3706,-1.558719 c 2.09459,-2.094592 -0.23972,-5.5020047 -2.98908,-4.3631823 -1.21761,0.5043506 -1.72784,1.2862796 -1.72784,2.6479273 0,2.334775 3.00476,3.427421 4.71692,1.715255 z"
       style="fill:#ffccaa;stroke:#ffccaa;stroke-width:0.348229" />
    <path
       id="path204"
       d="m 204.30779,10.431472 v -5.90906 l 8.79278,-0.2240582 c 4.83604,-0.123232 14.07253,-0.3280802 20.52555,-0.4552182 l 11.73275,-0.2311601 0.18278,0.8367087 c 0.10052,0.4601898 0.22704,3.1089049 0.28115,5.8860338 l 0.0984,5.049325 -7.83516,0.218978 c -4.30934,0.120439 -13.67236,0.335649 -20.8067,0.478246 l -12.97154,0.259266 z"
       style="fill:#ffccaa;stroke:#ffccaa;stroke-width:0.348229" />
    <path
       id="path206"
       d="m 143.14415,15.296985 c 0.11871,-0.718223 0.21757,-3.382177 0.21968,-5.9198979 l 0.004,-4.6140382 h 5.57167 c 3.06441,0 5.57167,0.1138424 5.57167,0.2529831 0,0.1391406 -1.11651,1.3769948 -2.48114,2.7507871 -1.88817,1.9008581 -2.48113,2.7303579 -2.48113,3.4708819 0,0.983234 0.20075,1.212738 3.55079,4.059284 l 1.53684,1.30586 h -5.85403 -5.85403 z"
       style="fill:#ffccaa;stroke:#ffccaa;stroke-width:0.348229" />
    <path
       id="path208"
       d="m 116.20577,15.888465 c -5.45849,-0.129062 -12.27508,-0.25613 -15.14797,-0.282373 l -5.223441,-0.04771 0.265498,-5.8082582 c 0.146023,-3.1945415 0.331164,-5.8739241 0.411423,-5.9541835 0.08026,-0.080259 9.63721,0.054212 21.23766,0.298826 l 21.09174,0.4447522 v 5.8575505 5.857551 l -6.35519,-0.06575 c -3.49535,-0.03616 -10.82122,-0.171343 -16.27972,-0.300405 z"
       style="fill:#ffccaa;stroke:#ffccaa;stroke-width:0.348229" />
  </g>
</svg>
