<?xml version="1.0" encoding="UTF-8" standalone="no"?>
<svg
   xmlns:dc="http://purl.org/dc/elements/1.1/"
   xmlns:cc="http://creativecommons.org/ns#"
   xmlns:rdf="http://www.w3.org/1999/02/22-rdf-syntax-ns#"
   xmlns:svg="http://www.w3.org/2000/svg"
   xmlns="http://www.w3.org/2000/svg"
   xmlns:sodipodi="http://sodipodi.sourceforge.net/DTD/sodipodi-0.dtd"
   xmlns:inkscape="http://www.inkscape.org/namespaces/inkscape"
   version="1.1"
   viewBox="0 0 64 64"
   id="svg835"
   sodipodi:docname="crest_of_charon.svg"
   inkscape:version="1.1-dev (ddb55ca, 2020-02-02)">
  <metadata
     id="metadata841">
    <rdf:RDF>
      <cc:Work
         rdf:about="">
        <dc:format>image/svg+xml</dc:format>
        <dc:type
           rdf:resource="http://purl.org/dc/dcmitype/StillImage" />
      </cc:Work>
    </rdf:RDF>
  </metadata>
  <defs
     id="defs839" />
  <sodipodi:namedview
     pagecolor="#ffffff"
     bordercolor="#666666"
     borderopacity="1"
     objecttolerance="10"
     gridtolerance="10"
     guidetolerance="10"
     inkscape:pageopacity="0"
     inkscape:pageshadow="2"
     inkscape:window-width="900"
     inkscape:window-height="651"
     id="namedview837"
     showgrid="false"
     inkscape:zoom="1.3745659"
     inkscape:cx="18.833658"
     inkscape:cy="11.688783"
     inkscape:window-x="232"
     inkscape:window-y="25"
     inkscape:window-maximized="0"
     inkscape:current-layer="svg835" />
  <path
     inkscape:connector-curvature="0"
     id="path852"
     d="m 31.583741,59.534359 c -0.773914,-1.18114 -1.436229,-3.304731 -1.436229,-4.604997 0,-0.708954 0.173397,-2.811412 0.385324,-4.672123 0.696533,-6.115482 0.981676,-12.888862 0.787085,-18.696606 l -0.186579,-5.568526 0.655172,-0.429285 c 0.727838,-0.476898 1.428312,-0.334948 1.634763,0.331283 0.220989,0.713139 0.247269,7.915082 0.03667,10.049856 -0.185012,1.875455 0.279684,9.585495 0.906177,15.034882 0.460771,4.007875 0.35409,5.391502 -0.57032,7.397037 -0.910096,1.974477 -1.481372,2.273661 -2.212065,1.158479 z M 18.232913,57.52162 c -0.251724,-0.146656 -0.586091,-0.506585 -0.743039,-0.799843 -0.25056,-0.468177 -0.07578,-0.725236 1.433284,-2.10802 4.787881,-4.387223 6.938852,-11.25663 5.459895,-17.43689 -0.697595,-2.915106 -2.200784,-4.393435 -4.467317,-4.393435 h -1.039725 l -2.03277,3.489751 c -3.76105,6.456768 -4.052039,6.786859 -5.975046,6.777936 -1.8393067,-0.0085 -1.7310427,-0.307103 1.735243,-4.785423 1.671319,-2.159284 3.225847,-5.402021 3.701341,-7.720973 0.519912,-2.535576 0.984098,-9.390599 0.992138,-14.651733 0.0037,-2.409008 0.104377,-4.538068 0.223768,-4.731246 0.162783,-0.26339 0.402094,-0.286617 0.956868,-0.09287 1.141853,0.398768 1.343481,1.968704 1.372843,10.689376 0.0231,6.86231 0.06839,7.596014 0.501833,8.131297 0.549108,0.678121 2.351809,0.863762 3.018085,0.310801 0.597577,-0.495945 2.166429,-4.313829 3.057579,-7.440779 1.141162,-4.004211 1.806258,-7.669568 2.351829,-12.9609309 0.472736,-4.5849714 0.768264,-5.6380882 1.403818,-5.0025345 0.214088,0.2140906 0.256619,1.8238666 0.149258,5.6494454 -0.122204,4.354446 -0.274078,5.913683 -0.816125,8.378883 -0.366289,1.665862 -1.153685,5.387744 -1.749769,8.270847 l -1.083791,5.242008 0.448391,3.976202 c 0.746811,6.622499 0.291432,9.428116 -2.355331,14.511301 -2.250779,4.322687 -2.889753,5.274968 -4.153931,6.190736 -1.151874,0.834412 -1.646116,0.939101 -2.389329,0.506098 z M 43.636724,56.803991 C 42.7139,55.941941 40.823047,53.075172 39.692984,50.824786 37.701021,46.858021 37.222077,43.176092 37.76991,36.040921 38.075223,32.064409 38.064577,31.761548 37.569988,30.354362 37.282665,29.53687 36.968824,28.356373 36.872568,27.731036 36.776308,27.105702 36.28122,24.579225 35.772364,22.116646 35.165566,19.18007 34.757739,16.279664 34.587292,13.688568 34.444357,11.515704 34.265834,8.9082671 34.190574,7.8942645 34.044521,5.9264611 34.367145,4.6020466 34.992548,4.6020466 c 0.471266,0 0.52872,0.2754706 1.345793,6.4527474 0.987802,7.468017 1.583022,10.259684 3.129659,14.678538 1.641254,4.689184 2.02971,5.169421 3.796635,4.693638 0.59566,-0.160394 1.175427,-0.436556 1.288374,-0.61369 0.112944,-0.177138 0.165728,-2.870841 0.117295,-5.986011 -0.09994,-6.428392 0.310159,-11.709406 0.967264,-12.45572 0.246161,-0.279579 0.691982,-0.441317 1.088979,-0.395066 l 0.672187,0.07831 0.03327,3.292217 c 0.07354,7.27694 1.092168,17.234382 1.965038,19.208951 0.722911,1.635335 2.690387,5.00813 4.28597,7.347325 1.432378,2.099926 1.41592,2.243322 -0.29533,2.572908 -1.071341,0.20634 -1.481728,-0.116635 -2.354608,-1.853077 -0.36866,-0.733385 -1.666689,-3.022337 -2.884507,-5.086558 l -2.214216,-3.753128 h -1.058685 c -3.153619,0 -4.983191,3.073807 -4.983191,8.372094 0,4.485002 2.228423,9.953441 5.509953,13.521155 1.75274,1.905596 1.822986,2.030129 1.374238,2.436241 -0.760721,0.688445 -2.226646,0.544214 -3.139944,-0.308931 z"
     style="fill:#ff8080;stroke:#ffb380;fill-opacity:1;stroke-width:0.263377" />
</svg>
