<?xml version="1.0" encoding="UTF-8" standalone="no"?>
<svg
   xmlns:dc="http://purl.org/dc/elements/1.1/"
   xmlns:cc="http://creativecommons.org/ns#"
   xmlns:rdf="http://www.w3.org/1999/02/22-rdf-syntax-ns#"
   xmlns:svg="http://www.w3.org/2000/svg"
   xmlns="http://www.w3.org/2000/svg"
   xmlns:xlink="http://www.w3.org/1999/xlink"
   xmlns:sodipodi="http://sodipodi.sourceforge.net/DTD/sodipodi-0.dtd"
   xmlns:inkscape="http://www.inkscape.org/namespaces/inkscape"
   version="1.1"
   viewBox="0 0 256 256"
   id="svg178"
   sodipodi:docname="beretfull.svg"
   inkscape:version="1.0.1 (3bc2e813f5, 2020-09-07)">
  <sodipodi:namedview
     pagecolor="#ffffff"
     bordercolor="#666666"
     borderopacity="1"
     objecttolerance="10"
     gridtolerance="10"
     guidetolerance="10"
     inkscape:pageopacity="0"
     inkscape:pageshadow="2"
     inkscape:window-width="1920"
     inkscape:window-height="1017"
     id="namedview180"
     showgrid="false"
     inkscape:zoom="2.0301699"
     inkscape:cx="81.215826"
     inkscape:cy="105.01879"
     inkscape:window-x="-8"
     inkscape:window-y="-8"
     inkscape:window-maximized="1"
     inkscape:current-layer="svg178" />
  <defs
     id="defs32">
    <linearGradient
       id="linearGradient1114">
      <stop
         stop-color="#ff8080"
         offset="0"
         id="stop2" />
      <stop
         stop-color="#faa"
         offset="1"
         id="stop4" />
    </linearGradient>
    <linearGradient
       id="linearGradient1116"
       x1="135.59"
       x2="51.254"
       y1="194.71"
       y2="159.19"
       gradientUnits="userSpaceOnUse"
       xlink:href="#linearGradient1114" />
    <linearGradient
       id="linearGradient1118"
       x1="141.02"
       x2="200.68"
       y1="185.49"
       y2="168.14"
       gradientUnits="userSpaceOnUse"
       xlink:href="#linearGradient1114" />
    <linearGradient
       id="linearGradient1134"
       x1="145.9"
       x2="143.46"
       y1="358.51"
       y2="91.119"
       gradientUnits="userSpaceOnUse">
      <stop
         stop-color="#ff8080"
         offset="0"
         id="stop9" />
      <stop
         stop-color="#faa"
         offset="1"
         id="stop11" />
    </linearGradient>
    <linearGradient
       id="linearGradient1162"
       x1="97.404"
       x2="99.172"
       y1="254.67"
       y2="227.27"
       gradientUnits="userSpaceOnUse">
      <stop
         stop-color="#f55"
         offset="0"
         id="stop14" />
      <stop
         stop-color="#ff8080"
         offset=".31306"
         id="stop16" />
      <stop
         stop-color="#ff8080"
         offset=".51784"
         id="stop18" />
      <stop
         stop-color="#f55"
         offset="1"
         id="stop20" />
    </linearGradient>
    <linearGradient
       id="linearGradient1174"
       x1="156.09"
       x2="154.94"
       y1="254.67"
       y2="232.22"
       gradientUnits="userSpaceOnUse">
      <stop
         stop-color="#f55"
         offset="0"
         id="stop23" />
      <stop
         stop-color="#ff8080"
         offset=".3484"
         id="stop25" />
      <stop
         stop-color="#ff8080"
         offset=".62567"
         id="stop27" />
      <stop
         stop-color="#f55"
         offset="1"
         id="stop29" />
    </linearGradient>
  </defs>
  <style
     id="style34">svg { cursor: default; }</style>
  <metadata
     id="metadata36">
    <rdf:RDF>
      <cc:Work
         rdf:about="">
        <dc:format>image/svg+xml</dc:format>
        <dc:type
           rdf:resource="http://purl.org/dc/dcmitype/StillImage" />
        <dc:title></dc:title>
      </cc:Work>
    </rdf:RDF>
  </metadata>
  <style
     id="style156">svg { cursor: default; }</style>
  <style
     id="style158">svg { cursor: default; }</style>
  <style
     id="style160">svg { cursor: default; }</style>
  <style
     id="style162">svg { cursor: default; }</style>
  <style
     id="style164">svg { cursor: default; }</style>
  <style
     id="style166">svg { cursor: default; }</style>
  <style
     id="style168">svg { cursor: default; }</style>
  <style
     id="style170">svg { cursor: default;}</style>
  <style
     id="style172">svg { cursor: default; }</style>
  <style
     id="style174">svg { cursor: default; }</style>
  <style
     id="style176">svg { cursor: default;}</style>
  <path
     style="display:inline;opacity:1;fill:#ff8080;fill-opacity:1;stroke:#ffd5d5;stroke-width:0.634726;stroke-miterlimit:4;stroke-dasharray:none;stroke-opacity:1"
     d="m 127.16153,63.921386 c -8.69986,0.1107 -17.45513,-0.37647 -26.11091,0.694 -3.885198,0.8087 -7.743588,0.8785 -11.637158,1.18962 -9.2062,4.32778 -17.59203,10.16697 -26.10687,15.68359 -6.03646,3.88577 -11.72979,8.29716 -17.85621,12.0368 -1.2292,0.91737 -3.56105,0.27362 -3.91031,2.04535 0.78744,1.57071 3.06639,1.19814 4.51732,1.87005 8.96705,2.34719 17.49949,6.017504 26.07602,9.465354 11.83908,3.93886 24.04023,6.77335 35.860618,10.70208 0.84995,0.0502 1.59085,0.90237 0.80266,1.53769 -2.66296,1.23973 -5.608,0.51253 -8.3617,0.29208 -11.032498,-1.62718 -21.794568,-4.72561 -32.601898,-7.29145 -8.43966,-1.82386 -16.29091,-5.49708 -24.49345,-8.08864 -2.75633,-1.18702 -6.18199,-1.06089 -8.34141,-3.40858 -1.06772,-1.058564 -2.09307,-2.409934 -1.58459,-4.008294 0.21479,-1.34304 -1.23736,-1.81766 -2.27522,-1.40346 -1.45623,-0.16145 -2.94864,0.36261 -3.56509,1.79577 -1.54912,2.03498 -3.39573,4.086584 -6.00957,4.636714 -3.60362,1.7358 -5.77045,5.48637 -7.20779,9.06318 -1.33384,3.98387 1.20328,8.10388 4.49809,10.24428 1.61678,1.30342 0.9521,3.77468 1.20978,5.55396 0.13425,6.36067 -0.0556,12.76685 0.19198,19.09934 1.41516,2.00269 3.61393,3.47239 5.33556,5.26566 1.85459,1.45721 3.34354,3.68814 5.68552,4.37345 1.53355,0.47698 3.13622,0.68158 4.76962,0.65749 9.1604,0.23663 18.33507,0.41127 27.49187,0.43899 11.95973,-2.08798 23.99445,-3.46572 36.0487,-4.86742 1.673828,-0.42029 3.787548,-0.0641 5.128108,-1.28902 1.84224,-1.4726 4.4419,-0.65307 6.55914,-0.50955 13.54986,2.34712 27.2074,4.17217 40.82084,5.99395 5.83246,1.29443 11.81707,1.23239 17.75312,1.07483 5.2288,-0.11769 10.46136,-0.0825 15.65508,0.59792 9.50256,1.03326 19.08506,1.18247 28.62766,0.74169 5.65869,-0.4969 11.09052,-2.41737 16.38093,-4.38501 4.96317,-2.00108 9.57007,-5.31118 12.48264,-9.85183 1.91253,-3.16097 2.76961,-6.83674 2.60426,-10.51692 0.1171,-3.14997 0.12829,-6.78314 -2.39705,-9.0919 -2.7849,-2.61701 -6.77055,-3.57753 -9.14974,-6.6455 -0.65326,-0.69253 -1.18398,-0.98617 -1.38295,-1.91056 -0.89403,-1.80453 -1.76215,-4.51035 -4.27154,-4.32135 -4.15451,-0.33173 -8.38603,-0.0826 -12.5024,-0.40931 -4.14276,-1.91884 -6.64531,-5.93266 -9.43591,-9.37808 -2.53347,-3.223894 -4.7204,-7.000064 -8.51184,-8.914344 -7.01232,-4.95857 -12.6477,-11.61595 -19.88794,-16.28731 -10.05133,-6.90356 -21.86899,-11.5569 -34.10037,-12.29296 -5.59659,-0.18482 -11.19878,-0.14219 -16.7976,-0.18235 z M 42.092762,112.19188 c 11.67802,0.15653 23.58724,1.03048 34.37037,5.96387 1.77106,0.98902 3.9585,1.76469 5.10282,3.50802 -0.0752,0.73536 -1.32152,0.58996 -1.85079,0.88713 -1.14891,0.57318 -3.12404,-0.28281 -3.58489,1.28959 0.16567,1.67738 2.37601,1.46793 3.52354,2.13001 2.10066,0.92143 4.50258,1.79275 5.93644,3.65407 0.37866,1.12493 -1.52083,0.87959 -2.10028,1.04404 -8.06607,0.0862 -15.8998,-1.89658 -23.89309,-2.62541 -1.96707,-0.13836 -1.44514,2.38144 0.2182,2.37278 6.83119,2.27375 13.90743,3.74981 20.72221,6.05558 0.56509,0.0917 1.05042,0.60595 0.25868,0.8257 -4.08932,1.58772 -8.53664,1.6871 -12.90207,2.34485 -2.31976,0.41126 -4.80107,0.29115 -7.01672,1.1105 -1.15739,0.91189 0.11054,2.33037 1.28196,2.1559 8.46054,1.27795 16.99769,-0.094 25.46446,-0.45087 0.93581,0.30083 0.18844,1.71659 -0.56328,1.81144 -4.59839,1.96841 -9.74721,2.15906 -14.72475,2.6534 -12.83027,0.85404 -25.68363,1.28041 -38.53686,1.03517 -3.68334,-0.53541 -7.06587,-4.16287 -6.14038,-8.038 0.55854,-2.83086 1.98445,-5.38555 2.58848,-8.18988 -0.18655,-1.47937 -1.97808,-1.07647 -2.52647,-0.0746 -0.67383,1.04819 -1.36095,-0.8355 -1.95211,-1.26156 -0.64727,-0.92533 -2.21385,-2.49535 -0.81946,-3.485 1.23756,-1.21344 3.80884,-0.0537 4.38543,-1.89566 -0.4269,-1.2 -2.07622,-1.74197 -1.99784,-3.24809 -0.1445,-1.52185 -0.42191,-3.70464 1.4171,-4.31768 3.55015,-1.84555 6.59961,-5.01789 10.82497,-5.21146 0.83706,-0.0507 1.67615,-0.044 2.51433,-0.0438 z m 183.846258,2.94624 c 2.1572,0.12387 3.89388,1.52023 5.75022,2.42658 0.19624,1.9061 1.05663,3.94761 2.978,4.70088 1.81203,1.11483 3.87688,1.81333 5.50639,3.1468 -0.23749,1.39498 -2.05177,1.88092 -3.11128,2.56423 -6.45225,2.90038 -13.21521,5.10188 -19.99923,7.00936 -4.52906,1.18662 -9.42663,1.16837 -14.08015,1.88713 -3.26754,0.26047 -6.53011,0.89404 -9.81222,0.52993 5.09096,-2.74335 10.658,-3.99794 16.15549,-5.55884 6.14239,-1.59328 12.50258,-2.86595 18.15141,-5.86065 1.75311,-0.79418 1.45529,-2.99885 0.62571,-4.3656 -0.89827,-2.1148 -2.93027,-3.9219 -2.94411,-6.31657 0.13613,-0.24655 0.56096,-0.13325 0.77977,-0.16325 z"
     id="path1639" />
  <path
     style="display:inline;opacity:1;fill:#ff8080;fill-opacity:1;stroke:#ffd5d5;stroke-width:0.634726;stroke-miterlimit:4;stroke-dasharray:none;stroke-opacity:1"
     d="m 37.768692,119.92397 c -1.7289,2.22684 -4.39865,3.28021 -6.86079,4.38279 -1.29612,1.20754 0.712,2.2304 1.87812,1.81451 2.42549,-0.19644 4.96379,-0.0568 7.30754,-0.63376 1.0233,-1.05598 3.08085,-2.68131 2.10409,-4.37171 -0.90028,-0.78215 -2.28351,-0.6591 -3.2617,-1.40613 -0.44372,-0.0367 -0.81256,-0.13255 -1.16726,0.2143 z"
     id="path1641" />
  <path
     style="display:inline;opacity:1;fill:#ff8080;fill-opacity:1;stroke:#ffd5d5;stroke-width:0.634726;stroke-miterlimit:4;stroke-dasharray:none;stroke-opacity:1"
     d="m 53.557602,117.57703 c -1.48984,0.12427 -3.7619,1.6e-4 -4.34977,1.69708 0.1233,1.75751 2.41024,1.31499 3.61789,1.71598 5.23806,0.76647 10.48721,1.6399 15.7646,2.01961 1.56819,-0.31225 0.81724,-2.33776 -0.49588,-2.38916 -4.68112,-1.65951 -9.5017,-3.24087 -14.53684,-3.04351 z"
     id="path1643" />
  <path
     style="display:inline;opacity:1;fill:#ffd5d5;stroke:#ffd5d5;stroke-width:0.999999px;stroke-linecap:butt;stroke-linejoin:miter;stroke-opacity:1"
     d="m 60.479342,110.71944 c 0,0 -19.52847,-7.6247 -22.24321,-7.6402 -2.71474,-0.0151 -11.18836,-8.713514 0.67425,-7.509284 11.86261,1.2042 33.83922,11.305144 33.83922,11.305144 l 36.299758,10.38142 c 0,0 6.72197,7.10037 -24.423428,-0.52755 -31.14539,-7.62792 -24.14659,-6.00953 -24.14659,-6.00953 z"
     id="path1630" />
  <path
     style="display:inline;opacity:1;fill:#ffd5d5;stroke:#ffd5d5;stroke-width:0.999999px;stroke-linecap:butt;stroke-linejoin:miter;stroke-opacity:1"
     d="m 73.382162,123.56833 7.90745,2.48564 c 0,0 17.50279,8.56014 -13.7833,3.45687 -31.28608,-5.10331 11.45712,5.87391 11.45712,5.87391 0,0 10.97153,2.46184 -10.50685,4.61201 -21.47837,2.15017 1.49717,3.16532 1.49717,3.16532 l 17.93713,-1.16024 c 0,0 6.66763,4.3313 -20.74097,5.69 -27.40859,1.3587 -33.46616,0.75587 -33.46616,0.75587 0,0 -9.83801,-1.95027 -5.48759,-11.96398 4.35042,-10.01371 -0.86223,-3.79306 -0.86223,-3.79306 0,0 -8.98698,-7.24879 2.25007,-7.05834 11.23704,0.19048 10.67497,-0.88604 10.67497,-0.88604 0,0 2.53904,-2.38465 1.84746,-2.89368 -0.69159,-0.50903 2.7941,-2.82516 9.41591,-1.52459 6.6218,1.3005 21.68935,2.7953 21.68935,2.7953"
     id="path1632" />
  <path
     style="display:inline;opacity:1;fill:#ffd5d5;stroke:#ffd5d5;stroke-width:0.999999px;stroke-linecap:butt;stroke-linejoin:miter;stroke-opacity:1"
     d="m 227.91516,121.71443 c 0,0 -6.89416,-8.87834 -0.59236,-6.82201 6.30179,2.05633 5.3963,5.8393 5.3963,5.8393 l 6.79751,3.70068 c 0,0 5.23178,1.48203 -6.85232,5.89561 -12.08409,4.41358 -19.29252,6.32961 -19.66877,5.88552 -0.37644,-0.44409 -39.3679,6.02555 -9.009,-3.39764 5.95729,-1.8491 10.62834,-2.46263 14.08041,-3.5734 14.13996,-4.54972 9.86898,-4.75124 9.84823,-7.52806 z"
     id="path1634"
     sodipodi:nodetypes="csccscssc" />
  <path
     style="display:inline;opacity:1;fill:none;stroke:#000000;stroke-width:0.999999px;stroke-linecap:butt;stroke-linejoin:miter;stroke-opacity:1"
     d="m 39.078552,111.94601 c 0,0 -4.91675,1.04338 -6.35448,2.64231 -1.43773,1.59897 -4.39125,2.83211 -5.19634,3.0954 -0.80509,0.26305 -2.10301,8.64884 4.24892,6.45293 6.35193,-2.1959 5.20195,-4.0775 6.54274,-4.33768 1.3408,-0.26041 3.28261,3.67952 10.62993,-0.83218 7.34732,-4.51166 24.26237,4.15653 24.26237,4.15653 0,0 17.4941,1.08208 2.53209,-5.61063 -14.96202,-6.69271 -36.66523,-5.56668 -36.66523,-5.56668 z"
     id="path1621" />
  <path
     style="display:inline;opacity:1;fill:#ff2a2a;stroke:#ff2a2a;stroke-width:0.999999px;stroke-linecap:butt;stroke-linejoin:miter;stroke-opacity:1"
     d="m 104.13064,150.61788 c 0,0 -0.0465,-2.90446 8.34047,-1.15189 8.38702,1.75257 46.23935,6.83025 46.23935,6.83025"
     id="path1623" />
  <path
     style="display:inline;opacity:1;fill:#ff2a2a;fill-opacity:1;stroke:#ff2a2a;stroke-width:0.448819;stroke-miterlimit:4;stroke-dasharray:none;stroke-opacity:1"
     d="m 105.70355,150.01312 c -1.16407,-0.0986 -2.38538,0.33924 -2.9445,1.42364 -2.18066,2.47166 -3.933088,6.10547 -2.40383,9.352 1.37811,2.77474 4.17056,4.67466 7.05582,5.60855 4.34816,-0.55789 8.68063,-1.4481 12.99838,-2.26444 6.94879,-1.47195 14.00188,-2.83273 20.58697,-5.57084 1.24755,-0.46772 2.27444,-1.60259 3.68771,-1.3566 2.5643,-0.15785 5.18503,0.0114 7.71379,-0.31615 1.24189,-0.44673 0.43465,-2.2303 -0.75003,-2.00051 -12.93225,-1.7635 -25.93749,-2.92726 -38.91246,-4.3256 -2.33995,-0.21877 -4.67996,-0.5079 -7.03185,-0.55005 z"
     id="path1625" />
  <path
     style="display:inline;opacity:1;fill:#ff2a2a;fill-opacity:1;stroke:#ff2a2a;stroke-width:0.448819;stroke-miterlimit:4;stroke-dasharray:none;stroke-opacity:1"
     d="m 41.199192,111.47926 c -2.83079,-0.14423 -5.63786,0.81606 -8.03487,2.26484 -1.56355,1.36993 -3.28826,2.54059 -5.21031,3.34982 -1.81225,0.87296 -1.55988,3.1893 -1.34885,4.84589 0.18897,1.78187 1.88261,3.37973 3.73051,2.93325 2.98083,-0.55953 5.93718,-1.96982 7.79229,-4.43693 0.61283,-0.61379 1.36328,0.50206 2.01717,0.5162 2.52449,1.21082 5.41826,0.35565 7.72163,-0.94559 1.86341,-1.06497 3.90737,-1.9331 6.09882,-1.82288 6.84948,-0.0705 13.24501,2.72941 19.41658,5.38448 2.77813,0.0776 5.74173,0.22432 8.3544,-0.90623 1.20254,-0.67138 0.28954,-1.98446 -0.55772,-2.50043 -3.11984,-2.43262 -6.93437,-3.77663 -10.64326,-5.03624 -9.47685,-2.9126 -19.4685,-3.67862 -29.33639,-3.64618 z"
     id="path1627" />
  <path
     style="fill:none;stroke:#ffe6d5;stroke-width:0.999999px;stroke-linecap:butt;stroke-linejoin:miter;stroke-opacity:1"
     d="m 42.607232,155.75928 c 0,0 6.90069,7.74195 5.09472,14.424"
     id="path1662" />
  <path
     style="opacity:1;fill:#ffe6d5;fill-opacity:1;stroke:#ffe6d5;stroke-width:0.317363;stroke-miterlimit:4;stroke-dasharray:none;stroke-opacity:1"
     d="m 35.058892,155.10565 c -0.86971,-0.0599 -2.24035,-0.006 -2.25468,1.17313 0.47096,3.0806 0.15432,6.22315 0.1493,9.32764 0.035,0.99318 -0.2763,2.48987 0.92977,2.91893 2.78159,0.77605 5.5217,1.4706 8.30553,2.28728 1.71671,0.0362 3.46551,0.18174 5.17484,-0.0331 1.19045,-0.3263 0.99403,-1.78757 1.10156,-2.74381 -0.0326,-3.92107 -1.86519,-7.59722 -4.06448,-10.74931 -0.66922,-0.76446 -1.1267,-2.06501 -2.34007,-1.98911 -2.33029,-0.14524 -4.66772,-0.16014 -7.00177,-0.19167 z"
     id="path1668" />
  <path
     style="opacity:1;fill:none;fill-opacity:1;stroke:#ffe6d5;stroke-width:0.317363;stroke-miterlimit:4;stroke-dasharray:none;stroke-opacity:1"
     d="m 33.269172,155.23634 c -0.93072,0.66606 -0.1378,1.75897 -0.28465,2.65469 0.11263,3.2611 -0.15922,6.53745 0.1011,9.78986 0.36996,1.20301 1.88521,1.02299 2.84492,1.40375 2.22631,0.54857 4.41116,1.31481 6.66026,1.7782 1.63928,-0.0626 3.31936,0.20936 4.93488,-0.11853 1.05146,-0.43193 0.81206,-1.77379 0.94388,-2.68699 0.0131,-4.14902 -2.07323,-7.97794 -4.43789,-11.25761 -0.55852,-0.78984 -1.16773,-1.85207 -2.31123,-1.59717 -2.66966,-0.016 -5.35295,-0.1442 -8.01475,-0.0897 -0.1455,0.0412 -0.29101,0.0823 -0.43652,0.12349 z"
     id="path1664" />
  <path
     style="opacity:1;fill:#ffb380;fill-opacity:1;stroke:#ffe6d5;stroke-width:0.317363;stroke-miterlimit:4;stroke-dasharray:none;stroke-opacity:1"
     d="m 102.35453,150.39409 c -11.028468,1.16717 -22.062298,2.3545 -33.009828,4.15127 -2.3803,0.33178 -4.7386,0.94607 -7.15941,0.81336 -6.09294,0.0587 -12.19878,-0.074 -18.28341,-0.0123 -0.99234,0.097 -1.12275,1.3879 -0.46526,1.98356 2.30019,3.36518 4.50002,7.25882 4.14817,11.47782 -0.18675,0.81618 -0.13167,2.04237 0.95434,2.08843 10.21674,-0.17237 20.46259,-0.18747 30.68863,-0.34346 8.70311,-1.15081 17.41404,-2.28128 26.071368,-3.73946 1.07202,-0.18827 1.13471,-1.74105 0.17774,-2.14535 -1.97349,-1.16949 -3.96173,-2.75694 -4.65166,-5.03327 -0.65619,-2.67542 0.69827,-5.33017 2.33296,-7.36688 0.65003,-0.73509 0.2356,-1.88289 -0.80364,-1.87375 z"
     id="path1670" />
  <path
     style="fill:none;stroke:#000000;stroke-width:0.999999px;stroke-linecap:butt;stroke-linejoin:miter;stroke-opacity:1"
     d="m 35.137332,168.3682 7.53566,2.08146 36.16318,-0.32919 c 0,0 56.914878,-6.81786 64.452498,-13.38203"
     id="path1613"
     sodipodi:nodetypes="cccc" />
  <path
     style="fill:none;stroke:#000000;stroke-width:0.999999px;stroke-linecap:butt;stroke-linejoin:miter;stroke-opacity:1"
     d="m 143.28867,156.73844 35.00353,-0.51431 c 0,0 29.80051,3.74169 41.42585,0.5938 11.6253,-3.14793 25.04243,-7.35708 25.66688,-22.8895 0.62446,-15.53239 -9.06417,-7.55188 -14.52226,-21.1547 0,0 1.48497,-0.6215 -6.42958,-0.42323 -8.2088,0.20561 -8.26133,2.92448 -18.50714,-9.57608 -2.96697,-3.619884 -6.76581,-5.512174 -7.90666,-6.613344 -2.77168,-2.6753 -0.80644,-0.93263 -11.43893,-10.92257 -15.00884,-14.10183 -28.8421,-19.669 -41.15822,-20.63221 -12.31613,-0.96322 -42.14319,-0.062 -42.14319,-0.062 0,0 -7.316488,1.80431 -12.365368,1.45977 -5.04888,-0.34431 -43.27382,26.64854 -43.27382,26.64854 0,0 -1.78216,2.51528 -10.49603,2.71801 -8.71387,0.20258 -8.37524,0.48964 -8.37524,0.48964 0,0 -2.97775,5.474154 -6.64146,5.988964 -3.66372,0.51477 -7.41543,8.6185 -7.41543,8.6185 0,0 -1.67522,4.09761 2.00687,8.18124 3.68209,4.08359 3.79714,-0.42474 3.81425,12.20946 0.017,12.63424 -0.12854,14.68702 -0.12854,14.68702 l 10.1246,9.47762 c 0,0 2.86449,-1.27828 2.97393,3.00812 0.10946,4.2864 -0.23187,9.3292 0.0333,9.77715 0.26529,0.44795 1.60136,0.55986 1.60136,0.55986"
     id="path1615"
     sodipodi:nodetypes="ccsscssssscccccscssccscc" />
  <path
     style="fill:none;stroke:#000000;stroke-width:0.999999px;stroke-linecap:butt;stroke-linejoin:miter;stroke-opacity:1"
     d="m 33.138292,155.51577 c 0,0 29.41696,0.73625 31.69266,0.24415 2.27569,-0.49209 13.96584,-2.25626 20.72582,-3.0384 6.75997,-0.78213 18.573868,-2.10364 18.573868,-2.10364 0,0 -10.850648,9.53461 3.32085,15.48718"
     id="path1617" />
  <path
     style="fill:none;stroke:#000000;stroke-width:0.999999px;stroke-linecap:butt;stroke-linejoin:miter;stroke-opacity:1"
     d="m 104.13064,150.61788 c 0,0 -0.69695,-3.75009 12.05438,-0.82005 12.75132,2.93001 27.10365,6.94061 27.10365,6.94061"
     id="path1649" />
  <path
     style="fill:none;stroke:#000000;stroke-width:0.999999px;stroke-linecap:butt;stroke-linejoin:miter;stroke-opacity:1"
     d="m 31.059872,121.47383 c 0,0 3.87673,-15.50922 42.05629,-1.4013"
     id="path1651" />
  <path
     style="display:inline;fill:none;stroke:#000000;stroke-width:0.999999px;stroke-linecap:butt;stroke-linejoin:miter;stroke-opacity:1"
     d="m 159.78034,137.55409 c 0,0 78.74203,-0.13946 64.33201,-25.31134"
     id="path1655"
     sodipodi:nodetypes="cc" />
  <path
     style="fill:none;stroke:#000000;stroke-width:0.999999px;stroke-linecap:butt;stroke-linejoin:miter;stroke-opacity:1"
     d="m 47.639752,92.652616 c 0,0 18.98337,14.629464 52.30488,17.092694"
     id="path1658" />
  <path
     style="display:inline;fill:none;stroke:#000000;stroke-width:0.999999px;stroke-linecap:butt;stroke-linejoin:miter;stroke-opacity:1"
     d="m 73.116152,120.07253 c 0,0 33.719278,20.34637 74.789018,20.75954"
     id="path1674"
     sodipodi:nodetypes="cc" />
  <path
     style="display:inline;fill:none;stroke:#000000;stroke-width:0.999999px;stroke-linecap:butt;stroke-linejoin:miter;stroke-opacity:1"
     d="m 92.199472,139.31161 c 0,0 -19.70523,1.2133 -28.62436,4.19286"
     id="path1672" />
  <path
     style="fill:none;stroke:#000000;stroke-width:0.999999px;stroke-linecap:butt;stroke-linejoin:miter;stroke-opacity:1"
     d="m 38.146922,103.10128 c 0,0 36.0599,9.46284 34.96923,16.97125"
     id="path1678" />
  <path
     style="display:inline;fill:none;stroke:#000000;stroke-width:0.999999px;stroke-linecap:butt;stroke-linejoin:miter;stroke-opacity:1"
     d="m 62.898612,131.01097 c 0,0 15.08342,1.06825 54.535868,18.88328"
     id="path1653"
     sodipodi:nodetypes="cc" />
</svg>
