<?xml version="1.0" encoding="UTF-8" standalone="no"?>
<svg
   xmlns:dc="http://purl.org/dc/elements/1.1/"
   xmlns:cc="http://creativecommons.org/ns#"
   xmlns:rdf="http://www.w3.org/1999/02/22-rdf-syntax-ns#"
   xmlns:svg="http://www.w3.org/2000/svg"
   xmlns="http://www.w3.org/2000/svg"
   xmlns:sodipodi="http://sodipodi.sourceforge.net/DTD/sodipodi-0.dtd"
   xmlns:inkscape="http://www.inkscape.org/namespaces/inkscape"
   inkscape:version="1.1-dev (ddb55ca, 2020-02-02)"
   sodipodi:docname="crest_of_daphnel copy.svg"
   id="svg835"
   viewBox="0 0 64 64"
   version="1.1">
  <metadata
     id="metadata841">
    <rdf:RDF>
      <cc:Work
         rdf:about="">
        <dc:format>image/svg+xml</dc:format>
        <dc:type
           rdf:resource="http://purl.org/dc/dcmitype/StillImage" />
      </cc:Work>
    </rdf:RDF>
  </metadata>
  <defs
     id="defs839" />
  <sodipodi:namedview
     inkscape:current-layer="svg835"
     inkscape:window-maximized="0"
     inkscape:window-y="65"
     inkscape:window-x="284"
     inkscape:cy="20.841329"
     inkscape:cx="26.689777"
     inkscape:zoom="1.7627961"
     showgrid="false"
     id="namedview837"
     inkscape:window-height="651"
     inkscape:window-width="900"
     inkscape:pageshadow="2"
     inkscape:pageopacity="0"
     guidetolerance="10"
     gridtolerance="10"
     objecttolerance="10"
     borderopacity="1"
     bordercolor="#666666"
     pagecolor="#ffffff" />
  <path
     inkscape:connector-curvature="0"
     id="path852"
     d="m 31.012798,55.660068 c -1.635994,-2.729937 -3.459447,-4.776316 -5.47764,-6.147291 -3.452041,-2.345005 -5.844475,-4.796619 -7.150888,-7.327773 -0.375473,-0.727479 -0.774548,-1.319453 -0.886834,-1.3155 -0.112285,0.0038 -0.638073,0.646594 -1.16842,1.4281 -1.372157,2.02199 -3.285656,4.085374 -4.252048,4.585117 -1.303373,0.674003 -2.1718642,0.134132 -3.7921376,-2.357238 -3.6460461,-5.606248 -4.3663153,-7.949977 -4.3348426,-14.105414 0.020836,-4.074675 0.097358,-4.733415 0.8956208,-7.709722 1.3525787,-5.043061 2.7474253,-8.023257 3.7551913,-8.023257 0.3532179,0 0.095431,1.468388 -0.603109,3.435401 -1.15795,3.260666 -1.4957726,5.66726 -1.5308132,10.905281 -0.038156,5.703434 0.1810145,6.791208 2.1222305,10.532969 1.2601916,2.429062 2.0792588,3.184369 2.9486348,2.719095 1.775255,-0.950088 4.141309,-4.853924 4.89186,-8.071257 0.351475,-1.506631 0.917983,-2.713179 1.160192,-2.470972 0.04285,0.04287 0.699447,2.089546 1.459089,4.5482 2.118703,6.857373 2.718556,7.764161 6.822709,10.313817 2.853203,1.772513 5.269992,3.932769 6.027899,5.388069 l 0.500791,0.961587 0.577587,-1.13216 c 0.757229,-1.48429 2.891738,-3.37655 5.769844,-5.115013 1.277697,-0.77176 2.849572,-1.99419 3.49306,-2.716504 1.816107,-2.038576 3.267153,-5.493515 4.147732,-9.875753 0.440827,-2.193782 1.674594,-3.395185 1.674594,-1.630665 0,0.909799 0.959645,4.193878 1.595269,5.459303 0.740874,1.474964 2.651094,3.780832 3.492586,4.215981 0.765099,0.39565 0.858057,0.38338 1.473065,-0.19439 0.979495,-0.920183 2.837814,-4.675701 3.31469,-6.69871 0.553259,-2.347053 0.556672,-9.022898 0.0064,-12.498943 -0.230328,-1.454953 -0.808121,-3.739172 -1.283979,-5.076042 -0.806319,-2.265245 -0.895112,-3.277754 -0.28744,-3.277754 0.399407,0 2.131271,3.542644 2.926752,5.986888 2.9966,9.207537 2.248656,16.548372 -2.400204,23.557321 -2.949046,4.446193 -3.635728,4.348245 -8.001458,-1.141296 -1.467664,-1.845472 -1.949498,-2.256194 -1.949498,-1.6618 0,0.677928 -2.563379,4.160943 -4.129287,5.610698 -0.888602,0.822683 -2.499036,2.020608 -3.578747,2.662057 -2.141905,1.272485 -3.381943,2.516588 -4.297898,4.312004 -0.490276,0.961026 -2.472158,4.11387 -2.585978,4.11387 -0.01825,0 -0.62328,-0.984738 -1.344552,-2.188304 z m 0.454583,-11.687022 c -0.494832,-1.127654 -0.95676,-1.581905 -3.017355,-2.96719 -3.779258,-2.540692 -4.983295,-4.553697 -4.999224,-8.358098 -0.008,-1.915677 0.104652,-2.45591 0.804445,-3.857134 0.447575,-0.896203 1.369165,-2.118328 2.047979,-2.715848 1.366658,-1.20298 3.210956,-1.923539 3.692038,-1.442458 0.327293,0.327293 0.272849,0.386137 -1.742485,1.883334 -1.8708,1.389811 -2.744929,3.275734 -2.744929,5.922138 0,2.848712 1.18078,4.985922 3.604879,6.524793 2.279863,1.447316 5.798209,0.901233 8.045222,-1.248696 3.464556,-3.314861 2.779553,-9.144139 -1.38335,-11.772064 -1.201253,-0.758319 -1.426406,-1.510092 -0.451041,-1.506024 0.96449,0.004 3.358608,1.503401 4.234807,2.652164 2.677765,3.510729 2.38553,8.715554 -0.669145,11.917739 -0.707124,0.741274 -2.033626,1.754031 -2.947782,2.250583 -1.427198,0.775218 -1.771784,1.126005 -2.438167,2.4821 -0.426831,0.868612 -0.928059,1.576341 -1.11384,1.57273 -0.185777,-0.0038 -0.600701,-0.605741 -0.922052,-1.338069 z M 17.345494,28.987167 c -0.395017,-0.395021 -0.170609,-3.241599 0.387141,-4.91084 0.31822,-0.952375 0.954371,-2.321426 1.413666,-3.042335 1.06297,-1.668437 3.858233,-4.263571 5.901165,-5.478666 l 1.583362,-0.941754 1.634724,1.00901 c 2.329331,1.437744 4.000047,1.775568 5.80925,1.174648 0.779567,-0.258931 1.953348,-0.859026 2.608403,-1.333545 l 1.191006,-0.862762 1.796089,0.931228 c 4.808988,2.493341 8.491626,8.5206 7.719802,12.634763 -0.103189,0.550056 -0.28885,1.000087 -0.412581,1.000087 -0.123731,0 -0.5625,-1.059621 -0.975043,-2.354714 -0.963213,-3.023814 -2.586999,-5.453325 -4.669313,-6.986238 -2.497474,-1.838535 -3.603308,-1.877339 -5.560981,-0.195135 -1.59887,1.373891 -2.280246,1.739213 -3.243874,1.739213 -1.089095,0 -1.736464,-0.308549 -3.270188,-1.558642 -2.417258,-1.970234 -3.876126,-1.832808 -6.519081,0.614102 -2.079084,1.924865 -2.713363,2.942953 -3.786283,6.077404 -0.807421,2.358819 -1.170872,2.920564 -1.607264,2.484176 z M 30.931067,13.197456 c -2.926936,-1.320168 -1.20763,-6.2229603 1.973011,-5.6262678 2.106242,0.3951328 3.142579,3.4060958 1.723332,5.0069568 -0.773001,0.87192 -2.496181,1.160633 -3.696343,0.619311 z"
     style="fill:#ff8080;stroke:#ffb380;stroke-width:0.278459;fill-opacity:1" />
</svg>
