<?xml version="1.0" encoding="UTF-8"?>
<svg version="1.1" viewBox="0 0 256 256" xmlns="http://www.w3.org/2000/svg" xmlns:cc="http://creativecommons.org/ns#" xmlns:dc="http://purl.org/dc/elements/1.1/" xmlns:rdf="http://www.w3.org/1999/02/22-rdf-syntax-ns#">
 <style>svg { cursor: default; }</style>
 <metadata>
  <rdf:RDF>
   <cc:Work rdf:about="">
    <dc:format>image/svg+xml</dc:format>
    <dc:type rdf:resource="http://purl.org/dc/dcmitype/StillImage"/>
    <dc:title/>
   </cc:Work>
  </rdf:RDF>
 </metadata>
 <path d="m23.682 239.46 4.2187 3.3318c17.355-16.138 34.319-33.818 50.145-53.524l-3.931-3.2599c-17.957 16.86-34.775 34.804-50.432 53.452z" fill="#ffd42a" stroke="#000000" stroke-width=".15"/>
 <path d="m76.65 188.11c-0.67777 0.17421-1.1114 0.70986-1.8457 1.6543-1.1045 1.4205-2.9594 3.8194-5.0684 6.3438-2.1089 2.5244-4.4743 5.178-7.4941 8.4375-3.0199 3.2596-6.6966 7.1285-9.748 10.436s-5.4807 6.0554-7.957 8.5957c-2.4763 2.5403-5.0043 4.8752-7.1289 6.9199s-3.8512 3.8028-5.5605 5.4961c-1.7093 1.6933-3.4039 3.3247-4.7617 5.002-0.1935 0.23902-0.36632 0.4829-0.54688 0.72461l1.3613 1.0742c17.355-16.138 34.319-33.819 50.145-53.525l-1.3945-1.1582z" fill="#000000" opacity=".3"/>
 <g fill="#ffe680" stroke="#000000">
  <path d="m17.833 241.19c1.9966-0.33674 3.9078-0.79321 5.2733-2.0134 2.3833 0.51667 4.2322 1.8645 5.4651 4.1707-1.2698 1.6567-1.4374 3.5584-1.582 5.4651z" stroke-width=".15"/>
  <path d="m24.018 238.07c2.6259 0.83093 4.2638 2.4253 5.4891 4.3385l4.77-5.0576c-1.2395-2.3032-2.5728-4.022-5.3973-4.6133z" stroke-width=".15"/>
  <path d="m29.417 232.12c2.5692 0.7463 4.3237 2.3751 5.3875 4.7523l0.42347-0.47052c-1.1427-2.4082-2.8926-3.992-5.4816-4.7052z" stroke-width=".14722"/>
  <path d="m30.185 231.23c2.5959 0.75408 4.3688 2.3998 5.4436 4.8018l0.42788-0.47542c-1.1546-2.4333-2.9227-4.0336-5.5387-4.7542z" stroke-width=".14876"/>
  <path d="m30.912 230.31c2.6463 0.76872 4.4536 2.4464 5.5493 4.895l0.43619-0.48464c-1.177-2.4806-2.9794-4.1119-5.6462-4.8465z" stroke-width=".15165"/>
  <path d="m31.809 229.4c2.6499 0.76974 4.4595 2.4496 5.5567 4.9015l4.0167-3.9505c-1.1786-2.4839-3.2655-4.2189-5.9358-4.9546z" stroke-width=".15185"/>
  <path d="m35.94 224.74c2.8015 0.8138 4.7148 2.5899 5.8747 5.1821l0.46177-0.51307c-1.2461-2.626-3.1542-4.353-5.9773-5.1308z" stroke-width=".16054"/>
  <path d="m36.777 223.77c2.8307 0.82228 4.7639 2.6168 5.9359 5.236l0.46658-0.51842c-1.259-2.6534-3.187-4.3984-6.0396-5.1842z" stroke-width=".16221"/>
  <path d="m37.569 222.77c2.8857 0.83824 4.8564 2.6676 6.0512 5.3377l0.47564-0.52847c-1.2835-2.7049-3.2489-4.4838-6.1569-5.2849z" stroke-width=".16536"/>
 </g>
 <path d="m18.375 210.81c-3.821 3.1361-8.3166 6.7672-9.3341 10.994l0.25596 2.9122 1.7344 3.0156 3.5312 0.17187-2.5781-1.5469c-0.40159-0.58706-0.62828-1.314-0.20312-2.5625 0.8828-1.8254 6.2696-7.7908 10.227-11.549 5.9982-5.5182 13.198-9.701 20.683-13.568l-10.828 4.0659z" fill="#ff9955" stroke="#000000" stroke-width=".15"/>
 <path d="m39.385 199.92-7.5215 2.8242-13.488 8.0664c-1.1948 0.98059-2.4487 2.0152-3.6484 3.0957-0.001219 0.0014-0.002688 0.00447-0.003906 0.00586-0.69123 0.79126-0.99025 1.2821-1.1367 1.5566-0.29294 0.54915 0.029625 0.22624 0.44141-0.18554l1.4785-1.4785c0.55768-0.55768 1.1805-1.181 1.6504-1.5098 0.46988-0.32877 0.78302-0.3595 0.68359 0.38476-0.099425 0.74427-0.60938 2.2632-0.28125 2.123 0.32813-0.14012 1.4944-1.9401 4.0938-4.0234 2.5993-2.0834 6.6281-4.4469 10.145-6.2129 0.70488-0.354 1.3689-0.66524 2.0234-0.9707 2.0413-1.2323 4.132-2.4107 6.2598-3.5469-0.20525-0.04443-0.43853-0.08625-0.69531-0.1289z" fill="#ff7f2a"/>
 <g fill="#ffe680" stroke="#000000">
  <path d="m38.547 221.77c2.8895 0.83935 4.8629 2.6712 6.0592 5.3448l4.38-4.3078c-1.2852-2.7085-3.5608-4.6005-6.4726-5.4027z" stroke-width=".16558"/>
  <path d="m43.192 216.74c2.9734 0.86373 5.0041 2.7488 6.2352 5.5l0.4901-0.54455c-1.3225-2.7872-3.3477-4.6201-6.3441-5.4456z" stroke-width=".17039"/>
  <path d="m44.081 215.72c3.0044 0.87273 5.0562 2.7774 6.3001 5.5573l0.49521-0.55023c-1.3363-2.8162-3.3825-4.6682-6.4102-5.5023z" stroke-width=".17216"/>
  <path d="m44.922 214.65c3.0627 0.88967 5.1544 2.8313 6.4224 5.6652l0.50482-0.5609c-1.3622-2.8709-3.4482-4.7589-6.5346-5.6091z" stroke-width=".17551"/>
  <path d="m45.96 213.59c3.0668 0.89085 5.1612 2.8351 6.431 5.6727l4.5289-4.9076c-1.364-2.8747-3.4677-4.4753-6.5582-5.3266z" stroke-width=".17574"/>
  <path d="m51.123 208.37c2.9443 0.84527 4.9592 2.7039 6.1857 5.4219l0.48317-0.54026c-1.317-2.7533-3.3263-4.5604-6.2932-5.3677z" stroke-width=".16857"/>
  <path d="m51.999 207.35c2.975 0.85407 5.0108 2.732 6.2501 5.4784l0.48821-0.54589c-1.3308-2.7819-3.3609-4.6078-6.3588-5.4236z" stroke-width=".17033"/>
  <path d="m52.828 206.29c3.0328 0.87064 5.1081 2.7851 6.3714 5.5847l0.49769-0.55647c-1.3566-2.836-3.4262-4.6973-6.4822-5.5289z" stroke-width=".17363"/>
  <path d="m53.852 205.24c3.0368 0.87181 5.1149 2.7888 6.3799 5.5922l4.3214-5.061c-1.3584-2.8397-3.1329-4.0811-6.1931-4.9138z" stroke-width=".17386"/>
  <path d="m59.03 200.32c2.7626 0.79309 4.653 2.537 5.8038 5.0872l0.45335-0.50691c-1.2357-2.5833-3.121-4.2789-5.9048-5.0364z" stroke-width=".15816"/>
  <path d="m59.851 199.42c2.7607 0.79255 4.6499 2.5353 5.7999 5.0838l0.45304-0.50657c-1.2349-2.5816-3.1189-4.276-5.9008-5.033z" stroke-width=".15806"/>
  <path d="m60.626 198.5c2.7806 0.79825 4.6833 2.5535 5.8416 5.1204l0.4563-0.51021c-1.2438-2.6002-3.1413-4.3067-5.9432-5.0692z" stroke-width=".15919"/>
 </g>
 <g stroke="#000000">
  <path d="m74.114 186.01c-3.5736 0.55242-6.8836 1.4856-9.9269 2.8041-2.8765 1.2404-5.7777 2.4523-8.4489 3.9299-0.0463 0.0926-12.591 6.5999-15.239 7.4451-1.9005 0.60658-7.7558 2.5996-9.4375 3.4375-4.5948 2.469-8.4678 4.7936-12.688 7.1875-0.73283 0.26811 14.735-8.9467 17.312-10.375 1.012-0.5608 12.276-6.7451 12.5-6.8438 0.38844-0.17092 12.75-6.3051 16.812-7.3438 2.0274-0.61402 4.3168-1.0316 6.8155-1.2921 1.1719 0.0967 1.5477 0.69092 2.2988 1.0505z" fill="#ffb380" stroke-width=".15"/>
  <path d="m61.584 197.58c2.7462 0.78837 4.6254 2.5219 5.7693 5.0569l3.9078-4.5767c-1.2284-2.5679-2.8331-3.6905-5.6003-4.4435z" fill="#ffe680" stroke-width=".15722"/>
  <path d="m49.966 202.71c7.5782-5.3472 14.346-11.095 22.806-15.481l0.14382-2.4209c-1.8544 0.81153-3.6503 1.7399-5.2508 3.0593-1.8299 1.3413-3.5165 2.6825-5.224 4.0238z" fill="#ffb380" stroke-width=".15"/>
 </g>
 <g fill="#ffe680" stroke="#000000">
  <path d="m66.354 193.09c2.4931 0.70972 4.2016 2.2787 5.2446 4.5764l0.40784-0.45808c-1.1197-2.3274-2.8233-3.8527-5.3355-4.5303z" stroke-width=".14264"/>
  <path d="m67.092 192.28c2.4914 0.70923 4.1987 2.2771 5.241 4.5733l0.40757-0.45777c-1.1189-2.3258-2.8214-3.8501-5.3319-4.5272z" stroke-width=".14255"/>
  <path d="m67.79 191.44c2.5093 0.71433 4.2289 2.2935 5.2787 4.6062l0.4105-0.46105c-1.127-2.3425-2.8417-3.8778-5.3702-4.5598z" stroke-width=".14357"/>
 </g>
 <g>
  <path d="m72.871 185.52c-0.061938 0.02901-0.12561 0.08051-0.1875 0.15626-0.24757 0.30298-0.48625 0.99058-1.1289 1.502-0.64266 0.51137-1.6917 0.84717-2.5781 1.5098-0.65763 0.49155-1.177 1.1207-1.5898 1.6484 1.7336-1.0849 3.5126-2.131 5.3848-3.1016l0.10156-1.7148c-6.52e-4 3.1e-4 -0.001302-3e-4 -0.001953 0z" fill="#ff7f2a"/>
  <g stroke="#000000">
   <g stroke-width=".15">
    <path d="m164.16 91.109c0.43609 1.2311 1.4662 2.0231 2.8594 2.5469l0.92188-1.6094-1.7656-1.8906z" fill="#ff7f2a"/>
    <path d="m72.434 187.9 3.7565 3.3146 101.37-109.71c-0.23275-0.89839-0.67049-1.7125-2.125-1.6875z" fill="#ff8080"/>
    <path d="m169.3 86.254-4.2715 4.4824-2e-3 4.4e-5 -0.50801 0.53497c8.9e-4 0.0088-6e-3 0.01637-4e-3 0.02537 0.0519 0.22926 0.47841 0.50739 0.69923 0.875 0.22082 0.36759 0.2346 0.82414-0.48829 1.8496-0.72289 1.0255-2.1769 2.6123-16.586 17.994-14.409 15.382-41.734 44.517-55.654 59.178-13.921 14.66-14.421 14.828-15.031 14.891-0.61037 0.0627-1.3265 0.0208-1.9102-0.0156-0.58364-0.0365-1.0326-0.0684-0.98047 0.34375 0.05211 0.4122 0.60432 1.2652 1.8652 2.3125 0.34615 0.2875 0.76096 0.57535 1.5645 0.53711l94.654-102.44c-1.1673-0.23159-2.2994-0.4278-3.3477-0.5664z" fill="#000000" opacity=".3"/>
    <path d="m175.59 78.562-11.438 12.5c1.7029 0.18756 2.5395 1.011 2.8438 2.5625l12.219-12.5z" fill="#ff9955"/>
    <path d="m72.508 186.8c-0.01699 0.2072 0.02397 0.62322 0.02397 0.62322s3.0202 1.7498 3.0202 1.8457c0 0.0959 1.1985 1.6779 1.1985 1.6779s0.85725-0.16072 1.1745-0.43146c0.41087-0.35061 0.80461-0.87425 0.791-1.4142-0.01212-0.4809-0.42152-0.88774-0.76703-1.2225-0.75097-0.72751-1.8708-0.95642-2.7086-1.582-0.57973-0.43289-0.90932-1.2197-1.582-1.4861-0.23029-0.0912-0.74306 0-0.74306 0s-0.35218 1.3148-0.40749 1.9895z" fill="#ffb380"/>
   </g>
   <path d="m68.765 190.71c2.3654 0.67337 3.9864 2.162 4.976 4.342l3.2832-4.019c-1.0623-2.2082-2.3739-3.0995-4.7574-3.7423z" fill="#ffe680" stroke-width=".13534"/>
  </g>
  <path d="m26.953 241.17c-1.2456 1.5686-2.2116 3.1912-3.0684 5.0527l3.1055 2.584c0.14463-1.9067 0.31222-3.8081 1.582-5.4648-0.4563-0.85356-0.99819-1.5744-1.6191-2.1719z" fill="#000000" opacity=".3"/>
  <path d="m17.833 241.19c0.66481 1.8572 1.5308 3.7692 3.5955 5.2733 2.0647 1.5041 3.352 1.9273 5.561 2.349-0.86587-1.7098-1.6844-3.0194-3.931-4.6981-1.9429-1.4517-3.5251-2.3488-5.2254-2.9243z" fill="#ffd42a" stroke="#000000" stroke-width=".15"/>
 </g>
 <g fill="#000000">
  <path d="m32.787 235.06c-0.3091 0.3084-0.63365 0.6326-0.93945 0.93555-1.4521 1.4385-2.8798 2.8349-4.1133 4.25 0.6854 0.64905 1.2665 1.3775 1.7715 2.166l4.7715-5.0566c-0.45997-0.8547-0.93301-1.6289-1.4902-2.2949z" opacity=".3"/>
  <g stroke="#000000" stroke-width=".15">
   <path d="m33.732 234.12c-0.13993 0.13976-0.27782 0.27405-0.41602 0.41211 0.59684 0.67228 1.0908 1.4555 1.4883 2.3438l0.42383-0.4707c-0.41398-0.87246-0.9117-1.6313-1.4961-2.2852z" opacity=".3"/>
   <path d="m34.572 233.28c-0.14316 0.14244-0.28116 0.27761-0.42188 0.41797 0.59122 0.67257 1.0828 1.4535 1.4785 2.3379l0.42774-0.47657c-0.41197-0.86821-0.90556-1.6253-1.4844-2.2793z" opacity=".3"/>
   <path d="m35.42 232.45c-0.13964 0.13798-0.29476 0.28803-0.43164 0.42382 0.58634 0.67613 1.0775 1.4547 1.4727 2.3379l0.43555-0.48437c-0.41082-0.86579-0.90321-1.6205-1.4766-2.2773z" opacity=".3"/>
   <path d="m39.896 228.12c-0.85425 0.81337-1.7181 1.6318-2.4883 2.373-0.54435 0.52389-1.0054 0.98651-1.5039 1.4766 0.58111 0.67345 1.0682 1.4486 1.4609 2.3262l4.0176-3.9512c-0.39452-0.83146-0.90044-1.5704-1.4863-2.2246z" opacity=".3"/>
   <path d="m40.875 227.19c-0.16336 0.15665-0.30517 0.29096-0.4668 0.44532 0.55104 0.67198 1.0238 1.4286 1.4062 2.2832l0.46094-0.51367c-0.39504-0.83255-0.8642-1.5646-1.4004-2.2148z" opacity=".3"/>
   <path d="m41.799 226.29c-0.15621 0.15143-0.31361 0.30363-0.46875 0.45312 0.53988 0.66752 1.0054 1.4143 1.3828 2.2578l0.4668-0.51758c-0.39019-0.82231-0.85457-1.5471-1.3809-2.1934z" opacity=".3"/>
   <path d="m42.729 225.39c-0.16044 0.15793-0.31675 0.30884-0.47656 0.46485 0.53217 0.66775 0.99414 1.4139 1.3691 2.252l0.47461-0.5293c-0.38829-0.81832-0.84685-1.5401-1.3672-2.1875z" opacity=".3"/>
   <path d="m47.455 220.48c-0.98934 1.0729-1.954 2.1088-2.918 3.0976-0.42927 0.44036-0.8611 0.86543-1.291 1.293 0.52892 0.66582 0.98798 1.4078 1.3613 2.2422l4.3789-4.3086c-0.41023-0.86455-0.93072-1.6349-1.5312-2.3242z" opacity=".3"/>
   <path d="m48.463 219.39c-0.15482 0.16926-0.31396 0.34122-0.4668 0.50781 0.5579 0.69479 1.0401 1.4726 1.4316 2.3477l0.49024-0.54492c-0.41124-0.86667-0.89989-1.63-1.4551-2.3106z" opacity=".3"/>
   <path d="m49.393 218.37c-0.15039 0.16493-0.32255 0.35139-0.4707 0.51368 0.56947 0.70603 1.0603 1.4976 1.459 2.3887l0.49609-0.55078c-0.41901-0.88307-0.91738-1.6598-1.4844-2.3516z" opacity=".3"/>
   <path d="m50.326 217.35c-0.15831 0.17357-0.323 0.35285-0.47852 0.52344 0.58455 0.72251 1.0875 1.5322 1.4961 2.4453l0.50586-0.56055c-0.42936-0.90488-0.9416-1.7003-1.5234-2.4082z" opacity=".3"/>
   <path d="m55.332 211.94c-0.96255 1.0289-1.9497 2.0745-2.8379 3.0371-0.59522 0.64508-1.0838 1.1838-1.6367 1.7891 0.60107 0.73417 1.1157 1.5611 1.5332 2.4941l4.5293-4.9082c-0.44479-0.93738-0.97725-1.7275-1.5879-2.4121z" opacity=".3"/>
   <path d="m56.297 210.91c-0.15923 0.16984-0.30436 0.32881-0.46289 0.49805 0.57659 0.70096 1.0725 1.4897 1.4746 2.3809l0.48438-0.53906c-0.4215-0.88115-0.9241-1.6543-1.4961-2.3398z" opacity=".3"/>
   <path d="m57.227 209.91c-0.16207 0.1727-0.30879 0.33131-0.4707 0.50391 0.58374 0.70902 1.0872 1.5064 1.4941 2.4082l0.48828-0.54687c-0.42613-0.89083-0.93335-1.6722-1.5117-2.3652z" opacity=".3"/>
   <path d="m58.16 208.92c-0.16412 0.17487-0.31397 0.33641-0.47852 0.51171 0.59342 0.72169 1.1036 1.5338 1.5176 2.4512l0.49805-0.55664c-0.4333-0.90583-0.94942-1.7011-1.5371-2.4062z" opacity=".3"/>
   <path d="m63.133 203.57c-0.31385 0.34119-0.56177 0.62356-0.89062 0.97851-1.1008 1.1882-2.3394 2.5113-3.5527 3.8047 0.60415 0.72924 1.1232 1.5522 1.543 2.4824l4.3203-5.0606c-0.42184-0.88186-0.89178-1.5959-1.4199-2.2051z" opacity=".3"/>
   <path d="m63.9 202.72c-0.14597 0.15979-0.28243 0.30996-0.43164 0.47265 0.53298 0.65229 0.99221 1.3843 1.3652 2.2109l0.45312-0.50586c-0.39164-0.81872-0.85668-1.539-1.3867-2.1777z" opacity=".3"/>
   <path d="m64.717 201.82c-0.13986 0.15437-0.28682 0.31567-0.42969 0.47266 0.53211 0.6515 0.99078 1.3835 1.3633 2.209l0.45312-0.50586c-0.39157-0.81858-0.8567-1.5372-1.3867-2.1758z" opacity=".3"/>
   <path d="m65.535 200.93c-0.13589 0.15137-0.29681 0.32279-0.43555 0.47656 0.53344 0.6545 0.99529 1.3883 1.3691 2.2168l0.45508-0.50976c-0.3925-0.82052-0.8581-1.5426-1.3887-2.1836z" opacity=".3"/>
   <path d="m69.869 195.94c-0.047924 0.05755-0.084617 0.10637-0.13281 0.16406-1.143 1.3682-2.3929 2.8004-3.75 4.3203 0.53441 0.65152 0.99392 1.3838 1.3672 2.2109l3.9082-4.5762c-0.41044-0.85801-0.8688-1.5437-1.3926-2.1191z" opacity=".3"/>
   <path d="m70.592 195.05c-0.12684 0.15475-0.23595 0.2927-0.36524 0.44922 0.54351 0.62627 1.0007 1.3462 1.3711 2.1621l0.4082-0.45899c-0.39426-0.8195-0.8652-1.5337-1.4141-2.1523z" opacity=".3"/>
   <path d="m71.287 194.2c-0.12091 0.14951-0.23948 0.29521-0.36328 0.44726 0.56044 0.636 1.0293 1.3723 1.4082 2.207l0.4082-0.45703c-0.40361-0.83894-0.88712-1.569-1.4531-2.1973z" opacity=".3"/>
   <path d="m71.984 193.34c-0.11578 0.14484-0.24799 0.30294-0.36719 0.45117 0.57934 0.64902 1.062 1.4044 1.4512 2.2617l0.41016-0.46094c-0.41428-0.86112-0.90978-1.6113-1.4941-2.252z" opacity=".3"/>
   <path d="m75.51 188.9c-0.21286 0.23908-0.43792 0.52359-0.70508 0.86719-0.60885 0.78308-1.4754 1.8904-2.457 3.125 0.55796 0.61834 1.0218 1.341 1.3945 2.1621l3.2832-4.0195c-0.44059-0.9158-0.9306-1.5958-1.5156-2.1348z" opacity=".3"/>
  </g>
 </g>
 <g>
  <path d="m62.4 191.93-10.785 9.3516c-0.11447 0.16406-0.20584 0.31144-0.28711 0.45117 3.6499-2.6265 7.1565-5.3129 10.783-7.875-0.10158-0.0679-0.3696-0.00453-0.61914 0.07422-0.42978 0.13563-0.78986 0.30473-0.68164 0.11719 0.10822-0.18755 0.68248-0.72699 1.2129-1.5059 0.13409-0.1969 0.26417-0.40879 0.37695-0.61328z" fill="#ff7f2a"/>
  <path d="m16.436 214.18c-0.42449 0.13362-2.0803 1.4398-3.3887 2.8164-1.4953 1.5732-2.5348 3.2379-3.1289 4.5977-0.58226 1.3327-0.73034 2.3727-0.20117 3.8516l1.3145 2.2852 3.4941 0.16992c0.003219-0.00525 0.006574-0.01037 0.009765-0.01563l-2.5508-1.5293c-0.40159-0.58707-0.62828-1.314-0.20312-2.5625 0.022501-0.04653 0.08112-0.12399 0.10938-0.17579-0.13146-0.47981-0.14375-1.0348-0.072266-1.6113 0.14074-1.1352 0.59832-2.3539 1.7539-3.957 1.1556-1.6031 3.0111-3.5961 2.9648-3.8516-0.005786-0.03194-0.04092-0.03666-0.10156-0.01758z" fill="#ff7f2a"/>
  <path d="m62.441 191.89c-4.6839 3.9032-8.9672 7.9245-13.057 12.111-4.7023 4.8136-10.477 12.682-13.859 16.335-3.481 3.7604-6.9705 6.4571-9.5593 7.9322-4.6454 2.6469-11.242 2.2033-14.373 0.74576-0.89342-0.41591-1.3552-1.0439-1.9099-2.2852-0.64709-1.4479-0.58035-3.2342-0.64236-4.9252 0.19633 1.8586 0.40711 3.7282 2.9591 4.5663 2.7416 0.90038 5.634 0.83128 8.678 0.20339 2.349-0.48454 4.3711-1.6456 6.7797-4.2034l7.661-8.1356c4.5175-4.7974 9.478-8.9664 14.237-12.475 3.5546-2.6202 7.0186-5.3487 10.576-8z" fill="#ffb380" stroke="#000000" stroke-width=".15"/>
 </g>
 <g fill="#ffccaa">
  <path d="m36.94 214.63c-0.11131-0.47321-0.67057-0.31814-1.1224-0.0604-0.45183 0.25777-0.77881 0.60915-1.424 1.3866-0.64518 0.77744-1.6026 1.9742-2.1543 2.9173-0.55169 0.94309-0.69537 1.6296-0.63137 2.1258 0.064 0.49618 0.3352 0.79929 0.95111 0.61509 0.61591-0.18421 1.5745-0.85523 2.0533-1.542 0.47882-0.68682 0.47882-1.3908 0.69198-1.8533 0.21316-0.46248 0.63948-0.68535 1.0226-1.3488s0.72438-1.7671 0.61307-2.2403z"/>
  <path d="m18.501 227.75c-0.6267 8e-3 -1.8811 0.0239-2.9322-0.044-1.0511-0.0679-1.8974-0.2196-2.1173-0.1196-0.21989 0.10001 0.18721 0.45123 0.39888 0.77828 0.21167 0.32706 0.22765 0.63073 0.51246 0.88329 0.28481 0.25257 0.8344 0.4517 1.7249 0.53949 0.89047 0.0878 2.1222 0.0638 3.0608-0.0961 0.93864-0.15994 1.5864-0.45581 1.5031-0.59141-0.08322-0.13559-0.89971-0.11158-1.1352-0.26407-0.23549-0.15248 0.10764-0.47965 0.1398-0.69065 0.03216-0.211-0.24832-0.30717-0.38844-0.35521-0.14012-0.048-0.14012-0.048-0.76682-0.04z"/>
  <path d="m53.623 199.18c-0.19771 0.10737-1.7231 1.4294-3.5318 2.9837s-3.8976 3.3384-5.3274 4.9375c-1.4298 1.5991-2.1978 3.0108-2.152 3.2704 0.04572 0.2596 0.90376-0.63231 1.9708-1.7784 1.0671-1.1461 2.3453-2.5488 3.5427-3.8083 1.1973-1.2594 2.3168-2.3789 3.4406-3.4914 1.1238-1.1125 2.2547-2.2208 2.057-2.1134z"/>
 </g>
 <g>
  <path d="m72.867 185.22c-0.057439 0.01379-0.054827 0.01413-0.056641 0.01758-0.10617 0.42416-0.2634 1.0807-0.30274 1.5606-0.01699 0.2072 0.025391 0.62305 0.025391 0.62305s3.0195 1.7498 3.0195 1.8457c0 0.0959 1.1992 1.6777 1.1992 1.6777s0.85656-0.15894 1.1738-0.42969c0.41087-0.3506 0.80462-0.87605 0.79102-1.416-0.01212-0.4809-0.42206-0.88598-0.76758-1.2207-0.048517-0.047-0.10874-0.07802-0.16016-0.1211-0.31072 0.0633-0.61725 0.26628-0.92969 0.38672-0.56464 0.21767-1.152 0.15544-1.7285-0.07617s-1.1421-0.63265-1.459-1.1504-0.38468-1.1566-0.48828-1.4531-0.2452-0.26123-0.31641-0.24414z" fill="#ff7f2a"/>
  <path d="m41.646 197.91c-0.04109 5e-3 -0.12447 0.0155-0.47219 0.17355-0.34772 0.15802-0.94386 0.45609-1.653 0.92534-0.70919 0.46924-1.5201 1.1034-1.5596 1.2831-0.03949 0.17971 0.69193-0.096 1.2957-0.28327 0.60375-0.18731 1.0804-0.28643 2.1082-0.71016 1.0277-0.42374 2.6149-1.1756 4.5827-2.3938 1.9678-1.2182 4.3238-2.907 3.9912-2.8709-0.33258 0.0361-3.3549 1.7974-5.1779 2.7299-1.8231 0.93256-2.4478 1.0367-2.7609 1.0889-0.31307 0.0522-0.31307 0.0522-0.35416 0.0574z" fill="#ff7f2a"/>
  <path d="m67.35 186.24c-0.58825 0.0838-1.8591 0.43793-3.8186 1.2613-1.9596 0.8234-4.6029 2.1139-4.8316 2.3481-0.22867 0.23426 1.9578-0.58829 3.8688-1.3173 1.911-0.729 3.5473-1.3648 4.4116-1.7765 0.86425-0.41175 0.95807-0.59939 0.36982-0.51562z" fill="#ffccaa"/>
  <path d="m73.8 185.06c-0.09076-0.0182-0.27304-0.0546-0.33851 0.0496-0.06546 0.10423-0.0136 0.34799 0.09862 0.69514s0.28357 0.79369 0.66734 1.0153c0.38378 0.22162 0.97682 0.21643 1.0146-0.0318 0.03777-0.24826-0.48668-0.74649-0.80446-1.0721s-0.43236-0.48186-0.48959-0.5599c-0.05723-0.078-0.05723-0.0781-0.14799-0.0962z" fill="#ffccaa"/>
  <path d="m175.77 78.684c-0.11377-0.002313-0.191 0.001099-0.2832 0.001953l-0.71289 0.77734c-0.01589 0.096071-0.01432 0.10271-0.03711 0.23828-0.14353 0.85385-0.43059 2.5624-1.2852 4.3418-0.85457 1.7794-2.2758 3.6272-3.5098 4.957s-2.2778 2.1397-2.9707 2.4531c-0.50971 0.23058-0.82744 0.19338-1.1094 0.19336 0.60212 0.42796 0.96575 1.0767 1.1426 1.9785l12.219-12.5-3.4531-2.4414z" fill="#000000" opacity=".3"/>
  <path d="m211.55 71.335c1.716 0.45114 4.4394 1.0486 7.0869 1.2594 2.6475 0.21079 5.2206 0.03507 7.5146 0.51972 2.294 0.48465 4.3115 1.63 5.8074 4.3685s2.4721 7.0737 5.0538 12.401c2.5818 5.3275 6.7695 11.649 9.455 14.985 2.6855 3.3358 3.8686 3.6862 4.6687 4.2824s1.2185 1.4392 0.97511 1.9279c-0.24342 0.4887-1.1499 0.62426-3.2871-0.72729-2.1372-1.3516-5.4987-4.1852-8.0732-6.4535-2.5745-2.2683-4.3581-3.968-4.0813-3.5006 0.27675 0.46729 2.613 3.1004 4.4749 4.8931 1.8619 1.7927 3.2491 2.7446 3.6171 3.4645 0.36797 0.71997-0.28359 1.2095-2.1333 0.37257-1.8497-0.83693-4.8923-2.9971-7.1396-5.046-2.2472-2.0489-3.6955-3.9839-4.2123-4.1987-0.51677-0.21482-0.10169 1.2904-0.29214 2.0148-0.19046 0.72443-0.98761 0.66785-2.2266-0.77197-1.2389-1.4398-2.9153-4.2568-3.8802-5.3801-0.96488-1.1232-1.2162-0.54891-1.9584-0.68246-0.74222-0.13355-1.9742-0.97478-3.0511-2.7967s-1.9964-4.6212-2.8749-6.1061c-0.87847-1.485-1.716-1.6542-2.2686-2.5511-0.55261-0.89691-0.81878-2.518-1.8572-4.3401-1.0384-1.822-2.8488-3.8432-3.7195-5.3761-0.87069-1.5329-0.80113-2.5763-0.41184-2.9454 0.38928-0.36913 1.0976-0.06412 2.8136 0.38702z" fill="#ffb380" stroke="#000000" stroke-width=".096423"/>
 </g>
 <g fill="#ff9955">
  <path d="m224.32 87.527c-0.15738-0.24248-0.3545 1.0127-0.54234 2.258-0.18784 1.2453-0.36672 2.4821-0.99251 3.624-0.23306 0.42525-0.51502 0.83924-0.77246 1.2583 0.33732 0.21682 0.64705 0.35067 0.89757 0.39575 0.74222 0.13355 0.99282-0.44045 1.9577 0.68278 0.43969 0.51186 1.0339 1.3877 1.6604 2.3124-0.19297-0.93476-0.69648-1.9511-1.042-2.9995-0.40885-1.2406-0.59189-2.5249-0.74199-4.0369-0.15011-1.512-0.26696-3.2524-0.42435-3.4948z"/>
  <path d="m230.28 87.724c-0.0847 0.06365-0.0962 1.1668-0.0102 2.6732 0.0983 1.7217 0.32243 3.97 0.49501 6.0214 0.11968 1.4227 0.19145 2.4947 0.27074 3.6069 0.0353-0.13352 0.10513-0.19856 0.23988-0.14254 0.51677 0.21482 1.9647 2.1503 4.2119 4.1992 1.2307 1.1221 2.697 2.2689 4.0782 3.2221-0.34415-0.35254-0.69309-0.70744-1.0235-1.0516-1.875-1.9532-3.2407-3.5871-4.4352-5.9833-1.1945-2.3962-2.2169-5.5545-2.835-8.0119s-0.83152-4.2141-0.95197-4.4954c-0.0151-0.03515-0.0279-0.0472-0.04-0.03809z"/>
  <path d="m233.65 92.197c-0.0384-0.0505-0.0637-0.06963-0.0741-0.05149-0.0817 0.1442 0.77367 2.6242 1.4118 4.3422 0.63817 1.718 1.0596 2.6741 1.4649 3.3747 0.11856 0.20494 0.23874 0.3871 0.36614 0.56396 0.49923 0.38025 1.9879 1.7631 3.9271 3.4717 2.5745 2.2683 5.936 5.1017 8.0732 6.4533 0.99258 0.62769 1.7103 0.92636 2.2288 1.0261-1.0496-0.66335-2.426-1.4244-3.9026-2.5274-1.978-1.4778-4.1301-3.5663-6.0679-5.7459-1.9378-2.1796-3.6595-4.4491-5.0301-6.6802-1.1993-1.9522-2.1289-3.8736-2.3974-4.227z"/>
  <path d="m225 77.674c-0.38698-0.48394-1.7867-1.1565-3.6648-1.5448-2.5042-0.51768-5.8567-0.53075-8.7312-1.4751-1.5104-0.4962-2.8773-1.2402-3.8874-1.6771 0.10654 0.28321 0.24281 0.58614 0.43059 0.91673 0.87069 1.5329 2.6815 3.5542 3.7199 5.3762 1.0384 1.822 1.3041 3.4426 1.8567 4.3395 0.44575 0.72347 1.0776 0.98488 1.7661 1.8339 0.0209-0.22928 0.0683-0.46876 0.15528-0.70529 0.30252-0.82225 1.0414-1.5978 1.5734-2.6994 0.53202-1.1016 0.85849-2.5307 2.3122-3.1434 1.4537-0.61271 4.0356-0.4093 4.4995-0.81797 0.116-0.10216 0.0988-0.24202-0.0301-0.40333zm-3.5134 3.9307c-0.35988-0.34915-0.95432-0.40524-1.4587 0.05114-0.807 0.73022-1.3825 2.7688-1.9132 3.9277-0.29178 0.63721-0.56834 1.0001-0.81135 1.1554 0.67699 1.3408 1.3867 3.2814 2.1782 4.8228-0.0263-1.1267-0.0333-3.1758 0.5345-4.9051 0.57377-1.7475 1.7334-3.1593 1.7949-4.1549 0.0231-0.37333-0.10855-0.68756-0.32443-0.89709z"/>
 </g>
 <g fill="#ff7f2a">
  <path d="m216.65 77.812c-0.28541-0.31132-1.2224-0.6029-2.3685-1.0015-1.393-0.48439-3.086-1.1196-3.9716-1.1937 0.8647 1.1765 1.8701 2.453 2.5541 3.6531 0.10357 0.18172 0.19364 0.35944 0.28289 0.53666 0.016-0.0066 0.0306-0.01324 0.0466-0.01981 1.5622-0.63927 3.2447-1.2008 3.5079-1.6519 0.0658-0.11276 0.0438-0.21911-0.0513-0.32289z"/>
  <path d="m216.05 82.315c-0.0414-0.05784-0.11672-0.0869-0.23008-0.07704-0.31716 0.02759-0.89679 0.34991-1.4314 0.66855 0.1059 0.26437 0.21409 0.50345 0.33662 0.70232 0.0618 0.1003 0.12803 0.18914 0.19662 0.27412 0.24006-0.16796 0.47134-0.34674 0.65401-0.53526 0.41251-0.42543 0.59835-0.8591 0.47419-1.0327z"/>
  <path d="m219.85 84.504c-0.0138 0.0028-0.0333 0.02094-0.0609 0.05464-0.22061 0.27027-0.91894 1.5848-1.5145 2.4138-0.19812 0.27575-0.37404 0.49543-0.5344 0.70821 0.37964 0.85132 0.77263 1.8039 1.1863 2.7225 0.0446-0.2522 0.0897-0.50725 0.12811-0.76413 0.19987-1.3356 0.32077-2.5702 0.50974-3.5742 0.16534-0.87845 0.38183-1.5802 0.28562-1.5609z"/>
  <path d="m224.45 92.166c-0.12491-0.07278-0.11692 1.0447-0.28953 1.7306-0.12525 0.49777-0.34482 0.771-0.49534 1.1495 0.32005-0.02523 0.64167 0.0368 1.2113 0.69988 0.0359 0.04224 0.0792 0.10152 0.11725 0.14814 0.0162-0.40064 6.1e-4 -0.84234-0.0508-1.3335-0.11073-1.0581-0.36793-2.3219-0.49285-2.3947z"/>
  <path d="m230.56 91.304c-0.0263 0.0772 0.0218 0.75606 0.10497 1.7025 0.11093 1.2619 0.28516 3.0009 0.3792 4.3484 0.0658 0.94366 0.0967 1.6978 0.20556 2.5233 7e-3 0.0026 0.0135 0.0015 0.0214 0.0048 0.41448 0.17231 1.4372 1.4564 2.9818 3.0132-0.38632-0.74773-0.85499-1.5849-1.2482-2.4156-0.81343-1.7186-1.2895-3.3932-1.6575-5.1036-0.36802-1.7104-0.62796-3.457-0.73428-3.9376-0.0266-0.12015-0.0442-0.16121-0.053-0.13548z"/>
  <path d="m234.72 94.956c-0.091-0.10285 0.059 0.3129 0.26859 0.9011 0.27941 0.78426 0.66544 1.8734 1.0618 2.7877 0.3403 0.78507 0.72611 1.469 1.6824 2.5623 0.73168 0.65028 1.7668 1.5913 3.0149 2.6909 0.12689 0.11177 0.27317 0.23563 0.40363 0.34991-0.25862-0.28783-0.4685-0.52006-0.73739-0.82409-1.1976-1.3539-2.2799-2.664-3.269-4.2077-0.98916-1.5438-1.8848-3.3203-2.2465-3.9704-0.0904-0.16254-0.14804-0.25536-0.17837-0.28964z"/>
 </g>
 <g fill="#ffe6d5">
  <path d="m250.75 109.95c-0.65957-0.4435-1.7769-1.2123-3.404-2.8646-1.6271-1.6523-3.7615-4.1854-6.1016-7.5347-2.3402-3.3493-4.8839-7.512-6.3755-10.441s-1.9302-4.6234-1.7753-4.8827c0.15492-0.25932 0.90305 0.91603 1.7412 2.4916 0.83819 1.5755 1.7671 3.5525 2.9128 5.6986 1.1457 2.1461 2.509 4.4628 3.8521 6.5474 1.3431 2.0846 2.6668 3.938 3.8392 5.4252 1.1725 1.4872 2.1943 2.609 3.1921 3.532s1.9724 1.6482 2.4985 2.0664c0.52617 0.41828 0.60467 0.5301 0.54359 0.52706-0.0611-3e-3 -0.2636-0.12176-0.92318-0.56526z"/>
  <path d="m228.15 74.264c0.26423 0.14065 0.79197 0.42157 1.3609 0.86215 0.56897 0.44058 1.181 1.0424 1.8676 2.2328 0.6866 1.1904 1.45 2.9731 1.832 4.0862 0.38201 1.1131 0.38335 1.5583 0.0347 1.2354-0.34865-0.32294-1.0475-1.4143-1.6029-2.0641-0.55542-0.64973-0.96759-0.85758-1.1569-0.445-0.18933 0.41258-0.15505 1.4425-0.31362 1.3469-0.15856-0.09553-0.5101-1.3185-0.69501-0.73611-0.18492 0.58236-0.20315 2.9694-0.30357 2.9292-0.10043-0.04018-0.28304-2.508-0.40862-4.1816-0.12559-1.6736-0.19414-2.5529-0.46136-2.6414-0.26723-0.0885-0.73335 0.61417-0.87194 0.56527-0.13858-0.0489 0.0504-0.84864-0.11215-1.5121-0.16256-0.66347-0.67745-1.1911-1.9343-1.63-1.2568-0.4389-3.2527-0.7883-3.2361-0.90238 0.0167-0.11408 2.0458 0.0074 3.3377 0.16582 1.2919 0.15838 1.8462 0.3535 2.1229 0.45088 0.27665 0.09738 0.27639 0.09738 0.54062 0.23803z"/>
  <path d="m242.03 106.89c-0.65274-0.74189-2.2617-2.2566-3.703-3.8798-1.4413-1.6232-2.714-3.3539-3.4889-4.6473-0.7749-1.2934-1.0512-2.1486-1.1692-2.1315-0.11803 0.01707-0.0777 0.90624 0.57778 2.3541 0.65544 1.4479 1.9258 3.4538 3.3328 5.0443 1.4071 1.5905 2.9513 2.766 3.8753 3.3687s1.228 0.63331 0.57521-0.10857z"/>
  <path d="m229.62 90.323c0.26125 1.9971 0.63674 5.0003 0.81325 7.0183 0.1765 2.018 0.15404 3.0511 0.0379 3.5229s-0.32668 0.38222-0.75959-1.0142c-0.43291-1.3964-1.0827-4.0801-1.2275-6.5491-0.14475-2.4691 0.21793-4.7131 0.47278-5.3396s0.40188 0.36464 0.66314 2.3617z"/>
  <path d="m223.17 87.541c-0.36881 0.22156-0.93146 0.85083-1.2448 1.811-0.31337 0.96019-0.37697 2.249-0.14407 2.6647s0.76177-0.04222 1.162-0.90836c0.40025-0.86614 0.67289-2.1433 0.72179-2.8735 0.0489-0.73021-0.1261-0.91547-0.49491-0.6939z"/>
  <path d="m218.88 73.588c-1.0446-0.31125-2.6414-0.53799-3.1829-0.40624-0.54156 0.13175-0.028 0.62112 1.0162 0.93197 1.0442 0.31085 2.6213 0.4435 3.1627 0.31234 0.54145-0.13116 0.0486-0.52682-0.99599-0.83807z"/>
 </g>
 <g transform="matrix(-.46536 -.44346 -.44346 .46536 340.65 76.863)">
  <path d="m211.54 132.33c2.4167-1.3335 6.125-3.5835 9.3328-6.1873 3.2078-2.6039 5.917-5.5631 9.0206-7.4793 3.1037-1.9161 6.6049-2.7914 11.228-1.3127 4.6236 1.4788 10.375 5.3134 19.001 8.5425s20.125 5.8542 26.73 6.7289c6.6043 0.87463 8.3128-4.2e-4 9.8536-0.18769 1.5409-0.18726 2.9168 0.31308 3.1672 1.1247 0.25033 0.81161-0.62503 1.9371-4.4825 2.7086s-10.684 1.1878-16.018 1.3962c-5.3337 0.20837-9.1664 0.20837-8.3532 0.43763 0.81317 0.22927 6.2701 0.68748 10.291 0.70822 4.0207 0.0207 6.6045-0.396 7.7916 0.0199 1.1871 0.41591 0.97865 1.6665-2.0027 2.709s-8.7261 1.8751-13.456 1.9794c-4.7297 0.10425-8.4373-0.52062-9.2498-0.20797-0.81253 0.31266 1.2704 1.5624 1.8333 2.5826s-0.3955 1.812-3.336 1.5201c-2.9405-0.2919-7.8516-1.6653-10.144-1.8948-2.2921-0.22948-1.9588 0.68706-2.938 1.3332-0.9792 0.64613-3.2695 1.0209-6.4375 0.12472-3.1681-0.89618-7.2077-3.0618-9.7907-3.7914s-3.7079-0.0213-5.2928-0.43837c-1.5849-0.41704-3.6244-1.9571-6.7492-2.8946s-7.3328-1.2708-9.9584-2.0627c-2.6256-0.79189-3.667-2.0416-3.6248-2.8751 0.0423-0.83349 1.1674-1.2502 3.584-2.5837z" fill="#ffb380" stroke="#000000" stroke-width=".15"/>
  <g fill="#ff9955">
   <path d="m243.31 136.85c-0.43747-0.10418 0.68757 1.5209 1.8125 3.125 1.1249 1.6041 2.2508 3.1889 2.7715 5.1465 0.19391 0.72902 0.32066 1.4979 0.48047 2.2461 0.61257-0.11782 1.105-0.29949 1.4356-0.51757 0.9792-0.64614 0.64542-1.5615 2.9375-1.332 1.0445 0.10458 2.6536 0.45319 4.3516 0.82227-1.2205-0.84563-2.8782-1.4498-4.3926-2.2598-1.7918-0.95835-3.3763-2.2083-5.168-3.75-1.7917-1.5417-3.791-3.3763-4.2285-3.4805z"/>
   <path d="m250.23 130.69c-0.0271 0.16261 1.1438 1.4172 2.8574 3.0215 1.9584 1.8334 4.6237 4.125 7.0195 6.25 1.6616 1.4738 2.8929 2.604 4.1758 3.7715-0.10355-0.18824-0.0947-0.33645 0.11718-0.41797 0.81253-0.31266 4.5203 0.31324 9.25 0.20898 2.5903-0.0571 5.4722-0.33919 8.0508-0.74804-0.76592-0.0277-1.5398-0.0529-2.2812-0.0859-4.2077-0.18745-7.4992-0.56191-11.416-1.9785-3.9168-1.4166-8.4577-3.8763-11.791-5.9805-3.3333-2.1042-5.4589-3.8535-5.8965-4.041-0.0547-0.0234-0.0821-0.0232-0.0859 0z"/>
   <path d="m258.83 132.1c-0.0974-0.0157-0.14651-0.01-0.13867 0.0215 0.0627 0.25013 3.6875 2.125 6.25 3.375s4.0631 1.8744 5.2715 2.2285c0.35347 0.10357 0.68431 0.17973 1.0176 0.24218 0.97031-0.10753 4.1309-0.14774 8.1484-0.30468 5.3337-0.20837 12.16-0.62493 16.018-1.3965 1.7915-0.35833 2.9203-0.79222 3.6113-1.2363-1.8939 0.37931-4.2608 0.99953-7.1074 1.3418-3.8135 0.45852-8.4786 0.41603-13 0.041-4.5214-0.37502-8.896-1.0832-12.834-2.125-3.4457-0.91154-6.5547-2.0777-7.2363-2.1875z"/>
   <path d="m233.49 125.04c-0.95517-0.12972-3.2533 0.61498-5.7852 2.1934-3.3758 2.1045-7.1654 5.6876-11.416 7.709-2.2335 1.0621-4.5713 1.6911-6.1777 2.2832 0.42392 0.20461 0.90248 0.39953 1.4688 0.57032 2.6256 0.79188 6.8342 1.125 9.959 2.0625 3.1248 0.93753 5.1632 2.4775 6.748 2.8945 1.2784 0.33639 2.2705-0.0473 3.957 0.16992-0.2225-0.28066-0.4262-0.60117-0.58203-0.96094-0.54174-1.2507-0.54193-2.917-1.125-4.7285-0.58308-1.8116-1.7491-3.7714-0.76954-6.0215 0.97957-2.2501 4.1056-4.7919 4.1895-5.75 0.021-0.23953-0.14841-0.37864-0.4668-0.42187zm0.26172 8.1973c-0.77999-7e-3 -1.5096 0.56778-1.5879 1.623-0.12518 1.6884 1.4144 4.6019 2.0606 6.4766 0.35525 1.0308 0.43319 1.7362 0.32617 2.1719 2.2013 0.78344 5.0832 2.2073 7.6289 3.0938-1.2388-1.2407-3.4457-3.5408-4.6621-6.0977-1.2292-2.5838-1.4384-5.4182-2.4375-6.6055-0.37465-0.44522-0.86013-0.65782-1.3281-0.66211z"/>
  </g>
  <g fill="#ff7f2a">
   <path d="m224.24 134.15c-0.65553-0.0443-2.0237 0.6329-3.7422 1.4141-2.0886 0.94938-4.677 2.051-5.7539 2.918 2.2364 0.39696 4.7386 0.7555 6.7969 1.373 0.31166 0.0935 0.60383 0.19699 0.89453 0.30078 0.011-0.0246 0.0202-0.0477 0.0312-0.0723 1.0732-2.3964 2.3654-4.8345 2.1777-5.625-0.0469-0.19762-0.18578-0.29381-0.40429-0.30859z"/>
   <path d="m228.39 139.87c-0.1087-0.0207-0.22471 0.0274-0.3418 0.16016-0.32758 0.37145-0.63444 1.3565-0.89453 2.2891 0.40299 0.18408 0.7814 0.33722 1.1328 0.42969 0.17728 0.0466 0.34717 0.0756 0.51562 0.0976 0.0901-0.44679 0.15871-0.89633 0.16211-1.3047 8e-3 -0.92181-0.24812-1.6097-0.57422-1.6719z"/>
   <path d="m235.03 138.25c-0.0125 0.0178-0.015 0.0593-0.01 0.12695 0.0416 0.54113 0.66584 2.7709 0.88477 4.3438 0.0728 0.52317 0.11045 0.95937 0.1582 1.3711 1.3412 0.55132 2.8061 1.2024 4.2578 1.793-0.22046-0.33187-0.44339-0.66749-0.67579-0.99804-1.2082-1.7186-2.3971-3.2388-3.2617-4.5723-0.75654-1.1668-1.2658-2.1894-1.3535-2.0644z"/>
   <path d="m248.43 141.95c-0.21878 0.0521 0.98947 1.302 1.5312 2.2598 0.39314 0.695 0.43909 1.2384 0.67579 1.8262 0.33336-0.37189 0.76214-0.64718 2.1152-0.51172 0.0857 9e-3 0.19817 0.0293 0.29102 0.041-0.41167-0.46863-0.9033-0.94929-1.4883-1.4473-1.2602-1.0728-2.9062-2.22-3.125-2.168z"/>
   <path d="m254.39 134.41c0.0532 0.1152 0.83591 0.8281 1.9453 1.8047 1.4792 1.3021 3.5417 3.0736 5.0938 4.4902 1.0869 0.99207 1.931 1.8082 2.9395 2.6211 0.0112-5e-3 0.0168-0.0128 0.0293-0.0176 0.65171-0.25077 3.1816 0.0978 6.5918 0.19336-1.2375-0.42748-2.6638-0.86731-3.998-1.3809-2.7604-1.0624-5.0937-2.4375-7.3438-3.9688-2.25-1.5312-4.4172-3.2193-5.0527-3.6465-0.15888-0.10679-0.2228-0.13411-0.20508-0.0957z"/>
   <path d="m262.99 134.06c-0.21283-0.0182 0.40228 0.28903 1.2695 0.72657 1.1563 0.58337 2.7599 1.3956 4.1875 2 1.2258 0.51893 2.3943 0.87516 4.6445 1.0801 1.5219-0.0529 3.6975-0.10406 6.2832-0.20507 0.26285-0.0103 0.56051-0.0278 0.83008-0.0391-0.60015-0.0466-1.0857-0.0829-1.7148-0.13672-2.8016-0.23953-5.4265-0.55346-8.1973-1.2305-2.7707-0.67701-5.6859-1.7165-6.791-2.0606-0.27627-0.086-0.44077-0.1287-0.51172-0.13477z"/>
  </g>
  <g fill="#ffe6d5">
   <path d="m297.14 133.75c-1.2188 0.20838-3.3021 0.54172-6.9078 0.42712s-8.7279-0.67679-14.958-1.9373c-6.2299-1.2606-13.562-3.2186-18.385-4.9165-4.8232-1.698-7.1355-3.1354-7.2393-3.5936-0.10383-0.4583 2.0001 0.0625 4.6349 0.93728 2.6348 0.87481 5.8025 2.1044 9.396 3.2918 3.5935 1.1874 7.615 2.3334 11.365 3.2396 3.7498 0.90618 7.2295 1.573 10.146 1.9896 2.9165 0.4166 5.2712 0.58331 7.3855 0.552 2.1143-0.0313 3.99-0.26056 5.0315-0.35418 1.0414-0.0936 1.2499-0.0519 1.1778 0.0102-0.072 0.0621-0.42753 0.14577-1.6463 0.35415z"/>
   <path d="m232.97 118c0.86458-0.31239 1.7604-0.56239 2.874-0.67682 1.1136-0.11442 2.4487-0.0936 4.4995 0.51027 2.0508 0.60382 4.8237 1.7922 6.4484 2.6358 1.6247 0.84359 2.104 1.3437 1.3647 1.3542s-2.6975-0.46864-4.0203-0.60429c-1.3228-0.13564-2.01 0.0726-1.7805 0.74044 0.22957 0.66783 1.3734 1.7909 1.0923 1.8535-0.28109 0.0626-1.9894-0.93742-1.5727-0.0831 0.41673 0.85431 2.9579 3.5622 2.8017 3.6247-0.15623 0.0625-3.0104-2.5208-4.9479-4.2708-1.9375-1.75-2.9583-2.6667-3.3542-2.4796-0.39592 0.18711-0.16677 1.4787-0.37532 1.5724-0.20855 0.0936-0.85399-1.0098-1.7491-1.5826s-2.0413-0.61442-3.9277 0.24008-4.5092 2.603-4.6129 2.4567c-0.10368-0.14635 2.3119-2.1871 3.9368-3.3952s2.4586-1.5832 3.3232-1.8956z"/>
   <path d="m284.03 139.66c-1.5313-0.13499-4.9688-0.11416-8.334-0.39542s-6.6559-0.86442-8.9167-1.4895c-2.2608-0.62506-3.4897-1.2916-3.6043-1.1457-0.11461 0.14588 0.8851 1.1039 3.1771 2.0311s5.8754 1.823 9.167 2.1041c3.2916 0.28113 6.2922-0.0523 7.9796-0.36508 1.6874-0.31282 2.0626-0.60459 0.53128-0.73958z"/>
   <path d="m252.27 134.32c2.4375 1.9688 6.0833 4.9479 8.4478 7.0312 2.3645 2.0832 3.4478 3.2708 3.8235 3.9268 0.37561 0.65605 0.0423 0.78105-1.9439-0.32703s-5.5981-3.433-8.4109-6.0583c-2.8128-2.6253-4.8126-5.5418-5.198-6.5208-0.38532-0.97904 0.84394-0.0206 3.2814 1.9481z"/>
   <path d="m242.03 138.1c-0.17756 0.64532-0.1359 1.9578 0.54165 3.3755s1.9891 2.9374 2.6975 3.1556c0.70842 0.21821 0.81258-0.86507 0.33381-2.27-0.47878-1.405-1.5423-3.1359-2.2709-4.0107-0.72857-0.87483-1.1245-0.89567-1.302-0.25034z"/>
   <path d="m222.22 127c-1.5104 0.77047-3.5521 2.2288-4.0206 2.9584s0.63504 0.72957 2.1446-0.041 3.428-2.3136 3.897-3.0424-0.5107-0.64542-2.0211 0.12506z"/>
  </g>
 </g>
 <g transform="matrix(-.45396 -.45512 -.45512 .45396 434.85 125.88)">
  <path d="m365.59 207.11c16.056-20.347-22.606-45.073-31.876-16.269-9.1071-28.857-47.908-4.3488-31.968 16.088 9.2338 11.838 22.513 17.232 31.831 32.36 9.4034-15.075 22.712-20.393 32.013-32.179z" fill="#ffb380" stroke="#000000" stroke-width=".15"/>
  <g fill="#ffe6d5">
   <path d="m346.41 183.24c2.3717-0.0146 5.9072 0.13269 8.882 2.6362 2.9748 2.5034 5.3914 7.3661 6.4228 11.284 1.0314 3.9183 0.67782 6.8938-1.768 10.651-2.4458 3.7574-6.9814 8.293-6.7598 8.4988 0.22157 0.20583 5.1997-3.918 8.5138-7.9836s4.9644-8.0734 5.0821-11.873-1.2969-7.3954-3.6829-10.223c-2.386-2.8279-5.7452-4.8906-8.9564-5.8483-3.2112-0.95764-6.2751-0.81034-8.3377-0.0888-2.0626 0.72154-3.123 2.0175-3.0487 2.5776 0.0743 0.56018 1.2812 0.38355 3.6529 0.36892z"/>
   <path d="m339.47 184.14c-1.0307 0.50033-2.445 2.1502-2.902 3.6683-0.45707 1.518 0.0435 2.9019 1.0755 2.4002 1.032-0.50165 2.5929-2.8872 3.0493-4.4038 0.45645-1.5166-0.19204-2.1651-1.2228-1.6648z"/>
   <path d="m323.87 180.69c0.39805-0.20604 1.9596 0.4716 3.1965 1.8704 1.237 1.3988 2.1506 3.5208 1.7527 3.7271-0.39784 0.20629-2.1063-1.5022-3.3438-2.9018-1.2375-1.3996-2.0035-2.4897-1.6055-2.6957z"/>
   <path d="m336.56 232.13c1.6419-2.5859 4.5334-6.588 6.7414-8.7859 2.208-2.1979 3.7321-2.5909 3.6159-1.8106-0.11623 0.78024-1.8716 2.7315-3.3045 4.1919-1.4329 1.4604-2.5434 2.43-4.069 4.2355-1.5255 1.8055-3.4691 4.4505-4.2439 5.1877-0.77472 0.73715-0.38185-0.43271 1.2601-3.0186z"/>
  </g>
  <path d="m331.65 187.66c0.0147 0.0733 0.0441 0.22057 0.34019 0.78314 0.29608 0.56256 0.85295 1.5298 1.1771 2.5314s0.41252 2.0325-0.67846 1.7672c-1.091-0.26533-3.3576-1.8255-5.1104-2.7094-1.7528-0.8839-2.9901-1.0901-2.9306-1.2228 0.0595-0.13269 1.4139-0.19158 2.7096-0.0885 1.2957 0.10312 2.5341 0.36849 3.2705 0.20594s0.97221-0.75217 1.0898-1.0462 0.1176-0.29402 0.13226-0.22075z" fill="#ff9955"/>
  <path d="m303.19 199.45c0.45597 0.0737 0.66221 0.51563 1.5469 2.3587s2.4446 5.0807 6.349 9.1177c3.9044 4.037 10.15 8.8682 14.171 13.346 4.0215 4.478 5.8187 8.6029 5.1704 8.5586-0.64832-0.0443-3.7416-4.257-7.1738-7.7776-3.4322-3.5206-7.2036-6.3491-10.68-9.3545-3.4768-3.0053-6.6586-6.1872-8.4854-8.8392-1.8268-2.652-2.2982-4.7733-2.1798-5.9812 0.11842-1.2078 0.82577-1.5025 1.2817-1.4288z" fill="#ff9955"/>
 </g>
 <path d="m212.06 42.801c-8.4713-7.9955-23.531-19.73-30.814-12.097s1.3599 20.173 13.216 31.43c11.856 11.257 24.031 18.331 31.166 10.864 7.1352-7.4672-5.0965-22.2-13.568-30.196zm-0.97439 1.0225c8.0261 7.5795 19.704 21.452 13.339 28.112-6.3646 6.6597-17.778-0.17573-29.012-10.845-11.235-10.67-19.545-22.428-13.048-29.236 6.4962-6.8075 20.695 4.3898 28.722 11.969z" fill="#ffe6d5" stroke="#000000" stroke-width=".096423"/>
 <path d="m119.06 141.77c-12.41 13.202-23.288 24.725-29.412 30.957-6.1242 6.2318-7.4939 7.1718-7.843 7.1444-0.3491-0.0274 0.3219-1.0205 6.3059-7.407 5.984-6.3865 17.304-18.191 29.915-31.419 12.61-13.228 26.525-27.895 33.845-35.537 7.3195-7.6417 8.0448-8.2596 8.1926-8.2064 0.14785 0.05311-0.28249 0.77932-7.4779 8.5934-7.1954 7.814-21.115 22.673-33.525 35.875z" fill="#ffd5d5"/>
</svg>
