<?xml version="1.0" encoding="UTF-8" standalone="no"?>
<!-- Created with Inkscape (http://www.inkscape.org/) -->

<svg
   xmlns:dc="http://purl.org/dc/elements/1.1/"
   xmlns:cc="http://creativecommons.org/ns#"
   xmlns:rdf="http://www.w3.org/1999/02/22-rdf-syntax-ns#"
   xmlns:svg="http://www.w3.org/2000/svg"
   xmlns="http://www.w3.org/2000/svg"
   xmlns:xlink="http://www.w3.org/1999/xlink"
   xmlns:sodipodi="http://sodipodi.sourceforge.net/DTD/sodipodi-0.dtd"
   xmlns:inkscape="http://www.inkscape.org/namespaces/inkscape"
   version="1.1"
   viewBox="0 0 256 256"
   id="svg6"
   sodipodi:docname="Harkonnen.svg"
   inkscape:version="0.92.3 (2405546, 2018-03-11)">
  <defs
     id="defs10">
    <linearGradient
       inkscape:collect="always"
       id="linearGradient1087">
      <stop
         style="stop-color:#ffdd55;stop-opacity:1;"
         offset="0"
         id="stop1083" />
      <stop
         style="stop-color:#ffdd55;stop-opacity:0;"
         offset="1"
         id="stop1085" />
    </linearGradient>
    <linearGradient
       inkscape:collect="always"
       id="linearGradient1079">
      <stop
         style="stop-color:#ffdd55;stop-opacity:1;"
         offset="0"
         id="stop1075" />
      <stop
         style="stop-color:#ffdd55;stop-opacity:0;"
         offset="1"
         id="stop1077" />
    </linearGradient>
    <linearGradient
       inkscape:collect="always"
       id="linearGradient1071">
      <stop
         style="stop-color:#ffdd55;stop-opacity:1;"
         offset="0"
         id="stop1067" />
      <stop
         style="stop-color:#ffdd55;stop-opacity:0;"
         offset="1"
         id="stop1069" />
    </linearGradient>
    <linearGradient
       inkscape:collect="always"
       id="linearGradient1055">
      <stop
         style="stop-color:#ffdd55;stop-opacity:1;"
         offset="0"
         id="stop1051" />
      <stop
         style="stop-color:#ffdd55;stop-opacity:0;"
         offset="1"
         id="stop1053" />
    </linearGradient>
    <linearGradient
       inkscape:collect="always"
       id="linearGradient1009">
      <stop
         style="stop-color:#ffdd55;stop-opacity:1;"
         offset="0"
         id="stop1005" />
      <stop
         style="stop-color:#ffdd55;stop-opacity:0;"
         offset="1"
         id="stop1007" />
    </linearGradient>
    <linearGradient
       inkscape:collect="always"
       id="linearGradient1001">
      <stop
         style="stop-color:#ffdd55;stop-opacity:1;"
         offset="0"
         id="stop997" />
      <stop
         style="stop-color:#ffdd55;stop-opacity:0;"
         offset="1"
         id="stop999" />
    </linearGradient>
    <linearGradient
       inkscape:collect="always"
       id="linearGradient985">
      <stop
         style="stop-color:#ffdd55;stop-opacity:1;"
         offset="0"
         id="stop981" />
      <stop
         style="stop-color:#ffdd55;stop-opacity:0;"
         offset="1"
         id="stop983" />
    </linearGradient>
    <linearGradient
       inkscape:collect="always"
       xlink:href="#linearGradient985"
       id="linearGradient987"
       x1="159"
       y1="154"
       x2="164.59589"
       y2="148.40411"
       gradientUnits="userSpaceOnUse" />
    <linearGradient
       inkscape:collect="always"
       xlink:href="#linearGradient1001"
       id="linearGradient1003"
       x1="68"
       y1="69"
       x2="72.008476"
       y2="64.991524"
       gradientUnits="userSpaceOnUse" />
    <linearGradient
       inkscape:collect="always"
       xlink:href="#linearGradient1009"
       id="linearGradient1011"
       x1="20"
       y1="25"
       x2="24.640577"
       y2="21"
       gradientUnits="userSpaceOnUse" />
    <linearGradient
       inkscape:collect="always"
       xlink:href="#linearGradient1055"
       id="linearGradient1057"
       x1="93"
       y1="106"
       x2="95.698486"
       y2="103.30151"
       gradientUnits="userSpaceOnUse" />
    <linearGradient
       inkscape:collect="always"
       xlink:href="#linearGradient1071"
       id="linearGradient1073"
       x1="105"
       y1="116"
       x2="107.23617"
       y2="113.76383"
       gradientUnits="userSpaceOnUse" />
    <linearGradient
       inkscape:collect="always"
       xlink:href="#linearGradient1079"
       id="linearGradient1081"
       x1="108"
       y1="119"
       x2="110.22645"
       y2="116.77355"
       gradientUnits="userSpaceOnUse" />
    <linearGradient
       inkscape:collect="always"
       xlink:href="#linearGradient1087"
       id="linearGradient1089"
       x1="109"
       y1="122"
       x2="110.62389"
       y2="120.37611"
       gradientUnits="userSpaceOnUse" />
  </defs>
  <sodipodi:namedview
     pagecolor="#ffffff"
     bordercolor="#666666"
     borderopacity="1"
     objecttolerance="10"
     gridtolerance="10"
     guidetolerance="10"
     inkscape:pageopacity="0"
     inkscape:pageshadow="2"
     inkscape:window-width="1920"
     inkscape:window-height="1017"
     id="namedview8"
     showgrid="true"
     inkscape:zoom="3.6875"
     inkscape:cx="120.90248"
     inkscape:cy="126.91619"
     inkscape:window-x="1912"
     inkscape:window-y="-8"
     inkscape:window-maximized="1"
     inkscape:current-layer="svg6"
     showguides="false">
    <inkscape:grid
       type="xygrid"
       id="grid817" />
  </sodipodi:namedview>
  <style
     id="style2">svg { cursor: default;}</style>
  <metadata
     id="metadata4">
    <rdf:RDF>
      <cc:Work
         rdf:about="">
        <dc:format>image/svg+xml</dc:format>
        <dc:type
           rdf:resource="http://purl.org/dc/dcmitype/StillImage" />
        <dc:title />
      </cc:Work>
    </rdf:RDF>
  </metadata>
  <path
     style="fill:none;stroke:#000000;stroke-width:0.47893953px;stroke-linecap:butt;stroke-linejoin:miter;stroke-opacity:1"
     d="m 10.449179,9.59947 0.380368,0.352985 2.104784,-2.268056 1.662789,-0.266043 1.901888,1.764975 0.601365,-0.648014 4.564502,4.235914 -0.300683,0.324007 1.141131,1.058983 -0.300682,0.324007 0.380367,0.352986 -1.20273,1.296028 2.521324,4.148966 1.521505,1.411976 1.282429,-0.619037 1.901873,1.764962 0.460059,1.029985 0.159385,1.354012 84.062897,78.011414 2.72425,0.11594 5.70562,5.29489"
     id="path816"
     inkscape:connector-curvature="0" />
  <g
     id="g837"
     transform="matrix(0.38037512,0.35299281,0.3006826,-0.32400711,-4.0202915,82.406942)">
    <path
       inkscape:connector-curvature="0"
       id="path816-3"
       d="m -75,129 h 1 v -7 l 2,-3 h 5 v -2 h 12 v 1 h 3 v 1 h 1 v 4 l 9,3 h 4 l 1,-3 h 5 l 2,1 2,2 h 221 l 4,-4 h 15"
       style="fill:none;stroke:#000000;stroke-width:1px;stroke-linecap:butt;stroke-linejoin:miter;stroke-opacity:1" />
  </g>
  <path
     style="fill:none;stroke:#000000;stroke-width:0.47893953px;stroke-linecap:butt;stroke-linejoin:miter;stroke-opacity:1"
     d="M 10.596824,9.440373 6.0922386,14.294387"
     id="path839"
     inkscape:connector-curvature="0"
     sodipodi:nodetypes="cc" />
  <path
     style="fill:none;stroke:#000000;stroke-width:0.47893953px;stroke-linecap:butt;stroke-linejoin:miter;stroke-opacity:1"
     d="m 13.970335,16.485411 c 0.03757,0.319133 -0.280312,0.66167 -0.601358,0.648006 -0.32106,-0.01366 -0.72319,-0.386844 -0.760764,-0.705998 -0.03755,-0.319119 0.280328,-0.661656 0.601359,-0.648006 0.321067,0.01367 0.723197,0.386851 0.760763,0.705998 z"
     id="path841"
     inkscape:connector-curvature="0"
     sodipodi:nodetypes="sssss" />
  <path
     style="fill:none;stroke:#000000;stroke-width:0.47893953px;stroke-linecap:butt;stroke-linejoin:miter;stroke-opacity:1"
     d="m 14.412302,14.483384 0.760763,0.705999 2.405467,-2.592064 -0.760763,-0.705998 z"
     id="path843"
     inkscape:connector-curvature="0" />
  <path
     style="fill:none;stroke:#000000;stroke-width:0.47893953px;stroke-linecap:butt;stroke-linejoin:miter;stroke-opacity:1"
     d="m 12.466923,18.105446 -2.104771,2.268042 -0.760764,-0.705999 2.104771,-2.268041 z"
     id="path845"
     inkscape:connector-curvature="0" />
  <path
     style="fill:none;stroke:#000000;stroke-width:0.47893953px;stroke-linecap:butt;stroke-linejoin:miter;stroke-opacity:1"
     d="m 121.72162,108.64034 0.68106,0.029 4.18412,3.88291 -0.30068,0.32401 1.14112,1.05897 1.20273,-1.29602 1.14113,1.05898 0.30069,-0.32401 0.38037,0.35299 6.69472,-6.45114 2.28224,2.11795 0.60137,-0.64801 0.68106,0.029 0.76074,0.70598 0.0797,0.677 -0.30068,0.32401 0.76075,0.70598 1.36211,0.058 7.98788,7.41285 0.46006,1.02999 0.68106,0.029 0.76075,0.70598 0.0797,0.67701 -3.00683,3.24007 -0.68106,-0.029 -0.76075,-0.70598 -0.0797,-0.677 -1.06143,-0.38198 -7.98788,-7.41285 -0.46006,-1.02998 -0.76075,-0.70599 -0.30068,0.32401 -0.68107,-0.029 -0.76074,-0.70598 -0.0797,-0.67701 -4.20956,4.5361 0.76075,0.70599 1.44182,0.73497 4.94487,4.58891 0.31878,2.708 45.645,42.35913 2.12287,0.76396 4.18412,3.88292 0.0797,0.677 0.76075,0.70599 0.68106,0.029 1.14113,1.05899 0.0797,0.677"
     id="path820"
     inkscape:connector-curvature="0" />
  <path
     style="fill:none;stroke:#000000;stroke-width:0.47893953px;stroke-linecap:butt;stroke-linejoin:miter;stroke-opacity:1"
     d="m 194.67396,175.73798 1.14112,1.05897 0.0797,0.677 1.14111,1.05897 1.74249,0.41097 4.56451,4.23592 0.90205,-0.97202 -0.15938,-1.354 0.30068,-0.32401 0.30068,-0.32401 1.5215,1.41197 -0.30068,0.32401 0.76075,0.70598 1.06143,0.38199 3.04301,2.82394 2.64453,-0.56106 1.14113,1.05898 -0.90205,0.97202 1.5215,1.41197 0.0797,0.677 -0.90205,0.97202 0.53977,1.707 -0.30068,0.32401 2.66262,2.47094 0.31877,2.708 -0.74267,2.32602 2.66263,2.47095 -0.0616,2.35501 -1.20273,1.29603"
     id="path821"
     inkscape:connector-curvature="0" />
  <path
     style="fill:none;stroke:#000000;stroke-width:0.47893953px;stroke-linecap:butt;stroke-linejoin:miter;stroke-opacity:1"
     d="m 205.24477,184.94477 1.20273,-1.29602 3.043,2.82393 -0.98174,0.29503 -0.60137,0.64801 z"
     id="path823"
     inkscape:connector-curvature="0" />
  <path
     style="fill:none;stroke:#000000;stroke-width:0.47893953px;stroke-linecap:butt;stroke-linejoin:miter;stroke-opacity:1"
     d="m 210.16421,197.95271 c 0.31927,0.13323 0.60409,0.39753 0.76075,0.70598 0.1029,0.20259 0.1502,0.46099 0.0797,0.677 -0.0914,0.28014 -0.32881,0.53594 -0.60136,0.648 -0.21016,0.0864 -0.47136,0.0585 -0.68106,-0.029 -0.31927,-0.13323 -0.60408,-0.39753 -0.76074,-0.70598 -0.1029,-0.20259 -0.15019,-0.46099 -0.0797,-0.677 0.0914,-0.28014 0.32881,-0.53595 0.60136,-0.64801 0.21015,-0.0864 0.47135,-0.0585 0.68105,0.029 z"
     id="path825"
     inkscape:connector-curvature="0"
     sodipodi:nodetypes="sssssssss" />
  <path
     style="fill:none;stroke:#000000;stroke-width:0.47893953px;stroke-linecap:butt;stroke-linejoin:miter;stroke-opacity:1"
     d="m 207.19448,188.56326 5.51649,5.11937 -2.70614,2.91607 1.5215,1.41196 0.53976,1.70701 -1.50342,1.62004 -1.74249,-0.41097 -1.06143,-0.38198 -1.44181,-0.73497 -0.68106,-0.029 -0.90204,0.97202 -1.36212,-0.058 -4.5645,-4.23591 -1.28241,0.61902 -0.76076,-0.70599 -1.2389,-4.76798 3.00682,-3.24006 0.90204,-0.97202 1.06144,0.38197 1.14113,1.05898 -1.50341,1.62003 -1.50342,1.62005"
     id="path827"
     inkscape:connector-curvature="0"
     sodipodi:nodetypes="cccccccccccccccccccccc" />
  <path
     style="fill:none;stroke:#000000;stroke-width:0.47893953px;stroke-linecap:butt;stroke-linejoin:miter;stroke-opacity:1"
     d="m 198.62975,192.07294 0.53975,1.70698 1.14113,1.05898 0.60137,-0.64801 0.76075,0.70598 5.58559,-6.01887"
     id="path831"
     inkscape:connector-curvature="0"
     sodipodi:nodetypes="cccccc" />
  <path
     style="fill:none;stroke:#000000;stroke-width:0.47893953px;stroke-linecap:butt;stroke-linejoin:miter;stroke-opacity:1"
     d="m 195.52515,191.60399 -1.66281,0.26604 -1.90188,-1.76497 -1.52149,-1.41196 -0.71628,-1.87082 -1.34497,-1.24815 -0.68108,-0.029 -3.80374,-3.52992 -1.14464,-0.4592"
     id="path833"
     inkscape:connector-curvature="0"
     sodipodi:nodetypes="ccccccccc" />
  <path
     style="fill:none;stroke:#000000;stroke-width:0.47893953px;stroke-linecap:butt;stroke-linejoin:miter;stroke-opacity:1"
     d="m 139.97963,125.58401 -7.51706,8.10017 45.64501,42.35914"
     id="path835"
     inkscape:connector-curvature="0" />
  <path
     style="fill:none;stroke:#000000;stroke-width:0.47893953px;stroke-linecap:butt;stroke-linejoin:miter;stroke-opacity:1"
     d="m 218.53246,205.71855 -0.60136,0.64801 9.88975,9.17781 1.7425,0.41097 1.52149,1.41197 -0.30068,0.32401 1.52151,1.41197 -0.60136,0.64801 2.66262,2.47095 3.70596,-0.17908 9.12901,8.47183 1.20273,-1.29603 3.80375,3.52992 -0.22099,1.00102 -2.10478,2.26805 -13.23003,14.25631 -1.6628,0.26603 -2.28224,-2.11795 -0.46008,-1.03 -1.5215,-1.41197 -0.53975,-1.70699 0.0616,-2.35501 0.44199,-2.00201 0.22099,-1.00101 -1.6012,-2.08897 0.66298,-3.00302 -0.99984,-2.73699 -0.15938,-1.35399 0.60137,-0.64802 -0.76075,-0.70598 -0.68105,-0.029 -2.28225,-2.11795 -1.36214,-0.058 -0.68105,-0.029 0.0797,0.677 -0.30069,0.324 -1.06142,-0.38198 -0.76075,-0.70599 -0.0797,-0.67699 0.60137,-0.64801 -6.84676,-6.35388 -0.0797,-0.67699 -9.50938,-8.82482 -4.60801,1.15109 -1.06144,-0.38198 -4.56449,-4.23591"
     id="path837"
     inkscape:connector-curvature="0"
     sodipodi:nodetypes="ccccccccccccccccccccccccccccccc" />
  <path
     style="fill:none;stroke:#000000;stroke-width:0.47893953px;stroke-linecap:butt;stroke-linejoin:miter;stroke-opacity:1"
     d="m 195.4562,205.41003 -1.50342,1.62004 -3.31484,15.0151 -0.98176,0.29502 -12.13583,-5.23176 0.88397,-4.00402 1.6628,-0.26603 3.95239,-9.59912 0.90205,-0.97202 0.22099,-1.001 -6.0244,-8.00288"
     id="path840"
     inkscape:connector-curvature="0" />
  <path
     style="fill:none;stroke:#000000;stroke-width:0.47893953px;stroke-linecap:butt;stroke-linejoin:miter;stroke-opacity:1"
     d="m 179.11815,193.26336 -0.76075,-0.70599 -0.23908,-2.03101 0.30069,-0.32401"
     id="path842"
     inkscape:connector-curvature="0" />
  <path
     style="fill:none;stroke:#000000;stroke-width:0.47893953px;stroke-linecap:butt;stroke-linejoin:miter;stroke-opacity:1"
     d="m 178.41901,190.20235 -49.0684,-45.53608 -5.67706,-5.32567 0.11271,-1.64721 -3.043,-2.82394 -0.15939,-1.35399 -0.23908,-2.03101 1.80411,-1.94406 1.36211,0.058 0.1413,-1.67802 -2.04318,-0.087 -2.66262,-2.47095 -0.61944,-2.38399 -0.76076,-0.70599 -0.98174,0.29502 c 0,0 0.36111,0.67534 0.46006,1.03 0.0626,0.2243 0.14204,0.4722 0.0797,0.677 -0.30854,1.01366 -1.15853,1.81128 -2.10477,2.26804 -0.67591,0.32626 -1.55272,0.52177 -2.34387,0.23706 -1.64486,-0.59194 -3.95418,-3.66953 -3.95418,-3.66953 l -3.48648,-3.23551 0.13385,-0.47883 -1.90188,-1.76497 -1.52149,-1.41196 -0.98175,0.29502 -7.987877,-7.41285 -4.944876,-4.5889 -0.601365,0.64801 -2.282255,-2.11796 -0.07968,-0.67701 -0.760749,-0.70598 -0.30069,0.32401 -1.061417,-0.38197 -5.086189,-2.91091 -0.460059,-1.02998 0.662964,-3.00303 3.60819,-3.88808 1.521505,1.41198 1.202737,-1.29604 2.662622,2.47095 -0.300682,0.324 1.521498,1.41197 0.159391,1.35401 0.760742,0.70598 0.300682,-0.32401 1.521506,1.41197 0.300682,-0.324 1.521499,1.41197 -0.300683,0.324 0.460074,1.03 17.49724,16.23766 0.38038,0.353 0.30068,-0.32401 -3.20239,-4.17794"
     id="path844"
     inkscape:connector-curvature="0"
     sodipodi:nodetypes="cccccccccccccccssssc" />
  <path
     style="fill:none;stroke:#000000;stroke-width:0.47893953px;stroke-linecap:butt;stroke-linejoin:miter;stroke-opacity:1"
     d="m 113.3025,117.71255 4.94488,4.58891 -0.30067,0.324"
     id="path848"
     inkscape:connector-curvature="0" />
  <path
     style="fill:none;stroke:#000000;stroke-width:0.47893953px;stroke-linecap:butt;stroke-linejoin:miter;stroke-opacity:1"
     d="m 115.52316,122.18552 c -0.39394,-0.7502 -1.12441,-1.42808 -1.90189,-1.76498 -0.4398,-0.19056 -0.96296,-0.21283 -1.36212,-0.058 -0.7056,0.27377 -1.28302,0.89599 -1.50341,1.62004 -0.12465,0.40958 -0.0634,0.92963 0.15939,1.35399 0.39393,0.75021 1.1244,1.42809 1.90189,1.76498 0.43979,0.19057 0.96296,0.21283 1.3621,0.058 0.70561,-0.27376 1.28303,-0.89598 1.50341,-1.62004 0.12467,-0.40958 0.0635,-0.92963 -0.15937,-1.35399 z"
     id="path854"
     inkscape:connector-curvature="0"
     sodipodi:nodetypes="sssssssss" />
  <path
     style="fill:none;stroke:#000000;stroke-width:0.47893953px;stroke-linecap:butt;stroke-linejoin:miter;stroke-opacity:1"
     d="m 80.631515,100.27957 1.755486,-3.41743 3.908865,-4.21208"
     id="path856"
     inkscape:connector-curvature="0" />
  <path
     style="fill:none;stroke:#000000;stroke-width:0.47893953px;stroke-linecap:butt;stroke-linejoin:miter;stroke-opacity:1"
     d="m 88.817197,96.79902 -4.510237,4.8601"
     id="path858"
     inkscape:connector-curvature="0" />
  <path
     style="fill:none;stroke:#000000;stroke-width:0.47893953px;stroke-linecap:butt;stroke-linejoin:miter;stroke-opacity:1"
     d="m 93.001332,100.68194 -4.209555,4.5361"
     id="path860"
     inkscape:connector-curvature="0" />
  <path
     style="fill:none;stroke:#000000;stroke-width:0.47893953px;stroke-linecap:butt;stroke-linejoin:miter;stroke-opacity:1"
     d="m 101.94552,116.21879 3.60819,-3.88809"
     id="path862"
     inkscape:connector-curvature="0" />
  <path
     style="fill:none;stroke:#000000;stroke-width:0.47893953px;stroke-linecap:butt;stroke-linejoin:miter;stroke-opacity:1"
     d="m 105.36889,119.39572 3.60819,-3.88808"
     id="path864"
     inkscape:connector-curvature="0" />
  <path
     style="fill:none;stroke:#000000;stroke-width:0.47893953px;stroke-linecap:butt;stroke-linejoin:miter;stroke-opacity:1"
     d="m 117.15712,104.40444 -8.41911,9.0722"
     id="path866"
     inkscape:connector-curvature="0" />
  <path
     style="fill:none;stroke:#000000;stroke-width:0.47893953px;stroke-linecap:butt;stroke-linejoin:miter;stroke-opacity:1"
     d="m 121.72162,108.64034 -8.41912,9.07221"
     id="path868"
     inkscape:connector-curvature="0" />
  <path
     style="fill:none;stroke:#000000;stroke-width:0.47893953px;stroke-linecap:butt;stroke-linejoin:miter;stroke-opacity:1"
     d="m 126.28612,112.87626 -8.41912,9.0722"
     id="path870"
     inkscape:connector-curvature="0" />
  <path
     style="fill:none;stroke:#000000;stroke-width:0.47893953px;stroke-linecap:butt;stroke-linejoin:miter;stroke-opacity:1"
     d="m 132.51342,116.84613 -10.22321,11.01625"
     id="path874"
     inkscape:connector-curvature="0" />
  <path
     style="fill:none;stroke:#000000;stroke-width:0.47893953px;stroke-linecap:butt;stroke-linejoin:miter;stroke-opacity:1"
     d="m 138.90011,122.17002 -3.60819,3.88808 -0.68107,-0.029 -2.04317,-0.087 -0.90204,0.97201 0.61945,2.384 -2.70615,2.91606 -0.461,0.49677"
     id="path876"
     inkscape:connector-curvature="0" />
  <path
     style="fill:none;stroke:#000000;stroke-width:0.47893953px;stroke-linecap:butt;stroke-linejoin:miter;stroke-opacity:1"
     d="m 124.14856,135.01436 c 0,0 -0.87535,-0.62164 -1.14111,-1.05897 -0.44295,-0.72891 -0.78418,-1.63789 -0.61947,-2.38399 0.19768,-0.89532 0.92603,-1.68017 1.80411,-1.94405 0.73174,-0.2199 1.66365,0.0526 2.42355,0.43995 0.7599,0.38735 1.35638,1.09773 1.90187,1.76497 0.34503,0.42196 0.666,0.88691 0.84045,1.38297 0.15602,0.4437 0.15938,1.35401 0.15938,1.35401 0,0 -0.95739,1.61552 -1.80411,1.94405 -0.19955,0.0774 -0.51241,-0.15311 -0.68105,-0.029 -0.7999,0.58871 -0.20402,2.11656 -0.66297,3.00302 -0.13688,0.26423 -0.29752,0.58799 -0.60136,0.64802 -0.33969,0.0671 -1.74249,-0.41097 -1.74249,-0.41097 l -0.38038,-0.35299 z"
     id="path878"
     inkscape:connector-curvature="0"
     sodipodi:nodetypes="csssssscssssccc" />
  <path
     style="fill:none;stroke:#000000;stroke-width:0.47893953px;stroke-linecap:butt;stroke-linejoin:miter;stroke-opacity:1"
     d="m 126.17366,132.06932 c 0.32105,0.0137 0.72319,0.38684 0.76074,0.70597 0.0376,0.31914 -0.28031,0.66168 -0.60137,0.64802 -0.32104,-0.0137 -0.72318,-0.38684 -0.76073,-0.70597 -0.0376,-0.31915 0.28031,-0.66169 0.60136,-0.64802 z"
     id="path880"
     inkscape:connector-curvature="0"
     sodipodi:nodetypes="sssss" />
  <path
     style="fill:none;stroke:#000000;stroke-width:0.47893953px;stroke-linecap:butt;stroke-linejoin:miter;stroke-opacity:1"
     d="m 128.97024,144.31328 c 0,0 1.66795,0.0892 2.34385,-0.23705 0.94625,-0.45676 2.10477,-2.26804 2.10477,-2.26804 l 1.90188,1.76497 c 1.09277,1.0141 3.14392,0.42656 4.00666,-0.50311 l 1.50342,-1.62003"
     id="path882"
     inkscape:connector-curvature="0"
     sodipodi:nodetypes="cscssc" />
  <path
     style="fill:none;stroke:#000000;stroke-width:0.47893953px;stroke-linecap:butt;stroke-linejoin:miter;stroke-opacity:1"
     d="m 132.8175,142.45619 -6.086,-5.64788"
     id="path884"
     inkscape:connector-curvature="0" />
  <path
     style="fill:none;stroke:#000000;stroke-width:0.47893953px;stroke-linecap:butt;stroke-linejoin:miter;stroke-opacity:1"
     d="m 25.425107,21.688184 -6.013643,6.480133"
     id="path886"
     inkscape:connector-curvature="0" />
  <path
     style="fill:none;stroke:#000000;stroke-width:0.47893953px;stroke-linecap:butt;stroke-linejoin:miter;stroke-opacity:1"
     d="m 23.903602,20.276208 -6.013644,6.480133"
     id="path888"
     inkscape:connector-curvature="0" />
  <path
     style="fill:none;stroke:#000000;stroke-width:0.47893953px;stroke-linecap:butt;stroke-linejoin:miter;stroke-opacity:1"
     d="m 29.228853,25.218106 -6.013644,6.480133"
     id="path890"
     inkscape:connector-curvature="0" />
  <path
     style="fill:none;stroke:#000000;stroke-width:0.47893953px;stroke-linecap:butt;stroke-linejoin:miter;stroke-opacity:1"
     d="m 113.29175,103.22952 -6.01364,6.48013"
     id="path892"
     inkscape:connector-curvature="0" />
  <path
     style="fill:none;stroke:#000000;stroke-width:0.47893953px;stroke-linecap:butt;stroke-linejoin:miter;stroke-opacity:1"
     d="m 151.82211,119.68874 -3.00682,3.24007"
     id="path894"
     inkscape:connector-curvature="0" />
  <path
     style="fill:none;stroke:#000000;stroke-width:0.47893953px;stroke-linecap:butt;stroke-linejoin:miter;stroke-opacity:1"
     d="m 136.72297,112.31004 2.70615,-2.91607"
     id="path896"
     inkscape:connector-curvature="0" />
  <path
     style="fill:none;stroke:#000000;stroke-width:0.47893953px;stroke-linecap:butt;stroke-linejoin:miter;stroke-opacity:1"
     d="m 141.25131,110.48195 -2.70614,2.91606"
     id="path898"
     inkscape:connector-curvature="0" />
  <path
     style="fill:none;stroke:#000000;stroke-width:0.47893953px;stroke-linecap:butt;stroke-linejoin:miter;stroke-opacity:1"
     d="m 184.73334,183.3982 c 0.48158,0.0205 1.08477,0.58027 1.14113,1.05899 0.0563,0.47871 -0.42047,0.99251 -0.90204,0.97201 -0.48159,-0.0205 -1.08478,-0.58026 -1.14113,-1.05898 -0.0564,-0.4787 0.42045,-0.99251 0.90204,-0.97202 z"
     id="path902"
     inkscape:connector-curvature="0"
     sodipodi:nodetypes="sssss" />
  <path
     style="fill:none;stroke:#000000;stroke-width:0.47893953px;stroke-linecap:butt;stroke-linejoin:miter;stroke-opacity:1"
     d="m 185.62464,167.94314 -7.51706,8.10018 0.92013,2.05999 3.80375,3.52993"
     id="path904"
     inkscape:connector-curvature="0"
     sodipodi:nodetypes="cccc" />
  <path
     style="fill:none;stroke:#000000;stroke-width:0.47893953px;stroke-linecap:butt;stroke-linejoin:miter;stroke-opacity:1"
     d="m 192.01133,173.26702 -7.81774,8.42419"
     id="path910"
     inkscape:connector-curvature="0" />
  <path
     style="fill:none;stroke:#000000;stroke-width:0.47893953px;stroke-linecap:butt;stroke-linejoin:miter;stroke-opacity:1"
     d="m 194.67396,175.73798 -7.81774,8.42418"
     id="path912"
     inkscape:connector-curvature="0" />
  <path
     style="fill:none;stroke:#000000;stroke-width:0.47893953px;stroke-linecap:butt;stroke-linejoin:miter;stroke-opacity:1"
     d="m 184.19359,181.69121 -0.30069,0.32401"
     id="path916"
     inkscape:connector-curvature="0" />
  <path
     style="fill:none;stroke:#000000;stroke-width:0.47893953px;stroke-linecap:butt;stroke-linejoin:miter;stroke-opacity:1"
     d="m 186.85622,184.16216 -0.30069,0.32401"
     id="path918"
     inkscape:connector-curvature="0" />
  <path
     style="fill:none;stroke:#000000;stroke-width:0.47893953px;stroke-linecap:butt;stroke-linejoin:miter;stroke-opacity:1"
     d="M 190.43897,188.6931 Z"
     id="path922"
     inkscape:connector-curvature="0" />
  <path
     style="fill:none;stroke:#000000;stroke-width:0.47893953px;stroke-linecap:butt;stroke-linejoin:miter;stroke-opacity:1"
     d="m 203.34289,183.17981 -3.90888,4.2121"
     id="path928"
     inkscape:connector-curvature="0" />
  <path
     style="fill:none;stroke:#000000;stroke-width:0.47893953px;stroke-linecap:butt;stroke-linejoin:miter;stroke-opacity:1"
     d="m 205.24477,184.94477 -3.60819,3.88809"
     id="path930"
     inkscape:connector-curvature="0" />
  <path
     style="fill:none;stroke:#000000;stroke-width:0.47893953px;stroke-linecap:butt;stroke-linejoin:miter;stroke-opacity:1"
     d="m 179.71952,192.61533 5.56433,6.9729 2.56484,-1.23806 0.66298,-3.00302 -5.32526,-4.94191 -0.76074,-0.70598 -2.04318,-0.087 -1.20273,1.29603 z"
     id="path940"
     inkscape:connector-curvature="0" />
  <path
     style="fill:none;stroke:#000000;stroke-width:0.47893953px;stroke-linecap:butt;stroke-linejoin:miter;stroke-opacity:1"
     d="m 186.99017,193.93518 -1.8041,1.94405 -1.36212,-0.058 -0.68106,-0.029 c 0,0 -0.25358,-0.23532 -0.38037,-0.35299 -0.1268,-0.11766 -0.38038,-0.35299 -0.38038,-0.35299 -0.93875,-0.87118 0.62841,-0.31006 1.66279,-0.26604 l 1.80411,-1.94405"
     id="path942"
     inkscape:connector-curvature="0"
     sodipodi:nodetypes="ccccsscc" />
  <path
     style="fill:none;stroke:#000000;stroke-width:0.47893953px;stroke-linecap:butt;stroke-linejoin:miter;stroke-opacity:1"
     d="m 189.93539,193.05011 c 0.48158,0.0205 1.08477,0.58027 1.14113,1.05898 0.0563,0.47871 -0.42049,0.99252 -0.90206,0.97203 -0.48158,-0.0205 -1.08477,-0.58027 -1.14113,-1.05899 -0.0564,-0.4787 0.42048,-0.99251 0.90206,-0.97202 z"
     id="path944"
     inkscape:connector-curvature="0"
     sodipodi:nodetypes="sssss" />
  <path
     style="fill:none;stroke:#000000;stroke-width:0.47893953px;stroke-linecap:butt;stroke-linejoin:miter;stroke-opacity:1"
     d="m 185.37089,188.8142 c 0.0563,0.47872 -0.42047,0.99252 -0.90205,0.97203 -0.48158,-0.0205 -1.08477,-0.58027 -1.14113,-1.05898 -0.0564,-0.47871 0.42047,-0.99252 0.90206,-0.97203 0.48158,0.0205 1.08477,0.58027 1.14112,1.05898 z"
     id="path946"
     inkscape:connector-curvature="0"
     sodipodi:nodetypes="sssss" />
  <path
     style="fill:none;stroke:#000000;stroke-width:0.47893953px;stroke-linecap:butt;stroke-linejoin:miter;stroke-opacity:1"
     d="m 180.06712,212.83838 11.58951,5.05759"
     id="path948"
     inkscape:connector-curvature="0" />
  <path
     style="fill:none;stroke:#000000;stroke-width:0.47893953px;stroke-linecap:butt;stroke-linejoin:miter;stroke-opacity:1"
     d="m 187.55875,213.15721 c 0.32106,0.0137 0.72319,0.38686 0.76076,0.70599 0.0376,0.31914 -0.28032,0.66168 -0.60137,0.64802 -0.32105,-0.0137 -0.72318,-0.38685 -0.76076,-0.70599 -0.0376,-0.31913 0.28033,-0.66167 0.60137,-0.64802 z"
     id="path950"
     inkscape:connector-curvature="0"
     sodipodi:nodetypes="sssss" />
  <path
     style="fill:none;stroke:#000000;stroke-width:0.47893953px;stroke-linecap:butt;stroke-linejoin:miter;stroke-opacity:1"
     d="m 190.30842,204.85414 c 0.32105,0.0137 0.72318,0.38683 0.76075,0.70598 0.0376,0.31914 -0.28031,0.66169 -0.60137,0.64802 -0.32105,-0.0137 -0.72318,-0.38686 -0.76075,-0.70599 -0.0376,-0.31914 0.28032,-0.66168 0.60137,-0.64801 z"
     id="path952"
     inkscape:connector-curvature="0"
     sodipodi:nodetypes="sssss" />
  <path
     style="fill:none;stroke:#000000;stroke-width:0.47893953px;stroke-linecap:butt;stroke-linejoin:miter;stroke-opacity:1"
     d="m 185.99374,217.13226 c -0.48158,-0.0205 -0.9584,0.49331 -0.90205,0.97202 0.0563,0.47871 0.65954,1.03848 1.14112,1.05897 0.48158,0.0205 0.9584,-0.4933 0.90205,-0.97202 -0.0564,-0.47871 -0.65954,-1.03848 -1.14112,-1.05897 z"
     id="path954"
     inkscape:connector-curvature="0"
     sodipodi:nodetypes="sssss" />
  <path
     style="fill:none;stroke:#000000;stroke-width:0.47893953px;stroke-linecap:butt;stroke-linejoin:miter;stroke-opacity:1"
     d="m 231.70431,219.7513 -6.01365,6.48014"
     id="path956"
     inkscape:connector-curvature="0" />
  <path
     style="fill:none;stroke:#000000;stroke-width:0.47893953px;stroke-linecap:butt;stroke-linejoin:miter;stroke-opacity:1"
     d="m 234.36693,222.22225 -5.71297,6.15614"
     id="path958"
     inkscape:connector-curvature="0" />
  <path
     style="fill:none;stroke:#000000;stroke-width:0.47893953px;stroke-linecap:butt;stroke-linejoin:miter;stroke-opacity:1"
     d="m 222.12598,224.73252 1.52149,1.41197"
     id="path960"
     inkscape:connector-curvature="0" />
  <path
     style="fill:none;stroke:#000000;stroke-width:0.47893953px;stroke-linecap:butt;stroke-linejoin:miter;stroke-opacity:1"
     d="m 227.82085,215.54437 -7.21638,7.77617"
     id="path962"
     inkscape:connector-curvature="0" />
  <path
     style="fill:none;stroke:#000000;stroke-width:0.47893953px;stroke-linecap:butt;stroke-linejoin:miter;stroke-opacity:1"
     d="m 205.69014,208.87683 4.22765,-1.5041 c 0,0 0.46116,-0.0663 0.68106,0.029 0.1555,0.0674 0.31338,0.1709 0.44017,0.28856 0.12679,0.11766 0.24173,0.26744 0.32058,0.41742 0.11145,0.21216 0.0797,0.677 0.0797,0.677 l 0.45206,5.84692"
     id="path964"
     inkscape:connector-curvature="0"
     sodipodi:nodetypes="ccssscc" />
  <path
     style="fill:none;stroke:#000000;stroke-width:0.47893953px;stroke-linecap:butt;stroke-linejoin:miter;stroke-opacity:1"
     d="m 216.6922,201.59857 c 0.64211,0.0273 1.44637,0.77369 1.5215,1.41197 0.0751,0.63829 -0.56062,1.32336 -1.20274,1.29604 -0.6421,-0.0273 -1.44636,-0.77369 -1.52149,-1.41197 -0.0751,-0.63829 0.56062,-1.32336 1.20273,-1.29604 z"
     id="path966"
     inkscape:connector-curvature="0"
     sodipodi:nodetypes="sssss" />
  <path
     style="fill:none;stroke:#000000;stroke-width:0.47893953px;stroke-linecap:butt;stroke-linejoin:miter;stroke-opacity:1"
     d="m 133.7088,127.00114 c 0.32106,0.0137 0.72319,0.38684 0.76075,0.70599 0.0376,0.31914 -0.28031,0.66167 -0.60136,0.64801 -0.32106,-0.0137 -0.72319,-0.38684 -0.76076,-0.70599 -0.0376,-0.31913 0.28032,-0.66166 0.60137,-0.64801 z"
     id="path968"
     inkscape:connector-curvature="0"
     sodipodi:nodetypes="sssss" />
  <path
     style="fill:none;stroke:#000000;stroke-width:0.47893953px;stroke-linecap:butt;stroke-linejoin:miter;stroke-opacity:1"
     d="m 247.2019,230.515 -15.33481,16.52436"
     id="path970"
     inkscape:connector-curvature="0" />
  <path
     style="fill:none;stroke:#000000;stroke-width:0.47893953px;stroke-linecap:butt;stroke-linejoin:miter;stroke-opacity:1"
     d="m 110.87896,117.27261 -0.42029,7.87934"
     id="path1024"
     inkscape:connector-curvature="0"
     sodipodi:nodetypes="cc" />
  <path
     style="fill:none;stroke:#000000;stroke-width:0.50799203px;stroke-linecap:butt;stroke-linejoin:miter;stroke-opacity:1"
     d="m 110.81736,119.6276 -2.70615,2.91607"
     id="path1026"
     inkscape:connector-curvature="0" />
  <path
     style="fill:none;stroke:#000000;stroke-width:0.47893953px;stroke-linecap:butt;stroke-linejoin:miter;stroke-opacity:1"
     d="m 130.45216,113.72717 2.66262,2.47095"
     id="path1028"
     inkscape:connector-curvature="0" />
  <path
     style="opacity:1;fill:#ff7f2a;fill-opacity:1;stroke:#000000;stroke-width:0.00626524;stroke-linecap:round;stroke-miterlimit:4;stroke-dasharray:none;stroke-dashoffset:0;stroke-opacity:1;paint-order:stroke markers fill"
     d="m 181.92614,209.26028 c 0.77526,-1.88922 1.62101,-3.95864 1.87942,-4.59871 0.25842,-0.64007 0.67491,-1.38472 0.92554,-1.65479 0.25062,-0.27006 0.51864,-0.78866 0.59559,-1.15244 l 0.1399,-0.6614 -3.06773,-4.07289 c -1.68723,-2.24007 -3.22191,-4.21585 -3.41037,-4.39061 -0.35262,-0.32701 -0.60322,-1.79772 -0.39907,-2.34226 0.0983,-0.26226 -1.1828,-1.47076 -24.37357,-22.99208 l -24.47734,-22.71528 0.92136,-0.12181 c 0.88052,-0.1164 0.96571,-0.1696 1.9226,-1.20071 l 1.00125,-1.07892 1.02235,0.94876 c 1.25281,1.16262 1.9762,1.38752 3.27098,1.01694 0.72298,-0.20694 1.05817,-0.4341 1.95844,-1.32738 l 1.08611,-1.07775 18.41539,17.08971 18.4154,17.08972 0.4803,1.08534 c 0.46812,1.05782 0.53,1.13148 2.43847,2.90256 1.43635,1.33295 2.12932,1.89077 2.60041,2.0934 0.35325,0.15192 0.77873,0.40285 0.94552,0.55764 0.27691,0.25697 0.25861,0.31871 -0.21085,0.71046 -0.66172,0.5522 -0.64503,1.26698 0.0445,1.90691 0.70476,0.65403 1.38074,0.62231 1.88443,-0.0884 l 0.39954,-0.56374 0.70667,0.6558 c 0.46409,0.43068 0.8189,0.65013 1.03355,0.63933 0.52816,-0.0266 1.24335,0.7735 1.67676,1.87587 0.38774,0.98619 0.43505,1.04336 2.28075,2.7562 1.03664,0.96201 1.92095,1.71077 1.9652,1.66382 0.0442,-0.0469 0.35976,-0.10449 0.70119,-0.12793 l 0.62079,-0.0426 0.59294,2.29844 c 0.51655,2.00226 0.65825,2.35087 1.0996,2.70521 0.45427,0.36468 0.57381,0.37538 1.15603,0.10327 l 0.64938,-0.3035 2.23036,2.0698 2.23034,2.06979 0.7804,0.0211 c 0.61866,0.0168 0.87027,-0.0757 1.21411,-0.44624 0.50912,-0.54861 0.67599,-0.54277 1.97763,0.0693 0.53994,0.25391 1.53985,0.60108 2.22204,0.7715 l 1.24032,0.30986 0.87642,-0.95029 0.87643,-0.95028 -0.32294,-0.99262 c -0.25568,-0.78589 -0.4633,-1.12288 -0.99692,-1.61808 l -0.67398,-0.62546 1.32884,-1.43192 1.32885,-1.43193 -2.89137,-2.68322 -2.89139,-2.68325 -2.8703,3.09295 -2.8703,3.09296 -0.40345,-0.37441 c -0.34069,-0.31616 -0.4448,-0.32983 -0.66921,-0.088 -0.2247,0.24213 -0.32837,0.22829 -0.67111,-0.0898 -0.22293,-0.20688 -0.50792,-0.68723 -0.63328,-1.06741 l -0.22795,-0.69126 3.16118,-3.40934 3.16118,-3.40933 1.34483,1.24802 1.34483,1.24802 0.45694,-0.48209 c 0.25143,-0.26505 0.66265,-0.53105 0.91453,-0.59046 0.25188,-0.0594 0.49599,-0.1447 0.54245,-0.18952 0.0468,-0.0446 -0.73248,-0.83966 -1.73102,-1.76632 l -1.81551,-1.68482 -2.39192,2.57747 -2.39191,2.57745 -0.41229,-0.38261 c -0.22676,-0.21043 -0.57887,-0.43788 -0.78247,-0.50543 -0.3606,-0.11964 -0.31148,-0.18606 1.89928,-2.56832 l 2.26946,-2.44551 -0.0979,-0.70364 c -0.14281,-1.02633 0.15028,-1.24639 0.82547,-0.6198 0.3885,0.36053 0.49365,0.54692 0.37847,0.67104 -0.21079,0.22714 0.80204,1.16707 1.47932,1.37282 0.34391,0.10448 0.95156,0.57613 2.05674,1.59643 l 1.56892,1.44779 1.30342,-0.28287 c 1.14507,-0.2485 1.35172,-0.23805 1.70087,0.086 0.38078,0.35337 0.37758,0.39023 -0.0761,0.87908 l -0.47353,0.51026 0.87632,0.87627 0.87634,0.87629 -0.49632,0.61436 c -0.45971,0.56902 -0.47623,0.67144 -0.22427,1.38796 0.1505,0.42799 0.18825,0.86386 0.0845,0.97565 -0.16706,0.18003 -0.0358,0.34285 1.20324,1.49271 l 1.39075,1.29063 0.13018,1.45336 c 0.0978,1.09162 0.0341,1.72239 -0.25585,2.53427 l -0.38601,1.08094 1.37165,1.27291 1.37163,1.27289 -0.037,1.00692 c -0.0349,0.9471 -0.0851,1.05873 -0.84671,1.87936 l -0.80963,0.87244 4.97586,4.61767 4.97587,4.61767 -3.40183,3.66571 -3.40183,3.66572 -2.54723,-2.36385 c -1.55309,-1.44129 -2.53818,-2.43869 -2.52405,-2.55554 0.0134,-0.11025 -0.69827,-0.86755 -1.6761,-1.78355 l -1.69923,-1.59192 -0.12831,-1.86314 c -0.31519,-4.57733 -0.3381,-4.72296 -0.81228,-5.163 -0.24481,-0.22719 -0.60687,-0.44326 -0.80456,-0.48013 -0.19769,-0.0369 -1.3738,0.28684 -2.61358,0.71938 -2.83065,0.98756 -6.72047,1.98543 -7.1371,1.83088 -0.17381,-0.0644 -1.42975,-1.10177 -2.79103,-2.30511 l -2.47497,-2.18793 -0.90832,0.90072 -0.90832,0.90072 -1.13456,5.14405 c -0.62402,2.82924 -1.17102,5.18283 -1.21557,5.23021 -0.0445,0.0474 -2.22251,-0.85242 -4.8399,-1.99957 -2.61738,-1.14716 -5.01597,-2.19814 -5.33019,-2.33552 l -0.57129,-0.24979 z m 5.66486,5.51691 c 0.42432,0.14079 1.08557,-0.44468 1.03051,-0.91241 -0.0551,-0.46774 -0.86149,-1.11565 -1.25678,-1.00975 -1.04564,0.28012 -0.89617,1.54975 0.22627,1.92216 z m 3.20948,-8.37877 c 1.11867,-0.36116 0.33072,-2.0226 -0.82389,-1.73723 -0.42909,0.10606 -0.483,0.17191 -0.52669,0.64311 -0.0674,0.72701 0.66068,1.3168 1.35055,1.09409 z m -4.10718,-7.10615 1.46715,-0.71848 0.35837,-1.63837 0.35836,-1.63835 -3.188,-2.95851 -3.188,-2.9585 -1.14438,-0.0573 c -1.13978,-0.057 -1.14723,-0.0542 -1.85487,0.70832 l -0.71049,0.76561 0.32379,0.96897 c 0.28745,0.86029 0.6391,1.36621 3.13516,4.51084 1.54627,1.94804 2.84837,3.58516 2.89357,3.63806 0.0452,0.0529 0.74239,-0.22715 1.54934,-0.62232 z m -2.33542,-9.27068 c 0.72387,0.11515 1.4171,-0.53201 1.30252,-1.21594 -0.10857,-0.64805 -0.96751,-1.39179 -1.56414,-1.3544 -1.5696,0.0984 -1.344,2.31491 0.26164,2.57032 z m 5.91247,5.38821 c 0.53386,0.0227 1.25293,-0.8263 1.11842,-1.32058 -0.14805,-0.5441 -0.95145,-1.26021 -1.46677,-1.30743 -0.42852,-0.0392 -1.16598,0.57897 -1.1987,1.00485 -0.0539,0.70222 0.79324,1.59105 1.54704,1.62314 z m 26.26043,9.04716 c 1.04794,0.45068 2.02578,-0.29181 1.93918,-1.47247 -0.0546,-0.74388 -0.99806,-1.59665 -1.8045,-1.63094 -0.80658,-0.0343 -1.55826,0.74677 -1.43541,1.49162 0.14707,0.89189 0.42366,1.23464 1.30071,1.61183 z"
     id="path1030"
     inkscape:connector-curvature="0" />
  <path
     style="opacity:1;fill:#ff7f2a;fill-opacity:1;stroke:#000000;stroke-width:0.00626524;stroke-linecap:round;stroke-miterlimit:4;stroke-dasharray:none;stroke-dashoffset:0;stroke-opacity:1;paint-order:stroke markers fill"
     d="m 127.62741,136.78738 c 0.32081,-0.002 0.6305,-0.23303 1.34277,-1.00055 l 0.92578,-0.9976 -0.14024,-1.06261 -0.14023,-1.0626 1.52143,-1.64533 1.52143,-1.64533 -0.31952,-1.13333 c -0.28584,-1.01389 -0.27907,-1.1769 0.0642,-1.54678 0.32422,-0.34937 0.58783,-0.40352 1.70076,-0.34927 l 1.31709,0.0642 1.78428,-1.92269 c 1.38187,-1.48906 1.8232,-1.88657 1.95698,-1.76243 0.095,0.0882 0.2357,0.72545 0.31268,1.41623 l 0.13999,1.25595 -3.79714,4.0917 -3.79715,4.0917 4.25608,3.94969 4.25611,3.94973 -1.02366,0.94755 c -1.10994,1.0274 -1.91148,1.37202 -2.99887,1.28931 -0.55971,-0.0426 -0.7645,-0.16857 -1.94295,-1.19547 -1.30562,-1.13768 -1.31902,-1.14494 -1.51076,-0.81567 l -0.19351,0.33215 -2.82634,-2.62287 c -2.72959,-2.53309 -2.81192,-2.62314 -2.40936,-2.62582 z m 6.32775,-8.14466 c 0.49073,0.0209 0.83218,-0.35669 0.79671,-0.881 -0.032,-0.47246 -0.59674,-1.07016 -1.02849,-1.08855 -0.37327,-0.0159 -0.95794,0.61412 -0.91425,0.98516 0.0479,0.40667 0.69829,0.96532 1.14606,0.98442 z"
     id="path1032"
     inkscape:connector-curvature="0" />
  <path
     style="opacity:1;fill:#ff7f2a;fill-opacity:1;stroke:#000000;stroke-width:0.00626524;stroke-linecap:round;stroke-miterlimit:4;stroke-dasharray:none;stroke-dashoffset:0;stroke-opacity:1;paint-order:stroke markers fill"
     d="m 123.94206,128.41753 c 0.069,-0.78567 0.0556,-0.81631 -0.37298,-0.85558 -0.43829,-0.0401 -0.37785,-0.11261 4.3026,-5.15613 l 4.74716,-5.1154 0.31931,0.29632 c 0.1756,0.16297 0.64834,0.45776 1.0505,0.65508 0.51526,0.25279 1.28229,0.87016 2.59707,2.0903 l 1.86584,1.73152 -1.67796,1.80813 -1.67798,1.80815 -1.31708,-0.0642 c -1.28355,-0.0626 -1.33198,-0.048 -1.90251,0.57245 l -0.58538,0.63668 0.31951,1.13333 0.31952,1.13333 -1.41859,1.52863 -1.41858,1.52862 -0.29596,-0.42282 c -0.16279,-0.23252 -0.65734,-0.76162 -1.09904,-1.17571 -0.91466,-0.857 -1.67513,-1.17984 -2.9794,-1.26347 l -0.84758,-0.0543 z"
     id="path1034"
     inkscape:connector-curvature="0" />
  <path
     style="opacity:1;fill:#ff7f2a;fill-opacity:1;stroke:#000000;stroke-width:0.00626524;stroke-linecap:round;stroke-miterlimit:4;stroke-dasharray:none;stroke-dashoffset:0;stroke-opacity:1;paint-order:stroke markers fill"
     d="m 118.9128,123.97993 c -0.16399,-0.62505 -0.34776,-1.18248 -0.40836,-1.23872 -0.0606,-0.0563 -0.0384,-0.17958 0.0493,-0.27409 0.0877,-0.0945 0.0687,-0.25608 -0.0423,-0.35903 -0.17573,-0.16308 0.31208,-0.74088 3.7848,-4.48298 l 3.98652,-4.29577 0.60518,0.56161 0.60518,0.56161 0.63784,-0.68731 0.63784,-0.68733 0.53793,0.4992 c 0.29586,0.27456 0.58576,0.44769 0.64424,0.38466 0.0634,-0.0683 0.62223,0.36423 1.38514,1.07222 l 1.27885,1.18679 -5.32368,5.66667 -5.32369,5.66668 -1.37836,-1.21884 -1.37837,-1.21885 z"
     id="path1036"
     inkscape:connector-curvature="0" />
  <path
     style="opacity:1;fill:#ff7f2a;fill-opacity:1;stroke:#000000;stroke-width:0.00626524;stroke-linecap:round;stroke-miterlimit:4;stroke-dasharray:none;stroke-dashoffset:0;stroke-opacity:1;paint-order:stroke markers fill"
     d="m 117.88874,113.26839 4.15459,-4.40631 2.01307,1.80908 2.01308,1.80909 -4.14882,4.47066 -4.14883,4.47066 -2.01882,-1.87349 -2.01883,-1.87349 z"
     id="path1038"
     inkscape:connector-curvature="0" />
  <path
     style="opacity:1;fill:#ff7f2a;fill-opacity:1;stroke:#000000;stroke-width:0.00626524;stroke-linecap:round;stroke-miterlimit:4;stroke-dasharray:none;stroke-dashoffset:0;stroke-opacity:1;paint-order:stroke markers fill"
     d="m 113.15139,109.13858 3.98653,-4.29577 2.08449,1.93443 2.08449,1.93444 -3.98653,4.29577 -3.98652,4.29577 -2.08449,-1.93444 -2.0845,-1.93443 z"
     id="path1040"
     inkscape:connector-curvature="0" />
  <path
     style="opacity:1;fill:#ff7f2a;fill-opacity:1;stroke:#000000;stroke-width:0.00626524;stroke-linecap:round;stroke-miterlimit:4;stroke-dasharray:none;stroke-dashoffset:0;stroke-opacity:1;paint-order:stroke markers fill"
     d="m 107.75205,111.10317 -0.12513,-1.13618 2.97695,-3.20788 2.97696,-3.20788 1.14437,0.0573 c 0.88581,0.0443 1.24208,0.14793 1.57683,0.45859 l 0.43245,0.40131 -3.98653,4.29577 -3.98653,4.29577 -0.44213,-0.4103 c -0.34992,-0.32474 -0.4682,-0.6472 -0.56724,-1.54648 z"
     id="path1042"
     inkscape:connector-curvature="0" />
  <path
     style="opacity:1;fill:#ff7f2a;fill-opacity:1;stroke:#000000;stroke-width:0.00626524;stroke-linecap:round;stroke-miterlimit:4;stroke-dasharray:none;stroke-dashoffset:0;stroke-opacity:1;paint-order:stroke markers fill"
     d="m 131.8118,112.86364 c 0.52672,-0.47864 1.68449,-1.58694 2.57283,-2.46288 0.88833,-0.87595 1.89914,-1.8328 2.24623,-2.12633 l 0.63112,-0.53365 0.86445,0.80221 0.86447,0.80225 -2.9766,3.20751 -2.97661,3.2075 -1.09178,-1.01318 -1.09177,-1.01318 z"
     id="path1044"
     inkscape:connector-curvature="0" />
  <path
     style="opacity:1;fill:#ff7f2a;fill-opacity:1;stroke:#000000;stroke-width:0.00443019;stroke-linecap:round;stroke-miterlimit:4;stroke-dasharray:none;stroke-dashoffset:0;stroke-opacity:1;paint-order:stroke markers fill"
     d="m 178.88962,177.05839 -0.43913,-1.00486 3.60644,-3.88619 3.60644,-3.88621 1.06016,0.37912 1.06016,0.37911 1.93679,1.79737 c 1.75556,1.62918 1.93866,1.82489 1.95671,2.09155 0.018,0.26582 -0.35798,0.7014 -3.90031,4.5185 l -3.92021,4.22432 -0.52847,-0.18583 c -0.47492,-0.16701 -0.70428,-0.34977 -2.26394,-1.80393 l -1.73517,-1.61844 z"
     id="path1046"
     inkscape:connector-curvature="0" />
  <path
     style="opacity:1;fill:#ff7f2a;fill-opacity:1;stroke:#000000;stroke-width:0.00443019;stroke-linecap:round;stroke-miterlimit:4;stroke-dasharray:none;stroke-dashoffset:0;stroke-opacity:1;paint-order:stroke markers fill"
     d="m 188.14286,177.81529 3.90887,-4.21209 0.36563,0.33932 c 0.24488,0.22724 0.47215,0.33856 0.68811,0.33703 0.23513,-0.002 0.44322,0.1098 0.76844,0.41162 0.80774,0.74959 1.01999,0.42663 -3.43594,5.22821 l -3.92174,4.22597 -1.14113,-1.05898 -1.14112,-1.05898 z"
     id="path1048"
     inkscape:connector-curvature="0" />
  <path
     style="opacity:1;fill:#ff7f2a;fill-opacity:1;stroke:#000000;stroke-width:0.00443019;stroke-linecap:round;stroke-miterlimit:4;stroke-dasharray:none;stroke-dashoffset:0;stroke-opacity:1;paint-order:stroke markers fill"
     d="m 190.37924,187.73027 c -0.33612,-0.8907 -0.38368,-0.95912 -1.18079,-1.69884 -0.70979,-0.6587 -0.87748,-0.77039 -1.15302,-0.76849 -0.22821,0.002 -0.44323,-0.1098 -0.73565,-0.38116 l -0.41318,-0.38344 3.90888,-4.2121 3.90887,-4.21209 0.41319,0.38344 c 0.29241,0.27136 0.41954,0.47747 0.43496,0.70516 0.0181,0.26804 0.14234,0.43355 0.74426,0.99172 0.68377,0.6341 0.76912,0.68102 1.59324,0.876 l 0.87076,0.20599 2.11607,1.96326 2.11608,1.96327 -3.77131,4.06386 -3.77131,4.06387 -0.79418,0.14059 -0.79419,0.14059 -1.57124,-1.45676 -1.57123,-1.45677 -0.35024,-0.92806 z"
     id="path1050"
     inkscape:connector-curvature="0" />
  <path
     style="opacity:1;fill:#ff7f2a;fill-opacity:1;stroke:#000000;stroke-width:0.00443019;stroke-linecap:round;stroke-miterlimit:4;stroke-dasharray:none;stroke-dashoffset:0;stroke-opacity:1;paint-order:stroke markers fill"
     d="m 196.46641,194.0558 -0.58421,-2.27892 1.86413,-2.00874 1.86413,-2.00874 0.46274,0.17536 c 0.25449,0.0965 0.63244,0.33286 0.83987,0.52536 l 0.37715,0.35 -1.37039,1.47964 c -0.7538,0.81374 -1.41546,1.57421 -1.47034,1.68994 -0.0548,0.11581 0.0209,0.57621 0.16842,1.02317 0.25404,0.76997 0.30896,0.85056 1.04505,1.53366 l 0.77692,0.721 0.30069,-0.32401 0.30068,-0.32401 0.38037,0.35298 0.38038,0.35299 2.85648,-3.07806 2.85648,-3.07807 2.4249,2.25033 2.42488,2.25032 -1.35308,1.45805 -1.35307,1.45802 0.77693,0.721 c 0.73596,0.68298 0.79127,0.76405 1.04859,1.53846 l 0.27167,0.81746 -0.63932,0.68818 -0.63931,0.68817 -1.08879,-0.26874 c -0.59885,-0.14782 -1.53653,-0.48801 -2.08374,-0.75599 -1.36043,-0.66625 -1.62026,-0.6717 -2.20072,-0.0462 -0.4337,0.46734 -0.49711,0.49393 -1.0992,0.46124 l -0.63897,-0.0347 -2.29408,-2.12893 -2.29409,-2.12895 -0.61391,0.29718 c -0.92542,0.44795 -1.00286,0.33989 -1.69709,-2.36827 z m 13.72062,6.20609 c 0.36138,0.008 0.54065,-0.0701 0.7964,-0.3457 0.25574,-0.27559 0.31995,-0.46018 0.28535,-0.81996 -0.0384,-0.3985 -0.11883,-0.53311 -0.56757,-0.94955 -0.73348,-0.68067 -1.13972,-0.70333 -1.70421,-0.0951 -0.58409,0.62941 -0.54027,1.02736 0.18748,1.70273 0.46335,0.42998 0.59955,0.49895 1.00255,0.50754 z M 200.00381,189.3953 c 0.26338,0.0112 0.60211,-0.3538 0.5713,-0.61562 -0.0132,-0.11166 -0.14464,-0.31514 -0.29221,-0.45208 -0.34967,-0.32451 -0.82136,-0.1951 -0.9404,0.258 -0.0875,0.33314 0.28876,0.79385 0.66131,0.8097 z"
     id="path1052"
     inkscape:connector-curvature="0" />
  <path
     style="opacity:1;fill:#ff7f2a;fill-opacity:1;stroke:#000000;stroke-width:0.00443019;stroke-linecap:round;stroke-miterlimit:4;stroke-dasharray:none;stroke-dashoffset:0;stroke-opacity:1;paint-order:stroke markers fill"
     d="m 178.28585,215.15745 0.39935,-1.79837 0.67836,-0.11105 0.67837,-0.11104 5.54329,2.41889 c 3.04881,1.33039 5.56572,2.4397 5.59311,2.46512 0.0274,0.0254 -0.13751,0.88241 -0.36647,1.90442 -0.39212,1.75034 -0.43638,1.86601 -0.76243,1.9925 -0.36448,0.14143 -0.14518,0.23009 -10.57392,-4.27557 l -1.589,-0.68652 z m 7.82925,4.25329 c 0.17244,0.0458 0.49576,-0.0125 0.71847,-0.12977 0.86518,-0.45539 0.70093,-1.67122 -0.30289,-2.24208 -0.22694,-0.12902 -0.5519,-0.21577 -0.72218,-0.19273 -0.40022,0.0542 -0.98902,0.69035 -1.01327,1.09481 -0.0344,0.5733 0.59838,1.27792 1.31987,1.46977 z"
     id="path1054"
     inkscape:connector-curvature="0" />
  <path
     style="opacity:1;fill:#ff7f2a;fill-opacity:1;stroke:#000000;stroke-width:0.00443019;stroke-linecap:round;stroke-miterlimit:4;stroke-dasharray:none;stroke-dashoffset:0;stroke-opacity:1;paint-order:stroke markers fill"
     d="m 206.26398,209.02813 c 0.1122,-0.1209 3.7603,-1.34329 4.01428,-1.34508 0.70106,-0.005 0.79623,0.29944 1.03526,3.31095 0.12396,1.56175 0.2067,2.85969 0.18385,2.88431 -0.0229,0.0246 -1.21835,-1.04729 -2.65665,-2.38204 -1.43829,-1.33475 -2.59787,-2.44537 -2.57678,-2.4681 z"
     id="path1056"
     inkscape:connector-curvature="0" />
  <path
     style="opacity:1;fill:#ff7f2a;fill-opacity:1;stroke:#000000;stroke-width:0.00443019;stroke-linecap:round;stroke-miterlimit:4;stroke-dasharray:none;stroke-dashoffset:0;stroke-opacity:1;paint-order:stroke markers fill"
     d="m 224.42728,219.59109 3.47738,-3.74566 0.83544,0.20995 c 0.73501,0.18472 0.90599,0.27542 1.42219,0.75446 0.52333,0.48567 0.57046,0.56201 0.43638,0.70649 -0.13773,0.14841 -0.0869,0.22084 0.60502,0.86299 l 0.75536,0.70098 -3.16425,3.42514 -3.16433,3.42508 -0.98234,-0.0367 -0.98236,-0.0367 -1.35806,-1.26029 -1.35806,-1.26031 z"
     id="path1058"
     inkscape:connector-curvature="0" />
  <path
     style="opacity:1;fill:#ff7f2a;fill-opacity:1;stroke:#000000;stroke-width:0.00443019;stroke-linecap:round;stroke-miterlimit:4;stroke-dasharray:none;stroke-dashoffset:0;stroke-opacity:1;paint-order:stroke markers fill"
     d="m 228.89245,223.16948 2.85649,-3.07807 1.14113,1.05898 1.14112,1.05898 -2.73208,2.94401 c -2.55133,2.74924 -2.75174,2.94226 -3.03038,2.91668 -0.23643,-0.0217 -0.49897,-0.21354 -1.26554,-0.92492 l -0.96722,-0.89759 z"
     id="path1060"
     inkscape:connector-curvature="0" />
  <path
     style="opacity:1;fill:#ff7f2a;fill-opacity:1;stroke:#000000;stroke-width:0.00443019;stroke-linecap:round;stroke-miterlimit:4;stroke-dasharray:none;stroke-dashoffset:0;stroke-opacity:1;paint-order:stroke markers fill"
     d="m 230.74962,245.05724 c -0.35016,-1.15134 -0.31314,-2.36928 0.13565,-4.46452 0.20206,-0.94325 0.30124,-1.74147 0.22993,-1.85034 -0.069,-0.10526 -0.43282,-0.58971 -0.80851,-1.07647 l -0.68309,-0.88504 0.34622,-1.43806 0.34619,-1.43806 -0.50296,-1.34915 c -0.27665,-0.74203 -0.54691,-1.66656 -0.60063,-2.0545 -0.0851,-0.61513 -0.0564,-0.74981 0.22499,-1.05299 l 0.32262,-0.34764 -0.38038,-0.35299 -0.38036,-0.35299 2.72787,-2.93359 2.72713,-2.93428 1.80676,-0.0919 1.80677,-0.0919 4.39945,4.08001 4.39945,4.08002 -7.51707,8.10017 -7.51706,8.10018 -0.40546,-0.37627 c -0.3209,-0.29781 -0.46209,-0.56239 -0.67695,-1.26896 z"
     id="path1062"
     inkscape:connector-curvature="0" />
  <path
     style="opacity:1;fill:#ff7f2a;fill-opacity:1;stroke:#000000;stroke-width:0.00443019;stroke-linecap:round;stroke-miterlimit:4;stroke-dasharray:none;stroke-dashoffset:0;stroke-opacity:1;paint-order:stroke markers fill"
     d="m 232.82282,247.92345 c -0.10383,-0.25525 -0.28366,-0.55495 -0.39959,-0.66603 l -0.21124,-0.2015 8.11854,-8.7483 8.11842,-8.74819 1.70976,1.58667 1.70974,1.58667 -0.10555,0.49907 c -0.10385,0.49092 -0.22867,0.6317 -7.63842,8.61623 l -7.53285,8.11719 -0.79419,0.14061 -0.79417,0.1406 -0.99644,-0.9288 c -0.79854,-0.74514 -1.03337,-1.02132 -1.18479,-1.39337 z"
     id="path1064"
     inkscape:connector-curvature="0" />
  <path
     style="opacity:1;fill:#ff7f2a;fill-opacity:1;stroke:#000000;stroke-width:0.00443019;stroke-linecap:round;stroke-miterlimit:4;stroke-dasharray:none;stroke-dashoffset:0;stroke-opacity:1;paint-order:stroke markers fill"
     d="m 221.8641,225.71856 c -0.0109,-0.16181 0.0535,-0.37333 0.14331,-0.47006 0.15036,-0.16202 0.21071,-0.13179 0.76658,0.38406 0.47552,0.44129 0.60778,0.62583 0.6244,0.87072 0.0203,0.30027 0.003,0.30436 -0.51988,0.12059 -0.66771,-0.2348 -0.9884,-0.521 -1.01438,-0.90534 z"
     id="path1066"
     inkscape:connector-curvature="0" />
  <path
     style="opacity:1;fill:none;fill-opacity:1;stroke:#000000;stroke-width:0.00443019;stroke-linecap:round;stroke-miterlimit:4;stroke-dasharray:none;stroke-dashoffset:0;stroke-opacity:1;paint-order:stroke markers fill"
     d="m 91.099734,103.13571 1.95444,-2.10605 6.038458,5.60376 6.038458,5.60377 -1.73266,1.86706 c -1.40608,1.51515 -1.8018,1.88673 -2.09953,1.9714 l -0.36685,0.10435 -5.893373,-5.46912 -5.893376,-5.46913 z"
     id="path1068"
     inkscape:connector-curvature="0" />
  <path
     style="opacity:1;fill:#ff7f2a;fill-opacity:1;stroke:#000000;stroke-width:0.00443019;stroke-linecap:round;stroke-miterlimit:4;stroke-dasharray:none;stroke-dashoffset:0;stroke-opacity:1;paint-order:stroke markers fill"
     d="m 85.413544,102.68319 c -0.01458,-0.21545 -0.142539,-0.43379 -0.387419,-0.66104 l -0.365634,-0.33931 2.104778,-2.26805 c 2.054658,-2.21404 2.109176,-2.26397 2.294961,-2.09156 0.126794,0.11767 0.240331,0.12249 0.340536,0.0145 0.137822,-0.14851 0.213676,-0.10324 0.911094,0.54398 0.697345,0.64714 0.773273,0.6925 0.911101,0.54398 0.13172,-0.14194 0.213669,-0.10323 0.662256,0.31307 0.429127,0.39823 0.495959,0.50814 0.412944,0.67984 -0.05443,0.11261 -0.0029,0.41044 0.114454,0.6618 l 0.213423,0.45701 -1.978098,2.13154 -1.978105,2.13155 -0.380375,-0.35299 -0.380374,-0.35299 -0.300683,0.32401 -0.300682,0.324 -0.9362,-0.8688 c -0.81543,-0.75673 -0.939022,-0.91031 -0.957977,-1.19055 z"
     id="path1070"
     inkscape:connector-curvature="0" />
  <path
     style="opacity:1;fill:url(#linearGradient1073);fill-opacity:1;stroke:#000000;stroke-width:0.00443019;stroke-linecap:round;stroke-miterlimit:4;stroke-dasharray:none;stroke-dashoffset:0;stroke-opacity:1;paint-order:stroke markers fill"
     d="m 103.95281,114.46048 1.65375,-1.78205 1.47395,1.36784 1.47395,1.36784 -1.65376,1.78205 -1.65375,1.78203 -1.47395,-1.36784 -1.47394,-1.36784 z"
     id="path1072"
     inkscape:connector-curvature="0" />
  <path
     style="opacity:1;fill:url(#linearGradient1089);fill-opacity:1;stroke:#000000;stroke-width:0.00443019;stroke-linecap:round;stroke-miterlimit:4;stroke-dasharray:none;stroke-dashoffset:0;stroke-opacity:1;paint-order:stroke markers fill"
     d="m 109.62962,123.79148 c -0.2023,-0.25404 -0.54707,-0.63348 -0.76629,-0.84305 l -0.3987,-0.38092 0.95466,-1.02871 c 0.52507,-0.56581 0.9586,-0.96064 0.96335,-0.87746 0.019,0.33035 -0.17671,3.65345 -0.21773,3.69765 -0.0241,0.0259 -0.0717,0.0129 -0.10574,-0.0291 -0.0338,-0.0423 -0.22736,-0.28425 -0.42965,-0.53831 z"
     id="path1074"
     inkscape:connector-curvature="0" />
  <path
     style="opacity:1;fill:#ff7f2a;fill-opacity:1;stroke:#000000;stroke-width:0.00443019;stroke-linecap:round;stroke-miterlimit:4;stroke-dasharray:none;stroke-dashoffset:0;stroke-opacity:1;paint-order:stroke markers fill"
     d="m 110.80535,124.53683 c 0.005,-0.27282 0.031,-0.51992 0.0581,-0.54913 0.0271,-0.0292 0.32884,0.20626 0.67048,0.52331 1.38426,1.28461 2.7126,1.35366 3.78614,0.19684 1.06909,-1.15201 0.90366,-2.49262 -0.46057,-3.7327 -1.24939,-1.13572 -2.40598,-1.30294 -3.37924,-0.48863 l -0.4965,0.41551 0.10257,-1.77934 c 0.0564,-0.97863 0.17942,-1.86212 0.27334,-1.96332 0.18226,-0.1964 0.19722,-0.1671 -0.69115,-1.35313 -0.47269,-0.63108 -0.21811,-0.41279 3.18021,2.72696 l 3.69403,3.41296 -0.61268,0.18021 c -0.33698,0.0991 -0.64433,0.2143 -0.683,0.25598 -0.0387,0.0417 0.0277,0.24146 0.14743,0.44398 0.42061,0.71119 0.48189,1.29881 0.19406,1.8605 -0.53224,1.03862 -1.98567,1.91231 -3.14431,1.89011 -0.72542,-0.0139 -1.30606,-0.30118 -2.10528,-1.04163 -0.50338,-0.46655 -0.54174,-0.53808 -0.53354,-0.9985 z"
     id="path1078"
     inkscape:connector-curvature="0" />
  <path
     style="opacity:1;fill:#ff7f2a;fill-opacity:1;stroke:#000000;stroke-width:0.00443019;stroke-linecap:round;stroke-miterlimit:4;stroke-dasharray:none;stroke-dashoffset:0;stroke-opacity:1;paint-order:stroke markers fill"
     d="m 111.15379,123.15963 c -0.35146,-0.77641 0.001,-1.74705 0.82411,-2.26936 0.81179,-0.51514 1.6138,-0.34925 2.5609,0.52967 1.03662,0.962 1.14407,1.95114 0.30964,2.8503 -0.50596,0.54521 -1.09682,0.74118 -1.76292,0.5847 -0.60836,-0.1429 -1.63809,-1.04661 -1.93177,-1.69529 z"
     id="path1080"
     inkscape:connector-curvature="0" />
  <path
     style="opacity:1;fill:url(#linearGradient1081);fill-opacity:1;stroke:#000000;stroke-width:0.00443019;stroke-linecap:round;stroke-miterlimit:4;stroke-dasharray:none;stroke-dashoffset:0;stroke-opacity:1;paint-order:stroke markers fill"
     d="m 105.59836,119.66888 c 0.0336,-0.0999 0.81955,-0.99883 1.74641,-1.99758 l 1.68519,-1.81591 0.78113,0.73171 0.78112,0.73171 -0.0633,1.06947 -0.0633,1.06946 -1.23822,1.33428 -1.23823,1.33428 -1.22605,-1.13779 c -1.03027,-0.95609 -1.21628,-1.16678 -1.16485,-1.31947 z"
     id="path1082"
     inkscape:connector-curvature="0" />
  <path
     style="opacity:1;fill:#ff7f2a;fill-opacity:1;stroke:#000000;stroke-width:0.00443019;stroke-linecap:round;stroke-miterlimit:4;stroke-dasharray:none;stroke-dashoffset:0;stroke-opacity:1;paint-order:stroke markers fill"
     d="m 124.05378,138.57951 c 0.0423,-0.3546 0.15386,-1.31501 0.24788,-2.13425 l 0.17094,-1.48954 -0.599,-0.51836 c -0.47595,-0.41181 -0.65558,-0.6474 -0.87414,-1.14656 -0.49608,-1.13279 -0.40345,-1.92032 0.31723,-2.69691 0.68053,-0.73331 1.50424,-0.88375 2.66381,-0.48648 0.56683,0.1942 0.78932,0.34093 1.42783,0.94162 1.05905,0.99645 1.59083,1.84837 1.72448,2.7633 l 0.1079,0.73874 -0.75227,0.83738 c -0.73172,0.81436 -0.76501,0.83612 -1.20585,0.80163 -0.24946,-0.0197 -0.52959,0.0462 -0.62251,0.14633 -0.20501,0.22091 -0.3637,0.99865 -0.41539,2.03591 -0.0232,0.4662 -0.13852,0.9203 -0.29129,1.14755 -0.24705,0.36736 -0.26883,0.37187 -0.94596,0.19393 -0.38122,-0.10018 -0.76906,-0.25133 -0.86185,-0.33587 -0.0986,-0.0902 -0.13683,-0.42091 -0.0918,-0.79841 z m 2.24007,-4.87781 c 0.27475,0.0399 0.44051,-0.0288 0.67238,-0.27861 0.36838,-0.39696 0.35426,-0.72283 -0.0529,-1.22086 -0.24778,-0.30307 -0.37416,-0.36892 -0.73719,-0.38441 -1.21908,-0.0519 -1.10925,1.70564 0.11773,1.88388 z"
     id="path1084"
     inkscape:connector-curvature="0" />
  <path
     style="opacity:1;fill:#ff7f2a;fill-opacity:1;stroke:#000000;stroke-width:0.00443019;stroke-linecap:round;stroke-miterlimit:4;stroke-dasharray:none;stroke-dashoffset:0;stroke-opacity:1;paint-order:stroke markers fill"
     d="m 120.85458,133.19573 -0.19113,-1.64998 0.79364,-0.8552 c 0.74935,-0.80748 0.81675,-0.8535 1.20792,-0.82482 l 0.41428,0.0304 -0.33798,0.3642 c -1.0666,1.14933 -0.78103,3.17275 0.63296,4.48495 0.44092,0.40918 0.44858,0.43279 0.36275,1.12811 -0.0482,0.39059 -0.10076,0.85065 -0.11677,1.02235 l -0.0291,0.31218 -1.27271,-1.18109 -1.27271,-1.1811 z"
     id="path1086"
     inkscape:connector-curvature="0" />
  <path
     style="opacity:1;fill:#ff7f2a;fill-opacity:1;stroke:#000000;stroke-width:0.00110755;stroke-linecap:round;stroke-miterlimit:4;stroke-dasharray:none;stroke-dashoffset:0;stroke-opacity:1;paint-order:stroke markers fill"
     d="m 125.85832,132.82301 c -0.0644,-0.12758 -0.0231,-0.25029 0.13169,-0.39105 0.17274,-0.15703 0.25524,-0.15037 0.48001,0.0389 0.15994,0.13464 0.17233,0.15173 0.19343,0.27473 0.0443,0.25511 -0.23635,0.48818 -0.46797,0.38857 -0.13649,-0.0587 -0.27359,-0.18513 -0.33699,-0.31138 z"
     id="path1092"
     inkscape:connector-curvature="0" />
  <path
     style="opacity:1;fill:#ff7f2a;fill-opacity:1;stroke:#000000;stroke-width:0.00110755;stroke-linecap:round;stroke-miterlimit:4;stroke-dasharray:none;stroke-dashoffset:0;stroke-opacity:1;paint-order:stroke markers fill"
     d="m 133.40821,127.78505 c -0.0656,-0.12264 -0.0414,-0.25997 0.0663,-0.37599 0.18422,-0.1985 0.33668,-0.19307 0.56653,0.0202 0.14875,0.13804 0.1889,0.24352 0.14647,0.38465 -0.0643,0.21391 -0.27519,0.3302 -0.45684,0.25209 -0.12127,-0.0521 -0.26882,-0.18071 -0.32245,-0.28096 z"
     id="path1094"
     inkscape:connector-curvature="0" />
  <path
     style="opacity:1;fill:#ff7f2a;fill-opacity:1;stroke:#000000;stroke-width:0.00110755;stroke-linecap:round;stroke-miterlimit:4;stroke-dasharray:none;stroke-dashoffset:0;stroke-opacity:1;paint-order:stroke markers fill"
     d="m 125.67373,140.89341 -0.65991,-0.62332 0.20199,0.0467 c 0.56019,0.12959 0.75302,0.0999 1.01815,-0.15696 0.27763,-0.26903 0.49635,-0.72879 0.55506,-1.16716 0.0138,-0.10276 0.0313,-0.46343 0.0389,-0.80138 0.008,-0.33794 0.0244,-0.68526 0.0373,-0.7718 l 0.0233,-0.1574 2.84255,2.63793 2.84256,2.63792 -0.2706,0.30481 c -0.362,0.40773 -0.73277,0.7561 -0.95349,0.89603 -0.33962,0.21514 -0.88598,0.31312 -1.82274,0.32686 l -0.45769,0.007 -1.36791,-1.27762 c -0.75256,-0.70248 -1.66459,-1.55841 -2.02762,-1.90116 z"
     id="path1096"
     inkscape:connector-curvature="0" />
  <path
     style="opacity:1;fill:#ff7f2a;fill-opacity:1;stroke:#000000;stroke-width:0.00313262;stroke-linecap:round;stroke-miterlimit:4;stroke-dasharray:none;stroke-dashoffset:0;stroke-opacity:1;paint-order:stroke markers fill"
     d="M 6.3794458,20.539027 6.6717887,20.224006 5.6716425,19.295858 4.6715037,18.367717 4.7418408,17.600614 4.8121858,16.833533 5.9120309,15.648371 7.0118896,14.463194 6.8437913,14.307196 6.6756855,14.151192 8.589223,12.089218 l 1.913537,-2.061974 0.168106,0.156004 0.168099,0.155998 1.099851,-1.18517 1.099859,-1.185177 0.7597,-0.127351 0.759715,-0.127338 1.000139,0.928141 1.000146,0.928148 0.292343,-0.315021 0.29235,-0.315027 2.046398,1.899082 2.046405,1.89909 -0.124918,0.17724 c -0.123805,0.1756 -0.119996,0.182081 0.41441,0.708698 0.524138,0.516557 0.535625,0.535403 0.408565,0.67232 -0.109824,0.118343 -0.09848,0.170805 0.07099,0.328081 l 0.201721,0.1872 -0.580258,0.625269 -0.580264,0.625276 1.250468,2.057697 1.250476,2.057704 -2.888023,3.112052 -2.888016,3.112045 -2.145224,-1.093548 -2.145217,-1.093541 -0.580265,0.625277 -0.580264,0.625276 -0.201721,-0.187199 c -0.17932,-0.166412 -0.219482,-0.168076 -0.361181,-0.01539 l -0.159467,0.171837 -0.571547,-0.530403 C 10.4613,24.380339 10.453218,24.375568 10.321695,24.517293 L 10.188819,24.660477 8.1379643,22.757258 6.0870878,20.854019 Z m 5.2628222,-1.085877 1.249108,-1.346004 -0.60517,-0.561605 -0.605178,-0.561613 -1.249108,1.346004 -1.249115,1.346011 0.605178,0.561613 0.60517,0.561605 z m 1.779622,-2.070369 c 0.257012,0.01094 0.3667,-0.04016 0.580265,-0.270295 0.216946,-0.233775 0.256491,-0.342248 0.224299,-0.61563 -0.03241,-0.275192 -0.09713,-0.385701 -0.379258,-0.647522 -0.299268,-0.277725 -0.384684,-0.31511 -0.709988,-0.310733 -0.585988,0.0079 -0.939602,0.509748 -0.753025,1.068733 0.128145,0.383914 0.628808,0.758045 1.037707,0.775447 z m 3.190248,-3.285023 1.381991,-1.489195 -0.60517,-0.561605 -0.605178,-0.561613 -1.381991,1.489195 -1.381998,1.489203 0.605177,0.561612 0.605171,0.561605 z"
     id="path1098"
     inkscape:connector-curvature="0" />
  <path
     style="opacity:1;fill:#ff7f2a;fill-opacity:1;stroke:#000000;stroke-width:0.00313262;stroke-linecap:round;stroke-miterlimit:4;stroke-dasharray:none;stroke-dashoffset:0;stroke-opacity:1;paint-order:stroke markers fill"
     d="m 19.432212,28.886796 c 0.210759,-0.517731 0.271423,-0.58876 3.1906,-3.734384 l 2.975766,-3.206601 0.526567,-0.251683 0.526566,-0.251697 0.864391,0.772288 c 0.816163,0.72917 0.876373,0.799097 1.079268,1.252175 0.118188,0.263923 0.248326,0.732116 0.289174,1.040406 l 0.07428,0.56054 -2.954025,3.183175 -2.954019,3.183167 -0.564525,-0.03226 C 22.175772,31.384177 21.701674,31.290198 21.432699,31.193096 20.982362,31.030499 20.8754,30.953161 20.080538,30.215519 L 19.217403,29.41452 Z"
     id="path1100"
     inkscape:connector-curvature="0" />
  <path
     style="opacity:1;fill:url(#linearGradient1011);fill-opacity:1;stroke:#000000;stroke-width:0.00626524;stroke-linecap:round;stroke-miterlimit:4;stroke-dasharray:none;stroke-dashoffset:0;stroke-opacity:1;paint-order:stroke markers fill"
     d="m 21.126659,23.679394 2.817143,-3.035674 0.537933,0.499208 0.537932,0.499208 -2.817143,3.035673 -2.817142,3.035674 -0.537933,-0.499208 -0.537932,-0.499208 z"
     id="path1102"
     inkscape:connector-curvature="0" />
  <path
     style="opacity:1;fill:url(#linearGradient1003);fill-opacity:1;stroke:#000000;stroke-width:0.00626524;stroke-linecap:round;stroke-miterlimit:4;stroke-dasharray:none;stroke-dashoffset:0;stroke-opacity:1;paint-order:stroke markers fill"
     d="m 26.544378,28.707103 2.817143,-3.035673 41.756942,38.750957 41.756947,38.750963 -2.81714,3.03568 -2.81714,3.03567 L 65.484178,70.493735 23.727235,31.742777 Z"
     id="path1104"
     inkscape:connector-curvature="0" />
  <path
     style="opacity:1;fill:url(#linearGradient987);fill-opacity:1;stroke:#000000;stroke-width:0.00626524;stroke-linecap:round;stroke-miterlimit:4;stroke-dasharray:none;stroke-dashoffset:0;stroke-opacity:1;paint-order:stroke markers fill"
     d="M 136.4387,129.83755 140,126 l 22.59313,20.96671 22.59313,20.9667 -3.56129,3.83755 -3.5613,3.83756 -22.59313,-20.96671 -22.59313,-20.96671 z"
     id="path1106"
     inkscape:connector-curvature="0" />
  <path
     style="opacity:1;fill:#ff7f2a;fill-opacity:1;stroke:#000000;stroke-width:0.00626524;stroke-linecap:round;stroke-miterlimit:4;stroke-dasharray:none;stroke-dashoffset:0;stroke-opacity:1;paint-order:stroke markers fill"
     d="m 81.205496,99.94008 c 0.03981,-0.10964 0.357207,-0.75054 0.705458,-1.42412 0.512807,-0.99184 1.001832,-1.62227 2.572342,-3.31614 1.222302,-1.31858 1.988858,-2.04537 2.073651,-1.96668 0.07397,0.0686 0.06273,0.20212 -0.02498,0.29663 -0.122925,0.13246 0.01707,0.33698 0.610932,0.89254 0.691963,0.64761 0.783993,0.80887 0.904085,1.58811 l 0.133679,0.86737 -2.174127,2.34278 c -2.457893,2.64856 -2.157535,2.51542 -3.743331,1.65913 -0.96586,-0.52155 -1.149955,-0.68508 -1.057747,-0.93958 z"
     id="path1108"
     inkscape:connector-curvature="0" />
  <path
     style="opacity:1;fill:#ff7f2a;fill-opacity:1;stroke:#000000;stroke-width:0.00626524;stroke-linecap:round;stroke-miterlimit:4;stroke-dasharray:none;stroke-dashoffset:0;stroke-opacity:1;paint-order:stroke markers fill"
     d="m 77.865747,97.94073 c -0.07059,-0.18639 0.0094,-0.97051 0.177897,-1.74257 l 0.306333,-1.40377 1.644818,-1.77241 1.644813,-1.77241 0.805179,0.68324 0.805186,0.68324 0.651591,-0.62129 0.651577,-0.62126 0.665708,0.61778 0.665702,0.61778 -1.906763,2.05468 c -1.670205,1.79976 -2.00114,2.23987 -2.667143,3.54798 -0.41822,0.82133 -0.790374,1.5258 -0.827018,1.56547 -0.06981,0.0756 -2.02279,-1.04696 -2.318578,-1.33269 -0.09439,-0.0903 -0.228642,-0.3175 -0.299284,-0.50383 z"
     id="path1110"
     inkscape:connector-curvature="0" />
  <path
     style="opacity:1;fill:#ffb380;fill-opacity:1;stroke:#000000;stroke-width:0.00443019;stroke-linecap:round;stroke-miterlimit:4;stroke-dasharray:none;stroke-dashoffset:0;stroke-opacity:1;paint-order:stroke markers fill"
     d="m 139.80305,114.53037 c -0.10382,-0.25525 -0.34784,-0.61454 -0.54223,-0.79842 l -0.3532,-0.33459 1.16514,-1.25553 1.16515,-1.25552 0.31353,0.29096 c 0.24048,0.22317 0.4701,0.29577 0.98564,0.31164 l 0.67211,0.0207 3.97016,3.68436 c 2.81033,2.60802 4.01541,3.77751 4.12514,4.00315 l 0.15498,0.31877 -1.41425,1.52395 -1.41424,1.52395 -0.39526,-0.13679 c -0.33611,-0.11631 -0.98228,-0.6825 -4.31943,-3.78479 -3.6839,-3.42415 -3.93576,-3.67644 -4.11298,-4.11209 z"
     id="path925"
     inkscape:connector-curvature="0" />
  <path
     style="opacity:1;fill:#ffb380;fill-opacity:1;stroke:#000000;stroke-width:0.00313262;stroke-linecap:round;stroke-miterlimit:4;stroke-dasharray:none;stroke-dashoffset:0;stroke-opacity:1;paint-order:stroke markers fill"
     d="m 137.03279,112.63079 c -0.0124,-0.18366 0.16946,-0.4058 1.55379,-1.89752 l 1.56787,-1.68948 0.27121,0.0199 c 0.34884,0.0256 0.80698,0.43035 0.82731,0.73093 0.0125,0.18383 -0.17138,0.40786 -1.58139,1.92725 -1.47816,1.59283 -1.61096,1.71785 -1.80641,1.69992 -0.29688,-0.0272 -0.81394,-0.51854 -0.83237,-0.791 z"
     id="path927"
     inkscape:connector-curvature="0" />
  <path
     style="opacity:1;fill:#ffb380;fill-opacity:1;stroke:#000000;stroke-width:0.00313262;stroke-linecap:round;stroke-miterlimit:4;stroke-dasharray:none;stroke-dashoffset:0;stroke-opacity:1;paint-order:stroke markers fill"
     d="m 149.12655,123.26915 c -0.0226,-0.26149 0.0123,-0.30649 1.38599,-1.78672 1.40426,-1.51319 1.40994,-1.51859 1.68037,-1.4986 0.38045,0.0279 0.80258,0.4272 0.83379,0.78877 0.0226,0.26149 -0.0123,0.30649 -1.38599,1.78672 -1.40427,1.5132 -1.40994,1.51858 -1.68038,1.4986 -0.38045,-0.0279 -0.80257,-0.4272 -0.83385,-0.7887 z"
     id="path929"
     inkscape:connector-curvature="0" />
  <path
     style="opacity:1;fill:#ffb380;fill-opacity:1;stroke:#000000;stroke-width:0.00626524;stroke-linecap:round;stroke-miterlimit:4;stroke-dasharray:none;stroke-dashoffset:0;stroke-opacity:1;paint-order:stroke markers fill"
     d="m 206.50017,209.05063 c 0.0628,-0.0677 0.98949,-0.40716 2.05916,-0.7542 1.35168,-0.43854 2.01437,-0.56643 2.17287,-0.41933 0.21817,0.20246 0.6226,3.4292 0.6426,5.127 l 0.01,0.80835 -2.49923,-2.31931 c -1.6934,-1.5715 -2.46243,-2.35898 -2.38491,-2.44251 z"
     id="path931"
     inkscape:connector-curvature="0" />
  <path
     style="opacity:1;fill:#ffb380;fill-opacity:1;stroke:#000000;stroke-width:0.00626524;stroke-linecap:round;stroke-miterlimit:4;stroke-dasharray:none;stroke-dashoffset:0;stroke-opacity:1;paint-order:stroke markers fill"
     d="m 230.89589,245.17497 c -0.31724,-1.14924 -0.34205,-2.2392 -0.0836,-3.67313 0.31833,-1.7661 0.40135,-2.68625 0.26268,-2.91128 -0.0661,-0.10722 -0.40813,-0.5683 -0.76007,-1.02454 l -0.63991,-0.82953 0.35506,-1.359 c 0.34132,-1.30642 0.33509,-1.41873 -0.16112,-2.90301 -0.62217,-1.86098 -0.68997,-2.47794 -0.32812,-2.98521 0.22235,-0.31163 0.2106,-0.45702 -0.0617,-0.7643 l -0.33615,-0.37948 2.68013,-2.88216 2.68013,-2.88215 1.77614,-0.099 1.77614,-0.0991 4.3432,4.01826 4.34319,4.01826 -7.49466,8.07604 -7.49467,8.07604 -0.31603,-0.29328 c -0.17381,-0.16129 -0.41674,-0.6581 -0.53984,-1.10401 z"
     id="path933"
     inkscape:connector-curvature="0" />
  <path
     style="opacity:1;fill:none;fill-opacity:1;stroke:#000000;stroke-width:0.00626524;stroke-linecap:round;stroke-miterlimit:4;stroke-dasharray:none;stroke-dashoffset:0;stroke-opacity:1;paint-order:stroke markers fill"
     d="m 91.246682,103.17609 1.91353,-2.06197 6.001691,5.56965 6.001687,5.56964 -1.8432,1.86843 c -1.01373,1.02768 -1.94671,1.88886 -2.07316,1.91384 -0.17458,0.0345 -1.63627,-1.25968 -6.071998,-5.37609 l -5.842073,-5.42151 z"
     id="path935"
     inkscape:connector-curvature="0" />
  <path
     style="opacity:1;fill:none;fill-opacity:1;stroke:#000000;stroke-width:0.00626524;stroke-linecap:round;stroke-miterlimit:4;stroke-dasharray:none;stroke-dashoffset:0;stroke-opacity:1;paint-order:stroke markers fill"
     d="m 104.01936,114.49628 1.64777,-1.77559 1.41207,1.31042 1.41208,1.31043 -1.64777,1.77558 -1.64776,1.77558 -1.41207,-1.31042 -1.41208,-1.31042 z"
     id="path937"
     inkscape:connector-curvature="0" />
  <path
     style="opacity:1;fill:#ffd42a;fill-opacity:1;stroke:#000000;stroke-width:0.00313262;stroke-linecap:round;stroke-miterlimit:4;stroke-dasharray:none;stroke-dashoffset:0;stroke-opacity:1;paint-order:stroke markers fill"
     d="m 124.07988,139.05175 c -0.0139,-0.11553 0.0772,-1.08632 0.2025,-2.15736 l 0.22778,-1.94735 -0.61021,-0.56765 c -0.70327,-0.65399 -0.99144,-1.15212 -1.12504,-1.94556 -0.11842,-0.70327 0.0283,-1.17855 0.53645,-1.73756 0.55523,-0.61007 0.98026,-0.78917 1.74146,-0.73173 0.95332,0.0719 1.40811,0.29195 2.28714,1.10646 1.14198,1.05841 1.60905,1.82103 1.77099,2.89288 l 0.0851,0.56341 -0.7509,0.80768 -0.7509,0.80767 -0.46807,0.0337 c -0.25745,0.0185 -0.52753,0.0977 -0.60019,0.17605 -0.1639,0.17661 -0.32326,0.9051 -0.41845,1.91283 -0.10924,1.15641 -0.36103,1.60526 -0.84355,1.50366 -0.39823,-0.0839 -1.06223,-0.32497 -1.16972,-0.42472 -0.049,-0.0454 -0.10053,-0.1772 -0.11442,-0.29273 z m 1.87298,-5.42673 c 0.42698,0.19836 0.68813,0.14924 1.0014,-0.18833 0.40862,-0.44032 0.38803,-0.78102 -0.0772,-1.27629 -0.31446,-0.33479 -0.36881,-0.36368 -0.69403,-0.36927 -0.24147,-0.004 -0.43666,0.0633 -0.61838,0.21362 -0.22593,0.18701 -0.26362,0.27378 -0.25422,0.58178 0.0165,0.52887 0.2065,0.836 0.6424,1.03849 z"
     id="path939"
     inkscape:connector-curvature="0" />
  <path
     style="opacity:1;fill:#ffb380;fill-opacity:1;stroke:#000000;stroke-width:0.00313262;stroke-linecap:round;stroke-miterlimit:4;stroke-dasharray:none;stroke-dashoffset:0;stroke-opacity:1;paint-order:stroke markers fill"
     d="m 111.45438,123.57204 c -0.59833,-0.78993 -0.48263,-1.74584 0.29556,-2.44195 0.83767,-0.74932 1.68416,-0.6501 2.73913,0.32107 0.45153,0.41493 0.56956,0.56812 0.7097,0.91577 0.30324,0.75227 0.1115,1.45538 -0.55454,2.03349 -0.50905,0.44182 -1.08453,0.56426 -1.65867,0.35276 -0.48969,-0.18038 -1.1716,-0.70642 -1.53118,-1.18114 z"
     id="path941"
     inkscape:connector-curvature="0" />
  <path
     style="fill:none;stroke:#000000;stroke-width:0.47893953px;stroke-linecap:butt;stroke-linejoin:miter;stroke-opacity:1"
     d="m 113.09961,121.74556 c 0.48158,0.0205 1.08478,0.58027 1.14113,1.05898 0.0564,0.47872 -0.42048,0.99253 -0.90205,0.97203 -0.48158,-0.0205 -1.08478,-0.58027 -1.14114,-1.05898 -0.0564,-0.47872 0.42047,-0.99253 0.90206,-0.97203 z"
     id="path943"
     inkscape:connector-curvature="0"
     sodipodi:nodetypes="sssss" />
  <path
     style="opacity:1;fill:#ffb380;fill-opacity:1;stroke:#000000;stroke-width:0.00156631;stroke-linecap:round;stroke-miterlimit:4;stroke-dasharray:none;stroke-dashoffset:0;stroke-opacity:1;paint-order:stroke markers fill"
     d="m 125.85633,132.74854 c -0.0215,-0.079 0.005,-0.13591 0.1194,-0.25965 0.0808,-0.0871 0.1764,-0.15715 0.21236,-0.15562 0.0894,0.004 0.32384,0.17256 0.40983,0.29506 0.14579,0.20773 -0.0802,0.55298 -0.3274,0.50024 -0.14157,-0.0301 -0.37813,-0.24723 -0.41413,-0.38023 z"
     id="path945"
     inkscape:connector-curvature="0" />
  <path
     style="opacity:1;fill:#ffb380;fill-opacity:1;stroke:#000000;stroke-width:0.00156631;stroke-linecap:round;stroke-miterlimit:4;stroke-dasharray:none;stroke-dashoffset:0;stroke-opacity:1;paint-order:stroke markers fill"
     d="m 112.52142,122.90962 c -0.11212,-0.23584 -0.0668,-0.42869 0.15742,-0.66998 0.29576,-0.31825 0.60445,-0.30165 0.98833,0.0532 0.36388,0.33633 0.40402,0.67149 0.11739,0.98016 -0.16913,0.18213 -0.37762,0.25843 -0.59308,0.21704 -0.21074,-0.0405 -0.55531,-0.33893 -0.67008,-0.58037 z"
     id="path947"
     inkscape:connector-curvature="0" />
  <path
     style="opacity:1;fill:#ffd42a;fill-opacity:1;stroke:#000000;stroke-width:0.00156631;stroke-linecap:round;stroke-miterlimit:4;stroke-dasharray:none;stroke-dashoffset:0;stroke-opacity:1;paint-order:stroke markers fill"
     d="m 111.46008,123.55268 c -0.54293,-0.74677 -0.48102,-1.57454 0.16996,-2.27225 0.86226,-0.92328 1.82239,-0.82047 2.98421,0.32069 0.37933,0.37262 0.41061,0.41324 0.53611,0.69851 0.16609,0.37734 0.20339,0.77644 0.10806,1.15653 -0.0654,0.2608 -0.10227,0.32465 -0.36587,0.63366 -0.33651,0.39451 -0.55308,0.55246 -0.92385,0.67361 -0.43258,0.14137 -0.86613,0.0723 -1.37922,-0.21985 -0.302,-0.17194 -0.94259,-0.73399 -1.12938,-0.99092 z m 1.3456,0.30554 c 0.26858,0.15225 0.5803,0.20247 0.8387,0.13514 0.19716,-0.0514 0.28624,-0.10467 0.47367,-0.28324 0.28119,-0.26786 0.39936,-0.53089 0.37853,-0.84248 -0.0433,-0.64738 -0.79879,-1.3622 -1.44122,-1.36353 -0.41831,-8.8e-4 -0.74442,0.18898 -0.96184,0.56 -0.28738,0.4904 -0.1628,1.02765 0.34969,1.50807 0.11952,0.11228 0.28276,0.24085 0.36241,0.28611 z"
     id="path949"
     inkscape:connector-curvature="0" />
  <path
     style="opacity:1;fill:#ffb380;fill-opacity:1;stroke:#000000;stroke-width:0.00156631;stroke-linecap:round;stroke-miterlimit:4;stroke-dasharray:none;stroke-dashoffset:0;stroke-opacity:1;paint-order:stroke markers fill"
     d="m 112.52142,122.90962 c -0.11212,-0.23584 -0.0668,-0.42869 0.15742,-0.66998 0.29576,-0.31825 0.60445,-0.30165 0.98833,0.0532 0.36747,0.33966 0.40666,0.66834 0.11692,0.98056 -0.16864,0.18172 -0.3773,0.258 -0.59261,0.21664 -0.21074,-0.0405 -0.55531,-0.33893 -0.67008,-0.58037 z"
     id="path951"
     inkscape:connector-curvature="0" />
  <path
     style="opacity:1;fill:#ffb380;fill-opacity:1;stroke:#000000;stroke-width:0.00156631;stroke-linecap:round;stroke-miterlimit:4;stroke-dasharray:none;stroke-dashoffset:0;stroke-opacity:1;paint-order:stroke markers fill"
     d="m 112.52142,122.90962 c -0.11212,-0.23584 -0.0668,-0.42869 0.15742,-0.66998 0.29576,-0.31825 0.60445,-0.30165 0.98833,0.0532 0.36747,0.33966 0.40666,0.66834 0.11692,0.98056 -0.16864,0.18172 -0.3773,0.258 -0.59261,0.21664 -0.21074,-0.0405 -0.55531,-0.33893 -0.67008,-0.58037 z"
     id="path953"
     inkscape:connector-curvature="0" />
  <path
     style="opacity:1;fill:#ffd42a;fill-opacity:1;stroke:#000000;stroke-width:0.00156631;stroke-linecap:round;stroke-miterlimit:4;stroke-dasharray:none;stroke-dashoffset:0;stroke-opacity:1;paint-order:stroke markers fill"
     d="m 112.52142,122.90962 c -0.11252,-0.23675 -0.067,-0.42846 0.16001,-0.67303 0.29457,-0.31742 0.60177,-0.29997 0.98597,0.056 0.36722,0.34023 0.4063,0.66873 0.11669,0.9808 -0.16864,0.18172 -0.3773,0.258 -0.59261,0.21664 -0.21074,-0.0405 -0.55531,-0.33893 -0.67008,-0.58037 z"
     id="path955"
     inkscape:connector-curvature="0" />
  <path
     style="opacity:1;fill:#ffb380;fill-opacity:1;stroke:#000000;stroke-width:0.00156631;stroke-linecap:round;stroke-miterlimit:4;stroke-dasharray:none;stroke-dashoffset:0;stroke-opacity:1;paint-order:stroke markers fill"
     d="m 125.89334,132.77961 c -0.056,-0.12767 -0.0504,-0.14692 0.0761,-0.26391 0.22046,-0.20389 0.28231,-0.20615 0.47931,-0.0171 0.1339,0.12835 0.16979,0.18826 0.1709,0.28507 0.002,0.16266 -0.16332,0.33945 -0.30546,0.32622 -0.15451,-0.0142 -0.34959,-0.16726 -0.4211,-0.33048 z"
     id="path957"
     inkscape:connector-curvature="0" />
  <path
     style="opacity:1;fill:#ffd42a;fill-opacity:1;stroke:#000000;stroke-width:0.00156631;stroke-linecap:round;stroke-miterlimit:4;stroke-dasharray:none;stroke-dashoffset:0;stroke-opacity:1;paint-order:stroke markers fill"
     d="m 125.89334,132.77961 c -0.056,-0.12767 -0.0504,-0.14692 0.0761,-0.26391 0.22129,-0.20463 0.28608,-0.20727 0.48117,-0.0191 0.13258,0.12713 0.16789,0.18773 0.16906,0.28554 0.002,0.16409 -0.16266,0.34097 -0.3051,0.328 -0.15449,-0.0142 -0.34958,-0.16726 -0.4211,-0.33049 z"
     id="path961"
     inkscape:connector-curvature="0" />
  <path
     style="opacity:1;fill:#ffd42a;fill-opacity:1;stroke:#000000;stroke-width:0.00110755;stroke-linecap:round;stroke-miterlimit:4;stroke-dasharray:none;stroke-dashoffset:0;stroke-opacity:1;paint-order:stroke markers fill"
     d="m 133.4166,127.76928 c -0.0444,-0.0993 -0.009,-0.27652 0.0736,-0.36528 0.0928,-0.10011 0.24968,-0.14851 0.34205,-0.10563 0.10721,0.0498 0.31154,0.24137 0.34653,0.32432 0.0639,0.15328 -0.0951,0.40283 -0.2808,0.44077 -0.15686,0.032 -0.40231,-0.11819 -0.48108,-0.29447 z"
     id="path963"
     inkscape:connector-curvature="0" />
  <path
     style="opacity:1;fill:#ffd42a;fill-opacity:1;stroke:#000000;stroke-width:0.00221509;stroke-linecap:round;stroke-miterlimit:4;stroke-dasharray:none;stroke-dashoffset:0;stroke-opacity:1;paint-order:stroke markers fill"
     d="m 215.86081,203.17483 c -0.17345,-0.36567 -0.0794,-0.73571 0.26704,-1.05079 0.27663,-0.25148 0.51985,-0.30349 0.86814,-0.18538 0.31825,0.10793 0.82151,0.61311 0.90015,0.90356 0.16754,0.61902 -0.44613,1.28863 -1.07072,1.16847 -0.30149,-0.058 -0.80083,-0.49074 -0.96453,-0.83575 z"
     id="path965"
     inkscape:connector-curvature="0" />
  <path
     style="opacity:1;fill:#ffd42a;fill-opacity:1;stroke:#000000;stroke-width:0.00221509;stroke-linecap:round;stroke-miterlimit:4;stroke-dasharray:none;stroke-dashoffset:0;stroke-opacity:1;paint-order:stroke markers fill"
     d="m 189.41239,194.29868 c -0.3269,-0.5095 0.22075,-1.14077 0.78066,-0.90002 0.67431,0.28999 0.79449,1.04952 0.21102,1.33359 -0.31453,0.15313 -0.73257,-0.0296 -0.99176,-0.43365 z"
     id="path969"
     inkscape:connector-curvature="0" />
  <path
     style="opacity:1;fill:#ffd42a;fill-opacity:1;stroke:#000000;stroke-width:0.00221509;stroke-linecap:round;stroke-miterlimit:4;stroke-dasharray:none;stroke-dashoffset:0;stroke-opacity:1;paint-order:stroke markers fill"
     d="m 183.70677,189.00379 c -0.3269,-0.5095 0.22074,-1.14077 0.78073,-0.89995 0.6743,0.28998 0.79448,1.04951 0.21102,1.33358 -0.31454,0.15313 -0.73257,-0.0296 -0.99177,-0.43365 z"
     id="path971"
     inkscape:connector-curvature="0" />
  <path
     style="opacity:1;fill:#ffd42a;fill-opacity:1;stroke:#000000;stroke-width:0.00221509;stroke-linecap:round;stroke-miterlimit:4;stroke-dasharray:none;stroke-dashoffset:0;stroke-opacity:1;paint-order:stroke markers fill"
     d="m 184.21035,184.64677 c -0.32691,-0.5095 0.22076,-1.14077 0.78072,-0.89995 0.67431,0.28999 0.79451,1.04951 0.21104,1.33357 -0.31454,0.15314 -0.73258,-0.0296 -0.99178,-0.43364 z"
     id="path973"
     inkscape:connector-curvature="0" />
  <path
     style="opacity:1;fill:#ffd42a;fill-opacity:1;stroke:#000000;stroke-width:0.00221509;stroke-linecap:round;stroke-miterlimit:4;stroke-dasharray:none;stroke-dashoffset:0;stroke-opacity:1;paint-order:stroke markers fill"
     d="m 189.97325,205.5136 c -0.0154,-0.13139 0.22865,-0.39442 0.36082,-0.38881 0.13218,0.006 0.441,0.2922 0.45646,0.4236 0.0155,0.13139 -0.22867,0.39444 -0.36082,0.38881 -0.13219,-0.006 -0.44101,-0.29221 -0.45646,-0.4236 z"
     id="path975"
     inkscape:connector-curvature="0" />
  <path
     style="opacity:1;fill:#ffd42a;fill-opacity:1;stroke:#000000;stroke-width:0.00221509;stroke-linecap:round;stroke-miterlimit:4;stroke-dasharray:none;stroke-dashoffset:0;stroke-opacity:1;paint-order:stroke markers fill"
     d="m 185.47074,218.38083 c -0.3269,-0.5095 0.22076,-1.14077 0.78074,-0.89996 0.67429,0.28999 0.79449,1.04952 0.21102,1.33358 -0.31453,0.15314 -0.73257,-0.0296 -0.99177,-0.43364 z"
     id="path977"
     inkscape:connector-curvature="0" />
  <path
     style="opacity:1;fill:#ffd42a;fill-opacity:1;stroke:#000000;stroke-width:0.00055377;stroke-linecap:round;stroke-miterlimit:4;stroke-dasharray:none;stroke-dashoffset:0;stroke-opacity:1;paint-order:stroke markers fill"
     d="m 187.26607,213.96296 c -0.0201,-0.0327 -0.0437,-0.0841 -0.0521,-0.11386 -0.0471,-0.16537 0.14626,-0.4176 0.33747,-0.44024 0.0957,-0.0113 0.21124,0.0421 0.33068,0.15295 0.22058,0.2047 0.2438,0.37624 0.0759,0.56039 -0.11998,0.13076 -0.23011,0.16431 -0.37703,0.11322 -0.0763,-0.0266 -0.2628,-0.18794 -0.31481,-0.2725 z"
     id="path981"
     inkscape:connector-curvature="0" />
  <path
     style="opacity:1;fill:#ffd42a;fill-opacity:1;stroke:#000000;stroke-width:0.00156631;stroke-linecap:round;stroke-miterlimit:4;stroke-dasharray:none;stroke-dashoffset:0;stroke-opacity:1;paint-order:stroke markers fill"
     d="m 182.58944,194.88692 c 0.031,0.002 0.27843,0.0371 0.54975,0.0785 0.27132,0.0414 0.61829,0.0848 0.77105,0.0963 l 0.27774,0.021 0.84939,-0.91528 0.84939,-0.91529 0.36983,0.3432 0.36984,0.34321 -0.77771,0.83803 -0.77769,0.83802 -0.91809,-0.0398 -0.91809,-0.0398 -0.35094,-0.32568 c -0.215,-0.19951 -0.32904,-0.32445 -0.29445,-0.32249 z"
     id="path983"
     inkscape:connector-curvature="0" />
  <path
     style="fill:none;stroke:#000000;stroke-width:0.47893953px;stroke-linecap:butt;stroke-linejoin:miter;stroke-opacity:1"
     d="m 16.499008,9.183331 -1.28243,0.619022 -8.4191169,9.072203 -0.5216656,1.325021"
     id="path1099"
     inkscape:connector-curvature="0" />
  <path
     style="fill:none;stroke:#000000;stroke-width:0.47893953px;stroke-linecap:butt;stroke-linejoin:miter;stroke-opacity:1"
     d="m 21.364192,13.095238 -0.441981,2.002012 -8.419117,9.072204 -1.963479,0.590044"
     id="path1101"
     inkscape:connector-curvature="0" />
  <path
     style="opacity:1;fill:#ffb380;fill-opacity:1;stroke:#000000;stroke-width:0.00250847;stroke-linecap:round;stroke-miterlimit:4;stroke-dasharray:none;stroke-dashoffset:0;stroke-opacity:1;paint-order:stroke markers fill"
     d="m 124.75083,139.57834 c -0.26101,-0.0916 -0.51271,-0.21795 -0.55932,-0.2807 -0.12442,-0.1675 -0.10675,-0.54441 0.11851,-2.52771 l 0.20326,-1.7896 -0.59933,-0.61425 c -0.68812,-0.70524 -0.90932,-1.05059 -1.06689,-1.66566 -0.21936,-0.85623 -0.0419,-1.47449 0.61023,-2.12667 0.50553,-0.50553 0.81215,-0.61233 1.63454,-0.56931 0.88429,0.0463 1.39976,0.29952 2.2624,1.11158 1.09519,1.03096 1.49753,1.67096 1.71274,2.72441 0.10722,0.52487 0.11469,0.65628 0.0426,0.74859 -0.0481,0.0616 -0.39127,0.43993 -0.76254,0.84078 -0.64341,0.69466 -0.68789,0.72883 -0.94915,0.72919 -0.77208,0.001 -0.92881,0.19378 -1.09462,1.34595 -0.21279,1.47855 -0.24489,1.63735 -0.38852,1.92192 -0.13352,0.26455 -0.17162,0.29231 -0.4181,0.30459 -0.14915,0.007 -0.48474,-0.0615 -0.74576,-0.15311 z m 2.03509,-5.96911 c 0.24105,-0.15794 0.43949,-0.51534 0.43949,-0.79151 0,-0.33921 -0.44569,-0.89722 -0.79327,-0.99319 -0.31847,-0.0879 -0.68007,0.002 -0.92557,0.22908 -0.15071,0.13967 -0.17947,0.22405 -0.17947,0.52655 0,0.22064 0.0487,0.45177 0.12571,0.59646 0.242,0.4548 0.94906,0.68424 1.33311,0.43261 z"
     id="path959"
     inkscape:connector-curvature="0" />
  <path
     style="opacity:1;fill:#ffb380;fill-opacity:1;stroke:#000000;stroke-width:0.00088688;stroke-linecap:round;stroke-miterlimit:4;stroke-dasharray:none;stroke-dashoffset:0;stroke-opacity:1;paint-order:stroke markers fill"
     d="m 133.70124,128.02682 c -0.22584,-0.11796 -0.29823,-0.22391 -0.28251,-0.41347 0.0116,-0.13995 0.0672,-0.22364 0.19143,-0.28829 0.11333,-0.059 0.2075,-0.0421 0.34106,0.0609 0.22857,0.17635 0.27828,0.30559 0.18503,0.48108 -0.0876,0.16494 -0.28581,0.23773 -0.43501,0.15979 z"
     id="path972"
     inkscape:connector-curvature="0" />
  <path
     style="opacity:1;fill:#ffb380;fill-opacity:1;stroke:#000000;stroke-width:0.00088688;stroke-linecap:round;stroke-miterlimit:4;stroke-dasharray:none;stroke-dashoffset:0;stroke-opacity:1;paint-order:stroke markers fill"
     d="m 126.12317,133.023 c -0.17607,-0.11167 -0.29035,-0.3089 -0.23687,-0.40883 0.0147,-0.0274 0.0811,-0.0929 0.14772,-0.14551 0.17668,-0.13966 0.23198,-0.13228 0.42037,0.0561 0.13197,0.13196 0.15181,0.16345 0.15181,0.24088 0,0.17701 -0.13098,0.3264 -0.28618,0.3264 -0.0557,0 -0.12783,-0.0253 -0.19685,-0.0691 z"
     id="path974"
     inkscape:connector-curvature="0" />
  <path
     style="opacity:1;fill:#ffb380;fill-opacity:1;stroke:#000000;stroke-width:0.00125424;stroke-linecap:round;stroke-miterlimit:4;stroke-dasharray:none;stroke-dashoffset:0;stroke-opacity:1;paint-order:stroke markers fill"
     d="m 113.05636,123.42568 c -0.0774,-0.0383 -0.22473,-0.15774 -0.32743,-0.26541 -0.31244,-0.32756 -0.33252,-0.57431 -0.0716,-0.87918 0.15175,-0.17728 0.27509,-0.24334 0.45435,-0.24334 0.18956,0 0.32556,0.0639 0.53183,0.25008 0.27378,0.24705 0.37214,0.51245 0.28025,0.75618 -0.0824,0.21856 -0.40209,0.44902 -0.62504,0.45059 -0.0559,4e-4 -0.16501,-0.0306 -0.24239,-0.0689 z"
     id="path976"
     inkscape:connector-curvature="0" />
  <path
     style="opacity:1;fill:#ffb380;fill-opacity:1;stroke:#000000;stroke-width:0.00125424;stroke-linecap:round;stroke-miterlimit:4;stroke-dasharray:none;stroke-dashoffset:0;stroke-opacity:1;paint-order:stroke markers fill"
     d="m 113.16315,124.77889 c -0.41012,-0.0959 -1.00648,-0.50417 -1.50855,-1.03273 -0.41025,-0.43191 -0.56703,-0.829 -0.53342,-1.35112 0.0293,-0.45569 0.2349,-0.84244 0.65763,-1.23721 0.35092,-0.32773 0.61131,-0.45021 0.99784,-0.46937 0.60902,-0.0302 1.11078,0.2283 1.85574,0.95598 0.49207,0.48066 0.65619,0.82913 0.65619,1.39331 0,0.47818 -0.0954,0.70195 -0.48913,1.14685 -0.45269,0.51158 -1.05482,0.73027 -1.6363,0.59429 z m 0.63999,-0.83754 c 0.19008,-0.0841 0.49243,-0.37787 0.60115,-0.58412 0.0634,-0.12031 0.0792,-0.20375 0.08,-0.42167 8.1e-4,-0.24131 -0.012,-0.29817 -0.11473,-0.50848 -0.15312,-0.31352 -0.4869,-0.64592 -0.80422,-0.80091 -0.20826,-0.10173 -0.2629,-0.11366 -0.52081,-0.11375 -0.24735,-8e-5 -0.31561,0.0134 -0.48218,0.0952 -0.10672,0.0524 -0.24834,0.15872 -0.31471,0.23626 -0.32796,0.38315 -0.3935,0.79658 -0.19379,1.22254 0.18552,0.3957 0.66482,0.81642 1.05608,0.927 0.20248,0.0572 0.49601,0.0352 0.69323,-0.0521 z"
     id="path978"
     inkscape:connector-curvature="0" />
  <path
     style="opacity:1;fill:#ffb380;fill-opacity:1;stroke:#000000;stroke-width:0.00088688;stroke-linecap:round;stroke-miterlimit:4;stroke-dasharray:none;stroke-dashoffset:0;stroke-opacity:1;paint-order:stroke markers fill"
     d="m 190.30261,205.87398 c -0.0892,-0.0544 -0.25375,-0.22164 -0.29634,-0.30122 -0.043,-0.0804 -0.0139,-0.16647 0.097,-0.28685 0.13719,-0.14884 0.20844,-0.17325 0.32787,-0.11232 0.12819,0.0654 0.34187,0.30157 0.34187,0.37786 0,0.0865 -0.0557,0.18045 -0.16631,0.28033 -0.1114,0.10064 -0.19034,0.11159 -0.30414,0.0422 z"
     id="path980"
     inkscape:connector-curvature="0" />
  <path
     style="opacity:1;fill:#ffb380;fill-opacity:1;stroke:#000000;stroke-width:0.00125424;stroke-linecap:round;stroke-miterlimit:4;stroke-dasharray:none;stroke-dashoffset:0;stroke-opacity:1;paint-order:stroke markers fill"
     d=""
     id="path982"
     inkscape:connector-curvature="0" />
  <path
     style="opacity:1;fill:#ffb380;fill-opacity:1;stroke:#000000;stroke-width:0.00125424;stroke-linecap:round;stroke-miterlimit:4;stroke-dasharray:none;stroke-dashoffset:0;stroke-opacity:1;paint-order:stroke markers fill"
     d="m 187.61651,214.23361 c -0.0415,-0.008 -0.14448,-0.0812 -0.22881,-0.16319 -0.11751,-0.1142 -0.15333,-0.17384 -0.15333,-0.25523 0,-0.1478 0.0941,-0.29177 0.23411,-0.35821 0.11412,-0.0542 0.1239,-0.0533 0.2673,0.0228 0.1717,0.0911 0.31214,0.27718 0.31214,0.41361 0,0.0601 -0.04,0.13621 -0.11016,0.20985 -0.11571,0.12133 -0.19601,0.15393 -0.32125,0.13042 z"
     id="path984"
     inkscape:connector-curvature="0" />
  <path
     style="opacity:1;fill:#ffb380;fill-opacity:1;stroke:#000000;stroke-width:0.00125424;stroke-linecap:round;stroke-miterlimit:4;stroke-dasharray:none;stroke-dashoffset:0;stroke-opacity:1;paint-order:stroke markers fill"
     d="m 186.04615,218.82987 c -0.17412,-0.048 -0.43842,-0.26038 -0.55128,-0.44292 -0.25883,-0.41865 0.0273,-0.94266 0.51471,-0.94266 0.29358,0 0.69889,0.32275 0.78312,0.6236 0.12927,0.46171 -0.28867,0.88829 -0.74655,0.76198 z"
     id="path986"
     inkscape:connector-curvature="0" />
  <path
     style="opacity:1;fill:#ffb380;fill-opacity:1;stroke:#000000;stroke-width:0.00062712;stroke-linecap:round;stroke-miterlimit:4;stroke-dasharray:none;stroke-dashoffset:0;stroke-opacity:1;paint-order:stroke markers fill"
     d="m 190.0401,194.769 c -0.23559,-0.0497 -0.51373,-0.27368 -0.64885,-0.52246 -0.0519,-0.0955 -0.0552,-0.11197 -0.0552,-0.27119 0,-0.1529 0.005,-0.17885 0.0485,-0.26521 0.0606,-0.11969 0.17761,-0.23551 0.29895,-0.29605 0.13184,-0.0658 0.31721,-0.076 0.4564,-0.0253 0.30061,0.10961 0.53256,0.3412 0.60324,0.60232 0.0833,0.30759 -0.0548,0.60073 -0.34618,0.73504 -0.0912,0.0421 -0.26289,0.0627 -0.35683,0.0428 z"
     id="path988"
     inkscape:connector-curvature="0" />
  <path
     style="opacity:1;fill:#ffb380;fill-opacity:1;stroke:#000000;stroke-width:0.00062712;stroke-linecap:round;stroke-miterlimit:4;stroke-dasharray:none;stroke-dashoffset:0;stroke-opacity:1;paint-order:stroke markers fill"
     d="m 184.35577,189.4743 c -0.0451,-0.007 -0.14005,-0.0411 -0.21107,-0.0748 -0.17115,-0.0813 -0.3778,-0.286 -0.46263,-0.45832 -0.0522,-0.10608 -0.0579,-0.13188 -0.0579,-0.26243 0,-0.12931 0.006,-0.15682 0.0555,-0.2575 0.14939,-0.30344 0.49221,-0.43933 0.79417,-0.3148 0.62727,0.2587 0.79446,0.96313 0.30288,1.2761 -0.13584,0.0865 -0.27229,0.11623 -0.42092,0.0918 z"
     id="path990"
     inkscape:connector-curvature="0" />
  <path
     style="opacity:1;fill:#ffb380;fill-opacity:1;stroke:#000000;stroke-width:0.00062712;stroke-linecap:round;stroke-miterlimit:4;stroke-dasharray:none;stroke-dashoffset:0;stroke-opacity:1;paint-order:stroke markers fill"
     d="m 184.74026,185.08686 c -0.048,-0.0176 -0.12808,-0.0582 -0.17796,-0.0901 -0.1225,-0.0785 -0.31674,-0.29004 -0.37891,-0.41275 -0.0458,-0.0904 -0.0508,-0.11596 -0.0508,-0.26121 0,-0.14215 0.006,-0.17237 0.0476,-0.25792 0.0656,-0.13364 0.17631,-0.24201 0.31301,-0.30649 0.0999,-0.0471 0.13067,-0.0536 0.24958,-0.0522 0.15975,0.002 0.26318,0.0381 0.43538,0.1526 0.14799,0.0984 0.24118,0.20489 0.31697,0.36229 0.0577,0.11995 0.0612,0.13667 0.0612,0.29661 0,0.1609 -0.003,0.17492 -0.0581,0.27671 -0.0641,0.11827 -0.14118,0.19254 -0.27635,0.26634 -0.0766,0.0418 -0.11093,0.0494 -0.24179,0.0534 -0.11638,0.004 -0.17323,-0.003 -0.23982,-0.0273 z"
     id="path992"
     inkscape:connector-curvature="0" />
  <path
     style="opacity:1;fill:#ffb380;fill-opacity:1;stroke:#000000;stroke-width:0.00062712;stroke-linecap:round;stroke-miterlimit:4;stroke-dasharray:none;stroke-dashoffset:0;stroke-opacity:1;paint-order:stroke markers fill"
     d="m 184.10192,195.56743 -0.86122,-0.039 -0.14585,-0.13241 c -0.26903,-0.24424 -0.50477,-0.48292 -0.48487,-0.49091 0.0109,-0.004 0.23586,0.0234 0.5,0.0616 0.26415,0.0382 0.61516,0.082 0.78002,0.0974 l 0.29975,0.0279 0.0308,-0.0361 c 0.0997,-0.1168 1.65825,-1.78399 1.66777,-1.78399 0.006,0 0.17259,0.14949 0.36942,0.3322 l 0.35788,0.3322 -0.0635,0.0717 c -0.0349,0.0394 -0.38349,0.41622 -0.77458,0.83729 -0.65015,0.70001 -0.71549,0.76539 -0.76271,0.76332 -0.0284,-0.001 -0.43919,-0.0198 -0.91286,-0.0412 z"
     id="path994"
     inkscape:connector-curvature="0" />
  <path
     style="fill:none;stroke:#000000;stroke-width:0.03239169;stroke-linecap:butt;stroke-linejoin:miter;stroke-miterlimit:4;stroke-dasharray:none;stroke-opacity:1"
     d="m 200.54716,188.79379 c 0.0331,0.28148 -0.24687,0.58359 -0.52962,0.57157 -0.28272,-0.0115 -0.63691,-0.3412 -0.66997,-0.6227 -0.0331,-0.28147 0.24687,-0.58361 0.52962,-0.57155 0.28273,0.0115 0.63689,0.3412 0.66997,0.62268 z"
     id="path934"
     inkscape:connector-curvature="0"
     sodipodi:nodetypes="sssss" />
  <path
     style="opacity:1;fill:#ffb380;fill-opacity:1;stroke:#000000;stroke-width:0.00014981;stroke-linecap:round;stroke-miterlimit:4;stroke-dasharray:none;stroke-dashoffset:0;stroke-opacity:1;paint-order:stroke markers fill"
     d="m 199.94829,189.33689 c -0.25138,-0.0557 -0.52146,-0.32006 -0.5756,-0.56343 -0.0491,-0.22089 0.12912,-0.49038 0.37485,-0.56668 0.0371,-0.0115 0.0575,-0.0139 0.11686,-0.0135 0.0618,4e-4 0.0791,0.003 0.12284,0.0172 0.12045,0.0396 0.22283,0.10566 0.32964,0.21278 0.16405,0.16455 0.23534,0.33016 0.20777,0.48267 -0.0195,0.10805 -0.073,0.20512 -0.16008,0.29064 -0.0946,0.0929 -0.20201,0.14333 -0.31411,0.14743 -0.04,0.001 -0.0743,-9.3e-4 -0.10217,-0.007 z"
     id="path1000"
     inkscape:connector-curvature="0" />
  <path
     style="opacity:1;fill:#ffb380;fill-opacity:1;stroke:#000000;stroke-width:0.00059924;stroke-linecap:round;stroke-miterlimit:4;stroke-dasharray:none;stroke-dashoffset:0;stroke-opacity:1;paint-order:stroke markers fill"
     d="m 216.83767,204.00469 c -0.20809,-0.0521 -0.45809,-0.21972 -0.69021,-0.46267 -0.24757,-0.25913 -0.33309,-0.42946 -0.34762,-0.69238 -0.0105,-0.19067 -0.007,-0.2062 0.0759,-0.37469 0.14971,-0.30291 0.45817,-0.5487 0.72883,-0.58076 0.29535,-0.035 0.56887,0.0983 0.91651,0.44656 0.32717,0.32776 0.37128,0.41333 0.37128,0.7203 0,0.21001 -0.006,0.24111 -0.0795,0.3898 -0.15393,0.31268 -0.46274,0.53508 -0.77138,0.55553 -0.0857,0.006 -0.17737,0.005 -0.20374,-0.002 z"
     id="path1004"
     inkscape:connector-curvature="0" />
  <path
     style="opacity:1;fill:#ffb380;fill-opacity:1;stroke:#000000;stroke-width:0.00029962;stroke-linecap:round;stroke-miterlimit:4;stroke-dasharray:none;stroke-dashoffset:0;stroke-opacity:1;paint-order:stroke markers fill"
     d="m 210.00396,199.78114 c -0.31759,-0.0532 -0.65869,-0.32194 -0.82278,-0.64829 -0.0641,-0.1275 -0.0864,-0.2286 -0.0806,-0.36564 0.004,-0.10065 0.009,-0.11862 0.0567,-0.21573 0.0437,-0.0889 0.0706,-0.12426 0.16728,-0.22005 0.17074,-0.1691 0.30379,-0.2262 0.49304,-0.21161 0.39902,0.0308 0.84898,0.41946 0.95282,0.82309 0.0141,0.0549 0.0187,0.11161 0.0155,0.19188 -0.004,0.10625 -0.008,0.12128 -0.0576,0.22172 -0.0438,0.089 -0.072,0.12663 -0.16149,0.21599 -0.18563,0.18532 -0.34639,0.24489 -0.56295,0.20864 z"
     id="path1025"
     inkscape:connector-curvature="0" />
  <path
     style="opacity:1;fill:#ff7f2a;fill-opacity:1;stroke:#000000;stroke-width:0.00239697;stroke-linecap:round;stroke-miterlimit:4;stroke-dasharray:none;stroke-dashoffset:0;stroke-opacity:1;paint-order:stroke markers fill"
     d="m 234.03213,249.27065 c -0.50999,-0.49451 -1.02182,-1.08742 -1.13739,-1.31758 -0.11558,-0.23016 -0.29618,-0.51246 -0.40135,-0.62734 -0.10516,-0.11488 -0.1758,-0.24936 -0.15696,-0.29885 0.0392,-0.1031 16.00075,-17.31205 16.0942,-17.352 0.13237,-0.0566 3.30821,2.9948 3.3376,3.20682 0.0165,0.11912 -0.0411,0.3664 -0.12797,0.54951 -0.24243,0.51089 -0.63108,0.93945 -10.27669,11.33225 l -4.81367,5.18655 -0.6699,0.11063 c -0.36845,0.0608 -0.72631,0.11029 -0.79525,0.10987 -0.0689,-3.9e-4 -0.54262,-0.40536 -1.05262,-0.89986 z"
     id="path1027"
     inkscape:connector-curvature="0" />
  <path
     style="opacity:1;fill:none;fill-opacity:1;stroke:#000000;stroke-width:0.00119849;stroke-linecap:round;stroke-miterlimit:4;stroke-dasharray:none;stroke-dashoffset:0;stroke-opacity:1;paint-order:stroke markers fill"
     d="m 100.93618,115.81593 c -0.71706,-0.53902 -2.088152,-1.78657 -8.341115,-7.58949 l -3.222823,-2.99087 0.9457,-1.01869 c 0.520134,-0.56027 1.366368,-1.47329 1.880519,-2.02892 l 0.934819,-1.01024 0.119848,0.10827 c 0.249087,0.225 11.536532,10.68777 11.685282,10.83154 l 0.15585,0.15063 -1.1386,1.17016 c -1.07581,1.10561 -2.30453,2.28457 -2.60103,2.4957 l -0.13422,0.0956 z"
     id="path1045"
     inkscape:connector-curvature="0" />
  <path
     style="opacity:1;fill:none;fill-opacity:1;stroke:#000000;stroke-width:0.00119849;stroke-linecap:round;stroke-miterlimit:4;stroke-dasharray:none;stroke-dashoffset:0;stroke-opacity:1;paint-order:stroke markers fill"
     d="m 100.93618,115.81593 c -0.71706,-0.53902 -2.088152,-1.78657 -8.341115,-7.58949 l -3.222823,-2.99087 0.9457,-1.01869 c 0.520134,-0.56027 1.366368,-1.47329 1.880519,-2.02892 l 0.934819,-1.01024 0.119848,0.10827 c 0.249087,0.225 11.536532,10.68777 11.685282,10.83154 l 0.15585,0.15063 -1.1386,1.17016 c -1.07581,1.10561 -2.30453,2.28457 -2.60103,2.4957 l -0.13422,0.0956 z"
     id="path1047"
     inkscape:connector-curvature="0" />
  <path
     style="opacity:1;fill:url(#linearGradient1057);fill-opacity:1;stroke:#000000;stroke-width:0.00119849;stroke-linecap:round;stroke-miterlimit:4;stroke-dasharray:none;stroke-dashoffset:0;stroke-opacity:1;paint-order:stroke markers fill"
     d="m 100.93618,115.81593 c -0.71706,-0.53902 -2.088152,-1.78657 -8.341115,-7.58949 l -3.222823,-2.99087 0.9457,-1.01869 c 0.520134,-0.56027 1.366368,-1.47329 1.880519,-2.02892 l 0.934819,-1.01024 0.119848,0.10827 c 0.249087,0.225 11.536532,10.68777 11.685282,10.83154 l 0.15585,0.15063 -1.1386,1.17016 c -1.07581,1.10561 -2.30453,2.28457 -2.60103,2.4957 l -0.13422,0.0956 z"
     id="path1049"
     inkscape:connector-curvature="0" />
</svg>
