<?xml version="1.0" encoding="UTF-8"?>
<svg id="svg98" cursor="default" version="1.1" viewBox="0 0 256 256" xmlns="http://www.w3.org/2000/svg" xmlns:cc="http://creativecommons.org/ns#" xmlns:dc="http://purl.org/dc/elements/1.1/" xmlns:rdf="http://www.w3.org/1999/02/22-rdf-syntax-ns#" xmlns:xlink="http://www.w3.org/1999/xlink">
 <metadata id="metadata104">
  <rdf:RDF>
   <cc:Work rdf:about="">
    <dc:format>image/svg+xml</dc:format>
    <dc:type rdf:resource="http://purl.org/dc/dcmitype/StillImage"/>
    <dc:title/>
   </cc:Work>
  </rdf:RDF>
 </metadata>
 <defs id="defs102">
  <linearGradient id="innoGrad3">
   <stop id="stop2030" stop-color="#000000" offset="0"/>
   <stop id="stop2032" stop-color="#000000" stop-opacity="0" offset="1"/>
  </linearGradient>
  <linearGradient id="innoGrad4">
   <stop id="stop1769" stop-color="#ffb380" offset="0"/>
   <stop id="stop1771" stop-color="#ffb380" stop-opacity="0" offset="1"/>
  </linearGradient>
  <linearGradient id="linearGradient2356-3" x1="311.62" x2="317.75" y1="1098.2" y2="1170.8" gradientTransform="matrix(.1346 -.11327 .11327 .1346 -128.68 64.319)" gradientUnits="userSpaceOnUse" xlink:href="#innoGrad3"/>
  <linearGradient id="linearGradient2354-6" x1="377.54" x2="325.45" y1="1407" y2="1259" gradientTransform="matrix(.1346 -.11327 .11327 .1346 -128.68 64.319)" gradientUnits="userSpaceOnUse" xlink:href="#innoGrad3"/>
  <linearGradient id="linearGradient2028-9" x1="1446.9" x2="1439.7" y1="936.72" y2="1054.2" gradientTransform="matrix(.1346 -.11327 .11327 .1346 -128.68 64.319)" gradientUnits="userSpaceOnUse" xlink:href="#innoGrad3"/>
  <linearGradient id="linearGradient2036-3" x1="1429.4" x2="1416.3" y1="1300.3" y2="1156.3" gradientTransform="matrix(.1346 -.11327 .11327 .1346 -128.68 64.319)" gradientUnits="userSpaceOnUse" xlink:href="#innoGrad3"/>
  <linearGradient id="linearGradient2080-6" x1="552.23" x2="552.23" y1="757.99" y2="916.99" gradientTransform="matrix(.1346 -.11327 .11327 .1346 -53.678 34.366)" gradientUnits="userSpaceOnUse" xlink:href="#innoGrad3"/>
  <linearGradient id="linearGradient1932-9" x1="1302.1" x2="1302.1" y1="960.64" y2="971.07" gradientTransform="matrix(.1346 -.11327 .11327 .1346 -121.99 75.772)" gradientUnits="userSpaceOnUse" spreadMethod="reflect" xlink:href="#innoGrad4"/>
  <linearGradient id="linearGradient1930-1" x1="1293.9" x2="1293.9" y1="980.4" y2="987.82" gradientTransform="matrix(.1346 -.11327 .11327 .1346 -121.99 75.772)" gradientUnits="userSpaceOnUse" spreadMethod="reflect" xlink:href="#innoGrad4"/>
  <radialGradient id="radialGradient2128-1" cx="1214.8" cy="1220.7" r="33.164" gradientTransform="matrix(.1346 -.11327 .059857 .07113 -89.173 152.36)" gradientUnits="userSpaceOnUse">
   <stop id="stop2122-4" stop-color="#ff7f2a" offset="0"/>
   <stop id="stop2124-6" stop-color="#ff7f2a" stop-opacity="0" offset="1"/>
  </radialGradient>
  <linearGradient id="linearGradient2082-0" x1="474.03" x2="474.03" y1="842.91" y2="955.34" gradientTransform="matrix(.1346 -.11327 .11327 .1346 -53.678 34.366)" gradientUnits="userSpaceOnUse" xlink:href="#innoGrad3"/>
  <linearGradient id="linearGradient1775-4" x1="1733.1" x2="1733.1" y1="1133.6" y2="1165.6" gradientTransform="matrix(.1346 -.11327 .11327 .1346 -128.68 64.319)" gradientUnits="userSpaceOnUse" spreadMethod="reflect" xlink:href="#innoGrad4"/>
  <linearGradient id="linearGradient2044-2" x1="601.53" x2="604.99" y1="1171.7" y2="1171.7" gradientTransform="matrix(.1346 -.11327 .11327 .1346 -128.68 64.319)" gradientUnits="userSpaceOnUse" spreadMethod="reflect">
   <stop id="stop2038-4" stop-color="#ffccaa" offset="0"/>
   <stop id="stop2040-9" stop-color="#ffccaa" stop-opacity="0" offset="1"/>
  </linearGradient>
  <linearGradient id="linearGradient1814-4" x1="1656.7" x2="1656.7" y1="1135.6" y2="1158.4" gradientTransform="matrix(.1346 -.11327 .11327 .1346 -128.68 64.319)" gradientUnits="userSpaceOnUse" spreadMethod="reflect" xlink:href="#innoGrad4"/>
  <linearGradient id="linearGradient1822-1" x1="1656.7" x2="1656.7" y1="1101" y2="1105.8" gradientTransform="matrix(.1346 -.11327 .11327 .1346 -128.68 64.319)" gradientUnits="userSpaceOnUse" spreadMethod="reflect" xlink:href="#innoGrad4"/>
  <linearGradient id="linearGradient1830-2" x1="1656.7" x2="1656.7" y1="1059.8" y2="1075" gradientTransform="matrix(.1346 -.11327 .11327 .1346 -128.68 64.319)" gradientUnits="userSpaceOnUse" spreadMethod="reflect" xlink:href="#innoGrad4"/>
  <linearGradient id="linearGradient1838-1" x1="1656.7" x2="1656.7" y1="996.9" y2="1008.4" gradientTransform="matrix(.1346 -.11327 .11327 .1346 -128.68 64.319)" gradientUnits="userSpaceOnUse" spreadMethod="reflect" xlink:href="#innoGrad4"/>
  <linearGradient id="linearGradient2157-2-3-7" x1="390.24" x2="417.55" y1="1677.4" y2="1587.8" gradientTransform="matrix(.1346 -.11327 .11327 .1346 -112 19.431)" gradientUnits="userSpaceOnUse" xlink:href="#innoGrad3"/>
  <linearGradient id="linearGradient1806-4" x1="1627.9" x2="1627.9" y1="1132.7" y2="1152.8" gradientTransform="matrix(.1346 -.11327 .11327 .1346 -128.68 64.319)" gradientUnits="userSpaceOnUse" spreadMethod="reflect" xlink:href="#innoGrad4"/>
  <linearGradient id="linearGradient2157-2-0" x1="489.24" x2="494.96" y1="1251.4" y2="1390.7" gradientTransform="matrix(.1346 -.11327 .11327 .1346 -112 19.431)" gradientUnits="userSpaceOnUse" xlink:href="#innoGrad3"/>
  <linearGradient id="linearGradient2157-1" x1="373.24" x2="433.96" y1="1427.4" y2="1443.7" gradientTransform="matrix(.1346 -.11327 .11327 .1346 -112 19.431)" gradientUnits="userSpaceOnUse" xlink:href="#innoGrad3"/>
  <linearGradient id="linearGradient2159-9" x1="769.35" x2="669.73" y1="1477" y2="1446.4" gradientTransform="matrix(.1346 -.11327 .11327 .1346 -133.48 37.502)" gradientUnits="userSpaceOnUse" xlink:href="#innoGrad3"/>
 </defs>
 <g stroke="#000000" stroke-width=".4">
  <path id="rect1201-0-0" d="m76.279 149.69c-22.844 23.643-46.614 45.265-70.324 66.864l5.3876 6.4023 69.184-68.218z" fill="#ff9955" fill-rule="evenodd"/>
  <g stroke-linecap="square">
   <path id="path1184-9" d="m97.102 154.52 3.1415 3.7332s0.93009-0.16325 1.3963-0.12953c0.4628 0.0336 0.91968 0.16129 1.353 0.32713 0.42716 0.16347 0.83937 0.3798 1.2082 0.65023 0.20793 0.15246 0.38866 0.34187 0.55445 0.53932 0.30088 0.35834 0.60656 0.7299 0.78973 1.1605l11.638 27.354s0.36436 0.74116 0.63572 1.0458c0.26923 0.30217 0.60131 0.55472 0.95806 0.74574 0.48877 0.26169 1.0237 0.51055 1.5779 0.52598 0.48847 0.0133 0.97059-0.18093 1.4144-0.38551l10.986-5.0632c0.34113-0.15722 0.63826-0.4 0.92887-0.63797 0.4009-0.32818 0.79569-0.67465 1.1154-1.0823 0.29771-0.37937 0.52761-0.8111 0.73168-1.248 0.20644-0.44195 0.44419-0.89245 0.49314-1.3778 0.0459-0.45532-0.0591-0.92201-0.19513-1.359-0.0414-0.13326-0.096-0.26848-0.18623-0.375-0.13657-0.16153-0.32884-0.27004-0.51422-0.372-0.30602-0.16831-0.64452-0.27008-0.97324-0.3881-0.39528-0.14189-0.82864-0.18784-1.1999-0.38419-0.2351-0.12432-0.40825-0.32956-0.56936-0.54117-0.22116-0.2905-0.33551-0.62604-0.47964-0.96152l-10.09-23.483c-0.13825-0.32187-0.45648-0.54473-0.59388-0.86696-0.1501-0.35197-0.26595-0.68312-0.30575-1.0637-0.0338-0.32946 3e-3 -0.72886 0.0686-1.0535 0.0585-0.29087 0.18801-0.56908 0.34645-0.81994 0.15382-0.24355 0.35385-0.46035 0.57426-0.64581l1.6656-1.4017-9.0107-10.708-19.095 16.069z" fill="#ffd42a"/>
   <path id="path1184-9-3" d="m97.102 154.52 3.1415 3.7332s0.9301-0.16326 1.3963-0.12953c0.46281 0.0336 0.91968 0.1613 1.353 0.32714 0.42715 0.16346 0.83937 0.37979 1.2082 0.65023 0.20793 0.15245 0.38866 0.34186 0.55445 0.53931 0.30088 0.35835 0.60657 0.72991 0.78973 1.1605l11.638 27.354s0.36436 0.74116 0.63572 1.0458c0.26924 0.30217 0.60131 0.55472 0.95808 0.74574 0.48875 0.26169 1.0236 0.51055 1.5779 0.52598 0.48846 0.0134 0.9706-0.18093 1.4144-0.38551l10.986-5.0632c0.34113-0.15723 0.63826-0.40001 0.92887-0.63797 0.4009-0.32818 0.79569-0.67466 1.1154-1.0823 0.29771-0.37937 0.52761-0.8111 0.73168-1.248 0.20644-0.44195 0.44419-0.89245 0.49314-1.3778 0.0459-0.45532-0.0591-0.92201-0.19513-1.359-0.0414-0.13325-0.096-0.26847-0.18623-0.37499-0.13657-0.16154-0.32884-0.27004-0.51422-0.372-0.30602-0.16831-0.64452-0.27008-0.97324-0.3881-0.39528-0.1419-0.82864-0.18784-1.1999-0.38419-0.23511-0.12432-0.40825-0.32956-0.56937-0.54117-0.22116-0.29051-0.3355-0.62604-0.47964-0.96152l-10.09-23.483c-0.13825-0.32187-0.45648-0.54473-0.59388-0.86696-0.1501-0.35197-0.26595-0.68312-0.30575-1.0637-0.0338-0.32946 3e-3 -0.72886 0.0686-1.0535 0.0585-0.29087 0.18801-0.56908 0.34645-0.81994 0.15382-0.24355 0.35385-0.46035 0.57426-0.64581l1.6656-1.4017-9.0107-10.708-19.095 16.069z" fill="url(#linearGradient2159-9)"/>
   <path id="path1184-9-9" d="m97.102 154.52 3.1415 3.7332s0.93009-0.16325 1.3963-0.12953c0.4628 0.0336 0.91968 0.16129 1.353 0.32713 0.42716 0.16347 0.83937 0.3798 1.2082 0.65023 0.20793 0.15246 0.38866 0.34187 0.55445 0.53932 0.30088 0.35834 0.60656 0.7299 0.78973 1.1605l11.638 27.354s0.36436 0.74116 0.63572 1.0458c0.26923 0.30217 0.60131 0.55472 0.95806 0.74574 0.48877 0.26169 1.0237 0.51055 1.5779 0.52598 0.48847 0.0133 0.97059-0.18093 1.4144-0.38551l10.986-5.0632c0.34113-0.15722 0.63826-0.4 0.92887-0.63797 0.4009-0.32818 0.79569-0.67465 1.1154-1.0823 0.29771-0.37937 0.52761-0.8111 0.73168-1.248 0.20644-0.44195 0.44419-0.89245 0.49314-1.3778 0.0459-0.45532-0.0591-0.92201-0.19513-1.359-0.0414-0.13326-0.096-0.26848-0.18623-0.375-0.13657-0.16153-0.32884-0.27004-0.51422-0.372-0.30602-0.16831-0.64452-0.27008-0.97324-0.3881-0.39528-0.14189-0.82864-0.18784-1.1999-0.38419-0.2351-0.12432-0.40825-0.32956-0.56936-0.54117-0.22116-0.2905-0.33551-0.62604-0.47964-0.96152l-10.09-23.483c-0.13825-0.32187-0.45648-0.54473-0.59388-0.86696-0.1501-0.35197-0.26595-0.68312-0.30575-1.0637-0.0338-0.32946 3e-3 -0.72886 0.0686-1.0535 0.0585-0.29087 0.18801-0.56908 0.34645-0.81994 0.15382-0.24355 0.35385-0.46035 0.57426-0.64581l1.6656-1.4017-9.0107-10.708-19.095 16.069z" fill="url(#linearGradient2157-1)"/>
   <path id="path1184-9-9-8" d="m97.102 154.52 3.1415 3.7332s0.93009-0.16325 1.3963-0.12953c0.4628 0.0336 0.91968 0.16129 1.353 0.32713 0.42716 0.16347 0.83937 0.3798 1.2082 0.65023 0.20793 0.15246 0.38866 0.34187 0.55445 0.53932 0.30088 0.35834 0.60656 0.7299 0.78973 1.1605l11.638 27.354s0.36436 0.74116 0.63572 1.0458c0.26923 0.30217 0.60131 0.55472 0.95806 0.74574 0.48877 0.26169 1.0237 0.51055 1.5779 0.52598 0.48847 0.0133 0.97059-0.18093 1.4144-0.38551l10.986-5.0632c0.34113-0.15722 0.63826-0.4 0.92887-0.63797 0.4009-0.32818 0.79569-0.67465 1.1154-1.0823 0.29771-0.37937 0.52761-0.8111 0.73168-1.248 0.20644-0.44195 0.44419-0.89245 0.49314-1.3778 0.0459-0.45532-0.0591-0.92201-0.19513-1.359-0.0414-0.13326-0.096-0.26848-0.18623-0.375-0.13657-0.16153-0.32884-0.27004-0.51422-0.372-0.30602-0.16831-0.64452-0.27008-0.97324-0.3881-0.39528-0.14189-0.82864-0.18784-1.1999-0.38419-0.2351-0.12432-0.40825-0.32956-0.56936-0.54117-0.22116-0.2905-0.33551-0.62604-0.47964-0.96152l-10.09-23.483c-0.13825-0.32187-0.45648-0.54473-0.59388-0.86696-0.1501-0.35197-0.26595-0.68312-0.30575-1.0637-0.0338-0.32946 3e-3 -0.72886 0.0686-1.0535 0.0585-0.29087 0.18801-0.56908 0.34645-0.81994 0.15382-0.24355 0.35385-0.46035 0.57426-0.64581l1.6656-1.4017-9.0107-10.708-19.095 16.069z" fill="url(#linearGradient2157-2-0)"/>
   <path id="path1071-7" d="m163.14 54.314-2.2841 1.9221 1.3859 1.6472 2.2893-1.9265z" fill="#444444"/>
  </g>
 </g>
 <g fill="#ff7f2a" stroke="#000000" stroke-linecap="square" stroke-width=".4">
  <path id="path943-0" d="m164.52 58.885-2.615-3.1075c-0.0355-0.04232-0.0281-0.12962 0.0143-0.16521l2.9393-2.4735 5.0112 5.955 32.493-27.343 2.4638 2.9278-35.523 29.893z"/>
  <path id="path980-8" d="m154.73 66.315-33.819 28.459 8.4104 9.9943 33.819-28.459z"/>
  <path id="path838-8" d="m221.43 25.156-10.458 8.8009 4.9171 5.8431 10.458-8.8009z"/>
 </g>
 <g stroke="#000000" stroke-width=".4">
  <path id="path838-8-6" d="m221.43 25.156-10.458 8.8009 4.9171 5.8431 10.458-8.8009z" fill="url(#linearGradient1806-4)" stroke-linecap="square"/>
  <rect id="rect1147-8" transform="rotate(-40.081)" x="31.799" y="157.4" width="2.9911" height="5.1897" fill="#000000" fill-rule="evenodd" opacity=".2"/>
  <g stroke-linecap="square">
   <path id="path978-4" d="m81.08 123.42 40.916-34.431 6.2866 7.4705-0.44974 5.2257c-0.018 0.20921 0.19659 0.64823 0.38299 0.74492 0.20338 0.10551 0.64037 0.0963 0.81568-0.0512l1.3772-1.159 0.3178 0.37768-39.815 33.505z" fill="#ff7f2a"/>
   <path id="path1179-5" d="m116.14 136.99s0.88634-0.34463 1.3449-0.46644c0.62135-0.16507 1.2531-0.33516 1.8956-0.35553 0.60849-0.0193 1.2312 0.0426 1.8128 0.22222 0.41294 0.12758 0.81403 0.32588 1.1516 0.59572 0.25103 0.20063 0.39828 0.50575 0.62073 0.73763 0.30397 0.31686 0.60946 0.64134 0.97187 0.88926 0.67241 0.45995 1.4189 0.82336 2.1912 1.0825 0.57638 0.19337 1.1863 0.28376 1.7915 0.34179 0.52716 0.0506 1.0599 0.031 1.5888 4e-3 0.77532-0.0392 1.5721-0.0212 2.3163-0.24215 0.13257-0.0393 0.27129-0.0914 0.3694-0.18892 0.40383-0.40132 0.61333-0.9737 0.78708-1.5159 0.0202-0.0629 0.0638-0.14071 0.0279-0.19624-0.0354-0.055-0.1884-0.0548-0.1884-0.0548s-0.53497 0.13517-0.80854 0.1622c-0.51613 0.0509-1.5559-2e-3 -1.5559-2e-3s-1.1451-0.0808-1.7042-0.20186c-0.60783-0.13164-1.2113-0.3098-1.7776-0.56683-0.36644-0.16629-0.69909-0.40005-1.0333-0.62414-0.22346-0.14984-0.41322-0.32725-0.59483-0.52575-0.23359-0.25526-0.43825-0.53509-0.59535-0.84029-0.25905-0.50325-0.43168-1.0521-0.55721-1.604-0.11522-0.50672-0.16096-1.0296-0.17565-1.5491-0.0262-0.9218 0.15495-2.7622 0.15495-2.7622l-8.4758 7.1325z" fill="#ff7f2a"/>
   <path id="path1184-9-9-8-3" d="m97.102 154.52 3.1415 3.7332s0.93009-0.16325 1.3963-0.12953c0.4628 0.0336 0.91968 0.16129 1.353 0.32713 0.42716 0.16347 0.83937 0.3798 1.2082 0.65023 0.20793 0.15246 0.38866 0.34187 0.55445 0.53932 0.30088 0.35834 0.60656 0.7299 0.78973 1.1605l11.638 27.354s0.36436 0.74116 0.63572 1.0458c0.26923 0.30217 0.60131 0.55472 0.95806 0.74574 0.48877 0.26169 1.0237 0.51055 1.5779 0.52598 0.48847 0.0133 0.97059-0.18093 1.4144-0.38551l10.986-5.0632c0.34113-0.15722 0.63826-0.4 0.92887-0.63797 0.4009-0.32818 0.79569-0.67465 1.1154-1.0823 0.29771-0.37937 0.52761-0.8111 0.73168-1.248 0.20644-0.44195 0.44419-0.89245 0.49314-1.3778 0.0459-0.45532-0.0591-0.92201-0.19513-1.359-0.0414-0.13326-0.096-0.26848-0.18623-0.375-0.13657-0.16153-0.32884-0.27004-0.51422-0.372-0.30602-0.16831-0.64452-0.27008-0.97324-0.3881-0.39528-0.14189-0.82864-0.18784-1.1999-0.38419-0.2351-0.12432-0.40825-0.32956-0.56936-0.54117-0.22116-0.2905-0.33551-0.62604-0.47964-0.96152l-10.09-23.483c-0.13825-0.32187-0.45648-0.54473-0.59388-0.86696-0.1501-0.35197-0.26595-0.68312-0.30575-1.0637-0.0338-0.32946 3e-3 -0.72886 0.0686-1.0535 0.0585-0.29087 0.18801-0.56908 0.34645-0.81994 0.15382-0.24355 0.35385-0.46035 0.57426-0.64581l1.6656-1.4017-9.0107-10.708-19.095 16.069z" fill="url(#linearGradient2157-2-3-7)"/>
  </g>
  <path id="rect1186-1" d="m108.82 156.21 6.615-5.5666 13.139 31.214-7.9513 3.3989z" fill="#000000" fill-rule="evenodd" opacity=".2"/>
  <g stroke-linecap="square">
   <path id="path1189-0" d="m143.96 121.28s2.3936 1.0108 3.5054 1.5357c1.365 0.64453 2.5453 1.4587 3.8095 2.2836 2.7168 1.7727 5.3356 3.8591 7.9719 5.7492 2.4306 1.7426 4.8311 3.4453 7.3825 5.0055 2.4284 1.485 4.9122 2.8786 7.4028 4.2568 1.8965 1.0495 3.8047 2.0794 5.7406 3.0544 2.7263 1.3729 5.4659 2.7265 8.2693 3.9341 2.4542 1.0572 4.9613 1.9906 7.4759 2.8947 1.5407 0.55395 3.1272 0.97673 4.6611 1.5491 1.7324 0.64642 3.4064 1.4402 5.1233 2.1265 1.8035 0.72086 3.6664 1.2963 5.4385 2.0912 0.29149 0.13075 0.60209 0.24001 0.85177 0.43931 0.21873 0.17463 0.54064 0.64247 0.54064 0.64247l1.7615 0.3061c0.0843 0.0146 0.21205-0.0296 0.23039-0.11264l0.76367-3.4878 0.44195-7e-3 5.8977-27.623s-0.12635-0.0525-0.19341-0.0607c-0.76434-0.0949-1.5378 0.17449-2.3068 0.13254-1.1922-0.0649-2.3642-0.34722-3.5326-0.59281-1.6962-0.35644-3.3787-0.78388-5.0404-1.2765-1.9863-0.58889-3.9513-1.2559-5.883-2.0046-1.7545-0.67998-3.4678-1.4636-5.1746-2.2558-1.6263-0.75475-3.223-1.5718-4.8246-2.3779-2.2532-1.1341-4.4995-2.282-6.7308-3.4585-1.9038-1.0039-3.807-2.0103-5.6792-3.0719-2.0759-1.1771-4.1473-2.3664-6.1558-3.655-2.1103-1.3538-4.1855-2.7676-6.1867-4.2781-1.9278-1.4551-3.7988-2.9894-5.597-4.6019-0.58945-0.52856-1.6988-1.6601-1.6988-1.6601l-2.5784-0.14386-21.712 19.003z" fill="#333333"/>
   <path id="path1193-0" d="m142.48 116.18-4.6228-0.39785" fill="#ff0000"/>
   <path id="path1195-1" d="m157.71 101.58-15.228 14.603-2.9139-0.25077-0.4906-0.58299 16.727-14.971 1.9051 1.2013" fill="#666666"/>
  </g>
 </g>
 <g fill="#000000">
  <path id="rect1149-6" d="m142.46 85.97 0.14301-0.1203 1.423-0.25293 0.0632-0.05312 2.9087 3.4565-1.1637 0.97931z" fill-rule="evenodd" opacity=".2"/>
  <path id="path1179-5-5" d="m116.14 136.99s0.88634-0.34463 1.3449-0.46644c0.62135-0.16507 1.2531-0.33516 1.8956-0.35553 0.60849-0.0193 1.2312 0.0426 1.8128 0.22222 0.41294 0.12758 0.81403 0.32588 1.1516 0.59572 0.25103 0.20063 0.39828 0.50575 0.62073 0.73763 0.30397 0.31686 0.60946 0.64134 0.97187 0.88926 0.67241 0.45995 1.4189 0.82336 2.1912 1.0825 0.57638 0.19337 1.1863 0.28376 1.7915 0.34179 0.52716 0.0506 1.0599 0.031 1.5888 4e-3 0.77532-0.0392 1.5721-0.0212 2.3163-0.24215 0.13257-0.0393 0.27129-0.0914 0.3694-0.18892 0.40383-0.40132 0.61333-0.9737 0.78708-1.5159 0.0202-0.0629 0.0638-0.14071 0.0279-0.19624-0.0354-0.055-0.1884-0.0548-0.1884-0.0548s-0.53497 0.13517-0.80854 0.1622c-0.51613 0.0509-1.5559-2e-3 -1.5559-2e-3s-1.1451-0.0808-1.7042-0.20186c-0.60783-0.13164-1.2113-0.3098-1.7776-0.56683-0.36644-0.16629-0.69909-0.40005-1.0333-0.62414-0.22346-0.14984-0.41322-0.32725-0.59483-0.52575-0.23359-0.25526-0.43825-0.53509-0.59535-0.84029-0.25905-0.50325-0.43168-1.0521-0.55721-1.604-0.11522-0.50672-0.16096-1.0296-0.17565-1.5491-0.0262-0.9218 0.15495-2.7622 0.15495-2.7622l-8.4758 7.1325z" opacity=".14" stroke="#000000" stroke-linecap="square" stroke-width=".4"/>
  <path id="path978-4-5" d="m81.08 123.42 40.916-34.431 6.2866 7.4705-0.44974 5.2257c-0.018 0.20921 0.19659 0.64823 0.38299 0.74492 0.20338 0.10551 0.64037 0.0963 0.81568-0.0512l1.3772-1.159 0.3178 0.37768-39.815 33.505z" opacity=".1" stroke="#000000" stroke-linecap="square" stroke-width=".4"/>
 </g>
 <g>
  <g stroke="#000000" stroke-width=".4">
   <path id="path1177-0" d="m116.14 136.99 6.9449 8.2529c0.37995 0.45148 0.9631 0.66215 1.5175 0.86411 0.52557 0.19143 1.1309 0.28852 1.6895 0.31707 0.45684 0.0234 0.97442 0.0147 1.42-0.0885 0.65192-0.15102 1.3504-0.27809 1.835-0.73949l12.214-11.629c0.27267-0.25962 0.47296-0.81436 0.50813-1.1892 0.0305-0.32504-0.0631-0.87957-0.27326-1.1294l-7.4269-8.8257-0.58383-2.0642zm-36.917 7.7619 12.259 14.568 23.506-21.234 0.23694 3e-3 6.9883 8.3044s1.102 0.95948 1.7423 1.2977c0.53963 0.28494 1.1266 0.51212 1.731 0.59591 0.53905 0.0748 1.0922-9e-3 1.6301-0.0914 0.66337-0.10162 1.3265-0.2502 1.9517-0.49419 0.54971-0.21451 1.1336-0.43149 1.5568-0.84268l12.428-12.074c0.33729-0.3277 0.50444-0.80744 0.638-1.2583 0.0999-0.33743 0.12811-0.6982 0.11241-1.0498-0.0181-0.40498-0.0612-0.82747-0.2367-1.1929-0.16884-0.35161-0.75339-0.89527-0.75339-0.89527l2.8316-2.3828 3.0669 4.4694 0.82444-0.6938-2.6604-4.9032-0.0889-1.2328-0.0494-1.7834-7.1293-8.472 37.779-34.078-9.526-11.32z" fill="#ff7f2a" fill-rule="evenodd" stroke-linecap="square"/>
   <path id="rect1201-5" d="m27.814 242.7 53.274-80.599 7.5719 0.78698-55.447 87.33z" fill="#ff9955" fill-rule="evenodd"/>
   <path id="path817-5" d="m233.6 12.204 0.44931 0.53395-8.0867 6.8051-0.44733-0.53157-6.0496 5.0908 7.6874 9.1352 6.0495-5.0908-0.44756-0.53185 8.0868-6.8051 0.44953 0.5342 3.7629-3.1665-1.896-2.253c-0.19596-0.23286-0.0618-0.63953 0.0784-0.90969 0.13808-0.26616 0.68826-0.57919 0.68826-0.57919l8.7904-3.9534-2.386-2.8354-0.53843 0.45309c-0.37038 0.31168-1.1271-0.068955-1.4446-0.43436-0.33643-0.38722-0.63723-1.2429-0.24472-1.5731l0.53841-0.45308-2.3862-2.8356-5.3969 7.986s-0.40241 0.48867-0.68827 0.57919c-0.29023 0.09189-0.71389 0.15436-0.90991-0.07855l-1.8957-2.2528z" fill="#ff7f2a" stroke-linecap="square"/>
   <path id="path840-9" d="m227.07 36.998-3.3577 2.8256-8.7281-10.372-3.5559 2.9923-6.8444-8.1334 0.92941-0.78213s-2.5354-3.5889-3.5008-5.5524c-0.14496-0.29486-0.25829-0.60702-0.3392-0.92544-0.13279-0.52286-0.24935-1.0618-0.23598-1.6011 0.0112-0.47689 0.12501-0.95205 0.27843-1.4037 0.15964-0.46997 0.35348-0.94433 0.65983-1.3349 0.62272-0.79388 1.3856-1.5587 2.316-1.9489 0.32249-0.13526 0.69768-0.14493 1.0444-0.09931 0.34935 0.04598 0.68236 0.19822 0.99057 0.36898 0.59479 0.32954 1.1796 0.72285 1.6174 1.2431l17.568 20.876-1.2158 1.0257z" fill="#ff7f2a" stroke-linecap="square"/>
  </g>
  <path id="path982-1" d="m129.9 95.821 28.206-23.735 0.0673 0.07992s-2.6071 2.225-2.7785 2.3692c-0.2511 0.21131-0.3455 0.59955-0.3691 0.87404-0.0237 0.27421 0.14453 0.81292 0.14453 0.81292l-11.14 9.3748-1.423 0.25293-12.351 10.394z" fill="#000000" opacity=".2"/>
  <path id="path976-1" d="m80.698 143.5-1.2389-1.4722 0.214-2.4865-0.91679-1.0894s-0.12747-1.8299 0.02777-2.7249c0.02265-0.13038 0.05489-0.26607 0.12983-0.3751 0.26366-0.38359 1.0684-0.89909 1.0684-0.89909l-0.02695 0.47173 48.848-41.107 1.7115 2.0338c0.11776 0.13996 0.06 0.36911 0.023 0.54823-0.0415 0.20065-0.11024 0.4217-0.267 0.55361l-21.798 18.344-0.44814 5.2071z" fill="#ff7f2a" stroke="#000000" stroke-linecap="square" stroke-width=".4"/>
  <path id="path1073-6" d="m209.49 15.849a2.5812 2.5812 0 0 1-0.31299 3.6369 2.5812 2.5812 0 0 1-3.6369-0.313 2.5812 2.5812 0 0 1 0.313-3.6369 2.5812 2.5812 0 0 1 3.6369 0.313z" fill="#000000" fill-rule="evenodd" opacity=".2" stroke="#000000" stroke-width=".4"/>
 </g>
 <g fill="#666666" fill-rule="evenodd" stroke="#000000" stroke-width=".4">
  <circle id="path1075-3" transform="rotate(-40.081)" cx="71.574" cy="164.58" r=".97962"/>
  <circle id="path1075-2-4" transform="rotate(-40.081)" cx="79.131" cy="164.58" r=".97962"/>
  <circle id="path1075-4-0" transform="rotate(-40.081)" cx="57.673" cy="172.28" r=".97962"/>
  <circle id="path1075-1-2" transform="rotate(-40.081)" cx="29.116" cy="175.59" r=".97962"/>
  <circle id="path1075-24-4" transform="rotate(-40.081)" cx="4.7731" cy="176.89" r=".97962"/>
  <circle id="path1075-9-2" transform="rotate(-40.081)" cx="22.343" cy="173.81" r=".97962"/>
  <circle id="path1075-18-8" transform="rotate(-40.081)" cx="-14.688" cy="170.11" r=".97962"/>
  <circle id="path1075-6-7" transform="rotate(-40.081)" cx="-26.387" cy="163.89" r=".97962"/>
 </g>
 <g stroke="#000000" stroke-width=".4">
  <rect id="rect1152-3" transform="rotate(-40.081)" x="71.232" y="157.12" width="2.4102" height="4.8128" fill="#000000" fill-rule="evenodd" opacity=".4"/>
  <rect id="rect1154-7" transform="rotate(-40.081)" x="71.947" y="157.46" width="1.0418" height="4.0482" fill="#ff7f2a" fill-rule="evenodd"/>
  <path id="path1156-6" d="m155.5 74.466c-0.23338 0.26351-0.44166 0.57178-0.47366 0.9438-0.0235 0.2742 0.0378 0.55923 0.14454 0.81293 0.12976 0.30848 0.36053 0.56745 0.58365 0.8169 0.28121 0.31453 0.58238 0.62458 0.94165 0.84579 0.19554 0.12038 0.41476 0.21576 0.64175 0.25032 0.47256 0.07193 1.4305-0.09999 1.4305-0.09999l-3.0988-3.6824s-0.12463 0.06186-0.1696 0.11267z" fill="#ff7f2a" stroke-linecap="square"/>
  <circle id="path1075-1-4-4" transform="rotate(-40.081)" cx="29.15" cy="187.45" r=".90265" fill="#666666" fill-rule="evenodd"/>
 </g>
 <g fill="#ff9955" stroke="#000000" stroke-width=".4">
  <path id="path1199-6" d="m78.837 146.23 1.3544-1.1398 12.339 14.663-4.1765 5.3683s-0.56604-0.27992-0.8648-0.37876c-0.71191-0.23558-1.4425-0.51552-2.1923-0.50471-1.0228 0.0148-1.9544 0.64809-2.9695 0.77449-0.91834 0.11443-1.8887 0.24278-2.7763-0.0207-0.84702-0.25056-1.5227-0.90149-2.234-1.4252-0.41922-0.30866-0.90822-0.77038-1.2456-1.1669-0.51-0.59926-0.81861-1.1573-1.1623-1.8652-0.28145-0.57974-0.57577-1.1724-0.68725-1.8071-0.16627-0.94678-0.17888-1.9486 0.04527-2.8834 0.17753-0.74039 0.63632-1.4418 0.92364-2.1469 0.27945-0.68573 0.60265-1.2945 0.77666-2.0142 0.15752-0.65148 0.31142-1.9865 0.31142-1.9865l-0.52017-0.61794c-0.08962-0.10655 0.04695-0.29892 0.15348-0.3886z" stroke-linecap="square"/>
  <path id="rect1219-6" d="m2.3271 218.87 3.367-2.8333c0.21096-0.17754 0.61017-0.15747 0.82705 0.0124l6.5036 5.1066s-0.54259 0.57721-0.72881 0.92185c-0.07501 0.13879-0.1383 0.29163-0.14974 0.44898-0.01296 0.17864-0.02644 0.39685 0.09452 0.52896l7.3659 8.0437 1.6587-0.20191 4.014 4.77-1.1631 0.97874 3.7852 5.0326c0.0558 0.074 0.20178 0.1122 0.27306 0.0529l0.83259-0.6926 5.5821 8.634-3.1707 2.6682c-0.64829 0.54556-1.7792 2e-3 -2.504-0.43694 0 0-8.5974-11.778-13.309-17.333-4.1641-4.9098-13.192-14.107-13.192-14.107-0.34196-0.40637-0.49361-1.2518-0.086361-1.5945z" fill-rule="evenodd"/>
  <path id="rect1222-7" d="m142.42 101.85 6.1076-5.1397c0.63484-0.53422 1.9472-0.43918 2.4814 0.19566l1.4717 1.7489c0.57234 0.68011 0.60651 2.0933-0.0736 2.6656l-6.1076 5.1397c-0.68011 0.57232-2.0667 0.29719-2.639-0.38289l-1.4718-1.7489c-0.53422-0.63482-0.40364-1.9441 0.23119-2.4783z" fill-rule="evenodd"/>
 </g>
 <g>
  <path id="path840-1-7" d="m202.01 17.976c-0.14497-0.29485-0.25831-0.60701-0.33921-0.92543-0.13289-0.52286-0.24936-1.0618-0.23597-1.6011 0.0113-0.47689 0.125-0.95205 0.27844-1.4037 0.15962-0.46998 0.35347-0.94433 0.65982-1.3349 0.62274-0.79388 1.3856-1.5587 2.316-1.949 0.32251-0.13526 0.69771-0.14493 1.0444-0.09931 0.34936 0.04598 0.68239 0.19823 0.99059 0.36899 0.5948 0.32953 1.1796 0.72284 1.6174 1.2431l0.184 0.21865z" fill="url(#linearGradient1838-1)"/>
  <path id="path840-7-3" d="m216.14 21.533-8.1305 6.842-3.4203-4.0644 0.92942-0.78212 7.2025-6.0585z" fill="url(#linearGradient1830-2)"/>
  <path id="path840-7-7-0" d="m219.56 25.602-8.1305 6.842-1.2115-1.4397 8.132-6.8406z" fill="url(#linearGradient1822-1)"/>
  <path id="path840-5-1" d="m215.54 30.109 4.5747-3.8497 5.7997 6.892-4.5736 3.8513z" fill="url(#linearGradient1814-4)"/>
  <g stroke="#000000" stroke-width=".4">
   <path id="path1142-0" d="m81.386 158.97a2.5346 2.5346 0 0 1-0.30734 3.5712 2.5346 2.5346 0 0 1-3.5712-0.30735 2.5346 2.5346 0 0 1 0.30735-3.5712 2.5346 2.5346 0 0 1 3.5712 0.30734zm-0.28932 0.2841a2.0836 2.0836 0 0 1-0.25265 2.9359 2.0836 2.0836 0 0 1-2.9359-0.25269 2.0836 2.0836 0 0 1 0.25267-2.9358 2.0836 2.0836 0 0 1 2.9358 0.25265z" fill="#ff7f2a" fill-rule="evenodd"/>
   <path id="path1197-3" d="m83.049 152.79-1.943-2.2449c-0.25718-0.29717-0.10853-0.91618 0.19784-1.1623 0.29108-0.23366 0.87811-0.23098 1.1184 0.0546l6.4706 7.6892c0.26018 0.30919 0.2057 0.95127-0.10674 1.2076-0.30486 0.25006-0.92194 0.17335-1.1759-0.12819z" fill="url(#linearGradient2044-2)" stroke-linecap="square"/>
   <circle id="path1128-6" transform="rotate(-40.081)" cx="-4.3089" cy="168.25" r="1.7372" fill="#ff0000" fill-rule="evenodd"/>
  </g>
 </g>
 <path id="path1752" d="m114.99 138.08 24.82-22.696" fill="none" stroke="#000000" stroke-linecap="square" stroke-width=".4"/>
 <path id="path817-5-2" d="m233.6 12.204 0.4493 0.53393-8.0868 6.8051-0.44731-0.53156-6.0496 5.0908 7.6874 9.1352 6.0495-5.0908-0.44756-0.53185 8.0868-6.8051 0.44953 0.5342 3.7629-3.1665-1.896-2.253c-0.19596-0.23286-0.0618-0.63954 0.0784-0.90969 0.13808-0.26615 0.68828-0.57919 0.68828-0.57919l8.7904-3.9534-2.386-2.8354-0.53843 0.45308c-0.37038 0.31169-1.1271-0.068945-1.4446-0.43436-0.33643-0.38722-0.63723-1.2429-0.24473-1.5731l0.53843-0.45309-2.3862-2.8356-5.3969 7.986s-0.4024 0.48866-0.68826 0.57919c-0.29024 0.09189-0.71388 0.15437-0.90991-0.07855l-1.8957-2.2528z" fill="url(#linearGradient1775-4)" stroke="#000000" stroke-linecap="square" stroke-width=".4"/>
 <g fill="#000000" stroke="#000000" stroke-linecap="square" stroke-width=".4">
  <path id="path1437-3" d="m243.15 15.925s-0.11672-0.21772-0.0949-0.39484c0.0222-0.18137 0.10861-0.39031 0.17321-0.51485 0.13808-0.26616 0.68828-0.5792 0.68828-0.5792l-3.0681-3.6459s-0.40242 0.48867-0.68828 0.57919c-0.20179 0.06389-0.43566 0.10942-0.63694 0.0652-0.0881-0.01941-0.27295-0.14372-0.27295-0.14372z" opacity=".4"/>
  <path id="path1439-9" d="m240.84 20.81-6.7925-8.0718-0.36913 0.31063 6.7924 8.0717z" opacity=".4"/>
  <path id="path1439-3-6" d="m233.12 27.305-6.7925-8.0718-0.36914 0.31063 6.7924 8.0717z" opacity=".4"/>
 </g>
 <g stroke="#000000" stroke-width=".4">
  <path id="path1073-6-1" d="m209.49 15.849a2.5812 2.5812 0 0 1-0.31299 3.6369 2.5812 2.5812 0 0 1-3.637-0.31299 2.5812 2.5812 0 0 1 0.31302-3.637 2.5812 2.5812 0 0 1 3.6369 0.313z" fill="none"/>
  <g stroke-linecap="square">
   <path id="path1859" d="m218.35 24.163-2.2137-2.6306-8.1305 6.842 2.2126 2.6292z" fill="#000000" opacity=".2"/>
   <path id="path840-9-1" d="m227.07 36.998-3.3577 2.8256-8.7281-10.372-3.5559 2.9923-6.8444-8.1334 0.92941-0.78213s-2.5354-3.5889-3.5008-5.5524c-0.14496-0.29486-0.25829-0.60702-0.3392-0.92544-0.13279-0.52286-0.24936-1.0618-0.23598-1.6011 0.0112-0.4769 0.12501-0.95205 0.27843-1.4037 0.15964-0.46998 0.35349-0.94433 0.65983-1.3349 0.62272-0.79388 1.3856-1.5587 2.316-1.9489 0.32248-0.13527 0.69768-0.14493 1.0444-0.09931 0.34935 0.04598 0.68236 0.19822 0.99058 0.36898 0.59478 0.32954 1.1796 0.72285 1.6174 1.2431l17.568 20.876-1.2158 1.0257z" fill="none"/>
   <path id="path974-0" d="m79.673 139.54 0.30917-5.0886s-0.80476 0.5155-1.0684 0.89909c-0.07496 0.10898-0.10722 0.24472-0.12983 0.3751-0.15519 0.89499-0.02776 2.7249-0.02776 2.7249z" fill="#000000" opacity=".2"/>
  </g>
  <rect id="rect1152-3-4" transform="rotate(-40.081)" x="71.232" y="157.12" width="2.4102" height="4.8128" fill="none"/>
 </g>
 <g stroke="#000000" stroke-width=".4">
  <g>
   <path id="path1181-3" d="m109.33 124.14c0.16849-0.10252 2.3889-6.3877 2.3889-6.3877l1.346-1.1327 16.295-7.9235-0.45308-0.53841 7.2334-3.5286 0.38937 0.46269 4.9421-2.399 1.9647 3.256-2.8586 1.6374-0.66111 1.0131 0.51653 0.60779-6.1144 5.1454-0.66667-0.44513-25.306 21.295c-2.0315 1.7095-5.0642 1.4485-6.7736-0.58295-1.7095-2.0315-1.4485-5.0641 0.58295-6.7737 2.0315-1.7095 4.9879-2.3759 7.174-3.7057z" fill="#ff7f2a" fill-rule="evenodd"/>
   <circle id="path1130-2" transform="rotate(-40.081)" cx="-4.3418" cy="168.26" r="2.9577" fill="#666666" fill-rule="evenodd"/>
   <path id="path976-1-8" d="m80.698 143.5-1.2389-1.4722 0.214-2.4865-0.91679-1.0894s-0.12747-1.8299 0.02777-2.7249c0.02265-0.13038 0.05489-0.26607 0.12983-0.3751 0.26366-0.38359 1.0684-0.89909 1.0684-0.89909l-0.02695 0.47173 48.848-41.107 1.7115 2.0338c0.11776 0.13996 0.06 0.36911 0.023 0.54823-0.0415 0.20065-0.11024 0.4217-0.267 0.55361l-21.798 18.344-0.44814 5.2071z" fill="url(#linearGradient2082-0)" stroke-linecap="square"/>
   <path id="rect1222-7-2" d="m142.42 101.85 6.1076-5.1397c0.63484-0.53422 1.9472-0.43918 2.4814 0.19566l1.4717 1.7489c0.57234 0.68011 0.60651 2.0933-0.0736 2.6656l-6.1076 5.1397c-0.68011 0.57232-2.0667 0.29719-2.639-0.38289l-1.4718-1.7489c-0.53422-0.63482-0.40364-1.9441 0.23119-2.4783z" fill="url(#radialGradient2128-1)" fill-rule="evenodd"/>
  </g>
  <g stroke-linecap="square">
   <path id="path945-6" d="m170.03 63.322-5.7019-6.7758c-0.0971-0.11534-0.33526-0.13586-0.45061-0.03879l-1.6358 1.3765-1.4795-1.7581-4.5228 3.806-1.1322 0.13786-1.8839 1.5853-1.4147-1.6812-0.10402-1.5132-3.0114 0.4524-0.17236 0.14504 0.33167 1.7996-2.7533 7.5982-13.35 11.234s-1.9244-0.53044-2.8954-0.75998c-1.0192-0.24092-2.0294-0.57817-3.0744-0.6474-0.72576-0.04807-1.4656 0.0075-2.1759 0.16403-0.51288 0.1131-1.0096 0.31032-1.4753 0.5531-0.3675 0.19159-0.71865 0.42477-1.0244 0.70449-0.43626 0.39905-0.80688 0.78838-1.072 1.3168-0.25992 0.51805-0.38239 1.1661-0.47001 1.7391-0.0754 0.49245-0.11306 0.99348-0.0969 1.4914 0.0134 0.41169 0.1003 0.81777 0.16031 1.2253 0.0535 0.36321 0.13025 0.72292 0.17664 1.0871 0.18032 1.4088 0.39375 4.2426 0.39375 4.2426l-0.13108 0.11036 1.0133 1.2041 30.534-25.695 0.77264 0.0665 7.8064 9.2765 11.305-9.5137z" fill="#ff7f2a"/>
   <path id="path949-7" d="m153.04 66.463-0.71413-0.84863 1.6081-4.5575 1.1751-0.98634 0.51609-0.06279 2.2731 2.7011-4.5118 3.7844z" fill="#000000" opacity=".2"/>
   <path id="path951-3" d="m155.51 65.902 1.6232 1.9289c0.0964 0.11444 0.33261 0.1348 0.44706 0.03849l6.241-5.252c0.14844-0.12492 0.17482-0.43141 0.0499-0.57986l-1.5676-1.8628z" fill="#ff7f2a"/>
   <path id="path951-9-0" d="m157.9 62.708-3.6647 3.0839 1.2748 0.10972 6.7936-5.7273-0.0585-2.2908-1.4795-1.7581-4.5227 3.806-0.61599 0.07579z" fill="#ff7f2a"/>
   <path id="path970-5" d="m164.55 66.903 2.9751 3.5354-6.3346 5.3306-4.8901-5.8111 1.195-0.42362z" fill="#000000" opacity=".2"/>
  </g>
  <g>
   <circle id="path1138-2" transform="rotate(-40.081)" cx="42.354" cy="145.13" r=".79165" fill="#666666" fill-rule="evenodd"/>
   <path id="path968-9" d="m160.25 72.795c0.22533 0.26777 0.58462 0.3854 0.94761 0.43153 0.38213 0.0486 0.84233 0.0976 1.1729-0.18062l4.304-3.6219-2.1213-2.5208-7.0545 2.6313z" fill="#ff7f2a" stroke-linecap="square"/>
   <circle id="path1158-2" transform="rotate(-40.081)" cx="78.935" cy="159.12" r="1.0116" fill="#ff7f2a" fill-rule="evenodd"/>
   <path id="path951-3-4" d="m155.51 65.902 1.6232 1.9289c0.0964 0.11445 0.33262 0.1348 0.44705 0.03848l6.241-5.2519c0.14843-0.12492 0.17481-0.43141 0.0499-0.57985l-1.5676-1.8628z" fill="url(#linearGradient1930-1)" stroke-linecap="square"/>
   <path id="path951-9-0-3" d="m157.9 62.708-3.6647 3.0839 1.2748 0.10972 6.7936-5.7273-0.0585-2.2908-1.4795-1.7581-4.5228 3.806-0.61597 0.07579z" fill="url(#linearGradient1932-9)" stroke-linecap="square"/>
  </g>
 </g>
 <path id="path949-7-5" d="m153.04 66.463-0.71413-0.84863 1.6081-4.5575 1.1751-0.98634 0.51609-0.06279 2.2731 2.7011-4.5118 3.7844z" fill="none" stroke="#000000" stroke-linecap="square" stroke-width=".4"/>
 <g>
  <g stroke="#000000" stroke-width=".4">
   <path id="path972-9" d="m121.07 90.916-38.626 32.505s-1.0676 1.2818-1.4167 2.0293c-0.28638 0.61328-0.41696 1.2928-0.53039 1.9601-0.3946 2.3215-0.51158 7.0457-0.51158 7.0457l-0.02695 0.47173 48.848-41.107-0.23538-0.27971s-0.2312-1.057-0.20091-1.5906c0.0245-0.43317 0.16236-0.85585 0.30748-1.2647 0.14004-0.39455 0.31424-0.78127 0.53906-1.1344 0.3325-0.52225 0.70899-1.0335 1.1827-1.4322l24.114-20.292-1.1234-1.3349c-0.16643-0.19779-0.57487-0.23294-0.77265-0.06649l-30.533 25.694z" fill="#ff7f2a" stroke-linecap="square"/>
   <path id="path972-9-1" d="m121.07 90.916-38.626 32.505s-1.0676 1.2818-1.4167 2.0293c-0.28638 0.61328-0.41696 1.2928-0.53039 1.9601-0.3946 2.3215-0.51158 7.0457-0.51158 7.0457l-0.02695 0.47173 48.848-41.107-0.23538-0.27971s-0.2312-1.057-0.20091-1.5906c0.0245-0.43317 0.16236-0.85585 0.30748-1.2647 0.14004-0.39455 0.31424-0.78127 0.53906-1.1344 0.3325-0.52225 0.70899-1.0335 1.1827-1.4322l24.114-20.292-1.1234-1.3349c-0.16643-0.19779-0.57487-0.23294-0.77265-0.06649l-30.533 25.694z" fill="url(#linearGradient2080-6)" stroke-linecap="square"/>
   <path id="rect876-8-5" d="m193.28 41.177 7.5763-6.3756c0.58831-0.49507 1.7791-0.20254 2.2742 0.38581 0.49502 0.58829 0.5797 1.8114-8e-3 2.3065l-7.5763 6.3756c-0.5547 0.4668-1.6444 0.03211-2.1113-0.52259-0.46686-0.55475-0.7091-1.7028-0.15433-2.1697zm-16.005 13.468 7.5763-6.3756c0.5883-0.49506 1.7791-0.20254 2.2742 0.38581 0.495 0.58828 0.5797 1.8114-9e-3 2.3065l-7.5763 6.3756c-0.55473 0.4668-1.6445 0.03212-2.1113-0.52259-0.46685-0.55474-0.70911-1.7028-0.15433-2.1697zm43.712-10.681-18.467-21.945-2.0142 1.6949 0.45149 0.53652-0.40298 0.33913-0.45149-0.53652-34.421 27.946 0.39047 0.464-0.27123 0.22825-0.40116-0.4767-2.3563 1.9829 7.2527 8.6186-3.9328 3.3095c-0.22184 0.18668-0.27653 0.53486-0.27628 0.82479 4e-4 0.40457 0.12684 0.84071 0.38742 1.1503l11.114 13.207s0.94412 0.7923 1.5136 0.99048c0.31504 0.10963 0.68097 0.12448 1.0138 0.14693 0.25242 0.01704 0.49048 0.01207 0.74103-0.02297 0.31314-0.04379 0.62383-0.14623 0.89961-0.30089 0.88555-0.49667 1.6278-1.2285 2.3306-1.9612 1.1132-1.1606 2.0625-2.4763 2.9497-3.8175 0.65222-0.98594 1.0944-2.0995 1.7344-3.0934 0.39363-0.61119 0.81831-1.2054 1.2907-1.758 1.2877-1.5061 2.7423-2.8636 4.1868-4.22 7.8734-7.393 24.39-21.329 24.39-21.329l-0.29214-0.34715 0.26704-0.22472 0.29009 0.34472z" fill="#ffd42a" fill-rule="evenodd"/>
   <path id="rect876-8-1-8" d="m193.28 41.177 7.5763-6.3756c0.58831-0.49507 1.7791-0.20254 2.2742 0.38581 0.49502 0.58829 0.5797 1.8114-8e-3 2.3065l-7.5763 6.3756c-0.5547 0.4668-1.6444 0.03211-2.1113-0.52259-0.46686-0.55475-0.7091-1.7028-0.15433-2.1697zm-16.005 13.468 7.5763-6.3756c0.5883-0.49506 1.7791-0.20254 2.2742 0.38581 0.495 0.58828 0.5797 1.8114-9e-3 2.3065l-7.5763 6.3756c-0.55473 0.4668-1.6445 0.03212-2.1113-0.52259-0.46685-0.55474-0.70911-1.7028-0.15433-2.1697zm24.032-21.058c-0.77826-0.25765-1.6488-0.26036-2.4565-0.12011-0.70361 0.12214-1.9793 0.81982-1.9793 0.81982l-21.158 17.649s-2.1635 2.1924-2.6809 3.5948c-0.29252 0.79279-0.22756 1.6867-0.16755 2.5296 0.0533 0.74874 0.46567 2.2032 0.46567 2.2032l-3.6426 3.0653s0.69008 0.88114 1.1064 1.2505c0.53806 0.47743 1.1108 0.95115 1.7748 1.2276 0.82368 0.34285 1.7402 0.52851 2.6315 0.48907 0.93968-0.04161 1.8638-0.36468 2.7179-0.75866 0.6182-0.28515 1.6947-1.14 1.6947-1.14l24.767-20.842s1.3981-1.4562 1.6448-2.3918c0.24757-0.93885 0.0547-1.9808-0.25242-2.9018-0.10808-0.32439-0.54207-0.87082-0.54207-0.87082l-2.2654-2.6921s-1.0266-0.90252-1.6584-1.1117z" fill="#000000" fill-rule="evenodd" opacity=".2"/>
   <path id="path844-6" d="m170.3 62.817 7.1325-6.0021" fill="#ff0000" stroke-linecap="square"/>
   <path id="path844-3-9-7" d="m203.16 35.162 6.073-5.1106" fill="#ff0000" stroke-linecap="square"/>
   <path id="rect876-8-6-5" d="m172.65 60.834-7.2527-8.6186-2.3563 1.9829 7.2527 8.6186z" fill="#666666" fill-rule="evenodd"/>
   <path id="rect876-8-3-9" d="m220.99 43.964-18.467-21.945-2.0142 1.6949 18.398 22.001z" fill="#666666" fill-rule="evenodd"/>
   <path id="path844-3-1" d="m187.13 48.655 6.3085-5.3087" fill="#ff0000" stroke-linecap="square"/>
  </g>
  <g fill-rule="evenodd">
   <path id="rect876-8-7-8" d="m174.55 77.692 3.043 3.616s0.94411 0.79229 1.5136 0.99047c0.31503 0.10962 0.68097 0.12447 1.0138 0.14694 0.25242 0.01704 0.49049 0.01207 0.74103-0.02297 0.31316-0.04379 0.62383-0.14623 0.89961-0.3009 0.88555-0.49667 1.6278-1.2284 2.3306-1.9612 1.1132-1.1605 2.0625-2.4763 2.9497-3.8175 0.65222-0.98594 1.0943-2.0995 1.7344-3.0934 0.39364-0.61119 0.8183-1.2054 1.2907-1.758 1.2877-1.506 2.7423-2.8636 4.1868-4.22 7.8734-7.393 24.39-21.329 24.39-21.329l-0.29213-0.34714 0.26704-0.22473-5.125-6.1119z" fill="url(#linearGradient2036-3)"/>
   <path id="rect876-8-0-0" d="m204.18 28.082-3.2237-3.8308-0.40298 0.33913-0.45149-0.53652-34.421 27.946 2.5851 3.072z" fill="url(#linearGradient2028-9)"/>
   <path id="rect2161-4" d="m99.455 153.34 16.259-13.682 0.81167 0.96455-16.259 13.682z" fill="#ffd42a" stroke="#000000" stroke-width=".4"/>
   <path id="rect1201-7-9" d="m85.263 168.24-47.53 74.861s12.189-27.85 22.926-44.318c13.597-20.855 24.604-30.542 24.604-30.542z" fill="url(#linearGradient2354-6)"/>
   <path id="rect1201-0-4-3" d="m72.038 154.05c-20.537 20.937-41.766 40.355-62.983 59.684 0 0 17.354-10.449 34.124-26.302 15.548-14.698 28.859-33.382 28.859-33.382z" fill="url(#linearGradient2356-3)"/>
  </g>
  <g stroke="#000000" stroke-linecap="square" stroke-width=".4">
   <path id="path947-6" d="m132.75 79.69 1.9404 0.38467 0.6858 0.81497" fill="#ff7f2a"/>
   <path id="path1191-7" d="m142.48 116.18s2.5474 2.2813 3.8587 3.378c1.4598 1.2207 2.9493 2.4063 4.4609 3.5622 2.0662 1.58 4.1713 3.1096 6.297 4.6088 1.7674 1.2465 3.5542 2.4664 5.3672 3.6457 2.1452 1.3954 4.3166 2.7518 6.5179 4.0569 2.4338 1.4428 4.8931 2.845 7.393 4.1699 1.8378 0.97394 3.7188 1.864 5.5879 2.7763 1.9012 0.92802 3.7978 1.867 5.7232 2.7438 1.4345 0.65324 2.8785 1.2874 4.3413 1.8745 1.3269 0.53251 2.6762 1.0078 4.0209 1.4938 2.3776 0.85921 4.766 1.6884 7.1555 2.514 1.9694 0.68037 3.9271 1.3981 5.9187 2.0102 0.76957 0.23655 1.5342 0.51045 2.3285 0.64184 0.26768 0.0442 0.5465 0.10117 0.81251 0.0478 0.16764-0.0335 0.34005-0.10417 0.46084-0.22521 0 0 0.22626-0.13759 0.25363-0.25405l5.0022-21.321-6.3383-1.4946 1.4726-4.2876-1.1843-0.34472-1.6478 4.2725-3.9246-1.331 1.6214-3.9658-1.2406-0.4599-1.8243 4.0145-3.937-1.4424 1.8919-4.0308-1.1854-0.5876-2.0985 4.1233-3.7304-1.535 2.0834-3.948-1.1541-0.69526-2.369 4.1884-3.8793-1.8568 2.2636-3.7339-1.0978-0.58005-2.3826 3.834-3.5926-1.8542 2.5152-3.5798-1.2104-0.81045-2.5704 3.7075-3.5012-1.8905 2.5277-3.4684-1.0952-0.86675-2.7143 3.5848-3.2107-1.9317 2.7869-3.402-1.0877-0.95441-3.0286 3.646-3.0842-2.1194 2.8681-3.0639-0.86101-1.0232-3.2013 3.3442-3.1768-2.326 3.0184-3.2717-0.841-0.99938-3.4755 3.4531-2.7061-2.1531 3.0997-2.9336-0.88858-0.95934-3.3577 3.11-4.8239-3.7038z" fill="#666666"/>
   <path id="path1010-2" d="m214.89 153.54-1.9148-0.31929 4.8686-20.731 1.9182 0.29613-4.4301 20.748z" fill="#666666"/>
  </g>
 </g>
 <g stroke-width=".4">
  <path id="path1012-2" d="m217.98 131.9 1.3783-5.8706" fill="none" stroke="#000000" stroke-linecap="square"/>
  <path id="path214" d="m260.56 72.452 3.1339 0.34376-2.3775-2.1074 0.69611 3.0559 1.2232-2.9653z" fill="#ff2a2a" fill-rule="evenodd"/>
  <path id="path214-1" d="m171.5 134.81 15.481-6.8086-16.697-3.4132 11.431 12.33-2.2707-17.056z" fill="#ff2a2a" fill-rule="evenodd" stroke="#000000"/>
  <path id="path1026" d="m24.116 236.64 1.1631-0.97875-4.014-4.77-1.6587 0.20191z" fill="#000000" opacity=".4" stroke="#000000" stroke-linecap="square"/>
 </g>
</svg>
