<?xml version="1.0" encoding="UTF-8"?>
<svg cursor="default" version="1.1" viewBox="0 0 256 256" xmlns="http://www.w3.org/2000/svg" xmlns:cc="http://creativecommons.org/ns#" xmlns:dc="http://purl.org/dc/elements/1.1/" xmlns:rdf="http://www.w3.org/1999/02/22-rdf-syntax-ns#">
 <metadata>
  <rdf:RDF>
   <cc:Work rdf:about="">
    <dc:format>image/svg+xml</dc:format>
    <dc:type rdf:resource="http://purl.org/dc/dcmitype/StillImage"/>
    <dc:title/>
   </cc:Work>
  </rdf:RDF>
 </metadata>
 <defs>
  <linearGradient id="linearGradient2118-1" x1="600.39" x2="702.84" y1="1226.1" y2="1345.9" gradientTransform="matrix(-.3703 .10821 .10821 .3703 136.28 -411.45)" gradientUnits="userSpaceOnUse">
   <stop stop-color="#ffb380" offset="0"/>
   <stop stop-color="#ffb380" stop-opacity="0" offset="1"/>
  </linearGradient>
  <linearGradient id="linearGradient1640-0-1" x1="145.24" x2="145.24" y1="1082.8" y2="1173.2" gradientTransform="matrix(-.3703 .10821 .10821 .3703 136.28 -411.45)" gradientUnits="userSpaceOnUse">
   <stop stop-color="#ffeeaa" offset="0"/>
   <stop stop-color="#ffeeaa" stop-opacity="0" offset="1"/>
  </linearGradient>
 </defs>
 <g stroke="#000000" stroke-linecap="square">
  <g fill="#ffdd55" stroke-width=".6">
   <path d="m80.297 89.594 87.239-25.493 2.9076 13.467c0.38984 1.8057-1.2066 4.1546-2.9797 4.6727l-82.289 24.047z"/>
   <path d="m61.202 68.311s-2.1235-1.4771-3.307-1.9753c-0.64941-0.27337-1.339-0.54934-2.0436-0.54018-0.60476 0.0079-1.2719 0.128-1.7417 0.50895-1.4858 1.2046-2.7138 5.056-2.7138 5.056s0.13593 0.228 0.0995 0.34048c-0.04366 0.13526-0.20996 0.19695-0.33642 0.26168-0.1961 0.10029-0.63422 0.18534-0.63422 0.18534l1.4552 4.636z"/>
   <path d="m50.525 72.148-0.5643-1.9311c-0.03833-0.13116-0.24307-0.25086-0.36443-0.18796 0 0-6.7295 4.0718-10.406 5.3956-0.75048 0.27024-1.5421 0.46562-2.339 0.50584-1.4757 0.0757-2.9357-0.6372-4.4058-0.48881-0.82587 0.0834-1.638 0.37262-2.3702 0.76357-0.80058 0.42763-1.6013 0.9557-2.1351 1.6897-0.45859 0.63059-0.71681 1.4189-0.81588 2.1923-0.08118 0.63395-0.05773 1.3202 0.19427 1.9075 0.29215 0.68099 0.86045 1.235 1.4476 1.6871 0.44637 0.34368 1.2348 0.25106 1.5213 0.73608 0.75384 1.2759-0.23498 4.4396-0.23498 4.4396l21.927-12.074z"/>
   <path d="m99.119 118.64s0.39714 2.6586 0.41484 3.9985c0.03486 2.6375-0.78397 5.2578-0.60843 7.8897 0.10836 1.6244 0.49927 3.2337 1.019 4.7765 0.64664 1.9197 1.4665 3.8113 2.5866 5.499 1.2623 1.902 2.7938 3.6691 4.578 5.093 1.7991 1.4357 6.0624 2.7205 6.0316 3.3619-0.0361 0.75277-1.3233 0.81385-2.0712 0.90669-1.3021 0.16162-2.6464-0.20859-3.8823-0.64903-1.7883-0.63732-3.4569-1.6468-4.9453-2.8253-2.2713-1.7984-4.0842-4.1213-5.927-6.3567-0.93955-1.1397-1.7095-2.4099-2.605-3.5846-0.7691-1.009-1.487-2.0681-2.376-2.9732-0.98567-1.0035-3.2487-2.6931-3.2487-2.6931l-2.5565-8.7484z"/>
   <path d="m246.13 20.217-4.4078-15.084-80.468 23.515 9.1068 31.164 80.469-23.515z"/>
  </g>
  <path d="m168.01 51.783-90.996 26.591 3.2788 11.22 42.468-12.41 0.53209-0.97148 29.46-8.6088 0.68953 0.6145 17.104-4.9981c0.83849-0.24502 0.0365-2.6204 0.0365-2.6204z" fill="#ffd42a" stroke-width=".6"/>
  <g fill="#ffdd55" stroke-width=".6">
   <path d="m153.45 68.218c3.9887-1.1656 9.7682 2 10.934 5.9887l3.2452 11.105-91.817 26.831-15.311-52.394 0.8852-8.2803 6.5568-1.916 1.2885 2.1614 11.069 37.88z"/>
   <path d="m70.091 92.577-9.593-32.828 0.8852-8.2803 6.5568-1.916 1.2885 2.1614 11.069 37.88z"/>
   <path d="m61.383 51.469 8.9065 30.479-0.22545 10.534 0.02786 0.09524-9.593-32.828z"/>
  </g>
  <g stroke-width=".6">
   <g>
    <path d="m67.94 49.553 1.2885 2.1614 2.7316 9.3476-7.1628 2.0931-3.4149-11.686z" fill="#ffe680"/>
    <path d="m70.091 92.577-0.02786-0.09524 0.22537-10.534 7.1596-2.0922 2.846 9.7392z" fill="#ffd42a"/>
    <path d="m76.367 114.05 5.3919 18.452 3.2956-0.96313s0.06981-0.30155 0.1506-0.43023c2.025-3.2249 4.4169-7.0156 8.072-8.0837l54.426-15.904c4.1937-1.2255 19.118-9.4404 19.998-18.472 0.0426-0.43642-0.7758-1.0623-0.7758-1.0623z" fill="#ffdd55"/>
    <path d="m166.92 87.588 0.72333-2.2006-0.0222-0.07496-91.817 26.831 0.55791 1.9092z" fill="#ffd42a"/>
    <path d="m118.17 116.65 5.4987-1.6068c3.0298-0.88538 7.4024 1.6908 9.877 3.6504 1.5588 1.2343 2.7955 2.9053 3.7096 4.671 1.1706 2.261 1.829 4.8049 2.1424 7.3316 0.40713 3.2816 0.41702 6.702-0.37139 9.9135-0.53741 2.1891-1.5896 4.276-2.9048 6.1065-1.424 1.982-3.191 3.7998-5.2623 5.0903-2.2037 1.373-4.8349 1.9158-7.3286 2.6389-2.6694 0.77393-5.3922 1.3868-8.1392 1.8101-3.2078 0.4942-6.5039 1.4092-9.7001 0.84514-2.4429-0.43109-4.7147-1.7192-6.745-3.1446-1.9066-1.3385-3.5101-3.1067-4.9292-4.9541-1.555-2.0244-2.845-4.2732-3.8525-6.6187-1.0049-2.3394-2.1339-4.7855-2.1424-7.3316-0.0073-2.1759 0.54958-4.4894 1.789-6.2779 1.3519-1.9507 3.4611-3.3222 5.4904-4.553 2.0706-1.2559 4.4406-2.1858 6.7652-2.865zm29.536-9.5243s-5.5412 4.7634-4.7942 7.3194l2.6067 8.9204c1.7113 5.8561 1.3387 12.441-0.36411 18.299-0.73142 2.5163-2.5108 4.7876-4.0812 6.719-2.0747 2.5517-4.7191 4.6691-7.5331 6.3713-4.0647 2.4587-9.2989 2.7305-13.203 5.3654-3.1846 2.1491-5.057 7.0246-4.1417 10.756l1.5754 6.4226c0.34002 1.3858 0.98137 3.1222 0.14493 4.2783-0.28268 0.39074-0.92603 0.54196-1.3886 0.40578-1.2213-0.35944-1.8919-1.7685-2.5014-2.8863-1.0927-2.004-1.5588-4.3191-1.9207-6.5728-0.36042-2.2442-0.56126-4.5658-0.23302-6.8148 0.31683-2.1709 2.4567-5.7352 2.0955-6.2393-0.85173-1.1886-5.1478 0.33281-7.684-0.025-3.313-0.46746-6.441-0.92401-9.6547-2.7457-3.3198-1.8819-5.6868-5.1105-8.2483-7.9391-3.2339-3.5711-5.0311-8.5431-8.9445-11.353-1.8453-1.325-6.4207-2.2852-6.4207-2.2852l-0.01591-0.0541 12.058-3.5238s0.06981-0.30155 0.1506-0.43022c2.025-3.2249 4.4169-7.0156 8.072-8.0837z" fill="#ffdd55" fill-rule="evenodd"/>
   </g>
   <path d="m17.246 119.91a5.1117 5.1117 0 0 0 6.3403 3.4727 5.1117 5.1117 0 0 0 3.4727-6.3402 5.1117 5.1117 0 0 0-6.3403-3.4727 5.1117 5.1117 0 0 0-3.4727 6.3402zm43.252-60.156s-0.36176 5.6286-1.8606 7.8686c-1.9338 2.8902-5.5156 4.2559-8.4688 6.0921-4.4335 2.7566-9.5543 4.3561-13.827 7.3563-2.8358 1.9915-5.3694 4.4183-7.7083 6.9751-2.4347 2.6615-4.8588 5.4351-6.5192 8.6373-1.2683 2.446-2.5229 7.8714-2.5229 7.8714s-0.39963 2.2896-0.94735 3.2912c-0.77662 1.4203-2.2898 2.3134-3.204 3.6493-0.90537 1.3228-1.7402 2.7365-2.2199 4.266-0.50414 1.6072-0.98924 3.3628-0.64556 5.0117 0.3253 1.5611 1.8176 2.6441 2.4557 4.1055 0.77831 1.7825 1.5267 3.6589 1.6367 5.6008 0.14878 2.6269-0.72922 5.2199-1.3444 7.7781-0.72128 2.9996-1.8905 5.8746-2.7423 8.8398-0.98049 3.4133-2.7249 10.3-2.7249 10.3l40.007 9.7604s0.39212-6.761 1.1165-10.054c0.79649-3.6214 1.5569-7.4079 3.5245-10.551 2.1923-3.5018 6.5652-7.9975 11.248-9.366l16.007-4.6776z" fill="#ffdd55" fill-rule="evenodd"/>
  </g>
  <g fill="#ffe680" fill-rule="evenodd" stroke-width=".6">
   <circle transform="matrix(-.95986 .28049 .28049 .95986 0 0)" cx="-125.61" cy="118.14" r="4.3988"/>
   <circle transform="matrix(-.95986 .28049 .28049 .95986 0 0)" cx="-98.981" cy="140.54" r="2.4551"/>
   <circle transform="matrix(-.95986 .28049 .28049 .95986 0 0)" cx="-44.213" cy="133.53" r="2.4551"/>
   <circle transform="matrix(-.95986 .28049 .28049 .95986 0 0)" cx="-45.821" cy="112.54" r="3.7643"/>
  </g>
  <g stroke-width=".6">
   <path d="m71.527 59.58 5.4881 18.794 90.996-26.591-5.4919-18.794z" fill="#ffdd55" stroke-width=".6"/>
   <circle transform="matrix(-.95986 .28049 .28049 .95986 0 0)" cx="-30.169" cy="121.58" r="2.4551" fill="#ffe680" fill-rule="evenodd" stroke-width=".6"/>
   <g stroke-width=".6">
    <path d="m162.52 32.989-1.4988-5.1287s-0.99288-2.6802-1.9873-2.3896l-89.805 26.243 2.2987 7.8664z" fill="#ffe680"/>
    <path d="m49.862 167.15c-0.05823 4.3656-0.12712 8.7779 0.58841 13.085 0.94309 5.6769 2.9793 11.126 4.8424 16.571 1.2664 3.7008 2.7987 7.3064 4.299 10.919 2.1188 5.1012 4.2601 10.198 6.6394 15.183 1.1676 2.4463 2.6681 4.8972 3.7437 7.219 0.30818 0.66514 0.11712 1.7622-0.51176 2.1389-7.437 4.4558-16.229 7.0667-24.625 9.825-8.9018 2.9244-17.152 4.9892-27.199 7.0956-0.95855 0.20082-2.4995 0.6001-2.9245-0.28226-1.3352-2.7725-2.0248-6.2294-2.8855-9.388-1.3046-4.7875-2.497-9.6112-3.45-14.481-0.96455-4.9285-1.7517-9.8977-2.2909-14.891-0.51047-4.7264-0.85572-9.4801-0.89114-14.234-0.042081-5.6504 0.44515-11.294 0.80699-16.933 0.2244-3.497 0.24467-7.0262 0.84576-10.478 0.65809-3.7795 1.9128-7.4323 3.006-11.11 1.6224-5.4576 3.2558-10.922 5.2702-16.247 1.245-3.2914 1.9277-7.0002 4.2042-9.6836 1.7031-2.0073 4.2359-3.1995 6.6349-4.2835 2.3617-1.0672 4.9029-1.8567 7.4816-2.1153 2.2476-0.22537 4.5776-0.0806 6.7573 0.51216 2.3757 0.64603 4.6572 1.7798 6.6332 3.2483 1.836 1.3644 3.5523 3.0334 4.6674 5.0306 0.79791 1.4293 1.0615 3.1146 1.3119 4.7323 0.31195 2.016 0.45778 4.0893 0.22409 6.1159-0.30864 2.6764-1.6736 5.1418-2.1265 7.7975-0.82335 4.8273-0.98601 9.7569-1.0514 14.653z" fill="#ff7f2a"/>
    <path d="m19.33 131.46c-1.4612 1.7243-2.1936 4.0183-2.6934 6.2224-0.3259 1.4372-0.3009 2.9505-0.1655 4.418 0.1496 1.6217 0.38081 3.2924 1.0732 4.7665 0.66398 1.4138 1.7168 2.6477 2.8608 3.7112 1.6361 1.5212 3.5339 2.8246 5.5914 3.6948 1.8974 0.80252 3.9879 1.1072 6.0362 1.3268 2.4 0.25736 4.8548 0.34166 7.2413-0.0201 1.6296-0.24699 3.2621-0.69632 4.7268-1.4522 1.5062-0.77739 3.0787-1.7297 4.2858-2.9195 1.9158-1.8886 3.917-3.9506 4.7538-6.5073 0.6345-1.9388 0.08787-4.0999-0.22409-6.1159-0.25032-1.6176-0.5139-3.303-1.3119-4.7323-1.1151-1.9973-2.8314-3.6662-4.6673-5.0306-1.9761-1.4685-4.2576-2.6022-6.6332-3.2483-2.1798-0.5927-4.5097-0.73748-6.7573-0.51216-2.5787 0.25859-5.1199 1.048-7.4816 2.1154-2.3989 1.084-4.9329 2.2752-6.6349 4.2835z" fill="#ff7f2a"/>
   </g>
   <g>
    <circle transform="matrix(-.95986 .28049 .28049 .95986 0 0)" cx="31.487" cy="213.59" r="8.0002" fill="#ffd42a" fill-rule="evenodd" stroke-width=".6"/>
    <circle transform="matrix(-.95986 .28049 .28049 .95986 0 0)" cx="31.533" cy="213.6" r="6.4317" fill="#ffd42a" fill-rule="evenodd" stroke-width=".6"/>
    <path d="m246.13 20.217-4.4078-15.084-80.468 23.515 9.1068 31.164 80.469-23.515z" fill="url(#linearGradient1640-0-1)" stroke-width=".6"/>
    <path d="m19.33 131.46c-1.4612 1.7243-2.1936 4.0183-2.6934 6.2224-0.3259 1.4372-0.3009 2.9505-0.1655 4.418 0.1496 1.6217 0.38081 3.2924 1.0732 4.7665 0.66398 1.4138 1.7168 2.6477 2.8608 3.7112 1.6361 1.5212 3.5339 2.8246 5.5914 3.6948 1.8974 0.80252 3.9879 1.1072 6.0362 1.3268 2.4 0.25736 4.8548 0.34166 7.2413-0.0201 1.6296-0.24699 3.2621-0.69632 4.7268-1.4522 1.5062-0.77739 3.0787-1.7297 4.2858-2.9195 1.9158-1.8886 3.917-3.9506 4.7538-6.5073 0.6345-1.9388 0.08787-4.0999-0.22409-6.1159-0.25032-1.6176-0.5139-3.303-1.3119-4.7323-1.1151-1.9973-2.8314-3.6662-4.6673-5.0306-1.9761-1.4685-4.2576-2.6022-6.6332-3.2483-2.1798-0.5927-4.5097-0.73748-6.7573-0.51216-2.5787 0.25859-5.1199 1.048-7.4816 2.1154-2.3989 1.084-4.9329 2.2752-6.6349 4.2835z" fill="url(#linearGradient2118-1)" stroke-width=".6"/>
   </g>
  </g>
 </g>
</svg>
