<?xml version="1.0" encoding="UTF-8"?>
<svg cursor="default" version="1.1" viewBox="0 0 256 256" xmlns="http://www.w3.org/2000/svg" xmlns:cc="http://creativecommons.org/ns#" xmlns:dc="http://purl.org/dc/elements/1.1/" xmlns:rdf="http://www.w3.org/1999/02/22-rdf-syntax-ns#" xmlns:xlink="http://www.w3.org/1999/xlink">
 <metadata>
  <rdf:RDF>
   <cc:Work rdf:about="">
    <dc:format>image/svg+xml</dc:format>
    <dc:type rdf:resource="http://purl.org/dc/dcmitype/StillImage"/>
    <dc:title/>
   </cc:Work>
  </rdf:RDF>
 </metadata>
 <defs>
  <radialGradient id="radialGradient3873-8" cx="142.52" cy="679.93" r="97.039" gradientTransform="matrix(.31986 -.28789 .18271 .203 -134.26 78.104)" gradientUnits="userSpaceOnUse" xlink:href="#innoGrad4"/>
  <linearGradient id="innoGrad4">
   <stop stop-color="#ffccaa" offset="0"/>
   <stop stop-color="#ffccaa" stop-opacity="0" offset="1"/>
  </linearGradient>
  <linearGradient id="linearGradient3716-2" x1="751.86" x2="761.89" y1="715.85" y2="758.45" gradientTransform="matrix(.31986 -.28789 .28789 .31986 -217.47 -14.345)" gradientUnits="userSpaceOnUse" xlink:href="#innoGrad4"/>
  <radialGradient id="radialGradient3832-5" cx="519.59" cy="1315.9" r="127.95" gradientTransform="matrix(1.153 -1.0377 .060127 .066803 -503.67 538.21)" gradientUnits="userSpaceOnUse" xlink:href="#innoGrad3"/>
  <linearGradient id="innoGrad3">
   <stop stop-color="#ffb380" offset="0"/>
   <stop stop-color="#ffb380" stop-opacity="0" offset="1"/>
  </linearGradient>
  <radialGradient id="radialGradient3836-2" cx="268.24" cy="749.02" r="29.002" gradientTransform="matrix(.72242 -.65022 .093567 .10396 -193.63 229.31)" gradientUnits="userSpaceOnUse" xlink:href="#innoGrad3"/>
  <linearGradient id="linearGradient3724-8" x1="694.12" x2="704.26" y1="716.43" y2="760.13" gradientTransform="matrix(.31986 -.28789 .28789 .31986 -217.47 -14.345)" gradientUnits="userSpaceOnUse" xlink:href="#innoGrad4"/>
 </defs>
 <g stroke="#000000" stroke-linecap="square" stroke-width=".34427">
  <path d="m103.27 162.84c-0.66521-1.1922-0.48216-2.7394-1.1466-3.932-0.0832-0.14966-0.34352-0.38166-0.34352-0.38166l-3.6754 3.308 1.4185 0.0746s0.20436 0.33286 0.37134 0.41258c0.37042 0.17676 0.85925-0.11208 1.2296 0.0647 0.2559 0.1221 0.47441 0.36488 0.56896 0.63215 0.0701 0.19792-0.10311 0.43105-0.0331 0.62896 0.37133 1.0492 1.3262 1.8374 2.2337 2.4817 0.55179 0.39176 1.2048 0.67375 1.8723 0.78461 0.69315 0.11515 1.456 0.1313 2.1031-0.14243 0.27558-0.11659 0.53835-0.33053 0.66724-0.60056 0.0935-0.19599 0.17946-0.48911 0.0342-0.65047-0.53015-0.58904-1.606 0.0704-2.3741-0.12489-0.39027-0.0992-0.76753-0.27955-1.0903-0.52038-0.73226-0.54636-1.391-1.2371-1.8368-2.0342z" fill="#ff7f2a"/>
  <path d="m103.27 162.84c-0.66521-1.1922-0.48216-2.7394-1.1466-3.932-0.0832-0.14966-0.34352-0.38166-0.34352-0.38166l-3.6754 3.308 1.4185 0.0746s0.20436 0.33286 0.37134 0.41258c0.37042 0.17676 0.85925-0.11208 1.2296 0.0647 0.2559 0.1221 0.47441 0.36488 0.56896 0.63215 0.0701 0.19792-0.10311 0.43105-0.0331 0.62896 0.37133 1.0492 1.3262 1.8374 2.2337 2.4817 0.55179 0.39176 1.2048 0.67375 1.8723 0.78461 0.69315 0.11515 1.456 0.1313 2.1031-0.14243 0.27558-0.11659 0.53835-0.33053 0.66724-0.60056 0.0935-0.19599 0.17946-0.48911 0.0342-0.65047-0.53015-0.58904-1.606 0.0704-2.3741-0.12489-0.39027-0.0992-0.76753-0.27955-1.0903-0.52038-0.73226-0.54636-1.391-1.2371-1.8368-2.0342z" fill="#000000" opacity=".2"/>
  <path d="m67.948 149.99 0.56839 0.63152-8.6303 7.7677 15.837 17.596-1.6029 1.4427 0.57803 0.64223c0.13862 0.154 0.46679 0.17129 0.62083 0.0327l4.0151-3.6138c0.21563-0.19409 0.05347-0.63362 0.26909-0.82767l1.8188-1.637c0.15354-0.13819 0.46535 0.17075 0.61889 0.0326l0.30902-0.27813-0.30065-0.33405 0.50146-9.533c0.0069-0.1281 0.09139-0.25072 0.18673-0.33655l9.7496-8.7751c0.60313-0.54285 1.8882-0.47526 2.431 0.12788l6.3337 7.037 6.4996-7.577s-0.70817-0.61627-0.90813-1.009c-0.54139-1.063-0.6987-2.7758 0.188-3.5739l1.6318-1.4688-2.0142-2.2379c-0.26923-0.29914-0.23571-0.9365 0.0634-1.2057l22.096-19.888-0.74793-3.3763 2.7111-2.4401-2.5702-8.8807 0.84593-2.9833 16.36-14.827-1.3482-1.4979-49.027 44.126c-0.3023 0.27209-0.946 0.23164-1.2181-0.0707l-3.1556-3.506z" fill="#ffd42a"/>
 </g>
 <g transform="matrix(.31986 -.28789 .28789 .31986 -47.61 174.37)" fill="#ffd42a" stroke="#000000" stroke-width=".8">
  <path d="m302.52 203.53c0.50936 2.1306 2.9724 3.6706 2.9724 5.8612l9e-5 18.086h2.9937v-0.9375l10.701-2.0346s0.56015 2.1904 1.3617 2.0357l51.947-10.029c0.93584-0.18068 1.4879-1.2324 2.0219-2.0219 1.8326-2.7098 2.1481-6.2348 3.857-9.0242 1.1126-1.8162 2.5909-3.3969 4.0938-4.9062 1.5179-1.5245 3.2161-2.8659 4.9375-4.1562 1.8517-1.388 5.7812-3.8438 5.7812-3.8438v-14.035l-4.6641-4e-3 -3.9568 6.9941h-69.08c-0.93521 0-1.9839 1.0487-1.9839 1.9839v6.9965h-5.1017c-2.7721 0-4.9671 2.4714-5.8806 5.8806-0.27214 1.0157-0.24449 2.1318 0 3.1545z" fill="#ffd42a" stroke="#000000" stroke-linecap="square" stroke-width=".8"/>
 </g>
 <g stroke="#000000" stroke-linecap="square" stroke-width=".34427">
  <path d="m120.08 160.96-3.6993-4.1101 1.9248-1.7325 1.0327 1.1473 1.1208 4.3536z" fill="#ff7f2a"/>
  <path d="m230.9 17.775c-0.45295 0.40768-0.4942 1.3732-0.0865 1.8262l3.1567 3.5072c0.40779 0.45308 1.3726 0.51395 1.8257 0.10616l1.4975-1.3478c0.21268-0.19142 0.0441-0.62769 0.25677-0.81911l2.617-2.3555c0.2159-0.19432 0.63683 0.01483 0.85275-0.17951l11.113-10.003c0.29728-0.26756 0.32765-0.90115 0.0601-1.1985l-0.87437-0.97146-8.2271 7.4048c-0.73863 0.66481-1.8816 1.1647-2.8406 0.9046-0.17635-0.04777-0.33761-0.22694-0.36659-0.40731-0.15807-0.98107 0.45896-2.0653 1.1976-2.7301l8.2271-7.4048-0.87378-0.97082c-0.26762-0.29731-0.90092-0.33358-1.1982-0.066013l-11.113 10.003c-0.21581 0.19424-0.0526 0.63436-0.26851 0.82861l-2.617 2.3555c-0.21255 0.19131-0.6284-0.02133-0.84099 0.17001z" fill="#ff9955"/>
  <path d="m233.97 23.109-15.012 13.512c-0.31037 0.27934 0.24452 0.97157-0.0658 1.2509l-2.8786 2.5909 0.56754 0.63055c0.13881 0.15424 0.12153 0.48285-0.0327 0.62167l-1.2779 1.1501c-0.14776 0.133-0.16434 0.44788-0.0313 0.59566l0.57481 0.63864c0.14042 0.156 0.12292 0.48838-0.0331 0.62878l-0.64193 0.57778-2.3256-2.5839c-0.12596-0.13994-0.4241-0.15559-0.56402-0.02964l-3.4089 3.0682-3.1654-3.5169 3.386-3.0476c0.30364-0.2733-0.23927-0.95054 0.0645-1.2238l5.4495-4.9049c0.30083-0.27076 0.91175 0.33461 1.2125 0.06378l15.025-13.529z" fill="#ff9955"/>
  <path d="m233.97 23.109-15.012 13.512c-0.31037 0.27934 0.24452 0.97157-0.0658 1.2509l-2.8786 2.5909 0.56754 0.63055c0.13881 0.15424 0.12153 0.48285-0.0327 0.62167l-1.2779 1.1501c-0.14776 0.133-0.16434 0.44788-0.0313 0.59566l0.57481 0.63864c0.14042 0.156 0.12292 0.48838-0.0331 0.62878l-0.64193 0.57778-2.3256-2.5839c-0.12596-0.13994-0.4241-0.15559-0.56402-0.02964l-3.4089 3.0682-3.1654-3.5169 3.386-3.0476c0.30364-0.2733-0.23927-0.95054 0.0645-1.2238l5.4495-4.9049c0.30083-0.27076 0.91175 0.33461 1.2125 0.06378l15.025-13.529z" fill="url(#linearGradient3724-8)"/>
  <path d="m141.17 84.675s-8.584-2.2349-12.968-2.8295c-1.404-0.19041-2.8582-0.52634-4.2443-0.23277-1.6339 0.34608-3.2207 1.1619-4.4622 2.2792l-36.924 33.233c-0.80503 0.72456-0.89522 2.4398-0.17068 3.2448l8.2559 9.1726-22.712 20.442-10.36-11.51 18.144-16.33-1.1622-1.2912 45.259-40.736c1.5105-1.3596 3.809-1.8623 5.8385-1.7558l21.278 1.1169z" fill="#ff7f2a"/>
  <path d="m63.914 145.5-0.63723 0.57354c-0.30423 0.27382 0.23971 0.9524-0.06454 1.2262l-0.95988 0.86393-6.3349-7.0384 0.96656-0.86994c0.30266-0.27241 0.91691 0.34289 1.2196 0.0705l0.63678-0.57314z" fill="#ff7f2a"/>
  <path d="m130.08 121.86c-0.13931-0.39366-0.24461-0.97173 0.0658-1.2511l0.92189-0.82974c0.31043-0.27941 0.87427-0.11407 1.2511 0.0658 0.11887 0.0567 0.22039 0.16947 0.2643 0.29363 0.14024 0.39629 0.24621 0.97821-0.0663 1.2594l-0.91312 0.82185c-0.31248 0.28126-0.88007 0.11482-1.2594-0.0663-0.11888-0.0567-0.2204-0.16947-0.2643-0.29364z" fill="#ff9955"/>
  <path d="m82.35 171.77s2.7466-0.1165 3.9112 0.49205c0.77498 0.40502 1.755 1.9499 1.755 1.9499l4.7612 24.579c0.03225 0.16649 0.18189 0.31787 0.34035 0.37814 2.2991 0.8735 4.9333-0.28067 7.3322-0.82294 2.4772-0.56003 4.8269-1.5873 7.201-2.4897 0.42735-0.16242 0.97042-0.17767 1.2666-0.5259 0.32475-0.38179 0.61509-1.0401 0.34634-1.4631-0.27948-0.43989-1.0786-0.0604-1.5303-0.32035-0.26417-0.15206-0.5228-0.38814-0.61176-0.67971l-6.5104-21.335c-0.0886-0.29026 0.37823-0.55425 0.67677-0.60912 0 0 5.8646-0.59101 6.4432-1.1845l9.0256-9.2583c0.42569-0.4364 0.29945-1.2517 0.0961-1.8264-0.0497-0.14042-0.18828-0.43187-0.29901-0.33221l-0.9576 0.8619c-0.14875 0.13387 0.10711 0.45534-0.0316 0.59958l-8.6143 8.9574c-0.38555 0.40089-5.5271 1.2955-6.2913 1.047-1.187-0.38596-1.3795-2.0659-1.6191-3.2723-0.18976-0.95557-0.39992-1.907-0.61146-2.858-0.03745-0.16818-0.23301-0.37678-0.11635-0.50365l2.9393-3.1973-6.3337-7.037c-0.54285-0.60314-1.8279-0.67073-2.431-0.12788l-9.7496 8.7751c-0.09535 0.0859-0.18003 0.20841-0.18673 0.33655l-0.50146 9.533z" fill="#ff7f2a"/>
  <path d="m98.313 163.16c-0.1166 0.12687 0.24446 0.38836 0.11635 0.50365l-4.2509 3.826c-1.4911 1.3421-3.6881 1.6105-5.6176 2.1593-2.115 0.60157-6.4815 1.228-6.4815 1.228l0.47193-8.9675c0.0069-0.1281 0.09139-0.25072 0.18673-0.33655l9.7496-8.7751c0.60313-0.54285 1.8882-0.47526 2.431 0.12788l6.3337 7.037z" fill="#ff7f2a"/>
  <path d="m98.313 163.16c-0.1166 0.12687 0.24446 0.38836 0.11635 0.50365l-4.2509 3.826c-1.4911 1.3421-3.6881 1.6105-5.6176 2.1593-2.115 0.60157-6.4815 1.228-6.4815 1.228l0.47193-8.9675c0.0069-0.1281 0.09139-0.25072 0.18673-0.33655l9.7496-8.7751c0.60313-0.54285 1.8882-0.47526 2.431 0.12788l6.3337 7.037z" fill="#000000" opacity=".4"/>
  <path d="m67.948 149.99-0.2969-0.32987-7.0293 6.3268-0.09482 1.8257 7.9895-7.1911z" fill="#ffd42a"/>
  <path d="m93.816 133.05-1.7251-1.9167 33.234-29.319 0.85915 0.95456-5.1066 4.5962 1.1516 1.2794-27.195 24.477c-0.3023 0.27209-0.946 0.23163-1.2181-0.0707z" fill="#ffe680"/>
  <path d="m125.32 101.81 8.3232-7.4914c0.15024-0.13522 0.4703-0.11837 0.60549 0.03181l1.7246 1.9161-13.749 12.374-1.1516-1.2794 5.1066-4.5962z" fill="#ffe680"/>
  <path d="m98.21 136.63c-0.15402 0.13862-0.17842 0.4664-0.03977 0.62046l2.8643 3.1824c0.14528 0.16141 0.48949 0.17235 0.65089 0.0271l20.423-18.382c0.16137-0.14524 0.18661-0.4887 0.0413-0.65011l-2.8643-3.1824c-0.13866-0.15405-0.46715-0.1642-0.62119-0.0254l-17.704 15.934z" fill="#ffd42a"/>
  <path d="m98.21 136.63c-0.15402 0.13862-0.17842 0.4664-0.03977 0.62046l2.8643 3.1824c0.14528 0.16141 0.48949 0.17235 0.65089 0.0271l20.423-18.382c0.16137-0.14524 0.18661-0.4887 0.0413-0.65011l-2.8643-3.1824c-0.13866-0.15405-0.46715-0.1642-0.62119-0.0254l-17.704 15.934z" fill="#000000" opacity=".4"/>
 </g>
 <g fill="none" stroke-linecap="square">
  <g>
   <path d="m83.527 166.64 2.5586-2.3029 1.1515 1.2793-2.5586 2.3029z" stroke="#aa0000" stroke-width=".34427"/>
   <path d="m84.723 160.92 2.5586-2.3029 1.1515 1.2793-2.5586 2.3029z" stroke="#ffffff" stroke-width=".34427"/>
   <path d="m85.898 162.02 1.3825-3.2236" stroke="#ffffff" stroke-width=".51641"/>
  </g>
  <g stroke="#aa0000" stroke-width=".34427">
   <path d="m85.031 166.45 0.6837-0.61538"/>
   <path d="m95.492 159.34-10.25 9.2258 1.1522 1.2802 10.25-9.2256"/>
   <path d="m86.661 164.98 0.63067-0.56762"/>
   <path d="m92.831 160.26 0.61538 0.6837"/>
   <path d="m86.762 168.36 0.68371-0.61537"/>
   <path d="m88.043 167.21 0.68371-0.61537"/>
   <path d="m89.32 166.06 0.68371-0.61537"/>
   <path d="m90.601 164.91 0.68371-0.61537"/>
   <path d="m91.88 163.75 0.68371-0.61538"/>
   <path d="m93.161 162.6 0.6837-0.61537"/>
   <path d="m94.442 161.45 0.68371-0.61538"/>
  </g>
  <path d="m87.869 159.26 0.64722-0.58252 1.1668 0.0614" stroke="#ffffff" stroke-width=".34427"/>
 </g>
 <g>
  <path d="m90.211 155.32c1.071-0.96394 2.7206-0.87715 3.6845 0.19382 0.41062 0.45622 5.2085 5.7869 5.2085 5.7869 0.06276 0.18453 0.04108 0.40813-0.04502 0.58296-0.19118 0.38809-0.55843 0.71996-0.96493 0.86791-0.18738 0.0681-0.41697 0.0636-0.59757-0.0206-0.27423-0.12785-0.51361-0.38692-0.6072-0.67463-0.05979-0.18369 0.18937-0.43289 0.06011-0.57651l-1.7298-1.9219c-0.39044-0.4338-1.4458-0.42455-1.7439-0.15626-0.85608 0.77051-2.4957 0.67476-3.4596-0.39625-0.96392-1.071-0.87715-2.7206 0.19382-3.6845z" fill="#ff7f2a" fill-rule="evenodd" stroke="#000000" stroke-linecap="square" stroke-width=".34427"/>
  <path d="m60.234 140.13-1.1538-1.282 1.2795-1.1516-4.0237-4.4706-0.96209 0.86594-3.7539-4.1707 1.9255-1.733 0.29238 0.32487c0.13494 0.14991 0.46926-0.11813 0.60417 0.0318l2.8818 3.2018 11.836-10.653-2.5944-2.8825c-0.13756-0.15284 0.16998-0.46324 0.03243-0.61605l-0.573-0.63664 3.5204-3.1685c0.15081-0.13573 0.47145-0.10812 0.60719 0.0427l4.0266 4.4737c0.13505 0.15004-0.16684 0.45476-0.03179 0.6048l1.4454 1.6059c0.13419 0.14908 0.46686-0.11993 0.60105 0.0292l3.1442 3.4934" fill="#ff7f2a" stroke="#000000" stroke-linecap="square" stroke-width=".34427"/>
  <path d="m59.621 136.88 0.73894 0.82101-1.2794 1.1516 1.1538 1.2821 18.553-16.699-1.9006-2.1116" fill="url(#radialGradient3836-2)"/>
  <path d="m55.374 134.1-0.31696 0.28527 3.4502 3.8334 1.279-1.1512-3.4503-3.8333z" fill="#ff7f2a" stroke="#000000" stroke-linecap="square" stroke-width=".34427"/>
  <path d="m58.507 138.21 0.5732 0.63747 1.2794-1.1516-0.57352-0.63722z" fill="#ff7f2a" stroke="#000000" stroke-linecap="square" stroke-width=".34427"/>
 </g>
 <path d="m56.336 133.23-0.58256-0.64724" fill="none" stroke="#000000" stroke-linecap="square" stroke-width=".34427"/>
 <g fill="#ff7f2a" stroke="#000000" stroke-linecap="square" stroke-width=".34427">
  <path d="m74.178 118.31 2.2397-2.0158-1.7161-1.9067-2.239 2.0153z"/>
  <path d="m54.442 128.55 5.7581-5.1826 2.8825 3.2026-5.7581 5.1826z"/>
  <path d="m66.565 118.21-6.0774 5.47 1.7341 1.9267 6.0774-5.47z"/>
  <path d="m62.221 125.61 0.861 0.95662 6.0774-5.47-0.86031-0.95583z"/>
 </g>
 <g stroke="#000000" stroke-linecap="square" stroke-width=".34427">
  <path d="m96.383 136.55c-0.13865-0.15404-0.4664-0.17843-0.62042-0.0398l-2.5352 2.2818c-0.1614 0.14527-0.17237 0.48945-0.02711 0.65086l5.4311 6.0342c0.14524 0.16137 0.4887 0.18659 0.6501 0.0413l2.5352-2.2818c0.15403-0.13861 0.16414-0.46715 0.0254-0.62114z" fill="none"/>
  <path d="m94.741 138.59 0.64958-0.58467 3.7437 4.1594-0.64958 0.58466z" fill="none"/>
  <path d="m98.485 142.75 0.14702 2.7305c0.01164 0.2168 0.4887 0.18659 0.6501 0.0413l2.5352-2.2818c0.15402-0.13861 0.22992-0.58698 0.0254-0.62115l-2.7082-0.45349z" fill="#000000" opacity=".4"/>
  <path d="m134.01 135.84c0.0103-0.19581-0.0512-0.48947-0.0782-0.68371-0.19395-1.3944-1.1111-2.6122-1.3643-3.997-0.19075-1.0429-0.12883-2.2427-0.12883-2.2427l-0.89061-0.98951c-0.11832-0.13147 0.086-0.36329 0.0268-0.52997-0.044-0.12414-0.14541-0.23697-0.2643-0.29365-0.17958-0.0857-0.46305 0.11656-0.5962-0.0314l-0.82395-0.91544c-0.69055-0.76724-2.323-0.89024-3.0901-0.19974l-19.193 17.275c-0.15163 0.13647-0.1686 0.45949-0.0321 0.61109l2.2902 2.5445-2.2123 1.9912c-0.61641 0.55481-0.40737 1.7027-0.13069 2.4845 0.13956 0.39441 0.4621 0.75277 0.83973 0.93296 0.19116 0.0913 0.63455 0.0334 0.63455 0.0334l1.389 1.5677 5.207 5.7851 0.95757-0.86187-0.2699-0.29986 2.837-3.7314s0.80979 0.53936 1.0216 0.25913l13.729-18.163c0.12915-0.17068 0.13172-0.33126 0.14294-0.54504z" fill="#ff7f2a"/>
 </g>
 <g fill="#ff9955" stroke="#000000" stroke-linecap="square" stroke-width=".34427">
  <path d="m129.38 128.85c-0.13928-0.39368-0.24458-0.97175 0.0658-1.2511l0.61798-0.55621c0.31038-0.27938 0.87423-0.11407 1.2511 0.0658 0.11888 0.0567 0.22039 0.16947 0.26429 0.29364 0.14029 0.39632 0.24625 0.97824-0.0663 1.2595l-0.60919 0.54829c-0.31249 0.28126-0.88006 0.11482-1.2595-0.0663-0.11888-0.0567-0.22039-0.16945-0.2643-0.29363z"/>
  <path d="m189.33 49.416 2.9937-2.6945 1.0009 1.112-2.9937 2.6945z"/>
  <path d="m180.69 57.19-0.63493 0.57148c-0.1505 0.13546-0.1674 0.45607-0.0319 0.60656l0.66406 0.7378 0.95293-0.85769z"/>
  <path d="m180.44 56.244c-0.15406 0.13864-0.17842 0.4664-0.0398 0.62044l2.2818 2.5351 0.65085 0.02711 7.9446-7.1506 0.0413-0.65013-2.2818-2.5351c-0.13865-0.15405-0.46717-0.16416-0.6212-0.02555z"/>
  <path d="m166.94 69.566c-0.14925 0.13427-0.16594 0.45222-0.0316 0.60144l0.61526 0.68358 10.027-9.0251-0.89927-0.99913z"/>
 </g>
 <g fill="#ff7f2a">
  <path d="m153.26 86.521-6.328-7.0307-4.1559 3.7405 2.8614 3.1791c0.14049 0.1561 0.12303 0.48864-0.0331 0.62912l-1.2757 1.1482 3.168 3.5198"/>
  <path d="m153 75.163-4.8666 4.3802c-0.14909 0.13418-0.46674 0.1174-0.60092-0.03161l-0.27791-0.30876-6.081 5.4732 2.645 2.9387c0.67093 0.74544 0.49487 2.3274-0.25057 2.9983l-16.551 14.896c-0.76829 0.69149-1.1265 1.9885-0.84597 2.9833l2.8862 10.234-0.99707 0.89742 1.426 1.5843 1.5843-1.426c0.31043-0.27941 0.87427-0.11408 1.2511 0.0658 0.11888 0.0567 0.22039 0.16947 0.26429 0.29364 0.14025 0.39628 0.24622 0.97821-0.0663 1.2594l-1.5857 1.4272 0.85506 0.94999c0.1417 0.15744 0.47712 0.17509 0.63456 0.0334l1.5903-1.4314 0.94131-2.589 51.277-46.152 0.5782 0.6424 5.1173-4.6058-0.57254-0.6361 16.963-15.268 0.57251 0.63611 2.8802-2.5924-0.56302-0.62553 2.2229-2.0007c0.39411-0.35471 0.13635-1.1814-0.21833-1.5755l-3.1893-3.5435s-6.9021-5.2246-10.973-6.3764c-1.3802-0.39055-3.2358-1.0675-4.302-0.10789zm40.683-30.242c-0.41068-0.45588-0.35304-1.4254 0.1051-1.8377l4.1282-3.7156c0.45813-0.41235 1.4284-0.36795 1.8386 0.08829 0.40988 0.45584 0.35145 1.4236-0.1067 1.836l-4.1282 3.7156c-0.45814 0.41235-1.4267 0.36893-1.837-0.08652zm-7.994 7.195c-0.41066-0.45589-0.35302-1.4254 0.10512-1.8378l4.1282-3.7156c0.45815-0.41235 1.4284-0.36795 1.8386 0.08829 0.40987 0.45585 0.35144 1.4236-0.1067 1.836l-4.1282 3.7156c-0.45814 0.41235-1.4267 0.36893-1.8371-0.08651zm-8.0024 7.2026c-0.41068-0.45588-0.35304-1.4254 0.10511-1.8377l4.1282-3.7156c0.45814-0.41235 1.4284-0.36795 1.8386 0.08829 0.40988 0.45584 0.35144 1.4236-0.10669 1.836l-4.1282 3.7156c-0.45814 0.41235-1.4267 0.36892-1.837-0.08652zm-7.994 7.195c-0.41068-0.45588-0.35303-1.4254 0.1051-1.8377l4.1282-3.7156c0.45813-0.41235 1.4283-0.36795 1.8386 0.08828 0.40989 0.45584 0.35144 1.4236-0.10669 1.836l-4.1282 3.7156c-0.45813 0.41235-1.4267 0.36893-1.837-0.08652zm-7.994 7.195c-0.41071-0.45586-0.35303-1.4254 0.10507-1.8377l4.1283-3.7156c0.45815-0.41235 1.4284-0.36795 1.8386 0.08831 0.4099 0.45581 0.35147 1.4236-0.10668 1.836l-4.1282 3.7156c-0.45812 0.41233-1.4267 0.36893-1.837-0.08654zm-7.994 7.195c-0.41069-0.45587-0.35305-1.4254 0.1051-1.8377l4.1282-3.7156c0.45815-0.41235 1.4284-0.36795 1.8386 0.08832 0.4099 0.45581 0.35147 1.4236-0.10666 1.836l-4.1282 3.7156c-0.45814 0.41235-1.4267 0.36893-1.837-0.08654z" fill-rule="evenodd" stroke="#000000" stroke-linecap="square" stroke-width=".34427"/>
  <path d="m7.2482 217.66c-0.42747-0.17773-0.92331-0.36661-1.3682-0.2386-0.40175 0.11558-0.68957 0.49849-0.93208 0.83893-0.55214 0.775-1.0591 1.6791-1.112 2.6292-0.019501 0.34983 0.11944 0.70702 0.2995 1.0076 0 0 10.76 10.349 15.909 15.75 1.0309 1.0811 2.031 2.1923 2.998 3.3309 3.2123 3.7824 9.3066 11.619 9.3066 11.619 0.46504 0.5803 1.5404 0.10053 2.2222-0.1962 0.61373-0.26706 1.155-0.76529 1.4925-1.3433 0.28512-0.48834 0.74693-1.2356 0.36864-1.6559l-27.493-30.546c-0.46196-0.51325-1.0539-0.93083-1.6916-1.196z" stroke="#000000" stroke-linecap="square" stroke-width=".34427"/>
 </g>
 <g stroke="#000000" stroke-linecap="square" stroke-width=".34427">
  <path d="m74.54 177.05-15.603-17.335c-0.11441-0.12712 0.29271-0.73515 0.29271-0.73515l0.65578-0.59024 15.837 17.596z" fill="#ffd42a"/>
  <path d="m74.54 177.05-15.603-17.335c-0.11441-0.12712 0.29271-0.73515 0.29271-0.73515l0.65578-0.59024 15.837 17.596z" fill="#000000" opacity=".4"/>
  <path d="m26.19 232.16 2.7094-3.9821-2.4077-2.6751c-0.40636-0.45148-1.3683-0.50208-1.8197-0.0958l-1.2788 1.151c-0.30202 0.27183-0.94545 0.238-1.2173-0.064l-3.7266-4.1404c-1.2365-1.3738-5.2056-1.9097-5.2056-1.9097l10.427 11.584c0.56251 0.62487 2.0397 0.82341 2.5188 0.1325zm0.42289-5.3259c0.57887 0.64316 0.52675 1.6337-0.1164 2.2126-0.64315 0.57885-1.6337 0.52675-2.2126-0.1164-0.57887-0.64313-0.52677-1.6337 0.11638-2.2126 0.64315-0.57888 1.6337-0.52676 2.2126 0.11638z" fill="#ff7f2a"/>
  <path d="m160.51 156.99s-9.6365-6.0816-14.193-9.4926c-4.4411-3.3249-12.775-10.668-12.775-10.668l-13.027 17.236s9.8479 8.2364 15.099 11.914c4.7039 3.2948 14.652 9.0636 14.652 9.0636z" fill="#ff2a2a"/>
 </g>
 <g stroke="#000000" stroke-linecap="square" stroke-width=".34427">
  <g>
   <path d="m121.37 152.93s9.842 8.2448 15.099 11.914c4.6581 3.2515 14.522 8.9187 14.522 8.9187" fill="none"/>
   <path d="m75.723 175.98 3.5128-3.1617" fill="none"/>
   <path d="m75.723 175.98 3.1976-2.878-15.838-17.596-3.1976 2.878z" fill="#ffdd55"/>
   <path d="m153.26 86.521-6.328-7.0307-4.1559 3.7405 2.8614 3.1791c0.14049 0.1561 0.12303 0.48864-0.0331 0.62912l-1.2757 1.1482 3.168 3.5198" fill="none" opacity=".5"/>
   <path d="m143.11 82.932-3.7249-0.19593 0.77923-2.3967 5.5083 0.28615z" fill="#ff9955"/>
  </g>
  <circle transform="rotate(-41.989)" cx="49.141" cy="153.92" r="1.3626" fill="#ff9955" fill-rule="evenodd"/>
 </g>
 <g fill="none" stroke-linecap="square">
  <g stroke="#000000" stroke-width=".34427">
   <path d="m133.19 155.54c-0.3289-0.23543-0.8304-0.19866-1.2117-0.0638-0.41683 0.14752-0.79552 0.48836-0.98598 0.88742-0.17304 0.36256-0.38955 0.96915-0.0632 1.2036l11.429 8.2134c0.34339 0.24676 0.86819 0.20772 1.2668 0.0666 0.39376-0.13932 0.7515-0.4613 0.93137-0.83828 0.18446-0.38649 0.41575-1.0338 0.0674-1.2831z" opacity=".5"/>
   <circle transform="rotate(-41.989)" cx="-3.1371" cy="199.32" r="1.9874" opacity=".5"/>
   <g>
    <path d="m130.37 150.5 0.30604 0.34c0.1411 0.15679 0.43312 0.10362 0.632 0.0333 0.25439-0.09 0.48549-0.298 0.60169-0.54154 0.18008-0.37742-0.2449-0.97304 0.0658-1.2528 0.15194-0.13676 0.42787-0.0558 0.61233 0.0322 0.1304 0.0623 0.24182 0.18608 0.29009 0.32228 0.20569 0.58117 0.16834 1.2905-0.0972 1.8469-0.18001 0.37726-0.538 0.69948-0.93209 0.83891-0.588 0.20813-1.3057 0.1704-1.8686-0.0983-0.38372-0.18312-0.71142-0.54723-0.85325-0.94801-0.13688-0.38683-0.23841-0.9527 0.0646-1.2293 0.15059-0.13554 0.47164-0.12677 0.60741 0.0236z"/>
    <path d="m150.22 161.62 1.1472 1.2745-0.12951 2.4619-0.6344 0.57105" opacity=".5"/>
    <path d="m149.93 161.3 0.28781 0.31978c0.26946 0.29939 0.10997 0.84328-0.0636 1.2068-0.0622 0.1305-0.18607 0.24194-0.32239 0.29016-0.18565 0.0657-0.40437-0.0968-0.58999-0.031-0.27736 0.0981-0.52934 0.32497-0.65607 0.59048-0.0862 0.18066-0.0984 0.41103-0.0316 0.59977 0.0958 0.2709 0.31734 0.51701 0.57674 0.64077 0.36492 0.17418 0.84645-0.11035 1.2114 0.0638 0.13105 0.0625 0.24294 0.18682 0.29136 0.32369 0.0694 0.19604 0.0568 0.43539-0.0328 0.62308-0.0565 0.11843-0.16891 0.21959-0.29261 0.26337-0.58771 0.20799-1.305 0.17024-1.8677-0.0982-0.38141-0.18201-0.7074-0.54384-0.84816-0.94235-0.20392-0.57741-0.35622-1.4247 0.0989-1.8345z"/>
   </g>
  </g>
  <g>
   <path d="m129.76 142.53s8.4413 7.819 13.126 11.13c4.5109 3.1878 14.321 8.3359 14.321 8.3359" stroke="#ff5555" stroke-width=".94675"/>
   <path d="m116.28 158.03 16.891-22.211c0.148-0.19458 0.55445-0.2353 0.73048-0.0657 0.15404 0.14859 0.0954 0.4705-0.0337 0.64125l-13.729 18.163c-0.21183 0.2803-1.0216-0.25913-1.0216-0.25913z" stroke="#000000" stroke-width=".34427"/>
   <path d="m130.26 141.82s8.4233 7.7664 13.091 11.06c4.4891 3.1681 14.242 8.2986 14.242 8.2986" opacity=".5" stroke="#000000" stroke-width=".94675"/>
  </g>
 </g>
 <g fill="#ff7f2a" stroke="#000000" stroke-linecap="square" stroke-width=".34427">
  <path d="m152.9 176.37 10.299-18.356c0.0919-0.16374 0.12373-0.39999 0.0296-0.56238-0.38892-0.67057-1.3082-1.1508-2.0764-1.0472-0.28894 0.0389-0.50466 0.33322-0.65009 0.58512l-10.319 18.165c-0.0927 0.16323-0.12217 0.39644-0.0339 0.56213 0.38117 0.71558 1.2898 1.3124 2.0967 1.233 0.29013-0.0285 0.51049-0.32744 0.65302-0.58186z"/>
  <path d="m79.885 124.77-0.92082 0.82879 0.59798 0.66437c0.53525 0.5947 1.6447 0.377 2.3979 0.10712 0.5532-0.19827 1.0539-0.65065 1.3104-1.1794 0.35104-0.72362 0.69561-1.8098 0.15757-2.4076l-0.59775-0.66412z"/>
  <circle transform="rotate(-41.989)" cx="-22.714" cy="146.18" r="1.8115" fill-rule="evenodd"/>
 </g>
 <path d="m207.72 42.423c0.76008 0.52463 1.5309 1.0704 2.3016 1.647l0.87721 0.99262-81.844 73.663-1.2032-4.2643" fill="url(#radialGradient3832-5)"/>
 <path d="m207.72 42.423c0.76008 0.52463 1.5309 1.0704 2.3016 1.647l0.87721 0.99262-81.844 73.663-1.2032-4.2643" fill="none" opacity=".5" stroke="#000000" stroke-linecap="square" stroke-width=".34427"/>
 <g fill="#ff9955" stroke="#000000" stroke-linecap="square" stroke-width=".34427">
  <circle transform="rotate(-41.989)" cx="53.66" cy="160.15" r="1.1411" fill-rule="evenodd"/>
  <path d="m86.817 133-2.3077-2.5639c-0.40342-0.44823-0.3532-1.4032 0.09503-1.8066l0.65348-0.58816c0.45264-0.40739 1.4171-0.3567 1.8245 0.0959l2.2981 2.5533z"/>
  <path d="m70.184 147.97-2.3077-2.5639c-0.40342-0.4482-0.35319-1.4032 0.09503-1.8066l0.65348-0.58817c0.45264-0.40739 1.4171-0.35669 1.8245 0.096l2.2981 2.5533z"/>
 </g>
 <g stroke="#000000" stroke-linecap="square" stroke-width=".34427">
  <path d="m72.247 161.2-2.9092-3.2257 56.821-51.142" fill="none"/>
  <path d="m99.483 135.49c-0.30377 0.27342-0.3325 0.92093-0.0591 1.2247l2.3026 2.5583c0.27264 0.30293 0.91843 0.32793 1.2213 0.0553l17.897-16.109c0.30291-0.27264 0.34575-0.91747 0.0732-1.2204l-2.3026-2.5583c-0.27341-0.30378-0.92034-0.34315-1.2241-0.0698l-11.717 10.546z" fill="#ffe680"/>
  <path d="m65.338 153.53 3.9994 4.45 56.821-51.142" fill="none"/>
  <path d="m114 142.68-4.129 3.7104-2.2123 1.9912c-0.61642 0.5548-0.40737 1.7027-0.1307 2.4845 0.13959 0.39445 0.46211 0.75281 0.83973 0.93299 0.74082 0.35355 1.849 0.67849 2.4592 0.12935l6.3517-5.7169" fill="#ff7f2a"/>
 </g>
 <path d="m114 142.68-1.5692 1.4124 3.1792 3.5322 1.5692-1.4124" fill="#ff9955"/>
 <g stroke="#000000" stroke-linecap="square" stroke-width=".34427">
  <path d="m119.89 83.568 6.8652-5.1107" fill="none"/>
  <circle transform="rotate(-41.989)" cx="-18.63" cy="184.68" r="1.1173" fill="#ff9955" fill-rule="evenodd"/>
  <path d="m134.96 119.79 3.15-8.018" fill="none"/>
  <path d="m90.211 155.32c1.071-0.96394 2.7206-0.87715 3.6845 0.19382 0.41062 0.45622 5.2085 5.7869 5.2085 5.7869 0.06276 0.18453 0.04108 0.40813-0.04502 0.58296-0.19118 0.38809-0.55843 0.71996-0.96493 0.86791-0.18738 0.0681-0.41697 0.0636-0.59757-0.0206-0.27423-0.12785-0.51361-0.38692-0.6072-0.67463-0.05979-0.18369 0.18937-0.43289 0.06011-0.57651l-1.7298-1.9219c-0.39044-0.4338-1.4458-0.42455-1.7439-0.15626-0.85608 0.77051-2.4957 0.67476-3.4596-0.39625-0.96392-1.071-0.87715-2.7206 0.19382-3.6845z" fill="#000000" fill-rule="evenodd" opacity=".2"/>
 </g>
 <g fill="none" stroke-linecap="square">
  <path d="m92.194 159.4 0.35232-1.5384" stroke="#ffffff" stroke-width=".51641"/>
  <g stroke="#000000" stroke-width=".34427">
   <path d="m114 142.68-1.5692 1.4124 3.1792 3.5322 1.5692-1.4124z" opacity=".5"/>
   <path d="m114 142.68-4.129 3.7104-2.2123 1.9912c-0.61642 0.5548-0.40737 1.7027-0.1307 2.4845 0.13959 0.39445 0.46211 0.75281 0.83973 0.93299 0.74082 0.35355 1.849 0.67849 2.4592 0.12935l6.3517-5.7169"/>
   <path d="m75.723 175.98 3.1976-2.878-15.838-17.596-3.1976 2.878z"/>
  </g>
 </g>
 <g stroke="#000000" stroke-linecap="square" stroke-width=".34427">
  <g>
   <path d="m45.034 186.92c-0.56792-0.63099-1.9127-0.69332-2.5437-0.12539l-31.559 28.404c-0.62767 0.56495-0.69804 1.9023-0.13308 2.53l12.872 14.301c0.56246 0.62492 2.0402 0.82372 2.5188 0.1325 0 0 6.2751-9.2871 9.5689-13.82 5.4786-7.5392 16.947-22.237 16.947-22.237 0.07252-0.19335 0.17909-0.46463 0.04096-0.61811zm3.3977-2.0157c-0.60652 0.54591-0.67393 1.8382-0.12803 2.4447l4.0136 4.4594c0.34895 0.38771 1.1154 0.78391 1.5031 0.43498l11.575-10.418c0.38771-0.34896 0.07412-1.1528-0.27484-1.5405l-4.0136-4.4594c-0.5459-0.60652-1.8381-0.67505-2.4446-0.12916l-0.97146 0.87436zm11.454-26.519-0.65578 0.59024c-0.42308 0.38079-1.8574 5.499-3.2106 8.0521-1.6956 3.1989-3.8129 6.1789-6.0913 8.9926-2.5836 3.1905-5.4866 6.1298-8.538 8.8763l-33.451 30.108c-0.68086 0.6128-1.0055 1.7996-0.69087 2.6598 0 0 1.2296 0.68271 1.6916 1.196l27.493 30.546c0.36946 0.41048 1.1437 0.0645 1.6494-0.15765 0.22057-0.097 0.41404-0.27654 0.53727-0.48358 0.37415-0.62886 0.58421-1.4064 0.51224-2.1346 0 0-1.7469-3.5235-2.4699-5.3496-0.79949-2.0193-1.4731-4.0904-2.0585-6.1818-0.23863-0.85269-0.51874-1.7073-0.59098-2.5898-0.13062-1.5951-0.0331-3.2254 0.2925-4.7923 0.36695-1.7659 1.0324-3.477 1.8493-5.085 1.3348-2.6273 3.2623-4.9089 4.9283-7.3397 1.0952-1.5979 3.3311-4.7622 3.3311-4.7622s1.5333-2.1499 2.298-3.2262c1.8893-2.6599 3.2325-5.8043 5.6575-7.987l2.274-2.0468c1.2336-1.1103 1.4776-3.0659 2.7112-4.1762l16.093-14.485c0.15149-0.13634 0.459 0.16841 0.61055 0.0321l0.64002-0.57547-0.5779-0.64206 0.95261-0.85741-2.2975-2.5526c-0.1335-0.14833-0.11688-0.4643 0.03144-0.59781l3.8581-3.4724-4.0364-4.4846-3.8434 3.4592c-0.15491 0.13943-0.48494 0.12204-0.62437-0.0329l-2.0074-2.2303c-0.13413-0.14902-0.11743-0.46652 0.03155-0.60063l3.8446-3.4604-4.0305-4.4781-3.8292 3.4465c-0.15619 0.14059-0.48894 0.12308-0.62949-0.0331l-1.4326-1.5916c-0.13278-0.14751-0.11624-0.4618 0.03127-0.59457l0.33663-0.30297z" fill="#ff9955" fill-rule="evenodd"/>
   <path d="m52.318 191.81s0.50034 0.76252 0.88224 0.98022c0.62016 0.3535 1.569 0.89924 2.0996 0.42171l10.903-9.8132c0.53056-0.47753 0.08737-1.4784-0.19911-2.1322-0.17643-0.40263-0.88224-0.98022-0.88224-0.98022s0.66255 1.1915 0.27484 1.5405l-11.575 10.418c-0.38768 0.34893-1.5031-0.43498-1.5031-0.43498z" fill="#ff9955"/>
   <path d="m52.318 191.81s0.50034 0.76252 0.88224 0.98022c0.62016 0.3535 1.569 0.89924 2.0996 0.42171l10.903-9.8132c0.53056-0.47753 0.08737-1.4784-0.19911-2.1322-0.17643-0.40263-0.88224-0.98022-0.88224-0.98022s0.66255 1.1915 0.27484 1.5405l-11.575 10.418c-0.38768 0.34893-1.5031-0.43498-1.5031-0.43498z" fill="#000000" opacity=".2"/>
  </g>
  <path d="m87.067 128.71a1.3314 1.3314 0 0 1-0.09886 1.8802 1.3314 1.3314 0 0 1-1.8803-0.0989 1.3314 1.3314 0 0 1 0.09893-1.8802 1.3314 1.3314 0 0 1 1.8802 0.0989z" fill="#ffb380" fill-rule="evenodd"/>
  <path d="m70.434 143.68a1.3314 1.3314 0 0 1-0.09887 1.8803 1.3314 1.3314 0 0 1-1.8803-0.0989 1.3314 1.3314 0 0 1 0.09893-1.8802 1.3314 1.3314 0 0 1 1.8802 0.0989z" fill="#ffb380" fill-rule="evenodd"/>
 </g>
 <g fill="#000000" stroke="#000000" stroke-linecap="square" stroke-width=".34427">
  <path d="m62.221 125.61 0.86103 0.95664 6.0774-5.47-0.86032-0.95584z" opacity=".2"/>
  <path d="m63.914 145.5-0.63723 0.57354c-0.30423 0.27382 0.23971 0.9524-0.06454 1.2262l-0.95988 0.86393-6.3349-7.0384 0.96656-0.86994c0.30266-0.27241 0.91691 0.34289 1.2196 0.0705l0.63678-0.57314z" opacity=".3"/>
  <path d="m55.374 134.1-0.31695 0.28527 3.4502 3.8334 1.279-1.1512-3.4503-3.8333z" opacity=".4"/>
  <path d="m58.507 138.21 0.57319 0.6375 1.2795-1.1516-0.57352-0.6372z" opacity=".4"/>
 </g>
 <path d="m63.914 145.5-0.94824-1.0535 22.711-20.441 0.94806 1.0533z" fill="none" opacity=".5" stroke="#000000" stroke-linecap="square" stroke-width=".34427"/>
 <path d="m124.26 104.52 1.1066 1.2295" fill="none" opacity=".5" stroke="#000000" stroke-linecap="square" stroke-width=".34427"/>
 <g fill="#ff7f2a">
  <g stroke="#000000" stroke-linecap="square" stroke-width=".34427">
   <path d="m181.31 62.409c-0.4314 0.90399-0.49203 2.0565-0.15785 3.0008 0.19507 0.55122 0.64577 1.052 1.1735 1.3038 0.55571 0.26521 1.387 0.50896 1.8446 0.09707l2.2241-2.0018c0.45765-0.41192 0.30242-1.2642 0.097-1.8446-0.19507-0.55122-0.64577-1.052-1.1735-1.3038-0.90399-0.43141-2.0565-0.49204-3.0008-0.15785-0.42577 0.15065-0.81255 0.49878-1.007 0.9064z"/>
   <circle transform="rotate(-41.989)" cx="93.689" cy="171.32" r="1.5186" fill-rule="evenodd"/>
   <path d="m202.42 43.408c-0.4314 0.90399-0.49203 2.0565-0.15784 3.0008 0.19505 0.55122 0.64576 1.052 1.1735 1.3038 0.5557 0.26522 1.387 0.50896 1.8446 0.09707l2.2241-2.0018c0.45766-0.41192 0.30245-1.2642 0.097-1.8446-0.19505-0.55122-0.64576-1.052-1.1735-1.3038-0.90398-0.43141-2.0565-0.49203-3.0008-0.15785-0.42579 0.15066-0.81255 0.49878-1.0071 0.9064z"/>
   <circle transform="rotate(-41.989)" cx="122.09" cy="171.32" r="1.5186" fill-rule="evenodd"/>
  </g>
  <path d="m133.71 114.3-2.6225-2.9137-3.0698 2.7809 2.4843 3.0216"/>
 </g>
 <g stroke="#000000" stroke-linecap="square" stroke-width=".34427">
  <path d="m128.28 114.73 2.115 2.3499" fill="none"/>
  <path d="m131.49 111.84 2.1142 2.349" fill="none"/>
  <path d="m230.9 17.775c-0.45295 0.40768-0.4942 1.3732-0.0865 1.8262l3.1567 3.5072c0.40779 0.45308 1.3726 0.51395 1.8257 0.10616l1.4975-1.3478c0.21268-0.19142 0.0441-0.62769 0.25677-0.81911l2.617-2.3555c0.2159-0.19432 0.63683 0.01483 0.85275-0.17951l11.113-10.003c0.29728-0.26756 0.32765-0.90115 0.0601-1.1985l-0.87437-0.97146-8.2271 7.4048c-0.73863 0.66481-1.8816 1.1647-2.8406 0.9046-0.17635-0.04777-0.33761-0.22694-0.36659-0.40731-0.15807-0.98107 0.45896-2.0653 1.1976-2.7301l8.2271-7.4048-0.87378-0.97082c-0.26762-0.29731-0.90092-0.33358-1.1982-0.066013l-11.113 10.003c-0.21581 0.19424-0.0526 0.63436-0.26851 0.82861l-2.617 2.3555c-0.21255 0.19131-0.6284-0.02133-0.84099 0.17001z" fill="url(#linearGradient3716-2)"/>
 </g>
 <g fill="none" stroke="#000000" stroke-linecap="square" stroke-width=".34427">
  <path d="m216.02 40.462-2.8114 2.5304" opacity=".5"/>
  <path d="m233.12 16.37 4.3116 4.7905" opacity=".5"/>
  <path d="m235.99 13.78 4.3117 4.7905" opacity=".5"/>
  <path d="m59.08 138.85 1.1538 1.2821"/>
  <path d="m76.887 121.32 1.9006 2.1116"/>
  <path d="m59.786 137.06 0.57352 0.63722-1.2794 1.1516 1.1538 1.2821 18.553-16.699-1.9006-2.1116" opacity=".5"/>
 </g>
 <path d="m45.034 186.92c-0.56792-0.63099-1.9127-0.69332-2.5437-0.12539l-31.559 28.404c-0.62767 0.56495-0.69804 1.9023-0.13308 2.53l12.872 14.301c0.56246 0.62492 2.0402 0.82372 2.5188 0.1325 0 0 6.2751-9.2871 9.5689-13.82 5.4786-7.5392 16.947-22.237 16.947-22.237 0.07252-0.19335 0.17909-0.46463 0.04096-0.61811zm3.3977-2.0157c-0.60652 0.54591-0.67393 1.8382-0.12803 2.4447l4.0136 4.4594c0.34895 0.38771 1.1154 0.78391 1.5031 0.43498l11.575-10.418c0.38771-0.34896 0.07412-1.1528-0.27484-1.5405l-4.0136-4.4594c-0.5459-0.60652-1.8381-0.67505-2.4446-0.12916l-0.97146 0.87436zm11.454-26.519-0.65578 0.59024c-0.42308 0.38079-1.8574 5.499-3.2106 8.0521-1.6956 3.1989-3.8129 6.1789-6.0913 8.9926-2.5836 3.1905-5.4866 6.1298-8.538 8.8763l-33.451 30.108c-0.68086 0.6128-1.0055 1.7996-0.69087 2.6598 0 0 1.2296 0.68271 1.6916 1.196l27.493 30.546c0.36946 0.41048 1.1437 0.0645 1.6494-0.15765 0.22057-0.097 0.41404-0.27654 0.53724-0.48354 0.37418-0.6289 0.58424-1.4065 0.51227-2.1347 0 0-1.7469-3.5235-2.4699-5.3496-0.79949-2.0193-1.4731-4.0904-2.0585-6.1818-0.23863-0.85269-0.51874-1.7073-0.59098-2.5898-0.13062-1.5951-0.0331-3.2254 0.2925-4.7923 0.36695-1.7659 1.0324-3.477 1.8493-5.085 1.3348-2.6273 3.2623-4.9089 4.9283-7.3397 1.0952-1.5979 3.3311-4.7622 3.3311-4.7622s1.5333-2.1499 2.298-3.2262c1.8893-2.6599 3.2325-5.8043 5.6575-7.987l2.274-2.0468c1.2336-1.1103 1.4776-3.0659 2.7112-4.1762l16.093-14.485c0.15149-0.13634 0.459 0.16841 0.61055 0.0321l0.64002-0.57547-0.5779-0.64206 0.95261-0.85741-2.2975-2.5526c-0.1335-0.14833-0.11688-0.4643 0.03144-0.59781l3.8581-3.4724-4.0364-4.4846-3.8434 3.4592c-0.15491 0.13943-0.48494 0.12204-0.62437-0.0329l-2.0074-2.2303c-0.13413-0.14902-0.11743-0.46652 0.03155-0.60063l3.8446-3.4604-4.0305-4.4781-3.8292 3.4465c-0.15619 0.14059-0.48894 0.12308-0.62949-0.0331l-1.4326-1.5916c-0.13278-0.14751-0.11624-0.4618 0.03127-0.59457l0.33663-0.30297z" fill="url(#radialGradient3873-8)" fill-rule="evenodd"/>
 <path d="m45.034 186.92c-0.56792-0.63099-1.9127-0.69332-2.5437-0.12539l-31.559 28.404c-0.62767 0.56495-0.69804 1.9023-0.13308 2.53l12.872 14.301c0.56246 0.62492 2.0402 0.82372 2.5188 0.1325 0 0 6.2751-9.2871 9.5689-13.82 5.4786-7.5392 16.947-22.237 16.947-22.237 0.07252-0.19335 0.17909-0.46463 0.04096-0.61811zm3.3977-2.0157c-0.60652 0.54591-0.67393 1.8382-0.12803 2.4447l4.0136 4.4594c0.34895 0.38771 1.1154 0.78391 1.5031 0.43498l11.575-10.418c0.38771-0.34896 0.07412-1.1528-0.27484-1.5405l-4.0136-4.4594c-0.5459-0.60652-1.8381-0.67505-2.4446-0.12916l-0.97146 0.87436zm11.454-26.519-0.65578 0.59024c-0.42308 0.38079-1.8574 5.499-3.2106 8.0521-1.6956 3.1989-3.8129 6.1789-6.0913 8.9926-2.5836 3.1905-5.4866 6.1298-8.538 8.8763l-33.451 30.108c-0.68086 0.6128-1.0055 1.7996-0.69087 2.6598 0 0 1.2296 0.68271 1.6916 1.196l27.493 30.546c0.36946 0.41048 1.1437 0.0645 1.6494-0.15765 0.22054-0.097 0.41404-0.27654 0.53724-0.48354 0.37418-0.6289 0.58424-1.4065 0.51227-2.1347 0 0-1.7469-3.5235-2.4699-5.3496-0.79949-2.0193-1.4731-4.0903-2.0585-6.1818-0.23863-0.85269-0.51874-1.7073-0.59098-2.5898-0.13062-1.5951-0.03314-3.2253 0.2925-4.7923 0.36695-1.7659 1.0324-3.477 1.8493-5.085 1.3348-2.6273 3.2623-4.9089 4.9283-7.3397 1.0952-1.5979 3.331-4.7622 3.331-4.7622s1.5334-2.1499 2.298-3.2263c1.8893-2.6599 3.2325-5.8043 5.6575-7.987l2.274-2.0468c1.2336-1.1103 1.4776-3.0659 2.7112-4.1762l16.093-14.485c0.15149-0.13634 0.459 0.16841 0.61055 0.0321l0.64002-0.57547v0l-0.5779-0.64206 0.95261-0.85741-2.2975-2.5526c-0.1335-0.14833-0.11688-0.4643 0.03144-0.59781l3.8581-3.4724-4.0364-4.4846-3.8434 3.4592c-0.15491 0.13943-0.48494 0.12204-0.62437-0.0329l-2.0074-2.2303c-0.13413-0.14902-0.11743-0.46652 0.03155-0.60063l3.8446-3.4604-4.0305-4.4781-3.8292 3.4465c-0.15619 0.14059-0.48894 0.12308-0.62949-0.0331l-1.4326-1.5916c-0.13278-0.14751-0.11624-0.4618 0.03127-0.59457l0.33663-0.30297z" fill="none" stroke="#000000" stroke-linecap="square" stroke-width=".34427"/>
 <path d="m98.313 163.16c-0.1166 0.12687 0.24446 0.38836 0.11635 0.50365l-4.2509 3.826c-1.4911 1.3421-3.6881 1.6105-5.6176 2.1593-2.115 0.60157-6.4815 1.228-6.4815 1.228l0.47193-8.9675c0.0069-0.1281 0.09139-0.25072 0.18673-0.33655l9.7496-8.7751c0.60313-0.54285 1.8882-0.47526 2.431 0.12788l6.3337 7.037z" fill="none" stroke="#000000" stroke-linecap="square" stroke-width=".34427"/>
</svg>
