<?xml version="1.0" encoding="UTF-8"?>
<svg id="svg98" cursor="default" version="1.1" viewBox="0 0 256 256" xmlns="http://www.w3.org/2000/svg" xmlns:cc="http://creativecommons.org/ns#" xmlns:dc="http://purl.org/dc/elements/1.1/" xmlns:rdf="http://www.w3.org/1999/02/22-rdf-syntax-ns#" xmlns:xlink="http://www.w3.org/1999/xlink">
 <metadata id="metadata104">
  <rdf:RDF>
   <cc:Work rdf:about="">
    <dc:format>image/svg+xml</dc:format>
    <dc:type rdf:resource="http://purl.org/dc/dcmitype/StillImage"/>
    <dc:title/>
   </cc:Work>
  </rdf:RDF>
 </metadata>
 <defs id="defs102">
  <linearGradient id="linearGradient1758" x1="723.98" x2="740.16" y1="2810.8" y2="2821.9" gradientTransform="matrix(.68317 -.20997 .20997 .68317 -1085.1 -1597)" gradientUnits="userSpaceOnUse" xlink:href="#innoGrad1"/>
  <linearGradient id="innoGrad1">
   <stop id="stop1326" stop-color="#000000" offset="0"/>
   <stop id="stop1328" stop-color="#000000" stop-opacity="0" offset="1"/>
  </linearGradient>
  <linearGradient id="linearGradient1756" x1="717.18" x2="733.17" y1="2821" y2="2833" gradientTransform="matrix(.68317 -.20997 .20997 .68317 -1085.1 -1597)" gradientUnits="userSpaceOnUse" xlink:href="#innoGrad1"/>
  <linearGradient id="linearGradient1754" x1="711.07" x2="728.15" y1="2834.2" y2="2843.4" gradientTransform="matrix(.68317 -.20997 .20997 .68317 -1085.1 -1597)" gradientUnits="userSpaceOnUse" xlink:href="#innoGrad1"/>
  <linearGradient id="linearGradient1752" x1="704.1" x2="721.34" y1="2850.8" y2="2858.1" gradientTransform="matrix(.68317 -.20997 .20997 .68317 -1085.1 -1597)" gradientUnits="userSpaceOnUse" xlink:href="#innoGrad1"/>
  <linearGradient id="linearGradient1750" x1="697.01" x2="716.42" y1="2874.2" y2="2874.7" gradientTransform="matrix(.68317 -.20997 .20997 .68317 -1085.1 -1597)" gradientUnits="userSpaceOnUse" xlink:href="#innoGrad1"/>
  <radialGradient id="radialGradient1702" cx="746.17" cy="2778.5" r="20.667" gradientTransform="matrix(.68612 -.024972 .062768 1.7246 -678.26 -4628.6)" gradientUnits="userSpaceOnUse" xlink:href="#innoGrad1"/>
  <linearGradient id="linearGradient1715" x1="720.16" x2="743.89" y1="2973.8" y2="2918.5" gradientTransform="matrix(.68317 -.20997 .20997 .68317 -1085.1 -1597)" gradientUnits="userSpaceOnUse" xlink:href="#innoGrad1"/>
  <radialGradient id="radialGradient1674" cx="835.53" cy="2878.6" r="62.921" gradientTransform="matrix(.68317 -.20997 .25007 .81365 -1199.4 -1969.1)" gradientUnits="userSpaceOnUse" xlink:href="#innoGrad1"/>
  <linearGradient id="linearGradient1520-9" x1="1008.9" x2="1008.9" y1="2796.6" y2="2820.3" gradientTransform="matrix(.68317 -.20997 .20997 .68317 -1167.1 -1633.2)" gradientUnits="userSpaceOnUse" xlink:href="#innoGrad1"/>
  <linearGradient id="linearGradient1528-6" x1="417.92" x2="446.32" y1="2680" y2="2761.2" gradientTransform="matrix(.68317 -.20997 .20997 .68317 -768.67 -1663.2)" gradientUnits="userSpaceOnUse" xlink:href="#innoGrad1"/>
  <linearGradient id="linearGradient1530-4" x1="498.42" x2="498.42" y1="2746" y2="2704.9" gradientTransform="matrix(.68317 -.20997 .20997 .68317 -768.67 -1663.2)" gradientUnits="userSpaceOnUse" xlink:href="#innoGrad1"/>
  <linearGradient id="linearGradient1532-3" x1="491.93" x2="491.93" y1="2736.6" y2="2693.1" gradientTransform="matrix(.68317 -.20997 .20997 .68317 -768.67 -1663.2)" gradientUnits="userSpaceOnUse" xlink:href="#innoGrad1"/>
  <linearGradient id="linearGradient1331" x1="915.06" x2="903.24" y1="2837.9" y2="2793.8" gradientTransform="matrix(.68317 -.20997 .20997 .68317 -1085.1 -1597)" gradientUnits="userSpaceOnUse">
   <stop id="stop1324" stop-color="#ffe680" offset="0"/>
   <stop id="stop1327" stop-color="#ffe680" stop-opacity="0" offset="1"/>
  </linearGradient>
  <linearGradient id="linearGradient1438-7" x1="588.43" x2="588.43" y1="2625" y2="2701.7" gradientTransform="matrix(.68317 -.20997 .20997 .68317 -859.4 -1636.1)" gradientUnits="userSpaceOnUse" xlink:href="#innoGrad2"/>
  <linearGradient id="innoGrad2">
   <stop id="stop1372" stop-color="#ffb380" offset="0"/>
   <stop id="stop1374" stop-color="#ffb380" stop-opacity="0" offset="1"/>
  </linearGradient>
  <linearGradient id="linearGradient1430-9" x1="586.36" x2="586.36" y1="2639.4" y2="2687.9" gradientTransform="matrix(.68317 -.20997 .20997 .68317 -859.4 -1636.1)" gradientUnits="userSpaceOnUse" xlink:href="#innoGrad2"/>
  <linearGradient id="linearGradient1378" x1="1015.8" x2="1015.8" y1="2682" y2="2717.9" gradientTransform="matrix(.68317 -.20997 .20997 .68317 -1085.1 -1597)" gradientUnits="userSpaceOnUse" xlink:href="#innoGrad2"/>
  <linearGradient id="linearGradient1332" x1="1041.2" x2="1041.2" y1="2820.3" y2="2729.5" gradientTransform="matrix(.68317 -.20997 .20997 .68317 -1085.1 -1597)" gradientUnits="userSpaceOnUse" xlink:href="#innoGrad1"/>
 </defs>
 <g fill="#ff7f2a" stroke="#000000" stroke-linecap="square" stroke-width=".4">
  <path id="path1387-4" d="m114.21 136.77c-1.1204-0.85926-2.1785-1.8475-2.9811-3.0092-0.71695-1.0379-0.96184-2.3505-1.572-3.4423-0.63721-1.1402-1.8137-3.2565-2.6982-4.2178-1.8307-1.9894-5.0462-4.7111-5.0462-4.7111l15.484-8.3105s-1.1898 3.7344-1.6307 5.6417c-0.39871 1.7258-0.79223 3.4675-0.91469 5.2346-0.0792 1.1386-0.0373 2.2913 0.11712 3.4221 0.13344 0.97542 0.37475 1.9397 0.69535 2.8706 0.38125 1.1071 0.83327 2.2042 1.4506 3.1992 0.67964 1.0955 1.4314 2.2007 2.4465 2.9954 0.7863 0.61557 1.7649 0.95252 2.7074 1.2828 1.6121 0.56499 3.2827 1.0738 4.9878 1.1767 1.583 0.0961 3.0934-0.46846 4.7283-0.52799 0.16448-6e-3 0.41172 0.10518 0.4133 0.26956 3e-3 0.28635-0.4542 0.35553-0.71078 0.48277-1.4531 0.72061-3.0051 1.3326-4.6125 1.5498-1.4459 0.1954-2.9321 2e-3 -4.3704-0.24286-1.4394-0.2451-2.8626-0.64977-4.2075-1.2182-1.515-0.64076-2.9811-1.4442-4.2863-2.4452z"/>
  <path id="path922-1" d="m160.76 77.073-3.3777-10.99-23.281 7.1554 3.3812 10.999z"/>
  <path id="path980-7" d="m47.936 87.991c-0.36161-1.1335-0.82111-2.2746-1.5491-3.2157-0.69247-0.89512-1.6274-1.6004-2.5905-2.1947-1.2769-0.78797-2.4837-1.359-3.9059-1.8371-1.4184-0.47679-3.2043-1.0775-4.6811-1.3185-1.2007-0.19606-2.384-0.34204-3.5469 0.015292l-4.3339 1.332-0.47242-1.5371 5.3159-1.6338c1.9537-0.60045 3.7836-0.14576 5.8598 0.11504 1.3816 0.17352 2.3567 0.41982 3.7252 0.67761 1.3977 0.26331 2.997 0.60816 4.3791 0.94396 0.82396 0.19954 2.1194 0.71816 2.9257 0.45611 0.73841-0.24044 1.1472-1.2117 1.6394-1.8123 0.74611-0.91048 1.2202-1.9069 2.0568-2.7351 0.63287-0.62652 2.1155-1.6316 2.1155-1.6316l1.7904 8.5624-2.3337 6.0914-4.6233 7.9166-13.781 13.395-2.092 0.036s0.51399-4.5081 1.3813-6.7574c0.52413-1.3592 1.2825-2.9415 2.2085-4.0661 0.92698-1.1258 2.0341-2.1057 3.1932-2.9908 1.3208-1.0088 2.8164-1.766 4.2461-2.6135 0.87942-0.52127 1.9353-0.97582 2.5897-1.7613 0.44987-0.53993 0.71209-1.0481 0.77112-1.7484 0.04793-0.56854-0.11393-1.1439-0.28733-1.6875z"/>
 </g>
 <g>
  <g stroke="#000000" stroke-width=".4">
   <path id="path934-4" d="m154.34 97.716-3.5949-11.697-63.958 19.377-12.583-40.941-20.004 6.148c-0.52597 0.16165-0.90622 0.75428-1.0292 1.2906-0.32457 1.4154-0.04876 3.1921-0.07049 4.7883-0.02323 1.7044 0.1554 3.423-0.06403 5.1134-0.28896 2.2259-0.79655 4.4506-1.6376 6.5317-0.67108 1.6605-1.6255 3.2094-2.6814 4.6561-1.4482 1.9843-3.1679 3.7707-4.9608 5.4501-2.5225 2.3628-5.304 4.4422-8.1074 6.4639-3.7806 2.7264-7.7379 5.2053-11.724 7.622-2.6197 1.5885-5.339 3.0068-8.0049 4.5165-1.1945 0.67647-2.3719 1.2775-3.5804 2.035-0.48304 0.30276-1.0777 0.90306-0.91018 1.448l1.3386 4.3554 4.7433 9.6275 0.86013 8.6044 0.32906 9.0414-5.3049 12.629-2.5834 6.4952-1.8576 6.2721-1.1781 7.4185-2.2068 9.6974 0.12949 3.558-0.67215 0.72294 0.24735 6.796-0.81344 3.5472 0.31929 8.773 7.1982 23.421 6.1497 5.7179 7.9027 1.8123 17.215-0.62659 26.818-8.2423 4.26-2.6707-2.3849-7.7598-6.2513-5.8122-3.2153-10.462 6.6705-29.088-4.4278-14.407 3.7379-7.0551 5.6077-6.0313 8.485-2.6078 5.2397 3.1931 2.438-0.74931s4.6663 2.5454 7.1395 3.4967c1.4262 0.54866 2.9099 0.95619 4.4069 1.2626 1.5996 0.32744 3.2279 0.64118 4.8604 0.60923 3.5602-0.0699 7.1252-0.73209 10.539-1.7438 3.7647-1.1159 7.3344-2.8606 10.793-4.7192 2.8898-1.5529 5.6466-3.367 8.2646-5.344 1.8882-1.4258 3.7012-2.9699 5.3382-4.6782 2.2401-2.3378 4.3638-4.8287 6.0847-7.5713 1.1595-1.8479 2.0765-3.6956 2.8655-5.7294 0.68262-1.7596 1.391-3.7203 1.598-5.5962 0.30459-2.7611 0.0595-5.6202-0.63775-8.3091-0.50893-1.963-1.5798-3.742-2.5401-5.528-0.80217-1.4919-1.8992-2.7848-2.3829-4.4081-0.34457-1.1565-0.45043-2.3225-0.38311-3.5273 0.27196-4.8679 0.66309-4.885 0.66309-4.885zm-38.672 59.227c-2.7853 0.77332-5.6275 1.5325-8.5163 1.6361-1.5456 0.0554-3.1426-0.0506-4.6075-0.54662-1.6773-0.56783-3.1704-1.6236-4.5707-2.7076-1.4012-1.0846-2.6974-2.3374-3.769-3.7484-1.1516-1.5164-2.1455-3.1924-2.7932-4.983-0.66284-1.8323-0.95376-3.8024-1.0655-5.7476-0.12626-2.1975-0.03374-4.441 0.45206-6.5879 0.39931-1.7669 0.99289-3.5469 1.9984-5.0537 0.85383-1.2795 2.013-2.3893 3.3115-3.2142 4.1811-2.6559 9.4176-3.146 13.9-5.2534 1.919-0.90221 3.7322-2.0205 5.5282-3.1478 2.6445-1.6597 5.0457-3.6916 7.7129-5.3146 1.3346-0.81214 2.6558-1.704 4.1355-2.2056 1.8926-0.64148 3.9171-1.017 5.9151-0.9768 1.7322 0.0348 3.5006 0.36296 5.0901 1.0526 1.8989 0.82378 3.6013 2.1257 5.0729 3.5814 1.185 1.1722 2.0783 2.6197 2.9282 4.0536 0.72902 1.23 1.4858 2.4885 1.8444 3.8726 0.38413 1.4824 0.50218 3.0686 0.28752 4.5848-0.29992 2.117-1.2408 4.1098-2.1629 6.0389-0.82343 1.7225-1.8954 3.3205-2.9836 4.8892-1.0854 1.5646-2.2412 3.0889-3.5253 4.4949-2.1825 2.3897-4.516 4.6657-7.0664 6.658-1.657 1.2944-3.4916 2.3488-5.3083 3.4073-1.8067 1.0526-3.6403 2.0722-5.5512 2.9211-2.0304 0.9021-4.1162 1.7026-6.2571 2.2969z" fill="#ffdd55" fill-rule="evenodd" stroke-linecap="square"/>
   <rect id="rect1288" transform="rotate(-17.084)" x="48.673" y="100.44" width="8.7177" height="5.1801" fill="#ff7f2a" fill-rule="evenodd"/>
   <path id="path922-1-3" d="m160.76 77.073-3.3777-10.99-23.281 7.1554 3.3812 10.999z" fill="#000000" opacity=".1" stroke-linecap="square"/>
   <path id="path817-9" d="m136.13 84.654 1.3568-0.41701s-1.481-10.019 8.4225-13.063c10.528-3.2356 14.855 5.8979 14.855 5.8979l90.101-27.692 1.8821-11.079-8.4012-27.335-7.1057-5.9769-176.29 54.181c-0.48885 0.15025-1.0066-0.49321-1.4955-0.34295l-10.287 3.1618c-0.52486 0.16131-1.2777 0.68645-1.1163 1.2113l2.0595 6.701c0.28692 0.93355 1.9222 0.94179 2.8557 0.65488l72.025-22.136z" fill="#ff7f2a" stroke-linecap="square"/>
  </g>
  <path id="path823-4" d="m252.74 38.302-93.766 28.818 2.9491 9.5956 88.935-27.334z" fill="url(#linearGradient1332)"/>
  <path id="path825-0" d="m234.68 5.777s-1.91-3.0523-3.4991-3.4401c-0.86061-0.21005-1.752 0.37688-2.5405 0.78081-3.7286 1.9103-10.015 7.5935-10.015 7.5935z" fill="#ff9955" stroke="#000000" stroke-linecap="square" stroke-width=".4"/>
  <path id="rect827-2" d="m237.57 9.6733-86.76 26.665 1.2656 4.1181 86.76-26.665z" fill="#000000" fill-rule="evenodd" opacity=".2" stroke="#000000" stroke-width=".4"/>
  <path id="path848-6" d="m238.83 13.791 5.83-1.7918 2.1162 6.8856-119.56 36.744-2.1315-6.8806 26.981-8.2926z" fill="url(#linearGradient1378)"/>
  <path id="rect850-9" d="m124.99 48.421-50.214 15.433 12.282 39.964 50.214-15.433z" fill="#ff7f2a" fill-rule="evenodd" stroke="#000000" stroke-width=".4"/>
 </g>
 <path id="rect850-2-6" d="m126.28 52.605-36.806 11.312c-2.5653 0.78843-7.6288 3.4151-6.8529 5.9842 0.77993 2.5822 6.4785 1.9796 9.0569 1.1871l36.806-11.312z" fill="none" stroke="#000000" stroke-width=".4"/>
 <path id="rect850-5-3" d="m132.01 71.264-38.166 11.73c-2.352 0.72289-5.9342 4.1341-5.2109 6.486 0.72312 2.3511 5.6018 3.1586 7.9529 2.436l38.166-11.73z" fill="none" stroke="#000000" stroke-width=".4"/>
 <g fill="#000000" fill-rule="evenodd" stroke="#000000" stroke-width=".4">
  <path id="rect898-5" d="m242.86 26.774-110.01 33.812 0.6299 2.0495 110.01-33.812z" opacity=".2"/>
  <path id="rect898-1-6" d="m244.12 30.873-110.01 33.812 0.62992 2.0495 110.01-33.812z" opacity=".2"/>
  <path id="rect898-0-3" d="m245.38 34.972-110.01 33.812 0.6299 2.0495 110.01-33.812z" opacity=".2"/>
 </g>
 <g stroke="#000000" stroke-width=".4">
  <g stroke-linecap="square">
   <path id="path924-2" d="m130.62 91.925 7.4354-2.2852s0.10711-0.03293 0.24745 0.08458c0.97735 0.83456 5.8048 5.1276 6.3101 6.7717l0.86061 2.8001-61.478 18.895-14.9-48.481 6.1459-1.8889 11.55 37.574z" fill="#ff7f2a"/>
   <path id="path928-6" d="m74.151 64.266-20.004 6.1479" fill="#ff2a2a"/>
   <path id="path930-9" d="m52.57 60.943-3.4039 1.0465-1.0474-3.4079 3.404-1.0462z" fill="#ff9955"/>
   <path id="path932-3" d="m83.996 118.19-8.5613 2.6312c-3.7628 1.1565-6.3094 1.1718-8.7906 1.2799-2.2768 0.0992-4.5716 0.0827-6.8343-0.18931-1.5752-0.1893-3.1856-0.39769-4.6533-0.99987-0.97718-0.40096-1.8415-1.0504-2.6728-1.7021-1.2485-0.9789-2.4674-2.0357-3.4407-3.2885-1.5216-1.9587-2.9229-4.1124-3.6516-6.4833l-1.6371-5.3266c-0.07578-0.24658 0.14375-0.5468 0.3623-0.6838 1.5551-0.97497 3.1782-1.5858 4.4944-2.7482 1.1763-1.0389 2.0758-2.3683 2.9339-3.6823 0.99889-1.5294 1.8355-3.1694 2.5517-4.8499 2.0004-4.6941 3.4018-9.6269 4.835-14.524 0.41541-1.4193 0.87832-3.2967 1.2461-4.9006 0.03808-0.16611 0.19922-0.31052 0.36197-0.36099l8.5559-2.6527z" fill="#ff7f2a"/>
   <path id="path937-1" d="m161.93 76.716-13.634-44.36" fill="#ff2a2a"/>
  </g>
  <path id="path954-4" d="m136.84 104.34a2.1478 2.1478 0 0 0 2.6841 1.4221 2.1478 2.1478 0 0 0 1.422-2.684 2.1478 2.1478 0 0 0-2.6841-1.4221 2.1478 2.1478 0 0 0-1.4221 2.6841z" fill="#ff7f2a" fill-rule="evenodd"/>
 </g>
 <g fill="#ffd42a" stroke="#000000" stroke-linecap="square" stroke-width=".4">
  <path id="path982-6" d="m87.791 157.44-11.133 3.4218c-1.2484 0.38367-2.3557 1.26-3.2077 2.2499-0.77731 0.90307-1.2737 2.0519-1.5941 3.1995-0.5184 1.8568-0.41259 3.8369-0.47558 5.7636-0.09671 2.9574 0.0057 5.9203 0.15042 8.8757 0.0812 1.6585 0.4037 3.3047 0.40249 4.9651-0.0014 2.0412-0.22722 4.0804-0.50355 6.1028-0.26778 1.9599-0.72901 3.8886-1.1166 5.8285-0.41911 2.0979-0.85182 4.1932-1.3071 6.2836-0.58419 2.6822-1.6922 5.288-1.8279 8.0298-0.08452 1.7081 0.13406 3.4567 0.6393 5.0905 0.53062 1.7167 1.5769 3.2318 2.4647 4.794 1.1307 1.9894 2.7966 3.6932 3.6394 5.8207 0.53018 1.3383 1.173 2.8358 0.83929 4.2361-0.25616 1.0739-1.1043 2.0231-2.0398 2.6096-2.6237 1.6449-6.5254 2.4142-9.8521 3.4245-5.6266 1.7091-11.294 3.3493-17.07 4.4533-3.5501 0.67843-7.1478 1.3774-10.762 1.3248-2.7121-0.0399-5.5205-0.23383-8.0439-1.2287-1.854-0.73096-3.5954-1.899-4.936-3.3735-1.867-2.0534-3.032-4.6968-4.0245-7.2885-1.0569-2.7601-1.5921-5.7114-1.9944-8.6393-0.49422-3.5976-0.64373-7.2537-0.50278-10.882 0.13172-3.3906 0.6738-6.7588 1.2572-10.101 0.54656-3.1313 1.2702-6.2332 2.0976-9.3023 0.7055-2.6167 1.6033-5.178 2.4409-7.7555 1.0727-3.3012 2.0607-6.6347 3.31-9.8732 1.0103-2.6189 2.2179-5.1578 3.379-7.7134 1.5661-3.4471 3.4056-6.772 4.8382-10.277 0.86051-2.1053 1.517-4.2883 2.25-6.4412 0.43312-1.2722 0.93206-2.5258 1.2692-3.8266 0.44183-1.7051 0.79347-3.441 0.98163-5.1923 0.19004-1.7678 0.20872-3.6007 0.1457-5.3318-0.03852-1.0575 0.59468-2.4197 1.6032-2.7397 0.93822-0.29843 1.9677 0.55197 2.6888 1.2223 0.72116 0.67052 1.3577 1.3625 2.0708 2.0071 0.8363 0.75595 1.6708 1.5213 2.5863 2.1791 0.82366 0.59185 1.6584 1.204 2.6004 1.58 1.2785 0.51016 2.662 0.78814 4.0358 0.87443 1.9126 0.12035 3.8239-0.27822 5.7268-0.50441 1.9666-0.23377 3.9145-0.60475 5.8756-0.8806 2.8762-0.40438 5.7355-1.2043 8.6391-1.1351 1.4688 0.0351 3.0076 0.15777 4.3377 0.78165 1.4753 0.69203 2.6192 1.9649 3.7425 3.1455 1.0975 1.1536 2.0111 2.4757 2.8877 3.8048 0.96195 1.4586 2.0162 2.9068 2.5902 4.5571 0.64925 1.8669 0.90094 5.8609 0.90094 5.8609z"/>
  <path id="path984-9" d="m74.33 237.47c-0.02092-0.46461-0.4099-1.3337-0.4099-1.3337s-18.335 5.9807-27.719 8.1454c-2.8974 0.66835-5.8288 1.2871-8.7955 1.4882-2.7013 0.18309-5.4323 0.0783-8.1184-0.26206-1.8194-0.23071-3.7209-0.39647-5.3692-1.2005-1.236-0.60281-2.2339-1.6282-3.1881-2.6185-1.7063-1.7707-3.8522-3.4895-4.4679-5.8702l-3.4703-13.42c-0.08274-0.32008-0.47527-0.69509-0.79129-0.59796l-5.5081 1.6928c-0.73199 0.225-1.6901 0.82051-1.6623 1.5857 0.10242 2.8141 0.78262 5.4912 1.5311 8.1747 0.65519 2.3491 1.3437 4.7164 2.5233 6.8417 1.3675 2.4639 3.0679 4.8169 5.1835 6.6784 1.5746 1.3855 3.4791 2.4017 5.4211 3.194 2.0098 0.81985 4.1741 1.2459 6.3215 1.562 2.2881 0.33672 4.618 0.42175 6.9295 0.34709 3.996-0.12915 7.9809-0.66232 11.915-1.3723 4.9899-0.90026 10.48-2.3627 14.767-3.6505 4.512-1.3554 8.0256-2.08 11.575-4.3051 1.2744-0.79894 2.3031-2.0466 2.9765-3.3916 0.25739-0.51404 0.38222-1.1131 0.35636-1.6874z"/>
  <path id="path986-8" d="m12.834 212.4c-0.0053-0.34775-0.58946-0.59061-0.92187-0.48845l-7.6918 2.364c-0.18855 0.0579-0.43504 0.20986-0.42955 0.40704l0.16845 6.0359c0.00593 0.21097 0.38421 0.30199 0.58597 0.23993l7.9791-2.4523c0.21695-0.0665 0.39909-0.32733 0.39557-0.55429z"/>
  <path id="path986-9-7" d="m13.494 201.99c0.02702-0.34671-0.58946-0.59062-0.92186-0.48844l-8.045 2.4725c-0.18855 0.0579-0.40227 0.21169-0.42955 0.40702l-0.8883 6.3607c-0.029217 0.209 0.38422 0.30197 0.58598 0.23993l8.6807-2.6679c0.25725-0.079 0.5488-0.30375 0.5697-0.57211z"/>
  <path id="path986-9-5-3" d="m15.856 190.73c0.0777-0.33897-0.58944-0.59053-0.92184-0.48836l-9.6888 2.9778c-0.18855 0.0579-0.40682 0.21108-0.42955 0.407l-0.81131 6.9912c-0.024403 0.2096 0.38421 0.30201 0.58597 0.23997l9.1504-2.8123c0.25725-0.0789 0.50958-0.30981 0.56971-0.57214z"/>
  <path id="path986-9-5-5-4" d="m18.915 179.34c0.09352-0.33493-0.58946-0.59062-0.92187-0.48843l-10.927 3.3583c-0.18855 0.0579-0.37969 0.21624-0.42955 0.40705l-1.7357 6.6444c-0.053375 0.2042 0.38421 0.30196 0.58597 0.23993l11.136-3.4225c0.25725-0.079 0.49732-0.31286 0.56973-0.57205z"/>
  <path id="path986-9-5-5-5-9" d="m24.451 166.45c0.16201-0.30769-0.58944-0.59056-0.92184-0.48841l-12.648 3.8873c-0.48488 0.14905-0.86779 0.62226-1.0603 1.0916l-2.9811 7.2662c-0.15932 0.38828 0.51753 0.98979 0.91745 0.8624l11.753-3.7445c0.25724-0.0789 0.44434-0.33393 0.5697-0.5721z"/>
  <path id="path1048-1" d="m29.821 129.53c-0.62179-1.8913-1.5707-3.6982-2.7525-5.3003-1.4765-2.0016-3.1414-4.0254-5.3116-5.2406-0.64282-0.35999-1.4121-0.59844-2.1456-0.5301-0.48632 0.0451-0.91755 0.35154-1.3332 0.60795-0.57886 0.35757-1.0191 0.90944-1.5888 1.2814-1.1828 0.77218-2.5014 1.3136-3.7627 1.9495-0.83771 0.42241-2.527 1.2393-2.527 1.2393-0.31005 0.15215-0.64214 0.50235-0.59943 0.84502 0 0 0.91206 0.63879 1.2537 1.0687 0.87881 1.1059 1.3858 2.4675 1.9495 3.7626 0.56357 1.295 1.0276 2.6348 1.4246 3.9901 0.49846 1.7019 0.86298 3.442 1.1966 5.1837 0.2443 1.2752 0.47737 2.5568 0.58863 3.8505 0.13134 1.5273 0.21535 3.0701 0.0914 4.598-0.14012 1.7274-0.54857 3.4251-0.93982 5.1133-0.46198 1.9936-1.0069 3.9711-1.6593 5.9108-0.57086 1.6971-1.3375 3.3222-1.9688 4.9978-0.39371 1.045-1.134 3.1524-1.134 3.1524-0.07675 0.21346 0.45973 0.13911 0.67652 0.0725l14.517-4.4618c0.3395-0.10428 0.50892-0.50815 0.68337-0.81756 0.39789-0.7056 0.82812-1.6232 1.0878-2.3905 0.32849-0.9706 0.64442-1.953 0.88765-2.8898 0.38717-1.4911 0.67346-2.8867 1.0359-4.384 0.3072-1.2694 0.56523-2.5512 0.78286-3.8389 0.31419-1.859 0.67331-3.7221 0.75387-5.6058 0.09252-2.1649 0.07877-4.3899-0.1424-6.5454-0.19536-1.9038-0.46686-3.8008-1.0646-5.6188z"/>
 </g>
 <g fill="none" stroke="#000000" stroke-width=".4">
  <path id="rect898-5-5" d="m242.86 26.774-110.01 33.812 0.6299 2.0495 110.01-33.812z"/>
  <path id="rect898-1-6-2" d="m244.12 30.873-110.01 33.812 0.62992 2.0495 110.01-33.812z"/>
  <path id="rect898-0-3-5" d="m245.38 34.972-110.01 33.812 0.6299 2.0495 110.01-33.812z"/>
  <path id="rect827-2-2" d="m237.57 9.6733-86.76 26.665 1.2656 4.1181 86.76-26.665z"/>
 </g>
 <g fill-rule="evenodd" stroke="#000000" stroke-width=".4">
  <path id="path819-4" d="m138.78 86.178a11.433 11.433 0 0 0 14.287 7.5695 11.433 11.433 0 0 0 7.5695-14.287 11.433 11.433 0 0 0-14.287-7.5694 11.433 11.433 0 0 0-7.5695 14.287z" fill="#ff7f2a"/>
  <path id="path821-5" d="m146.32 83.839a3.3619 3.3619 0 0 0 4.2012 2.2258 3.3619 3.3619 0 0 0 2.2259-4.2011 3.3619 3.3619 0 0 0-4.2012-2.2259 3.3619 3.3619 0 0 0-2.2259 4.2012z" fill="#ff7f2a"/>
  <path id="path821-5-7" d="m146.32 83.839a3.3619 3.3619 0 0 0 4.2011 2.2258 3.3619 3.3619 0 0 0 2.2259-4.2012 3.3619 3.3619 0 0 0-4.2011-2.2259 3.3619 3.3619 0 0 0-2.2259 4.2012z" fill="#000000" opacity=".1"/>
 </g>
 <path id="path817-9-9" d="m136.13 84.654 1.3568-0.41702s-1.4809-10.019 8.4225-13.063c10.528-3.2356 14.855 5.8979 14.855 5.8979l90.101-27.692 1.882-11.079-8.4012-27.335-7.1056-5.977-176.29 54.181c-0.48881 0.15023-1.0066-0.49322-1.4955-0.34297l-10.287 3.1618c-0.52488 0.16132-1.2777 0.68647-1.1164 1.2113l2.0595 6.701c0.28692 0.93356 1.9222 0.94179 2.8558 0.65488l72.025-22.136z" fill="none" stroke="#000000" stroke-linecap="square" stroke-width=".4"/>
 <g>
  <path id="rect850-9-1-6" d="m124.99 48.421-50.214 15.433 12.282 39.964 50.214-15.433z" fill="url(#linearGradient1430-9)" fill-rule="evenodd" stroke="#000000" stroke-width=".4"/>
  <path id="path924-2-9-9" d="m130.62 91.925 7.4354-2.2852s0.1071-0.03295 0.24744 0.08458c0.97735 0.83456 5.8048 5.1276 6.3101 6.7717l0.86061 2.8001-61.478 18.895-14.9-48.481 6.1459-1.8889 11.55 37.574z" fill="url(#linearGradient1438-7)" stroke="#000000" stroke-linecap="square" stroke-width=".4"/>
  <path id="path961-1-5-8-6" d="m115.67 156.94c-2.7853 0.77332-5.6275 1.5325-8.5163 1.6361-1.5456 0.0554-3.1426-0.0506-4.6075-0.54662-1.6773-0.56783-3.1704-1.6236-4.5707-2.7076-1.4012-1.0846-2.6974-2.3374-3.769-3.7484-1.1516-1.5164-2.1455-3.1924-2.7932-4.983-0.66284-1.8323-0.95376-3.8024-1.0655-5.7476-0.12626-2.1975-0.03374-4.441 0.45206-6.5879 0.39931-1.7669 0.99289-3.5469 1.9984-5.0537 0.85383-1.2795 2.013-2.3893 3.3115-3.2142 4.1811-2.6559 9.4176-3.146 13.9-5.2534 1.919-0.90221 3.7322-2.0205 5.5282-3.1478 2.6445-1.6597 5.0457-3.6916 7.7129-5.3146 1.3346-0.81214 2.6558-1.704 4.1355-2.2056 1.8926-0.64149 3.9171-1.017 5.9151-0.9768 1.7322 0.0348 3.5006 0.36294 5.0901 1.0526 1.8989 0.82379 3.6014 2.1257 5.0729 3.5814 1.1851 1.1722 2.0783 2.6197 2.9282 4.0536 0.72903 1.23 1.4858 2.4885 1.8445 3.8726 0.38385 1.4824 0.5022 3.0686 0.28752 4.5848-0.29993 2.117-1.2407 4.1098-2.1629 6.0389-0.8234 1.7225-1.8953 3.3204-2.9836 4.8892-1.0854 1.5646-2.2412 3.0889-3.5253 4.4949-2.1824 2.3897-4.516 4.6657-7.0663 6.658-1.657 1.2943-3.4916 2.3488-5.3083 3.4073-1.8067 1.0526-3.6403 2.0722-5.5512 2.9211-2.0304 0.9021-4.1162 1.7026-6.2571 2.2969zm0.81177-46.052-16.002 4.9181c-1.8995 0.58379-3.3075 1.8897-4.8498 3.1428-1.6017 1.3014-2.7258 2.547-3.8377 4.2856-1.1234 1.7566-2.3785 4.0274-2.9001 6.0462-0.55849 2.1616-1.1154 4.5183-1.298 6.7434-0.1797 2.1901-0.11084 4.3048 0.20692 6.4791 0.38981 2.6674 1.3537 5.2506 2.4963 7.6921 0.82271 1.7581 1.7568 3.5285 3.101 4.9288 0.98611 1.0273 1.9397 1.7942 3.1575 2.5323 1.3243 0.80263 2.9952 1.5831 4.4674 2.0636 2.0595 0.67213 4.2674 1.0126 6.4323 0.93091 2.934-0.11085 5.7919-1.0502 8.5976-1.9155 2.2416-0.68891 4.3967-1.6421 6.5357-2.6035 2.6492-1.1907 5.3146-2.3861 7.7854-3.9128 2.9294-1.81 5.737-3.8557 8.2784-6.1792 1.8685-1.7081 3.5271-3.6476 5.069-5.6553 1.3844-1.8026 2.7161-3.6735 3.7314-5.7069 1.0478-2.0987 1.9651-4.3114 2.394-6.6177 0.40526-2.18 0.4602-4.4571 0.13682-6.6509-0.20275-1.3751-0.71515-2.6992-1.285-3.9669-0.55936-1.2437-1.2922-2.4091-2.0749-3.5258-0.91595-1.3065-1.8932-2.5902-3.0502-3.6887-0.92858-0.88155-1.9474-1.6998-3.0833-2.2907-1.3528-0.7039-2.851-1.1217-4.3421-1.4412-1.3188-0.28265-3.5512-0.55631-4.8406-0.16042z" fill="url(#linearGradient1331)" fill-rule="evenodd"/>
  <path id="rect850-9-1-7-3" d="m124.99 48.421-50.214 15.433 12.282 39.964 50.214-15.433z" fill="url(#linearGradient1532-3)" fill-rule="evenodd" stroke="#000000" stroke-width=".4"/>
  <path id="path924-2-9-4-9" d="m130.62 91.925 7.4354-2.2852s0.10711-0.03293 0.24745 0.08458c0.97735 0.83456 5.8048 5.1276 6.3101 6.7717l0.86061 2.8001-61.478 18.895-14.9-48.481 6.1459-1.8889 11.55 37.574z" fill="url(#linearGradient1530-4)" stroke="#000000" stroke-linecap="square" stroke-width=".4"/>
  <g fill-rule="evenodd">
   <path id="path961-1-5-8-1-3" d="m115.67 156.94c-2.7853 0.77332-5.6275 1.5325-8.5163 1.6361-1.5456 0.0554-3.1426-0.0506-4.6075-0.54662-1.6773-0.56783-3.1704-1.6236-4.5707-2.7076-1.4012-1.0846-2.6974-2.3374-3.769-3.7484-1.1516-1.5164-2.1455-3.1924-2.7932-4.983-0.66284-1.8323-0.95376-3.8024-1.0655-5.7476-0.12626-2.1975-0.03374-4.441 0.45206-6.5879 0.39931-1.7669 0.99289-3.5469 1.9984-5.0537 0.85383-1.2795 2.013-2.3893 3.3115-3.2142 4.1811-2.6559 9.4176-3.146 13.9-5.2534 1.919-0.90221 3.7322-2.0205 5.5282-3.1478 2.6445-1.6597 5.0457-3.6916 7.7129-5.3146 1.3346-0.81214 2.6558-1.704 4.1355-2.2056 1.8926-0.64148 3.9171-1.017 5.9151-0.9768 1.7322 0.0348 3.5006 0.36296 5.0901 1.0526 1.8989 0.82378 3.6013 2.1257 5.0729 3.5814 1.185 1.1722 2.0783 2.6197 2.9282 4.0536 0.72902 1.23 1.4858 2.4885 1.8444 3.8726 0.38413 1.4824 0.50218 3.0686 0.28752 4.5848-0.29992 2.117-1.2408 4.1098-2.1629 6.0389-0.82343 1.7225-1.8954 3.3205-2.9836 4.8892-1.0854 1.5646-2.2412 3.0889-3.5253 4.4949-2.1825 2.3897-4.516 4.6657-7.0664 6.658-1.657 1.2944-3.4916 2.3488-5.3083 3.4073-1.8067 1.0526-3.6403 2.0722-5.5512 2.9211-2.0304 0.9021-4.1162 1.7026-6.2571 2.2969zm0.81177-46.052-16.002 4.9181c-1.8995 0.58379-3.3075 1.8897-4.8498 3.1428-1.6017 1.3014-2.7258 2.547-3.8377 4.2856-1.1234 1.7566-2.3785 4.0274-2.9001 6.0462-0.55849 2.1616-1.1154 4.5183-1.298 6.7434-0.1797 2.1901-0.11084 4.3048 0.20692 6.4791 0.38981 2.6674 1.3537 5.2506 2.4963 7.6921 0.82271 1.7581 1.7568 3.5285 3.101 4.9288 0.98611 1.0273 1.9397 1.7942 3.1575 2.5323 1.3243 0.80263 2.9952 1.5831 4.4674 2.0636 2.0595 0.67213 4.2674 1.0126 6.4323 0.93091 2.934-0.11085 5.7919-1.0502 8.5976-1.9155 2.2416-0.68891 4.3967-1.6421 6.5357-2.6035 2.6492-1.1907 5.3146-2.3861 7.7854-3.9128 2.9294-1.81 5.737-3.8557 8.2785-6.1792 1.8684-1.7081 3.527-3.6476 5.069-5.6553 1.3844-1.8026 2.7161-3.6735 3.7314-5.7069 1.0479-2.0987 1.9652-4.3114 2.394-6.6177 0.40526-2.18 0.46025-4.4571 0.13692-6.6509-0.20277-1.3751-0.71517-2.6992-1.2853-3.9668-0.55932-1.2436-1.2921-2.4092-2.075-3.5258-0.9159-1.3065-1.8931-2.5902-3.0503-3.6887-0.92856-0.88153-1.9474-1.6998-3.0832-2.2907-1.3529-0.70389-2.851-1.1217-4.3422-1.4412-1.3188-0.28262-3.5513-0.5563-4.8407-0.16042z" fill="url(#linearGradient1528-6)"/>
   <g stroke="#000000" stroke-width=".4">
    <path id="rect850-5-3-6-0" d="m132.01 71.264-38.166 11.73c-2.352 0.72286-5.9342 4.1341-5.2108 6.4859 0.7231 2.3511 5.6018 3.1586 7.9529 2.436l38.166-11.73z" fill="#ff7f2a"/>
    <path id="rect850-5-3-6-1-4" d="m132.01 71.264-38.166 11.73c-2.352 0.72286-5.9342 4.1341-5.2108 6.4859 0.7231 2.3511 5.6018 3.1586 7.9529 2.436l38.166-11.73z" fill="url(#linearGradient1520-9)"/>
    <path id="path821-0-7" d="m216.83 16.843a2.6986 2.6986 0 0 0 3.3722 1.7867 2.6986 2.6986 0 0 0 1.7867-3.3723 2.6986 2.6986 0 0 0-3.3723-1.7867 2.6986 2.6986 0 0 0-1.7867 3.3722z" fill="#ff7f2a"/>
   </g>
  </g>
 </g>
 <path id="path214-1-3" d="m47.448 104.08 27.71 10.691-17.462-24.062 0.18177 29.329 16.769-24.496z" fill="#ff2a2a" fill-rule="evenodd" stroke="#000000" stroke-width=".4"/>
 <g stroke="#000000" stroke-linecap="square" stroke-width=".4">
  <path id="path1651" d="m63.699 98.984-5.9404 1.8639 0.05202 7.2341 6.5238 2.5123 3.7833-5.5196z" fill="#ff5555"/>
  <path id="path982-6-6" d="m87.791 157.44-11.133 3.4218c-1.2484 0.38367-2.3557 1.26-3.2077 2.2499-0.77731 0.90307-1.2737 2.0519-1.5941 3.1995-0.5184 1.8568-0.4126 3.8369-0.47558 5.7636-0.09671 2.9575 0.0057 5.9203 0.15042 8.8757 0.0812 1.6585 0.4037 3.3047 0.40249 4.9651-0.0014 2.0412-0.22722 4.0804-0.50355 6.1028-0.26778 1.9599-0.72902 3.8886-1.1166 5.8285-0.41911 2.0979-0.85182 4.1932-1.3071 6.2836-0.58419 2.6822-1.6922 5.288-1.8279 8.0298-0.08452 1.7081 0.13406 3.4567 0.6393 5.0905 0.53062 1.7167 1.5769 3.2318 2.4647 4.794 1.1307 1.9893 2.7966 3.6932 3.6394 5.8207 0.53018 1.3383 1.173 2.8358 0.8393 4.236-0.25616 1.0739-1.1043 2.0231-2.0398 2.6096-2.6237 1.6448-6.5254 2.4142-9.8521 3.4245-5.6266 1.7091-11.294 3.3494-17.07 4.4533-3.5501 0.67844-7.1478 1.3774-10.762 1.3249-2.7121-0.0399-5.5205-0.23383-8.0439-1.2287-1.854-0.73093-3.5954-1.899-4.936-3.3735-1.867-2.0534-3.032-4.6968-4.0244-7.2885-1.0569-2.7601-1.5921-5.7114-1.9944-8.6393-0.49422-3.5975-0.64373-7.2537-0.50278-10.882 0.13172-3.3906 0.67379-6.7588 1.2572-10.101 0.54655-3.1313 1.2702-6.2332 2.0976-9.3023 0.7055-2.6167 1.6033-5.178 2.4409-7.7555 1.0727-3.3012 2.0607-6.6347 3.31-9.8732 1.0103-2.6189 2.2179-5.1578 3.379-7.7134 1.5661-3.4471 3.4056-6.772 4.8382-10.277 0.86051-2.1052 1.517-4.2883 2.25-6.4412 0.43313-1.2722 0.93206-2.5258 1.2692-3.8267 0.44183-1.705 0.79348-3.4409 0.98163-5.1922 0.19004-1.7678 0.20872-3.6007 0.1457-5.3318-0.03852-1.0575 0.59468-2.4197 1.6032-2.7397 0.93822-0.29843 1.9677 0.55197 2.6888 1.2223 0.72116 0.67051 1.3577 1.3625 2.0708 2.0071 0.83631 0.75593 1.6708 1.5213 2.5863 2.1791 0.82366 0.59184 1.6584 1.204 2.6004 1.58 1.2785 0.51016 2.662 0.78815 4.0358 0.87444 1.9126 0.12025 3.8239-0.27822 5.7268-0.50442 1.9666-0.23376 3.9145-0.60475 5.8756-0.88059 2.8762-0.4044 5.7355-1.2043 8.6391-1.1351 1.4688 0.0351 3.0076 0.15777 4.3377 0.78165 1.4753 0.69203 2.6192 1.9649 3.7424 3.1455 1.0975 1.1536 2.0111 2.4757 2.8877 3.8048 0.96195 1.4586 2.0162 2.9068 2.5902 4.5571 0.64925 1.8669 0.90094 5.8609 0.90094 5.8609z" fill="url(#radialGradient1674)"/>
  <path id="path984-9-7" d="m74.33 237.47c-0.02092-0.46461-0.4099-1.3337-0.4099-1.3337s-18.335 5.9807-27.719 8.1454c-2.8974 0.66835-5.8288 1.2871-8.7955 1.4882-2.7013 0.18309-5.4323 0.0783-8.1184-0.26206-1.8194-0.23071-3.7209-0.39647-5.3692-1.2005-1.236-0.60281-2.2339-1.6282-3.1881-2.6185-1.7063-1.7707-3.8522-3.4895-4.4679-5.8702l-3.4703-13.42c-0.08274-0.32008-0.47527-0.69509-0.79129-0.59796l-5.5081 1.6928c-0.73199 0.225-1.6901 0.82051-1.6623 1.5857 0.10242 2.8141 0.78262 5.4912 1.5311 8.1747 0.65519 2.3491 1.3437 4.7164 2.5233 6.8417 1.3675 2.4639 3.0679 4.8169 5.1835 6.6784 1.5746 1.3855 3.4791 2.4017 5.4211 3.194 2.0098 0.81985 4.1741 1.2459 6.3215 1.562 2.2881 0.33672 4.618 0.42175 6.9295 0.34709 3.996-0.12915 7.9809-0.66232 11.915-1.3723 4.9899-0.90026 10.48-2.3627 14.767-3.6505 4.512-1.3554 8.0256-2.08 11.575-4.3051 1.2744-0.79894 2.3031-2.0466 2.9765-3.3916 0.25739-0.51404 0.38222-1.1131 0.35636-1.6874z" fill="url(#linearGradient1715)"/>
  <path id="path1048-1-1" d="m29.821 129.53c-0.62179-1.8913-1.5707-3.6982-2.7525-5.3003-1.4765-2.0016-3.1414-4.0254-5.3116-5.2406-0.64282-0.35999-1.4121-0.59844-2.1456-0.5301-0.48632 0.0451-0.91755 0.35154-1.3332 0.60795-0.57886 0.35757-1.0191 0.90944-1.5888 1.2814-1.1828 0.77218-2.5014 1.3136-3.7627 1.9495-0.83771 0.42241-2.527 1.2393-2.527 1.2393-0.31005 0.15215-0.64214 0.50235-0.59943 0.84502 0 0 0.91206 0.63879 1.2537 1.0687 0.87881 1.1059 1.3858 2.4675 1.9495 3.7626 0.56357 1.295 1.0276 2.6348 1.4246 3.9901 0.49846 1.7019 0.86298 3.442 1.1966 5.1837 0.2443 1.2752 0.47737 2.5568 0.58863 3.8505 0.13134 1.5273 0.21535 3.0701 0.0914 4.598-0.14012 1.7274-0.54857 3.4251-0.93982 5.1133-0.46198 1.9936-1.0069 3.9711-1.6593 5.9108-0.57086 1.6971-1.3375 3.3222-1.9688 4.9978-0.39371 1.045-1.134 3.1524-1.134 3.1524-0.07675 0.21346 0.45973 0.13911 0.67652 0.0725l14.517-4.4618c0.3395-0.10428 0.50892-0.50815 0.68337-0.81756 0.39789-0.7056 0.82812-1.6232 1.0878-2.3905 0.32849-0.9706 0.64442-1.953 0.88765-2.8898 0.38717-1.4911 0.67346-2.8867 1.0359-4.384 0.3072-1.2694 0.56523-2.5512 0.78286-3.8389 0.31419-1.859 0.67331-3.7221 0.75387-5.6058 0.09252-2.1649 0.07877-4.3899-0.1424-6.5454-0.19536-1.9038-0.46686-3.8008-1.0646-5.6188z" fill="url(#radialGradient1702)"/>
  <path id="path986-8-5" d="m12.834 212.4c-0.0053-0.34775-0.58946-0.59061-0.92187-0.48845l-7.6918 2.364c-0.18855 0.0579-0.43504 0.20986-0.42955 0.40704l0.16845 6.0359c0.00593 0.21097 0.38421 0.30199 0.58597 0.23993l7.9791-2.4523c0.21695-0.0665 0.39909-0.32733 0.39557-0.55429z" fill="url(#linearGradient1750)"/>
  <path id="path986-9-7-7" d="m13.494 201.99c0.02702-0.34671-0.58946-0.59062-0.92186-0.48844l-8.045 2.4725c-0.18855 0.0579-0.40227 0.21169-0.42955 0.40702l-0.8883 6.3607c-0.029217 0.209 0.38422 0.30197 0.58598 0.23993l8.6807-2.6679c0.25725-0.079 0.5488-0.30375 0.5697-0.57211z" fill="url(#linearGradient1752)"/>
  <path id="path986-9-5-3-2" d="m15.856 190.73c0.0777-0.33897-0.58944-0.59053-0.92184-0.48836l-9.6888 2.9778c-0.18855 0.0579-0.40682 0.21108-0.42955 0.407l-0.81131 6.9912c-0.024403 0.2096 0.38421 0.30201 0.58597 0.23997l9.1504-2.8123c0.25725-0.0789 0.50958-0.30981 0.56971-0.57214z" fill="url(#linearGradient1754)"/>
  <path id="path986-9-5-5-4-4" d="m18.915 179.34c0.09352-0.33493-0.58946-0.59062-0.92187-0.48843l-10.927 3.3583c-0.18855 0.0579-0.37969 0.21624-0.42955 0.40705l-1.7357 6.6444c-0.053375 0.2042 0.38421 0.30196 0.58597 0.23993l11.136-3.4225c0.25725-0.079 0.49732-0.31286 0.56973-0.57205z" fill="url(#linearGradient1756)"/>
  <path id="path986-9-5-5-5-9-2" d="m24.451 166.45c0.16201-0.30769-0.58944-0.59056-0.92184-0.48841l-12.648 3.8873c-0.48488 0.14905-0.86779 0.62226-1.0603 1.0916l-2.9811 7.2662c-0.15932 0.38828 0.51753 0.98979 0.91745 0.8624l11.753-3.7445c0.25724-0.0789 0.44434-0.33393 0.5697-0.5721z" fill="url(#linearGradient1758)"/>
 </g>
 <path id="path1383" d="m115.67 156.94c-2.7853 0.77332-5.6275 1.5325-8.5163 1.6361-1.5456 0.0554-3.1426-0.0506-4.6075-0.54662-1.6773-0.56783-3.1704-1.6236-4.5707-2.7076-1.4012-1.0846-2.6974-2.3374-3.769-3.7484-1.1516-1.5164-2.1455-3.1924-2.7932-4.983-0.66284-1.8323-0.95376-3.8024-1.0655-5.7476-0.12626-2.1975-0.03374-4.441 0.45206-6.5879 0.39931-1.7669 0.99289-3.5469 1.9984-5.0537 0.85383-1.2795 2.013-2.3893 3.3115-3.2142 4.1811-2.6559 9.4176-3.146 13.9-5.2534 1.919-0.90221 3.7322-2.0205 5.5282-3.1478 2.6445-1.6597 5.0457-3.6916 7.7129-5.3146 1.3346-0.81214 2.6558-1.704 4.1355-2.2056 1.8926-0.64148 3.9171-1.017 5.9151-0.9768 1.7322 0.0348 3.5006 0.36296 5.0901 1.0526 1.8989 0.82378 3.6013 2.1257 5.0729 3.5814 1.185 1.1722 2.0783 2.6197 2.9282 4.0536 0.72902 1.23 1.4858 2.4885 1.8444 3.8726 0.38385 1.4824 0.5022 3.0686 0.28755 4.5848-0.29992 2.117-1.2408 4.1098-2.1629 6.0389-0.82344 1.7225-1.8954 3.3205-2.9836 4.8892-1.0854 1.5646-2.2412 3.0889-3.5253 4.4949-2.1825 2.3897-4.516 4.6657-7.0664 6.658-1.657 1.2943-3.4916 2.3488-5.3083 3.4073-1.8067 1.0526-3.6403 2.0722-5.5512 2.9211-2.0304 0.9021-4.1162 1.7026-6.2571 2.2969z" fill="none" stroke="#000000" stroke-linecap="square" stroke-width=".4"/>
</svg>
