<?xml version="1.0" encoding="UTF-8" standalone="no"?>
<svg
   xmlns:dc="http://purl.org/dc/elements/1.1/"
   xmlns:cc="http://creativecommons.org/ns#"
   xmlns:rdf="http://www.w3.org/1999/02/22-rdf-syntax-ns#"
   xmlns:svg="http://www.w3.org/2000/svg"
   xmlns="http://www.w3.org/2000/svg"
   xmlns:sodipodi="http://sodipodi.sourceforge.net/DTD/sodipodi-0.dtd"
   xmlns:inkscape="http://www.inkscape.org/namespaces/inkscape"
   version="1.1"
   viewBox="0 0 64 64"
   id="svg2329"
   sodipodi:docname="dildobat.svg"
   inkscape:version="1.0.1 (3bc2e813f5, 2020-09-07)">
  <metadata
     id="metadata2333">
    <rdf:RDF>
      <cc:Work
         rdf:about="">
        <dc:format>image/svg+xml</dc:format>
        <dc:type
           rdf:resource="http://purl.org/dc/dcmitype/StillImage" />
        <dc:title />
      </cc:Work>
    </rdf:RDF>
  </metadata>
  <sodipodi:namedview
     pagecolor="#ffffff"
     bordercolor="#666666"
     borderopacity="1"
     objecttolerance="10"
     gridtolerance="10"
     guidetolerance="10"
     inkscape:pageopacity="0"
     inkscape:pageshadow="2"
     inkscape:window-width="1920"
     inkscape:window-height="1017"
     id="namedview2331"
     showgrid="false"
     inkscape:zoom="11.420924"
     inkscape:cx="31.733904"
     inkscape:cy="40.012956"
     inkscape:window-x="1912"
     inkscape:window-y="-8"
     inkscape:window-maximized="1"
     inkscape:current-layer="svg2329"
     inkscape:document-rotation="0"
     showguides="false" />
  <defs
     id="defs2197">
    <linearGradient
       id="linearGradient1047"
       x1="11.322"
       x2="57.559"
       y1="8.8814"
       y2="55.797"
       gradientUnits="userSpaceOnUse">
      <stop
         stop-color="#c83737"
         offset="0"
         id="stop2188" />
      <stop
         stop-color="#d35f5f"
         offset=".44836"
         id="stop2190" />
      <stop
         stop-color="#c83737"
         offset=".77217"
         id="stop2192" />
      <stop
         stop-color="#a02c2c"
         offset="1"
         id="stop2194" />
    </linearGradient>
    <linearGradient
       id="linearGradient1005-1"
       x1="343.92001"
       x2="331.92001"
       y1="229.31"
       y2="216.39"
       gradientTransform="matrix(0.16987846,0,0,0.16987846,-37.312661,7.9945486)"
       gradientUnits="userSpaceOnUse">
      <stop
         stop-color="#fd5"
         offset="0"
         id="stop232" />
      <stop
         stop-color="#ffe680"
         offset="1"
         id="stop234" />
    </linearGradient>
  </defs>
  <path
     d="m 29.979158,31.178201 c 0.349705,0.779213 1.312613,1.426675 1.773926,1.509666 l -0.78777,0.825681 -1.654441,-1.448342 z"
     fill="#ff8080"
     stroke-width="0.169876"
     id="path241"
     style="display:inline;stroke:#000000;stroke-linejoin:bevel" />
  <path
     d="M 9.6613345,59.234176 C 7.8427928,59.318082 7.0136508,58.1405 6.3891369,56.701916 8.1860656,55.719957 9.5422315,54.414458 10.891884,52.914605 16.484545,46.699992 22.808722,39.91194 29.575516,31.685113 c 0.04219,0.617836 1.395903,1.653323 1.766512,1.445206 C 24.21193,41.41847 18.347812,47.94951 12.8718,54.443757 11.538337,56.025128 10.022868,58.057728 9.6614708,59.23404 Z"
     fill="url(#linearGradient1005)"
     stroke-width="0.169797"
     id="path243"
     style="display:inline;fill:#ffe6d5;stroke:#000000;stroke-linejoin:bevel" />
  <path
     d="m 7.3542253,56.143495 c -0.3595983,-0.214096 -1.2259158,0.0747 -1.3033191,0.664224 -0.1308879,0.99714 2.0451372,3.335428 3.6297791,2.934512 C 10.18934,59.613529 10.465484,58.647546 10.000083,58.528116 9.7695955,59.330467 8.4639816,58.762607 7.8555208,58.228724 7.023517,57.498762 6.631104,56.666049 7.3542526,56.143441 Z"
     fill="#ffdd55"
     stroke-width="0.169876"
     id="path245"
     style="display:inline;fill:#ffccaa;stroke:#000000;stroke-linejoin:bevel" />
  <path
     d="M 10.149738,58.062225 C 8.8904084,57.058299 8.4451759,55.411407 8.7493382,55.112995"
     id="path261"
     style="display:inline;fill:none;stroke:#000000;stroke-width:0.0849392;stroke-linejoin:bevel" />
  <path
     d="M 12.430138,54.870701 C 11.450414,54.042568 11.047917,53.016919 11.355159,52.427564"
     id="path263"
     style="display:inline;fill:none;stroke:#000000;stroke-width:0.0849392;stroke-linejoin:bevel" />
  <path
     d="m 15.147703,51.804549 c -1.149412,-1.040066 -1.223409,-1.786817 -1.172715,-2.3617"
     id="path265"
     style="display:inline;fill:none;stroke:#000000;stroke-width:0.0849392;stroke-linejoin:bevel" />
  <path
     d="m 17.753796,48.757475 c -0.700391,-0.428116 -0.954786,-1.40427 -1.04241,-2.329131"
     id="path267"
     style="display:inline;fill:none;stroke:#000000;stroke-width:0.0849392;stroke-linejoin:bevel" />
  <path
     d="M 20.434294,45.691323 C 19.909287,45.109381 19.358906,44.111314 19.603626,43.248186"
     id="path269"
     style="display:inline;fill:none;stroke:#000000;stroke-width:0.0849392;stroke-linejoin:bevel" />
  <path
     d="m 23.07282,42.693308 c -0.671964,-0.48061 -0.993542,-1.520185 -0.928403,-2.280264"
     id="path271"
     style="display:inline;fill:none;stroke:#000000;stroke-width:0.0849392;stroke-linejoin:bevel" />
  <path
     d="m 25.774305,39.59445 c -0.507074,-0.332562 -1.041702,-0.81298 -1.07498,-2.133688"
     id="path273"
     style="display:inline;fill:none;stroke:#000000;stroke-width:0.0849392;stroke-linejoin:bevel" />
  <path
     d="M 28.251211,36.645493 C 27.73885,36.33836 27.034943,35.330645 27.208801,34.544374"
     id="path275"
     style="display:inline;fill:none;stroke:#000000;stroke-width:0.0849392;stroke-linejoin:bevel" />
  <path
     id="svg_41"
     d="M 57.939223,9.032443 C 58.116335,7.7243266 57.540073,6.4441576 56.626769,5.7011246 55.035754,4.1131913 52.522954,3.6037765 50.682917,4.9607726 c -0.898176,0.6414186 -1.482898,1.6748252 -2.139134,2.5917691 -1.005346,0.8147704 -2.204103,1.248436 -3.230214,2.033178 -2.379702,1.6739053 -5.149711,2.4680393 -7.42567,4.3652163 -1.960198,1.538768 -4.036114,2.915059 -5.752732,4.827385 -1.96325,1.943455 -3.990789,3.807532 -5.804752,5.942441 -0.731301,0.897061 -1.8618,1.414213 -2.208496,2.670016 -0.681787,1.479513 -1.409416,3.026423 -2.558744,4.092884 -0.636027,0.452919 -1.268699,0.582373 -1.762754,1.592404 -1.42178,2.797907 -3.983072,4.951509 -5.280511,8.525607 l 0.321563,0.815727 c 1.42002,3.071388 3.908645,5.308682 6.560837,6.855085 0.756839,0.419175 1.583898,0.65474 2.411323,0.781572 0.98669,-0.789029 1.885247,-1.257935 2.671362,-2.772587 0.747784,-1.093349 1.603429,-1.800875 2.228403,-3.286424 1.471181,-2.516166 3.069181,-4.966259 4.899538,-7.153137 0.753943,-0.966334 1.951539,-1.493996 2.344573,-2.790332 0.403852,-0.98194 1.592263,-1.209105 1.946192,-2.240545 0.684398,-1.655323 2.042859,-2.764526 3.41725,-3.578013 0.848144,-0.921162 1.426098,-2.056758 2.379361,-2.85731 0.423889,-0.453199 1.105063,-0.945335 1.622204,-0.37606 0.485398,0.349031 0.980207,-0.315961 1.034008,-0.845645 0.35037,-0.04279 0.682629,-0.339729 0.778513,-0.7617 0.06513,-0.1891 -0.0037,-0.67401 0.292394,-0.447564 0.778168,0.167964 1.199476,-0.908883 1.247444,-1.648808 0.03274,-0.594619 0.669833,-0.292369 0.98967,-0.345943 0.879408,0.11664 1.894065,0.09952 2.538235,-0.729098 0.531036,-0.48492 0.682449,-1.294907 1.115452,-1.881475 1.491649,-2.662015 3.415304,-5.072244 4.394551,-8.072516 a 4.8052265,5.5496567 1.6368397 0 0 0.226432,-1.2344665 l -2e-6,3e-6 8e-6,-3e-6 z"
     fill="url(#svg_33)"
     style="display:inline;fill:#ffccaa;fill-opacity:1;stroke-width:0.319152;stroke-miterlimit:4;stroke-dasharray:none" />
  <path
     id="svg_44"
     d="m 57.052746,10.703827 c 0.293642,-0.662332 0.42593,-1.3103272 0.434483,-1.8672609 0.0072,-0.5274267 -0.09446,-0.8560376 -0.09446,-0.8560376 0,0 0.02917,0.3477164 -0.04931,0.8412486 -0.08603,0.5403435 -0.269222,1.0844471 -0.549719,1.7323169 a 9.5930223,11.079177 1.6368404 0 1 -0.512843,1.017641 c -0.906047,1.616552 -1.967402,3.167698 -2.608759,4.422629 -0.642567,1.256912 -0.898023,2.18461 -0.898023,2.18461 0,0 0.323903,-0.898572 1.020222,-2.096495 0.696938,-1.19925 1.810156,-2.685415 2.730279,-4.330497 a 9.8707631,11.399948 1.6368401 0 0 0.528128,-1.048161 v 3e-6 3e-6 z M 32.257442,37.643764 c 0.782889,-1.008614 1.625738,-1.950705 1.625738,-1.950705 0,0 -0.957017,0.787712 -1.754938,1.816781 -0.09547,0.123281 -0.191001,0.249244 -0.286567,0.37655 a 21.500923,24.831861 1.63684 0 0 -1.506478,2.298527 c 0,0 0.824247,-1.082823 1.637491,-2.167243 a 25.611224,29.578927 1.6368402 0 1 0.285338,-0.373897 l -5.45e-4,-1.3e-5 v -3e-6 z m 8.570534,-9.594153 c 0.154433,-0.08699 0.33587,-0.161266 0.486243,-0.31883 0.306994,-0.33311 0.507705,-0.739867 0.737661,-1.060022 0.753644,-1.048232 1.484293,-1.660696 1.484293,-1.660696 0,0 -0.779208,0.531447 -1.585249,1.559654 -0.252659,0.32163 -0.464175,0.718736 -0.75114,1.017415 -0.112878,0.122202 -0.280619,0.183375 -0.448732,0.282795 -1.158678,0.669538 -1.961568,1.805214 -1.961568,1.805214 0,0 0.929371,-0.985707 2.038487,-1.625532 h 2e-6 3e-6 z"
     fill="#ffd5d5"
     style="display:inline;stroke-width:0.319098" />
  <path
     id="svg_47"
     d="m 23.813633,50.054057 c 1.043669,-1.043364 1.262717,-0.788058 1.846704,-1.557011 0.559934,-0.736626 1.060286,-1.740983 1.773906,-2.393452 0.640019,-0.825351 1.022585,-1.796626 1.766379,-2.936145 1.44243,-2.247004 3.093622,-4.803249 4.655687,-6.576902 0.473659,-0.560231 0.910296,-0.988402 1.538028,-1.479321 0.373649,-0.489961 0.556511,-1.189346 0.943173,-1.664902 0.321303,-0.394531 0.634271,-0.374932 0.977051,-0.744789 0.77382,-0.648923 0.489042,-1.273911 1.65703,-2.63481 1.822952,-1.92704 1.906376,-1.285312 2.64229,-2.161771 0.778857,-1.244983 2.864887,-3.644019 3.412453,-3.153233 0.169849,0.182538 0.428166,0.548868 0.882044,0.246058 0.384138,-0.256121 0.388621,-0.763276 0.388621,-0.763276 0.144022,-0.03937 0.36463,-0.154809 0.595556,-0.334488 0.305852,-0.380792 0.265818,-1.040896 0.265818,-1.040896 0.275771,0.140738 0.688159,0.146506 0.953426,-0.106391 0.571403,-0.542371 0.563218,-1.509143 0.563218,-1.509143 0.215277,-1.011626 2.761124,1.032215 4.134428,-1.885752 C 54.272127,16.011138 60.256828,9.6554121 57.068199,6.1592069 55.910472,4.8888818 54.201262,3.6848063 51.717387,4.3782628 50.16489,4.8123027 49.152031,6.5237871 48.543783,7.5525417 47.43295,8.402424 46.443929,8.651721 45.38345,9.4866797 c -1.945483,1.5310563 -3.308373,1.8036443 -5.901291,3.2686313 -1.409479,0.916034 -2.714082,2.033222 -4.06526,3.059364 -0.580498,0.440127 -1.162047,0.885267 -1.712352,1.373764 -0.839726,0.745494 -1.595065,1.594659 -2.399975,2.389299 -1.04679,1.033294 -2.094509,1.993898 -3.119909,3.055216 -0.860177,0.890674 -1.639296,1.95123 -2.550622,2.771563 -0.380451,0.342123 -0.753281,0.624219 -1.066582,1.047801 -0.398101,0.538383 -0.564085,1.172633 -0.869874,1.78568 -0.502702,1.007137 -1.226388,2.37934 -1.977904,3.153759 -0.54873,0.565722 -1.027891,0.434317 -1.533722,1.051393 -0.300566,0.561948 -0.67984,1.196467 -1.075202,1.773947 -0.696424,1.201948 -1.636364,2.192106 -2.413095,3.32773 -0.420355,0.615726 -0.853309,1.22377 -1.214984,1.887193 -0.385471,0.709175 -1.008822,2.222952 -1.008822,2.222952"
     stroke-width="0.0989201"
     stroke-linecap="round"
     stroke="#000000"
     fill="none"
     sodipodi:nodetypes="cccccccccccccccccccccccccccccccccccc"
     style="display:inline" />
  <g
     id="svg_2"
     transform="matrix(-0.00779457,0.31481888,-0.32324603,-0.00759136,76.823622,-24.736408)"
     style="display:inline">
    <path
       id="svg_48"
       d="m 104.25011,85.14627 c 2.51022,1.04588 5.53612,1.44662 8.7751,1.40887 5.29745,-0.0629 10.3605,-1.20402 14.63085,-2.45835 7.11725,-2.08815 11.6774,-4.58784 11.6774,-4.58784 0,0 -4.67735,2.33615 -11.801,4.28054 -4.28313,1.16808 -9.30996,2.23191 -14.51578,2.29122 -3.17719,0.03594 -6.11571,-0.3594 -8.51726,-1.36035 l -0.24932,0.4259 h 1e-5 z m 43.58143,-1.90486 c -0.84597,-0.0072 -1.65571,0.02875 -2.4399,0.09704 -4.09135,0.363 -8.22533,1.75751 -11.85427,2.64165 -11.23418,2.7315 -20.69329,2.73509 -20.69329,2.73509 0,0 9.45913,0.27135 20.81901,-2.34873 3.67582,-0.8482 7.81192,-2.21036 11.78608,-2.55538 0.76713,-0.0665 1.5513,-0.10063 2.37597,-0.09344 l 0.006,-0.47622 h 1e-5 z m 5.46152,4.31648 c -1.39362,0.33425 -2.72331,0.63256 -4.00185,0.89852 -7.32608,1.52748 -14.87377,1.97674 -20.5633,2.23191 -5.68954,0.25697 -9.48256,0.36839 -9.48256,0.36839 0,0 3.79302,0.02336 9.49535,-0.09883 5.69594,-0.1222 13.29689,-0.44027 20.70395,-1.97674 1.34741,-0.281442 2.68869,-0.583395 4.02316,-0.90571 l -0.17473,-0.51754 h -1e-5 z m 4.09348,2.82674 c -1.06546,0.40253 -2.10108,0.74038 -3.1154,1.02431 -4.58146,1.29387 -9.41437,1.53826 -13.65915,1.49334 -7.59883,-0.08086 -13.19887,0.37917 -13.19887,0.37917 0,0 5.57234,-0.26237 13.19034,-0.04134 4.26396,0.12579 9.16292,-0.0629 13.84667,-1.37832 1.03136,-0.29112 2.08617,-0.63436 3.16653,-1.04228 l -0.23014,-0.43488 h 1e-5 z m 2.08829,4.13857 c -0.69467,0.3055 -1.49803,0.56966 -2.39088,0.79608 -5.66184,1.43763 -11.95442,1.29027 -17.13893,1.19863 -9.29078,-0.16892 -16.1097,-0.76195 -16.1097,-0.76195 0,0 6.78909,0.7871 16.09904,1.09619 5.18238,0.17432 11.51546,0.38456 17.31153,-1.07822 0.85852,-0.209928 1.29408,-0.371309 2.09119,-0.712454 z m 14.89295,23.88621 c 4.47066,1.1555 8.93492,0.15814 8.93492,0.15814 0,0 -4.53884,0.49239 -8.7687,-0.611 -6.90203,-1.79523 -9.34619,-7.26901 -15.28291,-10.87207 -3.41372,-2.07019 -7.43901,-2.4889 -7.43901,-2.4889 0,0 3.87187,0.9093 7.11085,2.87526 5.77264,3.50423 8.27433,9.07504 15.44485,10.93857 z m 10.30509,6.33276 c 2.06698,-0.68107 4.40247,-0.0413 6.11785,0.50856 1.74309,0.56067 2.8192,0.9704 2.8192,0.9704 0,0 -1.00366,-0.52114 -2.70413,-1.19863 -1.66211,-0.6649 -4.07644,-1.43763 -6.43109,-0.726 -0.60092,0.19049 -1.05481,0.55349 -1.21889,1.06565 -0.58813,1.815 1.74309,4.15115 3.69287,6.20517 0.97595,1.02611 1.8816,1.97854 2.33121,2.68836 0.44749,0.70803 0.53486,0.98477 -0.10229,1.1501 -0.72877,0.19229 -3.04295,0.19049 -5.85148,-0.0683 -4.04447,-0.37198 -7.61375,-0.94703 -10.89961,-1.77009 -1.8752,-0.47083 -3.26668,-0.92188 -4.50688,-1.50053 -1.96044,-0.92368 -2.45481,-1.91385 -2.45481,-1.91385 0,0 0.41127,1.0351 2.36957,2.03784 1.21463,0.62897 2.61889,1.14292 4.48345,1.66765 3.25603,0.91649 6.89138,1.5778 10.94863,1.95158 2.83412,0.26057 5.07157,0.31628 6.07949,0.0503 0.91203,-0.239 0.92695,-1.04588 0.43044,-1.82938 -0.49651,-0.78351 -1.41279,-1.73594 -2.38662,-2.76205 -1.94978,-2.05042 -4.03382,-4.41352 -3.59058,-5.78107 0.1172,-0.36659 0.39636,-0.59482 0.87368,-0.74577 v 3e-5 z"
       sodipodi:nodetypes="sccccccccsccccccccccsccccccccssccccccccsccccccccccccccccccccccccccccccccsccccc" />
    <path
       id="svg_49"
       d="m 165.91446,133.32663 c 0.51355,-5.73794 -10.81865,-7.19893 -10.30083,-16.13379 v 0.0108 c 0.0874,-0.80147 0.51782,-1.56342 1.11872,-2.17621 0.57535,-0.58763 1.28494,-1.07284 1.89012,-1.59577 0.6414,-0.5427 1.09955,-1.13932 1.18692,-1.79344 0.19392,-1.74852 -1.17627,-2.64165 -1.17627,-2.64165 0,0 1.25511,1.01892 0.9099,2.6111 -0.11081,0.57865 -0.57109,1.07642 -1.20396,1.5778 -0.57109,0.44387 -1.39574,0.98298 -1.9988,1.55983 a 5.14402,4.33805 0 0 0 -1.28707,2.41342 v 0.005 a 15.95201,13.45262 0 0 0 0,0.005 c -0.54125,9.26911 10.76324,10.93857 10.29871,16.12121 z" />
    <path
       id="svg_50"
       d="m 155.05533,117.14072 c -0.2344,1.16448 -1.02284,2.21933 -2.09043,3.30655 -1.57475,1.60655 -3.37111,3.09449 -4.69014,4.65432 -2.97902,3.5168 -3.06852,6.75686 -3.06852,6.75686 0,0 0.38357,-3.20412 3.41585,-6.54121 1.351,-1.48975 3.17293,-2.92918 4.7775,-4.56627 1.09315,-1.11416 1.95192,-2.2391 2.21189,-3.52938 l -0.55616,-0.0809 v -1e-5 z m 10.29871,16.1284 c -1.27854,6.27705 0.32816,9.91066 1.4746,13.51192 0.73517,2.30919 1.04628,4.33086 1.05481,6.14586 0.009,1.70179 -0.24292,2.83213 -0.24292,2.83213 0,0 0.39209,-1.10338 0.5242,-2.82314 a 23.00533,19.4008 0 0 0 -0.79057,-6.27884 c -1.15708,-3.63002 -2.72757,-7.12525 -1.46394,-13.30706 l -0.55616,-0.0809 -1e-5,-1e-5 z m 16.73618,8.27176 c -2.5507,-1.42325 -4.41952,-2.55898 -6.02622,-3.96067 -1.4341,-1.25253 -2.12665,-2.29482 -2.12665,-2.29482 0,0 0.56469,1.09619 1.91995,2.45116 1.47672,1.47717 3.39881,2.79978 5.92181,4.20148 1.03136,0.57505 1.8752,1.1501 2.45268,1.98932 3.81433,5.53846 0.67976,10.64565 0.72877,16.77714 0.0298,3.64799 1.96044,6.74428 1.96044,6.74428 0,0 -1.36805,-3.27061 -1.39574,-6.74787 -0.049,-5.98952 3.15375,-11.26742 -0.80548,-17.01255 -0.6414,-0.93086 -1.57049,-1.55803 -2.62954,-2.14746 v -1e-5 z m 17.254,8.77853 c -6.39061,-1.57061 -11.9949,-4.79449 -11.9949,-4.79449 0,0 5.27401,3.63002 11.83722,5.24914 4.44083,1.09619 8.14648,1.04947 12.15899,1.06026 2.87247,0.0108 5.47645,-0.20307 8.08255,-0.17072 3.85908,0.0503 7.58179,0.86977 7.58179,0.86977 0,0 -3.55436,-1.29387 -7.57326,-1.34419 -2.64659,-0.0359 -5.25057,0.17971 -8.08894,0.17072 -4.0189,-0.0126 -7.64572,0.0305 -12.00343,-1.04228 v 0.002 h -1e-5 z m 25.19165,-1.38371 c 0.85663,0.95243 1.64507,1.86892 2.80215,2.49789 2.81493,1.49694 5.59791,1.21121 5.59791,1.21121 0,0 -2.80215,0.007 -5.34433,-1.52927 -1.03776,-0.61459 -1.72604,-1.50233 -2.60823,-2.46733 a 24.48845,20.65155 0 0 0 -2.16288,-2.10972 c -4.71784,-3.98583 -10.98699,-5.98772 -10.98699,-5.98772 0,0 6.01344,2.44757 10.58637,6.32377 0.9099,0.76914 1.55983,1.45021 2.116,2.063 v -0.002 -2e-5 z m -22.58768,16.62798 c -2.02437,-0.91829 -3.28161,-2.5482 -4.11266,-3.90137 -0.82466,-1.34778 -1.21463,-2.29841 -1.21463,-2.29841 0,0 0.24932,0.98477 0.95891,2.39904 0.7096,1.41786 1.91782,3.18974 4.09774,4.21765 1.32756,0.61459 2.86394,1.13213 4.87553,2.29302 4.79669,2.76385 8.55988,6.64365 8.55988,6.64365 0,0 -3.30718,-4.1871 -8.24024,-7.0354 -2.05846,-1.18605 -3.64387,-1.72516 -4.92241,-2.31818 h -0.002 z m -74.71406,-61.4874 -1.78144,-3.40538 c 0,0 0.358,1.86173 1.26363,3.59767 2.116,4.04693 4.59212,5.61215 7.56474,6.08836 4.5431,0.7296 5.7492,-1.26152 9.03081,-2.48351 2.79789,-1.04588 5.97722,-1.19144 5.97722,-1.19144 0,0 -3.1921,-0.3594 -6.20522,0.75656 -3.43716,1.28129 -4.35345,3.14841 -8.69839,2.45116 -2.81281,-0.44926 -5.08009,-1.84735 -7.15135,-5.81341 h -10e-6 z" />
    <path
       id="svg_51"
       d="m 134.81805,110.04062 c -0.38357,-0.17432 -0.8822,-0.10243 -0.8822,-0.10243 0,0 0.26211,0.3612 0.61583,0.52114 3.38816,1.53467 2.82559,3.07832 2.56136,5.57081 -0.25997,2.47452 0.45175,4.68307 1.38083,6.34354 0.89711,1.61015 1.83258,2.49968 1.83258,2.49968 0,0 -0.8204,-0.9668 -1.57687,-2.59313 a 16.21624,13.67544 0 0 1 -1.07612,-6.20697 c 0.26211,-2.45835 0.70533,-4.42071 -2.85542,-6.03265 z" />
  </g>
  <path
     fill="none"
     stroke="#000000"
     stroke-width="0.192857"
     d="m 23.857524,50.183307 -0.04389,-0.12925 c -3.55232,-0.136584 -8.710302,-6.207386 -9.355724,-8.452384 l 0.01595,0.0533"
     id="path1343"
     style="display:inline;fill:none"
     sodipodi:nodetypes="cccc" />
  <path
     style="display:inline;fill:none;stroke-width:0.272547"
     id="path1396"
     d="m 21.046286,55.560834 c -0.179774,-0.111516 -0.343333,-0.249152 -0.499349,-0.391451 -0.18097,-0.177458 -0.360428,-0.357012 -0.530408,-0.545113 -0.06611,-0.06799 -0.120029,-0.141136 -0.137383,-0.235164 -0.0047,-0.04771 -0.003,-0.02377 -0.0051,-0.07188 0,0 -0.422024,0.218288 -0.422024,0.218288 v 0 c 0.004,0.05172 0.0012,0.02573 0.0083,0.07792 0.02341,0.10253 0.08577,0.180492 0.162651,0.250989 0.183099,0.178483 0.371226,0.351863 0.548011,0.536824 0.151137,0.1475 0.313628,0.281285 0.472632,0.420099 0,0 0.402633,-0.260511 0.402633,-0.260511 z" />
  <path
     style="display:inline;fill:none;stroke-width:0.272547"
     id="path1398"
     d="m 21.098501,53.681631 c -0.154457,0.0903 -0.311071,0.177003 -0.463371,0.270893 -0.02595,0.016 -0.201528,0.162048 -0.208591,0.167984 -0.141792,0.119171 -0.283768,0.238042 -0.425934,0.356791 -0.302621,0.257603 -0.598152,0.523347 -0.895722,0.786723 -0.279122,0.251956 -0.552205,0.51867 -0.768888,0.827825 -0.05418,0.07731 -0.102833,0.158347 -0.15425,0.237522 -0.208066,0.342425 -0.402954,0.692498 -0.591965,1.045703 -0.06893,0.119067 -0.112013,0.248704 -0.152487,0.379344 -0.06353,0.158129 -0.128105,0.315895 -0.173624,0.480295 -0.01983,0.06895 -0.05119,0.207875 0.06356,0.219611 0.03384,0.0035 0.07041,-0.0016 0.100583,-0.01728 0.17637,-0.09187 0.342668,-0.201897 0.514001,-0.302846 0.05698,-0.064 0.117047,-0.125371 0.170936,-0.19199 0.276058,-0.341272 0.514215,-0.712862 0.771379,-1.067986 0.260262,-0.359404 0.345668,-0.462738 0.615284,-0.808453 0.169025,-0.218018 0.347477,-0.428424 0.519996,-0.643619 0.06651,-0.08296 0.139721,-0.161266 0.197211,-0.25071 0.07042,-0.109564 0.26714,-0.509949 0.316746,-0.636915 0.02626,-0.06721 0.03933,-0.138849 0.059,-0.208275 -0.02799,-0.0218 -0.05114,-0.07886 -0.08398,-0.06542 -0.500553,0.204805 -0.566487,0.31314 -0.891499,0.657516 -0.129697,0.137426 -0.260834,0.273626 -0.385638,0.415511 -0.237458,0.269958 -0.645014,0.7755 -0.869782,1.051276 -0.336888,0.430494 -0.675929,0.859932 -0.999493,1.300659 -0.04036,0.05498 -0.101193,0.101622 -0.116729,0.168028 -0.006,0.02576 0.04475,0.05446 0.06774,0.04137 0.204232,-0.11629 0.383559,-0.271697 0.575339,-0.407545 0.711303,-0.797704 1.388551,-1.624802 2.088065,-2.432745 -0.445785,0.186504 0.590337,-0.490764 0.408324,-0.420049 -0.133776,0.05197 -0.25753,0.132556 -0.366498,0.225952 -0.05587,0.04788 -0.07882,0.124292 -0.116132,0.187711 -0.07488,0.127285 -0.142785,0.258685 -0.220389,0.38433 -0.09962,0.161285 -0.20737,0.317397 -0.311054,0.476095 -0.441833,0.637665 -0.891643,1.27175 -1.383149,1.872531 -0.04563,0.05577 -0.212298,0.178139 -0.141826,0.16313 0.172754,-0.0368 0.316891,-0.156112 0.475336,-0.234167 0.408912,-0.523726 0.831236,-1.036853 1.247817,-1.554485 0,0 -0.338432,0.144851 -0.338432,0.144851 v 0 c -0.422501,0.546007 -0.849642,1.091964 -1.334764,1.584427 0.115641,-0.0376 0.241979,-0.05137 0.346922,-0.112802 0.04181,-0.02448 0.03948,-0.08901 0.06652,-0.129206 0.08175,-0.121521 0.172857,-0.236476 0.25911,-0.354843 0.364441,-0.500126 0.731011,-0.998753 1.088084,-1.504197 0.09429,-0.135297 0.51328,-0.729188 0.615594,-0.901514 0.05475,-0.09221 0.244612,-0.258342 0.141786,-0.288788 -0.264421,-0.0783 -0.623706,0.44043 -0.756148,0.596284 -0.688466,0.83834 -1.3744,1.683124 -2.142496,2.450711 0.05724,-0.0097 0.115842,-0.04501 0.171712,-0.02921 0.02536,0.0072 -0.04818,0.09121 -0.04496,0.06505 0.01603,-0.130234 0.258049,-0.438212 0.274094,-0.461007 0.289438,-0.411216 0.382887,-0.523775 0.701284,-0.939467 0.341761,-0.416233 0.537283,-0.666543 0.902416,-1.062624 0.134632,-0.146045 0.273346,-0.288442 0.41606,-0.426602 0.120785,-0.11693 0.276462,-0.201404 0.37405,-0.338293 0.0231,-0.0324 -0.343749,0.121436 -0.101331,0.06312 -0.0082,0.06081 -0.0053,0.124192 -0.02465,0.182443 -0.03521,0.106244 -0.08575,0.207081 -0.137339,0.306408 -0.05809,0.111842 -0.122391,0.220591 -0.191224,0.326162 -0.05488,0.08417 -0.118573,0.162256 -0.179378,0.242243 -0.160858,0.211608 -0.328863,0.417721 -0.488145,0.630548 -0.285713,0.374179 -0.323049,0.42003 -0.608566,0.806826 -0.226063,0.306252 -0.358626,0.499881 -0.592521,0.794171 -0.08024,0.10096 -0.160382,0.202306 -0.247826,0.297095 -0.06467,0.0701 -0.138497,0.131161 -0.207746,0.196738 0.68394,-0.361397 0.238871,-0.119305 0.185752,-0.103925 -0.01259,0.0037 -0.02832,0.0065 -0.03931,-8.17e-4 -0.04149,-0.02693 0.0023,-0.12462 0.0044,-0.153976 0.04651,-0.163697 0.111115,-0.320814 0.174909,-0.47839 0.04482,-0.125167 0.08935,-0.250648 0.14812,-0.370157 0.162335,-0.34934 0.337528,-0.692773 0.544012,-1.018507 0.0547,-0.07952 0.106742,-0.160931 0.164111,-0.238544 0.226649,-0.306635 0.502229,-0.574837 0.7867,-0.826973 0.298047,-0.264128 0.594584,-0.530038 0.899132,-0.786712 0.144545,-0.120117 0.288147,-0.241926 0.434877,-0.359367 0.04288,-0.03432 0.08624,-0.06807 0.130392,-0.100727 0.03429,-0.02537 0.143012,-0.09243 0.104888,-0.0733 -0.118818,0.05962 -0.231857,0.130122 -0.347786,0.195182 0,0 0.377377,-0.296755 0.377377,-0.296755 z" />
</svg>
