<?xml version="1.0" encoding="UTF-8"?>
<svg version="1.1" viewBox="0 0 256 256" xmlns="http://www.w3.org/2000/svg" xmlns:cc="http://creativecommons.org/ns#" xmlns:dc="http://purl.org/dc/elements/1.1/" xmlns:rdf="http://www.w3.org/1999/02/22-rdf-syntax-ns#">
 <style>svg { cursor: default; }</style>
 <metadata>
  <rdf:RDF>
   <cc:Work rdf:about="">
    <dc:format>image/svg+xml</dc:format>
    <dc:type rdf:resource="http://purl.org/dc/dcmitype/StillImage"/>
    <dc:title/>
   </cc:Work>
  </rdf:RDF>
 </metadata>
 <g transform="translate(-3.4876 .10012)">
  <g stroke="#000000" stroke-width=".25">
   <path d="m100.26 36.366c-40.606 0.65341-73.95 41.513-70.906 93.203 1.7471 29.665 20.938 87.864 84.381 102.03 36.069 8.051 91.93-9.1796 93.791-88.365 0.78764-33.509-25.326-97.842-99.057-106.45-2.763-0.32254-5.5019-0.45762-8.209-0.41406zm20.537 9.1934c48.042 0.18682 82.665 59.189 85.084 89.875 4.3875 55.666-35.969 76.233-62.365 73.922-32.01-2.8028-78.263-34.479-80.6-85.152-2.1677-47.004 19.365-78.794 57.881-78.645z" fill="#ff8080"/>
   <path d="m106.69 26.952c-2.1031 0.0077-4.221 0.06267-6.3516 0.16602-41.826 2.0289-82.125 39.714-78.305 102.04 3.7797 61.656 52.619 108.26 100.54 112.2 58.131 4.7804 106.75-30.753 103.59-103.59-2.8515-65.712-54.282-111.05-119.48-110.81zm-3.1152 16.596c2.5097-0.04039 5.0498 0.08575 7.6113 0.38477 68.355 7.9794 92.564 67.622 91.834 98.688-1.7256 73.412-53.514 89.386-86.953 81.922-58.817-13.129-76.609-67.083-78.229-94.586-2.8222-47.921 28.091-85.802 65.736-86.408z" fill="#ff9955"/>
   <path d="m120.79 45.559c1.2213 0.0048 2.4333 0.04872 3.6367 0.12891-1.2034-0.08018-2.4154-0.12416-3.6367-0.12891zm3.6367 0.12891c1.2034 0.08018 2.397 0.19742 3.582 0.34961-1.1844-0.15207-2.3793-0.26947-3.582-0.34961zm-6.7812-0.05859c-0.33748 0.0144-0.67116 0.03521-1.0059 0.05469 0.33459-0.01944 0.6685-0.04031 1.0059-0.05469zm-3.2617 0.22461c-0.28989 0.02728-0.58144 0.0528-0.86914 0.08398 0.28766-0.03113 0.57929-0.05674 0.86914-0.08398zm15.396 0.4375c1.1757 0.1869 2.3414 0.40834 3.498 0.66211-1.1567-0.25377-2.3224-0.4752-3.498-0.66211zm-19.25 0.03906c-0.11843 0.0189-0.23354 0.04292-0.35157 0.0625 0.11802-0.01956 0.23315-0.04362 0.35157-0.0625zm-2.9785 0.5625c-0.24545 0.05268-0.4888 0.10832-0.73242 0.16406 0.24362-0.05568 0.48697-0.11144 0.73242-0.16406zm-3.0664 0.75195c-0.18585 0.05127-0.37387 0.09923-0.55859 0.15234 0.18472-0.05305 0.37275-0.10113 0.55859-0.15234zm-3.3652 1.041c-0.0875 0.03056-0.17256 0.06471-0.25977 0.0957 0.0872-0.03097 0.17226-0.06516 0.25977-0.0957zm-2.7227 1.0449c-0.17512 0.07266-0.34951 0.14623-0.52344 0.2207 0.17391-0.07439 0.34834-0.14813 0.52344-0.2207zm-2.9316 1.3242c-0.06547 0.03225-0.13198 0.06318-0.19726 0.0957 0.06531-0.0325 0.13178-0.06347 0.19726-0.0957zm-2.8223 1.502c-0.04155 0.02394-0.08158 0.05017-0.12305 0.07422 0.04148-0.02403 0.08149-0.0503 0.12305-0.07422zm-2.4941 1.543c-0.08671 0.05712-0.17344 0.11422-0.25977 0.17188 0.08633-0.05761 0.17305-0.1148 0.25977-0.17188zm-23.934 2.0879c-0.27839 0.23254-0.54217 0.46594-0.81055 0.69922 0.26728-0.23304 0.53312-0.46692 0.81055-0.69922zm-1.2695 1.0977c-0.38702 0.34406-0.76074 0.68839-1.127 1.0332 0.36509-0.34464 0.74134-0.68931 1.127-1.0332zm-1.1934 1.0957c-0.39078 0.36922-0.76887 0.7382-1.1367 1.1074 0.368-0.36938 0.74669-0.73801 1.1367-1.1074zm-1.1367 1.1074c-5.2194 5.2389-8.1856 10.436-10.17 14.387-2.5527 5.0828-3.5001 8.111-2.9805 10.711 0.51967 2.6 2.5078 4.7688 3.457 7.0508s0.85781 4.6784 1.1289 7.5938 0.90464 6.3503 1.9668 9.0625c1.0622 2.7122 2.5523 4.7004 3.6152 5.1973s1.6951-0.49693 2.2598-5.0625c0.5006-4.0472 0.95494-10.899 4.1836-18.086 2.3579-8.9649 5.9564-16.814 10.693-23.342-0.89361 0.46123-1.7556 0.93024-2.5645 1.3965-5.4335 3.1321-9.1404 6.0085-12.018 6.584-2.8772 0.57548-4.9218-1.1511-4.7617-4.9551 0.1075-2.5549 1.2241-6.0508 5.1895-10.537zm20.309 0.4043c-0.02815 0.02721-0.05589 0.05475-0.08399 0.08203 0.0281-0.02728 0.05583-0.05482 0.08399-0.08203z" fill="#000000" opacity=".4"/>
   <path d="m110.99 37.107c-3.249 0.40097-6.6993 1.0601-10.27 2.0098-11.638 3.0958-24.522 9.2435-33.041 15.887-1.8969 1.4792-3.5674 2.9837-5.0625 4.4844-3.9654 4.4864-5.082 7.9822-5.1895 10.537-0.16005 3.804 1.8845 5.5306 4.7617 4.9551 2.8772-0.57548 6.5841-3.4518 12.018-6.584 0.80882-0.46624 1.6708-0.93526 2.5645-1.3965 9.9226-13.674 24.863-21.516 44.02-21.441 4.8852 0.019 9.6289 0.65516 14.217 1.7988 0.0949-0.11442 0.18748-0.23069 0.26562-0.35352 0.71034-1.1166 0.71986-2.5964-0.0312-4.082-7.4195-2.6329-15.49-4.6224-24.252-5.8145z" fill="#000000" opacity=".6"/>
   <path d="m121.49 13.559c-44.669-0.33584-100.32 35.904-99.797 110.64 0.34707 49.552 45.398 120.4 112.27 119.32 75.281-1.2188 110.63-56.873 107.39-110.64-4.0721-67.596-51.465-118.81-119.86-119.32zm-17.916 29.988c2.5097-0.04039 5.0498 0.08575 7.6113 0.38477 68.355 7.9794 92.564 67.622 91.834 98.688-1.7256 73.412-53.514 89.386-86.953 81.922-58.817-13.129-76.609-67.083-78.229-94.586-2.8222-47.921 28.091-85.802 65.736-86.408z" fill="#ff8080"/>
  </g>
  <path d="m100.26 36.366c-40.606 0.65341-73.95 41.513-70.906 93.203 1.4629 24.84 15.168 69.676 56.83 91.922-2.3845-1.3969-4.821-3.0162-7.4551-4.8555-3.7073-2.5887-7.7981-5.5927-11.346-8.6289-3.5476-3.0362-6.553-6.1045-9.1738-9.0449s-4.8581-5.7513-7.2871-9.2031-5.0491-7.5432-7.3184-11.826c-2.2693-4.2829-4.1872-8.756-5.6895-13.039-1.5023-4.2831-2.587-8.3731-3.0664-12.209-0.47944-3.8359-0.35211-7.4124 0.0957-9.875 0.44781-2.4625 1.2152-3.8056 1.7578-4.0606s0.86174 0.57759 1.373 2.0156 1.2143 3.4823 1.8535 5.3359c0.37346 1.083 0.72864 2.1225 1.084 3.1894-1.8489-7.1518-2.843-13.784-3.1699-19.334-2.8222-47.921 28.091-85.802 65.736-86.408 2.5097-0.04039 5.0498 0.08575 7.6113 0.38477 45.61 5.3243 71.545 33.648 83.551 61.139 0.23838 0.31678 0.47711 0.63388 0.70313 0.95312 4.1639 7.968 3.5844 8.4259 6.4609 13.859 0.15333 0.28963 2.2564 5.8866 2.4141 6.166-6.3798-34.735-41.649-84.022-95.85-89.27-2.7688-0.26806-5.5019-0.45762-8.209-0.41406zm-48.326 140.3c1.2576 2.4444 2.3945 4.5399 3.2402 5.7676 0.42613 0.61858 0.76788 1.0056 1.041 1.252-1.5369-2.3154-2.9642-4.6594-4.2812-7.0195z" fill="#000000" opacity=".4"/>
 </g>
 <path d="m182.45 80.766c-15.646-21.348-40.607-39.583-77.473-43.886-2.763-0.32254-5.5019-0.45762-8.209-0.41406-40.606 0.65341-73.95 41.513-70.906 93.203 1.7471 29.665 20.938 87.864 84.381 102.03 18.034 4.0255 41.017 1.7306 59.723-11.469m-69.88-176.58c2.5097-0.04039 5.0498 0.08575 7.6113 0.38477 68.355 7.9794 92.564 67.622 91.834 98.688-1.7256 73.412-53.514 89.386-86.953 81.922-58.817-13.129-76.609-67.083-78.229-94.586-2.8222-47.921 28.091-85.802 65.736-86.408z" fill="none"/>
 <g transform="translate(-3.4876 .10012)" fill="#000000">
  <path d="m39.926 146.1c-0.63919-1.8537-1.3423-3.8991-1.8536-5.3371-0.51131-1.438-0.831-2.2692-1.3736-2.0143s-1.3102 1.5981-1.758 4.0606-0.57554 6.0389-0.09609 9.8748c0.47944 3.8359 1.5658 7.9256 3.068 12.209s3.4195 8.7567 5.6888 13.04c2.2693 4.2829 4.8897 8.3733 7.3187 11.825s4.6661 6.2641 7.2869 9.2045 5.6249 6.0084 9.1725 9.0446 7.6384 6.0404 11.346 8.6291c3.7073 2.5887 7.0312 4.762 10.355 6.4559 3.3238 1.6938 6.6479 2.9084 9.3963 3.8352 2.7484 0.92676 4.922 1.5661 6.3923 1.6936s2.2376-0.25613 2.3651-0.89448c0.12754-0.63836-0.38461-1.5346-1.3749-2.525-0.99031-0.99034-2.461-2.0774-2.5885-2.4928-0.12748-0.41545 1.0869-0.1598 3.866 0.4152 2.7791 0.57499 7.1284 1.4704 11.666 2.0776 4.5379 0.60716 9.2688 0.92681 14.222 0.76697 4.9533-0.15983 10.132-0.79915 14.542-1.726 4.4101-0.92683 8.0543-2.1416 12.624-4.3783s10.068-5.4977 14.478-8.5657 7.7345-5.9449 10.546-9.396c2.8119-3.4511 5.1137-7.4793 6.8712-10.835 1.7575-3.3554 2.9724-6.0408 2.0463-4.9552-0.92604 1.0856-3.9955 5.9456-7.032 10.101s-6.0399 7.606-9.1404 10.323-6.2954 4.6979-9.7158 6.3282c-3.4203 1.6303-7.0624 2.9082-9.8113 3.7394-2.7488 0.8311-4.6019 1.2145-6.7762 1.0547s-4.6656-0.86247-7.7661-1.6296c-3.1005-0.76715-6.8069-1.5979-10.93-2.8444-4.1233-1.2466-8.6607-2.9081-13.359-4.698-4.6984-1.7899-9.5556-3.7072-13.391-5.529s-6.6476-3.5474-9.1406-5.2734c-2.493-1.7259-4.6661-3.4516-5.3693-3.7074-0.70324-0.25582 0.06375 0.95857 0.38358 1.7891 0.31984 0.83054 0.19202 1.2779 1.0253 2.1752 0.83324 0.8973 2.6182 2.236 5.5904 4.1216 2.9721 1.8855 7.1273 4.3147 11.474 6.4879 4.3464 2.1732 8.885 4.0909 13.519 5.6888s9.3645 2.8764 12.848 3.6754c3.4835 0.79894 5.721 1.1186 6.8073 1.757 1.0862 0.63842 1.0223 1.5976 0.41501 2.3651-0.60731 0.76758-1.7566 1.3422-3.6116 1.822s-4.4091 0.86292-8.3415 0.76705c-3.9323-0.0959-9.2353-0.67089-15.053-1.9174-5.8173-1.2465-12.144-3.1638-17.354-5.3052-5.2098-2.1414-9.3002-4.5062-13.519-7.127-4.2189-2.6208-8.565-5.497-11.506-7.8941-2.9405-2.3972-4.4745-4.3146-5.1134-5.6575s-0.38326-2.1099 0.1278-2.4928c0.51106-0.38292 1.2793-0.38292 1.0877-1.2448s-1.3436-2.59-3.4847-5.6258-5.2735-7.3829-8.2777-12.465c-3.0042-5.0816-5.8807-10.898-8.0219-16.683-2.1412-5.7846-3.5476-11.538-4.3145-15.597-0.76696-4.0588-0.89482-6.4241-1.342-7.8936s-1.2145-2.045-1.8535-1.9177c-0.63897 0.12728-1.1502 0.95805-1.5984 1.0219-0.44816 0.0638-0.83114-0.63828-1.1186-3.6734-0.28751-3.0351-0.47936-8.407-0.70301-8.6312s-0.47937 4.6985-0.38354 8.4062 0.54317 6.2 1.1505 9.3007c0.60735 3.1007 1.3741 6.8068 2.2371 10.291s1.8216 6.7432 3.0362 10.099c1.2146 3.3562 2.6845 6.8071 4.3465 10.355 1.662 3.5478 3.5154 7.1907 4.7619 9.6517s1.8856 3.7392 1.8857 4.1869c1.48e-4 0.44766-0.63885 0.0643-1.6301-1.3748-0.9913-1.439-2.333-3.9307-3.8669-6.9667-1.5339-3.0359-3.26-6.6159-4.5384-9.5242-1.2783-2.9082-2.1094-5.1457-2.8763-7.4785s-1.4702-4.7623-2.1093-6.8075-1.2146-3.7075-1.8537-5.5612z" opacity=".6" stroke="#000000" stroke-width=".15"/>
  <path d="m211.96 129.99c0.8629 2.1734 2.0774 4.3467 3.9318 5.5614s4.3469 1.4703 6.456 1.2784c2.1092-0.19191 3.8356-0.83133 4.3785-3.6742s-0.0968-7.896-1.7904-14.862c-1.6937-6.9663-4.4427-15.853-7.6385-23.331s-6.8395-13.551-10.419-18.728-7.0951-9.4601-10.355-13.007c-3.2598-3.5474-6.2641-6.3599-7.99-8.2458s-2.1734-2.8446-2.429-3.5159-0.31958-1.0549-0.54264-0.60905c-0.22307 0.44589-0.6074 1.727-0.89507 2.6221-0.28768 0.8951-0.47926 1.406-1.0558 1.2779s-1.5331-0.89331-4.6654-3.0987c-3.1323-2.2054-8.437-5.8484-13.327-8.8526-4.8898-3.0042-9.364-5.3691-14.286-7.5105-4.9219-2.1414-10.291-4.0588-15.34-5.4331-5.0498-1.3743-9.7793-2.2052-14.669-2.7805-4.8902-0.57534-9.939-0.89488-14.957-0.70317s-10.003 0.8947-14.19 1.47c-4.1871 0.57533-7.5741 1.0227-9.4283 1.0866-1.8543 0.06394-2.1738-0.25555-1.9815-0.83136s0.89532-1.4068 2.8749-2.3964c1.9795-0.98968 5.2436-2.1417 9.5252-3.3559s9.5888-2.493 15.021-3.3558c5.4325-0.86276 10.995-1.3103 16.843-1.2783 5.8479 0.03199 11.985 0.54344 17.738 1.662s11.122 2.8446 16.044 4.7301 9.3963 3.9312 12.304 5.4971 4.2505 2.6526 5.3057 3.1319c1.0552 0.47926 1.8222 0.35141 3.386 1.1174s3.9323 2.4303 6.5529 4.1241 5.4972 3.4198 7.5425 4.6981 3.2599 2.1094 1.2788 0.47976-7.1595-5.7212-12.145-9.0769-9.7795-5.9764-15.373-8.4373-11.985-4.7619-17.673-6.3599c-5.6889-1.5981-10.674-2.4928-13.455-3.1321-2.7808-0.63922-3.356-1.0227-5.0181-1.2784s-4.4095-0.38354-8.0217-0.25571c-3.6121 0.12784-8.0849 0.51122-12.368 1.0546-4.283 0.54335-8.3729 1.2463-12.304 2.2052-3.9315 0.95886-7.7017 2.173-11.601 3.7392-3.8997 1.5662-7.9253 3.4832-11.985 5.8805-4.0595 2.3973-8.1491 5.2728-12.816 9.0126-4.6669 3.7399-9.9068 8.3408-13.966 12.528-4.0593 4.187-6.9351 7.9575-9.8439 12.688-2.9089 4.7308-5.8483 10.418-7.766 14.381-1.9177 3.9632-2.8124 6.1999-3.6756 8.6296-0.86319 2.4296-1.6937 5.0489-2.397 7.926-0.70333 2.8771-1.2783 6.0077-1.6619 8.437s-0.57528 4.1545-0.57536 5.4653c-8.2e-5 1.3108 0.19156 2.2051 0.448 2.5245 0.25644 0.31942 0.57577 0.064 0.89432-1.6246s0.63925-4.8314 1.0867-7.6115c0.44742-2.7801 1.0229-5.2099 1.6939-7.6702 0.67101-2.4603 1.4384-4.9544 2.5567-7.8299 1.1183-2.8756 2.5892-6.137 3.9632-8.981 1.3741-2.844 2.6529-5.2738 4.3783-8.0535s3.8997-5.9133 6.6796-9.3642 6.1689-7.2235 9.6201-10.387 6.9678-5.721 9.7799-7.7342 4.9221-3.4838 7.3503-4.7937 5.1782-2.4611 7.3511-3.1959c2.1729-0.73486 3.7716-1.0546 5.5287-1.4699 1.7571-0.41533 3.6761-0.92706 7.3178-1.4381 3.6417-0.51109 9.0142-1.0228 14.127-1.1825 5.113-0.15975 9.9718 0.03205 14.35 0.57534 4.378 0.54329 8.2778 1.4383 9.4926 2.0453s-0.2556 0.92665-1.7584 1.0866-3.0356 0.15992-3.9628 0.60705-1.2466 1.3414-0.57442 2.3016c0.6722 0.96016 2.3319 1.9815 5.4956 3.3556s7.8306 3.1002 12.305 5.0177c4.474 1.9175 8.7571 4.027 12.656 6.2002 3.8988 2.1731 7.4147 4.4105 11.282 7.6062 3.8668 3.1957 8.0858 7.3508 11.633 11.186s6.4238 7.3507 8.629 10.355c2.2052 3.0042 3.7392 5.4969 5.561 8.4055s3.9309 6.2319 6.0084 9.9713c2.0774 3.7394 4.1227 7.8938 5.7527 11.729s2.8443 7.3505 4.091 9.8437c1.2466 2.4932 2.5248 3.9631 3.4196 5.7846 0.89483 1.8214 1.4062 3.9946 2.2691 6.168z" opacity=".6" stroke="#000000" stroke-width=".15"/>
  <path d="m195.52 183.15c-13.008 19.963-35.302 27.67-52.008 26.207-11.369-0.99547-24.53-5.6508-36.887-13.488 0.38385 1.6801 1.4863 3.3642 2.7793 4.9805 1.7624 2.203 3.8799 4.2783 6.4102 6.1758 1.259 0.49358 2.5263 0.98333 3.7852 1.4629 4.6984 1.7899 9.236 3.4507 13.359 4.6973 4.1233 1.2466 7.8292 2.0766 10.93 2.8438 3.1005 0.76715 5.5933 1.4711 7.7676 1.6309s4.0265-0.22358 6.7754-1.0547c2.7489-0.8311 6.3902-2.1099 9.8106-3.7402s6.6163-3.6111 9.7168-6.3281c3.1004-2.717 6.1042-6.167 9.1406-10.322s6.1052-9.016 7.0312-10.102c0.2054-0.24078 0.30031-0.28587 0.3125-0.18945 0.4075-0.93996 0.75908-1.8556 1.0762-2.7734z" opacity=".4"/>
  <path d="m196.51 96.618c2.2766 5.3436 5.932 14.251 8.0508 21.709 2.26 7.9547 2.7126 14.102 3.0742 20.701s0.63273 13.65-0.94922 22.6c-1.5819 8.9498-5.0167 19.794-9.627 29.15s-10.394 17.221-15.502 22.51c-5.1075 5.2885-9.5358 7.9991-12.771 9.875s-5.2776 2.9162-7.9453 4.0117-5.9576 2.2457-9.6816 3.2207c-3.7241 0.97501-7.8776 1.7724-12.305 2.252s-9.1233 0.63939-14.094 0.25586-10.211-1.3103-14.957-2.4609c-4.7464-1.1506-8.996-2.5246-13.119-4.1387-4.1232-1.6141-8.117-3.4675-11.352-5.1797s-5.7097-3.2813-9.252-5.9199c-3.5422-2.6386-8.1511-6.3442-12.49-10.57-4.3391-4.2261-8.4076-8.9729-11.549-13.086s-5.3562-7.5928-7.5625-11.578-4.4032-8.4763-6.4609-12.799c-2.0577-4.3225-3.976-8.477-5.7656-12.248s-3.4511-7.16-4.9531-10.164-2.8454-5.6245-3.7402-8.373c-0.69853-2.1456-1.128-4.3655-1.6309-6.4844 3.5482 49.101 47.684 114.67 112.04 113.62 16.92-0.27394 31.816-3.3051 44.717-8.4395 2.4638-1.6583 6.5038-3.6748 10.352-5.8906 4.1062-2.3648 7.9732-4.9542 11.312-7.5586 3.3393-2.6044 6.153-5.2266 9.5879-8.8691 3.4349-3.6426 7.4947-8.3099 10.562-12.4 3.0678-4.0905 5.147-7.6062 6.9844-11.025 1.8374-3.4191 3.4354-6.7453 4.9531-10.867 1.5177-4.1219 2.9563-9.0455 4.1387-14.062 1.1823-5.017 2.1104-10.13 2.6855-14.668 0.57518-4.5378 0.79888-8.503 0.70313-9.3184-0.0958-0.81533-0.51243 1.5179-1.0879 4.9707s-1.3098 8.0216-2.3965 12.48c-1.0867 4.4589-2.524 8.8049-4.3457 11.857-1.8216 3.0526-4.0273 4.8099-5.4023 4.9375s-1.918-1.3746-1.4863-3.2441 1.8385-4.1072 2.6211-8.3242c0.78262-4.217 0.94214-10.42 0.91016-15.645-0.032-5.225-0.25575-9.4766-0.87891-13.902-0.35501-2.5214-0.84519-5.066-1.377-7.377 0.43445 2.999 0.52019 5.3591 0.21094 6.9785-0.54288 2.8428-2.2678 3.4819-4.377 3.6738-2.1092 0.19191-4.6026-0.0626-6.457-1.2774-1.8544-1.2147-3.0687-3.389-3.9316-5.5625s-1.3747-4.3465-2.2695-6.168c-0.89483-1.8214-2.1714-3.2919-3.418-5.7852s-2.4618-6.0085-4.0918-9.8438c-1.6087-3.7851-3.6225-7.877-5.6719-11.578z" opacity=".4" stroke="#000000" stroke-width=".15"/>
 </g>
 <path d="m45.25 119.39c-0.08089 1.7e-4 -0.16116 0.01-0.24024 0.0293-1.2652 0.31575-2.3049 3.2097-2.418 7.0527-0.11311 3.843 0.7006 8.6313 1.7402 13.604s2.3044 10.123 4.4062 15.729c2.1019 5.6051 5.0386 11.662 7.6602 16.656 2.6216 4.9946 4.9281 8.9264 6.7812 11.842s3.254 4.8121 4.2715 5.8066 1.6489 1.0856 1.9648 1.4688c0.31596 0.38317 0.31605 1.063 0.0449 1.7188-0.27113 0.6558-0.81253 1.2867-0.24805 2.5527s2.2372 3.1652 5.7402 5.9902 8.8352 6.575 14.236 9.8066c5.4011 3.2316 10.872 5.945 16.047 7.9336 5.1751 1.9886 10.056 3.254 14.621 4.0449s8.8144 1.1075 12.543 0.94922c0.57029-0.0242 1.0985-0.081 1.6406-0.12696 0.99775-0.13601 1.8875-0.29997 2.623-0.49023 1.855-0.47981 3.004-1.0547 3.6113-1.8223 0.60731-0.76758 0.67024-1.7249-0.41601-2.3633-1.0863-0.63842-3.3231-0.95887-6.8066-1.7578-3.4835-0.79894-8.2137-2.0779-12.848-3.6758-4.634-1.5979-9.1731-3.5163-13.52-5.6895-4.3464-2.1732-8.5005-4.6008-11.473-6.4863-2.9721-1.8855-4.7586-3.2258-5.5918-4.123-0.83324-0.8973-0.70555-1.3433-1.0254-2.1738-0.31984-0.83053-1.086-2.0449-0.38281-1.7891 0.70324 0.25582 2.8761 1.9811 5.3691 3.707s5.3052 3.4516 9.1406 5.2734c2.8078 1.3337 6.1658 2.7177 9.6055 4.0664-2.5303-1.8975-4.6477-3.9728-6.4102-6.1758-1.1208-1.401-2.0974-2.8524-2.5879-4.3086-1.3704-0.9161-2.6063-1.8064-3.8574-2.7539-3.0736-2.3278-6.5763-4.0236-9.6498-6.6452s-5.8531-5.1528-8.0678-7.1641-3.796-4.518-5.6945-6.7103-3.9784-5.0848-5.9219-8.1582-3.7516-6.3279-5.4238-10.057c-1.6722-3.7287-3.2083-7.9324-4.6094-11.842-1.401-3.9094-2.6661-7.5266-4.4512-10.758-1.7851-3.2312-4.0919-6.0791-5.9902-8.6328-1.7797-2.3941-3.2008-4.5299-4.4141-4.5274zm67.08 87.732c1.2584 0.49339 2.5249 0.98355 3.7832 1.4629-1.2583-0.47934-2.5248-0.96953-3.7832-1.4629z" fill="#ffffff"/>
 <path d="m121.54 17.819c-5.8479-0.03199-11.409 0.41458-16.842 1.2773-5.4325 0.86276-10.74 2.1433-15.021 3.3574-4.2816 1.2142-7.5459 2.3658-9.5254 3.3555s-2.6828 1.8207-2.875 2.3965 0.12816 0.89402 1.9824 0.83008c1.8543-0.06394 5.2406-0.51061 9.4277-1.0859 4.1871-0.57533 9.1714-1.279 14.189-1.4707 5.018-0.19172 10.067 0.12778 14.957 0.70312 4.8902 0.57534 9.6202 1.4069 14.67 2.7812s10.418 3.2922 15.34 5.4336 9.3953 4.5055 14.285 7.5098c4.8898 3.0042 10.196 6.6481 13.328 8.8535 3.1323 2.2054 4.0875 2.9696 4.6641 3.0977 0.57657 0.12809 0.76897-0.38224 1.0566-1.2773 0.28768-0.8951 0.67147-2.1752 0.89454-2.6211 0.22306-0.44589 0.28734-0.06383 0.54296 0.60742 0.25563 0.67125 0.70375 1.6298 2.4297 3.5156 1.7259 1.8859 4.7304 4.6987 7.9902 8.2461s6.7742 7.8306 10.354 13.008 7.2241 11.25 10.42 18.729c3.1958 7.4782 5.945 16.364 7.6387 23.33 0.7353 3.0244 1.2588 5.6642 1.5859 7.9434-3e-3 -0.0206-5e-3 -0.0379-8e-3 -0.0586 0.53176 2.311 1.0219 4.8556 1.377 7.377 0.62316 4.4258 0.84693 8.6773 0.87891 13.902 2e-3 0.27924-4e-3 0.58282-4e-3 0.86719 0.35913 0.84576 0.83472 1.3496 1.5352 1.4121 1.5152 0.13523 4.0446-1.7179 5.6484-6.0781 1.6039-4.3602 2.2818-11.233 2.1914-17.605-0.0904-6.3723-0.94797-12.249-2.123-17.627s-2.6678-10.26-5.2891-16.361c-2.6212-6.1011-6.3721-13.423-10.395-19.932-4.0224-6.5082-8.3169-12.202-12.43-16.654-4.1128-4.4518-8.0459-7.6614-11.074-10.17-1.492-1.2359-2.7653-2.301-4.1562-3.3887-1.9027-1.1736-4.1466-2.5403-6.3145-3.9414-2.6206-1.6938-4.9889-3.3571-6.5527-4.123s-2.3316-0.63793-3.3867-1.1172-2.3966-1.5669-5.3047-3.1328-7.3832-3.6106-12.305-5.4961c-4.9214-1.8855-10.291-3.6119-16.043-4.7305-5.7522-1.1185-11.89-1.6301-17.738-1.6621zm101.73 110.46c7e-3 0.0702 0.0151 0.14161 0.0215 0.21094-7e-3 -0.0695-0.0145-0.14057-0.0215-0.21094zm0.12695 1.7871c4e-3 0.10243 0.0112 0.21071 0.0137 0.31054-3e-3 -0.10021-0.01-0.20774-0.0137-0.31054zm0 1.5938c-4e-3 0.0962-2e-3 0.20385-8e-3 0.29687 6e-3 -0.0934 4e-3 -0.20032 8e-3 -0.29687z" fill="#ffffff"/>
</svg>
