<?xml version="1.0" encoding="UTF-8" standalone="no"?>
<svg
   xmlns:dc="http://purl.org/dc/elements/1.1/"
   xmlns:cc="http://creativecommons.org/ns#"
   xmlns:rdf="http://www.w3.org/1999/02/22-rdf-syntax-ns#"
   xmlns:svg="http://www.w3.org/2000/svg"
   xmlns="http://www.w3.org/2000/svg"
   xmlns:sodipodi="http://sodipodi.sourceforge.net/DTD/sodipodi-0.dtd"
   xmlns:inkscape="http://www.inkscape.org/namespaces/inkscape"
   cursor="default"
   viewBox="0 0 256 256"
   version="1.1"
   id="svg31"
   sodipodi:docname="BurnScar.svg"
   inkscape:version="0.92.4 (5da689c313, 2019-01-14)">
  <metadata
     id="metadata37">
    <rdf:RDF>
      <cc:Work
         rdf:about="">
        <dc:format>image/svg+xml</dc:format>
        <dc:type
           rdf:resource="http://purl.org/dc/dcmitype/StillImage" />
        <dc:title></dc:title>
      </cc:Work>
    </rdf:RDF>
  </metadata>
  <defs
     id="defs35">
    <inkscape:path-effect
       effect="bspline"
       id="path-effect843"
       is_visible="true"
       weight="33.333333"
       steps="2"
       helper_size="0"
       apply_no_weight="true"
       apply_with_weight="true"
       only_selected="false" />
    <inkscape:path-effect
       effect="simplify"
       id="path-effect841"
       is_visible="true"
       steps="1"
       threshold="0.00380376"
       smooth_angles="360"
       helper_size="0"
       simplify_individual_paths="false"
       simplify_just_coalesce="false"
       simplifyindividualpaths="false"
       simplifyJustCoalesce="false" />
    <inkscape:path-effect
       only_selected="false"
       apply_with_weight="true"
       apply_no_weight="true"
       helper_size="0"
       steps="2"
       weight="33.333333"
       is_visible="true"
       id="path-effect825"
       effect="bspline" />
    <inkscape:path-effect
       simplifyJustCoalesce="false"
       simplifyindividualpaths="false"
       simplify_just_coalesce="false"
       simplify_individual_paths="false"
       helper_size="0"
       smooth_angles="360"
       threshold="0.00380376"
       steps="1"
       is_visible="true"
       id="path-effect823"
       effect="simplify" />
    <inkscape:path-effect
       effect="simplify"
       id="path-effect819"
       is_visible="true"
       steps="1"
       threshold="0.00380376"
       smooth_angles="360"
       helper_size="0"
       simplify_individual_paths="false"
       simplify_just_coalesce="false"
       simplifyindividualpaths="false"
       simplifyJustCoalesce="false" />
    <inkscape:path-effect
       effect="bspline"
       id="path-effect815"
       is_visible="true"
       weight="33.333333"
       steps="2"
       helper_size="0"
       apply_no_weight="true"
       apply_with_weight="true"
       only_selected="false" />
    <inkscape:path-effect
       effect="simplify"
       id="path-effect813"
       is_visible="true"
       steps="1"
       threshold="0.00380376"
       smooth_angles="360"
       helper_size="0"
       simplify_individual_paths="false"
       simplify_just_coalesce="false"
       simplifyindividualpaths="false"
       simplifyJustCoalesce="false" />
  </defs>
  <sodipodi:namedview
     pagecolor="#ffffff"
     bordercolor="#666666"
     borderopacity="1"
     objecttolerance="10"
     gridtolerance="10"
     guidetolerance="10"
     inkscape:pageopacity="0"
     inkscape:pageshadow="2"
     inkscape:window-width="1304"
     inkscape:window-height="745"
     id="namedview33"
     showgrid="false"
     inkscape:zoom="3.6875"
     inkscape:cx="139.6442"
     inkscape:cy="133.69853"
     inkscape:window-x="-8"
     inkscape:window-y="-8"
     inkscape:window-maximized="1"
     inkscape:current-layer="svg31"
     inkscape:snap-global="false" />
  <path
     style="fill:#ff2a2a;stroke:#000000;stroke-width:0.30000001;stroke-linecap:butt;stroke-linejoin:miter;stroke-miterlimit:4;stroke-dasharray:none;stroke-opacity:1"
     d="M 79.561557,85.982054 C 77.016949,82.983051 77.95806,72.435789 85.401678,65.933396 92.845296,59.431003 110.65653,54.725318 116.56871,53.471654 c 5.91218,-1.253664 28.22782,12.213283 33.8747,15.705662 5.64688,3.49238 17.51335,10.949074 25.36469,18.79079 7.85134,7.841715 15.39842,21.341984 10.81827,25.418544 -4.58016,4.07657 -22.85124,9.64191 -28.5131,16.7977 -5.66186,7.1558 -7.88664,19.20675 -8.75888,29.97197 -0.87224,10.76522 0.0726,33.19633 -5.07228,31.15753 -5.14489,-2.03881 -14.54384,-5.76339 -21.32393,-9.34979 -6.78009,-3.5864 -9.55822,-5.59219 -17.75993,-2.00521 -8.201712,3.58698 -34.147403,22.88861 -32.250366,18.81592 1.897037,-4.07269 7.103293,-15.24983 7.869029,-24.59885 0.765736,-9.34901 -2.030017,-21.63977 -2.103077,-28.21222 -0.07306,-6.57245 2.213148,-11.65016 4.263838,-16.93105 2.05069,-5.2809 8.165228,-24.77099 6.143273,-29.469087 -2.021954,-4.698101 -7.014782,-10.582506 -9.55939,-13.581509 z"
     id="path811" />
  <path
     id="path892"
     style="opacity:1;fill:#ff8080;fill-opacity:1;fill-rule:evenodd;stroke:none;stroke-width:0.30000001;stroke-linecap:round;stroke-linejoin:round;stroke-miterlimit:4;stroke-dasharray:none;stroke-dashoffset:0;stroke-opacity:1"
     d="m 102.78216,170.66778 c 0,1.37676 -2.74729,2.49285 -6.136245,2.49285 -3.388952,0 -6.136239,-1.11609 -6.13624,-2.49285 0.437309,-1.00192 6.819195,0.99735 6.13624,-2.49286 -0.6508,-3.32589 6.136255,1.11609 6.136245,2.49286 z m 25.31203,-89.167353 c 0,5.718865 -2.40388,10.354921 -5.36922,10.354918 -2.96534,3e-6 -5.36922,-4.636053 -5.36922,-10.354918 0,-5.718866 2.40388,-10.354922 5.36922,-10.354919 2.96534,-3e-6 5.36922,4.636053 5.36922,10.354919 z M 91.276705,178.33809 c 5e-6,0.74134 -1.030235,1.34231 -2.3011,1.34231 -1.270861,0 -2.301095,-0.60097 -2.30109,-1.34231 4e-6,-0.74133 1.030235,-1.3423 2.30109,-1.3423 1.270858,0 2.301096,0.60097 2.3011,1.3423 z M 104.69974,152.4508 c 0,3.81257 -4.17545,3.92023 -7.988021,3.92023 -3.812576,0 -5.818534,-0.10765 -5.818534,-3.92023 0,-3.81258 3.090704,-6.90328 6.90328,-6.90328 3.812575,0 6.903275,3.09071 6.903275,6.90328 z m 44.10429,-13.42305 c 0,4.02438 -3.17656,7.28679 -7.09504,7.28679 -3.91848,0 -7.09503,-3.26241 -7.09503,-7.28679 0,-4.02438 3.17655,-7.2868 7.09503,-7.2868 3.91848,0 7.09504,3.26241 7.09504,7.2868 z m 23.01093,-29.5307 c 0,3.60078 -5.83937,1.63843 -3.43238,5.43502 -4.64385,-2.16949 -11.02558,5.75897 -11.02558,2.1582 0,-3.60076 12.07665,-14.11298 12.92389,-14.11298 0.84724,-2e-5 1.53407,2.91898 1.53407,6.51976 z M 147.04062,85.612416 c -6.64808,26.995054 -23.09905,-6.104734 3.68098,-6.796595 6.35429,3e-6 -3.68098,1.395448 -3.68098,6.796595 z M 115.0186,111.86866 c -8.88828,8.6332 -17.708706,13.96902 -19.700985,11.91788 -1.992286,-2.05114 3.598025,-10.71251 12.486305,-19.34572 8.88828,-8.633211 17.70872,-13.969027 19.70099,-11.917875 1.99227,2.051145 -3.59804,10.712515 -12.48631,19.345715 z m 11.62789,52.13704 c 3.67748,6.5586 10.83555,9.8423 6.95582,12.01771 -3.87973,2.17542 -10.00607,-1.37785 -13.68355,-7.93645 -3.67749,-6.55861 -3.51353,-13.63893 0.36621,-15.81434 3.87974,-2.17541 2.68404,5.17448 6.36152,11.73308 z m -16.19401,-0.0494 c 0,1.48267 -4.46435,2.68461 -9.97141,2.68461 -5.507053,0 -9.971398,-1.20194 -9.971395,-2.68461 -3e-6,-1.48267 5.622621,-6.06334 9.971395,-2.68461 4.87571,3.78812 9.95336,1.31025 9.97141,2.68461 z m 18.79226,-36.05046 c 0,8.68421 -2.14633,15.72414 -4.79395,15.72413 -2.64762,-1e-5 -4.79394,-7.03994 -4.79394,-15.72413 0,-8.6842 2.14632,-15.72413 4.79394,-15.72414 2.64762,-10e-6 4.79395,7.03993 4.79395,15.72414 z m 12.7989,-9.20769 c 0,11.01411 4.55703,8.82417 -0.5264,8.82417 -5.08344,1e-5 -9.20438,-8.92869 -9.20438,-19.94281 0.46365,-27.086659 6.78097,-2.41667 9.73078,11.11864 z M 108.91842,79.966362 c 0,4.659817 -3.69168,8.437345 -8.24559,8.437342 -4.553907,-5e-6 -8.245575,-3.777531 -8.245575,-8.437342 0,-4.659811 3.691668,-8.437337 8.245575,-8.437342 4.55391,-3e-6 8.24559,3.777525 8.24559,8.437342 z m 1.53406,54.650948 c 0,6.88382 -2.74729,12.46426 -6.13625,12.46426 -3.38896,0 5.20901,-12.92997 -3.42438,-14.63375 -6.753554,-1.3328 0.0354,-10.29476 3.42438,-10.29476 3.38896,0 6.13625,5.58043 6.13625,12.46425 z M 80.414095,84.928387 c -0.59273,-0.965597 1.11873,-12.328265 7.58765,-17.553742 6.46892,-5.225478 21.650755,-14.313685 32.833305,-11.764815 11.18253,2.548871 20.17209,15.281421 28.11471,17.920553 9.0423,3.004528 18.40562,12.169804 25.72704,18.158572 7.32142,5.98877 15.26167,20.626405 11.07397,20.296645 -4.18769,2.92447 -13.49638,2.64842 -19.41014,7.42847 -5.91375,4.78003 -12.50608,11.16813 -15.26354,21.73826 -2.75747,10.57012 -2.72588,21.18601 -4.17925,30.37525 -1.45338,9.18922 -0.0375,15.25701 -4.69664,16.47844 -4.65914,1.22144 -10.59341,-3.10565 -17.17363,-7.81218 -6.58021,-4.70654 -12.09452,-7.87221 -18.8589,-3.55809 -6.764375,4.31412 -31.935925,23.72669 -30.065895,18.99453 1.87003,-4.73217 5.91854,-14.97705 6.36315,-25.68734 0.44461,-10.71027 -3.75741,-25.25267 -0.72985,-34.0117 3.02756,-8.75904 9.7559,-16.92801 11.04538,-24.78009 1.28947,-7.85208 -4.82631,-19.815715 -6.60306,-20.428615 -1.77675,-0.6129 1.77675,0.6129 -1.10467,-1.14219 -2.88141,-1.755102 -4.06691,-3.686361 -4.65963,-4.651958 z"
     inkscape:connector-curvature="0"
     sodipodi:nodetypes="cscscscscscscscssssssssssscscscccscscsssssscscscssssscsccsssssssssscssssccccccsssscscc" />
  <path
     id="path848"
     style="opacity:1;fill:#ffaaaa;fill-opacity:1;fill-rule:evenodd;stroke:none;stroke-width:0.35340908;stroke-linecap:round;stroke-linejoin:round;stroke-miterlimit:4;stroke-dasharray:none;stroke-dashoffset:0;stroke-opacity:1"
     d="m 99.929835,144.80709 c -2.117186,4.63126 -6.759713,7.04792 -10.369371,5.39776 -3.609655,-1.65016 -4.81954,-6.74225 -2.702355,-11.37351 2.117186,-4.63126 6.759711,-7.04792 10.36937,-5.39776 3.609651,1.65016 4.819531,6.74225 2.702356,11.37351 z m 42.684465,13.28332 c -1.98626,8.30273 -1.33555,15.45763 -2.98305,15.45763 -3.09824,1.52331 -7.22357,7.74865 -2.98306,-15.45763 1.3624,-7.45576 -0.11312,-15.45766 2.98306,-15.45763 3.87528,-5.34666 7.77894,-4.5895 2.98305,15.45763 z m 18.44068,-44.74575 c 0,2.54612 -2.24616,4.61016 -5.01695,4.61016 -2.77078,0 -5.01695,-2.06404 -5.01695,-4.61017 0,-2.54613 2.24617,-4.61017 5.01695,-4.61017 2.77079,0 5.01696,2.06405 5.01695,4.61018 z m 9.49153,-15.322051 c 2e-5,3.369881 -5.64576,6.101711 -12.61018,6.101711 -6.96441,0 -12.61018,-2.73183 -12.61017,-6.101711 0,-3.369874 5.64577,-6.101696 12.61017,-6.101696 6.96441,-3e-6 12.61019,2.73182 12.61018,6.101696 z m -26.5486,27.568151 c -4.50766,6.62465 -10.4204,10.45819 -13.20648,8.56245 -2.78608,-1.89574 -1.39045,-8.8029 3.11722,-15.42756 4.50768,-6.62466 10.42043,-10.4582 13.20649,-8.56243 2.78606,1.89575 1.39043,8.80289 -3.11723,15.42754 z M 138.5465,90.971755 c 1e-5,5.766222 -1.63908,10.440665 -3.66101,10.440685 -2.02192,0 -7.72881,-6.030382 -7.72881,-11.796613 0,-5.766231 5.70689,-9.084751 7.72881,-9.084746 2.02193,1.1e-5 3.66101,4.674456 3.66101,10.440674 z m -13.28814,-4.610167 c 0,6.664858 -2.96267,10.711859 -4.61017,10.711861 -1.64749,-2e-6 -2.98304,-5.402936 -2.98305,-12.067793 0,-6.66486 1.33556,-12.067797 2.98305,-12.067799 1.6475,2e-6 4.61017,6.758871 4.61017,13.423731 z m 7.05085,52.474602 c 2e-5,1.49772 -4.97798,2.71187 -11.11865,2.71187 -6.14066,0 -11.11865,-1.21415 -11.11864,-2.71187 -1e-5,-1.49772 4.97798,-2.71187 11.11864,-2.71187 6.14067,0 11.11867,1.21415 11.11865,2.71187 z M 113.32616,83.649727 c 1.68181,9.42002 1.59022,21.778523 -9.35593,11.796612 -1.58074,-1.53703 -2.98839,-8.010468 -9.355916,-11.796609 -5.599935,-3.329724 4.18879,-11.796606 9.355916,-11.79661 5.16714,2e-6 8.21087,5.382937 9.35593,11.796607 z m 5.66708,19.830753 c 13.45227,-11.864207 13.13942,6.42722 11.95907,9.21043 -0.80838,1.85329 -7.47326,0.73443 -14.88644,-2.49905 -7.41319,-3.23348 -12.76745,-7.35714 -11.95908,-9.21043 0.80838,-1.853297 8.82078,7.84866 14.88645,2.49905 z m -20.98667,70.95477 c -4.278474,7.3875 -9.690578,12.25055 -12.088275,10.86192 -2.397705,-1.38862 1.890253,-7.48911 3.405432,-15.89059 3.663056,-20.31119 9.662841,-12.8329 12.088263,-10.86193 2.39772,1.38861 0.87305,8.50308 -3.40542,15.8906 z m 32.67552,-16.20924 c 1e-5,7.26395 -5.17704,12.68838 -11.52542,13.15255 -8.15384,0.59618 -14.53369,-3.05093 -11.52543,-13.15255 4.65809,-15.64165 -3.10066,-17.03816 11.52543,-13.15254 6.15193,1.63434 11.52542,5.88859 11.52542,13.15254 z m -7.86441,-36.61017 c 0,6.21554 -5.14971,8.96185 -10.44068,11.25423 -8.54188,3.70088 -11.91651,-3.07089 -10.44067,-11.25422 -6.183011,-6.89663 1.78093,-12.83985 10.44067,-11.25424 5.27938,0.96666 6.38406,8.51579 10.44068,11.25423 z M 87.310411,85.756561 c -4.556127,-2.928476 -4.655913,-12.738618 2.947434,-19.180832 7.603339,-6.44222 24.186145,-7.960652 30.854055,-9.67437 6.66792,-1.713721 18.14384,11.229938 23.29913,16.361839 5.15528,5.131906 12.88785,5.157577 18.95035,11.901781 6.06248,6.744201 25.14279,19.939131 19.81112,23.589401 -7.88812,5.4005 -29.06172,13.80875 -32.24763,27.66895 -2.41815,10.52009 -6.50483,31.2442 -6.74545,38.36248 -0.24062,7.11828 -2.07129,10.88605 -7.50242,10.02359 -5.43115,-0.86246 -22.96993,-16.58012 -29.0729,-12.05526 -6.10296,4.52486 -30.199845,24.94815 -28.468732,19.01057 1.731112,-5.93758 3.774776,-12.94717 4.403906,-25.85371 0.629134,-12.90655 -5.050275,-25.49238 -1.823915,-29.03926 3.226348,-3.54688 9.019655,-12.84666 11.125654,-21.99529 C 94.947,105.72781 92.462448,89.068061 87.310411,85.756561 Z"
     inkscape:connector-curvature="0"
     sodipodi:nodetypes="sssssscscsssssscscscscscsscscsscscscscscscscsscscsscscsssssscscscssacccssssssccs" />
  <path
     style="opacity:1;fill:#ffffff;fill-opacity:1;fill-rule:evenodd;stroke:none;stroke-width:0.30000001;stroke-linecap:round;stroke-linejoin:round;stroke-miterlimit:4;stroke-dasharray:none;stroke-dashoffset:0;stroke-opacity:1"
     d="M 85.423729,77.559322 C 87.46664,74.101864 94.850533,63.667417 107.66102,64.542373 99.780075,67.475811 92.283421,71.562124 85.423729,77.559322 Z"
     id="path909"
     inkscape:connector-curvature="0"
     sodipodi:nodetypes="ccc" />
  <path
     style="opacity:1;fill:#ffffff;fill-opacity:1;fill-rule:evenodd;stroke:none;stroke-width:0.30000001;stroke-linecap:round;stroke-linejoin:round;stroke-miterlimit:4;stroke-dasharray:none;stroke-dashoffset:0;stroke-opacity:1"
     d="m 122.96995,127.82258 c 0.55761,-0.95578 2.2891,4.53552 0.84301,5.34838 -2.12741,1.19584 -15.03233,0.93718 -16.57903,5.14175 -0.84362,2.29331 -2.71854,-2.25007 -1.31431,-2.65583 5.87052,-1.69633 14.83585,-4.03857 17.05033,-7.8343 z"
     id="path913"
     inkscape:connector-curvature="0"
     sodipodi:nodetypes="sssss" />
  <path
     style="opacity:1;fill:#ffffff;fill-opacity:1;fill-rule:evenodd;stroke:none;stroke-width:0.30000001;stroke-linecap:round;stroke-linejoin:round;stroke-miterlimit:4;stroke-dasharray:none;stroke-dashoffset:0;stroke-opacity:1"
     d="m 151.05085,85.152542 c -2.72429,4.115333 -4.91198,9.205478 -10.30509,16.677968 1.60911,-7.164839 2.94944,-14.582293 10.30509,-16.677968 z"
     id="path915"
     inkscape:connector-curvature="0"
     sodipodi:nodetypes="ccc" />
  <path
     sodipodi:nodetypes="ccc"
     inkscape:connector-curvature="0"
     id="path917"
     d="M 85.423729,77.559322 C 87.46664,74.101864 94.850533,63.667417 107.66102,64.542373 99.780075,67.475811 92.283421,71.562124 85.423729,77.559322 Z"
     style="opacity:0.75;fill:#ffd5d5;fill-opacity:1;fill-rule:evenodd;stroke:none;stroke-width:0.30000001;stroke-linecap:round;stroke-linejoin:round;stroke-miterlimit:4;stroke-dasharray:none;stroke-dashoffset:0;stroke-opacity:1" />
  <path
     sodipodi:nodetypes="sssss"
     inkscape:connector-curvature="0"
     id="path919"
     d="m 122.96995,127.82258 c 0.55761,-0.95578 2.2891,4.53552 0.84301,5.34838 -2.12741,1.19584 -15.03233,0.93718 -16.57903,5.14175 -0.84362,2.29331 -2.71854,-2.25007 -1.31431,-2.65583 5.87052,-1.69633 14.83585,-4.03857 17.05033,-7.8343 z"
     style="opacity:0.75;fill:#ffd5d5;fill-opacity:1;fill-rule:evenodd;stroke:none;stroke-width:0.30000001;stroke-linecap:round;stroke-linejoin:round;stroke-miterlimit:4;stroke-dasharray:none;stroke-dashoffset:0;stroke-opacity:1" />
  <path
     sodipodi:nodetypes="ccc"
     inkscape:connector-curvature="0"
     id="path921"
     d="m 151.05085,85.152542 c -2.72429,4.115333 -4.91198,9.205478 -10.30509,16.677968 1.60911,-7.164839 2.94944,-14.582293 10.30509,-16.677968 z"
     style="opacity:0.75;fill:#ffd5d5;fill-opacity:1;fill-rule:evenodd;stroke:none;stroke-width:0.30000001;stroke-linecap:round;stroke-linejoin:round;stroke-miterlimit:4;stroke-dasharray:none;stroke-dashoffset:0;stroke-opacity:1" />
</svg>
