<?xml version="1.0" encoding="UTF-8" standalone="no"?>
<svg
   xmlns:osb="http://www.openswatchbook.org/uri/2009/osb"
   xmlns:dc="http://purl.org/dc/elements/1.1/"
   xmlns:cc="http://creativecommons.org/ns#"
   xmlns:rdf="http://www.w3.org/1999/02/22-rdf-syntax-ns#"
   xmlns:svg="http://www.w3.org/2000/svg"
   xmlns="http://www.w3.org/2000/svg"
   xmlns:xlink="http://www.w3.org/1999/xlink"
   xmlns:sodipodi="http://sodipodi.sourceforge.net/DTD/sodipodi-0.dtd"
   xmlns:inkscape="http://www.inkscape.org/namespaces/inkscape"
   version="1.1"
   id="svg4206"
   viewBox="0 0 256 256"
   sodipodi:docname="Shield.svg"
   inkscape:version="0.92.3 (2405546, 2018-03-11)"
   enable-background="new">
  <sodipodi:namedview
     pagecolor="#ffffff"
     bordercolor="#666666"
     borderopacity="1"
     objecttolerance="10"
     gridtolerance="10"
     guidetolerance="10"
     inkscape:pageopacity="0"
     inkscape:pageshadow="2"
     inkscape:window-width="1920"
     inkscape:window-height="1017"
     id="namedview58"
     showgrid="false"
     inkscape:zoom="4"
     inkscape:cx="51.203939"
     inkscape:cy="141.76248"
     inkscape:window-x="-8"
     inkscape:window-y="-8"
     inkscape:window-maximized="1"
     inkscape:current-layer="layer3"
     inkscape:snap-global="true"
     showguides="true" />
  <style
     id="style3">
    svg { cursor: default; }
  </style>
  <defs
     id="defs4208">
    <linearGradient
       inkscape:collect="always"
       id="innoGrad3">
      <stop
         style="stop-color:#ffd5d5;stop-opacity:1;"
         offset="0"
         id="stop1048" />
      <stop
         style="stop-color:#ffd5d5;stop-opacity:0;"
         offset="1"
         id="stop1050" />
    </linearGradient>
    <linearGradient
       inkscape:collect="always"
       id="innoGrad2">
      <stop
         style="stop-color:#ff8080;stop-opacity:1;"
         offset="0"
         id="stop1040" />
      <stop
         style="stop-color:#ff8080;stop-opacity:0;"
         offset="1"
         id="stop1042" />
    </linearGradient>
    <linearGradient
       inkscape:collect="always"
       id="innoGrad1">
      <stop
         style="stop-color:#ffe680;stop-opacity:1;"
         offset="0"
         id="stop897" />
      <stop
         style="stop-color:#ffe680;stop-opacity:0;"
         offset="1"
         id="stop899" />
    </linearGradient>
    <linearGradient
       id="linearGradient6402"
       osb:paint="solid">
      <stop
         style="stop-color:#ff7f2a;stop-opacity:1;"
         offset="0"
         id="stop6400" />
    </linearGradient>
    <linearGradient
       id="linearGradient836"
       osb:paint="solid">
      <stop
         style="stop-color:#000000;stop-opacity:1;"
         offset="0"
         id="stop834" />
    </linearGradient>
    <inkscape:path-effect
       effect="powerstroke"
       id="path-effect907"
       is_visible="true"
       offset_points="0.55768567,0.32361255"
       sort_points="true"
       interpolator_type="CubicBezierJohan"
       interpolator_beta="0.2"
       start_linecap_type="zerowidth"
       linejoin_type="extrp_arc"
       miter_limit="4"
       end_linecap_type="zerowidth" />
    <inkscape:path-effect
       effect="powerstroke"
       id="path-effect903"
       is_visible="true"
       offset_points="0.36787538,0.40439423"
       sort_points="true"
       interpolator_type="CubicBezierJohan"
       interpolator_beta="0.2"
       start_linecap_type="zerowidth"
       linejoin_type="extrp_arc"
       miter_limit="4"
       end_linecap_type="zerowidth" />
    <inkscape:path-effect
       effect="powerstroke"
       id="path-effect880"
       is_visible="true"
       offset_points="0.43866375,0.47000421"
       sort_points="true"
       interpolator_type="CubicBezierJohan"
       interpolator_beta="0.2"
       start_linecap_type="zerowidth"
       linejoin_type="extrp_arc"
       miter_limit="4"
       end_linecap_type="zerowidth" />
    <inkscape:path-effect
       effect="powerstroke"
       id="path-effect876"
       is_visible="true"
       offset_points="0.31349214,0.3253567"
       sort_points="true"
       interpolator_type="CubicBezierJohan"
       interpolator_beta="0.2"
       start_linecap_type="zerowidth"
       linejoin_type="extrp_arc"
       miter_limit="4"
       end_linecap_type="zerowidth" />
    <inkscape:path-effect
       effect="powerstroke"
       id="path-effect872"
       is_visible="true"
       offset_points="0.47974354,0.61540457"
       sort_points="true"
       interpolator_type="CubicBezierJohan"
       interpolator_beta="0.2"
       start_linecap_type="zerowidth"
       linejoin_type="extrp_arc"
       miter_limit="4"
       end_linecap_type="zerowidth" />
    <inkscape:path-effect
       effect="powerstroke"
       id="path-effect868"
       is_visible="true"
       offset_points="0.22476176,0.72470812"
       sort_points="true"
       interpolator_type="CubicBezierJohan"
       interpolator_beta="0.2"
       start_linecap_type="zerowidth"
       linejoin_type="extrp_arc"
       miter_limit="4"
       end_linecap_type="zerowidth" />
    <inkscape:path-effect
       effect="powerstroke"
       id="path-effect880-1"
       is_visible="true"
       offset_points="0.43759178,0.29829899"
       sort_points="true"
       interpolator_type="CubicBezierJohan"
       interpolator_beta="0.2"
       start_linecap_type="zerowidth"
       linejoin_type="extrp_arc"
       miter_limit="4"
       end_linecap_type="zerowidth" />
    <linearGradient
       inkscape:collect="always"
       xlink:href="#innoGrad1"
       id="linearGradient905"
       gradientUnits="userSpaceOnUse"
       x1="43.379776"
       y1="189.63022"
       x2="226.51767"
       y2="43.880219" />
    <linearGradient
       inkscape:collect="always"
       xlink:href="#innoGrad2"
       id="linearGradient1046"
       x1="47.726562"
       y1="150.71581"
       x2="163.33266"
       y2="61.965797"
       gradientUnits="userSpaceOnUse" />
    <linearGradient
       inkscape:collect="always"
       xlink:href="#innoGrad3"
       id="linearGradient1054"
       x1="-98.5"
       y1="158.75"
       x2="-73.75"
       y2="129.5"
       gradientUnits="userSpaceOnUse"
       gradientTransform="translate(214.64059,-17.44453)" />
  </defs>
  <metadata
     id="metadata4211">
    <rdf:RDF>
      <cc:Work
         rdf:about="">
        <dc:format>image/svg+xml</dc:format>
        <dc:type
           rdf:resource="http://purl.org/dc/dcmitype/StillImage" />
        <dc:title />
      </cc:Work>
    </rdf:RDF>
  </metadata>
  <g
     inkscape:groupmode="layer"
     id="layer3"
     inkscape:label="Layer 2"
     style="display:inline">
    <path
       style="opacity:1;vector-effect:none;fill:none;fill-opacity:1;stroke:#000000;stroke-width:1.13726079;stroke-linecap:square;stroke-linejoin:miter;stroke-miterlimit:4;stroke-dasharray:none;stroke-dashoffset:0;stroke-opacity:1"
       d="M 44.591363,5.2697149 C 37.16992,4.7557334 38.538719,158.00208 44.950513,173.48151 c 14.361961,34.67284 68.434147,79.61227 79.612267,79.61227 10.79345,0 65.25033,-44.93943 79.61228,-79.61227 6.51357,-15.72513 7.82372,-173.62706996 0,-168.0715341 -26.73247,18.9824301 -53.16178,16.8027341 -79.38701,0.2783934 0,0 -0.13681,-0.1404471 -0.22527,-0.1402589 -0.0878,1.872e-4 -0.22313,0.1402589 -0.22313,0.1402589 C 98.114323,22.212871 71.683075,24.392474 44.950513,5.4099759 44.828267,5.3231685 44.709164,5.2778737 44.591363,5.2697149 Z"
       id="path824"
       inkscape:connector-curvature="0"
       sodipodi:nodetypes="ssssscsccs" />
    <path
       style="display:inline;opacity:1;vector-effect:none;fill:none;fill-opacity:1;stroke:#000000;stroke-width:1.00240695;stroke-linecap:square;stroke-linejoin:miter;stroke-miterlimit:4;stroke-dasharray:none;stroke-dashoffset:0;stroke-opacity:1"
       d="m 54.104419,22.362045 c -6.541428,-0.453035 -5.334938,134.621695 0.316555,148.265595 12.658954,30.56142 60.319376,70.17204 70.172016,70.17204 9.51358,0 57.51308,-39.61062 70.17203,-70.17204 5.7412,-13.86047 6.896,-153.038739 0,-148.141966 -23.5626,16.731535 -46.85798,14.810302 -69.97347,0.245381 0,0 -0.1206,-0.123792 -0.19856,-0.123627 -0.0774,1.65e-4 -0.19668,0.123627 -0.19668,0.123627 -23.11558,14.565063 -46.412657,16.486213 -69.975336,-0.245381 -0.107741,-0.07651 -0.212726,-0.116439 -0.316555,-0.123629 z"
       id="path824-5"
       inkscape:connector-curvature="0"
       sodipodi:nodetypes="ssssscsccs" />
    <path
       style="opacity:1;fill:#ffd42a;fill-opacity:1;fill-rule:nonzero;stroke:#00000f;stroke-width:0.5440377;stroke-linecap:square;stroke-miterlimit:4;stroke-dasharray:none;stroke-opacity:0.94117647"
       d="m 122.13366,239.79889 c -11.47034,-4.15626 -37.147951,-26.52518 -52.53665,-45.76704 -5.761106,-7.20363 -9.625507,-13.1077 -12.884484,-19.68508 -2.719182,-5.48793 -3.195867,-7.60106 -4.203367,-18.63329 -2.341466,-25.63933 -3.119365,-83.374018 -1.50452,-111.663754 0.734061,-12.859715 1.918183,-21.081462 3.036217,-21.081462 0.139668,0 0.964298,0.482392 1.83251,1.071985 6.848848,4.650963 14.73169,8.047962 22.601261,9.739692 3.177599,0.683091 3.845506,0.730952 10.200707,0.730952 6.376008,0 7.021193,-0.04662 10.336717,-0.74684 8.010969,-1.69188 15.919459,-4.830243 23.159389,-9.190445 1.21766,-0.73333 2.30233,-1.333325 2.41039,-1.333325 0.10805,0 1.19274,0.598634 2.4104,1.330301 7.25786,4.361103 15.20748,7.51623 23.15937,9.191738 3.28905,0.693023 4.00212,0.745864 10.20071,0.755925 7.30939,0.01187 9.60162,-0.28861 15.44522,-2.024609 5.32669,-1.582441 12.42889,-5.01458 17.49276,-8.453389 0.8682,-0.589593 1.69439,-1.071985 1.83597,-1.071985 1.09986,0 2.34875,8.576427 3.03023,20.809443 1.11646,20.040991 1.11844,60.569553 0.004,87.590083 -0.80825,19.60162 -2.16421,34.15086 -3.57271,38.33411 -0.75481,2.24184 -3.90626,8.36983 -6.08761,11.83738 -5.56421,8.84505 -12.76899,17.70388 -22.43577,27.58649 -16.17537,16.5365 -35.65115,31.16881 -41.48287,31.1664 -0.59845,-2.5e-4 -1.70012,-0.22222 -2.44817,-0.49328 z"
       id="path991"
       inkscape:connector-curvature="0" />
    <path
       style="display:inline;opacity:1;fill:url(#linearGradient905);fill-opacity:1;fill-rule:nonzero;stroke:#00000f;stroke-width:0.5440377;stroke-linecap:square;stroke-miterlimit:4;stroke-dasharray:none;stroke-opacity:0.94117647"
       d="M 122.13396,239.79889 C 110.66362,235.64263 84.98601,213.27371 69.59731,194.03185 63.8362,186.82822 59.9718,180.92415 56.71283,174.34677 53.99364,168.85884 53.51696,166.74571 52.50946,155.71348 50.16799,130.07415 49.39009,72.339466 51.00494,44.04973 51.739,31.190015 52.92312,22.968268 54.04116,22.968268 c 0.13966,0 0.96429,0.482392 1.83251,1.071985 6.84884,4.650963 14.73169,8.047962 22.60126,9.739692 3.1776,0.683091 3.8455,0.730952 10.2007,0.730952 6.37601,0 7.0212,-0.04662 10.33672,-0.74684 8.01097,-1.69188 15.91946,-4.830243 23.15939,-9.190445 1.21766,-0.73333 2.30233,-1.333325 2.41039,-1.333325 0.10805,0 1.19274,0.598634 2.4104,1.330301 7.25786,4.361103 15.20748,7.51623 23.15937,9.191738 3.28905,0.693023 4.00212,0.745864 10.20071,0.755925 7.30939,0.01187 9.60162,-0.28861 15.44522,-2.024609 5.32669,-1.582441 12.42889,-5.01458 17.49276,-8.453389 0.8682,-0.589593 1.69439,-1.071985 1.83597,-1.071985 1.09986,0 2.34875,8.576427 3.03023,20.809443 1.11646,20.040991 1.11844,60.569549 0.004,87.590079 -0.80825,19.60162 -2.16421,34.15086 -3.57271,38.33411 -0.75481,2.24184 -3.90626,8.36983 -6.08761,11.83738 -5.56421,8.84505 -12.76899,17.70388 -22.43577,27.58649 -16.17537,16.5365 -35.65115,31.16881 -41.48287,31.1664 -0.59845,-2.5e-4 -1.70012,-0.22222 -2.44817,-0.49328 z"
       id="path991-0"
       inkscape:connector-curvature="0" />
    <path
       inkscape:connector-curvature="0"
       style="display:inline;fill:#ff5555;stroke-width:0.55548203;stroke:#00000f;stroke-opacity:0.94117647"
       d="m 124.34337,147.84098 c -0.0874,-0.58209 -0.40306,-3.82447 -0.70159,-7.20524 l -0.54278,-6.14682 0.92973,-2.53251 c 0.51135,-1.39287 0.95901,-2.49628 0.99478,-2.45204 0.21446,0.26522 1.35217,5.07564 1.35217,5.71724 0,0.61762 -1.49949,11.68795 -1.79891,13.28084 -0.041,0.21825 -0.14606,-0.0794 -0.2334,-0.66147 z"
       id="path907" />
    <path
       inkscape:connector-curvature="0"
       style="display:inline;fill:#ff5555;stroke-width:0.55548203;stroke:#00000f;stroke-opacity:0.94117647"
       d="m 118.01033,136.88081 c -2.04637,-0.69522 -2.88517,-2.53821 -2.27432,-4.99718 0.1399,-0.56316 0.18662,-0.52812 0.59011,0.44356 0.39672,0.95532 0.54647,1.07264 1.58248,1.24013 0.74789,0.1209 1.33997,0.0722 1.70912,-0.14086 0.69387,-0.40034 2.44596,-3.64758 3.25829,-6.03872 0.63495,-1.86904 1.78176,-7.26732 1.78176,-8.3872 0,-0.36327 0.11044,-0.66049 0.24542,-0.66049 0.13497,0 0.24541,0.29722 0.24541,0.66049 0,1.11988 1.1468,6.51816 1.78175,8.3872 0.81233,2.39114 2.56443,5.63838 3.2583,6.03872 0.36913,0.21302 0.96123,0.26176 1.70911,0.14086 1.03603,-0.16749 1.18577,-0.28481 1.58248,-1.24013 0.40351,-0.97168 0.45022,-1.00672 0.59011,-0.44356 0.24322,0.97908 0.18231,2.51502 -0.12893,3.25145 -0.57777,1.3671 -2.5577,2.18215 -4.16641,1.71515 -1.73944,-0.50499 -2.943,-2.48499 -4.15011,-6.82763 -0.54357,-1.95553 -0.96713,-2.74006 -0.96713,-1.79146 0,0.37596 -1.60646,4.69936 -2.49648,6.71874 -0.70368,1.59648 -2.57414,2.46661 -4.15096,1.93093 z"
       id="path905" />
    <path
       inkscape:connector-curvature="0"
       style="display:inline;fill:#ff5555;stroke-width:0.55548203;stroke:#00000f;stroke-opacity:0.94117647"
       d="m 115.06289,125.88727 c -1.45574,-0.82192 -2.03548,-1.75434 -1.82889,-2.94149 0.18711,-1.07527 0.72985,-1.43465 2.14319,-1.41905 l 1.05914,0.0116 -0.93271,0.53066 c -1.269,0.72201 -1.40316,1.23842 -0.51974,2.00053 0.8579,0.74002 1.60964,0.77266 2.92495,0.12685 2.19623,-1.07838 3.74804,-3.95976 3.47435,-6.45115 -0.3363,-3.06141 -2.69612,-6.54894 -4.43129,-6.54894 -0.64538,0 -1.00349,0.20952 -1.59095,0.93089 -0.41698,0.51199 -0.82746,1.22866 -0.9122,1.59263 -0.33607,1.44364 0.93822,3.03269 2.43198,3.03269 0.32533,0 0.99344,-0.29405 1.48469,-0.65348 0.81689,-0.59763 0.89321,-0.61144 0.89321,-0.1616 0,0.9829 -0.81711,1.66947 -2.1514,1.80766 -1.05661,0.10949 -1.44262,0.0162 -2.37902,-0.57556 -1.56429,-0.9883 -1.93979,-1.71166 -1.91094,-3.68116 0.0296,-2.02226 0.28742,-2.7693 1.42354,-4.12507 1.42456,-1.69994 3.67658,-2.12123 4.98661,-0.93282 1.71889,1.55931 3.37805,7.0549 3.14938,10.43156 -0.29112,4.29872 -1.02116,5.98426 -2.98736,6.89717 -1.74544,0.8105 -3.04937,0.84905 -4.32654,0.128 z"
       id="path903" />
    <path
       inkscape:connector-curvature="0"
       style="display:inline;fill:#ff5555;stroke-width:0.55548203;stroke:#00000f;stroke-opacity:0.94117647"
       d="m 131.85493,126.26582 c -3.06412,-0.6532 -4.08374,-2.359 -4.42536,-7.40373 -0.22866,-3.37664 1.43049,-8.87224 3.14937,-10.43154 1.31003,-1.1884 3.56207,-0.76714 4.98662,0.93282 1.13613,1.35576 1.39393,2.1028 1.42354,4.12507 0.0288,1.9695 -0.34665,2.69284 -1.91094,3.68115 -0.93641,0.59166 -1.32241,0.68504 -2.37901,0.57561 -1.33431,-0.13825 -2.15141,-0.82481 -2.15141,-1.8077 0,-0.44986 0.0763,-0.43605 0.89321,0.1616 0.49127,0.35941 1.15937,0.65347 1.48469,0.65347 1.49377,0 2.76806,-1.58905 2.43197,-3.03269 -0.0847,-0.36397 -0.49522,-1.08065 -0.91218,-1.59263 -0.58747,-0.72136 -0.94558,-0.93089 -1.59095,-0.93089 -1.73517,0 -4.09499,3.48752 -4.43131,6.54895 -0.27369,2.49139 1.27813,5.37272 3.47437,6.45115 1.3153,0.6458 2.06704,0.61316 2.92494,-0.12686 0.88344,-0.76209 0.74927,-1.27852 -0.51975,-2.00053 l -0.9327,-0.53066 1.05914,-0.0116 c 1.41335,-0.0157 1.95608,0.34373 2.1432,1.41896 0.20951,1.20412 -0.38216,2.13167 -1.88259,2.95135 -1.26953,0.69358 -1.29531,0.69691 -2.83485,0.36873 z"
       id="path901" />
    <path
       inkscape:connector-curvature="0"
       style="display:inline;fill:#ff2a2a;stroke-width:0.55548203;stroke:#00000f;stroke-opacity:0.94117647"
       d="m 107.61079,117.17739 c -1.41023,-2.56793 -1.04348,-5.16907 1.07871,-7.65117 1.3352,-1.56166 3.05861,-2.35081 5.41538,-2.47975 l 1.84062,-0.10066 -1.70921,0.96695 c -0.99785,0.56451 -2.3337,1.64173 -3.20972,2.58831 -1.31201,1.41768 -1.55144,1.83743 -1.90579,3.34115 -0.2229,0.94588 -0.49382,2.37462 -0.60204,3.17499 l -0.19679,1.45521 z"
       id="path899" />
    <path
       inkscape:connector-curvature="0"
       style="display:inline;fill:#ff2a2a;stroke-width:0.55548203;stroke:#00000f;stroke-opacity:0.94117647"
       d="m 139.76919,115.54161 c -0.36959,-3.37667 -0.84793,-4.61124 -2.46559,-6.36348 -0.87763,-0.95067 -2.20387,-2.02138 -3.20602,-2.58832 l -1.70922,-0.96694 1.84062,0.10066 c 2.35459,0.12881 4.08037,0.9183 5.41208,2.47586 2.30557,2.69659 2.54556,5.74662 0.66098,8.40052 -0.33408,0.47044 -0.37426,0.39057 -0.53285,-1.05834 z"
       id="path897" />
    <path
       inkscape:connector-curvature="0"
       style="display:inline;fill:#ff2a2a;stroke-width:0.55548203;stroke:#00000f;stroke-opacity:0.94117647"
       d="m 77.173323,114.73996 c 1.179475,-2.79235 1.927482,-4.1542 3.347486,-6.09464 0.654042,-0.89375 1.18918,-1.67964 1.18918,-1.74642 0,-0.37389 -2.80977,0.45064 -4.287322,1.25812 -3.037004,1.65974 -7.754529,1.88608 -10.560338,0.50667 l -0.981662,-0.48261 3.067699,-0.18292 c 3.970289,-0.23676 4.495525,-0.36977 6.259404,-1.585 3.612911,-2.48916 7.259585,-2.89729 10.428648,-1.16713 l 1.104147,0.60281 -1.089327,0.31623 c -0.623577,0.18102 -1.436685,0.69071 -1.90175,1.19211 -1.009461,1.08828 -1.058839,1.54233 -0.137532,1.26454 0.371197,-0.11191 1.558395,-0.20347 2.638224,-0.20347 1.744588,0 2.10004,0.0884 3.1904,0.79309 l 1.227088,0.79308 -2.331452,0.17562 c -1.282297,0.0966 -3.06291,0.42445 -3.956917,0.72855 -1.809828,0.61563 -4.512216,2.4574 -6.667138,4.54391 l -1.420962,1.37588 z"
       id="path895" />
    <path
       inkscape:connector-curvature="0"
       style="display:inline;fill:#ff2a2a;stroke-width:0.55548203;stroke:#00000f;stroke-opacity:0.94117647"
       d="m 170.55053,114.08189 c -2.03787,-2.00944 -4.77963,-3.87837 -6.59597,-4.49622 -0.89401,-0.3041 -2.67461,-0.63194 -3.95691,-0.72853 l -2.33145,-0.17564 1.22706,-0.79308 c 1.09039,-0.70472 1.44583,-0.79307 3.19041,-0.79307 1.07985,0 2.26705,0.0915 2.63823,0.20347 0.92131,0.27778 0.87193,-0.17626 -0.13753,-1.26456 -0.46507,-0.50138 -1.27817,-1.01108 -1.90175,-1.1921 l -1.08932,-0.31624 1.10415,-0.60281 c 3.16907,-1.73015 6.81573,-1.32202 10.42865,1.16714 1.76386,1.21524 2.28911,1.34824 6.25939,1.585 l 3.06771,0.18292 -0.98167,0.48261 c -2.80581,1.37942 -7.52334,1.15308 -10.56034,-0.50667 -1.47755,-0.80747 -4.28732,-1.63202 -4.28732,-1.25812 0,0.0669 0.53514,0.85266 1.18917,1.74642 0.65406,0.89375 1.47633,2.16078 1.82728,2.81562 0.60376,1.12656 2.43313,5.30124 2.31515,5.28321 -0.0304,-0.004 -0.66256,-0.60733 -1.40494,-1.33935 z"
       id="path893" />
    <path
       inkscape:connector-curvature="0"
       style="display:inline;fill:#ff2a2a;stroke-width:0.55548203;stroke:#00000f;stroke-opacity:0.94117647"
       d="m 93.431075,114.75291 c -1.521336,-0.39753 -3.134832,-1.19828 -4.113198,-2.0413 l -0.613544,-0.52866 0.736247,0.17338 c 0.404939,0.0953 2.11672,0.24054 3.803956,0.32262 2.754234,0.13398 3.312004,0.0809 5.458583,-0.51862 2.553951,-0.71341 4.760391,-1.67461 6.599271,-2.87484 0.93634,-0.61116 3.63386,-1.79327 4.09213,-1.79327 0.0665,0 -0.36253,0.37771 -0.95365,0.83935 -0.59111,0.46164 -1.2427,1.04586 -1.44797,1.29827 -0.53457,0.65735 -4.35478,3.63561 -5.38943,4.20165 -1.07621,0.58876 -4.373758,1.34133 -5.746966,1.31156 -0.559227,-0.0121 -1.650665,-0.1877 -2.425429,-0.39014 z"
       id="path891" />
    <path
       inkscape:connector-curvature="0"
       style="display:inline;fill:#ff5555;stroke-width:0.55548203;stroke:#00000f;stroke-opacity:0.94117647"
       d="m 126.31069,112.78385 c 0.10326,-0.80036 0.16659,-2.86163 0.14079,-4.58062 -0.039,-2.59849 -0.13672,-3.32543 -0.57956,-4.31167 -0.29296,-0.65244 -0.65838,-1.1463 -0.81206,-1.09748 -0.15365,0.0489 -0.6107,0.79846 -1.01564,1.66585 -0.70207,1.5039 -0.73506,1.72445 -0.71087,4.75206 0.0139,1.74624 0.14927,3.50241 0.30069,3.90258 0.42563,1.12482 0.18765,0.87548 -0.88381,-0.92604 -1.2492,-2.10032 -1.61513,-3.3396 -1.62111,-5.49006 -0.004,-1.70847 0.28947,-2.82088 2.11091,-7.980697 0.34228,-0.96966 0.75572,-2.398402 0.91875,-3.174978 0.53519,-2.549358 0.53288,-2.548368 1.0898,-0.466705 0.29031,1.085106 0.75683,2.447421 1.03672,3.027368 0.27989,0.579926 0.85124,1.768789 1.26966,2.641922 1.39571,2.91241 1.67161,7.98709 0.5682,10.45098 -0.29327,0.65485 -0.86327,1.60734 -1.26668,2.11666 l -0.73347,0.92604 z"
       id="path889" />
    <path
       inkscape:connector-curvature="0"
       style="display:inline;fill:#ff2a2a;stroke-width:0.55548203;stroke:#00000f;stroke-opacity:0.94117647"
       d="m 149.19935,113.34099 c -1.01235,-0.25035 -2.18058,-0.6492 -2.59607,-0.88632 -0.98046,-0.55957 -4.7793,-3.55381 -5.26232,-4.14775 -0.20527,-0.2524 -0.85686,-0.83662 -1.44797,-1.29827 -0.59111,-0.46164 -1.02026,-0.83934 -0.95364,-0.83934 0.45827,0 3.15578,1.1821 4.09212,1.79327 1.83887,1.20024 4.04533,2.16143 6.59927,2.87484 2.14659,0.59962 2.70435,0.65261 5.45859,0.51861 1.68723,-0.082 3.39901,-0.22725 3.80393,-0.32261 l 0.73626,-0.17339 -0.61354,0.52868 c -1.58741,1.36781 -4.69234,2.46424 -6.87164,2.42655 -0.60741,-0.0109 -1.93264,-0.22393 -2.94499,-0.47427 z"
       id="path887" />
    <path
       inkscape:connector-curvature="0"
       style="display:inline;fill:#ff2a2a;stroke-width:0.55548203;stroke:#00000f;stroke-opacity:0.94117647"
       d="m 93.135304,109.63485 c -0.353962,-0.14934 -0.06845,-0.28665 1.104363,-0.53118 0.953079,-0.19869 2.410817,-0.81186 3.667764,-1.54273 1.14732,-0.66714 2.481779,-1.43439 2.965449,-1.70502 0.48368,-0.27061 1.64327,-0.56762 2.57687,-0.66 l 1.69745,-0.16795 -1.01544,1.19394 c -1.17999,1.38743 -1.7117,2.32863 -1.31554,2.32863 0.14472,0 1.04087,-0.58883 1.99142,-1.30851 1.93496,-1.46498 3.45986,-1.94375 5.77837,-1.81422 l 1.43284,0.0801 -2.08603,0.75737 c -1.14732,0.41656 -3.03761,1.26765 -4.20064,1.89134 -2.0161,1.08114 -4.72491,1.97201 -5.02206,1.65167 -0.0766,-0.0826 0.20018,-0.65533 0.61506,-1.27278 0.41487,-0.61745 0.75432,-1.22363 0.75432,-1.34708 0,-0.12345 -0.53387,0.18905 -1.18636,0.69443 -2.037473,1.5781 -3.125679,1.98051 -5.317153,1.96624 -1.079839,-0.006 -2.178142,-0.10336 -2.440683,-0.21419 z"
       id="path885" />
    <path
       inkscape:connector-curvature="0"
       style="display:inline;fill:#ff2a2a;stroke-width:0.55548203;stroke:#00000f;stroke-opacity:0.94117647"
       d="m 145.51811,108.1621 c -0.60741,-0.18762 -1.98787,-0.81785 -3.0677,-1.40052 -1.07983,-0.58266 -2.90205,-1.40077 -4.04936,-1.81801 l -2.08603,-0.75863 1.43284,-0.0801 c 2.3185,-0.12953 3.8434,0.34924 5.77836,1.81422 0.95054,0.71968 1.84669,1.30852 1.99142,1.30852 0.39616,0 -0.13556,-0.94121 -1.31555,-2.32864 l -1.01543,-1.19396 1.69745,0.16797 c 0.93359,0.0923 2.09318,0.38937 2.57687,0.66 0.48367,0.27061 1.81813,1.03787 2.96545,1.70501 1.25695,0.73088 2.71468,1.34405 3.66775,1.54274 2.00083,0.41714 1.44484,0.72726 -1.33629,0.74538 -2.19148,0.0142 -3.27969,-0.38815 -5.31717,-1.96625 -1.37129,-1.0621 -1.48138,-0.90905 -0.45012,0.62576 0.40494,0.60264 0.73626,1.15629 0.73626,1.2303 0,0.22592 -1.04397,0.10587 -2.20875,-0.25385 z"
       id="path883" />
    <path
       inkscape:connector-curvature="0"
       style="display:inline;fill:#ff2a2a;stroke-width:0.55548203;stroke:#00000f;stroke-opacity:0.94117647"
       d="m 89.786556,106.89883 -1.573054,-0.85797 1.504417,-0.15718 c 1.039547,-0.10859 1.930573,-0.41649 2.883629,-0.99638 1.503329,-0.91469 1.721216,-0.78425 0.755941,0.45251 l -0.623305,0.79859 0.68465,-0.21368 c 0.376561,-0.11755 1.439274,-0.64636 2.361592,-1.17518 1.332426,-0.76395 1.937451,-0.95764 2.944988,-0.94283 l 1.268049,0.0186 -0.909485,0.36034 c -0.500221,0.19819 -1.919769,1.08277 -3.154562,1.96574 -2.770904,1.98137 -3.678054,2.09175 -6.14286,0.74741 z"
       id="path881" />
    <path
       inkscape:connector-curvature="0"
       style="display:inline;fill:#ff2a2a;stroke-width:0.55548203;stroke:#00000f;stroke-opacity:0.94117647"
       d="m 152.40444,104.8285 c -1.23479,-0.88296 -2.65434,-1.76753 -3.15456,-1.96571 l -0.90948,-0.36034 1.26804,-0.0186 c 1.00754,-0.0148 1.61257,0.17888 2.945,0.94283 0.92232,0.5288 1.98502,1.05764 2.36159,1.17517 l 0.68465,0.21368 -0.62331,-0.79859 c -0.96527,-1.23676 -0.74738,-1.36719 0.75594,-0.45251 0.95306,0.57988 1.84408,0.88775 2.88363,0.99637 l 1.50441,0.1572 -1.57305,0.85797 c -2.46481,1.34434 -3.37194,1.23397 -6.14286,-0.74742 z"
       id="path879" />
    <path
       inkscape:connector-curvature="0"
       style="display:inline;fill:#ff2a2a;stroke-width:0.55548203;stroke:#00000f;stroke-opacity:0.94117647"
       d="m 117.64987,104.93719 c -0.51746,-1.14569 -0.58225,-3.69297 -0.12606,-4.956113 0.15183,-0.420364 0.20784,-0.837071 0.12446,-0.926032 -0.22097,-0.235812 -1.32163,1.313175 -1.48308,2.087205 -0.28552,1.36884 -0.40253,1.46509 -0.64338,0.52916 -0.13107,-0.50932 -0.18924,-1.716143 -0.12926,-2.681805 l 0.10908,-1.755761 -1.7414,-0.178473 c -4.37085,-0.447976 -8.51786,-1.783369 -11.80344,-3.800894 -4.948763,-3.038813 -7.109052,-5.106167 -9.494929,-9.0865 -1.588547,-2.650139 -2.938533,-4.133239 -4.739189,-5.206538 l -0.49083,-0.292563 0.49083,-0.0054 c 0.989442,-0.01121 3.127205,1.655648 6.200768,4.834884 4.780494,4.944879 10.19874,8.630172 13.4325,9.136323 2.99274,0.468427 5.57027,0.647906 5.7334,0.399247 0.0861,-0.131298 1.15052,-0.634565 2.36533,-1.118367 1.2148,-0.483813 2.62082,-1.165742 3.12448,-1.515421 0.90803,-0.630398 1.43553,-1.782898 1.01734,-2.222742 -0.36124,-0.379977 -2.46642,0.200163 -4.27265,1.177451 -1.97218,1.067053 -2.06929,0.936473 -0.97354,-1.30925 0.40493,-0.829918 0.73625,-1.615911 0.73625,-1.746654 0,-0.857055 -2.83311,0.797124 -3.43222,2.003984 -0.18258,0.367771 -0.41294,0.668699 -0.5119,0.668699 -0.19384,0 -0.71878,-1.456007 -0.71878,-1.993702 0,-0.840995 2.08533,-3.609941 3.67634,-4.881509 2.06894,-1.65356 3.095,-2.877993 3.31448,-3.955296 0.26051,-1.278718 0.66206,-0.661669 0.47746,0.733711 l -0.16314,1.233301 1.03113,-1.058327 c 1.09705,-1.125995 1.8649,-2.509419 2.34966,-4.233311 l 0.29758,-1.058317 0.30181,1.190616 c 0.2804,1.106203 0.21927,2.979391 -0.14404,4.414203 -0.12978,0.512516 -0.0396,0.587223 0.79837,0.661452 1.72737,0.153016 4.1872,-0.266328 6.36476,-1.085061 1.18398,-0.445165 2.19446,-0.764351 2.24554,-0.709284 0.0511,0.05505 -0.14494,0.645468 -0.43557,1.312034 -0.54561,1.251385 -2.01893,2.881855 -3.07115,3.398723 -0.33021,0.162199 -0.60037,0.374668 -0.60037,0.47216 0,0.09749 0.48805,0.555125 1.08456,1.01697 1.28926,0.998189 2.49974,2.577944 2.72861,3.561064 0.16091,0.691134 0.14717,0.701123 -0.58601,0.425579 -0.41292,-0.155193 -0.94296,-0.242271 -1.17784,-0.193504 -0.34594,0.07181 -0.24318,0.295042 0.54108,1.175318 1.87854,2.10853 6.04985,2.838226 11.2756,1.972487 3.51305,-0.582011 8.76274,-4.111307 13.67792,-9.195491 3.07355,-3.179237 5.21132,-4.846104 6.20075,-4.834886 l 0.49083,0.0054 -0.49083,0.292561 c -1.80065,1.0733 -3.15064,2.556411 -4.73917,5.20655 -2.38589,3.980321 -4.54617,6.047687 -9.49495,9.086489 -3.62324,2.224866 -8.50488,3.694455 -12.43392,3.743152 l -2.12647,0.02631 0.57339,1.06696 c 0.63203,1.176043 0.99681,3.209615 0.75899,4.231168 l -0.15306,0.65748 -0.81815,-0.96246 -0.81814,-0.962483 -0.1379,2.094313 c -0.0758,1.15187 -0.26808,2.4515 -0.4272,2.88806 -0.28011,0.76858 -0.30802,0.71403 -0.87992,-1.71979 -0.7666,-3.262483 -0.95733,-3.766378 -2.20316,-5.820811 -0.57359,-0.945867 -1.11057,-2.045708 -1.19328,-2.444073 -0.14355,-0.691442 -0.0973,-0.670935 1.01925,0.452386 l 1.16964,1.176698 0.073,-1.276328 c 0.0456,-0.798663 -0.1062,-1.784905 -0.4059,-2.635204 -0.53264,-1.51126 -0.46667,-1.634463 0.40889,-0.763546 l 0.59849,0.595318 -0.1852,-0.661462 c -0.37814,-1.350479 -1.14648,-2.861849 -1.76514,-3.47214 l -0.6375,-0.628875 0.1594,0.661464 c 0.31677,1.314514 0.68363,4.232834 0.60613,4.821711 -0.0681,0.517488 -0.18641,0.415133 -0.84078,-0.727574 -0.41884,-0.731383 -1.1309,-1.728031 -1.58237,-2.21477 l -0.82088,-0.884965 -0.50366,0.662485 c -0.27701,0.364365 -0.80332,1.063359 -1.16958,1.553308 l -0.66593,0.89083 0.26483,-0.873409 c 0.59409,-1.959312 -0.56667,-0.968674 -1.88285,1.606902 -0.3749,0.733619 -0.7053,1.889977 -0.78858,2.759861 l -0.14333,1.497187 0.74648,-0.573053 c 0.41057,-0.315175 1.10652,-1.015144 1.54657,-1.555461 l 0.80008,-0.982398 -0.18072,1.299226 c -0.26484,1.904016 -0.82103,3.232982 -2.12465,5.076693 -0.84175,1.19048 -1.24399,2.06214 -1.46512,3.17498 -0.45001,2.26477 -0.57004,2.39889 -1.09896,1.2279 z"
       id="path877" />
    <path
       inkscape:connector-curvature="0"
       style="display:inline;fill:#ff2a2a;stroke-width:0.55548203;stroke:none;stroke-opacity:0.94117647;fill-opacity:1"
       d="m 121.78207,89.353788 c 0.47292,-0.509872 0.66695,-0.989876 0.66695,-1.650022 0,-0.915149 0.008,-0.922808 0.49234,-0.450594 0.27079,0.264184 0.55858,0.408909 0.63957,0.321613 0.24241,-0.261334 -1.07161,-1.513709 -1.58824,-1.513709 -0.411,0 -0.46151,0.140187 -0.35752,0.992183 0.0922,0.75581 -0.0182,1.212802 -0.46344,1.918224 -1.02453,1.623157 -1.0425,1.670173 -0.52365,1.370811 0.25686,-0.148207 0.76716,-0.593023 1.13399,-0.988506 z"
       id="path875" />
    <path
       inkscape:connector-curvature="0"
       style="display:inline;fill:#ff2a2a;stroke-width:0.55548203;stroke:none;stroke-opacity:0.94117647;fill-opacity:1"
       d="m 124.76607,86.541995 c -0.54684,-1.164208 -1.60979,-2.104229 -1.99331,-1.762802 -0.21141,0.188204 -0.0366,0.504605 0.64622,1.169659 0.51481,0.501429 1.08696,1.297345 1.27146,1.768721 0.29398,0.751077 0.34488,0.785645 0.41169,0.279625 0.042,-0.317566 -0.10928,-0.972403 -0.33606,-1.455203 z"
       id="path873" />
    <path
       inkscape:connector-curvature="0"
       style="display:inline;fill:#ff2a2a;stroke-width:0.55548203;stroke:none;stroke-opacity:0.94117647;fill-opacity:1"
       d="m 118.87818,86.722713 c 1.64199,-0.311679 1.69499,-0.343669 1.03935,-0.627319 -0.37998,-0.164397 -0.98737,-0.302681 -1.34978,-0.307316 -0.63237,-0.0076 -0.63973,-0.02404 -0.18253,-0.396876 0.26199,-0.213643 0.67614,-0.388453 0.92031,-0.388453 0.24416,0 0.44392,-0.132081 0.44392,-0.293531 0,-0.178335 -0.32925,-0.252085 -0.83892,-0.187943 l -0.83891,0.105544 0.45007,-0.681429 c 0.24755,-0.374788 0.73551,-0.846121 1.08434,-1.047392 0.34884,-0.201262 0.63425,-0.461149 0.63425,-0.577508 0,-0.240149 -0.70191,-0.01262 -1.17166,0.379761 -0.17198,0.143658 -0.3787,0.190054 -0.45937,0.10304 -0.21819,-0.23522 1.28604,-1.769352 1.73487,-1.769352 0.21283,0 0.387,-0.119068 0.387,-0.264588 0,-0.682266 -2.65962,0.161906 -3.80396,1.207394 -0.50913,0.465164 -0.57089,0.586724 -0.20019,0.394091 1.0291,-0.5348 1.34106,-0.36517 1.25803,0.684094 -0.0622,0.786015 -0.22975,1.051114 -0.9131,1.444671 -1.11972,0.64487 -1.46872,1.032224 -0.93007,1.032224 0.52724,0 0.52336,0.06137 -0.0847,1.346461 l -0.50197,1.060787 0.79644,-0.444022 c 0.43804,-0.244197 1.57504,-0.591793 2.52665,-0.772425 z"
       id="path871" />
    <path
       inkscape:connector-curvature="0"
       style="display:inline;fill:#ff2a2a;stroke-width:0.55548203;stroke:none;stroke-opacity:0.94117647;fill-opacity:1"
       d="m 127.014,85.054433 c -0.37048,-0.772403 -2.09289,-1.903752 -2.89829,-1.903752 -0.2129,0 -0.45672,0.195625 -0.54184,0.43473 -0.18436,0.517989 -0.25883,0.4545 0.98352,0.838471 0.5522,0.170675 1.38048,0.590193 1.84062,0.932284 0.46013,0.34207 0.87238,0.592153 0.91608,0.555724 0.0438,-0.03645 -0.0913,-0.422271 -0.30009,-0.857457 z"
       id="path869" />
    <path
       inkscape:connector-curvature="0"
       style="display:inline;fill:#ff2a2a;stroke-width:0.55548203;stroke:none;stroke-opacity:0.94117647;fill-opacity:1"
       d="m 116.98852,84.144225 c 0.54009,-0.465838 0.37188,-1.050059 -0.24542,-0.852377 -0.56076,0.179587 -1.16571,0.828351 -1.16571,1.250134 0,0.265696 0.95356,-0.0032 1.41113,-0.397757 z"
       id="path867" />
    <path
       inkscape:connector-curvature="0"
       style="display:inline;fill:#ff2a2a;stroke-width:0.55548203;stroke:none;stroke-opacity:0.94117647;fill-opacity:1"
       d="m 122.55819,83.052841 c 0.36602,-1.102742 -0.15043,-1.46394 -1.21194,-0.847632 -0.46672,0.270974 -1.04455,0.731546 -1.28406,1.023454 -0.42869,0.522527 -0.42096,0.528326 0.49713,0.373167 0.87007,-0.147032 0.92132,-0.119352 0.76462,0.412968 -0.16113,0.547269 -0.14409,0.553536 0.41719,0.153614 0.32185,-0.229323 0.68953,-0.731328 0.81706,-1.115571 z"
       id="path865" />
    <path
       inkscape:connector-curvature="0"
       style="display:inline;fill:#ff2a2a;stroke-width:0.55548203;stroke:none;stroke-opacity:0.94117647;fill-opacity:1"
       d="m 127.84226,81.232458 c 1.88785,-1.227795 1.80095,-1.615444 -0.1636,-0.729761 -0.91912,0.414372 -2.11102,0.840951 -2.64868,0.947964 -0.80004,0.15924 -0.88918,0.231804 -0.49083,0.399541 0.99422,0.418648 1.99829,0.230868 3.30311,-0.617744 z"
       id="path863" />
    <path
       inkscape:connector-curvature="0"
       style="display:inline;fill:#ff2a2a;stroke-width:0.55548203;stroke:#00000f;stroke-opacity:0.94117647"
       d="m 73.447318,104.59257 c -0.966004,-0.24805 -2.749447,-1.35887 -3.371565,-2.09999 -0.41039,-0.48888 -0.738695,-0.55595 -2.699276,-0.55135 -2.065656,0.005 -4.715088,0.30039 -6.253692,0.69759 l -0.641268,0.16555 0.538402,-0.63388 c 0.885345,-1.04228 3.038983,-2.302853 4.728852,-2.767868 1.259544,-0.34661 2.396192,-0.412351 5.521852,-0.319418 3.464117,0.103052 4.166589,0.202474 5.861093,0.830003 1.058893,0.392143 2.297155,0.918393 2.751709,1.169453 0.808495,0.44654 0.73604,0.45454 -3.336398,0.36801 -2.397161,-0.051 -4.162845,0.0137 -4.162845,0.15232 0,0.63134 1.523087,1.66224 3.803954,2.57469 l 0.490821,0.19634 -0.490821,0.21759 c -0.601509,0.26665 -1.704666,0.26704 -2.740818,10e-4 z"
       id="path861" />
    <path
       inkscape:connector-curvature="0"
       style="display:inline;fill:#ff2a2a;stroke-width:0.55548203;stroke:#00000f;stroke-opacity:0.94117647"
       d="m 113.589,104.24557 c -0.45865,-0.33046 -1.10999,-1.16356 -1.44744,-1.85131 -0.33746,-0.68777 -0.66875,-1.24532 -0.73626,-1.23899 -0.0675,0.006 -0.45401,0.46601 -0.85895,1.02153 -0.88744,1.2175 -1.94833,2.00766 -3.04377,2.26706 l -0.81213,0.1923 0.54359,-0.79269 c 0.49732,-0.72518 1.12223,-3.16616 0.878,-3.42947 -0.0568,-0.0612 -0.66269,0.36545 -1.34647,0.94816 -1.21891,1.03874 -2.04704,1.43274 -3.64305,1.73331 -0.79834,0.15034 -1.11398,-0.17822 -0.43935,-0.45733 0.36224,-0.14986 1.85049,-2.20808 1.85049,-2.55918 0,-0.104573 -0.63502,-0.029 -1.41114,0.16786 -0.77613,0.19689 -1.87932,0.35985 -2.45152,0.36214 -0.57222,0.003 -1.598861,0.2329 -2.281443,0.51251 l -1.241037,0.50839 0.453357,-0.83912 c 0.249343,-0.46151 0.944679,-1.136773 1.545184,-1.50057 l 1.091819,-0.661452 -0.75927,-0.07986 c -0.430113,-0.04524 -1.576564,0.27021 -2.644598,0.727608 -1.036949,0.444071 -2.296614,0.806984 -2.799272,0.806444 l -0.913917,-0.001 0.746702,-0.490915 c 0.410694,-0.270013 1.062429,-0.894633 1.448315,-1.388073 l 0.701602,-0.897139 -2.184561,-0.166306 c -1.201507,-0.09151 -2.57108,-0.349033 -3.043511,-0.572346 -1.021158,-0.482729 -3.1904,-2.227748 -3.1904,-2.566497 0,-0.131013 0.598279,-0.01633 1.32952,0.254935 1.545306,0.573177 3.907441,0.940554 4.312467,0.670686 0.412511,-0.274859 -0.411891,-1.174202 -1.592627,-1.737393 -0.539914,-0.257536 -1.637424,-0.554418 -2.438899,-0.659744 l -1.457238,-0.191501 0.554428,-0.484019 c 0.854542,-0.745996 2.091673,-0.883899 3.647828,-0.406647 0.759727,0.233001 1.413171,0.389313 1.452091,0.347357 0.03895,-0.042 -0.152233,-0.709001 -0.424785,-1.482321 -0.272552,-0.773306 -0.440909,-1.464919 -0.374124,-1.536917 0.06681,-0.07203 0.706532,0.402904 1.42168,1.055346 3.560588,3.248376 10.251589,7.161887 13.934039,8.14988 1.1445,0.307084 3.04433,0.625608 4.22185,0.707851 l 2.14095,0.149534 -0.35655,0.920006 c -0.5259,1.356953 -0.43871,2.642073 0.26733,3.940943 0.70352,1.29424 0.55824,1.41668 -0.64893,0.54689 z"
       id="path859" />
    <path
       inkscape:connector-curvature="0"
       style="display:inline;fill:#ff2a2a;stroke-width:0.55548203;stroke:#00000f;stroke-opacity:0.94117647"
       d="m 86.203697,103.52324 c -0.565484,-0.31259 -1.17288,-0.75815 -1.34979,-0.99013 -0.28722,-0.37665 -0.229715,-0.40108 0.537313,-0.22844 1.547102,0.34821 3.394045,0.49897 3.842093,0.31361 0.321689,-0.13309 7.73e-4,-0.34711 -1.198167,-0.79871 -2.624112,-0.98855 -4.833231,-2.468505 -6.938701,-4.648419 -2.327514,-2.40983 -3.969821,-3.656064 -5.644566,-4.28328 l -1.227077,-0.459548 1.578025,-0.0087 1.578025,-0.0087 -1.087194,-0.987624 c -2.280171,-2.071373 -3.826511,-3.789085 -4.39812,-4.885549 l -0.592948,-1.137409 0.602153,0.42485 c 3.320142,2.342474 4.943246,2.944844 7.61902,2.827494 l 1.78329,-0.07823 -0.84155,-0.906029 c -0.462856,-0.498317 -1.504178,-1.247751 -2.314054,-1.66542 l -1.472492,-0.7594 1.34979,0.142755 c 2.135424,0.22583 3.072376,0.610498 4.466234,1.833582 1.682687,1.47654 2.679255,2.018891 3.681655,2.003648 l 0.80979,-0.01241 -1.160628,-0.651419 c -0.77656,-0.435851 -1.444268,-1.105496 -2.017771,-2.023603 -0.47142,-0.75469 -0.812651,-1.420135 -0.75828,-1.47875 0.05441,-0.05865 0.664107,0.02416 1.354958,0.183841 0.690852,0.15973 1.959342,0.290419 2.818867,0.290419 1.66876,0 3.421899,0.629364 4.059186,1.457216 0.329578,0.428125 0.318043,0.456752 -0.126185,0.313289 -1.199168,-0.387256 -1.82405,-0.430572 -3.433901,-0.238038 l -1.717908,0.205461 0.85896,0.498416 c 0.47242,0.274118 1.278629,0.633346 1.79157,0.798265 l 0.932622,0.299853 -0.516313,0.707629 c -0.880145,1.20631 -1.959744,1.374874 -5.507207,0.859852 -1.715003,-0.248984 -3.181282,-0.384656 -3.258427,-0.301495 -0.07715,0.08313 0.308284,0.675808 0.856489,1.316977 0.548206,0.641182 1.186862,1.56634 1.419243,2.055919 0.487991,1.028111 0.606526,1.106631 -1.936231,-1.282688 -1.413834,-1.32853 -2.616723,-1.911557 -2.616723,-1.268316 0,0.547541 2.859941,3.719944 4.626051,5.131477 3.337595,2.667489 4.36735,3.204437 6.145536,3.204437 1.805488,0 1.810242,0.396974 0.0087,0.759197 l -1.08677,0.21855 1.227078,0.58865 c 1.549919,0.74348 3.33506,1.11437 4.330573,0.89972 l 0.770934,-0.16623 -0.551752,0.80456 c -0.771489,1.12497 -1.461046,1.39109 -4.027926,1.55444 -1.966902,0.12516 -2.364986,0.0733 -3.267882,-0.42583 z"
       id="path857" />
    <path
       inkscape:connector-curvature="0"
       style="display:inline;fill:#ff2a2a;stroke-width:0.55548203;stroke:#00000f;stroke-opacity:0.94117647"
       d="m 134.09593,102.37577 c 0.70605,-1.29889 0.79323,-2.584013 0.26733,-3.940967 l -0.35655,-0.919996 2.14096,-0.149533 c 1.17751,-0.08225 3.07735,-0.400787 4.22185,-0.707841 3.68243,-0.988003 10.37344,-4.901519 13.93403,-8.149906 0.71514,-0.652432 1.35489,-1.127333 1.42167,-1.055335 0.0669,0.07203 -0.10149,0.763611 -0.37411,1.536928 -0.27256,0.773306 -0.46371,1.440351 -0.42478,1.482307 0.039,0.042 0.69236,-0.114357 1.45208,-0.347358 1.55616,-0.477251 2.7933,-0.339337 3.64781,0.406647 l 0.55445,0.484033 -1.45724,0.191491 c -0.80148,0.105326 -1.89897,0.402218 -2.43891,0.659744 -1.18072,0.563187 -2.00512,1.462536 -1.59261,1.737398 0.40502,0.269857 2.76716,-0.09744 4.31246,-0.670692 0.73124,-0.271225 1.32953,-0.385952 1.32953,-0.254926 0,0.338739 -2.16926,2.083775 -3.19041,2.566484 -0.47242,0.223333 -1.84201,0.480888 -3.04352,0.572345 l -2.18455,0.166307 0.7016,0.897139 c 0.38589,0.49345 1.03762,1.11808 1.44831,1.388072 l 0.7467,0.490913 -0.91392,0.001 c -0.50265,5.1e-4 -1.76232,-0.362354 -2.79925,-0.806431 -1.06804,-0.457419 -2.2145,-0.772832 -2.64461,-0.727608 l -0.75927,0.07976 1.09182,0.661452 c 0.6005,0.363809 1.29584,1.03906 1.5452,1.500576 l 0.45335,0.839117 -1.24105,-0.508403 c -0.68258,-0.279604 -1.70922,-0.510237 -2.28143,-0.512515 -0.57222,-0.0031 -1.6754,-0.165235 -2.45153,-0.362124 -0.77613,-0.196911 -1.41114,-0.272447 -1.41114,-0.167867 0,0.351102 1.48824,2.409319 1.85048,2.559179 0.67464,0.27911 0.35901,0.60767 -0.43934,0.45734 -1.59602,-0.30057 -2.42413,-0.69458 -3.64305,-1.73332 -0.68377,-0.5827 -1.28969,-1.00937 -1.34646,-0.948152 -0.24426,0.263316 0.38067,2.704292 0.87798,3.429472 l 0.54361,0.79269 -0.81215,-0.19232 c -1.09542,-0.25938 -2.15633,-1.04954 -3.04375,-2.26703 -0.40495,-0.55554 -0.79148,-1.015233 -0.85896,-1.021553 -0.0675,-0.006 -0.3988,0.551233 -0.73625,1.238993 -0.54721,1.11529 -1.91059,2.45213 -2.50079,2.45213 -0.12072,0 0.0612,-0.51647 0.40441,-1.14771 z"
       id="path855" />
    <path
       inkscape:connector-curvature="0"
       style="display:inline;fill:#ff2a2a;stroke-width:0.55548203;stroke:#00000f;stroke-opacity:0.94117647"
       d="m 172.14573,103.28363 -0.49084,-0.23251 0.49084,-0.19635 c 2.28086,-0.91246 3.80395,-1.94335 3.80395,-2.57469 0,-0.13864 -1.76568,-0.20324 -4.16285,-0.15231 -4.07244,0.0865 -4.1449,0.0786 -3.33639,-0.368023 0.45454,-0.251058 1.69281,-0.777306 2.7517,-1.169452 1.6945,-0.627532 2.39698,-0.727006 5.86109,-0.829995 3.12566,-0.09296 4.26231,-0.02724 5.52186,0.319407 1.68987,0.465031 3.84352,1.72558 4.72884,2.767883 l 0.53842,0.63387 -0.64128,-0.16555 c -1.5263,-0.39402 -4.18025,-0.69273 -6.19797,-0.69758 -2.07041,-0.005 -2.21708,0.0333 -3.01316,0.78687 -0.46026,0.43567 -1.26732,1.0289 -1.7935,1.3183 -1.08749,0.59813 -3.32808,0.90718 -4.06071,0.56013 z"
       id="path853" />
    <path
       inkscape:connector-curvature="0"
       style="display:inline;fill:#ff2a2a;stroke-width:0.55548203;stroke:#00000f;stroke-opacity:0.94117647"
       d="m 157.42078,102.54711 c -1.22868,-0.17245 -1.98852,-0.60352 -2.57731,-1.46209 l -0.56087,-0.81785 0.77094,0.16622 c 0.99552,0.21465 2.78065,-0.15623 4.33056,-0.899724 l 1.22708,-0.588629 -1.08677,-0.218561 c -1.80113,-0.362218 -1.79636,-0.75922 0.008,-0.75922 1.77819,0 2.80795,-0.536928 6.14555,-3.204427 1.76611,-1.411524 4.62607,-4.58392 4.62607,-5.131473 0,-0.643248 -1.20289,-0.06017 -2.61674,1.268297 -2.54275,2.389327 -2.42422,2.3108 -1.93623,1.2827 0.23238,-0.48958 0.87105,-1.414749 1.41924,-2.055922 0.54822,-0.641171 0.93363,-1.233824 0.85649,-1.316974 -0.0772,-0.08313 -1.54342,0.05244 -3.25842,0.301494 -3.54747,0.515008 -4.62707,0.346454 -5.50721,-0.859851 l -0.5163,-0.707641 0.9326,-0.299851 c 0.51295,-0.164909 1.31915,-0.524127 1.79158,-0.798267 l 0.85927,-0.498404 -1.7179,-0.205473 c -1.60985,-0.192534 -2.23473,-0.149218 -3.4339,0.23805 -0.44424,0.143463 -0.45577,0.114835 -0.12619,-0.313301 0.6373,-0.827851 2.39044,-1.457216 4.05919,-1.457216 0.85953,0 2.12802,-0.130677 2.81886,-0.290417 0.69086,-0.15973 1.30059,-0.242457 1.35496,-0.183842 0.0544,0.05865 -0.28684,0.72406 -0.75828,1.478771 -0.5735,0.918097 -1.24121,1.587742 -2.01776,2.023591 l -1.16064,0.651421 0.80979,0.01229 c 1.00241,0.01523 1.99898,-0.527108 3.68166,-2.003637 1.39385,-1.223094 2.33081,-1.607761 4.46625,-1.833581 l 1.34977,-0.142756 -1.4725,0.759391 c -0.80986,0.417668 -1.85119,1.167112 -2.31405,1.665429 l -0.84154,0.906018 1.78328,0.07823 c 2.67578,0.117349 4.29888,-0.48501 7.61903,-2.827494 l 0.60216,-0.424839 -0.59296,1.137409 c -0.57161,1.096453 -2.11795,2.814165 -4.39811,4.885534 l -1.0872,0.987639 1.57803,0.0087 1.57802,0.0087 -1.22708,0.459559 c -1.67473,0.62721 -3.31704,1.873438 -5.64457,4.283271 -2.10546,2.179903 -4.31458,3.65988 -6.9387,4.648426 -1.19879,0.4516 -1.51985,0.66562 -1.19816,0.79871 0.44805,0.18536 2.29499,0.0346 3.84209,-0.31362 0.77223,-0.17382 0.82597,-0.1501 0.53232,0.23493 -0.17964,0.23553 -0.79431,0.67233 -1.36591,0.97066 -1.00607,0.52507 -2.62537,0.64931 -4.68827,0.35977 z"
       id="path851" />
    <path
       inkscape:connector-curvature="0"
       style="display:inline;fill:#ff2a2a;stroke-width:0.55548203;stroke:#00000f;stroke-opacity:0.94117647"
       d="m 71.938441,96.935027 c -0.717575,-0.267205 -2.053243,-1.03721 -2.968129,-1.71114 l -1.663439,-1.225354 h -3.219408 c -3.524712,0 -5.093859,-0.410177 -6.550944,-1.71241 l -0.736235,-0.658015 5.276425,0.144073 c 6.258198,0.170871 8.221586,0.43115 10.096982,1.338507 1.315744,0.636592 3.165026,2.272601 2.103359,1.860791 -0.764732,-0.296634 -2.96653,-0.919444 -3.814565,-1.079023 -1.286387,-0.242041 -0.844912,0.37843 0.991793,1.393886 0.886292,0.490008 2.645306,1.166767 3.908899,1.503893 l 2.297439,0.612963 -2.208739,0.0083 c -1.523904,0.0062 -2.613263,-0.141807 -3.513438,-0.476979 z"
       id="path849" />
    <path
       inkscape:connector-curvature="0"
       style="display:inline;fill:#ff2a2a;stroke-width:0.55548203;stroke:#00000f;stroke-opacity:0.94117647"
       d="m 172.97069,95.467331 c 1.26358,-0.337147 3.0226,-1.013895 3.90889,-1.503893 1.83672,-1.015472 2.27818,-1.635936 0.99179,-1.393883 -0.84803,0.159566 -3.04982,0.782381 -3.81457,1.079009 -1.06165,0.41181 0.78763,-1.224202 2.10338,-1.86078 1.87539,-0.907357 3.83877,-1.167639 10.09696,-1.338511 l 5.27645,-0.144072 -0.73625,0.658018 c -1.45557,1.300881 -3.0271,1.712412 -6.53928,1.712412 h -3.20774 l -1.82549,1.31631 c -2.2876,1.649538 -3.75336,2.12817 -6.44874,2.105802 l -2.10285,-0.01737 2.29745,-0.612963 z"
       id="path847" />
    <path
       inkscape:connector-curvature="0"
       style="display:inline;fill:#ff2a2a;stroke-width:0.55548203;stroke:#00000f;stroke-opacity:0.94117647"
       d="m 68.212119,88.401352 c -1.282308,-0.426459 -3.186515,-0.89295 -4.231613,-1.036663 -4.037369,-0.555169 -7.038444,-2.085558 -8.450059,-4.309051 -1.097835,-1.729268 -1.028025,-2.024919 0.19654,-0.832204 1.552596,1.512218 3.67678,2.439455 7.539851,3.291222 3.783576,0.834248 5.100321,1.393617 6.566459,2.789498 0.525627,0.500428 0.90047,0.901482 0.832976,0.891233 -0.06746,-0.0098 -1.171857,-0.367574 -2.454154,-0.794035 z"
       id="path845" />
    <path
       inkscape:connector-curvature="0"
       style="display:inline;fill:#ff2a2a;stroke-width:0.55548203;stroke:#00000f;stroke-opacity:0.94117647"
       d="m 178.50056,86.970305 c 1.47633,-1.38869 2.79649,-1.947308 6.56647,-2.778553 3.86306,-0.851779 5.98726,-1.779015 7.53985,-3.291232 1.22455,-1.192717 1.29438,-0.897064 0.19653,0.832214 -1.41215,2.224342 -4.41704,3.756134 -8.45006,4.307559 -1.0451,0.142887 -3.00453,0.612859 -4.35431,1.04439 l -2.45416,0.784578 z"
       id="path842" />
    <path
       inkscape:connector-curvature="0"
       style="display:inline;fill:#ff2a2a;stroke-width:0.55548203;stroke:#00000f;stroke-opacity:0.94117647"
       d="m 65.306969,84.740174 c -0.72047,-0.279439 -1.79378,-0.813761 -2.385138,-1.187384 -1.150748,-0.727052 -4.03552,-3.485671 -4.03552,-3.859045 0,-0.123725 0.855892,-0.259723 1.901978,-0.302234 l 1.901967,-0.07725 -1.742999,-1.004413 c -2.132879,-1.229069 -4.301956,-3.268579 -4.884991,-4.59317 -0.464032,-1.054268 -0.566289,-3.721468 -0.171796,-4.481435 0.167389,-0.322494 0.260714,-0.126869 0.377442,0.791281 0.210183,1.653212 0.904561,3.032674 2.26459,4.498921 1.411201,1.521412 2.509581,2.336446 5.597398,4.153423 1.724033,1.014488 2.801794,1.867856 3.742587,2.963385 1.491251,1.736514 1.709812,2.369109 0.523691,1.515721 -1.546395,-1.112612 -4.247346,-2.384332 -5.434774,-2.558914 l -1.201344,-0.176628 0.587812,0.86057 c 0.323288,0.473313 1.561366,1.563413 2.751274,2.422459 2.289496,1.652884 2.330713,1.858106 0.207823,1.034738 z"
       id="path840" />
    <path
       inkscape:connector-curvature="0"
       style="display:inline;fill:#ff2a2a;stroke-width:0.55548203;stroke:#00000f;stroke-opacity:0.94117647"
       d="m 87.722672,83.923878 c -0.67489,-0.122604 -2.44188,-0.348032 -3.926646,-0.500972 -4.143261,-0.426797 -6.875277,-1.158843 -11.227786,-3.008517 -2.193397,-0.932121 -4.962016,-2.085927 -6.152468,-2.564006 -2.702083,-1.085149 -5.179359,-2.939491 -6.85802,-5.13354 -1.143959,-1.49518 -2.571612,-3.853583 -2.332779,-3.853583 0.04842,0 0.524789,0.617504 1.058654,1.372226 2.132616,3.014862 6.791342,6.12408 11.032856,7.36329 1.079828,0.315498 4.282513,1.386621 7.117069,2.380296 3.611333,1.265976 5.994719,1.938787 7.963798,2.248094 2.605637,0.409302 5.215592,1.201235 5.767214,1.74993 0.28081,0.27932 -0.732754,0.257233 -2.441892,-0.05321 z"
       id="path838" />
    <path
       inkscape:connector-curvature="0"
       style="display:inline;fill:#ff2a2a;stroke-width:0.55548203;stroke:#00000f;stroke-opacity:0.94117647"
       d="m 183.18945,82.416862 c 1.2148,-0.877926 2.47325,-1.983476 2.79654,-2.456799 l 0.5878,-0.860558 -1.20134,0.176616 c -1.18743,0.174581 -3.88838,1.446302 -5.43477,2.558914 -1.18612,0.853399 -0.96755,0.220813 0.52369,-1.515711 0.9408,-1.09554 2.01856,-1.948907 3.7426,-2.963395 3.0878,-1.816977 4.18618,-2.632001 5.59739,-4.153413 1.36004,-1.466247 2.0544,-2.845709 2.26459,-4.498931 0.11674,-0.91814 0.21004,-1.113765 0.37745,-0.791271 0.39449,0.759956 0.29224,3.427167 -0.1718,4.481424 -0.58304,1.324602 -2.75211,3.364101 -4.88499,4.593181 l -1.74301,1.004413 1.90198,0.07725 c 1.04608,0.04254 1.90197,0.180784 1.90197,0.307283 0,0.126511 -0.74193,0.962947 -1.64873,1.85876 -1.65446,1.634409 -4.2711,3.209213 -5.95917,3.586471 -0.72096,0.161132 -0.50414,-0.06452 1.3498,-1.404259 z"
       id="path836" />
    <path
       inkscape:connector-curvature="0"
       style="display:inline;fill:#ff2a2a;stroke-width:0.55548203;stroke:#00000f;stroke-opacity:0.94117647"
       d="m 158.16929,82.654181 c 0.55163,-0.548683 3.16158,-1.340617 5.76723,-1.749919 1.96908,-0.309318 4.35246,-0.982118 7.96379,-2.248105 2.83456,-0.993664 6.03724,-2.064797 7.11706,-2.380274 4.24153,-1.23922 8.90024,-4.348439 11.03286,-7.363311 0.53387,-0.754722 1.01026,-1.372216 1.05865,-1.372216 0.23885,0 -1.18882,2.358393 -2.33277,3.853571 -1.67867,2.194061 -4.15592,4.048414 -6.85802,5.133541 -1.19045,0.478078 -3.95994,1.632265 -6.15442,2.564855 -4.31062,1.831862 -7.19894,2.602644 -11.30496,3.01683 -1.44124,0.145378 -3.28307,0.37877 -4.09294,0.518632 -1.85472,0.320329 -2.49975,0.328076 -2.19648,0.02633 z"
       id="path834" />
    <path
       inkscape:connector-curvature="0"
       style="display:inline;fill:#ff2a2a;stroke-width:0.55548203;stroke:#00000f;stroke-opacity:0.94117647"
       d="m 84.801472,80.997304 c -3.476672,-0.480951 -4.856995,-1.0119 -7.896827,-3.037537 -1.583999,-1.05551 -2.267985,-1.31038 -5.747541,-2.141714 -1.150726,-0.274923 0.935038,-0.671712 2.850627,-0.542274 1.531629,0.103477 2.038346,0.287741 4.122762,1.499171 1.969547,1.144678 8.240365,3.838208 10.083009,4.331009 0.81769,0.21867 -1.603104,0.141591 -3.41203,-0.108699 z"
       id="path832" />
    <path
       inkscape:connector-curvature="0"
       style="display:inline;fill:#ff2a2a;stroke-width:0.55548203;stroke:#00000f;stroke-opacity:0.94117647"
       d="m 160.12035,79.803185 c 2.33533,-0.720372 8.16258,-3.235012 10.08303,-4.351139 2.0844,-1.21143 2.59113,-1.395696 4.12274,-1.499171 1.9156,-0.129427 4.00136,0.267339 2.85064,0.542274 -3.51406,0.839571 -4.1534,1.080242 -5.7888,2.179154 -2.36494,1.589114 -3.54364,2.12276 -5.74574,2.601295 -1.7671,0.384015 -6.53246,0.839309 -5.52187,0.527587 z"
       id="path844" />
    <path
       style="opacity:1;fill:#ffb380;fill-opacity:1;fill-rule:nonzero;stroke:#00000f;stroke-width:0.76938552;stroke-linecap:square;stroke-miterlimit:4;stroke-dasharray:none;stroke-opacity:0.94117647"
       d="M 121.49743,251.88265 C 112.45028,248.53461 92.701067,232.97017 77.02407,216.83301 62.962505,202.35871 51.598435,187.04394 46.52939,175.7369 43.570884,169.13765 42.396987,158.79375 40.912647,126.24445 40.228189,111.2353 40.236589,42.729131 40.924283,31.417667 41.787758,17.214721 42.865945,8.6737037 44.082309,6.400906 c 0.36194,-0.6762888 0.616314,-0.5772691 3.557828,1.3849365 6.765491,4.5130835 15.531427,8.3308625 22.979694,10.0082225 16.172813,3.642138 33.398599,0.381107 50.377229,-9.5369672 l 3.63705,-2.1245858 2.43031,1.4875094 c 5.93575,3.6330866 14.51639,7.3933856 21.26336,9.3182706 7.49524,2.138365 18.03566,2.898952 25.19738,1.818222 9.70438,-1.46443 19.80931,-5.478462 28.39632,-11.2800053 1.23046,-0.8313306 2.47646,-1.4197066 2.76887,-1.3075003 1.49282,0.5728518 2.74826,10.7733966 3.72298,30.2496646 0.62016,12.391597 0.6164,68.223207 -0.005,84.055377 -1.09401,27.8441 -2.41984,44.18064 -4.12381,50.81236 -1.8573,7.22845 -11.00928,21.53597 -21.91078,34.25365 -15.6826,18.29531 -39.8253,39.11695 -52.45292,45.23751 -3.86509,1.87339 -5.69706,2.11375 -8.42273,1.10508 z m 8.032,-12.27185 c 9.95087,-4.77706 29.45798,-21.06867 42.49761,-35.49241 12.37019,-13.68325 22.04559,-28.27309 23.81812,-35.91612 1.24894,-5.38536 2.42366,-19.63427 3.3322,-40.41906 0.65397,-14.96033 0.66203,-70.682014 0.0117,-81.362525 -1.02916,-16.90433 -2.07186,-23.735975 -3.71929,-24.368148 -0.27501,-0.105532 -1.63643,0.570473 -3.02537,1.502238 -20.22913,13.570679 -42.15709,13.688846 -64.90991,0.349788 l -2.92028,-1.712048 -4.34678,2.480294 c -10.98002,6.265266 -21.025208,9.152765 -31.759463,9.129298 -10.75766,-0.02352 -20.72583,-3.155991 -31.006196,-9.743617 -1.607992,-1.030396 -3.218109,-1.873448 -3.578037,-1.873448 -2.011694,0 -3.23827,9.063574 -4.108694,30.36051 -0.524085,12.822953 -0.260479,68.215468 0.381847,80.238668 1.017087,19.03811 1.832144,28.58945 2.937584,34.42444 1.01122,5.33764 5.846315,14.15513 13.013112,23.73124 14.330841,19.14855 39.174687,41.7411 53.520507,48.67062 3.85623,1.8627 5.98161,1.86275 9.86127,2.8e-4 z"
       id="path993"
       inkscape:connector-curvature="0" />
    <ellipse
       style="opacity:1;fill:#ffd42a;fill-opacity:1;fill-rule:nonzero;stroke:#00000f;stroke-width:0.65312016;stroke-linecap:square;stroke-miterlimit:4;stroke-dasharray:none;stroke-opacity:0.94117647"
       id="path995"
       cx="48.286694"
       cy="16.741867"
       rx="3.0018673"
       ry="3.23278" />
    <ellipse
       style="display:inline;opacity:1;fill:#ffd42a;fill-opacity:1;fill-rule:nonzero;stroke:#00000f;stroke-width:0.65312016;stroke-linecap:square;stroke-miterlimit:4;stroke-dasharray:none;stroke-opacity:0.94117647"
       id="path995-8"
       cx="124.75"
       cy="15.499998"
       rx="3.0018673"
       ry="3.23278" />
    <ellipse
       style="display:inline;opacity:1;fill:#ffd42a;fill-opacity:1;fill-rule:nonzero;stroke:#00000f;stroke-width:0.65312016;stroke-linecap:square;stroke-miterlimit:4;stroke-dasharray:none;stroke-opacity:0.94117647"
       id="path995-4"
       cx="201.25"
       cy="16.249998"
       rx="3.0018673"
       ry="3.23278" />
    <ellipse
       style="display:inline;opacity:1;fill:#ffd42a;fill-opacity:1;fill-rule:nonzero;stroke:#00000f;stroke-width:0.65312016;stroke-linecap:square;stroke-miterlimit:4;stroke-dasharray:none;stroke-opacity:0.94117647"
       id="path995-83"
       cx="124.75"
       cy="246.75"
       rx="3.0018673"
       ry="3.23278" />
    <ellipse
       style="display:inline;opacity:1;fill:#ffd42a;fill-opacity:1;fill-rule:nonzero;stroke:#00000f;stroke-width:0.65312016;stroke-linecap:square;stroke-miterlimit:4;stroke-dasharray:none;stroke-opacity:0.94117647"
       id="path995-3"
       cx="78"
       cy="211.5"
       rx="3.0018673"
       ry="3.23278" />
    <ellipse
       style="display:inline;opacity:1;fill:#ffd42a;fill-opacity:1;fill-rule:nonzero;stroke:#00000f;stroke-width:0.65312016;stroke-linecap:square;stroke-miterlimit:4;stroke-dasharray:none;stroke-opacity:0.94117647"
       id="path995-9"
       cx="174.25"
       cy="208.25"
       rx="3.0018673"
       ry="3.23278" />
    <ellipse
       style="display:inline;opacity:1;fill:#ffd42a;fill-opacity:1;fill-rule:nonzero;stroke:#00000f;stroke-width:0.65312016;stroke-linecap:square;stroke-miterlimit:4;stroke-dasharray:none;stroke-opacity:0.94117647"
       id="path995-5"
       cx="49.75"
       cy="171"
       rx="3.0018673"
       ry="3.23278" />
    <ellipse
       style="display:inline;opacity:1;fill:#ffd42a;fill-opacity:1;fill-rule:nonzero;stroke:#00000f;stroke-width:0.65312016;stroke-linecap:square;stroke-miterlimit:4;stroke-dasharray:none;stroke-opacity:0.94117647"
       id="path995-89"
       cx="199.75"
       cy="171.25"
       rx="3.0018673"
       ry="3.23278" />
    <ellipse
       style="display:inline;opacity:1;fill:#ffd42a;fill-opacity:1;fill-rule:nonzero;stroke:#00000f;stroke-width:0.65312016;stroke-linecap:square;stroke-miterlimit:4;stroke-dasharray:none;stroke-opacity:0.94117647"
       id="path995-7"
       cx="44.75"
       cy="102.25"
       rx="3.0018673"
       ry="3.23278" />
    <ellipse
       style="display:inline;opacity:1;fill:#ffd42a;fill-opacity:1;fill-rule:nonzero;stroke:#00000f;stroke-width:0.65312016;stroke-linecap:square;stroke-miterlimit:4;stroke-dasharray:none;stroke-opacity:0.94117647"
       id="path995-6"
       cx="204.25"
       cy="104.25"
       rx="3.0018673"
       ry="3.23278" />
    <path
       style="display:inline;fill:url(#linearGradient1054);fill-opacity:1;stroke:#00000f;stroke-width:0.55548203;stroke-opacity:0.94117647"
       d="m 124.69528,93.57305 c -0.13594,0.05821 -0.26952,0.69407 -0.53711,1.96875 -0.16303,0.77657 -0.57569,2.20612 -0.91797,3.17578 -1.82144,5.15982 -2.11533,6.272 -2.11133,7.98047 0.006,2.15046 0.37189,3.38991 1.62109,5.49023 1.07146,1.80152 1.30844,2.0506 0.88282,0.92578 -0.15143,-0.40017 -0.28689,-2.1561 -0.30079,-3.90234 -0.0242,-3.02761 0.009,-3.24805 0.71094,-4.75195 0.40494,-0.86739 0.86198,-1.61712 1.01563,-1.66602 0.15368,-0.0488 0.51954,0.44522 0.8125,1.09766 0.44284,0.98624 0.54107,1.71401 0.58007,4.3125 0.0258,1.71899 -0.0374,3.77972 -0.14062,4.58008 l -0.1875,1.45507 0.73242,-0.92578 c 0.40341,-0.50932 0.97431,-1.46233 1.26758,-2.11719 1.10341,-2.46389 0.82735,-7.53876 -0.56836,-10.45117 -0.41842,-0.87313 -0.98964,-2.06264 -1.26953,-2.64257 -0.27989,-0.57996 -0.7468,-1.94224 -1.03711,-3.02735 -0.27846,-1.04083 -0.4168,-1.56017 -0.55273,-1.50195 z m -7.2461,14.18164 c -1.10481,-0.0173 -2.31863,0.54496 -3.20898,1.60742 -1.13612,1.35577 -1.39423,2.10274 -1.42383,4.125 -0.0289,1.9695 0.34782,2.69334 1.91211,3.68164 0.9364,0.59176 1.32229,0.68566 2.3789,0.57617 1.33429,-0.13819 2.1504,-0.82569 2.1504,-1.80859 0,-0.44984 -0.0757,-0.43552 -0.89258,0.16211 -0.49125,0.35943 -1.15905,0.6543 -1.48438,0.6543 -1.49376,0 -2.76771,-1.58957 -2.43164,-3.03321 0.0847,-0.36397 0.49513,-1.0798 0.91211,-1.59179 0.58746,-0.72137 0.94446,-0.93165 1.58984,-0.93165 1.73517,1e-5 4.09535,3.48742 4.43165,6.54883 0.27368,2.49139 -1.27838,5.37279 -3.47461,6.45117 -1.31531,0.64581 -2.06593,0.61307 -2.92383,-0.12695 -0.88342,-0.76211 -0.74947,-1.27799 0.51953,-2 l 0.93164,-0.53125 -1.05859,-0.0117 c -1.41334,-0.0156 -1.95547,0.34466 -2.14258,1.41992 -0.20659,1.18716 0.37238,2.11949 1.82812,2.94141 1.27717,0.72105 2.58073,0.68159 4.32617,-0.12891 1.9662,-0.9129 2.69717,-2.59776 2.98829,-6.89648 0.22867,-3.37666 -1.4315,-8.87233 -3.15039,-10.43164 -0.49127,-0.44565 -1.11446,-0.6654 -1.77735,-0.67578 z m 14.90625,0 c -0.66289,0.0104 -1.28608,0.23013 -1.77734,0.67578 -1.71888,1.5593 -3.3771,7.055 -3.14844,10.43164 0.34162,5.04473 1.36166,6.7511 4.42578,7.4043 1.53954,0.32818 1.56446,0.32444 2.83399,-0.36914 1.50043,-0.81968 2.09232,-1.74706 1.88281,-2.95118 -0.18712,-1.07523 -0.72923,-1.43562 -2.14258,-1.41992 l -1.06055,0.0117 0.9336,0.53125 c 1.26902,0.72201 1.40297,1.23791 0.51953,2 -0.8579,0.74002 -1.61048,0.77276 -2.92578,0.12695 -2.19624,-1.07842 -3.7483,-3.95978 -3.47461,-6.45117 0.33632,-3.06143 2.69647,-6.54883 4.43164,-6.54883 0.64537,0 1.00433,0.21029 1.5918,0.93165 0.41696,0.51198 0.8274,1.22782 0.9121,1.59179 0.33609,1.44364 -0.93787,3.03321 -2.43164,3.03321 -0.32532,0 -0.9931,-0.29489 -1.48437,-0.6543 -0.81691,-0.59765 -0.89453,-0.61197 -0.89453,-0.16211 0,0.98289 0.81803,1.67034 2.15234,1.80859 1.0566,0.10943 1.4425,0.0155 2.37891,-0.57617 1.56429,-0.98831 1.93895,-1.71019 1.91015,-3.67969 -0.0296,-2.02227 -0.28769,-2.77119 -1.42382,-4.12695 -0.89035,-1.06247 -2.10418,-1.62473 -3.20899,-1.60742 z m -7.45312,10.58594 c -0.13498,0 -0.24414,0.29688 -0.24414,0.66015 0,1.11988 -1.14826,6.51768 -1.78321,8.38672 -0.81233,2.39114 -2.56394,5.63872 -3.25781,6.03906 -0.36915,0.21306 -0.96109,0.26153 -1.70898,0.14063 -1.03601,-0.16749 -1.18532,-0.28492 -1.58204,-1.24024 -0.40349,-0.97168 -0.44994,-1.00652 -0.58984,-0.44336 -0.61085,2.45897 0.22707,4.30088 2.27344,4.9961 1.57682,0.53568 3.44671,-0.33321 4.15039,-1.92969 0.89002,-2.01938 2.49805,-6.34279 2.49805,-6.71875 0,-0.9486 0.42322,-0.16451 0.96679,1.79102 1.20711,4.34264 2.41095,6.32313 4.15039,6.82812 1.60871,0.467 3.58825,-0.34774 4.16602,-1.71484 0.31124,-0.73643 0.37212,-2.27287 0.12891,-3.25196 -0.13989,-0.56315 -0.18634,-0.52832 -0.58985,0.44336 -0.39671,0.95532 -0.54795,1.07275 -1.58398,1.24024 -0.74788,0.1209 -1.33986,0.0724 -1.70899,-0.14063 -0.69387,-0.40034 -2.44548,-3.64792 -3.25781,-6.03906 -0.63495,-1.86904 -1.78125,-7.26684 -1.78125,-8.38672 0,-0.36327 -0.11112,-0.66015 -0.24609,-0.66015 z m 0.12109,11.16406 c -0.0358,-0.0442 -0.48279,1.0583 -0.99414,2.45117 l -0.93164,2.5332 0.54297,6.14649 c 0.29853,3.38077 0.61572,6.62299 0.70312,7.20508 0.0873,0.58207 0.19142,0.88036 0.23242,0.66211 0.29942,-1.59289 1.79883,-12.66363 1.79883,-13.28125 0,-0.6416 -1.1371,-5.45158 -1.35156,-5.7168 z"
       id="path907-0"
       inkscape:connector-curvature="0" />
    <path
       style="display:inline;fill:url(#linearGradient1046);fill-opacity:1;stroke:#00000f;stroke-width:0.55548203;stroke-opacity:0.94117647"
       d="m 57.225197,68.863039 c -0.23884,0 1.18809,2.358335 2.33204,3.853515 1.67867,2.194049 4.15729,4.049617 6.85937,5.134766 1.19046,0.478079 3.95895,1.632332 6.15234,2.564453 4.35251,1.849674 7.08331,2.581015 11.22657,3.007815 1.48476,0.15294 3.25284,0.3774 3.92773,0.5 1.70914,0.31043 2.72222,0.334 2.44141,0.05469 -0.55163,-0.5487 -3.16194,-1.3407 -5.76758,-1.750005 -1.96908,-0.309307 -4.35155,-0.982071 -7.96289,-2.248047 -2.83455,-0.993675 -6.03737,-2.065361 -7.11719,-2.380859 -4.24152,-1.23921 -8.90058,-4.34842 -11.0332,-7.363281 -0.53387,-0.754723 -1.0102,-1.373047 -1.0586,-1.373047 z m -1.2207,0.230468 c -0.03411,0.01266 -0.07143,0.06195 -0.11328,0.142579 -0.39449,0.759966 -0.29216,3.4262 0.17188,4.480468 0.58302,1.324591 2.75188,3.364681 4.88476,4.59375 l 1.74219,1.003906 -1.90235,0.07813 c -1.04608,0.04251 -1.90039,0.179009 -1.90039,0.302734 0,0.373374 2.88442,3.130368 4.03516,3.857418 0.59136,0.37362 1.6643,0.90806 2.38477,1.1875 2.12289,0.82337 2.08245,0.61969 -0.20704,-1.0332 -1.18991,-0.85904 -2.42866,-1.950514 -2.75195,-2.423828 l -0.58789,-0.859374 1.20117,0.175781 c 1.18742,0.174582 3.88916,1.445977 5.43555,2.558591 1.18612,0.85338 0.96781,0.22089 -0.52344,-1.515622 -0.94079,-1.095529 -2.0201,-1.948403 -3.74414,-2.962891 -3.08781,-1.816977 -4.18644,-2.632885 -5.59766,-4.154297 -1.36002,-1.466247 -2.05348,-2.844835 -2.26367,-4.498047 -0.08754,-0.688612 -0.16133,-0.971588 -0.26367,-0.933594 z m 16.58789,6.173829 c -1.34082,0.06988 -2.29859,0.344588 -1.43555,0.550781 3.47955,0.831334 4.16405,1.087068 5.74805,2.142578 3.03983,2.025637 4.41982,2.556158 7.89649,3.037109 1.80893,0.25029 4.2298,0.328045 3.41211,0.109375 -1.84264,-0.492801 -8.1125,-3.187353 -10.08204,-4.332031 -2.08442,-1.21143 -2.59141,-1.39457 -4.12304,-1.498047 -0.4789,-0.03236 -0.96908,-0.03306 -1.41602,-0.0098 z m -17.75586,6.240234 c -0.22293,-0.05259 0.0072,0.468035 0.69336,1.548828 1.41161,2.22349 4.4138,3.75342 8.45117,4.30859 1.0451,0.14371 2.94816,0.61065 4.23047,1.03711 1.2823,0.42646 2.38758,0.78297 2.45508,0.79297 0.06749,0.01025 -0.30835,-0.3902 -0.83398,-0.89062 -1.46614,-1.39589 -2.78283,-1.95482 -6.56641,-2.78907 -3.86307,-0.85177 -5.98646,-1.7788 -7.53906,-3.291011 -0.45922,-0.447268 -0.75687,-0.685245 -0.89063,-0.716797 z m 28.21289,3.550778 c -0.05437,0.05862 0.28835,0.72383 0.75977,1.47852 0.5735,0.91811 1.24102,1.58759 2.01758,2.02344 l 1.16015,0.65039 -0.81054,0.01367 c -1.0024,0.01525 -1.99895,-0.52737 -3.68164,-2.00391 -1.39385,-1.22308 -2.32943,-1.60815 -4.46485,-1.83398 l -1.35156,-0.14258 1.47266,0.75977 c 0.80988,0.41767 1.85159,1.16574 2.31445,1.66406 l 0.8418,0.90625 -1.78321,0.07812 c -2.67578,0.11735 -4.299,-0.48369 -7.61914,-2.82617 l -0.60156,-0.42578 0.5918,1.13672 c 0.57161,1.09647 2.11826,2.81535 4.39843,4.88672 l 1.08789,0.98828 -1.57812,0.0078 -1.57813,0.0098 1.22657,0.45898 c 1.67475,0.62722 3.31701,1.87337 5.64453,4.2832 2.10547,2.17992 4.31534,3.659892 6.93945,4.648442 1.19894,0.4516 1.51895,0.66574 1.19727,0.79883 -0.44805,0.18536 -2.2947,0.0338 -3.8418,-0.31445 -0.76703,-0.17264 -0.82433,-0.14814 -0.53711,0.22851 0.17691,0.23198 0.78413,0.67765 1.34961,0.99024 0.9029,0.49913 1.30068,0.55094 3.26758,0.42578 2.56688,-0.16335 3.25585,-0.42972 4.02734,-1.55469 l 0.55274,-0.80469 -0.77149,0.16602 c -0.99552,0.21465 -2.78016,-0.15496 -4.33008,-0.89844 l -1.22656,-0.58984 1.08594,-0.21875 c 1.80124,-0.362222 1.79767,-0.757812 -0.0078,-0.757812 -1.77819,0 -2.80889,-0.53759 -6.14649,-3.20508 -1.76611,-1.41154 -4.625,-4.58332 -4.625,-5.13086 0,-0.64324 1.20141,-0.06095 2.61524,1.26758 2.54276,2.38932 2.42549,2.31132 1.9375,1.2832 -0.23238,-0.48957 -0.87172,-1.41546 -1.41993,-2.05664 -0.5482,-0.64117 -0.93462,-1.23331 -0.85742,-1.31641 0.07715,-0.08316 1.54477,0.0518 3.25977,0.30078 3.54746,0.51503 4.62571,0.34694 5.50586,-0.85937 l 0.51758,-0.70703 -0.9336,-0.30078 c -0.51294,-0.16492 -1.31859,-0.52471 -1.79101,-0.79883 l -0.85938,-0.49805 1.71875,-0.20508 c 1.60986,-0.19254 2.23443,-0.14898 3.43359,0.23828 0.44422,0.14346 0.45654,0.11367 0.12696,-0.31445 -0.63729,-0.82786 -2.39179,-1.45703 -4.06055,-1.45703 -0.85952,0 -2.12751,-0.12933 -2.81836,-0.28906 -0.69085,-0.15964 -1.30107,-0.2423 -1.35547,-0.1836 z m 9.5586,3.7168 c -0.06678,0.072 0.10245,0.7638 0.375,1.53711 0.27255,0.77332 0.46272,1.44042 0.42382,1.48242 -0.03891,0.04196 -0.69144,-0.11465 -1.45117,-0.34766 -1.55615,-0.47725 -2.79388,-0.33974 -3.64843,0.40626 l -0.55469,0.48437 1.45898,0.19141 c 0.80148,0.10533 1.89759,0.40262 2.4375,0.66015 1.18074,0.56319 2.00626,1.46342 1.59375,1.73828 -0.40503,0.26986 -2.76719,-0.09869 -4.3125,-0.67187 -0.73124,-0.27123 -1.33008,-0.38493 -1.33008,-0.25391 0,0.33874 2.1683,2.08368 3.18946,2.56641 0.47243,0.22332 1.84342,0.48076 3.04492,0.57226 l 2.18359,0.16602 -0.70117,0.89648 c -0.38588,0.49344 -1.03853,1.11866 -1.44922,1.38868 l -0.74609,0.490232 0.91406,0.002 c 0.50266,5.4e-4 1.76189,-0.362572 2.79883,-0.806642 1.06804,-0.4574 2.21442,-0.77371 2.64453,-0.72851 l 0.759773,0.08008 -1.091803,0.66211 c -0.6005,0.36379 -1.29558,1.038482 -1.54492,1.500002 l -0.45313,0.83984 1.24024,-0.50781 c 0.68258,-0.27961 1.709033,-0.51068 2.281253,-0.51368 0.5722,-0.002 1.67699,-0.16443 2.45312,-0.36132 0.77612,-0.19686 1.41016,-0.272542 1.41016,-0.16797 0,0.3511 -1.48737,2.40873 -1.84961,2.55859 -0.67463,0.27911 -0.35889,0.60737 0.43945,0.45703 1.59601,-0.30057 2.42367,-0.69368 3.64258,-1.73242 0.68378,-0.58271 1.2889,-1.01042 1.3457,-0.94922 0.24423,0.26331 -0.37963,2.70451 -0.87695,3.42969 l -0.54492,0.79297 0.8125,-0.19141 c 1.09544,-0.2594 2.15748,-1.05008 3.04492,-2.26758 0.40494,-0.55552 0.78992,-1.01548 0.85742,-1.02148 0.0675,-0.006 0.39887,0.55051 0.73633,1.23828 0.33745,0.68775 0.98862,1.5211 1.44727,1.85156 1.20716,0.86979 1.3539,0.74737 0.65039,-0.54687 -0.70604,-1.29887 -0.79348,-2.58446 -0.26758,-3.941412 l 0.35547,-0.91992 -2.14063,-0.14844 c -1.17752,-0.08224 -3.0762,-0.4019 -4.2207,-0.70898 -3.68245,-0.988 -10.374963,-4.90007 -13.935553,-8.14844 -0.71514,-0.65244 -1.35507,-1.12864 -1.42187,-1.05664 z m -35.80664,2.85352 0.73437,0.6582 c 1.45709,1.30224 3.02803,1.71289 6.55274,1.71289 h 3.21875 l 1.66406,1.22461 c 0.91489,0.67393 2.24923,1.44373 2.9668,1.71094 0.90018,0.33517 1.98977,0.48256 3.51367,0.47656 l 2.20898,-0.0078 -2.29687,-0.61328 c -1.26359,-0.33713 -3.02387,-1.0139 -3.91016,-1.50391 -1.8367,-1.01545 -2.27662,-1.63657 -0.99023,-1.39453 0.84803,0.15958 3.04972,0.78345 3.81445,1.08008 1.06167,0.41181 -0.78778,-1.22474 -2.10352,-1.86133 -1.8754,-0.90736 -3.83945,-1.16702 -10.09765,-1.33789 z m 12.46484,7.41796 c -1.69736,-0.0045 -2.57292,0.09747 -3.51758,0.35743 -1.68987,0.46502 -3.84316,1.725292 -4.72851,2.767572 l -0.53907,0.63282 0.64258,-0.16407 c 1.5386,-0.3972 4.18825,-0.69421 6.25391,-0.69921 1.96058,-0.005 2.28883,0.0638 2.69922,0.55273 0.62211,0.74112 2.40509,1.85156 3.37109,2.09961 1.03615,0.26604 2.13873,0.2647 2.74024,-0.002 l 0.49023,-0.2168 -0.49023,-0.19727 c -2.28087,-0.91245 -3.80469,-1.94288 -3.80469,-2.57421 0,-0.13862 1.7669,-0.20335 4.16406,-0.15235 4.07244,0.0865 4.14443,0.0793 3.33594,-0.36719 -0.45456,-0.25106 -1.69307,-0.77778 -2.75196,-1.169922 -1.69451,-0.62753 -2.39721,-0.72703 -5.86132,-0.83008 -0.78142,-0.02323 -1.43812,-0.03561 -2.00391,-0.03711 z m 29.45898,4.759772 c -1.00754,-0.0148 -1.61289,0.17941 -2.94531,0.94336 -0.92232,0.52882 -1.98477,1.05823 -2.36133,1.17578 l -0.68359,0.21289 0.62305,-0.79883 c 0.96528,-1.23676 0.74747,-1.36586 -0.75586,-0.45117 -0.95306,0.57989 -1.84522,0.8875 -2.88477,0.99609 l -1.5039,0.15626 1.57421,0.85937 c 2.4648,1.34434 3.37167,1.23332 6.14258,-0.74805 1.23479,-0.88297 2.65408,-1.76665 3.1543,-1.96484 l 0.9082,-0.36133 z m -16.82812,0.39258 c -2.1596,-0.0841 -4.43138,0.65912 -6.68945,2.21484 -1.76388,1.21523 -2.28948,1.34918 -6.25977,1.58594 l -3.06641,0.18164 0.98047,0.48242 c 2.80581,1.37941 7.52355,1.15388 10.56055,-0.50586 1.47755,-0.80748 4.28711,-1.6317 4.28711,-1.25781 0,0.0668 -0.53541,0.85234 -1.18945,1.74609 -1.42,1.94044 -2.16624,3.3014 -3.34571,6.09375 l -0.88281,2.08985 1.41992,-1.37696 c 2.15493,-2.08651 4.85814,-3.92733 6.66797,-4.54296 0.89401,-0.3041 2.67473,-0.63192 3.95703,-0.72852 l 2.33203,-0.17578 -1.22851,-0.79297 c -1.09036,-0.70469 -1.44486,-0.79297 -3.18945,-0.79297 -1.07984,0 -2.26748,0.0912 -2.63868,0.20313 -0.92131,0.27779 -0.87078,-0.17735 0.13868,-1.26563 0.46506,-0.5014 1.27681,-1.01038 1.90039,-1.1914 l 1.08984,-0.31641 -1.10352,-0.60352 c -1.18839,-0.64881 -2.44447,-0.99644 -3.74023,-1.04687 z m 23.250003,0.83008 -1.69727,0.16796 c -0.9336,0.0924 -2.09249,0.38955 -2.57617,0.66016 -0.48367,0.27063 -1.819483,1.03794 -2.966803,1.70508 -1.25694,0.73087 -2.71293,1.34428 -3.66601,1.54297 -1.17286,0.24453 -1.45944,0.37996 -1.10547,0.52929 v 0.002 c 0.26254,0.11083 1.36157,0.20689 2.44141,0.21289 2.19147,0.0143 3.27893,-0.3887 5.316403,-1.9668 0.65249,-0.50538 1.1875,-0.81681 1.1875,-0.69336 0,0.12345 -0.34099,0.73021 -0.75586,1.34766 -0.41488,0.61745 -0.69183,1.18888 -0.61523,1.27148 0.29715,0.32034 3.00734,-0.56925 5.02344,-1.65039 1.16303,-0.62369 3.0519,-1.47602 4.19922,-1.89258 l 2.08593,-0.75586 -1.43164,-0.082 c -2.31851,-0.12953 -3.84433,0.34948 -5.77929,1.81446 -0.95055,0.71968 -1.84552,1.30859 -1.99024,1.30859 -0.39616,0 0.13446,-0.94069 1.31445,-2.32812 z m 10.79882,1.91796 -1.84179,0.0996 c -2.35677,0.12894 -4.07886,0.91881 -5.41406,2.48047 -2.12219,2.4821 -2.48836,5.08246 -1.07813,7.65039 l 0.71094,1.29493 0.19531,-1.45508 c 0.10822,-0.80037 0.38062,-2.22795 0.60352,-3.17383 0.35435,-1.50372 0.59229,-1.92412 1.9043,-3.3418 0.87602,-0.94658 2.21308,-2.02338 3.21093,-2.58789 z m -6.55077,0.54493 c -0.45827,0 -3.15546,1.18376 -4.0918,1.79492 -1.83888,1.20023 -4.04566,2.16159 -6.599613,2.875 -2.14658,0.59952 -2.70475,0.65156 -5.45898,0.51758 -1.68724,-0.0821 -3.39975,-0.22697 -3.80469,-0.32227 l -0.73633,-0.17383 0.61523,0.5293 c 0.97837,0.84302 2.59195,1.64349 4.11329,2.04102 0.77476,0.20244 1.86459,0.37852 2.42382,0.39062 1.3732,0.0298 4.671843,-0.72374 5.748053,-1.3125 1.03465,-0.56604 4.8541,-3.54382 5.38867,-4.20117 0.20527,-0.25241 0.85811,-0.83719 1.44922,-1.29883 0.59112,-0.46164 1.01963,-0.83984 0.95313,-0.83984 z"
       id="path899-6"
       inkscape:connector-curvature="0" />
  </g>
</svg>
