<svg xmlns="http://www.w3.org/2000/svg" viewBox="0 0 256 256"><path d="M232.25,63.08c.28-.87-3.59-10.4-3.65-11.12s-2.57-5.18-4.3-7.2-2.87-3.57-3.73-3.57c1.53,0-1.41-1.49-1.41-1.49,0-1-4.42-3.85-5.71-4.49s-4-3-3.85-2.42h-.52c0-.57-3.79-2.18-4.66-1.89-.67-.48-1.21-.87-1.73-.36,0-.43-2.25-.66-3.54-.79a31,31,0,0,0-11.55.64c-9.75-.51-13.78.61-19.82,2.77a81.57,81.57,0,0,0-11.11,4.92,61.21,61.21,0,0,0-10.73,9,39.93,39.93,0,0,0-6.52,9c-2.22,4.44-4.91,7.52-5.36,18.36-.29,7,2.28,15.46,2.71,15.23s.14.65.14,1.8.84.5,1.41.5.92,1.13,1.2.55,1.37-2.41,2-2.12.74-.21.28-1.31-.36-1.57.26-1.16,1.06-2.36,1.11-7.33a91.11,91.11,0,0,1,.76-11.67,16.14,16.14,0,0,1,3.69-6.81A73.15,73.15,0,0,1,156.19,55c3.11-2.19,7.31-4.23,9.33-4.53a76.82,76.82,0,0,1,9.95-.44c3.51.07,6.74.68,7.33,1.39a5.6,5.6,0,0,0,2.62,1.64c.86.21,2.09.44,2.73.53s3,2,5.35,4.34a53.2,53.2,0,0,1,6.43,7.85,17.4,17.4,0,0,1,2.24,7.6c0,2.17-1.24,6.39-2.76,9.42a77.85,77.85,0,0,1-5.06,8.65c-1.26,1.72-6.47,8.79-11.58,15.71s-14.22,19.16-20.23,27.23-13.4,17.49-16.4,20.94a124.87,124.87,0,0,1-12.68,12.2,125.66,125.66,0,0,1-14,9.82c-6.47,3.71-7.11,3.87-13.09,3.15a56.19,56.19,0,0,1-12.31-3.27c-3.31-1.39-6-2.17-6-1.73s-3.73.23-5.6,1c-3.12,1.2-1.38,2.25-3.08.1l-1.86-2.36c2.07,4.51,3,5.8,3.46,5.79s.45,1,0,2.32c-.54,1.71-.39,2.14.53,1.57s-1.64,2.35-.55,6.15c.87,3,.46,8.13.46,11.44s4.85,4.67,5.28,4.67,7.62-3.37,16-7.49a254.43,254.43,0,0,0,24.55-13.89,150.33,150.33,0,0,0,20.86-16.62c1.1-1.09,1.95-1.87,2.66-2.47,1.61-1.38,2.82-2.36,3-2.51,5.05-4,10.92-13.46,10.92-13.46,5.39-8.71,8.09-13.06,10.86-18.25,3.88-7.25,6.31-12.63,11.27-19.49.37-.52,4-5.54,4.28-5.36.1.07-.76.78-1.06,1.36-1.1,2.12-2.42,3.33-2.43,3.9-1.86,2.55-3.64,5.4-2.52,6.49.42.41,3.36,1.25,6.53,1.85a62.77,62.77,0,0,0,8.64,1.08,33.15,33.15,0,0,0,8.38-2A34.61,34.61,0,0,0,218.6,113c2.45-2.34,5.9-6.16,7.28-8.9S231,93,231,93c.17.07,3.54-7.42,3.54-8.85s-.62-5.84-.17-7.59" style="fill:#f55"/><path d="M186.68,50.07s-2-.22-2-.43c0,0-1.89-.57-1.9-.6h0c-1.06-.77-4.72-1.52-15.36-1.71l-6.61,2.55a33.7,33.7,0,0,0-14.61,10.7c-2.18,2.86-3.75,5.24-4.11,7.18s-5.22,20.5-5.27,24.9c0,5-2.15,4.16-5.74,8s-4.09,5.68-1.93,3.67c3-2.83,3.92-3.25,3.91-1.84a1.7,1.7,0,0,0,1.55,1.84h0c1.08,0,1.56-1.07,1.54-3.41,0-1.87.34-3.73.79-4.13a2.32,2.32,0,0,1,2.12-.27c.72.26,1.08.83.8,1.26s.45,1.73,1.61,2.88c1.62,1.62,1.8,2.3.76,3-.82.54-.32.66,1.28.32,2.27-.49,2.38-.4.83.69a4.26,4.26,0,0,0-1.84,2.57,1.2,1.2,0,0,0,1.06,1.31h0c.64,0,.51.56-.3,1.31s-1.73,3.19-2.11,5.49a13.07,13.07,0,0,1-2.89,6.29,7.81,7.81,0,0,0-2.14,5c0,1.59-.56,2.94-1.28,3a10.43,10.43,0,0,1-2.09,0c-.44-.07-.47.7-.07,1.71.65,1.66.54,1.68-1.25.26-1.18-1-1.68-1-1.24-.26a1.9,1.9,0,0,1-.85,2.35c-1.06.71-1.33,1.82-.83,3.41s.4,2.14-.52,1.57c-.7-.43-2.46-.2-3.92.52s-2.63,1.66-2.61,2.1-1,1.09-2.33,1.46a7,7,0,0,0-3.4,2.22c-.61.89-2.5,1.49-4.46,1.42-3.29-.12-3.4,0-3.4,4.06,0,2.31-.47,4.19-1.05,4.19s-1,.71-1,1.57a1.57,1.57,0,0,1-1.57,1.57h0c-.86,0-2.16,1.1-2.88,2.45-1.14,2.13-1.74,2.34-4.71,1.57-2.36-.61-3.24-1.36-2.88-2.45a2.89,2.89,0,0,0-1.42-2.88,7.7,7.7,0,0,1-2.62-3.66c-.37-1.3-1.14-2.36-1.72-2.36s-1-2-.86-4.45a11.92,11.92,0,0,1,2.62-7.33c1.34-1.59,2-2.88,1.38-2.88s-1.28.7-1.57,1.57a2.21,2.21,0,0,1-1.83,1.55c-.72,0-2.88,2.1-5.5,3.71-3,1.85-4.54,3.71-5,3.68s-5.23,4.09-6.81,5.29-6,3.46-6,4.13c-1.42,0-.67,1.21-1.48,1.21s-5.81,2.67-6,3.39,5.11-.48,6.7-.11c2.7.61,2.75.72.78,1.7-1.15.58.12,1.33-.94,2.55s-.84-1.47-.5-2.19c.42-.9-2.6-.57-2.6-.57,1.21-7.13-6.82,4.36-10,3.91-2.7-.4-5.14,3.11-6.87,4.38s-4.82,3.91-5.83,4.3A2.85,2.85,0,0,0,36,176.57a2.42,2.42,0,0,1-1.57,2.1c-.86.28-.58,1-.29,1.6s-.67,1-1.25,1,.21,0,.49.55-2.83,3.6-2.54,4.46-1.49,1.58-.53,1.58c.57,0-.81.7-.52,1.57s-1.1,3-.82,4.19a1.67,1.67,0,0,1-.75,2.09c-.58.29-.85,6.37-1.22,7.81s-.95,4-1.29,5.76-.67,3.66-.9,4.81-.42,2.48-.52,3.34a52,52,0,0,0,.29,5.44c.12,1.36,1.1,1.83,3.83,1.83s6.62-.57,9.52-3.21A26.58,26.58,0,0,1,45.1,217c1.93-.72,5.37-.9,8.9-.46,5.12.64,6.46.37,11.49-2.32,3.19-1.71,9.35,2.87,10.72.8s9.48-9,9.66-10.18-7.92-6.13-7.42-7,.33-6.17.53-9.62-1.19-7.06-.9-7.2,1,1.15,1.58,2.88,1.28,3.14,1.57,3.14,2.11-3,2-5a11.41,11.41,0,0,0-1.11-4.62l-1.77-4.28s2.58,8.67,6,7.33c1.87-.74.94-2.52,1.28-2.78,1.54-1.18,2.71.35,6,1.73s9.51,4.15,13,4.56c6,.72,7.07-1.83,13.55-5.54A141.24,141.24,0,0,0,134.61,168a116.19,116.19,0,0,0,12.08-11.92c3-3.45,10.25-11.77,16.27-19.83s16-21.17,21.07-28.08S194.39,95,195.65,93.31a77.71,77.71,0,0,0,5.06-8.64c1.53-3,2-9.51,2-11.68a17.5,17.5,0,0,0-2.24-7.59c-.89-1.47-2.4-3.87-5.76-8.47A19.51,19.51,0,0,0,190,51.84,8.61,8.61,0,0,0,186.68,50.07Z" style="fill:#ff8080"/><path d="M136.43,97.45c-.38.78-.46,3.72-.19,6.53l.49,5.1c2.41-4.4,3.47-5.46,3.9-5.2a1,1,0,0,0,1.3-.55h0c.29-.58-.23-1.4-1.14-1.83a2,2,0,0,1-1.05-2.62,1.64,1.64,0,0,0-.69-2.21,1.2,1.2,0,0,0-.31-.13A2,2,0,0,0,136.43,97.45Z" style="fill:#ffd5d5"/><path d="M132,101.75c-.11.57-.4,2.58-.64,4.45-.31,2.28,0,3.39.85,3.36s.86.43-.26,1.61c-1.4,1.49-1.37,1.66.26,1.62s-2.21-1.58-3.8,3.1c-.92,2.74-1.93,6.15-2.24,7.59a5.74,5.74,0,0,1-2,3.41c-.78.43-1.42,2-1.42,3.4,0,2.1,3.52,4.35,1.85,3.93a7.47,7.47,0,0,0-4.71,1c-1.45.87-2.62,1.1-2.62.53s-1-.11-2.1,1.05a7.79,7.79,0,0,1-4.71,2.09c-1.44,0-2.64.59-2.66,1.31s-1.79,2.62-3.93,4.23-4.55,2.64-5.46,2.25c-1.3-.54-1.34-.37-.26,1,.83,1,.92,1.86.26,2.19a1.17,1.17,0,0,1-1.57-.53h0a1.75,1.75,0,0,0-2.09-.52c-1,.35-1.57-.17-1.57-1.57,0-1.75-.35-1.92-2.1-1.05-1.59.8-2.22.67-2.62-.52a4.19,4.19,0,0,1,0-2.62c.29-.58.06-1.05-.52-1.05s-1,1.89-1,4.19.47,4.19,1,4.19,1.35,1.06,1.72,2.36,2.08,7.31,3.15,8a2.89,2.89,0,0,1,1.42,2.88c-.36,1.09.52,1.84,2.88,2.45,3,.76,3.57.56,4.71-1.57.72-1.35,2-2.45,2.88-2.45a1.57,1.57,0,0,0,1.57-1.57h0c0-.87.47-1.57,1-1.57s8.9,1.47,8.9-.83c0-4.05.11-4.19,3.41-4.06,2,.07,3.85-.53,4.45-1.42s2.83-6,4.13-6.37,2.34-1,2.33-1.46,1.16-1.38,2.62-2.1,3.22-1,3.91-.52c.92.57-2.94-2.57-3.48-4.28s5.06,4,6.12,3.32a1.92,1.92,0,0,0,.84-2.36c-.43-.79.06-.68,1.25.26,1.78,1.43,1.9,1.41,1.24-.26-.39-1-.36-1.77.07-1.71a10.53,10.53,0,0,0,2.1,0c.72-.06,2.39-4.65,2.38-6.23a7.78,7.78,0,0,1,2.14-5c1.21-1.16,3.62-12.63,4-14.93s1.34-4.78,2.12-5.5.93-1.31.29-1.31a1.18,1.18,0,0,1-1.08-1.27v0c0-.72-8-5.09-7.15-5.67,1.2-.82.9-1-1.35-1-2,0-1.09-2.66-2.15-.87L142.93,98c-.45-3.65-3.73-6.07-4.59-6.07s-5.48,11.61-5.71,10.6S132.15,101.17,132,101.75Z" style="fill:#ff8080"/><path d="M112.3,117.36c-1.73,2-7.43,5.61-9.49,7.92" style="fill:#ff8080"/><path d="M97.76,129.47c-2.14,2.31-4.2,2.9-3.78,2s-.81.94-3.13,3.54c-3,3.32-11.25,7.48-11,9.32.17,1.44,17.53,16.92,17.59,17.36s1.07.31,2.22-.27c1.74-.87,2.09-.7,2.09,1.05,0,1.4.53,1.92,1.57,1.57a1.75,1.75,0,0,1,2.1.53,1.17,1.17,0,0,0,1.57.52c.66-.33.56-1.14-.26-2.19-1.09-1.39-1-1.56.26-1,.91.38,4.2-7.42,6.45-9.1s3.35-3,3.37-3.67,1.21-1.31,2.65-1.31a7.82,7.82,0,0,0,4.72-2.09c1.15-1.16,2.09-1.63,2.09-1s1.74-.22,3.18-1.09a7.47,7.47,0,0,1,4.71-1c1.68.42,2.1,0,2.1-2.1,0-1.44.71-2.85,1.57-3.14a2.24,2.24,0,0,0,1.34-2.36,4.94,4.94,0,0,1,.46-2.88,44.58,44.58,0,0,0,2.33-6c1.53-4.66,1.52-5-.2-4.93s-1.67-.13-.26-1.61c1.11-1.19-3.84-16.35-4.77-16.32s-1.18-1.16-.91-3.62c.22-2,1.1-5.21,1-5.21s-2.17,2.71-3.56,4.13h0c-1.39,1.43-7.63,7.43-8,7.3s-3.65,2.68-6.31,5.56" style="fill:#ff8080"/><path d="M105,131.86a19.12,19.12,0,0,0-2.22,4.19l-1.12,2.88c4.88-3.26,6.28-5.12,6.28-6.28s-.42-2.1-.93-2.1A3.47,3.47,0,0,0,105,131.86Z" style="fill:#ffd5d5"/><path d="M142.64,152.81q-1.87,1.89-3.93,3.58a5.85,5.85,0,0,0-2.22,3.67c0,1.47.54,1.26,2.62-1.05,1.42-1.59,2.94-2.9,3.37-2.92s1.36-.85,2.06-1.84a7.54,7.54,0,0,0,1.31-2.57.66.66,0,0,0-.59-.71h-.16a6.84,6.84,0,0,0-2.46,1.83Zm-83,6.86c-2,1.43-3.62,2.81-3.2,3.26a5.54,5.54,0,0,0,3.25,1.61c1.52,0,3.29.43,2.89,1.28s.25.31,1.31-.92a18,18,0,0,1,4-3.37c1.82-1,1.85-1.15.26-1.18a5.78,5.78,0,0,1-3.33-1.49c-1.28-1.25-2.46-1.57-5.2.81Zm70,5.68c-1.66,1.62-2.92,3.26-2.81,3.67s.68.49,1.26.2a14.49,14.49,0,0,0,3.13-3.67c1.15-1.72,1.94-3.14,1.77-3.14a24.08,24.08,0,0,0-3.36,2.94Z" style="fill:#f55"/><path d="M70.22,180c0,.72-.33,1-.78.51s-1.81.24-3,1.49a10.9,10.9,0,0,0-2.35,3.16c-.08.47.32.86.9.86a15.65,15.65,0,0,0,4.55-2.36c1.92-1.29,3.33-2.94,3.14-3.66a1.73,1.73,0,0,0-1.41-1.31,1.18,1.18,0,0,0-1,1.3Zm6.85-2.88a20.45,20.45,0,0,0,0,3.67c.11,1.44.68,6.46-.26,10.21s-3.59,11.86-4.92,13.87-4.88,5-8.08,6.7c-5,2.69-6.3,3-11.42,2.31-3.53-.44-7-.26-8.9.46a28.41,28.41,0,0,0-7.07,4.76c-2.9,2.64-4.89,3.58-7.6,3.58-2,0-3.66.47-3.66,1a1.89,1.89,0,0,0,.78,1.49,19.76,19.76,0,0,0,4.95,2.08c2.1.37,6.43-.82,12.41-2.44a115.15,115.15,0,0,1,17-3.06,64.6,64.6,0,0,0,10.07-1.52A24.57,24.57,0,0,0,78,215.64c1.75-1.82,2.7-5.77,3.38-8.47s1.27-3.81,1.31-2.52.55,2.12,1.12,1.83,1-2.52,1-5-.06-9.52-.49-11.65-1.13-3.65-1.56-3.4-.51-.84-.18-2.43c.46-2.14.34-2.48-.44-1.31s-2.08,0-3.35-2.94c-.86-2-1.65-3.2-1.76-2.62Z" style="fill:#f55"/><path d="M49,188.63a12.27,12.27,0,0,0-.63,4.5c.1,2.26.3,2,.94-1.31a22.68,22.68,0,0,0,.62-4.49C49.78,187.16,49.36,187.75,49,188.63Z" style="fill:#f55"/><path d="M57.86,188.69a2.37,2.37,0,0,0,0,2.36c.42.42,1.5.06,2.41-.8a4.85,4.85,0,0,0,1.59-2.36c0-.43-.76-.78-1.64-.78A2.91,2.91,0,0,0,57.86,188.69Zm-2.8.06a4.23,4.23,0,0,0-.77,3c.11,1.51.51,1.86,1.29,1.14a3.62,3.62,0,0,0,.77-3C56.15,188.82,55.57,188.31,55.06,188.75Z" style="fill:#ffd5d5"/><path d="M47.38,201.51a5.67,5.67,0,0,0-.56,3.14,9.32,9.32,0,0,1,.29,2.1c0,.43.7.08,1.61-.79a6,6,0,0,0,1.62-4c0-1.29-.5-2.35-1.06-2.35s-1.42.82-1.9,1.83Z" style="fill:#f55"/><path d="M231,59.41c2.78,9.33,3.09,23.82,2.21,27.11s-6.22,14.33-7.61,17.06a40.87,40.87,0,0,1-7,9.23,34.48,34.48,0,0,1-9.95,6.28,33,33,0,0,1-8.38,2,62.77,62.77,0,0,1-8.64-1.08c-3.17-.6-6.11-1.43-6.53-1.85S186,115,188,112s3.41-5.5,3.13-5.5-2.34,2.48-4.55,5.5-7.46,11.63-11.65,19.11-9,15.74-10.8,18.33a150.19,150.19,0,0,1-14.89,17.46,170.58,170.58,0,0,1-22,17.76,256.38,256.38,0,0,1-24.62,13.85c-8.35,4.12-15.54,7.49-16,7.49s-.78-2.71-.77-6a52,52,0,0,0-1.62-11.78c-.9-3.17-1.81-5.53-2-5.24s.27,3.35,1.08,6.81A61.36,61.36,0,0,1,84.78,201c0,2.73-.45,5.21-1,5.49s-1.08-.53-1.12-1.83-.65-.69-1.33,2-2.61,6.86-4.36,8.68a17.79,17.79,0,0,1-6.28,4.2,72.62,72.62,0,0,1-10.47,1.54,118.26,118.26,0,0,0-17,3.24c-5.33,1.44-10.75,2.42-12,2.17a33.75,33.75,0,0,0-3.66-.52c-.72,0-1.8-1.38-2.39-3-.84-2.22-.47-5.86,1.61-16,1.48-7.2,2.53-13.56,2.33-14.14s-1.63,5.08-3.18,12.57S23,220.11,23,221.41a7.48,7.48,0,0,0,2.1,4.45c1.67,1.67,3.2,2,7.59,1.76a89.43,89.43,0,0,0,13.88-2.54,111.55,111.55,0,0,1,16.23-2.83c5.94-.47,8.88-1.28,12-3.32a36.7,36.7,0,0,0,7.33-6.69c2.47-3.14,6.61-5.67,19.38-11.89a285.35,285.35,0,0,0,25.66-14.11A213.08,213.08,0,0,0,146.85,171c5.62-5,9.89-9.64,9.89-10.07s1.55-1.94,3-3.67a130.41,130.41,0,0,0,8.21-12c3-4.89,7.58-12.62,10.12-17.17s5-8.43,5.4-8.64a4.84,4.84,0,0,1,2.88.68c1.15.57,5.51,1.35,9.69,1.73,6.7.6,8.27.38,13.35-1.91a46.2,46.2,0,0,0,9.79-6.18,38.16,38.16,0,0,0,6.44-7.78c1.45-2.37,8.23-16.65,8.65-19.68s0-22.58-3.36-29-3.5-7.11,0,2.18Z"/><path d="M49.8,188.68a12.78,12.78,0,0,0-.59,3.93,8.79,8.79,0,0,1-1.54,4.45,8.38,8.38,0,0,0-1.56,4.19c0,1.91.09,1.94,1,.26.55-1,1.48-1.83,2.06-1.83s1,1.06,1.06,2.35a6.71,6.71,0,0,1-1.31,3.88c-1.13,1.3-1,1.34.51.26S51.24,203.5,51,196c-.14-4.9-.34-8.9-.43-8.91A5,5,0,0,0,49.8,188.68Z"/><path d="M194.42,30c9.32.29,29.82,5,37.54,33.08-10.12-45.24-54.78-32.71-54.44-32.67C176.4,30.77,182,30.67,194.42,30Zm-29.33,3a63.31,63.31,0,0,0-11.72,6.58,68.58,68.58,0,0,0-10.22,9.49A49.4,49.4,0,0,0,136.61,60c-1.78,4.5-3.33,7.47-3.27,14.83,0,5.18,1.63,11.67,2.22,14a28.73,28.73,0,0,0,1.22,4.06c.67,1.55-22.19,21.21-28.24,26.39S94.48,131,90.73,134s-12.4,10.35-19.54,15.77-13.84,9.7-14.6,10.27a3.76,3.76,0,0,0-1.43,2.36c0,.72-.86,1.3-1.87,1.29a7.77,7.77,0,0,0-3.66.53c-1,.37-2.39,2.09-5,3.72a48.35,48.35,0,0,0-7.53,5.92,38.82,38.82,0,0,0-5.49,8.7c-1.47,3.17-3.42,12.1-3.41,13s1.2-1.15,2.1-4.45c1-3.86,4.46-12.54,5.8-14.27a42,42,0,0,1,7.32-6.58A57.65,57.65,0,0,1,52.74,165c2.44-1,4.21-1.91,3.93-2.06s.07-.87.79-1.61S67.75,154,78.89,145.16c10.87-8.61,26.16-21.5,32.79-27.18s15.24-13.39,19.16-17.14c6.6-6.33,7-7,6.28-10-.45-1.73-3.5-11-2.82-17.62C135.45,62,136.55,62,138.91,57.34a58.3,58.3,0,0,1,7.86-10.87,53.11,53.11,0,0,1,9.95-8.36A83.78,83.78,0,0,1,168.24,33c3.74-1.3,17.43-2.58,16.31-2.85C180.22,29.17,167.94,31.89,165.09,33Z"/><path d="M202.43,68.4l1,.63a37.6,37.6,0,0,1-6.64,2,11.44,11.44,0,0,1-4,.11A3.3,3.3,0,0,1,192,71c-.25-.06-.5-.13-.74-.21s-.49-.17-.73-.27l-.7-.32c-.86-.42-1.65-.92-2.49-1.39l-.68-.37q-.34-.18-.69-.33c-.23-.11-.47-.21-.71-.3s-.48-.19-.72-.27-.62-.19-.94-.27l-1-.2-1-.13a5.71,5.71,0,0,1-1-.06c-4-.14-8.91,1.13-13.53,2.81,4.63-1.68,9.44-3.07,13.54-3.13h1a4.22,4.22,0,0,1,1,.08l1,.14,1,.21a17.59,17.59,0,0,1,3,1.08c.93.42,1.7.81,2.56,1.14l.64.23q.33.1.66.18c.23.06.45.1.68.14s.45.07.68.09a11.39,11.39,0,0,0,3.49-.3,29,29,0,0,0,5.12-1.77l.88.75Zm-3.81,26.86L197,97c-2.43-.19-2.81-.13-5.86,1.46a19.64,19.64,0,0,0-6.69,6.22,67,67,0,0,0-5.81,10.4c-2,4.22-4.75,10.77-5.78,13.25,1.36-3.26,3.18-8.35,5.16-13.51a78.5,78.5,0,0,1,5-11.06,22,22,0,0,1,6.71-7.65,15.79,15.79,0,0,1,10.16-2.51l-1.28,1.7Zm-50.8-44.72a12.39,12.39,0,0,1-1.75-.77,2.81,2.81,0,0,1-1-1.08h0a2,2,0,0,0,1.14.87,5.31,5.31,0,0,0,1.26.17,6.67,6.67,0,0,1,1.17.29,4.05,4.05,0,0,1,.81.33,1.37,1.37,0,0,1,.2.13,1.33,1.33,0,0,1,.19.14l.18.16a1.29,1.29,0,0,1,.16.17,8.37,8.37,0,0,1,.53.79c.16.28.31.56.44.85s.24.59.34.89a7.28,7.28,0,0,1,.23.92,12.41,12.41,0,0,1,.08,3.6c-.13,1.23-.38,2.55-.56,3.45s-.6,2.51-.93,4.45a22.61,22.61,0,0,0,.38,9.92c1.37,5.07,4.5,9.72,7.63,13.29-3.14-3.59-6.48-8-8.27-13.09a24.41,24.41,0,0,1-1.27-10.31l.12-1.16a7.67,7.67,0,0,1,.15-1.16c.06-.39.11-.77.18-1.15l.21-1.15c.18-.88.46-2.19.6-3.29a11.16,11.16,0,0,0,.05-3.16,6.92,6.92,0,0,0-1.12-2.9c-.06-.15-.34-.46-.54-.76" style="fill:#ff2a2a"/><path d="M150.55,61.17l.37-.72a4.82,4.82,0,0,0,2.1.61,2.59,2.59,0,0,0,1.53-.54A6.24,6.24,0,0,0,156,58.94l.37-.56.34-.57.34-.58.31-.59a26.48,26.48,0,0,1,3-4.83,7,7,0,0,1,2-1.62,4.78,4.78,0,0,1,.62-.26c.21-.07.43-.13.64-.18a4.91,4.91,0,0,1,.67-.09h0a5,5,0,0,0-.66.11L163,50a5.59,5.59,0,0,0-.6.3A6.51,6.51,0,0,0,160.62,52a25.56,25.56,0,0,0-2.54,5c-.08.22-.17.43-.27.64l-.29.63-.3.62c-.1.21-.21.41-.32.62a7.75,7.75,0,0,1-1.51,2,3.92,3.92,0,0,1-2.26,1,5.42,5.42,0,0,1-2.95-.68l.37-.72ZM146.21,108A61.53,61.53,0,0,0,148,118.17c.32,1.23.55,2.11.66,2.71.06.34.12.68.17,1s.1.67.14,1,.09.68.12,1l.09,1a26.09,26.09,0,0,1-.4,6.72,86,86,0,0,1-2.6,9.85,50.88,50.88,0,0,0,2.08-9.92c.05-.54.08-1.08.09-1.63s0-1.09,0-1.63a14.89,14.89,0,0,0-.12-1.63c-.06-.54-.15-1.08-.24-1.62-.27-1.55-.6-3-.78-4-.11-.55-.22-1.55-.34-2.78C146.61,115.51,146.39,110.48,146.21,108Z" style="fill:#ff2a2a"/></svg>