<svg xmlns="http://www.w3.org/2000/svg" xmlns:xlink="http://www.w3.org/1999/xlink" viewBox="0 0 256 256"><defs><linearGradient id="innoGrad1" x1="25.86" y1="130.26" x2="152.5" y2="130.26" gradientTransform="matrix(1, 0, 0, -1, 0, 258)" gradientUnits="userSpaceOnUse"><stop offset="0" stop-color="#fca"/><stop offset="1" stop-color="#f95"/></linearGradient><linearGradient id="innoGrad2" x1="73.05" y1="213.05" x2="68.67" y2="210.26" xlink:href="#innoGrad1"/><linearGradient id="innoGrad3" x1="119.79" y1="89.6" x2="135.52" y2="126.71" gradientTransform="matrix(1, 0, 0, -1, 0, 258)" gradientUnits="userSpaceOnUse"><stop offset="0" stop-color="#f55"/><stop offset="1" stop-color="#ff8080"/></linearGradient></defs><path d="M71,40.83C56.73,60,22.25,55.31,17.42,44.66,17.92,39.13,35.92,41.22,71,40.83Zm0,0c25.54,0,83.11-6.53,94.7,27.47l-11.06-4.13c-11-26.91-46.71-19.45-83.05-20Z" style="fill:#fca;stroke:#000;stroke-width:0.8100000023841858px;fill-rule:evenodd"/><path d="M150.59,66.18c-5-3.44-7,12-8.46,17.32L152,69.13ZM29.78,57.39c-13,46.09,11.43,124.37,52,143.46l3.42-1.48C36.84,173.5,24.36,111.19,33.47,54.62Z" style="stroke:#000;stroke-width:0.8100000023841858px;fill-rule:evenodd;fill:url(#innoGrad1)"/><path d="M127.16,57.13c11.31,18.69,14.71,102.27-40.9,143-1.8.07-5.75,1.24-4.4-.31C137.59,165.11,135,87.58,123,55.16Z" style="fill:#f95;stroke:#000;stroke-width:0.8100000023841858px;fill-rule:evenodd"/><path d="M71,41.49l-.73,14.28c36.35.55,78.12,1.14,89.08,28l5.16-16.14C151.2,35.46,96.53,41.52,71,41.49Z" style="fill:#f95;stroke:#000;stroke-width:0.8100000023841858px;fill-rule:evenodd"/><path d="M18.09,44.11c3.74-3,17.78-2.24,52.9-2.62l-.73,14.28C34,55.3,6.38,64.38,6.56,70.64Z" style="fill:#f95;stroke:#000;stroke-width:0.8100000023841858px;fill-rule:evenodd"/><path d="M155.11,74.38C135.25,52.23,98,55.89,70,54.23c-18,.52-45.31.22-56.35,3.13" style="fill:none;stroke:#000;stroke-width:0.3240000009536743px;stroke-dasharray:1,0"/><path d="M159.78,62C140.29,36.85,96.05,43.1,71.15,43c-18,.52-41.79-.93-52.83,2" style="fill:none;stroke:#000;stroke-width:0.3240000009536743px;stroke-dasharray:1,0"/><path d="M76.26,49.38c.11-.62-.1-1.14-.92-1.09L65,52.47c-1.19.65-.44,1.55.66,1.17Z" style="fill:#ff7f2a;stroke:#000;stroke-width:0.37400001287460327px;fill-rule:evenodd"/><path d="M65.64,49.78a1,1,0,1,0-.91-1A1,1,0,0,0,65.64,49.78Z" style="fill:#4d4d4d;stroke:#000;stroke-linecap:round;stroke-linejoin:bevel;stroke-width:0.3919999897480011px"/><path d="M76.83,53.66c.1-.62.28-1.57-.53-1.52L70,53.82c-1.19.64-.43,1.55.66,1.17Z" style="fill:#ff7f2a;stroke:#000;stroke-width:0.37400001287460327px;fill-rule:evenodd"/><path d="M75.74,45.3a1,1,0,1,0-.85-1A.92.92,0,0,0,75.74,45.3Z" style="fill:#4d4d4d;stroke:#000;stroke-linecap:round;stroke-linejoin:bevel;stroke-width:0.3779999911785126px"/><path d="M65.91,45.27a1,1,0,1,0-.85-1A.92.92,0,0,0,65.91,45.27Z" style="fill:#4d4d4d;stroke:#000;stroke-linecap:round;stroke-linejoin:bevel;stroke-width:0.3779999911785126px"/><path d="M75.78,44.93c.94,0,.76-1.36,0-1.31l-9.86-.1c-1.19.65-.44,1.55.66,1.17Z" style="fill:#fca;stroke:#000;stroke-width:0.37400001287460327px;fill-rule:evenodd"/><path d="M76.39,44.73c.1-.63-.11-1.14-.92-1.09L65.34,48a.93.93,0,1,0,.78,1.69Z" style="stroke:#000;stroke-width:0.37400001287460327px;fill-rule:evenodd;fill:url(#innoGrad2)"/><path d="M75.59,50a1,1,0,1,0-.85-1A.92.92,0,0,0,75.59,50Z" style="fill:#4d4d4d;stroke:#000;stroke-linecap:round;stroke-linejoin:bevel;stroke-width:0.3779999911785126px"/><path d="M65.84,45c-1-.74-.2-1.78.69-1.34l9.24,4.5c1.19.65.42,1.92-.68,1.54Z" style="fill:#ffb380;stroke:#000;stroke-width:0.37400001287460327px;fill-rule:evenodd"/><path d="M65.26,54.14a1,1,0,1,0-.9-1A1,1,0,0,0,65.26,54.14Z" style="fill:#4d4d4d;stroke:#000;stroke-linecap:round;stroke-linejoin:bevel;stroke-width:0.39399999380111694px"/><path d="M64.68,53.72c-.1-.77.09-1.25.83-1.18L70,53.82c1.09.79.4,1.89-.6,1.43Z" style="fill:#ffb380;stroke:#000;stroke-width:0.39399999380111694px;fill-rule:evenodd"/><path d="M76.24,54a1,1,0,1,0-.85-1A.93.93,0,0,0,76.24,54Z" style="fill:#4d4d4d;stroke:#000;stroke-linecap:round;stroke-linejoin:bevel;stroke-width:0.3779999911785126px"/><path d="M65.37,49.46a.84.84,0,0,1,.42-1.57l10.68,4.38c1.08.7.39,1.68-.6,1.26Z" style="fill:#ffb380;stroke:#000;stroke-width:0.3709999918937683px;fill-rule:evenodd"/><path d="M142.1,91c-17.55,3.31-36.48,1.9-55.47.33L73.12,110.62S65.64,154,74.44,172.68c1.94,4.13,11.06,7.12,18.83,11.1,5.87,3,10.4,7.67,13.68,7.68,5.29,0,10.54-4.08,15.42-7.07,4.21-2.58,8.14-3.86,11.6-6.66,13.1-10.63,22.57-27.25,20.76-65.46Z" style="fill:#ff7f2a;stroke:#000;stroke-width:0.8100000023841858px;fill-rule:evenodd"/><path d="M138.42,97.21c-15.36,2.89-31.94,1.66-48.57.28L78,114.42s-6.55,38,1.16,54.34c1.7,3.62,9.69,6.24,16.49,9.73,5.14,2.63,9.1,6.71,12,6.72,4.63,0,9.23-3.57,13.5-6.19,3.68-2.26,7.13-3.38,10.16-5.83,11.47-9.31,19.76-23.87,18.17-57.33Z" style="fill:none;stroke:#000;stroke-width:0.4050000011920929px;stroke-dasharray:1,0"/><path d="M140.62,93.47C124,96.61,106,95.28,87.93,93.79L75.09,112.15S68,153.31,76.35,171.1c1.84,3.93,10.51,6.77,17.89,10.55,5.57,2.86,9.87,7.29,13,7.29,5,0,10-3.87,14.65-6.71,4-2.45,7.74-3.67,11-6.33,12.44-10.09,21.44-25.89,19.72-62.18Z" style="fill:none;stroke:#000;stroke-width:0.4050000011920929px;stroke-dasharray:1,0"/><path d="M131.41,112.81C150.57,115.93,163.14,161.9,142,156c1.65,1.09,3.43,12,3.43,12-3.87,13.61-11.6,21.58-22.15,21.33-16.25-.39-21-29.33-16.48-51.41,12.05-12.58,9.19-26.67,24.59-25.07Z" style="stroke:#000;stroke-width:0.8100000023841858px;fill-rule:evenodd;fill:url(#innoGrad3)"/><path d="M142.8,99.85l-5.65.27c3.32,18.32-9.57,20.33-5.93,24.8,11.77,4.16,9.23-18.24,11.58-25.07Z" style="fill:#f95;stroke:#000;stroke-width:0.8100000023841858px;fill-rule:evenodd"/><path d="M132.54,125.23c-3.64-4.47,9.71-7.17,5.51-25.11l6.07,0C141.77,107,144.31,129.4,132.54,125.23Zm20.73-55.71-10.48,12.7c2.38-4.49,4.08-19.09,9.05-15.65Z" style="fill:#ff7f2a;stroke:#000;stroke-width:0.8100000023841858px;fill-rule:evenodd"/><path d="M161.69,88.17c-1.39,1.28-3,0-4-1.91L149,68.48c-.84-1.72-1.13-4.18.71-5.75,6.21-5.31,12.89-1.5,15.81,3.85a17.2,17.2,0,0,1,1.3,12.67A18.72,18.72,0,0,1,161.69,88.17Zm3.5-9.3a14.25,14.25,0,0,0-.72-10.65c-2.19-4.23-8.14-8.33-12.82-3.91a3.88,3.88,0,0,0-.59,4.58L158.31,84c.74,1.53,1.95,2.51,3,1.47A15.33,15.33,0,0,0,165.19,78.87Z" style="fill:#ffe680;stroke:#000;stroke-width:0.5590000152587891px;fill-rule:evenodd"/><path d="M163.91,82.7a18.75,18.75,0,0,1-5,8.89c-1.36,1.27-2.94,0-3.87-1.9L146.6,72c-.82-1.71-1.1-4.16.68-5.73,6-5.29,12.53-1.5,15.37,3.83A17.59,17.59,0,0,1,163.91,82.7Zm-1.59-.38a14.59,14.59,0,0,0-.7-10.61c-2.13-4.21-7.91-8.3-12.46-3.9a4,4,0,0,0-.57,4.57l7,15.05c.72,1.52,1.9,2.49,3,1.46A15.4,15.4,0,0,0,162.32,82.32Z" style="fill:#ffe680;stroke:#000;stroke-width:0.550000011920929px;fill-rule:evenodd"/><path d="M132.54,125.23c2.4-1.24,4.48-2.26,5.82-8.57,3-14,.06-13.46-.55-20.43-.95-11,14.52-28.13,13.32-29.19,2.59-2.62,7.26,11.41,5.76,14-13.24,15.47.06,40-11.29,51.79Z" style="fill:#fca;stroke:#000;stroke-width:0.8100000023841858px;fill-rule:evenodd"/><path d="M136.1,124.06c2.22-1.15,2.38-2.52,3.62-8.35,2.75-12.94.05-12.42-.51-18.85-.88-10.12,14.34-28.59,13.23-29.57,2.39-2.42,8.62,20.11,7.24,22.48-5.2,6.17-5.66,14.39-4.25,22.7,1.79,10.57,3.66,20.59-2.43,26.45Z" style="fill:#ffb380;stroke:#000;stroke-width:0.746999979019165px;fill-rule:evenodd"/><path d="M153.27,69.52c-13.58,26.59-13.93,19.39-11,34.74,1.26,6.58-2.05,23.35-7,23.29" style="fill:none;stroke:#000;stroke-width:0.4050000011920929px;stroke-dasharray:1,0"/><path d="M154.73,132c1.89-11.25-2-19.59-1.65-29a28.22,28.22,0,0,1,6.26-16.47" style="fill:none;stroke:#000;stroke-width:0.4050000011920929px;stroke-dasharray:1,0"/><path d="M61.34,55.2c2.08,1.57,1.3,4.46-.61,6.64L43.39,81.65c-1.67,1.91-4.44,3.29-7,1.18-8.77-7.16-7-18.55-1.93-25A17.93,17.93,0,0,1,48.77,51,21.12,21.12,0,0,1,61.34,55.2ZM36.78,58.81c-4.07,4.89-6.46,15.31.63,20.54,2.11,1.55,4.32.58,5.63-.9L57.82,61.83c1.5-1.68,2.15-3.86.49-5.06A17.44,17.44,0,0,0,49,53.6,14.75,14.75,0,0,0,36.78,58.81Z" style="fill:#ffe680;stroke:#000;stroke-width:0.7710000276565552px;fill-rule:evenodd"/><path d="M67.58,66c-.51,2.45.79,1.93,1,.3l2-12.16c.22-1.38-.38-.87-.58.09Zm3.36,1.22c.08,2.5,1.24,1.49,1.11-.15l-1-11.95c-.16-2-.59-1.69-.53.23Z" style="fill:#f95;stroke:#000;stroke-width:0.4050000011920929px;fill-rule:evenodd"/><path d="M71.59,53.88c7.7,9.21-2,18-1.13.32.05-.24,0-.3,0-.3l.1-.08A.65.65,0,0,1,71.59,53.88Zm-.7.65c-.41,13.92,6.24,8.88.37,0C70.69,54.18,71.26,54.58,70.89,54.53Z" style="fill:#ffb380;stroke:#000;stroke-width:0.3059999942779541px;fill-rule:evenodd"/><path d="M71.63,56.08c-.74,17.86-8.1,5.33-1.31-2.6.3,0,.64.23.91.69A3.57,3.57,0,0,1,71.63,56.08ZM70.46,54.2c-4.7,5.52-.45,18.84.43.33C70.75,53.91,70.66,54,70.46,54.2Z" style="fill:#ffb380;stroke:#000;stroke-width:0.296999990940094px;fill-rule:evenodd"/><path d="M66.64,59.66c2.24,1.61,1.4,4.57-.66,6.81L47.31,86.79c-1.8,1.95-4.78,3.38-7.58,1.21-9.44-7.34-7.57-19-2.08-25.59a19.68,19.68,0,0,1,15.45-7A23.48,23.48,0,0,1,66.64,59.66ZM53.34,58A16.22,16.22,0,0,0,40.2,63.37c-4.39,5-7,15.7.68,21.06,2.27,1.6,4.64.59,6-.92l15.92-17c1.61-1.73,2.31-4,.53-5.2A19.37,19.37,0,0,0,53.34,58Z" style="fill:#ffe680;stroke:#000;stroke-width:0.8100000023841858px;fill-rule:evenodd"/><path d="M86.25,119.13l-3.94,2.16c17.19,7.73,28,25.64,31.22,24.54,1.82-11.29-10.48-19.49-27.28-26.7Z" style="fill:#ffb380;stroke:#000;stroke-width:0.8100000023841858px;fill-rule:evenodd"/><path d="M87.18,118.2l-3.55,2.39c18.93,9.2,28.37,25.61,30.83,24.31,1.82-11.29-10.48-19.49-27.28-26.7Z" style="fill:#ff7f2a;stroke:#000;stroke-width:0.8100000023841858px;fill-rule:evenodd"/><path d="M133.07,170.19c-1.58,1.87,5.09,6.93-7.79,13.88,2.55,3.68,12.42-8.19,14.48-14.69.6-.91-6.12-.38-6.69.81Z" style="fill:#f95;stroke:#000;stroke-width:0.8100000023841858px;fill-rule:evenodd"/><path d="M144.68,167.68c-31.41,19.63-44.17-42.8-10.33-44.06,1.3.19,3-2.29,3.29-4.31-44.72-3.23-28.94,79.28,11.56,49.85Z" style="fill:#ffe680;stroke:#000;stroke-width:0.8100000023841858px;fill-rule:evenodd"/><path d="M37.32,77.45C27.27,71.14,4.39,63,6.56,70.64,16.93,69.18,27.08,74.72,37.32,77.45Z" style="fill:#faa;stroke:#000;stroke-width:0.8100000023841858px;fill-rule:evenodd"/><path d="M46.16,73c14.77,17.45,73.66,32.81,73.41,53.29-6.55,6.59-.64,10.79-5.11,18.63.45-9-25.55-19.37-41.34-32.41-12.47-10.3-35.41-32.81-35.41-32.81Z" style="fill:#f95;stroke:#000;stroke-width:0.8100000023841858px;fill-rule:evenodd"/><path d="M51.6,59c-8.37,4.15-11,11.49-14.28,18.45-10.47-2-20.12-11-30.76-6.81C3.64,67.49,16.43,43.9,18.32,43.73c6.06-.53,25.62.19,33.28,15.27Z" style="fill:#ffb380;stroke:#000;stroke-width:0.8100000023841858px;fill-rule:evenodd"/><path d="M155.82,62.48c0,.93-2,3.18-4,4.09,3.51,3.23,8.57-4.6,4-4.09Z" style="fill:#faa;stroke:#000;stroke-width:0.8100000023841858px;fill-rule:evenodd"/><path d="M165.38,76.9c1.74-11.41-6.88-14.59-9.56-14.42,2.63.25-2.23,5.89-4,4.09,3.65,5.11,5.84,11.28,7.5,17.25C160.39,87.62,164.48,82.81,165.38,76.9Zm-22.82,91.95c-1.07-1.9-9-.15-9.48,1.34,8,11.15-12.2,17.49-29.07,20.58-13,2.39-17.81,8.08-22.15,9-.45.33-1.76,2.17,4.4.31,2.3-.35,13.37-6.83,20.78-8.25C120,189.38,143.18,185.2,142.56,168.85Z" style="fill:#ffb380;stroke:#000;stroke-width:0.8100000023841858px;fill-rule:evenodd"/><path d="M120.15,147c-19.12-31.72,43.51-43.46,44.22-9.61-.21,1.3,2.24,3,4.25,3.37,4-44.66-78.79-30.23-50,10.74Z" style="fill:#ffe680;stroke:#000;stroke-width:0.8100000023841858px;fill-rule:evenodd"/><path d="M58,59.55C64.16,62.09,73.76,77.22,89,90c14,11.72,44.1,25.79,41.86,33.18a97.2,97.2,0,0,0-15.73,20.57c.43-8.67-24.85-19.07-40-31.6-12-9.89-37-33.17-37-33.17Z" style="fill:#ffb380;stroke:#000;stroke-width:0.777999997138977px;fill-rule:evenodd"/><path d="M116,141.59c2.06-5.71-16.85-13.52-39.41-30.41C63.92,101.72,51.43,89.64,39.3,77.89" style="fill:none;stroke:#000;stroke-width:0.4050000011920929px;stroke-dasharray:1,0"/><path d="M129.41,123.93c2.06-5.71-16-13.67-39.41-30.41C74.81,82.66,67.6,67.32,56.63,61" style="fill:none;stroke:#000;stroke-width:0.4050000011920929px;stroke-dasharray:1,0"/><path d="M49.56,59.77c-4-9.4-18.57-15.67-32.73-14.44" style="fill:none;stroke:#000;stroke-width:0.4050000011920929px;stroke-dasharray:1,0"/><path d="M6.18,69.38c6.9-5.23,19.68,1.79,31.63,7.08" style="fill:none;stroke:#000;stroke-width:0.4050000011920929px;stroke-dasharray:1,0"/><path d="M159.5,83.22c2,2.4,3.83-4.51,5.72-7.91" style="fill:none;stroke:#000;stroke-width:0.4050000011920929px;stroke-dasharray:1,0"/><path d="M158.52,63c-.93,2.33-3.54,6.75-5.77,4.89" style="fill:none;stroke:#000;stroke-width:0.4050000011920929px;stroke-dasharray:1,0"/><path d="M162.37,63.8a16,16,0,0,1,2.85,4.45l.18.5a16.06,16.06,0,0,1,1,4.34c0,.4.06.81.08,1.21s0,.8,0,1.2,0,.8-.08,1.2-.09.8-.15,1.2a16,16,0,0,1-1.15,4,18.37,18.37,0,0,0,1.33-4,18.86,18.86,0,0,0,.42-4.86,14.56,14.56,0,0,0-.88-4.54.69.69,0,0,1-.05-.13l-.06-.13-.06-.13a.67.67,0,0,0-.06-.12,18.43,18.43,0,0,0-3.37-4.22ZM57.9,56.91a20.42,20.42,0,0,1,4,1.37,10.3,10.3,0,0,1,2.8,1.85,4.47,4.47,0,0,1,.75,1,2.89,2.89,0,0,1,.29.84l0,.11a2.75,2.75,0,0,1,.15,1.09,2.82,2.82,0,0,1-.53,1.41,9.13,9.13,0,0,0,1-1.26A2.62,2.62,0,0,0,66.78,62V61.9a.06.06,0,0,1,0,0v0a.06.06,0,0,1,0,0,2.81,2.81,0,0,0-.08-.31c0-.1-.07-.19-.12-.29l-.14-.28a2.33,2.33,0,0,0-.17-.26c-.08-.1-.15-.2-.24-.3l-.25-.27a3.45,3.45,0,0,0-.28-.26l-.29-.23A11.58,11.58,0,0,0,62,58a33.45,33.45,0,0,0-4.12-1.07Zm-7-5a30.52,30.52,0,0,1,4.92,1.84l.61.28c.85.37,3.43,1.26,4.23,1.61-.8-.35-3.15-1.76-4-2.13l-.16-.07-.16-.06-.16-.06L56,53.28a39.87,39.87,0,0,0-5.12-1.35Zm80.89,68.31c.46,0,1.83.4,2.3.4s2-.46,2.49-.5c-.5,0-2-.31-2.5-.3s-1.83.4-2.29.4Z" style="fill:#fff6d5"/><path d="M154.13,118.85A45.89,45.89,0,0,1,160.8,122a37.3,37.3,0,0,1,6.67,5.43c1.77,1.91,3.07,3.11,3.95,4.88,1.37,2.72,2.52,5.51,2.8,12.17.18,4.3-.6,8.28-.87,8.14s-.14,1.48-.14,2.19-.63.12-1,.12a1.22,1.22,0,0,1-1-.64.72.72,0,0,0-1-.33c-.39.2-.46-.12-.18-.8s.22-1-.16-.71-.65-1.45-.68-4.5a56.77,56.77,0,0,0-.47-7.17,9.92,9.92,0,0,0-2.26-4.19,45.2,45.2,0,0,0-5.33-4.37,17.8,17.8,0,0,0-5.72-2.78,45.94,45.94,0,0,0-6.11-.27c-2.16,0-4.15.41-4.51.85a3.48,3.48,0,0,1-1.61,1c-.53.13-1.28.27-1.67.32a12.91,12.91,0,0,0-3.29,2.67,32,32,0,0,0-3.95,4.82,10.62,10.62,0,0,0-1.38,4.67,16.12,16.12,0,0,0,1.7,5.79,45.57,45.57,0,0,0,3.11,5.31c.77,1.06,4,5.4,7.11,9.65s8.73,11.77,12.43,16.73,8.23,10.74,10.07,12.86a76.51,76.51,0,0,0,7.79,7.5,78.68,78.68,0,0,0,8.62,6c4,2.28,4.37,2.37,8,1.93a34.08,34.08,0,0,0,7.56-2c2-.85,3.7-1.33,3.69-1.06s.94.84,2.09,1.29c1.92.73,1.3.06,2.34-1.27l2.05-.83c-1.28,2.78-1.86,3.57-2.13,3.56s-.28.63,0,1.43c.33,1.05.24,1.32-.33,1s1,1.44.34,3.77c-.54,1.86-.29,5-.28,7s-3,2.87-3.25,2.87-4.68-2.07-9.81-4.6A160.8,160.8,0,0,1,179,212a93,93,0,0,1-12.82-10.21c-4.1-4.08-2.57-.91-9.84-11.42-1.09-1.58-4.06-6.66-6.63-11.26s-5.8-9.89-7.16-11.75a20.91,20.91,0,0,0-2.79-3.37c-.18,0,.68,1.52,1.92,3.37s2,3.59,1.76,3.84a14.9,14.9,0,0,1-4,1.14,37.73,37.73,0,0,1-5.3.66,20.32,20.32,0,0,1-5.15-1.25,21.44,21.44,0,0,1-6.11-3.86,25.17,25.17,0,0,1-4.28-5.67,42.77,42.77,0,0,1-2.56-6.92,29.67,29.67,0,0,1-.91-5.79c-.31-1.36-.33-8.05-.61-9.13s.09-2.77.48-2.77.49-.44.32-1,0-1,.32-1,.5-.44.32-1,0-1,.32-1,.5-.29.32-.65,0-.64.33-.64.49-.29.32-.64,0-.65.32-.65.61-.21.57-.48,4.37-6.59,4.9-6.59.83-.22.66-.49,1.14-1.27,2.9-2.25a48.42,48.42,0,0,1,7.24-3.22c.79-.08,4.58-.4,8.3-.6,6-.31,8.31,0,12,1.33Z" style="fill:#f55"/><path d="M153.89,128.54a3.47,3.47,0,0,0,2.21.32c.59-.16,2.69.83,4.66,2.19s5.44,3.54,6.6,4.73a10.29,10.29,0,0,1,2.52,4.41c.23,1.24,2.88,12.67,2.91,15.37,0,3.05,1.65,2.48,3.86,4.87s2.51,3.49,1.18,2.25c-1.86-1.74-2.41-2-2.4-1.13a1,1,0,0,1-1,1.13c-.67,0-1-.65-.95-2.09a4.84,4.84,0,0,0-.48-2.54,1.43,1.43,0,0,0-1.31-.16c-.44.16-.66.5-.49.77s-.27,1.06-1,1.77c-1,1-1.11,1.41-.48,1.82s.2.41-.78.2c-1.4-.3-1.46-.25-.51.42a2.64,2.64,0,0,1,1.13,1.58.73.73,0,0,1-.67.8c-.39,0-.31.35.18.81a7.37,7.37,0,0,1,1.3,3.38,8.25,8.25,0,0,0,1.77,3.86,4.75,4.75,0,0,1,1.32,3c0,1,.34,1.81.79,1.85a6.77,6.77,0,0,0,1.28,0c.27,0,.29.43,0,1.05-.4,1-.33,1,.77.16.73-.58,1-.65.76-.16a1.17,1.17,0,0,0,.52,1.44c.66.44.82,1.12.51,2.1s-.24,1.31.32,1a3.15,3.15,0,0,1,2.41.32c.89.44,1.62,1,1.61,1.29s.63.67,1.43.9a4.41,4.41,0,0,1,2.09,1.36,3.4,3.4,0,0,0,2.73.87c2-.07,2.09,0,2.09,2.5,0,1.41.29,2.57.65,2.57s.64.44.64,1a1,1,0,0,0,1,1c.53,0,1.32.68,1.76,1.51.71,1.31,1.08,1.43,2.9,1,1.45-.37,2-.83,1.77-1.5a1.78,1.78,0,0,1,.87-1.77,4.71,4.71,0,0,0,1.61-2.25c.23-.8.7-1.45,1.06-1.45s.59-1.23.53-2.74a7.35,7.35,0,0,0-1.61-4.5c-.82-1-1.21-1.77-.85-1.77s.79.44,1,1a1.35,1.35,0,0,0,1.13,1c.44,0,2,1,3.38,2.28a12.5,12.5,0,0,0,3,2.26c.27,0,3.21,2.51,4.18,3.25s3.66,2.12,3.66,2.53a.85.85,0,0,0,.91.75,1.2,1.2,0,0,1,1.13.8c.12.45-.58,1-1.55,1.21-1.66.38-1.69.44-.49,1.05.71.35-.07.82.58,1.57s.52-.91.31-1.35,1.14,0,1.14,0c-.74-4.39,4.65,2.31,6.58,2,1.66-.24,3.16,1.91,4.22,2.69a37.56,37.56,0,0,0,3.58,2.64,1.73,1.73,0,0,1,1.12,1.4,1.49,1.49,0,0,0,1,1.29c.53.18.36.63.18,1s.41.64.76.64-.12,0-.3.34,0,.64.32.64.5.29.33.65,0,.64.32.64,2.77,8.13,2.71,8.75a9.23,9.23,0,0,0,.24,2.65c.23.89.59,2.48.8,3.54s.41,2.25.55,3,.3,2.26.37,2.79a20.2,20.2,0,0,1-.23,2.6c-.07.84-.67,1.13-2.35,1.13a8.72,8.72,0,0,1-5.85-2,16.46,16.46,0,0,0-4.4-2.75,12.91,12.91,0,0,0-5.47-.29c-3.15.4-4,.23-7.06-1.42-2-1-5.74,1.76-6.58.49s-5.83-5.54-5.94-6.25,4.87-3.77,4.56-4.3-.21-3.79-.32-5.91.73-4.33.55-4.42-.62.71-1,1.77-.78,1.93-1,1.93a5.1,5.1,0,0,1-1.21-3.1,6.78,6.78,0,0,1,.69-2.83l1.08-2.64s-1.59,5.33-3.68,4.51c-1.15-.46-.58-1.55-.79-1.71-.94-.72-1.66.21-3.69,1.06s-5.84,2.55-8,2.81c-3.67.44-4.34-1.13-8.32-3.41a87.29,87.29,0,0,1-8.92-6.43,70.53,70.53,0,0,1-7.42-7.32c-1.84-2.13-6.3-7.23-10-12.19s-9.81-13-12.94-17.25-6.37-8.06-7.14-9.12a48,48,0,0,1-3.11-5.31c-.94-1.87-1.21-5.84-1.21-7.17a10.73,10.73,0,0,1,1.37-4.67,29.66,29.66,0,0,1,3.54-5.2c1.42-1.42,2.61-3.35,3-3.4s1.14-.81,1.67-.94,1.25.06,1.61-.34,3.26.35,5.2.15,4.21-.81,4.83-.47Z" style="fill:#ff8080"/><path d="M173.36,158.43a12,12,0,0,1,.12,4l-.3,3.14c-1.49-2.71-2.14-3.36-2.4-3.2A.59.59,0,0,1,170,162c-.17-.36.14-.86.71-1.13a1.24,1.24,0,0,0,.64-1.61,1,1,0,0,1,.62-1.43,1.2,1.2,0,0,1,1.42.56Z" style="fill:#faa"/><path d="M176.05,161.07c.07.36.25,1.59.4,2.74.19,1.4,0,2.08-.52,2.06s-.53.27.16,1c.86.91.84,1-.16,1s1.35-1,2.33,1.9c.57,1.68,1.19,3.78,1.38,4.66a3.49,3.49,0,0,0,1.22,2.09,2.65,2.65,0,0,1,.87,2.1c0,1.28-2.17,2.66-1.14,2.41a4.54,4.54,0,0,1,2.89.64c.89.53,1.61.68,1.61.32s.58-.06,1.29.64a4.78,4.78,0,0,0,2.9,1.29c.88,0,1.61.36,1.63.81s1.1,1.61,2.41,2.59,2.8,1.62,3.35,1.39c.8-.34.83-.23.16.62-.5.65-.56,1.14-.16,1.35a.74.74,0,0,0,1-.32,1.09,1.09,0,0,1,1.29-.33q1,.33,1-1c0-1.07.22-1.18,1.29-.64s1.36.41,1.61-.33a2.59,2.59,0,0,0,0-1.61c-.18-.35,0-.64.32-.64s.64,1.16.64,2.58-.29,2.57-.64,2.57-.83.65-1.06,1.45-1.28,4.49-1.93,4.93a1.77,1.77,0,0,0-.87,1.77c.22.67-.33,1.13-1.77,1.5-1.82.47-2.2.35-2.9-1-.44-.83-1.24-1.51-1.77-1.51a1,1,0,0,1-1-1c0-.53-.29-1-.65-1s-5.47.91-5.47-.5c0-2.49-.06-2.57-2.09-2.5a3.4,3.4,0,0,1-2.73-.87c-.36-.52-1.74-3.68-2.54-3.91s-1.44-.64-1.43-.9-.71-.85-1.61-1.29a3.12,3.12,0,0,0-2.4-.32c-.57.35,1.8-1.58,2.13-2.63s-3.1,2.47-3.75,2a1.17,1.17,0,0,1-.52-1.45c.27-.48,0-.42-.76.16-1.1.88-1.17.86-.77-.16.24-.62.22-1.09,0-1a5.51,5.51,0,0,1-1.29,0c-.44,0-1.47-2.85-1.46-3.83a4.8,4.8,0,0,0-1.32-3.05c-.74-.71-2.22-7.75-2.46-9.17a7.37,7.37,0,0,0-1.3-3.38c-.49-.46-.57-.8-.18-.8a.74.74,0,0,0,.67-.81c0-.44,4.91-3.13,4.39-3.48-.74-.5-.55-.64.83-.64,1.21,0,.67-1.64,1.32-.54l1,1.61c.27-2.25,2.28-3.73,2.81-3.73s3.37,7.13,3.51,6.51.3-.83.36-.48Z" style="fill:#ff8080"/><path d="M175.34,159.08c.85.88,4.68,4.56,4.93,4.49s2.24,1.64,3.88,3.41,2.74,2.93,2.51,2.4.45,0,1.52,1.28,4.31,3.55,5.58,5-.28,0-.71-.71,2.75,1.77,4.07,3.18,2.81,1.83,4.24,3.42c1.82,2,6.91,4.6,6.77,5.73-.1.88-10.76,10.39-10.8,10.66s-.66.19-1.36-.16c-1.08-.54-1.29-.43-1.29.64,0,.86-.32,1.18-1,1a1.05,1.05,0,0,0-1.28.32.73.73,0,0,1-1,.32c-.4-.2-.34-.7.16-1.35.67-.85.64-1-.16-.62-.56.24-2.58-4.55-4-5.59s-2.06-1.81-2.07-2.25-.75-.8-1.63-.8a4.78,4.78,0,0,1-2.9-1.29c-.7-.71-1.28-1-1.28-.65s-1.07-.13-2-.66a4.54,4.54,0,0,0-2.89-.64c-1,.25-1.29,0-1.29-1.29a2.07,2.07,0,0,0-1-1.93,1.38,1.38,0,0,1-.82-1.45,3,3,0,0,0-.29-1.77A27.11,27.11,0,0,1,170,176c-.94-2.86-.93-3,.12-3s1-.08.16-1c-.68-.72,2.36-10,2.93-10s.73-.71.56-2.22a10.18,10.18,0,0,1-.11-2.26,15.15,15.15,0,0,1,1.7,1.59Z" style="fill:#ff8080"/><path d="M192.69,179.57a11.66,11.66,0,0,1,1.36,2.57l.69,1.77c-3-2-3.86-3.14-3.86-3.86s.26-1.29.57-1.29A2.14,2.14,0,0,1,192.69,179.57Z" style="fill:#faa"/><path d="M169.72,192.17a31.47,31.47,0,0,0,2.41,2.2,3.58,3.58,0,0,1,1.36,2.25c0,.9-.33.78-1.61-.65a6.9,6.9,0,0,0-2.07-1.79c-.26,0-.83-.52-1.26-1.13a4.56,4.56,0,0,1-.81-1.58.41.41,0,0,1,.46-.43,4.25,4.25,0,0,1,1.52,1.13Zm50.7,4.52c1.07.93,2.27,1.67,2,1.95a5.1,5.1,0,0,1-2.43.73c-.94,0-1.32.27-1.07.79s-.16.19-.81-.56a10.79,10.79,0,0,0-2.47-2.07c-1.12-.62-1.14-.71-.16-.73a3.51,3.51,0,0,0,2-.92c.79-.77,1.2-.65,2.88.81Zm-42.71,3.18c1,1,1.79,2,1.72,2.25s-.42.3-.77.13a9.13,9.13,0,0,1-1.92-2.25,7,7,0,0,1-1.09-1.93A15.42,15.42,0,0,1,177.71,199.87Z" style="fill:#f55"/><path d="M209.82,209.65a21.21,21.21,0,0,0,.16,6.27c.58,2.3,2.21,7.29,3,8.52a15.37,15.37,0,0,0,5,4.12c3.09,1.65,3.87,1.81,7,1.42a13.09,13.09,0,0,1,5.47.28,17.53,17.53,0,0,1,4.34,2.92c1.79,1.63,3,2.2,4.67,2.2,1.24,0,2.25.29,2.25.65a1.15,1.15,0,0,1-.48.91,11.9,11.9,0,0,1-3,1.28c-1.29.23-3.95-.51-7.63-1.5a70.47,70.47,0,0,0-10.4-1.88,39.78,39.78,0,0,1-6.19-.93,15.19,15.19,0,0,1-4.72-2.88c-1.07-1.12-1.65-3.54-2.08-5.2s-.78-2.34-.8-1.55-.33,1.31-.69,1.13-.64-1.55-.63-3.06a63.74,63.74,0,0,1,.29-7.15c.27-1.3.7-2.24,1-2.09s.32-.52.11-1.49c-.28-1.32-.21-1.52.28-.81s1.27,0,2.05-1.81c.53-1.23,1-2,1.08-1.6A11.69,11.69,0,0,1,209.82,209.65Zm4.21-.49c0,.45.2.59.48.32s1.11.14,1.86.92a7,7,0,0,1,1.45,1.93c.05.29-.2.53-.56.53a9.59,9.59,0,0,1-2.79-1.44c-1.18-.8-2.05-1.81-1.93-2.26a1,1,0,0,1,.86-.8A.72.72,0,0,1,214,209.16Z" style="fill:#f55;fill-rule:evenodd"/><path d="M227.1,214.44a7.52,7.52,0,0,1,.38,2.77c-.06,1.38-.18,1.21-.57-.81a14.71,14.71,0,0,1-.39-2.76c.07-.1.33.26.58.8Z" style="fill:#f55"/><path d="M221.62,214.48a1.42,1.42,0,0,1,0,1.45c-.26.26-.92,0-1.48-.49a3.16,3.16,0,0,1-1-1.45c0-.27.47-.48,1-.48A1.79,1.79,0,0,1,221.62,214.48Zm1.72,0a2.5,2.5,0,0,1,.47,1.83c-.06.92-.31,1.14-.79.7a2.25,2.25,0,0,1-.47-1.84C222.68,214.56,223,214.24,223.34,214.52Z" style="fill:#ffd5d5"/><path d="M228.06,222.35a3.39,3.39,0,0,1,.34,1.93,5.31,5.31,0,0,0-.17,1.29c0,.27-.43.05-1-.48a3.74,3.74,0,0,1-1-2.42c0-.79.31-1.44.65-1.44s.87.5,1.17,1.12Z" style="fill:#f55"/><path d="M115.64,135.58c-1.67,12.85-.19,17.58.37,19.7a42.77,42.77,0,0,0,2.56,6.92,25.17,25.17,0,0,0,4.28,5.67,21.44,21.44,0,0,0,6.11,3.86,20.32,20.32,0,0,0,5.15,1.25,37.73,37.73,0,0,0,5.3-.66,14.9,14.9,0,0,0,4-1.14c.26-.25-.53-2-1.76-3.84s-2.1-3.37-1.92-3.37a20.91,20.91,0,0,1,2.79,3.37c1.36,1.86,4.58,7.15,7.16,11.75s5.55,9.66,6.63,11.26a91.29,91.29,0,0,0,9.15,10.72A105.93,105.93,0,0,0,179,212a160.8,160.8,0,0,0,15.12,8.51c5.13,2.53,9.55,4.59,9.81,4.6s.48-1.67.48-3.7a31.5,31.5,0,0,1,1-7.24c.55-2,1.11-3.39,1.25-3.22a16.73,16.73,0,0,1-.67,4.19,37.77,37.77,0,0,0-.91,6.91c0,1.68.28,3.2.63,3.38s.66-.33.69-1.13.4-.42.82,1.22a14.54,14.54,0,0,0,2.67,5.33,10.87,10.87,0,0,0,3.86,2.58,45.25,45.25,0,0,0,6.44,1,72.57,72.57,0,0,1,10.45,2c3.28.88,6.61,1.48,7.4,1.33s1.81-.29,2.25-.32,1.11-.84,1.47-1.82c.51-1.36.29-3.6-1-9.81a61.84,61.84,0,0,1-1.43-8.68c.12-.36,1,3.12,1.95,7.72s1.74,9,1.74,9.81a4.61,4.61,0,0,1-1.29,2.73c-1,1-2,1.25-4.66,1.08a54.7,54.7,0,0,1-8.53-1.56,68.21,68.21,0,0,0-10-1.74c-3.65-.29-5.45-.79-7.4-2a22.15,22.15,0,0,1-4.5-4.1c-1.52-1.93-4.06-3.49-11.91-7.31A179.78,179.78,0,0,1,179,213a131.14,131.14,0,0,1-12.06-9.37c-3.45-3.05-6.07-5.92-6.07-6.19a14.35,14.35,0,0,0-1.87-2.25,80.3,80.3,0,0,1-5-7.4c-1.86-3-4.65-7.75-6.21-10.55a35.27,35.27,0,0,0-3.32-5.3,2.92,2.92,0,0,0-1.77.41,26.23,26.23,0,0,1-5.95,1.06c-4.12.38-5.08.24-8.2-1.17a27.74,27.74,0,0,1-6-3.8,23.07,23.07,0,0,1-3.95-4.78,44.22,44.22,0,0,1-2.87-7.07c-.76-2.48-2.31-15.41-.71-19.92C116.13,134.9,116.18,133.85,115.64,135.58Z"/><path d="M226.54,214.47a8,8,0,0,1,.36,2.41,5.38,5.38,0,0,0,.95,2.74,5.21,5.21,0,0,1,1,2.57c0,1.18-.05,1.19-.62.16-.34-.62-.91-1.12-1.27-1.12s-.65.65-.65,1.44a4.13,4.13,0,0,0,.8,2.39c.7.79.65.82-.31.16s-1.1-1.64-1-6.24c.09-3,.21-5.47.26-5.47a3.12,3.12,0,0,1,.49,1Z"/><path d="M138.91,117.82c-18.32-.5-24.65,23.79-24.65,21.31,5.87-26.87,31.43-21.85,34.62-21.82ZM155.7,119a38.65,38.65,0,0,1,7.2,4.05,41.37,41.37,0,0,1,6.28,5.83,29.93,29.93,0,0,1,4,6.7c1.09,2.76,1.39,4.8,1.36,9.33a46.88,46.88,0,0,1-.72,8.36l0,3c8.15,8,12.92,12.5,16.63,15.68s8.64,7.26,10.94,9,7.62,6.36,12,9.69,8.51,6,9,6.31a2.23,2.23,0,0,1,.88,1.45c0,.44.53.8,1.15.79a4.7,4.7,0,0,1,2.25.32c.58.23,1.47,1.29,3.06,2.29a30.25,30.25,0,0,1,4.62,3.63,24.43,24.43,0,0,1,3.37,5.35,34.58,34.58,0,0,1,2.1,8.53c0,.54-.74-1.27-1.29-3.3-.64-2.37-2.74-7.71-3.56-8.77a25.66,25.66,0,0,0-4.5-4,34.17,34.17,0,0,0-5.72-3.21c-1.5-.61-2.59-1.18-2.42-1.27s0-.54-.48-1-6.31-4.48-13.15-9.9c-6.68-5.28-16.08-13.21-20.15-16.69s-9.36-8.23-11.76-10.53c-4.06-3.89-4.34-4.33-3.86-6.12a67.57,67.57,0,0,0,.5-9.65c0-7-.16-8-1.6-10.93a35.89,35.89,0,0,0-4.83-6.68,32.58,32.58,0,0,0-6.11-5.13c-1.59-.91-4.87-2.1-7.08-3.12-2-.89-10.83-1.91-10.14-2.07,3.11-.75,10.12,1.27,12.07,2Z"/><path d="M132.34,140.31l.51.8a16.07,16.07,0,0,0,3.36,1.08,7.17,7.17,0,0,0,2.43.07l.47-.1a3.81,3.81,0,0,0,.45-.13l.45-.16.43-.2c.53-.26,1-.56,1.53-.85l.41-.23.43-.2.43-.19.45-.16a5.5,5.5,0,0,1,.58-.16l.59-.13.59-.08.6,0a23.63,23.63,0,0,1,8.32,1.72,27.11,27.11,0,0,0-8.32-1.92c-.21,0-.41,0-.62,0s-.41,0-.62,0-.41,0-.61.09l-.61.13a10.69,10.69,0,0,0-1.84.66c-.58.26-1.05.5-1.57.7l-.4.14c-.13,0-.27.08-.41.12l-.41.08-.42.05a6.78,6.78,0,0,1-2.14-.18,47.58,47.58,0,0,1-4.81-2.26ZM139.71,159a12,12,0,0,1,4.11,3.82,42.21,42.21,0,0,1,3.57,6.39c1.21,2.59,2.91,6.61,3.55,8.14-.84-2-2-5.14-3.17-8.3a49,49,0,0,0-3.07-6.8,13.78,13.78,0,0,0-4.13-4.7,9.71,9.71,0,0,0-6.24-1.54s3.5,2,5.38,3Zm28.34-30.49c-.12.21.09.25-.27.38a4.44,4.44,0,0,1-.93.2,6.13,6.13,0,0,0-1,.18,2.3,2.3,0,0,0-.49.2l-.13.08-.11.08-.11.1a.52.52,0,0,0-.1.11,5.11,5.11,0,0,0-.33.48c-.1.17-.18.35-.26.52a5.2,5.2,0,0,0-.21.55,5.29,5.29,0,0,0-.15.57,7.35,7.35,0,0,0-.07,2.23,20.8,20.8,0,0,0,.35,2.12c.12.62.36,1.55.56,2.73a13.69,13.69,0,0,1-.23,6.1,21.29,21.29,0,0,1-4.69,8.16,25,25,0,0,0,5.08-8,14.88,14.88,0,0,0,.78-6.33c0-.24,0-.48-.07-.71l-.09-.71c0-.24-.07-.48-.11-.71s-.09-.47-.13-.71c-.11-.54-.28-1.34-.37-2a7,7,0,0,1,0-1.94,4.27,4.27,0,0,1,.69-1.79.92.92,0,0,1,.17-.25,1.5,1.5,0,0,1,.3-.24,6.74,6.74,0,0,1,.85-.4,5,5,0,0,0,.9-.43c.35-.22.09-.3.21-.51Z" style="fill:#ff2a2a"/><path d="M164.65,136.14l-.23-.44a2.85,2.85,0,0,1-1.29.37,1.52,1.52,0,0,1-.94-.33,3.71,3.71,0,0,1-.89-1l-.22-.34-.21-.35-.21-.36-.19-.36a15.85,15.85,0,0,0-1.86-3,4,4,0,0,0-1.25-1,2.54,2.54,0,0,0-.38-.16l-.39-.11-.41-.06h-.42a2.77,2.77,0,0,1,.41,0,2.93,2.93,0,0,1,.41.07,2.43,2.43,0,0,1,.38.13,2.53,2.53,0,0,1,.37.18,3.86,3.86,0,0,1,1.13,1.06,15.07,15.07,0,0,1,1.56,3.06c0,.13.11.26.17.39s.11.26.17.39l.19.38c.06.13.13.25.2.38a4.63,4.63,0,0,0,.93,1.24,2.38,2.38,0,0,0,1.39.64,3.3,3.3,0,0,0,1.81-.41Zm2.66,28.74a36.71,36.71,0,0,1-1.12,6.28c-.19.75-.33,1.29-.4,1.66,0,.21-.07.42-.1.63s-.07.41-.09.62,0,.42-.07.63l-.06.63a16.45,16.45,0,0,0,.24,4.13,57.35,57.35,0,0,0,1.6,6,31.91,31.91,0,0,1-1.27-6.09c0-.34,0-.67-.06-1s0-.67,0-1,0-.67.08-1,.09-.66.15-1c.16-.95.36-1.82.47-2.43.07-.34.14-1,.21-1.71.17-1.76.3-4.85.41-6.4Z" style="fill:#ff2a2a"/></svg>