<?xml version="1.0" encoding="UTF-8" standalone="no"?>
<!-- Created with Inkscape (http://www.inkscape.org/) -->

<svg
   xmlns:dc="http://purl.org/dc/elements/1.1/"
   xmlns:cc="http://creativecommons.org/ns#"
   xmlns:rdf="http://www.w3.org/1999/02/22-rdf-syntax-ns#"
   xmlns:svg="http://www.w3.org/2000/svg"
   xmlns="http://www.w3.org/2000/svg"
   xmlns:sodipodi="http://sodipodi.sourceforge.net/DTD/sodipodi-0.dtd"
   xmlns:inkscape="http://www.inkscape.org/namespaces/inkscape"
   viewBox="0 0 256 256"
   id="svg4164"
   version="1.1"
   inkscape:version="0.92.3 (2405546, 2018-03-11)"
   sodipodi:docname="tribal_phoenix.svg">
  <style
     id="style3">
    svg { cursor: default;}
  </style>
  <defs
     id="defs4166">
    <inkscape:path-effect
       effect="powerstroke"
       id="path-effect4242"
       is_visible="true"
       offset_points="0.22358219,-0.72791312"
       sort_points="true"
       interpolator_type="Linear"
       interpolator_beta="0.2"
       start_linecap_type="zerowidth"
       linejoin_type="round"
       miter_limit="4"
       end_linecap_type="zerowidth"
       cusp_linecap_type="round" />
    <inkscape:path-effect
       effect="powerstroke"
       id="path-effect4238"
       is_visible="true"
       offset_points="0.14544937,2.3549562"
       sort_points="true"
       interpolator_type="Linear"
       interpolator_beta="0.2"
       start_linecap_type="zerowidth"
       linejoin_type="round"
       miter_limit="4"
       end_linecap_type="zerowidth"
       cusp_linecap_type="round" />
    <inkscape:path-effect
       effect="powerstroke"
       id="path-effect4255"
       is_visible="true"
       offset_points="0.088828796,0.39810203"
       sort_points="true"
       interpolator_type="Linear"
       interpolator_beta="0.2"
       start_linecap_type="zerowidth"
       linejoin_type="round"
       miter_limit="4"
       end_linecap_type="zerowidth"
       cusp_linecap_type="round" />
    <inkscape:path-effect
       effect="powerstroke"
       id="path-effect4203"
       is_visible="true"
       offset_points="0.81276062,-1.286815"
       sort_points="true"
       interpolator_type="Linear"
       interpolator_beta="0.2"
       start_linecap_type="zerowidth"
       linejoin_type="round"
       miter_limit="4"
       end_linecap_type="zerowidth"
       cusp_linecap_type="round" />
    <inkscape:path-effect
       effect="powerstroke"
       id="path-effect4199"
       is_visible="true"
       offset_points="0.28308433,1.1604326"
       sort_points="true"
       interpolator_type="Linear"
       interpolator_beta="0.2"
       start_linecap_type="zerowidth"
       linejoin_type="round"
       miter_limit="4"
       end_linecap_type="zerowidth"
       cusp_linecap_type="round" />
    <marker
       inkscape:stockid="Arrow1Lstart"
       orient="auto"
       refY="0.0"
       refX="0.0"
       id="Arrow1Lstart"
       style="overflow:visible"
       inkscape:isstock="true">
      <path
         id="path4233"
         d="M 0.0,0.0 L 5.0,-5.0 L -12.5,0.0 L 5.0,5.0 L 0.0,0.0 z "
         style="fill-rule:evenodd;stroke:#000000;stroke-width:1pt;stroke-opacity:1;fill:#000000;fill-opacity:1"
         transform="scale(0.8) translate(12.5,0)" />
    </marker>
    <inkscape:path-effect
       effect="powerstroke"
       id="path-effect4203-4"
       is_visible="true"
       offset_points="0.45408377,-0.95413935"
       sort_points="true"
       interpolator_type="Linear"
       interpolator_beta="0.2"
       start_linecap_type="zerowidth"
       linejoin_type="round"
       miter_limit="4"
       end_linecap_type="zerowidth"
       cusp_linecap_type="round" />
    <inkscape:path-effect
       effect="powerstroke"
       id="path-effect4199-7"
       is_visible="true"
       offset_points="0.88158867,1.1916301"
       sort_points="true"
       interpolator_type="Linear"
       interpolator_beta="0.2"
       start_linecap_type="zerowidth"
       linejoin_type="round"
       miter_limit="4"
       end_linecap_type="zerowidth"
       cusp_linecap_type="round" />
  </defs>
  <sodipodi:namedview
     id="base"
     pagecolor="#ffffff"
     bordercolor="#666666"
     borderopacity="1.0"
     inkscape:pageopacity="0.0"
     inkscape:pageshadow="2"
     inkscape:zoom="1.4142136"
     inkscape:cx="113.89204"
     inkscape:cy="126.52762"
     inkscape:document-units="px"
     inkscape:current-layer="layer1"
     showgrid="false"
     units="px"
     inkscape:window-width="1366"
     inkscape:window-height="745"
     inkscape:window-x="-8"
     inkscape:window-y="-8"
     inkscape:window-maximized="1" />
  <metadata
     id="metadata4169">
    <rdf:RDF>
      <cc:Work
         rdf:about="">
        <dc:format>image/svg+xml</dc:format>
        <dc:type
           rdf:resource="http://purl.org/dc/dcmitype/StillImage" />
        <dc:title></dc:title>
      </cc:Work>
    </rdf:RDF>
  </metadata>
  <g
     inkscape:groupmode="layer"
     id="layer2"
     inkscape:label="Layer 2"
     style="display:inline" />
  <g
     inkscape:label="Layer 1"
     inkscape:groupmode="layer"
     id="layer1"
     transform="translate(0,-796.36219)"
     style="display:inline">
    <path
       style="fill:#ff8080;stroke-width:0.99999994"
       d="m 129.06932,1003.0628 c -0.15724,-1.0479 -0.72561,-6.88495 -1.26303,-12.97114 l -0.97714,-11.06575 1.67374,-4.55912 c 0.92056,-2.50748 1.72644,-4.4939 1.79085,-4.41426 0.38607,0.47746 2.43421,9.13736 2.43421,10.29239 0,1.11188 -2.69944,21.04108 -3.23845,23.90868 -0.0739,0.3929 -0.26296,-0.143 -0.42018,-1.1908 z m -11.40098,-19.73092 c -3.68396,-1.25156 -5.19399,-4.56937 -4.09433,-8.9961 0.25187,-1.01385 0.33595,-0.95075 1.06234,0.7985 0.71419,1.71979 0.98378,1.93099 2.84887,2.23254 1.34636,0.21766 2.41226,0.1299 3.0768,-0.2536 1.24913,-0.72072 4.40332,-6.56651 5.8657,-10.8711 1.14307,-3.36474 3.20759,-13.08292 3.20759,-15.09898 0,-0.65399 0.19881,-1.18903 0.4418,-1.18903 0.24299,0 0.44181,0.53504 0.44181,1.18903 0,2.01606 2.06451,11.73424 3.20759,15.09898 1.46237,4.30459 4.61657,10.15038 5.8657,10.8711 0.66453,0.3835 1.73044,0.47126 3.0768,0.2536 1.8651,-0.30155 2.13468,-0.51275 2.84885,-2.23254 0.7264,-1.74925 0.81049,-1.81235 1.06234,-0.7985 0.43784,1.76256 0.32821,4.52762 -0.2321,5.85337 -1.04012,2.4611 -4.60448,3.92839 -7.50055,3.08767 -3.13141,-0.90909 -5.29808,-4.47357 -7.47117,-12.29136 -0.97858,-3.52041 -1.74107,-4.93274 -1.74107,-3.22505 0,0.67683 -2.89201,8.45998 -4.49424,12.09532 -1.2668,2.87407 -4.63408,4.44049 -7.47273,3.47615 z m -5.3061,-19.79098 c -2.62068,-1.47967 -3.66434,-3.15825 -3.29243,-5.29539 0.33684,-1.93574 1.31389,-2.58271 3.85824,-2.55464 l 1.90672,0.021 -1.67909,0.9553 c -2.28451,1.29979 -2.52606,2.22946 -0.93567,3.60141 1.54441,1.33222 2.89773,1.39098 5.26561,0.22838 3.95374,-1.94133 6.74737,-7.1285 6.25466,-11.6136 -0.60544,-5.51128 -4.85367,-11.78966 -7.9774,-11.78966 -1.16181,0 -1.80649,0.37721 -2.86409,1.67582 -0.75065,0.92171 -1.48961,2.2119 -1.64215,2.86711 -0.60503,2.59891 1.689,5.45958 4.37815,5.45958 0.58565,0 1.7884,-0.52938 2.67277,-1.17642 1.4706,-1.07589 1.608,-1.10075 1.608,-0.29092 0,1.76945 -1.471,3.00543 -3.87304,3.25421 -1.90215,0.1971 -2.59704,0.0292 -4.28281,-1.03615 -2.81609,-1.77918 -3.49207,-3.08138 -3.44014,-6.62695 0.0533,-3.64055 0.51742,-4.98541 2.56272,-7.42612 2.56453,-3.06029 6.61872,-3.81869 8.97709,-1.67928 3.09439,2.8071 6.08129,12.70048 5.66962,18.77927 -0.52407,7.73874 -1.83832,10.7731 -5.37795,12.41658 -3.14222,1.45907 -5.4896,1.52845 -7.78881,0.23041 z m 30.22967,0.68145 c -5.51615,-1.1759 -7.35168,-4.24676 -7.9667,-13.32845 -0.41166,-6.07877 2.57524,-15.97216 5.66963,-18.77927 2.35836,-2.1394 6.41257,-1.38102 8.9771,1.6793 2.0453,2.4407 2.5094,3.78555 2.56271,7.42611 0.0519,3.54557 -0.62405,4.84776 -3.44013,6.62695 -1.68579,1.06514 -2.38067,1.23324 -4.28281,1.03624 -2.40206,-0.24888 -3.87303,-1.48486 -3.87303,-3.25431 0,-0.80983 0.13739,-0.78497 1.60797,0.29093 0.88439,0.64703 2.08714,1.17642 2.67279,1.17642 2.68913,0 4.98316,-2.86068 4.37813,-5.45958 -0.15253,-0.65522 -0.8915,-1.94541 -1.64214,-2.86711 -1.0576,-1.29862 -1.70228,-1.67583 -2.86409,-1.67583 -3.12372,0 -7.37196,6.27838 -7.9774,11.78966 -0.49272,4.4851 2.30092,9.67219 6.25467,11.61362 2.36788,1.16259 3.72118,1.10384 5.2656,-0.22839 1.5904,-1.37194 1.34886,-2.30163 -0.93568,-3.60142 l -1.67908,-0.95529 1.90672,-0.021 c 2.54436,-0.0283 3.52141,0.6188 3.85825,2.55445 0.37718,2.16773 -0.68797,3.83753 -3.3891,5.31314 -2.28544,1.24861 -2.33187,1.25462 -5.10341,0.6638 z M 98.94669,947.86103 c -2.538722,-4.62288 -1.878528,-9.30555 1.94193,-13.77393 2.40368,-2.81134 5.50624,-4.23202 9.74898,-4.46413 l 3.31356,-0.18128 -3.07699,1.74072 c -1.79638,1.01625 -4.20122,2.95551 -5.77827,4.65958 -2.36192,2.55215 -2.79295,3.30781 -3.43087,6.01487 -0.40127,1.7028 -0.88899,4.27488 -1.08382,5.71573 l -0.35424,2.61973 z m 57.89277,-2.94479 c -0.66534,-6.0788 -1.52647,-8.30133 -4.43863,-11.4558 -1.57994,-1.7114 -3.9675,-3.63895 -5.77162,-4.65957 l -3.07699,-1.74073 3.31355,0.18128 c 4.23881,0.23189 7.34563,1.65318 9.74303,4.45715 4.15059,4.85452 4.58262,10.34529 1.18992,15.12293 -0.6014,0.8469 -0.67375,0.70314 -0.95926,-1.90526 z M 44.152021,943.47307 c 2.123319,-5.02688 3.469908,-7.47856 6.026262,-10.9718 1.177438,-1.60896 2.140798,-3.02375 2.140798,-3.14396 0,-0.67309 -5.058243,0.81126 -7.718189,2.26493 -5.467338,2.98791 -13.960008,3.39537 -19.01113,0.91211 l -1.767227,-0.86882 5.522588,-0.32931 c 7.14746,-0.42621 8.093021,-0.66564 11.268412,-2.85337 6.504121,-4.48107 13.068987,-5.21579 18.774053,-2.10111 l 1.98773,1.0852 -1.961043,0.56929 c -1.122585,0.32589 -2.586363,1.24345 -3.423596,2.14607 -1.817276,1.95919 -1.906173,2.77657 -0.247588,2.2765 0.668233,-0.20146 2.805472,-0.3663 4.749426,-0.3663 3.140671,0 3.780568,0.15907 5.743487,1.42774 l 2.209035,1.42773 -4.197169,0.31618 c -2.308435,0.17389 -5.513963,0.76409 -7.123385,1.31154 -3.258124,1.10828 -8.123064,4.42392 -12.002441,8.18014 l -2.55807,2.4769 z m 168.101189,-1.18468 c -3.66866,-3.61745 -8.60447,-6.98198 -11.87431,-8.09425 -1.60943,-0.54745 -4.81495,-1.13765 -7.12339,-1.31154 l -4.19716,-0.31618 2.20902,-1.42774 c 1.96293,-1.26866 2.60282,-1.42773 5.7435,-1.42773 1.94395,0 4.08119,0.16484 4.74942,0.36631 1.65858,0.50005 1.56968,-0.31731 -0.24759,-2.27651 -0.83723,-0.90262 -2.30102,-1.82018 -3.4236,-2.14607 l -1.96103,-0.56929 1.98773,-1.0852 c 5.70506,-3.11468 12.26993,-2.37996 18.77404,2.10112 3.17539,2.18771 4.12096,2.42715 11.26841,2.85335 l 5.5226,0.32932 -1.76724,0.86881 c -5.05112,2.48327 -13.54379,2.07582 -19.01112,-0.91211 -2.65995,-1.45365 -7.7182,-2.93802 -7.7182,-2.26492 0,0.12021 0.96337,1.53499 2.14081,3.14396 1.17744,1.60897 2.65772,3.88993 3.28952,5.06879 1.0869,2.02807 4.38021,9.54348 4.16782,9.51105 -0.0546,-0.008 -1.19277,-1.09336 -2.52923,-2.41117 z m -138.83338,1.208 c -2.738757,-0.71565 -5.643448,-2.15718 -7.40473,-3.67481 l -1.104517,-0.95172 1.325421,0.31211 c 0.72898,0.17167 3.810586,0.43303 6.848008,0.58079 4.95828,0.24122 5.962397,0.14583 9.826754,-0.93363 4.597713,-1.28431 8.569844,-3.01468 11.880261,-5.1754 1.685629,-1.10022 6.541813,-3.22831 7.366793,-3.22831 0.11992,0 -0.65263,0.67996 -1.71679,1.51102 -1.064137,0.83107 -2.237146,1.8828 -2.606672,2.3372 -0.962384,1.18339 -7.839641,6.54496 -9.702277,7.56398 -1.937413,1.05991 -7.873804,2.4147 -10.3459,2.36111 -1.006732,-0.0218 -2.971593,-0.33788 -4.366351,-0.70234 z m 59.19114,-3.54477 c 0.18583,-1.44084 0.29989,-5.15163 0.25344,-8.24622 -0.0702,-4.6779 -0.24612,-5.98654 -1.04335,-7.76202 -0.52739,-1.17454 -1.18524,-2.06361 -1.46188,-1.97571 -0.27663,0.0879 -1.09942,1.4374 -1.8284,2.99892 -1.26389,2.70735 -1.3233,3.1044 -1.27973,8.55484 0.025,3.14365 0.2687,6.30515 0.5413,7.02557 0.76625,2.02493 0.33782,1.57605 -1.59107,-1.66709 -2.24885,-3.7811 -2.90762,-6.01207 -2.91839,-9.88342 -0.008,-3.07567 0.52113,-5.07825 3.80014,-14.36715 0.61621,-1.74563 1.36049,-4.3177 1.65399,-5.71572 0.96348,-4.58945 0.95931,-4.58767 1.9619,-0.84017 0.52261,1.95344 1.36247,4.40593 1.86633,5.44996 0.50388,1.04403 1.53244,3.18426 2.2857,4.7561 2.5126,5.24302 3.00927,14.37865 1.02288,18.81424 -0.52793,1.17888 -1.55408,2.89359 -2.28031,3.81049 l -1.32043,1.66709 z m 41.20503,1.00297 c -1.82245,-0.45068 -3.92555,-1.1687 -4.67355,-1.59559 -1.76506,-1.00735 -8.60389,-6.39768 -9.47343,-7.46692 -0.36952,-0.45438 -1.54253,-1.50613 -2.60668,-2.33719 -1.06414,-0.83107 -1.8367,-1.51103 -1.71678,-1.51103 0.82499,0 5.68116,2.12809 7.36679,3.22831 3.31041,2.16073 7.28255,3.89111 11.88026,5.1754 3.86436,1.07946 4.86848,1.17486 9.82676,0.93364 3.03742,-0.14777 6.11902,-0.40912 6.848,-0.58079 l 1.32543,-0.31212 -1.10452,0.95173 c -2.85772,2.46239 -8.44732,4.43621 -12.3706,4.36837 -1.09347,-0.0189 -3.47922,-0.40313 -5.30168,-0.85381 z M 72.887373,934.28267 c -0.63721,-0.26885 -0.123283,-0.51604 1.988131,-0.95625 1.715753,-0.3577 4.340042,-1.46155 6.602841,-2.77729 2.065447,-1.20101 4.467781,-2.58224 5.338521,-3.06943 0.87074,-0.48718 2.958277,-1.02186 4.638973,-1.18817 l 3.05581,-0.30237 -1.82802,2.14939 c -2.124251,2.49772 -3.08148,4.1921 -2.368306,4.1921 0.260555,0 1.873827,-1.06003 3.585044,-2.35562 3.48337,-2.63732 6.228553,-3.49922 10.402423,-3.26605 l 2.57946,0.14411 -3.75536,1.36345 c -2.06545,0.7499 -5.468414,2.28208 -7.562141,3.40485 -3.629471,1.94631 -8.505963,3.55011 -9.040885,2.97341 -0.137897,-0.14866 0.36036,-1.17975 1.107239,-2.2913 0.746879,-1.11156 1.357959,-2.20284 1.357959,-2.42507 0,-0.22224 -0.961079,0.34034 -2.135734,1.25015 -3.667947,2.84096 -5.626973,3.56538 -9.572149,3.53969 -1.943952,-0.0127 -3.921167,-0.18618 -4.393806,-0.3856 z m 94.301517,-2.6513 c -1.09347,-0.33776 -3.57863,-1.47233 -5.52258,-2.52128 -1.94395,-1.04893 -5.22438,-2.52173 -7.28981,-3.27285 l -3.75537,-1.36571 2.57946,-0.14409 c 4.17385,-0.23319 6.91905,0.62873 10.40242,3.26604 1.71121,1.29559 3.3245,2.35562 3.58505,2.35562 0.71317,0 -0.24406,-1.69438 -2.36831,-4.19209 l -1.82802,-2.14941 3.05582,0.30238 c 1.68068,0.1663 3.76822,0.70099 4.63896,1.18817 0.87074,0.48718 3.27308,1.86842 5.33853,3.06942 2.26279,1.31576 4.88708,2.41959 6.60283,2.7773 3.60195,0.75096 2.60106,1.30924 -2.40566,1.34184 -3.94518,0.0257 -5.90421,-0.69873 -9.57216,-3.53969 -2.46866,-1.91204 -2.66684,-1.63652 -0.81031,1.12649 0.72898,1.08493 1.32542,2.08161 1.32542,2.21486 0,0.4067 -1.87938,0.19069 -3.97627,-0.457 z m -100.330062,-2.27419 -2.831859,-1.54454 2.708294,-0.28297 c 1.87145,-0.19556 3.475501,-0.7498 5.191232,-1.79372 2.706342,-1.64665 3.098592,-1.41184 1.360858,0.81462 l -1.122079,1.43766 1.232532,-0.38469 c 0.677891,-0.21159 2.59103,-1.1636 4.251419,-2.11558 2.39869,-1.3753 3.487872,-1.72399 5.301683,-1.69733 l 2.282795,0.0335 -1.6373,0.6487 c -0.900514,0.35678 -3.456044,1.94922 -5.678956,3.53877 -4.988289,3.56696 -6.62137,3.76566 -11.058619,1.34552 z m 112.727102,-3.72707 c -2.22291,-1.58955 -4.77845,-3.18199 -5.67895,-3.53877 l -1.6373,-0.6487 2.28278,-0.0335 c 1.81382,-0.0267 2.90301,0.32203 5.30169,1.69733 1.6604,0.95197 3.57353,1.904 4.25142,2.11557 l 1.23253,0.38469 -1.12208,-1.43766 c -1.73773,-2.22646 -1.34547,-2.46126 1.36087,-0.81461 1.71572,1.04392 3.31978,1.59816 5.19122,1.79371 l 2.7083,0.28297 -2.83186,1.54455 c -4.43725,2.42014 -6.07032,2.22145 -11.05862,-1.34552 z m -62.56649,0.19563 c -0.93158,-2.06248 -1.04822,-6.64821 -0.22695,-8.92215 0.27332,-0.75676 0.37415,-1.50694 0.22406,-1.66708 -0.39781,-0.42452 -2.37926,2.36402 -2.66992,3.75746 -0.514,2.46426 -0.72463,2.6375 -1.15823,0.95262 -0.23596,-0.9169 -0.34067,-3.08945 -0.23268,-4.82789 l 0.19636,-3.16079 -3.13492,-0.32129 c -7.86859,-0.80646 -15.334175,-3.2105 -21.249,-6.84252 -8.908954,-5.47057 -12.797987,-9.1923 -17.093146,-16.35784 -2.859764,-4.77088 -5.29005,-7.44083 -8.531657,-9.37301 l -0.883614,-0.52668 0.883614,-0.0101 c 1.781228,-0.0202 5.629705,2.98056 11.162847,8.70395 8.606038,8.90196 18.360165,15.53636 24.181706,16.44754 5.38763,0.84328 10.0278,1.1664 10.32146,0.71875 0.15505,-0.23638 2.07123,-1.14238 4.25817,-2.01334 2.18695,-0.87096 4.71812,-2.0986 5.62482,-2.7281 1.63466,-1.13486 2.58428,-3.20964 1.83146,-4.00147 -0.65033,-0.68404 -4.44016,0.36035 -7.69183,2.11969 -3.55037,1.92095 -3.72518,1.68587 -1.75258,-2.35696 0.72899,-1.49404 1.32542,-2.90902 1.32542,-3.14439 0,-1.5429 -5.10028,1.43502 -6.17881,3.60764 -0.32869,0.66209 -0.74338,1.20382 -0.92153,1.20382 -0.34899,0 -1.29399,-2.62115 -1.29399,-3.58913 0,-1.51399 3.75409,-6.49875 6.61828,-8.78788 3.72459,-2.97679 5.57175,-5.18107 5.96686,-7.12048 0.46898,-2.30198 1.19187,-1.19116 0.85957,1.32086 l -0.2937,2.22024 1.85626,-1.90524 c 1.97496,-2.02707 3.35728,-4.51755 4.22994,-7.62097 l 0.53574,-1.90523 0.54332,2.14339 c 0.50478,1.99143 0.39475,5.36363 -0.25931,7.94662 -0.23364,0.92266 -0.0713,1.05714 1.43725,1.19078 3.1097,0.27547 7.53796,-0.47946 11.45809,-1.95338 2.13145,-0.80139 3.95057,-1.376 4.04251,-1.27687 0.0919,0.0991 -0.26093,1.162 -0.78413,2.36197 -0.98222,2.25279 -3.63457,5.18802 -5.52882,6.11851 -0.59443,0.292 -1.08079,0.67449 -1.08079,0.85 0,0.17552 0.87861,0.99936 1.95246,1.83078 2.321,1.79699 4.50014,4.64093 4.91216,6.41077 0.28967,1.24421 0.26493,1.26218 -1.05497,0.76614 -0.74336,-0.27938 -1.69755,-0.43613 -2.12038,-0.34834 -0.62278,0.1293 -0.43779,0.53114 0.97406,2.11585 3.38182,3.79584 10.89118,5.10947 20.29876,3.55093 6.32434,-1.04776 15.77502,-7.40131 24.62352,-16.55406 5.53313,-5.72339 9.38161,-8.72414 11.16285,-8.70395 l 0.8836,0.0101 -0.8836,0.52668 c -3.24162,1.93219 -5.67191,4.60214 -8.53166,9.37303 -4.29517,7.16552 -8.1842,10.88726 -17.09316,16.35783 -6.5227,4.00529 -15.31081,6.65089 -22.38402,6.73857 l -3.82815,0.0474 1.03224,1.92077 c 1.13779,2.11717 1.79449,5.77807 1.36635,7.61711 l -0.27555,1.18361 -1.47285,-1.73267 -1.47285,-1.73267 -0.24825,3.77026 c -0.13654,2.07363 -0.48261,4.41327 -0.76906,5.19918 -0.50428,1.38362 -0.55452,1.28543 -1.58406,-3.09602 -1.38007,-5.87326 -1.72342,-6.78038 -3.96622,-10.47883 -1.03259,-1.7028 -1.99929,-3.68277 -2.14818,-4.39992 -0.25844,-1.24477 -0.17523,-1.20783 1.83488,0.81441 l 2.10562,2.11833 0.13146,-2.29771 c 0.0823,-1.43777 -0.19121,-3.21324 -0.7307,-4.74398 -0.95888,-2.72064 -0.84012,-2.94242 0.73611,-1.37456 l 1.07742,1.0717 -0.33342,-1.19078 c -0.68073,-2.43117 -2.06393,-5.15201 -3.17766,-6.25067 l -1.14767,-1.13212 0.28696,1.19079 c 0.57027,2.36644 1.2307,7.6201 1.09117,8.68022 -0.12262,0.9316 -0.33555,0.74734 -1.51359,-1.30981 -0.754,-1.31667 -2.03589,-3.11086 -2.84865,-3.9871 l -1.47776,-1.59316 -0.90671,1.19263 c -0.49869,0.65594 -1.44618,1.91429 -2.10553,2.79632 l -1.19882,1.6037 0.47674,-1.57233 c 1.0695,-3.52723 -1.02013,-1.74385 -3.38957,2.89281 -0.67491,1.32069 -1.26971,3.4024 -1.41963,4.9684 l -0.25803,2.69529 1.34384,-1.03163 c 0.73912,-0.56739 1.992,-1.82749 2.7842,-2.80019 l 1.44032,-1.76857 -0.32533,2.33892 c -0.47677,3.42769 -1.47805,5.82014 -3.82488,9.13925 -1.51536,2.14316 -2.23947,3.71236 -2.63756,5.71573 -0.81013,4.07712 -1.02622,4.31856 -1.97838,2.21049 z m 7.43892,-28.0538 c 0.85138,-0.91788 1.20068,-1.78201 1.20068,-2.97042 0,-1.64749 0.0151,-1.66127 0.88633,-0.81119 0.48748,0.47561 1.00558,0.73615 1.15137,0.57899 0.4364,-0.47047 -1.92916,-2.72503 -2.8592,-2.72503 -0.7399,0 -0.83084,0.25237 -0.64363,1.78615 0.16607,1.36064 -0.0327,2.18333 -0.83428,3.45326 -1.84443,2.92208 -1.87677,3.00672 -0.94272,2.4678 0.46242,-0.26681 1.38107,-1.0676 2.04145,-1.77956 z m 5.37192,-5.06188 c -0.98445,-2.09586 -2.89799,-3.78813 -3.58843,-3.17348 -0.3806,0.33882 -0.0659,0.90841 1.16334,2.10567 0.92678,0.90269 1.95681,2.33554 2.28894,3.18412 0.52923,1.35212 0.62085,1.41435 0.74115,0.50339 0.0755,-0.57169 -0.19675,-1.75056 -0.605,-2.6197 z m -10.5996,0.32533 c 2.95595,-0.5611 3.05138,-0.61869 1.87108,-1.12933 -0.68406,-0.29595 -1.77752,-0.5449 -2.42994,-0.55324 -1.13842,-0.0145 -1.15166,-0.0433 -0.3286,-0.71446 0.47167,-0.38462 1.21723,-0.69932 1.65677,-0.69932 0.43955,0 0.79917,-0.23778 0.79917,-0.52842 0,-0.32104 -0.59271,-0.45382 -1.51024,-0.33834 l -1.51023,0.19008 0.81023,-1.22674 c 0.44564,-0.67471 1.32408,-1.52321 1.95205,-1.88555 0.62801,-0.36233 1.14181,-0.83019 1.14181,-1.03966 0,-0.43232 -1.26361,-0.0228 -2.10927,0.68366 -0.30961,0.25862 -0.68174,0.34214 -0.82696,0.18558 -0.3928,-0.42346 2.31516,-3.18525 3.12315,-3.18525 0.38317,0 0.6967,-0.21435 0.6967,-0.47632 0,-1.22825 -4.78793,0.29146 -6.84802,2.1736 -0.91656,0.83739 -1.02773,1.05623 -0.3604,0.70944 1.85264,-0.96275 2.41422,-0.65738 2.26476,1.23154 -0.11196,1.41502 -0.41359,1.89225 -1.64379,2.60076 -2.01576,1.16092 -2.64406,1.85824 -1.67435,1.85824 0.94913,0 0.94217,0.11042 -0.1526,2.42395 l -0.90367,1.90967 1.43377,-0.79934 c 0.78858,-0.43962 2.83545,-1.06538 4.54858,-1.39055 z m 14.64642,-3.00331 c -0.66697,-1.3905 -3.7677,-3.42721 -5.21763,-3.42721 -0.38327,0 -0.82221,0.35218 -0.97543,0.78263 -0.3319,0.93249 -0.46597,0.8182 1.77056,1.50945 0.99409,0.30725 2.48518,1.06249 3.31356,1.67832 0.82836,0.61581 1.57048,1.06602 1.64915,1.00045 0.0787,-0.0656 -0.16443,-0.7602 -0.54021,-1.54364 z m -18.04826,-1.63858 c 0.97229,-0.83863 0.66947,-1.89037 -0.44181,-1.53448 -1.00951,0.3233 -2.09858,1.49122 -2.09858,2.25053 0,0.47831 1.71665,-0.006 2.54039,-0.71605 z m 10.02674,-1.96476 c 0.6589,-1.9852 -0.27081,-2.63544 -2.18179,-1.52593 -0.84023,0.48782 -1.88045,1.31695 -2.31161,1.84246 -0.77174,0.94066 -0.75784,0.9511 0.89495,0.67179 1.56634,-0.2647 1.65859,-0.21487 1.37648,0.74343 -0.29005,0.98521 -0.25937,0.9965 0.75107,0.27654 0.5794,-0.41282 1.24131,-1.31656 1.4709,-2.00829 z m 9.51257,-3.27712 c 3.39858,-2.21033 3.24213,-2.90819 -0.29452,-1.31375 -1.65461,0.74597 -3.80033,1.51392 -4.76825,1.70657 -1.44026,0.28667 -1.60073,0.41729 -0.88362,0.71926 1.78984,0.75367 3.59741,0.41563 5.94639,-1.11208 z m -97.923832,42.05376 c -1.739035,-0.44654 -4.94967,-2.44631 -6.069625,-3.7805 -0.738797,-0.88011 -1.329821,-1.00084 -4.859343,-0.99255 -3.718673,0.009 -8.488282,0.54078 -11.258129,1.25582 l -1.154438,0.29803 0.969254,-1.14111 c 1.593821,-1.87638 5.470889,-4.14571 8.513057,-4.98284 2.267485,-0.62398 4.313712,-0.74234 9.940654,-0.57503 6.236238,0.18542 7.500848,0.3645 10.551362,1.4942 1.906257,0.70596 4.135428,1.65333 4.953729,2.10529 1.455491,0.8039 1.325042,0.81829 -6.006307,0.66251 -4.315471,-0.0917 -7.494117,0.0247 -7.494117,0.27422 0,1.13656 2.741926,2.99242 6.848013,4.63504 l 0.883612,0.35348 -0.883612,0.3917 c -1.08285,0.48004 -3.068788,0.48074 -4.93411,0.002 z m 72.264552,-0.6247 c -0.82566,-0.59491 -1.99824,-2.09467 -2.60572,-3.3328 -0.60749,-1.23814 -1.20392,-2.24186 -1.32543,-2.23048 -0.12149,0.0114 -0.81734,0.83894 -1.54631,1.83903 -1.59761,2.19177 -3.50746,3.61425 -5.47951,4.08121 l -1.462056,0.34621 0.978619,-1.42704 c 0.89528,-1.30549 2.020287,-5.69984 1.580605,-6.17386 -0.10222,-0.11021 -1.193017,0.65789 -2.423983,1.70691 -2.194327,1.86998 -3.685146,2.57928 -6.558342,3.12038 -1.437204,0.27064 -2.005433,-0.32086 -0.790914,-0.82331 0.652106,-0.26978 3.331303,-3.97507 3.331303,-4.60714 0,-0.18827 -1.143175,-0.0523 -2.540389,0.30219 -1.397216,0.35446 -3.383213,0.64783 -4.41333,0.65193 -1.030117,0.005 -2.878323,0.41929 -4.107125,0.92266 l -2.23418,0.91522 0.816155,-1.51061 c 0.448885,-0.83083 1.700652,-2.04646 2.781701,-2.70138 l 1.965546,-1.19078 -1.366861,-0.14371 c -0.774325,-0.0814 -2.838199,0.48642 -4.760926,1.30986 -1.866735,0.79945 -4.134439,1.45276 -5.039339,1.45178 l -1.645276,-0.002 1.34425,-0.88376 c 0.739339,-0.48608 1.912623,-1.61055 2.607297,-2.49886 l 1.263052,-1.61507 -3.932723,-0.29938 c -2.162993,-0.16466 -4.628564,-0.62833 -5.479043,-1.03035 -1.838331,-0.86902 -5.743486,-4.01049 -5.743486,-4.62031 0,-0.23587 1.07705,-0.0294 2.393451,0.45894 2.781916,1.03186 7.034335,1.69322 7.763462,1.2074 0.74263,-0.49481 -0.741497,-2.11385 -2.867101,-3.12773 -0.971976,-0.46362 -2.94775,-0.99807 -4.390602,-1.18769 l -2.623379,-0.34474 0.998122,-0.87136 c 1.538362,-1.34296 3.765501,-1.59123 6.566955,-0.73206 1.367689,0.41945 2.544035,0.70086 2.614102,0.62532 0.07007,-0.0756 -0.274057,-1.27636 -0.764716,-2.66851 -0.490653,-1.39214 -0.793733,-2.63722 -0.673512,-2.76683 0.120224,-0.12962 1.271936,0.72533 2.559361,1.89987 6.409907,5.84785 18.455329,12.89311 25.084589,14.67174 2.060363,0.5528 5.480513,1.12622 7.600343,1.27428 l 3.85422,0.26921 -0.64188,1.65621 c -0.94675,2.44283 -0.7898,4.75637 0.48126,7.09467 1.26651,2.32991 1.00495,2.55035 -1.16826,0.98452 z m -49.300033,-1.30036 c -1.018002,-0.56275 -2.111473,-1.36486 -2.429937,-1.78247 -0.517069,-0.67805 -0.413552,-0.72205 0.967292,-0.41126 2.785152,0.62687 6.110077,0.89828 6.916666,0.56459 0.579125,-0.23959 0.0014,-0.62487 -2.156975,-1.43787 -4.724025,-1.77963 -8.700981,-4.44389 -12.491316,-8.36826 -4.190087,-4.33826 -7.146632,-6.58179 -10.161563,-7.71091 l -2.209029,-0.82731 2.840817,-0.0155 2.840817,-0.0155 -1.957203,-1.77797 c -4.104861,-3.72895 -6.888635,-6.82124 -7.917663,-8.79514 l -1.067453,-2.0476 1.084017,0.76482 c 5.977041,4.21702 8.899035,5.30142 13.716056,5.09017 l 3.210348,-0.14078 -1.514987,-1.63106 c -0.83325,-0.89709 -2.707875,-2.24626 -4.165845,-2.99816 l -2.650839,-1.36709 2.429938,0.25699 c 3.844276,0.40655 5.531011,1.09903 8.040281,3.30088 3.029233,2.65811 4.823297,3.63449 6.627864,3.60704 l 1.45781,-0.0223 -2.089404,-1.1727 c -1.397992,-0.78464 -2.600028,-1.99015 -3.632464,-3.64296 -0.848682,-1.35862 -1.462976,-2.55659 -1.365082,-2.66211 0.09788,-0.10553 1.195542,0.0434 2.43924,0.33096 1.243697,0.28755 3.527281,0.52283 5.074638,0.52283 3.004151,0 6.16022,1.13299 7.307488,2.62333 0.593319,0.77073 0.572564,0.82227 -0.22716,0.564 -2.158784,-0.69717 -3.283721,-0.77515 -6.181832,-0.42854 l -3.092651,0.36989 1.546325,0.89726 c 0.850475,0.49349 2.301848,1.14017 3.225264,1.43706 l 1.678935,0.53981 -0.929479,1.27391 c -1.584466,2.17163 -3.528005,2.47509 -9.914283,1.54793 -3.087409,-0.44823 -5.727078,-0.69246 -5.86594,-0.54275 -0.138871,0.1497 0.554976,1.21659 1.541869,2.37086 0.986902,1.15427 2.136638,2.81978 2.554984,3.70114 0.878497,1.85084 1.091881,1.99219 -3.485679,-2.30914 -2.545242,-2.39167 -4.710724,-3.44126 -4.710724,-2.28327 0,0.98571 5.148569,6.69679 8.327984,9.23787 6.008479,4.80212 7.862286,5.76874 11.063441,5.76874 3.250296,0 3.258867,0.71467 0.0164,1.36676 l -1.956451,0.39345 2.209036,1.05969 c 2.79022,1.33845 6.003888,2.00613 7.796061,1.61971 l 1.387852,-0.29925 -0.993279,1.4484 c -1.388856,2.02523 -2.630236,2.50431 -7.251218,2.79836 -3.54089,0.22531 -4.257542,0.13193 -5.882972,-0.7666 z m 86.217413,-2.06572 c 1.27107,-2.3383 1.428,-4.65184 0.48126,-7.09467 l -0.64188,-1.65621 3.85423,-0.26921 c 2.11982,-0.14806 5.53998,-0.72149 7.60034,-1.27428 6.62925,-1.77863 18.67467,-8.82389 25.08457,-14.67175 1.28744,-1.17454 2.43914,-2.02948 2.55937,-1.89986 0.12022,0.1296 -0.18285,1.37469 -0.67351,2.76683 -0.49066,1.39214 -0.83478,2.59297 -0.76471,2.66851 0.0701,0.0756 1.24641,-0.20587 2.6141,-0.62532 2.80146,-0.85917 5.02859,-0.6109 6.56694,0.73206 l 0.99814,0.87136 -2.62339,0.34474 c -1.44286,0.18962 -3.41862,0.72408 -4.3906,1.18769 -2.1256,1.01387 -3.60972,2.63292 -2.8671,3.12773 0.72912,0.48581 4.98155,-0.17554 7.76346,-1.2074 1.31641,-0.48828 2.39346,-0.69481 2.39346,-0.45894 0,0.60982 -3.90517,3.75129 -5.7435,4.6203 -0.85047,0.40203 -3.31604,0.8657 -5.47903,1.03035 l -3.93274,0.29939 1.26306,1.61507 c 0.69468,0.88831 1.86796,2.01279 2.60731,2.49886 l 1.34424,0.88377 -1.64527,0.002 c -0.9049,9.1e-4 -3.17261,-0.65232 -5.03934,-1.45178 -1.92273,-0.82345 -3.98661,-1.39127 -4.76093,-1.30986 l -1.36686,0.14359 1.96554,1.19077 c 1.08106,0.65493 2.33282,1.87055 2.78171,2.70139 l 0.81615,1.51061 -2.23417,-0.91523 c -1.22881,-0.50337 -3.07702,-0.91857 -4.10713,-0.92266 -1.03012,-0.005 -3.01611,-0.29746 -4.41333,-0.65193 -1.39722,-0.35447 -2.54039,-0.49046 -2.54039,-0.30218 0,0.63206 2.67919,4.33735 3.3313,4.60713 1.21452,0.50246 0.6463,1.09395 -0.79091,0.82331 -2.8732,-0.54109 -4.36401,-1.2504 -6.55834,-3.12038 -1.23098,-1.049 -2.32176,-1.81711 -2.42398,-1.70691 -0.4397,0.47403 0.68531,4.86838 1.58059,6.17387 l 0.97863,1.42703 -1.46206,-0.34621 c -1.97204,-0.46695 -3.88191,-1.88943 -5.4795,-4.0812 -0.72899,-1.0001 -1.42483,-1.82766 -1.54633,-1.83904 -0.12149,-0.0114 -0.71793,0.99235 -1.32542,2.23048 -0.98511,2.00778 -3.43952,4.41443 -4.50203,4.41443 -0.2173,0 0.11032,-0.92978 0.72805,-2.06616 z m 68.4987,1.63436 -0.88362,-0.41856 0.88362,-0.3535 c 4.10609,-1.64261 6.84801,-3.49847 6.84801,-4.63504 0,-0.24958 -3.17864,-0.36589 -7.49411,-0.27421 -7.33136,0.15577 -7.4618,0.14139 -6.0063,-0.66251 0.81829,-0.45196 3.04746,-1.39933 4.95372,-2.10529 3.05051,-1.1297 4.31512,-1.30878 10.55135,-1.4942 5.62695,-0.16731 7.67318,-0.049 9.94066,0.57502 3.04218,0.83715 6.91924,3.10646 8.51306,4.98285 l 0.96926,1.14111 -1.15445,-0.29804 c -2.74771,-0.70932 -7.52546,-1.24706 -11.15782,-1.25581 -3.72724,-0.009 -3.99127,0.0599 -5.42442,1.41657 -0.82856,0.78431 -2.28149,1.85227 -3.22872,2.37325 -1.95773,1.07676 -5.99132,1.63314 -7.31024,1.00836 z m -26.50841,-1.32591 c -2.2119,-0.31045 -3.57982,-1.08648 -4.63977,-2.63211 l -1.0097,-1.47233 1.38786,0.29924 c 1.79217,0.38642 5.00584,-0.28125 7.79607,-1.61971 l 2.20903,-1.05968 -1.95645,-0.39345 c -3.24247,-0.65209 -3.23389,-1.36677 0.0164,-1.36677 3.20115,0 5.05496,-0.96662 11.06345,-5.76874 3.17942,-2.54107 8.328,-8.25215 8.328,-9.23786 0,-1.158 -2.16549,-0.10841 -4.71073,2.28323 -4.57757,4.30135 -4.36418,4.15999 -3.48569,2.30916 0.41835,-0.88137 1.56809,-2.54688 2.55498,-3.70115 0.98691,-1.15426 1.68074,-2.22116 1.54188,-2.37087 -0.13886,-0.14969 -2.77853,0.0945 -5.86593,0.54277 -6.38629,0.92714 -8.32982,0.6237 -9.91429,-1.54793 l -0.92948,-1.27393 1.67893,-0.5398 c 0.92342,-0.29688 2.37479,-0.94356 3.22526,-1.43706 l 1.54633,-0.89726 -3.09265,-0.36989 c -2.89811,-0.34662 -4.02305,-0.26863 -6.18183,0.42854 -0.79972,0.25827 -0.82049,0.20673 -0.22716,-0.56401 1.14727,-1.49033 4.30334,-2.62333 7.30749,-2.62333 1.54735,0 3.83094,-0.23527 5.07463,-0.52283 1.24371,-0.28755 2.34136,-0.43648 2.43924,-0.33095 0.0979,0.10553 -0.51639,1.30348 -1.36508,2.66212 -1.03243,1.6528 -2.23447,2.85832 -3.63246,3.64295 l -2.0894,1.17271 1.4578,0.0222 c 1.80457,0.0274 3.59864,-0.94892 6.62787,-3.60703 2.50927,-2.20186 4.19601,-2.89434 8.04029,-3.30088 l 2.42993,-0.25699 -2.65085,1.36709 c -1.45796,0.7519 -3.33258,2.10107 -4.16583,2.99816 l -1.51499,1.63106 3.21034,0.14078 c 4.81703,0.21125 7.73901,-0.87314 13.71606,-5.09017 l 1.08403,-0.76482 -1.06747,2.04761 c -1.02903,1.97388 -3.81281,5.06618 -7.91766,8.79512 l -1.95721,1.77798 2.84082,0.0155 2.84082,0.0155 -2.20903,0.82731 c -3.01492,1.12913 -5.97147,3.37264 -10.16156,7.71091 -3.79033,3.92436 -7.76729,6.58864 -12.49131,8.36826 -2.15813,0.81299 -2.7361,1.19828 -2.15698,1.43786 0.80659,0.3337 4.13151,0.0623 6.91668,-0.56458 1.39019,-0.31291 1.48694,-0.27021 0.9583,0.42292 -0.32341,0.42403 -1.42994,1.21037 -2.45898,1.74742 -1.81116,0.94525 -4.72628,1.16894 -8.43998,0.64768 z M 34.727978,911.41997 c -1.29182,-0.48102 -3.696331,-1.86723 -5.343348,-3.08047 l -2.994588,-2.2059 h -5.795704 c -6.345302,0 -9.170147,-0.73843 -11.793242,-3.08276 l -1.3254153,-1.18458 9.4988423,0.25936 c 11.266239,0.30762 14.8008,0.77618 18.176959,2.40964 2.36865,1.146 5.697803,4.09121 3.786556,3.34986 -1.376717,-0.53402 -5.340465,-1.65522 -6.867123,-1.94249 -2.315808,-0.43573 -1.52105,0.68124 1.78545,2.50931 1.595546,0.88214 4.762176,2.10045 7.03695,2.70737 l 4.135951,1.10348 -3.976262,0.0159 c -2.74339,0.0109 -4.704508,-0.2553 -6.325026,-0.85869 z m 181.882092,-2.64221 c 2.27476,-0.60692 5.4414,-1.82523 7.03694,-2.70737 3.30651,-1.82808 4.10126,-2.94505 1.78546,-2.5093 -1.52666,0.28726 -5.49041,1.40847 -6.86714,1.94247 -1.91123,0.74135 1.41792,-2.20385 3.78657,-3.34985 3.37616,-1.63346 6.91072,-2.10202 18.17695,-2.40963 l 9.49885,-0.25937 -1.32542,1.18458 c -2.62037,2.3419 -5.44949,3.08275 -11.77224,3.08275 h -5.77471 l -3.2863,2.36968 c -4.11823,2.96955 -6.75696,3.83121 -11.60929,3.79093 l -3.78562,-0.0314 4.13595,-1.10347 z M 28.0197,896.05733 c -2.308444,-0.76772 -5.736488,-1.60752 -7.617894,-1.86624 -7.268226,-0.99944 -12.6708938,-3.75449 -15.212119,-7.75731 -1.9763822,-3.1131 -1.8506947,-3.64534 0.3538018,-1.49817 2.795046,2.72236 6.6190942,4.3916 13.5735402,5.92498 6.811339,1.50185 9.181782,2.50884 11.821189,5.02176 0.946254,0.9009 1.621049,1.62289 1.499556,1.60443 -0.121503,-0.0185 -2.109631,-0.66172 -4.418074,-1.42945 z m 198.54546,-2.57621 c 2.65775,-2.49999 5.03434,-3.50563 11.8212,-5.00207 6.95444,-1.5334 10.7785,-3.20264 13.57353,-5.92499 2.20449,-2.14718 2.33019,-1.61494 0.3538,1.49817 -2.5422,4.00436 -7.9517,6.76195 -15.21211,7.75464 -1.88142,0.25723 -5.40887,1.1033 -7.8388,1.88014 l -4.41808,1.41243 z M 22.789744,889.46634 c -1.297013,-0.50305 -3.229229,-1.46495 -4.293815,-2.13757 -2.07162,-1.30886 -7.264895,-6.27503 -7.264895,-6.9472 0,-0.22274 1.540804,-0.46757 3.424011,-0.54409 l 3.424001,-0.13911 -3.137821,-1.80818 c -3.839692,-2.21263 -7.7445457,-5.88423 -8.7941396,-8.2688 -0.8353803,-1.89794 -1.0194645,-6.69954 -0.3092902,-8.06765 0.3013592,-0.58058 0.4693517,-0.2284 0.6794974,1.42448 0.3783833,2.97619 1.6284146,5.45954 4.0768034,8.09914 2.54049,2.7389 4.517845,4.20615 10.076641,7.47714 3.103668,1.82632 5.043893,3.36259 6.737553,5.33481 2.684603,3.12614 3.078072,4.26496 0.94277,2.72865 -2.783884,-2.00297 -7.64623,-4.29236 -9.783882,-4.60666 l -2.162707,-0.31796 1.058192,1.54923 c 0.582001,0.85207 2.810834,2.81452 4.952951,4.361 4.121645,2.97558 4.195845,3.34504 0.37413,1.86277 z m 40.353613,-1.46953 c -1.214974,-0.2207 -4.39598,-0.62653 -7.068914,-0.90187 -7.458856,-0.76832 -12.37712,-2.08618 -20.212676,-5.41604 -3.948647,-1.67804 -8.932815,-3.75517 -11.075922,-4.61582 -4.864391,-1.95352 -9.32406,-5.29178 -12.346053,-9.2416 -2.059402,-2.69168 -4.6295299,-6.93736 -4.1995568,-6.93736 0.087112,0 0.944732,1.11165 1.9058258,2.47034 3.83922,5.42747 12.226022,11.02479 19.861774,13.25567 1.943945,0.56796 7.70953,2.49625 12.812403,4.28509 6.501262,2.27907 10.791923,3.49028 14.33675,4.04711 4.690759,0.73685 9.389301,2.16252 10.382346,3.15029 0.505529,0.50285 -1.319125,0.46308 -4.395977,-0.0958 z m 171.862913,-2.71298 c 2.18694,-1.58047 4.45244,-3.57073 5.03444,-4.42282 l 1.0582,-1.54922 -2.16271,0.31796 c -2.13765,0.31429 -7,2.60368 -9.78388,4.60665 -2.1353,1.53632 -1.74183,0.39751 0.94277,-2.72863 1.69366,-1.97224 3.63389,-3.50851 6.73756,-5.33482 5.55879,-3.271 7.53614,-4.73824 10.07663,-7.47713 2.44839,-2.63961 3.69842,-5.12297 4.07681,-8.09915 0.21014,-1.65287 0.37813,-2.00505 0.67949,-1.42448 0.71018,1.3681 0.52609,6.16972 -0.30929,8.06764 -1.04959,2.38458 -4.95444,6.05618 -8.79412,8.26881 l -3.13784,1.80818 3.42401,0.13912 c 1.8832,0.0765 3.42401,0.32544 3.42401,0.55318 0,0.22775 -1.33565,1.73354 -2.96811,3.3462 -2.97844,2.94234 -7.68899,5.77735 -10.72791,6.4565 -1.29792,0.29008 -0.90757,-0.11604 2.42994,-2.52799 z m -45.04223,0.42724 c 0.99305,-0.98777 5.69159,-2.41344 10.38237,-3.15029 3.54481,-0.55684 7.83547,-1.76804 14.33674,-4.04711 5.10286,-1.78884 10.86845,-3.71713 12.8124,-4.28507 7.63575,-2.23089 16.02254,-7.82822 19.86177,-13.2557 0.96109,-1.35868 1.8187,-2.47033 1.90583,-2.47033 0.42997,0 -2.14017,4.24568 -4.19956,6.93736 -3.022,3.94983 -7.48165,7.2881 -12.34606,9.24159 -2.14311,0.86066 -7.12885,2.93847 -11.07943,4.61734 -7.76013,3.2978 -12.95981,4.68539 -20.35162,5.43103 -2.59458,0.26171 -5.91031,0.68187 -7.36826,0.93366 -3.33894,0.57665 -4.50015,0.59061 -3.95418,0.0475 z M 57.884498,882.72829 c -6.258849,-0.86584 -8.743742,-1.82166 -14.216178,-5.46829 -2.851574,-1.90017 -4.082901,-2.359 -10.346933,-3.85559 -2.071587,-0.49494 1.683277,-1.20924 5.1318,-0.97623 2.75729,0.18629 3.66951,0.51801 7.421955,2.69887 3.545656,2.06069 14.834624,6.90968 18.151827,7.79684 1.472026,0.39367 -2.885971,0.2549 -6.142471,-0.1956 z m 135.591912,-2.14971 c 4.20415,-1.29683 14.69459,-5.82378 18.15183,-7.83308 3.75244,-2.18086 4.66466,-2.51258 7.42194,-2.69887 3.44854,-0.233 7.2034,0.48129 5.13181,0.97623 -6.32614,1.51143 -7.4771,1.9447 -10.42122,3.923 -4.25745,2.86078 -6.37939,3.82146 -10.34369,4.68295 -3.1812,0.69131 -11.75998,1.51096 -9.94067,0.94977 z"
       id="path844"
       inkscape:connector-curvature="0" />
  </g>
</svg>
