<?xml version="1.0" encoding="UTF-8" standalone="no"?>
<svg
   xmlns:osb="http://www.openswatchbook.org/uri/2009/osb"
   xmlns:dc="http://purl.org/dc/elements/1.1/"
   xmlns:cc="http://creativecommons.org/ns#"
   xmlns:rdf="http://www.w3.org/1999/02/22-rdf-syntax-ns#"
   xmlns:svg="http://www.w3.org/2000/svg"
   xmlns="http://www.w3.org/2000/svg"
   xmlns:sodipodi="http://sodipodi.sourceforge.net/DTD/sodipodi-0.dtd"
   xmlns:inkscape="http://www.inkscape.org/namespaces/inkscape"
   cursor="default"
   viewBox="0 0 256 256"
   version="1.1"
   id="svg18"
   sodipodi:docname="Short_whip.svg"
   inkscape:version="0.92.4 (5da689c313, 2019-01-14)"
   inkscape:export-filename="D:\porn\Lilith's Throne v0.3.6.1 (exe version)\Lilith's Throne (exe version)\res\mods\Plasmage\items\clothing\Cleric\Tabard65.png"
   inkscape:export-xdpi="96"
   inkscape:export-ydpi="96">
  <metadata
     id="metadata24">
    <rdf:RDF>
      <cc:Work
         rdf:about="">
        <dc:format>image/svg+xml</dc:format>
        <dc:type
           rdf:resource="http://purl.org/dc/dcmitype/StillImage" />
        <dc:title />
      </cc:Work>
    </rdf:RDF>
  </metadata>
  <defs
     id="defs22">
    <linearGradient
       osb:paint="solid"
       id="linearGradient2015">
      <stop
         id="stop2013"
         offset="0"
         style="stop-color:#040000;stop-opacity:1;" />
    </linearGradient>
  </defs>
  <sodipodi:namedview
     pagecolor="#ffffff"
     bordercolor="#666666"
     borderopacity="1"
     objecttolerance="10"
     gridtolerance="10"
     guidetolerance="10"
     inkscape:pageopacity="0"
     inkscape:pageshadow="2"
     inkscape:window-width="740"
     inkscape:window-height="705"
     id="namedview20"
     showgrid="true"
     inkscape:snap-to-guides="true"
     inkscape:snap-global="true"
     inkscape:snap-bbox="false"
     inkscape:snap-intersection-paths="true"
     inkscape:zoom="1.3722561"
     inkscape:cx="130.20532"
     inkscape:cy="108.84909"
     inkscape:window-x="-8"
     inkscape:window-y="-8"
     inkscape:window-maximized="0"
     inkscape:current-layer="svg18"
     inkscape:object-nodes="true"
     showguides="true"
     inkscape:guide-bbox="true"
     inkscape:object-paths="true">
    <inkscape:grid
       type="xygrid"
       id="grid850" />
  </sodipodi:namedview>
  <path
     style="fill:#abc837;fill-opacity:1;stroke:#000000;stroke-width:1px;stroke-linecap:butt;stroke-linejoin:miter;stroke-opacity:1"
     d="m 52.769732,181 c 0,30 -35.330816,45 -32.769732,50 -2.176218,5 25,16 27.97838,10 C 52,232 41.678711,218.96924 45,181 l 2.523509,10 C 47.877833,216 55,226 55,241 55,255.53125 8,246 11.600456,229.36302 15,221 41.468246,210.66845 45,191 Z"
     id="path848"
     inkscape:connector-curvature="0"
     sodipodi:nodetypes="ccccccccc" />
  <g
     id="g1287"
     style="stroke-width:0.85;stroke-miterlimit:4;stroke-dasharray:none;fill:#ffccaa;fill-opacity:1">
    <path
       style="fill:#ffccaa;fill-opacity:1;stroke:#000000;stroke-width:0.85;stroke-linecap:butt;stroke-linejoin:miter;stroke-miterlimit:4;stroke-dasharray:none;stroke-opacity:1"
       d="M 245,116 C 240,116 174.25299,11.791015 134.98753,36.259838 74.366371,74.036767 68.039841,124.93726 67.621361,121.962 66.448361,121.52792 75.356411,66.392284 136.6406,28.681845 175.87222,4.5411638 250,116 245,116 Z"
       id="path886"
       inkscape:connector-curvature="0"
       sodipodi:nodetypes="cscsc" />
    <path
       sodipodi:nodetypes="cscsc"
       inkscape:connector-curvature="0"
       id="path888"
       d="M 220,136 C 217,136 174.181,9.0956068 134.81837,35.500778 75.162841,75.518793 67.300631,121.93196 66.293031,121.66198 65.187661,121.3658 80.793711,67.201447 140.9861,27.307263 180.62905,1.0327798 227,136 220,136 Z"
       style="fill:#ffccaa;fill-opacity:1;stroke:#000000;stroke-width:0.85;stroke-linecap:butt;stroke-linejoin:miter;stroke-miterlimit:4;stroke-dasharray:none;stroke-opacity:1" />
    <path
       style="fill:#ffccaa;fill-opacity:1;stroke:#000000;stroke-width:0.85;stroke-linecap:butt;stroke-linejoin:miter;stroke-miterlimit:4;stroke-dasharray:none;stroke-opacity:1"
       d="M 235,126 C 230,126 174.19957,6.9227098 134.08147,35.848803 75.770451,77.892418 66.262161,121.70962 65.271381,121.44415 64.181791,121.15219 77.671371,71.238929 136.56253,29.25113 176.76294,0.58930576 240,126 235,126 Z"
       id="path890"
       inkscape:connector-curvature="0"
       sodipodi:nodetypes="cscsc" />
    <path
       sodipodi:nodetypes="cscsc"
       inkscape:connector-curvature="0"
       id="path892"
       d="M 191,131 C 186,131 175.55547,3.8083228 134.64575,35.399222 77.737051,79.344707 72.772548,121 70,121 68.108456,120.82994 79.353731,72.53929 136.82928,28.612742 177.7794,-2.6840092 196,131 191,131 Z"
       style="fill:#ffccaa;fill-opacity:1;stroke:#000000;stroke-width:0.85;stroke-linecap:butt;stroke-linejoin:miter;stroke-miterlimit:4;stroke-dasharray:none;stroke-opacity:1" />
    <path
       sodipodi:nodetypes="cscsc"
       inkscape:connector-curvature="0"
       id="path926"
       d="m 246.70081,106 c -5,0 -79.94196,-105.68021375 -121.52677,-76.845362 C 65.320218,70.657193 65.702631,124.31101 65.271381,121.44415 63.738301,122.29325 66.525728,63.792586 126.97904,22.327202 168.58464,-6.2103908 252.70081,106 246.70081,106 Z"
       style="fill:#ffccaa;fill-opacity:1;stroke:#000000;stroke-width:0.85;stroke-linecap:butt;stroke-linejoin:miter;stroke-miterlimit:4;stroke-dasharray:none;stroke-opacity:1" />
    <path
       style="fill:#ffccaa;fill-opacity:1;stroke:#000000;stroke-width:0.85;stroke-linecap:butt;stroke-linejoin:miter;stroke-miterlimit:4;stroke-dasharray:none;stroke-opacity:1"
       d="m 185,141 c -5,0 -9.75075,-129.743765 -52.23212,-98.19089 -58.384479,43.364823 -68.979559,83.97182 -69.469919,81.1275 -1.24663,-0.0219 12.42808,-45.133526 71.419059,-88.514964 C 177.14075,4.2235928 190,141 185,141 Z"
       id="path928"
       inkscape:connector-curvature="0"
       sodipodi:nodetypes="cscsc" />
    <path
       sodipodi:nodetypes="cscsc"
       inkscape:connector-curvature="0"
       id="path930"
       d="M 200,136 C 193.27308,136.27865 179.21814,4.2334388 136.06244,38.448897 79.093251,83.616214 63.365451,123.68476 62.979201,120.88587 61.401091,121.667 81.608251,75.692326 139.08614,30.535204 182.31578,-3.4278642 203.27308,136.27865 200,136 Z"
       style="fill:#ffccaa;fill-opacity:1;stroke:#000000;stroke-width:0.85;stroke-linecap:butt;stroke-linejoin:miter;stroke-miterlimit:4;stroke-dasharray:none;stroke-opacity:1" />
    <path
       sodipodi:nodetypes="cscsc"
       inkscape:connector-curvature="0"
       id="path934"
       d="m 242.90052,121 c -5,0 -77.15433,-119.2603326 -122.51876,-78.537532 C 67.01813,90.366024 63.189982,122.25452 62.719182,119.65664 60.057022,119.92363 67.0299,84.375768 120.57832,36.633157 166.31501,-4.1446724 247.90052,121 242.90052,121 Z"
       style="fill:#ffccaa;fill-opacity:1;stroke:#000000;stroke-width:0.85;stroke-linecap:butt;stroke-linejoin:miter;stroke-miterlimit:4;stroke-dasharray:none;stroke-opacity:1" />
    <path
       sodipodi:nodetypes="cscsc"
       inkscape:connector-curvature="0"
       id="path1075"
       d="m 236.49963,118.69934 c -5,0 -63.50338,-104.996711 -102.76884,-80.527888 -60.621179,37.776934 -67.663539,89.315908 -68.082039,86.340658 -2.2833,-0.82735 8.45091,-56.208213 69.735079,-93.918653 39.23163,-24.1406772 106.1158,88.105883 101.1158,88.105883 z"
       style="fill:#ffccaa;fill-opacity:1;stroke:#000000;stroke-width:0.85;stroke-linecap:butt;stroke-linejoin:miter;stroke-miterlimit:4;stroke-dasharray:none;stroke-opacity:1" />
    <path
       style="fill:#ffccaa;fill-opacity:1;stroke:#000000;stroke-width:0.85;stroke-linecap:butt;stroke-linejoin:miter;stroke-miterlimit:4;stroke-dasharray:none;stroke-opacity:1"
       d="M 206,136 C 200,136 172.92422,11.007224 133.56161,37.412392 73.906101,77.430411 66.043881,123.84359 65.036271,123.57361 63.930901,123.27742 75.094891,70.934885 135.28729,31.040701 174.93025,4.7662138 210,136 206,136 Z"
       id="path1077"
       inkscape:connector-curvature="0"
       sodipodi:nodetypes="cscsc" />
    <path
       style="fill:#ffccaa;fill-opacity:1;stroke:#000000;stroke-width:0.85;stroke-linecap:butt;stroke-linejoin:miter;stroke-miterlimit:4;stroke-dasharray:none;stroke-opacity:1"
       d="M 175,141 C 170,141 174.29872,5.7199388 133.389,37.310837 76.480301,81.256318 63.878351,123.37517 62.905351,123.11446 61.834761,122.82759 78.096971,74.450911 135.57252,30.524354 176.52265,-0.77239424 180,141 175,141 Z"
       id="path1079"
       inkscape:connector-curvature="0"
       sodipodi:nodetypes="cscsc" />
    <path
       sodipodi:nodetypes="cscsc"
       inkscape:connector-curvature="0"
       id="path1081"
       d="M 211.55085,136 C 208.14713,136.74418 166.70968,-0.92640622 124.88147,33.545014 69.494363,79.190613 62.675281,123.05281 61.722431,122.79749 60.675481,122.51696 71.613183,72.156583 127.47846,26.544709 169.44055,-7.7157612 218.14713,136.74418 211.55085,136 Z"
       style="fill:#ffccaa;fill-opacity:1;stroke:#000000;stroke-width:0.85;stroke-linecap:butt;stroke-linejoin:miter;stroke-miterlimit:4;stroke-dasharray:none;stroke-opacity:1" />
    <path
       style="fill:#ffccaa;fill-opacity:1;stroke:#000000;stroke-width:0.85;stroke-linecap:butt;stroke-linejoin:miter;stroke-miterlimit:4;stroke-dasharray:none;stroke-opacity:1"
       d="M 180,131 C 175,131 170.01475,-3.05194 126.59059,35.038405 73.196645,81.873957 64.462658,122.11197 64.604078,118.83181 61.702558,118.38955 74.150555,75.330933 128.09896,28.384893 171.4333,-9.3247619 185,131 180,131 Z"
       id="path1083"
       inkscape:connector-curvature="0"
       sodipodi:nodetypes="cscsc" />
    <path
       style="fill:#ffccaa;fill-opacity:1;stroke:#000000;stroke-width:0.85000002;stroke-linecap:butt;stroke-linejoin:miter;stroke-miterlimit:4;stroke-dasharray:none;stroke-opacity:1"
       d="m 230,128.1507 c -5,0 -61.2553,-121.8978982 -101.99764,-97.110885 -61.447116,37.383473 -57.847169,92.267865 -59.847169,91.267865 -2,-1 -2.732307,-58.582837 59.307879,-95.877135 C 168.32471,1.8673508 235,128.1507 230,128.1507 Z"
       id="path1085"
       inkscape:connector-curvature="0"
       sodipodi:nodetypes="cscsc" />
    <path
       sodipodi:nodetypes="cscsc"
       inkscape:connector-curvature="0"
       id="path1093"
       d="M 170,136 C 165,136 173.99251,13.167851 131.51112,44.720724 73.126651,88.085553 68.585691,125.37543 68.155191,122.30768 65.813511,121.69814 74.469301,80.714697 133.46025,37.333264 175.88401,6.1352098 175,136 170,136 Z"
       style="fill:#ffccaa;fill-opacity:1;stroke:#000000;stroke-width:0.85;stroke-linecap:butt;stroke-linejoin:miter;stroke-miterlimit:4;stroke-dasharray:none;stroke-opacity:1" />
  </g>
  <path
     style="opacity:1;fill:#ff5555;fill-opacity:1;fill-rule:evenodd;stroke:#0e0000;stroke-width:1.5;stroke-linecap:square;stroke-linejoin:bevel;stroke-miterlimit:4;stroke-dasharray:none;stroke-dashoffset:0;stroke-opacity:1;paint-order:stroke markers fill"
     id="path1241"
     sodipodi:type="arc"
     sodipodi:cx="46.455345"
     sodipodi:cy="195.46478"
     sodipodi:rx="8.4901228"
     sodipodi:ry="8.17099"
     sodipodi:start="5.5806461"
     sodipodi:end="5.0700102"
     d="m 52.93504,190.18503 a 8.4901228,8.17099 0 0 1 -0.213431,10.79296 8.4901228,8.17099 0 0 1 -11.150411,1.17034 8.4901228,8.17099 0 0 1 -2.625742,-10.49496 8.4901228,8.17099 0 0 1 10.481831,-3.84262"
     sodipodi:open="true" />
  <path
     inkscape:connector-curvature="0"
     id="path4909-2"
     d="m 58.521421,119.6989 -19.152616,71.4785 c 4.089184,5.17702 9.209766,6.66828 15.454816,4.14111 L 73.976231,123.84 c -15.41437,-4.05635 0,0 -15.45481,-4.1411 z"
     style="fill:#ffeeaa;fill-opacity:1;stroke:#000000;stroke-width:1px;stroke-linecap:butt;stroke-linejoin:miter;stroke-opacity:1"
     sodipodi:nodetypes="ccccc" />
  <g
     id="g1391"
     style="fill:#000000;fill-opacity:0;stroke:#ff5555;stroke-opacity:1">
    <path
       style="fill:#000000;fill-opacity:0;stroke:#ff5555;stroke-width:3.2;stroke-linecap:butt;stroke-linejoin:miter;stroke-miterlimit:4;stroke-dasharray:none;stroke-opacity:1"
       d="M 57.62148,125 C 59.746411,125.56937 70.75012,119.86125 75,121"
       id="path4985"
       inkscape:connector-curvature="0"
       sodipodi:nodetypes="cc" />
    <path
       style="fill:#000000;fill-opacity:0;stroke:#ff5555;stroke-width:3.20000005;stroke-linecap:butt;stroke-linejoin:miter;stroke-miterlimit:4;stroke-dasharray:none;stroke-opacity:1"
       d="M 42.450613,181.49841 C 44.382465,182.01605 55.622935,174.96472 59.486638,176"
       id="path4973"
       inkscape:connector-curvature="0"
       sodipodi:nodetypes="cc" />
    <path
       sodipodi:nodetypes="cc"
       inkscape:connector-curvature="0"
       id="path4975"
       d="m 45.095643,171.72936 c 1.931851,0.51763 13.152347,-6.61105 17.01605,-5.57578"
       style="fill:#000000;fill-opacity:0;stroke:#ff5555;stroke-width:3.20000005;stroke-linecap:butt;stroke-linejoin:miter;stroke-miterlimit:4;stroke-dasharray:none;stroke-opacity:1" />
    <path
       style="fill:#000000;fill-opacity:0;stroke:#ff5555;stroke-width:3.20000005;stroke-linecap:butt;stroke-linejoin:miter;stroke-miterlimit:4;stroke-dasharray:none;stroke-opacity:1"
       d="m 47.629014,162.23454 c 1.931852,0.51764 13.181045,-6.71398 17.044749,-5.67871"
       id="path4977"
       inkscape:connector-curvature="0"
       sodipodi:nodetypes="cc" />
    <path
       sodipodi:nodetypes="cc"
       inkscape:connector-curvature="0"
       id="path4979"
       d="M 50.237193,152.55991 C 52.169044,153.07755 63.387506,145.96472 67.251209,147"
       style="fill:#000000;fill-opacity:0;stroke:#ff5555;stroke-width:3.20000005;stroke-linecap:butt;stroke-linejoin:miter;stroke-miterlimit:4;stroke-dasharray:none;stroke-opacity:1" />
    <path
       style="fill:#000000;fill-opacity:0;stroke:#ff5555;stroke-width:3.20000005;stroke-linecap:butt;stroke-linejoin:miter;stroke-miterlimit:4;stroke-dasharray:none;stroke-opacity:1"
       d="M 52.837101,142.8655 C 54.768953,143.38314 66.073796,135.96472 69.9375,137"
       id="path4981"
       inkscape:connector-curvature="0"
       sodipodi:nodetypes="cc" />
    <path
       sodipodi:nodetypes="cc"
       inkscape:connector-curvature="0"
       id="path4983"
       d="m 55.421385,133.21405 c 1.931852,0.51764 13.169728,-6.56772 17.033431,-5.53244"
       style="fill:#000000;fill-opacity:0;stroke:#ff5555;stroke-width:3.20000005;stroke-linecap:butt;stroke-linejoin:miter;stroke-miterlimit:4;stroke-dasharray:none;stroke-opacity:1" />
    <path
       sodipodi:nodetypes="cc"
       inkscape:connector-curvature="0"
       id="path4971"
       d="M 40.2505,189.51475 C 42.182351,190.03239 53.136297,184.38704 57,185.42232"
       style="fill:#000000;fill-opacity:0;stroke:#ff5555;stroke-width:3.20000005;stroke-linecap:butt;stroke-linejoin:miter;stroke-miterlimit:4;stroke-dasharray:none;stroke-opacity:1" />
  </g>
  <path
     style="fill:#ff5555;fill-opacity:1;stroke:#000000;stroke-width:1px;stroke-linecap:round;stroke-linejoin:round;stroke-opacity:1"
     d="m 73.717409,124.80593 c -6.790402,2.39559 -11.620031,1.1015 -15.454813,-4.1411 0.328169,-5.08845 1.075705,-3.7789 6.302854,-11.69578 1.155395,3.41542 5.985024,4.70951 9.659258,2.58819 -0.39752,9.21097 1.752722,8.67788 -0.507299,13.24869 z"
     id="path4702"
     inkscape:connector-curvature="0"
     sodipodi:nodetypes="ccccc" />
</svg>
