<?xml version="1.0" encoding="UTF-8" standalone="no"?>
<svg
   xmlns:osb="http://www.openswatchbook.org/uri/2009/osb"
   xmlns:dc="http://purl.org/dc/elements/1.1/"
   xmlns:cc="http://creativecommons.org/ns#"
   xmlns:rdf="http://www.w3.org/1999/02/22-rdf-syntax-ns#"
   xmlns:svg="http://www.w3.org/2000/svg"
   xmlns="http://www.w3.org/2000/svg"
   xmlns:sodipodi="http://sodipodi.sourceforge.net/DTD/sodipodi-0.dtd"
   xmlns:inkscape="http://www.inkscape.org/namespaces/inkscape"
   cursor="default"
   viewBox="0 0 256 256"
   version="1.1"
   id="svg18"
   sodipodi:docname="Tentadrool_Whip_Stored.svg"
   inkscape:version="0.92.4 (5da689c313, 2019-01-14)"
   inkscape:export-filename="D:\porn\Lilith's Throne v0.3.6.1 (exe version)\Lilith's Throne (exe version)\res\mods\Plasmage\items\clothing\Cleric\Tabard65.png"
   inkscape:export-xdpi="96"
   inkscape:export-ydpi="96">
  <metadata
     id="metadata24">
    <rdf:RDF>
      <cc:Work
         rdf:about="">
        <dc:format>image/svg+xml</dc:format>
        <dc:type
           rdf:resource="http://purl.org/dc/dcmitype/StillImage" />
        <dc:title />
      </cc:Work>
    </rdf:RDF>
  </metadata>
  <defs
     id="defs22">
    <linearGradient
       osb:paint="solid"
       id="linearGradient2015">
      <stop
         id="stop2013"
         offset="0"
         style="stop-color:#040000;stop-opacity:1;" />
    </linearGradient>
  </defs>
  <sodipodi:namedview
     pagecolor="#ffffff"
     bordercolor="#666666"
     borderopacity="1"
     objecttolerance="10"
     gridtolerance="10"
     guidetolerance="10"
     inkscape:pageopacity="0"
     inkscape:pageshadow="2"
     inkscape:window-width="1360"
     inkscape:window-height="705"
     id="namedview20"
     showgrid="true"
     inkscape:snap-to-guides="true"
     inkscape:snap-global="true"
     inkscape:snap-bbox="false"
     inkscape:snap-intersection-paths="true"
     inkscape:zoom="1.6677258"
     inkscape:cx="51.830501"
     inkscape:cy="138.09386"
     inkscape:window-x="-8"
     inkscape:window-y="-8"
     inkscape:window-maximized="1"
     inkscape:current-layer="svg18"
     inkscape:object-nodes="true"
     showguides="true"
     inkscape:guide-bbox="true"
     inkscape:object-paths="true">
    <inkscape:grid
       type="xygrid"
       id="grid850" />
    <sodipodi:guide
       position="125,125"
       orientation="1,0"
       id="guide1393"
       inkscape:locked="false" />
    <sodipodi:guide
       position="125,125"
       orientation="0,1"
       id="guide1395"
       inkscape:locked="false" />
    <sodipodi:guide
       position="125,228"
       orientation="1,0"
       id="guide2531"
       inkscape:locked="false" />
    <sodipodi:guide
       position="75,270"
       orientation="1,0"
       id="guide2533"
       inkscape:locked="false" />
    <sodipodi:guide
       position="180,110"
       orientation="1,0"
       id="guide2535"
       inkscape:locked="false" />
  </sodipodi:namedview>
  <path
     style="opacity:1;fill:#ff7f2a;fill-opacity:1;fill-rule:evenodd;stroke:none;stroke-width:1.38628471;stroke-linecap:square;stroke-linejoin:bevel;stroke-miterlimit:4;stroke-dasharray:none;stroke-dashoffset:0;stroke-opacity:1;paint-order:stroke markers fill"
     d="m 140,41 c -5.84683,-0.026 -26.37678,0.124196 -30,0 -10,0 -25,12.65165 -5,25 5,5 2,78 2,78 C 75,166 75,181 74.642138,192.21298 75,221 105,231 115,233 c 10,13 10,13 20,0 10,-2 40,-12 40,-42 0,-10 0,-25 -32,-47 0,0 -3,-73 2,-78 20,-12.474874 5,-25 -5,-25 z"
     id="path2259"
     inkscape:connector-curvature="0"
     sodipodi:nodetypes="ccccccccccc" />
  <ellipse
     style="opacity:1;fill:#ff9955;fill-opacity:1;fill-rule:evenodd;stroke:#ee9797;stroke-width:1;stroke-linecap:round;stroke-linejoin:round;stroke-miterlimit:4;stroke-dasharray:none;stroke-dashoffset:4.9000001;stroke-opacity:0.07352415;paint-order:stroke markers fill"
     id="path823"
     cx="-158.39561"
     cy="128.02579"
     rx="27.5"
     ry="17.5"
     transform="rotate(-88.984122)" />
  <ellipse
     style="opacity:1;fill:#ff7f2a;fill-opacity:1;fill-rule:evenodd;stroke:#ee9797;stroke-width:1;stroke-linecap:round;stroke-linejoin:round;stroke-miterlimit:4;stroke-dasharray:none;stroke-dashoffset:4.9000001;stroke-opacity:0.07352415;paint-order:stroke markers fill"
     id="path827"
     cx="118.20858"
     cy="146.63936"
     rx="5"
     ry="7.5" />
  <ellipse
     ry="7.5731912"
     rx="3.6081066"
     cy="-199.39157"
     cx="-36.317188"
     id="ellipse829"
     style="opacity:1;fill:#ff7f2a;fill-opacity:1;fill-rule:evenodd;stroke:#ee9797;stroke-width:0.85361785;stroke-linecap:round;stroke-linejoin:round;stroke-miterlimit:4;stroke-dasharray:none;stroke-dashoffset:4.9000001;stroke-opacity:0.07352415;paint-order:stroke markers fill"
     transform="rotate(156.04735)" />
  <ellipse
     transform="rotate(141.95452)"
     style="opacity:1;fill:#ff7f2a;fill-opacity:1;fill-rule:evenodd;stroke:#ee9797;stroke-width:0.85361785;stroke-linecap:round;stroke-linejoin:round;stroke-miterlimit:4;stroke-dasharray:none;stroke-dashoffset:4.9000001;stroke-opacity:0.07352415;paint-order:stroke markers fill"
     id="ellipse831"
     cx="-14.374664"
     cy="-191.66487"
     rx="3.6081066"
     ry="7.5731912" />
  <ellipse
     ry="7.5"
     rx="5"
     cy="161.61578"
     cx="134.16171"
     id="ellipse833"
     style="opacity:1;fill:#ff7f2a;fill-opacity:1;fill-rule:evenodd;stroke:#ee9797;stroke-width:1;stroke-linecap:round;stroke-linejoin:round;stroke-miterlimit:4;stroke-dasharray:none;stroke-dashoffset:4.9000001;stroke-opacity:0.07352415;paint-order:stroke markers fill" />
  <ellipse
     style="opacity:1;fill:#ff7f2a;fill-opacity:1;fill-rule:evenodd;stroke:#ee9797;stroke-width:1;stroke-linecap:round;stroke-linejoin:round;stroke-miterlimit:4;stroke-dasharray:none;stroke-dashoffset:4.9000001;stroke-opacity:0.07352415;paint-order:stroke markers fill"
     id="ellipse835"
     cx="-214.10863"
     cy="-37.95208"
     rx="5"
     ry="7.5"
     transform="rotate(-135.15578)" />
  <ellipse
     transform="rotate(-160.44172)"
     style="opacity:1;fill:#ff7f2a;fill-opacity:1;fill-rule:evenodd;stroke:#ee9797;stroke-width:0.85361785;stroke-linecap:round;stroke-linejoin:round;stroke-miterlimit:4;stroke-dasharray:none;stroke-dashoffset:4.9000001;stroke-opacity:0.07352415;paint-order:stroke markers fill"
     id="ellipse837"
     cx="-169.72195"
     cy="-110.52469"
     rx="3.6081066"
     ry="7.5731912" />
  <ellipse
     style="opacity:1;fill:#ff2a2a;fill-opacity:1;fill-rule:evenodd;stroke:#ee9797;stroke-width:1.79974937;stroke-linecap:round;stroke-linejoin:round;stroke-miterlimit:4;stroke-dasharray:none;stroke-dashoffset:4.9000001;stroke-opacity:0.07352415;paint-order:stroke markers fill"
     id="path839"
     cx="110.85807"
     cy="51.548832"
     rx="15.716056"
     ry="10.822924" />
  <ellipse
     ry="10.822924"
     rx="15.716056"
     cy="51.71162"
     cx="138.69467"
     id="ellipse841"
     style="opacity:1;fill:#ff2a2a;fill-opacity:1;fill-rule:evenodd;stroke:#ee9797;stroke-width:1.79974937;stroke-linecap:round;stroke-linejoin:round;stroke-miterlimit:4;stroke-dasharray:none;stroke-dashoffset:4.9000001;stroke-opacity:0.07352415;paint-order:stroke markers fill" />
  <ellipse
     style="opacity:1;fill:#ff2a2a;fill-opacity:1;fill-rule:evenodd;stroke:#ee9797;stroke-width:1.79974937;stroke-linecap:round;stroke-linejoin:round;stroke-miterlimit:4;stroke-dasharray:none;stroke-dashoffset:4.9000001;stroke-opacity:0.07352415;paint-order:stroke markers fill"
     id="ellipse843"
     cx="124.3694"
     cy="55.455727"
     rx="15.716056"
     ry="10.822924" />
  <path
     style="fill:#ffdd55;stroke:#000000;stroke-width:1px;stroke-linecap:round;stroke-linejoin:round;stroke-opacity:1;fill-opacity:1"
     d="M 102.98165,29.945288 125,33 146.40075,30.352342 145,36 139.875,41.125 C 141.8956,46 141.43626,51.15394 140,56 c -15,5 -15,5 -30,0 -1.69711,-5 -2.01628,-10 0,-15 l -5,-5 z"
     id="path2539"
     inkscape:connector-curvature="0"
     sodipodi:nodetypes="cccccccccc" />
  <path
     style="opacity:0.8;fill:#ffeeaa;fill-opacity:1;stroke:#000000;stroke-width:1.38628471;stroke-linecap:butt;stroke-linejoin:miter;stroke-miterlimit:4;stroke-dasharray:none;stroke-opacity:1"
     d="m 105,36 c -20,15 -20,15 0,35 v 70 c -40,25 -55,80 10,95 10,20 10,20 20,0 65,-15 50,-70 10,-95 V 71 c 20,-20 20,-20 0,-35 -5,5 0,0 -5,5 15,10 15,15 0,25 v 80 c 40,25 50,70 -10,85 -5,10 -5,10 -10,0 C 60,216 70,171 110,146 V 66 C 95,56 95,51 110,41 c -5,-5 0,0 -5,-5 z"
     id="path1399"
     inkscape:connector-curvature="0"
     sodipodi:nodetypes="ccccccccccccccccc" />
  <path
     style="fill:#ffdd55;stroke:#000000;stroke-width:1.08547747px;stroke-linecap:round;stroke-linejoin:round;stroke-opacity:1;fill-opacity:1"
     d="m 102.98165,29.945288 c 4.11233,9.8947 37.61208,8.421857 43.4191,0.407054 -2.2343,-8.567233 -43.4191,-7.708868 -43.4191,-0.407054 z"
     id="path2541"
     inkscape:connector-curvature="0"
     sodipodi:nodetypes="ccc" />
</svg>
