<?xml version="1.0" encoding="UTF-8" standalone="no"?>
<svg
   xmlns:dc="http://purl.org/dc/elements/1.1/"
   xmlns:cc="http://creativecommons.org/ns#"
   xmlns:rdf="http://www.w3.org/1999/02/22-rdf-syntax-ns#"
   xmlns:svg="http://www.w3.org/2000/svg"
   xmlns="http://www.w3.org/2000/svg"
   xmlns:sodipodi="http://sodipodi.sourceforge.net/DTD/sodipodi-0.dtd"
   xmlns:inkscape="http://www.inkscape.org/namespaces/inkscape"
   inkscape:version="1.1-dev (ddb55ca, 2020-02-02)"
   sodipodi:docname="crest_of_riegan.svg"
   id="svg835"
   viewBox="0 0 64 64"
   version="1.1">
  <metadata
     id="metadata841">
    <rdf:RDF>
      <cc:Work
         rdf:about="">
        <dc:format>image/svg+xml</dc:format>
        <dc:type
           rdf:resource="http://purl.org/dc/dcmitype/StillImage" />
      </cc:Work>
    </rdf:RDF>
  </metadata>
  <defs
     id="defs839" />
  <sodipodi:namedview
     inkscape:current-layer="svg835"
     inkscape:window-maximized="0"
     inkscape:window-y="59"
     inkscape:window-x="204"
     inkscape:cy="8.8988194"
     inkscape:cx="34.520162"
     inkscape:zoom="1.121284"
     showgrid="false"
     id="namedview837"
     inkscape:window-height="651"
     inkscape:window-width="900"
     inkscape:pageshadow="2"
     inkscape:pageopacity="0"
     guidetolerance="10"
     gridtolerance="10"
     objecttolerance="10"
     borderopacity="1"
     bordercolor="#666666"
     pagecolor="#ffffff" />
  <path
     inkscape:connector-curvature="0"
     id="path852"
     d="M 28.28225,60.371246 C 28.127194,59.812548 27.862226,58.656628 27.693428,57.802535 27.524632,56.948442 27.249598,56.139163 27.082244,56.004142 26.914886,55.869117 25.680882,55.492862 24.340008,55.168015 22.94794,54.830768 20.607054,53.950681 18.883411,53.116538 16.361524,51.896091 15.477561,51.289165 13.511844,49.428452 11.42235,47.450571 11.012121,46.895951 9.8476848,44.474606 9.1265044,42.974972 8.3362281,40.969425 8.0915164,40.017836 7.4844125,37.657044 7.9578112,37.287876 8.7554288,39.500104 c 1.8304052,5.076703 6.4059102,10.502969 8.8605482,10.508059 1.461598,0.0031 2.46176,-1.849158 1.733413,-3.210088 -0.137586,-0.257079 -0.867569,-0.888739 -1.622185,-1.403687 -0.776193,-0.52967 -1.484904,-1.260049 -1.63194,-1.681841 -0.14295,-0.410066 -0.220069,-0.745574 -0.171377,-0.745574 0.04869,0 0.796869,0.426539 1.662612,0.947863 7.099017,4.274803 13.189903,3.074764 18.554068,-3.655562 1.833489,-2.300449 2.377803,-3.661576 2.601853,-6.506292 0.346327,-4.397221 -0.942258,-8.151928 -3.73578,-10.885389 -4.370837,-4.276865 -9.054337,-5.635366 -13.544336,-3.928684 -1.883505,0.715933 -3.749352,1.77436 -4.773691,2.707942 -0.334632,0.304982 -0.682548,0.480387 -0.773147,0.389786 -0.42394,-0.42394 0.482368,-1.785911 1.943517,-2.920658 1.291336,-1.002869 1.621992,-1.418416 1.691432,-2.125692 0.105367,-1.073194 -0.538907,-2.128514 -1.437082,-2.353942 -1.931675,-0.48482 -5.776089,3.118767 -8.3575017,7.833957 -0.8699679,1.589079 -1.685583,2.889235 -1.8124772,2.889235 -0.6807936,0 -0.4570762,-0.896871 0.9029872,-3.620029 2.5678957,-5.141515 5.2041347,-7.812354 10.0759927,-10.208236 1.48986,-0.732684 3.684018,-1.5886608 4.875905,-1.9021719 1.191888,-0.313511 2.469939,-0.6530461 2.840115,-0.7545222 0.601549,-0.164902 0.733572,-0.4646598 1.242817,-2.821825 0.313374,-1.4505268 0.630895,-2.6984487 0.705606,-2.7731584 0.07471,-0.074709 0.358855,0.1105953 0.631432,0.4117903 0.320008,0.3536072 0.534034,1.0979743 0.60409,2.1010084 0.210953,3.0203547 0.36825,3.1631768 4.540401,4.1226122 2.979644,0.6852046 7.323204,2.7475706 9.549225,4.5340696 3.352588,2.690631 5.215317,5.567645 7.495209,11.576468 0.658711,1.736082 1.39572,3.458799 1.637804,3.828262 0.482467,0.736341 2.076243,1.565117 3.868823,2.011817 1.070787,0.266835 1.602568,0.807773 0.794097,0.807773 -0.196438,0 -0.993808,0.189064 -1.771935,0.420144 -2.277294,0.676282 -2.878534,1.420532 -4.244356,5.253903 -3.289702,9.233013 -8.846921,14.297293 -18.16601,16.554652 -2.66322,0.645113 -3.632437,1.355533 -3.632437,2.662521 0,1.433568 -0.607933,3.822445 -0.972756,3.822445 -0.195908,0 -0.483059,-0.457116 -0.638115,-1.015814 z m 6.486777,-7.616825 c 2.499004,-0.827465 4.999634,-2.316686 5.328313,-3.173212 0.261417,-0.681237 -0.754491,-2.900576 -1.818701,-3.97312 -0.861931,-0.868681 -1.181394,-1.015814 -2.205581,-1.015814 -2.497525,0 -5.663336,2.305753 -6.224237,4.533295 -0.332473,1.320376 -1.116305,1.533393 -1.25051,0.339842 -0.232258,-2.065577 -0.01349,-1.949335 -3.479429,-1.848738 l -3.127051,0.09077 -0.789818,0.884647 c -1.36978,1.534238 -0.967677,3.022508 1.061813,3.930001 2.250395,1.00627 3.816886,1.271121 6.952087,1.175405 2.456361,-0.075 3.431711,-0.240632 5.553114,-0.943068 z m 10.113792,-6.201458 c 0.78242,-0.691189 2.682379,-3.749176 3.490284,-5.617617 0.965063,-2.231902 1.689157,-5.628384 1.339281,-6.282136 -0.191634,-0.358067 -0.926202,-0.640731 -2.527679,-0.972656 -4.388541,-0.909578 -6.076779,-0.529011 -6.870271,1.548718 -0.517707,1.355598 -0.408405,2.184402 0.412982,3.131469 0.740295,0.853567 0.589424,1.143654 -0.804742,1.547303 -1.21382,0.351433 -2.035728,0.940135 -2.485262,1.780095 -0.346363,0.647183 0.423397,1.886293 2.209898,3.557358 2.204202,2.061771 3.90176,2.485705 5.235509,1.307466 z m 2.541649,-15.371925 c 0.757164,-0.224856 1.657348,-0.636114 2.000411,-0.913908 l 0.62375,-0.505084 -0.445606,-2.053403 c -0.766081,-3.530191 -2.549155,-7.266108 -4.436962,-9.296361 -1.560764,-1.678534 -2.910547,-1.214058 -6.629135,2.281156 l -1.69688,1.59495 0.792954,1.012594 c 0.863884,1.103169 1.94027,1.787672 2.81113,1.787672 0.698561,0 0.696052,0.254891 -0.01596,1.620905 -0.417222,0.800463 -0.523837,1.348149 -0.395546,2.031995 0.212668,1.133621 1.305488,2.499294 2.127221,2.658347 1.39144,0.269323 3.98359,0.16156 5.264618,-0.218863 z M 38.135363,19.11846 c 1.197486,-1.103805 2.051336,-2.515048 2.051336,-3.390452 0,-0.820087 -2.025152,-2.448597 -4.139648,-3.328864 -2.585615,-1.076394 -6.548317,-1.779945 -8.763416,-1.555885 -1.684942,0.170435 -4.488352,0.978256 -5.867264,1.690689 -1.129863,0.58376 -1.360955,1.474059 -0.751604,2.895616 0.279014,0.650914 0.71199,1.262028 0.962167,1.35803 0.800304,0.307106 5.780969,0.199296 5.984197,-0.129532 0.103359,-0.167245 0.323876,-0.905909 0.49003,-1.641475 0.166156,-0.735565 0.423998,-1.322657 0.572985,-1.304647 0.148986,0.01801 0.436068,0.787148 0.637963,1.709196 0.201893,0.922048 0.563847,1.898439 0.804342,2.169757 0.74041,0.835304 4.691293,2.616499 5.809882,2.619299 0.819242,0.002 1.257267,-0.214428 2.20903,-1.091732 z"
     style="fill:#ff8080;stroke:#ffb380;stroke-width:0.270883;fill-opacity:1" />
</svg>
