<?xml version="1.0" encoding="UTF-8" standalone="no"?>
<!-- Created with Inkscape (http://www.inkscape.org/) -->

<svg
   xmlns:dc="http://purl.org/dc/elements/1.1/"
   xmlns:cc="http://creativecommons.org/ns#"
   xmlns:rdf="http://www.w3.org/1999/02/22-rdf-syntax-ns#"
   xmlns:svg="http://www.w3.org/2000/svg"
   xmlns="http://www.w3.org/2000/svg"
   xmlns:sodipodi="http://sodipodi.sourceforge.net/DTD/sodipodi-0.dtd"
   xmlns:inkscape="http://www.inkscape.org/namespaces/inkscape"
   version="1.1"
   viewBox="0 0 256 256"
   id="svg6"
   sodipodi:docname="Stripes_1.svg"
   inkscape:version="0.92.4 (5da689c313, 2019-01-14)">
  <defs
     id="defs10" />
  <sodipodi:namedview
     pagecolor="#ffffff"
     bordercolor="#666666"
     borderopacity="1"
     objecttolerance="10"
     gridtolerance="10"
     guidetolerance="10"
     inkscape:pageopacity="0"
     inkscape:pageshadow="2"
     inkscape:window-width="1920"
     inkscape:window-height="1017"
     id="namedview8"
     showgrid="true"
     inkscape:zoom="0.125"
     inkscape:cx="721.84373"
     inkscape:cy="1060.6803"
     inkscape:window-x="1912"
     inkscape:window-y="88"
     inkscape:window-maximized="1"
     inkscape:current-layer="g2212"
     showguides="false"
     inkscape:snap-global="false">
    <inkscape:grid
       type="xygrid"
       id="grid817" />
  </sodipodi:namedview>
  <style
     id="style2">svg { cursor: default;}</style>
  <metadata
     id="metadata4">
    <rdf:RDF>
      <cc:Work
         rdf:about="">
        <dc:format>image/svg+xml</dc:format>
        <dc:type
           rdf:resource="http://purl.org/dc/dcmitype/StillImage" />
        <dc:title />
      </cc:Work>
    </rdf:RDF>
  </metadata>
  <path
     style="fill:none;stroke:#000000;stroke-width:1px;stroke-linecap:butt;stroke-linejoin:miter;stroke-opacity:1"
     d=""
     id="path853"
     inkscape:connector-curvature="0" />
  <path
     style="opacity:0.96600001;fill:#ff7f2a;fill-opacity:1;stroke:#000000;stroke-width:0.01352342;stroke-miterlimit:4;stroke-dasharray:none;stroke-opacity:1"
     d=""
     id="path1020"
     inkscape:connector-curvature="0" />
  <g
     style="display:inline;stroke-width:2.49243258;stroke-miterlimit:4;stroke-dasharray:none"
     id="g2212"
     transform="matrix(0.03882889,0,0,0.04145703,75.486036,180.07503)">
    <path
       style="opacity:1;fill:none;fill-opacity:1;stroke:#1a1a1a;stroke-width:19.86959076;stroke-miterlimit:4;stroke-dasharray:none;stroke-opacity:1"
       d="m -1735.8243,1602.0525 c 0.6002,6.7449 12.002,40.468 12.002,40.468 l 157.8357,149.9513 39.8875,8.7436 21.2166,-7.9488 183.7274,-273.2744 57.6096,-76.4399 79.2133,-114.6595 84.014,-123.6526 62.4104,-83.1845 86.41444,-119.1561 93.61565,-132.64545 144.02405,-186.60319 115.21921,-152.87937 98.41646,-132.64569 119.82311,-155.64857 -65.34756,-54.051 -74.68294,-79.4869 -73.40823,-76.150566 -123.62064,155.127806 -87.61463,109.0391 -118.81983,155.12779 -127.22129,177.6101 -166.8278,229.31935 -158.4265,218.07819 -78.013,112.4114 -147.6247,207.9612 z"
       id="path1023"
       inkscape:connector-curvature="0" />
    <path
       style="opacity:1;fill:none;fill-opacity:1;stroke:#1a1a1a;stroke-width:19.86959076;stroke-miterlimit:4;stroke-dasharray:none;stroke-opacity:1"
       d="m -377.79755,244.68439 53.4089,33.16142 57.00954,44.40253 55.80931,47.21267 34.20572,5.62056 23.4039,-7.86884 17.40288,-15.1755 12.00201,-24.73048 -0.60018,-14.61337 -4.8008,-21.92033 -10.8018,-30.91315 -22.61553,-30.48736 -21.74923,-23.93587 -30.04767,-43.93678 -39.60661,38.21984 -43.20721,-32.03716 -50.40841,-48.89907 -63.01051,-66.322846 -76.81283,-85.43252 -51.60863,-60.7023 -30.005,-34.285444 118.21974,-148.38308 24.60409,-3.93441 21.60363,21.35819 219.63665,243.370821 57.60964,51.709219 -126.02106,163.5586"
       id="path1025"
       inkscape:connector-curvature="0"
       sodipodi:nodetypes="ccccccccccccccccccccccccccc" />
    <path
       style="opacity:1;fill:none;fill-opacity:1;stroke:#1a1a1a;stroke-width:19.86959076;stroke-miterlimit:4;stroke-dasharray:none;stroke-opacity:1"
       d="m -594.68402,36.606258 -37.76581,-55.243525 -31.40079,-61.602217 -53.04186,-56.833266 -23.76275,-63.19195 15.70039,-32.19232 21.64108,-17.88442 25.88443,-0.7936 29.27911,1.58974 20.36808,14.30763 38.61448,31.79476 43.28216,42.52536"
       id="path1027"
       inkscape:connector-curvature="0" />
    <path
       style="opacity:1;fill:none;fill-opacity:1;stroke:#1a1a1a;stroke-width:19.86959076;stroke-miterlimit:4;stroke-dasharray:none;stroke-opacity:1"
       d="m -694.05036,-248.80182 c 0,2.24852 15.00251,47.77481 15.00251,47.77481 l 45.6076,56.76763 43.20722,58.454029 223.23728,246.743111 67.21122,57.33002 39.60662,19.10993 62.41042,56.20549 70.81181,28.103"
       id="path1029"
       inkscape:connector-curvature="0" />
    <path
       style="opacity:1;fill:none;fill-opacity:1;stroke:#1a1a1a;stroke-width:19.86959076;stroke-miterlimit:4;stroke-dasharray:none;stroke-opacity:1"
       d="m -1684.8158,1669.4993 c 25.2042,-23.6061 72.012,-86.5567 76.8128,-85.4324 4.8008,1.1242 63.6106,49.4609 63.6106,49.4609 l -62.8471,116.1929"
       id="path1055"
       inkscape:connector-curvature="0"
       sodipodi:nodetypes="cccc" />
    <path
       style="opacity:1;fill:none;fill-opacity:1;stroke:#1a1a1a;stroke-width:19.86959076;stroke-miterlimit:4;stroke-dasharray:none;stroke-opacity:1"
       d="m -1405.588,1383.9092 38.19,-9.5385 39.0389,50.0769 v 19.0768 l -56.8609,73.9227 -131.5439,13.5129 -21.2167,-135.9228 56.0123,-86.6405 32.2494,-6.359 33.9468,28.6153 z"
       id="path1057"
       inkscape:connector-curvature="0" />
    <path
       style="display:inline;opacity:1;fill:none;fill-opacity:1;stroke:#1a1a1a;stroke-width:19.86959076;stroke-miterlimit:4;stroke-dasharray:none;stroke-opacity:1"
       d="m -1216.5276,1111.8604 38.1901,-9.5386 39.0387,50.0768 v 19.0768 l -56.8607,73.9228 -131.544,13.5128 -21.2167,-135.9226 56.0123,-86.6406 32.2495,-6.359 33.9467,28.6153 z"
       id="path1057-5"
       inkscape:connector-curvature="0" />
    <path
       style="display:inline;opacity:1;fill:none;fill-opacity:1;stroke:#1a1a1a;stroke-width:19.86959076;stroke-miterlimit:4;stroke-dasharray:none;stroke-opacity:1"
       d="m -1017.2943,833.07993 38.19,-9.53852 39.03881,50.07682 v 19.07684 l -56.86079,73.9228 -131.54392,13.51281 -21.2167,-135.92268 56.0123,-86.64063 32.2494,-6.35901 33.9467,28.61535 z"
       id="path1057-4"
       inkscape:connector-curvature="0" />
    <path
       style="display:inline;opacity:1;fill:none;fill-opacity:1;stroke:#1a1a1a;stroke-width:19.86959076;stroke-miterlimit:4;stroke-dasharray:none;stroke-opacity:1"
       d="m -815.66067,565.54069 38.19004,-9.53853 39.03882,50.07683 v 19.07683 l -56.8608,73.92281 -131.5439,13.5128 -21.21671,-135.92268 56.01224,-86.64063 32.24946,-6.35901 33.94677,28.61536 z"
       id="path1057-1"
       inkscape:connector-curvature="0" />
    <path
       style="display:inline;opacity:1;fill:none;fill-opacity:1;stroke:#1a1a1a;stroke-width:19.86959076;stroke-miterlimit:4;stroke-dasharray:none;stroke-opacity:1"
       d="m -609.22621,284.51206 38.19005,-9.53852 39.03881,50.07682 v 19.07683 l -56.86079,73.92281 -131.5439,13.5128 -21.21672,-135.92267 56.01225,-86.64063 32.24945,-6.35902 33.94676,28.61536 z"
       id="path1057-7"
       inkscape:connector-curvature="0" />
    <path
       style="opacity:1;fill:none;fill-opacity:1;stroke:#1a1a1a;stroke-width:19.86959076;stroke-miterlimit:4;stroke-dasharray:none;stroke-opacity:1"
       d="m -409.00277,-262.85331 c 1.20009,-4.49654 117.61964,-137.142 117.61964,-137.142 l 207.634669,-251.80176 164.427455,-195.59579 265.244276,-311.37974 211.23524,-232.6916 259.24324,-287.7734 261.64365,-279.9045 388.8649,-396.8124 235.2393,-237.1882 276.0461,-267.5392 327.6547,-306.8834 429.672,-383.3229 214.8356,-185.4789 267.6447,-224.8229 133.2224,-114.6596 97.2163,-68.571 74.4122,-28.103 120.0201,-28.1028 78.0131,-6.7447 72.0119,1.124 63.6108,10.117 66.0108,19.11 79.2134,31.4752 7.2013,8.993 -115.2195,92.1773 -74.4122,56.2057 -218.4364,174.2377 -126.0211,105.6669 -166.8279,143.8866 -145.2244,125.9009 -259.2433,220.3264 -158.4263,149.5072 -133.2222,105.6667 -144.024,136.0179 -111.6187,104.5426 -106.8178,102.2944 -142.8239,134.8938 -154.8259,152.8795 -145.2241,142.7627 -184.831,182.1064 -184.8308,195.5962 -231.6388,237.1881 -130.8218,131.5215 -126.02099,140.5142 -110.41839,122.5283 -112.81874,132.6457 -186.0312,206.83691 -114.01907,128.14917 -134.42246,168.61727 -164.42743,188.85121 -289.2483,358.5924755"
       id="path1092"
       inkscape:connector-curvature="0" />
    <path
       style="opacity:1;fill:none;fill-opacity:1;stroke:#1a1a1a;stroke-width:19.86959076;stroke-miterlimit:4;stroke-dasharray:none;stroke-opacity:1"
       d="m -192.96671,-514.65509 c 0,8.99308 211.235266,287.77347 211.235266,287.77347"
       id="path1094"
       inkscape:connector-curvature="0"
       sodipodi:nodetypes="cc" />
    <path
       style="opacity:1;fill:none;fill-opacity:1;stroke:#1a1a1a;stroke-width:19.86959076;stroke-miterlimit:4;stroke-dasharray:none;stroke-opacity:1"
       d="M -75.347069,-651.79707 128.68701,-370.76829"
       id="path1096"
       inkscape:connector-curvature="0" />
    <path
       style="display:inline;opacity:1;fill:none;fill-opacity:1;stroke:#1a1a1a;stroke-width:19.86959076;stroke-miterlimit:4;stroke-dasharray:none;stroke-opacity:1"
       d="m 218.4495,-996.98155 c 0,8.99306 211.2353,287.77338 211.2353,287.77338"
       id="path1094-5"
       inkscape:connector-curvature="0"
       sodipodi:nodetypes="cc" />
    <path
       style="display:inline;opacity:1;fill:none;fill-opacity:1;stroke:#1a1a1a;stroke-width:19.86959076;stroke-miterlimit:4;stroke-dasharray:none;stroke-opacity:1"
       d="M 336.06913,-1134.1235 540.1033,-853.09479"
       id="path1096-6"
       inkscape:connector-curvature="0" />
    <path
       style="display:inline;opacity:1;fill:none;fill-opacity:1;stroke:#1a1a1a;stroke-width:19.86959076;stroke-miterlimit:4;stroke-dasharray:none;stroke-opacity:1"
       d="m 628.91803,-1471.3579 c 0,8.9931 211.23532,287.7735 211.23532,287.7735"
       id="path1094-3"
       inkscape:connector-curvature="0"
       sodipodi:nodetypes="cc" />
    <path
       style="display:inline;opacity:1;fill:none;fill-opacity:1;stroke:#1a1a1a;stroke-width:19.86959076;stroke-miterlimit:4;stroke-dasharray:none;stroke-opacity:1"
       d="m 751.33843,-1601.7552 204.03421,281.0288"
       id="path1096-67"
       inkscape:connector-curvature="0" />
    <path
       style="display:inline;opacity:1;fill:none;fill-opacity:1;stroke:#1a1a1a;stroke-width:19.86959076;stroke-miterlimit:4;stroke-dasharray:none;stroke-opacity:1"
       d="m 1128.2013,-1995.1954 c 0,8.9932 211.2353,287.7735 211.2353,287.7735"
       id="path1094-0"
       inkscape:connector-curvature="0"
       sodipodi:nodetypes="cc" />
    <path
       style="display:inline;opacity:1;fill:none;fill-opacity:1;stroke:#1a1a1a;stroke-width:19.86959076;stroke-miterlimit:4;stroke-dasharray:none;stroke-opacity:1"
       d="m 1253.0222,-2127.8409 204.0342,281.0289"
       id="path1096-4"
       inkscape:connector-curvature="0" />
    <path
       style="display:inline;opacity:1;fill:none;fill-opacity:1;stroke:#1a1a1a;stroke-width:19.86959076;stroke-miterlimit:4;stroke-dasharray:none;stroke-opacity:1"
       d="m 1565.0743,-2447.0894 c 0,8.9931 211.2353,287.7735 211.2353,287.7735"
       id="path1094-1"
       inkscape:connector-curvature="0"
       sodipodi:nodetypes="cc" />
    <path
       style="display:inline;opacity:1;fill:none;fill-opacity:1;stroke:#1a1a1a;stroke-width:19.86959076;stroke-miterlimit:4;stroke-dasharray:none;stroke-opacity:1"
       d="m 1694.6959,-2572.9903 204.0342,281.0288"
       id="path1096-5"
       inkscape:connector-curvature="0" />
    <path
       style="display:inline;opacity:1;fill:none;fill-opacity:1;stroke:#1a1a1a;stroke-width:19.86959076;stroke-miterlimit:4;stroke-dasharray:none;stroke-opacity:1"
       d="m 2011.5489,-2885.4939 c 0,8.9931 211.2353,287.7734 211.2353,287.7734"
       id="path1094-2"
       inkscape:connector-curvature="0"
       sodipodi:nodetypes="cc" />
    <path
       style="display:inline;opacity:1;fill:none;fill-opacity:1;stroke:#1a1a1a;stroke-width:19.86959076;stroke-miterlimit:4;stroke-dasharray:none;stroke-opacity:1"
       d="m 2145.9713,-3009.1466 204.0342,281.0288"
       id="path1096-56"
       inkscape:connector-curvature="0" />
    <path
       style="display:inline;opacity:1;fill:none;fill-opacity:1;stroke:#1a1a1a;stroke-width:19.86959076;stroke-miterlimit:4;stroke-dasharray:none;stroke-opacity:1"
       d="m 2575.6431,-3409.3313 c 0,8.9931 211.2353,287.7734 211.2353,287.7734"
       id="path1094-9"
       inkscape:connector-curvature="0"
       sodipodi:nodetypes="cc" />
    <path
       style="display:inline;opacity:1;fill:none;fill-opacity:1;stroke:#1a1a1a;stroke-width:19.86959076;stroke-miterlimit:4;stroke-dasharray:none;stroke-opacity:1"
       d="m 2719.6671,-3526.2393 204.0342,281.0288"
       id="path1096-9"
       inkscape:connector-curvature="0" />
    <path
       style="display:inline;opacity:1;fill:none;fill-opacity:1;stroke:#1a1a1a;stroke-width:19.86959076;stroke-miterlimit:4;stroke-dasharray:none;stroke-opacity:1"
       d="m 3113.3328,-3865.7219 c 0,8.9932 211.2354,287.7735 211.2354,287.7735"
       id="path1094-51"
       inkscape:connector-curvature="0"
       sodipodi:nodetypes="cc" />
    <path
       style="display:inline;opacity:1;fill:none;fill-opacity:1;stroke:#1a1a1a;stroke-width:19.86959076;stroke-miterlimit:4;stroke-dasharray:none;stroke-opacity:1"
       d="m 3266.9584,-3996.1192 204.0343,281.0288"
       id="path1096-561"
       inkscape:connector-curvature="0" />
    <path
       style="opacity:1;fill:#ff2a2a;fill-opacity:1;stroke:#1a1a1a;stroke-width:0.62092471;stroke-miterlimit:4;stroke-dasharray:none;stroke-opacity:1"
       d="m -1643.0724,1704.9459 -31.8536,-30.4326 6.3733,-6.7565 c 3.5054,-3.716 13.8611,-15.5556 23.0127,-26.3101 9.1517,-10.7545 20.8404,-24.4791 25.9748,-30.499 5.1345,-6.0202 9.9674,-11.6895 10.74,-12.5987 1.3891,-1.6355 1.4964,-1.5846 9.7086,4.6657 14.6295,11.1327 40.649,32.2987 40.8552,33.2342 0.1087,0.4986 -11.7607,23.0059 -26.3789,50.0178 l -26.5785,49.1119 z"
       id="path1166"
       inkscape:connector-curvature="0" />
    <path
       style="opacity:1;fill:#ffe6d5;fill-opacity:1;stroke:#1a1a1a;stroke-width:0.18900001;stroke-miterlimit:4;stroke-dasharray:none;stroke-opacity:1"
       d="m 15.333763,253.96086 c -0.275,-0.11375 -0.760692,-0.48755 -1.079316,-0.83067 l -0.579316,-0.62385 1.158065,-2.30585 c 0.636935,-1.26821 1.101012,-2.45452 1.03128,-2.63624 -0.146338,-0.38135 -2.593386,-2.36489 -2.917514,-2.36489 -0.119297,0 -0.859259,0.80508 -1.644362,1.78906 l -1.4274591,1.78906 -0.583189,-0.678 c -0.320754,-0.3729 -0.583189,-0.89754 -0.583189,-1.16587 0,-1.18342 15.0092421,-24.05475 31.5656021,-48.10019 2.59364,-3.76684 11.87401,-16.23462 12.156023,-16.33109 0.115815,-0.0396 1.34389,1.20528 2.729057,2.76645 1.385165,1.56116 3.037023,3.31646 3.670795,3.90065 l 1.152313,1.06216 -2.971713,4.17139 c -1.634442,2.29426 -4.192335,5.91513 -5.684207,8.04638 -1.49187,2.13125 -4.13035,5.84375 -5.863285,8.25 -3.275095,4.5476 -10.4248,15.02376 -13.866705,20.3183 -1.092916,1.68119 -3.531823,5.38267 -5.419793,8.22551 -1.88797,2.84284 -4.691364,7.17409 -6.229764,9.625 -3.592082,5.72274 -3.455257,5.57169 -4.613323,5.09269 z m 6.733228,-10.55714 c 1.395104,-1.88881 2.391772,-3.49686 2.391772,-3.85894 0,-0.25635 -0.404089,-1.05281 -0.897975,-1.76991 -0.799544,-1.1609 -0.974778,-1.28846 -1.598637,-1.16368 -0.650322,0.13006 -0.713426,0.0709 -0.87833,-0.82335 -0.251956,-1.36634 -1.466294,-2.35893 -2.601796,-2.12669 -0.705594,0.14431 -1.015178,0.47126 -2.051462,2.16658 l -1.220464,1.99663 0.371925,2.375 c 0.204559,1.30625 0.430516,2.72016 0.502127,3.14202 l 0.130202,0.76701 2.897011,-0.31265 c 1.593355,-0.17196 2.923388,-0.34837 2.955627,-0.39202 z m 6.570887,-11.15815 c 0.619598,-0.13192 1.064189,-0.54095 1.9375,-1.78253 0.641879,-0.91255 1.130697,-1.88829 1.127187,-2.25 -0.0034,-0.35127 -0.393568,-1.1666 -0.867021,-1.81183 -0.699077,-0.95273 -0.991502,-1.16411 -1.556302,-1.125 -0.611711,0.0423 -0.7048,-0.0482 -0.772862,-0.75152 -0.0893,-0.92279 -1.617133,-2.44808 -2.220316,-2.21662 -0.202507,0.0777 -0.573302,0.14129 -0.823988,0.14129 -0.305874,0 -0.846691,0.66677 -1.644217,2.02713 l -1.188423,2.02713 0.311921,2.41037 c 0.171557,1.32571 0.374859,2.73295 0.451782,3.12722 l 0.139861,0.71684 2.150381,-0.17064 c 1.18271,-0.0939 2.512234,-0.24767 2.954497,-0.34184 z m 5.999425,-11.32941 2.44646,-0.28321 1.1875,-1.65197 c 0.692915,-0.96393 1.1875,-1.92429 1.1875,-2.30584 0,-0.36467 -0.39438,-1.17038 -0.89168,-1.82167 -0.721035,-0.94432 -1.020058,-1.15453 -1.5625,-1.09845 -0.58548,0.0605 -0.680443,-0.0294 -0.74645,-0.70684 -0.04711,-0.48343 -0.388415,-1.07935 -0.9049,-1.57995 -0.728835,-0.70641 -0.93894,-0.78318 -1.734803,-0.63388 -0.798457,0.1498 -1.043264,0.39574 -2.070315,2.07995 l -1.164782,1.91006 0.307331,2.5 c 0.445105,3.62074 0.513371,3.875 1.040388,3.875 0.252885,0 1.560696,-0.12744 2.906251,-0.2832 z m 8.566037,-11.16894 1.619575,-0.17286 1.192925,-1.59932 c 1.471515,-1.97283 1.522948,-2.68398 0.31334,-4.3326 -0.783395,-1.06773 -0.927552,-1.15898 -1.49195,-0.94439 -0.590325,0.22444 -0.633632,0.18206 -0.785687,-0.76884 -0.266403,-1.66599 -2.270705,-2.79711 -3.39744,-1.91735 -0.220123,0.17188 -0.872058,1.09295 -1.448745,2.04683 l -1.048525,1.73432 0.45417,3.21452 0.454167,3.21452 1.259298,-0.15099 c 0.692612,-0.083 1.988105,-0.22877 2.878872,-0.32384 z m 8.54339,-11.71234 c 1.08664,-0.13401 1.238418,-0.2483 2.3125,-1.74136 1.39604,-1.94061 1.452678,-2.64946 0.338048,-4.2308 -0.705285,-1.0006 -0.901343,-1.13329 -1.498105,-1.01394 -0.63154,0.12631 -0.699495,0.0627 -0.847093,-0.79355 -0.230375,-1.33638 -1.516792,-2.38978 -2.65715,-2.17585 -0.72416,0.13586 -1.001915,0.42942 -2.030925,2.1465 l -1.192035,1.98912 0.451235,3.14378 0.451238,3.14379 1.75466,-0.16213 c 0.965062,-0.0892 2.277995,-0.22668 2.917627,-0.30556 z"
       id="path1168"
       inkscape:connector-curvature="0"
       transform="matrix(25.75402,0,0,24.121361,-1944.0689,-4343.6549)" />
    <path
       style="opacity:1;fill:#ffe6d5;fill-opacity:1;stroke:#1a1a1a;stroke-width:0.0668216;stroke-miterlimit:4;stroke-dasharray:none;stroke-opacity:1"
       d="m 69.057365,192.28513 c -0.964809,-0.40603 -0.998824,-0.43043 -2.235077,-1.60289 -1.033831,-0.98048 -1.391881,-1.26124 -2.028997,-1.59099 -0.580428,-0.30041 -1.055019,-0.65426 -1.900329,-1.41687 -0.930448,-0.83942 -1.896142,-1.92169 -5.544293,-6.21355 -2.671877,-3.14332 -4.738262,-5.6582 -5.229042,-6.36396 -0.446292,-0.64178 -1.216275,-1.70577 -1.711073,-2.36442 -0.785667,-1.04583 -0.928116,-1.29059 -1.124484,-1.93206 l -0.224851,-0.73452 0.269029,0.0538 c 0.147966,0.0296 0.400909,0.0538 0.562096,0.0538 0.225659,0 0.443041,0.12065 0.945102,0.52454 0.820028,0.65968 2.272551,2.03084 2.631656,2.48425 l 0.27262,0.34421 -0.447087,0.59059 c -0.245897,0.32482 -0.447086,0.62062 -0.447086,0.65733 0,0.0367 0.290724,0.41859 0.646053,0.84861 0.355329,0.43002 1.119494,1.37847 1.698145,2.10768 3.553676,4.47827 7.602847,8.96486 9.344193,10.35362 0.570677,0.45513 1.063176,0.8275 1.094438,0.8275 0.03126,0 0.363696,-0.32727 0.738738,-0.72727 l 0.681894,-0.72727 0.492147,0.76288 c 0.270681,0.4196 0.629818,0.91591 0.798082,1.10293 0.692868,0.7701 1.286551,1.71298 1.520059,2.41414 0.12953,0.38894 0.222522,0.76411 0.206648,0.83369 -0.02228,0.0977 -0.252303,0.0325 -1.008581,-0.28578 z"
       id="path1170"
       inkscape:connector-curvature="0"
       transform="matrix(25.75402,0,0,24.121361,-1944.0689,-4343.6549)" />
    <path
       style="opacity:1;fill:#ffe6d5;fill-opacity:1;stroke:#1a1a1a;stroke-width:0.0668216;stroke-miterlimit:4;stroke-dasharray:none;stroke-opacity:1"
       d="m 68.833664,179.3406 c -0.174932,-0.14811 -7.925357,-9.2774 -8.548941,-10.06988 -0.130014,-0.16522 -0.133119,-0.16106 2.685274,-3.60504 0.735986,-0.89935 2.122209,-2.64944 3.080495,-3.88909 0.958286,-1.23965 1.769997,-2.26317 1.803804,-2.2745 0.03381,-0.0113 0.300115,0.34486 0.591796,0.79152 0.670136,1.0262 3.185067,4.66099 5.50368,7.95438 l 1.786885,2.53811 -3.291729,4.37299 c -1.810451,2.40514 -3.311617,4.37393 -3.335923,4.37509 -0.02431,0.001 -0.148211,-0.0859 -0.275341,-0.19358 z"
       id="path1172"
       inkscape:connector-curvature="0"
       transform="matrix(25.75402,0,0,24.121361,-1944.0689,-4343.6549)" />
    <path
       style="opacity:1;fill:#ffe6d5;fill-opacity:1;stroke:#1a1a1a;stroke-width:0.0668216;stroke-miterlimit:4;stroke-dasharray:none;stroke-opacity:1"
       d="m 76.880803,158.62432 c -2.107712,-3.10055 -3.831383,-5.69815 -3.83038,-5.77245 0.0018,-0.13337 3.365125,-4.43834 8.19718,-10.49219 l 2.481745,-3.10925 0.922176,1.38568 c 1.097137,1.64859 2.006944,2.96389 4.766031,6.89026 l 2.066882,2.94131 -0.468691,0.63841 c -2.459483,3.35015 -5.162477,6.85769 -7.439621,9.65404 -1.504324,1.84731 -2.763931,3.39088 -2.799126,3.43016 -0.0352,0.0393 -1.788483,-2.46541 -3.896196,-5.56597 z"
       id="path1174"
       inkscape:connector-curvature="0"
       transform="matrix(25.75402,0,0,24.121361,-1944.0689,-4343.6549)" />
    <path
       style="opacity:1;fill:#ffe6d5;fill-opacity:1;stroke:#1a1a1a;stroke-width:0.18900001;stroke-miterlimit:4;stroke-dasharray:none;stroke-opacity:1"
       d="m 109.01727,119.16873 c -1.99372,-2.95164 -3.65102,-5.45105 -3.68289,-5.55425 -0.0692,-0.22426 13.19738,-15.378098 13.55785,-15.486491 0.1375,-0.04135 0.55816,0.412609 0.9348,1.008789 0.37664,0.59618 2.08776,3.092232 3.80249,5.546792 l 3.11769,4.46282 -1.05249,1.1476 c -0.57887,0.63119 -2.86822,3.11304 -5.08745,5.51523 -2.21923,2.40219 -4.85035,5.352 -5.84695,6.55513 -0.9966,1.20312 -1.88086,2.18378 -1.96504,2.17924 -0.0842,-0.005 -1.78428,-2.42323 -3.77801,-5.37486 z"
       id="path1176"
       inkscape:connector-curvature="0"
       transform="matrix(25.75402,0,0,24.121361,-1944.0689,-4343.6549)" />
    <path
       style="opacity:1;fill:#ffe6d5;fill-opacity:1;stroke:#1a1a1a;stroke-width:0.18900001;stroke-miterlimit:4;stroke-dasharray:none;stroke-opacity:1"
       d="m 128.51723,97.40178 c -1.99375,-2.959601 -3.66173,-5.484277 -3.70663,-5.610391 -0.10432,-0.29306 10.93687,-12.28931 11.21888,-12.189308 0.11597,0.04112 1.26159,1.593514 2.54583,3.449764 1.28425,1.85625 2.98221,4.296054 3.77326,5.421786 l 1.43826,2.046785 -2.82808,2.953215 c -1.55544,1.624268 -4.10093,4.387589 -5.65664,6.140714 -1.55571,1.753125 -2.90311,3.183235 -2.99422,3.178015 -0.0911,-0.005 -1.79691,-2.43098 -3.79066,-5.39058 z"
       id="path1178"
       inkscape:connector-curvature="0"
       transform="matrix(25.75402,0,0,24.121361,-1944.0689,-4343.6549)" />
    <path
       style="opacity:1;fill:#ffe6d5;fill-opacity:1;stroke:#1a1a1a;stroke-width:0.18900001;stroke-miterlimit:4;stroke-dasharray:none;stroke-opacity:1"
       d="m 92.796541,138.40495 -3.825328,-5.6469 0.485496,-0.5406 c 0.267023,-0.29733 2.708908,-3.16301 5.426411,-6.36818 4.413979,-5.20608 4.973632,-5.77931 5.24769,-5.375 0.16873,0.24892 1.88762,2.72122 3.81975,5.494 l 3.51297,5.04143 -2.16065,2.72298 c -2.03301,2.56212 -8.520675,10.31917 -8.630519,10.31917 -0.02777,0 -1.77189,-2.54111 -3.87582,-5.6469 z"
       id="path1180"
       inkscape:connector-curvature="0"
       transform="matrix(25.75402,0,0,24.121361,-1944.0689,-4343.6549)" />
    <path
       style="opacity:1;fill:#ffe6d5;fill-opacity:1;stroke:#1a1a1a;stroke-width:0.18900001;stroke-miterlimit:4;stroke-dasharray:none;stroke-opacity:1"
       d="m 145.66008,78.912119 c -2.08673,-3.065402 -3.77149,-5.666117 -3.74391,-5.779366 0.0704,-0.289238 11.26412,-11.830908 11.47419,-11.830908 0.0946,0 0.35485,0.309375 0.57842,0.6875 0.22356,0.378125 1.934,2.8776 3.80098,5.554389 l 3.3945,4.866889 -3.31204,3.383111 c -1.82162,1.860711 -4.4564,4.577576 -5.85506,6.037477 l -2.54303,2.654366 z"
       id="path1182"
       inkscape:connector-curvature="0"
       transform="matrix(25.75402,0,0,24.121361,-1944.0689,-4343.6549)" />
    <path
       style="opacity:1;fill:#ffe6d5;fill-opacity:1;stroke:#1a1a1a;stroke-width:0.18900001;stroke-miterlimit:4;stroke-dasharray:none;stroke-opacity:1"
       d="m 165.3672,64.01431 c -0.88668,-1.285606 -2.60934,-3.795748 -3.82814,-5.578095 l -2.216,-3.24063 7.48602,-7.345745 c 6.98405,-6.853181 8.51307,-8.262373 8.70125,-8.01936 0.041,0.053 1.78697,2.560137 3.87984,5.571414 l 3.80523,5.47505 -0.82515,0.863431 c -0.45383,0.474887 -1.83765,1.71528 -3.07515,2.756429 -1.2375,1.041149 -4.51479,4.134442 -7.28287,6.873985 l -5.03288,4.980986 z"
       id="path1184"
       inkscape:connector-curvature="0"
       transform="matrix(25.75402,0,0,24.121361,-1944.0689,-4343.6549)" />
    <path
       style="opacity:1;fill:#ffe6d5;fill-opacity:1;stroke:#1a1a1a;stroke-width:0.18900001;stroke-miterlimit:4;stroke-dasharray:none;stroke-opacity:1"
       d="m 185.5451,39.519624 c -2.0625,-3.030589 -3.78193,-5.596424 -3.82096,-5.701857 -0.0777,-0.209941 12.11129,-11.511418 13.98411,-12.965868 0.36557,-0.283905 0.84868,0.306529 4.19513,5.127046 2.08009,2.996345 3.78031,5.534162 3.77826,5.639593 -0.004,0.188343 -4.22015,4.144331 -9.63838,9.042888 -1.51149,1.36652 -3.19816,2.908431 -3.74816,3.42647 l -1,0.941889 z"
       id="path1186"
       inkscape:connector-curvature="0"
       transform="matrix(25.75402,0,0,24.121361,-1944.0689,-4343.6549)" />
    <path
       style="opacity:1;fill:#ffe6d5;fill-opacity:1;stroke:#1a1a1a;stroke-width:0.18900001;stroke-miterlimit:4;stroke-dasharray:none;stroke-opacity:1"
       d="m 206.72848,19.947857 -3.77382,-5.57086 1.42022,-1.376682 c 2.07757,-2.013873 5.2202,-4.2767427 6.79522,-4.8929285 6.04043,-2.36316 12.59789,-2.4323931 17.625,-0.1860835 l 1.5,0.670258 -1,0.8830138 c -0.55,0.4856575 -2.18125,1.8534162 -3.625,3.0394652 -2.56973,2.111047 -11.37825,9.638455 -13.8964,11.875301 l -1.2714,1.129375 z"
       id="path1188"
       inkscape:connector-curvature="0"
       transform="matrix(25.75402,0,0,24.121361,-1944.0689,-4343.6549)" />
    <path
       style="opacity:1;fill:#ffe680;fill-opacity:1;stroke:#1a1a1a;stroke-width:0.18900001;stroke-miterlimit:4;stroke-dasharray:none;stroke-opacity:1"
       d="m 47.952544,197.12943 c -0.06676,-0.11142 -0.259787,-1.22467 -0.428952,-2.4739 l -0.307573,-2.27132 1.052288,-1.66618 c 0.578758,-0.9164 1.182827,-1.66368 1.342377,-1.66062 0.714681,0.0137 1.398604,0.91556 1.607256,2.11944 0.119155,0.6875 0.321538,1.2363 0.449739,1.21955 0.128202,-0.0167 0.515362,-0.0965 0.860356,-0.17714 0.516251,-0.12074 0.734554,0.01 1.233514,0.73807 0.591489,0.86322 0.595731,0.90406 0.174196,1.67714 -0.237631,0.43581 -0.736462,1.14692 -1.108514,1.58025 -0.625292,0.72827 -0.83064,0.80032 -2.714883,0.95258 -1.121134,0.0906 -2.093046,0.0735 -2.159804,-0.0379 z"
       id="path856"
       inkscape:connector-curvature="0"
       transform="matrix(25.75402,0,0,24.121361,-1944.0689,-4343.6549)" />
    <path
       style="opacity:1;fill:#ffe6d5;fill-opacity:1;stroke:#1a1a1a;stroke-width:0.18900001;stroke-miterlimit:4;stroke-dasharray:none;stroke-opacity:1"
       d="m 63.450364,185.76201 c -3.849222,-3.92478 -9.532755,-10.89356 -9.218944,-11.30368 0.118461,-0.15481 1.081012,-1.43461 2.139003,-2.84398 1.057992,-1.40938 2.009178,-2.5625 2.113749,-2.5625 0.294701,0 1.66425,1.5185 5.41146,6 1.897016,2.26875 3.9957,4.69063 4.663741,5.38196 l 1.214621,1.25696 -2.00579,2.79491 c -1.103184,1.53721 -2.12104,2.86615 -2.2619,2.9532 -0.140861,0.0871 -1.066034,-0.66753 -2.05594,-1.67687 z"
       id="path858"
       inkscape:connector-curvature="0"
       transform="matrix(25.75402,0,0,24.121361,-1944.0689,-4343.6549)" />
    <path
       style="opacity:1;fill:#ffe680;fill-opacity:1;stroke:#1a1a1a;stroke-width:0.18900001;stroke-miterlimit:4;stroke-dasharray:none;stroke-opacity:1"
       d="m 39.566727,206.6074 -0.329748,-2.49138 0.964288,-1.64843 c 0.711476,-1.21625 1.104369,-1.64842 1.498596,-1.64842 0.7807,0 1.293381,0.71281 1.495485,2.07925 l 0.178115,1.20426 0.906601,-0.1486 c 0.821301,-0.13462 0.959526,-0.0701 1.469102,0.68621 0.309375,0.45915 0.5625,0.91704 0.5625,1.01752 0,0.10049 -0.445269,0.78545 -0.989488,1.52213 -0.929652,1.25842 -1.069491,1.34911 -2.3125,1.49975 -0.727656,0.0882 -1.725805,0.21855 -2.218108,0.28971 l -0.895096,0.12939 z"
       id="path886"
       inkscape:connector-curvature="0"
       transform="matrix(25.75402,0,0,24.121361,-1944.0689,-4343.6549)" />
    <path
       style="opacity:1;fill:#ffe680;fill-opacity:1;stroke:#1a1a1a;stroke-width:0.18900001;stroke-miterlimit:4;stroke-dasharray:none;stroke-opacity:1"
       d="m 32.056266,219.90704 c -0.003,-0.11708 -0.159203,-1.22537 -0.347186,-2.46287 l -0.341787,-2.25 1.034686,-1.68536 c 0.610648,-0.99466 1.206548,-1.68624 1.454042,-1.6875 0.636447,-0.003 1.378354,1.11103 1.563997,2.34898 l 0.166003,1.10699 0.800322,-0.23177 c 0.727209,-0.2106 0.862516,-0.15729 1.481098,0.58344 0.374426,0.44837 0.683801,0.90442 0.6875,1.01345 0.0128,0.37718 -2.040445,2.90799 -2.453549,3.02421 -0.903022,0.25407 -4.04005,0.44052 -4.045126,0.24043 z"
       id="path888"
       inkscape:connector-curvature="0"
       transform="matrix(25.75402,0,0,24.121361,-1944.0689,-4343.6549)" />
    <path
       style="opacity:1;fill:#ffe680;fill-opacity:1;stroke:#1a1a1a;stroke-width:0.18900001;stroke-miterlimit:4;stroke-dasharray:none;stroke-opacity:1"
       d="m 24.306266,231.38167 c -0.003,-0.10313 -0.158166,-1.2 -0.344881,-2.4375 l -0.339483,-2.25 1.089839,-1.6875 c 0.599412,-0.92813 1.252693,-1.6875 1.451737,-1.6875 0.588913,0 1.328146,1.16151 1.509681,2.37207 0.09303,0.62036 0.191118,1.12793 0.217976,1.12793 0.02686,0 0.41674,-0.10552 0.866407,-0.23448 0.772804,-0.22164 0.852598,-0.18155 1.457158,0.732 l 0.639584,0.96648 -1.046701,1.48422 -1.046702,1.48422 -1.662107,0.157 c -2.181456,0.20606 -2.785966,0.20023 -2.792508,-0.0269 z"
       id="path890"
       inkscape:connector-curvature="0"
       transform="matrix(25.75402,0,0,24.121361,-1944.0689,-4343.6549)" />
    <path
       style="opacity:1;fill:#ffe680;fill-opacity:1;stroke:#1a1a1a;stroke-width:0.18900001;stroke-miterlimit:4;stroke-dasharray:none;stroke-opacity:1"
       d="m 16.968257,242.44923 c -0.06533,-0.27778 -0.246832,-1.3726 -0.403336,-2.43292 l -0.284552,-1.92787 0.953149,-1.61955 c 0.524231,-0.89076 1.129317,-1.66665 1.344634,-1.7242 0.652424,-0.17439 1.457162,0.69663 1.62744,1.76149 0.226227,1.41475 0.379166,1.58081 1.241133,1.34761 0.645633,-0.17467 0.811633,-0.10378 1.302441,0.55617 0.309375,0.41599 0.5625,0.90998 0.5625,1.09776 0,0.18778 -0.421875,0.93926 -0.9375,1.66996 l -0.9375,1.32855 -2.174813,0.22403 c -2.070247,0.21327 -2.180524,0.19976 -2.293596,-0.28103 z"
       id="path892"
       inkscape:connector-curvature="0"
       transform="matrix(25.75402,0,0,24.121361,-1944.0689,-4343.6549)" />
    <path
       style="opacity:1;fill:#ffe680;fill-opacity:1;stroke:#1a1a1a;stroke-width:0.18900001;stroke-miterlimit:4;stroke-dasharray:none;stroke-opacity:1"
       d="m 74.061666,166.76105 c -4.615934,-6.60922 -5.502287,-7.98597 -5.326004,-8.27271 0.359795,-0.58524 3.357546,-4.40916 3.549602,-4.52785 0.108317,-0.0669 1.891516,2.38036 3.962665,5.43845 l 3.765723,5.56017 -1.788493,2.42066 c -0.983671,1.33137 -1.844743,2.4214 -1.913493,2.42229 -0.06875,9e-4 -1.08125,-1.36756 -2.25,-3.04101 z"
       id="path894"
       inkscape:connector-curvature="0"
       transform="matrix(25.75402,0,0,24.121361,-1944.0689,-4343.6549)" />
    <path
       style="opacity:1;fill:#ffe680;fill-opacity:1;stroke:#1a1a1a;stroke-width:0.18900001;stroke-miterlimit:4;stroke-dasharray:none;stroke-opacity:1"
       d="m 66.294646,193.75667 c -0.848638,-0.72188 -2.176353,-1.79529 -2.950479,-2.38537 -0.774126,-0.59009 -2.00678,-1.53158 -2.739231,-2.09221 -0.732452,-0.56063 -2.948363,-2.81859 -4.924246,-5.01769 -2.697595,-3.00235 -3.853823,-4.50064 -4.641496,-6.01465 -0.576939,-1.10895 -1.46609,-2.47444 -1.97589,-3.03443 -1.200448,-1.31862 -1.871338,-3.04577 -1.530902,-3.94118 0.372379,-0.97943 0.699642,-1.03758 0.876028,-0.15565 0.0867,0.43351 0.59035,1.35981 1.119216,2.05844 0.528867,0.69863 1.450649,1.94524 2.048406,2.77024 1.541075,2.12693 7.721807,9.40683 9.832778,11.58141 0.97781,1.00727 2.219581,2.06032 2.759492,2.34011 0.539911,0.27978 1.552411,1.04394 2.25,1.69813 0.697589,0.65418 1.830844,1.43685 2.518344,1.73926 l 1.25,0.54983 -0.701441,0.60813 c -0.385793,0.33447 -0.914327,0.60813 -1.174521,0.60813 -0.260194,0 -1.16742,-0.59063 -2.016058,-1.3125 z"
       id="path896"
       inkscape:connector-curvature="0"
       transform="matrix(25.75402,0,0,24.121361,-1944.0689,-4343.6549)" />
    <path
       style="opacity:1;fill:#ffe680;fill-opacity:1;stroke:#1a1a1a;stroke-width:0.18900001;stroke-miterlimit:4;stroke-dasharray:none;stroke-opacity:1"
       d="m 91.121686,148.2652 c -2.319034,-3.16363 -6.56002,-9.42013 -6.56002,-9.67765 0,-0.30675 3.50322,-4.77335 3.733752,-4.76053 0.17268,0.01 0.133977,-0.0453 4.316249,6.12491 l 3.394338,5.00775 -1.957981,2.31328 -1.957981,2.31327 z"
       id="path898"
       inkscape:connector-curvature="0"
       transform="matrix(25.75402,0,0,24.121361,-1944.0689,-4343.6549)" />
    <path
       style="opacity:1;fill:#ffe680;fill-opacity:1;stroke:#1a1a1a;stroke-width:0.18900001;stroke-miterlimit:4;stroke-dasharray:none;stroke-opacity:1"
       d="m 106.1187,127.25667 c -4.85389,-6.88602 -5.56054,-7.97489 -5.37375,-8.28037 0.3732,-0.61036 3.64868,-4.40699 3.7941,-4.39778 0.0812,0.005 0.69448,0.82078 1.36287,1.8125 0.66839,0.99173 2.33637,3.45543 3.70662,5.47489 l 2.49136,3.67173 -1.92704,2.26577 c -1.05988,1.24617 -1.95959,2.26576 -1.99935,2.26576 -0.0398,0 -0.96444,-1.26563 -2.05481,-2.8125 z"
       id="path900"
       inkscape:connector-curvature="0"
       transform="matrix(25.75402,0,0,24.121361,-1944.0689,-4343.6549)" />
    <path
       style="opacity:1;fill:#ffe680;fill-opacity:1;stroke:#1a1a1a;stroke-width:0.18900001;stroke-miterlimit:4;stroke-dasharray:none;stroke-opacity:1"
       d="m 123.53599,102.74594 -3.90067,-5.613058 2.15358,-2.317276 2.15358,-2.317275 3.69769,5.424102 c 2.03373,2.983257 3.7451,5.558567 3.80304,5.722917 0.058,0.16435 -0.81982,1.29216 -1.95059,2.50624 l -2.05595,2.20741 z"
       id="path902"
       inkscape:connector-curvature="0"
       transform="matrix(25.75402,0,0,24.121361,-1944.0689,-4343.6549)" />
    <path
       style="opacity:1;fill:#ffe680;fill-opacity:1;stroke:#1a1a1a;stroke-width:0.18900001;stroke-miterlimit:4;stroke-dasharray:none;stroke-opacity:1"
       d="m 141.38531,85.256668 c -1.64727,-2.371875 -3.35853,-4.851103 -3.80281,-5.509395 l -0.80778,-1.196896 2.04552,-2.240604 c 1.12504,-1.232333 2.11773,-2.236336 2.20598,-2.231119 0.1574,0.0093 7.32962,10.544182 7.49449,11.008239 0.0896,0.252187 -3.64329,4.482275 -3.95544,4.482275 -0.10172,0 -1.5327,-1.940625 -3.17996,-4.3125 z"
       id="path904"
       inkscape:connector-curvature="0"
       transform="matrix(25.75402,0,0,24.121361,-1944.0689,-4343.6549)" />
    <path
       style="opacity:1;fill:#ffe680;fill-opacity:1;stroke:#1a1a1a;stroke-width:0.18900001;stroke-miterlimit:4;stroke-dasharray:none;stroke-opacity:1"
       d="m 158.76843,67.153498 c -1.71297,-2.452631 -3.46543,-4.975211 -3.89436,-5.605732 l -0.77987,-1.146403 2.23008,-2.21975 c 1.36078,-1.354472 2.31477,-2.125746 2.44735,-1.978597 0.1195,0.132634 1.85827,2.668836 3.86395,5.636004 l 3.64667,5.394852 -2.19967,2.189478 -2.19967,2.189478 z"
       id="path906"
       inkscape:connector-curvature="0"
       transform="matrix(25.75402,0,0,24.121361,-1944.0689,-4343.6549)" />
    <path
       style="opacity:1;fill:#ffe680;fill-opacity:1;stroke:#1a1a1a;stroke-width:0.18900001;stroke-miterlimit:4;stroke-dasharray:none;stroke-opacity:1"
       d="m 181.76584,47.006668 c -1.17794,-1.684375 -2.93272,-4.207607 -3.89952,-5.607184 l -1.75782,-2.544684 2.3668,-2.17671 2.36681,-2.17671 0.42228,0.593584 c 0.23225,0.32647 1.9607,2.85561 3.84099,5.620308 l 3.41871,5.026726 -2.17366,2.163585 c -1.19551,1.189972 -2.23423,2.163585 -2.30828,2.163585 -0.074,0 -1.09838,-1.378125 -2.27631,-3.0625 z"
       id="path908"
       inkscape:connector-curvature="0"
       transform="matrix(25.75402,0,0,24.121361,-1944.0689,-4343.6549)" />
    <path
       style="opacity:1;fill:#ffe680;fill-opacity:1;stroke:#1a1a1a;stroke-width:0.18900001;stroke-miterlimit:4;stroke-dasharray:none;stroke-opacity:1"
       d="m 203.12034,28.766972 c -2.56257,-3.564259 -6.05867,-8.723991 -6.05867,-8.94169 0,-0.114572 1.13248,-1.238114 2.51663,-2.496761 l 2.51663,-2.288448 0.68178,0.952048 c 0.37498,0.523626 2.10214,3.043677 3.83813,5.600114 l 3.15635,4.648066 -2.16726,1.976934 c -1.192,1.087313 -2.35313,2.122195 -2.5803,2.299737 -0.36263,0.283419 -0.59485,0.0699 -1.90329,-1.75 z"
       id="path910"
       inkscape:connector-curvature="0"
       transform="matrix(25.75402,0,0,24.121361,-1944.0689,-4343.6549)" />
  </g>
</svg>
