<?xml version="1.0" encoding="UTF-8"?>
<svg cursor="default" enable-background="new" version="1.1" viewBox="0 0 256 256" xmlns="http://www.w3.org/2000/svg" xmlns:cc="http://creativecommons.org/ns#" xmlns:dc="http://purl.org/dc/elements/1.1/" xmlns:rdf="http://www.w3.org/1999/02/22-rdf-syntax-ns#">
 <metadata>
  <rdf:RDF>
   <cc:Work rdf:about="">
    <dc:format>image/svg+xml</dc:format>
    <dc:type rdf:resource="http://purl.org/dc/dcmitype/StillImage"/>
    <dc:title/>
   </cc:Work>
  </rdf:RDF>
 </metadata>
 <g>
  <g stroke="#000">
   <g fill="#ffe680" stroke-width=".0063605">
    <path d="m9.0422 153.58c-0.58316 0.37228-0.73811 2.5947-0.89207 3.192-0.64121 5.5068 0.54973 11.368 3.9222 15.843 2.2622 2.9876 5.6545 5.2278 9.3988 5.746 2.3105 0.1938 4.6904 0.0284 6.8284-0.93705 4.5683-1.916 8.4953-5.4087 10.814-9.7994 0.0029-0.61203-0.88751-0.29723-1.3232-0.45351-1.3056-0.12643-2.0878-1.3372-3.0366-2.0967-1.612-1.6801-3.5976-2.9806-5.8161-3.7034-3.611-1.2557-7.5969-1.3703-11.312-0.52639-1.9837 0.45278-3.7332 1.5249-5.4337 2.5889-0.22027-0.0393-0.49234-0.14102-0.71026-0.12464-1.2656-2.5686-1.8854-5.3828-2.3915-8.176-0.038217-0.14993 0.10483-1.5871-0.048546-1.5528z"/>
    <path d="m57.956 130.34c-1.914 0.75864-10.189 4.1481-11.95 5.2133-4.7956 3.094-8.579 8.0941-9.8648 13.753-0.63548 2.6228-0.66383 5.3866-0.26575 8.047 0.38765 1.3992 1.5711 3.7805 2.8095 4.6531 0.58402 0.15134-0.26693-1.4452-0.47003-1.7215-2.1849-5.2428-1.1091-11.334 1.7466-16.089 2.7403-4.4903 11.723-9.8795 16.425-12.23 0.39034-0.13179 2.2829-1.5905 1.5697-1.6265z"/>
    <path d="m116.66 123.37c-7.7484 0.55647-15.504 1.0478-23.238 1.7809-0.37138-0.0671-0.86065 0.3555-0.4325 0.64537 1.0268 0.55338 1.828 1.4972 2.0664 2.6583 0.70095 2.7837-0.02509 6.0458-2.3202 7.9264-2.4756 2.1088-5.7545 2.8081-8.8808 3.3248-2.4823 0.36385-5.0799 0.39879-7.4893-0.13747-2.7883-0.75069-5.6491-2.4641-6.5176-5.3859-0.63288-1.8746 0.02752-4.0215 1.4202-5.4133 0.48206-0.80106-0.95127-0.41939-1.3866-0.50176-2.8611-0.03-5.6312 0.83496-8.4098 1.407-1.2309 0.36479-2.5853 0.50749-3.7048 1.1515-0.31491 0.48903-0.83892 1.2039-0.50904 1.0259 2.7863-0.55637 6.8884-1.6068 9.727-1.2628 1.1483 0.22423 1.2008 1.6282 1.4137 2.5428 0.40692 2.5811 2.0391 4.9063 4.3395 6.1455 2.653 1.3933 5.6966 1.797 8.6409 2.0751 2.8773 0.0303 5.8461-0.21233 8.4491-1.5469 3.4605-1.6177 6.1518-4.9431 6.6196-8.7831 0.29627-1.4548-0.09111-3.1728 1.0718-4.3225 1.3899-1.367 3.5165-1.3294 5.325-1.4348 3.6084-0.21711 7.252 0.0203 10.836-0.51301 1.1392-0.26679 3.9118-0.48255 4.9645-1.005 0.26819-0.30906-1.7182-0.4469-1.9853-0.37701z"/>
    <path d="m151.68 115.84c-2.0902 0.38833-4.1651 1.1896-5.8249 2.536-0.31216 0.39888 0.25797 0.68394 0.58537 0.46095 1.8414-0.38435 3.7322-0.58571 5.5542-1.0277 0.39951-0.49024 0.0469-1.2258-3e-3 -1.797-0.0433-0.13155-0.18422-0.18462-0.31137-0.17225z"/>
    <path d="m143.97 119.81c-0.46886 0.022-1.118 0.90624-0.38302 1.0242 0.3875-0.0403 1.0952-0.91668 0.38302-1.0242z"/>
    <path d="m205.86 113.49c-2.0195 0.17667-4.0952 0.2037-6.1335 0.38092-0.42258 0.41246-0.0499 1.1418-0.13071 1.6742 0.14892 0.54195-0.25847 1.8258 0.68704 1.5965 2.0908-0.15626 4.2118-0.14591 6.283-0.34225 0.26952-0.73429 0.0363-1.6839 0.11406-2.499 0.0947-0.6868-0.0463-1.0565-0.81996-0.81039z"/>
    <path d="m242.98 98.673c-0.85188 0.0626-1.8327 0.2804-2.4312 0.86921-0.0707 3.0956-0.16218 6.1909-0.20749 9.287 0.48973 0.56707 1.4399 0.52504 2.1634 0.51536 0.70276-0.0707 1.5245-0.19226 2.0426-0.66684 0.35751-2.6156 0.16229-5.2776-0.0177-7.9008-0.148-0.64114-0.0471-1.4494-0.44278-1.9569-0.36321-0.0891-0.73016-0.16952-1.1068-0.14705z"/>
    <path d="m234.15 99.762c-1.9272 0.06437-3.8774-0.0075-5.7913 0.15895-0.41452 0.66547-0.25981 1.5632-0.38222 2.3199-0.15266 1.6563-0.0404 3.3194 0.10983 4.9585 0.12461 0.47808-0.34264 1.0093-0.10047 1.3901 2.6747 0.22647 5.4186 0.10259 8.1201 0.16119 1.1538-0.0472 2.3527 0.11812 3.4782-0.0619 0.22646-2.9014 0.21616-5.849 0.33121-8.7689-0.42429-0.52358-1.3892-0.08213-2.0256-0.21096-1.2466 0.01772-2.4932 0.03545-3.7398 0.05317z"/>
    <path d="m225.27 98.925c-0.0386 1.2843 0.15694 2.5948 0.11092 3.9032 0.0285 1.8604-0.0328 3.7284-0.166 5.578 0.25342 0.58098 1.1342 0.34451 1.589 0.12791 0.95196-0.5444 0.56557-1.8307 0.53205-2.7125-0.28196-2.0542 0.21209-4.1105 0.0589-6.1607-0.26628-0.91054-1.407-0.82954-2.1249-0.73593z"/>
    <path d="m129.13 98.986c-0.58655 0.01555-1.6664-0.09577-1.6623 0.76394-0.0424 0.68999 0.1016 1.4972-0.20633 2.1105-0.34212 0.0521-0.37919 0.53019-0.79382 0.36248-1.9867-0.0151-4.0088-0.28633-5.9858-0.20209-0.1699 0.46834-0.21232 1.4449 0.17588 1.8135 6.1968 0.2909 12.398 0.4372 18.602 0.45943 10.543 0.1565 21.086-0.0986 31.622-0.46961 12.67-0.41895 25.341-0.92227 38.02-0.84291 2.1331 0.0236 4.2846-0.0606 6.4062 0.0299 1.1526 0.5279 2.4088 0.68045 3.6638 0.64301 1.4844 0.0931 2.9901 0.11741 4.4596 0.37229-0.0275 0.31805 0.32194 0.39208 0.53753 0.37952 0.0467 0.38817 0.64117 0.82123 0.79405 0.26445 0.10382-0.92862 0.10408-1.9217-0.0607-2.824-3.1776-0.11892-6.3943-0.0109-9.587-0.0428-18.694 0.0389-37.388-0.015-56.081 0.13963-0.88801 0.0165-1.776 0.033-2.664 0.0495 0.055-0.2954-0.13814-0.64169-0.46121-0.62086 0.035-0.76361 0.36916-1.5265 0.28616-2.278-0.87077-0.23399-1.851-0.01831-2.7591-0.08102-0.96326 0.06596-1.9767-0.08497-2.9092 0.11463-0.18697 0.65562-0.0669 1.4861-0.28522 2.0811-0.2812-0.0623-0.45685 0.22361-0.43834 0.47125-5.4586 0.0992-10.919 0.0781-16.378 0.11367 0.0415-0.26272-0.16616-0.5247-0.40099-0.55411 0.0209-0.68435 0.5069-1.3814 0.3319-2.0467-0.78319-0.36542-1.7414-0.11915-2.5866-0.206-0.54625-7.49e-4 -1.0925-0.0028-1.6388-5.6e-4z"/>
    <path d="m156.96 99.051c-0.13603 0.6917-0.33619 1.434-0.30926 2.1333 1.2136 0.20201 2.5173 0.0178 3.7646 0.0754 21.131-0.084 42.264-0.0469 63.394-0.2816 0.77972 0.22214 1.0779-0.32575 0.82199-1.0052-0.0213-0.40333-0.17232-0.96369-0.70209-0.82883-16.117-0.17777-32.236-0.10891-48.354-0.15206-6.147-0.0068-12.294-0.01362-18.441-0.02043l-0.10874 0.04956z"/>
    <path d="m134.23 99.066c-0.1765 0.64305-0.43757 1.3287-0.40122 1.9945 1.0912 0.21007 2.2819 0.0107 3.4102 0.0678 4.0729-0.0505 8.1518-3.9e-4 12.221-0.16299 0.45162-0.40875 0.22295-1.1876 0.37439-1.7281-0.39674-0.5484-1.3894-0.11015-2.0215-0.25068h-13.409l-0.10868 0.04968z"/>
    <path d="m122.13 98.988c-0.87446 0.06679-1.8082-0.10624-2.6515 0.15848-0.28422 0.49336 0.34063 1.0633 0.43361 1.5784 0.11407 0.9372 1.184 0.53647 1.8242 0.66787 1.5891 0.0124 3.1953 0.27119 4.7768 0.12279 0.50755-0.37212 0.24801-1.1787 0.33449-1.7312 0.30488-1.0189-0.78507-0.80392-1.4238-0.79802-1.0979 3.4e-4 -2.1959-0.0011-3.2938 0.0016z"/>
    <path d="m104.39 98.244c-1.2527 0.24118-3.4288 0.33525-4.668-0.45754-0.23772-0.28537-0.89468-1.4805-0.77547-0.84617 0.38406 0.92651 1.6482 3.6292 2.5245 4.0995 1.0458-0.37679 2.173-0.64033 3.2658-0.27088 2.5981 0.56524 5.2836 0.22427 7.9196 0.29713 0.7993-0.0983 1.703 0.14828 2.448-0.14762-0.0197-0.61556-0.59415-1.1185-0.89698-1.6457-0.51476-0.58088-1.3166 0.02177-1.9627-0.03151-2.6727 0.38111-5.2888-0.38581-7.8546-0.99711z"/>
    <path d="m98.318 97.74c-0.51144-0.0053-0.98454 0.43069-0.74643 0.9557 0.31274 1.6781 0.65756 3.3774 1.2917 4.9651 0.382 0.64592 1.1877-2e-3 1.7477 0.0359 2.6702-0.38348 5.4667-0.72288 8.0994 0.0252 0.37174 0.25374 0.94116 0.35049 0.98194-0.18999 1.7184-0.15421 3.69 0.31343 5.1905-0.75274 0.33809-0.23717 0.62114-1.0314-0.0303-1.0162-2.9541-0.18897-5.9197 0.0708-8.8713-0.10667-1.2898-0.21491-2.6864-0.69292-3.9492-0.0651-1.2299 0.29223-2.1363-0.894-2.6839-1.8229-0.3893-0.60227-0.40232-1.4063-0.80128-1.9777-0.0679-0.04253-0.14983-0.05557-0.22874-0.05065z"/>
   </g>
   <g stroke-width=".0063605">
    <path d="m80.832 99.791c-5.6097 1.7956-11.201 3.6702-16.788 5.5336-3.2359 2.6269-7.0037 4.6952-11.11 5.5593-0.93584 0.30774-1.9524 0.26485-2.8735 0.58284-4.199 2.1749-8.1158 4.8624-11.937 7.639-8.3151 6.1814-16.008 13.272-22.478 21.382-2.4853 3.1736-4.6419 6.647-6.0684 10.426 0.057277 3.4118 0.4089 6.8581 1.6286 10.07 0.26165 0.5114 0.27603 1.2691 0.77781 1.6019 0.90331-0.10631 1.5786-0.87412 2.4149-1.1916 4.8255-2.4169 10.648-2.2376 15.575-0.30356 2.2088 0.85257 4.1521 2.2684 5.743 4.0113 0.79296 0.80017 1.772 1.7571 3.013 1.4565 0.61877-0.0136 1.0048-0.54885 0.9579-1.1397-0.0099-0.91576 0.1092-2.2075-0.88768-2.671-1.9086-1.1914-3.1645-3.2282-3.597-5.4156-0.30902-1.9413-0.18015-3.9458-0.09381-5.8935 0.52294-4.6114 2.7767-9.0304 6.0974-12.297 5.0478-5.1391 11.904-7.9366 18.762-9.7383 1.8796-0.55133 3.7981-0.85849 5.674-1.3652 0.27356-0.16124 0.25523-0.53467 0.68246-0.38519 3.1278-0.0504 6.1816-0.83555 9.2803-1.1724 6.5555-0.91645 13.125-1.6816 19.725-2.162 10.657-0.87223 21.336-1.6463 32.002-2.2778 0.44591-0.0565 0.8624-4.3e-4 1.256 0.16899 2.742-0.465 5.4678-1.0926 8.2496-1.282 1.8901-0.22387 3.9858 2e-3 5.6952-0.99859 2.3127-1.6825 4.5718-3.6137 7.3866-4.3397 3.8003-1.0326 7.7931-0.97336 11.705-1.2885 18.604-1.001 37.312-0.31375 55.85-2.4728 1.9376-0.27892 3.9189-0.41149 5.8116-0.9162 1.0466-0.5142 0.93025-1.876 0.93923-2.8576-0.10994-1.1056-0.1556-2.392-0.90935-3.2714-1.1142-0.50568-2.4188-0.2698-3.6085-0.40666-1.5571-0.032-3.1544-0.0656-4.5979-0.7389-10.889-0.0684-21.783 0.0399-32.666 0.45247-14.079 0.43873-28.158 1.0866-42.247 0.89047-6.4583-0.0273-12.913-0.26523-19.367-0.4686-0.75735-0.10877-0.54279 0.8942-0.63066 1.3598-0.15208 0.86437 0.47279 1.5794 1.2224 1.9044 1.0631 0.61108 1.9136 1.6531 3.2132 1.7689 2.6717 0.67241 5.4421 0.54638 8.1572 0.82121 1.3791 0.42689 2.5414 1.6302 2.8345 3.053 0.15763 1.144-0.044 2.3792-0.88205 3.2075-1.5121 1.6694-3.9396 1.8003-6.0389 1.7494-4.8896 7.7e-4 -9.7981-0.33533-14.672 0.13444-6.5276 0.3617-13.079 0.15666-19.592-0.35175-2.8707-0.0297-5.802-0.13044-8.6113 0.55341-1.3555 0.50667-2.7888 0.72727-4.2307 0.75151-3.2228 0.47549-6.4446 1.1305-9.7037 1.2163-4.4635 0.18251-8.9308-0.21978-13.304-1.0865 0.08887-0.32248-0.29688-0.63823 0.09056-0.85497 2.2424-2.0398 4.0704-4.4887 6.3343-6.4916 3.4871-2.8902 7.7211-4.7152 11.987-6.1322 1.4767-0.67827 3.0574-1.192 4.7054-1.0979 0.66411 0.1 1.6595 0.0243 1.0815-0.87442-0.48948-1.3994-1.0716-2.7678-1.6181-4.1374-0.07525-0.1148-0.19374-0.22189-0.34054-0.21334z" fill="#9b6b5d"/>
    <path d="m59.15 107.19c-1.4408 0.42436-2.8319 1.0685-4.1572 1.7739-0.47264 0.29693 0.10105 0.88586 0.49692 0.56485 1.3213-0.54552 2.7184-1.0312 3.8907-1.8551 0.20093-0.18893 0.05123-0.52877-0.23037-0.48362z" fill="#ffe680"/>
    <path d="m95.257 97.903c-1.3004 0.09569-2.6088 0.15576-3.8993 0.3207-0.71788 0.3394-1.3085 0.91172-2.0528 1.2097-0.17967 0.53856 0.61978 0.85657 0.87624 1.279 0.83957 0.79894 1.4898 1.7449 2.2278 2.6285 1.1865 0.0276 2.413-0.23675 3.6113-0.32957 0.55566-0.29711-0.14684-1.086 0.09196-1.4226 0.44175 0.0171 0.25975-0.726 0.7308-0.47615 0.63721 0.0954 0.43838-0.73071 0.31062-1.0766-0.26463-0.60381-0.05008-1.4128-0.51019-1.9133-0.41877-0.21872-0.92478-0.21978-1.3864-0.21964z" fill="#9b6b5d"/>
   </g>
   <g fill="#ffb380" stroke-width=".0063605">
    <path d="m94.816 105.1c-0.43437 0.21783-1.5262-0.0632-1.451 0.62824 0.91056 3.2146-0.41087 6.5779-2.5503 9.0026-0.6939 0.89977-1.6469 1.5909-2.2883 2.5231 0.13644 0.57996 0.96388 0.16961 1.3906 0.24368 4.155-0.30543 8.3228 0.464 12.498 0.51445 3.5162 0.0553 7.069 0.1602 10.561-0.13276 0.27076-0.44663-0.47879-0.86313-0.49367-1.3821-0.31681-0.94466 0.15284-2.1233 1.1799-2.3441 1.4655-0.45246 3.2892 0.65259 3.2149 2.2743 0.0567 0.43019-0.48456 1.3036 0.30155 1.1916 4.4747-0.12969 8.9491 0.086 13.423 0.0855 1.9155-0.0454 4.1687-1.1407 4.4547-3.2235 0.18629-1.4942-0.92917-2.9665-2.3131-3.4213-2.8687-0.27556-5.7739-0.2428-8.5842-0.96391-0.56061-0.18678-1.1895-0.2167-1.6408 0.22028-2.1194 1.1442-4.7485-0.22698-5.7412-2.2611-0.34031-0.74616-1.009 0.18005-1.4948 0.32588-1.1861 0.65186-2.5574 0.58772-3.8666 0.55855 0.0944-0.34108-0.19912-1.1772-0.47827-1.1899-0.46126-0.39351-0.97251 1.0537-1.3311 1.2776-1.7116 1.7549-4.2704 2.3648-6.6439 2.1494-3.3146-0.17336-6.6051-2.5947-7.3146-5.949-0.09463-0.41217-0.5633-0.13003-0.83174-0.12772z"/>
    <path d="m97.124 101.74c-0.696 0.1186-0.04385 1.007-0.21567 1.316-0.3784-0.025-0.33062 0.48029-0.47475 0.58912-0.38477-0.0672-3.9666 0.0207-3.6806 0.59075 0.08317 0.41972 0.94489 0.35777 0.94813 0.80429 0.71792 3.4045 6.7671 5.6787 10.16 5.5117 3.0187 0.19442 6.0045-1.7592 6.9999-4.6224 0.13505-0.5001 0.56717-1.227 0.20534-1.6527-0.47004-0.0375-1.5317-0.24565-1.2284 0.58263 0.33646 1.1979-0.78973 2.0395-1.8064 2.3242-2.1058 0.69908-4.6096 1.2444-6.6558 0.0584-1.9147-1.1074-3.2712-3.0629-3.7527-5.1954-0.08271-0.19648-0.27901-0.34125-0.49879-0.30646z"/>
    <path d="m104.51 103.95c-1.5952 0.0787-3.2414 0.146-4.7678 0.63066-0.32994 0.47652 0.45573 0.85825 0.70463 1.1958 1.2143 1.1651 2.9441 1.7723 4.6162 1.4394 1.3724-0.23336 2.9218-0.41338 3.9928-1.3806 0.58013-0.73198-0.26053-1.6719-1.0576-1.6719-1.1499-0.19696-2.3242-0.22174-3.4883-0.21333z"/>
    <path d="m88.745 91.415c-0.77055 0.07842-1.7662 0.03207-2.3184 0.65354 0.07916 0.50504-0.55396 0.3509-0.83606 0.59309-1.1665 0.91302-1.7193 2.3805-2.5345 3.5807-0.7628 1.2416-1.6126 2.746-0.98247 4.2274 0.56687 1.5988 1.4014 3.1823 1.6058 4.8511-0.4112-0.0395-0.41578 0.55379-0.8356 0.42293-1.8695-0.04-3.724 0.41982-5.4729 1.0405-1.9094 1.1436-3.3014 3.4224-2.8544 5.6956 0.50266 3.1985 3.4415 5.6435 6.5462 6.162 1.5593 0.073 3.0961-0.41562 4.6133-0.72709 1.6515-0.46056 2.8759-1.8013 4.0646-2.9646 2.134-2.2165 3.8108-5.3323 3.1266-8.4901-0.61579-3.1696-3.264-5.2986-5.3722-7.5054-1.1053-0.98572-1.7428-2.9255-0.51676-4.0748 1.0167-0.86001 2.4822-0.47129 3.632-0.0964 1.9096 0.64256 3.4864 2.1052 5.4865 2.4827 0.73829 0.07357 1.6728 0.19989 2.2181-0.4136-0.49879-0.86516-1.408-1.5016-2.1735-2.1634-1.4833-1.0958-3.0138-2.3027-4.8086-2.7985-0.84959-0.27378-1.6704-0.5565-2.5875-0.47568zm-7.5003 17.377c1.9031 0.014 3.1687 2.1421 2.6503 3.8825-0.28724 1.4064-1.6051 2.5647-3.0777 2.4202-1.6007 0.11257-2.7563-1.6061-2.5824-3.1059 0.04104-1.6197 1.3004-3.2217 3.0098-3.1967z"/>
    <path d="m74.785 107.62c-4.634 1.613-9.0474 4.218-12.207 8.035-0.88546 1.0932-2.0633 1.974-2.799 3.1792 0.04959 0.59849 0.95178 0.39972 1.3661 0.56647 5.0982 0.74825 10.304 1.008 15.415 0.22488 0.8386-0.1653 1.7722-0.13965 2.5281-0.54371-0.04698-0.55189-0.87297-0.57499-1.245-0.92289-2.6205-1.5526-4.6055-4.6946-3.8893-7.8056 0.19674-0.89591 0.63136-1.7056 1.1213-2.4722 0.01192-0.158-0.14064-0.2797-0.28989-0.26119z"/>
    <path d="m81.017 109.43c-1.5738 0.21837-2.5357 2.1004-2.0741 3.5485 0.50856 0.27093 0.94577-0.4744 1.3855-0.66343 0.79623-0.62714 1.6696-1.1857 2.3674-1.9218 0.03503-0.61157-0.80254-0.76788-1.2674-0.92266-0.13492-0.0288-0.27321-0.0492-0.4115-0.0406z"/>
    <path d="m82.929 111.19c-1.0833 0.86954-2.3549 1.5541-3.312 2.5591-0.0417 0.61961 0.86898 0.7168 1.3386 0.74037 1.6008 0.0394 2.7989-1.852 2.2472-3.2971-0.09038 8e-3 -0.19204-0.0948-0.27379-2e-3z"/>
    <path d="m131.29 76.438-18.931 14.169c-0.15429 1.2327 0.0776 2.5554 0.34981 3.7861 0.47143 2.1051 1.6564 3.9268 2.7965 5.7192 0.55538 0.85928 0.66343 1.9892 0.0641 2.8589-0.55637 0.67374 0.5411 1.0139 0.66268 1.6419 0.34917 0.42961-0.22052 1.7889 0.21609 2.1268 0.56246 0.0528 1.0131-1.3647 1.3239-1.7183 0.0157-0.55929 0.92245-0.30331 0.67799 0.0824-0.30757 0.79512-0.97214 1.3966-1.3481 2.1278 0.72983 1.6423 2.4296 3.2415 4.3619 2.7729 0.38725-0.0398 1.2164-0.36618 0.78915-0.85521-0.83696-0.75396-2.1035-1.142-2.578-2.2304-0.21675-1.9742 0.50825-4.0441-0.35291-5.939-1.0538-2.585-2.7587-4.8499-3.7205-7.4758 0.4078-0.02124 0.23284-0.48169 0.35992-0.66217 4.7067-1.8738 9.0201-4.8117 12.26-8.7302 0.93851-1.2003 2.5097-3.1252 3.0742-4.5511-0.16695-0.61151-1.3634 0.76705-1.6204 0.97393-3.4735 3.0255-6.7119 6.4242-10.776 8.6732-1.7057 0.99207-3.4858 1.8565-5.3149 2.577-0.18207-0.32655-0.33643-0.71831 0.17746-0.76116 4.4597-1.8333 8.5606-4.5099 12.031-7.859 2.0412-1.9272 4.1451-3.8026 6.494-5.3555 0.59296-0.36155-0.14924-0.87162-0.44941-1.1324-0.15091-0.11977-0.33234-0.37186-0.54841-0.23885z"/>
    <path d="m114.25 114.7c-0.77554-0.0751-1.5998 0.83023-1.0907 1.5388 0.67673 0.14736 1.3915-0.26431 2.0631-0.39282 0.35809-2e-3 0.91251-0.40275 0.43973-0.69439-0.41631-0.27476-0.90575-0.47196-1.4121-0.45164z"/>
    <path d="m115.77 116.44c-0.62347 0.12771-1.3798 0.15756-1.8607 0.60896-0.13824 0.61407 0.82011 0.72213 1.2525 0.63346 0.44125-0.15264 1.1896-0.54858 1.0193-1.1028-0.0924-0.13012-0.26457-0.14885-0.41103-0.13957z"/>
    <path d="m114.18 103.89c-0.41388-0.0846-0.83012 0.30698-0.49039 0.67991 0.49566 0.78002 0.9138 1.7 1.638 2.2818 0.62267-0.0766 0.49147-0.98105 0.48549-1.438-0.10787-0.77566-0.81096-1.5527-1.6332-1.5237z"/>
    <path d="m112.92 105.09c-0.46767 0.39735-0.26088 1.205-0.0602 1.7153 0.26118 0.59677 1.0353 1.2365 1.6857 0.88648 0.29176-0.50326-0.38402-0.98189-0.55434-1.4222-0.33716-0.35088-0.53749-1.125-1.0711-1.1796z"/>
    <path d="m112 107.26c-0.44702 0.16537-0.97595 1.2062-0.30526 1.1435 0.51453 0.14568 1.7774-0.13102 1.0338-0.64314-0.21885-0.17357-0.86405-1.479-1.1847-1.4507z"/>
    <path d="m196.26 113.96c-13.178 0.43557-26.38 0.34666-39.537 1.3016-1.2975 0.14087-2.6357 0.11933-3.9048 0.42116-0.30542 0.53649 0.0548 1.2495 0.0168 1.8376 0.3699 0.44398 1.1389 0.0845 1.6676 0.17282 14.621-0.52575 29.238-1.1701 43.86-1.6406 0.91179 0.1442 0.44311-1.0311 0.55411-1.563 0.19868-0.96019-1.0092-0.4923-1.5512-0.56511-0.36847 0.0118-0.73693 0.0237-1.1054 0.0355z"/>
    <path d="m225.17 111.55c-2.5113-7e-3 -4.954 0.68776-7.4492 0.88998-3.3706 0.40339-6.7554 0.73576-10.149 0.94834-0.44334 0.40309-0.20813 1.2868-0.24134 1.8542 0.62269 0.3 1.499 0.0389 2.2176 0.12121 7.5723-0.0584 15.149-9e-5 22.718-0.18027 0.43882-0.32372 0.10487-1.0163 0.16595-1.4831-0.12962-0.6429 0.0462-1.4525-0.35711-1.9926-2.2838-0.20887-4.6096-0.12641-6.9053-0.15779z"/>
    <path d="m89.129 95.054c-0.69132 0.73983-0.95276 1.8267-1.4562 2.7025-0.30433 0.5001 0.65809 1.3284 1.1192 1.4538 1.4981-0.18702 2.4882-1.7812 2.9227-3.1728-0.72432-0.5105-1.7004-0.87896-2.5857-0.98358z"/>
    <path d="m92.835 88.654c-0.66314 0.55559-0.83117 1.5496-1.2709 2.2783 0.08792 0.5656 0.94157 0.60208 1.3804 0.90352 0.38139 0.2195 0.93504 0.36952 1.1178-0.18089 0.34796-0.55618 0.86996-1.0399 1.0881-1.6532-0.65517-0.53838-1.4426-0.98837-2.223-1.3491z"/>
    <path d="m93.671 77.315c-0.57492 0.40401-0.74954 2.2204-1.0118 2.8229-0.58918 2.7006-1.9435 5.2049-3.8835 7.1665-0.85705 1.0129-1.9352 1.9911-2.2934 3.3083-0.07739 0.4983 0.50725 0.5031 0.80969 0.31603 1.0641-0.22507 2.2133-0.23251 3.2824-0.02404 0.69936-0.47972 0.88879-1.4384 1.3064-2.1464 0.27548-0.35693 0.22956-0.82651-0.20937-1.0254-0.27662-0.26657-0.7999-0.46238-0.9362-0.7581 0.27276-0.24854-0.15848-0.81585 0.37485-0.7343 0.5579-0.07505 1.2754 0.04521 1.5608-0.58608 1.4953-2.0261 1.4766-4.7179 1.1283-7.1002-0.03645-0.16796 0.074-1.277-0.12808-1.2392z"/>
    <path d="m94.706 76.998c-0.48123 0.04001-1.1983 0.38471-1.1402 0.93946 0.25758 0.48595 0.95798-0.17511 1.1652 0.39026 0.5305 0.60982 1.4828-0.26841 0.93853-0.84213-0.20485-0.32259-0.58353-0.50974-0.9635-0.48759z"/>
    <path d="m98.106 79.28c-0.83332-0.10677-0.58681 0.62687-0.1791 1.0115 0.93819 1.198-0.19155 3.0684-1.6618 2.8983-0.62739-0.26439-0.97853 0.14045-0.82649 0.75927-0.03579 1.1039-1.3589 1.3164-1.8848 2.0776-0.07482 0.53387 0.66751 0.33408 0.93853 0.59169 0.93276 0.36667 1.7551 0.94866 2.6009 1.4607 0.57049-0.10008 0.2391-0.92502 0.30597-1.3277-0.07415-0.7161-0.18485-1.633 0.58355-2.0285 0.96919-0.7042 2.5266-0.98261 2.8403-2.3133 0.37912-1.173-0.40945-2.3506-1.4751-2.8158-0.38352-0.19175-0.8083-0.33254-1.242-0.3137z"/>
    <path d="m92.634 86.809c-0.62324 0.15187-0.10338 0.79839 0.25558 0.92592 1.7684 1.174 4.7102 3.012 6.5987 3.9781 0.48126 0.09099 0.72682-0.40991 0.38679-0.58667-1.657-1.537-4.9143-4.0332-7.2411-4.3173z"/>
    <path d="m96.351 79.985c-0.85946 0.11714-1.2989 1.2505-1.0559 2.0026 0.5379 0.7711 1.9641 0.76473 2.2178-0.25161 0.27063-0.77062-0.3313-1.7301-1.1619-1.751z"/>
   </g>
   <g fill="#ffd42a">
    <g stroke-width=".0020234">
     <path d="m81.9 126.27c-0.57142-0.0229-0.93056 0.48847-1.3003 0.84143-0.94266 1.0025-1.6898 2.2554-1.8845 3.634-0.06376 0.66126-0.05249 1.3424 0.18749 1.9706 0.22344 0.70954 0.51802 1.5204 0.16617 2.2448-0.26542 0.5996-0.91271 0.92668-1.5464 0.95219-0.35017 0.0262-0.27585 0.4437-0.23908 0.6915 0.1238 0.66662 0.88741 1.0959 1.5212 0.85723 0.81347-0.29655 1.2295-1.1878 1.311-2.0006 0.17045-1.6958-0.42062-3.3817-0.11561-5.062 0.21548-1.3229 0.87357-2.5756 1.8483-3.4734 0.14375-0.15528 0.42828-0.34355 0.25438-0.58079-0.06275-0.0431-0.12261-0.0852-0.20248-0.0749z"/>
     <path d="m79.779 126.53c-1.1717 0.13839-2.3458 0.28055-3.5092 0.47343-0.25273 0.12081-0.11613 0.40886 0.04121 0.54381 0.58262 0.6108 0.85658 1.4694 0.8031 2.3059 0.06176 0.34461 0.46233 0.19145 0.70469 0.19782 0.27927 0.0195 0.52358-0.17543 0.5761-0.44852 0.34434-1.0058 0.94365-1.8979 1.6004-2.7239 0.08632-0.15015-0.04296-0.36093-0.21629-0.34846z"/>
     <path d="m151.78 115.77c-2.0045 0.33528-7.5801 3.4656-9.2653 4.6019-0.20065 0.16957 0.35479 0.44889 0.26449 0.71506-0.0478 0.27163 1.9386-1.2359 2.2166-1.3933 1.9498-0.45494 4.9947-1.46 6.967-1.7939 0.22641-0.0163 0.35702-0.25088 0.26982-0.45484-0.0776-0.50658-0.11671-1.0202-0.2157-1.5228-0.0554-0.0854-0.12641-0.16228-0.23693-0.15207z"/>
     <path d="m206.2 113.45c-2.1514 0.14501-4.3157 0.2515-6.4739 0.34022-0.34161 0.0742-0.18177 0.48436-0.20378 0.73139 0.0355 0.82601 0.039 1.6583 0.0945 2.4803 0.0992 0.30882 0.48388 0.13971 0.72638 0.16169 2.0412-0.0971 4.0826-0.19174 6.1239-0.28726 0.34445-0.0821 0.18376-0.50549 0.22288-0.76039-3e-3 -0.83032 0.0273-1.6657 5e-3 -2.4929-0.0383-0.24717-0.3159-0.1923-0.49454-0.1731z"/>
    </g>
    <path d="m129.16 98.876c-0.57933 0.02658-1.6309-0.09969-1.6702 0.73001-0.0269 0.71714 0.0234 1.5148-0.17221 2.1713-0.28623-0.0359-0.5189 0.22744-0.47904 0.50676-2.0804-0.16145-4.1803-0.28516-6.2636-0.2453-0.40266 0.39695-0.0154 1.0891-0.0609 1.5797 0.3886 0.44734 1.1895 0.13541 1.7414 0.27344 16.791 0.80063 33.612 0.49067 50.404-0.11625 9.4285-0.29456 18.855-0.71991 28.29-0.72688 4.7308-0.0137 9.475-0.0979 14.197-0.0486 1.3521 0.55032 2.8032 0.7028 4.2511 0.69765 1.353 0.0715 2.7084 0.11023 4.0497 0.33266-0.16881 0.3247 0.26195 0.56828 0.50298 0.33098 0.0639 0.37225 0.82805 2.4931 0.99065 1.9405 0.11937-0.94093-0.0918-3.5976-0.15928-4.53-0.5185-0.29986-1.2916-0.0424-1.9076-0.12197-22.181 0.13884-44.362 0.19388-66.543 0.26397 0.0389-0.2586-0.11332-0.57347-0.40742-0.56578 0.0339-0.74344 0.38653-1.5179 0.24172-2.249-0.52039-0.39722-1.29-0.12999-1.8989-0.22374-1.2276 0.04631-2.4981-0.10292-3.6979 0.07568-0.22188 0.72026-0.0917 1.6352-0.35345 2.2933-0.32891 0.0135-0.30532 0.4784-0.67645 0.35892-5.368 0.16024-10.74 0.16764-16.111 0.17389 0.0571-0.27303-0.17807-0.50648-0.37109-0.57376 0.0274-0.70255 0.50727-1.4352 0.25768-2.1169-0.63285-0.36709-1.4571-0.12581-2.1579-0.21146-0.66546-5.35e-4 -1.3309-0.0035-1.9964 8.12e-4z" stroke-width=".005723"/>
    <path d="m98.286 97.723c-0.54386-0.06244-0.93679 0.4736-0.71408 0.97295 0.23833 1.5292 0.60251 2.9786 1.0669 4.4532 0.11126 0.44644 0.45406 0.98599 0.9869 0.73514 2.7997-0.50642 5.6936-0.80555 8.5267-0.34514 0.49508 0.0122 0.92013 0.52305 1.3995 0.33749 0.11047-0.25563 0.17063-0.41709 0.49773-0.34652 1.6394-0.0579 3.5077 0.26519 4.904-0.80876 0.27071-0.27314 0.66628-0.95672 4e-3 -0.9574-3.0432-0.22677-6.109 0.0668-9.1556-0.12144-1.2024-0.23965-2.5024-0.67866-3.6796-0.0861-1.2167 0.44488-1.5279-1.0404-2.0982-1.9017-0.45196-0.59028-0.84365-1.0742-1.116-1.7334-0.08271-0.109-0.48566-0.20766-0.62188-0.19826z" stroke-width=".005723"/>
   </g>
   <g fill="#fd5" stroke-width=".0080935">
    <path d="m240.47 106.15c-0.0194 0.89292-0.30211 1.9171 0.0359 2.7788 1.113 0.69143 2.7836 0.63646 3.8174-0.20523 0.57039-0.71254 0.347-1.7964 0.27175-2.6071-1.3406-0.0642-2.8026-0.12937-4.1251 0.0336z"/>
    <path d="m233.95 106.09c-1.8671 0.0439-3.7421 0.0152-5.6039 0.14613-0.45604 0.56815-0.17321 1.4818-0.3466 2.1604 0.50237 0.57433 1.6276 0.1164 2.3627 0.29255 3.0615 0.0193 6.1596 0.16937 9.1981 0.0495 0.17258-0.80717 0.13734-1.8296 9e-3 -2.6652-1.852-0.10303-3.7527 0.0303-5.6196 0.0166z"/>
    <path d="m226.17 104.85c-0.97176-7.2e-4 -0.66791 1.3029-0.85122 1.9258-0.0164 0.67131-0.38209 1.968 0.65549 2.0187 1.0248-0.0734 1.8013-1.1906 1.4541-2.1871-0.0802-0.62632 1e-3 -1.844-0.95011-1.7588-0.10277-2e-3 -0.20553 4.5e-4 -0.30829 1e-3z"/>
   </g>
   <path d="m223.32 109.13c-11.033 0.6103-22.067 1.2386-33.116 1.4975-13.338 0.38033-26.684 0.28308-40.024 0.23701-4.601 1.0283-8.003 4.5578-12.27 6.3262-6.0277 2.6542-12.774 3.0446-19.27 3.653-18.055 1.4168-36.313 0.70715-54.228 3.7527-9.5295 1.665-19.24 4.6645-26.639 11.163-4.6983 4.0516-8.6456 9.4873-9.3684 15.799-0.34035 3.0994 0.20029 6.2703 1.4387 9.1224 0.20846 0.63119 1.1568 0.72784 1.6503 1.1264 2.326 0.99529 3.7308 3.2396 5.7983 4.5838 0.785 0.3252 2.3182 0.3921 2.3624-0.78468 0.07718-1.0338 0.14799-2.427-0.97833-2.9359-2.8203-1.8012-3.8744-5.3782-3.7111-8.5481 0.03078-3.4552 0.78616-6.9102 2.5206-9.931 2.0839-4.0845 5.673-7.2091 9.522-9.591 5.6612-3.3312 12.026-5.1274 18.401-6.502 0.39328-0.23864 0.69518-0.51381 1.214-0.44225 4.7141-0.33361 9.3453-1.3742 14.043-1.8375 7.2402-0.90046 14.515-1.5184 21.792-2.074 8.5543-0.61539 17.109-1.3428 25.677-1.6538 2.2799 0.0702 4.4633-0.77499 6.7294-0.94612 2.3087-0.42446 4.7562-0.0917 6.9922-0.90659 2.1105-1.0406 3.7431-2.856 5.9318-3.777 3.5165-1.7656 7.5471-1.6556 11.367-2.0139 20.634-1.27 41.427-0.23746 61.953-3.1082 1.0253-0.26868 2.5975-0.0837 2.9721-1.3624 0.27304-0.59377-0.12761-1.0071-0.75795-0.84646zm-193.45 51.504c0.0013-0.0888 0.28003-0.18398 0 0z" fill="#784421" stroke-width=".0080935"/>
   <g fill="#ffd42a" stroke-width=".0080935">
    <path d="m33.578 164.17c-0.52168 0.62131-0.3281 1.6008-0.62311 2.3487-1.1178 4.6487-4.6892 8.6766-9.3779 9.9416-1.3736 0.51339-2.8805 0.41284-4.2682 0.80191-0.54033 0.49966 0.49425 0.80633 0.86449 0.85957 2.0718 0.45312 4.2618 0.33706 6.3343-0.0589 4.1082-1.3016 7.8022-3.9096 10.524-7.238 0.72244-1.0363 1.5278-2.0519 2.049-3.2053-0.23727-0.64399-1.1918-0.20356-1.7161-0.49986-1.493-0.57411-2.3623-2.0463-3.6178-2.9531-0.02895 0.15868-0.11802-0.0299-0.1687 3e-3z"/>
    <path d="m116.39 123.4c-7.4444 0.54575-14.901 0.99042-22.329 1.7282-0.35701 0.0555-1.4505 0.0973-1.0617 0.69708 1.5054 0.80544 2.324 2.5025 2.324 4.167 0.31584 3.1815-1.6109 6.2833-4.4392 7.6719-3.1998 1.628-6.8113 2.155-10.35 2.3202-3.6726 0.12251-7.7638-1.014-9.9282-4.1563-1.4747-2.082-1.3067-5.1715 0.61016-6.9181 0.88015-0.92499-0.95458-0.6006-1.4724-0.64508-3.4156 0.0997-6.7376 1.0621-10.033 1.8826-0.47463-0.0338-0.82883 0.72759-0.21998 0.79074 2.5119-0.0949 5.0434-0.82275 7.554-0.36116 1.3676 0.46767 1.1485 2.263 1.5593 3.3912 0.69822 2.9289 3.1167 5.1722 5.9282 6.0856 4.9613 1.6224 10.643 1.9339 15.457-0.34468 3.8527-1.7749 6.5467-5.8023 6.5741-10.063 0.02092-1.2225 0.25268-2.5496 1.3392-3.2942 1.9425-1.3056 4.4161-0.90105 6.6339-1.0916 4.0141-0.19887 8.1893 0.10929 12.029-1.2862 0.41172-0.15799 0.249-0.64033-0.17553-0.57411z"/>
    <path d="m151.67 115.81c-1.9796 0.46463-4.0675 1.0923-5.616 2.4619-0.30721 0.5923 0.59149 0.63467 0.93761 0.43846 1.7214-0.36514 3.5342-0.48845 5.2032-0.97069-0.0912-0.59816 0.0488-1.4351-0.37244-1.9139-0.049-0.0165-0.10123-0.0189-0.15237-0.0157z"/>
   </g>
   <g fill="#f95" stroke-width=".0080935">
    <path d="m74.209 117.54c-3.3341 0.62571-6.7121 1.1057-10.079 1.3867-0.57843 0.0585-0.51534 0.90889 0.08286 0.83072 4.5031 0.53521 9.0902 0.33829 13.568-0.33444 0.60994 8e-3 2.0502-0.40178 0.84334-0.86049-0.84774-0.38227-1.5809-1.0009-2.3982-1.4027l-2.0172 0.38016z"/>
    <path d="m85.89 96.525c-0.6934 0.36016-0.37607 1.411-0.33383 2.0401 0.76333 3.692 4.3017 6.2702 4.4096 10.174 0.24838 3.028-2.1971 5.6658-5.0234 6.3684-2.3426 0.55886-4.789 0.26969-7.1308-0.0852-0.71577-0.12333-1.431-0.34018-2.1592-0.38135-0.48909 0.45685 0.40428 1.0065 0.63381 1.4191 1.7041 1.8072 4.3277 3.0863 6.8349 2.3826 1.8843-0.2621 3.8458-0.75178 5.2163-2.1655 2.6793-2.2672 5.0094-5.5877 4.6199-9.2603-0.36055-3.1842-2.8668-5.4337-5.0078-7.5599-0.83132-0.77329-1.4118-1.7606-1.7811-2.8183-0.06857-0.07842-0.173-0.12727-0.27829-0.11346z"/>
    <path d="m114.77 111.72c-2.4349 0.1529-3.5438 2.6789-5.2834 4.0119-2.4846 1.9199-5.8592 1.2735-8.7028 0.69232-3.2979-0.80307-6.7096-1.3209-10.086-1.3561-0.65566 0.75352-1.6805 1.307-2.1373 2.1834 0.31858 0.5099 1.2085 0.13131 1.7373 0.25496 5.4391-0.1931 10.844 0.7298 16.286 0.51352 2.0601-0.0414 4.1321 0.0218 6.1848-0.13603 0.4769-0.51062-0.41552-1.0866-0.35373-1.6822-0.33236-1.2498 0.90273-2.3105 2.0954-2.1316 1.4898-0.0506 2.8902 1.6247 2.2324 3.0453-0.42722 1.038 1.3665 0.31563 1.9215 0.45516 4.1308-0.19917 8.2899 0.37402 12.422 0.0731 1.618-0.19714 3.4954-1.0243 3.8542-2.7817-0.35407-0.65762-1.195 0.30244-1.7134 0.34126-2.7994 1.2961-5.9341 0.88275-8.8905 0.49451-1.8867-0.17598-4.0346 0.80057-5.7271-0.39442-1.2843-1.0043-1.4511-3.1587-3.2546-3.5278-0.19164-0.0434-0.38879-0.0606-0.58509-0.0555z"/>
    <path d="m116.42 96.171c-0.57964 0.29756 0.12231 1.0633 0.13453 1.5257 0.7745 2.1912 1.1592 4.466 1.5554 6.7328 0.0715 0.36266 0.72009 0.31045 0.30978 0.74102-0.26621 0.77818-1.0196 1.2923-1.2685 2.0538 0.46438 1.407 1.7855 2.6491 3.2858 2.8572 0.6371-0.0188 1.7054 0.0473 1.9178-0.70152-0.5577-0.83336-1.6998-1.1494-2.3668-1.9282-0.69645-0.76912-0.19625-1.9461-0.32289-2.8708 0.13528-1.5613 0.0553-3.1842-0.76266-4.5671-0.72456-1.2981-1.2909-2.7952-2.3722-3.8299-0.0352-0.01155-0.0732-0.01655-0.11019-0.01307z"/>
    <path d="m130.26 80.242c-1.4017 0.7239-2.4233 2.0526-3.6383 3.0473-3.1734 3.0202-6.7292 5.6428-10.715 7.4691-0.61969 0.37136-1.3729 0.59338-1.8977 1.0906 0.15986 0.67442 0.56257 1.4147 1.0841 1.8866 0.75275 0.07006 0.60705-0.99292 1.2911-1.0805 3.8801-1.6037 7.4924-3.9036 10.371-6.9823 1.4704-1.5231 2.9612-3.1511 3.8269-5.099 0.0334-0.18836-0.13414-0.35872-0.32255-0.33175z"/>
    <path d="m98.47 79.45c-0.41189 1.0187 0.06273 2.3629-0.72172 3.2059-0.72384 0.71396-1.033 1.793-1.7114 2.5722-0.26206 0.57903-1.5602 1.4509-0.48456 1.8694 0.59572 0.29242 1.0951 0.91695 1.7602 0.99958 0.37723-0.74766-0.12767-1.7261 0.06445-2.5596 0.36363-1.2475 1.9603-1.3417 2.8159-2.1512 1.3541-1.0288 0.60664-3.2495-0.8459-3.7914-0.26271-0.07454-0.66364-0.53753-0.87702-0.14479z"/>
    <path d="m89.329 95.139c-0.84056 0.22592-0.90632 1.3889-1.3672 1.9997-0.69188 0.70016-0.25991 1.5407 0.51009 1.9032 1.42-0.49215 2.8575-1.5241 3.2195-3.044-0.688-0.42195-1.5378-0.79004-2.3624-0.85893z"/>
    <path d="m106 103.94c-0.76832 0.11451-0.0762 0.85602-0.0484 1.2914 0.14653 0.54857-0.41778 1.5941 0.41966 1.7244 0.95585-0.24402 2.2658-0.38534 2.7678-1.3615 0.31521-1.0341-0.97275-1.4921-1.7764-1.5183-0.45324-0.0471-0.90544-0.142-1.3626-0.13603z"/>
    <path d="m97.238 102.58c-0.2935 0.15205-0.11485 0.53165-0.50847 0.55689-0.22494 0.24468-0.08024 0.68043-0.59757 0.50045-0.73739 0.0508-0.51969 1.0371 0.05257 1.1598 0.32852 1.4373 1.0517 2.8036 2.2114 3.7553 2.8178 2.6245 7.5625 2.7026 10.503 0.25569 1.1724-1.1198 2.2137-2.6342 2.2326-4.3018-0.263-0.4918-1.5128-0.38618-1.2854 0.34482 0.29637 1.089-0.63858 2.0646-1.6582 2.2673-2.3461 0.88761-5.2031 1.3344-7.3894-0.2284-1.5327-0.94272-2.2685-2.6436-3.1533-4.1307-0.09385-0.12059-0.24597-0.23349-0.40749-0.17939z"/>
    <path d="m198.47 113.86c-6.8127 0.3271-13.704 0.35246-20.546 0.54718-8.0573 0.222-16.129 0.37522-24.159 1.1052-0.49577 0.0127-1.27 0.13045-1.044 0.82408 0.10863 0.57714-0.0953 1.7257 0.84662 1.4167 14.703-0.66241 29.417-1.1027 44.121-1.7286 0.81669 0.0808 1.5242-0.20337 1.2201-1.1586-0.0188-0.3394 0.0921-1.0217-0.43778-1.006z"/>
    <path d="m226.75 111.54c-2.1693-0.0707-4.3186 0.18791-6.4405 0.57568-4.2588 0.56867-8.5389 1.0147-12.827 1.2856-0.29023 0.37898-0.56725 2.0608 0.31987 1.9409 7.9008-0.0489 15.807 0.11372 23.704-0.15323 1.1604 0.30421 1.1083-0.71145 0.93143-1.5242-0.15038-0.68355 0.0692-1.6482-0.46332-2.1277-1.7415 1e-3 -3.4831-3e-3 -5.2246 3e-3z"/>
   </g>
   <path d="m198.47 113.86c-6.7946 0.32747-13.608 0.34569-20.41 0.54289-8.1049 0.22315-16.225 0.37525-24.302 1.1099-0.49499 0.0122-1.2629 0.13334-1.0375 0.82366 0.10863 0.57714-0.0953 1.7257 0.84662 1.4167 14.703-0.66241 29.417-1.1027 44.121-1.7286 0.81669 0.0808 1.5242-0.20337 1.2201-1.1586-0.0189-0.33935 0.0923-1.0218-0.43778-1.006z" fill="#ff8080" stroke-width=".0080935"/>
   <path d="m226.74 111.54c-2.1834-0.0724-4.3434 0.19615-6.486 0.5851-4.242 0.56036-8.5042 0.9858-12.775 1.281-0.28892 0.37891-0.56579 2.0567 0.32076 1.9362 7.9008-0.0489 15.807 0.11372 23.704-0.15323 1.1604 0.30421 1.1083-0.71145 0.93143-1.5242-0.15038-0.68355 0.0692-1.6482-0.46332-2.1277-1.7442 1e-3 -3.4884-3e-3 -5.2326 3e-3z" fill="#ff8080" stroke-width=".0080935"/>
  </g>
 </g>
 <g stroke="#000" stroke-width="1px">
  <g fill="none">
   <path d="m81.502 99.21c-5.3051 1.7313-10.603 3.4841-15.894 5.2582-2.0428 0.68498-4.0854 1.3734-6.0947 2.1511-7.6578 2.9637-14.777 7.2044-21.391 12.07-6.6456 4.8885-12.815 10.423-18.404 16.492-5.0956 5.5326-9.8408 11.778-11.472 19.121-0.85542 3.8496-0.80721 7.9092 0.23901 11.711 0.7496 2.7242 2.0171 5.324 3.8417 7.4814 1.8246 2.1573 4.2187 3.8593 6.9137 4.7081 1.8839 0.59331 3.9016 0.76558 5.8557 0.47802 2.6365-0.38798 5.0963-1.5938 7.2898-3.1071 2.5241-1.7415 4.7722-3.9336 6.3337-6.5727 0.77469-1.3093 1.388-2.7826 1.3145-4.3022-0.04191-0.86693-0.30607-1.7088-0.63394-2.5124s-0.72107-1.5797-1.0391-2.3872c-1.2781-3.2452-1.2823-6.9141-0.35851-10.277 1.2661-4.6096 4.2116-8.6552 7.8873-11.711 5.566-4.628 12.838-7.0757 20.077-7.0508 0.25184 8.7e-4 0.50525 5e-3 0.75251 0.0526 0.24726 0.0478 0.49024 0.14216 0.68154 0.30595 0.23055 0.1974 0.37099 0.48253 0.45152 0.77517 0.08053 0.29264 0.10672 0.59693 0.146 0.89789 0.26322 2.0169 1.1602 3.9707 2.6291 5.3777 1.7889 1.7135 4.2619 2.5086 6.6922 2.9876 2.9209 0.57565 5.9508 0.76938 8.8732 0.20134 2.9224-0.56805 5.7387-1.939 7.7379-4.145 2.0405-2.2516 3.1401-5.3305 2.9876-8.3653"/>
   <path d="m96.918 128.85c0.03518-0.88344 0.48674-1.7414 1.195-2.2706 0.71443-0.53374 1.6255-0.71972 2.5096-0.83653 2.3727-0.31348 4.7769-0.23182 7.1703-0.23901 2.0807-6e-3 4.1717-0.0813 6.2142-0.47802 2.2495-0.43694 4.4196-1.2602 6.6922-1.5536 1.0698-0.13811 2.151-0.15713 3.2266-0.23901 4.5029-0.34279 8.8753-1.7837 13.384-2.0316 0.91869-0.0505 1.8413-0.0513 2.7549-0.16044 0.91359-0.10915 1.8279-0.33225 2.6228-0.7956 0.51683-0.30126 0.97114-0.69661 1.434-1.0755 1.4172-1.1601 2.9579-2.1936 4.6607-2.8681 2.2682-0.89845 4.7376-1.13 7.1703-1.3145 20.604-1.5634 41.386-0.41162 61.903-2.8681 1.6392-0.19626 3.2765-0.4156 4.8997-0.71702 0.21407-0.0397 0.42877-0.0812 0.63439-0.15275 0.20562-0.0716 0.40322-0.17487 0.56065-0.32527 0.26116-0.24951 0.39051-0.6056 0.47802-0.95603 0.26281-1.0524 0.22187-2.1648 0-3.2266-0.17314-0.82859-0.45516-1.6344-0.83653-2.3901"/>
   <path d="m223.59 104.35c-1.7016-0.24029-3.4202-0.3602-5.1387-0.35852-0.56058 5.5e-4 -1.1284 0.0132-1.6731-0.1195-0.48984-0.11938-0.94562-0.35301-1.434-0.47802-0.65941-0.16877-1.3511-0.13363-2.0316-0.1195-0.67707 0.0141-1.3544 6e-3 -2.0316 0-21.676-0.19783-43.334 1.3442-65.01 1.434-8.7271 0.0362-17.455-0.16308-26.171-0.59752"/>
   <path d="m133.37 77.58c-1.3444 0.7688-2.6249 1.6492-3.8241 2.6291-1.791 1.4635-3.3939 3.1424-5.1387 4.6607-3.2787 2.8532-7.0584 5.1291-11.114 6.6922"/>
   <path d="m114.25 103.51c-0.50803 4e-3 -0.99637 0.26399-1.3299 0.64723-0.33352 0.38325-0.52019 0.88009-0.58219 1.3843-0.0643 0.52294 3e-3 1.07 0.24782 1.5368 0.24435 0.4668 0.67506 0.8451 1.1862 0.97282 0.32799 0.082 0.67959 0.0597 0.99853-0.0525 0.31894-0.11211 0.60485-0.31245 0.82785-0.56654 0.446-0.50819 0.62669-1.2174 0.56371-1.8906-0.0476-0.50877-0.23185-1.0123-0.56842-1.3968-0.33656-0.38448-0.83268-0.63921-1.3436-0.63478z"/>
   <path d="m112.81 103.87 2.6291 4.0631"/>
   <path d="m111.26 108.65c1.4214 0.24341 2.9235-0.0141 4.1826-0.71703 1.3097-0.73116 2.3458-1.94 2.8681-3.3461"/>
   <path d="m123.09 109.49c-0.59429 0.59691-1.4283 0.94808-2.2706 0.95603-0.5691 5e-3 -1.1356-0.14086-1.6445-0.39577-0.50885-0.25491-0.96089-0.61662-1.3431-1.0383-0.47101-0.51959-0.83872-1.1324-1.0755-1.7926"/>
   <path d="m131.93 78.895c-0.51379 1.1193-1.1137 2.1991-1.7926 3.2266-1.1243 1.7017-2.4637 3.2573-3.9436 4.6607-2.9803 2.8261-6.5417 5.0366-10.397 6.4532"/>
   <path d="m123.09 109.49c-0.41687-0.46489-0.9016-0.86884-1.434-1.195-0.28164-0.17255-0.57655-0.32351-0.85078-0.5076s-0.53068-0.40553-0.70277-0.68745c-0.26554-0.43502-0.30576-0.97324-0.25314-1.4802 0.0526-0.50694 0.18999-1.0017 0.25314-1.5074 0.15987-1.2802-0.16377-2.58-0.67462-3.7648-0.51084-1.1848-1.2052-2.2794-1.835-3.4055-0.67001-1.198-1.2689-2.4358-1.7926-3.7046"/>
   <path d="m131.45 75.907 1.9121 1.6731"/>
   <path d="m131.45 75.907-19.479 14.58"/>
   <path d="m111.98 90.487c-0.13646 2.8956 0.67106 5.8282 2.2706 8.2458 0.36608 0.55331 0.77347 1.0824 1.0755 1.6731 0.20893 0.40856 0.36762 0.85575 0.35851 1.3145-8e-3 0.4113-0.15559 0.8186-0.41258 1.1398s-0.62199 0.55448-1.0215 0.65273"/>
   <path d="m141.85 120.96c0.32729 0.2996 0.77684 0.46148 1.22 0.43933 0.44316-0.0222 0.87431-0.22808 1.1701-0.55883 0.22865-0.25569 0.37463-0.57581 0.59752-0.83653 0.26009-0.30424 0.61556-0.51521 0.9895-0.65799 0.37393-0.14278 0.76867-0.22169 1.1616-0.29805 1.8644-0.36233 3.7374-0.68112 5.6167-0.95603"/>
   <path d="m152.25 115.34 0.35852 2.7486"/>
   <path d="m199.21 113.67 0.11951 3.8241"/>
   <path d="m206.98 113.43v3.7046"/>
   <path d="m199.33 117.49 7.6483-0.35852"/>
   <path d="m152.61 118.09 46.846-1.7926"/>
   <path d="m232.91 115.58-25.813 0.1195"/>
   <path d="m232.56 111.28 0.35851 4.3022"/>
   <path d="m223.23 111.16 9.3213 0.1195"/>
   <path d="m224.79 98.732c0.29098 1.9363 0.41111 3.8983 0.35852 5.8557-0.0365 1.36-0.15634 2.7178-0.35852 4.0631"/>
   <path d="m224.79 108.65c0.24218 0.20641 0.53768 0.34974 0.84971 0.41214s0.63992 0.0438 0.94286-0.0536c0.47078-0.15134 0.87951-0.50204 1.0755-0.95603 0.14417-0.33388 0.17219-0.70765 0.14833-1.0706-0.0239-0.36289-0.0973-0.72045-0.14833-1.0805-0.24658-1.7393 0.0308-3.5038 0.1195-5.2582 0.0162-0.32006 0.0258-0.64378-0.036-0.95823-0.0618-0.31446-0.20143-0.62265-0.44205-0.83433-0.14469-0.12729-0.32107-0.21554-0.50559-0.27114-0.18451-0.0556-0.37739-0.07944-0.56994-0.08737-0.48765-0.02007-0.97927 0.06187-1.4341 0.23901"/>
   <path d="m227.89 99.569 12.309-0.23901"/>
   <path d="m227.54 109.01 12.428 0.11951"/>
   <path d="m240.2 99.33c-0.0213 2.0717-0.0612 4.1432-0.1195 6.2142-0.0337 1.1952-0.0735 2.3903-0.1195 3.5851"/>
   <path d="m239.96 109.13c0.72242 0.4117 1.5589 0.62082 2.3901 0.59752 0.89424-0.0251 1.7792-0.32005 2.5096-0.83653"/>
   <path d="m240.2 99.33c0.64671-0.5238 1.444-0.8595 2.2706-0.95603 0.68344-0.07982 1.3853 0.0028 2.0316 0.23901"/>
   <path d="m244.51 98.613c0.33807 1.6929 0.53813 3.4134 0.59752 5.1387 0.0591 1.7156-0.021 3.436-0.23901 5.1387"/>
   <path d="m224.79 98.732c-22.706-0.06552-45.412-0.10536-68.117-0.1195-12.508-0.0078-25.016-0.0078-37.524 0"/>
   <path d="m113.89 98.613c-2.3441 0.5965-4.8473 0.55478-7.1703-0.1195-0.4506-0.1308-0.89491-0.28495-1.3522-0.38976-0.45734-0.10482-0.93261-0.15959-1.3964-0.08825-0.4686 0.07209-0.90695 0.2693-1.3548 0.42481s-0.92996 0.27108-1.3938 0.17271c-0.31924-0.06771-0.61575-0.23769-0.83653-0.47802-0.21046-0.22909-0.34967-0.51545-0.44984-0.80997-0.10017-0.29452-0.16386-0.59993-0.24181-0.90109-0.07795-0.30116-0.17154-0.60141-0.32594-0.87148-0.1544-0.27007-0.37463-0.51024-0.65546-0.64408-0.26861-0.12801-0.58553-0.15122-0.86992-0.06372-0.28439 0.08751-0.53345 0.28486-0.68363 0.54173"/>
   <path d="m80.785 109.13c-0.46457 0.0806-0.89766 0.31151-1.2445 0.63096-0.34681 0.31945-0.60922 0.72493-0.7871 1.1616-0.25406 0.62367-0.33714 1.3246-0.18131 1.9797 0.15583 0.65515 0.56047 1.2579 1.1373 1.6054 0.59483 0.35827 1.3479 0.42622 2.0094 0.21487 0.66145-0.21135 1.2262-0.69039 1.5758-1.2904 0.37404-0.64211 0.50476-1.4225 0.35851-2.1511-0.13017-0.6485-0.48202-1.2568-1.0036-1.6636-0.52154-0.4068-1.2129-0.60062-1.8645-0.48751z"/>
   <path d="m78.992 113.67 4.4217-3.2266"/>
   <path d="m83.414 105.54c-1.5711-0.38781-3.2556-0.30358-4.7802 0.23901-0.99247 0.35321-1.9208 0.90041-2.6771 1.6337-0.75634 0.73329-1.3369 1.6552-1.625 2.6685-0.37164 1.3069-0.24369 2.7346 0.27129 3.9919s1.4034 2.346 2.4773 3.1783c1.9379 1.502 4.529 2.1635 6.9312 1.6731 2.3337-0.47644 4.3514-1.9622 5.9752-3.7046 1.0162-1.0904 1.9158-2.3044 2.5344-3.6605 0.61865-1.3561 0.94836-2.862 0.81171-4.3463-0.1257-1.3653-0.64166-2.6772-1.3727-3.8371-0.73108-1.1599-1.673-2.1751-2.6904-3.0942-0.4882-0.44098-0.99592-0.86235-1.4461-1.342s-0.84526-1.0249-1.0635-1.6456c-0.11853-0.33716-0.18344-0.6969-0.15368-1.053 0.02977-0.35614 0.15834-0.7087 0.39268-0.97853 0.2935-0.33793 0.73347-0.5247 1.1775-0.58107 0.44402-0.05637 0.89492 0.0071 1.3321 0.10305 0.61636 0.13528 1.2185 0.33547 1.7926 0.59752 0.98693 0.45053 1.8822 1.0789 2.8491 1.5709 0.96692 0.492 2.0518 0.85088 3.1261 0.69971 0.60792-0.08554 1.1919-0.3358 1.6731-0.71703"/>
   <path d="m83.414 105.54c-0.14843-1.0264-0.43039-2.0334-0.83653-2.9876-0.23146-0.54381-0.50297-1.0704-0.71693-1.6214-0.21396-0.55093-0.37067-1.1338-0.35861-1.7247 0.01346-0.65968 0.23694-1.2999 0.53605-1.888 0.29912-0.58813 0.67405-1.1338 1.0175-1.6971 0.38846-0.6372 0.73746-1.2985 1.1468-1.9225 0.40938-0.62397 0.8849-1.2153 1.4823-1.6626 0.81712-0.61187 1.8353-0.92697 2.8549-0.97805 1.0195-0.05107 2.0411 0.15219 3.0008 0.50003 0.70446 0.25532 1.3791 0.5877 2.0316 0.95603 2.0312 1.1466 3.8601 2.6504 5.3777 4.4217"/>
   <path d="m96.081 77.461c-0.12344-0.26756-0.33071-0.49571-0.58524-0.64419-0.25453-0.14847-0.55515-0.2166-0.84881-0.19234-0.42934 0.03546-0.82738 0.26464-1.1259 0.57521-0.29855 0.31057-0.50585 0.69818-0.66664 1.0979-0.33935 0.84352-0.48414 1.7502-0.71703 2.6291-0.52506 1.9815-1.5127 3.8399-2.8681 5.3777-0.58029 0.6584-1.2256 1.2576-1.7973 1.9235-0.57173 0.66584-1.0757 1.4134-1.3098 2.2592-0.19357 0.69952-0.19357 1.4516 0 2.1511"/>
   <path d="m90.704 86.662c1.4347 1.0147 2.9102 1.9718 4.4217 2.8681 2.1619 1.2821 4.3976 2.4398 6.6922 3.4656"/>
   <path d="m101.82 92.996c-1.3862-1.5611-2.9074-3.0023-4.5412-4.3022-0.98379-0.78275-2.0303-1.5257-3.2266-1.9121-1.0757-0.34743-2.2483-0.38931-3.3461-0.1195"/>
   <path d="m92.018 96.223c-0.3011 0.90715-0.89582 1.7143-1.6731 2.2706-0.46656 0.33394-0.99674 0.57864-1.5536 0.71702"/>
   <path d="m88.792 94.669-1.6731 3.4656"/>
   <path d="m97.635 88.336c0.12645-0.42447 0.16734-0.87424 0.1195-1.3145-0.03065-0.2821-0.09715-0.5596-0.12263-0.84221-0.02549-0.28261-7e-3 -0.57844 0.12263-0.83085 0.14237-0.27715 0.40519-0.47483 0.68451-0.61291 0.27931-0.13808 0.58053-0.22548 0.86905-0.34312 0.44771-0.18254 0.86806-0.44111 1.2081-0.78486s0.59736-0.77512 0.704-1.2467c0.15302-0.6767-0.017-1.4078-0.40395-1.9836-0.38699-0.57584-0.97774-1.0001-1.6276-1.243-0.48492-0.18124-1.0075-0.26627-1.5239-0.23075-0.51646 0.03551-1.0262 0.19301-1.4637 0.46976-0.45302 0.28657-0.82519 0.70058-1.0579 1.1835-0.23268 0.48292-0.32454 1.0334-0.25668 1.5651 0.04914 0.38503 0.1791 0.75522 0.24692 1.1374 0.03391 0.19109 0.0522 0.38604 0.03645 0.57948s-0.0665 0.38582-0.16387 0.5537c-0.11538 0.19893-0.29155 0.35638-0.4816 0.48588-0.19005 0.1295-0.39575 0.23399-0.59394 0.35065-0.48983 0.28833-0.93493 0.6525-1.3145 1.0755"/>
   <path d="m96.081 77.461c0.10624 0.23519 0.1167 0.51201 0.0285 0.75455-0.08819 0.24254-0.27402 0.44798-0.50652 0.56-0.29385 0.14157-0.65759 0.12718-0.93933-0.03717-0.28174-0.16435-0.47332-0.47389-0.49472-0.79936"/>
   <path d="m92.616 86.304c0.94533-1.1474 1.5363-2.5828 1.6731-4.0631 0.06233-0.67491 0.03256-1.3546 0-2.0316-0.03641-0.75704-0.07624-1.5139-0.1195-2.2706"/>
   <path d="m58.438 119.29c1.2696 0.23024 2.5448 0.42949 3.8241 0.59752 3.9598 0.5201 7.9749 0.74025 11.95 0.35851 5.9737-0.57361 11.805-2.4979 17.806-2.5096 1.9959-4e-3 3.9852 0.20477 5.9752 0.35852 5.1673 0.39924 10.362 0.42883 15.536 0.1195 2.2302-0.13335 4.4582-0.32965 6.6922-0.35851 2.9091-0.0376 5.8146 0.20893 8.7238 0.23901 1.5588 0.0161 3.1949-0.0506 4.5412-0.83653 0.49997-0.29189 0.94698-0.67951 1.285-1.1495 0.338-0.47002 0.56477-1.0235 0.62708-1.5991 0.0598-0.5526-0.0327-1.1183-0.24584-1.6316-0.21311-0.51335-0.54487-0.97456-0.9492-1.356-0.40668-0.38362-0.89423-0.6911-1.434-0.83653-0.5417-0.14593-1.1121-0.12491-1.6731-0.1195-2.702 0.0261-5.4074-0.33735-8.0068-1.0755"/>
   <path d="m97.874 101.48c0.17708 1.3434 0.71948 2.6368 1.5536 3.7046 0.94717 1.2126 2.3055 2.1422 3.8241 2.3901 1.4813 0.24181 2.9847-0.16405 4.4216-0.59752 0.41788-0.12606 0.84176-0.25797 1.2041-0.50138 0.18115-0.12171 0.34526-0.27108 0.47127-0.44927 0.126-0.17818 0.21302-0.38596 0.23674-0.60291 0.0334-0.30581-0.0619-0.61934-0.23973-0.87039-0.17781-0.25105-0.43403-0.44134-0.7163-0.56366-0.33828-0.1466-0.70915-0.19798-1.0755-0.239-2.025-0.22669-4.0792-0.18014-6.0947 0.1195-0.80397 0.11952-1.602 0.27913-2.3901 0.47802"/>
   <path d="m97.874 101.48-1.5536-0.1195"/>
   <path d="m96.679 103.27-0.35851-1.9121"/>
   <path d="m92.138 103.75 4.5412-0.47802"/>
   <path d="m109.47 103.87h3.3461"/>
   <path d="m58.438 119.29c0.85131-0.65305 1.6513-1.373 2.3901-2.1511 0.99101-1.0437 1.8702-2.1895 2.8681-3.2266 2.429-2.5246 5.508-4.3463 8.7238-5.7362 3.0965-1.3384 6.3541-2.3036 9.6798-2.8681"/>
   <path d="m114.72 114.39c-0.32731-0.055-0.66801-0.0504-0.98605 0.0445s-0.61228 0.28395-0.80652 0.55307c-0.21156 0.29311-0.29465 0.66867-0.26144 1.0286 0.0332 0.35996 0.17721 0.70435 0.38095 1.003 0.33961 0.49773 0.86281 0.8812 1.4549 0.99309 0.29604 0.0559 0.6057 0.0439 0.89415-0.0431s0.55487-0.24952 0.75808-0.47195c0.26086-0.28554 0.41197-0.66646 0.4295-1.0528 0.0175-0.38636-0.0965-0.77574-0.31-1.0983-0.34518-0.52157-0.93677-0.85232-1.5536-0.95604z"/>
   <path d="m112.81 116.78 3.9436-0.95603"/>
   <path d="m98.95 96.94c-0.04049 1.4721 0.58639 2.9497 1.6731 3.9436 0.1345 0.12302 0.27654 0.23959 0.43599 0.32791 0.15945 0.0883 0.33779 0.14773 0.52005 0.15011 0.1904 2e-3 0.3764-0.0568 0.55177-0.13095 0.17537-0.0742 0.3443-0.1639 0.52376-0.22756 0.43997-0.15607 0.92291-0.14782 1.3838-0.0733 0.46084 0.0745 0.90878 0.21263 1.3648 0.31231 1.7572 0.38403 3.5804 0.18995 5.3777 0.1195 1.6336-0.064 3.2712-0.0241 4.8997 0.1195"/>
   <path d="m97.157 97.418c0.01444 0.76184 0.0945 1.5224 0.23901 2.2706 0.11738 0.60767 0.27723 1.2071 0.47802 1.7926"/>
   <path d="m91.301 97.896 3.9436-0.35851"/>
   <path d="m9.3213 151.08c-0.056409 1.5566 0.023667 3.118 0.23901 4.6607 0.36905 2.6438 1.1373 5.2314 2.2706 7.6483"/>
   <path d="m11.831 163.38c1.697-1.3232 3.6595-2.3044 5.7362-2.8681 2.7535-0.74736 5.6788-0.75574 8.4848-0.23901 3.2957 0.60691 6.5363 1.9911 8.8433 4.4217 0.3949 0.41606 0.76074 0.86045 1.1796 1.2523 0.4189 0.39188 0.8999 0.7343 1.4494 0.89875 0.81016 0.24244 1.7355 0.0574 2.3901-0.47802"/>
   <path d="m39.795 162.91c-1.2638-0.54559-2.3599-1.473-3.1071-2.6291-1.0626-1.644-1.3907-3.6597-1.4341-5.6167-0.07487-3.3766 0.63965-6.779 2.1511-9.7994 1.5272-3.0518 3.8406-5.6735 6.5233-7.7828 2.6827-2.1093 5.7305-3.7211 8.8927-5.0042 5.9129-2.3992 12.22-3.6657 18.523-4.6607 11.318-1.7867 22.751-2.7383 34.178-3.5851 7.6052-0.5636 15.214-1.0815 22.825-1.5536"/>
   <path d="m83.653 126.1c-0.95448 0.39705-1.7932 1.068-2.3901 1.9121-0.70935 1.0031-1.0691 2.2371-1.0755 3.4656-4e-3 0.76091 0.12224 1.5156 0.20124 2.2724 0.079 0.75681 0.10954 1.5323-0.08173 2.2688-0.11849 0.45625-0.32639 0.89746-0.65479 1.2356-0.3284 0.33818-0.78596 0.56478-1.2573 0.55693-0.26075-4e-3 -0.51996-0.08-0.74208-0.21667-0.22212-0.13663-0.40656-0.33386-0.52802-0.56464-0.12146-0.23077-0.17961-0.49446-0.16649-0.75491 0.01313-0.26046 0.09749-0.51697 0.24154-0.73436"/>
   <path d="m81.263 126.1c-0.75518 0.59943-1.4053 1.3308-1.9121 2.1511-0.38407 0.62166-0.68731 1.2979-0.84704 2.011-0.15973 0.71307-0.17284 1.4643 0.01051 2.1717 0.09788 0.37762 0.2502 0.73945 0.34771 1.1172 0.09751 0.37772 0.13783 0.78457 0.0108 1.1534-0.11246 0.32652-0.35682 0.60547-0.66571 0.75991-0.30888 0.15444-0.67866 0.18257-1.0074 0.0766"/>
   <path d="m78.514 130.28-1.7926 0.11951"/>
   <path d="m74.69 126.94c0.74589 0.16147 1.4144 0.65169 1.7926 1.3146 0.36763 0.64433 0.45623 1.4418 0.23901 2.1511"/>
   <path d="m73.854 127.89c-0.99673 0.18949-1.9301 0.69862-2.6291 1.434-0.76485 0.80478-1.2431 1.8796-1.3145 2.9876-0.06897 1.0698 0.23624 2.1477 0.78257 3.0701 0.54633 0.92242 1.3257 1.6944 2.205 2.3076 1.758 1.2259 3.9007 1.821 6.0389 1.9679 2.1382 0.14697 4.284-0.13325 6.3895-0.53388 1.61-0.30634 3.2191-0.68767 4.7087-1.371 1.4896-0.68333 2.8641-1.689 3.7761-3.0506 0.97641-1.4578 1.3729-3.2736 1.195-5.0192-0.05933-0.58245-0.18112-1.1622-0.41052-1.7009-0.2294-0.53866-0.56995-1.036-1.0235-1.4062-0.64592-0.52715-1.5142-0.77223-2.3405-0.66058-0.82622 0.11165-1.5984 0.57841-2.0812 1.2581"/>
   <path d="m89.15 127.17 1.4341-2.5096"/>
   <path d="m73.854 127.89-8.1263 0.1195"/>
   <path d="m93.094 105.07 2.7486-0.47801"/>
   <path d="m111.62 103.87c-0.0726 2.3388-1.368 4.6058-3.3461 5.8557-1.4439 0.91242-3.194 1.2852-4.8997 1.195-1.2648-0.0668-2.5212-0.38253-3.645-0.96692-1.1237-0.58439-2.1117-1.4408-2.8082-2.4987-0.56624-0.85991-0.93674-1.8479-1.0755-2.8681"/>
   <path d="m96.081 79.612c-0.24748 0.02749-0.48704 0.12042-0.69003 0.26464-0.20299 0.14422-0.36918 0.33922-0.48202 0.56119-0.22568 0.44394-0.22698 0.99044-0.023 1.4448 0.12132 0.27021 0.31203 0.50939 0.55051 0.68505 0.23849 0.17566 0.5244 0.28705 0.81922 0.31557 0.29482 0.02853 0.59771-0.02632 0.86228-0.1595 0.26456-0.13318 0.48965-0.34465 0.63609-0.60211 0.18307-0.32187 0.23946-0.71085 0.1701-1.0746-0.06935-0.36374-0.26139-0.70066-0.52862-0.95699-0.17374-0.16666-0.37956-0.30082-0.60494-0.38546-0.22538-0.08464-0.47033-0.11914-0.70961-0.09256z"/>
   <path d="m93.572 92.877 2.1511-2.9876"/>
   <path d="m90.704 91.921 1.9121-3.9436"/>
   <path d="m111.26 108.65 0.35851-4.7802"/>
   <path d="m50.311 111.04c2-0.24109 3.9707-0.72372 5.8557-1.4341 2.8932-1.0902 5.582-2.7199 7.8873-4.7802"/>
   <path d="m128.11 98.374c-0.17659 0.03596-0.34329 0.11931-0.47801 0.23901-0.22352 0.1986-0.3507 0.48705-0.41104 0.7799-0.0603 0.29285-0.06 0.59424-0.067 0.89316-0.0131 0.55917-0.053 1.1177-0.11951 1.6731"/>
   <path d="m133.96 98.374c-0.0959 0.60193-0.21549 1.2001-0.35851 1.7926-0.10658 0.44157-0.22616 0.88-0.35851 1.3145"/>
   <path d="m150.22 98.493-0.23901 2.8681"/>
   <path d="m156.67 98.613-0.47801 2.9876"/>
   <path d="m225.03 101.36-68.834 0.23901"/>
   <path d="m149.98 101.36-16.731 0.1195"/>
  </g>
  <path d="m127.03 101.96-7.1702-0.35851" fill="#ffe680"/>
 </g>
</svg>
