<?xml version="1.0" encoding="UTF-8"?>
<svg cursor="default" enable-background="new" version="1.1" viewBox="0 0 256 256" xmlns="http://www.w3.org/2000/svg" xmlns:cc="http://creativecommons.org/ns#" xmlns:dc="http://purl.org/dc/elements/1.1/" xmlns:rdf="http://www.w3.org/1999/02/22-rdf-syntax-ns#" xmlns:xlink="http://www.w3.org/1999/xlink">
 <metadata>
  <rdf:RDF>
   <cc:Work rdf:about="">
    <dc:format>image/svg+xml</dc:format>
    <dc:type rdf:resource="http://purl.org/dc/dcmitype/StillImage"/>
    <dc:title/>
   </cc:Work>
  </rdf:RDF>
 </metadata>
 <defs>
  <radialGradient id="radialGradient3185" cx="60.691" cy="200.77" r="22.046" gradientTransform="matrix(-.55164 -.58895 1.1563 -1.083 -4.5563 310.88)" gradientUnits="userSpaceOnUse">
   <stop stop-color="#ffb380" offset="0"/>
   <stop stop-color="#fca" offset="1"/>
  </radialGradient>
  <radialGradient id="radialGradient3211" cx="80.819" cy="201.64" r="5.2482" gradientTransform="matrix(-7.5458 -5.038 .45138 -.67607 707.88 605.64)" gradientUnits="userSpaceOnUse">
   <stop stop-color="#fca" offset="0"/>
   <stop stop-color="#fca" stop-opacity="0" offset="1"/>
  </radialGradient>
 </defs>
 <g>
  <path d="m184.22 75.97c1.748-0.0718 3.0771-1.4667 4.2366-2.6117 0.32533-1.2115 0.4988-2.776-0.24052-3.8666-1.5248-2.1555-4.9118-1.662-6.493 0.15055-1.6866 1.4468-1.8542 4.4521 0.16983 5.6691 0.68083 0.45664 1.5081 0.69023 2.3272 0.65867z" fill="#ff8080" stroke-width="0"/>
  <path d="m187.93 85.936c2.061-0.0883 4.1008-0.67041 5.8817-1.7169 2.9638-1.7298 5.2191-4.5555 6.4617-7.7363 0.13978-0.54049 0.41598-1.0378 0.54897-1.5887 0.79747-2.6314 1.0904-5.398 1.0736-8.1409 0.0859-0.27675-0.53587-0.35637-0.29913-0.5532 0.44539-0.36365 0.17291-0.97328 0.20336-1.4631-0.16939-2.5319-0.62222-5.0494-1.3097-7.4878-0.54446-0.62742-1.2421-1.1734-1.564-1.972-0.41594-0.87497-0.50754-1.8678-0.34832-2.8164 0.12775-2.1142 0.15186-4.2382 0.50164-6.3249 0.96801-6.3205 3.4899-12.524 7.739-17.38 2.0296-2.2963 4.4343-4.3478 7.2899-5.5591 2.2259-1.0003 4.736-1.2392 7.1269-0.95472 1.5703 0.14665 3.0792 0.52002 4.6156 0.86235 0.47549 0.0315 0.50012-0.58238 0.68312-0.88977 0.84038-2.0288 2.0686-3.8618 3.602-5.4139 0.24795-0.16769 0.33291-0.64384-0.0299-0.71143-0.48882 2e-3 -0.94336 0.28235-1.4182 0.39218-6.0097 1.9926-12.057 3.869-18.053 5.9028-4.6984 1.6346-9.4475 3.3437-13.618 6.1104-2.7387 1.8502-5.251 4.2573-6.5456 7.3544-0.92891 2.2089-1.2408 4.6362-1.228 7.0186 0.11208 4.5382 1.15 8.9831 1.4336 13.507 0.11279 1.8056 0.39787 3.6032 0.97018 5.3233 0.15699 0.67368 0.48762 1.2791 0.88773 1.8366 0.81405 1.302 1.1531 2.8779 0.94012 4.3995-0.16897 0.83425-0.17778 1.6867-0.27859 2.5294-0.22801 1.735-1.0536 3.3763-1.8769 4.915-0.56713 1.1071-1.4691 1.997-2.0002 3.1252-0.0951 0.17754-0.18593 0.36387-0.29394 0.53123-0.32226-0.22354-0.68769-0.0925-0.87959 0.22903-0.95822 0.96662-1.8388 2.1631-1.871 3.58-0.0943 1.0697 0.22378 2.184 0.90628 3.0095 0.19535 0.16103 0.51211 0.0544 0.74943 0.0828zm0.64903-2.2956c5e-3 -0.22332-0.11362-0.53445-0.0219-0.70629 0.22962-0.0436 0.2373-0.30473 0.30271-0.44936 1.6816-1.4245 2.9325-3.34 3.5506-5.4564 0.16817-0.55818 0.29679-1.128 0.39096-1.7032 0.20409 0.0553 0.55867-7e-3 0.67175 0.12393-0.11767 0.82635-0.36881 1.6258-0.55574 2.4349 7e-3 0.41256 0.56703 0.42271 0.70893 0.0866 2.1814-2.8786 3.5014-6.436 3.5531-10.06 1.4e-4 -0.33697-0.0669-0.74179 0.4006-0.61442 0.38821-0.13347 0.3074 0.23628 0.29825 0.50081-0.0632 3.4681-1.156 6.9318-3.1392 9.7953-0.91327 1.3819-2.073 2.5691-3.2275 3.7465-0.31775 0.27477 0.0814 0.77891 0.42343 0.54403 1.546-0.81538 2.7935-2.0842 3.878-3.434 2.5786-3.4567 3.8571-7.8137 3.7609-12.11 0.0239-2.7756-0.60397-5.5321-1.6207-8.1046-0.0195-0.2059-0.39706-0.53955-0.0708-0.60897 0.19982-0.0567 0.49921-0.36635 0.54728-0.0226 2.4011 5.5981 2.534 12.201-0.0164 17.808-1.2556 2.6892-3.0923 5.2139-5.6385 6.778-1.274 0.77092-2.7261 1.2633-4.1958 1.4525zm11.658-7.4349c-8e-3 0.0141-0.0914 0.0312 0 0zm-7.6192-26.833c-0.33871-1.6739-0.29355-3.3855-0.22216-5.072 0.36949-4.4596 2.2021-8.7873 5.2498-12.081 1.767-1.9176 3.9412-3.4998 6.3233-4.6025 0.10728 0.20045 0.2061 0.40557 0.29445 0.61507-4.0343 1.859-7.4076 5.1422-9.2994 9.1694-1.7644 3.6703-2.3555 7.8876-1.6702 11.902-0.19818-7.1e-4 -0.56403 0.1988-0.67588 0.0688z" fill="url(#radialGradient3185)" stroke-width="0"/>
  <g fill="#ffb380" stroke-width="0">
   <path d="m187.67 61.31c0.3426-0.40204-0.22928-0.74079-0.42239-1.0718-1.4157-1.8534-1.8973-4.3542-1.3393-6.5973 0.0859-0.51039 0.34326-0.97913 0.44566-1.4772-0.11535-0.47757-0.72255-0.50962-1.099-0.69105-0.48483-0.1294-0.97161-0.39105-1.477-0.36374-0.41058 0.22928-0.27986 0.80195-0.33587 1.1947-0.0984 2.6814 0.48817 5.3991 1.8236 7.7372 0.28108 0.4442 0.48979 0.96159 0.87811 1.3177 0.49657 7e-3 1.047 0.0901 1.5263-0.0485z"/>
   <path d="m205.09 72.951c0.40488-0.0109 0.44382-0.49908 0.27058-0.77271-0.29157-0.69884-0.5146-1.4526-0.94124-2.0773-0.34956-0.2132-0.82649-0.0483-1.2278-0.0996-0.33821-0.0526-0.82069 0.0153-0.77897 0.46309-0.0335 0.55868-0.22099 1.1302-0.13318 1.6857 0.29776 0.33529 0.81357 0.29548 1.211 0.44813 0.53145 0.11588 1.0583 0.29794 1.5995 0.35271z"/>
   <path d="m223.8 81.345c0.77798-0.16187 1.5829-0.13198 2.3663-0.20338 0.44088-0.1195 0.20296-0.6333-0.0885-0.79111-0.36176-0.3034-0.63669-0.7315-1.0638-0.94112-0.44976 0.0913-0.6807 0.57659-1.0282 0.8487-0.19375 0.26626-0.67179 0.49778-0.5348 0.87973 0.0579 0.14913 0.19242 0.22201 0.34901 0.20718z"/>
   <path d="m228.2 81.061c0.36314-0.29095 9e-3 -0.74839-5e-3 -1.1148-0.18175-0.87968-0.14986-1.7866-0.19067-2.6737-0.10296-0.43784-0.61737-0.22612-0.79335 0.0477-0.47234 0.47628-1.0601 0.84296-1.4812 1.365-0.15743 0.44026 0.39027 0.67281 0.61681 0.96616 0.52697 0.46878 0.99913 1.0216 1.5747 1.4244 0.0873 0.0564 0.18598-0.0127 0.27839-0.0147z"/>
   <path d="m225.15 78.19c0.84258-0.68855 1.6792-1.402 2.4271-2.188 0.25088-0.38156-0.26762-0.60837-0.59034-0.53396-0.89973 0.0136-1.765-0.20133-2.6074-0.47678-0.27155-0.14056-0.82309-0.12216-0.92342-0.36004 0.20876-0.36238-0.31748-0.72881-0.58632-0.40956-0.25985 0.11182-0.504-0.4309-0.75774-0.58079-3.8361-3.7666-7.6822-7.5278-11.692-11.11-0.46548-0.3055-0.78958-0.77243-1.2272-1.1223-1.2318-1.1031-2.4502-2.2241-3.7234-3.279-0.36256-0.20903-0.6244 0.23703-0.52567 0.55494 0.0332 0.44402 0.0656 0.94414 0.46337 1.2278 3.7481 3.6434 7.6077 7.1702 11.413 10.754 2.6471 2.4882 5.3172 4.9526 7.928 7.4791 0.13724 0.0921 0.24795 0.10239 0.40231 0.0449z"/>
   <path d="m222.13 81.145c0.72666-0.69339 1.4498-1.4102 2.1327-2.1429 0.22568-0.42416-0.37103-0.65987-0.58642-0.94529-6.221-5.9086-12.52-11.734-18.78-17.601-0.4-0.1756-0.87909-0.0632-1.3036-0.0637-0.41593 0.0886-0.25604 0.60397 0.0388 0.75209 4.7528 4.6523 9.6242 9.1851 14.679 13.508 0.69586 0.60052 1.4028 1.1883 2.0912 1.7974-0.26495 0.1985-0.33851 0.70324 0.0701 0.77411 0.18908 0.037 0.42579-0.22168 0.42798 0.0972 0.32855 1.1083 0.7616 2.2122 0.74142 3.387-0.0282 0.2853 0.18887 0.55423 0.48875 0.43701z"/>
   <path d="m188.53 45.969c0.30873-0.29907 0.0838-0.77365 0.0927-1.1547-0.0125-0.52881-0.56175-0.78518-0.83971-1.173-3.9366-4.2094-7.849-8.4458-11.751-12.689-0.17211-0.27833-0.58962-0.39558-0.7725-0.0543-0.6136 0.78883-1.3339 1.5065-1.8583 2.359-0.15902 0.34374 0.22925 0.58741 0.53634 0.55104 0.71475 0.0212 1.4183 0.14864 2.0857 0.41069 0.55296 0.19301 1.1441 0.36981 1.6718 0.57949-0.22839 0.30766 0.10528 0.7991 0.4652 0.58305 0.23022-0.22339 0.38168 0.26548 0.57622 0.38539 3.1297 3.3739 6.2181 6.7893 9.3771 10.137 0.12753 0.10552 0.26212 0.12459 0.41603 0.066z"/>
   <path d="m173.82 31.535c0.41836-0.43367 0.79179-0.91767 1.1497-1.4027 0.13398-0.42133-0.34675-0.69878-0.54916-1.0088-0.29604-0.24925-0.48613-0.74325-0.92102-0.74906-0.47578 0.1824-0.16893 0.73501-0.18852 1.1012 0.0518 0.6259-0.0328 1.2456 5e-3 1.8697 0.0852 0.20885 0.30068 0.29812 0.50352 0.18968z"/>
   <path d="m175.75 29.272c0.57161-0.40079 1.0864-0.89631 1.5792-1.3903 0.17969-0.32697-0.20728-0.58689-0.51064-0.53497-0.85566-0.0499-1.704-0.17412-2.5434-0.33714-0.38837-0.036-0.51308 0.49805-0.20873 0.69883 0.48267 0.50013 0.90288 1.0767 1.4211 1.5318 0.0752 0.0787 0.16966 0.0308 0.26254 0.0318z"/>
   <path d="m188.28 42.8c0.41733-0.16638 0.23582-0.70398 0.29181-1.0509 0.0366-0.32254-0.0239-0.65614-0.31442-0.84262-2.6034-2.6505-5.1637-5.3449-7.7432-8.0206 0.30623-0.16734 0.34675-0.7174-0.0742-0.72549-0.35972 0.17728-0.39289-0.16199-0.48278-0.42417-0.34407-1.0291-0.76951-2.0743-0.77348-3.1848-0.0385-0.31379 0.0394-0.94054-0.43877-0.87639-0.45 0.20896-0.78658 0.6433-1.1819 0.95201-0.41942 0.41746-0.93083 0.76451-1.2779 1.2442-0.0574 0.43675 0.42106 0.68059 0.63134 1.006 3.4166 3.775 6.881 7.5072 10.381 11.205 0.30699 0.23158 0.54656 0.744 0.98204 0.71822zm-0.0271-1.7983c0.20212 0.0662 0.22644 0.0984 0 0z"/>
   <path d="m228.09 30.623c2.2664-2.4865 4.4839-5.0223 6.7404-7.5198 0.26257-0.4413-0.34055-0.73035-0.54848-1.055-0.54744-0.56845-1.0264-1.2196-1.6328-1.7233-0.44733-0.087-0.67551 0.43246-1.0028 0.64721-1.8098 1.6847-3.6225 3.3669-5.3976 5.0884-0.26331 0.40241 0.22807 0.74674 0.37822 1.1073 0.57963 1.0083 0.82107 2.1404 0.99005 3.273 0.0564 0.20788 0.29311 0.26389 0.47302 0.18211z"/>
  </g>
  <path d="m235.84 22.415c1.9943-0.68803 3.6242-2.3503 4.2285-4.3778 0.11919-0.31566 0.16111-0.70565 0.24573-0.99732 0.35015 0.13352 0.72163-0.0601 0.76539-0.38545 3.0669 0.52256 6.3656-0.57105 8.4669-2.8775 1.7824-1.8808 2.7234-4.6264 2.1356-7.1889-0.52907-2.7613-3.1386-4.9759-5.9636-4.9624-1.2135-0.0417-2.4321 0.22092-3.4955 0.81473-2.2123 1.1478-3.6386 3.4451-4.203 5.8214-0.28846 1.2703-0.22113 2.5908-0.15629 3.8819 0.049 0.59945 0.20777 1.1815 0.37753 1.756-0.37393 0.0673-0.43352 0.49748-0.28344 0.78765-1.6259 0.56356-3.4008 1.2092-4.4058 2.6991-0.39786 0.63054-0.6829 1.3972-0.60535 2.1441 0.85294 0.94838 1.6835 1.9323 2.584 2.8305 0.098 0.0775 0.19106 0.0791 0.30932 0.054zm7.2144-8.1359c-0.98998 0.0631-1.9047-0.6167-2.2313-1.5367-0.49364-1.2444-0.8313-2.546-0.76392-3.8967-0.10945-1.7562 0.95265-3.5357 2.521-4.308 0.73378-0.42569 1.5649-0.65851 2.4154-0.64927 1.5949-0.16919 3.2416 0.54167 4.1443 1.877 0.79018 1.1126 0.77662 2.641 0.14941 3.8246-0.7854 1.5232-2.1806 2.6011-3.5095 3.6283-0.79534 0.57191-1.7163 1.0833-2.7254 1.0608z" fill="#fca" stroke-width="0"/>
  <g fill="#ffb380" stroke-width="0">
   <path d="m241.75 13.063c0.61688-0.46167 1.117-1.0882 1.6821-1.6008 0.17793 0.28447 0.63385 0.47462 0.80784 0.0833 0.10327-0.35629 0.35556 0.0462 0.53841 0.1168 0.426 0.24807 0.78456 0.65315 1.2555 0.80209 0.51955-0.1036 0.87293-0.57718 1.2655-0.90206 0.30738-0.30098-0.0573-0.63818-0.2995-0.82689-0.30451-0.27238-0.6073-0.54672-0.90458-0.82701 0.2839-0.17965 0.41371-0.59388 0.0851-0.80025-0.27822-0.19185 0.2376-0.39488 0.31892-0.58961 0.73361-0.79903 1.5164-1.5604 2.2283-2.3735 0.20663-0.4069-0.33644-0.6398-0.55848-0.90789-0.43481-0.3701-0.94925-0.71393-1.5203-0.79877-0.3828 0.0603-0.34313 0.54207-0.0893 0.73348 0.11021 0.21278 0.61899 0.40888 0.2555 0.60629-0.70032 0.67983-1.4006 1.3597-2.1008 2.0396-0.1912-0.32099-0.62791-0.37877-0.83016-0.0369-0.13913 0.21815-0.29059-0.17718-0.43292-0.22903-0.60628-0.53328-1.1541-1.1436-1.8011-1.6248-0.47831-0.11011-0.6188 0.49878-0.8095 0.80883-0.12675 0.34508-0.51067 0.83554-0.11137 1.1322 0.18927 0.15319 0.38565-0.13724 0.5099-0.0765 0.4343 0.47246 0.94579 0.94541 1.3328 1.4176-0.30548 0.1905-0.47415 0.65438-0.0696 0.84242 0.25805 0.1486-0.25919 0.36605-0.30754 0.53977-0.39516 0.49996-0.93023 0.91032-1.2312 1.4703 0.11686 0.3457 0.22335 0.7894 0.54966 1.0013 0.0778-4e-3 0.16145 0.0197 0.23684 0z"/>
   <path d="m248.25 10.579c0.77784-0.88382 1.327-2.1006 1.1018-3.2967-0.10775-0.41801-0.61165-0.27312-0.76786 0.0326-0.57745 0.62984-1.216 1.212-1.7452 1.8821-0.15937 0.50282 0.42099 0.82232 0.71995 1.1241 0.19489 0.16338 0.41632 0.41923 0.69125 0.25784z"/>
   <path d="m244.41 7.1779c0.76257-0.75299 1.5413-1.4961 2.2599-2.292 0.20883-0.36051-0.21062-0.60392-0.522-0.61507-1.0958-0.1211-2.2629-0.0713-3.261 0.44409-0.31212 0.1177-0.85023 0.41879-0.54162 0.81037 0.54465 0.57135 1.1212 1.1248 1.7153 1.6378 0.11452 0.0898 0.22235 0.0498 0.34941 0.0148z"/>
   <path d="m240.95 10.772c0.41481-0.13317 0.62034-0.58196 0.92971-0.85948 0.25338-0.43337-0.32519-0.71239-0.53886-1.0252-0.21053-0.22226-0.53659-0.72607-0.85558-0.3891-0.22797 0.44365-0.0646 0.99691-0.0378 1.4827 0.0458 0.30477 0.0552 0.84171 0.50249 0.79109z"/>
   <path d="m243.11 13.957c0.72754-0.0368 1.4774-0.27073 2.047-0.72867 0.2676-0.40177-0.27335-0.634-0.52521-0.83653-0.26916-0.22082-0.70366-0.56972-0.99489-0.18177-0.38174 0.40278-0.85689 0.74438-1.1404 1.2253-0.12586 0.38407 0.3057 0.55876 0.61346 0.52166z"/>
   <path d="m215.79 62.166c4.7043-0.085 9.4818-1.3682 13.331-4.1363 2.135-1.5187 3.8459-3.6286 4.8292-6.0619 1.1131-2.6603 1.4416-5.5542 1.9194-8.3747 0.80189-5.2731 1.9487-10.479 3.3244-15.633 0.0114-0.38847-0.50103-0.45361-0.7087-0.18681-1.1287 0.99913-2.4767 1.7314-3.9001 2.2115-0.50731 0.33319-0.20306 1.0165-0.19018 1.5001 0.17259 1.7046 0.17848 3.4032-0.0315 5.0989-0.46426 3.4802-1.8196 6.8354-3.9058 9.6504-3.5605 4.9184-9.0073 8.4037-14.792 10.063-2.5757 0.75587-5.2113 1.1379-7.8918 1.2343-0.40671 0.0732-0.89621-0.0776-1.2371 0.17148-0.27239 0.40865 0.31841 0.64944 0.54842 0.9048 1.102 0.9363 2.1362 1.9695 3.2746 2.8681 0.73829 0.49103 1.6748 0.40837 2.5142 0.55807 0.96784 0.10281 1.942 0.14448 2.9151 0.13181z"/>
   <path d="m204.19 59.606c0.25597-0.3189-8e-3 -0.7413 0.0541-1.1161 0.092-0.36508-0.17174-0.72426-0.56308-0.62201-0.63822-2.7e-4 -1.2849 6e-3 -1.9101-0.11171-0.46494 0.11898-0.23534 0.6457-0.18243 0.96765 0.10421 0.35429 0.0655 1.0021 0.59002 0.95155 0.65571-0.0366 1.3359 0.0739 1.9759-0.0572z"/>
  </g>
  <g fill="#ffe680" stroke-width="0">
   <path d="m203.11 57.207c0.55117-0.0589 1.1751-0.10636 1.6192-0.46933 7.317-8.139 14.61-16.3 21.882-24.479 0.38843-0.48372 0.26507-1.1696 0.26805-1.7471-0.0783-1.2263-0.42813-2.476-1.1579-3.4755-0.39898-0.29815-0.70718 0.24376-0.98927 0.45292-8.4009 7.9436-16.631 16.065-24.801 24.246-0.27356 0.23133-0.6168 0.56403-0.33901 0.93271 0.56521 1.2882 0.98247 2.6284 1.4722 3.9412 0.3791 0.35699 0.94958 0.47698 1.4592 0.56328 0.19406 0.0258 0.39011 0.0377 0.58587 0.0351z"/>
   <path d="m243.08 13.964c0.73014-0.0205 1.4562-0.27947 2.0507-0.69619 0.28348-0.28693-0.0663-0.60969-0.32222-0.74668-0.31943-0.17039-0.65109-0.66801-1.0484-0.42573-0.45461 0.41474-0.90906 0.84888-1.2687 1.3492-0.1521 0.38409 0.2784 0.56653 0.58855 0.51936z"/>
   <path d="m248.26 10.572c0.71598-0.76166 1.1132-1.814 1.1617-2.8517 0.0216-0.33534-0.16871-0.85258-0.59223-0.64433-0.7003 0.70135-1.402 1.4161-2.0585 2.1534-0.21101 0.42294 0.3652 0.65052 0.59346 0.92736 0.2603 0.18886 0.53284 0.61813 0.89554 0.41526z"/>
   <path d="m244.4 7.1807c0.78096-0.77226 1.5808-1.5406 2.3264-2.3418 0.2355-0.37109-0.25621-0.58316-0.56518-0.5747-0.8543-0.068-1.7456-0.088-2.5743 0.1579-0.44385 0.19368-0.97618 0.32333-1.2911 0.7126-0.16306 0.41923 0.36332 0.65935 0.57628 0.93855 0.44336 0.37905 0.80878 0.87682 1.3197 1.1568 0.0694-0.0164 0.13878-0.0329 0.20816-0.0494z"/>
   <path d="m240.96 10.777c0.41534-0.13242 0.62254-0.58171 0.93499-0.85753 0.25857-0.43532-0.33041-0.71976-0.53908-1.0375-0.21265-0.22425-0.53398-0.74109-0.86021-0.40464-0.21172 0.38124-0.0864 0.87936-0.0704 1.3062 0.073 0.34258 0.0103 1.0269 0.53473 0.99351z"/>
  </g>
  <g fill="#f95" stroke-width="0">
   <path d="m205.16 72.957c0.4276-0.076 0.30935-0.56156 0.17838-0.84205-0.27259-0.67489-0.494-1.3924-0.90957-1.9949-0.42332-0.32005-1.0127-0.11518-1.5027-0.17694-0.42875-0.0874-0.55472 0.36077-0.54357 0.69701-0.022 0.50565-0.21536 1.0338-0.0917 1.5318 0.30528 0.31831 0.81641 0.28518 1.2117 0.43436 0.55011 0.12039 1.0967 0.29506 1.6574 0.35076z"/>
   <path d="m187.67 61.31c0.34361-0.39866-0.23132-0.75317-0.41321-1.0857-1.4532-1.9274-1.9486-4.5152-1.2681-6.8428 0.0965-0.44381 0.35545-0.85586 0.36976-1.3123-0.18777-0.39873-0.71329-0.40513-1.0654-0.59189-0.47717-0.13661-0.95487-0.40853-1.4611-0.36227-0.48161 0.17921-0.3453 0.79714-0.39531 1.2013-0.0243 1.7147 0.12985 3.4466 0.685 5.0786 0.43833 1.3723 1.0781 2.6902 1.9039 3.8661 0.34911 0.24689 0.84082 0.0604 1.2495 0.1183 0.14189 0.0172 0.26505-0.0145 0.39497-0.0694z"/>
   <path d="m175.75 29.259c0.57523-0.35607 1.0454-0.87324 1.5518-1.3222 0.3268-0.22374 0.0595-0.75603-0.31465-0.63262-0.92265 0.0572-1.8377-0.16598-2.7446-0.30305-0.37096-0.029-0.4871 0.481-0.20311 0.67588 0.50416 0.51837 0.92894 1.1376 1.5063 1.573 0.0673 5e-3 0.13665 8e-3 0.20426 9e-3z"/>
   <path d="m188.41 42.842c0.24758-0.33873 0.11496-0.80564 0.175-1.2001 0.054-0.31896-0.10395-0.59533-0.35779-0.77491-2.5916-2.6351-5.1528-5.322-7.7031-7.9872 0.32763-0.2204 0.14906-0.78963-0.2591-0.70893-0.32602 0.11986-0.23178-0.45876-0.37809-0.64055-0.32717-0.99902-0.69822-2.0023-0.70557-3.068 5e-3 -0.33395-0.0389-0.94797-0.52606-0.77653-0.81426 0.66506-1.6012 1.3797-2.3618 2.0994-0.24667 0.40624 0.32352 0.68174 0.51558 0.98273 3.6658 4.0496 7.3884 8.0479 11.131 12.027 0.12518 0.13041 0.32046 0.13883 0.47013 0.0474z"/>
   <path d="m225.17 78.186c0.83842-0.68554 1.6656-1.4016 2.4089-2.1846 0.24989-0.38182-0.26842-0.60765-0.59092-0.53327-1.232 0.0305-2.3764-0.44353-3.5448-0.7561 0.17008-0.28836-0.0697-0.73142-0.4247-0.57937-0.24424 0.28251-0.40681-8e-3 -0.60964-0.2049-3.8434-3.7633-7.6792-7.539-11.678-11.138-0.30521-0.25986-0.62228-0.48096-0.87809-0.78904-1.4451-1.3049-2.8748-2.6319-4.3747-3.8729-0.36701-0.20223-0.62234 0.24896-0.53703 0.56676 0.0286 0.4695 0.11049 0.98303 0.51959 1.2795 4.0971 3.969 8.3088 7.8177 12.46 11.73 2.2907 2.139 4.567 4.2933 6.8464 6.4443 0.13879 0.0897 0.24965 0.0981 0.40301 0.038z"/>
   <path d="m228.2 81.062c0.3628-0.29631 0.0101-0.76593-3e-3 -1.1358-0.182-0.8782-0.14303-1.7836-0.17813-2.6691-0.10079-0.43992-0.61784-0.22925-0.79375 0.0461-0.49476 0.4819-1.0746 0.8878-1.5428 1.3863-0.18413 0.4147 0.38978 0.63485 0.60017 0.91711 0.55224 0.48343 1.0403 1.0653 1.6459 1.4754 0.0856 0.0513 0.18158-0.0187 0.27115-0.0199z"/>
  </g>
  <g fill="#ff7f2a" stroke-width="0">
   <path d="m215.74 62.17c4.5593-0.0418 9.1614-1.2909 12.966-3.8401 1.3284-0.90295 2.5109-2.0242 3.5119-3.2782 1.8942-2.4943 2.7005-5.598 3.1996-8.6383 0.72061-4.5123 1.4532-9.0185 2.5208-13.458 0.37944-1.6916 0.87371-3.3678 1.2574-5.0602 0.013-0.3748-0.49064-0.42614-0.68255-0.16342-1.125 1.0155-2.4781 1.7544-3.9066 2.2436-0.5277 0.31793-0.23913 1.0215-0.22443 1.5075 0.53022 4.3006-0.35908 8.7055-2.482 12.491-3.3762 6.0209-9.3961 10.283-15.965 12.238-2.7258 0.82765-5.5418 1.2306-8.3828 1.3245-0.36057 0.0748-0.91114-0.11996-1.089 0.30389 0.024 0.44755 0.54854 0.62194 0.80519 0.93747 1.0756 0.93502 2.1062 1.9272 3.2108 2.8258 0.72323 0.30343 1.535 0.31332 2.3036 0.42959 0.982 0.1026 1.97 0.14554 2.9572 0.13693z"/>
   <path d="m205.19 72.951c0.46533-0.1506 0.20667-0.67593 0.0923-0.98795-0.27134-0.63098-0.46315-1.3262-0.88848-1.8728-0.43644-0.26005-0.98826-0.11257-1.4734-0.13403-0.31976-0.0286-0.57834 0.2386-0.53044 0.55882-0.0206 0.54196-0.22018 1.1049-0.10998 1.6446 0.30188 0.33344 0.82334 0.30587 1.2242 0.45708 0.55734 0.1158 1.1158 0.31533 1.6858 0.33424z"/>
   <path d="m241.66 13.05c0.53296-0.2399 0.88689-0.75939 1.3201-1.1384 0.23152-0.18853 0.46324-0.68982 0.6945-0.2137 0.29235 0.25315 0.56748-0.0935 0.70388-0.30708 0.54064 0.35482 1.0413 0.77684 1.6068 1.0899 0.42281 0.043 0.6753-0.39607 0.98903-0.61115 0.23393-0.19535 0.63725-0.51274 0.33531-0.83298-0.39158-0.38867-0.80301-0.7567-1.2067-1.1326 0.3197-0.19577 0.38679-0.63323 0.0404-0.83871-0.15185-0.19596 0.31183-0.39674 0.41178-0.59365 0.71574-0.77196 1.4764-1.5126 2.1671-2.3012 0.18055-0.41264-0.31253-0.73717-0.58277-0.9857-0.44704-0.32285-0.93314-0.69111-1.4957-0.7468-0.40349 0.0796-0.31006 0.5793-0.0485 0.76982 0.20581 0.21794 0.5263 0.41933 0.1163 0.62829-0.66201 0.66239-1.324 1.3248-1.9859 1.9873-0.19858-0.26206-0.61209-0.39446-0.83102-0.0817-0.16923 0.23951-0.37467-0.2305-0.55777-0.31039-0.56743-0.49567-1.0744-1.0747-1.6893-1.5088-0.46571-0.096-0.61432 0.48369-0.80396 0.78941-0.12743 0.33764-0.49901 0.81536-0.13057 1.1208 0.20043 0.19801 0.43964-0.18153 0.56879 3.5e-4 0.421 0.45914 0.91363 0.91862 1.2914 1.3775-0.29941 0.18928-0.46771 0.63954-0.0809 0.83745 0.20242 0.21823-0.35754 0.48621-0.46703 0.72504-0.33626 0.43538-0.81469 0.78057-1.0541 1.2777 0.0946 0.33125 0.18605 0.72576 0.45797 0.96161 0.0771 0.0228 0.14872 0.0586 0.23099 0.0376z"/>
  </g>
  <path d="m190.05 73.537c0.81197-0.068 0.65314-1.1493 0.79982-1.7144 0.16001-1.6882 0.1829-3.4239-0.13588-5.0935-0.26799-1.1866-1.6885-1.2226-2.642-1.4518-1.8191-0.27453-3.6906-0.35581-5.5206-0.16432-0.84836 0.23833-0.66727 1.3585-1.0867 1.9751-0.19669 0.69374-0.84647 1.185-0.99693 1.8716 0.22467 0.63216 0.84965 0.0624 1.105-0.23272 1.9143-1.78 5.3053-2.0457 7.031 0.084 0.74125 0.90556 1.0985 2.0707 0.93614 3.2371 0.0834 0.47707-0.55906 1.5665 0.51018 1.489z" fill="url(#radialGradient3211)" stroke-width="0"/>
  <g fill="#ffb380" stroke-width="0">
   <path d="m190.05 73.537c0.81197-0.068 0.65314-1.1493 0.79982-1.7144 0.16001-1.6882 0.1829-3.4239-0.13588-5.0935-0.26799-1.1866-1.6885-1.2226-2.642-1.4518-1.8191-0.27453-3.6906-0.35581-5.5206-0.16432-0.84836 0.23833-0.021 0.94722-0.44044 1.5638 0.3443 4.3304 2.6481-2.2578 6.4928 2.1341 0.74125 0.90556 1.0985 2.0707 0.93614 3.2371 0.0834 0.47707-0.55906 1.5665 0.51018 1.489z"/>
   <path d="m176.59 66.008c2.5766-1.034 5.2886-1.7826 8.0913-1.7211 1.0954-0.0936 2.2049 0.19159 3.2764 0.12844 0.44466-0.64555 0.90397-0.66409 1.4161-0.0595 0.68887 0.47365 1.3047 1.0604 1.9561 1.5666 0.65397 0.11634 0.47528-0.71474 0.27815-1.0543-0.41129-0.91598-0.70333-2.0338-1.5051-2.6576-3.6953-0.2855-7.4922-0.0346-11.109 0.39566 0.0176-0.38039-0.37842-0.59076-0.71696-0.53909 0.0967-4.1865 1.7578-8.3148 4.5202-11.466 0.28365 0.3848 0.81108 0.11703 0.83676-0.2855 1.9914 0.32673 3.7516 1.3425 5.424 2.4231 0.69749 0.19959 0.49277-0.74001 0.41471-1.12-0.18132-1.2519-0.33816-2.509-0.56342-3.7535-0.54626-0.56314-1.4875-0.50422-2.2239-0.58247-1.728-0.14232-3.4225 0.56138-4.6416 1.7726-2.2066 1.701-4.4172 3.6162-5.5301 6.2409-1.4726 3.2874-1.6341 7.1878-0.31166 10.546 0.0821 0.12592 0.2365 0.20328 0.38762 0.16639z"/>
   <path d="m199.04 81.407c3.0022-0.79328 5.7761-2.5204 7.671-5.0014 1.0776-1.4109 2.6089-2.7189 2.7394-4.6122 0.18263-1.452-0.14418-2.9461-0.69102-4.2731-1.9434-2.0327-3.9678-4.0064-6.066-5.8727-0.76992-0.0193-0.3338 0.91689-0.34177 1.3719 0.15783 1.1299 0.0905 2.2902 0.30459 3.4033 1.7477 1.9492 3.1649 4.2418 3.7764 6.798-1.0976 0.0334 0.19739 0.86024-0.4131 1.12-1.4254 1.3802-3.1929 2.2168-5.0956 2.6985-0.66511 0.88664-1.0249 2.0192-1.6885 2.9206-0.20176 0.41289-0.94869 1.0754-0.32679 1.4415l0.10396 8e-3z"/>
  </g>
  <path d="m94.127 156.43c-27.885 28.852-55.668 57.802-83.499 86.706-0.06542 1.0852 0.57068 2.4651-0.42453 3.2956-0.07254 1.2484 1.623 0.16628 2.2921 0.28172 1.993-0.21582 3.1729-2.3357 4.7209-3.4119 26.279-24.976 52.066-50.465 78.115-75.68 2.2873-2.2249 4.5747-4.4498 6.862-6.6747-0.83847-1.4351-2.6216-2.5041-3.3956-4.1635-0.83924-0.78792-1.0767-3.9981-2.4038-2.6458-0.75599 0.76424-1.512 1.5285-2.268 2.2927z" fill="#ffe680" stroke="#000" stroke-width=".017689"/>
  <path d="m168.78 79.08c-20.208 20.714-40.325 41.526-60.204 62.558-1.3076 1.7138-3.3682 3.1165-4.1358 5.1393 1.1533 2.5949 3.371 4.9076 6.0297 5.9194 22.163-21.17 45.193-43.533 67.214-64.87 2.2035-1.5248-2.7576-2.2444-3.528-3.6994-1.6938-1.702-3.1586-4.5907-4.9806-6.1535z" fill="#ffe680" stroke="#000" stroke-width=".017689"/>
  <g fill="#ffb380" stroke="#000">
   <g stroke-width=".012508">
    <path d="m175.27 72.189c-1.9873 1.7235-3.6694 3.798-5.5154 5.6765 0.63327 1.4432 2.103 2.6004 3.1198 3.89 1.7332 1.7828 3.4717 3.8105 5.485 5.1448 1.9343-1.83 3.9799-3.7745 5.7394-5.7828-2.9386-2.8018-5.8411-5.6772-8.4736-8.7894-0.0951-0.086-0.21437-0.18185-0.35527-0.13908z"/>
    <path d="m103.17 146.89c-1.6078 1.9216-3.7242 3.4892-5.0068 5.6535-0.05313 2.3262 1.4844 4.4382 3.012 6.0772 0.63869 0.37615 1.4617 1.9854 2.2537 1.0621 2.1295-2.0264 4.3841-4.0048 6.3347-6.1649-2.225-1.3774-4.4087-3.0946-5.6199-5.5114-0.32022-0.29904-0.40858-1.3281-0.97371-1.1166z"/>
    <path d="m9.6219 244.42c-2.0565 1.2154-3.1044 3.6127-4.1483 5.6746-0.29275 0.96938-1.2047 1.9291-1.1325 2.9244 1.0355 0.18986 2.0083-0.87082 2.9884-1.1696 1.8745-1.0169 4.1977-2.0051 5.1107-4.0419-0.61118-0.55665-1.5939 0.41785-2.2789 0.53887-0.62234 0.21593-1.9854 1.2747-1.9967 0.0234 0.40169-1.3238 1.8762-2.4084 1.741-3.8331-0.064972-0.0863-0.1775-0.12863-0.28366-0.11659z"/>
   </g>
   <g stroke-width=".003127">
    <path d="m181.56 65.543c-0.46244 0.28921-0.79436 0.76539-1.2006 1.1303-1.4702 1.5246-2.9789 3.0182-4.3821 4.6038-0.0941 0.36246 0.32567 0.60923 0.48218 0.89655 2.4296 3.0779 5.2097 5.8644 8.1729 8.4274 0.37933 0.16742 0.58366-0.36403 0.85941-0.54139 1.7894-1.7629 3.6234-3.4828 5.3779-5.2798 0.15718-0.3983-0.40061-0.44472-0.6457-0.56147-0.47325-0.14037-0.93807-0.36394-1.4317-0.40736-0.37417 0.16107-0.36842 0.67452-0.63228 0.95186-0.91893 1.381-2.566 2.2682-4.2373 2.1384-1.9987-0.08506-3.8032-1.6036-4.2679-3.5427-0.21236-1.1189-0.15106-2.2958 0.41425-3.305 0.4818-1.0002 1.393-1.6864 2.3446-2.1959 0.18919-0.28182-0.0572-0.65931-0.0976-0.97522-0.1602-0.44062-0.25355-0.94819-0.57611-1.3018-0.0502-0.04074-0.12062-0.02495-0.17982-0.03764z"/>
    <path d="m174.78 70.944c-0.39623 0.12706-0.86898 0.04783-1.2125 0.29739-0.64787 0.80903-1.4145 1.5333-1.9687 2.4122-0.10047 0.30211-0.29254 0.64319-0.1914 0.95897 0.25278 0.31314 0.56194-0.1092 0.74106-0.28504 0.96102-0.99332 1.9369-1.9766 2.8402-3.0226 0.0939-0.1614-0.0208-0.36341-0.20862-0.36089z"/>
    <path d="m169.42 66.171c-2.3042-0.01863-4.3476 2.1737-4.1387 4.4751 0.0876 1.7243 1.5579 3.261 3.2924 3.3592 1.0424 0.04348 2.1522-0.31494 2.8087-1.1632 0.61227-0.6451 1.1812-1.39 1.7756-2.0112 0.27523 0.23738 0.54903-0.11878 0.50318-0.39727 0.0515-0.20755-0.13511-0.37964-0.30742-0.40266-0.0113-1.1338-0.47428-2.2753-1.3775-2.988-0.70311-0.59756-1.6369-0.90412-2.5564-0.87199zm0.10041 0.76734c1.1637-0.03714 2.2702 0.79231 2.6378 1.8817 0.53921 1.6018-0.5241 3.5299-2.1764 3.8973-0.78984 0.15103-1.6668 0.11171-2.3244-0.40358-1.1493-0.7712-1.5377-2.4671-0.77537-3.6367 0.42234-0.78102 1.099-1.4677 1.9957-1.6571 0.21006-0.05205 0.42631-0.07885 0.64266-0.08158z"/>
   </g>
  </g>
 </g>
 <g stroke="#000" stroke-width=".0088446">
  <path d="m100.21 159.21c-18.875 18.44-37.586 37.05-56.359 55.594-10.527 10.451-21.111 20.847-31.567 31.368-0.16909 0.74877 0.96964 0.5382 1.37 0.3515 1.7653-1.0506 3.1089-2.7024 4.665-4.0322 14.389-13.721 28.553-27.676 42.831-41.513 13.611-13.301 27.32-26.505 40.79-39.949 0.6159-0.59604-0.51788-1.0991-0.88931-1.4829-0.24996-0.14207-0.52127-0.48615-0.84094-0.3356z" fill="#ffd42a"/>
  <path d="m175.21 85.414c-1.7042 1.1101-3.0368 2.7442-4.5557 4.0959-20.449 20.031-40.763 40.2-61.086 60.359-0.37453 0.57672-1.3414 0.95402-1.3853 1.6582 0.63193 0.58367 1.4984 1.1386 2.3635 1.2139 5.0773-4.6507 9.9271-9.5622 14.901-14.329 17.385-16.899 34.757-33.81 52.135-50.716-0.017-0.73666-1.0788-1.1567-1.5507-1.7359-0.26477-0.16288-0.48246-0.55669-0.82188-0.54515z" fill="#ffd42a"/>
  <g fill="#ff7f2a">
   <path d="m181.38 78.814c-1.8783 1.9589-3.9632 3.7879-5.7159 5.8259 0.78706 0.81044 1.6501 1.6859 2.5864 2.3083 2.0076-1.7928 3.913-3.731 5.8817-5.5792-0.12356-0.87533-1.3882-1.3922-1.9543-2.1223-0.23634-0.1349-0.47976-0.65849-0.79796-0.4327z"/>
   <path d="m107.29 152.06c-2.0936 2.1762-4.3891 4.2256-6.3576 6.4802 0.60762 0.57642 1.3184 1.2236 2.1197 1.5329 1.5882-1.166 2.8911-2.748 4.3323-4.1077 0.73459-0.83955 1.6982-1.5476 2.2648-2.5017-0.52307-0.60534-1.4432-0.8932-2.0701-1.4333-0.0904 0.0381-0.21793-0.0988-0.28919 0.0295z"/>
   <path d="m12.154 247.48c-2.1324 0.53453-3.7012 2.1803-5.1333 3.7451-0.39422 0.48753 0.34559 0.8054 0.69554 0.43427 1.8253-0.85976 3.8927-1.8245 4.8061-3.7406 0.03675-0.22714-0.11161-0.4776-0.36838-0.43881z"/>
  </g>
 </g>
 <g fill="none" stroke="#000" stroke-width="1px">
  <path d="m183.13 67.971c-1.1063 0.28027-2.0918 1.01-2.6826 1.9864-0.52824 0.87306-0.73889 1.9337-0.58429 2.9424 0.1546 1.0087 0.6733 1.9576 1.4389 2.6322 0.55916 0.49272 1.2456 0.8397 1.974 0.99772s1.4969 0.12675 2.21-0.08993c0.71308-0.21668 1.3691-0.61829 1.8864-1.1548s0.89466-1.2068 1.0852-1.9273"/>
  <path d="m183.13 67.971-1.3294-3.2404"/>
  <path d="m188.45 73.358 3.3137 1.0111"/>
  <path d="m181.8 64.731-175.1 181.87"/>
  <path d="m10.575 250.65 181.19-176.28"/>
  <path d="m175.27 71.124c0.74736 0.99826 1.5271 1.9723 2.3376 2.92 2.084 2.437 4.3716 4.6999 6.8311 6.7574"/>
  <path d="m169.17 77.973c1.4819 1.9397 3.0837 3.7877 4.7932 5.5301 1.2249 1.2484 2.5051 2.4426 3.8356 3.5779"/>
  <path d="m170.68 75.924 0.64627-2.5263"/>
  <path d="m175.85 70.46-2.3501 0.41127"/>
  <path d="m171.32 73.398 2.1738-2.5263"/>
  <path d="m173.61 70.284c0.1076-1.0704-0.24025-2.1792-0.94003-2.9964-0.76247-0.89035-1.9244-1.4148-3.0965-1.4351-1.172-0.02029-2.338 0.45374-3.19 1.2588-0.80751 0.76302-1.3363 1.8251-1.4157 2.9332-0.0794 1.1081 0.30222 2.2501 1.0632 3.0595 0.66705 0.70961 1.6127 1.1501 2.5851 1.2041 0.97241 0.05402 1.961-0.27898 2.7026-0.91034"/>
  <path d="m167.56 68.286c-0.40388 0.36576-0.67807 0.87195-0.76378 1.4101-0.0901 0.56597 0.0294 1.1624 0.32825 1.6515 0.29883 0.48904 0.77405 0.8671 1.3168 1.0511 0.60095 0.20376 1.2765 0.16734 1.8595-0.08313 0.58303-0.25047 1.0706-0.70971 1.3719-1.2682 0.33618-0.62313 0.43879-1.3783 0.23501-2.0563-0.12532-0.41702-0.36324-0.79953-0.6814-1.0968s-0.71571-0.50872-1.1399-0.60698c-0.59966-0.13891-1.2499-0.04633-1.787 0.25442-0.53706 0.30075-0.95577 0.80678-1.1507 1.3906"/>
  <path d="m103.4 145.31c0.4868 1.7256 1.3557 3.3422 2.5264 4.7002 1.2571 1.4584 2.8611 2.6157 4.6414 3.3489"/>
  <path d="m97.588 152.07c0.13802 1.6564 0.6654 3.2791 1.5276 4.7002 1.0037 1.6544 2.4616 3.0302 4.1714 3.9364"/>
  <path d="m6.6978 246.6-3.6426 7.8141"/>
  <path d="m10.575 250.65-7.5203 3.7602"/>
  <path d="m9.5766 243.78c0.10241 0.0508 0.20074 0.10981 0.29376 0.17626 0.35178 0.25133 0.62461 0.61155 0.77121 1.0183"/>
  <path d="m13.807 247.48c-0.31343-0.21801-0.67917-0.36025-1.0575-0.41127-0.21413-0.0289-0.43214-0.0289-0.64628 0"/>
  <path d="m10.642 244.97-2.475 3.8582"/>
  <path d="m12.103 247.07-3.9364 1.7626"/>
 </g>
 <g fill="none" opacity=".99" stroke="#000" stroke-width="1px">
  <path transform="matrix(.93679 .93923 -.93923 .93679 122.75 -105.9)" d="m127.76 58.098c-0.77039 0.07101-1.4943 0.4712-2.0111 1.0469s-0.83272 1.317-0.95246 2.0814c-0.12669 0.8087-0.0351 1.6619 0.33206 2.3935 0.36714 0.73162 1.0222 1.3298 1.8083 1.558 0.74392 0.2159 1.5686 0.09011 2.2457-0.28621 0.67706-0.37632 1.2083-0.99004 1.5411-1.6895 0.25623-0.53858 0.40022-1.1322 0.40253-1.7286 2e-3 -0.59642-0.13855-1.1949-0.42134-1.72-0.28279-0.52512-0.7085-0.97484-1.2257-1.2718-0.51721-0.29701-1.1252-0.43829-1.7191-0.38355z"/>
  <path transform="matrix(.93679 .93923 -.93923 .93679 122.75 -105.9)" d="m124.96 43.444c0.28408 0.52454 0.72034 0.96551 1.2418 1.2552s1.1264 0.42714 1.7218 0.39123c0.62196-0.03751 1.2312-0.26445 1.7262-0.64294 0.49496-0.3785 0.8736-0.90703 1.0728-1.4974"/>
  <path transform="matrix(.93679 .93923 -.93923 .93679 122.75 -105.9)" d="m125.65 66.748c-0.0577-0.27283-0.18171-0.5314-0.35837-0.74716-0.35343-0.43165-0.92271-0.67697-1.4792-0.63741-0.55648 0.03956-1.0853 0.36294-1.3742 0.84025"/>
  <path transform="matrix(.93679 .93923 -.93923 .93679 122.75 -105.9)" d="m127.43 55.134c-0.94132 0.50406-1.8266 1.1127-2.6343 1.8111-1.9697 1.7031-3.4662 3.9479-4.2808 6.4211"/>
  <path transform="matrix(.93679 .93923 -.93923 .93679 122.75 -105.9)" d="m113.93 51.677c-0.28964 1.5233-0.23292 3.1113 0.16464 4.61 0.84875 3.1996 3.3193 5.9236 6.4211 7.0797"/>
  <path transform="matrix(.93679 .93923 -.93923 .93679 122.75 -105.9)" d="m125.62 53.158c-0.79708 0.68164-1.5663 1.3959-2.305 2.1404-1.3724 1.3831-2.6395 2.8706-3.7868 4.4454"/>
  <path transform="matrix(.93679 .93923 -.93923 .93679 122.75 -105.9)" d="m115.74 51.018c0.095 2.2622 0.78259 4.4969 1.9757 6.4211 0.51598 0.83216 1.1246 1.6068 1.8111 2.305"/>
  <path transform="matrix(.93679 .93923 -.93923 .93679 122.75 -105.9)" d="m122.82 65.342c0.44237-0.63267 0.72762-1.3743 0.82322-2.1404 0.0824-0.66044 0.0245-1.3376-0.16465-1.9757-0.19692-0.66422-0.53602-1.2859-0.98786-1.8111"/>
  <path transform="matrix(.93679 .93923 -.93923 .93679 122.75 -105.9)" d="m124.96 43.444c-0.0159-3.1282-0.0159-6.2565 0-9.3847 0.0439-8.6181 0.20852-17.236 0.49393-25.849"/>
  <path transform="matrix(.93679 .93923 -.93923 .93679 122.75 -105.9)" d="m130.73 42.95-1.9757-34.575"/>
  <path transform="matrix(.93679 .93923 -.93923 .93679 122.75 -105.9)" d="m136.82 67.976c-0.68265-0.04434-1.3512-0.28831-1.9019-0.69412-0.55074-0.4058-0.98179-0.97202-1.2264-1.6109-0.21792-0.56926-0.28782-1.1846-0.30765-1.7938-0.0198-0.60922 8e-3 -1.2195-0.0216-1.8283-0.10469-2.1153-0.93923-4.1877-2.3297-5.7853-1.3905-1.5976-3.3279-2.71-5.4086-3.1055"/>
  <path transform="matrix(.93679 .93923 -.93923 .93679 122.75 -105.9)" d="m127.43 55.134 3.1282 0.32929"/>
  <path transform="matrix(.93679 .93923 -.93923 .93679 122.75 -105.9)" d="m123.48 4.4237c-0.50707 1.5878-0.67655 3.2825-0.49393 4.9393 0.16454 1.4928 0.61404 2.9537 1.3172 4.2807"/>
  <path transform="matrix(.93679 .93923 -.93923 .93679 122.75 -105.9)" d="m123.98 53.817c-0.96873 0.02438-1.9427-0.2048-2.799-0.65858-1.3463-0.71352-2.3814-1.9921-2.799-3.4575"/>
  <path transform="matrix(.93679 .93923 -.93923 .93679 122.75 -105.9)" d="m122.82 55.463c-0.90743-0.165-1.7944-0.44217-2.6343-0.82322-1.7601-0.79851-3.3078-2.0596-4.4454-3.6222"/>
  <path transform="matrix(.93679 .93923 -.93923 .93679 122.75 -105.9)" d="m113.93 51.677 0.16464-1.9757"/>
  <path transform="matrix(.93679 .93923 -.93923 .93679 122.75 -105.9)" d="m123.98 53.817c0.50001-0.32201 1.0623-0.54692 1.6464-0.65858 0.95325-0.1822 1.9629-0.05648 2.8423 0.35393 0.87945 0.41041 1.6243 1.1035 2.097 1.9511"/>
  <path transform="matrix(-.79166 -.79372 -.93923 .93679 343.58 115.51)" d="m125.81 66.815c-0.16312-0.46806-0.48845-0.87786-0.90732-1.1429-0.41888-0.26503-0.92851-0.38354-1.4213-0.33051-0.55425 0.05964-1.0821 0.33756-1.4448 0.76081-0.36279 0.42325-0.55672 0.98735-0.53089 1.5442"/>
  <path transform="matrix(-.79166 -.79372 -.93923 .93679 343.58 115.51)" d="m127.43 55.134c-0.94132 0.50406-1.8266 1.1127-2.6343 1.8111-1.9697 1.7031-3.4662 3.9479-4.2808 6.4211"/>
  <path transform="matrix(-.79166 -.79372 -.93923 .93679 343.58 115.51)" d="m122.82 65.342c0.44237-0.63267 0.72762-1.3743 0.82322-2.1404 0.0824-0.66044 0.0245-1.3376-0.16465-1.9757-0.19692-0.66422-0.53602-1.2859-0.98786-1.8111"/>
  <path transform="matrix(-.79166 -.79372 -.93923 .93679 343.58 115.51)" d="m127.43 55.134 3.1282 0.32929"/>
  <path transform="matrix(.93679 .93923 -.93923 .93679 122.75 -105.9)" d="m130.73 42.95c5.8074-0.4217 11.63-0.6414 17.452-0.65858 0.49393-0.0015 0.98787-0.0015 1.4818 0"/>
  <path transform="matrix(.93679 .93923 -.93923 .93679 122.75 -105.9)" d="m149.66 42.292 1.8111-0.98786 1.6464-1.4818"/>
  <path transform="matrix(1.0121 .85474 1.02 -1.2078 25.75 .16299)" d="m130.73 42.95c5.8074-0.4217 11.63-0.6414 17.452-0.65858 0.49393-0.0015 0.98787-0.0015 1.4818 0"/>
  <path transform="matrix(1.0121 .85474 1.02 -1.2078 25.75 .16299)" d="m149.66 42.292 1.8111-0.98786 1.6464-1.4818"/>
  <path transform="matrix(.93679 .93923 -.93923 .93679 122.75 -105.9)" d="m153.12 39.822c0.50795 0.97496 1.2475 1.8283 2.1404 2.4697 1.1006 0.79059 2.4332 1.2541 3.7868 1.3172"/>
  <path transform="matrix(.93679 .93923 -.93923 .93679 122.75 -105.9)" d="m153.27 47.908c0.13935-1.2855 0.81046-2.5051 1.8218-3.3108 1.095-0.87235 2.5748-1.2423 3.9515-0.98786"/>
  <path transform="matrix(-1.0079 -1.0106 -.93923 .93679 371.12 144.05)" d="m149.66 42.292 1.8111-0.98786 1.6464-1.4818"/>
  <path transform="matrix(-.92289 -1.0853 1.2177 -1.0096 264.45 240.42)" d="m149.66 42.292 1.8111-0.98786 1.6464-1.4818"/>
  <path transform="matrix(-1.0079 -1.0106 -.93923 .93679 371.12 144.05)" d="m153.12 39.822c0.50795 0.97496 1.2475 1.8283 2.1404 2.4697 1.1006 0.79059 2.4332 1.2541 3.7868 1.3172"/>
  <path transform="matrix(-1.0079 -1.0106 -.93923 .93679 371.12 144.05)" d="m153.27 47.908c0.13935-1.2855 0.81046-2.5051 1.8218-3.3108 1.095-0.87235 2.5748-1.2423 3.9515-0.98786"/>
  <path transform="matrix(.93679 .93923 -.93923 .93679 122.75 -105.9)" d="m124.31 13.644c-0.73563 0.40158-1.4504 0.84142-2.1404 1.3172-1.318 0.90876-2.5614 1.9662-3.4575 3.2929-1.1096 1.6426-1.6331 3.6236-1.8111 5.5979-0.30741 3.4104 0.37082 6.8656 1.6464 10.043 1.4396 3.5861 3.6432 6.8633 6.4211 9.5494"/>
  <path transform="matrix(.93679 .93923 -.93923 .93679 122.75 -105.9)" d="m123.48 4.4237c-1.5624 3.1976-3.154 6.3809-4.7747 9.5494-1.5648 3.0594-3.1572 6.106-4.61 9.2201-1.2136 2.6014-2.335 5.2666-2.9636 8.0676-0.57257 2.5515-0.71662 5.2762 0.16464 7.7383 0.84263 2.3541 2.5596 4.299 4.4557 5.9289 1.8961 1.6299 4.0004 3.0024 5.9169 4.6083 0.85884 0.71964 1.6815 1.4873 2.6054 2.1213 2.0252 1.3899 4.5028 2.1159 6.2854 3.8058 0.96104 0.91107 1.6772 2.078 2.0544 3.3474"/>
  <path transform="matrix(.93679 .93923 -.93923 .93679 122.75 -105.9)" d="m124.96 43.444c3.6306 1.3696 6.9654 3.5174 9.714 6.2565 2.2974 2.2894 4.2215 5.0693 4.9393 8.2322 0.53418 2.3538 0.36233 4.8925-0.65857 7.0797-0.51848 1.1108-1.2489 2.1222-2.1404 2.9636"/>
  <path transform="matrix(.93679 .93923 -.93923 .93679 122.75 -105.9)" d="m104.68 45.764 12.383 0.4797"/>
  <path transform="matrix(.93679 .93923 -.93923 .93679 122.75 -105.9)" d="m104.59 42.786 8.8469 0.16464"/>
  <path transform="matrix(.93679 .93923 -.93923 .93679 122.75 -105.9)" d="m130.73 42.95c2.8507-2.4869 5.0771-5.6839 6.4211-9.2201 1.8065-4.7531 1.949-10.272-0.32929-14.818-1.1981-2.3905-3.035-4.4571-5.2686-5.9272"/>
  <path transform="matrix(.93679 .93923 -.93923 .93679 122.75 -105.9)" d="m131.39 4.753c0.80001 1.1576 1.2626 2.5454 1.3172 3.9515 0.0581 1.4993-0.34949 3.0133-1.1525 4.2807"/>
  <path transform="matrix(.93679 .93923 -.93923 .93679 122.75 -105.9)" d="m131.39 4.753c2.5231 4.9434 5.4444 9.6835 8.7262 14.159 1.6537 2.2554 3.4415 4.5303 4.1161 7.2443 0.70832 2.8496 0.0898 5.901-1.1525 8.5615-1.5342 3.2856-4.0212 6.1196-7.0797 8.0676"/>
  <path transform="matrix(.93679 .93923 -.93923 .93679 122.75 -105.9)" d="m114.1 49.701c0.18001-0.72005 0.51984-1.3997 0.98787-1.9757 0.52435-0.64535 1.2094-1.1591 1.9757-1.4818"/>
  <path transform="matrix(.93679 .93923 -.93923 .93679 122.75 -105.9)" d="m121.34 49.372c-0.99695-0.06684-2.0056 0.04524-2.9636 0.32929-0.94608 0.28053-1.8422 0.7286-2.6343 1.3172"/>
  <path transform="matrix(-1.1017 -1.1046 -.93923 .93679 381.56 153.59)" d="m113.93 51.677c-0.23355 1.5289-0.17739 3.1016 0.16464 4.61 0.31866 1.4053 0.88491 2.7542 1.6649 3.9658"/>
  <path transform="matrix(-1.1017 -1.1046 -.93923 .93679 381.56 153.59)" d="m115.74 51.018c-0.0575 0.97885 0.0643 1.968 0.35763 2.9036 0.20947 0.66819 0.5059 1.3091 0.87944 1.9014"/>
  <path transform="matrix(-1.1017 -1.1046 -.93923 .93679 381.56 153.59)" d="m122.82 65.342c0.44237-0.63267 0.72762-1.3743 0.82322-2.1404 0.0824-0.66044 0.0245-1.3376-0.16465-1.9757-0.19692-0.66422-0.53602-1.2859-0.98786-1.8111"/>
  <path transform="matrix(-1.1017 -1.1046 -.93923 .93679 381.56 153.59)" d="m113.93 51.677 0.16464-1.9757"/>
  <path transform="matrix(-1.1017 -1.1046 -.93923 .93679 381.56 153.59)" d="m114.1 49.701c0.18001-0.72005 0.51984-1.3997 0.98787-1.9757 0.52435-0.64535 1.2094-1.1591 1.9757-1.4818"/>
  <path transform="matrix(-1.1017 -1.1046 -.93923 .93679 381.56 153.59)" d="m121.34 49.372c-0.99695-0.06684-2.0056 0.04524-2.9636 0.32929-0.94608 0.28053-1.8422 0.7286-2.6343 1.3172"/>
  <path transform="matrix(.93679 .93923 -.93923 .93679 122.75 -105.9)" d="m140.15 51.018c-0.49735 0.34557-1.0058 0.67508-1.5244 0.98786-0.37892 0.22854-0.76324 0.44815-1.1525 0.65858"/>
  <path transform="matrix(.93679 .93923 -.93923 .93679 122.75 -105.9)" d="m137.48 49.536-1.3172 1.3172"/>
  <path transform="matrix(.63164 .71272 -.76371 .67684 149.79 -65.889)" d="m124.55-12.716c-1.6676-0.64018-3.1817-1.6762-4.3825-2.9985-0.92724-1.0211-1.6718-2.2189-2.0982-3.5307-0.42646-1.3117-0.52709-2.7391-0.20836-4.081 0.36297-1.5282 1.274-2.9183 2.523-3.8707 1.249-0.95245 2.8262-1.4626 4.3967-1.4344 2.3064 0.04142 4.5385 1.262 5.9073 3.1188s1.8774 4.2976 1.4738 6.5688c-0.42947 2.4165-1.8797 4.6346-3.9212 5.9971"/>
  <path transform="matrix(.63164 .71272 -.76371 .67684 149.79 -65.889)" d="m124.32-16.175c-0.87213-0.38682-1.7321-0.82186-2.4767-1.4183s-1.373-1.3673-1.6751-2.2722c-0.26313-0.7884-0.2674-1.6548-0.0522-2.4576 0.21522-0.8028 0.64492-1.5419 1.2055-2.1556 0.81973-0.89744 1.9468-1.5363 3.1558-1.6613 0.60451-0.06249 1.2236 0.0032 1.7966 0.20584 0.57295 0.20266 1.0985 0.54335 1.506 0.99418 0.57119 0.63186 0.89423 1.4573 1.0442 2.2958 0.14995 0.83846 0.13754 1.6968 0.1091 2.548-0.0298 0.89324-0.081 1.8058-0.41769 2.6337-0.16834 0.41395-0.40853 0.80217-0.72865 1.114-0.32011 0.3118-0.72251 0.54486-1.1602 0.63481-0.39055 0.08026-0.79809 0.04574-1.1852-0.04963-0.38714-0.09536-0.75688-0.25003-1.1214-0.41169z"/>
  <path transform="matrix(.93679 .93923 -.93923 .93679 122.75 -105.9)" d="m125.46 8.2105 3.2929 0.16464"/>
  <path transform="matrix(.93679 .93923 -.93923 .93679 122.75 -105.9)" d="m125.59 2.3686c-0.24558 0.43815-0.4633 0.8919-0.65141 1.3576-0.33452 0.8282-0.57751 1.7257-0.44853 2.6096 0.10359 0.70985 0.45235 1.3816 0.97336 1.8747"/>
  <path transform="matrix(.93679 .93923 -.93923 .93679 122.75 -105.9)" d="m128.24 2.3475c0.465 0.55732 0.81312 1.2117 1.0154 1.9088 0.39625 1.3653 0.20958 2.8895-0.50441 4.1189"/>
  <path transform="matrix(.93679 .93923 -.93923 .93679 122.75 -105.9)" d="m125.38-7.2014v2.895"/>
  <path transform="matrix(.93679 .93923 -.93923 .93679 122.75 -105.9)" d="m122.9-4.2249 2.4873-0.08155"/>
  <path transform="matrix(.93679 .93923 -.93923 .93679 122.75 -105.9)" d="m123.47-2.4716 1.998 0.040775"/>
  <path transform="matrix(.93679 .93923 -.93923 .93679 122.75 -105.9)" d="m125.58-0.29811-0.11281-2.1327"/>
  <path transform="matrix(.93679 .93923 -.93923 .93679 122.75 -105.9)" d="m127.14-7.6092 0.0815 3.1804"/>
  <path transform="matrix(.93679 .93923 -.93923 .93679 122.75 -105.9)" d="m128.97-4.5103-1.7534 0.08155"/>
  <path transform="matrix(.93679 .93923 -.93923 .93679 122.75 -105.9)" d="m127.14-2.1861v2.3649"/>
  <path transform="matrix(.93679 .93923 -.93923 .93679 122.75 -105.9)" d="m128.77-2.4716-1.631 0.28542"/>
  <path transform="matrix(.93679 .93923 -.93923 .93679 122.75 -105.9)" d="m125.1 15.429c0.66104 0.04791 1.3133 0.21445 1.9164 0.4893 1.0047 0.45788 1.8681 1.2205 2.4465 2.1611"/>
  <path transform="matrix(.93679 .93923 -.93923 .93679 122.75 -105.9)" d="m127.1 46.744c2.6692 0.97981 5.0803 2.6534 6.9317 4.8114 1.6603 1.9352 2.8744 4.2703 3.3843 6.7686 0.33554 1.644 0.36098 3.3805-0.1631 4.9745-0.29827 0.90719-0.77163 1.7565-1.3863 2.4873"/>
  <path transform="matrix(.93679 .93923 -.93923 .93679 122.75 -105.9)" d="m135.94 65.296c0.25994-1.2173 0.36977-2.4665 0.3262-3.7105-0.0889-2.537-0.83334-5.065-2.2426-7.1764-0.55787-0.8358-1.2165-1.6043-1.9572-2.2834"/>
  <path transform="matrix(.93679 .93923 -.93923 .93679 122.75 -105.9)" d="m136.02 64.766c0.065-1.3347-0.17377-2.6832-0.69318-3.9144-0.32086-0.76054-0.74759-1.4763-1.264-2.1203"/>
  <path transform="matrix(.93679 .93923 -.93923 .93679 122.75 -105.9)" d="m114.82 27.579c-0.74305 1.9279-1.0787 4.0117-0.97859 6.0754 0.22453 4.6286 2.7511 9.0891 6.6055 11.662"/>
  <path transform="matrix(.93679 .93923 -.93923 .93679 122.75 -105.9)" d="m96.677 43.889 7.9103 0.40775"/>
  <path transform="matrix(.93679 .93923 -.93923 .93679 122.75 -105.9)" d="m100.8 41.076-0.1631 2.9766"/>
  <path transform="matrix(.93679 .93923 -.93923 .93679 122.75 -105.9)" d="m101 47.804-0.36697-3.7513"/>
  <path transform="matrix(.93679 .93923 -.93923 .93679 122.75 -105.9)" d="m159.05 43.609-10.504 0.28041"/>
  <path transform="matrix(.93679 .93923 -.93923 .93679 122.75 -105.9)" d="m153.12 39.822c0.0143 0.22744 0.0247 0.45512 0.0311 0.68292 0.0295 1.0487-0.0251 2.0997-0.1631 3.1397"/>
  <path transform="matrix(.93679 .93923 -.93923 .93679 122.75 -105.9)" d="m153.03 47.396-0.0408-3.7513"/>
  <path transform="matrix(.93679 .93923 -.93923 .93679 122.75 -105.9)" d="m104.59 44.297 10.642 0.36697"/>
  <path transform="matrix(.93679 .93923 -.93923 .93679 122.75 -105.9)" d="m148.54 43.889-16.269 0.57085"/>
  <path transform="matrix(.93679 .93923 -.93923 .93679 122.75 -105.9)" d="m130.73 42.95c0.16377 0.4104 0.43151 0.77883 0.77129 1.0613 0.23055 0.19167 0.4937 0.34403 0.77472 0.44852"/>
  <path transform="matrix(.93679 .93923 -.93923 .93679 122.75 -105.9)" d="m130.68 46.1 1.5976-1.6398"/>
 </g>
</svg>
