<?xml version="1.0" encoding="UTF-8" standalone="no"?>
<svg
   xmlns:dc="http://purl.org/dc/elements/1.1/"
   xmlns:cc="http://creativecommons.org/ns#"
   xmlns:rdf="http://www.w3.org/1999/02/22-rdf-syntax-ns#"
   xmlns:svg="http://www.w3.org/2000/svg"
   xmlns="http://www.w3.org/2000/svg"
   xmlns:xlink="http://www.w3.org/1999/xlink"
   xmlns:sodipodi="http://sodipodi.sourceforge.net/DTD/sodipodi-0.dtd"
   xmlns:inkscape="http://www.inkscape.org/namespaces/inkscape"
   version="1.1"
   id="svg4206"
   viewBox="0 0 256 256"
   sodipodi:docname="scythe.svg"
   inkscape:version="0.92.3 (2405546, 2018-03-11)">
  <sodipodi:namedview
     pagecolor="#ffffff"
     bordercolor="#666666"
     borderopacity="1"
     objecttolerance="10"
     gridtolerance="10"
     guidetolerance="10"
     inkscape:pageopacity="0"
     inkscape:pageshadow="2"
     inkscape:window-width="1920"
     inkscape:window-height="1017"
     id="namedview58"
     showgrid="false"
     inkscape:zoom="5.6568543"
     inkscape:cx="17.649796"
     inkscape:cy="64.239678"
     inkscape:window-x="1912"
     inkscape:window-y="-8"
     inkscape:window-maximized="1"
     inkscape:current-layer="svg4206"
     inkscape:snap-global="false"
     showguides="false" />
  <style
     id="style3">
    svg { cursor: default; }
  </style>
  <defs
     id="defs4208">
    <linearGradient
       id="innoGrad2"
       inkscape:collect="always">
      <stop
         id="stop5070"
         offset="0"
         style="stop-color:#d40000;stop-opacity:1" />
      <stop
         id="stop5072"
         offset="1"
         style="stop-color:#000000;stop-opacity:1" />
    </linearGradient>
    <linearGradient
       inkscape:collect="always"
       id="innoGrad1">
      <stop
         style="stop-color:#ff9955;stop-opacity:1;"
         offset="0"
         id="stop5054" />
      <stop
         style="stop-color:#000000;stop-opacity:1"
         offset="1"
         id="stop5056" />
    </linearGradient>
    <inkscape:path-effect
       effect="powerstroke"
       id="path-effect907"
       is_visible="true"
       offset_points="0.55768567,0.32361255"
       sort_points="true"
       interpolator_type="CubicBezierJohan"
       interpolator_beta="0.2"
       start_linecap_type="zerowidth"
       linejoin_type="extrp_arc"
       miter_limit="4"
       end_linecap_type="zerowidth" />
    <inkscape:path-effect
       effect="powerstroke"
       id="path-effect903"
       is_visible="true"
       offset_points="0.36787538,0.40439423"
       sort_points="true"
       interpolator_type="CubicBezierJohan"
       interpolator_beta="0.2"
       start_linecap_type="zerowidth"
       linejoin_type="extrp_arc"
       miter_limit="4"
       end_linecap_type="zerowidth" />
    <inkscape:path-effect
       effect="powerstroke"
       id="path-effect880"
       is_visible="true"
       offset_points="0.43866375,0.47000421"
       sort_points="true"
       interpolator_type="CubicBezierJohan"
       interpolator_beta="0.2"
       start_linecap_type="zerowidth"
       linejoin_type="extrp_arc"
       miter_limit="4"
       end_linecap_type="zerowidth" />
    <inkscape:path-effect
       effect="powerstroke"
       id="path-effect876"
       is_visible="true"
       offset_points="0.31349214,0.3253567"
       sort_points="true"
       interpolator_type="CubicBezierJohan"
       interpolator_beta="0.2"
       start_linecap_type="zerowidth"
       linejoin_type="extrp_arc"
       miter_limit="4"
       end_linecap_type="zerowidth" />
    <inkscape:path-effect
       effect="powerstroke"
       id="path-effect872"
       is_visible="true"
       offset_points="0.47974354,0.61540457"
       sort_points="true"
       interpolator_type="CubicBezierJohan"
       interpolator_beta="0.2"
       start_linecap_type="zerowidth"
       linejoin_type="extrp_arc"
       miter_limit="4"
       end_linecap_type="zerowidth" />
    <inkscape:path-effect
       effect="powerstroke"
       id="path-effect868"
       is_visible="true"
       offset_points="0.22476176,0.72470812"
       sort_points="true"
       interpolator_type="CubicBezierJohan"
       interpolator_beta="0.2"
       start_linecap_type="zerowidth"
       linejoin_type="extrp_arc"
       miter_limit="4"
       end_linecap_type="zerowidth" />
    <inkscape:path-effect
       effect="powerstroke"
       id="path-effect880-1"
       is_visible="true"
       offset_points="0.43759178,0.29829899"
       sort_points="true"
       interpolator_type="CubicBezierJohan"
       interpolator_beta="0.2"
       start_linecap_type="zerowidth"
       linejoin_type="extrp_arc"
       miter_limit="4"
       end_linecap_type="zerowidth" />
    <linearGradient
       inkscape:collect="always"
       xlink:href="#innoGrad1"
       id="linearGradient5060"
       x1="153.1875"
       y1="69.5625"
       x2="128.75"
       y2="48.375"
       gradientUnits="userSpaceOnUse" />
    <linearGradient
       inkscape:collect="always"
       xlink:href="#innoGrad2"
       id="linearGradient5068"
       x1="154.25"
       y1="56.25"
       x2="143.375"
       y2="53"
       gradientUnits="userSpaceOnUse" />
  </defs>
  <metadata
     id="metadata4211">
    <rdf:RDF>
      <cc:Work
         rdf:about="">
        <dc:format>image/svg+xml</dc:format>
        <dc:type
           rdf:resource="http://purl.org/dc/dcmitype/StillImage" />
        <dc:title></dc:title>
      </cc:Work>
    </rdf:RDF>
  </metadata>
  <path
     style="fill:#72cbff;fill-opacity:1;stroke:#000000;stroke-width:0.57550675;stroke-linecap:butt;stroke-linejoin:miter;stroke-miterlimit:4;stroke-dasharray:none;stroke-opacity:1"
     d="m 32.598844,220.1777 c -3.080143,6.24449 0.0529,10.43241 4.473919,13.01207 -1.214549,-5.40292 1.447949,-8.24846 4.250225,-12.73985 l 9.339308,-0.16333 c 3.301176,5.94164 0.435116,9.44545 -2.181036,14.4276 10.782607,-5.74387 11.009545,-9.62767 7.1826,-18.53457 l -17.752236,0.84037 z"
     id="path4657"
     inkscape:connector-curvature="0"
     sodipodi:nodetypes="cccccccc" />
  <path
     style="fill:#c8ebff;fill-opacity:1;stroke:#000000;stroke-width:0.2;stroke-linecap:butt;stroke-linejoin:miter;stroke-miterlimit:4;stroke-dasharray:none;stroke-opacity:1"
     d="m 36.636971,232.84225 c -9.21981,-20.41689 31.062684,-17.69614 12.418562,1.19325 l 2.607456,-6.0988 0.397748,-3.49134 -0.972272,-3.18198 -0.662913,-1.06066 -9.280776,0.17678 -2.386486,4.02167 c -1.40043,1.7876 -1.756358,3.54445 -2.12132,5.70104 z"
     id="path5040"
     inkscape:connector-curvature="0"
     sodipodi:nodetypes="cccccccccc" />
  <path
     style="fill:#ffdd55;fill-opacity:1;stroke:#000000;stroke-width:0.57550675;stroke-linecap:butt;stroke-linejoin:miter;stroke-miterlimit:4;stroke-dasharray:none;stroke-opacity:1"
     d="m 136.76665,29.519338 1.45403,-1.524426 2.90805,2.613303 1.23033,-1.088877 1.34217,-0.544437 2.23696,1.851089 1.67772,17.095356 c 0.22369,4.609578 -1.92396,8.490129 -5.70425,11.868752 l -18.11938,19.27311 -5.14501,13.610953 0.89479,13.175399 2.12511,7.62213 -4.02653,12.52208 c 0,0 -23.040686,18.94645 -23.040686,19.38199 0,0.43556 -6.710877,5.22661 -6.710877,5.22661 l -4.138377,4.24663 -10.849252,15.57093 -15.546872,29.07299 -3.131744,15.57093 2.684351,0.43554 -1.565871,8.49325 -5.033161,0.32665 -0.447391,-2.17774 -3.467289,-1.08888 -3.355439,0.43554 -0.894784,1.63333 -2.23696,0.10891 -7.717513,-0.76222 -0.335544,-2.28664 2.7962,-2.28664 1.677721,-2.83108 3.91468,-0.65332 12.862519,-23.84639 13.869153,-23.73751 36.238756,-47.91056 3.91468,-8.92877 -0.4474,-7.83991 2.57251,-10.67099 c 0,0 7.60566,-22.97529 8.05306,-22.97529 0.44738,0 -2.01327,-3.266628 -2.01327,-3.266628 l -1.11848,-2.504415 -2.23696,-2.177753 1.67771,-1.524426 1.90142,0.653325 0.55925,-0.871101 1.45401,1.197763 1.11848,-0.326662 0.89479,-0.979988 1.11848,1.30665 8.3886,-4.137729 3.57913,-3.375517 3.80283,-5.879931 1.90143,-10.126549 z"
     id="path4635"
     inkscape:connector-curvature="0"
     sodipodi:nodetypes="cccccccccccccsccccccccccccccccccccccccsccccccccccccccc" />
  <path
     style="fill:url(#linearGradient5060);fill-opacity:1;stroke:#000000;stroke-width:0.57550675;stroke-linecap:butt;stroke-linejoin:miter;stroke-miterlimit:4;stroke-dasharray:none;stroke-opacity:1"
     d="m 149.22839,41.123161 4.19169,-2.463846 c 35.54778,23.825654 78.65315,49.857796 67.22521,92.317225 C 214.29114,97.4612 181.23547,69.357112 148.75386,68.302459 l -5.06166,2.309855 -2.29357,-1.847883 -1.42359,3.002811 -3.95442,0.461971 c -5.26474,4.434141 -9.30556,10.953464 -12.89143,18.247857 -1.94908,6.454569 -0.3612,14.49838 0.23727,22.09762 l -4.74532,-12.39623 1.4236,-13.320163 9.5697,-15.707017 c 0,0 12.73326,-10.933315 12.65416,-10.625334 -0.0791,0.307981 6.95979,-19.402785 6.95979,-19.402785 z"
     id="path4639"
     inkscape:connector-curvature="0"
     sodipodi:nodetypes="cccccccccccccsc" />
  <path
     style="opacity:1;fill:#ff7f2a;fill-opacity:1;stroke:#000000;stroke-width:0.2;stroke-linecap:butt;stroke-linejoin:miter;stroke-miterlimit:4;stroke-dasharray:none;stroke-opacity:1"
     d="M 157.625,59.375 C 184.23307,65.431376 196.89176,80.4434 211.25,95 198.48483,75.994424 180.8822,64.042717 160.9519,55.934898 Z"
     id="path5050"
     inkscape:connector-curvature="0"
     sodipodi:nodetypes="cccc" />
  <path
     style="fill:#d4ba58;fill-opacity:1;stroke:#000000;stroke-width:0.57550675;stroke-linecap:butt;stroke-linejoin:miter;stroke-miterlimit:4;stroke-dasharray:none;stroke-opacity:1"
     d="m 145.89187,30.332127 2.34881,-2.395529 c 3.45862,22.871373 -2.1063,18.880325 17.89568,31.577412 -4.78972,-0.264729 -9.26476,-0.121003 -13.42177,0.43555 -11.92687,2.894055 -22.52716,10.735786 -28.07384,20.525318 -5.25647,12.00948 -6.10524,19.551342 -1.34218,31.849632 1.69103,14.67721 -20.79446,28.49735 -35.816931,38.69561 8.370639,-7.43019 17.458371,-14.85137 24.855831,-22.41691 1.93593,-2.12177 3.73613,-4.16802 4.64169,-5.7166 1.21931,-2.21404 3.46057,-7.58584 3.18767,-9.79989 l -3.13175,-9.691 -2.23696,-1.63331 2.34881,-1.52443 0.33554,-7.295469 -1.78957,-2.504415 2.01327,-1.85109 3.69099,-7.186584 -1.45403,-3.375516 3.24359,-1.197764 9.73078,-10.235437 9.01103,-8.115996 c 2.94428,-4.934139 4.70089,-9.476424 5.16447,-12.424856 z"
     id="path4637"
     inkscape:connector-curvature="0"
     sodipodi:nodetypes="ccccccccccccccccccccccc" />
  <path
     style="fill:#72cbff;fill-opacity:1;stroke:#000000;stroke-width:0.57550675;stroke-linecap:butt;stroke-linejoin:miter;stroke-miterlimit:4;stroke-dasharray:none;stroke-opacity:1"
     d="m 115.53414,27.065497 c 3.48109,1.058982 7.29828,2.947972 9.48744,5.86452 1.88374,2.509661 2.56202,5.78017 0.78338,9.937397 -3.91833,10.181548 -11.56292,7.462109 -18.88312,5.757833 1.11942,5.605668 5.34028,8.256214 11.4085,9.14656 29.01432,-1.538978 20.42641,-43.422873 -2.7962,-30.70631 z"
     id="path4641"
     inkscape:connector-curvature="0"
     sodipodi:nodetypes="cscccc" />
  <path
     style="opacity:1;fill:#72cbff;fill-opacity:1;fill-rule:nonzero;stroke:#000000;stroke-width:0.57554281;stroke-linecap:round;stroke-miterlimit:4;stroke-dasharray:none;stroke-dashoffset:0;stroke-opacity:1;paint-order:markers stroke fill"
     id="path4645"
     sodipodi:type="arc"
     sodipodi:cx="120.48409"
     sodipodi:cy="1.5182"
     sodipodi:rx="3.7669458"
     sodipodi:ry="3.9757812"
     sodipodi:start="0"
     sodipodi:end="6.2787281"
     sodipodi:open="true"
     d="m 124.25104,1.5182 a 3.7669458,3.9757812 0 0 1 -3.76275,3.9757788 3.7669458,3.9757812 0 0 1 -3.77113,-3.9669183 3.7669458,3.9757812 0 0 1 3.75434,-3.9846194 3.7669458,3.9757812 0 0 1 3.7795,3.9580381"
     transform="matrix(0.95293671,0.3031693,-0.31822603,0.94801487,0,0)" />
  <path
     style="fill:url(#linearGradient5068);fill-opacity:1;stroke:#000000;stroke-width:0.57550675;stroke-linecap:butt;stroke-linejoin:miter;stroke-miterlimit:4;stroke-dasharray:none;stroke-opacity:1"
     d="m 144.79944,60.217964 c 7.34732,-2.76287 11.68846,-3.087726 15.42225,-2.463844 -4.26576,-2.148948 -8.55169,-4.318599 -11.15149,-9.008438 z"
     id="path4914"
     inkscape:connector-curvature="0"
     sodipodi:nodetypes="cccc" />
  <path
     style="fill:#c8ebff;fill-opacity:1;stroke:#000000;stroke-width:0.2;stroke-linecap:butt;stroke-linejoin:miter;stroke-miterlimit:4;stroke-dasharray:none;stroke-opacity:1"
     d="m 115.82169,27.137103 c 24.1422,-3.29722 15.35434,39.031541 -9.34819,21.285113 11.98865,3.169726 16.44255,0.860877 18.64844,-5.369218 3.88215,-10.903821 -4.23107,-13.742492 -9.30025,-15.915895 z"
     id="path5014"
     inkscape:connector-curvature="0"
     sodipodi:nodetypes="cccc" />
  <path
     style="fill:#c8ebff;fill-opacity:1;stroke:#000000;stroke-width:0.2;stroke-linecap:butt;stroke-linejoin:miter;stroke-miterlimit:4;stroke-dasharray:none;stroke-opacity:1"
     d="m 115.66906,39.639562 c -0.4679,0.260767 -0.47487,0.562003 -0.29126,0.796557 1.58862,0.696711 2.6154,-2.67839 1.82581,-2.325665 -1.12957,1.020481 -0.63953,1.055944 -1.53455,1.529108 z"
     id="path5038"
     inkscape:connector-curvature="0"
     sodipodi:nodetypes="cccc" />
  <path
     style="fill:none;stroke:#000000;stroke-width:0;stroke-linecap:butt;stroke-linejoin:miter;stroke-opacity:1;stroke-miterlimit:4;stroke-dasharray:none"
     d="m 111.19254,117.58385 c -0.2357,0 -0.4714,0 -0.70711,0 -0.11785,0.0589 -0.22358,0.15511 -0.35355,0.17677 -0.40089,0.0668 -0.74112,-0.14276 -1.06066,0.17678 -0.26072,0.26072 -0.45844,0.70122 -0.53033,1.06066 -0.0231,0.11556 0,0.2357 0,0.35355 0,0.0589 0.0327,0.12775 0,0.17678 -0.0924,0.13868 -0.27902,0.20448 -0.35355,0.35356 -0.0527,0.1054 0.0527,0.24814 0,0.35355 -0.82483,1.64965 0.0944,-0.67199 -0.70711,0.53033 -0.0654,0.0981 0.0833,0.27022 0,0.35355 -0.18634,0.18634 -0.45711,0.27022 -0.70711,0.35356 -0.1118,0.0373 -0.27022,-0.0833 -0.35355,0 -0.0833,0.0833 0.0833,0.27022 0,0.35355 -0.0833,0.0833 -0.2357,0 -0.35355,0 -0.64818,0 -1.29637,0 -1.94455,0"
     id="path5046"
     inkscape:connector-curvature="0" />
  <path
     style="fill:#ffb380;fill-opacity:1;stroke:#000000;stroke-width:0.2;stroke-linecap:butt;stroke-linejoin:miter;stroke-miterlimit:4;stroke-dasharray:none;stroke-opacity:1"
     d="M 220.26376,130.0466 C 215.02668,91.101973 177.87169,67.576302 148.25499,66.833771 l -5.68459,2.666816 1.06066,1.325825 4.94975,-2.386485 c 38.9852,1.805669 67.074,35.043453 71.68295,61.606673 z"
     id="path5048"
     inkscape:connector-curvature="0"
     sodipodi:nodetypes="cccccc" />
</svg>
