<?xml version="1.0" encoding="UTF-8" standalone="no"?>
<svg
   xmlns:dc="http://purl.org/dc/elements/1.1/"
   xmlns:cc="http://creativecommons.org/ns#"
   xmlns:rdf="http://www.w3.org/1999/02/22-rdf-syntax-ns#"
   xmlns:svg="http://www.w3.org/2000/svg"
   xmlns="http://www.w3.org/2000/svg"
   xmlns:xlink="http://www.w3.org/1999/xlink"
   xmlns:sodipodi="http://sodipodi.sourceforge.net/DTD/sodipodi-0.dtd"
   xmlns:inkscape="http://www.inkscape.org/namespaces/inkscape"
   inkscape:version="1.0 (4035a4fb49, 2020-05-01)"
   sodipodi:docname="smart_shoes.svg"
   id="svg92"
   viewBox="0 0 256 256"
   version="1.1"
   cursor="default">
  <metadata
     id="metadata96">
    <rdf:RDF>
      <cc:Work
         rdf:about="">
        <dc:format>image/svg+xml</dc:format>
        <dc:type
           rdf:resource="http://purl.org/dc/dcmitype/StillImage" />
      </cc:Work>
    </rdf:RDF>
  </metadata>
  <sodipodi:namedview
     inkscape:current-layer="svg92"
     inkscape:window-maximized="0"
     inkscape:window-y="215"
     inkscape:window-x="146"
     inkscape:cy="115.04354"
     inkscape:cx="176.43948"
     inkscape:zoom="0.83007813"
     showgrid="false"
     id="namedview94"
     inkscape:window-height="480"
     inkscape:window-width="719"
     inkscape:pageshadow="2"
     inkscape:pageopacity="0"
     guidetolerance="10"
     gridtolerance="10"
     objecttolerance="10"
     borderopacity="1"
     bordercolor="#666666"
     pagecolor="#ffffff" />
  <defs
     id="defs20">
    <linearGradient
       id="innoGrad2">
      <stop
         id="stop2"
         offset="0"
         stop-color="#ff2a2a" />
      <stop
         id="stop4"
         offset="1"
         stop-color="#f55" />
    </linearGradient>
    <linearGradient
       id="innoGrad1">
      <stop
         id="stop7"
         offset="0"
         stop-color="#ff8080" />
      <stop
         id="stop9"
         offset="1"
         stop-color="#faa" />
    </linearGradient>
    <linearGradient
       xlink:href="#innoGrad1"
       gradientUnits="userSpaceOnUse"
       gradientTransform="matrix(1.0721 0 0 1.0721 -6.1266 -14.27)"
       y2="176.2"
       y1="194.38"
       x2="158.85"
       x1="130.82"
       id="linearGradient1" />
    <linearGradient
       xlink:href="#innoGrad1"
       gradientUnits="userSpaceOnUse"
       gradientTransform="matrix(1.0721 0 0 1.0721 -6.1266 -14.27)"
       y2="150.69"
       y1="177.97"
       x2="124.25"
       x1="81.822"
       id="linearGradient3" />
    <linearGradient
       xlink:href="#innoGrad1"
       gradientUnits="userSpaceOnUse"
       gradientTransform="matrix(1.0721 0 0 1.0721 -6.1266 -14.27)"
       y2="111.8"
       y1="131.75"
       x2="101.77"
       x1="62.377"
       id="linearGradient5" />
    <linearGradient
       xlink:href="#innoGrad1"
       gradientUnits="userSpaceOnUse"
       gradientTransform="matrix(1.0721 0 0 1.0721 -6.1266 -14.27)"
       y2="148.86"
       y1="172.79"
       x2="218.39"
       x1="189.29"
       id="linearGradient7" />
    <linearGradient
       xlink:href="#innoGrad1"
       gradientUnits="userSpaceOnUse"
       gradientTransform="matrix(1.0721 0 0 1.0721 -6.1266 -14.27)"
       y2="123.32"
       y1="148.68"
       x2="188.75"
       x1="149.29"
       id="linearGradient9" />
    <linearGradient
       xlink:href="#innoGrad1"
       gradientUnits="userSpaceOnUse"
       gradientTransform="matrix(1.0721 0 0 1.0721 -6.1266 -14.27)"
       y2="95.643"
       y1="107.07"
       x2="155.71"
       x1="115.36"
       id="linearGradient11" />
    <linearGradient
       xlink:href="#innoGrad2"
       gradientUnits="userSpaceOnUse"
       gradientTransform="matrix(1.0721,0,0,1.0721,-6.1266,-14.27)"
       y2="81.309"
       y1="120.94"
       x2="43.913"
       x1="37.906"
       id="linearGradient939" />
    <linearGradient
       xlink:href="#innoGrad2"
       gradientUnits="userSpaceOnUse"
       gradientTransform="matrix(1.0721,0,0,1.0721,-6.1266,-14.27)"
       y2="72.488"
       y1="92.622"
       x2="102.59"
       x1="98.755"
       id="linearGradient947" />
    <radialGradient
       inkscape:collect="always"
       xlink:href="#linearGradient3140"
       id="radialGradient3144"
       cx="292.85712"
       cy="239.99997"
       fx="292.85712"
       fy="239.99997"
       r="393.30099"
       gradientTransform="matrix(1,0,0,1.0566994,25.714286,0.67785129)"
       gradientUnits="userSpaceOnUse" />
    <linearGradient
       inkscape:collect="always"
       id="linearGradient3140">
      <stop
         style="stop-color:#aa0000;stop-opacity:1;"
         offset="0"
         id="stop3136" />
      <stop
         style="stop-color:#aa0000;stop-opacity:0;"
         offset="1"
         id="stop3138" />
    </linearGradient>
    <filter
       inkscape:collect="always"
       style="color-interpolation-filters:sRGB"
       id="filter1156"
       x="-1.2340198e-06"
       width="1.0000025"
       y="-1.1678056e-06"
       height="1.0000023">
      <feGaussianBlur
         inkscape:collect="always"
         stdDeviation="0.00040445001"
         id="feGaussianBlur1158" />
    </filter>
  </defs>
  <ellipse
     style="opacity:0.945161;fill:url(#radialGradient3144);fill-opacity:1;stroke-width:3.249;stroke-miterlimit:4;stroke-dasharray:none;filter:url(#filter1156)"
     id="ellipse21"
     fill="url(#radialGradient861)"
     ry="415.60001"
     rx="393.30002"
     cy="254.28572"
     cx="318.57141"
     transform="matrix(0.3243997,0,0,0.30908996,24.354345,51.511081)" />
  <g
     transform="matrix(0.38744436,0,0,0.38747142,-12.146535,-29.754365)"
     id="g51">
    <g
       id="g9835"
       transform="matrix(5.50712,0,0,5.50712,-1052,-2439.67)">
      <path
         style="font-size:12px;fill:#ffffff;fill-opacity:0.991667;fill-rule:evenodd;stroke:#000000;stroke-width:2.37996;stroke-linejoin:round;stroke-dasharray:none"
         sodipodi:nodetypes="cccccsc"
         id="path575"
         d="m 219.80889,506.70145 c 0.17336,-0.77182 -1.18327,10.40982 -0.92326,7.98714 1.71907,-9.49782 0.99747,-19.79129 4.82366,-28.82652 0.95343,-1.9939 2.1669,-3.25883 3.72706,-3.17308 22.189,0.68607 45.07143,-22.29728 61.71317,28.81495 51.3121,24.01248 3.56789,43.30821 -37.05389,41.59305 -40.13982,-1.68049 -74.41118,-30.61591 -32.28674,-46.39554 z" />
      <path
         style="font-size:12px;fill:#ffffff;fill-rule:evenodd;stroke:#000000;stroke-width:1.18998"
         sodipodi:nodetypes="ccccc"
         id="path576"
         d="m 218.76878,513.56216 c 25.65603,16.12267 67.95382,6.17463 69.68734,-1.71517 2.42694,2.74428 0,10.29106 0,10.29106 -11.09449,14.40749 -64.83351,11.32016 -70.72746,1.0291 -0.6934,-2.74429 0.69341,-8.57588 1.04012,-9.60499 z" />
      <path
         style="font-size:12px;fill:#ffffff;fill-opacity:0.316667;fill-rule:evenodd;stroke:#000000;stroke-width:0.447037pt"
         sodipodi:nodetypes="ccccc"
         id="path590"
         d="m 223.82207,516.53199 c 4.16045,2.05821 16.09559,5.15963 20.94945,5.50266 3.46703,2.40126 1.73351,6.62106 0.34671,9.36535 -9.361,0 -20.1088,-2.40124 -22.88242,-5.48857 -1.73352,-3.08731 -0.14726,-6.29214 1.58626,-9.37944 z" />
    </g>
    <path
       style="fill:#e9afaf;stroke:#e9afaf;stroke-width:2.02031"
       d="m 331.54187,22.099945 c -57.65047,1.079757 -112.3924,24.67945 -170.10418,24.681656 -15.33447,6.074781 -17.25932,26.024578 -21.56128,39.872887 -8.81266,40.220562 -11.57949,81.956272 -16.06295,122.485462 45.35792,26.7907 98.09851,39.41435 150.37739,42.67672 66.73188,1.52759 136.34143,-2.41742 197.23346,-32.37396 9.53435,-5.68918 25.44429,-13.18053 20.49899,-27.01763 C 474.67252,140.82899 452.52159,87.572296 411.38337,50.281622 389.63887,30.558343 360.80291,20.94215 331.54187,22.099945 Z"
       id="path11"
       transform="translate(38.2538,179.345)" />
    <path
       style="fill:#e9afaf;stroke:#e9afaf;stroke-width:2.02031"
       d="m 109.60424,184.24521 c -33.586285,13.37578 -68.298432,33.69674 -84.623949,67.43558 -5.261889,19.11681 -3.455117,40.88696 9.126886,56.9 36.413914,51.02536 97.287413,76.86007 155.651283,93.79144 98.43002,27.14385 203.64472,21.57005 301.97758,-3.01011 41.88593,-12.12297 87.12008,-26.70477 115.87734,-61.44745 16.31867,-19.04801 10.21477,-48.37705 -7.25257,-64.48798 -24.67433,-28.54955 -58.13565,-47.70528 -91.75815,-63.55675 -3.6129,19.71674 1.43082,45.78653 -17.14498,59.52008 -43.11913,33.01054 -99.54585,39.80522 -152.07998,43.74811 -66.23522,2.73132 -134.49605,-0.37526 -197.29469,-23.2649 -16.17588,-7.23758 -39.64775,-16.9869 -37.71104,-38.56731 0.26861,-22.36588 6.5363,-44.97683 5.86362,-67.02125 -0.20079,-0.0755 -0.42457,-0.0442 -0.63135,-0.0395 z"
       id="path13"
       transform="translate(38.2538,179.345)" />
    <path
       style="fill:#ffccaa;stroke:#ffccaa;stroke-width:1.42857"
       d="m 117.10019,215.81333 c -5.21318,14.51655 -4.41693,30.34323 -5.26228,45.46317 5.59661,3.95451 10.41309,11.25725 16.80525,13.31473 0.14831,-7.63493 -2.61365,-15.70464 0.27902,-23.37054 1.93375,-8.42575 6.63569,-16.25433 9.16294,-24.29966 -6.99285,-3.49103 -13.94416,-8.44711 -20.98493,-11.1077 z"
       id="path15"
       transform="translate(38.2538,179.345)" />
    <path
       style="fill:#ffccaa;stroke:#ffccaa;stroke-width:1.42857"
       d="m 142.28992,229.04156 c -6.88602,14.28349 -16.07177,33.36758 -5.20089,48.07757 11.93403,10.72398 29.15995,12.37073 44.07366,16.649 24.05081,4.92673 48.37576,9.78255 72.93248,10.86774 8.38274,-0.6032 9.10408,-11.53296 11.39509,-17.70089 3.34962,-11.42175 -0.3914,-28.82916 -14.75726,-29.49498 -37.08408,-4.51301 -73.69718,-13.55747 -107.95759,-28.59375 z"
       id="path17"
       transform="translate(38.2538,179.345)" />
    <path
       style="fill:#ffccaa;stroke:#ffccaa;stroke-width:1.42857"
       d="m 498.64874,209.79491 c -11.61419,9.82157 -24.30404,18.54572 -38.79186,23.73605 -37.9101,14.318 -78.2411,23.0627 -118.75669,25.00839 -25.17751,0.98043 -51.13928,-0.35488 -75.80803,1.07699 9.57419,13.77634 3.72773,31.00322 -1.22489,45.14509 7.5731,3.28476 17.0874,0.58873 25.27579,1.38291 52.10336,-0.10401 105.41854,-1.54065 154.89088,-19.74838 18.64548,-7.41087 39.39151,-15.85711 50.53924,-33.47605 4.94977,-13.49847 6.18552,-28.71633 4.48382,-42.85714 -0.137,-0.18557 -0.37258,-0.31613 -0.60826,-0.26786 z"
       id="path19"
       transform="translate(38.2538,179.345)" />
    <path
       transform="translate(38.2538,179.345)"
       id="path18"
       d="m 108.9445,184.13085 c -26.133547,10.39909 -51.839049,24.39308 -70.178569,46.29743 -9.116596,10.07194 -18.02777,22.314 -15.95974,36.7048 -0.633741,13.32141 -0.364469,27.66561 8.60483,38.49051 34.542532,50.15443 92.315619,77.62236 149.083379,94.48556 49.42986,13.94767 100.8453,22.25016 152.32287,20.14614 67.22784,0.10933 134.77317,-10.38475 198.20627,-32.8455 31.46377,-11.41115 63.10497,-28.4026 82.09507,-56.92571 6.302,-11.10306 4.3179,-24.95614 1.30859,-36.75781 -9.2099,-20.29105 -27.6777,-34.45168 -44.2368,-48.56643 -18.83596,-13.99957 -39.54923,-25.83659 -61.1315,-34.95199 -2.93844,3.65413 -1.5239,10.697 -2.69503,15.46046 -1.12126,15.97928 -2.5494,34.90021 -17.53097,44.48932 -36.3047,27.12426 -82.60774,35.45194 -126.65637,40.22666 -45.04382,2.29099 -90.46129,3.17933 -135.35869,-1.43861 -36.43111,-5.81897 -74.46469,-11.80207 -106.52289,-31.22946 -8.79469,-5.22394 -15.71799,-14.24576 -14.3305,-24.98594 -1.39552,-22.70488 6.00892,-45.06331 4.643,-67.63961 -0.22055,-0.70513 -0.91278,-1.2051 -1.66295,-0.95982 z"
       style="fill:#aa0000;stroke:#aa0000;stroke-width:1.42857" />
    <path
       transform="translate(38.2538,179.345)"
       id="path20"
       d="m 332.99306,21.287654 c -57.14975,1.339435 -111.53077,23.21537 -168.61608,24.734933 -16.83052,2.784274 -20.26497,22.480929 -24.00111,36.146763 -9.02103,40.33142 -12.7184,81.64519 -16.77177,122.68136 0.9144,9.78908 13.69638,10.82553 20.24142,15.53973 61.96629,29.85638 132.43349,36.67435 200.27071,30.6326 47.3829,-3.21863 95.95434,-12.46516 137.1525,-37.14889 7.51411,-4.45374 14.10434,-12.86293 10.58036,-22.01171 C 477.1962,145.11691 457.1674,98.448096 423.74919,61.876381 400.96114,35.98755 367.7936,19.985651 332.99306,21.287654 Z"
       style="fill:#aa0000;stroke:#aa0000;stroke-width:1.42857" />
    <path
       transform="translate(38.2538,179.345)"
       id="path22"
       d="m 498.16577,211.80189 c -9.55102,4.47252 -17.60877,11.87989 -27.18191,16.42299 -0.83464,3.00401 -3.91606,0.55375 -6.26116,2.77623 -34.10495,14.89058 -71.14648,22.62183 -108.06641,26.23046 -29.18836,1.58981 -58.68162,0.12616 -87.70926,2.97433 -3.28397,3.08845 1.84697,8.42163 0.47618,12.46257 0.88262,10.95842 -2.3685,21.6455 -4.5052,32.09659 11.3184,2.78223 24.00089,0.72678 35.76658,1.19652 43.62037,-1.1294 88.2676,-1.5899 130.16256,-15.07208 2.19958,-0.87568 4.06794,0.12852 6.16628,-2.02009 3.96893,-0.79535 8.75487,-3.07904 11.94754,-4.21875 9.56765,-2.73823 18.80426,-8.41582 27.30749,-13.78627 4.05889,-2.54772 8.86733,-5.84074 12.07589,-10.09208 11.50577,-11.06372 10.82704,-28.51772 12.03404,-43.23661 -0.38374,-1.55995 0.54878,-6.0717 -2.21262,-5.73381 z"
       style="fill:#803300;stroke:#803300;stroke-width:1.42857" />
    <path
       transform="translate(38.2538,179.345)"
       id="path24"
       d="m 117.23107,216.07644 c -3.61492,6.17953 -3.42887,14.94019 -4.34152,22.20982 -0.39601,8.04839 -0.89417,16.19583 -0.82031,24.19922 5.21651,3.01354 9.24652,8.43516 14.07366,11.40067 4.85598,-2.55243 0.57277,-10.75835 2.12054,-15.1144 -0.55093,-3.88984 1.53132,-7.95848 1.87779,-11.23326 0.0803,-1.53367 2.38662,-3.64872 1.58482,-5.63337 0.81242,-4.99289 8.41753,-10.80067 4.96652,-15.92076 -2.90728,-2.7646 -6.98115,-2.3346 -9.22154,-5.61104 -3.1825,-1.79635 -6.57223,-3.7997 -10.23996,-4.29688 z"
       style="fill:#803300;stroke:#803300;stroke-width:1.42857" />
    <path
       transform="translate(38.2538,179.345)"
       id="path26"
       d="m 144.2958,229.12332 c -6.06195,3.47204 -6.65191,12.49425 -9.4308,18.38169 -2.71327,10.22185 -5.77315,24.66216 4.91071,31.50112 3.87907,4.027 9.07283,5.91399 14.08203,7.46373 23.07468,7.56432 47.62595,11.59669 71.74609,15.52308 11.03816,0.27685 22.47861,5.15616 33.11441,1.26821 6.84161,-9.94028 9.15127,-23.27446 6.28069,-34.86607 -4.4333,-7.82841 -12.50424,-12.77307 -21.61104,-12.25493 -18.70191,-3.00627 -37.75198,-6.04215 -55.83874,-11.64016 -9.84951,-2.40576 -19.86938,-6.41498 -29.71261,-9.73493 -4.17517,-2.63452 -8.39419,-2.28272 -12.32422,-5.50782 -0.39367,-0.11425 -0.80633,-0.17933 -1.21652,-0.13392 z"
       style="fill:#d4aa00;stroke:#d4aa00;stroke-width:1.42857" />
  </g>
</svg>
