<?xml version="1.0" encoding="UTF-8" standalone="no"?>
<svg
   xmlns:dc="http://purl.org/dc/elements/1.1/"
   xmlns:cc="http://creativecommons.org/ns#"
   xmlns:rdf="http://www.w3.org/1999/02/22-rdf-syntax-ns#"
   xmlns:svg="http://www.w3.org/2000/svg"
   xmlns="http://www.w3.org/2000/svg"
   xmlns:sodipodi="http://sodipodi.sourceforge.net/DTD/sodipodi-0.dtd"
   xmlns:inkscape="http://www.inkscape.org/namespaces/inkscape"
   version="1.1"
   id="svg4206"
   viewBox="0 0 256 256"
   sodipodi:docname="sabre.svg"
   inkscape:version="0.92.3 (2405546, 2018-03-11)">
  <sodipodi:namedview
     pagecolor="#ffffff"
     bordercolor="#666666"
     borderopacity="1"
     objecttolerance="10"
     gridtolerance="10"
     guidetolerance="10"
     inkscape:pageopacity="0"
     inkscape:pageshadow="2"
     inkscape:window-width="1920"
     inkscape:window-height="1001"
     id="namedview58"
     showgrid="false"
     inkscape:zoom="4.0000002"
     inkscape:cx="42.534097"
     inkscape:cy="69.10314"
     inkscape:window-x="-9"
     inkscape:window-y="-9"
     inkscape:window-maximized="1"
     inkscape:current-layer="svg4206"
     inkscape:snap-global="true"
     showguides="false"
     inkscape:snap-bbox="false" />
  <style
     id="style3">
    svg { cursor: default; }
  </style>
  <defs
     id="defs4208">
    <inkscape:path-effect
       effect="powerstroke"
       id="path-effect907"
       is_visible="true"
       offset_points="0.55768567,0.32361255"
       sort_points="true"
       interpolator_type="CubicBezierJohan"
       interpolator_beta="0.2"
       start_linecap_type="zerowidth"
       linejoin_type="extrp_arc"
       miter_limit="4"
       end_linecap_type="zerowidth" />
    <inkscape:path-effect
       effect="powerstroke"
       id="path-effect903"
       is_visible="true"
       offset_points="0.36787538,0.40439423"
       sort_points="true"
       interpolator_type="CubicBezierJohan"
       interpolator_beta="0.2"
       start_linecap_type="zerowidth"
       linejoin_type="extrp_arc"
       miter_limit="4"
       end_linecap_type="zerowidth" />
    <inkscape:path-effect
       effect="powerstroke"
       id="path-effect880"
       is_visible="true"
       offset_points="0.43866375,0.47000421"
       sort_points="true"
       interpolator_type="CubicBezierJohan"
       interpolator_beta="0.2"
       start_linecap_type="zerowidth"
       linejoin_type="extrp_arc"
       miter_limit="4"
       end_linecap_type="zerowidth" />
    <inkscape:path-effect
       effect="powerstroke"
       id="path-effect876"
       is_visible="true"
       offset_points="0.31349214,0.3253567"
       sort_points="true"
       interpolator_type="CubicBezierJohan"
       interpolator_beta="0.2"
       start_linecap_type="zerowidth"
       linejoin_type="extrp_arc"
       miter_limit="4"
       end_linecap_type="zerowidth" />
    <inkscape:path-effect
       effect="powerstroke"
       id="path-effect872"
       is_visible="true"
       offset_points="0.47974354,0.61540457"
       sort_points="true"
       interpolator_type="CubicBezierJohan"
       interpolator_beta="0.2"
       start_linecap_type="zerowidth"
       linejoin_type="extrp_arc"
       miter_limit="4"
       end_linecap_type="zerowidth" />
    <inkscape:path-effect
       effect="powerstroke"
       id="path-effect868"
       is_visible="true"
       offset_points="0.22476176,0.72470812"
       sort_points="true"
       interpolator_type="CubicBezierJohan"
       interpolator_beta="0.2"
       start_linecap_type="zerowidth"
       linejoin_type="extrp_arc"
       miter_limit="4"
       end_linecap_type="zerowidth" />
    <inkscape:path-effect
       effect="powerstroke"
       id="path-effect880-1"
       is_visible="true"
       offset_points="0.43759178,0.29829899"
       sort_points="true"
       interpolator_type="CubicBezierJohan"
       interpolator_beta="0.2"
       start_linecap_type="zerowidth"
       linejoin_type="extrp_arc"
       miter_limit="4"
       end_linecap_type="zerowidth" />
  </defs>
  <metadata
     id="metadata4211">
    <rdf:RDF>
      <cc:Work
         rdf:about="">
        <dc:format>image/svg+xml</dc:format>
        <dc:type
           rdf:resource="http://purl.org/dc/dcmitype/StillImage" />
        <dc:title />
      </cc:Work>
    </rdf:RDF>
  </metadata>
  <path
     style="fill:none;stroke:#000000;stroke-width:1.19750953px;stroke-linecap:butt;stroke-linejoin:miter;stroke-opacity:1"
     d="M 118.63659,169.78191 C 159.9522,129.81309 223.6909,91.625796 226.94405,16.644838 196.63341,73.050445 180.54529,95.221455 117.7636,145.37783 c 5.46389,7.54074 -4.12425,14.23065 0.87299,24.40408 z"
     id="path955"
     inkscape:connector-curvature="0"
     sodipodi:nodetypes="cccc" />
  <path
     style="fill:none;stroke:#000000;stroke-width:1.19750953px;stroke-linecap:butt;stroke-linejoin:miter;stroke-opacity:1"
     d="m 117.7636,145.37783 -19.82816,13.02828 c -0.5361,11.22927 4.12234,16.90408 9.96654,22.8529 l 10.73461,-11.4771"
     id="path957"
     inkscape:connector-curvature="0" />
  <path
     style="fill:none;stroke:#000000;stroke-width:1.19750953px;stroke-linecap:butt;stroke-linejoin:miter;stroke-opacity:1"
     d="m 107.90198,181.25901 c -3.17631,18.61194 -7.1543,42.47714 -26.542456,52.75387 14.337486,-26.39644 27.089036,-65.23905 -13.323677,-76.46106 9.35865,-4.58423 22.039026,-2.37203 29.899593,0.85429"
     id="path959"
     inkscape:connector-curvature="0"
     sodipodi:nodetypes="cccc" />
  <path
     style="fill:none;stroke:#000000;stroke-width:1.19750953px;stroke-linecap:butt;stroke-linejoin:miter;stroke-opacity:1"
     d="m 84.192124,228.67342 c -17.383588,8.16779 -46.243218,10.9767 -61.267954,-0.8543"
     id="path963"
     inkscape:connector-curvature="0" />
  <path
     style="fill:none;stroke:#000000;stroke-width:1.19750953px;stroke-linecap:butt;stroke-linejoin:miter;stroke-opacity:1"
     d="m 22.92417,227.81912 c 18.863641,-9.64261 30.879104,9.88621 67.142965,-12.38756"
     id="path965"
     inkscape:connector-curvature="0"
     sodipodi:nodetypes="cc" />
  <path
     style="fill:none;stroke:#000000;stroke-width:1.19750953px;stroke-linecap:butt;stroke-linejoin:miter;stroke-opacity:1"
     d="m 94.578294,182.86085 -3.776792,8.22278 -11.273092,2.15945 -37.090817,32.01309"
     id="path969"
     inkscape:connector-curvature="0"
     sodipodi:nodetypes="cccc" />
  <path
     style="fill:none;stroke:#000000;stroke-width:1.19750953px;stroke-linecap:butt;stroke-linejoin:miter;stroke-opacity:1"
     d="m 90.172042,171.43441 -12.799122,3.73761 -4.19644,11.21287 -41.020151,34.81329 3.671879,3.41726"
     id="path971"
     inkscape:connector-curvature="0" />
  <path
     style="fill:none;stroke:#000000;stroke-width:1.19750953px;stroke-linecap:butt;stroke-linejoin:miter;stroke-opacity:1"
     d="m 38.45098,216.17909 6.534109,6.75362"
     id="path973"
     inkscape:connector-curvature="0"
     sodipodi:nodetypes="cc" />
  <path
     style="fill:none;stroke:#000000;stroke-width:1.19750953px;stroke-linecap:butt;stroke-linejoin:miter;stroke-opacity:1"
     d="m 32.156329,221.19818 c -5.908844,-0.213 -4.336665,2.85164 -4.196437,4.48515"
     id="path975"
     inkscape:connector-curvature="0"
     sodipodi:nodetypes="cc" />
  <path
     style="fill:none;stroke:#000000;stroke-width:1.19750953px;stroke-linecap:butt;stroke-linejoin:miter;stroke-opacity:1"
     d="m 73.17648,186.38489 6.35193,6.85819"
     id="path979"
     inkscape:connector-curvature="0"
     sodipodi:nodetypes="cc" />
  <path
     style="fill:none;stroke:#000000;stroke-width:1.19750953px;stroke-linecap:butt;stroke-linejoin:miter;stroke-opacity:1"
     d="m 119.86182,149.22225 42.27908,-36.84228 c 12.93483,-10.29484 11.50196,-0.28073 1.99331,8.64992 l -47.00007,41.75458"
     id="path994"
     inkscape:connector-curvature="0"
     sodipodi:nodetypes="cccc" />
  <path
     style="opacity:1;fill:#ffe680;fill-opacity:1;stroke:none;stroke-width:0.125;stroke-opacity:1"
     d="m 42.159961,219.04066 -2.892103,-2.98426 16.889782,-14.334 c 9.28938,-7.88369 16.933711,-14.31845 16.987404,-14.29947 0.05369,0.019 1.291587,1.32241 2.750877,2.89649 l 2.653255,2.86198 -0.368561,0.32552 c -1.520619,1.34306 -32.973736,28.4579 -33.041653,28.48427 -0.04779,0.0186 -1.388344,-1.30918 -2.979001,-2.95053 z"
     id="path1009"
     inkscape:connector-curvature="0" />
  <path
     style="opacity:1;fill:#ffccaa;fill-opacity:1;stroke:none;stroke-width:0.125;stroke-opacity:1"
     d="m 83.219337,232.03635 c 0,-0.0276 0.66937,-1.39165 1.487487,-3.03125 6.51575,-13.05829 10.172578,-24.55226 11.009994,-34.60609 0.287352,-3.4499 0.103952,-8.18374 -0.43585,-11.25 -0.91805,-5.21485 -3.213483,-10.27956 -6.37041,-14.05588 -0.991158,-1.18563 -3.33963,-3.47513 -4.547784,-4.4336 -3.274722,-2.59794 -7.461034,-4.82704 -12.252408,-6.52408 l -2.025671,-0.71747 0.411071,-0.1754 c 0.869914,-0.37117 3.596656,-1.04397 5.278318,-1.30237 2.096758,-0.32218 6.749925,-0.38757 9.007753,-0.12658 3.917893,0.45288 8.409015,1.49721 11.449755,2.66244 l 0.949756,0.36396 0.07422,2.09199 c 0.276886,7.80406 2.56899,12.81366 8.944442,19.54889 l 0.98799,1.04374 -0.674,3.81218 c -2.44683,13.83932 -4.72093,21.93346 -8.175721,29.09962 -1.258376,2.61021 -1.980598,3.88154 -3.564757,6.27505 -2.936419,4.43666 -6.092876,7.69958 -10.197687,10.54166 -1.119581,0.77517 -1.3565,0.91196 -1.3565,0.78319 z"
     id="path1011"
     inkscape:connector-curvature="0" />
  <path
     style="opacity:1;fill:#ffb380;fill-opacity:1;stroke:none;stroke-width:0.08838835;stroke-opacity:1"
     d="m 47.407882,235.03522 c -9.178618,-0.54337 -16.462599,-2.64014 -22.207572,-6.3927 -0.522596,-0.34136 -0.950175,-0.64929 -0.950175,-0.68431 0,-0.10275 1.804743,-0.82807 3.049398,-1.22553 1.252979,-0.40012 3.181824,-0.8136 4.640388,-0.99474 0.572522,-0.0711 1.876226,-0.1137 3.402952,-0.11119 2.77423,0.005 3.603121,0.0729 9.059805,0.74642 5.830088,0.71965 7.899599,0.8817 11.269514,0.88246 3.146135,7e-4 5.636155,-0.19457 8.529475,-0.6689 7.228146,-1.18497 15.145889,-4.18825 23.113553,-8.7672 0.68059,-0.39113 1.248218,-0.70047 1.261397,-0.68741 0.09372,0.0929 -2.528772,6.09965 -4.034887,9.24186 l -0.8685,1.81197 -1.095821,0.49575 c -2.278789,1.03093 -6.121493,2.40493 -8.97304,3.20841 -5.811588,1.63751 -11.126507,2.57252 -17.401847,3.06136 -1.574974,0.12268 -7.227647,0.17652 -8.79464,0.0838 z"
     id="path1013"
     inkscape:connector-curvature="0" />
  <path
     style="opacity:1;fill:#ffb380;fill-opacity:1;stroke:none;stroke-width:0.08838835;stroke-opacity:1"
     d="m 77.00086,189.54605 c -1.520199,-1.63636 -2.829748,-3.05879 -2.91011,-3.16095 -0.139642,-0.17753 -0.05916,-0.41815 1.8177,-5.43419 l 1.963811,-5.24844 5.866399,-1.71079 c 3.226519,-0.94093 5.894518,-1.68108 5.928887,-1.64478 0.189372,0.20001 1.16181,1.90551 1.67554,2.93862 1.02368,2.05862 1.753195,4.10589 2.292453,6.43339 l 0.251589,1.0859 -1.754979,3.81966 c -0.965238,2.10081 -1.807521,3.84803 -1.871741,3.88271 -0.09619,0.052 -10.268277,2.01407 -10.441409,2.01407 -0.02978,0 -1.297941,-1.33884 -2.81814,-2.9752 z"
     id="path1015"
     inkscape:connector-curvature="0" />
  <path
     style="opacity:1;fill:#ff9955;fill-opacity:1;stroke:none;stroke-width:0.04419417;stroke-opacity:1"
     d="m 41.408369,224.73761 c -1.20331,-0.15641 -3.07745,-0.31466 -4.69331,-0.3963 -0.542861,-0.0274 -0.55943,-0.0312 -0.508233,-0.11512 0.04297,-0.0704 0.03986,-0.0967 -0.01652,-0.13932 -0.03819,-0.0289 -0.748656,-0.68593 -1.578807,-1.46007 l -1.509366,-1.40752 0.429759,-0.36484 c 0.236367,-0.20066 1.390299,-1.18003 2.564293,-2.17637 l 2.134534,-1.81153 0.588873,0.60078 c 1.485849,1.51591 5.284621,5.46214 5.284621,5.48976 0,0.0581 -2.080981,1.82853 -2.156448,1.83469 -0.04145,0.003 -0.284175,-0.021 -0.539396,-0.0542 z"
     id="path1017"
     inkscape:connector-curvature="0" />
  <path
     style="opacity:1;fill:#ff9955;fill-opacity:1;stroke:none;stroke-width:0.04419417;stroke-opacity:1"
     d="m 28.462506,224.856 c -0.02495,-0.11163 -0.07931,-0.43843 -0.120808,-0.72622 -0.135647,-0.94068 0.01006,-1.42036 0.539636,-1.7766 0.475456,-0.31983 1.230284,-0.49187 2.340278,-0.5334 l 0.662912,-0.0248 1.342446,1.25226 1.342445,1.25225 -0.988892,0.0532 c -1.612833,0.0868 -3.328634,0.31108 -4.621768,0.60408 l -0.450895,0.10217 z"
     id="path1019"
     inkscape:connector-curvature="0" />
  <path
     style="opacity:1;fill:#ffccaa;fill-opacity:1;stroke:none;stroke-width:0.0625;stroke-opacity:1"
     d="m 106.79627,179.18215 c -2.8674,-3.06724 -4.53322,-5.33745 -5.83116,-7.94683 -1.208892,-2.43035 -1.903848,-4.81278 -2.252357,-7.72147 -0.12681,-1.05837 -0.228075,-3.58465 -0.1696,-4.23108 l 0.04917,-0.54358 9.437497,-6.20029 c 5.19063,-3.41016 9.47781,-6.20306 9.52708,-6.20643 0.22851,-0.0156 1.01355,1.85586 1.20342,2.86888 0.10465,0.55831 0.10279,2.39801 -0.003,3.0625 -0.1367,0.85793 -0.42912,2.09894 -0.88775,3.76755 -0.8872,3.22787 -1.17898,4.63514 -1.31505,6.34256 -0.18687,2.34484 0.2341,4.78442 1.21791,7.05807 l 0.0998,0.23068 -4.97269,5.31619 c -2.73498,2.92391 -4.99295,5.3162 -5.01773,5.3162 -0.0248,0 -0.51324,-0.50083 -1.08548,-1.11295 z"
     id="path1021"
     inkscape:connector-curvature="0" />
  <path
     style="opacity:1;fill:#ff5555;fill-opacity:1;stroke:none;stroke-width:0.08838835;stroke-opacity:1"
     d="m 118.02026,160.9425 c 0,-0.34068 0.40684,-2.075 0.94543,-4.03027 0.85706,-3.11145 1.08902,-4.30086 1.14979,-5.89574 0.0282,-0.73906 0.0807,-1.33568 0.11667,-1.32583 0.036,0.01 9.58355,-8.27512 21.21676,-18.41105 11.63322,-10.13594 21.53186,-18.72214 21.99698,-19.08046 2.14329,-1.65115 4.70726,-3.12957 5.9435,-3.4271 1.07547,-0.25884 1.4871,-0.0271 1.4871,0.83723 0,2.07323 -2.33034,5.9147 -5.78768,9.54075 -0.5428,0.56929 -10.76373,9.71194 -23.85446,21.33789 -12.5976,11.18799 -22.97434,20.40124 -23.05941,20.47388 -0.13852,0.11828 -0.15468,0.11626 -0.15468,-0.0193 z"
     id="path1025"
     inkscape:connector-curvature="0" />
  <path
     style="opacity:1;fill:#ff8080;fill-opacity:1;stroke:none;stroke-width:0.17677669;stroke-opacity:1"
     d="m 118.43208,167.36915 c -0.22649,-0.71416 -0.41162,-1.84939 -0.45564,-2.79393 l -0.0741,-1.59099 23.53317,-20.85965 c 12.94325,-11.4728 24.1706,-21.53582 24.94967,-22.36225 4.20459,-4.4602 6.52249,-9.13013 5.61688,-11.31647 -0.86338,-2.08437 -4.54395,-1.04627 -9.31858,2.62828 -0.7564,0.58212 -10.68256,9.17456 -22.05814,19.09431 l -20.68287,18.03591 -0.19977,-0.57468 c -0.10987,-0.31607 -0.37523,-0.91863 -0.5897,-1.33902 -0.32272,-0.6326 -0.34923,-0.80111 -0.15379,-0.97769 0.12988,-0.11734 2.34421,-1.91318 4.92073,-3.99075 26.42341,-21.30648 45.02021,-38.61476 58.77809,-54.705518 13.39633,-15.667899 24.47023,-32.393565 39.15058,-59.131803 1.68152,-3.062656 3.32845,-6.045763 3.65985,-6.629126 l 0.60255,-1.06066 -0.0885,0.795495 c -0.0487,0.437522 -0.13405,1.392116 -0.18977,2.12132 -0.18108,2.369575 -0.79917,7.089966 -1.336,10.203084 -4.64765,26.952018 -17.64057,51.163659 -40.80703,76.041838 -9.56375,10.27041 -18.95261,19.02479 -40.59566,37.85232 -8.87216,7.71799 -15.81652,13.88532 -19.463,17.28524 -1.47144,1.37194 -3.15733,2.94067 -3.74641,3.48606 l -1.07107,0.99162 z"
     id="path1029"
     inkscape:connector-curvature="0" />
  <path
     style="fill:none;stroke:#000000;stroke-width:1px;stroke-linecap:butt;stroke-linejoin:miter;stroke-opacity:1"
     d="m 77.37292,175.17202 c 3.095894,7.5809 5.734806,10.65235 13.428582,15.91161"
     id="path34"
     inkscape:connector-curvature="0"
     sodipodi:nodetypes="cc" />
</svg>
