<?xml version="1.0" encoding="UTF-8" standalone="no"?>
<svg
   xmlns:dc="http://purl.org/dc/elements/1.1/"
   xmlns:cc="http://creativecommons.org/ns#"
   xmlns:rdf="http://www.w3.org/1999/02/22-rdf-syntax-ns#"
   xmlns:svg="http://www.w3.org/2000/svg"
   xmlns="http://www.w3.org/2000/svg"
   xmlns:sodipodi="http://sodipodi.sourceforge.net/DTD/sodipodi-0.dtd"
   xmlns:inkscape="http://www.inkscape.org/namespaces/inkscape"
   version="1.1"
   id="svg4206"
   viewBox="0 0 256 256"
   sodipodi:docname="sabre_sheathe.svg"
   inkscape:version="0.92.3 (2405546, 2018-03-11)">
  <sodipodi:namedview
     pagecolor="#ffffff"
     bordercolor="#666666"
     borderopacity="1"
     objecttolerance="10"
     gridtolerance="10"
     guidetolerance="10"
     inkscape:pageopacity="0"
     inkscape:pageshadow="2"
     inkscape:window-width="1920"
     inkscape:window-height="1001"
     id="namedview58"
     showgrid="false"
     inkscape:zoom="2.8284273"
     inkscape:cx="118.86355"
     inkscape:cy="126.11571"
     inkscape:window-x="-9"
     inkscape:window-y="-9"
     inkscape:window-maximized="1"
     inkscape:current-layer="svg4206"
     inkscape:snap-global="true"
     showguides="false"
     inkscape:snap-bbox="false" />
  <style
     id="style3">
    svg { cursor: default; }
  </style>
  <defs
     id="defs4208">
    <inkscape:path-effect
       effect="powerstroke"
       id="path-effect907"
       is_visible="true"
       offset_points="0.55768567,0.32361255"
       sort_points="true"
       interpolator_type="CubicBezierJohan"
       interpolator_beta="0.2"
       start_linecap_type="zerowidth"
       linejoin_type="extrp_arc"
       miter_limit="4"
       end_linecap_type="zerowidth" />
    <inkscape:path-effect
       effect="powerstroke"
       id="path-effect903"
       is_visible="true"
       offset_points="0.36787538,0.40439423"
       sort_points="true"
       interpolator_type="CubicBezierJohan"
       interpolator_beta="0.2"
       start_linecap_type="zerowidth"
       linejoin_type="extrp_arc"
       miter_limit="4"
       end_linecap_type="zerowidth" />
    <inkscape:path-effect
       effect="powerstroke"
       id="path-effect880"
       is_visible="true"
       offset_points="0.43866375,0.47000421"
       sort_points="true"
       interpolator_type="CubicBezierJohan"
       interpolator_beta="0.2"
       start_linecap_type="zerowidth"
       linejoin_type="extrp_arc"
       miter_limit="4"
       end_linecap_type="zerowidth" />
    <inkscape:path-effect
       effect="powerstroke"
       id="path-effect876"
       is_visible="true"
       offset_points="0.31349214,0.3253567"
       sort_points="true"
       interpolator_type="CubicBezierJohan"
       interpolator_beta="0.2"
       start_linecap_type="zerowidth"
       linejoin_type="extrp_arc"
       miter_limit="4"
       end_linecap_type="zerowidth" />
    <inkscape:path-effect
       effect="powerstroke"
       id="path-effect872"
       is_visible="true"
       offset_points="0.47974354,0.61540457"
       sort_points="true"
       interpolator_type="CubicBezierJohan"
       interpolator_beta="0.2"
       start_linecap_type="zerowidth"
       linejoin_type="extrp_arc"
       miter_limit="4"
       end_linecap_type="zerowidth" />
    <inkscape:path-effect
       effect="powerstroke"
       id="path-effect868"
       is_visible="true"
       offset_points="0.22476176,0.72470812"
       sort_points="true"
       interpolator_type="CubicBezierJohan"
       interpolator_beta="0.2"
       start_linecap_type="zerowidth"
       linejoin_type="extrp_arc"
       miter_limit="4"
       end_linecap_type="zerowidth" />
    <inkscape:path-effect
       effect="powerstroke"
       id="path-effect880-1"
       is_visible="true"
       offset_points="0.43759178,0.29829899"
       sort_points="true"
       interpolator_type="CubicBezierJohan"
       interpolator_beta="0.2"
       start_linecap_type="zerowidth"
       linejoin_type="extrp_arc"
       miter_limit="4"
       end_linecap_type="zerowidth" />
  </defs>
  <metadata
     id="metadata4211">
    <rdf:RDF>
      <cc:Work
         rdf:about="">
        <dc:format>image/svg+xml</dc:format>
        <dc:type
           rdf:resource="http://purl.org/dc/dcmitype/StillImage" />
        <dc:title />
      </cc:Work>
    </rdf:RDF>
  </metadata>
  <path
     style="display:inline;fill:none;stroke:#000000;stroke-width:1.19750953px;stroke-linecap:butt;stroke-linejoin:miter;stroke-opacity:1"
     d="m 117.7636,145.37783 -19.82816,13.02828 c -0.5361,11.22927 4.12234,16.90408 9.96654,22.8529 l 10.73461,-11.4771"
     id="path957"
     inkscape:connector-curvature="0" />
  <path
     style="fill:none;stroke:#000000;stroke-width:1.19750953px;stroke-linecap:butt;stroke-linejoin:miter;stroke-opacity:1"
     d="m 107.90198,181.25901 c -3.17631,18.61194 -7.1543,42.47714 -26.542456,52.75387 14.337486,-26.39644 27.089036,-65.23905 -13.323677,-76.46106 9.35865,-4.58423 22.039026,-2.37203 29.899593,0.85429"
     id="path959"
     inkscape:connector-curvature="0"
     sodipodi:nodetypes="cccc" />
  <path
     style="fill:none;stroke:#000000;stroke-width:1.19750953px;stroke-linecap:butt;stroke-linejoin:miter;stroke-opacity:1"
     d="m 84.192124,228.67342 c -17.383588,8.16779 -46.243218,10.9767 -61.267954,-0.8543"
     id="path963"
     inkscape:connector-curvature="0" />
  <path
     style="fill:none;stroke:#000000;stroke-width:1.19750953px;stroke-linecap:butt;stroke-linejoin:miter;stroke-opacity:1"
     d="m 22.92417,227.81912 c 18.863641,-9.64261 30.879104,9.88621 67.142965,-12.38756"
     id="path965"
     inkscape:connector-curvature="0"
     sodipodi:nodetypes="cc" />
  <path
     style="fill:none;stroke:#000000;stroke-width:1.19750953px;stroke-linecap:butt;stroke-linejoin:miter;stroke-opacity:1"
     d="m 94.578294,182.86085 -3.776792,8.22278 -11.273092,2.15945 -37.090817,32.01309"
     id="path969"
     inkscape:connector-curvature="0"
     sodipodi:nodetypes="cccc" />
  <path
     style="fill:none;stroke:#000000;stroke-width:1.19750953px;stroke-linecap:butt;stroke-linejoin:miter;stroke-opacity:1"
     d="m 90.172042,171.43441 -12.799122,3.73761 -4.19644,11.21287 -41.020151,34.81329 3.671879,3.41726"
     id="path971"
     inkscape:connector-curvature="0" />
  <path
     style="fill:none;stroke:#000000;stroke-width:1.19750953px;stroke-linecap:butt;stroke-linejoin:miter;stroke-opacity:1"
     d="m 38.45098,216.17909 6.534109,6.75362"
     id="path973"
     inkscape:connector-curvature="0"
     sodipodi:nodetypes="cc" />
  <path
     style="fill:none;stroke:#000000;stroke-width:1.19750953px;stroke-linecap:butt;stroke-linejoin:miter;stroke-opacity:1"
     d="m 32.156329,221.19818 c -5.908844,-0.213 -4.336665,2.85164 -4.196437,4.48515"
     id="path975"
     inkscape:connector-curvature="0"
     sodipodi:nodetypes="cc" />
  <path
     style="fill:none;stroke:#000000;stroke-width:1.19750953px;stroke-linecap:butt;stroke-linejoin:miter;stroke-opacity:1"
     d="m 73.17648,186.38489 6.35193,6.85819"
     id="path979"
     inkscape:connector-curvature="0"
     sodipodi:nodetypes="cc" />
  <path
     style="opacity:1;fill:#ffe680;fill-opacity:1;stroke:none;stroke-width:0.125;stroke-opacity:1"
     d="m 42.159961,219.04066 -2.892103,-2.98426 16.889782,-14.334 c 9.28938,-7.88369 16.933711,-14.31845 16.987404,-14.29947 0.05369,0.019 1.291587,1.32241 2.750877,2.89649 l 2.653255,2.86198 -0.368561,0.32552 c -1.520619,1.34306 -32.973736,28.4579 -33.041653,28.48427 -0.04779,0.0186 -1.388344,-1.30918 -2.979001,-2.95053 z"
     id="path1009"
     inkscape:connector-curvature="0" />
  <path
     style="opacity:1;fill:#ffccaa;fill-opacity:1;stroke:none;stroke-width:0.125;stroke-opacity:1"
     d="m 83.219337,232.03635 c 0,-0.0276 0.66937,-1.39165 1.487487,-3.03125 6.51575,-13.05829 10.172578,-24.55226 11.009994,-34.60609 0.287352,-3.4499 0.103952,-8.18374 -0.43585,-11.25 -0.91805,-5.21485 -3.213483,-10.27956 -6.37041,-14.05588 -0.991158,-1.18563 -3.33963,-3.47513 -4.547784,-4.4336 -3.274722,-2.59794 -7.461034,-4.82704 -12.252408,-6.52408 l -2.025671,-0.71747 0.411071,-0.1754 c 0.869914,-0.37117 3.596656,-1.04397 5.278318,-1.30237 2.096758,-0.32218 6.749925,-0.38757 9.007753,-0.12658 3.917893,0.45288 8.409015,1.49721 11.449755,2.66244 l 0.949756,0.36396 0.07422,2.09199 c 0.276886,7.80406 2.56899,12.81366 8.944442,19.54889 l 0.98799,1.04374 -0.674,3.81218 c -2.44683,13.83932 -4.72093,21.93346 -8.175721,29.09962 -1.258376,2.61021 -1.980598,3.88154 -3.564757,6.27505 -2.936419,4.43666 -6.092876,7.69958 -10.197687,10.54166 -1.119581,0.77517 -1.3565,0.91196 -1.3565,0.78319 z"
     id="path1011"
     inkscape:connector-curvature="0" />
  <path
     style="opacity:1;fill:#ffb380;fill-opacity:1;stroke:none;stroke-width:0.08838835;stroke-opacity:1"
     d="m 47.407882,235.03522 c -9.178618,-0.54337 -16.462599,-2.64014 -22.207572,-6.3927 -0.522596,-0.34136 -0.950175,-0.64929 -0.950175,-0.68431 0,-0.10275 1.804743,-0.82807 3.049398,-1.22553 1.252979,-0.40012 3.181824,-0.8136 4.640388,-0.99474 0.572522,-0.0711 1.876226,-0.1137 3.402952,-0.11119 2.77423,0.005 3.603121,0.0729 9.059805,0.74642 5.830088,0.71965 7.899599,0.8817 11.269514,0.88246 3.146135,7e-4 5.636155,-0.19457 8.529475,-0.6689 7.228146,-1.18497 15.145889,-4.18825 23.113553,-8.7672 0.68059,-0.39113 1.248218,-0.70047 1.261397,-0.68741 0.09372,0.0929 -2.528772,6.09965 -4.034887,9.24186 l -0.8685,1.81197 -1.095821,0.49575 c -2.278789,1.03093 -6.121493,2.40493 -8.97304,3.20841 -5.811588,1.63751 -11.126507,2.57252 -17.401847,3.06136 -1.574974,0.12268 -7.227647,0.17652 -8.79464,0.0838 z"
     id="path1013"
     inkscape:connector-curvature="0" />
  <path
     style="opacity:1;fill:#ffb380;fill-opacity:1;stroke:none;stroke-width:0.08838835;stroke-opacity:1"
     d="m 77.00086,189.54605 c -1.520199,-1.63636 -2.829748,-3.05879 -2.91011,-3.16095 -0.139642,-0.17753 -0.05916,-0.41815 1.8177,-5.43419 l 1.963811,-5.24844 5.866399,-1.71079 c 3.226519,-0.94093 5.894518,-1.68108 5.928887,-1.64478 0.189372,0.20001 1.16181,1.90551 1.67554,2.93862 1.02368,2.05862 1.753195,4.10589 2.292453,6.43339 l 0.251589,1.0859 -1.754979,3.81966 c -0.965238,2.10081 -1.807521,3.84803 -1.871741,3.88271 -0.09619,0.052 -10.268277,2.01407 -10.441409,2.01407 -0.02978,0 -1.297941,-1.33884 -2.81814,-2.9752 z"
     id="path1015"
     inkscape:connector-curvature="0" />
  <path
     style="opacity:1;fill:#ff9955;fill-opacity:1;stroke:none;stroke-width:0.04419417;stroke-opacity:1"
     d="m 41.408369,224.73761 c -1.20331,-0.15641 -3.07745,-0.31466 -4.69331,-0.3963 -0.542861,-0.0274 -0.55943,-0.0312 -0.508233,-0.11512 0.04297,-0.0704 0.03986,-0.0967 -0.01652,-0.13932 -0.03819,-0.0289 -0.748656,-0.68593 -1.578807,-1.46007 l -1.509366,-1.40752 0.429759,-0.36484 c 0.236367,-0.20066 1.390299,-1.18003 2.564293,-2.17637 l 2.134534,-1.81153 0.588873,0.60078 c 1.485849,1.51591 5.284621,5.46214 5.284621,5.48976 0,0.0581 -2.080981,1.82853 -2.156448,1.83469 -0.04145,0.003 -0.284175,-0.021 -0.539396,-0.0542 z"
     id="path1017"
     inkscape:connector-curvature="0" />
  <path
     style="opacity:1;fill:#ff9955;fill-opacity:1;stroke:none;stroke-width:0.04419417;stroke-opacity:1"
     d="m 28.462506,224.856 c -0.02495,-0.11163 -0.07931,-0.43843 -0.120808,-0.72622 -0.135647,-0.94068 0.01006,-1.42036 0.539636,-1.7766 0.475456,-0.31983 1.230284,-0.49187 2.340278,-0.5334 l 0.662912,-0.0248 1.342446,1.25226 1.342445,1.25225 -0.988892,0.0532 c -1.612833,0.0868 -3.328634,0.31108 -4.621768,0.60408 l -0.450895,0.10217 z"
     id="path1019"
     inkscape:connector-curvature="0" />
  <path
     style="display:inline;opacity:1;fill:#ffccaa;fill-opacity:1;stroke:none;stroke-width:0.0625;stroke-opacity:1"
     d="m 106.79627,179.18215 c -2.8674,-3.06724 -4.53322,-5.33745 -5.83116,-7.94683 -1.208892,-2.43035 -1.903848,-4.81278 -2.252357,-7.72147 -0.12681,-1.05837 -0.228075,-3.58465 -0.1696,-4.23108 l 0.04917,-0.54358 9.437497,-6.20029 c 5.19063,-3.41016 9.47781,-6.20306 9.52708,-6.20643 0.22851,-0.0156 1.01355,1.85586 1.20342,2.86888 0.10465,0.55831 0.10279,2.39801 -0.003,3.0625 -0.1367,0.85793 -0.42912,2.09894 -0.88775,3.76755 -0.8872,3.22787 -1.17898,4.63514 -1.31505,6.34256 -0.18687,2.34484 0.2341,4.78442 1.21791,7.05807 l 0.0998,0.23068 -4.97269,5.31619 c -2.73498,2.92391 -4.99295,5.3162 -5.01773,5.3162 -0.0248,0 -0.51324,-0.50083 -1.08548,-1.11295 z"
     id="path1021"
     inkscape:connector-curvature="0" />
  <path
     style="fill:none;stroke:#000000;stroke-width:1px;stroke-linecap:butt;stroke-linejoin:miter;stroke-opacity:1"
     d="m 77.37292,175.17202 c 3.095894,7.5809 5.734806,10.65235 13.428582,15.91161"
     id="path34"
     inkscape:connector-curvature="0"
     sodipodi:nodetypes="cc" />
  <path
     style="display:inline;fill:none;stroke:#000000;stroke-width:1px;stroke-linecap:butt;stroke-linejoin:miter;stroke-opacity:1"
     d="M 97.374995,157.3125 C 162.04164,112.1811 194.27655,77.335564 227.56249,12.250012 234.18336,89.429987 153.61959,136.64562 108.39628,182.259 Z"
     id="path36"
     inkscape:connector-curvature="0"
     sodipodi:nodetypes="cccc" />
  <path
     style="fill:none;stroke:#000000;stroke-width:1px;stroke-linecap:butt;stroke-linejoin:miter;stroke-opacity:1"
     d="M 108.87499,183.3125 96.812495,156.25 l 18.999995,-13.68749 12.4375,22.87499 z"
     id="path64"
     inkscape:connector-curvature="0" />
  <path
     style="fill:none;stroke:#000000;stroke-width:1px;stroke-linecap:butt;stroke-linejoin:miter;stroke-opacity:1"
     d="m 229.54453,19.207628 c -0.44194,17.200939 -1.30515,27.106602 -10.79454,47.354881 l -18.3125,-9.999999 c 7.42464,-11.036341 14.7779,-23.099249 21.50565,-36.91294 7.30762,-15.0167914 6.84492,-14.7243631 7.60139,-0.441942 z"
     id="path66"
     inkscape:connector-curvature="0"
     sodipodi:nodetypes="ccccc" />
  <path
     style="opacity:1;fill:#ffb380;fill-opacity:1;stroke:none;stroke-width:0.0625;stroke-opacity:1"
     d="m 218.06281,65.571786 c -0.22313,-0.125222 -0.43381,-0.260656 -0.46818,-0.300965 -0.0344,-0.04031 -1.31406,-0.739785 -2.84375,-1.554391 -3.81356,-2.030841 -13.49757,-7.309081 -13.49891,-7.35754 -6e-4,-0.02169 0.52875,-0.837312 1.17634,-1.812499 5.18434,-7.806961 9.88882,-15.560447 14.0263,-23.116819 2.26526,-4.137096 2.73968,-5.068676 8.7211,-17.124999 1.87735,-3.784042 2.826,-5.4019104 3.00689,-5.1280899 0.17443,0.2640288 0.38993,2.0956309 0.53349,4.5343399 0.26417,4.487446 0.29834,5.391147 0.25874,6.84375 -0.28112,10.314448 -0.87898,16.253604 -2.26178,22.468749 -1.22388,5.500884 -3.22327,11.432223 -6.08867,18.062499 -0.77431,1.7917 -2.04485,4.599758 -2.11268,4.66932 -0.0238,0.02438 -0.22577,-0.05813 -0.44889,-0.183355 z"
     id="path74"
     inkscape:connector-curvature="0" />
  <path
     style="opacity:1;fill:#ffb380;fill-opacity:1;stroke:none;stroke-width:0.0625;stroke-opacity:1"
     d="m 108.887,182.01966 c -0.69063,-1.56702 -10.740144,-24.13759 -10.785151,-24.22278 -0.03184,-0.0603 -0.182652,-0.39096 -0.335135,-0.73488 l -0.277244,-0.6253 0.324775,-0.23856 c 1.60624,-1.17984 17.810905,-12.82626 17.825445,-12.81129 0.0459,0.0472 11.90558,21.88687 11.90558,21.92416 0,0.0411 -17.97323,16.64922 -18.31877,16.9274 l -0.17943,0.14445 z"
     id="path94"
     inkscape:connector-curvature="0" />
  <path
     style="opacity:1;fill:#ffe680;fill-opacity:1;stroke:none;stroke-width:0.12499999;stroke-opacity:1"
     d="m 122.45897,153.57122 -5.31212,-9.77123 2.88544,-2.18081 c 28.81798,-21.78067 49.44074,-41.38692 67.3371,-64.018011 4.37958,-5.538273 10.34411,-13.695907 13.54837,-18.529997 0.39874,-0.601563 0.76361,-1.09375 0.81081,-1.09375 0.0726,0 14.97599,8.087669 15.11087,8.200273 0.0839,0.07001 -2.2631,4.677541 -3.69221,7.248514 -8.86571,15.949465 -21.59118,31.631841 -40.29558,49.658701 -7.19182,6.9313 -15.26683,14.24774 -26.99076,24.45524 -3.64418,3.17283 -16.22017,14.15637 -17.64149,15.40761 l -0.44831,0.39468 z"
     id="path98"
     inkscape:connector-curvature="0" />
</svg>
