<?xml version="1.0" encoding="UTF-8" standalone="no"?>
<svg
   xmlns:dc="http://purl.org/dc/elements/1.1/"
   xmlns:cc="http://creativecommons.org/ns#"
   xmlns:rdf="http://www.w3.org/1999/02/22-rdf-syntax-ns#"
   xmlns:svg="http://www.w3.org/2000/svg"
   xmlns="http://www.w3.org/2000/svg"
   xmlns:sodipodi="http://sodipodi.sourceforge.net/DTD/sodipodi-0.dtd"
   xmlns:inkscape="http://www.inkscape.org/namespaces/inkscape"
   version="1.1"
   viewBox="0 0 64 64"
   id="svg835"
   sodipodi:docname="crest_of_goneril.svg"
   inkscape:version="1.1-dev (ddb55ca, 2020-02-02)">
  <metadata
     id="metadata841">
    <rdf:RDF>
      <cc:Work
         rdf:about="">
        <dc:format>image/svg+xml</dc:format>
        <dc:type
           rdf:resource="http://purl.org/dc/dcmitype/StillImage" />
      </cc:Work>
    </rdf:RDF>
  </metadata>
  <defs
     id="defs839" />
  <sodipodi:namedview
     pagecolor="#ffffff"
     bordercolor="#666666"
     borderopacity="1"
     objecttolerance="10"
     gridtolerance="10"
     guidetolerance="10"
     inkscape:pageopacity="0"
     inkscape:pageshadow="2"
     inkscape:window-width="900"
     inkscape:window-height="651"
     id="namedview837"
     showgrid="false"
     inkscape:zoom="1.8779221"
     inkscape:cx="21.715598"
     inkscape:cy="22.383744"
     inkscape:window-x="284"
     inkscape:window-y="43"
     inkscape:window-maximized="0"
     inkscape:current-layer="svg835" />
  <path
     inkscape:connector-curvature="0"
     id="path852"
     d="m 30.618355,62.08761 -0.761315,-0.598851 0.129052,-5.283975 c 0.07098,-2.906188 0.219986,-5.493527 0.331126,-5.749641 0.170505,-0.392917 -0.244739,-0.603437 -2.657928,-1.347513 -1.573001,-0.485017 -3.822712,-1.365519 -4.999359,-1.956676 -1.176645,-0.591153 -2.242626,-1.074827 -2.368845,-1.074827 -0.126218,0 -1.530479,1.518526 -3.120582,3.3745 -3.879485,4.528152 -4.009017,4.653828 -4.796609,4.653828 -0.806341,0 -1.554971,-0.661869 -1.554971,-1.37476 0,-0.277584 1.612888,-2.401375 3.584197,-4.719535 l 3.584198,-4.214842 -1.923165,-3.839005 c -1.05774,-2.111452 -1.923164,-3.95138 -1.923164,-4.088724 0,-0.137346 0.467166,-0.332515 1.038146,-0.43371 0.57098,-0.101189 1.235852,-0.241586 1.477495,-0.311983 0.320852,-0.09347 0.53346,0.190506 0.788284,1.052906 1.92445,6.512909 8.313002,11.096057 14.829022,10.63834 4.065031,-0.285546 6.913526,-1.679892 9.854499,-4.823799 1.942344,-2.076372 3.118145,-4.340573 3.7012,-7.127284 0.221366,-1.058024 0.631636,-2.12737 0.931084,-2.426819 1.511021,-1.511017 9.410444,-1.744262 10.479006,-0.309409 0.482339,0.647678 0.04255,1.559431 -1.012846,2.099801 -0.76911,0.39379 -1.434994,0.442726 -4.15998,0.305716 l -3.244295,-0.163122 -0.190224,1.013978 c -0.243468,1.297802 -0.1335,1.447984 1.218584,1.664189 1.969695,0.314968 2.726642,1.796418 1.607122,3.145361 -0.331227,0.399105 -1.830373,0.442789 -3.3199,0.09674 -1.112379,-0.258432 -0.910071,-0.437904 -2.810881,2.493626 -0.46353,0.714878 -0.455446,0.734152 1.103002,2.62997 2.097927,2.552083 2.590118,3.401207 2.591347,4.470571 8.31e-4,0.705432 -0.114639,0.899726 -0.534619,0.899726 -1.150903,0 -2.001242,-0.614834 -3.811333,-2.755776 -1.035037,-1.224223 -2.008129,-2.226189 -2.162422,-2.22659 -0.154293,-2.76e-4 -0.932903,0.438599 -1.730243,0.975559 -1.252981,0.843807 -1.448513,1.097386 -1.440905,1.868662 0.0049,0.490804 0.191711,1.134192 0.415258,1.42975 0.607501,0.803185 0.529656,2.560852 -0.129023,2.913367 -0.807193,0.431996 -1.818508,0.34497 -2.299629,-0.19789 -0.236152,-0.266457 -0.578319,-1.213221 -0.760366,-2.103919 l -0.330997,-1.619455 -1.289624,0.181818 c -2.500591,0.352547 -2.360914,0.143887 -2.160049,3.226829 0.596411,9.153841 0.619347,8.144755 -0.209858,9.231901 -0.411038,0.538898 -0.848782,0.979816 -0.972759,0.979816 -0.123979,0 -0.568009,-0.269483 -0.986731,-0.59885 z M 29.09029,38.437605 c -2.174916,-0.940596 -4.147173,-3.82491 -4.147173,-6.065002 0,-2.292539 2.028926,-5.165401 4.325776,-6.125088 0.501034,-0.209344 1.479571,-0.380626 2.174528,-0.380626 3.351733,0 6.514542,3.174622 6.499634,6.523908 -0.01966,4.413603 -4.908237,7.752714 -8.852765,6.046808 z m 4.132906,-2.258897 c 1.209907,-0.616949 1.924509,-1.597662 2.263504,-3.106414 0.230145,-1.024301 0.178253,-1.37347 -0.364874,-2.455138 -0.888353,-1.769199 -1.851922,-2.397136 -3.678405,-2.397136 -1.72438,0 -2.765593,0.615609 -3.545028,2.095969 -0.645474,1.225937 -0.510654,3.568811 0.26637,4.628854 0.683517,0.932485 2.182503,1.717901 3.278658,1.717901 0.456784,0 1.257682,-0.217816 1.779775,-0.484036 z M 8.0505348,33.448171 C 6.8364143,33.238242 5.0053072,32.72041 5.0053072,32.58699 c 0,-0.07091 0.2676741,-0.50483 0.5948315,-0.96428 0.9823268,-1.37955 2.0928227,-1.673082 5.4953633,-1.452551 2.954956,0.191517 2.964188,0.190155 3.139219,-0.46377 0.417477,-1.55971 0.262509,-1.855794 -1.076383,-2.056574 -0.69272,-0.103882 -1.440185,-0.369566 -1.661033,-0.590415 -0.910027,-0.910027 -0.134932,-3.130383 1.092771,-3.130383 0.34782,0 1.199662,0.17072 1.892979,0.379378 l 1.260579,0.379379 1.13655,-1.611628 c 0.625103,-0.886394 1.136551,-1.697716 1.136551,-1.802935 0,-0.10522 -0.54024,-0.827628 -1.200532,-1.60535 -2.211949,-2.605332 -2.952052,-3.803126 -2.952052,-4.777645 0,-0.809482 0.08975,-0.927399 0.705845,-0.927399 1.181404,0 2.124904,0.701595 3.861997,2.871816 0.913569,1.141359 1.76045,2.083316 1.881961,2.09324 0.492397,0.04021 3.202144,-1.919501 3.365406,-2.433896 0.09647,-0.303955 -0.01698,-1.013026 -0.252061,-1.575712 -0.510807,-1.222533 -0.554629,-2.655421 -0.09526,-3.114791 1.095582,-1.095581 2.866556,0.266243 3.152852,2.424442 0.179228,1.351075 0.225635,1.416473 0.912646,1.286096 0.398098,-0.07555 1.260495,-0.218491 1.916437,-0.317647 1.1157,-0.168657 1.182423,-0.227643 1.034519,-0.914545 -0.298859,-1.387978 -0.69025,-6.2740117 -0.697385,-8.7059628 -0.0065,-2.2032322 0.05581,-2.4978752 0.654437,-3.096501 0.836737,-0.8367392 1.685984,-0.6557591 2.434338,0.5187747 0.578826,0.9084609 0.572941,0.419149 0.128013,10.6446931 l -0.04028,0.925782 4.819339,1.911817 c 2.650638,1.051498 4.963196,1.911816 5.139016,1.911816 0.175823,0 1.673654,-1.588363 3.328511,-3.529695 1.65486,-1.941333 3.196873,-3.685418 3.426693,-3.875745 0.530733,-0.439527 1.761091,-0.447287 2.194538,-0.01385 0.670617,0.670617 0.292695,1.553202 -1.644293,3.840031 -1.087077,1.283412 -2.661003,3.177686 -3.497616,4.209498 l -1.521116,1.876022 1.384374,2.968659 c 0.761404,1.632762 1.542084,3.45657 1.734844,4.052903 0.313633,0.970268 0.297405,1.123052 -0.154379,1.453404 -0.551753,0.403455 -1.469522,0.477481 -1.950031,0.157292 -0.167875,-0.111866 -0.511853,-0.831461 -0.764393,-1.599099 -2.392708,-7.273031 -10.108557,-11.551746 -17.416489,-9.65807 -5.480026,1.420017 -9.232258,5.357432 -10.677249,11.204198 -0.669051,2.707133 -0.957914,3.207232 -2.048103,3.545819 -1.001929,0.311175 -6.0486571,0.611654 -7.1307263,0.424557 z"
     style="fill:#ff8080;stroke:#ffb380;stroke-width:0.276839;fill-opacity:1" />
</svg>
