<svg xmlns="http://www.w3.org/2000/svg" viewBox="0 0 256 256">
    <g fill="#ffb380" fill-rule="evenodd" stroke="#000" stroke-width=".5" clip-rule="evenodd">
        <path d="M57.192 69.688c5.331-.275 10.663-.545 15.994-.826 9.428-.495 18.855-.996 28.283-1.491.386-.02.774-.002 1.266-.002l.162 1.738-51.871 2.736-.629-3.133 21.994-8.149.672 1.651-19.194 7.146-1.221.382.097.367 4.447-.419zM236.225 164.79l-1.74.444-17.055-69.575c.28-.129.525-.271.789-.357.231-.074.481-.084.937-.156l17.069 69.644zM106.435 72.77l1.777.278-11.5 70.294-1.779-.191c3.808-23.45 7.659-46.834 11.502-70.381zM172.599 150.104c.237-.601.417-1.052.663-1.673 19.288 6.539 38.538 13.063 57.922 19.636l-.535 1.715a604803.76 604803.76 0 0 1-58.05-19.678zM148.96 113.557c.575.367.982.627 1.517.966-9.777 16.441-19.521 32.828-29.343 49.342l-1.502-.986c9.773-16.438 19.514-32.816 29.328-49.322zM159.655 106.867c-.211-.627-.377-1.12-.572-1.705l50.359-15.486c.191.568.354 1.053.575 1.704l-50.362 15.487zM213.999 81.381l-1.553.906-15.935-31.52c.157-.165.21-.265.29-.297.403-.163.814-.308 1.323-.497 5.296 10.475 10.567 20.909 15.875 31.408zM215.836 48.507h1.724V80.91c-.378.026-.656.052-.935.063-.24.01-.48.002-.789.002V48.507zM111.661 163.684l-1.526 1.017-11.609-11.291c.385-.435.728-.823 1.188-1.346l11.947 11.62z"/>
    </g>
    <g fill="#ff8080" fill-rule="evenodd" stroke="#000" clip-rule="evenodd">
        <path stroke-width=".5" d="M216.785 39.922c1.905.007 3.357 1.46 3.36 3.365.005 1.883-1.466 3.4-3.332 3.438-1.863.038-3.514-1.614-3.478-3.484.036-1.855 1.562-3.325 3.45-3.319zM148.238 108.266c.012-2.739 2.15-4.847 4.901-4.832 2.712.015 4.902 2.215 4.879 4.899-.021 2.654-2.29 4.893-4.948 4.881-2.68-.013-4.843-2.227-4.832-4.948zM171.669 146.745c.036 2.555-2.156 4.768-4.707 4.754-2.502-.013-4.64-2.133-4.677-4.636-.038-2.551 2.15-4.757 4.709-4.745 2.508.009 4.641 2.121 4.675 4.627zM240.923 170.983c-.025 2.332-1.91 4.232-4.221 4.257-2.336.025-4.356-1.963-4.373-4.302-.017-2.357 1.945-4.292 4.343-4.285 2.432.006 4.278 1.886 4.251 4.33zM95.152 144.986c2.125.03 3.845 1.792 3.802 3.896-.043 2.078-1.877 3.847-3.944 3.802-2.12-.045-3.788-1.794-3.758-3.942.031-2.162 1.717-3.785 3.9-3.756zM107.987 71.17a3.337 3.337 0 0 1-3.378-3.359c-.01-1.888 1.451-3.41 3.316-3.453 1.871-.043 3.516 1.587 3.494 3.465-.022 1.848-1.558 3.346-3.432 3.347zM45.897 74.328c-1.701.009-3.214-1.493-3.218-3.193-.004-1.72 1.472-3.206 3.193-3.213 1.719-.008 3.205 1.462 3.219 3.188.013 1.697-1.487 3.209-3.194 3.218zM77.508 62.86c-1.874.007-3.41-1.53-3.37-3.371.04-1.801 1.519-3.238 3.339-3.245 1.881-.006 3.408 1.518 3.37 3.362-.037 1.798-1.525 3.248-3.339 3.254zM120.111 169.282c.005 2.214-1.709 3.952-3.921 3.974-2.167.021-4.006-1.745-4.05-3.894-.044-2.185 1.858-4.106 4.04-4.081 2.172.024 3.926 1.81 3.931 4.001zM195.386 48.911c-1.69-.007-2.964-1.331-2.922-3.035a2.952 2.952 0 0 1 2.951-2.886c1.556.006 2.927 1.355 2.964 2.917.038 1.637-1.33 3.01-2.993 3.004z"/>
        <path stroke-width=".25" d="M216.586 93.728a5.428 5.428 0 0 1-5.441-5.466c.01-3.021 2.444-5.487 5.438-5.505 3.033-.019 5.596 2.557 5.549 5.575-.048 2.999-2.523 5.405-5.546 5.396zm5.063-5.3c.065-2.873-2.075-5.138-4.905-5.191-2.829-.053-5.128 2.123-5.208 4.935-.078 2.733 2.244 5.112 5.024 5.149 2.745.037 5.026-2.156 5.089-4.893zM116.121 174.752c-3.009-.009-5.479-2.469-5.482-5.461-.003-2.965 2.49-5.478 5.467-5.509 3.046-.032 5.541 2.486 5.518 5.571-.021 3.025-2.451 5.411-5.503 5.399zm.01-10.489c-2.848.009-5.034 2.227-5.01 5.085a5.028 5.028 0 0 0 4.984 5.001c2.769.031 5.117-2.275 5.131-5.048.014-2.774-2.291-5.049-5.105-5.038z"/>
        <path stroke-width=".5" d="M216.556 92.232c-2.203-.03-3.914-1.785-3.897-3.998.015-2.191 1.782-3.97 3.953-3.979 2.187-.01 4.072 1.918 4.014 4.105-.059 2.153-1.896 3.901-4.07 3.872z"/>
    </g>
    <g fill="#ffe680" fill-rule="evenodd" stroke="#000" clip-rule="evenodd">
        <path stroke-width=".5" d="M80.424 171.702c1.412.02 2.544 1.18 2.5 2.559-.042 1.294-1.2 2.438-2.493 2.464-1.375.025-2.528-1.126-2.532-2.532-.005-1.444 1.078-2.509 2.525-2.491zM37.517 65.396c-.039 1.927-1.72 3.586-3.642 3.592-1.975.007-3.708-1.751-3.666-3.717.044-1.994 1.813-3.667 3.791-3.582 1.941.083 3.555 1.785 3.517 3.707zM47.259 182.065c-1.435.025-2.752-1.238-2.799-2.687-.046-1.447 1.183-2.759 2.647-2.827 1.507-.07 2.87 1.233 2.874 2.748.004 1.441-1.275 2.742-2.722 2.766zM181.633 58.301c-1.446-.024-2.727-1.324-2.725-2.763.003-1.514 1.365-2.819 2.873-2.75 1.465.066 2.693 1.377 2.648 2.825-.045 1.448-1.362 2.712-2.796 2.688zM79.802 24.193c1.608-.03 2.863 1.136 2.923 2.716.063 1.664-1.153 2.972-2.792 3.005-1.651.032-2.926-1.221-2.925-2.875 0-1.599 1.196-2.817 2.794-2.846zM192.865 30.426c1.611.029 2.908 1.38 2.842 2.959-.066 1.541-1.345 2.759-2.899 2.763-1.608.003-2.938-1.315-2.918-2.895.019-1.598 1.345-2.857 2.975-2.827zM47.627 93.62c-1.561-.025-2.922-1.44-2.871-2.984.052-1.57 1.469-2.897 3.02-2.829 1.513.067 2.795 1.398 2.797 2.903.002 1.558-1.392 2.935-2.946 2.91zM45.754 163.77c-1.394-.024-2.538-1.221-2.479-2.587.057-1.307 1.208-2.425 2.512-2.441 1.385-.02 2.514 1.126 2.511 2.547-.004 1.432-1.109 2.51-2.544 2.481zM236.675 40.896c-1.4.011-2.567-1.133-2.561-2.51.008-1.35 1.229-2.541 2.585-2.517 1.332.023 2.408 1.111 2.44 2.466.035 1.436-1.037 2.549-2.464 2.561zM56.339 10.046c1.358 0 2.562 1.209 2.544 2.557-.019 1.384-1.195 2.502-2.598 2.471-1.371-.031-2.408-1.08-2.426-2.452-.018-1.421 1.094-2.575 2.48-2.576zM89.675 213.229c-1.355-.038-2.533-1.289-2.473-2.627.063-1.398 1.234-2.45 2.662-2.392 1.371.054 2.373 1.117 2.361 2.505-.013 1.404-1.179 2.555-2.55 2.514zM33.826 228.229c-1.355-.038-2.533-1.289-2.473-2.627.063-1.398 1.234-2.45 2.662-2.392 1.371.054 2.373 1.117 2.361 2.505-.013 1.404-1.179 2.555-2.55 2.514z"/>
        <path stroke-width=".25" d="M177.823 203.245c-3.004-.021-5.47-2.507-5.451-5.49.018-2.975 2.521-5.468 5.5-5.479 3.048-.013 5.522 2.514 5.485 5.601-.036 3.023-2.476 5.392-5.534 5.368zm-4.969-5.49c-.009 2.83 2.234 5.093 5.045 5.085 2.776-.007 5.098-2.345 5.071-5.105-.027-2.723-2.277-4.956-5.018-4.979-2.862-.028-5.087 2.154-5.098 4.999z"/>
        <path stroke-width=".5" d="M178.481 5.001c1.328-.044 2.449 1.031 2.484 2.384.035 1.362-1.002 2.485-2.34 2.533-1.322.047-2.452-1.038-2.486-2.389-.032-1.362 1.006-2.483 2.342-2.528zM41.914 128.342c-1.339-.075-2.354-1.21-2.3-2.574.054-1.345 1.202-2.413 2.523-2.345 1.338.068 2.352 1.201 2.3 2.568-.051 1.346-1.208 2.423-2.523 2.351zM132.885 215.755c.027 1.278-.905 2.28-2.168 2.327-1.331.05-2.37-.955-2.361-2.284.007-1.278.963-2.237 2.242-2.248 1.287-.011 2.258.927 2.287 2.205zM19.705 118.722c.026 1.219-.994 2.273-2.236 2.309-1.309.04-2.414-1.025-2.392-2.304.022-1.23 1.056-2.226 2.311-2.228 1.256-.001 2.291.991 2.317 2.223zM194.16 114.519c1.228.015 2.233 1.046 2.24 2.299.007 1.253-.982 2.293-2.216 2.323-1.281.034-2.347-1.057-2.314-2.373.029-1.248 1.066-2.264 2.29-2.249zM96.698 176.094c.062-1.258 1.241-2.309 2.478-2.208 1.205.098 2.201 1.207 2.148 2.392-.056 1.252-1.251 2.319-2.478 2.214-1.204-.105-2.206-1.221-2.148-2.398zM191.435 237.97c-1.135.021-2.108-.892-2.133-2.003-.025-1.092.935-2.096 2.036-2.131 1.109-.036 2.068.896 2.093 2.034.026 1.174-.831 2.078-1.996 2.1zM175.623 132.624c.005 1.175-.869 2.057-2.037 2.059-1.132.002-2.094-.938-2.093-2.044.002-1.097.981-2.082 2.079-2.091 1.115-.009 2.047.934 2.051 2.076zM137.83 250.8c-.021 1.145-1.048 2.176-2.193 2.2-1.228.025-2.251-1.018-2.235-2.272.018-1.284 1.008-2.216 2.304-2.158 1.175.05 2.145 1.068 2.124 2.23zM131.51 105.318c.974-.001 1.889.928 1.869 1.898-.021.978-.971 1.875-1.939 1.83-.927-.043-1.776-.906-1.796-1.826-.022-.968.893-1.9 1.866-1.902zM118.683 115.011c1.023.004 1.761.767 1.734 1.796-.025.933-.769 1.7-1.686 1.738-.928.04-1.828-.819-1.847-1.761-.019-.961.808-1.776 1.799-1.773zM217.628 220.151c-1.135.021-2.108-.892-2.133-2.003-.025-1.092.935-2.096 2.036-2.131 1.109-.036 2.068.896 2.093 2.034.026 1.175-.831 2.079-1.996 2.1zM181.845 197.734c.024 2.22-1.67 3.973-3.88 4.015-2.17.039-4.016-1.696-4.089-3.853-.074-2.176 1.812-4.121 3.998-4.125 2.165-.002 3.948 1.779 3.971 3.963z"/>
    </g>
</svg>
