<svg xmlns="http://www.w3.org/2000/svg" viewBox="0 0 256 256">
    <g fill="#ffb380" fill-rule="evenodd" stroke="#000" stroke-width=".5" clip-rule="evenodd">
        <path d="M136.627 237.965l-53.669-76.341 1.641-1.284 53.858 76.361zM76.039 151.763l-43.777-62.13 1.643-1.173 43.713 62.282zM197.438 193.707l1.45 1.664-51.312 44.025-1.436-1.677zM112.322 47.25l-.722 1.917-60.229-21.812.648-1.695zM83.558 107.58l-.843 1.747-48.067-21.734.91-1.774zM42.372 30.236l1.914.622-12.178 47.251-2.01-.574zM166.864 130.501l-1.073 1.701-36.989-23.27 1.256-1.979zM129.971 197.632l2.011-.507 8.977 38.904-2.047.484zM77.105 67.818l-.553-2.03 35.039-12.53.699 1.883zM117.224 147.399l-1.798 1.29-20.208-28.959 1.637-1.151zM35.757 82.9l-.693-2.052L64.078 70.5l.803 1.658zM129.213 185.805l-2.05.523-6.514-26.403 2.049-.511zM114.622 104.726l.53 2.048-15.514 4.1-.546-2.062z"/>
    </g>
    <g fill="#ff8080" fill-rule="evenodd" stroke="#000" clip-rule="evenodd">
        <path stroke-width=".5" d="M86.914 112.089c.001-2.229 1.879-4.102 4.11-4.101 2.273.002 4.064 1.813 4.063 4.111-.001 2.278-1.758 4.043-4.037 4.058-2.253.014-4.138-1.84-4.136-4.068z"/>
        <path stroke-width=".25" d="M91.041 117.649c-3.068.012-5.642-2.528-5.64-5.567.001-2.999 2.571-5.527 5.569-5.601 2.618-.064 5.595 2.051 5.641 5.628.038 3.052-2.487 5.528-5.57 5.54zm-.026-.383c2.82.012 5.204-2.319 5.22-5.105a5.19 5.19 0 0 0-5.206-5.239c-2.867-.007-5.076 2.216-5.153 5.063-.074 2.789 2.181 5.294 5.139 5.281zM210.313 188.973c-.006 3.06-2.504 5.531-5.585 5.524-3.073-.007-5.607-2.548-5.595-5.609.011-3.024 2.619-5.605 5.645-5.589 3.046.017 5.541 2.574 5.535 5.674zm-5.581-5.204c-2.936.016-5.164 2.264-5.148 5.19.017 2.856 2.32 5.161 5.154 5.155 2.847-.008 5.21-2.363 5.213-5.192 0-2.858-2.339-5.169-5.219-5.153z"/>
        <path stroke-width=".5" d="M117.693 103.613c-.031-2.704 2.23-4.953 5.025-4.897 2.672.054 4.93 2.263 4.938 4.92.007 2.707-2.336 5.04-5.059 5.031-2.902-.01-4.993-2.526-4.904-5.054z"/>
        <path stroke-width=".25" d="M114.503 51.183c.039-3.149 2.587-5.615 5.757-5.569 2.896.043 5.459 2.67 5.438 5.597-.023 2.964-2.339 5.584-5.691 5.578-3.105-.005-5.543-2.553-5.504-5.606zm5.606-5.1c-2.715-.091-5.224 2.17-5.243 5.187-.014 2.139 1.735 5.098 5.204 5.132 3.022.029 5.147-2.383 5.175-5.126.031-2.924-2.222-5.193-5.136-5.193z"/>
        <path stroke-width=".5" d="M172.977 130.763c2.568.002 4.767 2.193 4.768 4.757.001 2.537-2.233 4.773-4.77 4.777-2.575.005-4.833-2.24-4.793-4.813.045-2.918 2.625-4.825 4.795-4.721zM145.451 243.057c-.006 2.117-1.858 3.96-3.959 3.935-2.151-.026-3.869-1.813-3.854-4.01.015-2.176 1.725-3.84 3.93-3.822a3.892 3.892 0 0 1 3.883 3.897zM45.338 20.411c1.636-.116 3.709 1.421 3.722 3.678.011 1.965-1.733 3.729-3.702 3.728-1.766-.001-3.675-1.461-3.736-3.709-.052-1.975 1.72-3.696 3.716-3.697zM70.424 65.135c1.54-.041 3.431 1.122 3.44 3.358.008 1.862-1.446 3.311-3.379 3.365-1.84.051-3.469-1.557-3.456-3.368.013-1.826 1.555-3.35 3.395-3.355zM120.051 149.892c1.83-.02 3.48 1.59 3.517 3.43.038 1.885-1.561 3.489-3.485 3.497a3.418 3.418 0 0 1-3.451-3.434c.004-1.911 1.533-3.474 3.419-3.493zM32.712 83.873c.013 1.736-1.502 3.274-3.239 3.288-1.705.014-3.281-1.562-3.269-3.268.012-1.721 1.492-3.21 3.218-3.236 1.753-.029 3.277 1.461 3.29 3.216zM82.995 156.265c0 1.678-1.229 2.917-2.891 2.911-1.65-.004-2.903-1.27-2.897-2.923.007-1.641 1.289-2.9 2.943-2.875 1.866.028 2.94 1.556 2.845 2.887zM204.879 184.81c-2.235-.046-4.198 1.787-4.252 3.975-.056 2.243 1.779 4.166 4 4.2 2.344.035 4.132-1.665 4.176-3.975.043-2.262-1.722-4.151-3.924-4.2zM132.402 191.731c-.004 1.479-1.343 2.801-2.825 2.786-1.438-.015-2.762-1.346-2.774-2.788-.012-1.476 1.316-2.807 2.807-2.811 1.488-.004 2.796 1.313 2.792 2.813zM116.032 51.238c-.002-2.303 1.782-4.124 4.047-4.132 2.201-.006 4.119 1.904 4.127 4.112.01 2.202-1.899 4.083-4.144 4.082-2.268-.002-4.028-1.775-4.03-4.062z"/>
    </g>
    <g fill="#ffe680" fill-rule="evenodd" stroke="#000" stroke-width=".5" clip-rule="evenodd">
        <ellipse cx="184.188" cy="246.5" rx="2.135" ry="2.117"/>
        <path d="M10.172 5.616c-.075.087-.13.213-.225.255-.842.382-1.472.947-1.717 1.877-.018.07-.15.112-.23.168V5.617l2.172-.001zM80.597 90.678c-1.823-.051-3.543-1.611-3.511-3.557.028-1.798 1.543-3.459 3.458-3.453 2.198.007 3.56 1.609 3.541 3.333-.023 2.194-1.366 3.572-3.488 3.677zM233.987 46.616c-2.165.273-4.472-2.149-4.416-4.446.053-2.197 2.022-4.311 4.595-4.278 2.164.029 4.255 1.855 4.243 4.467-.009 2.186-1.878 4.444-4.422 4.257zM229.598 127.69c.11 2.526-2.01 4.455-4.254 4.477-2.447.022-4.528-1.937-4.545-4.448-.014-2.435 2.115-4.395 4.517-4.368 2.335.027 4.356 1.969 4.282 4.339zM130.743 16.328c.026-1.782 1.477-3.676 3.798-3.669 2.113.006 3.694 1.741 3.723 3.744.028 2.017-1.875 3.785-3.747 3.757-2.077-.033-3.737-1.635-3.774-3.832z"/>
        <ellipse cx="10.438" cy="7.916" rx="3.044" ry="2.956"/>
        <ellipse cx="238.897" cy="233.785" rx="2.299" ry="2.284"/>
        <circle cx="217.833" cy="215.999" r="2.44"/>
        <path d="M120.894 114.817c1-.082 1.779.66 1.797 1.71.017 1.01-.805 1.824-1.776 1.878-.962.053-1.91-1.002-1.901-1.796.012-.939.808-1.968 1.88-1.792zM202.619 69.348c1.026.002 1.82.813 1.818 1.859 0 1.065-.816 1.8-1.914 1.862-1.073.06-1.929-1.03-1.905-1.825.032-1.127.89-2.028 2.001-1.896zM154.625 103.683c.115.974-1.021 1.927-1.896 1.938-.964.013-1.936-.954-1.934-1.92 0-.873.958-1.975 1.926-1.921 1.056.057 1.894.847 1.904 1.903zM166.213 42.272c-.852.136-1.894-.882-1.883-1.835.01-1.021.932-1.996 1.922-1.993.975.002 1.915.952 1.911 1.928-.006 1.085-.835 1.895-1.95 1.9zM28.563 29.126c.004-1.2.892-2.063 2.112-2.053 1.195.01 2.11.912 2.099 2.1-.011 1.183-.895 2.126-2.135 2.129-1.116.004-2.261-1.093-2.076-2.176zM242.883 87.155c.175 1.122-1.136 2.333-2.225 2.268-1.355-.081-2.243-.917-2.246-2.303-.003-1.33.885-2.19 2.258-2.188 1.336.002 2.215.884 2.213 2.223zM145.431 202.501c-.001 1.434-.813 2.146-2.24 2.264-1.193.099-2.418-1.184-2.379-2.296.045-1.271 1.067-2.358 2.332-2.342 1.266.018 2.435.903 2.287 2.374zM150.794 81.56c0 1.345-.978 2.324-2.287 2.355-1.222.03-2.293-1.057-2.332-2.422-.035-1.2 1.213-2.377 2.362-2.322 1.32.064 2.259 1.004 2.257 2.389zM17.396 116.35c1.173-.235 2.431 1.156 2.369 2.266-.073 1.314-1.033 2.316-2.352 2.335-1.182.018-2.351-.905-2.406-2.352-.041-1.081 1.182-2.486 2.389-2.249zM196.561 26.564c-1.436-.002-2.282-.995-2.361-2.546-.066-1.283 1.21-2.467 2.451-2.46 1.19.007 2.483 1.118 2.457 2.606-.02 1.182-1.117 2.578-2.547 2.4zM42.512 128.359c-1.193.22-2.479-1.159-2.449-2.525.035-1.534 1.373-2.473 2.539-2.488 1.073-.013 2.464 1.111 2.442 2.519-.023 1.48-1.034 2.495-2.532 2.494zM79.268 175.232c-.179-1.514 1.203-2.587 2.521-2.559 1.351.03 2.589 1.24 2.589 2.565 0 1.259-1.19 2.608-2.671 2.59-1.261-.015-2.65-1.256-2.439-2.596zM46.444 159.521c1.43-.161 2.577 1.18 2.548 2.565-.031 1.512-1.07 2.488-2.547 2.534-1.554.05-2.628-1.309-2.573-2.567.068-1.545 1.013-2.533 2.572-2.532zM91.326 215.082c-1.401.205-2.672-1.274-2.616-2.585.06-1.405 1.051-2.492 2.65-2.512a2.47 2.47 0 0 1 2.483 2.577c-.061 1.515-1.012 2.52-2.517 2.52zM59.729 10.146c0 1.526-1.012 2.46-2.595 2.506-1.414.042-2.529-1.167-2.508-2.556.023-1.513 1.19-2.541 2.525-2.579 1.291-.037 2.781 1.203 2.578 2.629zM30.223 231.968c-.166-1.461 1.172-2.584 2.541-2.577 1.602.008 2.554 1.182 2.572 2.644.016 1.313-1.267 2.536-2.549 2.479-1.563-.071-2.565-1.002-2.564-2.546zM11.561 97.959c-1.477.085-2.61-1.056-2.656-2.489-.045-1.383 1.204-2.592 2.574-2.626 1.518-.038 2.58 1.042 2.607 2.529.025 1.312-.699 2.546-2.525 2.586zM245.284 158.115c1.267-.195 2.754 1.309 2.735 2.745-.02 1.429-1.293 2.87-2.821 2.867-1.335-.003-2.839-1.177-2.829-2.854.007-1.577 1.39-2.933 2.915-2.758zM27.58 164.631c1.389-.162 2.81 1.369 2.804 2.765-.006 1.41-1.474 2.875-2.778 2.871-1.606-.006-2.905-1.531-2.889-2.811.021-1.697 1.477-2.99 2.863-2.825zM146.833 160.852c-.046-1.795 1.445-2.937 2.919-2.979 1.468-.041 3.036 1.501 2.979 3.037-.063 1.724-1.544 2.955-2.97 2.964-1.664.008-3.135-1.604-2.928-3.022zM112.267 77.65c1.627-.192 3.065 1.483 3.03 2.996-.042 1.713-1.313 2.964-3.03 3.021-1.667.055-3.04-1.509-3.03-3.084.011-1.389 1.537-3.2 3.03-2.933zM106.902 180.981c-1.333-.001-2.344-.993-2.344-2.3 0-1.329 1.022-2.227 2.403-2.324 1.363-.096 2.354 1.32 2.326 2.353-.033 1.302-1.035 2.271-2.385 2.271z"/>
    </g>
</svg>
