<?xml version="1.0" encoding="UTF-8" standalone="no"?>
<!-- Created with Inkscape (http://www.inkscape.org/) -->

<svg
   xmlns:dc="http://purl.org/dc/elements/1.1/"
   xmlns:cc="http://creativecommons.org/ns#"
   xmlns:rdf="http://www.w3.org/1999/02/22-rdf-syntax-ns#"
   xmlns:svg="http://www.w3.org/2000/svg"
   xmlns="http://www.w3.org/2000/svg"
   xmlns:xlink="http://www.w3.org/1999/xlink"
   xmlns:sodipodi="http://sodipodi.sourceforge.net/DTD/sodipodi-0.dtd"
   xmlns:inkscape="http://www.inkscape.org/namespaces/inkscape"
   viewBox="0 0 210 297"
   version="1.1"
   id="svg8"
   inkscape:version="0.92.4 (5da689c313, 2019-01-14)"
   sodipodi:docname="babs_cutie.svg">
  <title
     id="title828">Babs Seed Cutie Mark</title>
  <defs
     id="defs2" />
  <sodipodi:namedview
     id="base"
     pagecolor="#ffffff"
     bordercolor="#666666"
     borderopacity="1.0"
     inkscape:pageopacity="0.0"
     inkscape:pageshadow="2"
     inkscape:zoom="1.0960189"
     inkscape:cx="397.85713"
     inkscape:cy="730.62336"
     inkscape:document-units="mm"
     inkscape:current-layer="layer2"
     showgrid="false"
     inkscape:window-width="1920"
     inkscape:window-height="1027"
     inkscape:window-x="1592"
     inkscape:window-y="-8"
     inkscape:window-maximized="1" />
  <metadata
     id="metadata5">
    <rdf:RDF>
      <cc:Work
         rdf:about="">
        <dc:format>image/svg+xml</dc:format>
        <dc:type
           rdf:resource="http://purl.org/dc/dcmitype/StillImage" />
        <dc:title>Babs Seed Cutie Mark</dc:title>
      </cc:Work>
    </rdf:RDF>
  </metadata>
  <g
     inkscape:groupmode="layer"
     id="layer2"
     inkscape:label="tracing layer"
     style="display:inline">
    <ellipse
       style="opacity:1;fill:#ff2a2a;fill-opacity:1;stroke:none;stroke-width:0.412;stroke-miterlimit:4;stroke-dasharray:none;stroke-opacity:0"
       id="path945"
       cx="193.71375"
       cy="106.2375"
       rx="4.583672"
       ry="5.8932929"
       transform="rotate(19.433033)" />
    <ellipse
       style="opacity:1;fill:#ff2a2a;fill-opacity:1;stroke:none;stroke-width:0.412;stroke-miterlimit:4;stroke-dasharray:none;stroke-opacity:0"
       id="path943"
       cx="132.73941"
       cy="170.34097"
       rx="5.7062044"
       ry="4.6772165" />
    <path
       style="fill:#ffeeaa;fill-opacity:1;stroke:none;stroke-width:0.26458332px;stroke-linecap:butt;stroke-linejoin:miter;stroke-opacity:1"
       d="m 182.78563,156.87059 c 9.41026,3.44349 18.15169,2.6545 26.56659,-0.37418 -4.99121,6.64462 -11.98345,11.49884 -26.3795,9.72861 z"
       id="path908"
       inkscape:connector-curvature="0"
       sodipodi:nodetypes="cccc" />
    <path
       style="fill:#ffb380;fill-opacity:1;stroke:none;stroke-width:0.26458332px;stroke-linecap:butt;stroke-linejoin:miter;stroke-opacity:0.03517588"
       d="m 110.75649,146.20653 -8.2319,3.55468 L 88.305851,105.98247 84.564079,91.950817 61.739261,0.27737043 96.163576,98.124744 100.84079,114.02728 Z"
       id="path858"
       inkscape:connector-curvature="0"
       sodipodi:nodetypes="cccccccc" />
    <path
       style="fill:#ffe6d5;fill-opacity:1;stroke:none;stroke-width:0.26458332px;stroke-linecap:butt;stroke-linejoin:miter;stroke-opacity:0"
       d="M 143.30992,126.00096 96.537752,99.060187 84.1899,92.886262 0,49.107513 l 87.931674,56.874957 12.909116,7.10937 35.35976,20.76684 z"
       id="path860"
       inkscape:connector-curvature="0"
       sodipodi:nodetypes="cccccccc" />
    <path
       style="fill:#ff8080;fill-opacity:1;stroke:none;stroke-width:0.99999994px;stroke-linecap:butt;stroke-linejoin:miter;stroke-opacity:0"
       d="m 419.81445,548.54883 c -21.66086,0.0302 -45.99187,-1.42125 -60.60351,22.42773 -79.41371,129.61829 102.67523,253.01926 197.98828,197.99024 25.32709,-14.6226 18.70205,-86.24284 -32.52539,-151.32227 -39.39798,-50.05127 -71.06844,-69.14285 -104.85938,-69.0957 z m -0.95312,39.38867 c 50.24322,1.18595 122.23191,88.36959 109.34765,149.20898 -37.586,9.82768 -78.173,3.45145 -125.1582,-37.47656 -42.89986,-68.37668 -25.41465,-108.01225 13.43555,-111.72265 0.78613,-0.025 1.57749,-0.0286 2.375,-0.01 z"
       transform="scale(0.26458333)"
       id="path905"
       inkscape:connector-curvature="0"
       sodipodi:nodetypes="ccccccccccc" />
    <ellipse
       style="opacity:1;fill:#ff9955;fill-opacity:1;stroke:none;stroke-width:0.412;stroke-miterlimit:4;stroke-dasharray:none;stroke-opacity:0"
       id="path863"
       cx="92.889526"
       cy="102.24069"
       rx="3.4611404"
       ry="3.3675961" />
    <path
       style="fill:#ffaaaa;fill-opacity:1;stroke:none;stroke-width:0.99999994px;stroke-linecap:butt;stroke-linejoin:miter;stroke-opacity:0"
       clip-path="none"
       d="m 572.71289,461.68359 c -19.59543,0.0107 -35.69023,-4.88008 -55.81836,15.24805 -45.04675,49.22945 -28.62542,116.7906 9.58789,155.00391 49.58781,49.58781 62.88004,112.17014 131.12696,85.41211 30.5103,-11.96238 69.4538,-119.68296 19.15624,-191.57618 -32.26485,-46.11803 -69.12174,-64.10698 -104.05273,-64.08789 z m 2.61328,35.85938 c 23.79622,-0.43621 67.61116,23.57524 79.45508,67.77734 15.64275,58.37949 -0.0974,116.67188 -22.62695,116.67188 -28.86448,0 -94.84511,-69.08082 -103.94532,-136.47071 -3.27591,-24.25914 21.54475,-47.50974 47.11719,-47.97851 z"
       transform="scale(0.26458333)"
       id="path867"
       inkscape:connector-curvature="0"
       sodipodi:nodetypes="scccsssssss" />
  </g>
</svg>
