<?xml version="1.0" encoding="UTF-8" standalone="no"?>
<!-- Created with Inkscape (http://www.inkscape.org/) -->

<svg
   xmlns:dc="http://purl.org/dc/elements/1.1/"
   xmlns:cc="http://creativecommons.org/ns#"
   xmlns:rdf="http://www.w3.org/1999/02/22-rdf-syntax-ns#"
   xmlns:svg="http://www.w3.org/2000/svg"
   xmlns="http://www.w3.org/2000/svg"
   xmlns:sodipodi="http://sodipodi.sourceforge.net/DTD/sodipodi-0.dtd"
   xmlns:inkscape="http://www.inkscape.org/namespaces/inkscape"
   viewBox="0 0 256 256"
   version="1.1"
   id="svg953"
   inkscape:version="0.92.4 (5da689c313, 2019-01-14)"
   sodipodi:docname="bloom_cutie.svg">
  <defs
     id="defs947" />
  <sodipodi:namedview
     id="base"
     pagecolor="#ffffff"
     bordercolor="#666666"
     borderopacity="1.0"
     inkscape:pageopacity="0.0"
     inkscape:pageshadow="2"
     inkscape:zoom="1.979899"
     inkscape:cx="-76.682158"
     inkscape:cy="119.89123"
     inkscape:document-units="px"
     inkscape:current-layer="layer8"
     showgrid="false"
     units="px"
     inkscape:pagecheckerboard="true"
     inkscape:window-width="1920"
     inkscape:window-height="1027"
     inkscape:window-x="1592"
     inkscape:window-y="-8"
     inkscape:window-maximized="1"
     inkscape:snap-nodes="false" />
  <metadata
     id="metadata950">
    <rdf:RDF>
      <cc:Work
         rdf:about="">
        <dc:format>image/svg+xml</dc:format>
        <dc:type
           rdf:resource="http://purl.org/dc/dcmitype/StillImage" />
        <dc:title></dc:title>
      </cc:Work>
    </rdf:RDF>
  </metadata>
  <g
     inkscape:groupmode="layer"
     id="layer8"
     inkscape:label="Layer 4">
    <g
       id="g1695"
       transform="translate(-0.35714397)">
      <path
         style="fill:#ffe6d5;fill-opacity:1;stroke-width:0.247471"
         d="m 118.41817,228.62349 c -6.11682,-6.13252 -11.10501,-8.85444 -21.26522,-18.45343 l -5.802214,-4.76496 -0.04464,-27.37061 c -0.02767,-16.96352 -0.102944,-28.91776 0.04907,-28.86518 54.080288,12.02806 67.211288,-5.38904 73.475118,0.48108 0.11803,0.18631 0.2163,14.60526 0.21839,28.87835 l 0.004,25.95109 -0.0109,1.21944 c -0.004,0.49696 -3.41599,2.68794 -6.26825,4.81016 -9.52266,7.08531 -15.0626,11.48321 -20.57757,16.84524 -3.12209,3.0355 -6.60371,7.14367 -8.15034,9.20811 -0.38239,0.5104 -1.79431,1.50836 -1.88266,1.50836 -0.0883,0 -1.49491,-1.48756 -2.58005,-2.81462 -2.40383,-2.40383 -5.85907,-5.31994 -7.16472,-6.63303 z M 129.02191,65.55428 c -10.09898,-10.236193 -26.92515,-1.539033 -37.651617,0.05065 -0.104757,-0.06474 -0.0642,-19.056857 -0.0642,-31.710336 V 10.888267 l -0.0012,-1.0597253 c -0.0014,-1.191958 9.876257,-0.8591819 16.693397,-1.3530367 5.69198,-0.4123453 28.53283,-0.6179448 35.15247,-0.2922732 11.55915,0.5686849 21.44629,1.4687371 21.79113,2.0130922 0.2364,0.373168 0.19941,57.573143 -0.0356,58.18547 -6.42946,-8.393243 -32.59657,4.628629 -36.01066,1.591903 z"
         id="path1709"
         inkscape:connector-curvature="0"
         sodipodi:nodetypes="cscsccccssccsccccscsssccccc" />
      <path
         style="fill:#ffaaaa;fill-opacity:1;stroke-width:0.247471"
         d="m 127.08289,150.15599 c -1.59867,-3.36887 -4.19103,-6.9317 -7.66152,-10.52967 -2.09534,-2.1723 -5.73001,-5.34125 -12.40087,-10.81192 -8.882759,-7.2846 -14.517259,-13.15432 -17.425362,-18.15279 -5.965329,-10.25326 -5.461772,-23.794647 1.214303,-32.654465 3.362542,-4.46243 8.138136,-7.556545 14.273319,-9.24771 1.65092,-0.455077 2.59709,-0.534485 6.39222,-0.53648 4.13902,-0.0022 4.60864,0.04493 6.63138,0.66518 3.58842,1.100353 6.31328,2.639659 8.77462,4.956896 l 1.30016,1.224036 1.4379,-1.371521 c 3.68565,-3.515516 8.16032,-5.301809 13.92734,-5.55981 4.99648,-0.22353 8.96879,0.588249 13.2158,2.700773 8.92761,4.440721 13.99234,13.079565 14.044,23.954678 0.0187,3.945816 -0.33149,6.444373 -1.35288,9.651373 -2.60054,8.16524 -7.35866,13.8293 -21.10223,25.12001 -10.95273,8.99797 -15.84661,14.18559 -18.73341,19.85784 -0.71002,1.39512 -1.37829,2.53658 -1.48506,2.53658 -0.10676,0 -0.57913,-0.81135 -1.04971,-1.803 z"
         id="path1707"
         inkscape:connector-curvature="0" />
      <path
         style="fill:#ff9955;fill-opacity:1;stroke-width:0.247471"
         d="M 83.242899,199.75304 C 65.599505,186.95357 56.392856,180.95785 47.653672,172.68658 26.479718,152.64633 13.739578,130.14128 9.5356921,105.75136 8.0604156,97.192168 7.4705886,97.163328 7.5086087,70.942686 l 0.036953,-25.484397 c 1.5648418,0.357249 4.8497557,0.924912 6.1253687,1.282525 6.819959,1.914109 12.305006,2.896652 17.067899,2.673943 3.707693,-0.17337 5.981189,-1.219366 8.741357,-2.543281 4.774426,-2.290057 5.955299,-5.208589 5.955299,-10.882374 0,-3.919701 -2.111605,-6.87304 -3.309478,-12.463896 l -0.765364,-3.572199 c 4.863492,-1.750816 10.744535,-3.657473 14.991436,-4.715128 9.479546,-2.349009 20.660007,-3.973212 30.059429,-5.152595 5.110829,-2.9507379 4.894585,-0.5168777 4.894585,0.802983 V 33.89459 c 0,12.653479 0.08571,23.059296 0.190469,23.124039 -10.300375,38.441524 -8.16375,63.014851 -0.144564,92.942861 0,12.39867 -0.04637,5.41332 -0.04637,28.073 v 27.54918 c -0.09212,4.57861 -1.561554,-0.65349 -6.723447,-4.40206 z"
         id="path1705"
         inkscape:connector-curvature="0"
         sodipodi:nodetypes="csssccssssccccscccccc" />
      <path
         style="fill:#ffccaa;fill-opacity:1;stroke-width:0.247471"
         d="m 165.05246,178.07413 -0.1894,-29.70314 c 9.40019,-35.08197 13.54812,-61.512073 0.1974,-84.635414 l -0.004,-26.417529 c -0.004,-22.339044 -0.33011,-28.5009686 -0.0404,-28.5009686 2.05513,0 18.28575,3.7775246 25.58818,5.2815796 7.27437,1.498278 23.41474,5.765578 23.91559,6.266428 -2.63044,4.701388 -4.30816,10.761857 -4.39093,16.08818 0,6.336211 3.28244,10.500828 9.20199,12.434057 9.83984,3.147069 19.48624,-0.48943 28.30628,-2.501425 0.33734,0 0.24485,3.163422 0.24272,21.168254 -10e-4,11.126915 -0.15957,22.213193 -0.29712,24.527047 -0.45689,7.685905 -1.3155,14.216571 -3.04441,21.254071 -4.77834,19.45007 -14.59045,36.671 -30.55961,52.97344 -10.17274,10.38506 -20.48215,18.87866 -39.58516,32.67915 -1.76942,1.27827 -4.85213,3.07462 -6.32387,4.12924 l -3.01745,2.16225 z"
         id="path1703"
         inkscape:connector-curvature="0"
         sodipodi:nodetypes="ccccsscccccccscscc" />
      <path
         style="fill:#ff8080;fill-opacity:1;stroke-width:0.247471"
         d="m 147.55307,171.78973 c -1.5737,-0.54374 -3.43188,-1.75595 -5.74998,-3.75107 -0.97765,-0.84144 -1.87138,-1.43012 -2.02605,-1.33452 -0.15222,0.0941 -0.68027,0.6201 -1.17345,1.16893 -2.18197,2.42823 -5.62687,3.90894 -9.18696,3.94878 -3.64612,0.0408 -6.5086,-1.11462 -9.20108,-3.71399 l -1.65749,-1.60017 -2.04377,1.769 c -2.73606,2.36822 -5.103,3.53783 -7.19105,3.55344 -2.03614,0.0152 -3.62899,-0.69053 -5.35774,-2.37385 -1.67499,-1.63097 -3.07664,-3.70711 -5.965239,-8.83581 -2.389454,-4.24246 -4.919781,-8.07196 -6.45886,-9.7751 -1.085673,-1.20141 -4.369094,-5.98614 -7.217418,-10.51752 C 74.127321,124.10607 68.254747,109.97571 66.633975,97.762839 66.135022,94.003108 66.327042,87.735056 67.044874,84.350158 c 1.483608,-6.995894 4.564719,-12.666873 9.659635,-17.779175 5.087534,-5.104897 10.281757,-8.072596 16.828823,-9.615085 4.578922,-1.078793 6.674178,-1.345322 10.517518,-1.337888 9.19903,0.01779 17.10141,3.144557 23.96078,9.480654 l 1.68839,1.559587 0.91006,-0.541316 c 3.34858,-1.991778 7.42321,-3.573654 11.30384,-4.388435 3.3999,-0.713848 11.40367,-0.651505 14.95825,0.116511 16.67224,3.602268 28.73665,15.410374 32.23534,31.550519 0.463,2.135887 0.54616,3.306611 0.55634,7.8319 0.0136,6.05328 -0.29843,8.00936 -2.12092,13.29477 -2.72069,7.89028 -7.1564,15.34402 -17.49235,29.39398 -5.91739,8.0437 -6.08029,8.27547 -7.04426,10.02258 -0.48813,0.8847 -1.63106,3.33467 -2.53984,5.44436 -0.90877,2.10969 -2.1944,4.89537 -2.85695,6.19041 -2.96223,5.79003 -5.9481,7.63569 -10.05646,6.2162 z m -17.93541,-22.36732 c 2.8868,-5.67225 7.78068,-10.85987 18.73341,-19.85784 13.74357,-11.29071 18.50169,-16.95477 21.10223,-25.12001 1.02139,-3.207 1.37163,-5.705557 1.35288,-9.651373 -0.0517,-10.875113 -5.11639,-19.513957 -14.044,-23.954678 -4.24701,-2.112524 -8.21932,-2.924303 -13.2158,-2.700773 -5.76702,0.258001 -10.24169,2.044294 -13.92734,5.55981 l -1.4379,1.371521 -1.30016,-1.224036 c -2.46134,-2.317237 -5.1862,-3.856543 -8.77462,-4.956896 -2.02274,-0.620249 -2.49236,-0.667355 -6.63138,-0.66518 -3.79513,0.002 -4.7413,0.0814 -6.39222,0.53648 -2.99298,0.825017 -5.854843,2.081635 -8.121697,3.566166 -2.725356,1.784798 -4.336823,3.273124 -6.151622,5.681544 -6.676075,8.859818 -7.179632,22.401205 -1.214303,32.654465 2.908103,4.99847 8.542603,10.86819 17.425362,18.15279 6.67086,5.47067 10.30553,8.63962 12.40087,10.81192 3.47049,3.59797 6.06285,7.1608 7.66152,10.52967 0.47058,0.99165 0.94295,1.803 1.04971,1.803 0.10677,0 0.77504,-1.14146 1.48506,-2.53658 z m 2.47388,-93.278004 c -0.6145,-1.793423 -3.26723,-6.64011 -4.84423,-8.850665 -2.06123,-2.889332 -6.57096,-7.608486 -9.51249,-9.954236 -1.80631,-1.440454 -2.15137,-1.820374 -1.88454,-2.074874 0.94343,-0.899809 11.93516,-8.04518 12.21231,-7.93883 0.89408,0.343092 3.25287,5.611784 4.30297,9.611296 1.04441,3.977805 1.33382,6.237876 1.34015,10.465393 0.006,3.709999 -0.63203,9.132007 -1.10846,9.42646 -0.12308,0.07606 -0.35065,-0.231982 -0.50571,-0.684544 z"
         id="path1699"
         inkscape:connector-curvature="0" />
      <path
         style="fill:#ffeeaa;fill-opacity:1;stroke-width:0.247471"
         d="m 127.13293,248.65828 c -3.86257,-6.31798 -6.77895,-10.00939 -12.1832,-15.42087 C 107.3209,225.59836 101.68395,221.08408 81.283517,206.27626 61.289532,191.76345 53.318589,185.43273 43.410736,176.19676 26.403822,160.34315 14.599539,142.9966 8.2031145,124.4587 5.4178951,116.38666 3.6514101,108.55597 2.5996317,99.618871 2.3913946,97.849453 2.2200082,95.866206 2.2187731,95.211655 2.2175379,94.557104 2.1222391,94.079837 2.006998,94.151059 1.5937498,94.406461 1.4741143,87.143922 1.4741143,61.80206 c 0,-24.491051 0.020953,-25.71775 0.4330743,-25.354651 0.5781321,0.509362 7.2005894,2.92507 11.6932324,4.2654 11.528996,3.439545 20.64483,3.651881 24.163061,0.562836 3.719935,-3.266147 2.329771,-10.531913 -4.101857,-21.438568 -0.985086,-1.670492 -1.753664,-3.069951 -1.707953,-3.109911 0.234048,-0.204597 8.906937,-3.005109 12.984034,-4.192598 C 61.670521,7.6609915 80.719278,4.2217037 99.843843,2.6211656 106.17987,2.0909024 111.868,1.7447036 114.31667,1.7403011 c 1.45224,-0.00261 1.99229,-0.078394 1.73652,-0.2436815 -0.24233,-0.156609 3.96747,-0.2398921 12.12608,-0.2398921 6.87351,0 12.35236,0.091931 12.17521,0.2042911 -0.18138,0.1150483 1.56148,0.27535 3.98969,0.3669563 20.98121,0.7915358 45.60196,4.6371662 65.3768,10.2115091 3.98181,1.122433 13.49553,4.17751 14.2785,4.585155 0.36936,0.1923 0.23842,0.525044 -1.08351,2.753535 -4.26384,7.187916 -6.38351,12.756749 -6.3878,16.782169 -0.002,2.233017 0.54799,3.701099 1.83078,4.883538 4.3129,3.975486 15.67938,3.024606 31.20487,-2.61049 2.44996,-0.889232 4.64936,-1.785706 4.88755,-1.992164 0.41206,-0.357165 0.43307,0.807298 0.43307,23.999201 0,23.722404 -0.14553,33.45509 -0.49699,33.237877 -0.0946,-0.05849 -0.24317,0.975798 -0.33003,2.298429 -0.34925,5.317076 -1.59953,12.890046 -3.15483,19.109076 -4.29154,17.16017 -12.47327,32.68046 -25.17833,47.7619 -3.44867,4.09372 -14.28669,14.91134 -19.09666,19.06072 -7.92086,6.83302 -14.97948,12.28233 -30.93388,23.88118 -20.65134,15.01353 -26.07371,19.31277 -33.3723,26.45996 -5.54034,5.4254 -8.55276,9.10231 -12.12797,14.80322 -1.0019,1.5976 -1.92167,2.90471 -2.04392,2.90471 -0.12226,0 -0.57972,-0.58465 -1.01659,-1.29922 z m 3.03157,-13.2397 c 7.73987,-9.45652 17.42975,-17.64899 42.55956,-35.98264 20.58949,-15.02124 29.80238,-22.54918 39.47162,-32.25266 7.39991,-7.4261 12.0855,-13.06514 17.07118,-20.54492 10.4074,-15.61371 15.76835,-30.67801 17.85519,-50.173153 0.33317,-3.11245 0.42395,-7.764925 0.51689,-26.491045 0.082,-16.514134 0.0373,-22.80644 -0.16365,-23.048553 -0.22984,-0.276943 -0.53571,-0.252302 -1.81612,0.146294 -10.0524,3.129378 -19.49425,4.075697 -25.46612,2.552369 -2.53442,-0.646488 -5.08919,-2.041014 -6.78219,-3.702084 -4.95574,-4.862244 -5.05407,-12.676368 -0.28892,-22.961114 0.55272,-1.192965 0.93706,-2.23692 0.85408,-2.3199 -0.29794,-0.297941 -6.59016,-2.131797 -12.21988,-3.56146 -9.94492,-2.525506 -21.48711,-4.722994 -31.86559,-6.06681 -2.71535,-0.351586 -5.01574,-0.687908 -5.11197,-0.74738 -0.26961,-0.166632 -6.46805,-0.7845547 -12.09968,-1.2062184 -15.23385,-1.140624 -32.35246,-1.187744 -47.39069,-0.1304454 -5.917707,0.4160582 -13.668138,1.2116518 -14.283299,1.4662028 -0.310732,0.128579 -2.45812,0.471321 -4.771974,0.76165 -9.399422,1.179383 -20.464447,3.247386 -29.943993,5.596395 -5.768861,1.429511 -11.841149,3.12771 -13.177418,3.685247 l -0.803865,0.335401 0.891633,1.930701 c 2.397264,5.190924 3.562016,9.617482 3.562016,13.537183 0,3.986408 -1.056741,6.815165 -3.536064,9.465567 -2.687775,2.873243 -6.890301,4.45308 -12.549552,4.717703 C 25.912801,50.647619 20.048947,49.791345 13.228988,47.877236 11.45957,47.380626 9.7552567,46.917311 9.4416253,46.847645 L 8.8713865,46.72098 8.960703,70.942686 c 0.096687,26.220491 0.081855,25.892339 1.557132,34.451534 4.203886,24.38992 16.140454,45.28783 37.314408,65.32808 8.739184,8.27127 18.035119,15.69556 35.678513,28.49503 3.811054,2.76474 7.263274,5.34539 7.671601,5.73477 0.408328,0.38938 3.476973,2.74519 6.819215,5.23513 13.156298,9.80131 21.387798,17.12265 27.533288,24.48894 1.33424,1.59928 2.52297,2.90778 2.64162,2.90778 0.11866,0 1.01327,-0.97441 1.98802,-2.16537 z m 36.12531,-86.52268 c 0,-0.0514 0.19488,-0.24627 0.43307,-0.43307 0.39251,-0.30783 0.40126,-0.29907 0.0934,0.0934 -0.32329,0.41223 -0.52651,0.54332 -0.52651,0.33964 z m 1.97977,-2.72218 c 0,-0.0514 0.19488,-0.24627 0.43307,-0.43307 0.39251,-0.30783 0.40126,-0.29907 0.0934,0.0934 -0.32329,0.41223 -0.52651,0.54332 -0.52651,0.33964 z m 0.74241,-0.98988 c 0,-0.0514 0.19489,-0.24628 0.43308,-0.43308 0.3925,-0.30782 0.40125,-0.29907 0.0934,0.0934 -0.32329,0.41222 -0.52651,0.54331 -0.52651,0.33964 z m 3.4646,-4.70195 c 0,-0.0514 0.19488,-0.24627 0.43307,-0.43308 0.3925,-0.30782 0.40126,-0.29907 0.0934,0.0934 -0.32329,0.41222 -0.52651,0.54331 -0.52651,0.33964 z m 13.12354,-21.06534 c 0,-0.13611 0.10795,-0.41451 0.23989,-0.61868 0.13194,-0.20416 0.23989,-0.25984 0.23989,-0.12373 0,0.13611 -0.10795,0.41451 -0.23989,0.61868 -0.13194,0.20416 -0.23989,0.25984 -0.23989,0.12373 z m 3.47655,-10.4144 c 0.0119,-0.28829 0.0705,-0.34693 0.14951,-0.14952 0.0715,0.17864 0.0627,0.39209 -0.0195,0.47432 -0.0822,0.0822 -0.14072,-0.0639 -0.12998,-0.3248 z m 0.24747,-1.23736 c 0.0119,-0.28829 0.0705,-0.34693 0.14952,-0.14951 0.0715,0.17864 0.0627,0.39209 -0.0195,0.47432 -0.0822,0.0822 -0.14072,-0.0639 -0.12998,-0.32481 z m 0.26701,-1.58794 c 0,-0.34027 0.0562,-0.47947 0.12482,-0.30934 0.0686,0.17014 0.0686,0.44855 0,0.61868 -0.0686,0.17014 -0.12482,0.0309 -0.12482,-0.30934 z m 0.30455,-4.57821 c 4.9e-4,-1.769419 0.0399,-2.460801 0.0876,-1.5364 0.0477,0.92439 0.0474,2.3721 -7.4e-4,3.21712 -0.0482,0.84502 -0.0872,0.0887 -0.0868,-1.68072 z m -0.29538,-4.949421 c 0.005,-0.408327 0.0605,-0.545411 0.12325,-0.304629 0.0627,0.240782 0.0586,0.574867 -0.009,0.742413 -0.0678,0.167545 -0.11913,-0.02946 -0.11408,-0.437784 z M 189.32415,94.8963 c 0.0119,-0.288291 0.0705,-0.346929 0.14952,-0.149514 0.0715,0.178642 0.0627,0.392088 -0.0195,0.47432 -0.0822,0.08223 -0.14072,-0.06393 -0.12998,-0.324806 z m -3.6959,-11.424912 c -0.27004,-0.631061 -0.26393,-0.645617 0.084,-0.200172 0.20638,0.264205 0.37523,0.570451 0.37523,0.680546 0,0.376133 -0.16787,0.20054 -0.45924,-0.480374 z m -4.0268,-6.434246 c -0.30783,-0.392504 -0.29907,-0.401257 0.0934,-0.09343 0.23819,0.186804 0.43308,0.381687 0.43308,0.433074 0,0.203679 -0.20323,0.07259 -0.52651,-0.339639 z m -1.10557,-1.36109 -0.47143,-0.55681 0.55681,0.47143 c 0.30625,0.259285 0.55681,0.50985 0.55681,0.55681 0,0.198038 -0.19916,0.05183 -0.64219,-0.47143 z m -2.33591,-2.598446 -1.35264,-1.422958 1.42296,1.352637 c 1.32197,1.256643 1.53632,1.49328 1.35263,1.49328 -0.0387,0 -0.679,-0.640332 -1.42295,-1.422959 z m -2.61351,-2.350974 -0.47143,-0.55681 0.55681,0.47143 c 0.30625,0.259285 0.55681,0.50985 0.55681,0.55681 0,0.198038 -0.19916,0.05183 -0.64219,-0.47143 z m -1.36914,-1.11362 c -0.30783,-0.392504 -0.29907,-0.401257 0.0934,-0.09343 0.41223,0.323289 0.54332,0.52651 0.33964,0.52651 -0.0514,0 -0.24627,-0.194884 -0.43307,-0.433075 z m -0.98989,-0.742413 c -0.30782,-0.392504 -0.29907,-0.401257 0.0934,-0.09343 0.41222,0.323289 0.54331,0.52651 0.33964,0.52651 -0.0514,0 -0.24627,-0.194884 -0.43308,-0.433075 z m -5.90774,-3.526461 c -0.22304,-0.144142 -0.25356,-0.241406 -0.0765,-0.243683 0.1621,-0.002 0.36356,0.107574 0.44768,0.243683 0.18989,0.307242 0.10422,0.307242 -0.37121,0 z"
         id="path1697"
         inkscape:connector-curvature="0" />
    </g>
  </g>
</svg>
