<?xml version="1.0" encoding="UTF-8" standalone="no"?>
<!-- Created with Inkscape (http://www.inkscape.org/) -->

<svg
   xmlns:dc="http://purl.org/dc/elements/1.1/"
   xmlns:cc="http://creativecommons.org/ns#"
   xmlns:rdf="http://www.w3.org/1999/02/22-rdf-syntax-ns#"
   xmlns:svg="http://www.w3.org/2000/svg"
   xmlns="http://www.w3.org/2000/svg"
   xmlns:sodipodi="http://sodipodi.sourceforge.net/DTD/sodipodi-0.dtd"
   xmlns:inkscape="http://www.inkscape.org/namespaces/inkscape"
   viewBox="0 0 256 256"
   version="1.1"
   id="svg953"
   inkscape:version="0.92.4 (5da689c313, 2019-01-14)"
   sodipodi:docname="luna_cutie.svg">
  <defs
     id="defs947" />
  <sodipodi:namedview
     id="base"
     pagecolor="#ffffff"
     bordercolor="#666666"
     borderopacity="1.0"
     inkscape:pageopacity="0.0"
     inkscape:pageshadow="2"
     inkscape:zoom="2.8"
     inkscape:cx="103.28042"
     inkscape:cy="134.65024"
     inkscape:document-units="px"
     inkscape:current-layer="layer1"
     showgrid="false"
     units="px"
     inkscape:pagecheckerboard="true"
     inkscape:window-width="1920"
     inkscape:window-height="1027"
     inkscape:window-x="1592"
     inkscape:window-y="-8"
     inkscape:window-maximized="1" />
  <metadata
     id="metadata950">
    <rdf:RDF>
      <cc:Work
         rdf:about="">
        <dc:format>image/svg+xml</dc:format>
        <dc:type
           rdf:resource="http://purl.org/dc/dcmitype/StillImage" />
        <dc:title></dc:title>
      </cc:Work>
    </rdf:RDF>
  </metadata>
  <g
     inkscape:label="Layer 1"
     inkscape:groupmode="layer"
     id="layer1"
     transform="translate(0,-229.26668)">
    <circle
       style="opacity:1;fill:#ffccaa;fill-opacity:1;stroke:none;stroke-width:1.55716538;stroke-miterlimit:4;stroke-dasharray:none;stroke-opacity:1"
       id="path1577"
       cx="152.32143"
       cy="302.23096"
       r="46.607143" />
    <g
       id="g1571"
       transform="translate(-0.35714254)">
      <path
         style="fill:#ffaaaa;stroke-width:0.09577369;stroke:none;stroke-opacity:1;fill-opacity:1"
         d="m 245.95416,484.43408 c -0.0351,-0.0488 -0.15811,-0.0887 -0.27324,-0.0887 -0.11514,0 -0.55457,-0.11856 -0.97649,-0.26349 -2.60932,-0.89623 -4.65203,-3.04693 -5.43647,-5.7239 -0.30522,-1.04156 -0.37674,-3.19588 -0.1455,-4.38216 0.41032,-2.10483 1.25646,-3.47326 2.96231,-4.79079 0.75894,-0.58618 1.18883,-0.83745 2.00415,-1.17145 2.84771,-1.16655 5.2413,-1.01118 7.57172,0.49149 1.72292,1.11095 3.24968,3.15446 3.65015,4.88559 0.0677,0.29271 0.16138,0.59568 0.20816,0.67324 0.14442,0.23953 0.21817,1.86342 0.11645,2.56439 -0.56827,3.91614 -2.93375,6.64624 -6.52987,7.53639 -0.42513,0.10523 -0.85376,0.22885 -0.95252,0.27471 -0.24057,0.11172 -2.11779,0.10718 -2.19885,-0.005 z m -31.64314,-19.17184 c -1.88272,-0.204 -3.89511,-0.86582 -5.18777,-1.70613 -1.89392,-1.23115 -4.02,-3.73068 -4.99766,-5.8755 -0.87297,-1.91514 -1.182,-3.44323 -1.182,-5.84458 0,-1.92304 0.0955,-2.63144 0.56566,-4.19719 1.0463,-3.48416 3.52028,-6.32011 7.1833,-8.23425 1.75218,-0.91562 3.30482,-1.35586 5.01449,-1.42184 3.52258,-0.13595 7.06786,1.1134 9.59535,3.38135 3.1853,2.85823 4.87699,7.20696 4.47046,11.49201 -0.21469,2.26294 -0.78759,4.05467 -1.87183,5.85399 -0.75805,1.25802 -2.84944,3.6938 -3.89665,4.53831 -1.21937,0.98332 -2.79085,1.67383 -4.49269,1.97408 -0.88495,0.15613 -3.91301,0.17927 -5.20066,0.0398 z m 10.03067,-41.6401 c -13.74856,-1.88343 -23.69636,-4.75106 -30.80145,-8.8791 -1.98993,-1.15614 -3.20446,-2.00873 -4.77733,-3.35363 -3.02507,-2.58664 -4.43921,-4.54128 -6.72979,-9.30201 -4.40296,-9.15114 -5.86804,-17.98212 -4.42333,-26.66213 0.14154,-0.85038 0.23379,-1.59881 0.20499,-1.66317 -0.0362,-0.0808 -0.26918,-0.11732 -0.7536,-0.11797 -1.56026,-0.002 -3.88927,-0.28582 -5.82291,-0.70931 -6.29779,-1.37928 -12.68782,-5.20776 -18.25453,-10.93691 -0.45183,-0.46502 -0.88224,-0.86827 -0.95646,-0.8961 -0.0811,-0.0304 -0.4488,0.24106 -0.92141,0.68026 -1.26452,1.17515 -3.80635,3.30268 -5.15713,4.31656 -3.12721,2.3473 -6.49174,4.32186 -9.75199,5.72323 -9.24248,3.97273 -19.11588,4.29358 -29.62692,0.96276 -3.04174,-0.96389 -5.17551,-1.88599 -7.766646,-3.35632 -2.018267,-1.14526 -3.475236,-2.16943 -5.225129,-3.67299 -3.127626,-2.68734 -5.719507,-5.87483 -7.76422,-9.54843 -1.358519,-2.44077 -2.601765,-5.35077 -3.511067,-8.2182 -0.374953,-1.1824 -2.208037,-10.58877 -2.381282,-12.21943 -0.182919,-1.72171 -0.157612,-5.59474 0.04753,-7.27358 0.74839,-6.12477 2.785794,-11.3524 6.481991,-16.63165 1.482197,-2.11701 3.8221,-4.85913 5.78192,-6.77578 0.518205,-0.5068 0.92533,-0.96583 0.904722,-1.02008 -0.02061,-0.0542 -0.643816,-0.38068 -1.384907,-0.7254 -10.153975,-4.72314 -17.137095,-10.74266 -21.499635,-18.5329 -4.321909,-7.71768 -6.057247,-17.54435 -4.848112,-27.45332 1.168532,-9.57623 4.370179,-19.28097 8.579679,-26.00647 0.426759,-0.68183 0.775926,-1.29252 0.775926,-1.35708 0,-0.0925 0.224369,-0.10828 1.059942,-0.0744 0.582968,0.0236 1.194855,0.0797 1.359747,0.12468 0.164894,0.0449 0.564997,0.0817 0.889118,0.0817 0.821231,0 5.346429,0.31276 8.376408,0.57894 12.0964,1.06265 22.775975,2.82363 31.229505,5.14949 0.99531,0.27384 2.1354,0.57438 2.53352,0.66785 3.61247,0.84816 11.81282,3.29417 16.86976,5.03193 21.58652,7.41798 38.58919,16.9951 50.41806,28.39906 3.90568,3.76537 7.65402,8.12804 10.45895,12.17314 0.43086,0.62134 1.47501,1.95853 2.32035,2.97152 1.5869,1.90165 3.62835,4.42289 5.76025,7.11407 0.85663,1.08135 1.4654,1.97547 2.0232,2.97152 6.95015,12.41069 10.78973,26.29688 11.47199,41.48949 0.26549,5.91193 0.21576,18.48197 -0.10801,27.30455 -0.276,7.52043 -0.22495,18.87505 0.11326,25.19141 0.83725,15.63683 2.87022,26.79414 6.15556,33.78289 0.37081,0.78883 0.40703,0.90491 0.27817,0.89172 -0.0427,-0.004 -0.77557,-0.10356 -1.62869,-0.22042 z m -65.04425,-78.67362 c 4.00294,-0.39562 8.34191,-1.47824 12.74049,-3.17892 3.05926,-1.18284 8.09322,-4.62573 11.2029,-7.66203 5.96404,-5.82332 9.56746,-12.72233 11.31685,-21.66699 0.77355,-3.95515 0.93,-5.85819 0.92976,-11.30952 0,-5.0303 -0.0482,-5.75441 -0.6255,-9.44678 -1.39434,-8.91742 -5.13162,-16.2163 -11.00545,-21.4935 -5.30152,-4.76303 -13.19142,-8.38489 -20.78462,-9.54118 -1.88796,-0.2875 -3.86168,-0.39528 -6.15284,-0.336 -2.35184,0.0609 -4.02182,0.25602 -6.24089,0.72938 -2.83211,0.60412 -6.89205,1.94994 -6.89205,2.28461 0,0.11826 0.33157,0.27832 1.31816,0.6363 14.72099,5.34146 20.50984,15.0443 17.49096,29.31703 -0.34366,1.62476 -0.45706,1.98415 -1.07857,3.41853 -1.39927,3.22926 -2.95961,5.74795 -4.99843,8.0684 -0.74814,0.85146 -2.7132,2.59921 -3.78724,3.36841 -3.93531,2.81833 -8.98588,4.36162 -13.69971,4.18619 -5.89227,-0.21929 -11.03048,-2.98883 -15.4169,-8.30985 -1.4258,-1.7296 -3.2578,-4.42975 -4.25132,-6.26595 -0.65237,-1.20569 -0.77906,-1.19731 -0.89342,0.0591 -0.12244,1.34509 -0.006,6.54656 0.18246,8.15958 0.81647,6.98354 2.58829,12.52771 5.79712,18.13959 2.70778,4.73558 6.18987,8.96932 10.49254,12.75748 5.67118,4.99302 11.05692,7.38728 18.35798,8.16111 0.88672,0.094 4.78052,0.0453 5.99772,-0.075 z m -11.12531,71.2676 c -1.73633,-0.10817 -3.07529,-0.40941 -4.48945,-1.01005 -1.28055,-0.5439 -2.18197,-1.09864 -3.22591,-1.98527 -1.16869,-0.99259 -1.38824,-1.27812 -3.02929,-3.93963 -0.86483,-1.4026 -1.632,-2.55019 -1.70484,-2.55019 -0.0728,0 -0.35391,0.22236 -0.62458,0.49413 -0.59563,0.59804 -1.72591,1.29531 -2.51806,1.55342 -0.72518,0.23627 -2.12121,0.31972 -2.93193,0.17525 -0.93045,-0.16581 -1.79707,-0.59021 -2.67593,-1.31045 -4.08803,-3.35022 -4.85142,-9.74035 -1.79915,-15.06034 0.88477,-1.54213 2.03189,-2.64896 3.24261,-3.12872 0.52528,-0.20815 0.62873,-0.21754 1.96477,-0.17828 1.16441,0.0342 1.54037,0.0808 2.15648,0.26723 1.39973,0.42351 2.60468,1.34161 3.5498,2.7047 0.25843,0.37273 0.52146,0.69243 0.58452,0.71046 0.0631,0.018 0.33787,-0.21872 0.6107,-0.52612 2.85775,-3.2197 5.20873,-4.69157 9.41556,-5.89478 1.55526,-0.44482 1.82849,-0.49721 2.54808,-0.48856 0.83892,0.0101 2.21439,0.24964 3.15157,0.54892 4.28157,1.36727 8.13559,5.60925 9.42693,10.3759 1.3558,5.0046 0.25533,10.01835 -3.17352,14.45846 -0.58685,0.75992 -1.13226,1.31415 -2.13858,2.1732 -1.54875,1.32207 -2.47923,1.84956 -4.10544,2.32734 -1.16914,0.3435 -2.18158,0.41126 -4.23434,0.28338 z M 21.815198,343.2996 c -5.542246,-0.53618 -10.02811,-2.90925 -14.0899222,-7.45372 -3.895991,-4.35895 -5.8471448,-8.83017 -6.5944183,-15.11164 -0.110369,-0.92775 -0.1071369,-4.22694 0.00508,-5.18908 0.8219952,-7.04752 3.2789659,-12.04898 8.3236855,-16.94386 3.117331,-3.02474 7.275674,-5.04184 11.414906,-5.53706 1.462508,-0.17497 4.166579,-0.1764 5.594069,-0.003 5.47702,0.66548 10.69231,3.77899 14.436244,8.61839 0.984344,1.27236 2.299617,3.44757 2.973207,4.91712 2.486362,5.42442 3.077398,12.1257 1.618853,18.35483 -1.74152,7.43766 -7.002685,13.90195 -13.635892,16.75415 -3.100377,1.33313 -6.751982,1.91247 -10.045816,1.59382 z"
         id="path1573"
         inkscape:connector-curvature="0" />
    </g>
  </g>
</svg>
