<?xml version="1.0" encoding="UTF-8" standalone="no"?>
<!-- Created with Inkscape (http://www.inkscape.org/) -->

<svg
   xmlns:dc="http://purl.org/dc/elements/1.1/"
   xmlns:cc="http://creativecommons.org/ns#"
   xmlns:rdf="http://www.w3.org/1999/02/22-rdf-syntax-ns#"
   xmlns:svg="http://www.w3.org/2000/svg"
   xmlns="http://www.w3.org/2000/svg"
   xmlns:sodipodi="http://sodipodi.sourceforge.net/DTD/sodipodi-0.dtd"
   xmlns:inkscape="http://www.inkscape.org/namespaces/inkscape"
   viewBox="0 0 256 256"
   version="1.1"
   id="svg953"
   inkscape:version="0.92.4 (5da689c313, 2019-01-14)"
   sodipodi:docname="scoots_cutie.svg">
  <defs
     id="defs947" />
  <sodipodi:namedview
     id="base"
     pagecolor="#ffffff"
     bordercolor="#666666"
     borderopacity="1.0"
     inkscape:pageopacity="0.0"
     inkscape:pageshadow="2"
     inkscape:zoom="4"
     inkscape:cx="77.33477"
     inkscape:cy="148.36949"
     inkscape:document-units="px"
     inkscape:current-layer="layer9"
     showgrid="false"
     units="px"
     inkscape:pagecheckerboard="true"
     inkscape:window-width="1920"
     inkscape:window-height="1027"
     inkscape:window-x="1592"
     inkscape:window-y="-8"
     inkscape:window-maximized="1"
     inkscape:snap-nodes="false" />
  <metadata
     id="metadata950">
    <rdf:RDF>
      <cc:Work
         rdf:about="">
        <dc:format>image/svg+xml</dc:format>
        <dc:type
           rdf:resource="http://purl.org/dc/dcmitype/StillImage" />
        <dc:title></dc:title>
      </cc:Work>
    </rdf:RDF>
  </metadata>
  <g
     inkscape:groupmode="layer"
     id="layer9"
     inkscape:label="Layer 5">
    <g
       id="g1782">
      <path
         style="fill:#ffe6d5;stroke-width:0.24753939;fill-opacity:1"
         d="m 136.16879,240.35725 c 0,-0.0514 0.19494,-0.24634 0.4332,-0.4332 0.39261,-0.3079 0.40136,-0.29915 0.0935,0.0935 -0.32338,0.41233 -0.52666,0.54346 -0.52666,0.33973 z m -17.2275,-0.71104 -0.47156,-0.55697 0.55696,0.47156 c 0.52341,0.44315 0.66965,0.64237 0.47156,0.64237 -0.047,0 -0.29761,-0.25063 -0.55696,-0.55696 z m 7.32659,-2.971 c -2.14434,-2.72208 -8.7862,-9.49685 -12.62517,-12.87782 -4.2629,-3.75433 -9.69916,-8.08357 -16.644565,-13.25515 l -5.876597,-4.37574 -0.0025,-40.1837 -0.0025,-40.1837 1.299582,0.77134 c 5.218383,3.09724 11.94186,5.60679 18.7487,6.99797 l 2.64039,0.53964 -0.95625,1.3651 c -3.93043,5.61087 -0.57138,11.47973 10.22808,17.87032 8.08938,4.78689 22.36704,10.44572 39.26896,15.5639 l 2.53727,0.76833 v 18.26214 18.26213 l -2.90274,2.08735 c -14.73627,10.5968 -26.67065,21.14542 -32.66525,28.87232 -0.65538,0.84478 -1.2473,1.54074 -1.31537,1.5466 -0.0681,0.006 -0.84753,-0.90811 -1.73212,-2.03103 z m 12.005,1.30011 c 0.24642,-0.2723 0.50373,-0.49508 0.57181,-0.49508 0.0681,0 -0.0779,0.22278 -0.32427,0.49508 -0.24643,0.27229 -0.50374,0.49507 -0.57181,0.49507 -0.0681,0 0.0778,-0.22278 0.32427,-0.49507 z m -21.5515,-0.80451 -0.72705,-0.8045 0.80451,0.72704 c 0.44247,0.39988 0.8045,0.76191 0.8045,0.80451 0,0.19124 -0.20425,0.0229 -0.88196,-0.72705 z m -5.07231,-5.07456 -0.85306,-0.92827 0.92827,0.85306 c 0.51055,0.46919 0.92827,0.88691 0.92827,0.92828 0,0.18902 -0.20947,0.0109 -1.00348,-0.85307 z m 32.44098,0.1082 c 0,-0.0426 0.36203,-0.40463 0.80451,-0.8045 l 0.8045,-0.72705 -0.72705,0.80451 c -0.67771,0.74991 -0.88196,0.91828 -0.88196,0.72704 z m -35.29788,-2.70736 -0.47156,-0.55696 0.55697,0.47156 c 0.5234,0.44315 0.66965,0.64236 0.47156,0.64236 -0.047,0 -0.29761,-0.25063 -0.55697,-0.55696 z m 38.39213,-0.18565 c 0.24642,-0.2723 0.50373,-0.49508 0.57181,-0.49508 0.0681,0 -0.0779,0.22278 -0.32428,0.49508 -0.24642,0.27229 -0.50373,0.49508 -0.57181,0.49508 -0.0681,0 0.0779,-0.22279 0.32428,-0.49508 z m -40.25673,-1.42335 c -0.30791,-0.39262 -0.29915,-0.40137 0.0935,-0.0935 0.41234,0.32338 0.54347,0.52666 0.33973,0.52666 -0.0514,0 -0.24634,-0.19494 -0.43319,-0.43319 z m 41.86573,0.0922 c 0,-0.0514 0.19494,-0.24634 0.43319,-0.4332 0.39262,-0.3079 0.40137,-0.29915 0.0935,0.0935 -0.32338,0.41233 -0.52666,0.54346 -0.52666,0.33973 z m 53.71605,-40.844 c 0,-0.0514 0.19493,-0.24634 0.43319,-0.4332 0.39261,-0.3079 0.40137,-0.29915 0.0935,0.0935 -0.32338,0.41233 -0.52665,0.54346 -0.52665,0.33973 z M 49.99351,184.32115 c -0.307906,-0.39261 -0.299151,-0.40137 0.09346,-0.0935 0.412339,0.32338 0.543468,0.52666 0.339733,0.52666 -0.0514,0 -0.246339,-0.19494 -0.433194,-0.4332 z m 155.98139,-0.15534 c 0,-0.0514 0.19494,-0.24634 0.43319,-0.4332 0.39262,-0.30791 0.40137,-0.29915 0.0935,0.0935 -0.32337,0.41234 -0.52665,0.54347 -0.52665,0.33974 z M 48.013195,182.58838 c -0.307907,-0.39262 -0.299151,-0.40137 0.09346,-0.0935 0.238257,0.18686 0.433194,0.3818 0.433194,0.4332 0,0.20373 -0.203277,0.0726 -0.526655,-0.33973 z m 160.065785,-0.30943 c 0.24643,-0.27229 0.50374,-0.49508 0.57181,-0.49508 0.0681,0 -0.0778,0.22279 -0.32427,0.49508 -0.24642,0.27229 -0.50373,0.49508 -0.57181,0.49508 -0.0681,0 0.0779,-0.22279 0.32427,-0.49508 z m -162.409351,-1.79466 -0.471561,-0.55696 0.556964,0.47156 c 0.523407,0.44315 0.669654,0.64236 0.47156,0.64236 -0.04697,0 -0.297607,-0.25063 -0.556963,-0.55696 z m 164.760981,-0.30942 c 0.31976,-0.34037 0.63707,-0.61885 0.70515,-0.61885 0.0681,0 -0.13785,0.27848 -0.45761,0.61885 -0.31976,0.34036 -0.63708,0.61885 -0.70515,0.61885 -0.0681,0 0.13785,-0.27849 0.45761,-0.61885 z m -167.967121,-2.66105 -0.978511,-1.05204 1.052042,0.97851 c 0.578623,0.53818 1.052042,1.0116 1.052042,1.05204 0,0.18728 -0.215569,-1.2e-4 -1.125573,-0.97851 z m 170.690051,0.24134 c 0,-0.0374 0.86329,-0.90073 1.91843,-1.91843 l 1.91843,-1.85035 -1.85035,1.91843 c -1.71856,1.7818 -1.98651,2.03138 -1.98651,1.85035 z m 4.20817,-4.20817 c 0,-0.0374 0.86329,-0.90073 1.91843,-1.91843 l 1.91843,-1.85035 -1.85035,1.91843 c -1.71856,1.7818 -1.98651,2.03138 -1.98651,1.85035 z m -182.202312,-3.33558 -0.853062,-0.92828 0.928272,0.85307 c 0.51055,0.46918 0.928273,0.8869 0.928273,0.92827 0,0.18902 -0.209473,0.0109 -1.003483,-0.85306 z m 187.771952,-2.53728 c 0.24642,-0.2723 0.50373,-0.49508 0.57181,-0.49508 0.0681,0 -0.0779,0.22278 -0.32427,0.49508 -0.24643,0.27229 -0.50374,0.49508 -0.57181,0.49508 -0.0681,0 0.0778,-0.22279 0.32427,-0.49508 z m -190.628848,-0.55697 -0.47156,-0.55696 0.556963,0.47156 c 0.523408,0.44315 0.669654,0.64237 0.47156,0.64237 -0.04697,0 -0.297606,-0.25064 -0.556963,-0.55697 z m 192.237848,-1.26927 c 0,-0.0514 0.19494,-0.24634 0.4332,-0.43319 0.39261,-0.30791 0.40136,-0.29915 0.0935,0.0935 -0.32338,0.41234 -0.52666,0.54347 -0.52666,0.33973 z M 30.437899,165.01308 c -0.307907,-0.39261 -0.299151,-0.40137 0.09346,-0.0935 0.412339,0.32338 0.543468,0.52665 0.339733,0.52665 -0.0514,0 -0.246339,-0.19493 -0.433194,-0.43319 z m 195.587691,-0.89797 c 0,-0.0514 0.19494,-0.24633 0.43319,-0.43319 0.39262,-0.30791 0.40137,-0.29915 0.0935,0.0935 -0.32337,0.41234 -0.52665,0.54347 -0.52665,0.33973 z m 1.2377,-1.48523 c 0,-0.0514 0.19493,-0.24634 0.43319,-0.4332 0.39261,-0.3079 0.40137,-0.29915 0.0935,0.0935 -0.32338,0.41233 -0.52665,0.54346 -0.52665,0.33973 z M 27.962505,162.04261 c -0.307907,-0.39262 -0.299151,-0.40137 0.09346,-0.0935 0.412339,0.32338 0.543468,0.52666 0.339733,0.52666 -0.0514,0 -0.246339,-0.19494 -0.433194,-0.43319 z m 134.912635,-7.51815 c -7.76735,-13.12606 -7.79106,-23.38441 -0.0781,-33.79424 0.94327,-1.27308 1.79858,-2.31508 1.90069,-2.31556 0.10211,-5e-4 0.18565,8.79915 0.18565,19.55474 0,10.75559 -0.0523,19.55561 -0.11632,19.55561 -0.064,0 -0.91533,-1.35025 -1.8919,-3.00055 z M 106.71161,111.5979 c -4.65012,-1.20686 -7.393773,-1.62403 -11.69624,-1.77836 l -3.898746,-0.13985 v -3.82621 -3.82619 l 0.928273,0.5514 c 3.464304,2.05784 8.868683,5.03589 13.194683,7.27084 2.78374,1.43817 4.94995,2.60059 4.81381,2.58315 -0.13615,-0.0175 -1.63995,-0.39309 -3.34178,-0.83478 z m 146.56284,-5.95302 c 0.0119,-0.28837 0.0705,-0.34702 0.14957,-0.14955 0.0715,0.17869 0.0627,0.39219 -0.0196,0.47445 -0.0823,0.0823 -0.14078,-0.064 -0.13003,-0.3249 z m 0.24754,-1.73277 c 0.0119,-0.28838 0.0706,-0.34703 0.14956,-0.14956 0.0715,0.17869 0.0627,0.3922 -0.0196,0.47445 -0.0823,0.0823 -0.14078,-0.0639 -0.13003,-0.32489 z M 2.0219884,102.42687 c 0.011878,-0.28837 0.070534,-0.34703 0.1495551,-0.14956 0.071507,0.17869 0.062713,0.3922 -0.019543,0.47445 -0.082255,0.0823 -0.1407609,-0.064 -0.1300121,-0.32489 z M 253.76953,101.93179 c 0.0119,-0.28837 0.0705,-0.34703 0.14956,-0.14956 0.0715,0.1787 0.0627,0.3922 -0.0196,0.47446 -0.0823,0.0822 -0.14078,-0.064 -0.13003,-0.3249 z M 1.7744491,100.19901 c 0.011878,-0.288367 0.070534,-0.347021 0.149555,-0.14955 0.071507,0.17869 0.062713,0.39219 -0.019543,0.47445 -0.082255,0.0823 -0.1407609,-0.064 -0.130012,-0.3249 z M 254.03663,99.848333 c 0,-0.340367 0.0562,-0.479608 0.12485,-0.309425 0.0687,0.170184 0.0687,0.448665 0,0.618852 -0.0687,0.17018 -0.12485,0.0309 -0.12485,-0.309427 z M 1.5269097,97.72362 c 0.011878,-0.288371 0.070534,-0.347025 0.149555,-0.149556 0.071507,0.178692 0.062713,0.392197 -0.019543,0.474452 -0.082255,0.08225 -0.1407609,-0.06395 -0.130012,-0.324896 z M 254.29332,97.249169 c 0.005,-0.40844 0.0605,-0.545562 0.1233,-0.304714 0.0627,0.240849 0.0587,0.575027 -0.009,0.742618 -0.0678,0.167592 -0.11914,-0.02946 -0.11411,-0.437904 z M 1.3172575,94.402466 c 0,-0.476514 0.050942,-0.671451 0.1132054,-0.433194 0.062263,0.238257 0.062263,0.628131 0,0.866388 -0.062263,0.238256 -0.1132054,0.04332 -0.1132054,-0.433194 z M 254.55505,93.536078 c 0.003,-0.544587 0.0534,-0.738224 0.11265,-0.430308 0.0592,0.307917 0.057,0.753488 -0.005,0.990158 -0.062,0.23667 -0.1104,-0.01527 -0.10765,-0.55985 z M 107.82553,81.864373 C 104.26812,80.283512 97.623583,77.758682 94.127104,76.659166 l -3.008064,-0.945925 -0.0012,-4.052823 c -0.0012,-3.801562 0.02522,-4.031764 0.425126,-3.713091 0.234484,0.186852 1.465849,1.207408 2.736367,2.267899 3.401051,2.838828 8.870567,7.157584 12.741707,10.060904 2.82802,2.120989 3.78315,2.896667 3.34178,2.713898 -0.034,-0.01408 -1.17581,-0.520639 -2.53728,-1.125655 z M 163.99345,69.865022 C 163.0724,68.837387 157.52271,64.306968 153.62032,61.397033 138.29841,49.971803 115.83467,37.728106 95.383357,29.6554 l -4.273379,-1.686822 0.06521,-8.059082 0.06521,-8.059082 2.599164,-0.284593 C 114.68574,9.2832862 139.39724,9.23187 160.67519,11.426759 l 4.0844,0.421318 0.0629,29.271534 c 0.0346,16.099343 -0.0317,29.271533 -0.14729,29.271533 -0.1156,0 -0.42239,-0.236756 -0.68175,-0.526122 z M 26.080362,44.227966 c 0.240848,-0.06276 0.575026,-0.05864 0.742618,0.0092 0.167591,0.06781 -0.02947,0.119158 -0.437905,0.114113 -0.40844,-0.005 -0.545561,-0.06052 -0.304713,-0.123284 z m 5.069846,0.0076 c 0.170184,-0.06867 0.448666,-0.06867 0.618849,0 0.170183,0.06867 0.03094,0.124856 -0.309424,0.124856 -0.340367,0 -0.479608,-0.05619 -0.309425,-0.124856 z m 193.080722,0 c 0.17018,-0.06867 0.44866,-0.06867 0.61885,0 0.17018,0.06867 0.0309,0.124856 -0.30943,0.124856 -0.34036,0 -0.4796,-0.05619 -0.30942,-0.124856 z m 4.83173,-0.0076 c 0.24085,-0.06276 0.57502,-0.05864 0.74262,0.0092 0.16759,0.06781 -0.0295,0.119158 -0.43791,0.114113 -0.40844,-0.005 -0.54556,-0.06052 -0.30471,-0.123284 z M 23.987037,43.982872 c 0.178693,-0.07151 0.392196,-0.06271 0.474451,0.01953 0.08225,0.08225 -0.06395,0.14076 -0.324895,0.130012 -0.28837,-0.01188 -0.347026,-0.07053 -0.149556,-0.149553 z m 207.685543,0 c 0.17869,-0.07151 0.3922,-0.06271 0.47445,0.01953 0.0823,0.08225 -0.064,0.14076 -0.32489,0.130012 -0.28837,-0.01188 -0.34703,-0.07053 -0.14956,-0.149553 z m -14.99106,-6.390698 c 0.003,-0.544586 0.0534,-0.738224 0.11265,-0.430307 0.0592,0.307917 0.057,0.753487 -0.005,0.990157 -0.062,0.23667 -0.11041,-0.01527 -0.10766,-0.55985 z M 184.14502,7.0995008 c 0.17869,-0.071507 0.3922,-0.062713 0.47445,0.019543 0.0823,0.082255 -0.064,0.1407611 -0.32489,0.1300127 -0.28838,-0.011877 -0.34703,-0.070534 -0.14956,-0.1495557 z M 77.455545,6.1093432 c 0.178691,-0.071507 0.392196,-0.062713 0.474451,0.019543 0.08226,0.082255 -0.06395,0.1407611 -0.324896,0.1300127 C 77.316729,6.2470221 77.258075,6.188365 77.455545,6.109344 Z m 100.748525,0 c 0.1787,-0.071507 0.3922,-0.062713 0.47446,0.019543 0.0823,0.082255 -0.064,0.1407611 -0.3249,0.1300127 -0.28837,-0.011877 -0.34703,-0.070534 -0.14956,-0.1495557 z M 80.673557,5.6142644 c 0.178691,-0.071507 0.392196,-0.062713 0.474451,0.019543 0.08225,0.082255 -0.06395,0.140761 -0.324896,0.1300126 C 80.534741,5.751943 80.476087,5.693286 80.673557,5.6142644 Z m 94.312503,0 c 0.17869,-0.071507 0.3922,-0.062713 0.47445,0.019543 0.0823,0.082255 -0.064,0.140761 -0.32489,0.1300126 -0.28837,-0.011877 -0.34703,-0.070534 -0.14956,-0.1495556 z M 82.406332,5.366725 c 0.178692,-0.071507 0.392197,-0.062713 0.474452,0.019543 0.08225,0.082255 -0.06395,0.140761 -0.324896,0.1300126 -0.288371,-0.011877 -0.347025,-0.070534 -0.149556,-0.1495556 z m 1.732776,-0.2475394 c 0.178691,-0.071507 0.392196,-0.062713 0.474451,0.019543 0.08226,0.082255 -0.06395,0.140761 -0.324895,0.1300126 -0.288371,-0.011877 -0.347026,-0.070534 -0.149556,-0.1495556 z m 1.980315,-0.2475394 c 0.178691,-0.071507 0.392196,-0.062713 0.474451,0.019543 0.08226,0.082255 -0.06395,0.140761 -0.324895,0.1300126 -0.288371,-0.011877 -0.347026,-0.070534 -0.149556,-0.1495556 z m 83.420777,0 c 0.17869,-0.071507 0.39219,-0.062713 0.47445,0.019543 0.0823,0.082255 -0.0639,0.140761 -0.3249,0.1300126 -0.28837,-0.011877 -0.34702,-0.070534 -0.14955,-0.1495556 z M 88.099738,4.6241068 c 0.178691,-0.071507 0.392197,-0.062713 0.474451,0.019543 0.08225,0.082255 -0.06395,0.1407609 -0.324895,0.1300125 -0.288371,-0.011878 -0.347025,-0.070534 -0.149556,-0.1495555 z m 79.460142,0 c 0.17869,-0.071507 0.3922,-0.062713 0.47445,0.019543 0.0823,0.082255 -0.064,0.1407609 -0.32489,0.1300125 -0.28837,-0.011878 -0.34703,-0.070534 -0.14956,-0.1495555 z M 90.327593,4.3765674 c 0.178691,-0.071507 0.392196,-0.062713 0.474451,0.019543 0.08226,0.082255 -0.06395,0.1407609 -0.324896,0.1300125 -0.288371,-0.011878 -0.347025,-0.070534 -0.149555,-0.1495555 z m 75.004437,0 c 0.17869,-0.071507 0.39219,-0.062713 0.47445,0.019543 0.0823,0.082255 -0.064,0.1407609 -0.3249,0.1300125 -0.28837,-0.011878 -0.34702,-0.070534 -0.14955,-0.1495555 z M 92.292436,4.1341851 c 0.170184,-0.06867 0.448666,-0.06867 0.618849,0 0.170183,0.068671 0.03094,0.1248554 -0.309424,0.1248554 -0.340367,0 -0.479608,-0.056185 -0.309425,-0.1248554 z m 70.811734,-0.00516 c 0.17869,-0.071507 0.3922,-0.062713 0.47445,0.019543 0.0823,0.082255 -0.064,0.1407609 -0.32489,0.1300125 -0.28837,-0.011878 -0.34703,-0.070534 -0.14956,-0.1495555 z M 94.783302,3.8814886 c 0.178691,-0.071507 0.392196,-0.062713 0.474451,0.019543 0.08226,0.082255 -0.06395,0.1407609 -0.324896,0.1300125 -0.288371,-0.011878 -0.347025,-0.070534 -0.149555,-0.1495555 z m 65.830008,0.00516 c 0.17018,-0.068671 0.44866,-0.068671 0.61885,0 0.17018,0.068671 0.0309,0.1248554 -0.30943,0.1248554 -0.34037,0 -0.47961,-0.056185 -0.30942,-0.1248554 z M 97.506235,3.6339492 c 0.178691,-0.071507 0.392196,-0.062713 0.474451,0.019543 0.08225,0.082255 -0.06395,0.1407609 -0.324895,0.1300125 -0.288371,-0.011878 -0.347026,-0.070534 -0.149556,-0.1495555 z m 60.647145,0 c 0.1787,-0.071507 0.3922,-0.062713 0.47446,0.019543 0.0823,0.082255 -0.064,0.1407609 -0.3249,0.1300125 -0.28837,-0.011878 -0.34703,-0.070534 -0.14956,-0.1495555 z M 100.2137,3.3915669 c 0.17018,-0.068671 0.44866,-0.068671 0.61885,0 0.17018,0.068671 0.0309,0.1248554 -0.30943,0.1248554 -0.34037,0 -0.47961,-0.056185 -0.30942,-0.1248554 z m 54.95374,0 c 0.17018,-0.068671 0.44867,-0.068671 0.61885,0 0.17018,0.068671 0.0309,0.1248554 -0.30943,0.1248554 -0.34036,0 -0.4796,-0.056185 -0.30942,-0.1248554 z M 103.43171,3.1440275 c 0.17018,-0.068671 0.44866,-0.068671 0.61885,0 0.17018,0.068671 0.0309,0.1248554 -0.30943,0.1248554 -0.34036,0 -0.4796,-0.056185 -0.30942,-0.1248554 z m 48.51772,0 c 0.17018,-0.068671 0.44866,-0.068671 0.61885,0 0.17018,0.068671 0.0309,0.1248554 -0.30943,0.1248554 -0.34036,0 -0.47961,-0.056185 -0.30942,-0.1248554 z M 107.02574,2.8888862 c 0.24085,-0.062762 0.57503,-0.058634 0.74262,0.00917 0.16759,0.067807 -0.0295,0.1191575 -0.43791,0.1141127 -0.40844,-0.00504 -0.54556,-0.060523 -0.30471,-0.123285 z m 41.33908,0 c 0.24085,-0.062762 0.57502,-0.058634 0.74262,0.00917 0.16759,0.067807 -0.0295,0.1191575 -0.43791,0.1141127 -0.40844,-0.00504 -0.54556,-0.060523 -0.30471,-0.123285 z M 111.47674,2.6422541 c 0.23826,-0.062263 0.62813,-0.062263 0.86639,0 0.23825,0.062263 0.0433,0.1132054 -0.4332,0.1132054 -0.47651,0 -0.67145,-0.050943 -0.43319,-0.1132054 z m 32.18012,0 c 0.23826,-0.062263 0.62813,-0.062263 0.86639,0 0.23825,0.062263 0.0433,0.1132054 -0.4332,0.1132054 -0.47651,0 -0.67145,-0.050943 -0.43319,-0.1132054 z M 117.54145,2.386281 c 0.44248,-0.054911 1.16653,-0.054911 1.60901,0 0.44248,0.054911 0.0804,0.099838 -0.8045,0.099838 -0.88496,0 -1.24698,-0.044927 -0.80451,-0.099838 z m 19.31251,-3.307e-4 c 0.44491,-0.055093 1.11327,-0.053956 1.48524,0.00253 0.37196,0.056482 0.008,0.101558 -0.80894,0.1001686 -0.81688,-0.00139 -1.12122,-0.047602 -0.6763,-0.1026947 z"
         id="path1796"
         inkscape:connector-curvature="0" />
      <path
         style="fill:#ffaaaa;stroke-width:0.24753939;fill-opacity:1"
         d="M 124.90163,119.24325 C 109.30126,104.04259 96.626529,91.528511 96.73556,91.434186 c 0.109032,-0.09432 8.0995,-0.97051 17.7566,-1.947083 9.6571,-0.976572 17.60403,-1.821254 17.65984,-1.877069 0.0558,-0.05581 -8.22475,-9.717473 -18.40126,-21.470349 C 103.57422,54.386807 95.014632,44.500402 94.729425,44.169898 l -0.518558,-0.60092 0.742618,0.506469 c 0.904331,0.616759 46.362575,31.938196 62.984375,43.397218 l 11.99127,8.266741 -0.85199,0.347929 c -0.4686,0.191363 -8.74597,3.289737 -18.39416,6.885275 -9.64819,3.59554 -17.69456,6.62262 -17.88081,6.72685 -0.25623,0.1434 2.07372,4.43451 9.57442,17.63339 5.45218,9.59414 10.1893,17.9173 10.52694,18.49593 0.33764,0.57862 0.5573,1.05204 0.48814,1.05204 -0.0692,0 -12.88968,-12.43691 -28.49004,-27.63757 z"
         id="path1794"
         inkscape:connector-curvature="0" />
      <path
         style="fill:#ff9955;stroke-width:0.24753939;fill-opacity:1"
         d="m 134.43602,242.33756 c 0,-0.0514 0.19493,-0.24634 0.43319,-0.43319 0.39261,-0.30791 0.40137,-0.29915 0.0935,0.0935 -0.32338,0.41234 -0.52665,0.54347 -0.52665,0.33973 z m -13.64625,-0.58727 c -0.3079,-0.39261 -0.29915,-0.40137 0.0935,-0.0935 0.23825,0.18686 0.43319,0.38179 0.43319,0.43319 0,0.20374 -0.20328,0.0726 -0.52666,-0.33973 z m 14.6364,-0.65042 c 0,-0.0514 0.19494,-0.24634 0.4332,-0.4332 0.39261,-0.3079 0.40137,-0.29915 0.0935,0.0935 -0.32338,0.41234 -0.52666,0.54347 -0.52666,0.33974 z m -15.62655,-0.58728 c -0.30791,-0.39261 -0.29915,-0.40136 0.0935,-0.0935 0.23825,0.18686 0.43319,0.3818 0.43319,0.4332 0,0.20373 -0.20328,0.0726 -0.52665,-0.33974 z m 17.35933,-1.42335 c 0.31976,-0.34036 0.63707,-0.61885 0.70515,-0.61885 0.0681,0 -0.13785,0.27849 -0.45761,0.61885 -0.31976,0.34037 -0.63708,0.61885 -0.70515,0.61885 -0.0681,0 0.13785,-0.27848 0.45761,-0.61885 z m -19.07927,-0.55696 -0.60011,-0.68073 0.68073,0.60011 c 0.63625,0.5609 0.79425,0.76135 0.60011,0.76135 -0.0443,0 -0.35066,-0.30633 -0.68073,-0.68073 z m 10.16785,-0.15535 c 0,-0.0514 0.19494,-0.24634 0.4332,-0.43319 0.39261,-0.30791 0.40136,-0.29915 0.0935,0.0935 -0.32338,0.41234 -0.52666,0.54347 -0.52666,0.33973 z m -1.26927,-0.58727 c -0.30791,-0.39261 -0.29915,-0.40137 0.0935,-0.0935 0.41234,0.32338 0.54347,0.52665 0.33973,0.52665 -0.0514,0 -0.24634,-0.19493 -0.43319,-0.43319 z m 14.38886,-3.15613 c 1.56125,-1.56568 2.89432,-2.8467 2.9624,-2.8467 0.0681,0 -1.15362,1.28102 -2.71486,2.8467 -1.56125,1.56569 -2.89433,2.84671 -2.9624,2.84671 -0.0681,0 1.15361,-1.28102 2.71486,-2.84671 z m -12.12943,2.50571 c 0,-0.0514 0.19494,-0.24634 0.43319,-0.4332 0.39262,-0.3079 0.40137,-0.29915 0.0935,0.0935 -0.32337,0.41234 -0.52665,0.54347 -0.52665,0.33974 z m -3.24959,-0.58728 c -0.30791,-0.39261 -0.29915,-0.40136 0.0935,-0.0935 0.41234,0.32338 0.54347,0.52666 0.33974,0.52666 -0.0514,0 -0.24634,-0.19494 -0.4332,-0.4332 z m -11.60277,-1.91843 c -1.01429,-1.0211 -1.78846,-1.85654 -1.72039,-1.85654 0.0681,0 0.95364,0.83544 1.96793,1.85654 1.01428,1.0211 1.78845,1.85655 1.72038,1.85655 -0.0681,0 -0.95364,-0.83545 -1.96792,-1.85655 z m 16.21383,0.86639 c 0.24642,-0.27229 0.50373,-0.49508 0.57181,-0.49508 0.0681,0 -0.0779,0.22279 -0.32427,0.49508 -0.24643,0.27229 -0.50374,0.49508 -0.57182,0.49508 -0.0681,0 0.0779,-0.22279 0.32428,-0.49508 z m -5.71693,-0.30942 -0.47156,-0.55697 0.55697,0.47156 c 0.5234,0.44315 0.66965,0.64237 0.47156,0.64237 -0.047,0 -0.29761,-0.25063 -0.55697,-0.55696 z m 6.83085,-1.00573 c 0,-0.0426 0.36203,-0.40463 0.80451,-0.80451 l 0.8045,-0.72704 -0.72705,0.8045 c -0.6777,0.74991 -0.88196,0.91829 -0.88196,0.72705 z m -8.80322,-1.22213 -0.72704,-0.8045 0.8045,0.72705 c 0.44248,0.39987 0.8045,0.7619 0.8045,0.8045 0,0.19124 -0.20425,0.0229 -0.88196,-0.72705 z m -12.87205,-2.47539 -0.72704,-0.8045 0.8045,0.72704 c 0.74991,0.67771 0.91829,0.88196 0.72705,0.88196 -0.0426,0 -0.40463,-0.36202 -0.80451,-0.8045 z m 24.39821,0.73642 c 0,-0.0374 0.86329,-0.90074 1.91843,-1.91843 l 1.91843,-1.85035 -1.85035,1.91843 c -1.71857,1.7818 -1.98651,2.03138 -1.98651,1.85035 z m 11.63435,-1.04585 c 0.31976,-0.34036 0.63707,-0.61884 0.70515,-0.61884 0.0681,0 -0.13785,0.27848 -0.45761,0.61884 -0.31976,0.34037 -0.63708,0.61885 -0.70515,0.61885 -0.0681,0 0.13785,-0.27848 0.45761,-0.61885 z m -38.26836,-1.67089 -0.47156,-0.55696 0.55697,0.47156 c 0.5234,0.44315 0.66965,0.64237 0.47156,0.64237 -0.047,0 -0.29761,-0.25064 -0.55697,-0.55697 z m 40.37244,-0.18565 c 0.24643,-0.27229 0.50374,-0.49508 0.57181,-0.49508 0.0681,0 -0.0779,0.22279 -0.32427,0.49508 -0.24642,0.27229 -0.50374,0.49508 -0.57181,0.49508 -0.0681,0 0.0779,-0.22279 0.32427,-0.49508 z m -41.9895,-1.17581 c -0.30791,-0.39262 -0.29915,-0.40137 0.0935,-0.0935 0.23826,0.18685 0.4332,0.38179 0.4332,0.43319 0,0.20373 -0.20328,0.0726 -0.52666,-0.33973 z m 43.35097,0.0922 c 0,-0.0514 0.19494,-0.24634 0.43319,-0.43319 0.39262,-0.30791 0.40137,-0.29915 0.0935,0.0935 -0.32337,0.41234 -0.52665,0.54347 -0.52665,0.33973 z m -33.67868,-1.32989 -0.85307,-0.92827 0.92828,0.85306 c 0.51055,0.46918 0.92827,0.88691 0.92827,0.92827 0,0.18903 -0.20947,0.0109 -1.00348,-0.85306 z M 104.584,225.784 l -0.47156,-0.55696 0.55697,0.47156 c 0.5234,0.44315 0.66965,0.64236 0.47156,0.64236 -0.047,0 -0.29761,-0.25063 -0.55697,-0.55696 z m 35.79296,-0.30942 c 0.46186,-0.47652 0.89543,-0.86639 0.96351,-0.86639 0.0681,0 -0.25411,0.38987 -0.71597,0.86639 -0.46185,0.47651 -0.89543,0.86638 -0.9635,0.86638 -0.0681,0 0.25411,-0.38987 0.71596,-0.86638 z m 10.6442,0.52538 c 0,-0.0514 0.19493,-0.24634 0.43319,-0.43319 0.39261,-0.30791 0.40137,-0.29915 0.0935,0.0935 -0.32338,0.41234 -0.52665,0.54347 -0.52665,0.33973 z m -47.80668,-1.32989 c -0.30791,-0.39261 -0.29915,-0.40136 0.0935,-0.0935 0.41234,0.32338 0.54347,0.52666 0.33973,0.52666 -0.0514,0 -0.24634,-0.19494 -0.43319,-0.4332 z m 49.29191,0.0922 c 0,-0.0514 0.19494,-0.24634 0.4332,-0.4332 0.39261,-0.3079 0.40136,-0.29915 0.0935,0.0935 -0.32338,0.41234 -0.52666,0.54347 -0.52666,0.33974 z m -39.12996,-1.08235 -0.60011,-0.68074 0.68073,0.60011 c 0.63625,0.5609 0.79426,0.76136 0.60012,0.76136 -0.0443,0 -0.35067,-0.30633 -0.68074,-0.68073 z m -11.39965,0 c -0.30791,-0.39262 -0.29915,-0.40137 0.0935,-0.0935 0.41234,0.32338 0.54347,0.52666 0.33974,0.52666 -0.0514,0 -0.24634,-0.19494 -0.4332,-0.43319 z m 40.62804,-0.18566 c 0.31976,-0.34037 0.63707,-0.61885 0.70514,-0.61885 0.0681,0 -0.13785,0.27848 -0.4576,0.61885 -0.31976,0.34037 -0.63708,0.61885 -0.70515,0.61885 -0.0681,0 0.13785,-0.27848 0.45761,-0.61885 z m 11.13927,0.27785 c 0,-0.0514 0.19494,-0.24634 0.43319,-0.43319 0.39261,-0.30791 0.40137,-0.29916 0.0935,0.0935 -0.32337,0.41233 -0.52665,0.54346 -0.52665,0.33973 z m -42.22899,-1.7012 -0.47156,-0.55696 0.55697,0.47156 c 0.52341,0.44315 0.66965,0.64236 0.47156,0.64236 -0.047,0 -0.29761,-0.25063 -0.55697,-0.55696 z m 32.94626,-0.18566 c 0.24642,-0.27229 0.50374,-0.49507 0.57181,-0.49507 0.0681,0 -0.0779,0.22278 -0.32427,0.49507 -0.24642,0.2723 -0.50374,0.49508 -0.57181,0.49508 -0.0681,0 0.0779,-0.22278 0.32427,-0.49508 z m 11.51058,0.15408 c 0,-0.0514 0.19494,-0.24634 0.4332,-0.43319 0.39261,-0.30791 0.40136,-0.29915 0.0935,0.0935 -0.32338,0.41234 -0.52666,0.54347 -0.52666,0.33973 z m -57.46071,-1.08235 c -0.307907,-0.39261 -0.299152,-0.40137 0.09346,-0.0935 0.238256,0.18686 0.433194,0.38179 0.433194,0.4332 0,0.20373 -0.203277,0.0726 -0.526655,-0.33974 z m 11.38681,-0.24754 c -0.30791,-0.39261 -0.29915,-0.40137 0.0935,-0.0935 0.23826,0.18686 0.4332,0.38179 0.4332,0.4332 0,0.20373 -0.20328,0.0726 -0.52666,-0.33974 z m 47.3116,0.33974 c 0,-0.0514 0.19494,-0.24634 0.43319,-0.4332 0.39262,-0.30791 0.40137,-0.29915 0.0935,0.0935 -0.32337,0.41234 -0.52665,0.54347 -0.52665,0.33974 z m -11.38681,-0.24754 c 0,-0.0514 0.19494,-0.24634 0.43319,-0.4332 0.39261,-0.3079 0.40137,-0.29915 0.0935,0.0935 -0.32337,0.41234 -0.52665,0.54347 -0.52665,0.33974 z m 12.37697,-0.49508 c 0,-0.0514 0.19493,-0.24634 0.43319,-0.4332 0.39261,-0.3079 0.40137,-0.29915 0.0935,0.0935 -0.32338,0.41234 -0.52665,0.54347 -0.52665,0.33974 z m -49.78699,-0.83481 c -0.30791,-0.39262 -0.29916,-0.40137 0.0935,-0.0935 0.41233,0.32338 0.54346,0.52666 0.33973,0.52666 -0.0514,0 -0.24634,-0.19494 -0.43319,-0.43319 z m 38.89525,0.0922 c 0,-0.0514 0.19494,-0.24634 0.4332,-0.43319 0.39261,-0.30791 0.40137,-0.29916 0.0935,0.0935 -0.32338,0.41234 -0.52666,0.54346 -0.52666,0.33973 z m -40.13295,-1.08235 c -0.30791,-0.39261 -0.29915,-0.40137 0.0935,-0.0935 0.23826,0.18685 0.43319,0.38179 0.43319,0.43319 0,0.20374 -0.20327,0.0726 -0.52665,-0.33973 z m 41.37065,0.0922 c 0,-0.0514 0.19494,-0.24634 0.4332,-0.43319 0.39261,-0.30791 0.40136,-0.29915 0.0935,0.0935 -0.32338,0.41234 -0.52666,0.54347 -0.52666,0.33973 z m -42.60835,-1.08235 c -0.30791,-0.39261 -0.29915,-0.40137 0.0935,-0.0935 0.23826,0.18685 0.4332,0.38179 0.4332,0.43319 0,0.20374 -0.20328,0.0726 -0.52666,-0.33973 z m 43.84605,0.0922 c 0,-0.0514 0.19494,-0.24633 0.43319,-0.43319 0.39261,-0.30791 0.40137,-0.29915 0.0935,0.0935 -0.32337,0.41234 -0.52665,0.54347 -0.52665,0.33973 z m -45.08375,-1.08235 c -0.3079,-0.39261 -0.29915,-0.40136 0.0935,-0.0935 0.23825,0.18686 0.43319,0.38179 0.43319,0.4332 0,0.20373 -0.20328,0.0726 -0.52666,-0.33974 z m 47.3116,-0.65042 c 0,-0.0514 0.19494,-0.24634 0.4332,-0.4332 0.39261,-0.3079 0.40136,-0.29915 0.0935,0.0935 -0.32338,0.41233 -0.52666,0.54346 -0.52666,0.33973 z m 3.21802,-2.4754 c 0,-0.0514 0.19493,-0.24633 0.43319,-0.43319 0.39261,-0.30791 0.40137,-0.29915 0.0935,0.0935 -0.32338,0.41234 -0.52665,0.54347 -0.52665,0.33973 z m 0.99015,-0.74261 c 0,-0.0514 0.19494,-0.24634 0.4332,-0.4332 0.39261,-0.3079 0.40136,-0.29915 0.0935,0.0935 -0.32338,0.41234 -0.52666,0.54347 -0.52666,0.33974 z m 0.99016,-0.74262 c 0,-0.0514 0.19494,-0.24634 0.43319,-0.4332 0.39262,-0.3079 0.40137,-0.29915 0.0935,0.0935 -0.32337,0.41233 -0.52665,0.54346 -0.52665,0.33973 z m 0.99016,-0.74262 c 0,-0.0514 0.19493,-0.24634 0.43319,-0.43319 0.39261,-0.30791 0.40137,-0.29916 0.0935,0.0935 -0.32338,0.41234 -0.52665,0.54346 -0.52665,0.33973 z m 0.99016,-0.74262 c 0,-0.0514 0.19493,-0.24634 0.43319,-0.43319 0.39261,-0.30791 0.40137,-0.29915 0.0935,0.0935 -0.32338,0.41234 -0.52665,0.54347 -0.52665,0.33973 z m -68.191303,-4.10532 c -0.08095,-0.13098 -3.178673,-2.43671 -6.883828,-5.12385 C 65.924257,187.98323 56.601342,180.55281 47.559025,172.04063 26.680405,152.38607 14.477142,131.03215 10.332361,106.89943 8.8207108,98.097944 8.8428764,98.583599 8.748433,72.19491 l -0.08701,-24.311644 1.413176,0.486204 c 2.25188,0.774762 8.886669,2.379733 11.854767,2.8677 3.807126,0.625906 10.406361,0.632156 13.119588,0.01243 7.394719,-1.68903 11.510581,-6.583352 11.510581,-13.687654 0,-3.878417 -0.995621,-7.745351 -3.333511,-12.947186 -0.63075,-1.403427 -1.099107,-2.599398 -1.04079,-2.657715 0.218892,-0.218891 7.909718,-2.382575 13.03818,-3.668071 9.790274,-2.454022 19.605631,-4.325479 29.828495,-5.687287 2.586787,-0.344591 5.037427,-0.671502 5.445867,-0.726469 l 0.742618,-0.09994 -0.06833,8.10245 -0.06833,8.102449 -5.37754,-1.809692 c -9.558553,-3.216719 -15.817651,-4.611758 -20.848752,-4.64681 -2.762265,-0.01924 -3.219394,0.04008 -4.26072,0.55297 -5.674746,2.794991 -0.81764,13.851851 12.361483,28.140043 4.737241,5.135895 12.06055,12.12215 17.904256,17.080218 0.4814,0.40844 0.731019,0.645434 0.554714,0.526655 -0.258151,-0.173921 -0.320559,0.577863 -0.320559,3.8616 v 4.077565 l -2.0422,-0.593072 C 82.608025,73.291759 74.48251,72.373457 70.779237,73.102033 c -7.127541,1.402258 -6.838335,6.776915 0.773347,14.372112 4.052044,4.043266 10.39334,8.866428 16.919988,12.869265 l 2.623494,1.60901 0.01027,3.89874 0.01028,3.89875 0.804503,0.0363 c 0.442477,0.02 0.02475,0.11393 -0.928272,0.20881 -3.513025,0.34976 -5.991411,1.57823 -6.996491,3.46798 -1.790331,3.36618 0.944663,8.00089 7.27271,12.32431 0.25652,0.17526 0.326492,0.25182 0.155497,0.17013 -0.24898,-0.11893 -0.29828,7.89077 -0.24754,40.21593 0.03485,22.20045 0.04209,40.36445 0.01609,40.36445 -0.026,-1e-5 -0.113509,-0.10717 -0.194462,-0.23816 z m -17.736444,-3.90813 c -0.307907,-0.39261 -0.299152,-0.40137 0.09346,-0.0935 0.238256,0.18685 0.433193,0.38179 0.433193,0.43319 0,0.20374 -0.203276,0.0726 -0.526654,-0.33973 z m 110.929217,-1.14551 c 0,-0.0514 0.19494,-0.24633 0.4332,-0.43319 0.39261,-0.30791 0.40136,-0.29915 0.0935,0.0935 -0.32338,0.41234 -0.52666,0.54347 -0.52666,0.33973 z M 68.558964,198.92598 c -0.307907,-0.39262 -0.299151,-0.40137 0.09346,-0.0935 0.412339,0.32338 0.543468,0.52666 0.339733,0.52666 -0.0514,0 -0.246339,-0.19494 -0.433194,-0.43319 z m -0.990157,-0.74262 c -0.307907,-0.39261 -0.299152,-0.40137 0.09346,-0.0935 0.238256,0.18685 0.433194,0.38179 0.433194,0.43319 0,0.20374 -0.203277,0.0726 -0.526655,-0.33973 z m -0.990158,-0.74262 c -0.307907,-0.39261 -0.299151,-0.40137 0.09346,-0.0935 0.238257,0.18685 0.433194,0.38179 0.433194,0.43319 0,0.20374 -0.203277,0.0726 -0.526655,-0.33973 z m -0.990157,-0.74262 c -0.307907,-0.39261 -0.299152,-0.40137 0.09346,-0.0935 0.238256,0.18686 0.433194,0.38179 0.433194,0.43319 0,0.20374 -0.203277,0.0726 -0.526655,-0.33973 z m 126.524198,-1.39304 c 0,-0.0514 0.19494,-0.24634 0.4332,-0.4332 0.39261,-0.3079 0.40137,-0.29915 0.0935,0.0935 -0.32338,0.41233 -0.52666,0.54346 -0.52666,0.33973 z M 62.37048,194.22273 c -0.307907,-0.39262 -0.299152,-0.40137 0.09346,-0.0935 0.238256,0.18685 0.433194,0.38179 0.433194,0.43319 0,0.20374 -0.203277,0.0726 -0.526655,-0.33973 z m -0.990158,-0.74262 c -0.307907,-0.39261 -0.299151,-0.40137 0.09346,-0.0935 0.412339,0.32338 0.543468,0.52665 0.339733,0.52665 -0.0514,0 -0.246339,-0.19493 -0.433194,-0.43319 z m 132.960228,0.0922 c 0,-0.0514 0.19494,-0.24634 0.43319,-0.43319 0.39261,-0.30791 0.40137,-0.29915 0.0935,0.0935 -0.32338,0.41234 -0.52665,0.54347 -0.52665,0.33973 z M 60.142625,192.48995 c -0.307907,-0.39261 -0.299151,-0.40137 0.09346,-0.0935 0.238257,0.18686 0.433194,0.38179 0.433194,0.43319 0,0.20374 -0.203277,0.0726 -0.526655,-0.33973 z M 196.5684,191.83953 c 0,-0.0514 0.19494,-0.24634 0.4332,-0.4332 0.39261,-0.3079 0.40136,-0.29915 0.0935,0.0935 -0.32338,0.41234 -0.52666,0.54347 -0.52666,0.33974 z M 57.914771,190.75718 c -0.307907,-0.39262 -0.299152,-0.40137 0.09346,-0.0935 0.412338,0.32338 0.543467,0.52666 0.339733,0.52666 -0.0514,0 -0.246339,-0.19494 -0.433194,-0.43319 z m 139.891329,0.0922 c 0,-0.0514 0.19494,-0.24634 0.43319,-0.43319 0.39262,-0.30791 0.40137,-0.29916 0.0935,0.0935 -0.32337,0.41234 -0.52665,0.54346 -0.52665,0.33973 z M 56.677074,189.76702 c -0.307907,-0.39261 -0.299152,-0.40137 0.09346,-0.0935 0.238256,0.18685 0.433194,0.38179 0.433194,0.43319 0,0.20374 -0.203277,0.0726 -0.526655,-0.33973 z m 142.366726,0.0922 c 0,-0.0514 0.19493,-0.24634 0.43319,-0.43319 0.39261,-0.30791 0.40137,-0.29915 0.0935,0.0935 -0.32338,0.41234 -0.52665,0.54347 -0.52665,0.33973 z m -143.851963,-1.3299 c -0.307906,-0.39261 -0.299151,-0.40137 0.09346,-0.0935 0.238257,0.18686 0.433194,0.38179 0.433194,0.43319 0,0.20374 -0.203277,0.0726 -0.526655,-0.33973 z m 145.460963,-0.0619 c 0.24643,-0.2723 0.50374,-0.49508 0.57181,-0.49508 0.0681,0 -0.0779,0.22278 -0.32427,0.49508 -0.24642,0.27229 -0.50374,0.49508 -0.57181,0.49508 -0.0681,0 0.0779,-0.22279 0.32427,-0.49508 z m -146.814372,-1.05205 -0.47156,-0.55696 0.556964,0.47156 c 0.523407,0.44315 0.669653,0.64237 0.47156,0.64237 -0.04697,0 -0.297607,-0.25064 -0.556964,-0.55697 z m 147.928302,0.21597 c 0,-0.0514 0.19494,-0.24634 0.43319,-0.4332 0.39262,-0.3079 0.40137,-0.29915 0.0935,0.0935 -0.32337,0.41234 -0.52665,0.54347 -0.52665,0.33974 z m -149.413538,-1.45366 -0.47156,-0.55697 0.556964,0.47156 c 0.306329,0.25936 0.556963,0.50999 0.556963,0.55697 0,0.19809 -0.199217,0.0518 -0.642367,-0.47156 z m 151.270078,-0.18566 c 0.24643,-0.27229 0.50374,-0.49508 0.57182,-0.49508 0.0681,0 -0.0778,0.22279 -0.32428,0.49508 -0.24642,0.2723 -0.50373,0.49508 -0.57181,0.49508 -0.0681,0 0.0778,-0.22278 0.32427,-0.49508 z m -152.874302,-1.17581 -0.600112,-0.68073 0.680733,0.60011 c 0.636249,0.5609 0.794253,0.76135 0.600113,0.76135 -0.04434,0 -0.35067,-0.30633 -0.680734,-0.68073 z m 154.359542,-0.0619 c 0.24642,-0.2723 0.50374,-0.49508 0.57181,-0.49508 0.0681,0 -0.0778,0.22278 -0.32427,0.49508 -0.24642,0.27229 -0.50374,0.49507 -0.57181,0.49507 -0.0681,0 0.0778,-0.22278 0.32427,-0.49507 z m -156.092317,-1.42336 -0.600113,-0.68073 0.680734,0.60011 c 0.636248,0.5609 0.794252,0.76136 0.600112,0.76136 -0.04434,0 -0.350669,-0.30633 -0.680733,-0.68074 z m 158.072637,-0.30942 c 0.24642,-0.27229 0.50373,-0.49508 0.57181,-0.49508 0.0681,0 -0.0779,0.22279 -0.32427,0.49508 -0.24643,0.27229 -0.50374,0.49508 -0.57182,0.49508 -0.0681,0 0.0778,-0.22279 0.32428,-0.49508 z m -160.052952,-1.42335 -0.600113,-0.68074 0.680734,0.60012 c 0.636248,0.56089 0.794252,0.76135 0.600112,0.76135 -0.04434,0 -0.350669,-0.30633 -0.680733,-0.68073 z m 162.157032,-0.4332 c 0.31976,-0.34036 0.63708,-0.61884 0.70515,-0.61884 0.0681,0 -0.13785,0.27848 -0.45761,0.61884 -0.31976,0.34037 -0.63707,0.61885 -0.70515,0.61885 -0.0681,0 0.13785,-0.27848 0.45761,-0.61885 z m -164.874554,-2.0422 -0.853063,-0.92827 0.928272,0.85306 c 0.51055,0.46919 0.928273,0.88691 0.928273,0.92828 0,0.18902 -0.209473,0.0109 -1.003482,-0.85307 z m 167.721254,-0.55696 c 0.53178,-0.54459 1.02256,-0.99016 1.09064,-0.99016 0.0681,0 -0.31132,0.44557 -0.8431,0.99016 -0.53177,0.54459 -1.02256,0.99016 -1.09063,0.99016 -0.0681,0 0.31132,-0.44557 0.84309,-0.99016 z m -173.281786,-4.76513 -2.718713,-2.78482 2.784818,2.71871 c 1.53165,1.49529 2.784818,2.74846 2.784818,2.78482 0,0.17851 -0.325677,-0.13206 -2.850923,-2.71871 z m 182.688286,-4.64137 c 0.53177,-0.54458 1.02256,-0.99015 1.09063,-0.99015 0.0681,0 -0.31132,0.44557 -0.84309,0.99015 -0.53177,0.54459 -1.02256,0.99016 -1.09063,0.99016 -0.0681,0 0.31132,-0.44557 0.84309,-0.99016 z m -187.6465,-0.55696 -0.978511,-1.05204 1.052043,0.97851 c 0.578623,0.53818 1.052042,1.0116 1.052042,1.05204 0,0.18728 -0.21557,-1.2e-4 -1.125574,-0.97851 z m 189.99812,-2.0422 c 0.31976,-0.34037 0.63708,-0.61885 0.70515,-0.61885 0.0681,0 -0.13785,0.27848 -0.45761,0.61885 -0.31976,0.34037 -0.63707,0.61885 -0.70514,0.61885 -0.0681,0 0.13785,-0.27848 0.4576,-0.61885 z m -192.2299,-0.43319 -0.727046,-0.80451 0.804503,0.72705 c 0.749911,0.67771 0.918285,0.88196 0.727046,0.88196 -0.0426,0 -0.404628,-0.36203 -0.804503,-0.8045 z m 193.83891,-1.42336 c 0.24642,-0.27229 0.50374,-0.49507 0.57181,-0.49507 0.0681,0 -0.0779,0.22278 -0.32427,0.49507 -0.24642,0.2723 -0.50374,0.49508 -0.57181,0.49508 -0.0681,0 0.0779,-0.22278 0.32427,-0.49508 z m -195.579632,-0.55696 -0.47156,-0.55696 0.556963,0.47156 c 0.523408,0.44315 0.669654,0.64236 0.471561,0.64236 -0.04697,0 -0.297607,-0.25063 -0.556964,-0.55696 z M 226.52067,163.3725 c 0,-0.0514 0.19494,-0.24634 0.43319,-0.4332 0.39261,-0.3079 0.40137,-0.29915 0.0935,0.0935 -0.32338,0.41234 -0.52665,0.54347 -0.52665,0.33974 z M 28.705123,162.78522 c -0.307907,-0.39261 -0.299151,-0.40136 0.09346,-0.0935 0.412339,0.32338 0.543468,0.52666 0.339733,0.52666 -0.0514,0 -0.246339,-0.19494 -0.433194,-0.4332 z m 199.053237,-0.89796 c 0,-0.0514 0.19494,-0.24634 0.4332,-0.43319 0.39261,-0.30791 0.40137,-0.29916 0.0935,0.0935 -0.32338,0.41234 -0.52666,0.54346 -0.52666,0.33973 z M 27.467426,161.29999 c -0.307906,-0.39261 -0.299151,-0.40137 0.09346,-0.0935 0.412339,0.32337 0.543468,0.52665 0.339733,0.52665 -0.0514,0 -0.246339,-0.19494 -0.433194,-0.43319 z m 201.281094,-0.65043 c 0,-0.0514 0.19494,-0.24634 0.4332,-0.43319 0.39261,-0.30791 0.40136,-0.29915 0.0935,0.0935 -0.32338,0.41234 -0.52666,0.54347 -0.52666,0.33973 z M 26.477269,160.06229 c -0.307907,-0.39261 -0.299152,-0.40137 0.09346,-0.0935 0.412339,0.32338 0.543468,0.52665 0.339733,0.52665 -0.0514,0 -0.246339,-0.19493 -0.433194,-0.43319 z m 89.856801,-11.38681 c -0.30791,-0.39261 -0.29916,-0.40137 0.0935,-0.0935 0.41234,0.32338 0.54346,0.52665 0.33973,0.52665 -0.0514,0 -0.24634,-0.19493 -0.43319,-0.43319 z m -2.72294,-2.72293 c -0.3079,-0.39262 -0.29915,-0.40137 0.0935,-0.0935 0.41234,0.32338 0.54347,0.52666 0.33974,0.52666 -0.0514,0 -0.24634,-0.19494 -0.4332,-0.43319 z m -2.37302,-5.87907 c 0.002,-0.68073 0.0499,-0.92983 0.10683,-0.55356 0.0569,0.37628 0.0554,0.93324 -0.003,1.2377 -0.0588,0.30446 -0.10531,-0.003 -0.10345,-0.68414 z m 45.99107,0.722 c 0.0119,-0.28838 0.0705,-0.34703 0.14956,-0.14956 0.0715,0.17869 0.0627,0.3922 -0.0195,0.47445 -0.0823,0.0823 -0.14076,-0.064 -0.13002,-0.32489 z m -0.21882,-1.71215 c 0.005,-0.40844 0.0605,-0.54557 0.12328,-0.30472 0.0628,0.24085 0.0586,0.57503 -0.009,0.74262 -0.0678,0.16759 -0.11916,-0.0295 -0.11411,-0.4379 z m -43.86273,-4.17786 c 0,-0.0514 0.19494,-0.24634 0.43319,-0.4332 0.39262,-0.3079 0.40137,-0.29915 0.0935,0.0935 -0.32337,0.41234 -0.52665,0.54347 -0.52665,0.33974 z m 43.85355,-1.14424 c 0,-0.34037 0.0562,-0.47961 0.12486,-0.30942 0.0687,0.17018 0.0687,0.44866 0,0.61884 -0.0687,0.17019 -0.12486,0.0309 -0.12486,-0.30942 z m 0.228,-1.62963 c 0.0119,-0.28837 0.0705,-0.34703 0.14956,-0.14956 0.0715,0.17869 0.0627,0.3922 -0.0195,0.47445 -0.0823,0.0823 -0.14076,-0.064 -0.13002,-0.32489 z M 4.0023034,113.3186 c 0.011877,-0.28837 0.070534,-0.34702 0.1495552,-0.14955 0.071507,0.17869 0.062713,0.39219 -0.019543,0.47445 -0.082255,0.0823 -0.140761,-0.064 -0.1300122,-0.3249 z M 110.17716,112.45823 c 0,-0.14418 0.11139,-0.1933 0.24754,-0.10916 0.13614,0.0842 0.24754,0.20211 0.24754,0.26215 0,0.06 -0.1114,0.10916 -0.24754,0.10916 -0.13615,0 -0.24754,-0.11797 -0.24754,-0.26215 z M 3.754764,112.08091 c 0.011877,-0.28838 0.070534,-0.34703 0.1495552,-0.14956 0.071507,0.17869 0.062713,0.3922 -0.019543,0.47445 -0.082255,0.0823 -0.140761,-0.064 -0.1300122,-0.32489 z m -0.2475392,-1.2377 c 0.011878,-0.28837 0.070534,-0.34703 0.149555,-0.14956 0.071507,0.17869 0.062713,0.3922 -0.019543,0.47445 -0.082255,0.0823 -0.1407609,-0.0639 -0.130012,-0.32489 z m 98.4547152,-0.27224 c 0.17869,-0.0715 0.3922,-0.0627 0.47445,0.0195 0.0823,0.0823 -0.0639,0.14076 -0.32489,0.13001 -0.28837,-0.0119 -0.34703,-0.0705 -0.14956,-0.14955 z m -1.5007,-0.24238 c 0.17018,-0.0687 0.44866,-0.0687 0.61884,0 0.17019,0.0687 0.031,0.12485 -0.30942,0.12485 -0.34037,0 -0.47961,-0.0562 -0.30942,-0.12485 z m -1.73278,-0.24754 c 0.170184,-0.0687 0.448666,-0.0687 0.618849,0 0.170183,0.0687 0.03094,0.12485 -0.309424,0.12485 -0.340367,0 -0.479608,-0.0562 -0.309425,-0.12485 z M 3.2596854,109.60551 c 0.011878,-0.28837 0.070534,-0.34702 0.149555,-0.14955 0.071507,0.17869 0.062713,0.39219 -0.019543,0.47445 -0.082255,0.0823 -0.1407609,-0.0639 -0.130012,-0.3249 z m 92.7487286,0.21686 c 0.307916,-0.0592 0.753487,-0.057 0.990157,0.005 0.23667,0.062 -0.01527,0.11041 -0.55985,0.10766 -0.544587,-0.003 -0.738224,-0.0534 -0.430307,-0.11265 z M 3.012146,108.36781 c 0.011878,-0.28837 0.070534,-0.34702 0.149555,-0.14955 0.071507,0.17869 0.062713,0.39219 -0.019543,0.47445 -0.082255,0.0822 -0.1407609,-0.064 -0.130012,-0.3249 z m 249.767224,-0.24754 c 0.0119,-0.28837 0.0705,-0.34702 0.14957,-0.14955 0.0715,0.17869 0.0627,0.3922 -0.0196,0.47445 -0.0823,0.0823 -0.14077,-0.064 -0.13003,-0.3249 z M 2.7646066,106.88258 c 0.011878,-0.28837 0.070534,-0.34703 0.149555,-0.14956 0.071507,0.17869 0.062713,0.3922 -0.019543,0.47445 -0.082255,0.0823 -0.1407609,-0.064 -0.130012,-0.32489 z M 253.02691,106.63504 c 0.0119,-0.28837 0.0706,-0.34703 0.14957,-0.14956 0.0715,0.17869 0.0627,0.3922 -0.0196,0.47445 -0.0823,0.0823 -0.14078,-0.064 -0.13003,-0.32489 z M 2.5366098,105.2942 c 0,-0.34037 0.056185,-0.47961 0.1248554,-0.30942 0.068671,0.17018 0.068671,0.44866 0,0.61884 -0.068671,0.17019 -0.1248554,0.0309 -0.1248554,-0.30942 z M 253.27445,104.90226 c 0.0119,-0.28837 0.0705,-0.34702 0.14957,-0.14955 0.0715,0.17869 0.0627,0.39219 -0.0196,0.47445 -0.0823,0.0823 -0.14078,-0.0639 -0.13003,-0.3249 z M 2.2890704,103.56142 c 0,-0.34036 0.056185,-0.4796 0.1248554,-0.30942 0.068671,0.17018 0.068671,0.44866 0,0.61885 -0.068671,0.17018 -0.1248554,0.0309 -0.1248554,-0.30943 z M 253.52199,103.16949 c 0.0119,-0.28837 0.0706,-0.34703 0.14956,-0.14956 0.0715,0.17869 0.0627,0.3922 -0.0196,0.47445 -0.0823,0.0823 -0.14078,-0.064 -0.13003,-0.32489 z M 2.041531,101.58111 c 0,-0.34037 0.056185,-0.47961 0.1248554,-0.30943 0.068671,0.17019 0.068671,0.44867 0,0.61885 -0.068671,0.17019 -0.1248554,0.0309 -0.1248554,-0.30942 z m 251.727999,-0.39194 c 0.0119,-0.28837 0.0705,-0.34702 0.14956,-0.14955 0.0715,0.17869 0.0627,0.39219 -0.0196,0.47445 -0.0823,0.0823 -0.14078,-0.064 -0.13003,-0.3249 z M 1.803164,99.229484 c 0.00504,-0.40844 0.060523,-0.545562 0.123285,-0.304714 0.062762,0.240849 0.058634,0.575027 -0.00917,0.742619 C 1.84947,99.83498 1.7981192,99.637919 1.803164,99.229484 Z M 254.03663,98.858175 c 0,-0.340367 0.0562,-0.479608 0.12485,-0.309424 0.0687,0.170183 0.0687,0.448665 0,0.618848 -0.0687,0.170184 -0.12485,0.03094 -0.12485,-0.309424 z M 1.5697924,96.506551 c 0.00275,-0.544587 0.05344,-0.738225 0.1126496,-0.430308 0.05921,0.307917 0.056962,0.753488 -0.005,0.990158 -0.061957,0.23667 -0.1104015,-0.01526 -0.107654,-0.55985 z M 254.30251,95.887702 c 0,-0.476513 0.0509,-0.67145 0.1132,-0.433194 0.0623,0.238257 0.0623,0.628131 0,0.866388 -0.0623,0.238257 -0.1132,0.04332 -0.1132,-0.433194 z M 1.3340064,92.422151 c 0,-0.748807 0.046405,-1.055137 0.1031225,-0.680734 0.056717,0.374404 0.056717,0.987064 0,1.361467 -0.056717,0.374403 -0.1031225,0.06807 -0.1031225,-0.680733 z M 254.57584,90.936914 c 0,-1.0211 0.0437,-1.438822 0.0971,-0.928272 0.0534,0.51055 0.0534,1.345995 0,1.856545 -0.0534,0.51055 -0.0971,0.09283 -0.0971,-0.928273 z M 110.4247,83.001044 c 0,-0.144182 -0.12861,-0.182667 -0.28579,-0.08552 -0.18118,0.111977 -0.21842,0.06762 -0.10173,-0.12118 0.14093,-0.228038 0.26588,-0.229897 0.53332,-0.0079 0.41227,0.342149 0.441,0.476788 0.10174,0.476788 -0.13615,0 -0.24754,-0.117967 -0.24754,-0.262149 z m -7.21022,-5.616912 c -0.30791,-0.392612 -0.29915,-0.401367 0.0935,-0.09346 0.41234,0.323378 0.54347,0.526655 0.33973,0.526655 -0.0514,0 -0.24634,-0.194937 -0.43319,-0.433194 z m -3.465553,-2.722933 c -0.307907,-0.392612 -0.299152,-0.401368 0.09346,-0.09346 0.412343,0.323378 0.543473,0.526655 0.339733,0.526655 -0.0514,0 -0.246339,-0.194937 -0.433194,-0.433194 z M 98.51123,73.671041 c -0.307907,-0.392612 -0.299152,-0.401367 0.09346,-0.09346 0.412338,0.323378 0.543468,0.526655 0.339733,0.526655 -0.0514,0 -0.246339,-0.194937 -0.433194,-0.433194 z m -1.237697,-0.990157 c -0.307907,-0.392613 -0.299151,-0.401368 0.09346,-0.09346 0.238256,0.186855 0.433194,0.381792 0.433194,0.433194 0,0.203735 -0.203277,0.07261 -0.526655,-0.339733 z m -1.485236,-1.237697 c -0.307907,-0.392612 -0.299152,-0.401368 0.09346,-0.09346 0.238256,0.186855 0.433193,0.381792 0.433193,0.433194 0,0.203735 -0.203276,0.07261 -0.526654,-0.339733 z M 94.5506,70.453029 c -0.307907,-0.392612 -0.299152,-0.401368 0.09346,-0.09346 0.238256,0.186855 0.433194,0.381793 0.433194,0.433194 0,0.203735 -0.203277,0.07261 -0.526655,-0.339733 z m -1.600949,-1.361466 -0.47156,-0.556964 0.556964,0.47156 c 0.30633,0.259357 0.556963,0.509991 0.556963,0.556964 0,0.198093 -0.199217,0.05185 -0.642367,-0.47156 z m 69.934659,-0.12377 -0.60011,-0.680733 0.68073,0.600112 c 0.3744,0.330064 0.68073,0.636394 0.68073,0.680733 0,0.19414 -0.20045,0.03614 -0.76135,-0.600112 z m -1.99316,-1.732776 c -0.3079,-0.392612 -0.29915,-0.401368 0.0935,-0.09346 0.23825,0.186855 0.43319,0.381793 0.43319,0.433194 0,0.203735 -0.20328,0.07261 -0.52666,-0.339733 z m -1.48523,-1.237697 c -0.30791,-0.392612 -0.29915,-0.401368 0.0935,-0.09346 0.23826,0.186855 0.43319,0.381793 0.43319,0.433194 0,0.203735 -0.20327,0.07261 -0.52665,-0.339733 z m -1.2377,-0.990157 c -0.30791,-0.392613 -0.29915,-0.401368 0.0935,-0.09346 0.23826,0.186855 0.4332,0.381792 0.4332,0.433194 0,0.203734 -0.20328,0.0726 -0.52666,-0.339733 z M 28.803295,44.475505 c 0.240848,-0.06276 0.575026,-0.05863 0.742618,0.0092 0.167592,0.06781 -0.02946,0.119158 -0.437905,0.114113 -0.408439,-0.005 -0.545561,-0.06052 -0.304713,-0.123285 z m 197.783965,0 c 0.24085,-0.06276 0.57503,-0.05863 0.74262,0.0092 0.16759,0.06781 -0.0295,0.119158 -0.4379,0.114113 -0.40844,-0.005 -0.54557,-0.06052 -0.30472,-0.123285 z M 24.961724,44.235567 c 0.170183,-0.06867 0.448665,-0.06867 0.618848,0 0.170184,0.06867 0.03094,0.124857 -0.309424,0.124857 -0.340367,0 -0.479608,-0.05619 -0.309424,-0.124857 z m 7.194113,-0.0051 c 0.178691,-0.07151 0.392194,-0.06271 0.474451,0.01953 0.08225,0.08225 -0.06395,0.140761 -0.324895,0.130013 -0.288371,-0.01188 -0.347025,-0.07053 -0.149556,-0.149553 z m 191.347943,0 c 0.17869,-0.07151 0.3922,-0.06271 0.47445,0.01953 0.0823,0.08225 -0.064,0.140761 -0.32489,0.130013 -0.28837,-0.01188 -0.34703,-0.07053 -0.14956,-0.149553 z m 6.66809,0.0051 c 0.17019,-0.06867 0.44867,-0.06867 0.61885,0 0.17019,0.06867 0.0309,0.124857 -0.30942,0.124857 -0.34037,0 -0.47961,-0.05619 -0.30943,-0.124857 z M 23.244419,43.982872 c 0.178693,-0.07151 0.392196,-0.06271 0.474451,0.01953 0.08225,0.08225 -0.06395,0.14076 -0.324896,0.130012 -0.288369,-0.01188 -0.347025,-0.07053 -0.149555,-0.149553 z m 209.170781,0 c 0.17869,-0.07151 0.3922,-0.06271 0.47445,0.01953 0.0823,0.08225 -0.0639,0.14076 -0.32489,0.130012 -0.28838,-0.01188 -0.34703,-0.07053 -0.14956,-0.149553 z M 21.759183,43.735332 c 0.178692,-0.07151 0.392195,-0.06271 0.474451,0.01953 0.08225,0.08225 -0.06395,0.140761 -0.324896,0.130013 -0.288369,-0.01188 -0.347025,-0.07053 -0.149555,-0.149554 z m 212.141257,0 c 0.17869,-0.07151 0.39219,-0.06271 0.47445,0.01953 0.0823,0.08225 -0.064,0.140761 -0.3249,0.130013 -0.28837,-0.01188 -0.34702,-0.07053 -0.14955,-0.149554 z M 37.648117,42.047884 c 0.319759,-0.340367 0.637075,-0.618849 0.705148,-0.618849 0.06807,0 -0.137849,0.278482 -0.457608,0.618849 -0.319759,0.340366 -0.637075,0.618848 -0.705148,0.618848 -0.06807,0 0.137849,-0.278482 0.457608,-0.618848 z m 180.437473,-0.06189 -0.60011,-0.680734 0.68073,0.600113 c 0.37441,0.330064 0.68074,0.636394 0.68074,0.680733 0,0.19414 -0.20046,0.03614 -0.76136,-0.600112 z m -0.85783,-1.068512 c -0.0897,-0.145204 -0.11007,-0.317097 -0.0452,-0.381985 0.0649,-0.06489 0.18394,0.05392 0.26456,0.264008 0.16738,0.436192 0.0247,0.512917 -0.21937,0.117977 z M 39.216579,37.468405 c 0,-1.0211 0.04369,-1.438823 0.0971,-0.928273 0.0534,0.51055 0.0534,1.345995 0,1.856545 -0.05341,0.51055 -0.0971,0.09283 -0.0971,-0.928272 z m 177.422061,1.340839 c 0.0119,-0.288371 0.0705,-0.347026 0.14955,-0.149556 0.0715,0.178691 0.0627,0.392194 -0.0195,0.474451 -0.0823,0.08226 -0.14076,-0.06395 -0.13001,-0.324895 z m 0.0195,-2.578536 c 0,-0.340367 0.0562,-0.479608 0.12485,-0.309424 0.0687,0.170183 0.0687,0.448665 0,0.618848 -0.0687,0.170183 -0.12485,0.03094 -0.12485,-0.309424 z M 38.657818,33.610917 c 0.01188,-0.288371 0.07053,-0.347026 0.149553,-0.149556 0.07151,0.178691 0.06271,0.392196 -0.01953,0.474451 -0.08226,0.08226 -0.140761,-0.06395 -0.130013,-0.324895 z M 92.668456,11.552765 c 0.240849,-0.06276 0.575027,-0.05863 0.742618,0.0092 0.167592,0.06781 -0.02946,0.119158 -0.437904,0.114113 -0.40844,-0.005 -0.545562,-0.06052 -0.304714,-0.123285 z m 70.053644,0 c 0.24085,-0.06276 0.57503,-0.05863 0.74262,0.0092 0.16759,0.06781 -0.0295,0.119158 -0.4379,0.114113 -0.40844,-0.005 -0.54557,-0.06052 -0.30472,-0.123285 z M 94.896311,11.305226 c 0.240848,-0.06276 0.575026,-0.05863 0.742618,0.0092 0.167591,0.06781 -0.02947,0.119157 -0.437905,0.114113 -0.40844,-0.005 -0.545562,-0.06052 -0.304713,-0.123285 z m 65.345689,9.15e-4 c 0.23825,-0.06226 0.62813,-0.06226 0.86639,0 0.23825,0.06226 0.0433,0.113206 -0.4332,0.113206 -0.47651,0 -0.67145,-0.05094 -0.43319,-0.113206 z M 97.366994,11.058602 c 0.238256,-0.06226 0.628131,-0.06226 0.866388,0 0.238256,0.06226 0.04332,0.113206 -0.433194,0.113206 -0.476514,0 -0.671451,-0.05094 -0.433194,-0.113206 z m 60.399606,0 c 0.23826,-0.06226 0.62813,-0.06226 0.86639,0 0.23826,0.06226 0.0433,0.113206 -0.43319,0.113206 -0.47652,0 -0.67145,-0.05094 -0.4332,-0.113206 z m -57.67667,-0.247539 c 0.23825,-0.06226 0.62813,-0.06226 0.86638,0 0.23826,0.06226 0.0433,0.113205 -0.43319,0.113205 -0.47651,0 -0.67145,-0.05094 -0.43319,-0.113205 z m 54.95374,0 c 0.23826,-0.06226 0.62813,-0.06226 0.86639,0 0.23825,0.06226 0.0433,0.113205 -0.4332,0.113205 -0.47651,0 -0.67145,-0.05094 -0.43319,-0.113205 z m -51.85661,-0.251988 c 0.30791,-0.05921 0.75348,-0.05696 0.99015,0.005 0.23667,0.06196 -0.0153,0.110402 -0.55985,0.107654 -0.54458,-0.0027 -0.73822,-0.05344 -0.4303,-0.112649 z m 48.51483,3.71e-4 c 0.30633,-0.059 0.8076,-0.059 1.11393,0 0.30633,0.059 0.0557,0.107276 -0.55697,0.107276 -0.61266,0 -0.86329,-0.04827 -0.55696,-0.107276 z m -44.925,-0.250465 c 0.37628,-0.0569 0.93324,-0.05538 1.2377,0.0034 0.30446,0.05876 -0.003,0.105309 -0.68414,0.103451 -0.68073,-0.0019 -0.92983,-0.04993 -0.55356,-0.10683 z m 41.33908,0 c 0.37628,-0.0569 0.93324,-0.05538 1.2377,0.0034 0.30446,0.05876 -0.003,0.105309 -0.68414,0.103451 -0.68073,-0.0019 -0.92983,-0.04993 -0.55356,-0.10683 z m -37.00611,-0.249309 c 0.44492,-0.05509 1.11327,-0.05396 1.48524,0.0025 0.37196,0.05648 0.008,0.101558 -0.80894,0.100168 -0.81688,-0.0014 -1.12121,-0.0476 -0.6763,-0.102695 z m 32.42766,0 c 0.44492,-0.05509 1.11327,-0.05396 1.48524,0.0025 0.37196,0.05648 0.008,0.101558 -0.80894,0.100168 -0.81688,-0.0014 -1.12121,-0.0476 -0.6763,-0.102695 z M 117.05467,9.8087477 c 0.71934,-0.050162 1.83326,-0.049635 2.4754,0.00116 0.64213,0.050806 0.0536,0.091848 -1.30788,0.091203 -1.36147,-6.436e-4 -1.88685,-0.042213 -1.16752,-0.092375 z m 19.55561,0 c 0.71934,-0.050162 1.83327,-0.049635 2.4754,0.00116 0.64213,0.050806 0.0536,0.091848 -1.30788,0.091203 -1.36147,-6.436e-4 -1.88685,-0.042213 -1.16752,-0.092375 z m 58.17893,-0.4813923 c 0.17869,-0.071507 0.3922,-0.062713 0.47445,0.019543 0.0823,0.082255 -0.0639,0.140761 -0.32489,0.1300126 -0.28837,-0.011877 -0.34703,-0.070534 -0.14956,-0.1495556 z M 63.09826,8.8322766 c 0.178692,-0.071507 0.392194,-0.062713 0.474452,0.019543 0.08225,0.082255 -0.06395,0.1407611 -0.324896,0.1300126 -0.288371,-0.011877 -0.347025,-0.070534 -0.149556,-0.1495556 z m 3.713091,-0.7426182 c 0.178691,-0.071507 0.392196,-0.062713 0.474451,0.019543 0.08225,0.082255 -0.06395,0.1407611 -0.324895,0.1300127 -0.288371,-0.011877 -0.347026,-0.070534 -0.149556,-0.1495557 z m 122.036919,0 c 0.17869,-0.071507 0.39219,-0.062713 0.47445,0.019543 0.0822,0.082255 -0.064,0.1407611 -0.3249,0.1300127 -0.28837,-0.011877 -0.34702,-0.070534 -0.14955,-0.1495557 z M 68.049048,7.842119 c 0.178691,-0.071507 0.392196,-0.062713 0.474451,0.019543 0.08226,0.082255 -0.06395,0.1407611 -0.324895,0.1300127 -0.288371,-0.011877 -0.347026,-0.070534 -0.149556,-0.1495557 z m 2.722933,-0.4950788 c 0.178691,-0.071507 0.392197,-0.062713 0.474451,0.019543 0.08226,0.082255 -0.06395,0.1407611 -0.324895,0.1300127 -0.288371,-0.011877 -0.347025,-0.070534 -0.149556,-0.1495557 z m 114.115659,0 c 0.17869,-0.071507 0.39219,-0.062713 0.47445,0.019543 0.0823,0.082255 -0.064,0.1407611 -0.3249,0.1300127 -0.28837,-0.011877 -0.34702,-0.070534 -0.14955,-0.1495557 z M 72.009678,7.0995008 c 0.178691,-0.071507 0.392197,-0.062713 0.474451,0.019543 0.08226,0.082255 -0.06395,0.1407611 -0.324895,0.1300127 -0.288371,-0.011877 -0.347025,-0.070534 -0.149556,-0.1495557 z m 1.485236,-0.2475394 c 0.178692,-0.071507 0.392197,-0.062713 0.474452,0.019543 0.08226,0.082255 -0.06395,0.1407611 -0.324896,0.1300127 -0.288371,-0.011877 -0.347025,-0.070534 -0.149556,-0.1495557 z m 108.669786,0 c 0.1787,-0.071507 0.3922,-0.062713 0.47446,0.019543 0.0822,0.082255 -0.064,0.1407611 -0.3249,0.1300127 -0.28837,-0.011877 -0.34703,-0.070534 -0.14956,-0.1495557 z M 74.980151,6.604422 c 0.178691,-0.071507 0.392196,-0.062713 0.474451,0.019543 0.08226,0.082255 -0.06395,0.1407611 -0.324895,0.1300127 -0.288371,-0.011877 -0.347026,-0.070534 -0.149556,-0.1495557 z m 105.699319,0 c 0.17869,-0.071507 0.39219,-0.062713 0.47445,0.019543 0.0822,0.082255 -0.064,0.1407611 -0.3249,0.1300127 -0.28837,-0.011877 -0.34702,-0.070534 -0.14955,-0.1495557 z M 76.465387,6.3568826 c 0.178691,-0.071507 0.392196,-0.062713 0.474451,0.019543 0.08226,0.082255 -0.06395,0.1407611 -0.324895,0.1300127 -0.288371,-0.011877 -0.347026,-0.070534 -0.149556,-0.1495557 z m 102.728843,0 c 0.17869,-0.071507 0.3922,-0.062713 0.47445,0.019543 0.0823,0.082255 -0.064,0.1407611 -0.32489,0.1300127 -0.28837,-0.011877 -0.34703,-0.070534 -0.14956,-0.1495557 z M 78.198163,6.1093432 c 0.178691,-0.071507 0.392196,-0.062713 0.474451,0.019543 0.08226,0.082255 -0.06395,0.1407611 -0.324895,0.1300127 C 78.059348,6.2470221 78.000693,6.188365 78.198163,6.109344 Z m 99.263297,0 c 0.17869,-0.071507 0.39219,-0.062713 0.47445,0.019543 0.0822,0.082255 -0.064,0.1407611 -0.3249,0.1300127 -0.28837,-0.011877 -0.34702,-0.070534 -0.14955,-0.1495557 z M 79.683399,5.8618038 c 0.178691,-0.071507 0.392196,-0.062713 0.474451,0.019543 0.08226,0.082255 -0.06395,0.1407611 -0.324895,0.1300127 -0.288371,-0.011877 -0.347026,-0.070534 -0.149556,-0.1495557 z m 96.292821,0 c 0.17869,-0.071507 0.3922,-0.062713 0.47445,0.019543 0.0823,0.082255 -0.064,0.1407611 -0.32489,0.1300127 -0.28838,-0.011877 -0.34703,-0.070534 -0.14956,-0.1495557 z M 81.416175,5.6142644 c 0.178691,-0.071507 0.392196,-0.062713 0.474451,0.019543 0.08226,0.082255 -0.06395,0.140761 -0.324895,0.1300126 C 81.27736,5.751943 81.218705,5.693286 81.416175,5.6142644 Z m 92.827265,0 c 0.1787,-0.071507 0.3922,-0.062713 0.47446,0.019543 0.0823,0.082255 -0.0639,0.140761 -0.3249,0.1300126 -0.28837,-0.011877 -0.34703,-0.070534 -0.14956,-0.1495556 z M 83.133479,5.371882 c 0.170184,-0.06867 0.448665,-0.06867 0.618849,0 0.170183,0.068671 0.03094,0.1248554 -0.309425,0.1248554 -0.340366,0 -0.479607,-0.056185 -0.309424,-0.1248554 z m 89.114181,0 c 0.17018,-0.06867 0.44866,-0.06867 0.61885,0 0.17018,0.068671 0.0309,0.1248554 -0.30943,0.1248554 -0.34036,0 -0.47961,-0.056185 -0.30942,-0.1248554 z M 84.866255,5.1243426 c 0.170183,-0.06867 0.448665,-0.06867 0.618848,0 0.170184,0.068671 0.03094,0.1248554 -0.309424,0.1248554 -0.340367,0 -0.479607,-0.056185 -0.309424,-0.1248554 z m 85.529565,-0.0076 c 0.24085,-0.062762 0.57503,-0.058634 0.74262,0.00917 0.16759,0.067807 -0.0295,0.1191576 -0.4379,0.1141127 -0.40844,-0.00504 -0.54557,-0.060523 -0.30472,-0.123285 z M 86.84657,4.8768032 c 0.170183,-0.06867 0.448665,-0.06867 0.618848,0 0.170184,0.068671 0.03094,0.1248554 -0.309424,0.1248554 -0.340366,0 -0.479607,-0.056185 -0.309424,-0.1248554 z m 81.56894,-0.0076 c 0.24085,-0.062762 0.57502,-0.058634 0.74262,0.00917 0.16759,0.067807 -0.0295,0.1191576 -0.43791,0.1141127 -0.40844,-0.00504 -0.54556,-0.060523 -0.30471,-0.123285 z M 88.955365,4.621662 c 0.240849,-0.062762 0.575027,-0.058635 0.742619,0.00917 0.167591,0.067807 -0.02947,0.1191575 -0.437905,0.1141127 -0.40844,-0.00504 -0.545562,-0.060523 -0.304714,-0.123285 z m 77.479825,0 c 0.24085,-0.062762 0.57503,-0.058635 0.74262,0.00917 0.16759,0.067807 -0.0295,0.1191575 -0.4379,0.1141127 -0.40844,-0.00504 -0.54557,-0.060523 -0.30472,-0.123285 z M 91.05474,4.3817245 c 0.170183,-0.06867 0.448665,-0.06867 0.618848,0 0.170183,0.068671 0.03094,0.1248554 -0.309424,0.1248554 -0.340367,0 -0.479608,-0.056185 -0.309424,-0.1248554 z m 73.1526,-0.0076 c 0.24085,-0.062762 0.57502,-0.058635 0.74262,0.00917 0.16759,0.067807 -0.0295,0.1191575 -0.43791,0.1141127 -0.40844,-0.00504 -0.54556,-0.060523 -0.30471,-0.123285 z M 93.411074,4.1265832 c 0.240849,-0.062762 0.575027,-0.058635 0.742619,0.00917 0.167591,0.067807 -0.02947,0.1191575 -0.437905,0.1141127 -0.40844,-0.00504 -0.545562,-0.060523 -0.304714,-0.123285 z m 68.568406,0 c 0.24085,-0.062762 0.57503,-0.058635 0.74262,0.00917 0.16759,0.067807 -0.0295,0.1191575 -0.4379,0.1141127 -0.40844,-0.00504 -0.54556,-0.060523 -0.30472,-0.123285 z M 95.634218,3.8799511 c 0.238257,-0.062263 0.628131,-0.062263 0.866388,0 0.238257,0.062263 0.04332,0.1132054 -0.433194,0.1132054 -0.476513,0 -0.671451,-0.050943 -0.433194,-0.1132054 z m 63.869872,-9.085e-4 c 0.24085,-0.062762 0.57503,-0.058634 0.74262,0.00917 0.16759,0.067807 -0.0295,0.1191575 -0.43791,0.1141127 -0.40844,-0.00504 -0.54556,-0.060523 -0.30471,-0.123285 z M 98.357151,3.6324117 c 0.238257,-0.062263 0.628132,-0.062263 0.866388,0 0.238257,0.062263 0.04332,0.1132054 -0.433194,0.1132054 -0.476513,0 -0.67145,-0.050943 -0.433194,-0.1132054 z m 58.419299,0 c 0.23825,-0.062263 0.62813,-0.062263 0.86638,0 0.23826,0.062263 0.0433,0.1132054 -0.43319,0.1132054 -0.47651,0 -0.67145,-0.050943 -0.43319,-0.1132054 z M 101.32762,3.3848723 c 0.23826,-0.062263 0.62814,-0.062263 0.86639,0 0.23826,0.062263 0.0433,0.1132054 -0.43319,0.1132054 -0.47652,0 -0.67145,-0.050943 -0.4332,-0.1132054 z m 52.35747,-0.00444 c 0.30792,-0.05921 0.75349,-0.056962 0.99016,0.005 0.23667,0.061957 -0.0153,0.1104015 -0.55985,0.107654 -0.54459,-0.00275 -0.73823,-0.05344 -0.43031,-0.1126496 z m -49.0128,-0.2475394 c 0.30792,-0.05921 0.75349,-0.056962 0.99016,0.005 0.23667,0.061957 -0.0153,0.1104015 -0.55985,0.107654 -0.54459,-0.00275 -0.73822,-0.05344 -0.43031,-0.1126496 z m 45.79479,0 c 0.30791,-0.05921 0.75349,-0.056962 0.99016,0.005 0.23667,0.061957 -0.0153,0.1104015 -0.55985,0.107654 -0.54459,-0.00275 -0.73823,-0.05344 -0.43031,-0.1126496 z M 108.50967,2.8827991 c 0.37627,-0.056898 0.93324,-0.055378 1.2377,0.00338 0.30446,0.058756 -0.003,0.1053093 -0.68414,0.1034509 -0.68073,-0.00186 -0.92983,-0.049932 -0.55356,-0.1068298 z m 37.62258,3.284e-4 c 0.37441,-0.056717 0.98707,-0.056717 1.36147,0 0.3744,0.056717 0.0681,0.1031225 -0.68073,0.1031225 -0.74881,0 -1.05514,-0.046405 -0.68074,-0.1031225 z M 113.33328,2.6338204 c 0.44248,-0.054911 1.16653,-0.054911 1.60901,0 0.44248,0.054911 0.0804,0.099838 -0.8045,0.099838 -0.88496,0 -1.24698,-0.044927 -0.80451,-0.099838 z m 27.72442,0 c 0.44247,-0.054911 1.16652,-0.054911 1.609,0 0.44248,0.054911 0.0805,0.099838 -0.8045,0.099838 -0.88496,0 -1.24698,-0.044927 -0.8045,-0.099838 z M 123.85371,2.3801153 c 2.28045,-0.040851 6.01211,-0.040851 8.29257,0 2.28045,0.040852 0.41463,0.074275 -4.14629,0.074275 -4.56091,0 -6.42674,-0.033424 -4.14628,-0.074275 z"
         id="path1792"
         inkscape:connector-curvature="0" />
      <path
         style="fill:#ffccaa;stroke-width:0.24753939;fill-opacity:1"
         d="m 164.88336,187.98921 c 0,-14.30619 0.0647,-18.08667 0.30943,-18.08455 0.17018,0.001 0.86638,0.17354 1.54712,0.38235 3.20903,0.9844 10.11007,2.846 10.30697,2.78036 0.1214,-0.0405 -0.9653,-1.40974 -2.41487,-3.04283 -3.13359,-3.5303 -6.18938,-7.31154 -8.25054,-10.20921 l -1.49811,-2.10611 v -19.77078 -19.77077 l 0.92827,-1.04078 c 0.51055,-0.57243 2.36256,-2.60566 4.11557,-4.51831 6.94387,-7.57615 9.15721,-11.28843 9.68365,-16.241694 0.67837,-6.382773 -3.32957,-14.193322 -11.69094,-22.782919 l -3.03655,-3.119432 V 41.218191 c 0,-24.746499 0.0527,-29.246344 0.3427,-29.246344 2.0557,0 17.5993,2.498346 24.90375,4.002818 7.47643,1.539894 22.9333,5.515171 23.49118,6.041584 0.0529,0.0499 -0.46308,1.347037 -1.1466,2.882535 -4.53991,10.198877 -4.32169,17.574454 0.66487,22.471197 1.81306,1.780409 3.77238,2.869145 6.708,3.727438 2.33843,0.683691 8.69718,0.936783 12.31493,0.490163 3.22793,-0.398497 7.66587,-1.343409 11.2982,-2.405581 1.64296,-0.480434 3.18214,-0.930585 3.42039,-1.000331 0.41012,-0.120057 0.43307,0.966059 0.4308,20.385943 -0.001,11.282017 -0.11496,22.406432 -0.25255,24.720926 -1.21234,20.394361 -7.00173,37.992951 -17.86691,54.311841 -9.75375,14.6496 -23.23985,28.01666 -44.1343,43.74477 -3.29695,2.48175 -16.55871,12.17878 -19.36996,14.16336 l -0.8045,0.56794 z"
         id="path1790"
         inkscape:connector-curvature="0" />
      <path
         style="fill:#ff8080;stroke-width:0.24753939;fill-opacity:1"
         d="m 171.93823,171.62735 c -34.97817,-9.9509 -54.93818,-19.25104 -59.54126,-27.74258 -0.7992,-1.47433 -0.85823,-1.73694 -0.85657,-3.81129 0.002,-2.38387 0.34352,-3.38048 1.71917,-5.01535 0.34687,-0.41223 0.63068,-0.80909 0.63068,-0.88189 0,-0.0728 -0.64051,-0.2593 -1.42335,-0.41443 -10.78688,-2.13759 -20.379263,-6.44709 -25.32686,-11.37841 -2.68324,-2.67442 -3.573367,-4.34604 -3.573367,-6.71062 0,-2.15193 0.718203,-3.28782 2.754985,-4.35722 2.178428,-1.14378 3.70134,-1.41194 7.889209,-1.38919 4.10694,0.0223 8.644363,0.69549 13.614663,2.01989 1.49762,0.39906 2.75701,0.69313 2.79865,0.6535 0.0417,-0.0396 -2.40899,-1.34936 -5.44586,-2.9105 C 89.35281,101.55399 78.433206,94.339863 71.552584,87.474145 66.302593,82.235526 64.47675,77.990485 66.345036,75.366718 c 2.068615,-2.9051 9.123547,-3.321439 19.031705,-1.123135 5.0493,1.120279 16.264119,4.982411 22.597039,7.781916 1.53272,0.677547 2.82539,1.193278 2.87259,1.146067 0.0472,-0.04721 -1.44861,-1.234848 -3.32404,-2.639193 C 103.33169,77.394383 98.092094,73.244647 93.344479,69.303585 74.256056,53.458014 60.966748,37.928734 58.647831,28.758667 c -0.878294,-3.47318 -0.255629,-5.586377 1.968899,-6.682026 1.041326,-0.512887 1.498455,-0.572214 4.26072,-0.55297 3.534342,0.02462 6.157319,0.443354 11.617399,1.854592 9.56212,2.47147 22.085432,7.297742 35.910161,13.839166 18.09004,8.559633 35.42895,19.236747 47.7751,29.419389 3.76283,3.103436 10.87433,10.262214 12.88062,12.966233 4.70967,6.347583 6.62475,11.261822 6.34612,16.284651 -0.27505,4.958408 -2.50289,8.929598 -8.92172,15.903218 -8.76056,9.51775 -11.20963,13.06374 -12.79196,18.52141 -0.75266,2.59601 -0.93561,7.73596 -0.38039,10.6872 1.60612,8.53727 8.04319,19.23241 18.13731,30.13499 0.89454,0.96619 1.58425,1.78923 1.53268,1.82899 -0.0516,0.0397 -2.3216,-0.56152 -5.04454,-1.33616 z m -19.0347,-25.79857 c -0.33764,-0.57863 -5.07476,-8.90179 -10.52694,-18.49593 -7.5007,-13.19888 -9.83065,-17.48999 -9.57442,-17.63339 0.18625,-0.10423 8.23262,-3.13131 17.88081,-6.72685 9.64819,-3.595538 17.92556,-6.693912 18.39416,-6.885275 l 0.85199,-0.347929 -11.99127,-8.266741 C 141.31606,76.013643 95.857816,44.692206 94.953485,44.075447 l -0.742618,-0.506469 0.518558,0.60092 c 0.285207,0.330504 8.844795,10.216909 19.021315,21.969787 10.17651,11.752876 18.45708,21.414534 18.40126,21.470349 -0.0558,0.05581 -8.00274,0.900497 -17.65984,1.877069 -9.6571,0.976573 -17.647568,1.852761 -17.7566,1.947083 -0.173277,0.149905 56.32966,55.446634 56.65611,55.446634 0.0692,0 -0.1505,-0.47342 -0.48814,-1.05204 z"
         id="path1786"
         inkscape:connector-curvature="0" />
      <path
         style="fill:#ffeeaa;stroke-width:0.24753939;fill-opacity:1"
         d="m 125.79414,248.6921 c -4.69845,-7.52187 -9.97632,-13.412 -18.835,-21.01996 -5.31736,-4.56663 -11.445194,-9.23658 -25.620321,-19.52495 C 70.627911,200.37317 62.883074,194.56641 57.769299,190.47573 35.782371,172.88764 21.809614,156.56118 12.787956,137.9173 6.7127973,125.36257 3.5429032,113.97807 1.835358,98.581651 1.5036901,95.5911 1.4235321,90.419901 1.3344877,66.269217 l -0.10601,-28.752097 3.2955719,1.230355 c 10.6049154,3.95919 17.8752624,5.670554 24.2126494,5.699404 8.674818,0.03949 11.73689,-2.860038 10.309486,-9.762233 -0.788678,-3.813639 -2.461361,-7.663452 -5.832907,-13.424889 -1.076551,-1.839655 -1.88368,-3.38833 -1.79362,-3.441498 0.38755,-0.2288 10.36478,-3.412275 13.530871,-4.317351 19.581437,-5.5976542 38.89325,-8.8015242 63.246311,-10.4926946 6.19177,-0.4299801 33.14284,-0.4320433 39.35876,-0.00301 21.45411,1.4807865 37.46474,3.8808464 55.07752,8.2563466 7.86927,1.954944 21.90723,6.255535 21.90723,6.711376 0,0.120707 -0.76598,1.521119 -1.70219,3.112026 -3.25436,5.530179 -5.1102,9.740234 -5.82615,13.216892 -1.49666,7.267725 1.36806,10.174963 10.00374,10.152222 6.42271,-0.01691 13.74352,-1.730083 24.47783,-5.728136 l 3.24658,-1.20921 -0.004,24.915437 c -0.004,24.905537 -0.16983,32.234969 -0.86381,38.282563 -2.42665,21.14686 -9.84661,39.70059 -22.7689,56.93406 -4.05026,5.40152 -8.49695,10.48388 -13.98338,15.98233 -10.56381,10.58696 -20.40736,18.56501 -43.20106,35.01382 -27.01686,19.49639 -35.95604,27.66819 -43.68371,39.9337 -1.1358,1.80277 -2.13114,3.31578 -2.21186,3.36224 -0.0807,0.0465 -1.0837,-1.41548 -2.22884,-3.24877 z m 4.17624,-12.11878 c 3.77384,-4.81645 10.89013,-11.68181 18.46049,-17.80957 3.78462,-3.06342 14.64421,-11.21027 23.38359,-17.54233 13.96767,-10.12018 23.73315,-17.68639 30.69489,-23.78216 4.1695,-3.65085 12.37676,-11.7265 15.5847,-15.33477 15.1952,-17.09148 24.28219,-35.4753 27.71382,-56.06767 1.32972,-7.979274 1.32586,-7.888254 1.43366,-33.826637 l 0.10098,-24.296371 -3.29416,0.976481 c -14.50004,4.298203 -25.26449,3.74869 -30.80607,-1.572615 -2.69483,-2.587708 -3.80655,-5.529805 -3.79647,-10.047112 0.008,-3.754204 1.12614,-7.969456 3.45808,-13.04093 0.5515,-1.199398 0.95472,-2.228737 0.89604,-2.28742 -0.0587,-0.05868 -1.59269,-0.545529 -3.4089,-1.081881 -18.74506,-5.535672 -39.32499,-9.030811 -62.83543,-10.671492 -6.26586,-0.4372643 -32.61359,-0.4339227 -39.11122,0.005 -5.84825,0.395021 -14.585403,1.18326 -16.956447,1.52976 -0.953026,0.139274 -3.849237,0.534795 -6.436024,0.878937 -10.206625,1.357871 -20.033352,3.231228 -29.828495,5.68647 -5.128462,1.285496 -12.819288,3.44918 -13.03818,3.66807 -0.05832,0.05832 0.41004,1.254289 1.04079,2.657715 2.33789,5.201835 3.333511,9.068769 3.333511,12.947186 0,3.993276 -1.055879,6.821384 -3.537041,9.473754 -1.196563,1.27913 -1.952303,1.820197 -3.746095,2.681988 -3.329343,1.599515 -5.366619,1.985944 -10.41593,1.975691 -2.853563,-0.0058 -5.084679,-0.152648 -6.931103,-0.456205 -2.968098,-0.487967 -9.602887,-2.092938 -11.854767,-2.8677 L 8.6614231,47.883266 8.748433,72.19491 c 0.094443,26.388689 0.072278,25.903034 1.583928,34.70452 4.144781,24.13272 16.348044,45.48664 37.226664,65.1412 9.001094,8.47338 17.968941,15.62581 36.502727,29.11326 18.757148,13.64999 25.062478,18.58122 32.472088,25.39557 3.50982,3.22784 7.46979,7.44412 9.85715,10.49511 0.81688,1.04397 1.54093,1.89528 1.609,1.89182 0.0681,-0.003 0.95475,-1.06684 1.97039,-2.36307 z M 170.32923,111.8843 c 0,-0.0514 0.19493,-0.24634 0.43319,-0.43319 0.39261,-0.30791 0.40137,-0.29915 0.0935,0.0935 -0.32338,0.41234 -0.52665,0.54347 -0.52665,0.33973 z m -3.21801,-38.893992 c -0.60129,-0.61266 -1.03755,-1.113927 -0.96947,-1.113927 0.0681,0 0.61572,0.501267 1.217,1.113927 0.60129,0.61266 1.03755,1.113927 0.96947,1.113927 -0.0681,0 -0.61572,-0.501267 -1.217,-1.113927 z"
         id="path1784"
         inkscape:connector-curvature="0" />
    </g>
  </g>
</svg>
