<?xml version="1.0" encoding="UTF-8" standalone="no"?>
<!-- Created with Inkscape (http://www.inkscape.org/) -->

<svg
   xmlns:dc="http://purl.org/dc/elements/1.1/"
   xmlns:cc="http://creativecommons.org/ns#"
   xmlns:rdf="http://www.w3.org/1999/02/22-rdf-syntax-ns#"
   xmlns:svg="http://www.w3.org/2000/svg"
   xmlns="http://www.w3.org/2000/svg"
   xmlns:sodipodi="http://sodipodi.sourceforge.net/DTD/sodipodi-0.dtd"
   xmlns:inkscape="http://www.inkscape.org/namespaces/inkscape"
   viewBox="0 0 256 256"
   version="1.1"
   id="svg953"
   inkscape:version="0.92.4 (5da689c313, 2019-01-14)"
   sodipodi:docname="spoon_cutie.svg">
  <defs
     id="defs947" />
  <sodipodi:namedview
     id="base"
     pagecolor="#ffffff"
     bordercolor="#666666"
     borderopacity="1.0"
     inkscape:pageopacity="0.0"
     inkscape:pageshadow="2"
     inkscape:zoom="2.8"
     inkscape:cx="52.842154"
     inkscape:cy="173.66155"
     inkscape:document-units="px"
     inkscape:current-layer="layer6"
     showgrid="false"
     units="px"
     inkscape:pagecheckerboard="true"
     inkscape:window-width="1920"
     inkscape:window-height="1027"
     inkscape:window-x="1592"
     inkscape:window-y="-8"
     inkscape:window-maximized="1"
     inkscape:snap-nodes="false" />
  <metadata
     id="metadata950">
    <rdf:RDF>
      <cc:Work
         rdf:about="">
        <dc:format>image/svg+xml</dc:format>
        <dc:type
           rdf:resource="http://purl.org/dc/dcmitype/StillImage" />
        <dc:title></dc:title>
      </cc:Work>
    </rdf:RDF>
  </metadata>
  <g
     inkscape:groupmode="layer"
     id="layer6"
     inkscape:label="Layer 2">
    <path
       style="fill:#ffaaaa;stroke:none;stroke-width:1px;stroke-linecap:butt;stroke-linejoin:miter;stroke-opacity:1;fill-opacity:1"
       d="M 24.821429,51.357142 42.142857,57.785714 44.285714,49.392857 55,31.357142 63.928572,21 l 10.535714,-3.214286 8.214286,1.607143 7.142857,6.428571 4.642857,10 -2.321429,15 L 88.75,69.392857 98.035714,65.107142 105.35714,66 l 3.39286,5.892857 -0.53571,11.25 -6.60715,13.392857 11.42857,17.321426 18.92858,18.39286 29.02877,19.07294 10.35407,3.40927 15.02601,-5.55584 15.90991,-3.03046 20.32932,7.32361 18.68782,17.67767 10.73287,22.60216 1.51523,17.17259 -6.06092,12.37437 -13.25825,9.84899 -25.00127,2.0203 -21.33948,-6.69226 -14.52094,-11.36421 -8.20749,-15.02602 -3.6618,-16.16244 -2.14658,-11.74303 -11.36421,-15.53109 -17.29886,-15.27856 -32.451155,-13.51079 -19.571705,-3.283 -6.187185,10.48034 -11.364216,5.3033 -7.071068,-3.15673 -2.904188,-6.43972 -0.252538,-9.34391 -6.944799,2.90419 -13.005714,8.58629 -12.500638,2.90419 L 8.4600276,130.23601 3.5355339,116.97776 4.5456865,103.84577 7.323606,96.269629 15.657364,87.809601 30.809653,80.233457 22.349625,67.227743 16.28871,54.09576 18.814091,50.939033 Z"
       id="path1649"
       inkscape:connector-curvature="0" />
    <ellipse
       style="opacity:1;fill:#ffffff;fill-opacity:1;stroke:none;stroke-width:1.55716538;stroke-miterlimit:4;stroke-dasharray:none;stroke-opacity:1"
       id="path1651"
       cx="60.482883"
       cy="66.785805"
       rx="3.9143412"
       ry="3.9774756" />
    <ellipse
       style="opacity:1;fill:#ffffff;fill-opacity:1;stroke:none;stroke-width:1.55716538;stroke-miterlimit:4;stroke-dasharray:none;stroke-opacity:1"
       id="path1653"
       cx="43.499695"
       cy="87.11512"
       rx="4.1037445"
       ry="4.7350903" />
    <g
       id="g1633"
       transform="translate(1.0714313)">
      <path
         style="fill:#ff8080;fill-opacity:1;stroke-width:1.10296845"
         d="m 205.32491,236.97286 c -10.08433,-1.10358 -20.33081,-7.10308 -27.80288,-12.72121 -6.37145,-4.94787 -12.23919,-13.38275 -14.52625,-20.8815 -2.99565,-9.822 -4.13317,-15.16845 -4.07799,-19.16679 0.10699,-7.75106 -3.9316,-14.8361 -13.85452,-24.30559 -11.21751,-10.70491 -18.50798,-15.90106 -29.27861,-20.8678 -8.82601,-4.65435 -34.093151,-12.66563 -38.116582,-7.64237 -6.945676,15.18644 -27.621675,18.93766 -28.597962,0.132 -0.135008,-4.71386 -3.190477,-6.19471 -6.454574,-3.12825 -8.579958,5.73716 -20.682694,12.96459 -27.625205,10.03078 C 8.5983581,134.42775 2.5163957,126.67285 2.0845888,119.78557 -0.29682138,108.21921 2.8542899,96.597448 10.683221,89.536986 c 4.012032,-3.61822 13.62372,-7.917384 18.681302,-9.814905 1.568981,-0.588655 -0.528037,1.474609 0.761909,0.764743 -3.284844,4.125869 -24.0515147,10.241125 -25.2755688,24.623486 -1.0848603,12.74686 -0.2735943,20.94021 7.1629228,27.19763 7.098976,5.97339 13.071422,4.88315 28.33477,-5.17239 16.585692,-10.9267 24.107967,-11.32213 27.855907,-1.4643 1.734304,4.56157 -2.005903,10.55211 -6.645993,10.64464 -4.675404,0.0932 -7.296432,-8.85278 -2.842536,-9.70204 1.560486,-0.29755 1.934326,0.19836 1.654453,2.19467 -0.275384,1.9643 0.164265,2.57908 1.844363,2.57908 5.214995,-4.21461 0.456677,-10.64046 -4.358018,-8.49749 -4.509179,2.05452 -6.635718,6.33872 -5.469104,11.01823 5.319841,13.90297 20.055788,1.77677 21.958093,-6.53574 1.130169,-6.02432 -1.130558,-12.75431 -4.947432,-14.7281 -6.018664,-3.11237 -13.005451,-1.74238 -27.898665,5.47045 -13.627375,6.59978 -20.900472,5.28098 -25.262803,-4.5808 -4.501756,-10.17696 2.178108,-23.22574 12.921342,-25.241182 5.00094,-0.938182 4.83621,-2.782773 -0.583952,-6.538949 -4.460663,-3.548232 -15.477115,-22.780461 -14.704238,-26.846582 0.509155,-1.947009 2.230941,-6.490585 3.253297,-1.483533 1.374656,6.732472 15.850875,25.070182 19.250758,26.149264 1.157059,0.367236 3.212064,-0.108598 4.566677,-1.057403 1.354611,-0.948807 3.345165,-1.725104 4.42345,-1.725104 1.635192,0 1.96052,-0.982324 1.96052,-5.919758 0,-5.655028 -0.191581,-6.04654 -4.284056,-8.754812 -6.196744,-4.100812 -20.642798,-10.069908 -25.62456,-9.154349 -2.307074,0.424 -1.787152,-2.147543 -0.788329,-2.780728 7.781554,-3.777683 17.633916,4.119582 23.625342,3.158679 1.955265,-0.373772 3.046437,0.01437 3.520251,1.252187 1.335394,3.488661 7.860029,7.419794 8.011578,4.827026 0.02659,-0.454974 0.150678,-3.593513 0.275742,-6.974532 0.443247,-11.982796 9.425132,-20.393667 18.783882,-17.589717 10.16629,3.045895 12.650219,9.808024 10.160308,27.65993 -2.426654,17.39837 -0.729917,27.345499 5.186333,30.404911 6.680356,3.454546 14.653474,-0.200699 18.032694,-8.267014 1.65528,-3.951215 2.06541,-12.014894 0.71403,-14.038774 -1.18487,-1.774501 -5.298454,-3.749766 -7.809075,-3.749766 -2.520216,0 -7.891337,5.896312 -7.891337,8.662956 0,5.616187 7.861107,9.34325 9.41047,4.461638 0.817656,-2.576206 -1.569533,-5.93206 -2.47096,-3.473619 -0.580391,1.582883 -3.630605,1.890333 -3.630605,0.36595 0,-4.208037 5.530383,-6.251291 8.603157,-3.17852 3.60989,3.609891 -0.73361,13.015029 -6.010633,13.015029 -1.582346,0 -4.139355,-1.377144 -5.986273,-3.224062 -2.802483,-2.802483 -3.224062,-4.038809 -3.224062,-9.454907 0,-3.426965 1.285003,-11.778771 2.855561,-18.559568 4.287614,-18.511528 2.26357,-24.749204 -5.359649,-32.019466 -5.95012,-5.674628 -13.87578,-4.158591 -20.220749,-0.617895 -7.791902,4.348131 -22.057909,34.42813 -22.664542,34.651984 -0.460078,0.169773 0.870584,-7.567279 5.986108,-16.362493 5.462707,-9.392133 14.815414,-19.940811 17.021607,-21.722071 11.418705,-6.592592 24.827893,-0.642077 29.536157,9.537328 5.490494,13.291964 -2.40773,22.653079 -2.742619,33.019451 1.817751,7.736843 7.569476,-0.707206 13.392814,1.654471 5.04433,2.089429 6.46062,5.033733 6.46062,13.430894 0,7.304421 -0.72423,9.629069 -4.68762,15.046351 -4.3358,5.926316 -1.16118,11.557645 16.82027,29.836815 9.56157,9.1333 36.57567,30.08732 47.19104,30.964 12.37401,-2.53072 24.76119,-9.97654 36.31128,-7.62792 20.26131,6.05668 35.1104,20.05539 42.84221,36.08081 8.81794,17.0826 8.04762,36.18496 -3.54363,46.68364 -1.11422,0.96545 -5.07962,3.35823 -8.81198,5.31729 -7.16,3.75814 -13.66482,4.51814 -30.99054,3.62083 z m 24.18513,-5.80246 c 6.00156,-1.66691 14.17086,-7.587 17.9685,-13.02134 3.06023,-4.37913 3.32535,-5.4734 3.126,-12.90275 -0.52602,-19.60313 -16.74129,-43.93234 -34.96418,-52.45986 -12.81901,-5.99874 -26.19913,-5.41811 -40.34633,1.75082 l -5.03256,2.5502 -6.04424,-2.47512 c -23.85477,-9.76854 -43.28271,-25.10703 -57.92174,-45.72961 l -6.579812,-9.269249 -7.501989,-0.105988 c -8.167748,-0.115393 -7.933481,-0.42826 -5.050845,6.745467 0.782931,1.94841 1.105832,3.86024 0.717558,4.24851 -0.388276,0.38828 -3.251942,-0.13969 -6.363704,-1.17325 -3.111762,-1.03356 -5.876396,-1.66055 -6.143632,-1.39332 -0.267238,0.26724 0.466182,2.42724 1.629821,4.8 1.163638,2.37275 2.531196,5.74232 3.039017,7.48793 0.866874,2.97982 1.766029,3.4023 14.710416,6.9119 20.56115,5.57471 34.13189,12.68266 46.27285,24.23636 5.33335,5.07536 11.79141,11.94271 14.35127,15.26076 4.13024,5.35356 4.77436,6.99996 5.72067,14.62225 1.33192,10.72824 5.51436,23.37634 9.78035,29.57676 6.25244,9.08761 17.19919,16.46362 29.41937,19.82304 6.42387,1.76598 23.61994,2.07 29.21321,0.51649 z m -55.04228,-32.61959 c -0.46926,-1.14843 -0.84468,-6.55508 -0.83427,-12.01478 0.0155,-8.11381 0.46685,-10.77114 2.4715,-14.55044 2.8828,-5.4348 7.93307,-9.56661 14.54426,-11.89916 9.20176,-3.24658 12.64052,-1.00154 4.08393,2.66625 -6.63603,2.84453 -12.82355,8.56146 -15.28245,14.12013 -1.28372,2.902 -2.2197,8.05648 -2.46764,13.58939 -0.4199,9.3698 -1.09923,11.55433 -2.51533,8.08861 z M 40.080927,115.01904 c 6.473734,-2.96378 7.941781,-5.13932 3.467984,-5.13932 -1.470038,0 -4.172657,-1.26205 -6.005819,-2.80456 -2.803768,-2.35921 -3.669716,-2.59429 -5.453363,-1.48038 -2.710283,1.6926 -5.512814,0.61498 -6.720588,-2.58417 -1.130665,-2.9949 0.358508,-6.366515 2.811963,-6.366515 1.300137,0 1.561691,0.691381 1.043148,2.757421 -0.853604,3.401034 1.427634,3.740124 4.241784,0.630524 2.284646,-2.524502 1.50121,-6.149244 -1.699279,-7.862093 -3.024411,-1.618615 -5.801755,-0.47437 -9.742427,4.013809 -8.706463,18.003054 1.647512,26.219634 18.056596,18.835284 z m 4.893189,-27.575919 c 0.675649,-0.814107 0.919331,-1.789316 0.541515,-2.167131 -0.896697,-0.896698 -4.808767,1.204779 -4.808767,2.583163 0,1.570482 2.849123,1.292709 4.267252,-0.416032 z M 62.090281,66.239093 c 0.318786,-0.830742 0.07368,-1.823126 -0.544688,-2.205296 -1.314267,-0.812262 -5.594955,2.720772 -4.818578,3.976977 0.781218,1.264037 4.694393,-0.02862 5.363266,-1.771681 z M 78.130271,53.81922 c 0.07367,-8.727856 -0.08272,-9.344576 -3.14654,-12.408396 -3.891988,-3.891988 -8.667942,-4.234379 -13.906218,-0.996946 -6.488928,4.010378 -8.826072,14.950425 -3.771759,17.655412 3.053465,1.634164 4.14119,1.326411 6.150497,-1.740181 2.240287,-3.419109 0.575445,-6.227071 -2.284672,-3.853383 -2.433386,2.019531 -3.733414,-1.712815 -1.406941,-4.039289 2.778757,-2.778756 7.084932,-1.027519 8.017721,3.26065 0.428989,1.972128 2.161907,5.166166 3.850926,7.097863 1.68902,1.931697 3.436352,4.661545 3.882958,6.066327 0.780301,2.454402 0.845687,2.468 1.674259,0.348214 0.474235,-1.213265 0.897131,-6.338887 0.939769,-11.390271 z"
         id="path1643"
         inkscape:connector-curvature="0"
         sodipodi:nodetypes="ccccsccccccsscsssscsscccccsssccsscssssccscssssscsssssssssssscsccccsccccccccssssccsscsccscccscssccsccccccccssccsssssccscsscsscsssssssssssss" />
      <path
         style="fill:#ffccaa;fill-opacity:1;stroke-width:1.10296845"
         d="m 43.195341,109.90751 c -6.596783,-1.56606 -9.889339,-5.92617 -7.851936,-10.397781 1.021925,-2.24288 0.917105,-3.30546 -0.54641,-5.539068 -0.996001,-1.520088 -1.81091,-3.524334 -1.81091,-4.453879 0,-2.477591 7.58793,-10.45965 11.435726,-12.029714 2.995338,-1.222224 3.326822,-1.853013 3.414104,-6.496779 0.06413,-3.411978 0.880849,-6.178576 2.42642,-8.219383 2.070809,-2.734342 2.91878,-3.036988 7.629309,-2.722942 4.445618,0.296386 5.601864,-0.04746 7.175684,-2.133922 1.807329,-2.39603 1.981027,-2.418506 4.736688,-0.612927 4.046366,2.651281 6.901752,8.885862 9.516002,20.777677 2.570473,11.692676 5.701035,22.967648 7.822727,28.174178 0.793985,1.94841 1.125931,3.86024 0.737657,4.24851 -0.388276,0.38828 -3.159191,-0.10888 -6.157591,-1.10479 -4.994456,-1.65889 -6.404182,-1.66831 -16.810252,-0.11237 -12.246721,1.83116 -16.15627,1.94334 -21.717218,0.62319 z m 1.778775,-22.464389 c 0.675649,-0.814107 0.919331,-1.789316 0.541515,-2.167131 -0.896697,-0.896698 -4.808767,1.204779 -4.808767,2.583163 0,1.570482 2.849123,1.292709 4.267252,-0.416032 z M 62.090281,66.239093 c 0.318786,-0.830742 0.07368,-1.823126 -0.544688,-2.205296 -1.314267,-0.812262 -5.594955,2.720772 -4.818578,3.976977 0.781218,1.264037 4.694393,-0.02862 5.363266,-1.771681 z"
         id="path1637"
         inkscape:connector-curvature="0" />
    </g>
  </g>
</svg>
