<?xml version="1.0" encoding="UTF-8" standalone="no"?>
<!-- Created with Inkscape (http://www.inkscape.org/) -->

<svg
   xmlns:dc="http://purl.org/dc/elements/1.1/"
   xmlns:cc="http://creativecommons.org/ns#"
   xmlns:rdf="http://www.w3.org/1999/02/22-rdf-syntax-ns#"
   xmlns:svg="http://www.w3.org/2000/svg"
   xmlns="http://www.w3.org/2000/svg"
   xmlns:sodipodi="http://sodipodi.sourceforge.net/DTD/sodipodi-0.dtd"
   xmlns:inkscape="http://www.inkscape.org/namespaces/inkscape"
   viewBox="0 0 256 256"
   version="1.1"
   id="svg953"
   inkscape:version="0.92.4 (5da689c313, 2019-01-14)"
   sodipodi:docname="sweetie_cutie.svg">
  <defs
     id="defs947" />
  <sodipodi:namedview
     id="base"
     pagecolor="#ffffff"
     bordercolor="#666666"
     borderopacity="1.0"
     inkscape:pageopacity="0.0"
     inkscape:pageshadow="2"
     inkscape:zoom="4"
     inkscape:cx="127.43943"
     inkscape:cy="143.32903"
     inkscape:document-units="px"
     inkscape:current-layer="layer8"
     showgrid="false"
     units="px"
     inkscape:pagecheckerboard="true"
     inkscape:window-width="1920"
     inkscape:window-height="1027"
     inkscape:window-x="1592"
     inkscape:window-y="-8"
     inkscape:window-maximized="1"
     inkscape:snap-nodes="false" />
  <metadata
     id="metadata950">
    <rdf:RDF>
      <cc:Work
         rdf:about="">
        <dc:format>image/svg+xml</dc:format>
        <dc:type
           rdf:resource="http://purl.org/dc/dcmitype/StillImage" />
        <dc:title></dc:title>
      </cc:Work>
    </rdf:RDF>
  </metadata>
  <g
     inkscape:groupmode="layer"
     id="layer8"
     inkscape:label="Layer 4">
    <g
       id="g1754"
       transform="translate(-0.35714118)">
      <path
         style="fill:#ffeeaa;stroke-width:0.06111975;fill-opacity:1"
         d="m 126.71331,249.63469 c -2.51904,-4.03049 -2.99609,-4.74958 -4.37628,-6.59671 -2.1684,-2.90201 -4.41291,-5.4549 -7.60041,-8.64465 -2.89501,-2.89706 -5.57766,-5.33512 -9.13061,-8.29817 -5.54725,-4.62622 -11.010619,-8.76775 -23.112844,-17.52082 C 70.785757,200.10684 66.702072,197.07353 60.398376,192.16262 53.257435,186.59945 45.992408,180.31305 40.69269,175.11135 35.216828,169.73677 31.262282,165.39933 27.235278,160.35093 18.756606,149.72176 12.370321,138.44349 8.1005755,126.55878 5.0581335,118.09023 3.0692789,109.38971 2.0320936,100.01137 1.7349914,97.324944 1.5475166,94.843653 1.3474166,90.949451 1.2542605,89.136511 1.197727,36.858469 1.2889226,36.858469 c 0.03349,0 1.5545257,0.553371 3.3800787,1.229714 4.9095574,1.818923 6.8684357,2.477087 10.0423597,3.374132 8.008656,2.263483 14.616606,2.946364 18.999104,1.963409 2.156503,-0.483684 3.743339,-1.369858 4.598252,-2.567911 1.993015,-2.792961 1.180273,-8.106368 -2.327269,-15.214818 -0.837045,-1.696371 -1.590401,-3.047119 -3.408459,-6.111283 l -1.377627,-2.321857 3.034594,-1.027943 C 42.800607,13.278679 49.819451,11.28889 58.748143,9.2311947 74.705355,5.5537153 93.259001,3.0384471 110.79161,2.1758014 c 1.00848,-0.049619 2.14989,-0.1058181 2.53647,-0.1248859 2.26842,-0.1118882 6.16791,-0.2202948 10.22648,-0.2842984 5.98541,-0.09439 14.1921,0.025286 19.47772,0.2840382 5.51358,0.269912 7.16421,0.371552 11.45995,0.7056611 16.43717,1.2784306 32.75669,3.8646143 47.61229,7.5452026 7.0554,1.74803 12.9568,3.483213 20.20873,5.941963 l 2.85073,0.966532 -1.37617,2.321778 c -2.23894,3.777371 -3.13759,5.430915 -4.10186,7.547517 -3.1988,7.021474 -3.56319,12.084056 -1.04064,14.458171 3.31847,3.123212 11.79053,3.095453 23.00369,-0.07537 3.16548,-0.895126 5.16577,-1.567156 10.04236,-3.373901 1.82556,-0.676355 3.34661,-1.229737 3.38014,-1.229737 0.0901,0 0.0352,52.286104 -0.0568,54.029862 -0.24086,4.566306 -0.42652,6.937917 -0.77989,9.962516 -2.05897,17.62301 -7.69657,33.51037 -17.18794,48.43741 -4.42218,6.95474 -10.02828,14.06402 -16.38683,20.78071 -1.23909,1.30889 -5.13004,5.19393 -6.63714,6.62707 -6.99438,6.65115 -14.80725,13.13731 -25.30357,21.00677 -3.72257,2.79093 -7.37668,5.46262 -16.62458,12.15499 -16.28709,11.78638 -23.66593,17.72787 -30.47138,24.5358 -2.62913,2.63007 -4.37022,4.55234 -6.25913,6.91044 -1.88145,2.34879 -3.00784,3.98484 -5.56436,8.08202 -0.87401,1.40073 -1.60286,2.54678 -1.61967,2.54676 -0.0168,0 -0.6769,-1.03417 -1.46687,-2.29813 z m 1.60752,-11.22387 c 0.19401,-0.2961 1.50095,-1.94342 2.33546,-2.94371 6.66409,-7.98797 15.9152,-16.05708 31.35367,-27.34768 1.07571,-0.7867 2.36839,-1.73676 2.87263,-2.11126 0.50424,-0.37449 2.3195,-1.69514 4.03391,-2.93478 14.5448,-10.51688 20.2037,-14.7691 26.95381,-20.25363 19.43158,-15.78838 32.29011,-30.79852 40.58255,-47.37322 6.97427,-13.93994 10.62415,-28.7372 11.21683,-45.475005 0.0539,-1.522939 0.0923,-42.661588 0.0397,-42.661588 -0.0115,0 -0.18345,0.05635 -0.382,0.125218 -1.20703,0.418666 -4.51432,1.365907 -6.47299,1.853924 -3.78794,0.943798 -6.87084,1.471701 -10.63483,1.821065 -1.12879,0.104771 -4.95337,0.104616 -5.89806,-2.45e-4 -3.23933,-0.359547 -5.44163,-0.940153 -7.48656,-1.973732 -1.31155,-0.662902 -2.32535,-1.377978 -3.32308,-2.34392 -2.02314,-1.958671 -3.20849,-4.317395 -3.71744,-7.397323 -0.15665,-0.947972 -0.15727,-3.988987 -0.001,-5.1035 0.49661,-3.542762 1.73421,-7.287565 3.83116,-11.592612 l 0.66003,-1.355053 -0.28367,-0.09209 c -0.15602,-0.05065 -0.91627,-0.284328 -1.68943,-0.519286 C 191.01486,14.260521 166.49099,10.318632 141.35149,9.3264957 134.97644,9.0749024 125.39211,9.0014743 119.83733,9.1616686 106.5874,9.5437856 95.671269,10.44682 83.440522,12.172587 c -13.913746,1.96324 -27.17647,4.845138 -39.39168,8.55954 -0.773165,0.235104 -1.535193,0.469486 -1.693395,0.52085 l -0.287642,0.09339 0.417761,0.834238 c 2.126811,4.247075 3.478218,8.19642 4.018661,11.744113 0.207588,1.362688 0.263845,3.663048 0.119887,4.90211 -0.311566,2.681678 -1.204766,4.917687 -2.729474,6.832882 -0.467554,0.587297 -1.496933,1.606307 -2.046109,2.025499 -2.217245,1.692448 -5.124678,2.81233 -8.465086,3.260571 -1.564801,0.209977 -2.110687,0.24164 -4.186703,0.242839 -2.072787,0.0012 -2.840954,-0.03903 -4.73678,-0.24804 C 20.080147,50.457706 15.128339,49.354064 9.7652202,47.665462 9.2298742,47.496906 8.7554321,47.345017 8.7109045,47.32793 c -0.0671,-0.02575 -0.080887,3.482899 -0.08054,20.496429 4.278e-4,19.621739 0.017816,21.98788 0.1837217,24.958679 0.9592726,17.177332 5.3982498,32.748192 13.4182228,47.067892 6.69596,11.95567 15.897542,23.13997 28.375178,34.48935 4.39132,3.99424 9.411368,8.19759 14.833268,12.42008 5.99696,4.67034 8.760374,6.7183 22.736548,16.85002 13.371427,9.69331 20.308797,15.09024 26.495417,20.61209 3.5715,3.18775 7.09685,6.71098 9.75305,9.7472 1.14829,1.31257 2.77275,3.29815 3.42438,4.18564 0.16087,0.21909 0.31152,0.39834 0.33479,0.39834 0.0233,0 0.0844,-0.0643 0.13589,-0.14283 z"
         id="path1756"
         inkscape:connector-curvature="0"
         sodipodi:nodetypes="ccccsssssssssssssscsssssssssccscscsccscccscsccccccccccccsccscscscccscssssscssssssccsccssssscccsc" />
      <path
         style="fill:#ffe6d5;stroke-width:0.06111975;fill-opacity:1"
         d="m 137.65374,238.5917 c 0,-0.0127 0.0481,-0.0608 0.10696,-0.10696 0.0969,-0.076 0.0991,-0.0739 0.0231,0.0231 -0.0798,0.1018 -0.13004,0.13418 -0.13004,0.0839 z m -9.80093,-0.49389 c -0.47723,-0.64995 -1.82862,-2.32289 -2.69286,-3.33358 -6.78536,-7.93524 -15.7424,-15.67595 -31.32907,-27.0747 -0.89082,-0.65147 -1.81915,-1.3311 -2.062956,-1.51028 l -0.44329,-0.32579 0.01545,-10.89093 0.01544,-10.89094 17.999766,-10.8047 c 9.89987,-5.94259 18.04617,-10.79842 18.10287,-10.79074 0.0567,0.008 8.53433,5.1572 18.83915,11.44337 l 18.73603,11.42939 10e-4,10.25301 0.001,10.25301 -0.74872,0.54886 c -0.41179,0.30188 -1.45007,1.06171 -2.30727,1.68851 -8.97386,6.56189 -16.03754,12.19772 -21.36135,17.04338 -4.69077,4.26946 -8.97186,8.83201 -11.88779,12.66937 -0.28574,0.37603 -0.53485,0.68454 -0.55357,0.68558 -0.0187,10e-4 -0.16448,-0.17572 -0.32389,-0.39282 z m -9.82631,-0.20119 c -0.076,-0.0969 -0.0739,-0.0991 0.0231,-0.0231 0.10181,0.0799 0.13419,0.13004 0.0839,0.13004 -0.0127,0 -0.0608,-0.0481 -0.10696,-0.10696 z m 20.17732,0.0839 c 0,-0.0127 0.0481,-0.0608 0.10696,-0.10696 0.0969,-0.076 0.0991,-0.0739 0.0231,0.0231 -0.0798,0.10181 -0.13004,0.13419 -0.13004,0.0839 z m -20.81708,-0.78676 -0.11643,-0.13752 0.13751,0.11643 c 0.0756,0.064 0.13752,0.12592 0.13752,0.13752 0,0.0489 -0.0492,0.0128 -0.1586,-0.11643 z m 21.51996,0.0153 c 0.0608,-0.0672 0.12438,-0.12224 0.14118,-0.12224 0.0168,0 -0.0192,0.055 -0.0801,0.12224 -0.0608,0.0672 -0.12438,0.12224 -0.14119,0.12224 -0.0168,0 0.0192,-0.055 0.0801,-0.12224 z m -22.37368,-0.93208 -0.17951,-0.19863 0.19864,0.17951 c 0.10925,0.0987 0.19864,0.18812 0.19864,0.19864 0,0.0472 -0.0504,0.006 -0.21777,-0.17952 z m 23.19879,0.0458 c 0.0789,-0.084 0.1573,-0.15279 0.17411,-0.15279 0.0168,0 -0.034,0.0687 -0.11299,0.15279 -0.0789,0.084 -0.15729,0.1528 -0.1741,0.1528 -0.0168,0 0.034,-0.0688 0.11298,-0.1528 z m -26.98725,-3.83526 -0.2416,-0.25976 0.25976,0.2416 c 0.14287,0.13289 0.25976,0.24978 0.25976,0.25976 0,0.0462 -0.0532,-2e-5 -0.27792,-0.2416 z m 30.71556,0.1184 c 0,-0.0105 0.0894,-0.0999 0.19864,-0.19864 l 0.19864,-0.17952 -0.17952,0.19864 c -0.16733,0.18516 -0.21776,0.22674 -0.21776,0.17952 z m -31.7869,-1.12688 -0.14817,-0.16808 0.16808,0.14818 c 0.15709,0.13849 0.19611,0.18798 0.14817,0.18798 -0.011,0 -0.0866,-0.0756 -0.16808,-0.16808 z m 32.97873,-0.0153 c 0.0608,-0.0672 0.12438,-0.12224 0.14119,-0.12224 0.0168,0 -0.0192,0.055 -0.0801,0.12224 -0.0608,0.0672 -0.12437,0.12224 -0.14118,0.12224 -0.0168,0 0.0192,-0.055 0.0801,-0.12224 z m -33.77646,-0.71815 c -0.076,-0.0969 -0.0739,-0.0991 0.0231,-0.0231 0.0588,0.0461 0.10696,0.0943 0.10696,0.10696 0,0.0503 -0.0502,0.0179 -0.13004,-0.0839 z m 34.57102,-0.0153 c 0.0609,-0.0672 0.12438,-0.12224 0.14119,-0.12224 0.0168,0 -0.0192,0.055 -0.0801,0.12224 -0.0608,0.0672 -0.12438,0.12224 -0.14119,0.12224 -0.0168,0 0.0192,-0.055 0.0801,-0.12224 z m -35.24334,-0.59592 c -0.076,-0.0969 -0.0739,-0.0991 0.0231,-0.0231 0.0588,0.0461 0.10696,0.0943 0.10696,0.10696 0,0.0503 -0.0502,0.0179 -0.13004,-0.0839 z m 35.82398,0.0839 c 0,-0.0127 0.0481,-0.0608 0.10696,-0.10696 0.0969,-0.076 0.0991,-0.0739 0.0231,0.0231 -0.0799,0.10181 -0.13004,0.13419 -0.13004,0.0839 z m 1.16127,-1.03904 c 0,-0.0127 0.0481,-0.0608 0.10696,-0.10696 0.0969,-0.076 0.0991,-0.0739 0.0231,0.0231 -0.0798,0.10181 -0.13004,0.13419 -0.13004,0.0839 z m 2.26143,-1.95583 c 0,-0.0127 0.0481,-0.0608 0.10696,-0.10696 0.0969,-0.076 0.0991,-0.0739 0.0231,0.0231 -0.0798,0.10181 -0.13004,0.13419 -0.13004,0.0839 z m 57.14697,-43.76174 c 0,-0.0127 0.0481,-0.0608 0.10696,-0.10696 0.0969,-0.076 0.0991,-0.0739 0.0231,0.0231 -0.0798,0.10181 -0.13004,0.13419 -0.13004,0.0839 z M 48.716707,182.58324 c -0.07603,-0.0969 -0.07386,-0.0991 0.02308,-0.0231 0.05883,0.0461 0.10696,0.0943 0.10696,0.10696 0,0.0503 -0.05019,0.0179 -0.130036,-0.0839 z M 208.0637,182.17816 c 0,-0.0127 0.0481,-0.0608 0.10696,-0.10696 0.0969,-0.076 0.0991,-0.0739 0.0231,0.0231 -0.0798,0.10181 -0.13004,0.13419 -0.13004,0.0839 z m -160.903557,-0.97011 -0.116433,-0.13752 0.13752,0.11643 c 0.129234,0.10942 0.165343,0.15861 0.116432,0.15861 -0.0116,0 -0.07348,-0.0619 -0.137519,-0.13752 z m 161.942587,0.0533 c 0,-0.0127 0.0481,-0.0608 0.10696,-0.10696 0.0969,-0.076 0.0991,-0.0739 0.0231,0.0231 -0.0798,0.1018 -0.13004,0.13419 -0.13004,0.0839 z M 46.577515,180.68853 c -0.07603,-0.0969 -0.07386,-0.0991 0.02308,-0.0231 0.10181,0.0798 0.134187,0.13004 0.08388,0.13004 -0.01269,0 -0.06082,-0.0481 -0.10696,-0.10696 z m 163.136415,0.0228 c 0,-0.0127 0.0481,-0.0608 0.10696,-0.10696 0.0969,-0.076 0.0991,-0.0739 0.0231,0.0231 -0.0799,0.10181 -0.13004,0.13419 -0.13004,0.0839 z m -163.776182,-0.6034 -0.116433,-0.13752 0.137519,0.11644 c 0.129235,0.10941 0.165344,0.1586 0.116433,0.1586 -0.0116,0 -0.07348,-0.0619 -0.137519,-0.13752 z m 164.387382,0.0533 c 0,-0.0127 0.0481,-0.0608 0.10696,-0.10696 0.0969,-0.076 0.0991,-0.0739 0.0231,0.0231 -0.0799,0.10181 -0.13004,0.13419 -0.13004,0.0839 z M 45.294001,179.52725 c -0.07603,-0.0969 -0.07386,-0.0991 0.02308,-0.0231 0.10181,0.0799 0.134187,0.13004 0.08388,0.13004 -0.01269,0 -0.06082,-0.0481 -0.106959,-0.10696 z M 211.028,179.51197 c 0.0609,-0.0672 0.12438,-0.12224 0.14119,-0.12224 0.0168,0 -0.0192,0.055 -0.0801,0.12224 -0.0608,0.0672 -0.12437,0.12224 -0.14118,0.12224 -0.0168,0 0.0192,-0.055 0.0801,-0.12224 z m -166.496007,-0.68759 -0.116432,-0.13752 0.137519,0.11643 c 0.07564,0.064 0.13752,0.12592 0.13752,0.13752 0,0.0489 -0.04919,0.0128 -0.158607,-0.11643 z m 167.229447,0.0153 c 0.0609,-0.0672 0.12438,-0.12224 0.14119,-0.12224 0.0168,0 -0.0192,0.055 -0.0801,0.12224 -0.0608,0.0672 -0.12438,0.12224 -0.14119,0.12224 -0.0168,0 0.0192,-0.055 0.0801,-0.12224 z m -168.024004,-0.74872 -0.116432,-0.13752 0.137519,0.11643 c 0.129234,0.10942 0.165344,0.15861 0.116433,0.15861 -0.0116,0 -0.07348,-0.0619 -0.13752,-0.13752 z m 168.879684,-0.0458 c 0.0608,-0.0672 0.12438,-0.12224 0.14118,-0.12224 0.0168,0 -0.0192,0.055 -0.0801,0.12224 -0.0608,0.0672 -0.12438,0.12224 -0.14119,0.12224 -0.0168,0 0.0192,-0.055 0.0801,-0.12224 z m -169.8576,-0.87096 -0.116432,-0.13752 0.137519,0.11644 c 0.129234,0.10941 0.165344,0.1586 0.116433,0.1586 -0.0116,0 -0.07348,-0.0619 -0.13752,-0.13752 z m 170.83551,-0.0458 c 0.0608,-0.0672 0.12438,-0.12224 0.14119,-0.12224 0.0168,0 -0.0192,0.055 -0.0801,0.12224 -0.0608,0.0672 -0.12437,0.12224 -0.14118,0.12224 -0.0168,0 0.0192,-0.055 0.0801,-0.12224 z m -172.178182,-1.23767 -0.179514,-0.19864 0.198639,0.17951 c 0.109251,0.0987 0.198639,0.18812 0.198639,0.19864 0,0.0472 -0.05043,0.006 -0.217764,-0.17951 z m 173.308902,0.17951 c 0,-0.0105 0.0894,-0.0999 0.19864,-0.19864 l 0.19864,-0.17951 -0.17952,0.19864 c -0.16733,0.18516 -0.21776,0.22673 -0.21776,0.17951 z m 5.07038,-5.06909 c 0.25328,-0.26986 0.30816,-0.31838 0.30816,-0.27249 0,0.01 -0.13065,0.14046 -0.29032,0.29032 l -0.29032,0.27249 z m -183.356697,-0.0764 c -0.148462,-0.15127 -0.256178,-0.27504 -0.239371,-0.27504 0.01681,0 0.152029,0.12377 0.300491,0.27504 0.148462,0.15127 0.256178,0.27504 0.23937,0.27504 -0.01681,0 -0.152028,-0.12377 -0.30049,-0.27504 z m -1.19568,-1.26824 -0.179514,-0.19864 0.198639,0.17952 c 0.18516,0.16733 0.226733,0.21776 0.179514,0.21776 -0.01052,0 -0.09991,-0.0894 -0.198639,-0.19864 z m 185.777327,0.0458 c 0.0789,-0.084 0.1573,-0.1528 0.17411,-0.1528 0.0168,0 -0.034,0.0688 -0.11299,0.1528 -0.0789,0.084 -0.15729,0.1528 -0.1741,0.1528 -0.0168,0 0.034,-0.0688 0.11298,-0.1528 z m -186.573846,-0.90151 -0.116432,-0.13752 0.137519,0.11643 c 0.129234,0.10942 0.165344,0.15861 0.116433,0.15861 -0.0116,0 -0.07348,-0.0619 -0.13752,-0.13752 z m 187.398966,0.0153 c 0.0608,-0.0672 0.12438,-0.12224 0.14119,-0.12224 0.0168,0 -0.0192,0.055 -0.0801,0.12224 -0.0608,0.0672 -0.12438,0.12224 -0.14119,0.12224 -0.0168,0 0.0192,-0.055 0.0801,-0.12224 z m -188.132403,-0.80984 -0.116432,-0.13752 0.137519,0.11643 c 0.129234,0.10942 0.165344,0.15861 0.116433,0.15861 -0.0116,0 -0.07348,-0.0619 -0.13752,-0.13752 z m 188.774163,0.11444 c 0,-0.0127 0.0481,-0.0608 0.10696,-0.10696 0.0969,-0.076 0.0991,-0.0739 0.0231,0.0231 -0.0798,0.10181 -0.13004,0.13419 -0.13004,0.0839 z m -189.38536,-0.78676 -0.116433,-0.13752 0.13752,0.11644 c 0.129234,0.10941 0.165343,0.1586 0.116432,0.1586 -0.0116,0 -0.07348,-0.0619 -0.137519,-0.13752 z m 189.99656,0.11444 c 0,-0.0127 0.0481,-0.0608 0.10696,-0.10696 0.0969,-0.076 0.0991,-0.0739 0.0231,0.0231 -0.0798,0.10181 -0.13003,0.13419 -0.13003,0.0839 z m 0.55007,-0.61119 c 0,-0.0127 0.0481,-0.0608 0.10696,-0.10696 0.0969,-0.076 0.0991,-0.0739 0.0231,0.0231 -0.0798,0.1018 -0.13004,0.13418 -0.13004,0.0839 z m 0.48896,-0.55008 c 0,-0.0127 0.0481,-0.0608 0.10696,-0.10696 0.0969,-0.076 0.0991,-0.0739 0.0231,0.0231 -0.0798,0.1018 -0.13004,0.13419 -0.13004,0.0839 z m -192.962852,-1.123 c -0.07603,-0.0969 -0.07386,-0.0991 0.02308,-0.0231 0.05883,0.0461 0.10696,0.0943 0.10696,0.10696 0,0.0503 -0.05019,0.0179 -0.130036,-0.0839 z M 158.04,101.21711 151.07517,100.3866 140.01936,63.167595 c -6.0807,-20.47045 -11.06705,-37.230462 -11.08078,-37.244468 -0.0137,-0.01401 -0.0355,-0.01401 -0.0484,0 -0.0129,0.01401 -5.82739,16.774193 -12.92109,37.24486 l -12.89764,37.219393 -5.674595,0.68593 c -3.121025,0.37727 -5.763984,0.69985 -5.873235,0.71685 l -0.19864,0.0309 V 56.507397 11.193712 l 0.19864,-0.03279 c 0.277361,-0.04578 2.125616,-0.243135 4.293662,-0.458471 7.730248,-0.7677882 14.605648,-1.2053592 23.286628,-1.4820306 3.22117,-0.1026617 14.95551,-0.1028872 18.15256,-3.667e-4 7.42038,0.2379917 13.1295,0.569872 19.71112,1.1458373 3.05888,0.267687 7.98369,0.778883 8.03928,0.834481 0.0157,0.01573 0.0217,20.462796 0.0133,45.437913 l -0.0153,45.409305 -6.96483,-0.8305 z m 96.41841,-2.296622 c 0.003,-0.07121 0.0174,-0.08568 0.0369,-0.03693 0.0177,0.04412 0.0155,0.09684 -0.005,0.117148 -0.0203,0.02031 -0.0348,-0.01579 -0.0321,-0.08022 z M 1.6059997,96.170099 c 0.00293,-0.0712 0.017415,-0.08568 0.036927,-0.03693 0.017656,0.04412 0.015484,0.09684 -0.00483,0.117148 -0.020309,0.02031 -0.034755,-0.01579 -0.032101,-0.08022 z m 253.0968903,0 c 0.003,-0.0712 0.0174,-0.08568 0.0369,-0.03693 0.0177,0.04412 0.0155,0.09684 -0.005,0.117148 -0.0203,0.02031 -0.0348,-0.01579 -0.0321,-0.08022 z M 1.5448799,95.375542 c 0.00293,-0.0712 0.017416,-0.08568 0.036927,-0.03693 0.017656,0.04412 0.015484,0.09684 -0.00483,0.117149 -0.02031,0.02031 -0.034755,-0.01579 -0.032101,-0.08022 z M 254.76884,95.350073 c 0,-0.08404 0.0139,-0.118419 0.0308,-0.0764 0.017,0.04202 0.017,0.110779 0,0.152799 -0.017,0.04202 -0.0308,0.0076 -0.0308,-0.0764 z M 1.4837602,94.519865 c 0.00293,-0.0712 0.017415,-0.08568 0.036926,-0.03693 0.017656,0.04412 0.015484,0.09684 -0.00483,0.117148 -0.020309,0.02031 -0.034755,-0.01579 -0.032101,-0.08022 z m 253.3413698,0 c 0.003,-0.0712 0.0174,-0.08568 0.0369,-0.03693 0.0177,0.04412 0.0155,0.09684 -0.005,0.117148 -0.0203,0.02031 -0.0348,-0.01579 -0.0321,-0.08022 z M 1.4274656,93.455361 c 0,-0.08404 0.013873,-0.11842 0.030828,-0.0764 0.016955,0.04202 0.016955,0.11078 0,0.1528 -0.016955,0.04202 -0.030828,0.0076 -0.030828,-0.0764 z m 253.4636144,0 c 0,-0.08404 0.0139,-0.11842 0.0308,-0.0764 0.017,0.04202 0.017,0.11078 0,0.1528 -0.017,0.04202 -0.0308,0.0076 -0.0308,-0.0764 z M 1.3663459,92.416325 c 0,-0.08404 0.013873,-0.118419 0.030828,-0.0764 0.016955,0.04202 0.016955,0.11078 0,0.1528 -0.016955,0.04202 -0.030828,0.0076 -0.030828,-0.0764 z M 254.95446,92.385765 c 10e-4,-0.100847 0.0149,-0.134702 0.0304,-0.07524 0.0155,0.05947 0.0145,0.141981 -0.002,0.183359 -0.0167,0.04138 -0.0294,-0.0073 -0.0282,-0.108121 z M 1.3097556,90.949451 c 0,-0.117655 0.012578,-0.165787 0.027952,-0.10696 0.015373,0.05883 0.015373,0.155092 0,0.21392 -0.015373,0.05883 -0.027952,0.0107 -0.027952,-0.10696 z M 255.01558,90.918891 c 0.001,-0.100847 0.0149,-0.134702 0.0304,-0.07524 0.0155,0.05947 0.0145,0.141981 -0.002,0.183359 -0.0167,0.04138 -0.0294,-0.0073 -0.0282,-0.108121 z M 1.251937,88.963059 c 4.589e-4,-0.168079 0.012329,-0.229584 0.026377,-0.136682 0.014049,0.09291 0.013673,0.230428 -8.343e-4,0.305599 -0.014507,0.07518 -0.026002,-8.56e-4 -0.025543,-0.168917 z m 253.830333,0 c 6.1e-4,-0.168079 0.0123,-0.229584 0.0264,-0.136682 0.014,0.09291 0.0137,0.230428 -8.6e-4,0.305599 -0.0145,0.07518 -0.026,-8.56e-4 -0.0255,-0.168917 z M 27.715752,43.783766 c 0.05947,-0.0155 0.141979,-0.01448 0.183359,0.0023 0.04138,0.01674 -0.0073,0.02942 -0.108123,0.02818 -0.100847,-0.0012 -0.134704,-0.01494 -0.07524,-0.03044 z m 2.779785,0.0019 c 0.04202,-0.01696 0.11078,-0.01696 0.1528,0 0.04202,0.01695 0.0076,0.03083 -0.0764,0.03083 -0.08404,0 -0.11842,-0.01387 -0.0764,-0.03083 z m 195.216493,0 c 0.042,-0.01696 0.11077,-0.01696 0.15279,0 0.042,0.01695 0.008,0.03083 -0.0764,0.03083 -0.084,0 -0.11841,-0.01387 -0.0764,-0.03083 z m 2.78211,-0.0019 c 0.0595,-0.0155 0.14198,-0.01448 0.18335,0.0023 0.0414,0.01674 -0.007,0.02942 -0.10812,0.02818 -0.10084,-0.0012 -0.1347,-0.01494 -0.0752,-0.03044 z M 26.709933,43.72325 c 0.04412,-0.01766 0.09684,-0.01548 0.117146,0.0048 0.02031,0.02031 -0.01579,0.03476 -0.08022,0.0321 -0.0712,-0.0029 -0.08568,-0.01742 -0.03693,-0.03693 z m 202.856457,0 c 0.0441,-0.01766 0.0968,-0.01548 0.11715,0.0048 0.0203,0.02031 -0.0158,0.03476 -0.0802,0.0321 -0.0712,-0.0029 -0.0857,-0.01742 -0.0369,-0.03693 z M 25.976496,43.66213 c 0.04412,-0.01766 0.09684,-0.01548 0.117146,0.0048 0.02031,0.02031 -0.01579,0.03476 -0.08022,0.0321 -0.0712,-0.0029 -0.08568,-0.01742 -0.03693,-0.03693 z m 204.323334,0 c 0.0441,-0.01766 0.0968,-0.01548 0.11714,0.0048 0.0203,0.02031 -0.0158,0.03476 -0.0802,0.0321 -0.0712,-0.0029 -0.0857,-0.01742 -0.0369,-0.03693 z M 25.365298,43.60101 c 0.04412,-0.01766 0.09684,-0.01548 0.117146,0.0048 0.02031,0.02031 -0.01579,0.03476 -0.08022,0.0321 -0.0712,-0.0029 -0.08568,-0.01741 -0.03693,-0.03693 z M 217.00675,36.919589 c 0,-0.218503 0.0111,-0.307891 0.0246,-0.198639 0.0136,0.109251 0.0136,0.288027 0,0.397278 -0.0135,0.109252 -0.0246,0.01986 -0.0246,-0.198639 z m -177.676373,0 c 0,-0.184887 0.01146,-0.260523 0.02546,-0.168079 0.01401,0.09244 0.01401,0.243715 0,0.336158 -0.014,0.09244 -0.02546,0.01681 -0.02546,-0.168079 z M 217.05312,35.722661 c 0.003,-0.0712 0.0174,-0.08568 0.0369,-0.03693 0.0177,0.04412 0.0155,0.09684 -0.005,0.117146 -0.0203,0.02031 -0.0348,-0.01579 -0.0321,-0.08022 z M 94.919576,3.3230926 c 0.04412,-0.017656 0.09684,-0.015484 0.117148,0.00483 0.02031,0.02031 -0.01579,0.034755 -0.08022,0.032101 -0.0712,-0.00293 -0.08568,-0.017416 -0.03693,-0.036927 z m 66.437174,0 c 0.0441,-0.017656 0.0968,-0.015484 0.11714,0.00483 0.0203,0.02031 -0.0158,0.034755 -0.0802,0.032101 -0.0712,-0.00293 -0.0857,-0.017416 -0.0369,-0.036927 z M 96.141971,3.2008531 c 0.04412,-0.017656 0.09684,-0.015484 0.117148,0.00483 0.02031,0.02031 -0.01579,0.034755 -0.08022,0.032101 -0.0712,-0.00293 -0.08568,-0.017416 -0.03693,-0.036927 z m 63.992379,0 c 0.0441,-0.017656 0.0968,-0.015484 0.11715,0.00483 0.0203,0.02031 -0.0158,0.034755 -0.0802,0.032101 -0.0712,-0.00293 -0.0857,-0.017416 -0.0369,-0.036927 z M 98.77012,2.9563741 c 0.04412,-0.017656 0.09684,-0.015484 0.117148,0.00483 0.02031,0.02031 -0.01579,0.034755 -0.08022,0.032101 -0.07121,-0.00293 -0.08568,-0.017416 -0.03693,-0.036927 z m 58.73608,0 c 0.0441,-0.017656 0.0968,-0.015484 0.11715,0.00483 0.0203,0.02031 -0.0158,0.034755 -0.0802,0.032101 -0.0712,-0.00293 -0.0857,-0.017416 -0.0369,-0.036927 z m -58.002643,-0.06112 c 0.04412,-0.017656 0.09684,-0.015484 0.117148,0.00483 0.02031,0.02031 -0.01579,0.034755 -0.08022,0.032101 -0.07121,-0.00293 -0.08568,-0.017416 -0.03693,-0.036927 z m 57.269203,0 c 0.0441,-0.017656 0.0968,-0.015484 0.11715,0.00483 0.0203,0.02031 -0.0158,0.034755 -0.0802,0.032101 -0.0712,-0.00293 -0.0857,-0.017416 -0.0369,-0.036927 z m -56.53577,-0.06112 c 0.0441,-0.017656 0.0968,-0.015484 0.11715,0.00483 0.0203,0.02031 -0.0158,0.034755 -0.0802,0.032101 -0.0712,-0.00293 -0.0857,-0.017416 -0.0369,-0.036926 z m 55.80234,0 c 0.0441,-0.017656 0.0968,-0.015484 0.11715,0.00483 0.0203,0.02031 -0.0158,0.034755 -0.0802,0.032101 -0.0712,-0.00293 -0.0857,-0.017416 -0.0369,-0.036926 z m -55.0689,-0.06112 c 0.0441,-0.017656 0.0968,-0.015484 0.11715,0.00483 0.0203,0.02031 -0.0158,0.034755 -0.0802,0.032101 -0.0712,-0.00293 -0.0857,-0.017416 -0.0369,-0.036927 z m 54.33546,0 c 0.0441,-0.017656 0.0968,-0.015484 0.11715,0.00483 0.0203,0.02031 -0.0158,0.034755 -0.0802,0.032101 -0.0712,-0.00293 -0.0857,-0.017416 -0.0369,-0.036927 z m -53.60584,-0.059847 c 0.042,-0.016955 0.11078,-0.016955 0.1528,0 0.042,0.016955 0.008,0.030828 -0.0764,0.030828 -0.084,0 -0.11842,-0.013873 -0.0764,-0.030828 z m 52.80746,0 c 0.042,-0.016955 0.11078,-0.016955 0.1528,0 0.042,0.016955 0.008,0.030828 -0.0764,0.030828 -0.084,0 -0.11842,-0.013873 -0.0764,-0.030828 z m -52.00908,-0.062393 c 0.0441,-0.017656 0.0968,-0.015484 0.11714,0.00483 0.0203,0.02031 -0.0158,0.034755 -0.0802,0.032101 -0.0712,-0.00293 -0.0857,-0.017416 -0.0369,-0.036927 z m 51.21453,0.00127 c 0.042,-0.016955 0.11078,-0.016955 0.1528,0 0.042,0.016955 0.008,0.030828 -0.0764,0.030828 -0.084,0 -0.11842,-0.013873 -0.0764,-0.030828 z M 103.3541,2.5896554 c 0.0441,-0.017656 0.0968,-0.015484 0.11715,0.00483 0.0203,0.02031 -0.0158,0.034755 -0.0802,0.032101 -0.0712,-0.00293 -0.0857,-0.017415 -0.0369,-0.036926 z m 49.56812,0 c 0.0441,-0.017656 0.0968,-0.015484 0.11715,0.00483 0.0203,0.02031 -0.0158,0.034755 -0.0802,0.032101 -0.0712,-0.00293 -0.0857,-0.017415 -0.0369,-0.036926 z m -48.8385,-0.059846 c 0.042,-0.016955 0.11078,-0.016955 0.1528,0 0.042,0.016955 0.008,0.030828 -0.0764,0.030828 -0.084,0 -0.11842,-0.013873 -0.0764,-0.030828 z m 48.04012,0 c 0.042,-0.016955 0.11078,-0.016955 0.1528,0 0.042,0.016955 0.008,0.030828 -0.0764,0.030828 -0.084,0 -0.11842,-0.013873 -0.0764,-0.030828 z m -47.12333,-0.06112 c 0.042,-0.016955 0.11078,-0.016955 0.1528,0 0.042,0.016955 0.008,0.030828 -0.0764,0.030828 -0.084,0 -0.11841,-0.013872 -0.0764,-0.030828 z m 46.20654,0 c 0.042,-0.016955 0.11078,-0.016955 0.1528,0 0.042,0.016955 0.008,0.030828 -0.0764,0.030828 -0.084,0 -0.11842,-0.013872 -0.0764,-0.030828 z m -45.35086,-0.06112 c 0.042,-0.016955 0.11078,-0.016955 0.1528,0 0.042,0.016955 0.008,0.030828 -0.0764,0.030828 -0.084,0 -0.11842,-0.013873 -0.0764,-0.030828 z m 44.49518,0 c 0.042,-0.016955 0.11078,-0.016955 0.1528,0 0.042,0.016955 0.008,0.030828 -0.0764,0.030828 -0.084,0 -0.11842,-0.013873 -0.0764,-0.030828 z m -43.51726,-0.06112 c 0.042,-0.016955 0.11078,-0.016955 0.1528,0 0.042,0.016955 0.008,0.030828 -0.0764,0.030828 -0.084,0 -0.11842,-0.013872 -0.0764,-0.030828 z m 42.53934,0 c 0.042,-0.016955 0.11078,-0.016955 0.1528,0 0.042,0.016955 0.008,0.030828 -0.0764,0.030828 -0.084,0 -0.11841,-0.013872 -0.0764,-0.030828 z m -41.56143,-0.06112 c 0.042,-0.016955 0.11078,-0.016955 0.1528,0 0.042,0.016955 0.008,0.030828 -0.0764,0.030828 -0.084,0 -0.11842,-0.013873 -0.0764,-0.030828 z m 40.58352,0 c 0.042,-0.016955 0.11078,-0.016955 0.1528,0 0.042,0.016955 0.008,0.030828 -0.0764,0.030828 -0.084,0 -0.11842,-0.013873 -0.0764,-0.030828 z m -39.54448,-0.06112 c 0.042,-0.016955 0.11078,-0.016955 0.1528,0 0.042,0.016955 0.008,0.030828 -0.0764,0.030828 -0.084,0 -0.11842,-0.013872 -0.0764,-0.030828 z m 38.50544,0 c 0.042,-0.016955 0.11078,-0.016955 0.1528,0 0.042,0.016955 0.008,0.030828 -0.0764,0.030828 -0.084,0 -0.11842,-0.013872 -0.0764,-0.030828 z m -37.34417,-0.06112 c 0.042,-0.016955 0.11078,-0.016955 0.1528,0 0.042,0.016955 0.008,0.030828 -0.0764,0.030828 -0.084,0 -0.11842,-0.013873 -0.0764,-0.030828 z m 36.1829,0 c 0.042,-0.016955 0.11078,-0.016955 0.1528,0 0.042,0.016955 0.008,0.030828 -0.0764,0.030828 -0.084,0 -0.11842,-0.013873 -0.0764,-0.030828 z m -35.05102,-0.062997 c 0.0595,-0.015497 0.14198,-0.014477 0.18336,0.00226 0.0414,0.016742 -0.007,0.029421 -0.10812,0.028176 -0.10085,-0.00125 -0.1347,-0.014944 -0.0752,-0.03044 z m 33.92146,0 c 0.0595,-0.015497 0.14198,-0.014477 0.18336,0.00226 0.0414,0.016742 -0.007,0.029421 -0.10812,0.028176 -0.10085,-0.00125 -0.1347,-0.014944 -0.0752,-0.03044 z m -32.60855,-0.059243 c 0.042,-0.016955 0.11078,-0.016955 0.1528,0 0.042,0.016955 0.008,0.030828 -0.0764,0.030828 -0.084,0 -0.11842,-0.013873 -0.0764,-0.030828 z m 31.29332,0 c 0.042,-0.016955 0.11078,-0.016955 0.1528,0 0.042,0.016955 0.008,0.030828 -0.0764,0.030828 -0.084,0 -0.11842,-0.013873 -0.0764,-0.030828 z m -30.04036,-0.062773 c 0.0588,-0.015373 0.15509,-0.015373 0.21392,0 0.0588,0.015373 0.0107,0.027952 -0.10696,0.027952 -0.11766,0 -0.16579,-0.012578 -0.10696,-0.027952 z m 28.72628,0 c 0.0588,-0.015373 0.15509,-0.015373 0.21392,0 0.0588,0.015373 0.0107,0.027952 -0.10696,0.027952 -0.11765,0 -0.16578,-0.012578 -0.10696,-0.027952 z m -27.07605,-0.06112 c 0.0588,-0.015373 0.15509,-0.015373 0.21392,0 0.0588,0.015373 0.0107,0.027951 -0.10696,0.027951 -0.11765,0 -0.16578,-0.012578 -0.10696,-0.027951 z m 25.42582,0 c 0.0588,-0.015373 0.15509,-0.015373 0.21392,0 0.0588,0.015373 0.0107,0.027951 -0.10696,0.027951 -0.11766,0 -0.16579,-0.012578 -0.10696,-0.027951 z M 116.9807,1.8547427 c 0.076,-0.014619 0.18604,-0.014064 0.24448,0.00123 0.0584,0.015298 -0.004,0.027259 -0.13823,0.026581 -0.13447,-6.783e-4 -0.18228,-0.013195 -0.10625,-0.027814 z m 22.18647,0 c 0.076,-0.014619 0.18604,-0.014064 0.24448,0.00123 0.0584,0.015298 -0.004,0.027259 -0.13823,0.026581 -0.13447,-6.783e-4 -0.18228,-0.013195 -0.10625,-0.027814 z m -20.10911,-0.061026 c 0.0756,-0.014568 0.1994,-0.014568 0.27504,0 0.0756,0.014568 0.0138,0.026487 -0.13752,0.026487 -0.15127,0 -0.21316,-0.011919 -0.13752,-0.026487 z m 17.96921,0 c 0.0756,-0.014568 0.1994,-0.014568 0.27503,0 0.0756,0.014568 0.0138,0.026487 -0.13752,0.026487 -0.15127,0 -0.21315,-0.011919 -0.13751,-0.026487 z m -15.1577,-0.062199 c 0.10925,-0.013558 0.28802,-0.013558 0.39727,0 0.10926,0.013558 0.0199,0.024651 -0.19863,0.024651 -0.21851,0 -0.3079,-0.011093 -0.19864,-0.024651 z m 12.22395,0 c 0.10925,-0.013558 0.28802,-0.013558 0.39728,0 0.10925,0.013558 0.0199,0.024651 -0.19864,0.024651 -0.21851,0 -0.30789,-0.011093 -0.19864,-0.024651 z m -6.29534,-0.062159 c 0.2101,-0.011935 0.5539,-0.011935 0.764,0 0.2101,0.011935 0.0382,0.0217 -0.382,0.0217 -0.4202,0 -0.5921,-0.00976 -0.382,-0.0217 z"
         id="path1768"
         inkscape:connector-curvature="0" />
      <path
         style="fill:#ffaaaa;stroke-width:0.06111975;fill-opacity:1"
         d="m 102.38765,165.10636 c -0.84049,-0.09 -1.87234,-0.36557 -2.61258,-0.69769 -1.995365,-0.89526 -3.58666,-3.01934 -4.117962,-5.4967 -0.113457,-0.52905 -0.137782,-0.83909 -0.141248,-1.80039 -0.0026,-0.71071 0.02719,-1.33912 0.07667,-1.61967 0.805265,-4.56486 4.150349,-8.55998 9.36214,-11.18144 4.05645,-2.04035 8.81173,-3.12429 14.40254,-3.28297 l 1.41459,-0.0402 0.0368,-1.28921 c 0.0341,-1.19553 0.714,-55.171275 0.71089,-56.439449 l -0.001,-0.570308 0.53479,0.29082 c 0.29414,0.15995 1.07113,0.598375 1.72664,0.974273 14.23303,8.161847 21.86676,16.201844 24.25496,25.545824 0.54461,2.13084 0.74124,3.68509 0.78479,6.20365 0.0455,2.63147 -0.13996,4.66219 -0.66022,7.22876 -0.19974,0.98544 -0.70337,3.07522 -0.76521,3.1753 -0.0202,0.0326 -0.2214,-0.40402 -0.44718,-0.97037 -1.57585,-3.95298 -3.57958,-7.07809 -6.31749,-9.853 -3.46388,-3.51068 -7.71522,-6.13385 -13.36582,-8.24705 -1.42052,-0.53124 -1.9537,-0.70747 -2.0001,-0.66107 -0.0201,0.0201 -0.19429,9.09229 -0.38719,20.16052 -0.40383,23.171 -0.38783,22.45421 -0.51743,23.18005 -0.6799,3.80774 -3.72858,7.82221 -8.34131,10.98376 -3.48311,2.38731 -7.27794,3.93169 -10.70275,4.35569 -0.6807,0.0843 -2.34479,0.11317 -2.92696,0.0508 z"
         id="path1766"
         inkscape:connector-curvature="0" />
      <path
         style="fill:#ff9955;stroke-width:0.06111975;fill-opacity:1"
         d="m 136.61471,239.75297 c 0,-0.0127 0.0481,-0.0608 0.10696,-0.10696 0.0969,-0.076 0.0991,-0.0739 0.0231,0.0231 -0.0799,0.10181 -0.13004,0.13419 -0.13004,0.0839 z m 0.36672,-0.42784 c 0,-0.0127 0.0481,-0.0608 0.10695,-0.10696 0.0969,-0.076 0.0991,-0.0739 0.0231,0.0231 -0.0798,0.10181 -0.13003,0.13419 -0.13003,0.0839 z m -18.16037,-0.57284 c -0.076,-0.0969 -0.0739,-0.0991 0.0231,-0.0231 0.0588,0.0461 0.10696,0.0943 0.10696,0.10696 0,0.0503 -0.0502,0.0179 -0.13004,-0.0839 z m 9.27553,-0.24666 c -0.0163,-0.0264 0.0213,-0.048 0.0836,-0.048 0.0623,0 0.0999,0.0216 0.0836,0.048 -0.0163,0.0264 -0.0539,0.048 -0.0836,0.048 -0.0297,0 -0.0673,-0.0216 -0.0836,-0.048 z m -9.73194,-0.27285 -0.11643,-0.13752 0.13752,0.11643 c 0.12923,0.10942 0.16534,0.15861 0.11643,0.15861 -0.0116,0 -0.0735,-0.0619 -0.13752,-0.13752 z m 19.47245,0.11444 c 0,-0.0127 0.0481,-0.0608 0.10696,-0.10696 0.0969,-0.076 0.0991,-0.0739 0.0231,0.0231 -0.0798,0.1018 -0.13004,0.13419 -0.13004,0.0839 z m -20.02252,-0.72564 -0.11644,-0.13752 0.13752,0.11643 c 0.12923,0.10942 0.16534,0.15861 0.11644,0.15861 -0.0116,0 -0.0735,-0.0619 -0.13752,-0.13752 z m 20.66428,0.0153 c 0.0608,-0.0672 0.12438,-0.12224 0.14119,-0.12224 0.0168,0 -0.0192,0.055 -0.0801,0.12224 -0.0609,0.0672 -0.12438,0.12224 -0.14119,0.12224 -0.0168,0 0.0192,-0.055 0.0801,-0.12224 z m -21.36598,-0.77928 -0.14817,-0.16808 0.16808,0.14818 c 0.15709,0.13849 0.1961,0.18798 0.14817,0.18798 -0.0109,0 -0.0866,-0.0756 -0.16808,-0.16808 z m 22.06886,0.0153 c 0.0789,-0.084 0.15729,-0.1528 0.1741,-0.1528 0.0168,0 -0.034,0.0688 -0.11298,0.1528 -0.079,0.084 -0.1573,0.1528 -0.17411,0.1528 -0.0168,0 0.034,-0.0688 0.11299,-0.1528 z m -12.59847,-0.32088 c -0.076,-0.0969 -0.0739,-0.0991 0.0231,-0.0231 0.1018,0.0798 0.13419,0.13004 0.0839,0.13004 -0.0127,0 -0.0608,-0.0481 -0.10696,-0.10696 z m -10.56801,-0.85567 -0.33407,-0.35144 0.35144,0.33407 c 0.3265,0.31036 0.37944,0.36881 0.33407,0.36881 -0.01,0 -0.1677,-0.15815 -0.35144,-0.35144 z m 24.23607,0.0458 c 0.16555,-0.16808 0.31476,-0.3056 0.33156,-0.3056 0.0168,0 -0.10489,0.13752 -0.27044,0.3056 -0.16555,0.16808 -0.31475,0.3056 -0.33156,0.3056 -0.0168,0 0.10489,-0.13752 0.27044,-0.3056 z m -14.21814,0.13752 c -0.076,-0.0969 -0.0739,-0.0991 0.0231,-0.0231 0.0588,0.0461 0.10696,0.0943 0.10696,0.10696 0,0.0503 -0.0502,0.0179 -0.13004,-0.0839 z m -0.6112,-0.73344 c -0.076,-0.0969 -0.0739,-0.0991 0.0231,-0.0231 0.0588,0.0461 0.10696,0.0943 0.10696,0.10696 0,0.0503 -0.0502,0.0179 -0.13004,-0.0839 z m -0.3056,-0.36672 c -0.076,-0.0969 -0.0739,-0.0991 0.0231,-0.0231 0.0588,0.0461 0.10696,0.0943 0.10696,0.10696 0,0.0503 -0.0502,0.0179 -0.13004,-0.0839 z m 5.99754,0.0839 c 0,-0.0127 0.0481,-0.0608 0.10696,-0.10696 0.0969,-0.076 0.0991,-0.0739 0.0231,0.0231 -0.0798,0.10181 -0.13004,0.13419 -0.13004,0.0839 z m -6.36425,-0.51172 c -0.076,-0.0969 -0.0739,-0.0991 0.0231,-0.0231 0.0588,0.0461 0.10696,0.0943 0.10696,0.10696 0,0.0503 -0.0502,0.0179 -0.13003,-0.0839 z m 6.73097,0.0839 c 0,-0.0127 0.0481,-0.0608 0.10696,-0.10696 0.0969,-0.076 0.0991,-0.0739 0.0231,0.0231 -0.0798,0.10181 -0.13004,0.13419 -0.13004,0.0839 z m -7.15881,-0.57284 c -0.076,-0.0969 -0.0739,-0.0991 0.0231,-0.0231 0.0588,0.0461 0.10696,0.0943 0.10696,0.10696 0,0.0503 -0.0502,0.0179 -0.13004,-0.0839 z m 7.58665,0.0839 c 0,-0.0127 0.0481,-0.0608 0.10696,-0.10696 0.0969,-0.076 0.0991,-0.0739 0.0231,0.0231 -0.0798,0.10181 -0.13003,0.13419 -0.13003,0.0839 z m -18.49064,-0.84788 -0.36481,-0.382 0.382,0.3648 c 0.35484,0.33888 0.40997,0.3992 0.36481,0.3992 -0.009,0 -0.18136,-0.1719 -0.382,-0.382 z m 19.01015,0.25976 c 0.0609,-0.0672 0.12438,-0.12224 0.14119,-0.12224 0.0168,0 -0.0192,0.055 -0.0801,0.12224 -0.0608,0.0672 -0.12438,0.12224 -0.14118,0.12224 -0.0168,0 0.0192,-0.055 0.0801,-0.12224 z m -8.59512,-0.0458 c -0.076,-0.0969 -0.0739,-0.0991 0.0231,-0.0231 0.10181,0.0798 0.13419,0.13004 0.0839,0.13004 -0.0127,0 -0.0608,-0.0481 -0.10696,-0.10696 z m 19.13573,-0.27504 c 0.25328,-0.26986 0.30815,-0.31838 0.30815,-0.27249 0,0.01 -0.13064,0.14046 -0.29032,0.29032 l -0.29032,0.27249 z m -19.68264,-0.33616 -0.14817,-0.16808 0.16808,0.14817 c 0.1571,0.13849 0.19611,0.18799 0.14817,0.18799 -0.0109,0 -0.0866,-0.0756 -0.16808,-0.16808 z m 9.69211,0.0458 c 0.0608,-0.0672 0.12438,-0.12224 0.14119,-0.12224 0.0168,0 -0.0192,0.055 -0.0801,0.12224 -0.0608,0.0672 -0.12438,0.12224 -0.14119,0.12224 -0.0168,0 0.0192,-0.055 0.0801,-0.12224 z m -10.36442,-0.77928 -0.14818,-0.16808 0.16808,0.14818 c 0.1571,0.13849 0.19611,0.18798 0.14818,0.18798 -0.0109,0 -0.0866,-0.0756 -0.16808,-0.16808 z m 11.0673,0.0153 c 0.0789,-0.084 0.1573,-0.1528 0.1741,-0.1528 0.0168,0 -0.034,0.0688 -0.11298,0.1528 -0.0789,0.084 -0.1573,0.1528 -0.17411,0.1528 -0.0168,0 0.034,-0.0688 0.11299,-0.1528 z m -21.60968,-0.16808 -0.17951,-0.19864 0.19864,0.17952 c 0.18516,0.16733 0.22673,0.21776 0.17951,0.21776 -0.0105,0 -0.0999,-0.0894 -0.19864,-0.19864 z m 32.1834,-0.0153 c 0.0789,-0.084 0.15729,-0.1528 0.1741,-0.1528 0.0168,0 -0.034,0.0688 -0.11298,0.1528 -0.0789,0.084 -0.1573,0.1528 -0.17411,0.1528 -0.0168,0 0.034,-0.0688 0.11299,-0.1528 z m -22.64717,-0.90151 -0.3033,-0.32088 0.32088,0.3033 c 0.29816,0.28183 0.34891,0.33846 0.3033,0.33846 -0.01,0 -0.15407,-0.1444 -0.32088,-0.32088 z m 13.04881,0.0611 c 0.25328,-0.26986 0.30815,-0.31838 0.30815,-0.27249 0,0.01 -0.13064,0.14046 -0.29032,0.29032 l -0.29031,0.27249 z m -23.44268,0.0611 -0.11643,-0.13752 0.13752,0.11643 c 0.12923,0.10942 0.16534,0.15861 0.11643,0.15861 -0.0116,0 -0.0735,-0.0619 -0.13752,-0.13752 z m 33.86615,0.0153 c 0.0608,-0.0672 0.12438,-0.12224 0.14119,-0.12224 0.0168,0 -0.0192,0.055 -0.0801,0.12224 -0.0608,0.0672 -0.12438,0.12224 -0.14118,0.12224 -0.0168,0 0.0192,-0.055 0.0801,-0.12224 z m -34.59958,-0.6876 -0.11644,-0.13752 0.13752,0.11643 c 0.12923,0.10942 0.16534,0.15861 0.11644,0.15861 -0.0116,0 -0.0735,-0.0619 -0.13752,-0.13752 z m 35.33302,0.0153 c 0.0608,-0.0672 0.12438,-0.12224 0.14119,-0.12224 0.0168,0 -0.0192,0.055 -0.0801,0.12224 -0.0608,0.0672 -0.12438,0.12224 -0.14119,0.12224 -0.0168,0 0.0192,-0.055 0.0801,-0.12224 z m -35.94422,-0.56536 -0.11643,-0.13752 0.13752,0.11643 c 0.0756,0.064 0.13751,0.12592 0.13751,0.13752 0,0.0489 -0.0492,0.0128 -0.1586,-0.11643 z m 36.55542,0.0153 c 0.0608,-0.0672 0.12438,-0.12224 0.14118,-0.12224 0.0168,0 -0.0192,0.055 -0.0801,0.12224 -0.0608,0.0672 -0.12438,0.12224 -0.14119,0.12224 -0.0168,0 0.0192,-0.055 0.0801,-0.12224 z m -37.13805,-0.5348 c -0.076,-0.0969 -0.0739,-0.0991 0.0231,-0.0231 0.0588,0.0461 0.10696,0.0943 0.10696,0.10696 0,0.0503 -0.0502,0.0179 -0.13004,-0.0839 z m 37.65756,0.0839 c 0,-0.0127 0.0481,-0.0608 0.10696,-0.10696 0.0969,-0.076 0.0991,-0.0739 0.0231,0.0231 -0.0798,0.10181 -0.13004,0.13419 -0.13004,0.0839 z m -38.14652,-0.51172 c -0.076,-0.0969 -0.0739,-0.0991 0.0231,-0.0231 0.10181,0.0798 0.13419,0.13003 0.0839,0.13003 -0.0127,0 -0.0608,-0.0481 -0.10696,-0.10696 z m 38.63548,0.0839 c 0,-0.0127 0.0481,-0.0608 0.10696,-0.10696 0.0969,-0.076 0.0991,-0.0739 0.0231,0.0231 -0.0798,0.10181 -0.13004,0.13419 -0.13004,0.0839 z m -39.12444,-0.51172 c -0.076,-0.0969 -0.0739,-0.0991 0.0231,-0.0231 0.0588,0.0461 0.10696,0.0943 0.10696,0.10696 0,0.0503 -0.0502,0.0179 -0.13004,-0.0839 z m -0.48896,-0.42784 c -0.076,-0.0969 -0.0739,-0.0991 0.0231,-0.0231 0.10181,0.0798 0.13419,0.13004 0.0839,0.13004 -0.0127,0 -0.0608,-0.0481 -0.10696,-0.10696 z m 40.59132,0.0839 c 0,-0.0127 0.0481,-0.0608 0.10696,-0.10696 0.0969,-0.076 0.0991,-0.0739 0.0231,0.0231 -0.0799,0.10181 -0.13004,0.13419 -0.13004,0.0839 z m -41.01915,-0.4506 c -0.076,-0.0969 -0.0739,-0.0991 0.0231,-0.0231 0.1018,0.0798 0.13418,0.13004 0.0839,0.13004 -0.0127,0 -0.0608,-0.0481 -0.10696,-0.10696 z m 10.70375,-0.2292 c -0.14846,-0.15127 -0.25618,-0.27504 -0.23937,-0.27504 0.0168,0 0.15203,0.12377 0.30049,0.27504 0.14846,0.15127 0.25618,0.27504 0.23937,0.27504 -0.0168,0 -0.15203,-0.12377 -0.30049,-0.27504 z m 20.10585,0.0153 c 0.14986,-0.15967 0.2805,-0.29032 0.29031,-0.29032 0.0459,0 -0.003,0.0549 -0.27248,0.30816 l -0.29032,0.27248 z m -31.23744,-0.1528 c -0.076,-0.0969 -0.0739,-0.0991 0.0231,-0.0231 0.0588,0.0461 0.10696,0.0943 0.10696,0.10696 0,0.0503 -0.0502,0.0179 -0.13004,-0.0839 z m 42.30267,0.0839 c 0,-0.0127 0.0481,-0.0608 0.10695,-0.10696 0.097,-0.076 0.0991,-0.0739 0.0231,0.0231 -0.0798,0.10181 -0.13003,0.13419 -0.13003,0.0839 z m -43.09723,-0.7562 c -0.076,-0.0969 -0.0739,-0.0991 0.0231,-0.0231 0.10181,0.0798 0.13419,0.13004 0.0839,0.13004 -0.0127,0 -0.0608,-0.0481 -0.10696,-0.10696 z m 43.89178,0.0839 c 0,-0.0127 0.0481,-0.0608 0.10696,-0.10696 0.0969,-0.076 0.0991,-0.0739 0.0231,0.0231 -0.0798,0.10181 -0.13004,0.13419 -0.13004,0.0839 z m -33.13019,-0.38947 -0.21063,-0.2292 0.2292,0.21063 c 0.21333,0.19604 0.2573,0.24776 0.21063,0.24776 -0.0102,0 -0.11336,-0.10314 -0.2292,-0.22919 z m 22.43424,0.0153 c 0.11403,-0.11765 0.22108,-0.21391 0.23789,-0.21391 0.0168,0 -0.0627,0.0963 -0.17677,0.21391 -0.11404,0.11766 -0.22109,0.21392 -0.2379,0.21392 -0.0168,0 0.0627,-0.0963 0.17678,-0.21392 z m -33.56255,-0.0153 c -0.076,-0.097 -0.0739,-0.0991 0.0231,-0.0231 0.0588,0.0461 0.10696,0.0943 0.10696,0.10696 0,0.0503 -0.0502,0.0179 -0.13004,-0.0839 z m 10.27129,-0.79456 -0.14817,-0.16808 0.16808,0.14817 c 0.1571,0.13849 0.19611,0.18799 0.14817,0.18799 -0.0109,0 -0.0866,-0.0756 -0.16808,-0.16808 z m 24.14693,0.0153 c 0.079,-0.084 0.1573,-0.1528 0.17411,-0.1528 0.0168,0 -0.034,0.0688 -0.11299,0.1528 -0.0789,0.084 -0.1573,0.1528 -0.1741,0.1528 -0.0168,0 0.034,-0.0688 0.11298,-0.1528 z m -24.85098,-0.65704 -0.11644,-0.13752 0.13752,0.11643 c 0.12923,0.10942 0.16534,0.15861 0.11644,0.15861 -0.0116,0 -0.0735,-0.0619 -0.13752,-0.13752 z m 25.55386,0.0153 c 0.0608,-0.0672 0.12438,-0.12224 0.14119,-0.12224 0.0168,0 -0.0192,0.055 -0.0801,0.12224 -0.0608,0.0672 -0.12438,0.12224 -0.14119,0.12224 -0.0168,0 0.0192,-0.055 0.0801,-0.12224 z m -26.16506,-0.56536 -0.11643,-0.13752 0.13752,0.11644 c 0.0756,0.064 0.13751,0.12592 0.13751,0.13752 0,0.0489 -0.0492,0.0128 -0.1586,-0.11644 z m 26.77626,0.0153 c 0.0608,-0.0672 0.12438,-0.12224 0.14118,-0.12224 0.0168,0 -0.0192,0.055 -0.0801,0.12224 -0.0608,0.0672 -0.12438,0.12224 -0.14119,0.12224 -0.0168,0 0.0192,-0.055 0.0801,-0.12224 z m -27.32634,-0.50423 -0.11643,-0.13752 0.13752,0.11643 c 0.0756,0.064 0.13752,0.12592 0.13752,0.13752 0,0.0489 -0.0492,0.0128 -0.15861,-0.11643 z m 27.87641,0.0153 c 0.0608,-0.0672 0.12438,-0.12223 0.14119,-0.12223 0.0168,0 -0.0192,0.055 -0.0801,0.12223 -0.0608,0.0672 -0.12437,0.12224 -0.14118,0.12224 -0.0168,0 0.0192,-0.055 0.0801,-0.12224 z M 113.687,223.35012 c -0.076,-0.0969 -0.0739,-0.0991 0.0231,-0.0231 0.10181,0.0798 0.13419,0.13004 0.0839,0.13004 -0.0127,0 -0.0608,-0.0481 -0.10696,-0.10696 z m 28.85632,0.0839 c 0,-0.0127 0.0481,-0.0608 0.10696,-0.10696 0.0969,-0.076 0.0991,-0.0739 0.0231,0.0231 -0.0798,0.1018 -0.13004,0.13419 -0.13004,0.0839 z m -29.34528,-0.51172 c -0.076,-0.0969 -0.0739,-0.0991 0.0231,-0.0231 0.0588,0.0461 0.10696,0.0943 0.10696,0.10696 0,0.0503 -0.0502,0.0179 -0.13004,-0.0839 z m 29.83424,0.0839 c 0,-0.0127 0.0481,-0.0608 0.10696,-0.10696 0.0969,-0.076 0.0991,-0.0739 0.0231,0.0231 -0.0798,0.10181 -0.13004,0.13419 -0.13004,0.0839 z m -30.29064,-0.48116 -0.11644,-0.13752 0.13752,0.11643 c 0.12924,0.10942 0.16534,0.15861 0.11644,0.15861 -0.0116,0 -0.0735,-0.0619 -0.13752,-0.13752 z m 30.7796,0.0533 c 0,-0.0127 0.0481,-0.0608 0.10696,-0.10696 0.0969,-0.076 0.0991,-0.0739 0.0231,0.0231 -0.0799,0.10181 -0.13004,0.13419 -0.13004,0.0839 z m -31.23999,-0.4506 c -0.076,-0.0969 -0.0739,-0.0991 0.0231,-0.0231 0.1018,0.0799 0.13418,0.13004 0.0839,0.13004 -0.0127,0 -0.0608,-0.0481 -0.10696,-0.10696 z m 31.66783,0.0839 c 0,-0.0127 0.0481,-0.0608 0.10696,-0.10696 0.0969,-0.076 0.0991,-0.0739 0.0231,0.0231 -0.0798,0.10181 -0.13004,0.13419 -0.13004,0.0839 z m -32.09567,-0.4506 c -0.076,-0.0969 -0.0739,-0.0991 0.0231,-0.0231 0.0588,0.0461 0.10696,0.0943 0.10696,0.10696 0,0.0503 -0.0502,0.0179 -0.13004,-0.0839 z m 32.52351,0.0839 c 0,-0.0127 0.0481,-0.0608 0.10695,-0.10696 0.0969,-0.076 0.0991,-0.0739 0.0231,0.0231 -0.0798,0.10181 -0.13003,0.13419 -0.13003,0.0839 z m -32.95135,-0.4506 c -0.076,-0.0969 -0.0739,-0.0991 0.0231,-0.0231 0.10181,0.0798 0.13419,0.13003 0.0839,0.13003 -0.0127,0 -0.0608,-0.0481 -0.10696,-0.10696 z m 33.37918,0.0839 c 0,-0.0127 0.0481,-0.0608 0.10696,-0.10696 0.0969,-0.076 0.0991,-0.0739 0.0231,0.0231 -0.0798,0.10181 -0.13004,0.13419 -0.13004,0.0839 z m -33.7459,-0.38948 c -0.076,-0.097 -0.0739,-0.0991 0.0231,-0.0231 0.10181,0.0798 0.13419,0.13004 0.0839,0.13004 -0.0127,0 -0.0608,-0.0481 -0.10696,-0.10696 z m 34.11262,0.0839 c 0,-0.0127 0.0481,-0.0608 0.10696,-0.10696 0.0969,-0.076 0.0991,-0.0739 0.0231,0.0231 -0.0798,0.1018 -0.13004,0.13418 -0.13004,0.0839 z m -34.90718,-0.7562 c -0.076,-0.0969 -0.0739,-0.0991 0.0231,-0.0231 0.0588,0.0461 0.10696,0.0943 0.10696,0.10696 0,0.0503 -0.0502,0.0179 -0.13004,-0.0839 z m 35.70174,0.0839 c 0,-0.0127 0.0481,-0.0608 0.10696,-0.10696 0.0969,-0.076 0.0991,-0.0739 0.0231,0.0231 -0.0798,0.10181 -0.13004,0.13419 -0.13004,0.0839 z m 0.36672,-0.3056 c 0,-0.0127 0.0481,-0.0608 0.10696,-0.10696 0.0969,-0.076 0.0991,-0.0739 0.0231,0.0231 -0.0799,0.10181 -0.13004,0.13419 -0.13004,0.0839 z m -37.10749,-0.63396 c -0.076,-0.0969 -0.0739,-0.0991 0.0231,-0.0231 0.1018,0.0798 0.13419,0.13004 0.0839,0.13004 -0.0127,0 -0.0608,-0.0481 -0.10696,-0.10696 z m 38.14652,-0.22172 c 0,-0.0127 0.0481,-0.0608 0.10696,-0.10696 0.0969,-0.076 0.0991,-0.0739 0.0231,0.0231 -0.0799,0.10181 -0.13004,0.13419 -0.13004,0.0839 z m -38.81884,-0.32836 c -0.076,-0.0969 -0.0739,-0.0991 0.0231,-0.0231 0.0588,0.0461 0.10696,0.0943 0.10696,0.10696 0,0.0503 -0.0502,0.0179 -0.13004,-0.0839 z m 39.49116,-0.22171 c 0,-0.0127 0.0481,-0.0608 0.10696,-0.10696 0.0969,-0.076 0.0991,-0.0739 0.0231,0.0231 -0.0798,0.1018 -0.13004,0.13418 -0.13004,0.0839 z m 2.13919,-1.71136 c 0,-0.0127 0.0481,-0.0608 0.10696,-0.10696 0.0969,-0.076 0.0991,-0.0739 0.0231,0.0231 -0.0799,0.10181 -0.13004,0.13419 -0.13004,0.0839 z m -45.29753,-1.00067 c -0.076,-0.097 -0.0739,-0.0991 0.0231,-0.0231 0.1018,0.0798 0.13418,0.13004 0.0839,0.13004 -0.0127,0 -0.0608,-0.0481 -0.10696,-0.10696 z m 46.45881,0.0839 c 0,-0.0127 0.0481,-0.0608 0.10696,-0.10696 0.0969,-0.076 0.0991,-0.0739 0.0231,0.0231 -0.0799,0.1018 -0.13004,0.13418 -0.13004,0.0839 z M 88.513462,203.85572 c -1.46229,-1.06177 -4.405206,-3.19731 -6.539814,-4.74567 -7.455503,-5.4079 -11.465607,-8.40336 -16.532893,-12.34968 C 54.068698,177.90399 44.792261,169.39901 37.53575,161.17605 35.070066,158.38198 33.112095,155.99406 30.998302,153.20307 17.340304,135.16946 10.076332,115.3856 8.8140857,92.783044 8.6481804,89.812245 8.6307631,87.446103 8.630364,67.824364 8.6299972,50.810835 8.643805,47.302187 8.710904,47.327936 c 0.4507075,0.172952 3.236427,1.010908 4.686383,1.409683 4.601207,1.26545 8.516658,1.992839 12.774027,2.373086 1.162066,0.103789 4.9257,0.103108 5.867497,-0.0011 3.274067,-0.362137 5.41823,-0.93139 7.505023,-1.992507 1.371657,-0.697476 2.294565,-1.346823 3.304313,-2.324874 1.086844,-1.052726 1.817021,-2.057064 2.489721,-3.424539 0.674817,-1.37178 1.08719,-2.827596 1.286246,-4.540891 0.143958,-1.239063 0.0877,-3.539423 -0.119887,-4.902111 -0.540443,-3.547693 -1.89185,-7.497037 -4.018661,-11.744113 l -0.417761,-0.834237 0.287642,-0.09339 c 0.158202,-0.05136 0.92023,-0.285746 1.693395,-0.520849 13.698929,-4.165571 28.822327,-7.304312 44.49518,-9.23462 1.37825,-0.169749 2.588421,-0.320684 2.689269,-0.335411 0.100847,-0.01473 0.148979,-0.0126 0.106959,0.0047 -0.06102,0.02517 -0.0764,9.15156 -0.0764,45.343951 v 45.312436 l -0.19864,0.0345 c -0.109251,0.019 -8.381046,1.0243 -18.381765,2.2341 -10.000719,1.2098 -18.207092,2.20741 -18.236383,2.21692 -0.03699,0.012 33.235487,30.01249 36.624798,33.02313 l 0.205295,0.18236 -0.34007,2.07551 c -0.187039,1.14154 -2.006256,12.22302 -4.042711,24.62552 -2.036449,12.40251 -3.694793,22.58603 -3.685203,22.63006 0.01081,0.0496 1.544441,-0.83637 4.036055,-2.33169 l 4.018624,-2.41176 v 10.84581 c 0,5.96519 -0.02063,10.84418 -0.04584,10.84218 -0.02521,-0.002 -1.242259,-0.87235 -2.704549,-1.93412 z M 203.90755,185.72311 c 0,-0.0127 0.0481,-0.0608 0.10696,-0.10696 0.0969,-0.076 0.0991,-0.0739 0.0231,0.0231 -0.0798,0.10181 -0.13004,0.13419 -0.13004,0.0839 z m -152.746053,-1.0618 c -0.07602,-0.0969 -0.07386,-0.0991 0.02308,-0.0231 0.05883,0.0461 0.10696,0.0943 0.10696,0.10696 0,0.0503 -0.05019,0.0179 -0.130036,-0.0839 z m 153.907333,0.0839 c 0,-0.0127 0.0481,-0.0608 0.10696,-0.10696 0.0969,-0.076 0.0991,-0.0739 0.0231,0.0231 -0.0798,0.10181 -0.13004,0.13419 -0.13004,0.0839 z m -154.335171,-0.4506 c -0.07603,-0.0969 -0.07386,-0.0991 0.02308,-0.0231 0.10181,0.0798 0.134187,0.13003 0.08388,0.13003 -0.01269,0 -0.06082,-0.0481 -0.106959,-0.10696 z m 154.763011,0.0839 c 0,-0.0127 0.0481,-0.0608 0.10696,-0.10696 0.0969,-0.076 0.0991,-0.0739 0.0231,0.0231 -0.0798,0.10181 -0.13004,0.13419 -0.13004,0.0839 z m -155.19085,-0.4506 c -0.07602,-0.0969 -0.07386,-0.0991 0.02308,-0.0231 0.05883,0.0461 0.106959,0.0943 0.106959,0.10696 0,0.0503 -0.05019,0.0179 -0.130036,-0.0839 z m 155.61869,0.0839 c 0,-0.0127 0.0481,-0.0608 0.10696,-0.10696 0.0969,-0.076 0.0991,-0.0739 0.0231,0.0231 -0.0798,0.1018 -0.13003,0.13418 -0.13003,0.0839 z m -156.046528,-0.4506 c -0.07603,-0.0969 -0.07386,-0.0991 0.02308,-0.0231 0.05883,0.0461 0.10696,0.0943 0.10696,0.10696 0,0.0503 -0.05019,0.0179 -0.130036,-0.0839 z m -0.488958,-0.42784 c -0.07603,-0.0969 -0.07386,-0.0991 0.02308,-0.0231 0.05883,0.0461 0.10696,0.0943 0.10696,0.10696 0,0.0503 -0.05019,0.0179 -0.130036,-0.0839 z m 157.452276,0.0839 c 0,-0.0127 0.0481,-0.0608 0.10696,-0.10696 0.0969,-0.076 0.0991,-0.0739 0.0231,0.0231 -0.0798,0.10181 -0.13004,0.13419 -0.13004,0.0839 z m 0.48896,-0.42784 c 0,-0.0127 0.0481,-0.0608 0.10696,-0.10696 0.0969,-0.076 0.0991,-0.0739 0.0231,0.0231 -0.0798,0.10181 -0.13004,0.13419 -0.13004,0.0839 z M 48.411108,182.27764 c -0.07603,-0.0969 -0.07386,-0.0991 0.02308,-0.0231 0.101811,0.0798 0.134188,0.13004 0.08388,0.13004 -0.01269,0 -0.06082,-0.0481 -0.10696,-0.10696 z m 159.408112,0.0839 c 0,-0.0127 0.0481,-0.0608 0.10696,-0.10696 0.0969,-0.076 0.0991,-0.0739 0.0231,0.0231 -0.0799,0.10181 -0.13004,0.13419 -0.13004,0.0839 z M 47.92215,181.8498 c -0.07603,-0.0969 -0.07386,-0.0991 0.02308,-0.0231 0.05883,0.0461 0.10696,0.0943 0.10696,0.10696 0,0.0503 -0.05019,0.0179 -0.130036,-0.0839 z m 160.38603,0.0839 c 0,-0.0127 0.0481,-0.0608 0.10696,-0.10696 0.0969,-0.076 0.0991,-0.0739 0.0231,0.0231 -0.0798,0.10181 -0.13003,0.13419 -0.13003,0.0839 z M 47.433192,181.42197 c -0.07603,-0.0969 -0.07386,-0.0991 0.02308,-0.0231 0.05883,0.0461 0.10696,0.0943 0.10696,0.10696 0,0.0503 -0.05019,0.0179 -0.130036,-0.0839 z m 161.455618,-0.0153 c 0.0608,-0.0672 0.12438,-0.12224 0.14119,-0.12224 0.0168,0 -0.0192,0.055 -0.0801,0.12224 -0.0608,0.0672 -0.12438,0.12224 -0.14118,0.12224 -0.0168,0 0.0192,-0.055 0.0801,-0.12224 z m -162.066816,-0.5348 c -0.07602,-0.0969 -0.07386,-0.0991 0.02308,-0.0231 0.05883,0.0461 0.106959,0.0943 0.106959,0.10696 0,0.0503 -0.05019,0.0179 -0.130036,-0.0839 z m 162.586336,0.0839 c 0,-0.0127 0.0481,-0.0608 0.10696,-0.10696 0.0969,-0.076 0.0991,-0.0739 0.0231,0.0231 -0.0798,0.10181 -0.13004,0.13419 -0.13004,0.0839 z m -163.164984,-0.6034 -0.116432,-0.13752 0.137519,0.11643 c 0.129234,0.10942 0.165344,0.15861 0.116433,0.15861 -0.0116,0 -0.07348,-0.0619 -0.13752,-0.13752 z m 163.776184,0.0533 c 0,-0.0127 0.0481,-0.0608 0.10696,-0.10696 0.0969,-0.076 0.0991,-0.0739 0.0231,0.0231 -0.0799,0.10181 -0.13004,0.13419 -0.13004,0.0839 z m -164.448501,-0.66452 -0.116432,-0.13752 0.137519,0.11644 c 0.07564,0.064 0.137519,0.12592 0.137519,0.13752 0,0.0489 -0.04919,0.0128 -0.158606,-0.11644 z m 165.151381,0.0153 c 0.0608,-0.0672 0.12437,-0.12224 0.14118,-0.12224 0.0168,0 -0.0192,0.055 -0.0801,0.12224 -0.0609,0.0672 -0.12438,0.12224 -0.14119,0.12224 -0.0168,0 0.0192,-0.055 0.0801,-0.12224 z m -165.823698,-0.62647 -0.116433,-0.13752 0.13752,0.11643 c 0.07564,0.064 0.137519,0.12592 0.137519,0.13752 0,0.0489 -0.04919,0.0128 -0.158606,-0.11643 z m 166.526568,-0.0153 c 0.079,-0.084 0.1573,-0.1528 0.17411,-0.1528 0.0168,0 -0.034,0.0688 -0.11299,0.1528 -0.0789,0.084 -0.15729,0.15279 -0.1741,0.15279 -0.0168,0 0.034,-0.0688 0.11298,-0.15279 z m -167.350504,-0.74872 -0.148173,-0.16808 0.168079,0.14817 c 0.09244,0.0815 0.168079,0.15713 0.168079,0.16808 0,0.0479 -0.04949,0.009 -0.187985,-0.14817 z M 212.2504,178.3507 c 0.0608,-0.0672 0.12438,-0.12224 0.14119,-0.12224 0.0168,0 -0.0192,0.055 -0.0801,0.12224 -0.0608,0.0672 -0.12438,0.12224 -0.14119,0.12224 -0.0168,0 0.0192,-0.055 0.0801,-0.12224 z m -169.061079,-0.80984 -0.179515,-0.19864 0.19864,0.17952 c 0.109251,0.0987 0.198639,0.18812 0.198639,0.19864 0,0.0472 -0.05043,0.006 -0.217764,-0.17952 z m 169.947319,-0.0153 c 0.11403,-0.11765 0.22108,-0.21392 0.23789,-0.21392 0.0168,0 -0.0627,0.0963 -0.17677,0.21392 -0.11404,0.11766 -0.22109,0.21392 -0.2379,0.21392 -0.0168,0 0.0627,-0.0963 0.17678,-0.21392 z m -171.107625,-1.08487 -0.241604,-0.25976 0.259759,0.2416 c 0.241574,0.22469 0.287846,0.27792 0.241604,0.27792 -0.01,0 -0.126878,-0.1169 -0.259759,-0.25976 z m 172.266345,0 c 0.25328,-0.26986 0.30815,-0.31838 0.30815,-0.27249 0,0.01 -0.13064,0.14046 -0.29032,0.29032 l -0.29032,0.27248 z m -174.281464,-1.95584 -0.671275,-0.68759 0.687598,0.67127 c 0.638667,0.62351 0.715351,0.70392 0.671275,0.70392 -0.009,0 -0.318396,-0.30942 -0.687598,-0.6876 z m 176.637124,-0.35143 c 0.46973,-0.47063 0.86779,-0.85568 0.8846,-0.85568 0.0168,0 -0.35375,0.38505 -0.82348,0.85568 -0.46972,0.47062 -0.86779,0.85567 -0.8846,0.85567 -0.0168,0 0.35376,-0.38505 0.82348,-0.85567 z m -177.558685,-0.56536 -0.116432,-0.13752 0.137519,0.11643 c 0.129234,0.10942 0.165344,0.15861 0.116433,0.15861 -0.0116,0 -0.07348,-0.0619 -0.13752,-0.13752 z m 179.239485,-1.11544 c 0.41918,-0.4202 0.77591,-0.76399 0.79272,-0.76399 0.0168,0 -0.31242,0.34379 -0.73161,0.76399 -0.41918,0.4202 -0.77591,0.764 -0.79272,0.764 -0.0168,0 0.31242,-0.3438 0.73161,-0.764 z m -180.42643,-0.0764 -0.76308,-0.77927 0.779277,0.76308 c 0.428602,0.41969 0.779277,0.77036 0.779277,0.77927 0,0.0439 -0.08665,-0.0392 -0.795474,-0.76308 z m 182.41282,-1.97111 c 0.13129,-0.13446 0.25248,-0.24448 0.26928,-0.24448 0.0168,0 -0.0769,0.11002 -0.20816,0.24448 -0.1313,0.13446 -0.25248,0.24448 -0.26929,0.24448 -0.0168,0 0.0769,-0.11002 0.20817,-0.24448 z m -184.371025,-0.0458 -0.210629,-0.2292 0.229199,0.21063 c 0.126059,0.11585 0.229199,0.21899 0.229199,0.2292 0,0.0467 -0.05172,0.003 -0.247769,-0.21063 z m 185.379495,-1.02376 c 0.0789,-0.084 0.1573,-0.15279 0.17411,-0.15279 0.0168,0 -0.034,0.0688 -0.11299,0.15279 -0.0789,0.084 -0.1573,0.1528 -0.1741,0.1528 -0.0168,0 0.034,-0.0688 0.11298,-0.1528 z m -186.419867,-0.0764 -0.148173,-0.16808 0.168079,0.14817 c 0.09244,0.0815 0.16808,0.15713 0.16808,0.16808 0,0.0479 -0.0495,0.009 -0.187986,-0.14817 z M 221.999,168.61353 c 0,-0.0105 0.0894,-0.0999 0.19864,-0.19864 l 0.19864,-0.17951 -0.17952,0.19864 c -0.16733,0.18516 -0.21776,0.22673 -0.21776,0.17951 z m -187.886744,-0.21007 -0.148173,-0.16808 0.168079,0.14817 c 0.09244,0.0815 0.16808,0.15713 0.16808,0.16808 0,0.0479 -0.0495,0.009 -0.187986,-0.14817 z M 222.763,167.77698 c 0.0608,-0.0672 0.12438,-0.12224 0.14118,-0.12224 0.0168,0 -0.0192,0.055 -0.0801,0.12224 -0.0608,0.0672 -0.12438,0.12224 -0.14119,0.12224 -0.0168,0 0.0192,-0.055 0.0801,-0.12224 z m -189.293682,-0.0764 -0.116432,-0.13752 0.137519,0.11644 c 0.129234,0.10941 0.165344,0.1586 0.116433,0.1586 -0.0116,0 -0.07348,-0.0619 -0.13752,-0.13752 z m 189.904872,-0.59592 c 0.0608,-0.0672 0.12438,-0.12224 0.14119,-0.12224 0.0168,0 -0.0192,0.055 -0.0801,0.12224 -0.0608,0.0672 -0.12437,0.12224 -0.14118,0.12224 -0.0168,0 0.0192,-0.055 0.0801,-0.12224 z m -190.487499,-0.0458 c -0.07603,-0.0969 -0.07386,-0.0991 0.02308,-0.0231 0.05883,0.0461 0.10696,0.0943 0.10696,0.10695 0,0.0503 -0.05019,0.0179 -0.130036,-0.0839 z m -0.517528,-0.58063 -0.116433,-0.13752 0.13752,0.11643 c 0.07563,0.064 0.137519,0.12592 0.137519,0.13752 0,0.0489 -0.04919,0.0128 -0.158606,-0.11643 z m 191.463427,0.11444 c 0,-0.0127 0.0481,-0.0608 0.10696,-0.10696 0.0969,-0.076 0.0991,-0.0739 0.0231,0.0231 -0.0798,0.1018 -0.13004,0.13418 -0.13004,0.0839 z m -191.952385,-0.66452 -0.116433,-0.13752 0.137519,0.11643 c 0.129235,0.10942 0.165344,0.15861 0.116433,0.15861 -0.0116,0 -0.07348,-0.0619 -0.137519,-0.13752 z m 192.441345,0.11444 c 0,-0.0127 0.0481,-0.0608 0.10696,-0.10696 0.0969,-0.076 0.0991,-0.0739 0.0231,0.0231 -0.0799,0.10181 -0.13004,0.13419 -0.13004,0.0839 z m -192.901733,-0.634 c -0.07602,-0.0969 -0.07386,-0.0991 0.02308,-0.0231 0.05883,0.0461 0.10696,0.0943 0.10696,0.10696 0,0.0503 -0.05019,0.0179 -0.130036,-0.0839 z m 193.757413,-0.34396 c 0,-0.0127 0.0481,-0.0608 0.10696,-0.10696 0.0969,-0.076 0.0991,-0.0739 0.0231,0.0231 -0.0798,0.10181 -0.13004,0.13419 -0.13004,0.0839 z M 30.62526,164.49179 c -0.07603,-0.0969 -0.07386,-0.0991 0.02308,-0.0231 0.05883,0.0461 0.106959,0.0943 0.106959,0.10696 0,0.0503 -0.05019,0.0179 -0.130036,-0.0839 z m 194.97981,0.0839 c 0,-0.0127 0.0481,-0.0608 0.10696,-0.10696 0.0969,-0.076 0.0991,-0.0739 0.0231,0.0231 -0.0798,0.10181 -0.13003,0.13419 -0.13003,0.0839 z M 30.258542,164.06396 c -0.07602,-0.097 -0.07386,-0.0991 0.02308,-0.0231 0.05883,0.0461 0.10696,0.0943 0.10696,0.10696 0,0.0503 -0.05019,0.0179 -0.130036,-0.0839 z m 195.713238,0.0839 c 0,-0.0127 0.0481,-0.0608 0.10696,-0.10696 0.0969,-0.076 0.0991,-0.0739 0.0231,0.0231 -0.0798,0.1018 -0.13004,0.13418 -0.13004,0.0839 z m 0.67232,-0.79456 c 0,-0.0127 0.0481,-0.0608 0.10696,-0.10696 0.0969,-0.076 0.0991,-0.0739 0.0231,0.0231 -0.0798,0.10181 -0.13004,0.13419 -0.13004,0.0839 z M 28.363829,161.80253 c -0.07602,-0.0969 -0.07386,-0.0991 0.02308,-0.0231 0.05883,0.0461 0.106959,0.0943 0.106959,0.10696 0,0.0503 -0.05019,0.0179 -0.130036,-0.0839 z M 164.65721,102.0315 c 0.0441,-0.0177 0.0968,-0.0155 0.11715,0.005 0.0203,0.0203 -0.0158,0.0348 -0.0802,0.0321 -0.0712,-0.003 -0.0857,-0.0174 -0.0369,-0.0369 z m -1.03903,-0.12224 c 0.0441,-0.0177 0.0968,-0.0155 0.11715,0.005 0.0203,0.0203 -0.0158,0.0348 -0.0802,0.0321 -0.0712,-0.003 -0.0857,-0.0174 -0.0369,-0.0369 z m -0.48896,-0.0611 c 0.0441,-0.0177 0.0968,-0.0155 0.11715,0.005 0.0203,0.0203 -0.0158,0.0348 -0.0802,0.0321 -0.0712,-0.003 -0.0857,-0.0174 -0.0369,-0.0369 z m -71.510111,-0.0611 c 0.04412,-0.0177 0.09684,-0.0155 0.117148,0.005 0.02031,0.0203 -0.01579,0.0348 -0.08022,0.0321 -0.0712,-0.003 -0.08568,-0.0174 -0.03693,-0.0369 z m 70.471071,-0.0611 c 0.0441,-0.0177 0.0968,-0.0155 0.11715,0.005 0.0203,0.0203 -0.0158,0.0348 -0.0802,0.0321 -0.0712,-0.003 -0.0857,-0.0174 -0.0369,-0.0369 z m -69.432035,-0.0611 c 0.04412,-0.0177 0.09684,-0.0155 0.117148,0.005 0.02031,0.0203 -0.01579,0.0347 -0.08022,0.0321 -0.07121,-0.003 -0.08568,-0.0174 -0.03693,-0.0369 z m 68.943085,0 c 0.0441,-0.0177 0.0968,-0.0155 0.11714,0.005 0.0203,0.0203 -0.0158,0.0347 -0.0802,0.0321 -0.0712,-0.003 -0.0857,-0.0174 -0.0369,-0.0369 z m -68.454127,-0.0611 c 0.04412,-0.0177 0.09684,-0.0155 0.117148,0.005 0.02031,0.0203 -0.01579,0.0348 -0.08022,0.0321 -0.07121,-0.003 -0.08568,-0.0174 -0.03693,-0.0369 z m 67.904047,0 c 0.0441,-0.0177 0.0968,-0.0155 0.11715,0.005 0.0203,0.0203 -0.0158,0.0348 -0.0802,0.0321 -0.0712,-0.003 -0.0857,-0.0174 -0.0369,-0.0369 z m -67.415089,-0.0611 c 0.04412,-0.0177 0.09684,-0.0155 0.117148,0.005 0.02031,0.0203 -0.01579,0.0348 -0.08022,0.0321 -0.0712,-0.003 -0.08568,-0.0174 -0.03693,-0.0369 z m 66.926129,0 c 0.0441,-0.0177 0.0968,-0.0155 0.11715,0.005 0.0203,0.0203 -0.0158,0.0348 -0.0802,0.0321 -0.0712,-0.003 -0.0857,-0.0174 -0.0369,-0.0369 z M 94.675097,101.4203 c 0.04412,-0.0177 0.09684,-0.0155 0.117148,0.005 0.02031,0.0203 -0.01579,0.0348 -0.08022,0.0321 -0.0712,-0.003 -0.08568,-0.0174 -0.03693,-0.0369 z m 64.848053,0 c 0.0441,-0.0177 0.0968,-0.0155 0.11715,0.005 0.0203,0.0203 -0.0158,0.0348 -0.0802,0.0321 -0.0712,-0.003 -0.0857,-0.0174 -0.0369,-0.0369 z m -64.359095,-0.0611 c 0.04412,-0.0177 0.09684,-0.0155 0.117148,0.005 0.02031,0.0203 -0.01579,0.0348 -0.08022,0.0321 -0.0712,-0.003 -0.08568,-0.0174 -0.03693,-0.0369 z m 63.870145,0 c 0.0441,-0.0177 0.0968,-0.0155 0.11714,0.005 0.0203,0.0203 -0.0158,0.0348 -0.0802,0.0321 -0.0712,-0.003 -0.0857,-0.0174 -0.0369,-0.0369 z m -63.381187,-0.0611 c 0.04412,-0.0177 0.09684,-0.0155 0.117148,0.005 0.02031,0.0203 -0.01579,0.0348 -0.08022,0.0321 -0.0712,-0.003 -0.08568,-0.0174 -0.03693,-0.0369 z m 62.342147,-0.0611 c 0.0441,-0.0177 0.0968,-0.0155 0.11715,0.005 0.0203,0.0203 -0.0158,0.0348 -0.0802,0.0321 -0.0712,-0.003 -0.0857,-0.0174 -0.0369,-0.0369 z m -61.303111,-0.0611 c 0.04412,-0.0177 0.09684,-0.0155 0.117148,0.005 0.02031,0.0203 -0.01579,0.0348 -0.08022,0.0321 -0.0712,-0.003 -0.08568,-0.0174 -0.03693,-0.0369 z m 60.814151,0 c 0.0441,-0.0177 0.0968,-0.0155 0.11715,0.005 0.0203,0.0203 -0.0158,0.0348 -0.0802,0.0321 -0.0712,-0.003 -0.0857,-0.0174 -0.0369,-0.0369 z m -60.325193,-0.0611 c 0.04412,-0.0177 0.09684,-0.0155 0.117148,0.005 0.02031,0.0203 -0.01579,0.0348 -0.08022,0.0321 -0.0712,-0.003 -0.08568,-0.0174 -0.03693,-0.0369 z m 59.775113,0 c 0.0441,-0.0177 0.0968,-0.0155 0.11715,0.005 0.0203,0.0203 -0.0158,0.0348 -0.0802,0.0321 -0.0712,-0.003 -0.0857,-0.0174 -0.0369,-0.0369 z m -59.286155,-0.0611 c 0.04412,-0.0177 0.09684,-0.0155 0.117148,0.005 0.02031,0.0203 -0.01579,0.0348 -0.08022,0.0321 -0.0712,-0.003 -0.08568,-0.0174 -0.03693,-0.0369 z m 58.797205,0 c 0.0441,-0.0177 0.0968,-0.0155 0.11714,0.005 0.0203,0.0203 -0.0158,0.0348 -0.0802,0.0321 -0.0712,-0.003 -0.0857,-0.0174 -0.0369,-0.0369 z M 98.709,100.93134 c 0.04412,-0.0177 0.09684,-0.0155 0.117149,0.005 0.02031,0.0203 -0.01579,0.0348 -0.08022,0.0321 -0.0712,-0.003 -0.08568,-0.0174 -0.03693,-0.0369 z m 56.71913,0 c 0.0441,-0.0177 0.0968,-0.0155 0.11715,0.005 0.0203,0.0203 -0.0158,0.0348 -0.0802,0.0321 -0.0712,-0.003 -0.0857,-0.0174 -0.0369,-0.0369 z m -56.230172,-0.0611 c 0.04412,-0.0177 0.09684,-0.0155 0.117149,0.005 0.02031,0.0203 -0.01579,0.0348 -0.08022,0.0321 -0.0712,-0.003 -0.08568,-0.0174 -0.03693,-0.0369 z m 55.741212,0 c 0.0441,-0.0177 0.0968,-0.0155 0.11715,0.005 0.0203,0.0203 -0.0158,0.0348 -0.0802,0.0321 -0.0712,-0.003 -0.0857,-0.0174 -0.0369,-0.0369 z m -55.252254,-0.0611 c 0.04412,-0.0177 0.09684,-0.0155 0.117149,0.005 0.02031,0.0203 -0.01579,0.0348 -0.08022,0.0321 -0.0712,-0.003 -0.08568,-0.0174 -0.03693,-0.0369 z m 54.213224,-0.0611 c 0.0441,-0.0177 0.0968,-0.0155 0.11714,0.005 0.0203,0.0203 -0.0158,0.0348 -0.0802,0.0321 -0.0712,-0.003 -0.0857,-0.0174 -0.0369,-0.0369 z m -53.17419,-0.0611 c 0.0441,-0.0177 0.0968,-0.0155 0.11715,0.005 0.0203,0.0203 -0.0158,0.0348 -0.0802,0.0321 -0.0712,-0.003 -0.0857,-0.0174 -0.0369,-0.0369 z m 52.68523,0 c 0.0441,-0.0177 0.0968,-0.0155 0.11715,0.005 0.0203,0.0203 -0.0158,0.0348 -0.0802,0.0321 -0.0712,-0.003 -0.0857,-0.0174 -0.0369,-0.0369 z m -52.19627,-0.0611 c 0.0441,-0.0177 0.0968,-0.0155 0.11715,0.005 0.0203,0.0203 -0.0158,0.0348 -0.0802,0.0321 -0.0712,-0.003 -0.0857,-0.0174 -0.0369,-0.0369 z m 51.64619,0 c 0.0441,-0.0177 0.0968,-0.0155 0.11715,0.005 0.0203,0.0203 -0.0158,0.0348 -0.0802,0.0321 -0.0712,-0.003 -0.0857,-0.0174 -0.0369,-0.0369 z m -51.15723,-0.0611 c 0.0441,-0.0177 0.0968,-0.0155 0.11715,0.005 0.0203,0.0203 -0.0158,0.0348 -0.0802,0.0321 -0.0712,-0.003 -0.0857,-0.0174 -0.0369,-0.0369 z m 50.66827,0 c 0.0441,-0.0177 0.0968,-0.0155 0.11715,0.005 0.0203,0.0203 -0.0158,0.0348 -0.0802,0.0321 -0.0712,-0.003 -0.0857,-0.0174 -0.0369,-0.0369 z M 102.7429,100.4425 c 0.0441,-0.0177 0.0968,-0.0155 0.11715,0.005 0.0203,0.0203 -0.0158,0.0348 -0.0802,0.0321 -0.0712,-0.003 -0.0857,-0.0174 -0.0369,-0.0369 z m 48.59021,0 c 0.0441,-0.0177 0.0968,-0.0155 0.11715,0.005 0.0203,0.0203 -0.0158,0.0348 -0.0802,0.0321 -0.0712,-0.003 -0.0857,-0.0174 -0.0369,-0.0369 z M 1.9115984,99.226086 c 0.00293,-0.0712 0.017416,-0.08568 0.036927,-0.03693 0.017656,0.04412 0.015484,0.09684 -0.00483,0.117148 -0.02031,0.02031 -0.034755,-0.01579 -0.032101,-0.08022 z m 252.4856916,0 c 0.003,-0.0712 0.0174,-0.08568 0.0369,-0.03693 0.0177,0.04412 0.0155,0.09684 -0.005,0.117148 -0.0203,0.02031 -0.0348,-0.01579 -0.0321,-0.08022 z m 0.0611,-0.611197 c 0.003,-0.07121 0.0174,-0.08568 0.0369,-0.03693 0.0177,0.04412 0.0155,0.09684 -0.005,0.117148 -0.0203,0.02031 -0.0348,-0.01579 -0.0321,-0.08022 z m 0.0611,-0.672317 c 0.003,-0.0712 0.0174,-0.08568 0.0369,-0.03693 0.0177,0.04412 0.0155,0.09684 -0.005,0.117148 -0.0203,0.02031 -0.0348,-0.01579 -0.0321,-0.08022 z m 0.0611,-0.672318 c 0.003,-0.0712 0.0174,-0.08568 0.0369,-0.03693 0.0177,0.04412 0.0155,0.09684 -0.005,0.117148 -0.0203,0.02031 -0.0348,-0.01579 -0.0321,-0.08022 z M 1.6671194,96.597937 c 0.00293,-0.07121 0.017416,-0.08568 0.036926,-0.03693 0.017656,0.04412 0.015484,0.09684 -0.00483,0.117149 -0.02031,0.02031 -0.034755,-0.01579 -0.032101,-0.08022 z m 252.9746506,0 c 0.003,-0.07121 0.0174,-0.08568 0.0369,-0.03693 0.0177,0.04412 0.0155,0.09684 -0.005,0.117149 -0.0203,0.02031 -0.0348,-0.01579 -0.0321,-0.08022 z M 1.6059997,95.80338 c 0.00293,-0.0712 0.017415,-0.08568 0.036927,-0.03693 0.017656,0.04412 0.015484,0.09684 -0.00483,0.117148 -0.020309,0.02031 -0.034755,-0.01579 -0.032101,-0.08022 z M 254.70772,95.777912 c 0,-0.08404 0.0139,-0.11842 0.0308,-0.0764 0.017,0.04202 0.017,0.110779 0,0.152799 -0.017,0.04202 -0.0308,0.0076 -0.0308,-0.0764 z M 1.5497051,94.983355 c 0,-0.08404 0.013873,-0.11842 0.030828,-0.0764 0.016955,0.04202 0.016955,0.11078 0,0.152799 -0.016955,0.04202 -0.030828,0.0076 -0.030828,-0.0764 z M 254.76401,94.947704 c 0.003,-0.07121 0.0174,-0.08568 0.0369,-0.03693 0.0177,0.04412 0.0155,0.09684 -0.005,0.117148 -0.0203,0.02031 -0.0348,-0.01579 -0.0321,-0.08022 z M 1.4908501,94.035999 c 0.00125,-0.100848 0.014944,-0.134702 0.03044,-0.07524 0.015497,0.05947 0.014477,0.141981 -0.00226,0.183359 -0.016742,0.04138 -0.029421,-0.0073 -0.028175,-0.10812 z m 253.3413699,0 c 0.001,-0.100848 0.0149,-0.134702 0.0304,-0.07524 0.0155,0.05947 0.0145,0.141981 -0.002,0.183359 -0.0167,0.04138 -0.0294,-0.0073 -0.0282,-0.10812 z M 1.4274656,92.966403 c 0,-0.08404 0.013873,-0.11842 0.030828,-0.0764 0.016955,0.04202 0.016955,0.11078 0,0.1528 -0.016955,0.04202 -0.030828,0.0076 -0.030828,-0.0764 z m 253.4636144,0 c 0,-0.08404 0.0139,-0.11842 0.0308,-0.0764 0.017,0.04202 0.017,0.11078 0,0.1528 -0.017,0.04202 -0.0308,0.0076 -0.0308,-0.0764 z M 1.3708754,91.744008 c 0,-0.117656 0.012578,-0.165787 0.027951,-0.10696 0.015373,0.05883 0.015373,0.155092 0,0.213919 -0.015373,0.05883 -0.027951,0.0107 -0.027951,-0.106959 z M 254.95796,91.713448 c 6.7e-4,-0.134463 0.0132,-0.182277 0.0278,-0.106245 0.0146,0.07603 0.0141,0.186043 -0.001,0.24448 -0.0153,0.05843 -0.0273,-0.0038 -0.0266,-0.138235 z M 1.310989,90.185454 c 6.784e-4,-0.134463 0.013195,-0.182277 0.027814,-0.106244 0.014619,0.07603 0.014064,0.186042 -0.00123,0.244479 -0.015298,0.05843 -0.027259,-0.0038 -0.026581,-0.138235 z m 253.708091,0 c 6.7e-4,-0.134463 0.0132,-0.182277 0.0278,-0.106244 0.0146,0.07603 0.0141,0.186042 -10e-4,0.244479 -0.0153,0.05843 -0.0273,-0.0038 -0.0266,-0.138235 z M 1.258009,87.343386 c 0,-0.420199 0.00976,-0.592098 0.0217,-0.381999 0.011935,0.210099 0.011935,0.553898 0,0.763997 -0.011935,0.210099 -0.0217,0.0382 -0.0217,-0.381998 z m 253.830521,-0.03056 c 0,-0.437007 0.01,-0.607763 0.0216,-0.379456 0.0118,0.228307 0.0117,0.585857 0,0.794557 -0.0119,0.208699 -0.0216,0.02191 -0.0214,-0.415101 z M 28.847699,43.841926 c 0.211416,-0.01197 0.541463,-0.01187 0.733437,2.45e-4 0.191974,0.01209 0.019,0.02188 -0.384394,0.02176 -0.40339,-1.22e-4 -0.56046,-0.01001 -0.349043,-0.02198 z m 197.966881,0 c 0.21141,-0.01197 0.54146,-0.01187 0.73343,2.45e-4 0.19197,0.01209 0.019,0.02188 -0.38439,0.02176 -0.40339,-1.22e-4 -0.56046,-0.01001 -0.34904,-0.02198 z M 27.165674,43.783766 c 0.05947,-0.0155 0.141979,-0.01448 0.183359,0.0023 0.04138,0.01674 -0.0073,0.02942 -0.108123,0.02818 -0.100847,-0.0012 -0.134704,-0.01494 -0.07524,-0.03044 z m 3.818821,0.0019 c 0.04202,-0.01696 0.11078,-0.01696 0.1528,0 0.04202,0.01695 0.0076,0.03083 -0.0764,0.03083 -0.08404,0 -0.11842,-0.01387 -0.0764,-0.03083 z m 194.238575,0 c 0.042,-0.01696 0.11078,-0.01696 0.1528,0 0.042,0.01695 0.008,0.03083 -0.0764,0.03083 -0.084,0 -0.11842,-0.01387 -0.0764,-0.03083 z m 3.82114,-0.0019 c 0.0595,-0.0155 0.14198,-0.01448 0.18336,0.0023 0.0414,0.01674 -0.007,0.02942 -0.10812,0.02818 -0.10085,-0.0012 -0.1347,-0.01494 -0.0752,-0.03044 z M 26.343214,43.72325 c 0.04412,-0.01766 0.09684,-0.01548 0.117146,0.0048 0.02031,0.02031 -0.01579,0.03476 -0.08022,0.0321 -0.0712,-0.0029 -0.08568,-0.01742 -0.03693,-0.03693 z m 5.378538,0 c 0.04412,-0.01766 0.09684,-0.01548 0.117147,0.0048 0.02031,0.02031 -0.01579,0.03476 -0.08022,0.0321 -0.0712,-0.0029 -0.08568,-0.01742 -0.03693,-0.03693 z m 192.832818,0 c 0.0441,-0.01766 0.0968,-0.01548 0.11715,0.0048 0.0203,0.02031 -0.0158,0.03476 -0.0802,0.0321 -0.0712,-0.0029 -0.0857,-0.01742 -0.0369,-0.03693 z m 5.37854,0 c 0.0441,-0.01766 0.0968,-0.01548 0.11715,0.0048 0.0203,0.02031 -0.0158,0.03476 -0.0802,0.0321 -0.0712,-0.0029 -0.0857,-0.01742 -0.0369,-0.03693 z M 25.670897,43.66213 c 0.04412,-0.01766 0.09684,-0.01548 0.117146,0.0048 0.02031,0.02031 -0.01579,0.03476 -0.08022,0.0321 -0.0712,-0.0029 -0.08568,-0.01742 -0.03693,-0.03693 z m 204.934533,0 c 0.0441,-0.01766 0.0968,-0.01548 0.11714,0.0048 0.0203,0.02031 -0.0158,0.03476 -0.0802,0.0321 -0.0712,-0.0029 -0.0857,-0.01742 -0.0369,-0.03693 z m -11.79246,-1.95992 c -0.076,-0.09694 -0.0739,-0.0991 0.0231,-0.02308 0.0588,0.04614 0.10696,0.09427 0.10696,0.10696 0,0.0503 -0.0502,0.01793 -0.13004,-0.08388 z M 39.316887,37.678493 c 0.0029,-0.0712 0.01741,-0.08568 0.03693,-0.03693 0.01766,0.04412 0.01548,0.09684 -0.0048,0.117147 -0.02031,0.02031 -0.03476,-0.01579 -0.0321,-0.08022 z m 177.675113,0 c 0.003,-0.0712 0.0174,-0.08568 0.0369,-0.03693 0.0177,0.04412 0.0155,0.09684 -0.005,0.117147 -0.0203,0.02031 -0.0348,-0.01579 -0.0321,-0.08022 z M 39.321712,36.186152 c 0,-0.08404 0.01387,-0.11842 0.03083,-0.0764 0.01696,0.04202 0.01696,0.11078 0,0.1528 -0.01695,0.04202 -0.03083,0.0076 -0.03083,-0.0764 z m 177.675118,-0.06112 c 0,-0.08404 0.0139,-0.118419 0.0308,-0.0764 0.017,0.04202 0.017,0.110779 0,0.152799 -0.017,0.04202 -0.0308,0.0076 -0.0308,-0.0764 z M 91.741349,11.085302 c 0.04412,-0.01766 0.09684,-0.01548 0.117148,0.0048 0.02031,0.02031 -0.01579,0.03476 -0.08022,0.0321 -0.0712,-0.0029 -0.08568,-0.01741 -0.03693,-0.03693 z m 72.793621,0 c 0.0441,-0.01766 0.0968,-0.01548 0.11715,0.0048 0.0203,0.02031 -0.0158,0.03476 -0.0802,0.0321 -0.0712,-0.0029 -0.0857,-0.01741 -0.0369,-0.03693 z m -72.243544,-0.06112 c 0.04412,-0.01766 0.09684,-0.01548 0.117149,0.0048 0.02031,0.02031 -0.01579,0.03475 -0.08022,0.0321 -0.0712,-0.0029 -0.08568,-0.01741 -0.03693,-0.03693 z m 71.693474,0 c 0.0441,-0.01766 0.0968,-0.01548 0.11714,0.0048 0.0203,0.02031 -0.0158,0.03475 -0.0802,0.0321 -0.0712,-0.0029 -0.0857,-0.01741 -0.0369,-0.03693 z m -71.147216,-0.05985 c 0.04202,-0.01695 0.11078,-0.01695 0.1528,0 0.04202,0.01695 0.0076,0.03083 -0.0764,0.03083 -0.08404,0 -0.11842,-0.01387 -0.0764,-0.03083 z m 70.532196,0 c 0.042,-0.01695 0.11078,-0.01695 0.1528,0 0.042,0.01695 0.008,0.03083 -0.0764,0.03083 -0.084,0 -0.11842,-0.01387 -0.0764,-0.03083 z m -69.982118,-0.06112 c 0.04202,-0.01695 0.11078,-0.01695 0.152799,0 0.04202,0.01696 0.0076,0.03083 -0.0764,0.03083 -0.08404,0 -0.11842,-0.01387 -0.0764,-0.03083 z m 69.432038,0 c 0.042,-0.01695 0.11078,-0.01695 0.1528,0 0.042,0.01696 0.008,0.03083 -0.0764,0.03083 -0.084,0 -0.11842,-0.01387 -0.0764,-0.03083 z m -68.81702,-0.06239 c 0.04412,-0.01766 0.09684,-0.01548 0.117148,0.0048 0.02031,0.02031 -0.01579,0.03476 -0.08022,0.0321 -0.0712,-0.0029 -0.08568,-0.01741 -0.03693,-0.03693 z m 68.27076,0 c 0.0441,-0.01766 0.0968,-0.01548 0.11715,0.0048 0.0203,0.02031 -0.0158,0.03476 -0.0802,0.0321 -0.0712,-0.0029 -0.0857,-0.01741 -0.0369,-0.03693 z m -67.724503,-0.05985 c 0.04202,-0.01696 0.11078,-0.01696 0.1528,0 0.04202,0.01695 0.0076,0.03083 -0.0764,0.03083 -0.08404,0 -0.118419,-0.01387 -0.0764,-0.03083 z m 67.109493,0 c 0.042,-0.01696 0.11077,-0.01696 0.15279,0 0.042,0.01695 0.008,0.03083 -0.0764,0.03083 -0.084,0 -0.11841,-0.01387 -0.0764,-0.03083 z m -66.494475,-0.06239 c 0.04412,-0.01766 0.09684,-0.01548 0.117148,0.0048 0.02031,0.02031 -0.01579,0.03476 -0.08022,0.0321 -0.0712,-0.0029 -0.08568,-0.01742 -0.03693,-0.03693 z m 65.948215,0 c 0.0441,-0.01766 0.0968,-0.01548 0.11715,0.0048 0.0203,0.02031 -0.0158,0.03476 -0.0802,0.0321 -0.0712,-0.0029 -0.0857,-0.01742 -0.0369,-0.03693 z m -65.340838,-0.05985 c 0.04202,-0.01695 0.11078,-0.01695 0.1528,0 0.04202,0.01696 0.0076,0.03083 -0.0764,0.03083 -0.08404,0 -0.118419,-0.01387 -0.0764,-0.03083 z m 64.664698,0 c 0.042,-0.01695 0.11078,-0.01695 0.1528,0 0.042,0.01696 0.008,0.03083 -0.0764,0.03083 -0.084,0 -0.11842,-0.01387 -0.0764,-0.03083 z m -64.0535,-0.06112 c 0.04202,-0.01696 0.110779,-0.01696 0.152799,0 0.04202,0.01696 0.0076,0.03083 -0.0764,0.03083 -0.08404,0 -0.11842,-0.01387 -0.0764,-0.03083 z m 63.4423,0 c 0.042,-0.01696 0.11078,-0.01696 0.1528,0 0.042,0.01696 0.008,0.03083 -0.0764,0.03083 -0.084,0 -0.11842,-0.01387 -0.0764,-0.03083 z m -62.831103,-0.06112 c 0.04202,-0.01696 0.11078,-0.01696 0.1528,0 0.04202,0.01695 0.0076,0.03083 -0.0764,0.03083 -0.08404,0 -0.118419,-0.01387 -0.0764,-0.03083 z m 62.219913,0 c 0.042,-0.01696 0.11077,-0.01696 0.15279,0 0.042,0.01695 0.008,0.03083 -0.0764,0.03083 -0.084,0 -0.11841,-0.01387 -0.0764,-0.03083 z m -61.543775,-0.06239 c 0.04412,-0.01766 0.09684,-0.01548 0.117148,0.0048 0.02031,0.02031 -0.01579,0.03476 -0.08022,0.0321 -0.0712,-0.0029 -0.08568,-0.01742 -0.03693,-0.03693 z m 60.936395,0 c 0.0441,-0.01766 0.0968,-0.01548 0.11715,0.0048 0.0203,0.02031 -0.0158,0.03476 -0.0802,0.0321 -0.0712,-0.0029 -0.0857,-0.01742 -0.0369,-0.03693 z m -60.264078,-0.06112 c 0.04412,-0.01765 0.09684,-0.01548 0.117148,0.0048 0.02031,0.02031 -0.01579,0.03476 -0.08022,0.0321 -0.0712,-0.0029 -0.08568,-0.01742 -0.03693,-0.03693 z m 59.591758,0 c 0.0441,-0.01765 0.0968,-0.01548 0.11715,0.0048 0.0203,0.02031 -0.0158,0.03476 -0.0802,0.0321 -0.0712,-0.0029 -0.0857,-0.01742 -0.0369,-0.03693 z m -58.984381,-0.05985 c 0.04202,-0.01696 0.11078,-0.01696 0.1528,0 0.04202,0.01696 0.0076,0.03083 -0.0764,0.03083 -0.08404,0 -0.118419,-0.01387 -0.0764,-0.03083 z m 58.308241,0 c 0.042,-0.01696 0.11078,-0.01696 0.1528,0 0.042,0.01696 0.008,0.03083 -0.0764,0.03083 -0.084,0 -0.11842,-0.01387 -0.0764,-0.03083 z m -57.574803,-0.06112 c 0.04202,-0.01696 0.110779,-0.01696 0.152799,0 0.04202,0.01695 0.0076,0.03083 -0.0764,0.03083 -0.08404,0 -0.118419,-0.01387 -0.0764,-0.03083 z m 56.841373,0 c 0.042,-0.01696 0.11078,-0.01696 0.1528,0 0.042,0.01695 0.008,0.03083 -0.0764,0.03083 -0.084,0 -0.11842,-0.01387 -0.0764,-0.03083 z m -56.10794,-0.06112 c 0.042,-0.01695 0.11078,-0.01695 0.1528,0 0.042,0.01695 0.008,0.03083 -0.0764,0.03083 -0.084,0 -0.11842,-0.01387 -0.0764,-0.03083 z m 55.3745,0 c 0.042,-0.01695 0.11078,-0.01695 0.1528,0 0.042,0.01695 0.008,0.03083 -0.0764,0.03083 -0.084,0 -0.11842,-0.01387 -0.0764,-0.03083 z m -54.64106,-0.06112 c 0.042,-0.01696 0.11078,-0.01696 0.1528,0 0.042,0.01696 0.008,0.03083 -0.0764,0.03083 -0.084,0 -0.11842,-0.01387 -0.0764,-0.03083 z m 53.90762,0 c 0.042,-0.01696 0.11078,-0.01696 0.1528,0 0.042,0.01696 0.008,0.03083 -0.0764,0.03083 -0.084,0 -0.11842,-0.01387 -0.0764,-0.03083 z m -53.20358,-0.063 c 0.0595,-0.0155 0.14198,-0.01448 0.18336,0.0023 0.0414,0.01674 -0.007,0.02942 -0.10812,0.02818 -0.10085,-0.0012 -0.1347,-0.01494 -0.0752,-0.03044 z m 52.50187,0 c 0.0595,-0.0155 0.14198,-0.01448 0.18336,0.0023 0.0414,0.01674 -0.007,0.02942 -0.10813,0.02818 -0.10084,-0.0012 -0.1347,-0.01494 -0.0752,-0.03044 z m -51.73904,-0.05924 c 0.042,-0.01696 0.11078,-0.01696 0.1528,0 0.042,0.01695 0.008,0.03083 -0.0764,0.03083 -0.084,0 -0.11842,-0.01387 -0.0764,-0.03083 z m 50.97388,0 c 0.042,-0.01696 0.11078,-0.01696 0.1528,0 0.042,0.01695 0.008,0.03083 -0.0764,0.03083 -0.084,0 -0.11842,-0.01387 -0.0764,-0.03083 z M 103.4114,9.986412 c 0.042,-0.016955 0.11078,-0.016955 0.1528,0 0.042,0.016955 0.008,0.030828 -0.0764,0.030828 -0.084,0 -0.11842,-0.01387 -0.0764,-0.030828 z m 49.38476,0 c 0.042,-0.016955 0.11078,-0.016955 0.1528,0 0.042,0.016955 0.008,0.030828 -0.0764,0.030828 -0.084,0 -0.11842,-0.01387 -0.0764,-0.030828 z M 104.23768,9.923415 c 0.0595,-0.015496 0.14198,-0.014477 0.18336,0.00227 0.0414,0.016743 -0.007,0.029421 -0.10812,0.028176 -0.10085,-0.00125 -0.1347,-0.014944 -0.0752,-0.03044 z m 47.73453,0 c 0.0595,-0.015496 0.14198,-0.014477 0.18335,0.00227 0.0414,0.016743 -0.007,0.029421 -0.10812,0.028176 -0.10084,-0.00125 -0.1347,-0.014944 -0.0752,-0.03044 z m -46.87885,-0.06112 c 0.0595,-0.015496 0.14198,-0.014477 0.18336,0.00227 0.0414,0.016743 -0.007,0.029421 -0.10813,0.028176 -0.10084,-0.00125 -0.1347,-0.014944 -0.0752,-0.03044 z m 46.02317,0 c 0.0595,-0.015496 0.14198,-0.014477 0.18336,0.00227 0.0414,0.016743 -0.007,0.029421 -0.10812,0.028176 -0.10085,-0.00125 -0.1347,-0.014944 -0.0752,-0.03044 z m -45.10638,-0.06112 c 0.0595,-0.015496 0.14198,-0.014477 0.18336,0.00227 0.0414,0.016743 -0.007,0.029421 -0.10812,0.028176 -0.10085,-0.00125 -0.1347,-0.014944 -0.0752,-0.03044 z m 44.18958,0 c 0.0595,-0.015496 0.14198,-0.014477 0.18336,0.00227 0.0414,0.016743 -0.007,0.029421 -0.10812,0.028176 -0.10085,-0.00125 -0.1347,-0.014944 -0.0752,-0.03044 z m -43.27278,-0.06112 c 0.0595,-0.015496 0.14198,-0.014477 0.18336,0.00227 0.0414,0.016742 -0.007,0.029421 -0.10812,0.028176 -0.10085,-0.00125 -0.13471,-0.014944 -0.0752,-0.03044 z m 42.29371,2.445e-4 c 0.0588,-0.015373 0.15509,-0.015373 0.21391,0 0.0588,0.015374 0.0107,0.027952 -0.10695,0.027952 -0.11766,0 -0.16579,-0.012578 -0.10696,-0.027952 z m -41.37808,-0.06112 c 0.0588,-0.015373 0.15509,-0.015373 0.21392,0 0.0588,0.015373 0.0107,0.027952 -0.10696,0.027952 -0.11765,0 -0.16578,-0.012578 -0.10696,-0.027952 z m 40.46128,0 c 0.0588,-0.015373 0.15509,-0.015373 0.21392,0 0.0588,0.015373 0.0107,0.027952 -0.10696,0.027952 -0.11766,0 -0.16579,-0.012578 -0.10696,-0.027952 z m -39.42224,-0.06112 c 0.0588,-0.015373 0.15509,-0.015373 0.21392,0 0.0588,0.015373 0.0107,0.027952 -0.10696,0.027952 -0.11766,0 -0.16579,-0.012578 -0.10696,-0.027952 z m 38.3832,0 c 0.0588,-0.015373 0.15509,-0.015373 0.21392,0 0.0588,0.015373 0.0107,0.027952 -0.10696,0.027952 -0.11765,0 -0.16578,-0.012578 -0.10696,-0.027952 z m -37.28305,-0.06112 c 0.0588,-0.015373 0.1551,-0.015373 0.21392,0 0.0588,0.015373 0.0107,0.027952 -0.10696,0.027952 -0.11765,0 -0.16578,-0.012578 -0.10696,-0.027952 z m 36.1829,0 c 0.0588,-0.015373 0.15509,-0.015373 0.21392,0 0.0588,0.015373 0.0107,0.027952 -0.10696,0.027952 -0.11766,0 -0.16579,-0.012578 -0.10696,-0.027952 z m -35.05218,-0.062122 c 0.0756,-0.014569 0.1994,-0.014569 0.27504,0 0.0756,0.014568 0.0138,0.026488 -0.13752,0.026488 -0.15127,0 -0.21316,-0.01192 -0.13752,-0.026488 z m 33.86034,0 c 0.0756,-0.014569 0.19941,-0.014569 0.27504,0 0.0756,0.014568 0.0137,0.026488 -0.13752,0.026488 -0.15127,0 -0.21315,-0.01192 -0.13752,-0.026488 z M 112.27448,9.433613 c 0.076,-0.014619 0.18604,-0.014064 0.24448,0.00123 0.0584,0.015298 -0.004,0.027259 -0.13824,0.026581 -0.13446,-6.785e-4 -0.18227,-0.013195 -0.10624,-0.027814 z m 31.53708,1.222e-4 c 0.0756,-0.014568 0.1994,-0.014568 0.27504,0 0.0756,0.014568 0.0137,0.026488 -0.13752,0.026488 -0.15127,0 -0.21316,-0.01192 -0.13752,-0.026488 z m -30.1626,-0.061763 c 0.0924,-0.014004 0.24371,-0.014004 0.33616,0 0.0924,0.014004 0.0168,0.025462 -0.16808,0.025462 -0.18489,0 -0.26052,-0.011458 -0.16808,-0.025462 z m 28.72628,0 c 0.0925,-0.014004 0.24372,-0.014004 0.33616,0 0.0925,0.014004 0.0168,0.025462 -0.16808,0.025462 -0.18488,0 -0.26052,-0.011458 -0.16808,-0.025462 z m -27.19829,-0.06112 c 0.0924,-0.014004 0.24372,-0.014004 0.33616,0 0.0924,0.014004 0.0168,0.025462 -0.16808,0.025462 -0.18488,0 -0.26052,-0.011458 -0.16808,-0.025462 z m 25.6703,0 c 0.0924,-0.014004 0.24371,-0.014004 0.33616,0 0.0924,0.014004 0.0168,0.025462 -0.16808,0.025462 -0.18489,0 -0.26052,-0.011458 -0.16808,-0.025462 z M 116.73551,9.249296 c 0.10925,-0.013558 0.28802,-0.013558 0.39728,0 0.10925,0.013558 0.0199,0.024651 -0.19864,0.024651 -0.21851,0 -0.30789,-0.011093 -0.19864,-0.024651 z m 22.49207,0 c 0.10925,-0.013558 0.28802,-0.013558 0.39727,0 0.10926,0.013558 0.0199,0.024651 -0.19863,0.024651 -0.21851,0 -0.3079,-0.011093 -0.19864,-0.024651 z M 118.7511,9.1882783 c 0.1085,-0.013502 0.30102,-0.013724 0.42783,-4.89e-4 0.12682,0.013231 0.038,0.024278 -0.19727,0.024549 -0.23531,2.445e-4 -0.33906,-0.010554 -0.23056,-0.024056 z m 18.3984,-1.223e-4 c 0.10926,-0.013558 0.28803,-0.013558 0.39728,0 0.10925,0.013558 0.0199,0.024652 -0.19864,0.024652 -0.2185,0 -0.30789,-0.011093 -0.19864,-0.024652 z M 121.25837,9.126498 c 0.14287,-0.012867 0.37665,-0.012867 0.51952,0 0.14286,0.012868 0.026,0.023397 -0.25976,0.023397 -0.28574,0 -0.40263,-0.010528 -0.25976,-0.023397 z m 13.3241,0 c 0.14287,-0.012867 0.37666,-0.012867 0.51952,0 0.14287,0.012868 0.026,0.023397 -0.25976,0.023397 -0.28573,0 -0.40262,-0.010528 -0.25976,-0.023397 z m -8.0678,-0.062165 c 0.91603,-0.00951 2.41499,-0.00951 3.33102,0 0.91604,0.00951 0.16656,0.017286 -1.66551,0.017286 -1.83206,0 -2.58154,-0.00778 -1.66551,-0.017286 z m 43.64332,-4.7021745 c 0.0441,-0.017656 0.0968,-0.015484 0.11715,0.00483 0.0203,0.02031 -0.0158,0.034755 -0.0802,0.032101 -0.0712,-0.00293 -0.0857,-0.017416 -0.0369,-0.036926 z M 90.091115,3.8731998 c 0.04412,-0.017656 0.09684,-0.015484 0.117149,0.00483 0.02031,0.02031 -0.01579,0.034755 -0.08022,0.032101 -0.07121,-0.00293 -0.08568,-0.017416 -0.03693,-0.036927 z m 76.094095,0 c 0.0441,-0.017656 0.0968,-0.015484 0.11714,0.00483 0.0203,0.02031 -0.0158,0.034755 -0.0802,0.032101 -0.0712,-0.00293 -0.0857,-0.017416 -0.0369,-0.036927 z M 91.680229,3.6898405 c 0.04412,-0.017656 0.09684,-0.015484 0.117148,0.00483 0.02031,0.02031 -0.01579,0.034755 -0.08022,0.032101 -0.0712,-0.00293 -0.08568,-0.017415 -0.03693,-0.036926 z m 72.915861,0 c 0.0441,-0.017656 0.0968,-0.015484 0.11715,0.00483 0.0203,0.02031 -0.0158,0.034755 -0.0802,0.032101 -0.0712,-0.00293 -0.0857,-0.017415 -0.0369,-0.036926 z m -72.304664,-0.06112 c 0.04412,-0.017656 0.09684,-0.015484 0.117149,0.00483 0.02031,0.02031 -0.01579,0.034755 -0.08022,0.032101 -0.0712,-0.00293 -0.08568,-0.017416 -0.03693,-0.036927 z m 71.693474,0 c 0.0441,-0.017656 0.0968,-0.015484 0.11714,0.00483 0.0203,0.02031 -0.0158,0.034755 -0.0802,0.032101 -0.0712,-0.00293 -0.0857,-0.017416 -0.0369,-0.036927 z M 92.841504,3.567601 c 0.04412,-0.017656 0.09684,-0.015484 0.117148,0.00483 0.02031,0.02031 -0.01579,0.034755 -0.08022,0.032101 -0.07121,-0.00293 -0.08568,-0.017415 -0.03693,-0.036926 z m 70.593316,0 c 0.0441,-0.017656 0.0968,-0.015484 0.11715,0.00483 0.0203,0.02031 -0.0158,0.034755 -0.0802,0.032101 -0.0712,-0.00293 -0.0857,-0.017415 -0.0369,-0.036926 z M 94.00278,3.4453615 c 0.04412,-0.017656 0.09684,-0.015484 0.117148,0.00483 0.02031,0.02031 -0.01579,0.034755 -0.08022,0.032101 -0.0712,-0.00293 -0.08568,-0.017416 -0.03693,-0.036927 z m 68.27076,0 c 0.0441,-0.017656 0.0968,-0.015484 0.11715,0.00483 0.0203,0.02031 -0.0158,0.034755 -0.0802,0.032101 -0.0712,-0.00293 -0.0857,-0.017416 -0.0369,-0.036927 z M 95.225175,3.323122 c 0.04412,-0.017656 0.09684,-0.015484 0.117148,0.00483 0.02031,0.02031 -0.01579,0.034755 -0.08022,0.032101 -0.0712,-0.00293 -0.08568,-0.017416 -0.03693,-0.036927 z m 65.825975,0 c 0.0441,-0.017656 0.0968,-0.015484 0.11715,0.00483 0.0203,0.02031 -0.0158,0.034755 -0.0802,0.032101 -0.0712,-0.00293 -0.0857,-0.017416 -0.0369,-0.036927 z m -0.6112,-0.06112 c 0.0441,-0.017656 0.0968,-0.015484 0.11715,0.00483 0.0203,0.02031 -0.0158,0.034755 -0.0802,0.032101 -0.0712,-0.00293 -0.0857,-0.017415 -0.0369,-0.036926 z M 96.44757,3.200882 c 0.04412,-0.017656 0.09684,-0.015484 0.117148,0.00483 0.02031,0.02031 -0.01579,0.034755 -0.08022,0.032101 -0.0712,-0.00293 -0.08568,-0.017416 -0.03693,-0.036926 z m 63.38118,0 c 0.0441,-0.017656 0.0968,-0.015484 0.11715,0.00483 0.0203,0.02031 -0.0158,0.034755 -0.0802,0.032101 -0.0712,-0.00293 -0.0857,-0.017416 -0.0369,-0.036926 z M 97.058767,3.139762 c 0.04412,-0.017656 0.09684,-0.015484 0.117148,0.00483 0.02031,0.02031 -0.01579,0.034755 -0.08022,0.032101 -0.07121,-0.00293 -0.08568,-0.017415 -0.03693,-0.036926 z m 62.158783,0 c 0.0441,-0.017656 0.0968,-0.015484 0.11715,0.00483 0.0203,0.02031 -0.0158,0.034755 -0.0802,0.032101 -0.0712,-0.00293 -0.0857,-0.017415 -0.0369,-0.036926 z M 98.403402,3.0175232 c 0.04412,-0.017656 0.09684,-0.015484 0.117148,0.00483 0.02031,0.02031 -0.01579,0.034755 -0.08022,0.032101 -0.0712,-0.00293 -0.08568,-0.017415 -0.03693,-0.036926 z m 59.469518,0 c 0.0441,-0.017656 0.0968,-0.015484 0.11715,0.00483 0.0203,0.02031 -0.0158,0.034755 -0.0802,0.032101 -0.0712,-0.00293 -0.0857,-0.017415 -0.0369,-0.036926 z m -58.736081,-0.06112 c 0.04412,-0.017656 0.09684,-0.015484 0.117148,0.00483 0.02031,0.02031 -0.01579,0.034755 -0.08022,0.032101 -0.0712,-0.00293 -0.08568,-0.017415 -0.03693,-0.036927 z m 58.002641,0 c 0.0441,-0.017656 0.0968,-0.015484 0.11715,0.00483 0.0203,0.02031 -0.0158,0.034755 -0.0802,0.032101 -0.0712,-0.00293 -0.0857,-0.017415 -0.0369,-0.036927 z m -57.330324,-0.06112 c 0.04412,-0.017656 0.09684,-0.015484 0.117148,0.00483 0.02031,0.02031 -0.01579,0.034755 -0.08022,0.032101 -0.07121,-0.00293 -0.08568,-0.017416 -0.03693,-0.036927 z m 56.593074,0.00127 c 0.042,-0.016955 0.11078,-0.016955 0.1528,0 0.042,0.016955 0.008,0.030828 -0.0764,0.030828 -0.084,0 -0.11842,-0.013873 -0.0764,-0.030828 z m -55.85964,-0.062393 c 0.0441,-0.017656 0.0968,-0.015484 0.11715,0.00483 0.0203,0.02031 -0.0158,0.034755 -0.0802,0.032101 -0.0712,-0.00293 -0.0857,-0.017416 -0.0369,-0.036927 z m 55.19114,0 c 0.0441,-0.017656 0.0968,-0.015484 0.11715,0.00483 0.0203,0.02031 -0.0158,0.034755 -0.0802,0.032101 -0.0712,-0.00293 -0.0857,-0.017416 -0.0369,-0.036927 z m -54.4004,-0.059876 c 0.042,-0.016955 0.11078,-0.016955 0.1528,0 0.042,0.016955 0.008,0.030828 -0.0764,0.030828 -0.084,0 -0.11842,-0.013872 -0.0764,-0.030828 z m 53.5409,0 c 0.042,-0.016955 0.11078,-0.016955 0.1528,0 0.042,0.016955 0.008,0.030828 -0.0764,0.030828 -0.084,0 -0.11842,-0.013872 -0.0764,-0.030828 z m -52.80746,-0.06112 c 0.042,-0.016955 0.11078,-0.016955 0.1528,0 0.042,0.016955 0.008,0.030828 -0.0764,0.030828 -0.084,0 -0.11842,-0.013873 -0.0764,-0.030828 z m 52.07403,0 c 0.042,-0.016955 0.11078,-0.016955 0.15279,0 0.042,0.016955 0.008,0.030828 -0.0764,0.030828 -0.084,0 -0.11842,-0.013873 -0.0764,-0.030828 z m -51.27948,-0.06112 c 0.042,-0.016955 0.11078,-0.016955 0.1528,0 0.042,0.016955 0.008,0.030828 -0.0764,0.030828 -0.084,0 -0.11842,-0.013873 -0.0764,-0.030828 z m 50.48492,0 c 0.042,-0.016955 0.11078,-0.016955 0.1528,0 0.042,0.016955 0.008,0.030828 -0.0764,0.030828 -0.084,0 -0.11842,-0.013873 -0.0764,-0.030828 z M 103.717,2.5909289 c 0.042,-0.016955 0.11078,-0.016955 0.1528,0 0.042,0.016955 0.008,0.030828 -0.0764,0.030828 -0.084,0 -0.11842,-0.013873 -0.0764,-0.030828 z m 48.77356,0 c 0.042,-0.016955 0.11078,-0.016955 0.1528,0 0.042,0.016955 0.008,0.030828 -0.0764,0.030828 -0.084,0 -0.11842,-0.013873 -0.0764,-0.030828 z m -47.979,-0.06112 c 0.042,-0.016955 0.11078,-0.016955 0.1528,0 0.042,0.016955 0.008,0.030828 -0.0764,0.030828 -0.084,0 -0.11842,-0.013873 -0.0764,-0.030828 z m 47.18445,0 c 0.042,-0.016955 0.11078,-0.016955 0.15279,0 0.042,0.016955 0.008,0.030828 -0.0764,0.030828 -0.084,0 -0.11842,-0.013873 -0.0764,-0.030828 z m -46.26384,-0.062393 c 0.0441,-0.017656 0.0968,-0.015484 0.11715,0.00483 0.0203,0.02031 -0.0158,0.034755 -0.0802,0.032101 -0.0712,-0.00293 -0.0857,-0.017415 -0.0369,-0.036926 z m 45.34704,0.00127 c 0.042,-0.016955 0.11078,-0.016955 0.1528,0 0.042,0.016955 0.008,0.030828 -0.0764,0.030828 -0.084,0 -0.11842,-0.013873 -0.0764,-0.030828 z m -44.49518,-0.06112 c 0.042,-0.016955 0.11078,-0.016955 0.1528,0 0.042,0.016955 0.008,0.030828 -0.0764,0.030828 -0.084,0 -0.11842,-0.013872 -0.0764,-0.030828 z m 43.6395,0 c 0.042,-0.016955 0.11078,-0.016955 0.1528,0 0.042,0.016955 0.008,0.030828 -0.0764,0.030828 -0.084,0 -0.11842,-0.013872 -0.0764,-0.030828 z m -42.60046,-0.06112 c 0.042,-0.016955 0.11078,-0.016955 0.15279,0 0.042,0.016955 0.008,0.030828 -0.0764,0.030828 -0.084,0 -0.11842,-0.013873 -0.0764,-0.030828 z m 41.56143,0 c 0.042,-0.016955 0.11078,-0.016955 0.1528,0 0.042,0.016955 0.008,0.030828 -0.0764,0.030828 -0.084,0 -0.11842,-0.013873 -0.0764,-0.030828 z M 108.30098,2.28533 c 0.042,-0.016955 0.11078,-0.016955 0.1528,0 0.042,0.016955 0.008,0.030828 -0.0764,0.030828 -0.084,0 -0.11842,-0.013872 -0.0764,-0.030828 z m 39.6056,0 c 0.042,-0.016955 0.11078,-0.016955 0.1528,0 0.042,0.016955 0.008,0.030828 -0.0764,0.030828 -0.084,0 -0.11842,-0.013872 -0.0764,-0.030828 z M 109.34002,2.22421 c 0.042,-0.016955 0.11078,-0.016955 0.1528,0 0.042,0.016955 0.008,0.030828 -0.0764,0.030828 -0.084,0 -0.11842,-0.013873 -0.0764,-0.030828 z m 37.49813,-0.00188 c 0.0595,-0.015496 0.14198,-0.014477 0.18336,0.00226 0.0414,0.016742 -0.007,0.029421 -0.10813,0.028175 -0.10084,-0.00125 -0.1347,-0.014944 -0.0752,-0.03044 z M 110.59413,2.16121 c 0.0595,-0.015497 0.14198,-0.014477 0.18336,0.00226 0.0414,0.016742 -0.007,0.029421 -0.10812,0.028175 -0.10085,-0.00125 -0.1347,-0.014944 -0.0752,-0.03044 z m 35.02162,0 c 0.0595,-0.015497 0.14198,-0.014477 0.18336,0.00226 0.0414,0.016742 -0.007,0.029421 -0.10812,0.028175 -0.10085,-0.00125 -0.1347,-0.014944 -0.0752,-0.03044 z M 111.69313,2.100314 c 0.0588,-0.015373 0.15509,-0.015373 0.21392,0 0.0588,0.015373 0.0107,0.027952 -0.10696,0.027952 -0.11766,0 -0.16579,-0.012578 -0.10696,-0.027952 z m 32.76018,0 c 0.0588,-0.015373 0.1551,-0.015373 0.21392,0 0.0588,0.015373 0.0107,0.027952 -0.10696,0.027952 -0.11765,0 -0.16578,-0.012578 -0.10696,-0.027952 z M 113.06904,2.038102 c 0.076,-0.014619 0.18604,-0.014064 0.24448,0.00123 0.0584,0.015298 -0.004,0.027259 -0.13824,0.026581 -0.13446,-6.784e-4 -0.18228,-0.013195 -0.10624,-0.027814 z m 30.0098,0 c 0.076,-0.014619 0.18604,-0.014064 0.24447,0.00123 0.0584,0.015298 -0.004,0.027259 -0.13823,0.026581 -0.13446,-6.784e-4 -0.18228,-0.013195 -0.10624,-0.027814 z m -28.60405,-0.06112 c 0.076,-0.014619 0.18604,-0.014064 0.24448,0.00123 0.0584,0.015298 -0.004,0.027259 -0.13823,0.026581 -0.13447,-6.784e-4 -0.18228,-0.013195 -0.10625,-0.027814 z m 27.19829,0 c 0.076,-0.014619 0.18604,-0.014064 0.24448,0.00123 0.0584,0.015298 -0.004,0.027259 -0.13823,0.026581 -0.13447,-6.784e-4 -0.18228,-0.013195 -0.10625,-0.027814 z M 116.12431,1.915956 c 0.0756,-0.014568 0.1994,-0.014568 0.27504,0 0.0756,0.014568 0.0138,0.026487 -0.13752,0.026487 -0.15127,0 -0.21316,-0.011919 -0.13752,-0.026487 z m 23.8367,0 c 0.0756,-0.014568 0.19941,-0.014568 0.27504,0 0.0756,0.014568 0.0137,0.026487 -0.13752,0.026487 -0.15127,0 -0.21315,-0.011919 -0.13752,-0.026487 z M 117.86706,1.854112 c 0.0929,-0.014049 0.23043,-0.013673 0.3056,8.343e-4 0.0752,0.014507 -8.6e-4,0.026002 -0.16892,0.025543 -0.16808,-4.59e-4 -0.22958,-0.012329 -0.13668,-0.026377 z m 20.35288,0 c 0.0929,-0.014049 0.23043,-0.013673 0.3056,8.343e-4 0.0752,0.014507 -8.6e-4,0.026002 -0.16892,0.025543 -0.16808,-4.59e-4 -0.22958,-0.012329 -0.13668,-0.026377 z M 120.34157,1.792637 c 0.10925,-0.013558 0.28803,-0.013558 0.39728,0 0.10925,0.013558 0.0199,0.024651 -0.19864,0.024651 -0.2185,0 -0.30789,-0.011093 -0.19864,-0.024651 z m 15.21746,1.015e-4 c 0.1085,-0.013502 0.30102,-0.013724 0.42784,-4.933e-4 0.12681,0.013231 0.038,0.024278 -0.19728,0.024549 -0.23531,2.713e-4 -0.33906,-0.010554 -0.23056,-0.024056 z m -11.67251,-0.062067 c 0.17648,-0.012346 0.46527,-0.012346 0.64176,0 0.17648,0.012346 0.0321,0.022448 -0.32088,0.022448 -0.35297,0 -0.49736,-0.010102 -0.32088,-0.022448 z m 7.94557,0 c 0.17648,-0.012346 0.46527,-0.012346 0.64175,0 0.17649,0.012346 0.0321,0.022448 -0.32088,0.022448 -0.35296,0 -0.49736,-0.010102 -0.32087,-0.022448 z"
         id="path1762"
         inkscape:connector-curvature="0" />
      <path
         style="fill:#ffccaa;stroke-width:0.06111975;fill-opacity:1"
         d="m 165.09651,195.57944 v -10.21403 l 0.13752,0.0895 c 0.75614,0.49234 5.69343,3.46527 5.71654,3.44216 0.0168,-0.0168 -1.2958,-11.13594 -2.91683,-24.70925 l -2.94732,-24.67876 0.26818,-0.24448 c 1.08367,-0.9879 35.13071,-32.9329 35.11582,-32.94779 -0.019,-0.019 -9.80117,-1.1918 -30.02593,-3.59972 -2.68927,-0.32018 -4.99272,-0.59845 -5.11878,-0.61838 l -0.2292,-0.0362 V 56.625337 11.188173 h 0.12451 c 0.34881,0 5.74057,0.699207 8.92483,1.157377 13.13065,1.889317 26.32719,4.789237 38.16567,8.386848 0.77316,0.234957 1.53341,0.468637 1.68943,0.519286 l 0.28367,0.09209 -0.66003,1.355054 c -2.09695,4.305047 -3.33455,8.049849 -3.83116,11.592612 -0.15623,1.114513 -0.15561,4.155527 0.001,5.103499 0.414,2.505325 1.30533,4.583043 2.71378,6.325895 0.43742,0.541267 1.48522,1.56865 2.00358,1.964526 2.22544,1.699599 5.10838,2.809995 8.46509,3.260423 1.57698,0.211612 2.10737,0.24217 4.21726,0.24297 2.10251,7.94e-4 2.74165,-0.03296 4.70622,-0.24858 3.88833,-0.426757 8.39737,-1.383142 12.98795,-2.754799 1.64052,-0.490186 2.07232,-0.622997 2.43908,-0.750209 0.19855,-0.06887 0.37045,-0.125218 0.382,-0.125218 0.0525,0 0.0142,41.138649 -0.0397,42.661588 -0.48099,13.583555 -2.96188,25.806745 -7.59199,37.405285 -6.22847,15.60245 -16.29985,29.8769 -30.85273,43.72843 -7.81732,7.44058 -16.13648,14.25593 -28.84852,23.63372 -3.17899,2.34517 -15.1918,11.0545 -15.24751,11.0545 -0.0178,0 -0.0324,-4.59632 -0.0324,-10.21403 z"
         id="path1760"
         inkscape:connector-curvature="0"
         sodipodi:nodetypes="cccssccssccccssscccccccscsscscsssscc" />
      <path
         style="fill:#ff8080;stroke-width:0.06111975;fill-opacity:1"
         d="m 83.196043,188.8333 c 0,-0.0519 1.66522,-10.23587 3.70049,-22.63116 2.035263,-12.39529 3.853514,-23.47088 4.040553,-24.61242 l 0.34007,-2.07551 -0.205295,-0.18236 c -1.936377,-1.72003 -36.662266,-33.00155 -36.649493,-33.01432 0.01733,-0.0173 31.061039,-3.77683 42.617299,-5.1611 3.092663,-0.37046 5.721833,-0.68871 5.842603,-0.70723 l 0.21958,-0.0337 12.88772,-37.187614 c 7.08824,-20.453194 12.90414,-37.187623 12.92422,-37.187623 0.0201,0 4.99958,16.710467 11.06557,37.13437 6.06597,20.423905 11.04494,37.160857 11.06436,37.193237 0.0317,0.0529 3.61045,0.48883 18.54509,2.25898 2.55481,0.30281 5.08517,0.60447 5.62302,0.67035 0.53785,0.0659 6.40993,0.76661 13.04907,1.55718 6.63913,0.79058 12.10613,1.444 12.14888,1.45205 0.0427,0.008 -7.88524,7.47893 -17.61777,16.60196 -10.85172,10.17214 -17.6955,16.62987 -17.6955,16.69731 0,0.0605 1.32087,11.1721 2.93526,24.69246 1.61439,13.52036 2.92696,24.59078 2.91682,24.60092 -0.0101,0.0101 -1.33788,-0.78736 -2.95054,-1.77222 -25.05634,-15.30212 -40.47741,-24.69207 -40.55131,-24.69185 -0.0779,0 -27.682764,16.53118 -40.002874,23.95536 -4.548355,2.74087 -4.247823,2.56803 -4.247823,2.44292 z M 105.3146,165.05554 c 6.27933,-0.7774 13.60064,-5.33662 17.07173,-10.63113 1.04191,-1.58926 1.69287,-3.14321 1.97233,-4.70832 0.12961,-0.72584 0.11361,-0.009 0.51744,-23.18005 0.1929,-11.06823 0.36714,-20.14047 0.38718,-20.16052 0.0464,-0.0464 0.57958,0.12983 2.0001,0.66107 4.84664,1.81253 8.73396,4.04794 11.8878,6.8361 3.46357,3.06198 5.96899,6.68212 7.79552,11.26395 0.22577,0.56635 0.427,1.00301 0.44718,0.97037 0.0618,-0.10008 0.56546,-2.18986 0.76521,-3.1753 0.52025,-2.56657 0.70572,-4.59729 0.66022,-7.22876 -0.0436,-2.51856 -0.24017,-4.07281 -0.78479,-6.20365 -2.3882,-9.34398 -10.02193,-17.383977 -24.25496,-25.545824 -0.65551,-0.375898 -1.4325,-0.814323 -1.72663,-0.974273 l -0.5348,-0.29082 0.001,0.570308 c 0.003,1.268174 -0.67676,55.243919 -0.71089,56.439449 l -0.0368,1.28921 -1.4146,0.0402 c -5.59081,0.15868 -10.34609,1.24262 -14.40254,3.28297 -4.75349,2.39094 -8.056735,6.03615 -9.104725,10.0473 -0.290869,1.11329 -0.338591,1.50663 -0.334093,2.75381 0.0035,0.9613 0.02779,1.27134 0.141248,1.80039 0.531302,2.47736 2.122597,4.60144 4.117962,5.4967 0.740238,0.33212 1.772098,0.60768 2.612578,0.69769 0.58216,0.0624 2.24625,0.0335 2.92696,-0.0508 z"
         id="path1758"
         inkscape:connector-curvature="0"
         sodipodi:nodetypes="cssccccccssscscccssssccscccccscsscccccscccccccscccccc" />
    </g>
  </g>
</svg>
