<?xml version="1.0" encoding="UTF-8" standalone="no"?>
<!-- Created with Inkscape (http://www.inkscape.org/) -->

<svg
   xmlns:dc="http://purl.org/dc/elements/1.1/"
   xmlns:cc="http://creativecommons.org/ns#"
   xmlns:rdf="http://www.w3.org/1999/02/22-rdf-syntax-ns#"
   xmlns:svg="http://www.w3.org/2000/svg"
   xmlns="http://www.w3.org/2000/svg"
   xmlns:xlink="http://www.w3.org/1999/xlink"
   xmlns:sodipodi="http://sodipodi.sourceforge.net/DTD/sodipodi-0.dtd"
   xmlns:inkscape="http://www.inkscape.org/namespaces/inkscape"
   viewBox="0 0 256 256"
   version="1.1"
   id="svg953"
   inkscape:version="0.92.4 (5da689c313, 2019-01-14)"
   sodipodi:docname="tiara_cutie.svg">
  <defs
     id="defs947" />
  <sodipodi:namedview
     id="base"
     pagecolor="#ffffff"
     bordercolor="#666666"
     borderopacity="1.0"
     inkscape:pageopacity="0.0"
     inkscape:pageshadow="2"
     inkscape:zoom="2.8"
     inkscape:cx="103.28042"
     inkscape:cy="148.93595"
     inkscape:document-units="px"
     inkscape:current-layer="layer6"
     showgrid="false"
     units="px"
     inkscape:pagecheckerboard="true"
     inkscape:window-width="1920"
     inkscape:window-height="1027"
     inkscape:window-x="1592"
     inkscape:window-y="-8"
     inkscape:window-maximized="1" />
  <metadata
     id="metadata950">
    <rdf:RDF>
      <cc:Work
         rdf:about="">
        <dc:format>image/svg+xml</dc:format>
        <dc:type
           rdf:resource="http://purl.org/dc/dcmitype/StillImage" />
        <dc:title></dc:title>
      </cc:Work>
    </rdf:RDF>
  </metadata>
  <g
     inkscape:groupmode="layer"
     id="layer6"
     inkscape:label="Layer 2">
    <path
       style="fill:#ffaaaa;stroke-width:0.18535447;fill-opacity:1"
       d="m 46.76891,252.45741 c -12.970583,-5.08144 -21.680083,-9.90958 -20.887983,-21.04643 0.382338,-5.47368 1.274527,-8.34173 3.416508,-10.98278 2.608577,-3.21638 2.694694,-3.67875 0.859522,-4.61498 -7.99002,-4.07613 -18.150108,-22.35461 -18.150108,-32.65288 0,-2.79987 0.585876,-3.14852 7.556937,-4.4971 6.720755,-1.30015 7.484468,-1.72426 6.902013,-3.83282 -4.907399,-17.76541 -6.919035,-22.72775 -9.086598,-22.41498 -9.8954156,1.42785 -15.1753797,-1.91021 -16.2060196,-10.24565 -1.189378,-9.61926 4.2908202,-17.99502 12.7168376,-19.436 8.015305,-1.37075 13.014856,3.92643 13.014856,13.78966 v 5.48505 l 7.759389,1.33761 c 4.267664,0.73569 9.295748,1.66243 11.17352,2.05943 l 3.414131,0.72181 0.0108,-19.08867 c 0.0059,-10.49878 0.363082,-21.76243 0.793671,-25.03035 l 0.78289,-5.941667 h -3.72814 c -4.751998,0 -9.784889,-4.473065 -11.745744,-10.439224 -2.683166,-8.163878 2.302218,-19.665988 10.358854,-23.899604 5.721648,-3.006622 10.271088,-1.839797 14.352405,3.681057 3.34787,4.528712 3.848803,13.798896 1.072915,19.855195 l -1.758871,3.837421 10.759762,6.223423 c 5.91787,3.422883 14.209951,9.072799 18.426848,12.555359 l 7.667085,6.33193 1.444924,-6.52635 c 1.958536,-8.84619 6.904676,-24.942034 10.095796,-32.853958 2.56923,-6.370031 4.57675,-10.697502 10.5092,-22.653945 3.64478,-7.345792 3.64566,-7.223712 -0.0737,-10.171721 -4.02615,-3.191213 -6.1028,-10.612109 -5.19772,-18.574011 2.4801,-21.8172469 27.9488,-30.5163498 36.27832,-12.391245 3.62943,7.897669 1.37823,20.261145 -5.09878,28.002208 -3.72183,4.448196 -3.72225,4.456806 -0.51609,10.506147 4.31415,8.139849 10.94516,28.133776 13.71053,41.340189 1.44346,6.893413 2.86478,13.266446 3.15851,14.162286 0.35417,1.08023 4.38457,-1.81114 11.96676,-8.584844 6.288,-5.617513 14.49917,-12.378441 18.24706,-15.024283 l 6.81433,-4.810622 -0.39893,-7.071635 c -0.45626,-8.087627 1.44951,-13.23734 6.62978,-17.914803 4.59953,-4.153085 12.54707,-4.375604 16.57804,-0.464161 7.42626,7.206057 5.4709,22.522813 -3.78131,29.619775 -2.0193,1.548915 -4.69579,2.81621 -5.94776,2.81621 -1.97081,0 -2.38755,1.329005 -3.10525,9.902778 -0.74925,8.950835 -2.9484,24.261435 -5.13422,35.744815 l -0.82588,4.33888 10.42172,-4.78676 c 5.73194,-2.63271 11.78466,-5.1229 13.45047,-5.53376 2.51281,-0.61974 3.07274,-1.527 3.28694,-5.32575 0.90048,-15.97075 20.3598,-22.639212 25.40424,-8.7057 3.62652,10.01704 -4.45876,23.03058 -14.30884,23.03058 -2.32583,0 -4.5797,-0.5176 -5.00859,-1.15021 -1.19095,-1.75663 -3.08847,-0.15285 -3.11371,2.63168 -0.0124,1.3638 -1.91074,7.57249 -4.21862,13.7971 -2.30787,6.2246 -4.0762,11.4363 -3.92961,11.58156 0.14658,0.14525 4.05836,-0.15204 8.69281,-0.66066 l 8.42629,-0.92473 -0.7123,4.05588 c -1.19787,6.82061 -10.15226,21.77818 -17.41697,29.09356 l -6.88174,6.92973 2.6159,2.12423 c 1.43874,1.16833 3.37678,3.76306 4.30679,5.76606 6.14793,13.24124 -5.13772,28.11102 -28.41552,37.4398 -3.24343,1.29982 -5.89714,2.15878 -5.89714,1.90879 0,-0.24999 2.65371,-1.83895 5.89714,-3.53103 15.14177,-7.89937 26.38192,-19.57763 26.38192,-27.4102 0,-13.45453 -18.29233,-18.7304 -65.17887,-18.79888 -45.78205,-0.0669 -81.587143,5.68188 -106.489765,17.09762 -15.784592,7.2359 -22.359114,14.85473 -19.727666,22.86125 1.875775,5.70729 6.638173,9.59594 18.998501,15.51289 11.943502,5.7174 11.642601,6.11158 -1.412511,1.85043 z m -6.389695,-41.40677 c 3.451164,-2.11713 6.99903,-4.08517 7.884148,-4.3734 1.082613,-0.35255 0.526172,-1.31746 -1.700208,-2.94826 -1.820231,-1.3333 -6.539837,-7.00456 -10.488016,-12.60277 -7.106058,-10.07587 -7.229274,-10.17844 -12.209266,-10.16315 -8.645134,0.0266 -10.705891,0.94084 -9.822189,4.35776 1.691292,6.53953 9.137885,19.11521 14.265482,24.09128 2.983184,2.89503 5.5075,5.31414 5.60959,5.37579 0.102088,0.0617 3.009297,-1.6201 6.460459,-3.73725 z m 21.598097,-9.33163 c 3.926251,-1.11836 7.138638,-2.36786 7.138638,-2.77666 0,-1.50211 -13.33227,-10.0617 -19.91206,-12.78395 -8.044605,-3.3283 -13.610026,-4.69993 -13.604548,-3.35292 0.01204,2.97536 16.026894,21.96409 17.997831,21.34002 0.682826,-0.21621 4.453889,-1.30813 8.380139,-2.42649 z m 26.169819,-6.74712 c 5.920679,-1.12178 10.758999,-2.31704 10.751822,-2.65615 -0.03265,-1.54253 -11.932948,-14.93247 -19.448088,-21.88252 -7.682035,-7.10441 -21.529667,-16.64751 -24.156565,-16.64751 -1.360309,0 -0.601322,3.09867 4.01952,16.41032 3.988969,11.49135 14.07605,28.21205 16.50655,27.36182 0.859039,-0.3005 6.406082,-1.46418 12.326761,-2.58596 z m 129.478239,-4.1215 c 7.75526,-7.44235 12.1759,-13.19576 16.42895,-21.38204 2.14826,-4.13498 3.90593,-7.8273 3.90593,-8.20516 0,-1.22342 -4.53062,-0.73124 -11.11594,1.20755 -5.42236,1.59642 -6.83921,2.62051 -9.00319,6.50754 -4.42242,7.94372 -14.82088,22.15505 -16.2109,22.15505 -3.18316,0 5.55387,3.96018 9.68961,4.39195 0.71137,0.0742 3.54886,-2.02943 6.30554,-4.67489 z m -98.98264,-0.42543 4.21195,-0.58651 -0.82675,-11.51883 c -1.43726,-20.02497 -7.87666,-37.28115 -19.07989,-51.12994 l -4.577733,-5.65873 -1.064835,6.2246 c -2.224154,13.00151 1.192266,58.18873 4.801958,63.51299 0.59098,0.87169 6.31394,0.57973 16.5353,-0.84358 z m 89.42863,-11.88312 c 2.63646,-3.50178 5.18547,-7.49245 5.66444,-8.86816 0.8098,-2.3259 0.66676,-2.40238 -2.03999,-1.09064 -7.67382,3.71886 -19.98297,11.75365 -27.52163,17.96472 l -3.50522,2.88795 7.85047,1.24524 7.85049,1.24523 3.45394,-3.50873 c 1.89966,-1.92979 5.61104,-6.37382 8.2475,-9.87561 z m -60.615,9.37191 c 0.94325,-0.93694 4.36803,-12.38395 6.14739,-20.54709 4.12227,-18.91166 6.48239,-50.92857 3.7542,-50.92857 -1.60075,0 -11.33579,13.66203 -16.70715,23.44663 -7.66272,13.95856 -14.42575,35.51511 -14.42575,45.98076 v 3.58701 l 10.24239,-0.39861 c 5.63332,-0.21924 10.57834,-0.7323 10.98892,-1.14013 z m 32.63481,-8.38082 c 2.63609,-5.1353 6.14105,-12.64726 7.7888,-16.69325 1.64775,-4.04599 3.34892,-8.12028 3.78037,-9.05397 1.47635,-3.19496 3.86986,-11.88282 3.39466,-12.32177 -0.87455,-0.80782 -17.6536,12.35414 -22.81996,17.90062 -8.44755,9.06908 -21.17995,26.53147 -21.17995,29.04813 0,0.25143 5.45472,0.45715 12.1216,0.45715 h 12.1216 z M 61.004934,184.62579 C 57.37163,176.86864 54.137037,167.64111 52.260086,159.6788 l -2.19542,-9.31332 -9.78173,-2.81687 c -12.618585,-3.63381 -15.513367,-3.61903 -17.366543,0.0887 -1.16384,2.32853 -1.018811,4.40752 0.730288,10.46865 3.61362,12.52223 7.484629,19.24926 11.548498,20.06897 8.089715,1.63175 16.196669,4.08926 20.264247,6.14281 5.44521,2.74907 6.722051,2.82 5.545508,0.30806 z m 132.392806,-9.22197 c 5.41016,-3.67154 13.46237,-8.38243 17.89379,-10.46865 7.77651,-3.661 8.18219,-4.06903 11.64822,-11.71533 4.63582,-10.22694 8.86041,-24.03476 7.98781,-26.10769 -1.14927,-2.7302 -4.76749,-1.86067 -17.98253,4.32158 -10.65036,4.98243 -12.87669,6.48979 -13.79037,9.3369 -3.79894,11.83796 -9.16727,25.64181 -12.79175,32.89206 -2.31416,4.62917 -3.89128,8.41667 -3.50469,8.41667 0.38658,0 5.12937,-3.00399 10.53952,-6.67554 z M 93.79807,164.24247 c -1.216809,-12.3979 -1.233463,-19.05839 -0.07728,-30.90894 l 1.473751,-15.1056 -5.279903,-4.99869 C 84.198325,107.81739 67.225971,95.857847 61.292893,93.060974 57.854785,91.440236 57.452985,91.48304 54.988215,93.732609 52.466807,96.03387 52.35567,97.177681 52.35567,120.82658 c 0,18.35197 0.406522,25.13751 1.583376,26.42933 0.870857,0.95594 5.101744,3.61378 9.401972,5.90631 10.213076,5.4448 30.585202,23.50323 30.600574,27.12521 0.0024,0.57058 0.320102,0.74964 0.705959,0.3979 0.385856,-0.35175 0.0036,-7.75103 -0.849481,-16.44286 z m 67.18904,2.10703 c 0,-1.92676 22.6669,-21.98747 29.9754,-26.52889 l 6.99283,-4.34525 2.59611,-11.4992 c 2.31432,-10.25098 4.20472,-22.37985 5.45324,-34.988292 0.34157,-3.449436 -0.22635,-4.814617 -3.01669,-7.2516 l -3.43748,-3.00217 -5.31424,3.290489 c -2.92284,1.80977 -11.5996,8.949728 -19.28171,15.866574 l -13.96746,12.576089 -0.007,16.84931 c -0.006,14.57132 -1.47938,28.20149 -4.51183,41.74772 l -0.76004,3.39524 2.63959,-2.49911 c 1.45191,-1.37451 2.63973,-2.99941 2.63973,-3.61091 z m -22.96657,-28.40823 c 4.03553,-7.20326 12.82211,-19.70685 16.62428,-23.6569 2.93812,-3.05239 3.10866,-5.19111 1.31577,-16.500855 -1.81185,-11.429359 -5.5406,-24.807462 -10.63284,-38.148716 -5.87567,-15.39376 -6.21802,-15.93722 -9.1412,-14.511093 -1.29209,0.630373 -4.65692,1.146133 -7.47741,1.146133 h -5.12816 l -4.95266,9.634373 C 112.15305,68.500478 104.79679,89.075528 101.35633,104.213 l -2.751801,12.10746 5.929191,7.13223 c 3.26105,3.92272 8.03352,11.20651 10.60548,16.18619 4.12914,7.99462 5.63699,12.24778 9.22831,26.03016 0.79418,3.04782 1.35956,2.12136 5.52524,-9.05397 2.5523,-6.84706 6.2098,-15.25027 8.12779,-18.6738 z"
       id="path1620"
       inkscape:connector-curvature="0"
       sodipodi:nodetypes="ccccscscssscccccscssssscsscssscssccscscccsssscccscccsccsscccsccccsssssssccccsccssccsscccssccsscscsscssccscsscsssccccccccccsscscscssccssscscscscsscccccsccccsccscsssscccccccccsscsscccccccsssscscsscssscs" />
  </g>
</svg>
