<?xml version="1.0" encoding="UTF-8" standalone="no"?>
<!-- Created with Inkscape (http://www.inkscape.org/) -->

<svg
   xmlns:dc="http://purl.org/dc/elements/1.1/"
   xmlns:cc="http://creativecommons.org/ns#"
   xmlns:rdf="http://www.w3.org/1999/02/22-rdf-syntax-ns#"
   xmlns:svg="http://www.w3.org/2000/svg"
   xmlns="http://www.w3.org/2000/svg"
   xmlns:sodipodi="http://sodipodi.sourceforge.net/DTD/sodipodi-0.dtd"
   xmlns:inkscape="http://www.inkscape.org/namespaces/inkscape"
   viewBox="0 0 256 256.00001"
   version="1.1"
   id="svg8"
   inkscape:version="0.92.4 (5da689c313, 2019-01-14)"
   sodipodi:docname="trixie_cutie.svg">
  <defs
     id="defs2" />
  <sodipodi:namedview
     id="base"
     pagecolor="#ffffff"
     bordercolor="#666666"
     borderopacity="1.0"
     inkscape:pageopacity="0.0"
     inkscape:pageshadow="2"
     inkscape:zoom="2.8"
     inkscape:cx="37.040578"
     inkscape:cy="137.99081"
     inkscape:document-units="px"
     inkscape:current-layer="layer1"
     showgrid="false"
     units="px"
     inkscape:pagecheckerboard="true"
     inkscape:window-width="1920"
     inkscape:window-height="1027"
     inkscape:window-x="1592"
     inkscape:window-y="-8"
     inkscape:window-maximized="1" />
  <metadata
     id="metadata5">
    <rdf:RDF>
      <cc:Work
         rdf:about="">
        <dc:format>image/svg+xml</dc:format>
        <dc:type
           rdf:resource="http://purl.org/dc/dcmitype/StillImage" />
        <dc:title></dc:title>
      </cc:Work>
    </rdf:RDF>
  </metadata>
  <g
     inkscape:label="Layer 1"
     inkscape:groupmode="layer"
     id="layer1"
     transform="translate(0,-866.51965)">
    <ellipse
       style="opacity:1;fill:#ffffff;fill-opacity:1;stroke:none;stroke-width:1.55716538;stroke-miterlimit:4;stroke-dasharray:none;stroke-opacity:1"
       id="path841-6"
       cx="49.999996"
       cy="1025.734"
       rx="11.428572"
       ry="13.035714" />
    <ellipse
       style="opacity:1;fill:#ffffff;fill-opacity:1;stroke:none;stroke-width:1.55716538;stroke-miterlimit:4;stroke-dasharray:none;stroke-opacity:1"
       id="path841-3"
       cx="122.14286"
       cy="1045.0197"
       rx="11.428572"
       ry="13.035714" />
    <ellipse
       style="opacity:1;fill:#ffffff;fill-opacity:1;stroke:none;stroke-width:1.55716538;stroke-miterlimit:4;stroke-dasharray:none;stroke-opacity:1"
       id="path841-77"
       cx="168.92857"
       cy="1058.9482"
       rx="11.428572"
       ry="13.035714" />
    <ellipse
       style="opacity:1;fill:#ffffff;fill-opacity:1;stroke:none;stroke-width:1.55716538;stroke-miterlimit:4;stroke-dasharray:none;stroke-opacity:1"
       id="path841-7"
       cx="203.21428"
       cy="1025.0197"
       rx="11.428572"
       ry="13.035714" />
    <ellipse
       style="opacity:1;fill:#ffffff;fill-opacity:1;stroke:none;stroke-width:1.55716538;stroke-miterlimit:4;stroke-dasharray:none;stroke-opacity:1"
       id="path841"
       cx="236.42857"
       cy="952.34106"
       rx="11.428572"
       ry="13.035714" />
    <g
       inkscape:label="Layer 3"
       id="layer7"
       transform="translate(-0.47056286,866.36792)">
      <g
         id="g1667">
        <path
           inkscape:connector-curvature="0"
           id="path1677"
           d="m 101.41162,93.889525 c -0.0389,-0.02127 -7.277,2.433779 -16.084723,5.455669 -8.807723,3.021896 -16.520587,5.667806 -17.139697,5.879796 -0.619111,0.21199 -1.125656,0.35511 -1.125656,0.31803 0,-0.0371 5.851088,-8.648937 13.002417,-19.137477 7.74818,-11.363912 12.992103,-19.130888 12.976896,-19.220571 -0.01404,-0.08277 -4.536638,-4.795779 -10.050226,-10.473345 -11.6988,-12.04673 -11.11977,-11.445364 -11.068342,-11.495278 0.03747,-0.03636 35.011511,3.20487 35.662851,3.305069 0.18186,0.02797 0.35232,0.0043 0.43889,-0.06101 0.12637,-0.09531 6.11981,-8.393941 27.3811,-37.912424 7.37929,-10.24516602 6.49007,-9.0265613 6.54667,-8.9716234 0.0246,0.023909 0.69578,11.0409444 1.49141,24.4823014 1.01884,17.211759 1.47665,24.466688 1.54813,24.533029 0.0722,0.06699 6.54274,0.263428 22.40221,0.680103 24.20795,0.636016 24.93651,0.658304 24.83209,0.759653 -0.0388,0.03762 -9.98869,5.022726 -22.11097,11.07802 -12.12227,6.055293 -22.09635,11.063844 -22.16463,11.130113 -0.10888,0.105681 0,3.42021 0.88874,26.97054 0.55709,14.76753 0.99347,26.87921 0.96974,26.91486 -0.0237,0.0356 -6.50149,-7.35186 -14.395,-16.41667 -9.81738,-11.27416 -14.3794,-16.454733 -14.43908,-16.396817 -11.69672,11.696727 -16.27847,10.835387 -19.56282,-1.421968 z M 168.0598,199.19322 c -111.726158,37.97234 -55.86308,18.98617 0,0 z"
           style="fill:#ffccaa;fill-opacity:1;stroke-width:0.08369579"
           sodipodi:nodetypes="csssscscccscccscscccscccc" />
        <path
           inkscape:connector-curvature="0"
           id="path1675"
           d="m 45.638692,255.69712 c -0.01557,-0.0398 -3.774839,-1.48934 -8.353921,-3.22119 -4.579081,-1.73184 -8.357374,-3.17906 -8.396206,-3.21603 -0.03883,-0.037 6.873676,-14.50707 15.361129,-32.15578 8.487455,-17.64872 15.419706,-32.14822 15.405005,-32.22113 7.966038,-29.72966 7.945571,-30.00137 20.522232,-42.57803 0.152442,-0.16206 16.448999,-34.09401 16.448999,-34.24935 8.6116,-8.611604 8.87301,-8.664577 11.74252,2.04458 -0.15504,0.15049 -14.466046,33.51393 -14.48714,33.77407 -6.023475,22.47991 -6.190138,23.30359 -20.882412,48.75136 -0.0522,0.0169 -1.844395,4.11082 -3.982658,9.09762 -19.229035,44.84548 -23.054549,53.77629 -23.088884,53.90189 -0.04089,0.14958 -0.238958,0.19893 -0.288654,0.0719 z"
           style="fill:#ffb380;fill-opacity:1;stroke-width:0.08369579"
           sodipodi:nodetypes="cccsccccccsccc" />
        <path
           inkscape:connector-curvature="0"
           id="path1673"
           d="m 140.63269,217.8679 c -4.54277,-0.23505 -7.80365,-0.55962 -11.53351,-1.14798 -13.20633,-2.0832 -25.60687,-6.6519 -40.3316,-14.85929 -2.620186,-1.46046 -7.187797,-4.13735 -11.214077,-6.57212 -2.009189,-1.21499 -3.834662,-2.31814 -4.056608,-2.45144 -0.221945,-0.1333 -0.403536,-0.27239 -0.403536,-0.30911 0,-0.0367 0.110507,-0.32108 0.245571,-0.63195 0.135064,-0.31086 1.947343,-4.53542 4.027286,-9.3879 2.079944,-4.85249 5.64272,-13.16396 7.917282,-18.46995 2.274559,-5.30599 5.112366,-11.9292 6.306232,-14.71824 1.193866,-2.78905 2.202954,-5.10549 2.242425,-5.14765 0.04415,-0.0472 0.325803,-0.0425 0.731888,0.0122 0.363073,0.0489 3.470018,0.48057 6.904327,0.95925 3.43431,0.4787 6.85588,0.94815 7.60349,1.04326 0.7476,0.0951 1.76069,0.22573 2.25131,0.29029 3.01568,0.39686 9.59319,1.07013 12.82822,1.31311 10.37948,0.77954 20.25705,0.72321 29.05466,-0.16572 7.80004,-0.78814 15.91988,-2.25703 20.94613,-3.7892 7.01627,-2.1388 13.77009,-5.5971 19.69336,-10.08399 3.62001,-2.74219 7.19113,-6.1089 10.22105,-9.63602 3.31711,-3.86144 6.46916,-8.61278 8.74424,-13.18091 7.81703,-15.695736 9.08023,-33.585194 3.65624,-51.779354 -4.74964,-15.932122 -14.9892,-32.22327 -29.40588,-46.784761 -0.59252,-0.598471 -0.89175,-0.957018 -0.81848,-0.980722 0.14407,-0.04661 2.02092,0.1001 4.08873,0.319609 14.5019,1.539453 27.31658,6.373497 37.30481,14.072376 2.79057,2.150947 6.3139,5.396148 8.48198,7.812409 8.46741,9.436623 14.26561,21.232058 17.36795,35.332022 1.32814,6.036314 2.09993,12.481651 2.43384,20.325189 0.0922,2.166822 0.0386,7.221791 -0.0871,8.204285 -0.0435,0.340128 -0.13972,1.657348 -0.2138,2.927157 -0.94116,16.13216 -5.30442,33.65097 -12.3013,49.39062 -2.92722,6.58484 -6.49975,13.23062 -10.28162,19.12632 -14.4074,22.46019 -33.9491,38.13843 -55.4905,44.51982 -7.73386,2.29107 -18.01905,3.95521 -27.31307,4.41924 -1.46016,0.0729 -8.34974,0.0938 -9.59993,0.0291 z m 27.42711,-18.67468 2.66269,-4.74497 1.45764,-0.0537 c 0.80169,-0.0295 2.05019,-0.0543 2.77443,-0.055 1.38697,-0.001 1.6991,-0.0381 1.6991,-0.19966 0,-0.0544 -0.90514,-0.57879 -2.01142,-1.16537 -1.10629,-0.58659 -2.08036,-1.12218 -2.16462,-1.1902 -0.1466,-0.11837 -0.12418,-0.30767 0.52265,-4.41135 0.3717,-2.35822 0.67675,-4.3897 0.67789,-4.51442 0.002,-0.24101 -0.0946,-0.29348 -0.22809,-0.12368 -0.0446,0.0567 -0.82029,1.66147 -1.72381,3.56618 -0.90351,1.90472 -1.67889,3.50911 -1.72306,3.56532 -0.0612,0.0779 -0.95124,0.1073 -3.74496,0.12368 -3.19099,0.0187 -3.66465,0.0375 -3.66465,0.14517 0,0.0797 0.96063,0.59327 2.69884,1.44296 1.48437,0.72561 2.73153,1.35639 2.77148,1.40174 0.0421,0.0478 -0.56525,2.31672 -1.44576,5.40081 -0.83512,2.9251 -1.54031,5.46677 -1.56711,5.64818 l -0.0487,0.32982 0.19738,-0.21026 c 0.10857,-0.11566 1.39561,-2.34551 2.86009,-4.95524 z m -47.95156,-17.42291 c 2.94936,-1.81402 3.57676,-2.1692 3.73069,-2.11198 0.10176,0.0378 1.6857,0.70379 3.51987,1.4799 1.83416,0.77611 3.39203,1.41111 3.46192,1.41111 0.0699,0 0.12708,-0.0395 0.12708,-0.0877 0,-0.0482 -1.03275,-1.35203 -2.29501,-2.89732 l -2.295,-2.80961 1.74279,-3.32924 c 0.95854,-1.83108 1.74281,-3.36581 1.74281,-3.4105 0,-0.0447 -0.0571,-0.0813 -0.12696,-0.0813 -0.0698,0 -1.56915,1.06177 -3.33181,2.35947 -1.76268,1.29771 -3.25695,2.37887 -3.3206,2.40258 -0.0636,0.0237 -1.60254,-0.32297 -3.41973,-0.7704 -2.42634,-0.59743 -3.32911,-0.78914 -3.39854,-0.72175 -0.0694,0.0674 0.4953,0.61426 2.12606,2.05874 1.41365,1.25217 2.20842,2.01222 2.18704,2.09148 -0.0185,0.0685 -0.97518,1.54904 -2.12603,3.29012 -1.15084,1.74108 -2.07216,3.19744 -2.04738,3.23636 0.0248,0.0389 0.0748,0.0708 0.1111,0.0708 0.0363,0 1.66159,-0.98135 3.6117,-2.18076 z m 86.02485,-17.31817 c 0,-0.0671 -0.20884,-1.16881 -0.46411,-2.44827 -0.35897,-1.79931 -0.44177,-2.35241 -0.36551,-2.4416 0.0542,-0.0634 1.17104,-0.97209 2.4818,-2.01927 3.57688,-2.85762 3.67604,-2.94623 3.29646,-2.94577 -0.0818,0 -1.73061,0.55667 -3.6641,1.23683 -1.93348,0.68015 -3.57736,1.23627 -3.65307,1.23581 -0.0757,-8.3e-4 -0.93871,-0.57558 -1.9178,-1.27806 -0.97909,-0.70246 -1.82971,-1.27722 -1.89025,-1.27722 -0.15193,0 -0.14211,0.36397 0.0663,2.45843 l 0.17638,1.77271 -0.28258,0.26315 c -0.1554,0.14474 -1.24787,1.12606 -2.42768,2.18071 -1.17982,1.05465 -2.14512,1.95078 -2.14512,1.9914 0,0.0406 0.0629,0.0738 0.13983,0.0738 0.0769,0 1.45895,-0.46381 3.07121,-1.03069 1.61225,-0.56688 2.99462,-1.03069 3.07192,-1.03069 0.0773,0 1.07201,0.76065 2.21049,1.69033 1.13847,0.92968 2.12078,1.69033 2.1829,1.69033 0.0621,0 0.11295,-0.0549 0.11295,-0.12198 z m 34.49178,-69.666336 c 0,-0.107909 -0.34392,-1.749797 -0.76426,-3.64864 -0.42035,-1.89885 -0.76442,-3.509867 -0.7646,-3.580036 0,-0.07017 1.29842,-1.443048 2.88578,-3.05084 1.58735,-1.607792 2.88716,-2.969638 2.88847,-3.026326 0.001,-0.05669 -0.0479,-0.103069 -0.10927,-0.103069 -0.0614,0 -1.73152,0.613547 -3.71137,1.363438 -1.97986,0.74989 -3.64201,1.347695 -3.69368,1.32845 -0.0517,-0.01924 -0.77172,-1.132001 -1.60011,-2.472789 -0.82839,-1.340788 -1.54385,-2.460408 -1.58993,-2.488045 -0.0461,-0.02764 -0.10677,0.0079 -0.13487,0.079 -0.0281,0.07109 0.0225,1.585459 0.11243,3.365273 0.0899,1.77981 0.14952,3.276923 0.13239,3.326908 -0.0171,0.04999 -1.42462,1.284782 -3.12775,2.743983 -1.70312,1.4592 -3.09658,2.689142 -3.09658,2.733197 0,0.04406 0.0704,0.08011 0.15649,0.08011 0.0861,0 1.73951,-0.426301 3.67431,-0.947335 1.93479,-0.521034 3.59427,-0.946725 3.68772,-0.945992 0.10582,8.25e-4 0.36389,0.22601 0.68413,0.596901 2.60292,3.014683 4.22169,4.841996 4.28939,4.841996 0.0447,0 0.0813,-0.08828 0.0813,-0.196185 z M 58.013823,183.90159 c -1.852696,-0.99751 -6.11368,-3.05226 -8.02826,-3.87143 -3.881573,-1.66076 -8.12924,-3.13805 -11.596375,-4.03308 -9.785451,-2.52607 -19.482917,-2.67141 -29.6488055,-0.44438 -1.7789019,0.3897 -4.3245196,1.05884 -6.0658262,1.59446 -0.6725668,0.20688 -1.2426038,0.35697 -1.2667489,0.33353 -0.1232437,-0.11961 2.3051058,-4.86641 3.502313,-6.84612 7.7661176,-12.84208 19.1682956,-21.2791 34.5410066,-25.55853 4.930028,-1.37242 10.065999,-2.29108 15.674222,-2.80361 5.935706,-0.54246 13.814861,-0.60564 20.601619,-0.16518 3.824895,0.24823 4.264937,0.29622 4.220735,0.46028 -0.02187,0.0812 -4.581056,9.59265 -10.131523,21.13661 -7.291935,15.16591 -10.128705,20.98709 -10.224938,20.98204 -0.07325,-0.004 -0.783089,-0.35691 -1.577419,-0.78459 z M 43.934802,163.41975 c 1.496968,-0.90701 2.782895,-1.64911 2.857616,-1.64911 0.07472,0 1.179551,0.53802 2.45518,1.1956 2.193313,1.13064 2.606978,1.30732 2.606978,1.11343 0,-0.0452 -0.440944,-1.08563 -0.979877,-2.31208 -0.539354,-1.2274 -0.952591,-2.27474 -0.919184,-2.32964 0.03338,-0.0548 0.831169,-1.04591 1.772864,-2.20234 3.248274,-3.98899 3.16321,-3.87539 2.901865,-3.87539 -0.06204,0 -1.574738,0.89052 -3.361542,1.97892 -1.786802,1.08841 -3.306579,1.97893 -3.377279,1.97893 -0.0707,0 -1.014494,-0.3896 -2.097318,-0.86578 -1.8899,-0.8311 -2.265132,-0.96123 -2.265132,-0.7856 0,0.0441 0.287979,0.95925 0.639955,2.03365 l 0.639954,1.95347 -0.288614,0.4194 c -0.158738,0.23066 -1.001049,1.39961 -1.871804,2.59767 -1.466654,2.01796 -1.705836,2.39797 -1.509305,2.39797 0.04064,0 1.298676,-0.7421 2.795643,-1.6491 z m 69.809588,-52.56958 c -2.66335,-0.47137 -5.00733,-0.85801 -5.20885,-0.8592 -0.47161,-0.003 -11.751033,-1.97101 -11.877965,-2.07268 -0.05268,-0.0422 -1.925941,-0.39522 -4.162801,-0.7845 -2.23686,-0.38928 -4.105244,-0.74418 -4.15197,-0.78868 -0.05621,-0.0535 0.03409,-0.18316 0.266819,-0.38305 0.193477,-0.16617 3.24408,-2.97368 6.779122,-6.238901 l 6.427345,-5.936769 6.77122,-2.328285 c 3.72417,-1.280553 6.8363,-2.328764 6.91584,-2.329358 0.0863,-8.24e-4 1.19315,1.20288 2.74734,2.987432 2.51436,2.887026 2.60119,2.998324 2.55732,3.277591 -0.025,0.158998 -0.45029,3.814045 -0.94512,8.12233 -0.49484,4.30828 -0.91817,7.91672 -0.94073,8.01876 -0.0242,0.1095 -0.10127,0.18282 -0.18808,0.17893 -0.0809,-0.004 -2.32615,-0.39225 -4.98949,-0.86362 z"
           style="fill:#ffaaaa;fill-opacity:1;stroke-width:0.08369579"
           sodipodi:nodetypes="cssccscsscccccccsscscsscsccscccscscccccccsccccccccsccsccccccccsscccssccccscccscccccccccsccccsscscscccccccsccscccccsscccsccccccscscsccscccssscccscscsccccscsccsccscsccccccs" />
        <path
           inkscape:connector-curvature="0"
           id="path1669"
           d="m 114.89128,110.97514 c -1.98582,-0.35515 -4.33696,-0.76389 -5.22474,-0.90832 -2.91422,-0.47409 -12.481546,-2.13417 -12.79628,-2.22036 -0.251246,-0.0688 -8.223529,-1.48566 -8.35944,-1.48566 -0.162188,0 0.235844,-0.39879 2.316922,-2.32133 1.296628,-1.19786 4.297234,-3.9687 6.668018,-6.157427 l 4.31051,-3.979507 6.84477,-2.348124 c 3.76462,-1.291462 6.87912,-2.327502 6.92113,-2.302304 0.12337,0.074 5.09846,5.80358 5.13698,5.916024 0.0193,0.05635 -0.39352,3.775826 -0.9174,8.265508 -0.90403,7.74761 -0.96109,8.16368 -1.12119,8.17515 -0.0928,0.007 -1.79345,-0.2785 -3.77928,-0.63365 z m 15.31444,-25.269353 c -1.77164,-3.413009 -8.38244,-15.853751 -8.47157,-15.942502 -0.0904,-0.09003 -0.14975,-0.09166 -0.31265,-0.0086 -0.11058,0.05639 -4.50191,2.588036 -9.75851,5.625873 -5.2566,3.037837 -9.59109,5.542163 -9.63219,5.56517 -0.36577,0.204716 1.07247,-1.048842 8.29414,-7.229118 4.5674,-3.908761 8.30437,-7.141554 8.30437,-7.183985 0,-0.04243 -0.66429,-0.810636 -1.4762,-1.707124 -0.81191,-0.896487 -2.98849,-3.299039 -4.83686,-5.339004 -1.84837,-2.039963 -3.34552,-3.723732 -3.327,-3.741707 0.0185,-0.01797 2.90191,1.60371 6.40752,3.603746 3.50563,2.000035 6.42341,3.617971 6.48397,3.595414 0.0606,-0.02256 1.42026,-3.538303 3.02152,-7.812768 1.60127,-4.274465 2.94872,-7.826351 2.99434,-7.893081 0.0617,-0.09027 0.0719,-0.06855 0.0398,0.08481 -0.0237,0.113376 -0.63963,3.652058 -1.36866,7.863739 -0.97776,5.648527 -1.30059,7.681809 -1.23045,7.749878 0.0701,0.06807 2.3365,-0.455143 8.63832,-1.994225 4.69879,-1.147578 8.5579,-2.072296 8.57579,-2.05493 0.0179,0.01737 -3.78027,1.813979 -8.44038,3.992477 -6.4874,3.032723 -8.47828,3.997532 -8.49586,4.117211 -0.0126,0.08597 1.12533,4.477229 2.52878,9.758354 1.40345,5.281125 2.5378,9.640937 2.52078,9.68848 -0.017,0.04754 -0.22358,-0.284618 -0.45899,-0.738122 z"
           style="fill:#ffeeaa;fill-opacity:1;stroke-width:0.08369579" />
      </g>
    </g>
  </g>
</svg>
