<?xml version="1.0" encoding="UTF-8" standalone="no"?>
<svg
   xmlns:dc="http://purl.org/dc/elements/1.1/"
   xmlns:cc="http://creativecommons.org/ns#"
   xmlns:rdf="http://www.w3.org/1999/02/22-rdf-syntax-ns#"
   xmlns:svg="http://www.w3.org/2000/svg"
   xmlns="http://www.w3.org/2000/svg"
   xmlns:xlink="http://www.w3.org/1999/xlink"
   xmlns:sodipodi="http://sodipodi.sourceforge.net/DTD/sodipodi-0.dtd"
   xmlns:inkscape="http://www.inkscape.org/namespaces/inkscape"
   cursor="default"
   version="1.1"
   viewBox="0 0 256 256"
   id="svg140"
   sodipodi:docname="taur_enforcer_skirt.svg"
   inkscape:version="0.92.4 (5da689c313, 2019-01-14)">
  <sodipodi:namedview
     pagecolor="#ffffff"
     bordercolor="#666666"
     borderopacity="1"
     objecttolerance="10"
     gridtolerance="10"
     guidetolerance="10"
     inkscape:pageopacity="0"
     inkscape:pageshadow="2"
     inkscape:window-width="1360"
     inkscape:window-height="745"
     id="namedview142"
     showgrid="false"
     inkscape:object-nodes="false"
     inkscape:zoom="9"
     inkscape:cx="160.88613"
     inkscape:cy="154.61682"
     inkscape:window-x="-8"
     inkscape:window-y="-8"
     inkscape:window-maximized="1"
     inkscape:current-layer="svg140" />
  <metadata
     id="metadata10">
    <rdf:RDF>
      <cc:Work
         rdf:about="">
        <dc:format>image/svg+xml</dc:format>
        <dc:type
           rdf:resource="http://purl.org/dc/dcmitype/StillImage" />
        <dc:title />
      </cc:Work>
    </rdf:RDF>
  </metadata>
  <defs
     id="defs38">
    <inkscape:path-effect
       effect="powerstroke"
       id="path-effect1555"
       is_visible="true"
       offset_points="0,0.5"
       sort_points="true"
       interpolator_type="CubicBezierJohan"
       interpolator_beta="0.2"
       start_linecap_type="zerowidth"
       linejoin_type="extrp_arc"
       miter_limit="4"
       end_linecap_type="zerowidth" />
    <inkscape:path-effect
       effect="powerstroke"
       id="path-effect1536"
       is_visible="true"
       offset_points="0,0.5"
       sort_points="true"
       interpolator_type="CubicBezierJohan"
       interpolator_beta="0.2"
       start_linecap_type="zerowidth"
       linejoin_type="extrp_arc"
       miter_limit="4"
       end_linecap_type="zerowidth" />
    <inkscape:path-effect
       effect="powerstroke"
       id="path-effect1532"
       is_visible="true"
       offset_points="0,0.5"
       sort_points="true"
       interpolator_type="CubicBezierJohan"
       interpolator_beta="0.2"
       start_linecap_type="zerowidth"
       linejoin_type="extrp_arc"
       miter_limit="4"
       end_linecap_type="zerowidth" />
    <inkscape:path-effect
       effect="powerstroke"
       id="path-effect1528"
       is_visible="true"
       offset_points="0,0.5"
       sort_points="true"
       interpolator_type="CubicBezierJohan"
       interpolator_beta="0.2"
       start_linecap_type="zerowidth"
       linejoin_type="extrp_arc"
       miter_limit="4"
       end_linecap_type="zerowidth" />
    <inkscape:path-effect
       effect="powerstroke"
       id="path-effect1516"
       is_visible="true"
       offset_points="0,0.5"
       sort_points="true"
       interpolator_type="CubicBezierJohan"
       interpolator_beta="0.2"
       start_linecap_type="zerowidth"
       linejoin_type="extrp_arc"
       miter_limit="4"
       end_linecap_type="zerowidth" />
    <inkscape:path-effect
       effect="powerstroke"
       id="path-effect1512"
       is_visible="true"
       offset_points="0,0.5"
       sort_points="true"
       interpolator_type="CubicBezierJohan"
       interpolator_beta="0.2"
       start_linecap_type="zerowidth"
       linejoin_type="extrp_arc"
       miter_limit="4"
       end_linecap_type="zerowidth" />
    <inkscape:path-effect
       effect="powerstroke"
       id="path-effect1508"
       is_visible="true"
       offset_points="0,0.5"
       sort_points="true"
       interpolator_type="CubicBezierJohan"
       interpolator_beta="0.2"
       start_linecap_type="zerowidth"
       linejoin_type="extrp_arc"
       miter_limit="4"
       end_linecap_type="zerowidth" />
    <inkscape:path-effect
       effect="powerstroke"
       id="path-effect1502"
       is_visible="true"
       offset_points="0,0.5"
       sort_points="true"
       interpolator_type="CubicBezierJohan"
       interpolator_beta="0.2"
       start_linecap_type="zerowidth"
       linejoin_type="extrp_arc"
       miter_limit="4"
       end_linecap_type="zerowidth" />
    <inkscape:path-effect
       effect="powerstroke"
       id="path-effect1480"
       is_visible="true"
       offset_points="0,0.5"
       sort_points="true"
       interpolator_type="CubicBezierJohan"
       interpolator_beta="0.2"
       start_linecap_type="zerowidth"
       linejoin_type="extrp_arc"
       miter_limit="4"
       end_linecap_type="zerowidth" />
    <inkscape:path-effect
       effect="powerstroke"
       id="path-effect4785"
       is_visible="true"
       offset_points="0,0.5"
       sort_points="true"
       interpolator_type="CubicBezierJohan"
       interpolator_beta="0.2"
       start_linecap_type="zerowidth"
       linejoin_type="extrp_arc"
       miter_limit="4"
       end_linecap_type="zerowidth" />
    <inkscape:path-effect
       effect="powerstroke"
       id="path-effect4622"
       is_visible="true"
       offset_points="0,0.5"
       sort_points="true"
       interpolator_type="CubicBezierJohan"
       interpolator_beta="0.2"
       start_linecap_type="zerowidth"
       linejoin_type="extrp_arc"
       miter_limit="4"
       end_linecap_type="zerowidth" />
    <inkscape:path-effect
       effect="powerstroke"
       id="path-effect4618"
       is_visible="true"
       offset_points="0,0.5"
       sort_points="true"
       interpolator_type="CubicBezierJohan"
       interpolator_beta="0.2"
       start_linecap_type="zerowidth"
       linejoin_type="extrp_arc"
       miter_limit="4"
       end_linecap_type="zerowidth" />
    <inkscape:path-effect
       effect="powerstroke"
       id="path-effect4614"
       is_visible="true"
       offset_points="0,0.5"
       sort_points="true"
       interpolator_type="CubicBezierJohan"
       interpolator_beta="0.2"
       start_linecap_type="zerowidth"
       linejoin_type="extrp_arc"
       miter_limit="4"
       end_linecap_type="zerowidth" />
    <inkscape:path-effect
       effect="powerstroke"
       id="path-effect4610"
       is_visible="true"
       offset_points="0,0.5"
       sort_points="true"
       interpolator_type="CubicBezierJohan"
       interpolator_beta="0.2"
       start_linecap_type="zerowidth"
       linejoin_type="extrp_arc"
       miter_limit="4"
       end_linecap_type="zerowidth" />
    <inkscape:path-effect
       effect="powerstroke"
       id="path-effect4606"
       is_visible="true"
       offset_points="0,0.5"
       sort_points="true"
       interpolator_type="CubicBezierJohan"
       interpolator_beta="0.2"
       start_linecap_type="zerowidth"
       linejoin_type="extrp_arc"
       miter_limit="4"
       end_linecap_type="zerowidth" />
    <inkscape:path-effect
       effect="powerstroke"
       id="path-effect4602"
       is_visible="true"
       offset_points="0,0.5"
       sort_points="true"
       interpolator_type="CubicBezierJohan"
       interpolator_beta="0.2"
       start_linecap_type="zerowidth"
       linejoin_type="extrp_arc"
       miter_limit="4"
       end_linecap_type="zerowidth" />
    <inkscape:path-effect
       effect="powerstroke"
       id="path-effect4598"
       is_visible="true"
       offset_points="0,0.5"
       sort_points="true"
       interpolator_type="CubicBezierJohan"
       interpolator_beta="0.2"
       start_linecap_type="zerowidth"
       linejoin_type="extrp_arc"
       miter_limit="4"
       end_linecap_type="zerowidth" />
    <linearGradient
       id="innoGrad1">
      <stop
         stop-color="#f55"
         offset="0"
         id="stop12" />
      <stop
         stop-color="#ff8080"
         stop-opacity="0"
         offset="1"
         id="stop14" />
    </linearGradient>
    <linearGradient
       id="innoGrad2">
      <stop
         stop-color="#ff2a2a"
         offset="0"
         id="stop17" />
      <stop
         stop-color="#f55"
         offset="1"
         id="stop19" />
    </linearGradient>
    <linearGradient
       id="linearGradient1090-9"
       x1="54.237"
       x2="51.797"
       y1="64.542"
       y2="37.017"
       gradientTransform="matrix(0.66884,-0.079138,0.054026,0.45661,53.32294,12.2431)"
       gradientUnits="userSpaceOnUse"
       xlink:href="#innoGrad2" />
    <linearGradient
       id="linearGradient1122"
       x1="449.08"
       x2="439.05"
       y1="184.95"
       y2="246.51"
       gradientTransform="translate(-314.03 -9.7627)"
       gradientUnits="userSpaceOnUse"
       xlink:href="#innoGrad2" />
    <linearGradient
       id="linearGradient1132"
       x1="395.21"
       x2="354.05"
       y1="211.25"
       y2="203.39"
       gradientTransform="translate(-314.03,-9.7627)"
       gradientUnits="userSpaceOnUse"
       xlink:href="#innoGrad1" />
    <linearGradient
       id="linearGradient1136"
       x1="365.39"
       x2="355.61"
       y1="205.66"
       y2="201.73"
       gradientTransform="translate(-314.03,-9.7627)"
       gradientUnits="userSpaceOnUse"
       xlink:href="#innoGrad1" />
    <linearGradient
       id="linearGradient1146"
       x1="400.2"
       x2="377"
       y1="191.19"
       y2="185.24"
       gradientTransform="translate(-314.03,-9.7627)"
       gradientUnits="userSpaceOnUse"
       xlink:href="#innoGrad1" />
    <linearGradient
       id="linearGradient1156"
       x1="417.63"
       x2="436.61"
       y1="204.2"
       y2="196.34"
       gradientTransform="translate(-314.03,-9.7627)"
       gradientUnits="userSpaceOnUse"
       xlink:href="#innoGrad1" />
    <linearGradient
       id="linearGradient1166"
       x1="448.38"
       x2="466.6"
       y1="205.77"
       y2="198.06"
       gradientTransform="translate(-314.03,-9.7627)"
       gradientUnits="userSpaceOnUse"
       xlink:href="#innoGrad1" />
    <linearGradient
       id="linearGradient1170"
       x1="467.1"
       x2="486.45"
       y1="225.53"
       y2="217.9"
       gradientTransform="translate(-314.03,-9.7627)"
       gradientUnits="userSpaceOnUse"
       xlink:href="#innoGrad1" />
    <linearGradient
       id="linearGradient1180"
       x1="484.81"
       x2="506.61"
       y1="225.32"
       y2="218.55"
       gradientTransform="translate(-314.03,-9.7627)"
       gradientUnits="userSpaceOnUse"
       xlink:href="#innoGrad1" />
    <linearGradient
       id="linearGradient1184"
       x1="494.59"
       x2="527.89"
       y1="194.73"
       y2="184.71"
       gradientTransform="translate(-314.03,-9.7627)"
       gradientUnits="userSpaceOnUse"
       xlink:href="#innoGrad1" />
    <linearGradient
       id="linearGradient1186"
       x1="400.27"
       x2="503.59"
       y1="236.47"
       y2="27.119"
       gradientTransform="translate(-314.03,-9.7627)"
       gradientUnits="userSpaceOnUse">
      <stop
         stop-color="#ff8080"
         offset="0"
         id="stop32" />
      <stop
         stop-color="#faa"
         offset="1"
         id="stop34" />
    </linearGradient>
    <linearGradient
       id="linearGradient1198"
       x1="394.11"
       x2="393.58"
       y1="138.93"
       y2="100.05"
       gradientTransform="translate(-314.03,-9.7627)"
       gradientUnits="userSpaceOnUse"
       xlink:href="#innoGrad1" />
    <inkscape:path-effect
       effect="powerstroke"
       id="path-effect1555-5"
       is_visible="true"
       offset_points="0,0.5"
       sort_points="true"
       interpolator_type="CubicBezierJohan"
       interpolator_beta="0.2"
       start_linecap_type="zerowidth"
       linejoin_type="extrp_arc"
       miter_limit="4"
       end_linecap_type="zerowidth" />
    <inkscape:path-effect
       effect="powerstroke"
       id="path-effect1555-1"
       is_visible="true"
       offset_points="0,0.5"
       sort_points="true"
       interpolator_type="CubicBezierJohan"
       interpolator_beta="0.2"
       start_linecap_type="zerowidth"
       linejoin_type="extrp_arc"
       miter_limit="4"
       end_linecap_type="zerowidth" />
    <inkscape:path-effect
       effect="powerstroke"
       id="path-effect1555-7"
       is_visible="true"
       offset_points="0,0.5"
       sort_points="true"
       interpolator_type="CubicBezierJohan"
       interpolator_beta="0.2"
       start_linecap_type="zerowidth"
       linejoin_type="extrp_arc"
       miter_limit="4"
       end_linecap_type="zerowidth" />
    <inkscape:path-effect
       effect="powerstroke"
       id="path-effect1555-3"
       is_visible="true"
       offset_points="0,0.5"
       sort_points="true"
       interpolator_type="CubicBezierJohan"
       interpolator_beta="0.2"
       start_linecap_type="zerowidth"
       linejoin_type="extrp_arc"
       miter_limit="4"
       end_linecap_type="zerowidth" />
    <inkscape:path-effect
       effect="powerstroke"
       id="path-effect1555-9"
       is_visible="true"
       offset_points="0,0.5"
       sort_points="true"
       interpolator_type="CubicBezierJohan"
       interpolator_beta="0.2"
       start_linecap_type="zerowidth"
       linejoin_type="extrp_arc"
       miter_limit="4"
       end_linecap_type="zerowidth" />
    <inkscape:path-effect
       effect="powerstroke"
       id="path-effect1555-75"
       is_visible="true"
       offset_points="0,0.5"
       sort_points="true"
       interpolator_type="CubicBezierJohan"
       interpolator_beta="0.2"
       start_linecap_type="zerowidth"
       linejoin_type="extrp_arc"
       miter_limit="4"
       end_linecap_type="zerowidth" />
    <inkscape:path-effect
       effect="powerstroke"
       id="path-effect1555-6"
       is_visible="true"
       offset_points="0,0.5"
       sort_points="true"
       interpolator_type="CubicBezierJohan"
       interpolator_beta="0.2"
       start_linecap_type="zerowidth"
       linejoin_type="extrp_arc"
       miter_limit="4"
       end_linecap_type="zerowidth" />
    <inkscape:path-effect
       effect="powerstroke"
       id="path-effect1555-50"
       is_visible="true"
       offset_points="0,0.5"
       sort_points="true"
       interpolator_type="CubicBezierJohan"
       interpolator_beta="0.2"
       start_linecap_type="zerowidth"
       linejoin_type="extrp_arc"
       miter_limit="4"
       end_linecap_type="zerowidth" />
    <inkscape:path-effect
       effect="powerstroke"
       id="path-effect1555-8"
       is_visible="true"
       offset_points="0,0.5"
       sort_points="true"
       interpolator_type="CubicBezierJohan"
       interpolator_beta="0.2"
       start_linecap_type="zerowidth"
       linejoin_type="extrp_arc"
       miter_limit="4"
       end_linecap_type="zerowidth" />
    <inkscape:path-effect
       effect="powerstroke"
       id="path-effect1555-76"
       is_visible="true"
       offset_points="0,0.5"
       sort_points="true"
       interpolator_type="CubicBezierJohan"
       interpolator_beta="0.2"
       start_linecap_type="zerowidth"
       linejoin_type="extrp_arc"
       miter_limit="4"
       end_linecap_type="zerowidth" />
    <inkscape:path-effect
       effect="powerstroke"
       id="path-effect1555-54"
       is_visible="true"
       offset_points="0,0.5"
       sort_points="true"
       interpolator_type="CubicBezierJohan"
       interpolator_beta="0.2"
       start_linecap_type="zerowidth"
       linejoin_type="extrp_arc"
       miter_limit="4"
       end_linecap_type="zerowidth" />
    <inkscape:path-effect
       effect="powerstroke"
       id="path-effect1555-99"
       is_visible="true"
       offset_points="0,0.5"
       sort_points="true"
       interpolator_type="CubicBezierJohan"
       interpolator_beta="0.2"
       start_linecap_type="zerowidth"
       linejoin_type="extrp_arc"
       miter_limit="4"
       end_linecap_type="zerowidth" />
    <inkscape:path-effect
       effect="powerstroke"
       id="path-effect1555-98"
       is_visible="true"
       offset_points="0,0.5"
       sort_points="true"
       interpolator_type="CubicBezierJohan"
       interpolator_beta="0.2"
       start_linecap_type="zerowidth"
       linejoin_type="extrp_arc"
       miter_limit="4"
       end_linecap_type="zerowidth" />
    <inkscape:path-effect
       effect="powerstroke"
       id="path-effect1555-4"
       is_visible="true"
       offset_points="0,0.5"
       sort_points="true"
       interpolator_type="CubicBezierJohan"
       interpolator_beta="0.2"
       start_linecap_type="zerowidth"
       linejoin_type="extrp_arc"
       miter_limit="4"
       end_linecap_type="zerowidth" />
    <inkscape:path-effect
       effect="powerstroke"
       id="path-effect1555-94"
       is_visible="true"
       offset_points="0,0.5"
       sort_points="true"
       interpolator_type="CubicBezierJohan"
       interpolator_beta="0.2"
       start_linecap_type="zerowidth"
       linejoin_type="extrp_arc"
       miter_limit="4"
       end_linecap_type="zerowidth" />
    <inkscape:path-effect
       effect="powerstroke"
       id="path-effect1555-59"
       is_visible="true"
       offset_points="0,0.5"
       sort_points="true"
       interpolator_type="CubicBezierJohan"
       interpolator_beta="0.2"
       start_linecap_type="zerowidth"
       linejoin_type="extrp_arc"
       miter_limit="4"
       end_linecap_type="zerowidth" />
    <inkscape:path-effect
       effect="powerstroke"
       id="path-effect1555-0"
       is_visible="true"
       offset_points="0,0.5"
       sort_points="true"
       interpolator_type="CubicBezierJohan"
       interpolator_beta="0.2"
       start_linecap_type="zerowidth"
       linejoin_type="extrp_arc"
       miter_limit="4"
       end_linecap_type="zerowidth" />
    <inkscape:path-effect
       effect="powerstroke"
       id="path-effect1555-74"
       is_visible="true"
       offset_points="0,0.5"
       sort_points="true"
       interpolator_type="CubicBezierJohan"
       interpolator_beta="0.2"
       start_linecap_type="zerowidth"
       linejoin_type="extrp_arc"
       miter_limit="4"
       end_linecap_type="zerowidth" />
    <inkscape:path-effect
       effect="powerstroke"
       id="path-effect1555-88"
       is_visible="true"
       offset_points="0,0.5"
       sort_points="true"
       interpolator_type="CubicBezierJohan"
       interpolator_beta="0.2"
       start_linecap_type="zerowidth"
       linejoin_type="extrp_arc"
       miter_limit="4"
       end_linecap_type="zerowidth" />
  </defs>
  <path
     d="m 68.61294,29.8921 c -0.73963,52.699 69.414,21.16 47.302,-4.8296 -6.8988,-4.0461 -40.357,-1.0117 -47.302,4.8296 z"
     id="path40"
     style="fill:url(#linearGradient1090-9);stroke:#000000;stroke-width:0.55647999px"
     inkscape:connector-curvature="0" />
  <path
     d="m39.322 223.05 21.966 7.661c-6.1121 0.29574-25.174-3.0617-21.966-7.661z"
     fill="#f55"
     stroke="#000"
     stroke-width="1px"
     id="path42" />
  <g
     fill="#ff8080"
     stroke="#000"
     stroke-width="1px"
     id="g54">
    <path
       d="m86.441 222.17c2.5248-2.6445 25.12 1.7933 0.35955 6.3489z"
       id="path44" />
    <path
       d="m113.42 224.2c40.331 1.0941 14.845 6.3802 1.1525 10.915z"
       id="path46" />
    <path
       d="m135.86 231.93c7.5588 0.14311 14.229 0.4235 0 3.9322z"
       id="path48" />
    <path
       d="m158.31 232.14c4.6473 0.30947 14.409-0.33248 0.71187 3.3898z"
       id="path50" />
    <path
       d="m198.78 232.92c0.13559 0 16.712-0.27119 16.712-0.27119l-0.1017-5.9661c-7.9677 0.36497-21.648-3.2984-16.61 6.2373z"
       id="path52" />
  </g>
  <path
     d="m80.694 230.81-0.15134-5.1162c4.3918-1.5372 8.7326-2.6161 12.746-0.74577-1.5146 1.9656-4.0669 2.8935-6.8474 3.5932 10.813 2.0308 27.377-6.2355 42.169-0.74576-2.8126 2.7238-13.578 4.8259-13.862 7.3385-0.20833 1.8447 16.424-1.0004 24.574-1.9826-1.5618 0.94895-3.6444 2.4998-3.0508 2.9831 1.1618 0.946 10.722-1.9189 25.153-3.0508-1.6335 0.70056-1.8339 1.4011-2.1017 2.1017 1.6637 0.0974 16.143-0.27982 27.525-0.54237 0 0-0.77946-1.3434-0.47458-1.4915 0.47811-0.23236 9.3164 0.31449 12.61 0.74577l0.33898-2.0339c16.151-2.359 24.65-4.5329 24.949-6.5085-7.4704-36.703-88.024-34.428-139.12-47.864-42.594 28.643-43.218 46.009-4.4588 53.32z"
     fill="url(#linearGradient1122)"
     stroke="#000"
     stroke-width="1px"
     id="path56" />
  <g
     id="g78">
    <path
       d="m85.541 212.97 0.49986-0.012c-0.02364-0.98058-0.12524-3.1281-0.30325-7.0759-0.13275-2.9441-0.29316-6.5636-0.45044-10.394-0.15744-3.8344-0.29362-7.4429-0.38502-10.385-0.05195-1.6721-0.08692-3.0479-0.10603-4.1485-0.02512-1.4467-0.0215-2.3409-8.78e-4 -2.8978-0.02126 0.57406-0.04974 1.4331-0.0691 2.8979-0.01467 1.1103-0.02275 2.4688-0.0214 4.1515 0.0024 2.9908 0.03401 6.5109 0.0826 10.395 0.04509 3.6038 0.10765 7.6886 0.14805 10.405 0.05376 3.614 0.09037 6.438 0.10575 7.0759l0.49986-0.012z"
       id="path58" />
    <path
       d="m93.427 224.95 0.46224 0.19063c0.06392-0.15501 0.11629-0.34723 0.15961-0.58425 0.038-0.20793 0.07023-0.45715 0.09605-0.75586 0.04517-0.5226 0.07098-1.1999 0.07249-2.0732 0.0026-1.4996-0.06641-3.5126-0.21497-6.1487-0.26536-4.7085-0.73816-10.63-1.2931-17.385-0.56004-6.8175-1.0729-12.954-1.4307-18.31-0.19868-2.9745-0.32576-5.3695-0.38734-7.2902-0.03583-1.1176-0.04817-2.0352-0.04218-2.792 0.0074-0.93099 0.04235-1.5938 0.09053-2.0756-0.04824 0.48239-0.09103 1.1434-0.11297 2.0753-0.01784 0.75758-0.02147 1.6746-0.0053 2.794 0.02779 1.9267 0.11201 4.3171 0.26019 7.3 0.2681 5.3966 0.67865 11.477 1.1291 18.335 0.44531 6.7792 0.81539 12.672 0.99004 17.386 0.09759 2.6341 0.12287 4.6243 0.08671 6.0991-0.02104 0.85816-0.06208 1.5052-0.11546 1.9902-0.03046 0.27673-0.0642 0.49392-0.09872 0.6637-0.04004 0.1969-0.07875 0.31814-0.1085 0.39027l0.46224 0.19063z"
       id="path60" />
    <path
       d="m80.532 225.74 0.49955-0.0212c-0.02311-0.54363-0.09801-1.6358-0.20007-3.1349 0.49179 7.2231-0.87073-12.753-0.37894-5.5296-0.12591-1.8057-0.24076-3.394-0.35485-4.8662-0.1447-1.8673-0.2612-3.1364-0.30875-3.8021 0.04779 0.66903 0.08237 1.9024 0.11153 3.8112 0.0217 1.4204 0.03879 3.1225 0.05244 4.8764 0.0091 1.1633 0.02634 4.3783 0.03539 5.5416 0.0098 1.5359 0.01952 2.5667 0.04415 3.1461l0.49955-0.0212z"
       id="path62" />
    <path
       d="m128.83 227.73 0.5 5.8e-4c7.1e-4 -0.61218-0.10843-2.7105-0.24994-4.6062-0.19821-2.6551-0.31253-3.1749-0.46578-4.5029 0.0945 0.81878 0.0769 2.3764-0.0342 4.5086-0.1026 1.9697-0.24919 3.8177-0.25009 4.5994l0.5 5.8e-4z"
       id="path64" />
    <path
       d="m125.83 219.99 0.49806-0.044c-0.37392-4.2378-1.9938-16.907-2.3677-21.145 0.37393 4.2378 0.99765 16.995 1.3716 21.233l0.49806-0.0439z"
       id="path66" />
    <path
       d="m139.07 233.65 0.49925-0.0273c-0.0317-0.57825-0.4172-5.8354-0.68412-9.486-0.31082-4.2511-0.63033-8.0358-0.72599-9.4706 0.0991 1.4868 0.16099 4.9198 0.22647 9.4924 0.0649 4.5332 0.10516 8.0581 0.18514 9.5189l0.49925-0.0273z"
       id="path68" />
    <path
       d="m148.03 229.17 0.47168-0.16589c-0.26726-0.75991-0.65313-1.8755-1.1657-3.7552-0.37574-1.378-0.75528-2.935-1.1186-4.5968-0.35981-1.6458-0.667-3.2272-0.902-4.5775-0.31341-1.8008-0.47072-3.0241-0.52134-3.7075 0.0545 0.73574 0.12303 1.8612 0.32584 3.735 0.14871 1.3741 0.35031 2.9595 0.60584 4.6409 0.25548 1.681 0.53883 3.2856 0.82971 4.6926 0.39007 1.8868 0.73628 3.1423 1.0028 3.9002l0.47168-0.16589z"
       id="path70" />
    <path
       d="m170.37 230.47 0.47592-0.15329c-0.0715-0.22194-0.20318-0.55958-0.42603-1.0884-0.16975-0.40283-0.38586-0.90111-0.65037-1.5038-0.44598-1.0162-1.1996-2.7118-1.6455-3.728-0.60632-1.3785-1.1656-2.6664-1.6096-3.7342-0.25159-0.605-0.4518-1.1048-0.60457-1.5091-0.20069-0.53121-0.30786-0.86703-0.35772-1.0831 0.0515 0.22308 0.13005 0.55134 0.29135 1.1052 0.12224 0.41977 0.28 0.9279 0.48585 1.5557 0.36779 1.1216 0.81807 2.4097 1.33 3.85 0.54573 1.5354 0.94073 2.629 1.3635 3.8375 0.21945 0.62735 0.38818 1.1209 0.52682 1.5376 0.19286 0.57968 0.26651 0.82499 0.3445 1.0671l0.47592-0.15329z"
       id="path72" />
    <path
       d="m199.3 231.9 0.49944 0.0236c0.0156-0.3296 0.0177-1.1202 0.0273-2.1378 9e-3 -0.90865 0.0178-1.6221 0.0309-2.7062 0.0125-1.0257 0.0215-1.8441 0.0267-2.6742 6e-3 -0.98308 3e-3 -1.7507 0.0148-2.0453-0.0138 0.34459-0.0878 1.0085-0.21185 2.0328-0.0894 0.73802-0.21208 1.7202-0.32853 2.6526-0.11623 0.93073-0.24097 1.9291-0.33296 2.6881-0.12764 1.053-0.20746 1.7637-0.22534 2.1429l0.49944 0.0236z"
       id="path74" />
    <path
       d="m184.1 232.19 0.44431-0.22933c-0.17754-0.34397-0.42199-0.77431-0.83087-1.6472-0.29035-0.61982-0.60065-1.3328-0.90107-2.0883-0.29864-0.75099-0.55476-1.462-0.74379-2.0599-0.10763-0.34047-0.18967-0.63198-0.24835-0.87534-0.0771-0.31966-0.11104-0.54447-0.1172-0.69838 6e-3 0.15769 0.0138 0.37649 0.0482 0.71018 0.026 0.25251 0.0657 0.55214 0.12534 0.90958 0.10515 0.63041 0.26034 1.367 0.45975 2.1669 0.19747 0.79207 0.41839 1.5659 0.62963 2.2276 0.28271 0.88557 0.51931 1.4834 0.68971 1.8136l0.44431-0.22933z"
       id="path76" />
  </g>
  <g
     id="g100"
     transform="translate(-0.28268401,-0.07331304)">
    <path
       d="M 116.14,25.119 C 115.65903,31.3937 103.092,38.415 90.879,38.773 73.397,39.28504 68.124,32.6129 69.107,29.631 64.7036,58.136 57.919,48.235 50.173,93.56 c -6.8248,39.935 -2.4834,80.452 -17.627,120.68 0.99745,3.0216 3.761,5.1165 7.8644,6.5085 l -1.0847,2.3051 c 7.006,0.36371 22.049,14.234 41.492,8 0.62646,-4.3462 -19.497,-6.2897 -18.983,-11.661 0.1973,-2.0623 9.6232,-4.3754 23.593,-6.7797 -0.83762,-2.6706 -10.636,-7.2546 -14.373,-12.475 -2.737,-3.8228 34.015,-15.236 38.237,6.2373 0.53268,2.7092 -0.93512,4.8945 -7.8644,9.4915 23.35,2.8537 14.753,-5.0029 30.644,-5.7627 4.0814,-0.19514 8.386,-0.32593 8.678,1.6949 -1.5819,5.6271 -16.177,7.1956 -14.915,8.1356 2.2907,1.7071 16.098,-1.909 24.407,-2.9831 6.059,-0.78323 7.4916,3.3847 5.9661,4.8814 -3.2063,3.1457 -10.905,6.9873 -7.1864,8.2712 3.9325,1.3578 17.111,-5.4253 25.085,-9.6271 4.6689,-2.4604 5.3072,1.5082 3.9322,2.5085 -4.288,3.1196 -7.7999,6.0425 -7.7288,7.2542 0.0607,1.034 8.6771,-1.0218 12.203,-3.7966 4.2355,-3.3328 4.0466,-4.899 11.661,-6.7797 3.128,-0.77254 3.6232,0.90442 2.7119,2.4407 -1.8213,3.0701 -8.3207,6.6326 -13.288,10.034 11.856,-3.5033 22.335,-8.247 35.797,-10.305 2.406,-0.36784 3.9774,0.54237 4.8814,3.5254 -1.1776,-20.519 -3.6368,-41.038 -4.7939,-61.557 -1.6822,-29.831 -2.1224,-59.663 -4.4264,-89.494 -1.3234,-17.134 -11.316,-41.414 -36.355,-43.258 -22.96,-1.691 -24.824,3.8355 -42.064,2.7391 -7.2189,-4.0853 -11.186,-5.6506 -12.285,-4.1938 -3.4004,-1.9541 -5.8256,-3.5353 -8.2102,-4.4736 z"
       id="path80"
       style="fill:url(#linearGradient1186)"
       inkscape:connector-curvature="0" />
    <path
       d="m 178.47,222.17 c -4.288,3.1196 -8.2314,6.8574 -8.1603,8.0692 0.0607,1.034 8.6771,-1.0218 12.203,-3.7966 4.2355,-3.3328 4.0466,-4.899 11.661,-6.7797 4.9832,-39.827 3.8514,-77.863 0.54238,-117.15 -1.3234,-17.134 6.8394,-17.566 -18.2,-19.41 2.1646,16.237 0.93733,44.608 -0.4977,78.007 -0.86771,20.195 -1.7092,41.092 2.4508,61.063 z"
       id="path82"
       style="fill:url(#linearGradient1180)"
       inkscape:connector-curvature="0" />
    <path
       d="m 196.88,222.1 c -1.8213,3.0701 -8.3207,6.6326 -13.288,10.034 11.856,-3.5033 22.335,-8.247 35.797,-10.305 -5.03,-30.454 -4.9907,-142.93 -34.457,-144.28 3.7906,24.775 6.7172,35.872 6.5807,55.086 3.4005,24.859 6.9928,47.294 5.3679,89.46 z"
       id="path84"
       style="fill:url(#linearGradient1184)"
       inkscape:connector-curvature="0" />
    <path
       d="m 156.54,221.29 c -3.2063,3.1457 -11.244,7.5297 -7.5254,8.8136 3.9325,1.3578 17.111,-5.4253 25.085,-9.6271 -2.5229,-47.125 3.1242,-98.621 2.6954,-142.24 -16.594,12.146 -35.916,35.339 -34.549,43.424 3.2837,19.425 4.3832,23.708 14.294,99.631 z"
       id="path86"
       style="fill:url(#linearGradient1170)"
       inkscape:connector-curvature="0" />
    <path
       d="m 116.78,59.088 c 8.6783,34.306 11.74,63.263 11.574,90.62 5.576,25.21 12.728,42.405 12.396,62.088 -1.5819,5.6271 -16.177,7.1956 -14.915,8.1356 2.2907,1.7071 16.098,-1.909 24.407,-2.9831 6.059,-0.78323 7.4916,3.3847 5.9661,4.8814 -16.64,-104.68 -8.7532,-130.83 -11.166,-158.49 -7.9562,-3.1581 -21.226,-1.4204 -28.262,-4.2569 z"
       id="path88"
       style="fill:url(#linearGradient1166)"
       inkscape:connector-curvature="0" />
    <path
       d="m 132.14,36.78 c -0.48097,6.2747 -18.594,3.4159 -25.261,13.654 -32.555,49.993 -2.4933,96.188 2.4134,155.94 0.53268,2.7092 -0.93512,4.8945 -7.8644,9.4915 23.35,2.8537 14.753,-5.0029 30.644,-5.7627 -2.1192,-57.379 -8.3109,-102.23 0.0678,-173.32 z"
       id="path90"
       style="fill:url(#linearGradient1156)"
       inkscape:connector-curvature="0" />
    <path
       d="m 50.169,93.559 c -6.8248,39.935 -2.4834,80.452 -17.627,120.68 0.99745,3.0216 3.761,5.1165 7.8644,6.5085 l -1.0847,2.3051 c 14.784,-39.127 15.918,-91.096 21.306,-127.42 0.85143,-5.7405 -9.043,4.8085 -10.459,-2.0703 z"
       id="path92"
       style="fill:url(#linearGradient1136)"
       inkscape:connector-curvature="0" />
    <path
       d="M 78.647,118.71 C 76.964,101.532 73.7587,85.42 75.5217,68.673 l 4.6891,12.858 z"
       id="path94"
       style="fill:url(#linearGradient1198)"
       inkscape:connector-curvature="0" />
    <path
       d="m 60.339,95.593 c -17.413,37.482 -11.464,107.16 -21.017,127.46 7.006,0.36371 22.049,14.234 41.492,8 0.62646,-4.3462 -19.497,-6.2897 -18.983,-11.661 4.963,-95.149 -3.0844,-86.802 3.5254,-132.88 -23.066,7.9113 -4.5959,5.7404 -5.017,9.0847 z"
       id="path96"
       style="fill:url(#linearGradient1132)"
       inkscape:connector-curvature="0" />
    <path
       d="m 91.066,59.099 c -17.482,0.51204 -22.755,-6.1601 -21.772,-9.142 -13.428,86.763 -2.0395,112.85 -7.4644,169.43 0.1973,-2.0623 9.6232,-4.3754 23.593,-6.7797 -0.83762,-2.6706 -10.636,-7.2546 -14.373,-12.475 6.9502,-46.633 3.1902,-79.52 20.016,-141.04 z"
       id="path98"
       style="fill:url(#linearGradient1146)"
       inkscape:connector-curvature="0" />
  </g>
  <g
     id="g130">
    <path
       d="m40.375 220.89 0.475 0.15613c2.4286-7.3886 5.2066-17.197 7.7472-29.942 2.5662-12.874 4.3672-26.019 5.9968-40.653 1.5728-14.124 2.8665-28.196 4.2949-40.422 1.4985-12.826 2.913-22.011 4.2971-29.486-1.3982 7.5503-2.8462 16.574-4.4523 29.467-1.5218 12.217-2.9403 26.281-4.6365 40.384-1.7586 14.622-3.6699 27.712-6.327 40.542-2.633 12.714-5.4455 22.421-7.8704 29.798l0.475 0.15613z"
       id="path102" />
    <path
       d="m61.815 220 0.49816 0.0428c0.67008-7.7968 1.1647-17.562 1.2111-30.975 0.0495-14.318-0.35807-26.106-0.60776-42.322-0.23555-15.298-0.17127-28.85 0.71688-42.13 0.87796-13.127 2.3902-23.072 3.8916-30.579-1.5059 7.5294-3.0708 17.418-4.0475 30.568-0.987 13.29-1.1669 26.83-1.061 42.146 0.1129 16.335 0.41914 27.901 0.264 42.311-0.14478 13.448-0.69131 23.072-1.3637 30.895l0.49816 0.0428z"
       id="path104" />
    <path
       d="m70.844 199.74s0.49537 0.0679 0.49537 0.0679c1.7369-12.679 4.3879-34.764 6.2625-60.966 1.9439-27.172 2.2625-47.411 2.2625-61.145 0 13.46-0.56877 34.245-2.761 61.107-2.1546 26.401-4.9881 47.973-6.7547 60.869 0 0 0.49537 0.0679 0.49537 0.0679z"
       id="path106" />
    <path
       d="m78.644 121.39c-0.0053-0.37904 0.15205-1.5156 0.13772-1.8912-0.29984-7.8627-1.034-9.4569-2.5503-22.377-0.63232-5.3881-1.0337-10.741-1.0084-16.693 0.02511-5.9135 0.474-11.16 0.98034-15.345-0.50759 4.1953-0.97886 9.4181-1.0424 15.345-0.0639 5.9577 0.29158 11.313 0.8751 16.716 1.4458 13.386 2.0561 14.095 2.3717 22.37 0.01426 0.37392 0.23108 1.4979 0.23634 1.877z"
       id="path108" />
    <path
       d="m109.19 205.86 0.49982-0.0135c-0.15431-5.7274-0.75973-12.85-2.409-22.007-1.6934-9.4014-3.9072-17.999-6.4742-28.351-2.5313-10.209-4.6103-19.151-5.9297-28.502-1.2994-9.2096-1.5067-16.532-1.314-22.312-0.19325 5.7976-0.04766 13.084 1.1592 22.333 1.2243 9.3839 3.1906 18.344 5.5985 28.599 2.445 10.412 4.5367 18.974 6.1291 28.379 1.5502 9.1567 2.0869 16.185 2.2406 21.889l0.49982-0.0135z"
       id="path110" />
    <path
       d="m101.06 157.85c0.0122-0.0366 0.25905-0.0769 0.27114-0.11364 1.4966-4.5413 3.0483-10.526 3.8867-18.063 0.84682-7.6138 0.81943-15.328 0.27424-23.931-0.52973-8.3585-1.4712-16.811-2.0936-24.41-0.66099-8.0694-0.88943-13.864-0.88943-18.928 0 5.0975 0.2006 10.826 0.82013 18.934 0.581 7.6037 1.4672 16.063 1.941 24.418 0.48784 8.601 0.46228 16.292-0.42431 23.875-0.8778 7.5075-2.4457 13.445-3.9358 17.967-0.012 0.0365 0.1622 0.21582 0.15004 0.25244z"
       id="path112" />
    <path
       d="m140.79 211.96 0.49899-0.0317c-0.47305-7.4419-1.605-17.236-4.2954-29.894-2.7182-12.788-6.4134-25.726-10.934-40.14-4.359-13.9-8.9797-27.729-12.607-39.78-3.8-12.623-6.1052-21.756-7.6932-29.166 1.6004 7.4687 3.8198 16.499 7.5434 29.211 3.5388 12.081 8.0421 25.953 12.28 39.883 4.3976 14.456 7.9691 27.386 10.586 40.165 2.5911 12.655 3.652 22.369 4.1234 29.785l0.49899-0.0317z"
       id="path114" />
    <path
       d="m128.39 149.9c-3e-3 -0.29191 0.26704-1.1669 0.26339-1.4562-0.0669-5.3037-0.24524-12.753-0.73927-20.884-0.50456-8.3049-1.2948-16.7-2.5411-25.541-1.2742-9.0392-2.8962-17.631-4.75-26.115-1.8052-8.2613-3.7401-15.981-5.1052-21.327 1.3666 5.3518 3.2638 13.068 5.0179 21.345 1.8 8.494 3.3534 17.094 4.5552 26.134 1.1754 8.8425 1.8984 17.232 2.3498 25.53 0.44204 8.1263 0.58596 15.563 0.65281 20.864 4e-3 0.28905 0.29358 1.1573 0.29657 1.4492z"
       id="path116" />
    <path
       d="m155.95 218.47 0.49624-0.0612c-2.1456-17.394-6.5674-51.754-12.234-86.547-6.2077-38.112-12.025-65.546-16.753-86.033 4.6502 20.151 10.378 48.311 16.259 86.112 5.4231 34.86 9.5857 69.161 11.736 86.59l0.49624-0.0612z"
       id="path118" />
    <path
       d="m136.34 33.895c0.0291 0.01995-7e-3 0.25851 0.0215 0.27846 3.1323 2.1715 6.6715 5.3852 9.8935 10.311 2.4849 3.7992 4.647 8.4091 6.3583 14.002 3.0226 9.878 4.2814 21.646 4.2526 34.711-0.0282 12.813-1.2965 25.82-2.6494 36.768-1.7927 14.507-3.4951 24.939-4.247 30.578 0.75186-5.6389 2.489-16.064 4.3322-30.567 1.3908-10.944 2.7064-23.952 2.7816-36.778 0.0767-13.074-1.1378-24.881-4.1362-34.813-1.6984-5.6259-3.8575-10.278-6.3535-14.121-3.2379-4.9852-6.8108-8.2469-9.9848-10.447-0.0291-0.02021-0.23972 0.09827-0.26881 0.07832z"
       id="path120" />
    <path
       d="m178.05 220.29 0.48613-0.11696c-2.2587-9.3878-3.4215-21.938-2.6932-44.065 0.51391-15.612 1.9416-34.176 2.423-52.452 0.49434-18.768-0.12696-35.634-3.2271-50.343-1.7461-8.2848-4.1482-15.231-7.1047-21.112-3.8793-7.717-8.4066-12.975-12.544-16.677 4.1382 3.7026 8.6456 8.9788 12.481 16.708 2.9228 5.8896 5.2806 12.84 6.974 21.121 3.006 14.699 3.5246 31.546 2.9206 50.289-0.5883 18.255-2.1229 36.805-2.7252 52.438-0.85234 22.122 0.24002 34.839 2.523 44.328l0.48613-0.11696z"
       id="path122" />
    <path
       d="m196.39 219.65 0.49871 0.0358c0.52723-7.3391 0.90566-17.367 0.48761-30.115-0.4214-12.85-1.5736-26.322-3.3886-40.956-2.8817-23.234-9.5886-61.831-10.935-70.248 1.5128 9.455 7.6415 46.022 10.439 70.307 1.6868 14.644 2.7177 28.092 3.0416 40.921 0.32172 12.741-0.11499 22.687-0.64164 30.018l0.49871 0.0358z"
       id="path124" />
    <path
       d="m191.53 134.12c-0.0435-0.41547-0.0179-1.6809-0.0605-2.0984-0.2978-2.9132-2.3096-23.772-3.52-33.695-1.8508-15.172-3.7844-24.985-5.7132-32.7 1.9112 7.6449 3.8038 17.615 5.5586 32.719 1.5704 13.515 2.6892 27.098 3.3649 33.708 0.0427 0.4176 0.32665 1.6513 0.37013 2.0668z"
       id="path126" />
    <path
       d="m124.03 29.763-0.10403 0.19353c2.9292 1.5746 6.694 4.3938 10.435 9.799 3.5165 5.0808 5.5458 10.35 6.4487 13.058-0.90484-2.7145-2.824-8.0062-6.2669-13.182-3.6491-5.4856-7.4282-8.4605-10.409-10.063l-0.10403 0.19353z"
       id="path128" />
  </g>
  <g
     id="g138"
     stroke="#000">
    <path
       d="m116.14 25.119c-0.48097 6.2747-13.048 13.296-25.261 13.654-17.482 0.51204-22.755-6.1601-21.772-9.142-4.4034 28.505-11.188 18.604-18.934 63.929-6.8248 39.935-2.4834 80.452-17.627 120.68 0.99745 3.0216 3.761 5.1165 7.8644 6.5085l-1.0847 2.3051c7.006 0.36371 22.049 14.234 41.492 8 0.62646-4.3462-19.497-6.2897-18.983-11.661 0.1973-2.0623 9.6232-4.3754 23.593-6.7797-0.83762-2.6706-10.636-7.2546-14.373-12.475-2.737-3.8228 34.015-15.236 38.237 6.2373 0.53268 2.7092-0.93512 4.8945-7.8644 9.4915 23.35 2.8537 14.753-5.0029 30.644-5.7627 4.0814-0.19514 8.386-0.32593 8.678 1.6949-1.5819 5.6271-16.177 7.1956-14.915 8.1356 2.2907 1.7071 16.098-1.909 24.407-2.9831 6.059-0.78323 7.4916 3.3847 5.9661 4.8814-3.2063 3.1457-10.905 6.9873-7.1864 8.2712 3.9325 1.3578 17.111-5.4253 25.085-9.6271 4.6689-2.4604 5.3072 1.5082 3.9322 2.5085-4.288 3.1196-7.7999 6.0425-7.7288 7.2542 0.0607 1.034 8.6771-1.0218 12.203-3.7966 4.2355-3.3328 4.0466-4.899 11.661-6.7797 3.128-0.77254 3.6232 0.90442 2.7119 2.4407-1.8213 3.0701-8.3207 6.6326-13.288 10.034 11.856-3.5033 22.335-8.247 35.797-10.305 2.406-0.36784 3.9774 0.54237 4.8814 3.5254-1.1776-20.519-3.6368-41.038-4.7939-61.557-1.6822-29.831-2.1224-59.663-4.4264-89.494-1.3234-17.134-11.316-41.414-36.355-43.258-22.96-1.691-24.824 3.8355-42.064 2.7391-7.2189-4.0853-11.186-5.6506-12.285-4.1938-3.4004-1.9541-5.8256-3.5353-8.2102-4.4736z"
       id="path132"
       stroke-width=".75"
       fill="none" />
    <path
       d="m69.069 30.62c1.7364-3.7321 16.963-5.5514 25.964-5.959 11.64-0.52704 19.638-0.27093 20.701 1.0181l0.60973-0.53266c0.0132-3.583-42.551-2.4316-47.718 4.3174z"
       id="path134"
       stroke-width=".42855px"
       fill="#ff8080" />
    <path
       d="m68.871 29.144c-0.51348-0.14916-0.75782 1.2093-0.38352 2.1964 3.9705 17.099 48.619 4.8827 48.059-4.8997 0.13456-0.85184 0.13854-1.2853-0.63154-1.3782l-0.22582 0.41117c-7.3874 14.527-46.204 16.648-46.547 4.1189z"
       id="path136"
       stroke-width=".42855px"
       fill="#faa" />
  </g>
  <path
     style="fill:#ff9955;stroke:#000000;stroke-width:0.5;stroke-linecap:butt;stroke-linejoin:miter;stroke-opacity:1;stroke-miterlimit:4;stroke-dasharray:none;fill-opacity:1"
     d="m 68.722222,33.611111 1,1.555556 1,1.111111 0.944445,0.777777 L 73.222222,38 l -0.388889,0.833333 -0.388889,0.944445 -0.333333,1 -0.222222,0.944444 -0.111111,1 v 0.444445 L 70.666667,42.5 l -1.055556,-0.833333 -1.222222,-1 L 67.5,39.722222 67.333333,39.5 l 0.5,-1.888889 0.277778,-1.5 0.333333,-1.666667 z"
     id="path4708"
     inkscape:connector-curvature="0" />
  <path
     style="fill:none;stroke:#000000;stroke-width:0.6;stroke-linecap:butt;stroke-linejoin:miter;stroke-opacity:1;stroke-miterlimit:4;stroke-dasharray:none"
     d="M 73.555556,37.666667 73,38.833333 l -0.388889,1.055556 -0.388889,1.222222 -0.277778,1.555556 -0.111111,1.388888 v 0"
     id="path4710"
     inkscape:connector-curvature="0" />
  <path
     style="fill:none;stroke:#000000;stroke-width:0.7;stroke-linecap:butt;stroke-linejoin:miter;stroke-opacity:1;stroke-miterlimit:4;stroke-dasharray:none"
     d="m 75.388889,38.555555 -0.555556,1.166667 -0.388889,1.444445 -0.111111,0.944444 -0.05555,0.944444 0.05555,1.222223 0.05556,0.388889"
     id="path4712"
     inkscape:connector-curvature="0" />
  <path
     style="fill:#ff9955;stroke:#000000;stroke-width:0.5;stroke-linecap:butt;stroke-linejoin:miter;stroke-miterlimit:4;stroke-dasharray:none;stroke-opacity:1;fill-opacity:1"
     d="M 75.333333,39.111111 77.611111,39.777778 79,40.055555 l 1.666667,0.166667 1.555555,0.166667 2.166667,0.05555 H 87 L 88.944444,40.277773 91,40.05555 93.222222,39.777773 95.5,39.333333 97.111111,38.944444 98.833333,38.555555 100.5,38.111111 l 1.33671,-0.385518 1.25813,-0.460717 0.23849,0.179568 0.33334,0.444445 L 104,38.5 l 0.38889,0.833333 0.33333,1 0.22222,1.111111 -1.05555,0.5 -1.33333,0.5 -1.44445,0.388889 -1.61111,0.444445 -1.611111,0.388889 -1.722222,0.277777 -1.722223,0.222223 -2.055555,0.222222 -2.777778,0.222222 H 87.444444 84.666666 L 81.5,44.5 78.444445,44.277778 76.222222,44.055556 h -0.05556 L 74.5,43.833333 l 0.0212,-0.633191 0.01964,-0.844599 0.05893,-0.707107 0.09821,-0.687465 0.21606,-0.785674 0.235702,-0.62854 z"
     id="path4714"
     inkscape:connector-curvature="0"
     sodipodi:nodetypes="ccccccccccccccccccccccccccccccccccccccccccccc" />
  <path
     style="fill:none;stroke:#000000;stroke-width:0.6;stroke-linecap:butt;stroke-linejoin:miter;stroke-opacity:1;stroke-miterlimit:4;stroke-dasharray:none"
     d="m 102.86439,36.737972 0.58926,0.510688 0.47141,0.608898 0.41247,0.785674 0.31427,0.766032 0.29463,0.923167 0.27499,1.335647 0.0786,0.608897"
     id="path4716"
     inkscape:connector-curvature="0" />
  <path
     style="fill:#ff9955;stroke:#000000;stroke-width:0.5;stroke-linecap:butt;stroke-linejoin:miter;stroke-miterlimit:4;stroke-dasharray:none;stroke-opacity:1;fill-opacity:1"
     d="m 105.31963,36.561195 1.59099,-0.628539 1.316,-0.628539 1.06066,-0.549972 0.86424,-0.451763 1.04102,-0.589256 1.00174,-0.628539 1.25707,-0.903525 0.7464,-0.589256 0.58925,-0.510688 0.54997,-0.569614 0.53033,-0.648181 0.51069,-0.687465 0.35355,-0.648181 0.25535,-0.667824 0.11785,-0.667823 0.0589,-0.628539 V 25.91531 25.8171 l 0.82495,0.43212 0.78568,0.392837 0.6089,0.294628 0.47145,0.235703 0.33389,0.196418 0.51069,0.235703 -0.19642,0.883882 -0.0393,0.471406 -0.17677,0.569613 -0.2161,0.883883 -0.23575,0.687465 -0.31431,0.648182 -0.41249,0.766033 -0.47141,0.687464 -0.41248,0.608898 -0.51069,0.648181 -0.54996,0.569614 -0.5107,0.53033 -0.62853,0.589256 -0.62855,0.569613 -0.5696,0.510689 -0.54998,0.392836 -0.90352,0.608898 -1.33565,0.824958 -1.13923,0.608897 -1.27672,0.608898 -1.21779,0.510688 -1.4535,0.510688"
     id="path4720"
     inkscape:connector-curvature="0"
     sodipodi:nodetypes="ccccccccccccccccccccccccccccccccccccccccccccccc" />
  <path
     style="fill:#ff9955;fill-opacity:1;stroke:#000000;stroke-width:0.41604087;stroke-linecap:butt;stroke-linejoin:miter;stroke-miterlimit:4;stroke-dasharray:none;stroke-opacity:1"
     d="m 80.245047,39.767858 3.268629,0.166667 0.15037,0.03996 0.343209,0.365318 0.411849,0.206484 0.652096,0.174718 h 3.054556 l 0.549133,-0.222369 0.480492,-0.540034 0.03432,-0.397084 3.912577,-0.5 0.102962,5.630695 -2.740731,0.333334 -0.142222,-0.09544 -0.617774,-0.365319 -0.583454,-0.254133 -0.995305,-0.06353 -3.054556,-0.01588 -0.617775,0.111184 -0.514813,0.333551 -0.08666,0.03206 -0.256542,0.269944 -2.059251,-0.05556 h -0.960983 l -0.30395,-0.03184 -0.129136,-0.293733 z"
     id="path4722"
     inkscape:connector-curvature="0"
     sodipodi:nodetypes="ccccccccccccccccccccccccccc" />
  <ellipse
     style="opacity:1;fill:#fff6d5;stroke-width:0.5217492;stroke-miterlimit:4;stroke-dasharray:none;fill-opacity:1"
     id="path4739"
     cx="94.5"
     cy="40.777779"
     rx="0.66666669"
     ry="0.55555558" />
  <ellipse
     style="opacity:1;fill:#fff6d5;stroke-width:0.5217492;stroke-miterlimit:4;stroke-dasharray:none;fill-opacity:1"
     id="path4739-2"
     cx="94.611107"
     cy="42.888889"
     rx="0.66666669"
     ry="0.55555558" />
  <ellipse
     style="opacity:1;fill:#fff6d5;stroke-width:0.5217492;stroke-miterlimit:4;stroke-dasharray:none;fill-opacity:1"
     id="path4739-2-6"
     cx="78.944443"
     cy="43.277779"
     rx="0.66666669"
     ry="0.55555558" />
  <ellipse
     style="opacity:1;fill:#fff6d5;stroke-width:0.5217492;stroke-miterlimit:4;stroke-dasharray:none;fill-opacity:1"
     id="path4739-2-0"
     cx="78.94445"
     cy="41.111111"
     rx="0.66666669"
     ry="0.55555558" />
  <path
     style="fill:#ffb380;stroke:#000000;stroke-width:0.4;stroke-linecap:butt;stroke-linejoin:miter;stroke-opacity:1;stroke-miterlimit:4;stroke-dasharray:none;fill-opacity:1"
     d="m 68.432223,33.575633 -0.824958,4.399776 -0.785674,2.867711 -1.217795,4.124789 -1.610632,1.060661 -1.571349,0.353553 -0.589255,-0.942809 -1.885618,0.864242 -0.589256,-0.510689 -0.196419,-1.178511 0.746391,-3.103413 1.178511,-4.910464 0.432121,-2.042753 0.274986,-1.257079 z"
     id="path4777"
     inkscape:connector-curvature="0" />
  <path
     style="fill:#ffb380;stroke:#000000;stroke-width:0.5;stroke-linecap:butt;stroke-linejoin:miter;stroke-opacity:1;stroke-miterlimit:4;stroke-dasharray:none;fill-opacity:1"
     d="m 59.907658,36.954032 0.432121,0.353554 1.257078,0.31427 2.239172,-0.157135 1.335646,-0.471405 0.196419,-1.649916 0.274986,-0.942809 0.707106,-0.392837 1.060661,-0.07857 0.667823,0.274986 0.196418,-1.532065 -0.903525,-0.432121 -1.414214,-0.157135 -2.239171,-0.117851 h -2.082037 l -1.021376,0.235703 -0.471405,0.707106 -0.510688,1.885618 -0.03928,1.139228 z"
     id="path4779"
     inkscape:connector-curvature="0" />
  <path
     style="fill:none;stroke:#000000;stroke-width:0.1;stroke-linecap:butt;stroke-linejoin:miter;stroke-miterlimit:4;stroke-dasharray:none;stroke-opacity:1"
     d="m 60.025509,46.067854 c 0.392837,-0.903526 2.003469,-7.974594 2.003469,-7.974594"
     id="path5069"
     inkscape:connector-curvature="0" />
  <path
     style="fill:none;stroke:#000000;stroke-width:0.1;stroke-linecap:butt;stroke-linejoin:miter;stroke-miterlimit:4;stroke-dasharray:none;stroke-opacity:1"
     d="m 62.618234,46.224988 c 2.319865,-2.801619 4.342085,-10.909874 4.321208,-10.763736 v 0.03928"
     id="path5071"
     inkscape:connector-curvature="0"
     sodipodi:nodetypes="ccc" />
  <ellipse
     style="opacity:1;fill:#fff6d5;stroke-width:0.39849254;stroke-miterlimit:4;stroke-dasharray:none;fill-opacity:1"
     id="path4739-2-0-2"
     cx="62.000004"
     cy="35.333332"
     rx="0.3888889"
     ry="0.55555558" />
  <path
     style="fill:#ffb380;stroke:#000000;stroke-width:0.4;stroke-linecap:butt;stroke-linejoin:miter;stroke-opacity:1;stroke-miterlimit:4;stroke-dasharray:none;fill-opacity:1"
     d="m 107.61111,35.833333 1.83333,4.333334 1.83334,3.944444 1.77778,3 L 114,48 l 2.05556,-0.166667 3.66666,-1.611111 2.72222,-2.055555 2.44445,-2.222223 1.22222,-1.444444 -0.16667,-1.611111 1.38889,-1.055556 -0.27777,-1.666666 -0.5,-1.444445 -2.38889,-2.444444 -2.55556,-2.111111 -1.33333,-1.388889 z"
     id="path5088"
     inkscape:connector-curvature="0" />
  <path
     style="fill:#ffb380;stroke:#000000;stroke-width:0.4;stroke-linecap:butt;stroke-linejoin:miter;stroke-opacity:1;stroke-miterlimit:4;stroke-dasharray:none;fill-opacity:1"
     d="m 107.38889,35.611111 0.88889,-2.444444 1.66666,-1 3.22223,-2.111112 2.33333,-2 L 116.55556,27 l 0.11111,-0.5 2.16666,0.166667 3,1.388888 1.05556,1.444445 -0.0556,0.5 -0.44444,0.777778 -3.44445,3.555555 -4.22222,2.944445 -1.94444,0.888889 -2,-1.666667 -1.44445,-1.388889 -0.83333,-0.333333 -0.33333,0.833333 z"
     id="path5090"
     inkscape:connector-curvature="0" />
  <path
     style="fill:none;stroke:#000000;stroke-width:0.4;stroke-linecap:butt;stroke-linejoin:miter;stroke-opacity:1;stroke-miterlimit:4;stroke-dasharray:none"
     d="m 110.61111,36.722222 1.61111,3.055556 1.88889,3.333333 1.33333,1.833333 1.27778,0.166667 1.33334,-0.05556 0.83333,-0.388888 5.61111,-4.055556 1.38889,-1.722222 v 0"
     id="path5092"
     inkscape:connector-curvature="0" />
  <path
     style="fill:none;stroke:#000000;stroke-width:0.2;stroke-linecap:butt;stroke-linejoin:miter;stroke-miterlimit:4;stroke-dasharray:none;stroke-opacity:1"
     d="m 110.22222,38 1.38889,3.166667 1.33333,2.777778 L 114.72222,47"
     id="path5096"
     inkscape:connector-curvature="0" />
  <path
     style="fill:#ff7f2a;stroke:#000000;stroke-width:0.3;stroke-linecap:butt;stroke-linejoin:miter;stroke-opacity:1;stroke-miterlimit:4;stroke-dasharray:none;fill-opacity:0.98039216"
     d="m 110.55556,36.888889 -1.5,0.5 H 108.5 l -0.61111,-1.555556 0.77778,-0.611111 0.44444,0.05556 1.05556,0.888889 z"
     id="path5098"
     inkscape:connector-curvature="0" />
  <ellipse
     style="opacity:1;fill:#fff6d5;stroke-width:0.5217492;stroke-miterlimit:4;stroke-dasharray:none;fill-opacity:1"
     id="path4739-2-0-0"
     cx="112.99999"
     cy="34.388889"
     rx="0.66666669"
     ry="0.55555558" />
  <ellipse
     style="opacity:1;fill:#fff6d5;stroke-width:0.5217492;stroke-miterlimit:4;stroke-dasharray:none;fill-opacity:1"
     id="path4739-2-0-9"
     cx="118.27779"
     cy="31.055555"
     rx="0.66666669"
     ry="0.55555558" />
  <path
     style="fill:none;stroke:#000000;stroke-width:0.60000002;stroke-linecap:butt;stroke-linejoin:miter;stroke-miterlimit:4;stroke-dasharray:none;stroke-opacity:1"
     d="m 104.90827,36.13369 0.39284,0.432121 0.39284,0.53033 0.53033,0.982093 0.35355,0.923167 0.2357,1.001735 0.23571,1.139227 0.0786,0.549972"
     id="path4718"
     inkscape:connector-curvature="0" />
  <path
     style="fill:#ff7f2a;fill-opacity:0.98039216;stroke:#000000;stroke-width:0.37795275;stroke-linecap:butt;stroke-linejoin:miter;stroke-miterlimit:4;stroke-dasharray:none;stroke-opacity:1"
     d="m 85.240547,40.519616 0.05893,-0.549972 0.05893,-0.235702 0.274986,-0.176777 0.31427,-0.09821 0.667823,-0.07857 h 0.667823 l 0.824958,0.05893 h 0.07857 l 0.21606,0.294628 h 0.569614 v 0.235702 l -0.196418,0.255344 -0.176777,0.21606 -0.21606,0.09821 -0.530331,0.117851 h -0.648181 l -1.571348,-0.01964 h -0.373195 z"
     id="path1472"
     inkscape:connector-curvature="0" />
  <path
     style="fill:#ff7f2a;fill-opacity:0.98039216;stroke:#000000;stroke-width:0.24566929;stroke-linecap:butt;stroke-linejoin:miter;stroke-miterlimit:4;stroke-dasharray:none;stroke-opacity:1"
     d="m 85.083412,44.467629 2e-6,0.451763 -0.01964,0.294627 0.21606,0.353554 0.412479,0.157135 0.589255,0.07857 0.707107,0.03928 c 0.7968,0.04431 0.955904,-0.07202 1.355289,-0.07857 l 0.373195,-0.333911 0.176776,-0.294628 0.530331,-0.03928 0.53033,-0.176773 -0.01964,-0.01964 -0.157135,-0.216061 -0.333911,-0.176776 -0.549972,-0.09821 -0.667823,0.01964 -0.667823,0.03928 h -0.746391 l -1.296362,0.01964 z"
     id="path1474"
     inkscape:connector-curvature="0"
     sodipodi:nodetypes="ccccccccccccccccccccc" />
  <path
     style="fill:#502d16;stroke:#000000;stroke-width:1px;stroke-linecap:butt;stroke-linejoin:miter;stroke-opacity:1;fill-opacity:1"
     d="m 124.76506,30.0401 c 11.33915,10.548549 7.85983,29.636652 -0.65795,42.473248 -14.95186,10.113148 -51.25506,17.296386 -70.978106,5.391062 l -1.462337,0.428924 -0.833333,3.777777 -0.777778,4 1.057421,1.47017 c 23.90731,14.439579 57.992733,5.810777 78.338353,-5.596272 7.82368,-13.110499 12.88489,-32.602508 5.9989,-49.116482 l -1.1169,-1.479638 -1.72222,-1 -2.88889,-1.166667 -3.61111,-0.833333 -1.66667,0.222222 -0.27777,0.722222 z"
     id="path1482"
     inkscape:connector-curvature="0"
     sodipodi:nodetypes="ccccccccc" />
  <path
     style="fill:#ffb380;stroke:#000000;stroke-width:1px;stroke-linecap:butt;stroke-linejoin:miter;stroke-opacity:1;fill-opacity:1"
     d="m 117.40996,87.660411 c 2.95623,9.33537 3.77124,20.483569 3.77124,32.684049 7.03096,6.02845 11.60195,6.8291 21.05606,5.02831 6.8016,-3.77329 8.21182,-6.39392 10.05663,-14.14213 5.88897,5.31306 11.17867,7.02932 19.17045,8.17101 4.7945,-1.11971 6.0624,-4.53669 8.48529,-8.17101 3.7886,4.26927 7.48411,6.28776 12.25651,8.79955 6.53024,-1.31447 8.79718,-5.21861 12.25652,-9.74236 1.79033,2.99521 4.06208,3.63449 5.97113,5.34258 3.02939,-1.11269 5.03282,-4.02626 6.28539,-5.02831 l 0.20547,-1.20891 -0.47141,-8.09244 -0.15713,-4.714045 -0.31427,-6.285394 -0.39284,-6.049691 -0.39284,-7.463905 -0.7071,-6.913933 -0.86424,-4.321208 -1.09995,-4.006939 -1.57135,-4.714045 -1.64991,-3.849804 -2.51416,-4.635477 -2.19989,-3.06413 -2.51416,-2.985562 -3.06412,-2.985562 -2.35703,-1.80705 -3.45696,-2.199888 -2.59273,-1.257079 -3.22126,-1.257079 -3.1427,-0.864241 -3.8498,-0.62854 -3.06413,-0.314269 -3.69267,-0.157135 -4.47834,-0.07857 -4.00694,0.235702 -2.907,0.314269 -2.82842,0.31427 -3.22127,0.549972 -4.00694,0.785674 -6.9925,0.864242 -3.8498,0.235702 -4.32121,-0.235702 -1.33565,-1.021377 1.41422,3.928371 1.25708,6.599664 0.39283,4.085506 0.0786,3.614101 -0.4714,5.892556 -0.86424,4.556911 -2.19989,8.406714 -1.88562,4.792612 -3.22126,6.363961 -0.94281,1.257079 -3.53554,1.807051 z"
     id="path1490"
     inkscape:connector-curvature="0" />
  <path
     style="fill:#fff6d5;stroke:#000000;stroke-width:0.30000001;stroke-linecap:butt;stroke-linejoin:miter;stroke-miterlimit:4;stroke-dasharray:none;stroke-opacity:1;fill-opacity:1"
     d="m 116.66666,77.055555 c -0.11111,2 0.44445,4.222223 0.44445,4.222223 l 0.55555,2.833333 0.61111,2.722222 0.22223,0.888889 -0.27778,-0.944444 0.88889,-0.333334 -0.27778,-0.833333 -0.44444,-1.777778 -0.44445,-1.611111 -0.33333,-1.722222 -0.22222,-1.388889 -0.16667,-1.555555 0.0556,-0.611112 z"
     id="path1494"
     inkscape:connector-curvature="0"
     sodipodi:nodetypes="ccccccccccccccc" />
  <path
     style="fill:#fff6d5;stroke:#000000;stroke-width:0.30000001;stroke-linecap:butt;stroke-linejoin:miter;stroke-miterlimit:4;stroke-dasharray:none;stroke-opacity:1;fill-opacity:1"
     d="M 133.22222,73.555555 132.5,72.666666 l -1.22222,-1.111111 -1.61111,-0.777778 -1.5,-0.388889 -2.05556,-0.11111 -0.55555,0.777778 0.77777,-0.111117 1.61111,0.277778 1.27778,0.388889 1.44445,0.722222 1.05555,0.666672 0.44445,0.555556 0.27777,0.333333 0.33334,0.555556 z"
     id="path1496"
     inkscape:connector-curvature="0"
     sodipodi:nodetypes="cccccccccccccccc" />
  <path
     style="fill:#000000;fill-rule:nonzero;stroke:none;stroke-width:1px;stroke-linecap:butt;stroke-linejoin:miter;stroke-opacity:1"
     d="m 152.10653,110.49314 c 0,0 0.47234,0.16399 0.47234,0.16399 1.51329,-4.35862 4.85634,-14.642217 6.36132,-25.52683 0.76927,-5.563744 0.99797,-10.735833 0.68206,-15.523113 -0.31433,-4.763399 -1.1183,-8.376542 -1.85887,-10.968546 0.73876,2.585663 1.48549,6.228352 1.70286,10.977263 0.21865,4.776651 -0.12915,9.927867 -1.02053,15.44025 -1.74482,10.790226 -5.30467,20.932896 -6.81152,25.272996 0,0 0.47234,0.16399 0.47234,0.16399 z"
     id="path1526"
     inkscape:connector-curvature="0"
     inkscape:path-effect="#path-effect1528"
     inkscape:original-d="m 152.10653,110.49314 c 5.27698,-15.198949 10.40119,-35.249319 5.65685,-51.854499" />
  <path
     style="fill:#000000;fill-rule:nonzero;stroke:none;stroke-width:1px;stroke-linecap:butt;stroke-linejoin:miter;stroke-opacity:1"
     d="m 180.70507,110.49314 c 0,0 0.45598,0.20515 0.45598,0.20515 1.95786,-4.35165 5.73424,-13.271784 8.34701,-23.388463 2.85712,-11.062738 3.45352,-19.934983 3.45352,-26.785568 0,6.771564 -0.84906,15.794359 -3.93609,26.654696 -2.84647,10.014024 -6.82273,18.766725 -8.7764,23.109035 0,0 0.45598,0.20515 0.45598,0.20515 z"
     id="path1530"
     inkscape:connector-curvature="0"
     inkscape:path-effect="#path-effect1532"
     inkscape:original-d="m 180.70507,110.49314 c 6.4892,-14.423192 12.25651,-30.917178 12.25651,-49.968881" />
  <path
     style="fill:#000000;fill-rule:nonzero;stroke:none;stroke-width:1px;stroke-linecap:butt;stroke-linejoin:miter;stroke-opacity:1"
     d="m 204.27529,109.8646 c 0,0 0.44104,0.23554 0.44104,0.23554 1.82124,-3.4102 4.52346,-9.42091 6.41841,-17.41682 1.94992,-8.227915 2.25437,-15.118897 2.25437,-19.902544 0,4.717057 -0.55711,11.736995 -2.73898,19.779443 -2.15153,7.930591 -5.0003,13.669201 -6.81588,17.068841 0,0 0.44104,0.23554 0.44104,0.23554 z"
     id="path1534"
     inkscape:connector-curvature="0"
     inkscape:path-effect="#path-effect1536"
     inkscape:original-d="m 204.27529,109.8646 c 5.49395,-10.287251 9.11382,-23.332355 9.11382,-37.083824" />
  <ellipse
     style="opacity:1;fill:#ffeeaa;fill-opacity:1;stroke-width:2.76166654;stroke-miterlimit:4;stroke-dasharray:none"
     id="path4739-2-0-9-5"
     cx="173.85176"
     cy="91.087959"
     rx="3.5058658"
     ry="2.9597793"
     transform="matrix(0.99773908,0.06720657,-0.1417213,0.9899066,0,0)" />
  <path
     style="fill:#e3dbdb;fill-opacity:0.58291458;fill-rule:nonzero;stroke:none;stroke-width:1px;stroke-linecap:butt;stroke-linejoin:miter;stroke-opacity:1"
     d="m 150.69231,87.315749 c 0,0 -0.32643,-0.378736 -0.32643,-0.378736 -0.25623,0.220839 -0.53248,0.660922 -0.77197,1.140868 -0.23755,0.476072 -0.39152,0.862076 -0.55151,1.044919 0.28862,-0.32985 1.58424,-1.090357 1.97634,-1.428315 0,0 -0.32643,-0.378736 -0.32643,-0.378736 z"
     id="path1553"
     inkscape:connector-curvature="0"
     inkscape:path-effect="#path-effect1555"
     inkscape:original-d="m 150.69231,87.315749 c -0.70486,0.607522 -1.16888,1.257301 -1.64991,1.807051"
     transform="matrix(1.4140425,0.09524835,-0.2034817,1.4212964,-33.067193,-38.928459)" />
  <ellipse
     style="opacity:1;fill:#ffeeaa;fill-opacity:1;stroke-width:2.76166654;stroke-miterlimit:4;stroke-dasharray:none"
     id="path4739-2-0-9-5-5"
     cx="183.21902"
     cy="93.386795"
     rx="3.5058658"
     ry="2.9597793"
     transform="matrix(0.99773908,0.06720657,-0.1417213,0.9899066,0,0)" />
  <path
     style="fill:#e3dbdb;fill-opacity:0.58291458;fill-rule:nonzero;stroke:none;stroke-width:1px;stroke-linecap:butt;stroke-linejoin:miter;stroke-opacity:1"
     d="m 150.69231,87.315749 c 0,0 -0.32643,-0.378736 -0.32643,-0.378736 -0.25623,0.220839 -0.53248,0.660922 -0.77197,1.140868 -0.23755,0.476072 -0.39152,0.862076 -0.55151,1.044919 0.28862,-0.32985 1.58424,-1.090357 1.97634,-1.428315 0,0 -0.32643,-0.378736 -0.32643,-0.378736 z"
     id="path1553-1"
     inkscape:connector-curvature="0"
     inkscape:path-effect="#path-effect1555-5"
     inkscape:original-d="m 150.69231,87.315749 c -0.70486,0.607522 -1.16888,1.257301 -1.64991,1.807051"
     transform="matrix(1.4140425,0.09524835,-0.2034817,1.4212964,-23.968361,-35.944717)" />
  <ellipse
     style="opacity:1;fill:#ffeeaa;fill-opacity:1;stroke-width:2.76166654;stroke-miterlimit:4;stroke-dasharray:none"
     id="path4739-2-0-9-5-57"
     cx="200.77031"
     cy="97.909729"
     rx="3.5058658"
     ry="2.9597793"
     transform="matrix(0.99773908,0.06720657,-0.1417213,0.9899066,0,0)" />
  <path
     style="fill:#e3dbdb;fill-opacity:0.58291458;fill-rule:nonzero;stroke:none;stroke-width:1px;stroke-linecap:butt;stroke-linejoin:miter;stroke-opacity:1"
     d="m 150.69231,87.315749 c 0,0 -0.32643,-0.378736 -0.32643,-0.378736 -0.25623,0.220839 -0.53248,0.660922 -0.77197,1.140868 -0.23755,0.476072 -0.39152,0.862076 -0.55151,1.044919 0.28862,-0.32985 1.58424,-1.090357 1.97634,-1.428315 0,0 -0.32643,-0.378736 -0.32643,-0.378736 z"
     id="path1553-7"
     inkscape:connector-curvature="0"
     inkscape:path-effect="#path-effect1555-1"
     inkscape:original-d="m 150.69231,87.315749 c -0.70486,0.607522 -1.16888,1.257301 -1.64991,1.807051"
     transform="matrix(1.4140425,0.09524835,-0.2034817,1.4212964,-7.0977422,-30.287864)" />
  <ellipse
     style="opacity:1;fill:#ffeeaa;fill-opacity:1;stroke-width:2.76166654;stroke-miterlimit:4;stroke-dasharray:none"
     id="path4739-2-0-9-5-1"
     cx="160.79205"
     cy="96.972977"
     rx="3.5058658"
     ry="2.9597793"
     transform="matrix(0.99773908,0.06720657,-0.1417213,0.9899066,0,0)" />
  <path
     style="fill:#e3dbdb;fill-opacity:0.58291458;fill-rule:nonzero;stroke:none;stroke-width:1px;stroke-linecap:butt;stroke-linejoin:miter;stroke-opacity:1"
     d="m 150.69231,87.315749 c 0,0 -0.32643,-0.378736 -0.32643,-0.378736 -0.25623,0.220839 -0.53248,0.660922 -0.77197,1.140868 -0.23755,0.476072 -0.39152,0.862076 -0.55151,1.044919 0.28862,-0.32985 1.58424,-1.090357 1.97634,-1.428315 0,0 -0.32643,-0.378736 -0.32643,-0.378736 z"
     id="path1553-8"
     inkscape:connector-curvature="0"
     inkscape:path-effect="#path-effect1555-7"
     inkscape:original-d="m 150.69231,87.315749 c -0.70486,0.607522 -1.16888,1.257301 -1.64991,1.807051"
     transform="matrix(1.4140425,0.09524835,-0.2034817,1.4212964,-46.852857,-33.901965)" />
  <ellipse
     style="opacity:1;fill:#ffeeaa;fill-opacity:1;stroke-width:2.76166654;stroke-miterlimit:4;stroke-dasharray:none"
     id="path4739-2-0-9-5-6"
     cx="151.23389"
     cy="102.86021"
     rx="3.5058658"
     ry="2.9597793"
     transform="matrix(0.99773908,0.06720657,-0.1417213,0.9899066,0,0)" />
  <path
     style="fill:#e3dbdb;fill-opacity:0.58291458;fill-rule:nonzero;stroke:none;stroke-width:1px;stroke-linecap:butt;stroke-linejoin:miter;stroke-opacity:1"
     d="m 150.69231,87.315749 c 0,0 -0.32643,-0.378736 -0.32643,-0.378736 -0.25623,0.220839 -0.53248,0.660922 -0.77197,1.140868 -0.23755,0.476072 -0.39152,0.862076 -0.55151,1.044919 0.28862,-0.32985 1.58424,-1.090357 1.97634,-1.428315 0,0 -0.32643,-0.378736 -0.32643,-0.378736 z"
     id="path1553-11"
     inkscape:connector-curvature="0"
     inkscape:path-effect="#path-effect1555-3"
     inkscape:original-d="m 150.69231,87.315749 c -0.70486,0.607522 -1.16888,1.257301 -1.64991,1.807051"
     transform="matrix(1.4140425,0.09524835,-0.2034817,1.4212964,-57.223756,-28.716514)" />
  <ellipse
     style="opacity:1;fill:#ffeeaa;fill-opacity:1;stroke-width:2.76166654;stroke-miterlimit:4;stroke-dasharray:none"
     id="path4739-2-0-9-5-52"
     cx="172.13335"
     cy="98.499039"
     rx="3.5058658"
     ry="2.9597793"
     transform="matrix(0.99773908,0.06720657,-0.1417213,0.9899066,0,0)" />
  <path
     style="fill:#e3dbdb;fill-opacity:0.58291458;fill-rule:nonzero;stroke:none;stroke-width:1px;stroke-linecap:butt;stroke-linejoin:miter;stroke-opacity:1"
     d="m 150.69231,87.315749 c 0,0 -0.32643,-0.378736 -0.32643,-0.378736 -0.25623,0.220839 -0.53248,0.660922 -0.77197,1.140868 -0.23755,0.476072 -0.39152,0.862076 -0.55151,1.044919 0.28862,-0.32985 1.58424,-1.090357 1.97634,-1.428315 0,0 -0.32643,-0.378736 -0.32643,-0.378736 z"
     id="path1553-9"
     inkscape:connector-curvature="0"
     inkscape:path-effect="#path-effect1555-9"
     inkscape:original-d="m 150.69231,87.315749 c -0.70486,0.607522 -1.16888,1.257301 -1.64991,1.807051"
     transform="matrix(1.4140425,0.09524835,-0.2034817,1.4212964,-35.753474,-31.629093)" />
  <ellipse
     style="opacity:1;fill:#ffeeaa;fill-opacity:1;stroke-width:2.76166654;stroke-miterlimit:4;stroke-dasharray:none"
     id="path4739-2-0-9-5-7"
     cx="180.99237"
     cy="101.26395"
     rx="3.5058658"
     ry="2.9597793"
     transform="matrix(0.99773908,0.06720657,-0.1417213,0.9899066,0,0)" />
  <path
     style="fill:#e3dbdb;fill-opacity:0.58291458;fill-rule:nonzero;stroke:none;stroke-width:1px;stroke-linecap:butt;stroke-linejoin:miter;stroke-opacity:1"
     d="m 150.69231,87.315749 c 0,0 -0.32643,-0.378736 -0.32643,-0.378736 -0.25623,0.220839 -0.53248,0.660922 -0.77197,1.140868 -0.23755,0.476072 -0.39152,0.862076 -0.55151,1.044919 0.28862,-0.32985 1.58424,-1.090357 1.97634,-1.428315 0,0 -0.32643,-0.378736 -0.32643,-0.378736 z"
     id="path1553-99"
     inkscape:connector-curvature="0"
     inkscape:path-effect="#path-effect1555-75"
     inkscape:original-d="m 150.69231,87.315749 c -0.70486,0.607522 -1.16888,1.257301 -1.64991,1.807051"
     transform="matrix(1.4140425,0.09524835,-0.2034817,1.4212964,-27.306321,-28.296718)" />
  <ellipse
     style="opacity:1;fill:#ffeeaa;fill-opacity:1;stroke-width:2.76166654;stroke-miterlimit:4;stroke-dasharray:none"
     id="path4739-2-0-9-5-0"
     cx="142.08803"
     cy="108.8782"
     rx="3.5058658"
     ry="2.9597793"
     transform="matrix(0.99773908,0.06720657,-0.1417213,0.9899066,0,0)" />
  <path
     style="fill:#e3dbdb;fill-opacity:0.58291458;fill-rule:nonzero;stroke:none;stroke-width:1px;stroke-linecap:butt;stroke-linejoin:miter;stroke-opacity:1"
     d="m 150.69231,87.315749 c 0,0 -0.32643,-0.378736 -0.32643,-0.378736 -0.25623,0.220839 -0.53248,0.660922 -0.77197,1.140868 -0.23755,0.476072 -0.39152,0.862076 -0.55151,1.044919 0.28862,-0.32985 1.58424,-1.090357 1.97634,-1.428315 0,0 -0.32643,-0.378736 -0.32643,-0.378736 z"
     id="path1553-2"
     inkscape:connector-curvature="0"
     inkscape:path-effect="#path-effect1555-6"
     inkscape:original-d="m 150.69231,87.315749 c -0.70486,0.607522 -1.16888,1.257301 -1.64991,1.807051"
     transform="matrix(1.4140425,0.09524835,-0.2034817,1.4212964,-67.201818,-23.373931)" />
  <ellipse
     style="opacity:1;fill:#ffeeaa;fill-opacity:1;stroke-width:2.76166654;stroke-miterlimit:4;stroke-dasharray:none"
     id="path4739-2-0-9-5-3"
     cx="150.80212"
     cy="112.01691"
     rx="3.5058658"
     ry="2.9597793"
     transform="matrix(0.99773908,0.06720657,-0.1417213,0.9899066,0,0)" />
  <path
     style="fill:#e3dbdb;fill-opacity:0.58291458;fill-rule:nonzero;stroke:none;stroke-width:1px;stroke-linecap:butt;stroke-linejoin:miter;stroke-opacity:1"
     d="m 150.69231,87.315749 c 0,0 -0.32643,-0.378736 -0.32643,-0.378736 -0.25623,0.220839 -0.53248,0.660922 -0.77197,1.140868 -0.23755,0.476072 -0.39152,0.862076 -0.55151,1.044919 0.28862,-0.32985 1.58424,-1.090357 1.97634,-1.428315 0,0 -0.32643,-0.378736 -0.32643,-0.378736 z"
     id="path1553-10"
     inkscape:connector-curvature="0"
     inkscape:path-effect="#path-effect1555-50"
     inkscape:original-d="m 150.69231,87.315749 c -0.70486,0.607522 -1.16888,1.257301 -1.64991,1.807051"
     transform="matrix(1.4140425,0.09524835,-0.2034817,1.4212964,-58.952239,-19.681261)" />
  <ellipse
     style="opacity:1;fill:#ffeeaa;fill-opacity:1;stroke-width:2.76166654;stroke-miterlimit:4;stroke-dasharray:none"
     id="path4739-2-0-9-5-17"
     cx="160.26047"
     cy="107.64444"
     rx="3.5058658"
     ry="2.9597793"
     transform="matrix(0.99773908,0.06720657,-0.1417213,0.9899066,0,0)" />
  <path
     style="fill:#e3dbdb;fill-opacity:0.58291458;fill-rule:nonzero;stroke:none;stroke-width:1px;stroke-linecap:butt;stroke-linejoin:miter;stroke-opacity:1"
     d="m 150.69231,87.315749 c 0,0 -0.32643,-0.378736 -0.32643,-0.378736 -0.25623,0.220839 -0.53248,0.660922 -0.77197,1.140868 -0.23755,0.476072 -0.39152,0.862076 -0.55151,1.044919 0.28862,-0.32985 1.58424,-1.090357 1.97634,-1.428315 0,0 -0.32643,-0.378736 -0.32643,-0.378736 z"
     id="path1553-0"
     inkscape:connector-curvature="0"
     inkscape:path-effect="#path-effect1555-8"
     inkscape:original-d="m 150.69231,87.315749 c -0.70486,0.607522 -1.16888,1.257301 -1.64991,1.807051"
     transform="matrix(1.4140425,0.09524835,-0.2034817,1.4212964,-48.89561,-23.37393)" />
  <ellipse
     style="opacity:1;fill:#ffeeaa;fill-opacity:1;stroke-width:2.76166654;stroke-miterlimit:4;stroke-dasharray:none"
     id="path4739-2-0-9-5-19"
     cx="141.02692"
     cy="100.29908"
     rx="3.5058658"
     ry="2.9597793"
     transform="matrix(0.99773908,0.06720657,-0.1417213,0.9899066,0,0)" />
  <path
     style="fill:#e3dbdb;fill-opacity:0.58291458;fill-rule:nonzero;stroke:none;stroke-width:1px;stroke-linecap:butt;stroke-linejoin:miter;stroke-opacity:1"
     d="m 150.69231,87.315749 c 0,0 -0.32643,-0.378736 -0.32643,-0.378736 -0.25623,0.220839 -0.53248,0.660922 -0.77197,1.140868 -0.23755,0.476072 -0.39152,0.862076 -0.55151,1.044919 0.28862,-0.32985 1.58424,-1.090357 1.97634,-1.428315 0,0 -0.32643,-0.378736 -0.32643,-0.378736 z"
     id="path1553-90"
     inkscape:connector-curvature="0"
     inkscape:path-effect="#path-effect1555-76"
     inkscape:original-d="m 150.69231,87.315749 c -0.70486,0.607522 -1.16888,1.257301 -1.64991,1.807051"
     transform="matrix(1.4140425,0.09524835,-0.2034817,1.4212964,-67.044683,-31.937779)" />
  <ellipse
     style="opacity:1;fill:#ffeeaa;fill-opacity:1;stroke-width:2.76166654;stroke-miterlimit:4;stroke-dasharray:none"
     id="path4739-2-0-9-5-77"
     cx="209.03879"
     cy="101.23743"
     rx="3.5058658"
     ry="2.9597793"
     transform="matrix(0.99773908,0.06720657,-0.1417213,0.9899066,0,0)" />
  <path
     style="fill:#e3dbdb;fill-opacity:0.58291458;fill-rule:nonzero;stroke:none;stroke-width:1px;stroke-linecap:butt;stroke-linejoin:miter;stroke-opacity:1"
     d="m 150.69231,87.315749 c 0,0 -0.32643,-0.378736 -0.32643,-0.378736 -0.25623,0.220839 -0.53248,0.660922 -0.77197,1.140868 -0.23755,0.476072 -0.39152,0.862076 -0.55151,1.044919 0.28862,-0.32985 1.58424,-1.090357 1.97634,-1.428315 0,0 -0.32643,-0.378736 -0.32643,-0.378736 z"
     id="path1553-5"
     inkscape:connector-curvature="0"
     inkscape:path-effect="#path-effect1555-54"
     inkscape:original-d="m 150.69231,87.315749 c -0.70486,0.607522 -1.16888,1.257301 -1.64991,1.807051"
     transform="matrix(1.4140425,0.09524835,-0.2034817,1.4212964,0.6804325,-26.43806)" />
  <ellipse
     style="opacity:1;fill:#ffeeaa;fill-opacity:1;stroke-width:2.76166654;stroke-miterlimit:4;stroke-dasharray:none"
     id="path4739-2-0-9-5-53"
     cx="203.39755"
     cy="90.35009"
     rx="3.5058658"
     ry="2.9597793"
     transform="matrix(0.99773908,0.06720657,-0.1417213,0.9899066,0,0)" />
  <path
     style="fill:#e3dbdb;fill-opacity:0.58291458;fill-rule:nonzero;stroke:none;stroke-width:1px;stroke-linecap:butt;stroke-linejoin:miter;stroke-opacity:1"
     d="m 150.69231,87.315749 c 0,0 -0.32643,-0.378736 -0.32643,-0.378736 -0.25623,0.220839 -0.53248,0.660922 -0.77197,1.140868 -0.23755,0.476072 -0.39152,0.862076 -0.55151,1.044919 0.28862,-0.32985 1.58424,-1.090357 1.97634,-1.428315 0,0 -0.32643,-0.378736 -0.32643,-0.378736 z"
     id="path1553-20"
     inkscape:connector-curvature="0"
     inkscape:path-effect="#path-effect1555-99"
     inkscape:original-d="m 150.69231,87.315749 c -0.70486,0.607522 -1.16888,1.257301 -1.64991,1.807051"
     transform="matrix(1.4140425,0.09524835,-0.2034817,1.4212964,-3.4050734,-37.594633)" />
  <ellipse
     style="opacity:1;fill:#ffeeaa;fill-opacity:1;stroke-width:2.76166654;stroke-miterlimit:4;stroke-dasharray:none"
     id="path4739-2-0-9-5-58"
     cx="212.41229"
     cy="92.833435"
     rx="3.5058658"
     ry="2.9597793"
     transform="matrix(0.99773908,0.06720657,-0.1417213,0.9899066,0,0)" />
  <path
     style="fill:#e3dbdb;fill-opacity:0.58291458;fill-rule:nonzero;stroke:none;stroke-width:1px;stroke-linecap:butt;stroke-linejoin:miter;stroke-opacity:1"
     d="m 150.69231,87.315749 c 0,0 -0.32643,-0.378736 -0.32643,-0.378736 -0.25623,0.220839 -0.53248,0.660922 -0.77197,1.140868 -0.23755,0.476072 -0.39152,0.862076 -0.55151,1.044919 0.28862,-0.32985 1.58424,-1.090357 1.97634,-1.428315 0,0 -0.32643,-0.378736 -0.32643,-0.378736 z"
     id="path1553-70"
     inkscape:connector-curvature="0"
     inkscape:path-effect="#path-effect1555-98"
     inkscape:original-d="m 150.69231,87.315749 c -0.70486,0.607522 -1.16888,1.257301 -1.64991,1.807051"
     transform="matrix(1.4140425,0.09524835,-0.2034817,1.4212964,5.2373429,-34.530504)" />
  <ellipse
     style="opacity:1;fill:#ffeeaa;fill-opacity:1;stroke-width:2.76166654;stroke-miterlimit:4;stroke-dasharray:none"
     id="path4739-2-0-9-5-521"
     cx="225.15323"
     cy="94.163651"
     rx="3.5058658"
     ry="2.9597793"
     transform="matrix(0.99773908,0.06720657,-0.1417213,0.9899066,0,0)" />
  <path
     style="fill:#e3dbdb;fill-opacity:0.58291458;fill-rule:nonzero;stroke:none;stroke-width:1px;stroke-linecap:butt;stroke-linejoin:miter;stroke-opacity:1"
     d="m 150.69231,87.315749 c 0,0 -0.32643,-0.378736 -0.32643,-0.378736 -0.25623,0.220839 -0.53248,0.660922 -0.77197,1.140868 -0.23755,0.476072 -0.39152,0.862076 -0.55151,1.044919 0.28862,-0.32985 1.58424,-1.090357 1.97634,-1.428315 0,0 -0.32643,-0.378736 -0.32643,-0.378736 z"
     id="path1553-97"
     inkscape:connector-curvature="0"
     inkscape:path-effect="#path-effect1555-4"
     inkscape:original-d="m 150.69231,87.315749 c -0.70486,0.607522 -1.16888,1.257301 -1.64991,1.807051"
     transform="matrix(1.4140425,0.09524835,-0.2034817,1.4212964,17.76094,-32.35744)" />
  <ellipse
     style="opacity:1;fill:#ffeeaa;fill-opacity:1;stroke-width:2.76166654;stroke-miterlimit:4;stroke-dasharray:none"
     id="path4739-2-0-9-5-9"
     cx="209.89148"
     cy="83.956566"
     rx="3.5058658"
     ry="2.9597793"
     transform="matrix(0.99773908,0.06720657,-0.1417213,0.9899066,0,0)" />
  <path
     style="fill:#e3dbdb;fill-opacity:0.58291458;fill-rule:nonzero;stroke:none;stroke-width:1px;stroke-linecap:butt;stroke-linejoin:miter;stroke-opacity:1"
     d="m 150.69231,87.315749 c 0,0 -0.32643,-0.378736 -0.32643,-0.378736 -0.25623,0.220839 -0.53248,0.660922 -0.77197,1.140868 -0.23755,0.476072 -0.39152,0.862076 -0.55151,1.044919 0.28862,-0.32985 1.58424,-1.090357 1.97634,-1.428315 0,0 -0.32643,-0.378736 -0.32643,-0.378736 z"
     id="path1553-16"
     inkscape:connector-curvature="0"
     inkscape:path-effect="#path-effect1555-94"
     inkscape:original-d="m 150.69231,87.315749 c -0.70486,0.607522 -1.16888,1.257301 -1.64991,1.807051"
     transform="matrix(1.4140425,0.09524835,-0.2034817,1.4212964,3.9802641,-43.48719)" />
  <ellipse
     style="opacity:1;fill:#ffeeaa;fill-opacity:1;stroke-width:2.76166654;stroke-miterlimit:4;stroke-dasharray:none"
     id="path4739-2-0-9-5-572"
     cx="180.61137"
     cy="85.427376"
     rx="3.5058658"
     ry="2.9597793"
     transform="matrix(0.99773908,0.06720657,-0.1417213,0.9899066,0,0)" />
  <path
     style="fill:#e3dbdb;fill-opacity:0.58291458;fill-rule:nonzero;stroke:none;stroke-width:1px;stroke-linecap:butt;stroke-linejoin:miter;stroke-opacity:1"
     d="m 150.69231,87.315749 c 0,0 -0.32643,-0.378736 -0.32643,-0.378736 -0.25623,0.220839 -0.53248,0.660922 -0.77197,1.140868 -0.23755,0.476072 -0.39152,0.862076 -0.55151,1.044919 0.28862,-0.32985 1.58424,-1.090357 1.97634,-1.428315 0,0 -0.32643,-0.378736 -0.32643,-0.378736 z"
     id="path1553-6"
     inkscape:connector-curvature="0"
     inkscape:path-effect="#path-effect1555-59"
     inkscape:original-d="m 150.69231,87.315749 c -0.70486,0.607522 -1.16888,1.257301 -1.64991,1.807051"
     transform="matrix(1.4140425,0.09524835,-0.2034817,1.4212964,-25.442079,-43.999034)" />
  <ellipse
     style="opacity:1;fill:#ffeeaa;fill-opacity:1;stroke-width:2.76166654;stroke-miterlimit:4;stroke-dasharray:none"
     id="path4739-2-0-9-5-96"
     cx="150.49574"
     cy="93.782951"
     rx="3.5058658"
     ry="2.9597793"
     transform="matrix(0.99773908,0.06720657,-0.1417213,0.9899066,0,0)" />
  <path
     style="fill:#e3dbdb;fill-opacity:0.58291458;fill-rule:nonzero;stroke:none;stroke-width:1px;stroke-linecap:butt;stroke-linejoin:miter;stroke-opacity:1"
     d="m 150.69231,87.315749 c 0,0 -0.32643,-0.378736 -0.32643,-0.378736 -0.25623,0.220839 -0.53248,0.660922 -0.77197,1.140868 -0.23755,0.476072 -0.39152,0.862076 -0.55151,1.044919 0.28862,-0.32985 1.58424,-1.090357 1.97634,-1.428315 0,0 -0.32643,-0.378736 -0.32643,-0.378736 z"
     id="path1553-83"
     inkscape:connector-curvature="0"
     inkscape:path-effect="#path-effect1555-0"
     inkscape:original-d="m 150.69231,87.315749 c -0.70486,0.607522 -1.16888,1.257301 -1.64991,1.807051"
     transform="matrix(1.4140425,0.09524835,-0.2034817,1.4212964,-56.673784,-37.751768)" />
  <ellipse
     style="opacity:1;fill:#ffeeaa;fill-opacity:1;stroke-width:2.76166654;stroke-miterlimit:4;stroke-dasharray:none"
     id="path4739-2-0-9-5-12"
     cx="189.63826"
     cy="98.695686"
     rx="3.5058658"
     ry="2.9597793"
     transform="matrix(0.99773908,0.06720657,-0.1417213,0.9899066,0,0)" />
  <path
     style="fill:#e3dbdb;fill-opacity:0.58291458;fill-rule:nonzero;stroke:none;stroke-width:1px;stroke-linecap:butt;stroke-linejoin:miter;stroke-opacity:1"
     d="m 150.69231,87.315749 c 0,0 -0.32643,-0.378736 -0.32643,-0.378736 -0.25623,0.220839 -0.53248,0.660922 -0.77197,1.140868 -0.23755,0.476072 -0.39152,0.862076 -0.55151,1.044919 0.28862,-0.32985 1.58424,-1.090357 1.97634,-1.428315 0,0 -0.32643,-0.378736 -0.32643,-0.378736 z"
     id="path1553-4"
     inkscape:connector-curvature="0"
     inkscape:path-effect="#path-effect1555-74"
     inkscape:original-d="m 150.69231,87.315749 c -0.70486,0.607522 -1.16888,1.257301 -1.64991,1.807051"
     transform="matrix(1.4140425,0.09524835,-0.2034817,1.4212964,-18.316008,-30.257989)" />
  <ellipse
     style="opacity:1;fill:#ffeeaa;fill-opacity:1;stroke-width:2.76166654;stroke-miterlimit:4;stroke-dasharray:none"
     id="path4739-2-0-9-5-2"
     cx="191.62054"
     cy="88.346893"
     rx="3.5058658"
     ry="2.9597793"
     transform="matrix(0.99773908,0.06720657,-0.1417213,0.9899066,0,0)" />
  <path
     style="fill:#e3dbdb;fill-opacity:0.58291458;fill-rule:nonzero;stroke:none;stroke-width:1px;stroke-linecap:butt;stroke-linejoin:miter;stroke-opacity:1"
     d="m 150.69231,87.315749 c 0,0 -0.32643,-0.378736 -0.32643,-0.378736 -0.25623,0.220839 -0.53248,0.660922 -0.77197,1.140868 -0.23755,0.476072 -0.39152,0.862076 -0.55151,1.044919 0.28862,-0.32985 1.58424,-1.090357 1.97634,-1.428315 0,0 -0.32643,-0.378736 -0.32643,-0.378736 z"
     id="path1553-01"
     inkscape:connector-curvature="0"
     inkscape:path-effect="#path-effect1555-88"
     inkscape:original-d="m 150.69231,87.315749 c -0.70486,0.607522 -1.16888,1.257301 -1.64991,1.807051"
     transform="matrix(1.4140425,0.09524835,-0.2034817,1.4212964,-14.871564,-40.3691)" />
</svg>
