<?xml version="1.0" encoding="UTF-8"?>
<svg cursor="default" enable-background="new" version="1.1" viewBox="0 0 256 256" xmlns="http://www.w3.org/2000/svg" xmlns:cc="http://creativecommons.org/ns#" xmlns:dc="http://purl.org/dc/elements/1.1/" xmlns:rdf="http://www.w3.org/1999/02/22-rdf-syntax-ns#" xmlns:xlink="http://www.w3.org/1999/xlink">
 <metadata>
  <rdf:RDF>
   <cc:Work rdf:about="">
    <dc:format>image/svg+xml</dc:format>
    <dc:type rdf:resource="http://purl.org/dc/dcmitype/StillImage"/>
    <dc:title/>
   </cc:Work>
  </rdf:RDF>
 </metadata>
 <defs>
  <linearGradient id="innoGrad2">
   <stop stop-color="#f55" offset="0"/>
   <stop stop-color="#ff8080" offset="1"/>
  </linearGradient>
  <linearGradient id="innoGrad3">
   <stop stop-color="#f55" offset="0"/>
   <stop stop-color="#ff8080" offset=".105"/>
   <stop stop-color="#ff8080" offset=".777"/>
   <stop stop-color="#f55" offset="1"/>
  </linearGradient>
  <linearGradient id="innoGrad1">
   <stop stop-color="#f55" offset="0"/>
   <stop stop-color="#ff2a2a" offset="1"/>
  </linearGradient>
  <radialGradient id="radialGradient2111" cx="115.01" cy="39.776" r="8.6429" gradientTransform="matrix(-.79032 .42439 -.96439 -1.796 243.94 61.742)" gradientUnits="userSpaceOnUse">
   <stop stop-color="#fff6d5" offset="0"/>
   <stop stop-color="#ffd42a" offset="1"/>
  </radialGradient>
  <linearGradient id="linearGradient2389" x1="116.52" x2="137.4" y1="121.62" y2="121.62" gradientUnits="userSpaceOnUse" xlink:href="#innoGrad1"/>
  <linearGradient id="linearGradient2397" x1="98.272" x2="118.28" y1="127" y2="127" gradientUnits="userSpaceOnUse" xlink:href="#innoGrad1"/>
  <linearGradient id="linearGradient2405" x1="120.19" x2="128.67" y1="94.796" y2="94.796" gradientUnits="userSpaceOnUse" xlink:href="#innoGrad1"/>
  <linearGradient id="linearGradient2413" x1="102.91" x2="105.44" y1="98.424" y2="98.424" gradientUnits="userSpaceOnUse" xlink:href="#innoGrad1"/>
  <linearGradient id="linearGradient2421" x1="115.88" x2="146.29" y1="67.14" y2="67.14" gradientUnits="userSpaceOnUse" xlink:href="#innoGrad1"/>
  <linearGradient id="linearGradient2429" x1="105.66" x2="117.65" y1="67.671" y2="67.671" gradientUnits="userSpaceOnUse" xlink:href="#innoGrad1"/>
  <linearGradient id="linearGradient2437" x1="139.31" x2="151.63" y1="100.58" y2="100.58" gradientUnits="userSpaceOnUse" xlink:href="#innoGrad1"/>
  <linearGradient id="linearGradient2445" x1="147.97" x2="158.7" y1="135.28" y2="135.28" gradientUnits="userSpaceOnUse" xlink:href="#innoGrad1"/>
  <linearGradient id="linearGradient2453" x1="95.619" x2="98.154" y1="112.88" y2="112.88" gradientUnits="userSpaceOnUse" xlink:href="#innoGrad1"/>
  <linearGradient id="linearGradient2461" x1="122.95" x2="132.14" y1="52.184" y2="52.184" gradientUnits="userSpaceOnUse" xlink:href="#innoGrad1"/>
  <linearGradient id="linearGradient2469" x1="111.05" x2="123.97" y1="20.962" y2="20.962" gradientUnits="userSpaceOnUse" xlink:href="#innoGrad2"/>
  <linearGradient id="linearGradient2477" x1="134.39" x2="195.32" y1="16.692" y2="16.692" gradientUnits="userSpaceOnUse" xlink:href="#innoGrad2"/>
  <linearGradient id="linearGradient2485" x1="121.24" x2="138.33" y1="12.197" y2="12.197" gradientUnits="userSpaceOnUse" xlink:href="#innoGrad2"/>
  <linearGradient id="linearGradient2493" x1="79.255" x2="114.8" y1="58.815" y2="58.815" gradientUnits="userSpaceOnUse" xlink:href="#innoGrad2"/>
  <linearGradient id="linearGradient2501" x1="143" x2="166.24" y1="31.036" y2="31.036" gradientUnits="userSpaceOnUse" xlink:href="#innoGrad2"/>
  <linearGradient id="linearGradient2509" x1="117.6" x2="132.58" y1="45.592" y2="45.592" gradientUnits="userSpaceOnUse" xlink:href="#innoGrad3"/>
  <linearGradient id="linearGradient2517" x1="126.69" x2="136.27" y1="43.794" y2="43.794" gradientUnits="userSpaceOnUse" xlink:href="#innoGrad3"/>
  <linearGradient id="linearGradient2525" x1="110.35" x2="144.95" y1="53.373" y2="53.373" gradientUnits="userSpaceOnUse" xlink:href="#innoGrad3"/>
  <linearGradient id="linearGradient2533" x1="136.03" x2="149.76" y1="40.554" y2="40.554" gradientUnits="userSpaceOnUse" xlink:href="#innoGrad1"/>
  <linearGradient id="linearGradient2541" x1="122.89" x2="131.75" y1="220.5" y2="220.5" gradientUnits="userSpaceOnUse" xlink:href="#innoGrad2"/>
  <linearGradient id="linearGradient2549" x1="121.08" x2="131.3" y1="204.92" y2="204.92" gradientUnits="userSpaceOnUse" xlink:href="#innoGrad2"/>
  <linearGradient id="linearGradient2557" x1="113.7" x2="122.06" y1="207.96" y2="207.96" gradientUnits="userSpaceOnUse" xlink:href="#innoGrad2"/>
  <linearGradient id="linearGradient2565" x1="115.2" x2="119.41" y1="178.45" y2="178.45" gradientUnits="userSpaceOnUse" xlink:href="#innoGrad2"/>
  <linearGradient id="linearGradient2573" x1="118.55" x2="139.03" y1="142.24" y2="142.24" gradientUnits="userSpaceOnUse" xlink:href="#innoGrad2"/>
  <linearGradient id="linearGradient2581" x1="96.79" x2="119.28" y1="145.75" y2="145.75" gradientUnits="userSpaceOnUse" xlink:href="#innoGrad2"/>
  <linearGradient id="linearGradient2589" x1="102" x2="132.69" y1="95.983" y2="95.983" gradientUnits="userSpaceOnUse" xlink:href="#innoGrad2"/>
  <linearGradient id="linearGradient2597" x1="137.5" x2="154.48" y1="75.659" y2="75.659" gradientUnits="userSpaceOnUse" xlink:href="#innoGrad2"/>
  <linearGradient id="linearGradient2605" x1="147.94" x2="152.53" y1="123.95" y2="123.95" gradientUnits="userSpaceOnUse" xlink:href="#innoGrad3"/>
  <linearGradient id="linearGradient2613" x1="147.29" x2="149.67" y1="79.22" y2="79.22" gradientUnits="userSpaceOnUse" xlink:href="#innoGrad1"/>
  <linearGradient id="linearGradient2621" x1="95.557" x2="104.22" y1="89.264" y2="89.264" gradientUnits="userSpaceOnUse" xlink:href="#innoGrad1"/>
 </defs>
 <g display="none">
  <g fill="#ffd5d5">
   <path d="m125.8-66.918c0.19113-0.13799 0.36408-0.30229 0.53601-0.46375 0.14221-0.10162 0.26069-0.22783 0.40714-0.32395 0.16197-0.1145 0.35231-0.17689 0.51665-0.28607 0.19959-0.09748 0.38503-0.22094 0.58248-0.32348 0.16429-0.1074 0.34952-0.17162 0.51877-0.26764 0.14546-0.05932 0.27793-0.1424 0.42003-0.20938 0.12023-0.08121 0.24331-0.16517 0.378-0.22069 0.11434-0.06734 0.23138-0.13631 0.3565-0.18236 0.11722-0.09046 0.2551-0.14972 0.3702-0.24206 0.12005-0.09046 0.26297-0.14524 0.38556-0.22991 0.0832-0.03548 0.15839-0.08157 0.23866-0.12261l-0.11422 1.0484c-0.0771 0.04202-0.15789 0.07632-0.23389 0.12041-0.12825 0.06313-0.2543 0.13186-0.37378 0.21041-0.13283 0.08533-0.25518 0.18803-0.3953 0.26009-0.11865 0.05795-0.23519 0.12005-0.35306 0.17953-0.12646 0.065-0.24907 0.13719-0.37221 0.20819-0.1363 0.07532-0.27366 0.14348-0.42109 0.19516-0.17679 0.07013-0.34407 0.15971-0.51427 0.24448-0.19875 0.0963-0.38624 0.21057-0.57564 0.32339-0.17845 0.09301-0.3488 0.19995-0.51187 0.31788-0.13309 0.10018-0.25447 0.21623-0.39786 0.30275-0.19966 0.13825-0.38689 0.29452-0.53694 0.48733l0.0901-1.0262z"/>
   <path d="m120.85-66.835c0.0444-0.58608 0.20712-1.1269 0.35945-1.6828 0.0426-0.17144 0.1709-0.29008 0.25244-0.43939 0.0908-0.12969 0.22965-0.20993 0.36355-0.28833 0.11481-0.09222 0.21597-0.20065 0.34376-0.27466 0.11691-0.08744 0.24277-0.16205 0.3659-0.24035 0.12401-0.06714 0.24427-0.13918 0.3693-0.20488 0.12704-0.04094 0.21978-0.13815 0.33958-0.19322 0.13016-0.05459 0.26091-0.10723 0.39545-0.15359 0.14758-0.07245 0.30124-0.12868 0.44917-0.20449 0.17264-0.07193 0.33051-0.17437 0.50194-0.24755 0.12905-0.04661 0.24417-0.11976 0.37097-0.17224l-0.12165 1.0114c-0.12107 0.04466-0.24065 0.09361-0.35806 0.1472-0.16553 0.09957-0.33096 0.19871-0.50549 0.28211-0.15026 0.07766-0.31182 0.12952-0.46037 0.21079-0.12918 0.05722-0.25712 0.11707-0.38583 0.17521-0.11047 0.06853-0.21729 0.14262-0.33882 0.1916-0.11929 0.06619-0.24306 0.12408-0.36002 0.19469-0.12268 0.08035-0.24608 0.15912-0.36658 0.24273-0.11993 0.08554-0.2223 0.19376-0.34622 0.27334-0.12488 0.07823-0.24168 0.15534-0.31459 0.28895-0.0894 0.12685-0.17877 0.2506-0.22355 0.40223-0.12757 0.38943-0.33775 1.4102-1e-3 -0.2908 0 0-0.32924 0.97202-0.32924 0.97202z"/>
   <path d="m116.69-60.997c-8e-3 -0.27892-0.0422-0.55612-0.0636-0.83416-0.0144-0.19126-0.0178-0.38306-0.0196-0.57478-3e-3 -0.19291 3e-3 -0.38573 3e-3 -0.57862-8e-3 -0.19185 1e-4 -0.38068 0.0301-0.57012 0.0312-0.17479 0.0437-0.35181 0.0508-0.52895 5e-3 -0.17638 5e-3 -0.35287 5e-3 -0.52932-0.0259-0.5256 0.0959-0.96293 0.19265-1.5112 5e-3 -0.02456 7e-3 -0.04987 0.0151-0.07367 0.0151-0.04588 0.042-0.08718 0.0589-0.13241 0.0252-0.06716 0.0376-0.13421 0.0653-0.20071 0.0986-0.12572 0.1407-0.27044 0.16332-0.4256-0.56284 3.1388 0.46621-2.5482-0.0863 0.55712 0.25734-0.39361 0.0866-1.0068 0.31962-1.4368 0.0806-0.16312 0.12873-0.34032 0.20621-0.50422 0.0611-0.14307 0.0859-0.29579 0.17526-0.42547 0.0814-0.11955 0.14631-0.24728 0.21101-0.37658 0.0908-0.10021 0.18811-0.19153 0.26557-0.30395 0.0752-0.06626 0.0866-0.17006 0.14547-0.2469 0.0299-0.03903 0.0664-0.07265 0.0969-0.11123 0.10869-0.07863 0.17624-0.18992 0.26088-0.28912 0.0619-0.11825 0.17487-0.1924 0.2583-0.29231 0.0973-0.11774 0.22929-0.19974 0.32915-0.3144 0.10773-0.11992 0.25125-0.19223 0.37742-0.28705 0.12143-0.07475 0.24236-0.15575 0.3517-0.24773 0.12999-0.07679 0.25194-0.16251 0.37874-0.24426 0.14604-0.08205 0.26276-0.2007 0.39206-0.30424 0.0893-0.06275 0.19297-0.08278 0.29835-0.09911l-0.14198 1.0279c-0.0899 0.02274-0.17662 0.05023-0.25004 0.10976-0.13004 0.1024-0.26926 0.19199-0.39861 0.2952-0.12313 0.08901-0.254 0.16632-0.3758 0.25725-0.12169 0.08038-0.23167 0.17662-0.35817 0.24985-0.12738 0.07281-0.24883 0.15756-0.35054 0.2642-0.11 0.11066-0.22164 0.21976-0.32804 0.33395-0.0909 0.09692-0.1768 0.19793-0.25361 0.30653-0.0767 0.104-0.17409 0.18662-0.26148 0.28128-0.0947 0.11298-0.14905 0.24957-0.24035 0.36545-0.0832 0.09657-0.17878 0.18364-0.24671 0.29129-0.072 0.12893-0.13739 0.26141-0.21607 0.38664-0.0614 0.1304-0.0975 0.27023-0.16246 0.39914-0.0692 0.16698-0.13273 0.33632-0.20505 0.50204-0.13125 0.38871-0.25925 1.2156 0.057-0.56814-0.0629 0.36254-0.12473 0.72529-0.18882 1.0876-8e-3 0.04401-0.0245 0.10434-0.0357 0.14775-6e-3 0.0232-0.0216 0.0933-0.0177 0.06966 4e-3 -0.02311 0.46746-2.7256-0.0262 0.1518-0.0374 0.15385-0.10712 0.28896-0.17821 0.42928-0.0398 0.13792-0.10051 0.26883-0.12475 0.41076 0.0541-0.3123 0.10996-0.62429 0.16224-0.93689 5e-3 -0.02782-0.0162 0.05434-0.0194 0.08236-0.0131 0.11632 0.0103 0.23678 4e-4 0.35345 2.2e-4 0.1768 8.6e-4 0.35361-2e-3 0.53039-4e-3 0.18005-0.011 0.36049-0.0401 0.53857-0.0324 0.19299-0.0665 0.38219-0.0503 0.57937-1e-5 0.18722 5e-3 0.37436 2e-3 0.56158-8.3e-4 0.20509-2e-3 0.41022 2e-3 0.61529 7e-3 0.26144 0.0104 0.52738 0.0721 0.78264l-0.30497 0.9799z"/>
   <path d="m108.85-91.646c0.23117-0.03403 0.45037-0.15603 0.64236-0.28693 0.15619-0.108 0.32335-0.19766 0.47698-0.30751 0.12875-0.09908 0.26113-0.18233 0.41072-0.24778 0.1327-0.08249 0.26417-0.16436 0.39515-0.24896 0.14616-0.08444 0.28946-0.17053 0.43193-0.26043 0.11886-0.10848 0.25624-0.19514 0.39074-0.28286 0.12926-0.11898 0.26959-0.22626 0.41095-0.33005 0.13551-0.09077 0.26887-0.18348 0.40245-0.2777 0.13575-0.11526 0.25915-0.24402 0.40211-0.35183 0.0913-0.09669 0.20725-0.16717 0.27054-0.28672 0.0964-0.10344 0.18158-0.21481 0.27209-0.32348 0.11927-0.11582 0.22739-0.24393 0.35215-0.35383 0.0802-0.11362 0.1979-0.18135 0.30135-0.2681 0.019-0.01151 0.0371-0.02451 0.057-0.03452 0.0593-0.02996 0.0675-0.0182 0.11552-0.06238 0.0501-0.04611 0.0814-0.08415 0.14206-0.12033 0.0888-0.09243 0.20435-0.14792 0.30326-0.22613 0.0932-0.0496 0.16266-0.12989 0.24579-0.19321l-0.0936 1.0544c-0.0796 0.07006-0.16361 0.13468-0.25317 0.19167-0.10721 0.06783-0.20161 0.15166-0.30424 0.22607-0.0991 0.08048-0.19922 0.15309-0.30975 0.21748-0.10682 0.07396-0.1961 0.16676-0.29148 0.25459-0.11826 0.10895-0.24209 0.21519-0.33366 0.34868-0.0864 0.11679-0.18519 0.22412-0.26767 0.34407-0.0884 0.10155-0.19549 0.18451-0.30231 0.26594-0.14015 0.10439-0.27227 0.21622-0.40044 0.3351-0.13038 0.10365-0.27151 0.19046-0.40541 0.28913-0.14034 0.09983-0.27729 0.20303-0.41076 0.31196-0.13303 0.09964-0.25716 0.21104-0.39867 0.2988-0.14533 0.08621-0.29466 0.16621-0.43054 0.26741-0.13305 0.08447-0.26748 0.1677-0.40673 0.24145-0.1363 0.0729-0.26356 0.15989-0.39675 0.23808-0.15964 0.09403-0.31528 0.19501-0.47781 0.28409-0.21554 0.11549-0.46179 0.17044-0.66026 0.31988l0.12017-1.0261z"/>
  </g>
  <g fill="none" stroke="#000" stroke-width="1px">
   <path d="m119.87 33.5 2.5-8"/>
   <path d="m119.87 33.5 1.7584-1.4761"/>
   <path d="m121.63 32.024 2.0219-4.7509"/>
   <path d="m123.47 27.262-0.39775-3.7676"/>
   <path d="m122.37 25.5 0.69473-2.0055"/>
  </g>
 </g>
 <g>
  <g>
   <g stroke="#000">
    <path d="m122.79 27.759c-0.24551 0.11746-0.33876 0.41268-0.50506 0.61328-1.7898 2.6675-3.9367 5.0685-6.3599 7.1832-0.12042-0.15546-0.34695-0.36609-0.54235-0.19794-0.0977 0.09755-0.11074 0.2441-0.14148 0.37201-1.594-0.3676-3.0668-1.3188-4.047-2.6298-0.11053-0.21382-0.45834-0.20678-0.51178 0.04498-0.0895 0.54629-0.0421 1.1067-0.0425 1.6584 0.0901 2.2579 1.0686 4.3934 2.3988 6.187 1.2135 1.6604 2.759 3.0336 4.3016 4.3782 1.1655 1.0296 2.3262 2.1209 3.0675 3.5088 0.25134 0.41989 0.4028 0.88695 0.60499 1.329 0.11699 0.2057 0.39692 0.11092 0.48724-0.06957 1.2754-1.6337 2.4906-3.3142 3.6823-5.0098 0.0919-0.24446-0.0388-0.50732-0.0173-0.76263-0.0297-1.0809-0.0239-2.1893 0.21338-3.2568 0.1353-0.69097 0.32143-1.3846 0.66968-1.9935 0.39769-0.83762 1.2364-1.3529 1.6619-2.1696 0.0969-0.26107 0.2581-0.54659 0.17365-0.83008-0.13423-0.25044-0.42636-0.35642-0.62109-0.55341-0.99564-0.83315-1.8963-1.7764-2.5648-2.8985-0.87979-1.431-1.4318-3.0612-1.615-4.7293-0.035-0.1263-0.16483-0.20146-0.29261-0.17413zm-1.8318 4.5953c0.17388 0.12958 0.34584 0.2618 0.51489 0.39764-1.1453 1.4683-2.5412 2.7114-3.7996 4.0782-0.86603 0.91242-1.666 1.8911-2.4077 2.9031-0.15877-0.1388-0.42008-0.31005-0.60546-0.11414-0.0778 0.07928-0.12207 0.18337-0.17725 0.27808-1.0959-0.69657-1.9229-1.7913-2.2932-3.036-0.0192-0.10601-0.10881-0.2596-0.077-0.34233 0.23149-0.04275 0.45924-0.08772 0.6922-0.11896 0.21628 0.86601 0.66495 1.6805 1.3202 2.2919 0.17588 0.1433 0.31635 0.39212 0.5555 0.4201 0.24886-0.02023 0.34696-0.30495 0.50297-0.4638 1.3121-1.7527 2.9009-3.253 4.4102-4.8309 0.45928-0.48075 0.8993-0.97981 1.3123-1.501 0.0173 0.0127 0.0346 0.02539 0.0519 0.03809z" fill="url(#radialGradient2111)" stroke-width=".00625"/>
    <g stroke-width=".025">
     <path d="m151.84 120.83c-1.2717 1.072-2.4154 2.0921-3.8902 2.48 0.0597 1.1484 0.0199 2.3692 0.34644 3.4858 1.333 0.6022 3.0145 0.11771 4.2029-0.31934 0.0515-2.0739 0.0718-4.329-0.65917-5.6465z" fill="url(#linearGradient2605)"/>
     <path d="m152.89 127.12c-1.2717 1.072-3.1225 0.50109-4.5972 0.88903-0.32371 2.1652-1.2819 4.5137 3.4319 10.594 1.6068 2.0724-0.15515-5.3239 8e-3 -4.7656 1.4214 3.0329 4.9148 13.022 6.8103 8.3869 1.1564-5.963-4.9222-13.787-5.6531-15.104z" fill="url(#linearGradient2445)"/>
     <path d="m146.4 78.775c-1.5842 0.38445-2.7916-1.0888-7.0789 4.1117 0.0597 1.1484 2.0217 13.595 8.5358 39.399 1.333 0.6022 2.5637-1.7688 3.7521-2.2058 0.239-16.824-3.353-29.612-5.209-41.305z" fill="url(#linearGradient2437)"/>
     <path d="m154.35 69.254c-14.615 4.072-10.322 1.2796-15.046 6.0113-3.3466 4.7109-1.1988 6.4005-0.15356 6.7983 4.2705-2.9916 10.389-4.5698 11.578-5.0068 1.4265-1.8239 4.353-6.4853 3.6221-7.8028z" fill="url(#linearGradient2597)"/>
     <path d="m149.64 78.317c-1.178-0.0218-0.7279-0.06417-2.2026 0.32377 0.0597 1.1484-0.32385 0.36923 3e-3 1.4858 1.457-1.1507 1.2434-0.91166 2.2-1.8096z" fill="url(#linearGradient2613)"/>
    </g>
    <path d="m137.82 55.051c-5.3454 5.1824-8.5397 7.3964-19.863 12.744-3.548 3.0263-1.4548 6.0841-1.4834 8.4748-0.11529 0.53934-0.50808 1.0699-0.42727 1.6281 0.38349 0.34228 0.7125-0.31434 1.0036-0.49954 1.5435-1.5398 3.2782-3.112 3.8498-5.3025 0.47706-1.6438 1.2315-3.4695 2.9328-4.1617 0.68823-0.30837 1.5027-0.23912 2.2275-0.11618 1.819 0.64784 2.7015 2.593 2.9864 4.3778 0.28481 1.9954 0.22041 4.0194-0.31703 5.9463-0.0285 0.39595-0.33413 0.77338-0.24523 1.1725 0.33994 0.34466 0.73298-0.23974 1.0567-0.36667 1.7128-1.1733 3.4722-2.3233 5.4057-3.0787 0.49732-0.1085 0.50738-0.78936 0.71329-1.167 1.4279-4.3868 1.3658-3.9285 2.5762 0.19594 2.7895-1.3431 4.2814-4.5163 7.5489-4.031 0.64932-10.345 1.8956-12.895-6.0078-14.37-0.67145-0.50513-2.1415-2.0569-2.4875-1.5342z" fill="url(#linearGradient2421)" stroke-width=".017678"/>
    <path d="m133.48 77.373c-3.8845 2.3186-7.5938 5.329-10.15 8.4055 3.3025-0.29435 8.6327-5.3173 10.417-7.984 0.14381-0.19614-0.0113-0.4959-0.26724-0.42148z" fill="#ffb380" stroke-width=".0088388"/>
    <path d="m114.82 54.738c-4.6041 0.66865-4.4932 1.4102-9.1553 13.29 0.80218 0.69974 1.1872 2.0917 0.96287 3.0859-0.21544 1.0879-0.79693 2.1652-0.55741 3.3023 0.25585 1.3071 1.2908 2.2771 2.3206 3.0324 3.9784 2.1941 2.0208 1.1878 3.7448 3.1511 2.2595-4.8442 0.1208-10.197 2.9626-14.434 3.3673-4.8471 3.2514-4.6888 0.49776-11.256-0.15866-0.22162-0.53375-0.14908-0.77588-0.17075z" fill="url(#linearGradient2429)" stroke-width=".0088388"/>
    <path d="m124.77 207.05c-1.2717 1.072-2.9457 17.03-0.92914 26.875 1.7391-3.0058 1.4783-8.7235 1.8048-7.6069 1.333 0.6022 4.6497-4.2133 5.7939-5.5784 1.9076-3.3997-5.9386-12.372-6.6696-13.69z" fill="url(#linearGradient2541)" stroke-width=".025"/>
    <path d="m130.83 205.64c0.0597 1.1484-2.7201 5.286-2.3936 6.4026 1.333 0.6022 3.7216 4.4046 5.0426 18.728 0.50661-4.074 6.0946-29.55-2.649-25.131z" fill="#ffb380" stroke-width=".025"/>
    <path d="m129.06 164.44c-0.5315 0.22626-0.71578 0.89785-1.0801 1.3123-3.6722-0.52997-6.8113 39.013-6.8591 54.824-0.0457 7.4298-0.0675 14.862 0.0822 22.29 0.0789 0.99636 0.51167 2.2348 1.5791 2.5294 3.4958-3.2941-1.2944-16.028-0.7789-23.322-0.42336-15.626 8.3073-29.496 9.1847-43.481 0.55558-5.0213-1.4219-9.3544-1.7758-13.883-0.0387-0.15812-0.18308-0.28843-0.352-0.27z" fill="url(#linearGradient2549)" stroke-width=".017678"/>
    <path d="m113.77 230.54c0.0597 1.1484-1.7479 2.8996-1.4213 4.0162 1.333 0.6022 0.45123 2.1948 1.6396 1.7578 0.26553-0.67735 0.24596-5.7898-0.21829-5.774z" fill="#ff8080" stroke-width=".025"/>
    <path d="m111.91 232.09c-4.1565 3.687-3.3366 3.8768-1.4887 6.2973 1.333 0.6022 3.5624-0.4639 3.098-1.7556-0.6777-1.4552-1.7181-1.9425-1.6093-4.5417z" fill="#ffb380" stroke-width=".025"/>
    <path d="m137.48 122.74c-0.86148 0.46368-1.526 1.2436-2.2534 1.8924-2.5547 2.2907-3.0619 2.7722-4.2175 3.3516-2.698 1.6786-6.0341 8.7084-8.3879 11.901 0.0223-1.7576 0.28347-4.1614 0.8402-5.8404-2.511 1.3366-4.4145 6.6055-4.9043 9.1232 1.7104 5.9515 1.5414 10.538 1.3167 16.393 0.92529-1.4098 1.2079-3.2452 2.3794-3.772 2.5861 1.3803 5.2455 3.6576 7.0814 5.9324 0.14-9.603 10.068-19.18 9.6759-28.961-0.6923-2.8182-0.57734-5.0219-0.67326-7.2696-0.15225-0.89737-0.25889-1.8443-0.641-2.6738-0.054-0.0587-0.13691-0.0895-0.2163-0.0768z" fill="url(#linearGradient2573)" stroke-width=".017678"/>
    <path d="m132.32 104.12c-10.275 3.2849-11.282 4.5322-15.521 10.443-0.92318 8.0774 0.62923 16.897 1.7051 24.384 0.0679 0.27246 0.45014 0.23648 0.53413-6e-3 1.2247-2.4871 5.2606-8.4108 6.6281-7.2997-0.78564 1.1002-1.5886 3.2977-1.9799 4.5931 3.634-5.2359 9.274-10.869 13.703-14.471-1.0052-6.0213-2.9328-12.514-4.7494-17.516-0.0617-0.11872-0.19312-0.18109-0.31972-0.12809z" fill="url(#linearGradient2389)" stroke-width=".0088388"/>
   </g>
   <g fill="#ffb380" stroke="#000">
    <path d="m124.01 29.015c1.34 3.7764 4.2726 8.6796 8.1127 8.4183 1.9156-0.02853 3.8398-0.04623 5.744-0.26962 1.3911-0.19701 2.6747-0.92567 3.5728-2.0037 7.06-9.6895 2.3399-15.926-4.9766-17.484-4.2272-0.67243-7.5269 1.3547-9.9027 3.3958-0.67848-2.2328 0.34196-7.0847-3.3607-10.823 2.3082 6.31-0.51233 13.025 0.81052 18.766z" stroke-width=".0125"/>
    <path d="m107.36 14.494c-0.30717 0.02846-0.25291 0.38998-0.14432 0.58169 2.8125 5.2906 0.0798 9.6018-2.8667 13.821-1.6494 2.4252-2.9836 5.157-3.35 8.0953-0.46549 4.0747 2.2062 7.621 6.4498 7.237 1.6535-0.48434 5.6155-1.3401 4.605-3.3843-1.1714-3.4132-3.4077-5.9294-4.1439-9.5614-2.0396 5.1486 2.3117-5.7428 2.2734-9.5845-0.0565-2.5434-1.1176-4.9573-2.5352-7.0293-0.0713-0.08908-0.16485-0.1798-0.28804-0.17574z" stroke-width=".0088388"/>
    <path d="m143.64 48.481c-0.96402 0.49328-1.8925 1.1158-2.9465 1.4443-1.6433 0.59944-3.5152 0.93414-4.6941 2.3506-2.1451 2.2147-3.5928 5.0302-5.9705 7.0363-2.1429 1.9376-4.7661 3.4223-7.5554 4.1445-0.0611-0.38672-0.4885-0.3391-0.70142-0.20972-2.1871-1.9194-3.0605-4.8179-3.8877-7.4988-0.0699-0.5801-0.66419-0.48289-1.0769-0.63257-0.54561 0.21609 0.0512 0.91489 0.0826 1.3184 0.50821 1.8008 1.5326 3.5245 1.3512 5.4567 0.031 1.8367-1.5085 3.1313-2.394 4.593-1.1233 1.5809-1.8097 3.4725-1.7564 5.4268-0.13818 2.7696-0.526 7.6111-1.6131 10.251-0.29924 0.57085 1.452-1.1709 1.6339-1.6904 0.66666-1.5967 1.2765-3.2508 1.623-4.9456-0.61569-1.8332-0.72223-3.8157-0.24438-5.6956 0.61746-1.9368 2.433-3.1879 4.304-3.7389 3.4111-1.2808 7.1754-2.1404 9.9332-4.6979 3.1651-2.6712 5.7868-6.0036 9.3928-8.1296 1.7979-1.2159 4.3298-3.437 5.3336-5.4359 0.0381-0.1686-0.6391 0.63094-0.81402 0.65294z" stroke-width=".025"/>
    <g stroke-width=".0125">
     <path d="m113.54 50.459c-0.25714-0.04748-0.6821 0.15354-0.45849 0.45374 0.57128 0.42125 1.2753 0.66996 1.7448 1.2308 0.54211 0.54527 0.86754 1.2579 1.2522 1.9044 0.35754 0.18194 0.7941 0.28594 1.1994 0.3313 0.4002-0.17661 0.0381-0.62984-0.0519-0.89685-0.59434-1.3233-1.6042-2.6392-3.0959-2.9601-0.19312-0.04456-0.39163-0.07119-0.59015-0.06326z"/>
     <path d="m125.22 69.708c-0.39375 0.1458-0.43449 0.67449-0.6416 0.99219-0.24374 0.68789-0.79084 1.3684-0.62268 2.1351 0.16091 0.38831 0.28774 0.85294 0.62451 1.1245 0.40478 0.07223 0.55454-0.45628 0.75977-0.70947 0.39609-0.71054 0.80587-1.5812 0.48291-2.3964-0.15155-0.36138-0.17207-0.81185-0.43702-1.1089-0.049-0.03036-0.10848-0.04399-0.16589-0.03711z"/>
     <path d="m101.01 67.219c-0.40544 0.12344-0.25479 0.67145-0.31217 0.9907-0.0371 1.1484 0.0984 2.327 0.51603 3.4004 0.13103 0.29644 0.52059 0.16758 0.58179-0.11145 0.32094-0.64913 0.69802-1.296 0.91508-1.979-0.38276-0.71528-0.87236-1.408-1.3381-2.0873-0.0859-0.11322-0.20602-0.23569-0.36267-0.21338z"/>
    </g>
    <path d="m122.19 156.69c-0.467 0.24891-0.48242 0.92163-0.72379 1.3494-1.1068 2.8828-1.5988 5.9846-1.6477 9.0584 1.8738 3.4894 2.6546 7.4503 2.683 11.388 0.0697 6.3349-0.56976 12.64-1.1001 18.947-0.75266 8.6781-1.7939 17.337-2.2938 26.037-0.27992 5.7007-0.0652 11.42-0.11247 17.117-0.10646 1.7497-0.48045 3.7098-1.8878 4.8963-0.53043 0.47887-1.2449 0.60692-1.9216 0.70141-0.45249 0.34405 0.0457 0.9362 0.14174 1.3476 0.79785 1.9652 1.6592 3.9331 2.8458 5.6968 0.41925 0.25892 0.75971-0.36586 1.0824-0.55295 1.8522-1.6742 3.2665-3.8485 4.0032-6.2362-0.0814-0.492-0.72201-0.19919-1.0429-0.41743-1.3314-0.61653-1.7251-2.2544-1.8444-3.5873-0.0986-5.6299 6e-3 -11.262 3.3e-4 -16.893 0.0231-4.9175-0.0578-9.8467 0.61022-14.723 0.80373-6.417 1.5295-12.848 1.8608-19.309 0.33175-5.1244 0.42845-10.264 0.87359-15.375 0.3658-3.8254 1.4894-7.5661 3.6232-10.784 0.44645-0.80113 1.1006-1.4657 1.5612-2.2505 2e-3 -0.56798-0.56781-0.96983-0.84786-1.4252-1.6035-1.9812-3.5343-3.7346-5.7638-4.9809-0.0311 0.0472-0.0666-0.0141-0.0993-4e-3z" stroke-width=".017678"/>
    <path d="m107.73 158.04c-0.39067 0.0971-0.21293 0.61366-0.28674 0.90625-0.094 1.8009-0.24543 3.7194 0.60071 5.3821 0.90367 1.8247 2.1975 3.4306 2.9322 5.337 1.3105 3.2629 1.919 6.7588 2.8016 10.154 1.2711 5.0954 2.5178 10.198 3.9038 15.264 0.043 0.35895 0.60798 0.36929 0.59656-0.0204 0.1076-1.0915-0.31968-2.1441-0.51804-3.2022-0.96757-4.1405-2.0489-8.2645-2.913-12.421-0.40756-2.159-0.51772-4.4368 0.11492-6.5642 0.73796-2.5423 2.0164-4.9224 3.3975-7.1803 0.29415-0.44913-0.26141-0.79473-0.50449-1.0986-2.3365-2.5695-5.2424-4.6006-8.4437-5.9427-0.55239-0.21323-1.095-0.51384-1.6812-0.6144z" stroke-width=".0125"/>
    <path d="m136.13 96.034c-3.5698-0.16548-6.9948 0.71529-8.4696 1.1032 0.0597 1.1484-4.593 8.2538-4.2665 9.3704 6.16 1.2338 13.644-6.506 12.736-10.474z" stroke-width=".025"/>
    <path d="m96.94 97.145c-0.3214 3.842 1.7335 8.4669 3.9906 10.939 0.14047-1.3207-0.52732-7.068-1.0938-9.2572-0.92134-0.80222-1.9939-1.4066-2.8968-1.6816z" stroke-width=".0088388"/>
   </g>
   <g stroke="#000">
    <path d="m120.14 173.33c-1.7415 14.663-0.93141 29.397-2.7698 42.926-0.31137 4.3753-2.81 7.5352-3.6626 11.357 1.2991 2.7308 1.3067 5.8681 0.63916 8.7631-0.65346 3.294-0.48121 5.9826 0.23782 8.8586 2.2984 0.59429 3.2935-2.0706 3.5527-3.7927-0.16224-11.723 0.64982-24.366 1.6384-34.949 0.94279-10.889 3.6863-22.941 1.3457-33.682-1.1707-3.7939-0.85708-2.0762-0.98146 0.51958z" fill="url(#linearGradient2557)" stroke-width=".017678"/>
    <path d="m118.46 167.12c-6.1301 8.7404-2.0671 16.347-0.27898 22.665 0.62902-7.2504 2.0425-15.683 0.56993-22.488-0.0297-0.13121-0.16752-0.19608-0.29097-0.17713z" fill="url(#linearGradient2565)" stroke-width=".0088388"/>
    <path d="m97.655 127.63c-0.34163 0.25221-0.24972 0.77387-0.35093 1.1453-3.0861 14.036 8.8536 18.342 10.1 28.163 3.1231 2.7995 7.5722 4.4147 11.078 6.9336 0.85472-5.4438 1.1194-11.909 0.25586-16.774-2.3923-0.71094-4.8346-2.0408-6.2429-3.8778-6.7244-9.1952-12.6-6.6492-14.53-15.461-0.05585-0.1109-0.19185-0.17187-0.31042-0.12891z" fill="url(#linearGradient2581)" stroke-width=".0125"/>
    <path d="m99.424 107.91c-1.7278 14.036-1.968 22.26 2.6097 25.708 2.9665 4.4407 2.0002 0.21624 13.21 11.291 0.86907 0.60484 1.8783 1.1124 2.9487 1.1713 0.412-5.4229-0.84603-23.974-2.0467-21.74-10.978-0.84068-9.3448-11.905-16.635-16.435l-0.06238 4e-3z" fill="url(#linearGradient2397)" stroke-width=".0125"/>
    <path d="m97.954 110.11c-1.8054 2.2599-0.79416 0.66498-2.0243 0.87873-0.5818 1.7655-0.36884 3.6281 0.8766 4.6644 1.7446-0.13082 1.3414-3.6768 1.2161-5.5422-0.0235-7e-3 -0.04808-6e-4 -0.06837-8.6e-4z" fill="url(#linearGradient2453)" stroke-width=".003125"/>
    <g stroke-width=".025">
     <path d="m100.89 100.16c-1.3946 3.4165 1.2888 8.686 2.9875 11.622 1.333 0.6022-0.86337-5.7152 0.32502-6.1523 0.0515-2.0739-2.0816-4.4961-3.3126-5.4698z" fill="#ff8080"/>
     <path d="m126.85 97.661c-2.7722 1.3078-5.2685 2.5248-8.2625 7.4034-0.13573 1.7584-0.39176 0.43021-1.5784 7.9619 5.6452-6.8864 5.853-6.8915 9.8408-15.365z" fill="#ff8080"/>
     <path d="m127.73 88.477c-2.1372 2.4829-4.9868 5.6382-7.5212 12.639 5.664-3.5079 6.2407-3.904 8.4455-5.1365 0.0515-2.0739-0.63531-3.8871-0.92434-7.5027z" fill="url(#linearGradient2405)"/>
     <path d="m105.15 93.618c-2.2373 3.5993-3.1774 7.3979-0.97939 9.6192 1.5526-5.662 1.3836-7.7381 0.97939-9.6192z" fill="url(#linearGradient2413)"/>
     <path d="m102.62 82.599c-1.2717 1.072-3.8121-4.5807-5.2869-4.1927-4.4039 0.61808 0.32926 19.207 4.7217 21.694 1.333 0.6022 2.3516-5.4066 2.1258-6.4623 0.0515-2.0739-0.8296-9.7213-1.5606-11.039z" fill="url(#linearGradient2621)"/>
     <path d="m100.91 73.318c-1.2717 1.072-2.9015-0.16182-3.6692 2.48 0.0597 1.1484 2.8041 4.8883 4.6333 5.9165 1.333 0.6022 2.8417-0.16551 3.7649-1.7074-2.556-1.4552-3.998-5.3716-4.729-6.6891z" fill="#ff8080"/>
     <path d="m106.21 81.897c0.0106 1.1602-0.18407 2.1274 1.1906 2.6804-0.0568-0.87989-0.89169-2.6486-1.1906-2.6804z" fill="#ffb380"/>
    </g>
    <path d="m108.41 85.54c-0.80249 0.52508-1.3774-0.04953-1.9741-0.42986-0.24773 12.909-8.4926 34.375 9.1556 38.652 0.16319-1.2126 0.0537-2.4815 0.111-3.7159-0.0391-11.224 3.911-22.817 10.659-31.256 2.0052-2.5381 4.4985-4.5925 6.3048-8.1648-2.8427 1.0567-7.1093 5.448-10.042 6.2937-0.90551-2.0252 3.9755-5.6429 5.3763-6.8392 0.37771-0.33371-0.15101-0.62188-0.45799-0.675 1.022-2.8208 1.3408-6.0408 0.22425-8.8834-0.31467-0.59593-0.65597-1.3171-1.3044-1.5927-0.55692 0.03516-0.21581 0.7462-0.13004 1.0413 0.037 7.136-4.1322 5.5517-1.784-1.1428-0.10938-0.51444-0.67197-0.08975-0.91547 0.08597-1.4355 0.92335-1.6973 2.7155-2.2829 4.1817-0.41549 3.4268-0.74168-2.6786-8.3777 10.518-1.6448-5.0343-6.1346-5.3924-7.4356-8.3423-0.55214-1.3405-0.0683-2.7849 0.28936-4.1037 0.32386-1.7655-0.67489-2.5456-1.6298-2.9638-6.6216 9.6446 3.8759 11.61 4.2137 17.337z" fill="url(#linearGradient2589)" stroke-width=".017678"/>
   </g>
   <g fill="#ffb380" stroke="#000">
    <path d="m115.89 19.446c-2.8185 0.63001-3.9253 3.3262-5.4 3.7141 0.0597 1.1484-2.4919 7.8969-0.79532 10.737 2.5527-8.8813 5.1181-11.133 6.1954-14.451z" stroke-width=".025"/>
    <path d="m178.72 15.699c-0.35222 0.01497-1.3791-0.07619-1.0535 0.54102 11.012 7.1415 12.129 12.4 6.5383 26.926-3.148 6.6508-8.4503 24.092 2.5084 47.187-3.0778-15.56-6.4825-33.28 1.5431-46.517 4.6208-7.4864 8.2678-11.512 5.7102-18.305-3.974-6.4708-3.3963-8.9714-15.247-9.8315z" stroke-width=".025"/>
    <path d="m155.3 32.141c9.7685 4.8409 14.541 3.8237 14.808 16.378 0.10605 3.0983-0.44365 8.3879-0.71688 11.467 3.2708-8.5726 5.4642-20.815-1.6243-26.921-3.667-0.96398-9.2101-1.4273-12.467-0.9248z" stroke-width=".017678"/>
   </g>
   <g stroke="#000">
    <g stroke-width=".017678">
     <path d="m136.34 44.089c-0.83137 0.06241-1.9124 2.73e-4 -2.4509 0.76252-1.0798 1.5428-1.4291 3.878-1.3615 5.0272 4.3754-3.9319-6.4726 6.3446-9.0402 8.3243-0.4138-1.1019-0.74494-2.2536-1.2097-3.3248-0.65668 0.07176-1.1988 0.12394-1.6829-0.05747-2.2282-2.7188-2.4722-4.7441-3.78-7.6257-1.8956 0.89187-4.1321 1.4478-6.4465 1.5891 1.4495 1.341 2.9928 0.65531 4.133 1.0601 5.1956 2.4651 3.4443 9.345 7.9437 12.814 7.6615-1.1477 11.173-10.774 15.485-12.619 3.2163-1.0514 5.4169-2.0487 7.0053-4.5877-0.29921-0.34998-0.80676 0.08178-1.208 0.04277-2.7435 0.63631-5.0172-1.4714-7.3871-1.4055z" fill="url(#linearGradient2525)"/>
     <path d="m141.18 36.585c-4.159 1.2133-4.281 1.5812-5.1287 3.0546 1.8949-0.08348 4.6628-0.52114 6.5315-0.0033 1.6659 0.46375 2.9577 1.9747 3.0787 3.718 0.0939 0.43543-0.15572 1.2722 0.53489 1.2038 8.4067-1.8215-0.0616-8.583-5.0164-7.9731z" fill="url(#linearGradient2533)"/>
     <path d="m145.68 27.827c-0.30581 2.1561-1.5697 4.9065-2.6626 6.7718 5.2801-3.1213 15.426-2.9174 23.19-2.8746-6.8155-4.5962-13.926-4.6718-20.527-3.8972z" fill="url(#linearGradient2501)"/>
     <path d="m163.35 7.4927c-9.1132 0.056118-18.395 2.0965-26.193 6.9475-0.92007 0.6183-1.9143 1.159-2.7412 1.8981-0.14328 0.50719 0.5839 0.40565 0.88699 0.46663 4.1081 0.18928 8.1558 2.661 9.789 6.5063 0.10967 0.64158 0.66355 0.35048 1.0505 0.17869 7.6751-2.7594 15.609-4.6943 23.449-6.926 2.6518-0.68555 5.3237-1.4689 8.0767-1.572 2.2036-0.03293 4.4654-0.11857 6.573 0.61951 4.3718 1.3049 8.0848 4.5676 10.063 8.6527 2.4334 5.2025-0.2003-3.5594-1.0891-5.3539-1.8055-3.4033-4.9084-5.9848-8.3591-7.6147-5.0692-2.3883-10.709-3.1736-16.241-3.6271-1.7515-0.1271-3.5079-0.18674-5.264-0.17563z" fill="url(#linearGradient2477)"/>
     <path d="m112.8 42.336c-2.0475 2.1254-4.4165 2.7937-7.1276 2.6338-8.8038 6.3514-15.693 9.3733-21.636 14.539-3.8097 3.6847-6.981 9.9467-2.779 13.888 3.6512 2.5768 7.7825 2.8037 11.135-0.44409-8.7302 0.93758-11.603-5.9056-5.6491-11.113 8.8844-7.8708 19.517-11.311 28.044-17.246-0.13882-0.98001-1.1998-1.7152-1.8272-2.3233l-0.0819 0.03325z" fill="url(#linearGradient2493)"/>
    </g>
    <path d="m121.48 6.3794c-1.2717 1.072 3.0221 3.5921 6.5474 12.543 3.9972-1.6641 2.8949-1.5058 5.0964-2.2017 1.333 0.6022 0 0 5.1909-4.2247 0.0515-2.0739-4.1037-9.6112-16.835-6.1162z" fill="url(#linearGradient2485)" stroke-width=".025"/>
    <path d="m120.17 6.9373c-4.7293 2.7798-8.0461 9.4632-8.9432 13.922 1.254 0.18066 3.5789-1.2298 5.3663-1.4146-2.9471 3.8884-4.4131 7.5721-5.5415 11.944 0.87931 1.7879 2.468 3.2012 4.2872 3.5977 9.0356-6.8928 9.7655-13.812 7.5833-22.459-0.52871-1.9431-1.3787-3.8028-2.4865-5.4822-0.066-0.074719-0.16593-0.11664-0.26563-0.10791z" fill="url(#linearGradient2469)" stroke-width=".0125"/>
    <path d="m131.93 47.023c-5.9563 2.5746-5.4227 3.6191-8.9725 7.474 0.0597 1.1484 0.63862 1.6621 0.96516 2.7787 1.333 0.6022 2.8377-2.4897 8.1804-7.6998 0.0515-2.0739 0.0276-2.0751-0.17303-2.5529z" fill="url(#linearGradient2461)" stroke-width=".025"/>
    <path d="m133.13 38.935c-2.7743 4.6075-4.5367 6.9534-5.7021 7.474-0.38224 1.1926-0.95237 2.6344-0.62583 3.751 7.9622-4.0824 8.2736-11.373 9.462-11.81 0.0515-2.0739-1.696-0.13056-3.134 0.58486z" fill="url(#linearGradient2517)" stroke-width=".025"/>
    <path d="m128.59 36.979c-0.59788 1.0571-1.7768 1.9786-2.1398 2.9905-1.7426 2.9116 0.83341 2.9566-5.1109 11.549-1.5696-0.70191-1.3484-3.0572-3.7331-4.7471 0.19094 2.7792 2.0265 5.3521 3.4499 7.44 2.6933-0.53884 4.9288-4.2097 5.23-6.3572 0.10888-0.80245 0.12858-1.7534 0.81824-2.3059 3.4824-1.1518 3.6099-2.5625 5.4668-7.2665-1.3432-0.09745-2.7505-0.53644-3.7714-1.2811-0.0628-0.04726-0.13814-0.0179-0.20966-0.02175z" fill="url(#linearGradient2509)" stroke-width=".0088388"/>
   </g>
   <g fill="#fff">
    <path d="m142.39 58.274c-1.2205 0.34241-1.7719 1.6201-1.5807 2.6228 0.14951 0.78394 1.4302 0.80944 1.9038 1.4518 0.67746 0.91897 0.50645 3.0853 1.1784 3.216 0.93369 0.18166 1.3751-0.9268 1.4633-3.6181 0.0332-1.0116-0.0484-2.2049-0.73852-2.9452-0.53235-0.57103-1.4746-0.93825-2.2262-0.72737z" fill-opacity=".098039" style="paint-order:normal"/>
    <g fill-opacity=".19608">
     <path d="m144.49 60.386c-0.26279 0.46834-0.68308-0.18099-0.62167-0.3775 0.10556-0.33778 0.73381 0.17764 0.62167 0.3775z" style="paint-order:normal"/>
     <path d="m143.18 61.044c-0.24125 0.0517-0.43852-0.61094-0.12379-0.65519 0.39703-0.05587 0.31619 0.61401 0.12379 0.65519z" style="paint-order:normal"/>
     <path d="m144.14 63.162c0.15038 0.0048 0.15028 0.4729-0.0104 0.47454-0.14751 0.0011-0.1346-0.47952 0.0104-0.47454z" style="paint-order:normal"/>
    </g>
    <path d="m144.07 63.734c-0.38698 0.04729-0.26435 1.0744 0.0372 1.0572 0.3231-0.01808 0.32498-1.1014-0.0372-1.0572z" style="paint-order:normal"/>
    <path d="m144.13 60.535c0.59943-0.09117 0.83094 1.4418 0.25883 1.5204-0.74976 0.103-1.1638-1.3828-0.25883-1.5204z" style="paint-order:normal"/>
    <path d="m142.81 64.857c0.25335 0.4857-0.54945 0.9472-0.81669 0.37319-0.15069-0.32366 0.61741-0.75522 0.81669-0.37319z" fill-opacity=".19608" style="paint-order:normal"/>
    <path d="m134.42 112.44c0.86576 2.863 2.9206 9.4061 2.9206 9.4061s-0.94575-5.8332-2.0447-9.4941c-1.2232-4.0748-2.9386-8.2166-2.9386-8.2166 0.91657 3.7111 1.3692 6.1223 2.0627 8.3046z" fill-opacity=".58824" style="paint-order:normal"/>
    <path d="m131.48 104.65c0.26453 0.59577 0.93178 1.2971 1.2017 2.0382 0.55859 1.5334 2.2451 4.6341 0.76164 13.183 0.34631-4.8041-1.3526-9.0987-1.8444-10.68-0.89927-2.8913 0.0945-3.9589-0.11892-4.5415z" fill-opacity=".19608" style="paint-order:normal"/>
    <path d="m131.48 104.65c0.26453 0.59577 0.93178 1.2971 1.2017 2.0382 0.55859 1.5334 0.54528 4.0877 0.87456 6.2644-0.44041-2.169-1.2022-4.5512-1.6315-6.1506-0.18987-0.70746-0.23142-1.5694-0.4448-2.152z" style="paint-order:normal"/>
    <path d="m147.01 89.964s1.5074 6.6882 2.4618 9.8445c0.86576 2.863 1.146 10.447 1.146 10.447s0.54765-6.9052-0.55134-10.566c-0.7894-1.9662-1.586-7.7616-3.0564-9.7252z" fill-opacity=".58824" style="paint-order:normal"/>
    <path d="m147.21 95.776c0.26453 0.59577 0.93178 1.2971 1.2017 2.0382 0.55859 1.5334 2.2451 4.6341 0.76164 13.183 0.34631-4.8041-1.3526-9.0987-1.8444-10.68-0.89927-2.8913 0.0945-3.9589-0.11892-4.5415z" fill-opacity=".19608" style="paint-order:normal"/>
    <path d="m147.21 95.776c0.26453 0.59577 0.93178 1.2971 1.2017 2.0382 0.55859 1.5334 0.54528 4.0877 0.87456 6.2644-0.44041-2.169-1.2022-4.5512-1.6315-6.1506-0.18987-0.70746-0.23142-1.5694-0.4448-2.152z" style="paint-order:normal"/>
    <path d="m130.59 176.72c0.12643 2.9884-0.77459 9.0311-0.77459 9.0311s1.5341-5.1795 1.3802-8.9988c-0.17126-4.251-1.3702-9.0224-1.3702-9.0224 0.65824 4.506 0.61445 6.7228 0.76458 8.9901z" fill-opacity=".58824" style="paint-order:normal"/>
    <path d="m130.4 174.28c0.0275 0.27977 0.079 0.6732 0.12472 1.1322-0.0452-0.44167-0.0951-0.83123-0.12472-1.1322zm0.17368 1.6884c0.0131 0.2328 0.0235 0.47273 0.0234 0.75075-3e-3 -0.26369-9e-3 -0.52309-0.0234-0.75075zm-1.8451 0.46687c0.083 1.6539 0.6604 6.2362-0.86994 10.803 1.0972-2.4362 1.7726-4.4435 2.1804-6.107-0.60897 2.7336-1.8293 6.4535-4.2186 11.599 2.9407-6.9178 2.9912-14.641 2.9082-16.295z" fill-opacity=".098039" style="paint-order:normal"/>
    <path d="m129.74 172.01c0.10803 0.64284 0.57986 1.4881 0.65701 2.273 0.15963 1.6241 1.022 5.0468-2.5414 12.958 1.5303-4.567 0.95298-9.1492 0.86994-10.803-0.15185-3.0242 1.0762-3.811 1.0144-4.4283z" fill-opacity=".19608" style="paint-order:normal"/>
    <path d="m129.74 172.01c0.10803 0.64284 0.57986 1.4881 0.65701 2.273 0.15963 1.6241-0.48859 4.0949-0.71106 6.2851 0.11292-2.2104-0.0324-4.7072-0.0504-6.3631-8e-3 -0.73245 0.16621-1.5776 0.10444-2.195z" style="paint-order:normal"/>
    <path d="m156.19 8.81c22.204-1.154 25.506 1.5819 25.506 1.5819s-11.372-4.9728-33.074-0.9943c-5.057 0.92706-6.8736 2.442-13.994 6.805 3.7889-1.9573 12.008-6.1775 21.563-7.3926z" fill-opacity=".58824" style="paint-order:normal"/>
    <path d="m162.75 10.067c1.0173-0.14286 2.3688-0.85021 3.6086-0.93837 2.5653-0.18244 7.9937-1.3954 20.305 4.5542-7.1293-2.6048-14.372-1.8901-16.981-1.8296-4.7704 0.11067-5.9577-1.8573-6.9328-1.7862z" fill-opacity=".19608" style="paint-order:normal"/>
    <path d="m162.75 10.067c1.0173-0.14286 2.3688-0.85021 3.6086-0.93837 2.5653-0.18244 6.4298 0.9437 9.8706 1.3873-3.4772-0.27184-7.4166-0.149-10.026-0.19108-1.1542-0.01863-2.4782-0.32888-3.4533-0.25781z" style="paint-order:normal"/>
    <path d="m124.61 6.9139c-0.91679 1.6737-0.12275 3.6123 1.1574 4.4624 1.0008 0.66463 2.3769-0.68642 3.5666-0.51947 1.702 0.2388 3.8526 2.7039 4.7008 2.1186 1.1786-0.81324 0.4508-2.4553-2.3518-5.3841-1.0534-1.1009-2.4231-2.2696-3.9462-2.3067-1.1749-0.028552-2.5622 0.59849-3.1268 1.6292z" fill-opacity=".098039" style="paint-order:normal"/>
    <g fill-opacity=".19608">
     <path d="m129.1 6.8763c0.22707 0.77591-0.914 0.54433-1.0608 0.27133-0.25226-0.46924 0.96382-0.60243 1.0608-0.27133z" style="paint-order:normal"/>
     <path d="m128.43 8.9722c-0.19841 0.31399-1.119-0.17153-0.83525-0.55673 0.35797-0.48599 0.99354 0.30637 0.83525 0.55673z" style="paint-order:normal"/>
     <path d="m131.72 10.169c0.16352-0.15674 0.66703 0.33627 0.49959 0.51088-0.15414 0.15986-0.65763-0.36012-0.49959-0.51088z" style="paint-order:normal"/>
    </g>
    <path d="m132.26 10.854c-0.3566 0.46613 0.87753 1.4157 1.1765 1.0731 0.32078-0.36666-0.84278-1.5094-1.1765-1.0731z" style="paint-order:normal"/>
    <path d="m128.88 7.4227c0.5331-0.74091 2.4261 0.62419 1.9083 1.3225-0.67868 0.9151-2.7132-0.20398-1.9083-1.3225z" style="paint-order:normal"/>
    <path d="m132.14 13.39c0.78932 0.23886 0.4405 1.5885-0.45846 1.2716-0.50688-0.17869-0.16238-1.4595 0.45846-1.2716z" fill-opacity=".19608" style="paint-order:normal"/>
    <path d="m111.63 30.467s0.91363-3.0543 1.6586-4.9833c0.67575-1.7498 4.7902-6.3301 4.7902-6.3301s-4.2622 3.9253-5.1303 6.1598c-0.96622 2.487-1.6622 6.0286-1.6622 6.0286z" fill-opacity=".58824" style="paint-order:normal"/>
    <path d="m113.52 27.405c0.0543-0.16774 0.12317-0.40684 0.21184-0.68221-0.0846 0.26526-0.15347 0.50174-0.21184 0.68221zm0.323-1.0143c0.0508-0.13714 0.10488-0.27769 0.17459-0.4375-0.0642 0.15241-0.12608 0.30289-0.17459 0.4375zm1.1778 0.19368c0.36648-0.97174 1.1822-3.7509 3.2059-5.9935-1.241 1.1259-2.1321 2.1109-2.7831 2.9652 1.0348-1.4192 2.6681-3.2523 5.3304-5.6121-3.4234 3.241-5.3867 7.6686-5.7531 8.6404z" fill-opacity=".098039" style="paint-order:normal"/>
    <path d="m113.33 28.877c0.0989-0.39666 0.0393-1.0008 0.19154-1.4714 0.31498-0.9738 0.67642-3.1577 4.7067-6.8141-2.0237 2.2425-2.8394 5.0217-3.2059 5.9935-0.67011 1.7768-1.5733 1.9216-1.6923 2.292z" fill-opacity=".19608" style="paint-order:normal"/>
    <path d="m113.33 28.877c0.0989-0.39666 0.0393-1.0008 0.19154-1.4714 0.31498-0.9738 1.3065-2.232 1.983-3.4356-0.61854 1.2426-1.1603 2.7146-1.5647 3.6711-0.17889 0.42312-0.4907 0.86545-0.60979 1.2359z" style="paint-order:normal"/>
    <path d="m123.83 66.307c-0.68324 1.0677-0.24466 2.3884 0.56529 3.0097 0.63324 0.48572 1.6063-0.34745 2.3872-0.18302 1.1172 0.23521 2.431 1.9661 3.0195 1.6166 0.81787-0.48567 0.40977-1.6068-1.3152-3.6745-0.64832-0.77721-1.5032-1.6137-2.511-1.7071-0.77736-0.07204-1.7251 0.2808-2.1459 0.93837z" fill-opacity=".098039" style="paint-order:normal"/>
    <g fill-opacity=".19608">
     <path d="m126.81 66.485c0.11546 0.52447-0.63034 0.31942-0.71526 0.13186-0.14596-0.32238 0.66598-0.35567 0.71526-0.13186z" style="paint-order:normal"/>
     <path d="m126.27 67.844c-0.14569 0.19912-0.73387-0.16427-0.52837-0.40672 0.2592-0.30589 0.64459 0.24796 0.52837 0.40672z" style="paint-order:normal"/>
     <path d="m128.4 68.785c0.11545-0.09648 0.42684 0.25301 0.30799 0.36116-0.10938 0.09897-0.41955-0.26839-0.30799-0.36116z" style="paint-order:normal"/>
    </g>
    <path d="m128.72 69.264c-0.25741 0.2928 0.51754 0.97789 0.7312 0.7644 0.22915-0.22849-0.4903-1.0384-0.7312-0.7644z" style="paint-order:normal"/>
    <path d="m126.64 66.837c0.3868-0.46692 1.5796 0.52335 1.2049 0.96273-0.49115 0.57578-1.7889-0.25785-1.2049-0.96273z" style="paint-order:normal"/>
    <path d="m128.53 70.939c0.51231 0.19399 0.22012 1.0727-0.36132 0.82201-0.32785-0.14134-0.0416-0.97458 0.36132-0.82201z" fill-opacity=".19608" style="paint-order:normal"/>
    <path d="m104.14 66.901c-0.76349 1.0119-0.42798 2.3625 0.33169 3.0443 0.59393 0.53307 1.6282-0.22264 2.3942 0.0015 1.0958 0.3206 2.2723 2.1476 2.886 1.8445 0.85286-0.42121 0.53236-1.5705-1.0281-3.7649-0.5865-0.82486-1.3744-1.7247-2.372-1.8955-0.76949-0.13173-1.7416 0.14704-2.2118 0.77023z" fill-opacity=".098039" style="paint-order:normal"/>
    <g fill-opacity=".19608">
     <path d="m107.09 67.308c0.0747 0.5318-0.65307 0.2699-0.72329 0.07636-0.12068-0.33267 0.69141-0.3033 0.72329-0.07636z" style="paint-order:normal"/>
     <path d="m106.45 68.622c-0.1606 0.1873-0.71903-0.22033-0.49546-0.44623 0.282-0.28501 0.62357 0.29689 0.49546 0.44623z" style="paint-order:normal"/>
     <path d="m108.5 69.724c0.12254-0.0873 0.40608 0.28515 0.27925 0.38382-0.11668 0.09025-0.39762-0.29992-0.27925-0.38382z" style="paint-order:normal"/>
    </g>
    <path d="m108.79 70.226c-0.2792 0.27209 0.44066 1.0149 0.67013 0.81847 0.24608-0.21015-0.40882-1.0731-0.67013-0.81847z" style="paint-order:normal"/>
    <path d="m106.9 67.646c0.42163-0.43572 1.5346 0.64352 1.1271 1.0527-0.53406 0.53622-1.7637-0.39492-1.1271-1.0527z" style="paint-order:normal"/>
    <path d="m108.47 71.882c0.49584 0.23288 0.13681 1.0865-0.42359 0.79172-0.31598-0.16618 0.0336-0.9749 0.42359-0.79172z" fill-opacity=".19608" style="paint-order:normal"/>
    <path d="m128.41 213.42s1.3247 1.9548 2.0962 3.3836c1.2057 2.2331 0.10665 5.0242 0.10665 5.0242s1.3594-1.3936 0.53774-5.6231c-0.2831-1.4574-2.5196-2.7184-2.5196-2.7184z" fill-opacity=".58824" style="paint-order:normal"/>
    <path d="m127.76 212.55c-0.46712-0.0523-2.1594 0.83034-3.4187 0.40387 1.6391 0.82441 2.8092 0.10955 3.7406 0.0953z" fill-opacity=".58824" style="paint-order:normal"/>
    <path d="m129.71 216.12c-1.4841-1.0957-4.0971 2.0697-1.6807 3.6601 1.3402 0.88208 3.5516-2.2788 1.6807-3.6601z" fill-opacity=".19608" style="paint-order:normal"/>
    <path d="m129.71 216.12c-0.6412-0.12201-0.34176 1.5726 0.0403 1.5813 0.53134 0.0121 0.60753-1.4581-0.0403-1.5813z" style="paint-order:normal"/>
    <path d="m106.08 96.107s-0.0139 2.4742-0.21549 3.4303c-0.1748 0.82854-0.77787 3.9367-0.77787 3.9367-0.0607-2.0697 0.7224-7.0464 0.99336-7.3669z" fill-opacity=".58824" style="paint-order:normal"/>
    <path d="m111.57 121.44c-0.44482 0.33279-5.9247-7.0673-5.8238-7.8022 0.0504-0.36762 0.18015-1.895 0.64738-1.9242 0.11135-7e-3 1.0807 2.2346 1.8467 3.6299 1.5683 2.8569 3.4272 6.0236 3.3297 6.0966z" fill-opacity=".098039" style="paint-order:normal"/>
    <path d="m113.19 101.5c0.24808 1.8122-2.4034 4.7426-2.8238 4.7048-0.68788-0.0619-1.4081-3.4172-1.7847-5.3864-0.46181-2.4144 0.23182-4.0692 0.40619-6.1791 0.19442-2.3526-0.48731-4.7166-0.35013-7.0733 0.1025-1.761 0.88555-4.8361 1.7041-4.9189 0.49983-0.05051 1.798 1.8054 2.0673 2.9856 0.32936 1.4435-2.2758 5.9153-2.3475 9.0219-0.029 1.2576 0.26294 2.5457 0.78071 3.6921 0.53938 1.1943 2.253 2.46 2.3479 3.1533z" fill-opacity=".098039" style="paint-order:normal"/>
    <g fill-opacity=".19608">
     <path d="m107.36 104.09c0.0215 0.43455-0.51897 2.1091-0.45887 4.0288-0.15844-0.95022-0.10972-2.3262-0.092-4.0013 0.0119-1.1216-0.20592-2.1776-0.18643-3.0337 0.0195 0.85951 0.71748 2.6076 0.73727 3.0063z" style="paint-order:normal"/>
     <path d="m110.02 101c-0.83363-0.80406-0.88521-1.4059-0.92423-1.9924-0.0358-0.53756-0.16929-1.9552 0.57954-4.3901-0.10395 2.2342 0.61775 3.8699 0.68811 4.4309 0.0704 0.56105 0.15439 1.0273-0.34343 1.9516z" style="paint-order:normal"/>
     <path d="m110.09 101.48c0.29117-0.0543 0.43298 0.66158 0.13138 0.71827-0.2623 0.0493-0.41401-0.66552-0.13138-0.71827z" style="paint-order:normal"/>
    </g>
    <path d="m107.36 104.09c0.0215 0.43455-0.39178 0.97382-0.3514 1.8396 0.0275-0.82281-0.40639-1.6354-0.0196-3.0455 0.0713 0.44203 0.35117 0.8073 0.37096 1.206z" style="paint-order:normal"/>
    <path d="m106.36 85.039c0.17237 1.9665-0.0827 2.0304-0.0213 3.2124 0.0616 1.1876 0.33331 2.1256 0.39064 3.8844-0.0605-1.7405 0.20031-2.7265 0.13085-3.9648-0.0638-1.1375-0.32779-1.1655-0.50016-3.132z" fill-opacity=".58794" style="paint-order:normal"/>
    <path d="m110.35 98.939c0.0843 0.6724-0.18444 1.8751-0.35788 1.9322-0.13375 0.044-0.85683-1.2752-0.89585-1.8617-0.0358-0.53756 0.0701-1.5946 0.22164-1.6301 0.15154-0.0354 0.97568 1.1099 1.0321 1.5596z" style="paint-order:normal"/>
    <path d="m109.98 86.342c0.52532-0.0051 0.68197 0.99107 0.65261 1.2417-0.03 0.25562-0.45701 0.80629-0.74151 0.60494-0.32181-0.22776-0.46481-1.8412 0.0889-1.8466z" style="paint-order:normal"/>
   </g>
   <g fill="none" stroke="#000" stroke-width="1px">
    <path transform="matrix(1.1516 0 0 1.1516 -17.15 5.0102)" d="m110.97 22.92c0.38174 0.93542 1.0135 1.7675 1.812 2.3865 0.70978 0.55026 1.5494 0.9319 2.4307 1.1049"/>
    <path transform="matrix(1.1516 0 0 1.1516 -17.15 5.0102)" d="m122.06 18.103c-1.2976 2.2971-2.8912 4.4267-4.7288 6.3198-0.67536 0.69573-1.3835 1.3596-2.1213 1.9887"/>
    <path transform="matrix(1.1516 0 0 1.1516 -17.15 5.0102)" d="m110.97 22.92c-0.41431 1.4771-0.44505 3.06-0.0884 4.552 0.63474 2.6554 2.4358 4.8893 4.4636 6.7175 1.3691 1.2343 2.8979 2.3703 3.8007 3.9775 0.37617 0.66967 0.63189 1.4068 0.7513 2.1655"/>
    <path transform="matrix(1.1516 0 0 1.1516 -17.15 5.0102)" d="m123.96 34.852c-0.49125 0.71385-0.99218 1.421-1.5026 2.1213-0.82963 1.1382-1.6843 2.2582-2.5633 3.3588"/>
    <path transform="matrix(1.1516 0 0 1.1516 -17.15 5.0102)" d="m123.96 34.852c-0.15951-1.1892-0.11446-2.4056 0.13258-3.5797 0.1454-0.69107 0.36792-1.3825 0.7955-1.9445 0.32939-0.43297 0.77118-0.77682 1.0607-1.2374 0.23919-0.3806 0.36378-0.83222 0.35355-1.2816"/>
    <path transform="matrix(1.1516 0 0 1.1516 -17.15 5.0102)" d="m122.06 18.103c-0.12707 1.5482 0.13346 3.1267 0.7513 4.552 0.7296 1.6831 1.9589 3.1458 3.4913 4.1543"/>
    <path transform="matrix(1.1516 0 0 1.1516 -17.15 5.0102)" d="m117.69 39.581 2.2539 3.6681"/>
    <path transform="matrix(1.1516 0 0 1.1516 -17.15 5.0102)" d="m119.94 43.249c1.3174-0.43983 2.5039-1.2644 3.3753-2.346 0.87144-1.0815 1.4249-2.4162 1.5744-3.797 0.0317-0.29227 0.0459-0.5878 0.11382-0.87382 0.0679-0.28602 0.19556-0.56746 0.41651-0.76137 0.18396-0.16145 0.41973-0.25159 0.65648-0.31369s0.47991-0.09947 0.71354-0.17244c0.63269-0.19761 1.165-0.65112 1.5452-1.194 0.38026-0.54291 0.61956-1.1726 0.79708-1.8112 0.13993-0.50339 0.24458-1.0188 0.44194-1.5026 0.34538-0.84662 0.97731-1.5733 1.7678-2.0329"/>
    <path transform="matrix(1.1516 0 0 1.1516 -17.15 5.0102)" d="m117.69 39.581c-0.13686-0.85389-0.39037-1.689-0.7513-2.4749-0.44893-0.97748-1.0644-1.8782-1.812-2.6517"/>
    <path transform="matrix(1.1516 0 0 1.1516 -17.15 5.0102)" d="m119.01 0.55769c1.4506 1.8576 2.498 4.0283 3.0494 6.3198 0.71389 2.9667 0.59535 6.0705 0.26517 9.104-0.0771 0.70846-0.16552 1.4157-0.26517 2.1213"/>
    <path transform="matrix(1.1516 0 0 1.1516 -17.15 5.0102)" d="m126.31 26.809c0.60059 0.84805 1.5411 1.448 2.5633 1.6352 0.81367 0.14899 1.6489 0.04478 2.4749 0 0.83918-0.0455 1.6815-0.0291 2.519-0.09907 0.83749-0.06997 1.6799-0.23049 2.4308-0.60804 1.3131-0.66026 2.2197-1.9129 2.961-3.182 0.59959-1.0264 1.1289-2.1008 1.4722-3.2389 0.34325-1.1381 0.49659-2.3445 0.33976-3.5228-0.16595-1.2468-0.67917-2.4387-1.4269-3.4502-0.7477-1.0115-1.7255-1.8446-2.8158-2.4718-2.3565-1.3556-5.2944-1.7197-7.8666-0.83969-1.1774 0.40285-2.269 1.0548-3.182 1.9004"/>
    <path transform="matrix(1.1516 0 0 1.1516 -17.15 5.0102)" d="m119.01 0.55769c1.9657 1.745 3.5705 3.8948 4.6846 6.2756 0.9113 1.9474 1.4913 4.03 2.0771 6.0988 0.22923 0.80946 0.46106 1.6215 0.80029 2.3914 0.33923 0.76987 0.7916 1.5012 1.4094 2.0723 0.46332 0.42823 1.0184 0.76164 1.6234 0.9406s1.26 0.20017 1.868 0.03168c0.45063-0.12488 0.87643-0.35602 1.2002-0.69344s0.5403-0.78429 0.56759-1.2511c0.0305-0.52078-0.1774-1.0426-0.52474-1.4318-0.34733-0.38923-0.82566-0.65007-1.3314-0.77793-0.51757-0.13084-1.0686-0.12674-1.5842 0.01177-0.51557 0.13851-0.99449 0.41113-1.3768 0.78373"/>
    <path transform="matrix(1.1516 0 0 1.1516 -17.15 5.0102)" d="m110.97 22.92 1.4142-4.9497 1.6352-3.2704 2.1213-2.1655 1.4142-0.97227 0.97227-1.6794"/>
    <path transform="matrix(1.1516 0 0 1.1516 -17.15 5.0102)" d="m116.14 12.534c-0.48541-0.14602-1.0094-0.16143-1.5026-0.04419-0.86184 0.20489-1.5805 0.79063-2.2097 1.4142-0.57944 0.57426-1.1121 1.1957-1.591 1.8562"/>
    <path transform="matrix(1.1516 0 0 1.1516 -17.15 5.0102)" d="m105.23 4.491c0.70331 0.60507 1.368 1.255 1.9887 1.9445 1.1506 1.2781 2.1557 2.7038 2.8279 4.2867 0.67222 1.5829 1.002 3.3309 0.79601 5.0382-0.13335 1.1052-0.48526 2.1708-0.83969 3.2262-0.44796 1.3338-0.90905 2.7047-0.83969 4.1101 0.0634 1.2852 0.58877 2.5429 1.4584 3.4913"/>
    <path transform="matrix(1.1516 0 0 1.1516 -17.15 5.0102)" d="m105.23 4.491c1.0517 1.4897 1.9424 3.093 2.6516 4.773 0.51008 1.2082 0.92962 2.4707 1.0368 3.7778 0.10717 1.307-0.11733 2.6695-0.81581 3.7794-0.25758 0.40932-0.57418 0.7776-0.88388 1.149-1.993 2.3904-3.7782 5.0405-4.5962 8.0433-0.31879 1.1702-0.4863 2.3961-0.33662 3.5997 0.14967 1.2036 0.63427 2.3866 1.4857 3.2504 1.0355 1.0506 2.5466 1.5533 4.0217 1.5468 1.2485-0.0055 2.5024-0.35966 3.5355-1.0607 0.60701-0.41184 1.135-0.93979 1.5468-1.5468"/>
    <path transform="matrix(1.1516 0 0 1.1516 -17.15 5.0102)" d="m122.5 46.25c0.92327-1.4504 2.0651-2.7614 3.375-3.875 1.0166-0.86424 2.1318-1.609 3.125-2.5 1.0846-0.97297 2.0162-2.1162 2.75-3.375"/>
    <path transform="matrix(1.1516 0 0 1.1516 -17.15 5.0102)" d="m121.12 42.375 1.375 3.875"/>
    <path transform="matrix(1.1516 0 0 1.1516 -17.15 5.0102)" d="m131 34.125c0.90659-0.49511 1.9818-0.67432 3-0.5 1.1707 0.20043 2.2217 0.84129 3.375 1.125 1.4258 0.35074 2.9855 0.12137 4.25-0.625"/>
    <path transform="matrix(1.1516 0 0 1.1516 -17.15 5.0102)" d="m141.62 34.125c-0.65914 1.9601-2.207 3.6018-4.125 4.375-1.0646 0.42917-2.2282 0.60217-3.25 1.125-1.0084 0.51594-1.8231 1.346-2.5193 2.2395s-1.2915 1.8617-1.9807 2.7605c-2.1758 2.8378-5.2998 4.9353-8.75 5.875"/>
    <path transform="matrix(1.1516 0 0 1.1516 -17.15 5.0102)" d="m121 50.5c-1.166-1.1086-2.072-2.4891-2.625-4-0.41718-1.1398-0.63366-2.3428-1-3.5-0.28853-0.91137-0.67893-1.8077-1.2997-2.5347-0.62074-0.72701-1.4968-1.2728-2.4503-1.3403-0.49924-0.03537-1.003 0.05879-1.5 0-0.51731-0.06119-1.0131-0.29244-1.3924-0.64946-0.37934-0.35702-0.64017-0.83789-0.73258-1.3505"/>
    <path transform="matrix(1.1516 0 0 1.1516 -17.15 5.0102)" d="m110 37.125c0.62604 0.29366 1.3094 0.4645 2 0.5 1.5216 0.07822 3.0655-0.52999 4.125-1.625"/>
    <path transform="matrix(1.1516 0 0 1.1516 -17.15 5.0102)" d="m134.87 61.75 3-3c0.28138-0.28138 0.56965-0.5599 0.90296-0.77729 0.3333-0.2174 0.70781-0.37164 1.0982-0.44873 0.3904-0.07709 0.79251-0.07849 1.1889-0.04376s0.78909 0.1037 1.1849 0.14478c2.7111 0.28138 5.5304-0.88522 7.25-3"/>
    <path transform="matrix(1.1516 0 0 1.1516 -17.15 5.0102)" d="m134.87 61.75c-0.36613 0.47724-0.62438 1.0368-0.75 1.625-0.17004 0.79621-0.0935 1.6433 0.21649 2.3962s0.85212 1.4082 1.5335 1.8538"/>
    <path transform="matrix(1.1516 0 0 1.1516 -17.15 5.0102)" d="m135.87 67.625c0.28169-0.5989 0.66358-1.1505 1.125-1.625 0.81548-0.83855 1.8647-1.4229 2.9648-1.8203s2.2557-0.61672 3.4102-0.80467c0.87245-0.14203 1.7477-0.26706 2.625-0.375"/>
    <path transform="matrix(1.1516 0 0 1.1516 -17.15 5.0102)" d="m149.5 54.625c-0.27539 3.0611-1.5154 6.0282-3.5 8.375-0.93723 1.1083-2.0357 2.08-3.25 2.875"/>
    <path transform="matrix(1.1516 0 0 1.1516 -17.15 5.0102)" d="m135.87 67.625c0.49416 1.629 0.82959 3.3062 1 5 0.16733 1.6632 0.17586 3.3403 0.375 5 0.31706 2.6424 1.1116 5.2004 1.875 7.75 1.5119 5.0496 2.9194 10.151 3.625 15.375 0.36358 2.6915 0.53943 5.4093 0.5 8.125-0.0128 0.88389-0.0449 1.7916 0.25 2.625 0.21098 0.59627 0.5796 1.1233 0.97181 1.6195 0.39221 0.49621 0.8137 0.97184 1.1532 1.5055 0.45631 0.71729 0.75688 1.5331 0.875 2.375"/>
    <path transform="matrix(1.1516 0 0 1.1516 -17.15 5.0102)" d="m146.12 111.63c0.70462 0.78089 1.1125 1.8233 1.125 2.875 0.0105 0.88345-0.25494 1.7682-0.75 2.5"/>
    <path transform="matrix(1.1516 0 0 1.1516 -17.15 5.0102)" d="m152 121c-0.478-0.0281-0.94072-0.25945-1.25-0.625-0.24508-0.28967-0.3911-0.6507-0.49229-1.0164-0.10118-0.3657-0.16137-0.74161-0.25771-1.1086-0.37968-1.4463-1.3428-2.7305-2.625-3.5"/>
    <path transform="matrix(1.1516 0 0 1.1516 -17.15 5.0102)" d="m152 121c-0.27402-1.9532-0.8676-3.8611-1.75-5.625-0.30074-0.60117-0.63475-1.1857-1-1.75"/>
    <path transform="matrix(1.1516 0 0 1.1516 -17.15 5.0102)" d="m152.25 119.63c0.65595-1.2098 0.88064-2.6478 0.625-4-0.28597-1.5126-1.1336-2.8525-2-4.125-0.75679-1.1115-1.5438-2.2084-2.1617-3.4027-0.61793-1.1943-1.0655-2.5028-1.0883-3.8473-0.012-0.70902 0.0936-1.4221 0-2.125-0.10985-0.82468-0.48664-1.5858-0.75-2.375-0.46802-1.4025-0.57769-2.8973-0.625-4.375-0.15268-4.7688 0.29802-9.6252-0.875-14.25-0.4407-1.7375-1.1041-3.4098-1.625-5.125-1.2246-4.0323-1.6519-8.3051-1.25-12.5"/>
    <path transform="matrix(1.1516 0 0 1.1516 -17.15 5.0102)" d="m103 59.125c-0.59289-1.0707-0.93776-2.2777-0.99999-3.5-0.0494-0.97047 0.0783-1.9497 0.37499-2.875"/>
    <path transform="matrix(1.1516 0 0 1.1516 -17.15 5.0102)" d="m102.37 52.75 2.125 3.25"/>
    <path transform="matrix(1.1516 0 0 1.1516 -17.15 5.0102)" d="m122.12 58.375 1.625-3.625"/>
    <path transform="matrix(1.1516 0 0 1.1516 -17.15 5.0102)" d="m123.75 54.75 0.875 2.875"/>
    <path transform="matrix(1.1516 0 0 1.1516 -17.15 5.0102)" d="m122.12 58.375c0.0461 0.52992 0.21896 1.0484 0.5 1.5 0.14129 0.22705 0.30951 0.43732 0.5 0.625"/>
    <path transform="matrix(1.1516 0 0 1.1516 -17.15 5.0102)" d="m124.62 57.625c-0.0596 0.56717-0.23042 1.1224-0.5 1.625-0.25363 0.47283-0.59438 0.89876-1 1.25"/>
    <path transform="matrix(1.1516 0 0 1.1516 -17.15 5.0102)" d="m104.5 56-1.5 3.125"/>
    <path transform="matrix(1.1516 0 0 1.1516 -17.15 5.0102)" d="m105.37 54.875c0.24292-0.07264 0.50708-0.07264 0.75 0 0.3758 0.11238 0.68866 0.3952 0.87755 0.73896 0.18889 0.34376 0.26035 0.74401 0.24745 1.136-0.0169 0.51221-0.17128 1.0086-0.3215 1.4986-0.15022 0.48997-0.29883 0.98898-0.3035 1.5014-5e-3 0.52775 0.14576 1.0509 0.39432 1.5164 0.24857 0.46557 0.59282 0.87564 0.98068 1.2336 1.0931 1.0087 2.534 1.619 3.5 2.75 0.70782 0.82875 1.1134 1.9102 1.125 3"/>
    <path transform="matrix(1.1516 0 0 1.1516 -17.15 5.0102)" d="m112.62 68.25c0.69395-1.2583 1.5348-2.4355 2.5-3.5 0.83131-0.91687 1.7519-1.7478 2.625-2.625 0.91249-0.91675 1.7926-1.9151 2.25-3.125 0.20046-0.53026 0.31476-1.0892 0.5-1.625 0.24564-0.71044 0.62544-1.3885 1.186-1.8894 0.56055-0.50086 1.3159-0.80935 2.064-0.73564 0.4131 0.0407 0.81178 0.19521 1.1571 0.42559 0.3453 0.23038 0.63812 0.5352 0.87313 0.87737 0.47002 0.68434 0.70491 1.5037 0.84478 2.322 0.37245 2.1791 0.10892 4.463-0.75 6.5"/>
    <path transform="matrix(1.1516 0 0 1.1516 -17.15 5.0102)" d="m115.75 103.63c-0.18235-2.6639-0.14049-5.3431 0.125-8 0.69994-7.0047 2.9909-13.879 6.875-19.75 1.6518-2.4968 3.5846-4.8077 5.75-6.875"/>
    <path transform="matrix(1.1516 0 0 1.1516 -17.15 5.0102)" d="m115.75 103.63c-0.67746-0.0535-1.3492-0.17942-2-0.375-1.7417-0.52341-3.3179-1.5474-4.5711-2.8654-1.2532-1.3179-2.1884-2.9233-2.8039-4.6346-0.91525-2.5447-1.1276-5.3075-0.875-8 0.18113-1.9307 0.59499-3.8312 0.875-5.75 0.53711-3.6807 0.57928-7.4332 0.125-11.125"/>
    <path transform="matrix(1.1516 0 0 1.1516 -17.15 5.0102)" d="m117.12 88.125c0.0722-0.25353 0.15565-0.50386 0.25-0.75 0.81659-2.1303 2.4272-3.878 4.25-5.25 2.1352-1.6071 4.6209-2.7711 7.25-3.25 1.5644-0.28497 3.1728-0.3273 4.75-0.125"/>
    <path transform="matrix(1.1516 0 0 1.1516 -17.15 5.0102)" d="m125.75 80c-1.4434 3.4895-3.2932 6.8107-5.5 9.875-1.298 1.8023-2.719 3.5159-4.25 5.125"/>
    <path transform="matrix(1.1516 0 0 1.1516 -17.15 5.0102)" d="m105.37 87.375c-0.28958-1.4763-0.88971-2.8909-1.75-4.125-1.2039-1.7271-2.9208-3.0918-4.875-3.875"/>
    <path transform="matrix(1.1516 0 0 1.1516 -17.15 5.0102)" d="m102.12 81.625c-0.18787 2.0916-0.018 4.2149 0.49999 6.25 0.58282 2.2898 1.6071 4.4664 3 6.375"/>
    <path transform="matrix(1.1516 0 0 1.1516 -17.15 5.0102)" d="m98.75 79.375c-0.21984 2.0219 0.03921 4.0944 0.75 6 0.86482 2.3186 2.4015 4.3821 4.375 5.875"/>
    <path transform="matrix(1.1516 0 0 1.1516 -17.15 5.0102)" d="m133.62 78.75c0.0527 1.3247-0.24535 2.6618-0.85562 3.8388-0.61027 1.177-1.5313 2.191-2.6444 2.9112-1.9097 1.2358-4.2509 1.5611-6.375 2.375-1.3466 0.51599-2.6153 1.2349-3.75 2.125"/>
    <path transform="matrix(1.1516 0 0 1.1516 -17.15 5.0102)" d="m112.37 70c-0.29767 1.2178-0.6312 2.4268-1 3.625-0.17531 0.56956-0.35901 1.1383-0.47026 1.7238-0.11124 0.58545-0.14852 1.1923-0.0297 1.7762 0.14216 0.69888 0.49919 1.3324 0.75 2 0.68127 1.8135 0.54096 3.918-0.375 5.625"/>
    <path transform="matrix(1.1516 0 0 1.1516 -17.15 5.0102)" d="m103 59.125c0.15201 0.98039 0.40372 1.9453 0.75 2.875 0.31816 0.85422 0.72559 1.6928 1.3491 2.3577 0.31177 0.33246 0.67611 0.61826 1.0843 0.82111s0.86083 0.32132 1.3166 0.3212c0.38722-1.05e-4 0.77418-0.0861 1.125-0.25"/>
    <path transform="matrix(1.1516 0 0 1.1516 -17.15 5.0102)" d="m116.62 63.125c0.82604 0.80187 1.8081 1.4424 2.875 1.875 1.3007 0.52744 2.7264 0.74347 4.125 0.625"/>
    <path transform="matrix(1.1516 0 0 1.1516 -17.15 5.0102)" d="m113.5 49.125c-0.37618 1.6116-1.5102 3.0292-3 3.75-0.83139 0.40224-1.7463 0.59098-2.637 0.83524-0.8907 0.24427-1.7895 0.56056-2.488 1.1648-0.36164 0.3128-0.66084 0.69749-0.875 1.125"/>
    <path transform="matrix(1.1516 0 0 1.1516 -17.15 5.0102)" d="m133.87 57.875c-0.9216 3.5163-2.451 6.8725-4.5 9.875-0.28669 0.42011-0.5834 0.83328-0.875 1.25-0.68133 0.9737-1.3377 1.9722-1.8286 3.0545-0.49083 1.0823-0.81319 2.2572-0.79643 3.4455 0.0175 1.2435 0.41471 2.4792 1.125 3.5"/>
    <path transform="matrix(1.1516 0 0 1.1516 -17.15 5.0102)" d="m106.62 65.125c0.2202 2.3682 0.2202 4.7568 0 7.125-0.28532 3.0685-0.942 6.1056-2 9-0.23114 0.63233-0.48129 1.2577-0.75 1.875"/>
    <path transform="matrix(1.1516 0 0 1.1516 -17.15 5.0102)" d="m143.12 106.13c0.52769 0.15364 1.0755 0.23792 1.625 0.25 1.0829 0.0238 2.1708-0.23729 3.125-0.75"/>
    <path transform="matrix(1.1516 0 0 1.1516 -17.15 5.0102)" d="m142.75 102.25c0.63229 0.0864 1.2874-9.2e-4 1.875-0.25 0.73138-0.31005 1.3531-0.87215 1.7351-1.5687 0.38197-0.69652 0.52169-1.5229 0.38994-2.3063"/>
    <path transform="matrix(1.1516 0 0 1.1516 -17.15 5.0102)" d="m117 43.375c-0.67062-0.29249-1.3943-0.46277-2.125-0.5-0.854-0.04351-1.7202 0.09647-2.5056 0.43461-0.78541 0.33813-1.4877 0.8766-1.9944 1.5654-0.82538 1.1219-1.0868 2.5449-1.5 3.875-0.70314 2.2635-1.9069 4.37-3.5 6.125"/>
    <path transform="matrix(1.1516 0 0 1.1516 -17.15 5.0102)" d="m103 59.125c-0.85798-0.10831-1.7497 0.07002-2.5 0.5-0.3672 0.21042-0.70368 0.48236-0.95451 0.82323-0.25083 0.34087-0.41268 0.75362-0.4205 1.1768-0.0096 0.51675 0.20787 1.0151 0.50059 1.441 0.29272 0.42595 0.66038 0.79389 0.99942 1.184 0.5619 0.64653 1.0512 1.361 1.6857 1.9364 0.31726 0.28771 0.67095 0.53938 1.0631 0.71163 0.39212 0.17225 0.8244 0.26306 1.2512 0.22698 0.51053-0.04317 1.0033-0.27209 1.3656-0.63438s0.59121-0.85509 0.63438-1.3656"/>
    <path transform="matrix(1.1516 0 0 1.1516 -17.15 5.0102)" d="m99.625 63.25c-0.86607 0.3674-1.5642 1.1121-1.875 2-0.20931 0.59795-0.24691 1.2415-0.25 1.875-0.01656 3.4 0.90812 6.751 2.25 9.875 0.68452 1.5936 1.4787 3.1401 2.375 4.625"/>
    <path transform="matrix(1.1516 0 0 1.1516 -17.15 5.0102)" d="m100.88 88.25c-0.5942 0.92995-1.0584 1.9428-1.375 3-0.31543 1.0534-0.48423 2.1505-0.5 3.25"/>
    <path transform="matrix(1.1516 0 0 1.1516 -17.15 5.0102)" d="m100.12 95.875c-0.12529 0.20541-0.3184 0.36866-0.5418 0.45801-0.22339 0.08936-0.47582 0.10432-0.70821 0.04199-0.23589-0.06328-0.44726-0.20359-0.61442-0.38165s-0.29187-0.39282-0.38558-0.61835c-0.30801-0.7413-0.28261-1.5729-0.25-2.375 0.01087-0.26744 0.02282-0.53937 0.11059-0.79223 0.04388-0.12643 0.10686-0.24709 0.19303-0.34949 0.08616-0.1024 0.19614-0.18613 0.32138-0.23328 0.16402-0.06175 0.35184-0.05754 0.51293 0.0115s0.29367 0.20214 0.36207 0.3635"/>
    <path transform="matrix(1.1516 0 0 1.1516 -17.15 5.0102)" d="m117.5 120c0.29964-1.6528 0.84948-3.26 1.625-4.75 1.1423-2.1948 2.7776-4.1312 4.75-5.625"/>
    <path transform="matrix(1.1516 0 0 1.1516 -17.15 5.0102)" d="m121.75 117.25c0.72121-2.6601 1.9593-5.1791 3.625-7.375 1.5772-2.0793 3.5362-3.868 5.75-5.25"/>
    <path transform="matrix(1.1516 0 0 1.1516 -17.15 5.0102)" d="m134.62 101.5c-1.2894 0.8922-2.468 1.9445-3.5 3.125-2.3883 2.732-3.9705 6.1601-4.5 9.75"/>
    <path transform="matrix(1.1516 0 0 1.1516 -17.15 5.0102)" d="m134.62 101.5c0.14293 0.41101 0.26809 0.82819 0.375 1.25 0.71386 2.8164 0.59728 5.8108-0.125 8.625-0.50782 1.9786-1.3111 3.8812-2.375 5.625"/>
    <path transform="matrix(1.1516 0 0 1.1516 -17.15 5.0102)" d="m135.75 107.63c0.38329 1.9366 0.34032 3.9564-0.125 5.875-0.83704 3.4512-2.9676 6.4213-4.5 9.625-1.2535 2.6206-2.1119 5.416-2.75 8.25-0.63693 2.8288-1.0587 5.758-0.625 8.625 0.22988 1.5198 0.69601 2.9933 1 4.5 0.60457 2.9965 0.56005 6.0992 0.125 9.125-0.9679 6.7318-3.8176 13.035-5.5 19.625-1.1692 4.5793-1.7712 9.287-2.125 14-0.12811 1.7067-0.22363 3.4282 0 5.125 0.12176 0.92385 0.3372 1.8325 0.5 2.75 0.25607 1.4431 0.38175 2.9094 0.375 4.375"/>
    <path transform="matrix(1.1516 0 0 1.1516 -17.15 5.0102)" d="m123.87 109.63c-1.0024 1.3185-1.693 2.8724-2 4.5-0.1939 1.0281-0.23617 2.0847-0.125 3.125"/>
    <path transform="matrix(1.1516 0 0 1.1516 -17.15 5.0102)" d="m117.5 120c1.349 4.4762 1.7352 9.2399 1.125 13.875-0.22986 1.746-0.60003 3.4918-0.5 5.25 0.0935 1.6425 0.595 3.2371 0.75 4.875 0.2369 2.5034-0.34061 5.0016-0.625 7.5-0.34907 3.0666-0.25644 6.1636-0.25 9.25 0.0145 6.9336-0.40906 13.868-1.25 20.75-0.22131 1.8113-0.4734 3.6279-1 5.375-0.39404 1.3073-0.94058 2.5685-1.625 3.75"/>
    <path transform="matrix(1.1516 0 0 1.1516 -17.15 5.0102)" d="m118.37 122.88c-0.20806 0.013-0.41694 0.013-0.625 0-1.0802-0.0675-2.1237-0.48977-3-1.125-1.5349-1.1126-2.5232-2.8047-3.75-4.25-1.7012-2.0042-3.9168-3.5681-6.375-4.5"/>
    <path transform="matrix(1.1516 0 0 1.1516 -17.15 5.0102)" d="m104.62 113c0.0581 1.1689 0.35784 2.3252 0.875 3.375 0.74004 1.5023 1.9293 2.7797 3.375 3.625"/>
    <path transform="matrix(1.1516 0 0 1.1516 -17.15 5.0102)" d="m105.25 115.88c-0.62187-1.7452-1.5103-3.3952-2.625-4.875-0.56893-0.75529-1.1964-1.4664-1.875-2.125"/>
    <path transform="matrix(1.1516 0 0 1.1516 -17.15 5.0102)" d="m100 103.5c-0.65575 1.9335-1.0358 3.9603-1.125 6-0.16358 3.7392 0.67985 7.5524 2.625 10.75 1.4311 2.3525 3.4218 4.3379 4.75 6.75 0.98984 1.7976 1.5918 3.8232 1.625 5.875 0.0244 1.5056-0.2506 3.0418 0.125 4.5 0.37813 1.468 1.3708 2.685 2.125 4 1.2961 2.26 1.8976 4.8402 2.5 7.375 1.4815 6.2337 3.0651 12.443 4.75 18.625"/>
    <path transform="matrix(1.1516 0 0 1.1516 -17.15 5.0102)" d="m124.37 170.62c-0.57414 1.3544-0.78788 2.8597-0.61347 4.3204 0.17442 1.4607 0.73657 2.8734 1.6135 4.0546 0.95217 1.2826 2.2564 2.2844 3.125 3.625 0.57834 0.89265 0.94882 1.9297 0.99484 2.9924 0.046 1.0626-0.24306 2.1483-0.86984 3.0076-0.66778 0.91556-1.6633 1.5256-2.625 2.125-0.39355 0.24529-0.78735 0.49388-1.1398 0.79521-0.35249 0.30133-0.6646 0.65932-0.86017 1.0798-0.24883 0.535-0.29674 1.1412-0.28626 1.7311 0.0105 0.58994 0.0754 1.1801 0.0363 1.7689-0.0848 1.2768-0.67979 2.5125-1.625 3.375"/>
    <path transform="matrix(1.1516 0 0 1.1516 -17.15 5.0102)" d="m128.12 174c0.89656-0.11861 1.8287 0.0482 2.6285 0.47029 0.79981 0.42212 1.4635 1.0976 1.8715 1.9047 0.47976 0.94912 0.60005 2.0461 0.53239 3.1074-0.0677 1.0613-0.31355 2.1019-0.53239 3.1426-1.1469 5.4542-1.5684 11.061-1.25 16.625"/>
    <path transform="matrix(1.1516 0 0 1.1516 -17.15 5.0102)" d="m126 179.38c0.62998-0.79165 1.1378-1.6803 1.5-2.625 0.33769-0.88072 0.54885-1.8098 0.625-2.75"/>
    <path transform="matrix(1.1516 0 0 1.1516 -17.15 5.0102)" d="m131.37 199.25c-0.78112-1.9509-1.2473-4.0274-1.375-6.125-0.1759-2.8889 0.27501-5.8742-0.625-8.625-0.39171-1.1972-1.0346-2.3116-1.875-3.25"/>
    <path transform="matrix(1.1516 0 0 1.1516 -17.15 5.0102)" d="m114.12 190.62-0.875 2.625"/>
    <path transform="matrix(1.1516 0 0 1.1516 -17.15 5.0102)" d="m117.5 216.25c-0.8527-1.359-1.6054-2.7808-2.25-4.25-1.2422-2.8313-2.0888-5.9268-1.75-9 0.17122-1.5533 0.64107-3.0661 0.75-4.625 0.12274-1.7564-0.22598-3.5436-1-5.125"/>
    <path transform="matrix(1.1516 0 0 1.1516 -17.15 5.0102)" d="m117.5 216.25c2.1398-1.4807 3.7866-3.6616 4.625-6.125 0.57237-1.6817 0.77269-3.4738 0.75-5.25-0.0232-1.8137-0.27581-3.6243-0.75-5.375"/>
    <path transform="matrix(1.1516 0 0 1.1516 -17.15 5.0102)" d="m114.29 208.96c0.56591 0.18192 1.2035 0.12863 1.7314-0.14468 0.50145-0.25964 0.89188-0.70276 1.1598-1.1998 0.26797-0.49706 0.42135-1.0479 0.53204-1.6017 0.41893-2.0957 0.25041-4.2571 0.16448-6.3926-0.24499-6.0881 0.19671-12.182 0.75-18.25 0.80511-8.8295 1.8476-17.643 2.25-26.5 0.15028-3.3077 0.20568-6.6698-0.625-9.875-0.37167-1.4341-0.91869-2.8227-1.625-4.125"/>
    <path transform="matrix(1.1516 0 0 1.1516 -17.15 5.0102)" d="m127.37 137.25c-1.8676 2.1139-3.2468 4.6567-4 7.375-0.71917 2.5954-0.86821 5.31-1 8-0.31268 6.382-0.55104 12.774-1.25 19.125-0.41731 3.7921-0.99866 7.5683-1.25 11.375-0.37068 5.6141-0.0209 11.25-0.125 16.875-0.037 2.0004-0.13138 4.0036 0 6 0.0328 0.49839 0.0804 0.99993 0.22495 1.478 0.14453 0.47811 0.3929 0.93567 0.77284 1.2599 0.18057 0.15409 0.39346 0.27777 0.62721 0.31909 0.17034 0.0301 0.34844 0.0152 0.51137-0.043 0.16294-0.0581 0.31031-0.15922 0.42316-0.29032 0.11285-0.13111 0.1909-0.29189 0.22411-0.46166 0.0332-0.16976 0.0215-0.34811-0.0336-0.51207"/>
    <path transform="matrix(1.1516 0 0 1.1516 -17.15 5.0102)" d="m127.37 137.25c-1.2187-1.8951-2.7966-3.5583-4.625-4.875-0.63842-0.45974-1.307-0.8776-2-1.25"/>
    <path transform="matrix(1.1516 0 0 1.1516 -17.15 5.0102)" d="m118.62 140.88c-0.0253-2.0217 0.22786-4.0467 0.75-6 0.34429-1.288 0.80511-2.5448 1.375-3.75"/>
    <path transform="matrix(1.1516 0 0 1.1516 -17.15 5.0102)" d="m108 132.38c2.0406 0.62 3.9865 1.5506 5.75 2.75 1.6885 1.1483 3.2095 2.5426 4.5 4.125"/>
    <path transform="matrix(1.1516 0 0 1.1516 -17.15 5.0102)" d="m118.25 139.25c-0.79342 1.1992-1.504 2.4531-2.125 3.75-0.62844 1.3124-1.1694 2.6845-1.375 4.125-0.32774 2.2965 0.21135 4.6186 0.75 6.875 0.826 3.4601 1.6593 6.9184 2.5 10.375"/>
    <path transform="matrix(1.1516 0 0 1.1516 -17.15 5.0102)" d="m113.87 202.25-3.125 1"/>
    <path transform="matrix(1.1516 0 0 1.1516 -17.15 5.0102)" d="m110.75 203.25-1.25-1.75"/>
    <path transform="matrix(1.1516 0 0 1.1516 -17.15 5.0102)" d="m109.5 201.5c0.39752-1.326 0.98908-2.5936 1.75-3.75 0.70017-1.0641 1.5435-2.0338 2.5-2.875"/>
    <path transform="matrix(1.1516 0 0 1.1516 -17.15 5.0102)" d="m113.75 194.88c-0.59471 1.1662-1.0968 2.3796-1.5 3.625-0.0658 0.20313-0.12956 0.41154-0.125 0.625 5e-3 0.23486 0.0944 0.46361 0.23131 0.65448 0.13694 0.19087 0.31974 0.34561 0.51869 0.47052 0.33798 0.2122 0.7273 0.34197 1.125 0.375"/>
    <path transform="matrix(1.1516 0 0 1.1516 -17.15 5.0102)" d="m115.75 103.63c0.60962-1.5649 1.3639-3.0734 2.25-4.5 0.97349-1.5673 2.1062-3.0356 3.375-4.375"/>
    <path transform="matrix(1.1516 0 0 1.1516 -17.15 5.0102)" d="m130.25 85.75c0.63227 1.6911 1.2159 3.4004 1.75 5.125 1.0798 3.4868 1.9568 7.0365 2.625 10.625"/>
    <path transform="matrix(1.1516 0 0 1.1516 -17.15 5.0102)" d="m100.88 88.25c-0.32082 2.534-0.57095 5.077-0.75 7.625-0.17833 2.5377-0.28611 5.0862-0.125 7.625 0.11466 1.8071 0.36562 3.6055 0.75 5.375"/>
    <path transform="matrix(1.1516 0 0 1.1516 -17.15 5.0102)" d="m141.62 34.125c-0.28503 2.5665-1.6172 5.0011-3.625 6.625-1.0518 0.8507-2.2648 1.477-3.375 2.25-1.6905 1.1771-3.1228 2.6794-4.5832 4.1321-1.4604 1.4527-2.9831 2.8821-4.7918 3.8679-2.075 1.131-4.4292 1.6265-6.625 2.5-0.82372 0.32768-1.6477 0.72455-2.25 1.375-0.68477 0.73946-1.0206 1.7476-1.125 2.75-0.1328 1.2757 0.0856 2.5863 0.625 3.75"/>
    <path transform="matrix(1.1516 0 0 1.1516 -17.15 5.0102)" d="m110 37.125c-0.14912 0.59939-7e-3 1.2643 0.375 1.75 0.39596 0.50388 1.0032 0.79151 1.6054 1.0109 0.60212 0.21941 1.2306 0.39246 1.7696 0.73908 0.76911 0.49459 1.2878 1.3024 1.6409 2.1459 0.35304 0.84351 0.56242 1.7392 0.85913 2.6041 0.2734 0.79698 0.62147 1.5694 0.83933 2.3833 0.21787 0.81392 0.2996 1.6915 0.0357 2.4917-0.26578 0.80578-0.85184 1.457-1.375 2.125-0.8216 1.0491-1.527 2.2137-1.875 3.5-0.394 1.4563-0.31333 2.9927-0.25 4.5 0.0298 0.70815 0.055 1.4184 0 2.125-0.10929 1.4046-0.5401 2.7831-1.25 4"/>
    <path transform="matrix(1.1516 0 0 1.1516 -17.15 5.0102)" d="m115.87 61.375-1.625 4.5"/>
    <path transform="matrix(1.1516 0 0 1.1516 -17.15 5.0102)" d="m110.62 64.5 1.875-1.125"/>
    <path transform="matrix(1.1516 0 0 1.1516 -17.15 5.0102)" d="m132.5 53.25 2.375 8.5"/>
    <path transform="matrix(1.1516 0 0 1.1516 -17.15 5.0102)" d="m134.87 43c0.76464 1.031 1.8851 1.7929 3.125 2.125 0.44178 0.11832 0.89587 0.18338 1.3427 0.28075 0.44686 0.09736 0.89265 0.22974 1.2823 0.46925 0.55317 0.34007 0.96392 0.88261 1.2197 1.4795 0.25578 0.59684 0.36522 1.2474 0.40529 1.8955 0.0902 1.4593-0.16048 2.9156-0.25 4.375-0.0767 1.2502-0.0348 2.5077 0.125 3.75"/>
    <path transform="matrix(1.1516 0 0 1.1516 -17.15 5.0102)" d="m132.75 54.75c-0.38743 0.32181-0.72584 0.70252-1 1.125-0.2033 0.31328-0.37136 0.6494-0.5 1"/>
    <path transform="matrix(1.1516 0 0 1.1516 -17.15 5.0102)" d="m104 67.375c0.51096 2.9305 1.0945 5.8484 1.75 8.75 0.12249 0.54224 0.24749 1.0839 0.375 1.625"/>
    <path transform="matrix(1.1516 0 0 1.1516 -17.15 5.0102)" d="m120.25 23.75c-0.1612 0.21263-0.32794 0.42106-0.5 0.625-0.85538 1.0138-1.8379 1.9119-2.75 2.875-0.8554 0.90321-1.6495 1.8645-2.375 2.875"/>
    <path transform="matrix(1.1516 0 0 1.1516 -17.15 5.0102)" d="m112.5 27.125c0.11968 0.62835 0.37753 1.23 0.75 1.75 0.3634 0.50734 0.83543 0.93645 1.375 1.25"/>
    <path transform="matrix(1.1516 0 0 1.1516 -17.15 5.0102)" d="m124.12 33.25c0.73812-0.19336 1.3875-0.70358 1.75-1.375 0.31361-0.58085 0.41126-1.2505 0.625-1.875 0.1513-0.44207 0.36212-0.86372 0.625-1.25"/>
    <path transform="matrix(1.1516 0 0 1.1516 -17.15 5.0102)" d="m132.25 61.75c-1.3909 0.64092-2.73 1.3942-4 2.25-2.7509 1.8538-5.1742 4.1921-7.125 6.875"/>
    <path transform="matrix(1.1516 0 0 1.1516 -17.15 5.0102)" d="m121.12 70.875c1.675-0.47355 3.2806-1.1918 4.75-2.125 2.6959-1.7121 4.9218-4.1562 6.375-7"/>
    <path transform="matrix(1.1516 0 0 1.1516 -17.15 5.0102)" d="m106.62 65.125c0.88946 0.99684 1.5379 2.2073 1.875 3.5 0.12808 0.49116 0.21186 0.99385 0.25 1.5"/>
    <path transform="matrix(1.1516 0 0 1.1516 -17.15 5.0102)" d="m106.75 68.5 2 1.625"/>
    <path transform="matrix(1.1516 0 0 1.1516 -17.15 5.0102)" d="m131.12 9.75c0.16547-0.12658 0.33215-0.25159 0.5-0.375 3.3485-2.4619 7.1539-4.2737 11.125-5.5 7.5207-2.3225 15.591-2.5439 23.375-1.375 2.7981 0.4202 5.5865 1.0218 8.2044 2.0954 2.6179 1.0736 5.07 2.6392 6.9206 4.7796 2.7783 3.2134 4.041 7.6796 3.375 11.875-0.53623 3.3776-2.2236 6.4526-4 9.375-1.2221 2.0105-2.5035 3.9936-3.5 6.125-2.4052 5.1444-3.0513 10.946-3 16.625 0.0778 8.6088 1.6943 17.201 4.75 25.25"/>
    <path transform="matrix(1.1516 0 0 1.1516 -17.15 5.0102)" d="m140.87 16.75c0.33254-0.1271 0.66588-0.2521 1-0.375 6.0398-2.2216 12.308-3.7468 18.5-5.5 4.1646-1.1791 8.4831-2.4762 12.75-1.75 3.2461 0.55248 6.273 2.3092 8.363 4.8536 2.09 2.5444 3.2254 5.8549 3.137 9.1464"/>
    <path transform="matrix(1.1516 0 0 1.1516 -17.15 5.0102)" d="m167.75 9.5c2.2953 1.1061 4.3835 2.6402 6.125 4.5 1.2071 1.2891 2.2534 2.7422 2.9778 4.3529 0.72439 1.6106 1.1199 3.3838 1.0222 5.1471-0.16429 2.9658-1.6734 5.6586-2.875 8.375-3.1744 7.1761-4.343 15.176-3.75 23 0.63411 8.3677 3.2697 16.577 7.625 23.75"/>
    <path transform="matrix(1.1516 0 0 1.1516 -17.15 5.0102)" d="m135 6.5c-0.5535-1.9311-1.8195-3.6493-3.5-4.75-2.1069-1.3801-4.7346-1.7539-7.25-1.625-2.0512 0.10513-4.1313 0.53956-5.875 1.625-1.2831 0.79874-2.3374 1.9203-3.25 3.125-2.3843 3.1474-3.8844 6.9574-4.286 10.885"/>
    <path transform="matrix(1.1516 0 0 1.1516 -17.15 5.0102)" d="m118.53 9.8827-3.0288 1.1174"/>
    <path transform="matrix(1.1516 0 0 1.1516 -17.15 5.0102)" d="m109.75 19.25c-0.801 1.4027-1.3928 2.9247-1.75 4.5-0.19564 0.86295-0.32119 1.7418-0.375 2.625"/>
    <path transform="matrix(1.1516 0 0 1.1516 -17.15 5.0102)" d="m124.62 9.625c-0.20822 3.1398 0.8451 6.3456 2.875 8.75 1.8946 2.2442 4.6892 3.7911 7.625 3.875 1.1016 0.0315 2.2088-0.13882 3.25-0.5"/>
    <path transform="matrix(1.1516 0 0 1.1516 -17.15 5.0102)" d="m106.37 34.25c-0.26605 0.70954-0.69737 1.3565-1.25 1.875-0.8195 0.76886-1.8696 1.2342-2.8897 1.7055-4.7519 2.1956-9.3264 4.8334-13.36 8.1695-1.8755 1.5511-3.668 3.3018-4.7078 5.5023-0.51989 1.1002-0.84054 2.3036-0.85375 3.5205-0.0132 1.2168 0.28947 2.4466 0.93654 3.4772 0.97497 1.5529 2.6928 2.5654 4.5 2.875 1.4697 0.2518 3.0118 0.06504 4.3789-0.53032 1.3671-0.59537 2.5543-1.5971 3.3711-2.8447"/>
    <path transform="matrix(1.1516 0 0 1.1516 -17.15 5.0102)" d="m115.13 34.455-7.3758 4.5454c-6.3598 2.6131-12.294 6.2584-17.5 10.75-0.87973 0.75902-1.7509 1.5563-2.3606 2.5453-0.30489 0.49452-0.54116 1.0347-0.6624 1.6029-0.12124 0.56816-0.12519 1.1651 0.02304 1.7268 0.23292 0.88262 0.83581 1.6423 1.5854 2.1631 0.74964 0.52087 1.6384 0.81636 2.5396 0.96188 1.7312 0.27956 3.5465 0.01391 5.125-0.75"/>
    <path transform="matrix(1.1516 0 0 1.1516 -17.15 5.0102)" d="m134 28.875c-1.0219 0.6397-1.8253 1.6217-2.25 2.75-0.30669 0.81486-0.41923 1.6946-0.75 2.5-0.52257 1.2724-1.5499 2.267-2.625 3.125-1.1308 0.90238-2.3461 1.6987-3.625 2.375"/>
    <path transform="matrix(1.1516 0 0 1.1516 -17.15 5.0102)" d="m141.19 19.438c2.2036-0.16836 4.4186-0.18926 6.625-0.0625 2.5002 0.14363 5.0081 0.48128 7.3759 1.2968s4.5997 2.1314 6.2491 4.0157c1.3104 1.497 2.2233 3.318 2.7824 5.2274 0.55904 1.9094 0.77263 3.908 0.78014 5.8976 0.0188 4.9808-1.2643 9.9609-3.6875 14.312"/>
    <path transform="matrix(1.1516 0 0 1.1516 -17.15 5.0102)" d="m138.25 26.5c3.6553-1.8565 7.6667-3.0087 11.75-3.375 3.7253-0.33422 7.5082-0.01543 11.125 0.9375"/>
    <path transform="matrix(1.1516 0 0 1.1516 -17.15 5.0102)" d="m161.31 50.125c0.66864-3.689 1.0038-7.4384 1-11.187-2e-3 -1.8933-0.0918-3.7994-0.52136-5.6433-0.42957-1.8439-1.2155-3.6338-2.4786-5.0442-1.4448-1.6132-3.4383-2.6499-5.5-3.3125-3.6211-1.1638-7.5807-1.2518-11.25-0.25"/>
    <path transform="matrix(1.1516 0 0 1.1516 -17.15 5.0102)" d="m137.62 27.313c1.0133 0.06654 2.0199 0.23431 3 0.5 1.0281 0.27869 2.0471 0.67687 2.862 1.3628 0.40744 0.34299 0.75916 0.7562 1.007 1.2276s0.38963 1.002 0.38103 1.5345c-0.0127 0.78618-0.36533 1.5611-0.94977 2.0871-0.58443 0.52599-1.3921 0.79534-2.1752 0.72544"/>
    <path transform="matrix(1.1516 0 0 1.1516 -17.15 5.0102)" d="m132.19 30.688c1.0991-0.18108 2.204-0.32702 3.3125-0.4375 0.69385-0.06916 1.3932-0.12443 2.0877-0.0625 0.69454 0.06193 1.3891 0.24654 1.9748 0.625 0.64628 0.41764 1.1385 1.0682 1.3648 1.8036 0.2263 0.73546 0.18488 1.5502-0.11483 2.2589"/>
    <path transform="matrix(1.1516 0 0 1.1516 -17.15 5.0102)" d="m116.32 101.85c0.0249 2.537 0.14284 5.0731 0.35355 7.6014 0.2368 2.8414 0.59075 5.673 1.0607 8.4853"/>
    <path transform="matrix(1.1516 0 0 1.1516 -17.15 5.0102)" d="m130.06 35.78c-0.0506 0.18995-0.0948 0.38161-0.13259 0.57452-0.0826 0.42218-0.13426 0.85144-0.13258 1.2816 2e-3 0.44708 0.0613 0.8939 0.17678 1.3258"/>
   </g>
  </g>
 </g>
</svg>
