<?xml version="1.0" encoding="UTF-8"?>
<svg cursor="default" version="1.1" viewBox="0 0 256 256" xmlns="http://www.w3.org/2000/svg" xmlns:cc="http://creativecommons.org/ns#" xmlns:dc="http://purl.org/dc/elements/1.1/" xmlns:rdf="http://www.w3.org/1999/02/22-rdf-syntax-ns#">
 <metadata>
  <rdf:RDF>
   <cc:Work rdf:about="">
    <dc:format>image/svg+xml</dc:format>
    <dc:type rdf:resource="http://purl.org/dc/dcmitype/StillImage"/>
    <dc:title/>
   </cc:Work>
  </rdf:RDF>
 </metadata>
 <g stroke="#000000" stroke-linecap="square" stroke-width=".46047">
  <path d="m43.779 201.7-1.1417-1.2124 0.09727-1.0989 0.3731-0.76587 0.29388-0.24337 1.1282 0.10606 4.1863 4.4102-0.10544 1.1223-0.43784 0.81396-0.20898 0.1731-1.0997-0.0253z" fill="none"/>
  <g>
   <path d="m78.77 152.63-3.428-4.1392 0.31887-0.26406 0.94343-1.7722 5.9441-4.9227 0.04997-0.53118 0.89621-0.74222 0.5406 0.0509 1.1889-0.98458 0.5299 0.0499 0.50201 0.60616 0.52262 0.0225 1.2543 1.5146 1.0221 0.65605 2.0817 0.18715-0.219 0.19322-2.2629 0.38396-7.0664 5.8521 0.55525 0.67103 0.14281 0.25836z" fill="#ffd42a"/>
   <path d="m81.588 148.79-2.4961-2.3983-3.2509 2.6923 2.9283 3.5458 3.5167-2.91 0.02425-0.0506z" fill="#ffdd55"/>
   <path d="m79.267 153.23-0.49715-0.60031 3.5167-2.91 0.0267 0.1319-0.08751 0.93132z" fill="#ffd42a"/>
   <path d="m188.78 61.059-28.677 22.706-51.009 42.259-0.79105 2.1305-17.383 14.396-2.2629 0.38396-7.0664 5.8521 0.74047 0.89411-0.10324 1.0984-13.518 11.195s-1.0667 1.1661-1.5237 1.8084c-3.7324 5.2457-9.4719 16.125-9.875 16.599-0.19113 0.22475-1.3565 1.1796-1.5292 1.2443-2.1274 0.79848-7.779 2.9468-9.0084 3.9649-0.73869 0.61174-1.5335 1.2161-2.2595 1.8713-14.594 13.17-42.064 41.333-42.064 41.333s-0.50977 2.0979-0.091358 3.0105c0.30805 0.6719 1.3279 2.2135 2.2334 2.6968 3.0156 1.6094 8.1181 5.6371 8.1912 5.6934 0.20483 0.15774 9.2228 8.9194 13.508 13.254 0.54292 0.5491 2.2478 0.56055 2.2478 0.56055s0.29396-0.19966 0.40489-0.33533c0.3622-0.44271 21.214-36.2 31.477-53.458 0.44946-0.75582 1.2578-1.2652 2.0318-1.6827 0.86112-0.46441 1.9451-0.39601 2.8062-0.86043 1.3439-0.72477 2.5716-1.7314 3.5279-2.9217 0.60731-0.75591 1.3291-2.5876 1.3291-2.5876 0.59396-1.1564 0.9324-6.6885 1.8437-10.464 0.7682-2.4582 2.6591-6.1349 4.9465-8.3905l3.531-3.4821 4.8762-4.5585 4.7242-4.3602 2.4584-2.1785 0.15745-0.16115 22.165-20.801 3.1659-2.6536 6.2875-5.7208 69.4-61.934 6e-3 -0.48557z" fill="#ff7f2a"/>
  </g>
  <g fill="#ffd42a">
   <path d="m2.4475 228.8s-0.39352 0.40891-0.48255 0.64876c-0.17499 0.47127-0.44799 2.1116-0.19987 2.8513 0.14795 0.44109 1.5717 2.2699 2.2333 2.6968 2.888 1.8632 8.1067 5.6234 8.1912 5.6934 0.18114 0.14998 9.2914 9.0238 13.508 13.254 0.54518 0.54689 1.9624 0.79687 2.2478 0.56055l0.59107-0.4895s-1.7051-0.0111-2.2478-0.56053c-4.2498-4.3032-13.282-13.063-13.508-13.254-0.06995-0.0592-5.1875-3.8892-8.1912-5.6934-0.82608-0.49618-1.948-2.0743-2.2333-2.6968-0.41842-0.91263 0.091358-3.0105 0.091358-3.0105z"/>
   <path d="m92.657 158.57 0.23397 0.28536 0.59252 0.0558 21.505-20.34 0.0573-0.52901-0.22894-0.2722z"/>
   <path d="m117.36 119.18-3.1729-3.8313c-0.12931-0.15613-0.39706-0.18598-0.56274-0.0528l-9.1632 7.5886c-0.15983 0.13236-0.1876 0.37199-0.0505 0.53752l3.1793 3.839-0.098 1.0419-0.27871 0.75061 1.0922-0.89984 0.79105-2.1305z"/>
  </g>
  <g>
   <path d="m105.38 124.6-18.598 15.402 1.2544 1.5146 1.0221 0.65603 2.0817 0.18715 16.072-13.303 0.27869-0.75061 0.098-1.0418z" fill="#ffe680"/>
   <g>
    <circle transform="rotate(-39.63)" cx="6.6956" cy="172.77" r="2.4642" fill="#ffdd55"/>
    <circle transform="rotate(-39.63)" cx="6.6956" cy="172.77" r="1.325" fill="#ffd42a"/>
    <circle transform="rotate(-39.63)" cx="-108.03" cy="187.94" r="4.7907" fill="#4d4d4d"/>
    <circle transform="rotate(-39.63)" cx="-108.04" cy="188.15" r="1.373" fill="#000000"/>
   </g>
  </g>
  <path d="m50.363 191.63-3.0737 2.9907-2.1555-0.19657-0.56163 0.4651-0.0797 0.59474-3.4938 2.8934-0.68508 1.0738-0.16053 1.0026 5.9221 7.1509 1.0984 0.10316 0.55509-0.4597 0.05276-0.5611 3.546-2.9367 0.69814-1.0846 0.20087-2.137 3.0115-3.0114" fill="none"/>
  <path d="m91.88 155.28 0.06332-0.61684-2.4152-2.9163-1.6036-0.73075-1.4087 0.18675-5.4856 4.5429-1.9225 2.0656-0.37498 0.85003 0.33116 2.1148 2.477 2.991 1.0423 0.70016 1.023 0.60052 0.31165-0.25808" fill="none"/>
  <g>
   <circle transform="rotate(-39.63)" cx="-34.183" cy="177.59" r="3.1597" fill="#ffdd55"/>
   <g>
    <path d="m69.224 161.54-0.98857-1.1937 2.6529-2.197 0.23711 0.28631 0.60572 0.0568 3.8108-3.1559 0.4809 0.58067z" fill="#ffd42a"/>
    <path d="m78.113 150.06-0.90044-1.0873 0.05879-0.6249 1.4373-1.1903 0.58554 0.055 1.9513 2.3562-0.0535 0.56884 2.6922 3.2508-0.05087 0.54137 1.5713 1.8973c-0.34271 0.18979-0.63546 0.43353-0.88026 0.72901l-1.5804-1.9083-0.52657-0.0496-2.6889-3.2468-0.57978-0.044z" fill="#ffd42a"/>
    <path d="m75.342 148.49 0.31887-0.26406 0.94343-1.7722 0.85295-0.23299 1.0945 0.112 0.05653-0.5698-0.05597 0.56384 0.25853 0.29233-2.9693 2.4649z" fill="#ffdd55"/>
   </g>
  </g>
  <g fill="#ffd42a">
   <path d="m75.342 148.49-0.87621 0.72564 3.9291 4.7444 0.87218-0.73051z"/>
   <path d="m74.466 149.21-0.97079-1.1722-0.85548 0.70848-0.10293 0.55038 4.666 5.6341 1.1921-0.97669-3.9291-4.7444"/>
   <path d="m68.236 160.34-0.88111 0.72969-0.68288-0.82457-1.2709-1.5347 3.533-2.9259 1.9545 2.3586z"/>
  </g>
  <g>
   <path d="m66.082 159.54-0.3608 0.2988 0.60167 0.72653 0.36081-0.29881z" fill="#000000"/>
   <path d="m75.542 155.33-3.1865-3.8477-1.1017-0.10343-1.1637 0.96369 0.26004 0.31401-0.75976-0.91741 2.946-2.4421 4.6659 5.6341-1.1791 0.98001z" fill="#ffdd55"/>
   <path d="m69.591 151.74-0.52268-0.0492-1.193 0.98798-0.10088 1.0734 0.40783 0.49246 0.54563 0.0514 0.14764 0.17825-0.036 1.1968 2.2863 2.7592 0.60572 0.0569 3.8108-3.1559-3.1865-3.8477-1.1017-0.10343-1.1637 0.96369-0.49972-0.60341" fill="#ffd42a"/>
  </g>
  <g fill="none">
   <path d="m68.875 154.48 0.41913 0.50613 0.87314-0.72312-1.7063-2.0604-0.58621 0.48196-0.10087 1.0734 0.40782 0.49244 0.54563 0.0514z"/>
   <g stroke-opacity=".62745">
    <path d="m79.93 147.17 3.7196-3.0804 0.05354-0.56983 0.32324-0.2677 0.04862-0.51707 0.88084-0.72947 0.54767 0.0514 0.28226-0.23376-0.49381-0.59627-0.53296-0.0607-0.72328-0.86485"/>
    <path d="m83.703 143.52-0.49906-0.60262"/>
    <path d="m82.548 141.53 0.52452 0.63335"/>
    <path d="m77.943 149.83 0.30939-0.25622 0.0504-0.53607 0.89353-0.73997 0.54872 0.0516 0.28862-0.239"/>
   </g>
  </g>
  <g>
   <path d="m91.829 159.35 0.70307 0.84894 2.0533 4.3272 0.21721 0.86051-0.32937 3.1517-2.0121 3.1471-5.2603 4.3564-1.7664 0.37294-1.4995-0.0959-2.3429-1.0543-2.2444-2.7102-1.4953-0.14057 2.6888-2.6258-0.0075 1.7788 0.22985 0.27754-0.11192 1.0946 1.4954 1.8057 2.4998 1.051 2.0388-0.32325 5.3484-4.4294 1.912-3.0752 0.22383-2.1891-0.18364-0.83325-1.4197-1.7143-1.6972-0.77981-2.2564-0.21209 1.4172-1.326z" fill="#ffdd55"/>
   <path d="m84.199 166.36 0.60574 0.73143-0.11831 1.0668 0.48133 0.58123-0.04827 0.51336 0.9762 1.1788 0.57117 0.13801 0.4624 0.55836 0.79255 0.34548 1.0775 0.10127 0.24472 0.29551-0.28898 0.23934-1.6505-0.15518-0.72354-0.27879-1.0424-0.66708-1.0276-1.2408-0.47727-1.2011-0.42473-1.696z" fill="#ffdd55"/>
   <g stroke-opacity=".62745">
    <path d="m71.959 149.79 4.6579 5.6244" fill="none"/>
    <path d="m72.557 151.81-2.6136 2.1645" fill="#ffd42a"/>
    <path d="m70.35 152.66-0.87737 0.72663" fill="none"/>
   </g>
  </g>
  <g>
   <path d="m117.36 119.18-2.9267-3.534 1.1799-0.97717 0.52677 0.0496 2.6879 3.2456z" fill="#ffdd55"/>
   <path d="m118.82 117.97-2.4422-2.949 10.055-8.3268 0.75477 0.91141-1.7314-2.0907 0.0492-0.52257 1.1903-0.98577 0.55121 0.0518 8.557-7.0865 0.0527-0.55962 3.8311-3.1727 0.5735 0.05379 3.4643-2.3914 0.2516 0.3038-0.1557 1.6561 0.15613-1.6611-0.98578-1.1903 0.3093-0.25618 0.10178-1.083 0.87964-0.72847 1.6422 0.15436 0.7256 0.87618 0.53204 0.04996 2.6789 3.2348z" fill="#ffdd55"/>
   <path d="m126.7 104-0.49687-0.59993 0.15105-1.6066 1.783-1.4766 0.55874 0.0525 0.7188 0.86792 0.0641 0.79064-0.18933 0.16149-0.74212-0.20072-0.62003 0.51351 0.0739 0.75457-0.18902 0.15606-0.73733-0.19861-0.60829 0.50377z" fill="#ffe680"/>
   <path d="m126.46 103.72 0.60827-0.50375-0.75245-0.90858-0.1191 1.0945z" fill="#ffdd55"/>
   <path d="m129.17 100.94 6.2304-5.1597 7.5948-5.771 0.73369 0.89159-3.4643 2.3914-0.5735-0.05379-3.831 3.1727-0.0526 0.55961-6.3626 5.2692 0.0329-0.20657-0.0641-0.79063z" fill="#ffeeaa"/>
  </g>
  <path d="m144.12 89.548 0.0685-0.55918 0.26284-0.21769 0.5447 0.05119 0.2711 0.32733-0.0518 0.55141-0.25102 0.20789-0.57455-0.03255z" fill="none"/>
  <g>
   <path d="m147.18 89.018 1.4654-1.2136 2.6807 3.237-1.4671 1.2115z" fill="#ffd42a"/>
   <path d="m160.1 83.763-8.7712 7.2787-2.6808-3.237-0.24028-0.29017 0.0511-0.54171 8.5683-7.0889 28.79-21.838 0.511 0.05652 2.4469 2.9575z" fill="#ff7f2a"/>
   <path d="m186.33 58.102 0.0488-0.52037 1.5122-1.2524 0.49274 0.04634 7.3534 8.8792-0.0524 0.55826-1.4384 1.1912-0.57108-0.03041z" fill="#ffd42a"/>
   <path d="m188.38 56.376 0.0488-0.52037 1.5122-1.2524 0.49273 0.04634 7.3534 8.8792-0.0524 0.55825-1.4384 1.1912-0.57104-0.03041z" fill="#ffd42a"/>
   <path d="m197.79 63.529 17.451-14.452-1.856-2.2412-0.34147-0.41375-0.73846 1.1203-16.463 13.634z" fill="#ff7f2a"/>
   <path d="m195.84 61.176 16.463-13.634 0.73847-1.1203-0.731-0.88268-1.2264 0.53106-16.463 13.64z" fill="#ffdd55"/>
   <path d="m194.68 56.14-1.4596-1.7625 15.665-12.973 1.4606 1.7642" fill="#ffd42a"/>
   <path d="m192.9 57.621 17.451-14.452 1.6208 1.9571 0.34285 0.4126-1.2383 0.51674-16.463 13.634z" fill="#ff7f2a"/>
   <path d="m192.9 57.621-2.1923-2.6472 1.197-0.99131 1.0774 0.10127 1.703 2.0563z" fill="#ff7f2a"/>
   <path d="m208.89 41.405 0.10086-1.073 2.6555-2.1991 0.53649 0.05046 3.5546-2.9438 0.0575-0.54264 2.6446-2.1902 1.1044 0.0974 1.4656 1.7697-0.28888 0.23923-0.54767-0.05147-9.4782 7.8494-0.0541 0.51959-0.28978 0.23882z" fill="#ffdd55"/>
   <path d="m211.76 38.271 1.5995 1.9314 4.1491-3.4362-1.6107-1.9437-0.16119 0.4173-3.5546 2.9438z" fill="#ffeeaa"/>
   <path d="m213.36 40.202-2.6655 2.2086-0.0541 0.51958-0.28978 0.23882 4.8921 5.9073 0.2554 0.30842 0.58675 0.05512 2.8988-2.4007 0.0525-0.55717 3.5868-2.9705 0.55823 0.05244 2.8924-2.3954 0.057-0.60729-5.121-6.1879-0.28887 0.23923-0.54769-0.05147-2.6635 2.2047z" fill="#ffd42a"/>
   <path d="m213.36 40.202 0.92771 1.1202 0.92217 0.34271 0.40325 0.14968 0.77134-0.13083 1.0592-0.87717 0.95705-0.79257 0.27285-0.73393-0.0724-0.4236-0.16428-0.97036-0.92775-1.1202z" fill="#ffe680"/>
   <path d="m218.88 46.91-1.0947-1.3218-0.16482-0.96988-0.072-0.42407 0.27226-0.73344 2.0162-1.6698 0.7719-0.13131 0.40266 0.15016 0.92276 0.34223 1.0813 1.3057-0.38938 0.05388-3.5868 2.9705z" fill="#ffe680"/>
   <path d="m214.03 44.611 0.0258-0.5292 0.33412-0.27672 0.48041 0.04964 0.29738 0.35909-0.0283 0.50951-0.33037 0.2736-0.51315-0.0633z" fill="#ffd42a"/>
   <path d="m224.92 39.098 21.987-18.209 0.77757-0.13194 3.4822-2.8838-0.98196-1.1857-3.4816 2.8845-0.2862 0.72524-21.985 18.207z" fill="#ffe680"/>
  </g>
  <g fill="#ffdd55">
   <path d="m223.68 37.6 2.0598-1.7059 0.7499 0.90551-2.0587 1.7044z"/>
   <path d="m225.74 35.895 2.6694-2.2106 0.7499 0.9055-2.6682 2.2092z"/>
   <path d="m228.41 33.684 5.0151-4.1534 0.74991 0.90551-5.014 4.1519z"/>
  </g>
  <g>
   <path d="m233.42 29.531-0.71391-0.86202-9.741 8.0671 0.71043 0.8649c3.2481-2.6899 6.4962-5.3799 9.7443-8.0699z" fill="#ffd42a"/>
   <path d="m232.71 28.666-0.73098-0.88265-1.5892 0.79344-8.4146 6.9681 0.99012 1.1913z" fill="#ffdd55"/>
   <path d="m221.98 35.545-2.1988-2.6551 22.458-18.599 2.4554 2.9648-12.71 10.527-1.5891 0.79356z" fill="#ffd42a"/>
   <path d="m244.69 17.256 0.49571 0.06769 5.3214-4.407 0.0913-0.57244-2.4593-2.9696-0.5554-0.023469-5.3189 4.4049-0.0304 0.53506z" fill="#ffdd55"/>
   <path d="m248.14 9.3746 2.4593 2.9696 2.6612-2.2039 0.0347-0.54641-1.9488-2.3532-0.54199-0.073521z" fill="#ffd42a"/>
   <path d="m242.09 12.926-3.4248-4.1355 5.017-4.1548 3.4247 4.1356" fill="#ffdd55"/>
   <path d="m242.27 13.756 0.30284-0.25079-0.47958-0.57908 5.0168-4.1547 0.47898 0.57956z" fill="#ffd42a"/>
  </g>
  <g fill="none" stroke-opacity=".62745">
   <path d="m143.97 91.687 3.2184-2.6689"/>
   <path d="m143.79 92.849-17.612 13.502"/>
   <path d="m127.19 107.6 1.6848 2.0343"/>
   <path d="m126.93 107.28 21.951-16.194"/>
   <path d="m195.51 58.961 1.2169 1.4693"/>
   <path d="m230.57 28.491 0.94838 1.1452"/>
  </g>
 </g>
 <g stroke-linecap="square" stroke-width=".46047">
  <g>
   <path d="m232.25 30.519 0.73043 0.88198" fill="#ffdd55" stroke="#000000" stroke-opacity=".62745"/>
   <path d="m127.93 102.5 0.0738 0.75457 0.0847 0.10213 1.2886-1.0672-0.085-0.10233-0.74212-0.20073z" fill="#ffcc00" stroke="#000100"/>
   <path d="m25.789 204.85c-1.7225 2.4354 21.351 17.79 23.318 15.357 0.3124-0.38631 9.393-15.921 9.5245-16.275 1.587-4.2741-16.078-14.85-16.543-14.636-0.48588 0.22277-16.132 15.317-16.3 15.554z" fill="#ff2a2a" stroke="#000000"/>
  </g>
  <g fill="none" stroke="#000000">
   <path d="m31.539 199.4c2.0132 4.718 13.622 9.4291 21.049 14.143"/>
   <path d="m55.468 209.04c-7.0434-3.6381-13.37-8.9007-19.974-13.536"/>
   <path d="m38.528 192.64c6.4502 4.3409 13.661 7.7882 18.373 13.783"/>
  </g>
  <g stroke="#000000">
   <path d="m40.902 190.32c-1.0186 3.0602 9.0841 25.43 10.503 25.563 0.46463 0.0436 1.9983-2.0874 2.1405-3.4241 0.12342-1.1596-6.541-18.449-7.7198-21.02-0.3108-0.67789-2.3363-2.0985-3.6931-2.226-0.28326-0.0266-1.0559 0.5835-1.2302 1.1068z" fill="#ff2a2a"/>
   <path d="m58.799 204.08c-2.728 1.7205-29.484-0.60422-29.952-1.9497-0.15345-0.44073 1.5493-2.4393 2.8133-2.8969 1.0966-0.39698 22.097-0.19655 24.876 0.33355 0.73252 0.13979 2.5961 1.767 3.0442 3.054 0.09354 0.26868-0.31418 1.1648-0.78075 1.4591z" fill="#ff2a2a"/>
   <path d="m27.473 203.43c9.05 4.2848 16.369 9.2029 22.628 14.508" fill="none"/>
   <path d="m47.404 220.83c-2.8658-1.4796-14.077-23.612-13.154-24.697 0.30216-0.35567 2.6175-2.8219 3.262-2.6992 1.1457 0.21796 12.702 21.084 13.653 23.748 0.2508 0.70231-1.0862 2.3355-1.9685 3.3742-0.18418 0.21687-1.3022 0.52797-1.7923 0.2749z" fill="#ff2a2a"/>
  </g>
 </g>
</svg>
