<?xml version="1.0" encoding="UTF-8"?>
<!-- Created with Inkscape (http://www.inkscape.org/) -->
<svg version="1.1" viewBox="0 0 256 256" xmlns="http://www.w3.org/2000/svg" xmlns:cc="http://creativecommons.org/ns#" xmlns:dc="http://purl.org/dc/elements/1.1/" xmlns:rdf="http://www.w3.org/1999/02/22-rdf-syntax-ns#" xmlns:xlink="http://www.w3.org/1999/xlink">
 <style>svg { cursor: default; }</style>
 <defs>
  <linearGradient id="innoGrad3">
   <stop stop-color="#fea" offset="0"/>
   <stop stop-color="#fd5" offset="1"/>
  </linearGradient>
  <radialGradient id="radialGradient12107-9-9-6" cx="-13.126" cy="334.09" r="20.308" gradientTransform="matrix(1 0 0 .99998 0 .0052678)" gradientUnits="userSpaceOnUse" xlink:href="#innoGrad3"/>
  <linearGradient id="linearGradient2555" x1="171.29" x2="173.28" y1="190.11" y2="190.11" gradientUnits="userSpaceOnUse">
   <stop stop-color="#fd5" offset="0"/>
   <stop stop-color="#fea" offset="1"/>
  </linearGradient>
 </defs>
 <metadata>
  <rdf:RDF>
   <cc:Work rdf:about="">
    <dc:format>image/svg+xml</dc:format>
    <dc:type rdf:resource="http://purl.org/dc/dcmitype/StillImage"/>
    <dc:title/>
   </cc:Work>
  </rdf:RDF>
 </metadata>
 <g>
  <g transform="matrix(.54364 -.57758 -.57758 -.54364 52.22 195.45)">
   <path d="m131.85 56.365c0.16679-2.2706-8.1854-1.5165-13.065-2.5914 4.8935 17.347 13.277 4.5713 13.065 2.5914z" fill="#fca" stroke="#000" stroke-linejoin="round" stroke-opacity=".96471" stroke-width=".13223" style="paint-order:markers fill stroke"/>
   <g>
    <path d="m131.96 56.458c-0.82195-2.8769-8.022-0.98328-13.102-2.7454 5.4766 18.187 12.681 4.3746 13.102 2.7454z" fill-opacity=".502" fill-rule="evenodd" opacity=".601" stroke-width="1.1051"/>
   </g>
  </g>
  <g transform="matrix(.54364 -.57758 .57758 .54364 15.367 160.99)">
   <path d="m131.85 56.365c0.16679-2.2706-8.1854-1.5165-13.065-2.5914 4.8935 17.347 13.277 4.5713 13.065 2.5914z" fill="#fca" stroke="#000" stroke-linejoin="round" stroke-opacity=".96471" stroke-width=".13223" style="paint-order:markers fill stroke"/>
   <g>
    <path d="m131.96 56.458c-0.82195-2.8769-8.022-0.98328-13.102-2.7454 5.4766 18.187 12.681 4.3746 13.102 2.7454z" fill-opacity=".502" fill-rule="evenodd" opacity=".601" stroke-width="1.1051"/>
   </g>
  </g>
  <path d="m31.116 28.491c-7.9091-3.2615-17.821-10.21-28.712-26.111-18.202 76.202 151.93 178.22 140.33 204.15l21.247-30.183c-20.096-37.256-99.955-114.28-132.87-147.86z" fill="#f55" stroke="#000" stroke-linejoin="round" stroke-width=".448"/>
  <path d="m52.247 78.144c8.8233 8.0591 44.365 38.162 53.616 50.387 8.2242 10.452-14.683-5.724-14.5 1.024-18.594-5.2189-39.789-26.331-39.116-51.411z" fill-opacity=".502" opacity=".162" stroke-width=".87652"/>
  <path d="m146.18 200.4c7.4616-24.819-17.407-44.484-25.983-53.934l-21.48-23.247c-43.41-42.13-79.587-72.261-81.131-101.45 2.6869 4.2647 11.06 6.3043 13.531 6.7239l60.234 60.043 28.25 26.941 6.467 6.3388 9.7074 9.1165 15.728 13.92c0.6493 3.6296-0.17245 6.2148-5.0164 13.202l19.285 13.546c-4.6242 8.2174-10.865 18.454-15.619 24.439-0.0745 0.0937-1.1545-0.53391-1.2277-0.4419-1.4099 1.7713-1.9425 3.8208-2.7439 4.8033z" fill="#fca" fill-rule="evenodd" stroke="#000" stroke-linecap="round" stroke-linejoin="round" stroke-width=".375"/>
  <path d="M 17.586,21.768 C 8.727,14.1998 2.404,2.381 2.404,2.381" fill="none" stroke="#000" stroke-width=".259"/>
  <g fill-opacity=".502">
   <path d="m105.48 155.22c3.1756 3.0799 10.838 12.114 30.059 25.532 4.0463 2.805 2.2279 3.1638 1.4043-3.4157-12.066-11.376-25.848-23.404-31.463-22.117z" opacity=".162" stroke-width=".32448"/>
   <path d="m2.4037 2.3807c6.6859 11.353 8.3885 12.816 15.182 19.387 1.4428 1.7863 2.7692 4.2428 13.531 6.7239-10.529-4.6297-17.558-10.324-28.712-26.111z" opacity=".172" stroke-width=".375"/>
   <path d="m4.6444 11.937c8.8233 8.0591 6.8676 8.0902 12.894 16.089 1.1014 5.4586 4.681 11.795 11.606 24.552-18.594-5.2189-25.173-15.561-24.5-40.641z" opacity=".122" stroke-width=".87652"/>
  </g>
  <g stroke="#000">
   <path transform="matrix(-.62108 -.78374 -.77921 .62677 0 0)" d="m-333.5-42.33a7.953 7.9345 0 0 1-5.8734 7.6585 7.953 7.9345 0 0 1-8.945-3.6533 7.953 7.9345 0 0 1 1.1954-9.569 7.953 7.9345 0 0 1 9.5702-1.3511l-3.9001 6.9149z" fill="#fea" stroke-linecap="square" stroke-width=".35728" style="paint-order:stroke fill markers"/>
   <path transform="matrix(-.65462 -.75596 -.75596 .65462 0 0)" d="m-335.9-27.431a6.7593 6.7593 0 0 1-4.653 6.4227 6.7593 6.7593 0 0 1-7.5529-2.4199 6.7593 6.7593 0 0 1-0.0542-7.9309 6.7593 6.7593 0 0 1 7.5191-2.5228l-2.0184 6.4509z" fill="none" stroke-dasharray="1.34087904, 1.34087904" stroke-dashoffset="2.76" stroke-linecap="square" stroke-width=".16761" style="paint-order:stroke fill markers"/>
   <path d="m178.23 185.81c-1.6295-1.0377-6.0421 1.4449-4.8061 5.2825-2.7572 1.5697-3.229-1.5226-5.7138-2.4086l5.1866 11.157c1.9798 5.3852 21.386 19.192 40.805 36.283 0.0462 0.0276 11.025 6.6325 18.461 7.6794-0.93822-3.1494-0.47932-5.124-0.47932-5.124 0.0823-0.85387 0.44304-1.8519 1.8614-4.49-15.622-12.145-15.712-9.7104-23.941-18.79-10.444-14.991-10.644-13.579-26.722-23.862-0.14636-0.0936-4.503-5.631-4.6524-5.7262zm46.768 62.616c-3.9307 0.29869-6.911-1.5645-15.854-6.3474-17.567-19.477-26.443-21.549-39.18-23.458l-3.7331-9.3501c-0.90036-4.5975-9.9951-9.4681-20.055-8.8698 9.356-20.35-6.0616-35.375-14.927-47.23-0.54352-7.6906 0.73033-15.882 4.1358-22.747 3.2821 2.8788 9.513 7.9815 9.513 7.9815 2.396 0.15578 3.2889 1.0923 4.5838 4.2676l4.6398 4.2047c2.3548 0.066 1.44-0.85403 4.5838 4.2676 15.807 18.748 12.087 18.259 18.799 20.399l1.874 1.5834c1.886 8.5311 16.327 16.888 23.683 20.19 18.309 20.817 23.589 26.94 34.515 31.194l1.2191 6.6942 16.003 18.542c-1.79 1.9394-3.8467 3.5168-8.1585 4.9317-3.3226 1.0903-5.2332-7.5014-21.641-6.2546z" fill="#ffe680" fill-rule="evenodd" stroke-linecap="round" stroke-width=".352"/>
  </g>
  <g>
   <path d="m164.39 162.96c-9.8633-6.1019-17.234-16.576-22.283-18.071-3.1057-0.93489-7.7184-7.7309-5.7433-12.806 1.2015 0.77456 4.0579 3.4861 7.525 7.0079 2.7454 0.60172 4.3143 2.0361 4.2854 4.4362 1.7667 1.8592 3.0996 2.4375 4.8483 4.3433 3.0954-1.1052 2.7724 0.76955 3.2812 3.5964 4.3139 4.6512 10.039 12.701 8.0865 11.493z" opacity=".054" stroke-width=".56387"/>
   <path d="m162.97 195.46c-0.90515-3.6003-2.22-6.5136-4.7311-7.421-1.534-0.56304-1.8643-2.8644 2.9055-3.1198 1.1741 1.3276 2.2538 12.244 1.8256 10.541z" opacity=".054" stroke-width=".29896"/>
   <path d="m168.55 201.7c-11.47 5.7984-1.2855-8.7803-3.7041-13.601 0.70312 0.0661 1.2568-0.4032 2.0234-0.45199 0.2349 0.0497 0.62508-1.9753 1.1584-2.3945 1.0636-0.66299 3.8816-6.2436 3.5931-5.7728 0.84743 0.64783-2.4722 3.4008-4.2392 8.9058-0.2446 0.76209-0.0969 1.7464-0.28295 2.6082-0.30418 1.4089 3.7338 9.5525 1.4514 10.706z" opacity=".054" stroke-width=".55097"/>
  </g>
  <g fill="none" stroke="#000" stroke-linecap="round" stroke-linejoin="round" stroke-width=".749">
   <path d="m140.76 160.92c0.65469 0.63503 1.3094 1.2701 1.9641 1.9051" opacity=".679"/>
   <path d="m142.62 158.69c0.65468 0.63503 1.3094 1.2701 1.9641 1.9051" opacity=".696"/>
   <path d="m139.16 157.36c0.65468 0.63504 1.3094 1.2701 1.9641 1.9052" opacity=".652"/>
   <path d="m136.64 152.72c0.65469 0.63504 1.3094 1.2701 1.9641 1.9052" opacity=".679"/>
   <path d="m134.85 154.6c0.65468 0.63503 1.3094 1.2701 1.9641 1.9051" opacity=".672"/>
   <path d="m133.18 151.17c0.65468 0.63503 1.3094 1.2701 1.9641 1.9052" opacity=".672"/>
  </g>
  <g>
   <path d="m161.43 199.41c-4.1225 1.4724-10.212 0.76578-5.3838-3.6134 1.7432 0.32014 5.8776 2.1521 5.3838 3.6134z" opacity=".054" stroke-width=".29896"/>
   <g stroke-width=".2122">
    <path d="m173.28 191.11c-0.4762-2.4587 0.74545-1.9936-1.2268-2.0256-1.9103 0.0962 0.24741 2.4334 1.2268 2.0256z" fill="url(#linearGradient2555)" opacity=".439"/>
    <path d="m201.22 195.04c-7.8325-3.9082-15.675-12.185-17.992-14.704-2.3666-2.5728-3.9105-7.2694-3.9105-7.2694s-5.7444 6.1218-3.2699 8.8795 24.085 12.478 27.091 11.56z" opacity=".054"/>
    <path d="m237.58 224.51c-13.783-5.396-21.308-16.969-24.259-19.616-1.9712-2.584-6.95-7.5684-6.95-7.5684s2.6313 10.626 5.1058 13.384c7.1161 4.5784 19.226 19.204 26.104 13.801z" opacity=".054"/>
   </g>
   <g>
    <path d="m206.17 205.4c-13.67-13.546-16.051-8.3757-18.993-10.96-1.0926-0.68702-4.727-3.1834-4.727-3.1834s3.021 0.10831 5.3428 0.31679c4.702 0.42306 11.449 5.9238 18.377 13.827z" opacity=".054" stroke-width=".11579"/>
    <path d="m207.21 230.7c-4.9938-4.1446-24.947-20.988-27.493-23.272-3.3103-2.9695-6.5226-6.7499-6.5226-6.7499s3.5111 10.117 6.4102 12.406 24.944 19.158 27.605 17.616z" opacity=".054" stroke-width=".2122"/>
    <path d="m173.38 213.65c2.7844 1.4381 6.7461 0.60842 14.589 6.8768 1.7028 1.3609 3.0509 2.6989 3.0509 2.6989s-6.3256-6.4245-10.685-8.0532c-1.6475-0.61544-5.8355-1.7411-6.9542-1.5224z" opacity=".054" stroke-width=".10424"/>
    <path d="m209.13 242.11c2.4637 0.6588 3.6807 2.9722 12.441 5.8794 1.9941 0.66179 9.1064 0.31399 9.1064 0.31399s-7.4246-4.6618-11.759-5.3996c-1.6841-0.28662-9.4066-2.3066-9.7879-0.79376z" opacity=".054" stroke-width=".10424"/>
    <path d="m242.47 253.34c1.5365 0.94486 1.9664 2.5679 7.0424 0.19452 1.3274-0.62062 5.3989-3.7503 5.3989-3.7503-0.96111-0.5407-1.4875-2.379-2.2152-2.0049-2.33 1.1978-9.0702 4.5629-10.226 5.5606z" opacity=".054" stroke-width=".091149"/>
   </g>
  </g>
  <g transform="matrix(.088561 .30143 .30143 -.088561 145.53 274.72)" fill="url(#radialGradient12107-9-9-6)">
   <circle transform="rotate(-97.06)" cx="-329.84" cy="-53.926" r="17.906" fill="#000" stroke="#000" stroke-linecap="square" stroke-width="1.0736" style="paint-order:stroke fill markers"/>
  </g>
  <path d="m250.8 245.1c0.16161 1.1386 3.5999 1.0619-3.0076 3.5589-0.99183 0.37482-5.0497 0.0544-5.0497 0.0544s1.8133-1.5658 3.9761-2.2069c1.7618-0.5222 3.0453-2.8353 4.0812-1.4064z" fill-opacity=".01005" stroke-width=".06547"/>
  <path d="m224.23 243.69c1.0508 0.28095 1.5699 1.2677 5.3062 2.5076 0.85053 0.28223 4.1602 6e-3 4.1602 6e-3s-2.9917-2.8336-4.8405-3.1482c-0.71829-0.12224-4.4633-0.0104-4.6259 0.63488z" opacity=".054" stroke-width=".04446"/>
  <g>
   <circle transform="matrix(-.75439 .65642 .65642 .75439 0 0)" cx="-26.506" cy="342.89" r="4.9753" stroke="#000" stroke-linecap="square" stroke-width=".29831" style="paint-order:stroke fill markers"/>
   <circle transform="matrix(.24407 .96976 .96976 -.24407 0 0)" cx="293.78" cy="178.78" r="4.5422" fill="#f55" stroke="#000" stroke-linecap="square" stroke-width=".27234" style="paint-order:stroke fill markers"/>
   <g transform="matrix(-.15655 .33446 .33446 .15655 131.33 193.14)" fill="none" opacity=".534" stroke-width=".21479">
    <path transform="rotate(-97.06)" d="m-314.28-62.782a17.906 17.906 0 0 1-2.0738 20.634 17.906 17.906 0 0 1-20.165 4.8378 17.906 17.906 0 0 1-11.21-17.447l17.887 0.83235z" fill="none" stroke="#000" stroke-linecap="square" stroke-width=".21479" style="paint-order:stroke fill markers"/>
   </g>
  </g>
  <g stroke="#000">
   <g transform="matrix(.73014 .54686 -.54686 .73014 194.51 -70.061)">
    <g fill="#fca" fill-rule="evenodd" stroke-width=".15">
     <path d="m248.06 234.66-8e-3 -5.131 2.1824 0.0424-0.042 5.1445z"/>
     <path d="m246.16 235.1-0.0102-6.2072c0.94719-0.20665 1.8178-0.15823 2.6402 0.0513l-0.0508 6.2236z"/>
     <path d="m249.23 235.12 5e-3 -6.1447c0.92862-0.17674 1.7788-0.16576 2.6246-0.0112l-0.0508 6.2236z" stroke-linecap="round" stroke-linejoin="round"/>
    </g>
    <path d="m247.05 234.67c0.3241 0.11562 0.36804 0.10272 0.68813 0.0125l0.0195-1.8937c-0.55656-0.13816-0.48086-0.0162-0.67005-3e-3z" opacity=".831" stroke-linecap="round" stroke-linejoin="round" stroke-opacity=".86275" stroke-width=".2" style="paint-order:stroke markers fill"/>
    <path d="m250.22 234.72c0.3241 0.11562 0.36804 0.10272 0.68813 0.0125l0.0195-1.8937c-0.55656-0.13816-0.48086-0.0162-0.67005-3e-3z" opacity=".831" stroke-linecap="round" stroke-linejoin="round" stroke-opacity=".86275" stroke-width=".2" style="paint-order:stroke markers fill"/>
   </g>
   <g fill="#f55" stroke-linecap="square">
    <circle transform="matrix(.24407 .96976 .96976 -.24407 0 0)" cx="293.78" cy="178.76" r="4.2387" stroke-width=".25414" style="paint-order:stroke fill markers"/>
    <circle transform="matrix(.24407 .96976 .96976 -.24407 0 0)" cx="293.74" cy="178.76" r="2.6647" stroke-width=".38686" style="paint-order:stroke fill markers"/>
    <circle transform="matrix(.24407 .96976 .96976 -.24407 0 0)" cx="293.79" cy="178.78" r="1.976" stroke-width=".34554" style="paint-order:stroke fill markers"/>
   </g>
   <g transform="matrix(.83283 -.024632 .024632 .83283 22.586 42.91)">
    <circle transform="matrix(-.63535 .77222 .77222 .63535 0 0)" cx="37.841" cy="225.98" r="9.449" fill="#f55" stroke-linecap="square" stroke-width=".99748" style="paint-order:stroke fill markers"/>
    <circle transform="matrix(-.63535 .77222 .77222 .63535 0 0)" cx="37.841" cy="225.98" r="8.7643" fill="#f55" stroke-dasharray="2.09711131, 2.09711131" stroke-dashoffset="3.4079" stroke-linecap="square" stroke-miterlimit="3.6" stroke-width=".52428" style="paint-order:stroke fill markers"/>
    <g>
     <circle transform="matrix(-.63535 .77222 .77222 .63535 0 0)" cx="37.91" cy="226.11" r="5.9382" fill="#fd5" stroke-linecap="square" stroke-width=".35604" style="paint-order:stroke fill markers"/>
     <circle transform="rotate(-45.04)" cx="-15.951" cy="228.57" r="8.0859" fill="#f55" stroke-linecap="round" stroke-opacity=".9799" stroke-width=".25554" style="paint-order:normal"/>
     <g stroke-linecap="square">
      <g transform="matrix(-.034717 .36159 .36159 .034717 29.298 166.05)">
       <g fill="url(#radialGradient12107-9-9-6)" fill-rule="evenodd" stroke-dashoffset=".78">
        <g stroke-width=".62983">
         <rect transform="rotate(44.983)" x="224.03" y="225.57" width="5.7121" height="39.985" fill="#000006" style="paint-order:stroke markers fill"/>
         <rect transform="rotate(90.007)" x="331.24" y="-6.9092" width="5.7121" height="39.985" fill="#000" style="paint-order:stroke markers fill"/>
         <rect transform="rotate(134.99)" x="242.68" y="-246.91" width="5.7121" height="39.985" fill="#000008" stroke-opacity=".86275" style="paint-order:stroke markers fill"/>
        </g>
        <rect x="-15.982" y="314.1" width="5.7121" height="39.985" fill="#030000" stroke-opacity=".98995" stroke-width=".63" style="paint-order:stroke markers fill"/>
       </g>
       <circle transform="rotate(-97.06)" cx="-329.84" cy="-53.926" r="17.906" stroke-width="1.0736" style="paint-order:stroke fill markers"/>
      </g>
      <circle transform="matrix(-.63535 .77222 .77222 .63535 0 0)" cx="37.909" cy="226.09" r="5.5414" fill="#f55" stroke-width=".33225" style="paint-order:stroke fill markers"/>
      <circle transform="matrix(-.63535 .77222 .77222 .63535 0 0)" cx="37.866" cy="226.09" r="3.4836" fill="#f55" stroke-width=".20887" style="paint-order:stroke fill markers"/>
     </g>
    </g>
   </g>
   <g transform="matrix(.53603 -.56924 .56924 .53603 -231.33 130.02)" stroke-linecap="round" stroke-linejoin="round">
    <path d="m288.28 406.7 7e-3 15.846c-0.73038 0.46128-1.3993 0.43801-2.0651 0.0445l0.0287-16.05z" fill="#fca" fill-rule="evenodd" stroke-width=".21367"/>
    <path d="m287.64 408.18c-0.37305-0.28065-0.42355-0.2489-0.79144-0.0268l-0.0174 4.6265c0.64045 0.3344 0.55307 0.037 0.77063 4e-3z" opacity=".831" stroke-opacity=".86275" stroke-width=".33524" style="paint-order:stroke markers fill"/>
   </g>
   <g fill="none">
    <g stroke-linecap="round" stroke-linejoin="round" stroke-width=".749">
     <path d="m151.73 172.03c0.65468 0.63504 1.3094 1.2701 1.9641 1.9052" opacity=".679"/>
     <path d="m153.59 169.8c0.65468 0.63503 1.3094 1.2701 1.9641 1.9051" opacity=".696"/>
     <path d="m150.13 168.47c0.65467 0.63503 1.3094 1.2701 1.9641 1.9051" opacity=".652"/>
     <path d="m147.61 163.82c0.65469 0.63503 1.3094 1.2701 1.9641 1.9051" opacity=".679"/>
     <path d="m145.82 165.71c0.65468 0.63503 1.3094 1.2701 1.9641 1.9052" opacity=".672"/>
     <path d="m144.15 162.28c0.65468 0.63502 1.3094 1.2701 1.9641 1.9051" opacity=".672"/>
    </g>
    <path d="m146.18 200.4c-1.1476 1.2872-2.2945 3.9943-3.4417 6.1309" stroke-width=".2"/>
   </g>
   <g transform="matrix(.24268 -.24302 .24302 .24268 115.4 219.17)" stroke-linecap="square">
    <circle transform="matrix(-.78193 .62336 .62336 .78193 0 0)" cx="-72.123" cy="137.72" r="10.957" stroke-width=".65698" style="paint-order:stroke fill markers"/>
    <g fill="#f55">
     <circle transform="matrix(.20213 .97936 .97936 -.20213 0 0)" cx="90.152" cy="126.63" r="10.004" stroke-width=".59979" style="paint-order:stroke fill markers"/>
     <circle transform="matrix(.20213 .97936 .97936 -.20213 0 0)" cx="90.15" cy="126.58" r="9.3351" stroke-width=".55971" style="paint-order:stroke fill markers"/>
     <circle transform="matrix(.20213 .97936 .97936 -.20213 0 0)" cx="90.078" cy="126.59" r="5.8686" stroke-width=".852" style="paint-order:stroke fill markers"/>
     <circle transform="matrix(.20213 .97936 .97936 -.20213 0 0)" cx="90.188" cy="126.63" r="4.3518" stroke-width=".761" style="paint-order:stroke fill markers"/>
    </g>
   </g>
  </g>
 </g>
 <style>svg { cursor: default; }</style>
 <style>svg { cursor: default; }</style>
 <style>svg { cursor: default; }</style>
 <style>svg { cursor: default; }</style>
 <style>svg { cursor: default; }</style>
 <style>svg { cursor: default; }</style>
 <style>svg { cursor: default; }</style>
 <style>svg { cursor: default;}</style>
 <style>svg { cursor: default; }</style>
 <style>svg { cursor: default; }</style>
 <style>svg { cursor: default; }</style>
 <style>svg { cursor: default; }</style>
 <style>svg { cursor: default; }</style>
 <style>svg { cursor: default; }</style>
 <style>svg { cursor: default; }</style>
 <style>svg { cursor: default;}</style>
 <style>svg { cursor: default; }</style>
 <style>svg { cursor: default; }</style>
 <style>svg { cursor: default; }</style>
 <style>svg { cursor: default; }</style>
 <style>svg { cursor: default; }</style>
 <style>svg { cursor: default; }</style>
 <style>svg { cursor: default; }</style>
 <style>svg { cursor: default; }</style>
 <style>svg { cursor: default; }</style>
 <style>svg { cursor: default; }</style>
 <style>svg { cursor: default;}</style>
 <style>svg { cursor: default; }</style>
 <style>svg { cursor: default; }</style>
 <style>svg { cursor: default; }</style>
 <style>svg { cursor: default; }</style>
 <style>svg { cursor: default; }</style>
 <style>svg { cursor: default; }</style>
 <style>svg { cursor: default; }</style>
 <style>svg { cursor: default;}</style>
 <style>svg { cursor: default; }</style>
 <style>svg { cursor: default; }</style>
 <style>svg { cursor: default; }</style>
 <style>svg { cursor: default; }</style>
 <style>svg { cursor: default; }</style>
 <style>svg { cursor: default; }</style>
 <style>svg { cursor: default; }</style>
 <style>svg { cursor: default; }</style>
 <style>svg { cursor: default; }</style>
 <style>svg { cursor: default;}</style>
 <style>svg { cursor: default; }</style>
 <style>svg { cursor: default; }</style>
 <style>svg { cursor: default; }</style>
 <style>svg { cursor: default; }</style>
 <style>svg { cursor: default; }</style>
 <style>svg { cursor: default; }</style>
 <style>svg { cursor: default; }</style>
 <style>svg { cursor: default;}</style>
 <style>svg { cursor: default; }</style>
 <style>svg { cursor: default; }</style>
 <style>svg { cursor: default; }</style>
 <style>svg { cursor: default; }</style>
 <style>svg { cursor: default; }</style>
 <style>svg { cursor: default; }</style>
 <style>svg { cursor: default; }</style>
 <style>svg { cursor: default; }</style>
 <style>svg { cursor: default; }</style>
 <style>svg { cursor: default; }</style>
 <style>svg { cursor: default;}</style>
 <style>svg { cursor: default; }</style>
 <style>svg { cursor: default; }</style>
 <style>svg { cursor: default; }</style>
 <style>svg { cursor: default; }</style>
 <style>svg { cursor: default; }</style>
 <style>svg { cursor: default; }</style>
 <style>svg { cursor: default; }</style>
 <style>svg { cursor: default;}</style>
 <style>svg { cursor: default; }</style>
</svg>
