<?xml version="1.0" encoding="UTF-8"?>
<svg version="1.1" viewBox="0 0 256 256" xmlns="http://www.w3.org/2000/svg" xmlns:cc="http://creativecommons.org/ns#" xmlns:dc="http://purl.org/dc/elements/1.1/" xmlns:rdf="http://www.w3.org/1999/02/22-rdf-syntax-ns#">
 <metadata>
  <rdf:RDF>
   <cc:Work rdf:about="">
    <dc:format>image/svg+xml</dc:format>
    <dc:type rdf:resource="http://purl.org/dc/dcmitype/StillImage"/>
    <dc:title/>
   </cc:Work>
  </rdf:RDF>
 </metadata>
 <g>
  <g stroke="#000">
   <path d="m103.87 3.2361c-1.1794 2.4893-2.2827 5.0194-3.3842 7.5448-0.11578 0.41073 0.41579 0.50088 0.70005 0.39662 3.7073-0.55172 7.6085 0.28757 10.836 2.1534 3.4962 2.0185 6.0791 5.418 7.3275 9.2123 0.46672 1.7266 0.84791 3.5106 0.752 5.2915-0.0714 4.2373-1.8417 8.4319-4.882 11.414-2.6268 2.6269-6.1491 4.333-9.8137 4.6979-1.8021 0.21426-3.6594 0.08036-5.4537-0.26766-0.34722-0.08434-0.42082 0.33799-0.2335 0.55508 1.25 2.8607 2.4707 5.7382 3.7618 8.5787 0.21088 0.28775 0.57456 0.0228 0.56393-0.27735 0.58991-2.0437 1.0303-4.1503 1.637-6.1745 0.20496 0.05875 0.31173-0.1722 0.38395-0.27487 3.1505 0.04911 6.3661-0.88447 8.9055-2.793 0.71985-0.49988 1.3323-1.1412 1.9955-1.7008 0.25065 0.09941 0.36732-0.25107 0.62655-0.09678 1.501 0.21396 3.014 0.55724 4.5171 0.76279 0.44898-0.17464-0.0434-0.73099-0.0835-1.0561-0.46671-1.3129-0.9577-2.6292-1.399-3.9441 0.21129-0.06302 0.1682-0.31317 0.12893-0.44644 1.3725-1.3447 2.3013-3.107 2.7083-4.9795 0.26408-0.03954 0.20018-0.39461 0.46481-0.42814 1.392-0.6221 2.838-1.1229 4.2181-1.7734 0.28894-0.36838-0.29988-0.51105-0.53937-0.63171-1.2448-0.57666-2.5593-1.0222-3.778-1.6415 0.0431-0.24504-0.30692-0.29339-0.2022-0.53958 0.1846-1.8252-0.12302-3.6615-0.62275-5.4139-0.47359-1.4333-1.2391-2.7471-2.1091-3.973 0.19965-0.13155 0.0451-0.3601 0.0239-0.4901 0.74709-1.3132 1.6511-2.5423 2.4008-3.8467 0.0144-0.50068-0.63107-0.16565-0.91764-0.1381-1.5326 0.32827-3.0621 0.67345-4.611 0.90106-0.0893-0.26211-0.40493-0.03933-0.4993-0.27014-2.5558-3.369-6.5037-5.6796-10.727-6.093-0.2528-0.062956-0.60168 0.029893-0.71652-0.25326-0.18071-0.049296-0.29552-0.10813-0.32433-0.31965-0.44303-1.2147-0.78703-2.4676-1.2813-3.6622-0.085-0.12477-0.27023-0.12324-0.37308-0.022939z" fill="#ffb380" stroke-width=".013559"/>
   <path d="m103.66 3.5135c1.1794 2.4893 2.2827 5.0194 3.3842 7.5448 0.11578 0.41073-0.41578 0.50088-0.70004 0.39662-3.7073-0.55172-7.6085 0.28757-10.836 2.1534-3.4962 2.0185-6.0791 5.418-7.3275 9.2123-0.46672 1.7266-0.84791 3.5106-0.752 5.2915 0.0714 4.2373 1.8417 8.4319 4.882 11.414 2.6268 2.6269 6.1491 4.333 9.8137 4.6979 1.8021 0.21426 3.6594 0.08036 5.4537-0.26766 0.34722-0.08434 0.42082 0.33799 0.2335 0.55508-1.25 2.8607-2.4707 5.7382-3.7618 8.5787-0.21088 0.28775-0.57456 0.0228-0.56393-0.27735-0.58991-2.0437-1.0303-4.1503-1.637-6.1745-0.20496 0.05875-0.31173-0.1722-0.38395-0.27487-3.1505 0.04911-6.3661-0.88447-8.9055-2.793-0.71985-0.49988-1.3323-1.1412-1.9955-1.7008-0.25065 0.09941-0.36732-0.25107-0.62655-0.09678-1.501 0.21396-3.014 0.55724-4.5171 0.76279-0.44898-0.17464 0.0434-0.73099 0.0835-1.0561 0.46671-1.3129 0.9577-2.6292 1.399-3.9441-0.21129-0.06302-0.1682-0.31317-0.12893-0.44644-1.3725-1.3447-2.3013-3.107-2.7083-4.9795-0.26408-0.03954-0.20018-0.39461-0.46481-0.42814-1.392-0.6221-2.838-1.1229-4.2181-1.7734-0.28894-0.36838 0.29988-0.51105 0.53937-0.63171 1.2448-0.57666 2.5593-1.0222 3.778-1.6415-0.0431-0.24504 0.30692-0.29339 0.2022-0.53958-0.1846-1.8252 0.12302-3.6615 0.62275-5.4139 0.47359-1.4333 1.2391-2.7471 2.1091-3.973-0.19965-0.13155-0.0451-0.3601-0.0239-0.4901-0.74709-1.3132-1.6511-2.5423-2.4008-3.8467-0.0144-0.50068 0.63107-0.16565 0.91764-0.1381 1.5326 0.32827 3.0621 0.67345 4.611 0.90106 0.0893-0.26211 0.40493-0.03933 0.4993-0.27014 2.5558-3.369 6.5037-5.6796 10.727-6.093 0.2528-0.06296 0.60168 0.02989 0.71652-0.25326 0.18071-0.0493 0.29552-0.10813 0.32433-0.31965 0.44303-1.2147 0.78703-2.4676 1.2813-3.6622 0.085-0.12477 0.27023-0.12324 0.37308-0.02294z" fill="#ffb380" stroke-width=".013559"/>
   <g fill="none" stroke-width="1px">
    <path transform="translate(-.022464 -.10567)" d="m4.9857 213.43-0.76703 36.818"/>
    <path transform="translate(-.022464 -.10567)" d="m4.2187 250.25 26.463-0.38352"/>
    <path transform="translate(-.022464 -.10567)" d="m4.9857 213.43c40.058-1.0674 79.893-9.9778 116.59-26.079 17.984-7.8908 35.192-17.476 51.775-27.997 12.398-7.8658 24.784-16.587 32.75-28.921 3.9831-6.1669 6.766-13.187 7.481-20.494 0.715-7.3065-0.71649-14.9-4.5643-21.152-3.0424-4.9435-7.5209-8.9455-12.638-11.685-5.1174-2.7396-10.857-4.2392-16.647-4.6593-11.579-0.84022-23.109 2.5766-33.611 7.5236-10.377 4.8881-19.989 11.266-30.268 16.358s-21.565 8.9318-33.012 8.187c-9.077-0.59062-17.945-4.1457-24.882-10.029-6.9371-5.8836-11.898-14.069-13.853-22.953-1.7192-7.8146-1.1161-16.125 1.7133-23.61 2.8294-7.4845 7.8748-14.116 14.334-18.839 6.4589-4.723 14.308-7.5207 22.298-7.9479 7.9901-0.42721 16.092 1.5175 23.018 5.5249"/>
    <path transform="translate(-.022464 -.10567)" d="m105.47 26.658c-4.9816-1.3556-10.189-1.8764-15.341-1.5341-7.6157 0.50606-15.146 2.9424-21.399 7.3185s-11.178 10.723-13.501 17.994c-2.744 8.5873-1.6866 18.354 3.0028 26.054s12.974 13.151 21.926 14.215c9.3991 1.118 18.717-2.3809 27.23-6.5198 17.353-8.4375 33.387-19.846 51.775-25.696 9.4261-2.9989 19.376-4.4716 29.251-3.8936 9.8747 0.57803 19.67 3.2365 28.276 8.1122 10.692 6.057 19.43 15.574 24.33 26.843 4.8994 11.269 5.8878 24.237 2.5165 36.054-3.0895 10.829-9.664 20.433-17.642 28.38-8.6221 8.5894-18.854 15.367-29.147 21.86-47.233 29.798-97.731 55.05-151.49 70.183-4.8356 1.3612-9.6944 2.6399-14.574 3.8352"/>
   </g>
   <path d="m82.882 21.035c-17.572 0.65312-34.186 14.837-38.137 31.881-3.9876 15.594 2.5005 33.01 15.395 42.546 10.498 8.2201 24.824 10.481 37.592 7.1338 24.035-6.2385 42.999-24.697 67.451-29.716 7.0048-1.24 14.365-1.2159 21.387 0.04433 10.715 2.4921 20.804 9.5184 24.94 19.976 4.3887 10.525 2.8177 22.778-2.3678 32.756-7.7122 15.482-22.493 25.564-36.667 34.605-30.824 19.643-64.376 35.329-99.921 44.154-21.916 5.5581-44.419 8.5492-67.003 9.3689-0.58752 5.6041-0.24744 11.59-0.48002 17.342-0.19407 6.1122-0.021309 12.252-0.60685 18.343 3.9426 0.54434 8.3724-0.0343 12.503 0.0775 6.0603-0.3548 12.293 0.61936 18.138-1.398 39.189-9.8919 76.686-25.7 112.45-44.371 21.334-11.463 42.397-23.55 62.307-37.367 14.321-9.9614 27.782-23.062 32.916-40.207 4.5945-15.51 1.8175-33.066-7.6677-46.223-11.639-16.888-32.632-25.963-52.873-24.975-12.966 0.01236-25.577 3.9122-37.127 9.5928-15.974 7.3843-30.614 17.538-47.079 23.846-8.1414 2.9215-17.336 4.0821-25.448 0.53861-11.17-4.2751-18.965-15.707-19.223-27.626-0.73604-13.485 7.9292-26.283 19.865-32.128 7.5578-3.9593 14.558-5.6346 29.207-3.7209 1.3002-0.45146-5.215-2.2268-5.7902-2.2666-4.6487-1.5288-8.9123-2.2546-13.762-2.2075z" fill="#ff7f2a" stroke-width=".076703"/>
   <g fill="#f9f9f9">
    <path d="m95.437 212c-3.7981 1.4214-7.5823 2.902-11.417 4.2315-21.169 7.4393-43.045 12.925-65.225 16.3-4.5996 0.69104-9.2093 1.299-13.826 1.8517-0.62164 0.13027-0.28262 0.92646-0.34187 1.362 0.094659 1.586 0.13153 3.188 0.28063 4.7617 0.34585 0.40187 0.9642 0.0199 1.4177 0.0832 28.335-2.2516 56.184-10.353 81.328-23.607 2.6793-1.4446 5.3993-2.8333 7.9676-4.4692 0.22508-0.15631 0.10674-0.55875-0.18371-0.51366z" stroke-width=".019176"/>
    <path d="m203.67 60.897c-0.34576-0.03671-0.39425 0.45559-0.0813 0.53959 1.517 0.62233 3.0902 1.0867 4.5896 1.7515 10.136 4.2047 18.809 11.738 24.508 21.099 4.6292 7.5648 7.2083 16.361 7.5769 25.213-0.0185 0.3603 0.53444 0.42561 0.57971 0.0564 0.26009-1.5235 0.20697-3.0836 0.24762-4.6245 0.0379-2.325-0.0926-4.6526-0.47922-6.9474-1.7302-11.596-8.3253-22.368-17.848-29.204-5.6365-4.0602-12.238-6.7796-19.093-7.8846z" stroke-width=".013559"/>
    <path d="m77.568 24.903c-0.65177 0.12814-1.287 0.33352-1.9256 0.51556-4.0714 1.236-7.8905 3.2822-11.207 5.9445-3.5539 2.8689-6.5175 6.4753-8.604 10.54-0.10976 0.21666 0.18426 0.45238 0.36928 0.29274 0.26618-0.28048 0.4429-0.63306 0.66898-0.94373 1.574-2.3502 3.3908-4.5222 5.4173-6.4931 2.887-2.8331 6.2283-5.2209 9.8365-7.0442 1.7587-0.89309 3.5779-1.6626 5.4465-2.2973 0.18966-0.03653 0.33811-0.27059 0.19143-0.4337-0.05638-0.04849-0.11622-0.0868-0.19377-0.08113z" stroke-width=".0047939"/>
   </g>
  </g>
 </g>
</svg>
