<?xml version="1.0" encoding="UTF-8" standalone="no"?>
<svg
   xmlns:dc="http://purl.org/dc/elements/1.1/"
   xmlns:cc="http://creativecommons.org/ns#"
   xmlns:rdf="http://www.w3.org/1999/02/22-rdf-syntax-ns#"
   xmlns:svg="http://www.w3.org/2000/svg"
   xmlns="http://www.w3.org/2000/svg"
   xmlns:sodipodi="http://sodipodi.sourceforge.net/DTD/sodipodi-0.dtd"
   xmlns:inkscape="http://www.inkscape.org/namespaces/inkscape"
   viewBox="0 0 256 256"
   version="1.1"
   id="svg16"
   sodipodi:docname="Mantis_claw.svg"
   inkscape:version="1.0.1 (3bc2e813f5, 2020-09-07)">
  <metadata
     id="metadata22">
    <rdf:RDF>
      <cc:Work
         rdf:about="">
        <dc:format>image/svg+xml</dc:format>
        <dc:type
           rdf:resource="http://purl.org/dc/dcmitype/StillImage" />
        <dc:title></dc:title>
      </cc:Work>
    </rdf:RDF>
  </metadata>
  <defs
     id="defs20">
    <inkscape:path-effect
       effect="bspline"
       id="path-effect1314"
       is_visible="true"
       lpeversion="1"
       weight="33.333333"
       steps="2"
       helper_size="0"
       apply_no_weight="true"
       apply_with_weight="true"
       only_selected="false" />
    <inkscape:path-effect
       effect="powerstroke"
       id="path-effect1619"
       is_visible="true"
       lpeversion="1"
       offset_points="4,0.5"
       sort_points="true"
       interpolator_type="CubicBezierJohan"
       interpolator_beta="0.2"
       start_linecap_type="zerowidth"
       linejoin_type="extrp_arc"
       miter_limit="4"
       scale_width="1"
       end_linecap_type="zerowidth" />
    <inkscape:path-effect
       effect="powerstroke"
       id="path-effect866"
       is_visible="true"
       lpeversion="1"
       offset_points="35,0.1322915"
       sort_points="true"
       interpolator_type="CubicBezierJohan"
       interpolator_beta="0.2"
       start_linecap_type="zerowidth"
       linejoin_type="extrp_arc"
       miter_limit="4"
       scale_width="1"
       end_linecap_type="zerowidth" />
    <inkscape:path-effect
       effect="powerstroke"
       id="path-effect880"
       is_visible="true"
       lpeversion="1"
       offset_points="25,0.1322915"
       sort_points="true"
       interpolator_type="CubicBezierJohan"
       interpolator_beta="0.2"
       start_linecap_type="zerowidth"
       linejoin_type="extrp_arc"
       miter_limit="4"
       scale_width="1"
       end_linecap_type="zerowidth" />
    <inkscape:path-effect
       effect="powerstroke"
       id="path-effect894"
       is_visible="true"
       lpeversion="1"
       offset_points="15,0.1322915"
       sort_points="true"
       interpolator_type="CubicBezierJohan"
       interpolator_beta="0.2"
       start_linecap_type="zerowidth"
       linejoin_type="extrp_arc"
       miter_limit="4"
       scale_width="1"
       end_linecap_type="zerowidth" />
    <inkscape:path-effect
       effect="powerstroke"
       id="path-effect908"
       is_visible="true"
       lpeversion="1"
       offset_points="8.887048,0.075899975"
       sort_points="true"
       interpolator_type="CubicBezierJohan"
       interpolator_beta="0.2"
       start_linecap_type="zerowidth"
       linejoin_type="extrp_arc"
       miter_limit="4"
       scale_width="1"
       end_linecap_type="zerowidth" />
    <inkscape:path-effect
       effect="powerstroke"
       id="path-effect952"
       is_visible="true"
       lpeversion="1"
       offset_points="10,0.05622606"
       sort_points="true"
       interpolator_type="CubicBezierJohan"
       interpolator_beta="0.2"
       start_linecap_type="zerowidth"
       linejoin_type="extrp_arc"
       miter_limit="4"
       scale_width="1"
       end_linecap_type="zerowidth" />
    <clipPath
       clipPathUnits="userSpaceOnUse"
       id="clipPath1561">
      <path
         id="path1563"
         style="stroke-width:1"
         d="m 240.24117,60.18039 c 2.71691,4.166969 5.99972,9.068217 8.93067,14.039826 -0.16444,-0.753771 -0.2518,-1.214109 2.95831,3.275584 2.84777,3.982876 5.17555,8.313968 7.76307,12.470633 l -1.64494,3.131235 c 0.031,0.02751 0.077,0.06599 0.10719,0.09289 0.30492,0.0023 0.61069,0.0023 0.91322,0.01144 0.066,0.002 0.13529,0.157751 0.0743,0.18293 -0.17613,0.07273 -0.35264,0.144525 -0.52878,0.217228 0.0648,0.05963 0.11302,0.111173 0.17436,0.168638 37.60978,6.051819 37.1312,44.449426 -1.42199,50.209816 -0.11043,0.618 -0.21539,1.21254 -0.33585,1.87931 5.42036,1.16542 10.68616,3.03657 15.93771,4.82476 8.56972,2.91805 17.17275,5.82631 25.42718,9.54377 3.62369,1.63196 6.90112,3.99352 10.04111,6.42968 10.77222,8.35761 12.39114,9.65295 15.99774,14.5243 V 60.18039 Z M 61.630698,71.450556 c -0.821353,0.256862 -1.632118,0.524678 -2.416672,0.828897 0.549,0.05524 1.145167,0.138295 1.772131,0.24724 0.09916,-0.05876 0.199386,-0.11586 0.298687,-0.174354 0.07688,-0.206797 0.145502,-0.417122 0.224374,-0.623101 0.03659,-0.09554 0.07895,-0.186822 0.12148,-0.278682 z m -0.644541,1.076137 c -0.355944,0.210961 -0.712326,0.420884 -1.067568,0.633111 0.416955,-0.120492 0.745408,-0.211452 1.197616,-0.337278 0.03081,-0.08466 0.06037,-0.169861 0.09146,-0.254388 -0.07439,-0.01332 -0.147229,-0.02854 -0.221513,-0.04142 z m -1.067568,0.633111 c -0.63014,0.182095 -1.319191,0.383954 -1.793563,0.50877 -0.0079,0.0022 -0.01507,0.0037 -0.02283,0.0059 0.09853,0.104921 0.19793,0.208891 0.29726,0.312985 0.02781,0.0083 0.05517,0.0161 0.08289,0.02429 0.480797,-0.280365 0.958345,-0.566239 1.436281,-0.851763 z m -1.43628,0.851763 c -0.01259,0.0073 -0.02459,0.01559 -0.03717,0.02283 0.102016,0.10664 0.201566,0.215768 0.304409,0.321553 0.136846,-0.04756 0.272258,-0.09757 0.40873,-0.145773 -0.222917,-0.06439 -0.449801,-0.131541 -0.675982,-0.198647 z m -0.03717,0.02283 c -0.01515,-0.01581 -0.03059,-0.03146 -0.04573,-0.04712 -0.231325,-0.06878 -0.456314,-0.132287 -0.690273,-0.202942 -1.234575,0.334036 -2.344254,0.677248 -3.355612,1.036127 -0.788162,0.561241 -1.524167,1.194813 -2.205154,1.903606 1.453073,-0.606103 2.975558,-1.126954 4.506069,-1.642076 -0.105404,0.0051 -0.210991,0.01917 -0.315839,0.01712 -0.56531,-0.01105 -0.01639,-0.105038 0.813172,-0.217232 0.394659,-0.261143 0.726669,-0.480965 1.156172,-0.766013 0.04603,-0.02671 0.09125,-0.05473 0.137197,-0.08146 z m -4.091617,0.786025 c 0.712276,-0.507197 1.466399,-0.955755 2.250895,-1.364828 -0.16569,-0.0502 -0.33119,-0.100026 -0.497341,-0.150061 -0.761199,0.465548 -1.483667,1.016955 -2.250887,1.469157 -0.603908,-0.205723 0.473567,-0.804341 2.18943,-1.487735 -2.255394,-0.678383 -4.531204,-1.310594 -6.545438,-1.527746 v 5.373549 c 1.378409,-0.876275 2.93431,-1.631363 4.853341,-2.312336 z m 1.692097,-1.533467 c 0.02056,0.0059 0.0409,0.01237 0.06146,0.01858 0.07185,-0.04398 0.14308,-0.08943 0.215798,-0.131475 -0.09921,0.03842 -0.181934,0.07493 -0.277255,0.112897 z m 0.558798,0.168639 c 0.370922,0.112399 0.738076,0.217971 1.104717,0.328702 0.134102,-0.03629 0.255955,-0.07393 0.393013,-0.110043 -0.201903,-0.215008 -0.410406,-0.423028 -0.608811,-0.64168 -0.0044,-0.0044 -0.0044,-0.0082 -0.0086,-0.01288 -0.297641,0.139429 -0.591169,0.285099 -0.880344,0.435884 z M 57.48476,73.01971 c 0.563269,-0.263872 1.139445,-0.511588 1.729253,-0.740294 -0.0932,-0.0094 -0.176995,-0.01288 -0.265818,-0.01998 -0.553295,0.181473 -1.105932,0.357078 -1.61921,0.541639 0.03783,0.06732 0.08337,0.137416 0.155775,0.218659 z m 0.916074,-0.804604 c -0.779938,-0.01734 -1.247432,0.11335 -1.117581,0.487338 0.08232,-0.03161 0.163041,-0.06688 0.24724,-0.09432 0.413047,-0.134622 0.734944,-0.242528 1.129018,-0.373008 -0.08113,-0.0044 -0.182901,-0.01829 -0.258677,-0.01998 z m -5.252069,8.814911 c 7.31e-4,-0.01054 -0.0037,-0.01163 -0.01859,0.0029 -0.0431,0.04273 -0.123799,0.135814 -0.182929,0.198654 0.06117,-0.04932 0.123111,-0.0979 0.184356,-0.147207 0.0097,-0.02363 0.01632,-0.04376 0.01712,-0.05429 z M 197.9459,89.217529 c 0.3344,0.395065 0.67985,0.782929 1.03327,1.166175 0.005,0.0057 0.0105,0.01143 0.0157,0.01715 0.3606,0.385832 0.72468,0.768388 1.08471,1.154742 -0.42369,-0.56087 -0.82397,-1.142488 -1.33481,-1.622069 -0.24617,-0.23111 -0.53749,-0.478765 -0.79888,-0.715997 z m 61.59574,4.654694 c -0.10541,0.04212 -0.21047,0.08506 -0.31584,0.127193 0.16946,0.16294 0.35615,0.336202 0.51306,0.495911 -0.0652,-0.207937 -0.1314,-0.415376 -0.19722,-0.623104 z m -2.35808,1.253352 -4.49463,8.556235 c 2.35074,-2.28147 4.6867,-4.573833 6.92702,-6.941312 -0.92502,-0.698854 -1.71697,-1.223415 -2.43239,-1.614923 z m 7.89312,6.742665 c 1.10749,1.97648 2.22193,3.94856 3.39705,5.88517 0.3494,0.57583 -0.40406,-1.30446 -0.77745,-1.86502 -0.88026,-1.32152 -1.68611,-2.72926 -2.6196,-4.02015 z m -157.1806,3.99157 c -0.01,0.005 -0.02,0.0104 -0.03,0.0157 -0.0489,0.0759 -0.0984,0.15135 -0.14721,0.22723 0.0281,-0.0165 0.0507,-0.0294 0.0786,-0.0457 0.0326,-0.0658 0.0658,-0.13147 0.0986,-0.19722 z m 7.38434,7.3429 c -0.82509,0.41606 -1.64503,0.81284 -2.47669,1.19761 0.17358,0.72223 0.30415,1.499 0.37443,2.34236 0.0216,0.2587 0.0511,0.51683 0.0658,0.77602 0.052,0.92894 0.0761,1.86125 0.0343,2.7911 -0.0106,0.23673 -0.0113,0.21767 -0.0186,0.2944 -5.5e-4,0.0479 0.001,0.059 0.001,0.0886 0.006,0.37002 0.007,0.7404 0.006,1.11043 -6e-4,0.0834 2e-4,0.16422 0,0.24725 0.005,0.0318 0.008,0.064 0.0129,0.0958 0.0395,0.13051 0.0796,0.3067 0.12434,0.46304 0.484,-2.12735 1.04702,-4.16791 1.50488,-5.69082 0.0101,-0.0336 0.0252,-0.0652 0.0357,-0.0986 0.047,-0.52112 0.21141,-2.28166 0.33585,-3.61714 z m -2.00079,8.94353 c -0.004,-0.0126 -0.009,-0.0335 -0.0129,-0.0457 -1.9e-4,0.0978 -1.5e-4,0.19475 0,0.29154 0.0329,0.13371 0.0615,0.26795 0.0943,0.40159 7.3e-4,-0.005 4.5e-4,-0.0105 0.003,-0.0157 -0.0269,-0.21086 -0.054,-0.42145 -0.0843,-0.63168 z m 2.77109,-7.90455 c -0.11172,0.2302 -0.20718,0.46528 -0.2944,0.70313 0.107,-0.20971 0.20789,-0.42177 0.31442,-0.63167 -0.008,-0.028 -0.0121,-0.0436 -0.02,-0.0715 z m -17.982805,4.5961 c -0.182907,0.14432 -0.387503,0.29955 -0.577369,0.44732 0.02568,-0.006 0.05144,-0.0114 0.07717,-0.0172 0.167732,-0.14225 0.331703,-0.28267 0.500195,-0.43017 z m -0.500195,0.43017 c -0.769166,0.65229 -1.432504,1.17471 -0.990394,0.73886 0.03322,-0.0327 0.04873,-0.0464 0.08146,-0.0786 -2.153613,1.64914 -4.443976,3.32356 -6.299626,4.68613 -0.161936,0.27528 -0.60611,0.82442 -1.114727,1.3391 0.628831,-0.37564 1.412917,-0.85213 2.380935,-1.44628 0.63265,-0.4184 0.795238,-0.54386 1.436288,-1.05042 0.397213,-0.35003 0.579608,-0.51951 1.174743,-1.03326 0.07615,-0.0657 -0.129609,0.15409 -0.202935,0.22294 -0.167541,0.15734 -0.338324,0.31212 -0.518773,0.45447 -0.259276,0.20454 -0.293352,0.22967 -0.453035,0.35585 -3.095259,2.72751 -1.319433,1.36449 -7.144254,5.18777 -1.61108,0.62178 -1.881223,0.7398 0.63025,-1.23192 -3.172302,0.90221 -6.486827,1.40821 -9.781004,1.95363 -1.519192,1.60504 -2.074338,2.31611 -3.871524,4.54894 1.63702,-0.26685 3.246784,-0.5888 4.69614,-0.94752 1.036361,-0.4225 2.462946,-0.97721 3.134092,-1.35768 0.783786,-0.44432 2.756145,-2.29117 2.180861,-1.59777 -0.242937,0.29281 -1.245895,1.02429 -2.322346,1.7807 0.821557,-0.46003 1.61479,-0.92208 2.208015,-1.26621 -0.039,0.61342 -1.231751,1.2348 -2.975462,1.80785 -1.315379,0.9058 -2.594553,1.75189 -2.725362,1.84073 -2.043686,1.23084 -4.101392,2.41859 -6.196731,3.53854 -3.227363,6.43926 -6.089073,11.04435 -4.381728,3.3356 -5.707468,5.54505 -11.516784,9.02578 -17.012427,10.77568 v 132.12646 c 2.440013,0.004 4.879954,0.004 7.320034,0.009 0.0074,-0.0315 0.01544,-0.0628 0.02283,-0.0943 6.922441,-0.004 10.379674,0.001 13.885478,0.001 0.728227,-3.20786 1.883982,-6.34036 3.222702,-9.36513 0.256182,-0.57883 0.523493,-1.15178 0.794594,-1.72353 -0.247818,-7.56874 -0.536085,-15.14997 0.774596,-22.65323 0.498087,-3.05131 0.931879,-6.11503 1.494877,-9.15504 0.226795,-1.22461 0.487609,-2.44267 0.757437,-3.65858 -4.979176,-2.39447 -9.438554,-5.38742 -12.659281,-9.8053 -4.456151,-6.11251 5.393664,-14.16744 7.291454,-21.48991 0.166875,-0.64388 -1.957008,1.30625 -1.889316,0.64454 0.216068,-2.11315 1.502537,-3.98115 2.426667,-5.89376 4.261734,-8.82022 5.153587,-9.9985 9.59236,-17.3597 0.227184,-0.34371 0.383903,-0.58328 0.593086,-0.90322 0.333634,-1.91956 1.086301,-3.63863 2.565299,-5.01626 0.428706,-0.39931 0.873122,-0.76918 1.327672,-1.1233 0.462035,-0.59443 1.221799,-1.18456 0.950369,-0.84034 -0.08486,0.10763 -0.149461,0.2003 -0.231516,0.30584 1.058356,-0.7522 2.175674,-1.40121 3.344175,-1.96077 -0.258618,-0.39831 -0.513116,-0.8009 -0.75601,-1.21334 -2.248509,-3.81807 4.118507,-5.40263 10.301207,-6.39538 0.58374,-0.61198 1.2667,-1.22096 2.0408,-1.83644 0.36978,-0.84412 0.74002,-1.68779 1.11188,-2.531 -0.6817,-1.57748 -1.01736,-3.61921 -0.78603,-6.13956 0.12262,-1.33615 0.0769,-1.79505 0.0414,-2.64819 5.7e-4,-1.02221 0.009,-2.04471 0.007,-3.06693 -6.8e-4,-0.27489 1.4e-4,-0.54972 0,-0.82461 -6.8e-4,-0.07 -0.002,-0.14011 -0.003,-0.21008 -0.3598,-0.93333 -0.3274,-0.78655 -0.63168,-1.96935 -0.0413,-0.16081 -0.065,-0.3265 -0.0929,-0.49019 -0.10962,-0.6443 -0.19142,-1.29106 -0.24295,-1.9422 -6e-4,-0.005 -0.004,-0.0155 -0.004,-0.02 -0.007,-0.0559 -0.007,-0.11264 -0.0114,-0.16864 -0.007,-0.0965 -0.0204,-0.192 -0.0258,-0.28869 0.007,0.0693 0.012,0.13823 0.02,0.20723 -0.006,-0.0737 -0.0138,-0.14766 -0.0171,-0.22152 -0.0682,-0.21864 -0.13385,-0.43961 -0.17293,-0.65597 -0.20202,-1.11991 -0.33121,-1.82974 -0.21008,-2.88971 0.0188,-0.13734 0.0134,-0.10601 0.0143,-0.12434 -0.0563,-0.49597 -0.10416,-0.88341 -0.1472,-1.21762 -2.5e-4,-6.8e-4 0,-0.002 0,-0.003 -0.0286,-0.0753 -0.0807,-0.20803 -0.10004,-0.31727 -4.9e-4,-0.003 4.8e-4,-0.006 0,-0.009 -7.2e-4,-0.004 -0.003,-0.009 -0.003,-0.0129 -0.0113,0.0664 -0.0236,0.12683 -0.0329,0.30869 -0.004,-0.0594 -0.0158,-0.2701 -0.0343,-0.5202 -0.17796,-0.57303 -0.0988,-0.46969 -0.35443,-2.41095 -0.0138,-0.0488 -0.0326,-0.0959 -0.0429,-0.14578 -0.0588,-0.28799 -0.0959,-0.57952 -0.12719,-0.87177 -0.0483,-0.11237 -0.0984,-0.22364 -0.14577,-0.3387 0.0422,0.0691 0.0887,0.13555 0.13148,0.20436 -0.002,-0.0215 -0.005,-0.0428 -0.007,-0.0643 -0.20731,-0.3458 -0.39891,-0.69868 -0.52306,-1.08042 -0.11832,-0.36384 -0.17244,-0.74118 -0.21008,-1.12331 -0.07391,-0.33896 -0.14689,-0.78663 -0.218665,-1.24334 -0.08759,-0.32494 -0.120908,-0.6844 -0.308689,-1.95363 -0.0029,-0.0206 0.0044,-0.10761 0.0044,-0.15006 -0.894261,-1.86886 -1.613839,-3.80066 -0.43303,-2.74823 -0.01259,-0.0609 -0.02956,-0.1227 -0.03856,-0.18293 -0.0769,-0.51389 -0.09951,-1.03407 -0.127187,-1.55347 -0.01266,-0.0516 -0.03695,-0.12605 -0.04434,-0.16292 -0.13457,-0.68431 -0.213317,-1.17228 -0.245813,-1.58062 -0.01807,-0.12184 -0.03066,-0.2604 -0.03717,-0.41445 -0.256796,-0.80439 -0.681185,-2.26153 -0.317265,-1.49345 -0.0095,-0.20495 -0.02122,-0.48485 -0.05576,-1.03612 0.0022,-0.0214 0.0051,-0.0429 0.0073,-0.0643 -7.3e-5,-1.5e-4 6.6e-5,-0.004 0,-0.004 -0.0037,-0.0145 0.0044,-0.18813 0.0044,-0.20722 -0.0037,-0.17657 -0.0022,-0.42706 -0.0015,-0.5788 -1.91e-4,-0.12005 -5.1e-5,-0.2401 0,-0.36015 -0.23052,0.0527 -0.459548,0.11119 -0.690273,0.16293 z m 3.06121,46.99283 c -1.599414,1.67675 -2.555169,3.38884 -3.199841,5.39927 0.763511,-0.19162 1.540177,-0.36013 2.32092,-0.52163 0.730911,-1.69326 1.463351,-3.38592 2.200871,-5.07629 -0.44847,0.0683 -0.8574,0.12405 -1.32195,0.19865 z m -3.199841,5.39927 c -2.21785,0.55665 -4.354325,1.25601 -6.345357,2.20944 1.368867,2.10827 2.955677,4.0205 4.701854,5.79086 0.05715,-0.33445 0.148773,-0.6299 0.270106,-0.82604 0.387811,-2.85361 0.731593,-5.17266 1.373397,-7.17426 z m -1.373397,7.17426 c -0.04295,0.31618 -0.08835,0.63592 -0.132909,0.9661 0.02759,0.0277 0.05539,0.0551 0.08289,0.0829 0.172437,-0.40444 0.344727,-0.80898 0.517346,-1.21334 -0.184224,-0.13387 -0.340416,-0.0408 -0.467326,0.16435 z m -0.132909,0.9661 c -0.0461,-0.0463 -0.09129,-0.0935 -0.137197,-0.14006 -0.05034,0.2946 -0.06081,0.58896 -0.0529,0.8632 0.045,-0.10565 0.08931,-0.21162 0.134336,-0.31727 0.01837,-0.1348 0.03812,-0.27522 0.05576,-0.40587 z m -8.183226,-3.97014 c -0.242806,0.17256 -0.482612,0.35046 -0.718854,0.5345 -0.240347,0.30921 -0.394447,0.61571 -0.284404,0.79602 0.314251,-0.42971 0.64678,-0.87206 1.003258,-1.33052 z M 70.894334,137.71381 c 0.542254,-1.0819 1.086344,-2.20672 1.626359,-3.3356 -0.229203,0.28388 -0.341544,0.42794 -0.617387,0.76744 -1.071826,1.31918 -2.152222,2.55361 -3.238419,3.71575 0.74892,-0.37233 1.492996,-0.75396 2.229447,-1.14759 z m 8.922093,-5.37927 c 0.277577,-0.19114 0.494304,-0.3497 0.767447,-0.54164 -0.449831,0.25189 -0.895644,0.49879 -1.346243,0.72886 0.202737,-0.061 0.389252,-0.12492 0.578796,-0.18722 z m 16.842362,-12.40632 c 0.284499,-0.21785 0.558439,-0.4304 0.831757,-0.64311 -0.07134,0.016 -0.143036,0.0299 -0.214371,0.0457 -0.223474,0.21769 -0.368903,0.35274 -0.617386,0.59738 z m 15.996311,0.67312 c 0.0878,0.21026 0.18039,0.41855 0.27154,0.62739 -0.006,-0.0252 -0.006,-0.0328 -0.0114,-0.0586 -0.0459,-0.20325 -0.3404,-0.7611 -0.2601,-0.5688 z m -14.347087,0.75459 c 0.02737,0.58742 0.04405,0.37102 0.310117,1.32909 -7.32e-4,-0.0462 0.0029,-0.14095 0.0029,-0.1915 -0.05781,-0.25285 -0.138046,-0.57129 -0.277255,-1.069 -0.018,-0.0401 -0.02063,-0.0367 -0.03571,-0.0686 z m 0.310117,1.32909 c 0.0015,0.0564 0.0051,0.11352 0.0073,0.16435 0.0079,0.0248 0.01822,0.0595 0.02576,0.0829 -5.49e-4,-0.0477 -0.0066,-0.10249 -0.0059,-0.14863 -0.0094,-0.0349 -0.01829,-0.0669 -0.02715,-0.0986 z m 14.48,-1.0647 c -1.8e-4,2.4e-4 1.5e-4,0.004 0,0.004 0.0177,0.0404 0.0352,0.081 0.0529,0.12148 -0.0243,-0.0675 -0.048,-0.13215 -0.0529,-0.12577 z m -14.537162,0.29726 c 7.32e-4,0.009 -2.78e-4,0.0171 0.0015,0.0257 0.01478,0.11281 0.0641,0.37379 0.06,0.33585 -0.04632,-0.29705 -0.04829,-0.2954 -0.06146,-0.36157 z m 14.478572,0.92465 c -0.005,-0.007 -7.3e-4,0.01 0.0129,0.06 0.0487,0.16823 0.11773,0.33009 0.17864,0.49448 0.004,-0.0166 0.007,-0.0334 0.01,-0.05 -0.0927,-0.24232 -0.18557,-0.48332 -0.2015,-0.50448 z m -14.331372,0.17006 c 0.0029,0.0322 0.0029,0.0672 0.0059,0.0986 0.0066,0.018 0.0051,0.0143 0.01002,0.0272 0.0015,-0.015 0.0015,-0.0403 0,-0.0686 -0.0066,-0.026 -0.0094,-0.0324 -0.01573,-0.0572 z m 0.120045,0.46161 c -0.0073,0.12712 -0.01017,0.1951 -0.0086,0.22724 0.02181,0.0794 0.05151,0.15652 0.0786,0.23438 -0.0101,-0.12482 -0.0199,-0.24963 -0.03,-0.37444 -0.0078,-0.0166 -0.03322,-0.0727 -0.04002,-0.0872 z m -0.01427,0.363 c 5.12e-4,-0.003 -5.49e-4,0.0168 0,0.0129 0.05546,0.65379 0.07428,0.80081 0.130055,1.00611 -0.0051,-0.089 -0.0097,-0.17838 -0.01573,-0.26725 -0.0029,-0.0399 0.0073,-0.15854 0.01002,-0.11862 0.0098,0.14468 0.01317,0.28954 0.01859,0.43446 0.01024,0.0365 0.04083,0.14459 0.05576,0.19436 -0.01098,-0.24977 -0.01954,-0.50011 -0.02576,-0.75029 -0.02963,-0.0787 -0.04624,-0.14033 -0.07149,-0.20866 -0.04237,-0.11467 -0.07024,-0.20809 -0.101474,-0.30297 z m 0.214371,0.62597 c -0.02276,0.10326 0.05407,0.2052 0.111477,0.30726 -0.03366,-0.0905 -0.08205,-0.22899 -0.111477,-0.30726 z m 0.134343,0.37157 c 0.01324,0.0321 0.02488,0.0636 0.02429,0.0957 -0.0015,-0.0148 -0.0044,-0.0295 -0.0059,-0.0443 -0.0059,-0.016 -0.01281,-0.0358 -0.01859,-0.0515 z m -0.198654,0.2158 c 0.0022,0.0601 0.0044,0.12004 0.0073,0.18007 0.02532,0.1262 0.05239,0.25208 0.07574,0.37872 -0.0088,-0.11637 -0.02107,-0.23213 -0.02715,-0.34871 -0.02173,-0.0774 -0.03812,-0.14028 -0.05576,-0.21008 z m 0.437319,2.65676 c 0.01032,0.0523 0.03315,0.10072 0.04859,0.15149 1.61e-4,-0.004 -1.69e-4,-0.008 0,-0.0114 -0.01632,-0.0465 -0.0322,-0.0932 -0.04859,-0.14005 z m 0.05861,0.17007 c -1.17e-4,0.004 1.03e-4,0.009 0,0.0129 0.02385,0.0722 0.04127,0.14634 0.0786,0.21437 -0.02488,-0.0739 -0.05232,-0.15195 -0.0786,-0.22723 z m 0.23295,2.50242 c -4.39e-4,0.11126 0.07344,0.64676 0.162916,1.21619 0.01793,0.0664 0.03929,0.13742 0.06432,0.20865 -0.05715,-0.4627 -0.08322,-0.93741 -0.20008,-1.38054 -0.01895,-0.0718 -0.027,-0.0814 -0.02715,-0.0443 z m 0.227227,1.42484 c 0.02773,0.22463 0.06242,0.44694 0.118621,0.66027 -0.0102,-0.14164 -0.0233,-0.28277 -0.0328,-0.42446 -0.03096,-0.0788 -0.06337,-0.17216 -0.08575,-0.23581 z m 0.118621,0.66312 c 0.009,0.12448 0.0236,0.24781 0.0357,0.37158 0.0914,0.41887 0.15605,0.53473 0.16292,0.1372 -0.0841,-0.16278 -0.15182,-0.3316 -0.19865,-0.50878 z m 0.61167,0.8532 c -0.0112,-0.0905 -0.0223,0.11195 -0.0114,0.24724 0.0118,0.0142 0.0252,0.0275 0.0372,0.0414 -0.01,-0.0961 -0.0136,-0.19293 -0.0257,-0.28868 z m 0.0257,0.28868 c 0.007,0.0661 0.0125,0.13241 0.0186,0.19865 -7.3e-4,-0.002 -0.006,-0.005 -0.007,-0.007 0.003,0.0105 0.006,0.021 0.009,0.0314 -7e-4,-0.008 2.6e-4,-0.0152 0,-0.0229 0.15193,0.15922 0.41665,0.44956 0.64883,0.70456 -0.0282,-0.10667 -0.0585,-0.21302 -0.0843,-0.32013 -0.20503,-0.18699 -0.40591,-0.37694 -0.58308,-0.58451 z m 0.0114,0.19151 c -0.0139,-0.0508 -0.0307,-0.10065 -0.0443,-0.15149 -0.004,-0.0176 -0.002,-0.0543 -0.004,-0.0815 -0.0638,-0.0766 -0.11917,-0.15919 -0.17721,-0.2401 0.0113,0.0419 0.011,0.0388 0.0228,0.0829 0.0623,0.12412 0.0911,0.27271 0.18722,0.37301 0.004,0.004 0.0122,0.0133 0.0157,0.0171 z m -0.11576,0.85319 c 0.0327,0.0818 0.0672,0.15607 0.10004,0.23581 -7.3e-4,-0.003 -0.004,-0.006 -0.006,-0.009 -0.0422,-0.07 -0.12483,-0.30315 -0.0943,-0.22723 z m 0.71886,1.18904 c 0.003,0.0105 0.007,0.0208 0.01,0.0314 0.0781,0.12098 0.15434,0.24288 0.23152,0.36443 -0.0738,-0.13478 -0.16084,-0.26405 -0.24152,-0.39587 z m 0.15291,2.9726 c -0.008,-0.003 -0.0162,0.0121 -0.0228,0.0486 7.3e-4,0.01 -2.6e-4,0.0202 0.003,0.03 0.0313,0.0998 0.055,0.1797 0.10004,0.32584 -0.0295,-0.22825 -0.0564,-0.3962 -0.08,-0.40444 z m 2.34664,2.28376 c 0.0643,0.0767 0.12743,0.14728 0.19294,0.22152 0.18954,0.1727 0.38001,0.34407 0.57308,0.51306 0.0189,-0.0793 0.0432,-0.15678 0.0629,-0.23581 -0.0399,-0.0697 -0.0736,-0.1432 -0.11576,-0.21151 -0.24026,-0.0923 -0.4776,-0.18802 -0.71314,-0.28726 z m -0.2601,0.38587 c 2.5e-4,0.0195 -0.002,0.0392 -0.001,0.0586 0.0654,0.16112 0.13207,0.32175 0.22581,0.46733 0.17568,0.27286 0.36037,0.54067 0.55593,0.80032 -0.004,-0.014 -0.004,-0.0191 -0.0171,-0.0486 -0.15188,-0.33264 -0.28727,-0.60099 -0.41015,-0.82889 -0.12494,-0.14587 -0.24349,-0.29495 -0.353,-0.44875 z m 0.87321,0.2844 c 0.0534,0.0525 0.0898,0.0809 0.13719,0.12433 0.004,-0.0163 0.009,-0.0323 0.0129,-0.0486 -0.0507,-0.0252 -0.10207,-0.0491 -0.15005,-0.0757 z m -2.4424,0.41159 c 3.5e-4,3.3e-4 0.001,0.005 0.001,0.006 1.8e-4,1.1e-4 -1.9e-4,-0.006 0,-0.006 z m 0.001,0.006 c -0.0302,-0.0179 -0.0454,0.85867 -0.0201,1.18047 0.0148,0.18507 0.0495,0.36699 0.0886,0.54879 -0.0161,-0.55435 0.004,-1.11101 -0.0558,-1.66209 -0.004,-0.0424 -0.009,-0.0606 -0.0129,-0.0672 z m -23.003365,59.35628 c -0.306297,0.20056 -1.244454,0.76926 -0.918935,0.60167 0.315268,-0.1623 0.645433,-0.36411 0.976096,-0.57165 -0.0202,-0.0105 -0.03695,-0.0195 -0.05715,-0.03 z M 49.500193,302.7604 v 10.51701 c 0.409016,-1.6668 0.818463,-3.33304 1.237634,-4.99768 -0.418513,-1.8388 -0.830353,-3.6783 -1.237634,-5.51933 z m 0,32.93157 v 42.30812 h 60.489587 c -2.14196,-1.53474 -3.96545,-3.22678 -5.4593,-5.03198 -0.15806,-0.009 -0.8371,-0.0493 -0.98896,-0.0572 -2.88334,0.0626 -5.795773,0.10803 -7.611573,0.0629 -1.817637,-0.0453 -3.643221,-0.0103 -5.450723,-0.20723 -0.04924,-0.005 -0.104738,-0.006 -0.155776,-0.01 -0.232152,0.0355 -0.433293,0.044 -0.554502,-0.0201 -2.631249,0.006 -6.751549,1.13623 -6.782683,-1.17332 -0.161666,-12.00682 1.45712,-23.98646 3.697177,-35.84129 -3.265179,2.7e-4 -6.530123,0.003 -9.795295,0.003 -9.129417,-3.3e-4 -18.258593,-0.0102 -27.387952,-0.0328 z m 124.903577,38.85247 c -1.5916,0.008 -2.89921,0.0146 -4.8219,0.0243 0.5409,1.0931 1.10331,2.24589 1.67494,3.43135 h 4.02587 c -0.29505,-1.152 -0.58189,-2.30324 -0.87891,-3.45565 z" />
    </clipPath>
  </defs>
  <sodipodi:namedview
     pagecolor="#ffffff"
     bordercolor="#666666"
     borderopacity="1"
     objecttolerance="10"
     gridtolerance="10"
     guidetolerance="10"
     inkscape:pageopacity="0"
     inkscape:pageshadow="2"
     inkscape:window-width="1920"
     inkscape:window-height="1027"
     id="namedview18"
     showgrid="false"
     inkscape:zoom="2.8284271"
     inkscape:cx="188.97025"
     inkscape:cy="56.214574"
     inkscape:window-x="1592"
     inkscape:window-y="-8"
     inkscape:window-maximized="1"
     inkscape:current-layer="svg16"
     inkscape:document-rotation="0" />
  <g
     id="g1675">
    <path
       style="fill:#ff5555;stroke:#ff2a2a;stroke-width:3.20126;stroke-linecap:butt;stroke-linejoin:round;stroke-miterlimit:4;stroke-dasharray:none;stroke-dashoffset:0;stroke-opacity:1;paint-order:stroke fill markers"
       d="M 202.55096,114.71265 C 198.73132,98.943116 191.70796,73.494597 180.14632,55.654096 168.58469,37.813594 152.48426,27.582032 144.99378,26.158717 c -7.49048,-1.423316 -6.36949,5.960515 -4.86138,11.63646 1.5081,5.675946 3.4024,9.64162 10.39439,23.124186 6.992,13.482565 19.0811,36.481022 29.74315,52.859757 10.66205,16.37874 19.89597,26.13708 24.21326,29.84787 4.31729,3.71078 3.71868,1.37377 3.11114,-2.84023 -0.60754,-4.214 -1.22373,-10.30457 -5.04338,-26.07411 z"
       id="path1312"
       sodipodi:nodetypes="ccccccccc" />
    <g
       id="Mantis,_Praying,_Sejant_Erect_Guardant: Layer 2"
       clip-path="url(#clipPath1561)"
       style="fill:#ff5555;fill-opacity:1;stroke:#ff2a2a;stroke-dasharray:none;stroke-opacity:1"
       transform="matrix(1.5688617,0,0,1.5697783,-13.616149,-162.0103)">
      <title
         id="title1036">Layer 2</title>
      <g
         id="Group_3"
         style="fill:#ff5555;stroke:#ff2a2a">
        <g
           id="Graphic_55"
           style="fill:#ff5555;stroke:#ff2a2a">
          <path
             d="m 178.19991,67.51217 c -6.94363,4.22656 -17.51003,15.19549 -21.23343,22.13912 -1.61011,3.11961 -2.31454,3.52213 -5.73604,3.4215 -3.32087,-0.10063 -4.72972,-1.00632 -10.06324,-6.03794 -3.4215,-3.32087 -7.34616,-7.1449 -8.75501,-8.45312 -1.40885,-1.30822 -5.33352,-3.82403 -8.65439,-5.53478 -8.45311,-4.22656 -17.20813,-4.22656 -25.56061,0 -6.23921,3.22024 -9.56008,7.64806 -17.00687,22.54165 -3.4215,6.843 -3.82403,8.45312 -4.12593,17.4094 -0.3019,6.74237 -0.10063,10.2645 0.80506,11.27082 1.912015,2.31455 3.01897,0.80506 3.01897,-4.22656 0,-8.75501 8.95628,-29.28401 16.00055,-36.42891 5.83667,-5.93731 9.45944,-7.44679 16.30244,-6.843 10.16387,0.90569 21.43469,8.15122 25.96315,16.60434 0.90569,1.81138 0.80506,2.21391 -1.20759,2.81771 -1.20759,0.30189 -2.91834,1.20758 -3.7234,1.91201 -0.80506,0.70443 -3.32087,1.81138 -5.63541,2.41518 -5.13225,1.40885 -6.843,3.32086 -8.75502,9.76134 -2.71707,9.05691 0.50316,17.81192 7.24553,20.12647 3.4215,1.10695 5.53478,4.83035 10.5664,18.81825 2.11328,5.63541 8.45312,12.78031 11.27083,12.78031 2.61644,0 3.62276,-1.00633 2.5158,-2.41518 -0.40253,-0.60379 -1.10695,-1.81138 -1.40885,-2.71708 -0.40253,-1.30821 -0.10063,-1.61011 1.40885,-1.20758 1.10696,0.3019 1.81139,1.10696 1.50949,1.81138 -0.20126,0.70443 0.10063,1.81138 0.70443,2.41518 2.21391,2.21391 4.22656,1.00632 6.5411,-4.0253 l 2.41518,-5.13225 2.01264,3.92467 c 1.10696,2.11328 2.41518,4.22655 2.91834,4.83035 1.50949,1.50948 1.00632,2.21391 -1.71075,2.91834 -5.33351,1.40885 -21.83722,9.86197 -25.56062,13.28347 -3.32087,3.01897 -3.92466,3.22024 -4.32719,1.71074 -5.13225,-18.11382 -12.17652,-35.32195 -16.90624,-41.46052 -7.14489,-9.15755 -18.41572,-17.30877 -21.43469,-15.49738 -2.71707,1.61011 -13.9879,13.18283 -15.89991,16.40307 -1.20759,1.91201 -3.52213,5.23288 -5.03162,7.24553 -6.239204,8.05059 -17.51003,29.68654 -21.53532,41.3599 -2.51581,7.34616 -2.81771,9.9626 -3.22024,23.6486 -0.50316,18.21446 -0.10063,20.32774 3.32087,20.32774 1.81138,0 2.314544,-0.50316 2.314544,-2.31454 -0.40253,-6.33984 0.402526,-11.774 1.71075,-13.18285 0.905691,-0.90569 1.811386,-4.22655 2.213912,-7.94995 0.503164,-5.73605 0.805059,-6.44047 2.415174,-6.03794 1.61012,0.50316 1.91202,-0.10064 1.91202,-3.62276 0,-3.1196 0.40253,-4.12593 1.610115,-4.12593 1.207585,0 1.509485,-0.80507 1.308221,-3.4215 -0.201266,-1.91202 0,-3.82403 0.402529,-4.22657 0.40253,-0.40252 0.704425,-0.20126 0.704425,0.50317 0,0.70443 0.50316,1.10695 1.20759,0.90569 0.80506,-0.3019 1.10696,-2.11328 0.90569,-5.23288 -0.20126,-4.62909 -0.20126,-4.72972 2.314545,-4.0253 2.314545,0.50316 2.515805,0.3019 2.817705,-3.82403 0.20127,-3.32087 0.70443,-4.32719 2.11328,-4.32719 2.41518,0 3.7234,-2.31454 3.7234,-6.843 0,-3.01897 0.40253,-3.7234 2.01265,-3.7234 1.50948,0 2.31454,-1.20758 3.52213,-5.53478 1.61012,-5.43414 3.52213,-8.05058 4.32719,-5.73604 0.20126,0.70443 0.90569,1.20759 1.71075,1.20759 0.80506,0 1.50948,-2.01265 1.91201,-5.33352 0.70443,-4.52845 0.9057,-5.03161 2.01265,-3.52213 2.21391,3.01897 3.52213,2.11328 3.01897,-2.01265 l -0.50316,-3.72339 2.51581,4.52846 c 1.40885,2.5158 3.01897,6.13857 3.62276,8.05058 3.7234,11.97525 14.2898,32.80615 21.23343,41.96369 3.22024,4.3272 5.93731,8.45313 5.93731,9.05692 0,2.11328 2.01265,1.50948 2.91834,-1.00633 1.71075,-4.22656 5.73604,-7.04426 11.17019,-7.54742 4.12593,-0.40254 4.83035,-0.70444 3.92466,-1.81139 -0.90569,-1.10695 -0.50316,-1.40885 2.51581,-1.40885 3.01897,0 3.62277,-0.3019 3.4215,-1.81138 -0.20127,-1.30822 0.40253,-1.71075 3.22023,-1.81138 2.61645,0 3.4215,-0.40254 3.22024,-1.61012 -0.20126,-1.30822 2.31455,-2.71708 5.13226,-2.81771 2.2139,0 -0.20127,3.32087 -7.7487,10.56639 -7.84932,7.54744 -13.3841,15.39676 -15.19548,21.63597 -0.80506,2.51581 -7.64806,10.06323 -9.25818,10.06323 -0.40253,0 -1.30822,-1.00632 -1.91202,-2.31454 -3.4215,-7.1449 -9.25817,-17.81193 -11.67335,-21.33406 -1.61012,-2.21391 -4.72972,-6.74237 -7.04427,-9.9626 -4.32719,-6.23921 -7.64805,-9.66071 -11.67335,-11.774 -1.91201,-1.10695 -2.51581,-0.90568 -4.62909,1.00633 -1.40885,1.30822 -3.01897,3.7234 -3.62276,5.43415 -0.70443,1.81138 -1.81138,4.52846 -2.51581,6.23921 -0.70443,1.61011 -1.81138,4.12592 -2.41518,5.53478 -0.50316,1.40885 -2.21391,9.05691 -3.72339,17.00686 -2.21392,12.47842 -2.51581,16.50371 -2.11328,27.6739 0.60379,17.1075 2.31454,28.88149 5.23288,36.32827 1.30822,3.32088 2.91834,7.84934 3.62276,10.06325 1.10696,3.52213 6.13858,9.56007 8.05059,9.56007 1.20759,0 2.01265,-3.22022 1.10696,-4.42782 -1.00633,-1.2076 -4.22656,-10.46577 -4.22656,-11.97525 0,-0.50315 0.60379,-0.70443 1.40885,-0.40253 2.51581,1.00632 2.51581,-0.3019 0,-5.93732 -2.61644,-5.9373 -2.8177,-6.5411 -1.71075,-6.2392 1.61012,0.6038 1.00633,-5.3335 -0.70442,-7.7487 -0.40253,-0.60378 -1.00633,-2.5158 -1.30823,-4.32718 -0.50316,-2.41517 -0.30189,-3.22022 0.80506,-3.22022 1.81139,0 1.81139,-0.10065 0.50317,-3.52215 -0.50317,-1.40885 -1.20759,-3.92465 -1.50949,-5.53478 -0.40253,-2.41517 -0.20126,-2.8177 1.10696,-2.31454 1.40885,0.50317 1.61011,0.20127 1.00632,-2.31454 -0.40253,-1.61012 -1.00632,-4.62909 -1.30822,-6.64174 -0.50316,-3.32087 -0.3019,-3.62277 1.61012,-3.1196 2.41517,0.60379 2.8177,-0.90569 0.70442,-3.01897 -1.00632,-0.9057 -1.20758,-2.41518 -0.70442,-4.72972 0.60379,-2.91834 0.80506,-3.11961 2.01264,-1.61012 1.71075,2.01264 3.4215,1.10696 2.21392,-1.20759 -0.50317,-0.90569 -1.20759,-3.62277 -1.61012,-5.93731 -0.6038,-3.92466 -0.50316,-4.12593 1.40885,-3.62277 1.71075,0.40253 2.11328,0.10063 2.11328,-1.61011 0,-1.20759 -0.50316,-3.11961 -1.10696,-4.22656 -0.60379,-1.10696 -0.90569,-2.5158 -0.70442,-3.1196 0.3019,-0.70443 2.71707,3.1196 5.53478,8.35248 6.2392,11.37146 14.18916,20.42837 23.44734,26.56694 6.843,4.52846 8.95628,5.33352 9.15755,3.52214 0.50315,-3.7234 3.01896,-7.7487 5.43414,-8.85566 3.22023,-1.50948 6.5411,-4.42782 6.5411,-5.73604 0,-0.60379 1.61012,-1.91201 3.52214,-2.8177 1.91201,-0.90569 3.52212,-2.11328 3.52212,-2.71708 0,-0.50316 1.8114,-1.91201 4.0253,-3.01897 2.31455,-1.20758 3.82403,-2.51581 3.52213,-3.01897 -0.30189,-0.60379 1.00633,-1.71074 2.91834,-2.61644 2.11328,-1.00632 3.22023,-2.2139 2.91834,-3.01897 -0.3019,-0.80506 0.60379,-1.81138 2.21391,-2.41518 2.01265,-0.80505 2.51581,-1.50948 2.01265,-2.91833 -0.40253,-1.30822 0.10063,-2.41518 1.71075,-3.52214 2.21391,-1.61011 2.31454,-1.50948 3.1196,1.61012 0.40253,1.81138 1.30822,4.3272 1.91202,5.53478 0.60379,1.20759 0.70443,2.71707 0.20126,3.52213 -0.50316,0.70443 -0.90569,1.61012 -0.90569,2.01265 0,0.3019 -1.30821,2.11328 -3.01897,4.02529 -3.82403,4.22656 -14.39043,18.21445 -18.01319,23.54798 -2.41518,3.72339 -2.61645,4.72972 -2.11328,10.56639 1.00633,12.27715 3.7234,25.15808 6.5411,31.90046 4.32719,10.46577 10.76767,22.44102 13.9879,25.96315 l 2.81771,3.32087 -3.82403,2.61644 c -4.32719,2.81771 -9.96261,9.9626 -9.96261,12.47841 0,1.00633 -1.81138,2.31455 -4.52845,3.4215 -4.42783,1.91202 -11.57272,8.85565 -11.57272,11.37145 0,0.70444 -2.41518,2.91835 -5.43415,4.931 -4.32719,2.8177 -5.83668,4.52845 -6.94363,8.0506 -1.91202,5.53476 -0.80506,7.44678 5.13225,8.25184 4.72972,0.60379 5.63541,-0.70444 1.71075,-2.51581 -4.32719,-2.01263 -3.01897,-5.23289 2.81771,-7.1449 2.11327,-0.70443 4.52845,-2.41518 5.3335,-3.7234 1.00633,-1.40885 3.32088,-2.8177 5.83668,-3.52213 3.01898,-0.80506 5.73605,-2.71707 10.2645,-7.54743 3.42151,-3.52213 6.54111,-6.44047 7.04427,-6.44047 0.40253,0 1.91201,-1.00632 3.22024,-2.31454 l 2.41517,-2.21391 -0.70442,2.51581 c -0.40254,1.40884 -2.11328,4.12594 -3.7234,6.13857 -2.41518,3.01897 -2.91834,4.32719 -2.31454,6.74237 0.40252,2.11328 0.20126,3.1196 -0.9057,3.52213 -2.01264,0.80507 -6.94363,11.47207 -6.94363,14.89357 0,3.3209 3.01897,8.25187 4.62909,7.64808 0.80506,-0.30188 1.10695,-2.21391 0.90569,-5.53478 -0.3019,-5.0316 -0.20126,-5.2329 3.01897,-6.64174 1.81138,-0.70442 5.53478,-3.52213 8.25185,-6.13856 4.52846,-4.42784 4.83036,-5.13226 4.3272,-8.75503 -0.50317,-3.62277 -0.3019,-4.02529 3.22023,-6.03794 2.11328,-1.20759 5.63541,-4.72973 7.94996,-7.74869 3.82403,-5.23288 4.12592,-6.03794 4.12592,-12.47841 0,-5.43415 -0.60378,-8.05059 -2.91833,-13.18283 -1.71075,-3.62278 -3.01898,-7.1449 -3.01898,-8.0506 0,-0.80506 -0.40252,-1.81138 -1.00632,-2.11328 -0.50315,-0.3019 -1.00632,-1.40885 -1.00632,-2.41518 0,-0.90569 -0.50316,-2.21391 -1.10696,-2.8177 -0.60379,-0.6038 -2.61644,-4.83034 -4.42782,-9.35881 l -3.4215,-8.15123 2.61645,-7.74868 c 1.40884,-4.22656 2.91833,-8.65439 3.4215,-9.76134 0.40252,-1.10696 1.00631,-2.91834 1.3082,-4.0253 0.3019,-1.10695 0.3019,0.6038 0,3.92466 -0.20125,3.22024 -0.90568,6.64174 -1.40884,7.64806 -1.20759,2.31455 -1.30822,14.79296 -0.10064,15.4974 0.80506,0.50315 11.1702,21.2334 11.1702,22.441 0,0.3019 2.11328,5.5348 4.72972,11.57272 l 4.62909,10.96893 -3.52213,3.7234 c -3.22024,3.52215 -5.73605,8.35248 -7.4468,14.28979 -0.40253,1.40886 -1.50949,3.52214 -2.5158,4.83036 -1.00633,1.3082 -2.1133,3.62276 -2.41519,5.23288 -0.40253,1.71075 -1.30821,3.01897 -2.01264,3.01897 -3.52214,0 -10.5664,11.87462 -10.5664,17.7113 0,4.42782 1.61012,8.45311 3.4215,8.45311 0.90569,0 1.50948,-1.71076 1.81138,-5.73606 0.40253,-4.4278 1.00632,-6.03792 2.71707,-7.2455 1.20759,-0.9057 3.7234,-2.8177 5.43415,-4.22657 1.81138,-1.40885 4.32719,-2.91833 5.73605,-3.22023 3.32086,-0.9057 4.02528,-1.5095 7.34616,-6.33984 2.01265,-2.91836 2.71707,-5.23289 2.71707,-8.65439 0,-3.22023 0.50316,-4.83035 1.50949,-5.23287 0.80506,-0.3019 2.91834,-2.7171 4.52846,-5.33352 2.61643,-4.02528 3.01896,-5.73605 3.1196,-11.77398 l 0.10063,-7.1449 1.71075,3.82402 c 1.00632,2.11328 3.01897,5.13225 4.62909,6.74238 2.21391,2.31453 2.61643,3.52212 2.31453,6.2392 -0.80505,5.0316 1.8114,12.4784 5.13226,14.9942 l 2.91834,2.1133 -4.42782,4.22656 c -3.01898,2.91834 -4.42783,5.13224 -4.42783,6.94364 0,1.71074 -0.90569,3.22022 -2.31455,4.22655 -1.3082,0.80505 -2.91833,2.71707 -3.52212,4.12592 -2.01265,4.22656 -1.20758,14.49106 1.00632,14.49106 1.71075,0 3.82403,-2.8177 3.82403,-5.03163 0,-1.10694 1.10696,-4.22654 2.41517,-6.9436 2.01265,-3.92468 3.1196,-5.03163 5.83668,-5.5348 5.33352,-1.0063 10.66702,-5.43414 11.87462,-9.56007 2.01265,-7.24553 1.30822,-12.37778 -2.5158,-17.7113 -1.91202,-2.71707 -4.0253,-5.23288 -4.83036,-5.63541 -0.90569,-0.50316 -1.20759,-2.11328 -1.00632,-4.62909 0.90568,-9.45943 0.90568,-11.17019 0.10063,-16.40307 -0.6038,-3.01896 -1.81138,-7.44679 -2.91835,-9.76134 -2.61643,-5.83668 -2.41517,-6.03794 2.01266,-2.21392 7.54742,6.64174 9.05691,7.64807 12.88094,9.45945 6.64173,3.22025 15.69865,6.5411 16.2018,6.03795 0.3019,-0.3019 1.10696,0 1.71076,0.50315 0.70444,0.6038 3.4215,1.30822 6.13857,1.61012 2.71707,0.40253 5.83667,1.40885 6.94363,2.31453 3.82404,3.22025 10.06324,7.0443 15.09486,9.2582 11.57272,4.93098 13.98788,4.3272 7.64806,-2.01265 -2.21391,-2.21392 -4.72972,-5.43415 -5.63541,-7.04427 l -1.61012,-3.1196 h 2.91835 c 1.6101,0 5.13224,0.70442 7.8493,1.50948 6.1386,1.81139 6.4405,1.81139 6.4405,0 0,-0.80506 -0.40255,-1.50948 -0.80508,-1.50948 -0.40252,0 -3.62276,-2.81771 -7.14489,-6.23921 -6.74237,-6.64173 -11.97526,-13.88727 -14.69233,-20.42837 -4.72972,-11.1702 -8.25185,-18.41572 -10.36513,-21.63595 -1.30822,-1.91202 -5.53477,-9.86198 -9.35881,-17.61067 -3.82403,-7.74868 -7.94996,-15.09485 -9.15756,-16.30244 -1.10694,-1.20759 -2.61643,-3.1196 -3.22022,-4.22656 -1.00633,-1.81138 -7.34616,-12.07588 -11.67336,-18.81825 -1.71075,-2.71707 -9.45944,-9.45943 -10.76766,-9.45943 -0.50316,0 -2.01264,-1.2076 -3.4215,-2.61645 -1.30822,-1.40885 -4.22656,-3.52213 -6.44046,-4.62909 -2.21392,-1.10696 -6.23921,-3.7234 -9.05692,-5.63541 -2.71708,-2.01265 -9.05691,-5.23289 -14.08853,-7.24553 -7.94995,-3.22024 -9.05691,-3.92466 -9.15755,-6.13858 -0.10063,-2.61644 -3.1196,-7.94995 -4.42782,-7.94995 -0.50316,0 -1.00632,-2.11329 -1.30822,-4.83036 -0.80506,-8.95628 -2.11328,-11.47208 -11.57272,-24.05113 -5.23288,-6.94363 -5.43414,-7.4468 -4.22656,-10.36513 1.81138,-4.42783 1.40885,-10.2645 -1.10696,-14.49106 -2.11328,-3.62277 -6.33984,-6.64174 -9.35881,-6.64174 -1.10695,0 -7.04426,-2.91834 -9.45944,-4.62909 -0.50316,-0.40253 10.16387,-13.585365 12.98158,-16.10117 3.62276,-3.32087 12.17651,-7.4468 15.09485,-7.4468 3.4215,0 13.18284,7.1449 18.81825,13.686 4.42783,5.13225 16.70497,28.27769 19.92521,37.33461 1.91201,5.53478 4.02529,6.94363 4.62909,3.01897 0.60379,-3.62277 -3.01897,-18.61699 -5.03162,-21.1328 -0.50316,-0.70442 -1.50949,-3.01897 -2.21391,-5.23288 -2.61644,-8.25185 -7.04427,-15.29612 -14.18917,-22.74291 -6.5411,-6.74237 -8.25185,-7.94996 -13.48473,-9.459444 -10.5664,-3.018971 -12.37778,-2.918336 -19.92521,1.610114 z m 8.35249,165.03707 v 0 c -1.30822,5.03162 -3.22024,20.73026 -3.1196,26.46631 0.10063,5.83668 -0.70443,7.4468 -2.41518,4.93099 -0.70442,-1.00634 -1.30822,-2.01264 -1.30822,-2.31454 -0.20127,-1.5095 -3.62277,-8.75502 -4.72972,-10.06324 -3.01898,-3.62276 -2.51581,-6.03794 2.21391,-10.8683 2.51581,-2.61644 5.73604,-6.44046 7.1449,-8.55376 2.91833,-4.4278 3.52213,-4.32718 2.21391,0.40254 z m 29.18338,22.13912 v 0 c 0,0.60379 2.01265,4.12594 4.52846,8.05059 4.32719,6.5411 4.52846,7.1449 3.52213,10.76765 -0.50317,2.01266 -1.00632,6.44048 -1.00632,9.76135 l -0.10064,6.03795 -1.91201,-3.52214 c -1.00632,-1.91202 -3.62277,-5.53478 -5.9373,-7.94996 -7.54744,-8.15122 -7.54744,-8.15122 -4.12594,-15.69865 1.71075,-3.72339 3.01897,-7.34615 3.01897,-8.25185 0,-0.80506 0.50317,-1.10695 1.00633,-0.80506 0.60379,0.3019 1.00632,1.10696 1.00632,1.61012 z m -21.53532,58.1655 -3.52214,3.52214 1.40886,-4.0253 c 1.30822,-3.92466 1.30822,-8.3525 0.10062,-13.9879 -0.40252,-1.71075 0.70444,0.10064 2.41519,3.92467 l 3.11961,7.04426 z"
             fill="#000000"
             id="path1038"
             style="fill:#ff5555;stroke:#ff2a2a" />
        </g>
        <g
           id="Graphic_54"
           style="fill:#ff5555;stroke:#ff2a2a">
          <path
             d="m 197.4207,67.612806 c 3.92465,0.905694 6.03793,2.515809 12.07588,8.755014 8.15122,8.35249 9.45944,10.5664 14.59169,23.74924 4.42783,11.47209 6.03793,16.60434 5.43414,17.20813 -0.30189,0.3019 -0.80505,-0.40253 -1.20758,-1.71075 -1.20759,-3.62276 -9.86197,-21.13279 -12.98158,-26.06378 -3.82403,-6.13857 -8.95628,-11.47209 -16.20181,-16.70497 -7.84932,-5.83668 -11.27082,-5.93731 -19.9252,-0.50316 -9.56008,6.13857 -22.54165,21.73659 -22.74292,27.47263 -0.10063,2.61644 1.71075,2.21391 2.11328,-0.40253 0.40253,-3.01897 2.91834,-3.4215 5.83668,-1.00632 l 2.41518,2.01264 -2.71708,3.62277 c -3.1196,4.02529 -4.62908,12.07588 -2.91834,15.39675 0.6038,1.10696 2.71708,3.92466 4.62909,6.23921 2.21391,2.61644 3.32087,4.83035 2.91834,5.83667 -0.60379,1.40885 -0.70443,1.40885 -1.81138,-0.10063 -1.81139,-2.41518 -2.51581,-2.01265 -2.51581,1.61012 0,3.01897 -0.10063,3.1196 -1.40885,1.20759 -2.11328,-2.81771 -2.91834,-1.20759 -1.71075,3.22023 1.30822,4.72972 0.20126,6.843 -1.50949,2.91834 -1.30822,-2.91834 -1.30822,-2.91834 -1.40885,2.21391 0,2.81771 -0.40254,5.53479 -1.00633,5.83668 -0.60379,0.40253 -1.00632,-0.70443 -1.00632,-2.51581 0,-2.11328 -0.40253,-3.01897 -1.20759,-2.81771 -0.80506,0.3019 -1.10695,2.01265 -1.00632,4.52846 0.40252,4.62909 -0.70443,5.83667 -4.52846,4.83035 -2.41517,-0.60379 -2.51581,-0.90568 -2.01265,-5.13225 0.20127,-2.41517 0,-4.42782 -0.50316,-4.42782 -1.00632,0 -2.81771,4.22656 -2.11328,5.23289 0.20127,0.50315 -0.10063,0.80505 -0.80506,0.80505 -0.80505,0 -0.90569,-1.40885 -0.40252,-4.72972 0.60379,-4.42783 0.60379,-4.62909 -1.10696,-3.22023 -1.61012,1.30822 -1.71075,1.20758 -1.00632,-1.40886 0.90569,-3.92466 -1.10696,-3.4215 -2.31455,0.50316 l -0.90569,3.32087 -0.10063,-3.1196 c -0.10063,-1.61012 0.40253,-3.52213 1.10695,-4.22656 1.71075,-1.71075 0.20127,-2.71707 -1.71075,-1.20759 -1.40885,1.20759 -1.50948,1.00632 -1.00632,-1.30822 0.80506,-2.91834 -0.3019,-3.52213 -2.41518,-1.50948 -1.50948,1.40885 -1.50948,1.40885 1.61012,-5.23289 3.32087,-7.34616 3.62277,-11.67335 1.30822,-19.52268 -1.10695,-3.82402 -1.91201,-7.14489 -1.71075,-7.14489 0.10063,-0.10063 1.30822,-0.80506 2.61644,-1.50949 2.11328,-1.10695 2.61644,-0.90569 4.83036,1.40886 1.30821,1.40885 2.81771,2.61644 3.32086,2.61644 1.40885,0 2.51581,-2.21392 2.51581,-5.03162 0,-1.91202 0.6038,-2.61644 2.31454,-2.81771 2.21392,-0.30189 2.31455,-0.10063 1.61013,3.22024 -0.40253,2.41517 -0.20127,3.62276 0.50316,3.62276 0.60379,0 1.10695,-0.50316 1.10695,-1.10695 0,-5.13225 13.686,-23.44734 21.4347,-28.78086 8.25185,-5.53478 12.57904,-6.44047 21.63596,-4.125924 z"
             fill="#f3f3f3"
             id="path1041"
             style="fill:#ff5555;stroke:#ff2a2a" />
        </g>
        <g
           id="Graphic_53"
           style="fill:#ff5555;stroke:#ff2a2a">
          <path
             d="m 118.72619,73.147585 c 5.93731,1.912015 6.5411,2.314545 14.59169,9.358805 9.9626,8.75502 13.686,13.58537 12.67968,16.40308 -0.20126,0.70443 -1.10696,-0.20127 -2.01265,-1.91202 -2.71707,-5.23288 -13.38411,-16.00054 -18.81825,-18.91888 -6.13858,-3.32087 -14.2898,-4.42782 -20.529,-2.61644 -7.54743,2.11328 -17.81193,15.59802 -23.44734,30.69287 l -1.10696,3.01897 -0.10063,-3.01897 c -0.201265,-6.33984 11.17019,-25.25872 17.91256,-29.88781 7.34616,-5.03162 12.88094,-5.83668 20.8309,-3.119605 z"
             fill="#f3f3f3"
             id="path1044"
             style="fill:#ff5555;stroke:#ff2a2a" />
        </g>
        <g
           id="Graphic_52"
           style="fill:#ff5555;stroke:#ff2a2a">
          <path
             d="m 174.47651,102.63287 c 0,0.60379 -0.70442,1.00632 -1.50948,1.00632 -0.80506,0 -1.50949,-0.20126 -1.50949,-0.40253 0,-0.20126 -0.30189,-1.20759 -0.70442,-2.11328 -0.50316,-1.50948 -0.3019,-1.61012 1.50948,-0.60379 1.2076,0.70442 2.21391,1.61011 2.21391,2.11328 z"
             fill="#f3f3f3"
             id="path1047"
             style="fill:#ff5555;stroke:#ff2a2a" />
        </g>
        <g
           id="Graphic_51"
           style="fill:#ff5555;stroke:#ff2a2a">
          <path
             d="m 130.19828,103.0354 c 0,0.20126 -0.70443,0.90569 -1.50949,1.61011 -1.20759,1.00633 -1.50949,1.00633 -1.50949,-0.40253 0,-0.90569 0.70443,-1.61011 1.50949,-1.61011 0.80506,0 1.50949,0.20126 1.50949,0.40253 z"
             fill="#f3f3f3"
             id="path1050"
             style="fill:#ff5555;stroke:#ff2a2a" />
        </g>
        <g
           id="Graphic_50"
           style="fill:#ff5555;stroke:#ff2a2a">
          <path
             d="m 169.4449,103.63919 c 0,0.50316 -0.70443,1.00632 -1.61012,1.00632 -0.80506,0 -1.20758,-0.50316 -0.90569,-1.00632 0.30189,-0.60379 1.00632,-1.00632 1.61011,-1.00632 0.50317,0 0.9057,0.40253 0.9057,1.00632 z"
             fill="#f3f3f3"
             id="path1053"
             style="fill:#ff5555;stroke:#ff2a2a" />
        </g>
        <g
           id="Graphic_49"
           style="fill:#ff5555;stroke:#ff2a2a">
          <path
             d="m 178.5018,106.35626 c 0,0.50317 -1.10695,0.90569 -2.5158,0.90569 -1.40885,0.10064 -2.5158,-0.20126 -2.5158,-0.70442 0,-0.50316 1.10695,-0.90569 2.5158,-0.90569 1.40885,0 2.5158,0.30189 2.5158,0.70442 z"
             fill="#f3f3f3"
             id="path1056"
             style="fill:#ff5555;stroke:#ff2a2a" />
        </g>
        <g
           id="Graphic_48"
           style="fill:#ff5555;stroke:#ff2a2a">
          <path
             d="m 131.40587,108.87207 c -0.70443,0.70443 -1.20759,0.80506 -1.20759,0.20127 0,-1.40886 1.20759,-2.61644 1.91201,-1.91202 0.20127,0.3019 -0.10063,1.10696 -0.70442,1.71075 z"
             fill="#f3f3f3"
             id="path1059"
             style="fill:#ff5555;stroke:#ff2a2a" />
        </g>
        <g
           id="Graphic_47"
           style="fill:#ff5555;stroke:#ff2a2a">
          <path
             d="m 171.45754,107.66448 c 0,0.50317 -0.40253,1.00633 -1.00632,1.00633 -0.50316,0 -1.00632,-0.50316 -1.00632,-1.00633 0,-0.60379 0.50316,-1.00632 1.00632,-1.00632 0.60379,0 1.00632,0.40253 1.00632,1.00632 z"
             fill="#f3f3f3"
             id="path1062"
             style="fill:#ff5555;stroke:#ff2a2a" />
        </g>
        <g
           id="Graphic_46"
           style="fill:#ff5555;stroke:#ff2a2a">
          <path
             d="m 166.42593,108.57018 c 0,1.20758 -2.01265,2.5158 -2.71708,1.81138 -0.70442,-0.70443 0.6038,-2.71708 1.81138,-2.71708 0.50317,0 0.9057,0.40253 0.9057,0.9057 z"
             fill="#f3f3f3"
             id="path1065"
             style="fill:#ff5555;stroke:#ff2a2a" />
        </g>
        <g
           id="Graphic_45"
           style="fill:#ff5555;stroke:#ff2a2a">
          <path
             d="m 126.37425,110.88472 c -0.70443,0.70443 -1.20759,0.80506 -1.20759,0.20126 0,-1.40885 1.20759,-2.61644 1.91201,-1.91201 0.20127,0.3019 -0.10063,1.10696 -0.70442,1.71075 z"
             fill="#f3f3f3"
             id="path1068"
             style="fill:#ff5555;stroke:#ff2a2a" />
        </g>
        <g
           id="Graphic_44"
           style="fill:#ff5555;stroke:#ff2a2a">
          <path
             d="m 179.91066,111.28725 c 0.40254,1.00632 0.10064,1.40885 -0.60379,1.20759 -1.50949,-0.50316 -2.31455,-2.81771 -1.00633,-2.81771 0.50316,0 1.30822,0.70443 1.61012,1.61012 z"
             fill="#f3f3f3"
             id="path1071"
             style="fill:#ff5555;stroke:#ff2a2a" />
        </g>
        <g
           id="Graphic_43"
           style="fill:#ff5555;stroke:#ff2a2a">
          <path
             d="m 135.73306,111.68978 c 0.30189,0.50316 -0.10064,1.00632 -0.90569,1.00632 -0.9057,0 -1.61012,-0.50316 -1.61012,-1.00632 0,-0.6038 0.40253,-1.00632 0.90569,-1.00632 0.60379,0 1.30822,0.40252 1.61012,1.00632 z"
             fill="#f3f3f3"
             id="path1074"
             style="fill:#ff5555;stroke:#ff2a2a" />
        </g>
        <g
           id="Graphic_42"
           style="fill:#ff5555;stroke:#ff2a2a">
          <path
             d="m 171.45754,111.68978 c 0,0.50316 -0.50316,1.00632 -1.10695,1.00632 -0.50316,0 -0.70443,-0.50316 -0.40253,-1.00632 0.3019,-0.6038 0.80506,-1.00632 1.10695,-1.00632 0.20127,0 0.40253,0.40252 0.40253,1.00632 z"
             fill="#f3f3f3"
             id="path1077"
             style="fill:#ff5555;stroke:#ff2a2a" />
        </g>
        <g
           id="Graphic_41"
           style="fill:#ff5555;stroke:#ff2a2a">
          <path
             d="m 167.43225,112.6961 c 0,0.50316 -0.90569,1.40886 -2.01265,2.01265 -1.61012,0.80506 -2.01264,0.80506 -2.01264,-0.40253 0,-1.30822 1.30822,-2.31454 3.32086,-2.51581 0.40253,-0.10063 0.70443,0.3019 0.70443,0.90569 z"
             fill="#f3f3f3"
             id="path1080"
             style="fill:#ff5555;stroke:#ff2a2a" />
        </g>
        <g
           id="Graphic_40"
           style="fill:#ff5555;stroke:#ff2a2a">
          <path
             d="m 127.1793,114.70875 c 0,0.50316 -0.40252,1.00632 -1.00632,1.00632 -0.50316,0 -1.00632,-0.50316 -1.00632,-1.00632 0,-0.60379 0.50316,-1.00632 1.00632,-1.00632 0.6038,0 1.00632,0.40253 1.00632,1.00632 z"
             fill="#f3f3f3"
             id="path1083"
             style="fill:#ff5555;stroke:#ff2a2a" />
        </g>
        <g
           id="Graphic_39"
           style="fill:#ff5555;stroke:#ff2a2a">
          <path
             d="m 176.48916,115.8157 c 0,0.50317 -0.70442,0.9057 -1.50948,0.9057 -0.9057,0 -1.20759,-0.6038 -0.9057,-1.50949 0.6038,-1.50948 2.41518,-1.10695 2.41518,0.60379 z"
             fill="#f3f3f3"
             id="path1086"
             style="fill:#ff5555;stroke:#ff2a2a" />
        </g>
        <g
           id="Graphic_38"
           style="fill:#ff5555;stroke:#ff2a2a">
          <path
             d="m 136.23622,115.71507 c 0,0.50316 -0.70443,1.00633 -1.50949,1.00633 -0.80506,0 -1.50948,-0.50317 -1.50948,-1.00633 0,-0.60379 0.70442,-1.00632 1.50948,-1.00632 0.80506,0 1.50949,0.40253 1.50949,1.00632 z"
             fill="#f3f3f3"
             id="path1089"
             style="fill:#ff5555;stroke:#ff2a2a" />
        </g>
        <g
           id="Graphic_37"
           style="fill:#ff5555;stroke:#ff2a2a">
          <path
             d="m 171.45754,116.21823 c 0,0.80507 -0.40253,1.50949 -1.00632,1.50949 -0.50316,0 -0.70442,-0.70442 -0.40252,-1.50949 0.40252,-0.80505 0.80505,-1.50948 1.00631,-1.50948 0.20127,0 0.40253,0.70443 0.40253,1.50948 z"
             fill="#f3f3f3"
             id="path1092"
             style="fill:#ff5555;stroke:#ff2a2a" />
        </g>
        <g
           id="Graphic_36"
           style="fill:#ff5555;stroke:#ff2a2a">
          <path
             d="m 179.20624,116.92266 c -0.3019,0.80506 -0.6038,0.50316 -0.6038,-0.60379 -0.10064,-1.10696 0.20126,-1.71075 0.50316,-1.30822 0.3019,0.30189 0.40253,1.20758 0.10064,1.91201 z"
             fill="#f3f3f3"
             id="path1095"
             style="fill:#ff5555;stroke:#ff2a2a" />
        </g>
        <g
           id="Graphic_35"
           style="fill:#ff5555;stroke:#ff2a2a">
          <path
             d="m 167.43225,118.13025 c 0,0.80506 -0.70443,1.61012 -1.50949,2.01265 -1.50948,0.50316 -2.11328,-1.40886 -0.80506,-2.71708 1.10696,-1.20759 2.31455,-0.80506 2.31455,0.70443 z"
             fill="#f3f3f3"
             id="path1098"
             style="fill:#ff5555;stroke:#ff2a2a" />
        </g>
        <g
           id="Graphic_34"
           style="fill:#ff5555;stroke:#ff2a2a">
          <path
             d="m 128.18563,118.73404 c 0,0.50316 -0.50316,1.00633 -1.10696,1.00633 -0.50316,0 -0.70442,-0.50317 -0.40253,-1.00633 0.3019,-0.60379 0.80506,-1.00632 1.10696,-1.00632 0.20126,0 0.40253,0.40253 0.40253,1.00632 z"
             fill="#f3f3f3"
             id="path1101"
             style="fill:#ff5555;stroke:#ff2a2a" />
        </g>
        <g
           id="Graphic_33"
           style="fill:#ff5555;stroke:#ff2a2a">
          <path
             d="m 174.97968,120.84732 c -1.00633,1.50949 -2.51581,1.00633 -1.91202,-0.60379 0.40254,-0.80506 1.00632,-1.20759 1.50949,-0.90569 0.50315,0.30189 0.70442,1.00632 0.40253,1.50948 z"
             fill="#f3f3f3"
             id="path1104"
             style="fill:#ff5555;stroke:#ff2a2a" />
        </g>
        <g
           id="Graphic_32"
           style="fill:#ff5555;stroke:#ff2a2a">
          <path
             d="m 178.5018,120.24353 c 0,0.80506 -0.40252,1.50948 -1.00631,1.50948 -0.50317,0 -0.70443,-0.70442 -0.40253,-1.50948 0.40253,-0.80506 0.80505,-1.50949 1.00632,-1.50949 0.20126,0 0.40252,0.70443 0.40252,1.50949 z"
             fill="#f3f3f3"
             id="path1107"
             style="fill:#ff5555;stroke:#ff2a2a" />
        </g>
        <g
           id="Graphic_31"
           style="fill:#ff5555;stroke:#ff2a2a">
          <path
             d="m 133.72041,120.74669 c 0.30189,0.50316 -0.10063,1.00632 -0.90569,1.00632 -0.90569,0 -1.61012,-0.50316 -1.61012,-1.00632 0,-0.60379 0.40253,-1.00632 0.90569,-1.00632 0.6038,0 1.30822,0.40253 1.61012,1.00632 z"
             fill="#f3f3f3"
             id="path1110"
             style="fill:#ff5555;stroke:#ff2a2a" />
        </g>
        <g
           id="Graphic_30"
           style="fill:#ff5555;stroke:#ff2a2a">
          <path
             d="m 124.16034,122.75934 c 0,0.50316 -0.40254,1.00632 -1.00633,1.00632 -0.50316,0 -1.00632,-0.50316 -1.00632,-1.00632 0,-0.6038 0.50316,-1.00633 1.00632,-1.00633 0.60379,0 1.00633,0.40253 1.00633,1.00633 z"
             fill="#f3f3f3"
             id="path1113"
             style="fill:#ff5555;stroke:#ff2a2a" />
        </g>
        <g
           id="Graphic_29"
           style="fill:#ff5555;stroke:#ff2a2a">
          <path
             d="m 99.00225,127.38843 c 1.10695,3.22023 1.00632,3.82403 -0.9057,5.53477 -1.10695,1.00633 -2.31454,3.52214 -2.71707,5.43415 -0.50316,2.81771 -1.10696,3.52214 -2.91834,3.52214 -1.71075,0 -2.71707,1.00632 -3.82403,3.92466 -1.10695,2.51581 -2.21391,3.82403 -3.32087,3.7234 -1.30822,-0.10064 -2.11327,1.40885 -3.22023,6.2392 -1.10696,4.72972 -1.81138,5.93731 -2.41518,4.72972 -1.40885,-2.41517 -2.61644,-0.90569 -3.82403,5.03163 -0.90569,4.32718 -1.50948,5.53477 -2.8177,5.3335 -1.20759,-0.20126 -1.811385,0.6038 -2.01265,2.81771 -0.3019,2.61644 -0.70443,3.1196 -2.314544,2.71708 -1.610116,-0.40253 -1.912016,0 -1.912016,2.51581 0,1.71074 -0.50316,3.22023 -1.106955,3.4215 -0.603795,0.20126 -1.308221,2.11327 -1.610115,4.32719 -0.3019,2.21391 -1.10696,4.42781 -1.811385,5.03161 -0.704425,0.50317 -1.509485,1.91202 -1.71075,3.01897 -0.201265,1.10696 -0.905695,1.91203 -1.610115,1.81139 -2.213915,-0.50316 -3.119606,3.32086 -3.32087,14.08853 -0.10063,5.83667 -0.70443,11.27081 -1.10696,11.97525 -1.30822,1.81138 -0.301894,-26.26504 1.10696,-29.68654 0.60379,-1.5095 1.71075,-2.71708 2.61644,-2.71708 1.71075,0 2.01265,-1.61012 0.50316,-2.51582 -1.71075,-1.10695 -1.106954,-3.52212 0.90569,-3.52212 1.40886,0 1.71075,-0.6038 1.308224,-2.51581 -0.301894,-1.61012 0,-2.51581 0.805056,-2.51581 0.80506,0 1.00633,-0.80506 0.70443,-2.11328 -0.80506,-3.01898 0.201264,-5.13225 2.21391,-4.42782 1.50949,0.40252 1.71075,0 1.30822,-2.51581 -0.301895,-2.31455 0,-3.01897 1.20759,-3.01897 1.00632,0 1.509486,-0.80506 1.30822,-2.31455 -0.10063,-1.61012 0.3019,-2.11328 1.61012,-1.91201 1.30822,0.20126 1.81138,-0.20127 1.71075,-1.50949 -0.50316,-4.02529 0,-5.23288 1.61012,-4.62909 1.40885,0.50316 1.61011,0.10064 1.207585,-2.51581 -0.503165,-3.4215 0.100635,-3.92466 2.012645,-2.01264 0.90569,0.90569 1.20759,0.50316 1.20759,-2.01265 0,-2.21391 0.50316,-3.22024 1.50949,-3.22024 0.90569,0 1.50948,-0.90569 1.50948,-2.5158 0,-1.81139 0.40253,-2.31455 1.50949,-1.91202 0.90569,0.40253 1.50948,0 1.50948,-0.90569 0,-0.80506 0.40253,-1.71075 1.00633,-1.91202 0.50316,-0.20126 1.10695,-1.50948 1.20758,-2.91833 0.20127,-2.01265 0.6038,-2.51581 2.21392,-2.11328 1.20758,0.30189 1.71075,0.10063 1.30822,-0.6038 -0.40253,-0.50316 -0.40253,-1.71075 -0.10064,-2.61644 0.50317,-1.30822 0.9057,-1.40885 2.01265,-0.50316 1.10696,0.90569 1.40885,0.70443 1.40885,-1.40886 0,-1.50948 0.9057,-3.22023 2.21392,-4.12592 1.20758,-0.90569 2.31454,-1.61012 2.41517,-1.61012 0.20127,0 0.80506,1.61012 1.40886,3.62277 z"
             fill="#f3f3f3"
             id="path1116"
             style="fill:#ff5555;stroke:#ff2a2a" />
        </g>
        <g
           id="Graphic_28"
           style="fill:#ff5555;stroke:#ff2a2a">
          <path
             d="m 106.6503,126.58337 c 2.21392,1.61012 5.83668,5.13225 8.0506,7.84932 7.44679,8.85565 17.1075,32.30299 19.12014,45.88836 0.40253,3.32086 1.10696,4.83035 2.11328,4.83035 0.90569,0 1.30822,-0.6038 1.00632,-1.40885 -0.90569,-2.41518 14.39043,-14.69233 18.31509,-14.69233 0.6038,0 2.91834,-0.90569 5.13225,-2.01264 5.33352,-2.71708 9.76134,-2.61645 12.57905,0.40252 1.20759,1.30823 2.81771,2.51581 3.62277,2.81771 1.20758,0.50316 1.20758,0.80506 -0.20127,2.21391 -0.80506,0.90569 -2.41518,1.81138 -3.52213,2.01265 -1.00633,0.20127 -3.52214,0.60379 -5.53478,1.00633 -2.01265,0.3019 -4.72972,1.50948 -5.93732,2.61644 -1.30821,1.10696 -3.22023,2.01264 -4.22655,2.01264 -1.00632,0 -2.11328,0.6038 -2.41518,1.40886 -0.30189,0.80506 -1.81138,1.81138 -3.4215,2.11327 -1.61012,0.3019 -3.4215,1.30823 -4.12592,2.11329 -0.6038,0.80505 -2.21392,1.40885 -3.62277,1.40885 -1.40885,0 -3.82403,1.30822 -5.63541,3.1196 -3.01897,3.1196 -3.22024,3.1196 -4.42783,1.20759 -0.70442,-1.10696 -2.71707,-3.52214 -4.42782,-5.43414 -3.01897,-3.4215 -12.57904,-21.83723 -15.39675,-29.58592 -3.22024,-9.15755 -9.76134,-24.95683 -11.17019,-26.96948 -1.61012,-2.31454 -2.01265,-5.73604 -0.70443,-5.73604 0.50316,0 2.71708,1.30822 4.83035,2.81771 z"
             fill="#f3f3f3"
             id="path1119"
             style="fill:#ff5555;stroke:#ff2a2a" />
        </g>
        <g
           id="Graphic_27"
           style="fill:#ff5555;stroke:#ff2a2a">
          <path
             d="m 173.57082,125.27515 c 0,1.30822 -4.12592,1.91201 -4.12592,0.70442 0,-1.10695 2.01264,-2.21391 3.32086,-1.81138 0.50317,0.10063 0.80506,0.6038 0.80506,1.10696 z"
             fill="#f3f3f3"
             id="path1122"
             style="fill:#ff5555;stroke:#ff2a2a" />
        </g>
        <g
           id="Graphic_26"
           style="fill:#ff5555;stroke:#ff2a2a">
          <path
             d="m 132.11029,126.684 c 0.80506,0.50316 0.90569,1.10696 0.3019,1.50949 -0.50316,0.30189 -1.50949,-0.10064 -2.21391,-0.90569 -1.40886,-1.61012 -0.3019,-2.01265 1.91201,-0.6038 z"
             fill="#f3f3f3"
             id="path1125"
             style="fill:#ff5555;stroke:#ff2a2a" />
        </g>
        <g
           id="Graphic_25"
           style="fill:#ff5555;stroke:#ff2a2a">
          <path
             d="m 181.52078,127.2878 c 1.10696,1.30821 0.80506,1.50948 -1.40885,1.50948 -1.71075,0 -2.51581,0.40253 -2.11328,1.10696 0.40253,0.60379 1.40885,0.80506 2.31455,0.40252 2.11327,-0.80506 6.74236,3.52214 5.0316,4.83036 -1.00631,0.70442 -1.00631,1.00632 0.10064,1.40885 2.91834,1.20759 6.5411,5.53478 5.23288,6.23921 -0.90569,0.60379 -0.80505,1.10695 0.40253,2.11328 2.81771,2.41517 3.82403,5.03161 2.41518,6.74236 -1.10696,1.20759 -1.00633,1.71076 0.40253,2.41518 2.01264,1.20759 2.21391,3.52213 0.40254,4.62909 -0.6038,0.40253 -2.51582,2.51581 -4.0253,4.62909 -3.52214,4.72972 -8.65439,7.54742 -9.86198,5.53478 -0.50316,-0.70443 -0.60379,-3.22024 -0.30189,-5.63541 0.40253,-2.51581 0.20127,-4.22656 -0.40253,-4.22656 -1.40886,0 -2.21391,2.41517 -1.50949,4.83035 0.20127,1.10696 0,2.31454 -0.60379,2.61644 -0.70442,0.50316 -1.10696,-0.70442 -1.10696,-3.32087 0,-2.21391 0.50316,-4.32719 1.00633,-4.62908 1.50948,-0.9057 1.20758,-2.51581 -0.40253,-2.51581 -0.70443,0 -1.81139,1.50948 -2.41518,3.22023 -1.10696,3.22024 -1.20758,3.22024 -0.70443,-1.20759 0.20127,-2.51581 0.70443,-5.43414 1.10695,-6.44046 0.50317,-1.30823 0.3019,-1.71076 -0.60379,-1.40886 -0.80505,0.20126 -1.91201,2.21391 -2.71707,4.42782 l -1.30822,3.92467 0.40253,-5.53478 c 0.3019,-3.01898 0.80505,-6.33985 1.20759,-7.4468 0.50316,-1.40885 0.30189,-1.71075 -0.70443,-1.40885 -0.80506,0.3019 -1.91201,2.91834 -2.61644,5.9373 l -1.20759,5.43415 0.20127,-6.843 c 0.20126,-4.32719 -0.10064,-6.64173 -0.80506,-6.44047 -0.50316,0.20127 -1.20759,1.71075 -1.61012,3.32087 -0.50317,2.81771 -0.50317,2.81771 -1.30822,0.6038 -0.50316,-1.61012 -0.3019,-2.91835 0.70443,-4.0253 0.80505,-0.90569 2.91833,-4.32719 4.72972,-7.44679 1.71075,-3.11961 4.0253,-6.03795 5.13225,-6.33984 1.00632,-0.40253 1.91201,-1.10696 1.91201,-1.61012 0,-1.50949 3.62277,-1.00632 5.03162,0.6038 z"
             fill="#f3f3f3"
             id="path1128"
             style="fill:#ff5555;stroke:#ff2a2a" />
        </g>
        <g
           id="Graphic_24"
           style="fill:#ff5555;stroke:#ff2a2a">
          <path
             d="m 143.07922,152.04335 c 1.91201,3.01898 0.80506,3.4215 -1.20759,0.40253 -0.90569,-1.40885 -1.30822,-2.51581 -0.90569,-2.51581 0.50316,0 1.40886,0.9057 2.11328,2.11328 z"
             fill="#f3f3f3"
             id="path1131"
             style="fill:#ff5555;stroke:#ff2a2a" />
        </g>
        <g
           id="Graphic_23"
           style="fill:#ff5555;stroke:#ff2a2a">
          <path
             d="m 146.80262,156.97434 c 0.30189,0.50316 0.10063,1.00632 -0.40253,1.00632 -0.60379,0 -1.10696,-0.50316 -1.10696,-1.00632 0,-0.60379 0.20127,-1.00632 0.40253,-1.00632 0.3019,0 0.80506,0.40253 1.10696,1.00632 z"
             fill="#f3f3f3"
             id="path1134"
             style="fill:#ff5555;stroke:#ff2a2a" />
        </g>
        <g
           id="Graphic_22"
           style="fill:#ff5555;stroke:#ff2a2a">
          <path
             d="m 194.50235,164.6224 c -4.52845,4.72972 -5.83667,4.3272 -1.91201,-0.6038 1.71076,-2.2139 3.62276,-3.7234 4.22656,-3.4215 0.50316,0.40253 -0.50316,2.11328 -2.31455,4.0253 z"
             fill="#f3f3f3"
             id="path1137"
             style="fill:#ff5555;stroke:#ff2a2a" />
        </g>
        <g
           id="Graphic_21"
           style="fill:#ff5555;stroke:#ff2a2a">
          <path
             d="m 199.53397,168.84896 c -1.20759,3.62276 -6.13857,7.74869 -10.5664,8.65438 -2.5158,0.6038 -3.22023,1.40886 -4.32719,5.23288 -0.80506,2.71708 -3.1196,6.44048 -5.73604,9.25818 -2.41518,2.61644 -4.42783,5.23288 -4.42783,5.73605 0,0.60379 -0.90569,1.61011 -2.01264,2.31455 -1.20759,0.70442 -1.81139,1.71074 -1.50949,2.2139 0.3019,0.50316 -0.80506,1.61012 -2.51581,2.5158 -1.61011,0.80507 -3.01897,2.1133 -3.01897,2.91835 0,0.70443 -1.20759,1.81138 -2.71707,2.51581 -1.50949,0.70442 -3.62277,2.11328 -4.83035,3.22024 -1.10696,1.00632 -4.42783,4.12592 -7.34617,6.94363 -2.91834,2.71707 -5.73604,5.03161 -6.13857,5.03161 -0.40253,0 -1.61012,1.61012 -2.71707,3.52214 -1.40886,2.71707 -2.31455,3.4215 -3.92467,2.91833 -5.33351,-1.61011 -19.12014,-14.99421 -22.74291,-21.93785 -1.40885,-2.81771 -3.52213,-6.74236 -4.62909,-8.75501 -4.42782,-7.54743 -8.05059,-21.33406 -6.44047,-23.95051 1.10696,-1.71074 6.5411,3.01897 10.8683,9.45945 1.91201,2.71707 4.72972,6.94363 6.33983,9.25817 3.01898,4.12594 7.1449,11.47209 11.67336,20.62964 1.71075,3.32086 3.01897,4.83035 4.42782,4.83035 3.62276,0 9.76134,-6.74237 13.9879,-15.39675 2.71707,-5.73605 5.73604,-9.9626 9.66071,-13.78663 3.1196,-3.01897 7.54742,-7.54743 9.86197,-10.06324 8.95628,-9.45944 9.6607,-10.06323 12.27714,-10.06323 1.40886,0 4.22656,-0.70443 6.23921,-1.5095 4.72973,-2.01264 5.33352,-1.912 2.31455,0.50317 -1.40886,1.10696 -3.32087,2.01265 -4.22656,2.01265 -1.00633,0 -1.81139,0.40253 -1.81139,1.00632 0,3.7234 11.37146,-3.32087 12.47842,-7.74869 0.50316,-1.61012 1.10695,-2.21391 1.71075,-1.61012 0.60379,0.6038 0.50316,2.11328 -0.20127,4.12593 z"
             fill="#f3f3f3"
             id="path1140"
             style="fill:#ff5555;stroke:#ff2a2a" />
        </g>
        <g
           id="Graphic_20"
           style="fill:#ff5555;stroke:#ff2a2a">
          <path
             d="m 208.79215,173.67931 c 9.25818,3.62277 12.78031,5.33352 13.48473,6.44047 0.3019,0.50316 3.11962,2.31455 6.33984,4.12592 6.33984,3.62277 18.31508,12.57905 19.62331,14.69233 0.40253,0.70443 1.30822,1.30822 2.01265,1.30822 1.10696,0.10064 2.21392,1.50949 11.27082,15.59802 2.11328,3.32087 5.13225,7.84933 6.64174,10.06323 1.61012,2.21392 5.43416,9.25818 8.55376,15.59802 3.1196,6.33984 7.24552,13.88728 9.0569,16.8056 3.1196,4.83036 8.45312,16.20181 11.57272,24.35304 1.71075,4.72972 9.25818,14.89358 14.89358,20.12647 l 4.6291,4.32719 -3.4215,-0.6038 c -1.81138,-0.30189 -4.83035,-0.60379 -6.64173,-0.60379 -3.01897,0 -3.4215,-0.50316 -6.843,-7.54743 -2.11327,-4.12592 -3.7234,-8.0506 -3.7234,-8.55375 0,-1.40885 -14.69233,-33.81247 -17.30877,-38.24029 -1.10695,-1.91202 -3.22023,-5.53478 -4.52845,-8.05059 -1.40885,-2.51581 -3.01897,-5.03162 -3.7234,-5.53477 -2.31455,-2.01266 -9.56007,-14.69234 -9.66071,-16.80562 0,-1.40885 -7.04426,-10.56639 -11.37144,-14.99422 -5.93732,-6.03794 -14.2898,-12.57904 -23.54799,-18.41572 -12.47841,-7.84932 -24.45366,-15.79928 -24.45366,-16.30244 0,-0.6038 0.20127,-0.6038 7.1449,2.21391 z"
             fill="#f3f3f3"
             id="path1143"
             style="fill:#ff5555;stroke:#ff2a2a" />
        </g>
        <g
           id="Graphic_19"
           style="fill:#ff5555;stroke:#ff2a2a">
          <path
             d="m 216.03768,183.84318 c 8.45312,5.33352 16.20182,10.2645 17.30876,10.86829 4.12593,2.51581 15.89992,14.08853 19.92521,19.52268 2.31455,3.11961 6.13857,9.45945 8.45312,13.9879 2.31453,4.62909 5.43415,9.86197 6.94363,11.57272 5.53478,6.843 15.1955,26.56693 27.57327,56.35413 1.81138,4.22655 5.63541,11.37145 8.55375,15.69864 4.42782,6.843 4.93098,7.84932 2.91834,7.1449 -5.23289,-2.01264 -10.66703,-5.23289 -15.79928,-9.45944 -2.91834,-2.31455 -7.34618,-5.73605 -9.86198,-7.54743 -4.93098,-3.62277 -14.9942,-13.18284 -22.34038,-21.43469 -2.61644,-2.91834 -5.63542,-6.23921 -6.64172,-7.34618 -1.61013,-1.71074 -3.22025,-4.22655 -9.86198,-15.09484 -2.21392,-3.62276 -8.35249,-13.9879 -12.88095,-21.63596 -3.92467,-6.5411 -5.43414,-9.56007 -9.45944,-18.11382 -0.40253,-0.80506 -1.71075,-3.32088 -2.91833,-5.53478 -3.62277,-6.94363 -12.27715,-25.76188 -12.27715,-26.7682 0,-0.50317 -1.40885,-3.4215 -3.11961,-6.44048 -1.71074,-3.01897 -2.8177,-5.53478 -2.41517,-5.53478 0.30189,0 7.44679,4.32719 15.89991,9.76134 z"
             fill="#f3f3f3"
             id="path1146"
             style="fill:#ff5555;stroke:#ff2a2a" />
        </g>
        <g
           id="Graphic_18"
           style="fill:#ff5555;stroke:#ff2a2a">
          <path
             d="m 199.3327,178.3084 c 1.10696,1.81138 3.22024,6.44047 4.72973,10.36513 1.50948,3.82403 3.1196,7.4468 3.62277,8.05059 0.40252,0.50316 2.8177,5.63541 5.3335,11.27083 4.3272,9.76133 4.42783,10.36513 2.51582,10.96892 -3.32087,1.00633 -8.45312,0.70443 -11.57272,-0.80506 -3.82403,-1.81138 -8.75502,-11.27081 -10.36514,-20.02584 -0.70442,-3.82403 -1.71075,-6.94363 -2.21391,-6.94363 -0.40253,0 -0.80505,-2.31454 -0.80505,-5.03162 0,-2.8177 0.20126,-5.03162 0.50315,-5.03162 0.70443,0 4.42783,3.92467 8.65439,9.05692 1.61011,1.91201 2.91833,3.1196 2.91833,2.71708 0,-1.2076 -3.22023,-5.93732 -6.74237,-10.06324 l -3.4215,-3.82403 2.31455,-1.91202 c 1.30822,-1.10695 2.41518,-1.91201 2.51581,-2.01265 0,0 1.00632,1.50949 2.01264,3.22024 z"
             fill="#f3f3f3"
             id="path1149"
             style="fill:#ff5555;stroke:#ff2a2a" />
        </g>
        <g
           id="Graphic_17"
           style="fill:#ff5555;stroke:#ff2a2a">
          <path
             d="m 102.22248,189.98175 c 0.20127,7.34617 0,9.25818 -1.10695,9.25818 -1.10696,0 -1.30823,1.20759 -0.80506,5.63541 0.50316,4.62909 0.30189,5.53478 -0.90569,5.03162 -1.10696,-0.40253 -1.40886,0.50316 -1.40886,4.52846 0,2.8177 -0.40253,4.83035 -0.90569,4.42782 -1.50948,-0.90569 -1.91201,0.70443 -1.20759,6.03794 0.40253,3.4215 0.20127,5.33352 -0.60379,6.03794 -0.90569,0.70443 -1.00633,2.11328 -0.3019,4.93098 0.50316,2.51582 0.50316,4.52847 -0.20126,5.63542 -0.80506,1.20758 -0.80506,3.01898 0,6.33984 0.70442,2.51581 0.90569,5.83668 0.60379,7.44679 -0.3019,1.71075 0.3019,5.33352 1.50949,8.85565 1.10695,3.32087 1.61011,6.13858 1.00632,6.33984 -0.50316,0.20126 -0.90569,1.71076 -0.90569,3.4215 0,3.1196 0,3.01896 -2.41518,-1.40884 -3.22023,-6.1386 -5.33351,-15.89993 -3.52213,-16.90625 1.00632,-0.70443 0.90569,-1.30822 -0.3019,-3.22023 -0.80506,-1.20759 -1.81138,-4.12592 -2.11328,-6.33984 -0.50316,-2.91834 -0.30189,-3.52214 0.40253,-2.31455 0.50316,1.00633 1.61012,1.81139 2.41518,1.81139 1.10695,0 1.10695,-0.6038 -0.3019,-3.01898 -0.90569,-1.61011 -2.01265,-3.01897 -2.41517,-3.01897 -0.50317,0 -0.80506,-1.20758 -0.80506,-2.71707 0,-2.5158 0,-2.61644 2.01264,-0.80506 1.10696,1.00632 2.01265,1.40886 2.01265,0.80506 0,-1.30822 -2.91834,-5.03162 -3.01897,-3.82403 0,0.50316 -0.40253,0.40253 -0.90569,-0.3019 -0.40253,-0.70442 -0.6038,-2.41517 -0.3019,-3.82403 0.40253,-2.01264 0.90569,-2.31454 2.61644,-1.81138 2.01265,0.6038 2.01265,0.6038 0.40253,-1.30822 -2.21391,-2.41518 -2.41517,-5.53478 -0.30189,-4.72972 1.91201,0.80506 1.91201,-0.60379 0.10063,-3.22024 -0.80506,-1.20758 -1.20759,-3.01897 -0.90569,-4.22655 0.40253,-1.81139 0.90569,-2.01265 2.41517,-1.10696 2.31455,1.20759 2.31455,0.90569 0.40253,-2.71707 -1.71075,-3.4215 -1.40885,-3.92467 1.40886,-2.41518 2.71707,1.40885 2.71707,0 0.10063,-2.81771 -2.11328,-2.21391 -2.71708,-5.23288 -1.00633,-5.23288 0.50317,0 1.30822,0.80507 1.91202,1.71075 0.50316,1.00632 1.30822,1.50949 1.61012,1.10696 0.40253,-0.40254 0,-1.71075 -0.90569,-3.01897 -2.31455,-3.22024 -2.11328,-5.13225 0.50316,-4.3272 2.01264,0.70443 2.01264,0.6038 0.50316,-2.31454 -1.71075,-3.22023 -1.10696,-4.93099 1.10695,-3.01897 1.91202,1.50948 2.41518,0.70443 1.40886,-2.81771 -0.80506,-3.01897 0.70442,-8.15122 2.01265,-6.74236 0.40252,0.50316 0.90569,5.03161 1.10695,10.16386 z"
             fill="#f3f3f3"
             id="path1152"
             style="fill:#ff5555;stroke:#ff2a2a" />
        </g>
        <g
           id="Graphic_16"
           style="fill:#ff5555;stroke:#ff2a2a">
          <path
             d="m 189.57137,194.71147 c 0.40253,2.01265 0,4.52846 -0.80507,4.52846 -2.61643,0 -4.02529,-10.06323 -2.11327,-14.69233 1.20759,-2.8177 1.30822,-2.71707 2.01265,3.1196 0.40252,3.32088 0.80506,6.44048 0.90569,7.04427 z"
             fill="#f3f3f3"
             id="path1155"
             style="fill:#ff5555;stroke:#ff2a2a" />
        </g>
        <g
           id="Graphic_15"
           style="fill:#ff5555;stroke:#ff2a2a">
          <path
             d="m 192.38907,204.7747 c 0.50317,1.61013 1.30823,3.82404 1.71075,4.72973 0.50317,1.30822 0.20128,1.81138 -0.90569,1.81138 -0.90569,0 -1.61011,0.70443 -1.61011,1.50949 0,0.80506 -0.40253,1.50948 -1.00632,1.50948 -0.50317,0 -1.00633,0.70442 -1.00633,1.50949 0,2.41518 -3.32087,8.25185 -3.7234,6.74237 -0.70443,-2.01264 -2.51581,-1.40886 -1.81138,0.70442 0.40253,1.40886 0,2.31454 -1.50949,3.11961 -1.10695,0.60379 -2.11328,2.11328 -2.11328,3.32087 -0.10062,1.71075 -0.20126,1.81138 -0.60379,0.40252 -0.80506,-3.22023 -2.31454,-1.81138 -2.31454,2.21392 0,2.21392 -0.40253,4.32719 -1.00633,4.62908 -0.50316,0.3019 -1.00632,-0.10063 -1.00632,-1.00632 0,-2.61644 -1.81138,-0.80506 -2.51581,2.61644 -0.40253,1.71075 -1.30823,3.32087 -2.11328,3.62277 -2.11328,0.80505 -1.81138,1.81138 2.51581,10.76765 2.21391,4.52847 5.03162,10.66704 6.2392,13.686 1.10696,3.01898 2.71708,6.843 3.4215,8.55376 2.81771,6.74237 6.64174,21.53534 7.1449,28.27769 0.50316,5.93731 0.3019,7.7487 -1.40886,11.1702 -2.31453,4.32719 -8.4531,10.36513 -10.76765,10.36513 -0.70443,0 -1.61012,0.90569 -2.01265,1.91202 -0.3019,1.0063 -2.71707,3.92466 -5.43415,6.44046 -3.4215,3.22024 -5.93731,4.72974 -9.05691,5.23289 -2.31454,0.40253 -4.42782,0.50315 -4.72972,0.20125 -0.20127,-0.20125 1.10696,-2.61643 2.91834,-5.3335 2.41517,-3.4215 4.93098,-5.6354 8.55374,-7.4468 2.91835,-1.40885 5.2329,-3.01897 5.2329,-3.62276 0,-4.12594 7.94995,-12.88094 12.7803,-14.08854 2.71707,-0.70442 2.11328,-2.8177 -1.81138,-6.74236 -2.91834,-3.01897 -9.15755,-14.39044 -13.48474,-24.85619 -3.4215,-8.25185 -7.34616,-27.77453 -6.843,-33.81248 0.50316,-6.13857 1.71075,-8.35247 13.48474,-23.84987 5.43414,-7.34616 10.5664,-14.49105 11.17018,-16.00054 1.40886,-3.01896 2.01266,-2.71707 3.62277,1.71074 z"
             fill="#f3f3f3"
             id="path1158"
             style="fill:#ff5555;stroke:#ff2a2a" />
        </g>
        <g
           id="Graphic_14"
           style="fill:#ff5555;stroke:#ff2a2a">
          <path
             d="m 197.82322,215.74364 c 2.11328,2.8177 2.21391,14.79296 0.20127,13.9879 -0.70443,-0.20127 -1.40886,-1.40886 -1.71075,-2.61644 -0.3019,-1.2076 -1.10696,-4.22657 -1.71075,-6.64174 -1.71075,-6.843 -0.10064,-9.25818 3.22023,-4.72972 z"
             fill="#f3f3f3"
             id="path1161"
             style="fill:#ff5555;stroke:#ff2a2a" />
        </g>
        <g
           id="Graphic_13"
           style="fill:#ff5555;stroke:#ff2a2a">
          <path
             d="m 207.3833,221.98284 c 1.81138,0.50316 2.2139,1.10696 1.71075,2.31456 -1.61012,3.32086 -0.40253,14.39042 2.01265,19.3214 1.20758,2.41518 1.20758,2.71707 -0.20127,2.2139 -1.20759,-0.50315 -1.40885,-0.20125 -0.90569,1.10697 0.40253,1.00633 1.00632,3.01897 1.40886,4.42783 0.60378,2.41517 0.50315,2.61643 -1.00633,1.40885 -1.40886,-1.20759 -1.50949,-1.00633 -1.00633,2.41517 0.40253,2.41518 0.3019,3.52213 -0.40253,3.1196 -0.60379,-0.40252 -1.30821,1.00633 -1.61011,3.62278 -0.3019,2.31453 -0.80506,5.13224 -1.2076,6.2392 -0.40252,1.50948 1.10696,4.0253 5.73605,9.76133 10.36513,12.67967 14.18916,21.1328 13.9879,31.49793 -0.20127,9.76134 -1.61012,13.88727 -5.93731,18.51634 -3.32087,3.52215 -3.7234,4.42784 -3.52214,8.55377 0.20127,4.12593 -0.20126,5.13223 -3.7234,8.75503 -2.8177,3.01895 -4.42781,3.92464 -5.83667,3.5221 -1.40885,-0.50315 -2.41517,0.10065 -3.62276,1.91203 -1.71075,2.61644 -7.4468,6.13857 -8.45312,5.13227 -1.30822,-1.40887 2.91835,-7.7487 5.83668,-8.75503 2.31454,-0.80507 3.1196,-1.91202 3.62277,-4.52847 0.3019,-1.912 1.6101,-4.22655 2.8177,-5.23287 1.30822,-1.10696 2.61644,-3.82403 3.32087,-7.54743 1.30822,-6.03794 7.14489,-14.79296 9.9626,-14.79296 0.80506,0 1.40885,-0.50316 1.40885,-1.00632 0,-0.60379 -0.40252,-1.00632 -0.80506,-1.00632 -0.40253,0 -1.40886,-1.71075 -2.11328,-3.82403 -0.80505,-2.01265 -1.71075,-3.92467 -2.01264,-4.22657 -0.40254,-0.3019 -1.50949,-2.8177 -2.51581,-5.53477 -1.00633,-2.81771 -4.0253,-9.56008 -6.74237,-15.19549 -2.71707,-5.53478 -4.93099,-10.66704 -4.93099,-11.27082 0,-0.70442 -0.70442,-2.41518 -1.61011,-3.7234 -1.81139,-2.71707 -1.50949,-11.77399 0.50316,-19.62332 0.80506,-2.8177 1.10695,-9.15753 0.90568,-16.90623 -0.40252,-10.36513 -0.20125,-12.27714 1.00633,-11.77397 0.80507,0.30188 2.51581,0.80505 3.92467,1.10694 z"
             fill="#f3f3f3"
             id="path1164"
             style="fill:#ff5555;stroke:#ff2a2a" />
        </g>
        <g
           id="Graphic_12"
           style="fill:#ff5555;stroke:#ff2a2a">
          <path
             d="m 221.57246,225.10245 c 2.8177,6.33984 11.17019,20.93153 18.81824,32.80615 2.21392,3.4215 4.72973,7.54742 5.5348,9.15754 1.71074,3.32086 17.20812,20.93153 24.15175,27.57326 l 4.52845,4.22657 -7.5474,-0.10064 c -4.42784,-0.10063 -8.3525,-0.70443 -9.5601,-1.50948 -1.81137,-1.30822 -1.50948,-1.40885 2.51582,-1.50949 8.95628,-0.10063 8.85565,-1.81138 -0.10062,-1.81138 -7.84934,-0.10063 -8.85566,-0.30188 -10.96894,-2.61644 l -2.31454,-2.51581 6.5411,0.70443 c 4.42782,0.40254 6.74238,0.20126 7.24553,-0.6038 0.50315,-0.80506 -1.20759,-1.10696 -5.83668,-1.10696 -3.62277,0 -6.843,-0.50316 -7.1449,-1.00632 -0.30189,-0.60378 -1.30822,-1.00632 -2.21391,-1.00632 -1.81138,0 -5.33351,-2.81771 -5.33351,-4.22656 0,-0.50316 0.90569,-0.40253 1.91201,0.20126 2.51581,1.30824 12.17652,1.30824 12.17652,0.10064 0,-0.6038 -2.21391,-1.00633 -4.93098,-0.9057 -2.61645,0 -6.33985,-0.70442 -8.0506,-1.6101 -1.71075,-0.9057 -3.52213,-1.40887 -4.0253,-1.2076 -0.50315,0.3019 -1.6101,-0.20127 -2.41517,-1.2076 -1.61012,-1.71074 -1.30823,-1.81137 5.03162,-1.40884 4.32719,0.3019 6.44047,0.10064 5.93731,-0.6038 -0.3019,-0.50316 -2.71706,-1.00632 -5.33352,-0.90569 -5.83667,0 -11.77398,-2.31454 -13.3841,-5.43414 -1.10696,-2.01265 -1.10696,-2.11328 1.10696,-1.50949 4.62909,1.40886 10.96892,1.91201 10.96892,0.90569 0,-0.60379 -2.51581,-1.30823 -5.63542,-1.61013 -3.82402,-0.4025 -6.64172,-1.40884 -9.0569,-3.22022 -4.0253,-3.1196 -4.0253,-4.0253 0.10063,-2.51581 3.22024,1.20759 8.95627,0.40253 7.94997,-1.10697 -0.3019,-0.50315 -1.40886,-0.7044 -2.4152,-0.40252 -3.01896,0.9057 -9.86196,-1.30822 -11.17018,-3.72338 -1.00632,-1.91203 -0.90569,-2.01266 1.20758,-1.40887 5.03163,1.61012 6.94364,1.81139 8.6544,1.10697 1.3082,-0.6038 0.50315,-1.00633 -3.01898,-1.61013 -6.74237,-1.10695 -11.37146,-4.83035 -12.27715,-9.9626 -0.40253,-2.21391 -1.50948,-6.44047 -2.61644,-9.25817 l -1.91201,-5.2329 2.61644,-3.82402 c 2.41517,-3.4215 3.82404,-4.42782 7.04426,-4.72972 0.6038,0 2.11328,2.01264 3.22024,4.62909 z"
             fill="#f3f3f3"
             id="path1167"
             style="fill:#ff5555;stroke:#ff2a2a" />
        </g>
        <g
           id="Graphic_11"
           style="fill:#ff5555;stroke:#ff2a2a">
          <path
             d="m 192.7916,229.42964 c -0.20126,0.70442 0.3019,1.00632 1.2076,0.70442 0.90568,-0.40252 1.912,0.10064 2.41517,0.9057 1.10695,1.91201 0.3019,6.64174 -0.90569,5.83667 -0.50316,-0.30189 -0.90569,-0.10063 -0.90569,0.50317 0,0.50316 0.50316,1.10695 1.10695,1.30822 0.80506,0.30188 0.90569,1.50948 0.40253,3.72338 -0.50317,2.21392 -1.10695,3.11962 -2.11327,2.7171 -1.00633,-0.40254 -1.40886,0.40252 -1.40886,2.8177 0,1.912 -0.40254,3.62276 -0.90569,3.82402 -1.61012,0.50316 -2.21391,13.18284 -0.70443,14.89358 0.70443,0.80507 4.42782,8.9563 8.15122,18.11384 5.73605,13.78663 6.94363,17.81192 7.24553,23.54796 0.40253,6.5411 0.20127,7.34617 -2.8177,11.67336 -2.91834,4.32719 -4.62909,5.73604 -12.37778,10.46577 -1.61012,1.00632 -2.41519,2.11327 -1.91202,2.5158 2.81771,1.81137 1.91202,9.15755 -1.10695,9.15755 -0.80506,0 -2.41518,1.30822 -3.62277,3.01897 -2.31455,3.22025 -5.73605,4.02529 -6.74237,1.50949 -0.70442,-1.91202 2.41518,-5.53478 4.22656,-4.93099 1.81138,0.70443 3.01897,-1.50949 1.61012,-2.91835 -1.81138,-1.81137 -1.20759,-5.23287 1.30822,-7.64805 1.30822,-1.30822 2.71707,-3.52213 3.1196,-4.93098 0.80506,-3.4215 7.74869,-12.78031 11.06956,-14.89359 l 2.41518,-1.50948 -1.91202,-3.22024 c -1.10695,-1.81139 -3.7234,-7.94996 -6.03794,-13.78664 -2.21391,-5.83667 -4.93098,-12.88094 -6.03794,-15.59802 -2.61644,-6.74236 -3.1196,-13.88726 -1.91202,-26.66757 1.40886,-14.69233 3.82404,-23.74923 6.23921,-22.84353 0.60379,0.20125 1.10696,1.0063 0.90569,1.71074 z"
             fill="#f3f3f3"
             id="path1170"
             style="fill:#ff5555;stroke:#ff2a2a" />
        </g>
        <g
           id="Graphic_10"
           style="fill:#ff5555;stroke:#ff2a2a">
          <path
             d="m 227.20787,274.21104 c -0.40253,0.80506 -0.10063,1.50948 0.50316,1.50948 0.6038,0 1.10697,0.90568 1.10697,2.11328 0,1.8114 0.40252,2.01265 2.8177,1.5095 2.01264,-0.50317 2.31454,-0.40254 1.20758,0.40252 -1.30822,0.90568 -1.30822,1.10695 0,2.01264 0.80506,0.50317 2.11328,0.80506 2.71708,0.50317 0.70442,-0.20127 2.01264,0.90569 2.8177,2.51581 1.91202,3.72339 1.91202,4.12592 -0.20126,3.32086 -1.2076,-0.50316 -1.00633,0.20127 0.9057,2.8177 1.40884,1.91202 2.31453,4.0253 2.11327,4.6291 -0.3019,0.70442 0.50316,2.5158 1.61013,3.92466 1.20757,1.50948 2.11327,3.22024 2.11327,3.82404 0,0.6038 -0.70443,0.20125 -1.50949,-0.80507 -1.91201,-2.51581 -3.01898,-1.40885 -1.50948,1.40887 0.6038,1.20757 0.9057,2.8177 0.6038,3.62275 -0.3019,0.70442 0.10062,3.1196 0.80505,5.13225 0.70442,2.11328 1.10695,5.2329 0.90569,7.04426 -0.40254,2.71708 0.3019,4.12594 4.62909,9.35881 4.42782,5.33353 5.13225,6.74237 5.13225,10.46577 0,2.41516 -0.50316,5.73606 -1.10696,7.44679 -1.20759,3.4215 -6.13857,7.04427 -10.66702,7.84933 -3.52214,0.60379 -6.843,4.52844 -8.55376,10.16386 -1.40884,5.03162 -2.8177,5.63542 -2.8177,1.30823 0,-4.12595 2.31454,-8.45312 5.33351,-9.76135 1.81138,-0.80505 2.61645,-2.2139 3.01897,-5.23288 0.6038,-4.52845 3.4215,-7.64806 7.94996,-8.55375 3.22022,-0.60379 2.91834,-3.1196 -0.6038,-4.02529 -1.20758,-0.30188 -3.32086,-2.01265 -4.62908,-3.82403 -2.01265,-2.61645 -2.51581,-4.62909 -2.61645,-9.56007 -0.10063,-5.33352 -0.50315,-6.64174 -3.22023,-9.86198 -5.53478,-6.74236 -11.97525,-28.5796 -10.76766,-36.63017 0.40252,-2.51581 0.90569,-4.93099 1.20758,-5.43415 0.80506,-1.30822 1.30822,-0.80506 0.70443,0.80506 z"
             fill="#f3f3f3"
             id="path1173"
             style="fill:#ff5555;stroke:#ff2a2a" />
        </g>
        <g
           id="Graphic_9"
           style="fill:#ff5555;stroke:#ff2a2a">
          <path
             d="m 100.1092,284.3749 c 1.00633,2.8177 0.50316,4.42783 -1.00632,2.8177 -0.50316,-0.50315 -1.20759,-1.912 -1.61012,-3.22022 -0.90569,-3.22024 1.30822,-2.81771 2.61644,0.40252 z"
             fill="#f3f3f3"
             id="path1176"
             style="fill:#ff5555;stroke:#ff2a2a" />
        </g>
        <g
           id="Graphic_8"
           style="fill:#ff5555;stroke:#ff2a2a">
          <path
             d="m 278.12784,301.98557 c 0,1.10695 -6.94364,1.00633 -11.06954,0 -1.91203,-0.40253 -1.10697,-0.70443 3.01895,-1.10697 6.03795,-0.60378 8.05059,-0.3019 8.05059,1.10697 z"
             fill="#f3f3f3"
             id="path1179"
             style="fill:#ff5555;stroke:#ff2a2a" />
        </g>
        <g
           id="Graphic_7"
           style="fill:#ff5555;stroke:#ff2a2a">
          <path
             d="m 282.75693,305.40707 c 1.40887,1.30823 1.30822,1.50948 -0.80506,1.50948 -1.30822,0 -3.22023,-0.70442 -4.22657,-1.50948 -1.912,-1.40887 -1.912,-1.50947 0.80507,-1.50947 1.50949,0 3.4215,0.7044 4.22656,1.50947 z"
             fill="#f3f3f3"
             id="path1182"
             style="fill:#ff5555;stroke:#ff2a2a" />
        </g>
        <g
           id="Graphic_6"
           style="fill:#ff5555;stroke:#ff2a2a">
          <path
             d="m 155.7589,342.64104 c -0.6038,1.50949 -6.44048,3.92466 -6.44048,2.51581 0,-1.30822 5.13226,-5.13225 6.13858,-4.52845 0.40253,0.3019 0.6038,1.2076 0.3019,2.01264 z"
             fill="#f3f3f3"
             id="path1185"
             style="fill:#ff5555;stroke:#ff2a2a" />
        </g>
        <g
           id="Graphic_5"
           style="fill:#ff5555;stroke:#ff2a2a">
          <path
             d="m 175.18094,355.9245 c -0.3019,1.00634 -0.50316,0.40254 -0.50316,-1.20758 0,-1.71075 0.20126,-2.41517 0.50316,-1.81138 0.20126,0.70443 0.20126,2.11328 0,3.01896 z"
             fill="#f3f3f3"
             id="path1188"
             style="fill:#ff5555;stroke:#ff2a2a" />
        </g>
        <g
           id="Graphic_4"
           style="fill:#ff5555;stroke:#ff2a2a">
          <path
             d="m 192.28844,363.47194 c -0.3019,0.80506 -0.60379,0.50316 -0.60379,-0.60379 -0.10063,-1.10695 0.20126,-1.71075 0.50315,-1.30823 0.3019,0.3019 0.40254,1.20758 0.10064,1.91202 z"
             fill="#f3f3f3"
             id="path1191"
             style="fill:#ff5555;stroke:#ff2a2a" />
        </g>
      </g>
    </g>
    <path
       style="fill:#ff2a2a;stroke:#ff2a2a;stroke-width:1px;stroke-linecap:butt;stroke-linejoin:miter;stroke-opacity:1"
       d="m 139.75898,28.559398 c -1.76884,-8.689535 1.76603,11.438175 2.61639,16.391517 0.91279,5.317006 0.86834,2.739726 1.87463,6.924086 0.91555,3.807028 -4.49102,-23.315603 -4.49102,-23.315603 z"
       id="path1316"
       sodipodi:nodetypes="cssc" />
  </g>
</svg>
