<?xml version="1.0" encoding="UTF-8" standalone="no"?>
<!-- Generator: Adobe Illustrator 19.0.0, SVG Export Plug-In . SVG Version: 6.00 Build 0)  -->

<svg
   xmlns:dc="http://purl.org/dc/elements/1.1/"
   xmlns:cc="http://creativecommons.org/ns#"
   xmlns:rdf="http://www.w3.org/1999/02/22-rdf-syntax-ns#"
   xmlns:svg="http://www.w3.org/2000/svg"
   xmlns="http://www.w3.org/2000/svg"
   xmlns:xlink="http://www.w3.org/1999/xlink"
   xmlns:sodipodi="http://sodipodi.sourceforge.net/DTD/sodipodi-0.dtd"
   xmlns:inkscape="http://www.inkscape.org/namespaces/inkscape"
   version="1.1"
   id="Layer_1"
   x="0px"
   y="0px"
   viewBox="0 0 256 256"
   style="enable-background:new 0 0 256 256;"
   xml:space="preserve"
   sodipodi:docname="M1Garand.svg"
   inkscape:version="0.92.3 (2405546, 2018-03-11)"><metadata
   id="metadata907"><rdf:RDF><cc:Work
       rdf:about=""><dc:format>image/svg+xml</dc:format><dc:type
         rdf:resource="http://purl.org/dc/dcmitype/StillImage" /></cc:Work></rdf:RDF></metadata><defs
   id="defs905"><linearGradient
     id="InnoGrad2"
     inkscape:collect="always"><stop
       id="stop1015"
       offset="0"
       style="stop-color:#ff9955;stop-opacity:1" /><stop
       id="stop1017"
       offset="1"
       style="stop-color:#ffccaa;stop-opacity:1" /></linearGradient><linearGradient
     inkscape:collect="always"
     xlink:href="#InnoGrad2"
     id="linearGradient989"
     x1="227.37416"
     y1="28.25901"
     x2="219.54231"
     y2="16.81344"
     gradientUnits="userSpaceOnUse" /><linearGradient
     inkscape:collect="always"
     xlink:href="#InnoGrad2"
     id="linearGradient1021"
     gradientUnits="userSpaceOnUse"
     x1="230.8"
     y1="32.5"
     x2="226.04294"
     y2="25.51457" /></defs><sodipodi:namedview
   pagecolor="#ffffff"
   bordercolor="#666666"
   borderopacity="1"
   objecttolerance="10"
   gridtolerance="10"
   guidetolerance="10"
   inkscape:pageopacity="0"
   inkscape:pageshadow="2"
   inkscape:window-width="1920"
   inkscape:window-height="1027"
   id="namedview903"
   showgrid="false"
   inkscape:zoom="4.7398251"
   inkscape:cx="163.09956"
   inkscape:cy="162.60107"
   inkscape:window-x="-8"
   inkscape:window-y="-8"
   inkscape:window-maximized="1"
   inkscape:current-layer="Layer_1" />
<style
   type="text/css"
   id="style862">
	.st0{fill:#FFFFFF;stroke:#000000;stroke-width:0.6;stroke-miterlimit:10;}
</style>
<path
   id="XMLID_3_"
   class="st0"
   d="M170.4,85.1l45.4-38.3c0,0,1.8-1.2-2.5-4.5c-4.3-3.3-51.1,34.5-51.1,34.5L170.4,85.1z"
   style="stroke:#000000;stroke-opacity:1;fill:#ff5555" />
<path
   id="XMLID_21_"
   class="st0"
   d="m 213.68806,39.960373 -3.1,2.6 c 0,0 -0.9,-0.4 -3.1,-3.8 l 3.3,-2.4 z"
   style="fill:#ffdd55;stroke:#000000;stroke-width:0.60000002;stroke-miterlimit:10;stroke-opacity:1"
   inkscape:connector-curvature="0" />
<path
   id="XMLID_23_"
   class="st0"
   d="M230.6,12.5c-1.2,1-1.7,2.4-1.1,3.1L233,20l4.4-3.6l-3.6-4.4C233.3,11.3,231.8,11.5,230.6,12.5z  "
   style="stroke:#000000;stroke-opacity:1;fill:#ffd42a" />
<path
   id="XMLID_2_"
   class="st0"
   d="M28.1,247c0,0-6-2.1-9.5-6.6S5.4,224,5.4,224s-1.9-3.1,0.5-4.8s43.5-37.5,43.5-37.5  s3.2-3,6.4-3.5s5.7-5.5,5.7-5.5l4.4-9.4c0,0,2.2-4.1,8.8-9.7s39.8-32.3,39.8-32.3l-4.7-5.8l53.8-43.1c0,0,1.2-0.6,2,0.6  c0.8,1.2,2.2,2.7,2.2,2.7l-1.6,1.2l6.6,8.1c0,0,0.2,0.3-0.2,0.9l-44.2,41.7c0,0-7.3,7.2-8,9.3c-0.7,2.1-3.7,4.4-3.7,4.4l-20.3,16.2  c0,0-1.2,0.8-2.8,0.9c-1.6,0.1-26.1,13.5-21.4,33.3c0.1,0.5-0.1,1.1-0.6,1.3l-9.6,5.2c0,0-1.4,0.5-2.2,2.2  c-0.7,1.7-28.2,44.4-28.2,44.4S30,247,28.1,247z"
   style="stroke:#000000;stroke-opacity:1;fill:#ffd42a" />
<path
   id="XMLID_22_"
   class="st0"
   d="M210.5,37.2L244,10.3c0,0,2.3,0.2,2.4,2.7L213,40.2L210.5,37.2z"
   style="stroke:#000000;stroke-opacity:1;fill-opacity:1.0;fill:url(#linearGradient989)" />
<path
   id="XMLID_25_"
   class="st0"
   d="M242.7,16.3l-32.4,26.6l2.9,3.6L246,20.4c0.4-0.3,0-1.5-0.9-2.6C244.2,16.6,243.1,16,242.7,16.3  z"
   style="stroke:#000000;stroke-opacity:1;fill-opacity:1;fill:url(#linearGradient1021)" />
<rect
   id="XMLID_20_"
   x="214.4"
   y="42.2"
   transform="matrix(-0.7764 0.6303 -0.6303 -0.7764 412.8451 -59.448)"
   class="st0"
   width="5.1"
   height="2.6"
   style="stroke:#000000;stroke-opacity:1;fill:#ff9955" />
<path
   id="XMLID_4_"
   class="st0"
   d="M163.1,73.5l44.6-36.2c0,0,0.8-0.5,1.6,0.2c0.9,0.7,5,4.5,5.8,6.1s-0.9,2.2-0.9,2.2l-41.1,34.6  c0,0-1.6-2.5-4.3-5.6l-3.3,2.6L163.1,73.5z"
   style="stroke:#000000;stroke-opacity:1;fill:#ff8080" />
<path
   id="XMLID_5_"
   class="st0"
   d="M166.4,70.2c0,0,2.8,1.9,7.9,9.1l39.9-33.6c0,0-4.4-6.9-7.4-8.2L166.4,70.2z"
   style="stroke:#000000;stroke-opacity:1;fill:#ffe680" />
<path
   id="XMLID_10_"
   class="st0"
   d="M74.7,153.6c-6.6,5.6-8.8,9.7-8.8,9.7l-4.4,9.4c0,0-2.5,5-5.7,5.5s-6.4,3.5-6.4,3.5  S8.3,217.4,5.9,219.1c-2.1,1.5-0.9,4-0.6,4.7c1.9,2.3,4.8,5.9,7.3,9c1.7,2.1,3.4,4.2,4.8,5.9c3.5,3.8,8.5,5.5,8.5,5.5  c1.9,0,3.5-2.2,3.5-2.2s27.5-42.7,28.2-44.4s2.2-2.2,2.2-2.2l9.6-5.2c0.5-0.3,0.7-0.8,0.6-1.3c-4.7-19.8,19.8-33.2,21.4-33.3  c1.6-0.1,2.8-0.9,2.8-0.9l20.3-16.2c0,0,3-2.3,3.7-4.4c0.7-2.1,8-9.3,8-9.3L170.2,83c0.4-0.4,0.3-0.7,0.3-0.8l-4.4-5.4l0,0l-2.3-2.8  l1.6-1.2c-0.8-1-1.9-0.5-1.9-0.5l-53.8,43.1l2.5,3.1l2.2,2.8C114.4,121.3,81.3,148,74.7,153.6z"
   style="stroke:#000000;stroke-opacity:1;fill:#ffe680" />
<path
   id="XMLID_9_"
   class="st0"
   d="M6.8,222.7c0,0-1.1-1.3-1.4-3.1c-1.5,1.8,0,4.3,0,4.3s9.8,11.8,13.3,16.4s9.5,6.6,9.5,6.6  c0.2,0,0.5,0,0.7-0.1c-0.9-0.4-2.3-1.4-4.1-3.2C20,238.9,6.8,222.7,6.8,222.7z"
   style="stroke:#000000;stroke-opacity:1;fill:#ffb380" />
<polygon
   id="XMLID_8_"
   class="st0"
   points="86.5,135.7 89.8,138.7 81.6,145.4 78.3,141.2 "
   style="stroke:#000000;stroke-opacity:1;fill:#ff7f2a" />
<path
   id="XMLID_11_"
   class="st0"
   d="M67.5,160.9c1.3-1.7,3.6-4.3,7.2-7.3c6.6-5.6,39.8-32.3,39.8-32.3l-3.9-4.8l-5.8,4.7l-7,7.8  L73.1,148l-0.7,2.3l-6.5,5.9C66.8,156.7,67.2,159,67.5,160.9z"
   style="stroke:#000000;stroke-opacity:1;fill:#ff9955" />
<polygon
   id="XMLID_6_"
   class="st0"
   points="76.5,152.1 73.1,148 74.2,147.2 77.5,151.2 "
   style="stroke:#000000;stroke-opacity:1;fill:#ffccaa" />
<path
   id="XMLID_7_"
   class="st0"
   d="M81.6,140l4.9-4.4l-3.4,0.2c0,0-2.9,3.8-8.9,4.5l-2.5,2.7l2.1,2.6l0.4,1.5l3.3,4.1l32.4-26.3  l-2.4-3l-24.3,20c0,0-0.4,0.3-0.7,0.4c-0.6,0.2-1.9-0.7-1.5-1.7L81.6,140z"
   style="stroke:#000000;stroke-opacity:1;stroke-width:0.60094488;stroke-miterlimit:10;stroke-dasharray:none;stroke-linejoin:bevel;fill:#ff9955" />
<path
   id="XMLID_15_"
   class="st0"
   d="M75.9,139.8c-1.2-0.4-2.3-0.7-3.3,0.1c-1.2,0.9-1.3,2.7-0.4,3.8c0.5,0.6,1.3,0.9,2.1,1.2  c1.2,0.2,2.1,0.5,3-0.3c1.1-0.9,1.3-2.6,0.4-3.8C77.3,140.3,76.7,140.1,75.9,139.8z"
   style="stroke:#000000;stroke-opacity:1;fill:#ffccaa" />
<circle
   id="XMLID_12_"
   class="st0"
   cx="74.9"
   cy="142.3"
   r="0.9"
   style="stroke:#000000;stroke-opacity:1;fill:#ff8080" />
<polygon
   id="XMLID_1_"
   class="st0"
   points="103.6,126.4 77.9,147.9 78.4,148.6 104.3,127.1 "
   style="stroke:#000000;stroke-opacity:1;fill:#ff8080" />
<path
   id="XMLID_14_"
   class="st0"
   d="M104.7,126.8l9.8-7.8l-4-4.9l-3.5,2.9c0,0-0.4,0.8-0.1,1.8s-0.2,2-0.2,2l-4.3,3.5L104.7,126.8z"
   style="stroke:#000000;stroke-opacity:1;fill:#ffdd55" />
<path
   id="XMLID_18_"
   class="st0"
   d="M102.4,123.3c-0.5-0.6-1.2-0.8-1.6-0.5s-0.3,1,0.2,1.6c0,0,2.8,3.5,2.8,3.5l1.3-1.1  C105.2,126.8,102.4,123.3,102.4,123.3z"
   style="stroke:#000000;stroke-opacity:1;fill:#ffccaa" />
<rect
   id="XMLID_13_"
   x="109.7"
   y="105.3"
   transform="matrix(0.7764 -0.6303 0.6303 0.7764 -38.9952 103.9033)"
   class="st0"
   width="34.5"
   height="3.1"
   style="stroke:#000000;stroke-opacity:1;fill:#ffaaaa" />
<rect
   id="XMLID_16_"
   x="110.4"
   y="107.4"
   transform="matrix(-0.7764 0.6303 -0.6303 -0.7764 294.76 111.0733)"
   class="st0"
   width="34.5"
   height="0.8"
   style="stroke:#000000;stroke-opacity:1;fill:#ff5555" />
<rect
   id="XMLID_17_"
   x="120.6"
   y="106"
   transform="matrix(0.7764 -0.6303 0.6303 0.7764 -40.3871 100.8119)"
   class="st0"
   width="2.6"
   height="2.6"
   style="stroke:#000000;stroke-opacity:1;fill:#ffb380" />
<line
   id="XMLID_19_"
   class="st0"
   x1="165.9"
   y1="76.6"
   x2="140.8"
   y2="96.7"
   style="stroke:#000000;stroke-opacity:1" />
<polygon
   id="XMLID_26_"
   class="st0"
   points="230.1,31.6 225.7,35.2 226.4,36 226.8,35.8 227.8,37.1 231.1,34.4 230,33.1 230.8,32.5   "
   style="stroke:#000000;stroke-opacity:1;fill:#ff8080" />
<path
   id="XMLID_29_"
   class="st0"
   d="M230.9,11.9c-1.2,1-1.8,2.3-1.2,3l3.3,4l4.4-3.6l-3.3-4C233.6,10.7,232.1,10.9,230.9,11.9z"
   style="stroke:#000000;stroke-opacity:1;fill:#ffccaa" />
<path
   id="XMLID_31_"
   class="st0"
   d="M234.2,15.8l-1.4-1.7c0.2-0.3,0.2-0.6,0-0.9c-0.3-0.3-0.7-0.4-1.1-0.1c-0.3,0.3-0.4,0.7-0.1,1.1  c0.2,0.3,0.7,0.4,1,0.2l1.4,1.7l-1,0.8l0.2,0.2l2.4-2l-0.2-0.2L234.2,15.8z"
   style="stroke:#000000;stroke-opacity:1;fill:#000000" />
<path
   id="XMLID_24_"
   class="st0"
   d="M172.1,92.2l-0.6-0.1c-0.5-0.1-0.8-0.5-0.8-1l1.2-7.8c0.1-0.5,0.5-0.8,1-0.8l0.6,0.1  c0.5,0.1,0.8,0.5,0.8,1l-1.2,7.8C173.1,91.9,172.6,92.3,172.1,92.2z"
   style="stroke:#000000;stroke-opacity:1;fill:#ffccaa" />
<path
   id="XMLID_28_"
   class="st0"
   d="M216,51.8l-0.6-0.1c-0.5-0.1-0.8-0.5-0.8-1l1.2-7.8c0.1-0.5,0.5-0.8,1-0.8l0.6,0.1  c0.5,0.1,0.8,0.5,0.8,1l-1.2,7.8C217,51.6,216.5,51.9,216,51.8z"
   style="stroke:#000000;stroke-opacity:1;fill:#ffccaa" />
<path
   id="XMLID_30_"
   class="st0"
   d="M48.2,229.8l0.1,0.6c0.1,0.5-0.3,1-0.8,1.1l-7.8,1.3c-0.5,0.1-1-0.3-1.1-0.8l-0.1-0.6  c-0.1-0.5,0.3-1,0.8-1.1l7.8-1.3C47.6,229,48.1,229.3,48.2,229.8z"
   style="stroke:#000000;stroke-opacity:1;fill:#ffccaa" />
<polygon
   id="XMLID_35_"
   class="st0"
   points="96.1,151.6 97.5,153.4 95,155.4 96.8,157.7 116.2,142.1 116,141.9 114.3,139.8   112.9,138 "
   style="stroke:#000000;stroke-opacity:1;fill:#ffaaaa" />
<rect
   id="XMLID_32_"
   x="93.1"
   y="155.7"
   transform="matrix(0.7764 -0.6303 0.6303 0.7764 -78.2489 95.0009)"
   class="st0"
   width="3.3"
   height="4.2"
   style="stroke:#000000;stroke-opacity:1;fill:#ff9955" />
<rect
   id="XMLID_33_"
   x="96.1"
   y="159.1"
   class="st0"
   width="0"
   height="0.3" />
<path
   id="XMLID_43_"
   class="st0"
   d="M86.7,162.2c-0.7,0.5-1.5,1.1-2.3,1.8c-0.2,1.3-0.4,4.6,2.8,6.4l0.9-0.6  C86.7,169,83.7,166.4,86.7,162.2z"
   style="stroke:#000000;stroke-opacity:1;fill:#ffb380" />
<path
   id="XMLID_34_"
   class="st0"
   d="M95.2,162.7l-1.7,1.4c-0.2,0.2-0.6,0.1-0.7-0.1l-3-3.6c-0.2-0.2-0.1-0.6,0.1-0.7l1.7-1.4  c0.2-0.2,0.6-0.1,0.7,0.1l3,3.6C95.5,162.2,95.4,162.5,95.2,162.7z"
   style="stroke:#000000;stroke-opacity:1;fill:#ffaaaa" />
<path
   id="XMLID_42_"
   class="st0"
   d="M92.2,157.2c0,0-13.1,8.9-14.4,11.7c-1.4,2.8,1.9,3.4,2.5,3c0,0,1.3-1,3.2-0.3  c1.9,0.7,2.9,0.8,3.8,0.2c0.9-0.6,4.7-3.6,4.7-3.6s1.4-1.5,1.1-4.1c-0.3-2.6-2.9-4.3-2.9-4.3l2.7-1.9L92.2,157.2z M78.9,168.8  c0.1-0.2,0.4-0.5,0.7-0.8c0.5,0.5,1.3,1.6,1.8,2.6c-0.4,0.1-0.4,0.3-1.4,0.3C78.4,171,78,170.3,78.9,168.8z M90.7,167.9l-4.3,3.1  c-0.4,0.5-1.5,0.1-3.6-0.3c-0.3-0.1-0.5-0.1-0.7-0.1l-1.9-3.2c2.8-2.5,9.1-7.1,9.1-7.1C93.7,164.1,90.7,167.9,90.7,167.9z"
   style="stroke:#000000;stroke-opacity:1;fill:#ffb380" />
<path
   id="XMLID_40_"
   class="st0"
   d="M239.7,16.2c-0.7-0.9-1.4-1-1.8-1.3l-4.9,4c0.4,0.3,1.3,0.6,1.8,1.3c0.6,0.8,0.6,1.2,0.7,1.9  l4.9-4C240.4,17.4,240.4,17,239.7,16.2z"
   style="stroke:#000000;stroke-opacity:1;fill-opacity:1;fill:#ff8080" />
<path
   id="XMLID_39_"
   class="st0"
   d="M242.7,19.8c-0.6-0.8-1.4-1.3-2.1-1.6l-0.1-0.2l-4.9,4l0.2,0.2c0.7,0.3,1.5,0.8,2.1,1.6  c0.6,0.7,1,1.5,1.1,2.3l4.9-4C243.7,21.4,243.3,20.6,242.7,19.8z"
   style="stroke:#000000;stroke-opacity:1;fill-opacity:1;fill:#ff8080" />
</svg>