<?xml version="1.0" encoding="UTF-8" standalone="no"?>
<svg
   xmlns:dc="http://purl.org/dc/elements/1.1/"
   xmlns:cc="http://creativecommons.org/ns#"
   xmlns:rdf="http://www.w3.org/1999/02/22-rdf-syntax-ns#"
   xmlns:svg="http://www.w3.org/2000/svg"
   xmlns="http://www.w3.org/2000/svg"
   xmlns:sodipodi="http://sodipodi.sourceforge.net/DTD/sodipodi-0.dtd"
   xmlns:inkscape="http://www.inkscape.org/namespaces/inkscape"
   version="1.1"
   viewBox="0 0 64 64"
   id="svg112"
   sodipodi:docname="icon.svg"
   inkscape:version="1.0.1 (3bc2e813f5, 2020-09-07)">
  <metadata
     id="metadata118">
    <rdf:RDF>
      <cc:Work
         rdf:about="">
        <dc:format>image/svg+xml</dc:format>
        <dc:type
           rdf:resource="http://purl.org/dc/dcmitype/StillImage" />
        <dc:title />
      </cc:Work>
    </rdf:RDF>
  </metadata>
  <defs
     id="defs116" />
  <sodipodi:namedview
     pagecolor="#ffffff"
     bordercolor="#666666"
     borderopacity="1"
     objecttolerance="10"
     gridtolerance="10"
     guidetolerance="10"
     inkscape:pageopacity="0"
     inkscape:pageshadow="2"
     inkscape:window-width="1366"
     inkscape:window-height="715"
     id="namedview114"
     showgrid="false"
     inkscape:zoom="8.152706"
     inkscape:cx="30.728611"
     inkscape:cy="27.40893"
     inkscape:window-x="-8"
     inkscape:window-y="-8"
     inkscape:window-maximized="1"
     inkscape:current-layer="svg112"
     inkscape:document-rotation="0" />
  <path
     d="m 23.743816,61.387909 c 0.05421,-4.081905 2.277136,-8.872664 5.054678,-13.61629 1.904092,-6.01538 19.053388,-3.263136 19.053388,-3.263136 2.711719,0.858969 6.081288,-4.806288 6.081288,-4.806288 2.732808,-3.072326 -2.208396,-3.284783 -2.208396,-3.284783 C 31.452846,29.474934 44.51667,25.823418 27.125854,22.08702 l -0.408756,3.460733 c 0.468713,-6.535601 1.221684,-19.8955818 1.221684,-19.8955818 0,0 -8.698019,15.3401968 -7.615076,23.2786358 -0.224017,-3.423711 0.152986,-4.834289 0.841153,-7.276507 -15.621342,3.210385 -3.931172,23.091608 -10.028535,27.086948 0,0 7.660585,3.686962 12.607492,12.646661 z"
     fill="#ff8080"
     stroke="#000000"
     stroke-linecap="round"
     stroke-linejoin="round"
     id="path110"
     sodipodi:nodetypes="cccccccccccc" />
</svg>
