<svg viewBox="0 0 64 64" xmlns="http://www.w3.org/2000/svg">
 <!-- Created with Method Draw - http://github.com/duopixel/Method-Draw/ -->

 <g>
  <title>background</title>
  <rect fill="none" id="canvas_background" height="64" width="64" y="-1" x="-1"/>
  <g display="none" id="canvasGrid">
   <rect fill="url(#gridpattern)" stroke-width="0" y="1" x="1" height="64" width="64" id="svg_1"/>
  </g>
 </g>
 <g>
  <title>Layer 1</title>
  <rect fill="#C48157" stroke-width="null" x="28.72037" y="11.22934" width="7.13814" height="3.88341" id="svg_45" stroke="null"/>
  <rect fill="#ff8080" stroke-width="null" x="27.2906" y="22.247" width="10.41821" height="8.67735" id="svg_44" stroke="null"/>
  <rect fill="#ff8080" stroke-width="null" x="22.74554" y="25.20246" width="10.57585" height="5.7337" id="svg_42" transform="rotate(-71.94987487792969 28.033466339111328,28.069307327270508) " stroke="null"/>
  <rect fill="#ff8080" stroke-width="null" x="31.8444" y="25.23599" width="10.33157" height="5.7337" id="svg_43" transform="rotate(-107.97701263427734 37.010189056396484,28.102842330932617) " stroke="null"/>
  <rect fill="#ff8080" stroke-width="null" x="24.09463" y="29.22766" width="17.14655" height="5.7337" id="svg_41" stroke="null"/>
  <rect fill="#ff8080" stroke-width="null" x="20.73046" y="33.51698" width="24.12721" height="5.7337" id="svg_40" stroke="null"/>
  <rect fill="#ff8080" stroke-width="null" x="15.85241" y="36.37652" width="34.13562" height="5.48139" id="svg_39" stroke="null"/>
  <rect fill="#ff8080" stroke-width="null" x="12.82466" y="39.9089" width="40.52754" height="3.21058" id="svg_38" stroke="null"/>
  <rect fill="#ff8080" stroke-width="null" x="36.79445" y="34.51397" width="17.84975" height="2.17979" id="svg_36" transform="rotate(35.001461029052734 45.71932220458984,35.60386276245118) " stroke="null"/>
  <rect fill="#ff8080" stroke-width="null" x="11.39495" y="34.26166" width="17.84975" height="2.17979" id="svg_37" transform="rotate(-36.96590042114258 20.319826126098647,35.35154342651367) " stroke="null"/>
  <rect fill="#ff8080" stroke-width="null" x="11.98362" y="41.08636" width="42.20963" height="3.21058" id="svg_32" stroke="null"/>
  <rect fill="#ff8080" stroke-width="null" x="11.05998" y="43.9502" width="44.00377" height="7.80661" id="svg_31" stroke="null"/>
  <line fill="none" stroke="#000" stroke-opacity="null" fill-opacity="null" x1="10.18947" y1="52.22895" x2="56.08182" y2="51.94566" id="svg_7" stroke-linejoin="undefined" stroke-linecap="undefined"/>
  <path fill="none" stroke-opacity="null" fill-opacity="null" id="svg_8" d="m10.56719,52.51223c0,-0.10757 0.10486,-0.21515 0.10486,-0.32272c0,-0.10757 0,-0.32272 0,-0.4303c0,-0.21515 0,-0.53787 0,-0.64544c0,-0.32272 0,-0.53787 0,-0.86059c0,-0.32272 0,-0.64544 0,-0.96816c0,-0.21515 0.10486,-0.4303 0.10486,-0.64544c0,-0.10757 0.10486,-0.21515 0.10486,-0.43029c0,-0.21515 0.10486,-0.32272 0.10486,-0.53787c0,-0.10757 0.05099,-0.30376 0.10486,-0.53787c0.04818,-0.20939 0,-0.43029 0,-0.64544c0,-0.32272 0.05174,-0.63238 0.10486,-0.96816c0.03359,-0.21237 0,-0.32272 0,-0.64544c0,-0.10757 0.11999,-0.31564 0.20972,-0.53787c0.1269,-0.31428 0.08282,-0.43874 0.20972,-0.75302c0.08973,-0.22223 0.18768,-0.43873 0.31458,-0.75301c0.08973,-0.22223 0.11999,-0.42321 0.20972,-0.64544c0.1269,-0.31428 0.26071,-0.41133 0.31458,-0.64544c0.04818,-0.20939 0.10486,-0.4303 0.20972,-0.64544c0.10486,-0.21515 0.10486,-0.43029 0.20972,-0.64544c0.10486,-0.21515 0.20972,-0.32272 0.31458,-0.53787c0.10486,-0.21515 0.16959,-0.43848 0.20972,-0.53787c0.1135,-0.2811 0.31458,-0.4303 0.41944,-0.53787c0.20972,-0.21515 0.29914,-0.34134 0.41944,-0.4303c0.19021,-0.14065 0.40096,-0.37503 0.62916,-0.43029c0.10205,-0.02471 0.20972,-0.10757 0.41944,-0.32272c0.10486,-0.10757 0.28234,-0.23516 0.41944,-0.4303c0.08671,-0.12342 0.21252,-0.19043 0.31458,-0.21514c0.2282,-0.05526 0.24043,-0.24665 0.31458,-0.32272c0.07415,-0.07607 0.29329,-0.13517 0.41944,-0.21515c0.28207,-0.17884 0.41944,-0.10757 0.62916,-0.21515c0.20972,-0.10757 0.32019,-0.05814 0.5243,-0.10757c0.2282,-0.05526 0.2961,-0.26746 0.5243,-0.32272c0.10206,-0.02471 0.17883,-0.14481 0.41944,-0.32272c0.19022,-0.14064 0.31458,-0.21515 0.41944,-0.32272c0.10486,-0.10757 0.2177,-0.17398 0.31458,-0.21515c0.13701,-0.05822 0.17757,-0.15693 0.31458,-0.21515c0.09688,-0.04117 0.31738,-0.19043 0.41944,-0.21515c0.2282,-0.05526 0.41944,-0.21514 0.62916,-0.43029c0.10486,-0.10757 0.17883,-0.25239 0.41944,-0.4303c0.19022,-0.14065 0.31458,-0.21515 0.5243,-0.4303c0.10486,-0.10757 0.20972,-0.21514 0.31458,-0.32272c0.10486,-0.10757 0.16959,-0.22334 0.20972,-0.32272c0.05675,-0.14055 0.31458,-0.21515 0.41944,-0.4303c0.10486,-0.21515 0.10486,-0.32272 0.31458,-0.53787c0.10486,-0.10757 0.20972,-0.32272 0.31458,-0.4303c0.10486,-0.10757 0.25783,-0.18217 0.31458,-0.32272c0.04013,-0.09939 0.16959,-0.22334 0.20972,-0.32272c0.05675,-0.14055 0.15297,-0.18217 0.20972,-0.32272c0.04013,-0.09939 0.15585,-0.30376 0.20972,-0.53787c0.02409,-0.1047 0.05668,-0.2209 0.10486,-0.43029c0.05387,-0.23411 0.23433,-0.44667 0.31458,-0.64544c0.05675,-0.14055 0.15459,-0.33879 0.20972,-0.43029c0.12327,-0.20462 0.25783,-0.18217 0.31458,-0.32272c0.04013,-0.09938 0.08077,-0.21802 0.10486,-0.32272c0.05387,-0.23411 0.12301,-0.30688 0.20972,-0.4303c0.1371,-0.19514 0.12301,-0.41445 0.20972,-0.53787c0.1371,-0.19514 0.07262,-0.34273 0.20972,-0.53787c0.08671,-0.12342 0.02461,-0.23152 0.10486,-0.43029c0.05675,-0.14055 0.15297,-0.18217 0.20972,-0.32272c0.08025,-0.19877 0.04811,-0.28974 0.10486,-0.43029c0.04013,-0.09938 0.10486,-0.21515 0.10486,-0.32272c0,-0.10757 0.06473,-0.22334 0.10486,-0.32272c0.05675,-0.14055 0.10486,-0.21515 0.10486,-0.32272c0,-0.10757 0.10486,-0.10757 0.10486,-0.21515c0,-0.21515 0.03071,-0.24666 0.10486,-0.32272c0.14829,-0.15213 0.04811,-0.28974 0.10486,-0.43029c0.04013,-0.09938 0.04811,-0.28974 0.10486,-0.43029c0.04013,-0.09938 0,-0.32272 0,-0.4303c0,-0.10757 0.10486,-0.10757 0.10486,-0.21515c0,-0.10757 0.04811,-0.18217 0.10486,-0.32272c0.04013,-0.09938 -0.08025,-0.23152 0,-0.43029c0.05675,-0.14055 0.10486,-0.32272 0.10486,-0.4303c0,-0.10757 0,-0.32272 0,-0.43029c0,-0.10757 0.10486,-0.32272 0.10486,-0.43029c0,-0.10757 0.04811,-0.18217 0.10486,-0.32272c0.04013,-0.09938 0.10486,-0.21515 0.10486,-0.32272c0,-0.10757 0.10486,-0.21515 0.10486,-0.32272c0,-0.10757 0,-0.21515 0,-0.32272c0,-0.10757 0.10486,-0.10757 0.10486,-0.32272c0,-0.10757 0,-0.21515 0,-0.32272c0,-0.10757 0.02461,-0.23152 0.10486,-0.43029c0.05675,-0.14055 0.10486,-0.21515 0.10486,-0.32272c0,-0.10757 0,-0.21515 0,-0.32272c0,-0.10757 0.04811,-0.18217 0.10486,-0.32272c0.04013,-0.09938 0.03071,-0.13908 0.10486,-0.21515c0.07415,-0.07607 0.10486,-0.32272 0.10486,-0.43029c0,-0.10757 0,-0.21515 0,-0.32272c0,-0.10757 0,-0.21515 0,-0.32272l0,-0.10757l0,-0.10757l0,-0.10757" stroke="#000"/>
  <path fill="none" stroke-opacity="null" fill-opacity="null" id="svg_10" d="m55.70411,52.32337c0,-0.10731 -0.11363,-0.21461 -0.11363,-0.32191c0,-0.10731 0,-0.32192 0,-0.42923c0,-0.21461 0,-0.53652 0,-0.64383c0,-0.32192 0,-0.53652 0,-0.85844c0,-0.32192 0,-0.64383 0,-0.96575c0,-0.21461 -0.11365,-0.42922 -0.11365,-0.64383c0,-0.10731 -0.11365,-0.21461 -0.11365,-0.42922c0,-0.21461 -0.11365,-0.32192 -0.11365,-0.53653c0,-0.10731 -0.05526,-0.303 -0.11365,-0.53652c-0.05222,-0.20887 0,-0.42923 0,-0.64383c0,-0.32192 -0.05608,-0.63081 -0.11365,-0.96575c-0.03641,-0.21184 0,-0.32192 0,-0.64384c0,-0.1073 -0.13004,-0.31484 -0.22729,-0.53652c-0.13752,-0.3135 -0.08976,-0.43764 -0.22728,-0.75114c-0.09725,-0.22168 -0.20341,-0.43764 -0.34094,-0.75114c-0.09724,-0.22168 -0.13004,-0.42216 -0.22729,-0.64383c-0.13752,-0.3135 -0.28254,-0.41031 -0.34092,-0.64383c-0.05222,-0.20887 -0.11365,-0.42923 -0.22729,-0.64384c-0.11365,-0.21461 -0.11365,-0.42922 -0.22729,-0.64383c-0.11365,-0.21461 -0.22728,-0.32192 -0.34092,-0.53652c-0.11365,-0.21461 -0.1838,-0.43739 -0.22729,-0.53652c-0.12301,-0.28041 -0.34094,-0.42923 -0.45458,-0.53653c-0.22728,-0.21461 -0.3242,-0.34049 -0.45457,-0.42923c-0.20615,-0.1403 -0.43454,-0.37409 -0.68186,-0.42922c-0.1106,-0.02465 -0.22729,-0.10731 -0.45458,-0.32191c-0.11365,-0.10731 -0.30599,-0.23458 -0.45457,-0.42923c-0.09398,-0.12311 -0.23034,-0.18995 -0.34094,-0.21461c-0.24732,-0.05512 -0.26057,-0.24603 -0.34092,-0.32191c-0.08037,-0.07587 -0.31787,-0.13483 -0.45458,-0.21461c-0.3057,-0.1784 -0.45457,-0.10731 -0.68186,-0.21461c-0.22729,-0.10731 -0.34701,-0.058 -0.56823,-0.10731c-0.24732,-0.05512 -0.3209,-0.26678 -0.56822,-0.32191c-0.1106,-0.02466 -0.19381,-0.14445 -0.45457,-0.32192c-0.20616,-0.1403 -0.34094,-0.21461 -0.45458,-0.32191c-0.11365,-0.10731 -0.23593,-0.17356 -0.34092,-0.21461c-0.14849,-0.05808 -0.19245,-0.15655 -0.34094,-0.21461c-0.10499,-0.04107 -0.34397,-0.18995 -0.45458,-0.21461c-0.2473,-0.05512 -0.45457,-0.2146 -0.68186,-0.42922c-0.11365,-0.10731 -0.19381,-0.25176 -0.45457,-0.42923c-0.20616,-0.1403 -0.34092,-0.21461 -0.56822,-0.42922c-0.11365,-0.10731 -0.22729,-0.21461 -0.34094,-0.32192c-0.11365,-0.10731 -0.1838,-0.22277 -0.22729,-0.32191c-0.0615,-0.1402 -0.34094,-0.21461 -0.45457,-0.42923c-0.11365,-0.21461 -0.11365,-0.32191 -0.34094,-0.53652c-0.11365,-0.10731 -0.22729,-0.32192 -0.34094,-0.42923c-0.11363,-0.10731 -0.27943,-0.18172 -0.34092,-0.32191c-0.04349,-0.09915 -0.1838,-0.22278 -0.22729,-0.32192c-0.06151,-0.1402 -0.16578,-0.18172 -0.22729,-0.32191c-0.04348,-0.09915 -0.1689,-0.30301 -0.22728,-0.53653c-0.02612,-0.10443 -0.06143,-0.22035 -0.11365,-0.42922c-0.05838,-0.23352 -0.25396,-0.44556 -0.34094,-0.64384c-0.0615,-0.14019 -0.16754,-0.33793 -0.22729,-0.42922c-0.13359,-0.2041 -0.27943,-0.18172 -0.34092,-0.32192c-0.04349,-0.09914 -0.08753,-0.21748 -0.11365,-0.32191c-0.05838,-0.23352 -0.13331,-0.30611 -0.22729,-0.42923c-0.14858,-0.19465 -0.13331,-0.41342 -0.22729,-0.53652c-0.14858,-0.19465 -0.0787,-0.34187 -0.22728,-0.53652c-0.09398,-0.12311 -0.02667,-0.23095 -0.11365,-0.42923c-0.06151,-0.1402 -0.16578,-0.18172 -0.22729,-0.32192c-0.08698,-0.19827 -0.05214,-0.28901 -0.11365,-0.42922c-0.04348,-0.09914 -0.11365,-0.21461 -0.11365,-0.32192c0,-0.1073 -0.07015,-0.22277 -0.11363,-0.32191c-0.06151,-0.1402 -0.11365,-0.21461 -0.11365,-0.32192c0,-0.10731 -0.11365,-0.10731 -0.11365,-0.21461c0,-0.2146 -0.03329,-0.24603 -0.11365,-0.32191c-0.16071,-0.15175 -0.05214,-0.28902 -0.11365,-0.42923c-0.04349,-0.09914 -0.05214,-0.28901 -0.11365,-0.42922c-0.04349,-0.09914 0,-0.32192 0,-0.42923c0,-0.10731 -0.11365,-0.10731 -0.11365,-0.2146c0,-0.10731 -0.05214,-0.18172 -0.11365,-0.32192c-0.04348,-0.09914 0.08699,-0.23094 0,-0.42922c-0.0615,-0.1402 -0.11363,-0.32192 -0.11363,-0.42923c0,-0.10731 0,-0.32192 0,-0.42922c0,-0.10731 -0.11365,-0.32192 -0.11365,-0.42923c0,-0.10731 -0.05215,-0.18172 -0.11365,-0.32192c-0.04349,-0.09914 -0.11365,-0.2146 -0.11365,-0.32191c0,-0.10731 -0.11365,-0.21461 -0.11365,-0.32192c0,-0.1073 0,-0.2146 0,-0.32191c0,-0.10731 -0.11365,-0.10731 -0.11365,-0.32192c0,-0.10731 0,-0.21461 0,-0.32191c0,-0.10731 -0.02667,-0.23095 -0.11365,-0.42923c-0.0615,-0.1402 -0.11365,-0.21461 -0.11365,-0.32192c0,-0.10731 0,-0.2146 0,-0.32191c0,-0.10731 -0.05214,-0.18172 -0.11363,-0.32192c-0.04349,-0.09914 -0.03329,-0.13874 -0.11365,-0.21461c-0.08036,-0.07587 -0.11365,-0.32191 -0.11365,-0.42922c0,-0.10731 0,-0.21461 0,-0.32192c0,-0.1073 0,-0.2146 0,-0.32191l0,-0.10731l0,-0.10731l0,-0.10731" stroke="#000"/>
  <rect fill="none" stroke="#000" stroke-width="null" stroke-opacity="null" fill-opacity="null" x="29.07521" y="11.24689" width="6.51558" height="3.68272" id="svg_11"/>
  <line fill="none" stroke="#000" stroke-width="null" stroke-opacity="null" fill-opacity="null" x1="25.01478" y1="38.82007" x2="24.92035" y2="45.99665" id="svg_13" stroke-linejoin="null" stroke-linecap="null"/>
  <line fill="none" stroke-width="null" stroke-opacity="null" fill-opacity="null" x1="24.82592" y1="39.66993" x2="28.31978" y2="42.50279" id="svg_14" stroke-linejoin="null" stroke-linecap="null" stroke="#000"/>
  <line fill="none" stroke-width="null" stroke-opacity="null" fill-opacity="null" x1="25.48692" y1="40.04765" x2="21.99306" y2="42.88051" id="svg_16" stroke-linejoin="null" stroke-linecap="null" stroke="#000"/>
  <line fill="none" stroke="#000" stroke-width="null" stroke-opacity="null" fill-opacity="null" x1="24.63706" y1="45.52451" x2="22.65406" y2="49.20723" id="svg_17" stroke-linejoin="null" stroke-linecap="null"/>
  <line fill="none" stroke-width="null" stroke-opacity="null" fill-opacity="null" x1="24.62405" y1="45.28522" x2="26.82265" y2="48.96794" id="svg_18" stroke-linejoin="null" stroke-linecap="null" stroke="#000"/>
  <ellipse fill="#000" stroke-width="null" cx="25.01478" cy="37.262" id="svg_19" rx="1.03872" ry="1.08593"/>
  <line fill="none" stroke="#000" stroke-width="null" stroke-opacity="null" fill-opacity="null" x1="47.48881" y1="44.95794" x2="38.99022" y2="44.76908" id="svg_20" stroke-linejoin="null" stroke-linecap="null"/>
  <line fill="none" stroke="#000" stroke-width="null" stroke-opacity="null" fill-opacity="null" x1="38.04594" y1="42.59722" x2="39.5568" y2="44.86351" id="svg_21" stroke-linejoin="null" stroke-linecap="null"/>
  <ellipse fill="#000" stroke-width="null" cx="37.05444" cy="41.51129" id="svg_22" rx="1.18036" ry="1.18036"/>
  <line fill="none" stroke="#000" stroke-width="null" stroke-opacity="null" fill-opacity="null" x1="39.27351" y1="44.95794" x2="36.44065" y2="48.4518" id="svg_23" stroke-linejoin="null" stroke-linecap="null"/>
  <line fill="none" stroke="#000" stroke-width="null" stroke-opacity="null" fill-opacity="null" x1="47.11109" y1="45.05237" x2="45.41138" y2="48.4518" id="svg_24" stroke-linejoin="null" stroke-linecap="null"/>
  <line fill="none" stroke="#000" stroke-width="null" stroke-opacity="null" fill-opacity="null" x1="39.46237" y1="44.95794" x2="41.63423" y2="48.73509" id="svg_25" stroke-linejoin="null" stroke-linecap="null"/>
  <line fill="none" stroke="#000" stroke-width="null" stroke-opacity="null" fill-opacity="null" x1="47.29995" y1="44.95794" x2="48.90524" y2="48.26294" id="svg_26" stroke-linejoin="null" stroke-linecap="null"/>
  <line fill="none" stroke-width="null" stroke-opacity="null" fill-opacity="null" x1="49.18852" y1="43.63594" x2="47.29995" y2="45.43008" id="svg_27" stroke-linejoin="null" stroke-linecap="null" stroke="#000"/>
  <path fill="none" stroke="#000" stroke-width="null" stroke-opacity="null" fill-opacity="null" id="svg_30" d="m27.46992,22.29505c0.09443,0 0.18886,0 0.28329,0c0.09443,0 0.18886,0 0.28329,0c0.09443,0 0.18886,-0.09443 0.28329,-0.09443c0.09443,0 0.12209,-0.02766 0.18886,-0.09443c0.06677,-0.06677 0.18886,0 0.28329,0c0.09443,0 0.18886,0 0.28329,0c0.09443,0 0.18886,0 0.28329,0c0.09443,0 0.18886,0 0.28329,0c0.09443,0 0.12209,-0.02766 0.18886,-0.09443c0.06677,-0.06677 0.21652,0.06677 0.28329,0c0.06677,-0.06677 0.09443,-0.09443 0.18886,-0.09443c0.09443,0 0.18886,0 0.28329,0c0.09443,0 0.18886,0 0.28329,0c0.09443,0 0.18886,0 0.28329,0c0.09443,0 0.18886,0 0.28329,0c0.09443,0 0.09443,0.09443 0.18886,0.09443c0.09443,0 0.19604,-0.03613 0.28329,0c0.12337,0.0511 0.18886,0.09443 0.28329,0.09443c0.09443,0 0.18886,0 0.28329,0c0.09443,0 0.18886,0 0.28328,0c0.09443,0 0.18886,0 0.28329,0c0.09443,0 0.18886,0 0.28329,0c0.09443,0 0.18886,0 0.28329,0c0.09443,0 0.09443,0.09443 0.18886,0.09443c0.09443,0 0.18885,0 0.28328,0c0.09443,0 0.12209,0.02766 0.18886,0.09443c0.13354,0.13354 0.28329,0 0.37772,0c0.09443,0 0.18886,0 0.28329,0c0.09443,0 0.18885,0.09443 0.28328,0.09443c0.09443,0 0.18886,0 0.37772,0c0.09443,0 0.09443,0.09443 0.18886,0.09443c0.09443,0 0.18886,0 0.28329,0c0.09443,0 0.18885,0 0.28328,0c0.09443,0 0.18886,0 0.28329,0c0.09443,0 0.18886,0 0.28329,0c0.09443,0 0.18886,0 0.28329,0c0.09443,0 0.18885,0 0.28328,0l0.09443,0l0.09443,0"/>
 </g>
</svg>