<svg xmlns="http://www.w3.org/2000/svg" xmlns:xlink="http://www.w3.org/1999/xlink" viewBox="0 0 256 256">
    <defs>
        <linearGradient id="linearGradient3386">
            <stop offset="0" stop-color="#333"/>
            <stop offset=".5" stop-color="#666"/>
            <stop offset="1" stop-color="#333"/>
        </linearGradient>
        <linearGradient id="innoGrad12">
            <stop offset="0" stop-color="#4d4d4d"/>
            <stop offset=".216" stop-color="#6d6e71"/>
            <stop offset=".674" stop-color="#6d6e71"/>
            <stop offset="1" stop-color="#333"/>
        </linearGradient>
        <linearGradient id="innoGrad11">
            <stop offset="0" stop-color="#6d6e71"/>
            <stop offset="1" stop-color="#333"/>
        </linearGradient>
        <linearGradient id="innoGrad10">
            <stop offset="0" stop-color="#ffd42a" stop-opacity=".502"/>
            <stop offset=".5" stop-color="#ffd42a" stop-opacity="0"/>
            <stop offset="1" stop-color="#ffd42a" stop-opacity=".502"/>
        </linearGradient>
        <linearGradient id="innoGrad8">
            <stop offset="0" stop-color="#ffe6d5"/>
            <stop offset="1" stop-color="#ffe6d5" stop-opacity="0"/>
        </linearGradient>
        <linearGradient id="innoGrad9">
            <stop offset="0" stop-color="#ff7f2a" stop-opacity="0"/>
            <stop offset="1" stop-color="#ff7f2a" stop-opacity=".502"/>
        </linearGradient>
        <linearGradient id="innoGrad7">
            <stop offset="0" stop-color="#ff7f2a" stop-opacity="0"/>
            <stop offset="1" stop-color="#ff7f2a" stop-opacity=".502"/>
        </linearGradient>
        <linearGradient id="innoGrad6">
            <stop offset="0" stop-color="#ff7f2a" stop-opacity="0"/>
            <stop offset=".722" stop-color="#ff7f2a" stop-opacity="0"/>
            <stop offset="1" stop-color="#ff7f2a"/>
        </linearGradient>
        <linearGradient id="innoGrad5">
            <stop offset="0" stop-color="#ff7f2a" stop-opacity="0"/>
            <stop offset="1" stop-color="#ff7f2a"/>
        </linearGradient>
        <linearGradient id="innoGrad4">
            <stop offset="0" stop-color="#ff7f2a" stop-opacity=".502"/>
            <stop offset=".377" stop-color="#ff7f2a" stop-opacity="0"/>
            <stop offset="1" stop-color="#ff7f2a"/>
        </linearGradient>
        <linearGradient id="innoGrad3">
            <stop offset="0" stop-color="#ff7f2a"/>
            <stop offset=".355" stop-color="#ff7f2a" stop-opacity="0"/>
            <stop offset=".711" stop-color="#ff7f2a" stop-opacity=".502"/>
            <stop offset=".855" stop-color="#ff7f2a" stop-opacity="0"/>
            <stop offset="1" stop-color="#ff7f2a"/>
        </linearGradient>
        <linearGradient id="innoGrad2">
            <stop offset="0" stop-color="#ff7f2a"/>
            <stop offset=".5" stop-color="#ff7f2a" stop-opacity="0"/>
            <stop offset="1" stop-color="#ff7f2a"/>
        </linearGradient>
        <linearGradient id="innoGrad1">
            <stop offset="0" stop-color="#ff2a2a"/>
            <stop offset="1" stop-color="#ff2a2a" stop-opacity="0"/>
        </linearGradient>
        <linearGradient id="linearGradient1178" x1="8.195" x2="7.802" y1="171.266" y2="174.703" gradientUnits="userSpaceOnUse" xlink:href="#innoGrad1"/>
        <linearGradient id="linearGradient1186" x1="33.125" x2="33.813" y1="175.001" y2="178.938" gradientUnits="userSpaceOnUse" xlink:href="#innoGrad1"/>
        <linearGradient id="linearGradient1209" x1="152.355" x2="152.355" y1="86.931" y2="97.757" gradientUnits="userSpaceOnUse" xlink:href="#innoGrad2"/>
        <linearGradient id="linearGradient1234" x1="147.063" x2="147.063" y1="85.563" y2="106.813" gradientUnits="userSpaceOnUse" xlink:href="#innoGrad3"/>
        <linearGradient id="linearGradient1271" x1="117.834" x2="117.834" y1="95.627" y2="107.749" gradientUnits="userSpaceOnUse" xlink:href="#innoGrad4"/>
        <linearGradient id="linearGradient1296" x1="58.063" x2="58.063" y1="92.938" y2="84.438" gradientTransform="matrix(1.01568 0 0 1.01569 -86.22 52.125)" gradientUnits="userSpaceOnUse" xlink:href="#innoGrad5"/>
        <linearGradient id="linearGradient1319" x1="117.834" x2="117.834" y1="99.667" y2="83.656" gradientTransform="matrix(.8796 -.50784 .50784 .87961 -48.607 88.252)" gradientUnits="userSpaceOnUse" xlink:href="#innoGrad6"/>
        <linearGradient id="linearGradient1350" x1="61.956" x2="61.621" y1="91.187" y2="85.107" gradientTransform="matrix(.8796 -.50784 .50784 .87961 -48.607 88.252)" gradientUnits="userSpaceOnUse" xlink:href="#innoGrad5"/>
        <linearGradient id="linearGradient1373" x1="73.25" x2="73.25" y1="116.494" y2="110.75" gradientUnits="userSpaceOnUse" xlink:href="#innoGrad5"/>
        <linearGradient id="linearGradient1415" x1="18.114" x2="19.428" y1="118.905" y2="113.367" gradientUnits="userSpaceOnUse" xlink:href="#innoGrad5"/>
        <linearGradient id="linearGradient1450" x1="45.858" x2="55.703" y1="132.25" y2="136.022" gradientUnits="userSpaceOnUse" xlink:href="#innoGrad5"/>
        <linearGradient id="linearGradient1458" x1="117.833" x2="117.834" y1="110.188" y2="106.5" gradientUnits="userSpaceOnUse" xlink:href="#innoGrad5"/>
        <linearGradient id="linearGradient1596" x1="117.834" x2="117.834" y1="175.523" y2="99.667" gradientUnits="userSpaceOnUse" xlink:href="#innoGrad7"/>
        <linearGradient id="linearGradient1627" x1="81.643" x2="68.538" y1="126.762" y2="113.657" gradientUnits="userSpaceOnUse" xlink:href="#innoGrad9"/>
        <radialGradient id="radialGradient1656" cx="27.208" cy="107.959" r="1.792" fx="27.208" fy="107.959" gradientUnits="userSpaceOnUse" xlink:href="#innoGrad8"/>
        <linearGradient id="linearGradient1679" x1="5.191" x2="32.403" y1="165.109" y2="173.875" gradientUnits="userSpaceOnUse" xlink:href="#innoGrad10"/>
        <linearGradient id="linearGradient3233" x1="40.615" x2="12.489" y1="148.252" y2="138.056" gradientUnits="userSpaceOnUse" xlink:href="#innoGrad12"/>
        <linearGradient id="linearGradient3241" x1="34.032" x2="54.788" y1="146.092" y2="151.853" gradientUnits="userSpaceOnUse" xlink:href="#innoGrad11"/>
        <radialGradient id="radialGradient3276" cx="72.042" cy="103.042" r="1.958" fx="72.042" fy="103.042" gradientUnits="userSpaceOnUse" xlink:href="#innoGrad8"/>
        <radialGradient id="radialGradient3301" cx="14.25" cy="107.167" r="1.583" fx="14.25" fy="107.167" gradientUnits="userSpaceOnUse" xlink:href="#innoGrad8"/>
        <radialGradient id="radialGradient3324" cx="21.5" cy="103.334" r="1.667" fx="21.5" fy="103.334" gradientUnits="userSpaceOnUse" xlink:href="#innoGrad8"/>
        <radialGradient id="radialGradient3350" cx="36.083" cy="110.917" r="2.375" fx="36.083" fy="110.917" gradientUnits="userSpaceOnUse" xlink:href="#innoGrad8"/>
        <radialGradient id="radialGradient3373" cx="28.584" cy="134.209" r="3.583" fx="28.584" fy="134.209" gradientUnits="userSpaceOnUse" xlink:href="#innoGrad8"/>
        <linearGradient id="linearGradient3390" x1="247.334" x2="247.334" y1="81.083" y2="102.417" gradientUnits="userSpaceOnUse" xlink:href="#linearGradient3386"/>
    </defs>
    <g stroke-width=".985">
        <path fill="#ff8080" d="M45.621 238.505l26.386-10.029-2.868-3.01-25.156 9.954z"/>
        <path fill="none" stroke="#ffd5d5" stroke-linejoin="round" stroke-miterlimit="10" d="M6.45 172.469l21.706 3.094 1.393-1.1-23.049-3.4z" transform="matrix(.8796 -.50784 .50784 .87961 -48.607 88.252)"/>
        <path fill="#ff8080" stroke="#000000" stroke-linejoin="round" stroke-miterlimit="10" d="M33.813 178.938s3.844.344 6.344-.188c2.5-.532 2.959-1.25 2.959-1.25L42 173.063l-9.151 1.896z" transform="matrix(.8796 -.50784 .50784 .87961 -48.607 88.252)"/>
        <path fill="none" stroke="#ffd5d5" stroke-linejoin="round" stroke-miterlimit="10" d="M36.99 173.997l1.198 4.941" transform="matrix(.8796 -.50784 .50784 .87961 -48.607 88.252)"/>
        <path fill="url(#linearGradient1186)" stroke="#000000" stroke-linejoin="round" stroke-miterlimit="10" d="M33.813 178.938s3.844.344 6.344-.188c2.5-.532 2.959-1.25 2.959-1.25L42 173.063l-9.151 1.896z" transform="matrix(.8796 -.50784 .50784 .87961 -48.607 88.252)"/>
        <path fill="url(#linearGradient1178)" stroke="#000000" stroke-linejoin="round" stroke-miterlimit="10" d="M6.378 174.5l27.435 4.438-.964-3.979L6.5 171.063z" transform="matrix(.8796 -.50784 .50784 .87961 -48.607 88.252)"/>
    </g>
    <g stroke="#000000" stroke-linejoin="round" stroke-miterlimit="10" stroke-width=".985">
        <path fill="#fca" d="M19.092 93.966l-4.842-1.947 3.5 4.732 1.688-1.188z" transform="matrix(.8796 -.50784 .50784 .87961 -48.607 88.252)"/>
        <path fill="#ff7f2a" d="M14.563 94.438L11.313 98c-1.25 1.375.469 2.563.469 2.563H8.938l-.831-2.438.706-1.5 3.688-3.938z" transform="matrix(.8796 -.50784 .50784 .87961 -48.607 88.252)"/>
        <path fill="#ffb380" d="M11 92.688c1.561-1.217 2.411-1.596 4.063 0l3.688 3.563-.414 4.934-8.523.691c-1.938-.188-3.583-3.325-2.345-4.846zm.625 2L9.25 97.563c-1.144 3.531 4.063 3 6.5.813 1.053-.944 0-2.188 0-2.188l-2.25-1.875c-.633-.528-1-.563-1.875.375z" transform="matrix(.8796 -.50784 .50784 .87961 -48.607 88.252)"/>
    </g>
    <g stroke-width=".985">
        <path fill="#ffb380" d="M153.815 73.337l5.498 9.523 1.84-1.063s-.185-1.211-2.363-4.984c-2.178-3.772-3.134-4.539-3.134-4.539z"/>
        <path fill="url(#linearGradient1209)" stroke="#000000" stroke-linejoin="round" stroke-miterlimit="10" d="M179.938 86.931v10.826h2.093s.438-1.124.438-5.413-.438-5.413-.438-5.413z" transform="matrix(.8796 -.50784 .50784 .87961 -48.607 88.252)"/>
        <path fill="#ffb380" d="M152.945 72.235s.984.943 3.428 5.176c2.444 4.233 4.242 8.11 4.242 8.11s1.52 2.297 2.161 3.615c.641 1.317.576 2.013.576 2.013l-2.254 1.301-10.792-18.691z"/>
        <path fill="none" stroke="#ffe6d5" stroke-linejoin="round" stroke-miterlimit="10" d="M179.739 100.667h-3" transform="matrix(.8796 -.50784 .50784 .87961 -48.607 88.252)"/>
        <path fill="url(#linearGradient1234)" stroke="#000000" stroke-linejoin="round" stroke-miterlimit="10" d="M179.739 85.563s.375 1.289.375 6.101-.375 9.003-.375 9.003.165 2.707.063 4.146c-.102 1.439-.5 2-.5 2h-2.563v-21.25z" transform="matrix(.8796 -.50784 .50784 .87961 -48.607 88.252)"/>
        <path fill="#ffb380" d="M156.389 82.05l1.391 3.933c3.84 6.482 4.178 7.068 3.354 7.544l-51.374 29.661-4.105-7.11-2.051-3.553z"/>
        <path fill="none" stroke="#ffe6d5" stroke-linejoin="round" stroke-miterlimit="10" stroke-opacity=".502" d="M177.094 99.667h-46.427c-4.667-.042-12.833 1-12.833 1" transform="matrix(.8796 -.50784 .50784 .87961 -48.607 88.252)"/>
        <path fill="url(#linearGradient1271)" stroke="#000000" stroke-linejoin="round" stroke-miterlimit="10" d="M177.844 95.627l-.75 4.039c.083 7.417.083 8.083-.854 8.083h-58.406V95.627z" transform="matrix(.8796 -.50784 .50784 .87961 -48.607 88.252)"/>
    </g>
    <g>
        <path fill="#e6e7e8" stroke="#000000" stroke-linejoin="round" stroke-miterlimit="10" d="M51.223 131.281s-1.404-1.737-2.256-1.244c-.853.492-.049 2.331-.049 2.331z"/>
        <path fill="#ffe6d5" d="M45.347 133.037l23.365-13.49 4.316 7.477-23.365 13.49z"/>
        <path fill="url(#linearGradient1296)" stroke="#000000" stroke-miterlimit="10" d="M-27.247 137.887h26.98v8.633h-26.98z" transform="rotate(-30)"/>
        <path fill="#ffb380" d="M17.254 167.118s-8.67-13.765-.795-18.306l32.506-18.774s-.146 1.652.223 2.42c.37.767 1.983 3.35 1.983 3.35.826 1.429 1.7 1.755 2.798 1.12l15.98-9.226c1.885-1.137 1.885-1.137.468-3.592l-1.778-3.079s-.817-1.88-.321-2.166l80.596-46.526c1.024-.682 1.741-.223 2.503 1.096l4.974 8.615-38.757 22.376c-5.995 3.412-11.978 11.653-11.978 11.653z"/>
        <path fill="none" stroke="#ffe6d5" stroke-miterlimit="10" d="M151.415 73.435l-82.692 47.743M13.345 153.15l31.72-18.314c.896-1.37 3.751-3.018 3.751-3.018"/>
        <g fill="none" stroke="#f95" stroke-linecap="round" stroke-miterlimit="10" stroke-width=".505">
            <path d="M31.563 99.667V85.106M32.403 99.667V85.106M33.244 99.667V85.106M34.085 99.667V85.106M34.926 85.106v14.561M36.608 85.106v14.561M38.29 85.106v14.561M39.972 85.106v14.561M43.335 85.106v14.561M41.653 85.106v14.561M46.699 85.106v14.561M48.381 85.106v14.561M50.063 85.106v14.561M49.222 85.106v14.561M47.54 85.106v14.561M45.858 85.106v14.561M44.176 85.106v14.561M42.494 85.106v14.561M40.813 85.106v14.561M39.131 85.106v14.561M37.449 85.106v14.561M35.767 85.106v14.561M45.017 85.106v14.561" transform="matrix(.8796 -.50784 .50784 .87961 -48.607 88.252)"/>
        </g>
        <path fill="url(#linearGradient1319)" stroke="#000000" stroke-linejoin="round" stroke-miterlimit="10" d="M17.254 167.118s-8.67-13.765-.795-18.306l32.506-18.774s-.146 1.652.223 2.42c.37.767 1.983 3.35 1.983 3.35.826 1.429 1.7 1.755 2.798 1.12l15.98-9.226c1.885-1.137 1.885-1.137.468-3.592l-1.778-3.079s-.817-1.88-.321-2.166l80.596-46.526c1.024-.682 1.741-.223 2.503 1.096l4.974 8.615-38.757 22.376c-5.995 3.412-11.978 11.653-11.978 11.653z"/>
        <path fill="#fca" stroke="#000000" stroke-linejoin="round" stroke-miterlimit="10" d="M52.198 136.997s-3.033.736-4.376.33c-1.344-.407-2.757-2.49-2.757-2.49 1.61-1.782 3.751-3.018 3.751-3.018.372.637 2.01 3.48 3.382 5.178z"/>
        <path fill="url(#linearGradient1350)" stroke="#000000" stroke-linejoin="round" stroke-miterlimit="10" d="M52.198 136.997s-3.033.736-4.376.33c-1.344-.407-2.757-2.49-2.757-2.49 1.61-1.782 3.751-3.018 3.751-3.018.372.637 2.01 3.48 3.382 5.178z"/>
        <g fill="#ff7f2a" stroke-width=".985">
            <g>
                <path d="M79.358 130.041l-.114-.197c.112-.014.19-.029.24-.048a.904.904 0 0 0 .128-.06c.067-.038.106-.082.123-.13a.163.163 0 0 0-.012-.137.168.168 0 0 0-.077-.07.517.517 0 0 0-.191-.021l-.102.002a.844.844 0 0 1-.323-.042.336.336 0 0 1-.164-.147.337.337 0 0 1-.028-.277c.03-.1.107-.185.23-.256.093-.053.205-.1.335-.14l.106.184a1.008 1.008 0 0 0-.32.097c-.058.033-.095.07-.11.112a.132.132 0 0 0 .077.176.583.583 0 0 0 .19.017l.11-.002c.168-.002.284.014.349.046a.36.36 0 0 1 .152.145.365.365 0 0 1 .032.303c-.033.107-.128.205-.285.296a1.721 1.721 0 0 1-.346.15zM80.618 129.329l-.57-.987-.41.237-.092-.158 1.058-.611.092.158-.41.237.569.986-.237.138zM81.3 128.935c-.085-.561-.129-.841-.216-1.402l.239-.138 1.106.888-.244.14-.295-.235-.475.274.058.373-.172.1zm.087-.662l.356-.206c-.177-.141-.266-.211-.442-.354l.086.56zM82.59 128.189l-.66-1.144.238-.138.66 1.144-.238.138zM83.116 127.886l-.661-1.145.21-.121.982.476-.452-.782.191-.11.661 1.144-.215.124-.976-.479.452.782-.192.11zM84.334 127.183l-.662-1.144.239-.138.565.982.51-.294.095.162-.747.432zM85.254 126.651l-.66-1.144c.292-.17.439-.254.732-.423l.091.158-.495.286.183.318.41-.237.091.157-.41.237.201.348.53-.306.095.163-.768.443zM86.135 126.128l-.113-.197c.111-.014.19-.028.238-.047a.88.88 0 0 0 .127-.06c.067-.038.109-.083.125-.132a.162.162 0 0 0-.012-.135.17.17 0 0 0-.08-.07.517.517 0 0 0-.19-.02h-.1a.847.847 0 0 1-.323-.04.336.336 0 0 1-.165-.148.333.333 0 0 1-.03-.276c.03-.1.109-.186.232-.257.092-.053.204-.1.334-.14l.106.183c-.144.024-.25.056-.32.096-.057.033-.094.071-.11.113a.133.133 0 0 0 .077.176.583.583 0 0 0 .19.017l.11-.003c.168-.002.283.014.348.046a.36.36 0 0 1 .152.147.367.367 0 0 1 .033.302c-.033.107-.128.207-.284.297a1.704 1.704 0 0 1-.345.148zM87.04 125.606l-.114-.197c.111-.014.19-.029.239-.047a.892.892 0 0 0 .127-.06c.067-.038.109-.084.125-.132a.159.159 0 0 0-.013-.134.172.172 0 0 0-.078-.071.525.525 0 0 0-.192-.02h-.1a.847.847 0 0 1-.322-.04.337.337 0 0 1-.165-.148.33.33 0 0 1-.03-.277c.03-.1.109-.185.232-.257.092-.053.205-.098.335-.139l.105.182c-.144.025-.25.057-.32.097-.057.033-.095.071-.11.113a.133.133 0 0 0 .006.117c.016.027.04.046.07.059.032.013.095.02.19.017.044 0 .065 0 .11-.002.167-.003.283.014.347.046.065.033.115.08.153.146a.365.365 0 0 1 .032.303c-.033.107-.128.206-.285.297a1.701 1.701 0 0 1-.342.147zM88.589 124.203l-.135-.234.233-.135.135.234-.233.135zM90.137 123.832l-.66-1.145.315-.181.74.645c-.073-.387-.109-.581-.18-.968l.275-.16c.266.458.398.687.661 1.145-.087.051-.131.077-.22.127l-.498-.863.175.947-.191.111-.736-.64.506.875-.187.107zM91.449 123.075c-.085-.562-.128-.841-.215-1.402l.239-.138c.443.355.663.532 1.104.888l-.244.141-.294-.237-.474.274.057.373-.173.1zm.088-.662l.355-.206-.44-.354.085.56zM92.74 122.33c-.264-.46-.397-.689-.662-1.146l.494-.284a.72.72 0 0 1 .345-.115c.098 0 .192.03.283.086.09.058.171.144.238.26a.84.84 0 0 1 .114.342.57.57 0 0 1-.058.317.687.687 0 0 1-.283.267l-.472.273zm.144-.3l.177-.103a.49.49 0 0 0 .188-.167.334.334 0 0 0 .033-.214.696.696 0 0 0-.256-.446.36.36 0 0 0-.198-.075c-.068-.004-.16.028-.276.096l-.145.083c.192.33.287.495.477.825zM93.995 121.604c-.263-.458-.395-.687-.66-1.144l.732-.423.092.158-.495.286.183.318.409-.236.092.156-.41.237.2.348c.214-.122.32-.184.533-.307l.094.163-.77.444zM95.451 120.764c-.264-.459-.395-.688-.66-1.145l.239-.138c.265.458.397.687.66 1.146l-.239.137zM95.977 120.46l-.66-1.144.21-.122.98.477-.452-.782.191-.11.66 1.144c-.084.05-.127.074-.212.123-.39-.191-.584-.289-.976-.48l.45.785-.19.11zM97.029 118.327l.238-.138.406.702c.073.127.143.2.21.216a.266.266 0 0 0 .202-.035.249.249 0 0 0 .127-.153c.017-.064-.01-.154-.077-.271l-.415-.719.207-.12.405.704c.077.132.115.236.114.313a.4.4 0 0 1-.066.218.582.582 0 0 1-.209.19.691.691 0 0 1-.27.093.43.43 0 0 1-.24-.043c-.075-.038-.151-.123-.228-.255-.161-.282-.241-.422-.404-.702zM98.795 118.819l-.113-.197c.111-.014.19-.03.238-.048a.892.892 0 0 0 .128-.06c.067-.038.108-.083.124-.13a.168.168 0 0 0-.09-.206.525.525 0 0 0-.192-.021l-.1.002a.86.86 0 0 1-.323-.042.336.336 0 0 1-.164-.148.333.333 0 0 1-.029-.276c.03-.1.107-.187.23-.258.093-.053.205-.099.335-.139l.106.183a.996.996 0 0 0-.32.097c-.056.033-.093.071-.109.113a.134.134 0 0 0 .006.117c.015.028.04.047.07.06.031.012.095.018.19.016l.109-.001c.167-.003.284.014.35.045a.36.36 0 0 1 .152.146.37.37 0 0 1 .03.303c-.033.107-.126.206-.282.296a1.785 1.785 0 0 1-.346.148zM99.643 118.343l-.214-1.401.24-.14 1.105.889-.245.141-.296-.236-.474.274.058.373-.174.1zm.087-.66l.356-.206-.441-.354.085.56z"/>
            </g>
        </g>
    </g>
    <g stroke="#000000" stroke-linejoin="round" stroke-miterlimit="10" stroke-width=".985">
        <path fill="#ffe6d5" d="M32.403 79.042l-.651-.377v2l1.373 3.334c.506-.613.984-.75 1.838-.814l-.711-1.685-.27-1.689-.738-.436.18 1.436-1.021-.228z" transform="matrix(.8796 -.50784 .50784 .87961 -48.607 88.252)"/>
        <path fill="#fca" d="M31.752 80.665l1.373 3.334h-5.206l1.23-3.295-.064-2.039h2.667zM167.989 84.063l2.063-3h3.75c2.688 0 2.688 3 2.688 3z" transform="matrix(.8796 -.50784 .50784 .87961 -48.607 88.252)"/>
    </g>
    <g stroke-width=".985">
        <path fill="#d1d3d4" stroke="#000000" stroke-linejoin="round" stroke-miterlimit="10" d="M65.751 112.375s-1.375.083-1.958 1.167.5 2.5.5 2.5l-4.792-1.417 4.346-4.042zM64.168 117.333l-4.08.25.607 4.092 3.197-.286s-.766-.807-.766-2.098 1.042-1.958 1.042-1.958zM64.585 121.625s-.729 1.704-.604 2.907 1.501 2.328 1.501 2.328l-4.23.14-.167-3.5z" transform="matrix(.8796 -.50784 .50784 .87961 -48.607 88.252)"/>
        <path fill="#fca" d="M72.068 148.47s-3 3.565.47 9.575c3.988 6.909 7.985 6.214 7.985 6.214l-12.585 6.386-7.29-6.786-.722-8.38zM65 154.383a1.588 1.588 0 1 0 1.589 2.75 1.588 1.588 0 0 0-1.589-2.75zm2.339 5.32a1.588 1.588 0 1 0 1.588 2.75 1.588 1.588 0 0 0-1.588-2.75zm3.325 3.92a1.588 1.588 0 1 0 1.588 2.75 1.588 1.588 0 0 0-1.588-2.75z"/>
        <path fill="url(#linearGradient1373)" stroke="#000000" stroke-linejoin="round" stroke-miterlimit="10" d="M73.25 110.75s-4.313 1.563-4.313 8.396c0 7.854 3.75 9.229 3.75 9.229l-13.875-.75-2.875-9.375 3.509-7.5zm-8.937 1.563a1.563 1.563 0 1 0 0 3.127 1.563 1.563 0 0 0 0-3.127zM63.688 118a1.563 1.563 0 1 0 0 3.127 1.563 1.563 0 0 0 0-3.127zm.906 4.979a1.563 1.563 0 1 0 0 3.127 1.563 1.563 0 0 0 0-3.127z" transform="matrix(.8796 -.50784 .50784 .87961 -48.607 88.252)"/>
    </g>
    <g stroke-width=".985">
        <path fill="#ff7f2a" stroke="#000000" stroke-linejoin="round" stroke-miterlimit="10" d="M3.154 102.313s.005-.229 2.284 0c2.252.227 5.119 5.24 5.119 5.24l-3.119-.365-3.375-2.438z" transform="matrix(.8796 -.50784 .50784 .87961 -48.607 88.252)"/>
        <path fill="#f95" d="M29.913 201.909l-.008-5.347c2.543-1.689 2.79-8.5-2.068-13.613-3.336-3.511-6.849-2.847-14.325-2.212-3.424.291-6.948-2.512-6.948-2.512l5.806.534 14.54-6.05 5.015 8.687 3.552 17.3z"/>
        <path fill="url(#linearGradient1415)" stroke="#000000" stroke-linejoin="round" stroke-miterlimit="10" d="M11 135.563L13.625 131c3-.188 6.563-5.875 4.938-12.625-1.116-4.636-4.438-5.799-11.125-8.938-3.063-1.437-4.688-5.562-4.688-5.562l4.688 3.313 15.375 2v9.875l-5.488 16.5z" transform="matrix(.8796 -.50784 .50784 .87961 -48.607 88.252)"/>
        <path fill="#f95" d="M76.78 217.951c-.081 1.513-7.377 7.412-7.377 7.412L56.45 182.189l-3.262-31.249 54.444-31.433 3.365 5.827-23.8 13.667-1.958 2.45-21.026 12.172c-2.164 1.258-3.683 8.764 1.78 13.526 2.046 1.785 2.394 4.526.88 6.603-2.865 3.927 9.905 44.2 9.905 44.2z"/>
        <path fill="url(#linearGradient1450)" d="M43.063 172.313c-.813 1.25-9.938 2.688-9.938 2.688l10.21-43.188 12.602-28.25h61.896v6.625l-27.021-.063-2.875 1.125-23.92.028c-2.465.007-7.455 5.659-5.142 12.409.867 2.529-.186 5.038-2.5 6.063-4.375 1.938-13.312 42.563-13.312 42.563z" transform="matrix(.8796 -.50784 .50784 .87961 -48.607 88.252)"/>
        <path fill="url(#linearGradient1458)" stroke="#000000" stroke-linejoin="round" stroke-miterlimit="10" d="M43.063 172.313c-.813 1.25-9.938 2.688-9.938 2.688l10.21-43.188 12.602-28.25h61.896v6.625l-27.021-.063-2.875 1.125-23.92.028c-2.465.007-7.455 5.659-5.142 12.409.867 2.529-.186 5.038-2.5 6.063-4.375 1.938-13.312 42.563-13.312 42.563z" transform="matrix(.8796 -.50784 .50784 .87961 -48.607 88.252)"/>
        <path fill="#ffb380" d="M17.989 166.694c.216 10.066-8.825 12.302-10.344 10.573-1.771-2.015-2.07.29-1.081.958 8.893 6.008 21.383-9.56 25.417 11.122l7.147 46.97c.2 1.023.39.765.878.594.173-.062 29.397-11.548 29.397-11.548l-9.702-44.61c-.569-5.683 5.072-7.086 4.427-10.107-.997-4.674-7.254-3.803-8.247-9.46-.907-5.161 5.275-8.762 5.275-8.762l20.804-12.086 1.992-3.788 25.174-14.46-3.47-6.01z"/>
        <path fill="url(#linearGradient1596)" stroke="#000000" stroke-miterlimit="10" d="M18.168 99.667c-4.771 8.689-13.581 6.145-14.025 3.923-.518-2.59-1.907-.771-1.393.285 4.625 9.5 22.938 2.375 16.197 21.995L1.918 169.438c-.332.971-.043.844.457.938.178.033 30.75 4.625 30.75 4.625l13.688-42.813c2.313-5.125 7.813-3.545 8.75-6.438 1.451-4.476-4.313-6.813-2.375-12.125C54.956 108.777 62 108.75 62 108.75l23.688-.063 3.563-2.25 28.583.063v-6.833z" transform="matrix(.8796 -.50784 .50784 .87961 -48.607 88.252)"/>
        <path fill="#d1d3d4" stroke="#000000" stroke-linejoin="round" stroke-miterlimit="10" d="M88.763 110.927s-2.792 1.859-3.888 5.032c-.97 2.806-.24 6.803-1.292 8.583-3.25 5.5-8.104 4.667-8.104 4.667l4.437-2.876 2.625-3.167.625-10.542 2.167-1.698h3.43z" transform="matrix(.8796 -.50784 .50784 .87961 -48.607 88.252)"/>
        <path fill="#ffb380" d="M74.028 147.338l10.904-6.296c-2.162 4.255-.577 7.074-.195 7.663.383.59 7.022 9.751-1.955 15.277l-13.46 7.772c-1.546.896-3.834 2.036-3.834 2.036s.956-1.01 1.135-3.264c.179-2.254-1.254-3.528-1.254-3.528 2.01.087 3.426 1.321 5.46.915 1.616-.323 3.705-1.058 6.542-2.64 7.99-4.454 10.853-6.84 5.909-15.285-1.124-1.919-9.252-2.65-9.252-2.65z"/>
        <path fill="url(#linearGradient1627)" stroke="#000000" stroke-linejoin="round" stroke-miterlimit="10" d="M75.479 110.75h12.396c-3.938 2.563-3.974 5.747-3.938 6.438.036.691 1.187 11.771-9.188 12.063H59.446c-1.759.004-4.271-.151-4.271-.151s1.313-.39 2.575-2.224c1.262-1.834.667-3.625.667-3.625 1.671 1.063 2.271 2.813 4.206 3.468 1.536.52 3.679.921 6.877.97 9.005.135 12.621-.49 12.563-10.125-.014-2.189-6.584-6.814-6.584-6.814z" transform="matrix(.8796 -.50784 .50784 .87961 -48.607 88.252)"/>
        <path fill="none" d="M33.195 158.965l12.454-7.19.889 1.54-12.455 7.19z"/>
        <g fill="#ff7f2a" aria-label="EL MONTE CA" font-family="LucidaSans-Demi" font-size="2">
            <path d="M33.41 158.94l.81-.469.085.146-.638.368.22.38.61-.353.084.146-.61.353.268.465.653-.377.084.146-.826.477zM34.523 158.297l.173-.1.656 1.136.625-.36.084.145-.798.461zM36.062 157.408l.258-.15.832.685-.175-1.063.258-.15.74 1.283-.168.098-.65-1.126.176 1.07-.174.1-.838-.688.65 1.126-.169.097zM38.17 156.348q-.19.11-.22.315-.03.205.11.448.14.242.333.319.193.076.382-.033t.217-.313q.03-.205-.11-.447-.14-.243-.333-.32-.19-.078-.38.031zm-.082-.14q.27-.156.536-.068.265.087.44.391.176.303.12.578-.058.273-.328.429-.27.156-.537.07-.266-.088-.441-.392-.176-.304-.118-.577.057-.275.328-.432zM38.965 155.732l.234-.135 1.188.744-.62-1.072.169-.098.74 1.283-.233.135-1.188-.745.62 1.073-.17.097zM40.103 155.075l1.085-.627.085.146-.456.263.657 1.137-.175.1-.656-1.136-.455.263zM41.357 154.351l.81-.468.085.146-.637.368.219.38.61-.353.085.146-.61.353.267.464.653-.377.085.146-.827.477zM44.047 152.93l.106.182q-.135-.03-.258-.014-.122.017-.233.081-.22.127-.26.33-.039.201.108.455.146.254.341.321.194.067.414-.06.112-.065.187-.162.077-.098.117-.23l.105.181q-.056.115-.14.205-.083.089-.197.154-.291.169-.561.087-.27-.082-.449-.39-.178-.31-.114-.584.065-.275.356-.443.115-.067.234-.094.12-.03.244-.02zM44.787 152.598l.134.774.471-.272zm-.196-.114l.197-.114 1.229 1-.18.105-.307-.262-.578.334.073.396-.183.106z"/>
        </g>
    </g>
    <g stroke-width=".985" transform="matrix(.8796 -.50784 .50784 .87961 -48.607 88.252)">
        <path fill="#ffe6d5" stroke="#000000" stroke-linejoin="round" stroke-miterlimit="10" stroke-width=".492" d="M52.333 121.542c-.497 0-.958.15-1.344.403v-.002l-3.345-1.294-.859 2.999 3.327 1.4.001-.005a2.453 2.453 0 0 0 4.677-1.042 2.457 2.457 0 0 0-2.457-2.459z"/>
        <circle cx="52.333" cy="124.001" r="1.5" fill="#fca" stroke="#000000" stroke-linejoin="round" stroke-miterlimit="10" stroke-width=".492"/>
        <path fill="none" stroke="#000000" stroke-linejoin="round" stroke-miterlimit="10" stroke-width=".492" d="M53.32 122.879l-2.056 2.172"/>
        <path fill="#333" stroke="#000000" stroke-miterlimit="10" d="M53.685 134.009s1.624.898 1.481 1.554c-.143.656-2.127.057-2.127.057z"/>
        <circle cx="5.438" cy="167.938" r="1.563" fill="#ffe6d5" stroke="#000000" stroke-linejoin="round" stroke-miterlimit="10" stroke-width=".492"/>
        <circle cx="27.208" cy="107.959" r="1.542" fill="#fca"/>
        <circle cx="27.208" cy="107.959" r="1.542" fill="url(#radialGradient1656)" stroke="#000000" stroke-linejoin="round" stroke-miterlimit="10" stroke-width=".492"/>
        <path fill="#ffe680" stroke="#000000" stroke-miterlimit="10" d="M29.125 105.125c1.875-4.75 23.218-.884 22.5 1.625l-19.222 67.125-25.396-2.801c-2.341-.823-2.143-5.997-1.758-6.949z"/>
        <path fill="url(#linearGradient1679)" stroke="#000000" stroke-miterlimit="10" d="M29.125 105.125c1.875-4.75 23.218-.884 22.5 1.625l-19.222 67.125-25.396-2.801c-2.341-.823-2.143-5.997-1.758-6.949z"/>
        <path fill="url(#linearGradient3233)" stroke="#000000" stroke-miterlimit="10" d="M31.916 119.719l12.26 4.282c3.406 1.833 1.682 8.25 1.682 8.25l-12.495 38.271c-.695 1.459-12.864.573-17.864.276-5-.297-8.624-5.212-7-9.381l14.833-38.083c1.417-3.417 4.122-5.174 8.584-3.615z"/>
        <path fill="url(#linearGradient3241)" stroke="#000000" stroke-miterlimit="10" d="M33.554 169.938c2.528 1.313 11.278-.104 12.278-1.354.238-.296.876-4.89 2.417-8 .947-1.913 2.844-1.849 3.394-4.083.598-2.429-1.727-3.544-.81-7.168.81-3.202 3.84-3.527 4.333-5.583.73-3.039-1.221-2.573-1.091-3.996.146-1.586 1.215-3.997 1.091-4.192-.124-.195-.793.729-4.416-.561s-4.892-2.751-4.892-2.751z"/>
        <path fill="none" stroke="#000000" stroke-miterlimit="10" stroke-width=".492" d="M51.938 141.375c-.682.519-3.247.419-5.23.833-2.312.481-3.9 2.04-3.542 3.033.667 1.844 7.322 3.216 8.669 2.093.058-.048 3.165-2.553 3.331-3.583.121-.752.217-1.583-.05-2.207-.305-.713-1.006-.856-1.018-1.399-.016-.781-.684.107-2.16 1.23zM50.679 151.789s-.496 1.232-2.741 2.273c-3.458 1.604-8.969 2.109-8.521 4.354.234 1.172 7.833 3.541 8.954 1.944 1.509-2.15 3.007-1.119 3.272-3.858.213-2.211-.964-4.713-.964-4.713z"/>
    </g>
    <g stroke-width=".985" transform="matrix(.8796 -.50784 .50784 .87961 -48.607 88.252)">
        <circle cx="72.042" cy="103.042" r="1.708" fill="#fca"/>
        <circle cx="72.042" cy="103.042" r="1.708" fill="url(#radialGradient3276)" stroke="#000000" stroke-linejoin="round" stroke-miterlimit="10" stroke-width=".492"/>
        <circle cx="14.25" cy="107.167" r="1.333" fill="#fca"/>
        <circle cx="14.25" cy="107.167" r="1.333" fill="url(#radialGradient3301)" stroke="#000000" stroke-linejoin="round" stroke-miterlimit="10" stroke-width=".492"/>
        <circle cx="21.5" cy="103.334" r="1.417" fill="#fca"/>
        <circle cx="21.5" cy="103.334" r="1.417" fill="url(#radialGradient3324)" stroke="#000000" stroke-linejoin="round" stroke-miterlimit="10" stroke-width=".492"/>
        <circle cx="36.083" cy="110.917" r="2.833" fill="#ffe6d5" stroke="#000000" stroke-linejoin="round" stroke-miterlimit="10" stroke-width=".492"/>
        <circle cx="36.083" cy="110.917" r="2.125" fill="#fca"/>
        <circle cx="36.083" cy="110.917" r="2.125" fill="url(#radialGradient3350)" stroke="#000000" stroke-linejoin="round" stroke-miterlimit="10" stroke-width=".492"/>
        <circle cx="18.333" cy="162.169" r="2.75" fill="none" stroke="#4d4d4d" stroke-linejoin="round" stroke-miterlimit="10" stroke-width=".492"/>
        <circle cx="18.333" cy="162.169" r="1.333" fill="none" stroke="#4d4d4d" stroke-linejoin="round" stroke-miterlimit="10" stroke-width=".492"/>
        <circle cx="28.584" cy="134.209" r="5.042" fill="none" stroke="#4d4d4d" stroke-linejoin="round" stroke-miterlimit="10" stroke-width=".492"/>
        <circle cx="28.584" cy="134.209" r="3.333" fill="#fca" stroke="#000000" stroke-linejoin="round" stroke-miterlimit="10" stroke-width=".492"/>
        <path fill="#ff7f2a" d="M28.599 131.386c-.535 1.311.171 1.269.031 2.495.074-.036-.33.163-.265.133.27-1.019-.446-1.548.234-2.628z"/>
        <path fill="#ff7f2a" d="M28.572 132.603c.691-.203 1.843.452 1.925.661-1.238.624-1.353 1.021-1.353 1.231 0 .21 1.598.927 2.125-.194.582 1.066-2.079 1.819-2.347 1.762 2.547-1.136-.089-1.54-.382-.1v-1.483s2.289-1.394.032-1.877zM28.257 133.088c-.577-.2-1.801.42-1.869.632 1.032.624 1.291.873 1.341 1.146 0 .211-.843.634-1.674-.066-.542 1.136 1.664 1.722 1.801 1.698-2.172-1.08.125-1.383.432-.02v-1.841s-2.148-.996-.031-1.549z"/>
        <circle cx="28.584" cy="134.209" r="3.333" fill="url(#radialGradient3373)" stroke="#000000" stroke-linejoin="round" stroke-miterlimit="10" stroke-width=".492"/>
    </g>
    <g stroke-width=".985">
        <path fill="url(#linearGradient3390)" stroke="#000000" stroke-linejoin="round" stroke-miterlimit="10" d="M154.418 91.75c0 10.667-1.25 10.667-1.25 10.667h17.229s.374-.448 1.094-.448c.72 0 1.094.448 1.094.448h76.667s3.083 0 3.083-10.667-3.083-10.667-3.083-10.667h-76.667s-.374.448-1.094.448c-.72 0-1.094-.448-1.094-.448h-17.229s1.25 0 1.25 10.667z" transform="matrix(.8796 -.50784 .50784 .87961 -21.934 72.852)"/>
        <path fill="none" stroke="#000000" stroke-linejoin="round" stroke-miterlimit="10" stroke-width=".492" d="M172.584 81.083s1.251 0 1.251 10.667-1.251 10.667-1.251 10.667M170.396 81.083s1.271 0 1.271 10.667-1.271 10.667-1.271 10.667" transform="matrix(.8796 -.50784 .50784 .87961 -21.934 72.852)"/>
        <path fill="#4d4d4d" stroke="#000000" stroke-linejoin="round" stroke-miterlimit="10" d="M152.334 91.886c0 5.965.258 10.531.834 10.531s1.25-4.565 1.25-10.531-.674-10.802-1.25-10.802-.834 4.836-.834 10.802z" transform="matrix(.8796 -.50784 .50784 .87961 -21.934 72.852)"/>
        <path fill="none" stroke="#000000" stroke-linejoin="round" stroke-miterlimit="10" stroke-width=".738" d="M247.334 81.083s2.833 0 2.833 10.667-2.833 10.667-2.833 10.667" transform="matrix(.8796 -.50784 .50784 .87961 -21.934 72.852)"/>
        <g>
            <g>
                <path d="M192.147 54.193a27.886 27.886 0 0 0-1.157-1.026l.25-.144c.348.294.52.443.853.746a24.501 24.501 0 0 0-.403-1.004l.222-.129c.338.298.502.45.824.756a26.09 26.09 0 0 0-.372-1.018l.181-.104c.216.552.32.83.51 1.399l-.253.146c-.3-.291-.454-.436-.766-.72.151.377.225.568.365.952-.1.059-.153.088-.254.146zM193.562 53.377a24.568 24.568 0 0 0-.84-1.21l.261-.15c.141.193.213.29.35.485l.526-.304a23.608 23.608 0 0 0-.35-.485l.267-.154c.348.476.518.717.841 1.208l-.266.154a24.405 24.405 0 0 0-.377-.556l-.526.304c.153.222.23.332.377.556l-.263.152zM194.934 52.585a24.47 24.47 0 0 0-.842-1.207l.267-.154c.348.475.518.717.842 1.208l-.267.153zM195.437 52.279c-.056-.085-.08-.128-.137-.211.126-.018.214-.035.27-.056a1.03 1.03 0 0 0 .144-.068c.074-.043.118-.09.132-.143a.167.167 0 0 0-.019-.147.202.202 0 0 0-.094-.075.68.68 0 0 0-.225-.016l-.115.003a1.06 1.06 0 0 1-.373-.036.418.418 0 0 1-.203-.152.342.342 0 0 1-.056-.295c.026-.107.107-.198.245-.278.102-.058.229-.112.376-.158.056.076.083.116.138.193-.165.03-.285.067-.363.112-.063.036-.103.077-.118.122a.13.13 0 0 0 .02.122c.02.028.048.048.086.062a.713.713 0 0 0 .223.013l.124-.005c.192-.006.323.007.4.04.077.033.14.085.188.155.068.1.085.21.052.327-.032.117-.134.225-.307.325a2.088 2.088 0 0 1-.388.166zM196.523 51.668a24.437 24.437 0 0 0-.84-1.207l.434-.252a.787.787 0 0 1 .298-.118.357.357 0 0 1 .194.035c.06.03.115.082.164.152.096.134.12.262.08.384a.597.597 0 0 1-.287.316l-.108.061c.131.19.195.287.323.48l-.258.149zm-.177-.795l.05-.029c.097-.056.152-.118.166-.189a.243.243 0 0 0-.04-.195.277.277 0 0 0-.087-.08.206.206 0 0 0-.113-.026.388.388 0 0 0-.162.062l-.099.057c.113.16.172.239.285.4zM197.6 51.046a24.464 24.464 0 0 0-.84-1.21l.816-.468.118.164-.549.316c.097.133.146.199.24.332l.453-.261.116.168-.454.262c.102.147.152.22.25.369l.59-.341.118.173-.857.496zM198.657 50.436a24.394 24.394 0 0 0-.84-1.209l.476-.275a.65.65 0 0 1 .248-.095.371.371 0 0 1 .195.036.412.412 0 0 1 .153.617c.324.13.483.196.802.329l-.321.184c-.258-.128-.392-.19-.654-.314l-.144.082c.137.198.202.3.334.5-.1.057-.15.087-.249.145zm-.2-.811l.058-.034c.11-.063.168-.13.178-.199a.246.246 0 0 0-.043-.188.204.204 0 0 0-.132-.09c-.056-.01-.139.02-.243.08-.037.02-.053.03-.09.052.109.152.164.226.271.379zM201.799 48.96c-.108.03-.2.052-.27.067a1.983 1.983 0 0 1-.201.03c-.064.006-.173-.01-.232.005-.032.01-.067.045-.088.057a.835.835 0 0 1-.384.116.68.68 0 0 1-.382-.098.986.986 0 0 1-.301-.29.876.876 0 0 1-.155-.375.527.527 0 0 1 .062-.35.756.756 0 0 1 .289-.279.853.853 0 0 1 .4-.12.714.714 0 0 1 .386.093c.121.069.223.162.31.286.09.13.14.264.15.396.012.132-.098.38-.098.38.005.007.197-.044.279-.069.082-.024.184-.063.3-.115l-.065.267zm-.89-.016c.122-.07.18-.17.177-.3a.69.69 0 0 0-.137-.38.802.802 0 0 0-.32-.276.383.383 0 0 0-.373.02c-.124.071-.178.17-.172.298a.712.712 0 0 0 .138.377.843.843 0 0 0 .312.277.379.379 0 0 0 .375-.016zM201.03 47.37l.266-.152c.214.291.32.439.523.736.094.135.174.212.252.228a.324.324 0 0 0 .232-.042c.075-.044.12-.101.136-.17.014-.07-.02-.165-.105-.29a23.46 23.46 0 0 0-.534-.753l.23-.133c.214.291.32.438.524.736.096.14.144.254.148.336a.404.404 0 0 1-.064.237.633.633 0 0 1-.23.207.763.763 0 0 1-.301.107.527.527 0 0 1-.279-.043c-.087-.04-.178-.128-.275-.27a22.477 22.477 0 0 0-.522-.734zM203.177 47.825a24.464 24.464 0 0 0-.84-1.209c.106-.06.16-.09.265-.152.349.476.518.716.841 1.207l-.266.154zM203.762 47.488a24.366 24.366 0 0 0-.84-1.207l.812-.47c.048.066.075.096.121.162-.22.127-.33.192-.55.318.098.133.145.2.239.333l.455-.262c.046.067.067.1.114.167l-.455.263c.103.147.153.22.253.369l.589-.34c.046.07.072.102.119.172l-.857.495zM205.134 46.696a22.966 22.966 0 0 0-.72-1.044l-.456.263c-.048-.066-.073-.097-.12-.163l1.173-.678c.048.066.074.098.12.164l-.454.26c.298.412.442.623.721 1.046l-.264.152zM206.593 45.854a24.394 24.394 0 0 0-.84-1.209l.351-.202c.369.263.546.397.902.67a28.074 28.074 0 0 0-.28-1.029l.307-.178c.348.476.518.717.841 1.208l-.245.142c-.244-.372-.37-.555-.628-.917.11.402.165.605.264 1.014l-.212.122a28.526 28.526 0 0 0-.887-.67c.262.368.39.551.637.928-.085.047-.127.073-.21.12zM208.775 44.635a.835.835 0 0 1-.396.12.688.688 0 0 1-.375-.1.985.985 0 0 1-.306-.288.872.872 0 0 1-.155-.374.527.527 0 0 1 .062-.35.756.756 0 0 1 .29-.278.87.87 0 0 1 .4-.12.709.709 0 0 1 .386.09c.12.069.22.165.306.287a.827.827 0 0 1 .153.378.57.57 0 0 1-.07.357.775.775 0 0 1-.295.278zm-.109-.17c.123-.07.18-.17.176-.3a.694.694 0 0 0-.135-.38.81.81 0 0 0-.321-.274.383.383 0 0 0-.374.018c-.123.07-.178.168-.172.297a.715.715 0 0 0 .14.378.85.85 0 0 0 .316.276.37.37 0 0 0 .37-.014zM209.639 44.095a24.464 24.464 0 0 0-.84-1.208l.546-.315a.852.852 0 0 1 .39-.133.671.671 0 0 1 .339.081c.109.06.205.149.29.272a.86.86 0 0 1 .152.365.576.576 0 0 1-.045.343c-.052.108-.154.205-.308.294l-.524.301zm.146-.326l.2-.115a.527.527 0 0 0 .207-.184.337.337 0 0 0 .022-.232.725.725 0 0 0-.118-.272.696.696 0 0 0-.205-.2.484.484 0 0 0-.235-.074c-.08-.002-.188.037-.317.112l-.158.091c.249.346.368.522.604.874zM211.034 43.29a24.477 24.477 0 0 0-.843-1.207l.816-.471c.049.066.074.098.12.164l-.55.317c.097.133.145.2.239.333l.454-.263c.047.067.068.102.115.168l-.455.262.253.37.588-.34c.046.07.073.102.12.171l-.857.496zM212.091 42.68a24.437 24.437 0 0 0-.84-1.207l.265-.155c.3.407.444.615.724 1.035l.565-.326.116.173-.83.48zM213.674 41.766a24.464 24.464 0 0 0-.84-1.209l.265-.153c.348.476.518.717.841 1.208l-.266.154zM214.592 41.236c-.512-.383-.776-.57-1.312-.936l.282-.163c.416.283.622.426 1.022.72a26.45 26.45 0 0 0-.303-1.135l.19-.11c.166.58.243.875.384 1.472l-.263.152zM194.188 55.874a.798.798 0 0 1-.391.117.61.61 0 0 1-.357-.11.924.924 0 0 1-.273-.309.92.92 0 0 1-.13-.39.608.608 0 0 1 .082-.363.802.802 0 0 1 .297-.282.823.823 0 0 1 .393-.117.63.63 0 0 1 .365.106.87.87 0 0 1 .281.302c.076.13.116.263.122.397a.643.643 0 0 1-.089.368.836.836 0 0 1-.3.281zm-.096-.177a.346.346 0 0 0 .188-.308.743.743 0 0 0-.106-.397.747.747 0 0 0-.292-.291.346.346 0 0 0-.36.009.34.34 0 0 0-.186.306c0 .133.035.266.11.395a.78.78 0 0 0 .284.295.345.345 0 0 0 .362-.009zM194.306 54.066l.265-.152c.188.307.281.462.46.776.08.142.157.222.23.241a.293.293 0 0 0 .224-.038.287.287 0 0 0 .142-.172c.018-.072-.01-.172-.084-.302-.183-.32-.276-.48-.469-.796l.232-.134c.189.308.282.463.46.776.084.147.124.267.122.352a.463.463 0 0 1-.076.245.666.666 0 0 1-.235.21.75.75 0 0 1-.298.104.468.468 0 0 1-.266-.05c-.081-.041-.165-.136-.25-.284a24.186 24.186 0 0 0-.457-.776zM196.346 54.585c-.28-.517-.427-.77-.734-1.272l.477-.276a.617.617 0 0 1 .244-.092.338.338 0 0 1 .188.04c.06.031.107.079.144.14a.43.43 0 0 1 .06.248.485.485 0 0 1-.097.258c.304.142.457.212.755.356l-.324.186a42.336 42.336 0 0 0-.61-.341l-.143.083c.12.209.177.314.292.525l-.252.145zm-.141-.844l.059-.034c.109-.063.17-.13.185-.202a.263.263 0 0 0-.034-.195c-.031-.051-.07-.085-.122-.096-.053-.01-.133.014-.237.074l-.09.053c.097.16.145.238.239.4zM198.145 53.59a.792.792 0 0 1-.39.115.605.605 0 0 1-.356-.11.925.925 0 0 1-.277-.306.92.92 0 0 1-.126-.392.602.602 0 0 1 .082-.364.797.797 0 0 1 .295-.28.825.825 0 0 1 .394-.118.619.619 0 0 1 .365.106.876.876 0 0 1 .282.302c.076.13.114.263.12.396a.635.635 0 0 1-.087.366.827.827 0 0 1-.302.284zm-.095-.178a.349.349 0 0 0 .189-.308.746.746 0 0 0-.108-.398.74.74 0 0 0-.29-.291.348.348 0 0 0-.36.011.343.343 0 0 0-.19.307c0 .133.036.265.11.395a.782.782 0 0 0 .29.292.34.34 0 0 0 .359-.008zM199.01 53.047c-.28-.517-.426-.77-.734-1.272l.43-.247a.66.66 0 0 1 .25-.098.31.31 0 0 1 .177.036.32.32 0 0 1 .132.118.335.335 0 0 1 .041.22c-.011.084-.157.278-.157.278.002.004.191-.041.258-.035a.406.406 0 0 1 .178.055.36.36 0 0 1 .167.313.349.349 0 0 1-.059.187.625.625 0 0 1-.214.176l-.468.27zm-.167-.894l.056-.032c.08-.046.128-.098.144-.162a.228.228 0 0 0-.092-.247.128.128 0 0 0-.089-.017.586.586 0 0 0-.182.079l-.046.026c.085.14.126.212.209.353zm.321.565l.05-.028a.734.734 0 0 0 .177-.127.182.182 0 0 0 .019-.207.223.223 0 0 0-.174-.114.384.384 0 0 0-.25.057l-.044.026c.09.156.135.235.222.393zM200.702 52.114a.8.8 0 0 1-.392.116.6.6 0 0 1-.355-.111.925.925 0 0 1-.277-.306.924.924 0 0 1-.126-.392.605.605 0 0 1 .082-.365.786.786 0 0 1 .295-.28.825.825 0 0 1 .393-.117.629.629 0 0 1 .367.105.868.868 0 0 1 .278.303c.076.13.119.262.125.394a.639.639 0 0 1-.092.368.823.823 0 0 1-.298.285zm-.098-.177a.347.347 0 0 0 .19-.309.746.746 0 0 0-.108-.397.74.74 0 0 0-.29-.291.352.352 0 0 0-.362.01.342.342 0 0 0-.186.307c-.001.132.034.265.11.395a.782.782 0 0 0 .288.292.338.338 0 0 0 .358-.007zM201.567 51.572c-.28-.517-.428-.772-.735-1.273l.476-.274a.617.617 0 0 1 .244-.093.33.33 0 0 1 .186.04c.06.032.11.08.145.14a.43.43 0 0 1 .06.248.479.479 0 0 1-.094.257c.303.142.453.214.75.358l-.322.187a42.115 42.115 0 0 0-.608-.342l-.145.083c.12.21.178.313.292.523-.1.06-.15.088-.249.146zm-.145-.842l.059-.035c.109-.063.172-.132.186-.203a.267.267 0 0 0-.032-.197.185.185 0 0 0-.124-.092c-.053-.011-.132.013-.236.073l-.09.053c.096.158.144.24.237.4zM203.363 50.578a.798.798 0 0 1-.391.116.61.61 0 0 1-.357-.11.925.925 0 0 1-.277-.307.92.92 0 0 1-.126-.391.612.612 0 0 1 .084-.365.794.794 0 0 1 .296-.28.822.822 0 0 1 .392-.118.629.629 0 0 1 .367.105.874.874 0 0 1 .28.303c.075.13.117.262.123.394a.644.644 0 0 1-.091.369.82.82 0 0 1-.3.284zm-.095-.178a.345.345 0 0 0 .186-.309.743.743 0 0 0-.105-.397.747.747 0 0 0-.292-.291.345.345 0 0 0-.36.01.343.343 0 0 0-.188.307c0 .133.037.265.112.394.074.128.17.228.285.295.117.066.24.061.362-.01zM204.149 50.066l-.12-.222c.122-.015.21-.032.263-.052a.993.993 0 0 0 .143-.066c.074-.043.12-.092.138-.147a.18.18 0 0 0-.013-.152.177.177 0 0 0-.084-.08.602.602 0 0 0-.216-.021l-.112.002a.921.921 0 0 1-.356-.046.384.384 0 0 1-.184-.162.37.37 0 0 1-.037-.305c.032-.11.115-.204.252-.283a1.86 1.86 0 0 1 .373-.158l.123.201c-.16.028-.278.065-.354.109-.064.036-.108.079-.125.125a.145.145 0 0 0 .01.129c.018.03.045.05.08.064a.626.626 0 0 0 .214.02l.12-.001c.186-.003.314.012.386.048a.395.395 0 0 1 .17.166.412.412 0 0 1 .03.34c-.039.12-.143.23-.317.331a2.3 2.3 0 0 1-.384.16zM205.654 49.212c-.083-.631-.13-.943-.24-1.56l.269-.153c.504.388.75.585 1.23.986l-.272.157-.322-.267-.53.305c.023.167.036.252.058.42l-.193.112zm.106-.74c.159-.09.237-.136.394-.227a30.379 30.379 0 0 0-.492-.394c.043.248.061.372.098.622zM207.09 48.383c-.282-.517-.428-.77-.736-1.272l.478-.276a.615.615 0 0 1 .244-.092.335.335 0 0 1 .188.04c.059.03.107.08.143.14a.433.433 0 0 1 .06.249.472.472 0 0 1-.094.257c.303.141.454.212.752.356l-.323.186a42.336 42.336 0 0 0-.61-.34l-.143.082c.12.21.177.314.291.524l-.25.146zm-.143-.844l.06-.034c.108-.063.17-.13.184-.202a.265.265 0 0 0-.032-.197.186.186 0 0 0-.123-.095c-.053-.01-.132.013-.236.073l-.091.053c.096.16.145.24.238.402zM208.305 47.681c-.281-.516-.428-.77-.735-1.272l.35-.202c.338.282.503.427.829.716-.078-.433-.117-.65-.207-1.075l.308-.178c.307.501.454.756.735 1.273l-.244.14a23.71 23.71 0 0 0-.549-.962c.082.42.12.63.19 1.057l-.212.122c-.319-.29-.48-.434-.811-.716.23.387.34.583.554.977l-.208.12zM209.823 46.79c-.047-.09-.074-.133-.122-.22.122-.016.21-.033.264-.053.054-.021.1-.043.142-.067.074-.043.121-.091.139-.146a.183.183 0 0 0-.098-.232.587.587 0 0 0-.213-.022 4.84 4.84 0 0 1-.114.002.928.928 0 0 1-.357-.046.384.384 0 0 1-.219-.468c.032-.11.115-.204.252-.283a1.85 1.85 0 0 1 .372-.156l.122.2c-.16.028-.278.065-.354.109-.064.036-.107.078-.123.125a.145.145 0 0 0 .01.128c.018.03.045.05.08.064a.606.606 0 0 0 .212.021l.12-.001c.186-.003.315.013.387.049a.414.414 0 0 1 .199.505c-.039.12-.143.23-.317.331-.101.056-.229.11-.382.16zM211.783 45.673a23.935 23.935 0 0 0-.63-1.098l-.454.26-.105-.172 1.176-.678.104.173-.458.263c.262.435.389.655.63 1.1l-.263.152zM212.683 45.154c-.281-.517-.428-.771-.735-1.273l.814-.47c.043.07.064.104.105.174l-.551.318.21.35.456-.263.1.175-.456.264c.09.155.132.234.218.39l.59-.34.101.181c-.341.199-.511.297-.852.494zM214.735 43.902a1.017 1.017 0 0 1-.246.24c-.05.038-.098.068-.15.097-.222.129-.422.162-.602.099a.827.827 0 0 1-.439-.389.823.823 0 0 1-.116-.572c.034-.185.167-.347.4-.482.138-.08.285-.142.441-.189l.125.205c-.079.015-.144.03-.193.043a.952.952 0 0 0-.247.103c-.146.084-.226.193-.236.324a.697.697 0 0 0 .106.403.624.624 0 0 0 .313.291c.124.048.264.027.412-.058.123-.071.23-.175.323-.311l.109.196zM214.99 43.821c-.28-.517-.427-.77-.734-1.272l.267-.153c.124.203.186.305.307.51l.526-.303c-.12-.206-.183-.307-.307-.511l.263-.152c.307.502.454.756.735 1.273-.106.06-.158.09-.263.152a21.077 21.077 0 0 0-.327-.586l-.526.304c.134.232.199.35.327.585-.107.06-.162.092-.267.153zM201.108 54.586a1.033 1.033 0 0 1-.249.24c-.05.037-.1.069-.151.098-.223.129-.42.158-.587.089-.168-.07-.299-.207-.395-.41a.895.895 0 0 1-.078-.596c.045-.191.185-.355.419-.49.138-.08.284-.142.437-.187.042.086.065.127.106.213-.077.014-.14.03-.189.042a.943.943 0 0 0-.246.1c-.145.085-.227.193-.246.33a.738.738 0 0 0 .077.42c.072.153.167.257.283.308.118.052.251.033.399-.052.123-.071.232-.175.33-.314.038.082.054.125.09.209zM201.224 54.583c-.04-.654-.066-.977-.132-1.617l.268-.154c.462.412.685.622 1.12 1.046l-.275.158c-.116-.114-.173-.172-.29-.284l-.526.303c.013.173.017.261.027.436l-.192.112zm.148-.762l.392-.226c-.178-.168-.265-.252-.446-.417.024.255.034.385.054.643zM202.658 53.755a24.5 24.5 0 0 0-.627-1.33l.265-.154c.226.45.335.679.542 1.14l.567-.326.083.19-.83.48zM203.68 53.165c-.238-.54-.361-.806-.625-1.331l.266-.155c.264.525.388.793.625 1.332l-.266.154zM204.265 52.828c-.238-.54-.363-.806-.627-1.332.171-.1.258-.149.43-.248a.662.662 0 0 1 .249-.097.28.28 0 0 1 .283.166.365.365 0 0 1 .028.229c-.015.086-.169.286-.169.286.002.004.188-.041.251-.035a.338.338 0 0 1 .275.197c.027.06.038.125.032.195a.385.385 0 0 1-.067.189.648.648 0 0 1-.216.18l-.47.27zm-.104-.927l.056-.032a.31.31 0 0 0 .152-.168.245.245 0 0 0-.016-.185.176.176 0 0 0-.057-.073c-.022-.016-.052-.021-.088-.018a.543.543 0 0 0-.178.078l-.048.029.18.369zm.271.59l.053-.031a.748.748 0 0 0 .178-.126.204.204 0 0 0 .05-.108.21.21 0 0 0-.02-.108.204.204 0 0 0-.16-.12.349.349 0 0 0-.242.052l-.046.027c.077.165.114.247.187.413zM205.372 52.187a24.5 24.5 0 0 0-.627-1.33l.815-.47.09.18-.55.318.179.37.456-.265.086.184-.457.263c.077.163.113.244.186.407l.592-.342.085.19c-.34.198-.513.298-.855.495zM206.43 51.578c-.238-.54-.364-.806-.627-1.332l.477-.276a.595.595 0 0 1 .24-.089.285.285 0 0 1 .178.044.351.351 0 0 1 .13.149.464.464 0 0 1 .042.257.534.534 0 0 1-.106.263c.284.153.42.231.698.387l-.32.186a33.27 33.27 0 0 0-.565-.365l-.145.083c.1.218.15.328.246.55l-.249.143zm-.084-.875l.061-.035c.11-.063.173-.13.19-.205a.293.293 0 0 0-.018-.205c-.027-.054-.063-.09-.113-.102-.05-.012-.127.013-.231.073l-.093.053c.082.17.125.252.204.42zM208.125 50.599c-.05-.117-.076-.176-.129-.293l.275-.158.13.291-.276.16zM209.138 50.014a25.63 25.63 0 0 0-.161-.36l-.592.343-.092-.201c.088-.446.13-.667.21-1.11l.231-.133c.154.307.23.46.375.772l.147-.085.092.2-.147.085c.065.143.096.217.16.36l-.223.13zm-.642-.334l.394-.228a27.47 27.47 0 0 0-.249-.521c-.056.299-.084.449-.145.749zM209.804 49.622l-.088-.195a.86.86 0 0 0 .302-.091.276.276 0 0 0 .142-.178.32.32 0 0 0-.023-.21.248.248 0 0 0-.193-.152c-.09-.015-.2.016-.332.093a.64.64 0 0 0-.088.061c-.126-.267-.19-.402-.323-.666l.73-.422.104.21c-.219.125-.327.188-.545.314l.126.294c.198-.114.365-.158.499-.126.136.029.236.108.295.235a.474.474 0 0 1 .01.375c-.048.13-.157.245-.323.34a.928.928 0 0 1-.11.057 3.743 3.743 0 0 1-.183.061zM210.835 49.034c-.037-.085-.053-.129-.092-.214a2.18 2.18 0 0 1 .102-.39l.06-.157c.042-.113.072-.215.088-.31a.405.405 0 0 0-.03-.255c-.031-.065-.078-.104-.137-.116-.058-.013-.122.001-.192.042a.891.891 0 0 0-.276.283c-.037-.078-.056-.115-.094-.192.103-.125.216-.221.337-.291a.562.562 0 0 1 .37-.088.33.33 0 0 1 .256.194c.034.071.049.148.044.23-.006.084-.04.201-.106.357-.022.049-.032.073-.052.122-.022.053-.047.12-.068.196a.465.465 0 0 0-.014.209l.561-.324c.039.084.054.128.093.213l-.85.49z"/>
            </g>
        </g>
        <path fill="#4d4d4d" stroke="#000000" stroke-linejoin="round" stroke-miterlimit="10" d="M150.834 91.799c0-5.636-.25-6.448-.25-6.448 1.334-.063 2.345-1.261 2.345-1.261s.322.136.322 7.709c0 7.573-.322 7.438-.322 7.438s-1.011-.927-2.345-.989c0 0 .25-.813.25-6.449z" transform="matrix(.8796 -.50784 .50784 .87961 -21.934 72.852)"/>
    </g>
</svg>
