<?xml version="1.0" encoding="UTF-8" standalone="no"?>
<svg
   xmlns:dc="http://purl.org/dc/elements/1.1/"
   xmlns:cc="http://creativecommons.org/ns#"
   xmlns:rdf="http://www.w3.org/1999/02/22-rdf-syntax-ns#"
   xmlns:svg="http://www.w3.org/2000/svg"
   xmlns="http://www.w3.org/2000/svg"
   xmlns:sodipodi="http://sodipodi.sourceforge.net/DTD/sodipodi-0.dtd"
   xmlns:inkscape="http://www.inkscape.org/namespaces/inkscape"
   version="1.1"
   viewBox="0 0 64 64"
   id="svg835"
   sodipodi:docname="crest_of_flames copy.svg"
   inkscape:version="1.1-dev (ddb55ca, 2020-02-02)">
  <metadata
     id="metadata841">
    <rdf:RDF>
      <cc:Work
         rdf:about="">
        <dc:format>image/svg+xml</dc:format>
        <dc:type
           rdf:resource="http://purl.org/dc/dcmitype/StillImage" />
      </cc:Work>
    </rdf:RDF>
  </metadata>
  <defs
     id="defs839" />
  <sodipodi:namedview
     pagecolor="#ffffff"
     bordercolor="#666666"
     borderopacity="1"
     objecttolerance="10"
     gridtolerance="10"
     guidetolerance="10"
     inkscape:pageopacity="0"
     inkscape:pageshadow="2"
     inkscape:window-width="900"
     inkscape:window-height="651"
     id="namedview837"
     showgrid="false"
     inkscape:zoom="3.6312149"
     inkscape:cx="33.699503"
     inkscape:cy="21.432014"
     inkscape:window-x="208"
     inkscape:window-y="103"
     inkscape:window-maximized="0"
     inkscape:current-layer="svg835" />
  <path
     inkscape:connector-curvature="0"
     id="path852"
     d="m 31.002596,60.490969 c -0.112835,-0.1769 -0.282209,-3.042672 -0.376383,-6.368383 -0.246023,-8.688021 -0.371852,-9.21563 -2.12977,-8.93036 -0.481483,0.07814 -0.939584,0.0779 -1.018003,-5.14e-4 -0.201945,-0.201944 0.295768,-1.070753 1.267628,-2.212768 0.743621,-0.873816 1.402078,-2.570212 1.402078,-3.612195 0,-0.206799 -0.858066,-1.226572 -1.906817,-2.266162 -1.482441,-1.469493 -1.975104,-2.147269 -2.213644,-3.045389 -0.582602,-2.193547 0.07267,-4.33064 1.713819,-5.589423 1.989188,-1.525734 2.494426,-2.079613 2.901022,-3.180319 0.560441,-1.517175 1.243016,-1.539705 1.95196,-0.06443 0.60954,1.268421 1.469822,2.232743 2.633389,2.951866 1.310814,0.810128 2.246966,2.624502 2.235254,4.332194 -0.01294,1.888803 -0.736775,3.221009 -2.678874,4.930518 -1.370191,1.206092 -1.548408,1.47291 -1.548408,2.318207 0,1.326299 0.347467,2.113384 1.576346,3.570761 1.105449,1.310997 1.224685,2.238226 0.247963,1.928226 -0.705959,-0.224062 -1.756768,0.0943 -1.963278,0.59482 -0.09691,0.234886 -0.269899,3.383258 -0.384409,6.99638 -0.20666,6.520563 -0.420223,7.968607 -1.175243,7.968607 -0.181212,0 -0.421795,-0.144736 -0.53463,-0.321636 z m 2.698501,-24.38625 c 0.905754,-0.552223 1.839225,-2.246745 1.839225,-3.338731 0,-1.255122 -0.916872,-2.768376 -2.017576,-3.329913 -2.697796,-1.376312 -5.691803,0.3622 -5.689413,3.303636 0.0025,3.029447 3.308482,4.925362 5.867764,3.365008 z M 23.573888,54.444221 c -3.322386,-3.877069 -5.769867,-8.415683 -7.69337,-14.266611 -1.871581,-5.692987 -1.861879,-6.102144 0.17926,-7.560457 1.820501,-1.300676 3.796032,-3.218589 3.796032,-3.685315 0,-0.208907 -2.084198,-2.475115 -4.631551,-5.036018 -2.99913,-3.015082 -4.631552,-4.843071 -4.631552,-5.186419 0,-0.786991 0.945984,-1.559048 1.494586,-1.219795 0.239375,0.14803 1.789238,1.764205 3.444139,3.591501 1.654901,1.827297 3.178572,3.357767 3.385934,3.401045 0.207363,0.04328 0.626683,-0.1883 0.931822,-0.514617 0.6747,-0.721526 2.065089,-2.790455 2.065089,-3.072895 0,-0.112332 -0.355483,-0.609114 -0.789963,-1.103959 -0.561702,-0.639744 -0.766164,-1.107016 -0.707598,-1.617131 0.136876,-1.192212 1.031444,-1.080668 2.368794,0.295364 1.25848,1.29488 1.327379,1.297815 3.169444,0.134999 0.594896,-0.375532 1.597485,-0.879793 2.227975,-1.120579 1.687484,-0.644455 1.866818,-1.214265 2.235561,-7.103178 0.370758,-5.9210568 0.840135,-7.5977529 1.728649,-6.1750192 0.266443,0.4266446 1.07909,9.0888432 1.086724,11.5836652 0.0018,0.555622 0.387175,0.862751 2.692931,2.14561 2.232148,1.241905 2.824343,1.467869 3.473345,1.325324 0.430317,-0.09451 0.934364,-0.388807 1.120102,-0.653985 0.312758,-0.446525 1.435487,-1.02096 1.99546,-1.02096 0.450843,0 0.243272,1.461635 -0.274059,1.929814 -0.745544,0.674706 -0.658134,1.913765 0.219638,3.113422 1.056779,1.444307 1.735823,1.990754 2.155069,1.734248 0.385278,-0.235722 2.614986,-2.634519 4.798387,-5.162272 0.760663,-0.880629 1.608288,-1.67264 1.883608,-1.760024 0.61928,-0.196551 1.492942,0.538524 1.492942,1.256116 0,0.325373 -1.71628,2.249613 -4.631551,5.192753 -2.547353,2.571703 -4.631551,4.881824 -4.631551,5.133601 0,0.507685 1.227266,1.728945 3.279493,3.263445 2.148142,1.606217 2.262858,1.888891 1.73333,4.271103 -1.065983,4.795581 -3.533748,10.559135 -6.277219,14.660667 -1.573842,2.352918 -3.753646,4.963389 -4.144546,4.963389 -0.381048,0 -1.023769,-0.794813 -1.023769,-1.266032 0,-0.25154 0.908821,-1.379701 2.019604,-2.50702 1.757599,-1.783768 2.22166,-2.46477 3.57713,-5.249385 1.641177,-3.371559 2.273916,-5.056381 3.138287,-8.356459 0.949265,-3.624189 0.908616,-3.724835 -2.793453,-6.916512 -1.286588,-1.109207 -2.33925,-2.199487 -2.33925,-2.422839 0,-0.223351 0.432837,-0.849357 0.961858,-1.391125 l 0.961857,-0.98503 -0.7361,-1.405933 c -0.930849,-1.777901 -3.522593,-4.218576 -5.476164,-5.156969 -1.238114,-0.594726 -1.933948,-0.739907 -3.97438,-0.82923 -3.592342,-0.157261 -6.25867,0.696089 -8.517348,2.72595 -1.181565,1.061866 -3.03247,3.759164 -3.03247,4.419177 0,0.23462 0.336906,0.749361 0.74868,1.143866 1.294704,1.240404 1.213708,1.525841 -0.937751,3.304681 -2.666209,2.204439 -3.670555,3.561517 -3.670555,4.959677 0,1.784588 1.798268,7.546248 3.290078,10.541426 0.987375,1.982399 2.571477,4.202713 4.352733,6.10089 1.698805,1.810314 1.78489,1.987909 1.35393,2.793165 -0.435921,0.814526 -0.88182,0.588846 -2.448271,-1.23913 z"
     style="fill:#ff8080;stroke:#ffb380;stroke-width:0.257308;fill-opacity:1" />
</svg>
