<svg xmlns="http://www.w3.org/2000/svg" xmlns:xlink="http://www.w3.org/1999/xlink" viewBox="0 0 256 256">
    <defs>
        <linearGradient id="innoGrad3">
            <stop offset="0" stop-color="#ffd5d5" stop-opacity="0"/>
            <stop offset=".499" stop-color="#ffd5d5" stop-opacity=".502"/>
            <stop offset="1" stop-color="#ffd5d5" stop-opacity="0"/>
        </linearGradient>
        <linearGradient id="innoGrad2">
            <stop offset="0" stop-color="#ffd5d5" stop-opacity="0"/>
            <stop offset="1" stop-color="#ffd5d5" stop-opacity=".502"/>
        </linearGradient>
        <linearGradient id="innoGrad1">
            <stop offset="0" stop-color="#ff2a2a" stop-opacity=".502"/>
            <stop offset="1" stop-color="#ff2a2a" stop-opacity="0"/>
        </linearGradient>
        <linearGradient id="linearGradient860" x1="22.605" x2="149.213" y1="136.95" y2="136.95" gradientUnits="userSpaceOnUse" xlink:href="#innoGrad1"/>
        <linearGradient id="linearGradient868" x1="22.605" x2="149.213" y1="136.95" y2="136.95" gradientUnits="userSpaceOnUse" xlink:href="#innoGrad2"/>
        <linearGradient id="linearGradient897" x1="84.02" x2="149.165" y1="138.427" y2="138.427" gradientUnits="userSpaceOnUse" xlink:href="#innoGrad1"/>
        <linearGradient id="linearGradient905" x1="84.02" x2="152.616" y1="138.427" y2="129.223" gradientUnits="userSpaceOnUse" xlink:href="#innoGrad3"/>
        <linearGradient id="linearGradient996" x1="107.264" x2="232.922" y1="119.05" y2="119.05" gradientUnits="userSpaceOnUse" xlink:href="#innoGrad1"/>
        <linearGradient id="linearGradient1004" x1="106.79" x2="233.398" y1="119.051" y2="119.051" gradientUnits="userSpaceOnUse" xlink:href="#innoGrad2"/>
        <linearGradient id="linearGradient1033" x1="168.679" x2="232.874" y1="120.528" y2="120.528" gradientUnits="userSpaceOnUse" xlink:href="#innoGrad1"/>
        <linearGradient id="linearGradient1041" x1="168.205" x2="236.8" y1="120.528" y2="109.023" gradientUnits="userSpaceOnUse" xlink:href="#innoGrad3"/>
    </defs>
    <g>
        <path fill="#ff2a2a" stroke="#231f20" stroke-linejoin="round" stroke-miterlimit="10" stroke-width=".949" d="M112.146 185.237c23.101-10.759 62.655-5.539 62.655-5.539l-6.122 20.411-56.533 5.695z"/>
        <path fill="#faa" stroke="#231f20" stroke-linejoin="round" stroke-miterlimit="10" stroke-width=".949" d="M177.966 5.5s2.847 20.252-.316 49.364c-3.165 29.112-13.291 43.352-13.291 43.352s-5.693-6.409-13.606-9.493c-6.724-2.62-18.354-3.481-18.985-.95-.633 2.531 20.767 15.383 29.743 34.492 9.677 20.598 4.115 46.199 4.115 46.199s-14.749 10.902-29.43 15.506c-14.682 4.604-24.05 1.267-24.05 1.267s-6.646 8.542-4.429 25.946c2.214 17.405 122.461 33.543 124.993 8.544 2.532-24.998-18.391-131.396-22.265-145.763-3.61-13.386-8.194-24.121-12.227-33.34C187.642 16.442 177.966 5.5 177.966 5.5z"/>
        <path fill="url(#linearGradient996)" d="M177.966 5.5s2.847 20.252-.316 49.364c-3.165 29.112-13.291 43.352-13.291 43.352s-5.693-6.409-13.606-9.493c-6.724-2.62-18.354-3.481-18.985-.95-.633 2.531 20.767 15.383 29.743 34.492 9.677 20.598 4.115 46.199 4.115 46.199s-14.749 10.902-29.43 15.506c-14.682 4.604-24.05 1.267-24.05 1.267s-6.646 8.542-4.429 25.946c2.214 17.405 122.461 33.543 124.993 8.544 2.532-24.998-18.391-131.396-22.265-145.763-3.61-13.386-8.194-24.121-12.227-33.34C187.642 16.442 177.966 5.5 177.966 5.5z"/>
        <path fill="url(#linearGradient1004)" stroke="#231f20" stroke-linejoin="round" stroke-miterlimit="10" stroke-width=".949" d="M177.966 5.5s2.847 20.252-.316 49.364c-3.165 29.112-13.291 43.352-13.291 43.352s-5.693-6.409-13.606-9.493c-6.724-2.62-18.354-3.481-18.985-.95-.633 2.531 20.767 15.383 29.743 34.492 9.677 20.598 4.115 46.199 4.115 46.199s-14.749 10.902-29.43 15.506c-14.682 4.604-24.05 1.267-24.05 1.267s-6.646 8.542-4.429 25.946c2.214 17.405 122.461 33.543 124.993 8.544 2.532-24.998-18.391-131.396-22.265-145.763-3.61-13.386-8.194-24.121-12.227-33.34C187.642 16.442 177.966 5.5 177.966 5.5z"/>
        <path fill="#ff8080" d="M184.136 21.559s1.563 4.92-.949 36.549c-2.512 31.629-10.918 42.482-9.968 45.33.95 2.848 3.746-6.165 8.781 51.026 5.035 57.19-15.901 60.519-13.053 63.366 1.515 1.517 21.213 2.565 37.734.567 14.514-1.756 26.193-6.511 26.193-6.511s-3.33-43.658-10.305-77.119c-5.305-25.461-7.706-38.85-7.706-38.85s-10.824-36.723-19.337-54.422c-8.51-17.699-11.39-19.936-11.39-19.936z"/>
        <path fill="url(#linearGradient1033)" d="M184.136 21.559s1.563 4.92-.949 36.549c-2.512 31.629-10.918 42.482-9.968 45.33.95 2.848 3.746-6.165 8.781 51.026 5.035 57.19-15.901 60.519-13.053 63.366 1.515 1.517 21.213 2.565 37.734.567 14.514-1.756 26.193-6.511 26.193-6.511s-3.33-43.658-10.305-77.119c-5.305-25.461-7.706-38.85-7.706-38.85s-10.824-36.723-19.337-54.422c-8.51-17.699-11.39-19.936-11.39-19.936z"/>
        <path fill="url(#linearGradient1041)" stroke="#231f20" stroke-linejoin="round" stroke-miterlimit="10" stroke-width=".949" d="M184.136 21.559s1.563 4.92-.949 36.549c-2.512 31.629-10.918 42.482-9.968 45.33.95 2.848 3.746-6.165 8.781 51.026 5.035 57.19-15.901 60.519-13.053 63.366 1.515 1.517 21.213 2.565 37.734.567 14.514-1.756 26.193-6.511 26.193-6.511s-3.33-43.658-10.305-77.119c-5.305-25.461-7.706-38.85-7.706-38.85s-10.824-36.723-19.337-54.422c-8.51-17.699-11.39-19.936-11.39-19.936z"/>
        <path fill="#ff2a2a" d="M131.731 87.798c9.24 1.074 15.45 5.593 18.413 8.038 3.163 2.611 5.69 5.498 7.343 7.521a67.564 67.564 0 0 1 6.585 9.618c1.945 3.447 4.767 9.13 7.115 17.263 2.287 7.921 4.88 20.8 4.133 38.015 1.13-17.177-1.071-30.214-3.096-38.294-2.08-8.3-4.686-14.223-6.523-17.854-2.374-4.693-4.677-7.952-6.495-10.158a40.964 40.964 0 0 0-8.037-7.457c-3.358-2.362-10.051-6.344-19.438-6.692z"/>
    </g>
    <g>
        <path fill="#ff2a2a" stroke="#231f20" stroke-linejoin="round" stroke-miterlimit="10" stroke-width=".949" d="M27.961 203.136c23.1-10.759 62.655-5.539 62.655-5.539l-6.122 20.411-56.533 5.695z"/>
        <path fill="#faa" d="M93.781 23.399s2.848 20.252-.316 49.364c-3.165 29.112-13.291 43.352-13.291 43.352s-5.694-6.41-13.607-9.494c-6.724-2.621-18.353-3.48-18.985-.95-.632 2.532 20.767 15.383 29.744 34.494 9.677 20.597 4.114 46.199 4.114 46.199s-14.749 10.902-29.429 15.506c-14.681 4.604-24.049 1.266-24.049 1.266s-6.646 8.543-4.43 25.947c2.215 17.405 122.46 33.542 124.993 8.544 2.533-24.998-18.39-131.398-22.265-145.764-3.612-13.386-8.196-24.121-12.227-33.34-10.577-24.182-20.252-35.124-20.252-35.124z"/>
        <path fill="url(#linearGradient860)" d="M93.781 23.399s2.848 20.252-.316 49.364c-3.165 29.112-13.291 43.352-13.291 43.352s-5.694-6.41-13.607-9.494c-6.724-2.621-18.353-3.48-18.985-.95-.632 2.532 20.767 15.383 29.744 34.494 9.677 20.597 4.114 46.199 4.114 46.199s-14.749 10.902-29.429 15.506c-14.681 4.604-24.049 1.266-24.049 1.266s-6.646 8.543-4.43 25.947c2.215 17.405 122.46 33.542 124.993 8.544 2.533-24.998-18.39-131.398-22.265-145.764-3.612-13.386-8.196-24.121-12.227-33.34-10.577-24.182-20.252-35.124-20.252-35.124z"/>
        <path fill="url(#linearGradient868)" stroke="#231f20" stroke-linejoin="round" stroke-miterlimit="10" stroke-width=".949" d="M93.781 23.399s2.848 20.252-.316 49.364c-3.165 29.112-13.291 43.352-13.291 43.352s-5.694-6.41-13.607-9.494c-6.724-2.621-18.353-3.48-18.985-.95-.632 2.532 20.767 15.383 29.744 34.494 9.677 20.597 4.114 46.199 4.114 46.199s-14.749 10.902-29.429 15.506c-14.681 4.604-24.049 1.266-24.049 1.266s-6.646 8.543-4.43 25.947c2.215 17.405 122.46 33.542 124.993 8.544 2.533-24.998-18.39-131.398-22.265-145.764-3.612-13.386-8.196-24.121-12.227-33.34-10.577-24.182-20.252-35.124-20.252-35.124z"/>
        <path fill="#ff8080" d="M99.952 39.458s1.563 4.92-.95 36.549c-2.512 31.629-10.918 42.482-9.968 45.33.95 2.848 3.747-6.165 8.78 51.025 5.036 57.19-15.9 60.519-13.052 63.367 1.515 1.516 21.212 2.564 37.734.567 14.514-1.757 26.194-6.511 26.194-6.511s-3.329-43.659-10.305-77.12c-5.304-25.46-7.706-38.85-7.706-38.85s-10.823-36.723-19.336-54.422c-8.512-17.698-11.391-19.935-11.391-19.935z"/>
        <path fill="url(#linearGradient897)" d="M99.952 39.458s1.563 4.92-.95 36.549c-2.512 31.629-10.918 42.482-9.968 45.33.95 2.848 3.747-6.165 8.78 51.025 5.036 57.19-15.9 60.519-13.052 63.367 1.515 1.516 21.212 2.564 37.734.567 14.514-1.757 26.194-6.511 26.194-6.511s-3.329-43.659-10.305-77.12c-5.304-25.46-7.706-38.85-7.706-38.85s-10.823-36.723-19.336-54.422c-8.512-17.698-11.391-19.935-11.391-19.935z"/>
        <path fill="url(#linearGradient905)" stroke="#231f20" stroke-linejoin="round" stroke-miterlimit="10" stroke-width=".949" d="M99.952 39.458s1.563 4.92-.95 36.549c-2.512 31.629-10.918 42.482-9.968 45.33.95 2.848 3.747-6.165 8.78 51.025 5.036 57.19-15.9 60.519-13.052 63.367 1.515 1.516 21.212 2.564 37.734.567 14.514-1.757 26.194-6.511 26.194-6.511s-3.329-43.659-10.305-77.12c-5.304-25.46-7.706-38.85-7.706-38.85s-10.823-36.723-19.336-54.422c-8.512-17.698-11.391-19.935-11.391-19.935z"/>
        <path fill="#ff2a2a" d="M47.581 105.671c9.24 1.074 15.45 5.593 18.413 8.038 3.163 2.611 5.69 5.498 7.343 7.521a67.564 67.564 0 0 1 6.585 9.618c1.945 3.447 4.767 9.13 7.115 17.263 2.287 7.921 4.88 20.8 4.133 38.015 1.13-17.177-1.071-30.214-3.096-38.294-2.08-8.3-4.686-14.223-6.523-17.854-2.374-4.693-4.678-7.952-6.495-10.158a40.964 40.964 0 0 0-8.037-7.457c-3.358-2.362-10.051-6.344-19.438-6.692z"/>
    </g>
</svg>
