<svg xmlns="http://www.w3.org/2000/svg" xmlns:xlink="http://www.w3.org/1999/xlink" viewBox="0 0 256 256">
    <defs>
        <linearGradient id="innoGrad4">
            <stop offset="0" stop-color="#ffd5d5" stop-opacity="0"/>
            <stop offset=".129" stop-color="#ffd5d5" stop-opacity="0"/>
            <stop offset=".406" stop-color="#ffd5d5" stop-opacity=".502"/>
            <stop offset=".545" stop-color="#ffd5d5" stop-opacity="0"/>
            <stop offset=".855" stop-color="#ffd5d5" stop-opacity=".502"/>
            <stop offset="1" stop-color="#ffd5d5" stop-opacity="0"/>
        </linearGradient>
        <linearGradient id="innoGrad3">
            <stop offset="0" stop-color="#ffd5d5" stop-opacity="0"/>
            <stop offset=".226" stop-color="#ffd5d5" stop-opacity=".502"/>
            <stop offset=".362" stop-color="#ffd5d5" stop-opacity="0"/>
            <stop offset=".433" stop-color="#ffd5d5" stop-opacity="0"/>
            <stop offset=".713" stop-color="#ffd5d5" stop-opacity=".502"/>
            <stop offset=".953" stop-color="#ffd5d5" stop-opacity="0"/>
            <stop offset="1" stop-color="#ffd5d5" stop-opacity="0"/>
        </linearGradient>
        <linearGradient id="innoGrad2">
            <stop offset="0" stop-color="#ffe6d5" stop-opacity=".502"/>
            <stop offset="1" stop-color="#ffe6d5" stop-opacity="0"/>
        </linearGradient>
        <linearGradient id="innoGrad1">
            <stop offset="0" stop-color="#ff2a2a" stop-opacity=".502"/>
            <stop offset=".5" stop-color="#ff2a2a" stop-opacity="0"/>
            <stop offset="1" stop-color="#ff2a2a" stop-opacity=".502"/>
        </linearGradient>
        <linearGradient id="linearGradient859" x1="12.697" x2="243.122" y1="54.864" y2="54.864" gradientUnits="userSpaceOnUse" xlink:href="#innoGrad1"/>
        <linearGradient id="linearGradient884" x1="10.046" x2="245.241" y1="138.462" y2="138.462" gradientUnits="userSpaceOnUse" xlink:href="#innoGrad1"/>
        <linearGradient id="linearGradient907" x1="7.494" x2="248.506" y1="145.911" y2="145.911" gradientUnits="userSpaceOnUse" xlink:href="#innoGrad1"/>
        <linearGradient id="linearGradient930" x1="20.359" x2="235.648" y1="100.998" y2="100.998" gradientUnits="userSpaceOnUse" xlink:href="#innoGrad1"/>
        <radialGradient id="radialGradient955" cx="127.986" cy="191.589" r="9.292" fx="127.986" fy="191.589" gradientTransform="matrix(1.78796 0 0 2.05981 -100.849 -203.048)" gradientUnits="userSpaceOnUse" xlink:href="#innoGrad2"/>
        <linearGradient id="linearGradient884-1" x1="14.329" x2="128.2" y1="72.848" y2="154.068" gradientUnits="userSpaceOnUse" xlink:href="#innoGrad3"/>
        <linearGradient id="linearGradient884-1-0" x1="241.678" x2="128.2" y1="72.848" y2="154.068" gradientUnits="userSpaceOnUse" xlink:href="#innoGrad4"/>
        <linearGradient id="linearGradient907-0" x1="14.33" x2="128.005" y1="72.846" y2="216.423" gradientUnits="userSpaceOnUse" xlink:href="#innoGrad3"/>
        <linearGradient id="linearGradient907-0-0" x1="241.678" x2="128.005" y1="72.848" y2="216.423" gradientUnits="userSpaceOnUse" xlink:href="#innoGrad4"/>
        <linearGradient id="linearGradient930-3" x1="20.887" x2="128.2" y1="56.722" y2="154.068" gradientUnits="userSpaceOnUse" xlink:href="#innoGrad3"/>
        <linearGradient id="linearGradient930-9" x1="128.2" x2="235.118" y1="154.068" y2="56.722" gradientUnits="userSpaceOnUse" xlink:href="#innoGrad4"/>
    </defs>
    <path fill="#f55" d="M14.329 72.847s8.672-20.296 113.773-20.296 113.575 20.296 113.575 20.296l-7.178-7.222-.36-5.123S221.71 34.841 129.206 34.833C26.792 34.821 21.883 60.502 21.883 60.502L22 64.375l-7.671 8.472z"/>
    <path fill="url(#linearGradient859)" stroke="#231f20" stroke-miterlimit="10" d="M14.329 72.847s8.672-20.296 113.773-20.296 113.575 20.296 113.575 20.296l-7.178-7.222-.36-5.123S221.71 34.841 129.206 34.833C26.792 34.821 21.883 60.502 21.883 60.502L22 64.375z"/>
    <path fill="#ff8080" d="M21.883 60.502s.334.914-3.483 7.17c-3.825 6.24-4.07 5.174-4.07 5.174l-3.784 10.539 37.365 72.56 32.282 29.105 47.813 31.371 35.422-20.899 43.73-39.096 37.583-71.84-3.063-11.739s-.242 1.065-4.044-5.174c-3.865-6.257-3.494-7.17-3.494-7.17l-50.122 62.9-55.818 43.754-67.121-54.107-39.196-52.548z"/>
    <path fill="url(#linearGradient884)" d="M21.883 60.502s.334.914-3.483 7.17c-3.825 6.24-4.07 5.174-4.07 5.174l-3.784 10.539 37.365 72.56 32.282 29.105 47.813 31.371 35.422-20.899 43.73-39.096 37.583-71.84-3.063-11.739s-.242 1.065-4.044-5.174c-3.865-6.257-3.494-7.17-3.494-7.17l-50.122 62.9-55.818 43.754-67.121-54.107z"/>
    <path fill="url(#linearGradient884-1-0)" d="M21.883 60.502s.334.914-3.483 7.17c-3.825 6.24-4.07 5.174-4.07 5.174l-3.784 10.539 37.365 72.56 32.282 29.105 47.813 31.371 35.422-20.899 43.73-39.096 37.583-71.84-3.063-11.739s-.242 1.065-4.044-5.174c-3.865-6.257-3.494-7.17-3.494-7.17l-50.122 62.9-55.818 43.754-67.121-54.107z"/>
    <path fill="url(#linearGradient884-1)" stroke="#231f20" stroke-linejoin="round" stroke-miterlimit="10" d="M21.883 60.502s.334.914-3.483 7.17c-3.825 6.24-4.07 5.174-4.07 5.174l-3.784 10.539 37.365 72.56 32.282 29.105 47.813 31.371 35.422-20.899 43.73-39.096 37.583-71.84-3.063-11.739s-.242 1.065-4.044-5.174c-3.865-6.257-3.494-7.17-3.494-7.17l-50.122 62.9-55.818 43.754-67.121-54.107z"/>
    <path fill="#faa" d="M127.98 223.173s-52.78-28.486-92.377-79.816C9.19 109.166 7.303 80.876 8.151 76.64c1.858-9.201 7.057-8.628 8.418-7.295l-2.24 3.503s-2.209 24.37 35.416 71.409c35.393 44.272 78.26 72.166 78.26 72.166s42.867-27.894 78.261-72.166c37.622-47.039 35.412-71.409 35.412-71.409l-2.24-3.503c1.346-1.333 6.561-1.906 8.407 7.295.86 4.236-1.023 32.526-27.458 66.717-39.605 51.33-92.407 79.816-92.407 79.816z"/>
    <path fill="url(#linearGradient907)" d="M127.98 223.173s-52.78-28.486-92.377-79.816C9.19 109.166 7.303 80.876 8.151 76.64c1.858-9.201 7.057-8.628 8.418-7.295l-2.24 3.503s-2.209 24.37 35.416 71.409c35.393 44.272 78.26 72.166 78.26 72.166s42.867-27.894 78.261-72.166c37.622-47.039 35.412-71.409 35.412-71.409l-2.24-3.503c1.346-1.333 6.561-1.906 8.407 7.295.86 4.236-1.023 32.526-27.458 66.717-39.605 51.33-92.407 79.816-92.407 79.816z"/>
    <path fill="url(#linearGradient907-0)" d="M127.98 223.173s-52.78-28.486-92.377-79.816C9.19 109.166 7.303 80.876 8.151 76.64c1.858-9.201 7.057-8.628 8.418-7.295l-2.24 3.503s-2.209 24.37 35.416 71.409c35.393 44.272 78.26 72.166 78.26 72.166s42.867-27.894 78.261-72.166c37.622-47.039 35.412-71.409 35.412-71.409l-2.24-3.503c1.346-1.333 6.561-1.906 8.407 7.295.86 4.236-1.023 32.526-27.458 66.717-39.605 51.33-92.407 79.816-92.407 79.816z"/>
    <path fill="url(#linearGradient907-0-0)" stroke="#231f20" stroke-miterlimit="10" d="M127.98 223.173s-52.78-28.486-92.377-79.816C9.19 109.166 7.303 80.876 8.151 76.64c1.858-9.201 7.057-8.628 8.418-7.295l-2.24 3.503s-2.209 24.37 35.416 71.409c35.393 44.272 78.26 72.166 78.26 72.166s42.867-27.894 78.261-72.166c37.622-47.039 35.412-71.409 35.412-71.409l-2.24-3.503c1.346-1.333 6.561-1.906 8.407 7.295.86 4.236-1.023 32.526-27.458 66.717-39.605 51.33-92.407 79.816-92.407 79.816z"/>
    <path fill="#faa" d="M227.487 55.18s-3.116 21.107-29.732 49.098c-26.664 27.991-69.555 49.79-69.555 49.79s-43.272-21.799-69.922-49.79C31.619 76.287 28.521 55.18 28.521 55.18c26.244-26.243 176.323-22.656 198.966 0zM25.231 51.964c-4.999 3.326-4.344 4.758-4.344 4.758s3.773 23.527 40.41 62.576c39.428 42.074 66.902 47.86 66.902 47.86s27.047-5.786 66.545-47.86c36.604-39.049 40.374-62.576 40.374-62.576s.667-1.432-4.328-4.758c-33.186-22.104-170.163-23.584-205.559 0z"/>
    <path fill="url(#linearGradient930)" d="M227.487 55.18s-3.116 21.107-29.732 49.098c-26.664 27.991-69.555 49.79-69.555 49.79s-43.272-21.799-69.922-49.79C31.619 76.287 28.521 55.18 28.521 55.18c26.244-26.243 176.323-22.656 198.966 0zM25.231 51.964c-4.999 3.326-4.344 4.758-4.344 4.758s3.773 23.527 40.41 62.576c39.428 42.074 66.902 47.86 66.902 47.86s27.047-5.786 66.545-47.86c36.604-39.049 40.374-62.576 40.374-62.576s.667-1.432-4.328-4.758c-33.186-22.104-170.163-23.584-205.559 0z"/>
    <path fill="url(#linearGradient930-9)" d="M227.487 55.18s-3.116 21.107-29.732 49.098c-26.664 27.991-69.555 49.79-69.555 49.79s-43.272-21.799-69.922-49.79C31.619 76.287 28.521 55.18 28.521 55.18c26.244-26.243 176.323-22.656 198.966 0zM25.231 51.964c-4.999 3.326-4.344 4.758-4.344 4.758s3.773 23.527 40.41 62.576c39.428 42.074 66.902 47.86 66.902 47.86s27.047-5.786 66.545-47.86c36.604-39.049 40.374-62.576 40.374-62.576s.667-1.432-4.328-4.758c-33.186-22.104-170.163-23.584-205.559 0z"/>
    <path fill="url(#linearGradient930-3)" stroke="#231f20" stroke-miterlimit="10" d="M227.487 55.18s-3.116 21.107-29.732 49.098c-26.664 27.991-69.555 49.79-69.555 49.79s-43.272-21.799-69.922-49.79C31.619 76.287 28.521 55.18 28.521 55.18c26.244-26.243 176.323-22.656 198.966 0zM25.231 51.964c-4.999 3.326-4.344 4.758-4.344 4.758s3.773 23.527 40.41 62.576c39.428 42.074 66.902 47.86 66.902 47.86s27.047-5.786 66.545-47.86c36.604-39.049 40.374-62.576 40.374-62.576s.667-1.432-4.328-4.758c-33.186-22.104-170.163-23.584-205.559 0z"/>
    <path fill="#ff2a2a" d="M25.567 56.541c-.307.08 2.321 8.808 6.94 18.278 6.423 13.17 15.707 26.715 27.988 38.83 16.322 16.04 29.292 26.062 37.584 31.942 8.502 6.03 14.97 9.732 18.855 11.804 7.506 4.002 11.262 5.054 10.829 4.928l.439.127.438-.128c-.429.126 3.3-.926 10.766-4.928 3.864-2.072 10.3-5.775 18.772-11.804 8.262-5.88 21.193-15.903 37.496-31.94 10.83-10.684 19.422-22.562 25.808-34.533 5.963-11.18 9.597-22.46 9.152-22.576-.16-.042-3.59 10.794-9.955 22.136a145.178 145.178 0 0 1-26.17 33.773c-16.41 15.814-29.374 25.562-37.655 31.247-8.49 5.829-14.89 9.314-18.724 11.243-8.26 4.156-10.457 4.404-10.37 4.378l.438-.128.44.127c.086.025-2.13-.223-10.434-4.379-3.853-1.928-10.283-5.414-18.804-11.243-8.31-5.684-21.312-15.432-37.739-31.245A144.809 144.809 0 0 1 33.23 74.456c-4.925-9.53-7.523-17.951-7.663-17.915z"/>
    <path fill="#faa" stroke="#231F20" stroke-miterlimit="10" stroke-width=".5" d="M139.677 188.659l-11.672-19.271-11.635 19.271 11.635 25.552z"/>
    <path fill="#ffb380" d="M128.005 209.439l8.717-20.78-8.717-15.207-8.754 15.207z"/>
    <path fill="none" stroke="#ff7f2a" stroke-miterlimit="10" stroke-width=".5" d="M128.005 196.681l2.881-6.968-2.881-5.09-2.918 5.09z"/>
    <path fill="#F1F2F2" stroke="#ff7f2a" stroke-miterlimit="10" stroke-width=".5" d="M136.722 188.659l-5.836 1.054M119.251 188.659l5.836 1.054M128.005 196.681v12.758M128.005 184.623v-11.171"/>
    <path fill="url(#radialGradient955)" stroke="#231f20" stroke-miterlimit="10" d="M128.005 209.439l8.717-20.78-8.717-15.207-8.754 15.207z"/>
</svg>
