<?xml version="1.0" encoding="UTF-8"?>
<svg cursor="default" version="1.1" viewBox="0 0 256 256" xmlns="http://www.w3.org/2000/svg" xmlns:cc="http://creativecommons.org/ns#" xmlns:dc="http://purl.org/dc/elements/1.1/" xmlns:rdf="http://www.w3.org/1999/02/22-rdf-syntax-ns#" xmlns:xlink="http://www.w3.org/1999/xlink">
 <metadata>
  <rdf:RDF>
   <cc:Work rdf:about="">
    <dc:format>image/svg+xml</dc:format>
    <dc:type rdf:resource="http://purl.org/dc/dcmitype/StillImage"/>
    <dc:title/>
   </cc:Work>
  </rdf:RDF>
 </metadata>
 <defs>
  <linearGradient id="innoGrad2">
   <stop stop-color="#ff3e00" offset="0"/>
   <stop stop-color="#ffbf00" offset="1"/>
  </linearGradient>
  <radialGradient id="radialGradient958" cx="295.76" cy=".49476" r="50.747" gradientTransform="matrix(.40719 .46134 -1.016 .9325 48.961 -58.184)" gradientUnits="userSpaceOnUse" xlink:href="#innoGrad2"/>
  <radialGradient id="radialGradient958-5" cx="295.76" cy=".49476" r="50.747" gradientTransform="matrix(-.46134 -.40719 -.9325 1.016 300.06 206.06)" gradientUnits="userSpaceOnUse" xlink:href="#innoGrad2"/>
  <linearGradient id="innoGrad1" x1="106.82" x2="196.31" y1="156.08" y2="54.078" gradientTransform="matrix(1.2387 0 0 1.2387 -99.689 36.694)" gradientUnits="userSpaceOnUse">
   <stop stop-color="#ff9955" offset="0"/>
   <stop stop-color="#ffb380" offset="1"/>
  </linearGradient>
 </defs>
 <path d="m220.8 25.152s-11.289 7.1865-15.325 12.352c-7.9352 10.155-6.9629 24.807-15.684 34.347-8.6814 9.4969-32.974 18.959-32.974 18.959s11.96-9.2761 16.253-15.299c6.5357-9.1691 5.8258-21.768 13.384-30.199 8.9833-10.02 34.347-20.161 34.347-20.161zm-20.474 6.2197c7e-3 -0.20772-16.295 8.8945-22.103 18.267-5.1492 8.3089-5.7025 18.44-11.429 26.431-3.2626 4.5525-12.459 11.414-12.459 11.414s7.276-9.457 9.8907-14.646c4.3069-8.5469 3.317-18.871 9.2638-26.591 7.2565-9.4199 27.001-15.342 26.837-14.875zm-9.4495-2.0017s-15.16 7.1871-20.205 13.601c-5.9095 7.5136-8.8537 26.775-8.8537 26.775s-3.4839-23.53 3.9329-32.2c5.9786-6.9892 25.126-8.1756 25.126-8.1756zm14.659 19.425s0.17254 21.944-6.2077 30.242c-6.2228 8.0918-26.003 12.189-26.003 12.189s16.072-9.819 21.651-17.125c5.7042-7.4697 10.559-25.307 10.559-25.307zm-1.149 28.247c0.64087 0.63323-2.0739 16.413-10.695 22.005-9.076 5.8864-19.851 2.996-29.959 2.6552-6.4106-0.21637-20.256 1.9785-20.256 1.9785s11.251-4.9474 16.636-6.2838c8.3733-2.0785 16.757-2.0846 25.148-3.561 7.3986-1.3014 19.033-16.141 19.054-16.805 0.0276-0.01242 0.0519-0.0076 0.0726 0.01281zm-49.587-22.369c2.9356 7.1141 5.2312 12.336-0.14637 23.023-4.3425 5.331-9.2062 20.119-9.2062 20.119-0.31456-0.61122 0.45255-16.464 5.5819-23.893 3.2975-8.2197 3.3035-10.786 3.7717-19.249z" fill="url(#radialGradient958-5)" opacity=".69935"/>
 <path d="m42.415 227.36c3.3697-2.004 68.579-71.687 108.03-111.54 17.766-17.948 31.227-26.553 43.576-39.727 11.038-11.774-11.757-33.049-32.746-10.912l-21.135 32.429-106.84 122.32c-10.971 9.4897 0.41121 17.836 9.1177 7.43z" fill="url(#innoGrad1)" fill-rule="evenodd" stroke="#000000" stroke-width="1.2387"/>
 <g transform="rotate(45,187.28,100.09)" fill="#ff7f2a" fill-rule="evenodd">
  <path d="m162.77 278.76-2.1007-94.516-3.7033-68.788 2.1291 68.193zm4.0016 17.454-1.3025-44.948-2.0018-35.499 0.66872 36.282 2.6342 44.165z"/>
  <path d="m166.18 217.65c0.16263-24.777-2.2835-46.76-0.95106-74.172 0.68943-7.4395 2.0669-14.827 4.4845-22.117-2.7931 7.1616-4.4504 3.4185-5.5429 10.893-2.7068 24.333 1.7754 60.807 2.0088 85.396zm3.5299 57.799-0.0686-15.445-2.2048-41.502 1.1102 41.545zm-8.2285-134.77c0.16664-7.2627 0.33328-18.954 0.49992-21.788l-0.63427-11.203-0.54377 11.208z"/>
 </g>
 <g transform="rotate(45,187.28,100.09)" fill="#ffeeaa" stroke="#000000" stroke-width=".5">
  <rect transform="matrix(-.042669 -.99909 .99925 -.038612 0 0)" x="-104.78" y="138.59" width="11.549" height="34.06" ry="2.9804"/>
  <path d="m145.32 103.66c6.984 4.5741 28.706 10.637 28.517 8.4027-0.19778-2.3383 2.9575-9.7159 0.95782-9.8394-7.5214-0.4648-30.484-9.7652-32.218-10.101-1.4509-0.28083-0.58962 9.3549 2.7429 11.537z"/>
  <path d="m145.88 109.01-0.32552-3.3228c-0.16781-1.7128 0.1608-3.0854 1.7102-3.8346l26.368-12.75c1.5494-0.74918 2.9319 0.02662 3.0997 1.7395l0.32553 3.3228c0.1678 1.7129-0.94449 3.6949-2.4939 4.4441l-26.368 12.75c-1.5494 0.74919-2.1482-0.63614-2.316-2.349z"/>
  <path d="m142.93 84.094 1.4878-2.9888c0.76693-1.5407 2.7523-2.4981 4.4725-2.4427l26.067 0.83957c1.7202 0.05541 1.9015 1.4099 1.7037 3.1195l-0.3558 3.0759c-0.19776 1.7097 1.7669 5.0623 0.0554 4.8808l-31.727-3.3647c-1.7114-0.18151-2.4707-1.5788-1.7037-3.1195z"/>
 </g>
 <path d="m229.87 21.085s-7.1865 11.289-12.352 15.325c-10.155 7.9352-24.807 6.9629-34.347 15.684-9.4969 8.6814-23.888 30.904-18.959 32.974 2.5553 1.0733 9.2761-11.96 15.299-16.253 9.1691-6.5357 21.768-5.8259 30.199-13.384 10.02-8.9833 20.161-34.347 20.161-34.347zm-6.2197 20.474c0.20772-0.0065-8.8945 16.295-18.267 22.103-8.3089 5.1492-18.44 5.7025-26.431 11.429-4.5525 3.2626-15.092 8.1934-11.414 12.459 3.8469 4.4615 9.457-7.276 14.646-9.8907 8.5469-4.3069 18.871-3.317 26.591-9.2638 9.4199-7.2565 15.342-27.001 14.875-26.837zm2.0017 9.4495s-7.1871 15.16-13.601 20.205c-7.5136 5.9095-28.832 4.301-26.775 8.8537 1.3428 2.9717 23.53 3.4832 32.2-3.9329 6.9892-5.9786 8.1756-25.126 8.1756-25.126zm-19.425-14.659s-21.944-0.17253-30.242 6.2077c-8.0918 6.2228-17.796 22.572-12.189 26.003 5.4377 3.3273 9.819-16.072 17.125-21.651 7.4697-5.7042 25.307-10.559 25.307-10.559zm-28.247 1.149c-0.63323-0.64086-16.413 2.0739-22.005 10.695-5.8864 9.076-5.9514 24.284-5.6106 34.392 0.21638 6.4106-5.9895 10.649-0.99336 12.991 5.229 2.4505 6.9177-8.4187 8.2541-13.804 0.8111-7.682-0.19661-15.513 3.561-25.148 1.3014-7.3986 16.141-19.033 16.805-19.054 0.0124-0.02756 8e-3 -0.0519-0.0128-0.07261zm22.369 49.587c-7.1141-2.9356-12.336-5.2312-23.023 0.14637-5.331 4.3425-20.149 2.6102-20.119 9.2062 0.0242 5.3207 16.444-0.39153 23.893-5.5819 8.2197-3.2975 10.786-3.3035 19.249-3.7717z" fill="url(#radialGradient958)" opacity=".84031"/>
</svg>
