<?xml version="1.0" encoding="UTF-8"?>
<svg cursor="default" version="1.1" viewBox="0 0 256 256" xmlns="http://www.w3.org/2000/svg" xmlns:cc="http://creativecommons.org/ns#" xmlns:dc="http://purl.org/dc/elements/1.1/" xmlns:rdf="http://www.w3.org/1999/02/22-rdf-syntax-ns#" xmlns:xlink="http://www.w3.org/1999/xlink">
 <metadata>
  <rdf:RDF>
   <cc:Work rdf:about="">
    <dc:format>image/svg+xml</dc:format>
    <dc:type rdf:resource="http://purl.org/dc/dcmitype/StillImage"/>
    <dc:title/>
   </cc:Work>
  </rdf:RDF>
 </metadata>
 <defs>
  <linearGradient id="innoGrad1" x1="106.82" x2="196.31" y1="156.08" y2="54.078" gradientTransform="matrix(1.2387 0 0 1.2387 -99.689 36.694)" gradientUnits="userSpaceOnUse">
   <stop stop-color="#ff9955" offset="0"/>
   <stop stop-color="#ffb380" offset="1"/>
  </linearGradient>
 </defs>
 <path d="m42.415 227.36c3.3697-2.004 68.579-71.687 108.03-111.54 17.766-17.948 31.227-26.553 43.576-39.727 11.038-11.774-11.757-33.049-32.746-10.912l-21.135 32.429-106.84 122.32c-10.971 9.4897 0.41121 17.836 9.1177 7.43z" fill="url(#innoGrad1)" fill-rule="evenodd" stroke="#000000" stroke-width="1.2387"/>
 <g transform="rotate(45,187.28,100.09)" fill="#ff7f2a" fill-rule="evenodd">
  <path d="m162.77 278.76-2.1007-94.516-3.7033-68.788 2.1291 68.193zm4.0016 17.454-1.3025-44.948-2.0018-35.499 0.66872 36.282 2.6342 44.165z"/>
  <path d="m166.18 217.65c0.16263-24.777-2.2835-46.76-0.95106-74.172 0.68943-7.4395 2.0669-14.827 4.4845-22.117-2.7931 7.1616-4.4504 3.4185-5.5429 10.893-2.7068 24.333 1.7754 60.807 2.0088 85.396zm3.5299 57.799-0.0686-15.445-2.2048-41.502 1.1102 41.545zm-8.2285-134.77c0.16664-7.2627 0.33328-18.954 0.49992-21.788l-0.63427-11.203-0.54377 11.208z"/>
 </g>
 <g transform="rotate(45,187.28,100.09)" fill="#ffeeaa" stroke="#000000" stroke-width=".5">
  <rect transform="matrix(-.042669 -.99909 .99925 -.038612 0 0)" x="-104.78" y="138.59" width="11.549" height="34.06" ry="2.9804"/>
  <path d="m145.32 103.66c6.984 4.5741 28.706 10.637 28.517 8.4027-0.19778-2.3383 2.9575-9.7159 0.95782-9.8394-7.5214-0.4648-30.484-9.7652-32.218-10.101-1.4509-0.28083-0.58962 9.3549 2.7429 11.537z"/>
  <path d="m145.88 109.01-0.32552-3.3228c-0.16781-1.7128 0.1608-3.0854 1.7102-3.8346l26.368-12.75c1.5494-0.74918 2.9319 0.02662 3.0997 1.7395l0.32553 3.3228c0.1678 1.7129-0.94449 3.6949-2.4939 4.4441l-26.368 12.75c-1.5494 0.74919-2.1482-0.63614-2.316-2.349z"/>
  <path d="m142.93 84.094 1.4878-2.9888c0.76693-1.5407 2.7523-2.4981 4.4725-2.4427l26.067 0.83957c1.7202 0.05541 1.9015 1.4099 1.7037 3.1195l-0.3558 3.0759c-0.19776 1.7097 1.7669 5.0623 0.0554 4.8808l-31.727-3.3647c-1.7114-0.18151-2.4707-1.5788-1.7037-3.1195z"/>
 </g>
</svg>
