<?xml version="1.0" encoding="UTF-8"?>
<!-- Created with Inkscape (http://www.inkscape.org/) -->
<svg version="1.1" viewBox="0 0 256 256" xmlns="http://www.w3.org/2000/svg" xmlns:cc="http://creativecommons.org/ns#" xmlns:dc="http://purl.org/dc/elements/1.1/" xmlns:rdf="http://www.w3.org/1999/02/22-rdf-syntax-ns#" xmlns:xlink="http://www.w3.org/1999/xlink">
 <style>svg { cursor: default;}</style>
 <defs>
  <radialGradient id="radialGradient1022" cx="121.3" cy="941.71" r="49.776" gradientTransform="matrix(1.3497 -.15141 .30138 2.6864 -323.13 -1548.5)" gradientUnits="userSpaceOnUse">
   <stop stop-color="#ffaaaa" offset="0"/>
   <stop stop-color="#ffaaaa" stop-opacity="0" offset="1"/>
  </radialGradient>
 </defs>
 <metadata>
  <rdf:RDF>
   <cc:Work rdf:about="">
    <dc:format>image/svg+xml</dc:format>
    <dc:type rdf:resource="http://purl.org/dc/dcmitype/StillImage"/>
    <dc:title/>
   </cc:Work>
  </rdf:RDF>
 </metadata>
 <g transform="translate(0 -796.36)">
  <path d="m150.2 813.27 15.235 5.1986c45.93 22.036 67.732 159.84 20.71 212.03l-7.9111 6.1932-19.885-48.796-10.748-136.73z" fill="#ffaaaa" stroke="#000000" stroke-width=".99947px"/>
  <path d="m112.39 820.85c5.209-3.4814 12.075-8.3592 20.594-10.076l21.012 0.30806c38.586 22.722 48.861 70.247 52.686 113.55 3.6226 41.004-1.7228 89.683-28.698 112.53l-15.698 1.7464c-23.823-0.9401-31.137-11.011-40.439-19.985l21.92 8.1317 17.678-5.6568 19.092-35.355 2.1213-59.751-8.8388-48.083-17.678-35.709-17.678-16.263-14.849-6.0104z" fill="#ff8080"/>
  <path d="m135.96 1037.7 30-4.625c23.843-26.627 28.08-58.231 27.437-92.802-0.93957-50.474-19.557-113.6-55.812-127.07l-28.134 2.3447-4.8232 2.0518c21.567 35.069 48.719 66.364 46.875 117.25 3.1008 39.779-6.4587 72.207-24 100z" fill="#ffb380" stroke="#000000" stroke-width="1px"/>
  <path d="m126.93 848.01c-7.0081 11.228-20.711 29.772-15.203 77.075 7.1536 61.428 23.192 70.279 33.941 82.024l-33.234 31.466c-54.809-17.72-59.583-66.113-65.761-107.13-3.3124-60.095 7.6555-107.95 45.962-112.43z" fill="#ff2a2a" stroke="#000000" stroke-width="1px"/>
  <path d="m140.36 822.91-27.969-2.0595 18.108 20.266 21.174 14.851z" fill="#ff7f2a"/>
  <path d="m140.36 822.91-16.173-8.1688-18.938 1.6875 7.1416 4.4219z" fill="#ff9955"/>
  <g>
   <path d="m126.79 847.58c-7.0081 11.228-20.711 29.772-15.203 77.075 7.1536 61.428 23.192 70.279 33.941 82.024l-33.234 31.466c-54.809-17.72-59.583-66.113-65.761-107.13-3.3124-60.095 7.6555-107.95 45.962-112.43z" fill="url(#radialGradient1022)"/>
   <path d="m167 962.61-12.625 44.375-0.25-34.75 7.875-38.75z" fill="#ff7f2a"/>
   <path d="m145.18 1035.7-12.522 1.9314 10.975-21.287 31.024-26.251z" fill="#ff9955"/>
  </g>
  <path d="m151.67 855.96-1.7678 22.981 19.799 31.82 1.9445-35.355z" fill="#ffe6d5"/>
  <path d="m169.71 910.76-7.7056 22.723-12.093-54.543z" fill="#ff9955"/>
  <path d="m69.031 825.29c5.209-3.4814 12.075-8.3592 20.594-10.076l17.678-1.149c38.586 22.722 50.445 71.954 54.27 115.26 3.6226 41.004-2.7228 89.933-29.698 112.78l-12.948 1.2464c-23.823-0.9401-31.137-11.011-40.439-19.985l21.92 8.1317 17.678-5.6568 19.092-35.355 2.1213-59.751-8.8388-48.083-17.678-35.709-17.678-16.263-14.849-6.0104z" fill="#ff8080" stroke="#000000" stroke-width="1px"/>
  <path d="m119.85 1043.1c32.428-26.003 34.763-66.161 33.045-114.14-1.8953-52.93-28.878-109.54-63.627-113.81-6.5397 1.9622-12.455 4.3077-18.915 9.0156l1.4142 3.0052c41.51-5.4874 60.55 49.317 66.645 104.48 1.7412 45.831-0.0505 88.221-33.588 99.702-9.7254-1.5924-19.149-4.3325-27.224-12.198l-0.17678 2.8284c12.043 14.41 26.883 21.548 42.426 21.125z" fill="#ff5555"/>
  <path transform="translate(0 796.36)" d="m81.342 25.365c-1.2609-0.015795-2.5074 0.080603-3.7383 0.29102-30.337 5.1859-35.27 71.854-32.562 104.73 2.4402 29.629 11.628 96.442 54.086 108.22 20.44 5.6724 48.105-24.538 43.047-102.59-4.1447-63.96-35.193-110.34-60.832-110.66zm-0.11719 7.3652c23.228 0.299 51.356 43.478 55.111 103.02 4.5821 72.657-20.482 100.78-39 95.5-38.466-10.969-46.789-73.167-49-100.75-2.4534-30.609 2.0152-92.672 29.5-97.5 1.1152-0.19588 2.2463-0.28424 3.3887-0.26953z" fill="#ff2a2a" stroke="#000000" stroke-width="1.0889px"/>
  <g fill="none" stroke="#000000" stroke-width="1px">
   <path d="m66.562 827.11c5.368-5.3016 11.66-10.429 25.312-12.125" stroke-linecap="round" stroke-linejoin="round"/>
   <path d="m77.517 1022.4c12.074 15.7 29.783 21.952 43.31 20.771" stroke-linecap="round" stroke-linejoin="round"/>
   <path d="m165.82 1038.7 12.162-1.5696 8.1646-6.671"/>
   <path d="m138.01 810.74 16.283 0.51945 11.466 7.342" stroke-linecap="round" stroke-linejoin="round"/>
  </g>
  <path d="m96.5 818.11c60.782 33.214 62.994 135.63 46.25 191.25-0.54494 1.7436-0.26744 2.9938 0 4.25 1.1174-0.7197 2.0863-0.8451 4-4.75 16.775-62.904 9.5472-160.99-45.75-192.25-1.809-0.32694-3.7685-0.69151-6.3245-0.48483-0.22101 0.67914 0.99533 1.189 1.8245 1.9848z" fill="#ffd5d5"/>
  <path d="m134.69 1024.7c-1.271 1.3119-2.6044 3.9369-4.3338 6.3125s-3.8535 4.4996-5.5621 6.1249c-1.7086 1.6253-2.9997 2.7498-3.0617 3.3127-0.0621 0.563 1.1036 0.563 2.8318-0.5199 1.7282-1.0829 4.0218-3.2514 6.0006-5.3135 1.9788-2.0622 3.6462-4.0214 4.8958-5.8751 1.2496-1.8537 2.0834-3.6047 1.8965-4.4791s-1.396-0.8744-2.6671 0.4375z" fill="#ffd5d5"/>
  <path d="m171.65 875.41 3.182-25.986-34.471-26.516 11.314 33.057z" fill="#ffffff"/>
  <path d="m140.36 822.91-16.173-8.1688 13.188-0.9375 5.6875 0.4375-0.1875 1.6875z" fill="#ffffff"/>
  <path d="m140.36 822.91 2.8893-8.2938 18.25 9.375 13.332 25.435z" fill="#ffccaa"/>
  <g>
   <path d="m161.5 823.99c16.156 15.909 14.873 8.8556 22 12.875 6.3413 7.1786 9.0444 15.641 12.75 23.75-0.54414 6.7519-9.2846 1.982-6.3125 18.625-2.887-11.034-6.8802-21.343-12.75-33-4.3183-8.5759-9.3514-15.28-15.688-22.25z" fill="#ffd5d5"/>
   <path d="m207.42 945.11c-0.49984 0.9165-1.0832 4.8332-1.5416 9.4173s-0.79167 9.8326-1.5 15.542c-0.70837 5.7089-1.7915 11.874-2.3332 16.208-0.54177 4.3336-0.54177 6.8332 0.0837 6.1656 0.62544-0.66754 1.8749-4.4993 2.958-9.9565 1.0831-5.4572 2-12.543 2.5833-18.501 0.58327-5.9579 0.8333-10.792 0.74991-14.25-0.0834-3.458-0.50015-5.5418-0.99999-4.6253z" fill="#ffd5d5"/>
   <path d="m145.18 1035.7 29.477-45.607-9.0156 42.603z" fill="#ffccaa"/>
  </g>
  <path d="m174.66 990.14 16.44-2.2097-11.137 30.582z" fill="#ffe6d5"/>
  <path d="m174.66 990.14 13.22-47.9 1.2188 46.688z" fill="#ffccaa"/>
  <path d="m174.66 990.14 13.22-47.9 1.2188 46.688z" fill="#ffffff"/>
  <path d="m187.88 942.24 5.5187 2.2912 1.9446 24.926-6.2445 19.471z" fill="#ffe6d5"/>
  <path d="m171.65 875.41 3.182-25.986 10.418 26.44z" fill="#ff7f2a"/>
  <path d="m171.65 875.41 13.6 0.45347 9.75 41-6.3793-3.6233z" fill="#ffccaa"/>
  <path transform="translate(0 796.36)" d="m138.02 14.32c-5.4847 0.53545-12.307 0.4049-18.357 4.0254l17.916-1.4922c36.255 13.475 54.873 76.596 55.812 127.07 0.64354 34.571-3.5943 66.176-27.438 92.803l-21.807 3.3613c5.9036 2.5544 13.065 1.8024 21.674 2.2832 11.065-7.2736 37.927-39.331 31.105-113.3-5.4019-58.572-26.229-105.13-58.906-114.75z" fill="#ff2a2a" stroke="#000000" stroke-width="1px"/>
  <path d="m174.66 990.14-7.6554-27.525 20.875-20.375z" fill="#ff9955"/>
  <path d="m187.88 942.24-18.169-31.473 1.9445-35.355 16.971 37.83z" fill="#ff7f2a"/>
  <path d="m169.71 910.76-2.7056 51.848 20.875-20.375z" fill="#ffccaa"/>
 </g>
</svg>
