<?xml version="1.0" encoding="UTF-8" standalone="no"?>
<svg
   xmlns:dc="http://purl.org/dc/elements/1.1/"
   xmlns:cc="http://creativecommons.org/ns#"
   xmlns:rdf="http://www.w3.org/1999/02/22-rdf-syntax-ns#"
   xmlns:svg="http://www.w3.org/2000/svg"
   xmlns="http://www.w3.org/2000/svg"
   xmlns:sodipodi="http://sodipodi.sourceforge.net/DTD/sodipodi-0.dtd"
   xmlns:inkscape="http://www.inkscape.org/namespaces/inkscape"
   version="1.1"
   viewBox="0 0 64 64"
   id="svg3310"
   sodipodi:docname="Raptor_crimson_mixture V.svg"
   inkscape:version="1.0.1 (3bc2e813f5, 2020-09-07)">
  <metadata
     id="metadata3316">
    <rdf:RDF>
      <cc:Work
         rdf:about="">
        <dc:format>image/svg+xml</dc:format>
        <dc:type
           rdf:resource="http://purl.org/dc/dcmitype/StillImage" />
        <dc:title></dc:title>
      </cc:Work>
    </rdf:RDF>
  </metadata>
  <defs
     id="defs3314" />
  <sodipodi:namedview
     pagecolor="#ffffff"
     bordercolor="#666666"
     borderopacity="1"
     objecttolerance="10"
     gridtolerance="10"
     guidetolerance="10"
     inkscape:pageopacity="0"
     inkscape:pageshadow="2"
     inkscape:window-width="1366"
     inkscape:window-height="715"
     id="namedview3312"
     showgrid="false"
     inkscape:zoom="55.110591"
     inkscape:cx="31.758538"
     inkscape:cy="8.9955141"
     inkscape:window-x="-8"
     inkscape:window-y="-8"
     inkscape:window-maximized="1"
     inkscape:current-layer="svg3310"
     inkscape:document-rotation="0" />
  <g
     transform="matrix(1.6289 -9.4919e-6 9.4919e-6 1.6289 -183.07 -64.124)"
     fill="#7d7d7d"
     stroke="#000"
     stroke-width=".24557"
     id="g3264" />
  <g
     fill-rule="evenodd"
     id="g3276"
     style="fill:#800000">
    <path
       d="m 26,54 c 2,6 10,6 12,0 V 19 C 26,16 38,17 26,14 Z"
       fill="#ff1ae6"
       fill-opacity="0.953"
       stroke-width="1.6289"
       id="path3268"
       style="fill:#800000"
       sodipodi:nodetypes="ccccc" />
    <path
       style="fill:#f5f5f5;stroke:#000000;stroke-width:0.1;stroke-linecap:butt;stroke-linejoin:miter;stroke-miterlimit:4;stroke-dasharray:none;stroke-opacity:1"
       d="m 26,6 c 1.692214,0.3737268 2.965582,0.9407669 6.000803,0.6946439 C 36.883622,6.6937429 36.411678,6.2644608 38,6 36.040588,5.8219167 34.891521,5.243636 32.008598,5.2867237 29.891637,5.3288917 27.861016,5.5190701 26,6"
       id="path893"
       sodipodi:nodetypes="ccccc" />
    <path
       d="m 37.971914,12.20634 c 0.0099,-1.045039 -2.394962,-1.617679 -5.308042,-1.353822 L 38,10 Z"
       fill="#fff"
       stroke-width="1.6289"
       id="path3272"
       style="fill:#d3d3d3"
       sodipodi:nodetypes="cccc" />
    <path
       d="m 26,6 c -2,1 -2,3 0,4 v 44 c 2,6 10,6 12,0 V 10 C 40,9 40,7 38,6 35,5 29,5 26,6 Z"
       fill="#d5f6ff"
       fill-opacity="0.477"
       stroke="#000000"
       stroke-width="0.4"
       id="path3270"
       style="fill:none;stroke-width:0.4;stroke-miterlimit:4;stroke-dasharray:none"
       sodipodi:nodetypes="ccccccc" />
  </g>
  <g
     fill="#ff1d5c"
     fill-rule="evenodd"
     id="g3302">
    <g
       transform="matrix(1.6289 -9.4919e-6 9.4919e-6 1.6289 -183.07 -64.124)"
       id="g3284" />
    <g
       transform="matrix(1.6289 -9.4919e-6 9.4919e-6 1.6289 -183.07 -64.124)"
       id="g3292" />
    <g
       transform="matrix(1.6289 -9.4919e-6 9.4919e-6 1.6289 -183.07 -64.124)"
       id="g3300" />
  </g>
  <path
     style="fill:none;stroke:#000000;stroke-width:0.2;stroke-linecap:butt;stroke-linejoin:miter;stroke-miterlimit:4;stroke-dasharray:none;stroke-opacity:1"
     d="m 26,6 c 3,1 9,1 12,0"
     id="path877"
     sodipodi:nodetypes="cc" />
  <path
     style="fill:none;stroke:#000000;stroke-width:0.4;stroke-linecap:butt;stroke-linejoin:miter;stroke-miterlimit:4;stroke-dasharray:none;stroke-opacity:1"
     d="m 26,10 c 3,1 9,1 12,0"
     id="path879"
     sodipodi:nodetypes="cc" />
</svg>
