<?xml version="1.0" encoding="UTF-8" standalone="no"?>
<svg
   xmlns:dc="http://purl.org/dc/elements/1.1/"
   xmlns:cc="http://creativecommons.org/ns#"
   xmlns:rdf="http://www.w3.org/1999/02/22-rdf-syntax-ns#"
   xmlns:svg="http://www.w3.org/2000/svg"
   xmlns="http://www.w3.org/2000/svg"
   xmlns:sodipodi="http://sodipodi.sourceforge.net/DTD/sodipodi-0.dtd"
   xmlns:inkscape="http://www.inkscape.org/namespaces/inkscape"
   version="1.1"
   viewBox="0 0 64 64"
   id="svg5340"
   sodipodi:docname="Sergal_otherworldly_draught.svg"
   inkscape:version="1.0.1 (3bc2e813f5, 2020-09-07)">
  <metadata
     id="metadata5344">
    <rdf:RDF>
      <cc:Work
         rdf:about="">
        <dc:format>image/svg+xml</dc:format>
        <dc:type
           rdf:resource="http://purl.org/dc/dcmitype/StillImage" />
        <dc:title />
      </cc:Work>
    </rdf:RDF>
  </metadata>
  <sodipodi:namedview
     pagecolor="#ffffff"
     bordercolor="#666666"
     borderopacity="1"
     objecttolerance="10"
     gridtolerance="10"
     guidetolerance="10"
     inkscape:pageopacity="0"
     inkscape:pageshadow="2"
     inkscape:window-width="1366"
     inkscape:window-height="715"
     id="namedview5342"
     showgrid="false"
     inkscape:zoom="17.911313"
     inkscape:cx="32"
     inkscape:cy="29.034355"
     inkscape:window-x="-8"
     inkscape:window-y="-8"
     inkscape:window-maximized="1"
     inkscape:current-layer="svg5340"
     inkscape:document-rotation="0" />
  <defs
     id="defs5308">
    <linearGradient
       id="linearGradient855"
       x1="18.847"
       x2="38.508"
       y1="57.831"
       y2="30.576"
       gradientUnits="userSpaceOnUse">
      <stop
         stop-color="#fceeb8"
         offset="0"
         id="stop5303" />
      <stop
         stop-color="#fdf1c5"
         offset="1"
         id="stop5305" />
    </linearGradient>
  </defs>
  <path
     d="m17.577 55.571c0.0022 3.049 1.5279 5.3394 4.0775 6.0551 7.4433 0.97362 13.537 0.58532 19.473 0.07014 3.3763-0.54803 4.5643-3.6798 4.5909-6.261l0.30992-30.663c-7.3671 0.48134-15.616-8.4639-25.618-8.626-1.3024 1.5917-2.3411 3.4284-2.8455 5.7663z"
     fill="url(#linearGradient855)"
     fill-rule="evenodd"
     stroke-width="1.4071"
     id="path5310"
     style="fill:#6a5acd" />
  <g
     stroke="#000000"
     id="g5318">
    <path
       d="m 26,7.959962 v 1.8613 c 0.0068,1.6761 -8.40823,6.565 -8.41083,13.208 L 17.577,55.571 c -6.44e-4,3.0482 1.5279,5.3394 4.0775,6.0551 7.3946,0.76375 13.382,0.65316 19.473,0.07014 3.3763,-0.54803 4.5643,-3.6798 4.5909,-6.261 l 0.32738,-32.419 C 46.10305,17.28704 38.0118,11.15124 38,9.84124 V 8.02034 C 38.90377,8.053332 38.995,5.98 38,6 H 26 c -1.0745,0.098213 -0.85101,1.972762 0,1.959962 z"
       fill="#d7eef4"
       fill-opacity="0.251"
       fill-rule="evenodd"
       stroke-width="0.4"
       id="path5312"
       sodipodi:nodetypes="ccccccccccccc" />
  </g>
  <g
     fill-rule="evenodd"
     id="g5334">
    <path
       d="m38.527 15.78c1.817 1.1487 3.135 2.907 3.9927 4.7342 0.31923 0.4703 0.60889 0.95702 0.86762 1.4495 1.1733 2.2438 1.6896 4.61 1.4361 6.0698 0.57464-1.4163 0.39255-3.9328-0.55743-6.461-0.2075-0.55397-0.45385-1.1103-0.73808-1.6569-1.2908-1.7915-2.982-3.3243-5.0009-4.1356z"
       fill="#fff"
       stroke-width="1.4071"
       id="path5332" />
  </g>
</svg>
