<?xml version="1.0" encoding="UTF-8"?>
<svg cursor="default" version="1.1" viewBox="0 0 256 256" xmlns="http://www.w3.org/2000/svg" xmlns:cc="http://creativecommons.org/ns#" xmlns:dc="http://purl.org/dc/elements/1.1/" xmlns:rdf="http://www.w3.org/1999/02/22-rdf-syntax-ns#">
 <metadata>
  <rdf:RDF>
   <cc:Work rdf:about="">
    <dc:format>image/svg+xml</dc:format>
    <dc:type rdf:resource="http://purl.org/dc/dcmitype/StillImage"/>
    <dc:title/>
   </cc:Work>
  </rdf:RDF>
 </metadata>
 <g transform="matrix(.41963 0 0 .41963 -46.123 -251.6)" fill="#ffd5d5">
  <path d="m153.54 767.5 20.708 63.64 136.88 17.173c-0.77936 4.5696-1.9642 8.8014 0 15.657l-124.75 11.617 25.254 48.992 101.52-38.386c1.2112 5.3208 2.9536 10.243 6.0609 14.142l-77.782 57.579 35.86 24.244 52.528-63.135c3.2614 3.5328 5.7056 7.4157 12.122 9.5964l-28.284 63.135 33.84 7.5761 11.617-60.104c22.628 8.4769 36.712-23.625 15.152-31.82-44.704-15.066-57.953-50.412-30.305-112.13-9.5066 7.0349-18.645 15.817-26.264 31.82z"/>
  <path d="m414.42 748.81-79.784 123.96h79.784l-40.534-61.554h81.018zm40.484 62.406-40.484 61.562h80.703z"/>
  <path d="m362.14 1051.4 5.0508-16.92h-29.8l8.5863 22.981-30.81-24.244c-6.0308-4.7394-6.2571-9.8589 1.5152-9.5964h39.901l15.657-34.345c5.0095-10.165 22.489-4.2588 16.162 8.0812l-16.668 26.264h7.5761c6.4854-0.2161 6.8699 5.8992 3.0305 9.5964z"/>
  <path d="m414.16 1058.9-17.678-47.84c3.8868-5.9659 6.5324-14.51 6.0609-29.527-7.6243-9.9163-17.01-14.195-26.264-18.897 7.2537-6.7299 15.017-14.091 17.173-25.543 1.781-10.323 6.4802-18.626 12.627-25.927l8.0812-23.486 7.5761 23.486c6.672 7.2603 11.165 15.973 13.797 25.927 2.4595 10.359 8.6135 18.544 16.786 25.543-9.3048 5.3705-19.621 8.8453-26.429 18.897-2.2292 11.569 0.34607 20.976 4.8214 29.527z"/>
  <path d="m676.34 767.5-20.708 63.64-136.88 17.173c0.77936 4.5696 1.9642 8.8014 0 15.657l124.75 11.617-25.254 48.992-101.52-38.386c-1.2112 5.3208-2.9536 10.243-6.0609 14.142l77.782 57.579-35.86 24.244-52.528-63.135c-3.2614 3.5328-5.7056 7.4157-12.122 9.5964l28.284 63.135-33.84 7.5761-11.617-60.104c-22.628 8.4769-36.712-23.625-15.152-31.82 44.704-15.066 57.953-50.412 30.305-112.13 9.5066 7.0349 18.645 15.817 26.264 31.82z"/>
  <path d="m466.92 1051.4-5.0508-16.92h29.8l-8.5863 22.981 30.81-24.244c6.0308-4.7394 6.2571-9.8589-1.5152-9.5964h-39.901l-15.657-34.345c-5.0095-10.165-22.489-4.2588-16.162 8.0812l16.668 26.264h-7.5761c-6.4854-0.2161-6.8699 5.8992-3.0305 9.5964z"/>
 </g>
</svg>
