<?xml version="1.0" encoding="UTF-8" standalone="no"?>
<!-- Created with Inkscape (http://www.inkscape.org/) -->

<svg
   xmlns:dc="http://purl.org/dc/elements/1.1/"
   xmlns:cc="http://creativecommons.org/ns#"
   xmlns:rdf="http://www.w3.org/1999/02/22-rdf-syntax-ns#"
   xmlns:svg="http://www.w3.org/2000/svg"
   xmlns="http://www.w3.org/2000/svg"
   xmlns:sodipodi="http://sodipodi.sourceforge.net/DTD/sodipodi-0.dtd"
   xmlns:inkscape="http://www.inkscape.org/namespaces/inkscape"
   viewBox="0 0 256 256"
   id="svg4164"
   version="1.1"
   inkscape:version="0.92.3 (2405546, 2018-03-11)"
   sodipodi:docname="Strange_Script.svg">
  <style
     id="style3">
    svg { cursor: default;}
  </style>
  <defs
     id="defs4166">
    <inkscape:path-effect
       effect="powerstroke"
       id="path-effect4242"
       is_visible="true"
       offset_points="0.22358219,-0.72791312"
       sort_points="true"
       interpolator_type="Linear"
       interpolator_beta="0.2"
       start_linecap_type="zerowidth"
       linejoin_type="round"
       miter_limit="4"
       end_linecap_type="zerowidth"
       cusp_linecap_type="round" />
    <inkscape:path-effect
       effect="powerstroke"
       id="path-effect4238"
       is_visible="true"
       offset_points="0.14544937,2.3549562"
       sort_points="true"
       interpolator_type="Linear"
       interpolator_beta="0.2"
       start_linecap_type="zerowidth"
       linejoin_type="round"
       miter_limit="4"
       end_linecap_type="zerowidth"
       cusp_linecap_type="round" />
    <inkscape:path-effect
       effect="powerstroke"
       id="path-effect4255"
       is_visible="true"
       offset_points="0.088828796,0.39810203"
       sort_points="true"
       interpolator_type="Linear"
       interpolator_beta="0.2"
       start_linecap_type="zerowidth"
       linejoin_type="round"
       miter_limit="4"
       end_linecap_type="zerowidth"
       cusp_linecap_type="round" />
    <inkscape:path-effect
       effect="powerstroke"
       id="path-effect4203"
       is_visible="true"
       offset_points="0.81276062,-1.286815"
       sort_points="true"
       interpolator_type="Linear"
       interpolator_beta="0.2"
       start_linecap_type="zerowidth"
       linejoin_type="round"
       miter_limit="4"
       end_linecap_type="zerowidth"
       cusp_linecap_type="round" />
    <inkscape:path-effect
       effect="powerstroke"
       id="path-effect4199"
       is_visible="true"
       offset_points="0.28308433,1.1604326"
       sort_points="true"
       interpolator_type="Linear"
       interpolator_beta="0.2"
       start_linecap_type="zerowidth"
       linejoin_type="round"
       miter_limit="4"
       end_linecap_type="zerowidth"
       cusp_linecap_type="round" />
    <marker
       inkscape:stockid="Arrow1Lstart"
       orient="auto"
       refY="0.0"
       refX="0.0"
       id="Arrow1Lstart"
       style="overflow:visible"
       inkscape:isstock="true">
      <path
         id="path4233"
         d="M 0.0,0.0 L 5.0,-5.0 L -12.5,0.0 L 5.0,5.0 L 0.0,0.0 z "
         style="fill-rule:evenodd;stroke:#000000;stroke-width:1pt;stroke-opacity:1;fill:#000000;fill-opacity:1"
         transform="scale(0.8) translate(12.5,0)" />
    </marker>
    <inkscape:path-effect
       effect="powerstroke"
       id="path-effect4203-4"
       is_visible="true"
       offset_points="0.45408377,-0.95413935"
       sort_points="true"
       interpolator_type="Linear"
       interpolator_beta="0.2"
       start_linecap_type="zerowidth"
       linejoin_type="round"
       miter_limit="4"
       end_linecap_type="zerowidth"
       cusp_linecap_type="round" />
    <inkscape:path-effect
       effect="powerstroke"
       id="path-effect4199-7"
       is_visible="true"
       offset_points="0.88158867,1.1916301"
       sort_points="true"
       interpolator_type="Linear"
       interpolator_beta="0.2"
       start_linecap_type="zerowidth"
       linejoin_type="round"
       miter_limit="4"
       end_linecap_type="zerowidth"
       cusp_linecap_type="round" />
  </defs>
  <sodipodi:namedview
     id="base"
     pagecolor="#ffffff"
     bordercolor="#666666"
     borderopacity="1.0"
     inkscape:pageopacity="0.0"
     inkscape:pageshadow="2"
     inkscape:zoom="2.8284272"
     inkscape:cx="154.60278"
     inkscape:cy="123.88867"
     inkscape:document-units="px"
     inkscape:current-layer="layer1"
     showgrid="false"
     units="px"
     inkscape:window-width="1920"
     inkscape:window-height="1017"
     inkscape:window-x="1912"
     inkscape:window-y="-8"
     inkscape:window-maximized="1" />
  <metadata
     id="metadata4169">
    <rdf:RDF>
      <cc:Work
         rdf:about="">
        <dc:format>image/svg+xml</dc:format>
        <dc:type
           rdf:resource="http://purl.org/dc/dcmitype/StillImage" />
        <dc:title />
      </cc:Work>
    </rdf:RDF>
  </metadata>
  <g
     inkscape:groupmode="layer"
     id="layer2"
     inkscape:label="Layer 2"
     style="display:inline" />
  <g
     inkscape:label="Layer 1"
     inkscape:groupmode="layer"
     id="layer1"
     transform="translate(0,-796.36219)"
     style="display:inline">
    <g
       id="g886"
       word-spacing="0px"
       letter-spacing="0px"
       transform="matrix(-4.0815228,0,0,1.5285743,590.59961,762.53046)"
       style="letter-spacing:0px;word-spacing:0px;fill:#ff2a2a;fill-opacity:1;stroke:#000000;stroke-opacity:0.07843138">
      <path
         style="font-style:normal;font-variant:normal;font-weight:normal;font-stretch:normal;font-size:7.14891386px;line-height:1.25;-inkscape-font-specification:'&quot; R &quot; lyehian &quot;, &quot; Normal';font-variant-ligatures:normal;font-variant-caps:normal;font-variant-numeric:normal;font-feature-settings:normal;text-align:start;writing-mode:lr-tb;text-anchor:start;fill:#ff2a2a;fill-opacity:1;stroke:#000000;stroke-width:0.26458001;stroke-opacity:0.07843137"
         d="m 84.273718,85.597571 c -0.544391,-0.664586 -0.577278,1.06077 0,0 z m 1.801191,0.111702 c -0.843002,-0.620184 -0.432587,0.811043 0,0 z m 1.319478,-0.06981 c -0.458414,-0.759821 -0.901247,0.749328 0,0 z m 1.228719,0.08378 c -0.334602,-1.568265 -1.275944,1.04814 0,0 z m 1.298533,-3.316147 c -0.261714,2.335981 0.111618,4.928673 -0.09776,7.197793 -1.557538,0.125808 0.347848,-2.176818 -0.460789,-2.848417 -0.415309,-1.971977 -1.643728,1.434106 -1.947818,0.118648 1.321893,-0.753711 -0.591162,-1.205998 -1.16589,-0.691169 -1.242959,0.106136 -1.335319,-0.743207 -2.562155,-0.139606 -0.275155,-1.274744 1.696261,-0.453217 2.541219,-0.60737 0.95391,-0.08882 0.455029,-1.023023 -0.104716,-0.544562 1.141098,-0.52652 -0.297754,-0.560104 -0.460771,1.1e-5 -1.272788,0.201195 -0.169947,-0.543104 0.886644,-0.809824 0.273454,0.127166 0.784088,0.292753 0.914574,0.614358 -1.398428,0.01373 0.903392,1.162207 0.774899,0.05584 0.01687,-0.875406 0.562387,0.463618 0.935519,0.328112 0.557907,-0.625044 -0.893492,-3.137773 0.747044,-2.673818 z m -0.04887,-7.148921 c -0.202951,1.094845 0.07052,2.375762 -0.15357,3.595408 -0.09303,0.989536 0.786006,3.369884 -0.272257,3.56749 0.234715,-2.056742 -1.915964,-2.685581 -3.811841,-1.556855 -0.512962,2.163913 -1.244556,-0.834341 1.3e-5,-2.017611 -0.466169,-0.862811 -0.753926,-2.263637 0.621344,-3.0718 1.593961,0.312024 -2.486711,1.880839 0.06283,2.694826 -0.03492,-1.724517 1.159255,-0.670108 0.02792,0.383969 -2.302369,1.340766 0.26391,2.139981 1.717405,0.991353 2.040019,1.036266 1.303715,-1.881817 1.082124,-3.127631 0.251165,-0.500798 -0.509666,-2.047636 0.726035,-1.459149 z m -0.139627,0.07679 c 0.06891,-0.04406 0.37783,-0.160708 0,0 z m 0.139627,-7.225708 c -0.280628,2.298807 0.248524,5.10902 -0.146621,7.218723 -0.43986,-1.272422 -1.801618,-0.735452 -3.693117,-0.09074 -1.09825,-1.133768 0.800562,0.217384 0.767953,-1.019248 -1.169471,-1.421765 -0.314358,-0.544873 0.272232,-0.530563 -0.01993,-1.715528 -1.003861,-4.570915 0.82379,-5.578089 0.359945,0.910265 -1.684546,3.05386 -0.411913,5.047536 0.784933,2.988263 0.139265,-1.98242 0.474764,-2.946142 1.025591,-1.308036 -0.618056,3.676846 1.144945,2.59009 -0.09544,3.485296 0.580223,-3.255096 0.09775,-4.691474 l 0.314161,-0.181516 0.35605,0.181516 z m -3.909562,-4.014284 c 0.169632,1.091864 -0.56587,1.306382 -0.76793,0.544542 0.957187,-0.638497 0.287207,-2.369252 0.174517,-0.89363 -1.640349,-0.988587 1.571502,-1.69702 0.649281,0.146632 l -0.05585,0.202459 z m 1.326458,0.865689 c 0.823381,1.620739 -1.538576,-0.267071 -0.5655,-0.139631 0.07885,0.387789 0.435326,0.551295 0.5655,0.139631 z m 2.618011,-4.00032 c -0.09522,2.312537 -0.08572,4.80648 -0.02791,7.148923 -0.804805,0.151058 -1.316359,-1.909498 -2.101374,-0.125654 -0.915582,-0.739497 0.662174,-2.209803 -0.02094,-3.260309 -1.152547,-0.552579 0.265559,0.124262 0.07675,-0.628346 0.64298,-0.676631 -1.237663,-1.007953 -0.251348,-0.900616 0.869721,-0.200134 -0.763199,-1.919146 -0.83082,-0.516655 0.83153,1.133617 -1.530366,-0.791057 0.300186,-1.061151 1.530482,-0.571828 0.754875,2.269594 1.71046,1.340425 1.121747,0.448009 -0.774182,0.316005 -0.481713,1.054168 -0.08847,0.614381 1.473855,0.550745 0.356032,0.900553 -1.860654,0.581839 0.746438,3.029694 0.788902,0.712096 -0.01701,-1.572498 0.179225,-3.124982 -0.23037,-4.663543 0.233508,0.02686 0.495031,-0.07862 0.712141,1.09e-4 z m -0.09774,-0.01396 c -2.205337,0.05972 -5.965208,-0.416064 -6.534554,-2.827462 0.01431,-2.560931 0.30139,-2.047951 0.453817,0.28624 0.9821,2.000765 3.901965,1.922068 5.843401,2.143282 l 0.237367,0.188497 v 0.20944 z m 0.10472,-7.037212 c -0.140924,2.268155 0.0666,4.903404 -0.111662,7.037206 -1.848574,0.299163 0.531399,-2.604748 -0.949486,-2.904277 -1.047904,-0.388191 -1.715909,0.106807 -1.843085,-0.670197 -1.270068,-0.720809 -1.347132,0.580853 0.06283,0.586433 -0.96299,0.997888 -0.0027,-0.217254 -1.361379,-0.09773 -2.019354,-0.387676 0.712961,1.568452 1.689491,1.256646 -1.017041,0.05453 -2.738115,-0.146367 -3.169537,-1.012315 0.169975,-0.795446 2.101128,-1.690451 1.186829,-2.045597 -0.344801,0.632854 -0.753926,1.672969 -2.05251,0.698116 0.187067,-0.03051 1.493871,-0.516566 2.275927,-0.991344 0.203741,1.302603 1.943458,0.131033 1.172867,-0.41889 -0.839871,0.323001 -0.001,0.03787 -0.991342,-0.279263 -0.300471,-0.291828 -1.423861,-0.188779 -0.586454,-0.41889 0.531027,-0.08785 1.266541,0.678326 1.591744,-0.23735 0.630183,-0.332718 0.539502,0.44506 -0.167546,0.642324 1.333401,-0.175472 1.833091,0.625124 0.265292,1.186824 -1.014243,0.133651 0.570428,1.301639 0.579489,0.600414 0.06276,-0.811676 1.403426,0.09757 0.328121,0.167589 -1.038193,0.428365 1.968837,1.195574 1.047216,0.06981 -0.543599,0.854773 -0.692816,-0.299181 0.439849,-0.363028 0.222834,-0.843072 -0.530695,-2.528855 0.258317,-2.806523 0.11137,0.0036 0.228875,-0.06492 0.335024,4.8e-5 z m -3.560494,-6.045859 c -1.013822,0.341376 0.221835,-1.102847 0,0 z m 0.404919,0.467751 c -1.502645,0.582071 -0.312165,-0.580234 4e-6,1.4e-5 z m 0.02792,0.572472 c -1.575064,0.34978 -0.268179,-0.709824 9e-6,-8e-6 z m -0.272273,2.757637 c -0.405089,-1.357102 1.343776,-3.488931 -0.174549,-4.314523 -1.278047,-0.122385 0.04688,2.651332 -1.144923,1.626666 -1.827345,-0.556591 0.25792,3.272548 0.733033,0.900596 0.799393,0.356782 -0.945011,2.120118 0.586439,1.787261 z m -0.628322,1.144944 c -1.113673,0.261612 1.108228,0.829157 2.4e-5,-8e-6 z m 0.370012,-0.300199 c -1.001261,0.336941 0.334255,0.459366 0,0 z m 0.300198,-0.439826 c -2.01848,0.259353 -0.0938,-0.127011 -0.0698,0.837761 -0.519599,1.054759 0.853898,-0.553535 0.0698,-0.837761 z m 1.898931,-2.15724 c -0.08891,-1.050322 -0.604189,0.885459 0,0 z m -0.06981,2.555178 c -0.100424,-0.63694 -0.296698,0.323433 0,0 z m -0.167553,-0.370012 c 1.065838,1.188598 -0.961433,-0.107805 -0.774929,-0.663222 2.017915,-0.265405 -0.819112,-0.185841 0.753991,-0.726044 -0.725708,-0.0466 -0.891123,0.01979 -0.125673,-0.530604 0.200135,-1.565402 0.394912,0.17934 0.788887,0.404966 -0.961736,-0.06656 0.495905,0.444157 -0.432849,0.411902 0.368343,1.257958 -1.444962,0.03237 -0.209427,1.103002 z m 1.696471,-5.33376 c -0.238698,2.331511 -0.07982,4.901786 -0.02793,7.176846 -1.13735,0.435633 -0.279249,-1.136241 -1.326416,-0.614376 -1.286205,-0.143676 -1.656994,-0.275501 -2.79254,0.174559 -1.214893,-0.306274 -0.275916,-1.675082 -0.404964,-2.15721 -0.467374,0.98346 -1.141154,-0.865095 -1.179856,-1.766267 -0.107318,-0.775099 -0.273245,-2.914651 3e-5,-1.123998 0.923679,-1.427317 0.83141,-1.21825 0.342087,0.195478 0.446141,-0.333624 1.126277,0.413122 0.95646,-0.823845 1.883333,-2.44488 2.018754,2.323173 1.319462,3.574454 -0.420228,2.441218 3.467735,2.0576 2.604076,-0.349044 0.194029,-1.449159 -0.48017,-2.944205 -0.174609,-4.32844 0.230548,0.112776 0.46947,-0.0754 0.6842,0.04184 z m -0.007,-7.162876 c -0.08319,2.231536 0.01804,4.552873 -0.06982,6.841734 -0.484406,1.261573 -1.161626,-1.040986 -0.809843,-1.836077 0.573129,-2.089025 -3.027177,-0.362472 -3.881661,0.55153 0.794408,1.463768 4.810962,-1.404186 2.946127,0.314173 -1.103733,0.06716 -4.040136,1.157083 -3.714088,-0.446757 1.260853,-2.242273 6.422422,-1.768326 1.507968,-2.296875 -0.621788,-0.702385 -1.901528,-1.423926 -1.612695,-2.478383 1.357148,0.418292 2.193782,0.0046 3.804835,0.481692 1.771362,1.560765 -1.579287,-0.519073 -2.652923,0.251316 0.537666,1.229617 2.982857,2.023288 3.930509,1.249659 0.169034,-0.817267 -1.013369,-3.20059 0.551595,-2.632012 z m -0.09774,-0.01396 c -2.205328,0.05975 -5.965209,-0.41606 -6.534554,-2.827452 0.0143,-2.560929 0.30139,-2.047952 0.453817,0.286239 0.982099,2.000767 3.901965,1.92207 5.843401,2.143283 l 0.237367,0.188497 v 0.209441 z m -5.53622,-4.014283 c -0.54439,-0.664588 -0.577279,1.060776 0,0 z m 1.801191,0.111702 c -0.843002,-0.620184 -0.432587,0.811043 0,0 z m 1.319478,-0.06981 c -0.458414,-0.759821 -0.901247,0.749328 0,0 z m 1.228719,0.08378 c -0.334601,-1.568265 -1.275945,1.04814 0,0 z m 1.298533,-3.316147 c -0.261714,2.335981 0.111618,4.928673 -0.09776,7.197793 -1.557541,0.125849 0.347853,-2.176806 -0.460789,-2.848388 -0.415308,-1.971981 -1.643735,1.43412 -1.947818,0.118636 1.321891,-0.7537 -0.591174,-1.205969 -1.16589,-0.691151 -1.24295,0.106129 -1.335329,-0.743185 -2.562155,-0.139595 -0.27516,-1.274745 1.696267,-0.453253 2.541219,-0.60738 0.953927,-0.08884 0.455004,-1.022999 -0.104716,-0.544571 1.141098,-0.526519 -0.297754,-0.560107 -0.460771,1.1e-5 -1.272787,0.20119 -0.169948,-0.543074 0.886644,-0.809804 0.273461,0.127199 0.784088,0.292751 0.914574,0.614368 -1.398425,0.01372 0.903388,1.162222 0.774899,0.05586 0.01687,-0.875398 0.562395,0.463605 0.935519,0.328103 0.557932,-0.625093 -0.89353,-3.137619 0.747044,-2.673878 z m -0.188496,0.07679 c 0.06891,-0.04406 0.37783,-0.160708 0,0 z m 0.13965,-7.225712 c -0.280628,2.298807 0.248524,5.10902 -0.146621,7.218723 -0.439861,-1.272422 -1.801617,-0.735449 -3.693117,-0.09074 -1.09825,-1.133767 0.800562,0.217384 0.767953,-1.019247 -1.169471,-1.421763 -0.314357,-0.544876 0.272232,-0.530563 -0.01993,-1.715529 -1.003861,-4.570915 0.82379,-5.57809 0.359945,0.910254 -1.684547,3.053847 -0.411913,5.047526 0.784933,2.988263 0.139266,-1.982419 0.474764,-2.946141 1.025589,-1.308038 -0.618054,3.676835 1.144945,2.59008 -0.09544,3.485295 0.580223,-3.255097 0.09775,-4.691475 l 0.314161,-0.181515 0.35605,0.181515 z m 12.67764,162.49816 c -0.98321,-1.57941 1.71176,0.47011 0,0 z m 0.58643,-4.18882 c 0.10544,0.68422 -1.6176,1.01566 -0.72636,0.35579 -0.0138,-0.41776 0.4233,-0.48415 0.72636,-0.35579 z m -5.633958,-3.95843 c -0.544425,-0.66457 -0.577231,1.06085 0,0 z m 1.801192,0.1117 c -0.843063,-0.62016 -0.432537,0.81093 0,0 z m 1.319476,-0.0698 c -0.45865,-0.75978 -0.901199,0.74964 0,0 z m 1.22872,0.0838 c -0.33452,-1.56848 -1.27589,1.04845 0,0 z m 1.29853,-3.31615 c -0.26223,2.336 0.11152,4.92875 -0.0981,7.19786 -1.55745,0.12618 0.34821,-2.17694 -0.46076,-2.84832 -0.41535,-1.97197 -1.64367,1.43405 -1.94787,0.11873 1.32208,-0.7536 -0.5911,-1.20618 -1.165812,-0.69118 -1.243003,0.10618 -1.3353,-0.74311 -2.562156,-0.13953 -0.27519,-1.27479 1.696277,-0.45325 2.541209,-0.60732 0.953879,-0.0888 0.455194,-1.02308 -0.104623,-0.5447 1.141142,-0.52633 -0.297873,-0.55996 -0.460771,1.5e-4 -1.272816,0.20113 -0.169881,-0.54324 0.886644,-0.81001 0.273409,0.12705 0.784059,0.2928 0.914569,0.61435 -1.398402,0.0135 0.90327,1.16213 0.77492,0.0556 0.0168,-0.87529 0.56252,0.46339 0.93554,0.32793 0.55742,-0.62494 -0.89299,-3.13887 0.74721,-2.67353 z m -0.18849,0.0768 c 0.0689,-0.0441 0.37793,-0.16068 0,0 z m 0.13962,-7.22571 c -0.28069,2.29882 0.24868,5.10906 -0.14656,7.21876 -0.43984,-1.27238 -1.80158,-0.73563 -3.693039,-0.0908 -1.098198,-1.13392 0.800399,0.21745 0.768009,-1.01916 -1.169492,-1.42163 -0.314317,-0.54483 0.27223,-0.53041 -0.0201,-1.71546 -1.003877,-4.57096 0.82381,-5.57793 0.35997,0.91031 -1.684547,3.05388 -0.41195,5.04754 0.78486,2.98825 0.13931,-1.98246 0.47468,-2.94616 1.02548,-1.30786 -0.61802,3.6767 1.14499,2.59016 -0.0954,3.48529 0.58013,-3.25508 0.0976,-4.69148 l 0.31416,-0.18151 0.35605,0.18151 z m -3.909558,-4.01428 c 0.169633,1.09186 -0.565875,1.30633 -0.76793,0.54454 0.95716,-0.63849 0.287245,-2.36921 0.174517,-0.89369 -1.640345,-0.98861 1.571481,-1.69717 0.649271,0.14652 l -0.05585,0.20246 z m 1.326458,0.86569 c 0.82346,1.62064 -1.538616,-0.26676 -0.565492,-0.13971 0.07882,0.38803 0.435562,0.55083 0.565492,0.13971 z m 2.61801,-4.00032 c -0.0951,2.31253 -0.0855,4.80648 -0.0276,7.1489 -0.8048,0.15086 -1.31649,-1.90948 -2.1014,-0.12569 -0.91549,-0.73953 0.66238,-2.20979 -0.0208,-3.2603 -1.152417,-0.55242 0.26543,0.12422 0.0767,-0.62835 0.64312,-0.67662 -1.237589,-1.00792 -0.2512,-0.90047 0.86967,-0.20032 -0.76299,-1.91918 -0.8307,-0.51671 0.83145,1.13373 -1.530373,-0.79085 0.30015,-1.06099 1.53043,-0.57193 0.75483,2.26949 1.71032,1.34042 1.12181,0.44802 -0.77421,0.31598 -0.48168,1.05413 -0.0885,0.61446 1.47396,0.55097 0.35604,0.90074 -1.86064,0.58162 0.74643,3.02986 0.78875,0.71221 -0.0168,-1.5725 0.17894,-3.12492 -0.2303,-4.66351 0.23311,0.0264 0.49658,-0.0779 0.71164,-3.8e-4 z m -2.80651,-4.81715 c -0.713458,-1.21223 -0.794577,0.93196 -0.404923,1.41016 0.06424,0.82819 0.884153,-0.10206 0.118673,-0.23735 -0.289648,-0.42719 -0.163012,-0.93283 0.28625,-1.17281 z m 0.42587,0.67021 c -0.28644,-0.41844 -0.19259,0.53701 0,0 z m 2.3597,-3.00199 c -0.0485,2.23499 -0.0596,4.56833 -0.0557,6.80687 -0.2806,1.41115 -0.62326,-1.08675 -1.24272,-0.18852 -1.37787,0.64017 -2.177935,-0.46859 -2.11533,-1.64063 -0.777693,-0.71038 -1.182324,-2.00954 -0.474739,-3.06476 -0.137723,-0.83597 -0.260608,-1.37672 0.781939,-0.75393 1.58448,0.6522 1.70186,2.75559 0.41887,3.77703 -1.179421,1.67918 2.28349,2.02991 1.8012,0.22355 -2.18327,0.73417 -0.27352,-0.42551 0.44683,-0.38399 -0.28567,-1.41626 0.43138,-3.03854 -0.3002,-4.25863 -0.78629,0.40999 -1.22974,1.9191 -0.28633,1.36822 -1.54059,1.11251 -0.6833,-1.96097 0.51644,-1.89908 0.167,0.0961 0.36639,-0.11622 0.50974,0.0139 z m -1.24269,-2.29686 c 0.63966,0.64803 -0.87139,1.2639 -1.28466,1.01922 0.82656,0.0446 0.83043,-0.78004 1.28466,-1.01922 z m 1.34043,-4.68449 c -0.39242,1.6868 0.12411,3.49236 -0.18902,5.20125 -0.0289,0.6325 0.46575,2.49379 -0.55868,1.57095 -1.4e-4,-1.06688 0.72294,-3.04586 -1.13106,-2.68793 -0.59262,-0.42988 -2.249394,-1.47646 -2.010678,-0.35581 1.349798,-0.45025 0.717968,1.37482 0.565535,0.61435 0.522623,-0.46011 -1.170162,-0.31601 -1.403344,-0.54454 -1.134128,1.18577 3.785507,1.57406 0.230394,1.22881 -1.898467,-0.44431 -0.902199,-1.31115 -0.07681,-2.20618 0.980164,-0.78068 -0.547557,-0.6143 -0.481706,0.25144 -1.378407,0.46302 -2.381429,-1.16313 -0.41888,-0.2375 0.170332,-0.90486 1.829376,-1.55741 1.731394,-0.19542 1.104654,-0.37307 1.063554,-1.51741 -0.125638,-1.39619 -1.071539,-0.34844 -2.025,-0.3933 -0.41887,-0.54472 0.590933,0.64811 3.393262,0.20445 1.787252,1.31253 -1.886987,0.57621 0.2133,1.49898 1.11702,1.73144 1.38796,-0.67742 -0.85967,0.25623 -0.0559,-0.83767 1.79404,0.12765 0.0796,-1.76556 0.6352,-2.68769 -0.13182,-0.41728 0.61158,-0.20352 0.80377,-0.21712 z m -5.710758,-3.95844 c -0.544417,-0.66457 -0.57724,1.06086 0,0 z m 1.801192,0.11171 c -0.843021,-0.62019 -0.432581,0.81091 0,0 z m 1.319476,-0.0698 c -0.45865,-0.75978 -0.901199,0.74964 0,0 z m 1.22872,0.0838 c -0.33454,-1.56847 -1.27587,1.04845 0,0 z m 1.29853,-3.31615 c -0.26222,2.336 0.11152,4.92875 -0.0981,7.19786 -1.55745,0.12618 0.34822,-2.17694 -0.46076,-2.84832 -0.41535,-1.97197 -1.64365,1.43402 -1.94787,0.11873 1.32208,-0.75361 -0.5911,-1.20619 -1.165812,-0.69119 -1.242958,0.10598 -1.33534,-0.74307 -2.562156,-0.13973 -0.275214,-1.27483 1.696263,-0.45321 2.541209,-0.60721 0.953879,-0.0888 0.455194,-1.02308 -0.104623,-0.5447 1.141142,-0.52633 -0.297873,-0.55996 -0.460771,1.5e-4 -1.272818,0.20112 -0.169915,-0.54339 0.886644,-0.8101 0.273409,0.12705 0.784059,0.2928 0.914569,0.61435 -1.398404,0.0137 0.9033,1.16219 0.77491,0.0557 0.0168,-0.87535 0.5625,0.46351 0.93554,0.32803 0.55749,-0.62493 -0.89307,-3.13848 0.74722,-2.67354 z m -0.18849,0.0768 c 0.0689,-0.0441 0.37793,-0.16068 0,0 z m 0.13962,-7.22571 c -0.28069,2.29882 0.24868,5.10906 -0.14656,7.21876 -0.43984,-1.27235 -1.80153,-0.73547 -3.693039,-0.0907 -1.098167,-1.13392 0.800299,0.21743 0.768009,-1.01906 -1.169489,-1.42163 -0.314318,-0.54481 0.27223,-0.53041 -0.0201,-1.71546 -1.003873,-4.57097 0.82381,-5.57794 0.35996,0.91029 -1.684541,3.05389 -0.41195,5.04754 0.78485,2.98823 0.13932,-1.98239 0.47468,-2.94608 1.02548,-1.30815 -0.61803,3.67665 1.14499,2.59007 -0.0954,3.48529 0.58013,-3.25508 0.0976,-4.69148 0.002,-0.69306 0.67896,0.25468 0.67019,-7.2e-4 z m -0.55152,0 c -0.98321,-1.57941 1.71176,0.47011 0,0 z m 0.58643,-4.18882 c 0.10544,0.68422 -1.6176,1.01566 -0.72636,0.35579 -0.0138,-0.41776 0.4233,-0.48415 0.72636,-0.35579 z m -0.17453,0.0768 c 0.0689,-0.0441 0.37793,-0.16068 0,0 z m 0.13962,-7.22571 c -0.28069,2.29882 0.24868,5.10906 -0.14656,7.21876 -0.43983,-1.27239 -1.80158,-0.73564 -3.693039,-0.0908 -1.098192,-1.13393 0.800389,0.21748 0.768009,-1.01915 -1.169492,-1.42163 -0.314317,-0.54483 0.27223,-0.53041 -0.0201,-1.71546 -1.003877,-4.57096 0.82381,-5.57793 0.35996,0.91031 -1.684543,3.05389 -0.41195,5.04755 0.78485,2.98823 0.13932,-1.98239 0.47468,-2.94608 1.02549,-1.30773 -0.61803,3.67679 1.14499,2.59026 -0.0954,3.48529 0.58013,-3.25508 0.0976,-4.69148 0.002,-0.69305 0.67876,0.25471 0.67019,-7.4e-4 z m -5.599048,-3.95843 c -0.544425,-0.66457 -0.577231,1.06085 0,0 z m 1.801192,0.1117 c -0.843063,-0.62016 -0.432537,0.81093 0,0 z m 1.319476,-0.0698 c -0.45865,-0.75978 -0.901199,0.74964 0,0 z m 1.22872,0.0838 c -0.33477,-1.56855 -1.27562,1.04867 0,0 z m 1.29853,-3.31615 c -0.26223,2.336 0.11152,4.92875 -0.0981,7.19786 -1.55746,0.12624 0.34824,-2.17688 -0.46076,-2.84822 -0.41535,-1.97197 -1.64367,1.43405 -1.94787,0.11873 1.32207,-0.75357 -0.59118,-1.20601 -1.165812,-0.69108 -1.242967,0.10606 -1.335293,-0.74321 -2.562156,-0.13963 -0.275221,-1.27484 1.696259,-0.45322 2.541209,-0.60722 0.953889,-0.0888 0.455176,-1.0231 -0.104623,-0.5446 1.141142,-0.52633 -0.297873,-0.55996 -0.460771,1.5e-4 -1.272816,0.20113 -0.169881,-0.54324 0.886644,-0.81001 0.273439,0.12724 0.784129,0.2926 0.914569,0.61436 -1.398393,0.0136 0.9033,1.16231 0.77491,0.0558 0.0168,-0.87529 0.56253,0.46339 0.93554,0.32793 0.55772,-0.62528 -0.89339,-3.13751 0.74722,-2.67404 z m -3.12066,-4.58679 c -1.119225,1.26105 1.95189,0.15793 8e-5,7e-5 z m -0.356054,-0.14661 c 0.807624,-0.65774 2.384974,-0.0436 1.172854,-0.14625 -0.0875,0.90483 1.37299,-0.34618 0.71222,0.4468 0.79063,-0.01 -0.23189,0.75911 -0.67022,0.71897 -0.995702,-0.0362 0.57218,0.69511 -0.74689,0.2583 -0.535613,-0.11625 -1.017121,-0.9261 -0.467964,-1.27782 z m 2.485364,-1.41721 c -1.37846,-0.6666 -3.500788,-0.0832 -3.246344,1.78727 -0.487176,1.91903 1.087844,2.98555 2.911204,2.58295 1.66366,-0.0967 0.55003,-2.4966 0.69102,-3.62337 -0.0761,-0.25652 -0.0376,-0.63681 -0.35588,-0.74685 z m 0.95645,-0.99834 c -0.21161,1.99493 0.01,4.06399 -0.035,6.15752 -0.4551,2.60792 -0.28037,-1.42246 -2.26895,-0.59332 -4.331212,1.74877 -2.079437,-1.63479 -2.373671,-4.18177 -0.973334,-2.54121 3.559081,0.40192 3.993391,-1.38231 h 0.68418 z m -0.0768,-0.014 c -2.20532,0.0597 -5.965164,-0.41594 -6.534551,-2.8275 0.01429,-2.56098 0.301379,-2.04775 0.453807,0.28634 0.982098,2.00073 3.901944,1.92207 5.843404,2.14309 l 0.23736,0.18849 v 0.20944 z m -3.846728,-4.07013 c 0.169629,1.09185 -0.565869,1.30635 -0.76793,0.54455 0.957197,-0.63854 0.287193,-2.36924 0.174517,-0.89358 -1.640346,-0.98861 1.571481,-1.69716 0.649271,0.14652 l -0.05585,0.20246 z m 1.326458,0.86569 c 0.8234,1.62082 -1.538593,-0.26709 -0.565492,-0.13962 0.07881,0.38787 0.435472,0.55107 0.565492,0.13962 z m 2.61801,-4.00032 c -0.0951,2.31253 -0.0855,4.80648 -0.0276,7.1489 -0.80485,0.15089 -1.3164,-1.9097 -2.1014,-0.1258 -0.9155,-0.73956 0.66241,-2.20984 -0.0208,-3.2604 -1.15242,-0.55247 0.26542,0.1244 0.0767,-0.62825 0.64317,-0.67661 -1.237567,-1.00784 -0.2512,-0.90057 0.8697,-0.20034 -0.76307,-1.91903 -0.8307,-0.51661 0.83144,1.13372 -1.530372,-0.79087 0.30015,-1.06101 1.53043,-0.57193 0.75484,2.26952 1.71032,1.34042 1.1218,0.44801 -0.77421,0.31597 -0.48168,1.05412 -0.0884,0.61444 1.47385,0.55098 0.35604,0.90054 -1.86064,0.58162 0.74643,3.02987 0.78875,0.71222 -0.0168,-1.5725 0.17895,-3.12491 -0.2303,-4.66349 0.23312,0.0266 0.49631,-0.0782 0.71164,-7e-5 z m -0.58643,0 c -0.98318,-1.579684 1.71182,0.47042 0,0 z m 0.58643,-4.188817 c 0.10564,0.684374 -1.61764,1.015936 -0.72636,0.356022 -0.0136,-0.417847 0.42297,-0.483814 0.72636,-0.356022 z m 0.007,-7.148918 c -0.24435,1.762575 0.0107,3.721257 -0.105,5.550182 -0.40791,0.643578 0.74898,2.121414 -0.67716,1.528934 -2.939345,-0.667108 -5.061341,-3.597269 -5.089452,-6.569456 0.518317,0.454037 0.831511,3.252682 2.087444,4.091085 0.892838,-0.148203 0.685968,1.930791 1.926858,1.144965 1.4511,-1.252191 -0.66691,-3.036766 -1.843123,-2.569143 -0.397355,-0.396249 2.720223,-0.479654 2.869363,1.075109 -0.60368,0.741164 -0.72535,3.156918 0.13266,1.312506 0.41372,-1.390965 0.12264,-2.90731 0.23022,-4.335425 -0.21968,-0.600012 -0.59741,-1.578466 0.46819,-1.228757 z m -0.18151,0.0768 c 0.0689,-0.04406 0.37792,-0.160707 0,0 z m 0.13962,-7.225709 c -0.2807,2.298813 0.24868,5.109029 -0.14656,7.218723 -0.43984,-1.272421 -1.80154,-0.735442 -3.693039,-0.09074 -1.098178,-1.133793 0.800419,0.217417 0.768009,-1.019248 -1.16946,-1.421768 -0.314349,-0.544873 0.27223,-0.530561 -0.0201,-1.715586 -1.003831,-4.570808 0.82381,-5.578089 0.35997,0.910301 -1.68455,3.053843 -0.41195,5.047527 0.78486,2.988263 0.13932,-1.982421 0.47468,-2.94614 1.0255,-1.30802 -0.61805,3.67688 1.14499,2.590088 -0.0954,3.485294 0.58013,-3.255076 0.0976,-4.691475 l 0.31416,-0.181516 0.35605,0.181516 z m -5.599048,-3.958432 c -0.544391,-0.664587 -0.577274,1.060773 0,0 z m 1.801192,0.111701 c -0.843022,-0.620189 -0.432564,0.811048 0,0 z m 1.319476,-0.06981 c -0.4585,-0.75982 -0.901409,0.749325 0,0 z m 1.22872,0.08378 c -0.33441,-1.568349 -1.27602,1.048251 0,0 z m 1.29853,-3.316146 c -0.26223,2.335971 0.11152,4.92874 -0.0981,7.197792 -1.55745,0.125833 0.34822,-2.176943 -0.46076,-2.848417 -0.41537,-1.971973 -1.64371,1.434105 -1.94787,0.118658 1.32203,-0.753693 -0.59106,-1.206008 -1.165812,-0.69117 -1.24296,0.106135 -1.335319,-0.7432 -2.562156,-0.139615 -0.275163,-1.274763 1.696254,-0.453231 2.541209,-0.607371 0.953889,-0.0888 0.455187,-1.023036 -0.104623,-0.544592 1.141102,-0.52651 -0.297755,-0.560119 -0.460771,10e-7 -1.272788,0.201204 -0.169943,-0.543123 0.886644,-0.809834 0.273409,0.127197 0.784049,0.292718 0.914559,0.614349 -1.398376,0.01366 0.90315,1.162273 0.7749,0.05583 0.0169,-0.875383 0.56241,0.463564 0.93553,0.328102 0.55768,-0.625054 -0.89334,-3.137992 0.74725,-2.673737 z m -0.0628,-7.148918 c 0.0761,2.315037 -0.17006,4.845543 0.0279,7.148931 -1.49328,0.528188 -0.16267,-1.733449 -1.59186,-1.661565 -1.21124,-0.923012 -1.830691,-0.105953 -2.513267,-0.865698 -2.393013,-3.712976 1.033287,1.169486 3.106697,0.08377 1.23173,-1.200596 -0.59146,-2.734866 -1.0751,-0.816835 0.89978,-1.629324 -2.236776,-0.905266 -2.618084,-2.785568 0.243681,-0.0705 1.437214,1.388884 2.499344,0.998345 0.2315,-0.501636 -0.13135,-1.787522 0.92152,-0.928531 -0.36414,1.316918 0.74149,0.862003 0.46073,-0.432838 -0.0861,-0.585006 0.15121,-0.940553 0.78212,-0.740011 z m -1.76628,-5.801512 c 0.98193,-0.724622 -1.16538,-0.453019 -1.02644,0.70512 0.34441,-0.224608 0.50236,-0.821142 1.02644,-0.70512 z m 1.82213,-1.347402 c -0.0796,2.199424 -0.0463,4.499653 -0.1258,6.688144 0.48895,1.123183 -1.39425,-0.0534 -1.85698,-0.05582 -2.439316,-1.006124 -3.969395,-3.819485 -3.846742,-6.373989 0.630284,1.461987 0.81223,3.75163 2.373679,4.433168 0.663543,-0.375905 0.538283,2.510371 1.968773,0.495691 0.59527,-1.324629 -1.46976,-2.486775 -2.303895,-1.891979 -1.367659,-0.81089 2.458805,-0.733974 2.722755,0.64926 1.10065,0.507474 -1.49265,2.204835 0.0559,2.359706 0.96126,-1.287039 0.25242,-3.148019 0.62821,-4.691475 -0.0799,-0.608946 -0.90778,-2.020305 0.38413,-1.612702 z m -1.9478,-1.954784 c -1.13523,-0.121806 0.0463,0.120587 -0.37704,-1.075136 0.26418,-0.0079 0.26495,0.831871 0.37704,1.075136 z m 0.40492,-0.446807 c -0.50731,0.54211 -0.31382,-0.764277 0,0 z m -3.029909,0.181516 c -0.383117,-0.482544 0.09593,-2.419843 -0.537572,-1.940825 -0.125595,0.629742 -0.04107,1.581906 0.537572,1.940825 z m 0.935502,-2.20611 c -0.190762,-0.876572 -1.45326,-0.934738 -1.019263,-0.111694 0.354643,-0.05139 0.667727,0.26101 1.019263,0.111694 z m 0.823797,0.376993 c 0.14621,-0.574453 -0.12973,-2.080786 -1.019134,-1.577842 -0.06551,0.6386 0.549349,1.283661 1.019134,1.577842 z m -1.396269,2.192147 c 1.079059,1.150253 1.826779,-1.299766 1.256549,-2.010627 -1.726062,-1.557787 -2.252208,2.205697 -0.41888,1.466099 0.07301,-1.063188 -1.107791,0.392882 -0.293206,-0.851724 1.118796,0.220719 0.625216,1.729993 -0.544463,1.396252 z m 3.029909,-0.544546 c -0.88163,-1.089724 -1.66058,-1.307652 -1.52208,0.38398 -0.988542,1.355075 1.32947,0.222379 1.52208,-0.38398 z m -1.25664,-3.141612 c 0.32203,0.628147 1.44914,0.895881 0.99142,1.200791 -0.0572,-0.314503 -1.41281,-0.708847 -0.99142,-1.200791 z m 0.90757,1.43816 c 0.71837,0.514779 0.61959,1.288715 -0.0208,0.349082 -0.69254,-0.377336 -0.42784,-0.882917 0.0208,-0.349038 z m 0.62833,1.158906 c 0.45167,-1.246713 -0.67513,-2.877024 -1.95471,-2.78557 0.50088,0.901288 -0.10844,2.218204 1.25689,2.506306 0.22251,0.08111 0.45852,0.279458 0.69782,0.279264 z m 0.90059,-4.035227 c -0.16036,2.220203 0.0284,4.810772 -0.0838,7.037221 -1.43516,0.06128 0.014,-2.313825 -0.67036,-2.855424 -0.50632,1.956671 -2.936273,1.769756 -4.237693,1.151945 0.366456,1.238368 -0.282378,-0.408144 -0.523647,0.251342 0.642539,0.38837 -0.561561,1.014269 0.05585,-0.404932 -0.2828,-0.797611 -1.66712,-1.593062 -0.181522,-0.739977 1.078604,1.238632 0.852698,0.399361 0.29323,-0.684157 -0.572667,-2.598028 3.601302,-3.846532 4.523842,-1.368366 0.62983,1.123063 -0.27951,-1.284528 0.0977,-1.717421 -0.0526,-0.665459 0.0253,-0.790391 0.72638,-0.670231 z m -0.0419,-7.148912 c -0.20301,1.094874 0.0706,2.375679 -0.1535,3.595408 -0.0931,0.989515 0.78607,3.369827 -0.27209,3.56749 0.23479,-2.056868 -1.916,-2.685511 -3.811812,-1.556855 -0.51296,2.163909 -1.244558,-0.834348 1.2e-5,-2.01761 -0.466164,-0.862811 -0.753943,-2.263636 0.621336,-3.0718 1.593964,0.312026 -2.486711,1.880839 0.06283,2.694826 -0.03492,-1.724536 1.159207,-0.670112 0.02787,0.383959 -2.302371,1.340764 0.263909,2.139984 1.717406,0.991353 2.04008,1.036259 1.30377,-1.881784 1.08221,-3.127632 0.25102,-0.500931 -0.50952,-2.047792 0.72574,-1.459139 z m -5.599048,-3.958432 c -0.54439,-0.664588 -0.577275,1.060774 0,0 z m 1.801192,0.111701 c -0.843022,-0.620189 -0.432564,0.811048 0,0 z m 1.319476,-0.06981 c -0.4585,-0.75982 -0.90141,0.749322 0,0 z m 1.22872,0.08378 c -0.33441,-1.568349 -1.27602,1.048251 0,0 z m 1.29853,-3.316146 c -0.26223,2.335971 0.11152,4.92874 -0.0981,7.197792 -1.55745,0.12586 0.34822,-2.176937 -0.46076,-2.848397 -0.41538,-1.97196 -1.64371,1.434128 -1.94787,0.118658 1.32203,-0.753689 -0.59107,-1.205993 -1.165812,-0.69116 -1.242961,0.106135 -1.335319,-0.743199 -2.562156,-0.139615 -0.275166,-1.274747 1.696262,-0.45326 2.541209,-0.607401 0.953889,-0.0888 0.455179,-1.023004 -0.104623,-0.544562 1.141102,-0.52652 -0.297754,-0.560108 -0.460771,1e-5 -1.272787,0.20119 -0.169948,-0.543074 0.886644,-0.809803 0.273409,0.127202 0.784049,0.292716 0.914559,0.614348 -1.398376,0.01365 0.90315,1.162281 0.7749,0.05585 0.0169,-0.875383 0.56241,0.463564 0.93553,0.328102 0.5577,-0.625138 -0.89339,-3.137781 0.74725,-2.673817 z m -3.12066,-4.586762 c -1.119212,1.26103 1.9519,0.157967 8e-5,-1e-5 z m -0.356054,-0.146608 c 0.807574,-0.657987 2.384994,-0.04365 1.172854,-0.146587 -0.0875,0.904834 1.37301,-0.346168 0.71222,0.44683 0.79061,-0.0096 -0.23188,0.759208 -0.67022,0.719081 -0.995708,-0.03609 0.57219,0.695089 -0.74689,0.25833 -0.535455,-0.116272 -1.01724,-0.926155 -0.467964,-1.277654 z m 2.485364,-1.417217 c -1.37848,-0.666653 -3.500765,-0.08322 -3.246344,1.787269 -0.487158,1.919053 1.087794,2.985573 2.911204,2.583127 1.66366,-0.09665 0.55003,-2.496587 0.69102,-3.623352 -0.0761,-0.256587 -0.0375,-0.636573 -0.35588,-0.747044 z m 0.95645,-0.998334 c -0.21162,1.994945 0.01,4.06402 -0.035,6.157561 -0.45512,2.607862 -0.28036,-1.422578 -2.26895,-0.593398 -4.331215,1.748709 -2.079437,-1.63485 -2.373671,-4.181825 -0.973329,-2.541205 3.559131,0.401889 3.993391,-1.382272 h 0.68418 z m -0.0768,-0.01396 c -2.20534,0.05972 -5.965205,-0.416065 -6.534551,-2.827462 0.01429,-2.560934 0.301378,-2.04795 0.453807,0.286238 0.982099,2.000767 3.901964,1.92207 5.843404,2.143283 l 0.23736,0.188497 v 0.209441 z m -3.846728,-4.070134 c 0.169638,1.091871 -0.565882,1.306365 -0.76793,0.544512 0.957186,-0.638497 0.287207,-2.369252 0.174517,-0.893631 -1.640346,-0.988585 1.571501,-1.697019 0.649271,0.146632 l -0.05585,0.202459 z m 1.326458,0.865689 c 0.82342,1.620737 -1.538599,-0.267065 -0.565492,-0.139642 0.0788,0.387823 0.435432,0.551273 0.565492,0.139642 z m 2.61801,-4.00032 c -0.0951,2.312531 -0.0855,4.806486 -0.0276,7.148914 -0.80481,0.151065 -1.31644,-1.909505 -2.1014,-0.125664 -0.91549,-0.73951 0.6624,-2.20979 -0.0208,-3.260309 -1.152403,-0.552524 0.26538,0.124218 0.0767,-0.628346 0.64311,-0.676635 -1.237592,-1.007961 -0.2512,-0.900606 0.86968,-0.200187 -0.76302,-1.91913 -0.8307,-0.516655 0.83144,1.133612 -1.530373,-0.791107 0.30015,-1.061162 1.53044,-0.571843 0.75483,2.26958 1.71032,1.340414 1.12178,0.447961 -0.77414,0.316038 -0.48168,1.054168 -0.0885,0.614411 1.4739,0.550685 0.35604,0.900553 -1.86065,0.581858 0.74641,3.029673 0.78875,0.712097 -0.0168,-1.57248 0.17892,-3.124862 -0.2303,-4.663436 0.23314,0.02683 0.49627,-0.07857 0.71164,3.2e-5 z M 115.7796,152.90492 c -0.98323,-1.58018 1.71139,0.47071 0,0 z m 0.58644,-4.18882 c 0.10561,0.68429 -1.61753,1.01578 -0.72627,0.35589 -0.0138,-0.41782 0.42301,-0.48402 0.72627,-0.35589 z m -5.63396,-4.02825 c -0.5447,-0.66442 -0.57691,1.06069 0,0 z m 1.80119,0.25133 c -0.84324,-0.6202 -0.43221,0.81093 0,0 z m 1.31948,-0.13963 c -0.42845,-0.76807 -0.86364,0.76636 0,0 z m 1.22872,0.0838 c -0.25986,-1.54126 -1.41842,1.1399 0,0 z m 1.28457,3.83277 c -1.39908,0.35875 -0.2748,-1.54629 -0.4536,-2.26183 0.11663,-2.00475 -1.59435,-0.52829 -1.99,-0.0139 -0.27059,-0.43008 1.13299,-1.6058 -0.39806,-1.18674 -0.92058,0.0345 -1.76313,0.24182 -2.33183,-0.3558 -1.73128,0.99747 -1.04852,-1.09393 0.23025,-0.38409 0.65521,0.11747 2.37434,0.27722 1.61941,-0.88661 -1.37597,0.61351 0.50293,-0.41338 -0.34219,-0.25128 -0.54687,0.38231 -1.85662,0.76982 -0.94235,0.007 0.78537,-0.0557 1.37927,-0.84477 1.74528,-0.063 0.91233,-0.0575 -1.03051,0.86336 0.67719,1.15197 0.88373,0.012 0.20761,-1.02341 0.95647,-0.81675 0.59424,1.83618 0.64495,-1.28498 0.48881,-1.98981 1.2798,-0.67536 0.43537,1.19598 0.66296,1.89183 0.14048,1.01517 -0.15058,2.74823 0.1396,3.36502 0.53381,-1.36201 -0.42343,1.41963 0.30003,0.50261 0.59675,-1.81954 0.0513,1.08933 -0.36197,1.29157 z m -0.17454,-7.07214 c 0.0689,-0.0441 0.37793,-0.16068 0,0 z m 0.13963,-7.22571 c -0.28062,2.29881 0.24882,5.10907 -0.14647,7.21876 -0.43984,-1.27233 -1.80146,-0.73575 -3.69292,-0.0908 -1.0982,-1.13392 0.80052,0.21744 0.7678,-1.01916 -1.16949,-1.42164 -0.31417,-0.5448 0.27227,-0.53041 -0.0199,-1.71544 -1.0039,-4.57098 0.82376,-5.57794 0.35992,0.9103 -1.68453,3.05389 -0.41195,5.04754 0.78488,2.98824 0.13931,-1.98248 0.4747,-2.94618 1.02537,-1.30811 -0.61811,3.67664 1.14491,2.59006 -0.0954,3.48529 0.58017,-3.2551 0.0976,-4.69148 l 0.31416,-0.18151 0.35605,0.18151 z m -3.90956,-4.01429 c 0.16963,1.09183 -0.56572,1.3064 -0.7679,0.54457 0.95706,-0.63876 0.28707,-2.36911 0.17428,-0.89357 -1.64051,-0.9885 1.57154,-1.69724 0.64921,0.14643 l -0.0558,0.20245 z m 1.32646,0.86569 c 0.82316,1.62083 -1.53862,-0.26705 -0.56551,-0.1396 0.0789,0.38787 0.43528,0.55104 0.56551,0.1396 z m 2.61801,-4.00032 c -0.0951,2.31253 -0.0855,4.80647 -0.0276,7.1489 -0.80487,0.15087 -1.31626,-1.90969 -2.1014,-0.1258 -0.91549,-0.73954 0.66238,-2.2098 -0.0208,-3.2603 -1.15238,-0.55242 0.26532,0.12417 0.0767,-0.62827 0.6432,-0.67666 -1.2377,-1.00782 -0.25129,-0.90056 0.8697,-0.20039 -0.76311,-1.91915 -0.83077,-0.5167 0.83139,1.13372 -1.53039,-0.79089 0.30013,-1.06101 1.53046,-0.57193 0.75481,2.26962 1.71032,1.34052 1.12179,0.44802 -0.77423,0.31596 -0.48169,1.05413 -0.0886,0.61454 1.4738,0.55074 0.35594,0.90063 -1.86071,0.58167 0.74651,3.02987 0.78883,0.71222 -0.0168,-1.5725 0.17894,-3.12492 -0.2303,-4.6635 0.23328,0.0265 0.49593,-0.078 0.71185,-2.6e-4 z m -5.63396,-3.95842 c -0.54466,-0.66446 -0.57696,1.06069 0,0 z m 1.80119,0.1117 c -0.84322,-0.6202 -0.43224,0.81092 0,0 z m 1.31948,-0.0698 c -0.45865,-0.75978 -0.90119,0.74964 0,0 z m 1.22872,0.0838 c -0.33451,-1.56847 -1.27592,1.04844 0,0 z m 1.29853,-3.31615 c -0.26223,2.336 0.11152,4.92874 -0.0981,7.19785 -1.55747,0.12624 0.34825,-2.17689 -0.46076,-2.84822 -0.41531,-1.97197 -1.64379,1.43405 -1.94798,0.11872 1.32203,-0.75371 -0.59122,-1.20598 -1.16593,-0.69109 -1.24295,0.10619 -1.33541,-0.74312 -2.56218,-0.13953 -0.27522,-1.27478 1.69624,-0.45324 2.54113,-0.60731 0.95378,-0.0888 0.45509,-1.02321 -0.1048,-0.5448 1.14111,-0.52634 -0.29788,-0.55999 -0.46079,1.4e-4 -1.2726,0.20113 -0.16994,-0.54336 0.8867,-0.8101 0.27343,0.12699 0.78391,0.29286 0.91445,0.61435 -1.39842,0.0135 0.90325,1.16213 0.77491,0.0556 0.0169,-0.8754 0.56223,0.46377 0.93534,0.32813 0.55793,-0.62537 -0.89377,-3.1384 0.74801,-2.67371 z m -0.1117,-0.014 c -2.20537,0.0597 -5.96513,-0.41598 -6.53461,-2.8275 0.0141,-2.56096 0.30171,-2.04797 0.45404,0.28624 0.9821,2.0008 3.90201,1.92193 5.84341,2.1432 l 0.23737,0.1885 v 0.20944 z m -0.0768,0.0209 c 0.0689,-0.0441 0.37793,-0.16068 0,0 z m 0.13963,-7.22571 c -0.28062,2.2988 0.24882,5.10907 -0.14647,7.21876 -0.43984,-1.27229 -1.80142,-0.73558 -3.69292,-0.0907 -1.09819,-1.13391 0.80052,0.21742 0.7678,-1.01916 -1.16949,-1.42163 -0.31416,-0.54482 0.27227,-0.53041 -0.0199,-1.71543 -1.0039,-4.57097 0.82376,-5.57792 0.35992,0.9103 -1.68453,3.05388 -0.41195,5.04753 0.78487,2.98825 0.13931,-1.98245 0.4747,-2.94615 1.02538,-1.30801 -0.61812,3.67674 1.14491,2.59017 -0.0954,3.48529 0.58017,-3.25509 0.0976,-4.69147 0.0289,-0.69235 0.64877,0.25383 0.67027,-6.9e-4 z m -5.59905,-3.95844 c -0.54466,-0.66446 -0.57696,1.06069 0,0 z m 1.80119,0.1117 c -0.84323,-0.62021 -0.43222,0.81096 0,0 z m 1.31948,-0.0698 c -0.45866,-0.75978 -0.90119,0.74964 0,0 z m 1.22872,0.0838 c -0.33449,-1.5685 -1.27594,1.0485 0,0 z m 1.29853,-3.31614 c -0.26223,2.336 0.11152,4.92874 -0.0981,7.19785 -1.55747,0.12624 0.34825,-2.1769 -0.46076,-2.84823 -0.41532,-1.97195 -1.6438,1.43407 -1.94798,0.11874 1.32203,-0.7537 -0.59122,-1.20597 -1.16593,-0.69108 -1.24292,0.10606 -1.3354,-0.74323 -2.56218,-0.13964 -0.27521,-1.27478 1.69624,-0.45325 2.54113,-0.60731 0.95381,-0.0888 0.45506,-1.02323 -0.1048,-0.5447 1.14111,-0.52633 -0.2979,-0.55998 -0.46079,1.6e-4 -1.2726,0.20114 -0.16994,-0.54336 0.8867,-0.81011 0.27346,0.12711 0.78391,0.29272 0.91445,0.61424 -1.39842,0.0136 0.90325,1.16236 0.77491,0.0558 0.0169,-0.87542 0.56222,0.46359 0.93534,0.32804 0.55792,-0.62538 -0.89376,-3.13864 0.74801,-2.67374 z m -2.06648,-2.35974 c -1.01991,0.82433 -0.37421,-1.31715 0,0 z M 116.38,98.771385 c -0.25111,2.325735 0.0654,4.799195 -0.0978,7.044165 -0.83324,-0.40102 -1.52863,-0.12844 -2.4923,-0.1255 -2.27317,-0.53613 -3.68393,-3.16415 -3.63731,-5.35475 0.56386,1.26172 0.84713,3.32954 2.234,3.74898 -0.15369,1.12657 1.90076,0.94421 0.32105,0.11859 -1.41074,-1.22826 -2.2998,-3.26817 -2.15025,-5.152181 0.66244,1.480461 0.85367,3.893451 2.54824,4.363391 -0.32553,0.95118 1.54111,1.63782 1.71025,0.41188 0.583,-1.27824 -1.68634,-2.6129 -2.35978,-1.78039 0.37154,-1.27185 2.62986,-0.10847 2.91812,0.81701 0.35697,0.5694 -1.52304,2.19262 -0.0839,2.06631 0.98292,-1.84882 0.2366,-4.2635 0.48152,-6.199455 0.20203,0.121476 0.4406,-0.09648 0.60817,0.04195 z m -4.1958,-3.909563 c -0.45103,-0.136566 -0.85132,-2.967359 -1.04739,-0.684174 0.42236,0.281515 -0.92454,-0.387048 0.52372,-1.640628 0.73649,-0.134274 0.16226,1.809891 0.52367,2.324802 z m 1.00532,3.169538 c -1.44063,0.829723 -2.51459,-3.249835 -1.31247,-0.726071 0.26717,0.713989 1.50161,0.02308 1.31247,0.726071 z m 0.27925,-0.61436 c -1.50673,0.735682 -2.45865,-3.325538 -1.34753,-0.76095 0.23153,0.865377 1.66359,-0.0099 1.34753,0.76095 z m 1.24268,-0.125664 c -0.98926,-0.189657 0.55486,1.139676 0,0 z M 113.385,93.996133 c -0.19804,-0.499 -0.33097,0.579051 0,0 z m 2.0944,-0.446807 c 1.13516,0.687061 -2.39504,-2.575646 -1.99662,0.153571 -0.19723,1.780128 -0.89343,-0.467349 -0.16046,-1.200807 0.73346,-1.074556 2.44674,-0.204371 2.15708,1.047236 z m 0.90758,-1.759303 c -0.27069,2.186611 0.17428,5.197647 -0.22339,7.009291 -1.72982,-0.217816 0.46563,-2.865616 -0.69823,-3.804849 -0.73678,0.395936 -1.05793,1.586989 -0.32098,2.129296 0.1158,2.111179 -1.29524,0.239934 -1.4799,-0.614359 -0.86407,-0.226286 -0.66004,-0.706138 -1.06118,-1.647635 -0.93771,-0.702208 0.74959,-2.323561 0.098,-0.98436 0.94007,2.251093 0.87558,-1.199604 1.41028,-0.286192 -0.32602,0.927565 -1.07559,3.568242 0.54461,1.773265 0.66534,-1.692092 0.0556,-1.71046 1.15909,-1.242677 -0.18764,-0.642063 -0.62301,-2.76015 0.57166,-2.33178 z m -0.60738,10e-7 c -0.98314,-1.579392 1.71135,0.470108 0,0 z m 0.58644,-4.188817 c 0.10568,0.68438 -1.61754,1.015923 -0.72627,0.356023 -0.0137,-0.41787 0.42285,-0.483809 0.72627,-0.356023 z m -4.87299,-2.590082 c 0.27661,-1.15192 -1.04095,0.172086 0,0 z m 1.25664,0.600397 c 0.38251,-1.26444 -1.31413,0.864102 0,0 z m 0.90758,0.195479 c -0.21934,-0.961714 -0.55475,0.712122 0,0 z m 0.51662,0.572471 c 1.09134,-0.710318 -0.75252,-0.838337 0,0 z m 0.27925,-2.680843 c -0.9787,1.10016 -0.10939,-2.328994 -0.15374,-0.209419 l 0.0908,0.09774 0.0628,0.111701 z m 0.33511,-0.537564 c 0.0179,0.594789 -0.55784,-0.360633 0,0 z m 0.61436,-0.705118 c -1.2939,-0.524096 -0.45425,-1.347953 -0.97737,-1.438181 -0.95935,-1.223083 -0.35075,-0.442054 0.50967,-0.146635 -0.19503,0.879954 -0.38718,0.384102 0.40491,1.354352 l 0.0628,0.118683 v 0.111702 z m -1.82912,-0.879651 c 0.20951,-0.535753 -0.15523,-2.240826 -0.90768,-1.396246 -0.20462,0.442898 0.54869,1.349495 0.90768,1.396246 z m -0.79587,-0.335106 c -0.99587,-1.680151 -2.22382,0.513878 0,0 z m -0.94947,2.234036 c 0.0512,-2.682454 -1.26705,-2.089873 1.3e-4,0 z m 0.36303,0.446807 c 1.40159,1.133968 2.21612,-2.556837 0.41879,-2.34577 -1.64578,-0.537252 -0.22751,3.368717 0.36294,1.312503 -1.66212,0.113568 1.77644,-0.516196 -0.44686,0.99136 l -0.17454,-0.02094 -0.16057,0.06283 z m 1.21476,0.349068 c 1.7679,0.05014 2.34141,-1.543259 0.41891,-2.122336 0.004,0.748436 -0.15035,1.472731 -0.41891,2.122336 z m 2.08045,-1.535899 c 0.96443,-1.795464 -3.11782,-4.360801 -1.6406,-1.131008 0.0996,0.394216 1.11548,1.137337 1.6406,1.131008 z m 0.30718,-0.418882 c -0.46171,4.065785 -6.47955,1.724845 -4.46109,-1.549861 1.36619,-1.970945 4.7032,-0.965415 4.46109,1.549861 z m 0.57247,-3.120669 c 0.002,2.844771 -0.1234,5.726851 -0.0697,8.468389 -0.95218,-0.885431 -3.03909,-0.226648 -2.55525,-1.431188 -0.60561,-0.286194 -1.79863,0.05942 -1.70336,-0.837773 -1.3002,-0.05734 -0.60326,-1.065275 -1.42431,-2.122372 -1.52489,-1.308463 0.55561,0.256588 0.92153,0.495643 1.32974,0.379396 -0.88011,0.411886 0.42583,1.096064 0.70657,0.456153 1.61305,0.260422 2.2061,0.649266 0.9492,-1.697466 0.76765,1.988414 1.62668,-0.75399 -0.0868,-1.886004 -0.0318,-3.720556 -0.1537,-5.564145 0.20002,-0.05137 0.52941,-0.04143 0.72618,1.06e-4 z m -0.17454,0.0768 c 0.0689,-0.04406 0.37792,-0.160707 0,0 z m 0.13963,-7.225709 c -0.28062,2.298796 0.24882,5.109039 -0.14647,7.218723 -0.43984,-1.27235 -1.80143,-0.735561 -3.69292,-0.09074 -1.09818,-1.133778 0.80053,0.217378 0.7678,-1.019247 -1.16946,-1.421774 -0.3142,-0.544861 0.27227,-0.530563 -0.0199,-1.715563 -1.00385,-4.570817 0.82376,-5.57809 0.35993,0.910305 -1.68453,3.053846 -0.41195,5.047526 0.78487,2.988269 0.13932,-1.982421 0.4747,-2.946142 1.02539,-1.307982 -0.61813,3.676874 1.14491,2.59008 -0.0954,3.485293 0.58017,-3.255095 0.0976,-4.691475 l 0.31416,-0.181515 0.35605,0.181515 z m -3.47672,-0.349068 c -0.61106,1.032663 -2.32773,-1.246594 -1.82224,-1.535937 0.0985,1.118399 1.1816,1.3472 1.82224,1.535937 z m 0.0838,-0.781913 c -0.0687,1.971724 -3.02398,-3.400977 -0.81001,-0.09772 0.20269,0.06272 0.63091,0.404683 0.81001,0.09772 z m 0.16755,-0.530583 c 1.00068,0.932873 -1.929,-0.219636 -1.57782,-1.396322 0.32273,0.02809 0.56322,1.707556 1.57782,1.396322 z m 0.25133,-3.085762 c -0.37266,-0.748037 -0.14153,0.692636 0,0 z m 0.25133,0.02793 c -1.29661,1.264398 -0.62295,-2.524627 0.69809,-1.954751 1.54063,-0.337187 1.36188,3.71005 0.71208,0.991351 -0.20644,-1.437618 -2.37341,-0.116075 -1.41017,0.9634 z m 1.17287,3.448792 c -0.54072,-1.193983 -0.2352,1.04261 0,0 z m 1.59175,-5.710753 c -0.13602,2.27072 -0.001,4.835909 -0.0979,7.037227 -1.95387,0.01537 0.28113,-2.826591 -0.79578,-3.853721 -1.51082,0.864666 -0.17132,2.006282 -0.40496,3.155571 -1.63645,0.604719 -0.50813,-1.904624 -1.94071,-1.968785 -0.31198,-0.137648 -0.51748,-1.90812 -0.88659,-2.303856 -1.11436,1.222758 0.60109,0.388581 -0.13285,1.214753 -1.76781,-0.403428 1.75489,-3.084625 0.65635,-0.726075 1.40259,1.195746 0.88539,-2.595043 1.40327,-0.03489 -1.40145,0.783641 -0.22254,2.760942 0.49557,0.956434 0.55067,-0.191627 0.0627,-2.313783 0.447,-1.326474 0.85293,1.405447 0.52244,-1.29635 0.5026,-1.9059 -0.15838,-0.434497 0.54902,-0.236981 0.754,-0.244283 z m -0.18154,0.07679 c 0.0689,-0.04406 0.37792,-0.160707 0,0 z m 0.13963,-7.225709 c -0.28062,2.298796 0.24882,5.109039 -0.14647,7.218723 -0.43984,-1.272349 -1.80143,-0.735561 -3.69292,-0.09074 -1.09818,-1.133779 0.80053,0.217378 0.7678,-1.019249 -1.16946,-1.421772 -0.3142,-0.544861 0.27227,-0.530573 -0.0199,-1.715563 -1.00385,-4.570817 0.82376,-5.57809 0.35993,0.910316 -1.68453,3.05386 -0.41195,5.047536 0.78487,2.988269 0.13932,-1.982421 0.4747,-2.946142 1.02539,-1.307982 -0.61813,3.676873 1.14491,2.590079 -0.0954,3.485294 0.58017,-3.255095 0.0976,-4.691475 l 0.31416,-0.181515 0.35605,0.181515 z m -0.0628,-0.01396 c -2.20538,0.05975 -5.96518,-0.416122 -6.53461,-2.827463 0.0141,-2.560932 0.3017,-2.047962 0.45404,0.28624 0.98212,2.000764 3.90197,1.922068 5.84341,2.143282 l 0.23737,0.188497 v 0.209441 z m -2.70877,-4.872991 c -0.71333,-1.212318 -0.79465,0.93209 -0.4049,1.410221 0.0644,0.828136 0.88426,-0.102285 0.11882,-0.237363 -0.28982,-0.427325 -0.16284,-0.932328 0.28608,-1.172858 z m 0.42586,0.670211 c -0.28637,-0.418572 -0.19233,0.537085 0,0 z m 2.3597,-3.001986 c -0.0484,2.234978 -0.0596,4.56831 -0.0557,6.806829 -0.28048,1.411256 -0.62319,-1.086654 -1.24272,-0.188488 -1.37781,0.640159 -2.17805,-0.468488 -2.11534,-1.640628 -0.77768,-0.710331 -1.18225,-2.009627 -0.47472,-3.064811 -0.13758,-0.835992 -0.26065,-1.376867 0.78197,-0.753986 1.58446,0.652326 1.70198,2.755439 0.41895,3.776941 -1.17936,1.679139 2.28367,2.029717 1.80131,0.22341 -2.18329,0.734189 -0.27346,-0.425733 0.44683,-0.383958 -0.28567,-1.416232 0.43139,-3.038616 -0.3002,-4.258625 -0.78633,0.410014 -1.22988,1.919247 -0.28642,1.368342 -1.54058,1.112661 -0.68331,-1.96105 0.51652,-1.898919 0.16689,0.09621 0.3663,-0.116543 0.50952,0.01389 z m -1.24268,-2.296868 c 0.63969,0.647985 -0.87156,1.264244 -1.28466,1.019301 0.82658,0.04457 0.83037,-0.780398 1.28466,-1.019301 z m 1.34042,-4.684493 c -0.39247,1.686744 0.12421,3.492279 -0.18892,5.201124 -0.0289,0.632517 0.46589,2.493927 -0.55857,1.570787 -1.3e-4,-1.066863 0.72293,-3.045863 -1.13106,-2.687866 -0.59256,-0.430048 -2.24918,-1.476741 -2.01066,-0.356003 1.34979,-0.450254 0.71811,1.374819 0.56545,0.614365 0.52242,-0.460327 -1.17003,-0.315605 -1.40322,-0.544541 -1.13383,1.185878 3.78555,1.574036 0.23052,1.228728 -1.8984,-0.44408 -0.90225,-1.311224 -0.0769,-2.206142 0.98022,-0.780704 -0.54736,-0.61443 -0.48176,0.251328 -1.37852,0.462758 -2.3811,-1.163006 -0.41873,-0.237354 0.17033,-0.904805 1.82941,-1.557457 1.73137,-0.19544 1.10454,-0.373179 1.06361,-1.51734 -0.12568,-1.396301 -1.07154,-0.348285 -2.02502,-0.393179 -0.41886,-0.544581 0.59094,0.648012 3.39325,0.204572 1.78726,1.312543 -1.88704,0.576268 0.2134,1.498692 1.11703,1.731362 1.38821,-0.677279 -0.85941,0.256075 -0.0557,-0.837773 1.79407,0.127574 0.0796,-1.765643 0.63521,-2.687823 -0.13192,-0.416682 0.61078,-0.204236 0.80318,-0.216413 z m -0.66323,0 c -0.98314,-1.57942 1.71135,0.470099 0,0 z m 0.58644,-4.188817 c 0.10568,0.684388 -1.61754,1.015917 -0.72627,0.356013 -0.0137,-0.417864 0.42285,-0.48382 0.72627,-0.356013 z m -3.4837,-5.906232 c -1.0137,0.341391 0.22157,-1.102873 0,0 z m 0.36303,0.30718 c -1.45527,0.613743 -0.44067,-0.532116 4e-5,1.5e-5 z m 0,0.593416 c -1.60204,0.302085 -0.31673,-0.698384 1.6e-4,-1e-5 z m -0.27227,2.757638 c -0.40505,-1.357106 1.34394,-3.489055 -0.17454,-4.314525 -1.36971,0.02203 0.16572,2.855295 -1.24259,1.612698 -1.68424,-0.300492 0.4173,3.197959 0.88658,0.886625 0.77289,0.07753 -1.00365,2.271216 0.53055,1.815202 z m -0.62833,1.144943 c -1.11365,0.261652 1.10827,0.829148 -1e-5,1e-6 z m 0.37002,-0.300199 c -0.6056,0.03363 0.24478,0.782586 0,0 z m 0.30019,-0.439825 c -2.01847,0.259344 -0.094,-0.126992 -0.0699,0.837772 -0.51962,1.055012 0.85353,-0.554192 0.0699,-0.837772 z m 1.89893,-2.436496 c -0.0893,-1.049979 -0.60391,0.885031 0,0 z m -0.0698,2.555179 c -0.10057,-0.636764 -0.29637,0.32341 0,0 z m -0.16755,-0.370012 c 1.06589,1.188555 -0.96153,-0.107725 -0.77491,-0.663212 2.01793,-0.265398 -0.81907,-0.185861 0.75405,-0.726054 -0.72568,-0.04657 -0.89078,0.01972 -0.12547,-0.530614 0.2001,-1.565399 0.39514,0.179235 0.78909,0.404976 -0.96164,-0.06655 0.49592,0.444176 -0.43291,0.411902 0.36795,1.258086 -1.44457,0.03236 -0.20985,1.103002 z m 1.55684,-0.809838 c -0.24744,0.853156 0.72549,2.940977 -0.39096,2.932166 -0.27102,-0.52205 -0.37412,-0.882297 -1.32651,-0.572465 -1.12189,-1.070687 -1.77919,1.038284 -2.84851,-0.342083 -0.46099,-0.327237 0.71529,-2.332445 -0.0837,-1.340405 -0.56831,-0.314411 -1.10166,-1.736768 -0.94244,-2.834421 -0.36056,-2.203492 -0.14864,0.115894 0.25814,-0.900586 1.59214,-2.152942 -0.34726,0.49326 0.35588,0.62832 0.59308,0.18874 0.71713,-0.452122 0.95668,-1.389299 2.75393,-0.40325 0.56209,3.621847 1.22864,5.096391 0.83486,2.009652 3.18748,3.84e-4 2.40167,-1.703428 0.34933,-1.211243 -0.7124,-2.909992 -0.0419,-3.83975 1.25081,-0.202533 -0.0722,1.759233 0.62847,2.352701 0.44796,-1.190304 -0.58786,1.965792 0.1535,0.698137 0.81872,-1.742904 -0.007,0.830329 -0.34896,1.214722 z m -3.35106,-10.1509 c -1.0137,0.341393 0.22157,-1.102876 0,0 z m 0.36303,0.30718 c -1.45528,0.613732 -0.44067,-0.532124 4e-5,-5e-6 z m 0,0.593416 c -1.60204,0.302085 -0.31673,-0.698384 1.6e-4,-10e-6 z m -0.27227,2.757638 c -0.40505,-1.357105 1.34394,-3.489054 -0.17454,-4.314525 -1.36972,0.02204 0.16573,2.855292 -1.24259,1.612698 -1.68423,-0.300492 0.4173,3.197951 0.88658,0.886635 0.77289,0.07751 -1.00365,2.271233 0.53055,1.815192 z m -0.62833,1.144943 c -1.11365,0.261652 1.10827,0.829148 -1e-5,1e-6 z m 0.37002,-0.300199 c -0.6056,0.03364 0.24479,0.782557 0,0 z m 0.30019,-0.439825 c -2.01847,0.259346 -0.094,-0.126994 -0.0699,0.837772 -0.51962,1.055012 0.85353,-0.554191 0.0699,-0.837772 z m 1.89893,-2.436495 c -0.0893,-1.049983 -0.60391,0.885029 0,0 z m -0.0698,2.555178 c -0.10057,-0.636763 -0.29637,0.323415 0,0 z m -0.16755,-0.370012 c 1.06589,1.188556 -0.96153,-0.107725 -0.77491,-0.663212 2.01793,-0.265377 -0.81907,-0.185856 0.75405,-0.726044 -0.72568,-0.04657 -0.89078,0.0197 -0.12547,-0.530624 0.2001,-1.565404 0.39514,0.179245 0.78909,0.404966 -0.96164,-0.06654 0.49591,0.44416 -0.43291,0.411892 0.36795,1.258106 -1.44457,0.03232 -0.20985,1.103022 z m 1.55684,-0.809838 c -0.24744,0.853159 0.72549,2.940979 -0.39096,2.932176 -0.27102,-0.522061 -0.37412,-0.882292 -1.32651,-0.572466 -1.1219,-1.070677 -1.7792,1.038299 -2.84851,-0.342073 -0.461,-0.32723 0.71529,-2.332441 -0.0837,-1.340415 -0.56831,-0.314411 -1.10166,-1.736768 -0.94244,-2.834421 -0.36056,-2.203491 -0.14864,0.115873 0.25814,-0.900595 1.59213,-2.152943 -0.34726,0.493257 0.35588,0.628318 0.59308,0.188747 0.71713,-0.452101 0.95668,-1.389289 2.75393,-0.403247 0.56209,3.621847 1.22864,5.096392 0.83487,2.009656 3.18748,3.71e-4 2.40167,-1.703438 0.34933,-1.211248 -0.7124,-2.909999 -0.0419,-3.83976 1.25081,-0.202511 -0.0722,1.75924 0.62847,2.352711 0.44796,-1.190304 -0.58786,1.965792 0.1535,0.698137 0.81872,-1.742903 -0.007,0.830325 -0.34896,1.214723 z M 129.0088,177.17207 c -0.98301,-1.57882 1.71128,0.46941 0,0 z m 0.58644,-4.18882 c 0.10556,0.68425 -1.6175,1.0158 -0.72627,0.35589 -0.0138,-0.41781 0.42301,-0.48402 0.72627,-0.35589 z m -3.10671,-4.58675 c -1.11922,1.26096 1.95191,0.15807 1.1e-4,1.8e-4 z m -0.35605,-0.1466 c 0.80756,-0.65793 2.38501,-0.0437 1.17286,-0.14635 -0.0874,0.90468 1.37281,-0.34627 0.71231,0.4467 0.79069,-0.01 -0.23194,0.75907 -0.67012,0.71897 -0.99552,-0.0362 0.57224,0.6951 -0.7468,0.2583 -0.53595,-0.1162 -1.01658,-0.92663 -0.46825,-1.27762 z m 2.48537,-1.41722 c -1.3785,-0.66661 -3.50073,-0.0832 -3.24634,1.78727 -0.48739,1.91906 1.08768,2.98553 2.91103,2.58304 1.66365,-0.0967 0.55021,-2.49661 0.69112,-3.62338 -0.076,-0.25657 -0.0374,-0.63664 -0.35581,-0.74693 z m 0.95644,-0.99834 c -0.21162,1.99494 0.01,4.06399 -0.035,6.15752 -0.45536,2.60794 -0.28033,-1.42252 -2.26895,-0.59332 -4.33122,1.74877 -2.07941,-1.63477 -2.37365,-4.18177 -0.97337,-2.54116 3.55906,0.40174 3.99336,-1.38239 h 0.68417 z m -3.92352,-4.01427 c 0.16964,1.09183 -0.56572,1.30639 -0.76792,0.54456 0.95717,-0.63881 0.28692,-2.36902 0.17427,-0.89367 -1.64049,-0.98857 1.57164,-1.6972 0.64911,0.14653 l -0.0558,0.20246 z m 1.32646,0.86568 c 0.82312,1.62091 -1.53859,-0.26716 -0.56552,-0.1397 0.0789,0.38798 0.43557,0.55088 0.56552,0.1397 z m 2.61801,-4.00032 c -0.0951,2.31253 -0.0855,4.80648 -0.0276,7.1489 -0.80484,0.15085 -1.31634,-1.90949 -2.10141,-0.1257 -0.91547,-0.73961 0.66231,-2.20988 -0.0208,-3.2605 -1.15238,-0.55241 0.26532,0.12417 0.0768,-0.62826 0.64321,-0.67665 -1.23769,-1.00782 -0.2513,-0.90057 0.8697,-0.20039 -0.7631,-1.91914 -0.83077,-0.5167 0.83139,1.13373 -1.53039,-0.79088 0.30013,-1.06101 1.53043,-0.57193 0.75484,2.26952 1.71032,1.34042 1.12181,0.44802 -0.77422,0.31597 -0.48168,1.05413 -0.0885,0.61455 1.47394,0.5507 0.35604,0.90063 -1.8607,0.58179 0.74651,3.02972 0.78883,0.71212 -0.0168,-1.5725 0.17894,-3.12491 -0.2303,-4.6635 0.23321,0.0267 0.49595,-0.0784 0.71175,4e-5 z m -0.58644,-1e-5 c -0.983,-1.57874 1.71129,0.46935 0,0 z m 0.58644,-4.18881 c 0.10543,0.68418 -1.61747,1.01567 -0.72627,0.3558 -0.0138,-0.41779 0.42317,-0.48416 0.72627,-0.3558 z m -1.57081,-4.78921 c 0.73994,-1.5591 0.55567,0.59445 0.90763,0.17442 -0.32081,-1.48076 1.29657,-1.18891 0.13965,0.27232 -0.62852,0.58455 -1.51911,-0.56652 -2.39448,-0.33525 -0.11556,-0.12355 1.13046,0.17262 1.3472,-0.11149 z m 0.43285,-0.44681 c -0.74009,0.38532 0.44275,0.54894 0,0 z m -3.73503,-2.96707 c 0.2766,-1.15193 -1.04095,0.17208 0,0 z m 1.25664,0.60039 c 0.38251,-1.26444 -1.31414,0.86412 0,0 z m 0.90758,0.19548 c -0.21948,-0.96166 -0.55449,0.71197 0,0 z m 0.51662,0.57247 c 1.09134,-0.71031 -0.75252,-0.83832 0,0 z m 0.27926,-2.68084 c -0.97851,1.10039 -0.1093,-2.32896 -0.15363,-0.2093 l 0.0907,0.0977 0.0628,0.1117 z m 0.3351,-0.53756 c 0.0179,0.59481 -0.55785,-0.3607 0,0 z m 0.61436,-0.70512 c -1.29404,-0.52417 -0.45431,-1.34802 -0.97739,-1.4383 -0.95935,-1.22304 -0.35076,-0.44202 0.50967,-0.14671 -0.19492,0.8798 -0.38663,0.38423 0.40503,1.35441 l 0.0628,0.11869 v 0.1117 z m -1.82912,-0.87965 c 0.20944,-0.53571 -0.15511,-2.24086 -0.90758,-1.39629 -0.20466,0.44301 0.5487,1.34918 0.90758,1.39629 z m -0.79587,-0.33511 c -0.99588,-1.68011 -2.22381,0.51375 0,0 z m -0.94947,2.23404 c 0.051,-2.68241 -1.26708,-2.08991 3e-5,3e-5 z m 0.36304,0.44681 c 1.40163,1.13374 2.21608,-2.5569 0.41879,-2.34588 -1.64583,-0.5369 -0.22747,3.3688 0.36295,1.3126 -1.66213,0.11373 1.77643,-0.51623 -0.44686,0.99142 l -0.17453,-0.0209 -0.16057,0.0628 z m 1.21475,0.34906 c 1.76778,0.0502 2.34151,-1.54325 0.41892,-2.12223 0.004,0.74835 -0.15034,1.47299 -0.41892,2.12223 z m 2.08045,-1.5359 c 0.96441,-1.79549 -3.11782,-4.3608 -1.6406,-1.131 0.0995,0.39427 1.11568,1.13736 1.6406,1.131 z m 0.30718,-0.41888 c -0.4617,4.06577 -6.47955,1.72493 -4.46109,-1.54981 1.3662,-1.97084 4.7032,-0.96552 4.46109,1.54981 z m 0.57247,-3.12067 c 0.002,2.84481 -0.12343,5.72685 -0.0698,8.46836 -0.95217,-0.88508 -3.03906,-0.22661 -2.55526,-1.43092 -0.60559,-0.28617 -1.7986,0.0594 -1.70336,-0.8378 -1.29994,-0.0576 -0.60341,-1.06521 -1.42432,-2.12249 -1.52492,-1.30858 0.55554,0.25646 0.92153,0.49548 1.32973,0.37941 -0.88012,0.41189 0.42581,1.09614 0.70661,0.45588 1.61311,0.26026 2.2061,0.6491 0.94919,-1.69756 0.76764,1.98838 1.62667,-0.75402 -0.0868,-1.886 -0.0318,-3.72055 -0.1537,-5.56415 0.20008,-0.0511 0.52967,-0.0417 0.72633,3e-4 z m -1.81515,-5.80151 c 0.98203,-0.72453 -1.16546,-0.45313 -1.02634,0.70509 0.3444,-0.22455 0.5023,-0.82111 1.02634,-0.70509 z m 1.82213,-1.3474 c -0.0795,2.1994 -0.0464,4.49969 -0.1259,6.68814 0.4887,1.12329 -1.39425,-0.0534 -1.85709,-0.0556 -2.43935,-1.00611 -3.96925,-3.8195 -3.8468,-6.37395 0.63024,1.46204 0.81206,3.75141 2.37354,4.4331 0.66352,-0.37564 0.53841,2.51052 1.96884,0.49587 0.59552,-1.32459 -1.46971,-2.48678 -2.30377,-1.89193 -1.36771,-0.81109 2.45879,-0.734 2.72274,0.6492 1.10079,0.50743 -1.49259,2.20486 0.0559,2.35968 0.96127,-1.28704 0.25244,-3.14802 0.62822,-4.69148 -0.0803,-0.6099 -0.90758,-2.01972 0.38435,-1.61299 z m -3.11369,-4.58676 c -1.11922,1.26096 1.95191,0.15807 1.1e-4,1.8e-4 z m -0.35605,-0.1466 c 0.80761,-0.65795 2.38499,-0.0436 1.17286,-0.14645 -0.0876,0.90502 1.37289,-0.34617 0.71231,0.447 0.79065,-0.01 -0.23192,0.75918 -0.67012,0.71907 -0.99551,-0.0361 0.57223,0.69494 -0.7468,0.25821 -0.53602,-0.11628 -1.01652,-0.92648 -0.46825,-1.27783 z m 2.48537,-1.41722 c -1.37847,-0.6666 -3.50074,-0.0832 -3.24634,1.78728 -0.48741,1.9191 1.08768,2.98542 2.91103,2.58284 1.66365,-0.0966 0.55021,-2.4966 0.69112,-3.62336 -0.076,-0.25651 -0.0375,-0.63698 -0.35581,-0.74676 z m 0.95644,-0.99833 c -0.21162,1.99494 0.01,4.064 -0.035,6.15753 -0.45538,2.60793 -0.28032,-1.42256 -2.26895,-0.59334 -4.33122,1.74877 -2.07941,-1.63477 -2.37365,-4.18177 -0.97337,-2.54118 3.55904,0.40193 3.99336,-1.38229 h 0.68417 z m -1.7942,-5.80152 c 0.98199,-0.72461 -1.16544,-0.45296 -1.02634,0.7052 0.34438,-0.22463 0.50235,-0.821 1.02634,-0.7052 z m 1.82213,-1.3474 c -0.0795,2.1994 -0.0464,4.49969 -0.1259,6.68814 0.4887,1.12328 -1.39426,-0.0534 -1.85709,-0.0556 -2.43939,-1.00611 -3.96925,-3.81957 -3.8468,-6.37405 0.63026,1.46207 0.81201,3.75149 2.37354,4.4332 0.66352,-0.37564 0.53841,2.51052 1.96884,0.49587 0.59552,-1.32459 -1.46971,-2.48678 -2.30377,-1.89192 -1.36767,-0.81089 2.45883,-0.73392 2.72274,0.64932 1.10079,0.50743 -1.49259,2.20486 0.0559,2.35968 0.96127,-1.28704 0.25244,-3.14802 0.62822,-4.69148 -0.0804,-0.61013 -0.90749,-2.01955 0.38435,-1.61311 z m -3.56049,-6.04586 c -1.01383,0.34127 0.22175,-1.10279 0,0 z m 0.40492,0.46775 c -1.5027,0.58211 -0.31215,-0.58016 -4e-5,1.8e-4 z m 0.0279,0.57247 c -1.57509,0.34974 -0.26791,-0.70997 2.2e-4,-1.2e-4 z m -0.27227,2.75764 c -0.40507,-1.35711 1.34379,-3.48905 -0.17463,-4.31455 -1.27797,-0.12239 0.0467,2.65141 -1.14507,1.62681 -1.82736,-0.55667 0.25824,3.27244 0.73319,0.90049 0.79953,0.35683 -0.9451,2.12004 0.58651,1.78725 z m -0.62832,1.14495 c -1.11372,0.26152 1.10821,0.82929 9e-5,8e-5 z m 0.37001,-0.3002 c -1.00255,0.33789 0.32964,0.4609 0,0 z m 0.3002,-0.43983 c -2.01857,0.2593 -0.0936,-0.127 -0.0697,0.83776 -0.51977,1.05494 0.85382,-0.55375 0.0697,-0.83776 z m 1.89893,-2.15724 c -0.0892,-1.05009 -0.60376,0.88526 0,0 z m -0.0698,2.55518 c -0.10061,-0.63664 -0.29633,0.32336 0,0 z m -0.16755,-0.37001 c 1.06588,1.18853 -0.96147,-0.10765 -0.7749,-0.66309 2.01784,-0.26548 -0.8192,-0.1858 0.75396,-0.72603 -0.72572,-0.0463 -0.89071,0.02 -0.12547,-0.53041 0.20005,-1.56532 0.39506,0.17927 0.78879,0.40496 -0.96175,-0.0665 0.49573,0.44401 -0.43291,0.4119 0.36824,1.25792 -1.44479,0.0326 -0.20947,1.10267 z m 1.69647,-5.33376 c -0.23857,2.33148 -0.0796,4.90168 -0.0279,7.1767 -1.13734,0.43567 -0.27933,-1.1362 -1.32652,-0.61453 -1.28619,-0.14385 -1.6571,-0.27582 -2.79267,0.17419 -1.21483,-0.30627 -0.27608,-1.67479 -0.40491,-2.15708 -0.46696,0.98363 -1.14103,-0.86477 -1.17958,-1.76598 -0.10729,-0.7751 -0.2734,-2.91458 -10e-5,-1.12407 0.92358,-1.42732 0.83133,-1.21821 0.34205,0.19545 0.44618,-0.33343 1.12618,0.41306 0.95632,-0.82378 1.88333,-2.44481 2.01874,2.32323 1.31953,3.5745 -0.42019,2.44122 3.46776,2.05761 2.60417,-0.34903 0.19402,-1.44919 -0.48014,-2.94421 -0.1746,-4.32847 0.23053,0.11273 0.46977,-0.0757 0.68421,0.0421 z m -0.10472,-0.014 c -2.20537,0.0598 -5.96523,-0.41623 -6.53461,-2.8274 0.0141,-2.56095 0.30171,-2.04797 0.45404,0.28624 0.98212,2.00073 3.90195,1.92205 5.84341,2.14307 l 0.23737,0.1885 v 0.20944 z m -5.53622,-4.01428 c -0.54465,-0.66445 -0.57696,1.06074 0,0 z m 1.80119,0.1117 c -0.84326,-0.62016 -0.43219,0.81095 0,0 z m 1.31948,-0.0698 c -0.45864,-0.75975 -0.90094,0.74965 0,0 z m 1.22872,0.0838 c -0.33452,-1.56848 -1.27589,1.04846 0,0 z m 1.29853,-3.31615 c -0.26223,2.33601 0.11152,4.92875 -0.0981,7.19785 -1.55741,0.12623 0.3481,-2.17673 -0.46066,-2.84823 -0.41531,-1.97197 -1.64378,1.43406 -1.94797,0.11873 1.322,-0.75367 -0.59106,-1.20574 -1.16582,-0.69107 -1.24292,0.10607 -1.33541,-0.74322 -2.56219,-0.13963 -0.27521,-1.27478 1.69624,-0.45324 2.54114,-0.60731 0.9538,-0.0889 0.45503,-1.02306 -0.1048,-0.5446 1.14113,-0.52634 -0.29792,-0.55996 -0.46079,1.6e-4 -1.2726,0.20114 -0.16993,-0.54335 0.88671,-0.8101 0.27346,0.12718 0.78398,0.29266 0.91445,0.61436 -1.3984,0.0136 0.90327,1.1625 0.77492,0.0559 0.0168,-0.87529 0.56253,0.46341 0.93555,0.32793 0.55771,-0.62551 -0.89372,-3.1379 0.74756,-2.67397 z m -0.18849,0.0768 c 0.0689,-0.0441 0.37793,-0.16067 0,0 z m 0.13962,-7.225705 c -0.2807,2.298821 0.24897,5.109005 -0.14657,7.218755 -0.43983,-1.27232 -1.80148,-0.73575 -3.69293,-0.0908 -1.09808,-1.13396 0.8003,0.2175 0.76791,-1.01915 -1.1695,-1.42164 -0.31416,-0.5448 0.27229,-0.53041 -0.0201,-1.71556 -1.0038,-4.570786 0.82376,-5.578087 0.35996,0.910308 -1.68453,3.053867 -0.41194,5.047537 0.78485,2.98823 0.13931,-1.98239 0.47469,-2.946076 1.0255,-1.307961 -0.61803,3.676716 1.14501,2.590156 -0.0955,3.4853 0.58039,-3.255113 0.0976,-4.691471 l 0.31416,-0.181515 0.35605,0.181515 z m -0.55153,5e-6 c -0.98313,-1.579415 1.71133,0.470106 0,0 z m 0.58644,-4.188817 c 0.10563,0.684327 -1.61751,1.015948 -0.72627,0.356023 -0.0137,-0.417871 0.42285,-0.483808 0.72627,-0.356023 z m -5.63396,-3.958432 c -0.54464,-0.664443 -0.57699,1.060614 0,0 z m 1.80119,0.111702 c -0.84321,-0.620209 -0.43224,0.811064 0,0 z m 1.31948,-0.06981 c -0.45844,-0.759804 -0.90123,0.749325 0,0 z m 1.22872,0.08378 c -0.33441,-1.568351 -1.27603,1.048256 0,0 z m 1.29853,-3.316146 c -0.26223,2.335971 0.11152,4.92874 -0.0981,7.197793 -1.55739,0.125854 0.34808,-2.17677 -0.46066,-2.848388 -0.41533,-1.971981 -1.64383,1.434146 -1.94797,0.118636 1.32201,-0.753701 -0.59107,-1.206004 -1.16582,-0.69117 -1.24291,0.106143 -1.33545,-0.743195 -2.56219,-0.139606 -0.27519,-1.27473 1.69623,-0.453248 2.54114,-0.607371 0.95381,-0.08886 0.45503,-1.023008 -0.1048,-0.544602 1.14107,-0.526533 -0.29779,-0.560109 -0.46079,1.1e-5 -1.27257,0.201212 -0.16997,-0.543064 0.88671,-0.809814 0.27344,0.127118 0.78391,0.292794 0.91445,0.614358 -1.39836,0.01367 0.90316,1.16227 0.77492,0.05584 0.0169,-0.875389 0.56241,0.463585 0.93555,0.328103 0.5577,-0.625376 -0.89371,-3.138096 0.74756,-2.673786 z m -0.1117,-0.01397 c -2.20537,0.05978 -5.96518,-0.416117 -6.53461,-2.827452 0.0141,-2.560933 0.3017,-2.047963 0.45404,0.286238 0.98212,2.000762 3.90197,1.922072 5.84341,2.143284 l 0.23737,0.188497 v 0.209441 z m -0.0768,0.02094 c 0.0689,-0.04406 0.37792,-0.160707 0,0 z m 0.13962,-7.225709 c -0.28071,2.29881 0.24898,5.108971 -0.14657,7.218723 -0.43984,-1.272353 -1.80144,-0.73556 -3.69293,-0.09074 -1.09806,-1.133826 0.80033,0.217436 0.76791,-1.019248 -1.16946,-1.42178 -0.31419,-0.544854 0.27229,-0.530562 -0.0201,-1.715562 -1.0038,-4.57079 0.82376,-5.578089 0.35996,0.910296 -1.68453,3.053845 -0.41194,5.047526 0.78486,2.988265 0.1393,-1.982427 0.47469,-2.946141 1.02551,-1.308025 -0.61806,3.676883 1.14501,2.590089 -0.0955,3.485303 0.58039,-3.255115 0.0976,-4.691474 l 0.31416,-0.181516 0.35605,0.181516 z m -5.59905,-3.958433 c -0.54464,-0.664438 -0.57698,1.060613 0,0 z m 1.80119,0.111702 c -0.84321,-0.620206 -0.43223,0.811065 0,0 z m 1.31948,-0.06981 c -0.45844,-0.759806 -0.90123,0.749323 0,0 z m 1.22872,0.08378 c -0.33441,-1.568349 -1.27602,1.04825 0,0 z m 1.29853,-3.316147 c -0.26223,2.335971 0.11152,4.92874 -0.0981,7.197792 -1.55739,0.125812 0.34808,-2.176782 -0.46066,-2.848417 -0.41533,-1.971969 -1.64382,1.434115 -1.94797,0.118659 1.32201,-0.75369 -0.59109,-1.205975 -1.16582,-0.69115 -1.24291,0.106152 -1.33544,-0.74322 -2.56219,-0.139606 -0.2752,-1.274755 1.69622,-0.453257 2.54114,-0.607401 0.95378,-0.08883 0.45506,-1.023007 -0.1048,-0.544562 1.14107,-0.526534 -0.29779,-0.560111 -0.46079,1.1e-5 -1.27257,0.201196 -0.16997,-0.543059 0.88671,-0.809814 0.27344,0.127124 0.78391,0.292793 0.91445,0.614357 -1.39836,0.01365 0.90316,1.16229 0.77492,0.05585 0.0169,-0.875396 0.5624,0.463622 0.93555,0.328122 0.55771,-0.625443 -0.89372,-3.137969 0.74756,-2.673845 z m -2.06648,-2.359707 c -1.01984,0.824383 -0.37425,-1.317338 0,0 z m 2.06648,-4.621661 c -0.25108,2.325709 0.0654,4.799229 -0.0978,7.044191 -0.83329,-0.401299 -1.52864,-0.128543 -2.49239,-0.12562 -2.27321,-0.535978 -3.68381,-3.164142 -3.63722,-5.354696 0.56386,1.261743 0.84713,3.329515 2.23401,3.749014 -0.15361,1.126506 1.9007,0.9443 0.32106,0.118683 -1.41072,-1.228347 -2.2998,-3.268225 -2.15036,-5.152241 0.66231,1.48047 0.85354,3.893481 2.54813,4.363326 -0.32558,0.951206 1.5411,1.637874 1.71026,0.411922 0.58307,-1.278273 -1.68663,-2.612956 -2.35978,-1.780258 0.37144,-1.271768 2.62992,-0.108798 2.91802,0.816791 0.35721,0.5696 -1.52299,2.192591 -0.0838,2.066477 0.9829,-1.848793 0.23664,-4.263496 0.48153,-6.199451 0.20213,0.121424 0.44065,-0.09638 0.60835,0.04186 z m -4.1958,-3.909562 c -0.451,-0.136521 -0.85139,-2.96739 -1.04729,-0.684175 0.42235,0.281514 -0.92456,-0.387043 0.52371,-1.640627 0.73643,-0.13423 0.16236,1.809708 0.52358,2.324802 z m 1.00532,3.169538 c -1.44063,0.829745 -2.51459,-3.24983 -1.31247,-0.726062 0.26717,0.713998 1.50163,0.02308 1.31247,0.726062 z m 0.27925,-0.61436 c -1.50672,0.735673 -2.45865,-3.325536 -1.34753,-0.760952 0.23158,0.865412 1.66363,-0.0099 1.34753,0.760952 z m 1.24269,-0.125665 c -0.9893,-0.189658 0.55487,1.139677 0,0 z m -1.32646,-3.295202 c -0.19804,-0.499015 -0.33097,0.579031 0,0 z m 2.09441,-0.446807 c 1.13516,0.687046 -2.39505,-2.57564 -1.99663,0.15358 -0.19722,1.78013 -0.89344,-0.467344 -0.16046,-1.200806 0.73347,-1.074554 2.44672,-0.204365 2.15709,1.047226 z m 0.90757,-1.759303 c -0.27069,2.186601 0.17428,5.197666 -0.22339,7.009281 -1.72981,-0.217799 0.46563,-2.865616 -0.69823,-3.804851 -0.73679,0.395941 -1.05791,1.586976 -0.32098,2.129286 0.1158,2.111179 -1.29524,0.239927 -1.4799,-0.614362 -0.864,-0.226294 -0.65991,-0.70621 -1.06106,-1.647634 -0.93767,-0.702134 0.74952,-2.323562 0.0979,-0.984369 0.94026,2.251092 0.87536,-1.199708 1.41027,-0.286214 -0.32602,0.927565 -1.07559,3.568241 0.54461,1.773264 0.66509,-1.692209 0.0558,-1.710385 1.1591,-1.242678 -0.18751,-0.641902 -0.62313,-2.760165 0.57164,-2.331723 z m -0.60738,-2e-6 c -0.98313,-1.579414 1.71132,0.470103 0,0 z m 0.58644,-4.188816 c 0.10563,0.684328 -1.61751,1.015949 -0.72627,0.356024 -0.0137,-0.417871 0.42285,-0.483804 0.72627,-0.356024 z m -2.80651,-4.817138 c -0.71333,-1.212318 -0.79465,0.93209 -0.4049,1.410221 0.0645,0.828129 0.88412,-0.102285 0.11871,-0.237353 -0.28967,-0.427298 -0.16322,-0.932147 0.28619,-1.172868 z m 0.42586,0.670211 c -0.28637,-0.418572 -0.19233,0.537085 0,0 z m 2.3597,-3.001986 c -0.0484,2.234978 -0.0596,4.56831 -0.0557,6.806829 -0.28052,1.411249 -0.62314,-1.086664 -1.24262,-0.188498 -1.37786,0.640169 -2.17797,-0.46852 -2.11544,-1.640638 -0.77772,-0.710332 -1.18217,-2.009589 -0.47483,-3.064801 -0.13758,-0.835984 -0.26086,-1.376852 0.78187,-0.753996 1.58451,0.652312 1.70191,2.755438 0.41885,3.776941 -1.17936,1.679139 2.28367,2.029715 1.80131,0.223409 -2.1833,0.734175 -0.27344,-0.425701 0.44683,-0.383978 -0.28567,-1.416232 0.43139,-3.038616 -0.3002,-4.258625 -0.78627,0.410036 -1.22975,1.919241 -0.28633,1.368332 -1.54041,1.112608 -0.68319,-1.961096 0.51665,-1.898929 0.16695,0.09624 0.36606,-0.116587 0.50961,0.01395 z m -1.24268,-2.296869 c 0.63971,0.647991 -0.87147,1.264278 -1.28457,1.019301 0.8265,0.04453 0.83042,-0.780251 1.28457,-1.019301 z m 1.34042,-4.684493 c -0.39221,1.686841 0.12416,3.492264 -0.18892,5.201124 -0.0288,0.632481 0.46571,2.493932 -0.55868,1.570807 -1.3e-4,-1.066863 0.72293,-3.045863 -1.13106,-2.687866 -0.5925,-0.430161 -2.24944,-1.476624 -2.01056,-0.356003 1.34979,-0.450267 0.71806,1.374798 0.56555,0.614365 0.52242,-0.460324 -1.17002,-0.315607 -1.40321,-0.544541 -1.13355,1.186037 3.78544,1.573959 0.23052,1.228728 -1.89848,-0.444104 -0.90202,-1.311196 -0.0768,-2.206142 0.98022,-0.780698 -0.54735,-0.614432 -0.48176,0.251318 -1.3785,0.462771 -2.38127,-1.163002 -0.41882,-0.237354 0.17038,-0.904879 1.82943,-1.557414 1.73157,-0.19544 1.10454,-0.373176 1.06361,-1.517344 -0.12568,-1.396292 -1.07153,-0.348285 -2.02503,-0.393176 -0.41887,-0.544581 0.59094,0.648015 3.39323,0.204565 1.78727,1.312543 -1.88705,0.576263 0.21339,1.49869 1.11702,1.731362 1.38798,-0.677333 -0.85964,0.25611 -0.0559,-0.837773 1.79405,0.12758 0.0796,-1.765661 0.63521,-2.687823 -0.13192,-0.416669 0.61068,-0.204229 0.80307,-0.216432 z m -5.71075,-3.958432 c -0.54464,-0.664445 -0.57699,1.060619 0,0 z m 1.80119,0.111702 c -0.84321,-0.620206 -0.43223,0.811065 0,0 z m 1.31948,-0.06981 c -0.45844,-0.759804 -0.90123,0.749325 0,0 z m 1.22872,0.08378 c -0.33441,-1.568352 -1.27602,1.048251 0,0 z m 1.29853,-3.316147 c -0.26223,2.335971 0.11152,4.92874 -0.0981,7.197793 -1.55739,0.125854 0.34808,-2.17677 -0.46066,-2.848388 -0.41533,-1.971981 -1.64383,1.434146 -1.94797,0.118636 1.32201,-0.75369 -0.59109,-1.205974 -1.16582,-0.691151 -1.24291,0.106144 -1.33545,-0.7432 -2.56219,-0.139595 -0.27519,-1.274747 1.69623,-0.453253 2.54114,-0.60738 0.95381,-0.08887 0.45503,-1.022974 -0.1048,-0.544571 1.14107,-0.526533 -0.29779,-0.560109 -0.46079,1.1e-5 -1.27257,0.201203 -0.16997,-0.543044 0.88671,-0.809804 0.27345,0.127157 0.78391,0.292792 0.91445,0.614368 -1.39836,0.01365 0.90316,1.16229 0.77492,0.05586 0.0169,-0.875388 0.56241,0.463586 0.93555,0.328103 0.55771,-0.625483 -0.89373,-3.137897 0.74756,-2.673878 z m -0.18849,0.07679 c 0.0689,-0.04406 0.37792,-0.160707 0,0 z m 0.13962,-7.225709 c -0.28071,2.29881 0.24898,5.108971 -0.14657,7.218723 -0.43984,-1.272352 -1.80144,-0.735557 -3.69293,-0.09074 -1.09806,-1.133825 0.80033,0.217437 0.76791,-1.019247 -1.16946,-1.421778 -0.31419,-0.544857 0.27229,-0.530563 -0.0201,-1.715562 -1.0038,-4.57079 0.82376,-5.57809 0.35996,0.910296 -1.68453,3.053845 -0.41194,5.047526 0.78486,2.988265 0.1393,-1.982427 0.47469,-2.946141 1.02551,-1.308026 -0.61805,3.67687 1.14501,2.59008 -0.0955,3.485301 0.58039,-3.255116 0.0976,-4.691475 l 0.31416,-0.181515 0.35605,0.181515 z m 12.67765,149.610568 c -0.98306,-1.57926 1.71155,0.46986 0,0 z m 0.58643,-4.18882 c 0.10554,0.68424 -1.61764,1.01581 -0.72636,0.35589 -0.0137,-0.41786 0.42305,-0.48399 0.72636,-0.35589 z m -0.0977,-0.0139 c -2.20528,0.0596 -5.9652,-0.41587 -6.53451,-2.82751 0.014,-2.56091 0.30171,-2.048 0.45404,0.28624 0.98213,2.00073 3.90195,1.92208 5.84342,2.14309 l 0.23736,0.18849 v 0.20945 z m -5.53622,-4.08411 c -0.54424,-0.66468 -0.57758,1.06094 0,0 z m 1.80119,0.25133 c -0.84285,-0.62018 -0.43265,0.81092 0,0 z m 1.31948,-0.13963 c -0.42844,-0.76804 -0.86339,0.76637 0,0 z m 1.22872,0.0838 c -0.25988,-1.54133 -1.41837,1.14002 0,0 z m 1.28457,3.83277 c -1.39908,0.35875 -0.2748,-1.54629 -0.4536,-2.26184 0.11663,-2.00472 -1.59434,-0.52831 -1.9899,-0.0139 -0.27064,-0.43008 1.13305,-1.60584 -0.39795,-1.18665 -0.92064,0.0346 -1.7632,0.24171 -2.33185,-0.356 -1.73135,0.99745 -1.04844,-1.09391 0.23035,-0.38408 0.65524,0.11746 2.37443,0.27726 1.61951,-0.88661 -1.37588,0.61354 0.50281,-0.41336 -0.34228,-0.25129 -0.54688,0.38231 -1.85663,0.76981 -0.94235,0.007 0.78537,-0.0557 1.37927,-0.84476 1.74528,-0.063 0.91238,-0.0575 -1.03058,0.86325 0.67718,1.15187 0.88373,0.012 0.20762,-1.02338 0.95647,-0.81684 0.59449,1.8362 0.64496,-1.285 0.48891,-1.98981 1.2798,-0.67536 0.43537,1.19598 0.66296,1.89183 0.14048,1.01517 -0.15063,2.74821 0.1397,3.36502 0.53382,-1.362 -0.42343,1.41962 0.30003,0.50263 0.59602,-1.81903 0.0526,1.08764 -0.36246,1.29186 z m -0.58643,-7.14894 c -0.98295,-1.57875 1.71149,0.46937 0,0 z m 0.58643,-4.18881 c 0.10541,0.68417 -1.61761,1.01567 -0.72636,0.3558 -0.0138,-0.41783 0.42318,-0.48413 0.72636,-0.3558 z m -5.63396,-3.95843 c -0.54424,-0.66468 -0.57758,1.06094 0,0 z m 1.80119,0.1117 c -0.84287,-0.62017 -0.43262,0.81092 0,0 z m 1.31948,-0.0698 c -0.45866,-0.75976 -0.90093,0.74968 0,0 z m 1.22872,0.0838 c -0.33456,-1.56848 -1.27586,1.04849 0,0 z m 1.29853,-3.31614 c -0.26223,2.336 0.11152,4.92875 -0.0981,7.19785 -1.55745,0.12618 0.34822,-2.17695 -0.46076,-2.84833 -0.41531,-1.97197 -1.64378,1.43405 -1.94797,0.11872 1.32203,-0.75359 -0.59106,-1.20617 -1.16581,-0.69118 -1.24297,0.1062 -1.33541,-0.74313 -2.56219,-0.13954 -0.2752,-1.27479 1.6963,-0.45323 2.54123,-0.60731 0.95388,-0.0889 0.45499,-1.0232 -0.1049,-0.5448 1.14096,-0.5264 -0.29803,-0.55994 -0.4609,1.4e-4 -1.2726,0.20114 -0.16994,-0.54336 0.88671,-0.8101 0.27341,0.12705 0.78405,0.29281 0.91457,0.61434 -1.39842,0.0135 0.90325,1.16214 0.77491,0.0556 0.0168,-0.87533 0.56249,0.46353 0.93554,0.32803 0.55775,-0.62489 -0.8934,-3.13933 0.74767,-2.6734 z m -0.0489,-7.14895 c -0.20307,1.09482 0.0706,2.37583 -0.1535,3.59545 -0.0932,0.98954 0.78599,3.36974 -0.27219,3.56745 0.23478,-2.05699 -1.91593,-2.68539 -3.81181,-1.55699 -0.51294,2.16401 -1.2446,-0.8345 1.1e-4,-2.01764 -0.46607,-0.86263 -0.75398,-2.26365 0.62127,-3.07179 1.59393,0.31203 -2.48676,1.88084 0.0628,2.69478 -0.0352,-1.72478 1.15918,-0.67007 0.0279,0.3839 -2.30239,1.34076 0.26385,2.14 1.71736,0.99134 2.04008,1.03634 1.30377,-1.88178 1.08221,-3.12761 0.25104,-0.50071 -0.5096,-2.04811 0.72592,-1.45889 z m -0.13962,0.0768 c 0.0689,-0.0441 0.37793,-0.16068 0,0 z m 0.13962,-7.22571 c -0.28061,2.29881 0.2488,5.10905 -0.14646,7.21876 -0.43985,-1.27227 -1.80143,-0.7356 -3.69294,-0.0907 -1.09819,-1.13391 0.80053,0.21742 0.76781,-1.01916 -1.16952,-1.42163 -0.31414,-0.5448 0.27229,-0.53042 -0.02,-1.71539 -1.0039,-4.57091 0.82364,-5.57792 0.35996,0.9103 -1.68455,3.05388 -0.41195,5.04753 0.78486,2.98825 0.13931,-1.98244 0.47468,-2.94615 1.02548,-1.30805 -0.61804,3.67673 1.14499,2.59016 -0.0954,3.48529 0.58026,-3.25506 0.0978,-4.69147 -0.0289,-0.69009 0.71261,0.25131 0.6701,-6.6e-4 z m -3.90956,-4.01428 c 0.16958,1.09179 -0.56559,1.3064 -0.76782,0.54455 0.95708,-0.63846 0.28702,-2.36927 0.17438,-0.89368 -1.64044,-0.98853 1.5715,-1.69724 0.64921,0.14652 l -0.0558,0.20246 z m 1.32646,0.86569 c 0.82334,1.62083 -1.53855,-0.26706 -0.56541,-0.13963 0.0789,0.38786 0.43538,0.55107 0.56541,0.13963 z m 2.61801,-4.00032 c -0.0951,2.31253 -0.0855,4.80648 -0.0276,7.14891 -0.80482,0.15089 -1.31626,-1.90952 -2.1012,-0.1257 -0.91542,-0.73958 0.66219,-2.20983 -0.0209,-3.26041 -1.15242,-0.55242 0.26543,0.12422 0.0767,-0.62835 0.64312,-0.67662 -1.23759,-1.00792 -0.2512,-0.90047 0.86972,-0.20038 -0.76312,-1.91917 -0.83077,-0.51671 0.83139,1.13374 -1.53039,-0.79086 0.30013,-1.061 1.53043,-0.57193 0.75483,2.26949 1.71032,1.34042 1.1218,0.44801 -0.77421,0.31597 -0.48168,1.05412 -0.0885,0.61444 1.47372,0.55102 0.35594,0.90054 -1.86063,0.58174 0.74641,3.02972 0.78875,0.71212 -0.0168,-1.5725 0.17895,-3.12491 -0.2303,-4.6635 0.23319,0.0267 0.49601,-0.0783 0.71173,3e-5 z m -0.0977,-0.014 c -2.20528,0.0598 -5.96529,-0.41612 -6.53451,-2.8274 0.0141,-2.56095 0.30171,-2.04797 0.45404,0.28624 0.98213,2.00072 3.90196,1.92205 5.84342,2.14307 l 0.23736,0.1885 v 0.20944 z m 0.10472,-7.03721 c -0.14128,2.26805 0.0663,4.90336 -0.1119,7.03706 -1.84848,0.29956 0.53133,-2.60486 -0.94948,-2.90402 -1.0479,-0.38818 -1.71596,0.10665 -1.84306,-0.6702 -1.27015,-0.7208 -1.34707,0.58084 0.0629,0.5864 -0.96298,0.99792 -0.003,-0.2172 -1.36128,-0.0978 -2.01926,-0.38788 0.71304,1.56847 1.68956,1.25646 -1.01701,0.0546 -2.73816,-0.14636 -3.16952,-1.01231 0.16998,-0.79535 2.10108,-1.69045 1.18674,-2.04549 -0.34489,0.63285 -0.7541,1.67305 -2.05263,0.69814 0.18679,-0.0309 1.49388,-0.51639 2.27584,-0.99147 0.20368,1.30274 1.9435,0.1307 1.17276,-0.41898 -0.83982,0.32323 -0.001,0.0377 -0.99137,-0.27915 -0.30019,-0.29183 -1.42379,-0.18903 -0.58647,-0.4191 0.53094,-0.0877 1.26644,0.67824 1.59156,-0.2373 0.62999,-0.33272 0.53991,0.4451 -0.16748,0.64234 1.33342,-0.17533 1.83302,0.62484 0.26525,1.18671 -1.01416,0.13376 0.57044,1.30162 0.57969,0.60047 0.0627,-0.81158 1.4033,0.0974 0.32803,0.16753 -1.03819,0.4283 1.96881,1.19552 1.04721,0.0698 -0.54363,0.85479 -0.69301,-0.29932 0.4398,-0.36311 0.22301,-0.84316 -0.53054,-2.52883 0.25857,-2.80668 0.11139,0.004 0.22979,-0.0657 0.33529,7.2e-4 z m -3.56049,-6.04586 c -1.01383,0.34127 0.22175,-1.10279 0,0 z m 0.40492,0.46775 c -1.50262,0.5822 -0.31221,-0.58023 -1.4e-4,9e-5 z m 0.0279,0.57248 c -1.57511,0.34972 -0.26788,-0.70999 2.2e-4,-1.2e-4 z m -0.27227,2.75763 c -0.40505,-1.35712 1.34396,-3.48905 -0.17454,-4.31455 -1.27795,-0.1224 0.047,2.65142 -1.14488,1.62681 -1.82735,-0.55668 0.25796,3.27244 0.73299,0.90049 0.79953,0.35677 -0.94506,2.12004 0.58643,1.78725 z m -0.62832,1.14495 c -1.1136,0.26161 1.10802,0.82924 -2e-4,-1e-5 z m 0.37001,-0.3002 c -1.00255,0.33788 0.32964,0.4609 0,0 z m 0.3002,-0.43983 c -2.01846,0.25924 -0.094,-0.12693 -0.0699,0.83777 -0.51966,1.05479 0.85373,-0.55404 0.0699,-0.83777 z m 1.89893,-2.15724 c -0.0892,-1.05005 -0.60375,0.88525 0,0 z m -0.0698,2.55518 c -0.10061,-0.63665 -0.29633,0.32336 0,0 z m -0.16755,-0.37001 c 1.06588,1.18854 -0.96147,-0.10765 -0.7749,-0.66309 2.01796,-0.26547 -0.81907,-0.18576 0.75406,-0.72612 -0.72575,-0.0463 -0.8907,0.0198 -0.12548,-0.53051 0.2002,-1.56533 0.395,0.17923 0.78878,0.40496 -0.96172,-0.0664 0.49577,0.44405 -0.43301,0.41191 0.36842,1.25798 -1.44507,0.0323 -0.20945,1.10285 z m 1.69647,-5.33376 c -0.23851,2.33149 -0.0798,4.9016 -0.0278,7.17669 -1.13733,0.43565 -0.27933,-1.13621 -1.32652,-0.61453 -1.28613,-0.14395 -1.65704,-0.2756 -2.79257,0.1743 -1.2148,-0.30633 -0.27611,-1.67486 -0.40491,-2.15718 -0.46715,0.98363 -1.14107,-0.86474 -1.17968,-1.76599 -0.10727,-0.77499 -0.27315,-2.9147 -1e-4,-1.12407 0.92365,-1.42733 0.83122,-1.21823 0.34206,0.19546 0.44616,-0.33346 1.12645,0.41313 0.95652,-0.82378 1.88333,-2.44481 2.01874,2.32323 1.31953,3.5745 -0.4202,2.4412 3.46768,2.05763 2.60407,-0.34903 0.19402,-1.4492 -0.48014,-2.94421 -0.1746,-4.32847 0.23043,0.11272 0.47009,-0.0757 0.684,0.0421 z m -0.007,-7.16288 c -0.0833,2.23151 0.018,4.5529 -0.0699,6.84173 -0.48434,1.26158 -1.1614,-1.04098 -0.80967,-1.83604 0.57316,-2.08899 -3.02716,-0.36239 -3.88164,0.55163 0.79425,1.46385 4.81094,-1.40424 2.94611,0.31416 -1.10377,0.0671 -4.04001,1.15714 -3.71414,-0.44675 1.26078,-2.24224 6.42241,-1.76838 1.50799,-2.29703 -0.62176,-0.70235 -1.9016,-1.42397 -1.61275,-2.47836 1.35725,0.41812 2.1935,0.005 3.80473,0.4815 1.7713,1.56052 -1.57929,-0.51886 -2.65291,0.25128 0.53762,1.22963 2.98281,2.02339 3.93053,1.24973 0.169,-0.81709 -1.01342,-3.20117 0.5516,-2.63185 z m -0.58643,0 c -0.98306,-1.57965 1.71159,0.47033 0,0 z m 0.58643,-4.18881 c 0.10555,0.68424 -1.61764,1.0158 -0.72636,0.3559 -0.0138,-0.41787 0.42305,-0.484 0.72636,-0.3559 z m -3.55351,-6.045865 c -1.01383,0.341313 0.22175,-1.102811 0,0 z m 0.40492,0.467751 c -1.50263,0.582084 -0.31223,-0.580221 -1.4e-4,5e-6 z m 0.0279,0.572474 c -1.57511,0.34976 -0.26788,-0.709804 2.2e-4,0 z m -0.27227,2.75763 c -0.40506,-1.3571 1.34396,-3.489058 -0.17454,-4.314519 -1.27794,-0.122432 0.047,2.651429 -1.14488,1.626809 -1.82734,-0.55663 0.25791,3.27255 0.73299,0.90059 0.79953,0.35668 -0.94507,2.12024 0.58643,1.78712 z m -0.62832,1.14495 c -1.11362,0.26156 1.10798,0.82925 -2e-4,9e-5 z m 0.37001,-0.3002 c -1.00238,0.338 0.32862,0.46092 0,0 z m 0.3002,-0.43983 c -2.0185,0.25934 -0.0939,-0.127 -0.0699,0.83786 -0.51966,1.0548 0.85372,-0.55419 0.0699,-0.83786 z m 1.89893,-2.15724 c -0.0892,-1.05009 -0.60376,0.88525 0,0 z m -0.0698,2.55518 c -0.10061,-0.63665 -0.29633,0.32336 0,0 z m -0.16755,-0.37001 c 1.06588,1.18854 -0.96147,-0.10765 -0.7749,-0.66309 2.01795,-0.26539 -0.81907,-0.18562 0.75406,-0.72602 -0.72573,-0.0463 -0.89073,0.02 -0.12548,-0.53041 0.2002,-1.565331 0.395,0.17923 0.78878,0.40496 -0.96171,-0.0664 0.49576,0.44403 -0.43301,0.4119 0.36833,1.25789 -1.44507,0.0326 -0.20945,1.10266 z m 1.69647,-5.33376 c -0.2385,2.33153 -0.0798,4.90168 -0.0278,7.17681 -1.13726,0.43559 -0.2794,-1.136 -1.32652,-0.61433 -1.28625,-0.14395 -1.65696,-0.27572 -2.79257,0.1743 -1.21483,-0.30627 -0.27608,-1.6748 -0.40491,-2.15708 -0.46714,0.98357 -1.14105,-0.86488 -1.17968,-1.76609 -0.10728,-0.775022 -0.27314,-2.914729 -1e-4,-1.124006 0.92361,-1.427377 0.83126,-1.218213 0.34206,0.195478 0.44615,-0.333603 1.1264,0.413158 0.95652,-0.823816 1.88333,-2.44488 2.01874,2.323184 1.31953,3.574454 -0.4202,2.4412 3.46768,2.05763 2.60407,-0.34903 0.19402,-1.44919 -0.48014,-2.944221 -0.1746,-4.328463 0.23045,0.112736 0.46993,-0.07533 0.684,0.04177 z m -0.0419,-7.148911 c -0.20307,1.094826 0.0706,2.375791 -0.1535,3.595408 -0.0932,0.98953 0.78599,3.369826 -0.27219,3.56749 0.23479,-2.056865 -1.916,-2.685516 -3.81181,-1.556855 -0.51294,2.164 -1.24462,-0.834568 1.1e-4,-2.01762 -0.46603,-0.862717 -0.75401,-2.26366 0.62127,-3.071801 1.59391,0.312031 -2.48676,1.880813 0.0628,2.694826 -0.0352,-1.724711 1.15918,-0.66997 0.0279,0.383969 -2.3024,1.340736 0.26382,2.139984 1.71736,0.991343 2.04008,1.036259 1.30377,-1.881784 1.08221,-3.127632 0.2511,-0.500819 -0.50969,-2.047689 0.72592,-1.459128 z m -0.13962,0.07679 c 0.0689,-0.04406 0.37792,-0.160707 0,0 z m 0.13962,-7.225709 c -0.28061,2.298802 0.24881,5.109017 -0.14646,7.218723 -0.43986,-1.272341 -1.80143,-0.735568 -3.69294,-0.09074 -1.09818,-1.133783 0.80054,0.217381 0.76781,-1.019248 -1.16949,-1.42177 -0.31418,-0.544862 0.27229,-0.530561 -0.02,-1.715525 -1.00385,-4.570762 0.82364,-5.578089 0.35997,0.910301 -1.68455,3.053843 -0.41195,5.047527 0.78485,2.988263 0.13931,-1.98242 0.47468,-2.94614 1.02549,-1.30802 -0.61806,3.67688 1.14499,2.590088 -0.0954,3.485292 0.58026,-3.255061 0.0978,-4.691475 l 0.31416,-0.181516 0.35605,0.181516 z m -3.90956,-4.01428 c 0.16958,1.0918 -0.5656,1.306419 -0.76782,0.544522 0.9571,-0.638469 0.28699,-2.369324 0.17438,-0.89363 -1.64044,-0.988496 1.57152,-1.697114 0.64921,0.146622 l -0.0558,0.202459 z m 1.32646,0.865689 c 0.8234,1.620729 -1.53854,-0.267038 -0.56541,-0.13964 0.0789,0.387815 0.43534,0.5513 0.56541,0.13964 z m 2.61801,-4.00032 c -0.0951,2.312531 -0.0855,4.806487 -0.0276,7.148923 -0.80482,0.151085 -1.31622,-1.909515 -2.1012,-0.125654 -0.91542,-0.739487 0.66223,-2.209772 -0.0209,-3.260309 -1.1524,-0.552519 0.26538,0.124198 0.0767,-0.628357 0.64311,-0.676626 -1.23759,-1.007977 -0.2512,-0.900606 0.86972,-0.200239 -0.76315,-1.919118 -0.83077,-0.516655 0.83139,1.133626 -1.53039,-0.79109 0.30013,-1.061151 1.53044,-0.571842 0.75483,2.269571 1.71032,1.340425 1.12178,0.447951 -0.77414,0.316057 -0.48168,1.054178 -0.0885,0.614407 1.47377,0.550731 0.35594,0.900554 -1.86065,0.581856 0.74641,3.029672 0.78875,0.712097 -0.0168,-1.572517 0.17893,-3.124935 -0.2303,-4.663545 0.23321,0.02687 0.49603,-0.07865 0.71173,1e-4 z m -0.58643,-3e-6 c -0.98306,-1.579188 1.71156,0.469988 0,0 z m 0.58643,-4.188817 c 0.10561,0.684327 -1.61765,1.015948 -0.72636,0.356022 -0.0137,-0.417927 0.42292,-0.483776 0.72636,-0.356022 z m -5.63396,-3.958428 c -0.54426,-0.664647 -0.57757,1.060865 0,0 z m 1.80119,0.111702 c -0.84284,-0.620184 -0.43265,0.811056 0,0 z m 1.31948,-0.06981 c -0.45844,-0.759804 -0.90123,0.749325 0,0 z m 1.22872,0.08378 c -0.33441,-1.568351 -1.27603,1.048256 0,0 z m 1.29853,-3.316146 c -0.26223,2.335971 0.11152,4.92874 -0.0981,7.197793 -1.55745,0.125871 0.34822,-2.176939 -0.46076,-2.848398 -0.41533,-1.971981 -1.64383,1.434146 -1.94797,0.118636 1.32198,-0.753678 -0.59102,-1.206008 -1.16581,-0.691171 -1.24291,0.106147 -1.33544,-0.743212 -2.56219,-0.139615 -0.27518,-1.274738 1.69628,-0.453236 2.54123,-0.607371 0.95391,-0.08892 0.45493,-1.023005 -0.1049,-0.544602 1.14091,-0.526583 -0.29791,-0.560073 -0.4609,1.1e-5 -1.27257,0.201212 -0.16997,-0.543064 0.88671,-0.809814 0.27342,0.127174 0.78405,0.292739 0.91457,0.614358 -1.39838,0.01366 0.90315,1.162274 0.77491,0.05584 0.0169,-0.875384 0.56241,0.463576 0.93554,0.328104 0.55795,-0.625232 -0.89369,-3.138164 0.74767,-2.673766 z m -0.18849,0.07679 c 0.0689,-0.04406 0.37792,-0.160707 0,0 z m 0.13962,-7.225708 c -0.28061,2.298802 0.24881,5.109017 -0.14646,7.218723 -0.43986,-1.272341 -1.80143,-0.735568 -3.69294,-0.09074 -1.09818,-1.133783 0.80054,0.217381 0.76781,-1.019248 -1.16949,-1.42177 -0.31418,-0.544863 0.27229,-0.530563 -0.02,-1.715534 -1.00384,-4.570749 0.82364,-5.578099 0.35997,0.910301 -1.68455,3.053842 -0.41195,5.047526 0.78485,2.988263 0.13931,-1.982422 0.47468,-2.946142 1.02549,-1.308017 -0.61806,3.676879 1.14499,2.59009 -0.0954,3.485293 0.58026,-3.25506 0.0978,-4.691474 l 0.31416,-0.181516 0.35605,0.181516 z m -0.55152,-2e-6 c -0.98304,-1.579155 1.71155,0.469935 0,0 z m 0.58643,-4.188816 c 0.10561,0.684335 -1.61765,1.015944 -0.72636,0.356014 -0.0137,-0.417923 0.42292,-0.483784 0.72636,-0.356014 z m -0.0349,-7.148915 c -0.20307,1.094826 0.0706,2.375791 -0.1535,3.595409 -0.0932,0.98953 0.78599,3.369826 -0.27219,3.56749 0.23479,-2.056865 -1.91599,-2.685517 -3.81181,-1.556856 -0.51293,2.163997 -1.24462,-0.834562 1.1e-4,-2.017609 -0.46603,-0.862715 -0.75401,-2.263659 0.62127,-3.0718 1.59391,0.312031 -2.48676,1.880814 0.0628,2.694825 -0.0352,-1.724721 1.15918,-0.669985 0.0279,0.383959 -2.3024,1.340745 0.26382,2.139997 1.71736,0.991353 2.04007,1.03626 1.30377,-1.881783 1.08221,-3.127631 0.2511,-0.500831 -0.50969,-2.047676 0.72592,-1.45914 z m -5.59905,-3.958431 c -0.54426,-0.664645 -0.57757,1.06086 0,0 z m 1.80119,0.111702 c -0.84284,-0.620188 -0.43265,0.811055 0,0 z m 1.31948,-0.06981 c -0.45844,-0.759804 -0.90123,0.749325 0,0 z m 1.22872,0.08378 c -0.33441,-1.568351 -1.27603,1.048256 0,0 z m 1.29853,-3.316146 c -0.26223,2.335971 0.11152,4.92874 -0.0981,7.197793 -1.55745,0.125836 0.34822,-2.176936 -0.46076,-2.848408 -0.41535,-1.971938 -1.64383,1.43415 -1.94797,0.118666 1.32198,-0.753673 -0.59102,-1.205994 -1.16581,-0.69116 -1.24291,0.106147 -1.33544,-0.743212 -2.56219,-0.139615 -0.27518,-1.274738 1.69628,-0.453236 2.54123,-0.607371 0.95391,-0.08893 0.45491,-1.022961 -0.1049,-0.544562 1.14092,-0.526576 -0.29792,-0.560077 -0.4609,1.1e-5 -1.27257,0.201212 -0.16997,-0.543064 0.88671,-0.809814 0.27343,0.127217 0.78405,0.292722 0.91457,0.614358 -1.39838,0.01366 0.90315,1.162274 0.77491,0.05584 0.0169,-0.875386 0.56241,0.463574 0.93554,0.328103 0.55796,-0.625311 -0.89371,-3.138013 0.74767,-2.673836 z m -0.18849,0.07679 c 0.0689,-0.04406 0.37792,-0.160707 0,0 z m 0.13962,-7.225709 c -0.28061,2.298802 0.24881,5.109017 -0.14646,7.218723 -0.43986,-1.272342 -1.80143,-0.735567 -3.69294,-0.09074 -1.09818,-1.133783 0.80054,0.217381 0.76781,-1.019248 -1.16949,-1.421769 -0.31418,-0.544865 0.27229,-0.530561 -0.02,-1.715525 -1.00385,-4.570762 0.82364,-5.57809 0.35997,0.9103 -1.68455,3.053842 -0.41195,5.047526 0.78485,2.988263 0.13931,-1.982422 0.47468,-2.946142 1.02549,-1.30802 -0.61806,3.676882 1.14499,2.59009 -0.0954,3.485292 0.58026,-3.255061 0.0978,-4.691475 l 0.31416,-0.181515 0.35605,0.181515 z m -3.4069,-1.424198 c -0.53576,0.527717 -0.30773,-0.685782 0,0 z m 1.94082,-0.705117 c 1.60385,1.020939 0.73277,-1.323802 0.97728,-2.1014 -0.0906,-0.865409 -0.74972,-3.918383 0.48172,-2.673858 -0.28367,2.13309 0.14257,4.362011 -0.11168,6.562479 0.17242,0.760347 -1.43584,0.06244 -1.69648,-0.146631 0.40931,-0.786967 1.14828,0.505239 1.27061,-0.635291 -0.38615,-0.846938 -1.92661,-0.314078 -2.10133,0.558498 -1.56306,0.12875 -2.22193,-0.945735 -0.2025,-0.342084 -0.46583,-1.178006 -1.65774,-2.545888 -1.21469,-4.112035 -0.21032,-2.669846 4.05,-0.753387 1.22868,0.06983 -0.79557,-0.61431 1.92101,-1.235396 -0.58644,-0.823804 -0.88254,1.228657 -0.20555,3.666171 1.05419,4.230713 -0.24485,-0.489325 -0.0586,-1.069292 0.5446,-0.25832 0.009,-0.809925 -0.3535,-1.753885 0.35604,-0.328095 z"
         id="path1144"
         inkscape:connector-curvature="0" />
      <flowRoot
         id="flowRoot880"
         xml:space="preserve"
         style="font-size:40px;line-height:1.25;font-family:'R' lyehian;font-variant-ligatures:normal;font-variant-caps:normal;font-variant-numeric:normal;writing-mode:lr-tb;fill:#ff2a2a;fill-opacity:1;stroke:#000000;stroke-opacity:0.07843138"
         font-size="40px"><flowRegion
           id="flowRegion876"
           style="fill:#ff2a2a;fill-opacity:1;stroke:#000000;stroke-opacity:0.07843138"><rect
             id="rect874"
             height="202.86"
             width="2.8571"
             y="133.95"
             x="114.29"
             style="fill:#ff2a2a;fill-opacity:1;stroke:#000000;stroke-opacity:0.07843138" /></flowRegion><flowPara
           id="flowPara878"
           style="stroke:#000000;stroke-opacity:0.07843138" /></flowRoot>      <text
         id="text884"
         xml:space="preserve"
         style="font-size:10.58300018px;line-height:1.25;font-variant-ligatures:normal;font-variant-caps:normal;font-variant-numeric:normal;font-feature-settings:normal;fill:#ff2a2a;stroke-width:0.26458001;fill-opacity:1;stroke:#000000;stroke-opacity:0.07843138"
         font-size="10.583px"
         y="40.688519"
         x="296.13464"><tspan
           id="tspan882"
           y="50.344013"
           x="296.13464"
           style="stroke-width:0.26458001;fill:#ff2a2a;fill-opacity:1;stroke:#000000;stroke-opacity:0.07843138" /></text>
    </g>
  </g>
</svg>
