<?xml version="1.0" encoding="UTF-8" standalone="no"?>
<svg
   xmlns:osb="http://www.openswatchbook.org/uri/2009/osb"
   xmlns:dc="http://purl.org/dc/elements/1.1/"
   xmlns:cc="http://creativecommons.org/ns#"
   xmlns:rdf="http://www.w3.org/1999/02/22-rdf-syntax-ns#"
   xmlns:svg="http://www.w3.org/2000/svg"
   xmlns="http://www.w3.org/2000/svg"
   xmlns:sodipodi="http://sodipodi.sourceforge.net/DTD/sodipodi-0.dtd"
   xmlns:inkscape="http://www.inkscape.org/namespaces/inkscape"
   version="1.1"
   id="svg4206"
   viewBox="0 0 256 256"
   sodipodi:docname="Ka_Bar_sheathed.svg"
   inkscape:version="0.92.3 (2405546, 2018-03-11)"
   enable-background="new">
  <sodipodi:namedview
     pagecolor="#ffffff"
     bordercolor="#666666"
     borderopacity="1"
     objecttolerance="10"
     gridtolerance="10"
     guidetolerance="10"
     inkscape:pageopacity="0"
     inkscape:pageshadow="2"
     inkscape:window-width="1920"
     inkscape:window-height="1017"
     id="namedview58"
     showgrid="false"
     inkscape:zoom="2.8284271"
     inkscape:cx="120.08384"
     inkscape:cy="119.58141"
     inkscape:window-x="-8"
     inkscape:window-y="-8"
     inkscape:window-maximized="1"
     inkscape:current-layer="layer1"
     inkscape:snap-global="true"
     showguides="false" />
  <style
     id="style3">
    svg { cursor: default; }
  </style>
  <defs
     id="defs4208">
    <linearGradient
       id="linearGradient6402"
       osb:paint="solid">
      <stop
         style="stop-color:#ff7f2a;stop-opacity:1;"
         offset="0"
         id="stop6400" />
    </linearGradient>
    <linearGradient
       id="linearGradient836"
       osb:paint="solid">
      <stop
         style="stop-color:#000000;stop-opacity:1;"
         offset="0"
         id="stop834" />
    </linearGradient>
    <inkscape:path-effect
       effect="powerstroke"
       id="path-effect907"
       is_visible="true"
       offset_points="0.55768567,0.32361255"
       sort_points="true"
       interpolator_type="CubicBezierJohan"
       interpolator_beta="0.2"
       start_linecap_type="zerowidth"
       linejoin_type="extrp_arc"
       miter_limit="4"
       end_linecap_type="zerowidth" />
    <inkscape:path-effect
       effect="powerstroke"
       id="path-effect903"
       is_visible="true"
       offset_points="0.36787538,0.40439423"
       sort_points="true"
       interpolator_type="CubicBezierJohan"
       interpolator_beta="0.2"
       start_linecap_type="zerowidth"
       linejoin_type="extrp_arc"
       miter_limit="4"
       end_linecap_type="zerowidth" />
    <inkscape:path-effect
       effect="powerstroke"
       id="path-effect880"
       is_visible="true"
       offset_points="0.43866375,0.47000421"
       sort_points="true"
       interpolator_type="CubicBezierJohan"
       interpolator_beta="0.2"
       start_linecap_type="zerowidth"
       linejoin_type="extrp_arc"
       miter_limit="4"
       end_linecap_type="zerowidth" />
    <inkscape:path-effect
       effect="powerstroke"
       id="path-effect876"
       is_visible="true"
       offset_points="0.31349214,0.3253567"
       sort_points="true"
       interpolator_type="CubicBezierJohan"
       interpolator_beta="0.2"
       start_linecap_type="zerowidth"
       linejoin_type="extrp_arc"
       miter_limit="4"
       end_linecap_type="zerowidth" />
    <inkscape:path-effect
       effect="powerstroke"
       id="path-effect872"
       is_visible="true"
       offset_points="0.47974354,0.61540457"
       sort_points="true"
       interpolator_type="CubicBezierJohan"
       interpolator_beta="0.2"
       start_linecap_type="zerowidth"
       linejoin_type="extrp_arc"
       miter_limit="4"
       end_linecap_type="zerowidth" />
    <inkscape:path-effect
       effect="powerstroke"
       id="path-effect868"
       is_visible="true"
       offset_points="0.22476176,0.72470812"
       sort_points="true"
       interpolator_type="CubicBezierJohan"
       interpolator_beta="0.2"
       start_linecap_type="zerowidth"
       linejoin_type="extrp_arc"
       miter_limit="4"
       end_linecap_type="zerowidth" />
    <inkscape:path-effect
       effect="powerstroke"
       id="path-effect880-1"
       is_visible="true"
       offset_points="0.43759178,0.29829899"
       sort_points="true"
       interpolator_type="CubicBezierJohan"
       interpolator_beta="0.2"
       start_linecap_type="zerowidth"
       linejoin_type="extrp_arc"
       miter_limit="4"
       end_linecap_type="zerowidth" />
  </defs>
  <metadata
     id="metadata4211">
    <rdf:RDF>
      <cc:Work
         rdf:about="">
        <dc:format>image/svg+xml</dc:format>
        <dc:type
           rdf:resource="http://purl.org/dc/dcmitype/StillImage" />
        <dc:title />
      </cc:Work>
    </rdf:RDF>
  </metadata>
  <g
     inkscape:groupmode="layer"
     id="layer3"
     inkscape:label="Layer 2"
     style="display:inline">
    <ellipse
       style="opacity:1;fill:none;fill-opacity:1;fill-rule:nonzero;stroke:#000000;stroke-width:0.60000002;stroke-linecap:square;stroke-miterlimit:4;stroke-dasharray:none;stroke-opacity:1"
       id="path1346"
       cx="-17.30817"
       cy="161.52199"
       rx="3.0450315"
       ry="2.9700308"
       transform="rotate(-45.842047)" />
    <ellipse
       style="opacity:1;fill:none;fill-opacity:1;fill-rule:nonzero;stroke:#000000;stroke-width:0.60000002;stroke-linecap:square;stroke-miterlimit:4;stroke-dasharray:none;stroke-opacity:1"
       id="path1346-8"
       cx="28.78845"
       cy="161.492"
       rx="3.0450315"
       ry="2.9700308"
       transform="rotate(-45.842047)" />
    <ellipse
       style="opacity:1;fill:none;fill-opacity:1;fill-rule:nonzero;stroke:#000000;stroke-width:0.60000002;stroke-linecap:square;stroke-miterlimit:4;stroke-dasharray:none;stroke-opacity:1"
       id="path1346-1"
       cx="83.519089"
       cy="161.53444"
       rx="3.0450315"
       ry="2.9700308"
       transform="rotate(-45.842047)" />
    <ellipse
       style="opacity:1;fill:none;fill-opacity:1;fill-rule:nonzero;stroke:#000000;stroke-width:0.60000002;stroke-linecap:square;stroke-miterlimit:4;stroke-dasharray:none;stroke-opacity:1"
       id="path1346-84"
       cx="118.05451"
       cy="161.53444"
       rx="3.0450315"
       ry="2.9700308"
       transform="rotate(-45.842047)" />
    <ellipse
       style="opacity:1;fill:none;fill-opacity:1;fill-rule:nonzero;stroke:#000000;stroke-width:0.60000002;stroke-linecap:square;stroke-miterlimit:4;stroke-dasharray:none;stroke-opacity:1"
       id="path1346-4"
       cx="149.73241"
       cy="172.09871"
       rx="3.0450315"
       ry="2.9700308"
       transform="rotate(-45.842047)" />
    <ellipse
       style="opacity:1;fill:none;fill-opacity:1;fill-rule:nonzero;stroke:#000000;stroke-width:0.60000002;stroke-linecap:square;stroke-miterlimit:4;stroke-dasharray:none;stroke-opacity:1"
       id="path1346-3"
       cx="149.73241"
       cy="189.36646"
       rx="3.0450315"
       ry="2.9700308"
       transform="rotate(-45.842047)" />
    <path
       style="opacity:1;vector-effect:none;fill:none;fill-opacity:1;stroke:#000000;stroke-width:0.60000002;stroke-linecap:butt;stroke-linejoin:miter;stroke-miterlimit:4;stroke-dasharray:none;stroke-dashoffset:0;stroke-opacity:1"
       d="m 110.34614,114.0365 8.93206,-9.19851"
       id="path1422"
       inkscape:connector-curvature="0"
       sodipodi:nodetypes="cc" />
    <path
       style="opacity:1;vector-effect:none;fill:none;fill-opacity:1;stroke:#000000;stroke-width:0.60000002;stroke-linecap:butt;stroke-linejoin:miter;stroke-miterlimit:4;stroke-dasharray:none;stroke-dashoffset:0;stroke-opacity:1"
       d="m 119.21794,104.90007 c 0,0 1.3127,-1.38222 2.11553,-1.82395 0.44834,-0.24664 0.86778,-0.3867 1.34032,-0.39365 0.47252,-0.007 0.90366,0.008 1.29438,0.20375 0.26463,0.13225 0.46993,0.35115 0.62592,0.60245 0.22404,0.36126 0.23853,0.77217 0.24512,1.22254 0.007,0.50561 -0.085,0.98154 -0.34947,1.47877 -0.42661,0.80215 -1.74145,2.13781 -1.74145,2.13781"
       id="path1411-3"
       inkscape:connector-curvature="0"
       sodipodi:nodetypes="cszssssc" />
    <path
       style="opacity:1;vector-effect:none;fill:none;fill-opacity:1;stroke:#000000;stroke-width:0.60000002;stroke-linecap:butt;stroke-linejoin:miter;stroke-miterlimit:4;stroke-dasharray:none;stroke-dashoffset:0;stroke-opacity:1"
       d="m 113.87249,117.46838 8.92556,-9.19184"
       id="path1456"
       inkscape:connector-curvature="0"
       sodipodi:nodetypes="cc" />
    <path
       style="opacity:1;vector-effect:none;fill:none;fill-opacity:1;stroke:#000000;stroke-width:0.60000002;stroke-linecap:butt;stroke-linejoin:miter;stroke-miterlimit:4;stroke-dasharray:none;stroke-dashoffset:0;stroke-opacity:1"
       d="m 110.38308,113.99847 c 0,0 -1.34303,1.35278 -1.76097,2.16823 -0.23338,0.45539 -0.36104,0.87877 -0.35409,1.35131 0.007,0.47253 0.0355,0.90302 0.2417,1.28784 0.13996,0.26062 0.36479,0.45941 0.62059,0.60795 0.36767,0.21332 0.77886,0.21572 1.22922,0.20909 0.50562,-0.007 0.95703,-0.11254 1.44627,-0.39156 0.78928,-0.45 2.10728,-1.80473 2.10728,-1.80473"
       id="path1411-3-0"
       inkscape:connector-curvature="0"
       sodipodi:nodetypes="cszssssc" />
    <path
       style="opacity:1;vector-effect:none;fill:none;fill-opacity:1;stroke:#000000;stroke-width:0.60000002;stroke-linecap:butt;stroke-linejoin:miter;stroke-miterlimit:4;stroke-dasharray:none;stroke-dashoffset:0;stroke-opacity:1"
       d="m 148.42612,74.819576 8.93206,-9.198526"
       id="path1422-7"
       inkscape:connector-curvature="0"
       sodipodi:nodetypes="cc" />
    <path
       style="opacity:1;vector-effect:none;fill:none;fill-opacity:1;stroke:#000000;stroke-width:0.60000002;stroke-linecap:butt;stroke-linejoin:miter;stroke-miterlimit:4;stroke-dasharray:none;stroke-dashoffset:0;stroke-opacity:1"
       d="m 157.2979,65.68312 c 0,0 1.31274,-1.382213 2.11556,-1.823927 0.44834,-0.246661 0.86779,-0.386715 1.34033,-0.39365 0.47251,-0.0069 0.90367,0.0085 1.29436,0.203736 0.26463,0.13225 0.46995,0.351141 0.62593,0.602455 0.22405,0.36125 0.2385,0.772178 0.24512,1.222548 0.007,0.505607 -0.085,0.981524 -0.34948,1.478751 -0.42659,0.802164 -1.74144,2.137814 -1.74144,2.137814"
       id="path1411-3-7"
       inkscape:connector-curvature="0"
       sodipodi:nodetypes="cszssssc" />
    <path
       style="opacity:1;vector-effect:none;fill:none;fill-opacity:1;stroke:#000000;stroke-width:0.60000002;stroke-linecap:butt;stroke-linejoin:miter;stroke-miterlimit:4;stroke-dasharray:none;stroke-dashoffset:0;stroke-opacity:1"
       d="m 151.9525,78.25144 8.92555,-9.191851"
       id="path1456-3"
       inkscape:connector-curvature="0"
       sodipodi:nodetypes="cc" />
    <path
       style="opacity:1;vector-effect:none;fill:none;fill-opacity:1;stroke:#000000;stroke-width:0.60000002;stroke-linecap:butt;stroke-linejoin:miter;stroke-miterlimit:4;stroke-dasharray:none;stroke-dashoffset:0;stroke-opacity:1"
       d="m 148.46307,74.781527 c 0,0 -1.34303,1.352784 -1.76096,2.16824 -0.23338,0.455389 -0.36107,0.878778 -0.3541,1.351305 0.007,0.472539 0.0355,0.90302 0.2417,1.287837 0.13996,0.260622 0.3648,0.45941 0.62058,0.607963 0.36769,0.213308 0.77886,0.215699 1.22923,0.209073 0.50562,-0.0074 0.95704,-0.112608 1.44626,-0.391553 0.78928,-0.450002 2.10729,-1.804744 2.10729,-1.804744"
       id="path1411-3-0-5"
       inkscape:connector-curvature="0"
       sodipodi:nodetypes="cszssssc" />
    <ellipse
       style="opacity:1;fill:none;fill-opacity:1;fill-rule:nonzero;stroke:#000000;stroke-width:0.60000002;stroke-linecap:square;stroke-miterlimit:4;stroke-dasharray:none;stroke-opacity:1"
       id="path1346-15"
       cx="-17.312626"
       cy="-199.94975"
       rx="3.0450313"
       ry="2.9700308"
       transform="matrix(0.6966388,-0.71742204,-0.71742204,-0.6966388,0,0)" />
    <ellipse
       style="opacity:1;fill:none;fill-opacity:1;fill-rule:nonzero;stroke:#000000;stroke-width:0.60000002;stroke-linecap:square;stroke-miterlimit:4;stroke-dasharray:none;stroke-opacity:1"
       id="path1346-8-8"
       cx="28.783998"
       cy="-199.97974"
       rx="3.0450313"
       ry="2.9700308"
       transform="matrix(0.6966388,-0.71742204,-0.71742204,-0.6966388,0,0)" />
    <ellipse
       style="opacity:1;fill:none;fill-opacity:1;fill-rule:nonzero;stroke:#000000;stroke-width:0.60000002;stroke-linecap:square;stroke-miterlimit:4;stroke-dasharray:none;stroke-opacity:1"
       id="path1346-1-0"
       cx="83.514595"
       cy="-199.93735"
       rx="3.0450313"
       ry="2.9700308"
       transform="matrix(0.6966388,-0.71742204,-0.71742204,-0.6966388,0,0)" />
    <ellipse
       style="opacity:1;fill:none;fill-opacity:1;fill-rule:nonzero;stroke:#000000;stroke-width:0.60000002;stroke-linecap:square;stroke-miterlimit:4;stroke-dasharray:none;stroke-opacity:1"
       id="path1346-84-0"
       cx="118.05"
       cy="-199.93735"
       rx="3.0450313"
       ry="2.9700308"
       transform="matrix(0.6966388,-0.71742204,-0.71742204,-0.6966388,0,0)" />
    <path
       style="opacity:1;vector-effect:none;fill:none;fill-opacity:1;stroke:#000000;stroke-width:0.60000002;stroke-linecap:butt;stroke-linejoin:miter;stroke-miterlimit:4;stroke-dasharray:none;stroke-dashoffset:0;stroke-opacity:1"
       d="m 142.09456,144.87141 8.93203,-9.19851"
       id="path1422-2"
       inkscape:connector-curvature="0"
       sodipodi:nodetypes="cc" />
    <path
       style="opacity:1;vector-effect:none;fill:none;fill-opacity:1;stroke:#000000;stroke-width:0.60000002;stroke-linecap:butt;stroke-linejoin:miter;stroke-miterlimit:4;stroke-dasharray:none;stroke-dashoffset:0;stroke-opacity:1"
       d="m 150.96631,135.73496 c 0,0 1.34303,-1.3528 1.761,-2.16825 0.23335,-0.45539 0.36101,-0.87878 0.35407,-1.35132 -0.007,-0.47251 -0.0355,-0.903 -0.24169,-1.28783 -0.13997,-0.26061 -0.36481,-0.4594 -0.62061,-0.60794 -0.36767,-0.21332 -0.77886,-0.21571 -1.22922,-0.2091 -0.50559,0.007 -0.97858,0.1138 -1.46785,0.3928 -0.78927,0.45 -2.0857,1.80351 -2.0857,1.80351"
       id="path1411-3-3"
       inkscape:connector-curvature="0"
       sodipodi:nodetypes="cszssssc" />
    <path
       style="opacity:1;vector-effect:none;fill:none;fill-opacity:1;stroke:#000000;stroke-width:0.60000002;stroke-linecap:butt;stroke-linejoin:miter;stroke-miterlimit:4;stroke-dasharray:none;stroke-dashoffset:0;stroke-opacity:1"
       d="m 138.56053,141.44743 8.92555,-9.19184"
       id="path1456-7"
       inkscape:connector-curvature="0"
       sodipodi:nodetypes="cc" />
    <path
       style="opacity:1;vector-effect:none;fill:none;fill-opacity:1;stroke:#000000;stroke-width:0.60000002;stroke-linecap:butt;stroke-linejoin:miter;stroke-miterlimit:4;stroke-dasharray:none;stroke-dashoffset:0;stroke-opacity:1"
       d="m 142.13149,144.83337 c 0,0 -1.31274,1.3822 -2.11554,1.82392 -0.44837,0.24667 -0.8678,0.3867 -1.34032,0.39366 -0.47256,0.007 -0.90367,-0.008 -1.29439,-0.20375 -0.26463,-0.13225 -0.46993,-0.35114 -0.62595,-0.60247 -0.224,-0.36124 -0.23848,-0.77216 -0.24511,-1.22253 -0.007,-0.50561 0.0845,-0.95992 0.34889,-1.45715 0.4266,-0.80217 1.74204,-2.15941 1.74204,-2.15941"
       id="path1411-3-0-9"
       inkscape:connector-curvature="0"
       sodipodi:nodetypes="cszssssc" />
    <path
       style="opacity:1;vector-effect:none;fill:none;fill-opacity:1;stroke:#000000;stroke-width:0.60000002;stroke-linecap:butt;stroke-linejoin:miter;stroke-miterlimit:4;stroke-dasharray:none;stroke-dashoffset:0;stroke-opacity:1"
       d="m 180.17538,105.65531 8.93209,-9.198516"
       id="path1422-7-4"
       inkscape:connector-curvature="0"
       sodipodi:nodetypes="cc" />
    <path
       style="opacity:1;vector-effect:none;fill:none;fill-opacity:1;stroke:#000000;stroke-width:0.60000002;stroke-linecap:butt;stroke-linejoin:miter;stroke-miterlimit:4;stroke-dasharray:none;stroke-dashoffset:0;stroke-opacity:1"
       d="m 189.0472,96.518868 c 0,0 1.343,-1.352789 1.76095,-2.16825 0.23339,-0.455386 0.36105,-0.878776 0.35408,-1.351305 -0.007,-0.472537 -0.0355,-0.903019 -0.24167,-1.287828 -0.13996,-0.260636 -0.3648,-0.459414 -0.6206,-0.607957 -0.36767,-0.213328 -0.77887,-0.215703 -1.22924,-0.209082 -0.50558,0.0074 -0.97859,0.113734 -1.46783,0.392778 -0.78928,0.449994 -2.08571,1.803513 -2.08571,1.803513"
       id="path1411-3-7-2"
       inkscape:connector-curvature="0"
       sodipodi:nodetypes="cszssssc" />
    <path
       style="opacity:1;vector-effect:none;fill:none;fill-opacity:1;stroke:#000000;stroke-width:0.60000002;stroke-linecap:butt;stroke-linejoin:miter;stroke-miterlimit:4;stroke-dasharray:none;stroke-dashoffset:0;stroke-opacity:1"
       d="m 176.64139,102.23135 8.92556,-9.191874"
       id="path1456-3-8"
       inkscape:connector-curvature="0"
       sodipodi:nodetypes="cc" />
    <path
       style="opacity:1;vector-effect:none;fill:none;fill-opacity:1;stroke:#000000;stroke-width:0.60000002;stroke-linecap:butt;stroke-linejoin:miter;stroke-miterlimit:4;stroke-dasharray:none;stroke-dashoffset:0;stroke-opacity:1"
       d="m 180.21235,105.61728 c 0,0 -1.31273,1.3822 -2.11555,1.82392 -0.44833,0.24667 -0.8678,0.38672 -1.34033,0.39365 -0.47252,0.007 -0.90366,-0.008 -1.29436,-0.20372 -0.26463,-0.13226 -0.46994,-0.35116 -0.62594,-0.60248 -0.22402,-0.36123 -0.23851,-0.77217 -0.24512,-1.22252 -0.007,-0.50563 0.0845,-0.95996 0.34889,-1.45718 0.4266,-0.80215 1.74203,-2.15939 1.74203,-2.15939"
       id="path1411-3-0-5-6"
       inkscape:connector-curvature="0"
       sodipodi:nodetypes="cszssssc" />
    <path
       style="opacity:1;vector-effect:none;fill:none;fill-opacity:1;stroke:#000000;stroke-width:0.60000002;stroke-linecap:butt;stroke-linejoin:miter;stroke-miterlimit:4;stroke-dasharray:none;stroke-dashoffset:0;stroke-opacity:1"
       d="m 38.449476,248.79528 0.660944,-0.68066 -0.02078,-1.41319 -0.65917,-0.64009"
       id="path1569"
       inkscape:connector-curvature="0"
       sodipodi:nodetypes="cccc" />
    <path
       style="opacity:1;vector-effect:none;fill:none;fill-opacity:1;stroke:#000000;stroke-width:0.60000002;stroke-linecap:butt;stroke-linejoin:miter;stroke-miterlimit:4;stroke-dasharray:none;stroke-dashoffset:0;stroke-opacity:1"
       d="m 38.475599,248.76838 -0.687069,0.70755 -1.41319,0.0208 -0.659166,-0.64008"
       id="path1569-9"
       inkscape:connector-curvature="0"
       sodipodi:nodetypes="cccc" />
    <path
       style="opacity:1;vector-effect:none;fill:none;fill-opacity:1;stroke:#000000;stroke-width:0.60000002;stroke-linecap:butt;stroke-linejoin:miter;stroke-miterlimit:4;stroke-dasharray:none;stroke-dashoffset:0;stroke-opacity:1"
       d="m 9.514965,220.699 0.660942,-0.68068 1.413184,-0.0208 0.659166,0.64008"
       id="path1569-6"
       inkscape:connector-curvature="0"
       sodipodi:nodetypes="cccc" />
    <path
       style="opacity:1;vector-effect:none;fill:none;fill-opacity:1;stroke:#000000;stroke-width:0.60000002;stroke-linecap:butt;stroke-linejoin:miter;stroke-miterlimit:4;stroke-dasharray:none;stroke-dashoffset:0;stroke-opacity:1"
       d="m 9.541089,220.67208 -0.6870674,0.70756 0.020768,1.41319 0.6591644,0.64008"
       id="path1569-9-8"
       inkscape:connector-curvature="0"
       sodipodi:nodetypes="cccc" />
    <path
       style="opacity:1;vector-effect:none;fill:none;fill-opacity:1;stroke:#000000;stroke-width:0.60000002;stroke-linecap:butt;stroke-linejoin:miter;stroke-miterlimit:4;stroke-dasharray:none;stroke-dashoffset:0;stroke-opacity:1"
       d="M 35.758026,248.89726 9.4844952,223.38487"
       id="path1649"
       inkscape:connector-curvature="0"
       sodipodi:nodetypes="cc" />
    <path
       style="opacity:1;vector-effect:none;fill:none;fill-opacity:1;stroke:#000000;stroke-width:0.60000002;stroke-linecap:butt;stroke-linejoin:miter;stroke-miterlimit:4;stroke-dasharray:none;stroke-dashoffset:0;stroke-opacity:1"
       d="M 38.476136,246.1057 12.210215,220.60067"
       id="path1651"
       inkscape:connector-curvature="0"
       sodipodi:nodetypes="cc" />
    <path
       style="opacity:1;vector-effect:none;fill:none;fill-opacity:1;stroke:#000000;stroke-width:0.60000002;stroke-linecap:butt;stroke-linejoin:miter;stroke-miterlimit:4;stroke-dasharray:none;stroke-dashoffset:0;stroke-opacity:1"
       d="m 29.284649,227.88929 -13.05901,-12.68069 -0.02046,-1.39199 45.491418,-46.84858 0.687383,0.66746 0.04009,2.72829 0.679315,0.65964 0.02022,1.37473"
       id="path1655"
       inkscape:connector-curvature="0"
       sodipodi:nodetypes="cccccccc" />
    <path
       style="opacity:1;vector-effect:none;fill:none;fill-opacity:1;stroke:#000000;stroke-width:0.60000002;stroke-linecap:butt;stroke-linejoin:miter;stroke-miterlimit:4;stroke-dasharray:none;stroke-dashoffset:0;stroke-opacity:1"
       d="m 29.284649,227.88929 14.444541,14.0261 1.391978,-0.0204 45.49142,-46.84859 -0.687382,-0.66747 -2.728284,0.0402 -0.679316,-0.65964 -1.374737,0.0201"
       id="path1655-6"
       inkscape:connector-curvature="0" />
    <path
       style="opacity:1;vector-effect:none;fill:none;fill-opacity:1;stroke:#000000;stroke-width:0.60000002;stroke-linecap:butt;stroke-linejoin:miter;stroke-miterlimit:4;stroke-dasharray:none;stroke-dashoffset:0;stroke-opacity:1"
       d="m 20.862775,208.99584 -0.683475,-0.66367 -2.694662,0.0396 -11.3507738,11.68942 0.040691,2.76845 0.3430432,0.33308"
       id="path1704"
       inkscape:connector-curvature="0" />
    <path
       style="opacity:1;vector-effect:none;fill:none;fill-opacity:1;stroke:#000000;stroke-width:0.60000002;stroke-linecap:butt;stroke-linejoin:miter;stroke-miterlimit:4;stroke-dasharray:none;stroke-dashoffset:0;stroke-opacity:1"
       d="m 49.797604,237.09244 0.683471,0.66367 0.03961,2.69467 -11.35077,11.68941 -2.768443,0.0409 -0.343044,-0.3331"
       id="path1704-9"
       inkscape:connector-curvature="0" />
    <path
       style="opacity:1;vector-effect:none;fill:none;fill-opacity:1;stroke:#000000;stroke-width:0.60000002;stroke-linecap:butt;stroke-linejoin:miter;stroke-miterlimit:4;stroke-dasharray:none;stroke-dashoffset:0;stroke-opacity:1"
       d="M 36.096084,251.88435 6.479927,223.12615"
       id="path1721"
       inkscape:connector-curvature="0"
       sodipodi:nodetypes="cc" />
    <path
       style="opacity:1;vector-effect:none;fill:none;fill-opacity:1;stroke:#000000;stroke-width:0.60000002;stroke-linecap:butt;stroke-linejoin:miter;stroke-miterlimit:4;stroke-dasharray:none;stroke-dashoffset:0;stroke-opacity:1"
       d="m 90.612589,195.04634 10.684811,-11.00357 8.34532,-58.21791 1.85872,-1.91417 14.92758,0.59315 -9.10036,53.99327 -16.03126,5.54564"
       id="path1727"
       inkscape:connector-curvature="0"
       sodipodi:nodetypes="ccccccc" />
    <path
       style="opacity:1;vector-effect:none;fill:none;fill-opacity:1;stroke:#000000;stroke-width:0.60000002;stroke-linecap:butt;stroke-linejoin:miter;stroke-miterlimit:4;stroke-dasharray:none;stroke-dashoffset:0;stroke-opacity:1"
       d="m 40.100101,200.22589 -1.019688,1.05011 0.01935,1.31611 15.853439,15.39417 10.718886,-11.03866 -15.790661,-15.33322 -1.457604,0.0365 z"
       id="path1729"
       inkscape:connector-curvature="0"
       sodipodi:nodetypes="cccccccc" />
    <path
       style="opacity:1;vector-effect:none;fill:none;fill-opacity:1;stroke:#000000;stroke-width:0.60000002;stroke-linecap:butt;stroke-linejoin:miter;stroke-miterlimit:4;stroke-dasharray:none;stroke-dashoffset:0;stroke-opacity:1"
       d="m 59.403363,218.96995 -1.019687,1.0501 -1.309663,0.0256 c -0.889882,-0.8641 -1.230931,-1.19528 -2.120813,-2.05938 L 65.672086,206.9476 c 0.886357,0.86067 1.223884,1.18842 2.110241,2.04912 l -0.05348,1.39983 z"
       id="path1729-8"
       inkscape:connector-curvature="0"
       sodipodi:nodetypes="cccccccc" />
    <path
       style="opacity:1;vector-effect:none;fill:none;fill-opacity:1;stroke:#000000;stroke-width:0.60000002;stroke-linecap:butt;stroke-linejoin:miter;stroke-miterlimit:4;stroke-dasharray:none;stroke-dashoffset:0;stroke-opacity:1"
       d="M 109.64272,125.82486 99.245279,136.5325 98.518882,135.82713"
       id="path1786"
       inkscape:connector-curvature="0" />
    <path
       style="opacity:1;vector-effect:none;fill:none;fill-opacity:1;stroke:#000000;stroke-width:0.60000002;stroke-linecap:butt;stroke-linejoin:miter;stroke-miterlimit:4;stroke-dasharray:none;stroke-dashoffset:0;stroke-opacity:1"
       d="m 111.50144,123.91069 98.59414,-101.535576 5.16753,-3.868268 2.66341,-1.38634 2.04781,-0.687785 5.13163,0.08135 5.54055,5.380062"
       id="path1788"
       inkscape:connector-curvature="0"
       sodipodi:nodetypes="ccccccc" />
    <path
       style="opacity:1;vector-effect:none;fill:none;fill-opacity:1;stroke:#000000;stroke-width:0.60000002;stroke-linecap:butt;stroke-linejoin:miter;stroke-miterlimit:4;stroke-dasharray:none;stroke-dashoffset:0;stroke-opacity:1"
       d="M 121.22498,155.26317 230.7697,42.450326 l 3.71473,-5.278976 1.30748,-2.702998 0.62732,-2.067148 -0.23176,-5.127011 -5.54055,-5.38007"
       id="path1788-5"
       inkscape:connector-curvature="0"
       sodipodi:nodetypes="ccccccc" />
    <ellipse
       style="opacity:1;fill:none;fill-opacity:1;fill-rule:nonzero;stroke:#000000;stroke-width:0.60000002;stroke-linecap:square;stroke-miterlimit:4;stroke-dasharray:none;stroke-opacity:1"
       id="path1910"
       cx="-110.45914"
       cy="181.7572"
       rx="6.2100639"
       ry="6.1500635"
       transform="rotate(-45.842047)" />
    <ellipse
       style="opacity:1;fill:none;fill-opacity:1;fill-rule:nonzero;stroke:#000000;stroke-width:0.60000002;stroke-linecap:square;stroke-miterlimit:4;stroke-dasharray:none;stroke-opacity:1"
       id="path1910-9"
       cx="-22.108219"
       cy="182.65724"
       rx="6.2100639"
       ry="6.1500635"
       transform="rotate(-45.842047)" />
    <path
       id="path1982-7"
       style="opacity:1;vector-effect:none;fill:none;fill-opacity:1;stroke:#000000;stroke-width:0.60000002;stroke-linecap:butt;stroke-linejoin:miter;stroke-miterlimit:4;stroke-dasharray:none;stroke-dashoffset:0;stroke-opacity:1"
       d="m 85.586865,132.68899 2.032468,-2.0931 4.064588,-0.0598 0.672696,-0.69276 6.216076,6.03598 m 22.267737,31.02096 -1.84665,1.90176 m 5.23363,1.33485 -4.67584,-4.54036 m -1.94172,11.33385 8.5896,-8.8459 -0.0597,-4.06459 0.67269,-0.69278 -5.92014,-5.74862 m -21.647021,-21.04605 7.756591,7.53187 m -17.92207,-7.98365 16.7305,16.24586 m -20.182792,-19.67945 -6.061985,6.24146 m -17.868925,28.07944 15.387167,-15.84624 -0.159325,-10.84022 1.334297,-1.3741 1.306468,-0.0193 0.678977,0.65931 5.548371,-0.0816 3.287243,-3.38532 -3.492934,-3.39174 m -20.957329,41.17148 19.061045,18.50885 m -0.0913,-0.0887 1.433958,1.39242 0.221462,0.13666 m -20.587493,-19.91271 -1.43396,-1.39241 -0.143082,-0.21735"
       inkscape:connector-curvature="0" />
    <path
       style="opacity:1;vector-effect:none;fill:none;fill-opacity:1;stroke:#000000;stroke-width:0.60000002;stroke-linecap:butt;stroke-linejoin:miter;stroke-miterlimit:4;stroke-dasharray:none;stroke-dashoffset:0;stroke-opacity:1"
       d="m 123.30583,111.76487 1.40977,1.3689 5.37296,1.32804 73.52384,-75.717351 16.22896,-12.592987 1.35752,-0.01995 2.76451,2.684436"
       id="path2003"
       inkscape:connector-curvature="0"
       sodipodi:nodetypes="ccccccc" />
    <path
       style="opacity:1;vector-effect:none;fill:none;fill-opacity:1;stroke:#000000;stroke-width:0.60000002;stroke-linecap:butt;stroke-linejoin:miter;stroke-miterlimit:4;stroke-dasharray:none;stroke-dashoffset:0;stroke-opacity:1"
       d="m 144.00851,131.8678 -1.40973,-1.36889 -1.48536,-5.3316 73.52387,-75.717361 12.11061,-16.592033 -0.0199,-1.357515 -2.76454,-2.684445"
       id="path2003-3"
       inkscape:connector-curvature="0"
       sodipodi:nodetypes="ccccccc" />
    <path
       style="opacity:1;vector-effect:none;fill:none;fill-opacity:1;stroke:#000000;stroke-width:0.60000002;stroke-linecap:butt;stroke-linejoin:miter;stroke-miterlimit:4;stroke-dasharray:none;stroke-dashoffset:0;stroke-opacity:1"
       d="m 223.68208,28.54278 0.58651,0.569506"
       id="path2080"
       inkscape:connector-curvature="0" />
    <path
       style="opacity:1;vector-effect:none;fill:none;fill-opacity:1;stroke:#000000;stroke-width:0.60000002;stroke-linecap:butt;stroke-linejoin:miter;stroke-miterlimit:4;stroke-dasharray:none;stroke-dashoffset:0;stroke-opacity:1"
       d="M 92.356617,129.8434 195.14767,23.985699 l 13.44847,-11.069426 9.52674,-7.1008444 3.41988,-2.0754985 4.11712,-0.060512 2.00417,0.608122 1.1871,1.1526875"
       id="path2084"
       inkscape:connector-curvature="0" />
    <path
       style="opacity:1;vector-effect:none;fill:none;fill-opacity:1;stroke:#000000;stroke-width:0.60000002;stroke-linecap:butt;stroke-linejoin:miter;stroke-miterlimit:4;stroke-dasharray:none;stroke-dashoffset:0;stroke-opacity:1"
       d="m 126.81244,163.32717 102.79105,-105.857672 10.66942,-13.767954 6.81779,-9.731349 1.97409,-3.479412 -0.0605,-4.117104 -0.65106,-2.001578 -1.18711,-1.152689"
       id="path2084-1"
       inkscape:connector-curvature="0"
       sodipodi:nodetypes="cccccccc" />
    <path
       style="opacity:1;vector-effect:none;fill:none;fill-opacity:1;stroke:#000000;stroke-width:0.60000002;stroke-linecap:butt;stroke-linejoin:miter;stroke-miterlimit:4;stroke-dasharray:none;stroke-dashoffset:0;stroke-opacity:1"
       d="m 228.85115,5.440228 18.31503,17.779124"
       id="path2101"
       inkscape:connector-curvature="0"
       sodipodi:nodetypes="cc" />
    <path
       style="opacity:0;fill:#ffe680;fill-opacity:1;fill-rule:nonzero;stroke:#000000;stroke-width:0.60000002;stroke-linecap:square;stroke-miterlimit:4;stroke-dasharray:none;stroke-opacity:1"
       d="m 47.123907,210.09336 -7.824722,-7.59805 -0.0062,-0.57266 -0.0062,-0.57267 4.618695,-4.75647 4.618694,-4.75648 0.657512,-0.008 0.657521,-0.008 7.779567,7.55421 7.779576,7.55419 -5.224844,5.38072 -5.224847,5.38073 z m 11.623965,-0.75512 c 1.122823,-1.70176 1.371802,-3.9656 0.640768,-5.82607 -1.077654,-2.7426 -3.938991,-4.38993 -6.840877,-3.93845 -2.393524,0.37239 -4.353827,2.02415 -5.122943,4.31661 -1.402467,4.1803 1.741052,8.45788 6.116774,8.32346 1.329955,-0.0408 2.457763,-0.40553 3.519278,-1.1379 0.482737,-0.33308 1.348941,-1.22528 1.686979,-1.73767 z"
       id="path2161"
       inkscape:connector-curvature="0" />
    <path
       style="opacity:1;fill:#ffe680;fill-opacity:1;fill-rule:nonzero;stroke:#000000;stroke-width:0.60000002;stroke-linecap:square;stroke-miterlimit:4;stroke-dasharray:none;stroke-opacity:1"
       d="m 54.943968,217.69119 c -0.01092,2.4e-4 -3.534247,-3.41213 -7.829429,-7.5829 l -7.809439,-7.58321 -0.0083,-0.5912 -0.0083,-0.59121 4.611823,-4.74812 4.61182,-4.74811 0.647012,-0.0148 0.647016,-0.0148 7.793081,7.56729 7.793088,7.56734 -5.214204,5.36978 c -2.867811,2.95336 -5.223458,5.36964 -5.23418,5.37005 z m 3.311076,-7.68303 c 0.785152,-0.92087 1.269121,-1.94047 1.472443,-3.1021 0.258485,-1.47669 -0.01661,-3.02291 -0.763691,-4.29246 -0.301773,-0.51281 -0.630091,-0.92822 -1.069918,-1.35373 -0.659521,-0.63802 -1.380177,-1.08969 -2.229561,-1.39727 -0.719849,-0.26068 -1.461519,-0.38342 -2.248106,-0.37205 -1.366056,0.0198 -2.631702,0.44705 -3.734225,1.26085 -1.301115,0.96038 -2.202759,2.39607 -2.500414,3.9813 -0.115837,0.61696 -0.141563,1.39455 -0.06543,1.97778 0.253321,1.94064 1.336646,3.6134 2.993132,4.62169 1.796952,1.0938 4.078748,1.21045 5.996239,0.30665 0.578653,-0.27275 1.127895,-0.63747 1.587673,-1.05431 0.278485,-0.25247 0.336265,-0.31171 0.562075,-0.57606 z"
       id="path2167"
       inkscape:connector-curvature="0" />
    <path
       style="opacity:1;fill:#ffd42a;fill-opacity:1;fill-rule:nonzero;stroke:#000000;stroke-width:0.60000002;stroke-linecap:square;stroke-miterlimit:4;stroke-dasharray:none;stroke-opacity:1"
       d="m 119.60008,147.56291 c -2.05844,1.77563 -4.9184,2.02204 -7.18823,0.61925 -0.43381,-0.26807 -1.26331,-1.0411 -1.58821,-1.48011 -0.49334,-0.66646 -0.88303,-1.54573 -1.05344,-2.37686 -0.11122,-0.54297 -0.11776,-1.66648 -0.0129,-2.22935 0.14862,-0.79691 0.40728,-1.4582 0.85477,-2.18523 0.29982,-0.48711 1.15666,-1.38282 1.61775,-1.69111 1.07408,-0.71812 2.1525,-1.06195 3.39638,-1.08293 1.6815,-0.0284 3.18315,0.60152 4.34979,1.8245 0.66016,0.69202 1.04097,1.3186 1.32731,2.1838 0.69114,2.08853 0.22142,4.30992 -1.26036,5.96102 -0.16382,0.18248 -0.36312,0.38813 -0.44294,0.45701 z"
       id="path2175"
       inkscape:connector-curvature="0" />
    <path
       style="opacity:1;fill:#ffd42a;fill-opacity:1;fill-rule:nonzero;stroke:#000000;stroke-width:0.60000002;stroke-linecap:square;stroke-miterlimit:4;stroke-dasharray:none;stroke-opacity:1"
       d="m 56.984273,210.65496 c -2.056753,1.5085 -4.758298,1.58828 -6.895619,0.20372 -0.474732,-0.30755 -1.273812,-1.0971 -1.583067,-1.56418 -1.356031,-2.04807 -1.384958,-4.56507 -0.07644,-6.65106 0.280331,-0.4469 1.221353,-1.41415 1.656522,-1.70321 2.098125,-1.39163 4.725672,-1.40644 6.75687,-0.038 0.458708,0.30904 1.147292,0.97632 1.462424,1.41725 1.480055,2.0706 1.48944,4.84504 0.02351,6.95017 -0.267474,0.38401 -0.979031,1.11722 -1.344463,1.38526 z"
       id="path2177"
       inkscape:connector-curvature="0" />
    <path
       style="opacity:1;fill:#ffd42a;fill-opacity:1;fill-rule:nonzero;stroke:#000000;stroke-width:0.60000002;stroke-linecap:square;stroke-miterlimit:4;stroke-dasharray:none;stroke-opacity:1"
       d="m 37.77278,251.95132 -1.334627,0.0191 -14.374385,-13.95761 -14.3743831,-13.95759 0.5320711,-0.54795 0.5320722,-0.54794 13.7651568,13.36639 13.765152,13.36637 0.794926,-0.011 0.794914,-0.0109 0.710169,-0.73135 0.710171,-0.73137 -0.01249,-0.79491 -0.01249,-0.79486 -13.765156,-13.3664 -13.765153,-13.36638 2.187156,-2.25242 2.187162,-2.2524 13.765999,13.3672 13.766001,13.36721 0.764901,-0.0121 0.764903,-0.0121 2.297582,-2.36612 2.297583,-2.36613 0.261691,0.25411 0.26169,0.2541 0.02322,1.24967 0.02322,1.24967 -5.616197,5.78321 -5.616224,5.78315 z"
       id="path2179"
       inkscape:connector-curvature="0" />
    <path
       style="opacity:1;fill:#ffd42a;fill-opacity:1;fill-rule:nonzero;stroke:#000000;stroke-width:0.60000002;stroke-linecap:square;stroke-miterlimit:4;stroke-dasharray:none;stroke-opacity:1"
       d="m 19.004964,235.04254 -12.6390165,-12.27351 -0.019681,-1.30441 -0.019681,-1.30444 5.6304485,-5.79844 5.630449,-5.79841 1.244865,-0.0188 1.244857,-0.0188 0.251386,0.24413 0.251389,0.24409 -2.28282,2.35092 -2.282818,2.35094 0.01086,0.79492 0.01086,0.7949 12.015808,11.66773 12.015802,11.6677 -2.187157,2.25242 -2.187157,2.2524 -12.0158,-11.66771 -12.015809,-11.66773 -0.794898,0.0125 -0.79489,0.0125 -0.7085565,0.72969 -0.7085549,0.72969 0.010857,0.79492 0.010867,0.79492 12.0158114,11.66772 12.015804,11.66771 -0.532115,0.54801 -0.532113,0.54796 z"
       id="path2181"
       inkscape:connector-curvature="0" />
    <path
       style="opacity:1;fill:#ffd42a;fill-opacity:1;fill-rule:nonzero;stroke:#000000;stroke-width:0.60000002;stroke-linecap:square;stroke-miterlimit:4;stroke-dasharray:none;stroke-opacity:1"
       d="m 221.11523,26.322266 -0.60351,0.0098 -0.60156,0.01172 -0.52539,0.410156 c -0.28919,0.225159 -3.92476,3.044849 -8.07813,6.267578 l -7.55078,5.859375 -17.3418,17.859375 -3.88281,3.998047 -8.95117,9.21875 c -3.8766,3.992255 -12.11697,12.467785 -19.45313,20.011719 l -0.006,-0.0059 -8.47656,8.728515 -12.52734,12.878909 0.0117,0.0117 -3,3.08985 -2.7461,-0.67774 -2.74609,-0.67773 -0.66797,-0.64844 -0.66797,-0.64844 -5.67578,5.8457 c -4.4343,4.56659 -5.66514,5.85038 -5.61914,5.85938 0.0414,0.009 12.39788,0.5123 14.53125,0.5918 l 0.12109,0.004 -2.54101,15.05664 c -1.39714,8.28102 -2.54005,15.09413 -2.54102,15.14063 -0.002,0.0709 1.74648,-1.71472 11.0586,-11.30469 l 11.06054,-11.39062 -0.63867,-0.61915 -0.63672,-0.61914 -0.75976,-2.72265 -0.75977,-2.72461 3.00391,-3.0918 0.01,0.01 11.63477,-12.00196 9.3457,-9.62695 -0.006,-0.006 c 7.32495,-7.554685 15.55313,-16.041 19.42969,-20.033206 l 5.84961,-6.023438 6.98437,-7.193359 17.3418,-17.857422 6.0293,-8.259766 6.02929,-8.257812 -0.006,-0.603516 -0.008,-0.601562 -2.71289,-2.634766 z"
       id="path2211"
       inkscape:connector-curvature="0" />
    <path
       style="opacity:1;fill:#ffd42a;fill-opacity:1;fill-rule:nonzero;stroke:#000000;stroke-width:0.60000002;stroke-linecap:square;stroke-miterlimit:4;stroke-dasharray:none;stroke-opacity:1"
       d="m 219.99023,16.636719 -0.97851,0.326172 -0.97656,0.326171 -1.34766,0.699219 -1.3457,0.699219 -2.55078,1.914062 -2.55274,1.91211 -12.01172,12.371094 -12.01172,12.371093 -10.85546,11.181641 -14.13868,14.560547 -0.002,-0.002 -10.55273,10.86914 -8.26563,8.511719 -18.82031,19.382814 0.61523,0.5957 0.61524,0.59765 2.61133,0.64454 2.61132,0.64648 17.875,-18.408199 7.32032,-7.539063 2.48632,-2.560547 8.06836,-8.308594 13.60157,-14.003906 24.15625,-24.875 0.61523,-0.46875 c 0.33831,-0.257982 0.61905,-0.470956 0.62305,-0.472656 1e-5,-6e-6 -0.01,-0.0097 -0.01,-0.0098 l 6.87109,-5.333984 8.125,-6.302734 0.75586,-0.01172 0.75782,-0.01172 2.82031,2.738281 2.81836,2.738281 0.0117,0.757813 0.01,0.757813 -6.05078,8.292968 -6.05273,8.294922 -6.37891,6.570313 -6.37891,6.570312 -19.38476,19.962891 -6.90625,7.113281 -17.22852,17.740238 -0.55859,0.57422 -16.66797,17.16797 0.72266,2.59179 0.72265,2.5918 0.5918,0.57617 0.59375,0.57422 18.17188,-18.71484 14.02148,-14.439459 11.05664,-11.386718 19.38477,-19.962891 0.83789,-0.863281 4.4707,-4.603516 6.72266,-6.921875 12.02929,-12.388672 1.82032,-2.585937 1.81836,-2.585938 0.6621,-1.367187 0.66211,-1.365235 0.29883,-0.992187 0.30078,-0.990235 -0.11523,-2.519531 -0.11328,-2.519531 -5.47657,-5.316406 -5.47656,-5.31836 -2.52344,-0.03711 z"
       id="path2217"
       inkscape:connector-curvature="0" />
    <path
       style="opacity:1;fill:#ffd42a;fill-opacity:1;fill-rule:nonzero;stroke:#000000;stroke-width:0.60000002;stroke-linecap:square;stroke-miterlimit:4;stroke-dasharray:none;stroke-opacity:1"
       d="m 225.65234,3.8789062 -2.02343,0.029297 c -0.41394,0.006 -0.66815,0.014916 -0.9668,0.023437 l -0.0137,-0.013672 -0.54688,0.015625 c -0.31142,0.00822 -0.45066,0.023841 -0.56445,0.060547 -0.007,0.0019 -0.0529,0.00392 -0.0566,0.00586 -0.0674,0.035185 -0.79515,0.4727729 -1.61914,0.9707031 L 218.36328,5.875 214.72461,8.5820312 c -2.82966,2.1064168 -4.14217,3.0814448 -5.33984,4.0039068 -0.028,0.02136 -0.0703,0.05335 -0.0977,0.07422 -0.52538,0.4057 -1.19221,0.937004 -1.77149,1.404297 -0.0759,0.06198 -0.17136,0.132612 -0.25,0.197266 -0.0329,0.02702 -0.23347,0.191746 -0.27343,0.224609 -1.13267,0.921518 -2.51216,2.055745 -4.99024,4.095703 -2.60139,2.141448 -5.18603,4.268394 -5.74414,4.726563 l -1.01562,0.833984 -7.03321,7.244141 -7.03515,7.24414 -9.18164,9.455079 -4.50586,4.640624 -18.67774,19.234376 -6.25,6.4375 -9.44336,9.724609 -20.24609,20.849611 -5.23242,5.38672 -15.013673,15.46289 3.318359,3.22265 3.316406,3.2207 15.015628,-15.46289 5.23047,-5.38671 20.24609,-20.849612 9.44336,-9.724609 16.91211,-17.416016 16.65625,-17.154297 5.04687,-5.197265 11.11524,-11.447266 11.11523,-11.445312 2.59766,-1.941407 2.59961,-1.943359 1.0625,-0.544922 c 1.44907,-0.743203 1.75616,-0.876368 2.78711,-1.216797 l 0.89062,-0.294922 2.60938,0.04297 2.61133,0.04297 2.53711,2.464844 3.05078,2.964843 5.58984,5.429688 0.0859,1.861328 c 0.0468,1.023599 0.10024,2.205384 0.11914,2.626953 l 0.0332,0.767578 -0.32226,1.060547 c -0.30983,1.015643 -0.35257,1.117046 -0.97657,2.408203 l -0.65039,1.347656 -1.875,2.66211 -1.87304,2.662109 -11.08399,11.414063 -11.08203,11.412109 -18.13281,18.673828 -34.91992,35.962885 -5.45704,5.61914 -28.80664,29.66602 -0.17773,1.04687 c -0.0981,0.57572 -0.17297,1.07187 -0.16797,1.10157 0.0139,0.0671 5.662,5.55864 5.7168,5.55664 0.022,-3.2e-4 13.27893,-13.6341 29.45898,-30.29688 l 6.06836,-6.25 33.55664,-34.558588 26.50195,-27.291016 7.00196,-7.210938 0.002,-0.002 0.0508,-0.05273 1.17188,-1.511719 c 0.64446,-0.831182 1.19099,-1.530094 1.21289,-1.552734 3.3e-4,-3.43e-4 -0.0119,-0.01128 -0.0117,-0.01172 L 234.76172,50.5 l 5.36914,-6.929688 3.4375,-4.912109 3.43555,-4.912109 0.93554,-1.65625 0.9375,-1.658203 -0.0293,-2.001953 -0.0293,-2.001954 -0.32422,-0.992187 -0.32226,-0.994141 L 237.85352,14.4375 227.53711,4.4355469 226.5957,4.15625 Z m 2.40821,5.4003907 c 1.18163,0.050252 2.28509,0.8641661 2.71093,2.0000001 0.15989,0.426432 0.21292,0.905797 0.17188,1.376953 -0.002,0.02101 -0.004,0.04164 -0.006,0.0625 -0.0497,0.470236 -0.19299,0.930364 -0.43164,1.322266 -0.80921,1.32877 -2.30792,1.909484 -3.75586,1.455078 -0.55028,-0.172736 -0.87064,-0.378333 -1.31641,-0.845703 -0.30855,-0.323511 -0.37894,-0.420171 -0.52148,-0.720703 -0.45692,-0.963364 -0.40538,-2.102717 0.13086,-3.025391 0.009,-0.01586 0.0197,-0.03116 0.0293,-0.04687 0.21275,-0.345475 0.7358,-0.8861151 1.05273,-1.0800782 0,0 0.002,0 0.002,0 0.11686,-0.07143 0.24786,-0.133369 0.38282,-0.1914063 0.024,-0.010624 0.0472,-0.022728 0.0723,-0.033203 0.46735,-0.1882276 1.00934,-0.2933839 1.47852,-0.2734375 z m 12.38867,12.0292971 c 0.97199,0.04141 1.93698,0.622402 2.45898,1.480468 0.56727,0.932335 0.59368,2.186745 0.0664,3.171876 -0.20978,0.391862 -0.71516,0.953191 -1.06641,1.183593 -0.96167,0.630922 -2.09741,0.717813 -3.14062,0.248047 -0.0168,-0.0077 -0.0343,-0.01371 -0.0508,-0.02148 -0.11017,-0.05134 -0.18448,-0.0966 -0.26172,-0.148438 -0.0537,-0.03352 -0.10985,-0.08367 -0.16602,-0.125 -0.093,-0.07852 -0.18293,-0.158434 -0.35742,-0.328125 -0.45797,-0.445423 -0.47495,-0.468861 -0.63281,-0.808593 -0.4529,-0.974039 -0.40336,-2.098251 0.12695,-3.017579 0.0133,-0.02273 0.0291,-0.04396 0.043,-0.06641 0.21647,-0.345867 0.73085,-0.878084 1.04492,-1.070312 0,0 0.002,0 0.002,0 0.11686,-0.07143 0.24786,-0.133368 0.38282,-0.191407 0.024,-0.01062 0.0472,-0.02273 0.0723,-0.0332 0.46735,-0.188234 1.00935,-0.293409 1.47852,-0.273437 z m -42.01953,3.357422 c 0.2258,0.01679 0.44976,0.05737 0.66601,0.123046 0.67336,0.20463 1.05141,0.458262 1.4961,0.998047 0.5019,0.609319 0.69088,1.122342 0.70508,1.927735 0.009,0.53071 -0.0865,0.970341 -0.32618,1.501953 0,0 -0.002,0.002 -0.002,0.002 -0.0862,0.19034 -0.19319,0.329026 -0.56641,0.732422 -0.44628,0.482375 -0.47171,0.50503 -0.80468,0.677734 -0.52679,0.273239 -0.91076,0.3696 -1.49219,0.375 -0.26595,0.0025 -0.47823,-0.01344 -0.67774,-0.04883 -0.0524,-0.01104 -0.10273,-0.02738 -0.15429,-0.04102 -0.15479,-0.03786 -0.30507,-0.08298 -0.46289,-0.154296 -0.0377,-0.01657 -0.0724,-0.03863 -0.10938,-0.05664 -0.1762,-0.0877 -0.34458,-0.185904 -0.49609,-0.298828 -0.0175,-0.01294 -0.0336,-0.02771 -0.0508,-0.04102 -1.21324,-0.944159 -1.57989,-2.647095 -0.77539,-4.070312 0.018,-0.03097 0.0435,-0.05746 0.0625,-0.08789 0.21379,-0.335787 0.66436,-0.805264 0.99023,-1.023437 0.0257,-0.01706 0.05,-0.0365 0.0762,-0.05273 0.57423,-0.350298 1.25747,-0.512302 1.92188,-0.46289 z m -24.0586,24.777343 c 0.2258,0.01679 0.44977,0.05737 0.66602,0.123047 0.67337,0.204628 1.05142,0.456309 1.49609,0.996094 0.25097,0.304653 0.42384,0.58547 0.53516,0.890625 7.1e-4,0.0019 10e-4,0.0039 0.002,0.0059 0.10988,0.303571 0.15896,0.631046 0.16602,1.03125 0.009,0.52865 -0.0846,0.969208 -0.32227,1.498047 -8.8e-4,0.0018 -0.003,0.004 -0.004,0.0059 -0.0864,0.191525 -0.19174,0.329367 -0.56641,0.734375 -0.44632,0.482384 -0.47169,0.503066 -0.80469,0.675781 -0.52679,0.27323 -0.91076,0.3696 -1.49218,0.375 -0.26907,0.0025 -0.48414,-0.01446 -0.68555,-0.05078 -0.045,-0.0096 -0.0884,-0.02362 -0.13281,-0.03516 -0.15924,-0.03793 -0.31468,-0.08515 -0.47657,-0.158203 -0.0376,-0.01655 -0.0724,-0.03866 -0.10937,-0.05664 -0.17797,-0.08849 -0.3472,-0.184632 -0.5,-0.298828 -0.0148,-0.01103 -0.0283,-0.02387 -0.043,-0.03516 -0.34182,-0.265023 -0.62165,-0.590567 -0.82227,-0.953125 -0.51226,-0.927705 -0.53575,-2.097285 0.043,-3.121094 0.018,-0.03097 0.0435,-0.05746 0.0625,-0.08789 0.21462,-0.337084 0.66816,-0.810419 0.99414,-1.027344 0.0235,-0.01555 0.0464,-0.03202 0.0703,-0.04687 0.57467,-0.351257 1.25855,-0.514319 1.92382,-0.464844 z m 51.09766,1.986329 c 0.41922,-0.03654 0.84382,0.0016 1.2168,0.11914 0.23505,0.07407 0.45619,0.174504 0.66211,0.298828 0.0162,0.0098 0.029,0.02318 0.0449,0.0332 0.1949,0.122651 0.37823,0.26238 0.54101,0.425782 0.005,0.0049 0.009,0.01068 0.0137,0.01563 0.16641,0.169281 0.31632,0.361339 0.44335,0.568359 7.7e-4,0.0012 10e-4,0.0027 0.002,0.0039 0.12079,0.197802 0.21862,0.415211 0.29883,0.642578 0.0219,0.06515 0.0428,0.130736 0.0605,0.197266 0.0582,0.215106 0.0869,0.421643 0.0918,0.757813 0.007,0.507348 -0.0706,0.871171 -0.25195,1.310546 -0.0258,0.05982 -0.0444,0.120628 -0.0742,0.179688 -0.0384,0.07817 -0.0783,0.151537 -0.15039,0.24414 -7e-4,0.001 -0.001,0.0029 -0.002,0.0039 -0.0874,0.111627 -0.21368,0.253033 -0.41601,0.470703 -0.45319,0.487541 -0.51333,0.53868 -0.76953,0.671875 -0.52775,0.274316 -0.91158,0.369806 -1.5293,0.378906 -0.60645,0.0089 -0.96072,-0.06473 -1.47656,-0.308594 -0.22209,-0.104957 -0.33302,-0.191625 -0.70703,-0.550781 -0.19114,-0.183563 -0.29913,-0.291336 -0.38086,-0.388672 -0.015,-0.02051 -0.032,-0.0425 -0.0469,-0.06445 -0.0431,-0.05674 -0.0804,-0.12314 -0.11718,-0.189453 -0.0415,-0.07114 -0.07,-0.144593 -0.10547,-0.216797 -0.0891,-0.18848 -0.16693,-0.369831 -0.21289,-0.552734 -0.004,-0.013 -0.006,-0.02604 -0.01,-0.03906 -0.0532,-0.225406 -0.0806,-0.459688 -0.084,-0.738281 -0.003,-0.210552 0.003,-0.350443 0.0215,-0.486328 0.006,-0.04079 0.0194,-0.08208 0.0273,-0.123047 0.0225,-0.112943 0.0463,-0.22063 0.0977,-0.378906 0.0421,-0.129794 0.0803,-0.230005 0.11914,-0.330078 0.023,-0.05693 0.0475,-0.118463 0.0723,-0.169922 0.0758,-0.165573 0.16522,-0.308748 0.28125,-0.451172 0.0285,-0.03666 0.0615,-0.07731 0.0937,-0.115234 0.0837,-0.09279 0.17751,-0.18914 0.29687,-0.304688 0.36938,-0.357625 0.47464,-0.439209 0.76172,-0.585938 0.35393,-0.180906 0.76828,-0.291585 1.1875,-0.328124 z m -64.39648,11.863281 c 0.40932,0.01362 0.80138,0.0864 1.04687,0.214843 0.43381,0.226966 0.8147,0.731088 0.9082,1.203126 0.0226,0.113554 0.0416,0.481932 0.041,0.818359 -0.002,0.935681 -0.16882,1.377341 -0.86133,2.291015 -0.21934,0.289245 -1.11876,1.24222 -3.13672,3.34375 -2.97526,3.08844 -7.47206,7.717431 -7.87695,8.080079 -1.17416,1.051733 -1.73944,1.31821 -2.83008,1.33789 -0.49754,0.009 -0.70208,-0.01106 -0.94726,-0.0918 -0.29785,-0.09802 -0.32744,-0.117987 -0.64844,-0.429687 -0.33045,-0.320893 -0.33906,-0.334135 -0.46289,-0.681641 -0.10113,-0.28379 -0.12877,-0.46824 -0.13477,-0.927734 -0.011,-0.867218 0.18321,-1.419387 0.79883,-2.267578 0.19653,-0.270767 1.08911,-1.206347 2.95703,-3.138672 l 0.01,0.0098 4.11914,-4.244141 c 2.64095,-2.719729 4.23882,-4.341495 4.45117,-4.519531 0.45416,-0.380887 0.98402,-0.699378 1.42187,-0.855469 0.30858,-0.109979 0.73521,-0.156203 1.14454,-0.142578 z m 40.52539,12.896484 c 0.32562,-0.01018 0.6518,0.01425 0.88672,0.07813 1.98301,0.539157 2.9264,2.787004 1.93164,4.597656 -0.17716,0.322456 -0.77493,0.9714 -1.07227,1.164063 -0.54842,0.355374 -1.0839,0.51549 -1.75195,0.525391 -0.54564,0.008 -0.89011,-0.06187 -1.375,-0.279297 -0.28711,-0.128754 -0.39375,-0.202493 -0.73242,-0.507813 -0.33088,-0.29825 -0.4274,-0.408099 -0.58399,-0.662109 -0.50564,-0.820284 -0.61078,-1.71466 -0.31055,-2.646485 0.186,-0.57726 0.33745,-0.827888 0.7793,-1.283203 0.43777,-0.45113 0.76702,-0.661448 1.3418,-0.853515 0.23514,-0.07855 0.56109,-0.122629 0.88672,-0.132813 z m -65.85352,12.464844 c 0.56574,-0.05973 1.38992,0.141418 1.9043,0.464844 0.3576,0.224825 0.88849,0.780852 1.07226,1.123047 0.49404,0.919853 0.51473,1.95182 0.0586,2.966796 -0.0819,0.182363 -0.19563,0.326622 -0.57813,0.740235 l -0.375,0.40625 c -0.0849,0.07336 -0.2016,0.151713 -0.29883,0.207031 l -0.18359,0.09375 c -0.52861,0.267449 -0.85815,0.348275 -1.48828,0.359375 -0.21367,0.0038 -0.35932,-0.002 -0.49219,-0.01758 -0.06,-0.0094 -0.11839,-0.02607 -0.17773,-0.03906 -0.0806,-0.01759 -0.15843,-0.02921 -0.25391,-0.06055 -0.27927,-0.0916 -0.48218,-0.174899 -0.66992,-0.289063 -0.18774,-0.114164 -0.35881,-0.257632 -0.57422,-0.466797 -0.21014,-0.20405 -0.35453,-0.369775 -0.47266,-0.548828 -0.007,-0.0116 -0.0142,-0.02348 -0.0215,-0.03516 -0.114,-0.179439 -0.20412,-0.371139 -0.30078,-0.638672 -0.11293,-0.31105 -0.13753,-0.478601 -0.14453,-0.951172 -0.007,-0.489072 0.0125,-0.635548 0.13086,-1 0.0959,-0.295284 0.22793,-0.564203 0.38476,-0.810547 0.0548,-0.07999 0.10387,-0.153585 0.17188,-0.238281 0.0375,-0.04867 0.0734,-0.09834 0.11328,-0.144531 0.12622,-0.14484 0.2495,-0.262332 0.36328,-0.359375 0.49883,-0.418348 1.12119,-0.686662 1.83203,-0.761719 z m 53.27344,2.056641 c 0.87635,-0.03461 1.31043,0.09554 1.75586,0.52539 0.42439,0.409028 0.58421,0.911419 0.57031,1.792969 -0.0116,0.728689 -0.22937,1.287034 -0.83008,2.130859 -0.12811,0.179928 -3.02904,3.197527 -5.9414,6.205074 l -0.002,-0.002 -2.64453,2.70899 c -0.0214,0.0219 -0.0394,0.039 -0.0606,0.0605 -1.56078,1.59732 -2.7116,2.75428 -2.89843,2.90821 -0.47216,0.38897 -0.90117,0.65003 -1.33985,0.80273 -0.005,0.002 -0.0105,0.002 -0.0156,0.004 -0.19905,0.0681 -0.40139,0.10975 -0.60938,0.13476 -0.0443,0.005 -0.0912,0.006 -0.13672,0.01 -0.20394,0.0157 -0.41163,0.0207 -0.63476,0 -0.16214,-0.015 -0.29484,-0.0309 -0.41016,-0.0527 0,0 -0.002,0 -0.002,0 -0.34706,-0.0658 -0.52785,-0.18274 -0.81836,-0.46484 -0.29538,-0.28684 -0.32838,-0.33221 -0.42578,-0.59766 -0.18441,-0.5021 -0.20232,-1.46639 -0.0371,-1.99218 0.11461,-0.3648 0.2962,-0.71986 0.55078,-1.09961 0.0288,-0.0427 0.0581,-0.0857 0.0898,-0.13086 0.11963,-0.16509 0.57801,-0.67242 1.4375,-1.58985 2.02765,-2.16528 8.87445,-9.254573 9.59571,-9.914059 1.20141,-1.098421 1.78675,-1.398883 2.80664,-1.439453 z m -66.19141,11.810542 c 0.46493,-0.007 0.82454,0.0418 1.11719,0.16016 0.13171,0.0533 0.24597,0.12601 0.35352,0.20898 0.0193,0.0153 0.04,0.0287 0.0586,0.0449 0.10833,0.0923 0.20806,0.19802 0.29883,0.32617 0.23563,0.33259 0.31734,0.63299 0.33984,1.23828 0.0341,0.91591 -0.11486,1.44364 -0.62305,2.21875 -0.0119,0.0178 -0.0208,0.0347 -0.0332,0.0527 -0.21385,0.3181 -0.63751,0.76168 -5.77148,6.04883 -3.05614,3.14731 -5.68419,5.8314 -5.83985,5.96485 l -0.17773,0.15039 c -0.50999,0.39977 -0.93734,0.64396 -1.32813,0.75586 -0.62679,0.17941 -1.56567,0.16513 -2.02929,-0.0312 -0.18719,-0.0793 -0.30917,-0.1674 -0.53516,-0.38282 -0.28018,-0.26695 -0.29835,-0.29491 -0.41406,-0.62109 -0.11475,-0.32336 -0.18306,-0.89644 -0.16016,-1.35156 0.0264,-0.52498 0.2832,-1.13955 0.73828,-1.79492 l 0.0117,0.01 0.0371,-0.084 0.004,-0.008 c 3e-5,-7e-5 0.006,-0.006 0.006,-0.006 0.0779,-0.16244 11.02325,-11.45927 11.49609,-11.86524 0.51499,-0.44209 1.00491,-0.74194 1.47266,-0.90039 0.2981,-0.10052 0.49644,-0.12777 0.97851,-0.13477 z M 163.31445,115.5 c 0.41856,-0.0365 0.84229,0.002 1.21485,0.11914 0.003,9.1e-4 0.005,0.003 0.008,0.004 0.23615,0.0752 0.45944,0.1768 0.66601,0.30273 0.006,0.004 0.01,0.01 0.0156,0.0137 0.2022,0.12518 0.39055,0.27077 0.55859,0.43946 0.002,0.002 0.004,0.005 0.006,0.008 0.17017,0.17188 0.32383,0.36311 0.45313,0.57422 0.002,0.003 0.002,0.007 0.004,0.01 0.11911,0.19585 0.21551,0.41003 0.29493,0.63477 0.0222,0.0657 0.0427,0.13208 0.0605,0.19922 0.0583,0.21509 0.0869,0.42163 0.0918,0.75781 0.004,0.27941 -0.012,0.51546 -0.0586,0.74219 0,0 0,0.002 0,0.002 -0.0387,0.18689 -0.11411,0.37608 -0.19727,0.57617 -0.0237,0.0545 -0.0394,0.11022 -0.0664,0.16407 -0.0391,0.0805 -0.0803,0.15696 -0.15429,0.25195 -7e-4,0.001 -0.001,0.003 -0.002,0.004 -0.0874,0.11164 -0.21368,0.25108 -0.41601,0.46875 -0.4532,0.48753 -0.51139,0.53867 -0.76758,0.67188 -0.52775,0.27439 -0.91354,0.36991 -1.53125,0.37891 -0.60643,0.009 -0.9607,-0.0647 -1.47656,-0.3086 -0.2221,-0.10496 -0.33302,-0.19162 -0.70703,-0.55078 -0.19598,-0.18823 -0.30649,-0.29938 -0.38867,-0.39844 -0.007,-0.0101 -0.0162,-0.0208 -0.0234,-0.0312 -0.0507,-0.0642 -0.0916,-0.13663 -0.13282,-0.21093 -0.0424,-0.0726 -0.0713,-0.147 -0.10742,-0.22071 -0.0879,-0.18648 -0.16529,-0.36774 -0.21093,-0.54883 -0.004,-0.0149 -0.008,-0.0299 -0.0117,-0.0449 -0.0526,-0.22428 -0.0787,-0.45733 -0.082,-0.73437 -0.003,-0.20718 0.004,-0.34455 0.0215,-0.47852 0.008,-0.0525 0.0244,-0.10545 0.0352,-0.1582 0.0225,-0.10567 0.0422,-0.20478 0.0898,-0.35156 0.0398,-0.12268 0.0746,-0.21665 0.11133,-0.3125 0.0281,-0.0705 0.0592,-0.1447 0.0898,-0.20704 0.0654,-0.13944 0.14449,-0.26587 0.23828,-0.38671 0.0412,-0.0552 0.0927,-0.11595 0.14258,-0.17383 0.0811,-0.0889 0.1677,-0.18109 0.28125,-0.29102 0.36937,-0.35765 0.47465,-0.43726 0.76172,-0.58398 0.35393,-0.18092 0.77023,-0.29354 1.18945,-0.33008 z m -59.22851,6.24805 c 0.55937,0.0333 1.10305,0.21629 1.58789,0.54687 1.33458,0.90996 1.73876,2.73616 0.92187,4.16602 -0.0931,0.16293 -0.28299,0.42416 -0.42187,0.58203 -0.99605,1.13251 -2.68176,1.42048 -4.00195,0.68164 -0.33676,-0.18846 -0.89227,-0.73278 -1.0918,-1.06836 -0.55678,-0.93638 -0.60198,-2.05189 -0.12305,-3.08203 0.14129,-0.30377 0.18459,-0.35822 0.625,-0.8125 0.45404,-0.46833 0.48465,-0.49394 0.82227,-0.66016 0.54684,-0.26921 1.12227,-0.38679 1.68164,-0.35351 z m 47.1914,8.16601 c 0.56114,0.0165 0.97076,0.15052 1.30078,0.42578 0.48813,0.40717 0.68441,0.91478 0.69141,1.79883 0.006,0.7601 -0.20808,1.3534 -0.77344,2.14649 -0.25298,0.35494 -0.75594,0.88373 -5.66797,5.94922 -2.96448,3.05734 -5.46142,5.62151 -5.54882,5.69921 -0.37492,0.33448 -0.95562,0.77406 -1.20313,0.91016 -0.47531,0.26155 -0.94083,0.38764 -1.47461,0.39844 -1.00372,0.0204 -1.60488,-0.24361 -1.98437,-0.86914 -0.0718,-0.11835 -0.15861,-0.29237 -0.19141,-0.38867 -0.0928,-0.27303 -0.135,-0.87933 -0.0918,-1.31446 0.0702,-0.70553 0.28978,-1.1905 0.9043,-2.00586 0.33443,-0.44375 0.77056,-0.90228 5.65234,-5.92968 5.66036,-5.82921 5.72357,-5.89057 6.44727,-6.33594 0.5864,-0.36094 1.17131,-0.50698 1.93945,-0.48438 z m -19.77148,18.59766 c 0.91987,0.0161 1.82464,0.4466 2.38281,1.1543 0.82399,1.04487 0.92106,2.43706 0.25,3.60937 v 0.002 c -0.22113,0.38542 -0.74428,0.91813 -1.13086,1.15235 -0.98695,0.59791 -2.14562,0.63924 -3.18164,0.11328 -0.24415,-0.12391 -0.36506,-0.21593 -0.67773,-0.51953 -0.43132,-0.4188 -0.62189,-0.71838 -0.79883,-1.25586 -0.63513,-1.92925 0.7168,-4.0024 2.76172,-4.23633 0.13102,-0.015 0.26312,-0.0218 0.39453,-0.0195 z"
       id="path2227"
       inkscape:connector-curvature="0" />
    <path
       style="opacity:1;fill:#ffe680;fill-opacity:1;fill-rule:nonzero;stroke:#000000;stroke-width:0.60000002;stroke-linecap:square;stroke-miterlimit:4;stroke-dasharray:none;stroke-opacity:1"
       d="m 109.32815,181.05856 c -4.26748,1.475 -7.76614,2.67399 -7.77476,2.66435 -0.008,-0.0101 1.84775,-13.00857 4.12532,-28.88656 l 4.14109,-28.8691 0.88605,-0.92862 0.88604,-0.9286 7.30082,0.28992 7.30084,0.28993 -0.0276,0.19054 c -0.143,0.98744 -9.0116,53.43031 -9.04042,53.45859 -0.0211,0.0207 -3.52995,1.24454 -7.79741,2.71954 z m 11.2977,-34.03585 c 2.50395,-3.20473 1.48348,-7.8388 -2.12033,-9.62854 -2.05598,-1.02107 -4.48429,-0.84516 -6.42966,0.46575 -0.46101,0.31065 -1.14125,0.95597 -1.47703,1.40121 -0.90286,1.19716 -1.35569,2.58861 -1.31708,4.04712 0.0159,0.59952 0.0284,0.71593 0.13148,1.19603 0.41214,1.92362 1.7118,3.55135 3.50057,4.3842 2.66887,1.24261 5.89274,0.46266 7.71198,-1.86576 z"
       id="path1821"
       inkscape:connector-curvature="0" />
    <path
       style="opacity:1;fill:#ffd42a;fill-opacity:1;fill-rule:nonzero;stroke:#000000;stroke-width:0.60000002;stroke-linecap:square;stroke-miterlimit:4;stroke-dasharray:none;stroke-opacity:1"
       d="m 121.96201,167.6677 -2.2384,-2.18427 0.57916,-3.43868 c 0.31855,-1.89129 0.60357,-3.58568 0.63339,-3.76528 l 0.0541,-0.32657 2.76649,2.68635 2.76649,2.68633 -0.28746,0.29604 -0.28746,0.29599 0.0301,2.03611 0.0301,2.0361 -0.90411,0.93108 -0.90407,0.93104 z"
       id="path1823"
       inkscape:connector-curvature="0" />
    <path
       style="opacity:1;fill:#ffd42a;fill-opacity:1;fill-rule:nonzero;stroke:#000000;stroke-width:0.60000002;stroke-linecap:square;stroke-miterlimit:4;stroke-dasharray:none;stroke-opacity:1"
       d="m 117.90276,176.30016 c 0.001,-0.0212 0.27904,-1.68384 0.61865,-3.69467 l 0.6175,-3.65613 0.86689,-0.89275 0.86691,-0.89278 1.52813,1.48387 1.52811,1.48384 -3.01369,3.10362 c -1.70427,1.75509 -3.01317,3.08681 -3.01249,3.06502 z"
       id="path1825"
       inkscape:connector-curvature="0" />
    <path
       style="opacity:1;fill:#ffd42a;fill-opacity:1;fill-rule:nonzero;stroke:#000000;stroke-width:0.60000002;stroke-linecap:square;stroke-miterlimit:4;stroke-dasharray:none;stroke-opacity:1"
       d="m 119.28104,168.21086 c -0.0147,-0.0144 0.0263,-0.27287 0.27474,-1.72821 l 0.0875,-0.51261 0.4748,0.46106 0.4748,0.46106 -0.64787,0.66719 c -0.35635,0.36697 -0.65509,0.66019 -0.66397,0.65155 z"
       id="path1827"
       inkscape:connector-curvature="0" />
    <path
       style="opacity:1;fill:#ffd42a;fill-opacity:1;fill-rule:nonzero;stroke:#000000;stroke-width:0.60000002;stroke-linecap:square;stroke-miterlimit:4;stroke-dasharray:none;stroke-opacity:1"
       d="m 83.018718,139.29339 c -2.220127,0.0312 -2.803393,-0.006 -2.99325,-0.19037 l -0.235801,-0.22898 2.884116,-2.97016 2.884113,-2.97014 1.635744,1.58835 1.635739,1.58835 -1.526607,1.57214 -1.526607,1.57215 z"
       id="path1841"
       inkscape:connector-curvature="0" />
    <path
       style="opacity:1;fill:#ffe680;fill-opacity:1;fill-rule:nonzero;stroke:#000000;stroke-width:0.60000002;stroke-linecap:square;stroke-miterlimit:4;stroke-dasharray:none;stroke-opacity:1"
       d="M 61.703125 167.25391 L 50.986328 178.28516 C 46.803583 182.5907 43.542971 185.94745 40.402344 189.17969 C 39.117477 190.50203 36.742687 192.94691 36.072266 193.63672 C 33.76312 196.01266 28.403645 201.53098 24.162109 205.90039 L 16.449219 213.8457 L 16.449219 213.85938 L 16.427734 213.88086 L 16.431641 214.50977 L 16.433594 214.74023 L 16.425781 215.14258 L 18.205078 216.87305 L 19.984375 218.60547 L 20.003906 218.60547 L 30.121094 228.43164 L 43.806641 241.72461 L 44.421875 241.70312 L 45.039062 241.68164 L 45.488281 241.22656 C 45.735604 240.97629 55.281451 231.14535 66.701172 219.38086 C 78.120893 207.61637 88.111136 197.32668 88.902344 196.51562 L 90.341797 195.04102 L 90.082031 194.8125 L 89.824219 194.58203 L 88.480469 194.60156 L 87.138672 194.62109 L 86.763672 194.28125 L 86.388672 193.93945 L 85.798828 193.9707 C 85.091942 194.00816 85.10616 194.0144 84.556641 193.5 L 84.164062 193.13281 L 83.716797 193.60547 L 83.269531 194.08008 L 82.542969 194.08008 L 81.814453 194.08008 L 81.490234 193.75977 L 81.166016 193.43945 L 80.277344 194.3418 L 79.390625 195.24414 L 79.707031 195.54688 L 80.025391 195.84961 L 80.013672 196.58789 L 80 197.32422 L 76.302734 200.44922 L 72.605469 203.57422 L 71.927734 203.72852 L 71.25 203.88281 L 70.873047 203.51172 C 70.665958 203.30749 70.476945 203.14153 70.453125 203.14453 C 70.429299 203.14738 70.025259 203.54713 69.554688 204.0332 L 68.699219 204.91797 L 68.986328 205.21094 L 69.275391 205.50391 L 69.302734 205.94531 C 69.317924 206.18838 69.341589 206.52849 69.355469 206.69922 L 69.380859 207.00977 L 68.492188 207.75586 L 67.601562 208.50391 L 67.800781 208.70703 L 68 208.9082 L 67.972656 209.69531 L 67.943359 210.48047 L 63.214844 215.34961 L 58.484375 220.2207 L 57.732422 220.23242 L 56.980469 220.24609 L 56.646484 219.92383 C 56.463047 219.74684 56.199732 219.49541 56.0625 219.36523 L 55.814453 219.12891 L 53.234375 221.30469 C 51.815972 222.50135 50.500894 223.63147 50.3125 223.81641 L 49.970703 224.15234 L 50.302734 224.48633 L 50.634766 224.82031 L 50.636719 225.91211 C 50.637829 226.51273 50.625725 227.1386 50.609375 227.30273 L 50.580078 227.60156 L 49.490234 228.71484 L 48.402344 229.82812 L 47.78125 229.875 C 47.44014 229.9009 46.813796 229.92188 46.388672 229.92188 L 45.615234 229.92188 L 45.263672 229.56836 L 44.912109 229.21484 L 44.292969 229.20898 C 43.952104 229.20608 43.618251 229.19118 43.550781 229.17578 C 43.372522 229.13521 29.704775 215.85984 29.671875 215.69531 C 29.658735 215.62963 29.632744 215.30055 29.615234 214.96289 L 29.599609 214.64844 L 29.597656 214.37891 L 29.583984 214.36719 L 29.583984 214.34766 L 29.208984 213.99023 L 28.960938 213.75391 L 28.833984 213.62891 L 28.835938 212.35352 C 28.835959 212.34091 28.835911 212.33858 28.835938 212.32617 C 28.836008 212.31138 28.835854 212.31159 28.835938 212.29688 C 28.83921 211.72143 28.853909 211.34863 28.869141 211.15234 C 28.877533 211.06539 28.883558 210.94742 28.896484 210.91211 C 28.903891 210.89188 28.978627 210.80963 29.007812 210.76953 C 29.120315 210.618 29.463366 210.23413 29.982422 209.70117 L 30.005859 209.67578 L 31.054688 208.60156 L 31.773438 208.54688 C 32.168826 208.51747 32.790996 208.49319 33.15625 208.49219 L 33.820312 208.48828 L 34.126953 208.79688 L 34.128906 208.79883 C 34.133483 208.80344 34.134112 208.80208 34.138672 208.80664 C 34.301256 208.96916 34.45632 209.10607 34.480469 209.10547 C 34.53033 209.10423 34.741051 208.87617 35.183594 208.34375 C 35.241427 208.27448 35.389101 208.08593 35.455078 208.00586 C 35.879406 207.49092 36.390246 206.8615 37.205078 205.83594 C 38.33485 204.41399 39.275132 203.22421 39.294922 203.19141 C 39.319369 203.15085 39.257775 203.05873 39.103516 202.90234 L 39.103516 202.90039 L 38.875 202.67188 L 38.888672 201.91602 L 38.888672 201.91406 L 38.900391 201.16016 L 43.623047 196.29492 L 48.345703 191.42969 L 48.828125 191.42969 L 49.308594 191.42969 L 49.666016 190.98047 L 50.183594 190.33398 L 51.0625 189.23828 L 51.794922 189.25391 L 51.808594 189.25391 L 52.556641 189.27344 L 52.873047 189.58398 L 52.875 189.58398 L 53.191406 189.89648 L 53.298828 189.78516 C 53.366155 189.73431 53.448508 189.65023 53.591797 189.48828 C 53.595395 189.48421 53.595939 189.48266 53.599609 189.47852 L 54.074219 188.99414 L 54.958984 188.0918 L 54.544922 187.67188 L 54.132812 187.25391 L 54.273438 186.56836 L 54.412109 185.88281 L 57.367188 182.16992 C 58.991939 180.12815 60.35932 178.41774 60.40625 178.36914 C 60.483213 178.28946 60.561748 178.27982 61.203125 178.26562 L 61.914062 178.25 L 62.228516 178.5625 L 62.544922 178.87695 L 63.421875 177.9707 L 64.296875 177.06445 L 63.962891 176.75195 L 63.626953 176.43945 L 63.626953 175.68555 L 63.626953 174.93164 L 64.070312 174.48047 L 64.513672 174.0293 L 63.794922 173.33203 C 63.39892 172.94809 63.040427 172.58283 62.998047 172.51953 C 62.933567 172.42319 62.920364 172.29757 62.919922 171.75586 L 62.919922 171.10938 L 62.572266 170.78125 L 62.224609 170.45508 L 62.205078 169.0957 L 62.183594 167.73633 L 61.943359 167.49609 L 61.703125 167.25391 z "
       id="path3386" />
    <path
       style="opacity:1;fill:#ffd42a;fill-opacity:1;fill-rule:nonzero;stroke:#000000;stroke-width:0.0375;stroke-linecap:square;stroke-miterlimit:4;stroke-dasharray:none;stroke-opacity:1"
       d="m 103.23875,140.01073 c -1.93783,-1.88125 -3.531971,-3.4412 -3.542531,-3.46655 -0.01712,-0.0411 9.498821,-9.88079 9.525731,-9.84981 0.0259,0.0299 -2.3853,16.66225 -2.42071,16.69765 -0.0215,0.0215 -1.62465,-1.50004 -3.56249,-3.38129 z"
       id="path973"
       inkscape:connector-curvature="0" />
    <path
       style="opacity:1;fill:#ffd42a;fill-opacity:1;fill-rule:nonzero;stroke:#000000;stroke-width:0.0375;stroke-linecap:square;stroke-miterlimit:4;stroke-dasharray:none;stroke-opacity:1"
       d="m 96.590419,142.9744 c -4.950001,-4.81119 -9.361336,-9.09692 -9.802968,-9.52385 l -0.802968,-0.77624 0.883101,-0.89631 0.8831,-0.8963 2.035118,-0.0332 2.035119,-0.0332 0.273565,-0.26849 0.273566,-0.26848 0.392433,0.37005 c 0.32751,0.30883 6.42543,6.22208 12.423685,12.04744 0.80781,0.78453 1.47821,1.48427 1.48977,1.55498 0.0249,0.15209 -0.99211,7.37595 -1.04636,7.4325 -0.0204,0.0213 -4.08716,-3.89767 -9.037161,-8.70886 z"
       id="path975"
       inkscape:connector-curvature="0" />
    <path
       style="opacity:1;fill:#ffd42a;fill-opacity:1;fill-rule:nonzero;stroke:#000000;stroke-width:0.05303301;stroke-linecap:square;stroke-miterlimit:4;stroke-dasharray:none;stroke-opacity:1"
       d="m 90.342364,194.36146 c -0.20479,-0.21798 -0.22683,-0.22097 -1.633253,-0.22097 h -1.425662 l -0.299842,-0.30936 c -0.293293,-0.3026 -0.315234,-0.30936 -1.004378,-0.30936 h -0.704536 l -1.156379,-1.13469 c -0.636007,-0.62408 -5.312839,-5.16299 -10.39296,-10.08646 -5.08012,-4.92347 -9.485174,-9.20136 -9.789009,-9.50641 l -0.552427,-0.55465 v -0.65466 c 0,-0.64731 -0.004,-0.65854 -0.353554,-0.9999 l -0.353553,-0.34524 v -1.39363 -1.39363 l -0.268036,-0.19816 c -0.14742,-0.109 -0.256801,-0.24322 -0.243068,-0.29827 0.01373,-0.0551 3.439121,-3.61391 7.611974,-7.90858 l 7.587007,-7.80847 -0.05348,-4.46915 c -0.02942,-2.45803 -0.07317,-4.88678 -0.09722,-5.39722 l -0.04374,-0.92808 0.620375,-0.64081 0.620375,-0.64082 h 0.512462 c 0.469633,0 0.537522,0.0259 0.812305,0.30936 l 0.299842,0.30936 h 2.932702 2.932702 l 1.570531,-1.6383 c 0.863791,-0.90106 1.599784,-1.62695 1.63554,-1.61308 0.05286,0.0205 11.902728,11.50013 15.489178,15.00523 l 0.95145,0.92988 -2.2567,15.72848 -2.25669,15.72849 -1.215872,1.24208 c -0.668729,0.68314 -3.000751,3.08165 -5.182272,5.33003 -2.18152,2.24838 -3.99336,4.08796 -4.02631,4.08796 -0.03295,0 -0.153324,-0.0994 -0.267499,-0.22097 z"
       id="path977"
       inkscape:connector-curvature="0" />
  </g>
  <g
     inkscape:groupmode="layer"
     id="layer1"
     inkscape:label="Layer 3"
     style="display:inline">
    <path
       style="display:inline;opacity:1;vector-effect:none;fill:none;fill-opacity:1;stroke:#000000;stroke-width:0.60000002;stroke-linecap:butt;stroke-linejoin:miter;stroke-miterlimit:4;stroke-dasharray:none;stroke-dashoffset:0;stroke-opacity:1"
       d="m 113.29835,160.12029 7.17589,8.36959 0.0205,1.39487 -1.34987,0.0198 -7.20618,-6.99742 -8.71168,8.97158 -1.27547,-0.0263 -0.73212,-0.71139"
       id="path934-5-3-2"
       inkscape:connector-curvature="0"
       sodipodi:nodetypes="cccccccc" />
    <path
       style="display:inline;opacity:1;vector-effect:none;fill:none;fill-opacity:1;stroke:#000000;stroke-width:0.60000002;stroke-linecap:butt;stroke-linejoin:miter;stroke-miterlimit:4;stroke-dasharray:none;stroke-dashoffset:0;stroke-opacity:1"
       d="m 86.02079,156.38267 15.19863,14.75834 -2.04814,2.10924 -15.19863,-14.75833 z"
       id="path951-32-2"
       inkscape:connector-curvature="0"
       sodipodi:nodetypes="ccccc" />
    <path
       style="display:inline;opacity:1;vector-effect:none;fill:none;fill-opacity:1;stroke:#000000;stroke-width:0.60000002;stroke-linecap:butt;stroke-linejoin:miter;stroke-miterlimit:4;stroke-dasharray:none;stroke-dashoffset:0;stroke-opacity:1"
       d="m 96.69253,143.99553 -8.57687,-6.92683 -1.39487,0.0205 0.0199,1.34987 7.20619,6.99743 -8.71169,8.97157 0.0638,1.27414 0.73261,0.71091"
       id="path934-5-0-4-8"
       inkscape:connector-curvature="0"
       sodipodi:nodetypes="cccccccc" />
    <path
       style="display:inline;opacity:1;vector-effect:none;fill:none;fill-opacity:1;stroke:#000000;stroke-width:0.60000002;stroke-linecap:butt;stroke-linejoin:miter;stroke-miterlimit:4;stroke-dasharray:none;stroke-dashoffset:0;stroke-opacity:1"
       d="m 93.94682,145.43651 1.36861,-0.0201 0.97972,0.95134"
       id="path972-23-5"
       inkscape:connector-curvature="0" />
    <path
       style="display:inline;opacity:1;vector-effect:none;fill:none;fill-opacity:1;stroke:#000000;stroke-width:0.60000002;stroke-linecap:butt;stroke-linejoin:miter;stroke-miterlimit:4;stroke-dasharray:none;stroke-dashoffset:0;stroke-opacity:1"
       d="m 111.93869,162.90717 -0.0201,-1.36863 -0.97972,-0.95133"
       id="path972-2-0-0"
       inkscape:connector-curvature="0" />
    <path
       style="display:inline;opacity:1;vector-effect:none;fill:none;fill-opacity:1;stroke:#000000;stroke-width:0.60000002;stroke-linecap:butt;stroke-linejoin:miter;stroke-miterlimit:4;stroke-dasharray:none;stroke-dashoffset:0;stroke-opacity:1"
       d="m 96.26018,146.33376 14.70557,14.27957"
       id="path989-5-7"
       inkscape:connector-curvature="0"
       sodipodi:nodetypes="cc" />
    <path
       style="display:inline;opacity:1;vector-effect:none;fill:none;fill-opacity:1;stroke:#000000;stroke-width:0.60000002;stroke-linecap:butt;stroke-linejoin:miter;stroke-miterlimit:4;stroke-dasharray:none;stroke-dashoffset:0;stroke-opacity:1"
       d="M 109.86036,159.52228 95.6067,165.70134"
       id="path991-0-7"
       inkscape:connector-curvature="0" />
    <path
       style="display:inline;opacity:1;vector-effect:none;fill:none;fill-opacity:1;stroke:#000000;stroke-width:0.60000002;stroke-linecap:butt;stroke-linejoin:miter;stroke-miterlimit:4;stroke-dasharray:none;stroke-dashoffset:0;stroke-opacity:1"
       d="M 97.33039,147.53777 91.5729,161.96686"
       id="path991-3-9-4"
       inkscape:connector-curvature="0" />
    <path
       style="display:inline;opacity:1;vector-effect:none;fill:none;fill-opacity:1;stroke:#000000;stroke-width:0.60000002;stroke-linecap:butt;stroke-linejoin:miter;stroke-miterlimit:4;stroke-dasharray:none;stroke-dashoffset:0;stroke-opacity:1"
       d="m 55.25226,188.06914 15.19863,14.75833 -2.04814,2.10924 -15.19863,-14.75833 z"
       id="path951-3-4-2"
       inkscape:connector-curvature="0"
       sodipodi:nodetypes="ccccc" />
    <path
       style="display:inline;opacity:1;vector-effect:none;fill:none;fill-opacity:1;stroke:#000000;stroke-width:0.60000002;stroke-linecap:butt;stroke-linejoin:miter;stroke-miterlimit:4;stroke-dasharray:none;stroke-dashoffset:0;stroke-opacity:1"
       d="m 75.28338,166.04529 16.56438,16.08452 -2.03647,2.09723 -16.56438,-16.08452 z"
       id="path951-6-4-2"
       inkscape:connector-curvature="0"
       sodipodi:nodetypes="ccccc" />
    <path
       style="display:inline;opacity:1;vector-effect:none;fill:none;fill-opacity:1;stroke:#000000;stroke-width:0.60000002;stroke-linecap:butt;stroke-linejoin:miter;stroke-miterlimit:4;stroke-dasharray:none;stroke-dashoffset:0;stroke-opacity:1"
       d="M 64.5835,177.06438 81.14789,193.1489 79.11142,195.24612 62.54704,179.1616 Z"
       id="path951-6-2-0-7"
       inkscape:connector-curvature="0"
       sodipodi:nodetypes="ccccc" />
    <path
       style="display:inline;opacity:1;vector-effect:none;fill:none;fill-opacity:1;stroke:#000000;stroke-width:0.60000002;stroke-linecap:butt;stroke-linejoin:miter;stroke-miterlimit:4;stroke-dasharray:none;stroke-dashoffset:0;stroke-opacity:1"
       d="m 45.21721,199.72912 13.83411,13.43333 -2.06041,2.12189 -13.83412,-13.43333 z"
       id="path951-3-1-0-3"
       inkscape:connector-curvature="0"
       sodipodi:nodetypes="ccccc" />
    <path
       style="display:inline;opacity:1;vector-effect:none;fill:none;fill-opacity:1;stroke:#000000;stroke-width:0.60000002;stroke-linecap:butt;stroke-linejoin:miter;stroke-miterlimit:4;stroke-dasharray:none;stroke-dashoffset:0;stroke-opacity:1"
       d="m 81.14789,193.1489 0.75392,0.73209 1.28328,-0.0189 0.43367,-0.44661"
       id="path1093-6-1"
       inkscape:connector-curvature="0" />
    <path
       style="display:inline;opacity:1;vector-effect:none;fill:none;fill-opacity:1;stroke:#000000;stroke-width:0.60000002;stroke-linecap:butt;stroke-linejoin:miter;stroke-miterlimit:4;stroke-dasharray:none;stroke-dashoffset:0;stroke-opacity:1"
       d="m 89.81129,184.22704 0.75393,0.73209 0.0189,1.28327 -0.43366,0.4466"
       id="path1093-4-9-5"
       inkscape:connector-curvature="0" />
    <path
       style="display:inline;opacity:1;vector-effect:none;fill:none;fill-opacity:1;stroke:#000000;stroke-width:0.60000002;stroke-linecap:butt;stroke-linejoin:miter;stroke-miterlimit:4;stroke-dasharray:none;stroke-dashoffset:0;stroke-opacity:1"
       d="m 90.19483,186.64326 -6.62571,6.82339"
       id="path1110-5-4"
       inkscape:connector-curvature="0"
       sodipodi:nodetypes="cc" />
    <path
       style="display:inline;opacity:1;vector-effect:none;fill:none;fill-opacity:1;stroke:#000000;stroke-width:0.60000002;stroke-linecap:butt;stroke-linejoin:miter;stroke-miterlimit:4;stroke-dasharray:none;stroke-dashoffset:0;stroke-opacity:1"
       d="m 64.5835,177.06438 -0.75393,-0.73209 -0.0189,-1.28328 0.43366,-0.4466"
       id="path1093-0-2-4"
       inkscape:connector-curvature="0" />
    <path
       style="display:inline;opacity:1;vector-effect:none;fill:none;fill-opacity:1;stroke:#000000;stroke-width:0.60000002;stroke-linecap:butt;stroke-linejoin:miter;stroke-miterlimit:4;stroke-dasharray:none;stroke-dashoffset:0;stroke-opacity:1"
       d="m 73.24691,168.14252 -0.75394,-0.73211 -1.28327,0.0189 -0.43366,0.44661"
       id="path1093-4-4-9-0"
       inkscape:connector-curvature="0" />
    <path
       style="display:inline;opacity:1;vector-effect:none;fill:none;fill-opacity:1;stroke:#000000;stroke-width:0.60000002;stroke-linecap:butt;stroke-linejoin:miter;stroke-miterlimit:4;stroke-dasharray:none;stroke-dashoffset:0;stroke-opacity:1"
       d="m 70.82045,167.83015 -6.62571,6.82338"
       id="path1110-7-9-9"
       inkscape:connector-curvature="0"
       sodipodi:nodetypes="cc" />
    <path
       style="display:inline;opacity:1;vector-effect:none;fill:none;fill-opacity:1;stroke:#000000;stroke-width:0.60000002;stroke-linecap:butt;stroke-linejoin:miter;stroke-miterlimit:4;stroke-dasharray:none;stroke-dashoffset:0;stroke-opacity:1"
       d="m 75.28338,166.04529 -0.71681,-0.69603 -0.0186,-1.26584 7.33057,-6.19369 1.20014,-0.26809 0.89401,0.87025"
       id="path1135-06-9"
       inkscape:connector-curvature="0"
       sodipodi:nodetypes="cccccc" />
    <path
       style="display:inline;opacity:1;vector-effect:none;fill:none;fill-opacity:1;stroke:#000000;stroke-width:0.60000002;stroke-linecap:butt;stroke-linejoin:miter;stroke-miterlimit:4;stroke-dasharray:none;stroke-dashoffset:0;stroke-opacity:1"
       d="m 62.54704,179.1616 -0.71681,-0.69604 -1.26582,0.0186 -5.97559,7.50943 -0.2327,1.2075 0.89614,0.86805"
       id="path1135-2-60-1"
       inkscape:connector-curvature="0"
       sodipodi:nodetypes="cccccc" />
    <path
       style="display:inline;opacity:1;vector-effect:none;fill:none;fill-opacity:1;stroke:#000000;stroke-width:0.60000002;stroke-linecap:butt;stroke-linejoin:miter;stroke-miterlimit:4;stroke-dasharray:none;stroke-dashoffset:0;stroke-opacity:1"
       d="m 53.20412,190.17838 -0.7168,-0.69604 -1.3304,-0.0441 -5.97558,7.50943 -0.86029,1.91339 0.89616,0.86805"
       id="path1135-2-5-3-5"
       inkscape:connector-curvature="0"
       sodipodi:nodetypes="cccccc" />
    <path
       style="display:inline;opacity:1;vector-effect:none;fill:none;fill-opacity:1;stroke:#000000;stroke-width:0.60000002;stroke-linecap:butt;stroke-linejoin:miter;stroke-miterlimit:4;stroke-dasharray:none;stroke-dashoffset:0;stroke-opacity:1"
       d="m 43.15679,201.85101 -0.7168,-0.69605 -1.26583,0.0186 -5.97559,7.50941 -0.71228,0.7418"
       id="path1135-2-2-1-8"
       inkscape:connector-curvature="0"
       sodipodi:nodetypes="ccccc" />
    <path
       style="display:inline;opacity:1;vector-effect:none;fill:none;fill-opacity:1;stroke:#000000;stroke-width:0.60000002;stroke-linecap:butt;stroke-linejoin:miter;stroke-miterlimit:4;stroke-dasharray:none;stroke-dashoffset:0;stroke-opacity:1"
       d="m 79.10065,195.23568 0.71681,0.69603 0.0186,1.26583 -7.33057,6.1937 -1.20014,0.26809 -0.894,-0.87025"
       id="path1135-2-6-2-9"
       inkscape:connector-curvature="0"
       sodipodi:nodetypes="cccccc" />
    <path
       style="display:inline;opacity:1;vector-effect:none;fill:none;fill-opacity:1;stroke:#000000;stroke-width:0.60000002;stroke-linecap:butt;stroke-linejoin:miter;stroke-miterlimit:4;stroke-dasharray:none;stroke-dashoffset:0;stroke-opacity:1"
       d="m 68.36321,204.89832 0.7168,0.69602 0.0832,1.32855 -7.33057,6.19369 -1.88729,0.91613 -0.894,-0.87026"
       id="path1135-2-5-7-0-5"
       inkscape:connector-curvature="0"
       sodipodi:nodetypes="cccccc" />
    <path
       style="display:inline;opacity:1;vector-effect:none;fill:none;fill-opacity:1;stroke:#000000;stroke-width:0.60000002;stroke-linecap:butt;stroke-linejoin:miter;stroke-miterlimit:4;stroke-dasharray:none;stroke-dashoffset:0;stroke-opacity:1"
       d="m 56.99091,215.28434 0.7168,0.69605 0.0186,1.26583 -7.33056,6.19369 -0.72056,0.7338"
       id="path1135-2-2-7-0-5"
       inkscape:connector-curvature="0"
       sodipodi:nodetypes="ccccc" />
    <path
       style="display:inline;opacity:1;vector-effect:none;fill:none;fill-opacity:1;stroke:#000000;stroke-width:0.60000002;stroke-linecap:butt;stroke-linejoin:miter;stroke-miterlimit:4;stroke-dasharray:none;stroke-dashoffset:0;stroke-opacity:1"
       d="m 91.87651,182.15778 0.7168,0.69605 1.26583,-0.0186 5.97558,-7.50943 0.23271,-1.2075 -0.89615,-0.86804"
       id="path1135-0-1-4"
       inkscape:connector-curvature="0"
       sodipodi:nodetypes="cccccc" />
    <path
       style="display:inline;opacity:1;vector-effect:none;fill:none;fill-opacity:1;stroke:#000000;stroke-width:0.60000002;stroke-linecap:butt;stroke-linejoin:miter;stroke-miterlimit:4;stroke-dasharray:none;stroke-dashoffset:0;stroke-opacity:1"
       d="m 34.48649,209.42501 15.1885,14.74849"
       id="path1233-7-4"
       inkscape:connector-curvature="0" />
    <path
       style="display:inline;opacity:1;vector-effect:none;fill:none;fill-opacity:1;stroke:#000000;stroke-width:0.60000002;stroke-linecap:butt;stroke-linejoin:miter;stroke-miterlimit:4;stroke-dasharray:none;stroke-dashoffset:0;stroke-opacity:1"
       d="m 49.67499,224.1735 0.76177,0.73969 0.0185,1.25665 -0.0548,1.3217 -2.07472,2.13661 -1.2879,0.0932 -1.31238,0.0194 -0.77154,-0.74917 -1.1563,0.017 -0.33015,-0.0508"
       id="path1235-3-8-1-5"
       inkscape:connector-curvature="0"
       sodipodi:nodetypes="cccccccccc" />
    <path
       style="display:inline;opacity:1;vector-effect:none;fill:none;fill-opacity:1;stroke:#000000;stroke-width:0.60000002;stroke-linecap:butt;stroke-linejoin:miter;stroke-miterlimit:4;stroke-dasharray:none;stroke-dashoffset:0;stroke-opacity:1"
       d="M 43.57693,229.01168 29.829609,215.6626"
       id="path1267-1-8"
       inkscape:connector-curvature="0" />
    <path
       style="display:inline;opacity:1;vector-effect:none;fill:none;fill-opacity:1;stroke:#000000;stroke-width:0.60000002;stroke-linecap:butt;stroke-linejoin:miter;stroke-miterlimit:4;stroke-dasharray:none;stroke-dashoffset:0;stroke-opacity:1"
       d="m 34.48649,209.42501 -0.76177,-0.73971 -1.25662,0.0184 -1.319551,0.0937 -2.074709,2.13663 -0.0546,1.29012 0.0194,1.31238 0.771539,0.74919 0.017,1.1563 0.0605,0.32852"
       id="path1235-3-8-8-3-5"
       inkscape:connector-curvature="0"
       sodipodi:nodetypes="cccccccccc" />
    <path
       style="display:inline;opacity:1;fill:#ff7f2a;fill-opacity:1;fill-rule:nonzero;stroke:#000000;stroke-width:0.60000002;stroke-linecap:square;stroke-miterlimit:4;stroke-dasharray:none;stroke-opacity:1"
       d="m 88.52443,158.55087 -3.03041,-2.94262 -0.0314,-0.56932 -0.0314,-0.56933 4.29031,-4.41831 4.29032,-4.41831 0.61581,-0.008 0.6158,-0.008 0.94894,0.9371 0.94893,0.93711 -2.56818,6.43604 c -1.41249,3.53983 -2.66942,6.69034 -2.79316,7.00116 l -0.225,0.56508 z"
       id="path2125-2-7"
       inkscape:connector-curvature="0" />
    <path
       style="display:inline;opacity:1;fill:#ff7f2a;fill-opacity:1;fill-rule:nonzero;stroke:#000000;stroke-width:0.60000002;stroke-linecap:square;stroke-miterlimit:4;stroke-dasharray:none;stroke-opacity:1"
       d="m 102.601,162.45594 c -3.78402,1.64029 -6.90322,2.98269 -6.93155,2.9831 -0.0284,6.4e-4 -0.89605,-0.82617 -1.92826,-1.83687 l -1.87676,-1.83764 2.78912,-6.99028 2.78913,-6.9903 3.01581,2.91331 c 1.65855,1.60249 4.36719,4.23266 6.01919,5.84484 l 3.00338,2.93149 z"
       id="path2127-5-5"
       inkscape:connector-curvature="0" />
    <path
       style="display:inline;opacity:1;fill:#ff7f2a;fill-opacity:1;fill-rule:nonzero;stroke:#000000;stroke-width:0.60000002;stroke-linecap:square;stroke-miterlimit:4;stroke-dasharray:none;stroke-opacity:1"
       d="m 102.5715,171.67355 -0.54745,-0.0141 -3.02605,-2.93839 c -1.66433,-1.61611 -3.015,-2.94978 -3.00147,-2.96371 0.0135,-0.014 3.1209,-1.36761 6.90526,-3.00819 l 6.88066,-2.98287 0.97716,0.93319 0.97716,0.93319 0.01,0.58577 0.01,0.58576 -4.31851,4.44185 -4.31851,4.44183 z"
       id="path2129-5-5"
       inkscape:connector-curvature="0" />
    <path
       style="display:inline;opacity:1;fill:#ff7f2a;fill-opacity:1;fill-rule:nonzero;stroke:#000000;stroke-width:0.60000002;stroke-linecap:square;stroke-miterlimit:4;stroke-dasharray:none;stroke-opacity:1"
       d="m 93.18882,182.64056 -0.55433,0.007 -8.93418,-8.67537 -8.93419,-8.67535 -0.007,-0.56634 -0.007,-0.56631 3.60435,-3.0456 3.60435,-3.0456 0.53369,-0.12275 0.5337,-0.12275 8.41589,8.17251 8.41589,8.1725 -0.10747,0.55223 c -0.0591,0.30371 -0.13169,0.57714 -0.16127,0.6076 -0.0296,0.0305 -1.31888,1.646 -2.86511,3.59007 -1.54625,1.94409 -2.8499,3.57439 -2.89703,3.62292 -0.0687,0.0708 -0.19526,0.0896 -0.64,0.0952 z"
       id="path2131-2-2"
       inkscape:connector-curvature="0" />
    <path
       style="display:inline;opacity:1;fill:#ff7f2a;fill-opacity:1;fill-rule:nonzero;stroke:#000000;stroke-width:0.60000002;stroke-linecap:square;stroke-miterlimit:4;stroke-dasharray:none;stroke-opacity:1"
       d="m 82.51562,193.68721 -0.5559,0.003 -8.96055,-8.70097 -8.96054,-8.70097 -0.01,-0.5843 -0.01,-0.58428 3.63655,-3.74504 3.63654,-3.74504 0.55494,-0.007 0.55493,-0.007 8.97923,8.71911 8.97922,8.71909 0.007,0.55494 0.007,0.55494 -3.65157,3.76051 -3.65158,3.76052 z"
       id="path2133-1-3"
       inkscape:connector-curvature="0" />
    <path
       style="display:inline;opacity:1;fill:#ff7f2a;fill-opacity:1;fill-rule:nonzero;stroke:#000000;stroke-width:0.60000002;stroke-linecap:square;stroke-miterlimit:4;stroke-dasharray:none;stroke-opacity:1"
       d="m 78.35266,198.20177 c -0.59313,0.49741 -2.1703,1.82673 -3.50483,2.95403 l -2.42642,2.04964 -0.52632,0.12346 -0.52632,0.12346 -8.40092,-8.15746 -8.40092,-8.15746 0.10155,-0.52928 0.10157,-0.52927 0.98488,-1.23855 c 0.54169,-0.68119 1.86681,-2.34613 2.94473,-3.69984 l 1.95985,-2.46129 0.53569,-0.009 0.5357,-0.009 8.94879,8.68954 8.94879,8.68955 0.009,0.5249 c 0.008,0.47061 -0.002,0.53562 -0.0987,0.6286 -0.0593,0.0569 -0.59291,0.51068 -1.18606,1.00807 z"
       id="path2135-6-9"
       inkscape:connector-curvature="0" />
    <path
       style="display:inline;opacity:1;fill:#ff7f2a;fill-opacity:1;fill-rule:nonzero;stroke:#000000;stroke-width:0.60000002;stroke-linecap:square;stroke-miterlimit:4;stroke-dasharray:none;stroke-opacity:1"
       d="m 65.19394,210.02561 -3.48927,2.9396 -0.8508,0.41088 c -0.46794,0.22599 -0.85523,0.41546 -0.86066,0.42105 -0.005,0.006 -3.47983,-3.36603 -7.72094,-7.49244 l -7.71108,-7.50259 0.41079,-0.90214 0.41079,-0.90214 2.88485,-3.6152 c 1.58666,-1.98835 2.90297,-3.64423 2.9251,-3.67973 0.0275,-0.0442 0.22906,-0.0588 0.63685,-0.0465 l 0.5966,0.018 8.23087,7.99272 8.23087,7.99272 0.0377,0.57636 0.0377,0.57639 -0.14041,0.13633 c -0.077,0.0751 -1.71026,1.45945 -3.62935,3.07623 z"
       id="path2137-8-4"
       inkscape:connector-curvature="0" />
    <path
       style="display:inline;opacity:1;fill:#ff7f2a;fill-opacity:1;fill-rule:nonzero;stroke:#000000;stroke-width:0.60000002;stroke-linecap:square;stroke-miterlimit:4;stroke-dasharray:none;stroke-opacity:1"
       d="m 55.33271,219.01938 c -4.17163,3.51289 -5.22405,4.40898 -5.44333,4.63485 l -0.22909,0.23599 -7.44225,-7.24154 -7.44223,-7.24156 0.49519,-0.55407 c 0.27236,-0.30473 1.7293,-2.11006 3.23766,-4.01181 l 2.74248,-3.45776 0.55055,-0.0124 0.55055,-0.0124 7.58029,7.36069 7.58029,7.36071 0.007,0.52492 c 0.006,0.52388 0.006,0.52522 -0.14417,0.67317 -0.083,0.0813 -1.00195,0.86507 -2.04242,1.74124 z"
       id="path2139-8-3"
       inkscape:connector-curvature="0" />
    <path
       style="display:inline;opacity:1;fill:#ffdd55;fill-opacity:1;fill-rule:nonzero;stroke:#000000;stroke-width:0.60000002;stroke-linecap:square;stroke-miterlimit:4;stroke-dasharray:none;stroke-opacity:1"
       d="m 99.16987,172.9555 c -0.0156,2.1e-4 -3.37778,-3.25205 -7.47162,-7.22729 l -7.44333,-7.2277 0.88823,-0.91472 0.88822,-0.91473 7.45768,7.24165 7.45768,7.24163 -0.87429,0.90037 c -0.48086,0.4952 -0.88676,0.90081 -0.90255,0.90081 z"
       id="path2145-2-7"
       inkscape:connector-curvature="0" />
    <path
       style="display:inline;opacity:1;fill:#ffdd55;fill-opacity:1;fill-rule:nonzero;stroke:#000000;stroke-width:0.60000002;stroke-linecap:square;stroke-miterlimit:4;stroke-dasharray:none;stroke-opacity:1"
       d="m 89.78888,183.9267 c -0.0205,-0.009 -3.68609,-3.5641 -8.14594,-7.90059 l -8.10878,-7.88458 0.87777,-0.90397 0.87778,-0.90395 8.13565,7.89996 8.13565,7.89997 -0.86761,0.90451 c -0.68321,0.71186 -0.8754,0.90121 -0.90461,0.88861 z"
       id="path2147-3-1"
       inkscape:connector-curvature="0" />
    <path
       style="display:inline;opacity:1;fill:#ffdd55;fill-opacity:1;fill-rule:nonzero;stroke:#000000;stroke-width:0.60000002;stroke-linecap:square;stroke-miterlimit:4;stroke-dasharray:none;stroke-opacity:1"
       d="m 79.0884,194.94642 c -0.0205,-0.008 -3.68609,-3.56411 -8.14595,-7.9006 l -8.10877,-7.88457 0.87777,-0.90397 0.87777,-0.90395 8.13565,7.89996 8.13565,7.89996 -0.8676,0.90452 c -0.68322,0.71186 -0.8754,0.90121 -0.90461,0.8886 z"
       id="path2149-5-7"
       inkscape:connector-curvature="0" />
    <path
       style="display:inline;opacity:1;fill:#ffdd55;fill-opacity:1;fill-rule:nonzero;stroke:#000000;stroke-width:0.60000002;stroke-linecap:square;stroke-miterlimit:4;stroke-dasharray:none;stroke-opacity:1"
       d="m 60.94895,197.42407 -7.45791,-7.24187 0.88825,-0.91476 0.88825,-0.91475 7.44702,7.24185 7.44702,7.24185 -0.87749,0.91469 -0.87749,0.91471 z"
       id="path2151-7-3"
       inkscape:connector-curvature="0" />
    <path
       style="display:inline;opacity:1;fill:#ff9955;fill-opacity:1;fill-rule:nonzero;stroke:#000000;stroke-width:0.60000002;stroke-linecap:square;stroke-miterlimit:4;stroke-dasharray:none;stroke-opacity:1"
       d="m 50.21595,208.4122 -6.77971,-6.58331 0.88822,-0.91472 0.88823,-0.91473 6.7797,6.58332 6.77971,6.5833 -0.88822,0.91471 -0.88822,0.91473 z"
       id="path2153-2-6"
       inkscape:connector-curvature="0" />
    <path
       style="display:inline;opacity:1;fill:#ffdd55;fill-opacity:1;fill-rule:nonzero;stroke:#000000;stroke-width:0.60000002;stroke-linecap:square;stroke-miterlimit:4;stroke-dasharray:none;stroke-opacity:1"
       d="m 47.76525,229.47081 c -0.26338,0.0196 -0.8166,0.0429 -1.22948,0.0499 l -0.75066,0.0134 -0.389,-0.37774 -0.389,-0.37773 -0.51848,0.0121 c -0.28515,0.006 -0.59243,0.009 -0.68282,0.006 l -0.16439,-0.006 -6.80389,-6.60679 -6.803891,-6.60678 -0.014,-0.68266 -0.014,-0.68265 -0.38689,-0.37567 -0.38689,-0.37568 -0.005,-0.70573 c -0.003,-0.38814 0.005,-0.93355 0.0182,-1.21199 l 0.0235,-0.50631 0.99592,-1.02563 0.995931,-1.02564 0.56931,-0.0406 c 0.31314,-0.0217 0.84913,-0.0463 1.19113,-0.0532 l 0.62182,-0.0131 8.29863,8.05822 8.29863,8.05824 0.005,0.74706 c 0.003,0.41089 -0.005,0.95592 -0.0182,1.21116 l -0.0231,0.46409 -0.97952,1.00858 -0.97953,1.00858 -0.47881,0.0368 z"
       id="path2155-4-1"
       inkscape:connector-curvature="0" />
    <path
       style="display:inline;opacity:1;vector-effect:none;fill:none;fill-opacity:1;stroke:#000000;stroke-width:0.60000002;stroke-linecap:butt;stroke-linejoin:miter;stroke-miterlimit:4;stroke-dasharray:none;stroke-dashoffset:0;stroke-opacity:1"
       d="m 96.673,143.976 16.64488,16.16382"
       id="path2038-9"
       inkscape:connector-curvature="0"
       sodipodi:nodetypes="cc" />
    <path
       style="display:inline;opacity:1;fill:#ff7f2a;fill-opacity:1;fill-rule:nonzero;stroke:#000000;stroke-width:0.60000002;stroke-linecap:square;stroke-miterlimit:4;stroke-dasharray:none;stroke-opacity:1"
       d="m 87.578125,137.28125 c -0.25826,1e-4 -0.507134,0.006 -0.552734,0.0137 l -0.08398,0.0137 v 0.51563 0.51758 l 0.382813,0.37109 c 0.20964,0.20455 1.803428,1.75462 3.542969,3.44336 l 3.162109,3.07031 0.695312,-0.002 h 0.69336 l 6.017576,5.84375 h -0.008 l 0.0996,0.0977 c 0.0545,0.0531 2.0027,1.94304 4.33008,4.20117 2.32738,2.25812 4.69182,4.55199 5.25391,5.09765 l 1.02148,0.99219 0.002,0.64649 c 0.001,0.35469 0.01,0.66475 0.0176,0.68945 0.008,0.0247 1.60404,1.5882 3.54688,3.47461 l 3.53125,3.42969 h 0.25976 c 0.14259,0 0.38201,-0.008 0.53125,-0.0156 l 0.27149,-0.0137 -0.0176,-0.55469 -0.0156,-0.55273 -3.56446,-4.15821 -3.56445,-4.1582 -4.72266,-4.58789 -4.72461,-4.58789 h -0.006 c -1.06247,-1.03192 -2.11219,-2.05055 -2.95703,-2.87109 l -4.150383,-4.03321 -4.261718,-3.4414 -4.261719,-3.44141 z"
       id="path2042-3"
       inkscape:connector-curvature="0" />
  </g>
  <g
     inkscape:groupmode="layer"
     id="layer2"
     inkscape:label="Layer 4"
     style="display:inline">
    <path
       style="display:inline;opacity:1;vector-effect:none;fill:none;fill-opacity:1;stroke:#000000;stroke-width:0.426;stroke-linecap:butt;stroke-linejoin:miter;stroke-miterlimit:4;stroke-dasharray:none;stroke-dashoffset:0;stroke-opacity:1"
       d="m 40.100333,200.22594 -1.01968,1.05011 0.0194,1.31611 15.85343,15.39417 10.71889,-11.03866 -15.79066,-15.33322 -1.45761,0.0365 z"
       id="path1729-1"
       inkscape:connector-curvature="0"
       sodipodi:nodetypes="cccccccc" />
    <path
       style="display:inline;opacity:1;vector-effect:none;fill:none;fill-opacity:1;stroke:#000000;stroke-width:0.426;stroke-linecap:butt;stroke-linejoin:miter;stroke-miterlimit:4;stroke-dasharray:none;stroke-dashoffset:0;stroke-opacity:1"
       d="m 59.403593,218.97 -1.01968,1.0501 -1.30967,0.0256 c -0.88988,-0.8641 -1.23093,-1.19528 -2.12081,-2.05938 l 10.71889,-11.03867 c 0.88635,0.86067 1.22388,1.18842 2.11024,2.04912 l -0.0535,1.39983 z"
       id="path1729-8-9"
       inkscape:connector-curvature="0"
       sodipodi:nodetypes="cccccccc" />
    <ellipse
       style="display:inline;opacity:1;fill:none;fill-opacity:1;fill-rule:nonzero;stroke:#000000;stroke-width:0.426;stroke-linecap:square;stroke-miterlimit:4;stroke-dasharray:none;stroke-opacity:1"
       id="path1910-8"
       cx="-110.45903"
       cy="181.7574"
       rx="6.2100639"
       ry="6.1500635"
       transform="rotate(-45.842047)" />
    <path
       style="display:inline;opacity:0;fill:#ffe680;fill-opacity:1;fill-rule:nonzero;stroke:none;stroke-width:0.426;stroke-linecap:square;stroke-miterlimit:4;stroke-dasharray:none;stroke-opacity:1"
       d="m 47.124143,210.09341 -7.82472,-7.59805 -0.006,-0.57266 -0.006,-0.57267 4.61869,-4.75647 4.61869,-4.75648 0.65752,-0.008 0.65752,-0.008 7.77956,7.55421 7.77958,7.55419 -5.22484,5.38072 -5.22485,5.38073 z m 11.62396,-0.75512 c 1.12283,-1.70176 1.3718,-3.9656 0.64077,-5.82607 -1.07765,-2.7426 -3.93899,-4.38993 -6.84088,-3.93845 -2.39352,0.37239 -4.35382,2.02415 -5.12294,4.31661 -1.40247,4.1803 1.74105,8.45788 6.11677,8.32346 1.32996,-0.0408 2.45777,-0.40553 3.51928,-1.1379 0.48274,-0.33308 1.34894,-1.22528 1.68698,-1.73767 z"
       id="path2161-8"
       inkscape:connector-curvature="0" />
    <path
       style="display:inline;opacity:1;fill:#ffe680;fill-opacity:1;fill-rule:nonzero;stroke:#000000;stroke-width:0.6;stroke-linecap:square;stroke-miterlimit:4;stroke-dasharray:none;stroke-opacity:1"
       d="m 54.944203,217.69124 c -0.0109,2.4e-4 -3.53425,-3.41213 -7.82943,-7.5829 l -7.80944,-7.58321 -0.008,-0.5912 -0.008,-0.59121 4.61183,-4.74812 4.61181,-4.74811 0.64702,-0.0148 0.64701,-0.0148 7.79308,7.56729 7.79309,7.56734 -5.2142,5.36978 c -2.86781,2.95336 -5.22346,5.36964 -5.23418,5.37005 z m 3.31107,-7.68303 c 0.78516,-0.92087 1.26913,-1.94047 1.47245,-3.1021 0.25848,-1.47669 -0.0166,-3.02291 -0.76369,-4.29246 -0.30178,-0.51281 -0.63009,-0.92822 -1.06992,-1.35373 -0.65952,-0.63802 -1.38018,-1.08969 -2.22956,-1.39727 -0.71985,-0.26068 -1.46152,-0.38342 -2.24811,-0.37205 -1.36605,0.0198 -2.6317,0.44705 -3.73422,1.26085 -1.30112,0.96038 -2.20276,2.39607 -2.50042,3.9813 -0.11583,0.61696 -0.14156,1.39455 -0.0654,1.97778 0.25332,1.94064 1.33665,3.6134 2.99313,4.62169 1.79696,1.0938 4.07875,1.21045 5.99624,0.30665 0.57866,-0.27275 1.1279,-0.63747 1.58768,-1.05431 0.27848,-0.25247 0.33626,-0.31171 0.56207,-0.57606 z"
       id="path2167-5"
       inkscape:connector-curvature="0" />
    <path
       style="display:inline;opacity:1;fill:#ffe680;fill-opacity:1;fill-rule:nonzero;stroke:#000000;stroke-width:0.6;stroke-linecap:square;stroke-miterlimit:4;stroke-dasharray:none;stroke-opacity:1"
       d="m 57.711493,219.83062 -0.61508,0.007 -0.93524,-0.90814 -0.93523,-0.90813 5.24575,-5.40227 5.24574,-5.40222 0.93845,0.91125 0.93844,0.91126 -0.0266,0.64748 -0.0266,0.64745 -4.60723,4.74468 -4.60723,4.74469 z"
       id="path2169-3"
       inkscape:connector-curvature="0" />
    <path
       style="display:inline;opacity:1;fill:#ffd42a;fill-opacity:1;fill-rule:nonzero;stroke:#000000;stroke-width:0.6;stroke-linecap:square;stroke-miterlimit:4;stroke-dasharray:none;stroke-opacity:1"
       d="m 56.984503,210.65501 c -2.05675,1.5085 -4.75829,1.58828 -6.89562,0.20372 -0.47473,-0.30755 -1.27381,-1.0971 -1.58306,-1.56418 -1.35603,-2.04807 -1.38496,-4.56507 -0.0764,-6.65106 0.28033,-0.4469 1.22135,-1.41415 1.65652,-1.70321 2.09812,-1.39163 4.72567,-1.40644 6.75687,-0.038 0.45871,0.30904 1.14729,0.97632 1.46242,1.41725 1.48006,2.0706 1.48944,4.84504 0.0235,6.95017 -0.26747,0.38401 -0.97903,1.11722 -1.34446,1.38526 z"
       id="path2177-5"
       inkscape:connector-curvature="0" />
    <path
       style="display:inline;opacity:1;vector-effect:none;fill:none;fill-opacity:1;stroke:#000000;stroke-width:0.426;stroke-linecap:butt;stroke-linejoin:miter;stroke-miterlimit:4;stroke-dasharray:none;stroke-dashoffset:0;stroke-opacity:1"
       d="m 90.612588,195.0464 10.684812,-11.00357 8.34532,-58.21791 1.85872,-1.91417 14.92758,0.59315 -9.10036,53.99327 -16.03126,5.54564"
       id="path1727-0-8"
       inkscape:connector-curvature="0"
       sodipodi:nodetypes="ccccccc" />
    <ellipse
       style="display:inline;opacity:1;fill:none;fill-opacity:1;fill-rule:nonzero;stroke:#000000;stroke-width:0.426;stroke-linecap:square;stroke-miterlimit:4;stroke-dasharray:none;stroke-opacity:1"
       id="path1910-9-7-1"
       cx="-22.108253"
       cy="182.65729"
       rx="6.2100639"
       ry="6.1500635"
       transform="rotate(-45.842047)" />
    <path
       style="display:inline;opacity:1;fill:#ffd42a;fill-opacity:1;fill-rule:nonzero;stroke:#000000;stroke-width:0.6;stroke-linecap:square;stroke-miterlimit:4;stroke-dasharray:none;stroke-opacity:1"
       d="m 119.60008,147.56297 c -2.05844,1.77563 -4.9184,2.02204 -7.18823,0.61925 -0.43381,-0.26807 -1.26331,-1.0411 -1.58821,-1.48011 -0.49334,-0.66646 -0.88303,-1.54573 -1.05344,-2.37686 -0.11122,-0.54297 -0.11776,-1.66648 -0.0129,-2.22935 0.14862,-0.79691 0.40728,-1.4582 0.85477,-2.18523 0.29982,-0.48711 1.15666,-1.38282 1.61775,-1.69111 1.07408,-0.71812 2.1525,-1.06195 3.39638,-1.08293 1.6815,-0.0284 3.18315,0.60152 4.34979,1.8245 0.66016,0.69202 1.04097,1.3186 1.32731,2.1838 0.69114,2.08853 0.22142,4.30992 -1.26036,5.96102 -0.16382,0.18248 -0.36312,0.38813 -0.44294,0.45701 z"
       id="path2175-3-2"
       inkscape:connector-curvature="0" />
    <path
       style="display:inline;opacity:1;fill:#ffe680;fill-opacity:1;fill-rule:nonzero;stroke:#000000;stroke-width:0.6;stroke-linecap:square;stroke-miterlimit:4;stroke-dasharray:none;stroke-opacity:1"
       d="m 109.32815,181.05862 c -4.26748,1.475 -7.76614,2.67399 -7.77476,2.66435 -0.008,-0.0101 1.84775,-13.00857 4.12532,-28.88656 l 4.14109,-28.8691 0.88605,-0.92862 0.88604,-0.9286 7.30082,0.28992 7.30084,0.28993 -0.0276,0.19054 c -0.143,0.98744 -9.0116,53.43031 -9.04042,53.45859 -0.0211,0.0207 -3.52995,1.24454 -7.79741,2.71954 z m 11.2977,-34.03585 c 2.50395,-3.20473 1.48348,-7.8388 -2.12033,-9.62854 -2.05598,-1.02107 -4.48429,-0.84516 -6.42966,0.46575 -0.46101,0.31065 -1.14125,0.95597 -1.47703,1.40121 -0.90286,1.19716 -1.35569,2.58861 -1.31708,4.04712 0.0159,0.59952 0.0284,0.71593 0.13148,1.19603 0.41214,1.92362 1.7118,3.55135 3.50057,4.3842 2.66887,1.24261 5.89274,0.46266 7.71198,-1.86576 z"
       id="path1821-4-5"
       inkscape:connector-curvature="0" />
  </g>
</svg>
