<?xml version="1.0" encoding="UTF-8" standalone="no"?>
<!-- Created with Inkscape (http://www.inkscape.org/) -->

<svg
   xmlns:osb="http://www.openswatchbook.org/uri/2009/osb"
   xmlns:dc="http://purl.org/dc/elements/1.1/"
   xmlns:cc="http://creativecommons.org/ns#"
   xmlns:rdf="http://www.w3.org/1999/02/22-rdf-syntax-ns#"
   xmlns:svg="http://www.w3.org/2000/svg"
   xmlns="http://www.w3.org/2000/svg"
   xmlns:sodipodi="http://sodipodi.sourceforge.net/DTD/sodipodi-0.dtd"
   xmlns:inkscape="http://www.inkscape.org/namespaces/inkscape"
   viewBox="0 0 256 256"
   id="svg4166"
   version="1.1"
   inkscape:version="0.92.3 (2405546, 2018-03-11)"
   sodipodi:docname="groin_spider_lace_panties.svg"
   inkscape:export-filename="G:\Games\WM\Resources\Fonts\Trainer\Lilith's Throne\groin__spider_lace_panties.png"
   inkscape:export-xdpi="96"
   inkscape:export-ydpi="96">
  <style
     id="style3">
    svg { cursor: default; }
  </style>
  <defs
     id="defs4168">
    <linearGradient
       id="linearGradient900"
       osb:paint="solid">
      <stop
         style="stop-color:#ffd5d5;stop-opacity:1;"
         offset="0"
         id="stop898" />
    </linearGradient>
    <inkscape:path-effect
       effect="powerstroke"
       id="path-effect4202"
       is_visible="true"
       offset_points="0,0.5"
       sort_points="true"
       interpolator_type="Linear"
       interpolator_beta="0.2"
       start_linecap_type="zerowidth"
       linejoin_type="round"
       miter_limit="4"
       end_linecap_type="zerowidth"
       cusp_linecap_type="round" />
    <inkscape:path-effect
       effect="powerstroke"
       id="path-effect4460-7-7"
       is_visible="true"
       offset_points="0,0.21409455"
       sort_points="true"
       interpolator_type="CubicBezierJohan"
       interpolator_beta="0.2"
       start_linecap_type="zerowidth"
       linejoin_type="round"
       miter_limit="4"
       end_linecap_type="zerowidth"
       cusp_linecap_type="round" />
    <inkscape:path-effect
       effect="powerstroke"
       id="path-effect4464-1"
       is_visible="true"
       offset_points="0,0.21409455"
       sort_points="true"
       interpolator_type="CubicBezierJohan"
       interpolator_beta="0.2"
       start_linecap_type="zerowidth"
       linejoin_type="round"
       miter_limit="4"
       end_linecap_type="zerowidth"
       cusp_linecap_type="round" />
    <inkscape:path-effect
       effect="powerstroke"
       id="path-effect4460-4"
       is_visible="true"
       offset_points="0,0.21409455"
       sort_points="true"
       interpolator_type="CubicBezierJohan"
       interpolator_beta="0.2"
       start_linecap_type="zerowidth"
       linejoin_type="round"
       miter_limit="4"
       end_linecap_type="zerowidth"
       cusp_linecap_type="round" />
    <inkscape:path-effect
       effect="powerstroke"
       id="path-effect4456-2"
       is_visible="true"
       offset_points="0,0.21409455"
       sort_points="true"
       interpolator_type="CubicBezierJohan"
       interpolator_beta="0.2"
       start_linecap_type="zerowidth"
       linejoin_type="round"
       miter_limit="4"
       end_linecap_type="zerowidth"
       cusp_linecap_type="round" />
    <inkscape:path-effect
       effect="powerstroke"
       id="path-effect4452-1"
       is_visible="true"
       offset_points="0,0.21409455"
       sort_points="true"
       interpolator_type="CubicBezierJohan"
       interpolator_beta="0.2"
       start_linecap_type="zerowidth"
       linejoin_type="round"
       miter_limit="4"
       end_linecap_type="zerowidth"
       cusp_linecap_type="round" />
    <inkscape:path-effect
       effect="powerstroke"
       id="path-effect4448-1"
       is_visible="true"
       offset_points="0,0.21409455"
       sort_points="true"
       interpolator_type="CubicBezierJohan"
       interpolator_beta="0.2"
       start_linecap_type="zerowidth"
       linejoin_type="round"
       miter_limit="4"
       end_linecap_type="zerowidth"
       cusp_linecap_type="round" />
  </defs>
  <sodipodi:namedview
     id="base"
     pagecolor="#ffffff"
     bordercolor="#666666"
     borderopacity="1.0"
     inkscape:pageopacity="0.0"
     inkscape:pageshadow="2"
     inkscape:zoom="2.8"
     inkscape:cx="133.81442"
     inkscape:cy="85.980855"
     inkscape:document-units="px"
     inkscape:current-layer="layer1"
     showgrid="false"
     units="px"
     inkscape:window-width="1366"
     inkscape:window-height="745"
     inkscape:window-x="-8"
     inkscape:window-y="-8"
     inkscape:window-maximized="1"
     inkscape:snap-nodes="false" />
  <metadata
     id="metadata4171">
    <rdf:RDF>
      <cc:Work
         rdf:about="">
        <dc:format>image/svg+xml</dc:format>
        <dc:type
           rdf:resource="http://purl.org/dc/dcmitype/StillImage" />
        <dc:title></dc:title>
      </cc:Work>
    </rdf:RDF>
  </metadata>
  <g
     inkscape:label="Layer 1"
     inkscape:groupmode="layer"
     id="layer1"
     transform="translate(0,-796.36216)"
     style="display:inline">
    <path
       style="fill:#ff8080;fill-opacity:0.78431373;fill-rule:evenodd;stroke:#000000;stroke-width:0.40000001;stroke-linecap:butt;stroke-linejoin:miter;stroke-miterlimit:4;stroke-dasharray:3.20000005, 0.40000001;stroke-dashoffset:0;stroke-opacity:1"
       d="m 8.2142857,913.9693 c 13.1429243,1.08044 89.5893683,56.18851 89.4568463,64.08547 l 65.119478,-3.81498 c 3.10664,-7.9852 37.06751,-31.13543 80.60224,-69.91335 -1.86078,-4.37366 -3.03254,-10.12539 -4.46428,-15.35714 -87.04063,45.67958 -177.736617,25.2453 -225.840553,1.1779 -0.801986,8.52826 -2.946534,16.09756 -4.8737313,23.8221 z"
       id="path4205"
       inkscape:connector-curvature="0"
       sodipodi:nodetypes="ccccccc" />
    <path
       style="fill:#ff8080;fill-rule:evenodd;stroke:#000000;stroke-width:0.40000001;stroke-linecap:butt;stroke-linejoin:miter;stroke-miterlimit:4;stroke-dasharray:3.2, 0.4;stroke-dashoffset:0;stroke-opacity:1"
       d="m 13.124999,882.45145 c 46.5291,8.31229 92.284971,49.19325 223.839281,-3.125 l -0.53571,8.57142 C 170.11255,928.27595 92.6091,924.2199 12.485337,891.27411 Z"
       id="path4159"
       inkscape:connector-curvature="0"
       sodipodi:nodetypes="ccccc" />
    <path
       style="fill:#ffd5d5;fill-opacity:0.78431374;fill-rule:evenodd;stroke:#000000;stroke-width:0.6;stroke-linecap:butt;stroke-linejoin:miter;stroke-miterlimit:4;stroke-dasharray:4.8, 0.59999999999999998;stroke-opacity:1;stroke-dashoffset:0"
       d="m 236.69592,880.94189 c 1.77785,7.13538 4.36139,16.708 8.833,28.30091 -14.46471,23.82811 -38.06218,37.41185 -50.03848,45.52663 -33.00541,22.36345 -37.59962,28.67966 -44.53186,36.20366 -2.93802,3.20135 -6.26655,9.25801 -9.01093,10.14961 -9.10136,2.9572 -18.46396,3.3333 -29.0161,-0.8201 -2.61814,-1.03048 -3.04332,-4.87278 -5.32744,-7.26127 C 98.744984,982.804 88.565413,975.10711 65.913019,960.50323 43.266108,945.90288 9.5743343,924.75274 8.1360533,914.20942 c 4.3437037,-16.5792 4.8250407,-19.81364 4.9332867,-31.4793 26.619482,14.31408 63.074058,24.77085 93.93156,27.37562 28.05945,2.36857 50.6252,-2.281 73.61289,-6.3158 28.07826,-4.9283 49.68076,-13.35034 56.08213,-22.84805 z"
       id="path4196"
       inkscape:connector-curvature="0"
       sodipodi:nodetypes="ccscsscsccssc" />
    <path
       style="fill:none;stroke:#000000;stroke-width:0.30000001;stroke-linecap:butt;stroke-linejoin:miter;stroke-miterlimit:4;stroke-dasharray:none;stroke-opacity:1"
       d="m 48.73986,908.41542 c 13.887894,10.0879 16.98077,7.63219 29.57452,7.36693 -13.9109,0.85854 -18.310448,1.70013 -29.57452,-7.36693 z"
       id="path858"
       inkscape:connector-curvature="0"
       sodipodi:nodetypes="ccc" />
    <path
       style="fill:none;stroke:#000000;stroke-width:0.3;stroke-linecap:butt;stroke-linejoin:miter;stroke-opacity:1;stroke-miterlimit:4;stroke-dasharray:none"
       d="m 32.577419,902.10197 c 2.901813,5.83298 9.27291,6.46204 16.162441,6.31345 -8.300472,0.16118 -13.921031,-1.76202 -16.162441,-6.31345 z"
       id="path860"
       inkscape:connector-curvature="0"
       sodipodi:nodetypes="ccc" />
    <path
       style="fill:none;stroke:#000000;stroke-width:0.30000001;stroke-linecap:butt;stroke-linejoin:miter;stroke-miterlimit:4;stroke-dasharray:none;stroke-opacity:1"
       d="m 20.89753,896.70676 c 0.483872,5.55653 5.876568,6.20209 11.679889,5.48616 -5.540672,0.5941 -11.397609,0.68388 -11.679889,-5.48616 z"
       id="path862"
       inkscape:connector-curvature="0"
       sodipodi:nodetypes="ccc" />
    <path
       style="fill:none;stroke:#000000;stroke-width:0.3;stroke-linecap:butt;stroke-linejoin:miter;stroke-opacity:1;stroke-miterlimit:4;stroke-dasharray:none"
       d="m 13.242951,892.51331 c 1.426941,3.49413 3.185853,5.20649 7.970252,3.83663 -7.161075,2.04458 -7.207116,-3.30715 -7.970252,-3.83663 z"
       id="path864"
       inkscape:connector-curvature="0"
       sodipodi:nodetypes="ccc" />
    <path
       style="fill:none;stroke:#000000;stroke-width:0.3;stroke-linecap:butt;stroke-linejoin:miter;stroke-opacity:1;stroke-miterlimit:4;stroke-dasharray:none"
       d="m 12.759248,912.83554 8.447882,-16.54271 v 0 z"
       id="path850"
       inkscape:connector-curvature="0" />
    <path
       sodipodi:nodetypes="ccc"
       inkscape:connector-curvature="0"
       id="path898"
       d="m 58.27312,949.01605 57.87891,-30.2105 z"
       style="fill:none;stroke:#000000;stroke-width:0.3;stroke-linecap:butt;stroke-linejoin:miter;stroke-opacity:1;stroke-miterlimit:4;stroke-dasharray:none" />
    <path
       sodipodi:nodetypes="ccc"
       inkscape:connector-curvature="0"
       id="path912"
       d="m 73.23653,941.02201 c 8.304585,8.99415 19.70179,22.43268 37.47196,23.22345 -17.78755,-0.8223 -29.32742,-14.35783 -37.47196,-23.22345 z"
       style="fill:none;stroke:#000000;stroke-width:0.3;stroke-linecap:butt;stroke-linejoin:miter;stroke-opacity:1;stroke-miterlimit:4;stroke-dasharray:none" />
    <path
       style="fill:none;stroke:#000000;stroke-width:0.3;stroke-linecap:butt;stroke-linejoin:miter;stroke-opacity:1;stroke-miterlimit:4;stroke-dasharray:none"
       d="m 85.615337,934.76947 c 10.198621,7.35265 14.145951,14.35146 31.916123,15.14223 -17.787552,-0.8223 -21.372471,-7.66557 -31.916123,-15.14223 z"
       id="path910"
       inkscape:connector-curvature="0"
       sodipodi:nodetypes="ccc" />
    <path
       style="fill:none;stroke:#000000;stroke-width:0.30000001;stroke-linecap:butt;stroke-linejoin:miter;stroke-miterlimit:4;stroke-dasharray:none;stroke-opacity:1"
       d="m 104.18308,925.00171 c 7.95325,6.8049 12.49822,10.15757 26.10211,9.38724 -13.71575,0.8408 -18.3159,-2.87376 -26.10211,-9.38724 z"
       id="path908"
       inkscape:connector-curvature="0"
       sodipodi:nodetypes="ccc" />
    <path
       style="fill:none;stroke:#000000;stroke-width:0.3;stroke-linecap:butt;stroke-linejoin:miter;stroke-opacity:1;stroke-miterlimit:4;stroke-dasharray:none"
       d="m 40.405831,935.31517 c 5.678684,9.70909 6.634992,14.57328 16.135612,14.30802 -10.494266,0.85854 -10.921088,-6.25112 -16.135612,-14.30802 z"
       id="path902"
       inkscape:connector-curvature="0"
       sodipodi:nodetypes="ccc" />
    <path
       style="fill:none;stroke:#000000;stroke-width:0.3;stroke-linecap:butt;stroke-linejoin:miter;stroke-opacity:1;stroke-miterlimit:4;stroke-dasharray:none"
       d="m 22.812384,922.74483 c 2.260622,1.45798 2.282278,1.01561 4.302109,1.67059 -2.062335,-0.55311 -2.133556,-0.15488 -4.302109,-1.67059 z"
       id="path886"
       inkscape:connector-curvature="0"
       sodipodi:nodetypes="ccc" />
    <path
       style="fill:none;stroke:#000000;stroke-width:0.3;stroke-linecap:butt;stroke-linejoin:miter;stroke-opacity:1;stroke-miterlimit:4;stroke-dasharray:none"
       d="m 26.737553,924.41542 c 2.601008,3.12361 9.625915,10.22148 13.876561,10.75979 -4.318904,-0.48074 -11.402291,-7.76416 -13.876561,-10.75979 z"
       id="path894"
       inkscape:connector-curvature="0"
       sodipodi:nodetypes="ccc" />
    <path
       style="fill:none;stroke:#000000;stroke-width:0.30000001;stroke-linecap:butt;stroke-linejoin:miter;stroke-miterlimit:4;stroke-dasharray:none;stroke-opacity:1"
       d="m 61.998583,947.01979 c 3.758899,8.99415 25.13136,30.45077 42.901527,31.24154 -17.824269,-0.82589 -39.27465,-22.5242 -42.901527,-31.24154 z"
       id="path914"
       inkscape:connector-curvature="0"
       sodipodi:nodetypes="ccc" />
    <path
       style="fill:#ffaaaa;fill-rule:evenodd;stroke:#000000;stroke-width:0.40000001;stroke-linecap:butt;stroke-linejoin:miter;stroke-miterlimit:4;stroke-dasharray:3.2, 0.4;stroke-dashoffset:0;stroke-opacity:1"
       d="m 12.773437,882.25056 c 0.02886,2.87339 -0.0012,5.51873 -0.2881,9.02355 58.623527,41.44689 191.028163,32.00009 227.046563,-0.90052 -0.91622,-3.97006 -1.41854,-7.06558 -2.16359,-10.50508 -49.02093,34.30367 -154.656162,41.72911 -224.594873,2.38205 z"
       id="path4157"
       inkscape:connector-curvature="0"
       sodipodi:nodetypes="ccccc" />
    <path
       sodipodi:nodetypes="ccc"
       inkscape:connector-curvature="0"
       id="path916"
       d="m 204.164,907.84399 c -13.8879,10.0879 -16.98077,7.63219 -29.57452,7.36693 13.9109,0.85854 18.31044,1.70013 29.57452,-7.36693 z"
       style="fill:none;stroke:#000000;stroke-width:0.30000001;stroke-linecap:butt;stroke-linejoin:miter;stroke-miterlimit:4;stroke-dasharray:none;stroke-opacity:1" />
    <path
       sodipodi:nodetypes="ccc"
       inkscape:connector-curvature="0"
       id="path918"
       d="m 220.32644,901.53054 c -2.90182,5.83298 -9.27291,6.46204 -16.16244,6.31345 8.30047,0.16118 13.92103,-1.76202 16.16244,-6.31345 z"
       style="fill:none;stroke:#000000;stroke-width:0.30000001;stroke-linecap:butt;stroke-linejoin:miter;stroke-miterlimit:4;stroke-dasharray:none;stroke-opacity:1" />
    <path
       style="fill:none;stroke:#000000;stroke-width:0.3;stroke-linecap:butt;stroke-linejoin:miter;stroke-opacity:1;stroke-miterlimit:4;stroke-dasharray:none"
       d="M 39.763605,935.71275 78.702162,915.60378 Z"
       id="path844"
       inkscape:connector-curvature="0"
       sodipodi:nodetypes="ccc" />
    <path
       style="fill:none;stroke:#000000;stroke-width:0.3;stroke-linecap:butt;stroke-linejoin:miter;stroke-opacity:1;stroke-miterlimit:4;stroke-dasharray:none"
       d="M 25.506352,925.08294 48.73986,908.41542 Z"
       id="path846"
       inkscape:connector-curvature="0" />
    <path
       style="fill:none;stroke:#000000;stroke-width:0.3;stroke-linecap:butt;stroke-linejoin:miter;stroke-opacity:1;stroke-miterlimit:4;stroke-dasharray:none"
       d="M 17.930208,918.26441 32.577419,902.10197 Z"
       id="path848"
       inkscape:connector-curvature="0" />
    <path
       sodipodi:nodetypes="ccc"
       inkscape:connector-curvature="0"
       id="path868"
       d="m 12.45801,895.01712 c 1.184296,4.7456 2.644114,7.07128 6.614948,5.21077 -5.943368,2.77688 -5.98158,-4.49165 -6.614948,-5.21077 z"
       style="fill:none;stroke:#000000;stroke-width:0.3;stroke-linecap:butt;stroke-linejoin:miter;stroke-opacity:1;stroke-miterlimit:4;stroke-dasharray:none" />
    <path
       style="fill:none;stroke:#000000;stroke-width:0.3;stroke-linecap:butt;stroke-linejoin:miter;stroke-opacity:1;stroke-miterlimit:4;stroke-dasharray:none"
       d="m 11.698853,899.52665 c 0.955789,4.34139 2.133939,6.46898 5.338613,4.76694 -4.796613,2.54036 -4.827452,-4.10907 -5.338613,-4.76694 z"
       id="path870"
       inkscape:connector-curvature="0"
       sodipodi:nodetypes="ccc" />
    <path
       sodipodi:nodetypes="ccc"
       inkscape:connector-curvature="0"
       id="path872"
       d="m 10.828741,903.52665 c 0.74782,4.34139 1.669618,6.46898 4.17699,4.76694 -3.752923,2.54036 -3.777052,-4.10907 -4.17699,-4.76694 z"
       style="fill:none;stroke:#000000;stroke-width:0.3;stroke-linecap:butt;stroke-linejoin:miter;stroke-opacity:1;stroke-miterlimit:4;stroke-dasharray:none" />
    <path
       sodipodi:nodetypes="ccc"
       inkscape:connector-curvature="0"
       id="path874"
       d="m 19.183755,900.29359 c 0.419434,6.4794 4.820344,6.64322 9.85083,5.80838 -4.802814,0.69277 -9.606142,1.38643 -9.85083,-5.80838 z"
       style="fill:none;stroke:#000000;stroke-width:0.3;stroke-linecap:butt;stroke-linejoin:miter;stroke-opacity:1;stroke-miterlimit:4;stroke-dasharray:none" />
    <path
       style="fill:none;stroke:#000000;stroke-width:0.3;stroke-linecap:butt;stroke-linejoin:miter;stroke-opacity:1;stroke-miterlimit:4;stroke-dasharray:none"
       d="m 17.14569,904.29359 c 0.343003,6.4794 3.941953,6.64322 8.055756,5.80838 -3.927618,0.69277 -7.855656,1.38643 -8.055756,-5.80838 z"
       id="path876"
       inkscape:connector-curvature="0"
       sodipodi:nodetypes="ccc" />
    <path
       sodipodi:nodetypes="ccc"
       inkscape:connector-curvature="0"
       id="path878"
       d="m 15.11995,908.29359 c 0.279819,6.4794 3.215818,6.64322 6.571829,5.80838 -3.204123,0.69277 -6.408589,1.38643 -6.571829,-5.80838 z"
       style="fill:none;stroke:#000000;stroke-width:0.3;stroke-linecap:butt;stroke-linejoin:miter;stroke-opacity:1;stroke-miterlimit:4;stroke-dasharray:none" />
    <path
       sodipodi:nodetypes="ccc"
       inkscape:connector-curvature="0"
       id="path880"
       d="m 28.564923,906.10197 c 2.675751,5.83298 8.550517,6.46204 14.903329,6.31345 -7.653836,0.16118 -12.836533,-1.76202 -14.903329,-6.31345 z"
       style="fill:none;stroke:#000000;stroke-width:0.3;stroke-linecap:butt;stroke-linejoin:miter;stroke-opacity:1;stroke-miterlimit:4;stroke-dasharray:none" />
    <path
       style="fill:none;stroke:#000000;stroke-width:0.30000001;stroke-linecap:butt;stroke-linejoin:miter;stroke-miterlimit:4;stroke-dasharray:none;stroke-opacity:1"
       d="m 25.181094,910.03884 c 2.401248,5.83298 7.041981,6.52517 12.743062,6.37658 -6.868634,0.16118 -10.888297,-1.82515 -12.743062,-6.37658 z"
       id="path882"
       inkscape:connector-curvature="0"
       sodipodi:nodetypes="ccc" />
    <path
       sodipodi:nodetypes="ccc"
       inkscape:connector-curvature="0"
       id="path884"
       d="m 21.730561,914.10197 c 2.062155,5.83298 5.39018,6.46204 10.286183,6.31345 -5.898679,0.16118 -8.693339,-1.76202 -10.286183,-6.31345 z"
       style="fill:none;stroke:#000000;stroke-width:0.30000001;stroke-linecap:butt;stroke-linejoin:miter;stroke-miterlimit:4;stroke-dasharray:none;stroke-opacity:1" />
    <path
       sodipodi:nodetypes="ccc"
       inkscape:connector-curvature="0"
       id="path888"
       d="m 43.298923,912.41542 c 10.476909,10.0879 13.769194,9.77506 23.269814,9.5098 -10.494266,0.35346 -12.751989,0.56741 -23.269814,-9.5098 z"
       style="fill:none;stroke:#000000;stroke-width:0.30000001;stroke-linecap:butt;stroke-linejoin:miter;stroke-miterlimit:4;stroke-dasharray:none;stroke-opacity:1" />
    <path
       style="fill:none;stroke:#000000;stroke-width:0.30000001;stroke-linecap:butt;stroke-linejoin:miter;stroke-miterlimit:4;stroke-dasharray:none;stroke-opacity:1"
       d="m 37.491264,916.35229 c 7.438383,7.10011 8.220082,10.12144 18.540644,10.91221 -10.330658,-0.8223 -11.40695,-3.94063 -18.540644,-10.91221 z"
       id="path890"
       inkscape:connector-curvature="0"
       sodipodi:nodetypes="ccc" />
    <path
       sodipodi:nodetypes="ccc"
       inkscape:connector-curvature="0"
       id="path892"
       d="m 32.222689,920.35229 c 3.211191,5.7129 10.592642,10.01675 14.481649,11.62649 -3.851125,-1.73075 -11.098605,-5.863 -14.481649,-11.62649 z"
       style="fill:none;stroke:#000000;stroke-width:0.30000001;stroke-linecap:butt;stroke-linejoin:miter;stroke-miterlimit:4;stroke-dasharray:none;stroke-opacity:1" />
    <path
       sodipodi:nodetypes="ccc"
       inkscape:connector-curvature="0"
       id="path896"
       d="m 46.888566,931.91034 c 1.338317,4.89138 11.014875,14.51463 15.265521,15.05294 C 57.835183,946.48254 47.4688,936.16866 46.888566,931.91034 Z"
       style="fill:none;stroke:#000000;stroke-width:0.30000001;stroke-linecap:butt;stroke-linejoin:miter;stroke-miterlimit:4;stroke-dasharray:none;stroke-opacity:1" />
    <path
       sodipodi:nodetypes="ccc"
       inkscape:connector-curvature="0"
       id="path900"
       d="m 78.361053,915.78407 c 7.953248,6.8049 12.308815,10.0313 25.912707,9.26097 -13.715743,0.8408 -18.126496,-2.74749 -25.912707,-9.26097 z"
       style="fill:none;stroke:#000000;stroke-width:0.30000001;stroke-linecap:butt;stroke-linejoin:miter;stroke-miterlimit:4;stroke-dasharray:none;stroke-opacity:1" />
    <path
       sodipodi:nodetypes="ccc"
       inkscape:connector-curvature="0"
       id="path904"
       d="m 65.849767,921.89003 c 5.923154,7.35265 9.609041,12.07862 19.929603,12.86939 -10.330658,-0.8223 -13.806062,-5.39273 -19.929603,-12.86939 z"
       style="fill:none;stroke:#000000;stroke-width:0.3;stroke-linecap:butt;stroke-linejoin:miter;stroke-opacity:1;stroke-miterlimit:4;stroke-dasharray:none" />
    <path
       style="fill:none;stroke:#000000;stroke-width:0.30000001;stroke-linecap:butt;stroke-linejoin:miter;stroke-miterlimit:4;stroke-dasharray:none;stroke-opacity:1"
       d="m 56.288043,927.40526 c 2.52021,6.40388 11.59341,13.75108 17.070165,13.77307 -7.765466,-1.35194 -13.687121,-8.00958 -17.070165,-13.77307 z"
       id="path906"
       inkscape:connector-curvature="0"
       sodipodi:nodetypes="ccc" />
    <path
       sodipodi:nodetypes="ccc"
       inkscape:connector-curvature="0"
       id="path920"
       d="m 232.00633,896.13533 c -0.48388,5.55653 -5.87657,6.20209 -11.67989,5.48616 5.54067,0.5941 11.39761,0.68388 11.67989,-5.48616 z"
       style="fill:none;stroke:#000000;stroke-width:0.30000001;stroke-linecap:butt;stroke-linejoin:miter;stroke-miterlimit:4;stroke-dasharray:none;stroke-opacity:1" />
    <path
       sodipodi:nodetypes="ccc"
       inkscape:connector-curvature="0"
       id="path922"
       d="m 239.66091,891.94188 c -1.42695,3.49413 -3.18586,5.20649 -7.97026,3.83663 7.16108,2.04458 7.20712,-3.30715 7.97026,-3.83663 z"
       style="fill:none;stroke:#000000;stroke-width:0.30000001;stroke-linecap:butt;stroke-linejoin:miter;stroke-miterlimit:4;stroke-dasharray:none;stroke-opacity:1" />
    <path
       inkscape:connector-curvature="0"
       id="path924"
       d="m 240.14461,912.26411 -8.44788,-16.54271 v 0 z"
       style="fill:none;stroke:#000000;stroke-width:0.30000001;stroke-linecap:butt;stroke-linejoin:miter;stroke-miterlimit:4;stroke-dasharray:none;stroke-opacity:1" />
    <path
       style="fill:none;stroke:#000000;stroke-width:0.30000001;stroke-linecap:butt;stroke-linejoin:miter;stroke-miterlimit:4;stroke-dasharray:none;stroke-opacity:1"
       d="m 194.63074,948.44462 -57.87891,-30.2105 z"
       id="path926"
       inkscape:connector-curvature="0"
       sodipodi:nodetypes="ccc" />
    <path
       style="fill:none;stroke:#000000;stroke-width:0.30000001;stroke-linecap:butt;stroke-linejoin:miter;stroke-miterlimit:4;stroke-dasharray:none;stroke-opacity:1"
       d="m 179.66733,940.45058 c -8.30459,8.99415 -19.70179,22.43268 -37.47196,23.22345 17.78755,-0.8223 29.32742,-14.35783 37.47196,-23.22345 z"
       id="path928"
       inkscape:connector-curvature="0"
       sodipodi:nodetypes="ccc" />
    <path
       sodipodi:nodetypes="ccc"
       inkscape:connector-curvature="0"
       id="path930"
       d="m 167.28852,934.19804 c -10.19862,7.35265 -14.14595,14.35146 -31.91612,15.14223 17.78755,-0.8223 21.37247,-7.66557 31.91612,-15.14223 z"
       style="fill:none;stroke:#000000;stroke-width:0.30000001;stroke-linecap:butt;stroke-linejoin:miter;stroke-miterlimit:4;stroke-dasharray:none;stroke-opacity:1" />
    <path
       sodipodi:nodetypes="ccc"
       inkscape:connector-curvature="0"
       id="path932"
       d="m 148.72078,924.43028 c -7.95325,6.8049 -12.49822,10.15757 -26.10211,9.38724 13.71575,0.8408 18.3159,-2.87376 26.10211,-9.38724 z"
       style="fill:none;stroke:#000000;stroke-width:0.30000001;stroke-linecap:butt;stroke-linejoin:miter;stroke-miterlimit:4;stroke-dasharray:none;stroke-opacity:1" />
    <path
       sodipodi:nodetypes="ccc"
       inkscape:connector-curvature="0"
       id="path934"
       d="m 212.49803,934.74374 c -5.67869,9.70909 -6.635,14.57328 -16.13562,14.30802 10.49427,0.85854 10.92109,-6.25112 16.13562,-14.30802 z"
       style="fill:none;stroke:#000000;stroke-width:0.30000001;stroke-linecap:butt;stroke-linejoin:miter;stroke-miterlimit:4;stroke-dasharray:none;stroke-opacity:1" />
    <path
       sodipodi:nodetypes="ccc"
       inkscape:connector-curvature="0"
       id="path936"
       d="m 230.09147,922.1734 c -2.26062,1.45798 -2.28228,1.01561 -4.30211,1.67059 2.06234,-0.55311 2.13356,-0.15488 4.30211,-1.67059 z"
       style="fill:none;stroke:#000000;stroke-width:0.30000001;stroke-linecap:butt;stroke-linejoin:miter;stroke-miterlimit:4;stroke-dasharray:none;stroke-opacity:1" />
    <path
       sodipodi:nodetypes="ccc"
       inkscape:connector-curvature="0"
       id="path938"
       d="m 226.1663,923.84399 c -2.601,3.12361 -9.62591,10.22148 -13.87656,10.75979 4.31891,-0.48074 11.40229,-7.76416 13.87656,-10.75979 z"
       style="fill:none;stroke:#000000;stroke-width:0.30000001;stroke-linecap:butt;stroke-linejoin:miter;stroke-miterlimit:4;stroke-dasharray:none;stroke-opacity:1" />
    <path
       sodipodi:nodetypes="ccc"
       inkscape:connector-curvature="0"
       id="path940"
       d="m 190.90527,946.44836 c -3.7589,8.99415 -25.13136,30.45077 -42.90152,31.24154 17.82427,-0.82589 39.27465,-22.5242 42.90152,-31.24154 z"
       style="fill:none;stroke:#000000;stroke-width:0.30000001;stroke-linecap:butt;stroke-linejoin:miter;stroke-miterlimit:4;stroke-dasharray:none;stroke-opacity:1" />
    <path
       sodipodi:nodetypes="ccc"
       inkscape:connector-curvature="0"
       id="path942"
       d="M 213.14025,935.14132 174.20169,915.03235 Z"
       style="fill:none;stroke:#000000;stroke-width:0.30000001;stroke-linecap:butt;stroke-linejoin:miter;stroke-miterlimit:4;stroke-dasharray:none;stroke-opacity:1" />
    <path
       inkscape:connector-curvature="0"
       id="path944"
       d="M 227.3975,924.51151 204.164,907.84399 Z"
       style="fill:none;stroke:#000000;stroke-width:0.30000001;stroke-linecap:butt;stroke-linejoin:miter;stroke-miterlimit:4;stroke-dasharray:none;stroke-opacity:1" />
    <path
       inkscape:connector-curvature="0"
       id="path946"
       d="M 234.97365,917.69298 220.32644,901.53054 Z"
       style="fill:none;stroke:#000000;stroke-width:0.30000001;stroke-linecap:butt;stroke-linejoin:miter;stroke-miterlimit:4;stroke-dasharray:none;stroke-opacity:1" />
    <path
       style="fill:none;stroke:#000000;stroke-width:0.30000001;stroke-linecap:butt;stroke-linejoin:miter;stroke-miterlimit:4;stroke-dasharray:none;stroke-opacity:1"
       d="m 240.44585,894.44569 c -1.1843,4.7456 -2.64412,7.07128 -6.61495,5.21077 5.94337,2.77688 5.98158,-4.49165 6.61495,-5.21077 z"
       id="path948"
       inkscape:connector-curvature="0"
       sodipodi:nodetypes="ccc" />
    <path
       sodipodi:nodetypes="ccc"
       inkscape:connector-curvature="0"
       id="path950"
       d="m 241.205,898.95522 c -0.95579,4.34139 -2.13394,6.46898 -5.33861,4.76694 4.79661,2.54036 4.82745,-4.10907 5.33861,-4.76694 z"
       style="fill:none;stroke:#000000;stroke-width:0.30000001;stroke-linecap:butt;stroke-linejoin:miter;stroke-miterlimit:4;stroke-dasharray:none;stroke-opacity:1" />
    <path
       style="fill:none;stroke:#000000;stroke-width:0.30000001;stroke-linecap:butt;stroke-linejoin:miter;stroke-miterlimit:4;stroke-dasharray:none;stroke-opacity:1"
       d="m 242.07512,902.95522 c -0.74782,4.34139 -1.66962,6.46898 -4.17699,4.76694 3.75292,2.54036 3.77705,-4.10907 4.17699,-4.76694 z"
       id="path952"
       inkscape:connector-curvature="0"
       sodipodi:nodetypes="ccc" />
    <path
       style="fill:none;stroke:#000000;stroke-width:0.30000001;stroke-linecap:butt;stroke-linejoin:miter;stroke-miterlimit:4;stroke-dasharray:none;stroke-opacity:1"
       d="m 233.7201,899.72216 c -0.41943,6.4794 -4.82034,6.64322 -9.85083,5.80838 4.80282,0.69277 9.60614,1.38643 9.85083,-5.80838 z"
       id="path954"
       inkscape:connector-curvature="0"
       sodipodi:nodetypes="ccc" />
    <path
       sodipodi:nodetypes="ccc"
       inkscape:connector-curvature="0"
       id="path956"
       d="m 235.75817,903.72216 c -0.34301,6.4794 -3.94196,6.64322 -8.05576,5.80838 3.92762,0.69277 7.85566,1.38643 8.05576,-5.80838 z"
       style="fill:none;stroke:#000000;stroke-width:0.30000001;stroke-linecap:butt;stroke-linejoin:miter;stroke-miterlimit:4;stroke-dasharray:none;stroke-opacity:1" />
    <path
       style="fill:none;stroke:#000000;stroke-width:0.30000001;stroke-linecap:butt;stroke-linejoin:miter;stroke-miterlimit:4;stroke-dasharray:none;stroke-opacity:1"
       d="m 237.78391,907.72216 c -0.27982,6.4794 -3.21582,6.64322 -6.57183,5.80838 3.20412,0.69277 6.40859,1.38643 6.57183,-5.80838 z"
       id="path958"
       inkscape:connector-curvature="0"
       sodipodi:nodetypes="ccc" />
    <path
       style="fill:none;stroke:#000000;stroke-width:0.30000001;stroke-linecap:butt;stroke-linejoin:miter;stroke-miterlimit:4;stroke-dasharray:none;stroke-opacity:1"
       d="m 224.33893,905.53054 c -2.67575,5.83298 -8.55051,6.46204 -14.90333,6.31345 7.65384,0.16118 12.83654,-1.76202 14.90333,-6.31345 z"
       id="path960"
       inkscape:connector-curvature="0"
       sodipodi:nodetypes="ccc" />
    <path
       sodipodi:nodetypes="ccc"
       inkscape:connector-curvature="0"
       id="path962"
       d="m 227.72276,909.46741 c -2.40125,5.83298 -7.04198,6.52517 -12.74306,6.37658 6.86863,0.16118 10.8883,-1.82515 12.74306,-6.37658 z"
       style="fill:none;stroke:#000000;stroke-width:0.30000001;stroke-linecap:butt;stroke-linejoin:miter;stroke-miterlimit:4;stroke-dasharray:none;stroke-opacity:1" />
    <path
       style="fill:none;stroke:#000000;stroke-width:0.30000001;stroke-linecap:butt;stroke-linejoin:miter;stroke-miterlimit:4;stroke-dasharray:none;stroke-opacity:1"
       d="m 231.1733,913.53054 c -2.06216,5.83298 -5.39018,6.46204 -10.28619,6.31345 5.89868,0.16118 8.69334,-1.76202 10.28619,-6.31345 z"
       id="path964"
       inkscape:connector-curvature="0"
       sodipodi:nodetypes="ccc" />
    <path
       style="fill:none;stroke:#000000;stroke-width:0.30000001;stroke-linecap:butt;stroke-linejoin:miter;stroke-miterlimit:4;stroke-dasharray:none;stroke-opacity:1"
       d="m 209.60493,911.84399 c -10.47691,10.0879 -13.76919,9.77506 -23.26981,9.5098 10.49426,0.35346 12.75199,0.56741 23.26981,-9.5098 z"
       id="path966"
       inkscape:connector-curvature="0"
       sodipodi:nodetypes="ccc" />
    <path
       sodipodi:nodetypes="ccc"
       inkscape:connector-curvature="0"
       id="path968"
       d="m 215.41259,915.78086 c -7.43838,7.10011 -8.22008,10.12144 -18.54064,10.91221 10.33066,-0.8223 11.40695,-3.94063 18.54064,-10.91221 z"
       style="fill:none;stroke:#000000;stroke-width:0.30000001;stroke-linecap:butt;stroke-linejoin:miter;stroke-miterlimit:4;stroke-dasharray:none;stroke-opacity:1" />
    <path
       style="fill:none;stroke:#000000;stroke-width:0.30000001;stroke-linecap:butt;stroke-linejoin:miter;stroke-miterlimit:4;stroke-dasharray:none;stroke-opacity:1"
       d="m 220.68117,919.78086 c -3.21119,5.7129 -10.59265,10.01675 -14.48165,11.62649 3.85112,-1.73075 11.0986,-5.863 14.48165,-11.62649 z"
       id="path970"
       inkscape:connector-curvature="0"
       sodipodi:nodetypes="ccc" />
    <path
       style="fill:none;stroke:#000000;stroke-width:0.30000001;stroke-linecap:butt;stroke-linejoin:miter;stroke-miterlimit:4;stroke-dasharray:none;stroke-opacity:1"
       d="m 206.01529,931.33891 c -1.33832,4.89138 -11.01488,14.51463 -15.26552,15.05294 4.3189,-0.48074 14.68529,-10.79462 15.26552,-15.05294 z"
       id="path972"
       inkscape:connector-curvature="0"
       sodipodi:nodetypes="ccc" />
    <path
       style="fill:none;stroke:#000000;stroke-width:0.30000001;stroke-linecap:butt;stroke-linejoin:miter;stroke-miterlimit:4;stroke-dasharray:none;stroke-opacity:1"
       d="m 174.5428,915.21264 c -7.95324,6.8049 -12.30881,10.0313 -25.9127,9.26097 13.71574,0.8408 18.12649,-2.74749 25.9127,-9.26097 z"
       id="path974"
       inkscape:connector-curvature="0"
       sodipodi:nodetypes="ccc" />
    <path
       style="fill:none;stroke:#000000;stroke-width:0.30000001;stroke-linecap:butt;stroke-linejoin:miter;stroke-miterlimit:4;stroke-dasharray:none;stroke-opacity:1"
       d="m 187.05409,921.3186 c -5.92315,7.35265 -9.60904,12.07862 -19.9296,12.86939 10.33065,-0.8223 13.80606,-5.39273 19.9296,-12.86939 z"
       id="path976"
       inkscape:connector-curvature="0"
       sodipodi:nodetypes="ccc" />
    <path
       style="display:inline;fill:#ffaaaa;fill-opacity:1;fill-rule:evenodd;stroke:#000000;stroke-width:0.40000001;stroke-linecap:butt;stroke-linejoin:miter;stroke-miterlimit:4;stroke-dasharray:3.20000005, 0.40000001000000002;stroke-opacity:1;stroke-dashoffset:0"
       d="m 243.00937,902.78644 c 2.51955,6.45636 2.51955,6.45636 2.51955,6.45636 -14.46471,23.82811 -38.06218,37.41185 -50.03848,45.52663 -33.00541,22.36345 -37.59962,28.67966 -44.53186,36.20366 -2.93802,3.20135 -6.26655,9.25801 -9.01093,10.14961 -9.10136,2.9572 -18.46396,3.3333 -29.0161,-0.8201 -2.61814,-1.03044 -3.04332,-4.87278 -5.32744,-7.26127 C 98.744984,982.804 88.565413,975.10711 65.913019,960.50323 43.266108,945.90288 9.5743343,924.75274 8.1360533,914.20942 c 1.3618581,-5.67573 0,0 1.3618581,-5.67573 14.7501896,21.38515 70.2473836,53.82912 95.4826786,71.77765 22.50362,16.00563 31.68915,9.73817 50.88446,-3.53788 27.57319,-19.07043 73.67189,-48.83195 87.14432,-73.98702 z"
       id="path4196-9"
       inkscape:connector-curvature="0"
       sodipodi:nodetypes="ccscsscsccssc" />
    <path
       sodipodi:nodetypes="ccc"
       inkscape:connector-curvature="0"
       id="path978"
       d="m 196.61581,926.83383 c -2.52021,6.40388 -11.59341,13.75108 -17.07016,13.77307 7.76546,-1.35194 13.68712,-8.00958 17.07016,-13.77307 z"
       style="fill:none;stroke:#000000;stroke-width:0.30000001;stroke-linecap:butt;stroke-linejoin:miter;stroke-miterlimit:4;stroke-dasharray:none;stroke-opacity:1" />
    <path
       style="display:inline;fill:#ffaaaa;fill-opacity:1;fill-rule:evenodd;stroke:#000000;stroke-width:0.40000001;stroke-linecap:butt;stroke-linejoin:miter;stroke-miterlimit:4;stroke-dasharray:3.2, 0.4;stroke-dashoffset:0;stroke-opacity:1"
       d="m 164.17287,977.9374 c -13.65231,12.12987 -19.48084,22.2937 -22.22522,23.1853 -9.10136,2.9572 -18.46396,3.3333 -29.0161,-0.8201 -2.61814,-1.03049 -4.56118,-8.71208 -16.488154,-17.88629 0,0 13.189464,-20.17381 18.421134,-30.9213 5.23167,-10.7475 12.96889,-33.56368 12.96889,-33.56368 0,0 9.0796,23.12481 15.23348,33.12423 6.15388,9.99942 21.10597,26.88184 21.10597,26.88184 z"
       id="path4196-59"
       inkscape:connector-curvature="0"
       sodipodi:nodetypes="cssczczc" />
    <path
       id="path1908-0-3"
       d="m 125.83344,916.89133 c -3.67997,1.12 -2.15999,-1.36 -6.79995,5.9997 1.19999,0.24 2.15998,0.4 3.51997,0.72 2.71998,-2.56 4.95997,-3.36 5.19996,-5.5197 1.51999,0.2399 -0.87999,-0.96 0.08,-0.16 0.08,2.3997 1.43999,2.6397 3.75998,5.1997 1.75998,-0.64 3.99997,-0.8 4.47996,-1.28 -3.27997,-4.0797 -4.71996,-1.44 -6.39995,-5.4397 z"
       style="display:inline;fill:#ff5555;fill-opacity:1;fill-rule:evenodd;stroke:#000000;stroke-width:0.39999703px;stroke-linecap:butt;stroke-linejoin:miter;stroke-miterlimit:4;stroke-dasharray:none;stroke-opacity:1"
       inkscape:connector-curvature="0"
       inkscape:transform-center-x="-1.3336921"
       inkscape:transform-center-y="2.7204327" />
    <path
       id="path1910-4-9"
       d="m 129.11341,918.81113 -2.47998,-0.2399 c -1.67999,1.9198 -4.95996,1.0398 -8.55993,2.1598 0.87999,-3.6797 0.08,-9.0397 0.08,-9.0397 3.99997,0.88 6.23995,2.08 8.23993,3.52 l 3.11998,0.24 c 2.23998,-1.6 4.31997,-3.04 7.75994,-4.4 0,0 -0.23999,4.8 1.12,7.8398 -3.59998,0.5599 -7.83995,3.2799 -9.27994,-0.08 z"
       style="display:inline;fill:#ff8080;fill-opacity:1;fill-rule:evenodd;stroke:#000000;stroke-width:0.39999703px;stroke-linecap:butt;stroke-linejoin:miter;stroke-miterlimit:4;stroke-dasharray:none;stroke-opacity:1"
       inkscape:connector-curvature="0"
       inkscape:transform-center-x="-2.0136921"
       inkscape:transform-center-y="-1.3995673" />
    <path
       id="path1912-4-7"
       d="m 126.47343,918.41123 -0.08,-0.2399 c -0.39999,0.08 -1.03999,0.3999 -1.67998,0.7198 -0.24,0.1599 -0.48,0.2399 -0.72,0.3199 -0.32,0.08 -0.63999,0.08 -0.87999,0.08 0.24,0 0.55999,0.08 0.87999,0 0.32,0 0.56,-0.08 0.8,-0.24 0.71999,-0.1599 1.35999,-0.3999 1.67998,-0.3999 z"
       style="display:inline;fill:#000000;fill-opacity:1;fill-rule:evenodd;stroke:none"
       inkscape:connector-curvature="0"
       inkscape:transform-center-x="1.4262879"
       inkscape:transform-center-y="1.4582105" />
    <path
       id="path1914-7-0"
       d="m 125.99344,917.37133 v -0.16 c -0.72,0.16 -2.63998,0.88 -3.35998,1.0399 0.72,-0.1599 2.79998,-0.4799 3.43998,-0.6399 z"
       style="display:inline;fill:#000000;fill-opacity:1;fill-rule:evenodd;stroke:none"
       inkscape:connector-curvature="0"
       inkscape:transform-center-x="1.8662829"
       inkscape:transform-center-y="0.44048271" />
    <path
       id="path1916-0-7"
       d="m 126.15344,916.65133 v -0.16 c -0.32,-0.08 -0.64,-0.08 -1.12,-0.4 -0.39999,-0.24 -0.95999,-0.64 -1.11999,-0.8 0.24,0.16 0.56,0.56 0.96,0.96 0.47999,0.4 0.87999,0.56 1.27999,0.64 z"
       style="display:inline;fill:#000000;fill-opacity:1;fill-rule:evenodd;stroke:none"
       inkscape:connector-curvature="0"
       inkscape:transform-center-x="1.1862879"
       inkscape:transform-center-y="-1.1994673" />
    <path
       id="path1918-1-5"
       d="m 129.19341,918.41123 v 0.16 c 0.4,0 0.8,0 1.35999,0.3199 0.4,0.2399 0.96,0.6399 1.19999,0.7999 -0.23999,-0.16 -0.63999,-0.64 -1.11999,-1.0399 -0.47999,-0.3999 -1.03999,-0.4798 -1.43999,-0.4798 z"
       style="display:inline;fill:#000000;fill-opacity:1;fill-rule:evenodd;stroke:none"
       inkscape:connector-curvature="0"
       inkscape:transform-center-x="-4.2536671"
       inkscape:transform-center-y="1.6404327" />
    <path
       id="path1920-1-2"
       d="m 129.43341,917.21133 v 0.24 c 0.4,0.08 1.59999,-0.16 1.99999,-0.24 -0.4,0.08 -1.59999,-0.16 -1.91999,-0.24 z"
       style="display:inline;fill:#000000;fill-opacity:1;fill-rule:evenodd;stroke:none"
       inkscape:connector-curvature="0"
       inkscape:transform-center-x="-4.2136721"
       inkscape:transform-center-y="-0.071416679" />
    <path
       id="path1922-9-1"
       d="m 126.55343,918.57123 c -0.79999,-0.16 -0.55999,-3.4399 -0.16,-3.3599"
       style="display:inline;fill:none;stroke:#000000;stroke-width:0.39999703px;stroke-linecap:butt;stroke-linejoin:miter;stroke-miterlimit:4;stroke-dasharray:none;stroke-opacity:1"
       inkscape:connector-curvature="0"
       inkscape:transform-center-x="-0.068452818"
       inkscape:transform-center-y="-0.40023716" />
    <path
       id="path1924-2-8"
       d="m 129.51341,915.45133 c 0.32,0.8 0.16,2.56 -0.4,3.3598"
       style="display:inline;fill:none;stroke:#000000;stroke-width:0.39999703px;stroke-linecap:butt;stroke-linejoin:miter;stroke-miterlimit:4;stroke-dasharray:none;stroke-opacity:1"
       inkscape:connector-curvature="0"
       inkscape:transform-center-x="-3.175224"
       inkscape:transform-center-y="-0.15956729" />
    <path
       id="path1926-0-8"
       d="m 129.59341,915.93133 v 0.24 c 0.4,0 0.87999,-0.16 1.43999,-0.56 0.4,-0.32 0.79999,-0.8 1.03999,-0.96 -0.16,0.16 -0.71999,0.56 -1.19999,0.8 -0.56,0.24 -0.95999,0.24 -1.27999,0.24 z"
       style="display:inline;fill:#000000;fill-opacity:1;fill-rule:evenodd;stroke:none"
       inkscape:connector-curvature="0"
       inkscape:transform-center-x="-4.6136671"
       inkscape:transform-center-y="-1.8794673" />
  </g>
</svg>
