<?xml version="1.0" encoding="UTF-8" standalone="no"?>
<!-- Created with Inkscape (http://www.inkscape.org/) -->

<svg
   xmlns:dc="http://purl.org/dc/elements/1.1/"
   xmlns:cc="http://creativecommons.org/ns#"
   xmlns:rdf="http://www.w3.org/1999/02/22-rdf-syntax-ns#"
   xmlns:svg="http://www.w3.org/2000/svg"
   xmlns="http://www.w3.org/2000/svg"
   xmlns:sodipodi="http://sodipodi.sourceforge.net/DTD/sodipodi-0.dtd"
   xmlns:inkscape="http://www.inkscape.org/namespaces/inkscape"
   viewBox="0 0 256 256"
   id="svg4166"
   version="1.1"
   inkscape:version="0.92.3 (2405546, 2018-03-11)"
   sodipodi:docname="groin_boxerbriefs_backless.svg"
   inkscape:export-filename="G:\Games\WM\Resources\Fonts\Trainer\Lilith's Throne\groin_boxerbriefs.png"
   inkscape:export-xdpi="96"
   inkscape:export-ydpi="96">
  <style
     id="style3">
    svg { cursor: default; }
  </style>
  <defs
     id="defs4168">
    <inkscape:path-effect
       effect="powerstroke"
       id="path-effect4202"
       is_visible="true"
       offset_points="0,0.5"
       sort_points="true"
       interpolator_type="Linear"
       interpolator_beta="0.2"
       start_linecap_type="zerowidth"
       linejoin_type="round"
       miter_limit="4"
       end_linecap_type="zerowidth"
       cusp_linecap_type="round" />
  </defs>
  <sodipodi:namedview
     id="base"
     pagecolor="#ffffff"
     bordercolor="#666666"
     borderopacity="1.0"
     inkscape:pageopacity="0.0"
     inkscape:pageshadow="2"
     inkscape:zoom="2.8284271"
     inkscape:cx="53.608064"
     inkscape:cy="98.73616"
     inkscape:document-units="px"
     inkscape:current-layer="layer1"
     showgrid="false"
     units="px"
     inkscape:window-width="1366"
     inkscape:window-height="745"
     inkscape:window-x="-8"
     inkscape:window-y="-8"
     inkscape:window-maximized="1"
     inkscape:snap-nodes="false"
     inkscape:snap-global="false" />
  <metadata
     id="metadata4171">
    <rdf:RDF>
      <cc:Work
         rdf:about="">
        <dc:format>image/svg+xml</dc:format>
        <dc:type
           rdf:resource="http://purl.org/dc/dcmitype/StillImage" />
        <dc:title />
      </cc:Work>
    </rdf:RDF>
  </metadata>
  <g
     inkscape:label="Layer 1"
     inkscape:groupmode="layer"
     id="layer1"
     transform="translate(0,-796.36216)"
     style="display:inline">
    <path
       style="fill:#ff2a2a;fill-rule:evenodd;stroke:#000000;stroke-width:1.04551923px;stroke-linecap:butt;stroke-linejoin:miter;stroke-opacity:1"
       d="m 18.412849,963.12646 c 0.713994,0.19527 95.496621,31.43979 95.496621,31.43979 l 1.78498,-26.55783 C 83.505529,959.21248 51.077768,957.60199 18.412849,963.12646 Z"
       id="path4248"
       inkscape:connector-curvature="0"
       sodipodi:nodetypes="cccc" />
    <path
       style="fill:#ff2a2a;fill-rule:evenodd;stroke:#000000;stroke-width:1.02952862px;stroke-linecap:butt;stroke-linejoin:miter;stroke-opacity:1"
       d="m 142.18248,973.21927 -1.11933,21.5598 100.36568,-29.89384 c -33.44031,2.09536 -75.75029,-12.6963 -99.24635,8.33404 z"
       id="path4250"
       inkscape:connector-curvature="0"
       sodipodi:nodetypes="cccc" />
    <path
       style="fill:#ff8080;fill-rule:evenodd;stroke:#000000;stroke-width:0.99408919px;stroke-linecap:butt;stroke-linejoin:miter;stroke-opacity:1"
       d="m 15.743991,962.9303 13.571374,-79.33302 c 63.771808,18.83793 129.698565,19.27765 198.170085,2.26237 -0.38137,12.37069 9.12613,53.58981 14.07919,80.63382 -34.72093,-3.27118 -72.48141,1.20643 -95.05599,8.47967 -5.23123,9.90208 -3.50587,3.46225 -5.25881,10.34324 -8.87182,0.88366 -18.24968,-0.19325 -27.56798,-0.44243 -0.10295,-6.20473 -2.52181,-3.52552 -4.77988,-9.75216 C 87.962182,963.85225 47.376369,965.54045 15.743991,962.9303 Z"
       id="path4230"
       inkscape:connector-curvature="0"
       sodipodi:nodetypes="ccccccccc" />
    <path
       style="opacity:1;fill:#ff2a2a;fill-opacity:1;stroke-width:0.37297228"
       d="m 123.28708,984.70768 c -3.06796,-0.15073 -7.95711,-0.12995 -9.80596,-0.47594 -1.18593,-2.57795 -0.92751,-2.32259 -1.78268,-4.91459 -0.85516,-2.59201 -0.33742,-0.78548 -1.2939,-3.68581 -1.47792,-4.48149 -2.82511,-16.15075 -3.65919,-19.72951 l -0.25167,-1.07985 h 21.2239 21.2239 l -0.18928,0.7476 c -1.26956,5.01405 -2.29213,15.53203 -3.62197,19.56336 -0.9266,2.80895 -0.49741,1.274 -1.49066,4.28928 l -1.80592,5.48236 -8.48422,0.0386 c -2.46632,0.0211 -6.99438,-0.0848 -10.06235,-0.23548 z"
       id="path830"
       inkscape:connector-curvature="0"
       sodipodi:nodetypes="cccsccccscscccc" />
    <path
       style="fill:none;fill-rule:evenodd;stroke:#000000;stroke-width:0.47189268;stroke-linecap:butt;stroke-linejoin:miter;stroke-miterlimit:4;stroke-dasharray:none;stroke-opacity:1"
       d="m 128.19701,904.57387 c -0.72889,30.64389 -1.11174,50.09134 -1.16998,80.73526"
       id="path4244"
       inkscape:connector-curvature="0"
       sodipodi:nodetypes="cc" />
    <path
       style="fill:#ffb380;stroke:#000000;stroke-width:0.85097867px;stroke-linecap:butt;stroke-linejoin:miter;stroke-opacity:1;fill-opacity:1"
       d="m 104.20347,952.29463 h 46.59326 l -0.71682,3.35031 -44.80121,-0.25771 z"
       id="path826"
       inkscape:connector-curvature="0" />
    <path
       sodipodi:nodetypes="cccccc"
       inkscape:connector-curvature="0"
       id="path22"
       d="m 137.82859,995.79396 3.41749,0.0415 c 9.16033,-31.53989 16.69594,-72.54578 27.77755,-94.45727 l -0.16178,-9.50709 c -16.45918,35.0799 -19.04343,66.47126 -28.32435,94.48923 z"
       style="fill:#ffb380;fill-rule:evenodd;stroke:#000000;stroke-width:0.96542108px;stroke-linecap:butt;stroke-linejoin:miter;stroke-opacity:1" />
    <g
       id="g29"
       transform="matrix(0.99983293,0,0,1.012117,1.0269963,-12.063603)"
       style="fill:#ffb380">
      <path
         sodipodi:nodetypes="cccccc"
         inkscape:connector-curvature="0"
         id="path26"
         d="m 116.34176,995.28888 -3.41749,0.0415 C 103.76394,963.79049 96.228328,922.7846 85.146718,900.87311 l 0.16178,-9.50709 c 16.459182,35.0799 19.043432,66.47126 28.324352,94.48923 z"
         style="fill:#ffb380;fill-rule:evenodd;stroke:#000000;stroke-width:0.96542108px;stroke-linecap:butt;stroke-linejoin:miter;stroke-opacity:1" />
    </g>
    <path
       style="fill:#ffb380;fill-rule:evenodd;stroke:#000000;stroke-width:1.41319954px;stroke-linecap:butt;stroke-linejoin:miter;stroke-opacity:1"
       d="m 30.215413,874.72246 c -0.583038,3.03377 -1.106764,6.09723 -0.756358,9.59859 84.657225,29.57274 135.411395,23.60474 198.039865,1.38928 0.32957,-3.36794 0.67698,-6.10437 -0.12607,-9.47231 -61.89694,24.47626 -131.266941,24.72427 -197.157437,-1.51556 z"
       id="path4234"
       inkscape:connector-curvature="0"
       sodipodi:nodetypes="ccccc" />
    <path
       style="fill:none;fill-rule:evenodd;stroke:#000000;stroke-width:0.48909572;stroke-linecap:butt;stroke-linejoin:miter;stroke-miterlimit:4;stroke-dasharray:none;stroke-opacity:1"
       d="M 43.528143,964.03925 C 58.446222,936.0285 63.815123,919.02352 68.287599,895.8661"
       id="path4242"
       inkscape:connector-curvature="0"
       sodipodi:nodetypes="cc" />
    <path
       style="fill:none;fill-rule:evenodd;stroke:#000000;stroke-width:0.49103603;stroke-linecap:butt;stroke-linejoin:miter;stroke-miterlimit:4;stroke-dasharray:none;stroke-opacity:1"
       d="m 186.51241,897.42702 c 3.54609,18.68965 14.76016,42.34952 26.2533,68.18949"
       id="path4246"
       inkscape:connector-curvature="0"
       sodipodi:nodetypes="cc" />
  </g>
</svg>
