<?xml version="1.0" encoding="UTF-8" standalone="no"?>
<!-- Created with Inkscape (http://www.inkscape.org/) -->

<svg
   xmlns:dc="http://purl.org/dc/elements/1.1/"
   xmlns:cc="http://creativecommons.org/ns#"
   xmlns:rdf="http://www.w3.org/1999/02/22-rdf-syntax-ns#"
   xmlns:svg="http://www.w3.org/2000/svg"
   xmlns="http://www.w3.org/2000/svg"
   xmlns:sodipodi="http://sodipodi.sourceforge.net/DTD/sodipodi-0.dtd"
   xmlns:inkscape="http://www.inkscape.org/namespaces/inkscape"
   viewBox="0 0 67.733332 67.733335"
   version="1.1"
   id="svg8"
   inkscape:export-filename="G:\Games\WM\Resources\Fonts\Trainer\Lilith's Throne\head_catmask_earless.png"
   inkscape:export-xdpi="96"
   inkscape:export-ydpi="96"
   inkscape:version="0.92.3 (2405546, 2018-03-11)"
   sodipodi:docname="head_domino_mask.svg">
  <defs
     id="defs2" />
  <sodipodi:namedview
     id="base"
     pagecolor="#ffffff"
     bordercolor="#666666"
     borderopacity="1.0"
     inkscape:pageopacity="0.0"
     inkscape:pageshadow="2"
     inkscape:zoom="1"
     inkscape:cx="131.62338"
     inkscape:cy="122.98907"
     inkscape:document-units="mm"
     inkscape:current-layer="layer1"
     showgrid="false"
     units="px"
     inkscape:snap-others="false"
     inkscape:snap-nodes="true"
     inkscape:window-width="1366"
     inkscape:window-height="745"
     inkscape:window-x="-8"
     inkscape:window-y="-8"
     inkscape:window-maximized="1" />
  <metadata
     id="metadata5">
    <rdf:RDF>
      <cc:Work
         rdf:about="">
        <dc:format>image/svg+xml</dc:format>
        <dc:type
           rdf:resource="http://purl.org/dc/dcmitype/StillImage" />
        <dc:title></dc:title>
      </cc:Work>
    </rdf:RDF>
  </metadata>
  <g
     inkscape:label="Layer 1"
     inkscape:groupmode="layer"
     id="layer1"
     transform="translate(0,-229.26665)">
    <path
       style="fill:#999999;stroke:#000000;stroke-width:0.26458332px;stroke-linecap:butt;stroke-linejoin:miter;stroke-opacity:1"
       d="m 49.844494,276.38707 c 0.364943,1.83651 1.249374,3.94491 3.642815,6.84313 -3.51508,0.59345 -9.115183,6.22179 -13.696977,9.39111 -0.909588,-1.29363 -1.94269,-2.2932 -2.404257,-3.67638 -0.498413,-0.59226 -1.25272,-0.16178 -1.930688,-0.0364 z"
       id="path856"
       inkscape:connector-curvature="0"
       sodipodi:nodetypes="cccccc" />
    <path
       style="opacity:1;fill:#999999;fill-opacity:1;stroke:none;stroke-width:0.26458332;stroke-miterlimit:4;stroke-dasharray:0.26458331, 0.79374994;stroke-dashoffset:0;stroke-opacity:1"
       d="m 49.844494,276.38707 c -6.990536,7.73291 -10.194846,10.02348 -15.2631,12.66617 -5.217958,-1.10757 -10.366783,-10.22178 -14.751566,-16.13128 l -2.118884,-9.61438 c -4.238049,-10.13601 2.62796,-17.74784 4.564137,-19.72995 4.361651,-4.46513 10.613073,-5.57944 19.227759,-3.42736 0,0 4.398848,1.72225 6.398382,2.95568 1.49255,0.92069 2.878103,2.49677 3.927762,4.16684 2.496748,3.63207 2.682196,7.73817 3.269314,11.97038 0.589645,7.53473 -2.55095,12.93059 -5.253804,17.1439 z"
       id="path892"
       inkscape:connector-curvature="0"
       sodipodi:nodetypes="ccccscsccc" />
    <path
       style="opacity:1;fill:#ffaaaa;fill-opacity:1;stroke:none;stroke-width:0.26458332;stroke-miterlimit:4;stroke-dasharray:0.26458331, 0.79374995;stroke-dashoffset:0;stroke-opacity:1"
       d="m 41.900069,271.90013 c -3.192811,1.21973 -6.909169,3.96164 -9.144741,5.96706 l -0.367891,0.33978 c -0.22608,-4.91434 0.551659,-9.7772 1.897874,-10.7105 4.129875,-5.10593 7.039116,-5.61106 13.458082,-7.24103 0,0 0.952607,1.07842 2.680599,1.80995 -0.888416,2.85813 -1.410615,3.71413 -1.966758,6.93832 -3.137184,1.89225 -4.559782,1.929 -6.557165,2.89642 z m -7.020954,-1.01472 c 3.817891,-1.41831 7.403092,-3.82643 9.374499,-6.18987 0.418753,-0.50203 0.939408,-0.80089 0.914472,-0.82583 -0.08386,-0.0839 -5.81384,2.29634 -6.89514,2.82544 -1.683985,0.4645 -5.965244,5.14808 -3.393831,4.19026 z"
       id="path866"
       inkscape:connector-curvature="0"
       sodipodi:nodetypes="ccccccccccccc" />
    <path
       style="opacity:1;fill:#ffaaaa;fill-opacity:1;stroke:none;stroke-width:0.99999994;stroke-miterlimit:4;stroke-dasharray:0.99999994, 2.99999982;stroke-dashoffset:0;stroke-opacity:1"
       d="m 113.62603,185.12145 c -3.47798,-15.08759 -5.80988,-24.36769 -6.90236,-27.92042 l -1.61979,-4.57958 -3.74378,-2.24028 c -7.791774,-4.10118 -16.355325,-6.12493 -25.164636,-6.13177 l -4.920857,-0.128 c -0.755519,-3.24063 -1.277925,-5.54349 -2.313165,-8.16665 6.269819,-0.004 33.342078,3.44317 43.745868,5.15053 10.98024,-1.85078 13.10372,-5.59074 25.55228,-11.45922 12.44856,-5.86848 34.86866,-13.33515 32.70201,-10.26498 -13.17429,2.96143 -13.90414,5.26078 -19.09528,9.63497 -5.2349,4.41106 -16.13863,11.84733 -19.70934,13.71349 -4.37855,2.28836 -6.46417,5.93113 -8.89882,16.79617 -0.99267,4.42998 -1.88931,6.44353 -1.87244,15.41267 l 0.7694,10.31697 -3.18835,1.55803 c -3.40763,1.07416 -4.65732,1.89595 -4.96574,0.55802 z"
       id="path858"
       inkscape:connector-curvature="0"
       transform="matrix(0.26458333,0,0,0.26458333,0,229.26665)"
       sodipodi:nodetypes="ccccccccscsscscccc" />
    <path
       style="opacity:1;fill:#ffaaaa;fill-opacity:1;stroke:none;stroke-width:0.99999994;stroke-miterlimit:4;stroke-dasharray:0.99999994, 2.99999982;stroke-dashoffset:0;stroke-opacity:1"
       d="m 75.046999,164.09601 -2.939874,-1.47456 0.515526,-9.125 c 0.248293,-4.39488 -0.990627,-8.73465 -1.252863,-9.60616 1.296848,0.0543 1.436248,0.18566 4.546871,0.18566 7.571448,-0.14881 26.326581,4.96126 28.875741,8.69377 1.12461,2.19362 9.35544,34.36188 8.90604,34.81128 -5.52619,-2.66936 -9.65649,-5.88453 -15.526786,-8.55655 0,0 -14.857552,-12.91029 -23.124655,-14.92844 z m 26.317801,-6.23164 c -2.773457,-6.5257 -3.905665,-6.92603 -17.571703,-9.32799 -3.9875,-0.70085 -7.378585,-1.40831 -7.859835,-1.51811 -1.72863,-0.11559 -0.191163,0.59107 2.857567,4.30271 5.080342,5.08035 9.409389,7.18958 16.153812,8.35346 2.425416,0.41855 6.722689,1.31318 7.550939,1.66398 -0.58056,-1.2644 0.44783,0.24027 -1.13078,-3.47405 z"
       id="path860"
       inkscape:connector-curvature="0"
       transform="matrix(0.26458333,0,0,0.26458333,0,229.26665)"
       sodipodi:nodetypes="cccccccccssccscs" />
    <path
       style="fill:none;stroke:#000000;stroke-width:0.26458332px;stroke-linecap:butt;stroke-linejoin:miter;stroke-opacity:1"
       d="m 18.815506,267.25886 c 0.582031,2.69028 0.278936,2.16012 0.294385,5.14769 4.259187,1.07256 4.495876,2.98517 6.844423,4.19169 0,0 2.452059,1.53204 3.974176,2.35322 0.846994,0.12965 1.687316,-0.32378 2.502263,-0.58829 2.548481,-2.63614 6.693772,-5.45897 9.469316,-6.46304 1.990374,-0.93614 4.245251,-1.56948 6.557165,-2.89642 0.438427,-2.30317 0.688884,-3.76851 1.966758,-6.93832 -1.521338,-1.15328 -0.668658,-0.37116 -2.680599,-1.80995 -8.029687,1.48616 -12.805118,3.51579 -15.834933,5.97825 -2.714856,0.79557 -1.737189,0.40602 -3.44613,0.17447 -1.708941,-0.23155 -7.67124,-1.3922 -10.216282,-1.17015 0,0 -3.303431,-10.16824 0.569458,2.02085 z"
       id="path826"
       inkscape:connector-curvature="0"
       sodipodi:nodetypes="ccccccccccccc" />
    <path
       style="opacity:1;fill:#ffb380;fill-opacity:1;stroke:none;stroke-width:0.99999994;stroke-miterlimit:4;stroke-dasharray:0.99999994, 2.99999982;stroke-dashoffset:0;stroke-opacity:1"
       d="m 130.373,154.29982 c 0.46871,-1.27961 3.17327,-4.47593 5.242,-6.55082 3.11224,-3.1215 5.16646,-4.11617 9.50632,-6.244 4.55229,-2.232 19.06025,-8.23124 22.79468,-9.254 2.01075,-0.55069 -8.84773,9.39318 -14.04968,12.931 -6.87859,4.6781 -15.74152,9.2994 -21.78732,11.136 l -2.687,0.66 z"
       id="path908"
       inkscape:connector-curvature="0"
       transform="matrix(0.26458333,0,0,0.26458333,0,229.26665)"
       sodipodi:nodetypes="sccssccs" />
    <path
       style="fill:none;stroke:#000000;stroke-width:0.26458332px;stroke-linecap:butt;stroke-linejoin:miter;stroke-opacity:1"
       d="m 44.794869,264.09672 c -5.097248,2.02093 -9.054348,2.6374 -10.745007,6.91261 3.136001,-0.98145 7.925354,-3.27169 10.745007,-6.91261 z"
       id="path832"
       inkscape:connector-curvature="0"
       sodipodi:nodetypes="ccc" />
    <path
       style="opacity:1;fill:#ffb380;fill-opacity:1;stroke:none;stroke-width:0.26458332;stroke-miterlimit:4;stroke-dasharray:0.26458332, 0.79374995;stroke-dashoffset:0;stroke-opacity:1"
       d="m 25.614108,271.53025 c -2.209288,-0.42284 -3.677802,-1.18768 -4.965734,-2.58626 -0.712572,-0.77379 -0.744519,-0.76978 1.946613,-0.2443 2.278525,0.4449 2.875816,0.65939 3.367167,1.20911 0.378312,0.42325 1.125137,1.89139 0.948642,1.86487 -0.06331,-0.0103 -0.646818,-0.11906 -1.296688,-0.24342 z"
       id="path906"
       inkscape:connector-curvature="0" />
    <path
       style="fill:none;stroke:#000000;stroke-width:0.26458332px;stroke-linecap:butt;stroke-linejoin:miter;stroke-opacity:1"
       d="m 27.131847,272.03887 c -1.144455,-0.99119 -3.899925,0.3056 -7.06521,-3.75047 5.766243,1.10681 5.773896,0.49951 7.06521,3.75047 z"
       id="path834"
       inkscape:connector-curvature="0"
       sodipodi:nodetypes="ccc" />
    <path
       style="fill:none;stroke:#000000;stroke-width:0.26458332px;stroke-linecap:butt;stroke-linejoin:miter;stroke-opacity:1"
       d="m 32.407367,278.37977 c 0,0 -0.727177,-8.01122 1.789688,-10.86353 4.796816,-3.48584 10.538446,-5.4504 16.226937,-5.45085 -5.751729,-0.10485 -11.341988,2.00096 -16.259412,5.37963 -1.97449,3.51173 -2.244303,7.28445 -1.757213,10.93475 z"
       id="path838"
       inkscape:connector-curvature="0"
       sodipodi:nodetypes="ccccc" />
    <path
       style="fill:none;stroke:#000000;stroke-width:0.26458332px;stroke-linecap:butt;stroke-linejoin:miter;stroke-opacity:1"
       d="m 18.815506,267.33239 c 4.105423,0.0712 6.050972,0.60244 8.97757,2.28091 0.575354,1.31437 1.362538,4.69202 2.402972,9.29633 0,0 -1.41145,-6.4362 -2.40184,-9.224 -3.736124,-2.51329 -8.978702,-2.35324 -8.978702,-2.35324 z"
       id="path850"
       inkscape:connector-curvature="0"
       sodipodi:nodetypes="ccccc" />
    <path
       style="fill:none;stroke:#000000;stroke-width:0.26458332px;stroke-linecap:butt;stroke-linejoin:miter;stroke-opacity:1"
       d="m 55.098298,259.24317 c -0.588164,-9.60727 -4.422221,-17.40153 -15.106082,-19.25723 -11.426371,-3.9335 -26.137947,4.91529 -22.980891,21.45971 -3.093906,-16.65314 11.643034,-25.46611 22.937309,-21.40011 11.36,1.75832 14.736072,10.68124 15.149664,19.19763 z"
       id="path852"
       inkscape:connector-curvature="0"
       sodipodi:nodetypes="ccccc" />
    <path
       style="fill:none;stroke:#000000;stroke-width:0.26458332px;stroke-linecap:butt;stroke-linejoin:miter;stroke-opacity:1"
       d="m 19.856185,272.68372 c 3.660145,5.32474 10.571343,16.58413 14.761352,16.33403 2.464971,-0.24782 22.592314,-13.73382 20.480761,-29.77458 2.218609,16.12791 -18.522507,29.89334 -20.516904,29.81007 -4.196204,0.29973 -11.065064,-11.04478 -14.725209,-16.36952 z"
       id="path854"
       inkscape:connector-curvature="0"
       sodipodi:nodetypes="ccccc" />
  </g>
</svg>
