<?xml version="1.0" encoding="UTF-8" standalone="no"?>
<!-- Created with Inkscape (http://www.inkscape.org/) -->

<svg
   xmlns:dc="http://purl.org/dc/elements/1.1/"
   xmlns:cc="http://creativecommons.org/ns#"
   xmlns:rdf="http://www.w3.org/1999/02/22-rdf-syntax-ns#"
   xmlns:svg="http://www.w3.org/2000/svg"
   xmlns="http://www.w3.org/2000/svg"
   xmlns:xlink="http://www.w3.org/1999/xlink"
   xmlns:sodipodi="http://sodipodi.sourceforge.net/DTD/sodipodi-0.dtd"
   xmlns:inkscape="http://www.inkscape.org/namespaces/inkscape"
   viewBox="0 0 256 256"
   id="svg4166"
   version="1.1"
   inkscape:version="0.92.3 (2405546, 2018-03-11)"
   sodipodi:docname="sock_sheerpiped_tights.svg"
   inkscape:export-filename="G:\Games\WM\Resources\Fonts\Trainer\Lilith's Throne\res\mods\naas\items\clothing\naas\sock_web_tights.png"
   inkscape:export-xdpi="96"
   inkscape:export-ydpi="96">
  <style
     id="style3">
    svg { cursor: default; }
  </style>
  <defs
     id="defs4168">
    <linearGradient
       id="innoGrad2"
       inkscape:collect="always">
      <stop
         id="stop848"
         offset="0"
         style="stop-color:#ff8080;stop-opacity:0.54901963" />
      <stop
         style="stop-color:#ff9955;stop-opacity:1"
         offset="0.46676674"
         id="stop850" />
      <stop
         id="stop852"
         offset="1"
         style="stop-color:#ffaaaa;stop-opacity:0.54901963" />
    </linearGradient>
    <linearGradient
       inkscape:collect="always"
       id="innoGrad1">
      <stop
         style="stop-color:#ff8080;stop-opacity:0.54901963"
         offset="0"
         id="stop4175" />
      <stop
         id="stop847"
         offset="0.41186053"
         style="stop-color:#ff9955;stop-opacity:1" />
      <stop
         style="stop-color:#ffaaaa;stop-opacity:0.54901963"
         offset="1"
         id="stop4177" />
    </linearGradient>
    <inkscape:path-effect
       effect="powerstroke"
       id="path-effect4416"
       is_visible="true"
       offset_points="0.084694799,0.50738917"
       sort_points="true"
       interpolator_type="Linear"
       interpolator_beta="0.2"
       start_linecap_type="zerowidth"
       linejoin_type="round"
       miter_limit="4"
       end_linecap_type="zerowidth"
       cusp_linecap_type="round" />
    <inkscape:path-effect
       effect="powerstroke"
       id="path-effect4202"
       is_visible="true"
       offset_points="0,0.5"
       sort_points="true"
       interpolator_type="Linear"
       interpolator_beta="0.2"
       start_linecap_type="zerowidth"
       linejoin_type="round"
       miter_limit="4"
       end_linecap_type="zerowidth"
       cusp_linecap_type="round" />
    <inkscape:path-effect
       effect="powerstroke"
       id="path-effect4610"
       is_visible="true"
       offset_points="0.089858733,0.1462269"
       sort_points="true"
       interpolator_type="Linear"
       interpolator_beta="0.2"
       start_linecap_type="zerowidth"
       linejoin_type="round"
       miter_limit="4"
       end_linecap_type="zerowidth"
       cusp_linecap_type="round" />
    <inkscape:path-effect
       effect="powerstroke"
       id="path-effect4606"
       is_visible="true"
       offset_points="0.29328208,0.12562291"
       sort_points="true"
       interpolator_type="Linear"
       interpolator_beta="0.2"
       start_linecap_type="zerowidth"
       linejoin_type="round"
       miter_limit="4"
       end_linecap_type="zerowidth"
       cusp_linecap_type="round" />
    <inkscape:path-effect
       effect="powerstroke"
       id="path-effect4584-7"
       is_visible="true"
       offset_points="0.52899141,0.21496312"
       sort_points="true"
       interpolator_type="Linear"
       interpolator_beta="0.2"
       start_linecap_type="zerowidth"
       linejoin_type="round"
       miter_limit="4"
       end_linecap_type="zerowidth"
       cusp_linecap_type="round" />
    <inkscape:path-effect
       effect="powerstroke"
       id="path-effect4584"
       is_visible="true"
       offset_points="0.52899141,0.21496312"
       sort_points="true"
       interpolator_type="Linear"
       interpolator_beta="0.2"
       start_linecap_type="zerowidth"
       linejoin_type="round"
       miter_limit="4"
       end_linecap_type="zerowidth"
       cusp_linecap_type="round" />
    <inkscape:path-effect
       effect="powerstroke"
       id="path-effect4584-79"
       is_visible="true"
       offset_points="0.52899141,0.21496313"
       sort_points="true"
       interpolator_type="Linear"
       interpolator_beta="0.2"
       start_linecap_type="zerowidth"
       linejoin_type="round"
       miter_limit="4"
       end_linecap_type="zerowidth"
       cusp_linecap_type="round" />
    <inkscape:path-effect
       effect="powerstroke"
       id="path-effect4584-7-5"
       is_visible="true"
       offset_points="0.52899141,0.21496313"
       sort_points="true"
       interpolator_type="Linear"
       interpolator_beta="0.2"
       start_linecap_type="zerowidth"
       linejoin_type="round"
       miter_limit="4"
       end_linecap_type="zerowidth"
       cusp_linecap_type="round" />
    <inkscape:path-effect
       effect="powerstroke"
       id="path-effect4606-3"
       is_visible="true"
       offset_points="0.29328208,0.12562291"
       sort_points="true"
       interpolator_type="Linear"
       interpolator_beta="0.2"
       start_linecap_type="zerowidth"
       linejoin_type="round"
       miter_limit="4"
       end_linecap_type="zerowidth"
       cusp_linecap_type="round" />
    <inkscape:path-effect
       effect="powerstroke"
       id="path-effect4610-4"
       is_visible="true"
       offset_points="0.089858733,0.1462269"
       sort_points="true"
       interpolator_type="Linear"
       interpolator_beta="0.2"
       start_linecap_type="zerowidth"
       linejoin_type="round"
       miter_limit="4"
       end_linecap_type="zerowidth"
       cusp_linecap_type="round" />
    <linearGradient
       inkscape:collect="always"
       xlink:href="#innoGrad1"
       id="linearGradient1"
       x1="101.77287"
       y1="1023.8253"
       x2="156.82619"
       y2="834.16919"
       gradientUnits="userSpaceOnUse" />
    <linearGradient
       inkscape:collect="always"
       xlink:href="#innoGrad2"
       id="linearGradient3"
       x1="137.12822"
       y1="983.62128"
       x2="157.34785"
       y2="845.87152"
       gradientUnits="userSpaceOnUse" />
  </defs>
  <sodipodi:namedview
     id="base"
     pagecolor="#ffffff"
     bordercolor="#666666"
     borderopacity="1.0"
     inkscape:pageopacity="0.0"
     inkscape:pageshadow="2"
     inkscape:zoom="2.8284271"
     inkscape:cx="95.68754"
     inkscape:cy="140.20896"
     inkscape:document-units="px"
     inkscape:current-layer="layer1"
     showgrid="false"
     units="px"
     inkscape:window-width="1366"
     inkscape:window-height="745"
     inkscape:window-x="-8"
     inkscape:window-y="-8"
     inkscape:window-maximized="1"
     inkscape:snap-nodes="true" />
  <metadata
     id="metadata4171">
    <rdf:RDF>
      <cc:Work
         rdf:about="">
        <dc:format>image/svg+xml</dc:format>
        <dc:type
           rdf:resource="http://purl.org/dc/dcmitype/StillImage" />
        <dc:title />
      </cc:Work>
    </rdf:RDF>
  </metadata>
  <g
     inkscape:label="Layer 1"
     inkscape:groupmode="layer"
     id="layer1"
     transform="translate(0,-796.36216)"
     style="display:inline">
    <path
       style="fill:url(#linearGradient3);fill-opacity:1;fill-rule:evenodd;stroke:#000000;stroke-width:1px;stroke-linecap:butt;stroke-linejoin:miter;stroke-opacity:1"
       d="m 141.42857,844.86216 c -28.02376,27.3806 -51.772604,61.65135 -51.785712,67.5 -0.0084,3.73407 1.843997,5.59583 3.392862,8.03572 4.7528,7.487 6.63546,7.48127 9.82142,11.07143 7.9762,8.98809 12.7979,15.96878 23.92858,26.96428 10.37474,10.75816 13.38278,19.16061 18.57142,29.28572 2.31489,4.51728 3.17775,9.21548 6.25001,12.85719 5.07178,6.0119 9.0488,11.1834 10.35714,18.0357 0.29397,1.5396 1.55985,2.4447 2.85714,3.0357 1.61589,0.7362 3.65223,0.6929 3.75,-0.5357 0.169,-2.1237 -0.0542,-3.8555 -0.0446,-5.759 0.0164,-3.2693 0.18145,-4.3495 0.0446,-6.6517 -0.21701,-3.652 -2.85711,-6.3964 -3.125,-11.38394 -0.43454,-8.09032 0.60138,-6.0324 2.99863,-11.87057 1.3007,-3.30705 1.26546,-7.47638 -0.0522,-8.97768 -1.62189,-1.84791 -8.85818,-1.51753 -12.5,-3.92857 -8.03676,-5.32066 -9.64286,-15.35715 -14.46429,-23.03572 -7.07914,-11.19462 -9.65014,-21.35881 -21.96428,-33.75 0.88675,-4.9042 19.76005,-22.26062 29.64286,-33.39286 l 30.44642,-17.32143 c 16.50172,-15.8426 -2.88628,-33.3191 -8.54935,-52.68325 -7.24844,-1.90872 -14.70591,-3.67375 -36.84759,4.65663 -0.29351,10.64143 3.96148,19.00861 7.27194,27.84805 z"
       id="path4167"
       inkscape:connector-curvature="0"
       sodipodi:nodetypes="cssscsssssssscssccccccc" />
    <path
       style="display:inline;fill:none;stroke:#000000;stroke-width:0.30000001;stroke-linecap:butt;stroke-linejoin:miter;stroke-miterlimit:4;stroke-dasharray:none;stroke-opacity:1"
       d="m 168.22972,1014.4699 c -1.94298,-6.7537 -9.5676,-14.0487 -10.17408,-19.61938 -4.90042,-13.27412 -5.2249,-11.06705 -8.74468,-19.18992 -5.27231,-12.16734 -45.63358,-51.71787 -46.63701,-62.5522 6.81642,-19.34409 56.52034,-64.30045 54.6739,-67.2369 2.19957,3.30096 -41.84246,40.74578 -54.6739,67.23694 1.0948,10.94682 41.19722,50.47361 46.83571,62.51312 3.84357,8.20692 3.36609,5.67253 8.41971,19.22896 0.30511,5.38668 7.85035,12.49958 10.30035,19.61938 z"
       id="path924"
       inkscape:connector-curvature="0"
       sodipodi:nodetypes="ccscccscc" />
    <path
       sodipodi:nodetypes="ccscccscc"
       inkscape:connector-curvature="0"
       id="path922"
       d="m 165.38165,1021.6781 c -5.06314,-19.3311 -8.53012,-18.0094 -12.48565,-24.57943 -2.72937,-11.06496 -7.69322,-14.58841 -8.51561,-18.7227 -1.58995,-7.99295 -49.451912,-55.50774 -48.843399,-65.04875 4.579479,-24.03771 54.743369,-64.85321 53.402009,-68.79981 1.46624,3.9782 -46.22708,41.63461 -53.402009,68.79981 -0.575792,9.37032 47.126219,58.05509 49.042099,65.00967 1.10719,4.01905 4.8833,7.32517 8.31691,18.76178 4.26089,6.76403 7.55074,5.64413 12.48565,24.57943 z"
       style="display:inline;fill:none;stroke:#000000;stroke-width:0.30000001;stroke-linecap:butt;stroke-linejoin:miter;stroke-miterlimit:4;stroke-dasharray:none;stroke-opacity:1" />
    <path
       sodipodi:nodetypes="ccccccccc"
       inkscape:connector-curvature="0"
       id="path926"
       d="m 165.28843,995.1922 c -0.80746,-5.79951 -3.20179,-5.8309 -4.05491,-9.72791 -3.28304,-6.95519 -7.22494,-9.26505 -9.21009,-14.72573 -7.4526,-10.73135 -43.24832,-49.63997 -41.2213,-56.11802 12.83183,-25.8847 57.86585,-63.74793 55.76687,-66.68438 2.2043,2.99615 -43.12319,40.73561 -55.76687,66.68438 -1.99879,6.59054 33.73828,45.41232 41.41997,56.07898 1.71949,5.4391 5.75373,7.77979 9.01139,14.76477 0.95601,4.05111 3.45065,3.73582 4.05494,9.72791 z"
       style="display:inline;fill:none;stroke:#000000;stroke-width:0.30000001;stroke-linecap:butt;stroke-linejoin:miter;stroke-miterlimit:4;stroke-dasharray:none;stroke-opacity:1" />
    <path
       style="display:inline;fill:none;stroke:#000000;stroke-width:0.30000001;stroke-linecap:butt;stroke-linejoin:miter;stroke-miterlimit:4;stroke-dasharray:none;stroke-opacity:1"
       d="m 139.5759,946.42467 c -10.00229,-14.22464 -16.7735,-20.28022 -20,-31.07143 2.78818,-12.73726 56.6061,-60.609 56.09338,-65.01745 l -3e-5,4e-5 c 0.63627,5.59895 -49.58323,47.1117 -56.09335,65.01741 0.81132,7.01285 10.15344,16.84724 20,31.07143 z"
       id="path928"
       inkscape:connector-curvature="0"
       sodipodi:nodetypes="cccccc" />
    <path
       sodipodi:nodetypes="cccc"
       inkscape:connector-curvature="0"
       id="path930"
       d="m 166.97609,872.48719 c 5.39836,-6.82178 19.16727,-16.55432 15.68304,-22.90901 l -3e-5,-0.12623 c 3.23682,6.91218 -10.20346,16.53665 -15.68301,23.03524 z"
       style="display:inline;fill:none;stroke:#000000;stroke-width:0.30000001;stroke-linecap:butt;stroke-linejoin:miter;stroke-miterlimit:4;stroke-dasharray:none;stroke-opacity:1" />
    <path
       style="fill:url(#linearGradient1);fill-rule:evenodd;stroke:#000000;stroke-width:1px;stroke-linecap:butt;stroke-linejoin:miter;stroke-opacity:1;fill-opacity:1.0"
       d="m 134.13365,816.7769 c -0.40345,18.35696 7.31678,20.72721 8.44022,34.92609 0.23565,2.97834 -3.79957,10.52909 -7.59338,25.7885 -3.75499,15.10324 -6.04523,33.71702 -9.87508,44.27814 -0.8049,2.21958 -2.71408,4.55335 -3.17986,9.13008 -0.51209,5.03188 -0.004,12.38491 -0.16627,14.92418 -0.77392,12.10503 -13.174,39.94829 -21.21321,58.84141 -0.679976,1.598 -3.077215,3.2748 -6.302248,7.1651 -3.561582,4.2962 -8.091147,10.9594 -11.501687,15.7527 -4.284894,6.0222 -4.611421,8.081 -18.561553,13.7002 -0.629532,0.2536 -1.204874,1.8929 -1.188724,2.5714 0.02612,1.0972 0.889647,1.3055 1.946338,1.9743 2.435141,1.5411 6.15371,0.7041 9.032726,0.8316 2.944593,0.1305 7.219847,-0.1111 9.910263,-0.8776 1.709726,-0.4871 6.887208,-5.1058 10.263464,-6.8925 4.836201,-2.5593 8.714631,-4.1646 13.723721,-5.5098 6.63846,-1.7828 4.53565,-8.7001 4.04192,-13.3106 -0.94968,-8.8684 5.24302,-16.5619 9.84899,-23.73861 14.84303,-23.1273 19.89076,-30.57731 21.46574,-45.45684 0.4007,-3.78558 2.23705,-7.37565 2.96732,-11.11168 0.67997,-3.47871 0.25078,-7.02492 1.2627,-10.35406 1.41329,-4.64967 14.69266,-26.27998 21.69846,-46.0486 1.54078,-4.34767 4.02026,-9.59626 7.15402,-13.67667 4.04413,-5.26579 8.91973,-9.87003 9.65958,-16.0993 1.05963,-8.92175 -3.70125,-17.55337 -8.14436,-25.31695 -2.76049,-4.82349 -6.81852,-15.90991 -6.81852,-15.90991 -11.28066,-4.57578 -22.48217,1.60699 -36.87057,4.41942 z"
       id="path4165"
       inkscape:connector-curvature="0"
       sodipodi:nodetypes="csssssssssssssssssssssssscc" />
    <path
       style="fill:none;fill-rule:evenodd;stroke:#000000;stroke-width:1px;stroke-linecap:butt;stroke-linejoin:miter;stroke-opacity:1"
       d="m 119.5759,915.35324 c -0.25847,0.74358 -0.38162,1.02612 -1.40626,2.36607"
       id="path4169"
       inkscape:connector-curvature="0"
       sodipodi:nodetypes="cc" />
    <path
       style="fill:#ffd5d5;fill-rule:evenodd;stroke:#000000;stroke-width:1px;stroke-linecap:butt;stroke-linejoin:miter;stroke-opacity:1"
       d="m 134.15663,817.01411 c -0.13657,-0.31567 -1.747,-5.12658 -1.09627,-6.10872 5.34533,-2.33805 11.34702,-4.58037 15.74768,-4.99276 7.75547,-0.72677 18.84504,-2.32621 20.93348,1.14155 0.47351,1.79933 0.94702,3.59867 1.42053,5.398 -9.23551,-3.24504 -24.43135,0.83242 -37.00542,4.56193 z"
       id="path4171"
       inkscape:connector-curvature="0"
       sodipodi:nodetypes="ccsccc" />
    <path
       style="display:inline;fill:none;stroke:#000000;stroke-width:0.30000001;stroke-linecap:butt;stroke-linejoin:miter;stroke-miterlimit:4;stroke-dasharray:none;stroke-opacity:1"
       d="m 62.881652,1044.5352 c 27.436855,-13.2596 28.839891,-26.5449 40.598648,-38.8292 5.82411,-13.29448 23.14146,-53.6196 23.43599,-57.82459 0.91005,-12.99295 3.27216,-21.61507 4.76084,-24.15372 4.79612,-23.3847 21.33351,-69.4453 19.99215,-73.3919 -2.85136,-6.02119 -13.3961,-30.22427 -9.93807,-35.39338 v 0 c -1.82914,5.24829 0.45786,13.30371 9.93807,35.39338 1.41753,4.08411 -14.28174,48.26819 -19.99215,73.3919 -3.70342,6.40114 -3.97802,17.16006 -4.56214,24.11464 -0.3489,4.15414 -17.69592,44.80722 -23.63469,57.86367 -11.453394,12.1212 -13.3907,25.6082 -40.598648,38.8292 z"
       id="path850"
       inkscape:connector-curvature="0"
       sodipodi:nodetypes="ccsccccccscc" />
    <path
       sodipodi:nodetypes="ccscccccscc"
       inkscape:connector-curvature="0"
       id="path912"
       d="m 67.467,1046.5422 c 19.775306,-8.5214 32.60627,-30.2111 40.83863,-40.58 21.61608,-37.26524 24.84581,-49.40582 26.61066,-58.08079 1.29368,-6.35897 1.84359,-16.61503 5.38584,-22.90368 2.39806,-11.69235 15.77967,-50.32707 19.40239,-74.26286 -8.45106,-18.76129 -11.54834,-32.91486 -10.57953,-37.49802 -0.32568,2.25126 0.44985,16.85483 10.57953,37.49802 -4.3346,24.21462 -16.10076,62.32601 -19.40239,74.26286 -3.70342,6.40114 -3.75457,16.6335 -5.18714,22.86464 -2.03051,8.83196 -6.73544,23.35019 -26.93563,58.11983 -8.281194,10.1849 -20.938997,31.945 -40.71236,40.58 z"
       style="display:inline;fill:none;stroke:#000000;stroke-width:0.30000001;stroke-linecap:butt;stroke-linejoin:miter;stroke-miterlimit:4;stroke-dasharray:none;stroke-opacity:1" />
    <path
       style="display:inline;fill:none;stroke:#000000;stroke-width:0.30000001;stroke-linecap:butt;stroke-linejoin:miter;stroke-miterlimit:4;stroke-dasharray:none;stroke-opacity:1"
       d="m 75.467,1046.4422 c 16.871117,-7.7638 33.04821,-33.3309 41.65938,-42.9422 19.21696,-40.16947 24.56077,-46.05076 26.32562,-54.72573 3.44026,-7.8742 3.00168,-15.88996 5.0287,-22.36801 4.79612,-23.3847 21.28756,-73.13402 19.18858,-76.07047 -2.85136,-6.02119 -14.09058,-33.25473 -10.63255,-38.42384 l -0.0415,-0.0179 c -1.82914,5.24829 1.19381,16.35211 10.67402,38.44178 2.17514,3.32649 -13.47814,50.94672 -19.18855,76.07043 -1.99879,6.59054 -1.44029,14.51946 -4.83003,22.32897 -2.03051,8.83196 -7.46055,14.56551 -26.52432,54.76477 -8.68685,9.7654 -24.763642,35.1644 -41.65935,42.9422 z"
       id="path914"
       inkscape:connector-curvature="0"
       sodipodi:nodetypes="cccccccccccc" />
    <path
       sodipodi:nodetypes="cccccc"
       inkscape:connector-curvature="0"
       id="path916"
       d="m 162.28908,899.51095 c 10.6045,-40.55729 14.72157,-43.71333 13.3802,-49.17516 -2.85136,-6.02119 -14.97446,-34.01234 -11.51643,-39.18145 l -0.0415,-0.0179 c -1.82914,5.24829 2.07769,17.10972 11.5579,39.19939 1.45111,5.48361 -3.07329,8.76245 -13.38017,49.17512 z"
       style="display:inline;fill:none;stroke:#000000;stroke-width:0.30000001;stroke-linecap:butt;stroke-linejoin:miter;stroke-miterlimit:4;stroke-dasharray:none;stroke-opacity:1" />
    <path
       style="display:inline;fill:none;stroke:#000000;stroke-width:0.30000001;stroke-linecap:butt;stroke-linejoin:miter;stroke-miterlimit:4;stroke-dasharray:none;stroke-opacity:1"
       d="m 180.0118,865.16576 c 0.75551,-6.46464 3.9887,-10.12575 2.64733,-15.58758 -0.95733,-6.77881 -9.16609,-17.8499 -11.01136,-35.77219 1.46178,17.9796 10.27135,29.12183 11.01133,35.64596 1.45111,5.48361 -1.8106,9.39379 -2.6473,15.71381 z"
       id="path918"
       inkscape:connector-curvature="0"
       sodipodi:nodetypes="ccccc" />
    <path
       style="fill:none;stroke:#000000;stroke-width:0.30000001;stroke-linecap:butt;stroke-linejoin:miter;stroke-miterlimit:4;stroke-dasharray:none;stroke-opacity:1"
       d="m 112.00066,1019.6585 c -2.94467,5.3807 -14.610464,15.0111 -19.445433,20.0768 4.924849,-5.0892 16.498473,-14.4596 19.445433,-20.0768 z"
       id="path920"
       inkscape:connector-curvature="0"
       sodipodi:nodetypes="ccc" />
    <path
       style="fill:none;stroke:#000000;stroke-width:0.30000001;stroke-linecap:butt;stroke-linejoin:miter;stroke-miterlimit:4;stroke-dasharray:none;stroke-opacity:1"
       d="m 159.82143,974.14787 c 2.78582,4.84986 6.72574,5.94111 8.03571,11.78572 -1.46126,-5.71429 -5.09266,-6.78572 -8.03571,-11.78572 z"
       id="path932"
       inkscape:connector-curvature="0"
       sodipodi:nodetypes="ccc" />
  </g>
</svg>
