<?xml version="1.0" encoding="UTF-8" standalone="no"?>
<svg
   xmlns:dc="http://purl.org/dc/elements/1.1/"
   xmlns:cc="http://creativecommons.org/ns#"
   xmlns:rdf="http://www.w3.org/1999/02/22-rdf-syntax-ns#"
   xmlns:svg="http://www.w3.org/2000/svg"
   xmlns="http://www.w3.org/2000/svg"
   xmlns:sodipodi="http://sodipodi.sourceforge.net/DTD/sodipodi-0.dtd"
   xmlns:inkscape="http://www.inkscape.org/namespaces/inkscape"
   cursor="default"
   version="1.1"
   viewBox="0 0 256 256"
   id="svg8"
   sodipodi:docname="torso_mfitted_tshirt.svg"
   inkscape:version="0.92.4 (5da689c313, 2019-01-14)">
  <metadata
     id="metadata14">
    <rdf:RDF>
      <cc:Work
         rdf:about="">
        <dc:format>image/svg+xml</dc:format>
        <dc:type
           rdf:resource="http://purl.org/dc/dcmitype/StillImage" />
      </cc:Work>
    </rdf:RDF>
  </metadata>
  <defs
     id="defs12" />
  <sodipodi:namedview
     pagecolor="#ffffff"
     bordercolor="#666666"
     borderopacity="1"
     objecttolerance="10"
     gridtolerance="10"
     guidetolerance="10"
     inkscape:pageopacity="0"
     inkscape:pageshadow="2"
     inkscape:window-width="1366"
     inkscape:window-height="745"
     id="namedview10"
     showgrid="false"
     inkscape:zoom="0.921875"
     inkscape:cx="128"
     inkscape:cy="128"
     inkscape:window-x="-8"
     inkscape:window-y="-8"
     inkscape:window-maximized="1"
     inkscape:current-layer="svg8" />
  <path
     fill="#f55"
     fill-rule="evenodd"
     stroke="#000"
     d="M101.52 9.649c14.085 7.97 36.806 7.304 64.334 1.831 3.583 16.925-12.603 28.036-34.597 37.439-16.56-9.153-34.407-17.543-29.737-39.27z"
     id="path2" />
  <path
     fill="#ff8080"
     fill-rule="evenodd"
     stroke="#000"
     d="M36.72 73.121c-.32-1.28 13.706-37.942 24.634-48.137 3.805-4.355 31.523-13.395 39.323-15.868 8.016 45.606 60.976 37.096 64.734 1.689 5.836 1.468 19.077 9.176 32.149 11.054 19.289 2.771 28.035 58.035 28.035 58.035-12.93 7.876-23.09 2.213-35.873 9.33l-.377-5.401c-1.9 18.781-4.357 24.078-2.84 49.62 1.37 23.05 6.144 36.252 13.285 93.008-34.217 16.24-113 12.68-140.039 3.787 11.812-55.351 15.485-72.439 16.954-96.125 1.206-19.453-2.181-49.219-2.181-49.219-10.642.125-30.64 4.772-37.803-11.773z"
     id="path4" />
  <path
     fill="#fd5"
     fill-rule="evenodd"
     stroke="#000"
     d="M100.982 9.214l1.741-.714c16.065 8.93 37.326 7.713 61.704 1.439l2.894 1.507c-30.629 8.58-59.162 6.527-66.339-2.232z"
     id="path6"
     style="fill:#ff9955" />
  <path
     fill="#ffe680"
     fill-rule="evenodd"
     stroke="#000"
     stroke-width="1.21"
     d="M99.546 9.24c1.02-.357 2.776-.586 2.776-.586.472 35.062 49.325 45.641 62.554 1.527l2.043.825c-7.633 37.638-60.913 45.044-67.373-1.766zM60.444 227.54c45.726 15.272 120.88 8.169 139.182-1.449l.97 7.562c-12.724 8.906-102.481 17.216-140.914 1.022-.329-2.405.156-4.479.762-7.136z"
     id="path8"
     style="fill:#ffb380" />
  <path
     fill-rule="evenodd"
     d="M74.96 84.684c-1.147-7.315-1.222-14.975-1.389-22.434-.166 7.425-.427 15.145.398 22.566zM189.338 85.107c.178-.355.356-.713.532-1.075-.248-7.093-.94-14.794-1.12-22.14-.179 7.293.155 15.15.043 22.15.183.356.365.711.545 1.065z"
     id="path10" />
  <path
     fill="#ffe680"
     fill-rule="evenodd"
     stroke="#000"
     d="M37.123 71.268l-1.374 3.916c4.666 8.28 11.358 14.947 39.16 11.408l-.915-2.823c-16.272 1.736-30.298.143-36.87-12.5zM189.6 86.982l-.111 3.73c7.975-5.928 26.028-1.805 36.672-8.64l-.893-4.286c-9.212 7.341-25.462 2.361-35.668 9.196z"
     id="path20"
     style="fill:#ffb380" />
</svg>
