<?xml version="1.0" encoding="UTF-8" standalone="no"?>
<svg
   xmlns:dc="http://purl.org/dc/elements/1.1/"
   xmlns:cc="http://creativecommons.org/ns#"
   xmlns:rdf="http://www.w3.org/1999/02/22-rdf-syntax-ns#"
   xmlns:svg="http://www.w3.org/2000/svg"
   xmlns="http://www.w3.org/2000/svg"
   xmlns:sodipodi="http://sodipodi.sourceforge.net/DTD/sodipodi-0.dtd"
   xmlns:inkscape="http://www.inkscape.org/namespaces/inkscape"
   cursor="default"
   version="1.1"
   viewBox="0 0 256 256"
   id="svg8"
   sodipodi:docname="torso_mfitted_vneck.svg"
   inkscape:version="0.92.4 (5da689c313, 2019-01-14)">
  <metadata
     id="metadata14">
    <rdf:RDF>
      <cc:Work
         rdf:about="">
        <dc:format>image/svg+xml</dc:format>
        <dc:type
           rdf:resource="http://purl.org/dc/dcmitype/StillImage" />
        <dc:title />
      </cc:Work>
    </rdf:RDF>
  </metadata>
  <defs
     id="defs12" />
  <sodipodi:namedview
     pagecolor="#ffffff"
     bordercolor="#666666"
     borderopacity="1"
     objecttolerance="10"
     gridtolerance="10"
     guidetolerance="10"
     inkscape:pageopacity="0"
     inkscape:pageshadow="2"
     inkscape:window-width="1366"
     inkscape:window-height="745"
     id="namedview10"
     showgrid="false"
     inkscape:zoom="2.6074563"
     inkscape:cx="90.663592"
     inkscape:cy="115.72517"
     inkscape:window-x="-8"
     inkscape:window-y="-8"
     inkscape:window-maximized="1"
     inkscape:current-layer="svg8" />
  <path
     fill="#f55"
     fill-rule="evenodd"
     stroke="#000"
     d="M101.52 9.649c14.085 7.97 36.806 7.304 64.334 1.831 3.583 16.925-12.603 28.036-34.597 37.439-16.56-9.153-34.407-17.543-29.737-39.27z"
     id="path2" />
  <path
     d="M 36.72,73.121 C 36.4,71.841 50.426,35.179 61.354,24.984 65.159,20.629 92.877,11.589 100.677,9.116 c 5.91575,24.808224 18.88565,36.787471 31.816,37.9925 12.77934,-1.644658 29.53777,-16.422486 32.918,-36.3035 5.836,1.468 19.077,9.176 32.149,11.054 19.289,2.771 28.035,58.035 28.035,58.035 -12.93,7.876 -23.09,2.213 -35.873,9.33 l -0.377,-5.401 c -1.9,18.781 -4.357,24.078 -2.84,49.62 1.37,23.05 6.144,36.252 13.285,93.008 -34.217,16.24 -113,12.68 -140.039,3.787 C 71.563,174.887 75.236,157.799 76.705,134.113 77.911,114.66 74.524,84.894 74.524,84.894 63.882,85.019 43.884,89.666 36.721,73.121 Z"
     id="path4"
     inkscape:connector-curvature="0"
     style="fill:#ff8080;fill-rule:evenodd;stroke:#000000"
     sodipodi:nodetypes="cccccccccccccccc" />
  <path
     fill="#fd5"
     fill-rule="evenodd"
     stroke="#000"
     d="M100.982 9.214l1.741-.714c16.065 8.93 37.326 7.713 61.704 1.439l2.894 1.507c-30.629 8.58-59.162 6.527-66.339-2.232z"
     id="path6"
     style="fill:#ff9955" />
  <path
     d="m 99.546,9.24 c 1.02,-0.357 2.776,-0.586 2.776,-0.586 0.236,17.531 14.77983,31.107463 30.171,38.4545 11.75639,-4.995224 25.7685,-14.8705 32.383,-36.9275 l 2.043,0.825 C 162.98809,29.733471 145.13699,46.132497 132.493,49.791 117.41138,42.224814 102.776,32.645 99.546,9.24 Z m -39.102,218.3 c 45.726,15.272 120.88,8.169 139.182,-1.449 l 0.97,7.562 c -12.724,8.906 -102.481,17.216 -140.914,1.022 -0.329,-2.405 0.156,-4.479 0.762,-7.136 z"
     id="path8"
     inkscape:connector-curvature="0"
     style="fill:#ffb380;fill-rule:evenodd;stroke:#000000;stroke-width:1.21000004"
     sodipodi:nodetypes="ccccccccccccc" />
  <path
     fill-rule="evenodd"
     d="M74.96 84.684c-1.147-7.315-1.222-14.975-1.389-22.434-.166 7.425-.427 15.145.398 22.566zM189.338 85.107c.178-.355.356-.713.532-1.075-.248-7.093-.94-14.794-1.12-22.14-.179 7.293.155 15.15.043 22.15.183.356.365.711.545 1.065z"
     id="path10" />
  <path
     fill="#ffe680"
     fill-rule="evenodd"
     stroke="#000"
     d="M37.123 71.268l-1.374 3.916c4.666 8.28 11.358 14.947 39.16 11.408l-.915-2.823c-16.272 1.736-30.298.143-36.87-12.5zM189.6 86.982l-.111 3.73c7.975-5.928 26.028-1.805 36.672-8.64l-.893-4.286c-9.212 7.341-25.462 2.361-35.668 9.196z"
     id="path20"
     style="fill:#ffb380" />
</svg>
