<svg cursor="default" version="1.1" viewBox="0 0 256 256" xmlns="http://www.w3.org/2000/svg">
  <path
     d="m 101.52,9.649 c 14.085,7.97 36.806,7.304 64.334,1.831 3.583,16.925 -11.067,28.2255 -33.061,37.6285 C 116.233,39.9555 96.85,31.376 101.52,9.649 Z"
     id="path2"
     style="fill:#ff5555;fill-rule:evenodd;stroke:#000000"
     inkscape:connector-curvature="0"
     sodipodi:nodetypes="cccc" />
  <path
     fill="#ff2a2a"
     fill-rule="evenodd"
     stroke="#000"
     d="M100.982 9.214l1.741-.714c16.065 8.93 37.326 7.713 61.704 1.439l2.894 1.507c-30.629 8.58-59.162 6.527-66.339-2.232z"
     id="path4"
     style="fill:#ff9955" />
  <g
     inkscape:groupmode="layer"
     id="patternLayer"
     inkscape:label="patternLayer"
     style="display:inline">
    <path
       d="m 25.127,131.761 c 10.55,6.75099 19.275,4.90799 28.151,3.78199 0.116,-1.11799 0.222,-2.06299 0.382,-3.66699 1.923,-1.517 2.653,-2.82 1.299,-4.813 2.122,-0.371 2.608,-3.05 1.527,-4.813 1.322,-0.496 1.721,-1.338 1.414,-2.444 1.016,-0.635 0.927,-1.38 0.42,-2.827 2.957,-1.45 2.465,-3.687 2.368,-5.615 2.888,-3.158 4.735,-6.663 3.972,-11.038 0.402,-0.89 2.14,-5.349 3.362,-7.945 2.92,-1.605 1.779,-2.109 1.948,-5.157 0.873,-3.371 1.487,-10.184 3.17,-6.073 L 103.858,20.971 101.265,8.98 C 69.51,15.088 50.011,29.324 51.811,32.848 c -3.66,2.096 -2.964,3.818 -3.267,5.626 l -4.106,9.183 c -2.844,2.196 -2.258,4.393 -1.728,6.59 -1.386,2.61 -2.352,5.402 -3.025,8.319 -3.816,3.774 -2.791,7.453 -1.513,11.127 -1.718,1.738 -3.177,3.53 0,6.266 -1.057,1.929 -1.859,3.942 -1.404,6.374 -1.667,1.98 -1.051,4.49 -1.513,8.86 -3.043,2.793 -2.715,5.164 -1.728,7.454 -1.526,2.58 -3.604,5.055 -1.513,8.319 -1.13,1.399 -2.246,2.802 -1.188,4.7 -0.739,1.15 -3.635,1.5 -1.189,3.834 -3.073,2.02 -2.442,3.498 -1.404,4.916 -0.932,1.11 -2.952,1.675 -1.242,4.105 -4.569,0.823 -1.625,2.185 -1.864,3.24 z m 166.269,20.28199 c 0.382,0.153 30.557,-0.687 30.557,-0.687 0.578,-1.73 -0.576,-2.88 -1.68,-4.049 2.496,-2.961 0.456,-3.16 -0.077,-4.278 1.6,-1.304 1.466,-2.677 -0.535,-4.125 l -0.076,-8.47999 c 2.54,-2.135 1.253,-3.278 0,-4.43 l -0.076,-4.737 c 2.41,-2.517 4.293,-5.145 0.611,-8.938 1.651,-29.549 4.412,-84.551 -24.486,-90.38 -7.731,-1.56 -18.793,-7.469 -29.655,-11.23 l -8.32,19.122 31.44,59.96 c -0.788,2.719 -0.048,4.784 0.54,6.914 l 0.108,5.294 c -4.048,6.65 -0.745,8.07 0.864,10.695 -2.916,2.727 -1.69,4.658 0.648,6.374 l 0.216,2.81 c -2.012,1.44 -1.527,2.88 0.324,4.32 l 0.54,10.47999 c -2.247,1.472 -1.37,2.368 0.216,3.133 -0.005,0.576 -0.11,1.152 -0.216,1.729 -2.458,1.37 -0.537,1.647 0,2.268 -1.292,0.96 -0.936,1.844 0,2.701 -0.965,1.7 -0.847,3.641 -0.943,5.534 z"
       id="path6-4"
       inkscape:connector-curvature="0"
       style="fill:#ffe680;fill-rule:evenodd;stroke:none;stroke-width:1.21000004" />
  </g>
  <path
     d="m 25.127,131.761 c 10.55,6.751 19.275,4.908 28.151,3.782 0.116,-1.118 0.222,-2.063 0.382,-3.667 1.923,-1.517 2.653,-2.82 1.299,-4.813 2.122,-0.371 2.608,-3.05 1.527,-4.813 1.322,-0.496 1.721,-1.338 1.414,-2.444 1.016,-0.635 0.927,-1.38 0.42,-2.827 2.957,-1.45 2.465,-3.687 2.368,-5.615 2.888,-3.158 4.735,-6.663 3.972,-11.038 0.402,-0.89 2.14,-5.349 3.362,-7.945 2.92,-1.605 1.779,-2.109 1.948,-5.157 0.873,-3.371 1.487,-10.184 3.17,-6.073 L 103.858,20.971 101.265,8.98 C 69.51,15.088 50.011,29.324 51.811,32.848 c -3.66,2.096 -2.964,3.818 -3.267,5.626 l -4.106,9.183 c -2.844,2.196 -2.258,4.393 -1.728,6.59 -1.386,2.61 -2.352,5.402 -3.025,8.319 -3.816,3.774 -2.791,7.453 -1.513,11.127 -1.718,1.738 -3.177,3.53 0,6.266 -1.057,1.929 -1.859,3.942 -1.404,6.374 -1.667,1.98 -1.051,4.49 -1.513,8.86 -3.043,2.793 -2.715,5.164 -1.728,7.454 -1.526,2.58 -3.604,5.055 -1.513,8.319 -1.13,1.399 -2.246,2.802 -1.188,4.7 -0.739,1.15 -3.635,1.5 -1.189,3.834 -3.073,2.02 -2.442,3.498 -1.404,4.916 -0.932,1.11 -2.952,1.675 -1.242,4.105 -4.569,0.823 -1.625,2.185 -1.864,3.24 z m 166.269,20.282 c 0.382,0.153 30.557,-0.687 30.557,-0.687 0.578,-1.73 -0.576,-2.88 -1.68,-4.049 2.496,-2.961 0.456,-3.16 -0.077,-4.278 1.6,-1.304 1.466,-2.677 -0.535,-4.125 l -0.076,-8.48 c 2.54,-2.135 1.253,-3.278 0,-4.43 l -0.076,-4.737 c 2.41,-2.517 4.293,-5.145 0.611,-8.938 1.651,-29.549 4.412,-84.551 -24.486,-90.38 -7.731,-1.56 -18.793,-7.469 -29.655,-11.23 l -8.32,19.122 31.44,59.96 c -0.788,2.719 -0.048,4.784 0.54,6.914 l 0.108,5.294 c -4.048,6.65 -0.745,8.07 0.864,10.695 -2.916,2.727 -1.69,4.658 0.648,6.374 l 0.216,2.81 c -2.012,1.44 -1.527,2.88 0.324,4.32 l 0.54,10.48 c -2.247,1.472 -1.37,2.368 0.216,3.133 -0.005,0.576 -0.11,1.152 -0.216,1.729 -2.458,1.37 -0.537,1.647 0,2.268 -1.292,0.96 -0.936,1.844 0,2.701 -0.965,1.7 -0.847,3.641 -0.943,5.534 z"
     id="path6"
     inkscape:connector-curvature="0"
     style="fill:none;fill-rule:evenodd;stroke:#000000;stroke-width:1.21000004" />
  <path
     fill-rule="evenodd"
     d="M189.135 66.961c2.044-7.152 5.651-13.698 8.822-20.493-3.493 6.537-7.519 13.007-9.976 20.129zM189.634 78.05c3.465-10.096 13.088-16.72 20.423-24.343-7.426 7.144-17.624 13.72-21.56 23.929zM26.785 129.199c4.61 1.445 9.313 2.712 14.088 2.51-4.73-.201-9.275-1.85-13.677-3.649z"
     id="path8" />
  <path
     fill-rule="evenodd"
     d="M53.776 131.16c-5.078-.19-9.967 1.077-14.902.386 4.768 1.07 10.088.254 14.809.82zM27.932 124.725c4.52 2.362 9.836 2.321 14.562 2.122-4.845-.204-9.891-.604-13.96-3.172z"
     id="path10" />
  <path
     fill-rule="evenodd"
     d="M54.946 126.517c-4.37.781-11.598 1.722-15.91-.21 4.212 2.333 11.578 1.8 16.07 1.41zM29.044 119.903c3.462 1.96 7.705 2.08 11.397 2.298-3.79-.636-7.726-1.16-10.75-3.32zM56.802 121.715c-3.446.866-5.503 1.14-13.174.81 7.61.731 9.748.873 13.403.378zM30.277 116.052c.823.644 2.197.994 3.4 1.168 1.251.18 2.494.195 3.172.066a17.034 17.034 0 0 1-3.037-.656c-1.19-.376-2.26-.888-2.707-1.46zM57.925 119.139c-1.591.602-3.876.96-6.255 1.06-2.368.1-4.798-.06-6.692-.483 1.845.617 4.282.986 6.692 1.09 2.395.103 4.814-.056 6.615-.512zM58.429 116.234c-1.198.668-2.808 1.311-6.698.782 3.804.925 5.561.723 7.13.349zM31.526 111.264c1.398 1.633 2.977 2.29 4.525 2.516 1.524.224 3.083.04 4.498-.06-1.458-.102-2.951-.123-4.371-.531-1.399-.402-2.65-1.159-3.696-2.668zM32.958 102.798c.545 1.209 1.475 1.898 2.469 2.309.985.407 2.101.57 3.123.673-1.007-.306-2.018-.658-2.84-1.208-.821-.548-1.38-1.242-1.614-2.185zM60.806 111.182l-.175-.58c-1.837.764-3.8 1.51-5.767 1.93 2.033-.022 4.122-.381 6.116-.771l-.174-.58zM35.86 86.058c.893 2.552 2.523 4.448 4.581 5.947-1.815-1.823-2.979-3.863-3.413-6.26zM68.113 91.642c-2.126 1.384-5.051 2.19-7.631 2.794 2.577-.195 5.726-.613 8.207-1.73zM37.902 79.743l-.426.43a19.45 19.45 0 0 0 5.396 3.135 18.875 18.875 0 0 1-4.544-3.995l-.426.43zM37.436 73.828c.505 1.21 1.32 1.94 2.239 2.413.902.464 1.947.703 2.98.91-1.002-.408-1.924-.826-2.652-1.418-.718-.585-1.2-1.3-1.418-2.283zM42.164 54.37c.074.128.223.305.354.457.147.171.336.383.551.615a27.612 27.612 0 0 0 1.662 1.64c1.319 1.193 2.996 2.46 4.663 3.066-1.57-.784-3.095-2.195-4.233-3.492a17.492 17.492 0 0 1-1.38-1.778 6.71 6.71 0 0 1-.389-.647c-.08-.159-.142-.323-.11-.323zM47.996 38.196c-.003 1.03.106 1.87.476 2.588.366.71.961 1.25 1.854 1.795-.79-.72-1.157-1.353-1.286-2.002-.125-.63-.035-1.332.16-2.258z"
     id="path12" />
  <path
     d="m 60.103,228.4 c 44.058,11.38 120.879,22.572 136.125,11.344 1.024,-54.321 -7.736,-63.656 -16.637,-96.044 -4.013,-14.6 0.399,-30.504 9.507,-54.666 l 0.432,-21.39 c -1.4,-3.628 -0.355,-9.138 -2.475,-11.33 -9.957,-10.113 -19.77,-20.441 -26.662,-31.51 -9.99127,13.088841 -19.10775,23.609764 -27.6,24.3045 -10.36041,-1.402054 -20.90324,-11.968977 -29.043,-28.3525 -5.5,3.105 -14.422,17.68 -22.04,26.793 -7.256,8.682 -5.726,22.556 -8.426,33.923 0,0 16.183,42.942 11.452,59.203 -4.146,14.247 -13.726,20.625 -21.391,63.093 -1.378,7.634 -3.27,15.816 -3.242,24.632 z"
     id="path14"
     inkscape:connector-curvature="0"
     style="fill:#ff8080;fill-rule:evenodd;stroke:#000000;stroke-width:1.21000004"
     sodipodi:nodetypes="cccccccccccccc" />
  <path
     d="m 99.546,9.24 c 1.02,-0.357 2.776,-0.586 2.776,-0.586 0.236,17.531 17.22309,34.73786 30.471,40.4545 10.29059,-6.24254 25.4685,-16.8705 32.083,-38.9275 l 2.043,0.825 C 163.1025,29.825 145.97632,45.255491 132.793,51.791 118.52494,45.173966 102.776,32.645 99.546,9.24 Z"
     id="path68"
     inkscape:connector-curvature="0"
     style="fill:#ffb380;fill-rule:evenodd;stroke:#000000;stroke-width:1.21000004"
     sodipodi:nodetypes="ccccccc" />
  <path
     fill="#ffb380"
     fill-rule="evenodd"
     stroke="#000"
     stroke-width="1.21"
     d="M59.771 230.04l.382-7.18c45.727 15.273 117.88 22.829 136.184 13.21l.108 7.563c-12.725 8.906-98.24 2.6-136.674-13.593z"
     id="path70"
     style="fill:#ffb380" />
  <path
     fill-rule="evenodd"
     d="M72.127 79.407c-5.88-2.417-9.808-9.176-11.267-15.437 1.041 6.227 4.611 13.556 10.772 16.541zM69.719 67.427c-1.708-2.701-3.696-5.437-5.402-8.353-2.125-2.73-3.982-5.675-4.862-8.933.446 3.387 1.92 6.603 3.744 9.693 2.094 2.685 4.484 5.208 6.52 7.593zM189.991 70.874c2.921-8.67 9.018-16.296 14.448-23.758-5.683 7.13-12.224 14.646-15.586 23.346zM192.576 147.147c5.862.206 12.062-.02 17.995-.222-5.954-.202-12.117-.38-17.91-.985zM220.184 146.48c-4.704.901-9.534.47-14.426.674 4.754.199 9.755 1.037 14.603.522zM220.155 141.9c-6.953 1.583-14.27 1.155-21.502 1.358 7.122.2 14.59 1.04 21.737-.17zM192.202 144.311c3.209.396 6.607.153 9.736-.289-3.19.043-6.506-.132-9.514-.9zM192.333 140.342c5.43.653 11.266.246 16.633-.369-5.434.216-11.196.206-16.444-.826zM191.584 126.757c5.521 1.61 12.282-.103 17.688-.687-5.666.198-12.139 1.457-17.31-.462zM219.609 129.864c-7.22 1.305-14.849.433-22.33.637 7.328.2 15.146 1.478 22.512.56zM219.226 120.618c-.724.658-1.239 1.345-2.517 2.05-1.284.708-3.314 1.411-6.902 1.95 3.598-.337 5.72-.844 7.157-1.402 1.457-.564 2.213-1.187 2.98-1.625zM191.151 119.74c5.697 1.793 11.207.69 16.795.492-5.78-.205-11.027.471-16.393-1.634zM190.273 112.95c3.557 1.66 7.841.633 11.36.439-3.8-.21-7.693.368-10.794-1.51zM189.64 96.735l-.409.447c1.752 1.327 3.924 1.928 5.603 2.017-1.639-.492-3.5-1.46-4.787-2.91l-.408.446z"
     id="path72" />
</svg>
