<?xml version="1.0" encoding="UTF-8" standalone="no"?>
<svg
   xmlns:dc="http://purl.org/dc/elements/1.1/"
   xmlns:cc="http://creativecommons.org/ns#"
   xmlns:rdf="http://www.w3.org/1999/02/22-rdf-syntax-ns#"
   xmlns:svg="http://www.w3.org/2000/svg"
   xmlns="http://www.w3.org/2000/svg"
   xmlns:sodipodi="http://sodipodi.sourceforge.net/DTD/sodipodi-0.dtd"
   xmlns:inkscape="http://www.inkscape.org/namespaces/inkscape"
   cursor="default"
   viewBox="0 0 256 256"
   version="1.1"
   id="svg80"
   sodipodi:docname="fanny_pack.svg"
   inkscape:version="0.92.3 (2405546, 2018-03-11)">
  <metadata
     id="metadata86">
    <rdf:RDF>
      <cc:Work
         rdf:about="">
        <dc:format>image/svg+xml</dc:format>
        <dc:type
           rdf:resource="http://purl.org/dc/dcmitype/StillImage" />
      </cc:Work>
    </rdf:RDF>
  </metadata>
  <defs
     id="defs84" />
  <sodipodi:namedview
     pagecolor="#ffffff"
     bordercolor="#666666"
     borderopacity="1"
     objecttolerance="10"
     gridtolerance="10"
     guidetolerance="10"
     inkscape:pageopacity="0"
     inkscape:pageshadow="2"
     inkscape:window-width="1920"
     inkscape:window-height="1017"
     id="namedview82"
     showgrid="false"
     inkscape:zoom="3.6875"
     inkscape:cx="112.76602"
     inkscape:cy="138.03827"
     inkscape:window-x="1358"
     inkscape:window-y="-8"
     inkscape:window-maximized="1"
     inkscape:current-layer="svg80" />
  <g
     fill="#333"
     stroke="#000"
     id="g4">
    <path
       d="M30.661 59.474l-.072-1.597.288-1.24.335-1.383.695-2.24.814-.716 1.318-.62 2.012-.667 1.245-.406 2.156.023 1.318.095.623.286.407.382.287.62.216.691.168 1.765-2.54 25.152-.311.62-.312.548-.407.477-.43.381-.408.31-.743.19-.766.144-.575.167-.407.167-.671.31-1.461-.12-2.228-18.69zM72.914 49.917l-.855-.877-.39-.396.457-.725 1.415-.927 1.312-.345.915-.02 1.169.195.94.354 1.169.649 1.084.775 1.22 1.029.6.405.196-.008.728-.885.982-.91 1.737-.97 1.592-.379.965-.126h1.83l.906.193.423.135.297-.126.059-.388.288-.202.855-.253 1.44-.338 1.16-.193 2.05-.397 1.482-.168.66-.02.433.237.33.019.491-.118 1.66-.152 6.7-.034.626.253.712.303.474.338.322.623s.118.371.135.455c.017.085.068.574.068.574l.033.606-5.034 24.195s-.264.299-.312.31c-.048.008-1.628.167-1.628.167l-1.869.19-1.45.18-.67-.25-.192.008-.838.632-1.15.262-1.557.214-3.617.011-.85-.286-.54-.287-.55-.226-.91.263-1.282.286-1.27.238h-3.21l-1.006-.274-.659-.298-.754-.25-.443-.192-.36.215-.754.715-.958.953-.623.49-.946.607-.707.143-1.354-.37-2.483-22.645zM149.81 50.82l.335-.81 1.03-1.169.91-.596 1.246-.357h3.665l3.21.333 3.57.62 1.508.453 1.174.691 1.102 1.002.743 1.263.359 1.001-3.74 24.978-.56.49-1.287.219h-1.1l-1.186-.439-1.66-.523-2.999-.405-2.896-.303-1.186-.32-.864-.44-.948-.69-.525-.759z"
       id="path2" />
  </g>
  <g
     fill="#ffd42a"
     stroke="#000"
     id="g10">
    <path
       d="M29.104 93.804l-1.485-1.192-1.318-1.526-.91-1.216 1.246-.93 1.197-.858 1.318-.834 1.27-.787 1.389-.93 1.222-1 .718-.954.67-.549.192-1.86.288-1.883.072-2.646.191-3.338.455-4.315.312-4.696.24-4.005.239-3.529.072-.548-.288-.572-.527-.358-.455-.238-.67.023s-.432.19-.48.286c-.047.095-.215.453-.215.453l-.024.405-.192.477s-.263.477-.311.572c-.048.095-.503.74-.503.74l-.743.714-1.413 1.24-1.749 1.168-1.58 1.12-1.917 1.526-2.108 1.67-1.605 1.525-1.342 1.717-1.054 1.382-1.605 3.195-.934 2.289-1.078 2.884-.982 3.791-1.39 4.029-2.89 9.718-3.185 10.148-1.49 5.63-.102.776v2.36l.136 1.28.474 1.956.949 2.63 1.287 2.192 2.439 3.54 1.592 2.023 1.592 2.124 1.618 2.517 5.26 7.462 3.421-.64 5.488-6.642 11.044-21.713-1.863-5.327-10.603-6.575z"
       id="path6" />
    <path
       d="M37.153 54.253l2.276-.572 1.03-.453 1.46-.214.624.19.694.096.623-.095.815-.191 1.293-.167 1.701-.263 2.85-.405 2.875-.286 2.755-.43 2.875-.357 3.066-.382 3.162-.31 3.042-.381 2.97-.406.695-.047-.024.476.311.238h.695l.288-.047.263-.048.287.023.264.048.766.048h.695l.575-.023.623-.048.575-.095.694-.12h.408l.55.072.216.573-.144 7.342-.275 4.315-.467 3.934-.335 4.697-.312 3.814-.335.763-.36.715-1.245.334h-2.42l-.598-.238-.503-.286-.551-.167-1.845-.047-2.826.047-2.612.334-2.251.167-2.923.334-3.305.452-3.258.43-2.731.309-2.635.382-2.707.405L42.16 79l-1.724.12-1.605.167-2.108.548h-.527l-.647-.763-.407-.858.12-4.41.503-4.435.287-4.196.263-4.387.168-3.361-.287-2.48zM141.73 50.414l2.981.236 2.829.22 2.371-.02h2.49l1.592.237s.44.202.593.219c.153.019 1.237.135 1.237.135l1.186-.05-.95 22.695c-.243.662-.796.754-1.341.906-1.843.288-3.87.128-5.414-.096l-5.989-.476-5.126-.62-4.887-.43-5.174-.333-3.929-.19-4.168-.239-5.892-.048-3.258-.286-2.875-.095-3.018-.334-2.827-.286-.958-.214-.36-.382.408-3.647.538-5.203.305-5.63.373-7.081.203-.37.508-.675 1.016-.236 1.525-.034 3.794-.169.745.135s.237.303.407.337c.17.034 1.016.068 1.016.068l1.321.135 6.776.135 6.741.405 5.556.472 4.607.337zM161.6 51.845l-1.27 22.789c.878 1.917 1.89 2.15 4.672 3.173 6.764 1.051 12.82 2.917 18.709 3.818 3.728 1.477 6.924 4.166 10.252 6.386l35.261-6.77-1.504-13.18c-16.27-5.606-33.257-8.476-49.48-11.898-4.82-.61-9.439-3.43-13.344-4.01-.921.025-2.413-.084-3.296-.308z"
       id="path8" />
  </g>
  <path
     d="M17.702 73.253l-.886 4.029-.6 3.29-.095 2.86.527 2.36 1.437 3.053 3.522 5.864 3.665 4.852"
     fill="none"
     stroke="#000"
     id="path12" />
  <path
     d="M78.02 205.28l-4.767-4.172-6.492-6.365-6.228-6.866-4.192-6.032-1.773-3.17-.67-1.598-2.516-1.55-4.527-3.862-3.617-3.48-5.701-5.603-4.097-3.981-2.347-2.647-3.45-4.148-2.874-3.552-3.186-3.838-1.126-1.74-2.108-3.72-1.629-3.099-.982-2.718.958 1.526 1.988 2.217c1.229 1.603 2.522 2.526 3.234 1.812 6.734-8.085 11.608-18.483 15.499-26.296.517-1.453-.024-1.821-1.174-2.718l-3.641-2.837-4.193-4.053-1.82-1.406-1.318-1.824 3.62-5.451s2.574-3.743 8.977-1.922c6.402 1.82 14.77 4.383 14.77 4.383l7.148 1.854 6.098 1.585 1.965.775 1.272.368 4.385-.065 12.196-1.652 10.434-2.157 11.281-2.158 8.706-1.888 6.268-1.349 6.504-1.079 10.807-1.854 10.468-1.82 8.435-1.585 11.383-1.754 9.147-1.416 8.198-1.315 10.671-1.753 8.707-1.652s.237-1.416 4.472-.978c4.234.439 2.828.287 2.828.287l1.914-.118 2.541-.708 1.863-.775 2.473-2.124 5.15-5.125c7.211.816 5.84 11.22 5.63 18.203l2.85 1.43 2.348 1.454 2.228 1.86 1.245 1.573 1.27 1.884.719 1.74.718 1.931.36 1.788.263 2.146.072 3.004.048 3.957.886 1.002 1.198 1.525.838 1.67.6 1.43.454 1.645.288 1.74.287 2.122.072 2.408.024 5.507-.168 2.908-.503 3.147-.599 3.576-.934 6.127-1.15 6.509-1.006 5.555-1.222 5.316-1.252 4.945-2.555 8.472-2.202 5.698s-2.541 9.373-14.94 14.194c-12.4 4.821-17.582 6.575-17.582 6.575l-9.012 3.068-5.657 1.787-7.487 1.854-14.398 3.54-9.96 2.26-7.012 1.55-9.52 1.956-8.198 1.652-10.163 1.72-2.473.134-9.993.135s-.915.034-2.744-1.079c-1.83-1.113-5.116-4.248-5.116-4.248l-2.642-2.697-1.118-1.518-1.321-2.191-.847-.236-.542-.237-.44-.27-.204-.202-.339-.37-.203-.203-.915.237-1.626.505s-.948.169-1.084.169c-.135 0-1.05.135-1.05.135h-1.05l-1.66.303-.847.169-1.287.404h-2.304l-1.88-.768z"
     fill="#ff2a2a"
     stroke="#000"
     id="path14" />
  <g
     fill="none"
     stroke="#000"
     stroke-dasharray="2.99999996, 0.50000003"
     stroke-width=".5"
     id="g18">
    <path
       d="M13.198 129.35l4.264-6.39 3.689-7.342 2.922-6.485 1.725-4.243 2.076-2.402M49.322 134.26l2.97 2.813 3.69 2.623 3.114 1.668 6.42 4.196 6.61 3.338 5.798 2.67 2.539 1.383 3.977.953 3.257.477M50.131 130.96l2.676 1.686 3.354 2.495 3.218 1.685 7.08 4.35 5.455 3.54 4.641 2.056 4.268 1.585 3.93 1.079 2.812.506M101.88 178.27c1 2.083 3.885 2.671 7.474 2.233M108.97 158.51c17.832 8.93 35.273 3.801 55.283.18 32.47-5.218 31.24-5.523 59.451-12.994l24.27-7.856 1.422-1.45M238.93 105.17l-9.994-3.473-7.713-.906-8.576 1.24-9.486 1.525-14.085 2.861-12.696 1.764-8.767 1.335-16.098 2.861-13.606 2.289-9.055 2.24-12.552 3.005-4.743 1.812-3.69 2.431-3.4 4.101-2.636 5.197-1.054 6.437-1.006 8.535-.048 5.817-.287 5.054-.6 2.932"
       id="path16" />
  </g>
  <g
     fill="#ff7f2a"
     stroke="#000"
     id="g24">
    <path
       d="M102.93 101.31c-.168 0-6.204 1.383-6.204 1.383-16.352 4.635-25.02 16.387-25.751 26.987l-.959 5.46-1.27 5.288-3.233-1.593 3.737-14.686c3.053-10.84 12.603-19.019 21.271-21.505l5.223-1.62 15.81-3.577 13.894-3.48 3.784-.859 4.504-.715 4.934-.62 5.414-.667 6.324-.906 9.39-1.764 7.187-1.574 10.109-1.764 16.433-2.956 8.671-1.43 5.318-.477 4.983.047 3.785.382 3.497 1.025 2.151.876-5.313-.614-3.641-.286h-3.88l-2.588.142-3.21.239-3.88.476-3.785.62-3.785.572-4.79.954-5.558.906-6.085 1.097-5.27.858-5.893 1.287-4.36 1.002-8.48 1.573-4.934.715-4.12.668-4.312.429-4.312.763-4.455.858-4.935 1.097-3.833.858-7.102 1.86s-10.312 2.67-10.48 2.67zM130.29 155.14l1.916 4.387 2.013.62 1.102.047 1.533-.191 1.533-.668 6.946-2.622 5.079-.858 6.947-.811 7.809-1.24 7.043-1.049 4.934-.667 4.647-1.097 6.468-1.335 8.24-1.573 3.354-.763 5.653-1.24 5.797-1.43 7.522-2.194c7.337-2.406 15.282-4.523 22.089-6.096-.124-1.492-.786-2.217-1.725-3.29-8.469 1.017-14.317 2.696-22.328 5.047l-10.828 2.861-9.726 2.05-8.48 1.67-9.533 1.62-7.666 1.526-34.734 4.96-3.833 1.048-1.101.429z"
       id="path20"
       style="fill:#ffb380" />
    <path
       d="M104.74 175.57l.44-1.72.17-4.382-.44-8.092c-.084-4.451.56-8.72 1.62-12.8 2.549-9.811 9.024-18.017 23.076-22.736l5.115-1.753 7.487-1.956 9.147-1.922 11.992-2.461 7.758-1.349 8.13-1.45 9.587-1.651 8.74-1.754 6.065-1.213 8.74-1.754 5.386-.775 5.285-.843 4.1-.607 5.182-.202 4.37.135 3.592.775 2.676 1.147 1.863 1.55 1.22 1.248 1.965 2.664 1.543 1.749-.925-2.133-2.923-4.195-2.81-2.502-3.964-1.416-6.674-.64-7.182.472-6.81 1.079-7.35 1.214-9.96 2.056-7.657 1.416-9.35 1.855-8.401 1.517-17.582 2.528-8.74 1.518-9.588 2.09-8.706 2.293-8.402 3.573c-14.81 6.57-20.231 20.076-20.021 34.356l-1.017 12.88 1.39 1.28z"
       id="path22"
       style="fill:#ffb380" />
  </g>
  <g
     fill="none"
     stroke="#000"
     id="g28">
    <path
       d="M68.748 140.43l1.608 1.25 3.286 1.653 2.812 1.18 2.1.876 2.982 1.113 2.405.37 1.728.136 1.998-.27M50.544 128.61l1.485 1.12 2.611 1.693 2.611 1.764 2.54 1.526 2.73 1.502M239.19 133.07l-1.868-1.645M240.91 136.36l.575 1.812"
       id="path26" />
  </g>
  <g
     fill="#ff7f2a"
     stroke="#000"
     id="g32">
    <path
       d="M52.011 159.47c1.244.57 2.299 1.048 3.498 1.43 2.134-8.064 5.865-15.597 10.006-22.058l.718-.477s1.51-.858 1.63-.953c.119-.095.981-1.168 1.053-1.264.072-.095.695-1.978.719-2.193.024-.214.096-2.384.096-2.384v-.977l.359-1.788.216-2.218-3.52-.798-.021.893c-2.467 2.168-3.562 4.408-3.117 7.107l-.373 1.12-.033 1.887-.22-1.095c-4.529 7.533-9.338 15.916-11.011 23.768zM145.63 154.7l.847-.135 4.235-1.416 3.523-1.146 3.896-.978 4.167-.708 3.286-.506 4.438-.405.508-.742.203-1.213-.203-1.383-.78-1.079h-2.168l-4.471.742-5.285 1.012-3.964.91-3.421.978-2.304.91-2.913.978-.712.27-.914-.338-1.423-.168-.508.168-.238.54-.237.303h-2.845l-1.762.473-1.61 1.18-.067.893-1.186.37-.49.607v1.164l.643 1.213 1.389.91 2.354.49s1.847.117 1.931.117c.085 0 1.49-.522 1.49-.522s.848-.624.932-.691c.085-.068.44-.422.44-.422l1.051-.135 1.338-.421.542-.388-.05-.607-.475-.202zM101.49 173.37l-.237 1.753-.44 2.394-.373 2.9-.102 2.124-.068 3.776-.101 4.652.101 3.136-.27.573-1.288.135-.711-.068-1.355-.708-.34-.607.103-2.393 1.185-14.801.692-4.837.24-.452.48-.072-.097-.62-.79-.882.024-4.506.096-1.788.599-.858 1.197-.763.216-.071.072-1.216.431-.405.79.071 2.899 2.408.216 6.127-.551 1.597-.887 1.073-1.006.358-.934 1.073-.048.405.311.072z"
       id="path30"
       style="fill:#ffb380" />
  </g>
  <g
     fill="none"
     stroke="#000"
     id="g52">
    <path
       d="M219.78 81.693l3.114 1.264 3.785 1.358 3.425 1.12 3.474.883M63.002 136.4l.393.936.36.49s.502.333.646.333c.144 0 1.114.68 1.114.68M63.648 133.79l.358 1.803s.191.74.24.882c.047.143.335.549.455.549s.766-.263.766-.263l.527-.74.264-.81-.336-.953.36-1.073.43.023s.408.095.576.333c.167.239.493.99.493 1.11 0 .118.096 1.298.096 1.298l-1.643 2.408"
       id="path34" />
    <path
       d="M66.765 126.68l1.53.287s.574.263.622.453c.048.19.168.62.168.787 0 .167.071.643-.216.786-.287.143-.862.191-1.174.334-.311.143-.742.334-.862.453s-.431.405-.551.644c-.12.238-.288.739-.335.882-.048.143-.168.382-.216.62-.048.238-.216.596-.216.834s-.024.5 0 .668c.024.167.408.834.408.834M206.1 77.72l3.89.468 3.305.382 4.6 1.192 3.401 1.097 2.348.906 1.58.93 1.87 1.692"
       id="path36" />
    <path
       d="M53.897 177.08c-1.62-7.002-4.147-10.211-6.883-16.38-.518-6.607-.076-11.153.61-17.499l.644-4.147.915-3.945.846-4.045.678-2.833c1.455-12.306 14.171-27.266 22.8-27.14M97.567 176.27l1.15.81.67.239 1.145.336"
       id="path38" />
    <path
       d="M60.125 141.37l.455.596.48.429.694.453.503.5.479.406M98.525 170.95l.711.99 1.017.826.979.115M101.78 171.96l.457-1.703.017-1.82-.83-1.568-1.016-.86-.745.304v1.669l.762.64.102 1.433-.119.658-.423-.05-1.074-.401M99.659 166.31l.662-1.058s.743-.572.838-.62c.096-.047.551-.834.551-.977 0-.142-.072-.81-.167-.954-.096-.143-.575-.62-.575-.62l-.935-.62M149.84 149.02l.575.906s.216.524.287.787c.072.262.336.834.36 1.072.023.239.215 1.002.215 1.002M144.35 155.65s-1.317.62-1.437.644c-.12.022-1.725.119-1.725.119l-1.413-.668-.551-.572-.192-.834s-.024-.573.072-.596c.096-.023.695-.072.695-.072s.335.215.479.31c.144.095.766.381.766.381l1.797.263 1.054-.19.527-.573-.36-.81-.598-.716-2.271-1.04.982-1.012 2.338.505.987 1.595s.215.906.215 1.001c0 .095-.084 1.315-.084 1.315z"
       id="path40"
       style="fill:#ffb380" />
    <path
       d="M134.1 154.53l.311 1.073s.695.62.767.715c.072.095 1.006.548 1.126.548.12 0 .719 0 .91-.142.192-.143.527-.62.527-.763 0-.143-.287-.668-.36-.787-.071-.119-.143-.358-.071-.453.072-.095.36-.405.503-.476.144-.072 1.317-.453 1.317-.453"
       id="path42"
       style="fill:#ffb380" />
    <path
       d="M124.3 220.61a77.138 77.138 0 01-6.995-1.716c-3.576.172-5.23-1.076-6.755-3.863-.302-12.839-.546-21.743-1.174-34.211l-.598-11.086.047-8.821.336-6.15.335-3.1 1.198-4.578 2.252-4.482 3.162-3.91 5.461-4.195 6.324-3.004 8.336-3.385 14.564-2.909 18.828-3.958 17.774-3.623 15.475-3.29 11.594-2.241 9.39-.954 10.062-.429 3.928 1.001 2.875 1.192 2.443 1.955 2.348 2.623s1.629 2.384 1.725 2.813c.095.429.383 2.86.383 3.147 0 .286.527 1.478.623 1.86.095.381.191 2.765.191 2.765-.244 2.223-1.02 4.182-1.916 6.198"
       id="path44" />
    <path
       d="M248.246 129.074c1.709 1.518.82 4.063-.406 6.506-1.64-1.483-3.103-3.298-3.87-5.196-2.013.188-4.002.546-5.996.876l-2.316.643-3.409.672-5.288 1.183-15.04 3.503-10.013 2.289-10.827 2.574-7.761 1.383-12.794 2.554M247.738 135.953c-7.816 3.635-15.562 4.885-24.072 7.415-12.796 3.804-21.75 5.847-34.255 8.678l-6.755 1.288-9.438 1.573c-8.615 1.634-15.022 2.802-23.043 4.435-3.318.55-9.129 1.586-12.105 1.957-5.885.733-11.424.86-17.313-1.004-4.45-1.164-7.796-2.681-11.525-4.739"
       id="path46" />
    <path
       d="M117.09 159.13c-.022-1.787.61-3.626 1.916-4.196 2.457 1.28 3.556 3.713 4.207 5.851-2.184-.046-4.348-1.006-6.123-1.655zM118.98 154.88l3.21-.453s4.575-.93 4.91-1.001c.336-.071 5.031-.978 5.031-.978l4.452-.688"
       id="path48" />
    <path
       d="M87.328 209.48l-.576-1.517-.237-3.136-.034-7.45.102-6.676v-7.755l.508-6.575.373-8.968v-4.518l.067-7.046.068-6.743-.033-6.575.169-4.416.61-4.383.948-4.08.915-4.383 1.22-2.259 2.303-2.798 2.236-2.462 2.067-1.719 3.489-1.079 5.454-1.686 5.058-1.123 6.277-1.478 10.157-1.62 6.898-1.718 9.726-1.716 9.007-1.383 9.007-1.669 5.51-1.144 7.665-1.478 5.989-.953 5.174-.668 6.084-1.43 8.384-1.86 10.923-2.575 6.229-1.144 7.953-.477s5.413-.048 5.605-.048c.191 0 4.072.382 4.072.382l2.875 1.335 1.533 2.003 1.198 2.288.479 1.43.111 8.37M100.85 45.138l.957 1.18.322.86.27 1.584.069.641M81.95 50.035c2.831 2.818 7.808 3.869 10.798 2.352 2.393-2.393 1.644-4.395-1.084-5.816"
       id="path50" />
  </g>
  <g
     stroke="#000"
     id="g60">
    <path
       d="M91.75 49.486c-.247.716-.585 1.43-.932 2.073-1.49.403-3.063.149-4.404-.285-1.904-.931-1.536-1.56-.045-1.974 1.762-.746 3.419-.403 5.38.186z"
       fill="#1a1a1a"
       id="path54" />
    <path
       d="M81.792 73.003l1.555-1.196 2.118-1.264 1.609-.675 1.575-.303 1.321.068.881.421.56.894.423 1.23-.508 1.052"
       fill="none"
       id="path56" />
    <path
       d="M87.633 70.644c1.589.116 1.817.11 2.422 1.281-1.622 1.676-4.418.961-5.928.236a10.183 10.183 0 013.506-1.517z"
       fill="#1a1a1a"
       id="path58" />
  </g>
  <g
     fill="none"
     stroke="#000"
     id="g68">
    <path
       d="M100.62 72.896l.228-1.931M31.859 58.854l.455-2.098.431-1.12.695-1.193.91-.905 1.15-.716 1.342-.786 1.15-.549 1.532-.381 1.246-.382M96.848 207.56l-1.03-1.255-.287-2.408.12-9.465.43-12.683-.095-10.585.335-6.437 1.102-4.386v-8.154l.916-11.417 1.22-5.53 2.1-5.528 2.642-4.114 3.327-3.402 4.36-2.67 8.576-2.48 17.104-4.243 10.444-1.764 14.42-2.384 10.54-1.43 13.176-2.098 9.39-1.717 9.103-2.193 7.905-1.43 5.461-1.05 5.75-.095 6.323.858 3.929 1.097 3.929 2.241 2.539 2.86"
       id="path62" />
    <path
       d="M25.391 89.87l-2.324-3.254-2.826-5.71-.575-1.573-.144-3.481.24-2.623 1.533-3.528 2.347-2.908 3.594-2.861 5.844-4.435 2.108-1.883.527-1.43-.047-.906"
       id="path64" />
    <path
       d="M23.643 66.793l-3.521 3.48-1.869 3.696c-.645 2.962-.838 6.406-.016 8.891-.344 1.318-.9 2.133-1.724 3.171M27.874 102.49s.32 1.186.368 1.305c.048.12.886 1.049.886 1.049l1.437 1.383 1.869 1.74s1.485 1.097 1.605 1.192c1.437 1.019 2.118 1.67 1.605 3.123-6.511 11.97-3.574 8.382-15.45 25.724M78.93 50.104l.886.167.6.691.263 1.216.12 2.766-.072 5.626-.384 6.437-.55 3.934-.623 2.217-.48 1.12-.359.406-.752.45M100.2 210.12l.711-.674.305-2.765.271-5.226.133-8.482.105-7.263.228-11.669"
       id="path66" />
  </g>
  <path
     d="M195.54 193.72l2.204-.572 3.976-1.097 4.504-1.669 9.198-3.099 5.941-2.24.431.38v.859l-.479 4.768-.91 3.052-.719.476-6.611 2.48-3.545 1.144-3.977 1.478-4.983 1.621-4.072 1.288-.575-.238-.191-3.529z"
     fill="#fff"
     stroke="#000"
     id="path70" />
  <g
     fill="none"
     stroke="#000"
     id="g78">
    <path
       d="M196.88 194.74l.287 6.127 1.989-.596.43-.525s.192-.643.192-.739c0-.095-.024-.548-.12-.596-.095-.047-.31-.476-.454-.524-.144-.048-.36-.143-.48-.143h-.43l.263-.263s.263-.286.263-.405c0-.12.024-.43.024-.716s.024-.524-.071-.715c-.096-.19-.384-.715-.384-.715s-.215-.167-.335-.191c-.12-.023-1.174 0-1.174 0zM200.63 198.37l.407.667s.216.406.431.406h.575c.096 0 .767-.334.815-.43.048-.094.383-.69.383-.786 0-.095-.36-1.192-.36-1.192s-.598-.739-.718-.739-.814.023-.91.095c-.096.072-.407.358-.407.358l-.312.74zM205 195.53l-.886.286s-.144.358-.144.548c0 .191.072.692.072.859 0 .167.383.882.479 1 .096.12.263.168.431.192.168.022.797-.137.94-.28.145-.143.665-.745.665-.984 0-.238.096-.763-.12-.953-.215-.191-.43-.501-.623-.549-.191-.048-.712-.119-.712-.119zM206.92 194.46l1.126 3.314-.335-2.575.503-.453.599.215s.31.476.335.643c.024.167.49 1.454.49 1.454l-.61-2.217s-.048-.262.096-.334c.144-.071.383-.214.575-.214.191 0 .55.047.67.214.12.167.456.906.528 1.097.071.19.362.913.362.913M211.81 194.96l2.3-.939s-.072-.796-.13-.824c-.056-.027-.613-.171-.813-.157-.2.012-.757.143-.9.256-.143.114-.428.655-.428.74 0 .085-.115.74-.028.924.085.185.457.697.642.726.186.026 1.657-.313 1.657-.313l.443-.341M214.45 191.92l1.457 2.967-.796-2.377c.651-.803 1.123-.972 1.643-.32.05.118.101.32.101.32"
       id="path72" />
    <path
       d="M218.75 189.86c-2.022.679-.443 1.55.39 1.045M218.943 189.2c.827.578.948 1.136.857 1.57-.126.604-.786.986-1.653.993-.085 0-.78-.185-1-.456-.35-.45-.361-.761-.186-1.28.468-1.073 1.305-1 1.982-.827z"
       stroke-width=".5"
       id="path74" />
    <path
       d="M104.74 175.57l1.042.654.982.334h2.324"
       id="path76" />
  </g>
</svg>
