<?xml version="1.0" encoding="UTF-8" standalone="no"?>
<svg
   xmlns:dc="http://purl.org/dc/elements/1.1/"
   xmlns:cc="http://creativecommons.org/ns#"
   xmlns:rdf="http://www.w3.org/1999/02/22-rdf-syntax-ns#"
   xmlns:svg="http://www.w3.org/2000/svg"
   xmlns="http://www.w3.org/2000/svg"
   xmlns:sodipodi="http://sodipodi.sourceforge.net/DTD/sodipodi-0.dtd"
   xmlns:inkscape="http://www.inkscape.org/namespaces/inkscape"
   cursor="default"
   version="1.1"
   viewBox="0 0 256 256"
   id="svg238"
   sodipodi:docname="sandals.svg"
   inkscape:version="0.92.3 (2405546, 2018-03-11)">
  <defs
     id="defs242" />
  <sodipodi:namedview
     pagecolor="#ffffff"
     bordercolor="#666666"
     borderopacity="1"
     objecttolerance="10"
     gridtolerance="10"
     guidetolerance="10"
     inkscape:pageopacity="0"
     inkscape:pageshadow="2"
     inkscape:window-width="1920"
     inkscape:window-height="1017"
     id="namedview240"
     showgrid="false"
     inkscape:zoom="5.2149125"
     inkscape:cx="191.96928"
     inkscape:cy="148.84074"
     inkscape:window-x="1358"
     inkscape:window-y="-8"
     inkscape:window-maximized="1"
     inkscape:current-layer="svg238" />
  <metadata
     id="metadata2">
    <rdf:RDF>
      <cc:Work
         rdf:about="">
        <dc:format>image/svg+xml</dc:format>
        <dc:type
           rdf:resource="http://purl.org/dc/dcmitype/StillImage" />
        <dc:title />
      </cc:Work>
    </rdf:RDF>
  </metadata>
  <g
     stroke="#000"
     stroke-width="1px"
     id="g16">
    <path
       d="m130.01 95.834-3.0681-1.7258-6.328-3.8352-9.54-4.8898-8.869-3.9319-8.3729-2.678-5.0847-1.0508-4.7119-0.37288-2.8814 0.13559-1.3559 0.84746-0.94915 1.3898-0.50848 1.9322-2.1017 9.0847 0.61017 2.4068 1.6949 2.7119 5.4237 5.8305 7.5932-0.0339 8.6102-2.7797-4.9831-2.8475-4.678-2.7119-3.7966-2.6102-1.4146-1.7262 1.0417 0.37026 3.5593 0.88136 4 1.322 4.1356 1.4576 5.2203 2.1017 3.6271 1.4237 5.1186 2.5424 5.6271 2.983 5.9661 3.6949 6.1017-7.5254z"
       fill="#ff8080"
       id="path4" />
    <g
       id="g12">
      <path
         d="m234.82 162.84-0.37288-0.88136-1.4576-1.0847-21.864-8.1695-3.2203-0.40678-3.5593 0.0678-9.661-3.6271-17.066-2.617-5.6089-2.397-17.461-2.1725-60.881-7.3898-14.305 1.3559-7.5254 3.3898 3.661 5.4237 88.362 18.473 27.805 9.1085 19.368 1.7258 22.915-4.5063z"
         fill="#f55"
         id="path6" />
      <path
         d="m208.41 149.35-2.7119 1.9661-1.3559 1.0508-10.814-4.1017 2.4407-2.0678 10.102 0.20339z"
         fill="#ff2a2a"
         id="path8" />
      <path
         d="m172.94 143.99 6.352 2.8764 4.3625-3.8831-1.5341-2.373-4.6022-1.5341z"
         fill="#ff2a2a"
         id="path10" />
    </g>
    <path
       d="m108.43 128.15 2.1695 2.7458 2.2132 2.6589s1.5254 2.5424 1.661 2.7458c0.1356 0.20339 1.1703 3.315 1.1703 3.315"
       fill="none"
       id="path14" />
  </g>
  <g
     fill="#ff2a2a"
     stroke="#000"
     stroke-width="1px"
     id="g22">
    <path
       d="m189.39 170.16 5.6949 0.1356 9.4237 0.40678h8.4746l6.1695-0.1356 6.7797-1.4237 4.678-1.0848 3.2542-2.2373 0.94915-2.983 0.27118 7.1864-2.1695 1.9661-4.6102 2.0339-7.0508 1.4237-6.6441 0.61017-8.339-0.13559-10.373-0.67797-4.2034-0.0678-3.8644-0.54237z"
       id="path18" />
    <path
       d="m71.902 141.08 2.7119 0.74576 4.6102 0.61017 4.3051 0.71186 2.9153 0.20339-5.2542 6.4746-13.288-3.4576 1.5932-4.2712z"
       id="path20" />
  </g>
  <g
     stroke="#000"
     stroke-width="1px"
     id="g42">
    <path
       d="m210.41 169.04s1.8305 0.30508 2.1017 0.30508h3.0848c0.20339 0 5.1525-0.44067 5.1525-0.44067s4.5424-1.2542 4.7458-1.322 3.3559-1.8644 3.3559-1.8644l3.2203-2.6441 0.84745-1.5593 0.23729-2.678-0.98305-3.3559-2.5763-3.0848-2.3051-1.8983-1.2881-0.91526-0.81356-1.8644-1.322-1.6271-2.9153-1.7288-2.1356-0.91525-7.2542-2.9492-4.5424-2.1695-3.1864-1.7966-5.1864-2.8136-3.3898-2.2712-3.2881-2.4068-1.5254-0.91525-1.5008-0.40338-0.80433-0.68137-2.4068-1.9322-1.5254-0.94916-4.2034-3.4576-3.4576-2.5424-2.0339-1.6271-2.4746-0.88136-1.017-0.20339-1.9322-2-2.8474-2.3729-2.9492-2.5085-2.7119-2.4068-1.7966-1.7966-2.8136-2.1017-1.7627-2.339-3.6271-4.5085-3.2542-3.7966-2.3051-2.339-1.7966 0.13559-3.8644 0.98305-4.678 1.7288-4.678 2.6102-1.2542 0.74576-0.44068 0.81356 0.30509 1.1864-1.1525 1.2203-1.4915 1.8305-2.2034 2.8814-1.2881 2.6102-1.5378 2.7242-3.1529-1.7479-6.328-2.8764-2.9722-1.2944 1.1026 3.2119 8.4853 11.026 7.143 6.0883 4.9378 1.2464 3.164-10.211-0.67115-0.86291 0.71909-1.1506 1.8217 1.1026 2.9722 2.2532 1.7738 1.2464 1.2464 0.62321-0.71909 4.5542-0.52733 4.6981-0.95879 5.6089 9.7317 7.7662 3.931 0.14382 1.6779-3.212 0.2397-1.1026 2.2532-1.9176 1.6779 0.28764 2.5887 0.91084 1.7738 1.0067-3.164 2.7805-2.397 2.9243-1.4382 2.4928 6.4718 6.7115 6.0883 0.43145 1.8696-3.0442 2.1333-2.7326 2.7086-2.397 2.4209-1.7977 1.7258-0.95879 0.93481 0.35954 0.97866 0.52805 1.5621 0.57456-3.6913 3.0921-2.1093 2.6846-1.3423 1.7738-1.2944 2.0614-0.67116 1.5341-0.58247 1.7055 1.2057 3.7596 13.854 6.8074 1.1505-1.3423 0.19176-4.794 1.3902-3.6913 2.5408-4.8419 2.4614-2.9359 1.3978-1.4266 1.2602-0.27077 3.8454 1.7089 3.4996 1.6299 3.2119 2.2532 2.4928 2.2052 1.5341 2.1573 0.71909 1.8696-0.14382 2.4928-0.62321 2.7326-0.62322 2.5408-1.3423 2.397z"
       fill="#ff8080"
       id="path24" />
    <g
       fill="none"
       id="g36">
      <path
         d="m128.75 95.486 2.4746 0.67797 3.8305 2.7458 2.5424 2.9831 1.5254 2.8475 0.91526 2.5424 1.4915 5.1864 1.1864 6.6441 0.84746 6.4068"
         id="path26" />
      <path
         d="m139.31 130.81 1.9176-2.5408 2.3331-2.7459 2.8923-2.3357 3.4277-2.0854 2.5648-0.86291 0.47939-0.21573 1.582 0.91085 2.5168 2.5648 3.4277 4.3146 1.2208 2.2709-2.7725 1.3369-3.1695 2.2034-2.678 2.5763-2.4746 2.8814"
         id="path28" />
      <path
         d="m162.85 136.15 2.6367-2.2532 3.3797-1.6539 2.9483-1.0547 2.8524 1.0067 3.4277 2.0854 3.164 2.6846 2.5418 1.8953-1.8905 0.36366-2.5689 1.0488-1.7977 1.2464"
         id="path30" />
      <path
         d="m140.27 107.39 3.4516-1.4382s4.4344-1.5341 4.5782-1.582c0.14382-0.0479 3.5955-1.0547 3.5955-1.0547l3.0442-0.64718 1.2464-0.2397"
         id="path32" />
      <path
         d="m205.2 137.37-5.2973-0.11985-1.7498-2.9003-2.5168-2.1333-2.9722-1.9895-5.5111-2.5406 1.1606-0.40767"
         id="path34" />
    </g>
    <path
       d="m128.61 97.486 3.8305 1.1186 2.5424 2.4068 2.2712 2.8814 1.3898 2.2712 0.74576-0.40676-0.27119-1.017-1.5254-2.8475-2.5424-2.9831-3.8305-2.7458-2.4746-0.67797z"
       fill="#ff2a2a"
       id="path38" />
    <path
       d="m159.88 131.34-0.60304 1.1166 1.7966 0.54237 1.2373 0.55932 1.7458 1.4915-1.2039 1.1065-1.7738-1.0067-2.5887-0.91084-1.6779-0.28764-1.0778-0.32505 3.1695-2.2034z"
       fill="none"
       id="path40" />
  </g>
  <g
     stroke="#000"
     stroke-width="1px"
     id="g48">
    <path
       d="m193.68 174.26 0.44663 0.73076-1.741 3.8714-22.436 3.3078-40.94 0.14382-38.927-4.794-20.326-6.7595-21.86-9.0606-23.586-8.1976-3.5715-1.3902-0.76437-2.8331 0.42879-0.78635 2.4449-1.0307 4.4344-0.93482 3.0561-0.53932 6.0284-0.99474 5.0097-0.57527 2.4689-0.28764 2.7086-0.14382 4.2906 0.14382 3.955 0.024 12.177 0.98276 4.8179 0.791 4.77 1.0307 4.8659 1.4142 13.974 5.9685 4.0749 1.7738 19.943 3.5236 3.931 1.1985 19.486 3.408 6.8474 1.1017 2.4068 0.49153 5.5593 1.322 2.0664 0.6234 2.2217-0.40309 2.8136 0.57627 7.9322 1.2542 18.267 3.6722z"
       fill="#f55"
       id="path44" />
    <path
       d="m137.46 150.03-1.9322-3.2203-3.5593-3.2542-4.5085-2.678h-1.8983"
       fill="none"
       id="path46" />
  </g>
  <g
     stroke="#000"
     stroke-width="1px"
     id="g62">
    <path
       d="m61.698 106.81 3.0681 1.4382 3.5955 1.6299 2.6846 1.1985 5.4651 3.0681 9.7317-9.8276-4.9857-2.8284-7.6703-3.931-6.6636-3.164-6.1362-2.397-6.2321-2.349-4.5542-1.4861-4.0269-1.1026-2.0135-0.47939-2.397-0.04794-0.64718 0.52733-1.0067 2.2292-4.6981 9.8276v1.2944l0.38352 0.83894 3.8352 4.9378 3.8352 3.7872 4.1228 3.5475 4.3146 3.5475 5.8726 4.9138 6.3999 5.0097 7.9604-10.662-1.4237-1.6949-3.8983-2.8814-2.7119-2.3051-2.4746-2.0678z"
       fill="#ff8080"
       id="path50" />
    <g
       fill="#ff2a2a"
       id="g58">
      <path
         d="m159.71 167.79 1.8827-1.5556 1.4237-2.2373-12.915-5.1864-6.5763 2.7119-1.1864 2.678 7.1186 1.1186 6.2373 1.4237z"
         id="path52" />
      <path
         d="m117.16 158.78c0.52733 0.28764 7.958 2.7326 7.958 2.7326l10.355-6.1362-2.7805-6.7595z"
         id="path54" />
      <path
         d="m93.597 153.38s4.5085 2.5424 5.3898 2.2034c0.88136-0.33898 10.746-7.4576 10.746-7.4576l0.47458-2.4407 2.3729-2.5085-2.3729-1.8983z"
         id="path56" />
    </g>
    <path
       d="m93.325 154.4s5.5254-4.1356 5.8305-4.3051c0.30509-0.16949 7.7288-5.1864 7.7288-5.1864l7.4915-4.2373"
       fill="none"
       id="path60" />
  </g>
  <g
     stroke="#000"
     stroke-width="1px"
     id="g104">
    <g
       id="g76">
      <path
         d="m66.78 166.93 5.3692 2.6846 4.746 1.7738 5.4651 1.7258 10.978 2.8764 8.5812 1.2464 9.6838 1.2464 8.9647 0.76703 8.677 0.43146 6.5677 0.28763 18.313 0.2397 10.259-0.38351 8.5812-0.33558 6.6156-0.4794 3.7872-0.52733 5.0336-0.81497 2.7326-0.62321 2.397-1.0547 0.45486-0.36794 0.13559-0.62712 0.0678 4.3898-0.49153 0.91526-1.5424 1.1864-2.1186 0.94915-2.7797 0.83051-3.9153 0.57627-3.7458 0.44068-4.1525 0.38983-6.5593 0.37288-8.2373 0.30508-7.1186 0.1356h-7.661l-8.3729-0.1017-7.5593-0.13559-7.7627-0.40678-5.8305-0.50847-11.593-1.4237-6.4746-0.84746-4.2373-0.64407-5.5254-1.2542-5.2881-1.3898-5.8644-1.7627-4.7458-1.8983-3.9661-1.8305-4.8814-2.1017-3.0508-1.3898-5.1525-1.661-4.5085-1.5254-5.8305-1.7966-0.0339 2.8136-5.6271-1.7288-6.7119-2.4746-4.8475-1.7966-1.8305-0.47458-2.7458-0.37288-2.0678-0.94915-1.5593-1.4915 0.0339-8.7458 0.13559-0.30508s0.57627 0.61017 0.74576 0.71186c0.16949 0.1017 4.4746 1.9661 4.4746 1.9661l5.0508 1.8644 6.6102 2.0678 4.9492 1.6949 5.7966 1.7627 3.1186 1.3898 5.2203 2.1695 4.3729 1.4576 3.5932 1.5593z"
         fill="#ff2a2a"
         id="path64" />
      <path
         d="m 150.05,159.98 3.6434,1.1505 4.6022,1.7738 4.3514,2.6517 2.2712,1.7288 1.1186,1.4915 1.017,2 0.0678,2.2034 -0.0339,2.9492 -0.33898,1.322 -0.91525,1.0508 -0.0678,0.33898 1.661,0.1017 2.2373,0.10169 2.3729,-0.10169 5.2203,-0.23729 5.2542,-0.77966 2.8475,-0.50848 2.5424,-0.88135 1.6271,-0.91526 0.84746,-0.98305 0.44068,-1.1864 -0.61017,-5.9661 -1.1864,-2.1356 -2.2034,-1.8983 -3.5254,-2.0339 -2.3051,-0.98305 -1.4915,-1.8983 -2.6102,-2.1356 -2.6441,-1.5593 -5.9322,-2.7458 -2.6102,-1.4576 -0.1356,-0.94915 -0.94915,-1.5593 -1.322,-1.1186 -1.3898,-0.71186 -3.4915,-1.9322 -6.1356,-3.661 -3.8644,-2.6102 -0.75663,-0.1829 -1.1026,-0.0959 -0.59924,-1.2704 -1.9416,-1.7977 -1.7018,-1.0786 -2.7326,-2.4928 -0.81497,-0.3116 -2.8524,-2.1093 -3.0921,-1.9895 -3.4996,-2.0374 -1.2225,-0.50337 -1.7977,-1.6779 -4.1468,-4.4823 -2.0854,-1.8696 -0.93482,-0.88688 -0.21573,-1.3902 -0.98276,-1.8696 -1.7018,-1.5101 -4.0748,-3.2359 -0.43146,-0.35955 -1.2464,-2.2771 -1.4861,-1.7738 -1.582,-2.3011 -1.8457,-1.534 -0.67116,-0.43146 -0.95879,0.07191 -2.2771,0.28764 -3.3558,0.04794 -3.7872,0.31161 -3.0442,0.62321 -3.188,0.88688 -0.83894,0.40748 -2.5569,5.3072 -9.8454,5.189 -1.5364,0.9981 -2.461,2.545 -8.4284,10.827 -1.1525,1.8644 -1.7966,2.2373 -1.7288,2.7797 -1.1186,1.5593 -0.71186,1.3559 -0.30508,0.88135 v 0.81356 l 0.33898,1.0508 0.88136,1.2203 -2.1695,3.322 -0.84746,1.1186 -2.7119,5.0169 -1.661,4.3051 -0.30508,1.3898 0.16949,1.2881 0.37288,0.81356 0.50847,0.88135 0.71186,0.64407 0.30508,0.40678 11.119,4.1017 0.40678,-0.33898 -0.16949,-0.91525 -1.6949,-1.8644 -0.13559,-2.6102 0.23729,-1.7966 2,-4.8475 2.983,-5.5254 0.40678,-0.64407 1.9322,0.40678 0.91526,0.47458 6.4068,-7.8305 0.33898,-0.23729 0.81356,0.13559 0.88136,0.0678 0.44068,-0.16949 7.8644,-11.424 -0.77966,-0.88136 0.1017,-0.47457 0.57627,-0.61017 1.661,-1.3898 1.0508,-1.322 3.322,1.8983 3.9661,2.2373 0.37288,0.61017 0.23729,0.50847 1.7966,1.1864 0.0678,4.6102 -2.3729,1.322 -3.6949,2.7119 -5.2203,4.4746 -3.1864,3.0508 -3.3312,3.9382 -3.7632,4.6262 -2.4689,2.7805 -1.2225,1.8457 -0.64718,1.9655 -0.47939,2.1093 0.04794,4.0269 0.64718,1.7977 0.88688,1.3183 5.7527,2.349 2.4929,0.64719 2.6846,0.28763 0.81497,-0.45542 -0.40748,-0.76703 -1.3423,-0.91085 -0.81497,-1.3183 -0.09588,-1.1026 0.64718,-1.8217 2.6606,-3.2839 2.9243,-2.9483 3.7393,-3.2359 5.3213,-4.0749 3.9071,-2.9003 4.6501,-3.164 3.6194,-2.0374 2.7326,0.91085 -2.2052,1.7258 -4.0269,2.7086 -3.4996,2.9243 -3.6434,3.0681 c -5.959762,5.25379 -10.622184,10.40382 -10.25923,18.2169 l 15.628,3.212 0.33558,-1.0547 -0.38352,-1.2944 0.14382,-2.349 1.4382,-2.4449 1.582,-1.9176 5.9924,-4.7939 5.0336,-3.2119 7.3145,-3.9819 5.1186,-2.3729 0.98305,-0.35593 0.54237,0.69491 -3.1864,1.8136 -3.7627,2.5254 -2.7119,2.1017 -2.678,2.2373 -1.9661,1.8983 -2.0339,2.4407 -1.9661,2.8136 -1.1864,2.0678 -0.54237,1.7627 v 4.6441 l 19.254,1.6271 0.54238,-3.1864 1.7966,-3.9322 1.5932,-2.7119 2.4068,-2.3729 3.1864,-2.6102 2.8474,-2 2.2034,-1.017 z"
         id="path66"
         inkscape:connector-curvature="0"
         style="fill:#ff8080"
         sodipodi:nodetypes="ccccccccccccccccccccccccccccccccccccccccccccccccccccccccccccccccccccccccccccccccccccccccccccccccccccccccccccccccccccccccccccccccccccccccccccccccccccccccccccccccccccccccccccccccccccccccccccc" />
      <path
         d="m132.55 152.45 1.5888-1.2233 3.0921-1.4861-2.349-2.7565-3.5235-3.188-4.3625-2.8764-1.8696-0.11985-3.955 0.21573-2.3011 0.69512-2.7326 1.1985-3.14 1.4622"
         fill="none"
         id="path68" />
      <path
         d="m120.5 138.24c0.0959-0.0479 2.7565-1.0067 2.7565-1.0067l5.1056-1.2464 5.1056-0.98275 3.4037-0.45543 2.349-0.024 0.95879 0.19176-0.71909 0.62321-1.1985 0.38352-3.7153 0.62321-5.0336 0.91085s-4.4584 0.69512-4.5542 0.71909c-0.0959 0.024-2.4449 0.55131-2.4449 0.55131h-1.3423z"
         fill="#ff2a2a"
         id="path70" />
      <path
         d="m126.9 125.22-0.88688-0.40749-3.188-0.26366-3.7632 0.47939-4.8419 1.2704-2.072 0.99862 7.7768 10.747"
         fill="none"
         id="path72" />
      <path
         d="m140.46 133.99-1.4861-0.43146-2.6606-2.2052-2.4209-1.9176-2.9962-1.8696-2.5887-1.582-1.4142-0.76703-0.0479-0.40749s0.52733-0.21572 0.71909-0.16778c0.19176 0.0479 1.3663 0.52733 1.3663 0.52733l3.2599 1.9895 3.5475 2.397 2.8524 2.2292 1.7258 1.5341z"
         fill="#ff2a2a"
         id="path74" />
    </g>
    <g
       fill="none"
       id="g84">
      <path
         d="m98.512 132.23 4.0339-2 5.8886-2.0826 7.2139 11.465-2.3193 2.2421-3.0681 1.606"
         id="path78" />
      <path
         d="m95.999 116.16 2.0854-0.93482s5.3932-1.0547 5.537-1.0547 6.0164-1.0067 6.0164-1.0067l4.4344-0.45542 2.0254 0.19175"
         id="path80" />
      <path
         d="m66.546 144.43 1.9837-3.5852 2.4209-3.8112 1.6779-2.349"
         id="path82" />
    </g>
    <path
       d="m66.546 144.43 1.9322 0.40678 0.91526 0.47458 6.7458-8.0678-3.5107-2.559-1.7266 2.4065-2.3729 3.7797z"
       fill="#ff2a2a"
       id="path86" />
    <path
       d="m87.698 122.5-1.661 1.3898-0.67797 1.0847-2.6499-1.5814 8.6453-5.8317 3.2137-2.7482 0.75704 0.56804 1.661 2.1017 1.3559 6.2712 0.1017 3.8644-1.7966-1.1864-0.61017-1.1186-7.2881-4.1356z"
       fill="#ff2a2a"
       id="path88" />
    <g
       fill="none"
       id="g100">
      <path
         d="m131.09 139.72s2.6102 1.7966 2.8136 1.8644c0.20339 0.0678 3.2203 2.5085 3.2203 2.5085l2.7119 2.8814 1.3718 1.3989"
         id="path90" />
      <path
         d="m130.99 140.03 1.7627-0.77966 4.1017-0.40678 2.9886-0.34105s3.188 0.69513 3.4516 0.79101c0.26366 0.0959 3.4756 2.0614 3.4756 2.0614s3.3797 2.397 3.5475 2.5168c0.16779 0.11984 3.0442 2.6367 3.0442 2.6367"
         id="path92" />
      <path
         d="m156.35 118.8 0.19122-0.15923 4.4068-1.7627 3.0848-0.77966 3.322-0.30509h2l0.87002 0.46401"
         id="path94" />
      <path
         d="m199.91 137.25 1.9264 0.57052 1.8983 0.88136s1.3559 0.64406 1.6949 0.91525c0.33898 0.27119 2.2373 1.6271 2.2373 1.6271l1.6949 1.322 1.766 1.3713"
         id="path96" />
      <path
         d="m165.77 178.64 1.3559-1.1864 0.61017-1.322v-5.7288l-1.7966-3.017-2.3051-2.1695-5.661-3.1525-6.0339-2.3729"
         id="path98" />
    </g>
    <path
       d="m62.512 162.98-1.2542-1.4237-1.4915-1.7966-0.40678-2.1356 0.57627-2.6441 2-4.339 2.339-4.4068 2.4407-3.8305 1.8983-3.2203 3.2203-4.5424-1.4237 2.9492s-3.0169 4.9492-3.2203 5.1864c-0.20339 0.23729-4.0339 7.8305-4.0339 7.8305l-2 4.8475-0.23729 1.7966 0.13559 2.6102 1.6949 1.8644z"
       fill="#ff2a2a"
       id="path102" />
  </g>
  <g
     id="g108">
    <path
       d="m70.614 110.67 9.3898-6.8475 2.1356-1.7288 1.7288-1.2542 1.1864-0.71186 0.54169-0.1725 0.52733 0.04794 1.0307 0.791 9.9342 9.7742 0.23729 0.33899 0.27119 0.61017-0.1017 0.50847-0.35593 0.57627-0.40678 0.30509-2.0882 1.8821-3.2893 2.7726-7.6884 5.2758-0.95688 0.55591-1.0421-0.15661-0.76562-0.66874-10.322-10.39-0.18644-0.61017z"
       fill="#ffe6d5"
       stroke="#000"
       stroke-width="1px"
       id="path106" />
  </g>
  <g
     fill="#1a1a1a"
     stroke="#000"
     stroke-width="1px"
     id="g114">
    <path
       d="m81.797 120.6 1.7758 0.0603 1.0225-0.35544 1.2885-0.51981 1.7977-1.1985 1.3183-1.0786 1.1985-0.95879 0.98276-1.1266 0.59925-0.88688 0.21572-0.57527-1.4142-1.2464-5.561 1.4622-3.0921 2.5887-0.04794 1.7738z"
       id="path110" />
    <path
       d="m81.325 105.47 1.7797-1.5932 0.55932-0.28814h0.74576l1.0339 0.62712 3.3559 3.322 2.661 2.7458 1.2881 1.2034 0.52542 0.55932 0.1695 0.54237-0.76272 0.54238-1 0.74577-7.1186-3.1864-2.8983-2.6441z"
       id="path112" />
  </g>
  <g
     stroke="#000"
     stroke-width="1px"
     id="g120">
    <path
       d="m92.647 112.88-3.1186-3.1356-0.49153 0.27119-0.79661-0.1017-0.64406-0.37288-0.61017-0.30508-0.0339-0.25424 0.22034-0.23729 0.67797-0.45762-3.685-3.7246c-8.4594 1.1262-11.284 7.1901-11.284 7.1901l8.0538 8.4733 0.43146 0.2397 1.1108-0.19349s1.9415-6.0164 9.2272-6.6063z"
       fill="#ff8080"
       id="path116" />
    <path
       d="m80.301 111.62 0.4794-0.19175 0.37153 0.0479 0.29962 0.19175s0.05992 0.35955 0.05992 0.41947c0 0.0599-0.10786 0.37154-0.1558 0.41947-0.04794 0.0479-0.22771 0.15581-0.27565 0.15581s-0.41947 0.012-0.47939-0.024c-0.05992-0.036-0.31161-0.26367-0.31161-0.26367l-0.13183-0.32359 0.03596-0.32359z"
       fill="none"
       id="path118" />
  </g>
  <g
     id="g124">
    <path
       d="m87.885 108.54 2.8136-2.0508 1.661 1.4915-2.7966 2.017-1.2881 0.16949-1.2542-0.67796-0.0339-0.25424z"
       fill="#ffe6d5"
       stroke="#000"
       stroke-width="1px"
       id="path122" />
  </g>
  <g
     stroke="#000"
     id="g236">
    <path
       d="m180.99 160.23-1.8983-0.54237-3.0169-1.4576-2.678-0.94915-3.6949-1.017-2.4068-0.77966 0.91526-0.57627 3.7966-0.40678 1.0508 0.37288 1.1864-0.23729 2.6441 1.5593 2.6102 2.1356z"
       fill="#ff2a2a"
       stroke-width="1px"
       id="path126" />
    <path
       d="m165.7 150.43-3.5191-1.9389-2.3251-0.2397-0.95878-0.26366-1.9176-1.4861 1.2944-0.35954 1.7258-0.14382 1.1745 0.33557 2.1191 0.46905 1.322 1.1186 0.94915 1.5593 0.1356 0.94915"
       fill="#ff2a2a"
       stroke-width="1px"
       id="path128" />
    <g
       fill="none"
       stroke-width="1px"
       id="g136">
      <path
         d="m61.427 107.38-2.9831-2.1017-6-4.7458-4.1356-3.2881-4.0339-3.8305-2.6441-2.8136-0.74576-1.4915 0.03162-2.0513"
         id="path130" />
      <path
         d="m61.698 106.81-4.4066-3.3269-4.8475-4-3.8305-3.2542-3.7627-3.4237-1.8983-2.2373-0.88136-1.5254-0.16949-1.1864 0.61017-0.57627 1.4487-0.70014"
         id="path132" />
      <path
         d="m98.444 127.62-0.1017-3.8644-1.3559-6.2712-1.661-2.1017-0.75704-0.56804"
         id="path134" />
    </g>
    <path
       d="m119.13 115.11-3.0322-2.2052 0.61123-0.53932-0.94681-0.87489-0.92283 0.1558-0.56329-0.65916 2.5168-0.17978 1.1386 1.0427 0.98276 1.8696 0.21573 1.3902"
       fill="#ff2a2a"
       stroke-width="1px"
       id="path138" />
    <path
       d="m146.55 137.61-0.77635-0.0687-0.57628-0.12714-1.9237-2.178 1.2881-0.20339 1.389 1.3067z"
       fill="#ff2a2a"
       stroke-width="1px"
       id="path140" />
    <g
       fill="none"
       stroke-width="1px"
       id="g148">
      <path
         d="m57.02 139.69 1.7288 2.0339 2.4746 2.0339 2.3051-0.20339 2.9153-2.0678 2.8136-4.4068 7.0847-8.3051 3.7966-4.5424 0.98305-1.322"
         id="path142" />
      <path
         d="m76.139 137.25-2.0965-1.3605-2.2052-1.8936"
         id="path144" />
      <path
         d="m85.359 124.98-2.1124-0.93038-1.5796-0.80761"
         id="path146" />
    </g>
    <path
       d="m141.61 148.52 1.1026 0.50336s2.0374-0.40748 2.2292-0.47939c0.19176-0.0719 2.7565-0.50337 2.9483-0.5513 0.19176-0.0479 2.2532-0.35955 2.349-0.40749 0.0959-0.0479 1.8457-0.52733 1.8457-0.52733l0.74307-0.50337-0.83894-0.14382-2.8284 0.11985-2.2292 0.43146-2.6127 0.57527-2.2771 0.5513z"
       fill="#ff2a2a"
       stroke-width="1px"
       id="path150" />
    <g
       fill="none"
       stroke-width="1px"
       id="g160">
      <path
         d="m133.13 113.91-2.1573-0.024-2.8045-1.3902-5.4891-2.7326-1.7369-1.0086"
         id="path152" />
      <path
         d="m78.549 80.829 0.11985 1.9415 1.1985 2.8045 2.373 3.0202 2.2771 1.8457 1.7258 1.5101 2.2771 1.582 2.7805 1.7498 2.373 1.3663 2.4928 1.3423 1.8936 0.86291"
         id="path154" />
      <path
         d="m85.444 77.452-3.7203 1.0593c-0.26272 0.12712-1.3305 1.1271-1.3305 1.1271l-0.44068 1.5424 0.11864 1.4068 0.91525 1.7966 1.7797 2.4407 1.2881 1.2203 1.6453 1.4782"
         id="path156" />
      <path
         d="m130.97 113.88 2.1175-2.9064 2.8814-2.8136 3.661-2.678"
         id="path158" />
    </g>
    <path
       d="m211.38 144.04 2.2412 0.88688 3.5475 0.76703 3.2119 1.0786 2.7565 1.3423 2.8692 1.475-0.81356-1.8644-1.322-1.6271-2.9153-1.7288-4.1224-1.0965-2.5408-0.16779-1.9416 0.33558z"
       fill="#ff2a2a"
       stroke-width="1px"
       id="path162" />
    <g
       fill="none"
       id="g176">
      <path
         d="m157.05 103.15-3.188 0.791-4.4104 1.0547-3.7393 1.4382-3.3318 1.3423-1.8457 0.86291"
         stroke-dasharray="3, 0.5"
         stroke-width=".5"
         id="path164" />
      <path
         d="m139.82 106.38 4.1947-1.7258s4.1468-1.4142 4.2666-1.4382c0.11985-0.024 4.4344-1.0786 4.4344-1.0786l2.7326-0.71909"
         stroke-dasharray="3, 0.5"
         stroke-width=".5"
         id="path166" />
      <path
         d="m182.03 142.53 0.71909-0.50337 2.1093-1.1505s3.3558-1.2704 3.6194-1.2944c0.26367-0.024 3.4756-0.33557 3.4756-0.33557l1.8457 0.024s2.6606 0.74306 2.7805 0.83894c0.11985 0.0959 3.7872 1.6779 3.7872 1.6779l2.7445 1.8576 1.4335 0.99921-3.9743 0.6307-3.3198 1.1386-1.3978 1.4266"
         stroke-width="1px"
         id="path168" />
      <path
         d="m95.325 115.38 2.339-1.2881 6.2712-1.3898 7.4915-0.77966 3.4119-0.28387"
         stroke-dasharray="3, 0.5"
         stroke-width=".5"
         id="path170" />
      <path
         d="m96.819 117.1 3.2881-1.0508 7.6949-1.3559 4.4407-0.81356 5.1864-0.1017"
         stroke-dasharray="3, 0.5"
         stroke-width=".5"
         id="path172" />
      <path
         d="m156.72 118.57 2.1017 1.6271 3.5593 3.5254 1.9661 3.0508 1.4237 2.1017"
         stroke-width="1px"
         id="path174" />
    </g>
    <g
       stroke-width="1px"
       id="g192">
      <path
         d="m181.37 125.52-2.3804-0.10169s-2.9492 0.44068-3.5254 0.64407c-0.57628 0.20339-4.1017 0.91525-4.1017 0.91525l-2.5763 0.57627-2.0678 1.2542 1.9661 0.27119 3.661-0.50848 3.9322-0.81356 3.9322-1.0847z"
         fill="#ff2a2a"
         id="path178" />
      <path
         d="m182.27 125.29-1.9655-2.2292-3.2359-2.5168-4.0269-2.6846-2.2771-1.3183-1.401-0.75354"
         fill="none"
         id="path180" />
      <path
         d="m187.32 138.31s3.0442-1.1745 3.3078-1.2464c0.26367-0.0719 4.0432-0.61911 4.0432-0.61911l1.5658 0.47529 0.47939 0.71907-1.7977 0.26366-3.9071 0.67116-2.8524 0.26366z"
         fill="#ff2a2a"
         id="path182" />
      <path
         d="m143.27 135.24-2.812-1.2456"
         fill="none"
         id="path184" />
      <path
         d="m139.31 130.81 1.8696-13.399-1.2464-0.62321-6.5677-4.6022-0.95741 1.7784-1.4396-0.0766 2.1175-2.9064 2.8814-2.8136 3.4237-2.4068 2.1356 6.7119 2.0339 13.051z"
         fill="#ff2a2a"
         id="path186" />
      <path
         d="m160.5 99.022-11.122-4.9617 2.0374 2.4449 0.38352 0.33558 7.4546 3.6434 0.93481 4.2187 0.57527 0.81497 0.93482 1.7018 1.3663-1.2464-1.1985-1.7018-0.71909-4.4584z"
         fill="#ffe6d5"
         id="path188" />
      <path
         d="m151.8 96.841 7.4546 3.6434 0.93481 4.2187 1.5101 2.5168-2.9167-2.853-2.5963-1.9409z"
         fill="#ff2a2a"
         id="path190" />
    </g>
    <g
       fill="none"
       id="g216">
      <path
         d="m186.96 138.12-1.8457-2.0614-2.9483-2.7805-3.4037-2.2292-3.3078-1.1745 1.558-0.33558s4.1468-0.50336 4.2426-0.5513c0.0959-0.0479 2.397-0.11985 2.397-0.11985l2.4928 0.40748 3.2119 1.5341 3.2838 2.0135 2.1573 1.5101 1.7977 1.4622 0.74306 1.1985 0.33557 0.74306"
         stroke-width="1px"
         id="path194" />
      <g
         stroke-width=".5"
         id="g202">
        <path
           d="m190.7 169.04 4.6022 0.14382 7.4306 0.71909 6.328-0.0959s6.5198 0.2397 6.7115 0.2397c0.19176 0 3.5955-0.38352 3.5955-0.38352l3.7872-0.62321 6.2321-1.6779 2.397-1.5341 1.3423-1.7738 0.52734-1.3423-0.73826-1.1904"
           stroke-dasharray="3, 0.5"
           id="path196" />
        <path
           d="m185.6 177.4 3.14-0.59924 3.0202-1.0547 1.2225-0.67115-0.52733-0.59924-1.6779-0.64719"
           stroke-dasharray="3, 0.5"
           id="path198" />
        <path
           d="m133.09 179.11 5.0508 0.27118 7.2203-0.13559 7.1525 0.0678s5.4576-0.27119 5.6949-0.27119 7.2203-0.23729 7.2203-0.23729"
           stroke-dasharray="4, 0.5"
           id="path200" />
      </g>
      <g
         stroke-dasharray="3, 0.5"
         stroke-width=".5"
         id="g210">
        <path
           d="m126.51 178.82-16.395-1.4382-10.019-1.1505-9.5879-1.9176-12.368-3.2119-10.163-4.6981-7.6224-3.0681-10.547-4.1228-6.6156-2.349-5.0816-1.6779-7.5744-2.5408-5.0816-1.7258-3.4037-1.4861-0.19176-0.52734 1.7738-0.57527 4.2666-0.81497 5.1295-0.95879 5.0336-0.81497 5.561-0.52733 2.9243-0.2397 4.2666 0.28764 2.6846-0.14382"
           id="path204" />
        <path
           d="m65.749 146 3.4516 0.50336 3.5715 0.76703 3.4037 0.98276 3.2119 0.95879"
           id="path206" />
        <path
           d="m160.31 167.76 5.7288 1.4915"
           id="path208" />
      </g>
      <path
         d="m144.21 137.69 1.5932 0.37288 2.3729 1.2203 2.2034 1.2881s1.7288 1.3898 2.0339 1.5593c0.30508 0.16949 1.1525 1.1186 1.4576 1.322 0.30508 0.20339 1.6949 1.7627 1.6949 1.7627l1.415 1.292"
         stroke-width="1px"
         id="path212" />
      <path
         d="m158.02 147.4 2.6269 2.118 2.1695 1.3898 1.6949 1.5932 1.7288 1.8983 0.47457 0.98306"
         stroke-width="1px"
         id="path214" />
    </g>
    <g
       stroke-width="1px"
       id="g234">
      <path
         d="m148.41 159.99 4.7119-2.5085s2.5763-0.61017 2.8136-0.67797 4.1695-0.57626 4.1695-0.57626l-2.4068 1.3559s-1.3559 0.16949-1.6949 0.30509c-0.33898 0.13559-2.2034 0.54237-2.339 0.61017-0.1356 0.0678-2.3397 1.798-2.3397 1.798z"
         fill="#ff2a2a"
         id="path218" />
      <path
         d="m148.21 149.18 1.7288-0.13559 2.0339 0.84746 1.7627 1.0847s3.4237 2.3729 3.6271 2.5763 2.3051 2.6102 2.3051 2.6102l-0.98305 0.37289-2.2034-2.5424-3.6949-2.5424-2.4068-1.322z"
         fill="#ff2a2a"
         id="path220" />
      <path
         d="m148.21 149.18-4.1356 0.1017-4.6102 0.88135-3.8305 1.7966-2.5424 1.1864"
         fill="none"
         id="path222" />
      <path
         d="m 82.851,171.15 c -0.16949,-0.0678 -1.4237,-2.4746 -1.4237,-2.6102 0,-0.1356 0.1017,-2.6102 0.1017,-2.6102 0,0 1.1525,-2.4068 1.3898,-2.6102 1.89937,-1.98937 4.039621,-3.70328 6.146216,-5.46342 3.223908,-2.13864 6.072415,-4.18537 8.900803,-6.21417 l 5.077881,-3.96718 8.02105,-5.74404 4.57925,-2.31509 -2.3149,2.239 -2.57648,1.48037 -24.65312,18.49143 -2.6606,3.2839 -0.64718,1.8217 0.09588,1.1026 0.81497,1.3183 1.3423,0.91085 0.40748,0.76703 -0.81497,0.45542 z"
         id="path224"
         inkscape:connector-curvature="0"
         style="fill:#ff2a2a"
         sodipodi:nodetypes="cscccccccccccccccccc" />
      <path
         d="m132.31 179.08 0.47458-4.1356 1.0508-3.2881 1.9661-3.0508 2.7797-2.5424 3.1864-2.5085 6.6441-3.5593"
         fill="none"
         id="path226" />
      <path
         d="m211.6 169.23 1.4622-2.0374 1.2704-3.6674 0.40749-4.6741-0.31161-2.8045-1.1985-2.3011-4.4584-3.8352-2.1812-1.2704-2.7086-1.5101-2.6127-1.3183-0.93482-0.35955-1.8319 0.68802 7.345 3.3389 3.2119 2.2532 2.4928 2.2052 1.5341 2.1573 0.71909 1.8696-0.14382 2.4928-1.2464 5.2733-2.0096 3.3149z"
         fill="#ff2a2a"
         id="path228" />
      <path
         d="m188.83 164.46-0.0479-3.188 0.33557-2.8284 1.5341-3.8352 2.2292-3.955 2.8045-3.4277 2.8284-1.8217 2.4689-0.93482 2.2771-0.38352"
         fill="none"
         id="path230" />
      <path
         d="m 103.8365,175.1478 c -0.89967,-4.23682 0.90674,-6.33879 3.62708,-9.2543 l 3.661,-2.678 3.4237,-2.2373 2.7797,-1.5932 2.339,-1.2542 2.7797,-1.5932 4.0339,-2.0339 8.8956,-3.872 -12.218,6.3127 -4.7797,2.5424 -4.2803,2.8887 c -4.62767,3.29907 -10.92122,8.17257 -8.7729,12.7998 -0.31204,1.48867 -0.59205,0.8138 -1.48878,-0.0275 z"
         id="path232"
         inkscape:connector-curvature="0"
         style="fill:#ff2a2a"
         sodipodi:nodetypes="cccccccccccccc" />
    </g>
  </g>
</svg>
