<?xml version="1.0" encoding="UTF-8"?>
<svg cursor="default" version="1.1" viewBox="0 0 256 256" xmlns="http://www.w3.org/2000/svg" xmlns:cc="http://creativecommons.org/ns#" xmlns:dc="http://purl.org/dc/elements/1.1/" xmlns:rdf="http://www.w3.org/1999/02/22-rdf-syntax-ns#" xmlns:xlink="http://www.w3.org/1999/xlink">
 <metadata>
  <rdf:RDF>
   <cc:Work rdf:about="">
    <dc:format>image/svg+xml</dc:format>
    <dc:type rdf:resource="http://purl.org/dc/dcmitype/StillImage"/>
    <dc:title/>
   </cc:Work>
  </rdf:RDF>
 </metadata>
 <defs>
  <linearGradient id="innoGrad1">
   <stop stop-color="#ffdd55" offset="0"/>
   <stop stop-color="#ffdd55" stop-opacity="0" offset="1"/>
  </linearGradient>
  <linearGradient id="linearGradient1225-7-9" x1="4137" x2="4135.7" y1="351.02" y2="193.33" gradientTransform="matrix(.11162 -.062747 -.062747 -.11162 -386.59 431.05)" gradientUnits="userSpaceOnUse" xlink:href="#innoGrad1"/>
  <linearGradient id="linearGradient1276-2" x1="4045.6" x2="4447.3" y1="599.9" y2="807.4" gradientTransform="matrix(.11162 -.062747 .062747 .11162 -433.55 347.51)" gradientUnits="userSpaceOnUse">
   <stop stop-color="#ffd42a" offset="0"/>
   <stop stop-color="#ffd42a" stop-opacity="0" offset="1"/>
  </linearGradient>
  <linearGradient id="linearGradient1225-6" x1="4137" x2="4135.7" y1="351.02" y2="193.33" gradientTransform="matrix(.11162 -.062747 .062747 .11162 -433.55 347.51)" gradientUnits="userSpaceOnUse" xlink:href="#innoGrad1"/>
 </defs>
 <g stroke="#000000" stroke-linecap="square" stroke-width=".8">
  <g>
   <path d="m215.2 7.2006c-0.45613 0.2543-0.74156 1.0342-0.48577 1.4895 0.25606 0.45547 1.0711 0.61802 1.5256 0.36017 0.45067-0.25546 0.72321-1.0301 0.46921-1.4816-0.25372-0.45135-1.0567-0.62006-1.5091-0.36815zm-10.24 5.6653c-0.45616 0.25431-0.74159 1.0342-0.48577 1.4895 0.25605 0.45547 1.0711 0.61802 1.5256 0.36017 0.45068-0.25545 0.72325-1.03 0.46923-1.4816-0.25373-0.45135-1.0567-0.62006-1.509-0.36815zm-49.98 85.341-21.716-38.631 4.4956-2.5272 1.4984 2.6656 3.501-1.9681 0.17893 0.31828 5.6892-3.1981-0.20128-0.35807 3.9386-2.2141 0.11185 0.19892 5.0526-2.8403-0.0896-0.15914 4.2171-2.3707 0.17891 0.31828 4.5752-2.5719-0.0896-0.15914 4.6548-2.6167 0.0671 0.11936 11.06-6.2174-1.5432-2.7451 5.8881-3.31 18.492-18.072 11.25-6.3242 5.5171 4.785 18.374 18.801 7.5509 13.432 0.90111 2.6348 2.1572 3.8374-3.6051 2.0266-1.1386-2.0255-4.5574 2.5619 1.1386 2.0255-5.345 3.0047-1.0596-1.8848-4.4448 2.4986 1.2019 2.138-4.473 2.5145-1.2177-2.1661-4.5574 2.5619 1.1703 2.0818-4.7543 2.6726-1.2493-2.2224-4.8105 2.7042 1.2335 2.1943-4.5574 2.5619-1.1544-2.0536-3.6094 4.3141 1.2177 2.1662-4.1354 2.3247s-8.3715-1.2175-13.53 1.6822l-32.886 18.487zm54.608-71.902-5.8085 3.2652c-1.1041 0.62069-1.8618 1.8511-2.2632 3.0524-0.34989 1.047-0.32802 2.2505-0.0229 3.3115 0.3111 1.0836 0.96143 2.117 1.8141 2.8546 0.71565 0.61907 1.6569 1.0056 2.5902 1.1617 0.80593 0.13482 1.6689 0.04559 2.4415-0.22061 5.6515-1.9472 17.184-8.4557 17.184-8.4557s2.5235-1.2721 3.255-2.4057c0.75969-1.1773 0.9783-2.7115 0.88366-4.1094-0.0749-1.1079-0.44035-2.2648-1.1328-3.1329-0.70875-0.88846-1.7996-1.4568-2.8685-1.843-0.9415-0.34013-1.989-0.50196-2.9808-0.36626-1.1232 0.15366-3.1401 1.3062-3.1401 1.3062zm-29.618 16.466-6.8429 3.8467c-0.85996 0.48342-1.5367 1.3369-1.9348 2.2395-0.28121 0.63756-0.28021 1.3798-0.24674 2.0759 0.0338 0.69938 0.1328 1.4267 0.44699 2.0524 0.40427 0.80526 1.0239 1.5406 1.7745 2.0391 0.70415 0.46765 1.5642 0.75983 2.4089 0.7925 0.62333 0.02405 1.2507-0.18526 1.8175-0.44578 3.934-1.8083 11.34-5.3536 16.668-8.349 1.0955-0.61585 2.2477-1.3113 2.9405-2.3598 0.40329-0.6103 0.52824-1.3844 0.59229-2.1131 0.0662-0.75321 0.0285-1.544-0.22191-2.2575-0.27255-0.77681-0.75404-1.4989-1.347-2.0701-0.53-0.51057-1.1992-0.89192-1.8942-1.1342-0.79007-0.27544-1.6528-0.37108-2.4885-0.32884-0.57699 0.02918-1.5065 0.29793-2.0101 0.58104-3.3224 1.8677-9.6626 5.4311-9.6626 5.4311zm-28.307 15.912-8.3746 4.7077c-0.51718 0.29074-0.84418 0.86503-1.0968 1.4019-0.23854 0.507-0.33901 1.0821-0.35963 1.642-0.0203 0.5463 0.0406 1.1115 0.23205 1.6235 0.21624 0.57818 0.5629 1.1247 1.0052 1.5554 0.35626 0.34687 0.64507 0.52957 1.1074 0.71258 0.5263 0.20833 1.0966 0.32037 1.6619 0.3485 0.34716 0.01735 0.72131 0.03427 1.0368-0.1116 4.6876-2.1679 11.204-5.5152 16.662-8.3596 0.86513-0.45084 1.9593-1.0378 2.607-1.7656 0.52494-0.58991 0.72869-1.2235 0.87811-1.9073 0.12289-0.56228 0.12767-1.1661-2e-3 -1.7266-0.15171-0.65306-0.4779-1.2734-0.8846-1.8064-0.30788-0.40353-0.71694-0.72989-1.1421-1.0072-0.42442-0.2768-0.88319-0.53673-1.3796-0.63807-0.37005-0.07552-0.76108-0.1016-1.1377-0.0736-0.59153 0.04394-1.6004 0.22667-2.1206 0.5191-2.9686 1.6688-8.6929 4.8852-8.6929 4.8852z" fill="#ffdd55"/>
   <path d="m39.693 108.65c-0.3152-1.0672-2.5263-4.3199-2.5263-4.3199s-1.087-1.8453-1.8933-1.8546c-0.83462-9e-3 -6.953 3.8349-7.0419 4.168-0.12049 0.45116 3.6389 6.7926 4.0133 6.6969 0.78508-0.20072 7.1146-4.0387 7.1146-4.0387 0.16517-0.0927 0.38735-0.47006 0.33368-0.65178z" fill="#ffd42a"/>
   <path d="m28.518 107.41 5.4608-3.0698 3.3103 0.20134s-0.34307-0.53737-0.51106-0.78812c-0.14643-0.21851-0.30347-0.4315-0.48135-0.62528-0.17181-0.1872-0.34491-0.38304-0.56213-0.51494-0.1189-0.0722-0.25316-0.1353-0.39205-0.1432-0.15267-8e-3 -0.30143 0.0573-0.44579 0.10779-0.22866 0.0798-0.44117 0.20005-0.65913 0.30562-0.30592 0.1481-0.61208 0.29634-0.91012 0.45972-0.29125 0.15948-0.57052 0.34003-0.85712 0.50775-0.26692 0.15638-0.53794 0.30585-0.80342 0.46468-0.30786 0.18416-0.61143 0.37538-0.91509 0.56634-0.50859 0.31985-1.03 0.62113-1.5188 0.97062-0.3451 0.24675-0.95455 0.64791-0.99527 0.79319-0.039 0.13912 0.2803 0.76424 0.2803 0.76424z" fill="#ffdd55"/>
   <path d="m54.976 95.83c-0.45614 0.25431-0.74156 1.0342-0.48576 1.4895 0.25604 0.45548 1.0711 0.618 1.5256 0.36016 0.45066-0.25544 0.72321-1.03 0.46921-1.4816-0.25372-0.45133-1.0567-0.62006-1.509-0.36818zm38.887 2.7522s-4.9416-8.7929-7.1702-12.757c-0.42336-0.75311-1.7599-1.0576-2.5131-0.63422-11.424 6.4222-36.947 20.747-36.947 20.747s-1.7641 0.99168-2.5561 1.4369c-0.58415 0.32837-1.1465 2.5475-0.86908 3.041 6.4392 11.455 20.507 36.457 20.507 36.457s0.48932 0.22582 0.69335 0.11128c11.587-6.5136 28.693-16.134 37.393-21.024 0.37391-0.21021 0.88862 0.70406 0.51513 0.91405-0.37052 0.20826-1.3155 0.6526-1.729 1.2194-0.20896 0.2864-0.23184 0.6909-0.20241 1.0442 0.0219 0.2605 0.11265 0.52946 0.27475 0.73458 0.1918 0.24273 0.47182 0.41076 0.77052 0.51736 0.28062 0.10014 0.69682 0.25118 0.95664 0.10429 1.5108-0.8493 3.2282-1.8094 4.7017-2.6378 0.70888-0.39848 1.3705-2.2417 0.97198-2.9506-0.6234-1.109-1.721-3.0473-1.721-3.0473l-13.076-23.277zm61.707 0.62134-12.491 7.0215c-8.3588 5.7849-8.459 23.246-8.6383 23.897l-2.6572 16.415s-0.541 7.3198-1.9147 10.658c-0.96072 2.3342-2.5699 4.3941-4.2953 6.2366-1.2002 1.2816-2.6023 2.4053-4.1329 3.2657l-16.255 9.1376c-2.2337 1.2556-6.7383 2.1451-9.2983 2.0332-2.9046-0.12693-5.6272-1.4985-8.4946-1.9788-3.0681-0.51381-6.1885-1.2775-9.283-0.95965-2.5347 0.26029-7.285 2.3151-7.285 2.3151s-7.6738-6.9298-11.969-9.8406c-4.8557-3.2906-10.293-5.9491-15.628-8.4006-3.6106-1.6592-7.2176-3.1252-10.972-4.2664-4.5765-1.391-9.295-2.2937-14.006-3.1214-3.1586-0.55488-9.5415-1.2332-9.5415-1.2332s-1.6059-2.5037-1.5974-3.2434c0.00984-0.85638 2.9455-2.6607 4.3491-4.0626 2.3932-2.3903 4.9055-4.7016 6.9359-7.4069 1.6276-2.1687 3.423-5.218 4.8056-7.5506 1.9562-3.3002 3.8937-11.371 4.6569-11.8 0 0 11.136-5.8469 12.041-6.7317 0.48913-0.47803-2.4623-4.874-2.4623-4.874l16.305-9.1752s13.524-6.0132 20.257-9.1361c6.4799-3.0053 16.587-8.1726 18.872-9.4572 0.75518-0.42452 4.3059-0.07712 6.3237-0.36106 2.493-0.36598 5.8573-1.1674 7.7337-2.2009 8.9164-5.0123 26.337-14.805 26.337-14.805zm-31.354-25.272-8.3547 4.6966c-0.55158 0.31008-0.80146 1.0003-1.0471 1.5834-0.17364 0.41216-0.30173 0.86448-0.28375 1.3114 0.0137 0.35039 0.15279 0.69075 0.30429 1.007 0.22435 0.46828 0.47102 0.96527 0.87974 1.2856 0.29742 0.2331 0.61944 0.45541 0.98249 0.56028 0.44549 0.1287 0.88768 0.15386 1.3413 0.05754 1.6703-0.35468 11.467-5.3207 16.902-8.3756 0.65722-0.36946 1.4111-0.73725 1.877-1.33 0.27829-0.35408 0.41456-0.80704 0.53239-1.2417 0.11418-0.41986 0.2072-0.86245 0.16193-1.2952-0.0441-0.42292-0.1841-0.84953-0.41609-1.2059-0.21779-0.3347-0.48447-0.66508-0.80575-0.90224-0.45548-0.33625-1.0009-0.59916-1.5432-0.76162-0.3638-0.10902-0.75678-0.13423-1.136-0.11445-0.42245 0.02205-1.0423 0.13478-1.6895 0.49863-2.6462 1.4876-7.7048 4.2265-7.7048 4.2265zm-12.499 95.957s8.9057-5.0089 9.9087-5.7043c1.0691-0.74121 1.9798-1.6407 2.8573-2.601 0.89963-0.98451 1.5136-2.3502 2.1589-3.5173 0.57722-1.0439 1.083-2.1444 1.3931-3.2962 0.45806-1.7011 0.72174-3.4823 0.66527-5.2431-0.0386-1.2021-0.29133-2.4057-0.68272-3.543-0.5004-1.454-1.1454-2.9018-2.0997-4.1077-0.73479-0.92852-1.7631-1.5852-2.7068-2.3004-1.1052-0.83758-2.2416-1.6435-3.5341-2.146-1.0289-0.39995-2.0878-0.67492-3.1917-0.66907-1.4328 7e-3 -2.876 0.25632-4.2439 0.6827-0.9161 0.28556-1.7614 0.76989-2.5986 1.2387-2.3513 1.3165-6.7799 4.4036-6.7799 4.4036l-3.0824 2.288s-6.9055 4.7821-9.9476 7.5631c-1.0822 0.98928-2.1425 1.9069-2.9008 3.1025-0.50388 0.79453-0.83123 1.706-1.0432 2.6226-0.33211 1.436-0.26755 2.9366-0.33522 4.4089-0.04138 0.89572-0.03511 1.793-0.04296 2.6897-0.0041 0.48167-0.08372 0.97033-0.0021 1.4451 0.17187 1.0005 0.52372 1.9841 1.0206 2.8693 0.43851 0.78007 1.0104 1.504 1.6906 2.0854 0.62686 0.53588 1.4647 1.2641 2.19 1.6566 0.72947 0.39474 1.4953 0.7327 2.2745 1.0167 0.8655 0.31537 1.7775 0.50537 2.6895 0.63535 0.61746 0.0882 1.2457 0.127 1.8687 0.0976 1.357-0.065 2.8608 0.0177 4.1654-0.36146 1.4217-0.41286 2.7692-1.0754 4.0597-1.8008 2.0523-1.1537 6.2492-3.5156 6.2492-3.5156z" fill="#ffdd55"/>
   <path d="m215.94 5.6644s-1.871-2.3323-2.284-2.3371c-0.61176-0.00702-1.9953 0.49348-2.6001 1.2252-0.029 0.03523-0.0894 0.11569-0.0722 0.19993 0.0479 0.23035 0.13296 0.66651 0.13478 1.1246 1e-3 0.27613-0.025 0.59548-0.11646 0.78288-0.49262 0.83103-2.8412 2.2662-3.6516 2.4454-0.54455 0.10881-1.1609 0.058898-1.6545-0.19556-0.26972-0.13907-0.58855-0.54862-0.76388-0.79476-0.0817-0.11459-0.17573-0.16583-0.2486-0.1375-0.9938 0.38621-1.9025 0.91738-2.3365 1.4012-0.59488 0.6632-4.1174 9.0347-4.1174 9.0347l6.7071-6.5443z" fill="#ffd42a"/>
   <path d="m211.12 5.8465c1e-3 0.27612-0.0219 0.626-0.11305 0.81345-0.49261 0.83103-2.8412 2.2662-3.6516 2.4454-0.54457 0.10881-1.1618 0.040879-1.6553-0.21362l5.4198-3.0453z" fill="#ff2a2a"/>
   <path d="m99.42 96.641c0.25242 0.449 1.9147 1.4781 3.1359 1.8322 1.4995 0.43485 3.1877 0.48395 4.6838 0.03706 1.3756-0.41081 2.6252-1.3204 3.5827-2.39 0.8631-0.96423 1.449-2.1979 1.7848-3.4476 0.3313-1.2326 0.39567-2.1926 0.12065-3.439-0.31099-1.4091-1.0003-2.7525-1.9138-3.8695-0.7515-0.91885-1.6905-1.74-2.7654-2.2435-1.0669-0.4997-2.1248-0.74215-3.3014-0.68389-1.1068 0.0548-2.1728 0.50446-3.1823 0.96161-0.88674 0.40159-1.7939 0.85229-2.4789 1.5439-0.72296 0.72993-1.7547 2.1393-1.6991 2.4628 0.07026 0.40917 0.56349 0.68483 0.96612 0.78606 0.45022 0.11321 0.90823-0.33096 1.3675-0.26352 1.3178 0.19349 2.4175 1.4424 3.5406 1.852 0.33627 0.12262 0.72226-0.11354 1.0342-0.28887 0.50522-0.284 1.1198-1.7141 1.1993-1.698 0.11124 0.02238-0.0869 1.3741 0.38025 1.7407 0.11696 0.09174 0.31968 0.06746 0.44573-0.01125 0.6225-0.38885 1.0157-1.9537 1.0157-1.9537 0.0698 0.0092 0.35922-2.7998 0.37956-2.8724 0.035-0.12434 0.23688 0.06437 0.30015 0.17695 0.62301 1.1083 0.77212 2.467 0.96252 3.7631 0.12992 0.88432 0.22514 1.7589 0.21476 2.6615-5e-3 0.46709-0.47459 0.88848-0.38597 1.3472 0.0495 0.25697 0.4005 0.44409 0.32989 0.69609-0.0471 0.16841-0.42365 0.75691-0.81522 1.0658-0.5465 0.43112-1.2286 0.65716-1.864 0.94144-0.56251 0.2517-1.0976 0.56877-1.7132 0.54101-0.47523-0.0216-0.86403-0.28169-1.2843-0.50458-0.41968-0.22253-0.78797-0.56047-1.2429-0.69732-0.36844-0.11047-0.77246-0.15298-1.1509-0.0843-0.33554 0.06101-0.66101 0.21788-0.92879 0.42906-0.22308 0.17593-0.40858 0.41125-0.52796 0.66905-0.13427 0.29007-0.34644 0.66133-0.1898 0.93997z" fill="#ff2a2a"/>
   <path d="m22.37 202.54c-0.21519 7.0266-0.04315 14.095 0.79214 21.075 0.98394 8.222 4.9509 24.344 4.9509 24.344-0.05204 2.6549 52.076 5.1445 50.598 0.87635-9.3732-27.07-8.609-48.665-7.8867-71.588 0 0-7.6738-6.9298-11.969-9.8406-4.8557-3.2906-10.293-5.9491-15.628-8.4006-3.6106-1.6592-7.2176-3.1252-10.972-4.2664-4.5765-1.391-9.295-2.2937-14.006-3.1214-3.1586-0.55488-9.5415-1.2332-9.5415-1.2332s-4.5724-0.76533-4.91-0.0841c-0.59251 1.1957-1.5618 7.9331-0.55686 8.707 0.71393 0.54976 13.88 1.9491 18.373 6.7922 2.1729 2.3419 2.3212 5.7312 2.7616 8.8954 1.2849 9.2311-1.7204 18.529-2.0057 27.845z" fill="#ff7f2a"/>
   <path d="m27.171 203.35c-0.1945 6.3503 0.32421 11.801 1.0791 18.109 0.88924 7.4306 3.4132 20.765 3.4132 20.765-0.30027 4.5873 35.438 4.7192 37.754 1.9757 1.4669-1.7375 1.7187-3.8846 0.96064-6.1394-4.5845-13.638-6.981-38.929-3.457-55.73 0.18685-0.89054-0.15062-2.0249-0.76038-2.6488-2.6478-2.7093-6.3865-6.8674-10.268-9.498-4.3883-2.9739-9.8513-4.7719-14.672-6.9874-3.2631-1.4996-6.5229-2.8244-9.916-3.8557 0 0-3.4993-1.5525-5.3653-1.8876-1.4561-0.2615-4.1323-0.69174-4.4374-0.0759-0.53547 1.0806 0.02731 3.6902 0.58902 4.6894 0.43482 0.77346 1.3535 1.64 4.0298 6.401 1.4148 2.5168 2.0978 5.1796 2.4958 8.0392 1.1612 8.3426-1.1873 18.424-1.4451 26.843z" fill="#ff9955"/>
  </g>
  <circle transform="rotate(-29.342)" cx="-66.876" cy="216.41" r="9.493" fill="#ffb380"/>
  <path d="m40.479 223.95c-0.0043 0.47016 0.84348 2.0406 1.6491 2.8761 0.98922 1.026 2.3032 1.8323 3.6905 2.1588 1.2756 0.3002 2.6783 0.14893 3.9225-0.26283 1.1215-0.3708 2.1462-1.0808 2.9803-1.9174 0.82268-0.82506 1.3102-1.5556 1.6591-2.6672 0.3945-1.2568 0.45976-2.6335 0.24457-3.933-0.17703-1.069-0.54688-2.1459-1.1688-3.0332-0.61724-0.8806-1.3444-1.5535-2.3022-2.0424-0.90098-0.45983-1.9493-0.58858-2.9561-0.68577-0.8845-0.0853-1.8074-0.14104-2.6641 0.095-0.90413 0.24904-2.3616 0.89545-2.4647 1.1768-0.13042 0.35586 0.13464 0.79828 0.4073 1.0615 0.3049 0.29431 0.86939 0.15094 1.2023 0.41323 0.95509 0.75231 1.2576 2.2409 1.9604 3.0758 0.21041 0.24995 0.62332 0.23855 0.94994 0.24159 0.529 5e-3 1.6657-0.84765 1.7213-0.79866 0.07778 0.0684-0.69364 1.048-0.49048 1.5507 0.05095 0.12573 0.22235 0.19875 0.35792 0.19376 0.66955-0.0249 1.6922-1.0846 1.6922-1.0846 0.05106 0.039 1.5573-2.0528 1.6065-2.101 0.08412-0.0826 0.15823 0.15869 0.15746 0.27636-0.01072 1.1605-0.51054 2.3038-0.94918 3.4162-0.29927 0.75904-0.62153 1.4945-1.0402 2.2043-0.21656 0.3673-0.77963 0.48745-0.91812 0.89076-0.07767 0.22593 0.1151 0.53362-0.05544 0.70094-0.11396 0.11189-0.6795 0.40651-1.1299 0.47297-0.62858 0.0928-1.2713-0.0385-1.9034-0.10253-0.55981-0.0557-1.1274-0.0487-1.6021-0.3507-0.36642-0.23304-0.5558-0.61582-0.78716-0.98333-0.23101-0.36699-0.36887-0.80192-0.66672-1.1171-0.24119-0.25517-0.54182-0.4724-0.87264-0.58999-0.29333-0.10433-0.62227-0.12811-0.93026-0.0827-0.25657 0.038-0.5104 0.13975-0.7221 0.28952-0.23823 0.16845-0.57486 0.36602-0.57761 0.65771z" fill="#ff7f2a"/>
 </g>
 <g fill="#ffd42a" stroke="#000000" stroke-linecap="square" stroke-width=".8">
  <path d="m18.429 135.54s3.3308-4.7968 4.6931-7.3585c0.56174-1.0563 1.0165-2.1415 1.4538-3.2422 0.82168-2.0681 2.1939-6.3052 2.1939-6.3052s-2.3721-4.5337-3.0341-5.2111c-0.37129-0.37991-0.85075-0.91211-1.3138-0.6518-2.2209 1.2485-5.5717 3.1279-7.5856 4.26-0.08726 0.049-0.05451 0.19963-0.0361 0.298 0.08786 0.47068 0.36795 0.90076 0.67559 1.2677 0.81959 0.97744 2.0038 1.579 3.0117 2.3609 0.57308 0.4446 1.284 0.75001 1.726 1.3251 0.36308 0.47236 0.60984 1.0593 0.68692 1.65 0.07499 0.57496-0.04526 1.1755-0.23425 1.7236-0.30881 0.89566-1.0275 1.5981-1.4343 2.4538-0.38349 0.80668-0.7578 1.6349-0.94032 2.5092-0.16007 0.76686-0.14356 1.5637-0.12454 2.3468 0.02084 0.86211 0.26212 2.5738 0.26212 2.5738z"/>
  <path d="m165.33 92.388c0.0606-1.7787 3.8044-5.8846 5.9593-7.0908l76.34-42.734 0.90111 2.6348 3.2862 5.8459-3.6051 2.0266-1.2916-2.2976-4.5574 2.5619 1.29 2.2948-5.3451 3.0047-1.2109-2.1541-4.4448 2.4986 1.213 2.1578-4.473 2.5145-1.2288-2.1859-4.5573 2.5619 1.2202 2.1706-4.7543 2.6726-1.2993-2.3112-4.8106 2.7042 1.2973 2.3077-4.5574 2.5619-1.2182-2.1671-4.5855 2.5777 1.2177 2.1662-4.1354 2.3247s-8.3715-1.2175-13.53 1.6822l-22.927 12.889c-0.21554-0.38345-0.20788-0.78999-0.19328-1.2174z"/>
  <path d="m170.03 89.882s0.47369-0.95924 2.6286-2.1655c9.6921-5.4484 75.822-42.624 75.822-42.624l0.80517 1.4324-79.924 44.928c-0.21559-0.38346 0.66821-1.5708 0.66821-1.5708z"/>
  <path d="m64.314 146.87s-0.04453 0.41135-0.16675 0.56491c-0.15874 0.19937-0.42418 0.29541-0.66637 0.37461-0.29337 0.0959-0.61145 0.1334-0.91927 0.111-0.3353-0.0244-0.61279-0.11335-0.91523-0.26012-0.25122-0.12182-0.47602-0.33316-0.66069-0.54257-0.45526-0.51636-0.79058-1.2418-1.023-1.6552-0.11928-0.21214-0.50723 0.0986-0.69585 0.25236-0.33189 0.27068-0.54987 0.65728-0.84183 0.9706-0.20193 0.21675-0.42568 0.40443-0.6672 0.57591-0.24855 0.17651-0.53787 0.29576-0.83634 0.35848-0.28719 0.061-0.62044 0.0727-0.91265 0.045-0.2993-0.0274-0.59412-0.0704-0.85807-0.21449-0.21561-0.11735-0.37121-0.3344-0.49149-0.54836l-15.911-28.305c-0.11734-0.20877-0.11263-0.47035-0.11107-0.70984 0.0014-0.20553 0.04138-0.41188 0.10332-0.60785 0.06185-0.19511 0.14343-0.38909 0.26433-0.5543 0.12249-0.16754 0.29021-0.29875 0.45446-0.42565 0.17779-0.13737 0.36247-0.27371 0.57006-0.35971 0.17231-0.0714 0.36318-0.0853 0.54573-0.12353 0.29429-0.0617 0.59081-0.11217 0.88574-0.17068 0.31735-0.063 0.63559-0.12215 0.95099-0.19426 0.14212-0.0327 0.2025-0.0636 0.27167-0.19196 0.11188-0.20754-0.0033-0.38167-0.07939-0.58368-0.14766-0.39211-0.36011-0.75689-0.55532-1.1276-0.11323-0.21548-0.25122-0.43519-0.30594-0.67228-0.06278-0.27349-0.04315-0.53976-7.1e-4 -0.80457 0.03746-0.23393 0.06956-0.4758 0.17326-0.68881 0.10651-0.21864 0.24819-0.46352 0.46015-0.58268 0.28882-0.16238 0.61196-0.34472 0.9048-0.50936 0.15723-0.0883 0.52702 0.12272 0.52702 0.12272z"/>
 </g>
 <g stroke="#000000" stroke-linecap="square" stroke-width=".8">
  <path d="m35.549 112.25 2.1033 3.7415c0.17446 0.31034 0.045 0.71109 0.04454 1.0671-7.58e-4 0.51939 0.01136 1.0435-0.06898 1.5567-0.08417 0.53733-0.29471 1.0472-0.42929 1.5742-0.09385 0.36887-0.23357 0.73154-0.26401 1.111-0.03138 0.39095-0.10641 0.83158 0.08582 1.1735l17.032 30.298c0.15124 0.26902 0.46635 0.40861 0.72851 0.57152 0.31814 0.19766 0.65812 0.36672 1.0133 0.48548 0.2894 0.0966 0.59243 0.17204 0.89742 0.18034 0.40338 0.0111 0.84632 0.0241 1.1981-0.17371l38.808-21.816c0.30128-0.16936 0.71113-0.24204 1.0563-0.25967 0.65139-0.0334 1.2982 0.0411 1.9244 0.19453 0.59072 0.14463 1.156 0.39372 1.6945 0.67641 0.5346 0.28067 1.0348 0.62841 1.5081 1.0033 0.16802 0.13312 0.36423 0.2528 0.46926 0.43962l3.4947 6.2167" fill="none"/>
  <path d="m135.82 64.111-2.5493-4.5349 4.4956-2.5272 1.4984 2.6656 3.501-1.9681-1.498-2.6649 5.6892-3.1981 1.4757 2.6251 3.9386-2.2141-1.4764-2.6264 5.0526-2.8403 1.4988 2.6662 4.2171-2.3707-1.4993-2.6672 4.5752-2.5719 1.5888 2.8263 4.6548-2.6167-1.5877-2.8244 4.7742-2.6838 1.6548 2.9437 4.7074-2.6462-1.6513-2.9375 3.7026-2.0814 2.6366 4.6926z" fill="#ffd42a"/>
  <path d="m182.91 32.215 38.679-21.743" fill="none"/>
  <path d="m182.78 32.086 3.6325-2.042" fill="none"/>
  <path d="m53.689 138.15 4.0211-2.2604-8.1759-14.544-4.014 2.2565z" fill="#ffdd55"/>
  <path d="m41.83 117.02 3.6904 6.5766 4.014-2.2564-3.6954-6.5738" fill="url(#linearGradient1225-6)"/>
  <path d="m57.541 144.99-3.8514-6.8396 4.014-2.2565 3.8464 6.8424" fill="none"/>
  <path d="m134.95 124.08-0.48916 5.8459c-7.9977 4.4959-12.228 6.8311-14.049 7.8547-0.25451-0.12703-0.51447-0.24374-0.78111-0.34733-1.0289-0.39996-2.0878-0.67491-3.1916-0.66911-1.4328 7e-3 -2.876 0.25634-4.2439 0.68271-0.18103 0.0567-0.65507 0.21456-1.5848 0.71198-1.5443 0.82637-3.7704 2.1351-3.7704 2.1351l-0.17854-0.31761z" fill="#ffd42a"/>
  <path d="m80.42 170.06c-7.0263-2.634-20.135-5.75-18.909-10.122 1.4762-5.2666 17.966-7.5202 26.935-9.6337l18.221-10.334 0.17853 0.31758s-1.5484 1.1041-3.9823 2.7945l-3.0824 2.288s-6.9055 4.7821-9.9476 7.5631c-1.0822 0.98928-2.1425 1.9069-2.9008 3.1026-0.50387 0.7945-0.83122 1.706-1.0432 2.6226-0.33211 1.436-0.26755 2.9366-0.33522 4.4089-0.04138 0.89574-0.03511 1.793-0.04296 2.6897-0.0042 0.48167-0.08372 0.97032-0.0021 1.4451z" fill="url(#linearGradient1276-2)"/>
  <path d="m80.42 170.06-10.794 6.0676" fill="none"/>
 </g>
 <g fill="#ffd42a" stroke="#000000" stroke-linecap="square" stroke-width=".8">
  <path d="m81.781 174.97 0.5522-3.9571-1.913-0.94509 5.088-2.8576s0.16629 0.81536 0.29106 1.2149c0.10966 0.35124 0.24453 0.69731 0.39751 1.0331 0.12928 0.28392 0.27822 0.55917 0.43864 0.82675 0.17062 0.28473 0.36016 0.55815 0.55606 0.82616 0.09995 0.13686 0.31561 0.3985 0.31561 0.3985l-0.24852 4.3544z"/>
  <path d="m82.333 171.01 3.1751-3.8025-5.088 2.8576 1.913 0.94509"/>
  <path d="m44.357 100.82 2.8752 5.1147-2.5562 1.4369-1.8115-3.2225-4.247 2.3874-1.1809-1.8269z"/>
  <path d="m44.357 100.82-0.09504 0.0533-1.3974 3.2756 1.8115 3.2225 2.5562-1.4369z"/>
 </g>
 <g stroke="#000000" stroke-linecap="square" stroke-width=".8">
  <path d="m45.596 108.62 5.5196 11.256 38.648-21.726-6.6079-10.644z" fill="#ffdd55"/>
  <path d="m89.764 98.15 8.2793 14.728-38.642 21.722-8.2853-14.725z" fill="#ffd42a"/>
  <path d="m66.148 145.17-6.7474-10.566 38.648-21.726 5.6591 11.178z" fill="#ffdd55"/>
 </g>
 <g fill="#ffeeaa" stroke="#000000" stroke-linecap="square" stroke-width=".8">
  <path d="m61.917 120.67c-0.8171 0.47586-3.0708-2.7681-4.2097-3.4432-0.27814-0.16483-1.6181 0.58752-1.7205 0.40538-0.31164-0.55438-0.67447-1.1998-0.90738-1.6142-0.20979-0.37318 3.03-2.1221 3.03-2.1221s2.8404-1.67 3.0547-1.2887c0.25446 0.45265 0.67809 1.1992 0.96899 1.7167 0.12762 0.22704-0.87877 0.53521-1.0056 0.98761-0.06901 0.2462 1.4819 4.9552 0.78972 5.3583z"/>
  <path d="m55.079 116.02c-0.20977-0.37321 3.03-2.1221 3.03-2.1221s2.8404-1.67 3.0547-1.2887c-1.5447 1.32-2.6848 1.9613-2.6848 1.9613s-2.1639 1.28-3.4 1.4495z"/>
  <path d="m61.917 120.67c-0.8171 0.47586-3.0708-2.7681-4.2097-3.4432 0 0 1.1274-0.56879 1.6457-0.85736 0.62374-0.34719 1.7743-1.0578 1.7743-1.0578-0.06901 0.24619 1.4819 4.9552 0.78972 5.3583z"/>
  <path d="m65.593 134.52 6.2221-3.4977 0.87844 1.5627-1.5208 0.85491c-0.17102 0.0961-0.4045-3e-3 -0.59806 0.0467-0.24876 0.0644-0.46371 0.15363-0.69276 0.27013-0.19505 0.099-0.40986 0.2225-0.59057 0.34583-0.18126 0.12338-0.35012 0.28156-0.49993 0.4417-0.1109 0.11846-0.14028 0.31754-0.28172 0.39707l-2.0371 1.1451z"/>
  <path d="m65.593 134.52s0.67007 1.1943 0.84489 1.5053c0.08564 0.15229 0.05382-0.0784 0.2533-0.415 0.15289-0.25795 0.34754-0.48969 0.54206-0.71789 0.15543-0.18243 0.31783-0.36057 0.498-0.51864 0.26264-0.23042 0.5522-0.42945 0.84416-0.62144 0.26528-0.17442 0.5432-0.32936 0.82236-0.4806 0.24666-0.13339 0.48923-0.27895 0.75209-0.37691 0.25327-0.0949 0.52266-0.20691 0.78473-0.27383 0.24644-0.0629 0.48647-0.11099 0.74076-0.11554 0.78835-0.0143 1.121 0.26291 0.95418-0.0338l-0.81472-1.4493z"/>
 </g>
 <path d="m91.372 101.01s0.52416-0.29611 0.79278-0.44709c0.3415-0.19199-0.0892-0.99159 0.25218-1.1836 0.43398-0.24398 1.4454-0.79839 1.4454-0.79839l5.8181 10.35s-0.91789 0.51554-1.3977 0.78526c-0.3647 0.205-0.82667-0.577-1.1422-0.39966-0.26093 0.14671-0.83587 0.46842-0.83587 0.46842z" fill="#ffd42a" stroke="#000000" stroke-linecap="square" stroke-width=".8"/>
 <path d="m92.237 100.52 4.9295 8.7691" fill="none" stroke="#000000" stroke-linecap="square" stroke-width=".8"/>
 <g fill="#ffd42a" stroke="#000000" stroke-linecap="square" stroke-width=".8">
  <g>
   <path d="m97.649 112.22 2.94-1.6527 6.3492 11.295-3.3973 1.9098-5.4976-10.89z"/>
   <path d="m50.476 122.27 1.5112-0.84949 6.1952 11.016-1.5078 0.84761z"/>
   <path d="m106.84 140.29-4.1153 2.905s-2.107 2.3525-2.7667 3.7625c-0.63575 1.3586-0.99045 2.872-1.0752 4.3696-0.09302 1.6493 0.21651 3.3168 0.63369 4.9151 0.26522 1.016 0.71024 1.9813 1.1755 2.9226 0.42476 0.85926 0.84266 1.7462 1.4679 2.4726 1.0255 1.1916 2.3907 2.0459 3.6515 2.985 0.6089 0.45354 1.3513 0.73792 1.8862 1.2767 0.35189 0.35443 0.74434 0.75495 0.83075 1.2469 0.0553 0.31544 0.0263 0.73854-0.2283 0.93335-0.41086 0.31481-1.0553 0.10825-1.5524-0.0363-1.0416-0.30267-1.9028-1.0513-2.7875-1.6789-0.99543-0.70618-2.0143-1.4188-2.8194-2.3362-0.70257-0.80063-1.2162-1.7444-1.7854-2.6448-0.67822-1.073-1.1961-2.2594-1.9578-3.2749-0.523-0.69729-0.99984-1.4829-1.727-1.9635-0.58813-0.38873-1.3127-0.5487-2.0085-0.66274-0.97711-0.16022-1.9816-0.0691-2.9704-0.0182-0.49963 0.0258-1.0445 0.0904-1.5431 0.0495-0.56364-0.0463-1.5583-0.32529-1.5583-0.32529l0.47104-0.56955 0.6321-0.65399 0.5439-0.48751 0.56242-0.52391 0.60186-0.54607 0.8911-0.74763 0.64379-0.5177 0.80042-0.63174 1.0908-0.80797 1.1618-0.91271 0.78313-0.5701 0.91572-0.65761 1.5774-1.1204 1.1414-0.81042 1.0076-0.74817 1.1118-0.7938 0.68326-0.53989 1.0131-0.73834 1.34-0.89604 1.4208-1.0064z"/>
   <path d="m145.92 82.067 94.165-52.937 1.5772 2.8058-94.173 52.939z"/>
   <path d="m99.312 108.27 46.598-26.197 1.5772 2.8058-46.605 26.199z"/>
  </g>
  <circle transform="rotate(-29.342)" cx="-55.032" cy="134.7" r="4.0335"/>
  <circle transform="rotate(-29.342)" cx="-28.27" cy="118.88" r="3.2332"/>
 </g>
 <g stroke="#000000" stroke-linecap="square" stroke-width=".8">
  <circle transform="rotate(-29.342)" cx="-22.796" cy="111.36" r="2.705" fill="#ffdd55"/>
  <path d="m50.444 105.88s0.65703 0.0265 0.98122-0.0184c0.31336-0.0425 0.61691-0.14175 0.91906-0.23502 0.31403-0.0969 0.62516-0.20582 0.92669-0.33656 0.24596-0.10665 0.49208-0.21846 0.71712-0.36414 0.22802-0.1477 0.44169-0.32026 0.63392-0.51219 0.16658-0.1663 0.31895-0.32853 0.46428-0.51369 0.15226-0.19409 0.28608-0.41567 0.42815-0.62418 0.08553-0.12546 0.25534-0.37723 0.25534-0.37723z" fill="#ffeeaa"/>
  <path d="m71.293 137.11c0.46418-0.26096-0.12001-3.6667-0.12001-3.6667s-0.4045-3e-3 -0.59806 0.0467c-0.24876 0.0644-0.46371 0.15363-0.69276 0.27013-0.19505 0.099-0.40986 0.2225-0.59057 0.34583-0.18126 0.12338-0.35012 0.28156-0.49993 0.4417-0.1109 0.11846-0.14028 0.31754-0.28172 0.39707 0 0 2.3012 2.4363 2.7831 2.1654z" fill="#ffeeaa"/>
  <circle transform="rotate(-29.342)" cx="20.568" cy="169.31" r="3.0898" fill="#ffd42a"/>
  <circle transform="rotate(-29.342)" cx="55.212" cy="169.26" r="2.6257" fill="#ffd42a"/>
  <path d="m57.541 144.99-3.8514-6.8396 4.014-2.2565 3.8464 6.8424" fill="url(#linearGradient1225-7-9)"/>
 </g>
</svg>
