<svg xmlns="http://www.w3.org/2000/svg" xmlns:xlink="http://www.w3.org/1999/xlink" cursor="default" viewBox="0 0 256 256">
    <defs>
        <linearGradient id="innoGrad1">
            <stop offset="0" stop-color="#f55"/>
            <stop offset="1" stop-color="#faa"/>
        </linearGradient>
        <linearGradient id="linearGradient901" x1="202.376" x2="74.255" y1="122.266" y2="122.585" gradientUnits="userSpaceOnUse" xlink:href="#innoGrad1"/>
    </defs>
    <g>
        <path fill="url(#linearGradient901)" stroke="#000" d="M32.136 24.814c-2.442 10.577-5.626 17.678-6.102 26.44-11.038 58.354-.942 94.062-6.305 153.766 50.022-7.975 89.951-5.67 105.357-6.712-3.067-22.324 1.973-50.431 1.017-60.001 5.943 9.566 26.629 10.206 39.773-4.686 37.683-47.583 55.762-83.505 80.335-87.734-.844-3.796.272-12.192.504-15.988-50.56 10.343-99.897 51.57-214.579-5.085z"/>
        <path fill="none" stroke="#000" stroke-opacity=".747" d="M37.106 51.2c43.853 26.726 77.997 55.033 88.997 87.107M77.95 105.564c9.186 5.397 22.292 12.186 48.153 32.743"/>
        <path fill="none" stroke="#000" stroke-opacity=".751" d="M165.783 133.592c3.255-15.673 8.546-35.313 18.026-46.909"/>
        <path fill="none" stroke="#000" stroke-opacity=".747" d="M29.627 37.969c4.909 7.555 16.853 16.869 27.613 25.887"/>
        <path fill="#ff2a2a" fill-opacity=".498" d="M26.034 51.255l3.018 5.698c-6.284 77.659-2.189 85.496 4.834 133.516 43.343.503 69.07 7.097 90.31-.193l.89 8.032c-33.567-2.64-69.12.961-105.357 6.712 6.74-60.619-4.723-86.62 6.305-153.765z"/>
        <path fill="#f55" fill-opacity=".498" d="M77.95 105.564v-5.465c45.663 28.625 35.469 24.826 24.738 1.15 10.242 9.804 17.772 22.68 23.415 37.058-16.05-14.703-32.102-24.093-48.152-32.743z"/>
        <path fill="none" stroke="#000" stroke-opacity=".751" d="M183.809 86.683c-9.575 8.555-15.808 30.13-17.933 46.938"/>
    </g>
</svg>
