<svg xmlns="http://www.w3.org/2000/svg" xmlns:xlink="http://www.w3.org/1999/xlink" cursor="default" viewBox="0 0 256 256">
    <defs>
        <linearGradient id="innoGrad3">
            <stop offset="0" stop-color="#fd5"/>
            <stop offset="1" stop-color="#ffe680"/>
        </linearGradient>
        <linearGradient id="innoGrad2">
            <stop offset="0" stop-color="#f95"/>
            <stop offset="1" stop-color="#ffb380"/>
        </linearGradient>
        <linearGradient id="innoGrad1">
            <stop offset="0" stop-color="#f55"/>
            <stop offset="1" stop-color="#ff8080"/>
        </linearGradient>
        <linearGradient id="linearGradient891" x1="169.821" x2="145.82" y1="139.699" y2="147.177" gradientTransform="translate(-31.919 -22.342) scale(1.15967)" gradientUnits="userSpaceOnUse" xlink:href="#innoGrad1"/>
        <linearGradient id="linearGradient899" x1="166.082" x2="120.773" y1="71.095" y2="58.058" gradientTransform="translate(-31.919 -22.342) scale(1.15967)" gradientUnits="userSpaceOnUse" xlink:href="#innoGrad1"/>
        <linearGradient id="linearGradient900" x1="364.314" x2="316.906" y1="67.721" y2="73.474" gradientTransform="translate(-285.241 -60.081) scale(1.15967)" gradientUnits="userSpaceOnUse" xlink:href="#innoGrad2"/>
        <linearGradient id="linearGradient908" x1="166.017" x2="140.067" y1="164.434" y2="166.16" gradientTransform="translate(-31.919 -22.342) scale(1.15967)" gradientUnits="userSpaceOnUse" xlink:href="#innoGrad2"/>
        <linearGradient id="linearGradient916" x1="149.865" x2="128.245" y1="81.666" y2="81.666" gradientTransform="translate(-31.919 -22.342) scale(1.15967)" gradientUnits="userSpaceOnUse" xlink:href="#innoGrad3"/>
    </defs>
    <g>
        <path fill="url(#linearGradient899)" stroke="#000" stroke-width="1.16" d="M99.84 48.04l1.002 10.008c15.415-4.217 29.376-4.07 43.03-3.003l2.525-20.495c.35-21.76 3.236 35.023 3.48 46.286 8.5-5.555 13.409-18.909 13.725-18.649-2.56-7.074-3.907-14.137-1.286-18.744 1.48-2.601-.74 2.16-2.66-3.218-3.506-9.814-2.043-27.457-13.945-29.23"/>
        <path fill="url(#linearGradient900)" stroke="#000" stroke-width="1.16" d="M99.575 32.993c8.566-3.367 34.22-21.845 37.114-29.167 4.665 3.896 6.659 7.039 9.022 7.168-1.906 2.203-2.493 4.112-6.293 7.998C128.204 30.46 112.54 38.48 99.841 48.04c-2.178-4.965-1.12-6.123-.266-15.047z"/>
        <path fill="url(#linearGradient916)" stroke="#000" stroke-width="1.16" d="M143.872 55.045c2.262 9.563 2.427 19.125 3.002 28.687-16.122-1.04-32.245-.182-48.367 2.335-.248-8.656-.058-17.604 2.335-28.02 9.336-2.554 20.924-4.41 43.03-3.002z"/>
        <path fill="url(#linearGradient908)" stroke="#000" stroke-width="1.16" d="M98.507 86.067c-1.607 3.7-2.084 8.457-2.669 11.342 31.528 57.356 42.581 92.432 59.709 156.443 10.29-13.636 19.84-25.054 28.353-33.357l-4.003-14.343c-10.337 7.92-14.468 20.138-18.012 21.348C152 192.928 130.636 101.946 98.507 86.067"/>
        <path fill="url(#linearGradient891)" stroke="#000" stroke-linejoin="round" stroke-width="1.16" d="M179.897 206.152c-9.743-43.335-19.78-86.083-33.023-122.42-16.369-.946-32.442.177-48.367 2.335 35.126 18.538 57.592 125.602 63.378 141.433 6.075-5.812 9.246-15.317 18.012-21.348z"/>
        <path fill="none" stroke="#000" stroke-width=".723" d="M99.103 35.587c3.274 3.003 8.49 6.212 9.66 5.639M107.702 28.95c2.163 2.003 8.658 6.318 11.475 5.924M117.102 22.22c2.993 2.703 9.95 6.219 11.832 6.253M125.419 16.174c2.074 2.983 7.584 5.49 11.06 6.042M132.504 9.24c1.61 3.181 10.917 7.733 10.416 5.53M96.394 93.469c4.947-.076 10.3 1.56 14.27 2.712M100.64 105.734c6.166.03 12.304.236 18.161 2.123M107.716 118.943c5.896-.083 12.618-.22 18.515 2.123M113.023 130.618c5.962.132 11.767-.05 18.633 1.887M119.155 143.473c5.765.311 12.67-.098 17.572 1.651M124.698 156.21c7.332-.246 12.408.106 16.629 1.415M129.651 168.24c6.601-.26 11.27 1.091 16.04 2.358M134.369 181.448c5.251.205 10.672-.098 15.331 1.887M138.26 193.713c4.645-.088 9.317-.043 14.27 1.415M142.152 205.035c4.56-.067 9.12-.274 13.68 1.18M145.454 216.12c3.767-.21 7.66-.318 12.973.708M149.11 228.975c-1.216-1.1 10.31-2.883 12.775-1.475 4.613 1.085 6.704 4.247 8.807 6.9M152.53 240.415c2.634-1.178 7.86-2.935 12.737 1.18M168.216 220.012c4.36.571 8.177 1.793 10.968 4.246M173.287 211.64c5.692-.514 9.31 4.568 9.199 4.716"/>
        <path fill="none" stroke="#000" stroke-linecap="round" stroke-opacity=".771" stroke-width=".723" d="M98.84 78.648c12.903 1.205 25.42.741 38.027-.42"/>
        <path fill="none" stroke="#000" stroke-linecap="round" stroke-opacity=".727" stroke-width=".723" d="M107.68 73.392c8.132 1.627 39.103.409 38.36-.334v0"/>
        <path fill="none" stroke="#000" stroke-linejoin="round" stroke-opacity=".731" stroke-width=".723" d="M112.183 68.555c14.154-.028 22.516.23 22.516.167-7.661.721-15.17.684-22.516-.167zM145.04 63.551c-11.939 1.092-25.938 1.15-39.695.334 6.502.124 21.322-.113 39.694-.334z"/>
        <path fill="none" stroke="#000" stroke-linecap="round" stroke-opacity=".7" stroke-width=".723" d="M101.008 59.882c25.017-3.252 30.84-2.025 37.527-1"/>
        <path fill="none" stroke="#000" stroke-width=".285" d="M127.46 38.15c3.903-.192 7.099 3.937 7.498 4.077"/>
        <path fill="none" stroke="#000" stroke-linecap="round" stroke-width=".5" d="M149.142 70.903c4.236-11.291 6.21-12.174 8.629-15.1M162.23 44.728c-6.293 7.34-9.088 11.168-8.63 10.643"/>
        <path fill="#ff2a2a" fill-opacity=".703" d="M100.53 49.474c46.694-8.67 42.191-11.408 45.076-14.924l-2.453 19.848c-30.662-1.981-30.56 1.102-41.808 2.859z"/>
    </g>
    <path fill="none" stroke="#000" stroke-width=".28527882" d="M126.516 41.613c-.394-.203.08-.632.338-.655.7-.064 1.074.74.974 1.331-.18 1.058-1.364 1.555-2.326 1.292-1.41-.386-2.045-1.995-1.61-3.32.488-1.48 2.06-2.318 3.569-2.112M136.573 36.515c.378-.684-.735-.848-1.137-.63-1.088.593-.847 2.135-.122 2.903 1.298 1.373 3.518.94 4.668-.386 1.688-1.945 1.041-4.921-.893-6.433-2.161-1.69-5.282-1.379-7.288.4"/>
    <path fill="none" stroke="#000" stroke-width=".285" d="M131.8 32.369c-4.145 7.383 9.268 14.756 11.296 13.278"/>
    <path fill="none" stroke="#000" stroke-width=".314" d="M130.712 99.302c.24.925-1.13.78-1.538.399-1.109-1.033-.354-2.787.74-3.475 1.955-1.232 4.452-.042 5.411 1.878 1.407 2.818-.266 6.147-3.017 7.349-3.667 1.601-7.851-.571-9.285-4.156-1.805-4.511.875-9.56 5.294-11.222a9.715 9.715 0 013.918-.6" transform="matrix(-.55044 -.63198 .93558 -.41726 98.776 216.53)"/>
    <path fill="none" stroke="#000" stroke-width=".28527882" d="M133.816 91.483c.545.123.104.795-.204.906-.833.3-1.543-.562-1.608-1.315-.117-1.346 1.17-2.325 2.425-2.31 1.841.024 3.124 1.784 3.012 3.536-.126 1.957-1.775 3.477-3.679 3.702M145.868 113.162c-.642-.047-.38.841-.08 1.066.818.61 1.887-.102 2.211-.908.58-1.442-.508-2.952-1.895-3.355-2.034-.592-4.036.916-4.5 2.881-.518 2.197.788 4.422 2.808 5.31"/>
    <path fill="none" stroke="#000" stroke-width=".155" d="M137.697 108.408c.362-.373.681.304.62.602-.167.807-1.196.951-1.824.638-1.124-.561-1.277-2.058-.655-3.046.912-1.45 2.931-1.612 4.267-.672 1.492 1.05 1.896 3.095 1.151 4.716" transform="matrix(-.59402 -1.79648 -1.69175 .5594 396.556 288.885)"/>
    <path fill="none" stroke="#000" stroke-width=".28527882" d="M132.807 112.09c-.345.561-.928-.189-.934-.574-.018-1.045 1.215-1.509 2.08-1.295 1.547.383 2.151 2.193 1.656 3.588-.728 2.047-3.182 2.808-5.096 2.016-2.55-1.056-3.472-4.175-2.376-6.602.703-1.56 2.123-2.712 3.767-3.154M145.499 105.533c.522.12.095.764-.2.868-.8.284-1.478-.546-1.537-1.268-.106-1.291 1.133-2.226 2.336-2.205 1.767.03 2.99 1.724 2.874 3.404-.128 1.878-1.717 3.328-3.545 3.537M145.235 121.024c-.384 1.015-1.558-.016-1.688-.638-.35-1.683 1.498-2.814 2.963-2.737 2.62.14 4.156 2.88 3.787 5.288-.543 3.535-4.275 5.525-7.613 4.836-3.73-.77-6.207-4.352-6.127-8.075"/>
    <path fill="none" stroke="#000" stroke-width=".28527882" d="M134.054 119.476c.374-.227-.122-.616-.377-.622-.693-.015-1.005.801-.867 1.376.249 1.028 1.448 1.435 2.375 1.11 1.36-.474 1.874-2.1 1.355-3.372-.58-1.422-2.182-2.139-3.651-1.833M140.114 135.345c.636-.141.504.788.234 1.057-.73.73-1.907.173-2.349-.589-.791-1.362.08-3.034 1.412-3.64 1.954-.89 4.18.331 4.932 2.235.84 2.127-.146 4.549-2.043 5.732"/>
    <path fill="none" stroke="#000" stroke-width=".28527882" d="M145.514 142.12c1.16.419 1.136-1.357.695-1.928-1.195-1.547-3.538-.785-4.552.538-1.814 2.366-.582 5.717 1.772 7.176 3.454 2.142 7.93.388 9.8-3.005 2.09-3.792.823-8.576-2.452-11.256M162.439 150.794c.437.259-.133.717-.43.727-.804.026-1.177-.918-1.023-1.586.275-1.197 1.662-1.684 2.742-1.32 1.586.535 2.203 2.415 1.616 3.899-.655 1.657-2.506 2.51-4.215 2.173"/>
    <path fill="none" stroke="#000" stroke-width=".28527882" d="M154.327 148.762c-.34.195-.43-.363-.323-.566.29-.55 1.066-.44 1.457-.081.698.642.496 1.76-.162 2.347-.966.861-2.465.556-3.238-.405-.863-1.074-.728-2.643.152-3.663"/>
    <path fill="none" stroke="#000" stroke-width=".28527882" d="M159.54 156.631c-.875.34-.89-1.013-.565-1.456.882-1.2 2.68-.663 3.477.326 1.426 1.768.55 4.343-1.216 5.498-2.59 1.695-6.032.442-7.519-2.107-1.662-2.85-.786-6.516 1.658-8.618"/>
    <path fill="none" stroke="#000" stroke-width=".28527882" d="M155.871 165.945c-.49-.278.133-.797.462-.813.89-.046 1.322.992 1.165 1.736-.281 1.33-1.807 1.899-3.011 1.517-1.768-.56-2.489-2.631-1.87-4.286.693-1.85 2.726-2.832 4.627-2.493"/>
    <path fill="none" stroke="#000" stroke-width=".28527882" d="M149.633 161.1c-.135.495.6.427.821.226.602-.546.21-1.49-.371-1.867-1.039-.674-2.386-.055-2.913.967-.774 1.5.098 3.295 1.563 3.959 1.638.742 3.578.061 4.58-1.382"/>
    <path fill="none" stroke="#000" stroke-width=".285" d="M161.022 188.052c.578-.264.642.649.44.961-.548.846-1.784.555-2.362-.081-1.033-1.138-.544-2.912.603-3.762 1.682-1.248 4.056-.539 5.162 1.124 1.236 1.857.79 4.37-.777 5.886"/>
    <path fill="none" stroke="#000" stroke-width=".28527882" d="M160.046 178.782c-.657.31.093 1.039.515 1.093 1.142.145 1.799-1.149 1.67-2.122-.232-1.74-2.141-2.62-3.729-2.247-2.33.549-3.46 3.144-2.825 5.335.711 2.449 3.232 3.912 5.712 3.661"/>
    <path fill="none" stroke="#000" stroke-width=".285" d="M165.857 195.246c.801.44-.196 1.297-.73 1.332-1.444.095-2.17-1.58-1.933-2.79.424-2.167 2.887-3.126 4.851-2.536 2.882.867 4.103 4.21 3.138 6.912-1.08 3.019-4.356 4.662-7.449 4.158"/>
    <path fill="none" stroke="#000" stroke-width=".28527882" d="M170.273 210.844c-.217.415-.667-.088-.69-.36-.064-.74.787-1.13 1.41-1.021 1.117.195 1.634 1.449 1.351 2.462-.414 1.488-2.117 2.148-3.513 1.68-1.56-.522-2.436-2.185-2.21-3.777M171.46 188.523c.357.346-.289.652-.573.594-.771-.158-.912-1.14-.613-1.741.533-1.075 1.963-1.224 2.908-.633 1.386.869 1.546 2.798.652 4.075-1 1.428-2.954 1.82-4.503 1.111M166.784 158.572c-.274.396-.669-.174-.658-.456.03-.762.947-1.05 1.57-.859 1.112.341 1.479 1.686 1.06 2.682-.612 1.463-2.432 1.919-3.795 1.264-1.523-.733-2.203-2.54-1.769-4.134M160.006 170.577c.2-.487-.558-.51-.81-.333-.683.48-.402 1.495.144 1.953.975.819 2.428.356 3.096-.62.98-1.434.315-3.377-1.097-4.24-1.579-.964-3.645-.514-4.85.834M166.329 175.937c-.025.554-.76.24-.92-.042-.438-.761.28-1.604 1.003-1.798 1.294-.348 2.475.738 2.677 1.966.298 1.802-1.198 3.36-2.928 3.555-1.933.218-3.703-1.128-4.255-2.948M140.788 93.546c-.001-.438-.59-.214-.727.002-.37.586.167 1.274.731 1.452 1.008.318 1.976-.499 2.177-1.46.295-1.411-.832-2.69-2.19-2.902-1.517-.237-2.958.765-3.454 2.181"/>
    <path fill="none" stroke="#000" stroke-width=".155" d="M137.697 108.408c.362-.373.681.304.62.602-.167.807-1.196.951-1.824.638-1.124-.561-1.277-2.058-.655-3.046.912-1.45 2.931-1.612 4.267-.672 1.492 1.05 1.896 3.095 1.151 4.716" transform="matrix(1.75376 .71028 .66887 -1.65153 -172.392 174.95)"/>
    <path fill="none" stroke="#000" stroke-width=".28527882" d="M153.687 129.642c.664.665 1.223-.567 1.105-1.104-.322-1.454-2.185-1.689-3.313-1.106-2.018 1.042-2.256 3.751-1.107 5.52 1.686 2.598 5.34 2.841 7.73 1.11 2.67-1.936 3.35-5.644 1.962-8.554M163.832 209.457c-.809-.425.173-1.3.705-1.345 1.443-.12 2.199 1.54 1.984 2.755-.385 2.174-2.83 3.177-4.805 2.622-2.897-.814-4.178-4.136-3.261-6.854 1.025-3.038 4.27-4.74 7.372-4.292"/>
    <path fill="none" stroke="#000" stroke-width=".246" d="M169.793 155.687c.408.074.101.587-.123.679-.61.248-1.163-.369-1.235-.925-.129-.995.795-1.763 1.727-1.79 1.367-.041 2.374 1.225 2.346 2.529-.031 1.456-1.208 2.636-2.614 2.863" transform="matrix(-.50609 .4903 -.42098 -.50712 327.296 187.096)"/>
    <path fill="none" stroke="#000" stroke-width=".28527882" d="M140.522 149.647c.346.185.42-.375.308-.575-.305-.543-1.078-.41-1.459-.041-.68.661-.447 1.773.227 2.342.988.834 2.479.488 3.225-.494.833-1.098.655-2.663-.253-3.658M151.555 171.052c-.538-.488-.923.484-.811.894.303 1.11 1.75 1.221 2.6.729 1.518-.88 1.6-2.982.646-4.305-1.4-1.942-4.23-1.991-6.01-.564-1.99 1.595-2.375 4.484-1.193 6.678M158.02 200.647c-.357.345.29.652.574.593.771-.157.911-1.14.613-1.74-.533-1.076-1.963-1.225-2.908-.633-1.387.868-1.547 2.797-.652 4.075 1 1.428 2.953 1.819 4.503 1.11"/>
</svg>
