<?xml version="1.0" encoding="UTF-8" standalone="no"?>
<svg
   xmlns:dc="http://purl.org/dc/elements/1.1/"
   xmlns:cc="http://creativecommons.org/ns#"
   xmlns:rdf="http://www.w3.org/1999/02/22-rdf-syntax-ns#"
   xmlns:svg="http://www.w3.org/2000/svg"
   xmlns="http://www.w3.org/2000/svg"
   xmlns:xlink="http://www.w3.org/1999/xlink"
   xmlns:sodipodi="http://sodipodi.sourceforge.net/DTD/sodipodi-0.dtd"
   xmlns:inkscape="http://www.inkscape.org/namespaces/inkscape"
   version="1.1"
   id="svg4206"
   viewBox="0 0 256 256"
   sodipodi:docname="riderslacks.svg"
   inkscape:version="0.92.3 (2405546, 2018-03-11)">
  <sodipodi:namedview
     pagecolor="#ffffff"
     bordercolor="#666666"
     borderopacity="1"
     objecttolerance="10"
     gridtolerance="10"
     guidetolerance="10"
     inkscape:pageopacity="0"
     inkscape:pageshadow="2"
     inkscape:window-width="1920"
     inkscape:window-height="1001"
     id="namedview4713"
     showgrid="false"
     inkscape:zoom="0.921875"
     inkscape:cx="128"
     inkscape:cy="128"
     inkscape:window-x="-9"
     inkscape:window-y="41"
     inkscape:window-maximized="1"
     inkscape:current-layer="svg4206" />
  <style
     id="style3">
    svg { cursor: default; }
  </style>
  <defs
     id="defs4208">
    <linearGradient
       id="innoGrad1">
      <stop
         id="stop2049"
         offset="0"
         style="stop-color:#ffb380;stop-opacity:1" />
      <stop
         id="stop2051"
         offset="1"
         style="stop-color:#ffccaa;stop-opacity:1" />
    </linearGradient>
    <linearGradient
       id="innoGrad2">
      <stop
         id="stop2041"
         offset="0"
         style="stop-color:#ff5555;stop-opacity:1" />
      <stop
         id="stop2043"
         offset="1"
         style="stop-color:#ff8080;stop-opacity:1" />
    </linearGradient>
    <linearGradient
       id="innoGrad3">
      <stop
         id="stop2029"
         offset="0"
         style="stop-color:#ff7f2a;stop-opacity:1" />
      <stop
         id="stop2031"
         offset="1"
         style="stop-color:#ffb380;stop-opacity:1" />
    </linearGradient>
    <linearGradient
       gradientTransform="matrix(1.331,0,0,1.331,-490.46908,-294.95669)"
       gradientUnits="userSpaceOnUse"
       y2="867.25134"
       x2="460.75552"
       y1="867.53186"
       x1="466.69437"
       id="linearGradient2027"
       xlink:href="#innoGrad1" />
    <linearGradient
       gradientTransform="matrix(1.331,0,0,1.331,-490.46908,-294.95669)"
       gradientUnits="userSpaceOnUse"
       y2="837.32593"
       x2="466.05914"
       y1="846.54358"
       x1="465.996"
       id="linearGradient2035"
       xlink:href="#innoGrad3" />
    <linearGradient
       gradientTransform="matrix(1.331,0,0,1.331,-490.46908,-294.95669)"
       gradientUnits="userSpaceOnUse"
       y2="932.22791"
       x2="459.06094"
       y1="931.9754"
       x1="472.66101"
       id="linearGradient2047"
       xlink:href="#innoGrad2" />
    <linearGradient
       gradientTransform="matrix(1.331,0,0,1.331,-490.46908,-294.95669)"
       gradientUnits="userSpaceOnUse"
       y2="949.95795"
       x2="416.43539"
       y1="951.97827"
       x1="429.4411"
       id="linearGradient2055"
       xlink:href="#innoGrad1" />
    <linearGradient
       gradientTransform="matrix(1.331,0,0,1.331,-490.46908,-294.95669)"
       gradientUnits="userSpaceOnUse"
       y2="927.8609"
       x2="511.01093"
       y1="928.87103"
       x1="501.16193"
       id="linearGradient2063"
       xlink:href="#innoGrad1" />
    <linearGradient
       gradientTransform="matrix(1.331,0,0,1.331,-490.46908,-294.95669)"
       gradientUnits="userSpaceOnUse"
       y2="977.54071"
       x2="472.67856"
       y1="973.07642"
       x1="471.96429"
       id="linearGradient2088"
       xlink:href="#innoGrad1" />
    <linearGradient
       gradientTransform="matrix(1.331,0,0,1.331,-490.46908,-294.95669)"
       gradientUnits="userSpaceOnUse"
       y2="976.64789"
       x2="449.375"
       y1="973.9693"
       x1="450.17856"
       id="linearGradient2090"
       xlink:href="#innoGrad1" />
  </defs>
  <metadata
     id="metadata4211">
    <rdf:RDF>
      <cc:Work
         rdf:about="">
        <dc:format>image/svg+xml</dc:format>
        <dc:type
           rdf:resource="http://purl.org/dc/dcmitype/StillImage" />
        <dc:title></dc:title>
      </cc:Work>
    </rdf:RDF>
  </metadata>
  <path
     style="fill:#1a1a1a;stroke:#000000;stroke-width:2.11800432px;stroke-linecap:butt;stroke-linejoin:miter;stroke-opacity:1"
     d="m 52.061553,0.97370096 c 0,0 24.772115,17.10617704 31.291084,15.35170004 6.518967,-1.754481 2.607595,3.070338 16.51475,4.386198 13.907133,1.315861 28.248883,10.08826 37.810043,2.631722 9.56117,-7.456542 30.42192,-0.87724 33.46408,-6.140681 3.0422,-5.263439 5.2152,-9.2110192 11.73416,-5.702059 6.51898,3.508959 5.21519,9.649641 8.25737,10.9655 3.04218,1.315859 8.69198,4.824818 10.86498,15.351699 2.17297,10.526885 2.60757,14.474452 8.25735,17.544798 5.64978,3.070346 -3.91139,4.824829 -1.73838,10.965499 2.17297,6.140671 -0.4346,9.649635 3.91137,7.017911 4.346,-2.631704 0.8692,8.333796 0.43461,13.158603 -0.43461,4.824831 -4.78058,9.649633 1.30379,10.965498 6.08438,1.315861 10.86498,4.386211 9.56119,9.649641 -1.30381,5.26344 -2.6076,6.14069 1.30379,7.89517 3.91135,1.75449 4.78055,0.87724 2.60758,7.89514 -2.17299,7.01793 -0.86921,16.66758 1.73836,24.12411 2.6076,7.45653 8.69199,-1.31586 4.7806,7.45653 -3.91139,8.77239 -1.30379,10.52688 4.346,14.47447 5.64976,3.94758 5.64976,7.45654 6.95356,9.64963 1.3038,2.19311 9.56116,15.79033 8.69196,25.43996 -0.8692,9.64965 -4.78057,26.75584 -8.69196,31.14201 -3.9114,4.38622 -83.4429,-0.43861 -87.78888,-10.08823 -4.34597,-9.64966 -9.99575,5.26343 -9.12657,-5.70206 0.8692,-10.96549 6.9536,-22.36962 6.51899,-32.01925 -0.43459,-9.64968 -12.60335,-14.03585 -12.60335,-24.56273 0,-10.5269 -2.17301,-8.3338 0.86919,-14.91308 3.04218,-6.57932 -6.08438,-19.7379 -14.34176,-22.36962 -8.25736,-2.63174 -8.69196,-2.19311 -13.03795,7.45654 -4.34596,9.64962 -13.90714,6.14068 -4.78056,10.9655 9.12655,4.82481 16.51472,3.94758 13.03792,8.33376 -3.47677,4.3862 -10.43035,4.82484 -5.64977,21.4924 4.7806,16.66755 13.03796,19.29928 9.99577,23.68548 -3.04219,4.38619 -6.95357,4.82481 -10.86496,9.64963 -3.91139,4.82482 -15.21095,28.94892 -11.29956,33.77374 3.91139,4.82481 -60.409174,7.01792 -62.582169,-0.43862 -2.172992,-7.45653 -6.084376,-4.3862 -9.995762,-16.66757 -3.911386,-12.28135 -13.90715,-20.17651 -16.514741,-26.7558 -2.607592,-6.57931 12.603355,-26.75583 13.90715,-32.89652 1.303796,-6.14068 -10.430363,4.38621 2.172992,-14.03583 0,0 0.434599,-8.33379 0.869197,-12.71997 0.4346,-4.3862 3.042187,-1.31587 5.21518,-6.57932 2.172992,-5.26342 3.042192,-7.89516 0.4346,-16.22891 -2.607593,-8.33379 -4.345983,-7.01795 -4.780584,-9.21103 -0.434596,-2.19311 8.691968,-5.702065 9.126568,-18.422048 0.434599,-12.719982 -6.084379,0 0.434599,-15.790308 6.518976,-15.790326 6.953572,-7.01793 5.649779,-19.737913 -1.303795,-12.719972 -2.172991,-20.176512 -3.476788,-26.75581 -1.303795,-6.579303 2.607589,-8.33378 3.042188,-14.9130796 0.4346,-6.5793006 2.172994,-8.77240044 2.172994,-8.77240044 z"
     id="path5348"
     inkscape:connector-curvature="0" />
  <path
     style="fill:#000000;stroke:none;stroke-width:2.11800432px;stroke-linecap:butt;stroke-linejoin:miter;stroke-opacity:1"
     d="m 88.133228,65.012214 c 0,0 20.426122,9.649636 22.599122,7.895154 2.17297,-1.754464 13.47252,6.140692 18.68771,-1.31584 5.21519,-7.456554 8.69198,-4.38621 9.12657,-7.456554 0.4346,-3.070347 9.99576,7.895174 14.34176,3.508965 4.34599,-4.386208 -13.90716,6.14067 -13.90716,13.158603 0,7.017912 1.73839,8.333774 5.21519,7.895153 3.47679,-0.438621 12.16876,-2.631725 13.90714,-8.772394 1.7384,-6.140692 -7.82277,11.404121 -5.64978,17.544788 2.17301,6.140701 -9.56116,11.404101 -5.21518,16.667561 4.34599,5.26344 3.04219,9.21102 7.82278,5.26344 4.78058,-3.94759 8.25737,-7.89515 13.03797,-9.64965 4.78055,-1.75447 -6.08441,10.08826 -9.56118,12.72 -3.47679,2.63171 -0.86921,8.77239 4.78058,4.82481 5.64977,-3.94758 8.69197,0.87725 13.03796,-3.07033 4.34597,-3.94759 11.29955,-1.75448 12.60335,5.26342 1.30379,7.01793 10.86496,4.3862 4.34596,9.21104 -6.51896,4.8248 0.43461,11.84274 -10.43035,13.5972 -10.86495,1.75448 -18.25313,0.43863 -19.55692,3.50896 -1.30381,3.07035 8.69197,0.87724 9.56115,6.1407 0.86921,5.26342 1.30381,15.35169 -2.60758,15.35169 -3.91137,0 3.91139,2.19308 9.12657,6.14069 5.21517,3.94759 -5.64978,1.75447 -9.99576,3.94759 -4.34599,2.19307 -2.17298,13.15857 1.73838,14.03582 3.91141,0.87724 -0.86919,0 10.86495,-0.43863 11.73417,-0.43862 14.34177,4.82482 18.68776,0.43863 4.34596,-4.38619 6.08436,-4.82482 9.12654,-9.64965 3.04221,-4.8248 6.51899,3.07035 -1.30377,9.21102 -7.82277,6.14069 2.60758,4.82482 -6.51897,4.38622 -9.1266,-0.43862 -22.59913,-5.26346 -24.77211,-1.31588 -2.17299,3.9476 -2.17299,14.47448 3.47677,17.10619 5.64978,2.63171 7.38818,11.40414 16.51474,5.26344 9.12656,-6.14067 34.33327,-21.05375 41.28686,-15.79032 6.95356,5.26345 13.47253,0 8.25736,13.15859 -5.2152,13.1586 3.91138,10.9655 -3.0422,14.47446 -6.95357,3.50897 -6.51897,10.96551 -3.91137,14.03586 2.60757,3.07034 -66.92817,4.8248 -65.18976,0.43862 1.7384,-4.38622 7.38815,0.4386 3.0422,-10.08827 -4.346,-10.52687 -3.4768,-1.31585 -9.99577,-7.01792 -6.51899,-5.70204 -4.34599,-3.07032 -6.95359,-8.33379 -2.60759,-5.26343 -6.08436,1.31586 -9.56117,-4.8248 -3.47677,-6.1407 6.95358,-21.05377 3.47681,-34.21235 -3.47681,-13.15863 -11.73417,-17.1062 -12.60336,-21.93103 -0.8692,-4.82481 5.21517,0.43862 3.0422,-9.64964 -2.17301,-10.08826 -3.47681,-7.89515 -1.73841,-11.84274 1.73841,-3.94757 -2.17299,-9.21101 -7.82278,-14.03584 -5.64978,-4.8248 -9.56116,-12.28136 -13.90714,-2.6317 -4.346,9.64964 -15.21095,10.08825 -10.43035,15.79032 4.78056,5.70206 13.47253,0.43861 12.16875,7.89514 -1.3038,7.45656 -5.64979,4.38621 -6.0844,14.03585 -0.43459,9.64966 9.12658,21.93101 8.25738,29.82617 -0.8692,7.89515 -6.95358,12.71999 -7.38818,11.40411 -0.43459,-1.31587 -21.29531,26.31721 -12.16874,31.14201 9.12655,4.82485 -6.518972,8.33378 2.60759,16.22897 l -70.839545,-0.43863 c 0,0 1.303795,-14.03585 6.518976,-15.79034 5.215179,-1.75448 -5.215181,-25.00134 -7.822773,-25.87858 -2.607589,-0.87723 19.122332,-2.19308 23.033719,4.38621 3.911386,6.5793 6.518982,13.59722 12.60335,8.33379 6.08439,-5.26345 18.253127,0.87723 16.94935,-4.3862 -1.303798,-5.26346 -1.303798,-8.3338 2.172975,-10.9655 3.476795,-2.63173 14.341748,0 16.080148,-7.01793 1.7384,-7.01791 7.38817,-5.26343 4.7806,-10.52687 -2.6076,-5.26344 -3.4768,-4.82481 -3.9114,-10.52689 -0.4346,-5.70205 -22.164518,-5.70205 -26.510511,-7.45653 -4.345971,-1.75448 6.08439,0 13.907156,-3.94759 7.822775,-3.94759 12.168755,2.63172 10.864955,-6.14069 -1.30379,-8.77239 -7.822761,-3.50894 -20.860717,-5.70205 -13.037956,-2.1931 -24.772114,-1.31585 -24.772114,-4.82483 0,-3.50895 19.556924,0 26.94511,-3.50895 7.388168,-3.50897 12.168758,-0.87724 7.388168,-4.82482 -4.780593,-3.94759 -33.029481,-3.94759 -44.763638,-9.21102 C 38.589,130.8052 38.589,137.82314 38.589,130.8052 c 0,-7.01791 -2.172992,-16.66755 4.345984,-14.47444 6.518976,2.19308 12.168756,8.33377 24.7721,7.89516 12.603359,-0.43863 23.902918,2.63172 31.291104,0.43861 7.388162,-2.19309 4.345982,-0.87724 8.691962,-3.07034 4.346,-2.1931 -16.949347,-5.26343 -24.337513,-15.35169 -7.388166,-10.088276 -7.388166,-10.526897 -7.388166,-10.526897 0,0 0,2.193103 5.215171,2.193103 5.21519,0 2.607594,-4.824798 11.734157,0.438627 9.126571,5.263457 15.210951,11.404107 17.818551,7.017927 2.60756,-4.38621 -23.468319,-21.492395 -26.510515,-23.685476 -3.042193,-2.193105 10.430362,2.631703 15.210953,3.947567 4.780572,1.315861 14.341732,5.702071 12.603362,0.438619 -1.73841,-5.263428 6.08435,-1.754483 -6.08439,-7.456531 -12.168761,-5.702071 -16.514732,-4.386209 -17.818532,-7.017911 -1.303797,-2.631726 0,-6.579314 0,-6.579314 z"
     id="path4797"
     inkscape:connector-curvature="0" />
</svg>
