<?xml version="1.0" encoding="UTF-8" standalone="no"?>
<svg
   xmlns:dc="http://purl.org/dc/elements/1.1/"
   xmlns:cc="http://creativecommons.org/ns#"
   xmlns:rdf="http://www.w3.org/1999/02/22-rdf-syntax-ns#"
   xmlns:svg="http://www.w3.org/2000/svg"
   xmlns="http://www.w3.org/2000/svg"
   xmlns:xlink="http://www.w3.org/1999/xlink"
   xmlns:sodipodi="http://sodipodi.sourceforge.net/DTD/sodipodi-0.dtd"
   xmlns:inkscape="http://www.inkscape.org/namespaces/inkscape"
   cursor="default"
   viewBox="0 0 256 256"
   version="1.1"
   id="svg31"
   sodipodi:docname="BellyMawSeal.svg"
   inkscape:version="0.92.4 (5da689c313, 2019-01-14)">
  <metadata
     id="metadata37">
    <rdf:RDF>
      <cc:Work
         rdf:about="">
        <dc:format>image/svg+xml</dc:format>
        <dc:type
           rdf:resource="http://purl.org/dc/dcmitype/StillImage" />
        <dc:title />
      </cc:Work>
    </rdf:RDF>
  </metadata>
  <defs
     id="defs35">
    <linearGradient
       id="linearGradient988"
       inkscape:collect="always">
      <stop
         id="stop984"
         offset="0"
         style="stop-color:#ffaaaa;stop-opacity:0.25" />
      <stop
         style="stop-color:#ffaaaa;stop-opacity:0.71959459"
         offset="0.50000006"
         id="stop990" />
      <stop
         id="stop986"
         offset="1"
         style="stop-color:#ffd5d5;stop-opacity:0.25" />
    </linearGradient>
    <linearGradient
       inkscape:collect="always"
       id="linearGradient956">
      <stop
         style="stop-color:#ff8080;stop-opacity:1;"
         offset="0"
         id="stop952" />
      <stop
         style="stop-color:#ffd5d5;stop-opacity:1"
         offset="1"
         id="stop954" />
    </linearGradient>
    <linearGradient
       inkscape:collect="always"
       id="linearGradient940">
      <stop
         style="stop-color:#ffd5d5;stop-opacity:1"
         offset="0"
         id="stop936" />
      <stop
         id="stop948"
         offset="0.37078407"
         style="stop-color:#ff8080;stop-opacity:1" />
      <stop
         id="stop946"
         offset="0.57479101"
         style="stop-color:#ff5555;stop-opacity:1" />
      <stop
         style="stop-color:#ff8080;stop-opacity:1"
         offset="0.733823"
         id="stop950" />
      <stop
         style="stop-color:#ffd5d5;stop-opacity:1"
         offset="1"
         id="stop938" />
    </linearGradient>
    <linearGradient
       inkscape:collect="always"
       id="linearGradient823">
      <stop
         style="stop-color:#ececec;stop-opacity:1"
         offset="0"
         id="stop819" />
      <stop
         id="stop833"
         offset="0.19002034"
         style="stop-color:#ffffff;stop-opacity:1" />
      <stop
         id="stop831"
         offset="0.56341201"
         style="stop-color:#fff2c7;stop-opacity:1" />
      <stop
         style="stop-color:#ffffff;stop-opacity:1"
         offset="0.89855033"
         id="stop837" />
      <stop
         style="stop-color:#ececec;stop-opacity:1"
         offset="1"
         id="stop821" />
    </linearGradient>
    <linearGradient
       inkscape:collect="always"
       xlink:href="#linearGradient823"
       id="linearGradient825"
       x1="108.9184"
       y1="37.012623"
       x2="105.16034"
       y2="210.79968"
       gradientUnits="userSpaceOnUse"
       gradientTransform="matrix(1.3539849,0,0,1.3539849,-23.850763,-46.222395)" />
    <linearGradient
       inkscape:collect="always"
       xlink:href="#linearGradient940"
       id="linearGradient944"
       x1="107.14265"
       y1="142.1165"
       x2="118.61265"
       y2="144.86407"
       gradientUnits="userSpaceOnUse"
       gradientTransform="matrix(1.3539849,0,0,1.3539849,-23.850763,-46.222395)" />
    <linearGradient
       inkscape:collect="always"
       xlink:href="#linearGradient956"
       id="linearGradient958"
       x1="111.61969"
       y1="121.05357"
       x2="112.43352"
       y2="148.57899"
       gradientUnits="userSpaceOnUse"
       gradientTransform="matrix(1.3539849,0,0,1.3539849,-23.850763,-46.222395)" />
    <linearGradient
       inkscape:collect="always"
       xlink:href="#linearGradient988"
       id="linearGradient982"
       x1="111.66761"
       y1="112.48988"
       x2="112.88791"
       y2="154.25259"
       gradientUnits="userSpaceOnUse"
       gradientTransform="matrix(1.3539849,0,0,1.3539849,-23.850763,-46.222395)" />
  </defs>
  <sodipodi:namedview
     pagecolor="#ffffff"
     bordercolor="#666666"
     borderopacity="1"
     objecttolerance="10"
     gridtolerance="10"
     guidetolerance="10"
     inkscape:pageopacity="0"
     inkscape:pageshadow="2"
     inkscape:window-width="1304"
     inkscape:window-height="745"
     id="namedview33"
     showgrid="false"
     inkscape:zoom="1.84375"
     inkscape:cx="132.34205"
     inkscape:cy="127.82691"
     inkscape:window-x="-8"
     inkscape:window-y="-8"
     inkscape:window-maximized="1"
     inkscape:current-layer="svg31"
     inkscape:snap-global="false" />
  <path
     style="opacity:1;fill:url(#linearGradient825);fill-opacity:1;fill-rule:evenodd;stroke:#000000;stroke-width:2;stroke-linecap:round;stroke-linejoin:round;stroke-miterlimit:4;stroke-dasharray:none;stroke-dashoffset:0;stroke-opacity:1"
     d="M 22.414214,245.3204 H 157.81271 C 268.70153,196.60747 139.74206,59.538602 230.51483,8.8549586 H 95.116322 C 4.3435668,59.538602 133.30303,196.60747 22.414214,245.3204 Z"
     id="path811"
     inkscape:connector-curvature="0"
     sodipodi:nodetypes="ccccc" />
  <path
     style="opacity:1;fill:none;fill-opacity:1;fill-rule:evenodd;stroke:#ffcc00;stroke-width:3.5;stroke-linecap:round;stroke-linejoin:round;stroke-miterlimit:4;stroke-dasharray:none;stroke-dashoffset:0;stroke-opacity:1"
     d="m 123.75655,166.74338 c -4.01674,21.77058 -0.0626,46.7295 -12.85139,64.99128"
     id="path892"
     inkscape:connector-curvature="0"
     sodipodi:nodetypes="cc" />
  <path
     style="opacity:1;fill:none;fill-opacity:1;fill-rule:evenodd;stroke:#ffcc00;stroke-width:3.5;stroke-linecap:round;stroke-linejoin:round;stroke-miterlimit:4;stroke-dasharray:none;stroke-dashoffset:0;stroke-opacity:1"
     d="m 175.89643,163.07155 c -18.00366,13.91547 -28.51909,17.0146 -37.81977,18.35912"
     id="path896"
     inkscape:connector-curvature="0"
     sodipodi:nodetypes="cc" />
  <path
     style="opacity:1;fill:none;fill-opacity:1;fill-rule:evenodd;stroke:#ffcc00;stroke-width:3.5;stroke-linecap:round;stroke-linejoin:round;stroke-miterlimit:4;stroke-dasharray:none;stroke-dashoffset:0;stroke-opacity:1"
     d="m 85.202398,166.009 51.772712,0.36719"
     id="path888"
     inkscape:connector-curvature="0" />
  <path
     style="opacity:1;fill:none;fill-opacity:1;fill-rule:evenodd;stroke:#ffcc00;stroke-width:3.5;stroke-linecap:round;stroke-linejoin:round;stroke-miterlimit:4;stroke-dasharray:none;stroke-dashoffset:0;stroke-opacity:1"
     d="m 94.381957,166.00902 c 5.949723,9.16859 -3.069028,75.51915 -26.069947,64.2569"
     id="path890"
     inkscape:connector-curvature="0"
     sodipodi:nodetypes="cc" />
  <path
     sodipodi:nodetypes="ccccc"
     inkscape:connector-curvature="0"
     id="path839"
     d="m 44.263815,238.64138 111.304695,1.92501 C 251.97547,191.11575 142.97602,73.173722 213.04262,13.976154 H 99.849835 C 18.927237,66.381853 128.87972,203.59374 44.263815,238.64138 Z"
     style="opacity:1;fill:none;fill-opacity:1;fill-rule:evenodd;stroke:#ffcc00;stroke-width:1.5;stroke-linecap:round;stroke-linejoin:round;stroke-miterlimit:4;stroke-dasharray:none;stroke-dashoffset:0;stroke-opacity:1" />
  <path
     style="opacity:1;fill:url(#linearGradient982);fill-opacity:1;fill-rule:evenodd;stroke:#ff2a2a;stroke-width:0.94778943;stroke-linecap:round;stroke-linejoin:round;stroke-miterlimit:4;stroke-dasharray:none;stroke-dashoffset:0;stroke-opacity:1"
     d="m 175.7255,123.39021 c 8.94735,15.82661 -11.8255,36.32901 -44.07993,36.71332 -19.86684,0.23672 -37.357835,-9.38542 -45.838652,-26.5558 -8.258842,-16.72097 13.753013,-36.45029 45.838652,-33.831331 25.38961,2.072391 36.00744,9.394721 44.07993,23.673811 z"
     id="path861"
     inkscape:connector-curvature="0"
     sodipodi:nodetypes="sssss" />
  <path
     style="opacity:1;fill:none;fill-opacity:1;fill-rule:evenodd;stroke:#ffcc00;stroke-width:3.5;stroke-linecap:round;stroke-linejoin:round;stroke-miterlimit:4;stroke-dasharray:none;stroke-dashoffset:0;stroke-opacity:1"
     d="M 86.218674,67.021865 C 100.02458,78.42337 146.51277,79.300487 173.32617,95.877175"
     id="path880"
     inkscape:connector-curvature="0"
     sodipodi:nodetypes="cc" />
  <path
     style="opacity:1;fill:none;fill-opacity:1;fill-rule:evenodd;stroke:#ffcc00;stroke-width:3.5;stroke-linecap:round;stroke-linejoin:round;stroke-miterlimit:4;stroke-dasharray:none;stroke-dashoffset:0;stroke-opacity:1"
     d="m 92.913229,60.994852 c 30.262811,4.560045 51.756421,0.350876 73.436471,-3.671822 -32.29915,9.488771 -57.05334,39.723392 -86.655038,44.06188"
     id="path878"
     inkscape:connector-curvature="0"
     sodipodi:nodetypes="ccc" />
  <path
     style="opacity:1;fill:none;fill-opacity:1;fill-rule:evenodd;stroke:#ffcc00;stroke-width:3.5;stroke-linecap:round;stroke-linejoin:round;stroke-miterlimit:4;stroke-dasharray:none;stroke-dashoffset:0;stroke-opacity:1"
     d="M 88.874223,30.151535 193.15402,29.784353"
     id="path870"
     inkscape:connector-curvature="0"
     sodipodi:nodetypes="cc" />
  <path
     style="opacity:1;fill:none;fill-opacity:1;fill-rule:evenodd;stroke:#ffcc00;stroke-width:3.5;stroke-linecap:round;stroke-linejoin:round;stroke-miterlimit:4;stroke-dasharray:none;stroke-dashoffset:0;stroke-opacity:1"
     d="M 126.75384,30.411173 C 119.65385,47.079387 111.22937,50.512926 97.319416,50.713747"
     id="path872"
     inkscape:connector-curvature="0"
     sodipodi:nodetypes="cc" />
  <path
     style="opacity:1;fill:none;fill-opacity:1;fill-rule:evenodd;stroke:#ffcc00;stroke-width:3.5;stroke-linecap:round;stroke-linejoin:round;stroke-miterlimit:4;stroke-dasharray:none;stroke-dashoffset:0;stroke-opacity:1"
     d="M 111.43972,30.10834 C 105.93199,36.77225 91.077316,48.154221 85.569579,48.556551"
     id="path874"
     inkscape:connector-curvature="0"
     sodipodi:nodetypes="cc" />
  <path
     style="opacity:1;fill:none;fill-opacity:1;fill-rule:evenodd;stroke:#ffcc00;stroke-width:3.48267293;stroke-linecap:round;stroke-linejoin:round;stroke-miterlimit:4;stroke-dasharray:none;stroke-dashoffset:0;stroke-opacity:1"
     d="M 108.59656,53.340604 C 93.943364,56.671422 86.721912,65.733388 76.748443,75.69089"
     id="path876"
     inkscape:connector-curvature="0"
     sodipodi:nodetypes="cc" />
  <path
     style="opacity:1;fill:none;fill-opacity:1;fill-rule:evenodd;stroke:#ffcc00;stroke-width:3.5;stroke-linecap:round;stroke-linejoin:round;stroke-miterlimit:4;stroke-dasharray:none;stroke-dashoffset:0;stroke-opacity:1"
     d="m 141.56489,30.335127 c -4.04039,9.072809 -5.68536,17.546764 -3.85542,25.151991 -5.10137,-0.710854 -7.09645,0.442065 -9.91391,1.101547"
     id="path882"
     inkscape:connector-curvature="0"
     sodipodi:nodetypes="ccc" />
  <path
     style="opacity:1;fill:none;fill-opacity:1;fill-rule:evenodd;stroke:#ffcc00;stroke-width:3.5;stroke-linecap:round;stroke-linejoin:round;stroke-miterlimit:4;stroke-dasharray:none;stroke-dashoffset:0;stroke-opacity:1"
     d="m 156.98656,29.967944 c 1.98938,9.694876 8.40941,22.100522 19.82784,29.190998"
     id="path884"
     inkscape:connector-curvature="0"
     sodipodi:nodetypes="cc" />
  <path
     style="opacity:1;fill:none;fill-opacity:1;fill-rule:evenodd;stroke:#ffcc00;stroke-width:3.5;stroke-linecap:round;stroke-linejoin:round;stroke-miterlimit:4;stroke-dasharray:none;stroke-dashoffset:0;stroke-opacity:1"
     d="m 136.97511,29.41717 c 2.81507,-10.398602 5.63013,-9.764304 8.4452,-12.484201"
     id="path886"
     inkscape:connector-curvature="0"
     sodipodi:nodetypes="cc" />
  <path
     style="opacity:1;fill:none;fill-opacity:1;fill-rule:evenodd;stroke:#ffcc00;stroke-width:3.5;stroke-linecap:round;stroke-linejoin:round;stroke-miterlimit:4;stroke-dasharray:none;stroke-dashoffset:0;stroke-opacity:1"
     d="m 87.03831,197.21951 44.06189,0.36719"
     id="path894"
     inkscape:connector-curvature="0" />
  <path
     inkscape:connector-curvature="0"
     id="path900"
     d="m 173.69336,184.36813 c -12.43472,7.23697 -23.63996,22.46543 -37.81979,18.35912"
     style="opacity:1;fill:none;fill-opacity:1;fill-rule:evenodd;stroke:#ffcc00;stroke-width:3.5;stroke-linecap:round;stroke-linejoin:round;stroke-miterlimit:4;stroke-dasharray:none;stroke-dashoffset:0;stroke-opacity:1"
     sodipodi:nodetypes="cc" />
  <path
     style="opacity:1;fill:none;fill-opacity:1;fill-rule:evenodd;stroke:#ffcc00;stroke-width:3.5;stroke-linecap:round;stroke-linejoin:round;stroke-miterlimit:4;stroke-dasharray:none;stroke-dashoffset:0;stroke-opacity:1"
     d="m 166.71689,207.8678 c -11.34834,12.41096 -22.65293,25.04065 -37.81977,18.35912"
     id="path902"
     inkscape:connector-curvature="0"
     sodipodi:nodetypes="cc" />
  <path
     style="opacity:1;fill:url(#linearGradient944);fill-opacity:1;fill-rule:evenodd;stroke:none;stroke-width:0.12981856;stroke-linecap:round;stroke-linejoin:round;stroke-miterlimit:4;stroke-dasharray:none;stroke-dashoffset:0;stroke-opacity:1"
     d="m 124.51109,136.82566 c -1.85329,0.06 -3.25519,1.54741 -4.28679,2.94044 -0.29026,0.90624 0.92927,1.24461 1.43078,1.82127 2.74126,2.2173 4.31095,5.58316 4.81166,9.02491 0.29411,1.32357 0.17386,2.76239 0.67076,4.02134 0.66021,0.55018 1.38404,-0.43815 2.02019,-0.68511 3.92395,-2.44705 7.75597,-5.75727 9.06651,-10.36291 0.24392,-0.62415 0.073,-1.25621 -0.28805,-1.78499 -0.59576,-1.2999 -1.01963,-3.21065 -2.68992,-3.53072 -1.37749,-0.21853 -2.74927,0.35821 -3.98228,0.90367 -0.24661,0.3765 -0.57249,-0.23515 -0.95234,-0.22339 -1.90537,-0.71983 -3.70521,-2.02378 -5.80052,-2.12451 z"
     id="path934"
     inkscape:connector-curvature="0" />
  <path
     style="opacity:1;fill:url(#linearGradient958);fill-opacity:1;fill-rule:evenodd;stroke:none;stroke-width:0.18359119;stroke-linecap:round;stroke-linejoin:round;stroke-miterlimit:4;stroke-dasharray:none;stroke-dashoffset:0;stroke-opacity:1"
     d="m 163.12752,114.92695 c -3.67692,1.91582 -8.41093,4.02794 -11.10699,7.28919 -1.02929,1.21239 -1.44455,2.81397 -1.9173,4.25379 -2.1076,-1.37272 -3.51674,-3.73206 -3.54761,-6.27129 -0.22965,-1.32858 0.25011,-2.82103 -0.34368,-4.05249 -0.88815,-0.59402 -1.75338,0.60566 -2.54086,0.92298 -3.58268,2.37818 -7.80391,4.81219 -9.31189,9.05368 -1.76089,-1.0067 -3.53819,-2.47669 -4.17489,-4.46965 -0.48588,-1.85168 0.0423,-3.73005 0.28506,-5.56367 -0.45181,-1.11054 -1.59199,0.0512 -2.27276,0.29536 -2.97485,1.76567 -6.37968,3.20938 -8.51609,6.0432 -1.01727,1.38365 -0.98882,3.17331 -1.20051,4.77695 -2.64825,-1.34701 -4.83187,-3.97303 -4.82213,-7.00909 -0.1746,-1.47581 0.45005,-2.95114 0.24167,-4.4008 -0.77791,-0.8157 -1.79485,0.39569 -2.51062,0.7611 -3.1841,2.12172 -5.62276,5.42459 -6.30821,9.22776 -0.12544,0.75596 -1.00749,-0.12579 -1.39939,-0.18131 -3.00461,-1.35231 -5.946209,-6.11847 -7.581271,-8.84785 -0.261023,-0.7784 -0.465946,1.18509 -0.37532,2.11366 0.560142,7.01211 4.846841,12.92718 7.054991,19.40544 1.0186,3.11011 1.07626,6.47692 0.70008,9.68046 0.42521,0.8977 1.70603,0.13078 2.50021,0.17285 3.64004,-0.7118 7.69142,-1.43629 10.33455,-4.27996 1.19799,-1.21018 1.81972,-2.86862 2.31568,-4.42161 0.64806,0.49864 1.49869,0.69466 1.94053,-0.19955 1.15516,-1.39332 2.84008,-2.83648 4.79282,-2.31801 2.0268,0.34079 3.73737,1.67324 5.65809,2.21553 1.65171,-0.53456 3.74289,-1.45493 5.35881,-0.34555 1.20619,1.06683 1.11267,3.04096 2.40103,4.001 3.68464,1.45719 7.85516,3.17743 9.66686,6.99998 0.32682,0.70581 0.62525,2.4212 1.73409,1.69441 3.99842,-3.36052 5.22475,-8.68493 6.29122,-13.55312 1.62596,-7.0459 2.41974,-14.43813 6.04524,-20.83079 0.26331,-0.56278 1.93211,-2.21383 0.60859,-2.1626 z"
     id="path932"
     inkscape:connector-curvature="0"
     sodipodi:nodetypes="cccccccccccccccccccccccccccccccccc" />
  <path
     style="opacity:1;fill:none;fill-opacity:1;fill-rule:evenodd;stroke:#ff5555;stroke-width:0.94778943;stroke-linecap:round;stroke-linejoin:round;stroke-miterlimit:4;stroke-dasharray:none;stroke-dashoffset:0;stroke-opacity:1"
     d="m 95.472695,114.80777 c 2.057224,4.69423 4.110944,9.39128 9.546735,11.38265 0.60638,-4.84571 3.72679,-8.61397 9.17957,-11.38265 -0.2486,4.1614 -2.52959,8.3228 4.40619,12.4842 -1.12972,-6.74577 6.84531,-8.93916 12.11702,-12.4842 -0.11018,3.67292 -3.25066,7.07039 3.67182,11.38265 1.04267,-4.67061 7.16447,-7.64818 12.11702,-11.01548 0.16412,3.94562 -1.05153,8.08836 3.67182,11.38265 0.77898,-7.05568 9.22507,-9.31941 15.05448,-13.21856 -10.33885,11.64946 -5.82949,32.79152 -16.15603,38.92132 -0.28376,-3.83537 -3.4454,-7.09518 -10.64828,-9.54673 -0.88466,4.8888 -4.96205,8.9794 -11.38265,12.48421 -0.67528,-5.45748 -0.43624,-10.99807 -8.4452,-15.78885 -1.4758,7.09289 -8.30067,8.17276 -15.34021,9.12736 2.74509,-13.68444 -8.101537,-18.15159 -7.792285,-33.72857 z"
     id="path841"
     inkscape:connector-curvature="0"
     sodipodi:nodetypes="ccccccccccccccc" />
  <path
     style="opacity:1;fill:none;fill-opacity:1;fill-rule:evenodd;stroke:#ff5555;stroke-width:0.54159403;stroke-linecap:round;stroke-linejoin:round;stroke-miterlimit:4;stroke-dasharray:none;stroke-dashoffset:0;stroke-opacity:1"
     d="m 130.89297,139.16309 c 1.50605,3.5192 0.92089,6.99556 -0.5193,8.95747"
     id="path866"
     inkscape:connector-curvature="0"
     sodipodi:nodetypes="cc" />
  <path
     style="opacity:1;fill:none;fill-opacity:1;fill-rule:evenodd;stroke:#ff5555;stroke-width:0.94778943;stroke-linecap:round;stroke-linejoin:round;stroke-miterlimit:4;stroke-dasharray:none;stroke-dashoffset:0;stroke-opacity:1"
     d="m 120.08472,139.93907 c 4.20282,-6.08572 7.44324,-1.58506 11.01548,-0.73437 6.02362,-2.71899 5.86901,0.74027 6.97646,2.93745"
     id="path864"
     inkscape:connector-curvature="0"
     sodipodi:nodetypes="ccc" />
</svg>
