<?xml version="1.0" encoding="UTF-8" standalone="no"?>
<svg
   xmlns:dc="http://purl.org/dc/elements/1.1/"
   xmlns:cc="http://creativecommons.org/ns#"
   xmlns:rdf="http://www.w3.org/1999/02/22-rdf-syntax-ns#"
   xmlns:svg="http://www.w3.org/2000/svg"
   xmlns="http://www.w3.org/2000/svg"
   xmlns:xlink="http://www.w3.org/1999/xlink"
   xmlns:sodipodi="http://sodipodi.sourceforge.net/DTD/sodipodi-0.dtd"
   xmlns:inkscape="http://www.inkscape.org/namespaces/inkscape"
   cursor="default"
   viewBox="0 0 256 256"
   version="1.1"
   id="svg128"
   sodipodi:docname="Leatherskirt.svg"
   enable-background="new"
   inkscape:version="0.92.4 (5da689c313, 2019-01-14)">
  <metadata
     id="metadata132">
    <rdf:RDF>
      <cc:Work
         rdf:about="">
        <dc:format>image/svg+xml</dc:format>
        <dc:type
           rdf:resource="http://purl.org/dc/dcmitype/StillImage" />
        <dc:title></dc:title>
      </cc:Work>
    </rdf:RDF>
  </metadata>
  <sodipodi:namedview
     pagecolor="#ffffff"
     bordercolor="#666666"
     borderopacity="1"
     objecttolerance="10"
     gridtolerance="10"
     guidetolerance="10"
     inkscape:pageopacity="0"
     inkscape:pageshadow="2"
     inkscape:window-width="1920"
     inkscape:window-height="1017"
     id="namedview130"
     showgrid="false"
     inkscape:zoom="2"
     inkscape:cx="106.08094"
     inkscape:cy="69.511346"
     inkscape:window-x="-8"
     inkscape:window-y="-8"
     inkscape:window-maximized="1"
     inkscape:current-layer="layer4" />
  <defs
     id="defs94">
    <inkscape:path-effect
       effect="spiro"
       id="path-effect584"
       is_visible="true" />
    <inkscape:path-effect
       effect="spiro"
       id="path-effect580"
       is_visible="true" />
    <inkscape:path-effect
       effect="spiro"
       id="path-effect576"
       is_visible="true" />
    <inkscape:path-effect
       effect="spiro"
       id="path-effect572"
       is_visible="true" />
    <inkscape:path-effect
       effect="spiro"
       id="path-effect239"
       is_visible="true" />
    <inkscape:path-effect
       effect="spiro"
       id="path-effect235"
       is_visible="true" />
    <inkscape:path-effect
       effect="spiro"
       id="path-effect231"
       is_visible="true" />
    <inkscape:path-effect
       effect="spiro"
       id="path-effect227"
       is_visible="true" />
    <inkscape:path-effect
       effect="spiro"
       id="path-effect223"
       is_visible="true" />
    <inkscape:path-effect
       effect="spiro"
       id="path-effect219"
       is_visible="true" />
    <inkscape:path-effect
       effect="spiro"
       id="path-effect215"
       is_visible="true" />
    <inkscape:path-effect
       effect="spiro"
       id="path-effect211"
       is_visible="true" />
    <inkscape:path-effect
       effect="spiro"
       id="path-effect207"
       is_visible="true" />
    <inkscape:path-effect
       effect="spiro"
       id="path-effect203"
       is_visible="true" />
    <inkscape:path-effect
       effect="spiro"
       id="path-effect199"
       is_visible="true" />
    <inkscape:path-effect
       effect="spiro"
       id="path-effect195"
       is_visible="true" />
    <inkscape:path-effect
       effect="spiro"
       id="path-effect191"
       is_visible="true" />
    <inkscape:path-effect
       effect="spiro"
       id="path-effect187"
       is_visible="true" />
    <inkscape:path-effect
       effect="spiro"
       id="path-effect183"
       is_visible="true" />
    <inkscape:path-effect
       effect="spiro"
       id="path-effect179"
       is_visible="true" />
    <inkscape:path-effect
       effect="spiro"
       id="path-effect175"
       is_visible="true" />
    <inkscape:path-effect
       effect="spiro"
       id="path-effect171"
       is_visible="true" />
    <inkscape:path-effect
       effect="spiro"
       id="path-effect167"
       is_visible="true" />
    <linearGradient
       id="innoGrad2">
      <stop
         offset="0"
         stop-color="#f55"
         id="stop72" />
      <stop
         offset="1"
         stop-color="#ff8080"
         id="stop74" />
    </linearGradient>
    <linearGradient
       id="innoGrad3">
      <stop
         offset="0"
         stop-color="#f55"
         id="stop77" />
      <stop
         offset=".105"
         stop-color="#ff8080"
         id="stop79" />
      <stop
         offset=".777"
         stop-color="#ff8080"
         id="stop81" />
      <stop
         offset="1"
         stop-color="#f55"
         id="stop83" />
    </linearGradient>
    <linearGradient
       id="innoGrad1">
      <stop
         offset="0"
         stop-color="#f55"
         id="stop86" />
      <stop
         offset="1"
         stop-color="#ff2a2a"
         id="stop88" />
    </linearGradient>
    <linearGradient
       id="linearGradient946"
       x1="129.911"
       x2="129.866"
       y1="804.326"
       y2="807.719"
       gradientTransform="translate(-567.54717,-798.77709)"
       gradientUnits="userSpaceOnUse"
       xlink:href="#innoGrad1" />
    <linearGradient
       id="linearGradient954"
       x1="93.616"
       x2="121.116"
       y1="810.353"
       y2="813.076"
       gradientTransform="translate(-567.54717,-798.77709)"
       gradientUnits="userSpaceOnUse"
       xlink:href="#innoGrad3" />
    <linearGradient
       id="linearGradient966"
       x1="170.714"
       x2="164.152"
       y1="809.996"
       y2="810.398"
       gradientTransform="translate(-567.54717,-798.77709)"
       gradientUnits="userSpaceOnUse"
       xlink:href="#innoGrad2" />
  </defs>
  <g
     inkscape:groupmode="layer"
     id="layer4"
     inkscape:label="Color 2">
    <path
       style="fill:#ff2a2a;fill-opacity:1;stroke-width:0.5"
       d="m 155.29809,36.561115 c -2.68521,0.481698 -6.0458,-0.346013 -8.31543,1.357422 -0.58748,3.486035 2.43857,6.780819 2.63574,10.137695 -2.42697,-2.745468 -3.10655,-6.763803 -4.14258,-10.226562 -5.13736,0.31461 -10.40738,2.044939 -15.60586,2.743025 -13.14366,2.090531 -26.3738,4.202927 -39.525001,5.98549 -3.231301,-0.372882 -0.926593,4.318216 -1.300781,6.411133 -0.134046,1.470368 0.736157,3.294973 0.460938,4.577149 -1.596546,-0.966877 -1.304163,-3.718067 -1.6875,-5.373047 -0.560808,-1.874984 1.246395,-5.911915 -2.00293,-5.114258 -2.267253,0.470235 -6.327122,-0.621613 -7.024414,2.461914 -1.481717,5.541974 -1.650708,11.338701 -2.772388,16.957439 -1.091693,7.262639 -0.258749,14.88474 -2.044995,21.954669 -1.938234,2.39297 0.505925,5.00389 0.290039,7.618165 0.811124,10.813161 0.922517,21.837841 4.170899,32.299801 0.533069,1.50153 0.29944,3.03532 -0.426758,4.33692 1.19758,2.32012 3.32548,4.13246 3.904297,6.84179 5.39608,15.76261 11.173976,31.49349 14.610351,47.81739 1.717579,9.39002 1.750376,19.04017 1.117188,28.51953 -0.804562,1.26871 0.492328,2.0866 1.606445,1.37109 10.39989,-2.07802 21.49708,-1.21412 31.4665,-5.48972 5.54374,-1.73488 11.40806,-5.61507 17.34014,-3.74758 0.98483,0.55729 2.94972,1.7062 2.73828,-0.42969 2.18408,-14.99278 9.93351,-28.63487 11.20508,-43.83399 0.68459,-7.68217 5.50101,-14.17388 6.41895,-21.83398 1.46538,-7.51316 1.1799,-15.69587 5.95703,-22.12207 2.66081,-3.45968 -0.33681,-7.7151 0.44487,-11.53443 0.58921,-6.47329 2.63272,-12.886761 1.43865,-19.439966 -0.1543,-8.79396 -1.21473,-17.633383 -4.45383,-25.872282 -1.1753,-3.820032 -1.22615,-8.234526 -4.46851,-11.087807 -3.30394,-4.80565 -5.34759,-10.601155 -9.56665,-14.733482 -0.72673,-0.4762 -1.62131,-0.558235 -2.46777,-0.551758 z"
       id="path752"
       inkscape:connector-curvature="0" />
    <path
       style="fill:#ff2a2a;fill-opacity:1;stroke-width:0.5"
       d="m 153.04223,36.702717 c -1.88712,0.44737 -5.86288,-0.479493 -6.20899,2.268554 0.21657,3.086899 2.66826,6.360995 2.5459,9.041993 -2.25261,-2.883146 -2.13433,-7.197615 -4.52832,-9.957032 -4.89966,0.132012 -9.78608,1.821456 -14.68306,2.450126 -13.76951,2.485898 -27.91066,3.925367 -41.526902,6.545968 0.144073,3.45173 0.450655,7.179649 0.90625,10.484375 -1.751968,-0.297378 -1.088951,-3.176995 -1.511719,-4.449219 -0.705736,-2.167657 1.047845,-7.190684 -2.701889,-6.019914 -2.303659,0.239111 -6.269676,-0.258187 -6.567642,2.993547 -2.714221,11.665881 -3.299764,23.674596 -4.207032,35.564453 -0.05893,2.596591 -2.22236,5.079466 -0.700195,7.629881 1.267337,11.667041 1.167864,23.608411 4.422335,34.998431 0.744112,2.36859 -0.84679,5.26199 1.569853,7.06895 4.419346,9.171 6.949095,19.16839 10.292247,28.7821 4.755071,14.43051 8.609243,29.44717 7.830316,44.76954 0.07468,2.79285 -0.277984,5.6938 -0.469243,8.41223 2.274001,0.37799 4.833421,-0.87438 7.220701,-0.85547 9.78659,-1.21789 19.90731,-1.52908 28.99456,-5.81598 5.05444,-1.77871 10.92855,-4.81994 16.10017,-1.74652 1.49463,0.17366 0.78776,-2.66954 1.40107,-3.51737 3.0549,-14.66326 9.65212,-28.48165 11.18304,-43.50279 1.57398,-8.04486 5.9301,-15.3231 6.62943,-23.59487 0.88847,-6.59308 1.73413,-13.47376 5.67709,-19.02755 1.9182,-3.96541 -0.72737,-8.35334 0.34082,-12.47558 0.96638,-6.74595 2.29224,-13.584486 1.02044,-20.396501 -0.17853,-7.678862 -1.40647,-15.286832 -3.82577,-22.590004 -1.27288,-4.363796 -2.11804,-9.062538 -5.20544,-12.540082 -3.12145,-4.994489 -5.82604,-10.362514 -9.69041,-14.804469 -1.43587,0.0944 -2.87174,0.188802 -4.30761,0.283203 z"
       id="path754"
       inkscape:connector-curvature="0" />
    <path
       style="fill:#ff2a2a;fill-opacity:1;stroke-width:0.5"
       d="m 154.61254,36.595295 c -2.39004,0.350235 -5.45997,-0.303552 -7.41504,1.27539 -0.71652,3.538817 2.0754,6.960789 2.27148,10.183594 -2.43251,-2.740787 -2.07676,-7.062253 -4.32421,-9.828125 -3.76872,-0.774202 -7.58863,1.347401 -11.36442,1.640591 -14.92377,2.636031 -29.97183,4.5289 -44.935391,6.94437 -0.275671,3.414478 0.248328,7.341297 0.712891,10.726563 -1.573943,-1.015666 -1.344868,-3.754651 -1.732422,-5.456055 -0.589091,-1.778027 1.217977,-5.683609 -1.826172,-5.023438 -2.726766,-0.180787 -6.788461,-0.218905 -7.422851,3.25 -1.414092,5.203093 -1.462386,10.603993 -2.510013,15.865494 -1.053049,7.369605 -0.474456,14.957739 -2.067136,22.229235 -1.73697,2.82442 0.608925,5.79858 0.292253,8.7754 0.671229,10.678286 1.220561,21.461386 4.139388,31.809556 0.378145,2.18048 -0.786748,4.74625 1.414062,6.32813 4.255042,8.72117 6.629618,18.25698 9.84767,27.39974 4.933258,14.98217 9.157549,30.53327 8.263072,46.4438 0.201255,2.71144 -0.562219,5.5264 -0.391015,8.15255 2.730074,0.0477 5.690494,-0.99173 8.525394,-1.06641 9.58504,-0.84391 19.37143,-1.65272 28.20894,-5.81514 4.86784,-1.78286 10.60139,-4.54229 15.55082,-1.57646 1.52339,0.14271 0.81822,-2.65792 1.41379,-3.53097 2.87821,-14.57389 9.74809,-28.22055 11.07547,-43.15848 1.28772,-7.75211 5.87983,-14.56875 6.53613,-22.49609 1.13691,-6.89602 1.26607,-14.57224 5.87891,-20.24708 2.00733,-3.90002 -0.97145,-8.21463 0.22363,-12.28222 1.09692,-6.56619 2.21733,-13.203866 1.2244,-19.868021 0.0631,-9.523059 -2.17059,-18.824577 -5.2053,-27.789404 -0.82824,-5.343942 -5.15715,-8.974623 -7.20051,-13.798021 -1.86276,-3.192361 -3.94045,-6.332248 -6.31761,-9.125609 -0.9554,0.01237 -1.91081,0.02474 -2.86621,0.03711 z"
       id="path756"
       inkscape:connector-curvature="0" />
    <path
       style="fill:#ff2a2a;fill-opacity:1;stroke-width:0.5"
       d="m 154.7473,36.609943 c -2.43223,0.340281 -5.55392,-0.337217 -7.5498,1.260742 -0.73939,3.520858 2.13568,7.041454 2.24414,10.170899 -2.34847,-2.964719 -2.40046,-7.510699 -4.4248,-10.350586 -18.58497,3.823927 -37.42659,6.134222 -56.157232,9.120117 -0.293092,3.403411 0.204125,7.375538 0.68457,10.726563 -1.605167,-0.842298 -1.327135,-3.604938 -1.706935,-5.196049 -0.658545,-1.686687 1.138328,-5.537702 -1.34908,-5.339167 -2.674853,0.358885 -7.365747,-0.525366 -7.919571,3.24127 -1.538418,4.969734 -1.250473,10.222487 -2.462455,15.25602 -1.113911,7.590557 -0.491056,15.406915 -2.103951,22.903162 -1.754903,2.85183 0.653507,5.85279 0.295083,8.86347 0.670896,10.257566 0.929518,20.639566 3.909995,30.565236 0.767766,1.71547 -0.03267,3.44673 0.0029,5.13281 4.23315,5.64821 5.576296,12.83094 8.060171,19.34342 5.996191,18.22093 12.728276,36.87454 11.696334,56.34691 0.170149,2.83258 -0.493146,5.74371 -0.402013,8.50401 1.7723,0.75619 3.908894,-0.82687 5.827544,-0.60502 10.3794,-1.04743 21.10057,-1.47341 30.69394,-6.06393 4.9025,-1.90673 10.62775,-4.43175 15.69141,-1.75488 2.31733,-0.22157 1.03984,-3.60864 1.73047,-5.06738 3.14756,-13.87096 9.59306,-26.93151 10.78684,-41.25043 1.1374,-7.52741 5.6732,-14.12696 6.41844,-21.80998 1.16785,-7.39969 1.47975,-15.39514 6.1912,-21.57045 1.35523,-4.40964 -0.86265,-9.04585 0.28707,-13.51035 1.20749,-6.085521 1.846,-12.309011 0.98637,-18.502346 0.14668,-9.250454 -2.21445,-18.231321 -4.99121,-26.975584 -0.438,-3.126091 -1.66609,-6.015194 -3.87012,-8.299805 -3.06788,-5.116617 -5.91164,-10.461401 -9.56934,-15.160156 -1,0.0072 -2,0.01432 -3,0.02148 z"
       id="path758"
       inkscape:connector-curvature="0" />
    <path
       style="fill:#ff2a2a;fill-opacity:1;stroke-width:0.5"
       d="m 149.26488,24.568928 c -9.04045,1.342334 -18.02657,3.241459 -27.00683,4.768554 -1.98436,2.263367 -3.97286,5.103046 -6.63868,6.705078 -2.1121,-1.897176 -4.22163,-5.063375 -7.58007,-4.117187 -7.6694,1.214561 -15.286673,2.685689 -23.010747,3.594727 -1.796861,0.05793 -3.810467,1.057223 -3.506836,3.164062 -0.05127,2.560693 -1.590995,5.13202 -1.275391,7.635742 4.184742,0.490248 8.588943,-0.766307 12.815607,-1.082112 17.108307,-2.509647 34.231837,-4.966492 51.204287,-8.270562 4.35387,-0.659985 8.73924,-1.444003 13.14319,-1.448107 -0.63004,-3.452135 -1.58688,-8.161191 -4.96972,-10.313477 -0.96761,-0.516347 -2.08959,-0.679304 -3.17481,-0.636718 z"
       id="path760"
       inkscape:connector-curvature="0" />
    <path
       style="fill:#ff2a2a;fill-opacity:1;stroke-width:0.5"
       d="m 149.6516,24.646076 c -8.8824,1.109872 -17.69076,2.985166 -26.4834,4.59082 -3.10311,1.285379 -4.18226,5.492896 -7.41308,6.422852 -2.33817,-1.120619 -3.86294,-4.263198 -6.93262,-3.711914 -8.18901,1.043177 -16.335298,2.49349 -24.496095,3.772461 -2.414473,0.122178 -3.253824,2.522851 -3.193035,4.626539 -0.02563,1.903579 -1.369977,4.184118 -0.566731,5.931078 5.40913,0.487225 10.88803,-1.108988 16.288903,-1.586455 17.761598,-2.362082 35.395028,-5.669742 53.055828,-8.558076 2.43123,-0.460926 5.18927,-0.196242 7.4082,-0.978516 -0.68672,-3.834084 -1.91511,-8.89833 -6.01172,-10.356445 -0.53985,-0.138893 -1.10103,-0.168864 -1.65625,-0.152344 z"
       id="path762"
       inkscape:connector-curvature="0" />
    <path
       style="fill:#ff2a2a;fill-opacity:1;stroke-width:0.5"
       d="m 149.38988,24.655842 c -8.77575,0.884048 -17.39471,3.005588 -26.06933,4.501953 -3.15227,1.313394 -4.29443,5.593959 -7.59082,6.482422 -2.50204,-1.193583 -4.12739,-4.902343 -7.45997,-3.701172 -8.439346,1.405489 -17.00022,2.266715 -25.342769,4.189453 -2.380571,1.26008 -1.557266,4.852428 -2.233674,7.032796 -1.387935,3.325058 0.498423,4.072889 3.677762,3.164066 20.814031,-2.474374 41.516531,-5.914569 62.124551,-9.68544 3.56655,-0.687471 7.48503,-0.432636 10.8464,-1.465524 -0.55513,-3.874326 -1.79237,-9.110061 -6.03906,-10.396484 -0.62901,-0.125459 -1.27397,-0.137992 -1.91309,-0.12207 z"
       id="path764"
       inkscape:connector-curvature="0" />
    <path
       style="fill:#ff2a2a;fill-opacity:1;stroke-width:0.5"
       d="m 149.4768,24.568928 c -8.72531,1.121886 -17.34416,3.059486 -25.99707,4.522461 -3.1804,1.479049 -4.67928,5.38309 -7.86231,6.699218 -1.68636,-0.722345 -2.26626,-2.816289 -4.16894,-3.430664 -3.56062,-1.627437 -7.5823,0.59495 -11.23213,0.813338 -5.911727,1.364554 -12.217165,1.229022 -17.937797,3.2726 -1.826626,2.928488 -1.163051,6.700156 -2.136719,9.916992 6.992885,0.248733 14.413729,-1.347193 21.512856,-2.316479 15.0288,-2.112888 30.00132,-4.642614 44.91586,-7.391529 3.61221,-0.764036 7.69604,-0.224292 11.0498,-1.451172 -1.11384,-4.266969 -2.27152,-11.101403 -8.14355,-10.634765 z"
       id="path766"
       inkscape:connector-curvature="0" />
  </g>
  <g
     inkscape:groupmode="layer"
     id="layer2"
     inkscape:label="Color"
     style="display:inline"
     sodipodi:insensitive="true">
    <path
       style="fill:#ff2a2a;fill-opacity:1;stroke-width:0.35355338"
       d="m 156.14173,36.507299 c -3.21609,0.186073 -6.60285,0.195046 -9.68405,1.026134 0.45932,3.358208 1.72165,6.701449 3.20822,9.752411 0.76768,0.643458 -0.9705,0.994571 -0.81,0.01105 -1.44356,-3.046199 -2.33726,-6.354827 -3.43264,-9.504509 -4.26483,0.238469 -8.54197,1.556808 -12.79905,2.23664 -2.28474,0.561364 -4.67388,0.658558 -6.90741,1.302346 0.0815,0.973825 1.96851,0.368092 2.64544,0.731967 2.30453,0.424084 5.09093,0.01739 7.069,1.434929 -0.31531,0.911453 -2.01495,0.550779 -2.81578,0.798743 -6.93919,0.396654 -13.79954,2.185928 -20.74386,2.034518 -1.19714,-0.396392 -1.2034,-1.762053 -0.12761,-2.332534 1.50107,-1.709625 -2.31438,-0.110007 -3.16874,-0.242623 -6.55397,1.176141 -13.308432,1.968378 -19.764726,3.233236 -0.842802,3.449246 0.180482,7.110443 0.772707,10.411871 -1.083539,0.397137 -0.950229,-1.742574 -1.274455,-2.363157 -0.69131,-2.608494 -0.17974,-5.617099 -0.716354,-8.138484 -1.267693,0.339752 -3.062167,-0.268617 -4.11282,0.577977 0.465073,0.622786 1.946408,0.989514 1.019228,2.079889 -1.639295,2.774816 -4.746579,5.218144 -6.525546,7.391475 0.191625,-0.826191 -0.907945,-1.398404 -0.778232,-0.305906 -0.05943,1.206413 -0.430108,4.487731 1.126952,2.086793 2.086306,-1.916972 4.802596,-3.70106 7.687714,-3.97057 0.642451,1.465799 -1.519595,2.334344 -2.469349,3.011419 -1.563189,1.368163 -4.158986,2.343731 -4.584455,4.560286 1.000788,1.039239 2.88498,-0.06809 4.132155,0.514448 -0.965102,1.558603 -2.996776,2.635045 -3.525866,4.232973 1.177878,0.31093 2.597505,0.902439 1.942786,2.418167 0.03722,1.424803 -0.50562,2.652284 -1.472533,3.640579 -1.380133,2.1976 -0.158852,4.866602 -0.847975,7.150479 -1.047754,0.772037 -1.958371,2.384357 -0.591788,3.360137 1.632185,1.081664 0.910172,3.187598 -0.174015,4.353126 -0.44125,0.979961 0.901172,1.567726 1.488792,1.727027 -0.459764,0.914872 -2.250959,2.058794 -0.21279,2.314799 1.124262,0.320775 2.940326,1.118271 2.103472,2.594898 -0.695282,3.072333 -0.996647,6.221227 -0.600075,9.338777 0.04105,2.05908 -0.648168,5.16052 1.90104,6.04355 1.453192,0.81732 -1.001561,1.65201 -1.391426,2.29948 -1.159697,1.00793 -0.463034,2.64774 0.823808,3.13917 1.713698,1.39418 0.218417,3.90663 0.751263,5.74206 -0.03544,2.74529 0.788214,5.49983 0.767221,8.19222 -0.578351,0.93068 -2.802933,1.70375 -0.9046,2.58605 1.689171,1.16869 4.409598,1.00915 5.87092,1.71874 -1.600707,1.10081 -3.908911,1.38364 -5.172099,2.84431 1.067235,2.39341 4.403483,1.8529 5.920638,3.7641 -0.09193,1.67676 -1.767302,3.94402 0.202327,5.18453 1.230114,0.7706 3.077413,1.45414 2.534259,3.29523 -0.383172,1.00714 -5.960819,-0.17786 -3.300231,1.70958 1.95688,1.67892 4.940453,2.58937 5.437434,5.47404 0.460649,1.21388 -0.270017,2.45214 -1.650377,2.35818 -0.855803,0.025 -1.962819,0.73047 -0.881811,1.47774 1.858287,1.98444 4.305175,4.26933 3.488577,7.30447 -0.408551,1.65041 -1.292601,3.91185 0.468182,5.17348 0.759174,1.15187 1.803938,3.18121 0.756135,4.36694 -0.682701,0.1234 -2.203288,0.28468 -1.469456,1.33204 1.431486,2.52572 2.162998,5.29563 1.859608,8.19871 -0.08312,2.40588 -0.327025,4.86349 1.365856,6.82016 0.297102,0.9002 1.526295,2.14969 1.310653,2.91222 -0.908226,0.21051 -2.563826,0.29819 -2.106819,1.68698 0.198195,2.1224 1.041011,4.14351 1.102092,6.27833 0.195727,-1.0671 -1.001847,-1.05927 -0.723679,-0.006 -0.116194,3.30501 0.03264,6.73428 -0.391533,9.95128 0.645942,0.0558 1.845083,0.46127 1.753956,1.35 -1.031216,0.90218 0.04068,2.58419 1.253315,1.80851 5.60357,-1.0494 11.40891,-1.18919 17.03065,-1.6635 0.004,-0.6706 -1.54578,-1.04374 -0.78031,-1.96664 0.51913,-0.80568 2.90632,-1.49403 1.70769,-2.61643 -0.63432,-0.0802 -1.23007,-0.67436 -0.18783,-0.79274 0.49662,-0.46695 2.42496,-0.0143 1.38245,0.69261 -1.51049,0.5829 0.76076,1.98117 0.23755,3.02454 -0.44563,1.53419 1.62164,1.12631 2.41535,0.78733 7.00528,-1.60482 13.37306,-5.17289 20.33848,-6.83382 2.3613,-0.66363 4.6117,0.37265 6.77823,1.14991 1.84178,-0.24717 0.38734,-2.98899 1.60204,-3.6329 0.0882,-0.75645 -0.46821,-1.66214 0.38877,-2.00186 -0.24991,-1.48876 0.66877,-2.98891 0.96123,-4.47673 0.58961,-0.99925 0.22311,-2.05866 0.9336,-2.96929 0.17678,-1.63488 1.48191,-3.13441 0.49028,-4.75986 -2.2986,1.72545 -3.1564,4.85794 -5.39253,6.77178 -1.20611,1.20422 -2.00632,2.90324 -3.07066,4.10413 -1.052,-0.0113 -2.60029,-0.65203 -2.97482,0.74716 -1.02342,0.72003 -2.57738,1.47063 -3.66535,1.37969 0.58495,-2.26444 3.27003,-3.12038 5.179,-3.98991 1.55186,-0.17927 2.48903,-2.10229 3.71695,-2.98963 3.36587,-3.46475 7.23225,-6.91989 8.23084,-11.88766 0.0527,-0.79092 0.83558,-2.34262 -0.043,-2.79969 -0.66404,0.50732 -1.35841,2.40169 -2.23457,1.86376 0.69277,-1.98499 3.45432,-3.18485 3.09912,-5.42139 1.11053,-0.20426 0.42234,-2.21916 -0.51307,-1.16079 -3.82793,3.21501 -7.14441,7.40739 -12.1023,8.91687 -0.9825,0.32243 -1.22756,2.28366 -2.01566,2.17725 0.73765,-1.98645 3.01269,-3.0482 4.45904,-4.506 4.81811,-4.18674 10.9129,-7.74346 13.50945,-13.85549 1.01793,-3.30017 0.7894,-7.05432 2.3774,-10.11889 -0.3698,-1.20971 0.10653,-2.22553 0.85281,-3.15298 2.09768,-5.03887 4.59166,-10.16085 5.05471,-15.662 -0.52092,-1.06085 -1.26265,0.42079 -1.36588,0.99506 -0.2552,0.48309 -0.99137,1.83145 -1.06964,1.66488 0.7187,-2.1502 2.57097,-4.06521 2.10613,-6.46133 1.15101,-2.99952 2.04049,-6.10396 2.49904,-9.30287 0.56138,-3.90038 3.12996,-6.95326 4.81441,-10.36492 0.0461,-4.19434 -1.20817,-8.43137 -0.33319,-12.62747 0.64728,-4.73431 2.02189,-9.715261 1.33722,-14.404167 -1.89156,-0.202569 -4.7289,0.268364 -6.19961,-0.474395 1.28819,-0.954074 -1.79181,-1.97875 -0.56348,-3.099808 0.82071,-1.970105 0.0952,-4.376937 -1.38521,-5.859871 -1.07944,-1.592185 1.44339,-2.957934 0.1609,-4.517472 -1.14537,-1.430749 -0.83903,-3.1291 -0.22097,-4.67906 0.13252,-1.958887 -1.06612,-3.751387 -1.12903,-5.726598 -1.11745,-3.852843 -3.90905,-7.157677 -4.45602,-11.170077 -0.29971,-1.057065 -1.39304,-1.989196 -0.59316,-3.075639 0.27139,-2.275811 -1.4061,-4.038985 -2.18071,-5.979333 -0.63273,-1.810031 -1.41866,-3.639941 -2.06071,-5.484427 -0.63284,-1.086751 -2.51811,-3.180888 -0.22219,-3.67965 0.51515,-0.823102 -1.17893,-0.507028 -1.53506,-0.584882 z M 118.9033,48.175942 c 6.34572,0.385238 12.77254,0.48503 19.03733,1.605492 1.43774,0.160291 -0.3773,1.118151 0.34734,1.854774 0.97288,1.532437 3.14828,0.326706 4.44773,1.47429 0.70066,0.585459 -1.09251,0.538912 -1.49776,0.403962 -5.4325,-0.17788 -10.79284,-0.899059 -16.20477,-1.298204 -2.77534,-0.841051 -5.6142,-1.396537 -8.53845,-1.428714 -0.65941,-0.171538 -2.0226,-0.14507 -2.2905,-0.725061 0.9821,-1.488142 3.09497,-1.722199 4.69908,-1.886539 z m 21.72766,1.490863 c 1.35283,-0.254496 1.24233,2.065294 0.19196,1.867894 -0.68266,-0.482929 -2.19737,-2.115074 -0.19196,-1.867894 z m 8.67241,1.239509 c 0.8171,-0.123836 1.2138,0.929915 0.16228,0.728513 -0.7407,0.107379 -1.75242,-0.600024 -0.43366,-0.717465 l 0.13604,-0.01243 z m 3.95262,4.832356 c 1.60414,0.554521 0.72982,2.839888 0.71884,4.069317 -0.0697,1.547231 -1.1624,3.65849 0.40466,4.745349 0.2015,1.24497 0.37075,2.494041 0.79342,3.683999 0.32224,1.531648 -0.94544,2.541381 -1.31892,3.837987 -0.52634,2.906114 -2.60837,5.480891 -4.91315,7.216771 -1.46256,0.334377 -3.34095,0.600641 -4.65006,-0.0732 0.70469,-1.424208 2.31325,-1.871291 3.65845,-2.336769 1.03771,-1.603329 3.87693,-2.049029 4.02098,-4.145275 -1.08203,-0.971247 -2.9389,-0.06753 -4.26128,-0.150536 -11.35141,1.588738 -22.47437,4.6821 -33.87027,5.870839 -3.35243,0.214317 -6.76839,0.558204 -10.10777,0.243842 3.41069,-0.253017 6.89991,-0.567294 10.18676,-1.500534 0.27869,-0.984027 -1.79798,-0.803234 -1.79815,-1.567511 3.02995,-0.536559 6.15466,-1.195664 9.01147,-2.345052 1.36214,-1.097532 3.39122,-0.941456 4.91428,-1.846259 6.01252,-2.292816 12.334,-3.480876 18.62395,-4.73453 2.09139,-0.827545 4.78373,-1.53685 5.91304,-3.628756 -0.34702,-1.38159 -2.37285,-0.454573 -3.35323,-0.46473 -5.32882,0.497171 -10.78988,1.062797 -16.10326,0.27138 -1.40276,0.0287 -2.6119,-2.458564 -0.86385,-2.827736 6.26968,-1.077236 12.84241,-0.82979 18.9296,-2.826356 1.16224,-0.875299 2.60523,-1.441311 4.06449,-1.492244 z m 1.46048,24.496693 c 1.86716,0.998993 2.69449,3.212835 1.98114,5.219746 -0.2002,1.488901 -1.08429,2.806181 -1.23191,4.26612 -3.85786,0.985671 -7.96586,1.200151 -11.9345,1.433546 -9.14639,-0.505822 -18.32693,-0.394771 -27.44419,-1.390699 -4.80515,-0.271059 -9.62722,-0.846623 -14.37731,-1.191206 -0.78252,0.33602 -1.942382,0.495745 -2.437586,-0.237542 1.937266,-0.369817 4.010036,-0.09968 5.904756,-0.64427 -0.0575,-1.006354 -1.95239,-0.405575 -2.65441,-0.812759 -3.263312,-0.737753 -6.323606,-2.277679 -9.264897,-3.818653 -0.61423,-0.542297 -0.324129,-1.739595 0.657388,-1.338945 4.855436,0.379341 9.503119,2.151439 14.017839,3.863536 1.58947,0.739315 3.22283,1.382556 4.88346,1.943854 -0.75906,-0.06144 -1.463,0.996119 -0.33698,0.954319 4.33761,0.412324 8.66641,-0.0115 12.90262,-0.955698 6.97038,-1.063962 14.08717,-0.887581 21.12068,-1.126262 2.73807,-1.878814 4.89765,-4.635261 7.86656,-6.135396 0.11279,-0.02981 0.23092,-0.05026 0.34734,-0.02969 z m -61.33323,5.484911 c 0.838555,0.02269 2.649382,0.258072 2.831189,0.823118 -1.105234,0.07285 -3.213392,0.504803 -3.705405,-0.716087 0.275432,-0.110765 0.583077,-0.09747 0.874216,-0.107031 z m 5.12169,3.68607 c 4.72465,2.418885 10.19999,3.351799 15.36852,4.589289 8.75907,1.600843 17.70806,2.160331 26.60214,2.222829 5.10959,-0.05152 10.05919,-2.163432 15.16343,-1.635185 1.62884,0.679367 0.29579,2.957945 0.38187,4.233664 -0.39383,1.231249 -0.19181,3.036489 -1.23813,3.897379 -4.44818,0.97796 -8.36842,-2.12794 -12.69547,-2.60884 -11.5899,-1.816436 -23.37333,-2.277385 -34.92099,-4.256453 -3.1117,-0.941209 -6.36477,-1.512364 -9.381596,-2.719324 -0.736656,-0.59345 -2.75508,-1.283219 -2.041219,-2.418942 0.71242,-0.723497 1.766139,-1.161402 2.761445,-1.304417 z m 75.42565,4.510567 c 1.41744,0.128831 0.42233,2.239057 0.56096,3.135078 -0.28806,1.557823 -0.31239,3.719191 -1.4704,4.772231 -1.29318,-1.57958 -1.22858,-3.87678 -1.90242,-5.757677 -0.79727,-1.804349 1.6876,-1.943857 2.81186,-2.149632 z m -70.83912,7.633849 c 10.93629,0.25744 21.80308,1.86702 32.74916,2.18647 5.43297,0.41176 10.95852,0.33828 16.32778,1.15019 -2.39737,1.25259 -5.43601,0.80532 -8.1053,1.10548 -5.22505,0.35831 -10.55105,-0.32269 -15.71674,0.61188 -1.428,0.70247 0.51379,1.95853 1.37554,1.98667 4.83201,0.74038 9.79515,0.62152 14.68075,0.58143 2.69023,-0.0202 5.63788,-1.72394 8.14002,-0.20785 0.45615,1.5234 -0.56412,3.2473 -0.0718,4.86136 0.37324,1.18979 0.51266,3.24631 -1.04202,3.54175 -4.27321,-0.92203 -8.25623,-2.93994 -12.62227,-3.60183 -7.32024,-1.69906 -14.80534,-2.67292 -22.10244,-4.42379 -5.05404,-2.20357 -10.21236,-4.79805 -15.88383,-4.63671 -1.18084,0.0374 -3.122093,-0.002 -2.71656,-1.765 0.09456,-1.76537 2.63434,-1.11675 3.82331,-1.37306 0.38799,-0.013 0.77625,-0.0151 1.16442,-0.017 z m -0.25688,7.15463 c 0.39042,0.39915 -0.51549,0.19669 0,0 z m -0.33422,2.44242 c 1.60372,0.0293 3.6898,0.41611 4.75502,1.47152 -2.08581,1.08102 -4.86381,0.58894 -6.87289,-0.4737 -0.819464,-0.88176 1.78831,-1.02675 2.11787,-0.99782 z m 4.66732,4.98082 c 7.36779,0.0153 14.94644,1.82374 22.07637,2.07782 -6.22674,0.1035 -12.53294,-1.34992 -18.71969,-0.38049 -0.59174,1.01562 1.53498,0.86514 1.99289,1.48396 1.72385,0.87008 -0.68706,0.6836 -1.54749,0.93567 -1.81086,0.14267 -3.47328,1.09829 -5.19972,1.3645 -1.3562,-0.52294 -2.23557,-1.79239 -3.34219,-2.67582 0.71051,-0.57226 1.34208,-1.47323 1.15734,-2.32848 1.06557,-0.5657 2.41522,-0.41607 3.58249,-0.47716 z m 33.90867,2.83119 c 0.86956,-0.0685 0.85045,0.44165 0.0297,0.10703 -0.0695,-0.0395 -0.44155,-0.17107 -0.0297,-0.10703 z m -34.7822,3.74614 c 1.00928,0.8953 2.93999,0.0843 3.4651,1.74912 0.66266,1.40425 0.79412,3.06395 2.13859,4.10247 1.12702,1.42552 -1.39127,1.99155 -2.34229,2.09232 -1.67636,0.0718 -3.98292,0.75425 -5.33024,-0.56279 0.14626,-2.02147 0.29603,-4.23552 0.56624,-6.21342 0.31463,-0.48142 1.06256,-0.76095 1.5026,-1.1677 z m 5.55811,10.38218 c 0.50865,0.008 2.60331,-0.0884 1.02268,0.40535 -0.86766,0.0535 -2.28125,1.72246 -0.68017,1.73186 1.27982,0.27499 0.78455,1.35622 -0.0152,1.84786 -0.8675,1.72753 0.62712,3.70272 0.58558,5.52151 0.22704,2.34175 1.27338,4.42407 2.17725,6.53314 0.52234,5.9188 0.22,12.05902 2.28843,17.73223 0.30488,4.59234 1.76182,8.97822 2.16835,13.55636 0.58477,4.26964 2.40464,8.31688 2.09466,12.68936 -0.15243,3.34102 0.55273,6.86068 -0.41881,10.09294 -0.89974,0.92814 -1.16464,2.25672 -0.24859,3.27934 0.12003,1.81909 -3.61916,2.72062 -3.72474,0.41778 -0.872,-5.55499 -0.61506,-11.46159 -2.7863,-16.73164 -1.6665,-4.26476 -4.27155,-8.21451 -4.72301,-12.88633 -1.43069,-8.51735 -3.01247,-17.02167 -3.56193,-25.65103 -0.71993,-4.56482 -0.30476,-9.21741 -0.90262,-13.77819 -0.14964,-0.77955 -1.45566,-1.51666 -0.38324,-2.17449 2.28846,-1.01487 -1.61109,-1.55141 0.19749,-1.93073 2.26082,-0.49878 4.59886,-0.57663 6.91017,-0.65532 z m 29.588,55.95121 c -0.14523,0.66923 -1.23632,0.59508 -0.25895,0.087 0.0796,-0.0425 0.16631,-0.088 0.25895,-0.087 z"
       id="path588"
       inkscape:connector-curvature="0" />
    <path
       style="fill:#ff2a2a;fill-opacity:1;stroke-width:0.35355338"
       d="m 147.34778,24.725409 c -8.01135,1.324373 -15.95403,3.197176 -23.98846,4.243331 -0.4845,0.943646 2.49609,0.221642 0.60491,1.053755 -2.66761,1.362848 -5.49014,3.101457 -7.05174,5.694143 0.56674,0.999193 2.24839,-0.382896 3.16827,-0.184622 3.55894,-0.501187 7.39991,-1.416232 10.89239,-0.908494 -1.50246,1.222862 -3.8667,0.483801 -5.28328,1.688356 0.46352,1.22403 2.48157,0.724652 3.5383,1.011632 0.54473,0.192352 2.08822,-0.05297 2.23111,0.468873 -2.40005,1.508487 -5.55592,1.273279 -8.03643,2.567405 0.34479,0.956935 2.07696,-0.08094 2.88085,0.03598 8.29623,-1.446903 16.54596,-3.345647 24.86066,-4.490613 1.1239,-0.89254 -0.35632,-2.496518 -0.71194,-3.498936 -1.33229,-1.547116 -1.642,-3.6578 -2.71173,-5.285347 -0.0229,-0.721847 1.28342,-2.67394 -0.39291,-2.395462 z"
       id="path590"
       inkscape:connector-curvature="0" />
    <path
       style="fill:#ff5555;fill-opacity:1;stroke-width:0.35355338"
       d="m 107.23259,31.913867 c -6.77206,1.02223 -13.451033,2.51357 -20.278221,3.217198 -0.983256,-0.08773 -2.85406,0.689758 -1.66764,1.826462 0.985366,0.45826 1.181144,1.412775 0.438489,2.229734 -0.710962,1.457929 -2.626011,2.457836 -2.990702,3.804843 1.664228,-0.311511 3.390854,-0.851326 2.686177,1.486719 -0.430498,1.688788 1.572946,1.843948 2.726462,1.532201 7.048397,-1.017531 14.225775,-1.639203 21.115605,-3.452576 0.58872,-0.741104 -1.6169,-0.62966 -0.65325,-1.556463 0.70012,-0.870799 2.93498,-2.062672 0.63046,-2.248379 -0.97613,-0.501048 -1.43095,-1.796882 -2.71034,-1.704928 -0.54859,-0.210734 -1.91919,-0.671427 -1.9846,-1.084829 3.23228,-0.660072 6.56412,0.894258 9.72203,-0.02003 1.26773,-0.982492 -0.88199,-2.137572 -1.48327,-2.823593 -0.34545,-0.784759 -1.87134,-0.579726 -1.02268,0.27138 0.94998,0.833544 -1.11334,1.220932 -1.678,0.87974 -1.15088,-0.211651 -1.66671,-1.242319 -1.99288,-2.201422 -0.24124,-0.188373 -0.56978,-0.168114 -0.85764,-0.156061 z"
       id="path592"
       inkscape:connector-curvature="0" />
    <path
       style="fill:#ff5555;fill-opacity:1;stroke-width:0.35355338"
       d="m 106.29761,122.87929 c -2.21946,0.32419 -1.58541,3.39626 -1.9917,4.92527 -0.46696,1.25759 -0.19433,3.19882 1.53871,3.07594 2.07428,0.0337 4.72645,0.25422 6.29767,-1.30787 0.052,-1.36323 -1.36661,-2.44043 -1.6856,-3.76824 -0.62019,-1.98342 -2.09153,-2.97468 -4.15908,-2.9251 z m 0.95293,5.31642 c 0.86284,-0.16197 2.96816,0.5867 2.10406,1.68421 -1.19785,0.69536 -4.25836,0.0959 -2.70966,-1.63449 0.1975,-0.0477 0.40365,-0.0494 0.6056,-0.0497 z"
       id="path594"
       inkscape:connector-curvature="0" />
    <path
       style="fill:#ff5555;fill-opacity:1;stroke-width:0.35355338"
       d="m 99.68091,101.57493 c -1.933688,-0.18315 -2.412049,3.20315 -0.296239,3.14815 6.234549,-0.17324 11.894519,2.60611 17.636929,4.62865 11.05113,2.85573 22.55627,3.94149 33.29824,7.91006 1.48687,0.89082 2.56353,-0.84885 2.34436,-2.18001 -0.1327,-2.05439 0.45625,-4.38158 -0.42882,-6.28455 -2.49349,-1.26672 -5.40263,0.30065 -8.0461,0.0711 -4.91176,0.007 -9.90238,0.27498 -14.75671,-0.48061 -0.84506,-0.10548 -1.98052,-1.70171 -0.55243,-1.78572 5.42801,-0.50648 10.96428,-0.29733 16.36842,-0.70503 -1.32614,-0.89018 -4.0252,-0.14095 -5.84416,-0.43411 -6.33976,0.0851 -12.70556,-0.51694 -19.03026,-0.1128 -1.143,0.0118 -0.87072,1.28653 -0.01,1.57235 2.18805,2.03365 5.18849,2.19039 7.92871,2.86848 4.94734,0.8105 10.03795,1.27093 15.06677,1.12833 2.06352,-0.0508 4.26681,-1.0917 6.26659,-0.56831 0.14175,1.44272 -0.62097,2.97276 0.20509,4.36763 0.52067,1.74027 -1.93672,0.52222 -2.66615,0.31764 -7.45048,-2.93789 -15.54771,-3.4508 -23.22956,-5.47455 -1.29107,-0.71793 -2.76692,-0.0503 -4.13492,-0.71677 -5.50441,-1.29962 -10.51219,-4.26512 -16.24274,-4.70945 -1.3329,-0.43324 -3.13014,0.16749 -4.21295,-0.62286 -0.493449,-1.50126 1.77882,-1.04538 2.06677,-1.79677 -0.48712,-0.26148 -1.17592,-0.11616 -1.73117,-0.14087 z"
       id="path596"
       inkscape:connector-curvature="0" />
    <path
       style="fill:#ff5555;fill-opacity:1;stroke-width:0.35355338"
       d="m 122.4485,87.988678 c -2.07623,0.286589 -4.17621,0.449834 -6.2224,0.638053 0.8667,0.93752 2.96988,0.619348 4.32578,0.894553 9.61716,0.546534 19.24629,1.442075 28.88251,1.333791 1.01905,-0.254556 2.68836,0.08377 3.25122,-0.724361 -5.39989,-1.155351 -10.95327,-2.301356 -16.55553,-1.963581 -4.2261,-0.09724 -8.56746,0.545827 -12.73623,-0.112164 -0.30823,-0.07656 -0.62998,-0.07546 -0.94535,-0.06629 z"
       id="path598"
       inkscape:connector-curvature="0" />
    <path
       style="fill:#ff5555;fill-opacity:1;stroke-width:0.35355338"
       d="m 157.99857,36.825635 c -1.00966,0.194793 -2.21185,1.233553 -1.22293,2.240783 1.92732,3.585303 3.12553,7.512092 4.92627,11.176983 0.28276,2.153558 0.30082,4.380985 1.23467,6.42749 1.80647,5.25192 5.07356,10.239785 5.11755,15.934072 -0.78737,1.705948 -0.0964,3.388583 0.53447,4.985654 0.0477,1.547772 -1.24751,3.37022 0.299,4.612076 1.29395,1.635775 1.09746,3.719403 0.70849,5.590563 0.22166,1.375157 1.34512,3.809312 3.04664,2.944439 0.64785,-0.4946 1.78301,-1.729834 0.33076,-2.062627 -1.61176,-0.328345 -0.0463,-1.625221 -0.11117,-2.568095 0.36512,-2.03318 0.20797,-4.166447 -0.7368,-6.001431 -0.20791,-3.317141 -1.16885,-6.531729 -1.41352,-9.844252 -1.01577,-4.103885 -2.77166,-8.017416 -5.07267,-11.53606 -0.28787,-2.035926 -1.63819,-3.555257 -2.75385,-5.192125 1.4923,0.548356 3.22919,0.409961 1.27887,-1.086901 -1.80002,-3.143704 -3.59515,-6.471337 -4.51195,-9.95819 0.5186,-0.651855 2.47756,-0.145909 1.28641,-1.372011 -0.61381,-1.342921 -2.10908,-1.927516 -3.07006,-2.789147 0.55668,-0.272591 1.11317,-1.399623 0.12982,-1.501221 z"
       id="path600"
       inkscape:connector-curvature="0" />
    <path
       style="fill:#ff5555;fill-opacity:1;stroke-width:0.35355338"
       d="m 77.978808,81.032929 c -1.273175,0.500844 -2.161885,2.205766 -0.811377,3.196482 1.211452,0.67171 1.382773,2.941791 -0.448847,2.607456 -0.556947,-1.206104 -0.838365,-3.209035 -1.979761,-3.803461 -0.426455,1.369957 0.214109,2.680402 0.512376,3.915328 0.0113,0.699859 -0.900646,-0.722644 -0.90529,0.330766 0.204048,1.029771 0.456957,2.141197 -0.903909,2.025336 -0.838594,1.326319 -0.255302,3.72542 1.175289,4.440823 1.664028,-0.09951 4.657532,-1.539472 5.268774,0.87836 -0.554775,5.1713 -1.568458,10.604651 -0.08908,15.716551 1.345288,1.64125 -1.604922,3.3933 -0.01312,4.94284 1.461995,2.40664 1.01544,5.51674 1.501221,8.21322 0.361537,1.36536 -1.492011,2.67543 -0.590407,3.85801 0.85821,0.16751 0.2244,1.52074 -0.242377,0.62562 -0.96891,-1.12228 -0.936131,-3.21723 -2.00462,-3.95192 -0.812045,2.18399 0.177109,4.43334 0.389461,6.54557 -0.55127,1.13516 -1.715798,2.85174 -0.08977,3.71852 3.301581,2.29483 3.488248,6.61168 4.792305,10.06799 0.651135,2.36343 1.548965,4.65143 3.073567,6.57457 1.591927,1.75586 4.583303,2.71595 4.972535,5.28466 -1.071494,1.19955 -2.84016,-1.4198 -3.987834,-0.33146 0.324269,0.96173 1.389154,1.6292 1.390045,2.7725 0.335096,1.2958 1.328744,2.43479 1.852012,3.5307 -1.464395,1.13336 -0.119609,3.2603 0.171943,4.68527 0.7934,2.79609 2.591669,5.07557 4.11213,7.42531 0.620775,1.09483 -0.640394,0.70213 -1.191862,0.96744 -0.30437,1.81272 0.956118,3.73856 1.104855,5.58849 0.627699,1.98809 0.708924,4.25721 1.433548,6.12504 1.256705,0.17374 0.851667,-1.86224 0.842452,-2.60608 -0.02995,-2.50494 -1.409323,-4.72609 -1.84856,-7.08764 0.678083,-0.48018 2.074539,-0.58675 1.833368,-1.83958 -0.04365,-2.1221 -1.956787,-3.55828 -2.510782,-5.43381 0.528202,-1.40627 0.603198,-2.82891 0.993679,-4.22538 -0.04402,-2.87615 -3.039953,-4.64598 -3.981619,-6.98475 1.31012,-0.36989 3.468587,-0.68855 3.005204,-2.62818 -0.656138,-3.24608 -4.464974,-4.26627 -6.23276,-6.60495 1.277065,-0.47234 4.017936,0.28179 4.087271,-1.71943 -0.698006,-1.95665 -3.78826,-2.37464 -3.965737,-4.54233 0.362864,-1.18228 1.877223,-3.11471 0.100818,-3.9105 -1.563903,-0.94066 -3.970143,-1.06236 -4.840643,-2.82635 1.464856,-1.32652 3.54011,-1.77189 5.115476,-2.86917 -1.866341,-1.01877 -4.852694,-0.71108 -6.531761,-2.38027 0.730454,-1.08904 1.802635,-2.10333 1.365186,-3.59078 -0.402824,-3.8166 -0.479515,-7.67726 -0.706417,-11.47736 -0.645366,-1.06908 -2.954718,-2.0749 -1.558535,-3.55349 0.50329,-0.81918 2.755614,-1.84773 1.309943,-2.81462 -2.182514,-0.85796 -1.569683,-3.75976 -1.755979,-5.62577 -0.07695,-3.55193 0.199483,-7.11616 0.780945,-10.585203 -0.490017,-1.423839 -2.36711,-1.580433 -3.483053,-2.291883 1.095625,-0.396669 1.609882,-1.79973 0.357697,-2.347125 -0.571628,-0.421895 -2.278804,0.08254 -2.11994,-0.129129 1.856534,0.08903 2.837655,-2.22639 2.897481,-3.779293 -0.366568,-1.376979 -2.194592,-2.309332 -1.35828,-3.908422 -0.02955,-0.125143 -0.164342,-0.205112 -0.287263,-0.188516 z m 3.418834,51.786591 c 0.983686,0.15795 2.645119,0.26877 3.083234,1.13248 -1.187891,0.24257 -3.102438,-0.17013 -3.614255,-1.10554 0.174023,-0.0388 0.35415,-0.0357 0.531021,-0.0269 z m 2.050195,5.93722 c 0.793429,0.0719 2.94079,1.2919 1.799532,2.10198 -0.889136,-0.19601 -1.905744,-1.23015 -1.946615,-2.09784 l 0.08355,-0.007 z m 3.127429,7.44257 c 0.492443,-0.071 2.118715,1.11729 1.163549,1.25263 -0.504277,-0.13653 -1.780868,-0.76108 -1.511578,-1.24641 0.114738,-0.0198 0.232642,-0.0227 0.348029,-0.006 z"
       id="path602"
       inkscape:connector-curvature="0" />
    <path
       style="fill:#ff5555;fill-opacity:1;stroke-width:0.35355338"
       d="m 161.27309,164.78779 c -0.48411,4.10598 -1.89258,8.16658 -5.06788,10.95875 -3.65891,3.75965 -7.99416,6.8099 -11.84261,10.33318 0.30749,0.96234 1.72679,-0.38987 2.31812,-0.49235 3.95768,-2.00697 6.71809,-5.69693 10.37666,-8.07718 0.80327,0.49806 -0.58934,1.58692 -0.47371,2.37682 -0.65431,1.51372 -2.2815,2.58496 -2.63024,4.18809 0.96684,0.68333 1.48769,-1.81807 2.36646,-1.30442 0.51985,1.2183 1.12286,-0.95316 1.29751,-1.39833 0.92908,-2.59836 1.75289,-5.35936 2.85881,-7.82306 -0.49161,-0.84345 0.72618,-1.01735 0.26655,-1.87687 0.8197,-2.18028 0.89506,-4.68834 0.89286,-6.98821 l -0.20785,-0.0421 z"
       id="path604"
       inkscape:connector-curvature="0" />
    <path
       style="fill:#ff5555;fill-opacity:1;stroke-width:0.35355338"
       d="m 109.50997,133.113 c -1.56772,0.34857 -3.73071,-0.16448 -4.96977,0.93084 0.43988,0.72516 1.33271,1.03503 0.067,1.63795 -0.53166,1.18185 0.72989,2.45146 0.48268,3.74407 0.58416,9.839 1.23707,19.70951 3.02321,29.42979 0.98232,6.42688 1.94149,12.96903 4.95879,18.82272 3.04377,5.83504 2.9643,12.49744 3.99393,18.84875 -0.19822,1.6855 1.79447,2.43089 2.92718,1.36726 1.34126,-0.66745 0.64534,-1.94342 0.4668,-2.98449 1.77445,-4.78143 1.10743,-10.06497 0.82242,-15.05364 -0.89017,-6.0067 -2.33826,-11.90807 -3.19465,-17.93099 -1.17865,-6.29734 -2.69924,-12.484 -2.85995,-18.92212 0.0611,-5.47363 -3.48427,-10.33115 -2.96999,-15.77939 1.08506,-0.59291 0.72176,-2.31871 -0.55933,-2.29672 -0.22175,-0.9758 2.71422,-2.13269 0.46494,-1.9924 -0.88441,0.0595 -1.76883,0.11891 -2.65324,0.17837 z m -0.12291,2.48938 c 0.7738,0.0543 1.08809,1.02263 -0.0193,0.85419 -0.71852,0.0665 -2.14245,0.17767 -2.46244,-0.18852 0.75962,-0.38203 1.63542,-0.59879 2.48178,-0.66567 z m -0.54138,5.98693 c 2.04557,2.48093 2.78339,5.92109 3.2531,8.99558 0.14342,4.13238 1.46132,8.07004 1.8458,12.18724 1.85865,7.65257 2.55041,15.52708 4.30897,23.19502 1.30747,5.48989 2.25185,11.3609 1.34098,16.95262 -0.1182,1.00057 -2.19959,1.81486 -1.96181,0.18783 -0.18399,-6.87097 -1.18653,-13.9035 -4.19706,-20.14219 -1.08322,-3.65656 -1.70729,-7.48282 -2.69849,-11.19822 -0.87605,-3.7898 -1.01967,-7.67779 -1.68571,-11.47408 -0.82906,-5.31405 -1.21152,-10.75469 -1.34447,-16.11914 0.0945,-0.93805 0.49037,-1.90576 1.13869,-2.58466 z"
       id="path606"
       inkscape:connector-curvature="0" />
    <path
       style="fill:#ff5555;fill-opacity:1;stroke-width:0.35355338"
       d="m 151.4606,193.35933 c -3.26466,2.24294 -5.35995,6.22785 -9.374,7.36869 -1.09632,0.75849 -3.3652,1.61322 -2.97896,3.25172 1.22523,0.43928 2.57061,-0.90514 3.63566,-1.48948 0.93758,-1.29866 2.81307,-0.001 3.61287,-1.50951 1.79196,-2.45223 3.97968,-4.72561 5.44279,-7.36869 0.005,-0.17334 -0.17682,-0.29508 -0.33836,-0.25273 z"
       id="path608"
       inkscape:connector-curvature="0" />
    <path
       style="fill:#ff5555;fill-opacity:1;stroke-width:0.35355338"
       d="m 154.53348,80.442523 c -3.05382,0.971099 -5.09482,3.864718 -7.66602,5.651709 -3.70492,0.469188 -7.73533,0.156705 -11.56838,0.504019 -3.52936,0.421789 -7.33176,-0.05687 -10.68575,1.207435 -0.27659,1.047154 1.65938,0.520148 2.29464,0.676548 8.13082,-0.228768 16.344,-0.596926 24.27573,1.542138 1.78676,0.480486 4.63226,0.491699 4.83857,-1.951449 0.7802,-2.355319 1.91814,-5.861439 -0.77962,-7.466744 -0.21517,-0.11992 -0.46294,-0.178839 -0.70917,-0.163656 z m -1.31133,4.75916 c 0.89197,0.289716 0.79119,2.244879 -0.17747,1.044778 -0.14797,-0.327957 -0.013,-0.774525 0.17747,-1.044778 z"
       id="path610"
       inkscape:connector-curvature="0" />
    <path
       style="fill:#ff5555;fill-opacity:1;stroke-width:0.35355338"
       d="m 152.64901,55.750409 c -2.36658,0.604832 -4.40352,2.028832 -6.90275,2.228694 -4.34158,0.978507 -8.83798,1.023702 -13.19731,1.848219 -1.12842,0.115547 -3.33485,1.465198 -1.9114,2.666151 3.17082,1.46667 6.89262,0.661197 10.27306,0.684899 3.36116,-0.01675 6.79411,-0.894324 10.09286,-0.615155 -2.02468,3.316486 -6.43618,3.787801 -9.85806,4.793451 -7.45966,1.54964 -14.84873,3.586195 -21.89201,6.485731 -2.09789,0.833851 -4.5041,0.951166 -6.52416,1.896206 0.0101,0.675856 1.71151,0.226034 1.06687,1.300966 -1.10932,0.701605 -2.67086,0.42451 -3.72266,1.143525 0.61541,0.884315 2.3588,0.05332 3.35206,0.264716 12.60549,-0.891843 24.78239,-4.956787 37.35215,-5.941596 0.76897,-0.137839 1.27893,0.20978 1.58685,0.738181 1.47545,-0.702792 2.34219,-2.540478 2.86917,-4.041695 0.14837,-2.964835 -2.28867,-5.534415 -1.36233,-8.526778 -0.10783,-1.461906 1.12882,-3.829667 -0.43928,-4.833674 -0.24795,-0.09562 -0.52014,-0.113715 -0.78306,-0.09184 z m -7.26787,4.344149 c 0.6889,0.07583 1.43308,0.645207 2.0205,0.613195 -2.14999,1.24299 -5.13315,1.455581 -7.40114,0.888026 1.67882,-0.758729 3.51596,-1.449358 5.38064,-1.501221 z m 3.64602,7.733981 c 0.99939,0.196553 1.96103,0.603565 2.96515,0.849357 0.97528,0.428823 1.02913,1.681073 -0.21061,1.457026 -4.46883,2.19762 -9.724,2.173134 -14.53771,3.38911 -5.68327,0.919077 -11.30717,2.498651 -17.02315,3.059097 -0.31379,-1.208958 1.61164,-1.179739 2.21109,-1.892754 2.60107,-1.225554 5.35318,-2.149935 8.07859,-3.069097 6.08366,-1.564064 12.24222,-3.292677 18.51664,-3.792739 z"
       id="path612"
       inkscape:connector-curvature="0" />
    <path
       style="fill:#ff5555;fill-opacity:1;stroke-width:0.35355338"
       d="m 107.05927,35.779476 c -0.54411,-0.04362 -2.78976,-0.03495 -1.79885,0.917029 1.57536,0.449064 2.93092,1.29445 4.19224,2.289121 1.2368,0.176753 -0.85119,1.379678 -1.08207,2.030169 -0.23241,1.46811 2.12533,1.677123 3.17507,1.465313 0.7948,-0.329855 2.65885,0.103059 2.77319,-0.89355 -0.75541,-0.331437 -3.18598,0.217093 -2.59088,-1.291299 0.88876,-1.374065 1.97535,-2.962326 3.29177,-3.719906 1.22931,-0.15272 2.68784,0.277093 3.81865,-0.289334 -0.38415,-1.024619 -2.27464,-0.27456 -3.18602,-0.490059 -2.86435,0.06491 -5.72882,-0.02578 -8.5931,-0.01748 z"
       id="path614"
       inkscape:connector-curvature="0" />
    <path
       style="fill:#ff5555;fill-opacity:1;stroke-width:0.35355338"
       d="m 150.50076,24.594898 c -0.92748,0.05602 -1.59548,0.873577 -2.38235,1.097949 -0.71383,2.382927 1.40394,4.589608 2.15792,6.727182 0.89295,1.113613 0.81671,3.619741 2.76766,3.423667 1.2767,-0.164949 3.8729,0.62997 4.19293,-1.193933 -0.61426,-2.739946 -2.33071,-5.095809 -3.06321,-7.805106 -0.71057,-1.304177 -2.15614,-2.301675 -3.67295,-2.249759 z m 1.75533,6.41506 c 1.03241,0.89307 2.35334,2.209909 2.40652,3.574895 -1.31172,0.315042 -1.33097,-1.859249 -2.05434,-2.601242 -0.1061,-0.260463 -0.47288,-0.740947 -0.35218,-0.973653 z"
       id="path616"
       inkscape:connector-curvature="0" />
    <path
       style="fill:#ff8080;fill-opacity:1;stroke-width:0.35355338"
       d="m 107.13039,31.996041 c -5.95605,0.746152 -11.804392,2.240209 -17.796977,2.797732 -1.320664,0.513463 -3.774139,-0.195074 -4.409214,1.410382 0.09193,0.916654 1.605363,1.491109 0.760278,2.542546 -0.656373,1.504719 -2.684488,2.574683 -2.904386,4.000263 0.911027,0.174381 2.904542,-0.246662 2.473493,1.34447 -0.212793,1.114571 0.351548,2.331823 1.651066,2.026026 9.252301,-0.945175 18.44918,-2.725222 27.59719,-4.132845 -0.2945,-0.793293 -3.41388,-0.433098 -2.34091,-2.077126 1.23745,-1.637842 2.76154,-3.753226 5.11617,-3.339423 0.62012,0.270932 2.46297,-0.533389 1.18702,-1.008179 -1.19956,-0.299969 -2.82293,0.567363 -3.79862,-0.06146 -0.71839,-1.024879 -1.58427,-2.784072 -2.93546,-2.854667 -0.42012,0.549926 0.31392,1.836376 -0.97089,1.559225 -1.31127,-0.07059 -2.08251,-1.133451 -2.69516,-2.086103 -0.28675,-0.145961 -0.62156,-0.128877 -0.9336,-0.120843 z"
       id="path620"
       inkscape:connector-curvature="0" />
    <path
       style="fill:#ff8080;fill-opacity:1;stroke-width:0.35355338"
       d="m 108.68685,141.83514 c -1.38902,0.87324 -0.77895,3.07199 -0.98055,4.46568 0.5162,11.84798 2.33237,23.65458 5.18107,35.1613 2.78102,6.78296 4.39216,13.97438 4.63418,21.29883 -0.23244,1.16928 1.05147,1.81536 1.72357,0.80516 1.3199,-2.80826 0.44762,-6.14119 0.49304,-9.13922 -0.77841,-7.67748 -2.88798,-15.14606 -3.92976,-22.79118 -1.44173,-7.81332 -2.91446,-15.61817 -4.0832,-23.46631 -0.67433,-2.13194 -0.90162,-4.91641 -2.81323,-6.32322 -0.0735,-0.0169 -0.15029,-0.022 -0.22512,-0.011 z"
       id="path622"
       inkscape:connector-curvature="0" />
    <path
       style="fill:#ff8080;fill-opacity:1;stroke-width:0.35355338"
       d="m 103.69844,101.61429 c -1.53044,0.0983 -3.955745,-0.0132 -4.601722,1.68284 0.996972,1.42021 3.267172,0.46719 4.730162,0.98884 7.32369,1.24684 14.09967,4.84039 21.51017,5.73713 7.76831,1.69145 15.6862,2.86813 23.18671,5.58763 1.90703,0.49866 1.30237,-2.14606 1.22777,-3.16886 -0.18691,-0.90388 0.22735,-2.96225 -1.36105,-2.4003 -8.28241,1.31509 -16.90167,0.66706 -24.91377,-1.63933 -1.26016,-0.47682 -2.94929,-1.1866 -3.63773,-2.25666 5.60809,-0.88625 11.40617,-0.26933 17.08725,-0.49327 4.79428,-0.12273 9.65342,0.16936 14.41284,-0.23386 0.0445,-1.1523 -2.14882,-0.71899 -2.9258,-0.98056 -12.91804,-0.81635 -25.83474,-1.65536 -38.74199,-2.65522 -1.98868,-0.1099 -3.98062,-0.20208 -5.97284,-0.16838 z"
       id="path624"
       inkscape:connector-curvature="0" />
    <path
       style="fill:#ff8080;fill-opacity:1;stroke-width:0.35355338"
       d="m 148.37875,67.827848 c -7.44311,0.830935 -14.79387,2.660858 -21.87981,5.06477 -2.06607,0.972476 -4.60055,1.498396 -6.23736,3.120129 0.52097,1.089342 2.33455,0.112688 3.28142,0.203708 8.20441,-1.54868 16.44393,-2.927553 24.59268,-4.737754 1.50728,-0.5992 3.64802,-0.632065 4.65765,-1.992881 -0.79691,-1.215695 -3.0273,-1.599244 -4.41458,-1.657972 z"
       id="path626"
       inkscape:connector-curvature="0" />
    <path
       style="fill:#ff8080;fill-opacity:1;stroke-width:0.35355338"
       d="m 118.65816,48.188372 c -1.42053,0.169617 -3.76836,0.270276 -4.25369,1.866513 1.08331,1.138545 3.19314,0.679173 4.64385,1.082757 7.45644,1.316179 15.01868,2.372791 22.60946,2.320195 1.09138,0.08433 0.63904,-1.066821 -0.22719,-0.963295 -1.33054,-0.03568 -3.43262,-0.255573 -3.06182,-2.110272 -0.64796,-1.478029 -2.97625,-0.754537 -4.21088,-1.242961 -5.14912,-0.513964 -10.32305,-0.921951 -15.49973,-0.952937 z"
       id="path628"
       inkscape:connector-curvature="0" />
    <path
       style="fill:#ff2a2a;fill-opacity:1;stroke-width:0.35355338"
       d="m 105.2473,32.230132 c -6.665997,1.346513 -13.407427,2.172052 -20.106964,3.335969 -1.318969,0.862792 1.26703,2.244623 0.136035,3.370497 -0.629345,1.329392 -2.682394,2.387626 -2.358173,3.990595 0.681691,0.340821 2.297574,-0.256944 2.177253,1.05928 -0.633309,1.490894 0.945337,2.609814 2.306384,2.080579 9.063343,-1.089195 18.144395,-2.506777 27.093795,-4.139061 0.0834,-1.00308 -2.7299,-0.569909 -2.04675,-1.919685 0.99781,-1.868929 2.79862,-3.294202 5.00292,-3.183361 0.80869,0.170213 2.21241,-1.151829 0.84659,-1.375544 -1.61748,-0.06403 -3.56279,1.047596 -4.33352,-1.028454 -0.56321,-0.522248 -1.74537,-2.579838 -2.49516,-1.387724 0.18922,1.643435 -1.80601,0.830444 -2.38304,0.07734 -1.00311,-1.807013 -2.15578,-1.05554 -3.83937,-0.880431 z"
       id="path641"
       inkscape:connector-curvature="0" />
    <path
       style="fill:#ff8080;fill-opacity:1;stroke-width:0.35355338"
       d="m 128.66607,34.357667 c -3.42082,0.288146 -7.11288,0.400428 -10.22473,1.934186 -1.44944,0.867146 -3.44736,0.39565 -4.65144,1.858917 -0.89776,0.870167 -2.65822,2.857151 -0.39084,3.145382 2.98539,1.273362 6.26827,-0.166282 9.30978,-0.53033 2.75807,-1.062628 5.80463,-1.711962 8.52878,-2.623338 -0.20045,-1.454672 -2.381,-0.731846 -3.38707,-1.028896 -0.48833,-0.07417 -2.11226,-0.33229 -1.60273,-1.010251 1.20861,-0.738651 3.24288,-0.155545 4.08796,-1.340327 -0.23362,-0.593 -1.18991,-0.319288 -1.66971,-0.405343 z"
       id="path643"
       inkscape:connector-curvature="0" />
    <path
       style="fill:#ff8080;fill-opacity:1;stroke-width:0.35355338"
       d="m 125.49169,41.559246 c -4.4984,0.471937 -9.11603,0.812717 -13.49304,1.831986 -0.90032,0.719512 -1.86604,2.372946 -0.25204,2.924412 6.08352,0.342402 12.1449,-1.114105 18.19212,-1.647614 1.91386,-0.277713 3.97557,-0.183852 5.7846,-0.868002 -1.85209,-1.798921 -5.07414,-1.405945 -7.54709,-1.885189 -0.91385,-0.0731 -1.78048,-0.267003 -2.68455,-0.355593 z"
       id="path645"
       inkscape:connector-curvature="0" />
    <path
       style="fill:#ff8080;fill-opacity:1;stroke-width:0.35355338"
       d="m 85.0554,54.868597 c -3.134341,0.733283 -6.272072,2.676598 -7.887279,5.511843 -2.135225,7.205555 -2.109585,14.85228 -2.055719,22.300103 0.414531,1.438029 0.789413,3.374474 2.093008,4.230902 1.447249,-0.242712 1.11502,-2.029487 0.146393,-2.693082 -0.772408,-0.681171 -1.145261,-1.641707 -0.05455,-2.256666 1.686723,-1.102151 2.254572,-3.019613 2.117177,-4.942842 -0.189422,-2.160003 0.845226,-3.963428 1.773291,-5.82051 0.513048,-1.419678 0.838254,-3.605988 -1.045468,-4.101772 -0.5941,-0.982094 1.181604,-1.792754 1.665568,-2.537022 0.552056,-0.411312 1.746216,-1.769491 0.364602,-1.840963 -0.889226,-0.315524 -2.578887,0.307551 -3.081853,-0.573144 1.487854,-2.906501 5.214421,-3.876305 6.923984,-6.560072 0.09141,-0.547511 -0.502685,-0.797174 -0.959152,-0.716775 z"
       id="path647"
       inkscape:connector-curvature="0" />
    <path
       style="fill:#ff8080;fill-opacity:1;stroke-width:0.35355338"
       d="m 77.668758,93.1518 c -1.259177,0.196512 -3.767878,-0.0296 -3.235842,1.990119 0.27566,10.132231 0.423865,20.465861 3.247582,30.269561 0.754889,0.82976 0.51737,-1.75731 1.140071,-0.56555 0.705128,0.84208 0.783891,3.06027 1.752575,2.92579 0.25827,-2.06202 1.238237,-3.98327 0.652692,-6.12246 -0.170902,-2.60485 -0.859123,-5.15441 -1.700232,-7.55909 0.396438,-1.47924 1.101886,-3.0463 0.187826,-4.49676 C 78.757849,104.59726 79.613003,99.503529 79.899874,94.512152 79.77889,93.406785 78.62283,93.062487 77.668758,93.1518 Z"
       id="path649"
       inkscape:connector-curvature="0" />
    <path
       style="fill:#ff8080;fill-opacity:1;stroke-width:0.35355338"
       d="m 98.076799,89.44018 c -1.032738,0.21639 -3.35011,1.236696 -2.093699,2.505948 3.857037,2.658157 8.74008,3.272859 13.22356,4.266813 11.75498,2.00654 23.81677,2.186982 35.46069,4.680179 3.28248,0.64334 6.68093,2.85252 10.07328,1.80462 1.4266,-1.48118 1.1782,-3.961572 1.59171,-5.874257 0.35247,-1.140311 -0.14174,-2.49191 -1.52886,-2.329975 -5.38558,-0.07107 -10.62484,1.729321 -16.03278,1.469228 -12.22427,-0.04308 -24.60112,-1.30275 -36.26563,-5.028501 -1.49609,-0.407507 -2.858966,-1.414031 -4.428271,-1.494055 z"
       id="path651"
       inkscape:connector-curvature="0" />
    <path
       style="fill:#ff8080;fill-opacity:1;stroke-width:0.35355338"
       d="m 106.39083,116.04024 c -1.53858,-0.27825 -2.84848,0.5325 -3.40295,1.97216 -1.24527,1.4906 1.16152,2.46567 2.11648,3.22411 1.69106,1.04756 3.57842,-0.68335 5.35371,-0.70711 0.61686,-0.15855 3.07019,-0.53662 1.85202,-1.46946 -0.53351,-0.24085 -2.44827,-0.90452 -0.96951,-1.12764 2.19927,-0.45953 4.51823,-0.28205 6.68989,-0.6926 -1.12557,-0.92061 -3.50608,-0.48202 -5.10926,-0.86939 -2.17021,-0.20236 -4.34946,-0.35381 -6.53038,-0.33007 z"
       id="path653"
       inkscape:connector-curvature="0" />
    <path
       style="fill:#ff8080;fill-opacity:1;stroke-width:0.35355338"
       d="m 93.825182,81.79666 c -1.167109,-0.162341 -1.250074,1.298436 -0.216137,1.584775 3.544796,2.019157 7.496335,3.232984 11.431785,4.114892 -0.47629,0.621049 -2.66455,-0.07594 -2.47349,1.00818 7.40471,1.111598 14.95131,1.391469 22.40507,2.039837 1.36652,-0.07009 2.83809,0.232006 4.15425,-0.09944 -0.2294,-0.987394 -2.14381,-0.30514 -2.94545,-0.653238 -3.98272,-0.169562 -7.91849,-0.699257 -11.82853,-1.341714 -0.67295,-0.06608 -2.01486,0.108637 -2.31052,-0.407415 0.77267,-0.911229 -1.29145,-1.277065 -1.8527,-1.66833 -5.27519,-1.940508 -10.667006,-4.4049 -16.364278,-4.57755 z"
       id="path655"
       inkscape:connector-curvature="0" />
    <path
       style="fill:#ff8080;fill-opacity:1;stroke-width:0.35355338"
       d="m 94.010935,81.510779 c -1.134952,-0.249842 -1.878149,1.197212 -0.675342,1.72012 3.048998,2.104015 7.304127,3.635718 10.452617,4.323433 -2.22901,0.25025 -0.876,1.424974 0.45989,1.431477 8.34481,0.891895 16.72853,1.775888 25.12094,1.903802 0.66678,-0.178523 -0.094,-0.812193 -0.27,-1.091043 -5.51587,-0.766142 -11.2177,-0.812368 -16.63842,-1.974237 -0.56749,-1.508503 -2.77987,-1.598538 -4.02153,-2.357182 -4.65179,-1.712489 -9.422598,-3.721736 -14.428155,-3.95637 z"
       id="path657"
       inkscape:connector-curvature="0" />
    <path
       style="fill:#ff8080;fill-opacity:1;stroke-width:0.35355338"
       d="m 153.073,72.703709 c -1.84415,0.689629 -2.89386,2.659124 -4.7126,3.499048 -1.11654,1.212002 -3.63044,1.100027 -3.86315,3.024426 1.22165,1.086939 3.37542,0.331781 4.76607,-0.156751 1.90775,-1.522392 3.90059,-3.593851 4.31308,-6.067032 -0.0544,-0.218508 -0.29216,-0.330631 -0.5034,-0.299691 z"
       id="path659"
       inkscape:connector-curvature="0" />
    <path
       style="fill:#ff8080;fill-opacity:1;stroke-width:0.35355338"
       d="m 160.80214,41.959065 c -1.04402,-0.04418 -1.63655,0.78286 -1.01784,1.682831 1.17473,3.492682 3.17917,6.652535 4.80887,9.894661 -0.21752,0.4544 -1.63046,0.133904 -1.04615,1.086901 2.14929,3.180686 3.28663,6.901862 5.10926,10.275836 2.66723,5.637259 2.50292,12.075513 4.18256,18.022247 0.51003,1.819521 -0.69492,3.609625 -0.38256,5.359233 0.28264,0.593716 1.77408,0.956889 0.73888,1.624826 -2.10047,1.806969 2.68684,1.167175 3.46717,0.845353 -1.02976,-5.511367 -0.35143,-11.219996 -1.69353,-16.713013 -1.00938,-6.146543 -3.70794,-11.82852 -4.7678,-17.958837 -0.99477,-3.119579 -4.23677,-4.904435 -5.09338,-8.136561 -1.14588,-2.056588 -2.01307,-4.761545 -4.13215,-5.977262 -0.0573,-0.0081 -0.11557,-0.0095 -0.17333,-0.0062 z"
       id="path661"
       inkscape:connector-curvature="0" />
    <path
       style="fill:#ff8080;fill-opacity:1;stroke-width:0.35355338"
       d="m 173.14613,94.024635 c -1.46312,-0.221508 -2.57057,1.10098 -1.99634,2.489375 0.55715,1.631578 0.45349,3.7977 1.72151,5.04918 1.48032,-0.14742 1.24692,-2.444103 1.53874,-3.524556 -0.19594,-1.359373 1.31386,-4.957867 -1.26391,-4.013999 z"
       id="path663"
       inkscape:connector-curvature="0" />
    <path
       style="fill:#ff8080;fill-opacity:1;stroke-width:0.35355338"
       d="m 82.090938,47.302417 c -1.809426,-0.129656 -3.476721,0.184158 -3.452754,2.385488 -0.477978,2.137391 -1.512012,4.537572 -0.854797,6.6902 1.578522,0.01254 2.573967,-1.935496 3.701028,-2.859108 1.20853,-1.507192 2.772204,-3.014268 3.488121,-4.734004 -0.777715,-0.821181 -1.65157,-1.6504 -2.881598,-1.482576 z"
       id="path665"
       inkscape:connector-curvature="0" />
    <path
       style="fill:#ff8080;fill-opacity:1;stroke-width:0.35355338"
       d="m 84.076914,35.695231 c -1.587739,-0.09897 -3.014728,1.109208 -2.70206,2.784233 0.111605,2.620411 -1.202125,5.210212 -1.312014,7.729837 1.618759,0.395192 3.617888,0.269404 5.120309,-0.140178 0.419965,-1.704443 -0.423668,-3.471677 -2.241473,-3.402261 0.344439,-2.064197 3.797105,-3.356485 2.310526,-5.705882 -0.188129,-0.552374 -0.426372,-1.359409 -1.175288,-1.265749 z"
       id="path667"
       inkscape:connector-curvature="0" />
    <path
       style="fill:#ff8080;fill-opacity:1;stroke-width:0.08838835"
       d="m 110.04354,31.328814 c -0.65451,0.08972 -1.33479,0.261196 -1.92021,0.546039 -0.17415,0.491898 0.48203,0.806763 0.70581,1.161709 0.56435,0.700659 1.45967,1.374123 2.4047,1.049036 0.54064,-0.236036 0.36373,-0.969459 0.66033,-1.388837 -0.0545,-0.513802 -0.71135,-0.668528 -1.04737,-0.97348 -0.25961,-0.131695 -0.49776,-0.388718 -0.80326,-0.394467 z"
       id="path669"
       inkscape:connector-curvature="0" />
    <path
       style="fill:#ff8080;fill-opacity:1;stroke-width:0.08838835"
       d="m 123.1894,28.729299 c -0.84957,0.0069 -1.47701,0.65716 -1.84803,1.361524 -0.4095,0.711396 -0.96135,1.341027 -1.37624,2.055756 -0.0286,0.474571 0.52347,0.236917 0.71424,0.04183 1.23706,-0.858047 2.57325,-1.541617 3.88023,-2.275713 0.37231,-0.250459 -0.0232,-0.69413 -0.38014,-0.578667 -0.25651,-0.02784 -0.73151,-0.0174 -0.63443,-0.386872 -0.037,-0.159332 -0.20511,-0.232599 -0.35563,-0.217863 z"
       id="path671"
       inkscape:connector-curvature="0" />
    <path
       style="fill:#ff8080;fill-opacity:1;stroke-width:0.08838835"
       d="m 154.05627,26.335563 c -0.45562,0.226456 0.0518,0.740724 0.0786,1.0832 0.72231,2.036312 1.7198,3.972757 2.54749,5.95196 0.29627,0.287965 0.55917,-0.179173 0.39965,-0.446948 -0.52242,-2.229603 -1.1652,-4.534592 -2.61488,-6.356366 -0.11484,-0.102458 -0.23846,-0.25348 -0.41087,-0.231846 z"
       id="path673"
       inkscape:connector-curvature="0" />
    <path
       style="fill:#ff8080;fill-opacity:1;stroke-width:0.08838835"
       d="m 152.20685,30.863739 c -0.46906,0.19278 0.0488,0.712567 0.12947,1.001792 0.51818,0.856556 0.76592,1.874063 1.4011,2.654413 0.25937,0.30144 1.06082,0.537768 1.10295,-0.05196 -0.16137,-1.398718 -1.22609,-2.489672 -2.21419,-3.403297 -0.12187,-0.09206 -0.25204,-0.223511 -0.41933,-0.200945 z"
       id="path675"
       inkscape:connector-curvature="0" />
    <path
       style="fill:#ff8080;fill-opacity:1;stroke-width:0.08838835"
       d="m 140.27062,49.488131 c -0.40663,-0.07396 -0.94521,0.162018 -0.80309,0.649447 0.22132,0.665246 0.7741,1.227456 1.379,1.563024 1.347,0.120802 1.25003,-2.379489 -0.0913,-2.210572 -0.16148,-0.0044 -0.32307,-0.0038 -0.48459,-0.0019 z"
       id="path677"
       inkscape:connector-curvature="0" />
    <path
       style="fill:#ff8080;fill-opacity:1;stroke-width:0.08838835"
       d="m 145.1382,59.927451 c -1.7733,0.08938 -3.48053,0.702858 -5.0794,1.435447 -0.36239,0.365744 0.27887,0.589462 0.57436,0.587127 1.47203,0.09208 2.97923,0.155078 4.43409,-0.129648 0.78348,-0.252216 1.67327,-0.409979 2.31156,-0.955009 0.19937,-0.437679 -0.39587,-0.414155 -0.64617,-0.528258 -0.51823,-0.181355 -1.02546,-0.468114 -1.59444,-0.409659 z"
       id="path679"
       inkscape:connector-curvature="0" />
    <path
       style="fill:#ff8080;fill-opacity:1;stroke-width:0.08838835"
       d="m 132.19345,59.576659 c -0.85951,0.129408 -1.78386,0.162134 -2.57034,0.55519 -0.76513,0.635935 -0.35689,1.778352 0.25481,2.367323 0.38738,0.455878 1.04338,0.704855 1.62586,0.560541 0.3748,-0.388652 -0.34694,-0.571018 -0.60525,-0.68173 -0.63058,-0.202769 -0.61757,-1.054623 -0.14139,-1.421464 0.42999,-0.537032 1.12519,-0.696044 1.69681,-0.99506 0.13378,-0.188965 -0.0511,-0.421951 -0.2605,-0.3848 z"
       id="path681"
       inkscape:connector-curvature="0" />
    <path
       style="fill:#ff8080;fill-opacity:1;stroke-width:0.08838835"
       d="m 109.93219,77.850432 c -1.74063,0.279591 -3.49418,0.371399 -5.23511,0.618201 -0.38826,0.108216 -0.12295,0.614063 0.21182,0.510304 1.87564,0.02334 3.76327,0.04054 5.63096,-0.132237 0.37499,-0.02126 0.38499,-0.546685 0.0112,-0.55588 -0.23809,-0.105349 -0.34516,-0.415349 -0.61889,-0.440388 z"
       id="path683"
       inkscape:connector-curvature="0" />
    <path
       style="fill:#ff8080;fill-opacity:1;stroke-width:0.08838835"
       d="m 102.2367,110.96982 c -0.71221,0.0652 -1.67681,0.002 -2.12132,0.67707 -0.234704,0.6285 0.57067,0.8795 1.00767,1.05203 1.29474,0.54053 2.69809,0.79796 4.09938,0.65101 0.70735,-0.0424 1.45232,-0.17402 2.06087,-0.54691 0.23685,-0.48162 -0.45901,-0.75491 -0.78686,-0.94414 -1.3099,-0.68072 -2.79781,-0.90048 -4.25974,-0.88906 z"
       id="path685"
       inkscape:connector-curvature="0" />
    <path
       style="fill:#ff8080;fill-opacity:1;stroke-width:0.08838835"
       d="m 92.971292,85.549886 c -0.403437,-0.0994 -0.822698,0.365055 -0.466973,0.694677 0.867583,0.849829 2.187635,0.586444 3.279965,0.535338 0.342548,0.06555 0.712155,-0.333597 0.379002,-0.598522 -0.918873,-0.609972 -2.130973,-0.58071 -3.191994,-0.631493 z"
       id="path687"
       inkscape:connector-curvature="0" />
    <path
       style="fill:#ff8080;fill-opacity:1;stroke-width:0.08838835"
       d="m 102.38137,87.851954 c -1.00841,0.09645 -2.04889,0.06481 -3.034205,0.298138 -0.413617,0.323424 0.171036,0.778175 0.521353,0.814312 0.947042,0.196571 1.854282,-0.266284 2.800462,-0.157442 0.32659,0.02046 0.33828,-0.3777 0.11791,-0.505471 0.0146,-0.240334 -0.11527,-0.5179 -0.40552,-0.449537 z"
       id="path689"
       inkscape:connector-curvature="0" />
    <path
       style="fill:#ff8080;fill-opacity:1;stroke-width:0.08838835"
       d="m 129.36658,89.899905 c -0.31714,0.273758 0.0461,0.844559 0.38393,0.939817 4.29393,0.132673 8.59095,0.295345 12.88636,0.452409 1.27204,4.02e-4 2.55978,0.03007 3.82025,-0.138907 0.38038,-0.271423 -0.12906,-0.569427 -0.42165,-0.470203 -5.52552,-0.159458 -11.04512,-0.419893 -16.56117,-0.802624 l -0.087,0.01575 z"
       id="path691"
       inkscape:connector-curvature="0" />
    <path
       style="fill:#ff8080;fill-opacity:1;stroke-width:0.08838835"
       d="m 153.24904,85.050803 c -0.47465,0.129497 -0.49409,0.812819 -0.38946,1.209125 0.16161,0.416901 0.86981,0.822198 1.1102,0.255325 0.16521,-0.527438 -0.0989,-1.396223 -0.72074,-1.46445 z"
       id="path693"
       inkscape:connector-curvature="0" />
    <path
       style="fill:#ff8080;fill-opacity:1;stroke-width:0.08838835"
       d="m 85.345898,148.84941 c -0.463043,0.18819 -0.03947,0.74553 0.0039,1.08162 0.655799,1.94209 1.240728,3.9179 2.040111,5.80576 0.252077,0.48824 0.787238,-0.0334 1.180122,0.1571 0.93338,0.22161 1.835355,1.09289 2.836369,0.72679 0.59629,-0.313 0.222194,-1.09239 3.45e-4,-1.53074 -1.144509,-2.15954 -3.749195,-2.95186 -5.089408,-4.93508 -0.285274,-0.39342 -0.575586,-0.80168 -0.766493,-1.24227 -0.05707,-0.0539 -0.129509,-0.0684 -0.204916,-0.0632 z"
       id="path695"
       inkscape:connector-curvature="0" />
    <path
       style="fill:#ff8080;fill-opacity:1;stroke-width:0.08838835"
       d="m 86.475957,146.00683 c -0.397138,-0.0756 -0.679484,0.41424 -0.346475,0.68449 0.478356,0.4749 1.154892,1.0288 1.869966,0.87007 0.475719,-0.30029 -0.02456,-0.88491 -0.343541,-1.09122 -0.33599,-0.27122 -0.738847,-0.46971 -1.17995,-0.46334 z"
       id="path697"
       inkscape:connector-curvature="0" />
    <path
       style="fill:#ff8080;fill-opacity:1;stroke-width:0.08838835"
       d="m 83.496303,138.58445 c -0.568202,0.063 -0.291523,0.78655 -0.08286,1.08569 0.445175,0.6358 1.094038,1.32683 1.910362,1.37468 0.573866,-0.28236 0.553049,-1.15355 0.0404,-1.50329 -0.510596,-0.44747 -1.177029,-0.89603 -1.867894,-0.95708 z"
       id="path699"
       inkscape:connector-curvature="0" />
    <path
       style="fill:#ff8080;fill-opacity:1;stroke-width:0.08838835"
       d="m 81.184913,132.63308 c -0.47263,-0.0614 -0.502271,0.56817 -0.150536,0.75113 0.99461,0.80414 2.395388,0.88814 3.596707,0.72759 0.166804,-0.42799 -0.428953,-0.73374 -0.753261,-0.92681 -0.839088,-0.36522 -1.786319,-0.49237 -2.69291,-0.55191 z"
       id="path701"
       inkscape:connector-curvature="0" />
    <path
       style="fill:#ff8080;fill-opacity:1;stroke-width:0.08838835"
       d="m 107.29901,127.97647 c -0.68983,-0.10702 -1.30178,0.49552 -1.24296,1.18115 0.12755,1.00352 1.33724,1.24886 2.18312,1.20205 0.60608,-0.03 1.60505,-0.24717 1.52159,-1.04184 -0.27048,-1.01095 -1.54179,-1.35941 -2.46175,-1.34136 z"
       id="path703"
       inkscape:connector-curvature="0" />
    <path
       style="fill:#ff8080;fill-opacity:1;stroke-width:0.08838835"
       d="m 109.35456,135.41611 c -0.85382,0.10099 -1.76896,0.23356 -2.50992,0.68932 -0.2785,0.42379 0.4001,0.57575 0.70555,0.58419 0.84196,-9.6e-4 1.72768,0.0644 2.53823,-0.18109 0.58575,-0.45074 -0.22987,-1.15981 -0.73386,-1.09242 z"
       id="path705"
       inkscape:connector-curvature="0" />
    <path
       style="fill:#ff8080;fill-opacity:1;stroke-width:0.08838835"
       d="m 87.893969,156.37243 c -0.44748,0.19981 0.0041,0.73789 0.03092,1.06686 0.656925,1.93575 1.21382,3.91545 2.000975,5.80171 0.208361,0.33858 0.554297,0.0211 0.577459,-0.26275 0.14118,-0.40082 0.805714,-0.74835 0.369032,-1.17999 -0.704954,-1.21531 -1.56858,-2.39885 -1.813802,-3.81153 -0.306739,-0.55273 -0.542554,-1.246 -1.077405,-1.61033 -0.02841,-0.006 -0.05831,-0.008 -0.08718,-0.004 z"
       id="path707"
       inkscape:connector-curvature="0" />
    <path
       style="fill:#ff8080;fill-opacity:1;stroke-width:0.08838835"
       d="m 92.283866,169.8917 c -0.394365,0.28025 0.04035,0.82592 0.06041,1.20131 0.445502,1.47979 0.783275,3.00282 1.34293,4.44277 0.294822,0.30898 0.381204,-0.28744 0.718674,-0.16555 0.40615,-0.0402 1.161577,-0.13374 1.02199,-0.72126 -0.469533,-1.21796 -1.362607,-2.2235 -2.021562,-3.34204 -0.323191,-0.44883 -0.569698,-0.96069 -0.919595,-1.38501 -0.05922,-0.055 -0.133397,-0.0302 -0.202844,-0.0302 z"
       id="path709"
       inkscape:connector-curvature="0" />
    <path
       style="fill:#ff8080;fill-opacity:1;stroke-width:0.08838835"
       d="m 97.085839,186.61696 c -0.415283,0.0545 -0.951734,0.34998 -0.729031,0.85125 0.542619,3.01065 0.981108,6.02734 1.310978,9.06619 0.241791,0.46905 0.737155,-0.10089 1.103819,-0.14483 0.43043,-0.18746 0.942053,-0.1464 1.342055,-0.38101 0.0501,-1.04023 -0.783074,-1.86746 -1.201325,-2.76412 -0.5821,-0.92852 -1.262217,-1.87446 -1.38231,-2.98613 -0.212568,-1.15588 -0.08992,-2.34916 -0.180672,-3.50356 -0.0061,-0.11683 -0.172303,-0.15805 -0.263514,-0.13779 z"
       id="path711"
       inkscape:connector-curvature="0" />
    <path
       style="fill:#ff8080;fill-opacity:1;stroke-width:0.08838835"
       d="m 98.147362,200.21478 c -0.324887,0.40052 -0.04716,1.01089 -0.100543,1.48914 0.112887,0.48821 -0.123701,1.0942 0.192902,1.51623 0.339738,0.28816 0.871284,-0.0511 0.717638,-0.48492 -0.13611,-0.81806 -0.236504,-1.66025 -0.51393,-2.44242 -0.08025,-0.1153 -0.174789,-0.0851 -0.296067,-0.078 z"
       id="path713"
       inkscape:connector-curvature="0" />
    <path
       style="fill:#ff8080;fill-opacity:1;stroke-width:0.08838835"
       d="m 97.956257,213.66275 c -0.481709,0.15069 -0.273975,0.82464 -0.397377,1.197 -0.05261,0.86247 -0.337769,1.74177 -0.208567,2.6006 0.313836,0.50685 0.999909,0.0787 1.440016,0.021 0.307824,-0.15926 1.128773,-0.0876 0.946124,-0.60136 -0.469532,-0.37128 -0.541418,-1.09042 -0.136035,-1.53229 0.346468,-0.74428 -0.432904,-1.3407 -1.059969,-1.54835 -0.186917,-0.0663 -0.382437,-0.14856 -0.584192,-0.13656 z"
       id="path715"
       inkscape:connector-curvature="0" />
    <path
       style="fill:#ff8080;fill-opacity:1;stroke-width:0.08838835"
       d="m 119.27908,209.57462 c -0.50937,0.0484 -1.20876,0.12523 -1.45323,0.63995 -0.0732,0.68988 1.47456,0.6476 0.89753,1.41646 -0.58717,0.79563 -1.81237,1.07926 -2.06211,2.11476 -0.003,0.68879 0.62647,1.216 1.16683,1.54818 0.89351,0.0243 1.78942,-0.25057 2.68065,-0.34803 0.50047,-0.24961 -0.16737,-0.51396 -0.20181,-0.81397 0.23835,-0.77897 -0.0135,-1.57937 -0.42692,-2.24613 -0.0887,-0.28774 -0.49048,-0.66508 -0.0979,-0.89373 0.3414,-0.24798 0.91518,-0.75167 0.41432,-1.14818 -0.25005,-0.21512 -0.59759,-0.27211 -0.91738,-0.26931 z"
       id="path717"
       inkscape:connector-curvature="0" />
    <path
       style="fill:#ff8080;fill-opacity:1;stroke-width:0.08838835"
       d="m 160.04614,174.3769 c -0.42305,0.25953 -0.42122,0.892 -0.65161,1.3051 -0.8752,2.29181 -1.56186,4.65745 -2.49792,6.92364 -0.0796,0.31624 -0.33463,0.27458 -0.54932,0.3848 -0.21691,0.44397 -0.15766,1.00203 -0.33077,1.47515 -0.49961,2.79819 -1.92989,5.33496 -3.73367,7.49834 -0.29944,0.46598 -0.88181,0.80677 -0.97801,1.37209 0.13226,0.44962 0.816,0.36626 0.9312,-0.0671 0.49761,-0.7362 1.12089,-1.48695 1.79123,-2.00743 0.202,0.27644 0.0203,0.95121 0.51773,0.89044 0.45018,-0.41073 0.49123,-1.12431 0.75129,-1.6598 1.7756,-5.1861 3.67673,-10.34439 5.00949,-15.66725 0.0597,-0.20431 0.0107,-0.45842 -0.25964,-0.44798 z"
       id="path719"
       inkscape:connector-curvature="0" />
    <path
       style="fill:#ff8080;fill-opacity:1;stroke-width:0.08838835"
       d="m 162.09012,161.11346 c -0.39022,0.46631 -0.42231,1.15505 -0.61668,1.72223 -0.0899,0.5942 -0.36193,1.19407 -0.31088,1.79415 0.0471,0.22406 0.40282,0.17038 0.30659,0.4485 0.12491,0.43351 0.58506,0.0827 0.51649,-0.23713 0.17007,-1.18842 0.37195,-2.38432 0.44094,-3.5798 -0.0347,-0.14046 -0.211,-0.21164 -0.33646,-0.14795 z"
       id="path721"
       inkscape:connector-curvature="0" />
    <path
       style="fill:#ff8080;fill-opacity:1;stroke-width:0.08838835"
       d="m 169.32536,134.04971 c -0.48139,0.83634 -0.69554,1.82275 -1.03755,2.72806 -0.40278,0.88259 -0.0471,1.87318 -0.41132,2.76485 -0.47345,1.49092 -1.37307,2.81465 -1.9092,4.26952 0.0366,0.4021 0.5588,0.27144 0.62839,-0.0535 0.54953,-0.77178 0.75857,-1.73689 1.34516,-2.47729 0.26817,-0.36922 0.52661,0.53514 0.83675,0.10531 0.3908,-2.37662 0.70327,-4.77882 0.91099,-7.18018 -0.05,-0.16367 -0.21127,-0.24689 -0.36322,-0.15675 z"
       id="path723"
       inkscape:connector-curvature="0" />
    <path
       style="fill:#ff8080;fill-opacity:1;stroke-width:0.08838835"
       d="m 117.883,116.85593 c -0.26179,0.009 -0.20502,0.34381 -0.49598,0.27708 -0.3129,0.10327 -0.8987,-0.0812 -0.95812,0.36547 0.25783,0.41442 0.88009,0.15539 1.28681,0.26585 2.81949,0.12848 5.63422,0.45271 8.45611,0.57073 0.44118,-0.0413 0.19167,-0.61357 -0.16918,-0.52222 -2.71122,-0.27703 -5.41014,-0.67296 -8.11964,-0.95691 z"
       id="path725"
       inkscape:connector-curvature="0" />
    <path
       style="fill:#ff8080;fill-opacity:1;stroke-width:0.08838835"
       d="m 105.83974,115.78664 c -0.59111,0.0201 -1.22503,0.1017 -1.73721,0.40794 -0.47591,0.50423 -1.01494,0.98477 -1.3038,1.64135 -0.37065,0.5456 -0.57081,1.33405 -0.0516,1.85913 0.51597,0.56879 1.18804,1.02611 1.78382,1.46376 0.14655,0.17846 0.35838,0.18847 0.51014,0.3615 0.45175,0.0696 0.89765,0.35069 1.38728,0.24548 1.54483,-0.17815 2.94837,-0.94709 4.48812,-1.11607 0.67914,-0.19776 1.56997,-0.3205 1.92849,-1.0068 0.11202,-0.65623 -0.74131,-0.84965 -1.16402,-1.12178 -0.11214,-0.0923 -0.61673,-0.23898 -0.44423,-0.3204 1.64653,-0.34925 3.35234,-0.42192 5.02312,-0.48286 0.83956,0.37453 1.8221,0.22128 2.72225,0.34423 2.45061,0.13083 4.8971,0.46207 7.35281,0.42917 0.28439,-0.004 0.85636,-0.15011 0.5526,-0.52981 -0.40806,-0.12209 -0.73213,-0.46165 -1.20377,-0.4252 -2.63286,-0.2267 -5.24387,-0.69957 -7.88314,-0.83641 -1.37728,-0.25321 -2.78664,-0.35651 -4.18011,-0.46289 -2.55245,-0.29443 -5.18908,-0.41268 -7.7808,-0.45034 z m -1.79366,0.60767 c -0.003,-0.0122 0.005,-0.0435 0,0 z m 1.26782,5.00516 c -0.0305,0.0393 0.0423,-0.0838 0,0 z"
       id="path727"
       inkscape:connector-curvature="0" />
    <path
       style="fill:#ff8080;fill-opacity:1;stroke-width:0.08838835"
       d="m 102.70782,101.33049 c -0.3296,-0.0319 -0.50712,0.25801 -0.85898,0.16916 -1.05384,0.0423 -2.198187,0.46408 -2.825881,1.34483 -0.312122,0.47903 0.09044,1.01197 0.558297,1.1746 1.067924,0.57391 2.358844,0.27473 3.496264,0.43608 2.41047,0.27701 4.73423,0.98622 7.04871,1.67674 4.99457,1.53436 9.92031,3.43593 15.12119,4.16292 6.25411,1.27425 12.54329,2.41687 18.7003,4.10894 1.55825,0.38978 3.04661,1.01242 4.59309,1.4326 0.57445,0.17005 1.26314,-0.11042 1.43872,-0.70918 0.30984,-0.44461 0.0877,-1.07044 0.12292,-1.57925 -0.10437,-1.1021 -0.13032,-2.23586 -0.39084,-3.30938 -0.21967,-0.46029 -0.73438,-0.69683 -1.21951,-0.493 -5.82593,0.98047 -11.80042,0.87195 -17.62895,0.0171 -2.99711,-0.52843 -6.06868,-1.02844 -8.87182,-2.28435 -0.5806,-0.28827 -1.2446,-0.65751 -1.64106,-1.13058 3.1192,-0.519 6.30204,-0.32025 9.46462,-0.39625 6.76906,-0.0532 13.54219,0.0239 20.3076,-0.23498 0.46039,-0.0898 1.06994,0.0644 1.42766,-0.2908 0.0784,-0.4686 -0.46009,-0.84602 -0.85816,-0.97038 -3.69922,-0.50088 -7.44343,-0.54396 -11.16369,-0.81483 -10.38043,-0.64444 -20.75311,-1.42598 -31.1295,-2.13793 -1.89491,-0.10428 -3.79327,-0.15938 -5.69098,-0.17207 z"
       id="path729"
       inkscape:connector-curvature="0" />
    <path
       style="fill:#ff8080;fill-opacity:1;stroke-width:0.08838835"
       d="m 93.903686,81.316568 c -0.689587,-0.107066 -1.444396,0.415974 -1.372091,1.157162 0.08546,0.847583 1.06447,1.116128 1.649032,1.558613 2.687914,1.603833 5.677726,2.741974 8.677733,3.526997 -1.22005,0.258073 -2.5353,0.02518 -3.711623,0.481993 -0.466912,0.426946 0.177674,1.092493 0.667747,1.116766 1.021776,0.03316 2.060516,-0.05224 3.068386,-0.220453 0.67698,0.106179 1.38935,0.272673 2.09205,0.328001 8.00786,0.916533 16.04724,1.639085 24.10733,1.848199 2.71067,-0.05258 5.42551,0.13496 8.13671,0.20697 3.01516,0.122739 6.04025,0.217592 9.05499,0.06512 0.39249,0.04152 0.72832,-0.393694 0.41156,-0.709696 -0.5099,-0.382351 -1.23982,-0.185864 -1.83561,-0.281911 -5.04737,-0.173279 -10.08777,-0.443002 -15.12856,-0.733865 -0.56599,0.03714 -1.09129,-0.242165 -1.66861,-0.245084 -4.99776,-0.635077 -10.06618,-0.756998 -15.0083,-1.707649 -0.25434,-0.02373 -0.43173,-0.102254 -0.52015,-0.337078 -0.81424,-1.072827 -2.27396,-1.341796 -3.45436,-1.862048 -3.52231,-1.414892 -7.10283,-2.727953 -10.794982,-3.626661 -1.437724,-0.297685 -2.89973,-0.547859 -4.371252,-0.565374 z"
       id="path733"
       inkscape:connector-curvature="0" />
    <path
       style="fill:#ff8080;fill-opacity:1;stroke-width:0.08838835"
       d="m 148.35574,67.659359 c -2.71463,0.107981 -5.38168,0.703372 -8.04581,1.194874 -5.58882,1.177433 -11.13156,2.681 -16.43395,4.820818 -1.22274,0.563534 -2.57067,1.021565 -3.54452,1.987252 -0.29858,0.23712 -0.23764,0.675954 0.0946,0.851601 0.0544,0.488673 0.71216,0.243634 1.03856,0.257569 3.98608,-0.613831 7.94343,-1.410262 11.91529,-2.111726 4.74467,-0.883512 9.50104,-1.762874 14.21183,-2.785223 0.84302,-0.240539 1.6627,-0.491907 2.51506,-0.694727 0.77201,-0.264194 1.6299,-0.439814 2.29167,-0.925756 0.25596,-0.297376 0.82989,-0.733048 0.40914,-1.168211 -1.17831,-1.113363 -2.87757,-1.464662 -4.45187,-1.426471 z m 3.90169,2.258737 c 0.0809,0.05031 -0.0771,-0.02734 0,0 z m 0.15572,0.22684 c -0.009,0.07946 -0.005,-0.03854 0,0 z"
       id="path735"
       inkscape:connector-curvature="0" />
    <path
       style="fill:#ff8080;fill-opacity:1;stroke-width:0.08838835"
       d="m 119.0424,47.964467 c -1.34869,0.06251 -2.77529,0.196963 -3.96763,0.881294 -0.44184,0.291515 -0.81176,0.765893 -0.88889,1.290263 0.44209,0.538882 1.09155,0.798677 1.78019,0.854363 1.496,0.180952 3.00106,0.294072 4.47757,0.616659 1.3971,0.260849 2.83887,0.44953 4.21954,0.706404 0.60853,0.103954 1.23077,0.121263 1.83374,0.276415 4.89821,0.571095 9.82142,1.146972 14.76231,1.083876 0.41733,-0.03968 1.20852,0.0762 1.21144,-0.547359 0.12295,-0.684672 -0.70733,-0.854298 -1.21517,-0.888027 -0.91859,-0.02574 -2.07411,-0.106839 -2.60228,-0.968474 -0.12581,-0.443063 0.0427,-0.973929 -0.34302,-1.332903 -0.7171,-0.891655 -2.01356,-0.701903 -3.02328,-0.853434 -3.89701,-0.545452 -7.86288,-0.741756 -11.79979,-0.970571 -1.48066,-0.06708 -2.96222,-0.146611 -4.44473,-0.148506 z m 5.5298,4.272334 c -0.005,-0.0034 -0.0155,-0.02096 0,0 z"
       id="path737"
       inkscape:connector-curvature="0" />
    <path
       style="fill:#ff8080;fill-opacity:1;stroke-width:0.08838835"
       d="m 124.22227,41.478972 c -3.96837,0.492855 -7.93831,0.994495 -11.88892,1.612397 -0.80035,0.200408 -1.33176,0.991466 -1.60118,1.728234 -0.33891,0.901809 0.51314,1.812398 1.41975,1.74942 6.43259,0.18623 12.74612,-1.291264 19.1294,-1.809621 1.47355,-0.195107 3.00266,-0.21967 4.41711,-0.709226 0.44422,-0.284694 -0.11616,-0.728607 -0.38515,-0.891307 -1.57816,-1.045889 -3.56967,-1.024472 -5.38476,-1.252054 -1.52366,-0.135208 -3.0424,-0.451386 -4.56593,-0.545553 -0.38011,0.03924 -0.76022,0.07847 -1.14032,0.11771 z"
       id="path739"
       inkscape:connector-curvature="0" />
    <path
       style="fill:#ff8080;fill-opacity:1;stroke-width:0.08838835"
       d="m 129.16269,34.138942 c -2.95102,0.158575 -5.93222,0.359007 -8.79481,1.138 -0.40745,0.149119 -0.86793,0.373141 -1.25522,0.45955 -0.0928,-0.362105 -0.53187,-0.145561 -0.51513,0.14881 -0.59766,0.514778 -1.40468,0.659288 -2.15671,0.760796 -0.42796,0.171162 -0.94474,0.148047 -1.37248,0.381866 -1.11165,0.407349 -1.86447,1.402594 -2.56702,2.303966 -0.41694,0.546586 -0.68538,1.5737 0.0917,1.94368 1.17266,0.415926 2.40949,0.877373 3.67347,0.623207 2.48105,-0.359026 5.01399,-0.523583 7.42463,-1.2491 2.46923,-0.861537 5.04648,-1.390691 7.49435,-2.308876 0.35754,-0.14525 0.29431,-0.596578 0.0492,-0.81086 -0.1364,-0.497577 -0.82759,-0.397445 -1.22604,-0.503572 -1.18756,-0.178642 -2.47873,0.01284 -3.56834,-0.563303 -0.19731,-0.24148 0.33323,-0.332013 0.48217,-0.387217 1.07255,-0.32776 2.34594,-0.146005 3.28056,-0.85678 0.35619,-0.229493 0.41694,-0.841861 -0.0699,-0.950347 -0.31105,-0.101338 -0.64391,-0.141184 -0.97038,-0.12982 z"
       id="path741"
       inkscape:connector-curvature="0" />
    <path
       style="fill:#ff8080;fill-opacity:1;stroke-width:0.08838835"
       d="m 149.39275,24.310226 c -0.50446,0.07033 -1.18657,-0.06097 -1.55249,0.354935 -0.0669,0.30671 0.31257,0.556209 0.10327,0.881145 -0.10361,0.661739 0.62722,0.217419 0.89955,0.01893 0.54527,-0.30332 1.08239,-0.657737 1.70114,-0.783028 0.3485,-0.301176 -0.17249,-0.564264 -0.46124,-0.46931 -0.23001,-0.0066 -0.46019,-0.0091 -0.69023,-0.0027 z"
       id="path743"
       inkscape:connector-curvature="0" />
    <path
       style="fill:#ff8080;fill-opacity:1;stroke-width:0.08838835"
       d="m 158.42321,37.478364 c -0.24482,0.180839 -0.39991,0.488377 -0.60698,0.719191 -0.11356,0.54688 0.63574,0.741456 0.93881,1.055726 0.28435,0.135862 0.70446,0.679182 0.9826,0.27735 0.006,-0.501727 -0.48167,-0.873586 -0.65117,-1.329969 -0.19167,-0.229383 -0.27223,-0.775905 -0.66326,-0.722298 z"
       id="path745"
       inkscape:connector-curvature="0" />
    <path
       style="fill:#ff8080;fill-opacity:1;stroke-width:0.08838835"
       d="m 144.32855,186.00324 c -0.70897,0.30106 -1.17247,1.00493 -1.67368,1.56682 -0.2017,0.33339 -0.66653,0.78322 -0.3867,1.17512 0.52239,0.22724 0.8242,-0.49 1.07102,-0.83106 0.29422,-0.58833 0.71859,-1.10192 1.27092,-1.45547 0.14696,-0.19905 -0.0546,-0.47417 -0.28156,-0.45541 z"
       id="path747"
       inkscape:connector-curvature="0" />
    <path
       style="fill:#ff8080;fill-opacity:1;stroke-width:0.08838835"
       d="m 141.24514,188.8826 c -0.3235,0.0561 -0.8801,0.53777 -0.4245,0.79118 0.38951,0.0978 1.06758,-0.41144 0.60887,-0.7627 -0.0566,-0.029 -0.12195,-0.0371 -0.18437,-0.0285 z"
       id="path749"
       inkscape:connector-curvature="0" />
  </g>
  <g
     inkscape:groupmode="layer"
     id="layer3"
     inkscape:label="Line Art"
     sodipodi:insensitive="true">
    <path
       style="fill:none;stroke:#000000;stroke-width:1px;stroke-linecap:butt;stroke-linejoin:miter;stroke-opacity:1"
       d="m 150.75,23.625 c -5.89236,1.031649 -11.76835,2.156838 -17.625,3.375 -3.01569,0.627253 -6.04618,1.281649 -9.125,1.375 -0.37069,0.01124 -0.74338,0.01448 -1.10886,0.07742 -0.36548,0.06294 -0.72762,0.18957 -1.01614,0.422581 -0.326,0.263283 -0.53467,0.640518 -0.75,1 -1.15823,1.933613 -2.71761,3.597449 -4.375,5.125 -0.12598,0.116109 -0.25336,0.232122 -0.3974,0.324886 -0.14404,0.09276 -0.30678,0.161996 -0.4776,0.175114 -0.17869,0.01372 -0.35905,-0.03512 -0.51587,-0.121873 -0.15681,-0.08676 -0.29121,-0.210116 -0.40586,-0.347864 C 114.72399,34.754768 114.5724,34.42417 114.375,34.125 114.00505,33.564318 113.4801,33.123066 112.92865,32.739491 112.3772,32.355915 111.79209,32.0217 111.25,31.625 111.05902,31.485242 110.87297,31.33746 110.66819,31.218842 110.46341,31.100225 110.23641,31.010799 110,31 c -0.34569,-0.01579 -0.67362,0.135 -1,0.25 -1.15403,0.406619 -2.40702,0.383183 -3.625,0.5 -1.90487,0.182697 -3.75565,0.715787 -5.625,1.125 -5.81162,1.272204 -11.842116,1.352975 -17.625,2.75 -0.12843,0.03103 -0.258193,0.06325 -0.375,0.125 -0.214435,0.11336 -0.368806,0.319344 -0.462436,0.543098 C 81.193935,36.516853 81.155337,36.75935 81.125,37 c -0.141123,1.119472 -0.119577,2.254231 -0.25,3.375 -0.179038,1.538529 -0.641471,3.028496 -1.125,4.5 -1.209296,3.680196 -2.57884,7.379994 -2.75,11.25 -0.04792,1.083481 -9.75e-4,2.172575 -0.125,3.25 -0.151564,1.316658 -0.555049,2.588847 -0.875,3.875 -1.92038,7.719631 -0.822053,15.865087 -1.875,23.75 -0.06329,0.473969 -0.13853,0.959386 -0.375,1.375 -0.155102,0.272604 -0.37298,0.503015 -0.582746,0.736184 C 72.957488,89.344353 72.750811,89.5877 72.625,89.875 c -0.148032,0.338044 -0.174906,0.721326 -0.117346,1.085845 0.05756,0.364518 0.196185,0.712213 0.367346,1.039155 0.285731,0.545787 0.665474,1.045669 0.875,1.625 0.229635,0.634931 0.24054,1.324885 0.25,2 0.15652,11.17017 0.651754,22.50738 4.125,33.125 0.106109,0.32437 0.215302,0.64927 0.275066,0.98528 0.05976,0.33602 0.06856,0.68653 -0.02507,1.01472 -0.114116,0.40002 -0.370756,0.74076 -0.594761,1.09127 -0.112002,0.17525 -0.217307,0.35599 -0.293245,0.54961 -0.07594,0.19363 -0.121976,0.40137 -0.111994,0.60912 0.01842,0.38344 0.226118,0.73644 0.489646,1.01558 0.263527,0.27914 0.583012,0.49787 0.885354,0.73442 0.748799,0.58584 1.406959,1.29744 1.875,2.125 0.461976,0.81683 0.729765,1.72633 1,2.625 2.504373,8.32836 5.537293,16.48715 8.25,24.75 5.560783,16.93802 9.806131,34.87529 7.125,52.5 -0.02607,0.17136 -0.05287,0.34413 -0.04335,0.5172 0.0095,0.17308 0.05832,0.34887 0.16835,0.4828 0.07767,0.0945 0.183088,0.1645 0.297509,0.20784 0.114421,0.0433 0.237665,0.0608 0.360015,0.06 0.244701,-0.002 0.48263,-0.0741 0.717476,-0.14283 6.00856,-1.75923 12.40515,-1.41013 18.625,-2.125 3.52142,-0.40473 7.00373,-1.15512 10.375,-2.25 3.15071,-1.02326 6.19532,-2.3432 9.25,-3.625 2.01312,-0.84474 4.05973,-1.68122 6.22208,-1.98205 2.16234,-0.30083 4.48564,-0.0145 6.27792,1.23205 0.20782,0.14455 0.40905,0.30203 0.63806,0.4099 0.1145,0.0539 0.23571,0.0951 0.36095,0.11334 0.12525,0.0183 0.25477,0.0132 0.37599,-0.0232 0.15314,-0.046 0.28929,-0.14122 0.39483,-0.26133 0.10555,-0.12011 0.18145,-0.26441 0.233,-0.41577 0.10308,-0.30272 0.10986,-0.62834 0.12217,-0.9479 0.0861,-2.23515 0.49075,-4.44693 1,-6.625 2.59109,-11.08221 7.8999,-21.48196 9.5,-32.75 0.57264,-4.03261 0.67564,-8.19354 2.125,-12 0.50445,-1.32484 1.16461,-2.58388 1.75,-3.875 2.0023,-4.4162 3.12033,-9.19214 3.75,-14 0.39562,-3.02075 0.6037,-6.06938 1.18081,-9.06077 0.57711,-2.99138 1.54737,-5.9609 3.31919,-8.43923 0.38316,-0.53594 0.80192,-1.04637 1.16814,-1.59403 0.36622,-0.54765 0.68188,-1.13945 0.83186,-1.78097 0.15379,-0.65784 0.12813,-1.34611 0.0293,-2.01442 -0.0988,-0.66832 -0.26921,-1.32366 -0.40434,-1.98558 -0.3769,-1.84624 -0.47818,-3.74351 -0.375,-5.625 0.16117,-2.93896 0.81534,-5.82474 1.33636,-8.721636 0.52103,-2.896894 0.91094,-5.858629 0.53864,-8.778364 -0.25598,-2.007507 -0.87021,-3.976245 -0.875,-6 -0.003,-1.461734 0.31247,-2.914597 0.25,-4.375 -0.0598,-1.398246 -0.46384,-2.755043 -0.75,-4.125 -0.44135,-2.112892 -0.60542,-4.279972 -1.125,-6.375 -0.80317,-3.238522 -2.4382,-6.234819 -3.125,-9.5 -0.23833,-1.133058 -0.35996,-2.288188 -0.59872,-3.421155 -0.23876,-1.132967 -0.60429,-2.260953 -1.27628,-3.203845 -0.75413,-1.058132 -1.85398,-1.829115 -2.625,-2.875 -0.87617,-1.188521 -1.27301,-2.651715 -1.875,-4 -1.69121,-3.787832 -5.01149,-6.678425 -6.625,-10.5 -0.73078,-1.730833 -1.08447,-3.59268 -1.59963,-5.399453 C 156.38521,29.168775 155.67367,27.357674 154.375,26 c -0.75868,-0.793153 -1.70655,-1.409552 -2.75,-1.75 -1.37445,-0.448443 -2.90429,-0.403448 -4.25,0.125"
       id="path570"
       inkscape:connector-curvature="0"
       inkscape:path-effect="#path-effect572"
       inkscape:original-d="m 150.75,23.625 c -0.29267,-0.207334 -11.749,2.249 -17.625,3.375 -5.876,1.126 -6.08233,0.915666 -9.125,1.375 -3.04267,0.459333 -1.41567,0.332333 -2.125,0.5 -0.70933,0.167666 -0.499,0.665666 -0.75,1 -0.251,0.334333 -2.91567,3.415666 -4.375,5.125 -1.45933,1.709333 -0.58233,0.332333 -0.875,0.5 -0.29267,0.167666 -0.999,-0.917667 -1.5,-1.375 -0.501,-0.457334 -2.08233,-1.667667 -3.125,-2.5 -1.04267,-0.832334 -0.83233,-0.417667 -1.25,-0.625 -0.41767,-0.207334 -0.66567,0.165666 -1,0.25 -0.33433,0.08433 -2.41567,0.332333 -3.625,0.5 -1.20933,0.167666 -3.749,0.749 -5.625,1.125 -1.876,0.376 -11.749,1.832333 -17.625,2.75 -5.876,0.917666 -0.249,0.08233 -0.375,0.125 -0.126,0.04267 -0.415667,0.832333 -0.625,1.25 -0.209333,0.417666 -0.165667,2.249 -0.25,3.375 -0.08433,1.126 -0.749,2.999 -1.125,4.5 -0.376,1.501 -1.832333,7.499 -2.75,11.25 -0.917667,3.751 -0.08233,2.165666 -0.125,3.25 -0.04267,1.084333 -0.582333,2.582333 -0.875,3.875 -0.292667,1.292666 -1.249,15.832333 -1.875,23.75 -0.626,7.917666 -0.249,0.915666 -0.375,1.375 -0.126,0.459333 -0.749,0.999 -1.125,1.5 -0.376,0.501 0.167667,1.415666 0.25,2.125 0.08233,0.709333 0.584333,1.082333 0.875,1.625 0.290667,0.542666 0.167667,1.332333 0.25,2 0.08233,0.667666 2.751,22.08233 4.125,33.125 1.374,11.04267 0.167667,1.33233 0.25,2 0.08233,0.66767 -0.665667,1.499 -1,2.25 -0.334333,0.751 0.917667,1.16567 1.375,1.75 0.457333,0.58433 1.251,1.41567 1.875,2.125 0.624,0.70933 0.667667,1.749 1,2.625 0.332333,0.876 5.501,16.499 8.25,24.75 2.749,8.251 4.751,34.999 7.125,52.5 2.374,17.501 0.08433,0.66567 0.125,1 0.04067,0.33433 0.917667,0.0823 1.375,0.125 0.457333,0.0427 12.41767,-1.41767 18.625,-2.125 6.20733,-0.70733 6.91767,-1.501 10.375,-2.25 3.45733,-0.749 6.16767,-2.41767 9.25,-3.625 3.08233,-1.20733 8.33433,-0.501 12.5,-0.75 4.16567,-0.249 0.91767,0.33233 1.375,0.5 0.45733,0.16767 0.501,-1.08433 0.75,-1.625 0.249,-0.54067 0.66767,-4.41767 1,-6.625 0.33233,-2.20733 6.33433,-21.83433 9.5,-32.75 3.16567,-10.91567 1.41767,-8.001 2.125,-12 0.70733,-3.999 1.16767,-2.58433 1.75,-3.875 0.58233,-1.29067 2.501,-9.33433 3.75,-14 1.249,-4.66567 3.001,-11.66767 4.5,-17.5 1.499,-5.83233 1.33433,-2.251 2,-3.375 0.66567,-1.124 -0.249,-2.66767 -0.375,-4 -0.126,-1.33233 -0.249,-3.751 -0.375,-5.625 -0.126,-1.874 1.251,-11.667667 1.875,-17.5 0.624,-5.832334 -0.58233,-4.001 -0.875,-6 -0.29267,-1.999 0.16767,-2.917667 0.25,-4.375 0.0823,-1.457334 -0.499,-2.751 -0.75,-4.125 -0.251,-1.374 -0.749,-4.251 -1.125,-6.375 -0.376,-2.124 -2.08233,-6.334334 -3.125,-9.5 -1.04267,-3.165667 -1.249,-4.417667 -1.875,-6.625 -0.626,-2.207334 -1.749,-1.917667 -2.625,-2.875 -0.876,-0.957334 -1.249,-2.667667 -1.875,-4 -0.626,-1.332334 -4.41567,-7.001 -6.625,-10.5 -2.20933,-3.499 -2.749,-6.917667 -4.125,-10.375 -1.376,-3.457334 -1.83233,-1.167667 -2.75,-1.75 -0.91767,-0.582334 -2.83233,0.08233 -4.25,0.125" />
    <path
       style="fill:none;stroke:#000000;stroke-width:1px;stroke-linecap:butt;stroke-linejoin:miter;stroke-opacity:1"
       d="m 158.125,36.25 c -1.70689,-0.08592 -3.41811,-0.08592 -5.125,0 -7.64955,0.385037 -15.09345,2.482286 -22.625,3.875 -6.54243,1.209807 -13.16998,1.889962 -19.75,2.875 -7.00597,1.048803 -13.961986,2.443829 -21,3.25 C 86.261837,46.635234 82.883217,46.885502 79.5,47"
       id="path574"
       inkscape:connector-curvature="0"
       inkscape:path-effect="#path-effect576"
       inkscape:original-d="m 158.125,36.25 c -1.66567,-10e-4 -3.41567,-10e-4 -5.125,0 -1.70933,10e-4 -15.08233,2.582333 -22.625,3.875 -7.54267,1.292666 -13.16567,1.915666 -19.75,2.875 -6.58433,0.959333 -13.999,2.165666 -21,3.25 C 82.624,47.334333 82.876,46.749 79.5,47" />
    <path
       style="fill:none;stroke:#000000;stroke-width:1px;stroke-linecap:butt;stroke-linejoin:miter;stroke-opacity:1"
       d="m 88.375,46.5 c -0.19517,1.323192 -0.278896,2.662804 -0.25,4 0.05229,2.420026 0.475394,4.831695 1.25,7.125"
       id="path578"
       inkscape:connector-curvature="0"
       inkscape:path-effect="#path-effect580"
       inkscape:original-d="m 88.375,46.5 c -0.08233,1.332333 -0.165667,2.665666 -0.25,4 -0.08433,1.334333 0.834333,4.749 1.25,7.125" />
    <path
       style="fill:none;stroke:#000000;stroke-width:1px;stroke-linecap:butt;stroke-linejoin:miter;stroke-opacity:1"
       d="m 145.875,37.25 c 0.53543,2.788293 1.37534,5.518008 2.5,8.125 0.38398,0.890072 0.80103,1.765877 1.25,2.625"
       id="path582"
       inkscape:connector-curvature="0"
       inkscape:path-effect="#path-effect584"
       inkscape:original-d="m 145.875,37.25 c 0.83433,2.707333 1.66767,5.415666 2.5,8.125 0.83233,2.709333 0.83433,1.749 1.25,2.625" />
  </g>
</svg>
