<?xml version="1.0" encoding="UTF-8" standalone="no"?>
<svg
   xmlns:dc="http://purl.org/dc/elements/1.1/"
   xmlns:cc="http://creativecommons.org/ns#"
   xmlns:rdf="http://www.w3.org/1999/02/22-rdf-syntax-ns#"
   xmlns:svg="http://www.w3.org/2000/svg"
   xmlns="http://www.w3.org/2000/svg"
   xmlns:xlink="http://www.w3.org/1999/xlink"
   xmlns:sodipodi="http://sodipodi.sourceforge.net/DTD/sodipodi-0.dtd"
   xmlns:inkscape="http://www.inkscape.org/namespaces/inkscape"
   cursor="default"
   viewBox="0 0 256 256"
   version="1.1"
   id="svg128"
   sodipodi:docname="MLeatherpants.svg"
   enable-background="new"
   inkscape:version="0.92.4 (5da689c313, 2019-01-14)">
  <metadata
     id="metadata132">
    <rdf:RDF>
      <cc:Work
         rdf:about="">
        <dc:format>image/svg+xml</dc:format>
        <dc:type
           rdf:resource="http://purl.org/dc/dcmitype/StillImage" />
        <dc:title />
      </cc:Work>
    </rdf:RDF>
  </metadata>
  <sodipodi:namedview
     pagecolor="#ffffff"
     bordercolor="#666666"
     borderopacity="1"
     objecttolerance="10"
     gridtolerance="10"
     guidetolerance="10"
     inkscape:pageopacity="0"
     inkscape:pageshadow="2"
     inkscape:window-width="1920"
     inkscape:window-height="1017"
     id="namedview130"
     showgrid="false"
     inkscape:zoom="2.8284271"
     inkscape:cx="77.875264"
     inkscape:cy="164.24554"
     inkscape:window-x="-8"
     inkscape:window-y="-8"
     inkscape:window-maximized="1"
     inkscape:current-layer="layer2"
     showguides="false" />
  <defs
     id="defs94">
    <inkscape:path-effect
       effect="spiro"
       id="path-effect4079"
       is_visible="true" />
    <inkscape:path-effect
       effect="spiro"
       id="path-effect4063"
       is_visible="true" />
    <inkscape:path-effect
       effect="spiro"
       id="path-effect4059"
       is_visible="true" />
    <inkscape:path-effect
       effect="spiro"
       id="path-effect4055"
       is_visible="true" />
    <inkscape:path-effect
       effect="spiro"
       id="path-effect4051"
       is_visible="true" />
    <inkscape:path-effect
       effect="spiro"
       id="path-effect4047"
       is_visible="true" />
    <inkscape:path-effect
       effect="spiro"
       id="path-effect4043"
       is_visible="true" />
    <inkscape:path-effect
       effect="spiro"
       id="path-effect4039"
       is_visible="true" />
    <inkscape:path-effect
       effect="spiro"
       id="path-effect4035"
       is_visible="true" />
    <inkscape:path-effect
       effect="spiro"
       id="path-effect4031"
       is_visible="true" />
    <inkscape:path-effect
       effect="spiro"
       id="path-effect4027"
       is_visible="true" />
    <inkscape:path-effect
       effect="spiro"
       id="path-effect4023"
       is_visible="true" />
    <inkscape:path-effect
       effect="spiro"
       id="path-effect4019"
       is_visible="true" />
    <inkscape:path-effect
       effect="spiro"
       id="path-effect4015"
       is_visible="true" />
    <inkscape:path-effect
       effect="spiro"
       id="path-effect4011"
       is_visible="true" />
    <inkscape:path-effect
       effect="spiro"
       id="path-effect4007"
       is_visible="true" />
    <inkscape:path-effect
       effect="spiro"
       id="path-effect4003"
       is_visible="true" />
    <inkscape:path-effect
       effect="spiro"
       id="path-effect3999"
       is_visible="true" />
    <inkscape:path-effect
       effect="spiro"
       id="path-effect3995"
       is_visible="true" />
    <inkscape:path-effect
       effect="spiro"
       id="path-effect3991"
       is_visible="true" />
    <inkscape:path-effect
       effect="spiro"
       id="path-effect3987"
       is_visible="true" />
    <inkscape:path-effect
       effect="spiro"
       id="path-effect584"
       is_visible="true" />
    <inkscape:path-effect
       effect="spiro"
       id="path-effect580"
       is_visible="true" />
    <inkscape:path-effect
       effect="spiro"
       id="path-effect576"
       is_visible="true" />
    <inkscape:path-effect
       effect="spiro"
       id="path-effect572"
       is_visible="true" />
    <inkscape:path-effect
       effect="spiro"
       id="path-effect239"
       is_visible="true" />
    <inkscape:path-effect
       effect="spiro"
       id="path-effect235"
       is_visible="true" />
    <inkscape:path-effect
       effect="spiro"
       id="path-effect231"
       is_visible="true" />
    <inkscape:path-effect
       effect="spiro"
       id="path-effect227"
       is_visible="true" />
    <inkscape:path-effect
       effect="spiro"
       id="path-effect223"
       is_visible="true" />
    <inkscape:path-effect
       effect="spiro"
       id="path-effect219"
       is_visible="true" />
    <inkscape:path-effect
       effect="spiro"
       id="path-effect215"
       is_visible="true" />
    <inkscape:path-effect
       effect="spiro"
       id="path-effect211"
       is_visible="true" />
    <inkscape:path-effect
       effect="spiro"
       id="path-effect207"
       is_visible="true" />
    <inkscape:path-effect
       effect="spiro"
       id="path-effect203"
       is_visible="true" />
    <inkscape:path-effect
       effect="spiro"
       id="path-effect199"
       is_visible="true" />
    <inkscape:path-effect
       effect="spiro"
       id="path-effect195"
       is_visible="true" />
    <inkscape:path-effect
       effect="spiro"
       id="path-effect191"
       is_visible="true" />
    <inkscape:path-effect
       effect="spiro"
       id="path-effect187"
       is_visible="true" />
    <inkscape:path-effect
       effect="spiro"
       id="path-effect183"
       is_visible="true" />
    <inkscape:path-effect
       effect="spiro"
       id="path-effect179"
       is_visible="true" />
    <inkscape:path-effect
       effect="spiro"
       id="path-effect175"
       is_visible="true" />
    <inkscape:path-effect
       effect="spiro"
       id="path-effect171"
       is_visible="true" />
    <inkscape:path-effect
       effect="spiro"
       id="path-effect167"
       is_visible="true" />
    <linearGradient
       id="innoGrad2">
      <stop
         offset="0"
         stop-color="#f55"
         id="stop72" />
      <stop
         offset="1"
         stop-color="#ff8080"
         id="stop74" />
    </linearGradient>
    <linearGradient
       id="innoGrad3">
      <stop
         offset="0"
         stop-color="#f55"
         id="stop77" />
      <stop
         offset=".105"
         stop-color="#ff8080"
         id="stop79" />
      <stop
         offset=".777"
         stop-color="#ff8080"
         id="stop81" />
      <stop
         offset="1"
         stop-color="#f55"
         id="stop83" />
    </linearGradient>
    <linearGradient
       id="innoGrad1">
      <stop
         offset="0"
         stop-color="#f55"
         id="stop86" />
      <stop
         offset="1"
         stop-color="#ff2a2a"
         id="stop88" />
    </linearGradient>
    <linearGradient
       id="linearGradient946"
       x1="129.911"
       x2="129.866"
       y1="804.326"
       y2="807.719"
       gradientTransform="translate(-567.54717,-798.77709)"
       gradientUnits="userSpaceOnUse"
       xlink:href="#innoGrad1" />
    <linearGradient
       id="linearGradient954"
       x1="93.616"
       x2="121.116"
       y1="810.353"
       y2="813.076"
       gradientTransform="translate(-567.54717,-798.77709)"
       gradientUnits="userSpaceOnUse"
       xlink:href="#innoGrad3" />
    <linearGradient
       id="linearGradient966"
       x1="170.714"
       x2="164.152"
       y1="809.996"
       y2="810.398"
       gradientTransform="translate(-567.54717,-798.77709)"
       gradientUnits="userSpaceOnUse"
       xlink:href="#innoGrad2" />
  </defs>
  <g
     inkscape:groupmode="layer"
     id="layer4"
     inkscape:label="Color 2"
     style="display:inline">
    <path
       style="fill:#ffaaaa;fill-opacity:1;stroke-width:0.5"
       d="m 100.21846,10.330544 c -3.434283,0.144452 -6.966879,1.034147 -9.76562,3.035157 -0.183925,5.128107 -0.307486,10.307445 -2.802735,14.905273 -1.403575,4.485785 -0.854274,9.303133 -2.221109,13.818189 -1.931821,16.134528 -5.114498,32.174552 -5.175093,48.484457 -0.491557,10.19771 0.894394,20.39816 0.689171,30.55966 -1.16885,6.67665 -1.073709,13.4549 -1.568359,20.18164 -1.30403,6.07642 -2.587252,12.19086 -3.169922,18.40039 -2.981817,18.60043 -1.846893,37.59652 -3.34668,56.2793 0.171406,2.71594 3.077348,4.00816 5.40918,2.93066 4.753823,-1.48718 10.005494,-2.55863 13.970703,-5.69824 2.435245,-5.64782 2.910356,-11.7826 3.34375,-17.82812 1.546763,-10.91386 4.264689,-21.69254 4.751164,-32.7719 0.1547,-4.5226 0.81471,-8.92749 2.18341,-13.22127 0.1264,-5.23876 3.43308,-9.67662 4.21874,-14.8081 0.68335,-4.92902 3.64257,-9.20771 3.5586,-14.2583 1.13712,-10.46907 5.37821,-20.34439 8.21322,-30.440555 2.66669,-7.288245 3.16661,-15.17865 5.77799,-22.44129 1.3696,-0.604655 4.64507,-0.75577 3.91904,1.42871 -0.38999,13.63377 4.36097,26.601095 6.72159,39.841805 0.62276,5.03561 -1.90026,10.27752 0.56558,15.12635 0.94113,3.59782 0.53591,7.4223 2.00375,10.90099 0.35574,4.72706 2.35101,9.13091 2.28711,13.92969 1.06338,18.45269 0.54622,37.03126 3.40767,55.35182 0.67923,2.08454 -0.0273,5.21227 1.74468,6.75169 4.90611,1.46801 9.09781,5.15651 14.18847,5.94922 2.21153,-0.68249 3.35193,-3.4065 3.83203,-5.49902 -0.889,-2.66267 -0.63998,-5.27058 -0.12011,-7.98145 -0.26626,-6.46264 0.42494,-12.86331 1.36621,-19.27734 1.06981,-7.3823 -0.0898,-14.77675 -0.92774,-22.09082 0.0576,-3.15203 1.9259,-6.30112 0.52832,-9.40527 -0.87002,-9.92505 -0.3027,-19.95067 1.11231,-29.77832 -0.74953,-8.96174 1.61506,-17.78147 1.91846,-26.740145 0.79136,-14.385745 1.55959,-28.97172 -0.28174,-43.257907 0.29137,-6.067097 0.24672,-12.288896 -1.06934,-18.239258 0.23313,-3.419188 1.27811,-7.040265 -0.44336,-10.320313 -1.05874,-3.202538 -1.39044,-6.628898 -2.11816,-9.864258 -2.80303,-1.081377 -6.0486,-2.879057 -9.0752,-2.222656 0.36854,3.306131 1.59568,6.687258 2.05957,10.059571 1.04217,0.658638 3.33425,-0.35567 4.15137,0.545898 -5.73294,1.522472 -11.92395,0.918124 -17.83592,1.281811 -1.71133,-0.01978 -3.67507,0.113694 -5.21486,-0.232983 4.81939,-0.971555 10.06471,-0.344589 14.73535,-1.271484 -0.60229,-3.620921 -0.88531,-7.648626 -2.45215,-10.90918 -6.80093,0.547468 -13.65796,0.603175 -20.4375,1.041992 -0.84232,0.703967 0.80692,1.860299 0.24121,2.845703 -0.58358,2.752338 0.0559,6.109651 -1.53125,8.501954 -2.34107,0.923271 -1.96503,-2.590799 -1.95327,-3.899414 -0.0211,-2.417455 -0.35673,-5.156111 1.4064,-7.120118 -4.10421,-1.151557 -9.13973,-0.935637 -13.61062,-1.578427 -2.04898,0.39987 -6.11624,-2.1328288 -6.29858,1.038556 -0.43601,3.014976 -2.01378,6.217532 -1.62987,9.229324 4.22161,0.988252 9.07326,0.182034 13.06055,1.444336 -6.77519,0.826905 -13.73416,-0.505584 -20.540208,-1.046253 -0.840401,-0.168379 -3.359089,-0.304399 -3.266432,-0.696911 1.842716,-0.641864 4.65843,0.840848 5.79652,-0.645842 0.53275,-3.260131 2.10226,-6.610695 2.00231,-9.873689 -0.61801,-0.530402 -1.55222,-0.417161 -2.3086,-0.445313 z m 25.37793,15.041016 c 0.33586,8.708945 -0.66936,17.53717 -0.90062,26.28892 -0.25949,0.753468 0.16506,3.018135 -0.7898,3.09194 -0.42253,-6.804927 0.58374,-13.792599 0.60489,-20.667326 0.38265,-2.853133 -0.23623,-6.16758 1.05721,-8.773104 z m 2.76368,5.435547 c 0.85063,5.766353 -0.0109,11.815537 0.0491,17.6872 -0.27991,2.957599 0.11079,6.638943 -0.87332,9.206355 -0.21865,-8.770414 -0.16654,-17.677724 0.58887,-26.452149 0.0591,-0.121653 0.0662,-0.420575 0.23535,-0.441406 z"
       id="path4081"
       inkscape:connector-curvature="0" />
    <path
       style="fill:#ffaaaa;fill-opacity:1;stroke-width:0.5"
       d="m 105.03389,10.352029 c -2.17749,1.174084 -1.74203,4.588837 -2.65234,6.633789 -0.16665,1.294284 -1.68431,4.494571 0.74219,4.416016 2.02306,-1.747765 1.78624,-5.110555 2.67383,-7.522461 0.10215,-0.974734 1.00431,-3.522611 -0.76368,-3.527344 z"
       id="path4083"
       inkscape:connector-curvature="0" />
    <path
       style="fill:#999999;fill-opacity:1;stroke-width:0.5"
       d="m 151.2546,11.347146 c -1.3578,0.811164 0.38326,3.06172 0.30371,4.324219 1.02655,2.201771 0.11688,5.620781 2.21582,7.21875 1.69556,-0.564267 0.54093,-3.280804 0.51562,-4.557617 -0.75447,-2.294006 -0.88371,-5.490182 -2.93847,-6.987305 z"
       id="path4085"
       inkscape:connector-curvature="0" />
    <path
       style="fill:#999999;fill-opacity:1;stroke-width:0.0625"
       d="m 127.63591,13.618439 c -0.70631,0.105713 -0.84191,0.93744 -1.03943,1.494262 -0.2436,0.945539 -0.6821,1.932841 -0.4491,2.922852 0.18657,0.5691 0.81341,1.094493 1.4281,0.79602 0.83993,-0.30602 1.12433,-1.286597 1.07349,-2.102783 -0.0395,-0.884996 -0.13962,-1.781844 -0.37646,-2.635132 -0.11186,-0.248015 -0.34331,-0.49081 -0.6366,-0.475219 z"
       id="path4087"
       inkscape:connector-curvature="0" />
    <path
       style="fill:#ffaaaa;fill-opacity:1;stroke-width:0.0625"
       d="m 127.07597,19.480377 c -0.41383,-0.03178 -0.45621,0.45758 -0.43283,0.757761 -0.0241,0.964546 -0.0824,1.939513 -0.054,2.898066 0.16039,0.354062 0.58413,0.02903 0.85282,-0.03107 0.30529,-0.278956 0.0804,-0.779683 0.14941,-1.152954 -0.0303,-0.780167 0.0613,-1.583515 -0.0458,-2.349077 -0.0903,-0.15565 -0.31479,-0.111549 -0.46954,-0.122725 z"
       id="path4089"
       inkscape:connector-curvature="0" />
    <path
       style="fill:#ffaaaa;fill-opacity:1;stroke-width:0.5"
       d="m 99.668904,10.400436 c -3.364395,-0.04323 -6.623321,1.348276 -9.362305,3.120117 0.187851,4.644803 0.0014,9.382041 -2.125976,13.606445 -1.687105,5.142574 -1.583899,10.591727 -2.942666,15.7783 -1.619289,15.492749 -4.925359,30.822503 -5.057024,46.458853 -0.534815,10.401485 0.810664,20.802239 0.762385,31.166169 -1.212549,8.26556 -1.044982,16.6916 -2.366211,24.92383 -1.813387,6.96021 -2.302377,14.19416 -3.321519,21.29857 -1.401759,14.74617 -1.547296,29.57712 -1.817153,44.36061 -0.554888,2.61722 -1.494297,6.4079 1.469727,7.93945 3.798514,0.88968 7.521606,-1.6043 11.142578,-2.45312 3.545161,-0.87786 6.736531,-3.32269 7.380596,-7.09353 2.772005,-7.69101 1.529567,-16.00116 3.761982,-23.80101 2.257858,-10.24589 2.953822,-20.73007 3.849612,-31.1455 1.6672,-4.38636 1.58967,-9.24624 3.68945,-13.47168 2.02882,-5.47817 2.99715,-11.24383 4.97754,-16.71875 0.49632,-6.52466 1.96637,-12.89146 4.04199,-19.125 3.76648,-11.803689 7.51572,-23.634614 9.66992,-35.860354 -0.19878,-2.00563 1.59376,-2.88162 3.27246,-2.177735 2.23998,0.67187 1.03892,4.03614 1.60798,5.747815 0.3719,10.90357 3.42814,21.40299 6.02597,31.913394 1.3209,4.92802 0.10665,9.93386 -0.0402,14.88176 1.09882,3.56733 1.86958,7.20341 2.06013,10.94235 1.1621,3.88964 1.42497,7.98708 2.7553,11.83792 1.81768,15.82312 0.86913,31.92417 2.4998,47.81141 0.75271,6.60164 0.94069,13.42631 2.81856,19.80773 2.78809,2.02418 6.37645,2.92261 9.35861,4.74061 2.28595,1.18881 6.03422,3.0467 7.71171,-0.0121 1.76667,-1.97383 1.59883,-4.54657 0.85253,-6.88965 0.38329,-4.18679 0.75029,-8.57571 0.73646,-12.85862 0.55896,-8.3014 2.1791,-16.58137 1.13082,-24.94576 -0.483,-5.05364 -1.04794,-10.09962 0.18839,-15.06671 -1.62265,-8.24843 -0.95053,-16.80216 -0.41504,-25.15528 1.51463,-8.4621 0.60651,-17.1648 2.2627,-25.63574 1.33599,-15.660964 1.97961,-31.465459 0.85351,-47.15625 -1.21458,-5.013879 0.12796,-10.114367 -0.77832,-15.208984 -0.70267,-7.146286 0.0691,-14.479332 -2.19238,-21.401367 -0.74344,-2.068031 -0.25867,-4.950394 -1.79004,-6.59668 -2.56985,-0.843955 -5.4305,-2.445342 -8.15625,-1.84375 -0.88455,1.401167 0.89911,3.193372 0.77134,4.760473 0.83973,1.665042 -0.27396,5.553479 2.18074,5.327716 0.48638,-0.0371 3.87316,-0.357454 2.48932,0.6706 -6.95969,1.231277 -14.19728,0.955268 -21.23535,1.140625 -0.84019,0.33093 -2.121,-0.661351 -0.66894,-0.818359 4.47127,-0.598506 9.22929,0.01931 13.54492,-0.682618 0.0537,-3.730937 -0.51827,-7.63537 -2.01953,-10.986328 -6.78847,0.285769 -13.58904,0.435433 -20.35645,1.079102 0.0868,2.027497 1.14246,4.358431 -0.0781,6.435547 -0.44535,1.568403 0.22456,5.09173 -2.22754,4.995117 -1.7134,-2.432261 -0.98977,-5.893642 -0.7334,-8.702149 0.51692,-1.607527 1.6661,-3.273198 -1.1682,-2.847384 -5.59122,-0.37964 -11.25619,-1.518465 -16.8152,-1.492459 -1.45891,2.016157 -1.12725,4.93018 -2.1455,7.21289 -0.4936,1.364774 -0.93448,3.625574 1.20214,3.601563 3.78025,1.006108 7.91567,0.165877 11.58985,1.064453 -0.0525,1.230571 -2.27498,0.377128 -3.08548,0.591785 -6.88771,-0.44628 -13.88552,-0.688773 -20.65671,-1.824207 -0.824713,-0.625495 1.529317,-0.628806 1.709961,-0.632812 3.435674,0.917186 4.772139,-1.13016 5.005859,-4.355469 0.15171,-1.822862 2.08763,-4.756173 0.0742,-6.083984 -0.60479,-0.211738 -1.26394,-0.174161 -1.893556,-0.171875 z m 26.085936,15.106445 c 0.6378,1.805142 -0.38089,4.319103 -0.16211,6.371094 -0.59688,7.620964 0.0261,15.400178 -1.3457,22.926757 -0.51139,-7.167618 0.14045,-15.083793 0.35296,-22.521689 0.37118,-2.107888 -0.20408,-5.115987 1.15485,-6.776162 z m 2.30469,5.498047 c 1.04167,5.175399 0.26514,10.758099 0.41731,16.077901 -0.34439,3.422269 0.33923,7.322007 -1.03157,10.452372 -1.07015,-0.804836 0.19112,-3.000611 -0.12988,-4.255859 0.51461,-7.378065 -0.3109,-14.866353 0.61035,-22.184571 0.0264,-0.04836 0.0702,-0.106717 0.13379,-0.08984 z"
       id="path4091"
       inkscape:connector-curvature="0" />
    <path
       style="fill:#ffaaaa;fill-opacity:1;stroke-width:0.5"
       d="m 104.84566,10.555709 c -2.07874,0.829419 -1.40878,4.044617 -2.37559,5.752231 -0.14704,1.450301 -1.92822,4.732245 0.43028,5.055386 2.2125,-1.300099 2.02178,-4.575768 2.80859,-6.776367 0.11149,-1.122738 1.05208,-3.998257 -0.86328,-4.03125 z"
       id="path4093"
       inkscape:connector-curvature="0" />
    <path
       style="fill:#ffaaaa;fill-opacity:1;stroke-width:0.5"
       d="m 104.84566,10.555709 c -2.10219,0.861463 -1.43145,4.12382 -2.37988,5.878906 -0.0887,1.498508 -1.88056,4.629882 0.41406,5.145508 2.12575,-1.662383 2.05607,-5.027968 2.86719,-7.445312 0.0879,-0.978526 0.86805,-3.65027 -0.90137,-3.579102 z"
       id="path4095"
       inkscape:connector-curvature="0" />
    <path
       style="fill:#ffaaaa;fill-opacity:1;stroke-width:0.5"
       d="m 151.04683,11.54692 c -1.22011,0.905716 0.77428,2.961114 0.50782,4.245117 0.80921,2.227062 0.35629,5.272592 1.93945,7.082031 1.64036,-0.768959 0.70736,-3.540661 0.71703,-4.979129 -0.38443,-2.132009 -0.86666,-5.483094 -3.1643,-6.348019 z"
       id="path4097"
       inkscape:connector-curvature="0" />
    <path
       style="fill:#ffaaaa;fill-opacity:1;stroke-width:0.5"
       d="m 151.22652,11.530318 c -1.13965,1.156471 0.52722,3.245254 0.50391,4.626953 0.81182,1.981028 0.0429,4.851326 1.75,6.333008 1.77503,-0.469869 0.76173,-3.293436 0.74707,-4.606445 -0.54341,-2.093673 -0.91108,-5.264228 -3.00098,-6.353516 z"
       id="path4099"
       inkscape:connector-curvature="0" />
    <path
       style="fill:#ffaaaa;fill-opacity:1;stroke-width:0.5"
       d="m 151.22652,11.530318 c -1.13965,1.156471 0.52722,3.245254 0.50391,4.626953 0.81182,1.981028 0.0429,4.851326 1.75,6.333008 1.77503,-0.469869 0.76173,-3.293436 0.74707,-4.606445 -0.54341,-2.093673 -0.91108,-5.264228 -3.00098,-6.353516 z"
       id="path4101"
       inkscape:connector-curvature="0" />
    <path
       style="fill:#ffaaaa;fill-opacity:1;stroke-width:0.5"
       d="m 99.725545,10.402389 c -3.203712,0.264364 -7.136481,0.789702 -9.236328,3.467773 -0.838222,4.124276 0.43943,8.636888 -2.023438,12.388672 -1.384164,2.340636 -1.138658,5.183343 -1.857422,7.625976 -0.516794,2.099133 -0.01251,4.476728 -0.924804,6.582032 -1.573481,9.885029 -2.455203,19.871689 -4.072651,29.758599 -2.374412,15.768795 -1.534372,31.752979 -0.617779,47.586129 -0.276006,7.08528 -1.521028,14.14847 -1.611328,21.27344 -0.655213,8.35206 -3.341328,16.44022 -3.851563,24.85449 -1.880354,15.71418 -1.455868,31.56198 -2.199219,47.33398 -0.707367,2.64556 -1.336255,7.00966 2.10254,7.96387 4.17775,0.15406 8.131932,-2.04516 12.038086,-3.30176 2.215622,-1.1273 5.401403,-1.64418 5.424109,-4.7282 2.976825,-8.11328 2.153894,-16.93565 4.245812,-25.24641 2.030847,-9.92061 3.28431,-20.08145 3.63965,-30.14355 1.1967,-4.15736 1.78153,-8.49728 3.10449,-12.63086 2.75975,-5.92328 3.32558,-12.54827 5.95117,-18.50488 0.32493,-4.63809 0.75538,-9.27148 2.27167,-13.73844 3.816,-13.431539 8.69298,-26.600999 11.1052,-40.397019 0.5375,-1.375045 0.13144,-4.371545 2.49813,-3.319625 3.79202,-0.39582 1.94257,4.433035 2.71672,6.828695 0.42752,10.49645 3.3671,20.59931 5.83797,30.732829 1.25007,4.69 0.42772,9.47039 0.0137,14.22168 0.87543,3.93679 1.92627,7.83299 1.97852,11.89844 1.02067,3.10108 1.50713,6.27985 2.16211,9.46973 1.9444,6.08049 1.32796,12.68063 1.79532,18.99183 0.3933,16.99049 0.87181,34.15237 4.02597,50.85875 4.81761,2.06325 9.32288,5.171 14.3955,6.51367 2.75404,-0.32379 4.35523,-3.79981 4.13575,-6.31933 -1.099,-4.33007 0.64512,-8.74116 0.18104,-13.14936 0.0675,-9.37803 3.21055,-18.73659 1.20958,-28.14068 -0.66656,-4.68443 -0.80746,-9.39027 0.23731,-14.02149 -1.53343,-8.36928 -0.89472,-17.06179 -0.37403,-25.53515 1.65277,-8.15239 0.48308,-16.6173 2.1212,-24.80818 1.43344,-15.601589 2.03583,-31.346119 1.05263,-46.991628 -0.76832,-3.185985 -0.66559,-6.388785 -0.49153,-9.613027 -0.73913,-7.643085 -0.5336,-15.363701 -1.44206,-22.980723 -1.36227,-3.614526 -1.08979,-7.820401 -2.97071,-11.197266 -2.57532,-0.83348 -5.38966,-2.601788 -8.13672,-1.998046 -1.03677,1.660566 1.08717,3.573048 0.92676,5.37207 0.4824,1.70358 0.13764,3.757625 0.88574,5.255859 1.11268,0.221201 3.33762,-1.067956 4.06739,-0.05371 -3.16557,1.528177 -7.13866,0.761741 -10.58821,1.209103 -4.09317,-0.129419 -8.49562,0.835849 -12.42546,-0.07531 0.66857,-1.196686 3.01746,-0.369186 4.205,-0.67807 3.44271,-0.187477 7.17861,0.331611 10.42683,-0.269195 -0.36368,-3.75933 -0.83512,-7.724243 -2.39258,-11.125977 -6.69588,0.369353 -13.57495,-0.02431 -20.17578,0.859375 -0.65508,1.810721 1.06922,3.862115 -0.0518,5.714844 -1.12497,1.771827 0.52721,5.713443 -2.47265,5.791992 -0.90915,-2.912709 -1.22027,-6.385155 -0.48535,-9.422851 2.37241,-3.21238 -3.65113,-1.749551 -5.38809,-2.477918 -4.26905,-0.292324 -8.57817,-1.090785 -12.80723,-1.322864 -1.48176,1.607675 -1.11172,4.453315 -1.94238,6.455078 0.0521,1.297092 -1.40224,3.499926 -0.13672,4.426758 4.15401,1.005178 8.80711,0.124857 12.75098,1.517578 -2.64474,0.896658 -6.01037,-0.113364 -8.89927,-0.01984 -5.00894,-0.595354 -10.224823,-0.401867 -15.083152,-1.614921 0.841756,-1.068455 3.336232,-0.22804 4.644531,-0.526367 2.391071,-0.302198 1.785481,-4.305948 2.772461,-6.273438 0.5566,-1.487674 1.04858,-4.557447 -1.4502,-4.326172 -0.27172,-0.01267 -0.543567,-0.0035 -0.815425,-9.76e-4 z m 26.024415,15.104492 c 0.63535,2.065402 -0.39695,4.798361 -0.18704,7.097128 -0.57576,7.378522 0.0444,14.917162 -1.31589,22.200723 -0.51005,-7.549702 0.13304,-15.818129 0.39258,-23.625 0.3759,-1.704634 -0.19693,-4.417545 1.11035,-5.672851 z m 2.30957,5.498047 c 1.04167,5.175399 0.26514,10.758099 0.41731,16.077901 -0.34439,3.422269 0.33923,7.322007 -1.03157,10.452372 -1.07015,-0.804836 0.19112,-3.000611 -0.12988,-4.255859 0.51461,-7.378065 -0.3109,-14.866353 0.61035,-22.184571 0.0264,-0.04836 0.0702,-0.106717 0.13379,-0.08984 z"
       id="path4103"
       inkscape:connector-curvature="0" />
    <path
       style="fill:#ffaaaa;fill-opacity:1;stroke-width:0.5"
       d="m 99.667928,10.426803 c -3.177633,0.28802 -7.103343,0.762306 -9.178711,3.443359 -0.868504,4.026201 0.452424,8.465002 -1.926758,12.115234 -2.346641,5.024698 -1.560753,10.68709 -3.165096,15.893572 -1.3356,11.198501 -2.995071,22.354948 -4.415959,33.545883 -1.88098,14.74735 -0.389435,29.634449 0.01005,44.384589 -0.668219,6.53262 -1.61112,13.06076 -1.536417,19.64276 -0.848539,8.0109 -3.294807,15.81407 -3.860026,23.90071 -2.0257,16.09682 -1.464375,32.34576 -2.309896,48.50554 -0.84713,2.57089 -0.985445,6.94339 2.505859,7.44628 5.027579,-0.45546 9.86642,-2.57831 14.435315,-4.6603 3.091703,-0.81916 2.704404,-4.63902 3.778553,-7.10825 1.662614,-7.40143 1.461551,-15.08727 3.315429,-22.46973 1.955941,-9.65256 3.027039,-19.51015 3.483399,-29.30371 1.18663,-4.1446 1.75967,-8.45826 3.08203,-12.57617 2.76886,-5.94139 3.32014,-12.5916 6.00098,-18.54785 0.28694,-4.411 0.60425,-8.83157 2.04878,-13.07287 3.88942,-13.810929 8.89007,-27.339869 11.3921,-41.509649 0.39466,-1.35931 0.23951,-3.82854 2.39994,-2.826665 3.56702,-0.470805 2.03273,3.711165 2.59243,5.98707 0.44337,10.9909 3.56271,21.57004 6.09702,32.189694 1.18535,4.6369 0.0406,9.32071 -0.1123,13.96093 1.13135,3.93304 1.78647,7.9537 2.04596,12.03367 1.3884,3.58898 1.49824,7.54957 2.76165,11.14505 1.82939,16.04854 0.86176,32.35758 2.5671,48.45806 0.59922,6.42995 1.25491,12.93215 2.56865,19.22553 4.95905,2.1816 9.68624,5.22663 14.87109,6.75293 2.78099,-1.41017 4.52077,-5.17623 3.30664,-8.20117 -0.20646,-3.7537 0.86982,-7.59623 0.52259,-11.41672 0.14629,-7.4258 1.8333,-14.77735 2.11761,-22.14903 -0.9478,-6.27074 -1.93901,-12.5535 -1.03571,-18.86785 -0.43547,-10.7112 -1.22527,-21.54431 0.7874,-32.14215 0.16158,-7.42566 0.49497,-14.81853 1.61679,-22.17313 1.09165,-15.002869 1.84079,-30.126469 0.64659,-45.140774 -1.13872,-4.468216 0.13413,-9.013637 -0.66294,-13.535514 -0.79945,-8.312762 -0.0944,-16.831578 -2.67788,-24.890267 -0.33037,-2.043162 -0.51626,-4.853061 -3.13921,-5.168316 -2.09287,-0.486211 -4.69432,-2.236593 -6.75337,-1.15102 0.29057,2.884962 1.76005,5.689914 1.70206,8.705717 -0.70793,3.422996 3.43347,0.339072 4.49033,1.709322 -3.16557,1.528177 -7.13866,0.761741 -10.58821,1.209103 -4.09317,-0.129419 -8.49562,0.835849 -12.42546,-0.07531 0.66857,-1.196686 3.01746,-0.369186 4.205,-0.67807 3.44271,-0.187477 7.17861,0.331611 10.42683,-0.269195 -0.36653,-3.835656 -0.87525,-7.888151 -2.4707,-11.344727 -6.78706,0.716935 -13.60621,0.649083 -20.41992,0.638672 0.57671,3.521483 0.60257,7.680531 -0.72168,11.289063 -0.5796,1.213782 -2.3174,0.659974 -1.96094,-0.797852 -0.1628,-3.133827 -1.16964,-6.684221 0.76074,-9.516602 -5.18945,-1.252494 -11.2018,-1.18875 -16.69904,-2.070574 -1.45631,-0.530471 -3.43133,-0.341822 -3.12826,1.814194 -0.42293,2.858008 -2.02911,5.935606 -1.47348,8.781771 4.20072,1.195997 8.98665,0.177779 13.01172,1.62207 -2.64474,0.896658 -6.01037,-0.113364 -8.89927,-0.01984 -5.00894,-0.595354 -10.224823,-0.401867 -15.083152,-1.614921 0.841756,-1.068455 3.336232,-0.22804 4.644531,-0.526367 2.393181,-0.304265 1.785291,-4.312938 2.775391,-6.282227 0.57944,-1.498522 1.02723,-4.587415 -1.49219,-4.302734 -0.27804,-0.01088 -0.555997,0.0032 -0.833982,0.0088 z m 26.082032,15.080078 c 0.63535,2.065402 -0.39695,4.798361 -0.18704,7.097128 -0.57576,7.378522 0.0444,14.917162 -1.31589,22.200723 -0.51005,-7.549702 0.13304,-15.818129 0.39258,-23.625 0.3759,-1.704634 -0.19693,-4.417545 1.11035,-5.672851 z m 2.30957,5.498047 c 1.04167,5.175399 0.26514,10.758099 0.41731,16.077901 -0.34439,3.422269 0.33923,7.322007 -1.03157,10.452372 -1.07015,-0.804836 0.19112,-3.000611 -0.12988,-4.255859 0.51461,-7.378065 -0.3109,-14.866353 0.61035,-22.184571 0.0264,-0.04836 0.0702,-0.106717 0.13379,-0.08984 z"
       id="path4105"
       inkscape:connector-curvature="0" />
    <path
       style="fill:#ffd5d5;fill-opacity:1;stroke-width:0.25"
       d="m 99.727239,10.081701 c -3.249199,0.159136 -6.666981,1.0275 -9.234375,3.081543 -0.991112,1.994111 -0.268865,4.390047 -0.495605,6.534668 0.146162,1.576365 -0.0069,3.082366 -0.921387,4.416504 -0.811542,2.000171 -1.636613,3.995868 -2.544922,5.947266 -0.04422,1.222079 0.758061,2.515314 -0.108398,3.665527 -0.904915,1.395321 0.251522,3.070019 -0.421875,4.514649 -1.834386,6.729325 -1.754143,13.776092 -2.981751,20.615975 -1.794004,11.036682 -3.303363,22.15958 -3.239977,33.365455 -0.132369,7.965532 0.579033,15.913922 0.996837,23.851492 0.23891,4.41159 -0.408708,8.72557 -1.216235,13.04918 -0.663798,5.34204 0.613459,10.87372 -1.191323,16.03958 -0.431838,2.25351 -1.481878,4.49245 -1.430539,6.7917 0.785355,0.65189 1.158208,-0.95319 1.498535,-1.4043 1.655972,-3.38417 4.376524,-6.27001 5.926269,-9.73584 -0.162543,-1.04635 -1.261477,0.0311 -1.566894,0.4458 -0.454616,0.36941 -1.090103,1.42158 -1.584961,1.3418 -0.622214,-2.8234 2.218853,-5.07551 1.821777,-7.9375 0.05833,-0.95385 1.613442,0.0885 2.378418,-0.32031 3.004814,-1.91338 2.921241,-5.94579 3.413572,-9.0792 0.974399,-6.06299 1.670282,-12.27783 0.616213,-18.37979 -0.665251,-6.47069 1.572921,-12.781057 2.601678,-19.141985 2.099192,-9.984125 3.814457,-20.048295 6.232844,-29.957567 0.350817,-1.89085 1.520118,-3.454513 3.11289,-4.494463 0.6143,-0.435432 2.16423,-1.741785 0.83433,-2.27415 -0.78387,-0.271925 -1.77143,0.468945 -2.432132,0.09961 0.427242,-2.117355 2.156052,-3.900225 3.994632,-4.958495 0.85153,-0.167627 1.77358,-0.830547 1.05468,-1.741212 -0.35473,-0.545963 -0.45591,-1.258783 0.33741,-1.447265 5.38859,-2.69989 11.10107,-4.80358 16.26904,-7.926758 0.83966,-0.8014 1.3951,-2.894576 0.12158,-3.5 -0.81697,0.06478 -1.15581,1.114683 -2.04934,1.185046 -5.22096,2.079945 -10.7025,3.706559 -16.2949,4.432142 0.0871,-0.265978 1.1758,-0.692243 1.63551,-0.951008 5.19534,-2.609353 11.52319,-3.600679 15.49872,-8.216882 0.56083,-0.701712 2.04976,-1.856808 1.11235,-2.75252 -1.3472,0.299332 -2.44134,1.456384 -3.78712,1.865741 -6.19791,2.701459 -12.95592,4.619572 -19.678207,4.694806 5.752957,-1.572278 11.567067,-3.243807 16.837397,-6.09375 0.84122,-0.262986 0.74564,-1.418619 -0.21582,-1.277833 -1.04628,-0.196702 -2.41156,0.265007 -3.30029,-0.203613 0.28889,-0.354297 1.45954,-0.636401 0.56494,-1.116211 -5.79165,-0.373202 -11.53734,-1.429446 -17.358395,-1.283203 -0.04644,-1.358957 2.268555,-0.262821 3.282362,-0.520754 0.876818,-0.17459 2.573633,0.570632 2.959823,-0.581297 0.32002,-3.290287 2.04717,-6.447699 2.0918,-9.80957 -0.30744,-1.3532352 -2.20786,-0.643133 -3.139161,-0.833008 z"
       id="path3816"
       inkscape:connector-curvature="0" />
    <path
       style="fill:#ffd5d5;fill-opacity:1;stroke-width:0.25"
       d="m 160.69306,44.950354 c -0.14048,6.226732 0.39965,12.501864 0.77734,18.732421 0.60211,5.601763 1.05439,11.26949 2.35254,16.757813 0.28515,1.007792 1.51051,0.43594 1.47705,-0.4375 0.66309,-4.69738 0.22877,-9.489518 0.18835,-14.219626 -0.21348,-5.197775 -0.65421,-10.383696 -0.80553,-15.564065 -0.37288,-1.449543 -2.0926,-2.714193 -1.26856,-4.340332 0.2541,-1.447593 -2.02485,-1.052939 -2.72119,-0.928711 z"
       id="path3818"
       inkscape:connector-curvature="0" />
    <path
       style="fill:#ffd5d5;fill-opacity:1;stroke-width:0.25"
       d="m 165.15986,28.131994 c -1.25455,0.486339 -0.54893,2.684429 -2.14405,2.932617 -0.67042,0.544241 -2.0191,-0.497159 -2.22558,0.671875 0.35782,1.093259 1.97137,2.021711 0.98047,3.291993 -0.43112,0.765279 -1.28183,2.746483 0.13574,2.944336 0.89785,0.0016 0.72015,-1.671698 1.55127,-1.395508 0.59948,0.674751 0.1903,2.255314 1.33154,2.236328 -0.86533,1.234926 0.12297,2.372131 0.89258,3.27832 0.64723,0.971218 -1.41381,0.899894 -1.11719,1.969727 0.0585,1.386283 1.73789,2.40984 1.44629,3.788574 -1.38597,0.639097 -0.99448,2.623061 -1.0835,3.878906 0.18662,3.604743 1.25639,7.092343 1.2039,10.714043 0.46601,10.267338 0.43132,20.560065 0.60372,30.840645 1.20417,0.869893 0.51475,-2.231787 0.76257,-2.9914 0.25883,-9.699172 0.84915,-19.42114 0.30286,-29.117975 -0.13372,-3.083877 -1.16896,-6.08538 -1.18164,-9.15918 0.80807,-2.658116 0.22263,-5.473849 0.10498,-8.162109 0.19066,-2.40089 0.19466,-4.911065 -0.82324,-7.145508 -0.71206,-2.492446 0.22434,-5.036017 0.50976,-7.484863 -0.1606,-0.528386 -0.65387,-1.1079 -1.25048,-1.090821 z"
       id="path3820"
       inkscape:connector-curvature="0" />
    <path
       style="fill:#ffd5d5;fill-opacity:1;stroke-width:0.25"
       d="m 73.66181,190.60123 c -0.433183,2.98437 -0.0947,6.11777 -0.187012,9.15381 0.216563,1.95987 -0.356595,4.15277 0.494141,5.99024 1.069812,0.90935 1.207935,2.80033 2.566894,3.32959 0.980988,-0.49617 1.700996,-1.51916 2.845703,-1.82081 1.757354,-0.81434 4.41745,-1.30844 4.899903,-3.51611 -0.355723,-1.22013 -2.03648,-0.4546 -2.833496,-0.13525 -1.729836,1.167 -4.492665,0.87741 -5.234864,-1.30127 -1.213059,-3.75209 -1.473019,-7.73644 -2.016601,-11.60987 -0.139607,-0.26495 -0.329189,-0.16265 -0.534668,-0.0903 z"
       id="path3822"
       inkscape:connector-curvature="0" />
    <path
       style="fill:#ffd5d5;fill-opacity:1;stroke-width:0.25"
       d="m 146.55243,200.07682 c -1.08011,0.44046 0.22458,1.69178 0.58741,2.26172 1.71511,2.32326 4.34866,5.06303 7.54345,4.18457 0.98695,-0.28802 2.61023,-1.17558 2.17579,-2.39453 -1.28861,-0.98875 -3.17109,-0.42135 -4.60401,-1.17969 -2.05024,-0.6426 -3.74361,-2.10225 -5.70264,-2.87207 z"
       id="path3824"
       inkscape:connector-curvature="0" />
  </g>
  <g
     inkscape:groupmode="layer"
     id="layer2"
     inkscape:label="Color"
     style="display:inline">
    <path
       style="fill:#ff2a2a;fill-opacity:1;stroke-width:0.5"
       d="m 148.33037,11.387088 c -5.6768,0.820036 -11.65048,0.485918 -17.28515,1.283203 -0.61266,2.118602 -2.18604,4.515521 -1.18653,6.638672 -0.54683,0.579628 -2.00302,-0.05959 -1.77148,1.368164 0.0507,0.615041 -0.37112,3.397003 0.77051,2.455078 0.44563,0.01032 0.19951,3.499811 0.29703,4.694322 0.26794,4.071869 -1.18838,8.327697 -0.1984,12.318373 0.56283,0.891369 2.37873,1.942952 0.62305,2.69336 -1.73815,4.612389 -0.80015,9.836335 -1.98828,14.594726 -0.72525,-5.217228 0.24428,-10.65852 -0.49219,-15.802734 -1.15617,0.828641 -0.52294,3.286858 -1.19678,4.59885 -0.7562,2.687416 -1.22928,5.965084 -1.61963,8.39529 -0.71721,-9.580812 0.22388,-19.296092 1.03516,-28.864257 0.67523,-2.325804 1.1901,-5.218333 0.0693,-7.423828 -1.60156,0.709038 -0.64692,3.488884 -1.07324,4.922851 0.26633,0.653767 -1.17416,3.262177 -1.1084,1.285156 1.41899,-3.286884 -1.10452,-3.456185 -3.76269,-3.174804 -1.42539,0.217858 -3.74379,-0.265208 -4.6084,1.068359 0.95204,0.69574 2.58534,-0.01775 3.56445,0.586914 -2.44566,0.80069 -5.48678,-0.485598 -7.64258,0.96582 0.11075,2.192321 3.43078,0.284817 4.72168,0.893555 -4.23045,2.88388 -9.57259,4.176127 -14.45019,5.693359 -3.550472,0.475864 -6.22037,2.044355 -1.08302,1.652961 7.52567,-0.583546 15.14982,-2.587158 21.50685,-6.734992 0.43839,0.61185 -1.08685,1.99737 -1.54785,2.583985 -4.6373,5.134583 -12.23073,5.302629 -17.66797,9.02539 0.19065,1.44529 2.76177,0.01867 3.68359,0.152344 4.59157,-0.884311 9.13533,-2.213674 13.41504,-3.985352 1.07038,0.28019 1.7747,-1.648188 2.52051,-1.330078 -0.0308,1.220988 0.23834,3.098927 -1.41895,3.194336 -5.17196,3.25485 -11.10594,5.007769 -16.42969,7.903321 -0.71543,0.953803 2.1428,2.607795 0.0117,2.446289 -1.42147,-0.0029 -1.89908,1.791097 -3.17675,2.1875 -0.66815,1.104011 -2.147523,2.712581 -1.588872,3.964843 0.919032,0.328592 3.211982,-0.942713 3.414062,0.209961 -2.63244,1.539425 -5.558802,3.85829 -5.279296,7.254883 -2.202517,11.907018 -4.926203,23.713698 -7.053711,35.639648 -1.479678,5.199315 -2.6127,10.776984 -0.75,16.040044 0.767481,5.62354 -1.426563,11.10663 -1.396686,16.73499 -0.216126,2.39324 -0.920003,5.73072 -3.327924,6.71618 -0.727459,-0.2088 -2.628682,-1.55646 -2.226562,0.14258 0.884805,3.10763 -3.186996,5.83842 -1.783203,8.8291 1.427808,0.0892 2.450666,-2.65932 3.276367,-2.60449 -1.92685,4.25851 -5.757387,7.71987 -7.038086,12.23437 1.172928,1.03402 2.80568,-1.21771 3.876972,-1.70333 1.56886,-1.19188 3.007372,-2.5403 4.373028,-3.95683 -1.788223,4.74632 -6.41997,7.66455 -8.932617,11.9043 -0.225271,0.75775 0.465357,3.52895 1.231445,2.03125 1.16405,-2.37903 4.641914,-2.98332 7.038086,-2.48828 1.832093,0.99117 -1.376196,1.84474 -1.953125,2.32031 -3.644227,1.244 -6.579592,4.49079 -6.389649,8.50098 -0.629743,6.32739 -0.432147,12.93976 -2.097656,19.05566 -1.197733,2.56736 0.530445,5.5482 0.332031,8.27637 0.461566,2.88866 0.674052,7.8688 4.525391,8.01074 1.712092,0.18575 3.479634,-2.16567 4.932617,-1.1582 -0.983095,3.37632 -6.006174,2.26084 -7.459961,5.34863 -1.09957,-0.93053 -1.539409,-3.2271 -2.58789,-3.74804 -0.39611,3.83953 -1.413108,7.84022 -0.829102,11.69531 0.906521,3.12433 4.813929,2.43292 7.125665,1.57887 4.148766,-1.30268 8.705542,-2.41864 12.072577,-5.29079 1.297298,-4.64109 3.163423,-9.30901 3.006836,-14.27832 0.910851,-11.21701 4.45288,-22.14005 4.539063,-33.46093 1.31704,-5.16026 0.7431,-10.7146 2.50405,-15.83195 0.33617,-2.77794 1.0293,-5.7655 2.17857,-8.15438 2.38067,-5.07544 3.128,-10.91018 4.11914,-16.30567 0.67511,1.53197 1.97315,0.20782 1.59863,-0.99414 0.2222,-4.36224 -1.24952,-9.05027 1.36231,-12.95214 0.52479,-0.81701 0.0671,-2.06459 1.23046,-2.16993 -0.0231,-2.10995 1.42164,-4.28018 1.35352,-6.37597 3.28736,-7.972099 5.483,-16.434374 7.46672,-24.830364 0.71379,-3.53501 1.5191,-7.05104 2.42195,-10.542685 3.94842,-1.011595 4.37984,1.41011 3.92481,4.7373 0.10415,0.87531 -0.20387,3.126355 0.94824,2.82715 2.09528,7.144115 2.52178,14.699545 4.52637,21.89746 1.29719,5.346509 2.15195,10.817039 2.84961,16.231449 1.30077,2.81759 0.36461,6.47905 0.72558,9.57715 -0.002,5.61786 0.28245,11.27563 1.71738,16.70491 0.70747,3.56745 0.27387,7.36715 1.2084,10.85856 0.7961,0.12588 0.55584,-2.09172 0.78125,-0.39941 0.7957,12.13028 0.28091,24.38424 1.11914,36.47266 -1.25124,3.55938 0.21896,7.64178 0.32953,11.34891 0.8123,4.25487 0.66793,8.86624 2.34918,12.8757 0.96273,0.81134 2.75279,1.61072 3.64551,0.41992 2.23855,-0.67516 4.0679,2.28234 6.22364,0.66211 1.14559,-0.35386 2.47859,0.62376 3.19238,1.08984 -2.64421,0.20992 -5.36635,-0.57555 -7.93067,-0.51269 -0.78494,1.12579 1.15614,1.35223 1.792,1.32031 0.3742,1.34974 2.6816,-0.54318 2.46484,1.13086 1.59758,1.50352 4.96763,3.91504 6.69336,1.31933 3.16011,-4.02857 1.55521,-9.62244 2.16256,-14.3296 0.22074,-9.28836 1.41943,-18.46705 1.74174,-27.76219 0.36813,-4.40779 -1.48293,-8.79551 -1.05321,-13.24117 0.27211,-1.33098 -0.41673,-3.35863 0.0737,-4.39848 1.75798,-0.41027 0.34195,-3.05452 0.13965,-4.21778 -0.87357,-2.29267 -2.26096,-4.71163 -0.99316,-7.16113 0.62857,-4.87761 1.56854,-10.01131 0.75781,-14.86523 -0.73388,-0.53399 -0.74283,-3.45925 0.0742,-1.66016 1.64816,-0.42034 0.95973,-3.16384 1.30664,-4.4707 -0.0392,-7.10668 0.44193,-14.14734 1.53749,-21.16847 1.06774,-13.404984 0.4897,-26.895939 0.14024,-40.323719 -0.45722,-2.254393 0.098,-4.530283 -0.88671,-6.588869 -0.16146,-2.443884 -0.82432,-5.324861 -0.0127,-7.535156 2.03272,0.399572 0.26204,-2.159984 -0.1975,-2.837586 -0.78836,-0.904818 -1.01574,-1.899986 0.4143,-2.080383 1.70158,-1.567032 -2.38316,-2.403025 -0.71289,-4.057617 0.50094,-1.250321 -0.94977,-0.642073 -1.00977,-0.749023 0.46417,-0.982626 -0.69213,-3.594253 -1.62109,-1.897461 -0.0442,0.966368 -1.19236,1.978889 -1.04199,0.280273 -0.0984,-1.34624 1.79428,-2.223476 0.67285,-3.671875 -0.27048,-0.85863 -2.45627,-1.660332 -0.38282,-1.588867 1.70992,0.338307 2.95747,-0.846443 2.94825,-2.484375 0.43101,-1.603639 0.93049,0.118129 1.46972,-0.234375 0.42761,-1.904473 -1.60324,-4.872782 -3.57715,-3.6875 0.77662,0.517401 0.79511,1.236762 -0.45214,1.19043 -1.20366,0.581867 -2.42512,2.304867 -3.78614,0.643554 -1.353,-0.954169 -0.43666,-2.697579 1.0625,-2.55957 1.41445,-0.492066 4.13358,0.950122 4.85059,-0.774414 -0.74239,-3.023249 -2.8526,-5.789174 -2.19043,-9.066406 -1.03095,-2.025368 -4.06455,-1.917479 -5.96777,-2.717774 -2.97891,-1.254439 -3.25713,0.508873 -1.83692,2.887695 0.97179,2.512835 0.88481,5.339615 1.58203,7.772461 1.07561,0.222442 3.31102,-0.772989 4.02539,0.05078 -4.5223,1.612814 -9.64978,0.863846 -14.40423,1.177096 -2.47343,-0.02948 -6.16697,0.117032 -8.03522,-0.268893 4.66559,-0.517802 9.66618,0.09242 14.13379,-1.118164 -0.54627,-3.601515 -0.49793,-7.81598 -2.61816,-10.871094 -0.20636,-0.101902 -0.44353,-0.11977 -0.66993,-0.104492 z m 9.39063,1.920898 c 1.11752,0.232057 0.97573,0.843642 -0.17969,0.290039 -0.13281,-0.101891 0.005,-0.377782 0.17969,-0.290039 z m 1.4873,7.472656 c 1.80627,0.144842 0.57226,0.756248 -0.46777,0.496094 -1.4121,-0.175036 -0.46665,-0.534954 0.46777,-0.496094 z m 2.5459,19.078125 c 1.78859,0.526978 -1.282,1.611048 -0.98926,0.297852 0.26158,-0.2408 0.64172,-0.328563 0.98926,-0.297852 z m -0.64062,2.464844 c 0.73367,-0.192972 2.87988,0.944579 1.01562,0.989258 -0.64761,0.326536 -2.7218,-1.001258 -1.01562,-0.989258 z m 1.6123,2.955078 c 1.16718,-0.117764 -0.5234,1.406558 0.19434,2.147461 0.1232,1.54195 1.85521,2.013358 1.41406,3.730469 0.11608,9.577061 1.88814,19.260307 0.62695,28.771482 -0.26437,2.05036 -1.2435,-0.354715 -1.13086,-1.05664 -2.11645,-11.077105 -2.57048,-22.344199 -2.85742,-33.598631 0.59188,0.0038 1.16868,-0.0077 1.75293,0.0059 z m -31.6543,2.644532 c 1.02706,0.583714 -0.32131,2.752486 -0.37695,0.751953 0.005,-0.271834 0.0788,-0.655155 0.37695,-0.751953 z m -25.75781,2.371093 c 0.65936,0.740268 -1.99674,1.477397 -0.78613,0.267578 0.21088,-0.183788 0.50145,-0.317712 0.78613,-0.267578 z m 39.24317,33.992187 c 2.17361,2.05582 1.47975,5.38332 2.5,7.90332 1.61588,2.025495 0.92197,5.19941 1.26207,7.66014 0.009,3.317959 -0.38212,8.197519 -4.09899,9.431659 -1.38082,-1.48462 -1.3681,-4.2397 -1.29101,-6.22656 0.62779,-2.59798 -0.22252,-5.394749 1.59472,-7.659184 1.08905,-1.482405 -0.13561,-2.696585 -0.80273,-3.910155 -0.96966,-1.77521 1.54667,-3.62623 0.32031,-5.13965 -1.30804,-0.537895 -0.27817,-1.65533 0.51563,-2.05957 z M 88.021779,153.27869 c -0.298961,1.9644 -3.009491,3.08038 -4.700195,2.27051 1.396334,-0.99611 3.020755,-1.90384 4.700195,-2.27051 z m 69.090821,3.7334 c 0.99657,0.73726 2.9213,2.2901 2.74121,3.28027 -1.17279,-0.69156 -2.46421,-2.22994 -2.74121,-3.28027 z m -8.41504,20.29199 c 0.96915,0.18328 1.26025,0.89674 0.0635,0.18067 -0.0104,-0.0213 -0.19596,-0.22842 -0.0635,-0.18067 z m -2.97754,6.0791 c 2.09586,0.88597 4.02157,2.12299 5.94434,3.32813 -2.51899,0.36387 -5.32408,-0.7299 -6.11426,-3.38281 z m 1.00391,17.03516 c 2.76604,1.72539 5.75351,3.82104 9.20898,3.45215 2.09576,0.2948 -0.58053,2.46008 -1.54394,2.34668 -3.56197,0.84938 -5.94902,-2.8481 -7.89453,-5.25391 -0.1902,-0.26747 -0.15363,-0.58157 0.22949,-0.54492 z m -58.52344,5.51172 c -0.772903,1.59264 -2.36622,2.72663 -3.971679,3.37988 1.305839,-1.05532 2.643222,-2.58302 3.971679,-3.37988 z m -12.154297,5.34179 c 1.593809,0.46011 -1.748367,2.60856 -0.760742,0.75879 0.141174,-0.53537 0.130008,-0.8372 0.760742,-0.75879 z m 0.793946,3.50586 c 0.77334,0.72876 -1.695436,0.5635 -0.104493,9.8e-4 l 0.05664,-0.006 z m 9.316406,0.50293 c 0.712908,0.46592 -1.444357,0.65955 -0.353516,0.0225 0.114875,-0.0303 0.235733,-0.038 0.353516,-0.0225 z"
       id="path4065"
       inkscape:connector-curvature="0" />
    <path
       style="fill:#ff8080;fill-opacity:1;stroke-width:0.5"
       d="m 109.03838,10.848025 c -2.90335,-0.23307 -2.05708,3.659861 -2.60194,5.385169 -0.33939,1.988484 -1.03487,5.009271 1.65272,5.659753 2.91294,0.657423 5.99437,-0.253356 8.90625,-0.644531 0.792,-0.435912 -0.60031,-1.186303 0.81543,-0.9375 1.98845,-0.100678 5.876,-0.400758 5.72266,2.603516 -0.45698,1.11333 0.79549,2.036876 0.77539,0.496093 -0.13932,-2.028409 1.299,-5.054103 -0.54883,-6.552734 0.19788,0.145814 1.24962,-0.867023 0.0772,-1.111328 -2.32367,-0.654761 -4.68278,-1.004135 -6.87402,-1.987305 -0.71262,-0.190399 -2.6638,-0.322492 -2.79688,-0.824219 2.93722,-0.486752 6.2368,1.523072 9.00684,0.285157 0.33821,-1.730237 -2.70731,-0.723518 -3.72477,-1.240381 -3.47184,-0.343124 -6.92125,-0.997257 -10.41,-1.13169 z"
       id="path4067"
       inkscape:connector-curvature="0" />
    <path
       style="fill:#ff8080;fill-opacity:1;stroke-width:0.5"
       d="m 120.9583,25.861697 c -6.22715,3.269027 -13.11718,5.504669 -20.06152,6.172852 -0.5864,0.57659 1.19218,1.429039 -0.3125,1.46875 -1.254135,0.592864 -4.496974,-0.369594 -4.351563,1.723633 0.916363,1.914971 3.267243,1.348527 4.849613,0.833007 -2.313042,0.919965 -3.551614,3.542913 -5.971684,4.0625 -0.44623,2.080589 4.542189,0.917413 2.874024,3.334961 -1.580527,1.866391 -0.915252,4.278117 -1.951172,6.391602 -1.033796,7.303919 -1.863747,14.685159 -3.382966,21.937684 -1.405952,6.43665 -2.377897,13.143195 -4.449065,19.33673 -0.735183,1.111555 -1.333992,3.639565 -2.833985,3.52539 -1.924957,-2.58276 -0.541642,-6.246175 -2.05957,-8.86035 -1.612286,-0.857505 -1.240639,2.02989 -1.283203,2.868165 -0.669435,8.07925 -1.608286,16.299799 -0.873047,24.384769 0.706674,0.37858 0.510854,2.31726 1.811523,2.73046 0.895844,1.03947 3.234974,2.10151 2.960938,3.5625 -1.383525,0.0531 -2.556707,-3.80371 -2.939159,-1.07548 -0.624143,2.48214 0.263613,5.10197 -1.563771,7.21123 -0.699237,0.99961 -1.55576,3.04447 0.518555,2.81933 1.419992,0.0689 4.944468,0.16479 3.708008,2.4336 -1.021513,1.2262 -2.366945,0.38192 -3.197266,-0.39356 -1.5786,1.06445 -0.44882,3.84829 -1.117187,5.44043 -0.229421,0.6208 -0.46131,3.81093 0.633789,2.09766 0.907141,-1.1562 0.643396,-2.97556 0.801757,-4.06739 2.554542,1.03318 4.675176,-1.32382 4.949219,-3.708 1.405886,-8.08991 2.800854,-16.41723 1.138672,-24.5625 -0.03133,-6.863019 2.358444,-13.586464 3.351265,-20.380879 1.981812,-9.54098 3.632616,-19.195449 5.868462,-28.657211 0.939556,-2.122418 3.830073,-3.456142 4.330073,-5.336914 -0.95419,0.138394 -3.576264,1.276077 -2.840815,-0.790039 0.938215,-2.197564 2.770085,-4.384488 5.136715,-4.850586 0.0543,-0.961583 -1.22695,-2.280379 0.33399,-2.818359 5.41306,-3.00072 11.71999,-4.614805 16.62793,-8.417969 0.74563,-1.0339 0.25472,-3.412931 -1.10059,-1.704102 -5.5662,2.471583 -11.57921,4.236662 -17.61914,4.998047 -0.98963,-0.749935 1.61414,-1.493719 2.11231,-1.875976 5.51367,-2.745071 13.09946,-3.717899 16.24121,-9.629883 -0.0229,-0.154994 -0.19798,-0.244465 -0.33985,-0.204102 z"
       id="path4069"
       inkscape:connector-curvature="0" />
    <path
       style="fill:#ff8080;fill-opacity:1;stroke-width:0.5"
       d="m 144.43877,84.446658 c -1.27546,2.132262 -0.54829,5.138587 -0.3291,7.543945 1.16581,1.753841 0.22023,3.595585 -0.52441,5.313477 -0.69207,3.78898 -0.96708,7.95714 0.14941,11.66992 1.38424,0.85973 2.90382,-1.40466 3.60449,-2.47168 1.3435,-4.50556 1.25505,-9.541475 0.084,-14.082029 -1.51947,-2.395798 -0.48747,-6.217243 -2.9336,-7.983399 z"
       id="path4071"
       inkscape:connector-curvature="0" />
    <path
       style="fill:#ff8080;fill-opacity:1;stroke-width:0.5"
       d="m 101.91338,10.442752 c -3.725235,0.102951 -8.74396,-0.05994 -11.032226,3.440429 -0.271207,4.046672 -0.382364,8.22796 -2.313476,11.899415 0.08761,0.88285 1.26531,-0.150805 0.08594,0.916992 -1.611595,1.971015 -2.444303,5.127413 -1.478515,7.492187 0.488458,0.54691 -1.374887,0.419663 -0.841797,1.53418 -0.483735,2.286969 1.105573,4.524197 -0.123047,6.639648 -0.794167,7.471617 -1.729004,14.926236 -3.110845,22.328373 -1.938004,13.43426 -3.33219,27.012335 -2.928218,40.602294 1.208866,-1.39745 0.75198,-4.78264 1.191074,-6.968304 0.584325,-4.119455 0.06158,-8.591215 1.371426,-12.50631 1.492295,1.207075 1.009226,4.09899 1.510742,5.88086 -0.02276,1.115545 0.766261,4.24083 2.265626,2.5 3.299714,-5.05876 3.703881,-11.416105 5.229921,-17.14048 2.415649,-10.366865 3.049517,-21.133322 5.526914,-31.428854 0.144819,-1.237309 2.295729,-3.52332 0.144532,-4.036133 -0.688717,-0.238717 -2.781138,-0.784376 -1.291992,-1.589844 1.138933,-1.27292 3.426008,-1.971767 3.932611,-3.431641 -1.081521,0.11654 -4.636131,-1.028618 -3.011713,-2.424804 1.06802,-0.83597 3.552023,0.337949 3.958983,-1.094727 -1.369911,-1.121515 -3.462838,-0.688741 -5.107421,-0.927734 4.944801,-1.733165 10.479111,-2.495719 14.890621,-5.402344 0.72581,-1.967402 -2.36094,-1.458747 -3.29199,-0.842773 -4.92754,2.102549 -10.728633,1.271987 -15.523435,3.663085 -0.432732,1.324709 -1.639664,1.846601 -2.959961,1.232422 -0.695231,-0.814062 1.560616,-1.810788 2.262695,-2.040039 3.336777,-1.458332 7.382161,-1.680034 10.333001,-3.823242 0.37402,-2.438275 -3.24609,-2.774273 -4.969778,-3.010156 -0.703329,-0.144184 -2.612616,-0.34873 -2.638613,-0.911719 2.045071,-0.187628 4.328299,0.47418 6.325191,0.139649 0.37983,-2.535337 1.94963,-5.2076 1.50488,-7.766602 -1.30108,0.15368 -3.224324,0.870573 -3.771478,2.105469 0.647333,1.037204 1.216528,2.503024 -0.608398,2.713867 -1.820274,0.946719 -1.339145,-1.970895 -1.25,-2.946289 0.306984,-1.429779 -0.264405,-4.082816 2.001953,-3.816406 1.201607,-0.507303 3.504953,0.233192 4.108393,-0.905274 -0.11097,-0.09622 -0.26065,-0.06891 -0.3916,-0.07519 z m -6.724609,12.305664 c 1.047261,0.110391 3.399579,0.10134 3.489258,1.242187 -1.313976,0.432571 -3.08018,2.383293 -4.414062,1.488282 -0.325685,-0.917027 0.712847,-1.853192 0.432617,-2.700196 0.163573,-0.02139 0.32695,-0.03411 0.492187,-0.03027 z m -5.249023,2.739258 c -0.599632,0.46496 -0.285891,0.173523 0,0 z m 13.255862,3.129883 c -1.76001,0.388192 -4.070825,1.54516 -5.695315,0.86621 1.579602,-1.249142 4.177805,-0.566494 6.114255,-1.000976 z m -10.569339,7.21289 c 0.76799,0.231914 2.597198,0.85227 0.916016,1.481445 -1.520348,1.691179 -2.231519,-1.378827 -0.916016,-1.481445 z m 1.300782,3.449219 c 0.880592,0.274558 -2.492626,0.835329 -0.625,0.07715 0.204164,-0.05081 0.414423,-0.07884 0.625,-0.07715 z m -2.102539,1.55957 c 1.106377,0.453769 3.350612,0.631557 3.584961,1.953125 -2.267556,1.990827 -0.934257,5.387811 -1.809571,7.966797 -1.546054,10.095308 -2.310858,20.517488 -6.112304,30.064453 -0.705845,1.658045 -1.111083,0.33131 -1.09375,-0.848635 -0.968503,-9.11102 1.794361,-18.10046 3.015695,-27.090536 0.852669,-3.932533 1.296195,-8.092584 1.839773,-11.991493 0.173026,-0.100035 0.386137,-0.07314 0.575196,-0.05371 z"
       id="path4073"
       inkscape:connector-curvature="0" />
    <path
       style="fill:#ff8080;fill-opacity:1;stroke-width:0.5"
       d="m 80.318654,158.81385 c -1.61285,0.3122 -2.491129,2.62476 -4.19043,2.16601 -1.424264,7.16123 -1.788593,14.61049 -1.501953,21.9082 0.960121,0.91576 0.665039,-1.98544 0.869312,-2.54075 0.861351,-5.28356 0.216691,-11.034 2.508618,-15.97389 0.741916,-1.50192 3.46856,-1.8601 3.553711,-3.43457 -0.793599,-0.0825 -2.209478,-0.20004 -1.027344,-1.13868 0.514754,-0.35079 0.592919,-1.07457 -0.211914,-0.98632 z"
       id="path4075"
       inkscape:connector-curvature="0" />
    <path
       style="fill:#ff5555;fill-opacity:1;stroke-width:0.35355338"
       d="m 99.897497,10.214275 c -3.051382,0.277497 -6.889261,0.423606 -8.921008,3.055613 -1.12668,3.638685 -0.144127,7.753706 -2.041909,11.223249 -0.476713,0.599448 -0.150464,1.551163 -0.469563,2.048123 -2.224583,2.034951 -1.37734,5.328164 -1.860989,7.943213 -0.818133,3.626011 -0.367579,7.476972 -1.027515,11.161102 -1.800157,14.545575 -4.70761,28.994012 -5.406053,43.677138 -0.173861,5.128734 -0.688773,10.367741 0.07651,15.447757 0.819645,1.18992 0.135184,3.16746 0.407275,4.63263 -0.0958,2.96148 0.678528,6.27629 3.49148,7.79837 0.478696,0.25209 1.931519,2.00694 0.805853,1.05168 -0.502556,-0.77019 -2.215537,-1.7635 -2.21109,-0.14847 -0.355799,2.93783 -0.512919,5.98273 -2.194517,8.51014 -0.80932,1.43857 0.891679,2.38475 2.153085,2.09785 0.907679,-0.10229 3.613541,0.48436 2.548761,1.85339 -1.031225,1.00713 -3.256247,-1.3001 -3.671569,0.53931 -0.186515,2.42198 -0.894686,5.09192 -0.190588,7.43152 1.425526,0.14531 1.536838,-2.12213 1.691809,-3.14193 -0.427299,-1.68503 0.750021,-0.84311 1.769838,-0.87145 3.420178,-1.50509 3.506295,-5.85744 4.001509,-9.03137 0.814747,-6.28264 1.959212,-12.68524 0.512512,-18.97185 -0.399753,-5.83657 1.549453,-11.560267 2.426438,-17.304902 2.188568,-10.990059 4.39853,-21.975893 6.59746,-32.963904 1.365874,-1.704336 3.581814,-3.028256 4.467754,-4.995321 -0.76693,-0.827449 -2.40087,0.443381 -3.067351,-0.372889 0.777521,-2.514613 3.066651,-4.241269 5.266011,-5.420691 0.44926,-0.834798 -1.08606,-2.074116 0.31281,-2.505259 5.40862,-2.90768 11.48627,-4.693157 16.45957,-8.348555 0.65391,-0.787675 0.93296,-3.483342 -0.70503,-2.9617 -4.27551,2.683548 -9.42211,3.615091 -14.23897,4.893258 -1.09963,0.213466 -2.46641,0.561947 -3.44768,0.499812 6.01063,-3.555714 14.10383,-4.326215 18.23631,-10.587957 0.83594,-0.662104 0.0554,-1.800875 -0.75316,-1.011319 -6.23075,3.277473 -13.04846,5.580939 -20.05953,6.233136 -0.55258,0.325897 0.0392,1.233829 -0.75614,0.588335 -0.395134,-0.462206 -2.808504,-0.21415 -1.518483,-0.611813 3.533333,-0.972156 7.225523,-2.026781 10.578983,-3.304205 0.52314,-0.813514 2.47704,-1.342056 1.67869,-2.711727 -1.75908,-1.295264 -4.06813,0.431912 -5.94634,0.645633 -4.29483,1.280669 -9.194138,0.855527 -13.111711,3.257265 -0.584649,0.629723 -1.995651,1.938142 -2.559809,0.764422 3.614996,-2.649486 8.623784,-2.439213 12.23764,-5.092689 1.26708,-1.706242 -1.42595,-3.134943 -2.893335,-3.196481 -1.305218,-0.308838 -3.117003,-0.100163 -4.096247,-0.682939 2.049743,-0.380559 4.348218,0.447546 6.236212,-0.201635 -0.0236,-2.55581 1.66009,-4.867437 1.35345,-7.403215 -1.07676,-1.500455 -3.208162,0.410902 -3.989909,1.399712 -0.492915,0.852752 1.001913,2.490326 -0.570381,2.697916 -1.511355,0.657742 -0.793379,-1.764941 -0.950367,-2.577551 -0.0091,-1.449758 0.117871,-3.743806 2.159492,-3.528841 1.000246,-0.367592 3.168225,0.196974 3.489275,-1.102782 -0.50478,-0.6454556 -1.59282,-0.313254 -2.299485,-0.399129 z M 95.50432,23.082376 c 0.683382,0.191219 2.165396,0.07084 2.422393,0.743014 -0.880928,0.635808 -1.958733,1.515036 -3.037659,1.585466 -0.67559,-0.482346 -0.02774,-1.96973 0.494423,-2.330552 z m 4.049982,6.161634 c -2.096957,0.365994 0.576028,-0.193766 0,0 z m -6.923984,6.859765 c 1.174072,0.295301 0.979588,1.255347 -0.08563,1.38452 -0.315238,-0.326104 -0.316489,-1.197012 0.08563,-1.38452 z m -0.987464,5.047112 c 1.02799,0.431971 2.657147,0.559493 3.230318,1.530224 -1.735946,2.783169 -1.027227,6.230445 -1.776744,9.294586 -1.548058,9.762911 -2.262664,19.840264 -6.122965,28.983784 -0.457425,-0.157242 -0.212455,-2.137308 -0.334218,-2.952726 -0.134027,-11.429073 3.098603,-22.566747 4.501007,-33.869564 0.159246,-0.987558 0.268042,-2.049927 0.502602,-2.986304 z"
       id="path114"
       inkscape:connector-curvature="0" />
    <path
       style="fill:#ff5555;fill-opacity:1;stroke-width:0.35355338"
       d="m 108.08309,10.732866 c -1.84414,-0.05014 -0.98358,2.552476 -1.53782,3.599754 -0.81431,2.424141 -1.18643,5.16202 -0.17264,7.561347 3.96158,1.291536 8.25372,0.04135 12.3067,-0.08425 1.23932,-0.65005 -1.46617,-0.99323 0.0207,-0.901837 1.04852,0.139343 2.91345,-0.445739 3.27313,0.750611 1.79904,0.27414 0.58392,2.604437 1.88723,3.284179 1.36907,-0.450563 0.72233,-2.58072 0.99299,-3.677093 0.3009,-1.522628 0.6581,-3.086335 -0.16988,-4.516092 0.25802,-1.836963 -2.38365,-1.708774 -3.53794,-2.236459 -1.26071,-0.353334 -3.39346,-0.832901 -1.0037,-0.489769 1.09609,0.09918 3.77,0.255604 3.52449,-1.458408 -1.31025,-1.076604 -3.36962,-0.397239 -4.93554,-0.857031 -3.54638,-0.333133 -7.08168,-0.909541 -10.64774,-0.974956 z"
       id="path116"
       inkscape:connector-curvature="0" />
  </g>
  <g
     inkscape:groupmode="layer"
     id="layer3"
     inkscape:label="Line Art"
     style="display:inline">
    <path
       style="fill:none;stroke:#000000;stroke-width:1px;stroke-linecap:butt;stroke-linejoin:miter;stroke-opacity:1"
       d="m 125.75,12.125 c -2.83575,-0.267519 -5.66922,-0.5592 -8.5,-0.875 -3.87342,-0.432116 -7.74245,-0.909455 -11.625,-1.2500003 C 102.11311,9.6919657 98.506985,9.5047975 95.125,10.5 93.27289,11.045013 91.524566,11.940496 90,13.125"
       id="path3985"
       inkscape:connector-curvature="0"
       inkscape:path-effect="#path-effect3987"
       inkscape:original-d="m 125.75,12.125 c -2.83233,-0.292667 -5.66567,-0.584334 -8.5,-0.875 -2.83433,-0.290667 -7.749,-0.834334 -11.625,-1.2500003 C 101.749,9.5843331 98.626,10.332333 95.125,10.5 91.624,10.667666 91.709333,12.249 90,13.125" />
    <path
       style="fill:none;stroke:#000000;stroke-width:1px;stroke-linecap:butt;stroke-linejoin:miter;stroke-opacity:1"
       d="m 104.625,22.875 c -0.002,-0.166659 -0.002,-0.333341 0,-0.5 0.0134,-1.175339 0.12214,-2.352105 0.375,-3.5 0.37203,-1.688864 1.05218,-3.301044 1.375,-5 0.2344,-1.233609 0.27673,-2.50352 0.125,-3.75"
       id="path3989"
       inkscape:connector-curvature="0"
       inkscape:path-effect="#path-effect3991"
       inkscape:original-d="m 104.625,22.875 c 0.001,-0.167667 0.001,-0.334334 0,-0.5 -0.001,-0.165667 0.251,-2.334334 0.375,-3.5 0.124,-1.165667 0.91767,-3.334334 1.375,-5 0.45733,-1.665667 0.0843,-2.501 0.125,-3.75" />
    <path
       style="fill:none;stroke:#000000;stroke-width:1px;stroke-linecap:butt;stroke-linejoin:miter;stroke-opacity:1"
       d="m 101,22.375 c -0.0318,-1.04663 0.0522,-2.096733 0.25,-3.125 0.38393,-1.996248 1.19006,-3.889242 1.625,-5.875 0.25154,-1.148441 0.37753,-2.324337 0.375,-3.5000003"
       id="path3993"
       inkscape:connector-curvature="0"
       inkscape:path-effect="#path-effect3995"
       inkscape:original-d="m 101,22.375 c 0.0843,-1.042667 0.16767,-2.084334 0.25,-3.125 0.0823,-1.040667 1.08433,-3.917667 1.625,-5.875 0.54067,-1.957334 0.251,-2.334334 0.375,-3.5000003" />
    <path
       style="fill:none;stroke:#000000;stroke-width:1px;stroke-linecap:butt;stroke-linejoin:miter;stroke-opacity:1"
       d="m 129.875,11.75 c 4.58582,0.09389 9.17612,-0.0313 13.75,-0.375 3.58047,-0.26905 7.18428,-0.671652 10.75,-0.25 3.16229,0.373946 6.2458,1.40178 9,3"
       id="path3997"
       inkscape:connector-curvature="0"
       inkscape:path-effect="#path-effect3999"
       inkscape:original-d="m 129.875,11.75 c 4.58433,-0.126 9.16767,-0.251 13.75,-0.375 4.58233,-0.124 7.16767,-0.167667 10.75,-0.25 3.58233,-0.08233 6.001,1.999 9,3" />
    <path
       style="fill:none;stroke:#000000;stroke-width:1px;stroke-linecap:butt;stroke-linejoin:miter;stroke-opacity:1"
       d="m 127.625,67.375 c -0.13179,0.264196 -0.36104,0.478385 -0.63357,0.591939 -0.27253,0.113554 -0.58604,0.125517 -0.86643,0.03306 -0.30476,-0.100493 -0.55868,-0.314276 -0.8512,-0.446224 -0.14626,-0.06597 -0.30465,-0.111517 -0.46505,-0.107314 -0.1604,0.0042 -0.32326,0.06219 -0.43375,0.178538 -0.0671,0.07062 -0.11268,0.159927 -0.13932,0.253609 -0.0267,0.09368 -0.0349,0.191825 -0.0336,0.289213 0.003,0.194775 0.0435,0.387433 0.0479,0.582178 0.0108,0.478574 -0.19606,0.931008 -0.375,1.375 -0.95847,2.378153 -1.20447,4.970687 -1.625,7.5 -0.92937,5.589742 -2.74399,10.98748 -4.5,16.375 -2.45176,7.5221 -4.8038,15.08153 -6.75,22.75 -0.27057,1.0661 -0.53512,2.15067 -0.5,3.25 0.0415,1.30012 0.50174,2.58041 0.375,3.875 -0.0885,0.90393 -0.4648,1.76619 -1,2.5 -0.33438,0.45847 -0.7326,0.8745 -1,1.375 -0.465,0.87035 -0.48798,1.89778 -0.625,2.875 -0.257,1.83288 -0.94321,3.57526 -1.375,5.375 -0.36118,1.50546 -0.54777,3.06345 -1.125,4.5 -0.70412,1.75234 -1.97265,3.27984 -2.375,5.125 -0.32122,1.47313 -0.0586,3.02583 -0.375,4.5 -0.327,1.52362 -1.25009,2.86246 -1.625,4.375 -0.45266,1.82623 -0.074,3.7442 -0.125,5.625 -0.0582,2.14577 -0.67738,4.23755 -0.875,6.375 -0.0807,0.8724 -0.0908,1.74954 -0.125,2.625 -0.275749,7.05912 -2.108573,13.94888 -3.5,20.875 -0.481038,2.39447 -0.911243,4.8093 -1,7.25 -0.08495,2.33602 0.142408,4.6956 -0.25,7 -0.263774,1.549 -0.802269,3.0368 -1.375,4.5 -0.555232,1.41849 -1.152683,2.85482 -1.25,4.375 -0.01865,0.29127 -0.01865,0.58373 0,0.875"
       id="path4001"
       inkscape:connector-curvature="0"
       inkscape:path-effect="#path-effect4003"
       inkscape:original-d="m 127.625,67.375 c -3.251,0.251 -0.91767,0.751 -1.5,0.625 -0.58233,-0.126 -1.16567,-0.251 -1.75,-0.375 -0.58433,-0.124 -0.0823,0.749 -0.125,1.125 -0.0427,0.376 -0.249,0.915666 -0.375,1.375 -0.126,0.459333 -1.08233,4.999 -1.625,7.5 -0.54267,2.501 -2.999,10.915666 -4.5,16.375 -1.501,5.459333 -4.499,15.16567 -6.75,22.75 -2.251,7.58433 -0.33233,2.16567 -0.5,3.25 -0.16767,1.08433 0.251,2.58233 0.375,3.875 0.124,1.29267 -0.66567,1.66567 -1,2.5 -0.33433,0.83433 -0.66567,0.91567 -1,1.375 -0.33433,0.45933 -0.41567,1.91567 -0.625,2.875 -0.20933,0.95933 -0.91567,3.58233 -1.375,5.375 -0.45933,1.79267 -0.749,2.999 -1.125,4.5 -0.376,1.501 -1.58233,3.41567 -2.375,5.125 -0.79267,1.70933 -0.249,2.999 -0.375,4.5 -0.126,1.501 -1.08233,2.91567 -1.625,4.375 -0.54267,1.45933 -0.0823,3.749 -0.125,5.625 -0.0427,1.876 -0.58233,4.249 -0.875,6.375 -0.29267,2.126 -0.0823,1.749 -0.125,2.625 -0.0427,0.876 -2.332333,13.91567 -3.5,20.875 -1.167667,6.95933 -0.665667,4.83233 -1,7.25 -0.334333,2.41767 -0.165667,4.66567 -0.25,7 -0.08433,2.33433 -0.915667,2.999 -1.375,4.5 -0.459333,1.501 -0.832333,2.91567 -1.25,4.375 -0.417667,1.45933 0.001,0.58233 0,0.875" />
    <path
       style="fill:none;stroke:#000000;stroke-width:1px;stroke-linecap:butt;stroke-linejoin:miter;stroke-opacity:1"
       d="m 72,214.875 c 0.07447,0.3769 0.157833,0.75204 0.25,1.125 0.161288,0.65267 0.351589,1.30386 0.664008,1.89916 0.312419,0.59531 0.755783,1.1362 1.335992,1.47584 0.590588,0.34571 1.29234,0.4654 1.976447,0.44789 0.684108,-0.0175 1.357686,-0.16499 2.023553,-0.32289 5.081415,-1.20496 10.008783,-3.05799 14.62498,-5.5"
       id="path4005"
       inkscape:connector-curvature="0"
       inkscape:path-effect="#path-effect4007"
       inkscape:original-d="m 72,214.875 c 0.08433,0.374 0.167667,0.749 0.25,1.125 0.08233,0.376 1.334333,2.249 2,3.375 0.665667,1.126 2.667667,0.0823 4,0.125 1.332333,0.0427 9.750987,-3.66767 14.62498,-5.5" />
    <path
       style="fill:none;stroke:#000000;stroke-width:1px;stroke-linecap:butt;stroke-linejoin:miter;stroke-opacity:1"
       d="m 143.75,210.75 c 4.13893,1.60666 8.15457,3.53082 12,5.75 0.55824,0.32216 1.1173,0.65258 1.72554,0.8658 0.60825,0.21323 1.2776,0.30364 1.89946,0.1342 0.65714,-0.17906 1.21019,-0.63381 1.64129,-1.16111 0.4311,-0.52731 0.75708,-1.13058 1.10871,-1.71389 0.33989,-0.56384 0.70694,-1.11414 0.98131,-1.7126 0.27438,-0.59847 0.45445,-1.25684 0.39369,-1.9124 -0.0805,-0.86853 -0.57015,-1.64649 -0.75,-2.5 -0.16168,-0.76731 -0.0666,-1.56628 0.0993,-2.33268 0.16594,-0.7664 0.40206,-1.51796 0.52568,-2.29232 0.28321,-1.77402 -0.0339,-3.58083 -0.125,-5.375 -0.10809,-2.12884 0.10355,-4.26077 0.375,-6.375 0.87537,-6.81804 2.37859,-13.68238 1.5,-20.5 -0.28822,-2.23653 -0.83046,-4.43372 -1.13999,-6.66741 -0.30952,-2.23368 -0.37922,-4.54654 0.26499,-6.70759 0.30765,-1.03204 0.77969,-2.04849 0.75,-3.125 -0.0216,-0.78197 -0.30836,-1.5295 -0.59945,-2.2556 -0.29108,-0.7261 -0.59399,-1.46418 -0.65055,-2.2444 -0.0855,-1.1788 0.39783,-2.32253 0.5,-3.5 0.0947,-1.0908 -0.13955,-2.18041 -0.373,-3.25013 -0.23345,-1.06972 -0.46898,-2.15884 -0.377,-3.24987 0.0969,-1.14968 0.55248,-2.23827 0.75,-3.375 0.40754,-2.34534 -0.29895,-4.76336 0,-7.125 0.1613,-1.27427 0.61078,-2.49303 0.875,-3.75 0.6875,-3.27068 0.10216,-6.65793 0.125,-10 0.0258,-3.78158 0.83265,-7.50742 1.375,-11.25 1.12005,-7.729076 1.11467,-15.569531 1.375,-23.375 0.23492,-7.043516 0.6872,-14.111151 0,-21.125 -0.27605,-2.817547 -0.73568,-5.617094 -1.375,-8.375"
       id="path4009"
       inkscape:connector-curvature="0"
       inkscape:path-effect="#path-effect4011"
       inkscape:original-d="m 143.75,210.75 c 4.001,1.91567 8.001,3.83233 12,5.75 3.999,1.91767 2.41767,0.66567 3.625,1 1.20733,0.33433 1.83433,-1.91767 2.75,-2.875 0.91567,-0.95733 0.91767,-2.41767 1.375,-3.625 0.45733,-1.20733 -0.499,-1.66767 -0.75,-2.5 -0.251,-0.83233 0.41767,-3.08433 0.625,-4.625 0.20733,-1.54067 -0.0823,-3.58433 -0.125,-5.375 -0.0427,-1.79067 0.251,-4.251 0.375,-6.375 0.124,-2.124 1.001,-13.66767 1.5,-20.5 0.499,-6.83233 -0.58233,-8.91767 -0.875,-13.375 -0.29267,-4.45733 0.501,-2.08433 0.75,-3.125 0.249,-1.04067 -0.83233,-3.001 -1.25,-4.5 -0.41767,-1.499 0.33433,-2.33433 0.5,-3.5 0.16567,-1.16567 -0.499,-4.33433 -0.75,-6.5 -0.251,-2.16567 0.501,-2.251 0.75,-3.375 0.249,-1.124 0.001,-4.751 0,-7.125 -0.001,-2.374 0.58433,-2.501 0.875,-3.75 0.29067,-1.249 0.0843,-6.66767 0.125,-10 0.0407,-3.33233 0.91767,-7.501 1.375,-11.25 0.45733,-3.749 0.91767,-15.584334 1.375,-23.375 0.45733,-7.790667 0.001,-14.084334 0,-21.125 -0.001,-7.040667 -0.91567,-5.584334 -1.375,-8.375" />
    <path
       style="fill:none;stroke:#000000;stroke-width:1px;stroke-linecap:butt;stroke-linejoin:miter;stroke-opacity:1"
       d="m 163.375,14.125 c 0.41086,1.649903 0.74468,3.318989 1,5 0.27549,1.813807 0.46503,3.663208 1.125,5.375 0.385,0.998591 0.92909,1.947846 1.125,3 0.16237,0.872042 0.076,1.772323 -0.0859,2.644455 -0.16189,0.872131 -0.3985,1.729735 -0.53914,2.605545 -0.25463,1.585684 -0.18419,3.244499 0.375,4.75 0.2372,0.638593 0.55883,1.242903 0.80338,1.878717 0.24455,0.635813 0.41224,1.321116 0.32162,1.996283 -0.0808,0.602078 -0.36116,1.158603 -0.5,1.75 -0.15911,0.677733 -0.12875,1.387133 -0.0263,2.075711 0.10246,0.688578 0.27555,1.364577 0.40128,2.049289 0.15887,0.8652 0.24179,1.753122 0.125,2.625 -0.11292,0.842989 -0.41402,1.660242 -0.875,2.375"
       id="path4013"
       inkscape:connector-curvature="0"
       inkscape:path-effect="#path-effect4015"
       inkscape:original-d="m 163.375,14.125 c 0.33433,1.707333 0.66767,3.332333 1,5 0.33233,1.667666 0.751,3.582333 1.125,5.375 0.374,1.792666 0.751,1.999 1.125,3 0.374,1.001 -0.41567,3.499 -0.625,5.25 -0.20933,1.751 0.251,3.165666 0.375,4.75 0.124,1.584333 0.751,2.582333 1.125,3.875 0.374,1.292666 -0.33233,1.165666 -0.5,1.75 -0.16767,0.584333 0.251,2.749 0.375,4.125 0.124,1.376 0.0843,1.749 0.125,2.625 0.0407,0.876 -0.58233,1.582333 -0.875,2.375" />
    <path
       style="fill:none;stroke:#000000;stroke-width:1px;stroke-linecap:butt;stroke-linejoin:miter;stroke-opacity:1"
       d="m 72,214.875 c 0.64287,-1.59898 1.06478,-3.28661 1.25,-5 0.237583,-2.19777 0.08668,-4.41612 0,-6.625 -0.107845,-2.74836 -0.115782,-5.49954 -0.125,-8.25 -0.01384,-4.12877 -0.03021,-8.26614 0.375,-12.375 0.152187,-1.5432 0.363675,-3.08031 0.5,-4.625 0.31927,-3.61763 0.225339,-7.26537 0.625,-10.875 0.361925,-3.2688 1.126105,-6.48254 1.5,-9.75 0.300426,-2.62541 0.349005,-5.28533 0.875,-7.875 0.598086,-2.9446 1.806659,-5.76219 2.125,-8.75 0.318179,-2.98629 -0.268878,-6.00025 -0.125,-9 0.13137,-2.73896 0.868397,-5.40958 1.25,-8.125 0.738072,-5.252 0.139256,-10.5857 -0.25,-15.875 -0.959576,-13.038959 -0.633641,-26.187182 1.25,-39.125 0.867801,-5.960503 2.065321,-11.877715 2.625,-17.875 0.360514,-3.863117 0.463906,-7.797906 1.625,-11.5 0.140674,-0.448531 0.29676,-0.893072 0.402812,-1.351027 C 86.008865,37.441019 86.064194,36.96567 86,36.5 85.930566,35.996321 85.722606,35.507703 85.75,35 85.773955,34.556033 85.975837,34.143589 86.177032,33.747104 86.378226,33.350618 86.586503,32.942943 86.625,32.5 86.659887,32.098589 86.552285,31.699904 86.443688,31.31189 86.335091,30.923876 86.223421,30.527047 86.25,30.125 86.276093,29.730302 86.434649,29.355563 86.629435,29.011287 86.824221,28.667011 87.056785,28.34516 87.25,28 c 0.586882,-1.048412 0.787872,-2.26593 1.25,-3.375 0.234655,-0.563153 0.535667,-1.09587 0.800254,-1.645596 C 89.564841,22.429679 89.795215,21.854846 89.875,21.25 89.973527,20.503078 89.838698,19.748153 89.75,19 89.518239,17.045141 89.603007,15.053104 90,13.125"
       id="path4017"
       inkscape:connector-curvature="0"
       inkscape:path-effect="#path-effect4019"
       inkscape:original-d="m 72,214.875 c 0.417667,-1.66767 0.834333,-3.33433 1.25,-5 0.415667,-1.66567 0.001,-4.41767 0,-6.625 -0.001,-2.20733 -0.08233,-5.501 -0.125,-8.25 -0.04267,-2.749 0.251,-8.251 0.375,-12.375 0.124,-4.124 0.334333,-3.08433 0.5,-4.625 0.165667,-1.54067 0.417667,-7.251 0.625,-10.875 0.207333,-3.624 1.001,-6.501 1.5,-9.75 0.499,-3.249 0.584333,-5.251 0.875,-7.875 0.290667,-2.624 1.417667,-5.83433 2.125,-8.75 0.707333,-2.91567 -0.08233,-6.001 -0.125,-9 -0.04267,-2.999 0.834333,-5.41767 1.25,-8.125 0.415667,-2.70733 -0.165667,-10.58433 -0.25,-15.875 -0.08433,-5.29067 0.834333,-26.084334 1.25,-39.125 0.415667,-13.040667 1.751,-11.917667 2.625,-17.875 0.874,-5.957334 1.084333,-7.667667 1.625,-11.5 0.540667,-3.832334 0.334333,-1.834334 0.5,-2.75 0.165667,-0.915667 -0.165667,-1.001 -0.25,-1.5 -0.08433,-0.499 0.584333,-1.667667 0.875,-2.5 0.290667,-0.832334 -0.249,-1.584334 -0.375,-2.375 -0.126,-0.790667 0.667667,-1.417667 1,-2.125 0.332333,-0.707334 0.834333,-2.251 1.25,-3.375 0.415667,-1.124 0.917667,-2.251 1.375,-3.375 C 90.332333,20.126 89.79267,19.749 89.75,19 89.70733,18.251 89.917667,15.082333 90,13.125" />
    <path
       style="fill:none;stroke:#000000;stroke-width:1px;stroke-linecap:butt;stroke-linejoin:miter;stroke-opacity:1"
       d="m 155.125,23.125 c 0.0724,-1.756673 -0.0537,-3.521452 -0.375,-5.25 -0.45478,-2.446263 -1.30222,-4.819095 -2.5,-7"
       id="path4021"
       inkscape:connector-curvature="0"
       inkscape:path-effect="#path-effect4023"
       inkscape:original-d="m 155.125,23.125 c -0.124,-1.751 -0.249,-3.501 -0.375,-5.25 -0.126,-1.749 -1.66567,-4.667667 -2.5,-7" />
    <path
       style="fill:none;stroke:#000000;stroke-width:1px;stroke-linecap:butt;stroke-linejoin:miter;stroke-opacity:1"
       d="m 152.125,23 c -0.0516,-1.675508 -0.21884,-3.347444 -0.5,-5 -0.39905,-2.345446 -1.02803,-4.651713 -1.875,-6.875"
       id="path4025"
       inkscape:connector-curvature="0"
       inkscape:path-effect="#path-effect4027"
       inkscape:original-d="m 152.125,23 c -0.16567,-1.667667 -0.33233,-3.334334 -0.5,-5 -0.16767,-1.665667 -1.249,-4.584334 -1.875,-6.875" />
    <path
       style="fill:none;stroke:#000000;stroke-width:1px;stroke-linecap:butt;stroke-linejoin:miter;stroke-opacity:1"
       d="m 118.625,23 c -3.67201,0.02252 -7.34517,-0.144446 -11,-0.5 -3.66556,-0.356598 -7.31841,-0.903119 -11,-1 -0.791484,-0.02083 -1.583516,-0.02083 -2.375,0"
       id="path4029"
       inkscape:connector-curvature="0"
       inkscape:path-effect="#path-effect4031"
       inkscape:original-d="m 118.625,23 c -3.66567,-0.167667 -7.33233,-0.334334 -11,-0.5 -3.66767,-0.165667 -7.33233,-0.667667 -11,-1 -3.667667,-0.332334 -1.582333,-0.001 -2.375,0" />
    <path
       style="fill:none;stroke:#000000;stroke-width:1px;stroke-linecap:butt;stroke-linejoin:miter;stroke-opacity:1"
       d="m 136.75,23.625 c 3.37536,0.03794 6.75161,-0.0037 10.125,-0.125 4.38257,-0.157529 8.76031,-0.449378 13.125,-0.875"
       id="path4033"
       inkscape:connector-curvature="0"
       inkscape:path-effect="#path-effect4035"
       inkscape:original-d="m 136.75,23.625 c 3.376,-0.04267 6.751,-0.08433 10.125,-0.125 3.374,-0.04067 8.751,-0.584334 13.125,-0.875" />
    <path
       style="fill:none;stroke:#000000;stroke-width:1px;stroke-linecap:butt;stroke-linejoin:miter;stroke-opacity:1"
       d="m 128,13.375 c -0.22652,-0.09017 -0.48898,-0.06904 -0.71123,0.03118 -0.22226,0.100218 -0.40601,0.274343 -0.54348,0.475699 -0.27493,0.402711 -0.36734,0.897599 -0.49529,1.36812 -0.18951,0.696877 -0.47149,1.381666 -0.48957,2.103624 -0.009,0.360979 0.0511,0.728556 0.21469,1.05049 0.16354,0.321934 0.43641,0.595095 0.77488,0.720886 0.31158,0.115798 0.66521,0.101031 0.97544,-0.01836 0.31022,-0.119391 0.57729,-0.339096 0.77456,-0.606639 0.36969,-0.501385 0.49022,-1.148951 0.47905,-1.771792 -0.0112,-0.622841 -0.14253,-1.236305 -0.22905,-1.853208 -0.0408,-0.291113 -0.0726,-0.587212 -0.17847,-0.86145 -0.0529,-0.13712 -0.12451,-0.267946 -0.21985,-0.379806 C 128.25633,13.521885 128.13656,13.429358 128,13.375 Z"
       id="path4037"
       inkscape:connector-curvature="0"
       inkscape:path-effect="#path-effect4039"
       inkscape:original-d="m 128,13.375 c -0.251,-0.499 -1.16567,1.249 -1.75,1.875 -0.58433,0.626 0.33433,2.582333 0.5,3.875 0.16567,1.292666 1.16767,-0.417667 1.75,-0.625 0.58233,-0.207334 0.16767,-2.417667 0.25,-3.625 0.0823,-1.207334 -0.499,-1.001 -0.75,-1.5 z" />
    <path
       style="fill:none;stroke:#000000;stroke-width:1px;stroke-linecap:butt;stroke-linejoin:miter;stroke-opacity:1"
       d="m 126.375,19.5 -0.125,4.375"
       id="path4041"
       inkscape:connector-curvature="0"
       inkscape:path-effect="#path-effect4043"
       inkscape:original-d="m 126.375,19.5 c -0.0407,1.457333 -0.0823,2.915666 -0.125,4.375" />
    <path
       style="fill:none;stroke:#000000;stroke-width:1px;stroke-linecap:butt;stroke-linejoin:miter;stroke-opacity:1"
       d="M 127.875,19.125 V 23.25"
       id="path4045"
       inkscape:connector-curvature="0"
       inkscape:path-effect="#path-effect4047"
       inkscape:original-d="m 127.875,19.125 c 0.001,1.374 0.001,2.749 0,4.125" />
    <path
       style="fill:none;stroke:#000000;stroke-width:1px;stroke-linecap:butt;stroke-linejoin:miter;stroke-opacity:1"
       d="m 126.25,23.875 1.625,-0.625"
       id="path4049"
       inkscape:connector-curvature="0"
       inkscape:path-effect="#path-effect4051"
       inkscape:original-d="m 126.25,23.875 c 0.54267,-0.209333 1.08433,-0.417667 1.625,-0.625" />
    <path
       style="fill:none;stroke:#000000;stroke-width:1px;stroke-linecap:butt;stroke-linejoin:miter;stroke-opacity:1"
       d="m 125.5,25.25 c -0.36552,5.53745 -0.65723,11.079773 -0.875,16.625 -0.17012,4.331875 -0.29513,8.665522 -0.375,13"
       id="path4053"
       inkscape:connector-curvature="0"
       inkscape:path-effect="#path-effect4055"
       inkscape:original-d="m 125.5,25.25 c -0.29067,5.540666 -0.58233,11.082333 -0.875,16.625 -0.29267,5.542666 -0.249,8.665666 -0.375,13" />
    <path
       style="fill:none;stroke:#000000;stroke-width:1px;stroke-linecap:butt;stroke-linejoin:miter;stroke-opacity:1"
       d="m 128.125,30.875 c 0.0599,5.54181 0.0182,11.084718 -0.125,16.625 -0.0873,3.376256 -0.2123,6.751537 -0.375,10.125"
       id="path4057"
       inkscape:connector-curvature="0"
       inkscape:path-effect="#path-effect4059"
       inkscape:original-d="m 128.125,30.875 c -0.0407,5.540666 -0.0823,11.082333 -0.125,16.625 -0.0427,5.542666 -0.249,6.749 -0.375,10.125" />
    <path
       style="fill:none;stroke:#000000;stroke-width:1px;stroke-linecap:butt;stroke-linejoin:miter;stroke-opacity:1"
       d="m 127.625,67.375 c 0.0274,2.168336 0.11079,4.335964 0.25,6.5 0.44486,6.915548 1.46328,13.804455 3.25,20.5 0.86694,3.248768 1.91419,6.45139 2.63147,9.73645 0.71728,3.28505 1.10065,6.68584 0.61853,10.01355 -0.23532,1.62426 -0.67608,3.23457 -0.625,4.875 0.0455,1.46151 0.48101,2.88299 1,4.25 0.34212,0.90113 0.72491,1.79787 0.875,2.75 0.15008,0.95204 0.0618,1.92298 0.0112,2.88545 -0.0505,0.96247 -0.0599,1.94819 0.23877,2.86455 0.25452,0.78098 0.72207,1.47704 1,2.25 0.28503,0.7927 0.36278,1.64351 0.4064,2.48478 0.0436,0.84126 0.056,1.68867 0.2186,2.51522 0.2877,1.46251 1.03313,2.79919 1.375,4.25 0.53707,2.27916 0.0478,4.6814 0.375,7 0.22534,1.59666 0.836,3.13799 0.875,4.75 0.0397,1.64023 -0.5156,3.23794 -0.625,4.875 -0.0864,1.2934 0.10662,2.58667 0.25,3.875 0.42457,3.81487 0.41558,7.66251 0.5,11.5 0.1682,7.64543 0.70938,15.28274 1.625,22.875 0.50946,4.22442 1.13477,8.43486 1.875,12.625"
       id="path4061"
       inkscape:connector-curvature="0"
       inkscape:path-effect="#path-effect4063"
       inkscape:original-d="m 127.625,67.375 c 0.0843,2.165667 0.16767,4.332333 0.25,6.5 0.0823,2.167666 2.16767,13.665666 3.25,20.5 1.08233,6.83433 2.16767,13.16567 3.25,19.75 1.08233,6.58433 -0.41567,3.249 -0.625,4.875 -0.20933,1.626 0.66767,2.83233 1,4.25 0.33233,1.41767 0.58433,1.83233 0.875,2.75 0.29067,0.91767 0.16767,3.83233 0.25,5.75 0.0823,1.91767 0.66767,1.499 1,2.25 0.33233,0.751 0.41767,3.33233 0.625,5 0.20733,1.66767 0.91767,2.83233 1.375,4.25 0.45733,1.41767 0.251,4.66567 0.375,7 0.124,2.33433 0.58433,3.16567 0.875,4.75 0.29067,1.58433 -0.41567,3.249 -0.625,4.875 -0.20933,1.626 0.16767,2.58233 0.25,3.875 0.0823,1.29267 0.33433,7.66567 0.5,11.5 0.16567,3.83433 1.08433,15.249 1.625,22.875 0.54067,7.626 1.251,8.41567 1.875,12.625" />
    <path
       style="fill:none;stroke:#000000;stroke-width:1px;stroke-linecap:butt;stroke-linejoin:miter;stroke-opacity:1"
       d="m 129.875,11.75 -4.125,0.375"
       id="path4077"
       inkscape:connector-curvature="0"
       inkscape:path-effect="#path-effect4079"
       inkscape:original-d="m 129.875,11.75 c -1.374,0.124 -2.749,0.249 -4.125,0.375" />
  </g>
</svg>
