<svg xmlns="http://www.w3.org/2000/svg" xmlns:xlink="http://www.w3.org/1999/xlink" viewBox="0 0 346.666 301.7">
  <defs/>
  <defs>
    <linearGradient id="i">
      <stop offset="0" stop-color="#fff6d5"/>
      <stop offset=".666" stop-color="#fea"/>
      <stop offset="1" stop-color="#ffb380"/>
    </linearGradient>
  </defs>
  <defs>
    <linearGradient id="e">
      <stop offset="0" stop-color="#fd5" stop-opacity=".6"/>
      <stop offset="1" stop-color="#f95"/>
    </linearGradient>
    <linearGradient id="d">
      <stop offset="0" stop-color="#fd5" stop-opacity=".6"/>
      <stop offset="1" stop-color="#cf26be"/>
    </linearGradient>
    <linearGradient id="c">
      <stop offset="0" stop-color="#fd5" stop-opacity=".6"/>
      <stop offset="1" stop-color="#85ff8b"/>
    </linearGradient>
    <linearGradient id="b">
      <stop offset="0" stop-color="#fd5" stop-opacity=".6"/>
      <stop offset="1" stop-color="#85c6ff"/>
    </linearGradient>
    <linearGradient id="h">
      <stop offset="0" stop-color="#ffe680"/>
      <stop offset="1" stop-color="#ffd42a"/>
    </linearGradient>
    <linearGradient id="a">
      <stop offset="0" stop-color="#fd5" stop-opacity=".533"/>
      <stop offset="1" stop-color="#a79e90"/>
    </linearGradient>
    <linearGradient id="g">
      <stop offset="0" stop-color="#ffb380"/>
      <stop offset="1" stop-color="#ff7f2a"/>
    </linearGradient>
    <linearGradient id="f">
      <stop offset="0" stop-color="#ff8080"/>
      <stop offset="1" stop-color="#ff2a2a"/>
    </linearGradient>
    <linearGradient id="p" x1="256" x2="256" y1="152.313" y2="110.84" gradientUnits="userSpaceOnUse" xlink:href="#a"/>
    <linearGradient id="x" x1="202.37" x2="183" y1="369.077" y2="409" gradientUnits="userSpaceOnUse" xlink:href="#b"/>
    <linearGradient id="w" x1="168.667" x2="138" y1="343.889" y2="372" gradientUnits="userSpaceOnUse" xlink:href="#c"/>
    <linearGradient id="v" x1="141.408" x2="105" y1="313.909" y2="335" gradientUnits="userSpaceOnUse" xlink:href="#d"/>
    <linearGradient id="u" x1="123.945" x2="83" y1="278.131" y2="291" gradientUnits="userSpaceOnUse" xlink:href="#e"/>
    <linearGradient id="t" x1="310.075" x2="329" y1="369.279" y2="409" gradientUnits="userSpaceOnUse" xlink:href="#b"/>
    <linearGradient id="s" x1="343.724" x2="374" y1="343.298" y2="372" gradientUnits="userSpaceOnUse" xlink:href="#c"/>
    <linearGradient id="r" x1="371.835" x2="407" y1="313.909" y2="335" gradientUnits="userSpaceOnUse" xlink:href="#d"/>
    <linearGradient id="q" x1="393.983" x2="429" y1="279.835" y2="290" gradientUnits="userSpaceOnUse" xlink:href="#e"/>
    <radialGradient id="j" cx="687.141" cy="-496.979" r="256" fx="687.141" fy="-496.979" gradientTransform="matrix(-.99077 0 0 -.60156 854.175 -178.383)" gradientUnits="userSpaceOnUse" xlink:href="#f"/>
    <radialGradient id="l" cx="257.094" cy="-154.726" r="256" fx="257.094" fy="-154.726" gradientTransform="matrix(-.91423 0 0 -.625 408.417 33.874)" gradientUnits="userSpaceOnUse" xlink:href="#g"/>
    <radialGradient id="k" cx="687.141" cy="-496.979" r="256" fx="687.141" fy="-496.979" gradientTransform="matrix(-.99077 0 0 -.60156 854.175 -178.383)" gradientUnits="userSpaceOnUse" xlink:href="#g"/>
    <radialGradient id="o" cx="256" cy="189.941" r="112" fx="256" fy="189.941" gradientTransform="matrix(2.33484 0 0 .1716 -424.346 53.986)" gradientUnits="userSpaceOnUse" xlink:href="#h"/>
    <radialGradient id="n" cx="202.316" cy="261.936" r="32.493" fx="202.316" fy="261.936" gradientTransform="matrix(0 -1.15919 1.13598 0 -177.864 388.734)" gradientUnits="userSpaceOnUse" xlink:href="#i"/>
    <radialGradient id="m" cx="309.224" cy="261.938" r="32.561" fx="309.224" fy="261.938" gradientTransform="matrix(0 -1.15715 1.1332 0 -70.23 512.028)" gradientUnits="userSpaceOnUse" xlink:href="#i"/>
  </defs>
  <path fill="url(#j)" stroke="#020202" d="M192.39 76.718l4.984-2.452c1.356 7.843 1.435 18.24-2 28 17.964-17.79 45.036-23.175 71-8.45 6.94 3.935 10.867 9.65 13.954 15.093 1.492 2.632-.613 2.973 6.999.283 6.485 11.296 7.027 30.76 6.106 39.355-4.603-.55-9.243 6.614-11.473 10.677-3.144 5.731-2.357 11.196-5.302 16.83-4.89 9.351-19.979 23.603-32.687 29.582-8.555 4.025-26.932 2.456-35.084 3.232-8.27 4.98 13.546 20.606 13.765 23.185l-7.78 3.231c-3.266-2.08-13.552-11.194-15.954-17.847-1.374-3.806-3.031-13.7-.078-15.588 6.023-3.955 25.613 1.157 34.576-1.082 38.584-9.638 41.947-33.74 38.622-67.566-1.18-12 6.562-21.78-1.773-27.153-3.8-2.91-14.792 2.03-20.891 2.04-23.124-3.03-50.785-4.836-64.993 25.391-4.985 10.857-3.3 24.844-3.84 34.49-.225 4-2.13 8.96-7.167 8.96s-6.942-4.96-7.166-8.96v0c-.542-9.646 1.144-23.633-3.841-34.49-14.208-30.227-41.87-28.42-64.993-25.392-6.1-.01-17.09-4.95-20.891-2.039-8.335 5.373-.593 15.152-1.773 27.153-3.325 33.825.038 57.928 38.622 67.566 8.963 2.24 28.553-2.873 34.576 1.082 2.953 1.887 1.23 11.782-.143 15.588-2.402 6.653-12.623 15.766-15.89 17.847l-7.78-3.23c.22-2.58 22.037-18.207 13.766-23.186-8.152-.776-26.53.793-35.084-3.232-12.708-5.979-27.797-20.23-32.687-29.583-2.945-5.633-2.158-11.098-5.302-16.829-2.23-4.063-6.87-11.226-11.473-10.677-.921-8.596-.38-28.059 6.106-39.355 7.612 2.69 5.507 2.35 6.999-.283 3.087-5.443 7.014-11.158 13.954-15.094 25.964-14.724 53.036-9.34 71 8.451-3.435-9.76-3.356-20.157-2-28l4.984 2.452 2.016 1.548 17 8.313 17-8.313zm20.113 160.117c-9.114-10.002-21.59-17.979-16.236-36.59 4.436-5.392 19.796-1.287 28.107-1.022 13.379.426 28.048-5.73 36.674-15.96 15.943-20.39 8.44-39.623 8.365-53.997-.382-9.823 5.548-16.214 1.11-20.168-4.436-3.954-10.096 1.524-17.643 2.08-9.384.893-18.575-1.709-27.252-1.889-24.043.766-38.423 17.395-41.752 33.848-1.292 6.383-.956 15.678-1.088 22.334-.204 5.928-2.173 14.12-9.414 13.696-7.241.425-9.21-7.768-9.414-13.696-.132-6.656.204-15.95-1.088-22.334-3.329-16.453-17.709-33.082-41.752-33.848-8.677.18-17.868 2.782-27.252 1.888-7.547-.555-13.207-6.033-17.644-2.079-4.437 3.954 1.493 10.345 1.11 20.168-.073 14.374-7.577 33.606 8.366 53.996 8.626 10.23 23.295 16.387 36.674 15.961 8.311-.265 23.671-4.37 28.107 1.023 5.353 18.61-7.122 26.587-16.236 36.59l5.164 4.58c7.622 7.83 6.178 10.702 3.287 14.323 7.55 4.605 25.329 18.231 30.678 18.31 5.35-.079 23.127-13.705 30.678-18.31-2.89-3.62-4.335-6.493 3.287-14.322zm-24.129-44.225c-3.768-3.213 3.31-7.2 3.921-17.31-.44-9.317-3.913-16.883-1.837-29.034 3.057-17.377 17.813-30.92 35.916-30.92 7.189 0 13.913 3.072 21 3.826 8.469.901 12.854-4.805 15.85-2.057 2.995 2.75-2.187 7.842-1.72 15.151.368 5.76 2.569 11.235 2.83 17 2.68 17.407-7.797 36.32-27.51 40.938-14.993 3.514-20.877-2.155-31.45-1.883-8.844-.896-13.232 7.5-17 4.29zm-47-4.289c-10.573-.272-16.457 5.397-31.452 1.883-19.711-4.62-30.188-23.53-27.51-40.938.263-5.765 2.464-11.24 2.832-17 .467-7.31-4.715-12.402-1.72-15.15 2.996-2.75 7.38 2.957 15.85 2.056 7.087-.754 13.811-3.827 21-3.827 18.103 0 32.859 13.544 35.916 30.921 2.076 12.15-1.397 19.717-1.837 29.033.611 10.11 7.689 14.098 3.921 17.31-3.768 3.213-8.156-5.184-17-4.288z"/>
  <path fill="url(#k)" stroke="#020202" d="M192.39 76.718l4.984-2.452c1.356 7.843 1.435 18.24-2 28 17.964-17.79 45.036-23.175 71-8.45 6.94 3.935 10.867 9.65 13.954 15.093 1.492 2.632-.613 2.973 6.999.283 6.485 11.296 7.027 30.76 6.106 39.355-4.603-.55-9.243 6.614-11.473 10.677-3.144 5.731-2.357 11.196-5.302 16.83-4.89 9.351-19.979 23.603-32.687 29.582-8.555 4.025-26.932 2.456-35.084 3.232-8.27 4.98 13.546 20.606 13.765 23.185l-7.78 3.231c-3.266-2.08-13.552-11.194-15.954-17.847-1.374-3.806-3.031-13.7-.078-15.588 6.023-3.955 25.613 1.157 34.576-1.082 38.584-9.638 41.947-33.74 38.622-67.566-1.18-12 6.562-21.78-1.773-27.153-3.8-2.91-14.792 2.03-20.891 2.04-23.124-3.03-50.785-4.836-64.993 25.391-4.985 10.857-3.3 24.844-3.84 34.49-.225 4-2.13 8.96-7.167 8.96s-6.942-4.96-7.166-8.96v0c-.542-9.646 1.144-23.633-3.841-34.49-14.208-30.227-41.87-28.42-64.993-25.392-6.1-.01-17.09-4.95-20.891-2.039-8.335 5.373-.593 15.152-1.773 27.153-3.325 33.825.038 57.928 38.622 67.566 8.963 2.24 28.553-2.873 34.576 1.082 2.953 1.887 1.23 11.782-.143 15.588-2.402 6.653-12.623 15.766-15.89 17.847l-7.78-3.23c.22-2.58 22.037-18.207 13.766-23.186-8.152-.776-26.53.793-35.084-3.232-12.708-5.979-27.797-20.23-32.687-29.583-2.945-5.633-2.158-11.098-5.302-16.829-2.23-4.063-6.87-11.226-11.473-10.677-.921-8.596-.38-28.059 6.106-39.355 7.612 2.69 5.507 2.35 6.999-.283 3.087-5.443 7.014-11.158 13.954-15.094 25.964-14.724 53.036-9.34 71 8.451-3.435-9.76-3.356-20.157-2-28l4.984 2.452 2.016 1.548 17 8.313 17-8.313zm20.113 160.117c-9.114-10.002-21.59-17.979-16.236-36.59 4.436-5.392 19.796-1.287 28.107-1.022 13.379.426 28.048-5.73 36.674-15.96 15.943-20.39 8.44-39.623 8.365-53.997-.382-9.823 5.548-16.214 1.11-20.168-4.436-3.954-10.096 1.524-17.643 2.08-9.384.893-18.575-1.709-27.252-1.889-24.043.766-38.423 17.395-41.752 33.848-1.292 6.383-.956 15.678-1.088 22.334-.204 5.928-2.173 14.12-9.414 13.696-7.241.425-9.21-7.768-9.414-13.696-.132-6.656.204-15.95-1.088-22.334-3.329-16.453-17.709-33.082-41.752-33.848-8.677.18-17.868 2.782-27.252 1.888-7.547-.555-13.207-6.033-17.644-2.079-4.437 3.954 1.493 10.345 1.11 20.168-.073 14.374-7.577 33.606 8.366 53.996 8.626 10.23 23.295 16.387 36.674 15.961 8.311-.265 23.671-4.37 28.107 1.023 5.353 18.61-7.122 26.587-16.236 36.59l5.164 4.58c7.622 7.83 6.178 10.702 3.287 14.323 7.55 4.605 25.329 18.231 30.678 18.31 5.35-.079 23.127-13.705 30.678-18.31-2.89-3.62-4.335-6.493 3.287-14.322zm-24.129-44.225c-3.768-3.213 3.31-7.2 3.921-17.31-.44-9.317-3.913-16.883-1.837-29.034 3.057-17.377 17.813-30.92 35.916-30.92 7.189 0 13.913 3.072 21 3.826 8.469.901 12.854-4.805 15.85-2.057 2.995 2.75-2.187 7.842-1.72 15.151.368 5.76 2.569 11.235 2.83 17 2.68 17.407-7.797 36.32-27.51 40.938-14.993 3.514-20.877-2.155-31.45-1.883-8.844-.896-13.232 7.5-17 4.29zm-47-4.289c-10.573-.272-16.457 5.397-31.452 1.883-19.711-4.62-30.188-23.53-27.51-40.938.263-5.765 2.464-11.24 2.832-17 .467-7.31-4.715-12.402-1.72-15.15 2.996-2.75 7.38 2.957 15.85 2.056 7.087-.754 13.811-3.827 21-3.827 18.103 0 32.859 13.544 35.916 30.921 2.076 12.15-1.397 19.717-1.837 29.033.611 10.11 7.689 14.098 3.921 17.31-3.768 3.213-8.156-5.184-17-4.288z" opacity=".2"/>
  <path fill="#fff6d5" d="M130.71 184.626c11.059-3.576 18.22-12.952 20.585-23.413-1.492 9.88-3.287 15.945 1.032 24.842-6.494-3.46-14.352-3.058-21.617-1.428zm-22.205-62.076c-10.317 3.526-17.053 11.346-20.008 20.375.682-3.047 1.49-6.472 1.736-10.34.279-4.363-.9-7.764-1.744-10.188 2.613.98 6.457 2.275 11.414 1.748 3.077-.327 5.92-.946 8.602-1.595zm107.533 62.077c-11.06-3.577-18.22-12.953-20.585-23.414 1.492 9.88 3.287 15.945-1.032 24.842 6.494-3.46 14.352-3.058 21.617-1.428zm22.205-62.077c10.317 3.526 17.053 11.346 20.008 20.375-.682-3.047-1.49-6.472-1.736-10.34-.279-4.363.9-7.764 1.744-10.188-2.613.98-6.457 2.275-11.414 1.748-3.077-.327-5.92-.946-8.602-1.595z"/>
  <path fill="url(#l)" d="M212.504 236.836c-9.115-10.003-21.59-17.98-16.237-36.59 4.436-5.393 19.796-1.288 28.107-1.023 13.379.426 28.048-5.73 36.674-15.96 15.943-20.39 8.44-39.623 8.365-53.997-.382-9.823 5.548-16.214 1.11-20.168-4.436-3.954-10.096 1.524-17.643 2.08-9.384.893-18.575-1.709-27.252-1.889-24.043.766-38.423 17.395-41.752 33.848-1.292 6.383-.956 15.678-1.088 22.334-.204 5.928-2.173 14.12-9.414 13.696-7.241.425-9.21-7.768-9.414-13.696-.132-6.656.204-15.95-1.088-22.334-3.329-16.453-17.709-33.082-41.752-33.848-8.677.18-17.868 2.782-27.252 1.888-7.547-.555-13.207-6.033-17.644-2.079-4.437 3.954 1.493 10.345 1.11 20.168-.073 14.374-7.577 33.606 8.366 53.996 8.626 10.23 23.295 16.387 36.674 15.961 8.311-.265 23.671-4.37 28.107 1.023 5.353 18.61-7.122 26.587-16.236 36.59l5.164 4.58c7.622 7.83 6.178 10.702 3.287 14.323 7.55 4.605 25.329 18.231 30.678 18.31 5.35-.079 23.127-13.705 30.678-18.31-2.89-3.62-4.335-6.493 3.287-14.322zm-24.13-44.227c-3.768-3.213 3.31-7.2 3.921-17.31-.44-9.317-3.913-16.883-1.837-29.034 3.057-17.377 17.813-30.92 35.916-30.92 7.189 0 13.913 3.072 21 3.826 8.469.901 12.854-4.805 15.85-2.057 2.995 2.75-2.187 7.842-1.72 15.151.368 5.76 2.569 11.235 2.83 17 2.68 17.407-7.797 36.32-27.51 40.938-14.993 3.514-20.877-2.155-31.45-1.883-8.844-.896-13.232 7.5-17 4.29zm-47-4.289c-10.573-.272-16.457 5.397-31.452 1.883-19.711-4.62-30.188-23.53-27.51-40.938.263-5.765 2.464-11.24 2.832-17 .467-7.31-4.715-12.402-1.72-15.15 2.996-2.75 7.38 2.957 15.85 2.056 7.087-.754 13.811-3.827 21-3.827 18.103 0 32.859 13.544 35.916 30.921 2.076 12.15-1.397 19.717-1.837 29.033.611 10.11 7.689 14.098 3.921 17.31-3.768 3.213-8.156-5.184-17-4.288zm53.047-2.266c4.319-8.897 2.524-14.962 1.031-24.842 2.367 10.46 9.527 19.837 20.586 23.414-7.265-1.63-15.123-2.033-21.617 1.428zm52.424-61.91c4.956.527 8.801-.769 11.414-1.748-.845 2.424-2.023 5.825-1.744 10.187.247 3.87 1.054 7.294 1.736 10.34-2.955-9.028-9.691-16.848-20.008-20.374 2.682.65 5.525 1.268 8.602 1.595zm-94.518 61.91c-4.319-8.897-2.524-14.962-1.032-24.842-2.366 10.46-9.526 19.837-20.585 23.414 7.265-1.63 15.123-2.033 21.617 1.428zm-52.424-61.91c-4.957.527-8.801-.769-11.414-1.748.844 2.424 2.023 5.825 1.744 10.187-.247 3.87-1.054 7.294-1.736 10.34 2.955-9.028 9.69-16.848 20.008-20.374-2.682.65-5.525 1.268-8.602 1.595z" opacity=".8"/>
  <path fill="url(#m)" d="M231.374 186.092c-43.248 4.647-51.25-60.25-7-65.533 43.422-1.427 48.658 61.057 7 65.533z"/>
  <path fill="url(#n)" d="M115.8 186.092c43.248 4.647 50.346-60.4 7-65.533-44.083-2.122-48.658 61.057-7 65.533z"/>
  <path fill="url(#o)" d="M216.948 68.266l-1 6-4-5 5-1M213.13 82.55c2.356-.825 4.935-1.323 7.54-1.136l2.953 1.9c-7.13.768-18.537 6.333-22.89 9.91l.362-12.088c3.23 1.288 2.675 2.91 2.852 6.13l4.422-2.492c-.777-1.642-3.67-6.678-5.422-13.508l4.532-1.106c1.636 6.38 4.366 10.953 5.65 12.39zm48.817-3.284l4.952 3.6.459 4.225 3.737 2.962.384-3.213 4.462 4.381.212 4.763 4.1.756c2.24 3.282 3.84 5.712 5.12 9.526l-2.64.437c-11.744-17.928-24.88-22.35-37.238-24.053l1.836-2.875 4.51.96.213-7.64 5.628 3.073.266 6.16 4 1.938zm-13.413 10.31c-1.548-.914-9.331-2.835-11.554-1.494-1.554.937-3.415 4.826-2.915 7.241.452 2.188 6.58 11.737 12.515 9.792 1.667-.787 3.584-14.576 1.954-15.539zm-24.842 2.747c-2.83-.17-17.18 5.22-13.296 8.721 4.035 1.802 16.386 2.906 21.851 2.193 2.308-3.009-3.84-10.63-8.555-10.914zm13.657 2.197c-.374-1.018.332-3.686 1.496-3.865 1.403-.216 3.84.06 6.676.76 1.534.351.417 12.31-1.574 10.957-3.357-2.28-6.033-6.318-6.598-7.852zm16.876-3.04c-1.31 1.071-1.413 7.71-1.379 9.673.04 2.307 1.36 3.736 6.963 2.338 6.95-1.733 7.654-4.362 1.268-8.818-1.962-1.17-5.067-4.656-6.852-3.194zm-25.852 8.786l-13-1c8.198-5.085 7.958-5.097 13 1zm28.468-4.745c1.652.268 4.583 2.88 4.851 4.213-.424 1.078-4.15 1.731-5.638 1.32-.732-1.668-.399-5.783.787-5.533zM129.8 68.266l1 6 4-5-5-1m3.817 14.284c-2.356-.825-4.935-1.323-7.54-1.136l-2.953 1.9c7.13.768 18.537 6.333 22.889 9.91l-.361-12.088c-3.23 1.288-2.675 2.91-2.852 6.13l-4.422-2.492c.777-1.642 3.669-6.678 5.422-13.508l-4.532-1.106c-1.636 6.38-4.366 10.953-5.65 12.39zM84.8 79.266l-4.952 3.1-.46 4.725-3.736 2.962-.384-3.213-4.462 4.381-.212 4.763-4.1.756c-2.24 3.282-3.84 5.712-5.12 9.526l2.64.437c11.744-17.928 24.88-22.35 37.238-24.053l-1.836-2.875-4.51.96-.213-7.64-5.628 3.073-.266 6.16-4 1.938zm15.793 25.85c5.936 1.944 12.063-7.605 12.515-9.793.5-2.415-1.361-6.304-2.915-7.24-2.223-1.34-10.006.58-11.554 1.493-1.63.963.287 14.752 1.954 15.54zm14.333-1.879c5.465.713 17.816-.39 21.85-2.193 3.884-3.5-10.465-8.89-13.296-8.72-4.714.283-10.862 7.904-8.554 10.913zm-11.7-.865c-1.992 1.353-3.108-10.606-1.574-10.958 2.837-.7 5.273-.975 6.676-.76 1.164.18 1.87 2.848 1.496 3.866-.565 1.534-3.241 5.572-6.598 7.852zm-17.13-7.7c-6.386 4.457-5.683 7.086 1.268 8.82 5.603 1.397 6.922-.032 6.963-2.339.034-1.965-.07-8.602-1.38-9.674-1.784-1.462-4.89 2.023-6.851 3.194zm32.704 5.594c5.042-6.097 4.802-6.085 13-1l-13 1m-27.68.787c-1.49.412-5.215-.24-5.64-1.32.269-1.333 3.2-3.944 4.852-4.212 1.186-.25 1.519 3.865.787 5.532zm43.254-31.787l-5-1 1 6 4-5"/>
  <path d="M61.374 106.266l2.64.437c11.744-17.928 24.88-22.35 37.238-24.053l-1.836-2.875-4.51.96-.213-7.64 5.557-1.63c0 1.691.153 3.313.558 4.796 2.903 10.617 21.342 8.541 25.524-.01 1.14-2.333.834-5.35-.01-8.462l3.478.477 1 6 4-5 4.468.894c-1.636 6.38-4.366 10.953-5.65 12.39-2.357-.825-4.936-1.323-7.54-1.136l-2.954 1.9c7.13.768 18.537 6.333 22.889 9.91l-.361-12.088c-3.23 1.288-2.675 2.91-2.852 6.13l-4.422-2.492c.777-1.642 3.669-6.678 5.422-13.508l5.574 3c-1.356 7.843-1.435 18.24 2 28-17.964-17.79-45.036-23.175-71-8.45-6.94 3.935-10.867 9.65-13.954 15.093-1.492 2.632.613 2.973-7 .283m7.074-12.452l4.1-.756.212-4.763m4.462-4.38l.384 3.212 3.737-2.962.46-4.225zm9.532-7.575v5l3.999-1.94.266-6.158zm38 41.293c43.346 5.132 36.248 70.18-7 65.533-41.658-4.476-37.296-67.23 7-65.533m.995 23.45c-12.697-4.868-19.707 14.76-6.991 19.35 12.104 4.367 19.232-14.657 6.99-19.35m49.58 35.158c-7.241.425-9.21-7.768-9.414-13.696-.132-6.656.204-15.95-1.088-22.334-3.33-16.453-17.71-33.082-41.752-33.848-8.677.18-17.868 2.782-27.252 1.888-7.547-.555-13.207-6.033-17.644-2.079-4.437 3.954 1.493 10.345 1.11 20.168-.073 14.374-7.577 33.606 8.366 53.996 8.626 10.23 23.295 16.387 36.674 15.961 8.31-.265 23.67-4.37 28.107 1.023 5.353 18.61-7.122 26.587-16.236 36.59l3.237 2.785 1.927 1.796c7.622 7.83 6.178 10.701 3.287 14.322l-2.272-1.107c.413-.78.75-1.568.983-2.366 2.466-8.413-16.215-21.785-23.808-17.882-1.053.541-1.945 1.461-2.711 2.615l-3.564-2.757c1.647-1.249 2.822-2.622 2.933-4.08.558-7.353-18.07-21.25-24.868-17.249a13.86 13.86 0 00-1.496 1.023l-4.377-4.782 5.858-1.888c-2.121-7.157-12.127-23.089-21-22.343-1.025.086-2.065.4-3.102.87l-2.768-5.149c1.622-.409 2.948-1.035 3.69-1.98 4.81-6.139-4.67-27.659-12.82-26.613l-.06-3.504c4.604-.55 9.244 6.614 11.474 10.677 3.144 5.731 2.357 11.196 5.302 16.83 4.89 9.351 19.979 23.603 32.687 29.582 8.555 4.025 26.932 2.456 35.084 3.232 8.27 4.98-13.546 20.606-13.765 23.185l7.78 3.231c3.266-2.08 13.487-11.194 15.89-17.847 1.373-3.806 3.095-13.7.142-15.588-6.023-3.955-25.613 1.157-34.576-1.082-38.584-9.638-41.947-33.74-38.622-67.566 1.18-12-6.562-21.78 1.773-27.153 3.8-2.91 14.792 2.03 20.89 2.04 23.125-3.03 50.786-4.836 64.994 25.391 4.985 10.857 3.3 24.844 3.84 34.49.225 4 2.13 8.96 7.167 8.96m3.85 68.033c-1.144 0-2.071.908-2.071 2.01 0 1.102.927 1.981 2.07 1.981 1.144 0 2.07-.88 2.07-1.98 0-1.103-.926-2.01-2.07-2.01zm0-6.287c-1.144 0-2.071.908-2.071 2.01 0 1.102.927 1.995 2.07 1.995 1.144 0 2.07-.893 2.07-1.995s-.926-2.01-2.07-2.01zm0-6.404c-1.144 0-2.071.893-2.071 1.995s.927 1.981 2.07 1.981c1.144 0 2.07-.879 2.07-1.98 0-1.103-.926-1.996-2.07-1.996zm0-6.287c-1.144 0-2.071.893-2.071 1.995s.927 1.995 2.07 1.995c1.144 0 2.07-.893 2.07-1.995s-.926-1.995-2.07-1.995zm-18.85-33.374c3.768-3.213-3.31-7.2-3.921-17.31.44-9.317 3.913-16.883 1.837-29.034-3.057-17.377-17.813-30.92-35.916-30.92-7.19 0-13.913 3.072-21 3.826-8.47.901-12.854-4.805-15.85-2.057-2.995 2.75 2.187 7.842 1.72 15.151-.368 5.76-2.57 11.235-2.831 17-2.68 17.407 7.798 36.32 27.51 40.938 14.994 3.514 20.878-2.155 31.45-1.883 8.845-.896 13.233 7.5 17 4.29zm9.08 54.362c0 1.102.927 1.981 2.07 1.981 1.144 0 2.07-.88 2.07-1.98 0-1.103-.926-2.01-2.07-2.01-1.143 0-2.07.907-2.07 2.01zm0-6.287c0 1.102.927 1.995 2.07 1.995 1.144 0 2.07-.893 2.07-1.995s-.926-2.01-2.07-2.01c-1.143 0-2.07.908-2.07 2.01zm0-6.419c0 1.102.927 1.981 2.07 1.981 1.144 0 2.07-.879 2.07-1.98 0-1.103-.926-1.996-2.07-1.996-1.143 0-2.07.893-2.07 1.995zm0-6.287c0 1.102.927 1.995 2.07 1.995 1.144 0 2.07-.893 2.07-1.995s-.926-1.995-2.07-1.995c-1.143 0-2.07.893-2.07 1.995zm-36.744-43.352c11.059-3.577 18.22-12.953 20.585-23.414-1.492 9.88-3.287 15.945 1.032 24.842-6.494-3.46-14.352-3.058-21.617-1.428zm-22.206-62.077c-10.316 3.526-17.052 11.346-20.007 20.375.682-3.047 1.49-6.472 1.736-10.34.279-4.363-.9-7.764-1.744-10.188 2.613.98 6.457 2.275 11.414 1.748 3.077-.327 5.92-.946 8.602-1.595zm52.55-37.22c.43-2.272 8.102 2.27 8.32 3.936zm-.36 3.788c-1.686-3.019 9.194 2.162 8.68 4.148zm-.468 5.254c-1.718-4.13 10.106 1.68 10.148 3.894zm125.148 11.894l-2.64.437c-11.744-17.928-24.88-22.35-37.238-24.053l1.836-2.875 4.51.96.213-7.64-5.557-1.63c-.002 1.691-.153 3.313-.558 4.796-2.903 10.617-21.342 8.541-25.524-.01-1.14-2.333-.834-5.35.01-8.462l-3.478.477-1 6-4-5-4.468.894c1.636 6.38 4.366 10.953 5.65 12.39 2.357-.825 4.936-1.323 7.54-1.136l2.954 1.9c-7.13.768-18.537 6.333-22.889 9.91l.36-12.088c3.23 1.288 2.676 2.91 2.853 6.13l4.422-2.492c-.777-1.642-3.67-6.678-5.422-13.508l-5.574 3c1.356 7.843 1.435 18.24-2 28 17.964-17.79 45.036-23.175 71-8.45 6.94 3.935 10.867 9.65 13.954 15.093 1.492 2.632-.613 2.973 6.999.283m-7.073-12.452l-4.1-.756-.212-4.763m-4.462-4.38l-.384 3.212-3.737-2.962-.46-4.225zm-9.532-7.575v5l-3.999-1.94-.266-6.158zm-38 41.293c-43.346 5.132-36.248 70.18 7 65.533 41.658-4.476 37.296-67.23-7-65.533m-.995 23.45c12.697-4.868 19.707 14.76 6.991 19.35-12.104 4.367-19.232-14.657-6.99-19.35m-49.58 35.158c7.241.425 9.21-7.768 9.414-13.696.132-6.656-.204-15.95 1.088-22.334 3.329-16.453 17.709-33.082 41.752-33.848 8.677.18 17.868 2.782 27.252 1.888 7.547-.555 13.207-6.033 17.644-2.079 4.437 3.954-1.493 10.345-1.111 20.168.074 14.374 7.578 33.606-8.365 53.996-8.626 10.23-23.295 16.387-36.674 15.961-8.311-.265-23.671-4.37-28.107 1.023-5.353 18.61 7.122 26.587 16.236 36.59l-3.237 2.785-1.927 1.796c-7.622 7.83-6.178 10.701-3.287 14.322l2.272-1.107c-.413-.78-.75-1.568-.983-2.366-2.466-8.413 16.215-21.785 23.808-17.882 1.053.541 1.945 1.461 2.71 2.615l3.565-2.757c-1.647-1.249-2.822-2.622-2.933-4.08-.558-7.353 18.069-21.25 24.868-17.249a13.86 13.86 0 011.496 1.023l4.377-4.782-5.858-1.888c2.12-7.157 12.127-23.089 21-22.343 1.025.086 2.065.4 3.102.87l2.768-5.149c-1.622-.409-2.948-1.035-3.69-1.98-4.811-6.139 4.67-27.659 12.82-26.613l.06-3.504c-4.604-.55-9.244 6.614-11.474 10.677-3.144 5.731-2.357 11.196-5.302 16.83-4.89 9.351-19.98 23.603-32.687 29.582-8.555 4.025-26.932 2.456-35.084 3.232-8.27 4.98 13.546 20.606 13.765 23.185l-7.78 3.231c-3.266-2.08-13.487-11.194-15.89-17.847-1.373-3.806-3.095-13.7-.142-15.588 6.023-3.955 25.613 1.157 34.576-1.082 38.584-9.638 41.947-33.74 38.622-67.566-1.18-12 6.562-21.78-1.773-27.153-3.8-2.91-14.792 2.03-20.891 2.04-23.124-3.03-50.785-4.836-64.993 25.391-4.985 10.857-3.3 24.844-3.84 34.49-.225 4-2.13 8.96-7.167 8.96m-3.85-57.967c1.144 0 2.07.908 2.07 2.01 0 1.102-.926 1.981-2.07 1.981-1.143 0-2.07-.88-2.07-1.98 0-1.103.927-2.01 2.07-2.01zm0-6.287c1.144 0 2.07.908 2.07 2.01 0 1.102-.926 1.995-2.07 1.995-1.143 0-2.07-.893-2.07-1.995s.927-2.01 2.07-2.01zm0-6.404c1.144 0 2.07.893 2.07 1.995s-.926 1.981-2.07 1.981c-1.143 0-2.07-.879-2.07-1.98 0-1.103.927-1.996 2.07-1.996zm0 75.713c1.144 0 2.07.893 2.07 1.995s-.926 1.995-2.07 1.995c-1.143 0-2.07-.893-2.07-1.995s.927-1.995 2.07-1.995zm18.85 10.626c-3.768-3.213 3.31-7.2 3.92-17.31-.44-9.317-3.912-16.883-1.836-29.034 3.057-17.377 17.813-30.92 35.916-30.92 7.189 0 13.913 3.072 21 3.826 8.469.901 12.854-4.805 15.85-2.057 2.995 2.75-2.187 7.842-1.72 15.151.368 5.76 2.569 11.235 2.83 17 2.68 17.407-7.797 36.32-27.51 40.938-14.993 3.514-20.877-2.155-31.45-1.883-8.844-.896-13.232 7.5-17 4.29zm-9.08-71.638c0 1.102-.927 1.981-2.07 1.981-1.144 0-2.071-.88-2.071-1.98 0-1.103.927-2.01 2.07-2.01 1.144 0 2.07.907 2.07 2.01zm0-6.287c0 1.102-.927 1.995-2.07 1.995-1.144 0-2.071-.893-2.071-1.995s.927-2.01 2.07-2.01c1.144 0 2.07.908 2.07 2.01zm0-6.419c0 1.102-.927 1.981-2.07 1.981-1.144 0-2.071-.879-2.071-1.98 0-1.103.927-1.996 2.07-1.996 1.144 0 2.07.893 2.07 1.995zm0 75.713c0 1.102-1.112 1.995-2.07 1.995-.96 0-2.071-.893-2.071-1.995s.927-1.995 2.07-1.995c1.144 0 2.07.893 2.07 1.995zm36.744.648c-11.06-3.577-18.22-12.953-20.585-23.414 1.492 9.88 3.287 15.945-1.032 24.842 6.494-3.46 14.352-3.058 21.617-1.428zm22.206-62.077c10.316 3.526 17.052 11.346 20.007 20.375-.682-3.047-1.49-6.472-1.736-10.34-.28-4.363.9-7.764 1.744-10.188-2.613.98-6.457 2.275-11.414 1.748-3.077-.327-5.92-.946-8.602-1.595zm-52.55-37.22c-.431-2.272-8.102 2.27-8.32 3.936zm.36 3.788c1.686-3.019-9.194 2.162-8.68 4.148zm.468 5.254c1.718-4.13-10.106 1.68-10.148 3.894zm68.852 109.216l-.097 5.302c-12.123 5.34-21.077 9.082-24.56 20.222.064 3.114-1.801 2.07-3.187 2.232-9.73-7.08-18.017-15.487-18.21-19.756 16.427 0 29.357.215 46.054-8m-164 0l.097 5.302c12.123 5.34 21.077 9.082 24.56 20.222-.064 3.114 1.8 2.07 3.187 2.232 9.729-7.08 18.017-15.487 18.21-19.756-16.427 0-29.357.215-46.054-8"/>
  <path fill="#fd5" d="M255.374 203.588l-.097 5.302c-12.123 5.34-21.077 9.082-24.56 20.222.064 3.114-1.801 2.07-3.187 2.232-9.73-7.08-18.017-15.487-18.21-19.756 16.427 0 29.357.215 46.054-8m-164 0l.097 5.302c12.123 5.34 21.077 9.082 24.56 20.222-.064 3.114 1.8 2.07 3.187 2.232 9.729-7.08 18.017-15.487 18.21-19.756-16.427 0-29.357.215-46.054-8m37.722-49.836c0 5.151-4.018 9.327-8.976 9.327-4.957 0-8.975-4.176-8.975-9.327 0-5.152 4.018-9.328 8.975-9.328 4.958 0 8.976 4.176 8.976 9.328zm-9.118-4.322c-2.28 0-4.126 1.91-4.126 4.268 0 2.356 1.847 4.267 4.126 4.267 2.279 0 4.126-1.91 4.126-4.267s-1.847-4.268-4.126-4.268zm115.718 4.322c0 5.151-4.018 9.327-8.975 9.327s-8.976-4.176-8.976-9.327c0-5.152 4.019-9.328 8.976-9.328 4.957 0 8.975 4.176 8.975 9.328zm-9.118-4.322c-2.28 0-4.126 1.91-4.126 4.268 0 2.356 1.847 4.267 4.126 4.267 2.279 0 4.126-1.91 4.126-4.267s-1.847-4.268-4.126-4.268z"/>
  <path fill="#faa" d="M255.374 203.588l-.097 5.302c-12.123 5.34-21.077 9.082-24.56 20.222.064 3.114-1.801 2.07-3.187 2.232-9.73-7.08-18.017-15.487-18.21-19.756 16.427 0 29.357.215 46.054-8m-164 0l.097 5.302c12.123 5.34 21.077 9.082 24.56 20.222-.064 3.114 1.8 2.07 3.187 2.232 9.729-7.08 18.017-15.487 18.21-19.756-16.427 0-29.357.215-46.054-8m37.722-49.836c0 5.151-4.018 9.327-8.976 9.327-4.957 0-8.975-4.176-8.975-9.327 0-5.152 4.018-9.328 8.975-9.328 4.958 0 8.976 4.176 8.976 9.328zm-9.118-4.322c-2.28 0-4.126 1.91-4.126 4.268 0 2.356 1.847 4.267 4.126 4.267 2.279 0 4.126-1.91 4.126-4.267s-1.847-4.268-4.126-4.268zm115.718 4.322c0 5.151-4.018 9.327-8.975 9.327s-8.976-4.176-8.976-9.327c0-5.152 4.019-9.328 8.976-9.328 4.957 0 8.975 4.176 8.975 9.328zm-9.118-4.322c-2.28 0-4.126 1.91-4.126 4.268 0 2.356 1.847 4.267 4.126 4.267 2.279 0 4.126-1.91 4.126-4.267s-1.847-4.268-4.126-4.268z" opacity=".25" style="mix-blend-mode:normal"/>
  <path fill="#fff" d="M207.339 241.416c-21.798-21.388-19.6-18.604-19.953-34.198-.014-1.575-3.671-4.476-6.088-6.713-2.417-2.237-4.496-4.413-7.924-7.399-3.428 2.986-5.507 5.162-7.924 7.4-2.417 2.236-6.074 5.137-6.088 6.712-.353 15.594 1.845 12.81-19.953 34.2l-1.927-1.797c10.14-10.218 16.673-15.986 18.352-20.765 1.718-4.888-.328-12.757 2.329-15.352 2.626-2.566 13.199-13.122 15.211-13.085 2.012-.037 12.585 10.52 15.211 13.085 2.657 2.595.61 10.464 2.329 15.352 1.68 4.78 8.212 10.547 18.352 20.765zm-16.965-163.15c1.277 8.12-.743 20.455-6.148 31.106 2.17 1.028 16.727-3.89 13.32-1.17-11.926 8.493-19.603 19.546-21.044 34.018-.423 4.375.098 17.557.103 23.48.004 5.215-1.11 6.095-3.231 6.247-2.121-.152-3.235-1.032-3.23-6.247.004-5.923.525-19.105.102-23.48-1.441-14.472-9.118-25.525-21.043-34.019-3.408-2.72 11.149 2.2 13.32 1.171-5.406-10.65-7.426-22.987-6.149-31.106l-2.016-1.548c-1.948 11.636 2.917 26.593 5.335 30.442-1.527 0-13.63-2.71-15.467-1.338-.381 1.808 11.897 9.134 16.374 15.38 8.55 11.928 8.46 23.427 8.2 38.638-.065 3.816-1.223 13.79 4.574 13.79s4.64-9.974 4.574-13.79c-.26-15.21-.35-26.71 8.2-38.638 4.477-6.246 16.755-13.572 16.374-15.38-1.837-1.372-13.94 1.338-15.467 1.338 2.418-3.849 7.283-18.806 5.335-30.442zm41.834 146.953c-3.63-1.22-7.562-4.099-9.761-7.127l16.487.12zm-117.668 0c3.63-1.22 7.562-4.099 9.76-7.127l-16.486.12zm-14.166 76.047c2.144-16.962 4.962-33.549 9.709-50 1.33-4.609 2.843-14.48 7.516-16.882 7.593-3.903 26.274 9.47 23.808 17.882-1.508 5.146-7.278 9.937-10.609 14-8.683 10.593-18.533 28.167-30.424 35m-45-37c4.095-14.214 14.215-27.507 23.21-39 3.144-4.018 6.32-9.714 10.805-12.353 6.799-4.002 25.426 9.896 24.868 17.248-.337 4.43-10.473 8.061-13.883 9.85-14.805 7.765-29.29 18.537-45 24.255m34-57l-28 9.025-39 10.975c8.578-12.545 20.369-23.408 32-33.079 3.655-3.04 9.005-8.843 14-9.264 8.873-.746 18.879 15.186 21 22.343m-89-24c9.594-10.809 25.129-18.51 38-24.742 4.364-2.112 10.186-5.854 15-6.473 8.15-1.046 17.63 20.474 12.82 26.612-2.776 3.541-13.73 2.595-17.82 2.603-16.002.032-31.95 2-48 2m246 118c-11.891-6.833-21.741-24.407-30.424-35-3.338-4.072-9.084-8.849-10.61-14-2.515-8.488 15.274-20.834 22.926-18.306 5.175 1.71 6.777 11.743 8.107 16.306 4.89 16.781 7.813 33.685 10 51m45-37c-15.71-5.718-30.194-16.49-45-24.255-3.41-1.789-13.545-5.42-13.882-9.85-.558-7.352 18.069-21.25 24.868-17.248 4.485 2.64 7.661 8.335 10.805 12.353 8.995 11.493 19.115 24.786 23.21 39m33-37l-34-9.576-33-10.424c2.12-7.157 12.127-23.089 21-22.343 4.995.421 10.345 6.224 14 9.264 11.603 9.648 23.445 20.568 32 33.08m22-45c-13.3 5.58-35.69-.932-50-1.002-3.686-.018-13.34.563-15.82-2.602-4.687-5.979 4.345-26.429 11.821-26.689 8.936-.31 22.374 9.888 29.999 14.062 8.489 4.647 16.16 10.598 24 16.23m-242-182c4.406 19.045 12.453 37.227 17.859 56 1.546 5.37 6.759 14.544 4.099 19.985-4.182 8.551-22.621 10.627-25.524.01-1.53-5.594.566-13.154.566-18.995 0-16.204-3.33-42.056 3-57m139 0c.165 19.984 1.992 39.978 2 60 .002 6.234 3.215 15.828-2.228 20.486-6.682 5.717-24.225 2.034-23.388-8.486 1.187-14.896 9.896-31.837 14.616-46 2.791-8.376 4.281-18.5 9-26"/>
  <g stroke="#020202">
    <path fill="url(#p)" d="M187 108c4.406 19.045 12.453 37.227 17.859 56 1.546 5.369 6.759 14.544 4.099 19.985-4.182 8.551-22.621 10.627-25.524.01-1.529-5.594.566-13.154.566-18.995 0-16.204-3.329-42.056 3-57m139 0c.165 19.984 1.992 39.978 2 60 .002 6.234 3.215 15.828-2.228 20.486-6.682 5.717-24.225 2.034-23.388-8.486 1.187-14.896 9.896-31.837 14.616-46 2.791-8.376 4.281-18.501 9-26" transform="translate(-82.626 -107.734)"/>
    <path fill="url(#q)" d="M429 290c-13.3 5.581-35.689-.931-50-1.001-3.686-.018-13.339.563-15.82-2.602-4.687-5.979 4.345-26.429 11.821-26.689 8.936-.31 22.374 9.888 29.999 14.062 8.489 4.647 16.16 10.598 24 16.23" transform="translate(-82.626 -107.734)"/>
    <path fill="url(#r)" d="M407 335l-34-9.576L340 315c2.121-7.157 12.127-23.089 21-22.343 4.995.421 10.345 6.224 14 9.264 11.603 9.648 23.445 20.568 32 33.079" transform="translate(-82.626 -107.734)"/>
    <path fill="url(#s)" d="M374 372c-15.711-5.718-30.195-16.49-45-24.255-3.41-1.789-13.546-5.42-13.883-9.85-.558-7.352 18.069-21.25 24.868-17.248 4.485 2.639 7.661 8.335 10.805 12.353 8.995 11.493 19.115 24.786 23.21 39" transform="translate(-82.626 -107.734)"/>
    <path fill="url(#t)" d="M329 409c-11.891-6.833-21.741-24.407-30.424-35-3.338-4.072-9.084-8.849-10.61-14-2.515-8.488 15.274-20.834 22.926-18.306 5.175 1.709 6.777 11.743 8.107 16.306 4.891 16.781 7.813 33.685 10.001 51" transform="translate(-82.626 -107.734)"/>
    <path fill="url(#u)" d="M83 291c9.594-10.809 25.129-18.51 38-24.742 4.364-2.112 10.186-5.854 15-6.473 8.15-1.046 17.631 20.474 12.82 26.612-2.776 3.541-13.729 2.595-17.82 2.603-16.002.032-31.95 2-48 2" transform="translate(-82.626 -107.734)"/>
    <path fill="url(#v)" d="M172 315l-28 9.025L105 335c8.578-12.545 20.369-23.408 32-33.079 3.655-3.04 9.005-8.843 14-9.264 8.873-.746 18.879 15.186 21 22.343" transform="translate(-82.626 -107.734)"/>
    <path fill="url(#w)" d="M138 372c4.095-14.214 14.215-27.507 23.21-39 3.144-4.018 6.32-9.714 10.805-12.353 6.799-4.002 25.426 9.896 24.868 17.248-.337 4.43-10.473 8.061-13.883 9.85-14.805 7.765-29.289 18.537-45 24.255" transform="translate(-82.626 -107.734)"/>
    <path fill="url(#x)" d="M183 409c2.144-16.962 4.962-33.549 9.709-50 1.33-4.609 2.843-14.48 7.516-16.882 7.593-3.903 26.274 9.469 23.808 17.882-1.508 5.146-7.278 9.937-10.609 14-8.683 10.593-18.533 28.167-30.424 35" transform="translate(-82.626 -107.734)"/>
  </g>
</svg>
