<?xml version="1.0" encoding="UTF-8" standalone="no"?>
<svg
   xmlns:dc="http://purl.org/dc/elements/1.1/"
   xmlns:cc="http://creativecommons.org/ns#"
   xmlns:rdf="http://www.w3.org/1999/02/22-rdf-syntax-ns#"
   xmlns:svg="http://www.w3.org/2000/svg"
   xmlns="http://www.w3.org/2000/svg"
   xmlns:sodipodi="http://sodipodi.sourceforge.net/DTD/sodipodi-0.dtd"
   xmlns:inkscape="http://www.inkscape.org/namespaces/inkscape"
   inkscape:version="1.1-dev (ddb55ca, 2020-02-02)"
   sodipodi:docname="crest_of_the_beast.svg"
   id="svg835"
   viewBox="0 0 64 64"
   version="1.1">
  <metadata
     id="metadata841">
    <rdf:RDF>
      <cc:Work
         rdf:about="">
        <dc:format>image/svg+xml</dc:format>
        <dc:type
           rdf:resource="http://purl.org/dc/dcmitype/StillImage" />
      </cc:Work>
    </rdf:RDF>
  </metadata>
  <defs
     id="defs839" />
  <sodipodi:namedview
     inkscape:current-layer="svg835"
     inkscape:window-maximized="0"
     inkscape:window-y="47"
     inkscape:window-x="232"
     inkscape:cy="8.8988194"
     inkscape:cx="34.520162"
     inkscape:zoom="1.121284"
     showgrid="false"
     id="namedview837"
     inkscape:window-height="651"
     inkscape:window-width="900"
     inkscape:pageshadow="2"
     inkscape:pageopacity="0"
     guidetolerance="10"
     gridtolerance="10"
     objecttolerance="10"
     borderopacity="1"
     bordercolor="#666666"
     pagecolor="#ffffff" />
  <path
     inkscape:connector-curvature="0"
     id="path852"
     d="m 31.916156,57.431321 c -0.16,-0.397534 -0.532081,-2.260359 -0.826851,-4.139613 -0.294767,-1.879253 -0.665303,-3.815833 -0.823412,-4.30351 -0.163469,-0.504211 -1.294421,-1.943687 -2.621862,-3.337107 -1.283914,-1.347733 -2.33439,-2.567029 -2.33439,-2.709549 0,-0.142521 0.235866,-0.333992 0.524147,-0.425489 0.841109,-0.266956 3.017437,1.1034 4.868265,3.065374 0.924905,0.980448 1.745327,1.679593 1.823162,1.553653 0.07784,-0.125939 1.33173,-1.187277 2.786438,-2.358536 1.980667,-1.594732 2.841382,-2.129556 3.427182,-2.129556 0.729087,0 0.760909,0.0402 0.468131,0.591373 -0.17277,0.325256 -1.072911,1.419297 -2.000313,2.431202 -0.927403,1.011905 -1.960905,2.312927 -2.296671,2.891159 -0.594264,1.023391 -1.452532,5.134657 -1.452532,6.957899 0,0.880883 -0.698642,2.63549 -1.04939,2.63549 -0.110549,0 -0.331907,-0.325255 -0.491904,-0.72279 z m 18.362581,-6.483675 c 0,-0.06049 0.864633,-1.391081 1.921408,-2.956866 3.163551,-4.687323 4.375301,-8.157423 4.573564,-13.097353 0.208195,-5.187449 -0.781189,-8.137219 -3.592659,-10.711223 -1.761912,-1.613096 -4.236373,-2.822323 -6.264775,-3.061491 -0.825263,-0.0973 -1.631029,-0.257605 -1.790591,-0.356219 -0.159562,-0.09861 -0.534636,-0.86301 -0.833503,-1.698659 -1.646474,-4.603647 -1.125801,-5.174001 2.970802,-3.254267 4.937507,2.313793 8.260602,5.534194 10.362364,10.042136 1.344021,2.882709 1.661709,4.643992 1.533497,8.50177 -0.09967,2.998642 -0.220704,3.742557 -0.964233,5.926021 -1.368478,4.018697 -4.152897,8.373906 -6.389566,9.99414 -0.989431,0.716741 -1.526308,0.953118 -1.526308,0.672011 z M 12.909627,50.072009 C 7.7632454,45.973839 4.5264159,36.511912 5.9638951,29.768191 6.825988,25.72381 9.6440867,21.262656 12.96894,18.678946 c 1.834728,-1.425749 6.555432,-3.892214 7.449525,-3.892214 0.66486,0 1.211519,0.455664 1.211519,1.009853 0,0.830357 -1.111324,4.043961 -1.550274,4.482911 -0.256984,0.256983 -1.223824,0.616092 -2.148534,0.798017 -5.218317,1.026641 -8.3851081,4.227678 -9.6044276,9.708286 -0.5390952,2.423126 -0.3733152,5.87227 0.4161038,8.657301 0.5665759,1.998853 2.2704058,5.611061 3.7716158,7.996023 1.959745,3.11343 2.081193,3.355676 1.682364,3.355676 -0.208749,0 -0.787992,-0.325256 -1.287205,-0.72279 z m 18.524342,-6.965064 c -1.318085,-1.448534 -5.278894,-7.030969 -5.437813,-7.664151 -0.09669,-0.385263 -0.04134,-1.198714 0.123009,-1.807671 0.410308,-1.520284 0.353859,-4.03707 -0.120343,-5.365733 -0.216821,-0.607501 -0.830388,-1.786392 -1.363482,-2.619753 -0.533095,-0.83336 -1.249208,-2.258948 -1.591364,-3.167971 -1.465609,-3.893762 -0.880711,-8.444321 1.049971,-8.168878 0.527858,0.07531 0.559503,0.231626 0.574781,2.839438 0.01879,3.208272 0.441536,4.630808 2.336888,7.863765 0.664666,1.133739 1.389203,2.825624 1.632825,3.812844 0.380978,1.543837 0.39479,2.040534 0.106159,3.817856 -0.405323,2.495872 -0.09273,3.318386 1.649125,4.339175 1.563903,0.916507 2.706647,0.866609 4.280115,-0.186904 1.683632,-1.12727 2.047088,-1.895038 1.647784,-3.480812 -0.167844,-0.66657 -0.245202,-2.040911 -0.17226,-3.060376 0.118003,-1.649246 0.343241,-2.268642 2.07136,-5.696214 l 1.938958,-3.845753 0.03411,-2.985505 c 0.01876,-1.642028 0.147342,-3.09874 0.285742,-3.237136 0.494098,-0.4941 1.58263,0.211425 1.94847,1.262888 0.877485,2.521974 0.09651,6.346559 -2.001055,9.799516 -1.995094,3.284278 -2.323601,4.767902 -1.67647,7.571416 0.49019,2.123629 0.176135,2.926358 -2.575132,6.58202 -1.379319,1.832726 -2.695992,3.480075 -2.925942,3.660771 -0.619454,0.486775 -1.211305,0.401089 -1.815436,-0.262832 z m 0.87151,-19.411993 c -0.06216,-0.201388 -0.247286,-1.404575 -0.411396,-2.673747 -0.618679,-4.784668 -1.813939,-7.09617 -4.218949,-8.158994 -0.650511,-0.287474 -1.316269,-0.704729 -1.479463,-0.927237 -0.249561,-0.34026 -0.08305,-0.47689 1.047705,-0.859689 1.942435,-0.657579 3.138529,-2.0458158 3.850965,-4.4695919 0.31331,-1.0659084 0.737101,-2.1116724 0.941762,-2.3239209 0.326383,-0.3384888 0.432824,-0.3223414 0.866282,0.1314162 0.271801,0.2845267 0.755384,1.3196221 1.074636,2.3002105 0.721956,2.2175172 1.454878,3.1030963 3.446891,4.1648281 1.472226,0.784688 1.538425,0.860671 1.136644,1.304632 -0.234644,0.25928 -0.781228,0.549302 -1.214631,0.644493 -1.145759,0.251651 -2.691697,1.934419 -3.320088,3.613943 -0.29881,0.798641 -0.738707,2.793321 -0.977551,4.432619 -0.446697,3.065908 -0.548221,3.451479 -0.742807,2.821038 z"
     style="fill:#ff8080;stroke:#ffb380;stroke-width:0.262832;fill-opacity:1" />
</svg>
