<?xml version="1.0" encoding="UTF-8" standalone="no"?>
<!-- Created with Inkscape (http://www.inkscape.org/) -->

<svg
   xmlns:dc="http://purl.org/dc/elements/1.1/"
   xmlns:cc="http://creativecommons.org/ns#"
   xmlns:rdf="http://www.w3.org/1999/02/22-rdf-syntax-ns#"
   xmlns:svg="http://www.w3.org/2000/svg"
   xmlns="http://www.w3.org/2000/svg"
   xmlns:sodipodi="http://sodipodi.sourceforge.net/DTD/sodipodi-0.dtd"
   xmlns:inkscape="http://www.inkscape.org/namespaces/inkscape"
   version="1.1"
   viewBox="0 0 256 256"
   id="svg16"
   sodipodi:docname="plate.svg"
   inkscape:version="0.92.3 (2405546, 2018-03-11)">
  <defs
     id="defs20" />
  <sodipodi:namedview
     pagecolor="#ffffff"
     bordercolor="#666666"
     borderopacity="1"
     objecttolerance="10"
     gridtolerance="10"
     guidetolerance="10"
     inkscape:pageopacity="0"
     inkscape:pageshadow="2"
     inkscape:window-width="1920"
     inkscape:window-height="1017"
     id="namedview18"
     showgrid="false"
     inkscape:zoom="1.84375"
     inkscape:cx="-127.69342"
     inkscape:cy="109.52111"
     inkscape:window-x="1912"
     inkscape:window-y="-8"
     inkscape:window-maximized="1"
     inkscape:current-layer="g14"
     inkscape:snap-global="false" />
  <style
     id="style2">svg { cursor: default;}</style>
  <metadata
     id="metadata4">
    <rdf:RDF>
      <cc:Work
         rdf:about="">
        <dc:format>image/svg+xml</dc:format>
        <dc:type
           rdf:resource="http://purl.org/dc/dcmitype/StillImage" />
        <dc:title />
      </cc:Work>
    </rdf:RDF>
  </metadata>
  <g
     transform="translate(5.9661017,-800.15661)"
     id="g14">
    <path
       d="m 178.80203,811.32949 c 7.1902,1.1059 12.295,4.0423 21.293,12.249 4.6203,4.2136 6.3533,6.1978 8.0394,9.2041 l 2.1502,3.8323 0.2976,12.055 c 0.5912,23.925 0.5684,157.15001 -0.028,161.51001 -0.8386,6.135 -2.8601,9.4923 -8.8479,14.697 -6.20308,5.4814 -12.27845,9.8422 -19.2829,13.5908 h -57.95 c -31.871996,0 -59.576996,-0.088 -61.571996,-0.197 -5.464,-0.2972 -9.5662,-2.415 -20.895,-10.786 -9.0485,-6.6853 -10.897,-9.0716 -11.915,-15.376 -0.67033,-4.1502 -1.5791,-28.64701 -2.0088,-54.16601 -0.16381,-9.7216 -0.419,-22.647 -0.56778,-28.723 -0.7461,-30.581 -0.92887,-86.772 -0.29198,-89.816 1.1395,-5.4486 3.8202,-9.3078 11.106,-15.991 6.5154,-5.9763 10.804,-9.2015 13.975,-10.512 l 3.0752,-1.2711 h 40.398 c 22.218996,0 49.423996,-0.1537 60.456996,-0.3416 11.033,-0.1878 21.188,-0.168 22.567,0.044 z"
       id="path6"
       inkscape:connector-curvature="0"
       style="fill:#ff2a2a;stroke-width:0.52305001;stroke:#000000;stroke-opacity:1"
       sodipodi:nodetypes="ccccccccscccccccccsccc" />
    <path
       style="fill:#ff8080;stroke:#000000;stroke-width:0.52305001;stroke-opacity:1"
       d="m 169.84119,812.45273 c 14.25065,-1.65396 27.20971,7.84065 35.04729,18.83809 4.75132,6.14975 5.1447,15.2436 4.72695,24.23539 0.0813,52.7264 0.66156,105.48229 -0.52506,158.18939 -1.85346,8.8673 -11.3171,12.9382 -16.21874,18.4687 -7.45175,6.4456 -16.49149,8.1702 -25.63293,5.7613 -10.22,1.8745 -21.49808,0.5462 -32.08515,0.62 -6.96646,0 -14.77317,0.077 -24.78678,0.6674 -10.046,0.4018 -20.233118,-0.7621 -30.36539,-0.1899 -11.824687,0.5755 -24.803035,0.4992 -34.311743,-7.6762 -4.039675,-3.5402 -12.938317,-7.5282 -10.82109,-11.575 -8.967301,-4.4633 -4.662887,-18.8309 -6.245374,-27.58017 -1.552828,-50.27666 -2.080259,-100.58684 -1.440441,-150.88407 1.855487,-11.32623 12.359151,-18.25803 20.74167,-24.83207 12.14396,-7.22382 26.5783,-2.72767 39.845176,-3.46743 27.360552,0.53777 54.718772,-0.58307 82.071612,-0.57543 z m 10.587,2.1335 c 1.55341,1.94961 2.42902,-1.24521 0,0 z m -3.6681,3.735 c -0.0295,2.87321 4.31701,-1.62414 0,0 z m -93.008998,0 c 6.246989,1.09268 7.991276,-0.42863 0,0 z m -27.573,0.4255 c 3.963088,3.35964 7.533745,-3.26562 0,0 z m 24.509,0.065 c 1.697331,2.45958 3.645309,-3.47797 0,0 z m -3.1466,-0.1538 c 3.675679,1.5803 2.821155,-1.37134 0,0 z m 54.819998,0.4993 c 3.57829,0.20939 6.25185,-0.63979 0,0 z m -2.6389,-0.1285 c 1.06332,2.10701 1.63023,-1.19235 0,0 z m -3.7673,0.1202 c 4.88462,0.68858 1.31694,-0.84522 0,0 z m -4.997,-0.041 c 2.17695,1.03745 0.76401,-1.10786 0,0 z m -1.8226,0.1944 c 0.91972,1.65404 1.11358,-1.92512 0,0 z m -18.945,0 c 1.38798,2.13163 1.36802,-2.08049 0,0 z m 45.691,0.2165 c 0.91372,1.72601 2.57238,-1.3176 0,0 z m -40.826,0.105 c 4.21442,0.70147 1.12185,-0.86928 0,0 z m -51.352998,1.103 c 3.102429,-0.98638 1.321078,-2.06254 0,0 z m 127.839988,-0.7411 c 1.55381,1.94968 2.42864,-1.24573 0,0 z m 2.786,1.4494 c 2.19041,2.37512 3.09103,1.8145 0,0 z m -132.889988,0.8125 c -2.653177,3.53645 4.282448,-3.93069 0,0 z m -2.3782,2.455 c -1.945695,3.43864 3.883858,-3.75682 0,0 z m -4.6577,4.7871 c -1.458835,2.21938 3.25374,-3.06046 0,0 z m -2.8646,2.5777 c -2.34936,3.63476 4.572911,-3.9768 0,0 z m 159.649988,5.7908 c 4.60743,4.37816 -0.49784,-2.96509 0,0 z m -168.969988,5.613 c 1.234958,2.38403 0.665341,-4.33407 0,0 z m -0.47866,5.5352 c 0.792541,2.14365 1.091955,-6.30231 0,0 z m 172.099988,1.4726 c 0.78093,2.35522 0.98954,-2.59259 0,0 z m 0.1883,10.188 c 1.25776,-0.1132 -1.2342,-3.34675 0,0 z m -171.379988,6.3494 c 1.331007,-1.33852 -1.717576,-2.09978 0,0 z m 170.629988,7.0301 c 0.78109,2.35467 0.9886,-2.593 0,0 z m 0.1465,2.2826 c 0.78794,2.57014 0.73595,-3.33462 0,0 z m -170.719988,5.9516 c 1.843815,0.65434 -1.834839,-2.10085 0,0 z m -0.48811,3.306 c 1.211824,2.1286 0.955606,-1.9477 0,0 z m 0,6.8739 c 0.919608,1.65406 1.113662,-1.92504 0,0 z m 0,1.6659 c 2.33634,2.43007 1.463556,-1.11758 0,0 z m 0.15099,3.5406 c 2.177155,1.03677 0.764494,-1.1078 0,0 z m -0.15099,12.96 c 1.211804,2.12859 0.955633,-1.94767 0,0 z m 0.70374,1.8821 c 1.955373,3.91185 0.209881,-3.41594 0,0 z m -0.29866,3.0901 c -1.228198,5.88917 2.981999,0.52487 0,0 z m 12.057,1.0248 c 3.313721,2.83167 3.602159,-1.05999 0,0 z m -2.7353,0.78991 c 4.052442,3.48281 -0.123146,-4.51563 0,0 z m 7.5468,-0.89519 c 1.210912,2.12875 0.956278,-1.94825 0,0 z m 19.228,0.97644 c 0.776229,1.23544 1.969522,-2.19344 0,0 z m 133.299988,1.4242 c -0.34764,5.81449 1.89001,-2.71245 0,0 z m -169.249988,2.4691 c -0.608214,9.65822 3.172505,-7.34282 -0.24297,-0.13941 z m 169.549988,2.2497 c 1.16091,6.36954 0.52025,-6.5304 0,0 z m -169.789988,2.63903 c 2.036355,2.07109 3.002726,-1.86381 0,0 z m 169.069988,0.4706 c 1.16923,3.59254 2.48742,-2.31999 0,0 z m -169.389988,2.3846 c 2.06018,3.24417 0.853524,-4.48519 0,0 z m 0.72325,2.6233 c 2.151527,1.75502 4.880151,-4.34471 0,0 z m 169.399988,3.2886 c 1.24626,0.0953 -1.17826,-4.20005 0,0 z m -169.709988,-1.0473 c -0.769441,3.56812 2.650681,-0.28881 0,0 z m 142.529998,2.5789 c 2.10639,0.22236 1.10201,-2.75706 0,0 z m -101.039998,0.332 c 1.512613,-0.27307 0.484458,-2.62251 0,0 z m -41.729,0.1092 c 0.146032,7.30497 2.915963,4.45853 0.937281,-0.47136 -0.438782,-0.87457 -1.193805,-0.039 -0.937281,0.47136 z m 13.312,0.8722 c 1.512535,-0.27302 0.484544,-2.62273 0,0 z m 156.189988,0.2326 c 2.38074,2.22687 0.27656,-1.84605 0,0 z m -81.26899,0.2666 c 1.7469,2.03474 -0.56866,-2.49951 0,0 z m 80.68399,1.7299 c 0.31817,3.41362 2.63568,-2.47703 0,0 z m 0.1354,2.2574 c -5.24894,6.02174 2.52882,-1.37899 0,0 z m -121.569988,0.097 c 4.4459,2.61281 1.19631,-1.13579 0,0 z m 12.521,2.0316 c 3.624246,3.73878 -1.68822,-3.35816 0,0 z m -59.861,-0.5466 c 2.100558,5.48471 4.160545,-2.28576 0,0 z m 1.6326,0.5466 c -0.311379,1.87553 -1.505235,-1.9079 0,0 z m 167.289988,0.1451 c 1.74547,3.31239 1.65759,-1.75595 0,0 z m -129.179988,1.4588 c 1.842775,0.65298 -1.836364,-2.10047 0,0 z m -39.188,0.9709 c 1.524191,6.06597 2.27569,-4.31016 0,0 z m 167.969988,-0.075 c -1.51196,5.06351 1.37387,8.3882 1.74798,1.63837 0.44085,-0.29124 -1.90807,-3.77034 -1.74798,-1.63837 z m -167.889988,3.5149 c 2.113754,5.05532 -0.401023,-5.08887 0,0 z m 143.709998,-0.3428 c -0.20184,2.28428 1.98813,-3.08099 0,0 z m 11.35699,1.3874 c 3.00414,4.03341 1.76224,-0.0388 0,0 z m -155.029988,1.9033 c 1.714306,2.4588 0.959485,-3.47006 0,0 z m 46.559,0.5903 c 1.128805,2.17156 0.498906,-2.74299 0,0 z m 96.474998,3.1182 c 1.78333,0.16194 1.36675,-1.91338 0,0 z m -143.109998,-0.5014 c 1.319361,1.70016 1.883668,-1.58228 0,0 z m 168.479988,1.1066 c 1.60687,2.41429 0.48241,-2.94026 0,0 z m -149.889988,-0.5104 c 1.210931,2.12878 0.955989,-1.94886 0,0 z m 66.307998,1.473 c 0.91975,1.65408 1.11287,-1.92445 0,0 z m -71.322998,-0.3217 c 2.190283,2.37538 3.091263,1.81462 0,0 z m 130.109998,0.8126 c 2.9334,2.34636 -0.38234,-1.85475 0,0 z m -126.709998,0.9002 c -0.364519,2.92114 3.052225,-3.36776 0,0 z m -16.766,0.8472 c 1.161088,3.50807 0.358382,-3.85032 0,0 z m 173.439988,0.064 c 0.80775,3.99598 2.49535,-2.91945 0,0 z m -137.519988,1.0407 c 1.783259,0.16193 1.366889,-1.91308 0,0 z m 136.259988,0.7085 c 1.02493,3.2419 0.26372,-4.75165 0,0 z m -40.12699,-0.9192 c 1.99969,3.52079 1.80171,-0.89186 0,0 z m -90.267998,1.0948 c 1.103208,1.53431 2.215408,-1.04717 0,0 z m -42.401,1.3049 c -0.6497,7.71014 3.754206,3.50466 1.417399,-1.49221 l -0.557177,0.32746 z m 59.398,0.8461 c 0.77644,1.23543 1.968411,-2.19303 0,0 z m 110.039988,0.4966 c 1.38726,2.13165 1.36883,-2.07991 0,0 z m 0,1.473 c 0.91986,1.65418 1.11326,-1.92476 0,0 z m -1.0102,1.93321 c 1.12666,2.14522 2.04146,-3.5806 0,0 z m -167.179988,4.0124 c -0.210342,8.16081 2.690125,-2.35545 0,0 z m 168.029988,0.2722 c -2.55177,1.52714 2.75901,-0.16625 0,0 z m -4.2911,0.3344 c 2.18997,2.37523 3.09175,1.81464 0,0 z m -25.34899,0.316 c 0.685,1.30496 2.06561,-2.28901 0,0 z m -19.228,0.273 c 2.89817,1.02946 1.69965,-1.66708 0,0 z m -75.540998,0.6179 c 2.884342,4.61044 0.263364,-3.345 0,0 z m 124.849988,0.097 c 0.31011,1.87576 1.50613,-1.9076 0,0 z m -0.1711,2.2224 c 1.51072,-0.2726 0.48606,-2.62382 0,0 z m -86.73499,0.6559 c 4.44639,2.61123 1.20218,-1.13128 0,0 z m -81.859998,4.9502 c 1.583974,10.9059 0.618448,-9.95712 0,0 z m 165.929988,-3.2834 c 5.6508,0.3837 0.88116,20.07595 2.96255,5.95732 0.32323,-2.28206 1.44424,-8.52908 -2.96255,-5.95732 z m -0.7857,1.1544 c 1.10438,1.53472 2.21544,-1.04748 0,0 z m -162.699988,-0.075 c 1.69872,1.66811 2.899409,-1.03004 0,0 z m 117.009998,1.0258 c 1.73169,2.52025 1.9424,-0.93124 0,0 z m -37.054,1.6967 c 2.93279,2.34624 -0.38137,-1.85439 0,0 z m -8.9298,0.3961 c 1.78303,0.1619 1.36702,-1.91325 0,0 z m -69.912998,2.3572 c 1.10379,1.53467 2.215902,-1.04784 0,0 z m 123.959998,2.0618 c 1.78289,0.16287 1.36714,-1.91371 0,0 z m -35.657,0.084 c 0.796,4.31993 0.47024,-3.26481 0,0 z m 81.92099,0.014 c 2.93281,2.34621 -0.38145,-1.85449 0,0 z m -15.95,0.6219 c 1.84353,0.65271 -1.8365,-2.10017 0,0 z m -154.839988,0.2782 c 1.209833,1.81246 2.141543,-1.69773 0,0 z m 8.6847,1.5478 c 1.853279,-0.10366 -1.04734,-2.09023 0,0 z m -14.018,-0.4022 c 0.399051,2.71829 1.630218,-3.17765 0,0 z m 72.564998,0.676 c 1.74701,2.0346 -0.56882,-2.49963 0,0 z m -70.012998,-0.2362 c 2.004198,2.75324 2.612221,-1.03442 0,0 z m 29.311,0.8697 c 0.767516,1.70402 1.391245,-1.51113 0,0 z m -1.6454,0.834 c 1.604546,2.17174 -0.307152,-2.95662 0,0 z m -3.3533,-0.8575 c 1.319577,1.7006 1.883831,-1.58249 0,0 z m 143.769988,1.8448 c 1.74686,2.03477 -0.56872,-2.49929 0,0 z m -148.469988,0.4829 c 1.512419,-0.27289 0.484754,-2.62298 0,0 z m -19.654,0.8461 c 0.670475,6.53837 0.695738,-6.6416 0,0 z m 115.719998,-0.1299 c 1.85425,-0.10248 -1.0466,-2.09147 0,0 z m -108.719998,0.9791 c 0.796178,4.31992 0.470042,-3.26507 0,0 z m 11.746,0.058 c -1.951884,5.92527 2.420553,1.91891 -1e-4,0 z m -5.6356,0.8912 c 3.206785,2.79591 -0.715055,-3.45814 0,0 z m 154.839988,-0.2242 c 1.12886,2.17248 0.5005,-2.74305 0,0 z m -136.919988,-0.3058 c 0.767782,1.7036 1.391189,-1.5103 0,0 z m 16.38,1.5548 c -1.182074,3.50107 2.613885,-3.81208 0,0 z m -32.318,-0.3858 c 2.142804,1.77336 2.355081,-1.88552 0,0 z m -14.856,1.4906 c 1.2303,-0.23627 -1.182116,-3.15261 0,0 z m 63.120997,-0.3428 c 0.240308,1.85607 1.332335,-2.73449 0,0 z m -19.563997,-0.2766 c 0.777197,1.23505 1.968932,-2.19297 0,0 z m -31.243,0.1188 c 1.518196,0.97417 2.423565,-1.85218 0,0 z m 155.219988,2.37127 c 1.41076,2.9551 0.54561,-3.55166 0,0 z m -76.09799,-0.57566 c 1.9258,3.04856 0.34996,-3.0413 0,0 z m 28.667,0.67766 c 1.84428,0.6537 -1.83642,-2.10054 0,0 z m -120.119998,0.719 c 1.246354,0.095 -1.178676,-4.20031 0,0 z m 82.850998,-1.0426 c 1.10378,1.5343 2.21627,-1.04694 0,0 z m -1.6716,1.473 c 1.10409,1.5348 2.21582,-1.048 0,0 z m 86.64599,0.6837 c 0.83204,2.028 1.58537,-1.7797 0,0 z m -167.699988,1.8412 c 0.392222,7.8536 2.813135,-6.32186 0,0 z m 1.9285,-0.6739 c -1.999779,3.5195 -1.80233,-0.8913 0,0 z m 6.6865,-0.4597 c 1.063369,2.1067 1.630165,-1.1923 0,0 z m 159.029988,2.0013 c 0.0226,4.9833 2.0069,1.17 0.47863,-1.1543 z m -155.559988,-0.7041 c -0.848741,3.1048 2.719784,-3.3574 0,0 z m 106.589998,0.8675 c 2.10642,0.2224 1.10199,-2.7569 0,0 z m -96.357998,-0.9902 c 0.767962,1.7037 1.391024,-1.5106 0,0 z m -25.06,0.9619 1.161495,0.4095 z m 116.379998,1.0838 c 2.93196,2.3471 -0.38008,-1.8546 0,0 z m -101.689998,-0.1926 c 1.10407,1.5345 2.215859,-1.0479 0,0 z m -1.8928,0.1105 c 0.767801,1.7036 1.391206,-1.5103 0,0 z m -7.8009,0 c 0.767782,1.7036 1.391189,-1.5103 0,0 z m 43.126,0.2748 c 2.33601,2.4299 1.463579,-1.1174 0,0 z m 89.710998,1.0874 c 1.10354,1.5345 2.21656,-1.0483 0,0 z m -62.302,0.9421 c 1.5124,-0.2727 0.48477,-2.6234 0,0 z m -65.856998,-1.017 c 1.699219,1.6681 2.899718,-1.0298 0,0 z m -2.2288,0.5055 c 1.565398,2.7975 1.935169,-1.655 0,0 z m 50.334,0.4769 c 1.128542,2.1734 0.500921,-2.7438 0,0 z m -38.846,0.538 c 0.240166,1.8562 1.332453,-2.7345 0,0 z m -17.004,-0.086 c -0.567575,3.5401 3.639998,-2.5444 0,0 z m 18.668,0.2236 c 0.767792,1.7036 1.391198,-1.5103 0,0 z m -5.9081,-0.1105 c 1.104763,1.5348 2.214881,-1.0476 0,0 z m -1.8928,0.1105 c 0.767801,1.7036 1.391206,-1.5103 0,0 z m -2.5648,-0.1105 c 1.104597,1.5347 2.215334,-1.0476 0,0 z m 22.396,2.9061 c 1.512468,-0.273 0.484661,-2.6227 0,0 z m -29.469,0.5913 c 1.246302,0.095 -1.178583,-4.2007 0,0 z m 171.729988,-0.3588 c 2.93181,2.3471 -0.38033,-1.8549 0,0 z m -4.6566,1.2708 c -1.38385,5.623 3.04765,-3.8487 0,0 z m -148.809988,-1.0756 c -4.709608,5.4884 5.824802,-2.5742 0,0 z m 46.535997,0.8673 c 4.753451,1.256 0.993011,-1.6565 0,0 z m 30.594001,0.4048 c 0.77679,1.2352 1.96889,-2.1933 0,0 z m -88.879998,0 c 0.919264,1.6543 1.11368,-1.9246 0,0 z m -3.6614,0.5729 c 0.399512,2.718 1.629472,-3.1777 0,0 z m 15.92,0.5218 c 2.776138,0.9285 2.123096,-2.2838 0,0 z m -18.388,0.5888 c 1.505813,7.0642 6.015044,1.2934 2.176843,1.5838 -0.718179,1.241 -1.44677,-4.7437 -2.176843,-1.5838 z m 11.144,-0.4733 c 3.169683,2.3969 1.615104,-0.1675 0,0 z m 3.6932,0.6518 1.166145,0.4102 z m 151.409988,0.8385 c -4.61532,2.7488 -6.92401,8.0188 -0.7518,1.5567 -0.1642,0.04 4.05351,-2.6059 0.7518,-1.5567 z m -5.109,0.9949 c 1.51285,-0.2728 0.48446,-2.623 0,0 z m -106.269988,0.1382 c 1.782215,0.1627 1.369034,-1.9141 0,0 z m -39.826,-0.6589 c 2.231912,2.5154 4.439844,-0.7747 0,0 z m -17.831,1.4376 c 2.336329,2.4303 1.463617,-1.1175 0,0 z m 7.8009,2.1579 c 3.876099,4.6204 3.616566,-2.7019 0,0 z m 11.144,-0.088 c 1.103555,1.5346 2.216607,-1.048 0,0 z m 66.034998,1.66 c 0.77695,1.2351 1.9692,-2.1931 0,0 z m 74.34799,1.1523 c -5.96511,6.7004 6.19668,-2.0033 0,0 z m -121.249988,0 c 1.686898,3.2181 0.632123,-2.6246 0,0 z m 59.999998,0.5307 c 2.54077,1.2489 0.20895,-1.8557 0,0 z m 17.266,0.095 c 1.10383,1.5347 2.21637,-1.0479 0,0 z m -3.618,0.1871 c 0.77717,1.2347 1.96897,-2.1928 0,0 z m -51.364998,0.8264 c 2.361342,6.0996 0.412517,-3.8789 0,0 z m 12.655998,-0.062 c 3.54882,3.5034 2.79203,-0.5906 0,0 z m 24.775,0.2233 c 2.93216,2.3468 -0.3804,-1.8546 0,0 z m -64.914998,-0.1928 c 1.104429,1.5348 2.215486,-1.0475 0,0 z m -18.908,0.7982 c 3.567955,4.9709 2.619438,-1.4475 0,0 z m 98.218998,0.2096 c 1.72872,1.3425 3.21836,-2.7001 0,0 z m 16.809,0.6578 c 0.15743,2.0398 2.38889,-2.452 0,0 z m -31.204,0 c 2.9321,2.3471 -0.38027,-1.8547 0,0 z m -86.712998,0.6219 c 1.843885,0.6545 -1.834467,-2.1005 0,0 z m 7.8672,0.4829 c -1.828629,4.3639 6.585219,3.339 0.76242,0.909 4.208112,1.2378 -0.227091,-2.9096 -0.76242,-0.909 z m 136.229988,0.2735 c 1.78249,0.1628 1.36913,-1.9141 0,0 z m -94.708988,0.09 c 0.686222,1.3047 2.064629,-2.2882 0,0 z m -48.087,0.2052 c 2.567924,3.3478 2.617542,-2.3418 0,0 z m 34.989,0.1 c 1.103684,1.5344 2.216519,-1.0482 0,0 z m -22.481,0.4593 c 1.747291,2.0341 -0.568073,-2.4994 0,0 z m 125.009988,0.7153 c 0.9195,1.6543 1.11376,-1.9252 0,0 z m -96.396988,-0.1926 c 1.104279,1.5344 2.215634,-1.0474 0,0 z m 64.635998,1.6656 c 3.59217,3.7248 -1.67973,-3.4251 0,0 z m -69.093998,-0.4911 c 0.918923,1.6546 1.114345,-1.925 0,0 z m 2.3681,3.2029 c 0.769229,3.6933 0.796484,-5.2227 0,0 z m 31.893998,0.6058 c 1.98273,1.1051 -2.25265,-4.4431 0,0 z m -46.033998,-1.0139 c -2.202481,4.9983 4.233004,-1.1185 0,0 z m -13.726,-0.014 c 6.300986,3.6794 -1.597488,-3.015 0,0 z m 125.799988,0.1629 c -7.98656,1.7075 2.61968,2.5295 0,0 z m -42.34799,-0.1926 c 1.10446,1.5344 2.21516,-1.0474 0,0 z m -66.168998,0.8391 c 0.875,3.1999 4.212507,-3.5613 0,0 z m 1.5301,-0.1555 c -1.212304,2.1282 -0.955077,-1.9478 0,0 z m 16.488,0.3087 c 2.809434,1.5818 3.595467,-2.445 0,0 z m -1.3362,0.4425 c 1.51211,-0.2719 0.485473,-2.6246 0,0 z m -1.9714,-0.4827 c 1.747295,2.0345 -0.568052,-2.5 0,0 z m -6.7812,-0.279 c -1.583207,2.8242 4.018362,-1.4064 0,0 z m 68.268998,0.5032 c 1.21164,2.1288 0.95582,-1.9477 0,0 z m -5.3464,0.076 c 1.07953,1.9052 3.67523,-0.9167 0,0 z m -31.869,0.1631 c 3.50822,2.205 3.31969,-1.3402 0,0 z m -25.748998,-0.2389 c 1.210966,2.1285 0.956218,-1.9482 0,0 z m -20.06,0.5435 c 1.274754,1.7075 1.673559,-2.8707 0,0 z m 109.209998,0.2502 c 2.07021,1.0551 3.0979,-1.6631 0,0 z m -21.453,-0.3027 c 0.31036,1.8755 1.50598,-1.9078 0,0 z m -6.0635,0.271 c 0.23955,1.8561 1.33195,-2.7346 0,0 z m -7.5881,-0.2405 c 1.54209,1.8622 3.09158,-1.8953 0,0 z m -7.5223,-0.03 c 0.31025,1.8757 1.50604,-1.9078 0,0 z m -1.6716,0 c 0.31025,1.8757 1.50606,-1.9078 0,0 z m -1.6716,0 c 0.31025,1.8757 1.50606,-1.9078 0,0 z m -31.888001,-0.1944 c 2.175943,1.0361 0.763436,-1.1071 0,0 z m -36.229997,0.5461 c 4.038089,0.4271 3.698725,-0.5942 0,0 z m 67.282998,1.3142 c 2.336,2.4301 1.4636,-1.1174 0,0 z m -32.573001,0.2642 c -0.219823,2.5126 1.696395,-1.5591 0,0 z m 58.947001,0.7488 c 1.12791,2.1731 0.5016,-2.7454 0,0 z m -55.905001,-0.2239 c 0.919658,1.654 1.113291,-1.9247 0,0 z m 52.103001,0.4854 c 0.68497,1.3051 2.06565,-2.289 0,0 z m -92.223998,-0.2925 c 2.336022,2.4301 1.463495,-1.1175 0,0 z m 110.879998,0.7072 c 1.20983,1.8125 2.14155,-1.6977 0,0 z m -13.373,-0.024 c 1.71464,1.7001 3.32495,-1.823 0,0 z"
       id="path12"
       inkscape:connector-curvature="0" />
  </g>
</svg>
