<?xml version="1.0" encoding="UTF-8" standalone="no"?>
<svg
   xmlns:dc="http://purl.org/dc/elements/1.1/"
   xmlns:cc="http://creativecommons.org/ns#"
   xmlns:rdf="http://www.w3.org/1999/02/22-rdf-syntax-ns#"
   xmlns:svg="http://www.w3.org/2000/svg"
   xmlns="http://www.w3.org/2000/svg"
   xmlns:xlink="http://www.w3.org/1999/xlink"
   xmlns:sodipodi="http://sodipodi.sourceforge.net/DTD/sodipodi-0.dtd"
   xmlns:inkscape="http://www.inkscape.org/namespaces/inkscape"
   cursor="default"
   version="1.1"
   viewBox="0 0 256 256"
   id="svg25"
   sodipodi:docname="monkey_mud_pie.svg"
   inkscape:version="1.0.1 (3bc2e813f5, 2020-09-07)">
  <metadata
     id="metadata29">
    <rdf:RDF>
      <cc:Work
         rdf:about="">
        <dc:format>image/svg+xml</dc:format>
        <dc:type
           rdf:resource="http://purl.org/dc/dcmitype/StillImage" />
        <dc:title></dc:title>
      </cc:Work>
    </rdf:RDF>
  </metadata>
  <sodipodi:namedview
     pagecolor="#ffffff"
     bordercolor="#666666"
     borderopacity="1"
     objecttolerance="10"
     gridtolerance="10"
     guidetolerance="10"
     inkscape:pageopacity="0"
     inkscape:pageshadow="2"
     inkscape:window-width="1276"
     inkscape:window-height="1018"
     id="namedview27"
     showgrid="false"
     inkscape:zoom="2.8710938"
     inkscape:cx="128"
     inkscape:cy="128"
     inkscape:window-x="0"
     inkscape:window-y="0"
     inkscape:window-maximized="0"
     inkscape:current-layer="svg25" />
  <defs
     id="defs9">
    <linearGradient
       id="innoGrad1">
      <stop
         stop-color="#f55"
         offset="0"
         id="stop2" />
      <stop
         stop-color="#ff8080"
         offset="1"
         id="stop4" />
    </linearGradient>
    <linearGradient
       id="linearGradient828"
       x1="173.54"
       x2="139.41"
       y1="204.61"
       y2="178.91"
       gradientTransform="translate(-4.8814,-1.0847)"
       gradientUnits="userSpaceOnUse"
       xlink:href="#innoGrad1" />
    <linearGradient
       id="linearGradient830"
       x1="144.01"
       x2="119.27"
       y1="149.77"
       y2="137.3"
       gradientTransform="translate(-4.8814,-1.0847)"
       gradientUnits="userSpaceOnUse"
       xlink:href="#innoGrad1" />
  </defs>
  <g
     id="g24"
     transform="matrix(0.95460654,0,0,1.0110879,78.518148,3.2328773)">
    <path
       style="fill:#d1e0d8;stroke-width:0.264583"
       d="m 33.60208,179.37076 c -19.406873,-0.94836 -45.889439,-5.27609 -54.105302,-8.84179 -0.704982,-0.30596 -1.67087,-2.08536 -8.468656,-15.60132 -7.672917,-15.25596 -7.672917,-15.25596 -9.281488,-15.09328 -9.80663,0.99179 -17.336095,-9.73821 -15.339541,-21.85991 1.396732,-8.47999 4.005473,-12.04638 9.576116,-13.09144 0.710195,-0.13323 1.155078,-0.48983 1.944876,-1.55894 3.042269,-4.118172 6.631154,-5.121766 10.781781,-3.01502 1.713246,0.8696 1.713246,0.8696 2.941791,0.41589 2.967996,-1.096098 14.92381,-5.072624 19.881673,-6.612679 5.4239583,-1.684838 5.4239583,-1.684838 5.5942997,-3.382407 0.5218377,-5.200513 2.75554284,-6.432497 8.060735,-4.445839 4.0823727,1.528742 6.8288323,-1.330185 5.5456583,-5.772751 -1.0467494,-3.624027 -0.7655609,-4.740034 1.807435,-7.173465 4.688494,-4.434182 9.896991,-3.680035 14.008997,2.028386 1.547805,2.148713 3.466627,2.517264 5.137283,0.986726 1.1015,-1.009118 1.180163,-1.686814 0.726567,-6.259339 C 31.267278,58.53093 51.35637,51.234275 52.90563,62.650829 c 0.579747,4.272166 5.447525,2.746807 5.928805,-1.85784 0.313449,-2.998932 1.832274,-4.965903 3.834492,-4.965903 0.541692,0 3.332991,1.283509 8.104706,3.726748 8.474766,4.339293 8.267526,4.106415 5.675794,6.377964 -2.854767,2.50209 -3.47273,4.622951 -1.826635,6.269043 1.47937,1.479371 2.360194,1.427383 6.73658,-0.397615 5.7976,-2.417658 9.304274,-0.671253 11.086343,5.521256 0.600752,2.087547 1.29735,2.106007 2.798366,0.07415 1.948751,-2.637931 2.92799,-2.679378 7.487749,-0.316934 9.93021,5.144915 16.0633,10.480617 13.71507,11.931904 -0.78422,0.484674 -0.14044,0.873112 2.39453,1.4448 1.47914,0.333576 4.10508,1.059889 5.83541,1.61403 3.14606,1.007528 3.14606,1.007528 4.76162,0.174318 3.94125,-2.032657 8.62519,-0.652301 13.76361,4.056126 1.75598,1.609037 1.75598,1.609037 2.98104,1.300564 6.55529,-1.65064 11.75669,4.15091 11.76698,13.12468 0.0157,13.67595 -7.0423,23.33929 -16.13343,22.08884 -1.90055,-0.26141 -1.01857,-2.27666 -8.22926,18.80319 -3.50671,10.25157 -6.52453,18.79559 -6.70626,18.98671 -0.54092,0.56884 -13.27426,3.20906 -18.13739,3.76073 -1.09141,0.12381 -3.29407,0.47358 -4.8948,0.77727 -5.865135,1.11271 -24.443577,3.0426 -35.718745,3.71039 -2.619375,0.15513 -6.131719,0.39666 -7.805208,0.53672 -3.480163,0.29126 -20.606737,0.27766 -26.722917,-0.0212 z"
       id="path52" />
    <path
       style="fill:#b7c8c5;stroke-width:0.264583"
       d="m 38.629163,179.22959 c -17.538692,-0.7154 -30.5732785,-2.23393 -44.1854163,-5.14761 -4.7901407,-1.02533 -14.2802447,-3.51827 -15.0764747,-3.96041 -0.220908,-0.12267 -3.853121,-7.05757 -8.071588,-15.41088 -7.669937,-15.18785 -7.669937,-15.18785 -10.186458,-15.16541 -9.801434,0.0874 -16.297617,-9.40213 -14.55697,-21.26455 1.176525,-8.01796 3.638944,-11.74077 8.600866,-13.00322 1.477146,-0.37582 1.985989,-0.64328 2.513541,-1.32116 3.72663,-4.78854 7.316663,-5.782013 11.441396,-3.16619 1.236668,0.78428 1.236668,0.78428 4.389133,-0.37507 3.057126,-1.124288 16.112808,-5.409295 21.211138,-6.961714 2.5135417,-0.765362 2.5135417,-0.765362 2.663661,-2.593221 0.4002352,-4.873273 2.61421029,-6.357456 6.9054159,-4.629187 4.8125539,1.93824 8.1226921,-0.789207 6.7052371,-5.524897 -1.0669398,-3.564628 -0.745341,-4.97273 1.643455,-7.195788 4.649755,-4.327147 9.651341,-3.619325 13.735031,1.943775 2.747328,3.742608 7.380721,1.884844 6.55324,-2.627527 -1.013413,-5.526273 0.558948,-9.861107 4.676328,-12.892149 5.349758,-3.938269 14.201759,-3.003228 14.916041,1.575588 0.07994,0.512435 0.207201,1.332072 0.282808,1.821417 0.536728,3.473855 6.212533,1.702232 6.212533,-1.939157 0,-3.177225 2.257295,-5.928392 4.365625,-5.320774 0.291042,0.08388 3.208073,1.541781 6.482292,3.239786 3.274218,1.698005 6.399609,3.297635 6.945312,3.554733 1.477971,0.696321 1.329182,1.331874 -0.736351,3.14531 -5.025721,4.412339 -2.106568,9.304142 3.926623,6.580081 6.63008,-2.993564 10.119683,-1.802484 12.018521,4.102193 0.951558,2.958997 1.63944,3.135556 3.373606,0.865899 2.055017,-2.689582 2.595825,-2.691995 7.711682,-0.03441 10.45079,5.42897 14.68728,9.315522 12.91399,11.847256 -0.49164,0.701908 -0.74419,0.584872 3.31462,1.536052 1.6685,0.391012 4.22671,1.112716 5.68491,1.603791 2.65128,0.89286 2.65128,0.89286 4.24241,0.02942 3.9773,-2.158312 8.90578,-0.733795 13.87812,4.011298 1.16537,1.11211 1.83414,1.570575 2.11666,1.451028 6.11099,-2.585784 12.04127,3.022227 12.38232,11.709417 0.55269,14.07827 -6.72909,24.522 -15.96628,22.89926 -2.02422,-0.3556 -1.11866,-2.38967 -8.34906,18.75353 -7.62291,22.29095 -4.78187,19.19367 -20.14448,21.96132 -5.86954,1.05743 -5.50031,2.57104 -3.1042,-12.72533 2.36551,-15.10099 2.34747,-13.46036 0.1383,-12.57656 -2.56581,1.02649 -5.29279,1.46466 -9.083,1.45946 -7.034387,-0.01 -9.549735,-1.15167 -13.640345,-6.19303 -3.025846,-3.72912 -7.273454,-2.5734 -11.595213,3.15492 -3.081626,4.08457 -6.938825,6.19227 -11.370342,6.21311 -1.29454,0.006 -1.115523,-1.18869 -1.95666,13.05903 -0.426313,7.22115 -0.86732,12.82175 -1.026798,13.03985 -0.278984,0.38153 -16.769696,0.72058 -22.895179,0.47072 z"
       id="path50" />
    <path
       style="fill:#a2b8b4;stroke-width:0.264583"
       d="m 41.142705,178.94965 c -20.037396,-0.37228 -40.78371638,-3.18723 -57.229814,-7.7652 -5.176422,-1.44092 -3.924022,0.25255 -12.473363,-16.86622 -4.087974,-8.18554 -7.579297,-14.8978 -7.758499,-14.91612 -0.179205,-0.0183 -1.339303,-0.008 -2.578,0.024 -9.247377,0.23534 -16.111879,-9.29287 -14.575458,-20.23133 1.227682,-8.74042 3.700954,-12.67123 8.668075,-13.77631 1.813933,-0.40356 2.010995,-0.51635 2.731265,-1.56322 3.029939,-4.403868 7.397114,-5.518923 11.27648,-2.87918 1.028057,0.69954 1.034357,0.70026 2.221606,0.25253 2.272305,-0.85693 19.2001719,-6.44877 22.5229258,-7.440079 3.3406371,-0.996644 3.3406371,-0.996644 3.4696717,-2.800057 0.347771,-4.860568 2.74871925,-6.44793 6.9454766,-4.591923 4.5588925,2.016157 8.3287129,-1.240647 6.7494259,-5.83093 -1.1315915,-3.289028 -0.408125,-5.625328 2.374482,-7.667948 4.614637,-3.387456 8.84623,-2.616653 12.482801,2.273795 1.603324,2.156145 2.986645,2.880466 4.529015,2.371437 2.292546,-0.756608 3.00658,-2.789161 2.256158,-6.422338 -1.115663,-5.401522 3.424187,-11.796226 9.343369,-13.160817 5.982753,-1.379247 10.553758,0.870734 10.553758,5.194866 0,3.054421 4.692737,2.831769 6.110438,-0.289916 0.270889,-0.59648 0.495139,-1.612465 0.498335,-2.257745 0.01119,-2.259535 1.704356,-4.511578 3.394022,-4.514317 0.882267,-0.0014 15.132622,7.368388 15.132622,7.826098 0,0.431148 -0.436243,0.895822 -2.172401,2.313997 -5.354246,4.37359 -1.233798,9.092929 5.347401,6.124621 5.607039,-2.528933 9.218149,-1.099125 10.884357,4.309632 0.952847,3.093087 2.05867,3.459842 3.508262,1.163542 1.711269,-2.710826 2.705499,-2.759565 7.374214,-0.3615 10.37364,5.328375 14.98006,9.451567 13.15351,11.773657 -0.65542,0.833233 -0.65752,0.831932 2.40729,1.496544 1.37068,0.297238 4.06836,1.036709 5.99482,1.643271 3.50266,1.102839 3.50266,1.102839 4.78705,0.403789 4.27976,-2.329339 8.91195,-1.018154 14.10476,3.992483 1.4924,1.440037 1.4924,1.440037 3.32143,1.113171 9.1383,-1.633106 13.68683,8.974467 9.71919,22.665967 -2.32102,8.00935 -6.68807,11.8744 -13.39763,11.85752 -1.86139,-0.005 -3.38434,0.004 -3.38434,0.0204 0,0.0865 -12.00299,35.1537 -12.46014,36.40275 -0.61011,1.66694 -1.28467,1.87426 -13.20444,4.05815 -6.0233,1.10356 -5.59882,2.77527 -3.18907,-12.55919 2.30076,-14.64089 2.30104,-13.77603 -0.004,-12.7372 -2.75943,1.24348 -5.20264,1.68407 -9.37439,1.69049 -7.097285,0.0109 -9.433302,-1.03017 -13.46823,-6.00248 -3.271075,-4.03101 -7.295459,-2.98191 -12.116453,3.15856 -3.241842,4.12912 -6.584165,5.93684 -10.999634,5.94922 -1.893338,0.005 -1.764142,-0.67638 -2.583186,13.62995 -0.391562,6.83948 -0.787807,12.50994 -0.880546,12.60103 -0.195705,0.19221 -14.563638,0.4238 -20.012367,0.32257 z"
       id="path48" />
    <path
       style="fill:#e0af44;stroke-width:0.264583"
       d="m 23.812497,153.82566 c -6.257325,-0.97794 -9.347026,-3.422 -10.227154,-8.09002 -1.53007,-8.11516 -7.4950428,-8.91466 -11.2210535,-1.50399 -4.8618801,9.6698 -17.6943805,8.31633 -21.0225985,-2.21729 -2.43695,-7.71281 -7.812527,-9.56716 -14.499947,-5.00187 -3.084857,2.10594 -3.247943,2.18022 -5.133269,2.33828 -9.96562,0.83549 -17.11618,-9.80341 -14.791954,-22.00806 1.457298,-7.65235 3.685627,-10.79827 8.426709,-11.89667 1.238279,-0.28689 1.830604,-0.58471 2.323433,-1.16824 0.363802,-0.43075 1.106253,-1.31705 1.649892,-1.96954 2.277557,-2.7336 5.763244,-3.346523 9.14337,-1.60777 1.851787,0.95256 1.851787,0.95256 6.311035,-0.6355 4.215828,-1.501366 13.396518,-4.500225 19.7924577,-6.465172 2.8977987,-0.890257 2.8977987,-0.890257 2.9400685,-2.464305 0.1237351,-4.607431 2.72517397,-6.472825 6.622931,-4.749052 4.8451717,2.142765 8.6705438,-1.189432 6.9860798,-6.085417 -1.009566,-2.93435 -0.53757,-4.680418 1.844032,-6.82168 4.505137,-4.050507 8.847891,-3.408519 13.11434,1.938689 3.633914,4.55444 8.100838,2.062123 6.866625,-3.831228 -1.528159,-7.296955 4.464484,-13.833713 12.736007,-13.892404 4.305356,-0.03055 6.460371,1.57031 6.876154,5.10796 0.363915,3.096354 3.510642,3.623964 5.748922,0.963919 0.661598,-0.786263 0.77484,-1.169947 1.096325,-3.7145 0.251309,-1.989111 1.911656,-3.955835 3.342391,-3.959142 0.235355,-5.56e-4 3.277444,1.471724 6.760197,3.271707 3.48275,1.799983 6.57847,3.350836 6.879373,3.446338 1.755216,0.557085 1.66556,1.118647 -0.503489,3.153569 -3.459306,3.245395 -3.499731,6.037658 -0.10776,7.443427 1.417132,0.587314 1.58572,0.550468 5.953086,-1.301126 5.17109,-2.192344 8.715425,-0.427925 10.238004,5.096619 0.715388,2.595726 2.040607,2.884924 3.395745,0.741037 2.002477,-3.168005 3.488917,-2.889057 12.200671,2.289603 7.07652,4.206603 9.55579,6.822181 8.33657,8.794917 -0.6631,1.072907 -0.71336,1.03809 2.50525,1.735429 1.42464,0.308657 4.04889,1.02752 5.83169,1.597469 3.86831,1.236673 3.58019,1.224196 5.52263,0.23917 3.80451,-1.929296 8.56782,-0.425997 13.30331,4.198528 1.62583,1.587728 1.6371,1.593334 2.64424,1.315249 9.63818,-2.661232 14.80349,9.516226 10.03073,23.647936 -3.32402,9.84213 -12.36739,13.8377 -19.25502,8.50732 -5.63648,-4.36211 -9.8014,-2.33593 -16.86173,8.20302 -5.54472,8.2766 -8.74647,10.25872 -17.21704,10.65865 -7.189203,0.33942 -10.581633,-0.98394 -14.223673,-5.54857 -3.454955,-4.33015 -7.666654,-3.62013 -12.084206,2.03718 -4.076062,5.21999 -6.676554,6.57435 -12.718166,6.62378 -5.691309,0.0465 -7.732014,-1.40522 -10.33608,-7.35316 -3.643874,-8.32294 -12.266581,-7.28813 -17.429406,2.09171 -2.904879,5.27759 -6.91479,7.6051 -11.789722,6.8432 z"
       id="path46" />
    <path
       style="fill:#a18b6e;stroke-width:0.264583"
       d="m 23.812497,153.82566 c -6.257325,-0.97794 -9.347026,-3.422 -10.227154,-8.09002 -1.53007,-8.11516 -7.4950428,-8.91466 -11.2210535,-1.50399 -4.8618801,9.6698 -17.6943805,8.31633 -21.0225985,-2.21729 -2.43695,-7.71281 -7.812527,-9.56716 -14.499947,-5.00187 -3.084857,2.10594 -3.247943,2.18022 -5.133269,2.33828 -9.96562,0.83549 -17.11618,-9.80341 -14.791954,-22.00806 1.457298,-7.65235 3.685627,-10.79827 8.426709,-11.89667 1.238279,-0.28689 1.830604,-0.58471 2.323433,-1.16824 0.363802,-0.43075 1.106253,-1.31705 1.649892,-1.96954 2.200076,-2.640601 5.723837,-3.32868 8.90525,-1.73891 2.174756,1.08674 2.052752,1.32756 -1.433904,2.83034 -5.082889,2.19077 -4.952476,2.05005 -4.395853,4.74338 0.159292,0.77077 0.215138,2.30215 0.126071,3.45714 -0.38875,5.0412 3.251692,6.8304 6.614086,3.2507 1.873596,-1.99469 3.859112,-1.49066 11.051614,2.80549 3.537558,2.11303 4.181795,2.36707 8.80967,3.47398 4.1882428,1.00176 4.1261107,0.94591 3.2426299,2.91456 -1.4212226,3.16691 -0.6938142,4.58331 2.4448902,4.76067 3.2072421,0.18122 3.9496127,-0.60901 3.6039928,-3.83635 -0.3427836,-3.20088 13.5308131,-1.69721 21.2005071,2.29779 4.850558,2.52655 7.375001,2.67 15.704071,0.89233 6.673207,-1.42426 10.110809,-1.41995 14.816667,0.0186 7.848311,2.3991 7.522607,2.33249 11.509375,2.35371 4.333962,0.0231 5.187198,-0.16769 11.1633,-2.49567 6.490266,-2.52827 8.700383,-2.92265 12.941921,-2.30939 2.478588,0.35837 5.570427,0.0197 7.898686,-0.86526 1.773936,-0.67425 2.027473,-0.64739 2.937738,0.31127 2.468356,2.59959 7.269953,3.12444 8.601803,0.94024 0.58859,-0.96529 0.63028,-1.72496 0.19754,-3.5997 -0.41509,-1.79826 -0.7801,-1.56853 7.58818,-4.77563 12.07365,-4.62715 13.37595,-5.28411 16.35919,-8.2526 1.70185,-1.69345 1.97827,-1.79307 2.71532,-0.97864 4.12829,4.5617 10.30449,-1.09803 7.1228,-6.52717 -0.74713,-1.27488 -0.72815,-1.96391 0.0543,-1.97064 2.15386,-0.01852 -1.29951,-2.097164 -7.9377,-4.777862 -3.29841,-1.331989 -3.42442,-1.599795 -1.26697,-2.692564 3.66888,-1.858322 8.49427,-0.295923 13.16086,4.261321 1.62583,1.587728 1.6371,1.593334 2.64424,1.315249 9.63818,-2.661232 14.80349,9.516226 10.03073,23.647936 -3.32402,9.84213 -12.36739,13.8377 -19.25502,8.50732 -5.63648,-4.36211 -9.8014,-2.33593 -16.86173,8.20302 -5.54472,8.2766 -8.74647,10.25872 -17.21704,10.65865 -7.189203,0.33942 -10.581633,-0.98394 -14.223673,-5.54857 -3.454955,-4.33015 -7.666654,-3.62013 -12.084206,2.03718 -4.076062,5.21999 -6.676554,6.57435 -12.718166,6.62378 -5.691309,0.0465 -7.732014,-1.40522 -10.33608,-7.35316 -3.643874,-8.32294 -12.266581,-7.28813 -17.429406,2.09171 -2.904879,5.27759 -6.91479,7.6051 -11.789722,6.8432 z M 142.12656,112.80379 c 1.08811,-0.98473 0.28018,-2.73712 -1.26194,-2.73712 -0.89909,0 -1.69379,0.74483 -1.69379,1.5875 0,1.36755 1.89884,2.10609 2.95573,1.14962 z M 20.240622,126.64206 c -1.327455,-0.61947 -3.085682,-2.30578 -3.614693,-3.46683 -0.257802,-0.56581 -0.476649,-0.62959 -2.448002,-0.7134 -2.044514,-0.0869 -2.264788,-0.15714 -3.961468,-1.26283 -2.3709791,-1.54513 -3.7516199,-1.6884 -6.8777514,-0.71372 -3.39088941,1.05723 -4.6452737,0.79757 -5.4422622,-1.12653 -0.5444966,-1.31453 -1.5039261,-1.52235 -4.613955,-0.99943 -9.4906284,1.59575 -16.8679254,-2.4732 -16.5270684,-9.11553 0.294225,-5.73356 6.283677,-11.693634 9.337389,-9.291583 0.899115,0.707243 3.344948,0.796933 5.043644,0.184953 1.5891378,-0.572501 2.320118,-0.475984 3.5645011,0.47066 3.7741251,2.87109 3.9676519,2.94646 5.1592559,2.00914 1.1920617,-0.93767 0.90691229,-3.057151 -0.9006443,-6.694378 -3.3550701,-6.751185 -0.4905296,-12.038082 5.1668495,-9.536121 4.8451717,2.142765 8.6705438,-1.189432 6.9860798,-6.085417 -1.009566,-2.93435 -0.53757,-4.680418 1.844032,-6.82168 4.505137,-4.050507 8.847891,-3.408519 13.11434,1.938689 3.633914,4.55444 8.100838,2.062123 6.866625,-3.831228 -1.528159,-7.296955 4.464484,-13.833713 12.736007,-13.892404 4.305356,-0.03055 6.460371,1.57031 6.876154,5.10796 0.363915,3.096354 3.510642,3.623964 5.748922,0.963919 0.661598,-0.786263 0.77484,-1.169947 1.096325,-3.7145 0.251309,-1.989111 1.911656,-3.955835 3.342391,-3.959142 0.235355,-5.56e-4 3.277444,1.471724 6.760197,3.271707 3.48275,1.799983 6.57847,3.350836 6.879373,3.446338 1.755216,0.557085 1.66556,1.118647 -0.503489,3.153569 -3.459306,3.245395 -3.499731,6.037658 -0.10776,7.443427 1.417132,0.587314 1.58572,0.550468 5.953086,-1.301126 5.17109,-2.192344 8.715425,-0.427925 10.238004,5.096619 0.715388,2.595726 2.040607,2.884924 3.395745,0.741037 2.002477,-3.168005 3.488917,-2.889057 12.200671,2.289603 9.06614,5.389325 10.40412,7.661289 6.38139,10.835932 -3.81924,3.014048 -3.17712,4.35782 2.68791,5.625057 6.89073,1.488856 9.15306,3.482019 9.17772,8.085749 0.0253,4.72341 -3.82201,8.31178 -8.92408,8.32349 -2.31873,0.005 -2.31873,0.005 -3.175,1.72511 -1.29701,2.605 -2.12732,2.94604 -6.94169,2.85114 -3.67777,-0.0725 -3.71453,-0.0674 -5.15937,0.72074 -1.45347,0.7928 -1.46054,0.79375 -5.905162,0.79375 -4.449953,0 -4.449953,0 -5.065265,1.27609 -1.846501,3.82946 -5.804832,4.88737 -9.043633,2.41701 -1.516748,-1.15687 -4.676876,-0.52146 -8.180007,1.64478 -3.901903,2.41283 -5.236493,2.67037 -9.244478,1.78393 -7.219487,-1.59673 -6.575449,-1.54628 -9.819402,-0.76912 -2.940235,0.7044 -2.940235,0.7044 -5.291667,0.25726 -5.736399,-1.09083 -7.893465,-1.00807 -10.704015,0.4107 -2.60954,1.31729 -4.052863,1.03728 -8.697605,-1.68735 -2.716448,-1.59347 -2.785266,-1.60447 -3.009966,-0.48096 -0.528387,2.64193 -3.614947,3.89375 -6.398178,2.59492 z"
       id="path44" />
    <path
       style="fill:#cc903b;stroke-width:0.264583"
       d="m 23.415622,153.53836 c -5.448195,-0.72261 -8.736508,-3.40487 -9.565696,-7.80272 -1.574086,-8.34861 -7.8579423,-9.21281 -11.7032272,-1.60952 -4.7871644,9.46568 -17.5790068,8.10517 -20.5450388,-2.18512 -2.212377,-7.67558 -8.19925,-9.79277 -14.771997,-5.22396 -3.505933,2.43703 -3.193791,2.32151 -6.27253,2.32151 -11.162216,0 -17.157067,-13.3613 -12.064847,-26.89009 1.545854,-4.10695 3.388605,-5.80415 7.136138,-6.57248 1.441693,-0.29557 1.614059,-0.41676 2.875106,-2.02141 2.829258,-3.600167 5.767837,-4.555916 9.307877,-3.02731 1.767293,0.76312 2.299378,1.51173 1.333405,1.87601 -5.072218,1.91281 -7.351022,3.25037 -7.103441,4.16943 0.507821,1.8851 0.613596,2.99961 0.471411,4.96705 -0.369165,5.10814 3.237111,6.91207 6.619423,3.31116 1.873596,-1.99469 3.859112,-1.49066 11.051614,2.80549 3.537558,2.11303 4.181795,2.36707 8.80967,3.47398 4.1882428,1.00176 4.1261107,0.94591 3.2426299,2.91456 -1.4212226,3.16691 -0.6938142,4.58331 2.4448902,4.76067 3.2072421,0.18122 3.9496127,-0.60901 3.6039928,-3.83635 -0.3427836,-3.20088 13.5308131,-1.69721 21.2005071,2.29779 4.850558,2.52655 7.375001,2.67 15.704071,0.89233 6.673207,-1.42426 10.110809,-1.41995 14.816667,0.0186 7.848311,2.3991 7.522607,2.33249 11.509375,2.35371 4.333962,0.0231 5.187198,-0.16769 11.1633,-2.49567 6.490266,-2.52827 8.700383,-2.92265 12.941921,-2.30939 2.478588,0.35837 5.570427,0.0197 7.898686,-0.86526 1.773936,-0.67425 2.027473,-0.64739 2.937738,0.31127 2.468356,2.59959 7.269953,3.12444 8.601803,0.94024 0.58859,-0.96529 0.63028,-1.72496 0.19754,-3.5997 -0.41509,-1.79826 -0.7801,-1.56853 7.58818,-4.77563 12.07365,-4.62715 13.37595,-5.28411 16.35919,-8.2526 1.70185,-1.69345 1.97827,-1.79307 2.71532,-0.97864 4.12829,4.5617 10.30449,-1.09803 7.1228,-6.52717 -0.74713,-1.27488 -0.72815,-1.96391 0.0543,-1.97064 2.15327,-0.01852 -1.29936,-2.097117 -7.93302,-4.775962 -3.02929,-1.223304 -3.14992,-1.375273 -1.81154,-2.282219 3.45586,-2.341851 9.00347,-0.657736 13.76389,4.178371 1.34744,1.368859 1.34744,1.368859 3.32207,1.050317 8.8688,-1.430693 13.15887,7.960983 9.7726,21.393823 -2.82082,11.18976 -12.28889,16.25118 -19.63026,10.49391 -5.70415,-4.47332 -9.83348,-2.51599 -16.98769,8.05228 -5.74954,8.49327 -8.91923,10.4626 -17.33098,10.7678 -7.61211,0.27618 -10.236592,-0.82197 -14.465991,-6.05297 -3.14765,-3.89307 -7.808224,-2.71322 -12.181901,3.08391 -3.540823,4.69322 -7.522331,6.53012 -13.304186,6.13799 -4.731348,-0.32088 -6.816003,-1.9516 -8.880565,-6.94682 -3.670366,-8.88048 -12.665178,-7.95272 -18.102538,1.86717 -2.326833,4.20226 -4.584136,5.94427 -8.422026,6.49948 -1.667338,0.24121 -2.086758,0.24876 -3.488621,0.0628 z M 142.12656,112.80379 c 1.08811,-0.98473 0.28018,-2.73712 -1.26194,-2.73712 -0.89909,0 -1.69379,0.74483 -1.69379,1.5875 0,1.36755 1.89884,2.10609 2.95573,1.14962 z M 20.240622,126.64206 c -1.327455,-0.61947 -3.085682,-2.30578 -3.614693,-3.46683 -0.257802,-0.56581 -0.476649,-0.62959 -2.448002,-0.7134 -2.044514,-0.0869 -2.264788,-0.15714 -3.961468,-1.26283 -2.3709791,-1.54513 -3.7516199,-1.6884 -6.8777514,-0.71372 -3.39088941,1.05723 -4.6452737,0.79757 -5.4422622,-1.12653 -0.5444966,-1.31453 -1.5039261,-1.52235 -4.613955,-0.99943 -9.4906284,1.59575 -16.8679254,-2.4732 -16.5270684,-9.11553 0.294225,-5.73356 6.283677,-11.693634 9.337389,-9.291583 0.899115,0.707243 3.344948,0.796933 5.043644,0.184953 1.5891378,-0.572501 2.320118,-0.475984 3.5645011,0.47066 3.7741251,2.87109 3.9676519,2.94646 5.1592559,2.00914 1.1820895,-0.92983 0.90507608,-3.060842 -0.85942752,-6.611439 C -4.2980961,89.367403 -1.4752935,84.352096 4.250311,86.678617 c 4.9659434,2.017842 8.701191,-1.276141 7.130182,-6.287855 -0.971042,-3.097744 -0.538789,-4.79624 1.728507,-6.791995 4.573125,-4.025422 8.742678,-3.203076 13.411216,2.645048 3.274042,4.101283 7.776546,0.936368 6.660753,-4.681995 -1.442736,-7.264617 4.380675,-13.618068 12.481976,-13.618068 4.331499,0 6.215647,1.400124 6.630151,4.926912 0.568934,4.840735 7.219162,2.973553 7.243961,-2.033884 0.0158,-3.186887 2.488668,-5.296855 4.657762,-3.974197 0.454911,0.277394 3.579926,1.895051 6.944474,3.594794 7.27221,3.673863 6.898671,3.242403 4.603104,5.316854 -5.363059,4.846468 -2.004322,10.135407 4.559967,7.180496 6.342634,-2.855135 9.832234,-1.567447 11.394689,4.204726 0.822774,3.039576 2.283722,3.276296 4.061687,0.658122 1.79396,-2.641722 2.994456,-2.454719 9.95495,1.55071 10.62627,6.11491 12.41708,8.840465 7.87618,11.987311 -3.53108,2.447041 -2.57677,4.127238 3.03255,5.339225 6.89073,1.488856 9.15306,3.482019 9.17772,8.085749 0.0253,4.72341 -3.82201,8.31178 -8.92408,8.32349 -2.31873,0.005 -2.31873,0.005 -3.175,1.72511 -1.29701,2.605 -2.12732,2.94604 -6.94169,2.85114 -3.67777,-0.0725 -3.71453,-0.0674 -5.15937,0.72074 -1.45347,0.7928 -1.46054,0.79375 -5.905162,0.79375 -4.449953,0 -4.449953,0 -5.065265,1.27609 -1.846501,3.82946 -5.804832,4.88737 -9.043633,2.41701 -1.516748,-1.15687 -4.676876,-0.52146 -8.180007,1.64478 -3.901903,2.41283 -5.236493,2.67037 -9.244478,1.78393 -7.219487,-1.59673 -6.575449,-1.54628 -9.819402,-0.76912 -2.940235,0.7044 -2.940235,0.7044 -5.291667,0.25726 -5.736399,-1.09083 -7.893465,-1.00807 -10.704015,0.4107 -2.60954,1.31729 -4.052863,1.03728 -8.697605,-1.68735 -2.716448,-1.59347 -2.785266,-1.60447 -3.009966,-0.48096 -0.528387,2.64193 -3.614947,3.89375 -6.398178,2.59492 z"
       id="path42" />
    <path
       style="fill:#b48830;stroke-width:0.264583"
       d="m 23.415622,153.53836 c -5.448195,-0.72261 -8.736508,-3.40487 -9.565696,-7.80272 -1.574086,-8.34861 -7.8579423,-9.21281 -11.7032272,-1.60952 -4.7871644,9.46568 -17.5790068,8.10517 -20.5450388,-2.18512 -2.212377,-7.67558 -8.19925,-9.79277 -14.771997,-5.22396 -3.505933,2.43703 -3.193791,2.32151 -6.27253,2.32151 -11.162216,0 -17.157067,-13.3613 -12.064847,-26.89009 1.545854,-4.10695 3.388605,-5.80415 7.136138,-6.57248 1.441693,-0.29557 1.614059,-0.41676 2.875106,-2.02141 2.829295,-3.600214 5.757315,-4.55273 9.311627,-3.02917 2.378292,1.01945 2.307899,1.26387 -0.723855,2.51337 -5.412047,2.23051 -5.617091,2.41443 -5.063064,4.54148 0.28903,1.10967 0.36014,2.22388 0.251158,3.9354 -0.327554,5.14412 3.20812,7.22409 6.594726,3.87956 2.254803,-2.2268 3.65355,-1.96424 10.182736,1.91142 4.377148,2.59823 5.167196,2.93334 9.068811,3.84662 4.6904192,1.09793 4.6837385,1.09278 3.8221493,2.94377 -1.5181686,3.26155 -0.3819895,5.02104 3.2407569,5.01866 2.8189026,-0.002 3.7073417,-1.05013 3.3755436,-3.98284 -0.3538432,-3.12757 13.3221202,-1.55952 20.9213902,2.39879 4.821698,2.51153 7.340933,2.66337 15.571779,0.93854 7.795221,-1.63353 10.198561,-1.55708 16.901555,0.53766 8.792731,2.7478 12.388982,2.62418 20.728855,-0.71251 6.095008,-2.43855 8.743151,-2.90997 12.938866,-2.30333 2.516203,0.36381 5.233395,0.0613 7.942233,-0.8841 1.626092,-0.56754 1.626092,-0.56754 3.175,0.64099 4.409863,3.44081 9.450553,2.35633 8.942233,-1.92388 -0.38174,-3.21441 -0.98678,-2.64586 5.46663,-5.13696 13.66905,-5.27643 14.76326,-5.80695 17.77148,-8.61628 2.20488,-2.05912 2.27962,-2.09158 2.99516,-1.30092 4.17081,4.60869 10.59629,-1.31617 7.37975,-6.80478 -0.77547,-1.32324 -0.71768,-1.57557 0.418,-1.82501 1.57972,-0.346966 -1.92848,-2.464156 -8.39895,-5.068733 -2.99495,-1.205569 -3.16189,-1.527535 -1.27628,-2.461525 3.50357,-1.735407 8.38927,-0.112823 12.7908,4.247933 1.6508,1.635504 1.6508,1.635504 3.61529,1.318596 8.85818,-1.428977 13.14686,7.970109 9.76247,21.395459 -2.82082,11.18976 -12.28889,16.25118 -19.63026,10.49391 -5.70415,-4.47332 -9.83348,-2.51599 -16.98769,8.05228 -5.74954,8.49327 -8.91923,10.4626 -17.33098,10.7678 -7.61211,0.27618 -10.236592,-0.82197 -14.465991,-6.05297 -3.14765,-3.89307 -7.808224,-2.71322 -12.181901,3.08391 -3.540823,4.69322 -7.522331,6.53012 -13.304186,6.13799 -4.731348,-0.32088 -6.816003,-1.9516 -8.880565,-6.94682 -3.670366,-8.88048 -12.665178,-7.95272 -18.102538,1.86717 -2.326833,4.20226 -4.584136,5.94427 -8.422026,6.49948 -1.667338,0.24121 -2.086758,0.24876 -3.488621,0.0628 z M 142.34583,112.97709 c 1.19274,-1.19274 0.29619,-3.175 -1.436,-3.175 -0.97029,0 -2.00358,0.95516 -2.00358,1.85208 0,1.56049 2.31256,2.44994 3.43958,1.32292 z M 20.246866,126.45414 c -1.344502,-0.67064 -2.693943,-1.96691 -3.328067,-3.19694 -0.497327,-0.96468 -0.497327,-0.96468 -2.696218,-1.05834 -2.062488,-0.0878 -2.321176,-0.16751 -4.170161,-1.28427 -2.3706537,-1.43185 -4.2283833,-1.5788 -7.0622586,-0.55864 -2.58963319,0.93223 -3.72350242,0.73189 -4.7099564,-0.8322 -1.083482,-1.71794 -1.9850603,-1.98688 -4.7463207,-1.41584 -7.4302353,1.5366 -14.9970143,-1.3862 -16.4401153,-6.3503 -1.639462,-5.63955 4.829458,-14.052072 8.949057,-11.63783 1.38869,0.81383 2.700309,0.87805 5.0648476,0.24799 2.0485762,-0.545867 2.5751288,-0.412015 4.3944064,1.11708 5.18883371,4.36119 7.0264814,0.48406 3.1465203,-6.63862 -2.9900034,-5.488932 0.3192832,-10.314056 5.6017107,-8.167613 4.9659434,2.017842 8.701191,-1.276141 7.130182,-6.287855 -0.971042,-3.097744 -0.538789,-4.79624 1.728507,-6.791995 4.573125,-4.025422 8.742678,-3.203076 13.411216,2.645048 3.274042,4.101283 7.776546,0.936368 6.660753,-4.681995 -1.442736,-7.264617 4.380675,-13.618068 12.481976,-13.618068 4.331499,0 6.215647,1.400124 6.630151,4.926912 0.568934,4.840735 7.219162,2.973553 7.243961,-2.033884 0.0158,-3.186887 2.488668,-5.296855 4.657762,-3.974197 0.454911,0.277394 3.579926,1.895051 6.944474,3.594794 7.27221,3.673863 6.898671,3.242403 4.603104,5.316854 -5.363059,4.846468 -2.004322,10.135407 4.559967,7.180496 6.342634,-2.855135 9.832234,-1.567447 11.394689,4.204726 0.822774,3.039576 2.283722,3.276296 4.061687,0.658122 1.79396,-2.641722 2.994456,-2.454719 9.95495,1.55071 10.74245,6.181767 12.27878,8.487487 7.83087,11.752554 -3.69777,2.714411 -2.8307,4.443955 2.87142,5.727615 7.10185,1.598769 9.11896,3.322606 9.12027,7.794256 0.001,4.92305 -3.39476,8.19906 -8.50203,8.20111 -2.77308,0.001 -2.57182,-0.11161 -3.64081,2.0392 -1.18401,2.38222 -1.70581,2.59198 -6.44786,2.59198 -3.59421,0 -3.86888,0.0377 -5.29579,0.72761 -1.43512,0.69383 -1.71681,0.73146 -6.069016,0.8108 -4.564044,0.0832 -4.564044,0.0832 -5.130763,1.40057 -1.521007,3.53568 -5.267079,4.61311 -8.492085,2.44247 -2.109639,-1.41993 -4.807566,-0.84862 -9.578753,2.02837 -3.272086,1.97305 -4.757951,2.08844 -10.202063,0.79227 -3.895696,-0.92752 -5.560743,-0.98211 -8.069792,-0.26459 -2.309336,0.66041 -2.714844,0.6585 -6.312577,-0.0298 -4.098695,-0.78416 -6.920169,-0.63652 -9.207288,0.48181 -0.922928,0.45128 -1.890557,0.88924 -2.150285,0.97324 -0.962787,0.31139 -3.135606,-0.44796 -6.019493,-2.10367 -3.47128,-1.99295 -3.555939,-2.0081 -3.971385,-0.71062 -0.845027,2.63912 -3.608946,3.72281 -6.199394,2.4307 z m 3.494019,-23.25706 c 3.006904,-1.36498 2.90118,-5.263495 -0.185024,-6.822598 -2.985563,-1.50826 -6.357948,0.130752 -6.357948,3.090027 0,3.148661 3.469357,5.127821 6.542972,3.732571 z m 56.255843,-4.373321 c 3.673149,-1.745776 3.634049,-3.361774 -0.157689,-6.517293 -2.709294,-2.254697 -3.834194,-1.291463 -4.108416,3.517977 -0.210973,3.700176 1.000062,4.551607 4.266105,2.999316 z M 52.952869,93.438001 c 6.015368,-2.891501 6.06847,-5.538785 0.18968,-9.455864 -6.147864,-4.096364 -8.422429,-3.444515 -8.426493,2.414881 -0.0048,6.9678 3.016369,9.550379 8.236813,7.040983 z M 63.235413,79.783112 c 4.674447,-1.008758 4.750975,-1.765914 0.628534,-6.218642 -3.877802,-4.18849 -4.428368,-4.211373 -9.606727,-0.399283 -1.89076,1.391899 -1.936885,1.634548 -0.763723,4.017581 1.734725,3.523727 3.401486,3.968623 9.741916,2.600344 z M 45.740782,72.588411 c 1.041136,-2.277418 1.85029,-4.183444 1.798122,-4.235613 -0.162761,-0.16276 -5.738987,-1.232845 -5.845038,-1.12167 -0.150942,0.158236 -1.288653,8.187285 -1.176083,8.299855 0.170884,0.170883 2.729989,1.168762 3.035808,1.183759 0.161819,0.0079 1.146056,-1.848914 2.187191,-4.126331 z"
       id="path40" />
    <path
       style="fill:#937452;stroke-width:0.264583"
       d="m 23.415622,153.53836 c -5.448195,-0.72261 -8.736508,-3.40487 -9.565696,-7.80272 -1.574086,-8.34861 -7.8579423,-9.21281 -11.7032272,-1.60952 -4.7871644,9.46568 -17.5790068,8.10517 -20.5450388,-2.18512 -2.212377,-7.67558 -8.19925,-9.79277 -14.771997,-5.22396 -3.505933,2.43703 -3.193791,2.32151 -6.27253,2.32151 -11.162216,0 -17.157067,-13.3613 -12.064847,-26.89009 1.545854,-4.10695 3.388605,-5.80415 7.136138,-6.57248 1.441693,-0.29557 1.614059,-0.41676 2.875106,-2.02141 2.829295,-3.600214 5.757315,-4.55273 9.311627,-3.02917 2.200029,0.94304 2.100294,1.11599 -1.530499,2.65404 -4.392033,1.86052 -5.130895,2.47354 -4.702931,3.90196 0.175048,0.58426 0.31827,2.41955 0.31827,4.07843 0,6.10663 3.841001,8.25587 7.487174,4.18946 1.669772,-1.86222 3.287053,-1.43848 10.28279,2.69417 3.737123,2.20767 4.763968,2.62458 8.719233,3.54008 4.005749,0.92718 3.8878136,0.83597 3.1870461,2.46494 -1.4510358,3.37303 -0.1541727,5.33277 3.5289649,5.33277 3.4759133,0 4.67840483,-1.68779 3.658825,-5.13546 -0.1437243,-0.486 -0.00953,-0.49854 3.5198341,-0.32885 7.8261739,0.37626 13.6500449,1.76079 17.5811709,4.17963 3.556796,2.18852 6.794177,2.34617 14.988426,0.72988 8.578284,-1.69204 11.103153,-1.55522 18.989244,1.02904 6.546739,2.14536 11.067172,1.86957 18.687693,-1.14012 5.640705,-2.22777 7.301939,-2.6362 10.284182,-2.52844 6.561743,0.2371 8.226758,0.13999 10.411251,-0.60718 2.076876,-0.71037 2.076876,-0.71037 3.138075,0.24836 3.031789,2.73904 7.679604,3.03793 9.213414,0.5925 0.53965,-0.86039 0.57389,-1.65891 0.19994,-4.66313 -0.0673,-0.54097 0.1704,-0.7067 2.04045,-1.42241 15.88974,-6.08133 18.42928,-7.27477 21.46661,-10.08813 1.91938,-1.77784 1.57886,-1.71649 3.2575,-0.58685 4.83072,3.25083 9.87518,-1.91076 7.26326,-7.43191 -0.37876,-0.80064 -0.64665,-1.49134 -0.59531,-1.53489 0.0513,-0.0436 0.45054,-0.19469 0.8871,-0.33588 1.71564,-0.554862 -0.18334,-1.795294 -7.76103,-5.069595 -4.0042,-1.730203 -4.04918,-1.783173 -2.27312,-2.677023 3.46174,-1.742228 8.37262,-0.108617 12.7699,4.247933 1.6508,1.635504 1.6508,1.635504 3.61529,1.318596 8.85818,-1.428977 13.14686,7.970109 9.76247,21.395459 -2.82082,11.18976 -12.28889,16.25118 -19.63026,10.49391 -5.70415,-4.47332 -9.83348,-2.51599 -16.98769,8.05228 -5.74954,8.49327 -8.91923,10.4626 -17.33097,10.7678 -7.61212,0.27618 -10.236602,-0.82197 -14.466001,-6.05297 -3.14765,-3.89307 -7.808224,-2.71322 -12.181901,3.08391 -3.540823,4.69322 -7.522331,6.53012 -13.304186,6.13799 -4.731348,-0.32088 -6.816003,-1.9516 -8.880565,-6.94682 -3.670366,-8.88048 -12.665178,-7.95272 -18.102538,1.86717 -2.326833,4.20226 -4.584136,5.94427 -8.422026,6.49948 -1.667338,0.24121 -2.086758,0.24876 -3.488621,0.0628 z M 142.54427,113.17594 c 0.84628,-0.78993 0.81107,-2.28517 -0.0734,-3.11607 -1.95788,-1.83932 -4.94136,0.68252 -3.40404,2.87734 0.84281,1.20329 2.33435,1.30568 3.47742,0.23873 z M 20.240622,126.2971 c -1.141635,-0.59996 -2.457466,-1.90402 -3.214463,-3.18571 -0.655881,-1.11049 -0.655881,-1.11049 -2.557169,-1.06178 -2.018876,0.0517 -2.326965,-0.0535 -4.8933838,-1.67106 -1.7436545,-1.09899 -3.7586523,-1.18092 -6.5117081,-0.26477 -2.95087408,0.98199 -4.1812236,0.72259 -4.9092564,-1.03503 -0.6062716,-1.46367 -1.8906808,-1.61369 -7.006037,-0.81835 -5.0694037,0.7882 -11.6107717,-1.82787 -13.4153697,-5.36517 -2.695266,-5.28316 4.081894,-15.653369 8.22702,-12.58875 1.131459,0.83653 2.827129,0.92667 5.0024534,0.26594 2.0926266,-0.635619 2.610358,-0.54464 4.0469582,0.71118 5.65412202,4.94263 7.7694737,1.48158 3.8964261,-6.375171 -3.0060397,-6.097956 -0.1673621,-10.469367 5.3442183,-8.229812 4.9659434,2.017842 8.701191,-1.276141 7.130182,-6.287855 -0.971042,-3.097744 -0.538789,-4.79624 1.728507,-6.791995 4.573125,-4.025422 8.742678,-3.203076 13.411216,2.645048 3.274042,4.101283 7.776546,0.936368 6.660753,-4.681995 -1.442736,-7.264617 4.380675,-13.618068 12.481976,-13.618068 4.331499,0 6.215647,1.400124 6.630151,4.926912 0.568934,4.840735 7.219162,2.973553 7.243961,-2.033884 0.0158,-3.186887 2.488668,-5.296855 4.657762,-3.974197 0.454911,0.277394 3.579926,1.895051 6.944474,3.594794 7.27221,3.673863 6.898671,3.242403 4.603104,5.316854 -5.363059,4.846468 -2.004322,10.135407 4.559967,7.180496 6.342634,-2.855135 9.832234,-1.567447 11.394689,4.204726 0.822774,3.039576 2.283722,3.276296 4.061687,0.658122 1.79396,-2.641722 2.994456,-2.454719 9.95495,1.55071 10.5666,6.080575 12.23703,8.43034 8.07066,11.352879 -4.33387,3.040039 -3.45321,4.958935 2.93712,6.399819 1.88667,0.425402 4.01593,1.025385 4.73168,1.333294 7.41031,3.187833 3.71384,14.807403 -4.50887,14.173313 -2.42767,-0.18721 -2.58858,-0.096 -3.57396,2.02501 -1.09884,2.36527 -1.56466,2.55563 -6.25646,2.55683 -3.75938,0.001 -3.93051,0.0254 -5.55625,0.79453 -1.655881,0.78336 -1.734317,0.79354 -6.112512,0.79375 -4.435107,2.1e-4 -4.435107,2.1e-4 -5.04961,1.38971 -1.590223,3.59578 -5.293815,4.67169 -8.494088,2.46758 -1.979824,-1.36356 -4.888087,-0.80458 -8.899208,1.71047 -3.714681,2.32917 -5.157163,2.47103 -10.991487,1.08093 -4.069035,-0.9695 -5.145336,-1.01156 -7.638833,-0.29848 -2.339999,0.66918 -3.478686,0.66422 -7.112442,-0.031 -4.041421,-0.77321 -5.976348,-0.62529 -8.8616,0.67744 -3.044425,1.37459 -3.75925,1.22287 -9.157176,-1.94369 -2.078352,-1.21921 -2.782324,-1.35627 -2.782324,-0.5417 0,2.58324 -3.650149,4.33744 -6.217708,2.98812 z m 3.820337,-22.83679 c 1.379209,-0.70362 2.132788,-1.98128 2.132788,-3.616055 0,-4.840608 -7.738952,-6.043372 -9.227947,-1.434182 -1.191686,3.688857 3.382168,6.944467 7.095159,5.050237 z m 56.050437,-4.346226 c 3.80143,-1.93071 3.954496,-3.243818 0.738407,-6.334609 -3.379904,-3.248229 -4.606851,-2.818167 -5.444506,1.908371 -0.796483,4.494204 1.086077,6.264814 4.706099,4.426238 z M 52.95711,93.827338 c 6.386362,-3.023616 6.548255,-5.839708 0.57317,-9.97028 -6.986061,-4.829461 -10.115714,-3.205435 -9.069189,4.706138 0.738089,5.579867 3.80955,7.482946 8.496019,5.264142 z m 9.950032,-13.66452 c 5.667468,-1.115055 5.716725,-2.374347 0.301969,-7.720102 -3.486364,-3.441937 -3.825142,-3.427532 -9.035677,0.384214 -2.147004,1.570633 -2.226477,1.986913 -0.88515,4.636448 1.835613,3.625908 3.102634,3.981487 9.618858,2.69944 z M 46.006924,72.812172 c 2.098188,-4.60041 2.135952,-4.745396 1.287344,-4.942307 -3.687117,-0.855557 -6.012905,-1.138048 -6.025351,-0.731842 -0.0033,0.109141 -0.238734,1.74625 -0.523087,3.638021 -0.787411,5.23857 -0.835115,4.994458 1.124479,5.754262 2.177997,0.844484 1.970672,1.030835 4.136615,-3.718134 z"
       id="path38" />
    <path
       style="fill:#957123;stroke-width:0.264583"
       d="m 22.956144,153.18507 c -4.770414,-0.80326 -8.085106,-3.39884 -8.718325,-6.82694 -1.73317,-9.38292 -8.0857809,-10.52772 -12.3733724,-2.22978 -4.8252856,9.33855 -16.7910566,7.78673 -20.1415496,-2.61212 -2.758797,-8.56243 -8.637698,-9.78045 -17.127241,-3.54851 -3.54026,2.59881 -10.6608,0.34754 -14.30942,-4.52414 -6.60089,-8.8136 -3.441607,-25.84247 5.122386,-27.61022 1.658874,-0.34242 2.006614,-0.61309 4.178937,-3.25275 2.097146,-2.54831 5.32765,-3.237201 8.259078,-1.76121 1.747668,0.87995 1.684329,0.96593 -1.834224,2.48979 -4.230315,1.83212 -4.853369,2.36142 -4.432657,3.76563 0.176133,0.58788 0.320241,2.42613 0.320241,4.08501 0,6.10663 3.841001,8.25587 7.487174,4.18946 1.669772,-1.86222 3.287053,-1.43848 10.28279,2.69417 3.737123,2.20767 4.763968,2.62458 8.719233,3.54008 4.005749,0.92718 3.8878136,0.83597 3.1870461,2.46494 -1.4510358,3.37303 -0.1541727,5.33277 3.5289649,5.33277 3.4759133,0 4.67840483,-1.68779 3.658825,-5.13546 -0.1437243,-0.486 -0.00953,-0.49854 3.5198341,-0.32885 7.8261739,0.37626 13.6500449,1.76079 17.5811709,4.17963 3.556796,2.18852 6.794177,2.34617 14.988426,0.72988 8.578284,-1.69204 11.103153,-1.55522 18.989244,1.02904 6.546739,2.14536 11.067172,1.86957 18.687693,-1.14012 5.640705,-2.22777 7.301939,-2.6362 10.284182,-2.52844 6.561743,0.2371 8.226758,0.13999 10.411251,-0.60718 2.076876,-0.71037 2.076876,-0.71037 3.138075,0.24836 3.031789,2.73904 7.679604,3.03793 9.213414,0.5925 0.53965,-0.86039 0.57389,-1.65891 0.19994,-4.66313 -0.0673,-0.54097 0.1704,-0.7067 2.04045,-1.42241 15.88974,-6.08133 18.42928,-7.27477 21.46661,-10.08813 1.91938,-1.77784 1.57886,-1.71649 3.2575,-0.58685 4.83072,3.25083 9.87518,-1.91076 7.26326,-7.43191 -0.37876,-0.80064 -0.64665,-1.49134 -0.59531,-1.53489 0.0513,-0.0436 0.45054,-0.19469 0.8871,-0.33588 1.72256,-0.5571 -0.38365,-1.924911 -7.87135,-5.111786 -3.79613,-1.615691 -3.79474,-1.614188 -2.24896,-2.431507 3.33976,-1.765864 8.53726,-0.03748 12.83969,4.269713 1.66104,1.662883 1.66104,1.662883 3.39187,1.3363 9.71261,-1.83264 14.11986,10.68111 8.66786,24.61112 -3.23136,8.25619 -11.75375,11.6738 -17.71565,7.10425 -6.33402,-4.85475 -10.56931,-3.00807 -17.68986,7.7132 -5.9737,8.99446 -9.72198,11.08876 -19.2953,10.78099 -6.301816,-0.20259 -8.185607,-1.02258 -11.396966,-4.96094 -4.041797,-4.95679 -8.397304,-4.33532 -13.122884,1.87246 -6.964513,9.14896 -17.938782,8.85189 -21.994058,-0.59539 -4.037092,-9.40491 -13.202841,-8.07203 -19.041737,2.76905 -2.36287,4.38713 -6.519072,6.33642 -11.663381,5.4702 z M 142.54427,113.17594 c 0.84628,-0.78993 0.81107,-2.28517 -0.0734,-3.11607 -1.95788,-1.83932 -4.94136,0.68252 -3.40404,2.87734 0.84281,1.20329 2.33435,1.30568 3.47742,0.23873 z M 20.240622,126.2971 c -1.141635,-0.59996 -2.457466,-1.90402 -3.214463,-3.18571 -0.655881,-1.11049 -0.655881,-1.11049 -2.557169,-1.06178 -2.018876,0.0517 -2.326965,-0.0535 -4.8933838,-1.67106 -1.7436545,-1.09899 -3.7586523,-1.18092 -6.5117081,-0.26477 -2.95087408,0.98199 -4.1812236,0.72259 -4.9092564,-1.03503 -0.6062716,-1.46367 -1.8906808,-1.61369 -7.006037,-0.81835 -5.0694037,0.7882 -11.6107717,-1.82787 -13.4153697,-5.36517 -2.695266,-5.28316 4.081894,-15.653369 8.22702,-12.58875 1.131459,0.83653 2.827129,0.92667 5.0024534,0.26594 2.0926266,-0.635619 2.610358,-0.54464 4.0469582,0.71118 5.53003244,4.83415 7.800885,1.40642 4.0353668,-6.091183 -2.9935144,-5.960444 -0.2834323,-10.534735 4.9967462,-8.433912 3.1382864,1.24863 4.9083807,0.914091 6.9148904,-1.306875 1.474719,-1.632339 1.485583,-1.862246 0.289862,-6.134486 -0.77637,-2.773926 0.655476,-5.216777 4.168883,-7.112464 3.817303,-2.059655 7.082793,-0.864974 10.761615,3.937141 2.864948,3.739732 7.810331,1.735039 7.311271,-2.963744 -0.603361,-5.6808 -0.38916,-6.98016 1.635829,-9.923133 4.682765,-6.805593 16.068844,-7.163737 16.998998,-0.534696 0.718634,5.121589 6.851443,3.816852 7.527697,-1.601496 0.365477,-2.928323 1.419088,-4.501871 3.009577,-4.494749 0.583544,0.0026 13.937004,6.656047 14.511282,7.230325 0.09742,0.09742 -0.728231,1.039821 -1.834785,2.094216 -5.015738,4.779316 -1.571127,10.071015 4.731311,7.268361 6.575161,-2.923931 9.578782,-1.935273 11.408879,3.755292 1.109305,3.44932 2.560478,3.793932 4.33452,1.029327 1.73422,-2.702549 4.276051,-2.073336 12.553181,3.107447 8.10721,5.07443 9.11978,7.079522 5.00487,9.910651 -3.90126,2.68414 -2.78402,4.717863 3.35181,6.101361 1.88667,0.425402 4.01593,1.025385 4.73168,1.333294 7.41031,3.187833 3.71384,14.807403 -4.50887,14.173313 -2.42767,-0.18721 -2.58858,-0.096 -3.57396,2.02501 -1.09884,2.36527 -1.56466,2.55563 -6.25646,2.55683 -3.75938,0.001 -3.93051,0.0254 -5.55625,0.79453 -1.655881,0.78336 -1.734317,0.79354 -6.112512,0.79375 -4.435107,2.1e-4 -4.435107,2.1e-4 -5.04961,1.38971 -1.590223,3.59578 -5.293815,4.67169 -8.494088,2.46758 -1.979824,-1.36356 -4.888087,-0.80458 -8.899208,1.71047 -3.714681,2.32917 -5.157163,2.47103 -10.991487,1.08093 -4.069035,-0.9695 -5.145336,-1.01156 -7.638833,-0.29848 -2.339999,0.66918 -3.478686,0.66422 -7.112442,-0.031 -4.041421,-0.77321 -5.976348,-0.62529 -8.8616,0.67744 -3.044425,1.37459 -3.75925,1.22287 -9.157176,-1.94369 -2.078352,-1.21921 -2.782324,-1.35627 -2.782324,-0.5417 0,2.58324 -3.650149,4.33744 -6.217708,2.98812 z m 3.820337,-22.83679 c 1.379209,-0.70362 2.132788,-1.98128 2.132788,-3.616055 0,-4.840608 -7.738952,-6.043372 -9.227947,-1.434182 -1.191686,3.688857 3.382168,6.944467 7.095159,5.050237 z m 56.050437,-4.346226 c 3.80143,-1.93071 3.954496,-3.243818 0.738407,-6.334609 -3.379904,-3.248229 -4.606851,-2.818167 -5.444506,1.908371 -0.796483,4.494204 1.086077,6.264814 4.706099,4.426238 z M 52.95711,93.827338 c 6.386362,-3.023616 6.548255,-5.839708 0.57317,-9.97028 -6.986061,-4.829461 -10.115714,-3.205435 -9.069189,4.706138 0.738089,5.579867 3.80955,7.482946 8.496019,5.264142 z m 9.950032,-13.66452 c 5.667468,-1.115055 5.716725,-2.374347 0.301969,-7.720102 -3.486364,-3.441937 -3.825142,-3.427532 -9.035677,0.384214 -2.147004,1.570633 -2.226477,1.986913 -0.88515,4.636448 1.835613,3.625908 3.102634,3.981487 9.618858,2.69944 z M 46.006924,72.812172 c 2.098188,-4.60041 2.135952,-4.745396 1.287344,-4.942307 -3.687117,-0.855557 -6.012905,-1.138048 -6.025351,-0.731842 -0.0033,0.109141 -0.238734,1.74625 -0.523087,3.638021 -0.787411,5.23857 -0.835115,4.994458 1.124479,5.754262 2.177997,0.844484 1.970672,1.030835 4.136615,-3.718134 z"
       id="path36" />
    <path
       style="fill:#975620;stroke-width:0.264583"
       d="m 22.956144,153.18507 c -4.770414,-0.80326 -8.085106,-3.39884 -8.718325,-6.82694 -1.73317,-9.38292 -8.0857809,-10.52772 -12.3733724,-2.22978 -4.8252856,9.33855 -16.7910566,7.78673 -20.1415496,-2.61212 -2.601872,-8.07538 -10.115645,-9.93395 -16.383317,-4.05249 -2.757011,2.58711 -7.882372,1.99565 -12.524529,-1.44534 -9.255208,-6.86041 -7.428855,-28.11625 2.593571,-30.18504 1.652823,-0.34117 2.14386,-0.71984 4.054956,-3.12699 1.958568,-2.46695 5.122291,-3.300011 7.992669,-2.1046 1.941433,0.80853 1.84224,1.12538 -0.674897,2.15574 -4.881319,1.99813 -5.103553,2.18304 -6.665402,5.54589 -3.139391,6.75951 -3.329338,12.86913 -0.52846,16.9979 2.488441,3.6682 5.494203,3.32926 9.881666,-1.11429 6.686958,-6.77245 14.809187,-4.37886 17.563492,5.1759 3.3094557,11.48058 8.3620634,12.9677 14.1771765,4.1727 4.2161724,-6.37669 6.1208576,-7.50896 11.0125585,-6.54657 3.796663,0.74694 4.787549,1.84901 6.551856,7.28701 3.108992,9.5826 8.887413,10.38163 14.350633,1.98437 4.331591,-6.65789 11.719575,-9.26926 19.130335,-6.76184 3.135995,1.06106 3.603675,1.43954 5.409081,4.37744 4.2766,6.95923 8.50066,8.2037 12.261855,3.61252 7.482533,-9.1337 17.110281,-12.21171 21.859825,-6.98863 3.83395,4.2162 5.468781,5.35093 8.170222,5.67087 4.004162,0.47423 6.718912,-1.82825 10.089982,-8.55769 5.2878,-10.55571 16.96574,-14.99622 24.75074,-9.41142 10.74643,7.70926 18.5891,-8.65092 8.1641,-17.03069 -0.70215,-0.5644 -1.44142,-1.247684 -1.64282,-1.518405 -0.4052,-0.544661 -6.97588,-3.833104 -10.08486,-5.047192 -2.60501,-1.017281 -2.63869,-1.063453 -1.28825,-1.765713 3.41416,-1.775439 8.54979,-0.08201 12.87117,4.24416 1.66104,1.662883 1.66104,1.662883 3.39187,1.3363 9.71261,-1.83264 14.11986,10.68111 8.66786,24.61112 -3.23136,8.25619 -11.75375,11.6738 -17.71565,7.10425 -6.33402,-4.85475 -10.56931,-3.00807 -17.68986,7.7132 -5.9737,8.99446 -9.72198,11.08876 -19.2953,10.78099 -6.301816,-0.20259 -8.185607,-1.02258 -11.396966,-4.96094 -4.041796,-4.95679 -8.397304,-4.33532 -13.122884,1.87246 -6.964513,9.14896 -17.938782,8.85189 -21.994058,-0.59539 -4.037092,-9.40491 -13.202841,-8.07203 -19.041737,2.76905 -2.36287,4.38713 -6.519072,6.33642 -11.663381,5.4702 z m -2.093169,-26.81766 c -1.536126,-0.54877 -3.780629,-2.75682 -4.257961,-4.18881 -0.04856,-0.1457 -1.039731,-0.28134 -2.202593,-0.30144 -2.005034,-0.0346 -2.214875,-0.0973 -4.060574,-1.21285 -2.5799199,-1.55927 -4.0976916,-1.70276 -7.2830289,-0.68848 -2.9159041,0.92848 -3.46420014,0.8497 -4.5151225,-0.64874 -1.3019696,-1.8564 -1.7878901,-2.03365 -4.4113767,-1.6091 -12.2735499,1.98614 -19.8360139,-3.88352 -15.8269229,-12.2842 1.930792,-4.04579 5.316411,-6.313179 7.508502,-5.02853 1.453896,0.85204 2.884128,0.91695 5.4635138,0.24794 2.0359317,-0.52805 2.0555505,-0.52123 4.8509528,1.6869 4.61358459,3.64434 6.434336,-0.16235 3.2322003,-6.757656 -3.2239268,-6.640192 -0.7843467,-10.97651 4.869217,-8.654963 5.0395823,2.069426 9.0305231,-1.427358 7.4118811,-6.494145 -1.039352,-3.253452 -0.402994,-5.232217 2.327148,-7.236328 4.089289,-3.001812 8.177327,-2.213006 11.492963,2.217621 3.893717,5.203106 9.293897,2.70205 7.975381,-3.693739 -1.558145,-7.558172 4.512077,-13.83685 13.017799,-13.464839 3.799879,0.166193 5.16315,1.316767 5.633272,4.754374 0.707356,5.172297 7.612751,3.120398 7.701802,-2.288548 0.0498,-3.025171 2.312006,-4.870836 4.405468,-3.594298 0.455287,0.277621 3.580678,1.89799 6.945313,3.600821 6.962238,3.523565 6.566937,3.128646 4.654767,4.650294 -5.591178,4.449289 -2.229705,11.004755 4.108587,8.012476 6.39377,-3.01847 9.812359,-1.992472 11.401089,3.421732 1.152613,3.927957 2.383134,4.04246 5.216454,0.485402 1.392309,-1.747954 5.367514,-0.408207 12.486624,4.208322 7.31506,4.743591 8.19795,6.365336 4.88341,8.97013 -4.551,3.576492 -3.86846,5.351296 2.59616,6.750801 6.85034,1.483011 8.77289,3.109473 8.77619,7.424583 0.004,4.65588 -3.48026,7.94456 -8.31826,7.85232 -2.68051,-0.0511 -2.63672,-0.0742 -3.60726,1.90251 -1.24897,2.54378 -1.54501,2.67019 -6.26847,2.67666 -3.91794,0.005 -4.05323,0.0246 -5.6024,0.79375 -1.568098,0.77862 -1.640832,0.78825 -5.95312,0.78825 -4.741291,0 -4.906034,0.0372 -5.153226,1.16263 -0.762865,3.47331 -5.474036,4.96302 -8.391155,2.65337 -1.78326,-1.41192 -5.278027,-0.65319 -9.606661,2.08565 -2.972964,1.88108 -5.207045,2.03786 -10.445046,0.73302 -3.715898,-0.92566 -5.013042,-0.95347 -8.095342,-0.17354 -2.400806,0.60749 -2.400806,0.60749 -5.291667,0.0722 -5.715529,-1.05836 -7.465983,-0.97742 -10.236917,0.47335 -2.583625,1.3527 -3.77289,1.09627 -9.051705,-1.95172 -2.511796,-1.45032 -2.688863,-1.47203 -2.924342,-0.35858 -0.575239,2.71999 -2.809351,3.95075 -5.455544,3.00543 z m 2.56209,-22.47243 c 3.838376,-1.48433 4.047744,-6.000194 0.368064,-7.938791 -4.150966,-2.186892 -8.607681,1.511978 -6.690273,5.552621 1.010061,2.12854 4.035537,3.27044 6.322209,2.38617 z m 56.076363,-4.318285 c 4.166142,-1.419548 4.712668,-3.682778 1.608873,-6.662542 -3.779367,-3.628345 -5.524257,-2.869488 -5.896708,2.564498 -0.287888,4.200189 0.835898,5.274239 4.287835,4.098044 z M 52.968231,93.965612 c 6.453526,-3.079983 6.734884,-6.032886 0.954338,-10.015902 -6.733979,-4.639969 -9.391427,-4.15252 -9.679426,1.775475 -0.368959,7.594405 3.138239,10.906785 8.725088,8.240427 z M 63.138803,80.3256 c 5.215168,-1.108741 5.516814,-2.005229 2.016763,-5.993759 -4.475858,-5.100526 -5.352838,-5.43673 -8.643766,-3.313724 -4.65388,3.002259 -4.886568,3.430177 -3.468454,6.378559 1.792795,3.727376 3.715713,4.285258 10.095457,2.928924 z M 46.149868,72.858947 c 2.442855,-5.281123 2.536021,-4.911379 -1.430068,-5.675535 -3.856535,-0.743048 -3.45795,-1.135543 -4.208108,4.143826 -0.658257,4.632597 -0.696224,4.45476 1.128231,5.284464 2.359949,1.073232 2.226104,1.184606 4.509945,-3.752755 z"
       id="path34" />
    <path
       style="fill:#8d521d;stroke-width:0.264583"
       d="m 22.956144,153.18507 c -4.770414,-0.80326 -8.085106,-3.39884 -8.718325,-6.82694 -1.73317,-9.38292 -8.0857809,-10.52772 -12.3733724,-2.22978 -4.8252856,9.33855 -16.7910566,7.78673 -20.1415496,-2.61212 -2.601872,-8.07538 -10.115645,-9.93395 -16.383317,-4.05249 -2.757011,2.58711 -7.882372,1.99565 -12.524529,-1.44534 -9.255208,-6.86041 -7.428855,-28.11625 2.593571,-30.18504 1.652823,-0.34117 2.14386,-0.71984 4.054956,-3.12699 1.958568,-2.46695 5.122291,-3.300011 7.992669,-2.1046 1.941433,0.80853 1.84224,1.12538 -0.674897,2.15574 -4.881319,1.99813 -5.103553,2.18304 -6.665402,5.54589 -3.139391,6.75951 -3.329338,12.86913 -0.52846,16.9979 2.488441,3.6682 5.494203,3.32926 9.881666,-1.11429 6.686958,-6.77245 14.809187,-4.37886 17.563492,5.1759 3.3094557,11.48058 8.3620634,12.9677 14.1771765,4.1727 4.2161724,-6.37669 6.1208576,-7.50896 11.0125585,-6.54657 3.796663,0.74694 4.787549,1.84901 6.551856,7.28701 3.108992,9.5826 8.887413,10.38163 14.350633,1.98437 4.331591,-6.65789 11.719575,-9.26926 19.130335,-6.76184 3.135995,1.06106 3.603675,1.43954 5.409081,4.37744 4.2766,6.95923 8.50066,8.2037 12.261855,3.61252 7.482533,-9.1337 17.110281,-12.21171 21.859825,-6.98863 3.83395,4.2162 5.468781,5.35093 8.170222,5.67087 4.004162,0.47423 6.718912,-1.82825 10.089982,-8.55769 5.2878,-10.55571 16.96574,-14.99622 24.75074,-9.41142 10.74643,7.70926 18.5891,-8.65092 8.1641,-17.03069 -0.70215,-0.5644 -1.44142,-1.247684 -1.64282,-1.518405 -0.4052,-0.544661 -6.97588,-3.833104 -10.08486,-5.047192 -2.60501,-1.017281 -2.63869,-1.063453 -1.28825,-1.765713 3.41416,-1.775439 8.54979,-0.08201 12.87117,4.24416 1.66104,1.662883 1.66104,1.662883 3.39187,1.3363 9.71261,-1.83264 14.11986,10.68111 8.66786,24.61112 -3.23136,8.25619 -11.75375,11.6738 -17.71565,7.10425 -6.33402,-4.85475 -10.56931,-3.00807 -17.68986,7.7132 -5.9737,8.99446 -9.72198,11.08876 -19.2953,10.78099 -6.301816,-0.20259 -8.185607,-1.02258 -11.396966,-4.96094 -4.041796,-4.95679 -8.397304,-4.33532 -13.122884,1.87246 -6.964513,9.14896 -17.938782,8.85189 -21.994058,-0.59539 -4.037092,-9.40491 -13.202841,-8.07203 -19.041737,2.76905 -2.36287,4.38713 -6.519072,6.33642 -11.663381,5.4702 z m -2.155802,-26.8392 c -1.22524,-0.43669 -2.878201,-1.98119 -3.688969,-3.44691 -0.585422,-1.05833 -0.585422,-1.05833 -2.696837,-1.05833 -2.046004,0 -2.168789,-0.0365 -3.963498,-1.1793 -2.4760869,-1.57663 -4.2194979,-1.72687 -7.6450372,-0.65884 -2.77468276,0.8651 -3.43909913,0.74287 -4.2994659,-0.79094 -1.0267818,-1.83048 -2.1379101,-2.06661 -6.1588359,-1.30882 -6.392508,1.20474 -13.62242,-1.7772 -14.838325,-6.11998 -1.511308,-5.39786 4.882652,-14.004293 8.367617,-11.26302 1.06725,0.8395 2.467086,0.91979 4.9949521,0.2865 2.5049771,-0.62755 2.6887964,-0.58825 4.3655536,0.93336 5.23480238,4.75044 7.6840185,0.92406 4.0920802,-6.393001 -1.5374699,-3.131949 -1.7644639,-4.364659 -1.1432752,-6.208667 0.575736,-1.709079 0.6319917,-1.692267 3.4181204,1.021421 4.5406283,4.422569 4.9433744,6.843289 2.0845436,12.529217 -3.10228195,6.17013 -0.4585018,8.17241 5.9747652,4.52501 4.7589311,-2.69812 6.3375041,-2.35477 12.6045091,2.74155 4.20093,3.41619 6.966598,2.0448 11.069479,-5.48891 4.556358,-8.366381 8.695618,-9.215686 19.002817,-3.89904 4.411771,2.27567 5.173205,2.4507 6.14789,1.4132 2.337393,-2.488046 5.090245,-2.675246 11.117524,-0.75603 9.54309,3.03873 11.582488,2.99759 14.391431,-0.29031 2.156675,-2.524415 3.849484,-3.164863 7.186605,-2.718939 1.739024,0.232378 2.143876,0.204168 3.09931,-0.215956 10.838784,-4.766022 13.694094,-11.752768 7.908584,-19.351736 -1.0594,-1.391463 -0.0779,-1.117336 3.65338,1.020363 10.03106,5.74693 11.69399,7.956529 8.05098,10.697617 -4.70313,3.538744 -3.87184,5.615501 2.79351,6.978875 6.29054,1.286709 8.43847,3.099986 8.45235,7.135466 0.0167,4.85541 -3.25733,8.02404 -8.2093,7.94501 -2.79593,-0.0446 -2.68204,-0.10681 -3.69618,2.01812 -1.18409,2.48106 -1.6015,2.65382 -6.18512,2.5601 -3.67663,-0.0752 -3.67663,-0.0752 -5.42396,0.78792 -1.747335,0.8631 -1.747335,0.8631 -6.240592,0.86893 -4.493258,0.006 -4.493258,0.006 -5.11623,1.32875 -1.805866,3.83486 -6.419715,4.95949 -8.763005,2.136 -1.09142,-1.31508 -5.448459,-0.0288 -10.312043,3.0443 -1.873517,1.18381 -4.495033,1.23554 -8.783145,0.17333 -4.369411,-1.08234 -5.126715,-1.12801 -7.668062,-0.46244 -2.722269,0.71295 -3.960191,0.73314 -6.856767,0.11182 -3.924773,-0.84186 -6.869014,-0.68678 -9.352454,0.4926 -3.063825,1.455 -3.726382,1.34341 -8.529567,-1.43654 -3.226268,-1.86728 -3.435447,-1.8903 -3.825388,-0.42105 -0.668636,2.51933 -2.848977,3.62139 -5.379945,2.7193 z m 43.55955,-30.742759 c -4.841345,-2.070463 -4.702661,-1.496391 -1.62244,-6.716062 3.395099,-5.753259 3.100779,-5.846358 5.115009,1.617999 2.15192,7.974618 2.397038,7.616825 -3.492569,5.098063 z m -32.54375,-3.025072 c -2.392584,-1.999966 -2.403451,-1.880737 0.497946,-5.463974 3.434353,-4.241442 3.5896,-4.153252 3.008702,1.709111 -0.63146,6.372646 -0.51901,6.252234 -3.506648,3.754863 z m 58.208334,-0.382706 c -3.175566,-1.918899 2.435582,-6.560228 6.200492,-5.128811 0.991412,0.376934 0.742921,0.840156 -1.780485,3.319095 -2.721454,2.673498 -2.881855,2.739173 -4.420007,1.809716 z m -6.680729,-6.076699 c -3.65165,-2.095712 -4.872649,-6.531293 -1.589699,-5.77497 4.39601,1.012748 7.313896,5.356153 4.708668,7.009066 -0.479116,0.303983 -0.349843,0.355132 -3.118969,-1.234096 z"
       id="path32" />
    <path
       style="fill:#6a4516;stroke-width:0.264583"
       d="m 21.501242,152.78588 c -4.404773,-1.18626 -6.669138,-3.41502 -7.3387,-7.22331 -1.495843,-8.50794 -8.3929671,-9.42075 -12.310462,-1.62923 -4.6355714,9.21969 -17.106019,7.81649 -19.986771,-2.24896 -2.341731,-8.1821 -8.946837,-10.05053 -16.191192,-4.58011 -8.564722,6.46747 -20.280484,-4.48106 -18.613302,-17.39437 1.119634,-8.67223 3.452859,-12.61071 8.115143,-13.69834 2.079833,-0.4852 2.59142,-0.77666 3.258918,-1.8567 2.243701,-3.63038 6.189305,-4.954477 9.563759,-3.20948 1.140962,0.59002 1.024038,0.71689 -1.666867,1.80865 -4.48954,1.8215 -4.941229,2.19893 -6.49106,5.4239 -6.634175,13.80473 0.588896,25.86117 9.779264,16.32313 2.74909,-2.85309 3.964837,-3.40561 7.493566,-3.40561 5.509059,0 7.7695,1.91567 9.512729,8.06181 3.358372,11.84069 8.799269,13.64959 14.6278018,4.8632 6.481355,-9.7705 13.7453792,-9.86425 16.9994232,-0.21938 3.620088,10.72982 9.322023,11.54542 15.457308,2.211 4.351247,-6.62013 12.513934,-8.97961 19.999613,-5.78102 1.614049,0.68967 2.213298,1.30587 3.659355,3.76284 4.730051,8.03675 8.754361,8.5479 14.369486,1.82514 6.573472,-7.87015 15.960889,-9.77889 20.68826,-4.20653 6.32247,7.45258 12.853456,6.46664 17.247266,-2.60368 5.59536,-11.55076 16.9498,-16.28811 25.08195,-10.4648 6.57778,4.71024 12.52659,1.99812 13.05593,-5.95233 0.54723,-8.21902 -3.59737,-12.819978 -16.24291,-18.031405 -1.27644,-0.526039 -2.36829,-1.000657 -2.42634,-1.054703 -0.37154,-0.345943 2.42831,-1.155052 4.01476,-1.160195 3.17792,-0.01029 5.87939,1.33823 9.60967,4.796991 1.84708,1.712637 1.96017,1.774576 2.80018,1.533665 9.44136,-2.707746 14.38845,8.942327 9.71752,22.884127 -3.1647,9.44598 -11.77328,13.38202 -18.31013,8.3718 -6.18433,-4.74002 -10.56038,-2.73703 -17.7816,8.13895 -5.34474,8.04979 -8.63026,10.14195 -16.55746,10.54347 -7.025472,0.35585 -10.640466,-0.93282 -13.654123,-4.86742 -2.016395,-2.63258 -3.09924,-3.25323 -5.675922,-3.25323 -3.332487,0 -4.579747,0.85711 -8.396186,5.76978 -6.401465,8.24023 -17.397138,7.60302 -21.167392,-1.22667 -3.890814,-9.11204 -12.68667,-8.49202 -18.399128,1.29694 -2.102011,3.60205 -2.515862,4.13717 -3.950454,5.10807 -2.49455,1.68824 -6.561764,2.24085 -9.891903,1.34401 z m -0.85584,-26.60942 c -1.233265,-0.49219 -2.408758,-1.60046 -3.217534,-3.03353 -0.445299,-0.78903 -0.947097,-1.4389 -1.115108,-1.44416 -0.16801,-0.005 -1.142399,-0.035 -2.165307,-0.0661 -1.685335,-0.0513 -2.043123,-0.16737 -3.813326,-1.2374 -2.5544913,-1.54411 -4.1934554,-1.70085 -7.2590476,-0.69421 -3.05492413,1.00313 -3.44627198,0.94911 -4.4043944,-0.60804 -1.1126523,-1.80829 -1.8608066,-2.07422 -4.5965507,-1.63385 -12.1103783,1.94939 -19.4689703,-3.71772 -15.5338043,-11.96312 1.880688,-3.94063 5.101855,-6.098862 7.235944,-4.8482 1.414921,0.8292 3.141306,0.90322 5.6257512,0.2412 1.8705354,-0.49842 1.7086501,-0.56116 4.8938048,1.89642 4.57731548,3.53172 6.485038,-0.70092 3.28690023,-7.292609 -3.06167103,-6.310424 -2.06632443,-8.732798 1.92265567,-4.679175 4.111752,4.178388 4.396441,6.086674 1.7275783,11.580114 -3.25479566,6.69951 -0.0416,9.34172 6.5278609,5.36786 4.6319019,-2.80183 5.7431409,-2.51685 13.1753189,3.37883 3.431881,2.72238 6.78207,0.81079 10.665936,-6.08591 4.824468,-8.566957 8.410308,-9.298337 18.901669,-3.85526 4.409403,2.28767 4.9921,2.38736 6.431423,1.10038 2.762883,-2.470469 4.843045,-2.455935 12.634616,0.0883 7.362669,2.40416 9.632974,2.20253 12.82859,-1.13928 2.347982,-2.45539 2.90349,-2.671267 6.338679,-2.463262 3.289438,0.199181 4.276026,-0.153701 8.746273,-3.128367 6.68246,-4.446754 7.74252,-8.232018 4.28187,-15.289811 -1.21024,-2.468218 -1.19946,-2.470187 2.31606,-0.423201 9.85847,5.74031 11.25964,7.664675 7.5684,10.394474 -4.63561,3.428193 -3.83134,5.722512 2.4702,7.046701 5.94683,1.249648 8.15361,2.664856 8.75701,5.615846 1.04445,5.10796 -2.58564,9.34189 -7.92018,9.23765 -2.60649,-0.0509 -3.15085,0.19903 -3.68825,1.69356 -0.97739,2.71818 -1.72418,3.05432 -6.56628,2.95565 -3.59133,-0.0732 -3.67117,-0.0622 -5.23446,0.71943 -1.557811,0.7789 -1.66665,0.79416 -5.820828,0.81573 -2.328334,0.0121 -4.376079,0.0418 -4.550548,0.0661 -0.174466,0.0243 -0.688194,0.82149 -1.141614,1.77154 -1.666012,3.49082 -5.10936,4.32657 -8.084491,1.96224 -1.752722,-1.39289 -5.038678,-0.68537 -9.62415,2.07225 -3.249314,1.95408 -4.359265,2.05528 -9.616372,0.87682 -4.327107,-0.96999 -5.894668,-1.01298 -8.718468,-0.2391 -2.283843,0.62589 -2.563669,0.61121 -8.352033,-0.43831 -2.804186,-0.50844 -5.10686,-0.22217 -7.296465,0.9071 -2.616938,1.34966 -3.53446,1.16741 -8.463182,-1.68108 -2.969429,-1.71614 -3.365976,-1.7544 -3.657174,-0.35286 -0.534588,2.573 -2.969805,3.81728 -5.496973,2.80869 z M 64.624476,95.192575 c -4.459833,-1.895954 -4.302699,-1.245621 -1.467742,-6.074606 2.610041,-4.44587 2.569094,-4.412498 3.108114,-2.53307 1.089622,3.799231 2.526815,9.362247 2.526815,9.780664 0,0.621401 0.159023,0.666163 -4.167187,-1.172988 z M 32.257407,92.326251 c -2.21256,-1.763373 -2.218415,-1.669907 0.297272,-4.746641 2.462676,-3.011895 2.749161,-3.169549 2.528774,-1.391586 -0.08568,0.691224 -0.28656,2.566458 -0.446397,4.167187 -0.362514,3.630502 -0.330618,3.604083 -2.379649,1.97104 z m 58.031652,-0.546272 c -1.724403,-1.104336 1.527752,-4.924462 3.936132,-4.623556 2.486303,0.310644 2.484004,0.417983 -0.06286,2.933189 -2.47926,2.448441 -2.604326,2.503022 -3.87327,1.690367 z m -6.8389,-6.14608 c -2.689685,-1.574774 -2.752844,-1.644872 -2.748195,-3.050146 0.01143,-3.452426 5.380474,-1.603177 5.496354,1.893097 0.09189,2.772317 0.04466,2.792203 -2.748159,1.157049 z"
       id="path30" />
    <path
       style="fill:#6d3b14;stroke-width:0.264583"
       d="m 21.04967,126.08468 c -1.71572,-0.6254 -3.637444,-2.5431 -4.180446,-4.1717 -0.07806,-0.23414 -0.75928,-0.34044 -2.232874,-0.34843 -2.025052,-0.011 -2.206289,-0.0633 -4.025091,-1.16225 -2.9049526,-1.7552 -4.1244357,-1.85361 -8.0480795,-0.64945 -2.3925504,0.73427 -3.18188185,0.63561 -3.633269,-0.45414 -0.8613087,-2.07938 -2.4609107,-2.46878 -6.8674138,-1.67177 -5.1019077,0.9228 -11.3029447,-1.07934 -13.5069267,-4.36099 -3.344875,-4.9804 2.655988,-14.800312 7.532497,-12.3263 1.567982,0.79549 2.363955,0.81881 4.9323444,0.1445 2.247437,-0.59004 2.0353073,-0.65936 5.0197729,1.64033 4.9785164,3.83622 7.0747387,-0.60944 3.55992112,-7.549875 -1.53259632,-3.026299 -1.76740612,-4.233077 -1.16172452,-5.970538 0.3720941,-1.067392 0.090183,-1.226095 3.1023348,1.746457 3.9330894,3.881382 4.2359342,5.913355 1.6927698,11.357916 -3.31998112,7.10763 0.00402,9.66766 6.8746025,5.29455 3.494545,-2.22428 5.498084,-2.04274 9.277829,0.84065 0.979411,0.74715 2.578007,1.96666 3.552436,2.71004 3.39848,2.59264 6.766549,0.90049 10.139101,-5.094 3.965265,-7.048 5.126251,-8.027229 9.520459,-8.029978 2.793326,-0.0019 4.457624,0.425786 7.215741,1.853626 0.90629,0.469172 2.716236,1.404552 4.0221,2.078612 3.021365,1.55957 3.936429,1.60469 5.345925,0.26362 2.548157,-2.424451 4.493564,-2.34093 13.670174,0.5869 6.215227,1.98299 8.931386,1.59723 11.717714,-1.6642 1.893863,-2.216794 2.787647,-2.556794 6.166217,-2.345667 4.411247,0.275661 12.321076,-4.28066 14.448536,-8.322837 1.03006,-1.957099 0.40872,-6.693411 -1.33194,-10.153076 -0.48299,-0.959985 -0.81057,-1.745427 -0.72795,-1.745427 0.99152,0 9.08373,5.288574 10.97713,7.173984 1.8945,1.886506 1.96471,2.494947 0.42987,3.72514 -5.33127,4.27304 -5.2622,6.502871 0.23977,7.741849 4.50696,1.014912 5.52966,1.294048 6.64474,1.813618 6.78591,3.161876 3.48782,12.965436 -4.3821,13.025776 -3.0436,0.0233 -3.36253,0.17086 -3.84407,1.77807 -0.17539,0.58543 -0.69602,1.46428 -1.15693,1.95299 -0.93452,0.99088 -0.87845,0.98234 -5.86404,0.89308 -2.86265,-0.0512 -3.03633,-0.0218 -4.72798,0.80234 -1.756166,0.85555 -1.756166,0.85555 -6.187924,0.81553 -4.801364,-0.0434 -4.719952,-0.0666 -5.246494,1.49818 -1.051433,3.12466 -5.075147,4.61686 -7.393815,2.74199 -2.357967,-1.90664 -6.175862,-1.26206 -10.661833,1.80003 -0.988658,0.67485 -2.172081,1.22257 -3.030659,1.40265 -1.470584,0.30846 -1.329336,0.32866 -9.236419,-1.32107 -1.984246,-0.414 -2.21097,-0.41144 -4.233334,0.0477 -3.353445,0.76136 -4.890367,0.787 -8.310004,0.13862 -4.150214,-0.7869 -6.168718,-0.63994 -8.879591,0.64648 -2.834759,1.34521 -3.425854,1.23518 -8.202417,-1.52679 -3.146089,-1.81918 -3.614796,-1.91803 -3.947107,-0.83248 -0.944949,3.08682 -2.5542,4.09968 -5.061553,3.18572 z M 64.624476,95.048549 c -2.097704,-0.890058 -3.505729,-1.63486 -3.505729,-1.85443 0,-0.659093 4.391342,-7.92847 4.63955,-7.680259 0.109128,0.109128 3.030919,10.699271 3.032917,10.992914 0.0016,0.23037 -1.074926,-0.146368 -4.166738,-1.458225 z M 32.146872,92.089547 c -1.967807,-1.599906 -1.99612,-1.345356 0.488153,-4.388794 2.495989,-3.057798 2.439168,-3.088966 2.051323,1.125275 -0.490278,5.327267 -0.300747,5.083696 -2.539476,3.263519 z m 58.122243,-0.552939 c -0.810519,-0.494155 0.853159,-3.277018 2.60717,-4.361056 0.210709,-0.130225 2.925677,0.363159 3.153357,0.57305 0.212413,0.195819 -4.063537,4.326428 -4.477605,4.325412 -0.221694,-5.3e-4 -0.79901,-0.242377 -1.282922,-0.537406 z m -6.991514,-6.156267 c -4.139417,-2.416868 -3.481163,-5.229056 0.859896,-3.673639 1.984375,0.711009 1.984375,0.711009 1.984375,2.805628 0,2.552473 0.02675,2.544308 -2.844271,0.868011 z"
       id="path28" />
    <path
       style="fill:#572f14;stroke-width:0.264583"
       d="m 20.444904,125.77314 c -1.735498,-0.85564 -4.309502,-4.41847 -4.299514,-5.95121 0.02799,-4.29505 4.580988,-5.64837 8.020254,-2.38392 4.247229,4.03134 1.23531,10.77858 -3.72074,8.33513 z m 27.180093,-1.19509 c -4.885248,-1.02838 -6.811518,-3.88432 -4.719357,-6.99705 3.666921,-5.45567 18.037249,-5.28802 19.412386,0.22647 0.64861,2.60101 -2.116354,5.6345 -5.730089,6.28658 -0.927793,0.16742 -2.336991,0.47303 -3.13155,0.67914 -1.856253,0.4815 -2.760874,0.45123 -5.83139,-0.19514 z m 35.545387,-1.87753 c -2.981251,-1.64447 -3.535373,-2.45636 -3.524994,-5.16473 0.02011,-5.24348 5.743393,-7.77834 9.345319,-4.13905 1.344427,1.35837 2.219045,4.11301 1.566728,4.93447 -0.146058,0.18393 -0.412745,0.79112 -0.592635,1.3493 -0.975376,3.02652 -4.191262,4.45593 -6.794418,3.02001 z m -49.192606,-3.60777 c -1.458474,-0.88937 -2.023504,-2.72435 -1.335839,-4.33822 1.528657,-3.5876 6.514412,-2.61924 6.514412,1.26527 0,2.73984 -2.901439,4.46155 -5.178573,3.07295 z M 7.7931797,116.2964 c -1.5714319,-1.57143 0.060992,-4.20845 2.1168386,-3.41954 0.2355637,0.0904 0.6050177,0.50608 0.8210017,0.92376 1.043382,2.01767 -1.3676785,4.06595 -2.9378403,2.49578 z m 86.0710803,-3.985 c -1.702321,-0.9544 -1.924087,-3.22648 -0.437049,-4.47774 2.569863,-2.1624 5.988021,1.33298 3.741015,3.82552 -0.879121,0.97519 -2.246463,1.24511 -3.303966,0.65222 z m -52.040893,-1.08979 c -1.027261,-1.30595 -0.214911,-3.00702 1.436005,-3.00702 1.69015,0 2.569043,2.00432 1.37201,3.12888 -0.8665,0.81403 -2.114444,0.75988 -2.808015,-0.12186 z m 72.280433,-0.55438 c -0.87992,-0.15966 -2.14123,-1.55311 -2.3335,-2.57798 -0.51383,-2.73897 2.31298,-5.18235 4.61711,-3.99083 3.47412,1.79653 1.57188,7.26834 -2.28361,6.56881 z m -15.308466,-7.14748 c -1.316456,-0.9042 -0.851546,-2.84579 0.681416,-2.84579 1.35604,0 1.95289,1.11185 1.16523,2.17069 -0.56145,0.75474 -1.324528,1.03371 -1.846646,0.6751 z"
       id="path26" />
  </g>
</svg>
