<?xml version="1.0" encoding="utf-8"?>
<!-- Generator: Adobe Illustrator 22.0.1, SVG Export Plug-In . SVG Version: 6.00 Build 0)  -->
<svg version="1.1" xmlns="http://www.w3.org/2000/svg" xmlns:xlink="http://www.w3.org/1999/xlink" x="0px" y="0px"
	 viewBox="0 0 2048 2048" enable-background="new 0 0 2048 2048" xml:space="preserve">
<g id="Ebene_1" display="none">
	<linearGradient id="SVGID_1_" gradientUnits="userSpaceOnUse" x1="1224.7068" y1="1009.6032" x2="808.2944" y2="1250.019">
		<stop  offset="0" style="stop-color:#333333"/>
		<stop  offset="1" style="stop-color:#999999"/>
	</linearGradient>
	
		<path display="inline" fill="url(#SVGID_1_)" stroke="#1E1E1E" stroke-width="6" stroke-linecap="round" stroke-linejoin="round" stroke-miterlimit="10" d="
		M285.7,344.8c21.7-22.3,46.7-38.8,68.3-61.1c462.8,540.9,922.3,1076.1,1385.2,1617c-0.4,7.2-2.6,27.1-17.7,45.3
		c-20.5,24.8-49.4,27.6-54.9,28C1206.3,1430.9,746,887.9,285.7,344.8z"/>
	
		<linearGradient id="SVGID_2_" gradientUnits="userSpaceOnUse" x1="973.9333" y1="229.723" x2="1141.4918" y2="132.9831" gradientTransform="matrix(0.3168 -0.2655 0.6424 0.7664 -131.7394 456.0878)">
		<stop  offset="0" style="stop-color:#191919"/>
		<stop  offset="1" style="stop-color:#999999"/>
	</linearGradient>
	
		<path display="inline" fill="url(#SVGID_2_)" stroke="#1E1E1E" stroke-width="6" stroke-linecap="round" stroke-linejoin="round" stroke-miterlimit="10" d="
		M285.7,344.8c5.5-0.5,34.2-5.8,49.3-23.6c16.9-19.8,18.7-32.1,19-37.5"/>
	
		<linearGradient id="SVGID_3_" gradientUnits="userSpaceOnUse" x1="973.9333" y1="229.723" x2="1141.4918" y2="132.9831" gradientTransform="matrix(0.3168 -0.2655 0.6424 0.7664 -131.7394 456.0878)">
		<stop  offset="0" style="stop-color:#191919"/>
		<stop  offset="1" style="stop-color:#999999"/>
	</linearGradient>
	
		<path display="inline" fill="url(#SVGID_3_)" stroke="#1E1E1E" stroke-width="6" stroke-linecap="round" stroke-linejoin="round" stroke-miterlimit="10" d="
		M285.7,344.8c1.9-8.1,9.3-24.1,24.8-37.8c18.5-16.3,35.5-21.2,43.5-23.3"/>
</g>
<g id="Ebene_2">
	<path fill="#7F7F7F" d="M1059.6,887.2c-45.3-46-58.9-55.7-77.9-84.8c-16.5-25.3-26.1-48.4-31.5-63.5
		C771,589.4,591.7,439.8,412.5,290.2c4.8,21.5,5.6,47.9,10.4,69.4l-12.6-10.5c-4.8-21.5-5.6-47.9-10.4-69.4
		c-2.9-2.4-5.7-4.8-8.6-7.2c4.1,22.1,5.9,47,10,69.1c-5-4.1-9.9-8.4-15-12.5c-3.5-21.7-4.9-46-8.4-67.7c-2.3-1.9-4.6-3.9-7-5.8
		c1.7,21.6,3.3,43.4,5,64.9c-4-3.6-8.3-6.7-12.3-10.3c-0.9-20.6-1.3-41.9-2.1-62.5c-2.7-2.3-5.4-4.5-8.1-6.8
		c0.8,20.4,0.8,41.7,1.7,62.1c-4-2.8-7.2-6.6-11.3-9.4c-0.1-20.3-0.2-40.6-0.3-61C227.4,135.5,141,63.1,78.8,11.1L203,431.2
		c36.5,20.7,83.5,49.3,135.9,86.8c50.6,36.2,86.7,66.7,113.4,89.3c55.1,46.7,96.4,86.4,140.3,129.8
		c126.2,124.6,189.3,186.9,256.3,267.1c25.7,30.8,4.1,6.5,145,195.7c24.2,32.5,56.1,75.3,78.8,140.4c10.6,30.6,16.1,57.1,19,75.2
		c22.9,20.2,56.3,49,97.6,82.4c60,48.6,96.7,78.1,150.7,112.4c67.2,42.7,115,63.5,129.7,69.7c29.1,12.3,54.3,20.9,73,26.8
		c44.2-6.3,88.4-12.5,132.6-18.8c-25.8-4.6-57.7-11.5-93.7-22.5c-58.9-17.9-102.2-38.4-119.9-47.1c-55-27.2-90.2-53.3-158.3-104.4
		c-33.4-25-77-59.2-126.7-102.2c-1.2-1-2.3-2.2-3.3-3.4c-7.1-8.5-20.2-27.1-22.4-53.2c-0.5-6.5-1.7-22.1,5.7-40.2
		c5.6-13.8,13.8-23.1,19-28.2c3.7,0.7,7.3,1.3,11,2c11.3-14.3,22-25.3,30.4-33.1c14.6-13.7,30.2-28.2,54.3-39.2
		c9.4-4.3,17.5-6.9,23.3-8.5c27.6,18.1,64.3,43.4,105.8,75.8c60.1,46.8,102.4,86.6,132.9,115.5c36.4,34.4,74.2,70.2,117.1,119.4
		c29.5,33.8,65.9,86.4,138.7,191.4c0,0,15.2,22,124.3,221.6c3.1,5.8,10.5,19.5,11.3,38.2c0.9,19.5-5.8,35.6-11.1,45.6
		c9.7,0.4,28-0.2,48.2-9.2c24.7-11.1,38.6-28.6,44.2-36.8c-5.4-28.7-14.3-66.5-29.7-109.4c-4.1-11.3-17.7-48.2-45.3-100.2
		c-11.8-22.3-29.3-53.4-87.9-138.1c-47.9-69.4-71.9-104.2-107.5-149.1c-48.9-61.8-90.3-106.7-114.5-132.8
		c-30.9-33.3-58.3-61.1-79.9-82.3c2.4,0.2,4.8,0.4,7.2,0.7c-53-38.8-98.8-71.1-135.4-96.3c-38-26.2-54.9-37.2-79.8-48.7
		c-25.2-11.6-36.5-13.6-66-28.7c-13.5-6.9-36.8-18.9-59.5-36.5c-27-20.9-33.7-34.8-65-72.3C1119.3,947.9,1099.4,927.7,1059.6,887.2z
		 M942.2,1031.3l47.6-56.9l10.6,8.9l-47.6,56.9L942.2,1031.3z M963.4,1049l47.6-56.9l10.6,8.9l-47.6,56.9L963.4,1049z M984.6,1066.7
		l47.6-56.9l10.6,8.8l-47.6,56.9L984.6,1066.7z M1005.8,1084.4l47.6-56.9l10.6,8.9l-47.6,56.9L1005.8,1084.4z M1082.5,1097.9
		l-57.5,6.6l51.6-63.1L1082.5,1097.9z M290.8,281.6c-10.5-8.7-11.9-24.3-3.1-34.8c8.7-10.5,24.3-11.9,34.8-3.1
		c10.5,8.7,11.9,24.3,3.1,34.8C316.8,289,301.2,290.4,290.8,281.6z"/>
	<path fill="#E0FFDC" d="M1156.8,1287.4c8.7-25,17-52.4,24.5-82.1c8.4-33.2,14.4-64.4,18.8-93.2c14.2,3.2,28.4,6.3,42.6,9.5
		c0.8,12.3,3.2,29.7,10.5,49.3c7.4,19.8,17.2,34.7,24.8,44.6c-14.7,7.3-33.4,18.3-52.5,34.8c-16.1,14-28.2,28.1-37,39.9
		C1178,1289.4,1167.4,1288.4,1156.8,1287.4z"/>
	<path fill="#A5A5A5" d="M1198,1113.4c-2.9-0.5-4.8-3.2-4.4-6.1c1.5-11.3,2.1-25.7-1.1-41.9c-8.3-41.8-36.3-67.2-33.7-69.5
		c2.9-2.6,34.9,33,71.2,61.2c31,24.1,61.9,40.4,88.7,51.6c5.4,2.3,3.9,10.4-2,10.6c-24.5,0.8-49,1.6-73.5,2.3c-0.4,0-0.8,0-1.2-0.1
		C1227.4,1118.9,1212.7,1116.2,1198,1113.4z"/>
	<path fill="#686868" d="M1240.1,1120.5c17.2-6.3,44.1-13.5,75.6-9.7c38,4.5,62.2,22.4,134.9,75.8c20.2,14.8,56.9,41.8,97.3,71.4
		c-29.9,7.8-51.8,5.1-66,1.6c-30.2-7.6-35.4-22.1-79.7-41.4c-21.8-9.5-39.4-16.9-63.3-17.8c-28.5-1.1-51.3,7.7-64.6,14.1
		c-7.7-10.2-17.8-25.8-25-46.8C1242.8,1149.1,1240.7,1132.5,1240.1,1120.5z"/>
	<path fill="#232323" d="M793.8,608.4c17.7,33.8,31.6,60.8,40.6,78.5c18,35.2,26.2,50,39.5,73.3c9.4,16.5,19.9,32.3,31.5,47.3
		c29.3,37.8,58.5,75.5,87.8,113.3c11.3,14.6,24.2,28,38.5,39.9l20.7,17.3c0,0,0,0,0,0c7.1-9.6,21.3-9.9,28.9-0.8
		c10.6,12.8,21.7,25.8,33.3,38.8c28,31.5,55.7,60.2,82.7,86.2c0.4-10.2,0-24.9-4-42c-4.2-17.7-10.9-32.2-19.8-47.3
		c-21.1-35.7-45.5-59.7-54.5-68.6c-62.4-61.5-93.5-92.3-115.8-121.3c-14.3-18.7-33.9-47.4-51.9-86.8
		C898.8,693.6,846.3,651,793.8,608.4z"/>
	<path fill="#D1D1D1" d="M134.5,57.7C163,167.7,197.7,298,226.2,408c29.8,18.4,71.6,44.8,120.9,78.1c16.8,11.4,46.1,31.1,69.2,47.9
		c45.4,33,70.8,57.4,178.2,161.9c116.1,113,128.9,125.8,143.7,140.7c54.7,55.4,82.1,83.2,118,124.2c48.4,55.3,81.5,99.5,108.5,135.6
		c45.4,60.8,77.5,104,113,167.3c24.5,43.7,42,81.6,53.4,108.5c44.3,37.3,88.6,74.6,132.8,111.9c1.3,10.8,2.5,21.6,3.8,32.4
		c16.3,14.1,38,31.8,64.6,50.8c50.8,36.2,92.8,58.1,127.6,76c33.6,17.3,50.9,26.1,77.4,35c32.3,10.8,60.4,15.6,80.3,18.1
		c-24.7,4-49.4,8-74.2,12c-34.1-10.8-62.6-22.3-84.8-32.2c-6.8-3-33.1-14.9-66.2-33.4c-23.7-13.2-41.3-24.5-54.6-33
		c-10.7-6.9-28.3-18.4-51.3-34.8c-52.1-37.1-92-70.6-126.2-99.4c-17.8-15-41.4-35.2-68.7-59.8c-3.5-21.4-7.9-39.1-11.7-52.1
		c-3.3-11.5-16-53.7-41.7-97.9c-6-10.4-12.3-20-13.7-22.3c-10.1-15.6-17.8-25.7-28.7-40.3c-14.9-20,29.2,38.7-31.3-42.6
		c-16.4-22.1-36.2-48.6-58.7-78.7c-3.9-5.5-9.5-13.4-16.3-22.9c-12.8-17.9-19.2-26.9-25.9-35.7c-13.5-18-24.1-30.3-40.4-49.2
		c-17-19.7-30.4-34.3-34.8-39.1c-21.6-23.3-38.5-40-46.6-47.9c-59.1-58.3-61-62.5-151.9-151.9c-47.1-46.3-59.8-58.2-69.2-66.8
		c-31.3-28.8-56.1-49.8-78.7-68.9c-34.7-29.4-52.6-44.4-79.4-64.3c-21.8-16.1-38.4-27.2-57.9-40.3c-25.1-16.8-59.4-38.8-101.5-63.6
		c-20.7-70-41.3-140-62.2-210c-21.9-73.5-43.8-147-62.2-210C97.4,26.6,115.9,42.2,134.5,57.7z"/>
	<path fill="#242626" d="M1904.6,2023c11-19.1,28.3-44.1,55-67.7c13.7-12.1,27.2-21.5,39.2-28.7c3.3,14.4,6.5,28.8,9.8,43.2
		c-6.7,9.3-21.6,27.5-47.4,40.2C1937.5,2021.7,1915.9,2023,1904.6,2023z"/>
	<path fill="#FFFFFF" d="M1751.7,1656.5l-14-20.1l-9.8-14c9.8-7.4,37.3-29.3,47.1-36.7c7.5-5.7,26.6-19.9,28.4-20.9
		c1.1,1,7.4,11.9,11.9,17.1c4.5,5.3,6.8,11.1,11.3,16.3c-12.4,9.2-14.1,11.1-26.8,20.9C1786.8,1629.2,1763.9,1646.5,1751.7,1656.5z"
		/>
	<path fill="#FFFFFF" d="M1831.9,1784.6l-10.9-19.4l-11.7-20.5c5-4.3,33.2-25,38.2-29.3c0,0,37.6-28.9,38.6-29.5
		c0.5,0.6,8.7,13.9,11,17c2.3,3.1,7.7,12.9,10,16c-6.3,5.4-27.3,25.5-33.7,31.2C1866.7,1755.9,1838.2,1778.7,1831.9,1784.6z"/>
	<path fill="#FFFFFF" d="M1806.7,1740.1l-12.6-21.3l-13.8-20.9c6.1-5.7,33.3-25.9,39.5-31.5c4.7-4.3,32.9-27.7,34-28.5
		c0.7,0.7,9.3,13.8,12.1,17.8c2.8,4,9.7,14.7,12.6,18.7c-7.7,7.1-24.4,21.9-32.4,29.5C1838.1,1711.6,1814.4,1732.5,1806.7,1740.1z"
		/>
	<path fill="#FFFFFF" d="M1776.1,1691.7l-13.1-18.9l-10-14.4c9.8-7.4,32.5-25.5,42.3-32.9c7.5-5.7,31.6-23.1,33.4-24.2
		c1.1,1,6.3,10.5,10.8,15.7c4.5,5.3,7.3,12,11.9,17.2c-12.4,9.2-18.7,14.8-31.4,24.7C1807.1,1669,1788.3,1681.7,1776.1,1691.7z"/>
	<path fill="#FFFFFF" d="M1724.6,1617.8l-13.1-18.6l-10-14c9.8-7.4,33.9-26.6,43.8-34c7.5-5.7,30.1-22.4,31.8-23.4
		c1.1,1,6,9.4,10.5,14.6c4.5,5.3,8.1,12.6,12.6,17.9c-12.4,9.2-17.5,14.5-30.2,24.4C1757.1,1594.7,1736.8,1607.8,1724.6,1617.8z"/>
	<path fill="#FFFFFF" d="M1700.3,1583.6l-13.9-19l-10.2-14c9.8-7.4,31.5-24.9,41.4-32.3c7.5-5.7,32.1-23.8,33.9-24.9l10.9,14.4
		l13,17.7c-12.4,9.2-20.3,16.4-33,26.3C1729.5,1561.9,1712.5,1573.6,1700.3,1583.6z"/>
	<path fill="#FFFFFF" d="M1674.8,1549.1l-14.9-18.8l-11.3-13.3c9.8-7.4,31.5-24.9,41.4-32.3c7.5-5.7,32.9-24.4,34.7-25.4
		c1.1,1,7.8,10.2,12.3,15.4c4.5,5.3,8.2,11.1,12.7,16.3c-12.4,9.2-22.3,17.2-34.9,27.1C1701.8,1528.2,1687,1539.1,1674.8,1549.1z"/>
	<path fill="#FFFFFF" d="M1646.8,1514.9l-16.4-18.3l-12.6-13.6c9.8-7.4,32.1-24.3,42-31.7c7.5-5.7,28.5-21.5,36-27.2
		c4.5,5.2,8.3,10.2,12.8,15.4c4.5,5.3,9,11.3,13.6,16.6c-12.4,9.2-24.9,18.8-37.6,28.6C1671.6,1494.9,1659.1,1504.9,1646.8,1514.9z"
		/>
	<path fill="#FFFFFF" d="M1616.7,1481.8c-6.5-6.2-26.8-27.9-31.3-32.1c28.9-21.6,51.3-39,80.2-60.6c4.5,5.2,9.1,10.4,13.6,15.6
		c4.5,5.3,9,10.5,13.5,15.8C1680,1430.7,1680,1430.7,1616.7,1481.8z"/>
	<path fill="#FFFFFF" d="M1584.5,1448.9c-2.6-2.5-14-13.8-16.6-16.3c-2.2-2.1-13.8-13.3-16-15.4c13.8-10.4,27.7-20.7,41.5-31.1
		c13.8-10.4,27.7-20.7,41.5-31.1l12.5,13.8l15.2,16.9c-12.9,10.4-25.8,20.9-38.6,31.3C1610.8,1427.6,1597.7,1438.3,1584.5,1448.9z"
		/>
	<path fill="#FFFFFF" d="M1551.7,1417c-6.5-6.2-10.7-10.2-17.3-16.4c-4.5-4.2-11.3-10.7-15.8-14.9c28.9-21.6,56.6-42.5,85.4-64
		l13.3,14.4l14.7,16C1604.2,1374.3,1579.5,1394.7,1551.7,1417z"/>
	<path fill="#FFFFFF" d="M1516.9,1384.1c-6.5-6.1-11.1-10.4-17.9-16.6c-4.7-4.3-11.4-10.4-16-14.5c15.8-11.7,74.7-55,88.3-65.1
		c4.5,4.6,9,9.2,13.6,13.9c5.1,5.2,10.1,10.5,15,15.7C1572.2,1339.7,1544.5,1361.9,1516.9,1384.1z"/>
</g>
</svg>
