<?xml version="1.0" encoding="UTF-8" standalone="no"?>
<!-- Created with Inkscape (http://www.inkscape.org/) -->

<svg
   xmlns:dc="http://purl.org/dc/elements/1.1/"
   xmlns:cc="http://creativecommons.org/ns#"
   xmlns:rdf="http://www.w3.org/1999/02/22-rdf-syntax-ns#"
   xmlns:svg="http://www.w3.org/2000/svg"
   xmlns="http://www.w3.org/2000/svg"
   xmlns:xlink="http://www.w3.org/1999/xlink"
   xmlns:sodipodi="http://sodipodi.sourceforge.net/DTD/sodipodi-0.dtd"
   xmlns:inkscape="http://www.inkscape.org/namespaces/inkscape"
   version="1.1"
   viewBox="0 0 256 256"
   id="svg22"
   sodipodi:docname="Azathoth.svg"
   inkscape:version="0.92.3 (2405546, 2018-03-11)">
  <defs
     id="defs26">
    <linearGradient
       inkscape:collect="always"
       id="linearGradient848">
      <stop
         style="stop-color:#000000;stop-opacity:1;"
         offset="0"
         id="stop844" />
      <stop
         style="stop-color:#000000;stop-opacity:0;"
         offset="1"
         id="stop846" />
    </linearGradient>
    <radialGradient
       inkscape:collect="always"
       xlink:href="#linearGradient848"
       id="radialGradient850"
       cx="132.05234"
       cy="924.44111"
       fx="132.05234"
       fy="924.44111"
       r="75.49981"
       gradientTransform="matrix(1,0,0,1.6402847,0,-591.90549)"
       gradientUnits="userSpaceOnUse" />
    <radialGradient
       inkscape:collect="always"
       xlink:href="#linearGradient848"
       id="radialGradient845"
       gradientUnits="userSpaceOnUse"
       gradientTransform="matrix(1,0,0,1.6402847,0,-591.9055)"
       cx="132.05234"
       cy="924.44111"
       fx="132.05234"
       fy="924.44111"
       r="75.49981" />
  </defs>
  <sodipodi:namedview
     pagecolor="#ffffff"
     bordercolor="#666666"
     borderopacity="1"
     objecttolerance="10"
     gridtolerance="10"
     guidetolerance="10"
     inkscape:pageopacity="0"
     inkscape:pageshadow="2"
     inkscape:window-width="1920"
     inkscape:window-height="1017"
     id="namedview24"
     showgrid="false"
     inkscape:zoom="1.8437501"
     inkscape:cx="110.53052"
     inkscape:cy="130.9602"
     inkscape:window-x="1912"
     inkscape:window-y="-8"
     inkscape:window-maximized="1"
     inkscape:current-layer="g20" />
  <style
     id="style2">svg { cursor: default;}</style>
  <metadata
     id="metadata4">
    <rdf:RDF>
      <cc:Work
         rdf:about="">
        <dc:format>image/svg+xml</dc:format>
        <dc:type
           rdf:resource="http://purl.org/dc/dcmitype/StillImage" />
        <dc:title />
      </cc:Work>
    </rdf:RDF>
  </metadata>
  <g
     transform="translate(0 -796.36)"
     id="g20">
    <flowRoot
       font-size="40px"
       letter-spacing="0px"
       word-spacing="0px"
       style="font-feature-settings:normal;font-variant-caps:normal;font-variant-ligatures:normal;font-variant-numeric:normal;line-height:1.25"
       xml:space="preserve"
       id="flowRoot12"
       writing-mode="lr"
       font-family="'R' lyehian '"
       fill="black"><flowRegion
         id="flowRegion8"><rect
           x="26.163"
           y="21.948"
           width="195.87"
           height="195.16"
           id="rect6" /></flowRegion><flowPara
         id="flowPara10" /></flowRoot>    <text
       x="31.819807"
       y="841.64435"
       font-size="40px"
       letter-spacing="0px"
       word-spacing="0px"
       style="font-feature-settings:normal;font-variant-caps:normal;font-variant-ligatures:normal;font-variant-numeric:normal;line-height:1.25"
       xml:space="preserve"
       id="text16"
       fill="#000000"><tspan
         x="31.819807"
         y="878.13757"
         id="tspan14" /></text>
    <path
       style="font-variant-ligatures:normal;font-variant-caps:normal;font-variant-numeric:normal;font-feature-settings:normal;fill:#ff5555;stroke:url(#radialGradient845);stroke-opacity:1"
       d="m 202.3457,801.11781 c -9.49079,4.46191 -17.84296,-0.88212 -27.46057,1.90221 -5.78708,1.83093 -10.00235,8.46708 -17.91948,5.33116 -15.13095,-2.03396 -30.6332,-1.81426 -45.85261,-1.14544 -11.00749,5.54204 -22.280302,-1.91462 -33.687259,-0.29496 -9.676734,3.19759 -12.364002,15.92194 -12.281075,25.06281 -0.575552,17.87405 -3.675216,35.45771 -6.714393,53.03228 -2.399432,14.47259 -1.067794,29.09376 0.47789,43.55921 -0.235741,27.71585 -2.021392,55.4353 -0.458987,83.15462 0.850931,10.2913 0.125543,23.4628 9.506877,30.1835 9.391449,4.5273 20.328578,1.6334 30.36893,1.7753 18.985317,-0.488 38.771737,-4.2553 57.097517,2.4686 9.55158,3.8697 20.5583,-4.5961 28.98746,1.5122 6.3406,-3.9331 20.96154,5.1713 21.41509,-6.355 0.25744,-11.2982 -5.18421,-22.3018 -2.6947,-33.5498 -0.58017,-11.82136 -2.03427,-23.59427 -1.04532,-35.45654 1.01057,-11.91254 3.40996,-23.70868 2.49447,-35.71647 2.5985,-11.51393 1.06237,-23.18611 0.39158,-34.89333 -0.44891,-18.78259 4.8212,-37.74924 -0.30961,-56.31763 -4.68913,-13.44333 1.24021,-27.13238 0.9551,-40.78163 0.0665,-1.77066 -1.40683,-3.54939 -3.27091,-3.47109 z m -73.49804,9.97657 c 11.59549,1.52641 23.26409,1.59875 34.94662,1.61052 11.92985,0.54652 -10.31194,0.21435 -14.71351,1.9577 -7.77595,1.56211 -15.93168,1.88047 -23.65776,2.34707 6.88195,5.88453 16.82366,10.19733 21.9054,18.87732 3.04242,7.28468 13.49791,12.53363 13.59486,19.90601 -8.49395,3.08439 -17.03811,-7.27553 -26.94581,-4.68653 -6.96983,0.092 -18.74895,-2.72317 -22.5748,-1.30074 11.49693,13.79936 28.02347,22.73704 37.53764,38.26415 7.42097,10.81472 16.57205,21.45299 17.26646,35.24289 2.14739,15.80055 -1.14145,34.14455 -14.09543,44.67814 -3.47161,3.54563 -13.95597,11.93453 -12.68488,11.59649 13.11836,-9.89872 29.71597,-18.88241 33.65167,-36.21758 4.71305,-13.10061 0.89227,-27.17947 -5.47199,-38.98192 -5.02105,-13.25641 -11.22748,-26.39085 -21.47453,-36.4633 -8.05639,-11.30062 10.28255,-2.24945 13.2909,2.72247 2.93556,8.05603 12.27509,9.72994 10.88856,-1.08625 0.223,-10.31644 -3.25675,-20.61247 -7.32699,-30.01601 -2.32367,-6.23786 -18.9044,-10.56435 -5.4851,-15.66882 14.12145,-1.54133 21.96776,11.84549 27.21001,22.78093 7.63562,-5.14811 -0.0552,-18.97778 -2.55013,-26.46282 -2.11885,-4.62692 -12.94373,-7.92807 -2.95874,-4.2058 9.70956,6.33686 14.33149,18.66433 18.4639,29.14413 3.9758,16.01904 -1.12289,32.29306 0.26529,48.4819 1.0387,17.91195 0.41806,35.84699 0.73144,53.74465 -2.58427,12.97479 -2.54198,26.19448 -3.41992,39.34736 0.579,11.94455 1.95133,24.31446 -2.78165,35.67486 1.31043,15.759 -15.86949,17.006 -27.26803,14.5756 -13.7315,1.7369 -29.3413,-5.9432 -34.25258,-19.2449 -0.62242,-7.8802 -7.14849,-26.56044 7.56881,-21.29605 10.52974,-3.05754 19.13943,3.91165 20.57332,14.19395 5.09669,-5.8395 3.37961,-16.90223 2.53771,-24.29532 -8.61296,-4.88093 -19.23315,3.04397 -28.97791,1.00398 -8.90297,-2.78469 3.36277,-16.29727 5.24663,-22.68203 4.13951,-6.92042 6.28042,-14.21417 -3.88283,-10.27842 -8.21208,-6.33116 -7.09039,14.51227 -14.18593,2.68563 -2.55821,-8.5259 -21.361479,-6.78921 -11.14301,1.93054 10.07118,3.54722 11.0521,17.6306 3.83548,24.41994 -7.82352,10.51446 -25.25293,-6.50303 -28.736368,5.7377 2.84875,7.51809 -7.257131,19.30628 -0.602124,23.77688 5.012689,-6.8552 7.962198,-20.91931 20.373142,-16.6435 5.98401,-0.94576 16.14826,-1.59017 11.68304,7.6066 -1.90943,9.4736 -1.57685,20.5115 -10.3855,26.8744 -8.637705,8.8535 -22.624174,4.3274 -33.491993,4.7802 -5.811345,-7.9978 -3.596093,-19.3073 -4.805826,-28.7393 -2.179063,-16.4784 -2.176675,-33.08412 -1.525361,-49.65893 -0.50577,-24.15397 -0.834663,-48.3486 0.0095,-72.49468 2.231246,-16.38207 6.666318,-32.48548 6.887801,-49.11951 0.589274,-8.29059 -0.01679,-25.54578 13.118806,-20.4661 8.853894,-1.21857 17.605866,2.08346 26.413136,1.59266 5.74279,-2.52927 10.46679,-6.42373 17.39862,-5.54616 z M 109.625,837.86977 c -10.846923,0.67342 -21.625657,2.6723 -32.503906,1.38671 -11.688489,2.78059 10.328601,2.52479 8.129301,11.2952 1.930541,15.89713 -8.824822,30.38699 -6.829001,46.39506 1.44621,21.69958 4.388621,44.44819 17.630711,62.49949 3.540167,4.67771 11.013965,18.03792 16.193065,13.25803 -5.06595,-8.1415 -11.76958,-16.18528 -15.688529,-25.31106 -6.196529,-17.24565 -4.504793,-36.05466 -2.095694,-53.82675 2.288575,-11.56156 7.750063,-22.12792 12.960933,-32.58731 9.85677,-5.4014 -2.73776,-9.12345 -3.06055,-14.32031 3.49871,-4.82374 20.02062,4.03922 14.43229,-6.64954 -2.24205,-2.50316 -6.17618,-1.90618 -9.16862,-2.13952 z m 11.52344,47.19921 c -10.40305,0.51281 -10.63723,17.24633 -5.52892,23.64862 7.49513,8.11865 15.495,0.16946 13.57186,-8.88121 -0.0119,-5.73519 0.32715,-15.27191 -8.04294,-14.76741 z"
       id="path18"
       inkscape:connector-curvature="0" />
  </g>
</svg>
