<?xml version="1.0" encoding="UTF-8"?>
<svg cursor="default" version="1.1" viewBox="0 0 256 256" xmlns="http://www.w3.org/2000/svg" xmlns:cc="http://creativecommons.org/ns#" xmlns:dc="http://purl.org/dc/elements/1.1/" xmlns:rdf="http://www.w3.org/1999/02/22-rdf-syntax-ns#">
 <metadata>
  <rdf:RDF>
   <cc:Work rdf:about="">
    <dc:format>image/svg+xml</dc:format>
    <dc:type rdf:resource="http://purl.org/dc/dcmitype/StillImage"/>
    <dc:title/>
   </cc:Work>
  </rdf:RDF>
 </metadata>
 <g stroke-linecap="round" stroke-linejoin="round" stroke-width=".34043">
  <g fill="#ff2a2a" stroke="#ff2a2a">
   <path d="m239.6 202.67c-89.026-40.766-159.31-67.032-219.93-86.969l-11.287-3.7121 14.908-0.95814c17.701-1.1377 50.44-1.6634 60.755-0.7651 6.1308 0.53388 7.2645 0.84813 8.9937 1.7765 4.1669 2.237 10.018 5.699 18.921 9.41 26.494 11.042 95.558 36.51 122.98 45.888 9.0659 3.1002 9.745 2.9513 10.374 4.1782 1.4992 2.9222 4.1612 15.859 5.9183 26.355 0.87038 5.1995 1.3252 10.487 1.0867 10.46 0 0-6.1701-2.6632-12.723-5.664z" style="paint-order:markers fill stroke"/>
   <path d="m150.77 113.26c-2.9581-0.43496-17.627-1.9654-24.17-2.5217-21.661-1.8416-49.98-2.6117-68.84-2.5568-15.153 0.044-40.203 0.55434-51.586 1.5666l-2.7385 0.55751-0.20381-1.7582c0.047904-7.2186 1.6916-15.421 5.6001-22.868l1.7465-3.3278 1.2824 0.45247c2.1486 0.75808 15.976 3.0441 26.178 4.0102 7.7879 0.73748 36.234 0.83889 48.198 0.17065 11.237-0.62763 57.069-4.0204 61.69-3.4954l3.4494-0.58551c-0.2598 0.89363 0.0265 1.232-0.87601 3.2605-2.6322 5.9161-1.7694 16.848 2.4633 25.233 0.64299 1.2738 1.6362 3.171 1.3657 3.1449-0.23674-0.0228-2.5288-1.1314-3.5586-1.2828z" style="paint-order:markers fill stroke"/>
   <path d="m225.57 120.22c-4.1141-1.7846-7.0442-2.689-15.656-2.6765-6.8302 0.01-8.3084 1.1084-8.13 0.64858 0.11134-0.28708 0.67677-3.6577 1.1384-5.247 2.6858-9.2459 1.4419-17.539-0.4631-25.44l-2.137-3.4156 2.8024 1.0958c7.7645 3.036 14.101 1.439 16.399 2.482 1.4531 0.65945 2.4698 1.6171 3.2269 3.5083 1.7414 4.3499 5.8273 12.716 7.3022 21.704 0.89517 5.4547-0.24587 9.0676-0.66241 9.011-1.2996-0.2123-2.6035-1.1428-3.8205-1.6708z" style="paint-order:markers fill stroke"/>
  </g>
  <path d="m165.36 114.13c-1.6492-1.8783-3.5815-5.0965-4.5867-7.9824-0.85065-2.4423-1.0433-3.5586-1.0364-7.5321 7e-3 -3.9212 0.21304-5.2384 1.0587-7.8022 0.77812-2.3591 3.362-6.3762 3.8223-6.8941 0.0553-0.06224 1.1987 1.3997 2.5408 2.4222 5.3374 4.0664 9.4415 5.3872 14.163 4.1573 2.6833-0.69891 5.0323-1.7552 7.3644-3.9277l2.2703-2.115 1.8343 3.2131c2.0694 4.3288 3.0746 7.6981 3.1121 12.722 0.0331 4.4275-0.67548 6.8195-2.0648 11.243l-0.91725 3.1926-2.8477-1.2202c-3.4634-1.5812-5.5976-2.0515-9.5137-2.0261-4.0046 0.0259-6.6258 0.16771-10.685 2.0642-1.5706 0.7337-3.0884 2.2034-3.1367 2.2034s-0.82759-1.0921-1.3775-1.7184z" fill="#ff7f2a" stroke="#ff7f2a" style="paint-order:markers fill stroke"/>
  <path d="m193.28 124.56c-2.3017-1.2151-5.9159-2.9562-8.6123-3.4337-5.0788-0.89935-11.805 1.0821-16.731 2.4131l-3.372 0.91119-2.797-3.2048c-4.5604-5.2252-8.1569-10.306-10.179-16.431-0.89763-2.7193-1.2224-3.7537-0.77228-9.3341l0.47271-5.8609 1.0983-4.7107c0.87371-3.7475 3.18-7.8199 4.747-9.758l1.0602-1.0495 2.1361 1.921c6.6761 4.5011 14.529 5.9627 20.708 4.645 3.0038-0.64056 6.1115-1.5568 8.9453-3.5446l2.2646-2.0734 2.3833 2.9948c1.7673 2.2207 6.5335 8.8213 7.7446 14.177 0.60567 2.4401 1.145 4.6353 1.1578 8.7294 0.0176 5.6162-0.74626 8.7874-2.5114 14.151-1.006 3.0566-4.9206 10.108-5.2894 10.077-0.10698-9e-3 -1.4235-0.0744-2.4533-0.61807zm-22.655-8.6056c4.1887-2.0894 6.6022-2.9144 10.395-2.9144 3.513 0 6.142 0.62297 9.455 2.2405 3.3003 1.6113 2.8218 1.6989 3.8299-0.84581 2.2678-5.7246 3.4231-12.41 2.6413-17.757-0.77046-5.2692-2.5236-10.607-4.959-13.545l-0.9801-1.6652-2.0179 3.4433c-6.7944 6.4913-13.953 6.1314-21.851-0.29684-3.3868-2.7567-3.702-3.283-5.0794-0.86728-2.9798 5.226-4.3153 10.702-4.0431 16.576 0.19425 4.1918 0.83021 6.669 2.6246 10.224 1.5629 3.096 5.1328 7.4984 6.0806 7.4984 0.10835 0 2.0243-1.1534 3.9035-2.0908z" fill="#ff7f2a" stroke="#ff7f2a" style="paint-order:markers fill stroke"/>
 </g>
 <g fill="none" stroke="#000" stroke-width="2.173px">
  <path d="m158.24 73.03c21.35 16.286 33.616 0.24369 33.819 1.0536 24.425 22.652 4.1334 52.943 4.1334 52.943-16.158-10.536-31.188-1.5804-31.188-1.5804-29.873-27.393-6.7638-52.416-6.7638-52.416z"/>
  <path d="m193.18 115.96c8.6426-19.755-2.2546-32.661-2.2546-32.661-14.038 15.937-25.873-0.70666-27.055-0.26341-12.4 21.072 3.0061 33.715 3.0061 33.715 15.255-9.9621 26.035-0.36051 26.304-0.79021z"/>
  <path d="m200.89 119.12c6.0457-0.28168 18.714-2.4925 28.934 3.9509 4.2947-3.9246-4.4442-32.643-8.8305-35.295-3.298 1.1223-19.394-4.8321-20.667-3.6876"/>
  <path d="m156.17 115.17c-49.684-6.5491-107.68-7.6776-153.5-3.951-0.67586-11.289 2.5137-21.1 7.3274-30.291 33.478 11.009 90.938 3.915 142.79 1.0536"/>
  <path d="m2.6694 111.22c79.661 22.919 160.77 56.986 250.26 98.247 1.7059-1.025-5.7099-39.937-8.8305-39.773-3.1511 0.16535-151.96-55.041-151.62-59.001-30.662-3.8988-60.086-0.84949-89.808 0.52681z"/>
 </g>
 <path d="m165.45 113.44c-1.7764-2.2126-3.7866-6.2107-4.509-8.9679-0.81202-3.0993-0.7363-8.3756 0.16872-11.756 0.7173-2.6795 2.8207-7.6918 3.2279-7.6918 0.11967 0 1.1899 0.7748 2.3782 1.7218 7.6983 6.1346 15.621 6.1587 22.395 0.06806 0.89986-0.80906 1.6988-1.471 1.7755-1.471 0.0767 0 0.7348 1.2554 1.4625 2.7897 3.4186 7.2079 3.7968 15.268 1.106 23.568l-0.84468 2.6058-1.8892-0.95365c-6.3878-3.2246-14.569-2.9714-21.51 0.66567l-2.3201 1.2158z" fill="#ff2a2a" stroke="#ff2a2a" stroke-linecap="round" stroke-linejoin="round" stroke-width=".31882" style="paint-order:markers fill stroke"/>
</svg>
