<?xml version="1.0" encoding="UTF-8"?>
<svg cursor="default" version="1.1" viewBox="0 0 256 256" xmlns="http://www.w3.org/2000/svg" xmlns:cc="http://creativecommons.org/ns#" xmlns:dc="http://purl.org/dc/elements/1.1/" xmlns:rdf="http://www.w3.org/1999/02/22-rdf-syntax-ns#">
 <metadata>
  <rdf:RDF>
   <cc:Work rdf:about="">
    <dc:format>image/svg+xml</dc:format>
    <dc:type rdf:resource="http://purl.org/dc/dcmitype/StillImage"/>
    <dc:title/>
   </cc:Work>
  </rdf:RDF>
 </metadata>
 <g stroke-linecap="round" stroke-linejoin="round" stroke-width=".25617">
  <path d="m182.86 199.71c-3.5536-2.2695-10.293-8.6398-13.312-12.721-2.1218-2.8681-2.7051-4.7181-2.5243-6.2447 0.18416-1.5549 0.84601-2.4665 2.818-4.09 1.4663-1.2072 1.945-1.2582 1.8255-2.3182-0.1257-1.1152-1.0506-1.9864-2.6685-4.1444l-1.3118-1.6856 0.20977-4.9748c-0.0769-8.1351-1.1201-13.62-7.449-37.957-2.739-10.532-4.0567-15.864-5.0344-20.733l-0.94785-4.3383 2.2625-1.3172c2.3878-1.9023 4.5519-4.2718 5.2856-5.7875l0.1433-1.2861 0.14493-5.0528c-0.16686-2.8143-0.78327-6.4942-0.74362-6.5339 0.0397-0.03965 1.8283 1.6424 2.4092 2.0159 1.0122 0.65075 0.77512 0.8076 1.6735 3.7642 1.5879 5.2259 1.7447 6.6662 3.1761 8.9461l1.7011 1.8794 0.057 2.9824c-7e-3 2.608-0.23152 3.089-0.94376 4.03-0.84558 1.1172-1.0309 0.90153 0.3936 3.2432 3.7881 6.2268 9.1942 11.366 11.528 11.394 0.87086 0.0105 1.9893-1.1246 3.6224-4.5366 1.8853-3.9388 3.4666-8.4022 3.4666-9.7846 0-0.78716-0.67345-0.8295-1.6921-1.9724-1.2338-1.3843-1.1171-1.7974-1.2855-3.9888-0.16758-2.1802 0.037-2.6304 1.1433-5.434 0.61652-1.5624 1.1945-3.2428 1.2844-3.4994 0.15548-0.44361 0.51833-0.24849 1.1892 0.25316 0.38803 0.29014 0.9471 0.85229 1.3206 1.171l0.55109 0.8996 1.6507 34.519c1.1792 24.66 0.84908 34.94 1.0856 35.672 0.18233 0.56357 1.1928 1.9721 1.7759 3.2867 1.9105 4.3072 2.6738 6.4588 2.6936 10.098 0.0149 2.7367-0.37631 3.6526-0.80898 4.4189l-1.5309 1.7932 0.18092-2.4124c0.17548-2.3399-1.2096-2.8664-3.9365-2.5977-1.5416 0.15191-2.1792-0.14405-2.6467-0.61156-0.28955-0.28956-0.25243-0.33433-0.54372-0.33433-1.1324 0 0.0112 1.5568 1.1984 1.639 0.30141 0.0208 1.1762-0.4375 2.0222-0.4706 1.2373-0.0484 2.1211 0.10975 2.6748 0.54529 0.66879 0.52607 0.62654 0.69225 0.70329 3.6611l0.079 3.632-2.5476 0.79621c-2.6863 0.83955-6.0592 2.6795-7.5711 4.1596-1.0632 1.0409-1.0886 1.1052-1.0829 2.7417 3e-3 0.92169 0.37336 3.1084 0.50949 4.8594 0.13612 1.751 0.2757 3.988 0.2319 4.0318s-1.2305-0.69466-1.8544-1.0931z" fill="#f55" stroke="#f55" style="paint-order:markers fill stroke"/>
  <path d="m205.55 243.79c-0.21134-0.0414-1.441 0.29712-2.4977 0.1261-2.5591-0.41419-6.1159-1.7638-8.3569-2.9403-3.5564-1.8671-8.5851-4.8509-10.1-8.7068l-1.052-1.6651 0.23575-2.2415c0.26506-2.966 1.1177-6.9836 2.3831-11.939l1.4745-4.1359-0.58149-2.6898c-0.52782-3.82-0.94944-7.5426-1.4077-13.321l-0.41138-5.1874 1.4661-1.2168c1.66-1.3777 4.5886-3.1368 7.3996-4.1231 2.01-0.70528 2.6638-1.1024 5.5558-1.1148 3.0044-0.0128 3.6768 0.22293 5.0502 0.89735 1.6915 0.83064 3.2297 2.776 4.1985 4.7562 0.76898 1.5717 0.78194 1.7272-0.501 6.693-1.3 5.032-2.3527 9.0982-2.5252 13.165l0.30006 3.4947 1.4153 3.55c1.5934 3.0353 5.0842 8.6549 7.1277 12.196 0.32526 0.56358 1.6183 1.7369 2.482 2.6857s1.5501 2.357 1.6818 2.8162c0.30646 1.0686 0.56739 5.6115 0.26317 6.4117-0.54165 1.4246-6.1442 3.0981-10.752 3.0426-1.3552-0.0163-2.573-0.19169-2.7843-0.23309z" fill="#fd5" stroke="#fd5" style="paint-order:markers fill stroke"/>
  <path d="m183.71 213.47c-2.399-1.4451-4.8823-3.2867-7.701-6.2597-2.9021-3.061-3.0956-3.8071-3.7017-6.1452-0.33897-1.3075-0.89689-8.2002-0.94909-11.236-6e-3 -0.33025 1.5982 2.1797 4.1544 4.6783 3.6531 3.5709 6.2948 5.9834 8.6758 6.8358l1.5031 0.53811-0.28062 2.5755c0.0922 1.2052 0.66551 3.5179 0.8826 4.9829 0.44064 2.9733 0.37383 4.8298-0.30047 4.8287 0.022 0.70411-1.4376-0.28922-2.283-0.79847z" fill="#f95" stroke="#f95" style="paint-order:markers fill stroke"/>
  <path d="m181.28 227.65c-1.0581-1.3468-1.1735-1.7605-1.4197-3.42-0.80024-5.3951-1.2069-8.4308-2.3487-10.975-0.54621-1.2171-1.4654-1.3915-2.8646-2.4823l-1.6738-1.739 0.31621-1.3831c0.1387-0.72548 0.65397-2.1766 0.67541-2.2072 0.0214-0.0306 1.4997 1.963 2.972 3.4125 1.4723 1.4496 2.9961 3.1677 3.7776 3.7397 1.2444 0.91084 4.4038 2.2276 5.1592 2.4849 0.16867 0.0574-0.0647 0.84342-0.30865 1.754-0.70958 2.6483-1.6344 7.6187-1.9418 10.016l-0.37116 2.8436z" fill="#f55" stroke="#f55" style="paint-order:markers fill stroke"/>
  <path d="m177.39 222.87c-1.7576-2.4943-2.0614-3.5608-2.3632-6.5599-0.15367-1.5269-0.0236-3.2634 0.0542-3.3894 0.51107-0.82693 2.1257-0.31293 2.783 4.0619 0.44605 1.5108 1.9917 8.2304 1.1536 7.6595-0.30047 0.4926-1.0585-0.96451-1.6276-1.7722z" fill="#ff8080" stroke="#ff8080" style="paint-order:markers fill stroke"/>
  <path d="m200.16 246.81c-8.0337-1.4563-12.968-5.2684-16.955-11.977-0.5442-0.9158-1.4602-1.9789-1.8006-2.7538-0.77256-1.7583-0.0143-1.6553-0.53889-1.454-0.60139 0.23078-0.47365-0.22351 0.41429 1.5355 0.42753 0.84694 0.90105 2.0989 0.81743 2.2342-0.2212 0.35791-3.3442 0.49359-3.8444 0.11792-0.27905-0.20959-0.55626-1.4369-0.80244-2.9459-0.48553-2.9764-0.92119-9.0516-0.60466-8.7098 0.58499 0.63174 6.1499 8.0065 6.9328 9.158 1.2463 1.8331 4.4639 5.1195 6.4361 6.5697 7.2882 5.3594 18.261 8.0633 25.949 5.4814 0.99218-0.33322 2.4864-1.5892 2.5378-1.5387 0.0513 0.0505-0.4159 1.7675-0.72525 2.4065-0.47545 0.98215-1.1119 1.5268-2.0146 1.771-3.703 1.0019-10.752 1.2999-14.521 0.61686z" fill="#f95" stroke="#f95" style="paint-order:markers fill stroke"/>
  <path d="m179.34 117.28c-1.4019-0.89987-3.5388-3.1453-5.6039-5.8739-1.6723-2.2096-3.9885-5.982-3.9885-6.2883 0-0.10292 0.41629-0.62901 0.76852-1.0908 0.5649-0.74063 0.64023-0.96279 0.63877-2.842l0.12608-3.2832c1.3548 1.6438 2.7934 3.2444 4.1926 4.611 1.8162 1.774 3.8757 4.0977 4.0363 4.0965 0.3002-2e-3 1.5848-1.9625 3.9408-6.0136l1.7916-3.5265-0.12609 2.5269c2e-3 1.2801-0.23091 1.4754 0.96228 2.8526 0.80628 0.93071 1.9853 1.3972 1.9853 1.8032 0 1.5743-3.8578 10.918-5.3866 13.065-0.66865 0.93902-1.6568 1.1978-3.0808 0.28367z" fill="#fd5" stroke="#fd5" style="paint-order:markers fill stroke"/>
  <path d="m175.96 102.54c-3.1417-3.0105-5.4617-5.9127-6.9212-8.3799-0.88685-1.4991-1.0016-3.0606-2.8267-8.9005l-1.0309-1.7617 0.77981-2.9774c1.1741-6.2973 2.2528-11.323 4.2504-15.504 1.0268-2.1493 4.2326-6.4223 5.6744-8.1795l0.59502-1.2375 2.8907 2.9026c3.8484 3.8643 6.3063 7.8625 8.126 13.107 1.5094 4.3503 2.1165 6.2077 1.9262 8.5482-0.36374 4.4756-2.0602 10.91-4.5219 16.064-1.3152 2.7535-5.0658 8.7934-5.5012 9.0624-0.10945 0.0677-1.8691-1.2372-3.4406-2.7431z" fill="#fd5" stroke="#fd5" style="paint-order:markers fill stroke"/>
  <path d="m157.49 93.691c-0.0914-1.3803-0.16678-2.9444-0.16751-4.1802-1e-3 -2.0227-0.16496-2.6614-1.6412-7.557-2.3142-7.6746-2.8155-8.0639-2.3311-8.0639 0.22366 0 2.0332 0.31924 2.9253 0.47459l2.1984-0.16583-0.12808 1.838c-0.098 1.4059-0.0479 1.4633 1.3573 2.9766 0.72713 0.78306 1.1249 1.5566 1.3745 3.4583 0.15719 1.1976 0.29529 3.9331 0.38516 6.0006l-0.15682 3.7591-0.40908 1.3643c-0.43634 0.67992-1.152 1.5867-1.6008 2.0808l-1.64 1.8052z" fill="#ff8080" stroke="#ff8080" style="paint-order:markers fill stroke"/>
  <path d="m153.19 72.592-3.5618-0.36638-0.88147-1.9853c-1.0517-2.3688-2.1087-6.6752-2.1113-8.498l0.19013-2.0297 1.0247 0.67084c0.81858 0.40742 4.9651 1.182 9.5423 1.7825 1.7612 0.23107 3.3367-0.30498 3.8854 0.45254 0.52384 0.0657-0.22162 1.1025-0.92289 3.2507-0.56636 1.7348-1.0358 4.0765-1.278 5.2036-0.42422 1.9744-0.21161 2.7555-0.93433 2.8-0.4126 0.02539-2.9934-0.90322-4.9524-1.2808z" fill="#f95" stroke="#f95" style="paint-order:markers fill stroke"/>
  <path d="m162.89 81.066c-1.5484-1.1399-4.1952-3.5527-4.2427-4.0734-0.069-0.75523 0.35397-2.5758 0.70065-4.3188 1.885-9.4773 7.3161-22.825 12.94-27.202l1.4791-1.1512 1.5473 0.40486c2.3388 1.626 7.7207 7.3678 9.1942 9.7612 3.3211 5.3944 4.9258 12.586 4.8865 19.084l0.18203 3.2662-0.90118-3.9066c-1.3837-4.4994-3.3247-8.4079-5.9013-11.884-1.3186-1.7787-5.9097-5.9842-6.3702-5.9842-0.43137 0-3.4998 3.5626-5.1753 6.3754-2.7901 4.6839-4.2318 9.9009-5.7454 17.212l-0.87239 3.606z" fill="#fd5" stroke="#fd5" style="paint-order:markers fill stroke"/>
  <path d="m189.71 66.412c-0.77568-2.5426-0.90755-4.8672-1.3092-5.9243l-0.97886-1.3559 1.3136-1.1289c1.3004-1.042 2.3502-1.4947 2.6221-1.2227 0.25503 0.25503 1.4324 5.0994 1.704 7.191 0.19507 1.5023-0.14285 1.6666-1.6986 2.8987l-1.2969 0.70952z" fill="#f95" stroke="#f95" style="paint-order:markers fill stroke"/>
  <path d="m156.23 60.773c-5.6673-0.86563-8.0189-1.1196-8.7156-1.5761-0.29629-0.19414-0.29924-1.1448-0.63276-1.956-0.33351-0.81121-1.6333-3.6652-2.8885-6.3421-3.8341-8.1773-5.7154-11.774-6.8444-15.945l-0.60635-2.4325 1.268-1.9635c0.91301-1.3672 3.1271-2.97 3.8619-2.97 0.38631 0 2.5137 4.111 3.6376 7.4289 1.4245 4.2051 1.8331 6.2761 2.066 6.2761 0.52945 0 1.6376-1.2218 2.7378-3.0184 0.6658-1.0873 1.1208-2.4284 1.4024-2.7454l0.38402-0.57631-1.5338-5.7672c-1.0901-3.2776-2.4262-6.2909-2.4994-6.8526-0.12481-0.95822 0.12862-1.5914 1.1843-2.4663 2.0093-1.6655 6.0373-3.8706 6.9122-3.8706 0.5354 0 2.67 6.1159 3.4527 10.183 0.24404 1.268 0.13772 2.8255 0.23336 3.3045 0.25199 1.262 0.76862 1.4887 2.1716 0.9529 1.7-0.64925 4.2545-2.3742 4.5004-3.039 0.13781-0.37253-0.28895-0.88456-0.50484-1.2171-0.74207-1.1432-2.1486-11.487-1.9812-14.121 0.073-1.1483 0.41019-1.4148 1.2504-1.8258 0.50314-0.24613 2.1964-0.89302 3.6062-1.1244 2.6988-0.443 4.9961 0.30245 5.6153 0.92173 0.27098 0.27098 2.06 9.7724 2.8765 14.622 0.11967 0.71069 0.13153 1.2477 0.98246 1.7861 1.4228 0.90012 4.3086 1.7118 4.5864 1.2622 0.35919-0.58117 0.23903-5.2914 0.0525-8.7746-0.10112-1.888-0.0417-4.1271 0.0538-4.428 0.16709-0.52645 0.39652-0.40348 1.1817-0.0074 0.44876 0.22638 1.6591 0.93412 2.6114 1.651 1.2933 0.97359 2.1775 1.9114 2.3598 2.5717 0.27157 0.98352 0.0825 4.3187-0.56095 8.2342-0.21995 1.3385-0.53607 3.5843-0.62421 5.069-0.14179 2.3882-0.48335 2.9019-0.0136 3.9638 0.55582 1.2565 1.773 2.2359 2.781 2.2377 0.47562 7.69e-4 0.58631-0.21577 0.81771-1.6001 0.14719-0.88058 0.34133-2.9267 0.43141-4.547 0.0901-1.6203-0.22536-3.1575-0.15307-3.4161 0.12205-0.43665 0.56141-0.8758 1.1563-0.32021 0.35232 0.32906 1.1115 1.1362 1.4522 1.7154l0.61947 1.1171-0.76481 2.7255c-0.8426 3.0027-2.5023 12.926-3.1154 18.119l-0.0157 4.1857-1.3537 0.20593c-0.49797 0.25416-1.125 0.70492-1.3934 1.0017-0.2684 0.29678-0.8952 1.3081-1.0015 1.3081s-0.33223-1.6043-0.89338-2.6257c-2.1772-3.9632-5.4858-7.7348-9.8666-11.247l-2.5151-2.0165-1.1737 0.83595c-2.988 2.1281-7.1702 8.5629-10.325 15.886-0.56781 1.3181-0.34994 2.4248-0.61683 2.4074-0.2211-0.01443-3.1174-0.79146-5.6535-1.1788z" fill="#f55" stroke="#f55" style="paint-order:markers fill stroke"/>
  <path d="m71.519 201.52c3.5536-2.2695 10.293-8.6398 13.312-12.721 2.1218-2.8681 2.7051-4.7181 2.5243-6.2447-0.18416-1.5549-0.84601-2.4665-2.818-4.09-1.4663-1.2072-1.945-1.2582-1.8255-2.3182 0.1257-1.1152 1.0506-1.9864 2.6685-4.1444l1.3118-1.6856-0.20977-4.9748c0.0769-8.1351 1.1201-13.62 7.449-37.957 2.739-10.532 4.0567-15.864 5.0344-20.733l0.94785-4.3383-2.2625-1.3172c-2.3878-1.9023-4.5519-4.2718-5.2856-5.7875l-0.1433-1.2861-0.14493-5.0528c0.16686-2.8143 0.78327-6.4942 0.74362-6.5339-0.0397-0.03965-1.8283 1.6424-2.4092 2.0159-1.0122 0.65075-0.77512 0.8076-1.6735 3.7642-1.5879 5.2259-1.7447 6.6662-3.1761 8.9461l-1.7011 1.8794-0.057 2.9824c7e-3 2.608 0.23152 3.089 0.94376 4.03 0.84558 1.1172 1.0309 0.90153-0.3936 3.2432-3.7881 6.2268-9.1942 11.366-11.528 11.394-0.87086 0.0105-1.9893-1.1246-3.6224-4.5366-1.8853-3.9388-3.4666-8.4022-3.4666-9.7846 0-0.78716 0.67345-0.8295 1.6921-1.9724 1.2338-1.3843 1.1171-1.7974 1.2855-3.9888 0.16758-2.1802-0.037-2.6304-1.1433-5.434-0.61652-1.5624-1.1945-3.2428-1.2844-3.4994-0.15548-0.44361-0.51833-0.24849-1.1892 0.25316-0.38803 0.29014-0.9471 0.85229-1.3206 1.171l-0.55109 0.8996-1.6507 34.519c-1.1792 24.66-0.84908 34.94-1.0856 35.672-0.18233 0.56357-1.1928 1.9721-1.7759 3.2867-1.9105 4.3072-2.6738 6.4588-2.6936 10.098-0.0149 2.7367 0.37631 3.6526 0.80898 4.4189l1.5309 1.7932-0.18092-2.4124c-0.17548-2.3399 1.2096-2.8664 3.9365-2.5977 1.5416 0.15191 2.1792-0.14405 2.6467-0.61156 0.28955-0.28956 0.25243-0.33433 0.54372-0.33433 1.1324 0-0.0112 1.5568-1.1984 1.639-0.30141 0.0208-1.1762-0.4375-2.0222-0.4706-1.2373-0.0484-2.1211 0.10975-2.6748 0.54529-0.66879 0.52607-0.62654 0.69225-0.70329 3.6611l-0.079 3.632 2.5476 0.79621c2.6863 0.83955 6.0592 2.6795 7.5711 4.1596 1.0632 1.0409 1.0886 1.1052 1.0829 2.7417-3e-3 0.92169-0.37336 3.1084-0.50949 4.8594-0.13612 1.751-0.2757 3.988-0.2319 4.0318s1.2305-0.69466 1.8544-1.0931z" fill="#f55" stroke="#f55" style="paint-order:markers fill stroke"/>
  <path d="m48.829 245.6c0.21134-0.0414 1.441 0.29712 2.4977 0.1261 2.5591-0.41419 6.1159-1.7638 8.3569-2.9403 3.5564-1.8671 8.5851-4.8509 10.1-8.7068l1.052-1.6651-0.23575-2.2415c-0.26506-2.966-1.1177-6.9836-2.3831-11.939l-1.4745-4.1359 0.58149-2.6898c0.52782-3.82 0.94944-7.5426 1.4077-13.321l0.41138-5.1874-1.4661-1.2168c-1.66-1.3777-4.5886-3.1368-7.3996-4.1231-2.01-0.70528-2.6638-1.1024-5.5558-1.1148-3.0044-0.0128-3.6768 0.22293-5.0502 0.89735-1.6915 0.83064-3.2297 2.776-4.1985 4.7562-0.76898 1.5717-0.78194 1.7272 0.501 6.693 1.3 5.032 2.3527 9.0982 2.5252 13.165l-0.30006 3.4947-1.4153 3.55c-1.5934 3.0353-5.0842 8.6549-7.1277 12.196-0.32526 0.56358-1.6183 1.7369-2.482 2.6857s-1.5501 2.357-1.6818 2.8162c-0.30646 1.0686-0.56739 5.6115-0.26317 6.4117 0.54165 1.4246 6.1442 3.0981 10.752 3.0426 1.3552-0.0163 2.573-0.19169 2.7843-0.23309z" fill="#fd5" stroke="#fd5" style="paint-order:markers fill stroke"/>
  <path d="m70.668 215.28c2.399-1.4451 4.8823-3.2867 7.701-6.2597 2.9021-3.061 3.0956-3.8071 3.7017-6.1452 0.33897-1.3075 0.89689-8.2002 0.94909-11.236 6e-3 -0.33025-1.5982 2.1797-4.1544 4.6783-3.6531 3.5709-6.2948 5.9834-8.6758 6.8358l-1.5031 0.53811 0.28062 2.5755c-0.0922 1.2052-0.66551 3.5179-0.8826 4.9829-0.44064 2.9733-0.37383 4.8298 0.30047 4.8287-0.022 0.70411 1.4376-0.28922 2.283-0.79847z" fill="#f95" stroke="#f95" style="paint-order:markers fill stroke"/>
  <path d="m73.1 229.46c1.0581-1.3468 1.1735-1.7605 1.4197-3.42 0.80024-5.3951 1.2069-8.4308 2.3487-10.975 0.54621-1.2171 1.4654-1.3915 2.8646-2.4823l1.6738-1.739-0.31621-1.3831c-0.1387-0.72548-0.65397-2.1766-0.67541-2.2072-0.0214-0.0306-1.4997 1.963-2.972 3.4125-1.4723 1.4496-2.9961 3.1677-3.7776 3.7397-1.2444 0.91084-4.4038 2.2276-5.1592 2.4849-0.16867 0.0574 0.0647 0.84342 0.30865 1.754 0.70958 2.6483 1.6344 7.6187 1.9418 10.016l0.37116 2.8436z" fill="#f55" stroke="#f55" style="paint-order:markers fill stroke"/>
  <path d="m76.987 224.53c1.7576-2.4943 2.0614-3.5608 2.3632-6.5599 0.15367-1.5269 0.0236-3.2634-0.0542-3.3894-0.51107-0.82693-2.1257-0.31293-2.783 4.0619-0.44605 1.5108-1.9917 8.2304-1.1536 7.6595 0.30047 0.4926 1.0585-0.96451 1.6276-1.7722z" fill="#ff8080" stroke="#ff8080" style="paint-order:markers fill stroke"/>
  <path d="m54.213 248.62c8.0337-1.4563 12.968-5.2684 16.955-11.977 0.5442-0.9158 1.4602-1.9789 1.8006-2.7538 0.77256-1.7583 0.0143-1.6553 0.53889-1.454 0.60139 0.23078 0.47365-0.22351-0.41429 1.5355-0.42753 0.84694-0.90105 2.0989-0.81743 2.2342 0.2212 0.35791 3.3442 0.49359 3.8444 0.11792 0.27905-0.20959 0.55626-1.4369 0.80244-2.9459 0.48553-2.9764 0.92119-9.0516 0.60466-8.7098-0.58499 0.63174-6.1499 8.0065-6.9328 9.158-1.2463 1.8331-4.4639 5.1195-6.4361 6.5697-7.2882 5.3594-18.261 8.0633-25.949 5.4814-0.99218-0.33322-2.4864-1.5892-2.5378-1.5387-0.0513 0.0505 0.4159 1.7675 0.72525 2.4065 0.47545 0.98215 1.1119 1.5268 2.0146 1.771 3.703 1.0019 10.752 1.2999 14.521 0.61686z" fill="#f95" stroke="#f95" style="paint-order:markers fill stroke"/>
  <path d="m75.036 119.1c1.4019-0.89987 3.5388-3.1453 5.6039-5.8739 1.6723-2.2096 3.9885-5.982 3.9885-6.2883 0-0.10292-0.41629-0.62901-0.76852-1.0908-0.5649-0.74063-0.64023-0.96279-0.63877-2.842l-0.12608-3.2832c-1.3548 1.6438-2.7934 3.2444-4.1926 4.611-1.8162 1.774-3.8757 4.0977-4.0363 4.0965-0.3002-2e-3 -1.5848-1.9625-3.9408-6.0136l-1.7916-3.5265 0.12609 2.5269c-2e-3 1.2801 0.23091 1.4754-0.96228 2.8526-0.80628 0.93071-1.9853 1.3972-1.9853 1.8032 0 1.5743 3.8578 10.918 5.3866 13.065 0.66865 0.93902 1.6568 1.1978 3.0808 0.28367z" fill="#fd5" stroke="#fd5" style="paint-order:markers fill stroke"/>
  <path d="m78.415 104.35c3.1417-3.0105 5.4617-5.9127 6.9212-8.3799 0.88685-1.4991 1.0016-3.0606 2.8267-8.9005l1.0309-1.7617-0.77981-2.9774c-1.1741-6.2973-2.2528-11.323-4.2504-15.504-1.0268-2.1493-4.2326-6.4223-5.6744-8.1795l-0.59502-1.2375-2.8907 2.9026c-3.8484 3.8643-6.3063 7.8625-8.126 13.107-1.5094 4.3503-2.1165 6.2077-1.9262 8.5482 0.36374 4.4756 2.0602 10.91 4.5219 16.064 1.3152 2.7535 5.0658 8.7934 5.5012 9.0624 0.10945 0.0677 1.8691-1.2372 3.4406-2.7431z" fill="#fd5" stroke="#fd5" style="paint-order:markers fill stroke"/>
  <path d="m96.884 95.503c0.0914-1.3803 0.16678-2.9444 0.16751-4.1802 1e-3 -2.0227 0.16496-2.6614 1.6412-7.557 2.3143-7.6746 2.8155-8.0639 2.3311-8.0639-0.22366 0-2.0332 0.31924-2.9253 0.47459l-2.1984-0.16583 0.12808 1.838c0.098 1.4059 0.0479 1.4633-1.3573 2.9766-0.72713 0.78306-1.1249 1.5566-1.3745 3.4583-0.15719 1.1976-0.29529 3.9331-0.38516 6.0006l0.15682 3.7591 0.40908 1.3643c0.43634 0.67992 1.152 1.5867 1.6008 2.0808l1.64 1.8052z" fill="#ff8080" stroke="#ff8080" style="paint-order:markers fill stroke"/>
  <path d="m101.19 74.403 3.5618-0.36638 0.88147-1.9853c1.0517-2.3688 2.1087-6.6752 2.1113-8.498l-0.19013-2.0297-1.0247 0.67084c-0.81858 0.40742-4.9651 1.182-9.5423 1.7825-1.7612 0.23107-3.3367-0.30498-3.8854 0.45254-0.52384 0.0657 0.22162 1.1025 0.92289 3.2507 0.56636 1.7348 1.0358 4.0765 1.278 5.2036 0.42422 1.9744 0.21161 2.7555 0.93433 2.8 0.4126 0.02539 2.9934-0.90322 4.9524-1.2808z" fill="#f95" stroke="#f95" style="paint-order:markers fill stroke"/>
  <path d="m91.491 82.877c1.5484-1.1399 4.1952-3.5527 4.2427-4.0734 0.069-0.75523-0.35397-2.5758-0.70065-4.3188-1.885-9.4773-7.3161-22.825-12.94-27.202l-1.4791-1.1512-1.5473 0.40486c-2.3388 1.626-7.7207 7.3678-9.1942 9.7612-3.3211 5.3944-4.9258 12.586-4.8865 19.084l-0.18203 3.2662 0.90118-3.9066c1.3837-4.4994 3.3247-8.4079 5.9013-11.884 1.3186-1.7787 5.9097-5.9842 6.3702-5.9842 0.43137 0 3.4998 3.5626 5.1753 6.3754 2.7901 4.6839 4.2318 9.9009 5.7454 17.212l0.87239 3.606z" fill="#fd5" stroke="#fd5" style="paint-order:markers fill stroke"/>
  <path d="m64.666 68.224c0.77568-2.5426 0.90755-4.8672 1.3092-5.9243l0.97886-1.3559-1.3136-1.1289c-1.3004-1.042-2.3502-1.4947-2.6221-1.2227-0.25503 0.25503-1.4324 5.0994-1.704 7.191-0.19507 1.5023 0.14285 1.6666 1.6986 2.8987l1.2969 0.70952z" fill="#f95" stroke="#f95" style="paint-order:markers fill stroke"/>
  <path d="m98.142 62.585c5.6673-0.86563 8.0189-1.1196 8.7156-1.5761 0.29629-0.19414 0.29924-1.1448 0.63276-1.956 0.33351-0.81121 1.6333-3.6652 2.8885-6.3421 3.8341-8.1773 5.7154-11.774 6.8444-15.945l0.60635-2.4325-1.268-1.9635c-0.91301-1.3672-3.1271-2.97-3.8619-2.97-0.38631 0-2.5137 4.111-3.6376 7.4289-1.4245 4.2051-1.8331 6.2761-2.066 6.2761-0.52945 0-1.6376-1.2218-2.7378-3.0184-0.6658-1.0873-1.1208-2.4284-1.4024-2.7454l-0.38402-0.57631 1.5338-5.7672c1.0901-3.2776 2.4262-6.2909 2.4994-6.8526 0.12481-0.95822-0.12862-1.5914-1.1843-2.4663-2.0093-1.6655-6.0373-3.8706-6.9122-3.8706-0.5354 0-2.67 6.1159-3.4527 10.183-0.24404 1.268-0.13772 2.8255-0.23336 3.3045-0.25199 1.262-0.76862 1.4887-2.1716 0.9529-1.7-0.64925-4.2545-2.3742-4.5004-3.039-0.13781-0.37253 0.28895-0.88456 0.50484-1.2171 0.74207-1.1432 2.1486-11.487 1.9812-14.121-0.073-1.1483-0.41019-1.4148-1.2504-1.8258-0.50314-0.24613-2.1964-0.89302-3.6062-1.1244-2.6988-0.443-4.9961 0.30245-5.6153 0.92173-0.27098 0.27098-2.06 9.7724-2.8765 14.622-0.11967 0.71069-0.13153 1.2477-0.98246 1.7861-1.4228 0.90012-4.3086 1.7118-4.5864 1.2622-0.35919-0.58117-0.23903-5.2914-0.0525-8.7746 0.10112-1.888 0.0417-4.1271-0.0538-4.428-0.16709-0.52645-0.39652-0.40348-1.1817-0.0074-0.44876 0.22638-1.6591 0.93412-2.6114 1.651-1.2933 0.97359-2.1775 1.9114-2.3598 2.5717-0.27157 0.98352-0.0825 4.3187 0.56095 8.2342 0.21995 1.3385 0.53607 3.5843 0.62421 5.069 0.14179 2.3882 0.48335 2.9019 0.0136 3.9638-0.55582 1.2565-1.773 2.2359-2.781 2.2377-0.47562 7.69e-4 -0.58631-0.21577-0.81771-1.6001-0.14719-0.88058-0.34133-2.9267-0.43141-4.547-0.0901-1.6203 0.22536-3.1575 0.15307-3.4161-0.12205-0.43665-0.56141-0.8758-1.1563-0.32021-0.35232 0.32906-1.1115 1.1362-1.4522 1.7154l-0.61947 1.1171 0.76481 2.7255c0.8426 3.0027 2.5023 12.926 3.1154 18.119l0.0157 4.1857 1.3537 0.20593c0.49797 0.25416 1.125 0.70492 1.3934 1.0017 0.2684 0.29678 0.8952 1.3081 1.0015 1.3081s0.33223-1.6043 0.89338-2.6257c2.1772-3.9632 5.4858-7.7348 9.8666-11.247l2.5151-2.0165 1.1737 0.83595c2.988 2.1281 7.1702 8.5629 10.325 15.886 0.56781 1.3181 0.34994 2.4248 0.61683 2.4074 0.2211-0.01443 3.1174-0.79146 5.6535-1.1788z" fill="#f55" stroke="#f55" style="paint-order:markers fill stroke"/>
 </g>
 <g fill="none" stroke="#000" stroke-width="1px">
  <path d="m179.87 226.48c-0.59525-4.4021-1.2991-10.226-3.5361-14.299l-3.6624-2.9046 0.88401-4.5464c3.495 4.0732 7.4509 8.1753 12.376 10.103m-15.048-25.985c0.8557 4.8603-0.38739 11.32 2.5449 15.882m2.9046 7.451c-2.6199-0.0311-1.7193 1.2346-1.3892 6.6933 0.87473 2.9179 6.1776 8.8735 8.5876 12.124m-7.1436-9.5144c0.20342 4.3359 0.18181 8.5883 1.3343 12.924 1.726 1.2252 3.4519 0.77324 5.1778 0m-2.2732-4.2938c9.4079 24.282 35.987 16.985 36.75 16.291 3.246-4.4661 1.9534-12.13 1.6418-12.124-0.79314-1.1534-2.0557-2.3069-2.9096-3.2792-1.0089-1.1489-1.508-2.5766-2.198-3.7126-1.9616-3.2296-5.3513-9.4834-7.395-13.467-0.68294-7.4044 2.1466-17.555 3.4098-21.469-4.9255-15.787-24.935-3.2002-24.879-0.88402 0.88402 16.165 2.0206 20.711 2.0206 20.711-4.2938 14.902-3.5361 18.943-3.5361 18.943 12.691 19.163 37.103 13.227 35.74 9.7242"/>
  <path d="m189.09 175.43c-0.0357 2.1588 3.753 1.2327 4.0412 1.1366 1.1796 0.2293 2.3803 0.4057 2.9046 2.2732-0.37635 2.3548-0.14555 4.3806 0.12629 6.0619"/>
  <path d="m195.53 182.38c7.5773-4.5464-1.2629-20.585-1.2629-20.585l-2.5258-70.217c-4.2546-3.7975-3.446-2.1436-4.2938-2.5258m-26.673-9.3167c0.88403 1.768 1.1628 12.348 1.1628 12.348-1.268 3.4416-4.8537 6.1628-7.7036 8.2088 3.9156 22.589 15.061 52.589 13.387 66.302-0.71426 3.4519 3.7582 5.1357 3.5361 8.4614-1.4384 1.5343-4.1545 2.6153-4.2938 5.5567-2.0968 3.639 13.894 19.341 18.817 21.09"/>
  <path d="m170.74 96.886c0.50155 5.0919-0.0884 4.8151 0.0409 6.3108l-1.3892 1.768c0.56912 1.8604 8.9086 14.008 12.25 13.513 1.5565 0.22236 6.924-12.903 6.4407-14.65-1.2629-1.5155-2.6521-2.9046-2.6521-2.9046l-0.16587-5.1603"/>
  <path d="m165.17 82.998c-2.3421-1.3241-6.1175-4.2321-6.7648-6.3215 0.64699-9.7946 8.5721-28.555 15.534-33.088 6.0006 4.5311 18.416 13.829 15.66 36.245"/>
  <path d="m179.49 105.85c-14.329-12.386-11.744-16.086-14.65-22.606 1.6416-9.7888 3.6639-18.755 11.492-27.91 8.3282 6.6726 11.627 15.105 13.26 24.121-0.7183 10.632-5.0537 18.76-10.103 26.394z"/>
  <path d="m157.27 98.019-0.25258-11.24c-1.66-4.9014-2.8075-9.2904-4.1675-13.892"/>
  <path d="m158.78 74.151c-0.50516 0-9.4717-1.6418-9.4717-1.6418-1.7468-2.6177-4.7048-15.759-1.3892-12.755 0.8879 0.80439 13.892 2.3995 13.892 2.3995"/>
  <path d="m189.72 68.342c1.0103-0.37887 3.1927-2.766 3.5718-3.0998 0.3098-0.27281-0.93112-8.2441-1.8943-8.9665-1.038 0.23915-2.8137 1.4159-4.1867 2.9927"/>
  <path d="m191.24 56.597c-0.0943-3.4276 2.9219-21.888 3.915-23.995 1.101-2.3361-3.0309-5.3041-3.0309-5.3041-1.2733 0.44922-0.47585 6.3114-1.5155 10.356-2.3995-0.42096-2.9215-3.5144-2.6521-4.4201 0.27074-6.5836 1.7662-9.6413 1.3892-14.776 0.41211-0.91727-6.4272-5.8228-6.6933-4.4201-0.48637 0.48637 0.27971 11.086-0.37886 13.26-1.5155-0.25036-3.0309-0.64581-4.5464-1.8943 0-0.27078-2.7759-15.029-3.1572-15.534-1.6138-2.1334-11.803-0.0021-11.113 1.5155-0.43938 0.9494 1.2327 14.846 2.3995 15.66-0.20614 0.8506-5.3927 3.8641-5.5567 2.9046-0.29313-3.7727-3.3681-15.987-4.6727-14.144-3.7312 1.3701-6.1483 3.2658-8.2088 5.3041 0.55479 4.3408 2.9696 8.9914 4.1675 13.892-1.5186 1.5092-2.2279 4.2581-4.0412 5.5567-2.1331-5.5227-2.9263-9.6162-5.5567-13.513-3.6983 1.5846-4.5941 3.5196-5.683 5.4304 1.8591 9.1688 7.0785 17.778 10.735 26.647"/>
  <path d="m74.504 228.3c0.59525-4.4021 1.2991-10.226 3.5361-14.299l3.6624-2.9046-0.88401-4.5464c-3.495 4.0732-7.4509 8.1753-12.376 10.103m15.048-25.985c-0.8557 4.8603 0.38739 11.32-2.5449 15.882m-2.9046 7.451c2.6199-0.0311 1.7193 1.2346 1.3892 6.6933-0.87473 2.9179-6.1776 8.8735-8.5876 12.124m7.1436-9.5144c-0.20342 4.3359-0.18181 8.5883-1.3343 12.924-1.726 1.2252-3.4519 0.77324-5.1778 0m2.2732-4.2938c-9.4079 24.282-35.987 16.985-36.75 16.291-3.246-4.4661-1.9534-12.13-1.6418-12.124 0.79314-1.1534 2.0557-2.3069 2.9096-3.2792 1.0089-1.1489 1.508-2.5766 2.198-3.7126 1.9616-3.2296 5.3513-9.4834 7.395-13.467 0.68294-7.4044-2.1466-17.555-3.4098-21.469 4.9255-15.787 24.935-3.2002 24.879-0.88402-0.88402 16.165-2.0206 20.711-2.0206 20.711 4.2938 14.902 3.5361 18.943 3.5361 18.943-12.691 19.163-37.103 13.227-35.74 9.7242"/>
  <path d="m65.285 177.25c0.0357 2.1588-3.753 1.2327-4.0412 1.1366-1.1796 0.2293-2.3803 0.4057-2.9046 2.2732 0.37635 2.3548 0.14555 4.3806-0.12629 6.0619"/>
  <path d="m58.844 184.19c-7.5773-4.5464 1.2629-20.585 1.2629-20.585l2.5258-70.217c4.2546-3.7975 3.446-2.1436 4.2938-2.5258m26.673-9.3167c-0.88403 1.768-1.1628 12.348-1.1628 12.348 1.268 3.4416 4.8537 6.1628 7.7036 8.2088-3.9156 22.589-15.061 52.589-13.387 66.302 0.71426 3.4519-3.7582 5.1357-3.5361 8.4614 1.4384 1.5343 4.1545 2.6153 4.2938 5.5567 2.0968 3.639-13.894 19.341-18.817 21.09"/>
  <path d="m83.638 98.698c-0.50155 5.0919 0.0884 4.8151-0.0409 6.3108l1.3892 1.768c-0.56912 1.8604-8.9086 14.008-12.25 13.513-1.5565 0.22236-6.924-12.903-6.4407-14.65 1.2629-1.5155 2.6521-2.9046 2.6521-2.9046l0.16587-5.1603"/>
  <path d="m89.208 84.809c2.3421-1.3241 6.1175-4.2321 6.7648-6.3215-0.64699-9.7946-8.5721-28.555-15.534-33.088-6.0006 4.5311-18.416 13.829-15.66 36.245"/>
  <path d="m74.883 107.66c14.329-12.386 11.744-16.086 14.65-22.606-1.6416-9.7888-3.6639-18.755-11.492-27.91-8.3282 6.6726-11.627 15.105-13.26 24.121 0.7183 10.632 5.0537 18.761 10.103 26.394z"/>
  <path d="m97.11 99.831 0.25258-11.24c1.66-4.9014 2.8075-9.2904 4.1675-13.892"/>
  <path d="m95.594 75.962c0.50516 0 9.4717-1.6418 9.4717-1.6418 1.7468-2.6177 4.7048-15.759 1.3892-12.755-0.8879 0.80439-13.892 2.3995-13.892 2.3995"/>
  <path d="m64.653 70.153c-1.0103-0.37887-3.1927-2.766-3.5718-3.0998-0.3098-0.27281 0.93112-8.2441 1.8943-8.9665 1.038 0.23915 2.8137 1.4159 4.1867 2.9927"/>
  <path d="m63.138 58.408c0.0943-3.4276-2.9219-21.888-3.915-23.995-1.101-2.3361 3.0309-5.3041 3.0309-5.3041 1.2733 0.44922 0.47585 6.3114 1.5155 10.356 2.3995-0.42096 2.9215-3.5144 2.6521-4.4201-0.27074-6.5836-1.7662-9.6413-1.3892-14.776-0.41211-0.91727 6.4272-5.8228 6.6933-4.4201 0.48637 0.48637-0.27971 11.086 0.37886 13.26 1.5155-0.25036 3.0309-0.64581 4.5464-1.8943 0-0.27078 2.7759-15.029 3.1572-15.534 1.6138-2.1334 11.803-0.0021 11.113 1.5155 0.43938 0.9494-1.2327 14.846-2.3995 15.66 0.20614 0.8506 5.3927 3.8641 5.5567 2.9046 0.29313-3.7727 3.3681-15.987 4.6727-14.144 3.7312 1.3701 6.1483 3.2658 8.2088 5.3041-0.55479 4.3408-2.9696 8.9914-4.1675 13.892 1.5186 1.5092 2.2279 4.2581 4.0412 5.5567 2.1331-5.5227 2.9263-9.6162 5.5567-13.513 3.6983 1.5846 4.5941 3.5196 5.683 5.4304-1.8591 9.1688-7.0785 17.778-10.735 26.647"/>
 </g>
</svg>
