<?xml version="1.0" encoding="UTF-8"?>
<svg cursor="default" version="1.1" viewBox="0 0 256 256" xmlns="http://www.w3.org/2000/svg" xmlns:cc="http://creativecommons.org/ns#" xmlns:dc="http://purl.org/dc/elements/1.1/" xmlns:rdf="http://www.w3.org/1999/02/22-rdf-syntax-ns#">
 <metadata>
  <rdf:RDF>
   <cc:Work rdf:about="">
    <dc:format>image/svg+xml</dc:format>
    <dc:type rdf:resource="http://purl.org/dc/dcmitype/StillImage"/>
    <dc:title/>
   </cc:Work>
  </rdf:RDF>
 </metadata>
 <g fill="#ff2a2a" stroke="#ff2a2a" stroke-linecap="round" stroke-linejoin="round" stroke-width=".41616">
  <path d="m183.99 207.25c-8.0237-0.79223-32.97-4.5823-38.594-5.8636l-1.6944-0.38599 2.0709-0.28627c9.436-1.3044 21.162-1.5631 25.733-0.56789 1.6243 0.35365 3.193 0.53058 3.4862 0.39317 0.6563-0.30764 1.0388-2.0293 0.8324-3.747-0.15372-1.2795-0.13715-1.2904 2.8525-1.865 1.6539-0.3179 5.5593-1.4793 8.6787-2.5809 9.317-3.2902 14.534-4.1474 18.027-2.9622 1.4243 0.48316 2.8937 1.8591 2.8937 2.7096 0 0.7624-2.6305 1.3511-8.2837 1.8538-11.171 0.99342-13.557 2.0811-12.06 5.4983 1.4774 3.3723 13.64 3.6754 26.86 0.66937 2.6568-0.60414 3.4287-0.96527 3.8862-1.8182 0.75382-1.4054 0.20819-2.6681-1.6603-3.8422-1.7712-1.1129-3.7389-3.5961-3.2607-4.1149 0.19537-0.21198 2.8968-1.1676 6.0032-2.1236 3.1064-0.95596 7.2576-2.4491 9.225-3.3182s4.6784-2.0683 6.0245-2.665c2.1045-0.93296 3.7698-1.225 9.1309-1.6012 0.15531-0.011 0.2824-0.33029 0.2824-0.70977 0-0.5549-0.57117-0.68774-2.9181-0.6787-3.7283 0.0144-5.3616 0.4799-10.449 2.9782-5.3787 2.6415-17.073 6.3821-17.764 5.6819-0.82953-0.841-2.2236-7.0068-4.8326-21.375-3.0352-16.715-4.2074-22.551-6.4825-32.275-1.3722-5.865-1.88-7.4593-2.3393-7.3443-1.0009 0.25065-0.53934 5.1705 2.6651 28.405 1.8222 13.212 3.0981 23.858 3.2277 26.933l0.2144 5.0846-3.7235 0.0241c-4.5082 0.0291-6.7256 0.51856-14.348 3.167-8.0486 2.7964-11.109 3.4664-17.203 3.7653l-5.236 0.2569 0.22542-2.0218c0.56039-5.026 1.8711-61.941 1.4608-63.431-0.0691-0.25081-0.34641-0.45601-0.61641-0.45601-0.38493 0-0.53991 2.5568-0.71792 11.844-0.48997 25.564-1.0413 46.093-1.3553 50.466-0.18106 2.5212-0.23208 4.776-0.11336 5.0107 0.1258 0.24866 2.2995 0.31991 5.2108 0.1708l4.995-0.25584 0.24167 1.1762c0.36455 1.7743-0.2021 2.1313-2.4487 1.5427-3.8446-1.0072-9.4502-1.0886-18.406-0.26718-9.4579 0.86751-13.55 0.74994-15.439-0.44361-1.6608-1.0491-2.4552-3.27-2.1267-5.9457 0.14329-1.1674 0.30835-2.1224 0.36679-2.1224 0.0585 0 1.0912 0.41397 2.2951 0.91993 3.9124 1.6443 5.0832 1.1501 5.0832-2.1458 0-3.7702-3.6585-6.9666-9.9781-8.7178-4.0864-1.1324-12.299-1.1554-15.307-0.0429-1.1709 0.433-2.2299 0.78726-2.3533 0.78726-1.0582 0 0.91893-10.269 4.2953-22.308 3.974-14.171 5.562-20.507 6.4028-25.547 0.98345-5.8953 0.98283-7.3406-3e-3 -7.3406-0.64792 0-0.75306 0.30664-0.75306 2.1964 0 3.5175-1.9529 12.304-5.6456 25.402-4.4018 15.612-5.6575 21.471-5.6879 26.537-0.0173 2.8847 0.1376 4.1684 0.60921 5.0477 0.59276 1.1051 0.76594 1.1605 2.7603 0.88271 7.1743-0.99939 8.3839-0.91607 9.7808 0.67365 1.0684 1.2159 1.0634 3.004-0.0103 3.7059-1.2839 0.83939-6.4933 0.59094-10.655-0.50816-2.0709-0.54693-12.068-4.3841-22.215-8.5271-18.748-7.6544-24.722-9.8861-34.415-12.857-3.7882-1.1612-5.541-1.5164-5.8174-1.1788-0.62074 0.75829 0.06456 1.2132 3.1439 2.0867 5.2847 1.4992 15.248 4.9178 15.72 5.3941 1.1169 1.1261 0.01201 5.9698-1.833 8.0358-1.8269 2.0457-2.249 2.0314-10.881-0.36827-4.4493-1.2369-9.4451-2.7948-11.102-3.4618-9.09-3.6601-13.235-9.0416-12.29-15.955l0.24094-1.7618 2.2592 1.4453c3.2402 2.0729 5.4597 4.8393 5.4597 6.805v1.5454l-1.1627-1.0662c-1.7228-1.58-3.1306-2.671-3.4498-2.6737-0.15532-1e-3 -0.2824 0.41154-0.2824 0.91751s0.15341 0.91994 0.34091 0.91994 1.0507 0.72445 1.9183 1.6099c0.86756 0.88544 1.979 1.6099 2.4698 1.6099 1.1495 0 1.814-1.5126 1.5471-3.5216-0.18066-1.3599 0.07675-2.0317 2.0467-5.3415 1.3633-2.2905 3.814-7.6923 6.2044-13.675 6.4282-16.089 8.1289-19.625 11.616-24.149l1.7718-2.2988-0.20606 2.1764c-0.4604 4.8626-4.0146 14.14-11.803 30.808-5.1456 11.013-6.0627 13.67-5.4684 15.848 0.67697 2.4809 2.2402 3.0809 8.9412 3.4317 6.2777 0.32862 7.8712 0.69832 10.792 2.5035 1.7123 1.0584 2.2109 1.0482 2.2109-0.0453 0-0.5838-3.3178-2.5347-5.8362-3.4317-0.82837-0.29506-4.0477-0.64979-7.1541-0.78831-3.8531-0.17181-5.9914-0.46552-6.7287-0.92418-1.9628-1.2211-1.3911-3.2242 4.6148-16.17 8.39-18.085 11.533-26.637 11.941-32.488 0.20347-2.9208-0.12823-4.1238-1.0086-3.658-0.93017 0.49212-5.2444 6.8211-7.3854 10.834-1.1334 2.1245-2.7087 5.5187-3.5007 7.5425-0.79198 2.0239-2.625 6.7216-4.0734 10.439-2.2601 5.8015-5.3367 12.169-7.3737 15.26-0.54782 0.83147-0.61783 0.81348-1.9984-0.51348-3.5362-3.399-9.79-6.4923-17.116-8.466-5.2069-1.4029-13.52-1.5379-15.137-0.2458-0.83126 0.66433-0.95627 0.96743-0.60948 1.4779 0.37177 0.54722 0.55639 0.54815 1.2489 6e-3 1.4121-1.1049 4.7068-1.2866 9.4729-0.52253 4.3554 0.69823 10.077 2.3282 12.617 3.5945l1.2213 0.60879 0.04651 3.8992c0.03357 2.8136 0.24524 4.388 0.76024 5.6547 1.6996 4.1803 6.087 7.8174 12.511 10.372 5.4296 2.1588 19.075 5.7457 20.562 5.405 2.517-0.57683 5.1553-5.0854 5.284-9.0299 0.03291-1.008 0.1351-1.8328 0.22708-1.8328s8.7397 3.5046 19.217 7.7881c10.484 4.2861 20.776 8.2158 22.888 8.7394 8.9858 2.2275 13.769 0.37033 12.043-4.6762-1.0557-3.0866-4.9515-4.2296-9.8647-2.8943-2.9553 0.80319-3.9004 0.58353-3.4642-0.80512 0.40684-1.2952 3.646-1.9425 9.6858-1.9357 4.3965 5e-3 6.435 0.20686 8.2634 0.81854 1.335 0.4466 2.4956 0.89555 2.5792 0.99766 0.0836 0.10213-0.34801 1.7001-0.95912 3.5511-1.4862 4.5017-1.6656 9.2242-0.42355 11.153 0.45949 0.71358 1.5265 1.6808 2.3712 2.1495l1.5357 0.85205-4.5184 0.0246c-2.6811 0.0146-6.126 0.37643-8.4719 0.88988-12.779 2.7969-12.938 2.8203-19.203 2.8291-11.993 0.0168-20.279-2.3009-40.101-11.217-7.295-3.2813-12.321-4.6127-22.968-6.0841-9.3877-1.2972-13.535-2.3556-16.756-4.276l-2.0709-1.2349-0.10646-2.5298c-0.05855-1.3914 0.03001-3.9787 0.1968-5.7496 0.27903-2.9625 0.37037-3.211 1.1431-3.11 1.351 0.17667 6.7119 2.8334 7.771 3.851 1.4227 1.3671 0.78448 2.349-2.9696 4.5687-2.2974 1.3584-3.1115 2.0606-2.9575 2.5507 0.25592 0.81469 0.91311 0.60468 4.203-1.3431 4.8666-2.8812 5.0809-5.7787 0.62686-8.4753-0.82837-0.50152-4.9796-2.3002-9.225-3.997-8.2592-3.3011-12.26-5.545-13.754-7.713-1.178-1.7101-1.1683-2.306 0.06335-3.9021 1.615-2.093 4.6794-7.3178 8.0397-13.708 11.723-22.292 16.531-30.165 26.022-42.604 6.7239-8.8134 10.265-15.017 14.573-25.53 4.4357-10.825 8.1132-24.206 8.6111-31.334 0.13678-1.958 0.40445-3.3326 0.64837-3.3295 0.22848 0.0029 3.6347 0.41422 7.5695 0.91404 11.583 1.4713 27.86 1.971 45.372 1.3927 36.057-1.1907 56.146-1.1053 68.597 0.29176l2.5154 0.28224 1.1109 4.1916c0.611 2.3054 2.4788 8.172 4.1506 13.037 3.7582 10.936 4.3944 13.428 5.1644 20.23 1.1157 9.8558 2.8534 16.469 6.9241 26.351 2.8981 7.0354 5.6049 12.488 13.699 27.598 14.112 26.343 23.223 44.991 23.223 47.532 0 1.8779-1.4485 2.8741-6.401 4.402-5.1605 1.5922-9.0342 3.5754-10.637 5.446-1.2412 1.4486-1.3072 2.4337-0.24177 3.6099 0.69969 0.77245 1.4088 0.87624 5.9875 0.87624 4.8456 0 5.1699 0.0544 4.8382 0.81142-0.60079 1.3709-2.955 2.9287-7.4369 4.921-7.4261 3.3011-15.367 5.4725-23.574 6.4462-4.4123 0.52352-19.807 0.5052-25.228-0.0301z" style="paint-order:markers fill stroke"/>
  <path d="m138.76 188.96-1.9279-0.76132 1.766-4.8882 1.1616 0.83777c1.6916 1.22 2.5788 2.5249 2.8522 4.1946 0.2277 1.3907 0.18081 1.4702-0.84139 1.4256-0.5954-0.0259-1.9501-0.38978-3.0104-0.80852z" style="paint-order:markers fill stroke"/>
  <path d="m193.69 200.36c-2.501-0.3974-4.2828-1.2348-4.5196-2.1241-0.33748-1.2674 1.6604-1.712 13.011-2.8962 5.7792-0.60287 7.2223-1.2477 7.2223-3.227 0-1.3663-1.3811-3.6823-2.1958-3.6823-0.19107 0-0.26349-0.90929-0.16095-2.0206 0.27673-2.9994-0.43157-9.6018-3.1252-29.131-1.3338-9.6707-2.4098-17.847-2.391-18.169 0.0634-1.0854 2.5703 11.278 5.0577 24.942 3.0145 16.56 4.1402 21.857 5.0416 23.724 0.38043 0.78768 0.69169 1.9494 0.69169 2.5816 0 1.7872 1.1692 3.547 3.36 5.0574 2.0976 1.4462 2.3904 1.936 1.4272 2.3875-1.2999 0.60933-9.714 2.1274-14.255 2.5718-5.3574 0.52437-5.7778 0.52371-9.1642-0.0144z" style="paint-order:markers fill stroke"/>
  <path d="m240.71 194.07c-0.0381-0.42622-1.2932-0.57679-4.852-0.58202-5.1791-7e-3 -6.2352-0.32273-5.3665-1.6014 0.65049-0.95749 2.9395-2.3916 5.6064-3.5124l2.0646-0.86773 1.0326 1.2085c1.2663 1.4821 1.9576 3.416 1.7342 4.8514-0.0924 0.59324-0.19094 0.81987-0.21913 0.50365z" style="paint-order:markers fill stroke"/>
  <path d="m138.81 189.05c-1.0355-0.38619-1.9264-0.7529-1.9798-0.81492-0.24803-0.2879 1.6532-4.838 2.0255-4.8476 0.88956-0.0229 3.5428 3.4479 3.7717 4.9338 0.2172 1.4099 0.16875 1.4931-0.85223 1.4629-0.5954-0.0177-1.9297-0.34801-2.9652-0.73419z" style="paint-order:markers fill stroke"/>
 </g>
 <g fill="none" stroke="#000" stroke-width="1.1013px">
  <path d="m8.9821 156.04c6.5034-6.5736 17.634-36.391 35.555-58.106 14.696-17.807 23.268-49.83 22.793-60.139 40.105 7.2038 85.035-1.8418 125.74 3.3153 2.6614 13.796 9.5429 25.719 10.364 37.278 2.1186 29.811 23.22 53.694 43.31 99.753 1.1686 2.2101 0.86996 5.7449-2.6112 6.691-3.6523 0.99262-9.3264 2.7579-12.097 4.6221-4.6741 3.1444-4.3714 6.167 8.0439 4.6962" stroke-linecap="round" stroke-linejoin="round"/>
  <g>
   <path d="m8.8313 156.04c-1.923 12.89 44.576 13.883 19.902 24.68"/>
   <path d="m11.847 156.41c3.6356-5.6817 36.326 3.2154 34.546 13.508-0.7118 4.1161-3.64-2.5086-5.598-2.0891"/>
   <path d="m37.176 160.83c-3.4077 18.072 19.089 19.996 30.753 23.9 4.4894 1.5023 8.1325-6.6536 6.638-11.007"/>
  </g>
  <path d="m72.457 177.78c-1.8904-1.7617-7.0834-3.9547-11.768-3.5842-15.411 1.2188-7.8234-7.4657-1.4502-22.298 12.64-26.233 9.9701-31.126 9.9701-31.126-12.936 15.324-12.256 29.996-23.362 45.934" stroke-linecap="round" stroke-linejoin="round"/>
  <g>
   <path d="m54.967 167.1c37.077 10.355 60.111 26.474 72.073 24 3.6321-0.75106 2.5151-4.7714 1.6028-5.5518-5.6645-4.8453-11.733 1.8629-12.748-1.4087-3.3972-10.956 11.028-41.859 11.141-58.665"/>
   <path d="m115.6 182.06c7.0818-5.0128 28.465-2.012 27.777 7.2418-0.33244 4.4752-7.047-2.3795-7.7528 0.64028"/>
   <path d="m138.07 182.6c-11.535 29.045 16.371 11.251 35.701 17.259 1.7393 0.54057 2.0301-2.4161 0.89944-4.892"/>
  </g>
  <g stroke-linecap="round" stroke-linejoin="round">
   <path d="m166.39 129.41c-0.46641 22.312-0.35394 46.038-1.757 66.061 19.725 0.12797 23.76-6.3506 35.636-7.3645 3.5575-0.30373 8.3916 0.23234 8.5728 4.1692 0.17709 3.8493-21.48 1.2736-20.637 5.9453 0.81851 4.5354 15.244 4.061 28.983 0.46796 1.3433-0.35132 1.9311-2.1102-0.0745-3.2074-3.7129-2.0312-5.489-5.6944-3.2315-6.3457 5.1413-1.4833 13.05-3.5086 19.902-7.3709 4.4207-2.4918 8.8126-1.5342 10.111-1.7956"/>
   <path d="m205.95 188.31c2.7538-2.1982-6.7152-52.79-6.2972-60.785 8.3619 32.242 10.303 61.025 14.04 61.794"/>
   <path d="m25.203 169.29c-0.04089 4.5058-1.6582 9.7795-0.0065 12.908 12.016 7.8467 23.412 2.6484 41.889 11.43 17.178 8.1645 34.542 15.076 54.988 9.4873 13.992-3.8248 19.157-1.5335 27.346-0.11539 39.78 6.8888 62.109 9.5155 87.581-3.233 6.1291-3.0676 5.7341-8.8572 2.1809-12.298"/>
  </g>
 </g>
</svg>
