<?xml version="1.0" encoding="UTF-8"?>
<svg cursor="default" version="1.1" viewBox="0 0 256 256" xmlns="http://www.w3.org/2000/svg" xmlns:cc="http://creativecommons.org/ns#" xmlns:dc="http://purl.org/dc/elements/1.1/" xmlns:rdf="http://www.w3.org/1999/02/22-rdf-syntax-ns#">
 <metadata>
  <rdf:RDF>
   <cc:Work rdf:about="">
    <dc:format>image/svg+xml</dc:format>
    <dc:type rdf:resource="http://purl.org/dc/dcmitype/StillImage"/>
    <dc:title/>
   </cc:Work>
  </rdf:RDF>
 </metadata>
 <g>
  <path d="m107.24 240.35c-3.5927-1.1526-6.8327-2.0867-7.5056-3.3343-0.39965-0.74091-0.49472-4.3665-0.85111-9.3644-0.66077-9.2666-1.1657-11.216-4.2925-14.838-2.1834-2.5296-4.1085-5.6652-4.112-6.966-0.0037-1.3704 1.6047-3.3495 3.3788-4.5246 1.3616-0.90187 2.2542-0.91335 2.4687-0.33359 0.36384 0.98357 0.86839 0.64698 1.3601-0.52981 0.51513-1.2329 0.1484-4.0579-0.32117-6.2475-0.53105-2.4762-6.221-15.887-11.408-27.511-3.4939-7.8298-4.6664-12.871-5.2515-19.138-0.38744-4.1496 0.10686-8.2839 1.5887-14.568 1.4546-6.1684 2.3203-7.7146 2.3203-11.211 0-3.6993-1.2694-6.4966-3.5616-15.172-4.3572-16.491-5.6393-25.72-6.3296-45.557-0.35953-10.332-0.79993-13.555-0.66533-18.89l0.10459-4.1454 0.39613-2.899c0.19919-1.4577 1.8745-3.266 2.4163-4.1664 1.194-1.9843 4.6619-6.4909 7.2727-9.1536 1.6935-1.7272 2.3035-2.003 3.0257-1.828 2.6308 0.63752 6.6314 3.5929 13.947 10.616 5.9436 5.7058 6.9831 7.0203 10.658 8.5212 3.9476 1.6121 7.9517 2.4279 11.775 2.399 4.2077-0.0318 9.9565-0.75962 12.26-1.5522 0.95317-0.32794 2.3651-1.0399 2.4147-1.0399s-0.36244 0.95946-0.19267 1.5899c0.16976 0.63045 1.2681 1.4253 1.8986 2.2182s2.3047 3.8594 3.811 6.5433 3.9249 7.7562 5.8267 11.091c4.1523 7.2808 6.7053 11.068 11.461 20.037 7.7867 14.686 11.632 20.392 19.011 29.958 2.3581 3.0568 4.5867 6.0449 5.5444 7.5122l2.1442 3.2853 0.0137 7.0537c0.0296 15.104-0.36088 30.961 0.2657 36.999 1.3242 12.76 2.7593 17.591 5.227 28.001 2.3322 9.8385 2.6256 11.438 2.904 22.277 0.21981 8.5567-8e-3 9.0353 0.58614 10.907 0.93629 2.9516 1.3341 3.7902 2.3729 4.3274 1.1132 0.57565 2.1666 3.0474 2.1666 4.9712 0 1.4213-0.54125 4.0312-1.0219 4.562-1.1213 1.2383-11.567-2.1813-14.533-4.7849l-1.2509-1.6339-0.12013-5.1922c-0.0528-2.2825 0.39725-4.6124 0.64621-6.0764 0.69413-4.0818 0.87292-7.9381 0.4212-9.085-0.53163-1.3498-2.3533-3.3638-5.225-6.4854-3.839-4.1731-4.528-5.9211-4.528-6.9847 0-1.0214 1.774-3.7948 4.1929-7.2223l1.5744-1.6644-0.61953-3.0072c-0.76225-3.6999-2.2672-6.3367-5.1539-12.504-6.9616-14.874-9.2964-22.489-10.169-30.648-0.5525-5.1654 0.33922-9.3929 1.9595-14.358 0.88884-2.7236 1.303-3.4617 1.6554-2.8914 0.34545 0.55896 1.2292 0.97668 1.0264 0.33748-0.13425-0.42297-2.0887-2.3369-1.8684-2.2007 0.47903 0.29606 2.4055 1.7877 1.6131 0.22415-0.98081-1.9355-6.9866-6.9288-15.11-14.135-14.959-13.271-21.516-20.648-31.501-34.499-2.1693-3.0093-5.4836-8.4135-7.7264-11.377-2.2428-2.9632-5.1322-5.7043-5.3984-6.2191-0.26621-0.5148-0.35952-2.4045-0.59075-3.9438-0.51649-3.4381-0.2564-3.8873-1.3133-3.7652l-0.79343 0.09166 0.49893 6.9069c0.57822 8.0047-0.19719 9.9234-2.4863 25.053-2.7026 17.862-3.2303 17.602-3.4717 32.515l0.72565 12.891-1.7781 1.9984c-0.80556 1.5209-0.20865 1.6271-0.18499 5.5148 0.0135 2.2216-0.46348 5.2085-0.29319 6.5098s1.1132 4.9137 1.4564 7.5164c0.46579 3.5323 0.89865 7.3644 1.0916 15.423 0.28804 12.031 0.27408 11.715 2.9066 21.972 1.6587 6.4628 2.627 10.589 3.5254 18.38 1.1427 9.9084 1.9516 16.571 5.144 23.166 1.3723 2.835 2.6199 3.3184 4.6594 5.4428 1.9889 2.0717 2.1467 3.5387 1.8896 3.9494-0.40976 0.65463-2.371 0.78713-4.2828 0.33184-1.2108-0.28837-1.3218 0.12817-1.6616 0.41026-0.3812 0.31637-5.7796 0.58173-6.5559 0.54-0.16267-9e-3 -1.3509 0.4407-2.0016 0.23196z" fill="#ff2a2a" stroke="#ff2a2a" stroke-linecap="round" stroke-linejoin="round" stroke-width=".29575" style="paint-order:markers fill stroke"/>
 </g>
 <g>
  <path d="m106.53 242.22c-2.3592-0.47224-5.8981-2.0433-7.1224-3.162-1.6253-1.4851-1.9312-2.6891-2.4467-9.631-0.7899-10.636-1.3419-12.655-4.4399-16.24-1.9006-2.199-3.4151-5.2949-3.4151-6.9812 0-1.8862 0.81305-3.1538 3.7099-5.7839 3.1149-2.828 3.2971-3.5135 2.034-7.6532-0.72653-2.3812-5.5753-13.927-10.828-25.783-4.346-9.8099-5.2469-13.58-5.2476-21.961-6e-4 -6.3961 0.10434-7.246 1.549-12.546 1.3044-4.7853 1.5533-6.4601 1.5727-10.585 0.0215-4.566-0.14005-5.4895-2.3655-13.526-5.0776-18.335-6.2246-26.695-6.3746-46.458-0.0681-8.9778-0.30172-15.211-0.59997-16.01-0.26862-0.71929-0.62434-2.7482-0.7905-4.5086-0.47561-5.0391 1.4974-9.6772 6.615-15.55 4.4527-5.1101 7.4649-7.841 8.6485-7.841 0.5921 0 1.1458 0.15393 1.2304 0.34206 0.0846 0.18813 1.272 0.82046 2.6387 1.4052 3.0405 1.3009 6.0113 3.6204 10.566 8.25 6.5115 6.6182 8.7881 8.3746 12.569 9.6968 5.831 2.0393 10.617 2.2332 19.734 0.79929 4.2691-0.67142 4.1916-0.35812 4.1986-1.5456 5e-3 -0.91104 0.18975-1.3645 0.53297-0.9134 0.39776 0.52273 0.45205 0.52273 0.48853 0 0.0226-0.32345 0.40449 0.64688 0.84868 2.1563s1.3702 3.4388 2.0579 4.2875c2.1912 2.7045 15.421 25.867 21.847 38.25 6.7137 12.937 11.521 20.659 17.451 28.032 5.0029 6.2196 6.0313 7.7747 7.3972 11.186 1.137 2.8391 1.1492 3.0133 1.1513 16.425 3e-3 21.213 1.8224 41.117 4.8935 53.544 3.0628 12.394 3.057 12.352 3.3594 24.503 0.2728 10.964 0.34297 11.667 1.3497 13.526 0.58408 1.0781 1.5694 2.4103 2.1896 2.9603 0.62019 0.55004 1.2015 1.5391 1.2918 2.1979 0.0903 0.65879 0.32612 1.4203 0.52403 1.6923 0.35855 0.49272-0.36205 3.9401-1.2519 5.9891-0.44138 1.0164-0.63035 1.0779-3.2973 1.0739-3.4598-5e-3 -6.1864-0.67703-9.5226-2.3464-4.2481-2.1256-5.9408-3.4526-6.449-5.0552-0.50374-1.5888 0.0838-9.9382 0.89969-12.785 0.66151-2.308 0.56671-6.7005-0.17585-8.1476-0.35604-0.69386-2.2957-3.0403-4.3103-5.2143-4.3942-4.7418-4.3082-4.6282-4.7449-6.2726-0.54515-2.0529 0.33785-4.5542 2.8456-8.0608 2.0126-2.8142 2.2708-3.4104 2.004-4.6258-0.5855-2.6667-3.1172-8.8786-6.0012-14.725-5.4675-11.083-8.4886-19.784-9.4614-27.247-0.79181-6.0749 0.10576-12.732 2.5343-18.796l1.0756-2.6859-3.5628-3.4708c-1.9595-1.909-5.4918-5.0586-7.8495-6.9993-14.204-11.691-26.445-25.088-37.122-40.625-2.1666-3.1528-4.9885-7.1223-6.2708-8.8211l-2.3316-3.0887-0.0103 2.3523c-0.0109 2.4927-1.4143 13.176-2.5492 19.406-2.8936 15.884-3.8109 26.713-3.0293 35.76 0.61151 7.0779 0.62812 6.9478-1.4369 11.258-1.3084 2.7311-1.3758 3.1217-1.0837 6.2728 0.17135 1.8482 0.73798 5.8302 1.2592 8.849 0.70907 4.107 1.035 8.6961 1.2949 18.23 0.3647 13.379 0.39692 13.619 3.2161 23.915 1.334 4.872 2.3115 10.805 3.2622 19.799 0.64388 6.0915 1.8333 11.032 4.1114 17.078 1.7535 4.6539 2.5551 5.9762 6.2502 10.31 1.7801 2.0877 2.0296 3.5059 0.86522 4.9177-0.69786 0.84618-0.99886 0.90412-3.7298 0.71794-1.7609-0.12004-4.0366 0.0139-5.5881 0.32896-2.9694 0.60293-4.1919 0.62749-6.6585 0.13377zm5.6328-1.9246c1.3832-0.2218 2.6702-0.61655 2.8599-0.87723 0.26946-0.3703 0.68571-0.36929 1.9032 5e-3 2.2516 0.69149 3.4666 0.5911 4.0499-0.33464 0.44713-0.70955 0.20987-1.0849-1.8618-2.9452-2.7754-2.4923-4.3696-5.2903-6.6426-11.658-1.971-5.5218-2.8466-9.4401-3.5202-15.751-0.95225-8.9228-1.9163-14.524-3.4943-20.303-2.7553-10.09-3.0721-12.473-3.0331-22.823 0.0296-7.8424-0.1601-10.748-1.1391-17.446-1.4085-9.6378-1.3879-15.262 0.0626-17.083 0.86341-1.0835 0.90631-1.7123 0.76644-11.235-0.16433-11.188 0.30669-18.019 2.0077-29.118 0.6279-4.0969 1.6797-10.977 2.3373-15.29 1.1615-7.6168 1.5997-15.806 1.1118-20.779-0.21286-2.1694-0.15492-2.3615 0.74535-2.4706 1.1003-0.13338 1.3145 0.43017 1.8496 4.8659 0.29833 2.473 0.55617 2.9236 4.774 8.3425 2.4522 3.1505 5.8752 7.7571 7.6065 10.237 9.9803 14.294 18.291 23.358 33.966 37.044 4.4487 3.8841 8.908 8.0323 9.9095 9.2182s2.005 2.2662 2.2301 2.4005c0.22503 0.13431 0.8051 0.9953 1.289 1.9133 0.76708 1.4551 0.78087 1.5997 0.10753 1.128-0.70881-0.4966-0.72194-0.46048-0.15959 0.439 0.5531 0.88467 0.54082 0.92973-0.12606 0.46262-0.65444-0.4584-0.84417-0.21211-1.6611 2.1563-1.4668 4.2526-1.9058 7.0027-1.9058 11.939 0 7.7582 2.7388 17.294 8.0925 28.175 4.0881 8.3094 6.1187 13.377 6.9074 17.237l0.7287 3.5669-2.547 3.571c-2.5973 3.6416-3.3505 5.5028-2.811 6.9465 0.1665 0.44551 2.0768 2.7102 4.2451 5.0327 6.289 6.7362 6.4889 7.2789 5.2391 14.22-0.48532 2.6953-0.94469 6.6946-1.0208 8.8873-0.13092 3.7702-0.0771 4.0421 0.9911 5.0081 1.6222 1.4669 6.3942 3.6342 9.5287 4.3276 4.3158 0.95472 4.5677 0.88865 5.1784-1.358 0.79707-2.9327-0.0597-6.0161-1.7776-6.3976-0.57117-0.12686-1.1999-1.1806-2.0201-3.3857-1.1174-3.0042-1.1908-3.6929-1.1908-11.177 0-10.011-0.50841-14.277-2.7648-23.202-2.0475-8.099-2.905-12.749-3.8944-21.121-1.5769-13.343-1.8041-17.531-1.8501-34.108l-0.0479-17.25-1.5097-2.6188c-0.83033-1.4403-3.4411-5.057-5.8017-8.037-7.8873-9.9569-11.076-15.056-19.675-31.461-3.0999-5.9139-7.8477-14.559-10.551-19.212-2.7029-4.6528-5.8018-10.139-6.8865-12.191-1.0846-2.0523-2.465-4.2186-3.0674-4.814-0.60243-0.59544-1.2304-1.6942-1.3956-2.4417-0.16512-0.74752-0.36826-1.3591-0.45143-1.3591-0.0832 0-1.0852 0.35088-2.2267 0.77974-1.2948 0.48643-4.1677 0.95739-7.6377 1.252-4.8788 0.41429-6.0026 0.39115-9.1465-0.18829-3.9755-0.7327-8.1884-2.2961-11.098-4.1184-1.0519-0.65882-3.8782-3.1951-6.2806-5.6363-7.5504-7.6721-12.746-11.464-14.794-10.796-1.0905 0.3554-7.4994 7.5838-9.2866 10.474-0.86667 1.4016-2.0126 3.7012-2.5466 5.1102-0.87154 2.2998-0.92017 2.8813-0.47539 5.6847 0.2725 1.7176 0.67322 9.5623 0.89048 17.433 0.60939 22.075 2.0297 31.763 7.6159 51.947 2.3364 8.4418 2.2407 13.787-0.42104 23.502-2.6287 9.5936-1.559 19.33 3.297 30.013 4.8888 10.755 11.172 25.921 11.911 28.751 0.75357 2.8847 0.71997 6.5621-0.0761 8.3239-0.38662 0.85568-1.5398 0.66939-1.5398-0.24875 0-1.3479-4.0166 1.7006-4.666 3.5413-0.65402 1.854 0.27047 3.7749 3.6243 7.5307 3.0161 3.3776 3.6793 5.7931 4.3206 15.736 0.54 8.3729 0.88492 9.3664 3.6657 10.56 3.843 1.6488 5.3329 2.1518 5.9807 2.019 0.38084-0.0781 1.8242-0.32341 3.2074-0.5452zm-19.549-38.762c-0.74431 0.3256 1.058-0.5 0.73397-0.0526 1.1909-0.13059-0.83508 1.0459-0.73397 0.0526zm-9.0546-80.312c-0.02 0.41328-1.2702 0.22658-1.1169 0.0963 0.15339-0.13027 0.37892-1.2527 0.24553-1.5357 1.3343 0.26036 1.0117 0.24971 0.87137 1.4394zm40.753-80.739c-0.31253-0.10739-0.93571-0.11392-1.3848-0.0145-0.44914 0.0994-0.298-0.25713 0.46366-0.24914 0.76167 8e-3 1.2337 0.3711 0.92119 0.26367zm-38.876-21.025c0.57419-0.62181 1.0546-0.42655 0.32239 0.06111-1.591 1.41-1.5287 0.65309-0.32239-0.06111z" stroke-width=".42541"/>
 </g>
</svg>
