<?xml version="1.0" encoding="UTF-8" standalone="no"?>
<svg
   xmlns:dc="http://purl.org/dc/elements/1.1/"
   xmlns:cc="http://creativecommons.org/ns#"
   xmlns:rdf="http://www.w3.org/1999/02/22-rdf-syntax-ns#"
   xmlns:svg="http://www.w3.org/2000/svg"
   xmlns="http://www.w3.org/2000/svg"
   xmlns:sodipodi="http://sodipodi.sourceforge.net/DTD/sodipodi-0.dtd"
   xmlns:inkscape="http://www.inkscape.org/namespaces/inkscape"
   width=""
   height=""
   viewBox="0 0 256 256"
   version="1.1"
   id="svg8"
   inkscape:version="1.0 (4035a4fb49, 2020-05-01)"
   sodipodi:docname="winter_pants.svg">
  <defs
     id="defs2">
    <inkscape:path-effect
       lpeversion="1"
       is_visible="true"
       id="path-effect139"
       effect="spiro" />
    <inkscape:path-effect
       lpeversion="1"
       is_visible="true"
       id="path-effect159"
       effect="spiro" />
    <inkscape:path-effect
       lpeversion="1"
       is_visible="true"
       id="path-effect155"
       effect="spiro" />
    <inkscape:path-effect
       effect="spiro"
       id="path-effect151"
       is_visible="true"
       lpeversion="1" />
    <inkscape:path-effect
       effect="spiro"
       id="path-effect147"
       is_visible="true"
       lpeversion="1" />
    <inkscape:path-effect
       effect="spiro"
       id="path-effect135"
       is_visible="true"
       lpeversion="1" />
    <inkscape:path-effect
       lpeversion="1"
       is_visible="true"
       id="path-effect131"
       effect="spiro" />
    <inkscape:path-effect
       lpeversion="1"
       is_visible="true"
       id="path-effect127"
       effect="spiro" />
    <inkscape:path-effect
       effect="spiro"
       id="path-effect123"
       is_visible="true"
       lpeversion="1" />
    <inkscape:path-effect
       effect="spiro"
       id="path-effect162"
       is_visible="true"
       lpeversion="1" />
    <inkscape:path-effect
       effect="spiro"
       id="path-effect154"
       is_visible="true"
       lpeversion="1" />
    <inkscape:path-effect
       effect="spiro"
       id="path-effect144"
       is_visible="true"
       lpeversion="1" />
    <inkscape:path-effect
       effect="spiro"
       id="path-effect140"
       is_visible="true"
       lpeversion="1" />
    <inkscape:path-effect
       effect="spiro"
       id="path-effect134"
       is_visible="true"
       lpeversion="1" />
    <inkscape:path-effect
       effect="spiro"
       id="path-effect130"
       is_visible="true"
       lpeversion="1" />
    <inkscape:path-effect
       effect="spiro"
       id="path-effect104"
       is_visible="true"
       lpeversion="1" />
    <inkscape:path-effect
       effect="spiro"
       id="path-effect100"
       is_visible="true"
       lpeversion="1" />
    <inkscape:path-effect
       effect="spiro"
       id="path-effect90"
       is_visible="true"
       lpeversion="1" />
    <inkscape:path-effect
       effect="spiro"
       id="path-effect84"
       is_visible="true"
       lpeversion="1" />
    <inkscape:path-effect
       effect="spiro"
       id="path-effect80"
       is_visible="true"
       lpeversion="1" />
    <inkscape:path-effect
       effect="spiro"
       id="path-effect76"
       is_visible="true"
       lpeversion="1" />
    <inkscape:path-effect
       effect="spiro"
       id="path-effect72"
       is_visible="true"
       lpeversion="1" />
    <inkscape:path-effect
       effect="spiro"
       id="path-effect58"
       is_visible="true"
       lpeversion="1" />
    <inkscape:path-effect
       effect="spiro"
       id="path-effect52"
       is_visible="true"
       lpeversion="1" />
    <inkscape:path-effect
       effect="spiro"
       id="path-effect42"
       is_visible="true"
       lpeversion="1" />
    <inkscape:path-effect
       effect="spiro"
       id="path-effect32"
       is_visible="true"
       lpeversion="1" />
    <clipPath
       clipPathUnits="userSpaceOnUse"
       id="clipPath345">
      <path
         id="path347"
         style="fill:#ff0000;fill-opacity:1;fill-rule:nonzero;stroke:none"
         d="M 90.708984,64.474609 V 248.91406 H 127.55859 V 70.232422 c -0.0741,0.144149 -0.28398,0.107627 -0.29101,-0.142578 -5.3e-4,-0.01921 -0.002,-0.0073 -0.002,-0.03125 3.4e-4,-0.0038 0.002,-0.0079 0.002,-0.01172 -0.002,-0.0083 -0.004,-0.017 -0.006,-0.02539 -3.5e-4,-0.0014 -0.002,-0.0025 -0.002,-0.0039 -0.007,-0.02473 -0.0157,-0.04899 -0.0195,-0.07422 -0.001,-0.008 -7.4e-4,-0.01536 0,-0.02344 -0.049,-0.0056 -0.0471,-0.01148 0.002,-0.01758 3.6e-4,-0.0033 0.002,-0.0065 0.002,-0.0098 -5.7e-4,-0.0029 -5e-4,-0.0028 -0.002,-0.0059 -0.003,-0.01525 -0.006,-0.02953 -0.008,-0.04492 -0.001,-0.01288 -0.002,-0.02611 -0.002,-0.03906 5.9e-4,-0.03684 0.005,-0.07636 0.0137,-0.113281 2e-5,-0.0085 -0.002,-0.01693 -0.002,-0.02539 4.1e-4,-0.007 0.005,-0.0089 0.006,-0.01562 -5e-4,-0.0045 4.5e-4,7.67e-4 0.002,-0.0293 0.003,-0.05451 0.002,-0.10932 0.004,-0.164063 -0.0191,-0.0094 -0.0391,-0.01551 -0.0586,-0.02344 -0.0898,-0.0365 -0.0586,-0.03425 0.01,-0.02344 0.0246,0.004 0.0179,0.0011 0.0508,0.0078 5.6e-4,-0.02086 0.002,-0.04166 0.002,-0.0625 -0.003,-0.0025 -0.0443,-0.01616 -0.0449,-0.01758 0.003,-0.02257 0.007,-0.04355 0.008,-0.07422 0.002,-0.11458 -0.009,-0.229325 -0.0117,-0.34375 -0.002,-0.04256 -0.004,-0.06881 -0.004,-0.103516 -0.003,-0.01029 -0.007,-0.0204 -0.006,-0.03125 -0.001,-0.01986 -0.004,-0.0387 -0.004,-0.05859 -10e-4,-0.0694 0.006,-0.164535 0.01,-0.228515 0.009,-0.126646 0.0204,-0.252868 0.0352,-0.378906 -0.005,-0.01534 0.008,-0.04267 0.006,-0.06055 -0.0564,-0.03756 -0.0829,-0.128792 -0.0566,-0.244141 -0.0247,-0.04522 -0.037,-0.108777 -0.0234,-0.189453 0.003,-0.0163 0.005,-0.03267 0.008,-0.04883 -3.7e-4,-0.01314 -0.007,-0.01893 -0.006,-0.0332 0.002,-0.04526 0.0194,-0.08785 0.0234,-0.132813 0,-0.0028 2.1e-4,-0.005 0,-0.0078 -0.002,-0.02284 -0.003,-0.04549 -0.004,-0.06836 -0.005,-0.01948 -0.004,-0.01643 0.002,0.0098 0.005,0.02132 0.0121,0.01127 0.0176,0.02344 0,0 0,0.002 0,0.002 10e-4,0.0022 0.003,0.002 0.004,0.0039 8e-5,-0.0065 -3e-5,-0.01302 0,-0.01953 -5.5e-4,0.002 -9e-4,0.0039 -0.002,0.0059 0.003,-0.008 -0.002,-0.0073 0.002,-0.01758 -2e-5,-0.002 4e-5,-0.0039 0,-0.0059 -3.4e-4,-0.02044 0.002,-0.02616 0.002,-0.03906 4.7e-4,-0.03868 0.004,-0.05757 0.0332,-0.05273 0.006,9.46e-4 0.0263,0.0035 0.043,0.0059 0.0294,-0.07588 0.075,-0.127315 0.13086,-0.126953 0.0655,4.23e-4 0.12021,0.06701 0.14257,0.171875 v -2.81836 z m 36.505856,2.820313 c 0.0209,-8.9e-5 0.0417,-1e-5 0.0625,0 1.4e-4,-6.6e-4 -1.3e-4,-0.0013 0,-0.002 -0.0385,6.92e-4 -0.12162,0.0022 -0.0625,0.002 z m 0.0273,2.607422 c -2.3e-4,0.002 -0.002,0.0038 -0.002,0.0059 -3.3e-4,0.004 3.7e-4,0.0077 0,0.01172 h 0.002 v -0.002 c 0,-0.0053 0.002,-0.01036 0.002,-0.01563 z m 0.0117,-2.496094 c -0.004,0.0019 -0.008,0.0034 -0.0117,0.0059 0.004,-0.0012 0.008,-0.0025 0.0117,-0.0059 z m 0.30468,0.933594 c -0.001,0.02154 -0.002,0.04297 -0.004,0.06445 0.001,-10e-7 0.003,5.7e-5 0.004,0 z m 0,0.195312 c -0.004,0.0041 -0.009,0.0077 -0.0137,0.01172 -0.005,0.06629 -0.0109,0.132637 -0.0137,0.199219 0.0132,0.02413 0.0214,0.05559 0.0273,0.08984 z" />
    </clipPath>
  </defs>
  <sodipodi:namedview
     id="base"
     pagecolor="#ffffff"
     bordercolor="#666666"
     borderopacity="1.0"
     inkscape:pageopacity="0.0"
     inkscape:pageshadow="2"
     inkscape:zoom="2.8"
     inkscape:cx="128.55439"
     inkscape:cy="128.43726"
     inkscape:document-units="px"
     inkscape:current-layer="layer1"
     inkscape:document-rotation="0"
     showgrid="false"
     units="px"
     inkscape:pagecheckerboard="true"
     inkscape:window-width="1644"
     inkscape:window-height="1020"
     inkscape:window-x="152"
     inkscape:window-y="0"
     inkscape:window-maximized="0" />
  <metadata
     id="metadata5">
    <rdf:RDF>
      <cc:Work
         rdf:about="">
        <dc:format>image/svg+xml</dc:format>
        <dc:type
           rdf:resource="http://purl.org/dc/dcmitype/StillImage" />
        <dc:title />
      </cc:Work>
    </rdf:RDF>
  </metadata>
  <g
     inkscape:label="Lager 1"
     inkscape:groupmode="layer"
     id="layer1">
    <path
       style="fill:none;stroke:#000000;stroke-width:0.113221px;stroke-linecap:butt;stroke-linejoin:miter;stroke-opacity:1"
       d="m 119.15755,15.55005 3.96999,11.282207 c -2.80971,6.84183 -4.53815,11.929308 -6.50157,18.358453"
       id="path28"
       sodipodi:nodetypes="ccc" />
    <path
       style="fill:none;stroke:#000000;stroke-width:0.113221px;stroke-linecap:butt;stroke-linejoin:miter;stroke-opacity:1"
       d="m 119.15755,15.55005 c -0.26974,1.215862 -0.50958,2.438359 -0.71921,3.666013 -0.41667,2.440132 -0.71381,4.899128 -0.97811,7.36043 -0.23884,2.224255 -0.451,4.451281 -0.66165,6.678384 -0.25263,2.671042 -0.5031,5.342292 -0.74798,8.014056 -0.0773,0.843035 -0.15398,1.686122 -0.23014,2.529258"
       id="path30"
       inkscape:path-effect="#path-effect32"
       inkscape:original-d="m 119.15755,15.55005 c -0.23004,1.222115 -0.47936,2.444122 -0.71921,3.666013 -0.23984,1.221882 -0.65197,4.907062 -0.97811,7.36043 -0.32614,2.453361 -0.44099,4.452364 -0.66165,6.678384 -0.22068,2.226011 -0.49854,5.342818 -0.74798,8.014056 -0.24943,2.671239 -0.15332,1.686286 -0.23014,2.529258" />
    <path
       style="fill:none;stroke:#000000;stroke-width:0.113221px;stroke-linecap:butt;stroke-linejoin:miter;stroke-opacity:1"
       d="m 115.82046,43.798191 c 0.2269,0.278935 0.47624,0.892461 0.80551,1.392519"
       id="path34"
       sodipodi:nodetypes="cc" />
    <path
       style="fill:none;stroke:#000000;stroke-width:0.113221px;stroke-linecap:butt;stroke-linejoin:miter;stroke-opacity:1"
       d="m 142.12486,17.990602 c -1.66834,2.927393 -2.92815,6.17765 -4.35442,9.296354 l 0.74797,0.08525 c 1.26274,4.144706 2.35982,8.136969 4.06759,11.151296 l -0.0401,-8.93464 c -0.0496,-3.875992 0.008,-7.797394 -0.42105,-11.598263 z"
       id="path38"
       sodipodi:nodetypes="cccccc" />
    <path
       style="fill:none;stroke:#000000;stroke-width:0.113221px;stroke-linecap:butt;stroke-linejoin:miter;stroke-opacity:1"
       d="m 128.3633,26.263884 c 0.54949,-0.175511 1.12136,-0.280836 1.69732,-0.312609 0.88555,-0.04885 1.78043,0.07744 2.61788,0.369447"
       id="path40"
       inkscape:path-effect="#path-effect42"
       inkscape:original-d="m 128.3633,26.263884 c 0.57548,-0.104086 1.13166,-0.208289 1.69732,-0.312609 0.56564,-0.104312 1.74537,0.246408 2.61788,0.369447" />
    <path
       style="fill:none;stroke:#000000;stroke-width:0.113221px;stroke-linecap:butt;stroke-linejoin:miter;stroke-opacity:1"
       d="m 128.3633,26.263884 -7.30707,-21.1718953 -5.9262,0.028464"
       id="path44" />
    <path
       style="fill:none;stroke:#000000;stroke-width:0.113221px;stroke-linecap:butt;stroke-linejoin:miter;stroke-opacity:1"
       d="m 132.6785,26.320722 c 1.79095,-3.766337 3.4883,-8.549696 5.207,-13.101003 0.92299,-2.686228 2.02373,-5.2721219 2.44529,-8.2414134 l 5.75359,0.056846"
       id="path46"
       sodipodi:nodetypes="cccc" />
    <path
       style="fill:none;stroke:#000000;stroke-width:0.113221px;stroke-linecap:butt;stroke-linejoin:miter;stroke-opacity:1"
       d="m 142.586,38.523505 -0.11188,5.334828"
       id="path48"
       sodipodi:nodetypes="cc" />
    <path
       style="fill:none;stroke:#000000;stroke-width:0.113221px;stroke-linecap:butt;stroke-linejoin:miter;stroke-opacity:1"
       d="m 146.08438,5.0351513 c 0.0861,0.8779212 0.17778,1.7552935 0.27506,2.6320458 0.19842,1.7882874 0.4201,3.5741369 0.58993,5.3653649 0.13002,1.371328 0.22961,2.745348 0.32547,4.119487 0.17605,2.523622 0.33957,5.048371 0.44753,7.575821 0.11011,2.577633 0.16239,5.157332 0.22376,7.736586 0.0893,3.751594 0.19775,7.50273 0.32547,11.253211"
       id="path50"
       inkscape:path-effect="#path-effect52"
       inkscape:original-d="m 146.08438,5.0351513 c 0.0918,0.877454 0.18348,1.7548081 0.27506,2.6320458 0.0916,0.877229 0.3934,3.5770229 0.58993,5.3653649 0.19653,1.788349 0.21709,2.746435 0.32547,4.119487 0.10837,1.373043 0.29846,5.050658 0.44753,7.575821 0.14905,2.525162 0.14928,5.157832 0.22376,7.736586 0.0744,2.578745 0.22388,7.522346 0.32547,11.253211"
       sodipodi:nodetypes="csssssc" />
    <path
       style="fill:none;stroke:#000000;stroke-width:0.113221px;stroke-linecap:butt;stroke-linejoin:miter;stroke-opacity:1"
       d="m 142.47412,43.858333 5.79748,-0.140666"
       id="path54" />
    <path
       style="fill:none;stroke:#000000;stroke-width:0.113221px;stroke-linecap:butt;stroke-linejoin:miter;stroke-opacity:1"
       d="m 115.13003,5.1204031 c -0.23645,1.2695839 -0.46554,2.5405387 -0.68725,3.812779 -1.19164,6.8379359 -2.17022,13.7137759 -2.88856,20.6174969 -0.45902,4.411554 -0.81176,8.834167 -1.05779,13.262709"
       id="path56"
       inkscape:path-effect="#path-effect58"
       inkscape:original-d="m 115.13003,5.1204031 c -0.22897,1.2710374 -0.45805,2.541967 -0.68725,3.812779 -0.2292,1.2708129 -1.92559,13.7451059 -2.88856,20.6174969 -0.96298,6.872382 -0.70509,8.841922 -1.05779,13.262709" />
    <path
       style="fill:none;stroke:#000000;stroke-width:0.113221px;stroke-linecap:butt;stroke-linejoin:miter;stroke-opacity:1"
       d="m 110.49643,42.813388 c 1.76838,0.303387 3.36156,-0.08548 5.32403,0.984803"
       id="path60"
       sodipodi:nodetypes="cc" />
    <path
       style="fill:none;stroke:#000000;stroke-width:0.113221px;stroke-linecap:butt;stroke-linejoin:miter;stroke-opacity:1"
       d="m 143.15005,48.941974 -0.31644,8.35508 -0.11509,7.047831 5.69607,-0.05684 0.0863,-6.365782 v -5.229035 l -0.1726,-3.666005 z"
       id="path62" />
    <path
       style="fill:none;stroke:#000000;stroke-width:0.113221px;stroke-linecap:butt;stroke-linejoin:miter;stroke-opacity:1"
       d="m 115.27387,48.657787 -0.48906,8.184569 -0.0287,0.880983 -0.40276,6.536285 h -5.581 l 0.28768,-6.166846 0.7192,-9.719177 z"
       id="path64"
       sodipodi:nodetypes="cccccccc" />
    <path
       style="fill:none;stroke:#000000;stroke-width:0.113221px;stroke-linecap:butt;stroke-linejoin:miter;stroke-opacity:1"
       d="m 114.78481,56.899193 28.06317,0.08525"
       id="path66"
       sodipodi:nodetypes="cc" />
    <path
       style="fill:none;stroke:#000000;stroke-width:0.113221px;stroke-linecap:butt;stroke-linejoin:miter;stroke-opacity:1"
       d="M 142.80482,57.666502 114.77043,57.481774"
       id="path68"
       sodipodi:nodetypes="cc" />
    <path
       style="fill:none;stroke:#000000;stroke-width:0.113221px;stroke-linecap:butt;stroke-linejoin:miter;stroke-opacity:1"
       d="m 110.49643,42.813388 c -0.16138,0.04681 -0.31327,0.126085 -0.44395,0.231711 -0.19479,0.157446 -0.33935,0.370134 -0.44592,0.596796 -0.20135,0.428229 -0.27281,0.906006 -0.30205,1.378303 -0.0702,1.13452 0.0923,2.282947 0.47467,3.353403"
       id="path70"
       inkscape:path-effect="#path-effect72"
       inkscape:original-d="m 110.49643,42.813388 c -0.23897,0.06318 -0.19516,0.159326 -0.44395,0.231711 -0.24878,0.07241 -0.3499,0.483229 -0.44592,0.596796 -0.096,0.113558 -0.17728,1.14159 -0.30205,1.378303 -0.12479,0.236704 0.24465,1.923106 0.47467,3.353403"
       sodipodi:nodetypes="csssc" />
    <path
       style="fill:none;stroke:#000000;stroke-width:0.113221px;stroke-linecap:butt;stroke-linejoin:miter;stroke-opacity:1"
       d="m 115.82046,43.798191 c 0.14985,0.175903 0.26745,0.379198 0.34522,0.596796 0.20195,0.565052 0.12805,1.18993 0,1.776165 -0.18844,0.86269 -0.48903,1.700817 -0.89181,2.486635"
       id="path74"
       inkscape:path-effect="#path-effect76"
       inkscape:original-d="m 115.82046,43.798191 c 0.15355,0.161157 0.1919,0.435873 0.34522,0.596796 0.1533,0.160924 0.0384,1.312103 0,1.776165 -0.0384,0.464054 -0.59443,1.492094 -0.89181,2.486635"
       sodipodi:nodetypes="cssc" />
    <path
       style="fill:none;stroke:#000000;stroke-width:0.113221px;stroke-linecap:butt;stroke-linejoin:miter;stroke-opacity:1"
       d="m 142.47412,43.858333 c -0.18412,0.142034 -0.33231,0.330259 -0.42718,0.542563 -0.15543,0.347837 -0.16404,0.740434 -0.18453,1.120867 -0.0276,0.512155 -0.0813,1.026065 -0.0327,1.536663 0.0485,0.510597 0.20965,1.027839 0.55711,1.405113 0.20585,0.22351 0.47238,0.390581 0.76326,0.478435"
       id="path78"
       inkscape:path-effect="#path-effect80"
       inkscape:original-d="m 142.47412,43.858333 c -0.14228,0.180965 -0.28467,0.361823 -0.42718,0.542563 -0.14252,0.180741 -0.17085,0.799461 -0.18453,1.120867 -0.0137,0.321407 0.40245,1.890247 0.52438,2.941776 0.12194,1.051528 0.50416,0.338011 0.76326,0.478435"
       sodipodi:nodetypes="csssc" />
    <path
       style="fill:none;stroke:#000000;stroke-width:0.113221px;stroke-linecap:butt;stroke-linejoin:miter;stroke-opacity:1"
       d="m 148.2716,43.717667 v 0 c 0.22715,0.02418 0.44331,0.139459 0.58993,0.314623 0.12821,0.153163 0.20173,0.345886 0.24157,0.541614 0.0399,0.195727 0.048,0.396287 0.059,0.595724 0.051,0.923507 0.16137,1.878334 -0.14529,2.750931 -0.1452,0.413172 -0.38206,0.793853 -0.68856,1.106667"
       id="path82"
       inkscape:path-effect="#path-effect84"
       inkscape:original-d="m 148.2716,43.717667 c 0,1.16e-4 0,1.16e-4 0,0 -1.2e-4,-1.08e-4 0.3934,0.247757 0.58993,0.314623 0.19651,0.06692 0.25326,1.02358 0.30061,1.137338 0.0473,0.113758 -0.19264,1.43147 -0.14529,2.750931 0.0473,1.31946 -0.41577,0.837354 -0.68856,1.106667"
       sodipodi:nodetypes="ccsssc" />
    <path
       style="fill:none;stroke:#000000;stroke-width:0.113221px;stroke-linecap:butt;stroke-linejoin:miter;stroke-opacity:1"
       d="m 114.3533,64.259624 12.94559,0.198927 15.41963,-0.113666"
       id="path86" />
    <path
       style="fill:none;stroke:#000000;stroke-width:0.113221px;stroke-linecap:butt;stroke-linejoin:miter;stroke-opacity:1"
       d="m 109.01145,58.326752 c -1.25489,0.177136 -2.50356,0.398361 -3.74292,0.66313 -1.48495,0.317235 -2.97834,0.705675 -4.29219,1.466943 -1.136652,0.658597 -2.114241,1.589578 -2.827534,2.692728"
       id="path88"
       inkscape:path-effect="#path-effect90"
       inkscape:original-d="m 109.01145,58.326752 c -0.5152,0.147474 -3.22748,0.51588 -3.74292,0.66313 -0.51545,0.147249 -2.13581,0.850804 -4.29219,1.466943 -2.156356,0.61613 -1.837442,1.755074 -2.827534,2.692728"
       sodipodi:nodetypes="cssc" />
    <path
       style="fill:none;stroke:#000000;stroke-width:0.113221px;stroke-linecap:butt;stroke-linejoin:miter;stroke-opacity:1"
       d="m 148.55639,52.700147 c 0.66965,1.053659 0.92163,1.43955 1.39585,2.734532 l 0.10845,0.663277 0.0214,0.982852 0.0203,0.864087 1.81046,0.120566"
       id="path96"
       sodipodi:nodetypes="cccccc" />
    <path
       style="fill:none;stroke:#000000;stroke-width:0.113221px;stroke-linecap:butt;stroke-linejoin:miter;stroke-opacity:1"
       d="m 151.91282,58.065511 c 1.67279,0.236897 3.2988,0.799774 4.76004,1.647792 1.23604,0.717324 2.35397,1.637626 3.2954,2.712828"
       id="path98"
       inkscape:path-effect="#path-effect100"
       inkscape:original-d="m 151.91282,58.065511 c 0.77312,0.268049 4.29229,1.500543 4.76004,1.647792 0.46776,0.14725 1.23419,1.828767 3.2954,2.712828"
       sodipodi:nodetypes="csc" />
    <path
       style="fill:none;stroke:#000000;stroke-width:0.113221px;stroke-linecap:butt;stroke-linejoin:miter;stroke-opacity:1"
       d="m 98.148806,63.149553 c 0.116821,0.22761 0.276374,0.433197 0.467868,0.602855 0.123708,0.109601 0.260626,0.204278 0.406845,0.281324"
       id="path102"
       inkscape:path-effect="#path-effect104"
       inkscape:original-d="m 98.148806,63.149553 c 0.156072,0.194365 0.312021,0.402014 0.467868,0.602855 0.155837,0.200833 0.271339,0.187665 0.406845,0.281324" />
    <path
       style="fill:none;stroke:#000000;stroke-width:0.113221px;stroke-linecap:butt;stroke-linejoin:miter;stroke-opacity:1"
       d="m 99.023519,64.033732 9.748781,0.225892"
       id="path106" />
    <path
       style="fill:none;stroke:#000000;stroke-width:0.113221px;stroke-linecap:butt;stroke-linejoin:miter;stroke-opacity:1"
       d="m 159.96826,62.426131 0.0407,1.848741 -11.59435,0.01315"
       id="path108"
       sodipodi:nodetypes="ccc" />
    <path
       style="fill:none;stroke:#000000;stroke-width:0.113221px;stroke-linecap:butt;stroke-linejoin:miter;stroke-opacity:1"
       d="m 98.148806,63.149553 c -0.312622,0.04993 -0.789014,0.315964 -0.982373,0.457728 -0.412809,0.29524 -0.632749,0.452252 -0.919902,0.86388 l -0.0779,4.284905 c 0.125066,0.427316 0.44193,0.732253 0.739288,0.944471 l 4.103141,1.107242 c 0.44973,0.08007 0.60969,0.04444 0.92709,-0.06234 l 0.0192,-3.84647 -2.486225,-0.574432 C 98.78126,66.203796 97.611911,66.151902 97.050391,65.581015 96.795,64.629787 97.578406,64.074613 98.392972,63.531325"
       id="path110"
       sodipodi:nodetypes="ccccccccccc" />
    <path
       style="fill:none;stroke:#000000;stroke-width:0.113221px;stroke-linecap:butt;stroke-linejoin:miter;stroke-opacity:1"
       d="m 127.421,64.475829 0.0407,9.123138 -0.28479,14.669368 -0.44751,13.142145 0.28478,6.55098 -0.0407,12.4991 0.32548,13.06176 0.20341,18.04534 -0.0407,21.34091 -0.32547,23.06909 0.19325,13.93588 -0.35599,8.40977 -0.0203,13.65459 -0.23394,9.47477 -0.27461,5.4056 -2.319,1.08511 c -1.83444,0.66216 -4.16278,0.83538 -6.23483,0.85403 l -10.01845,0.0602 -6.01109,-0.16076 c -2.138799,-0.20458 -4.757206,-0.88123 -5.624568,-2.16023 l -0.549232,-4.98355 -0.65095,-10.1279 -0.661114,-13.46367 c -0.262499,-3.01861 -0.284155,-6.68947 -0.233929,-9.96712 l -0.412237,-13.687 c -0.109628,-0.34606 -0.10912,-0.62278 -0.116655,-1.14313 l -0.452919,-12.01138 c -0.03599,-0.30917 -0.09594,-0.69686 -0.157348,-1.09056 L 92.758224,163.58438 92.0259,149.35711 91.456326,137.86276 91.415643,120.82218 c -0.32862,-2.22386 -0.357526,-4.44771 -0.488199,-6.67155 -0.220602,-3.99702 -0.166879,-7.69596 -0.122057,-12.5393 0.100126,-2.749433 0.196173,-4.495862 0.691631,-9.002567 0.269667,-3.073811 0.745376,-5.680388 1.220524,-8.480099 0.542054,-3.061984 1.521073,-7.097036 2.807198,-10.369032"
       id="path112"
       sodipodi:nodetypes="ccccccccccccccccccccccccccccccccccccc"
       clip-path="url(#clipPath345)" />
    <path
       style="fill:none;stroke:#000000;stroke-width:0.113221px;stroke-linecap:butt;stroke-linejoin:miter;stroke-opacity:1"
       d="m 126.96806,119.676 1.3377,-0.0569 0.53222,6.26631 0.27329,7.75831 0.20138,11.56638 0.15821,10.27334 0.28769,7.07624 -0.12945,11.5806 0.51782,9.69078 0.0431,9.97494 -0.0288,10.08862 -0.10063,4.00703 -0.21577,8.38351 -0.0288,10.55752 0.43153,9.88969 0.33081,9.47761 c 1.93772,1.23905 3.86748,1.7555 5.96239,2.05549 0.68866,0.16676 1.35619,0.2608 3.98887,0.32379 5.30406,0.13506 10.61298,0.37224 16.0059,-0.0745 2.04488,-0.29733 4.07089,-0.94883 6.06163,-2.26212 l -0.16756,-4.3981 c 0.44265,-2.14188 0.44912,-5.25327 0.46962,-8.33346 l 0.48906,-8.25562 0.47468,-10.61439 0.20137,-12.85941 0.76235,-6.42263 -0.0575,-11.96425 0.47468,-9.84706 0.57537,-11.77953 -0.10074,-12.26265 0.38836,-9.94654 0.0864,-9.33553 0.40275,-12.3621 0.40275,-9.87548 -0.2733,-10.614373 -0.1782,-3.547652 -0.13635,-2.527035 c -0.14186,-1.425206 -0.34279,-2.420675 -0.6029,-3.491143 l -0.42029,-1.48904 -2.15761,-7.573581 -2.34458,-6.422611 -0.0575,-2.031937 c 0.0256,-0.632452 0.0198,-1.287235 0.0768,-2.008973 l 0.073,-4.007304 c -0.24515,-0.423202 -0.65116,-1.319762 -1.00952,-1.856173"
       id="path114"
       sodipodi:nodetypes="ccccccccccccccccccccccccccccccccccccccccccccc" />
    <path
       style="fill:none;stroke:#000000;stroke-width:0.113221px;stroke-linecap:butt;stroke-linejoin:miter;stroke-opacity:1"
       d="m 95.524689,73.759725 0.733537,-1.201849 -0.08962,-3.80181"
       id="path116" />
    <path
       style="fill:none;stroke:#000000;stroke-width:0.113221px;stroke-linecap:butt;stroke-linejoin:miter;stroke-opacity:1"
       d="m 95.740408,242.21723 c 0.518512,0.36943 0.98536,0.39786 2.560351,0.7673 2.986611,0.52856 6.075371,0.78801 9.292051,0.71047 4.03476,0.0174 8.07063,0.0313 12.25516,-0.39786 l 0.0863,-9.4634 -0.60412,-12.27687 0.51782,-10.60016 0.79559,-9.29279 c 0.60972,-1.87755 2.31106,-3.67871 3.46209,-5.28597 0.34863,-1.07654 0.59156,-2.75018 1.01679,-3.75106 1.17577,1.07189 1.34107,0.612 1.98796,1.48223"
       id="path118"
       sodipodi:nodetypes="ccccccccccc" />
    <path
       style="fill:none;stroke:#000000;stroke-width:0.113221px;stroke-linecap:butt;stroke-linejoin:miter;stroke-opacity:1"
       d="m 130.16717,193.60644 0.99676,-0.98466 2.40038,4.24006 4.0684,5.10414 0.40685,8.33943 -0.10176,6.61127 0.10176,14.74975 -0.0407,11.25318 c 4.45749,0.73846 9.20123,0.91131 14.03602,0.90429 h 3.17336 c 2.49592,-0.26182 4.94105,-0.74933 7.22142,-1.96931"
       id="path120"
       sodipodi:nodetypes="ccccccccccc" />
    <path
       style="fill:none;stroke:#000000;stroke-width:0.113221px;stroke-linecap:butt;stroke-linejoin:miter;stroke-opacity:1"
       d="m 108.13675,72.955921 19.32493,0.562664 19.52836,0.120574"
       id="path122" />
    <path
       style="fill:none;stroke:#000000;stroke-width:0.113221px;stroke-linecap:butt;stroke-linejoin:miter;stroke-opacity:1"
       d="m 160.88552,72.330526 c 0.81829,1.26309 -4.46485,0.734276 -7.22329,0.946918"
       id="path124"
       sodipodi:nodetypes="cc" />
    <path
       style="fill:none;stroke:#000000;stroke-width:0.113221px;stroke-linecap:butt;stroke-linejoin:miter;stroke-opacity:1"
       d="m 96.258226,72.557876 6.142064,0.277478"
       id="path126" />
    <path
       style="fill:none;stroke:#000000;stroke-width:0.113221px;stroke-linecap:butt;stroke-linejoin:miter;stroke-opacity:1"
       d="m 110.44083,64.259624 c -0.32911,0.799237 -0.61729,1.615328 -0.86302,2.444006 -0.3207,1.081477 -0.56878,2.182973 -0.80971,3.284968 -0.21599,0.987918 -0.42644,1.977046 -0.63135,2.967323"
       id="path128"
       inkscape:path-effect="#path-effect130"
       inkscape:original-d="m 110.44083,64.259624 c -0.28755,0.814783 -0.57523,1.629449 -0.86302,2.444006 -0.28781,0.814558 -0.32925,1.200987 -0.80971,3.284968 -0.48046,2.083988 -0.57458,1.650767 -0.63135,2.967323"
       sodipodi:nodetypes="cssc" />
    <path
       style="fill:none;stroke:#000000;stroke-width:0.113221px;stroke-linecap:butt;stroke-linejoin:miter;stroke-opacity:1"
       d="m 104.6297,64.174364 c -0.33096,0.639239 -0.61026,1.305218 -0.83427,1.989307 -0.36455,1.11325 -0.58129,2.268562 -0.79536,3.420254 -0.20141,1.083536 -0.40133,2.167347 -0.59978,3.251429"
       id="path132"
       inkscape:path-effect="#path-effect134"
       inkscape:original-d="m 104.6297,64.174364 c -0.27797,0.663222 -0.55606,1.326319 -0.83427,1.989307 -0.2782,0.662997 -0.33021,1.196474 -0.79536,3.420254 -0.46517,2.223781 -0.55653,1.979942 -0.59978,3.251429"
       sodipodi:nodetypes="cssc" />
    <path
       style="fill:none;stroke:#000000;stroke-width:0.113221px;stroke-linecap:butt;stroke-linejoin:miter;stroke-opacity:1"
       d="m 102.40029,72.835354 5.73646,0.120567"
       id="path136"
       sodipodi:nodetypes="cc" />
    <path
       style="fill:none;stroke:#000000;stroke-width:0.113221px;stroke-linecap:butt;stroke-linejoin:miter;stroke-opacity:1"
       d="m 150.77357,64.316462 c 0.3657,0.720524 0.69237,1.460852 0.97811,2.216657 0.5235,1.384711 0.90833,2.817356 1.2792,4.250511 0.21483,0.830155 0.42528,1.661441 0.63135,2.493814"
       id="path138"
       inkscape:path-effect="#path-effect140"
       inkscape:original-d="m 150.77357,64.316462 c 0.32615,0.739002 0.65219,1.477879 0.97811,2.216657 0.32593,0.738768 0.64247,2.002511 1.2792,4.250511 0.63675,2.248001 0.68338,1.019189 0.63135,2.493814"
       sodipodi:nodetypes="cssc" />
    <path
       style="fill:none;stroke:#000000;stroke-width:0.113221px;stroke-linecap:butt;stroke-linejoin:miter;stroke-opacity:1"
       d="m 145.883,64.343153 c 0.31226,1.559595 0.54282,3.135541 0.69044,4.719223 0.0744,0.798746 0.12781,1.599305 0.19563,2.398642 0.0617,0.727194 0.13537,1.453372 0.22097,2.178141"
       id="path142"
       inkscape:path-effect="#path-effect144"
       inkscape:original-d="m 145.883,64.343153 c 0.23026,1.572611 0.46041,3.156308 0.69044,4.719223 0.23002,1.562914 0.0569,0.873164 0.19563,2.398642 0.13876,1.525478 0.21607,0.852506 0.22097,2.178141"
       sodipodi:nodetypes="cssc" />
    <path
       style="fill:none;stroke:#000000;stroke-width:0.113221px;stroke-linecap:butt;stroke-linejoin:miter;stroke-opacity:1"
       d="m 146.99004,73.639159 c 2.22343,-0.12055 1.94407,-0.154705 6.67219,-0.361715"
       id="path146"
       sodipodi:nodetypes="cc" />
    <path
       style="fill:none;stroke:#000000;stroke-width:0.113221px;stroke-linecap:butt;stroke-linejoin:miter;stroke-opacity:1"
       d="m 97.314786,80.350892 c -0.422494,1.352316 -0.769034,2.728358 -1.037442,4.119479 -0.406011,2.104294 -0.632638,4.238523 -0.854361,6.370127 -0.368687,3.54448 -0.725195,7.091839 -0.915405,10.650362 -0.135349,2.53217 -0.186482,5.06971 -0.406835,7.59591 -0.07966,0.91326 -0.18141,1.82459 -0.305128,2.73293"
       id="path152"
       inkscape:path-effect="#path-effect154"
       inkscape:original-d="m 97.314786,80.350892 c -0.345698,1.379977 -0.691519,2.746436 -1.037442,4.119479 -0.345933,1.373052 -0.569462,4.246862 -0.854361,6.370127 -0.284909,2.123256 -0.610155,7.100339 -0.915405,10.650362 -0.305241,3.55 -0.36604,5.05066 -0.406835,7.59591 -0.04078,2.54527 -0.108374,1.83546 -0.305128,2.73293"
       sodipodi:nodetypes="cssssc" />
    <path
       style="fill:none;stroke:#000000;stroke-width:0.113221px;stroke-linecap:butt;stroke-linejoin:miter;stroke-opacity:1"
       d="m 97.314786,80.350892 -3.885333,0.100475"
       id="path156" />
    <path
       style="fill:none;stroke:#000000;stroke-width:0.113221px;stroke-linecap:butt;stroke-linejoin:miter;stroke-opacity:1"
       d="m 93.795615,111.8197 -2.969938,0.0602"
       id="path158" />
    <path
       style="fill:none;stroke:#000000;stroke-width:0.113221px;stroke-linecap:butt;stroke-linejoin:miter;stroke-opacity:1"
       d="m 160.03686,83.896921 c 0.23411,1.053508 0.44777,2.11156 0.64082,3.17336 0.25189,1.385421 0.46869,2.777304 0.6441,4.174469 0.5614,4.471621 0.69747,8.9839 0.95899,13.48303 0.21345,3.67216 0.51082,7.33945 0.8918,10.99803"
       id="path160"
       inkscape:path-effect="#path-effect162"
       inkscape:original-d="m 160.03686,83.896921 c 0.51794,1.004229 0.1327,2.178819 0.64082,3.17336 0.50812,0.994541 0.42366,3.037838 0.6441,4.174469 0.22043,1.136638 0.86321,8.642507 0.95899,13.48303 0.0957,4.84055 0.67137,7.36055 0.8918,10.99803"
       sodipodi:nodetypes="csssc" />
    <path
       style="fill:none;stroke:#000000;stroke-width:0.113221px;stroke-linecap:butt;stroke-linejoin:miter;stroke-opacity:1"
       d="m 163.17257,115.72581 3.50301,-0.0184"
       id="path164"
       sodipodi:nodetypes="cc" />
    <path
       style="fill:none;stroke:#000000;stroke-width:0.113221px;stroke-linecap:butt;stroke-linejoin:miter;stroke-opacity:1"
       d="m 160.03686,83.896921 4.59619,-0.219035"
       id="path166"
       sodipodi:nodetypes="cc" />
    <path
       style="fill:none;stroke:#000000;stroke-width:0.113221px;stroke-linecap:butt;stroke-linejoin:miter;stroke-opacity:1"
       d="m 160.00895,64.274872 0.40685,0.02005 0.0203,2.180309 -4.98379,0.190896 0.0407,3.576915 c 0.14134,0.32308 0.33419,0.400674 0.61027,0.512427 l 1.66353,0.06238 c 1.12646,0.01719 2.14326,0.04666 3.0612,-0.519333"
       id="path168"
       sodipodi:nodetypes="cccccccc" />
    <path
       style="fill:none;stroke:#000000;stroke-width:0.113221px;stroke-linecap:butt;stroke-linejoin:miter;stroke-opacity:1"
       d="m 142.93429,44.437609 5.33646,-0.01424 c 0.22025,0.09336 0.28366,0.311843 0.30926,0.646526 l -0.0935,2.877389 c -0.0799,0.333858 -0.22726,0.441649 -0.40274,0.454699 l -4.99126,-0.04261 c -0.19014,-0.03696 -0.36642,-0.132093 -0.43151,-0.412069 l -0.0431,-2.841867 c 0.0244,-0.285486 0.0671,-0.563638 0.31644,-0.667841 z"
       id="path170"
       sodipodi:nodetypes="ccccccccc" />
    <path
       style="fill:none;stroke:#000000;stroke-width:0.113221px;stroke-linecap:butt;stroke-linejoin:miter;stroke-opacity:1"
       d="m 110.08958,43.928661 4.80073,0.200949 c 0.19372,0.0093 0.3025,0.150487 0.29496,0.472236 l -0.0814,2.712828 c -0.0126,0.07282 -0.0335,0.142988 -0.098,0.198694 -0.046,0.03961 -0.1141,0.07191 -0.21731,0.09268 l -4.8414,-0.200949 c -0.24525,-0.142447 -0.15314,-3.313311 0.14239,-3.47644 z"
       id="path172"
       sodipodi:nodetypes="ccccsccc" />
    <path
       style="fill:#ffb380;stroke-width:0.114371"
       d="m 119.36646,64.245667 c -2.61239,-0.04761 -4.78089,-0.117237 -4.81886,-0.154765 -0.038,-0.03754 0.0153,-1.413027 0.11854,-3.056682 0.10319,-1.643655 0.18744,-3.07798 0.18723,-3.187394 0,-0.186875 0.35698,-0.198918 5.89706,-0.198834 3.24359,4.9e-5 9.51738,0.03412 13.94175,0.07566 l 8.04432,0.07557 -0.0763,3.183665 c -0.0419,1.751021 -0.0889,3.195709 -0.10436,3.210423 -0.0863,0.08224 -19.18422,0.125285 -23.18941,0.05227 z"
       id="path803" />
    <path
       style="fill:#ffb380;stroke-width:0.114371"
       d="m 102.65535,64.008022 c -1.55059,-0.0422 -3.017415,-0.08378 -3.259623,-0.09239 -0.580259,-0.02056 -1.189364,-0.571844 -1.005957,-0.910396 0.23658,-0.436688 1.326023,-1.517788 2.02852,-2.012995 1.58075,-1.114299 3.30092,-1.640009 8.15082,-2.490996 l 0.33276,-0.05843 -0.0766,2.245462 c -0.0421,1.234999 -0.1072,2.514009 -0.14463,2.842241 l -0.068,0.596789 -1.56897,-0.02131 c -0.86295,-0.01174 -2.83764,-0.05585 -4.38826,-0.09804 z"
       id="path805" />
    <path
       style="fill:#ffb380;stroke-width:0.114371"
       d="m 115.83036,56.768057 -0.92133,-0.03787 0.24013,-4.002884 c 0.229,-3.817531 0.25453,-4.03709 0.55132,-4.74176 0.40602,-0.96403 0.64801,-1.900926 0.65021,-2.517256 0.001,-0.354698 0.0325,-0.447033 0.11028,-0.325568 0.071,0.110886 0.14603,0.130553 0.21694,0.05684 0.0596,-0.062 0.40233,-1.05906 0.76157,-2.2157 1.41067,-4.541876 2.93375,-8.852983 4.89954,-13.868302 l 0.91339,-2.330331 -1.98457,-5.618216 c -1.09151,-3.090014 -2.03891,-5.635743 -2.10533,-5.657174 -0.0711,-0.02297 -0.24854,0.604919 -0.43133,1.525926 -0.86101,4.33804 -1.33343,8.351501 -2.56587,21.798971 -0.23493,2.563365 -0.43579,4.672806 -0.44635,4.687638 -0.0106,0.01482 -0.31714,-0.07648 -0.6813,-0.202906 -0.69737,-0.242123 -1.76285,-0.401856 -3.43758,-0.515339 l -1.00901,-0.06841 0.0599,-0.700093 c 0.0329,-0.385044 0.11342,-1.544121 0.17889,-2.575716 0.60079,-9.467083 2.06032,-21.221735 3.91678,-31.5447059 0.24736,-1.3754572 0.45017,-2.5400858 0.45068,-2.5880509 0,-0.04794 1.30592,-0.073575 2.90091,-0.056845 l 2.89998,0.030379 3.63289,10.5148988 c 3.24813,9.401282 3.65699,10.511861 3.86049,10.486202 0.12519,-0.01581 0.62444,-0.08951 1.10945,-0.163804 0.85767,-0.131394 1.2564,-0.101915 2.87628,0.212684 0.27477,0.05335 0.33153,0.0033 0.55661,-0.49191 0.79746,-1.754217 1.93305,-4.570208 3.34039,-8.283286 2.61199,-6.891418 3.45802,-9.3986189 3.8639,-11.4506476 l 0.19674,-0.9946493 h 2.77319 2.77318 l 0.26502,2.47242 c 0.14575,1.359834 0.36357,3.3982889 0.48404,4.5298909 0.50828,4.774703 0.86593,11.25992 1.09017,19.768058 0.0939,3.563708 0.20526,7.668772 0.24741,9.12239 l 0.0767,2.642931 h -2.07232 c -1.13977,0 -2.37766,0.03146 -2.75084,0.07 l -0.67854,0.07 -0.0114,-10.442823 c -0.0105,-9.621482 -0.0781,-12.503082 -0.35114,-14.979464 -0.0679,-0.615498 -0.0879,-0.653542 -0.23947,-0.454699 -0.34308,0.450138 -1.66145,3.168375 -3.00822,6.202378 -0.76747,1.728931 -1.3954,3.174018 -1.3954,3.211305 0,0.03728 0.15646,0.06783 0.34768,0.06783 0.42637,0 0.39687,-0.06309 1.19845,2.563722 1.16342,3.812563 1.92481,5.887081 2.83951,7.736637 l 0.47735,0.96517 -0.0846,2.572537 c -0.0764,2.323423 -0.10701,2.602499 -0.3162,2.882008 -0.27278,0.364453 -0.49227,2.097463 -0.38037,3.003165 0.089,0.720875 0.47855,1.411962 0.96062,1.704429 l 0.37473,0.22735 -0.0603,1.023072 c -0.0331,0.562689 -0.0884,2.046144 -0.1229,3.296566 -0.0345,1.250421 -0.0908,2.54205 -0.12508,2.87029 l -0.0624,0.596788 -12.96608,-0.02313 c -7.13135,-0.01273 -13.38068,-0.0402 -13.88742,-0.06101 z"
       id="path809" />
    <path
       style="fill:#ffb380;stroke-width:0.114371"
       d="m 108.92921,63.189536 c 0.0337,-0.515797 0.11171,-2.012036 0.17332,-3.32498 0.10569,-2.252802 0.61287,-9.564528 0.74911,-10.79966 l 0.0628,-0.568939 2.59467,0.133899 c 1.42707,0.07366 2.60713,0.150628 2.62237,0.171078 0.0152,0.02048 -0.0892,1.981017 -0.23208,4.356816 -0.47967,7.976062 -0.62386,10.456572 -0.6228,10.713834 l 0.001,0.255764 h -2.70486 -2.70487 z"
       id="path811" />
    <path
       style="fill:#ffb380;stroke-width:0.114371"
       d="m 142.878,60.97288 c 0.0765,-3.617198 0.36886,-11.867751 0.42168,-11.898372 0.0185,-0.01074 1.12661,7.33e-4 2.46248,0.02538 l 2.42885,0.04486 0.0739,1.029306 c 0.0407,0.566117 0.0739,3.930507 0.0739,7.47642 v 6.447122 l -0.43152,0.0705 c -0.23733,0.03879 -1.48159,0.07099 -2.76501,0.07174 l -2.33349,8.33e-4 z"
       id="path813" />
    <path
       style="fill:#ffb380;stroke-width:0.114371"
       d="m 122.82173,57.448982 -7.96874,-0.02997 v -0.244884 -0.244885 l 3.36586,0.07491 c 1.85121,0.0412 8.11688,0.07508 13.9237,0.07516 10.48108,2.24e-4 10.55785,0.0017 10.55785,0.227557 0,0.224778 -0.0674,0.227042 -5.95497,0.199718 -3.27523,-0.01523 -9.5409,-0.04111 -13.9237,-0.05759 z"
       id="path815" />
    <path
       style="fill:#ffb380;stroke-width:0.114371"
       d="m 98.973069,70.149976 c -1.738883,-0.480883 -2.05696,-0.604338 -2.330215,-0.904388 l -0.316446,-0.34749 v -2.201634 -2.201633 l 0.465349,-0.415314 c 0.526659,-0.470022 1.215222,-0.830721 1.343652,-0.703855 0.04721,0.04661 -0.134946,0.265935 -0.404775,0.487349 -0.579587,0.47559 -0.828861,0.906077 -0.828861,1.431346 0,0.323854 0.06627,0.419227 0.431509,0.621341 0.237334,0.131319 0.768112,0.296047 1.179494,0.366051 0.411382,0.07 1.331773,0.258618 2.045324,0.419135 l 1.29734,0.291843 -0.0316,1.835458 -0.0316,1.835457 -0.40274,0.02164 c -0.22152,0.0119 -1.30894,-0.228989 -2.416503,-0.535289 z"
       id="path821" />
    <path
       style="fill:#ffb380;stroke-width:0.114371"
       d="m 141.15671,248.50186 c -3.05102,-0.0959 -3.54797,-0.14186 -5.41816,-0.50158 -1.70451,-0.32787 -2.574,-0.60806 -3.93383,-1.26769 l -1.05704,-0.51273 -0.0605,-0.5897 c -0.0332,-0.32432 -0.11668,-2.38003 -0.18534,-4.56827 -0.0686,-2.18825 -0.22573,-6.25494 -0.34906,-9.03714 -0.27128,-6.11974 -0.28788,-12.76172 -0.0529,-21.20029 0.0923,-3.31364 0.16886,-8.53369 0.17028,-11.60018 l 0.003,-5.5754 0.43151,-0.41529 0.43153,-0.41529 1.15072,2.0403 c 0.9691,1.71828 1.47309,2.44559 3.19325,4.60817 1.12339,1.41236 2.04339,2.65291 2.04445,2.75685 0.001,0.10389 0.0781,1.62121 0.1712,3.3718 0.13368,2.51389 0.16978,6.78187 0.1718,20.30568 l 0.002,17.12278 0.89067,0.13148 c 3.15604,0.46584 6.3646,0.67713 11.64992,0.76719 4.55513,0.0776 5.53021,0.0225 7.69674,-0.43501 1.23897,-0.26167 2.52203,-0.66734 3.53423,-1.1175 l 0.70189,-0.31216 0.0683,2.05186 c 0.0782,2.34893 0.19967,2.06301 -1.18441,2.78811 -1.86165,0.97531 -3.62569,1.42612 -6.27741,1.60431 -1.90837,0.12822 -9.70636,0.12803 -13.79288,0 z"
       id="path825" />
    <path
       style="fill:#ff8080;fill-opacity:1;stroke-width:0.114371"
       d="m 90.952516,105.1923 c 0.04119,-4.60531 0.111128,-7.107553 0.234327,-8.383493 0.585184,-6.060702 0.883328,-8.345149 1.631976,-12.504212 0.493583,-2.742175 0.696302,-3.593303 0.883767,-3.710765 0.08239,-0.05161 0.893219,-0.09463 1.801864,-0.09559 1.47881,-0.0017 1.644548,0.01764 1.580261,0.183163 -0.179053,0.460924 -0.768489,2.950565 -0.978926,4.134727 -0.6931,3.900195 -1.476986,12.011576 -1.790638,18.52897 -0.190218,3.95247 -0.355538,6.3136 -0.525323,7.50252 -0.05802,0.40638 -0.106539,0.77725 -0.107793,0.82414 -10e-4,0.0468 -0.62912,0.0852 -1.395254,0.0852 h -1.39297 z"
       id="path839" />
    <path
       style="fill:#ffb380;fill-opacity:1;stroke-width:0.114371"
       d="m 112.15342,48.393684 -2.29682,-0.123936 -0.15812,-0.511537 c -0.087,-0.281348 -0.18645,-1.104795 -0.22107,-1.829889 -0.0707,-1.479128 0.0985,-2.251587 0.59353,-2.711013 0.26134,-0.242532 0.33213,-0.250488 1.57849,-0.177354 2.56851,0.150711 3.86085,0.494174 4.25364,1.130479 0.40367,0.653908 0.20414,2.307485 -0.46429,3.847936 -0.21321,0.49137 -0.26359,0.534066 -0.61046,0.517411 -0.20794,-0.01 -1.41164,-0.07391 -2.6749,-0.142097 z m 2.84365,-0.77757 c 0.26478,-0.200058 0.43051,-3.26136 0.18718,-3.457723 -0.18463,-0.148997 -5.05576,-0.400083 -5.20029,-0.268056 -0.28379,0.259226 -0.39844,3.256906 -0.13455,3.517439 0.0622,0.06134 1.12277,0.157562 2.35693,0.213766 1.23414,0.05618 2.32463,0.109938 2.42328,0.119426 0.0987,0.0095 0.26401,-0.04669 0.36745,-0.124852 z"
       id="path841" />
    <path
       style="fill:#ffb380;fill-opacity:1;stroke-width:0.114371"
       d="m 112.21399,47.400533 c -1.16665,-0.05543 -2.15052,-0.130171 -2.18636,-0.166001 -0.091,-0.09087 -0.0705,-2.537755 0.0242,-2.895175 l 0.0776,-0.292801 1.29741,0.04686 c 0.71356,0.0258 1.81522,0.08082 2.44811,0.122297 l 1.15072,0.0754 0.0323,0.625211 c 0.0177,0.343862 -0.008,1.060009 -0.0575,1.591437 -0.10623,1.141974 0.22477,1.035923 -2.78641,0.892751 z"
       id="path843" />
    <path
       style="fill:#ffb380;fill-opacity:1;stroke-width:0.114371"
       d="m 144.19634,48.218652 -1.32333,-0.06258 -0.0728,-0.738877 c -0.12789,-1.296989 -0.10877,-2.445212 0.0442,-2.651796 0.12987,-0.175439 0.40765,-0.191419 2.84804,-0.16382 l 2.70413,0.03055 -0.0128,1.6745 c -0.009,1.16383 -0.0571,1.727168 -0.15793,1.847209 -0.15457,0.183995 -1.16514,0.200242 -4.02937,0.06475 z"
       id="path845" />
    <path
       style="fill:#ffb380;fill-opacity:1;stroke-width:0.114371"
       d="m 143.16069,48.77842 c -0.53418,-0.123712 -0.99321,-0.685219 -1.1498,-1.40651 -0.17185,-0.791619 -0.0339,-2.569232 0.23311,-3.00289 0.25665,-0.416938 0.66044,-0.467425 3.89271,-0.48675 2.87993,-0.01723 2.75362,-0.0844 2.9162,1.551261 0.13198,1.327967 0,2.241326 -0.42763,2.962384 l -0.29605,0.499043 -2.38289,-0.01165 c -1.3106,-0.0067 -2.56412,-0.0536 -2.78565,-0.104903 z m 5.17123,-0.331486 c 0.0935,-0.05843 0.20199,-0.391661 0.24921,-0.76556 0.12737,-1.008807 0.11777,-2.86642 -0.0161,-3.113528 -0.11287,-0.20834 -0.26934,-0.219875 -2.98295,-0.219875 h -2.86382 l -0.13718,0.41062 c -0.17643,0.528107 -0.0417,3.388801 0.16769,3.56047 0.0772,0.06325 0.93934,0.130653 1.9159,0.14973 0.97658,0.01906 2.16395,0.04528 2.63862,0.05817 0.47468,0.0129 0.93757,-0.02306 1.02864,-0.07998 z"
       id="path847" />
    <path
       id="path107"
       d="m 163.00529,111.95138 c -0.16274,-1.90982 -0.46743,-6.4271 -0.67708,-10.03839 -0.42093,-7.250832 -0.9406,-12.249597 -1.61798,-15.563671 l -0.4454,-2.179145 1.28687,-0.154638 c 2.90421,-0.348983 2.84152,-0.378861 3.4431,1.641128 0.29486,0.990085 0.69201,2.552665 0.88255,3.472399 0.63707,3.075158 1.10752,19.109397 0.71036,24.211277 l -0.16219,2.08344 h -1.56216 -1.56217 z"
       style="fill:#ff8080;fill-opacity:1;stroke-width:0.252538" />
    <path
       id="path109"
       d="m 103.63014,248.53178 c -3.720985,-0.18336 -5.886381,-0.73652 -6.789453,-1.7344 -0.350737,-0.38756 -1.005976,-3.76416 -0.781119,-4.02529 0.03732,-0.0433 0.932861,0.0999 1.990082,0.31824 3.53933,0.73107 9.1176,0.98105 15.63594,0.70069 3.30816,-0.14229 6.08157,-0.32544 6.16313,-0.40701 0.32522,-0.32522 0.33001,-9.23473 0.008,-15.35212 -0.34894,-6.63408 -0.18085,-13.31583 0.54522,-21.67275 0.45911,-5.28424 0.39005,-5.05064 2.27386,-7.69121 1.35216,-1.89534 1.78846,-2.73541 2.04257,-3.93286 0.17773,-0.83748 0.40208,-1.57148 0.49855,-1.6311 0.0965,-0.0596 0.52791,0.1994 0.95876,0.5756 l 0.78335,0.68401 0.0443,8.20749 c 0.0532,9.84556 -0.43596,40.99771 -0.6731,42.8658 -0.16633,1.31026 -0.18154,1.32949 -1.54526,1.95382 -0.7575,0.3468 -2.0771,0.73948 -2.93245,0.87264 -2.04167,0.31784 -13.72699,0.48998 -18.22268,0.26845 z"
       style="fill:#ffb380;fill-opacity:1;stroke-width:0.252538" />
    <path
       id="path113"
       d="m 156.68483,70.690986 c -0.71589,-0.04478 -0.93023,-0.129946 -1.06356,-0.422557 -0.0492,-0.10794 -0.0729,-0.701289 -0.0729,-1.825473 v -1.665551 l 0.33145,-0.03374 c 0.33926,-0.03454 3.81551,-0.166504 4.35629,-0.165372 l 0.29989,6.27e-4 v -1.002261 c 0,-1.279848 -0.0218,-1.396851 -0.26043,-1.396851 h -0.18152 l 10e-4,-0.678696 0.001,-0.678697 0.39851,0.757615 0.39851,0.757614 -0.0473,2.399112 c -0.026,1.319512 -0.067,2.648707 -0.0911,2.953766 l -0.0438,0.554653 -0.24373,0.124344 c -0.4878,0.248854 -0.93308,0.32361 -2.04692,0.34364 -0.59031,0.01062 -1.3716,6.38e-4 -1.7362,-0.02217 z"
       style="fill:#ffb380;fill-opacity:1;stroke-width:0.0631345" />
    <path
       style="fill:none;stroke:#000000;stroke-width:0.0446677px;stroke-linecap:butt;stroke-linejoin:miter;stroke-opacity:1"
       d="m 124.49376,73.457031 c -0.18993,2.438217 -0.49673,4.730356 -0.53738,7.355173 0.12433,1.796675 0.0578,11.265612 0.36502,13.037281 0.56505,2.855388 1.68308,9.539075 2.46724,11.506265"
       id="path103"
       sodipodi:nodetypes="cccc" />
    <path
       style="fill:none;stroke:#000000;stroke-width:0.115407px;stroke-linecap:butt;stroke-linejoin:miter;stroke-opacity:1"
       d="m 129.70041,167.7107 c 2.02041,0.20397 4.05297,0.28751 6.08331,0.25002 4.12681,-0.0762 8.24047,-0.65159 12.36665,-0.54665 3.96078,0.10074 7.89194,0.82778 11.85397,0.81297 1.84201,-0.007 3.68338,-0.17472 5.49628,-0.50096"
       id="path121"
       inkscape:path-effect="#path-effect123"
       inkscape:original-d="m 129.70041,167.7107 c 1.91779,-0.006 4.12493,0.25612 6.08331,0.25002 1.95836,-0.006 8.15074,-0.54365 12.36665,-0.54665 4.2159,-0.003 7.85105,0.81097 11.85397,0.81297 4.00293,0.003 3.62312,-0.50756 5.49628,-0.50096"
       sodipodi:nodetypes="ccscc" />
    <path
       sodipodi:nodetypes="ccscc"
       inkscape:original-d="m 129.6291,174.14028 c 1.91779,-0.006 4.12493,0.25612 6.08331,0.25002 1.95836,-0.006 8.15074,-0.54365 12.36665,-0.54665 4.2159,-0.003 7.85105,0.81097 11.85397,0.81297 4.00293,0.003 3.37758,-0.37363 5.25074,-0.36703"
       inkscape:path-effect="#path-effect127"
       id="path125"
       d="m 129.6291,174.14028 c 2.02052,0.20266 4.05298,0.28619 6.08331,0.25002 4.12677,-0.0735 8.2403,-0.64078 12.36665,-0.54665 3.96078,0.0904 7.89223,0.78953 11.85397,0.81297 1.75616,0.0104 3.5131,-0.11242 5.25074,-0.36703"
       style="fill:none;stroke:#000000;stroke-width:0.115407px;stroke-linecap:butt;stroke-linejoin:miter;stroke-opacity:1" />
    <path
       sodipodi:nodetypes="ccscc"
       inkscape:original-d="m 92.814059,167.75806 c 1.91779,-0.006 2.941157,0.14563 4.899537,0.13953 1.95836,-0.006 8.150744,-0.54365 12.366654,-0.54665 4.2159,-0.003 7.85105,0.81097 11.85397,0.81297 4.00293,0.003 3.62312,-0.50756 5.49628,-0.50096"
       inkscape:path-effect="#path-effect131"
       id="path129"
       d="m 92.814059,167.75806 c 1.629739,0.12408 3.265377,0.17066 4.899537,0.13953 4.126764,-0.0786 8.240494,-0.65222 12.366654,-0.54665 3.96076,0.10134 7.89194,0.82793 11.85397,0.81297 1.842,-0.007 3.68337,-0.17479 5.49628,-0.50096"
       style="fill:none;stroke:#000000;stroke-width:0.115407px;stroke-linecap:butt;stroke-linejoin:miter;stroke-opacity:1" />
    <path
       style="fill:none;stroke:#000000;stroke-width:0.115407px;stroke-linecap:butt;stroke-linejoin:miter;stroke-opacity:1"
       d="m 92.900585,173.98244 c 1.702938,0.13529 3.412501,0.18714 5.120508,0.15532 4.126707,-0.0769 8.240317,-0.64166 12.366647,-0.54665 3.96076,0.0912 7.89223,0.78973 11.85397,0.81297 1.75616,0.0103 3.51309,-0.11251 5.25074,-0.36703"
       id="path133"
       inkscape:path-effect="#path-effect135"
       inkscape:original-d="m 92.900585,173.98244 c 1.91779,-0.006 3.162128,0.16142 5.120508,0.15532 1.95836,-0.006 8.150737,-0.54365 12.366647,-0.54665 4.2159,-0.003 7.85105,0.81097 11.85397,0.81297 4.00293,0.003 3.37758,-0.37363 5.25074,-0.36703"
       sodipodi:nodetypes="ccscc" />
    <path
       style="fill:#ffb380;fill-opacity:1;stroke-width:0.252538"
       d="m 154.7657,174.16754 c -4.21166,-0.42232 -10.45181,-0.47008 -15.78364,-0.1208 -2.22233,0.14558 -5.20544,0.18842 -6.62912,0.0952 l -2.58852,-0.16948 v -3.03046 -3.03046 l 2.58852,0.16486 c 1.46969,0.0936 5.31735,0.004 8.90197,-0.20695 3.4724,-0.20449 6.76802,-0.32376 7.3236,-0.26505 6.0112,0.63523 11.85116,0.90714 14.14042,0.65838 1.37711,-0.14964 2.52946,-0.24645 2.56079,-0.21513 0.0313,0.0313 -0.008,1.38501 -0.0884,3.00819 -0.10813,2.19558 -0.23594,2.98599 -0.49914,3.08699 -0.84401,0.32388 -6.79532,0.33869 -9.92648,0.0247 z"
       id="path139" />
    <path
       style="fill:none;stroke:#000000;stroke-width:0.115407px;stroke-linecap:butt;stroke-linejoin:miter;stroke-opacity:1"
       d="m 91.415643,120.82218 c 1.935366,-0.36272 3.88173,-0.66675 5.835517,-0.91154 4.09966,-0.51365 8.24078,-0.76621 12.36665,-0.54665 3.95655,0.21055 7.89203,0.8543 11.85397,0.81297 1.84157,-0.0192 3.68158,-0.18692 5.49628,-0.50096"
       id="path145"
       inkscape:path-effect="#path-effect147"
       inkscape:original-d="m 91.415643,120.82218 c 1.91779,-0.006 3.877137,-0.90544 5.835517,-0.91154 1.95836,-0.006 8.15074,-0.54365 12.36665,-0.54665 4.2159,-0.003 7.85105,0.81097 11.85397,0.81297 4.00293,0.003 3.62312,-0.50756 5.49628,-0.50096"
       sodipodi:nodetypes="ccscc" />
    <path
       style="fill:none;stroke:#000000;stroke-width:0.115407px;stroke-linecap:butt;stroke-linejoin:miter;stroke-opacity:1"
       d="m 128.30576,119.6191 c 1.63008,0.11836 3.26537,0.16493 4.89954,0.13953 4.12656,-0.0641 8.23979,-0.58674 12.36665,-0.54665 3.96127,0.0385 7.89851,0.59496 11.85397,0.81297 3.00832,0.16581 6.02743,0.13552 9.03181,-0.0906"
       id="path149"
       inkscape:path-effect="#path-effect151"
       inkscape:original-d="m 128.30576,119.6191 c 1.91779,-0.006 2.94116,0.14563 4.89954,0.13953 1.95836,-0.006 8.15074,-0.54365 12.36665,-0.54665 4.2159,-0.003 7.85105,0.81097 11.85397,0.81297 4.00293,0.003 7.15865,-0.0972 9.03181,-0.0906"
       sodipodi:nodetypes="ccscc" />
    <path
       sodipodi:nodetypes="ccscc"
       inkscape:original-d="m 91.466597,126.49822 c 1.91779,-0.006 3.25683,0.14564 5.21521,0.13954 1.95836,-0.006 8.150733,-0.54365 12.366643,-0.54665 4.2159,-0.003 7.85105,0.81097 11.85397,0.81297 4.00293,0.003 4.3246,-0.21579 6.19776,-0.20919"
       inkscape:path-effect="#path-effect155"
       id="path153"
       d="m 91.466597,126.49822 c 1.735002,0.12707 3.475896,0.17365 5.21521,0.13954 4.126423,-0.0809 8.239993,-0.61544 12.366643,-0.54665 3.96087,0.066 7.89454,0.68738 11.85397,0.81297 2.06753,0.0656 4.13935,-0.004 6.19776,-0.20919"
       style="fill:none;stroke:#000000;stroke-width:0.115407px;stroke-linecap:butt;stroke-linejoin:miter;stroke-opacity:1" />
    <path
       sodipodi:nodetypes="ccscc"
       inkscape:original-d="m 128.88273,126.61908 c 1.91779,-0.006 3.16213,0.11407 5.12051,0.10797 1.95836,-0.006 8.15073,-0.54365 12.36664,-0.54665 4.2159,-0.003 7.85105,0.81097 11.85397,0.81297 4.00293,0.003 6.20285,-0.53147 8.07601,-0.52487"
       inkscape:path-effect="#path-effect159"
       id="path157"
       d="m 128.88273,126.61908 c 1.70417,0.11073 3.41319,0.14677 5.12051,0.10797 4.1262,-0.0938 8.2401,-0.6242 12.36664,-0.54665 3.96075,0.0744 7.8939,0.70846 11.85397,0.81297 2.70049,0.0713 5.40746,-0.10466 8.07601,-0.52487"
       style="fill:none;stroke:#000000;stroke-width:0.115407px;stroke-linecap:butt;stroke-linejoin:miter;stroke-opacity:1" />
    <path
       style="fill:#ffb380;fill-opacity:1;stroke-width:0.178571"
       d="m 119.28465,174.13615 c -0.98214,-0.0844 -3.19196,-0.27891 -4.91071,-0.43214 -3.86505,-0.34456 -5.63281,-0.34651 -10.625,-0.0118 -4.370189,0.29306 -10.041706,0.34801 -10.431827,0.10108 -0.195318,-0.12363 -0.27204,-0.81209 -0.335368,-3.00944 l -0.08211,-2.84915 2.478225,0.0848 c 1.387502,0.0475 4.378686,-0.0415 6.79625,-0.2021 5.63657,-0.37451 8.59291,-0.3584 13.27126,0.0723 4.29334,0.39526 8.1379,0.45384 10.33955,0.15754 0.80727,-0.10864 1.51299,-0.1523 1.56827,-0.097 0.0553,0.0553 0.0423,1.42007 -0.0289,3.03288 l -0.12934,2.93237 -0.74819,0.10255 c -1.4855,0.20361 -5.41429,0.26839 -7.16215,0.11809 z"
       id="path161" />
    <path
       style="fill:#ffb380;fill-opacity:1;stroke-width:0.178571"
       d="m 118.74894,126.64953 c -8.82129,-0.76494 -9.64783,-0.79538 -14.46429,-0.53281 -2.55357,0.13921 -6.450889,0.2531 -8.660711,0.2531 h -4.017857 l -0.04919,-2.70409 -0.04919,-2.70409 1.176478,-0.20487 c 7.080817,-1.23307 14.02876,-1.57854 20.09858,-0.99936 5.45403,0.52043 8.27769,0.6426 10.64697,0.46066 1.25592,-0.0964 2.53815,-0.22701 2.8494,-0.29016 l 0.56591,-0.11481 0.0607,3.36765 c 0.0334,1.85221 0.0547,3.38631 0.0474,3.40912 -0.0409,0.12756 -6.85006,0.17708 -8.20416,0.0597 z"
       id="path163" />
    <path
       style="fill:#ffb380;fill-opacity:1;stroke-width:0.178571"
       d="m 152.49894,126.44992 c -3.95816,-0.37512 -9.10333,-0.4324 -12.97687,-0.14447 -2.82137,0.20971 -10.22289,0.31583 -10.3905,0.14897 -0.0687,-0.0684 -0.65049,-5.90127 -0.65049,-6.5221 0,-0.0442 1.54688,-0.0804 3.4375,-0.0804 1.89063,-2e-5 5.44643,-0.12804 7.90179,-0.28448 4.82764,-0.30759 7.42614,-0.25875 12.5,0.23496 2.03804,0.19831 4.84024,0.29901 8.52654,0.30641 l 5.49083,0.011 -0.0219,1.875 c -0.0121,1.03125 -0.0722,2.4375 -0.13368,3.125 l -0.11175,1.25 -1.78572,0.20787 c -2.582,0.30055 -7.87131,0.24321 -11.78571,-0.12777 z"
       id="path165" />
    <path
       style="fill:#ff8080;fill-opacity:1;stroke-width:0.178571"
       d="m 153.83823,167.69592 c -3.8526,-0.38547 -9.13886,-0.44551 -12.85715,-0.14602 -2.86841,0.23104 -9.59654,0.28851 -10.46876,0.0894 l -0.55805,-0.12738 -0.10084,-4.23178 c -0.0555,-2.32748 -0.22231,-10.45946 -0.37077,-18.07107 -0.14846,-7.61161 -0.32383,-14.85506 -0.38973,-16.09656 l -0.11981,-2.25727 4.70934,-0.0869 c 2.59014,-0.0478 6.43702,-0.18968 8.54862,-0.31531 3.38943,-0.20167 4.27869,-0.19276 7.58929,0.076 8.50976,0.69093 9.29552,0.72218 12.39804,0.49309 1.62751,-0.12018 3.17157,-0.26361 3.43125,-0.31873 l 0.47215,-0.10022 -0.077,6.04399 c -0.0423,3.32419 -0.15454,8.09309 -0.24935,10.59755 -0.0948,2.50447 -0.18119,8.25 -0.19195,12.76786 -0.0108,4.51786 -0.0709,8.97768 -0.13352,9.91072 l -0.11394,1.69642 -1.60714,0.20955 c -2.2987,0.29972 -6.09195,0.24864 -9.91071,-0.13345 z"
       id="path171" />
    <path
       style="fill:#ff8080;fill-opacity:1;stroke-width:0.178571"
       d="m 117.7668,167.79225 c -7.49404,-0.6594 -8.77985,-0.69488 -13.75,-0.37943 -2.60268,0.16519 -6.158486,0.29943 -7.901789,0.29832 l -3.169643,-0.002 -1.03e-4,-1.83036 c -5.7e-5,-1.00669 -0.08044,-3.27678 -0.17863,-5.04464 -0.759691,-13.67789 -1.249838,-25.18921 -1.249838,-29.35297 v -4.82012 l 2.544642,0.0964 c 1.505774,0.0571 4.393462,-0.0206 7.073201,-0.19023 5.99375,-0.37939 8.88013,-0.36198 14.12831,0.0853 3.16149,0.26941 5.39017,0.35597 8.05341,0.3128 l 3.68227,-0.0597 0.11543,4.91071 c 0.0635,2.7009 0.16891,11.83015 0.23429,20.28723 l 0.11887,15.37651 -0.61617,0.1156 c -1.11785,0.20971 -4.1532,0.46177 -5.33425,0.44297 -0.6384,-0.0102 -2.3259,-0.121 -3.75,-0.24631 z"
       id="path173" />
    <path
       style="fill:#ff8080;fill-opacity:1;stroke-width:0.178571"
       d="m 103.48108,243.48942 c -3.1188,-0.23263 -7.15299,-0.97828 -7.472461,-1.38116 -0.328926,-0.4148 -1.616214,-24.06487 -1.74115,-31.98844 -0.09677,-6.13702 -0.33717,-13.61187 -0.706411,-21.96428 -0.147622,-3.33929 -0.317873,-7.85546 -0.378337,-10.03593 l -0.109933,-3.96451 2.480933,0.0996 c 1.492043,0.0599 4.237877,-0.0147 6.888769,-0.18728 5.84756,-0.38061 8.76383,-0.36186 13.65728,0.0878 3.14809,0.28929 4.88789,0.35525 7.63134,0.28932 l 3.5536,-0.0854 -0.12968,9.57545 c -0.0713,5.2665 -0.15915,9.60493 -0.19517,9.64095 -0.036,0.036 -0.43572,-0.18438 -0.88823,-0.48977 -0.4525,-0.30539 -0.89026,-0.55526 -0.97279,-0.55526 -0.0825,0 -0.32395,0.66295 -0.53647,1.47321 -0.59944,2.28541 -0.62803,2.34601 -1.88288,3.99059 -2.08536,2.73303 -2.1248,2.85753 -2.56831,8.10763 -0.21157,2.50446 -0.50922,7.00057 -0.66145,9.99136 -0.25045,4.92058 -0.25023,5.95777 0.002,10.9048 0.15348,3.00686 0.27906,7.88188 0.27906,10.83337 v 5.36636 l -1.38393,0.10919 c -1.73112,0.13659 -13.53802,0.28142 -14.86607,0.18237 z"
       id="path175" />
    <path
       style="fill:#ff8080;fill-opacity:1;stroke-width:0.178571"
       d="m 143.3918,243.41655 c -0.88393,-0.0813 -2.42464,-0.24446 -3.42381,-0.36266 l -1.81666,-0.21492 -0.0899,-19.48458 c -0.0494,-10.71651 -0.15753,-19.96671 -0.24024,-20.55599 -0.14252,-1.01527 -0.25391,-1.20039 -2.12509,-3.53163 -1.16178,-1.44742 -2.47303,-3.34035 -3.18523,-4.59822 -0.6658,-1.1759 -1.25711,-2.13801 -1.31404,-2.13801 -0.0569,0 -0.28948,0.17472 -0.51679,0.38827 l -0.41329,0.38827 v -5.1782 c 0,-4.55957 -0.17714,-9.73104 -0.43643,-12.7412 l -0.0846,-0.98214 h 4.59086 c 2.52498,0 6.5687,-0.11489 8.98605,-0.25531 4.00156,-0.23245 4.7212,-0.22786 8.03571,0.0512 7.8236,0.65866 8.69924,0.69716 11.20327,0.49262 1.32542,-0.10827 2.42867,-0.17729 2.45165,-0.15339 0.023,0.0239 -0.0647,2.17293 -0.19496,4.77561 -0.14828,2.96371 -0.20089,6.73415 -0.14078,10.08929 0.0891,4.97602 0.0635,5.63028 -0.36031,9.19643 -0.38914,3.27433 -0.47024,4.86407 -0.55117,10.80357 -0.0866,6.35811 -0.49457,17.09986 -0.73241,19.28571 -0.0534,0.49107 -0.17381,3.18304 -0.2675,5.98215 -0.0937,2.7991 -0.22397,5.51575 -0.28952,6.03699 -0.11518,0.91586 -0.14838,0.9625 -0.9878,1.38787 -0.47774,0.24209 -1.61109,0.65369 -2.51856,0.91467 -1.62824,0.46826 -1.73098,0.47501 -7.81066,0.51294 -3.38839,0.0211 -6.88392,-0.0281 -7.76785,-0.10932 z"
       id="path177" />
    <path
       id="path134"
       d="m 126.13869,102.46044 c -1.115,-4.828399 -1.70001,-8.503871 -1.84747,-11.60714 -0.30998,-6.523649 -0.0716,-16.76652 0.40113,-17.239298 0.0663,-0.06628 0.69186,-0.06312 1.39018,0.007 l 1.26967,0.127508 -0.10352,4.489892 c -0.0569,2.46944 -0.19152,7.543463 -0.29908,11.275606 -0.10756,3.732143 -0.24588,8.553571 -0.30737,10.714282 l -0.11179,3.92857 z"
       style="fill:#ff8080;fill-opacity:1;stroke-width:0.178571" />
    <path
       style="fill:#ff8080;fill-opacity:1;stroke-width:0.126269"
       d="m 91.486577,120.38231 c -0.09916,-0.39789 -0.329573,-3.71724 -0.439112,-6.32592 l -0.08881,-2.11504 1.483661,4e-5 c 0.816014,2e-5 1.483767,-0.0142 1.483894,-0.0315 1.27e-4,-0.0174 0.08144,-0.80148 0.180696,-1.74248 0.09925,-0.941 0.243033,-3.01497 0.319507,-4.60882 0.334824,-6.978273 1.068548,-15.315366 1.71032,-19.433864 0.273821,-1.757218 0.984628,-4.924915 1.272758,-5.672021 0.08756,-0.227036 0.0098,-0.234837 -1.822295,-0.182791 -1.052566,0.0299 -1.913756,0.01824 -1.913756,-0.02592 0,-0.04416 0.228708,-0.914413 0.50824,-1.933896 0.657426,-2.397704 1.330616,-4.28156 1.806488,-5.055282 l 0.379186,-0.61652 0.894319,0.07405 c 0.954872,0.07907 4.928967,0.206633 18.494887,0.593665 4.68006,0.133521 8.53589,0.269459 8.56852,0.302083 0.0326,0.03262 -0.0441,1.15639 -0.17047,2.497256 -0.18911,2.006439 -0.2238,3.398935 -0.19596,7.867508 0.0518,8.312143 0.11012,9.106763 1.01535,13.828965 0.41962,2.188988 0.96894,4.774347 1.22071,5.745247 0.25178,0.97089 0.50998,2.06184 0.57378,2.42433 0.0638,0.36249 0.10129,3.57288 0.0833,7.1342 l -0.0327,6.47513 -1.07329,0.17613 c -0.73202,0.12012 -2.23759,0.1788 -4.73509,0.18456 -3.07019,0.007 -4.22281,-0.0463 -7.1342,-0.33029 -6.04163,-0.58936 -9.78794,-0.57968 -15.341691,0.0397 -2.037919,0.22726 -5.541085,0.73114 -6.580752,0.94654 -0.340533,0.0706 -0.403527,0.0416 -0.467469,-0.21498 z"
       id="path130" />
    <path
       style="fill:#ff8080;fill-opacity:1;stroke-width:0.126269"
       d="m 157.94439,119.9325 c -0.52086,-0.022 -2.62324,-0.18723 -4.67195,-0.36722 -5.32697,-0.46799 -9.40649,-0.51897 -14.81115,-0.18509 -4.52662,0.27965 -6.32893,0.31426 -9.41244,0.1808 l -1.91411,-0.0829 0.002,-5.75709 c 9e-4,-3.16641 -0.0638,-7.23446 -0.14369,-9.04013 -0.12163,-2.74775 -0.10936,-4.32268 0.0753,-9.659581 0.12133,-3.507105 0.28543,-9.729 0.36466,-13.826431 l 0.14406,-7.449875 10.10153,-0.01517 c 6.26025,-0.0094 11.08585,-0.07375 12.69004,-0.169221 1.42368,-0.08473 4.23633,-0.197693 6.25032,-0.251028 2.12601,-0.0563 3.80454,-0.155029 4.00212,-0.235397 0.39004,-0.158649 0.19204,-0.570514 1.65798,3.448732 0.90239,2.474131 2.19344,6.835761 2.06223,6.966968 -0.045,0.04496 -1.03038,0.130718 -2.18983,0.19057 -1.15944,0.05985 -2.13279,0.133529 -2.16299,0.163729 -0.0302,0.0302 0.12327,0.980628 0.34105,2.112064 0.95089,4.94026 1.24436,7.778674 1.72056,16.64124 0.1962,3.65148 0.58338,8.92362 0.85776,11.67988 l 0.15084,1.51523 1.75476,0.0352 1.75475,0.0353 -0.0894,1.91921 c -0.0491,1.05557 -0.14625,1.95437 -0.21577,1.99733 -0.30525,0.18866 -5.29644,0.28035 -8.31827,0.15282 z"
       id="path135" />
    <path
       style="fill:#ff8080;fill-opacity:1;stroke-width:0.126269"
       d="M 98.408529,72.54065 C 97.505705,72.48969 96.667594,72.44152 96.54606,72.433603 96.348655,72.420743 96.325089,72.257211 96.325089,70.900199 V 69.38119 l 0.34724,0.247907 c 0.442371,0.315825 4.034271,1.274882 4.774751,1.274882 h 0.56012 l 0.0263,-1.452094 c 0.0521,-2.875592 0.084,-2.620432 -0.34198,-2.738363 -0.20834,-0.05768 -1.19644,-0.273519 -2.195781,-0.479632 -1.837623,-0.379009 -2.413035,-0.607469 -2.413035,-0.958066 0,-0.365934 0.383013,-0.93159 0.841955,-1.24345 0.459716,-0.312385 0.460878,-0.312485 0.773273,-0.06676 0.287963,0.226512 0.527587,0.246099 3.010618,0.246099 1.48377,0 2.69776,0.02134 2.69776,0.04742 0,0.02608 -0.14368,0.372313 -0.31929,0.7694 -0.45745,1.03438 -0.78423,2.308985 -1.31145,5.115354 l -0.46303,2.464716 -1.13126,0.01235 c -0.62219,0.0068 -1.869927,-0.02935 -2.772751,-0.08031 z"
       id="path143" />
    <path
       style="fill:#ff8080;fill-opacity:1;stroke-width:0.126269"
       d="m 153.6412,72.614918 c -1.00805,-3.892289 -1.70071,-6.055373 -2.60039,-8.120664 -0.0554,-0.12707 0.87476,-0.152685 4.58506,-0.12627 l 4.6545,0.03314 0.0369,0.978585 0.0369,0.978586 -0.54196,0.01671 c -0.29807,0.0092 -1.42268,0.05181 -2.49912,0.0947 l -1.95717,0.07799 0.0363,1.957171 c 0.0469,2.527424 -0.0791,2.399112 2.35672,2.399112 1.16408,0 2.00079,-0.06138 2.37598,-0.174295 l 0.57914,-0.174295 0.0432,1.026611 c 0.0319,0.759536 -0.002,1.065768 -0.13125,1.177126 -0.24717,0.213276 -1.09404,0.279755 -4.15717,0.32634 l -2.68515,0.04084 z"
       id="path147" />
    <path
       style="fill:#ffb380;fill-opacity:1;stroke-width:0.0892857"
       d="m 148.56091,58.838997 c 0.0139,-2.934153 0.034,-5.451295 0.0446,-5.59365 0.0174,-0.232729 0.0585,-0.190253 0.40732,0.421263 0.71922,1.260951 0.91428,1.902481 0.97182,3.196222 l 0.0508,1.143326 0.36614,0.0447 c 0.20137,0.02458 0.69904,0.06921 1.10592,0.09917 2.58284,0.190184 5.43827,1.515157 7.50264,3.481362 l 0.85508,0.814423 0.0378,0.864002 0.0378,0.864002 -5.70262,10e-7 -5.70261,2e-6 z"
       id="path159" />
    <path
       id="path131"
       d="m 105.30226,72.813205 c -1.51049,-0.02929 -2.75591,-0.06253 -2.7676,-0.07387 -0.0318,-0.03079 0.72976,-4.104691 0.94347,-5.047159 0.22553,-0.994638 0.58176,-2.074336 0.94597,-2.867171 l 0.27176,-0.591588 1.23443,0.03869 c 0.67894,0.02128 1.93553,0.05678 2.79242,0.07889 l 1.55799,0.0402 -0.19322,0.512701 c -0.55613,1.475701 -0.96187,2.989052 -1.59315,5.94227 -0.2301,1.076444 -0.42452,1.971376 -0.43204,1.988738 -0.008,0.01736 -1.24953,0.0076 -2.76003,-0.0217 z"
       style="fill:#ffb380;fill-opacity:1;stroke-width:0.0631345" />
    <path
       id="path141"
       d="m 147.00911,73.071659 c -0.0238,-0.251749 -0.12661,-1.41861 -0.22854,-2.593025 -0.10193,-1.174414 -0.22961,-2.481299 -0.28373,-2.904188 -0.11354,-0.887198 -0.47181,-3.082135 -0.51453,-3.152219 -0.0159,-0.02604 1.04006,-0.04735 2.34653,-0.04735 h 2.37539 l 0.30233,0.647129 c 0.57113,1.222465 1.0253,2.47905 1.4827,4.102364 0.31959,1.134194 1.0609,4.034693 1.03655,4.05569 -0.0112,0.0096 -0.7448,0.05143 -1.63026,0.09285 -0.88546,0.04142 -2.24917,0.115806 -3.03046,0.165294 -0.78129,0.04949 -1.50878,0.09025 -1.61665,0.09058 l -0.19612,5.68e-4 -0.0432,-0.457726 z"
       style="fill:#ffb380;fill-opacity:1;stroke-width:0.0631345" />
    <path
       sodipodi:nodetypes="sssssss"
       inkscape:original-d="m 125.95547,67.976815 c 0.0337,-0.696739 0.64428,-0.609439 0.95608,-0.743514 0.3118,-0.134081 1.14266,0.274741 1.73923,0.341616 0.5966,0.06684 -0.22702,1.567525 -0.11187,2.431496 0.11516,0.863971 -1.14242,0.107283 -1.69855,0.160757 -0.55613,0.05352 -0.4542,-0.699858 -0.95609,-0.854041 -0.50187,-0.154166 0.0374,-0.639576 0.0712,-1.336314 z"
       inkscape:path-effect="#path-effect139"
       id="path137"
       d="m 125.95547,67.976815 c 0.20797,-0.356635 0.56323,-0.616598 0.95608,-0.743514 0.29438,-0.0951 0.61238,-0.119178 0.91642,-0.06202 0.30404,0.05715 0.59328,0.196224 0.82281,0.40364 0.34497,0.311728 0.54476,0.779579 0.52537,1.244123 -0.0194,0.464544 -0.25951,0.916276 -0.63724,1.187373 -0.24086,0.172866 -0.53163,0.272397 -0.82716,0.296076 -0.29553,0.02368 -0.59531,-0.02725 -0.87139,-0.135319 -0.40789,-0.159663 -0.77326,-0.455999 -0.95609,-0.854041 -0.19351,-0.4213 -0.16235,-0.935821 0.0712,-1.336314 z"
       style="fill:none;stroke:#000000;stroke-width:0.113221px;stroke-linecap:butt;stroke-linejoin:miter;stroke-opacity:1" />
    <path
       style="fill:#ffe680;stroke-width:0.0446429"
       d="m 127.14661,70.183029 c -0.21769,-0.05441 -0.56382,-0.227105 -0.76929,-0.383823 -0.22793,-0.173851 -0.40943,-0.460958 -0.48986,-0.774887 -0.0861,-0.336191 -0.058,-0.553119 0.11997,-0.924135 0.15101,-0.314882 0.38289,-0.53586 0.7525,-0.717125 0.22104,-0.108405 0.29679,-0.121263 0.71595,-0.121518 0.41408,-2.51e-4 0.49815,0.0135 0.72089,0.117928 0.91978,0.431228 1.17356,1.608426 0.50664,2.350199 -0.3529,0.392511 -1.02138,0.58718 -1.5568,0.453361 z"
       id="path349" />
    <path
       style="fill:#ff8080;fill-opacity:1;stroke-width:0.0446429"
       d="m 122.02945,73.286516 c -4.88155,-0.14703 -8.33114,-0.248724 -11.83944,-0.349028 -1.04852,-0.02998 -1.91638,-0.06449 -1.92858,-0.07669 -0.0122,-0.0122 0.006,-0.152092 0.0414,-0.310863 0.035,-0.158771 0.19579,-0.911442 0.35731,-1.672603 0.58862,-2.773881 1.19188,-4.967795 1.70627,-6.205357 l 0.12989,-0.3125 h 2.80896 c 1.54493,0 5.33519,0.03901 8.4228,0.0867 l 5.61384,0.0867 v 1.260583 1.260583 l -0.24418,0.05069 c -0.55068,0.114321 -1.07409,0.509628 -1.28796,0.972728 -0.0783,0.169541 -0.0973,0.29326 -0.0973,0.634698 -3e-5,0.374181 0.0147,0.454076 0.12498,0.678688 0.2236,0.455338 0.72411,0.818307 1.29239,0.937239 l 0.2567,0.05372 v 1.531247 1.531246 l -0.2567,-0.0059 c -0.14118,-0.0033 -2.43638,-0.0716 -5.10044,-0.151834 z"
       id="path351" />
    <path
       style="fill:#ff8080;fill-opacity:1;stroke-width:0.0446429"
       d="m 138.25713,73.508696 c -4.32143,-0.03029 -8.50503,-0.05718 -9.29688,-0.05974 l -1.43973,-0.0047 V 71.91019 70.376123 l 0.29042,-0.02331 c 1.17727,-0.0945 1.83036,-1.479768 1.17738,-2.497354 -0.261,-0.406733 -0.75058,-0.715806 -1.22843,-0.775509 l -0.23937,-0.02991 v -1.267177 -1.267178 h 1.63888 c 2.12573,0 12.69837,-0.07839 14.92986,-0.110691 l 1.72498,-0.02497 0.0514,0.279885 c 0.36816,2.005375 0.53291,3.288383 0.74104,5.770957 0.0864,1.03125 0.18681,2.143099 0.22302,2.470775 0.0362,0.327677 0.0658,0.61395 0.0658,0.636161 0,0.02221 -0.17578,0.03714 -0.39063,0.03316 -0.21484,-0.004 -3.92634,-0.03201 -8.24776,-0.0623 z"
       id="path353" />
  </g>
</svg>
