<?xml version="1.0" encoding="UTF-8" standalone="no"?>
<svg
   xmlns:dc="http://purl.org/dc/elements/1.1/"
   xmlns:cc="http://creativecommons.org/ns#"
   xmlns:rdf="http://www.w3.org/1999/02/22-rdf-syntax-ns#"
   xmlns:svg="http://www.w3.org/2000/svg"
   xmlns="http://www.w3.org/2000/svg"
   xmlns:sodipodi="http://sodipodi.sourceforge.net/DTD/sodipodi-0.dtd"
   xmlns:inkscape="http://www.inkscape.org/namespaces/inkscape"
   version="1.1"
   viewBox="0 0 64 64"
   id="svg835"
   sodipodi:docname="crest_of_chevalier.svg"
   inkscape:version="1.1-dev (ddb55ca, 2020-02-02)">
  <metadata
     id="metadata841">
    <rdf:RDF>
      <cc:Work
         rdf:about="">
        <dc:format>image/svg+xml</dc:format>
        <dc:type
           rdf:resource="http://purl.org/dc/dcmitype/StillImage" />
      </cc:Work>
    </rdf:RDF>
  </metadata>
  <defs
     id="defs839" />
  <sodipodi:namedview
     pagecolor="#ffffff"
     bordercolor="#666666"
     borderopacity="1"
     objecttolerance="10"
     gridtolerance="10"
     guidetolerance="10"
     inkscape:pageopacity="0"
     inkscape:pageshadow="2"
     inkscape:window-width="900"
     inkscape:window-height="651"
     id="namedview837"
     showgrid="false"
     inkscape:zoom="1.1518659"
     inkscape:cx="20.822733"
     inkscape:cy="8.0170028"
     inkscape:window-x="204"
     inkscape:window-y="37"
     inkscape:window-maximized="0"
     inkscape:current-layer="svg835" />
  <path
     inkscape:connector-curvature="0"
     id="path852"
     d="m 19.174606,57.095884 c 0,-0.07511 0.563653,-0.971867 1.252562,-1.992785 1.515518,-2.2459 1.565804,-2.866091 0.375768,-4.634477 -0.482236,-0.716601 -0.876793,-1.454023 -0.876793,-1.638719 0,-0.761835 0.59564,-0.595951 1.755404,0.488873 0.676104,0.632415 1.40288,1.149846 1.615059,1.149846 0.212179,0 0.808842,-0.372692 1.325922,-0.828204 3.01113,-2.652612 3.655225,-2.547399 1.816935,0.296795 -0.551127,0.852698 -1.002049,1.806885 -1.002049,2.120413 0,0.379967 0.460705,0.967792 1.381641,1.76287 0.759901,0.656052 1.319563,1.293262 1.243691,1.416026 -0.07587,0.122761 -1.043489,-0.110681 -2.150265,-0.518763 -1.106776,-0.40808 -2.172857,-0.741965 -2.369065,-0.741965 -0.196212,0 -0.667626,0.364154 -1.047589,0.80923 -1.492161,1.747871 -2.291109,2.447429 -2.795145,2.447429 -0.289342,0 -0.526076,-0.06146 -0.526076,-0.136569 z m 25.209238,-0.383451 c -0.363606,-0.286013 -1.004241,-1.018761 -1.423636,-1.62833 -0.8715,-1.266683 -1.452909,-1.392305 -2.940431,-0.635335 -1.237709,0.629846 -2.77333,1.038812 -2.932653,0.781023 -0.07057,-0.114184 0.464016,-0.67846 1.187964,-1.25395 1.797945,-1.429237 1.845212,-1.562858 1.044121,-2.951585 -1.589413,-2.755312 -1.658392,-2.927412 -1.211079,-3.021599 0.224894,-0.04735 0.763356,0.245619 1.196577,0.651051 2.076241,1.943051 3.212119,2.087564 4.420107,0.562352 0.4365,-0.551127 0.896896,-1.002049 1.0231,-1.002049 0.488774,0 0.185203,1.429679 -0.526635,2.480192 -1.057756,1.561015 -0.971805,2.172017 0.635728,4.519277 1.30669,1.907979 1.349863,2.018973 0.785321,2.018973 -0.328562,0 -0.89488,-0.234008 -1.258484,-0.52002 z m 0.906672,-10.168504 c -0.447257,-0.178901 -0.387941,-0.700247 0.186947,-1.64315 0.508695,-0.834334 0.6429,-1.850219 0.310242,-2.34842 -0.379651,-0.568578 -1.39713,-0.886558 -3.637046,-1.136637 -2.24457,-0.2506 -3.167119,-0.585232 -2.753566,-0.998785 0.111503,-0.111503 1.506764,-0.484674 3.100581,-0.829268 3.419771,-0.739377 3.649616,-0.817444 3.835892,-1.302867 0.315375,-0.821856 -2.042637,-6.262496 -3.052993,-7.044172 -0.58639,-0.453668 -1.239788,-0.165186 -2.937676,1.297004 -2.148546,1.850292 -2.901388,2.399227 -3.290444,2.399227 -0.553334,0 -0.420886,-0.304012 1.155954,-2.653276 1.825864,-2.720275 1.883254,-3.249468 0.482437,-4.448514 -1.329028,-1.137597 -3.544557,-2.29345 -4.035185,-2.105178 -0.241158,0.09254 -0.595869,1.017316 -0.95323,2.485195 -0.313032,1.285794 -0.680967,2.555403 -0.817632,2.821352 -0.225584,0.43899 -0.275839,0.446127 -0.545423,0.07745 -0.163319,-0.223354 -0.498033,-1.342793 -0.743806,-2.487642 -0.718181,-3.345391 -0.905276,-3.479469 -3.004817,-2.153326 -2.328653,1.470855 -3.153337,2.23716 -3.153337,2.930109 0,0.380073 0.617538,1.537732 1.503074,2.81772 1.545694,2.234204 1.751963,2.716112 1.16256,2.716112 -0.35112,0 -1.330606,-0.741316 -3.750916,-2.838851 -0.802158,-0.695184 -1.58439,-1.174394 -1.837449,-1.125659 -0.638179,0.122901 -2.256432,2.362396 -2.864746,3.96451 -0.287732,0.757799 -0.540572,1.881615 -0.561868,2.497369 l -0.03872,1.119552 1.62833,0.586459 c 0.895583,0.322554 2.322931,0.651422 3.171887,0.73082 3.154084,0.294983 2.691701,1.052763 -1.042531,1.708571 -1.377819,0.241972 -2.758768,0.555391 -3.068776,0.696484 -0.667465,0.303782 -0.72749,1.052653 -0.187885,2.344106 0.903015,2.16122 -0.09352,2.546906 -1.127306,0.436293 -0.344458,-0.703262 -0.781946,-1.46533 -0.972198,-1.69349 -0.590725,-0.708418 -2.718666,-1.117735 -8.0089316,-1.54054 -2.8040018,-0.224101 -5.2558913,-0.467974 -5.4486429,-0.541938 -1.1545832,-0.443056 0.44204,-0.884008 5.2860689,-1.459895 4.6428846,-0.551974 6.7194086,-0.897215 7.0636026,-1.174382 0.164873,-0.132766 0.655938,-1.387823 1.091255,-2.789016 0.90106,-2.900318 1.366627,-3.896027 2.467002,-5.276177 1.200535,-1.505779 1.072203,-2.091762 -1.039763,-4.747734 -0.998918,-1.256222 -2.63848,-3.229762 -3.643471,-4.385646 -1.00499,-1.155883 -1.784763,-2.229242 -1.732826,-2.385242 0.25246,-0.758323 1.134785,-0.156821 4.513027,3.076638 4.035972,3.863 4.822518,4.404037 6.063918,4.171149 1.447623,-0.271576 5.749293,-2.527993 6.236256,-3.271194 0.832728,-1.270902 1.407251,-4.942953 1.568027,-10.022013 0.08288,-2.617854 0.263431,-4.9020366 0.401253,-5.0759627 0.606646,-0.7655672 0.858689,0.2258261 1.019305,4.0093437 0.193556,4.559531 0.981845,10.19297 1.547001,11.055507 0.222455,0.33951 0.876588,0.838105 1.453628,1.107987 4.250064,1.987759 5.200631,2.354931 5.735392,2.215387 0.315994,-0.08246 2.434586,-1.837667 4.707986,-3.900465 2.273399,-2.062799 4.277903,-3.756107 4.454454,-3.762907 0.995444,-0.03834 0.374459,0.995403 -3.052981,5.082258 -4.117055,4.909145 -4.22127,5.15709 -2.871946,6.832894 1.085545,1.3482 2.094486,3.547805 2.607418,5.684457 0.238022,0.9915 0.590846,1.985097 0.784056,2.20799 0.501678,0.578756 8.151305,1.953608 10.980383,1.973478 0.688909,0.0048 1.421658,0.119803 1.62833,0.255475 0.719885,0.472574 -0.247205,0.696625 -3.734349,0.86516 -4.006143,0.193615 -7.563413,0.733101 -8.790175,1.333093 -0.613785,0.300191 -1.157174,0.915314 -1.816788,2.056621 -0.969039,1.676698 -1.095528,1.799905 -1.628848,1.586577 z"
     style="fill:#ff8080;stroke:#ffb380;stroke-width:0.250512;fill-opacity:1" />
</svg>
