<?xml version="1.0" encoding="UTF-8" standalone="no"?>
<!-- Created with Inkscape (http://www.inkscape.org/) -->

<svg
   xmlns:dc="http://purl.org/dc/elements/1.1/"
   xmlns:cc="http://creativecommons.org/ns#"
   xmlns:rdf="http://www.w3.org/1999/02/22-rdf-syntax-ns#"
   xmlns:svg="http://www.w3.org/2000/svg"
   xmlns="http://www.w3.org/2000/svg"
   xmlns:sodipodi="http://sodipodi.sourceforge.net/DTD/sodipodi-0.dtd"
   xmlns:inkscape="http://www.inkscape.org/namespaces/inkscape"
   version="1.1"
   viewBox="0 0 256 256"
   id="svg6"
   sodipodi:docname="Sun_Hat.svg"
   inkscape:version="0.92.4 (5da689c313, 2019-01-14)">
  <defs
     id="defs10" />
  <sodipodi:namedview
     pagecolor="#ffffff"
     bordercolor="#666666"
     borderopacity="1"
     objecttolerance="10"
     gridtolerance="10"
     guidetolerance="10"
     inkscape:pageopacity="0"
     inkscape:pageshadow="2"
     inkscape:window-width="1920"
     inkscape:window-height="1017"
     id="namedview8"
     showgrid="true"
     inkscape:zoom="8.0000002"
     inkscape:cx="131.26703"
     inkscape:cy="166.17643"
     inkscape:window-x="1912"
     inkscape:window-y="88"
     inkscape:window-maximized="1"
     inkscape:current-layer="g2212"
     showguides="false"
     inkscape:snap-global="true"
     inkscape:snap-nodes="false"
     inkscape:snap-others="false"
     inkscape:snap-smooth-nodes="true">
    <inkscape:grid
       type="xygrid"
       id="grid817" />
  </sodipodi:namedview>
  <style
     id="style2">svg { cursor: default;}</style>
  <metadata
     id="metadata4">
    <rdf:RDF>
      <cc:Work
         rdf:about="">
        <dc:format>image/svg+xml</dc:format>
        <dc:type
           rdf:resource="http://purl.org/dc/dcmitype/StillImage" />
        <dc:title />
      </cc:Work>
    </rdf:RDF>
  </metadata>
  <path
     style="fill:none;stroke:#000000;stroke-width:1px;stroke-linecap:butt;stroke-linejoin:miter;stroke-opacity:1"
     d=""
     id="path853"
     inkscape:connector-curvature="0" />
  <path
     style="opacity:0.96600001;fill:#ff7f2a;fill-opacity:1;stroke:#000000;stroke-width:0.01352342;stroke-miterlimit:4;stroke-dasharray:none;stroke-opacity:1"
     d=""
     id="path1020"
     inkscape:connector-curvature="0" />
  <g
     style="display:inline;stroke-width:2.49243258;stroke-miterlimit:4;stroke-dasharray:none"
     id="g2212"
     transform="matrix(0.03882889,0,0,0.04145703,75.486036,180.07503)">
    <path
       style="fill:none;stroke:#1a1a1a;stroke-width:18.8404352;stroke-linecap:butt;stroke-linejoin:miter;stroke-miterlimit:4;stroke-dasharray:none;stroke-opacity:1"
       d="m 2469.5384,-1126.4852 -45.7247,53.1 -117.4615,99.67688 -352.1719,234.44234 -177.0808,102.56852 -306.4094,144.69486 -298.4508,117.22116 -180.56259,46.70531 -202.94651,45.78952 -202.94654,28.3895 -299.44558,26.55793 -244.23222,5.49474 -233.78643,-5.03685 -99.48364,-4.12106 -107.9397,-4.57894 -115.40093,-13.27897 -127.83642,-13.73685 -115.40102,-20.14739 -86.55065,-18.7737 -121.37002,-30.22109 -73.61785,-16.48422 -99.9811,-27.47371 -99.4836,-25.64213 -86.0532,-22.89477 -76.1049,-24.26843 -71.1308,-25.64214 -40.7883,-20.14739 -68.1463,-32.96844 -64.1669,-34.34215 -49.4288,-33.55843 -40.8005,-32.37808 -46.428,-56.98542 -21.1036,-63.46102 -4.2208,-76.41227 2.8139,-97.13424 43.6141,-111.38057 66.1249,-98.4294 85.8215,-93.2488 188.526,-150.2344 129.4357,-72.5267 177.2707,-71.2318 140.69115,-56.9854 189.93286,-55.6903 204.00202,-33.6732 316.55488,-38.8538 160.38779,-2.5902 150.53942,-3.8854 295.45119,5.1806 322.18248,41.4439 256.05769,42.7391 187.11912,42.739 338.3621,79.6499 159.6843,42.739 385.4935,124.3318 357.1776,101.3088 241.7451,53.1158 144.2513,34.8002 107.4422,15.5684 136.2924,15.5684 113.4114,5.4948 122.3647,0.9159 126.3442,-7.3262 180.0655,-21.9789 142.2614,-36.6317 139.277,-41.2107 99.4835,-49.4525 103.4631,-53.1158 73.6178,-52.2002 93.5145,-74.1789 67.6488,-69.6002 76.6024,-83.3369 49.7418,-76.0105 40.7882,-76.0106 20.8917,-64.1053 14.9224,-50.3685 10.4458,-70.0579 -0.9949,-96.6159 -9.9484,-43.0422 -14.4252,-33.4263 -19.3992,-36.1737 -20.3941,-20.6054 -41.2857,-38.9211 -72.1256,-34.7999 -79.5868,-18.3159 -124.1795,12.8319 -202.5952,7.7708 -211.74,0.6475 -1394.9518,-20.722 -63.1693,-49.0649 -38.7986,-42.1264 -165.1427,-280.2319 -114.4061,-170.337 -132.3133,-172.1686 -40.7882,-42.1264 -58.6953,-37.5473 -156.1892,-58.6105 -76.6024,-10.9896 -65.6592,-2.7474 -83.5662,-3.6632 -128.3338,7.3264 -68.6436,7.3263 -146.24091,31.1369 -117.39064,32.0526 -237.76577,94.3265 -122.36482,79.6737 -85.55587,59.5264 -48.74697,65.9368 -55.7108,77.8423 -34.81926,70.5158 -25.86574,64.1053 -20.89155,98.9054 3.97934,91.579 17.90705,113.5581 25.86573,152.9369 44.76761,168.5054 0.99484,14.6527 -281.538551,76.9263 -146.240879,45.7895 -206.92595,65.0213 -35.81405,16.4841"
       id="path824"
       inkscape:connector-curvature="0" />
    <path
       style="opacity:0.96600001;fill:none;fill-opacity:1;stroke:#1a1a1a;stroke-width:18.8404352;stroke-miterlimit:4;stroke-dasharray:none;stroke-opacity:1"
       d="m 4347.7555,-2202.6991 57.203,43.5001 25.3685,35.258 21.8863,33.8843 12.4355,34.7999 12.4353,53.1159 1.9899,54.9474 -5.4716,56.779 -1.99,42.1263 -8.9533,53.116 -18.4046,59.5264 -7.9587,34.3421 -27.8554,51.7421 -48.7468,89.7475 -45.265,58.1527 -41.7832,39.8366 -30.8399,31.5949 -32.8297,37.5476 -56.2081,43.4999 -68.6438,59.9843 -67.6487,35.7157 -40.2908,23.8107 -83.069,39.8367 -114.406,45.3318 -115.8984,34.7998 -127.339,35.716 -144.2512,24.2685 -114.9036,7.7842 -105.9499,1.8316 -161.6609,-1.3737 -123.8571,-5.9526 -162.1582,-16.9422 -113.4113,-29.3052 -105.4526,-23.3527 -116.3958,-29.7632 -204.9362,-53.1158 -104.4578,-30.2211 -199.4646,-65.9369 -158.566,-48.9708 -189.9329,-51.8049 -151.9462,-38.8537 -164.6086,-51.805 -67.5317,-16.8365 -264.4991,-53.1001 -173.04999,-29.7878 -81.6008,-11.6561 -111.14593,-14.2464 -180.08452,-23.3122 -95.6699,-1.2952 -156.167054,-1.295 -285.602816,-3.8854 -143.50487,5.1804 -167.42235,22.0172 -144.91179,28.4927 -348.91378,76.4123 -147.7256,47.9195 -256.0578,119.1513 -109.739,51.8049"
       id="path832"
       inkscape:connector-curvature="0" />
    <path
       style="display:inline;opacity:0.96600001;fill:none;fill-opacity:1;stroke:#1a1a1a;stroke-width:18.8404352;stroke-miterlimit:4;stroke-dasharray:none;stroke-opacity:1"
       d="m 223.96998,-2053.2317 c 2.93598,-3.6038 40.12579,-68.4696 40.12579,-68.4696 l 50.89107,-65.7668 64.59259,-63.0639 100.80372,-60.3613 121.35578,-70.2714 106.67576,-50.4513 131.14264,-51.3519 141.90811,-45.9467 c 0,0 177.14026,-60.3614 187.90576,-61.2623 10.7653,-0.9008 155.6095,-37.8384 155.6095,-37.8384 l 183.9912,-32.4329 135.0572,-22.5229 133.0999,3.6036 175.1832,27.0275 40.1258,17.1173"
       id="path846-3-5"
       inkscape:connector-curvature="0" />
    <path
       style="display:inline;opacity:0.96600001;fill:none;fill-opacity:1;stroke:#1a1a1a;stroke-width:18.8404352;stroke-miterlimit:4;stroke-dasharray:none;stroke-opacity:1"
       d="m 202.55976,-2177.7194 c 2.84897,-3.497 38.93653,-66.4402 38.93653,-66.4402 l 49.38273,-63.8176 62.67807,-61.1947 97.81601,-58.5722 117.75882,-68.1886 103.51394,-48.9559 127.25566,-49.8301 137.70197,-44.5847 c 0,0 171.88991,-58.5723 182.33641,-59.4463 10.4462,-0.8742 150.9972,-36.7171 150.9972,-36.7171 l 178.5379,-31.4717 131.054,-21.8552 129.1551,3.4968 169.9907,26.2265 38.9365,16.6099"
       id="path846-3-1-5"
       inkscape:connector-curvature="0" />
    <path
       style="display:inline;opacity:0.96600001;fill:none;fill-opacity:1;stroke:#1a1a1a;stroke-width:18.8404352;stroke-miterlimit:4;stroke-dasharray:none;stroke-opacity:1"
       d="m 180.27704,-2315.016 c 2.74408,-3.3682 37.50201,-63.9921 37.50201,-63.9921 l 47.5632,-61.4665 60.36875,-58.94 94.21205,-56.4141 113.42018,-65.6762 99.70001,-47.1523 122.56703,-47.994 132.62841,-42.942 c 0,0 165.55692,-56.4143 175.61842,-57.2562 10.0614,-0.842 145.4339,-35.3643 145.4339,-35.3643 l 171.9598,-30.312 126.2253,-21.0501 124.3964,3.368 163.7276,25.2602 37.5021,15.9979"
       id="path846-3-1-5-8-2"
       inkscape:connector-curvature="0" />
    <path
       style="display:inline;opacity:0.96600001;fill:none;fill-opacity:1;stroke:#1a1a1a;stroke-width:18.8404352;stroke-miterlimit:4;stroke-dasharray:none;stroke-opacity:1"
       d="m 176.17973,-2455.955 c 2.60893,-3.2022 35.65509,-60.8407 35.65509,-60.8407 l 45.22081,-58.4391 57.39571,-56.0375 89.57228,-53.6357 107.83445,-62.4419 94.78997,-44.83 116.53085,-45.6305 126.0967,-40.8272 c 0,0 157.40351,-53.636 166.96961,-54.4364 9.5659,-0.8005 138.2715,-33.6226 138.2715,-33.6226 l 163.4911,-28.8194 120.0092,-20.0133 118.2699,3.2021 155.6643,24.0162 35.6552,15.2101"
       id="path846-3-1-5-8-5"
       inkscape:connector-curvature="0" />
    <path
       style="display:inline;opacity:0.96600001;fill:none;fill-opacity:1;stroke:#1a1a1a;stroke-width:18.8404352;stroke-miterlimit:4;stroke-dasharray:none;stroke-opacity:1"
       d="m 225.64237,-2607.7569 c 2.28921,-2.8098 31.28561,-53.3847 31.28561,-53.3847 l 39.67904,-51.2775 50.3619,-49.1702 78.59528,-47.0627 94.61946,-54.7897 83.17355,-39.3361 102.2501,-40.0385 110.64368,-35.8239 c 0,0 138.11387,-47.0629 146.50761,-47.7652 8.39358,-0.7024 121.3265,-29.5022 121.3265,-29.5022 l 143.4554,-25.2876 105.3021,-17.5606 103.7762,2.8096 136.5877,21.0731 31.2856,13.346"
       id="path846-3-1-5-8-6"
       inkscape:connector-curvature="0" />
    <path
       style="opacity:0.96600001;fill:none;fill-opacity:1;stroke:#1a1a1a;stroke-width:18.8404352;stroke-miterlimit:4;stroke-dasharray:none;stroke-opacity:1"
       d="m 271.53711,-1896.2408 147.07765,-106.7191 102.70445,-68.6415 94.263,-51.8049 111.14594,-64.7562 166.01541,-62.1659 166.01544,-53.1 146.3187,-47.9196 130.8426,-40.1488 135.0634,-20.722 153.3532,-31.0829 120.9943,-7.7707 154.7601,-6.4757 75.9732,7.7707 132.2496,20.722"
       id="path970"
       inkscape:connector-curvature="0"
       sodipodi:nodetypes="ccccccccccccccc" />
    <path
       style="opacity:0.96600001;fill:none;fill-opacity:1;stroke:#1a1a1a;stroke-width:18.8404352;stroke-miterlimit:4;stroke-dasharray:none;stroke-opacity:1"
       d="M 797.07366,-2035.338 Z"
       id="path974"
       inkscape:connector-curvature="0" />
    <path
       style="opacity:0.96600001;fill:none;fill-opacity:1;stroke:#1a1a1a;stroke-width:18.8404352;stroke-miterlimit:4;stroke-dasharray:none;stroke-opacity:1"
       d="m 4114.9638,-2240.2463 c 15.9175,12.821 59.6902,84.2526 63.6696,86.9999 3.9794,2.7475 36.8088,98.9053 36.8088,98.9053 l -1.9899,116.3055 -20.8917,86.0845 -33.8243,85.1684 -63.6696,98.9053 -97.4939,107.1473 -83.5662,80.5896 -141.2666,87.9159 -108.4373,49.4527 -98.4887,32.0526 -122.3647,33.8844 -152.21,38.463 -184.0447,20.1476 -231.7967,15.5684 -122.3647,-10.0738 -216.8743,-31.1369 -249.7039,-53.1157 -202.9464,-53.116 -150.2202,-42.1263 -240.7503,-72.3475 -220.8537,-62.2736 -215.8792,-65.9369 -134.303,-39.379 -139.27688,-35.7158 -155.19442,-43.9579 -184.04464,-39.379 -195.98267,-33.8843 -113.4113,-10.9895 -117.39062,0.9159 -125.349317,4.579 -147.235724,12.821 -84.561049,4.5789"
       id="path984"
       inkscape:connector-curvature="0" />
    <path
       style="opacity:0.96600001;fill:none;fill-opacity:1;stroke:#1a1a1a;stroke-width:18.8404352;stroke-miterlimit:4;stroke-dasharray:none;stroke-opacity:1"
       d="m 2175.0339,-2330.9096 c -21.8865,0 -187.0291,-18.3158 -187.0291,-18.3158 l -185.0395,-5.4948 -208.9155,16.4843 -171.1117,29.3052 -224.8329,47.6211 -185.0395,54.9475 -151.2151,53.1157 -240.75029,120.8843 -340.69594,138.1159"
       id="path1012"
       inkscape:connector-curvature="0"
       sodipodi:nodetypes="cccccccccc" />
    <path
       style="opacity:0.96600001;fill:none;fill-opacity:1;stroke:#1a1a1a;stroke-width:18.8404352;stroke-miterlimit:4;stroke-dasharray:none;stroke-opacity:1"
       d="m 294.19945,-1893.0341 466.1779,-170.4648 238.76065,-80.5894 191.0084,-49.4527 218.8639,-51.2843 169.1221,-25.6421 202.9465,-14.6527 165.1427,-9.1579 153.2049,-1.8316 121.3699,12.821"
       id="path1014"
       inkscape:connector-curvature="0"
       sodipodi:nodetypes="cccccccccc" />
    <path
       style="display:inline;opacity:0.96600001;fill:none;fill-opacity:1;stroke:#1a1a1a;stroke-width:18.8404352;stroke-miterlimit:4;stroke-dasharray:none;stroke-opacity:1"
       d="m -884.15365,-1542.0468 -102.5462,54.6869 -96.00905,52.1866 -84.1223,72.388 -98.7522,79.9634 -90.5228,94.2726 -71.321,90.9059 -36.5749,62.287 -26.5168,78.28007 v 74.913 c 0,0 26.5168,48.81999 26.5168,52.18669 -6.4005,1.7e-4 2.7431,2.52524 2.7431,2.52524 l -2.7431,-2.52524 40.2324,56.39537 46.6329,36.19396 38.4037,19.35952 47.5473,17.67616 47.5474,26.93507 88.6942,29.46013 175.55955,61.4456 141.72755,31.98529 170.07311,40.40262 143.55642,32.82702 256.93863,37.87748 173.730799,7.57547 H 101.40307 l 147.21393,-0.84172 657.5907,-77.55791 190.9468,-47.85835 167.3299,-56.39528 113.3822,-50.50317 156.3574,-74.91308 215.2969,-115.64509 183.6228,-121.41787 159.0534,-109.51428 120.2599,-104.7527"
       id="path843-0-2"
       inkscape:connector-curvature="0"
       sodipodi:nodetypes="cccccccccccccccccccccccccccccccccccc" />
    <path
       style="opacity:0.96600001;fill:#ff8080;fill-opacity:1;stroke:#1a1a1a;stroke-width:18.8404352;stroke-miterlimit:4;stroke-dasharray:none;stroke-opacity:1"
       d="m 4473.7736,-1957.9131 c -0.01,-5.6979 -0.4075,-19.3787 -0.7452,-25.2414 -1.0805,-18.8031 -3.0054,-32.9405 -6.3601,-46.7052 -4.484,-18.399 -10.2513,-36.9493 -15.6752,-50.4184 -4.8533,-12.0519 -10.5203,-22.2226 -13.0541,-23.4288 -0.6889,-0.3278 -0.815,-0.3283 -1.3507,-0.01 -0.8329,0.5031 -0.9724,1.5749 -0.4997,3.8904 0.4637,2.275 1.7941,6.6037 2.743,8.9197 0.3556,0.8664 0.6077,1.6777 0.5626,1.8028 -0.045,0.1243 -1.5802,-3.2622 -3.4099,-7.5277 -3.0468,-7.1012 -4.1657,-9.3217 -13.265,-26.3209 l -9.9376,-18.5655 -10.0655,-10.1675 c -5.5357,-5.5921 -12.6955,-12.6658 -15.91,-15.7194 -3.2145,-3.0536 -5.7801,-5.552 -5.7013,-5.552 0.09,0 4.9302,3.6484 10.7809,8.1078 l 10.6378,8.1078 12.7161,17.706 c 11.4293,15.9144 13.7865,19.365 23.2925,34.0994 l 10.5766,16.3933 6.1201,17.152 6.1203,17.1521 6.1157,25.981 6.1158,25.9812 0.9071,24.4401 0.9072,24.4402 h -0.8081 -0.8081 v -4.5219 z"
       id="path1027"
       inkscape:connector-curvature="0" />
    <path
       style="opacity:0.96600001;fill:#ff8080;fill-opacity:1;stroke:#1a1a1a;stroke-width:0.13362648;stroke-miterlimit:4;stroke-dasharray:none;stroke-opacity:1"
       d="m 83.835667,74.610179 c 1.67e-4,-0.285429 0.713783,-2.030434 1.350331,-3.301966 1.554723,-3.105621 3.361113,-4.927205 7.400026,-7.462268 4.982478,-3.1273 7.314221,-4.19747 15.202796,-6.977426 5.68136,-2.002128 8.81452,-2.833972 15.02602,-3.989366 4.22689,-0.786238 4.51953,-0.817738 6.71751,-0.723072 2.95015,0.127062 6.67671,0.801884 8.38934,1.519177 1.60349,0.671584 3.20696,1.665789 2.80993,1.74225 -0.15356,0.02957 -1.22477,-0.10366 -2.38047,-0.296071 -1.15571,-0.192412 -3.1752,-0.401842 -4.48777,-0.465399 -2.12185,-0.102744 -2.67072,-0.064 -4.94975,0.349414 -10.23947,1.857426 -12.74874,2.497469 -20.44012,5.213696 -9.084707,3.208284 -11.220819,4.196001 -17.274566,7.987591 -3.54732,2.221763 -5.086461,3.511172 -6.588582,5.519557 -0.426131,0.569751 -0.774744,0.967499 -0.774695,0.883883 z"
       id="path2191"
       inkscape:connector-curvature="0"
       transform="matrix(25.75402,0,0,24.121361,-1944.0689,-4343.6549)" />
    <path
       style="opacity:0.96600001;fill:#ff8080;fill-opacity:1;stroke:#1a1a1a;stroke-width:0.13362648;stroke-miterlimit:4;stroke-dasharray:none;stroke-opacity:1"
       d="m 89.492432,64.523671 c 0,-0.360943 2.152665,-2.028718 6.339454,-4.911485 1.710049,-1.177436 2.681755,-1.668391 6.540734,-3.304713 4.84331,-2.053705 7.06752,-2.787251 11.69177,-3.855959 3.59517,-0.830876 5.30924,-1.044441 9.22629,-1.149546 3.44809,-0.09252 3.42053,-0.07951 -1.89006,0.892279 -4.88233,0.893424 -8.58329,1.896384 -13.96535,3.784611 -8.238219,2.890271 -11.34687,4.387003 -17.540806,8.445425 -0.221118,0.144882 -0.402032,0.189607 -0.402032,0.09939 z"
       id="path2195"
       inkscape:connector-curvature="0"
       transform="matrix(25.75402,0,0,24.121361,-1944.0689,-4343.6549)" />
    <path
       style="opacity:0.96600001;fill:#ff8080;fill-opacity:1;stroke:#1a1a1a;stroke-width:0.13362648;stroke-miterlimit:4;stroke-dasharray:none;stroke-opacity:1"
       d="m 82.807608,80.159198 c 0.06662,-1.870128 0.106549,-2.051998 0.66942,-3.049398 0.945627,-1.675638 2.538084,-3.801099 3.659378,-4.884187 0.95846,-0.925804 2.291252,-1.829486 6.917788,-4.690515 3.490035,-2.158222 6.862436,-3.655349 13.557846,-6.018805 8.42242,-2.973082 10.42219,-3.523533 17.94284,-4.938887 4.90271,-0.92267 5.36491,-0.979806 7.72047,-0.954381 2.87105,0.03099 8.42447,0.834922 9.17797,1.328637 0.38607,0.25296 2.7619,3.296758 2.65597,3.40269 -0.0219,0.02193 -1.18901,-0.163036 -2.5935,-0.411045 -1.48957,-0.263034 -3.76899,-0.510078 -5.47043,-0.592889 -2.85334,-0.138874 -2.98991,-0.128841 -6.27557,0.461085 -9.44535,1.695866 -13.05086,2.591368 -19.03258,4.727133 -2.26884,0.810089 -4.68201,1.653816 -5.3626,1.874949 -1.72408,0.560174 -6.36949,2.521168 -8.485286,3.581935 -2.96072,1.484376 -9.382712,5.574799 -10.753158,6.849115 -1.1819,1.098996 -3.450581,3.956015 -3.866867,4.869662 -0.399379,0.876542 -0.532361,0.428623 -0.461691,-1.555099 z"
       id="path2197"
       inkscape:connector-curvature="0"
       transform="matrix(25.75402,0,0,24.121361,-1944.0689,-4343.6549)" />
    <path
       style="opacity:0.96600001;fill:#ff8080;fill-opacity:1;stroke:#1a1a1a;stroke-width:0.13362648;stroke-miterlimit:4;stroke-dasharray:none;stroke-opacity:1"
       d="m 83.510446,87.085807 c -0.491238,-2.8515 -0.48301,-3.020585 0.206885,-4.25178 1.001966,-1.788119 2.113313,-3.26957 3.614285,-4.817923 1.181963,-1.219274 1.979189,-1.800903 5.269244,-3.844255 6.10078,-3.789008 8.64751,-4.954015 18.09245,-8.276428 7.48545,-2.633131 11.0584,-3.534834 21.03547,-5.30871 3.02347,-0.537559 5.79808,-0.486795 9.88117,0.180783 1.81608,0.296928 3.60723,0.670112 3.98031,0.829298 0.50996,0.217588 0.95992,0.683057 1.81278,1.875259 0.62395,0.872207 1.0997,1.620578 1.05723,1.663046 -0.0425,0.04247 -1.57416,-0.164559 -3.40377,-0.460061 -1.90589,-0.307823 -4.34575,-0.575731 -5.71304,-0.627321 -2.18362,-0.08239 -2.67951,-0.03723 -5.83363,0.531231 -10.32453,1.860775 -13.01158,2.549663 -21.3115,5.46369 -9.75583,3.425184 -12.44534,4.653131 -18.721073,8.547476 -2.96486,1.839816 -4.230944,2.741004 -5.360156,3.815313 -1.474224,1.402546 -3.384102,3.816411 -4.056347,5.12675 l -0.354403,0.690803 z"
       id="path2199"
       inkscape:connector-curvature="0"
       transform="matrix(25.75402,0,0,24.121361,-1944.0689,-4343.6549)" />
    <path
       style="opacity:0.96600001;fill:#ff8080;fill-opacity:1;stroke:#1a1a1a;stroke-width:0.13362648;stroke-miterlimit:4;stroke-dasharray:none;stroke-opacity:1"
       d="m 84.493542,93.170395 c -0.05082,-0.08288 -0.191754,-0.912017 -0.313194,-1.842524 l -0.2208,-1.69183 0.681144,-1.224985 c 1.009779,-1.816009 2.44964,-3.709571 3.955944,-5.20246 1.054334,-1.044946 2.16211,-1.83602 5.22899,-3.734074 5.082638,-3.145582 9.190394,-5.182334 13.698024,-6.791909 12.93083,-4.617306 14.88524,-5.151606 26.45455,-7.23219 3.59191,-0.645958 6.44717,-0.622949 10.81373,0.08714 1.81608,0.295333 3.6276,0.685992 4.02558,0.868132 0.5707,0.261182 0.91546,0.633345 1.63147,1.761129 0.49933,0.786481 0.8223,1.429966 0.71773,1.429966 -0.10457,0 -1.59445,-0.23199 -3.31084,-0.515533 -4.14558,-0.684836 -7.85124,-0.85514 -10.01501,-0.460268 -12.74721,2.32626 -15.45456,3.001495 -23.85894,5.950602 -10.95186,3.84302 -13.87517,5.26398 -23.09805,11.227479 -1.705742,1.102929 -4.586893,4.397359 -5.828208,6.664218 -0.258349,0.47179 -0.511303,0.789988 -0.56212,0.707106 z"
       id="path2201"
       inkscape:connector-curvature="0"
       transform="matrix(25.75402,0,0,24.121361,-1944.0689,-4343.6549)" />
    <path
       style="opacity:0.96600001;fill:#ff8080;fill-opacity:1;stroke:#1a1a1a;stroke-width:0.13362648;stroke-miterlimit:4;stroke-dasharray:none;stroke-opacity:1"
       d="m 89.845985,99.118206 c 1.764238,-1.485916 5.967629,-4.386226 9.103999,-6.281694 1.944546,-1.175187 3.870956,-2.349875 4.280906,-2.610418 1.12038,-0.712044 6.37906,-2.762722 12.42449,-4.845061 9.94303,-3.424863 11.9787,-4.054649 14.14214,-4.375238 1.11811,-0.165687 3.50459,-0.617232 5.3033,-1.003432 3.40542,-0.731181 5.24498,-0.932809 10.87176,-1.191621 2.56719,-0.118082 3.81704,-0.09721 5.3033,0.08855 2.81447,0.351775 5.74344,0.876118 5.9116,1.05829 0.0799,0.08658 0.48012,0.773926 0.88934,1.527437 0.48492,0.892901 0.66151,1.369981 0.50708,1.36991 -0.13032,-5.9e-5 -1.62906,-0.152406 -3.33054,-0.338548 -5.03796,-0.551154 -9.02533,-0.60592 -13.81738,-0.18978 -9.04935,0.785844 -20.56602,3.480172 -29.84646,6.982585 -2.11783,0.799262 -4.15162,1.766481 -7.42462,3.530963 -3.91021,2.107998 -14.130263,6.820333 -14.756262,6.80392 -0.09975,-0.0026 0.09705,-0.239255 0.437347,-0.525867 z"
       id="path2209"
       inkscape:connector-curvature="0"
       transform="matrix(25.75402,0,0,24.121361,-1944.0689,-4343.6549)" />
    <path
       style="opacity:0.96600001;fill:#ff8080;fill-opacity:1;stroke:#1a1a1a;stroke-width:0.13362648;stroke-miterlimit:4;stroke-dasharray:none;stroke-opacity:1"
       d="m 102.58619,94.816017 c 0.0554,-0.06162 1.52704,-0.879284 3.27037,-1.817024 6.66603,-3.585664 16.48684,-6.630939 28.36037,-8.794094 7.15283,-1.303123 14.51096,-1.51928 22.09709,-0.649136 3.03601,0.348237 3.30204,0.407713 3.71231,0.82998 l 0.44194,0.454861 -0.53033,-0.114969 c -1.16269,-0.252059 -7.5099,-0.32001 -10.92623,-0.116973 -7.274,0.432303 -12.57928,0.915422 -15.80775,1.439515 -6.38937,1.037217 -17.0056,3.931029 -24.61965,6.710921 -5.66045,2.066631 -6.16112,2.238325 -5.99812,2.056919 z"
       id="path2211"
       inkscape:connector-curvature="0"
       transform="matrix(25.75402,0,0,24.121361,-1944.0689,-4343.6549)" />
    <path
       style="opacity:0.96600001;fill:#ff8080;fill-opacity:1;stroke:#1a1a1a;stroke-width:0.13362648;stroke-miterlimit:4;stroke-dasharray:none;stroke-opacity:1"
       d="m 67.572122,161.50753 c -1.530831,-0.0815 -4.600907,-0.46026 -7.622212,-0.94044 -4.266795,-0.67813 -6.439715,-1.1492 -13.87697,-3.0084 -6.661481,-1.66527 -9.46651,-2.44949 -11.469671,-3.20666 -1.458408,-0.55126 -3.646019,-1.35544 -4.861359,-1.78708 -1.21534,-0.43163 -2.647231,-1.04255 -3.18198,-1.35759 -0.53475,-0.31503 -1.250695,-0.68255 -1.590991,-0.8167 -3.205182,-1.26351 -4.78405,-2.70579 -6.339767,-5.79132 -0.496701,-0.98513 -0.554301,-1.26163 -0.552393,-2.65165 0.0037,-2.72833 1.109648,-5.40656 3.677554,-8.90615 1.994703,-2.71842 4.55672,-5.48304 7.28047,-7.8562 1.312567,-1.14362 2.903557,-2.56795 3.535534,-3.16517 0.85283,-0.80593 2.083278,-1.61487 4.772971,-3.13792 l 3.623922,-2.05206 4.684582,-1.07713 c 7.228042,-1.66196 9.510112,-2.11743 13.523417,-2.69909 l 3.712311,-0.53804 8.396892,0.0119 c 14.496401,0.0205 16.520894,0.10953 23.246135,1.02181 8.824293,1.19701 11.901203,1.73452 20.580153,3.59513 5.60486,1.20159 6.88557,1.54063 10.70932,2.8351 1.45841,0.49372 4.22479,1.33182 6.14751,1.86245 6.42326,1.77268 11.1294,3.22323 16.92185,5.21575 3.15988,1.08695 7.03613,2.38478 8.61387,2.88406 1.57775,0.49928 2.85054,0.96316 2.82843,1.03085 -0.12588,0.38532 -4.13438,3.84806 -6.40416,5.53222 -9.57983,7.10815 -15.03238,10.49387 -24.3068,15.09312 -5.97054,2.96084 -9.66037,4.36701 -15.55635,5.92843 -3.57086,0.94566 -3.81053,0.98322 -16.367567,2.5652 l -12.743646,1.6055 -7.408896,-0.0268 c -4.074894,-0.0147 -8.562365,-0.0881 -9.972159,-0.16316 z"
       id="path2217"
       inkscape:connector-curvature="0"
       transform="matrix(25.75402,0,0,24.121361,-1944.0689,-4343.6549)" />
    <path
       style="opacity:0.96600001;fill:#ff8080;fill-opacity:1;stroke:#1a1a1a;stroke-width:0.13362648;stroke-miterlimit:4;stroke-dasharray:none;stroke-opacity:1"
       d="m 69.781831,170.2524 c -11.675912,-0.45074 -19.407557,-1.31426 -25.887729,-2.89131 -10.266395,-2.49848 -21.953541,-5.90179 -25.216949,-7.3432 -1.442322,-0.63705 -5.887056,-3.06356 -7.19466,-3.92776 -2.8409783,-1.87763 -4.5352518,-3.83754 -5.2346835,-6.0554 -0.3793809,-1.203 -0.4155463,-1.62237 -0.4039873,-4.68458 l 0.012696,-3.3633 0.8160429,-2.20971 c 1.4611152,-3.95646 4.7206309,-8.49026 8.2201069,-11.43371 1.356382,-1.14086 2.210027,-1.61673 8.772319,-4.89019 5.80299,-2.89469 7.850967,-3.82601 10.150643,-4.61604 1.584511,-0.54435 2.959578,-0.9635 3.055705,-0.93146 0.09613,0.0321 -0.647948,0.52817 -1.653505,1.10251 -1.005556,0.57434 -2.35069,1.51006 -2.989188,2.07939 -0.6385,0.56932 -2.318373,2.05584 -3.733054,3.30336 -2.794074,2.46393 -5.394595,5.27377 -7.450223,8.0499 -2.69563,3.64046 -3.845992,6.47728 -3.851477,9.49784 -0.0027,1.48561 0.06026,1.85853 0.462567,2.74003 0.589668,1.29204 0.536842,1.20053 1.483305,2.5695 1.228128,1.77638 2.913535,3.01563 5.475626,4.02615 0.340295,0.13422 1.056241,0.50179 1.59099,0.81683 0.53475,0.31503 1.966641,0.92595 3.181981,1.35759 1.215339,0.43163 3.402951,1.23582 4.861359,1.78708 2.003,0.7571 4.813816,1.54297 11.490485,3.21258 7.465974,1.86699 9.690009,2.34931 14.318912,3.10525 l 5.480077,0.89496 9.899495,0.0799 9.899494,0.0799 12.727922,-1.61371 c 12.584279,-1.59549 12.768819,-1.62463 16.351839,-2.58188 5.79457,-1.54808 9.4591,-2.93517 15.18897,-5.74927 6.7147,-3.29779 13.16989,-7.02623 17.6915,-10.2184 6.73747,-4.75653 9.62631,-6.96182 11.87004,-9.06138 1.22964,-1.15063 2.36586,-2.09205 2.52492,-2.09205 0.28906,0 8.61924,2.28137 8.73634,2.3926 0.15893,0.15097 -1.33014,1.72254 -3.4207,3.61024 -2.81556,2.54234 -14.19283,10.69329 -19.42091,13.91363 -4.99969,3.07964 -14.00903,7.56972 -21.14934,10.54042 -4.66194,1.93958 -6.41189,2.57392 -9.28078,3.36421 -9.46949,2.60856 -14.03426,3.45009 -24.218403,4.46475 -5.821279,0.57998 -6.641951,0.61997 -13.87697,0.67627 -4.229383,0.0329 -8.405732,0.0322 -9.280776,-0.002 z"
       id="path2229"
       inkscape:connector-curvature="0"
       transform="matrix(25.75402,0,0,24.121361,-1944.0689,-4343.6549)" />
    <path
       style="opacity:0.96600001;fill:#ff8080;fill-opacity:1;stroke:#1a1a1a;stroke-width:0.13362648;stroke-miterlimit:4;stroke-dasharray:none;stroke-opacity:1"
       d="m 183.62602,129.42947 c -10.05198,-1.08354 -20.66092,-3.63532 -37.83021,-9.09934 -3.01405,-0.95919 -7.58814,-2.38481 -10.16466,-3.16804 -2.57652,-0.78322 -7.15062,-2.22154 -10.16466,-3.19628 -3.01404,-0.97473 -6.51422,-2.05479 -7.77818,-2.40015 -1.26395,-0.34535 -4.02888,-1.14324 -6.14429,-1.7731 -6.32798,-1.88413 -15.4036,-3.80882 -20.836178,-4.41878 -2.945453,-0.33071 -9.549325,-0.23341 -13.943332,0.20544 -2.757665,0.27542 -3.104055,0.29665 -2.990473,0.18327 0.04051,-0.0404 2.85789,-0.8859 6.260842,-1.87879 3.402951,-0.99289 6.209013,-1.86056 6.235693,-1.92815 0.02668,-0.0676 0.265328,-0.0921 0.53033,-0.0545 0.324533,0.0461 3.309502,-1.03856 9.143879,-3.322648 15.360719,-6.013538 19.711379,-7.462797 30.405589,-10.128482 6.93106,-1.727665 12.86074,-2.442094 24.63434,-2.968035 3.88894,-0.173723 5.27904,-0.171105 7.20347,0.01357 3.11627,0.299047 3.45786,0.387239 4.30349,1.111068 l 0.71294,0.610247 8.26616,0.117611 c 4.54639,0.06469 15.78359,0.245038 24.97156,0.400782 15.73624,0.266744 35.08699,0.247905 37.6619,-0.03667 l 0.98073,-0.108387 1.1666,1.776009 c 0.86837,1.32197 1.32943,2.264652 1.8035,3.687375 0.59666,1.790618 0.6369,2.05223 0.6369,4.14118 0,5.3477 -2.11285,10.54675 -6.30056,15.5037 -3.3239,3.93447 -4.8771,5.40783 -7.68397,7.28896 -5.08658,3.40897 -8.32724,4.71639 -18.54238,7.48077 -3.34719,0.9058 -6.5533,1.35035 -13.61181,1.8874 -5.09597,0.38772 -5.95045,0.3948 -8.92722,0.0739 z"
       id="path2231"
       inkscape:connector-curvature="0"
       transform="matrix(25.75402,0,0,24.121361,-1944.0689,-4343.6549)" />
    <path
       style="opacity:0.96600001;fill:#ff8080;fill-opacity:1;stroke:#1a1a1a;stroke-width:0.13362648;stroke-miterlimit:4;stroke-dasharray:none;stroke-opacity:1"
       d="m 192.9068,133.65909 c -4.55008,-0.31137 -10.24315,-1.20418 -14.49569,-2.27327 -2.09039,-0.52552 -5.55021,-1.3652 -7.68849,-1.86596 -5.16087,-1.2086 -15.93952,-4.49015 -25.13235,-7.6515 -9.05552,-3.11414 -11.78334,-3.90338 -24.01287,-6.94765 -10.88625,-2.70989 -16.19773,-3.73968 -26.779387,-5.19204 l -6.626846,-0.90954 -8.752726,-0.017 c -4.814,-0.009 -10.184618,0.0366 -11.934707,0.10204 l -3.181981,0.11902 2.703334,-0.96981 c 2.566579,-0.92076 2.830389,-0.97885 5.214912,-1.14829 1.381369,-0.0982 3.307074,-0.26396 4.279346,-0.36844 3.448503,-0.37058 11.455697,-0.50662 13.965358,-0.23727 5.033455,0.54022 14.978097,2.62486 20.417707,4.28006 1.60425,0.48815 3.99073,1.17968 5.3033,1.53673 2.56671,0.69822 9.52662,2.85204 12.55115,3.88409 1.02088,0.34836 4.48129,1.43048 7.68978,2.40471 3.2085,0.97424 7.7826,2.39765 10.16466,3.16314 16.11828,5.17973 28.0527,7.96958 38.06012,8.89712 2.21487,0.20528 3.02998,0.19489 6.92955,-0.0884 7.45827,-0.54178 11.43778,-1.07868 14.86378,-2.00537 10.22407,-2.7655 13.53987,-4.10157 18.6335,-7.50818 2.03617,-1.3618 3.00373,-2.15391 4.46358,-3.65422 5.8274,-5.98889 8.33323,-10.08309 9.59911,-15.68367 0.35213,-1.557896 0.4349,-2.405623 0.4349,-4.45405 0,-2.480091 -0.0133,-2.567578 -0.67487,-4.439854 -0.4321,-1.222835 -1.03953,-2.473671 -1.68852,-3.477031 -0.55751,-0.861916 -0.96808,-1.612681 -0.91239,-1.668367 0.25953,-0.259537 2.29866,-0.228628 3.57326,0.05416 2.00014,0.443765 3.62285,1.326157 5.16376,2.807941 2.09199,2.011735 3.01932,4.407624 3.01826,7.798004 -0.002,5.825467 -2.506,12.335057 -6.56897,17.076107 -4.32614,5.04814 -8.30362,8.60054 -11.89841,10.6268 -4.54183,2.56007 -6.62867,3.55971 -9.01561,4.31867 -5.4466,1.73181 -8.00991,2.3517 -12.02082,2.90703 -3.49954,0.48452 -4.42914,0.54408 -9.28077,0.59462 -2.96543,0.0309 -5.82921,0.0262 -6.36396,-0.0104 z"
       id="path2233"
       inkscape:connector-curvature="0"
       transform="matrix(25.75402,0,0,24.121361,-1944.0689,-4343.6549)" />
    <path
       style="opacity:0.96600001;fill:#ff8080;fill-opacity:1;stroke:#1a1a1a;stroke-width:0.13362648;stroke-miterlimit:4;stroke-dasharray:none;stroke-opacity:1"
       d="m 189.28287,136.29266 c -3.30927,-0.15102 -7.84053,-0.79022 -10.34143,-1.45882 -1.4098,-0.37689 -3.55763,-0.92429 -4.77297,-1.21644 -3.5798,-0.86053 -14.71825,-3.9928 -17.58928,-4.94633 -1.45841,-0.48436 -4.99837,-1.68949 -7.86657,-2.67806 -4.98061,-1.71664 -11.61624,-3.74795 -16.17506,-4.95153 -1.16673,-0.30803 -3.91119,-1.14409 -6.0988,-1.85792 -5.15613,-1.68246 -5.01337,-1.64467 -11.31608,-2.99568 -8.59689,-1.84278 -11.88127,-2.41311 -21.387608,-3.71391 l -5.745242,-0.78614 -12.727922,-0.0497 -12.727922,-0.0497 -3.358757,0.49061 c -3.873388,0.56578 -6.662574,1.12383 -13.072677,2.61556 -2.523066,0.58716 -4.750453,1.08762 -4.949747,1.11214 -0.199293,0.0245 -0.481676,0.0954 -0.627517,0.15756 -0.145841,0.0621 -1.155621,0.3148 -2.243957,0.56148 -3.764609,0.85325 -7.508414,2.3148 -13.110667,5.1183 -2.85448,1.42844 -5.221566,2.56557 -5.26019,2.52695 -0.141031,-0.14104 0.603977,-0.65702 3.113922,-2.15668 1.959433,-1.17074 4.02078,-2.15614 8.750446,-4.18304 10.360786,-4.44011 13.624519,-5.28646 27.577164,-7.15126 l 6.187184,-0.82693 11.75565,-0.0176 11.75565,-0.0176 5.922019,0.84485 c 10.570011,1.50795 15.693181,2.51535 26.622081,5.23484 12.46143,3.10084 14.35796,3.64967 23.57775,6.823 9.29953,3.20078 20.24619,6.53842 25.2781,7.70729 2.09353,0.48632 5.51673,1.31461 7.60711,1.84065 5.82109,1.46488 10.86881,2.15357 17.41251,2.37569 6.95892,0.23621 14.2226,-0.43596 19.26866,-1.7831 5.68943,-1.51889 8.50644,-2.51361 11.22532,-3.96376 5.3645,-2.86124 6.2615,-3.45263 9.98788,-6.58506 2.80396,-2.35704 7.0376,-7.12224 8.52103,-9.59091 2.04215,-3.3985 3.55444,-7.14681 4.1318,-10.24091 0.12192,-0.65338 0.13309,-0.57343 0.0614,0.43945 -0.21462,3.03431 -1.18502,6.21188 -2.91499,9.54526 -1.71503,3.30457 -2.27038,4.10376 -4.66259,6.70991 -4.9749,5.41981 -7.02391,7.0609 -12.56131,10.06062 -6.23813,3.37931 -16.52065,6.44348 -23.5113,7.00632 -1.92063,0.15464 -12.69458,0.18933 -15.73313,0.0507 z"
       id="path2235"
       inkscape:connector-curvature="0"
       transform="matrix(25.75402,0,0,24.121361,-1944.0689,-4343.6549)" />
    <path
       style="opacity:0.96600001;fill:#ffe6d5;fill-opacity:1;stroke:#1a1a1a;stroke-width:0.09448819;stroke-miterlimit:4;stroke-dasharray:none;stroke-opacity:1"
       d="m 86.207596,100.50024 c -0.03172,-0.0903 -0.367898,-1.410178 -0.747066,-2.933069 l -0.689395,-2.768893 0.639561,-1.168607 c 0.928206,-1.696016 2.234253,-3.470762 3.731336,-5.070396 1.428055,-1.525877 1.438337,-1.5332 7.101342,-5.05671 4.714846,-2.933564 8.745316,-4.793978 15.523656,-7.165514 2.02813,-0.709579 4.8701,-1.71001 6.3155,-2.223179 1.4454,-0.513169 2.82353,-0.972904 3.0625,-1.021633 0.23898,-0.04873 1.70013,-0.421414 3.247,-0.828188 2.63064,-0.691766 5.47852,-1.26986 12.21492,-2.479514 2.7667,-0.496815 2.78673,-0.498482 5.1875,-0.431533 2.04301,0.05697 2.94316,0.153 5.91008,0.630489 2.88035,0.463556 3.6084,0.622086 4.11225,0.895427 0.60154,0.326341 0.64819,0.397266 2.66941,4.058565 1.13144,2.04953 2.03434,3.749248 2.00644,3.77715 -0.0279,0.0279 -1.03227,-0.112277 -2.23192,-0.311509 -3.79908,-0.630934 -4.63781,-0.682801 -8.28847,-0.512557 -5.96699,0.278263 -7.50005,0.436081 -10.33021,1.063421 -1.40937,0.312405 -3.89011,0.792663 -5.51275,1.067239 -2.6881,0.45487 -3.23233,0.592587 -6.125,1.549934 -6.68462,2.212324 -13.56022,4.634294 -16.92475,5.961843 -3.13803,1.238179 -3.69629,1.503343 -5.39799,2.563943 -1.0439,0.650616 -2.888055,1.770467 -4.098122,2.488557 -2.489371,1.477267 -5.014598,3.246463 -8.566386,6.001685 -2.81652,2.184849 -2.733754,2.128499 -2.809436,1.913049 z"
       id="path2241"
       inkscape:connector-curvature="0"
       transform="matrix(25.75402,0,0,24.121361,-1944.0689,-4343.6549)" />
  </g>
</svg>
