<?xml version="1.0" encoding="UTF-8" standalone="no"?>
<svg
   xmlns:dc="http://purl.org/dc/elements/1.1/"
   xmlns:cc="http://creativecommons.org/ns#"
   xmlns:rdf="http://www.w3.org/1999/02/22-rdf-syntax-ns#"
   xmlns:svg="http://www.w3.org/2000/svg"
   xmlns="http://www.w3.org/2000/svg"
   xmlns:xlink="http://www.w3.org/1999/xlink"
   xmlns:sodipodi="http://sodipodi.sourceforge.net/DTD/sodipodi-0.dtd"
   xmlns:inkscape="http://www.inkscape.org/namespaces/inkscape"
   cursor="default"
   version="1.1"
   viewBox="0 0 256 256"
   id="svg25"
   sodipodi:docname="bcg.svg"
   inkscape:version="1.0.1 (3bc2e813f5, 2020-09-07)">
  <metadata
     id="metadata29">
    <rdf:RDF>
      <cc:Work
         rdf:about="">
        <dc:format>image/svg+xml</dc:format>
        <dc:type
           rdf:resource="http://purl.org/dc/dcmitype/StillImage" />
        <dc:title></dc:title>
      </cc:Work>
    </rdf:RDF>
  </metadata>
  <sodipodi:namedview
     pagecolor="#ffffff"
     bordercolor="#666666"
     borderopacity="1"
     objecttolerance="10"
     gridtolerance="10"
     guidetolerance="10"
     inkscape:pageopacity="0"
     inkscape:pageshadow="2"
     inkscape:window-width="1411"
     inkscape:window-height="1018"
     id="namedview27"
     showgrid="false"
     inkscape:zoom="2.90625"
     inkscape:cx="128"
     inkscape:cy="128"
     inkscape:window-x="0"
     inkscape:window-y="0"
     inkscape:window-maximized="0"
     inkscape:current-layer="svg25"
     inkscape:document-rotation="0" />
  <defs
     id="defs9">
    <linearGradient
       id="innoGrad1">
      <stop
         stop-color="#f55"
         offset="0"
         id="stop2" />
      <stop
         stop-color="#ff8080"
         offset="1"
         id="stop4" />
    </linearGradient>
    <linearGradient
       id="linearGradient828"
       x1="173.54"
       x2="139.41"
       y1="204.61"
       y2="178.91"
       gradientTransform="translate(-4.8814,-1.0847)"
       gradientUnits="userSpaceOnUse"
       xlink:href="#innoGrad1" />
    <linearGradient
       id="linearGradient830"
       x1="144.01"
       x2="119.27"
       y1="149.77"
       y2="137.3"
       gradientTransform="translate(-4.8814,-1.0847)"
       gradientUnits="userSpaceOnUse"
       xlink:href="#innoGrad1" />
  </defs>
  <ellipse
     style="opacity:1;fill:#ffd42a;fill-opacity:1;stroke:#ffd42a;stroke-width:1.44319;stroke-linecap:round;stroke-miterlimit:4;stroke-dasharray:none;stroke-opacity:1"
     id="path973"
     cx="13.902343"
     cy="110.09862"
     rx="5.6922674"
     ry="4.7672734" />
  <ellipse
     style="opacity:1;fill:#ffd42a;fill-opacity:1;stroke:#ffd42a;stroke-width:1.44319;stroke-linecap:round;stroke-miterlimit:4;stroke-dasharray:none;stroke-opacity:1"
     id="path975"
     cx="240.2411"
     cy="110.59671"
     rx="5.7634206"
     ry="4.8384271" />
  <path
     style="display:inline;fill:#ff2a2a;stroke:#000000;stroke-width:1.44319;stroke-miterlimit:4;stroke-dasharray:none"
     d="m 235.3804,99.720643 c -19.40422,-0.687815 -38.32608,-1.495022 -57.73814,0.340537 -7.40114,0.69987 -14.84067,1.53875 -22.14229,2.97128 -5.63537,1.10572 -11.32314,2.9483 -17.09724,3.01079 -8.60099,0.093 -18.14545,0.51236 -26.62679,-0.36493 -11.46775,-1.18615 -22.948956,-4.70592 -34.474722,-6.142945 -15.774569,-1.967026 -31.51186,-1.67021 -47.367702,-2.056998 0.79432,-3.097942 1.84734,-6.253078 2.97015,-9.249308 2.793298,-7.453822 7.255664,-6.149664 13.286224,-3.649823 7.271367,3.014429 13.58135,7.780907 20.74088,10.968837 3.064616,1.364698 8.060086,3.794742 11.159442,1.211661 5.862106,-4.88587 -0.574306,-11.742702 -5.273511,-13.684215 -11.497457,-4.750515 -27.166074,-11.93078 -39.800079,-7.929186 -7.588643,2.403421 -13.692744,8.291876 -18.425225,14.48414 -2.49496,3.264722 -5.07151,9.398148 -9.3227232,10.370437 -0.3751578,4.0285 -1.0053125,12.3257 1.0144627,15.92984 1.7061538,3.04471 5.2538295,2.97156 6.4270065,7.05332 2.799825,9.74092 3.627581,20.32129 8.39123,29.42962 9.736614,18.61693 31.202589,23.97647 50.874478,22.38222 19.541275,-1.5833 32.773409,-13.72037 40.936899,-30.79067 1.88239,-3.93656 6.54796,-12.72174 5.0294,-17.09722 l 7.28734,-1.10374 9.80986,0.82347 c -0.3767,2.05333 0.75873,4.20533 1.32097,6.1662 1.62256,5.65861 3.92227,11.07675 6.71331,16.25637 3.39927,6.30802 7.72908,12.01149 13.54746,16.31129 20.74958,15.33453 59.8924,16.04336 75.63276,-6.78169 6.67408,-9.67787 7.85462,-22.25274 10.57728,-33.35358 1.03846,-4.23339 5.23848,-4.75444 6.98407,-8.13969 1.43338,-2.77985 2.2916,-11.62499 1.03088,-14.52284 -0.45686,-1.04993 -1.72457,-1.34282 -2.31428,-2.32296 -1.54997,-2.576927 -2.48303,-5.666476 -3.83201,-8.368125 -3.57137,-7.151672 -8.28515,-16.944727 -16.88702,-18.852055 -10.08818,-2.23722 -24.52356,5.545095 -32.22713,11.549307 -3.29416,2.567679 -4.165,8.33139 -2.0965,12.021304 3.16774,5.650779 12.87392,-2.035957 15.54472,-4.474984 3.50605,-3.201947 7.14159,-6.308585 10.93101,-9.173915 1.22512,-0.926339 3.11619,-2.740327 4.76256,-2.665495 1.71365,0.07787 2.69688,2.197992 3.44747,3.467655 2.15481,3.644804 2.74173,7.482708 4.48648,11.209049 0.81702,1.745041 2.46228,2.782928 2.71902,4.767042 m -1.12114,-1.961978 0.56058,0.560563 -0.56058,-0.560563 M 49.272993,104.57513 c 12.925218,-1.34535 27.143375,0.90951 39.800073,3.44188 5.345543,1.06955 12.054954,2.64558 15.841284,6.86159 5.13364,5.71606 4.94249,14.18676 3.49371,21.27874 -3.92171,19.19569 -19.100392,31.35125 -38.113898,33.54194 -12.451255,1.43477 -29.795129,-1.10964 -38.587021,-10.8444 -8.108285,-8.97744 -10.273184,-21.74429 -8.85291,-33.34826 0.61121,-4.99407 1.064989,-10.18349 4.85076,-14.00206 5.536696,-5.58463 14.184251,-6.16061 21.568002,-6.92943 m 140.421387,0.84086 c 11.61042,-1.20774 30.6769,-1.31426 38.84209,8.59933 4.03297,4.89596 4.60166,12.43444 4.60166,18.49835 0,19.65592 -10.41836,35.59472 -31.11132,37.77587 -23.68918,2.49677 -50.13773,-6.34221 -55.75935,-32.4505 -1.55443,-7.21867 -2.80788,-16.66728 2.60888,-22.68017 3.22127,-3.57583 8.28542,-4.96323 12.78983,-6.06924 9.30227,-2.284 18.57766,-2.69043 28.02821,-3.67364 m -170.691872,1.592 c 0.05679,1.66683 -1.482722,1.54294 -2.802824,1.68169 v 0.28029 l 1.12113,0.28028 c -3.090532,2.26859 -5.418837,1.26126 -8.6887548,0 v -0.56057 c 3.7223488,-2.24674 6.4049308,-1.22287 10.3704488,-1.68169 m -1.307994,1.02779 0.09345,0.18667 -0.09345,-0.18667 m 227.776046,3.45673 c -2.54523,1.0718 -6.2999,1.57575 -8.40847,-0.56057 l 1.68169,-1.40141 -4.20424,0.56056 c 2.61084,-3.08283 8.91971,-1.65759 10.93102,1.40142 m -234.596238,-1.96198 0.280282,0.28029 -0.280282,-0.28029 m 0.560565,0 0.280283,0.28029 -0.280283,-0.28029 m 1.027711,0.6539 0.186836,0.0937 z"
     id="path954" />
  <path
     style="display:inline;opacity:0.5;fill:#ff7f2a;fill-opacity:1;stroke:#000000;stroke-width:0.246785;stroke-linecap:round;stroke-miterlimit:4;stroke-dasharray:none;stroke-opacity:1"
     d="m 57.706426,169.63627 c -8.07468,-0.82079 -15.394617,-3.15996 -20.776774,-6.63942 -6.629283,-4.28571 -11.320965,-11.80444 -13.402525,-21.47844 -1.223883,-5.68795 -0.985657,-16.24729 0.507762,-22.50638 1.423718,-5.96695 5.272318,-9.90788 11.680317,-11.96055 7.47606,-2.39478 21.588626,-3.33158 32.521915,-2.15878 9.100539,0.9762 22.514648,3.37225 27.322875,4.88045 8.634064,2.70827 12.805414,7.76568 13.516054,16.3871 0.32758,3.97402 -0.54874,10.01408 -2.16308,14.90932 -4.69256,14.22945 -16.604607,24.49862 -32.182775,27.74421 -5.131967,1.06921 -11.547412,1.37917 -17.023769,0.82249 z"
     id="path962" />
  <path
     style="display:inline;opacity:0.5;fill:#ff7f2a;fill-opacity:1;stroke:#000000;stroke-width:0.183946;stroke-linecap:round;stroke-miterlimit:4;stroke-dasharray:none;stroke-opacity:1"
     d="m 188.48626,170.35165 c -17.73933,-1.83889 -30.49235,-8.98616 -37.70897,-21.13353 -1.60235,-2.69714 -3.03877,-6.33968 -3.99831,-10.13903 -3.60494,-14.27397 -1.33791,-23.18254 6.91119,-27.15833 5.56773,-2.68346 13.24667,-4.16432 30.6692,-5.91446 10.5225,-1.05702 21.59635,-1.12701 26.89596,-0.17 12.18525,2.20046 18.5015,7.03267 20.64501,15.79436 0.9283,3.79446 1.30539,10.01936 0.8975,14.81601 -0.545,6.40897 -1.7725,11.05431 -4.19227,15.86513 -4.87284,9.68781 -13.08043,15.56877 -24.46558,17.53019 -2.47535,0.42647 -13.11476,0.77286 -15.65373,0.50966 z"
     id="path964" />
</svg>
