<?xml version="1.0" encoding="UTF-8" standalone="no"?>
<svg
   xmlns:dc="http://purl.org/dc/elements/1.1/"
   xmlns:cc="http://creativecommons.org/ns#"
   xmlns:rdf="http://www.w3.org/1999/02/22-rdf-syntax-ns#"
   xmlns:svg="http://www.w3.org/2000/svg"
   xmlns="http://www.w3.org/2000/svg"
   xmlns:sodipodi="http://sodipodi.sourceforge.net/DTD/sodipodi-0.dtd"
   xmlns:inkscape="http://www.inkscape.org/namespaces/inkscape"
   viewBox="0 0 64 64"
   version="1.1"
   id="svg1138"
   sodipodi:docname="beetle.svg"
   inkscape:version="1.0.1 (3bc2e813f5, 2020-09-07)">
  <metadata
     id="metadata1144">
    <rdf:RDF>
      <cc:Work
         rdf:about="">
        <dc:format>image/svg+xml</dc:format>
        <dc:type
           rdf:resource="http://purl.org/dc/dcmitype/StillImage" />
        <dc:title />
      </cc:Work>
    </rdf:RDF>
  </metadata>
  <defs
     id="defs1142">
    <inkscape:path-effect
       effect="spiro"
       id="path-effect1569"
       is_visible="true"
       lpeversion="1" />
    <inkscape:path-effect
       effect="spiro"
       id="path-effect1550"
       is_visible="true"
       lpeversion="1" />
    <clipPath
       clipPathUnits="userSpaceOnUse"
       id="clipPath2180">
      <path
         id="path2182"
         style="fill:#ff0000;fill-opacity:1;fill-rule:nonzero;stroke:none"
         d="m 274.50586,200.28125 v 78.5957 h 58.8418 v -78.5957 h -5.34375 c 0.0775,0.20905 0.16194,0.41534 0.21484,0.63281 -0.002,-0.006 -0.002,-0.0118 -0.004,-0.0176 0.025,0.0565 0.0696,0.10552 0.082,0.16602 0.0393,0.19226 0.056,0.84964 0.0742,0.26758 -0.003,-0.006 -0.007,-0.016 -0.01,-0.0215 0.004,3.5e-4 0.0119,-0.002 0.0117,0.002 -3.5e-4,0.0121 -0.002,0.008 -0.002,0.0195 0.0368,0.0746 0.0954,0.19258 0.12891,0.2539 0.0737,0.13492 0.20304,0.30093 0.24414,0.44532 0.0251,0.0885 0.0375,0.18065 0.0527,0.27148 0.0759,0.0409 0.16647,0.0894 0.10546,0.0664 0.11012,0.10214 0.12175,0.12475 0.0723,0.16406 0.0887,-0.003 0.16401,0.0156 0.19531,0.0996 0.0124,0.0334 0.0125,0.0489 0.0234,0.0801 0.002,0.007 0.004,0.0108 0.006,0.0176 0.0164,0.0276 -0.0122,-0.0105 0.0215,0.041 0.0684,0.10464 0.14605,0.20295 0.21875,0.30469 h 0.002 c 0.5018,0.70252 -0.16441,1.17611 -0.71094,0.50781 -0.0167,-0.0205 -0.20037,-0.27524 -0.32227,-0.49414 -0.009,-0.008 -0.0287,-0.0236 -0.0352,-0.0293 9.6e-4,-4e-4 0.01,0.004 0.008,0.002 -0.01,-0.009 -0.0194,-0.0171 -0.0293,-0.0254 0.0709,0.1177 0.1245,0.23923 0.25,0.49023 0.20007,0.40015 0.0859,0.69474 -0.12304,0.78125 0.19348,0.28374 0.35376,0.58729 0.32812,0.93945 -0.22334,0.33485 -0.36469,0.74152 -0.66992,1.00391 -0.22362,0.19224 -0.5598,-0.0245 -0.78906,-0.18555 -0.0383,-0.0125 -0.0671,-0.0379 -0.10157,-0.0547 -0.0593,0.19306 -0.20477,0.23401 -0.53906,-0.0664 -0.0202,-0.0182 -0.0395,-0.0374 -0.0605,-0.0547 -0.39235,-0.0737 -0.94368,-0.7934 -1.22851,-1.04297 0.0159,0.0299 0.0319,0.0598 0.0469,0.0899 0.006,0.0114 0.01,0.0222 0.0156,0.0332 0.008,0.0138 0.0183,0.0278 0.0273,0.041 0.019,0.0225 0.0319,0.0486 0.043,0.0762 -0.0144,-0.006 -0.0294,-0.008 -0.0449,-0.0117 -0.10461,-0.0265 0.14159,0.11901 0.0352,0.10351 -0.0197,-0.003 -0.0406,-0.002 -0.0586,-0.01 -0.0283,-0.0132 -0.0193,-0.0234 -0.0273,-0.041 -0.0137,-0.0307 -0.0165,-0.0289 -0.0391,-0.0586 -0.0114,-0.0174 -0.0227,-0.0347 -0.0332,-0.0527 -0.006,-0.0105 -0.0106,-0.0204 -0.0156,-0.0312 -0.0305,-0.0615 -0.0645,-0.12155 -0.0977,-0.18165 -0.01,-0.0171 -0.0174,-0.0356 -0.0273,-0.0527 -0.0313,0.0367 -0.0215,0.15517 0.0586,0.42188 l 0.002,0.002 c 7e-4,0.0218 0.003,0.043 0.004,0.0644 0.057,0.0389 0.11575,0.0727 0.16797,0.13477 0.041,0.0488 -0.0937,-0.0838 -0.16016,-0.10352 -0.003,-0.004 -0.005,-0.009 -0.008,-0.0137 0.002,0.0655 0.0166,0.13013 0.0371,0.19336 0.0314,-0.004 0.10577,0.0239 0.36133,0.45312 0.0822,0.13796 -0.23979,-0.21816 -0.32617,-0.35351 -0.0208,-0.0327 -0.0244,-0.0664 -0.0352,-0.0996 -0.0218,0.003 -0.0519,-0.16001 -0.0605,-0.22852 v -0.002 c -0.0851,-0.0588 -0.16622,-0.12574 -0.21875,-0.26758 -0.11914,-0.1979 -0.21974,-0.38398 -0.31054,-0.59961 -0.004,-0.009 0.0125,0.0164 0.0195,0.0234 0.0323,0.0311 0.12365,0.12678 0.0976,0.0898 -0.0347,-0.0494 -0.083,-0.0856 -0.125,-0.1289 -0.0657,-0.0852 -0.13336,-0.16926 -0.19726,-0.25586 -0.01,-0.0128 -0.039,-0.046 -0.0234,-0.043 0.0242,0.005 0.0711,0.0688 0.0566,0.0488 -0.0476,-0.0657 -0.13985,-0.10605 -0.15625,-0.18555 -0.005,-0.0221 -0.004,-0.0457 -0.008,-0.0684 -0.01,-0.0126 -0.0151,-0.015 -0.0215,-0.0234 -0.0537,-0.0704 -0.10758,-0.1413 -0.14648,-0.2207 -0.002,-0.004 -0.002,-0.008 -0.004,-0.0117 -0.0161,-0.0145 -0.0338,-0.0271 -0.0488,-0.043 -0.0224,-0.0236 -0.041,-0.0498 -0.0625,-0.0742 -0.006,-0.007 -0.0116,-0.0135 -0.0176,-0.0195 -0.011,-0.0144 -0.0227,-0.0283 -0.0332,-0.043 -0.0336,-0.0474 -0.0606,-0.0986 -0.10351,-0.13867 -0.011,-0.0103 -0.022,-0.0223 -0.0352,-0.0293 -0.0116,-0.007 -0.0244,-0.008 -0.0371,-0.0117 -0.10087,-0.0305 -0.0737,-0.13289 0.0293,-0.10352 0.0127,0.004 0.0275,0.006 0.0391,0.0117 0.0372,0.0199 0.0792,0.0506 0.10742,0.084 0.059,0.07 0.0458,0.0639 0.0918,0.12891 -0.082,-0.27107 -0.11809,-0.55224 -0.10547,-0.83789 0.0143,-0.32343 0.10288,-0.46808 0.23438,-0.5 0.15009,-0.0364 0.35725,0.0892 0.57031,0.24609 -0.017,-0.0223 -0.0337,-0.0447 -0.0488,-0.0684 -0.004,-0.006 0.003,-0.0174 -0.002,-0.0234 -0.20992,-0.25689 -0.25988,-0.27574 -0.54297,-0.52344 h -0.002 c -0.57446,-0.50265 -0.6781,-1.01705 -0.50391,-1.34961 z m 50.77734,4.9375 c -0.007,-0.0535 0.003,0.0145 -0.0371,-0.20117 -0.0111,-0.0602 0.0164,0.12094 0.0254,0.18164 0.004,0.006 0.008,0.0132 0.0117,0.0195 z m 0.0234,0.0371 c -2.2e-4,-0.006 1.8e-4,-0.0117 0,-0.0176 -0.007,-0.005 -0.0129,-0.0111 -0.0195,-0.0156 0.007,0.0108 0.0126,0.0225 0.0195,0.0332 z m 3.88672,-2.54492 c -0.0325,-0.0785 -0.0567,-0.0941 0,0.008 -0.001,-0.004 0.002,-0.004 0,-0.008 z m -2.46289,-2.42969 c 0.17918,0.21514 0.30469,0.54222 0.30469,0.99805 v 0.0371 c 0.0809,0.0694 0.16384,0.13691 0.23046,0.2207 0.002,-0.0229 0.0127,-0.0432 0.0527,-0.0566 0.0142,-0.005 0.029,0.0106 0.043,0.0156 0.007,0.0125 0.0155,0.0242 0.0215,0.0371 6.6e-4,6.7e-4 3e-5,0.002 0,0.004 v 0.002 c 0.006,0.007 0.0138,0.0129 0.0195,0.0195 0.0238,0.029 0.0466,0.0588 0.0703,0.0879 0.0402,0.0503 0.0697,0.0943 0.10156,0.13477 h 0.002 c 0.0122,-0.0113 0.037,0.004 0.0586,0.0117 -0.017,-0.0329 -0.0362,-0.0643 -0.0527,-0.0977 -0.0184,-0.0616 -0.0382,-0.12394 -0.0566,-0.18554 0.0143,-0.10434 0.0715,-0.21111 0.043,-0.3125 -0.0197,-0.07 -0.0123,0.16397 -0.0723,0.20507 -0.0446,0.0306 -0.13653,-0.37897 -0.14453,-0.42187 -0.0886,-0.16985 -0.14819,-0.35389 -0.21094,-0.53516 0.10769,0.0669 0.23078,0.10662 0.34571,0.16016 -0.2168,-0.17616 -0.27201,-0.24169 -0.34961,-0.32422 z m 0.78125,1.61328 c 0.035,0.0639 0.0558,0.10816 0.0586,0.12891 l 0.006,-0.006 c 0.008,-0.006 0.0396,0.0105 0.0547,0.0234 -0.0176,-0.0203 -0.0241,-0.0297 -0.0508,-0.0606 -0.0219,-0.0264 -0.0446,-0.0579 -0.0684,-0.0859 z m 0.1289,0.16602 c -0.003,0.0103 -0.004,0.0212 -0.008,0.0312 10e-4,0.005 6e-4,0.0155 0.002,0.0254 0.005,-0.007 0.008,-0.008 0.0117,-0.0117 -10e-6,-0.0112 7.2e-4,-0.0221 0,-0.0332 -10e-4,-0.003 -0.002,-0.005 -0.004,-0.008 -7.3e-4,-0.002 -5.4e-4,-0.002 -0.002,-0.004 z m -39.0625,0.002 c 0.43971,0.0279 0.84832,0.48514 0.7793,1.3457 -10e-4,0.0118 -0.003,0.0599 -0.004,0.002 -0.0173,-0.0808 1.6e-4,0.0434 0.0117,0.1289 0.043,0.0224 0.0855,0.0374 0.12891,0.0664 0.0872,0.0581 0.17702,0.11213 0.26172,0.17383 0.0956,0.0696 0.189,0.1443 0.2793,0.2207 0.0318,0.0269 0.0602,0.0566 0.0898,0.0859 -0.15178,-0.0604 -0.61035,-0.20626 -0.46094,-0.14649 0.1517,0.0607 0.31085,0.10341 0.4668,0.15235 0,0 0.002,0 0.002,0 0.0163,0.005 0.0326,0.0103 0.0488,0.0156 0.13546,0.10512 0.23894,0.2486 0.32422,0.40235 0.0115,0.002 0.0373,-0.002 0.0449,0 0.0163,-0.004 0.0326,-0.004 0.0488,-0.008 0.0226,-0.33708 0.2729,-0.62909 0.66992,-0.70507 0.27365,-0.0524 0.61519,-0.002 0.99414,0.20507 0.45012,0.24551 0.51377,0.26723 0.94141,0.55078 0.08,0.053 0.15202,0.11743 0.23242,0.16993 0.25254,0.16487 0.0437,0.0108 0.21289,0.10351 0.15077,0.0826 0.29793,0.16881 0.44727,0.25391 0.34908,0.21172 0.2987,0.18853 0.66601,0.38281 0.0665,0.0352 0.13047,0.0759 0.20117,0.10156 0.0795,0.0289 0.16188,0.0496 0.24219,0.0762 0.0768,3.2e-4 0.15355,-3.1e-4 0.23047,0 0.18921,-9.5e-4 0.37935,-0.008 0.56836,0.002 0.0111,0.001 0.0155,0.004 0.0332,0.004 0.002,3e-5 0.002,-1e-5 0.004,0 0.0444,-0.003 0.0885,-0.006 0.13281,-0.01 0.29833,-0.0252 0.10295,-0.0154 0.50195,-0.0234 0.0586,0.1454 0.0979,0.30338 0.14063,0.45899 0.006,9.6e-4 0.0117,0.003 0.0176,0.004 0.0592,-0.0387 0.15879,-0.0643 0.30468,-0.0762 -0.0643,-0.0639 -0.1299,-0.12766 -0.1875,-0.19336 -0.0416,0.004 -0.0834,0.0102 -0.125,0.008 -0.0166,-0.001 0.0283,-0.0204 0.0449,-0.0215 0.0271,-0.002 0.0622,-0.007 0.0801,0.0137 0.0215,-0.002 0.043,-0.003 0.0645,-0.004 0.14694,-0.006 0.34479,-0.0185 0.49609,-0.006 0.33836,0.0289 0.65895,0.14611 1.00391,0.10351 v 0.002 c 0.0729,-0.009 0.12468,0.005 0.1914,0.004 0.003,-0.002 0.007,-0.004 0.01,-0.006 0.0182,-0.0119 0.18444,0 0.21094,0 0.26303,1e-5 0.2844,-2e-5 0.55469,0 0.18635,2e-5 0.37222,3.1e-4 0.55859,0 0.2639,0.001 0.52712,0.003 0.79101,0 0.26405,-0.002 0.5291,0.006 0.79297,0.0137 0.12514,0.0181 0.003,0.006 0.21289,-0.0254 0.091,-0.0136 0.18339,-0.0282 0.27539,-0.0312 0.29828,-0.0103 0.58874,0.0823 0.8711,0.16406 0.2896,0.0839 0.4918,0.21084 0.65625,0.34961 0.0318,-0.007 0.0618,-0.0189 0.0937,-0.0254 0.21547,-0.0436 0.43382,-0.0678 0.65234,-0.0918 0.27702,-0.0304 0.34911,-0.0349 0.49219,-0.0488 -0.0225,-0.35823 -0.0478,-0.71606 -0.0937,-1.07227 -0.0391,-0.30274 0.0983,-0.47073 0.25391,-0.48633 0.15557,-0.0156 0.32897,0.12207 0.35937,0.42579 0.0308,0.30833 0.0729,0.61465 0.0937,0.92382 0.004,0.0551 1.7e-4,0.11253 0.004,0.16797 0.14206,-0.002 0.25547,-0.002 0.5625,-0.002 0.5739,0 0.94041,0.19974 1.13281,0.45703 1.56432,0.11333 1.51726,1.73671 -0.1543,1.72461 -0.074,-5.4e-4 -0.14865,-7.5e-4 -0.22265,-0.002 -0.39131,1.7e-4 -0.78252,0.003 -1.17383,0 -0.0384,-2.4e-4 -0.0768,0.002 -0.11524,0.002 -0.003,0.10939 -0.006,0.21879 -0.01,0.32813 -0.006,0.16139 -0.0229,0.32282 -0.0234,0.48437 -7e-4,0.18965 0.0135,0.37882 0.0195,0.56836 0.0706,0.70199 0.0597,1.41077 0.0527,2.11523 -0.002,0.18706 -0.0159,0.37376 -0.008,0.56055 0.0158,0.28533 0.0573,0.56918 0.0859,0.85352 0.0297,0.19749 0.0668,0.39332 0.0899,0.59179 0.0363,0.3235 0.0597,0.66557 0.0527,0.99414 -0.004,0.17276 -0.0125,0.34502 -0.0215,0.51758 -0.006,0.11626 -0.0227,0.23124 -0.0234,0.34766 -6e-4,0.0998 0.0116,0.19923 0.0176,0.29883 0.0264,0.13109 0.0251,0.11733 0.0234,0.10937 0.13675,5.9e-4 0.21235,0.0148 0.0332,0.0801 -0.18703,0.0682 -0.36206,0.18968 -0.56055,0.20508 -0.0793,0.006 -0.0764,-0.13982 -0.0801,-0.24805 -0.0728,0.006 -0.0423,-0.002 0,-0.0117 -0.002,-0.0566 -0.008,-0.10365 -0.0312,-0.0996 -0.006,-0.12484 -0.0182,-0.25002 -0.0176,-0.375 6e-4,-0.11164 0.0155,-0.2225 0.0215,-0.33398 0.009,-0.16243 0.0175,-0.32372 0.0215,-0.48633 0.008,-0.3 -0.0137,-0.6107 -0.0469,-0.90625 -0.0235,-0.20882 -0.0608,-0.41521 -0.0918,-0.62305 -0.0295,-0.30727 -0.0729,-0.61364 -0.0898,-0.92187 -0.01,-0.18526 0.008,-0.37111 0.01,-0.55664 0.007,-0.69657 0.0174,-1.39768 -0.0527,-2.0918 -0.006,-0.20615 -0.0202,-0.41095 -0.0195,-0.61719 6e-4,-0.15743 0.0174,-0.31532 0.0234,-0.47265 0.004,-0.10151 0.005,-0.20312 0.008,-0.30469 -0.2448,0.002 -0.48965,-0.001 -0.73438,0.01 -0.43075,-0.0151 -0.21483,0.002 -0.51367,-0.0332 -0.0892,-0.0106 -0.17888,-0.0171 -0.26758,-0.0312 -0.017,-0.003 -0.0469,-0.002 -0.0469,-0.0195 0,-0.0148 0.008,-0.0215 0.0234,-0.0371 -0.0406,0.0214 -0.0528,0.0366 -0.23828,0.0957 -0.01,0.003 -0.0197,0.007 -0.0293,0.01 -0.18199,0.0844 -0.37929,0.18321 -0.56836,0.23242 -0.17938,0.0467 -0.36168,0.0834 -0.54493,0.11133 -0.1854,0.0282 -0.3827,-0.0267 -0.56835,0.0156 -0.2974,0.0168 -0.7746,0.0803 -0.93165,-0.2871 -0.0218,-0.051 -0.0182,-0.1071 -0.0293,-0.16016 -0.0431,2e-5 -0.0857,-2e-5 -0.12891,0 -0.20261,10e-6 -0.40481,-2.6e-4 -0.60742,0 -0.18344,10e-4 -0.36748,0.004 -0.55078,-0.004 0.0523,-0.006 0.14782,-0.0127 0.19922,-0.0351 0.0796,-0.0349 0.31772,-0.13594 0.23242,-0.11914 -0.48214,0.095 -0.38391,0.2209 -0.7793,0.1582 -0.43186,-0.0408 -0.84617,-0.0838 -1.27148,-0.18555 -0.30531,-0.073 -0.59163,-0.21792 -0.9043,-0.26562 -0.12602,-0.0297 -0.25532,-0.0437 -0.38281,-0.0664 -0.11232,-0.0263 -0.21464,-0.0601 -0.32422,-0.0879 -0.0205,0.004 -0.0399,0.0127 -0.0605,0.0156 -0.0667,0.01 -0.13186,-0.0229 -0.19726,-0.0391 -0.0394,-0.01 -0.0772,-0.0246 -0.11524,-0.0391 -0.0122,-0.005 -0.0412,-0.008 -0.0351,-0.0195 0.007,-0.014 0.0278,-0.0123 0.043,-0.0176 -0.006,-0.002 -0.0118,-0.002 -0.0176,-0.004 -0.32494,0.085 -0.84963,-0.0827 -1.12696,-0.14454 -0.0332,-0.008 -0.0663,-0.0173 -0.0996,-0.0254 -0.16826,-0.007 -0.28922,-0.0389 -0.37695,-0.0918 -0.0254,-0.006 -0.0509,-0.013 -0.0762,-0.0195 -0.1002,-0.026 -0.43605,-0.13007 -0.53125,-0.14257 -0.0865,-0.0113 -0.17452,0 -0.26172,0 h -0.71875 v -0.002 c -0.79211,0 -1.20223,-0.37023 -1.26758,-0.76757 -0.0254,-0.0103 -0.0519,-0.0147 -0.0781,-0.0274 -0.0823,9.6e-4 -0.24856,-0.0289 -0.36719,-0.0684 -0.0149,0.0222 -0.0301,0.0442 -0.0449,0.0664 -0.31488,0.47018 -0.41682,0.29993 -0.44922,-0.0723 -0.007,5e-5 -0.0143,-8e-5 -0.0215,0 -0.0941,0.002 -0.1891,8e-5 -0.2832,0 -0.10001,-3e-5 -0.20077,3e-5 -0.30078,0 -0.0117,0 -0.0242,0.004 -0.0352,0 -0.0828,-0.0303 -0.16274,-0.0662 -0.24609,-0.0957 -0.10563,0.0101 -0.20823,0.018 -0.31445,0.0117 -0.0454,-0.003 -0.0972,-0.0146 -0.0391,-0.006 -0.36355,0.0195 -0.57188,-0.1915 -0.76954,-0.41406 -0.0935,-0.0259 -0.18753,-0.0493 -0.28125,-0.0742 -0.0615,-0.067 -0.14314,-0.12077 -0.18554,-0.20117 -0.0223,-0.0423 -0.0294,-0.0908 -0.0488,-0.13477 -0.0127,-0.004 -0.0265,-0.008 -0.0391,-0.0117 -0.18001,-0.34344 -0.18918,-0.49314 -0.14258,-0.82226 0.002,-0.0169 -0.007,0.032 -0.01,0.0488 -0.006,-0.23383 -0.006,-0.46723 -0.004,-0.70117 0.002,-0.18423 0.0392,-0.22973 0.13867,-0.33789 0.0112,-0.0285 0.0206,-0.0653 0.0312,-0.082 10e-4,-0.002 0.003,-0.002 0.004,-0.004 8.2e-4,-0.043 -9.1e-4,-0.086 0.002,-0.1289 0.0509,-0.86183 0.52123,-1.26418 0.96093,-1.23633 z m -0.96289,1.36523 c -2.5e-4,0.0137 -1.1e-4,0.0274 0,0.041 0.0109,-0.0121 0.0358,-0.0454 0.0488,-0.0606 0.005,-0.0246 0.0174,-0.0368 0.0254,-0.0586 -0.0235,0.0269 -0.0545,0.0482 -0.0742,0.0781 z m 0.0742,-0.0781 c 0.034,-0.0389 0.0693,-0.0775 0.10743,-0.11328 0.0109,-0.0145 0.0156,-0.0173 0.0273,-0.0332 -0.0274,0.0185 -0.0603,0.0267 -0.0859,0.0469 -0.0239,0.0188 -0.0348,0.0615 -0.0488,0.0996 z m 0.10743,-0.11328 c -0.0551,0.073 -0.0965,0.12984 -0.13282,0.17187 -0.0133,0.0598 -0.0196,0.12452 -0.0234,0.17578 0.1074,-0.14227 0.20513,-0.291 0.29688,-0.44531 -0.0343,0.0195 -0.0688,0.0349 -0.10156,0.0566 -0.0139,0.0129 -0.0252,0.0281 -0.0391,0.041 z m -0.18165,0.23242 c -0.008,0.009 -0.0283,0.0373 -0.0351,0.0449 -0.0421,0.10726 -0.0791,0.25116 -0.0293,0.19531 0.0274,-0.0307 0.047,-0.0672 0.0723,-0.0996 -0.003,-0.0237 -0.004,-0.0224 -0.01,-0.0762 -10e-4,-0.0215 0.002,-0.043 0.002,-0.0644 z m 17.56055,12.66992 c 1.6e-4,0.004 -1.3e-4,0.008 0,0.0117 0.14945,-0.0125 0.42588,-0.0374 0.60352,-0.0371 -0.009,-0.0353 -0.0202,-0.08 -0.0273,-0.0801 -0.18599,-8e-4 -0.36558,0.0638 -0.54883,0.0957 -0.0531,0.009 -0.008,0.005 -0.0273,0.01 z M 327.625,202.11914 c 0.002,2.6e-4 0.004,0.002 0.006,0.002 0.001,-0.001 0.003,1.9e-4 0.004,-0.002 -0.005,-3.1e-4 -0.005,-7.8e-4 -0.01,0 z m 0.01,0 c 9e-5,0.002 -9e-5,0.002 0,0.004 0.005,0.001 0.0104,-6.5e-4 0.0156,0.002 9e-4,-0.002 0.003,-0.002 0.004,-0.004 0.003,-0.006 -0.0103,-5e-4 -0.0195,-0.002 z m -3.27539,0.94727 c -6.6e-4,-0.12273 -0.016,0.0844 -0.0469,0.42382 0.0263,0.0246 0.0535,0.0483 0.082,0.0703 -0.0169,-0.19185 -0.0349,-0.40311 -0.0351,-0.49414 z m -0.01,0.5957 c 0.0191,0.0328 0.0376,0.0658 0.0586,0.0977 -0.004,-0.0247 -2.1e-4,-0.0377 -0.004,-0.0625 -0.0181,-0.0119 -0.0371,-0.0223 -0.0547,-0.0352 z m -34.57813,0.62695 c -0.12016,0.0375 -0.4774,0.0626 -0.36132,0.11133 0.002,7.9e-4 0.004,0.001 0.006,0.002 0.0883,0.002 0.17902,0.012 0.2871,0.0586 0.005,0.002 0.009,0.007 0.0137,0.01 0.0526,0.0103 0.10289,0.0277 0.15625,0.0352 0.026,2e-5 0.0521,6e-5 0.0781,0 -0.0592,-0.0732 -0.11662,-0.14767 -0.17969,-0.2168 z m 38.125,0.23047 c -0.0294,5.8e-4 -0.06,0.0145 -0.0898,0.0195 0.006,0.0135 0.0101,0.0275 0.0156,0.041 0.0372,-0.0152 0.074,-0.0319 0.11132,-0.0469 -0.0122,-0.005 -0.0249,-0.008 -0.0371,-0.0137 z m -0.14257,0.0293 c -0.012,0.004 -0.0229,-3.5e-4 -0.0352,0.008 -0.0597,0.0332 -0.10421,0.0873 -0.15625,0.13086 0.0749,-0.0326 0.14971,-0.0634 0.22461,-0.0937 -0.0141,-0.0159 -0.007,-0.0177 -0.0332,-0.0449 z m -37.78711,0.0879 c 0.0394,0.0301 0.0813,0.0561 0.12304,0.082 0.0305,0.0189 -0.0485,-0.0576 -0.082,-0.0703 -0.0178,-0.007 -0.0238,-0.006 -0.041,-0.0117 z m -2.08789,0.76172 c 0.0456,0.0886 0.0989,0.17227 0.17187,0.24023 0.13224,0.12312 0.68968,0.12231 0.54102,0.0195 -0.20892,-0.1443 -0.46192,-0.19948 -0.71289,-0.25976 z m 2.9414,0.80859 c 0.003,0.003 0.007,0.006 0.01,0.01 0.003,-3.6e-4 0.005,3.8e-4 0.008,0 -0.006,-0.004 -0.0114,-0.006 -0.0176,-0.01 z m 0.0293,0.0156 c -0.002,2.7e-4 -0.009,0.002 -0.0117,0.002 0.003,0.003 0.005,0.007 0.008,0.01 0.013,0.003 0.0261,0.006 0.0391,0.01 -0.0113,-0.007 -0.0231,-0.0142 -0.0352,-0.0215 z" />
    </clipPath>
    <clipPath
       clipPathUnits="userSpaceOnUse"
       id="clipPath2964">
      <path
         id="path2966"
         style="fill:#ff0000;fill-opacity:1;fill-rule:nonzero;stroke:none"
         d="M 239.12695,30.539062 V 207.28711 h 38.29883 c -0.71818,-0.56043 -1.42736,-1.13044 -2.10547,-1.73828 -0.0882,-0.0791 0.45439,-1.02024 0.49219,-1.14844 0.0491,-0.16635 -0.0236,-0.64652 0.0879,-0.51367 0.17643,0.2103 0.1052,0.53923 0.1582,0.80859 -0.0487,-2.60813 -0.26785,-0.9786 0.67383,-3.35742 0.0362,-0.0913 -0.0801,0.12698 -0.16211,0.27344 -0.0671,0.17407 -0.0961,0.2663 -0.22851,0.5625 -0.18446,0.2106 0.0538,-0.25061 0.22851,-0.5625 0.27638,-0.71662 0.28814,-0.74881 0.97852,-1.15235 0.0259,-0.16946 0.0346,-0.25628 0.0801,-0.51953 0.16208,-0.93839 0.33682,-1.87497 0.54297,-2.80468 0.17822,-0.8038 0.37812,-1.60428 0.58203,-2.40235 -9.3e-4,-0.65746 -0.007,-1.31517 -0.006,-1.97265 -0.20382,-2.23806 0.9277,-4.0199 1.72851,-5.97852 0.003,-0.008 0.007,-0.0155 0.01,-0.0234 0.12062,-0.49369 0.36298,-1.01503 0.13867,-0.36719 -0.0427,0.12354 -0.0916,0.24521 -0.13867,0.36719 -0.0764,0.31263 -0.11266,0.6138 0.0859,0.58789 0.0142,-0.0586 0.0287,-0.11717 0.043,-0.17578 0.0763,-0.31396 0.11161,-0.64252 0.23438,-0.9414 0.0204,-0.0498 0.10429,-0.0145 0.1582,-0.0215 -0.004,-0.0189 -0.009,-0.0377 -0.0137,-0.0566 0.008,-0.32376 -0.29883,-0.9391 0.0234,-0.9707 0.17671,-0.0173 0.35428,-0.0133 0.53125,-0.0254 0.58811,-1.19462 0.63584,-1.11458 2.00195,-1.80469 2.98201,0.77265 5.16732,0.98603 3.20508,1.93945 0.56924,0.0462 1.13949,0.0863 1.70703,0.12891 -10e-4,-0.015 -0.01,-0.0369 -0.01,-0.0508 -0.0766,-0.29365 -0.20036,-0.57887 -0.23046,-0.88086 -0.0223,-0.22416 0.15133,0.4243 0.20703,0.64258 0.025,0.0982 0.0361,0.19941 0.0566,0.29882 0.0499,0.0193 0.0475,0.0915 0.0332,0.17383 0.009,0.0569 0.0267,0.11257 0.0312,0.16992 0.004,0.0458 5.8e-4,0.0749 0.004,0.11914 -0.0151,-0.0776 -0.0254,-0.15078 -0.0449,-0.23242 -0.005,0.0274 -0.011,0.0584 -0.0137,0.0801 -0.0205,0.16399 -0.0535,0.3265 -0.0762,0.49024 0.008,-9e-4 0.0156,-9.6e-4 0.0234,-0.002 0.0665,-0.008 0.1013,-0.0444 0.11719,-0.0977 0.004,0.0692 0.004,0.13364 0.006,0.19921 0.17898,0.009 0.3616,0.0257 0.55078,0.0645 1.00251,0.20541 1.7311,0.58642 2.25586,1.0664 1.06191,-1.29417 2.3073,-2.41523 3.47461,-3.61132 1.62052,-1.66049 3.2382,-2.29782 4.54296,-2.22266 0.0337,0.002 0.0643,0.0108 0.0977,0.0137 1.0221,-1.4075 2.30298,-2.02276 3.45703,-1.93555 2.13495,0.1614 3.80701,2.6454 2.48633,6.60743 -0.20833,0.625 -0.38215,1.26259 -0.625,1.875 -1.17862,2.97225 -1.09883,2.48834 -2.26562,4.92968 -0.30061,0.62898 -0.0772,0.16959 -0.27735,0.58985 -0.14242,0.89561 -0.17041,0.71507 -0.35547,1.41406 0.6354,-0.13154 1.27234,-0.25577 1.90625,-0.39453 1.20501,-0.26376 2.40263,-0.56376 3.60352,-0.8457 0.30341,-0.0704 0.60688,-0.14014 0.91015,-0.21094 0.32949,-0.21313 0.63541,-0.38574 0.92579,-0.51563 1.13431,-2.29309 1.87267,-2.15041 4.03125,-2.56836 1.63987,-0.002 2.30145,-0.0211 3.71484,0.10743 0.34873,-0.204 0.68899,-0.37173 1.02148,-0.50782 -0.13876,-0.22099 -0.24981,-0.456 -0.31054,-0.71484 -0.26322,-1.12168 0.44995,-2.27004 0.84179,-3.35352 0.098,-0.271 0.38559,-0.42989 0.59766,-0.625 0.17156,-0.15784 0.65703,-0.63718 0.55078,-0.42968 -1.24276,2.42715 -1.61631,2.08368 -1.56055,2.63476 3.33029,-1.43894 5.38346,-1.06083 6.4629,-0.6582 -0.48754,-0.59255 -1.23278,-1.0343 -1.76368,-1.60156 0.74045,0.30981 1.58022,0.56676 2.31055,0.95507 -0.0183,-0.0955 -0.0237,-0.10403 -0.043,-0.20898 0.0439,0.10872 0.0578,0.1423 0.0957,0.23438 0.32743,0.17854 0.63641,0.37667 0.89258,0.63476 0.0823,0.0829 0.13775,0.16697 0.21289,0.25 0.21711,0.0996 0.46264,0.22004 0.8125,0.4082 2.09376,1.12606 4.1875,2.25285 6.28125,3.37891 -0.11945,0.3869 -0.22059,0.77906 -0.35742,1.16016 -0.0535,0.14916 -0.14234,0.28293 -0.21094,0.42578 -0.0667,0.1388 -0.13133,0.27881 -0.19726,0.41797 0.97534,0.83998 1.25371,1.20037 -0.18555,0.39258 -0.002,0.005 -0.005,0.0103 -0.008,0.0156 -0.27409,0.59883 -0.54027,1.20169 -0.81836,1.79883 0.66491,0.46032 1.28595,0.98837 1.9375,1.46875 0.29456,0.43279 0.67787,0.81514 0.88281,1.29687 0.42132,0.9903 0.68173,2.04366 0.97852,3.07813 0.0202,0.0706 -0.0252,0.14378 -0.0332,0.2168 -0.014,0.11972 -0.0457,0.24126 -0.0351,0.36132 0.0482,0.54477 0.2755,1.06443 0.31641,1.60938 0.0766,0.65311 0.33155,1.30922 0.23046,1.95898 -0.10606,0.68167 -0.30242,1.35167 -0.55664,1.99805 H 366.1111 V 30.539062 Z m 93.32422,162.945318 c 0.0603,-0.13152 0.12361,-0.26184 0.18555,-0.39258 -1.28119,-1.1034 -3.67622,-2.97686 -5.33789,-4.37305 0.33455,0.68725 0.49787,1.39367 0.59179,2.12695 1.40945,0.81876 2.81907,1.63633 4.22852,2.45508 0.14333,0.0833 0.21246,0.11647 0.33203,0.1836 z m -7.24805,-7.06836 c -0.017,-0.009 -0.0356,-0.0163 -0.0527,-0.0254 0.0855,0.44589 0.14182,0.69943 0.20313,0.97461 0.0969,0.0449 0.16096,0.0666 0.18945,0.0508 0.003,-0.0531 -0.005,-0.11813 -0.0137,-0.18164 -0.0472,-0.14409 -0.16975,-0.43845 -0.32618,-0.81836 z m -38.44726,-1.12696 c -1.7365,-0.141 -3.47669,-0.25264 -5.20703,-0.13476 -0.12095,0.24568 -0.22721,0.46364 -0.41406,0.84375 -0.002,0.005 -0.0128,0.12759 -0.0215,0.23437 0.95417,0.005 1.91114,0.0496 2.86719,0.084 1.30596,-0.42024 2.21839,-0.75671 2.77539,-1.02735 z M 298.97461,73.09375 c 1.09478,0.07984 2.00922,0.717994 2.47851,1.742188 0.1481,-0.006 0.29645,-0.02026 0.44336,-0.0039 0.39648,0.04394 0.7792,0.186924 1.14258,0.390625 0.53351,-0.433067 1.17491,-0.626648 1.85547,-0.541015 1.34085,0.168714 2.83097,1.407677 3.92774,3.966797 0.31631,0.73805 0.56651,1.236296 0.73242,2.052734 0.0201,0.09896 0.025,0.200628 0.0371,0.300781 0.0788,-4.29e-4 0.1576,-0.0016 0.23632,-0.002 7.42449,-0.03693 7.45949,7.46464 0.0352,7.5 -0.17398,8.29e-4 -0.3475,0.0023 -0.52148,0.002 -0.31974,-0.0018 -0.64016,-0.01645 -0.95899,0 -0.29049,0.01129 -0.49603,0.0023 -0.67969,-0.01563 -0.49981,0.162649 -0.88753,0.273107 -1.43945,0.263672 h -1.07422 -0.84179 -0.26172 c -0.0662,0.509268 -0.0864,0.608363 -0.49024,1.634766 -1.34049,3.407326 -2.42045,0.918412 -3.44922,-1.634766 h -0.4746 -1.79688 c -1.21703,0 -2.21321,-0.215761 -3.03125,-0.552734 -0.44961,1.188909 -1.0872,1.509704 -2.2168,-0.480469 -0.24178,-0.425974 -0.48479,-0.853323 -0.72656,-1.279297 -0.0703,-0.514928 -0.19614,-1.025436 -0.21094,-1.544922 -0.008,-0.291079 0.0756,-0.577944 0.14258,-0.861328 0.0209,-0.08855 0.0559,-0.173198 0.084,-0.259766 -0.0539,-1.037146 0.23813,-2.046803 0.92187,-2.923828 0.0127,-0.08832 0.0226,-0.177296 0.0352,-0.265625 -0.66115,-1.41167 0.17165,-2.480862 1.32226,-4.320312 1.47652,-2.360475 3.29249,-3.276399 4.7793,-3.167969 z m -3.36328,3.238281 c -0.83864,0.01667 -1.97167,0.517208 -1.51563,0.865235 1.07594,0.821082 2.3948,1.201377 3.72657,1.558593 0.0364,-0.173905 0.0877,-0.326215 0.13281,-0.488281 -0.42099,-0.555596 -0.95978,-1.147445 -1.67383,-1.767578 -0.14438,-0.125387 -0.39038,-0.173525 -0.66992,-0.167969 z m -2.73633,4.251953 c 0.006,-0.04435 -0.01,0.125611 -0.0215,0.242188 0.0288,-0.03657 0.0518,-0.07523 0.082,-0.111328 -0.0233,-0.04423 -0.0401,-0.08732 -0.0605,-0.13086 z m 0.0645,0.136719 c 0.003,0.0087 -0.0195,0.06252 -0.0293,0.09375 -0.0229,0.148293 -0.0489,0.296363 -0.0684,0.445313 0.004,0.188028 0.0242,0.341903 0.10547,0.291015 0.22968,0.05919 0.46399,0.106995 0.70117,0.150391 -0.31287,-0.350838 -0.54711,-0.675045 -0.70899,-0.980469 z m 12.93555,0.390625 c -0.1764,0.05032 -0.30043,0.09428 -0.41992,0.138672 h 0.2832 c 0.0516,-0.05449 0.0804,-0.07744 0.13672,-0.138672 z m 0.4375,7.052734 c -0.2901,-0.07234 0.56879,0.190194 0.86133,0.251954 0.0402,0.0085 0.0822,0.0019 0.12305,0.0059 -0.25734,-0.05879 -0.5165,-0.141132 -0.98438,-0.257813 z M 281.11133,186.6543 c 0.003,0.0388 -0.004,0.1007 0.002,0.12695 0.0298,0.12673 0.095,0.34878 0.10938,0.375 10e-4,-3.9e-4 0.003,3.9e-4 0.004,0 -0.0338,-0.16822 -0.0746,-0.33517 -0.11523,-0.50195 z m 37.36328,2.91015 c 0.0139,0.0831 0.0168,0.0833 0.0312,0.17383 0.0306,0.0193 0.0362,0.0179 0.0645,0.0352 -0.0382,-0.0808 -0.0572,-0.12577 -0.0957,-0.20899 z m 6.23437,0.39258 c -0.15026,0.23281 -0.32877,0.5389 -0.52734,0.88867 0.037,0.0256 0.0888,0.0615 0.12695,0.0879 0.074,-0.0696 0.15759,-0.13788 0.17969,-0.23437 0.0561,-0.24462 0.13715,-0.4932 0.2207,-0.74219 z m -46.04296,9.5332 c 0.008,-0.0201 -0.1156,0.18908 -0.24805,0.41602 0.0222,-0.0149 0.0416,-0.0275 0.0644,-0.043 0.0961,-0.19317 0.17589,-0.35396 0.1836,-0.37305 z m -0.69532,1.32032 c -0.0362,0.006 -0.0746,0.0263 -0.11132,0.0351 -0.18424,0.31006 -0.22915,0.39323 -0.51368,0.86328 0.19119,-0.65142 0.0651,-0.20059 0.1211,-0.70898 -0.54456,0.3119 -0.46603,0.77033 -0.043,1.30664 0.2117,-0.58086 0.41124,-1.03829 0.61914,-1.49609 -0.0245,0.003 -0.0475,-0.004 -0.0723,0 z" />
    </clipPath>
    <clipPath
       clipPathUnits="userSpaceOnUse"
       id="clipPath2018">
      <path
         id="path2020"
         style="fill:#ff0000;fill-opacity:1;fill-rule:nonzero;stroke:none"
         d="m 308.72656,145.23047 v 50.78125 c 0.35381,-0.0391 0.70589,-0.0913 1.06055,-0.12695 0.27387,-0.0321 0.5484,-0.0636 0.82227,-0.0957 0.0693,-0.0265 0.13628,-0.0596 0.20703,-0.082 0.16319,-0.0518 0.34862,-0.1678 0.5039,-0.0957 0.0457,0.0212 0.0874,0.0518 0.13281,0.0742 0.0697,-0.009 0.13941,-0.0173 0.20899,-0.0274 0.0738,-0.0104 0.14741,-0.0228 0.2207,-0.0371 -0.0283,-0.006 -0.0254,-0.003 -0.0566,-0.01 0.0634,-0.01 0.0852,-0.008 0.13477,-0.0156 -0.0209,0.002 -0.0238,0.0146 -0.043,0.0195 0.0402,-0.007 0.0803,-0.0179 0.12109,-0.0195 0.0324,-0.001 -0.0176,-0.005 -0.0723,0 0.22901,-0.0345 0.35384,-0.04 0.4082,0.11719 0.13896,0.0327 0.0775,0.10631 0.0527,0.30664 0.013,0.09 0.032,0.17428 0.0488,0.30469 l 0.002,0.002 c 0.0533,0.0442 0.1014,0.0939 0.15234,0.14063 0.20374,-0.0355 0.40705,-0.0742 0.61133,-0.10547 0.33902,-0.0519 0.68036,-0.0943 1.02148,-0.13086 0.0715,-0.0257 0.14333,-0.0496 0.2168,-0.0684 0.16412,-0.0676 0.33521,-0.12683 0.55078,-0.1543 0.14828,-0.0189 0.37004,-0.0725 0.46484,0.0234 0.16308,-0.0174 0.32492,-0.0453 0.49024,-0.0527 0.23965,-0.0104 -0.10461,0.0442 0.24219,0.006 0.058,-0.007 0.11467,-0.0233 0.17187,-0.0352 0.061,-0.0126 0.12237,-0.0247 0.18359,-0.0371 -0.0473,-0.10284 0.17164,-0.14019 0.39258,-0.17773 0.008,-0.004 0.0156,-0.009 0.0234,-0.0137 0.21687,-0.10401 0.39846,-0.15674 0.58203,-0.17968 0.12819,-0.0905 0.17334,-0.0993 0.4082,-0.20118 0.0943,0.001 0.12005,-3e-4 0.1836,-0.004 0.1039,-0.0657 0.19444,-0.12896 0.34765,-0.20117 0.0523,-0.0246 0.11225,-0.0281 0.16993,-0.0371 0.01,-0.005 0.0139,-0.01 0.0215,-0.0137 0.002,-0.001 0.004,9e-4 0.008,0 0.0325,-0.0196 0.065,-0.0393 0.0977,-0.0586 0.123,-0.005 0.24614,-0.009 0.36914,-0.0137 0.019,-0.0149 0.0569,-0.0213 0.082,-0.0312 0.0629,-0.0255 0.12741,-0.0459 0.19141,-0.0684 10e-4,9e-5 0.003,-9e-5 0.004,0 0.22535,-0.23872 0.26974,-0.41541 -0.28711,-0.39453 -0.11698,0.004 -0.24209,-0.0298 -0.35156,0.0117 -0.15292,0.0579 -0.26871,0.18699 -0.40625,0.27539 -0.0144,0.009 0.0221,-0.0261 0.0332,-0.0391 0.0539,-0.0627 0.10666,-0.12635 0.16016,-0.18945 0.20582,-0.0846 0.42254,-0.14601 0.61719,-0.2539 0.0603,-0.0334 -0.1114,0.0153 -0.20313,0.0351 -0.0321,0.0147 -0.0659,0.0264 -0.0976,0.041 -0.0245,0.0113 0.0482,-0.0249 0.0723,-0.0371 0.008,-0.001 0.014,-3.7e-4 0.0254,-0.004 0.17771,-0.0812 0.3613,-0.16011 0.5625,-0.14453 0.18131,-1.5e-4 0.36166,0.002 0.54297,0.002 0.10474,0 0.20961,-3e-5 0.31446,0 -0.0942,-0.13359 -0.18636,-0.26833 -0.27735,-0.40429 -0.45707,-0.45425 -0.9073,-0.91694 -1.2793,-1.44336 -0.0259,-0.0609 -0.0565,-0.11904 -0.0781,-0.18164 -0.0562,-0.1628 -0.0771,-0.33877 -0.14258,-0.49805 -0.0396,-0.0963 -0.36059,-0.76492 -0.42969,-0.87891 -0.0675,-0.11135 -0.15356,-0.20941 -0.23046,-0.31445 -0.038,-0.0362 -0.0787,-0.068 -0.11329,-0.10742 -0.0537,-0.0612 -0.10449,-0.12616 -0.15039,-0.19336 -0.0301,-0.0441 -0.13036,-0.15283 -0.0781,-0.14063 -0.14467,0.0303 -0.22023,0.007 -0.0664,-0.18945 0.10879,-0.13916 0.15392,-0.37887 0.32617,-0.41797 0.11895,-0.027 0.20558,-0.0299 0.27149,-0.0176 0.19483,0.0363 0.20632,0.21245 0.31445,0.3418 0.0481,-0.006 0.0618,0.0122 0.0469,0.0508 0.0524,0.0567 0.10707,0.11189 0.16015,0.16797 0.0995,0.14236 0.20923,0.27891 0.29883,0.42774 0.0839,0.13945 0.14905,0.28848 0.21875,0.43554 0.28088,0.59238 0.21789,0.41422 0.33594,0.82422 0.007,0.0248 0.0137,0.0496 0.0215,0.0742 0.12492,-0.38258 0.42272,-0.58415 0.75196,-0.53711 0.29927,0.0428 0.61491,0.30044 0.84179,0.78906 0.0888,-0.0877 0.19923,-0.15243 0.32813,-0.18164 0.0441,-0.01 0.095,-0.006 0.14258,-0.008 0.15672,-0.41484 0.44968,-0.63672 0.75195,-0.63672 0.26895,0 0.52645,0.1833 0.69336,0.51172 h 0.002 c 0.34383,-0.0446 0.77895,0.14485 1.15235,0.67383 0.2937,0.41606 0.61556,0.83915 0.85937,1.29101 0.0527,0.0977 0.21565,0.2418 0.12695,0.3086 -0.0109,0.008 -0.0241,0.0133 -0.0351,0.0215 0.0276,0.0606 0.0623,0.13651 0.10547,0.26172 0.009,0.0208 0.0282,0.0541 0.0312,0.0664 0.004,0.0154 0.005,0.0314 0.008,0.0469 0.005,0.002 0.0107,0.002 0.0156,0.004 0.0397,0.0169 0.0687,0.054 0.0977,0.0859 0.15964,0.17588 0.17659,0.28674 0.24609,0.51562 0.004,0.0147 -0.005,-0.0298 -0.008,-0.0449 0.006,0.0201 0.0211,0.0917 0.0391,0.16797 0.0149,0.0157 0.0302,0.0311 0.0449,0.0469 0.0254,0.0533 0.0518,0.10632 0.0762,0.16016 0.0135,0.009 0.0249,0.0138 0.0312,0.0254 0.001,0.002 -10e-6,0.005 0.002,0.008 0.0191,0.0135 0.0435,0.0236 0.0508,0.0449 0.0665,0.19284 0.0331,0.42081 0.13477,0.59766 0.0486,0.084 0.0275,-0.19147 0.041,-0.28906 0.0789,0.15631 0.12673,0.3252 0.1836,0.49023 0.0894,0.22704 0.30814,0.37298 0.37304,0.61524 0.0212,0.0707 0.0439,0.14149 0.0625,0.21289 0.0122,0.0467 0.0771,0.13462 0.0293,0.14062 -0.0903,0.0123 -0.2916,-0.19243 -0.25,-0.11133 0.0583,0.11378 0.22419,0.13242 0.30859,0.22852 0.0852,0.097 0.0975,0.25344 0.11524,0.375 0.0114,0.0668 0.0224,0.13417 0.0332,0.20117 0.003,0.0209 0.0218,0.0488 0.008,0.0625 -0.018,0.0152 -0.0824,-0.0264 -0.0684,-0.01 0.0456,0.0607 0.12417,0.0893 0.17187,0.14843 0.17089,0.21182 0.1606,0.23161 0.2168,0.4375 0.0471,0.18141 0.1023,0.36787 0.125,0.55469 6e-4,0.006 -0.01,-0.005 -0.0137,-0.008 -0.0286,-0.0205 -0.0497,-0.0705 -0.084,-0.0625 -0.0325,0.007 0.0508,0.0427 0.0762,0.0644 0.065,0.12603 0.11226,0.26264 0.19336,0.37891 0.0471,0.0681 -0.12518,-0.38667 0.01,-0.043 0.0278,0.0722 0.0546,0.14565 0.0801,0.21875 0.0242,0.0696 0.13168,0.17208 0.0684,0.20898 -0.10235,0.0592 -0.2343,-0.0315 -0.35156,-0.0469 0.13319,0.0525 0.28121,0.0789 0.40039,0.1582 0.0852,0.0567 0.12791,0.21174 0.16211,0.30664 0.0852,0.23639 0.18259,0.46788 0.24219,0.71289 -0.002,-0.006 -0.002,-0.0137 -0.004,-0.0195 0.025,0.0565 0.0696,0.10552 0.082,0.16602 0.0393,0.19226 0.056,0.84964 0.0742,0.26757 -0.003,-0.006 -0.007,-0.016 -0.01,-0.0215 0.004,3.5e-4 0.0119,-6.3e-4 0.0117,0.004 -3.5e-4,0.0121 -0.002,0.006 -0.002,0.0176 0.0368,0.0746 0.0954,0.19259 0.12891,0.25391 0.0737,0.13492 0.20304,0.30092 0.24414,0.44531 0.0251,0.0885 0.0375,0.18066 0.0527,0.27149 0.0759,0.0409 0.16647,0.0894 0.10546,0.0664 0.11012,0.10214 0.12178,0.12476 0.0723,0.16407 0.0887,-0.003 0.16401,0.0156 0.19531,0.0996 0.0124,0.0334 0.0125,0.0489 0.0234,0.0801 -0.0319,-0.076 -0.056,-0.0907 0,0.01 -0.001,-0.004 0.002,-0.004 0,-0.008 0.002,0.006 0.004,0.0114 0.006,0.0176 0.0164,0.0276 -0.0122,-0.0105 0.0215,0.041 0.0684,0.10464 0.14605,0.20295 0.21875,0.30469 h 0.002 c 0.5018,0.70252 -0.16441,1.17611 -0.71094,0.50781 -0.0167,-0.0205 -0.20037,-0.27524 -0.32227,-0.49414 -0.009,-0.008 -0.0287,-0.0236 -0.0352,-0.0293 9.6e-4,-4e-4 0.01,0.004 0.008,0.002 -0.01,-0.009 -0.0194,-0.0171 -0.0293,-0.0254 0.0709,0.1177 0.1245,0.23923 0.25,0.49023 0.20016,0.40031 0.0861,0.69292 -0.12304,0.7793 0.19394,0.28408 0.3538,0.58869 0.32812,0.9414 -0.22334,0.33485 -0.36469,0.74152 -0.66992,1.00391 -0.22362,0.19224 -0.5598,-0.0245 -0.78906,-0.18555 -0.0377,-0.0123 -0.0656,-0.0382 -0.0996,-0.0547 -0.0596,0.19183 -0.20754,0.23335 -0.54102,-0.0664 -0.0202,-0.0182 -0.0395,-0.0374 -0.0605,-0.0547 -0.39235,-0.0737 -0.94368,-0.7934 -1.22851,-1.04297 0.0159,0.0299 0.0319,0.0598 0.0469,0.0899 0.006,0.0114 0.01,0.0222 0.0156,0.0332 0.008,0.0138 0.0183,0.0278 0.0273,0.041 0.019,0.0225 0.0319,0.0486 0.043,0.0762 -0.0144,-0.006 -0.0294,-0.008 -0.0449,-0.0117 -0.10461,-0.0265 0.14159,0.11901 0.0352,0.10351 -0.0197,-0.003 -0.0406,-0.002 -0.0586,-0.01 -0.0283,-0.0132 -0.0193,-0.0234 -0.0273,-0.041 -0.0137,-0.0307 -0.0165,-0.0289 -0.0391,-0.0586 -0.0114,-0.0174 -0.0227,-0.0347 -0.0332,-0.0527 -0.006,-0.0105 -0.0106,-0.0208 -0.0156,-0.0312 -0.0305,-0.0615 -0.0645,-0.12155 -0.0977,-0.18165 -0.01,-0.0171 -0.0174,-0.0356 -0.0273,-0.0527 -0.0313,0.0367 -0.0215,0.15518 0.0586,0.42188 l 0.002,0.002 c 7e-4,0.0218 0.003,0.043 0.004,0.0644 0.057,0.0389 0.11575,0.0727 0.16797,0.13477 0.041,0.0488 -0.0937,-0.0838 -0.16016,-0.10352 -0.003,-0.004 -0.005,-0.009 -0.008,-0.0137 0.002,0.0655 0.0166,0.13013 0.0371,0.19336 0.0314,-0.004 0.10577,0.0239 0.36133,0.45312 0.0822,0.13796 -0.23979,-0.21816 -0.32617,-0.35351 -0.0208,-0.0327 -0.0244,-0.0664 -0.0352,-0.0996 -0.0218,0.003 -0.0517,-0.16001 -0.0605,-0.22852 0,0 0,-0.002 0,-0.002 -0.0851,-0.0588 -0.16622,-0.12574 -0.21875,-0.26758 -0.11914,-0.1979 -0.21974,-0.38398 -0.31054,-0.59961 -0.004,-0.009 0.0125,0.0164 0.0195,0.0234 0.0323,0.0311 0.12335,0.12654 0.0976,0.0898 -0.0347,-0.0494 -0.083,-0.0856 -0.125,-0.1289 -0.0657,-0.0852 -0.13336,-0.16926 -0.19726,-0.25586 -0.01,-0.0128 -0.039,-0.046 -0.0234,-0.043 0.0242,0.005 0.0711,0.0688 0.0566,0.0488 -0.0476,-0.0657 -0.13985,-0.10605 -0.15625,-0.18555 -0.005,-0.0221 -0.004,-0.0457 -0.008,-0.0684 -0.01,-0.0126 -0.0151,-0.015 -0.0215,-0.0234 -0.0537,-0.0704 -0.10758,-0.1413 -0.14648,-0.2207 -0.002,-0.004 -0.002,-0.008 -0.004,-0.0117 -0.0161,-0.0145 -0.0338,-0.0271 -0.0488,-0.043 -0.0224,-0.0236 -0.041,-0.0498 -0.0625,-0.0742 -0.006,-0.007 -0.0116,-0.0135 -0.0176,-0.0195 -0.011,-0.0144 -0.0227,-0.0283 -0.0332,-0.043 -0.0336,-0.0474 -0.0606,-0.0986 -0.10351,-0.13867 -0.011,-0.0103 -0.022,-0.0223 -0.0352,-0.0293 -0.0116,-0.007 -0.0244,-0.008 -0.0371,-0.0117 -0.10087,-0.0305 -0.0737,-0.13289 0.0293,-0.10352 0.0127,0.004 0.0275,0.006 0.0391,0.0117 0.0372,0.0199 0.0792,0.0506 0.10742,0.084 0.059,0.07 0.0458,0.0639 0.0918,0.12891 -0.082,-0.27107 -0.11809,-0.55224 -0.10547,-0.83789 0.0143,-0.32343 0.10288,-0.46808 0.23438,-0.5 0.15009,-0.0364 0.35725,0.0892 0.57031,0.24609 -0.017,-0.0223 -0.0337,-0.0447 -0.0488,-0.0684 -0.004,-0.006 0.003,-0.0174 -0.002,-0.0234 -0.20992,-0.25689 -0.25988,-0.27574 -0.54297,-0.52344 h -0.002 c -0.97458,-0.85276 -0.6139,-1.7532 0.20703,-1.70898 0.20017,0.0107 0.43293,0.10638 0.67578,0.24804 0.0106,-0.007 0.0222,-0.0115 0.0332,-0.0176 -0.0338,-0.0401 -0.0776,-0.0909 -0.084,-0.0977 -0.32565,-0.34385 -0.66656,-0.66744 -0.97656,-1.02539 -0.27614,-0.44792 -0.46817,-0.93917 -0.6836,-1.41797 -0.0456,0.0331 -0.0708,0.0437 -0.11914,0.0801 -0.41812,0.31515 -0.29681,0.18423 -0.0312,-0.0645 -0.0287,-0.0243 -0.0532,-0.0511 -0.10937,-0.12695 -0.10505,-0.1197 -0.21483,-0.23452 -0.32422,-0.34961 -0.214,0.61987 -0.43926,1.2279 -0.76953,0.44141 -0.14915,-0.35458 -0.13561,-0.27523 -0.15821,-0.60547 -0.022,-0.0519 -0.0445,-0.1043 -0.0664,-0.15625 -0.0459,-0.13066 -0.0956,-0.2584 -0.13672,-0.39063 -0.0207,-0.0667 -0.0308,-0.16545 -0.043,-0.25781 -0.0227,0.003 -0.0465,0.005 -0.0684,0.01 -0.27202,0.18478 -0.53412,0.28157 -0.83594,0.28125 -0.0687,0.0829 -0.0691,0.0696 -0.5,0.18359 -0.13947,0.003 -0.35737,0.0195 -0.5,0.002 -0.0134,0.005 -0.0252,0.0139 -0.0391,0.0176 -0.15232,0.0405 -0.30972,0.0574 -0.4668,0.0703 -0.0124,0.001 -0.0358,7.2e-4 -0.0547,0.002 -0.0365,0.0115 -0.0711,0.0275 -0.10743,0.0391 -0.0206,0.006 -0.0778,0.0234 -0.0644,0.008 0.004,-0.005 0.01,-0.009 0.0137,-0.0137 -0.24942,0.19308 -0.34737,0.23108 -0.49609,0.18945 -0.004,0.002 -0.005,0.004 -0.008,0.006 -0.005,0.003 -0.012,0.002 -0.0176,0.002 0.006,-0.004 0.0133,-0.006 0.0195,-0.01 -0.14061,-0.0399 -0.3474,-0.12215 -0.88672,-0.16211 -0.0586,-0.004 0.0824,0.0831 0.13281,0.11328 0.27509,0.1651 0.31363,0.097 0.68946,0.0859 -0.10195,0.0721 -0.19638,0.1566 -0.30664,0.21484 -0.17036,0.09 -0.37074,0.11895 -0.55665,0.15625 0.19539,-0.23446 0.57527,-0.63751 -0.64843,0.084 -0.13182,0.0777 0.30821,-0.005 0.45703,-0.041 0.0712,-0.0171 0.1815,-0.18618 0.1875,-0.11328 0.0159,0.18862 -0.55278,0.11434 -0.48438,0.29492 -0.20756,0.0821 -0.41372,0.16597 -0.61718,0.25782 -0.0657,0.0297 -0.13157,0.0603 -0.19727,0.0898 -0.16745,0.17754 -0.34325,0.30469 -0.63672,0.33594 -0.41319,0.21208 -0.8362,0.41292 -1.28515,0.53711 -0.0607,0.01 -0.58772,0.0847 -0.57032,0.0684 0.023,-0.0216 0.10834,-0.0647 0.0781,-0.0547 -0.50097,0.16119 0.159,0.19266 -0.32617,0.0937 -0.15841,0.0824 -0.32625,0.14306 -0.50391,0.17773 -0.0486,0.0331 -0.0901,0.0408 -0.12305,0.0293 -0.007,0.001 -0.014,0.005 -0.0215,0.006 -0.003,-0.007 -0.005,-0.0146 -0.008,-0.0215 -0.002,-0.003 -0.008,9.1e-4 -0.01,-0.004 -0.009,-0.0215 -0.0117,-0.0447 -0.0195,-0.0664 -0.0339,-0.0785 -0.064,-0.15856 -0.0957,-0.23828 -0.0367,-0.005 -0.0347,-0.007 -0.0742,-0.0117 -0.0102,-0.0216 -0.0179,-0.0357 -0.0254,-0.0508 h -0.13086 c -0.0746,0.033 -0.14939,0.0653 -0.22266,0.10156 -0.061,0.0302 -0.12108,0.0627 -0.18164,0.0937 0.013,0.03 0.0204,0.0626 0.0352,0.0918 0.0318,0.063 0.0976,0.077 0.17382,0.0801 -0.29986,-0.015 -0.64426,-0.0279 -0.11718,0.082 -0.40837,0.0971 -0.80888,0.21902 -1.21289,0.33203 -0.0781,0.0363 -0.1363,0.0692 -0.25782,0.11523 -0.0945,0.0358 -0.24736,0.17252 -0.29296,0.082 -0.0591,-0.11685 -0.10293,-0.24027 -0.14649,-0.36329 -0.5302,0.14449 -1.06232,0.2799 -1.60351,0.38477 -0.0111,-6.8e-4 -0.0221,-0.002 -0.0332,-0.002 V 439.56836 H 433.58008 V 145.23047 Z m 16.55664,59.98828 c -0.007,-0.0535 0.003,0.0145 -0.0371,-0.20117 -0.0111,-0.0602 0.0164,0.12094 0.0254,0.18164 0.004,0.006 0.008,0.0132 0.0117,0.0195 z m 0.0234,0.0371 c -2.2e-4,-0.006 1.8e-4,-0.0117 0,-0.0176 -0.007,-0.005 -0.0129,-0.0111 -0.0195,-0.0156 0.007,0.0108 0.0126,0.0225 0.0195,0.0332 z m 0.59375,-9.92969 c -0.012,-0.009 -0.0192,-0.0206 -0.0312,-0.0293 0.0256,0.0565 0.049,0.11439 0.0801,0.16796 0.0246,0.0425 -0.023,-0.0864 -0.0488,-0.13867 z m -0.0312,-0.0293 c -6e-4,-0.001 -4.5e-4,-0.003 -0.002,-0.004 -0.008,-0.005 -0.0253,-0.0215 -0.0195,-0.0156 0.007,0.007 0.0133,0.0137 0.0215,0.0195 z m -7.30859,-5.47657 c -0.014,-0.0152 -0.0294,-0.0293 -0.043,-0.0449 -0.002,-0.002 -0.002,-0.004 -0.004,-0.006 -0.1666,0.0203 -0.61003,0.23376 -0.8457,0.2832 0.17411,0.041 0.30498,0.25883 0.48242,0.23633 0.15328,-0.0195 0.2123,-0.22553 0.31836,-0.33789 0.0617,-0.0654 0.0804,-0.10132 0.0918,-0.13086 z m 0.16015,5.26367 c -0.006,0.003 -0.0118,0.006 -0.0176,0.01 0.0218,-0.004 0.0433,-0.008 0.0645,-0.0137 0.0153,-0.004 -0.0249,-0.001 -0.0469,0.004 z m -0.0176,0.01 c -0.004,6.7e-4 -0.008,0.003 -0.0117,0.004 -0.0899,0.0496 -0.26439,0.15848 -0.19727,0.12109 0.071,-0.0395 0.13947,-0.083 0.20898,-0.125 z m -6.27539,0.92578 c -0.0163,-0.11277 -0.0317,-0.24581 -0.0527,-0.30664 -0.0735,-0.0173 -0.24428,-0.0431 -0.47656,-0.0879 -0.021,0.009 -0.058,0.009 -0.0566,0.0254 0.01,0.10469 0.0272,0.1822 0.041,0.27344 0.19043,0.11462 0.37851,0.23015 0.55078,0.36914 -0.0178,-0.1292 -0.0143,-0.19951 -0.006,-0.27344 z m 12.99415,-1.42969 c 0.003,0.006 0.005,0.0132 0.008,0.0195 -0.003,-0.004 -1.9e-4,-0.0151 -0.004,-0.0176 -10e-4,-9e-4 -0.003,-8.8e-4 -0.004,-0.002 z m -1.16993,0.12891 c -0.005,0.003 -0.0107,0.007 -0.0156,0.01 0.0424,0.0525 0.0856,0.10428 0.1289,0.15625 0.0472,0.0704 0.0918,0.14303 0.14258,0.21093 0.0843,0.11263 0.38786,0.34074 0.34766,0.47071 -0.0356,0.11511 -0.0828,0.22409 -0.13086,0.33007 0.04,0.0513 0.0685,0.0612 0.11914,0.14844 0.0199,0.0343 0.0381,0.0695 0.0586,0.10352 0.004,-0.003 0.004,-0.002 0.008,-0.006 -8.3e-4,0.0211 5.6e-4,0.002 0,0.0195 0.009,0.0158 0.0223,0.0295 0.0273,0.0469 0.007,0.0219 -0.0395,0.3387 -0.0273,-0.0469 -0.003,-0.005 -0.005,-0.009 -0.008,-0.0137 -0.17874,0.15843 -0.23641,0.21305 -0.33203,0.30078 0.002,0.002 0.002,0.004 0.004,0.006 0.3476,-0.28727 0.25892,-0.20547 0.01,0.0176 0.24213,0.32136 0.14321,0.35549 -0.28515,0.59179 -0.0108,0.0784 -0.0308,0.13529 -0.0469,0.20117 0.12135,0.27055 0.23699,0.54295 0.36133,0.8125 0.06,0.13 0.13386,0.25262 0.19336,0.38282 0.002,0.003 -0.006,-1.1e-4 -0.01,0 0.30819,0.36191 0.65974,0.67819 0.98046,1.02929 0.0777,0.0851 0.15821,0.17078 0.22071,0.26758 0.048,0.0744 0.0845,0.15504 0.12695,0.23242 0.0125,-8.7e-4 0.0245,-0.006 0.0371,-0.006 0.43604,-3e-5 0.87305,0.43159 0.87305,1.29492 v 0.0371 c 0.0809,0.0694 0.16384,0.13691 0.23046,0.2207 0.002,-0.0229 0.0127,-0.0432 0.0527,-0.0566 0.0142,-0.005 0.029,0.0106 0.043,0.0156 0.007,0.0125 0.0155,0.0242 0.0215,0.0371 6.6e-4,6.7e-4 3e-5,0.002 0,0.004 v 0.002 c 0.006,0.007 0.0138,0.0129 0.0195,0.0195 0.0238,0.029 0.0466,0.0588 0.0703,0.0879 0.0402,0.0503 0.0697,0.0943 0.10156,0.13477 h 0.002 c 0.0122,-0.0113 0.037,0.004 0.0586,0.0117 -0.017,-0.0329 -0.0362,-0.0643 -0.0527,-0.0977 -0.0184,-0.0616 -0.0382,-0.12394 -0.0566,-0.18554 0.0143,-0.10434 0.0715,-0.21111 0.043,-0.3125 -0.0197,-0.07 -0.0123,0.16397 -0.0723,0.20507 -0.0446,0.0306 -0.13653,-0.37897 -0.14453,-0.42187 -0.0886,-0.16985 -0.14817,-0.35389 -0.21094,-0.53516 0.10769,0.0669 0.23078,0.10662 0.34571,0.16016 -0.6121,-0.49736 -0.47534,-0.40441 -0.68555,-0.94727 -0.003,-0.008 -0.008,-0.0251 -0.0117,-0.0351 -0.17864,-0.16582 -0.19751,-0.41055 -0.24609,-0.63477 -0.0249,-0.11493 -0.0407,-0.16905 -0.0742,-0.29687 -0.0133,-0.0486 -0.0178,-0.10179 -0.041,-0.14649 -0.005,-0.009 -0.0243,0.004 -0.0273,0.0137 -0.004,0.0108 0.0177,0.0432 0.0117,0.0332 -0.0745,-0.11274 -0.1566,-0.22083 -0.2168,-0.3418 -0.0451,-0.0906 -0.0902,-0.3813 -0.10547,-0.4668 -0.005,-0.0371 -0.0102,-0.0742 -0.0156,-0.11132 l -0.0117,-0.0117 c -0.0113,-0.0124 -0.002,-0.0652 0.002,-0.0488 0.004,0.02 0.007,0.0403 0.01,0.0605 0.0777,0.0848 0.26872,0.28997 0.22656,0.19726 -0.0824,-0.18153 -0.25823,-0.30474 -0.35937,-0.47656 -0.037,-0.063 -0.0285,-0.14415 -0.0469,-0.21485 -0.0119,-0.046 -0.0303,-0.0896 -0.0449,-0.13476 -0.007,-0.016 -0.0108,-0.0349 -0.0215,-0.0488 -0.0111,-0.0145 -0.0269,-0.0236 -0.041,-0.0352 -0.0171,-0.0179 -0.0376,-0.0332 -0.0527,-0.0527 -0.0991,-0.12858 -0.16247,-0.24935 -0.22657,-0.39648 -0.054,-0.19374 -0.13516,-0.37611 -0.20117,-0.56446 -0.0131,-0.006 -0.0203,0.006 -0.0391,-0.0176 -0.0356,-0.0451 -0.0691,-0.0921 -0.0996,-0.14062 -0.27264,-0.21726 -0.63846,-0.79773 -0.91602,-1.06836 z m 0.33203,1.75391 c -0.005,-0.006 -0.005,-0.0113 -0.01,-0.0176 -0.0137,0.0113 0.007,-0.007 -0.008,0.006 -0.10427,0.0864 -0.15642,0.14267 -0.22852,0.21094 -5.5e-4,0.007 -7.5e-4,0.014 -0.002,0.0215 0.0853,-0.076 0.18106,-0.16111 0.24804,-0.2207 z m 0.14063,-0.57618 c -0.22722,-0.29109 -0.30388,-0.0657 -0.3457,0.31641 0.0323,0.0368 0.0653,0.0729 0.0976,0.10938 0.0817,-0.12754 0.16309,-0.23845 0.24805,-0.42579 z m -5.44922,-0.89843 c -0.007,4.8e-4 -0.0169,0.008 -0.0254,0.0117 0.041,-0.002 0.0821,-0.002 0.12305,-0.004 -0.0324,-0.004 -0.0652,-0.01 -0.0977,-0.008 z m 6.41406,0.0273 c 0.0156,0.0181 0.0323,0.0354 0.0488,0.0527 -0.001,-0.004 -9e-5,-0.007 -0.002,-0.01 -0.009,-0.0195 -0.0608,-0.0591 -0.0469,-0.043 z m -7.62695,0.375 c -0.0254,0.01 -0.0392,0.006 -0.0723,0.0234 -0.12939,0.11858 -0.0684,0.0705 0.0723,-0.0234 z m 3.11719,0.69336 c -0.11821,0.10106 -0.16749,0.15339 -0.22657,0.21289 0.0516,-0.0321 0.0552,-0.0305 0.1543,-0.0879 0.0415,-0.024 0.10846,-0.1561 0.0723,-0.125 z m -1.87305,0.45898 c -0.0313,-0.006 0.0585,0.0246 0.0879,0.0371 0.0267,0.001 0.0533,0.003 0.0801,0.004 -0.0558,-0.0146 -0.11139,-0.03 -0.16797,-0.041 z m 2.63477,0.43946 c 0.003,0.0312 0.005,0.0611 0.0137,0.0898 0.002,0.007 0.0145,-0.007 0.0215,-0.01 -0.0113,-0.0267 -0.0238,-0.0533 -0.0351,-0.0801 z m -13.21485,2.07031 v 0.375 c 0.0166,-0.0339 0.0411,-0.0692 0.0449,-0.0957 0.0135,-0.0933 -0.01,-0.18829 -0.0449,-0.2793 z m 18.78516,2.83203 c 0.035,0.0639 0.0558,0.10816 0.0586,0.12891 l 0.006,-0.006 c 0.008,-0.006 0.0396,0.0105 0.0547,0.0234 -0.0176,-0.0203 -0.0241,-0.0297 -0.0508,-0.0606 -0.0219,-0.0264 -0.0446,-0.0579 -0.0684,-0.0859 z m 0.1289,0.16602 c -0.003,0.0103 -0.004,0.0212 -0.008,0.0312 10e-4,0.005 6e-4,0.0155 0.002,0.0254 0.005,-0.007 0.008,-0.008 0.0117,-0.0117 -1e-5,-0.0112 7.2e-4,-0.0221 0,-0.0332 -0.001,-0.003 -0.002,-0.005 -0.004,-0.008 -7.3e-4,-0.002 -5.4e-4,-0.002 -0.002,-0.004 z m -0.0156,0.0586 c 0.002,2.6e-4 0.004,0.002 0.006,0.002 10e-4,-0.001 0.003,1.9e-4 0.004,-0.002 -0.005,-3.1e-4 -0.005,-7.8e-4 -0.01,0 z m 0.01,0 c 9e-5,0.002 -9e-5,0.002 0,0.004 0.005,0.001 0.0104,-6.5e-4 0.0156,0.002 9e-4,-0.002 0.003,-0.002 0.004,-0.004 0.003,-0.006 -0.0103,-5e-4 -0.0195,-0.002 z m -3.27539,0.94727 c -6.5e-4,-0.12273 -0.016,0.0844 -0.0469,0.42382 0.0263,0.0246 0.0535,0.0483 0.082,0.0703 -0.0169,-0.19185 -0.0347,-0.40311 -0.0351,-0.49414 z m -0.01,0.5957 c 0.0191,0.0328 0.0376,0.0658 0.0586,0.0977 -0.004,-0.0247 -8.1e-4,-0.0377 -0.004,-0.0625 -0.0181,-0.0119 -0.0371,-0.0223 -0.0547,-0.0352 z m 3.54687,0.85742 c -0.0294,5.8e-4 -0.06,0.0145 -0.0898,0.0195 0.006,0.0135 0.0101,0.0275 0.0156,0.041 0.0372,-0.0152 0.074,-0.0319 0.11132,-0.0469 -0.0122,-0.005 -0.0249,-0.008 -0.0371,-0.0137 z m -0.14257,0.0293 c -0.012,0.004 -0.0229,7.9e-4 -0.0352,0.008 -0.0597,0.0332 -0.10421,0.0873 -0.15625,0.13086 0.0749,-0.0326 0.14971,-0.0631 0.22461,-0.0937 -0.0141,-0.0159 -0.007,-0.0177 -0.0332,-0.0449 z" />
    </clipPath>
    <clipPath
       clipPathUnits="userSpaceOnUse"
       id="clipPath2200">
      <path
         id="path2202"
         style="fill:#ff0000;fill-opacity:1;fill-rule:nonzero;stroke:none"
         d="M 173.48633,145.75195 V 438.375 H 298.59766 V 208.23047 c -0.35019,-0.0357 -0.69376,-0.0767 -1.04297,-0.16016 -0.30531,-0.073 -0.59163,-0.21792 -0.9043,-0.26562 -0.12602,-0.0297 -0.25532,-0.0437 -0.38281,-0.0664 -0.11232,-0.0263 -0.21464,-0.0601 -0.32422,-0.0879 -0.0205,0.004 -0.0399,0.0127 -0.0605,0.0156 -0.0667,0.01 -0.13186,-0.0229 -0.19726,-0.0391 -0.0394,-0.01 -0.0772,-0.0246 -0.11524,-0.0391 -0.0122,-0.005 -0.0412,-0.008 -0.0351,-0.0195 0.007,-0.014 0.0278,-0.0123 0.043,-0.0176 -0.006,-0.002 -0.0118,-0.002 -0.0176,-0.004 -0.32494,0.085 -0.84963,-0.0827 -1.12696,-0.14454 -0.0332,-0.008 -0.0663,-0.0173 -0.0996,-0.0254 -0.16826,-0.007 -0.28922,-0.0389 -0.37695,-0.0918 -0.0254,-0.006 -0.0509,-0.013 -0.0762,-0.0195 -0.1002,-0.026 -0.43605,-0.13007 -0.53125,-0.14257 -0.0865,-0.0113 -0.17452,0 -0.26172,0 h -0.71875 v -0.002 c -0.79366,0 -1.20548,-0.37129 -1.26953,-0.76953 -0.0249,-0.0101 -0.0505,-0.0149 -0.0762,-0.0273 -0.0818,9.5e-4 -0.24672,-0.0292 -0.36524,-0.0684 -0.0154,0.0229 -0.0315,0.0454 -0.0469,0.0684 -0.31539,0.47095 -0.417,0.29926 -0.44922,-0.0742 -0.007,5e-5 -0.0143,-9e-5 -0.0215,0 -0.0941,0.002 -0.1891,8e-5 -0.2832,0 -0.10001,-3e-5 -0.20077,3e-5 -0.30078,0 -0.0117,0 -0.0242,0.004 -0.0352,0 -0.0828,-0.0303 -0.16274,-0.0662 -0.24609,-0.0957 -0.10563,0.0101 -0.20823,0.0159 -0.31445,0.01 -0.0454,-0.003 -0.0972,-0.0126 -0.0391,-0.004 -0.36355,0.0195 -0.57188,-0.19151 -0.76954,-0.41407 -0.0935,-0.0259 -0.18753,-0.0493 -0.28125,-0.0742 -0.0615,-0.067 -0.14314,-0.12078 -0.18554,-0.20118 -0.0223,-0.0423 -0.0294,-0.0908 -0.0488,-0.13476 -0.0127,-0.004 -0.0265,-0.006 -0.0391,-0.01 -0.18001,-0.34344 -0.18918,-0.49314 -0.14258,-0.82226 0.002,-0.0169 -0.007,0.032 -0.01,0.0488 -0.006,-0.23383 -0.006,-0.46723 -0.004,-0.70117 0.002,-0.18423 0.0392,-0.22973 0.13867,-0.33789 0.0112,-0.0285 0.0206,-0.0653 0.0312,-0.082 10e-4,-0.002 0.003,-0.002 0.004,-0.004 8.2e-4,-0.043 -9.1e-4,-0.086 0.002,-0.1289 0.0509,-0.86183 0.52124,-1.26418 0.96093,-1.23633 0.43971,0.0279 0.84832,0.48514 0.7793,1.3457 -10e-4,0.0118 -0.003,0.0599 -0.004,0.002 -0.0173,-0.0808 1.6e-4,0.0434 0.0117,0.1289 0.043,0.0224 0.0855,0.0374 0.12891,0.0664 0.0872,0.0581 0.17702,0.11213 0.26172,0.17383 0.0956,0.0696 0.189,0.1443 0.2793,0.2207 0.0318,0.0269 0.0602,0.0566 0.0898,0.0859 -0.15178,-0.0604 -0.61035,-0.20626 -0.46094,-0.14649 0.1517,0.0607 0.31085,0.10341 0.4668,0.15235 0,0 0.002,0 0.002,0 0.0163,0.005 0.0326,0.0103 0.0488,0.0156 0.13546,0.10512 0.23894,0.2486 0.32422,0.40235 0.0115,0.002 0.0373,-0.002 0.0449,0 0.0163,-0.004 0.0326,-0.004 0.0488,-0.008 0.0226,-0.33708 0.2729,-0.62908 0.66992,-0.70507 0.27365,-0.0524 0.61519,-0.002 0.99414,0.20507 0.45012,0.24551 0.51377,0.26723 0.94141,0.55078 0.08,0.053 0.15202,0.11743 0.23242,0.16993 0.25254,0.16487 0.0437,0.0108 0.21289,0.10351 0.15077,0.0826 0.29793,0.16881 0.44727,0.25391 0.34908,0.21172 0.2987,0.18853 0.66601,0.38281 0.0665,0.0352 0.13047,0.0759 0.20117,0.10156 0.0795,0.0289 0.16188,0.0496 0.24219,0.0762 0.0768,3.2e-4 0.15355,-3e-4 0.23047,0 0.18921,-9.5e-4 0.37935,-0.008 0.56836,0.002 0.0111,0.001 0.0155,0.004 0.0332,0.004 0.002,3e-5 0.002,-1e-5 0.004,0 0.0444,-0.003 0.0885,-0.006 0.13281,-0.01 0.29833,-0.0252 0.10295,-0.0154 0.50195,-0.0234 0.0586,0.1454 0.0979,0.30338 0.14063,0.45899 0.006,9.6e-4 0.0117,0.003 0.0176,0.004 0.0592,-0.039 0.15871,-0.0663 0.30468,-0.0781 -0.064,-0.0636 -0.1302,-0.12606 -0.1875,-0.19141 -0.0416,0.004 -0.0834,0.0102 -0.125,0.008 -0.0166,-0.001 0.0283,-0.0204 0.0449,-0.0215 0.0271,-0.002 0.0622,-0.007 0.0801,0.0137 0.0215,-0.002 0.043,-0.003 0.0645,-0.004 0.14694,-0.006 0.34479,-0.0185 0.49609,-0.006 0.33836,0.0289 0.65895,0.14611 1.00391,0.10351 v 0.002 c 0.0305,-0.004 0.0507,0.004 0.0801,0.002 v -6.46485 c -0.0148,-0.0121 -0.0313,-0.023 -0.041,-0.0391 -0.005,-0.008 0.0363,0.0112 0.0293,0.006 -0.0268,-0.0235 -0.0566,-0.0455 -0.0899,-0.0586 -0.26323,-0.10418 -0.55189,-0.14585 -0.80468,-0.2793 -0.0672,-0.0377 -0.13389,-0.0757 -0.20118,-0.11328 0.0215,0.009 0.0457,0.027 0.0605,0.0254 0.2859,-0.032 1.12715,-0.18392 0.83984,-0.19922 -1.92158,-0.10253 -0.57411,0.34941 -1.0625,0.15039 -0.34597,-0.1065 0.0747,0.006 -0.51953,-0.0508 -0.19665,-0.0188 -0.39246,-0.048 -0.58593,-0.0879 -0.24994,-0.0515 -0.42899,-0.23394 -0.70899,-0.17774 -0.16442,-0.045 -0.33263,-0.0803 -0.49414,-0.13476 -0.27845,-0.094 -0.51687,-0.28792 -0.81836,-0.32422 -0.15822,-0.0501 -0.32108,-0.0861 -0.48242,-0.125 -0.73291,-0.17665 -0.57391,-0.14 -1.20313,-0.24609 -0.20899,-0.0271 -0.41686,-0.0656 -0.62695,-0.082 -0.13767,-0.0107 -0.27598,2e-5 -0.41406,0 h -1.93945 c -1.03151,0 -1.43337,-0.61988 -1.23243,-1.12109 -0.18361,0.009 -0.36726,0.0191 -0.55078,0.0293 v 0.002 c -0.88676,0.0493 -1.33435,-0.38684 -1.33398,-0.83594 -0.31971,-0.0163 -0.63586,-0.0564 -0.94922,-0.0586 -0.0595,0.11251 -0.11574,0.2266 -0.17383,0.33984 -0.28382,0.49896 -0.59678,0.98479 -0.95312,1.43555 -0.0838,0.10596 -0.17152,0.20805 -0.26172,0.30859 -0.0406,0.0453 -0.043,0.0419 -0.0645,0.0606 -2.9e-4,0.004 5.5e-4,1.6e-4 0,0.006 -0.18655,1.71655 -2.02225,1.42117 -1.72265,-0.2793 0.0426,-0.24179 0.0951,-0.49065 0.25195,-0.6875 0.12905,-0.15386 0.27308,-0.29215 0.39844,-0.44922 0.0752,-0.0942 0.14207,-0.19507 0.21289,-0.29296 -0.52311,0.17273 -1.82858,1.62774 -1.57813,0.375 0.0523,-0.26136 0.0609,-0.3744 0.13282,-0.48047 0.0299,-0.12791 0.0564,-0.25706 0.0937,-0.38281 0.13694,-0.45582 0.37708,-1.07507 0.56836,-1.48438 0.0555,-0.11873 0.13681,-0.22409 0.20507,-0.33594 0.28891,-0.47311 0.17765,-0.30199 0.41016,-0.65039 0.0941,-0.1148 0.1844,-0.23297 0.2832,-0.34375 0.13349,-0.14963 0.25617,-0.22295 0.38086,-0.38476 0.0392,-0.0509 0.0659,-0.11113 0.0918,-0.16993 0.17405,-0.39508 0.13696,-0.33921 0.22656,-0.78711 0.16932,-0.84656 0.6818,-1.18512 1.10938,-1.0996 0.36571,0.0731 0.64865,0.47227 0.62304,1.11132 0.55258,-0.0539 1.03139,0.53282 0.69141,1.52539 -0.10758,0.31408 -0.2014,0.63223 -0.29883,0.94922 -0.0485,0.007 -0.22354,0.0125 0.52149,0.043 0.24464,0.01 0.48957,0.009 0.73437,0.0137 0.96088,-3e-4 0.55169,-0.0111 1.97266,0.0801 0.36266,0.0232 0.72691,0.0382 1.08789,0.0801 1.20408,0.1399 2.34793,0.37899 3.52539,0.64844 0.53603,0.18529 1.09859,0.23463 1.65625,0.30273 0.178,0.0217 0.35588,0.0475 0.5332,0.0742 0.10358,0.0156 0.20437,0.0422 0.3086,0.0527 0.0758,0.008 0.15231,5.5e-4 0.22851,0.002 0.009,-7.7e-4 0.0181,-6.2e-4 0.0274,-0.002 v -0.002 c 0.005,-0.0295 0.11974,-0.0107 0.0898,-0.008 -0.0295,0.005 -0.0601,0.008 -0.0898,0.01 -0.003,0.0198 -0.0136,0.0424 -0.0176,0.0625 0.2115,-0.12639 0.41331,-0.18619 0.54883,-0.0293 0.23565,0.27281 0.36339,0.48867 0.44922,0.68164 -0.017,-0.10899 -0.0272,-0.21893 -0.041,-0.32813 0.0895,0.0503 0.17138,0.11645 0.26758,0.15235 0.20385,0.0761 0.45153,0.11105 0.69922,0.13281 v -50.2168 z m 114.1289,57.67578 c -2.5e-4,0.0137 -1.1e-4,0.0274 0,0.041 0.0109,-0.0121 0.0358,-0.0454 0.0488,-0.0606 0.005,-0.0246 0.0174,-0.0368 0.0254,-0.0586 -0.0235,0.0269 -0.0545,0.0482 -0.0742,0.0781 z m 0.0742,-0.0781 c 0.034,-0.0389 0.0693,-0.0775 0.10743,-0.11328 0.0109,-0.0145 0.0156,-0.0173 0.0273,-0.0332 -0.0274,0.0185 -0.0603,0.0267 -0.0859,0.0469 -0.0239,0.0188 -0.0348,0.0615 -0.0488,0.0996 z m 0.10743,-0.11328 c -0.0551,0.073 -0.0965,0.12984 -0.13282,0.17187 -0.0133,0.0598 -0.0196,0.12452 -0.0234,0.17578 0.1074,-0.14227 0.20513,-0.291 0.29688,-0.44531 -0.0343,0.0195 -0.0688,0.0349 -0.10156,0.0566 -0.0139,0.0129 -0.0252,0.0281 -0.0391,0.041 z m -0.18165,0.23242 c -0.008,0.009 -0.0283,0.0373 -0.0351,0.0449 -0.0421,0.10726 -0.0791,0.25116 -0.0293,0.19531 0.0274,-0.0307 0.047,-0.0672 0.0723,-0.0996 -0.003,-0.0237 -0.004,-0.0224 -0.01,-0.0762 -0.001,-0.0215 0.002,-0.043 0.002,-0.0644 z m 2.15625,0.82031 c -0.12016,0.0375 -0.4774,0.0626 -0.36132,0.11133 0.002,7.9e-4 0.004,0.001 0.006,0.002 0.0883,0.002 0.17903,0.012 0.2871,0.0586 0.005,0.002 0.009,0.007 0.0137,0.01 0.0526,0.0103 0.10289,0.0277 0.15625,0.0352 0.026,2e-5 0.0521,6e-5 0.0781,0 -0.0592,-0.0732 -0.11662,-0.14767 -0.17969,-0.2168 z m 0.19532,0.34766 c 0.0394,0.0301 0.0813,0.0561 0.12304,0.082 0.0305,0.0189 -0.0485,-0.0576 -0.082,-0.0703 -0.0178,-0.007 -0.0238,-0.006 -0.041,-0.0117 z m -2.08789,0.76172 c 0.0456,0.0886 0.0989,0.17227 0.17187,0.24023 0.13224,0.12312 0.68968,0.12231 0.54102,0.0195 -0.20892,-0.1443 -0.46192,-0.19948 -0.71289,-0.25976 z m 2.9414,0.80859 c 0.003,0.003 0.007,0.006 0.01,0.01 0.003,-3.6e-4 0.005,3.8e-4 0.008,0 -0.006,-0.004 -0.0114,-0.006 -0.0176,-0.01 z m 0.0293,0.0156 c -0.002,2.7e-4 -0.009,0.002 -0.0117,0.002 0.003,0.003 0.005,0.007 0.008,0.01 0.013,0.003 0.0261,0.006 0.0391,0.01 -0.0113,-0.007 -0.0231,-0.0142 -0.0352,-0.0215 z" />
    </clipPath>
  </defs>
  <sodipodi:namedview
     pagecolor="#ffffff"
     bordercolor="#666666"
     borderopacity="1"
     objecttolerance="10"
     gridtolerance="10"
     guidetolerance="10"
     inkscape:pageopacity="0"
     inkscape:pageshadow="2"
     inkscape:window-width="1426"
     inkscape:window-height="1041"
     id="namedview1140"
     showgrid="false"
     inkscape:zoom="9.5017474"
     inkscape:cx="44.532958"
     inkscape:cy="34.150704"
     inkscape:window-x="1844"
     inkscape:window-y="71"
     inkscape:window-maximized="0"
     inkscape:current-layer="svg1138"
     inkscape:document-rotation="0" />
  <path
     d="M 53.216211,43.06626 47.639237,38.41872 C 47.43856,38.251421 47.30439,38.017491 47.261379,37.759809 l -0.755461,-4.532762 c -0.13648,-0.819398 -0.611276,-1.55367 -1.302539,-2.01447 l -2.340848,-1.560611 c -0.07639,-0.05085 -0.157537,-0.0886 -0.240735,-0.115295 l 0.04032,-0.120947 c 0.417531,-1.252462 0.62925,-2.55706 0.62925,-3.877447 v -1.605929 c 0,-0.955497 -0.437432,-1.833441 -1.200339,-2.408768 -0.270651,-0.204143 -0.567108,-0.357442 -0.877561,-0.459901 -0.06535,-1.023158 -0.281693,-2.002661 -0.625783,-2.915015 l 2.983193,-2.983196 c 0.447319,-0.447319 0.738769,-1.013656 0.842639,-1.637383 L 45.26835,8.399453 c 0.0226,-0.135711 0.06997,-0.264231 0.140718,-0.382092 L 48.289803,3.2161332 C 48.563407,2.7600793 48.415499,2.1685802 47.959578,1.8949722 47.503272,1.6212436 46.912026,1.7692809 46.638421,2.2251981 l -2.880736,4.8012273 c -0.195542,0.3259928 -0.326373,0.6813813 -0.3889,1.0564126 l -0.854836,5.128887 c -0.03762,0.225583 -0.1429,0.430369 -0.304803,0.592147 l -2.527273,2.527267 c -0.920958,-1.44749 -2.201543,-2.618811 -3.7054,-3.371832 0.08191,-0.323808 0.124925,-0.65788 0.124925,-0.9944 0,-0.142131 -0.0076,-0.282588 -0.02195,-0.421128 l 0.625271,-0.312632 c 0.777543,-0.388774 1.419889,-1.03112 1.808661,-1.80866 L 39.08113,8.286855 C 39.319042,7.8111641 39.1262,7.2327529 38.650503,6.9949701 38.174681,6.7569309 37.596403,6.9498941 37.35862,7.4256003 L 36.79087,8.561226 c -0.20363,0.407261 -0.540147,0.74365 -0.947406,0.947411 L 35.41964,9.720484 C 34.69345,8.635956 33.457418,7.9204221 32.057043,7.9204221 c -1.400374,0 -2.636406,0.7155339 -3.362594,1.8000619 L 28.270626,9.508637 C 27.863364,9.305007 27.526977,8.968487 27.323219,8.561226 L 26.755468,7.4256003 C 26.517686,6.9499027 25.939279,6.757062 25.463585,6.9949701 24.987892,7.2327529 24.795047,7.8111641 25.032958,8.286855 l 0.56775,1.135632 c 0.388772,0.77754 1.031118,1.419886 1.808662,1.80866 l 0.625271,0.312632 c -0.01438,0.138409 -0.02195,0.278872 -0.02195,0.421128 0,0.336389 0.04288,0.670592 0.124925,0.9944 -1.503858,0.753021 -2.784442,1.924342 -3.7054,3.371832 L 21.90494,13.803872 C 21.743166,13.642094 21.637755,13.437308 21.600136,13.211594 L 20.745302,8.082838 C 20.682778,7.707932 20.551942,7.3525435 20.356404,7.0265565 L 17.475666,2.2249417 C 17.202064,1.7690246 16.610559,1.6209881 16.154511,1.8947158 15.698462,2.1683248 15.55055,2.7598229 15.824284,3.2158711 l 2.880738,4.8012329 c 0.07074,0.117862 0.117992,0.246381 0.140719,0.382093 l 0.85483,5.128631 c 0.103869,0.623984 0.395323,1.190195 0.842643,1.637509 l 2.983192,2.983196 c -0.344092,0.912359 -0.560433,1.891988 -0.625784,2.915146 -0.310453,0.102328 -0.606911,0.255628 -0.877561,0.459777 -0.762777,0.57532 -1.200338,1.453271 -1.200338,2.408767 v 1.605928 c 0,1.320389 0.211716,2.624849 0.629249,3.877318 l 0.04032,0.121071 c -0.0832,0.02673 -0.16447,0.06433 -0.240732,0.115301 l -2.340849,1.560605 c -0.691265,0.4608 -1.166057,1.195078 -1.302543,2.014476 l -0.755456,4.532756 c -0.04287,0.257688 -0.177052,0.491743 -0.377859,0.658911 L 10.89775,43.06626 c -0.408546,0.340497 -0.463752,0.947667 -0.123262,1.356207 0.190407,0.228543 0.464397,0.346535 0.740316,0.346535 0.217366,0 0.436019,-0.07319 0.615892,-0.223148 l 5.576976,-4.647546 c 0.55491,-0.462467 0.925838,-1.109433 1.044598,-1.821883 l 0.755463,-4.532763 c 0.04941,-0.296455 0.221087,-0.561972 0.471071,-0.728621 l 2.132337,-1.42156 0.235343,0.706156 c 0.351924,1.055895 0.530389,2.155451 0.530389,3.268481 v 1.759747 l -1.529538,1.019687 c -1.002098,0.668027 -1.510405,1.865283 -1.294837,3.050216 l 1.772584,9.749597 -1.834466,6.420767 c -0.129549,0.453226 -0.195157,0.921981 -0.195157,1.393314 v 1.47882 c 0,0.531803 0.431142,0.962939 0.962945,0.962939 0.531796,0 0.962938,-0.431136 0.962938,-0.962939 v -1.47882 c 0,-0.292221 0.0407,-0.583032 0.121073,-0.864209 l 1.896226,-6.636596 c 0.04058,-0.142006 0.04802,-0.291579 0.02144,-0.436793 l -1.812779,-9.970555 c -0.07793,-0.428577 0.105924,-0.861511 0.468375,-1.103278 l 0.461185,-0.3075 v 1.155663 c 0,2.329935 1.577813,4.352109 3.837388,4.919094 0.0017,3.81e-4 0.0033,0.0012 0.005,0.0012 0.302236,0.07562 0.541559,0.297104 0.640035,0.592791 l 0.215443,0.646324 c 0.400456,1.201109 1.356721,2.157374 2.557958,2.557828 0.620521,0.20684 1.272368,0.310197 1.924216,0.310197 0.651847,0 1.303823,-0.103357 1.924214,-0.310197 v 0 c 1.201109,-0.400454 2.157376,-1.356719 2.557831,-2.557954 l 0.215442,-0.646198 c 0.09848,-0.295561 0.3378,-0.517167 0.640035,-0.592791 0.0014,-3.81e-4 0.0029,-5.95e-4 0.0045,-0.0012 2.259832,-0.566723 3.837901,-2.589028 3.837901,-4.919094 v -1.155656 l 0.461185,0.307499 c 0.362452,0.241636 0.54631,0.674701 0.468376,1.103272 l -1.812771,9.97056 c -0.02645,0.14534 -0.019,0.294789 0.02144,0.436788 l 1.896226,6.636596 c 0.08025,0.281183 0.121073,0.571988 0.121073,0.864209 v 1.478826 c 0,0.531797 0.431141,0.962939 0.962942,0.962939 0.531801,0 0.962943,-0.431142 0.962943,-0.962939 v -1.478826 c 0,-0.471196 -0.06561,-0.939957 -0.195157,-1.393314 l -1.834497,-6.420767 1.772582,-9.749591 c 0.215443,-1.184933 -0.292862,-2.38219 -1.294835,-3.050215 l -1.529537,-1.019694 v -1.759741 c 0,-1.112905 0.178465,-2.212586 0.530387,-3.268487 l 0.235344,-0.706156 2.132339,1.42156 c 0.249979,0.166655 0.421768,0.432297 0.47107,0.728627 l 0.75546,4.532763 c 0.118763,0.712444 0.489689,1.359417 1.0446,1.821883 l 5.576975,4.64754 c 0.180005,0.149966 0.39853,0.223148 0.615898,0.223148 0.275914,0 0.549775,-0.117992 0.740309,-0.346529 0.340753,-0.408802 0.285544,-1.015966 -0.123,-1.356339 z M 29.938566,11.964651 c 0,-1.168112 0.950361,-2.11847 2.118473,-2.11847 1.168113,0 2.118472,0.950358 2.118472,2.11847 0,0.107977 -0.0092,0.215312 -0.02542,0.321366 -0.672775,-0.166399 -1.372898,-0.257169 -2.09305,-0.257169 -0.720152,0 -1.420275,0.09077 -2.093051,0.257169 -0.01618,-0.105923 -0.02542,-0.213258 -0.02542,-0.321366 z m -0.278353,2.427767 c 0.0088,-0.0029 0.01746,-0.0065 0.02619,-0.0095 0.74339,-0.276044 1.54045,-0.428065 2.370505,-0.428065 0.81298,0 1.594247,0.146115 2.324542,0.411501 0.0061,0.0024 0.01207,0.0042 0.0181,0.0066 2.671201,0.978985 4.643307,3.582011 4.884427,6.704385 L 35.003379,22.3004 h -5.893074 l -4.280598,-1.223067 c 0.239709,-3.101445 2.186649,-5.690729 4.830502,-6.684873 z m 2.396826,11.937141 c -0.168835,0 -0.740053,-0.04775 -1.003129,-0.661477 l -0.617951,-1.441846 h 3.242161 l -0.617952,1.441846 c -0.263077,0.613718 -0.834293,0.661477 -1.003129,0.661477 z m -7.254163,14.268487 v -2.948269 c 0,-0.0012 0,-0.0024 0,-0.0036 v -2.278063 c 0,-1.320388 -0.211718,-2.624848 -0.62925,-3.877448 L 23.278989,28.806663 C 22.927065,27.750894 22.748601,26.651345 22.748601,25.538309 V 23.93238 c 0,-0.34563 0.158178,-0.663145 0.434094,-0.87127 0.275914,-0.208125 0.624627,-0.27296 0.957035,-0.178081 l 4.131149,1.180312 1.012887,2.363444 c 0.350896,0.81863 1.007751,1.410516 1.810331,1.67449 v 15.76888 h -3.14561 c -0.0502,0 -0.09925,0.0047 -0.147394,0.01245 -0.191305,-0.09848 -0.394935,-0.177182 -0.60935,-0.231233 -0.002,-5.13e-4 -0.0041,-0.0012 -0.0062,-0.0018 -1.402943,-0.350624 -2.382704,-1.605534 -2.382704,-3.051744 z m 8.569413,6.890171 c -0.848031,0.282849 -1.782341,0.282849 -2.630501,0 -0.62925,-0.209793 -1.130108,-0.710652 -1.339901,-1.3399 l -0.117479,-0.35231 h 5.545133 l -0.117478,0.35231 c -0.209665,0.629248 -0.710652,1.130107 -1.339774,1.3399 z m 7.462672,-18.681585 -0.894637,2.683913 c -0.417533,1.252594 -0.629251,2.557185 -0.629251,3.877448 v 2.278063 c 0,0.0012 0,0.0024 0,0.0036 v 2.948274 c 0,1.44608 -0.979761,2.70099 -2.382704,3.051758 -0.0018,3.81e-4 -0.0037,5.95e-4 -0.0057,0.0012 -0.214672,0.05406 -0.418559,0.132758 -0.609864,0.231358 -0.04814,-0.0074 -0.09706,-0.01245 -0.147394,-0.01245 H 33.019845 V 28.101011 c 0.80258,-0.263975 1.459435,-0.85586 1.810331,-1.67449 l 1.012887,-2.363445 4.131149,-1.180312 c 0.332279,-0.09488 0.68112,-0.03007 0.957036,0.178082 0.275914,0.208126 0.434094,0.52564 0.434094,0.87127 v 1.605928 c 1.28e-4,1.113036 -0.178337,2.212586 -0.530388,3.268356 z"
     id="path2"
     style="stroke-width:0.928;stroke:#000000;stroke-opacity:1;fill:#ff8080;fill-opacity:1;stroke-miterlimit:4;stroke-dasharray:none" />
</svg>
