<?xml version="1.0" encoding="UTF-8" standalone="no"?>
<svg
   xmlns:dc="http://purl.org/dc/elements/1.1/"
   xmlns:cc="http://creativecommons.org/ns#"
   xmlns:rdf="http://www.w3.org/1999/02/22-rdf-syntax-ns#"
   xmlns:svg="http://www.w3.org/2000/svg"
   xmlns="http://www.w3.org/2000/svg"
   xmlns:sodipodi="http://sodipodi.sourceforge.net/DTD/sodipodi-0.dtd"
   xmlns:inkscape="http://www.inkscape.org/namespaces/inkscape"
   width=""
   height=""
   viewBox="0 0 23.191223 23.73665"
   version="1.1"
   id="svg8"
   inkscape:version="1.0.2-2 (e86c870879, 2021-01-15)"
   sodipodi:docname="dawn_stone.svg">
  <defs
     id="defs2" />
  <sodipodi:namedview
     id="base"
     pagecolor="#ffffff"
     bordercolor="#666666"
     borderopacity="1.0"
     inkscape:pageopacity="0.0"
     inkscape:pageshadow="2"
     inkscape:zoom="1.979899"
     inkscape:cx="-30.558232"
     inkscape:cy="36.836548"
     inkscape:document-units="mm"
     inkscape:current-layer="layer6"
     inkscape:document-rotation="0"
     showgrid="false"
     inkscape:window-width="1920"
     inkscape:window-height="1001"
     inkscape:window-x="-9"
     inkscape:window-y="-9"
     inkscape:window-maximized="1" />
  <metadata
     id="metadata5">
    <rdf:RDF>
      <cc:Work
         rdf:about="">
        <dc:format>image/svg+xml</dc:format>
        <dc:type
           rdf:resource="http://purl.org/dc/dcmitype/StillImage" />
        <dc:title></dc:title>
      </cc:Work>
    </rdf:RDF>
  </metadata>
  <g
     inkscape:groupmode="layer"
     id="layer6"
     inkscape:label="Layer 6"
     transform="translate(-67.04092,-158.23104)">
    <path
       style="fill:#b1dccd;fill-opacity:1;stroke:#020000;stroke-width:0.865;stroke-linecap:butt;stroke-linejoin:miter;stroke-miterlimit:4;stroke-dasharray:none;stroke-opacity:1"
       d="m 85.927151,160.52876 c 3.526163,2.79243 6.581512,10.08942 0,17.20547 -6.789299,7.34071 -19.310223,3.50792 -18.408187,-6.84878 0.902034,-10.35669 12.387459,-15.1246 18.408187,-10.35669 z"
       id="path860"
       sodipodi:nodetypes="ssss" />
  </g>
  <g
     inkscape:groupmode="layer"
     id="layer5"
     inkscape:label="Layer 5"
     transform="translate(-67.04092,-158.23104)">
    <path
       style="fill:#25b6a0;fill-opacity:1;stroke:none;stroke-width:0.264583px;stroke-linecap:butt;stroke-linejoin:miter;stroke-opacity:1"
       d="m 83.721725,161.11235 c 7.200338,4.07082 5.465248,14.64053 -2.456844,18.04836 -8.457217,3.63803 -15.024555,-5.29166 -11.103052,-12.42597 3.921503,-7.13429 10.773795,-7.19755 13.559896,-5.62239 z"
       id="path857"
       sodipodi:nodetypes="ssss" />
  </g>
  <g
     inkscape:groupmode="layer"
     id="layer3"
     inkscape:label="Layer 3"
     transform="translate(-67.04092,-158.23104)">
    <path
       style="fill:#86ccc1;fill-opacity:1;stroke:none;stroke-width:0.264583px;stroke-linecap:butt;stroke-linejoin:miter;stroke-opacity:1"
       d="m 78.076109,160.76262 1.436574,6.1472 4.777443,-3.70837 -2.53906,6.01357 6.046972,1.33634 -5.646068,2.40543 1.670434,3.54132 -4.109268,-2.83974 -1.336349,6.44788 -1.46998,-5.54584 -4.87767,3.14041 2.53906,-5.27857 -4.409948,-0.70158 4.376539,-1.97111 -2.605878,-4.14268 4.510174,1.87089 z"
       id="path851" />
  </g>
  <g
     inkscape:groupmode="layer"
     id="layer4"
     inkscape:label="Layer 4"
     transform="translate(-67.04092,-158.23104)">
    <path
       style="fill:#bfe3e0;fill-opacity:1;stroke:none;stroke-width:0.264583px;stroke-linecap:butt;stroke-linejoin:miter;stroke-opacity:1"
       d="m 78.209745,166.34187 1.069078,1.43657 1.670434,-0.83521 -0.23386,2.03793 1.570209,1.20271 -1.637027,0.96885 0.100227,1.63703 -1.403165,-0.70159 -0.801809,2.30521 -1.069078,-1.93771 -1.269532,0.86863 0.400905,-2.13816 -1.236121,-0.60136 1.236121,-1.13589 -0.634765,-1.43658 1.469983,0.20046 z"
       id="path854" />
  </g>
  <g
     inkscape:groupmode="layer"
     id="layer2"
     inkscape:label="Layer 2"
     transform="translate(-67.04092,-158.23104)">
    <ellipse
       style="fill:#ffffff;fill-opacity:1;stroke:#a2d7d4;stroke-width:0.71062;stroke-opacity:1"
       id="path848"
       cx="76.7528"
       cy="163.61646"
       rx="1.8934473"
       ry="2.1060588" />
  </g>
</svg>
