<?xml version="1.0" encoding="UTF-8" standalone="no"?>
<svg
   xmlns:dc="http://purl.org/dc/elements/1.1/"
   xmlns:cc="http://creativecommons.org/ns#"
   xmlns:rdf="http://www.w3.org/1999/02/22-rdf-syntax-ns#"
   xmlns:svg="http://www.w3.org/2000/svg"
   xmlns="http://www.w3.org/2000/svg"
   xmlns:sodipodi="http://sodipodi.sourceforge.net/DTD/sodipodi-0.dtd"
   xmlns:inkscape="http://www.inkscape.org/namespaces/inkscape"
   width=""
   height=""
   viewBox="0 0 23.429245 19.946085"
   version="1.1"
   id="svg8"
   inkscape:version="1.0.2-2 (e86c870879, 2021-01-15)"
   sodipodi:docname="everstone.svg">
  <defs
     id="defs2" />
  <sodipodi:namedview
     id="base"
     pagecolor="#ffffff"
     bordercolor="#666666"
     borderopacity="1.0"
     inkscape:pageopacity="0.0"
     inkscape:pageshadow="2"
     inkscape:zoom="5.6"
     inkscape:cx="60.726948"
     inkscape:cy="56.304995"
     inkscape:document-units="mm"
     inkscape:current-layer="layer2"
     inkscape:document-rotation="0"
     showgrid="false"
     inkscape:window-width="1920"
     inkscape:window-height="1001"
     inkscape:window-x="-9"
     inkscape:window-y="-9"
     inkscape:window-maximized="1" />
  <metadata
     id="metadata5">
    <rdf:RDF>
      <cc:Work
         rdf:about="">
        <dc:format>image/svg+xml</dc:format>
        <dc:type
           rdf:resource="http://purl.org/dc/dcmitype/StillImage" />
        <dc:title></dc:title>
      </cc:Work>
    </rdf:RDF>
  </metadata>
  <g
     inkscape:groupmode="layer"
     id="layer2"
     inkscape:label="Layer 2"
     transform="translate(-68.439402,-89.814587)">
    <path
       style="opacity:1;fill:#b1c7d1;fill-opacity:1;stroke:#000000;stroke-width:0.765;stroke-linecap:butt;stroke-linejoin:miter;stroke-miterlimit:4;stroke-dasharray:none;stroke-opacity:1"
       d="m 68.821902,101.79628 c 0,-2.639288 1.80407,-10.523739 9.888974,-11.49259 8.084902,-0.968851 13.062797,4.877671 12.762119,9.321025 -0.300678,4.443355 -5.011303,9.187395 -11.292139,9.688525 -6.280832,0.50113 -11.024867,-1.9043 -11.358954,-7.51696 z"
       id="path848" />
  </g>
  <g
     inkscape:groupmode="layer"
     id="layer4"
     inkscape:label="Layer 4"
     style="display:inline"
     transform="translate(-68.439402,-89.814587)">
    <path
       style="fill:#8ea2b0;fill-opacity:1;stroke:none;stroke-width:0.264583px;stroke-linecap:butt;stroke-linejoin:miter;stroke-opacity:1"
       d="m 84.858073,90.804822 c -0.567947,1.369755 1.236123,2.605878 1.804069,3.975634 0.56795,1.369756 0.701583,6.113794 -2.505651,8.986934 -3.207234,2.87315 -6.869598,3.00735 -8.636146,2.97338 -1.737253,-0.0334 -1.520094,2.13815 -1.018966,2.27179 0.501132,0.13363 5.311982,0.70158 7.984678,0.10022 2.672697,-0.60135 7.249687,-4.57699 7.617182,-5.27857 0.367496,-0.70158 2.873148,-6.447878 -0.668173,-9.855563 -3.541324,-3.407688 -4.543584,-3.040192 -4.543584,-3.040192 z"
       id="path854"
       sodipodi:nodetypes="cssssssscc" />
  </g>
  <g
     inkscape:groupmode="layer"
     id="layer3"
     inkscape:label="Layer 3"
     style="display:inline"
     transform="translate(-68.439402,-89.814587)">
    <path
       style="fill:#668897;fill-opacity:1;stroke:none;stroke-width:0.264583px;stroke-linecap:butt;stroke-linejoin:miter;stroke-opacity:1"
       d="m 86.294647,91.606631 c -0.06681,1.369756 3.942225,5.04471 1.503391,9.989199 -2.438833,4.94448 -5.294345,5.61276 -6.848781,5.81311 -2.441892,0.31473 -4.635455,0.67652 -5.178346,1.57021 -0.544655,0.89659 4.81085,0.56795 6.113791,0.16704 1.302937,-0.4009 9.554884,-3.90881 9.588293,-9.254206 0.03341,-5.345391 -5.178348,-8.285353 -5.178348,-8.285353 z"
       id="path851"
       sodipodi:nodetypes="csssssc" />
  </g>
  <g
     inkscape:groupmode="layer"
     id="layer7"
     inkscape:label="Layer 7"
     style="display:inline"
     transform="translate(-68.439402,-89.814587)">
    <path
       style="fill:#c8dfe4;fill-opacity:1;stroke:none;stroke-width:0.264583px;stroke-linecap:butt;stroke-linejoin:miter;stroke-opacity:1"
       d="m 69.453124,98.037575 c -0.188989,2.315105 -0.992187,5.527895 1.606399,7.583145 2.598587,2.05525 3.638021,1.29929 3.732514,0.94494 0.0945,-0.35435 -5.05543,-4.67745 0.04725,-10.087238 5.10268,-5.409784 8.19736,-4.086868 8.953312,-4.37035 0.755952,-0.283483 0.448847,-1.01581 -0.118118,-1.41741 -0.566965,-0.401601 -7.512277,-1.511906 -10.795944,2.220611 -3.28367,3.732514 -3.42541,5.126302 -3.42541,5.126302 z"
       id="path1146" />
  </g>
  <g
     inkscape:groupmode="layer"
     id="layer6"
     inkscape:label="Layer 6"
     style="display:inline"
     transform="translate(-68.439402,-89.814587)">
    <circle
       style="fill:#c8dfe4;fill-opacity:1;stroke:none;stroke-width:0.765;stroke-miterlimit:4;stroke-dasharray:none"
       id="path857-42"
       cx="78.47731"
       cy="96.0532"
       r="0.56696427" />
    <circle
       style="fill:#c8dfe4;fill-opacity:1;stroke:none;stroke-width:0.765;stroke-miterlimit:4;stroke-dasharray:none"
       id="path857-42-7"
       cx="74.910156"
       cy="96.69104"
       r="0.56696427" />
    <circle
       style="fill:#c8dfe4;fill-opacity:1;stroke:none;stroke-width:0.765;stroke-miterlimit:4;stroke-dasharray:none"
       id="path857-42-75"
       cx="79.304123"
       cy="98.037582"
       r="0.56696427" />
    <circle
       style="fill:#c8dfe4;fill-opacity:1;stroke:none;stroke-width:0.765;stroke-miterlimit:4;stroke-dasharray:none"
       id="path857-42-6"
       cx="84.217819"
       cy="96.14769"
       r="0.56696427" />
    <circle
       style="fill:#c8dfe4;fill-opacity:1;stroke:none;stroke-width:0.765;stroke-miterlimit:4;stroke-dasharray:none"
       id="path857-42-72"
       cx="76.469307"
       cy="102.02995"
       r="0.56696427" />
    <circle
       style="fill:#c8dfe4;fill-opacity:1;stroke:none;stroke-width:0.765;stroke-miterlimit:4;stroke-dasharray:none"
       id="path857-42-91"
       cx="81.571991"
       cy="101.74647"
       r="0.56696427" />
    <path
       style="fill:#e0f1f4;fill-opacity:1;stroke:none;stroke-width:0.264583px;stroke-linecap:butt;stroke-linejoin:miter;stroke-opacity:1"
       d="m 79.563988,91.635603 c 0.01519,0.955389 -5.433409,2.622209 -6.850819,5.693266 -1.431069,3.100641 -0.405206,6.827181 -0.944941,6.827191 -0.566964,1e-5 -1.865222,-3.95894 -0.315559,-7.61383 1.25394,-2.957428 8.096725,-5.824326 8.111319,-4.906627 z"
       id="path1148"
       sodipodi:nodetypes="sssss" />
  </g>
  <g
     inkscape:groupmode="layer"
     id="layer5"
     inkscape:label="Layer 5"
     transform="translate(-68.439402,-89.814587)">
    <circle
       style="opacity:1;fill:#8ea2b0;fill-opacity:1;stroke:none;stroke-width:0.765;stroke-miterlimit:4;stroke-dasharray:none"
       id="path857"
       cx="84.359566"
       cy="93.974327"
       r="0.56696427" />
    <circle
       style="fill:#8ea2b0;fill-opacity:1;stroke:none;stroke-width:0.765;stroke-miterlimit:4;stroke-dasharray:none"
       id="path857-3"
       cx="80.650665"
       cy="94.305061"
       r="0.56696427" />
    <circle
       style="fill:#8ea2b0;fill-opacity:1;stroke:none;stroke-width:0.765;stroke-miterlimit:4;stroke-dasharray:none"
       id="path857-4"
       cx="84.028831"
       cy="95.935081"
       r="0.56696427" />
    <circle
       style="fill:#8ea2b0;fill-opacity:1;stroke:none;stroke-width:0.765;stroke-miterlimit:4;stroke-dasharray:none"
       id="path857-43"
       cx="74.650299"
       cy="96.431175"
       r="0.56696427" />
    <circle
       style="fill:#8ea2b0;fill-opacity:1;stroke:none;stroke-width:0.765;stroke-miterlimit:4;stroke-dasharray:none"
       id="path857-2"
       cx="83.178391"
       cy="98.888023"
       r="0.56696427" />
    <circle
       style="fill:#8ea2b0;fill-opacity:1;stroke:none;stroke-width:0.765;stroke-miterlimit:4;stroke-dasharray:none"
       id="path857-8"
       cx="78.997017"
       cy="97.919456"
       r="0.56696427" />
    <circle
       style="fill:#8ea2b0;fill-opacity:1;stroke:none;stroke-width:0.765;stroke-miterlimit:4;stroke-dasharray:none"
       id="path857-5"
       cx="73.114769"
       cy="102.31343"
       r="0.56696427" />
    <circle
       style="fill:#8ea2b0;fill-opacity:1;stroke:none;stroke-width:0.765;stroke-miterlimit:4;stroke-dasharray:none"
       id="path857-49"
       cx="76.280327"
       cy="101.79371"
       r="0.56696427" />
    <circle
       style="fill:#8ea2b0;fill-opacity:1;stroke:none;stroke-width:0.765;stroke-miterlimit:4;stroke-dasharray:none"
       id="path857-28"
       cx="80.036461"
       cy="104.6994"
       r="0.56696427" />
    <circle
       style="fill:#8ea2b0;fill-opacity:1;stroke:none;stroke-width:0.765;stroke-miterlimit:4;stroke-dasharray:none"
       id="path857-48"
       cx="88.611794"
       cy="94.683029"
       r="0.56696427" />
    <circle
       style="fill:#8ea2b0;fill-opacity:1;stroke:none;stroke-width:0.765;stroke-miterlimit:4;stroke-dasharray:none"
       id="path857-0"
       cx="89.438614"
       cy="100.18732"
       r="0.56696427" />
    <circle
       style="fill:#8ea2b0;fill-opacity:1;stroke:none;stroke-width:0.765;stroke-miterlimit:4;stroke-dasharray:none"
       id="path857-53"
       cx="87.997581"
       cy="103.35287"
       r="0.56696427" />
    <circle
       style="fill:#8ea2b0;fill-opacity:1;stroke:none;stroke-width:0.765;stroke-miterlimit:4;stroke-dasharray:none"
       id="path857-00"
       cx="85.706108"
       cy="105.71522"
       r="0.56696427" />
    <circle
       style="fill:#8ea2b0;fill-opacity:1;stroke:none;stroke-width:0.765;stroke-miterlimit:4;stroke-dasharray:none"
       id="path857-09"
       cx="81.335754"
       cy="101.53384"
       r="0.56696427" />
    <circle
       style="fill:#c8dfe4;fill-opacity:1;stroke:none;stroke-width:0.765;stroke-miterlimit:4;stroke-dasharray:none"
       id="path857-42-8"
       cx="79.067894"
       cy="101.27399"
       r="0.56696427" />
    <circle
       style="fill:#c8dfe4;fill-opacity:1;stroke:none;stroke-width:0.765;stroke-miterlimit:4;stroke-dasharray:none"
       id="path857-42-61"
       cx="75.122765"
       cy="99.384109"
       r="0.56696427" />
    <circle
       style="fill:#c8dfe4;fill-opacity:1;stroke:none;stroke-width:0.765;stroke-miterlimit:4;stroke-dasharray:none"
       id="path857-42-9"
       cx="76.847282"
       cy="104.62854"
       r="0.56696427" />
    <circle
       style="fill:#668897;fill-opacity:1;stroke:none;stroke-width:0.765;stroke-miterlimit:4;stroke-dasharray:none"
       id="path857-42-98"
       cx="88.210197"
       cy="97.163506"
       r="0.56696427" />
    <circle
       style="fill:#668897;fill-opacity:1;stroke:none;stroke-width:0.765;stroke-miterlimit:4;stroke-dasharray:none"
       id="path857-42-98-1"
       cx="86.863655"
       cy="99.454987"
       r="0.56696427" />
    <circle
       style="fill:#668897;fill-opacity:1;stroke:none;stroke-width:0.765;stroke-miterlimit:4;stroke-dasharray:none"
       id="path857-42-98-3"
       cx="87.690475"
       cy="101.34486"
       r="0.56696427" />
    <circle
       style="fill:#668897;fill-opacity:1;stroke:none;stroke-width:0.765;stroke-miterlimit:4;stroke-dasharray:none"
       id="path857-42-98-2"
       cx="85.375374"
       cy="102.73866"
       r="0.56696427" />
    <circle
       style="fill:#668897;fill-opacity:1;stroke:none;stroke-width:0.765;stroke-miterlimit:4;stroke-dasharray:none"
       id="path857-42-98-8"
       cx="83.272881"
       cy="105.17188"
       r="0.56696427" />
    <path
       style="fill:none;stroke:#000000;stroke-width:0.765;stroke-linecap:butt;stroke-linejoin:miter;stroke-miterlimit:4;stroke-dasharray:none;stroke-opacity:1"
       d="m 68.821902,101.79628 c 0,-2.63928 1.80407,-10.523734 9.888974,-11.492585 8.084902,-0.968851 13.062796,4.877671 12.762116,9.321025 -0.30068,4.44335 -5.0113,9.18739 -11.292136,9.68852 -6.280832,0.50113 -11.024867,-1.9043 -11.358954,-7.51696 z"
       id="path848-5" />
  </g>
</svg>
