<?xml version="1.0" encoding="UTF-8" standalone="no"?>
<svg
   xmlns:dc="http://purl.org/dc/elements/1.1/"
   xmlns:cc="http://creativecommons.org/ns#"
   xmlns:rdf="http://www.w3.org/1999/02/22-rdf-syntax-ns#"
   xmlns:svg="http://www.w3.org/2000/svg"
   xmlns="http://www.w3.org/2000/svg"
   xmlns:sodipodi="http://sodipodi.sourceforge.net/DTD/sodipodi-0.dtd"
   xmlns:inkscape="http://www.inkscape.org/namespaces/inkscape"
   width=""
   height=""
   viewBox="0 0 23.448551 23.812309"
   version="1.1"
   id="svg8"
   sodipodi:docname="fire_stone.svg"
   inkscape:version="1.0.2-2 (e86c870879, 2021-01-15)">
  <defs
     id="defs2" />
  <sodipodi:namedview
     id="base"
     pagecolor="#ffffff"
     bordercolor="#666666"
     borderopacity="1.0"
     inkscape:pageopacity="0.0"
     inkscape:pageshadow="2"
     inkscape:zoom="5.6"
     inkscape:cx="32.591167"
     inkscape:cy="46.467523"
     inkscape:document-units="mm"
     inkscape:current-layer="layer3"
     inkscape:document-rotation="0"
     showgrid="false"
     inkscape:window-width="1920"
     inkscape:window-height="1001"
     inkscape:window-x="-9"
     inkscape:window-y="-9"
     inkscape:window-maximized="1" />
  <metadata
     id="metadata5">
    <rdf:RDF>
      <cc:Work
         rdf:about="">
        <dc:format>image/svg+xml</dc:format>
        <dc:type
           rdf:resource="http://purl.org/dc/dcmitype/StillImage" />
        <dc:title></dc:title>
      </cc:Work>
    </rdf:RDF>
  </metadata>
  <g
     inkscape:groupmode="layer"
     id="layer3"
     inkscape:label="Layer 3"
     transform="translate(-0.4334535,-0.13125533)">
    <path
       style="fill:#ffffff;fill-opacity:1;stroke:none;stroke-width:0.264583px;stroke-linecap:butt;stroke-linejoin:miter;stroke-opacity:1"
       d="M 21.94951,2.4054257 C 21.202964,1.3242347 21.548605,0.93544333 20.379301,0.86862596 19.209997,0.80180856 11.971216,0.97809491 11.314294,1.3242647 10.657372,1.6704345 2.7395127,6.4812859 1.9711127,10.390103 1.2027129,14.29892 -0.90203463,25.691283 3.8754081,22.851544 8.6528509,20.011806 21.94951,2.4054257 21.94951,2.4054257 Z"
       id="path963" />
  </g>
  <g
     inkscape:groupmode="layer"
     id="layer2"
     inkscape:label="Layer 2"
     transform="translate(-100.0411,-106.30535)">
    <g
       id="g944"
       transform="translate(0.33408713,0.13363474)">
      <path
         style="fill:#eee196;stroke-width:0.264583"
         d="m 100.48229,129.34493 -0.742355,-0.64165 0.05512,-3.39324 c 0.05515,-3.39559 0.607195,-8.36952 1.129065,-10.17289 0.47407,-1.63821 7.03241,-7.4838 9.59981,-8.55653 0.71078,-0.29698 1.92783,-0.40653 4.51641,-0.40653 5.06489,0 5.8526,0.14694 7.08804,1.32218 l 1.02718,0.97714 v 4.81196 c 0,3.61308 -0.0959,5.04157 -0.38505,5.73352 -0.72317,1.73078 -6.41608,8.73597 -8.08162,9.94451 -0.72441,0.52564 -5.95622,1.01553 -10.89931,1.02057 -2.33635,0.002 -2.63108,-0.0546 -3.30729,-0.63904 z m 2.6645,-2.95301 c 0.73938,-0.53296 0.75089,-0.57658 0.40478,-1.53372 -0.30889,-0.85424 -0.44148,-0.96376 -0.99766,-0.82417 l -0.64143,0.16099 0.14147,-2.26765 c 0.0778,-1.24721 0.25709,-2.41465 0.3984,-2.59432 0.14131,-0.17967 0.51062,-1.17552 0.8207,-2.213 0.92157,-3.08346 3.0263,-5.57051 5.13684,-6.06994 l 0.73246,-0.17332 -0.4629,0.80657 c -0.53023,0.92386 -0.30306,1.38597 0.38542,0.78403 0.25556,-0.22343 0.7802,-0.56997 1.16588,-0.77008 0.68771,-0.35683 0.6937,-0.38258 0.31065,-1.33543 -0.21482,-0.53437 -0.57261,-1.04144 -0.79508,-1.12681 -0.81446,-0.31253 -6.22086,3.57114 -7.33197,5.26691 -0.25104,0.38313 -0.62515,1.57839 -0.83136,2.65613 -0.48035,2.51059 -1.06133,10.21867 -0.81801,10.85278 0.16794,0.43763 0.25455,0.40952 0.90327,-0.29319 0.39463,-0.42748 1.05998,-1.02408 1.47854,-1.32578 z m 17.36294,-18.20038 c 0,-0.69746 -0.74688,-0.95912 -2.73771,-0.95912 h -1.08405 l 0.55605,0.55606 c 0.30584,0.30583 0.95737,0.65083 1.44786,0.76667 1.5591,0.3682 1.81785,0.31644 1.81785,-0.36361 z"
         id="path960" />
      <path
         style="fill:#e8de48;stroke-width:0.264583"
         d="m 100.90094,129.60627 c -1.229176,-0.69732 -1.373797,-1.51757 -1.037101,-5.88218 0.393501,-5.10098 0.747631,-7.61349 1.250111,-8.8693 0.49735,-1.243 3.93417,-4.52157 7.10165,-6.77465 2.68994,-1.9134 3.44803,-2.06973 8.79337,-1.81337 3.91143,0.18759 4.78089,0.47051 5.6496,1.83839 0.50451,0.79442 0.53022,1.15614 0.4138,5.8213 l -0.12414,4.97424 -0.95428,1.43725 c -1.02998,1.55126 -5.76408,7.27294 -6.85173,8.28106 -0.82312,0.76293 -2.51793,0.9943 -8.91999,1.21772 -3.82056,0.13333 -4.75106,0.093 -5.32129,-0.23046 z m 9.15319,-0.94939 3.69961,-0.26672 1.28491,-1.25231 c 1.37668,-1.34174 5.47459,-6.30428 5.46574,-6.61897 -0.005,-0.18584 -0.90485,0.73487 -4.62899,4.7375 -1.52553,1.63961 -2.03919,2.0247 -2.88341,2.1617 -1.77967,0.2888 -11.00242,0.80529 -11.18153,0.62619 -0.42674,-0.42675 1.47918,-1.88011 4.43588,-3.3826 1.57697,-0.80136 2.12259,-1.39047 1.66466,-1.79735 -0.12846,-0.11414 -1.52921,0.11526 -3.11278,0.50978 l -2.87921,0.71731 0.17822,-2.13694 c 0.11858,-1.42194 0.32601,-2.30025 0.61993,-2.62504 0.24295,-0.26845 1.48404,-1.02643 2.75798,-1.68439 3.28968,-1.69906 4.57453,-2.74888 5.12348,-4.18628 0.53218,-1.39349 0.40378,-3.09465 -0.29155,-3.86299 -0.44023,-0.48645 -0.42265,-0.52073 0.45525,-0.88754 1.83895,-0.76836 2.21236,-0.77375 2.54814,-0.0368 0.21893,0.48048 0.52209,0.68304 1.04203,0.69623 0.4033,0.0102 0.9714,0.11385 1.26244,0.23028 0.40497,0.162 0.68442,0.0357 1.19063,-0.53823 0.65631,-0.74408 0.67262,-0.7473 2.09434,-0.41375 0.88771,0.20827 1.57118,0.54447 1.79639,0.88365 0.4194,0.63165 0.50345,2.82791 0.2125,5.55284 -0.24718,2.31502 -0.0543,3.26244 0.66431,3.26244 0.50283,0 0.52413,-0.19149 0.52413,-4.713 v -4.71299 l -0.81036,-0.77711 -0.81035,-0.7771 -4.13797,-0.0856 c -2.27587,-0.047 -4.50761,-0.0162 -4.9594,0.0686 -1.37746,0.25841 -8.45887,6.05117 -9.26122,7.57588 -0.49086,0.93279 -1.13796,5.50945 -1.35363,9.5736 -0.23322,4.39509 -0.20669,4.43201 3.18383,4.42873 1.32351,-0.001 4.07121,-0.12235 6.106,-0.26905 z m 6.18263,-7.59998 c 0.34365,-0.65326 0.65076,-3.62442 0.44247,-4.28068 -0.27031,-0.85168 -1.07178,-0.64941 -1.98238,0.50032 -0.78864,0.99574 -0.8212,1.12836 -0.64952,2.64584 l 0.18075,1.59754 h 0.88255 c 0.57136,0 0.96845,-0.16327 1.12613,-0.46302 z"
         id="path958" />
      <path
         style="fill:#bbb861;stroke-width:0.264583"
         d="m 100.90094,129.60627 c -1.229176,-0.69732 -1.373797,-1.51757 -1.037101,-5.88218 0.393501,-5.10098 0.747631,-7.61349 1.250111,-8.8693 0.49735,-1.243 3.93417,-4.52157 7.10165,-6.77465 2.68994,-1.9134 3.44803,-2.06973 8.79337,-1.81337 3.91143,0.18759 4.78089,0.47051 5.6496,1.83839 0.50451,0.79442 0.53022,1.15614 0.4138,5.8213 l -0.12414,4.97424 -0.95428,1.43725 c -1.02998,1.55126 -5.76408,7.27294 -6.85173,8.28106 -0.82312,0.76293 -2.51793,0.9943 -8.91999,1.21772 -3.82056,0.13333 -4.75106,0.093 -5.32129,-0.23046 z m 9.15319,-0.94939 3.69961,-0.26672 1.28491,-1.25231 c 1.37668,-1.34174 5.47459,-6.30428 5.46574,-6.61897 -0.005,-0.18584 -0.90485,0.73487 -4.62899,4.7375 -1.52553,1.63961 -2.03919,2.0247 -2.88341,2.1617 -1.79428,0.29117 -11.00315,0.80457 -11.1842,0.62352 -0.33634,-0.33634 1.13069,-1.55116 3.30463,-2.73651 1.20862,-0.659 2.27026,-1.12541 2.3592,-1.03647 0.0889,0.0889 0.027,0.16172 -0.13765,0.16172 -0.16466,0 -0.42962,0.24337 -0.58882,0.54082 -0.25717,0.48054 -0.10775,0.44911 1.34038,-0.2819 1.70465,-0.8605 1.96322,-1.20259 0.61724,-0.81656 -0.76182,0.21848 -0.78749,0.19834 -0.68005,-0.53369 0.0614,-0.41842 0.009,-0.75984 -0.11682,-0.75873 -0.12566,0.001 -1.52415,0.34202 -3.10776,0.75758 l -2.87929,0.75554 0.17781,-2.13218 c 0.0978,-1.1727 0.29849,-2.27757 0.44597,-2.45528 0.14748,-0.17771 1.50501,-1.00026 3.01673,-1.82791 3.32737,-1.82169 4.75503,-2.99845 5.17254,-4.26353 0.39987,-1.21161 0.18926,-3.14016 -0.41596,-3.80893 -0.45194,-0.49938 -0.43774,-0.52793 0.44638,-0.89734 1.83895,-0.76836 2.21236,-0.77375 2.54814,-0.0368 0.21893,0.48048 0.52209,0.68304 1.04203,0.69623 0.4033,0.0102 0.9714,0.11385 1.26244,0.23028 0.40487,0.16195 0.68455,0.0357 1.19063,-0.53737 0.52339,-0.59269 0.81334,-0.71716 1.38906,-0.59631 0.40018,0.084 0.72761,0.24771 0.72761,0.36378 0,0.36498 -2.61312,1.83722 -3.84641,2.16707 l -1.18068,0.31579 v 1.54576 c 0,2.56867 -0.51999,3.2223 -4.115,5.17248 -2.67849,1.453 -3.18213,2.15199 -2.40505,3.33796 0.33026,0.50404 0.66958,0.67976 1.30063,0.67355 1.08437,-0.0107 1.50782,-0.34701 2.43295,-1.9324 0.45807,-0.78498 1.08829,-1.44231 1.6309,-1.70106 1.08665,-0.51819 1.26724,-0.37536 0.78686,0.62236 -0.20405,0.4238 -0.45075,1.03856 -0.54823,1.36613 -0.16316,0.54835 -0.12335,0.57509 0.50215,0.33727 0.58733,-0.2233 0.67938,-0.18748 0.67938,0.26433 0,0.43071 0.18068,0.52261 1.02747,0.52261 1.07839,0 1.34138,-0.34681 1.35016,-1.78049 0.002,-0.36482 0.55882,-1.12762 1.45882,-1.99935 0.80037,-0.77521 1.45521,-1.54081 1.45521,-1.70133 0,-0.17061 -0.47735,-0.28463 -1.1491,-0.27448 -1.92843,0.0292 -2.35872,-0.65653 -0.93847,-1.49549 0.96931,-0.57259 1.71315,-2.10398 1.97194,-4.05979 0.20375,-1.5398 0.63503,-1.78916 1.31077,-0.75786 0.47082,0.71857 0.56679,2.77921 0.26226,5.63135 -0.24718,2.31502 -0.0543,3.26244 0.66431,3.26244 0.50283,0 0.52413,-0.19149 0.52413,-4.713 v -4.71299 l -0.81036,-0.77711 -0.81035,-0.7771 -4.13797,-0.0856 c -2.27587,-0.047 -4.50761,-0.0162 -4.9594,0.0686 -1.37746,0.25841 -8.45887,6.05117 -9.26122,7.57588 -0.49086,0.93279 -1.13796,5.50945 -1.35363,9.5736 -0.23322,4.39509 -0.20669,4.43201 3.18383,4.42873 1.32351,-0.001 4.07121,-0.12235 6.106,-0.26905 z"
         id="path956" />
      <path
         style="fill:#d7c227;stroke-width:0.264583"
         d="m 100.90094,129.60627 c -1.229176,-0.69732 -1.373797,-1.51757 -1.037101,-5.88218 0.393501,-5.10098 0.747631,-7.61349 1.250111,-8.8693 0.49735,-1.243 3.93417,-4.52157 7.10165,-6.77465 2.68994,-1.9134 3.44803,-2.06973 8.79337,-1.81337 3.91143,0.18759 4.78089,0.47051 5.6496,1.83839 0.50451,0.79442 0.53022,1.15614 0.4138,5.8213 l -0.12414,4.97424 -0.95428,1.43725 c -1.02998,1.55126 -5.76408,7.27294 -6.85173,8.28106 -0.82312,0.76293 -2.51793,0.9943 -8.91999,1.21772 -3.82056,0.13333 -4.75106,0.093 -5.32129,-0.23046 z m 10.08379,-0.93159 3.0427,-0.24496 1.4047,-1.53667 c 1.45973,-1.59688 5.07237,-6.00791 5.47936,-6.69028 0.1283,-0.21511 -0.3561,0.10238 -1.07643,0.70555 -0.72034,0.60316 -1.53535,1.13635 -1.81113,1.18486 -0.27578,0.0485 -1.10277,0.71967 -1.83775,1.49147 -0.94852,0.99603 -2.04679,1.75596 -3.78439,2.61855 -2.08854,1.0368 -2.74422,1.23428 -4.46472,1.3447 -1.77258,0.11375 -2.11049,0.0601 -2.7918,-0.44366 -0.42632,-0.31519 -0.77513,-0.45748 -0.77513,-0.31619 0,0.14129 0.11907,0.33048 0.26459,0.42042 0.5462,0.33757 0.22762,0.60691 -0.92173,0.77927 -0.65246,0.0978 -1.38542,0.0665 -1.62878,-0.0697 -0.37393,-0.20926 -0.2414,-0.39479 0.85558,-1.19774 1.65047,-1.20808 4.32962,-2.65385 4.53579,-2.44767 0.0868,0.0868 0.023,0.15774 -0.14162,0.15774 -0.16466,0 -0.42962,0.24337 -0.58882,0.54082 -0.25717,0.48054 -0.10775,0.44911 1.34038,-0.2819 1.70465,-0.8605 1.96322,-1.20259 0.61724,-0.81656 -0.76182,0.21848 -0.78749,0.19834 -0.68005,-0.53369 0.0614,-0.41842 0.0481,-0.76075 -0.0295,-0.76075 -0.0776,0 -1.41206,0.30627 -2.9654,0.6806 -1.55334,0.37434 -2.87835,0.62651 -2.94447,0.56039 -0.0661,-0.0661 -0.0379,-0.44804 0.0626,-0.84871 0.17665,-0.70383 0.1928,-0.70987 0.47718,-0.17851 0.2324,0.43425 0.27467,0.11703 0.20089,-1.50766 l -0.0934,-2.05764 2.75464,-1.50812 c 4.22579,-2.31356 5.49948,-3.6054 5.49948,-5.57786 0,-0.48529 0.17543,-0.70894 0.6494,-0.8279 0.43656,-0.10957 0.7468,-0.4581 0.94656,-1.06338 0.32819,-0.9944 0.44336,-1.02487 2.33808,-0.61852 0.78546,0.16845 1.38184,0.45796 1.48222,0.71954 0.0924,0.24072 0.0833,0.35304 -0.0201,0.2496 -0.10345,-0.10344 -0.32744,-0.0724 -0.49777,0.069 -0.26301,0.21827 -1.02625,0.43685 -1.78952,0.51247 -0.10914,0.0108 -0.19844,0.73995 -0.19844,1.6203 0,2.62816 -0.50414,3.26858 -4.115,5.22736 -2.67849,1.453 -3.18213,2.15199 -2.40505,3.33796 0.33026,0.50404 0.66958,0.67976 1.30063,0.67355 1.08437,-0.0107 1.50782,-0.34701 2.43295,-1.9324 0.45807,-0.78498 1.08828,-1.44231 1.6309,-1.70106 1.08665,-0.51819 1.26724,-0.37536 0.78686,0.62236 -0.20405,0.4238 -0.45076,1.03856 -0.54823,1.36613 -0.16317,0.54835 -0.12335,0.57509 0.50215,0.33727 0.59593,-0.22657 0.67938,-0.18996 0.67938,0.29799 0,0.50896 0.11386,0.54534 1.33849,0.42767 1.59744,-0.1535 2.19968,-0.59751 1.50578,-1.11018 -0.54029,-0.39917 -0.60556,-1.0863 -0.13229,-1.39261 0.1819,-0.11773 1.40229,-0.27358 2.71197,-0.34634 l 2.38125,-0.13229 0.0723,-4.7023 c 0.047,-3.05918 -0.0298,-4.89295 -0.21974,-5.24792 -0.56034,-1.04702 -1.78836,-1.29458 -6.4217,-1.29458 -4.23898,0 -4.36051,0.0157 -5.36631,0.69215 -2.79208,1.87786 -7.34725,5.89587 -7.90346,6.97145 -0.49918,0.96531 -1.14511,5.5197 -1.3617,9.60118 -0.2402,4.52661 -0.32473,4.43254 3.97758,4.42675 1.76008,-0.002 4.56936,-0.11454 6.24285,-0.24927 z"
         id="path954" />
      <path
         style="fill:#e78f32;stroke-width:0.264583"
         d="m 100.90094,129.60627 c -1.229176,-0.69732 -1.373797,-1.51757 -1.037101,-5.88218 0.393501,-5.10098 0.747631,-7.61349 1.250111,-8.8693 0.49735,-1.243 3.93417,-4.52157 7.10165,-6.77465 2.68994,-1.9134 3.44803,-2.06973 8.79337,-1.81337 3.91143,0.18759 4.78089,0.47051 5.6496,1.83839 0.50451,0.79442 0.53022,1.15614 0.4138,5.8213 l -0.12414,4.97424 -0.95428,1.43725 c -1.02998,1.55126 -5.76408,7.27294 -6.85173,8.28106 -0.82312,0.76293 -2.51793,0.9943 -8.91999,1.21772 -3.82056,0.13333 -4.75106,0.093 -5.32129,-0.23046 z m 10.08379,-0.93159 3.0427,-0.24496 1.4047,-1.53667 c 1.45973,-1.59688 5.07237,-6.00791 5.47936,-6.69028 0.1283,-0.21511 -0.3561,0.10238 -1.07643,0.70555 -1.67681,1.40405 -2.29869,1.54081 -2.35007,0.51682 -0.0209,-0.41593 -0.24182,-0.9053 -0.49098,-1.0875 -0.5315,-0.38864 -0.59247,-1.07749 -0.1223,-1.38179 0.1819,-0.11773 1.40229,-0.27358 2.71197,-0.34634 l 2.38125,-0.13229 0.0723,-4.7023 c 0.047,-3.05918 -0.0298,-4.89295 -0.21974,-5.24792 -0.56034,-1.04702 -1.78836,-1.29458 -6.4217,-1.29458 -4.23898,0 -4.36051,0.0157 -5.36631,0.69215 -2.79208,1.87786 -7.34725,5.89587 -7.90346,6.97145 -0.49918,0.96531 -1.14511,5.5197 -1.3617,9.60118 -0.2402,4.52661 -0.32473,4.43254 3.97758,4.42675 1.76008,-0.002 4.56936,-0.11454 6.24285,-0.24927 z m -8.96538,-0.76882 c -0.28184,-0.18735 -0.0681,-0.46197 0.92604,-1.18964 1.81467,-1.32833 4.61637,-2.8044 4.00579,-2.11045 -0.25391,0.28858 -0.53799,1.08155 -0.63127,1.76214 -0.0933,0.68058 -0.25643,1.23743 -0.36255,1.23743 -0.10612,0 -0.50665,-0.24677 -0.89008,-0.54837 -0.69237,-0.54462 -0.98347,-0.37297 -0.38405,0.22646 0.1722,0.1722 0.2615,0.36347 0.19844,0.42504 -0.27036,0.26399 -2.52793,0.41967 -2.86232,0.19739 z m 0.0674,-4.6 c 0.0877,-0.32742 0.16539,-0.71437 0.17253,-0.85989 0.007,-0.14553 0.15817,-0.003 0.33562,0.31572 0.27088,0.48722 0.30765,0.25023 0.22919,-1.47732 l -0.0934,-2.05764 2.75464,-1.50812 c 4.22579,-2.31356 5.49948,-3.6054 5.49948,-5.57786 0,-0.48529 0.17543,-0.70894 0.6494,-0.8279 0.43656,-0.10957 0.7468,-0.4581 0.94656,-1.06338 0.32915,-0.99731 0.43945,-1.02571 2.37352,-0.61092 1.62261,0.34799 1.61059,0.76259 -0.0367,1.26486 l -1.19277,0.3637 0.11492,1.38573 c 0.20513,2.4736 -0.80507,3.73664 -4.44247,5.55436 -1.91672,0.95785 -2.38125,1.39763 -2.38125,2.25439 0,0.88984 0.74352,1.5875 1.69187,1.5875 1.06032,0 1.68251,-0.4231 2.25026,-1.5302 0.58618,-1.14304 1.4983,-2.03794 2.33595,-2.29185 l 0.58953,-0.17869 -0.51758,1.14047 c -0.28467,0.62726 -0.52019,1.51968 -0.52339,1.98315 -0.003,0.46347 -0.11949,1.14167 -0.25843,1.50712 -0.26068,0.68564 -0.48236,0.75858 -3.25311,1.07049 -1.1996,0.13503 -1.25677,0.11161 -1.25677,-0.51493 0,-0.36101 -0.0519,-0.65639 -0.11544,-0.65639 -0.0635,0 -1.34341,0.2975 -2.84427,0.66111 -3.31272,0.80258 -3.22463,0.80064 -3.02789,0.0665 z"
         id="path952" />
      <path
         style="fill:#7d7d8e;stroke-width:0.264583"
         d="m 100.90094,129.60627 c -1.229176,-0.69732 -1.373797,-1.51757 -1.037101,-5.88218 0.393501,-5.10098 0.747631,-7.61349 1.250111,-8.8693 0.49735,-1.243 3.93417,-4.52157 7.10165,-6.77465 2.68994,-1.9134 3.44803,-2.06973 8.79337,-1.81337 3.91143,0.18759 4.78089,0.47051 5.6496,1.83839 0.50451,0.79442 0.53022,1.15614 0.4138,5.8213 l -0.12414,4.97424 -0.95428,1.43725 c -1.02998,1.55126 -5.76408,7.27294 -6.85173,8.28106 -0.82312,0.76293 -2.51793,0.9943 -8.91999,1.21772 -3.82056,0.13333 -4.75106,0.093 -5.32129,-0.23046 z m 10.08379,-0.93159 3.0427,-0.24496 1.4047,-1.53667 c 1.45973,-1.59688 5.07237,-6.00791 5.47936,-6.69028 0.1283,-0.21511 -0.3561,0.10238 -1.07643,0.70555 -1.67681,1.40405 -2.29869,1.54081 -2.35007,0.51682 -0.0209,-0.41593 -0.24182,-0.9053 -0.49098,-1.0875 -0.5315,-0.38864 -0.59247,-1.07749 -0.1223,-1.38179 0.1819,-0.11773 1.40229,-0.27358 2.71197,-0.34634 l 2.38125,-0.13229 0.0723,-4.7023 c 0.047,-3.05918 -0.0298,-4.89295 -0.21974,-5.24792 -0.56034,-1.04702 -1.78836,-1.29458 -6.4217,-1.29458 -4.23898,0 -4.36051,0.0157 -5.36631,0.69215 -2.79208,1.87786 -7.34725,5.89587 -7.90346,6.97145 -0.49918,0.96531 -1.14511,5.5197 -1.3617,9.60118 -0.2402,4.52661 -0.32473,4.43254 3.97758,4.42675 1.76008,-0.002 4.56936,-0.11454 6.24285,-0.24927 z m -8.95654,-0.76335 c -0.27536,-0.18337 -0.1537,-0.38901 0.52917,-0.89447 1.42577,-1.05536 1.47906,-1.05993 1.92546,-0.1651 0.23033,0.46171 0.3885,0.86855 0.35149,0.90407 -0.23416,0.22476 -2.51251,0.35101 -2.80612,0.1555 z m -0.0207,-4.34089 c 0.0102,-0.1819 0.10504,-0.55036 0.21069,-0.81881 0.17379,-0.44157 0.22077,-0.42517 0.49287,0.17204 0.16543,0.36307 0.22937,0.73154 0.14209,0.81881 -0.28479,0.2848 -0.8647,0.16682 -0.84565,-0.17204 z m 10.30015,-12.46208 c 0,-0.051 0.13071,-0.46776 0.29047,-0.92604 0.32354,-0.9281 0.43938,-0.95484 2.3561,-0.54377 1.53006,0.32814 1.61263,0.73999 0.24398,1.21696 -0.83198,0.28994 -2.89055,0.47002 -2.89055,0.25285 z"
         id="path950" />
      <path
         style="fill:#76742b;stroke-width:0.264583"
         d="m 100.44751,129.10964 c -0.506798,-0.53946 -0.575284,-0.90975 -0.575284,-3.11047 0,-2.72579 0.609514,-8.54035 1.099044,-10.48442 0.3536,-1.40431 1.88125,-3.06722 5.50696,-5.99456 4.00073,-3.23013 3.67732,-3.12698 9.50427,-3.03156 l 5.02832,0.0823 0.94008,0.91179 0.94008,0.9118 v 5.20962 5.20961 l -1.03761,1.5515 c -1.25542,1.87721 -4.81849,6.14945 -6.43855,7.72003 -1.15971,1.1243 -1.21475,1.14506 -3.66364,1.3819 -1.36744,0.13225 -4.34073,0.24367 -6.60731,0.24762 -3.97016,0.007 -4.14214,-0.0153 -4.69636,-0.6052 z m 10.53722,-0.43649 3.0427,-0.24649 1.43947,-1.53514 c 1.47426,-1.57224 5.57199,-6.61437 5.57199,-6.85615 0,-0.0739 -0.56554,0.33897 -1.25677,0.91758 -1.62539,1.3606 -2.24615,1.4882 -2.29713,0.47219 -0.0209,-0.41593 -0.24182,-0.9053 -0.49098,-1.0875 -0.5315,-0.38864 -0.59247,-1.07749 -0.1223,-1.38179 0.1819,-0.11773 1.40229,-0.27358 2.71197,-0.34634 l 2.38125,-0.13229 0.0719,-4.94307 0.0719,-4.94307 -0.89064,-0.67933 c -0.87788,-0.66959 -0.95703,-0.67933 -5.52221,-0.67933 -4.61469,0 -4.63549,0.003 -5.7104,0.72761 -2.09364,1.41203 -5.28745,4.05293 -6.72828,5.56349 -1.31471,1.37833 -1.48739,1.6971 -1.75587,3.24119 -0.48273,2.7763 -0.8259,6.56559 -0.83081,9.17384 -0.004,2.04227 0.07,2.47767 0.45844,2.70393 0.58166,0.33879 5.84997,0.35518 9.85573,0.0307 z m -8.95654,-0.76182 c -0.27536,-0.18337 -0.1537,-0.38901 0.52917,-0.89447 1.42577,-1.05536 1.47906,-1.05993 1.92546,-0.1651 0.23033,0.46171 0.3885,0.86855 0.35149,0.90407 -0.23416,0.22476 -2.51251,0.35101 -2.80612,0.1555 z m -0.0207,-4.34089 c 0.0102,-0.1819 0.10504,-0.55036 0.21069,-0.81881 0.17379,-0.44157 0.22077,-0.42517 0.49287,0.17204 0.16543,0.36307 0.22937,0.73154 0.14209,0.81881 -0.28479,0.2848 -0.8647,0.16682 -0.84565,-0.17204 z m 10.30015,-12.46208 c 0,-0.051 0.13071,-0.46776 0.29047,-0.92604 0.32354,-0.9281 0.43938,-0.95484 2.3561,-0.54377 1.53006,0.32814 1.61263,0.73999 0.24398,1.21696 -0.83198,0.28994 -2.89055,0.47002 -2.89055,0.25285 z"
         id="path948" />
      <path
         style="fill:#060624;stroke-width:0.264583"
         d="m 100.38787,128.9944 c -0.554801,-0.69468 -0.573853,-0.89213 -0.421097,-4.364 0.190737,-4.33503 0.840847,-8.98443 1.410217,-10.08547 0.72698,-1.40583 5.2545,-5.4328 8.27047,-7.35613 l 1.17628,-0.75013 h 4.72384 c 5.1183,0 5.72704,0.13318 6.79087,1.48561 0.51686,0.65708 0.55253,1.03126 0.55253,5.79643 v 5.094 l -0.96818,1.41875 c -1.31429,1.92593 -5.0666,6.45702 -6.48275,7.82821 l -1.15443,1.11779 -3.03951,0.26901 c -1.67173,0.14796 -4.66798,0.27003 -6.65833,0.27127 l -3.61881,0.002 z m 11.47787,-0.31192 c 1.91942,-0.20127 2.14919,-0.29256 3.12718,-1.2425 1.44559,-1.40412 4.90556,-5.62051 6.11212,-7.44833 l 0.99219,-1.50308 v -4.92049 -4.9205 l -0.67365,-0.63285 c -0.85073,-0.79922 -2.51263,-0.97887 -7.30396,-0.78956 l -3.53177,0.13955 -2.24896,1.71506 c -3.19794,2.43877 -6.27452,5.44866 -6.58627,6.44351 -0.37914,1.20991 -0.77806,4.27431 -1.10193,8.46491 -0.4019,5.20008 -0.653966,4.94408 4.85003,4.92579 2.36136,-0.008 5.22562,-0.11202 6.36502,-0.23151 z"
         id="path946" />
    </g>
  </g>
</svg>
