<?xml version="1.0" encoding="UTF-8" standalone="no"?>
<svg
   xmlns:dc="http://purl.org/dc/elements/1.1/"
   xmlns:cc="http://creativecommons.org/ns#"
   xmlns:rdf="http://www.w3.org/1999/02/22-rdf-syntax-ns#"
   xmlns:svg="http://www.w3.org/2000/svg"
   xmlns="http://www.w3.org/2000/svg"
   xmlns:sodipodi="http://sodipodi.sourceforge.net/DTD/sodipodi-0.dtd"
   xmlns:inkscape="http://www.inkscape.org/namespaces/inkscape"
   width=""
   height=""
   viewBox="0 0 15.3577 15.118067"
   version="1.1"
   id="svg8"
   sodipodi:docname="ice_stone.svg"
   inkscape:version="1.0.2-2 (e86c870879, 2021-01-15)">
  <defs
     id="defs2" />
  <sodipodi:namedview
     id="base"
     pagecolor="#ffffff"
     bordercolor="#666666"
     borderopacity="1.0"
     inkscape:pageopacity="0.0"
     inkscape:pageshadow="2"
     inkscape:zoom="11.2"
     inkscape:cx="29.882631"
     inkscape:cy="25.185208"
     inkscape:document-units="mm"
     inkscape:current-layer="layer4"
     inkscape:document-rotation="0"
     showgrid="false"
     inkscape:window-width="1920"
     inkscape:window-height="1001"
     inkscape:window-x="-9"
     inkscape:window-y="-9"
     inkscape:window-maximized="1" />
  <metadata
     id="metadata5">
    <rdf:RDF>
      <cc:Work
         rdf:about="">
        <dc:format>image/svg+xml</dc:format>
        <dc:type
           rdf:resource="http://purl.org/dc/dcmitype/StillImage" />
        <dc:title></dc:title>
      </cc:Work>
    </rdf:RDF>
  </metadata>
  <g
     inkscape:groupmode="layer"
     id="layer4"
     inkscape:label="Layer 1"
     transform="translate(-4.0293287,-2.8795637)">
    <path
       style="fill:#ffffff;fill-opacity:1;stroke:none;stroke-width:0.264583px;stroke-linecap:butt;stroke-linejoin:miter;stroke-opacity:1"
       d="m 17.442758,4.5133305 c 0,0 0.141741,-0.5197174 -1.511905,-0.9685642 C 14.277207,3.0959197 11.631374,3.2140372 8.7493057,6.4268347 5.8672371,9.6396325 5.8908607,9.2616562 5.5128846,9.8286204 5.1349083,10.395585 2.9645278,16.990875 6.0931518,17.46118 9.2217759,17.931485 13.946478,16.608568 14.253584,15.07304 14.560689,13.537512 18.978286,7.8206221 19.049157,7.2536579 19.120027,6.6866934 17.442758,4.5133305 17.442758,4.5133305 Z"
       id="path1213" />
  </g>
  <g
     inkscape:groupmode="layer"
     id="layer5"
     inkscape:label="Layer 2"
     transform="translate(-4.0293287,-2.8795637)">
    <g
       id="g1183"
       transform="translate(-0.09449371,-1.2284226)">
      <path
         style="fill:#e4f2f5;stroke-width:0.264583"
         d="M 5.923625,18.974947 C 4.3441282,18.667786 4.1238224,18.336865 4.1238224,16.27147 c 0,-3.190117 0.6171094,-4.959727 2.4985341,-7.164745 1.5865692,-1.8594493 3.4741315,-3.5738188 4.9666355,-4.5109227 1.063952,-0.6680266 4.380801,-0.6248257 5.562598,0.072452 2.162323,1.2758017 2.845492,3.887233 1.940778,7.4186757 -0.632597,2.469269 -1.727136,3.799515 -4.911555,5.969251 l -1.716967,1.169872 -2.7809491,-0.03043 C 8.1533746,19.178892 6.4617023,19.079586 5.923625,18.974947 Z m 3.9548847,-0.989611 c -0.2546615,-0.06655 -0.6713802,-0.06655 -0.9260416,0 -0.2546615,0.06655 -0.046302,0.121 0.4630208,0.121 0.5093229,0 0.7176821,-0.05445 0.4630208,-0.121 z M 6.1689515,16.572988 C 5.6747543,16.44765 5.6212142,16.245903 5.6423338,14.588613 c 0.022087,-1.733196 0.010059,-1.772791 -0.1987222,-0.654226 -0.2703385,1.448356 -0.3211867,3.291658 -0.096987,3.515858 0.090458,0.09046 0.4362659,-0.03853 0.7684619,-0.286632 0.598779,-0.447208 0.5992439,-0.452306 0.053865,-0.590625 z m 5.3632035,-2.331521 c 0.07276,-0.05953 -0.165364,-0.01983 -0.529166,0.08822 -0.773945,0.229864 -1.5246756,0.845015 -1.9100552,1.565103 -0.229538,0.428896 0.4917376,-0.05999 2.4392212,-1.653323 z m 0.492695,-1.75989 c 0.299729,-0.508004 0.936568,-1.175516 1.415197,-1.483359 0.478628,-0.307844 0.652136,-0.487516 0.385573,-0.399273 -0.266563,0.08824 -0.710303,0.160442 -0.986088,0.160442 -0.558223,0 -1.156637,0.812248 -1.413232,1.918229 -0.225434,0.971668 -0.05807,0.916853 0.59855,-0.196039 z M 10.149733,7.8489704 c 0.178249,0 0.324089,-0.238125 0.324089,-0.5291666 0,-0.2910417 -0.0449,-0.5291667 -0.09978,-0.5291667 -0.05488,0 -1.028964,1.0417969 -2.164639,2.3151041 L 6.1445442,11.420845 7.985094,9.6349079 C 8.9973964,8.6526423 9.971484,7.8489704 10.149733,7.8489704 Z m 7.938794,0.7886409 C 18.532585,7.92656 18.365362,7.9790261 17.603771,8.789702 c -0.349364,0.3718817 -0.456854,0.6077074 -0.238866,0.5240576 0.217988,-0.08365 0.543618,-0.3879165 0.723622,-0.6761483 z m -6.208998,-0.722495 c 0.08192,-0.4001823 0.308345,-0.942508 0.503178,-1.2051681 0.380972,-0.5135985 1.91625,-0.9611235 3.332251,-0.9713322 0.514998,-0.00371 0.808176,-0.1152607 0.711989,-0.2708955 -0.24273,-0.3927456 -3.979278,-0.335303 -4.302676,0.066146 -0.146535,0.1819011 -0.348596,0.7474479 -0.449025,1.2567708 -0.100428,0.5093229 -0.241262,1.134401 -0.312965,1.3890625 -0.0717,0.2546614 -0.01817,0.4630208 0.118972,0.4630208 0.137137,0 0.316361,-0.3274218 0.398276,-0.7276043 z"
         id="path1211" />
      <path
         style="fill:#d4ecee;stroke-width:0.264583"
         d="M 6.2043681,18.994573 C 4.382592,18.722727 4.1238224,18.398479 4.1238224,16.387577 c 0,-2.103196 0.6233355,-4.654668 1.4396296,-5.892773 0.8168936,-1.2390152 4.223033,-4.6282543 5.611131,-5.5832908 0.973442,-0.6697461 1.352598,-0.7667093 2.99807,-0.7667093 2.156777,0 2.992412,0.3408071 4.19557,1.7111284 1.057849,1.2048227 1.212328,1.8642932 1.006656,4.2973927 -0.287821,3.404917 -1.606281,5.446176 -5.064599,7.841083 -1.58714,1.099105 -1.588099,1.099363 -4.233333,1.141288 -1.4552081,0.02306 -3.1978687,-0.04044 -3.8725789,-0.141123 z m 5.0632039,-1.087938 c 0.271902,-0.173319 -0.08217,-0.227604 -1.124426,-0.17239 -0.836716,0.04433 -1.6007003,0.159991 -1.6977432,0.257033 -0.2775447,0.277545 2.3789662,0.19787 2.8221692,-0.08464 z M 6.1990129,16.51739 C 5.7516155,16.348164 5.690565,16.093273 5.7390096,14.596836 c 0.030722,-0.948987 -0.00376,-1.785052 -0.076631,-1.857921 -0.072869,-0.07287 -0.269897,0.83915 -0.4378399,2.026709 -0.3603413,2.54805 -0.1339625,3.164335 0.8824968,2.402477 0.5852744,-0.438676 0.5886889,-0.462833 0.091977,-0.650711 z m 4.1290551,-0.904989 c 0.277885,0.106635 0.410337,0.0024 0.410337,-0.322969 0,-0.264237 0.267891,-0.620615 0.595313,-0.791952 0.547354,-0.286424 0.526038,-0.300872 -0.264583,-0.179338 -0.999243,0.153603 -1.0754421,-0.08092 -0.308583,-0.949756 0.39173,-0.44382 0.50956,-0.492024 0.407069,-0.166529 -0.108512,0.344615 -0.0071,0.44293 0.409187,0.396875 0.700445,-0.07748 0.875949,0.762416 0.33275,1.592426 -0.214281,0.327422 -0.27371,0.595312 -0.132066,0.595312 0.141645,0 0.375638,-0.208359 0.519985,-0.463021 0.245881,-0.43379 0.287938,-0.429614 0.666191,0.06615 0.439341,0.575825 0.570808,0.248155 0.159234,-0.396875 -0.197314,-0.309236 -0.09417,-0.433782 0.467072,-0.564008 0.716801,-0.16632 0.716259,-0.167286 -0.111282,-0.198438 -1.085521,-0.04086 -1.276361,-0.614444 -0.487605,-1.465526 0.619911,-0.668895 1.186902,-0.892667 1.186902,-0.468431 0,0.117708 0.16734,0.442866 0.371867,0.722573 0.347832,0.475689 0.36294,0.461856 0.233739,-0.214014 -0.11777,-0.616074 -0.04584,-0.727883 0.488029,-0.758604 0.612659,-0.03525 0.613442,-0.03849 0.03633,-0.149974 -0.565294,-0.109205 -0.572292,-0.143471 -0.16827,-0.823865 l 0.421556,-0.709921 -0.678935,0.727604 c -0.695048,0.744872 -1.34152,0.930373 -1.62784,0.467096 -0.08855,-0.143279 0.231843,-0.509683 0.711989,-0.814232 0.729547,-0.462739 0.764305,-0.523613 0.211534,-0.370474 -0.363802,0.100787 -0.72099,0.1993 -0.79375,0.218919 -0.07276,0.01962 -0.191823,-0.08339 -0.264584,-0.228913 -0.07276,-0.145521 0.1549,-0.305159 0.505913,-0.354752 C 14.059847,9.946403 14.156796,9.8514773 13.92898,9.7106793 13.660484,9.54474 13.659615,9.3792185 13.924588,8.874806 14.246313,8.2623583 14.241273,8.2580017 13.732634,8.7088662 13.058456,9.3064661 12.948395,9.2927453 12.764133,8.5881289 12.680172,8.2670621 12.542766,8.0730823 12.458785,8.1570629 c -0.08398,0.083981 -0.01167,0.4622083 0.160697,0.8405061 0.361414,0.7932166 -0.05679,1.571489 -0.709796,1.320908 -0.209594,-0.08043 -0.377531,0.01064 -0.377531,0.204716 0,0.258747 -0.110193,0.239393 -0.424068,-0.07448 -0.480148,-0.4801474 -0.287257,-1.5414073 0.280161,-1.5414073 0.19228,0 0.426808,-0.4115596 0.521175,-0.9145769 0.244151,-1.3014381 1.172133,-1.9213065 3.201699,-2.1386546 2.374813,-0.2543209 1.873357,-0.650935 -0.823005,-0.650935 -2.160926,0 -2.248989,0.023927 -2.497927,0.6786827 -0.141919,0.3732752 -0.258035,1.0047628 -0.258035,1.4033057 0,0.7940014 -1.334847,2.2733018 -2.2489578,2.4923332 C 8.9414095,9.859355 9.0585215,9.9151212 9.6139264,9.9349451 10.55896,9.9686758 10.746497,10.510305 10.10551,11.354699 9.623449,11.989735 9.0276428,11.935178 8.6607766,11.222408 l -0.30641,-0.595313 0.1515158,0.595313 c 0.1291267,0.507345 0.041365,0.600637 -0.5939179,0.631344 -0.6239915,0.03016 -0.6484485,0.05471 -0.1501214,0.150693 0.653288,0.125829 0.7720742,0.589014 0.2778125,1.083275 -0.2469444,0.246945 -0.2456839,0.3175 0.00567,0.3175 0.1777446,0 0.4587935,-0.297656 0.6245529,-0.661458 0.3906631,-0.857412 0.9541443,-0.843322 1.2870105,0.03218 0.337437,0.887528 -0.022897,1.349767 -0.9994013,1.282036 -0.4881859,-0.03386 -0.5340006,-0.01295 -0.137314,0.06266 0.6513457,0.124158 0.7357292,0.333162 0.3307291,0.819162 -0.1924243,0.230909 -0.1779923,0.245341 0.052917,0.05292 C 9.8118829,14.486003 10.03316,14.732287 9.5009705,15.323449 8.65091,16.267706 8.4683345,16.774489 9.2270709,16.083726 9.62569,15.720818 10.091239,15.521521 10.328068,15.612401 Z M 10.18104,7.8489704 c 0.16103,0 0.292782,-0.3044428 0.292782,-0.6765395 0,-0.6183688 -0.121548,-0.5444326 -1.4136363,0.8598958 C 6.353837,10.973769 5.8764779,11.673039 7.8758685,9.7671995 8.9826821,8.7121735 10.020009,7.8489704 10.18104,7.8489704 Z m 7.487572,1.3890625 c 0.805824,-0.9383247 0.799596,-1.2335367 -0.01012,-0.4796655 -0.459069,0.4274079 -0.834671,0.814361 -0.834671,0.8598958 0,0.2465573 0.499636,0.021677 0.84479,-0.3802303 z"
         id="path1209" />
      <path
         style="fill:#b7e2e3;stroke-width:0.264583"
         d="M 6.391111,18.956701 C 4.2548178,18.68446 4.0331751,18.347474 4.2189734,15.654179 4.4742603,11.953588 4.896806,11.032164 7.6494301,8.1735634 10.908901,4.7886021 11.940664,4.1448039 14.105995,4.1448039 c 0.92207,0 2.061479,0.1608587 2.532021,0.3574637 1.171987,0.4896874 2.503292,2.0762944 2.722455,3.244535 0.282527,1.505994 -0.319214,5.0431034 -1.0783,6.3383844 -0.835986,1.426503 -3.302032,3.634584 -5.009448,4.485425 -1.410319,0.702792 -3.4836398,0.819114 -6.881612,0.386089 z m 5.273336,-1.053564 c 0.102666,-0.166117 -0.482322,-0.264584 -1.571885,-0.264584 -0.9805486,0 -1.7354064,0.115088 -1.7354064,0.264584 0,0.146699 0.7003504,0.264583 1.571885,0.264583 0.8645364,0 1.6454694,-0.119062 1.7354064,-0.264583 z M 6.3727806,16.963645 c 0.7925051,-0.65485 0.7927126,-0.655769 0.1322917,-0.585797 -0.6577219,0.06968 -0.6609373,0.05942 -0.5692516,-1.816427 0.057738,-1.181297 -0.016441,-1.953656 -0.1984374,-2.066136 -0.1598544,-0.0988 -0.2930028,-0.02377 -0.2958854,0.166716 -0.00288,0.190489 -0.1240856,1.168551 -0.26934,2.17347 -0.2518566,1.742429 -0.16505,2.814183 0.226265,2.793567 0.099334,-0.0052 0.5377953,-0.30466 0.9743577,-0.665393 z m 3.8567584,-1.441758 c 0.134356,0 0.244283,0.126089 0.244283,0.280198 0,0.154109 0.107885,0.213522 0.239744,0.132028 0.13186,-0.08149 0.183449,-0.363446 0.114642,-0.626562 -0.08575,-0.327917 0.09242,-0.577502 0.566455,-0.793486 0.965602,-0.439957 0.995916,-0.413881 0.541162,0.465516 -0.469522,0.907956 -0.493469,1.071473 -0.156916,1.071473 0.135715,0 0.325091,-0.24682 0.420837,-0.548489 0.168126,-0.529716 0.192053,-0.532226 0.699127,-0.07333 0.513309,0.464537 0.521003,0.459055 0.34423,-0.245262 -0.165092,-0.65778 -0.115056,-0.720772 0.575474,-0.724471 0.585534,-0.0031 0.666681,-0.06196 0.359412,-0.260532 -0.218282,-0.141064 -0.664766,-0.258303 -0.992188,-0.260532 -0.704129,-0.0048 -0.7654,-0.435898 -0.15743,-1.107697 0.580462,-0.641403 0.997903,-0.610292 1.495507,0.111458 0.384969,0.558378 0.402259,0.56139 0.27869,0.04854 -0.09348,-0.387976 0.04643,-0.632512 0.481734,-0.841988 0.47828,-0.230155 0.511438,-0.299161 0.150458,-0.313122 -0.57822,-0.02236 -0.58457,-0.238805 -0.02514,-0.856969 0.672593,-0.743207 0.0037,-0.574097 -0.702466,0.177604 -0.695648,0.740484 -1.322916,0.865938 -1.322916,0.264583 0,-0.218281 0.09631,-0.396875 0.214013,-0.396875 0.117708,0 0.44513,-0.176491 0.727604,-0.392202 0.479289,-0.366008 0.45616,-0.38147 -0.346305,-0.231511 -0.555796,0.103864 -0.859896,0.05543 -0.859896,-0.136964 0,-0.163789 0.416474,-0.297656 0.926042,-0.297656 0.509323,0 0.926042,-0.1190625 0.926042,-0.2645833 0,-0.1455208 -0.31611,-0.2645833 -0.702466,-0.2645833 -0.673476,0 -0.683683,-0.020754 -0.247347,-0.5028996 0.276612,-0.3056536 0.350961,-0.5672714 0.18956,-0.6670231 -0.146057,-0.090268 -0.391851,0.04674 -0.546208,0.3044622 C 13.39922,9.0152314 13.364122,9.0130856 12.990291,8.5297459 12.461258,7.8457385 12.162257,8.2053935 12.55087,9.0583064 12.925593,9.8807335 12.804634,10.127597 11.946562,10.291628 10.989455,10.47459 10.631912,9.9847375 11.236834,9.3192623 11.508933,9.0199259 11.871377,8.338054 12.042266,7.8039915 12.466502,6.4781663 12.799277,6.2657082 14.952188,5.9461699 15.977415,5.7940041 16.751386,5.5645727 16.672123,5.4363221 16.592863,5.3080716 15.527192,5.2031395 14.303974,5.2031395 c -2.45462,0 -2.77182,0.2066023 -2.77182,1.8053777 0,0.9892276 -0.933328,2.2042222 -1.284468,1.6721036 -0.2778458,-0.4210478 -0.7027865,0.058504 -0.4353231,0.4912686 0.089937,0.1455208 -0.08163,0.2645833 -0.3812601,0.2645833 -0.2996298,0 -0.5447816,0.1190625 -0.5447816,0.2645833 0,0.1455208 0.2906295,0.2645833 0.6458434,0.2645833 0.8755754,0 1.0726914,0.4220657 0.5614884,1.2022597 -0.5479359,0.836256 -0.8338428,0.819416 -1.3205801,-0.07778 l -0.3947318,-0.727604 -0.010594,0.727604 c -0.00869,0.596898 -0.129417,0.727604 -0.6720509,0.727604 -0.3638021,0 -0.6614584,0.119063 -0.6614584,0.264584 0,0.14552 0.3018454,0.264583 0.6707675,0.264583 0.5811795,0 0.6341861,0.06835 0.3968749,0.511773 -0.6066123,1.133465 -0.044523,1.125518 0.625561,-0.0088 0.403733,-0.683466 0.5419206,-0.760556 0.8299873,-0.463021 0.1900844,0.196333 0.3847378,0.595093 0.4325628,0.886135 0.071547,0.435398 -0.1005821,0.557676 -0.9713785,0.690058 -0.5820833,0.08849 -0.7974695,0.177787 -0.4786357,0.198438 0.6624782,0.04291 1.0167148,0.448213 0.6109273,0.699004 -0.1502682,0.09287 -0.2067932,0.276328 -0.1256114,0.407684 0.081182,0.131355 -0.065265,0.569612 -0.3254386,0.973905 L 8.226812,16.977143 9.1060335,16.249539 c 0.4835718,-0.400182 0.9891485,-0.727604 1.1235045,-0.727604 z m -0.0203,-1.29052 c 0,-0.450908 0.669577,-0.740016 1.322916,-0.571206 0.648827,0.167644 0.644283,0.176947 -0.237919,0.48715 -1.075145,0.378047 -1.084997,0.37881 -1.084997,0.08406 z M 9.9270673,8.0265228 c 0.5670507,-0.3766606 0.9887187,-1.500469 0.5629967,-1.500469 -0.190881,0 -3.6935921,3.8249892 -4.2219819,4.6104382 C 6.0649768,11.438407 6.6602893,10.958404 7.5909987,10.06982 8.5217079,9.1812345 9.5729387,8.2617511 9.9270673,8.0265228 Z M 17.844362,9.0828029 C 18.187378,8.716041 18.425503,8.3176184 18.373529,8.1974198 18.321555,8.0772212 17.80278,8.5038216 17.220697,9.1454205 16.635477,9.7904776 16.39892,10.186275 16.69153,10.030804 16.982572,9.8761653 17.501346,9.4495649 17.844362,9.0828029 Z"
         id="path1207" />
      <path
         style="fill:#a9d8db;stroke-width:0.264583"
         d="M 6.391111,18.968663 C 4.2549972,18.680161 4.0335368,18.342233 4.2189734,15.654179 4.4772769,11.909857 4.8626173,11.098536 7.8614706,7.9850205 9.3916923,6.3962902 10.988966,5.0009651 11.63594,4.6877704 12.865406,4.0925966 14.772967,3.98231 16.334751,4.4161063 c 1.242403,0.3450862 2.782997,2.0368683 3.02382,3.320567 0.233414,1.2442005 -0.274242,4.8875017 -0.831057,5.9642627 -0.682713,1.320222 -2.387395,3.009979 -4.283007,4.245508 -1.704422,1.110915 -1.832044,1.148695 -4.02225,1.190733 -1.2440871,0.02388 -2.9681027,-0.05195 -3.831146,-0.168514 z m 4.545732,-0.779186 c 1.65246,-0.04181 0.857823,-0.550924 -0.859896,-0.550924 -1.5891653,0 -1.996716,0.164048 -1.540628,0.620136 0.09854,0.09854 0.4854929,0.128174 0.8598958,0.06585 0.3744028,-0.06232 1.0676852,-0.1231 1.5406282,-0.135066 z M 6.4238029,17.043241 7.4311139,16.447929 6.6157512,16.368339 5.8003882,16.288749 5.924341,14.14754 c 0.1645528,-2.842552 -0.3163184,-2.551816 -0.7422515,0.448766 -0.2870742,2.022361 -0.2505564,3.042243 0.1089303,3.042243 0.06901,0 0.578762,-0.26789 1.1327831,-0.595312 z m 3.8945981,-1.253442 c 0.435434,0.435434 0.75475,0.293548 0.607406,-0.269896 -0.09136,-0.34935 0.0511,-0.664228 0.4162,-0.919956 0.721306,-0.505222 0.897342,-0.301959 0.454732,0.525065 -0.444119,0.829844 -0.09635,1.239504 0.448869,0.528751 0.280134,-0.365187 0.443955,-0.426443 0.529582,-0.198022 0.210084,0.560424 0.647219,0.365157 0.559534,-0.249943 -0.06128,-0.42988 0.08899,-0.628153 0.578681,-0.763513 0.645844,-0.178524 0.641029,-0.187484 -0.203943,-0.379543 -1.104522,-0.251055 -1.287299,-0.562148 -0.70701,-1.203361 0.466993,-0.516021 1.175537,-0.695928 1.175537,-0.298481 0,0.117708 0.186705,0.44513 0.414901,0.727605 0.398596,0.493408 0.409093,0.486184 0.26712,-0.183819 -0.118352,-0.558536 -0.02974,-0.735349 0.444995,-0.887941 0.502981,-0.16167 0.522636,-0.209262 0.129755,-0.314178 -0.574954,-0.153538 -0.588864,-0.444779 -0.04289,-0.897901 0.376223,-0.312237 0.357157,-0.371979 -0.182411,-0.571578 -0.331401,-0.122593 -0.952076,-0.146127 -1.379278,-0.0523 -0.535296,0.117571 -0.720468,0.07956 -0.595724,-0.122277 0.09955,-0.161082 0.531168,-0.292876 0.959143,-0.292876 0.427974,0 0.778135,-0.1190625 0.778135,-0.2645833 0,-0.1455208 -0.238125,-0.2645833 -0.529167,-0.2645833 -0.597878,0 -0.678324,-0.2741755 -0.216076,-0.7364235 C 14.74984,8.1767027 14.219127,7.99431 13.655961,8.5039687 13.177546,8.9369281 13.11587,8.9407172 12.964573,8.5464436 12.873209,8.3083543 12.624578,8.1135538 12.41206,8.1135538 c -0.278394,0 -0.335385,-0.1663973 -0.203894,-0.5953125 C 12.50991,6.5339762 12.840099,6.2950578 14.133478,6.1251241 16.38712,5.8290241 16.88695,5.6895982 16.626934,5.4295827 16.48988,5.2925288 15.376785,5.2152768 14.153388,5.2579115 L 11.92903,5.3354289 11.577872,6.5260538 C 11.044863,8.3332505 10.68771,8.9624413 10.373335,8.6480666 9.9307689,8.2055004 9.608627,8.3409383 9.756735,8.9073037 c 0.1015013,0.3881417 0.00812,0.5291667 -0.3504015,0.5291667 -0.2688296,0 -0.562366,0.1190625 -0.6523029,0.2645833 -0.095134,0.1539306 0.1684364,0.2645833 0.6302284,0.2645833 0.970182,0 1.215861,0.334112 0.770298,1.047571 C 9.7147779,11.717407 9.2481386,11.697661 8.8457,10.957825 L 8.5218762,10.362512 8.3625234,11.02397 c -0.10024,0.416088 -0.3761623,0.692822 -0.7438183,0.746007 -0.804881,0.116432 -0.7385589,0.57691 0.083092,0.57691 0.6512473,0 0.6569683,0.01616 0.2341536,0.661458 -0.4011954,0.612302 -0.4012271,0.661459 -4.233e-4,0.661459 0.2381374,0 0.5685983,-0.297657 0.7343576,-0.661459 0.3622148,-0.794975 0.9115904,-0.85977 1.1417316,-0.134659 0.2366844,0.745739 -0.042705,1.060701 -0.9409089,1.060701 -0.4279744,0 -0.778135,0.119062 -0.778135,0.264583 0,0.145521 0.2300025,0.264584 0.5111167,0.264584 0.6425044,0 0.5915345,0.944356 -0.1086456,2.012966 L 8.011161,17.215018 9.0341537,16.371781 C 9.7074592,15.816786 10.14645,15.617848 10.318401,15.789799 Z m 0.155421,-1.815148 c 0,-0.123375 0.382248,-0.235187 0.84944,-0.24847 0.616272,-0.01752 0.743369,0.04294 0.463021,0.220267 -0.486513,0.307731 -1.312461,0.325479 -1.312461,0.0282 z m 2.910417,-2.643628 c 0,-0.195221 1.132158,-0.836219 1.476967,-0.836219 0.07103,0 0.0017,0.238125 -0.154051,0.529166 -0.274362,0.512652 -1.322916,0.756024 -1.322916,0.307053 z m -2.38125,-1.5059816 c 0,-0.2228482 0.178594,-0.4737115 0.396875,-0.5574741 0.218281,-0.083762 0.396875,-0.3181506 0.396875,-0.5208627 0,-0.501265 0.434792,-0.4669658 0.633151,0.049947 0.379316,0.9884817 0.182738,1.4335684 -0.633151,1.4335684 -0.536397,0 -0.79375,-0.131369 -0.79375,-0.4051786 z M 7.9216157,9.842033 C 8.9189956,8.9013882 9.9607925,8.0601164 10.23672,7.9725406 c 0.504599,-0.1601541 0.74091,-1.4464868 0.265732,-1.4464868 -0.253658,0 -4.5265464,4.5908942 -4.5265464,4.8634312 0,0.276234 0.076748,0.215195 1.9457101,-1.547452 z M 17.739644,9.1483587 c 0.537569,-0.5950243 0.908611,-1.1506493 0.824538,-1.2347222 -0.08407,-0.084073 -0.182626,-0.101423 -0.219006,-0.038555 -0.03638,0.062868 -0.536793,0.6184932 -1.11203,1.2347223 -0.575236,0.6162291 -0.916512,1.1204162 -0.758391,1.1204162 0.15812,0 0.727321,-0.4868378 1.264889,-1.0818613 z"
         id="path1205" />
      <path
         style="fill:#90cfd1;stroke-width:0.264583"
         d="M 6.3727806,18.9314 C 5.3969206,18.789939 4.6578558,18.528036 4.4545515,18.251636 3.6928328,17.216051 4.4394031,12.140265 5.5998237,10.465155 6.649339,8.9501403 10.497958,5.3315302 11.720052,4.710695 c 3.138036,-1.5941506 7.161167,0.136552 7.633106,3.2836703 0.271094,1.8077817 -0.462257,5.2475977 -1.404615,6.5884097 -0.884664,1.258723 -3.445382,3.380327 -4.971865,4.119285 -1.183491,0.572918 -3.6442421,0.658375 -6.6038974,0.22934 z m 4.6963544,-0.668919 c 1.620993,-0.267934 1.130363,-0.623928 -0.859896,-0.623928 -1.4699076,0 -1.8520834,0.08189 -1.8520834,0.396875 0,0.433499 0.9711052,0.514802 2.7119794,0.227053 z m -4.1671877,-1.497258 0.79375,-0.4284 -0.9280033,-0.01059 -0.9280033,-0.01059 0.093188,-2.182813 c 0.1078368,-2.52592 -0.2763925,-2.570015 -0.7293155,-0.0837 -0.374234,2.054356 -0.3615811,3.143421 0.041201,3.546203 0.2598669,0.259867 0.3823618,0.2522 0.5953125,-0.03726 0.1474663,-0.200447 0.625308,-0.557229 1.0618705,-0.792849 z m 3.3072917,-1.000985 c 0,0.157748 0.19248,0.286816 0.427733,0.286816 0.298399,0 0.385618,-0.161053 0.288448,-0.53263 -0.09097,-0.347885 0.02995,-0.6232 0.348623,-0.79375 0.770969,-0.41261 0.880633,-0.310713 0.420834,0.391029 -0.548915,0.83775 -0.538286,0.935351 0.101862,0.935351 0.32165,0 0.529166,-0.176389 0.529166,-0.449792 0,-0.349838 0.07056,-0.379236 0.3175,-0.132292 0.489389,0.489388 0.782683,0.377737 0.691319,-0.263172 -0.06128,-0.42988 0.08899,-0.628153 0.578681,-0.763513 0.647104,-0.178872 0.642798,-0.187085 -0.198437,-0.378442 -0.965514,-0.219627 -1.066089,-0.521407 -0.413934,-1.24203 0.43214,-0.477509 0.46554,-0.469953 1.077555,0.243749 0.590547,0.688667 0.623297,0.69762 0.503944,0.137758 -0.08899,-0.417444 0.0362,-0.686465 0.413399,-0.888335 0.38857,-0.207957 0.449536,-0.346116 0.216332,-0.490245 -0.254771,-0.157457 -0.250381,-0.319714 0.02038,-0.753278 0.549124,-0.879287 0.03577,-1.004926 -0.806995,-0.197506 -0.423352,0.405598 -0.928126,0.684001 -1.121719,0.618674 -0.214501,-0.07238 -0.02864,-0.286632 0.475846,-0.548515 1.279169,-0.664034 1.513294,-1.9964284 0.294818,-1.6777897 -0.403392,0.1054894 -0.46193,0.065048 -0.234723,-0.1621583 0.389934,-0.3899324 0.390623,-0.9906132 0.0011,-0.9906132 -0.165858,0 -0.448427,0.2008515 -0.62793,0.4463367 C 13.215276,8.9671636 13.170107,8.9539109 12.996989,8.4084636 12.88015,8.0403362 12.663986,7.8656821 12.434294,7.9538232 11.982232,8.1272957 11.976341,8.0603815 12.368005,7.2007738 12.684186,6.5068329 13.909001,6.00123 15.280828,5.9983627 c 0.871109,-0.00182 1.542994,-0.245211 1.542994,-0.5589497 0,-0.1299517 -1.041797,-0.2336284 -2.315104,-0.2303925 -1.94383,0.00494 -2.421183,0.093484 -2.976563,0.5521264 -0.363802,0.3004335 -0.519682,0.4737118 -0.346401,0.3850629 0.228537,-0.1169178 0.272949,0.1129175 0.161723,0.8369361 C 11.156255,8.2278987 10.800158,8.6979792 10.194151,8.5056401 9.6314211,8.3270365 9.266873,8.7842243 9.7392349,9.07616 9.9681529,9.2176391 9.8726558,9.3285479 9.4324376,9.4324694 8.4564246,9.6628749 8.4286904,10.23022 9.3934404,10.23022 c 0.5165375,0 0.8157986,0.133703 0.8157986,0.364478 0,0.46645 -0.8464975,1.184914 -0.9733697,0.826147 -0.051461,-0.145521 -0.210693,-0.443177 -0.3538481,-0.661458 -0.2265141,-0.345385 -0.2923437,-0.347025 -0.5074076,-0.01263 -0.1359189,0.211333 -0.1955914,0.467626 -0.1326057,0.569539 0.062986,0.101914 -0.272292,0.336805 -0.7450622,0.521982 l -0.8595817,0.336685 0.7276041,0.103538 c 0.801557,0.114062 0.8955987,0.313649 0.396875,0.842296 -0.2526115,0.267769 -0.2561222,0.378046 -0.014864,0.466886 0.1737262,0.06397 0.2502847,0.287214 0.17013,0.496094 -0.1046901,0.27282 0.057654,0.379781 0.5764278,0.379781 0.6274427,0 0.6767661,0.0547 0.3760499,0.41704 -0.2825062,0.340399 -0.2832687,0.45588 -0.00415,0.628385 0.239505,0.148023 0.2546524,0.265307 0.050555,0.391446 -0.1602745,0.09905 -0.4276756,0.434718 -0.594225,0.745918 -0.2400914,0.448615 -0.075969,0.386152 0.7923273,-0.301551 0.6023287,-0.477054 1.0951439,-0.738303 1.0951439,-0.580554 z m 0.359596,-1.748475 c 0.100764,-0.100764 0.448029,-0.22016 0.771701,-0.265324 0.467017,-0.06517 0.506571,-0.02818 0.191619,0.179156 -0.449399,0.295851 -1.244086,0.366935 -0.96332,0.08617 z M 8.3630388,13.753524 c 0.00967,-0.354929 1.0044412,-1.54284 1.1609414,-1.38634 0.079575,0.07958 0.1770152,0.434984 0.2165332,0.789797 0.058889,0.528742 -0.059402,0.660217 -0.6557537,0.728834 -0.4001823,0.04605 -0.7249567,-0.01349 -0.7217209,-0.132291 z M 11.121646,9.9435761 c -0.06794,-0.1099235 0.05617,-0.379549 0.275786,-0.599168 0.219619,-0.2196187 0.403094,-0.5566394 0.407721,-0.7489346 0.0052,-0.2163196 0.159446,-0.1498153 0.404523,0.174421 0.217859,0.2882268 0.362901,0.6951263 0.322314,0.9042207 -0.0775,0.3992878 -1.197817,0.6133358 -1.410344,0.2694609 z M 7.8729181,9.975588 C 8.8941589,8.9624151 9.9566737,8.0614232 10.234063,7.9733833 c 0.510473,-0.1620181 0.743751,-1.4473295 0.262683,-1.4473295 -0.279048,0 -4.1801092,4.1363392 -4.5539881,4.8286452 -0.4575879,0.847309 0.055623,0.480617 1.9301602,-1.379111 z M 17.672562,9.2504821 C 18.593066,8.3516343 18.984457,7.6780628 18.461313,7.8930677 18.100779,8.0412418 16.218059,10.23022 16.45115,10.23022 c 0.119938,0 0.669574,-0.4408817 1.221412,-0.9797379 z"
         id="path1203" />
      <path
         style="fill:#6eb9c3;stroke-width:0.264583"
         d="M 6.3727806,18.9314 C 5.3969206,18.789939 4.6578558,18.528036 4.4545515,18.251636 3.6928328,17.216051 4.4394031,12.140265 5.5998237,10.465155 6.649339,8.9501403 10.497958,5.3315302 11.720052,4.710695 c 3.138036,-1.5941506 7.161167,0.136552 7.633106,3.2836703 0.271094,1.8077817 -0.462257,5.2475977 -1.404615,6.5884097 -0.884664,1.258723 -3.445382,3.380327 -4.971865,4.119285 -1.183491,0.572918 -3.6442421,0.658375 -6.6038974,0.22934 z m 6.3804284,-0.928144 c 1.196817,-0.567927 1.384121,-0.925425 0.379599,-0.724521 -0.688858,0.137772 -0.806903,0.08229 -0.806903,-0.379219 0,-0.851358 0.276773,-1.356344 0.662303,-1.208402 0.221627,0.08505 0.38652,-0.09428 0.441124,-0.479728 0.04796,-0.338547 0.236027,-0.630424 0.417928,-0.648614 0.630431,-0.06304 0.658596,-0.101038 0.350278,-0.472538 -0.344107,-0.414623 0.0469,-0.838699 0.509617,-0.552722 0.148804,0.09197 0.264584,-0.119258 0.264584,-0.482693 0,-0.437109 0.192634,-0.708083 0.595312,-0.83741 0.504166,-0.161922 0.524421,-0.210127 0.132292,-0.314842 -0.254662,-0.06801 -0.462963,-0.204214 -0.462891,-0.302684 2.08e-4,-0.286856 2.662723,-2.4991702 2.819303,-2.3425908 0.07809,0.078095 -0.226673,0.6778257 -0.677263,1.3327348 -0.450589,0.65491 -0.819253,1.286228 -0.819253,1.402929 0,0.116702 0.326366,-0.261938 0.725257,-0.841421 l 0.725257,-1.053606 0.142915,0.926041 0.142914,0.926042 0.18725,-1.058333 c 0.102987,-0.582084 0.185007,-1.5941149 0.182266,-2.2489586 l -0.005,-1.1906249 -0.984292,1.1285756 c -0.54136,0.6207165 -1.061941,1.1267321 -1.156846,1.1244792 -0.297004,-0.00705 -0.753486,-1.6252174 -0.753486,-2.6710097 0,-0.8029017 0.106558,-1.017144 0.539647,-1.0849972 C 16.601942,5.9026421 16.869832,5.745533 16.900448,5.6000122 16.933301,5.4438588 16.000046,5.3039934 14.623182,5.2587219 11.726733,5.1634867 11.392857,5.345084 8.1345584,8.7879269 5.8623507,11.188829 5.752175,11.361896 5.3432753,13.17256 4.7899297,15.62285 4.7696941,17.878018 5.301754,17.799928 5.5130539,17.768916 5.900007,17.557993 6.1616498,17.33121 6.4232925,17.104427 6.875489,16.786769 7.1665306,16.625303 7.6289535,16.368757 7.5677715,16.330713 6.6814613,16.323683 5.9907824,16.318203 5.7020598,16.210129 5.7764193,15.984908 5.84415,15.779764 6.5097464,15.624159 7.5292717,15.575122 l 1.6436586,-0.07906 -0.8047625,1.110942 c -0.4426191,0.611018 -0.8047622,1.271672 -0.8047622,1.468119 0,0.542012 4.0132624,0.486435 5.1898034,-0.07187 z M 6.8274488,11.642753 c -0.2311254,-0.09494 -0.025675,-0.489385 0.6453034,-1.238928 1.3403408,-1.4972809 1.508765,-1.4970689 0.9210095,0.0012 -0.4858961,1.238581 -0.8547385,1.530057 -1.5663129,1.23777 z M 16.265521,15.4247 c 0.22837,-0.275169 0.204456,-0.441266 -0.0999,-0.693855 -0.339827,-0.282032 -0.400137,-0.227506 -0.400137,0.36177 0,0.789849 0.07744,0.841279 0.500032,0.332085 z"
         id="path1201" />
      <path
         style="fill:#9ba2a2;stroke-width:0.264583"
         d="M 6.3727806,18.9314 C 5.3969206,18.789939 4.6578558,18.528036 4.4545515,18.251636 3.6928328,17.216051 4.4394031,12.140265 5.5998237,10.465155 6.649339,8.9501403 10.497958,5.3315302 11.720052,4.710695 c 3.138036,-1.5941506 7.161167,0.136552 7.633106,3.2836703 0.271094,1.8077817 -0.462257,5.2475977 -1.404615,6.5884097 -0.884664,1.258723 -3.445382,3.380327 -4.971865,4.119285 -1.183491,0.572918 -3.6442421,0.658375 -6.6038974,0.22934 z m 6.8980774,-1.185625 c 1.352121,-0.792396 1.8907,-1.414125 0.684808,-0.790534 -1.004023,0.519201 -1.629761,0.5359 -1.629761,0.04349 0,-0.736927 0.329327,-1.212265 0.839887,-1.212265 0.398284,0 0.479702,-0.122837 0.350738,-0.529166 -0.132823,-0.41849 -0.04754,-0.529167 0.407729,-0.529167 0.489332,0 0.549518,-0.104232 0.401264,-0.694923 -0.140217,-0.55867 -0.09396,-0.664052 0.235901,-0.537471 0.299024,0.114747 0.410315,-0.01133 0.410315,-0.464843 0,-0.41554 0.19027,-0.672052 0.572677,-0.772054 0.451348,-0.11803 0.508658,-0.226899 0.270502,-0.513859 -0.29856,-0.359743 0.366657,-1.164522 1.919589,-2.3223181 0.452084,-0.337054 0.487126,-0.3353961 0.291695,0.013801 -0.122164,0.2182812 -0.485075,0.7540621 -0.806469,1.1906251 -0.321395,0.436562 -0.670234,1.091406 -0.775198,1.455208 -0.172334,0.597305 -0.141693,0.584475 0.315927,-0.132292 0.278724,-0.436562 0.704659,-0.957156 0.946524,-1.156876 0.391618,-0.323379 0.442662,-0.279938 0.46633,0.396875 0.02322,0.663991 0.05899,0.626303 0.283183,-0.298332 C 18.814845,9.4137318 18.599784,7.117569 18.058656,6.6439672 17.817099,6.432554 17.738099,6.40288 17.8831,6.5780249 c 0.463445,0.5597876 0.270069,1.3791167 -0.534138,2.2631322 -0.430245,0.4729435 -0.834935,0.8598966 -0.89931,0.8598966 -0.23183,0 -0.754496,-2.8746687 -0.597197,-3.2845837 0.0929,-0.2420834 0.468329,-0.4195828 0.887468,-0.4195828 0.661921,0 0.689341,-0.037118 0.308645,-0.4178136 C 16.732864,5.2633696 16.098845,5.1647358 14.45428,5.1754827 11.743297,5.1931992 11.336485,5.424558 8.1434519,8.7645285 5.8594448,11.153642 5.7435758,11.333229 5.3392867,13.110752 c -0.2319428,1.019775 -0.4217144,2.501356 -0.4217144,3.292402 0,1.260584 0.072117,1.457124 0.5837582,1.590921 0.3210668,0.08396 0.6385668,0.09785 0.7055553,0.03086 0.066989,-0.06699 -0.031687,-0.121797 -0.2192797,-0.121797 -0.5093891,0 0.193114,-0.774606 1.0357593,-1.142067 C 7.6806544,16.47444 7.673131,16.465798 6.6871109,16.37481 5.1403891,16.232081 5.6335348,15.6675 7.3858712,15.57483 c 0.8252481,-0.04364 1.500451,-0.0059 1.500451,0.0838 0,0.08973 -0.2976562,0.553397 -0.6614583,1.030366 -1.1696628,1.533507 -0.9763212,1.743309 1.6065314,1.743309 1.9639017,0 2.4250587,-0.09205 3.4394627,-0.686528 z M 6.7696556,11.340456 c 0,-0.116974 0.4346112,-0.62299 0.9658025,-1.124479 C 8.3609579,9.625453 8.6402399,9.4759859 8.5280798,9.7917796 8.4328304,10.05996 8.282968,10.565976 8.1950525,10.916259 8.0819363,11.36695 7.8502192,11.553137 7.402431,11.553137 c -0.3480266,0 -0.6327754,-0.09571 -0.6327754,-0.212681 z m 9.6132564,3.500628 c -0.238475,-0.621457 -0.617423,-0.427311 -0.617423,0.316325 0,0.574036 0.06582,0.63923 0.381148,0.37753 0.209631,-0.173978 0.315955,-0.486213 0.236275,-0.693855 z"
         id="path1199" />
      <path
         style="fill:#5a9cab;stroke-width:0.264583"
         d="M 6.9019473,18.92332 C 4.046473,18.572621 3.7285362,17.898994 4.5044527,13.843645 5.0232393,11.132193 5.4169683,10.477085 8.2011191,7.692934 11.188163,4.7058901 11.92011,4.2904398 14.18082,4.2988787 c 2.832548,0.010573 4.514156,1.160128 5.029631,3.4382772 0.30364,1.341946 -0.17137,4.6678051 -0.863133,6.0433491 -0.671656,1.335564 -2.632698,3.221356 -4.525854,4.352187 -1.245321,0.743862 -1.786939,0.901506 -3.279552,0.954554 -0.9833349,0.03495 -2.6213189,-0.03882 -3.6399647,-0.163926 z m 6.3689107,-1.177545 c 1.352121,-0.792396 1.8907,-1.414125 0.684808,-0.790534 -1.004023,0.519201 -1.629761,0.5359 -1.629761,0.04349 0,-0.736927 0.329327,-1.212265 0.839887,-1.212265 0.398284,0 0.479702,-0.122837 0.350738,-0.529166 -0.132823,-0.41849 -0.04754,-0.529167 0.407729,-0.529167 0.489332,0 0.549518,-0.104232 0.401264,-0.694923 -0.140217,-0.55867 -0.09396,-0.664052 0.235901,-0.537471 0.299024,0.114747 0.410315,-0.01133 0.410315,-0.464843 0,-0.41554 0.19027,-0.672052 0.572677,-0.772054 0.451348,-0.11803 0.508658,-0.226899 0.270502,-0.513859 -0.29856,-0.359743 0.366657,-1.164522 1.919589,-2.3223181 0.452084,-0.337054 0.487126,-0.3353961 0.291695,0.013801 -0.122164,0.2182812 -0.485075,0.7540621 -0.806469,1.1906251 -0.321395,0.436562 -0.670234,1.091406 -0.775198,1.455208 -0.172334,0.597305 -0.141693,0.584475 0.315927,-0.132292 0.278724,-0.436562 0.704659,-0.957156 0.946524,-1.156876 0.391618,-0.323379 0.442662,-0.279938 0.46633,0.396875 0.02322,0.663991 0.05899,0.626303 0.283183,-0.298332 C 18.814845,9.4137318 18.599784,7.117569 18.058656,6.6439672 17.817099,6.432554 17.738099,6.40288 17.8831,6.5780249 c 0.463445,0.5597876 0.270069,1.3791167 -0.534138,2.2631322 -0.430245,0.4729435 -0.834935,0.8598966 -0.89931,0.8598966 -0.23183,0 -0.754496,-2.8746687 -0.597197,-3.2845837 0.09102,-0.2372048 0.466213,-0.4195828 0.863168,-0.4195828 0.576544,0 0.64638,-0.06721 0.390365,-0.375689 C 16.673796,5.1004381 13.222633,4.8042765 12.193614,5.1996426 11.757051,5.367377 10.135291,6.7804742 8.5897024,8.3398585 5.8058246,11.148585 5.7755097,11.192826 5.3485566,13.069996 c -0.2370412,1.042191 -0.4309843,2.542112 -0.4309843,3.333158 0,1.260584 0.072117,1.457124 0.5837582,1.590921 0.3210668,0.08396 0.6385668,0.09785 0.7055553,0.03086 0.066989,-0.06699 -0.031687,-0.121797 -0.2192797,-0.121797 -0.5093891,0 0.193114,-0.774606 1.0357593,-1.142067 C 7.6806544,16.47444 7.673131,16.465798 6.6871109,16.37481 5.1403891,16.232081 5.6335348,15.6675 7.3858712,15.57483 c 0.8252481,-0.04364 1.500451,-0.0059 1.500451,0.0838 0,0.08973 -0.2976562,0.553397 -0.6614583,1.030366 -1.1696628,1.533507 -0.9763212,1.743309 1.6065314,1.743309 1.9639017,0 2.4250587,-0.09205 3.4394627,-0.686528 z M 6.7696556,11.340456 c 0,-0.116974 0.4346112,-0.62299 0.9658025,-1.124479 C 8.3609579,9.625453 8.6402399,9.4759859 8.5280798,9.7917796 8.4328304,10.05996 8.282968,10.565976 8.1950525,10.916259 8.0819363,11.36695 7.8502192,11.553137 7.402431,11.553137 c -0.3480266,0 -0.6327754,-0.09571 -0.6327754,-0.212681 z m 9.6132564,3.500628 c -0.238475,-0.621457 -0.617423,-0.427311 -0.617423,0.316325 0,0.574036 0.06582,0.63923 0.381148,0.37753 0.209631,-0.173978 0.315955,-0.486213 0.236275,-0.693855 z"
         id="path1197" />
      <path
         style="fill:#2d93a7;stroke-width:0.264583"
         d="M 6.9019473,18.92332 C 4.046473,18.572621 3.7285362,17.898994 4.5044527,13.843645 5.0232393,11.132193 5.4169683,10.477085 8.2011191,7.692934 11.188163,4.7058901 11.92011,4.2904398 14.18082,4.2988787 c 2.832548,0.010573 4.514156,1.160128 5.029631,3.4382772 0.30364,1.341946 -0.17137,4.6678051 -0.863133,6.0433491 -0.671656,1.335564 -2.632698,3.221356 -4.525854,4.352187 -1.245321,0.743862 -1.786939,0.901506 -3.279552,0.954554 -0.9833349,0.03495 -2.6213189,-0.03882 -3.6399647,-0.163926 z m 6.8212987,-1.437451 c 0.832192,-0.52054 1.513076,-0.985351 1.513076,-1.032914 0,-0.04756 -0.589865,0.137652 -1.310811,0.41159 -0.720946,0.273938 -1.370046,0.402224 -1.442445,0.28508 -0.27789,-0.449634 0.181351,-1.363155 0.685278,-1.363155 0.395732,0 0.476958,-0.123445 0.348186,-0.529166 -0.132955,-0.418907 -0.04754,-0.529167 0.409905,-0.529167 0.454911,0 0.54725,-0.117031 0.434009,-0.550066 -0.105035,-0.401654 -0.04197,-0.510974 0.233725,-0.405179 0.260934,0.10013 0.37757,-0.04691 0.37757,-0.475996 0,-0.343789 0.265682,-0.807203 0.595312,-1.038371 0.43945,-0.308184 0.509712,-0.475972 0.268365,-0.640862 -0.232288,-0.158701 0.03582,-0.525249 0.926042,-1.26603 1.329281,-1.1061412 1.322018,-1.0363449 -0.110501,1.061938 -0.195966,0.287041 -0.35104,0.763291 -0.344608,1.058333 0.0088,0.403366 0.135613,0.302039 0.51123,-0.408463 0.274745,-0.519698 0.686201,-1.099823 0.914348,-1.289168 0.363954,-0.302055 0.41865,-0.218646 0.446116,0.680321 0.03068,1.004243 0.03531,1.008826 0.233279,0.230835 0.111086,-0.436563 0.215277,-1.567657 0.231536,-2.5135419 0.02322,-1.3508318 -0.08958,-1.8900809 -0.52577,-2.5135416 -0.305432,-0.4365625 -0.46793,-0.555625 -0.361107,-0.2645833 0.469001,1.2778072 0.417456,1.5962632 -0.382307,2.3619612 -0.444903,0.4259535 -0.878456,0.7049214 -0.963449,0.6199283 -0.212692,-0.2126925 -0.587632,-3.0830916 -0.424085,-3.2466385 0.07267,-0.072669 0.435452,-0.132126 0.806184,-0.132126 0.622597,0 0.641187,-0.03287 0.243502,-0.4305554 C 16.754591,5.2850966 15.969666,5.090299 14.772542,5.0046455 12.383545,4.8337135 11.563927,5.2278419 8.9174952,7.8201544 6.05022,10.628794 5.5484723,11.477788 5.0524572,14.360086 c -0.5194131,3.01826 -0.3108105,3.820644 0.9830456,3.78126 0.7981439,-0.02429 0.8143028,-0.04104 0.2049862,-0.212395 L 5.5790307,17.742929 6.240489,17.326192 c 0.363802,-0.229205 0.8995833,-0.546725 1.1906249,-0.7056 0.4493781,-0.245309 0.3516374,-0.290077 -0.6482291,-0.296909 -1.551256,-0.0106 -1.0766446,-0.424461 0.714375,-0.622934 1.5230871,-0.168783 1.6295512,-0.08192 0.8949126,0.730127 C 8.12039,16.731296 7.689978,17.304517 7.435701,17.704699 l -0.4623215,0.727604 h 2.6183954 c 2.5448141,0 2.6609151,-0.0266 4.1314711,-0.946434 z M 6.7696556,11.358858 c 0,-0.127096 0.4195083,-0.637686 0.9322406,-1.134646 L 8.6341365,9.3206493 8.2720029,10.370747 c -0.2504268,0.726176 -0.5379934,1.076179 -0.9322403,1.134646 -0.3135588,0.0465 -0.570107,-0.01944 -0.570107,-0.146535 z M 17.65625,13.802095 c 0.142905,-0.291041 -0.101789,-0.112448 -0.543766,0.396875 l -0.803594,0.926042 -0.0071,-0.778174 c -0.0068,-0.741386 -0.02548,-0.753894 -0.395578,-0.264583 -0.213653,0.282475 -0.392247,0.864368 -0.396875,1.293097 l -0.0084,0.779507 0.947758,-0.911799 c 0.521267,-0.501489 1.064681,-1.149923 1.207587,-1.440965 z"
         id="path1195" />
      <path
         style="fill:#5b6666;stroke-width:0.264583"
         d="M 6.9019473,18.92332 C 4.046473,18.572621 3.7285362,17.898994 4.5044527,13.843645 5.0232393,11.132193 5.4169683,10.477085 8.2011191,7.692934 11.188163,4.7058901 11.92011,4.2904398 14.18082,4.2988787 c 2.832548,0.010573 4.514156,1.160128 5.029631,3.4382772 0.30364,1.341946 -0.17137,4.6678051 -0.863133,6.0433491 -0.671656,1.335564 -2.632698,3.221356 -4.525854,4.352187 -1.245321,0.743862 -1.786939,0.901506 -3.279552,0.954554 -0.9833349,0.03495 -2.6213189,-0.03882 -3.6399647,-0.163926 z m 6.8358817,-1.446573 c 1.576669,-0.986213 1.902374,-1.520376 0.477887,-0.783744 -1.07635,0.556602 -1.999809,0.5555 -1.785826,-0.0021 0.08833,-0.23017 0.160599,-0.514597 0.160599,-0.632047 0,-0.11745 0.208359,-0.197009 0.463021,-0.176798 0.330936,0.02627 0.445041,-0.133074 0.399994,-0.558565 -0.04751,-0.44877 0.07406,-0.595312 0.493879,-0.595312 0.433698,0 0.525082,-0.121696 0.413061,-0.550066 -0.105035,-0.401654 -0.04197,-0.510974 0.233725,-0.405179 0.358663,0.137632 0.487014,-0.121286 0.401901,-0.810741 -0.0211,-0.170928 0.08385,-0.386314 0.233235,-0.478636 0.176212,-0.108905 0.2716,0.506322 0.2716,1.751743 v 1.919601 L 16.460286,15.24306 C 17.810937,13.959398 18.439884,12.395634 18.611282,9.8949951 18.772489,7.5430312 18.441483,6.561141 17.172972,5.6284231 16.170321,4.8911879 13.243317,4.7294926 11.956265,5.340239 c -1.156199,0.5486521 -4.78989,4.0317106 -5.7915238,5.55144 -0.86458,1.311784 -1.672894,5.494841 -1.2677235,6.56052 0.2967532,0.78052 0.7236679,0.863886 4.7913328,0.935627 2.4718535,0.0436 2.5520875,0.02555 4.0494785,-0.911079 z M 6.5712181,17.951019 C 5.6885049,17.825448 5.8475901,17.404622 6.9680931,16.90117 l 0.9921875,-0.445799 -0.9921875,-0.08584 c -1.45215,-0.125632 -1.2105703,-0.515049 0.396875,-0.639747 0.7639844,-0.05927 1.4148633,-0.09457 1.4463979,-0.07844 0.031534,0.01612 -0.3256531,0.559199 -0.7937499,1.206839 -0.6416887,0.887813 -0.9975533,1.156689 -1.446398,1.092838 z m 9.7234369,-3.867116 c 0,-1.100255 0.473631,-2.001599 1.051785,-2.001599 0.692838,0 0.687544,0.617917 -0.01503,1.754707 -0.649422,1.050787 -1.036754,1.143026 -1.036754,0.246892 z"
         id="path1193" />
      <path
         style="fill:#1c678e;stroke-width:0.264583"
         d="M 7.441547,18.885706 C 4.8337526,18.647565 4.5011629,18.489671 4.2559855,17.373385 3.97537,16.095751 4.8483417,11.821841 5.6339555,10.627095 6.6396793,9.0976103 10.524527,5.3649233 11.682559,4.8154012 c 1.324635,-0.6285807 4.734312,-0.4730983 5.706491,0.2602174 1.486882,1.1215573 1.684584,1.6530772 1.672098,4.4954347 -0.01446,3.2912907 -0.523452,4.4931707 -2.792532,6.5939377 -3.005754,2.782799 -4.180877,3.145 -8.827069,2.720715 z m 6.43059,-1.426458 c 1.487758,-0.965367 1.716912,-1.476424 0.343579,-0.766245 -1.07635,0.556602 -1.999809,0.5555 -1.785826,-0.0021 0.08833,-0.23017 0.160599,-0.514597 0.160599,-0.632047 0,-0.11745 0.208359,-0.197009 0.463021,-0.176798 0.330936,0.02627 0.445041,-0.133074 0.399994,-0.558565 -0.04751,-0.44877 0.07406,-0.595312 0.493879,-0.595312 0.433698,0 0.525082,-0.121696 0.413061,-0.550066 -0.105035,-0.401654 -0.04197,-0.510974 0.233725,-0.405179 0.358663,0.137632 0.487014,-0.121286 0.401901,-0.810741 -0.0211,-0.170928 0.08385,-0.386314 0.233235,-0.478636 0.175947,-0.108741 0.2716,0.489915 0.2716,1.69984 0,1.039101 0.114652,1.867699 0.258431,1.867699 0.142137,0 0.727057,-0.592857 1.299822,-1.317458 1.167139,-1.476542 1.617321,-3.048203 1.615758,-5.6408778 -0.0018,-2.9554167 -1.324507,-4.1541643 -4.583799,-4.1541643 -1.947874,0 -2.807233,0.456375 -5.1532288,2.7366943 -2.6752801,2.6003848 -3.4038513,3.7727538 -3.8668125,6.2222208 -0.5221396,2.76257 -0.5254858,3.587157 -0.016272,4.009767 0.4803272,0.398636 4.2224234,0.762588 6.0804773,0.591379 0.917727,-0.08456 1.755985,-0.402905 2.736856,-1.039367 z M 6.5712181,17.951019 C 5.6885049,17.825448 5.8475901,17.404622 6.9680931,16.90117 l 0.9921875,-0.445799 -0.9921875,-0.08584 c -1.45215,-0.125632 -1.2105703,-0.515049 0.396875,-0.639747 0.7639844,-0.05927 1.4148633,-0.09457 1.4463979,-0.07844 0.031534,0.01612 -0.3256531,0.559199 -0.7937499,1.206839 -0.6416887,0.887813 -0.9975533,1.156689 -1.446398,1.092838 z m 9.7234369,-3.867116 c 0,-1.100255 0.473631,-2.001599 1.051785,-2.001599 0.692838,0 0.687544,0.617917 -0.01503,1.754707 -0.649422,1.050787 -1.036754,1.143026 -1.036754,0.246892 z"
         id="path1191" />
      <path
         style="fill:#334a4b;stroke-width:0.264583"
         d="M 7.441547,18.885706 C 4.8337526,18.647565 4.5011629,18.489671 4.2559855,17.373385 3.97537,16.095751 4.8483417,11.821841 5.6339555,10.627095 6.6396793,9.0976103 10.524527,5.3649233 11.682559,4.8154012 c 1.324635,-0.6285807 4.734312,-0.4730983 5.706491,0.2602174 1.486882,1.1215573 1.684584,1.6530772 1.672098,4.4954347 -0.01446,3.2912907 -0.523452,4.4931707 -2.792532,6.5939377 -3.005754,2.782799 -4.180877,3.145 -8.827069,2.720715 z m 6.434475,-1.429037 c 1.879965,-1.219938 3.680577,-3.049916 4.192737,-4.261117 0.228141,-0.539526 0.466101,-2.052519 0.5288,-3.3622066 0.09952,-2.0788323 0.0438,-2.4924784 -0.438787,-3.2570673 -0.716043,-1.1344741 -1.965977,-1.6377242 -4.067655,-1.6377242 -1.947874,0 -2.807233,0.456375 -5.1532288,2.7366943 -2.6752801,2.6003848 -3.4038513,3.7727538 -3.8668125,6.2222208 -0.5221396,2.76257 -0.5254858,3.587157 -0.016272,4.009767 0.4803272,0.398636 4.2224234,0.762588 6.0804773,0.591379 0.918663,-0.08465 1.756171,-0.403044 2.740741,-1.041946 z"
         id="path1189" />
      <path
         style="fill:#2b2f2f;stroke-width:0.264583"
         d="M 6.1081973,18.731546 C 4.7210179,18.488405 4.4604769,18.304884 4.2704817,17.437082 4.0735277,16.537496 4.7948697,12.288561 5.3393375,11.14118 5.9653149,9.822031 10.432878,5.4700047 11.780781,4.866321 12.75438,4.4302763 13.288818,4.3684043 14.903039,4.504856 c 2.02092,0.1708304 2.711902,0.5000308 3.655582,1.7416068 0.42525,0.5594908 0.510756,1.0882341 0.494479,3.0577159 -0.01082,1.3096873 -0.161253,2.8761693 -0.334287,3.4810713 -0.394147,1.377876 -2.261799,3.481748 -4.382585,4.936889 l -1.613448,1.107039 -2.7781245,0.04394 C 8.4166868,18.897277 6.6902806,18.833572 6.1081973,18.731546 Z M 13.4501,17.766354 c 3.579185,-2.344125 4.77787,-3.961119 5.194295,-7.006967 C 18.982601,8.2856602 18.707819,6.9650489 17.630774,5.8878804 16.86838,5.1253992 16.665325,5.0646704 14.589675,4.9783625 12.48107,4.8906844 12.305863,4.9269217 11.217324,5.6758563 10.034029,6.4899848 6.6007533,9.9635886 5.8561357,11.100019 5.0815132,12.282242 4.3798824,17.063555 4.868208,17.832323 c 0.2737826,0.431014 3.4321296,0.848413 5.671476,0.749527 1.424202,-0.06289 2.013328,-0.227963 2.910416,-0.815496 z"
         id="path1187" />
      <path
         style="fill:#030404;stroke-width:0.264583"
         d="M 6.1876456,18.689603 C 5.5037379,18.574308 4.8191286,18.402692 4.6662915,18.308233 4.0248306,17.911789 4.5865746,12.635072 5.4417529,11.02397 5.9047812,10.151654 9.5345498,6.3947819 10.844249,5.4322947 c 0.960698,-0.7060092 1.201149,-0.7583242 3.485429,-0.7583242 2.260854,0 2.518221,0.054423 3.277097,0.6929745 1.595083,1.3421738 1.908656,2.7918351 1.313302,6.071453 -0.496898,2.737258 -2.26631,4.949626 -5.403547,6.756275 -1.20479,0.693805 -1.535544,0.759274 -3.7041661,0.733194 -1.3096875,-0.01575 -2.9408106,-0.122969 -3.6247183,-0.238264 z m 7.6049824,-1.057775 c 1.955989,-1.343972 3.542305,-2.889379 4.111884,-4.005847 0.278807,-0.546508 0.641883,-1.901065 0.806836,-3.010129 0.373941,-2.5142042 0.06886,-3.7110961 -1.238543,-4.8590094 -0.881919,-0.7743354 -1.050152,-0.8182887 -3.132034,-0.8182887 -2.635177,0 -3.060375,0.2494811 -6.4291266,3.7722361 -1.747688,1.827584 -2.2470639,2.536909 -2.589227,3.677798 -0.599767,1.999827 -0.8410308,5.377263 -0.4034388,5.64771 0.5730235,0.354148 3.1981814,0.624086 5.4340664,0.55877 1.937433,-0.0566 2.245722,-0.142931 3.439583,-0.96324 z"
         id="path1185" />
    </g>
  </g>
</svg>
