<?xml version="1.0" encoding="UTF-8" standalone="no"?>
<svg
   xmlns:dc="http://purl.org/dc/elements/1.1/"
   xmlns:cc="http://creativecommons.org/ns#"
   xmlns:rdf="http://www.w3.org/1999/02/22-rdf-syntax-ns#"
   xmlns:svg="http://www.w3.org/2000/svg"
   xmlns="http://www.w3.org/2000/svg"
   xmlns:sodipodi="http://sodipodi.sourceforge.net/DTD/sodipodi-0.dtd"
   xmlns:inkscape="http://www.inkscape.org/namespaces/inkscape"
   width=""
   height=""
   viewBox="0 0 20.865781 23.783974"
   version="1.1"
   id="svg8"
   sodipodi:docname="leaf_stone.svg"
   inkscape:version="1.0.2-2 (e86c870879, 2021-01-15)">
  <defs
     id="defs2" />
  <sodipodi:namedview
     id="base"
     pagecolor="#ffffff"
     bordercolor="#666666"
     borderopacity="1.0"
     inkscape:pageopacity="0.0"
     inkscape:pageshadow="2"
     inkscape:zoom="5.6"
     inkscape:cx="17.286807"
     inkscape:cy="40.232203"
     inkscape:document-units="mm"
     inkscape:current-layer="layer4"
     inkscape:document-rotation="0"
     showgrid="false"
     inkscape:window-width="1920"
     inkscape:window-height="1001"
     inkscape:window-x="-9"
     inkscape:window-y="-9"
     inkscape:window-maximized="1" />
  <metadata
     id="metadata5">
    <rdf:RDF>
      <cc:Work
         rdf:about="">
        <dc:format>image/svg+xml</dc:format>
        <dc:type
           rdf:resource="http://purl.org/dc/dcmitype/StillImage" />
        <dc:title></dc:title>
      </cc:Work>
    </rdf:RDF>
  </metadata>
  <g
     inkscape:groupmode="layer"
     id="layer4"
     inkscape:label="Layer 1"
     transform="translate(0.67577174,3.0735613)">
    <g
       id="g1229"
       transform="translate(3.3545387,0.80319939)">
      <path
         style="fill:#bdcd9b;stroke-width:0.264583"
         d="M 1.4968881,19.75267 C -0.86803823,19.355786 -2.2910508,18.096462 -3.26495,15.538583 -4.0935189,13.362405 -4.2806009,9.7230758 -3.6721724,7.6168369 -2.0964089,2.1619083 2.2096256,-1.8719906 8.0517578,-3.3661565 c 2.6720772,-0.6834024 3.9942092,-0.6590219 5.1138152,0.0943 1.03998,0.6997466 2.395738,3.2036353 3.039114,5.6128041 0.57057,2.1365422 0.778511,6.5155006 0.396726,8.3545464 -0.930148,4.480499 -3.968891,7.689127 -8.3669006,8.834663 -1.4381392,0.374588 -5.1090526,0.495821 -6.7376243,0.222513 z"
         id="path1253" />
      <path
         style="fill:#a2ae92;stroke-width:0.264583"
         d="m 0.84509111,19.553271 c -1.31898752,-0.282649 -1.74041529,-0.52132 -2.56883191,-1.454829 -0.5450463,-0.61419 -1.2415348,-1.786342 -1.5477521,-2.604781 -0.7058619,-1.886585 -0.9554402,-5.262366 -0.5374165,-7.2690627 0.8699132,-4.175964 4.14591218,-8.24034045 8.216214,-10.1934666 2.0916589,-1.0036785 5.4155638,-1.9078924 7.0134424,-1.9078924 3.602358,0 6.507283,8.7239311 5.014175,15.0583287 -1.031425,4.375743 -4.446553,7.653995 -8.8419422,8.487563 -1.8608507,0.352903 -4.7955358,0.302515 -6.74788869,-0.11586 z M 6.8665002,14.906202 C 10.565803,13.763604 13.806637,10.662066 14.489461,7.6108888 15.148713,4.6650405 13.890992,-0.39253105 12.160698,-1.7535809 10.907218,-2.739568 7.8263193,-2.2802066 4.1898751,-0.56513278 1.6751744,0.62088794 -0.24495326,2.5670698 -1.5945381,5.2977693 c -0.9366264,1.8951348 -1.0096152,2.2097743 -1.0096152,4.3522419 0,2.5649268 0.2308281,3.0753378 2.06050003,4.5562148 1.60032237,1.295249 4.57357217,1.576107 7.41015347,0.699976 z M 0.43855488,14.362095 c 0,-0.155087 0.1285523,-0.522179 0.28567166,-0.81576 C 0.94619263,13.131588 0.91353829,12.906076 0.57779661,12.535086 -0.06684265,11.822767 -0.8843617,9.4837353 -0.8843617,8.3516542 c 0,-1.2389372 0.83462304,-4.3069566 1.41094266,-5.1865313 1.16232034,-1.7739255 6.74391384,-4.6487266 9.04009834,-4.656105 1.2186407,-0.00392 2.3574357,0.84886086 3.0451257,2.28031729 0.497032,1.03459201 0.619102,1.72813821 0.622367,3.53598741 0.0047,2.57849 -0.592461,4.28034 -2.0274,5.7783124 -1.5845035,1.654108 -4.9928475,2.952938 -7.7489982,2.952938 -1.2700155,0 -1.3909626,0.05659 -1.6963023,0.79375 -0.3143901,0.759004 -1.32291662,1.149154 -1.32291662,0.511772 z"
         id="path1251" />
      <path
         style="fill:#94a572;stroke-width:0.264583"
         d="M 1.2431938,19.63445 C 0.44881833,19.502764 -0.46598828,19.221476 -0.78970967,19.009366 -2.401703,17.953147 -3.7266304,15.030429 -3.9837522,11.963482 -4.5367684,5.3671092 0.10139477,-0.90137692 7.1252889,-3.0504079 8.1108575,-3.3519525 9.6717818,-3.6759767 10.59401,-3.7704618 c 1.65244,-0.1692974 1.692132,-0.1579196 2.734586,0.7838752 2.492155,2.25151221 4.06934,8.6640899 3.266629,13.2815776 -1.038786,5.975471 -5.768312,9.720888 -12.1347976,9.609818 C 3.4853246,19.887797 2.0375694,19.766135 1.2431938,19.63445 Z M 7.1133519,14.888371 C 10.281094,13.821236 12.894884,11.584857 14.131607,8.8834979 14.738012,7.558936 14.785934,7.2038149 14.653614,5.0152866 14.426809,1.2639945 13.162977,-1.5119862 11.337707,-2.268038 10.743263,-2.5142648 10.198322,-2.4988152 8.7526625,-2.1947497 2.6487193,-0.910908 -1.200878,2.4817105 -2.6253749,7.8326205 c -0.5107523,1.9185652 -0.470826,2.6124115 0.2432382,4.2270375 0.6370155,1.440405 2.18247032,2.786601 3.6144415,3.148423 1.4881605,0.37602 4.2637051,0.225133 5.8810471,-0.31971 z M 0.57422606,14.384957 C 0.48614786,14.242444 0.53941245,13.891664 0.69259164,13.605446 0.91365788,13.19238 0.83762404,12.888363 0.32393474,12.1314 -0.6416462,10.708536 -1.0208719,8.530368 -0.61844912,6.7186032 -0.4392053,5.911622 -0.1147563,4.8039589 0.10254915,4.25713 0.95217169,2.1191321 5.0745419,-0.58670928 8.5435753,-1.2833909 10.525066,-1.6813311 11.536074,-1.1677877 12.473126,0.71263169 13.354161,2.4806389 13.410314,5.695796 12.598071,7.8667081 11.481663,10.850578 7.4787208,13.056573 3.1806739,13.056573 c -1.0910149,0 -1.227928,0.07244 -1.5001919,0.79375 -0.2975904,0.788406 -0.79950254,1.030972 -1.10625594,0.534634 z"
         id="path1249" />
      <path
         style="fill:#7b7b8c;stroke-width:0.264583"
         d="M 1.2431938,19.63445 C 0.44881833,19.502764 -0.46598828,19.221476 -0.78970967,19.009366 -2.401703,17.953147 -3.7266304,15.030429 -3.9837522,11.963482 -4.5367684,5.3671092 0.10139477,-0.90137692 7.1252889,-3.0504079 8.1108575,-3.3519525 9.6717818,-3.6759767 10.59401,-3.7704618 c 1.65244,-0.1692974 1.692132,-0.1579196 2.734586,0.7838752 2.492155,2.25151221 4.06934,8.6640899 3.266629,13.2815776 -1.038786,5.975471 -5.768312,9.720888 -12.1347976,9.609818 -0.9751028,-0.01701 -2.422858,-0.138674 -3.2172336,-0.270359 z m -1.78199593,-3.568369 -0.16369664,-1.752991 0.75709669,0.49622 c 0.6249196,0.409589 1.26728108,0.496221 3.67938078,0.496221 2.7172746,0 3.0429341,-0.05729 4.6420757,-0.816593 2.0815726,-0.988374 4.5383106,-3.175235 5.5426616,-4.9337874 l 0.739116,-1.2941427 0.554895,0.7441364 0.554896,0.7441367 0.0084,-1.5035245 C 15.783115,6.9705196 15.704041,6.716731 15.255221,6.574281 14.805586,6.4315724 14.726054,6.1739574 14.726054,4.8602326 c 0,-2.7464099 -1.398682,-6.1466548 -2.847325,-6.9219449 -0.453573,-0.2427448 -0.519418,-0.3809417 -0.266577,-0.5595016 0.695288,-0.4910239 -3.0842961,0.1208956 -5.0484208,0.8173457 -4.6772423,1.65848206 -8.0319966,5.1181938 -9.1591773,9.4457329 -0.5070459,1.9466811 -0.5152745,3.2907053 -0.025922,4.2339333 0.2415021,0.465496 0.3327102,1.174545 0.2506405,1.948473 -0.1079516,1.017997 0.00375,1.443507 0.6840247,2.605739 0.4471747,0.763985 0.92521911,1.389063 1.06232116,1.389063 0.14736814,0 0.18235426,-0.71665 0.0855796,-1.752992 z M 0.70718976,14.181052 C 0.70941226,13.92639 0.8125643,13.558163 0.93640384,13.36277 1.0841813,13.129606 0.95557555,12.785241 0.56220789,12.36079 0.23256089,12.005095 -0.24614229,10.941993 -0.50157685,9.9983417 -0.90417873,8.5110101 -0.92190316,8.0808523 -0.63472337,6.7669881 -0.4525194,5.933395 -0.09603783,4.7751143 0.15745786,4.193031 1.2803629,1.6145873 6.1583019,-1.2309274 9.455508,-1.2309274 c 0.961098,0 1.449273,0.1582568 2.051613,0.66509215 2.165599,1.82223195 2.18245,7.63707145 0.0297,10.24873145 -1.42055,1.7233738 -5.5433683,3.3552428 -8.5117833,3.3690818 -0.8250785,0.0038 -1.0521716,0.13373 -1.3958569,0.798345 -0.4541006,0.878134 -0.92826834,1.048224 -0.92199004,0.330729 z"
         id="path1247" />
      <path
         style="fill:#709b72;stroke-width:0.264583"
         d="M 1.7022619,19.649274 C -0.37506448,19.344841 -1.3074487,18.798049 -2.2330036,17.341458 -3.3687345,15.554102 -3.8975601,13.539493 -3.913382,10.939906 -3.9308773,8.0653652 -3.1723961,5.6607522 -1.4511009,3.1337372 1.2383984,-0.81468778 6.2686366,-3.5621763 11.06191,-3.7008005 c 1.345759,-0.03892 1.5999,0.042368 2.337206,0.7475625 1.065709,1.0192955 2.256692,3.47590017 2.823211,5.8233523 0.613791,2.543333 0.60963,6.9184605 -0.0086,8.9958337 -1.742781,5.856496 -7.3044405,8.839522 -14.5115094,7.783326 z m -2.24106403,-3.583193 -0.16369664,-1.752991 0.75709669,0.49622 c 0.6249196,0.409589 1.26728108,0.496221 3.67938078,0.496221 2.7172746,0 3.0429341,-0.05729 4.6420757,-0.816593 2.0815726,-0.988374 4.5383106,-3.175235 5.5426616,-4.9337874 l 0.739116,-1.2941427 0.554895,0.7441364 0.554896,0.7441367 0.0084,-1.5035245 C 15.783115,6.9705196 15.704041,6.716731 15.255221,6.574281 14.805586,6.4315724 14.726054,6.1739574 14.726054,4.8602326 c 0,-2.7464099 -1.398682,-6.1466548 -2.847325,-6.9219449 -0.453573,-0.2427448 -0.519418,-0.3809417 -0.266577,-0.5595016 0.695288,-0.4910239 -3.0842961,0.1208956 -5.0484208,0.8173457 -4.6772423,1.65848206 -8.0319966,5.1181938 -9.1591773,9.4457329 -0.5070459,1.9466811 -0.5152745,3.2907053 -0.025922,4.2339333 0.2415021,0.465496 0.3327102,1.174545 0.2506405,1.948473 -0.1079516,1.017997 0.00375,1.443507 0.6840247,2.605739 0.4471747,0.763985 0.92521911,1.389063 1.06232116,1.389063 0.14736814,0 0.18235426,-0.71665 0.0855796,-1.752992 z M 0.70718976,14.181052 C 0.70941226,13.92639 0.8125643,13.558163 0.93640384,13.36277 1.0841813,13.129606 0.95557555,12.785241 0.56220789,12.36079 0.23256089,12.005095 -0.24614229,10.941993 -0.50157685,9.9983417 -0.90417873,8.5110101 -0.92190316,8.0808523 -0.63472337,6.7669881 -0.4525194,5.933395 -0.09603783,4.7751143 0.15745786,4.193031 1.2803629,1.6145873 6.1583019,-1.2309274 9.455508,-1.2309274 c 0.961098,0 1.449273,0.1582568 2.051613,0.66509215 2.165599,1.82223195 2.18245,7.63707145 0.0297,10.24873145 -1.42055,1.7233738 -5.5433683,3.3552428 -8.5117833,3.3690818 -0.8250785,0.0038 -1.0521716,0.13373 -1.3958569,0.798345 -0.4541006,0.878134 -0.92826834,1.048224 -0.92199004,0.330729 z"
         id="path1245" />
      <path
         style="fill:#758856;stroke-width:0.264583"
         d="M 1.7022619,19.649274 C -0.37506448,19.344841 -1.3074487,18.798049 -2.2330036,17.341458 -3.3687345,15.554102 -3.8975601,13.539493 -3.913382,10.939906 -3.9308773,8.0653652 -3.1723961,5.6607522 -1.4511009,3.1337372 1.2383984,-0.81468778 6.2686366,-3.5621763 11.06191,-3.7008005 c 1.345759,-0.03892 1.5999,0.042368 2.337206,0.7475625 1.065709,1.0192955 2.256692,3.47590017 2.823211,5.8233523 0.613791,2.543333 0.60963,6.9184605 -0.0086,8.9958337 -1.742781,5.856496 -7.3044405,8.839522 -14.5115094,7.783326 z m -2.24106403,-3.583193 -0.16369664,-1.752991 0.75709669,0.49622 c 0.6249196,0.409589 1.26728108,0.496221 3.67938078,0.496221 2.7172746,0 3.0429341,-0.05729 4.6420757,-0.816593 2.0815726,-0.988374 4.5383106,-3.175235 5.5426616,-4.9337874 l 0.739116,-1.2941427 0.554895,0.7441364 0.554896,0.7441367 0.0084,-1.5035245 C 15.783115,6.9705196 15.704041,6.716731 15.255221,6.574281 14.805586,6.4315724 14.726054,6.1739574 14.726054,4.8602326 c 0,-2.7464099 -1.398682,-6.1466548 -2.847325,-6.9219449 -0.453573,-0.2427448 -0.519418,-0.3809417 -0.266577,-0.5595016 0.637406,-0.4501462 -2.9291543,0.084486 -4.7932967,0.7185222 -2.2403576,0.7619949 -3.8016865,1.65363732 -5.4753614,3.1268651 -3.1861177,2.8045331 -5.2121484,8.2474771 -3.9648616,10.6516246 0.2415021,0.465496 0.3327102,1.174545 0.2506405,1.948473 -0.1079516,1.017997 0.00375,1.443507 0.6840247,2.605739 0.4471747,0.763985 0.92521911,1.389063 1.06232116,1.389063 0.14736814,0 0.18235426,-0.71665 0.0855792,-1.752992 z M 0.7031382,14.229804 c 0,-0.227848 0.12325164,-0.644567 0.27389241,-0.926042 0.19296039,-0.36055 0.18863499,-0.511773 -0.0146378,-0.511773 -0.56061103,0 -1.63249202,-2.8699775 -1.66037593,-4.4456813 C -0.7374579,6.1156067 0.21251606,3.532777 1.5003992,2.369252 c 3.1377176,-2.83473978 7.9722144,-4.4175415 9.7307428,-3.18582017 0.325369,0.22789727 0.857548,0.91250664 1.182619,1.52135417 0.49229,0.9220422 0.591161,1.5269482 0.59177,3.6205366 6.35e-4,2.2179262 -0.08636,2.6908911 -0.739777,4.0214963 -1.239212,2.5235061 -3.7900544,3.9477271 -8.0570914,4.4985461 -2.0338085,0.262538 -2.2378698,0.344351 -2.5985399,1.04181 -0.4253754,0.822585 -0.9069845,1.004521 -0.9069845,0.342629 z m 5.6206487,-3.025315 c 1.8584456,0 2.3168508,-0.07669 2.3168508,-0.387619 0,-0.309168 -0.528643,-0.40288 -2.6119927,-0.463021 L 3.4166526,10.278448 4.1680737,8.9496125 4.9194948,7.6207771 8.005566,7.843175 C 11.042153,8.0620066 11.84484,7.925148 11.433011,7.258793 11.321809,7.0788652 10.12505,6.971156 8.2370709,6.971156 H 5.218901 L 5.756211,6.0604832 C 6.0517315,5.5596131 6.7514842,4.7360682 7.3112169,4.2303833 8.1422842,3.4795638 8.6122262,3.2796787 9.8738378,3.1403991 10.723546,3.0465927 11.597356,2.9457727 11.815637,2.9163547 c 0.218282,-0.029418 0.396875,-0.2304505 0.396875,-0.4467389 0,-0.438174 -0.551551,-0.469615 -2.6951113,-0.1536345 L 8.1452052,2.5182555 8.6518267,1.1849365 C 8.9623311,0.36775498 9.058224,-0.21032468 8.8995428,-0.30839487 8.4407154,-0.59196603 8.1643721,-0.20191595 7.580015,1.5540776 7.2650373,2.5005856 6.8688074,3.4220936 6.6995039,3.6018732 6.5302005,3.7816528 6.021129,4.3606241 5.5682338,4.8884761 L 4.7447881,5.8482072 4.1325891,3.8961399 C 3.7765917,2.7610012 3.3737948,1.9440726 3.1700974,1.9440726 c -0.1926611,0 -0.3502927,0.1403811 -0.3502927,0.3119578 0,0.5391523 1.1716554,4.045798 1.4087392,4.2162135 0.1243748,0.089401 -0.030563,0.6657186 -0.344307,1.2807071 L 3.313794,8.8711117 2.207542,7.1273837 C 1.5991033,6.1683334 0.95217433,5.383656 0.7699222,5.383656 c -0.53122932,0 -0.40207827,0.3643291 0.847772,2.3915261 1.1387714,1.8470319 1.1655753,1.938737 0.7829373,2.6786779 -0.5230167,1.011402 -0.3058684,1.299033 0.7517235,0.99572 0.4700196,-0.1348 1.897164,-0.245091 3.1714319,-0.245091 z"
         id="path1243" />
      <path
         style="fill:#5b8251;stroke-width:0.264583"
         d="M 1.7022619,19.649274 C -0.37506448,19.344841 -1.3074487,18.798049 -2.2330036,17.341458 -3.3687345,15.554102 -3.8975601,13.539493 -3.913382,10.939906 -3.9308773,8.0653652 -3.1723961,5.6607522 -1.4511009,3.1337372 1.2383984,-0.81468778 6.2686366,-3.5621763 11.06191,-3.7008005 c 1.345759,-0.03892 1.5999,0.042368 2.337206,0.7475625 1.065709,1.0192955 2.256692,3.47590017 2.823211,5.8233523 0.613791,2.543333 0.60963,6.9184605 -0.0086,8.9958337 -1.742779,5.856496 -7.3044392,8.839522 -14.5115081,7.783326 z M 0.57414536,15.834698 c 0.0975725,-0.489101 0.26170703,-0.519051 2.16779994,-0.395566 1.9593667,0.126936 2.1637462,0.202705 4.0972933,1.518983 1.1301009,0.769326 2.2052157,1.320088 2.4177054,1.238548 0.4523682,-0.17359 0.7010397,-1.250231 0.721237,-3.122642 0.014044,-1.302048 0.071942,-1.406972 1.455411,-2.637563 l 1.440785,-1.281573 1.165218,0.39703 1.165218,0.39703 0.289787,-1.150849 c 0.159383,-0.632967 0.289787,-1.8236473 0.289787,-2.6459564 0,-1.2725916 -0.07876,-1.5157025 -0.529166,-1.6334875 C 14.589813,6.3446441 14.559383,5.449279 15.215024,5.3359122 15.670711,5.2571193 15.68147,5.1433093 15.373092,3.6638643 14.861068,1.2074245 13.977629,-0.88060739 13.02134,-1.8945698 12.006538,-2.9705729 11.167171,-3.0631037 8.3800668,-2.4062179 3.0646803,-1.1534473 -1.0603078,2.528733 -2.5155412,7.3197731 -2.970548,8.8177839 -3.0445231,9.5797727 -2.9275868,11.564093 c 0.173602,2.945896 0.7409991,4.642037 1.98573961,5.936043 l 0.94306807,0.980395 0.23367972,-1.058333 c 0.12852373,-0.582084 0.28118407,-1.296459 0.33924476,-1.5875 z M 0.7031382,14.229804 c 0,-0.227848 0.12325164,-0.644567 0.27389241,-0.926042 0.15064079,-0.281475 0.17256499,-0.511773 0.0487206,-0.511773 -0.39268282,0 -1.31167963,-1.93141 -1.62063939,-3.4060193 C -0.8532385,8.1529113 -0.81692365,7.6833045 -0.32113129,5.845873 0.33010747,3.4323486 1.0310972,2.4803222 3.2332344,1.0186268 4.982068,-0.14218282 8.0562303,-1.2309274 9.5850406,-1.2309274 c 2.2836204,0 3.7784724,2.730064 3.4752514,6.3468851 -0.202437,2.4146637 -0.81717,3.7763654 -2.31125,5.1196723 -1.5519366,1.395324 -3.4912366,2.169247 -6.4852429,2.588088 -2.0812367,0.29115 -2.2997687,0.379075 -2.6564403,1.068802 -0.4230232,0.818037 -0.9042206,0.997528 -0.9042206,0.337284 z m 5.6206487,-3.025315 c 1.8830342,0 2.3168508,-0.07431 2.3168508,-0.396875 0,-0.326062 -0.4675428,-0.396875 -2.620385,-0.396875 H 3.3998679 L 4.1555816,9.0154628 4.9112956,7.6201863 8.0014666,7.8428795 C 11.042117,8.0620042 11.844966,7.9253506 11.433011,7.258793 11.321809,7.0788652 10.12505,6.971156 8.2370709,6.971156 H 5.218901 L 5.7286599,6.1071787 C 6.8065221,4.2803382 7.8958954,3.5184678 9.8621096,3.2163854 12.287387,2.843774 12.344804,2.822888 12.344804,2.3132884 c 0,-0.457321 -0.281295,-0.4524407 -3.228074,0.056006 L 8.137614,2.5382342 8.6480309,1.1949258 C 8.9607065,0.37203065 9.0581451,-0.21037336 8.8995428,-0.30839487 8.4458906,-0.58876748 8.2052058,-0.23525583 7.4615708,1.8036625 7.0618844,2.8995339 6.6381852,3.796156 6.5200172,3.796156 c -0.1181679,0 -0.5642988,0.4751755 -0.9914019,1.0559454 L 4.7520641,5.9080472 4.1761736,3.9260598 C 3.7955097,2.6159648 3.4679923,1.9440726 3.210044,1.9440726 c -0.2146316,0 -0.3902393,0.1403811 -0.3902393,0.3119578 0,0.5438934 1.1726918,4.0465584 1.4123307,4.2184333 0.1263502,0.090621 -0.046691,0.6450539 -0.3845361,1.2320725 L 3.2333358,8.7738427 2.2181592,7.0787493 C 1.6598122,6.1464479 1.0309866,5.383656 0.82076876,5.383656 c -0.58639627,0 -0.4779605,0.3237224 0.80601684,2.4062719 1.133781,1.8389383 1.1692326,1.9562474 0.7736448,2.5599901 -0.6284545,0.959144 -0.3289165,1.409643 0.7344915,1.104662 0.4796078,-0.13755 1.9145971,-0.250091 3.188865,-0.250091 z"
         id="path1241" />
      <path
         style="fill:#516a4d;stroke-width:0.264583"
         d="M 1.7022619,19.649274 C -0.37506448,19.344841 -1.3074487,18.798049 -2.2330036,17.341458 -3.3687345,15.554102 -3.8975601,13.539493 -3.913382,10.939906 -3.9308773,8.0653652 -3.1723961,5.6607522 -1.4511009,3.1337372 1.2383984,-0.81468778 6.2686366,-3.5621763 11.06191,-3.7008005 c 1.345759,-0.03892 1.5999,0.042368 2.337206,0.7475625 1.065709,1.0192955 2.256692,3.47590017 2.823211,5.8233523 0.613791,2.543333 0.60963,6.9184605 -0.0086,8.9958337 -1.742781,5.856496 -7.3044405,8.839522 -14.5115094,7.783326 z M 0.44564492,16.858879 0.75483487,15.369518 2.7795071,15.548331 c 1.8262456,0.161289 2.2274055,0.307216 4.093282,1.488989 1.6900545,1.070414 2.1621367,1.260121 2.5796873,1.036655 0.4070927,-0.217869 0.5110779,-0.560978 0.5110779,-1.686347 0,-2.216129 0.2496027,-2.846322 1.6186987,-4.086867 l 1.272134,-1.152687 1.180833,0.40235 c 1.44709,0.493073 1.475012,0.449269 1.67819,-2.6327157 0.132106,-2.0039005 0.102563,-2.1756132 -0.422661,-2.456705 -0.711205,-0.3806251 -0.730095,-0.812764 -0.03553,-0.812764 0.635394,0 0.628829,0.1475113 0.09775,-2.1967283 -0.538955,-2.3790203 -1.502052,-4.5933346 -2.41059,-5.5423342 -0.875991,-0.9150023 -2.268422,-0.9640756 -5.0989316,-0.1797012 -4.409594,1.2219611 -7.8116613,3.9587172 -9.6793803,7.786472 -1.0181111,2.0865449 -1.0328087,2.1599666 -1.0328087,5.1593754 0,3.553481 0.4782804,5.30839 1.8403431,6.752597 0.47738482,0.506176 0.93476947,0.920319 1.01641035,0.920319 0.08164089,0 0.28757349,-0.670212 0.45762807,-1.48936 z m 0.27608951,-2.545536 c 0.0102288,-0.181901 0.11006719,-0.5647 0.22186502,-0.850666 0.13786065,-0.352631 0.0507328,-0.683664 -0.27076848,-1.028755 -0.68693766,-0.737341 -1.29260936,-2.7111282 -1.29260936,-4.2124063 0,-1.6057245 0.62780594,-3.8369859 1.40207595,-4.9830662 C 2.0597923,1.3474923 6.2473202,-0.8597913 9.1307254,-1.162082 c 1.2892126,-0.1351587 1.4073556,-0.1033995 1.3182346,0.35436599 -0.07338,0.37692886 -0.328591,0.50492184 -1.0192547,0.511184 -0.5067477,0.004594 -1.2487811,0.10679853 -1.6489634,0.22712045 -0.68439,0.2057736 -0.7276041,0.30942465 -0.7276041,1.74518686 0,0.9541725 -0.1331153,1.6368962 -0.3550732,1.8211049 -0.5344575,0.4435605 -0.7032601,0.092011 -0.7032601,-1.4646132 0,-0.776111 -0.078836,-1.41111103 -0.1751917,-1.41111103 -0.096356,0 -0.6759921,0.29348853 -1.2880813,0.65219663 C 3.9194424,1.6320606 3.3604016,1.8673085 3.2892184,1.7961253 3.2180354,1.7249421 3.0308904,1.8220227 2.8733405,2.0118576 2.6625269,2.2658726 2.7707938,2.8788813 3.2833536,4.3333556 3.6664108,5.4203436 4.0800373,6.3787478 4.2025243,6.4631427 4.5185466,6.6808858 4.1389722,7.5431701 3.7798016,7.4234466 3.6160542,7.3688641 3.2378974,6.2889292 2.939453,5.0235909 L 2.396827,2.7229758 1.8474153,3.3257117 C 1.5452389,3.6572164 1.0953031,4.3659933 0.84755809,4.9007715 L 0.39711267,5.8730954 1.476167,7.6621918 C 2.6075494,9.538049 2.7864749,10.146156 2.2070335,10.146156 2.0155299,10.146156 1.587423,9.4913006 1.2556845,8.6909217 0.39938067,6.6249344 0.0615173,6.5457028 0.23647143,8.4519085 0.37713292,9.9844791 1.1206787,11.998239 1.5458922,11.998239 c 0.1185687,0 0.2156023,-0.0893 0.2156303,-0.198437 5.66e-5,-0.219634 1.9896017,-0.431396 4.233282,-0.450579 2.3104474,-0.01975 1.9957171,0.491717 -0.4383214,0.71232 -2.798157,0.253604 -3.4382531,0.5192 -3.9777215,1.650477 -0.4398721,0.922422 -0.89295679,1.240323 -0.85702717,0.601323 z M 6.7224086,8.8908224 C 4.4100076,8.8027402 4.060415,8.6467593 4.7999018,8.0330395 5.2693618,7.6434225 10.395484,7.9226868 10.661027,8.3523461 10.875527,8.6994138 10.238802,9.0933236 9.5666793,9.0293635 9.2756376,9.0016677 7.9957159,8.9393242 6.7224086,8.8908224 Z M 5.4656379,6.821165 c 0,-0.069266 0.313478,-0.599635 0.6966177,-1.1785984 L 6.8588736,4.589906 h 2.4342848 c 2.5532026,0 2.9729616,0.1186595 2.4877866,0.7032601 -0.206234,0.2484967 -1.003312,0.3550732 -2.655564,0.3550732 -2.1538351,0 -2.4178335,0.056954 -3.0103115,0.6494317 C 5.7578821,6.6548585 5.4656379,6.8904308 5.4656379,6.821165 Z M 8.3760544,2.1864564 c 0,-0.3081772 2.4127966,-2.0793504 2.8442706,-2.08790781 0.643146,-0.01275557 0.30681,0.66368533 -0.667107,1.34169071 C 9.4816978,2.186192 8.3760544,2.5651487 8.3760544,2.1864564 Z"
         id="path1239" />
      <path
         style="fill:#526939;stroke-width:0.264583"
         d="M 1.4968881,19.576414 C 0.55100279,19.406692 -0.51503752,19.062496 -0.87209033,18.811534 -3.0900908,17.252566 -4.4648912,12.561109 -3.8004478,8.8186181 -3.0519681,4.6027901 0.01484639,0.40765415 3.773902,-1.5424348 c 3.4078063,-1.7678712 7.129695,-2.6119522 8.673283,-1.9669997 1.89879,0.793365 3.582868,4.44987217 4.182138,9.0803472 C 17.570945,12.846694 13.656801,18.604401 7.0531378,19.657487 4.9437841,19.993865 3.7242217,19.976071 1.4968881,19.576414 Z M 0.44564492,16.858879 0.75483487,15.369518 2.7795071,15.548331 c 1.8262456,0.161289 2.2274055,0.307216 4.093282,1.488989 1.6900545,1.070414 2.1621367,1.260121 2.5796873,1.036655 0.4070927,-0.217869 0.5110779,-0.560978 0.5110779,-1.686347 0,-2.216129 0.2496027,-2.846322 1.6186987,-4.086867 l 1.272134,-1.152687 1.195037,0.40719 1.195037,0.40719 0.261079,-0.974295 C 15.649134,10.452297 15.845069,9.3417763 15.940953,8.5203356 16.105415,7.1113759 16.075955,7.0010354 15.42067,6.5716767 14.593188,6.0294899 14.524881,5.6482393 15.255221,5.6482393 c 0.654326,0 0.655696,-0.2143773 0.01731,-2.7104316 -0.642389,-2.51171659 -1.602537,-4.4263143 -2.67032,-5.3247948 -0.949948,-0.7993284 -1.702722,-0.7773011 -4.8782932,0.142746 -2.6699203,0.7735467 -4.6359516,1.85129916 -6.4632841,3.5430868 -2.09654843,1.9410341 -3.3485798,4.0413675 -4.0408494,6.778689 -0.5048842,1.9963763 -0.5267996,2.3976203 -0.2358199,4.3175793 0.1764355,1.164167 0.5560294,2.652448 0.8435419,3.307292 0.5015548,1.14235 1.70204261,2.645833 2.11262168,2.645833 0.10797804,0 0.33545936,-0.670212 0.50551394,-1.48936 z M 0.8685787,14.433125 C 0.7641273,14.26412 0.80399577,13.891664 0.95717496,13.605446 1.1787045,13.191514 1.1001005,12.885258 0.57296003,12.108473 -0.7991037,10.086624 -0.94130691,7.4573654 0.16323054,4.5327978 0.87277394,2.654086 2.7893181,1.0219981 5.7287197,-0.20665279 7.8363041,-1.0876097 10.210152,-1.3715392 10.421191,-0.76790653 c 0.07918,0.22646851 -0.198184,0.33072916 -0.8798241,0.33072916 -0.547498,0 -1.4030322,0.14738324 -1.9011867,0.32751819 L 6.7344445,0.21785926 6.902451,1.7028404 C 7.0295843,2.8265509 6.978397,3.2642249 6.6920485,3.5018732 6.37355,3.7662033 6.2842872,3.5630231 6.1282434,2.2185403 6.0194526,1.2811919 5.8149717,0.62115597 5.63337,0.62115597 c -0.1702128,0 -0.7240693,0.27950107 -1.2307922,0.62111333 C 3.8958548,1.5838816 3.3433458,1.8157217 3.1747806,1.7574694 2.5206959,1.5314335 2.5684659,2.2790568 3.3573452,4.6146985 3.9212479,6.2842495 4.0919967,7.1277139 3.9041092,7.3156014 3.5860134,7.6336972 3.5905933,7.6460123 2.9566366,4.7679401 L 2.5004717,2.6970162 1.8754151,3.2842266 C 1.5316338,3.6071921 1.0276139,4.3216428 0.75537118,4.8718946 L 0.26038395,5.8723525 1.4078027,7.6556921 c 0.6310804,0.9808366 1.1474187,1.9424425 1.1474187,2.1369017 0,0.6691602 -0.7519135,0.3526122 -0.9138602,-0.3847259 C 1.552176,9.0018095 1.2288478,8.2578991 0.92285453,7.7547333 0.37601215,6.8555227 0.36263958,6.85033 0.1404642,7.4509273 c -0.38414296,1.0384372 0.66776702,4.5473117 1.3632184,4.5473117 0.1417839,0 0.2577889,-0.09278 0.2577889,-0.206182 0,-0.113401 1.339453,-0.222009 2.9765623,-0.241352 2.6640695,-0.03148 2.8237882,-0.0087 1.521354,0.217052 -4.1848876,0.725338 -4.0949819,0.689245 -4.6689597,1.874348 -0.3277031,0.676615 -0.60485383,0.980323 -0.7218494,0.79102 z M 4.7209938,8.207406 C 4.8703842,7.9252988 5.1429465,7.7875231 5.3752774,7.8766768 5.5943,7.9607236 6.8353251,8.0294893 8.1331105,8.0294893 c 1.9690745,0 2.3596105,0.068839 2.3596105,0.4159245 0,0.358821 -0.413786,0.4042277 -3.0138938,0.3307291 C 4.6558891,8.6963454 4.481157,8.6603113 4.7209938,8.207406 Z M 6.4648876,5.3543079 C 6.995914,4.7970681 7.3484734,4.7112449 9.4414499,4.6297263 c 1.9496221,-0.075935 2.3741871,-0.023239 2.3741871,0.2946776 0,0.3018993 -0.538913,0.4177254 -2.4473952,0.5260072 C 8.0221742,5.5267831 6.6827211,5.6786278 6.3916795,5.7878438 5.9062469,5.9700065 5.9122974,5.9341758 6.4648876,5.3543079 Z M 8.3760544,2.2087052 c 0,-0.2651316 2.5464056,-2.1167159 2.9110286,-2.1167159 0.531095,0 0.240114,0.5033346 -0.728216,1.2596619 -1.0075806,0.7869836 -2.1828126,1.2484235 -2.1828126,0.857054 z"
         id="path1237" />
      <path
         style="fill:#385b37;stroke-width:0.264583"
         d="M 1.4968881,19.576414 C 0.55100279,19.406692 -0.51503752,19.062496 -0.87209033,18.811534 -3.0900908,17.252566 -4.4648912,12.561109 -3.8004478,8.8186181 -3.0519681,4.6027901 0.01484639,0.40765415 3.773902,-1.5424348 c 3.4078063,-1.7678712 7.129695,-2.6119522 8.673283,-1.9669997 1.89879,0.793365 3.582868,4.44987217 4.182138,9.0803472 0.941622,7.2757813 -2.972522,13.0334883 -9.5761852,14.0865743 -2.1093537,0.336378 -3.3289161,0.318584 -5.5562497,-0.08107 z m 6.5219288,-1.068082 c 1.9892431,-0.529657 3.9732281,-1.698511 5.1476261,-3.032697 0.566744,-0.643856 1.030444,-1.272947 1.030444,-1.39798 0,-0.125033 -0.386953,-0.228643 -0.859895,-0.230244 -0.472943,-0.0016 -1.313812,-0.07792 -1.868598,-0.169591 L 10.459693,13.511142 11.726625,12.3963 c 1.232709,-1.084729 1.290101,-1.105162 2.124682,-0.756452 0.471763,0.197115 0.976048,0.358391 1.120634,0.358391 0.322656,0 0.736375,-1.484887 0.969012,-3.4779034 C 16.105415,7.1113759 16.075955,7.0010354 15.42067,6.5716767 14.593188,6.0294899 14.524881,5.6482393 15.255221,5.6482393 c 0.654326,0 0.655696,-0.2143773 0.01731,-2.7104316 -0.642389,-2.51171659 -1.602537,-4.4263143 -2.67032,-5.3247948 -0.949948,-0.7993284 -1.702722,-0.7773011 -4.8782932,0.142746 -2.6699203,0.7735467 -4.6359516,1.85129916 -6.4632841,3.5430868 -2.09654843,1.9410341 -3.3485798,4.0413675 -4.0408494,6.778689 -0.5055219,1.9988973 -0.526989,2.3951953 -0.2338788,4.3175793 0.5867084,3.847968 1.7723637,5.683979 3.98181301,6.165916 1.77527759,0.387234 5.50347929,0.35937 7.05109539,-0.0527 z M 4.424751,17.662328 C 2.7363231,17.20844 0.92494368,16.254491 0.75344104,15.728861 0.65345051,15.422404 0.98627727,15.390491 2.6808543,15.54405 c 1.8360368,0.166377 2.2300709,0.307567 3.8027668,1.362608 l 1.7544925,1.176998 -1.1878005,-0.01741 C 6.397023,18.056666 5.2155199,17.874904 4.424751,17.662328 Z m -3.87980902,-5.5342 C -0.7157372,10.204089 -0.91126374,7.9733489 -0.06116839,5.2130884 0.60030604,3.06528 1.9850769,1.6011216 4.5395963,0.34856528 c 1.915044,-0.93900254 4.880656,-1.74306198 5.5216767,-1.49707948 0.690024,0.26478737 0.256956,0.71133683 -0.6898612,0.71133683 -0.4540229,0 -1.2348368,0.14801956 -1.7351424,0.32893238 L 6.7266229,0.2206874 6.8830316,1.7171255 C 6.9971263,2.8087244 6.9424446,3.2940628 6.6809077,3.5111193 6.3878923,3.7543005 6.2883965,3.4913893 6.1364341,2.0723863 L 5.9504934,0.33609759 4.7486989,1.0077934 c -0.6609868,0.3694327 -1.358365,0.6716959 -1.5497293,0.6716959 -0.6804245,0 -0.651414,0.5376587 0.1583756,2.9352092 C 3.8847759,6.1762667 4.0861269,7.1335837 3.9217186,7.2979921 3.638158,7.5815526 3.6261023,7.5488446 2.9479242,4.6560518 2.7005869,3.6010258 2.4104359,2.7378226 2.3031444,2.7378226 c -0.3257534,0 -0.9811072,0.8650243 -1.53183658,2.021925 L 0.24962519,5.8556308 1.4024232,7.6473312 c 1.1243476,1.7474817 1.3989131,2.4988248 0.9131535,2.4988248 -0.1318046,0 -0.6201018,-0.8036719 -1.0851054,-1.7859375 C 0.43905706,6.6884476 0.36912134,6.6156674 0.13644994,7.2217002 c -0.31120845,0.8105961 0.12331488,2.9746018 0.84180781,4.1923568 0.28524675,0.483457 0.51863035,0.99127 0.51863035,1.128473 0,0.473202 -0.51816257,0.247636 -0.95194612,-0.414402 z m 1.74569612,0.05902 c 0,-0.588514 0.5917758,-0.720307 3.1304934,-0.697185 2.6274682,0.02393 2.5801327,0.125911 -0.2200769,0.47414 C 4.1096484,12.099829 3.0083203,12.294834 2.7536589,12.39745 2.4355522,12.52563 2.2906381,12.45981 2.2906381,12.187148 Z M 6.0437101,8.6275794 C 5.1387193,8.5646599 4.6734368,8.421718 4.7384785,8.2265925 4.8077353,8.0188218 5.6658386,7.9474296 7.4646,7.9997853 c 2.689834,0.078292 3.028121,0.1424702 3.028121,0.5744856 0,0.2401713 -1.5023854,0.258173 -4.4490109,0.053308 z m 0.405724,-3.257531 C 6.9589993,4.8349165 7.35131,4.7386208 9.4259964,4.6394288 c 2.0005596,-0.095648 2.3896406,-0.0495 2.3896406,0.2834291 0,0.3161392 -0.501814,0.4234249 -2.4473952,0.5232424 C 8.0221742,5.51516 6.6827211,5.6649832 6.3916795,5.7790408 5.8992135,5.9720353 5.9032193,5.9436693 6.4494341,5.3700484 Z"
         id="path1235" />
      <path
         style="fill:#455729;stroke-width:0.264583"
         d="M 3.2166797,19.738123 C 0.40375635,19.51928 -0.56369572,19.154612 -1.6721489,17.895342 -4.533072,14.645162 -4.5588032,8.0120726 -1.72743,3.6447799 c 1.30136444,-2.0073083 3.7234644,-4.24052126 5.7973279,-5.345225 1.8547894,-0.9880074 5.1687187,-1.9106939 7.0120311,-1.9523371 2.157813,-0.048748 3.313239,1.2025901 4.613658,4.9966396 0.952201,2.778103 1.183517,7.7160022 0.482733,10.3049066 -1.459944,5.393469 -6.5756531,8.586183 -12.9616403,8.089359 z m 4.0348956,-0.979518 c 0.3274218,-0.08018 0.8621688,-0.204011 1.1883267,-0.275178 1.206832,-0.263331 3.01774,-1.363003 4.36185,-2.648729 1.617279,-1.54703 1.73476,-1.983225 0.53524,-1.987287 -0.472943,-0.0016 -1.313812,-0.07792 -1.868598,-0.169591 L 10.459693,13.511142 11.726625,12.3963 c 1.249277,-1.099308 1.279433,-1.109619 2.164066,-0.739996 0.493424,0.206165 1.050205,0.316107 1.237292,0.244315 0.405191,-0.155486 0.920988,-2.3811017 0.920988,-3.9739748 0,-0.9540508 -0.105519,-1.1832101 -0.661459,-1.4365129 -0.809816,-0.3689768 -0.863926,-0.841892 -0.09633,-0.841892 0.512821,0 0.550761,-0.1040828 0.409892,-1.1244792 C 15.261101,1.33677 13.503376,-2.3276421 12.171787,-2.8339111 11.294033,-3.1676325 9.6363274,-2.9396016 7.0323915,-2.1269456 2.1050766,-0.5891916 -1.8679586,3.628154 -3.004725,8.5273751 c -0.3890001,1.6765069 -0.2016752,4.3616999 0.4436831,6.3599359 0.4862725,1.505656 2.22229201,3.688135 2.94096459,3.697305 0.73577871,0.0094 2.54234671,0.30706 2.67625921,0.440973 0.145923,0.145923 3.339047,-0.05728 4.1953934,-0.266984 z M 4.424751,17.662328 C 2.7363231,17.20844 0.92494368,16.254491 0.75344104,15.728861 0.65345051,15.422404 0.98627727,15.390491 2.6808543,15.54405 c 1.8360368,0.166377 2.2300709,0.307567 3.8027668,1.362608 l 1.7544925,1.176998 -1.1878005,-0.01741 C 6.397023,18.056666 5.2155199,17.874904 4.424751,17.662328 Z"
         id="path1233" />
      <path
         style="fill:#050523;stroke-width:0.264583"
         d="M 3.2166797,19.738123 C 0.40375635,19.51928 -0.56369572,19.154612 -1.6721489,17.895342 -4.533072,14.645162 -4.5588032,8.0120726 -1.72743,3.6447799 c 1.30136444,-2.0073083 3.7234644,-4.24052126 5.7973279,-5.345225 1.8547894,-0.9880074 5.1687187,-1.9106939 7.0120311,-1.9523371 2.157813,-0.048748 3.313239,1.2025901 4.613658,4.9966396 0.952201,2.778103 1.183517,7.7160022 0.482733,10.3049066 -1.459944,5.393469 -6.5756531,8.586183 -12.9616403,8.089359 z m 4.1357206,-0.9772 C 11.860594,17.805364 14.889511,14.695789 15.81866,10.069212 16.188452,8.2278831 15.802839,4.181424 15.01915,1.6794893 14.33587,-0.50188651 13.083301,-2.4873541 12.171787,-2.8339111 11.294033,-3.1676325 9.6363274,-2.9396016 7.0323915,-2.1269456 0.80100545,-0.18220714 -3.7076076,5.9434698 -3.1694447,11.733892 c 0.2356145,2.535119 0.8953396,4.34726 2.0674196,5.678813 0.91188848,1.03596 1.18591054,1.180621 2.6674964,1.40821 2.4189189,0.371576 3.8193438,0.357058 5.786929,-0.05999 z"
         id="path1231" />
    </g>
  </g>
  <g
     inkscape:groupmode="layer"
     id="layer5"
     inkscape:label="Layer 2"
     transform="translate(0.67577174,3.0735613)" />
</svg>
