<?xml version="1.0" encoding="UTF-8" standalone="no"?>
<svg
   xmlns:dc="http://purl.org/dc/elements/1.1/"
   xmlns:cc="http://creativecommons.org/ns#"
   xmlns:rdf="http://www.w3.org/1999/02/22-rdf-syntax-ns#"
   xmlns:svg="http://www.w3.org/2000/svg"
   xmlns="http://www.w3.org/2000/svg"
   xmlns:sodipodi="http://sodipodi.sourceforge.net/DTD/sodipodi-0.dtd"
   xmlns:inkscape="http://www.inkscape.org/namespaces/inkscape"
   width=""
   height=""
   viewBox="0 0 23.784101 23.570038"
   version="1.1"
   id="svg8"
   inkscape:version="1.0.2-2 (e86c870879, 2021-01-15)"
   sodipodi:docname="rare_candy.svg">
  <defs
     id="defs2" />
  <sodipodi:namedview
     id="base"
     pagecolor="#ffffff"
     bordercolor="#666666"
     borderopacity="1.0"
     inkscape:pageopacity="0.0"
     inkscape:pageshadow="2"
     inkscape:zoom="5.6"
     inkscape:cx="66.069167"
     inkscape:cy="45.430371"
     inkscape:document-units="mm"
     inkscape:current-layer="layer1"
     inkscape:document-rotation="0"
     showgrid="false"
     inkscape:window-width="1920"
     inkscape:window-height="1001"
     inkscape:window-x="-9"
     inkscape:window-y="-9"
     inkscape:window-maximized="1" />
  <metadata
     id="metadata5">
    <rdf:RDF>
      <cc:Work
         rdf:about="">
        <dc:format>image/svg+xml</dc:format>
        <dc:type
           rdf:resource="http://purl.org/dc/dcmitype/StillImage" />
        <dc:title></dc:title>
      </cc:Work>
    </rdf:RDF>
  </metadata>
  <g
     inkscape:label="Layer 1"
     inkscape:groupmode="layer"
     id="layer1"
     transform="translate(-85.146871,-120.13974)">
    <g
       id="g847"
       transform="translate(-0.47247022,-1.1339286)">
      <path
         style="fill:#b5cbe8;stroke-width:0.264583"
         d="m 92.43383,144.06569 c -0.478006,-0.41575 -1.313725,-0.90062 -1.857152,-1.07749 -1.171905,-0.38143 -1.976179,-1.31568 -2.211224,-2.56858 -0.131346,-0.70013 -0.367911,-0.99119 -1.030708,-1.26812 -1.619008,-0.67647 -2.155943,-2.2505 -1.319473,-3.86805 0.401517,-0.77645 0.416325,-0.78061 2.778124,-0.78061 h 2.374456 v -1.35837 c 0,-1.93913 0.473595,-3.2665 1.637051,-4.58826 1.378024,-1.56551 2.879455,-2.25546 4.908257,-2.25546 1.79994,0 1.676054,0.14406 2.445789,-2.84407 0.23586,-0.91564 0.48216,-1.22251 1.32726,-1.65364 0.5707,-0.29115 1.43666,-0.52937 1.92434,-0.52937 1.5136,0 2.59066,1.48913 2.20074,3.04271 -0.15007,0.59792 -0.088,0.66146 0.64591,0.66146 1.6355,0 3.18838,1.30266 3.14537,2.63856 -0.0118,0.3678 -0.39879,1.37561 -0.85989,2.23957 l -0.83837,1.57085 -1.63085,-0.0673 -1.63086,-0.0673 0.13927,1.0383 c 0.22745,1.69582 -0.56117,3.88543 -1.87125,5.19551 -1.49645,1.49645 -3.054231,2.07739 -5.260198,1.96166 l -1.717673,-0.0901 -0.160454,2.08883 c -0.254613,3.31462 -1.302655,4.17592 -3.138465,2.57923 z"
         id="path869" />
      <path
         style="fill:#93acd9;stroke-width:0.264583"
         d="m 92.226186,143.89554 c -0.60962,-0.50932 -1.347022,-0.92604 -1.638671,-0.92604 -0.75239,0 -2.016785,-1.45566 -2.224052,-2.56049 -0.137351,-0.73214 -0.365033,-1.01431 -1.049072,-1.30012 -1.617686,-0.67591 -2.13701,-2.20514 -1.299118,-3.82544 0.401517,-0.77645 0.416325,-0.78061 2.778124,-0.78061 h 2.374456 l 0.0026,-1.52136 c 0.0064,-3.74581 2.903674,-6.66025 6.635675,-6.67492 1.642973,-0.006 1.873858,-0.243 2.242392,-2.29734 0.2193,-1.22253 0.75364,-1.89311 1.89262,-2.37519 1.33468,-0.56491 2.14639,-0.44599 3.03738,0.445 0.71204,0.71204 0.78596,0.92663 0.63798,1.85208 -0.15813,0.9888 -0.13014,1.04673 0.50569,1.04673 0.99559,0 2.37932,0.65263 2.87047,1.35384 0.55801,0.79667 0.54725,1.66384 -0.0316,2.54329 -0.25466,0.38694 -0.58208,1.06736 -0.7276,1.51205 -0.25504,0.77935 -0.32665,0.81129 -1.98438,0.88528 l -1.71979,0.0768 -0.0185,1.65203 c -0.0319,2.84168 -1.88065,5.40659 -4.52645,6.27978 -0.512228,0.16905 -1.68482,0.25938 -2.60576,0.20074 l -1.674436,-0.10662 -0.185614,2.22827 c -0.279595,3.35651 -1.228098,4.01691 -3.292337,2.29228 z m 2.315872,-4.25423 c 0.06147,-1.43915 0.03456,-1.52482 -0.33073,-1.05301 -0.495452,0.63992 -0.550585,2.88825 -0.06691,2.7287 0.204191,-0.0674 0.35633,-0.70848 0.397642,-1.67569 z m -1.501769,-1.41395 c 0.747575,-0.74758 1.030676,-1.60786 0.529114,-1.60786 -0.490684,0 -1.872383,1.38408 -1.872383,1.87561 0,0.71685 0.447952,0.62756 1.343269,-0.26775 z m 4.330516,-6.0819 c 0.252922,-0.40923 -0.149231,-1.08221 -0.646702,-1.08221 -0.497471,0 -0.899624,0.67298 -0.646702,1.08221 0.08182,0.13239 0.372837,0.24071 0.646702,0.24071 0.273865,0 0.564881,-0.10832 0.646702,-0.24071 z m -2.300348,-1.43112 c 1.009145,-1.48234 0.665924,-2.44799 -0.534481,-1.50375 -0.675048,0.53099 -1.129255,1.67282 -0.847061,2.12941 0.292472,0.47323 0.785421,0.24999 1.381542,-0.62566 z m 7.662153,-5.96652 c 0.17025,-1.26936 -0.28529,-2.09001 -0.88424,-1.59293 -0.43371,0.35995 -0.47599,1.90888 -0.0727,2.6625 0.3905,0.72966 0.77291,0.30223 0.95691,-1.06957 z"
         id="path867" />
      <path
         style="fill:#9e9998;stroke-width:0.264583"
         d="m 92.226186,143.89554 c -0.60962,-0.50932 -1.347022,-0.92604 -1.638671,-0.92604 -0.75239,0 -2.016785,-1.45566 -2.224052,-2.56049 -0.137351,-0.73214 -0.365033,-1.01431 -1.049072,-1.30012 -1.617686,-0.67591 -2.13701,-2.20514 -1.299118,-3.82544 0.401517,-0.77645 0.416325,-0.78061 2.778124,-0.78061 h 2.374456 l 0.0026,-1.52136 c 0.0064,-3.74581 2.903674,-6.66025 6.635675,-6.67492 1.642973,-0.006 1.873858,-0.243 2.242392,-2.29734 0.2193,-1.22253 0.75364,-1.89311 1.89262,-2.37519 1.33468,-0.56491 2.14639,-0.44599 3.03738,0.445 0.71204,0.71204 0.78596,0.92663 0.63798,1.85208 -0.15813,0.9888 -0.13014,1.04673 0.50569,1.04673 0.99559,0 2.37932,0.65263 2.87047,1.35384 0.55801,0.79667 0.54725,1.66384 -0.0316,2.54329 -0.25466,0.38694 -0.58208,1.06736 -0.7276,1.51205 -0.25504,0.77935 -0.32665,0.81129 -1.98438,0.88528 l -1.71979,0.0768 -0.0185,1.65203 c -0.0319,2.84168 -1.88065,5.40659 -4.52645,6.27978 -0.512228,0.16905 -1.68482,0.25938 -2.60576,0.20074 l -1.674436,-0.10662 -0.185614,2.22827 c -0.279595,3.35651 -1.228098,4.01691 -3.292337,2.29228 z m 2.38125,-4.10104 c 0,-1.74066 -0.315852,-2.05092 -0.767867,-0.75427 -0.509563,1.46174 -0.353572,2.34177 0.41509,2.34177 0.254784,0 0.352777,-0.44097 0.352777,-1.5875 z m -1.350325,-1.729 c 1.243443,-1.4162 1.035987,-1.84432 -0.507054,-1.04638 -0.840722,0.43475 -1.314737,1.1288 -1.127528,1.6509 0.206407,0.57565 0.786867,0.36098 1.634582,-0.60452 z m 5.212959,-2.47931 c 1.519385,-0.69002 2.30643,-1.896 2.42246,-3.71188 0.0728,-1.13949 -0.028,-1.66699 -0.44578,-2.33241 -0.679231,-1.08187 -1.218356,-1.08187 -2.81611,0 -1.349415,0.91371 -2.810074,3.21165 -3.120448,4.90914 -0.145338,0.79488 -0.08213,0.90803 0.696302,1.24641 1.155843,0.50245 1.973611,0.47457 3.263576,-0.11126 z m -4.647008,-2.34012 c 0.494149,-1.55649 2.092861,-3.71089 3.392571,-4.57178 l 1.186693,-0.78604 h -1.196859 c -2.820104,0 -4.800854,2.83634 -4.018767,5.75469 0.21326,0.79578 0.268698,0.7612 0.636362,-0.39687 z m 13.714118,-6.0166 c 0.19912,-0.19182 0.28339,-0.47602 0.18727,-0.63155 -0.22526,-0.36448 -2.20082,-0.89976 -2.54215,-0.68881 -0.65555,0.40515 -1.28842,-0.18021 -1.46453,-1.35458 -0.21354,-1.42397 -0.73931,-2.04362 -1.53144,-1.80489 -0.31209,0.094 -0.65716,0.2533 -0.76681,0.35388 -0.18539,0.17004 -0.99125,2.96223 -0.99125,3.43454 0,0.11632 0.47652,0.42638 1.05894,0.68901 1.01423,0.45735 1.08084,0.45769 1.57765,0.008 0.30586,-0.2768 0.70283,-0.39876 0.96744,-0.29722 0.39562,0.15181 0.36744,0.25741 -0.23804,0.89198 -0.53972,0.56566 -0.62933,0.82173 -0.41844,1.19585 0.24923,0.44217 0.39406,0.40758 2.03383,-0.48573 0.97102,-0.52899 1.92841,-1.11875 2.12753,-1.31057 z"
         id="path865" />
      <path
         style="fill:#708bc6;stroke-width:0.264583"
         d="m 92.547463,144.03849 c -0.59457,-0.43071 -1.485412,-0.95206 -1.979649,-1.15856 -1.097571,-0.4586 -1.978118,-1.52958 -2.191124,-2.665 -0.126125,-0.6723 -0.388902,-0.95556 -1.263724,-1.36222 -0.890107,-0.41376 -1.150785,-0.70077 -1.34301,-1.47867 -0.192651,-0.77963 -0.137758,-1.1358 0.285434,-1.85208 l 0.523956,-0.88683 2.432257,0.0823 2.432256,0.0823 -0.168849,-1.05593 c -0.227625,-1.42349 0.307649,-3.50163 1.229822,-4.77466 1.13144,-1.56191 2.796048,-2.42519 5.070643,-2.6297 l 1.901853,-0.171 0.372424,-1.32292 c 0.780918,-2.77394 1.366288,-3.37147 3.345128,-3.4146 1.67578,-0.0365 2.33003,0.63804 2.21579,2.28457 -0.0851,1.22639 -0.0664,1.26265 0.65054,1.26249 1.16214,-2.6e-4 2.71539,0.92746 3.09756,1.85011 0.30389,0.73366 0.2692,0.96455 -0.33002,2.19676 -0.36829,0.75731 -0.73844,1.58528 -0.82257,1.83995 -0.12491,0.37809 -0.46992,0.46302 -1.88106,0.46302 h -1.7281 l -0.006,1.65364 c -0.007,2.04583 -0.60733,3.44352 -2.02886,4.7251 -1.55414,1.40113 -3.152665,1.93431 -5.220377,1.74122 l -1.689059,-0.15772 -0.09201,2.39036 c -0.07682,1.99578 -0.176792,2.45234 -0.6056,2.76576 -0.722067,0.52776 -0.982964,0.47958 -2.207842,-0.40771 z m 2.059973,-4.24399 c 0,-1.74066 -0.315852,-2.05092 -0.767867,-0.75427 -0.509563,1.46174 -0.353572,2.34177 0.41509,2.34177 0.254784,0 0.352777,-0.44097 0.352777,-1.5875 z m -1.350325,-1.729 c 1.243443,-1.4162 1.035987,-1.84432 -0.507054,-1.04638 -0.840722,0.43475 -1.314737,1.1288 -1.127528,1.6509 0.206407,0.57565 0.786867,0.36098 1.634582,-0.60452 z m 5.212959,-2.47931 c 1.519385,-0.69002 2.30643,-1.896 2.42246,-3.71188 0.0728,-1.13949 -0.028,-1.66699 -0.44578,-2.33241 -0.679231,-1.08187 -1.218356,-1.08187 -2.81611,0 -1.349415,0.91371 -2.810074,3.21165 -3.120448,4.90914 -0.145338,0.79488 -0.08213,0.90803 0.696302,1.24641 1.155843,0.50245 1.973611,0.47457 3.263576,-0.11126 z m -4.647008,-2.34012 c 0.494149,-1.55649 2.092861,-3.71089 3.392571,-4.57178 l 1.186693,-0.78604 h -1.196859 c -2.820104,0 -4.800854,2.83634 -4.018767,5.75469 0.21326,0.79578 0.268698,0.7612 0.636362,-0.39687 z m 13.714118,-6.0166 c 0.19912,-0.19182 0.28339,-0.47602 0.18727,-0.63155 -0.22526,-0.36448 -2.20082,-0.89976 -2.54215,-0.68881 -0.65555,0.40515 -1.28842,-0.18021 -1.46453,-1.35458 -0.21354,-1.42397 -0.73931,-2.04362 -1.53144,-1.80489 -0.31209,0.094 -0.65716,0.2533 -0.76681,0.35388 -0.18539,0.17004 -0.99125,2.96223 -0.99125,3.43454 0,0.11632 0.47652,0.42638 1.05894,0.68901 1.01423,0.45735 1.08084,0.45769 1.57765,0.008 0.30586,-0.2768 0.70283,-0.39876 0.96744,-0.29722 0.39562,0.15181 0.36744,0.25741 -0.23804,0.89198 -0.53972,0.56566 -0.62933,0.82173 -0.41844,1.19585 0.24923,0.44217 0.39406,0.40758 2.03383,-0.48573 0.97102,-0.52899 1.92841,-1.11875 2.12753,-1.31057 z"
         id="path863" />
      <path
         style="fill:#847c7b;stroke-width:0.264583"
         d="m 92.547463,144.03849 c -0.59457,-0.43071 -1.485412,-0.95206 -1.979649,-1.15856 -1.097571,-0.4586 -1.978118,-1.52958 -2.191124,-2.665 -0.126125,-0.6723 -0.388902,-0.95556 -1.263724,-1.36222 -0.890107,-0.41376 -1.150785,-0.70077 -1.34301,-1.47867 -0.192651,-0.77963 -0.137758,-1.1358 0.285434,-1.85208 l 0.523956,-0.88683 2.432257,0.0823 2.432256,0.0823 -0.168849,-1.05593 c -0.227625,-1.42349 0.307649,-3.50163 1.229822,-4.77466 1.13144,-1.56191 2.796048,-2.42519 5.070643,-2.6297 l 1.901853,-0.171 0.372424,-1.32292 c 0.780918,-2.77394 1.366288,-3.37147 3.345128,-3.4146 1.67578,-0.0365 2.33003,0.63804 2.21579,2.28457 -0.0851,1.22639 -0.0664,1.26265 0.65054,1.26249 1.16214,-2.6e-4 2.71539,0.92746 3.09756,1.85011 0.30389,0.73366 0.2692,0.96455 -0.33002,2.19676 -0.36829,0.75731 -0.73844,1.58528 -0.82257,1.83995 -0.12491,0.37809 -0.46992,0.46302 -1.88106,0.46302 h -1.7281 l -0.006,1.65364 c -0.007,2.04583 -0.60733,3.44352 -2.02886,4.7251 -1.55414,1.40113 -3.152665,1.93431 -5.220377,1.74122 l -1.689059,-0.15772 -0.09201,2.39036 c -0.07682,1.99578 -0.176792,2.45234 -0.6056,2.76576 -0.722067,0.52776 -0.982964,0.47958 -2.207842,-0.40771 z m 2.00663,-2.78839 c 0.04342,-0.0386 0.04342,-0.88785 0,-1.88732 l -0.07895,-1.81724 -0.859896,1.76927 c -0.472943,0.9731 -0.859896,1.90529 -0.859896,2.07154 0,0.20243 0.284035,0.24143 0.859896,0.11806 0.472943,-0.10132 0.895422,-0.21576 0.938844,-0.25431 z m -0.766527,-4.99263 -0.846049,-0.75891 -2.672769,0.18821 c -1.470024,0.10351 -2.728853,0.24313 -2.797399,0.31027 -0.230198,0.22547 0.646676,0.61432 1.394539,0.61841 1.189632,0.007 2.167187,0.67714 2.695805,1.84941 l 0.490656,1.08808 1.290632,-1.26828 1.290633,-1.26828 z m 5.794816,0.9178 c 2.174918,-1.10956 3.227138,-2.82232 3.227138,-5.25298 0,-1.9634 -0.78107,-3.32357 -1.98814,-3.46222 -2.651441,-0.30455 -5.731692,2.54163 -6.3568,5.87374 -0.149055,0.79453 -0.08031,1.1081 0.344809,1.57288 0.292037,0.31929 0.612217,0.84841 0.711509,1.17583 0.158555,0.52285 0.356784,0.59532 1.62845,0.59532 0.900236,0 1.820544,-0.1901 2.433034,-0.50257 z m -4.48017,-6.19432 c 0.984514,-1.43095 2.09382,-2.33311 3.7439,-3.04481 l 1.185278,-0.51122 -1.209433,-0.18815 c -2.209872,-0.34379 -4.474138,0.64945 -5.698604,2.49974 -1.119471,1.69164 -1.225624,4.8767 -0.169382,5.08225 0.353108,0.0687 0.562743,-0.23037 0.884218,-1.2615 0.231757,-0.74336 0.800568,-1.9027 1.264023,-2.57631 z m 10.247518,-0.95416 c 0.42189,-0.13349 1.06594,-0.30718 1.43121,-0.38598 0.72422,-0.15624 1.58483,-1.37822 1.58483,-2.2503 0,-0.75683 -1.05488,-1.37719 -2.70911,-1.59319 -1.02584,-0.13395 -1.36801,-0.28301 -1.30097,-0.56676 0.52681,-2.22989 0.25143,-2.89856 -1.19372,-2.89856 -1.00101,0 -2.19617,0.95667 -2.21615,1.77391 -0.006,0.26128 -0.16759,0.91177 -0.35823,1.44554 l -0.34663,0.97048 1.06654,0.69829 1.06654,0.69828 0.73619,-0.54429 c 0.86799,-0.64173 1.02221,-0.66856 1.02221,-0.17784 0,0.20154 -0.29955,0.56271 -0.66567,0.8026 l -0.66567,0.43617 0.73181,0.91717 c 0.81976,1.0274 0.76531,1.00718 1.81682,0.67448 z"
         id="path861" />
      <path
         style="fill:#545fa6;stroke-width:0.264583"
         d="m 92.473789,143.90755 c -0.645504,-0.5131 -1.372869,-0.93407 -1.616365,-0.93548 -0.827882,-0.005 -2.063303,-1.32589 -2.366707,-2.53081 -0.245376,-0.97448 -0.430702,-1.20004 -1.192546,-1.45147 -1.616258,-0.53342 -2.051804,-2.26776 -0.983896,-3.91789 0.38783,-0.59927 0.484426,-0.61505 2.694061,-0.44016 l 2.291809,0.18139 0.0037,-1.80879 c 0.0031,-1.49491 0.136759,-2.05004 0.770277,-3.199 1.245521,-2.25891 3.374807,-3.50459 5.990507,-3.50459 0.70072,0 1.351702,-0.12566 1.446627,-0.27925 0.09493,-0.1536 0.369842,-1.0168 0.610924,-1.91823 0.40656,-1.52013 0.52468,-1.68309 1.62897,-2.24735 2.14632,-1.09672 3.83187,-0.1932 3.66015,1.96199 -0.0882,1.10755 -0.0878,1.10808 0.94715,1.24689 1.17376,0.15742 2.22852,0.84574 2.77748,1.81256 0.33728,0.59402 0.30706,0.79588 -0.31306,2.09096 -0.37752,0.78841 -0.75013,1.64183 -0.82804,1.8965 -0.11603,0.37925 -0.4543,0.46302 -1.86975,0.46302 h -1.7281 v 1.59599 c 0,1.87397 -0.40366,2.96838 -1.5955,4.32582 -1.42821,1.62664 -2.68539,2.14258 -5.217522,2.14124 l -2.182813,-0.001 v 1.75041 c 0,1.75057 -0.389156,3.41687 -0.797993,3.41687 -0.119383,0 -0.383268,0.0638 -0.58641,0.14174 -0.203142,0.078 -0.897489,-0.27808 -1.542994,-0.79119 z m 2.195742,-2.88952 c 0.247754,-0.37916 0.226674,-2.25763 -0.03276,-2.91923 -0.160739,-0.40991 -0.35664,-0.17626 -1.039737,1.2401 -0.462925,0.95985 -0.841682,1.8812 -0.841682,2.04745 0,0.37857 1.631237,0.0647 1.914179,-0.36832 z m -0.881965,-4.76056 -0.846049,-0.75891 -2.672769,0.18821 c -1.470024,0.10351 -2.728853,0.24313 -2.797399,0.31027 -0.230198,0.22547 0.646676,0.61432 1.394539,0.61841 1.189632,0.007 2.167187,0.67714 2.695805,1.84941 l 0.490656,1.08808 1.290632,-1.26828 1.290633,-1.26828 z m 5.794816,0.9178 c 2.174918,-1.10956 3.227138,-2.82232 3.227138,-5.25298 0,-1.9634 -0.78107,-3.32357 -1.98814,-3.46222 -2.651441,-0.30455 -5.731692,2.54163 -6.3568,5.87374 -0.149055,0.79453 -0.08031,1.1081 0.344809,1.57288 0.292037,0.31929 0.612217,0.84841 0.711509,1.17583 0.158555,0.52285 0.356784,0.59532 1.62845,0.59532 0.900236,0 1.820544,-0.1901 2.433034,-0.50257 z m -4.48017,-6.19432 c 0.984514,-1.43095 2.09382,-2.33311 3.7439,-3.04481 l 1.185278,-0.51122 -1.209433,-0.18815 c -2.209872,-0.34379 -4.474138,0.64945 -5.698604,2.49974 -1.119471,1.69164 -1.225624,4.8767 -0.169382,5.08225 0.353108,0.0687 0.562743,-0.23037 0.884218,-1.2615 0.231757,-0.74336 0.800568,-1.9027 1.264023,-2.57631 z m 10.247518,-0.95416 c 0.42189,-0.13349 1.06594,-0.30718 1.43121,-0.38598 0.72422,-0.15624 1.58483,-1.37822 1.58483,-2.2503 0,-0.75683 -1.05488,-1.37719 -2.70911,-1.59319 -1.02584,-0.13395 -1.36801,-0.28301 -1.30097,-0.56676 0.5242,-2.21883 0.25055,-2.89856 -1.16694,-2.89856 -1.18785,0 -2.10662,0.90025 -2.46298,2.41333 -0.15838,0.67249 -0.36238,1.41663 -0.45333,1.65365 -0.10665,0.27793 -0.0271,0.43094 0.22413,0.43094 0.21423,0 0.71223,0.25385 1.10667,0.56412 l 0.71716,0.56412 0.76301,-0.56412 c 0.89538,-0.66198 1.04903,-0.69093 1.04903,-0.19767 0,0.20154 -0.29955,0.56271 -0.66567,0.8026 l -0.66567,0.43617 0.73181,0.91717 c 0.81976,1.0274 0.76531,1.00718 1.81682,0.67448 z"
         id="path859" />
      <path
         style="fill:#1f4ea0;stroke-width:0.264583"
         d="m 92.473789,143.90755 c -0.645504,-0.5131 -1.372869,-0.93407 -1.616365,-0.93548 -0.827882,-0.005 -2.063303,-1.32589 -2.366707,-2.53081 -0.245376,-0.97448 -0.430702,-1.20004 -1.192546,-1.45147 -1.616258,-0.53342 -2.051804,-2.26776 -0.983896,-3.91789 0.38783,-0.59927 0.484426,-0.61505 2.694061,-0.44016 l 2.291809,0.18139 0.0037,-1.80879 c 0.0031,-1.49491 0.136759,-2.05004 0.770277,-3.199 1.245521,-2.25891 3.374807,-3.50459 5.990507,-3.50459 0.70072,0 1.351702,-0.12566 1.446627,-0.27925 0.09493,-0.1536 0.369842,-1.0168 0.610924,-1.91823 0.40656,-1.52013 0.52468,-1.68309 1.62897,-2.24735 2.14632,-1.09672 3.83187,-0.1932 3.66015,1.96199 -0.0882,1.10755 -0.0878,1.10808 0.94715,1.24689 1.17376,0.15742 2.22852,0.84574 2.77748,1.81256 0.33728,0.59402 0.30706,0.79588 -0.31306,2.09096 -0.37752,0.78841 -0.75013,1.64183 -0.82804,1.8965 -0.11603,0.37925 -0.4543,0.46302 -1.86975,0.46302 h -1.7281 v 1.59599 c 0,1.87397 -0.40366,2.96838 -1.5955,4.32582 -1.42821,1.62664 -2.68539,2.14258 -5.217522,2.14124 l -2.182813,-0.001 v 1.75041 c 0,1.75057 -0.389156,3.41687 -0.797993,3.41687 -0.119383,0 -0.383268,0.0638 -0.58641,0.14174 -0.203142,0.078 -0.897489,-0.27808 -1.542994,-0.79119 z m 1.908752,-0.54117 c 0.02183,-0.21828 0.05159,-0.54528 0.06614,-0.72667 0.01796,-0.22382 -0.296605,-0.30196 -0.978965,-0.24317 -1.340202,0.11546 -1.671568,-0.22103 -2.301868,-2.33745 -0.619814,-2.08122 -0.900613,-2.37772 -2.437019,-2.57326 -0.624171,-0.0794 -1.353848,-0.25721 -1.621505,-0.39504 -0.391873,-0.20181 -0.469121,-0.15959 -0.396646,0.21674 0.0495,0.25704 0.561522,0.7134 1.137824,1.01414 0.842517,0.43966 1.112982,0.77277 1.380393,1.70014 0.43044,1.49274 0.730831,1.82917 1.91886,2.14907 0.53823,0.14493 1.25949,0.5625 1.6028,0.92794 0.692583,0.73722 1.568634,0.88102 1.629981,0.26756 z m 0.280164,-2.31909 c 0.586393,-0.89589 -0.128312,-4.95695 -0.872372,-4.95695 -0.432216,0 -0.139988,-2.35625 0.428593,-3.45576 0.605414,-1.17074 1.054453,-0.64038 0.526874,0.62229 -0.536937,1.28507 -0.507903,1.95511 0.119266,2.75243 0.287217,0.36514 0.596323,1.05893 0.686903,1.54176 0.152876,0.81489 0.255184,0.89032 1.426199,1.05137 2.517493,0.34624 4.860902,-0.8651 5.992092,-3.09741 0.95474,-1.88408 0.83381,-4.17973 -0.30686,-5.82539 -0.91757,-1.32378 -3.163523,-2.58589 -4.597678,-2.58365 -2.669457,0.004 -5.187896,1.88586 -5.805216,4.33746 -0.31651,1.25698 -0.179823,2.94824 0.260258,3.22023 0.129024,0.0797 0.234589,0.31655 0.234589,0.52624 0,0.30775 -0.535639,0.38126 -2.778125,0.38126 -2.277171,0 -2.778125,0.0707 -2.778125,0.39183 0,0.38714 0.28251,0.49109 2.140497,0.7876 1.212228,0.19346 1.881425,0.94003 2.603251,2.90426 0.317354,0.86359 0.644434,1.67926 0.726844,1.8126 0.197861,0.32014 1.720041,0.007 1.99301,-0.41017 z m 13.236655,-12.05828 c 0.55867,-1.08984 0.66272,-1.5277 0.45518,-1.91549 -0.39163,-0.73177 -1.65655,-1.30193 -2.88836,-1.30193 h -1.07378 l 0.16521,-1.4057 c 0.13163,-1.11997 0.0745,-1.49644 -0.28117,-1.85209 -0.54463,-0.54463 -0.95223,-0.55798 -2.12129,-0.0695 -0.73379,0.3066 -0.95661,0.59025 -1.19506,1.52136 -0.16121,0.62947 -0.40689,1.49122 -0.54595,1.915 -0.13906,0.42378 -0.22254,0.79211 -0.1855,0.81851 0.037,0.0264 0.57595,0.32813 1.19758,0.67051 0.66532,0.36644 1.45075,1.12198 1.90941,1.83675 l 0.77918,1.21424 1.53017,-0.009 1.53016,-0.009 z"
         id="path857" />
      <path
         style="fill:#58535b;stroke-width:0.264583"
         d="m 92.473789,143.90755 c -0.645504,-0.5131 -1.372869,-0.93407 -1.616365,-0.93548 -0.827882,-0.005 -2.063303,-1.32589 -2.366707,-2.53081 -0.245376,-0.97448 -0.430702,-1.20004 -1.192546,-1.45147 -1.616258,-0.53342 -2.051804,-2.26776 -0.983896,-3.91789 0.38783,-0.59927 0.484426,-0.61505 2.694061,-0.44016 l 2.291809,0.18139 0.0037,-1.80879 c 0.0031,-1.49491 0.136759,-2.05004 0.770277,-3.199 1.245521,-2.25891 3.374807,-3.50459 5.990507,-3.50459 0.70072,0 1.351702,-0.12566 1.446627,-0.27925 0.09493,-0.1536 0.369842,-1.0168 0.610924,-1.91823 0.40656,-1.52013 0.52468,-1.68309 1.62897,-2.24735 2.14632,-1.09672 3.83187,-0.1932 3.66015,1.96199 -0.0882,1.10755 -0.0878,1.10808 0.94715,1.24689 1.17376,0.15742 2.22852,0.84574 2.77748,1.81256 0.33728,0.59402 0.30706,0.79588 -0.31306,2.09096 -0.37752,0.78841 -0.75013,1.64183 -0.82804,1.8965 -0.11603,0.37925 -0.4543,0.46302 -1.86975,0.46302 h -1.7281 v 1.59599 c 0,1.87397 -0.40366,2.96838 -1.5955,4.32582 -1.42821,1.62664 -2.68539,2.14258 -5.217522,2.14124 l -2.182813,-0.001 v 1.75041 c 0,1.75057 -0.389156,3.41687 -0.797993,3.41687 -0.119383,0 -0.383268,0.0638 -0.58641,0.14174 -0.203142,0.078 -0.897489,-0.27808 -1.542994,-0.79119 z m 1.872677,-0.34273 c 0.002,-0.10915 0.07891,-0.47974 0.170939,-0.82354 0.160667,-0.60022 0.125101,-0.61796 -0.893592,-0.44586 -1.356294,0.22915 -1.760971,-0.15542 -2.341784,-2.22542 -0.517604,-1.84473 -1.184994,-2.53784 -2.627718,-2.72898 -0.582083,-0.0771 -1.278768,-0.22884 -1.548189,-0.33718 -0.981065,-0.39447 -0.330775,0.75677 0.744385,1.31783 0.842517,0.43966 1.112982,0.77277 1.380393,1.70014 0.43044,1.49274 0.730831,1.82917 1.91886,2.14907 0.53823,0.14493 1.25949,0.5625 1.6028,0.92794 0.582343,0.61988 1.585763,0.91324 1.593906,0.466 z m 0.370707,-2.64584 c 0.08348,-0.40018 0.14009,-1.41779 0.125802,-2.26135 -0.02069,-1.22151 -0.159049,-1.6919 -0.679626,-2.31057 -0.614745,-0.73058 -0.63631,-0.85975 -0.362348,-2.17041 0.160215,-0.76648 0.400731,-1.56875 0.534481,-1.78282 0.407092,-0.65155 0.616668,-0.089 0.302545,0.81207 -0.409599,1.17497 -0.369097,1.99648 0.136473,2.76808 0.237406,0.36233 0.509256,1.03824 0.604111,1.50203 0.147706,0.7222 0.323131,0.87532 1.221999,1.06663 4.4423,0.94544 8.16797,-3.37364 6.70301,-7.77063 -0.65203,-1.95704 -3.16894,-3.68003 -5.369879,-3.67603 -3.399746,0.006 -6.40663,3.36654 -5.818349,6.50235 0.09393,0.50069 0.276348,0.97559 0.405372,1.05534 0.129024,0.0797 0.234589,0.31655 0.234589,0.52624 0,0.30792 -0.538147,0.38126 -2.797525,0.38126 -2.471824,0 -2.787566,0.0515 -2.71198,0.44218 0.05897,0.30479 0.550637,0.53503 1.582366,0.74099 1.846772,0.36867 2.195922,0.64928 2.751209,2.21111 1.016397,2.85877 0.893013,2.69114 1.980757,2.69114 0.88341,0 1.023603,-0.0882 1.156993,-0.72761 z m 13.182187,-11.92997 c 0.55867,-1.08984 0.66272,-1.5277 0.45518,-1.91549 -0.39163,-0.73177 -1.65655,-1.30193 -2.88836,-1.30193 h -1.07378 l 0.16521,-1.4057 c 0.13163,-1.11997 0.0745,-1.49644 -0.28117,-1.85209 -0.54463,-0.54463 -0.95223,-0.55798 -2.12129,-0.0695 -0.73379,0.3066 -0.95661,0.59025 -1.19506,1.52136 -0.16121,0.62947 -0.40689,1.49122 -0.54595,1.915 -0.13906,0.42378 -0.22254,0.78592 -0.1855,0.80475 1.10042,0.55965 2.45425,1.70491 3.06534,2.5931 0.77761,1.13021 0.80322,1.14265 2.3337,1.13303 l 1.54746,-0.01 z"
         id="path855" />
      <path
         style="fill:#003e97;stroke-width:0.264583"
         d="m 92.486589,143.89109 c -0.344073,-0.36624 -1.077285,-0.80124 -1.629359,-0.96664 -1.258811,-0.37715 -1.825285,-0.99163 -2.357895,-2.55773 -0.274975,-0.80854 -0.594099,-1.26557 -0.926042,-1.32623 -0.974481,-0.17809 -1.697107,-1.12333 -1.697107,-2.21992 0,-1.90085 0.223935,-2.05315 3.018844,-2.05315 h 2.471059 l -0.0075,-1.65365 c -0.01732,-3.82337 2.634175,-6.60065 6.354665,-6.65612 1.632624,-0.0243 1.654591,-0.0347 2.014912,-0.95065 0.200361,-0.50932 0.446304,-1.3782 0.546554,-1.93085 0.2274,-1.25369 1.37403,-2.03548 2.9875,-2.03691 1.53527,-0.001 2.26351,0.77713 2.14587,2.29395 l -0.0856,1.10431 1.12352,0.16848 c 1.47314,0.22091 2.71354,1.25787 2.71354,2.26848 0,0.65213 -0.44007,1.7991 -1.31382,3.42421 -0.14599,0.27154 -0.52984,0.37056 -1.21543,0.31356 -0.55113,-0.0458 -1.27907,-0.0138 -1.61765,0.0712 -0.55441,0.13915 -0.61586,0.30522 -0.61819,1.67082 -0.007,4.04392 -3.4498,7.04274 -7.504118,6.53619 l -1.42002,-0.17742 -0.118399,2.25579 c -0.06815,1.29833 -0.265013,2.43245 -0.463825,2.672 -0.523855,0.63121 -1.687587,0.51021 -2.401479,-0.2497 z m 2.120847,-1.26 c 0,-0.43595 -0.13423,-0.47917 -1.022271,-0.32914 -1.303899,0.22029 -1.709389,-0.16533 -2.289043,-2.17689 -0.529507,-1.83754 -1.270864,-2.71181 -2.299554,-2.71181 -0.41587,0 -1.169022,-0.17252 -1.673671,-0.38337 -1.507163,-0.62973 -0.94301,0.5671 0.649395,1.37767 0.715326,0.36412 0.980211,0.72236 1.261335,1.70588 0.356563,1.24744 1.134198,2.06232 1.968064,2.06232 0.244894,0 0.956518,0.42715 1.581387,0.94921 1.059071,0.88483 1.159463,0.91729 1.480241,0.47859 0.189265,-0.25883 0.344117,-0.69644 0.344117,-0.97246 z m 0.103984,-1.40302 c 0.08833,-0.23018 0.1606,-1.23308 0.1606,-2.22866 0,-1.55876 -0.09459,-1.92256 -0.681159,-2.61965 -0.645324,-0.76692 -0.665834,-0.88283 -0.38986,-2.20311 0.160215,-0.76648 0.400731,-1.56875 0.534481,-1.78282 0.407092,-0.65155 0.616668,-0.089 0.302545,0.81207 -0.409599,1.17497 -0.369097,1.99648 0.136473,2.76808 0.237406,0.36233 0.509272,1.03832 0.604146,1.5022 0.458128,2.24 5.435274,1.3434 7.274404,-1.31042 1.48264,-2.1394 1.20328,-5.55596 -0.59777,-7.31086 -2.386039,-2.3249 -5.830714,-2.36412 -8.198022,-0.0933 -0.485358,0.46557 -1.071048,1.20367 -1.301532,1.64023 -0.520923,0.98669 -0.616997,4.13741 -0.131102,4.29944 0.181901,0.0607 0.330729,0.29705 0.330729,0.52532 0,0.3616 -0.360001,0.39301 -2.796343,0.24394 -2.762876,-0.16905 -2.795333,-0.16422 -2.711979,0.40312 0.06874,0.46785 0.361638,0.62936 1.581183,0.87188 1.846453,0.36719 2.195812,0.64782 2.751209,2.20996 1.015721,2.85687 0.894186,2.69114 1.973472,2.69114 0.665903,0 1.05136,-0.13925 1.158525,-0.41852 z m 13.23939,-12.30779 0.77566,-1.58534 -0.69234,-0.69234 c -0.53709,-0.53709 -1.02834,-0.7202 -2.19081,-0.8166 -1.63523,-0.13561 -1.60469,-0.074 -1.03133,-2.08047 0.11022,-0.38573 -0.0164,-0.75039 -0.39051,-1.12448 -0.67429,-0.67429 -1.20266,-0.69427 -2.38557,-0.0902 -0.79425,0.4056 -0.96652,0.68708 -1.39781,2.2839 -0.27055,1.00171 -0.4582,1.8401 -0.41701,1.86309 1.32454,0.73927 2.45833,1.70741 3.11171,2.65707 0.81885,1.19016 0.8364,1.19907 2.3337,1.18494 l 1.50864,-0.0142 z"
         id="path853" />
      <path
         style="fill:#313556;stroke-width:0.264583"
         d="m 92.486589,143.89109 c -0.344073,-0.36624 -1.077285,-0.80124 -1.629359,-0.96664 -1.258811,-0.37715 -1.825285,-0.99163 -2.357895,-2.55773 -0.274975,-0.80854 -0.594099,-1.26557 -0.926042,-1.32623 -0.974481,-0.17809 -1.697107,-1.12333 -1.697107,-2.21992 0,-1.90085 0.223935,-2.05315 3.018844,-2.05315 h 2.471059 l -0.0075,-1.65365 c -0.01732,-3.82337 2.634175,-6.60065 6.354665,-6.65612 1.632624,-0.0243 1.654591,-0.0347 2.014912,-0.95065 0.200361,-0.50932 0.446304,-1.3782 0.546554,-1.93085 0.2274,-1.25369 1.37403,-2.03548 2.9875,-2.03691 1.53527,-0.001 2.26351,0.77713 2.14587,2.29395 l -0.0856,1.10431 1.12352,0.16848 c 1.47314,0.22091 2.71354,1.25787 2.71354,2.26848 0,0.65213 -0.44007,1.7991 -1.31382,3.42421 -0.14599,0.27154 -0.52984,0.37056 -1.21543,0.31356 -0.55113,-0.0458 -1.27907,-0.0138 -1.61765,0.0712 -0.55441,0.13915 -0.61586,0.30522 -0.61819,1.67082 -0.007,4.04392 -3.4498,7.04274 -7.504118,6.53619 l -1.42002,-0.17742 -0.118399,2.25579 c -0.06815,1.29833 -0.265013,2.43245 -0.463825,2.672 -0.523855,0.63121 -1.687587,0.51021 -2.401479,-0.2497 z m 2.148159,-1.77519 c 0.109253,-0.76745 0.207333,-2.0064 0.217956,-2.75324 l 0.01932,-1.35788 0.992187,0.35408 c 2.417359,0.86269 5.323489,-0.0787 6.794399,-2.20101 0.88853,-1.282 1.21846,-3.66392 0.70967,-5.12344 -0.35136,-1.0079 -0.19523,-1.26022 0.50802,-0.82104 0.28244,0.1764 1.14023,0.31431 1.90619,0.30648 l 1.39265,-0.0142 0.77567,-1.58534 0.77566,-1.58534 -0.69234,-0.69234 c -0.53709,-0.53709 -1.02834,-0.7202 -2.19081,-0.8166 -1.63523,-0.13561 -1.60469,-0.074 -1.03133,-2.08047 0.11022,-0.38573 -0.0164,-0.75039 -0.39051,-1.12448 -0.67429,-0.67429 -1.20266,-0.69427 -2.38557,-0.0902 -0.79494,0.40595 -0.96642,0.68671 -1.4001,2.29226 -0.36799,1.36239 -0.41515,1.8785 -0.18468,2.02094 0.58494,0.36151 0.002,0.77583 -0.710906,0.50493 -1.002131,-0.38101 -2.906877,-0.30713 -4.016803,0.15581 -1.159414,0.48357 -2.578893,1.78176 -3.167691,2.897 -0.520923,0.98669 -0.616997,4.13741 -0.131102,4.29944 0.181901,0.0607 0.330729,0.29308 0.330729,0.5165 0,0.34604 -0.420344,0.39176 -2.83764,0.30868 l -2.83764,-0.0975 -0.351202,0.72636 c -0.448509,0.92761 -0.153845,1.4858 1.152959,2.18405 0.797467,0.42611 1.060197,0.77164 1.348998,1.77414 0.359502,1.24791 1.137795,2.06232 1.970863,2.06232 0.244894,0 0.950878,0.42243 1.568853,0.93874 1.331992,1.11284 1.582745,0.97852 1.864204,-0.99859 z"
         id="path851" />
      <path
         style="fill:#231917;stroke-width:0.264583"
         d="m 92.597923,143.99693 c -0.277216,-0.30804 -1.127588,-0.8366 -1.889717,-1.17457 -1.393278,-0.61787 -1.48955,-0.7411 -2.417158,-3.094 -0.168581,-0.42761 -0.48835,-0.72761 -0.775569,-0.72761 -0.817135,0 -1.639293,-1.11202 -1.639293,-2.21726 0,-1.86037 0.233146,-2.01607 3.018844,-2.01607 h 2.471059 l -0.0075,-1.65365 c -0.01735,-3.83129 2.593136,-6.55402 6.41194,-6.68762 1.904474,-0.0666 1.797823,0.0422 2.517041,-2.56929 0.47647,-1.73009 1.23587,-2.31861 2.99185,-2.31861 1.46778,0 2.29922,0.92314 2.10897,2.34158 -0.13788,1.02796 -0.12836,1.04145 0.84457,1.19703 0.54122,0.0865 1.39133,0.43094 1.88915,0.76531 1.15054,0.77282 1.29484,1.75819 0.49337,3.369 -0.32583,0.65484 -0.68033,1.36922 -0.78779,1.5875 -0.13472,0.27365 -0.50651,0.37101 -1.19743,0.31356 -0.55113,-0.0458 -1.27907,-0.0138 -1.61765,0.0712 -0.5569,0.13978 -0.6156,0.30252 -0.6156,1.70675 0,4.05442 -3.88112,7.2656 -7.777099,6.43467 l -1.149832,-0.24523 -0.133464,2.34076 c -0.07341,1.28742 -0.282081,2.51984 -0.463723,2.73871 -0.477653,0.57553 -1.688804,0.48921 -2.274979,-0.16214 z m 1.859182,-0.41437 c 0.09398,-0.24489 0.244109,-1.56029 0.333629,-2.92309 0.140137,-2.13339 0.22146,-2.45255 0.585044,-2.29607 0.994374,0.42798 3.499919,0.43132 4.613189,0.006 1.451983,-0.55452 2.951383,-2.09651 3.470673,-3.56926 0.48834,-1.38499 0.51025,-2.14447 0.10124,-3.50962 -0.16884,-0.56352 -0.21207,-1.11312 -0.0961,-1.22132 0.116,-0.1082 0.26406,-0.0479 0.32902,0.134 0.0775,0.21708 0.69084,0.33073 1.78481,0.33073 h 1.6667 l 0.71098,-1.45319 c 0.44143,-0.90225 0.64671,-1.65567 0.54146,-1.98728 -0.23036,-0.7258 -1.47019,-1.32203 -2.74909,-1.32203 -1.2862,0 -1.48155,-0.26471 -1.05858,-1.43441 0.28061,-0.77602 0.26071,-1.00212 -0.14232,-1.61723 -0.41527,-0.63378 -0.59024,-0.69875 -1.5391,-0.57148 -0.58882,0.079 -1.28061,0.36094 -1.53732,0.62659 -0.52481,0.54306 -1.37035,3.5837 -1.15362,4.14849 0.11458,0.29859 -0.20043,0.34263 -1.688963,0.23613 -2.333237,-0.16694 -3.536373,0.22922 -4.927601,1.62253 -1.586913,1.58928 -2.333811,4.82402 -1.342708,5.81512 0.218281,0.21828 0.396875,0.46491 0.396875,0.54807 0,0.0832 -1.31224,0.15119 -2.916089,0.15119 -2.830103,0 -2.924714,0.0189 -3.20858,0.64194 -0.484192,1.06269 -0.07222,2.00267 1.075266,2.45342 0.835919,0.32835 1.069534,0.58976 1.336551,1.49554 0.393822,1.33594 1.15682,2.20783 2.116552,2.41862 0.395173,0.0868 1.124362,0.50485 1.620419,0.92902 1.040484,0.88968 1.437965,0.972 1.677633,0.34743 z"
         id="path849" />
    </g>
  </g>
</svg>
