<?xml version="1.0" encoding="UTF-8" standalone="no"?>
<svg
   xmlns:dc="http://purl.org/dc/elements/1.1/"
   xmlns:cc="http://creativecommons.org/ns#"
   xmlns:rdf="http://www.w3.org/1999/02/22-rdf-syntax-ns#"
   xmlns:svg="http://www.w3.org/2000/svg"
   xmlns="http://www.w3.org/2000/svg"
   xmlns:sodipodi="http://sodipodi.sourceforge.net/DTD/sodipodi-0.dtd"
   xmlns:inkscape="http://www.inkscape.org/namespaces/inkscape"
   width=""
   height=""
   viewBox="0 0 17.923717 23.783861"
   version="1.1"
   id="svg8"
   sodipodi:docname="soothe_bell.svg"
   inkscape:version="1.0.2-2 (e86c870879, 2021-01-15)">
  <defs
     id="defs2" />
  <sodipodi:namedview
     id="base"
     pagecolor="#ffffff"
     bordercolor="#666666"
     borderopacity="1.0"
     inkscape:pageopacity="0.0"
     inkscape:pageshadow="2"
     inkscape:zoom="7.9195959"
     inkscape:cx="8.8756259"
     inkscape:cy="46.109886"
     inkscape:document-units="mm"
     inkscape:current-layer="layer2"
     inkscape:document-rotation="0"
     showgrid="false"
     inkscape:window-width="1920"
     inkscape:window-height="1001"
     inkscape:window-x="-9"
     inkscape:window-y="-9"
     inkscape:window-maximized="1" />
  <metadata
     id="metadata5">
    <rdf:RDF>
      <cc:Work
         rdf:about="">
        <dc:format>image/svg+xml</dc:format>
        <dc:type
           rdf:resource="http://purl.org/dc/dcmitype/StillImage" />
        <dc:title></dc:title>
      </cc:Work>
    </rdf:RDF>
  </metadata>
  <g
     inkscape:groupmode="layer"
     id="layer2"
     inkscape:label="Layer 2"
     transform="translate(-106.10303,-106.95524)">
    <path
       style="fill:#ffffff;fill-opacity:1;stroke:none;stroke-width:0.264583px;stroke-linecap:butt;stroke-linejoin:miter;stroke-opacity:1"
       d="m 113.34561,120.76339 c 0,0 -1.77176,-3.23642 -3.28367,-1.96075 -1.5119,1.27567 -2.45684,1.32292 -2.38597,3.02381 0.0709,1.70089 2.85844,3.5199 1.81901,4.63021 -1.03944,1.1103 -1.46466,0.35435 -1.37017,1.53553 0.0945,1.18117 0.38348,2.1969 1.79539,1.58277 1.41191,-0.61412 9.52027,-5.81138 11.24479,-7.08705 1.72452,-1.27567 2.10249,-6.63821 1.74814,-6.8272 -0.35435,-0.18899 -2.05524,-0.35435 -2.3151,-0.0709 -0.25986,0.28348 -1.91351,5.90588 -4.46485,5.85863 -2.55133,-0.0472 -2.78757,-0.68508 -2.78757,-0.68508 z"
       id="path928" />
  </g>
  <g
     inkscape:label="Layer 1"
     inkscape:groupmode="layer"
     id="layer1"
     transform="translate(-106.10303,-106.95524)">
    <g
       id="g901"
       transform="translate(-3.5461077,1.358138)">
      <path
         style="fill:#dee0e0;stroke-width:0.264583"
         d="m 116.32174,129.00743 c -0.88997,-0.32576 -1.34381,-0.3528 -2.17313,-0.12949 -0.82139,0.22118 -1.2487,0.1985 -1.97454,-0.10477 -1.01451,-0.42389 -1.35216,-1.18351 -1.14709,-2.58069 0.0687,-0.46806 -0.10184,-1.41713 -0.3916,-2.17943 -0.65337,-1.71884 -0.56547,-5.07413 0.17246,-6.58372 0.44779,-0.91603 0.45352,-1.03912 0.0682,-1.46489 -1.24882,-1.37993 -1.62625,-4.47245 -0.74914,-6.13813 0.54645,-1.03775 1.89844,-1.847 3.08642,-1.84742 0.43656,-1.5e-4 1.43102,0.24194 2.20992,0.53798 0.7789,0.29605 1.64992,0.46407 1.93562,0.3734 0.82162,-0.26077 2.24007,-1.62727 2.6059,-2.51044 0.45982,-1.11011 1.07311,-0.90573 1.62802,0.54253 0.6299,1.64398 0.61213,3.62084 -0.0422,4.69401 -0.35297,0.57892 -0.41749,0.8618 -0.19745,0.86571 0.17976,0.003 0.86262,0.25628 1.51747,0.56241 0.7672,0.35866 1.63105,0.53815 2.42908,0.50471 1.68073,-0.0704 2.09601,0.5523 2.03836,3.05659 -0.0231,1.00298 0.0484,2.66596 0.15878,3.69552 0.38637,3.60264 -1.26286,6.76741 -4.26733,8.18876 -1.92512,0.91072 -5.16928,1.1537 -6.90776,0.51736 z m -1.14038,-2.2562 c 2.37676,-1.12438 4.59144,-2.77287 6.78692,-5.05182 2.37678,-2.46714 3.8152,-4.63268 4.00194,-6.02496 0.13047,-0.97276 0.0884,-1.08152 -0.41894,-1.08152 -0.42758,0 -0.56401,0.16256 -0.56401,0.672 0,0.99025 -0.81328,2.39864 -2.61465,4.52789 -2.98883,3.53284 -8.38387,7.29471 -9.81171,6.84153 -0.42276,-0.13418 -0.53822,-0.0535 -0.53822,0.37617 0,0.80181 1.10795,0.71086 3.15867,-0.25929 z m -0.48202,-4.45713 c 0.93333,-0.75577 0.87184,-2.51243 -0.11773,-3.36362 -0.91944,-0.79087 -1.10412,-0.78932 -1.90949,0.016 -1.00661,1.00661 -0.7305,2.94068 0.50523,3.53903 0.78186,0.37859 0.82466,0.3732 1.52199,-0.19146 z m 3.05533,-0.17833 c 0.24077,-0.62744 -0.32354,-1.06996 -0.82924,-0.65027 -0.31338,0.26008 -0.33984,0.42756 -0.11111,0.70316 0.39621,0.4774 0.74437,0.45782 0.94035,-0.0529 z"
         id="path925" />
      <path
         style="fill:#e9c0bd;stroke-width:0.264583"
         d="m 116.33747,128.99532 c -0.83225,-0.29188 -1.38955,-0.32602 -2.23212,-0.1367 -2.16529,0.4865 -3.38592,-0.57067 -3.07837,-2.66614 0.0674,-0.4593 -0.0964,-1.40316 -0.36735,-2.11612 -0.6827,-1.79675 -0.65507,-4.63372 0.0614,-6.29912 l 0.55039,-1.27942 -0.70617,-1.0671 c -1.54793,-2.33908 -1.01897,-6.05094 0.99873,-7.0084 1.21856,-0.57825 1.99686,-0.56 3.63374,0.0852 0.73838,0.29104 1.55946,0.52916 1.82463,0.52916 0.67216,0 2.90481,-2.02513 3.10294,-2.81453 0.43712,-1.74162 1.91081,0.70263 1.93622,3.21141 0.009,0.87244 -0.16513,1.61572 -0.51089,2.18281 -0.36492,0.59851 -0.42184,0.8599 -0.18725,0.8599 0.18538,0 0.8087,0.25025 1.38518,0.55612 0.68933,0.36575 1.47407,0.54262 2.29239,0.51666 1.89453,-0.0601 2.35652,0.53651 2.30024,2.97051 -0.0243,1.05041 0.0447,2.74327 0.15336,3.76192 0.12214,1.14527 0.0881,2.25597 -0.0892,2.91041 -0.44703,1.65016 -1.9157,3.87609 -3.0795,4.66731 -2.11716,1.43936 -5.67926,1.94597 -7.98835,1.13612 z m -0.47292,-1.95304 c 5.98895,-3.09914 12.40708,-11.11642 9.95126,-12.43073 -0.61774,-0.33061 -0.82854,-0.12985 -0.82854,0.78908 0,1.14406 -1.90773,3.69995 -4.86291,6.5151 -3.14441,2.99542 -5.60556,4.58345 -7.10346,4.58345 -0.81334,0 -0.99821,0.0956 -0.99821,0.51602 0,0.55274 0.64328,1.05032 1.37483,1.06344 0.24683,0.004 1.35699,-0.46194 2.46703,-1.03636 z m 9.33256,-2.83199 c 0.0427,-0.87199 -0.0515,-1.92496 -0.20931,-2.33993 -0.2656,-0.69858 -0.31894,-0.72241 -0.71978,-0.32156 -0.40085,0.40085 -0.39709,0.49948 0.0508,1.33108 0.34688,0.64413 0.44157,1.21218 0.33477,2.00844 -0.10458,0.77967 -0.0574,1.08008 0.15855,1.00885 0.17566,-0.058 0.34071,-0.78106 0.38501,-1.68688 z m -9.32593,-0.74179 c 0.35718,-0.35719 0.64943,-0.75359 0.64943,-0.8809 0,-0.12731 0.26417,-0.22202 0.58705,-0.21047 0.78515,0.0281 0.98893,-0.88839 0.24102,-1.08398 -0.31706,-0.0829 -0.66296,-0.51137 -0.83592,-1.03544 -0.60165,-1.82302 -2.81741,-2.59789 -3.9506,-1.38155 -0.40511,0.43483 -0.53947,0.93566 -0.53947,2.01083 0,1.27552 0.0982,1.52995 0.89958,2.33136 1.08467,1.08467 2.03387,1.16519 2.94891,0.25015 z m -3.10248,-5.63712 c 0.0561,-0.39301 -0.0522,-0.59261 -0.32142,-0.59261 -0.45331,0 -1.0334,0.89049 -0.75891,1.16498 0.35019,0.35019 0.99764,0.007 1.08033,-0.57237 z m 4.66882,-1.84938 c 0.99145,-1.35137 1.1247,-1.78951 0.60444,-1.98745 -0.71432,-0.27178 -1.45422,0.28984 -1.63227,1.23897 -0.23563,1.25599 -0.96196,1.26573 -1.55559,0.0209 -0.42114,-0.88313 -0.97933,-1.24805 -0.97933,-0.64024 0,0.42212 1.93045,2.60584 2.31254,2.61594 0.18048,0.005 0.74308,-0.55687 1.25021,-1.24809 z"
         id="path923" />
      <path
         style="fill:#cdcdcc;stroke-width:0.264583"
         d="m 116.33747,128.99532 c -0.83225,-0.29188 -1.38955,-0.32602 -2.23212,-0.1367 -2.16529,0.4865 -3.38592,-0.57067 -3.07837,-2.66614 0.0674,-0.4593 -0.0964,-1.40316 -0.36735,-2.11612 -0.6827,-1.79675 -0.65507,-4.63372 0.0614,-6.29912 l 0.55039,-1.27942 -0.70617,-1.0671 c -1.54793,-2.33908 -1.01897,-6.05094 0.99873,-7.0084 1.21856,-0.57825 1.99686,-0.56 3.63374,0.0852 0.73838,0.29104 1.55946,0.52916 1.82463,0.52916 0.67216,0 2.90481,-2.02513 3.10294,-2.81453 0.43712,-1.74162 1.91081,0.70263 1.93622,3.21141 0.009,0.87244 -0.16513,1.61572 -0.51089,2.18281 -0.36492,0.59851 -0.42184,0.8599 -0.18725,0.8599 0.18538,0 0.8087,0.25025 1.38518,0.55612 0.68933,0.36575 1.47407,0.54262 2.29239,0.51666 1.89453,-0.0601 2.35652,0.53651 2.30024,2.97051 -0.0243,1.05041 0.0447,2.74327 0.15336,3.76192 0.12214,1.14527 0.0881,2.25597 -0.0892,2.91041 -0.44703,1.65016 -1.9157,3.87609 -3.0795,4.66731 -2.11716,1.43936 -5.67926,1.94597 -7.98835,1.13612 z m -0.47292,-1.95304 c 5.98895,-3.09914 12.40708,-11.11642 9.95126,-12.43073 -0.61774,-0.33061 -0.82854,-0.12985 -0.82854,0.78908 0,1.14406 -1.90773,3.69995 -4.86291,6.5151 -3.14441,2.99542 -5.60556,4.58345 -7.10346,4.58345 -0.81334,0 -0.99821,0.0956 -0.99821,0.51602 0,0.55274 0.64328,1.05032 1.37483,1.06344 0.24683,0.004 1.35699,-0.46194 2.46703,-1.03636 z m 9.33256,-2.83199 c 0.0427,-0.87199 -0.0515,-1.92496 -0.20931,-2.33993 -0.2656,-0.69858 -0.31894,-0.72241 -0.71978,-0.32156 -0.40085,0.40085 -0.39709,0.49948 0.0508,1.33108 0.34688,0.64413 0.44157,1.21218 0.33477,2.00844 -0.10458,0.77967 -0.0574,1.08008 0.15855,1.00885 0.17566,-0.058 0.34071,-0.78106 0.38501,-1.68688 z m -9.32593,-0.74179 c 0.35718,-0.35719 0.64943,-0.75359 0.64943,-0.8809 0,-0.12731 0.26417,-0.22202 0.58705,-0.21047 0.78515,0.0281 0.98893,-0.88839 0.24102,-1.08398 -0.31706,-0.0829 -0.66296,-0.51137 -0.83592,-1.03544 -0.60165,-1.82302 -2.81741,-2.59789 -3.9506,-1.38155 -0.40511,0.43483 -0.53947,0.93566 -0.53947,2.01083 0,1.27552 0.0982,1.52995 0.89958,2.33136 1.08467,1.08467 2.03387,1.16519 2.94891,0.25015 z m -3.10248,-5.63712 c 0.0561,-0.39301 -0.0522,-0.59261 -0.32142,-0.59261 -0.45331,0 -1.0334,0.89049 -0.75891,1.16498 0.35019,0.35019 0.99764,0.007 1.08033,-0.57237 z m 4.66882,-1.84938 c 0.99145,-1.35137 1.1247,-1.78951 0.60444,-1.98745 -0.71432,-0.27178 -1.45422,0.28984 -1.63227,1.23897 -0.23563,1.25599 -0.96196,1.26573 -1.55559,0.0209 -0.42114,-0.88313 -0.97933,-1.24805 -0.97933,-0.64024 0,0.42212 1.93045,2.60584 2.31254,2.61594 0.18048,0.005 0.74308,-0.55687 1.25021,-1.24809 z m -5.35902,-2.91042 c 0.15046,-0.1819 0.51169,-0.33073 0.80273,-0.33073 0.43414,0 0.47155,-0.0694 0.2083,-0.38663 -0.5398,-0.65041 -1.32641,-0.75825 -1.87955,-0.25767 -0.63426,0.574 -0.65136,1.38546 -0.0472,2.23907 l 0.46303,0.65419 0.0895,-0.79375 c 0.0493,-0.43656 0.21267,-0.94258 0.36313,-1.12448 z m -0.59339,-2.80643 c -0.008,-0.55548 -0.0163,-0.55657 -0.39688,-0.0534 -0.49844,0.659 -0.49509,0.96593 0.008,0.77272 0.21828,-0.0838 0.39309,-0.40745 0.38846,-0.7193 z m 9.62065,-1.30487 c -0.26874,-1.42694 -0.4312,-1.49514 -1.30662,-0.54847 l -0.82251,0.88946 h 0.88865 c 0.62848,0 0.88866,0.12076 0.88866,0.41249 0,0.22687 0.11516,0.34131 0.25592,0.25432 0.14075,-0.087 0.18391,-0.5405 0.0959,-1.0078 z"
         id="path921" />
      <path
         style="fill:#b0b0b1;stroke-width:0.264583"
         d="m 116.57944,129.03797 c -0.72667,-0.23795 -1.70069,-0.31903 -2.72108,-0.2265 -1.41901,0.12867 -1.66187,0.0763 -2.26678,-0.48878 -0.57942,-0.54126 -0.65898,-0.79956 -0.54954,-1.78424 0.0846,-0.76083 -0.051,-1.65826 -0.39974,-2.64583 -0.69478,-1.96769 -0.5688,-5.07109 0.26309,-6.48105 0.36345,-0.61599 0.46331,-1.01247 0.28307,-1.12386 -0.15317,-0.0947 -0.56275,-0.78261 -0.91017,-1.52876 -1.14396,-2.45685 -0.66632,-4.9411 1.18821,-6.18001 1.10663,-0.73928 1.99376,-0.75626 3.73119,-0.0714 0.73838,0.29104 1.54006,0.52916 1.78151,0.52916 0.74745,0 2.3293,-1.27828 2.95124,-2.38488 0.32603,-0.58009 0.68217,-1.0547 0.79143,-1.0547 0.40432,0 1.15342,2.03113 1.28746,3.49086 0.11208,1.22068 0.036,1.66815 -0.40124,2.35867 l -0.53957,0.85219 1.49635,0.702 c 1.0956,0.514 1.79073,0.67269 2.59547,0.59252 1.43196,-0.14264 2.20998,0.56042 2.20413,1.99178 -0.002,0.5457 -0.10228,1.14705 -0.22234,1.33634 -0.12262,0.19331 -0.0554,0.94707 0.15332,1.71979 0.76944,2.84831 -0.10622,6.37553 -2.07604,8.36239 -1.93676,1.95353 -5.97966,2.90545 -8.63997,2.03433 z m 2.98388,-1.07879 c -0.72761,-0.19649 -1.44198,-0.39084 -1.5875,-0.43188 -0.14553,-0.041 -0.56224,0.0261 -0.92605,0.14924 -0.62462,0.21139 -0.63199,0.23537 -0.13229,0.4307 0.29104,0.11376 1.30307,0.20737 2.24896,0.20802 l 1.71979,0.001 -1.32291,-0.35726 z m -4.68507,-0.35648 c 3.60969,-1.37157 9.69851,-7.0453 11.09016,-10.33411 0.49517,-1.1702 0.51892,-2.40122 0.052,-2.69681 -0.71429,-0.45221 -1.03317,-0.25752 -1.03317,0.63081 0,1.15514 -1.09285,2.83677 -3.46966,5.33893 -3.51947,3.70508 -6.82426,5.95766 -8.74058,5.95766 -1.12808,0 -1.21122,0.13689 -0.60705,0.99947 0.50044,0.71447 1.04655,0.73546 2.70827,0.10405 z m 8.86711,-0.47896 c 0.32303,-0.32304 -0.072,-0.55289 -0.73306,-0.42653 -0.36558,0.0699 -0.59952,0.23251 -0.51987,0.36139 0.16742,0.27089 1.0037,0.31436 1.25293,0.0651 z m 1.6903,-3.44612 c -0.0775,-0.7515 -0.27908,-1.62458 -0.44798,-1.94018 -0.29018,-0.5422 -0.33437,-0.54915 -0.80179,-0.12614 -0.48243,0.43659 -0.481,0.46621 0.0575,1.19461 0.46333,0.62668 0.5247,0.97341 0.38128,2.15395 l -0.17094,1.40703 0.5614,-0.66146 c 0.4667,-0.54988 0.53763,-0.89193 0.42051,-2.02781 z m -8.1213,-0.49666 c 1.80661,-1.391 4.964,-4.64855 5.93133,-6.11949 1.02274,-1.55518 0.8523,-2.15412 -0.86832,-3.05136 -1.10828,-0.57792 -1.775,-0.7393 -3.04271,-0.73648 -2.32118,0.005 -2.81333,0.18322 -2.81767,1.01943 -0.006,1.21667 -0.29806,1.88737 -0.82099,1.88737 -0.27407,0 -0.49831,-0.16253 -0.49831,-0.36119 0,-0.4426 -1.00374,-1.75547 -1.34212,-1.75547 -0.51943,0 -0.20663,0.83511 0.68066,1.81724 0.98647,1.09191 1.12667,1.40701 0.59531,1.33801 -0.1819,-0.0236 -0.95161,-0.0288 -1.71048,-0.0116 -1.10414,0.0251 -1.43813,0.14043 -1.672,0.57743 -0.21484,0.40141 -0.21235,0.64236 0.009,0.90952 0.18956,0.22841 0.23697,0.7946 0.1276,1.52393 -0.24084,1.60604 0.32775,2.84 1.76137,3.82256 1.32452,0.90778 1.3915,0.89207 3.66695,-0.8599 z m 0.27778,-2.75343 c -0.86749,-0.54881 -0.0746,-3.46667 1.42368,-5.23928 0.87706,-1.03764 1.91954,-1.13905 2.71992,-0.26459 1.14815,1.25442 0.98173,2.53713 -0.53501,4.12362 -1.38293,1.44653 -2.70467,1.95209 -3.60859,1.38025 z m -5.51364,-7.35595 c 0.15046,-0.1819 0.51169,-0.33073 0.80273,-0.33073 0.43414,0 0.47155,-0.0694 0.2083,-0.38663 -0.5398,-0.65041 -1.32641,-0.75825 -1.87955,-0.25767 -0.63426,0.574 -0.65136,1.38546 -0.0472,2.23907 l 0.46303,0.65419 0.0895,-0.79375 c 0.0493,-0.43656 0.21267,-0.94258 0.36313,-1.12448 z m -0.59339,-2.80643 c -0.008,-0.55548 -0.0163,-0.55657 -0.39688,-0.0534 -0.49844,0.659 -0.49509,0.96593 0.008,0.77272 0.21828,-0.0838 0.39309,-0.40745 0.38846,-0.7193 z m 9.62065,-1.30487 c -0.26874,-1.42694 -0.4312,-1.49514 -1.30662,-0.54847 l -0.82251,0.88946 h 0.88865 c 0.62848,0 0.88866,0.12076 0.88866,0.41249 0,0.22687 0.11516,0.34131 0.25592,0.25432 0.14075,-0.087 0.18391,-0.5405 0.0959,-1.0078 z"
         id="path919" />
      <path
         style="fill:#999da2;stroke-width:0.264583"
         d="m 116.6529,129.01488 c -0.8121,-0.22038 -1.9437,-0.30253 -2.93064,-0.21275 -1.53346,0.13949 -1.63544,0.11107 -2.208,-0.61533 -0.47428,-0.60171 -0.57084,-0.98232 -0.46001,-1.81319 0.0916,-0.68668 -0.0463,-1.60483 -0.39732,-2.64583 -0.66786,-1.98054 -0.58918,-4.53758 0.18792,-6.10683 l 0.53137,-1.07302 -0.71562,-1.13213 c -1.36984,-2.16715 -1.30324,-4.82503 0.1575,-6.28578 1.17113,-1.17113 2.43651,-1.36999 4.15995,-0.65376 0.7417,0.30823 1.60268,0.56042 1.9133,0.56042 0.89085,0 2.48751,-1.24174 3.07344,-2.39025 0.29442,-0.57713 0.63388,-1.04933 0.75434,-1.04933 0.12047,0 0.44547,0.50216 0.72223,1.11591 0.70413,1.56147 0.69051,4.17397 -0.026,4.98038 -0.37202,0.41872 -0.43207,0.62959 -0.20221,0.71003 0.17982,0.0629 0.86696,0.38782 1.52698,0.72196 0.89634,0.45378 1.48916,0.57494 2.34252,0.47876 1.00786,-0.1136 1.20987,-0.0431 1.71417,0.59798 0.61308,0.77942 0.71497,1.56694 0.33278,2.57219 -0.15957,0.41968 -0.11004,1.10629 0.14916,2.06774 0.75173,2.78839 -0.0417,6.00807 -1.97385,8.01028 -1.18909,1.23217 -2.3778,1.8668 -4.2333,2.26009 -1.77097,0.37537 -2.75626,0.35362 -4.41875,-0.0975 z m 2.80179,-1.2395 c -1.42155,-0.44118 -1.79715,-0.47233 -2.32015,-0.19243 -0.95269,0.50986 -0.25612,0.76338 2.0319,0.73952 l 1.98438,-0.0207 -1.69613,-0.5264 z m -3.86012,-0.44562 c 2.20891,-1.05264 4.48269,-2.83511 6.91905,-5.42401 3.20448,-3.4051 4.62058,-6.18643 3.646,-7.16101 -0.68986,-0.68985 -1.22825,-0.41363 -1.29301,0.66337 -0.18822,3.13052 -9.20822,11.33647 -12.13761,11.04221 -0.97002,-0.0974 -1.25907,0.51663 -0.56834,1.20737 0.6249,0.6249 1.63731,0.52822 3.43391,-0.32793 z m 8.2158,-0.54379 c -0.0734,-0.1187 -0.43652,-0.15787 -0.80702,-0.0871 -0.53236,0.10177 -0.6111,0.20415 -0.37541,0.48813 0.21952,0.2645 0.43252,0.28748 0.80703,0.0871 0.27983,-0.14977 0.44877,-0.36942 0.3754,-0.48813 z m 1.33776,-1.01439 c 0.42981,-0.56621 0.47224,-2.59947 0.0778,-3.73083 -0.33459,-0.95982 -0.41975,-0.99084 -1.0799,-0.39341 -0.46413,0.42003 -0.46507,0.463 -0.0208,0.95507 0.34195,0.37878 0.45741,0.92803 0.43591,2.07372 -0.0314,1.6747 0.0425,1.81269 0.58698,1.09545 z m -9.414,-1.30386 c 2.96298,-2.01086 6.95869,-6.10445 8.04805,-8.2452 0.41755,-0.82055 0.41862,-0.91843 0.0148,-1.36459 -1.10972,-1.22622 -4.26259,-1.95796 -6.38353,-1.48153 -0.72521,0.16291 -0.84466,0.31816 -0.97131,1.26235 -0.18285,1.36329 -0.64874,1.87346 -1.07346,1.17551 -0.70517,-1.15885 -1.57482,-2.01508 -2.04663,-2.01508 -0.76582,0 -0.60902,0.67781 0.42039,1.81725 1.29218,1.43028 1.22013,1.71792 -0.39153,1.56306 -1.59808,-0.15356 -1.72857,0.0756 -1.61561,2.8374 0.0904,2.21049 0.26515,2.61068 1.70056,3.89471 1.25968,1.12684 1.40534,1.16208 2.29823,0.55612 z m 1.97783,-4.22331 c -0.32327,-0.32328 -0.41025,-0.70854 -0.30558,-1.35355 0.32169,-1.98236 2.03616,-4.56251 3.03171,-4.56251 0.77627,0 1.90335,1.19298 1.90335,2.01464 0,2.19173 -3.44009,5.09081 -4.62948,3.90142 z m -5.83086,-5.66651 c -0.33798,-0.54687 0.13936,-1.56183 0.81419,-1.7312 0.52048,-0.13063 0.60046,-0.24399 0.36895,-0.52295 -0.5161,-0.62186 -1.3106,-0.71921 -1.85426,-0.2272 -0.6169,0.55829 -0.65407,1.3795 -0.0983,2.17293 0.40338,0.57591 1.10976,0.85904 0.76945,0.30842 z m -0.39695,-4.44505 -0.009,-0.69929 -0.37812,0.66146 c -0.48936,0.85603 -0.48936,1.07721 0,0.88943 0.21828,-0.0838 0.39265,-0.46698 0.3875,-0.8516 z m 9.64269,-1.31524 c -0.25126,-1.41517 -0.43365,-1.47163 -1.43073,-0.4429 l -0.89806,0.92656 h 0.85396 c 0.51354,0 0.91443,0.1576 1.00567,0.39535 0.28814,0.7509 0.64113,0.0896 0.46916,-0.87901 z"
         id="path917" />
      <path
         style="fill:#ca6867;stroke-width:0.264583"
         d="m 117.31436,129.07324 c -0.65485,-0.16149 -2.03691,-0.26793 -3.07126,-0.23651 -2.57453,0.0782 -3.13237,-0.36233 -3.18232,-2.51302 -0.0197,-0.84938 -0.23572,-2.19916 -0.48,-2.99953 -0.57085,-1.87038 -0.41577,-4.34664 0.36615,-5.8468 0.56752,-1.08882 0.56825,-1.1077 0.0642,-1.66216 -1.07735,-1.18511 -1.48619,-2.96018 -1.12268,-4.87431 0.26353,-1.38768 1.11259,-2.34388 2.43236,-2.73929 0.8618,-0.2582 1.23185,-0.20783 2.833,0.38567 l 1.84173,0.68266 1.20539,-0.76444 c 0.74288,-0.47112 1.41907,-1.18328 1.76229,-1.85605 0.45799,-0.89773 0.6245,-1.0355 0.93755,-0.7757 0.46866,0.38895 1.17607,2.69601 1.17607,3.83548 0,0.46261 -0.29407,1.27443 -0.65349,1.80406 -0.42864,0.63164 -0.5351,0.96297 -0.30942,0.96297 0.18923,0 0.92165,0.29241 1.62759,0.6498 0.99275,0.5026 1.53268,0.61566 2.38322,0.49908 0.98221,-0.13462 1.16349,-0.0698 1.69692,0.60697 0.48928,0.62073 0.56505,0.94898 0.41922,1.81602 -0.24038,1.42923 -0.23513,1.61237 0.0987,3.43958 0.55799,3.05411 -0.43232,6.00619 -2.65227,7.90639 -1.78672,1.52936 -5.00675,2.2627 -7.37297,1.67913 z m 4.7625,-1.17352 c 2.19095,-0.73568 2.41213,-1.42848 0.38304,-1.19978 -0.96453,0.10872 -1.36874,0.0214 -1.97448,-0.42641 -0.47246,-0.34931 -0.82552,-0.45979 -0.92986,-0.29097 -0.0925,0.14969 -0.81864,0.63924 -1.61362,1.0879 -0.79498,0.44866 -1.38651,0.87466 -1.31451,0.94666 0.6416,0.64159 3.36371,0.58295 5.44943,-0.1174 z m -6.18711,-0.72721 c 5.12923,-2.57426 11.34029,-9.67359 10.51903,-12.0234 -0.16331,-0.46728 -0.46432,-0.71455 -0.9369,-0.76964 -0.63868,-0.0744 -0.69627,-0.002 -0.69627,0.87647 0,1.2861 -1.43195,3.40812 -4.03664,5.98195 -3.48468,3.44339 -6.71009,5.46409 -8.2349,5.15913 -0.60923,-0.12184 -0.74596,-0.0569 -0.74596,0.35446 0,0.72661 0.71601,1.3352 1.57085,1.3352 0.40661,0 1.55897,-0.41137 2.56079,-0.91417 z m 9.9023,-2.59156 c 0.64074,-1.3544 0.78234,-1.99794 0.78251,-3.55626 1.2e-4,-1.04643 -0.0954,-1.96168 -0.21219,-2.03388 -0.11682,-0.0722 -0.50212,0.33749 -0.85621,0.91042 -0.35409,0.57294 -0.72107,1.0417 -0.8155,1.0417 -0.0944,0 -0.37332,0.30773 -0.61976,0.68384 -0.39929,0.6094 -0.40485,0.73179 -0.051,1.12447 0.57386,0.63692 0.77188,1.6798 0.46981,2.47429 -0.25876,0.6806 -0.1649,1.00907 0.28835,1.00907 0.12745,0 0.58376,-0.74414 1.01403,-1.65365 z m -11.25582,0.63046 c 3.13686,-1.42981 9.65729,-8.05836 9.65729,-9.81741 0,-0.62906 -1.99532,-1.79669 -3.66134,-2.14256 -1.1043,-0.22925 -1.80877,-0.23085 -2.80892,-0.006 -1.32631,0.29769 -1.33503,0.30644 -1.34782,1.35256 -0.0161,1.31682 -0.56044,1.96148 -1.00672,1.19228 -0.45534,-0.78483 -1.92969,-2.25531 -2.26124,-2.25531 -0.59942,0 -0.25866,1.09265 0.65678,2.10593 1.15005,1.27297 0.99158,1.70672 -0.55966,1.53187 -1.29858,-0.14637 -1.50882,0.0955 -1.9781,2.27558 -0.509,2.36456 0.62654,6.26766 1.81881,6.25164 0.23792,-0.003 0.90884,-0.22289 1.49092,-0.48821 z m -2.65185,-10.90202 c -0.19458,-0.61308 0.49847,-1.56854 1.13776,-1.56854 0.53296,0 -0.0549,-0.71022 -0.77772,-0.93964 -1.20981,-0.38398 -2.03872,1.54266 -1.10676,2.57245 0.58464,0.64602 0.96185,0.61356 0.74672,-0.0643 z m -0.39927,-4.17654 c -0.008,-0.672 -0.0236,-0.67925 -0.39688,-0.1857 -0.50522,0.66797 -0.50064,1.23264 0.008,1.0373 0.21828,-0.0838 0.39309,-0.46698 0.38846,-0.8516 z m 9.6653,-1.3249 c -0.28655,-1.52945 -0.46105,-1.59231 -1.41935,-0.51131 l -0.89058,1.00463 h 0.83274 c 0.49472,0 0.89433,0.16048 0.98446,0.39535 0.2926,0.76251 0.67341,0.0757 0.49273,-0.88867 z"
         id="path915" />
      <path
         style="fill:#9e5c59;stroke-width:0.264583"
         d="m 117.31436,129.07324 c -0.65485,-0.16149 -2.03691,-0.26793 -3.07126,-0.23651 -2.57453,0.0782 -3.13237,-0.36233 -3.18232,-2.51302 -0.0197,-0.84938 -0.23572,-2.19916 -0.48,-2.99953 -0.57085,-1.87038 -0.41577,-4.34664 0.36615,-5.8468 0.56752,-1.08882 0.56825,-1.1077 0.0642,-1.66216 -1.07735,-1.18511 -1.48619,-2.96018 -1.12268,-4.87431 0.26353,-1.38768 1.11259,-2.34388 2.43236,-2.73929 0.8618,-0.2582 1.23185,-0.20783 2.833,0.38567 l 1.84173,0.68266 1.20539,-0.76444 c 0.74288,-0.47112 1.41907,-1.18328 1.76229,-1.85605 0.45799,-0.89773 0.6245,-1.0355 0.93755,-0.7757 0.46866,0.38895 1.17607,2.69601 1.17607,3.83548 0,0.46261 -0.29407,1.27443 -0.65349,1.80406 -0.42864,0.63164 -0.5351,0.96297 -0.30942,0.96297 0.18923,0 0.92165,0.29241 1.62759,0.6498 0.99275,0.5026 1.53268,0.61566 2.38322,0.49908 0.98221,-0.13462 1.16349,-0.0698 1.69692,0.60697 0.48928,0.62073 0.56505,0.94898 0.41922,1.81602 -0.24038,1.42923 -0.23513,1.61237 0.0987,3.43958 0.55799,3.05411 -0.43232,6.00619 -2.65227,7.90639 -1.78672,1.52936 -5.00675,2.2627 -7.37297,1.67913 z m 4.7625,-1.17352 c 2.19095,-0.73568 2.41213,-1.42848 0.38304,-1.19978 -0.96453,0.10872 -1.36874,0.0214 -1.97448,-0.42641 -0.47246,-0.34931 -0.82552,-0.45979 -0.92986,-0.29097 -0.0925,0.14969 -0.81864,0.63924 -1.61362,1.0879 -0.79498,0.44866 -1.38651,0.87466 -1.31451,0.94666 0.6416,0.64159 3.36371,0.58295 5.44943,-0.1174 z m -6.18711,-0.72721 c 5.12923,-2.57426 11.34029,-9.67359 10.51903,-12.0234 -0.16331,-0.46728 -0.46432,-0.71455 -0.9369,-0.76964 -0.63868,-0.0744 -0.69627,-0.002 -0.69627,0.87647 0,1.2861 -1.43195,3.40812 -4.03664,5.98195 -3.48468,3.44339 -6.71009,5.46409 -8.2349,5.15913 -0.60923,-0.12184 -0.74596,-0.0569 -0.74596,0.35446 0,0.72661 0.71601,1.3352 1.57085,1.3352 0.40661,0 1.55897,-0.41137 2.56079,-0.91417 z m 9.9023,-2.59156 c 0.64074,-1.3544 0.78234,-1.99794 0.78251,-3.55626 1.2e-4,-1.04643 -0.0954,-1.96168 -0.21219,-2.03388 -0.11682,-0.0722 -0.50212,0.33749 -0.85621,0.91042 -0.35409,0.57294 -0.72107,1.0417 -0.8155,1.0417 -0.0944,0 -0.37332,0.30773 -0.61976,0.68384 -0.39929,0.6094 -0.40485,0.73179 -0.051,1.12447 0.57386,0.63692 0.77188,1.6798 0.46981,2.47429 -0.25876,0.6806 -0.1649,1.00907 0.28835,1.00907 0.12745,0 0.58376,-0.74414 1.01403,-1.65365 z m -11.25582,0.63046 c 3.13686,-1.42981 9.65729,-8.05836 9.65729,-9.81741 0,-0.62906 -1.99532,-1.79669 -3.66134,-2.14256 -1.10685,-0.22978 -1.809,-0.23102 -2.8191,-0.005 -1.34023,0.29994 -1.34529,0.30501 -1.38869,1.39343 -0.0537,1.34644 -0.51773,1.90484 -0.95567,1.15001 -0.45534,-0.78483 -1.92969,-2.25531 -2.26124,-2.25531 -0.59942,0 -0.25866,1.09265 0.65678,2.10593 1.15005,1.27297 0.99158,1.70672 -0.55966,1.53187 -1.29858,-0.14637 -1.50882,0.0955 -1.9781,2.27558 -0.509,2.36456 0.62654,6.26766 1.81881,6.25164 0.23792,-0.003 0.90884,-0.22289 1.49092,-0.48821 z m -2.08302,-9.62629 c -0.68985,-1.09391 -0.77365,-1.78977 -0.28107,-2.33406 0.63426,-0.70085 1.50883,-0.63912 2.47608,0.17477 0.98976,0.83282 1.06709,0.45008 0.13328,-0.65968 -0.80792,-0.96016 -2.48341,-1.51422 -3.28375,-1.0859 -1.12712,0.60322 -1.01906,2.272 0.23572,3.64029 0.91339,0.99602 1.26178,1.12409 0.71974,0.26458 z m 5.89486,-3.38739 c 2.35083,-0.38847 3.26943,-1.73038 2.68084,-3.91622 l -0.28652,-1.06404 -1.03634,1.10804 -1.03635,1.10805 1.05882,0.0822 c 0.67691,0.0525 1.01942,0.19569 0.94956,0.39688 -0.18687,0.53815 -3.81793,0.32649 -5.42404,-0.31619 -0.76937,-0.30785 -1.69802,-0.55974 -2.06366,-0.55974 -0.94114,0 -2.15724,0.68939 -2.36372,1.33996 -0.22864,0.72036 -0.0332,0.88676 0.62681,0.53356 0.29394,-0.15731 0.78513,-0.28602 1.09153,-0.28602 0.73335,0 2.38834,0.85601 3.03287,1.56868 0.3049,0.33714 0.67998,0.50076 0.92604,0.40396 0.22747,-0.0895 1.05733,-0.26907 1.84416,-0.39909 z"
         id="path913" />
      <path
         style="fill:#6a6f74;stroke-width:0.264583"
         d="m 117.31436,129.07324 c -0.65485,-0.16149 -2.03691,-0.26793 -3.07126,-0.23651 -2.57453,0.0782 -3.13237,-0.36233 -3.18232,-2.51302 -0.0197,-0.84938 -0.23572,-2.19916 -0.48,-2.99953 -0.57085,-1.87038 -0.41577,-4.34664 0.36615,-5.8468 0.56752,-1.08882 0.56825,-1.1077 0.0642,-1.66216 -1.07735,-1.18511 -1.48619,-2.96018 -1.12268,-4.87431 0.26353,-1.38768 1.11259,-2.34388 2.43236,-2.73929 0.8618,-0.2582 1.23185,-0.20783 2.833,0.38567 l 1.84173,0.68266 1.20539,-0.76444 c 0.74288,-0.47112 1.41907,-1.18328 1.76229,-1.85605 0.45799,-0.89773 0.6245,-1.0355 0.93755,-0.7757 0.46866,0.38895 1.17607,2.69601 1.17607,3.83548 0,0.46261 -0.29407,1.27443 -0.65349,1.80406 -0.42864,0.63164 -0.5351,0.96297 -0.30942,0.96297 0.18923,0 0.92165,0.29241 1.62759,0.6498 0.99275,0.5026 1.53268,0.61566 2.38322,0.49908 0.98221,-0.13462 1.16349,-0.0698 1.69692,0.60697 0.48928,0.62073 0.56505,0.94898 0.41922,1.81602 -0.24038,1.42923 -0.23513,1.61237 0.0987,3.43958 0.55799,3.05411 -0.43232,6.00619 -2.65227,7.90639 -1.78672,1.52936 -5.00675,2.2627 -7.37297,1.67913 z m 4.7625,-1.17352 c 2.19095,-0.73568 2.41213,-1.42848 0.38304,-1.19978 -0.96453,0.10872 -1.36874,0.0214 -1.97448,-0.42641 -0.47246,-0.34931 -0.82552,-0.45979 -0.92986,-0.29097 -0.0925,0.14969 -0.81864,0.63924 -1.61362,1.0879 -0.79498,0.44866 -1.38651,0.87466 -1.31451,0.94666 0.6416,0.64159 3.36371,0.58295 5.44943,-0.1174 z m -6.18711,-0.72721 c 5.12923,-2.57426 11.34029,-9.67359 10.51903,-12.0234 -0.16331,-0.46728 -0.46432,-0.71455 -0.9369,-0.76964 -0.63868,-0.0744 -0.69627,-0.002 -0.69627,0.87647 0,1.2861 -1.43195,3.40812 -4.03664,5.98195 -3.48468,3.44339 -6.71009,5.46409 -8.2349,5.15913 -0.60923,-0.12184 -0.74596,-0.0569 -0.74596,0.35446 0,0.72661 0.71601,1.3352 1.57085,1.3352 0.40661,0 1.55897,-0.41137 2.56079,-0.91417 z m 9.9023,-2.59156 c 0.64074,-1.3544 0.78234,-1.99794 0.78251,-3.55626 1.2e-4,-1.04643 -0.0954,-1.96168 -0.21219,-2.03388 -0.11682,-0.0722 -0.50212,0.33749 -0.85621,0.91042 -0.35409,0.57294 -0.72107,1.0417 -0.8155,1.0417 -0.0944,0 -0.37332,0.30773 -0.61976,0.68384 -0.39929,0.6094 -0.40485,0.73179 -0.051,1.12447 0.57386,0.63692 0.77188,1.6798 0.46981,2.47429 -0.25876,0.6806 -0.1649,1.00907 0.28835,1.00907 0.12745,0 0.58376,-0.74414 1.01403,-1.65365 z m -11.25582,0.63046 c 3.13686,-1.42981 9.65729,-8.05836 9.65729,-9.81741 0,-0.62906 -1.99532,-1.79669 -3.66134,-2.14256 -1.12405,-0.23335 -1.80659,-0.23156 -2.87506,0.008 l -1.4011,0.31355 v 1.15603 c 0,1.28631 -0.47148,1.82615 -0.90967,1.04157 -0.41973,-0.75153 -1.90595,-2.23555 -2.23887,-2.23555 -0.59942,0 -0.25866,1.09265 0.65678,2.10593 1.15005,1.27297 0.99158,1.70672 -0.55966,1.53187 -1.29858,-0.14637 -1.50882,0.0955 -1.9781,2.27558 -0.509,2.36456 0.62654,6.26766 1.81881,6.25164 0.23792,-0.003 0.90884,-0.22289 1.49092,-0.48821 z m -1.94876,-9.51014 c -0.83918,-1.1785 -0.9423,-1.98245 -0.32584,-2.54033 0.69198,-0.62624 1.68385,-0.39008 2.72204,0.6481 0.70447,0.70447 0.76079,0.72162 0.60711,0.18488 -0.23138,-0.80815 -1.79543,-2.25485 -2.67693,-2.47609 -2.37421,-0.59589 -2.97502,2.47167 -0.83654,4.27109 1.01573,0.85468 1.16312,0.82936 0.51016,-0.0877 z m 5.33844,-3.33744 c 2.20883,-0.46215 2.99311,-0.94889 3.2242,-2.00101 0.18559,-0.845 -0.0502,-2.84729 -0.35305,-2.99836 -0.0965,-0.0481 -0.63737,0.4275 -1.20198,1.05695 l -1.02657,1.14444 h 1.09271 c 1.44586,0 1.41625,0.52074 -0.0318,0.55845 -1.86753,0.0486 -2.36364,-0.0311 -4.47371,-0.71896 -1.8778,-0.61216 -2.09439,-0.63212 -2.95526,-0.27243 -0.92359,0.3859 -1.50072,1.09753 -1.50072,1.85048 0,0.34803 0.0912,0.34849 0.7818,0.004 1.0282,-0.51293 2.57276,-0.11705 3.61864,0.92747 0.41741,0.41688 0.81851,0.77328 0.89133,0.79199 0.0728,0.0187 0.94328,-0.13563 1.93437,-0.343 z"
         id="path911" />
      <path
         style="fill:#554f4e;stroke-width:0.264583"
         d="m 117.39282,129.13193 c -0.6117,-0.12084 -1.34804,-0.34593 -1.63633,-0.50022 -0.35666,-0.19088 -0.74656,-0.19596 -1.22016,-0.0159 -1.0698,0.40674 -2.1268,0.31616 -2.81506,-0.24123 -0.51785,-0.41939 -0.61591,-0.72468 -0.57365,-1.78594 0.028,-0.70405 -0.1957,-2.09619 -0.49718,-3.09365 -0.64296,-2.12722 -0.55276,-3.9617 0.28828,-5.86301 l 0.54586,-1.234 -0.64234,-0.84214 c -1.25786,-1.64915 -1.40091,-4.44069 -0.31267,-6.10156 0.22705,-0.34651 0.92377,-0.82426 1.54828,-1.06166 1.09803,-0.41741 1.19999,-0.40963 3.09267,0.236 1.95456,0.66673 1.95831,0.66695 2.78263,0.15748 1.09958,-0.67957 1.90986,-1.57033 2.2535,-2.47732 0.33868,-0.89388 0.67794,-0.73983 1.24028,0.56318 0.66301,1.5363 0.61932,3.80433 -0.0918,4.76818 l -0.58948,0.79894 0.98636,0.32329 c 0.54249,0.17781 1.2444,0.49108 1.55979,0.69615 0.38362,0.24944 0.88758,0.31392 1.52252,0.1948 1.79218,-0.33621 2.87797,1.08083 2.26088,2.95063 -0.22395,0.67856 -0.21785,1.13872 0.0248,1.87408 0.54551,1.65289 0.38854,4.36128 -0.34527,5.9576 -1.26675,2.75566 -3.04686,4.11278 -6.14616,4.68572 -1.72728,0.3193 -1.67376,0.31913 -3.23574,0.0106 z m 3.49341,-0.79346 c 1.65884,-0.43013 3.06695,-1.1051 2.96204,-1.41984 -0.0526,-0.15794 -0.68635,-0.28716 -1.40822,-0.28716 -0.79402,0 -1.58598,-0.17918 -2.00478,-0.45359 -0.6561,-0.42989 -0.72462,-0.42876 -1.31128,0.0216 -0.34045,0.26133 -1.1449,0.78431 -1.78765,1.16219 l -1.16863,0.68704 0.90405,0.25973 c 1.21945,0.35034 2.53923,0.36074 3.81447,0.0301 z m -4.18463,-1.51357 c 5.77485,-3.45275 11.27361,-10.46111 9.55567,-12.17905 -0.39474,-0.39474 -1.33376,-0.41249 -1.71387,-0.0324 -0.20377,0.20377 -0.70575,0.0477 -1.75939,-0.54691 -1.70848,-0.96421 -3.72642,-1.26874 -5.40351,-0.81548 -1.04115,0.2814 -1.12448,0.37018 -1.12448,1.19812 0,0.97166 -0.21819,1.73123 -0.4973,1.73123 -0.0969,0 -0.38811,-0.38695 -0.64723,-0.85989 -0.57122,-1.04262 -1.6559,-1.88476 -2.17232,-1.68659 -0.52521,0.20154 -0.2306,0.89775 0.87154,2.05958 1.14052,1.20227 0.94892,1.61749 -0.69238,1.50048 l -1.22793,-0.0875 -0.46759,1.32291 c -0.6419,1.81612 -0.47007,4.19259 0.43724,6.04707 0.8053,1.64598 0.82411,1.75814 0.29493,1.75814 -0.48701,0 -0.53277,1.07734 -0.0661,1.55717 0.61287,0.63022 2.65885,0.20137 4.61276,-0.96687 z m 8.93408,-1.73478 c 0.36889,-0.62946 0.78801,-1.76302 0.93138,-2.51901 0.25222,-1.32995 0.10427,-3.76282 -0.22669,-3.7275 -0.0894,0.01 -0.77179,0.79919 -1.51652,1.7548 -1.33963,1.71896 -1.34859,1.74293 -0.84127,2.25025 0.37764,0.37763 0.50168,0.8391 0.47064,1.75092 -0.0538,1.58024 -0.0451,1.63502 0.25832,1.63502 0.13938,0 0.55525,-0.51501 0.92414,-1.14448 z m -13.06581,-9.41355 c -0.6398,-0.89852 -0.71493,-2.20254 -0.15374,-2.66829 0.55614,-0.46155 1.64473,-0.12205 2.56754,0.80076 0.70447,0.70447 0.76079,0.72162 0.60711,0.18488 -0.23138,-0.80815 -1.79543,-2.25485 -2.67693,-2.47609 -2.37421,-0.59589 -2.97502,2.47167 -0.83654,4.27109 1.02271,0.86055 1.16261,0.82864 0.49256,-0.11235 z m 5.35604,-3.31274 c 2.28383,-0.47784 3.02154,-0.95941 3.23811,-2.11384 0.14909,-0.79473 -0.0183,-2.3439 -0.30666,-2.83806 -0.0899,-0.154 -2.22009,1.81567 -2.22009,2.05276 0,0.0556 0.47625,0.10116 1.05834,0.10116 1.4223,0 1.36056,0.5213 -0.0662,0.55845 -1.86753,0.0486 -2.36364,-0.0311 -4.47371,-0.71896 -1.8778,-0.61216 -2.09439,-0.63212 -2.95526,-0.27243 -0.92359,0.3859 -1.50072,1.09753 -1.50072,1.85048 0,0.34803 0.0912,0.34849 0.7818,0.004 1.0282,-0.51293 2.57276,-0.11705 3.61864,0.92747 0.41741,0.41688 0.81851,0.77328 0.89133,0.79199 0.0728,0.0187 0.94328,-0.13563 1.93437,-0.343 z"
         id="path909" />
      <path
         style="fill:#992d22;stroke-width:0.264583"
         d="m 116.19953,128.77103 c -0.7311,-0.26101 -1.2788,-0.28297 -2.14025,-0.0858 -0.88847,0.20331 -1.33683,0.17853 -1.92788,-0.10658 -0.70527,-0.3402 -0.77248,-0.49363 -0.79762,-1.82078 -0.0151,-0.79709 -0.17291,-1.80645 -0.3507,-2.24301 -0.93971,-2.30748 -0.88877,-5.33773 0.1226,-7.29351 0.37359,-0.72245 0.3788,-0.87868 0.0421,-1.26336 -1.24987,-1.42801 -1.67394,-4.5243 -0.84041,-6.13617 0.81934,-1.58444 2.79137,-1.98128 5.17558,-1.04152 0.74976,0.29553 1.59543,0.46362 1.87926,0.37353 0.7534,-0.23912 2.29967,-1.66567 2.75057,-2.53762 0.21459,-0.41496 0.49631,-0.75448 0.62606,-0.75448 0.41605,0 1.17519,2.41707 1.17519,3.74176 0,0.88441 -0.17104,1.51362 -0.55121,2.02783 l -0.5512,0.74554 1.6248,0.73995 c 1.12378,0.51178 1.99797,0.7258 2.83495,0.69405 1.50129,-0.057 1.927,0.38438 1.84336,1.91104 -0.0337,0.61602 -0.0284,1.59629 0.012,2.17837 0.0404,0.58209 0.0807,2.1299 0.0897,3.43959 0.0148,2.15944 -0.0566,2.51324 -0.76679,3.79824 -1.47354,2.66615 -3.95999,4.01604 -7.3593,3.99535 -1.04957,-0.006 -2.35045,-0.16945 -2.89084,-0.36237 z m 6.51676,-1.03711 c 1.55111,-0.71012 1.74869,-1.23151 0.46943,-1.23879 -0.39159,-0.002 -0.87123,-0.10499 -1.06587,-0.22836 -0.54268,-0.34398 -0.25765,-1.37303 0.54587,-1.9707 0.70166,-0.52191 0.73571,-0.52323 1.25991,-0.0488 0.33062,0.29921 0.51199,0.75172 0.46947,1.17132 -0.11623,1.14707 0.65765,0.80327 1.43876,-0.63916 0.82828,-1.52956 1.15107,-3.52274 0.83177,-5.13623 l -0.22315,-1.12764 -1.63782,2.0736 c -2.21711,2.80702 -3.77156,4.26808 -6.39945,6.01498 -1.2603,0.83779 -2.05926,1.52339 -1.85208,1.58931 0.20039,0.0638 0.54295,0.18275 0.76123,0.26442 0.94293,0.3528 3.92216,-0.0464 5.40193,-0.72391 z m -6.11766,-0.79207 c 4.78743,-2.80562 9.76966,-8.42469 9.82255,-11.07808 0.027,-1.35379 -0.5228,-1.7956 -1.68739,-1.35602 -0.67498,0.25478 -0.89481,0.22287 -1.44473,-0.20969 -1.48664,-1.1694 -4.37893,-1.63692 -6.1998,-1.00216 -0.72817,0.25384 -0.83375,0.41231 -0.83729,1.25677 -0.004,0.89097 -0.37398,1.91132 -0.58788,1.6201 -0.0503,-0.0686 -0.40942,-0.62117 -0.79795,-1.22805 -0.7375,-1.15197 -1.6422,-1.65887 -2.11567,-1.1854 -0.33704,0.33704 0.31287,1.47312 1.34929,2.35861 0.59504,0.50839 0.64104,0.63981 0.30418,0.86913 -0.21828,0.14859 -0.84903,0.20417 -1.40167,0.1235 -0.98607,-0.14393 -1.015,-0.12356 -1.5533,1.09336 -0.75837,1.7144 -0.58774,4.55633 0.38628,6.43371 0.59517,1.14715 0.63247,1.35318 0.28069,1.55004 -0.58818,0.32917 -0.33965,1.43222 0.40616,1.80264 0.76562,0.38026 2.32139,-0.0199 4.07653,-1.04846 z m -4.07447,-11.41041 c -0.7131,-1.2086 -0.58539,-2.31824 0.29228,-2.53965 0.78858,-0.19894 1.91528,0.30885 2.52198,1.13661 l 0.43743,0.59682 -0.17723,-0.66145 c -0.22758,-0.8494 -1.75983,-2.3138 -2.65647,-2.53884 -0.92674,-0.2326 -1.92865,0.25846 -2.24958,1.10256 -0.32921,0.8659 0.26156,2.21634 1.38203,3.15914 1.03088,0.86744 1.09159,0.83298 0.44956,-0.25519 z m 6.20216,-3.30044 c 1.86654,-0.30939 2.4245,-0.98227 2.4245,-2.92385 0,-0.86181 -0.11907,-1.67215 -0.26459,-1.80076 -0.16311,-0.14415 -0.69348,0.20594 -1.38289,0.91282 l -1.1183,1.14664 h 1.18445 c 1.50876,0 1.56452,0.51927 0.06,0.55845 -1.90671,0.0497 -2.37993,-0.0291 -4.50181,-0.74925 -1.97288,-0.66958 -2.09053,-0.68002 -2.9646,-0.26321 -0.80236,0.38262 -1.95107,1.9065 -1.65803,2.19954 0.0599,0.0599 0.47999,-0.0763 0.9336,-0.30259 1.07779,-0.53767 2.60365,-0.15518 3.66159,0.91785 0.59622,0.60473 0.92912,0.74262 1.55269,0.64312 0.43656,-0.0697 1.3696,-0.2221 2.07342,-0.33876 z"
         id="path907" />
      <path
         style="fill:#4f312e;stroke-width:0.264583"
         d="m 116.19953,128.77103 c -0.7311,-0.26101 -1.2788,-0.28297 -2.14025,-0.0858 -0.88847,0.20331 -1.33683,0.17853 -1.92788,-0.10658 -0.70527,-0.3402 -0.77248,-0.49363 -0.79762,-1.82078 -0.0151,-0.79709 -0.17291,-1.80645 -0.3507,-2.24301 -0.93971,-2.30748 -0.88877,-5.33773 0.1226,-7.29351 0.37359,-0.72245 0.3788,-0.87868 0.0421,-1.26336 -1.24987,-1.42801 -1.67394,-4.5243 -0.84041,-6.13617 0.81934,-1.58444 2.79137,-1.98128 5.17558,-1.04152 0.74976,0.29553 1.59543,0.46362 1.87926,0.37353 0.7534,-0.23912 2.29967,-1.66567 2.75057,-2.53762 0.21459,-0.41496 0.49631,-0.75448 0.62606,-0.75448 0.41605,0 1.17519,2.41707 1.17519,3.74176 0,0.88441 -0.17104,1.51362 -0.55121,2.02783 l -0.5512,0.74554 1.6248,0.73995 c 1.12378,0.51178 1.99797,0.7258 2.83495,0.69405 1.50129,-0.057 1.927,0.38438 1.84336,1.91104 -0.0337,0.61602 -0.0284,1.59629 0.012,2.17837 0.0404,0.58209 0.0807,2.1299 0.0897,3.43959 0.0148,2.15944 -0.0566,2.51324 -0.76679,3.79824 -1.47354,2.66615 -3.95999,4.01604 -7.3593,3.99535 -1.04957,-0.006 -2.35045,-0.16945 -2.89084,-0.36237 z m 6.51676,-1.03711 c 1.55111,-0.71012 1.74869,-1.23151 0.46943,-1.23879 -0.39159,-0.002 -0.87123,-0.10499 -1.06587,-0.22836 -0.54268,-0.34398 -0.25765,-1.37303 0.54587,-1.9707 0.70166,-0.52191 0.73571,-0.52323 1.25991,-0.0488 0.33062,0.29921 0.51199,0.75172 0.46947,1.17132 -0.11623,1.14707 0.65765,0.80327 1.43876,-0.63916 0.82828,-1.52956 1.15107,-3.52274 0.83177,-5.13623 l -0.22315,-1.12764 -1.63782,2.0736 c -2.21711,2.80702 -3.77156,4.26808 -6.39945,6.01498 -1.2603,0.83779 -2.05926,1.52339 -1.85208,1.58931 0.20039,0.0638 0.54295,0.18275 0.76123,0.26442 0.94293,0.3528 3.92216,-0.0464 5.40193,-0.72391 z m -6.11766,-0.79207 c 4.78743,-2.80562 9.76966,-8.42469 9.82255,-11.07808 0.0269,-1.35014 -0.52298,-1.79553 -1.67836,-1.35942 -0.67949,0.25647 -0.89848,0.2149 -1.60196,-0.30411 -1.5226,-1.12334 -3.41182,-1.38077 -6.45948,-0.88017 -0.27538,0.0452 -0.54808,-0.0512 -0.606,-0.21439 -0.11105,-0.31283 1.79296,-0.894 2.92889,-0.894 1.09391,0 2.04773,-1.03826 2.19561,-2.38998 0.0711,-0.65004 0.003,-1.50944 -0.15188,-1.90978 l -0.28118,-0.72788 -1.13482,1.12476 c -0.62415,0.61862 -1.04377,1.16445 -0.93248,1.21295 0.11128,0.0485 0.20234,0.19734 0.20234,0.33073 0,0.45885 -1.72352,0.24743 -3.77421,-0.46298 -1.97602,-0.68454 -2.08914,-0.69514 -2.9646,-0.27766 -1.22711,0.58517 -1.70427,1.59487 -1.62026,3.42852 0.0714,1.55877 0.89178,3.04212 2.01481,3.64315 0.49544,0.26515 0.49441,0.24257 -0.0295,-0.64544 -0.71664,-1.21461 -0.59095,-2.32446 0.28837,-2.54628 1.24948,-0.31521 3.175,1.28232 3.175,2.63417 0,0.83735 -0.33,0.6675 -1.00732,-0.51847 -0.68688,-1.2027 -1.73298,-1.84884 -2.21419,-1.36763 -0.35851,0.35851 0.25943,1.46355 1.32983,2.37807 0.59504,0.50839 0.64104,0.63981 0.30418,0.86913 -0.21828,0.14859 -0.84903,0.20417 -1.40167,0.1235 -0.98607,-0.14393 -1.015,-0.12356 -1.5533,1.09336 -0.75837,1.7144 -0.58774,4.55633 0.38628,6.43371 0.59517,1.14715 0.63247,1.35318 0.28069,1.55004 -0.58818,0.32917 -0.33965,1.43222 0.40616,1.80264 0.76562,0.38026 2.32139,-0.0199 4.07653,-1.04846 z"
         id="path905" />
      <path
         style="fill:#231816;stroke-width:0.264583"
         d="m 116.21368,128.76698 c -0.74207,-0.2847 -1.22125,-0.30735 -2.05039,-0.0969 -2.04738,0.51968 -3.16875,-0.45387 -2.86971,-2.49141 0.0757,-0.51554 -0.0847,-1.31058 -0.41284,-2.04713 -0.78016,-1.75097 -0.74994,-4.77401 0.0645,-6.45651 0.55544,-1.14739 0.57184,-1.29457 0.19112,-1.71526 -0.71733,-0.79264 -1.23039,-2.35555 -1.23039,-3.7481 0,-3.46806 2.05542,-4.74598 5.51722,-3.43022 0.7789,0.29604 1.64992,0.46407 1.93562,0.37339 0.7563,-0.24004 2.30218,-1.66509 2.75393,-2.53869 0.21459,-0.41496 0.49631,-0.75448 0.62606,-0.75448 0.41067,0 1.17519,2.40945 1.17519,3.70372 0,0.8479 -0.17806,1.48864 -0.55897,2.01142 l -0.55897,0.76716 1.63256,0.75953 c 1.15282,0.53634 1.98819,0.74512 2.84272,0.71047 1.49905,-0.0608 1.91656,0.37199 1.83485,1.902 -0.0823,1.54104 -0.0641,2.11551 0.14523,4.599 0.21651,2.56808 -0.21694,4.18308 -1.61362,6.01226 -1.35737,1.77768 -3.30431,2.63862 -6.18543,2.73518 -1.48402,0.0497 -2.60574,-0.0526 -3.23873,-0.29544 z m 6.50112,-0.97067 c 1.48582,-0.72687 1.60084,-1.10741 0.39206,-1.29713 -1.26063,-0.19785 -1.56138,-0.87252 -0.76625,-1.7189 0.90965,-0.96828 1.69623,-0.79578 1.80563,0.39599 0.12566,1.36885 0.43244,1.47642 1.22968,0.43118 1.21575,-1.59393 1.73017,-4.05847 1.29807,-6.21894 -0.20323,-1.01616 -0.39056,-1.03583 -0.94503,-0.0992 -1.50179,2.53682 -5.99653,6.75945 -8.64344,8.12016 -2.44235,1.25555 3.07803,1.63492 5.62928,0.38686 z m -6.85565,-0.4354 c 4.5509,-2.2724 10.72489,-8.94194 10.71157,-11.57133 -0.007,-1.28864 -0.31947,-1.55849 -1.60711,-1.38578 -0.91801,0.12313 -1.3578,0.0221 -2.29554,-0.52748 -1.33484,-0.78227 -4.2499,-1.12298 -5.59528,-0.65397 -0.65976,0.22999 -0.81677,0.21338 -0.81677,-0.0864 0,-0.22491 0.3909,-0.43219 0.99219,-0.52612 3.32502,-0.51943 4.14724,-1.27046 3.97812,-3.63372 -0.0597,-0.83369 -0.18765,-1.59497 -0.28443,-1.69174 -0.2454,-0.2454 -2.4502,2.07416 -2.35722,2.47992 0.11557,0.50431 -0.8398,0.39952 -3.01518,-0.33073 -2.51235,-0.84337 -3.08395,-0.83116 -4.11249,0.0878 -0.70794,0.63255 -0.85779,0.98047 -0.96164,2.23281 -0.14359,1.7314 0.57931,3.56176 1.69556,4.29316 0.90665,0.59406 1.05951,0.34078 0.36294,-0.60138 -0.36043,-0.4875 -0.54125,-1.0609 -0.48632,-1.54216 0.0763,-0.66832 0.20859,-0.77626 1.03671,-0.84566 0.82063,-0.0688 1.08061,0.0658 1.91823,0.99295 0.53292,0.58988 0.96895,1.31029 0.96895,1.60091 0,0.80185 -0.33883,0.63484 -0.92604,-0.45644 -0.6273,-1.16577 -1.80917,-1.94203 -2.26412,-1.48708 -0.37763,0.37763 0.02,1.20443 1.15714,2.40578 0.89301,0.94347 0.92394,0.91706 -1.13507,0.969 -1.19772,0.0302 -1.66991,0.93921 -1.80949,3.48339 -0.0865,1.57669 0.0123,2.16014 0.6247,3.69105 0.48995,1.22467 0.62822,1.85141 0.4235,1.91965 -0.52371,0.17457 -0.33337,1.32948 0.29136,1.76793 0.71724,0.50336 1.63301,0.35071 3.50573,-0.5844 z"
         id="path903" />
    </g>
  </g>
</svg>
