<?xml version="1.0" encoding="UTF-8" standalone="no"?>
<svg
   xmlns:dc="http://purl.org/dc/elements/1.1/"
   xmlns:cc="http://creativecommons.org/ns#"
   xmlns:rdf="http://www.w3.org/1999/02/22-rdf-syntax-ns#"
   xmlns:svg="http://www.w3.org/2000/svg"
   xmlns="http://www.w3.org/2000/svg"
   xmlns:sodipodi="http://sodipodi.sourceforge.net/DTD/sodipodi-0.dtd"
   xmlns:inkscape="http://www.inkscape.org/namespaces/inkscape"
   width=""
   height=""
   viewBox="0 0 22.661366 23.483768"
   version="1.1"
   id="svg8"
   inkscape:version="1.0.2-2 (e86c870879, 2021-01-15)"
   sodipodi:docname="thunder_stone.svg">
  <defs
     id="defs2" />
  <sodipodi:namedview
     id="base"
     pagecolor="#ffffff"
     bordercolor="#666666"
     borderopacity="1.0"
     inkscape:pageopacity="0.0"
     inkscape:pageshadow="2"
     inkscape:zoom="5.6"
     inkscape:cx="25.08303"
     inkscape:cy="49.103845"
     inkscape:document-units="mm"
     inkscape:current-layer="g1182"
     inkscape:document-rotation="0"
     showgrid="false"
     inkscape:window-width="1920"
     inkscape:window-height="1001"
     inkscape:window-x="-9"
     inkscape:window-y="-9"
     inkscape:window-maximized="1" />
  <metadata
     id="metadata5">
    <rdf:RDF>
      <cc:Work
         rdf:about="">
        <dc:format>image/svg+xml</dc:format>
        <dc:type
           rdf:resource="http://purl.org/dc/dcmitype/StillImage" />
        <dc:title></dc:title>
      </cc:Work>
    </rdf:RDF>
  </metadata>
  <g
     inkscape:groupmode="layer"
     id="layer5"
     inkscape:label="Layer 4"
     style="display:inline"
     transform="translate(-128.17595,-157.20239)">
    <path
       style="display:inline;fill:#8bc882;fill-opacity:1;stroke:#000000;stroke-width:0.75;stroke-linecap:butt;stroke-linejoin:miter;stroke-miterlimit:4;stroke-dasharray:none;stroke-opacity:1"
       d="m 146.86458,157.88947 c -0.45951,-0.14458 -5.42339,-0.66986 -7.28308,0.10023 -2.58711,1.0713 -10.12285,8.68628 -10.55717,10.05601 -0.4343,1.36973 -0.60133,8.0181 -0.36746,8.8867 0.23386,0.86862 2.01724,2.7776 2.97336,3.14041 2.36634,0.54875 7.39535,0.0401 9.85557,-0.86862 2.7061,-1.00226 7.61717,-7.28307 8.25193,-9.62168 0.63477,-2.33863 1.20272,-8.3856 0.10023,-9.55491 -1.10248,-1.16931 -1.80889,-1.77174 -2.97338,-2.13814 z"
       id="path302-8"
       sodipodi:nodetypes="ssssccsss" />
  </g>
  <g
     inkscape:groupmode="layer"
     id="layer4"
     inkscape:label="Layer 3"
     style="display:inline"
     transform="translate(-128.17595,-157.20239)">
    <path
       style="fill:#5bac6d;fill-opacity:1;stroke:none;stroke-width:0.264583px;stroke-linecap:butt;stroke-linejoin:miter;stroke-opacity:1"
       d="m 131.36297,167.91208 c -1.09319,2.58525 -2.33071,5.60317 -1.50339,8.28536 0.3087,1.00081 1.22946,1.85722 2.20497,2.23838 2.81419,1.0996 8.23982,0.0816 9.05376,-0.43432 2.37202,-1.50339 6.08709,-4.95803 7.48355,-8.4524 1.04208,-2.6076 1.34453,-5.81209 0.30067,-8.41898 -0.48595,-1.21359 -2.18763,-2.43876 -2.80633,-2.73952 -0.60135,-0.29233 -4.08115,-0.34458 -5.94674,-0.20045 -0.88888,0.0687 -2.50566,0.93544 -2.50566,0.93544 0,0 -4.87868,5.47059 -6.28083,8.78649 z"
       id="path1130"
       sodipodi:nodetypes="sssssssscs" />
  </g>
  <g
     inkscape:groupmode="layer"
     id="layer8"
     inkscape:label="Layer 7"
     style="display:inline"
     transform="translate(-128.17595,-157.20239)">
    <path
       style="fill:#458c47;fill-opacity:1;stroke:none;stroke-width:0.264583px;stroke-linecap:butt;stroke-linejoin:miter;stroke-opacity:1"
       d="m 130.59457,171.15272 0.56795,6.41447 4.44336,-7.21628 -1.57021,-2.10474 z"
       id="path1164" />
    <path
       style="fill:#458c47;fill-opacity:1;stroke:none;stroke-width:0.264583px;stroke-linecap:butt;stroke-linejoin:miter;stroke-opacity:1"
       d="m 139.9156,174.76086 -1.5368,3.17383 -6.72497,-0.36857 z"
       id="path1166" />
    <path
       style="fill:#458c47;fill-opacity:1;stroke:none;stroke-width:0.264583px;stroke-linecap:butt;stroke-linejoin:miter;stroke-opacity:1"
       d="m 145.9933,159.08073 -5.33891,4.29948 -2.05525,-3.80339 z"
       id="path1168" />
  </g>
  <g
     inkscape:groupmode="layer"
     id="layer6"
     inkscape:label="Layer 5"
     style="display:inline"
     transform="translate(-128.17595,-157.20239)">
    <path
       style="fill:#8bc882;fill-opacity:1;stroke:none;stroke-width:0.264583px;stroke-linecap:butt;stroke-linejoin:miter;stroke-opacity:1"
       d="m 130.89525,177.70082 7.04923,-1.53679 1.40317,-3.84201 -3.94223,0.70159 z"
       id="path1154" />
    <path
       style="fill:#8bc882;fill-opacity:1;stroke:none;stroke-width:0.264583px;stroke-linecap:butt;stroke-linejoin:miter;stroke-opacity:1"
       d="m 146.96483,164.1369 1.67044,-0.0334 -0.56795,5.14494 -3.24065,0.7684 z"
       id="path1156" />
    <path
       style="fill:#8bc882;fill-opacity:1;stroke:none;stroke-width:0.264583px;stroke-linecap:butt;stroke-linejoin:miter;stroke-opacity:1"
       d="m 140.66729,167.56129 1.73725,-5.82982 3.25735,2.37202 -2.78962,3.52461 z"
       id="path1170" />
  </g>
  <g
     inkscape:groupmode="layer"
     id="layer7"
     inkscape:label="Layer 6"
     style="display:inline"
     transform="translate(-128.17595,-157.20239)">
    <path
       style="fill:#458c47;fill-opacity:1;stroke:none;stroke-width:0.264583px;stroke-linecap:butt;stroke-linejoin:miter;stroke-opacity:1"
       d="m 144.02486,174.22632 -3.90881,-3.90882 6.81537,-6.11379 -1.83748,6.58152 1.9043,-0.0334 0.0668,0.96885 z"
       id="path1161" />
  </g>
  <g
     inkscape:groupmode="layer"
     id="layer9"
     inkscape:label="Layer 8"
     style="display:inline"
     transform="translate(-128.17595,-157.20239)">
    <path
       style="fill:#cddf81;fill-opacity:1;stroke:none;stroke-width:0.264583px;stroke-linecap:butt;stroke-linejoin:miter;stroke-opacity:1"
       d="m 148.04855,161.67931 -4.27586,9.04781 -6.47284,0.47247 -5.76414,6.00037 4.46485,-10.15811 6.47284,-0.54334 z"
       id="path1173" />
    <path
       style="fill:#a9c35c;fill-opacity:1;stroke:none;stroke-width:0.264583px;stroke-linecap:butt;stroke-linejoin:miter;stroke-opacity:1"
       d="m 134.9375,169.4987 9.63839,-0.4016 -0.8032,1.63002 -6.47284,0.47247 -5.76414,6.00037 z"
       id="path1175" />
  </g>
  <g
     inkscape:groupmode="layer"
     id="layer10"
     inkscape:label="Layer 9"
     transform="translate(-128.17595,-157.20239)">
    <path
       style="fill:#ffffff;fill-opacity:1;stroke:none;stroke-width:0.264583px;stroke-linecap:butt;stroke-linejoin:miter;stroke-opacity:1"
       d="m 130.26004,166.35677 c 0,0 0.95401,2.14194 1.34654,2.4096 0.39253,0.26766 3.32604,0.14501 3.80339,-0.21262 0.47735,-0.35763 5.42868,-5.65467 5.64602,-6.04761 0.21734,-0.39294 0.23659,-2.79072 -0.11812,-3.16556 -0.35472,-0.37484 -3.63802,0.0945 -3.63802,0.0945 z"
       id="path1178"
       sodipodi:nodetypes="czzzzcc" />
  </g>
  <g
     inkscape:groupmode="layer"
     id="g1182"
     inkscape:label="Layer 4 copy"
     style="display:inline"
     transform="translate(-128.17595,-157.20239)">
    <path
       style="display:inline;fill:none;fill-opacity:1;stroke:#000000;stroke-width:0.75;stroke-linecap:butt;stroke-linejoin:miter;stroke-miterlimit:4;stroke-dasharray:none;stroke-opacity:1"
       d="m 146.86458,157.88947 c -0.45951,-0.14458 -5.42339,-0.66986 -7.28308,0.10023 -2.58711,1.0713 -10.12285,8.68628 -10.55717,10.05601 -0.4343,1.36973 -0.60133,8.0181 -0.36746,8.8867 0.23386,0.86862 2.01724,2.7776 2.97336,3.14041 2.36634,0.54875 7.39535,0.0401 9.85557,-0.86862 2.7061,-1.00226 7.61717,-7.28307 8.25193,-9.62168 0.63477,-2.33863 1.20272,-8.3856 0.10023,-9.55491 -1.10248,-1.16931 -1.80889,-1.77174 -2.97338,-2.13814 z"
       id="path1180"
       sodipodi:nodetypes="ssssccsss" />
  </g>
</svg>
