<?xml version="1.0" encoding="UTF-8" standalone="no"?>
<svg
   xmlns:dc="http://purl.org/dc/elements/1.1/"
   xmlns:cc="http://creativecommons.org/ns#"
   xmlns:rdf="http://www.w3.org/1999/02/22-rdf-syntax-ns#"
   xmlns:svg="http://www.w3.org/2000/svg"
   xmlns="http://www.w3.org/2000/svg"
   xmlns:sodipodi="http://sodipodi.sourceforge.net/DTD/sodipodi-0.dtd"
   xmlns:inkscape="http://www.inkscape.org/namespaces/inkscape"
   width=""
   height=""
   viewBox="0 0 23.290117 23.758175"
   version="1.1"
   id="svg8"
   sodipodi:docname="water_stone.svg"
   inkscape:version="1.0.2-2 (e86c870879, 2021-01-15)">
  <defs
     id="defs2" />
  <sodipodi:namedview
     id="base"
     pagecolor="#ffffff"
     bordercolor="#666666"
     borderopacity="1.0"
     inkscape:pageopacity="0.0"
     inkscape:pageshadow="2"
     inkscape:zoom="5.6"
     inkscape:cx="32.469354"
     inkscape:cy="47.980695"
     inkscape:document-units="mm"
     inkscape:current-layer="layer5"
     inkscape:document-rotation="0"
     showgrid="false"
     inkscape:window-width="1920"
     inkscape:window-height="1001"
     inkscape:window-x="-9"
     inkscape:window-y="-9"
     inkscape:window-maximized="1" />
  <metadata
     id="metadata5">
    <rdf:RDF>
      <cc:Work
         rdf:about="">
        <dc:format>image/svg+xml</dc:format>
        <dc:type
           rdf:resource="http://purl.org/dc/dcmitype/StillImage" />
        <dc:title></dc:title>
      </cc:Work>
    </rdf:RDF>
  </metadata>
  <g
     inkscape:groupmode="layer"
     id="layer4"
     inkscape:label="Layer 1"
     transform="translate(-0.03222984,0.40036005)" />
  <g
     inkscape:groupmode="layer"
     id="layer5"
     inkscape:label="Layer 2"
     transform="translate(-0.03222984,0.40036005)">
    <g
       id="g981"
       transform="translate(2.2678576,-1.7481399)">
      <path
         style="fill:#e7e5f1;stroke-width:0.264583"
         d="M 0.27403323,24.625782 C -1.8912857,23.50933 -2.6283799,21.235711 -1.9981961,17.616928 -1.2227982,13.164264 1.755761,6.2042516 3.4335522,4.9245379 6.149159,2.8532437 10.411323,1.5996715 15.355283,1.4181618 c 4.9906,-0.183222 5.447939,0.2005953 5.640512,4.7337417 0.197024,4.6379175 -0.02448,5.6344385 -1.877667,8.4474495 -1.893666,2.874451 -5.760398,6.833573 -7.918155,8.107346 -3.6068947,2.129232 -8.7621794,3.03473 -10.92593977,1.919083 z"
         id="path1009" />
      <path
         style="fill:#dcd8eb;stroke-width:0.264583"
         d="M 0.53861656,24.779676 C -1.1461345,23.993194 -2.2422556,22.072451 -2.2355976,19.918394 -2.2244147,16.300395 0.77645951,7.9635858 2.9227209,5.5879312 4.1312206,4.2502664 6.8017424,2.9159012 9.9313248,2.0859799 11.72331,1.6107707 12.924136,1.4860949 15.841097,1.4723982 c 3.530833,-0.016579 3.67867,0.00484 4.163733,0.6031691 0.84895,1.0471914 1.102644,2.6134822 0.99357,6.1342373 -0.09867,3.1848844 -0.137624,3.3770254 -0.992388,4.8947914 -1.904554,3.38183 -5.263783,7.111107 -8.204067,9.107816 -2.4265,1.647805 -5.4647633,2.692919 -8.2206202,2.827763 -1.5753611,0.07708 -2.4866983,-9.41e-4 -3.04270824,-0.260499 z M 11.176714,7.0247803 c 0.915765,-0.9385585 1.665027,-1.8910585 1.665027,-2.1166666 0,-0.6095289 -1.195464,-0.5058667 -3.0427079,0.2638414 C 7.6377601,6.0725129 6.1784976,6.2675164 5.7214809,5.7168452 5.5274043,5.4829972 5.1882066,5.2916669 4.9677082,5.2916669 c -0.3314565,0 -0.3705493,0.2582931 -0.2256658,1.4910247 0.096382,0.8200636 0.2388642,1.5939699 0.3166266,1.7197917 0.077762,0.1258218 1.1115029,0.2287669 2.2972019,0.2287669 h 2.1558162 z"
         id="path1007" />
      <path
         style="fill:#aec6e7;stroke-width:0.264583"
         d="M 0.53861656,24.637807 C -2.0985818,23.4268 -2.7892323,20.957733 -1.7275022,16.536459 -0.72352456,12.355678 1.5707297,6.9902726 3.006026,5.4664999 5.1675141,3.1717711 11.291489,1.2867909 16.382128,1.3492906 c 2.812328,0.034528 3.346723,0.209439 3.991118,1.3063186 0.477122,0.8121512 0.537947,1.367233 0.535298,4.885016 -0.0034,4.5545958 -0.01801,4.5988138 -2.709281,8.2180308 -2.14831,2.889041 -5.661062,6.1432 -7.903223,7.321422 -3.6252399,1.90501 -7.6143159,2.541848 -9.75742344,1.557729 z M 10.777006,8.7626923 c 1.112606,-0.1391468 1.884129,-0.4481314 2.947259,-1.180337 1.704751,-1.174107 3.615393,-3.0449462 3.615393,-3.5400766 0,-0.4615151 -0.949002,-0.804465 -3.186932,-1.1516917 C 12.558749,2.6432731 12.05172,2.6780859 10.179493,3.1633901 8.9991424,3.4693515 7.2698088,4.0659129 6.3365295,4.4890819 4.8329392,5.1708423 4.63999,5.3432474 4.6425702,6.0026777 c 0.00588,1.5028831 0.3283876,2.7027492 0.7571779,2.817028 0.6815299,0.1816376 3.7272346,0.1493449 5.3772579,-0.057013 z"
         id="path1005" />
      <path
         style="fill:#b3b5d9;stroke-width:0.264583"
         d="M 0.53861656,24.637807 C -2.0985818,23.4268 -2.7892323,20.957733 -1.7275022,16.536459 -0.72352456,12.355678 1.5707297,6.9902726 3.006026,5.4664999 5.1675141,3.1717711 11.291489,1.2867909 16.382128,1.3492906 c 2.812328,0.034528 3.346723,0.209439 3.991118,1.3063186 0.477122,0.8121512 0.537947,1.367233 0.535298,4.885016 -0.0034,4.5545958 -0.01801,4.5988138 -2.709281,8.2180308 -2.14831,2.889041 -5.661062,6.1432 -7.903223,7.321422 -3.6252399,1.90501 -7.6143159,2.541848 -9.75742344,1.557729 z M 3.4648751,21.04733 c 0.781344,-1.192481 -0.1255442,-2.259584 -1.6048029,-1.888313 -1.33969734,0.336242 -0.87940172,2.536817 0.5306277,2.536817 0.3971213,0 0.8142742,-0.251845 1.0741752,-0.648504 z m 7.1090089,-2.14852 c 0.838843,-0.838843 0.211616,-2.23006 -1.0054165,-2.23006 -0.7809883,0 -1.2246427,0.479257 -1.2246427,1.322917 0,0.378354 0.142875,0.830792 0.3175,1.005417 0.4452273,0.445227 1.4190992,0.395186 1.9125592,-0.09827 z M 5.3524099,17.821114 C 5.4548481,17.554165 5.3284599,17.246369 5.025414,17.024777 4.6062556,16.71828 4.4740475,16.720968 4.1524944,17.042522 3.9440736,17.250943 3.8456232,17.609295 3.9337157,17.83886 c 0.2107988,0.549333 1.2058621,0.536887 1.4186942,-0.01775 z m 1.6684982,-2.872155 c 0,-0.529167 -0.1322916,-0.661459 -0.6614583,-0.661459 -0.4650253,0 -0.6614583,0.144051 -0.6614583,0.48507 0,0.613369 0.224478,0.837847 0.8378473,0.837847 0.3410185,0 0.4850693,-0.196433 0.4850693,-0.661458 z m -1.0583333,-2.38125 c 0,-0.529167 -0.1322916,-0.661459 -0.6614583,-0.661459 -0.5291667,0 -0.6614583,0.132292 -0.6614583,0.661459 0,0.529166 0.1322916,0.661458 0.6614583,0.661458 0.5291667,0 0.6614583,-0.132292 0.6614583,-0.661458 z m 6.5806862,0.369045 c 1.628559,-0.567719 1.782194,-1.8799 0.379612,-3.2422249 -0.537461,-0.5220346 -0.924414,-0.9864228 -0.859896,-1.031974 0.06452,-0.045551 0.77215,-0.5094377 1.572514,-1.0308592 1.652958,-1.0768687 3.704167,-3.0645344 3.704167,-3.5894172 0,-0.4615151 -0.949002,-0.804465 -3.186932,-1.1516917 C 12.558749,2.6432731 12.05172,2.6780859 10.179493,3.1633901 8.9991424,3.4693515 7.2698088,4.0659129 6.3365295,4.4890819 4.4916164,5.3256055 4.4313403,5.452137 4.804106,7.7059443 4.9429008,8.5451222 5.0934307,8.7041722 6.0082676,8.9782639 7.3468192,9.3793037 8.91464,10.796341 9.5302527,12.161526 c 0.4167997,0.924297 0.5950753,1.067641 1.3278153,1.067641 0.465507,0 1.223844,-0.131586 1.685193,-0.292413 z"
         id="path1003" />
      <path
         style="fill:#9994b1;stroke-width:0.264583"
         d="M 0.80319989,24.755451 C -1.5940001,23.868401 -2.4946901,21.804326 -2.0034352,18.323596 -1.3813499,13.915881 1.3946407,7.0897482 3.3035012,5.273893 5.6545236,3.037419 10.601834,1.5316945 15.752158,1.4851179 c 2.201386,-0.019908 3.499269,0.080002 3.881415,0.2987887 0.984073,0.5634033 1.279947,1.9910319 1.255173,6.0563608 -0.02196,3.6036246 -0.04991,3.7859296 -0.770606,5.0270836 -2.127681,3.664188 -6.255627,8.078333 -9.201394,9.839348 -3.2154634,1.922241 -7.8941164,2.87002 -10.11354611,2.048752 z M 3.4301343,21.28006 c 0.8672314,-0.867231 0.2203709,-2.296206 -1.0394344,-2.296206 -0.7948388,0 -1.45520835,0.644725 -1.45520835,1.420734 0,0.651009 0.72153355,1.291246 1.45520835,1.291246 0.3430135,0 0.810759,-0.187099 1.0394344,-0.415774 z M 3.592214,12.748281 c 0.8382802,-1.937976 1.5869682,-3.5864158 1.6637508,-3.6631984 0.076783,-0.076783 0.4993489,-0.060592 0.9390364,0.03598 0.9848924,0.2163186 2.6729867,1.8149694 3.290389,3.1160474 0.2530523,0.533268 0.5660208,1.035045 0.6954868,1.115059 0.129465,0.08001 0.840841,0.01563 1.580835,-0.143067 2.197604,-0.471301 2.81631,-2.044748 1.344613,-3.4195182 C 12.120558,8.8687394 12.113231,8.5833407 13.062749,8.0923257 14.342792,7.4303895 16.792903,5.2994001 17.217123,4.4790495 17.610514,3.7183155 17.602256,3.6903148 16.906505,3.4257909 16.513392,3.2763294 15.348704,3.0233285 14.31831,2.8635668 12.667171,2.6075591 12.179121,2.6403887 10.20533,3.1402348 8.9735844,3.4521638 7.2031333,4.0642701 6.2709938,4.5004709 L 4.5761944,5.2935632 4.6936699,6.9176455 C 4.8098591,8.5239444 4.8058607,8.5352017 4.3285267,7.945719 4.0630866,7.6179143 3.8459082,7.174385 3.8459082,6.9600984 c 0,-1.6132569 -2.0158067,2.0755634 -3.54825056,6.4931126 -1.10003626,3.171055 -1.16256547,4.058199 -0.37583369,5.332206 L 0.4936784,19.711459 1.2808731,17.991667 C 1.7138304,17.045781 2.7539336,14.686258 3.592214,12.748281 Z m 7.181003,5.904844 C 11.215536,17.68234 10.69769,16.66875 9.759393,16.66875 c -0.8000334,0 -1.6801515,0.668906 -1.6801515,1.276945 0,1.317068 2.1580065,1.883755 2.6939755,0.70743 z M 5.3826865,17.551371 c 0.084695,-0.594527 -0.7370763,-1.081051 -1.2698272,-0.751793 -0.3066796,0.189539 -0.3573391,1.013506 -0.079402,1.291444 0.3816167,0.381617 1.2685212,0.02688 1.3492292,-0.539651 z m 1.7362677,-2.265253 c 0.1896087,-0.300592 0.1662833,-0.547829 -0.07964,-0.844148 -0.4686125,-0.564644 -0.9997905,-0.528046 -1.3314894,0.09174 -0.2073217,0.387384 -0.170189,0.613971 0.1536933,0.937854 0.486048,0.486048 0.8695449,0.42949 1.2574359,-0.185445 z M 5.9597784,13.100245 c 0.391254,-0.471432 0.1836203,-1.141214 -0.4263382,-1.375277 -0.6265254,-0.24042 -1.2212478,0.62774 -0.8742214,1.276165 0.3177138,0.593653 0.8560771,0.63468 1.3005596,0.09911 z"
         id="path1001" />
      <path
         style="fill:#718ab4;stroke-width:0.264583"
         d="M 1.0033307,24.856649 C -0.25981057,24.467124 -1.5658191,23.024725 -1.9733751,21.569078 -2.2518802,20.574355 -2.2627247,19.912 -2.0254898,18.386045 -1.4174678,14.475094 1.2496657,7.5659848 2.9041699,5.6159466 3.8798846,4.465946 7.3610477,2.8094413 10.3282,2.0832367 c 1.748109,-0.4278462 3.241301,-0.5888182 5.61591,-0.6054172 3.112336,-0.021756 3.259708,0.00242 3.896983,0.6392394 1.102773,1.1019866 1.500383,4.6146658 0.951764,8.4083371 -0.19702,1.362379 -0.507325,2.063126 -1.721961,3.888611 -1.986251,2.98515 -5.052805,6.193899 -7.454739,7.80041 -3.1864297,2.131214 -8.2123318,3.382493 -10.6128263,2.642232 z m 2.4411681,-3.590954 c 0.6191503,-0.61915 0.4027024,-1.727494 -0.4279982,-2.19161 -0.6243754,-0.348841 -0.7693166,-0.342173 -1.3890625,0.0639 -0.79046097,0.51793 -0.91721068,1.501037 -0.2761726,2.142075 0.5385112,0.538511 1.5472801,0.531589 2.0932333,-0.01436 z M 1.203601,18.322396 C 2.2704261,16.053654 4.8283275,10.199155 5.0183904,9.5911461 5.1207418,9.2637242 5.3809672,8.9958336 5.5966688,8.9958336 c 1.1345584,0 3.1537594,1.8160254 4.0057635,3.6026964 0.4656247,0.976426 0.8627437,1.074674 2.5027777,0.61919 1.288136,-0.357752 1.794865,-0.897857 1.794865,-1.913085 0,-0.572579 -0.259963,-1.096614 -0.841811,-1.6969292 C 12.595268,9.1300152 12.267846,8.705266 12.33066,8.6638191 15.602612,6.5048474 17.747725,4.5371141 17.535488,3.8893788 17.336859,3.2831738 15.37483,2.8205524 12.974033,2.8138457 11.04622,2.8084603 10.189728,2.9467605 8.4761164,3.5401371 7.3119498,3.9432561 5.9594713,4.5200234 5.4706083,4.8218423 4.5989253,5.3600109 4.5839285,5.4004876 4.6937414,6.9186356 c 0.061586,0.8514173 0.077031,1.5480313 0.034323,1.5480313 -0.042709,0 -0.3317613,-0.4980961 -0.6423398,-1.1068804 L 3.5210366,6.2529064 2.8905465,7.2936407 C 1.9754596,8.8041519 0.46677557,12.496626 -0.26702319,15.021729 l -0.63625383,2.189438 0.57523168,1.184 c 0.31637742,0.6512 0.65745711,1.184 0.75795493,1.184 0.10049774,0 0.44865898,-0.565547 0.77369141,-1.256771 z m 9.468557,0.674688 c 0.546432,-0.546432 0.377935,-1.74737 -0.308245,-2.196972 -1.4224701,-0.932039 -3.0603547,0.907241 -1.8688976,2.098698 0.4920345,0.492034 1.7276096,0.547807 2.1771426,0.09827 z M 5.2581757,17.945736 c 0.3618484,-0.573648 0.030883,-1.276986 -0.6009045,-1.276986 -0.7806846,0 -1.1872804,0.909202 -0.6478362,1.448646 0.4828442,0.482844 0.8694099,0.429704 1.2487407,-0.17166 z M 7.120356,15.284652 c 0.2219042,-0.352373 0.187397,-0.559117 -0.1495623,-0.896076 -0.7926142,-0.792614 -1.9751466,0.243276 -1.2605883,1.104266 0.4113985,0.495705 1.0238169,0.405289 1.4101506,-0.20819 z m -1.0583333,-2.38125 c 0.2219042,-0.352373 0.187397,-0.559117 -0.1495623,-0.896076 -0.7926142,-0.792614 -1.9751466,0.243276 -1.2605883,1.104266 0.4113985,0.495705 1.0238169,0.405289 1.4101506,-0.20819 z"
         id="path999" />
      <path
         style="fill:#8e6fae;stroke-width:0.264583"
         d="M 1.0033307,24.856649 C -0.25981057,24.467124 -1.5658191,23.024725 -1.9733751,21.569078 -2.2518802,20.574355 -2.2627247,19.912 -2.0254898,18.386045 -1.4174678,14.475094 1.2496657,7.5659848 2.9041699,5.6159466 3.8798846,4.465946 7.3610477,2.8094413 10.3282,2.0832367 c 1.748109,-0.4278462 3.241301,-0.5888182 5.61591,-0.6054172 3.112336,-0.021756 3.259708,0.00242 3.896983,0.6392394 1.102773,1.1019866 1.500383,4.6146658 0.951764,8.4083371 -0.19702,1.362379 -0.507325,2.063126 -1.721961,3.888611 -1.986251,2.98515 -5.052805,6.193899 -7.454739,7.80041 C 8.4297273,24.345631 3.4038252,25.59691 1.0033307,24.856649 Z M 3.515179,21.357781 C 3.9841998,20.994868 3.9249734,19.840492 3.4080259,19.269271 2.4601128,18.221839 0.81369379,19.085387 0.98180528,20.541826 1.1201506,21.740384 2.4621154,22.172608 3.515179,21.357781 Z M 2.5454414,15.371747 C 3.5399215,13.142598 4.553191,10.796093 4.7971517,10.157291 5.0411123,9.5184894 5.4090472,8.9958336 5.6147848,8.9958336 c 1.1168964,0 3.142212,1.8298004 3.9876475,3.6026964 0.3525949,0.7394 0.5680437,0.891717 1.2377927,0.875091 1.470957,-0.03651 2.641376,-0.620474 2.927558,-1.460655 0.145521,-0.427224 0.534423,-1.153141 0.864227,-1.613149 0.837348,-1.1679267 1.636598,-3.0018014 1.643504,-3.7710118 0.0032,-0.3559805 0.328639,-1.113078 0.723206,-1.6824391 C 17.671773,3.9751505 17.687328,3.8901135 17.250367,3.5706002 16.499178,3.0213176 13.469763,2.5613587 11.853981,2.7512622 10.111976,2.9560006 6.7158105,4.0530748 5.499554,4.803953 4.6995979,5.2978206 4.6378868,5.4393687 4.6142452,6.8346002 L 4.588832,8.3343752 4.1512244,7.3435366 C 3.9105401,6.7985751 3.640908,6.3520907 3.5520421,6.3513491 c -0.507129,-0.00423 -3.0386025,5.8077829 -3.92877988,9.0200949 -0.50676444,1.828721 -0.50673086,1.859875 0.003285,3.049694 0.28340373,0.661154 0.64926014,1.157438 0.81301433,1.102853 0.16375406,-0.05458 1.11140025,-1.923094 2.10587985,-4.152244 z m 7.8710466,3.785128 c 0.841876,-0.589673 0.702653,-1.928522 -0.256238,-2.464131 -0.6243228,-0.34873 -0.7693682,-0.342048 -1.389062,0.06399 -0.8939694,0.585751 -0.9471687,1.819911 -0.1039085,2.410554 0.7387024,0.517407 0.9978408,0.515864 1.7492085,-0.01041 z m -5.1153715,-1.55846 c 0,-0.938093 -0.8262609,-1.256751 -1.3613225,-0.525011 -0.4711946,0.644397 0.012795,1.507119 0.783912,1.39734 0.4462391,-0.06353 0.5774105,-0.261697 0.5774105,-0.872329 z M 7.120356,15.284652 c 0.2219042,-0.352373 0.187397,-0.559117 -0.1495623,-0.896076 -0.7926142,-0.792614 -1.9751466,0.243276 -1.2605883,1.104266 0.4113985,0.495705 1.0238169,0.405289 1.4101506,-0.20819 z m -1.0583333,-2.38125 c 0.2219042,-0.352373 0.187397,-0.559117 -0.1495623,-0.896076 -0.7926142,-0.792614 -1.9751466,0.243276 -1.2605883,1.104266 0.4113985,0.495705 1.0238169,0.405289 1.4101506,-0.20819 z M 18.01041,10.832879 c 0.09505,-0.153791 0.09792,-0.578018 0.0064,-0.9427252 -0.132528,-0.528035 -0.30732,-0.6462326 -0.858118,-0.5802749 -0.908332,0.1087726 -1.366469,0.8163991 -0.89576,1.3835681 0.393877,0.474593 1.486472,0.561771 1.747491,0.139432 z"
         id="path997" />
      <path
         style="fill:#6e6dae;stroke-width:0.264583"
         d="M 1.1110556,24.82376 C -0.34203283,24.42165 -1.5803443,23.076048 -1.9622212,21.484206 -2.5637657,18.976687 -1.1739695,13.469548 1.3719194,8.272503 2.7335374,5.4929664 3.4579107,4.7702015 6.0948665,3.5600424 8.4525095,2.4780662 10.700976,1.9131612 14.032366,1.5658244 c 3.410119,-0.3555453 5.315507,-0.092306 6.003541,0.8294215 1.181515,1.582823 1.217477,8.0256131 0.05771,10.3392401 -1.618855,3.229465 -6.015102,8.011009 -9.073845,9.869096 -2.9860077,1.813904 -7.6226335,2.852801 -9.9087154,2.220178 z m 4.7297847,-1.15191 c 2.4453484,-0.628391 5.1049967,-2.021524 7.1154907,-3.727118 2.001093,-1.69762 4.946957,-5.181028 5.93103,-7.013291 l 0.62166,-1.157482 -0.753952,0.920906 c -2.854105,3.486112 -7.537354,8.066916 -9.4400398,9.233539 -1.4922923,0.914992 -3.8649563,1.453315 -6.4551503,1.464579 -2.08411471,0.0091 -2.35505148,0.05851 -1.8520833,0.337982 0.812478,0.451458 2.9478165,0.42534 4.8330447,-0.05912 z M 3.515179,21.357781 C 3.9841998,20.994868 3.9249734,19.840492 3.4080259,19.269271 2.4601128,18.221839 0.81369379,19.085387 0.98180528,20.541826 1.1201506,21.740384 2.4621154,22.172608 3.515179,21.357781 Z M 1.1650173,18.653125 c 0.476939,-0.808351 0.6784176,-0.926041 1.585327,-0.926041 0.6794346,0 1.0916486,0.137333 1.1912441,0.396875 0.2118259,0.552009 1.249716,0.500355 1.3987666,-0.06961 0.067094,-0.256569 0.4726665,-0.66775 0.9012714,-0.913736 0.5211593,-0.299104 0.7792817,-0.65709 0.7792817,-1.080774 0,-0.525266 0.3277995,-0.791106 1.9182292,-1.55565 1.055026,-0.507168 2.5135417,-1.096131 3.2411457,-1.308807 1.077048,-0.314817 1.37209,-0.532811 1.5875,-1.172933 0.145521,-0.432436 0.534423,-1.162619 0.864227,-1.622627 0.837348,-1.1679267 1.636598,-3.0018014 1.643504,-3.7710118 0.0032,-0.3559805 0.328639,-1.113078 0.723206,-1.6824391 C 17.671773,3.9751505 17.687328,3.8901135 17.250367,3.5706002 16.499178,3.0213176 13.469763,2.5613587 11.853981,2.7512622 10.111976,2.9560006 6.7158105,4.0530748 5.499554,4.803953 4.6995979,5.2978206 4.6378868,5.4393687 4.6142452,6.8346002 L 4.588832,8.3343752 4.1512244,7.3435366 C 3.9105401,6.7985751 3.6254087,6.3520907 3.5175989,6.3513491 3.1561979,6.348862 0.72846357,11.745316 -0.11492427,14.42585 l -0.83437591,2.651891 0.53611827,1.250713 c 0.29486505,0.687892 0.64765144,1.250713 0.78396975,1.250713 0.13631843,0 0.49372156,-0.416719 0.79422946,-0.926042 z m 9.2514707,0.50375 c 0.841876,-0.589673 0.702653,-1.928522 -0.256238,-2.464131 -0.6243228,-0.34873 -0.7693682,-0.342048 -1.389062,0.06399 -0.8939694,0.585751 -0.9471687,1.819911 -0.1039085,2.410554 0.7387024,0.517407 0.9978408,0.515864 1.7492085,-0.01041 z m 7.593922,-8.323996 c 0.09505,-0.153791 0.09792,-0.578018 0.0064,-0.9427252 -0.132528,-0.528035 -0.30732,-0.6462326 -0.858118,-0.5802749 -0.908332,0.1087726 -1.366469,0.8163991 -0.89576,1.3835681 0.393877,0.474593 1.486472,0.561771 1.747491,0.139432 z"
         id="path995" />
      <path
         style="fill:#5c65ac;stroke-width:0.264583"
         d="M 1.1110556,24.82376 C 0.55277203,24.669267 -0.29895517,24.147915 -0.78167137,23.665198 -2.8019914,21.644878 -2.5199647,17.913843 0.18027022,10.939318 2.1976866,5.728467 3.6355356,4.2464117 8.0792415,2.7974965 11.118562,1.8064952 12.969357,1.5068004 16.191633,1.4838766 c 2.524255,-0.017958 3.031821,0.050309 3.495769,0.4701759 0.944318,0.8545965 1.207473,2.1844671 1.16584,5.8916447 -0.0354,3.1524678 -0.101904,3.6040428 -0.706414,4.7969858 -1.695671,3.346246 -6.03616,8.083279 -9.127057,9.960899 -2.9860077,1.813904 -7.6226335,2.852801 -9.9087154,2.220178 z M 7.5185473,23.20581 C 11.6436,21.754055 15.843415,17.97972 18.803346,13.064267 c 1.205854,-2.002518 1.181099,-2.468325 -0.03519,-0.662234 -1.25936,1.870041 -6.447326,7.224875 -8.405747,8.676111 -2.2471331,1.665179 -4.4721064,2.279551 -7.8367549,2.163928 -1.4569551,-0.05007 -2.64889297,-0.05552 -2.64875099,-0.01211 1.4197e-4,0.0434 0.38721125,0.254423 0.86015395,0.468929 C 2.0090109,24.275792 5.121262,24.049502 7.5185473,23.20581 Z M 3.2578701,21.548539 c 1.1479454,-0.804052 0.5331167,-2.763122 -0.8671702,-2.763122 -1.40028693,0 -2.01511575,1.95907 -0.8671703,2.763122 0.3234211,0.226533 0.7136476,0.411878 0.8671703,0.411878 0.1535226,0 0.5437491,-0.185345 0.8671702,-0.411878 z M 1.3144283,18.653125 c 0.7683707,-1.007385 1.5604823,-1.183727 2.4147642,-0.537581 0.282475,0.213653 0.6670191,0.392247 0.8545425,0.396875 0.4929389,0.01217 2.5692545,-2.057346 2.5706181,-2.562194 0.00125,-0.463732 3.3954219,-2.322447 4.7613469,-2.607408 1.154074,-0.240765 1.984375,-0.843446 1.984375,-1.440377 0,-0.286428 0.413602,-1.062625 0.919115,-1.724884 0.822119,-1.0770345 1.726718,-3.3209149 1.726718,-4.2831667 0,-0.1977615 0.26771,-0.7216629 0.59491,-1.1642254 0.577792,-0.7815046 0.580597,-0.8151251 0.0975,-1.1683763 C 16.45973,2.9924724 13.935621,2.5700228 12.185756,2.7161619 10.319871,2.8719904 6.5376208,4.0735263 5.3419647,4.890281 4.5734314,5.4152675 4.512896,5.5636736 4.5772215,6.7650942 4.641964,7.9743054 4.6177589,8.0322039 4.2464924,7.5562013 4.0261709,7.2737265 3.8459082,6.8867734 3.8459082,6.6963054 c 0,-1.6504219 -2.4733329,3.1186819 -3.85869528,7.4403726 l -0.95914918,2.992102 0.54196127,1.225194 c 0.29807871,0.673856 0.65358732,1.225193 0.79001915,1.225193 0.13643195,0 0.56590467,-0.416719 0.95438414,-0.926042 z m 9.1913757,0.48816 c 0.977853,-0.884945 0.366619,-2.737118 -0.9032738,-2.737118 -1.4062871,0 -2.0720319,1.966889 -0.9352507,2.763122 0.7528652,0.527327 1.2346294,0.520513 1.8385245,-0.026 z m 7.205287,-8.109755 c 0.674619,-0.493294 0.466898,-1.6137479 -0.31985,-1.7252777 -1.170261,-0.1658967 -1.76059,0.8531937 -0.958726,1.6550577 0.505278,0.505278 0.671141,0.514387 1.278576,0.07022 z"
         id="path993" />
      <path
         style="fill:#5358a4;stroke-width:0.264583"
         d="M 1.1110556,24.82376 C 0.55277203,24.669267 -0.29895517,24.147915 -0.78167137,23.665198 -2.8019914,21.644878 -2.5199647,17.913843 0.18027022,10.939318 2.1976866,5.728467 3.6355356,4.2464117 8.0792415,2.7974965 11.118562,1.8064952 12.969357,1.5068004 16.191633,1.4838766 c 2.524255,-0.017958 3.031821,0.050309 3.495769,0.4701759 0.944318,0.8545965 1.207473,2.1844671 1.16584,5.8916447 -0.0354,3.1524678 -0.101904,3.6040428 -0.706414,4.7969858 -1.695671,3.346246 -6.03616,8.083279 -9.127057,9.960899 -2.9860077,1.813904 -7.6226335,2.852801 -9.9087154,2.220178 z M 7.5185473,23.20581 C 10.98256,21.986698 14.144075,19.45277 17.112983,15.515947 19.526207,12.315972 19.787812,11.669686 19.929974,8.5566774 20.079227,5.2883943 19.849245,3.5679209 19.17267,2.8913451 18.334989,2.0536644 18.163749,2.3089657 18.760579,3.5057294 c 0.78911,1.5823205 0.976347,6.8188366 0.291895,8.1635326 -1.16683,2.292396 -7.359095,8.752578 -9.7103988,10.130534 -1.8347539,1.075237 -4.1901459,1.557489 -7.0055924,1.434351 -1.35262859,-0.05916 -2.45932456,-0.06655 -2.45932456,-0.01641 0,0.05013 0.38695312,0.266651 0.85989582,0.481157 C 2.0090109,24.275792 5.121262,24.049502 7.5185473,23.20581 Z M 3.2484735,21.55512 c 0.318253,-0.222912 1.0455166,-0.570019 1.6161416,-0.771347 0.570625,-0.201328 1.5433212,-0.685362 2.1615469,-1.075631 0.9705776,-0.612699 1.2067296,-0.665329 1.7296362,-0.385478 1.2979468,0.69464 2.8853888,-0.642771 2.2257998,-1.875225 -0.231275,-0.432141 -0.0811,-0.71412 0.943092,-1.770817 1.195338,-1.233273 2.032648,-2.494025 1.927645,-2.902487 -0.117399,-0.456684 0.371154,-1.910249 0.746845,-2.222046 0.630478,-0.52325 1.65141,-2.7233291 1.84772,-3.981785 0.09835,-0.63049 0.398989,-1.4302926 0.668082,-1.7773394 0.269093,-0.3470465 0.489259,-0.7780573 0.489259,-0.9578019 0,-0.5236114 -2.3366,-1.0570375 -4.630208,-1.0570375 -2.335174,0 -6.0388954,1.0232951 -7.6207677,2.1055291 C 4.5830125,5.4106207 4.5131035,5.5730452 4.5715192,6.6999371 4.6453509,8.1242185 4.4675734,8.281806 4.070845,7.1437502 3.9186585,6.7071877 3.6882239,6.3500002 3.5587683,6.3500002 c -0.5505958,0 -3.21970438,6.0916278 -4.06751046,9.2831578 -0.45582837,1.715947 -0.45431527,1.759343 0.0991738,2.844271 0.5926369,1.161664 0.78983008,1.286551 1.27126337,0.805118 0.21910489,-0.219105 0.25966369,-0.02109 0.15520219,0.75773 -0.11983639,0.893448 -0.0470998,1.120413 0.4766263,1.487245 0.7652332,0.53599 1.0233247,0.540049 1.75495,0.0276 z M 17.815908,11.059584 c 0.898074,-0.898074 -0.158058,-2.3942605 -1.27,-1.7991671 -0.933887,0.4998014 -0.529671,2.1166671 0.529167,2.1166671 0.232833,0 0.566208,-0.142875 0.740833,-0.3175 z"
         id="path991" />
      <path
         style="fill:#474a9c;stroke-width:0.264583"
         d="M 1.1110556,24.82376 C 0.55277203,24.669267 -0.29895517,24.147915 -0.78167137,23.665198 -2.8019914,21.644878 -2.5199647,17.913843 0.18027022,10.939318 2.1976866,5.728467 3.6355356,4.2464117 8.0792415,2.7974965 11.118562,1.8064952 12.969357,1.5068004 16.191633,1.4838766 c 2.524255,-0.017958 3.031821,0.050309 3.495769,0.4701759 0.944318,0.8545965 1.207473,2.1844671 1.16584,5.8916447 -0.0354,3.1524678 -0.101904,3.6040428 -0.706414,4.7969858 -1.695671,3.346246 -6.03616,8.083279 -9.127057,9.960899 -2.9860077,1.813904 -7.6226335,2.852801 -9.9087154,2.220178 z M 7.5125108,23.269328 C 11.102201,22.025173 15.415637,18.285724 18.329611,13.891653 19.89675,11.528516 20.109098,10.540967 19.942418,6.3911276 19.8287,3.5598692 19.367401,2.3812502 18.372993,2.3812502 c -0.488764,0 -0.501838,0.040128 -0.133184,0.4087819 0.713274,0.7132744 1.068646,2.5451892 1.076552,5.5495393 l 0.0077,2.9156126 -1.231287,1.714596 c -2.964901,4.128693 -7.727377,8.472748 -10.4616923,9.542552 -1.2727329,0.497959 -2.0693337,0.604266 -4.6449329,0.619873 -1.7098102,0.01036 -3.10879453,0.05435 -3.10885416,0.09775 -5.961e-5,0.0434 0.38684472,0.255149 0.85978742,0.470542 1.18597304,0.540129 4.59982514,0.32288 6.77545674,-0.431174 z M 3.4112356,21.563542 c 0.2182813,-0.218281 0.5542076,-0.39855 0.7465028,-0.400597 0.1922955,-0.002 1.1967054,-0.465524 2.2320221,-1.029949 1.2673306,-0.690913 2.0021674,-0.950375 2.2489583,-0.79408 1.2065021,0.764088 2.7693312,-0.312133 2.5043522,-1.724588 -0.125445,-0.668683 -0.03731,-0.968363 0.401232,-1.364268 1.320608,-1.192216 2.184728,-2.583526 2.3828,-3.836519 0.129059,-0.816428 0.497777,-1.656622 1.004015,-2.287843 0.830419,-1.0354378 1.610472,-2.9005831 1.620673,-3.8751089 0.0032,-0.3091259 0.238713,-0.8597034 0.523284,-1.2235055 C 18.211171,3.5746676 17.436771,3.037993 13.764901,2.7330671 11.607194,2.5538829 8.7949055,3.209307 6.0018789,4.5422957 L 4.3143334,5.3476871 4.4696803,6.7087395 4.6250272,8.0697919 4.1874651,7.2098961 C 3.9468062,6.7369534 3.6539387,6.3500002 3.5366486,6.3500002 c -0.5302694,0 -3.21608344,6.1611368 -4.04309698,9.2746848 -0.424035,1.59641 -0.42737156,1.813579 -0.0420329,2.735824 0.23309985,0.557886 0.65460353,1.06349 0.95126848,1.14107 0.37456078,0.09795 0.53270435,0.360174 0.53270435,0.883298 0,1.367513 1.54929815,2.105111 2.47574405,1.178665 z M 17.982217,10.96131 c 0.529761,-0.529761 0.524571,-0.877548 -0.02211,-1.481622 -0.783423,-0.8656728 -1.943368,-0.4438201 -1.943368,0.706771 0,1.114201 1.166325,1.574002 1.965476,0.774851 z"
         id="path989" />
      <path
         style="fill:#4f4e68;stroke-width:0.264583"
         d="M 1.1110556,24.82376 C 0.55277203,24.669267 -0.29895517,24.147915 -0.78167137,23.665198 -2.8019914,21.644878 -2.5199647,17.913843 0.18027022,10.939318 2.1976866,5.728467 3.6355356,4.2464117 8.0792415,2.7974965 11.118562,1.8064952 12.969357,1.5068004 16.191633,1.4838766 c 2.524255,-0.017958 3.031821,0.050309 3.495769,0.4701759 0.944318,0.8545965 1.207473,2.1844671 1.16584,5.8916447 -0.0354,3.1524678 -0.101904,3.6040428 -0.706414,4.7969858 -1.695671,3.346246 -6.03616,8.083279 -9.127057,9.960899 -2.9860077,1.813904 -7.6226335,2.852801 -9.9087154,2.220178 z M 7.4767273,23.281412 C 10.731413,22.152739 14.38418,19.215898 17.222861,15.445476 19.794966,12.02913 19.985708,11.503184 19.984016,7.8319476 19.982216,3.9261537 19.702445,2.7176875 18.744347,2.4772203 17.489286,2.1622199 11.740117,2.5992637 9.7474711,3.1611503 4.9840628,4.5043365 3.6891986,5.4966486 1.9663582,9.1241623 -1.6794422,16.800551 -2.146257,22.120588 0.69334648,23.631993 1.8737178,24.260256 5.1410311,24.091394 7.4767273,23.281412 Z"
         id="path987" />
      <path
         style="fill:#282652;stroke-width:0.264583"
         d="M 0.10431091,24.299994 C -0.42559883,23.992718 -1.1256987,23.267071 -1.4514666,22.687445 -1.9790194,21.748792 -2.0296487,21.369427 -1.9145842,19.217311 -1.8131469,17.320073 -1.5506239,16.100853 -0.69244842,13.541418 0.87910091,8.8544061 2.542032,5.7506097 4.0302463,4.7266913 6.8544648,2.7835778 11.444645,1.5965892 16.156307,1.5909761 c 3.34563,-0.00399 3.913207,0.2297864 4.346593,1.7902624 0.150364,0.5414127 0.274054,2.5944396 0.274866,4.5622815 l 0.0015,3.577895 -0.985404,1.665732 c -2.284031,3.860935 -5.632464,7.398939 -8.873816,9.376205 -3.5711227,2.17843 -8.6480196,2.99361 -10.81571009,1.736642 z M 6.4917415,23.62401 C 10.918012,22.405983 15.823581,18.19309 19.039692,12.847857 l 0.945799,-1.571935 V 7.7461298 c 0,-2.4837999 -0.113606,-3.8016904 -0.383374,-4.4473359 L 19.218743,2.3812502 h -3.067364 c -5.00732,0 -9.8483725,1.3579622 -12.103203,3.3950662 C 2.8228068,6.883364 1.3411949,9.8376938 0.00826012,13.831897 -2.8094455,22.275288 -0.62056867,25.581186 6.4917415,23.62401 Z"
         id="path985" />
      <path
         style="fill:#020123;stroke-width:0.264583"
         d="M 0.53861656,24.497336 C -0.4344366,24.064859 -1.3170973,23.133 -1.6927172,22.14163 -2.3975481,20.281377 -1.7320581,16.114479 -0.02362585,11.690785 1.8668042,6.7958388 3.0010761,5.1965876 5.4643036,3.9531543 8.3748689,2.4839056 11.28193,1.8035273 15.284064,1.6549046 c 5.296642,-0.1966954 5.491082,0.021929 5.493702,6.177043 0.0014,3.2203144 -0.04713,3.5583134 -0.683404,4.7625004 -2.23637,4.232471 -6.859638,8.926946 -10.4910518,10.652634 -3.2027407,1.521979 -7.2098224,2.074658 -9.06469364,1.250254 z M 7.2418151,23.449329 c 1.0673839,-0.361794 2.6095446,-1.053165 3.4270239,-1.53638 2.104764,-1.244136 5.7384,-4.953495 7.642571,-7.801839 l 1.621391,-2.425348 0.198018,-2.6017351 C 20.348416,6.2250598 20.004411,3.3451106 19.369474,2.7101734 18.357922,1.6986214 12.569875,2.1134837 8.3888026,3.4972206 4.862804,4.6641591 3.5986783,5.6714887 2.1525066,8.4666669 -0.21877812,13.049915 -1.8151514,19.147854 -1.2148902,21.329686 c 0.35212335,1.279899 1.36757327,2.385114 2.5195988,2.74233 1.2304175,0.381523 3.7558651,0.116652 5.9371065,-0.622687 z"
         id="path983" />
    </g>
  </g>
</svg>
