<svg id="svg27" xmlns="http://www.w3.org/2000/svg" viewBox="0 0 256 256"><path id="path4574" d="M162.45222,36.67414c-18.1367,12.78457-46.13549,13.25631-66.86167,1.37471L80.20207,45.93671,115.8644,68.81356l36.74577,1.22034,24.96351-25.833Z" style="fill:#f55;stroke:#000;stroke-miterlimit:10;stroke-width:0.5px"/><path id="p" d="M162.70647,36.725a62.491,62.491,0,0,1,6.42387,2.397C183.11565,47.10659,202.053,54.05955,210.55,63.18756c13.35245,16.887,26.43143,33.29537,40.74854,51.87048-9.15717,11.52823-17.424,22.84156-36.72162,36.81749-5.48116-4.64279-14.31712-15.5641-19.45776-17.31271.36531,29.37749-3.5564,31.2708-2.44915,63.31343-42.44653.57112-84.90966,1.12566-127.71067,1.34232-2.32094-29.51952-3.82579-29.76435-3.40511-60.862L45.83011,150.53323C28.62566,137.94113,19.51119,125.349,7.38267,112.75694c12.61007-14.65743,25.495-32.0637,38.35156-49.18586l6.13625-5.65686L88.78385,41.90245l6.543-3.66184C111.107,77.06255,149.1387,74.46368,162.70645,36.725Z" style="fill:#ff8080;stroke:#000;stroke-miterlimit:10;stroke-width:0.5px"/><g id="Layer_2" data-name="patternLayer"><path id="patternLayer" d="M162.70647,36.725a62.491,62.491,0,0,1,6.42387,2.397C183.11565,47.10659,202.053,54.05955,210.55,63.18756c13.35245,16.887,26.43143,33.29537,40.74854,51.87048-9.15717,11.52823-17.424,22.84156-36.72162,36.81749-5.48116-4.64279-14.31712-15.5641-19.45776-17.31271.36531,29.37749-3.5564,31.2708-2.44915,63.31343-42.44653.57112-84.90966,1.12566-127.71067,1.34232-2.32094-29.51952-3.82579-29.76435-3.40511-60.862L45.83011,150.53323C28.62566,137.94113,19.51119,125.349,7.38267,112.75694c12.61007-14.65743,25.495-32.0637,38.35156-49.18586l6.13625-5.65686L88.78385,41.90245l6.543-3.66184C111.107,77.06255,149.1387,74.46368,162.70645,36.725Z" style="fill:#ff8080;stroke:#000;stroke-miterlimit:10;stroke-width:0.5px"/></g><path id="path817" d="M61.55424,138.35661c.271-8.41093,1.11149-16.632,1.72583-24.92852" style="fill:none;stroke:#000;stroke-miterlimit:10;stroke-width:0.5px"/><path id="path819" d="M195.11917,134.56282c-.40413-6.65586-.95557-19.40222-3.05618-23.48273" style="fill:none;stroke:#000;stroke-miterlimit:10;stroke-width:0.5px"/><path id="path824" d="M62.89655,120.71489C59.6967,103.16617,55.47906,80.451,45.73423,63.57108" style="fill:none;stroke:#000;stroke-width:0.25px"/><path id="path826" d="M193.62741,119.89993c5.39488-19.96843,6.00842-42.24281,18.07317-54.89067" style="fill:none;stroke:#000;stroke-width:0.25px"/><path id="path829" d="M90.98906,40.94366c18.36807,40.36078,59.43254,38.81719,75.93608-2.68461" style="fill:none;stroke:#000;stroke-miterlimit:10;stroke-width:0.25px"/><path id="path831" d="M212.64407,150.16949c15.52677-11.7391,26.4571-24.38056,36.77967-37.01695" style="fill:none;stroke:#000;stroke-miterlimit:10;stroke-width:0.25px"/><path id="path833" d="M9.49153,110.50847C21.75061,124.665,35.0052,139.03912,48.06779,148.678" style="fill:none;stroke:#000;stroke-miterlimit:10;stroke-width:0.25px"/><path id="path835" d="M121.4621,54.42686l15.24473-.19176.0959,2.68461-15.48442.09588Z" style="fill:#ffb380;stroke:#000;stroke-miterlimit:10;stroke-width:0.25px"/><path id="path837" d="M97.49152,43.11864c24.321,12.40242,43.98585,8.62136,62.91525-.54237" style="fill:none;stroke:#000;stroke-miterlimit:10;stroke-width:0.25px"/></svg>