<svg cursor="default" viewBox="0 0 256 256" xmlns="http://www.w3.org/2000/svg"><defs><radialGradient id="a" cx="105.92" cy="190.6" r="100.78" gradientTransform="matrix(-.10225 .46012 -.65677 -.14596 202.99 159.15)" gradientUnits="userSpaceOnUse"><stop stop-color="#ffd5d5" offset="0"/><stop stop-color="#ff8080" offset="1"/></radialGradient></defs><g stroke="#000"><path d="M58.121 60.82c49.282 4.44 98.911 4.553 148.92-.045l.714 24.005-147.79 2.442z" fill="#f55"/><path d="M131.43 191.4l-4.475 5.56 1.677.521 2.184-1.36-.133 4.222 1.513.18 1.59-2.07 2.186 1.218 2.617-.118 2.743-1.324 2.708 1.71 2.712-2.776 3.65.69 3.554-1.679c1.613.309 1.736-3.225 5.025 1.035 1.79 2.317 1.879 1.524 3.191 1.066.382-.133.466-2.96 1.52-2.95 2.154-1.804 4.15-5.208 5.764-.11l2.75-3.276 2.505 3.174.578-3.819 4.005 1.869s3.73 2.101 4.407.203c.678-1.898 4.43-6.058 4.43-6.058s5.604 2.397 5.604 1.855c0-.543 3.186-2.916 3.186-2.916l3.865 2.373 4.43-.133-.43-3.596 2.934.469 2.64-3.492 3.917-1.587 2.638.693 3.702-2.209s3.503-1.147 3.638-3.045c4.144 4.139 4.754 3.307 4.599-1.642 2.21 3.524 2.816.399 4.536-.907l-1.556-1.55 4.113-.491-2.927-2.403.293-4.035-3.356 2.8-7.002-4.838zM119.94 189.94l4.41 3.452-2.429 4.973-5.832-1.271s-2.94 2.795-3.515 2.795c-.575 0-8.075-3.371-8.075-3.371l-3.733 3.554-4.006-.997-.657-3.091-3.584-.963-7.48 5.466-2.06-2.78-3.884-.96c-2.875-3.24-3.799-1.55-7.095.576-1.806-.878-3.171-2.184-4.602-3.548l-6.52 2.397 1.055-5.657-2.966 2.565-9.21-.935.143-3.979-5.101-.91-4.966.862 3.404-4.794-9.684 2.589 4.027-2.78-4.638.288-5.238-1.535L29 179.441l-3.931-1.582 3.116-1.822-1.247-1.63 7.862-1.246z" fill="#fff6d5"/></g><path d="M207.38 60.945c-23.427 9.06-52.204 17.031-73.411 20.922-.214.04-.434-.026-.65-.04-27.463-1.852-48.657-7.822-75.682-20.953-25.54 49.375-16.428 86.044-27.223 114.82 30.846 17.063 53.863 13.446 87.601 19.275 2.27.318 3.61-1.825 4.676-2.91l.47-15.49c1.712-.657 2.5-.43 3.986-.533.806-.056 1.588-.404 3.744.36l.1 15.193c.84 1.366 2.443 3.77 3.317 3.73 33.875-2.612 66.547-14.507 96.511-25.487-4.135-36.36-14.96-49.91-23.44-108.89z" fill="url(#a)" stroke="#000"/><g stroke="#000"><path d="M131.52 89.173l2.085-1.774c1.566-.022 3.856-.327 5.657 0-1.728.99-3.637 1.82-4.794 2.301z" fill="#ff2a2a"/><g fill="#fff6d5"><path d="M56.76 181.02c19.511 2.33 17.927 3.833 30.291-3.938-18.661-7.738-27.424-8.976-45.288-6.508 3.462 9.197 7.593 7.965 14.998 10.446zM184.51 121.9c12.987-4.664 30.51-1.917 30.411-1.922-20.731 16.569-31.492 16.825-57.507 16.9 10.607-11.466 16.094-9.052 27.096-14.978zM51.254 116.61c3.098.518 6.403.828 10.576.271-1.024 6.909-2.818 13.488-2.712 20.881-5.842 1.152-9.464-.807-13.559-1.356.769-6.75 2.23-13.407 5.695-19.797z"/></g><path d="M59.119 178.03c-.087-.104 10.742-.883 12.61-.95 1.298-.045 9.42 1.053 8.95 1.425-2.343 1.052-4.868 1.983-8.814 1.966-4.249.098-8.498-1.118-12.746-2.441zM184.81 124.87c-.099-.101 11.138-1.805 13.082-2.028 1.35-.155 9.906.318 9.443.744-2.363 1.288-4.926 2.466-9.044 2.774-4.424.452-8.949-.463-13.481-1.49z" fill="#ff2a2a"/></g><g stroke="#000"><g fill="none"><path d="M126.27 175.75c-4.632-9.125 5.054-52.301.943-78.664-.823-5.279-3.188-9.566-3.22-13.51 2.297-1.394 5.717-.932 11.746-2.002M127.33 97.32c34.895-7.316 52.357-13.458 81.881-24.066M51.819 73.392c14.326 7.86 27.703 14.413 75.029 21.93"/></g><circle cx="132.24" cy="88.847" r="3.559" fill="#fca" stroke-width=".5"/><path d="M139.25 94.915c-1.642 21.732 4.77 66.488-13.979 60.81" fill="none" stroke-dasharray="3,1"/><circle cx="132.15" cy="88.932" r="1.271" fill="#ffe6d5" stroke-width=".5"/><g fill="none"><path d="M178.33 83.61c5 26.333 25.149 19.024 36.146 15.916M82.301 86.205c-2.667 13.13-26.142 20.191-39.467 14.219"/><path d="M60.675 102.04l4.584-12.935c-6.191-1.451-12.057-3.506-17.354-6.616"/><g stroke-dasharray="3, 1"><path d="M176.61 84.61c6.106 28.547 27.783 19.39 38.565 16.762M42.187 102.31c8.923 4.46 38.578 2.835 41.516-15.916M128.61 156.2c-1.216 7.136-1.245 16.725.205 20"/></g></g><g fill="#ff2a2a"><path d="M51.056 122.58c.984-.854 2.134-1.078 4.267-1.103 1.135.263 2.395.49 3.211 1.582-1.166.976-2.425.234-3.715.288-1.677-.333-3.043-.115-3.763-.767zM51.023 172.11c1.612-.451 5.063-.313 7.195.103 1.437.407 5.809.825 6.615 1.954-1.188 1.335-5.9.565-8.03-.059-3.073-.315-4.937-.845-5.78-1.998zM49.269 130.25c1.066-.407 2.645-.505 4.41-.49 1.54.169 2.644.601 3.548 1.154-1.015.24-.779.076-4.315.173-2.353-.375-2.701-.391-3.643-.837z"/></g><g><path d="M47.556 84.233c4.696 3.061 10.775 5.058 17.114 6.855" fill="none" stroke-dasharray="3,1"/><path d="M81.461 71.124c31.262 5.39 60.603 3.864 92.649.939" fill="none"/><path d="M174.56 129.51c2.576-1.103 5.652-1.533 11.384-1.894 3.076.115 6.483.17 8.77 1.256-3.058 1.267-6.505.64-9.97.901-4.538-.107-8.193.35-10.184-.263zM164.54 134.55c3.062-1.207 1.528-1.419 9.06-2.11 4.735.377 6.26-.425 8.342.192-6.045 2.965-11.868 3.81-17.402 1.918z" fill="#ff2a2a"/><path d="M127.18 96.074c14.249-3.03 29.259-6.842 42.954-11.122l9.971-3.068 14.765-5.082 14.19-5.033M52.446 72.008c22.029 12.437 49.449 18.467 74.066 21.621" fill="none" stroke-dasharray="3,1"/></g></g><g stroke="#000"><path d="M168.17 73.926l4.522-1.387c2.298 5.135 3.308 11.124 4.323 16.67.15.813.861 1.71.986 2.496l-4.737 1.284c-.12-.9-.642-1.73-.8-2.673-.886-5.327-1.986-11.299-4.294-16.39zM89.34 73.837l4.794 1.534c-2.327 5.13-4.751 11.243-6.01 17.035-.184.853-.86 1.698-.965 2.532l-4.64-1.686c.184-.964.886-1.816 1.142-2.833 1.361-5.409 3.198-11.565 5.679-16.582z" fill="#ff8080"/><path d="M83.661 90.678l4.508 1.458M172.53 90.465l4.362-1.15" fill="none" stroke-dasharray="2,1"/></g></svg>