<svg xmlns="http://www.w3.org/2000/svg" xmlns:xlink="http://www.w3.org/1999/xlink" viewBox="0 0 256 256"><defs><radialGradient id="innoGrad1" cx="553.78193" cy="-6925.28484" r="30.98091" gradientTransform="matrix(0.32914, -0.25524, -0.204, -0.26307, -1464.63891, -1610.02004)" gradientUnits="userSpaceOnUse"><stop offset="0" stop-color="#faa"/><stop offset="1" stop-color="#ff8080"/></radialGradient><radialGradient id="innoGrad2" cx="-1896.63658" cy="242.65111" r="16.69239" gradientTransform="matrix(5.16897, 0.18378, 0.15794, -4.4421, 9872.16734, 1600.95413)" xlink:href="#innoGrad1"/><radialGradient id="innoGrad3" cx="-1749.68049" cy="198.66861" r="17.81105" gradientTransform="matrix(4.15576, -0.01077, -0.01066, -4.1165, 7417.57429, 974.43827)" xlink:href="#innoGrad1"/></defs><path d="M113.5,11.09832c3.99114,10.85007,7.83049,21.57871,12.96425,31.667l-8.86879-1.53406-5.99243-15.868L110.50042,12.3238Z" style="fill:#f55;stroke:#000;stroke-width:0.25px"/><path d="M145.47,11.09832c-3.99113,10.85007-8.054,21.57244-13.18774,31.66076l9.1564.33557,6.95122-17.35408-.33557-13.471Z" style="fill:#f55;stroke:#000;stroke-width:0.25px"/><path d="M112.73248,16.43,124.259,43.24475l-4.746-1.86964-7.5744-18.55257-1.19848-6.51976Z" style="fill:#ff8080;stroke:#000;stroke-width:0.25px"/><path d="M134.94952,42.76535l11.02608-27.4693,3.83515,4.31455L137.82588,44.34736Z" style="fill:#ff8080;stroke:#000;stroke-width:0.25px"/><path d="M111.38983,41.22033c10.84791.05641,21.8188.08822,33.55933-.0339.71152.1528,1.61249-.1078,1.661,1.49153l.61017,6.47457c1.2182,15.23586,5.04025,27.57108,11.12364,37.69313-20.26033,4.49017-43.00883,4.17726-60.4037-.16778,8.88584-15.02324,9.54365-27.00681,10.94108-37.99992l1.35593-6.81356c.15972-.7984.68852-.637,1.15255-.64407Z" style="stroke:#000;stroke-miterlimit:10;stroke-width:0.5px;fill:url(#innoGrad1)"/><path d="M95.832,93.94191c21.1695,5.72158,42.57687,5.0993,64.12938.60775.141-2.15124-.66229-4.82708-1.29536-7.40835l-.28664-.28594a137.5466,137.5466,0,0,1-60.40369-.16778l-.339.52542a23.42,23.42,0,0,0-1.80468,6.7289Z" style="fill:#ff8080;stroke:#000;stroke-miterlimit:10;stroke-width:0.25px"/><path d="M95.83205,93.94191l-.33667,18.33564c-2.36088,42.47434.34336,84.94869,1.8217,127.423,6.00329,1.96687,14.03129,2.01782,21.28512-.09592,2.84359-29.25945,5.54869-58.10875,7.47855-87.825.37881-6.41479.86069-12.79525.19176-19.55929,1.09-4.17073.52316-8.34147.57527-12.5122l-.0342-21.53868A124.34623,124.34623,0,0,1,95.83205,93.94191Z" style="stroke:#000;stroke-miterlimit:10;stroke-width:0.5px;fill:url(#innoGrad2)"/><path d="M126.81357,98.16947c10.18165-.309,20.54373-.80789,33.11241-3.62951l.95879,21.7645c-.64336,37.31056-1.07605,74.579-3.461,112.2379l.339,9.22034c-9.13258,3.46978-16.77241,2.45544-24.1356.61015l-.0678-9.76271c-.86191-28.34271-1.637-56.68546-4.98573-85.02817l-.0479-7.38267c-.69051-1.13488-.67639-1.70188-1.96552-1.91756l-.28763-2.06142a23.07979,23.07979,0,0,0,.71909-6.28006Z" style="stroke:#000;stroke-miterlimit:10;stroke-width:0.5px;fill:url(#innoGrad3)"/><path d="M133.72882,236.91525a41.91255,41.91255,0,0,0,24.03391-.47456" style="fill:none;stroke:#000;stroke-miterlimit:10;stroke-width:0.5px"/><path d="M97.29308,238.28369c9.03792,2.4177,14.02433,1.53948,21.61772-.214" style="fill:none;stroke:#000;stroke-miterlimit:10;stroke-width:0.5px"/><path d="M157.49153,87.11864c-5.69362-8.32337-9.48149-21.123-11.28815-38.57627" style="fill:none;stroke:#000;stroke-miterlimit:10;stroke-width:0.25px;stroke-dasharray:1,0.5"/><path d="M145.20859,48.614c1.82025,17.90951,5.6492,30.606,11.26578,38.66316" style="fill:none;stroke:#000;stroke-miterlimit:10;stroke-width:0.25px;stroke-dasharray:1,0.5"/><path d="M98.80319,86.86964c4.93624-8.71746,9.483-18.659,10.89173-38.46286" style="fill:none;stroke:#000;stroke-miterlimit:10;stroke-width:0.25px;stroke-dasharray:1,0.5"/><path d="M111.12363,48.37427c-1.52291,14.2262-4.33567,27.68464-11.19387,38.73507" style="fill:none;stroke:#000;stroke-miterlimit:10;stroke-width:0.25px;stroke-dasharray:1,0.5"/><path d="M107.661,38.27118a27.058,27.058,0,0,0,7.322-1.18644c.22595-.15567.65966.08821.339-1.11865a173.81249,173.81249,0,0,1-2.91526-23.76271l.678-1.05084c-2.68122.0058-5.34756.10575-7.76271,1.79661.4586,8.768,1.07663,17.00451,1.9185,24.49492C107.27,37.775,107.31244,38.0995,107.661,38.27118Z" style="fill:#ff8080;stroke:#000;stroke-miterlimit:10;stroke-width:0.25px"/><path d="M148.8994,38.17007a27.05847,27.05847,0,0,1-7.322-1.18644,1.62421,1.62421,0,0,1-.339-1.11865c1.71766-8.00378,3.71139-16.155,4.30508-24.03389l.113-1.00291c2.68121.0058,4.55656.05781,6.97171,1.74867-.4586,8.768-2.46646,17.2757-3.30834,24.76611a1.16749,1.16749,0,0,1-.42048.82711Z" style="fill:#ff8080;stroke:#000;stroke-miterlimit:10;stroke-width:0.25px"/><path d="M160.84746,112.06779c-6.15785-.26719-13.77271,3.98209-16.20339-14.94915" style="fill:none;stroke:#000;stroke-width:0.25px"/><path d="M95.45155,111.07665c10.50132,3.60137,13.88538-2.83732,15.362-13.89021" style="fill:none;stroke:#000;stroke-width:0.25px"/><path d="M155.156,91.42389l-.9468,1.00673a5.69842,5.69842,0,0,1-3.05613-.43146,5.201,5.201,0,0,1,2.99621-1.40223Z" style="fill:#ff2a2a;stroke:#000;stroke-miterlimit:10;stroke-width:0.25px"/><path d="M156.04324,98.17294l-.94679,1.00672a5.69827,5.69827,0,0,1-3.05614-.43145,5.20109,5.20109,0,0,1,2.99622-1.40222Z" style="fill:#ff2a2a;stroke:#000;stroke-miterlimit:10;stroke-width:0.25px"/><path d="M157.21777,105.55561l-.94679,1.00673a5.69866,5.69866,0,0,1-3.05614-.43146,5.20115,5.20115,0,0,1,2.99622-1.40222Z" style="fill:#ff2a2a;stroke:#000;stroke-miterlimit:10;stroke-width:0.25px"/><path d="M143.69492,97.22034c1.99119,17.59079,9.64492,16.45868,17.08474,16.03389" style="fill:none;stroke:#000;stroke-width:0.25px;stroke-dasharray:1,0.5"/><path d="M142.40678,97.322c3.41239,20.64455,11.58908,17.55313,18.47458,16.91525" style="fill:none;stroke:#000;stroke-width:0.25px;stroke-dasharray:1,0.5"/><path d="M111.866,97.059c-1.99182,17.60376-8.906,16.84015-16.30509,15.55931" style="fill:none;stroke:#000;stroke-width:0.25px;stroke-dasharray:1,0.5"/><path d="M113.15409,97.16074c-3.49925,20.505-10.601,17.06862-17.322,16.6949" style="fill:none;stroke:#000;stroke-width:0.25px;stroke-dasharray:1,0.5"/><path d="M127.18644,134.54237c1.54557-2.03341,2.50671-5.647,1.62711-14.23729V98.10169" style="fill:none;stroke:#000;stroke-width:0.25px;stroke-dasharray:1,0.5"/><path d="M127.83051,98.44067l.0339,22.20339c.41872,4.99433.79507,9.94218-1.52542,11.9322" style="fill:none;stroke:#000;stroke-width:0.25px;stroke-dasharray:1,0.5"/><path d="M127.01556,119.2048c10.7235-.22129,4.91535-13.66787,6.42388-21.26114" style="fill:none;stroke:#000;stroke-width:0.25px;stroke-dasharray:1,0.5"/><path d="M134.4222,97.99159c.64158,11.105,2.22288,23.29038-7.45459,22.53154" style="fill:none;stroke:#000;stroke-width:0.25px;stroke-dasharray:1,0.5"/><path d="M113.83221,52.76073q10.70623-.14287,21.02144-.38352a22.04175,22.04175,0,0,1,.43146,7.64634A101.52663,101.52663,0,0,1,124.259,63.45122a31.71255,31.71255,0,0,1-10.88226-3.52355A21.435,21.435,0,0,1,113.83221,52.76073Z" style="fill:none;stroke:#000;stroke-width:0.5px"/><path d="M98.37174,87.54079a31.75911,31.75911,0,0,0-1.582,5.92053c24.87606,5.72694,43.92257,3.451,62.2973.45542a34.88113,34.88113,0,0,0-1.17452-5.96846C138.5479,92.02844,118.80959,92.70962,98.37174,87.54079Z" style="fill:none;stroke:#000;stroke-width:0.25px;stroke-dasharray:1,0.5"/><path d="M114.476,53.41789c-.238.3678,19.37221.0647,19.63119-.16779.12487-.11208.43146,6.16022.43146,6.16022s-10.32874,2.79774-10.40286,2.94827c-.34594.70254-10.24188-3.11857-10.13919-3.52355Z" style="fill:none;stroke:#000;stroke-width:0.25px;stroke-dasharray:1,0.5"/><path d="M115.87329,54.65759l-.63024,3.55424a48.69439,48.69439,0,0,0,8.749,3.14c2.94281-.99521,5.54985-2.03518,9.10849-2.94828l-.1339-3.72735a155.12715,155.12715,0,0,1-17.09332-.01865Z" style="fill:none;stroke:#000;stroke-width:0.25px;stroke-dasharray:1,0.5"/><path d="M113.68186,60.19886c1.28654,8.03384-4.32206,20.78718,7.1995,20.5469a133.04846,133.04846,0,0,0,16.74576.23729c9.2953.13984,3.66319-15.89,5.08475-24.98305l-7.18645-.0678" style="fill:none;stroke:#000;stroke-width:0.5px"/><path d="M114.81356,60.71186l-.50847,13.45763c.95882,6.21973,5.6491,5.32061,5.661,5.59324l17.93224.30506c2.28633-.37113,3.531-2.33219,4.10169-5.322l-.339-17.661-1.322-.1017.20339,17.83051c-.14594,3.39076-1.33151,3.35067-2.339,3.8983l-17.8983-.23729c-1.86856-.20816-3.801-.27262-4.678-2.71186l.27118-14.50848" style="fill:none;stroke:#000;stroke-width:0.25px;stroke-dasharray:1,0.5"/><path d="M135.6207,59.688l6.68754.21573" style="fill:none;stroke:#000;stroke-width:0.25px;stroke-dasharray:1,0.5"/><path d="M111.05085,41.9322l-1.35593,6.47458c12.16949.46149,24.339.57691,36.50848.13559L145.661,42C134.49033,42.31015,123.20216,42.5135,111.05085,41.9322Z" style="fill:none;stroke:#000;stroke-width:0.25px;stroke-dasharray:1,0.5"/><path d="M127.8545,41.37511l.0479,7.0471.11983,3.955" style="fill:none;stroke:#000;stroke-width:0.5px"/><path d="M128.88519,41.39908a80.00959,80.00959,0,0,0,.3116,11.098" style="fill:none;stroke:#000;stroke-width:0.25px;stroke-dasharray:1,0.5"/><path d="M129.93987,41.42305a63.62849,63.62849,0,0,0,.16778,11.02607" style="fill:none;stroke:#000;stroke-width:0.25px;stroke-dasharray:1,0.5"/><path d="M127.73465,81.14088l-.14382,9.01262" style="fill:none;stroke:#000;stroke-width:0.5px"/><path d="M128.66946,81.21278l-.26367,8.77292" style="fill:none;stroke:#000;stroke-width:0.25px;stroke-dasharray:1,0.5"/><path d="M129.82,81.26073l-.35955,8.74894" style="fill:none;stroke:#000;stroke-width:0.25px;stroke-dasharray:1,0.5"/><path d="M105.3709,25.96258a4.11113,4.11113,0,0,0,.4794,4.07485l8.53321-1.582a8.27452,8.27452,0,0,0-.50334-3.90707Z" style="fill:none;stroke:#000"/><path d="M151.29521,26.33653a4.11108,4.11108,0,0,1-.47938,4.07485l-8.53322-1.582a8.27465,8.27465,0,0,1,.50335-3.90707Z" style="fill:none;stroke:#000"/><path d="M106.80908,37.39614c-.34714-1.24316.33827-1.393,1.05467-1.5101l6.71152-1.19848c1.09648-.17438,1.28767.38482,1.34231,1.05467.12921.90285.65046,1.80571-2.10934,2.70858,1.06057,2.46828.52827,3.92291-1.22246,4.60218-1.49-.23857-3.10562-.212-2.9243-3.979C108.11771,39.18857,106.95358,38.87169,106.80908,37.39614Z" style="fill:none;stroke:#000"/><path d="M140.64407,36.47457c.1753-.86167.59059-1.37667,1.57627-1.0678l6.49153,1.22034c1.15391.41326.98491.96338.86439,1.50848-.43008.70438.3781,1.74973-2.9322,1.661.38453,2.49707-1.10285,4.45928-2.83,4.70987-1.066-1.06208-2.71068-2.755-1.01746-5.47258-2.68953-.71225-2.57867-1.62453-2.15256-2.55932Z" style="fill:none;stroke:#000"/><circle cx="156.09084" cy="98.26724" r="1.8157" style="fill:#fca;stroke:#000;stroke-miterlimit:10;stroke-width:0.25px"/><circle cx="156.04291" cy="98.27924" r="0.88688" style="fill:#fca;stroke:#000;stroke-miterlimit:10;stroke-width:0.25px"/><circle cx="155.18645" cy="91.38982" r="1.8157" style="fill:#fca;stroke:#000;stroke-miterlimit:10;stroke-width:0.25px"/><circle cx="155.13852" cy="91.40182" r="0.88688" style="fill:#fca;stroke:#000;stroke-miterlimit:10;stroke-width:0.25px"/><circle cx="156.39046" cy="105.53007" r="1.8157" style="fill:#fca;stroke:#000;stroke-miterlimit:10;stroke-width:0.25px"/><circle cx="156.34253" cy="105.54207" r="0.88688" style="fill:#fca;stroke:#000;stroke-miterlimit:10;stroke-width:0.25px"/><path d="M100.51909,91.57875l.9468,1.00673A5.69844,5.69844,0,0,0,104.522,92.154a5.201,5.201,0,0,0-2.99621-1.40223Z" style="fill:#ff2a2a;stroke:#000;stroke-miterlimit:10;stroke-width:0.25px"/><path d="M100.44682,98.66337l.9468,1.00673a5.69894,5.69894,0,0,0,3.05614-.43145,5.2008,5.2008,0,0,0-2.99621-1.40223Z" style="fill:#ff2a2a;stroke:#000;stroke-miterlimit:10;stroke-width:0.25px"/><path d="M99.0326,105.99811l.9468,1.00673a5.699,5.699,0,0,0,3.05614-.43146,5.201,5.201,0,0,0-2.99621-1.40222Z" style="fill:#ff2a2a;stroke:#000;stroke-miterlimit:10;stroke-width:0.25px"/><circle cx="100.39924" cy="98.75767" r="1.8157" style="fill:#fca;stroke:#000;stroke-miterlimit:10;stroke-width:0.25px"/><circle cx="100.44717" cy="98.76968" r="0.88688" style="fill:#fca;stroke:#000;stroke-miterlimit:10;stroke-width:0.25px"/><circle cx="100.48866" cy="91.54468" r="1.8157" style="fill:#fca;stroke:#000;stroke-miterlimit:10;stroke-width:0.25px"/><circle cx="100.53658" cy="91.55668" r="0.88688" style="fill:#fca;stroke:#000;stroke-miterlimit:10;stroke-width:0.25px"/><circle cx="99.85992" cy="105.97256" r="1.8157" style="fill:#fca;stroke:#000;stroke-miterlimit:10;stroke-width:0.25px"/><circle cx="99.90784" cy="105.98456" r="0.88688" style="fill:#fca;stroke:#000;stroke-miterlimit:10;stroke-width:0.25px"/><circle cx="143.91422" cy="44.97057" r="1.81571" style="fill:#fca;stroke:#000;stroke-miterlimit:10;stroke-width:0.25px"/><circle cx="143.86629" cy="44.98257" r="0.88688" style="fill:#fca;stroke:#000;stroke-miterlimit:10;stroke-width:0.25px"/><circle cx="112.80151" cy="44.39529" r="1.81571" style="fill:#fca;stroke:#000;stroke-miterlimit:10;stroke-width:0.25px"/><circle cx="112.75358" cy="44.4073" r="0.88688" style="fill:#fca;stroke:#000;stroke-miterlimit:10;stroke-width:0.25px"/><ellipse cx="124.1695" cy="58.88135" rx="1.8496" ry="1.78181" style="fill:#fca;stroke:#000;stroke-miterlimit:10;stroke-width:0.25px"/><circle cx="124.10169" cy="58.88136" r="0.88688" style="fill:#fca;stroke:#000;stroke-miterlimit:10;stroke-width:0.25px"/></svg>