<?xml version="1.0" encoding="UTF-8" standalone="no"?>
<svg
   xmlns:dc="http://purl.org/dc/elements/1.1/"
   xmlns:cc="http://creativecommons.org/ns#"
   xmlns:rdf="http://www.w3.org/1999/02/22-rdf-syntax-ns#"
   xmlns:svg="http://www.w3.org/2000/svg"
   xmlns="http://www.w3.org/2000/svg"
   xmlns:xlink="http://www.w3.org/1999/xlink"
   xmlns:sodipodi="http://sodipodi.sourceforge.net/DTD/sodipodi-0.dtd"
   xmlns:inkscape="http://www.inkscape.org/namespaces/inkscape"
   cursor="default"
   viewBox="0 0 256 256"
   version="1.1"
   id="svg33"
   sodipodi:docname="one_strap_crop_tank_top.svg"
   inkscape:version="0.92.3 (2405546, 2018-03-11)">
  <metadata
     id="metadata37">
    <rdf:RDF>
      <cc:Work
         rdf:about="">
        <dc:format>image/svg+xml</dc:format>
        <dc:type
           rdf:resource="http://purl.org/dc/dcmitype/StillImage" />
      </cc:Work>
    </rdf:RDF>
  </metadata>
  <sodipodi:namedview
     pagecolor="#ffffff"
     bordercolor="#666666"
     borderopacity="1"
     objecttolerance="10"
     gridtolerance="10"
     guidetolerance="10"
     inkscape:pageopacity="0"
     inkscape:pageshadow="2"
     inkscape:window-width="1920"
     inkscape:window-height="1017"
     id="namedview35"
     showgrid="false"
     inkscape:zoom="3.6875"
     inkscape:cx="142.20285"
     inkscape:cy="143.97305"
     inkscape:window-x="1358"
     inkscape:window-y="-8"
     inkscape:window-maximized="1"
     inkscape:current-layer="svg33" />
  <defs
     id="defs21">
    <linearGradient
       id="innoGrad3">
      <stop
         offset="0"
         stop-color="#ff8080"
         id="stop2" />
      <stop
         offset="1"
         stop-color="#f55"
         id="stop4" />
    </linearGradient>
    <linearGradient
       id="innoGrad2">
      <stop
         offset="0"
         stop-color="#ff8080"
         id="stop7" />
      <stop
         offset="1"
         stop-color="#f55"
         id="stop9" />
    </linearGradient>
    <linearGradient
       id="innoGrad1">
      <stop
         stop-color="#ff8080"
         offset="0"
         id="stop12" />
      <stop
         offset=".225"
         stop-color="#ff2a2a"
         id="stop14" />
      <stop
         stop-color="#ff8080"
         offset="1"
         id="stop16" />
    </linearGradient>
    <linearGradient
       xlink:href="#innoGrad2"
       id="e"
       x1="128"
       y1="214.78"
       x2="126.915"
       y2="188.269"
       gradientUnits="userSpaceOnUse" />
    <linearGradient
       xlink:href="#innoGrad3"
       id="d"
       x1="136.136"
       y1="110.373"
       x2="138.847"
       y2="190.91499"
       gradientUnits="userSpaceOnUse" />
  </defs>
  <path
     d="M173.017 103.593l44.746-53.152-3.921-25.584c-19.717 24.385-23.345 58.412-72.825 64.092z"
     fill="#ff2a2a"
     stroke="#000"
     id="path23" />
  <path
     d="M50.44 210.44c29.65 8.839 135.815 10.516 154.848-1.084l2.77-21.552c26.293-17.293 28.162-38.489 21.84-70.584-4.694-33.553-3.92-60.28 1.865-93.39-6.934-.308-13.385-.611-17.124.251-1.047.379-1.204 1.18-1.283 1.422-13.308 39.797-37.037 61.608-72.34 63.446-44.598 6.097-90.546 11.625-96.813 33.898-3.974 22.618.051 40.843 3.14 62 .565 3.87 1.15 7.808 1.962 11.81.907 4.468 1.767 9.047 1.135 13.783z"
     id="path25"
     style="opacity:1;stroke:#000000;stroke-opacity:1"
     stroke="#000"
     fill="#ff8080" />
  <path
     d="M227.845 106.703c3.028 17.632 6.66 41.992 3.301 49.492-3.696 17.655-15.584 25.766-23.308 31.134-12.43.856-32.232-3.659-45.314-6.856-10.143-1.727-21.324-2.498-28.682-2.395-1.08.015-2.251 0-3.5.103-46.965 3.868-40.003 11.768-50.507 10.827-10.965 3.162-21.012 3.757-30.83 3.458-.56-6.215-1.914-14.283-3.558-23.654-3.19-18.184-2.823-37.547-.669-45.965 60.311-36.484 131.443-45.777 183.067-16.144z"
     id="path27"
     fill="url(#d)"
     style="fill-opacity:1.0" />
  <path
     d="M50.992 210.081c34.364 9.797 140.356 9.455 153.855-1.08 1.067-4.392 1.28-11.31 2.667-20.747-12.823-.084-25.567-2.743-39.135-6.857-1.516-.46-4.256-.724-5.75-.877-12.232-1.253-19.058-1.151-33.049-.744-10.437.46-23.1 1.278-33.85 3.924-2.287.563-5.08 1.475-7.137 2.263-15.33 5.869-24.283 7.445-39.42 7.318 2.33 12.554 2.09 11.864 1.82 16.8z"
     fill="url(#e)"
     id="path29" />
  <path
     d="M164.134 180.795c-7.837-1.254-21.26-3.433-37.644-2.255-16.834 1.211-29.18 4.498-37.266 7.133 7.97-2.598 20.69-4.863 37.344-5.597 16.45-.725 29.703-.54 37.567.72zm-115.71 12.156l-.017.45c4.375.156 11.886-.009 20.802-1.659 9.162-1.695 15.737-4.186 20.015-6.07-4.217 1.857-10.999 4.191-20.09 5.627-8.98 1.418-16.305 1.36-20.694 1.202l-.017.45zm180.653-85l.165-.419c-3.92-1.945-21.74-7.812-31.04-8.462-9.2-1.467-33.172-2.958-37.832-2.614 4.594-.34 29.234 1.262 38.282 2.95 9.278.985 26.496 6.618 30.425 8.545zm-20.7 79.964l.007.45c-4.376.064-11.882-.26-20.76-2.1-9.125-1.89-16.153-3.504-20.39-5.478 4.176 1.946 11.415 3.407 20.474 5.036 8.947 1.61 16.272 1.706 20.664 1.642l.007.45z"
     id="path31" />
</svg>
