<svg id="svg14" xmlns="http://www.w3.org/2000/svg" viewBox="0 0 256 256"><g id="g4"><path id="path2" d="M58.294,22.535c.468,23.654.302,47.731,2.183,70.443-3.533,7.736-5.934,11.225-6.45,15.943L66.307,94.74l-1.356-1.22c-2.066-16.456-1.887-37.778-2.576-57.22L58.294,22.534m136.816-.766a461.47376,461.47376,0,0,1-1.687,70.736c1.557,4.237,3.948,7.949,4.264,17.548L186.033,95.148c1.492-.673,2.983-2.623,4.475-4.814,1.53-3.569,2.857-45.426,2.44-68.61ZM75.867,106.54c50.968,16.154,73.911,4.95,100.2-1.763l-54.237,28.61Z" style="fill:#f55;stroke:#000"/></g><path id="p" d="M71.463,91.853c17.505,45.263,88.341,45.712,107.96-3.835l18.688,25.986c-.302,16.095-6.249,40.543-13.127,65.675-2.643,13.487-3.76575,22.29517-1.85175,35.78217-40.9,10.62-78.345,8.192-114.67,1.534,1.083-19.16,1.58073-26.94116-2.94226-46.13716-6.271-17.862-9.493-37.25-11.697-57.144Z" style="fill:#ffb380;stroke:#000"/><g id="patternLayer"><path id="patternLayer" data-name="patternLayer" d="M71.726,91.853c17.505,45.263,88.341,45.712,107.96-3.835l18.688,25.986c-.302,16.095-6.249,40.543-13.127,65.675-2.643,13.487-3.76575,22.29517-1.85175,35.78217-40.9,10.62-78.345,8.192-114.67,1.534,1.083-19.16,1.58072-26.94116-2.94227-46.13716-6.271-17.862-9.493-37.25-11.697-57.144Z" style="fill:#ffb380;stroke:#000"/></g><g id="g12"><path id="path8" d="M70.759,93.773,54.228,114.576l-.536-5.271c6.56-6.724,10.41-13.942,15.15-20.997l-.097-8.246c-2.645-19.315-5.658-38.57-10.45-57.527a7.45193,7.45193,0,0,1,3.26-1.342c4.94,21.533,8.305,44.754,11.54,66.97,26.278,60.153,95.821,33.908,106.29-4.553,2.364-21.06,7.551-42.123,12.08-63.184a6.2497,6.2497,0,0,1,3.644,1.343c-5.436,21.84-10.497,43.42-12.656,62.992,2.66,5.994,3.494,9.147,15.56,23.449l.355,5.794a232.91488,232.91488,0,0,1-17.258-23.97c-15.832,42.967-86.799,55.807-110.36,3.74Z" style="fill:#ff8080;stroke:#000"/><path id="path10" d="M112.82,116.61l21.356-.271-.068,4.407-21.356.135Z" style="fill:#ffe680;stroke:#000"/></g></svg>