<svg id="Layer_1" data-name="Layer 1" xmlns="http://www.w3.org/2000/svg" xmlns:xlink="http://www.w3.org/1999/xlink" viewBox="0 0 256 256"><defs><radialGradient id="innoGrad1" cx="-582.90821" cy="2961.29238" r="103.587" gradientTransform="matrix(-0.1279, 0.30627, 0.57947, 0.242, -1695.99673, -378.44665)" gradientUnits="userSpaceOnUse"><stop offset="0" stop-color="#f55"/><stop offset="1" stop-color="#ff8080"/></radialGradient><linearGradient id="innoGrad3" x1="367.1516" y1="82.85952" x2="174.2876" y2="74.2915" gradientTransform="matrix(0.8597, 0, 0, -0.85965, -102.93028, 157.79986)" gradientUnits="userSpaceOnUse"><stop offset="0" stop-color="#ff2a2a"/><stop offset="0.511" stop-color="#f55"/><stop offset="1" stop-color="#ff2a2a"/></linearGradient><radialGradient id="innoGrad2" cx="36.85785" cy="932.90525" r="26.732" gradientTransform="matrix(0.675, 0.97674, 0.89306, -0.61715, -683.54315, 694.9893)" xlink:href="#innoGrad1"/></defs><path d="M76.932,142.206l-2.757,21.865c39.934-3.818,69.375-6.72,110.432-7.16L167.265,141.5l-48.437,3.536Z" style="fill:#f55;stroke:#000;stroke-width:0.5px"/><path d="M59.238,132.17l2.283-7.762c.56,14.546,3.894,26.008,7.45,39.7,12.685,1.053,22.75-2.928,34.855-6.935,8.704.181,16.726-3.187,23.255-6.935-3.848,7.053-3.44,16.471-3.672,23.72.538,9.208,1.692,20.842,4.53,27.947,4.483,14.998-1.927,16.424-2.84,25.789,2.87-5.242,4.853-9.15,6.12-14.22a53.41578,53.41578,0,0,1,1.807-6.703c3.568-13.356-8.458-43.275-3.06-51.929a3.67176,3.67176,0,0,0,1.487-2.623,46.882,46.882,0,0,0,4.981,1.212c1.707,4.338,1.578,8.865,1.2,13.098-.07,7.102,2.802,14.058,5.438,19.934,2.708,5.137,9.785,14.802,10.645,18.85-.4,4.566-5.068,3.7-7.227,5.538,5.558.813,8.114-2.043,9.109-6.895-.596-13.261-1.255-27.595-4.122-39.81-1.214-5.283-4.505-9.608-6.14-14.094l-2.968-.66c4.94,1.436,10.032,1.644,15.126,2.061a65.20722,65.20722,0,0,0,32.558,5.275c6.724-10.983,5.058-24.89,7.419-36.76l1.748,6.968c12.418-1.835,23.015-9.436,31.14-11.172-3.788-27.325-1.142-50.65-29.46-62.944-15.95-5.981-34.034-10.772-48.112-14.565-1.288,33.174-12.657,44.863-24.336,35.32-15.227,24.593-21.08-23.03-36.35-33.765-11.92,2.043-23.386,5.408-34.846,9.135-36.055,16.05-31.795,51.188-32.99,71.453,12.084,4.523,24.487,11.782,34.972,11.773Z" style="stroke:#000;stroke-width:0.5px;fill:url(#innoGrad1)"/><path d="M123.983,45.41c-11.51.073-22.496-.097-31.611-5.338-.998,41.76,14.491,78.85,37.18,101.408l.989.577c3.609-.066,4.413-1.11,10.303-1.236,20.528-28.065,30.517-83.827,11.944-102.566-8.403,5.248-19.269,5.963-28.805,7.156Z" style="stroke:#000;stroke-width:0.75px;fill:url(#innoGrad3)"/><path d="M157.547,107.675,196,119.942c-.451,14.073-.765,26.766-6.285,36.278-4.28.236-14.724,2.213-32.626-5.513l-8.728-.81-5.826-9.324,5.79-8.928Z" style="fill:url(#innoGrad2)"/><path d="M130.54,142.057c-1.902,4.011-.998,7.177.913,10.162m8.937-11.192c-.017,3.259,1.009,5.525,1.98,8.366-1.302,2-3.912,2.862-5.936,4.038a46.63152,46.63152,0,0,1-4.981-1.212m-1.865-4.079-2.507,2.098" style="fill:none;stroke:#000;stroke-width:0.5px"/><path d="M103.826,157.173l-10.142.35c-1.857-6.508-1.652-10.85-.291-17.368,14.06-3.08,23.211,1.708,37.148,1.902m9.849-1.03c12.438-2.947,8.524-6.466,27.957-11.013,5.735,5.863-.533,8.376,6.295,19.408-6.233,2.169-11.44,1.88-17.147,2.031" style="fill:none;stroke:#000;stroke-width:0.25px"/><path d="M197.472,119.968c5.292-9.939,5.273-10.22,6.895-21.892.595-16.36-.363-31.463-3.468-45.256M61.686,124.944l-1.549-4.333C52.814,94.119,54.851,74.8,57.256,48.945" style="fill:none;stroke:#000;stroke-width:0.25px"/><path d="M24.737,115.03c13.463,7.267,26.35,12.059,35.496,13.23m138.145-4.995c10.458-.448,22.341-10.42,31.563-10.653" style="fill:none;stroke:#000;stroke-width:0.5px"/><path d="M117.64,48.307l.105,2.566a26.79562,26.79562,0,0,0,14.378-.7l-.474-2.591a24.8449,24.8449,0,0,1-14.01.725Z" style="fill:#ffb380;stroke:#000;stroke-width:0.5px"/><path d="M93.684,157.523c-1.857-6.508-1.652-10.85-.291-17.368,14.107-2.99,24.322,1.715,37.148,1.902-1.43,3.278-.965,4.426-.953,6.083l-2.507,2.098C112.825,158.638,103.842,156.958,93.684,157.523Zm51.653-7.471-2.968-.66a20.36628,20.36628,0,0,1-1.978-8.365c12.469-2.92,9.167-6.845,27.956-11.013,5.735,5.863-.533,8.376,6.295,19.408C163.936,152.546,155.653,151.632,145.337,150.052ZM0,0" style="fill:#ff8080;stroke:#000;stroke-width:0.5px"/></svg>