<?xml version="1.0" encoding="UTF-8" standalone="no"?>
<svg
   xmlns:dc="http://purl.org/dc/elements/1.1/"
   xmlns:cc="http://creativecommons.org/ns#"
   xmlns:rdf="http://www.w3.org/1999/02/22-rdf-syntax-ns#"
   xmlns:svg="http://www.w3.org/2000/svg"
   xmlns="http://www.w3.org/2000/svg"
   xmlns:sodipodi="http://sodipodi.sourceforge.net/DTD/sodipodi-0.dtd"
   xmlns:inkscape="http://www.inkscape.org/namespaces/inkscape"
   version="1.1"
   viewBox="0 0 64 64"
   id="svg835"
   sodipodi:docname="crest_of_daphnel.svg"
   inkscape:version="1.1-dev (ddb55ca, 2020-02-02)">
  <metadata
     id="metadata841">
    <rdf:RDF>
      <cc:Work
         rdf:about="">
        <dc:format>image/svg+xml</dc:format>
        <dc:type
           rdf:resource="http://purl.org/dc/dcmitype/StillImage" />
      </cc:Work>
    </rdf:RDF>
  </metadata>
  <defs
     id="defs839" />
  <sodipodi:namedview
     pagecolor="#ffffff"
     bordercolor="#666666"
     borderopacity="1"
     objecttolerance="10"
     gridtolerance="10"
     guidetolerance="10"
     inkscape:pageopacity="0"
     inkscape:pageshadow="2"
     inkscape:window-width="900"
     inkscape:window-height="651"
     id="namedview837"
     showgrid="false"
     inkscape:zoom="0.97710436"
     inkscape:cx="39.734114"
     inkscape:cy="42.376127"
     inkscape:window-x="284"
     inkscape:window-y="87"
     inkscape:window-maximized="0"
     inkscape:current-layer="svg835" />
  <path
     inkscape:connector-curvature="0"
     id="path852"
     d="m 31.010045,61.76578 c -0.44355,-0.324333 -0.456192,-0.491012 -0.169102,-2.229414 0.505613,-3.061593 0.865466,-9.94487 0.693481,-13.264881 C 31.242815,40.642254 30.600815,33.658374 30.306068,32.90906 30.121469,32.439764 29.392171,31.771277 28.303453,31.073427 26.14077,29.687182 24.876625,28.236741 23.701746,25.79357 c -0.812829,-1.690287 -0.945674,-2.245915 -1.077985,-4.508694 -0.178188,-3.047349 -0.49047,-3.761547 -2.311311,-5.286042 -0.719742,-0.6026 -1.47363,-1.414732 -1.675309,-1.804737 -0.33184,-0.641707 -0.319606,-0.751708 0.128727,-1.157444 0.761562,-0.689205 2.213123,-0.310166 3.28375,0.857471 1.889878,2.061121 2.452839,3.262739 2.656286,5.669743 0.392196,4.640098 2.968994,8.714492 6.05842,9.579476 1.368561,0.383175 3.588642,0.208624 4.707866,-0.370151 2.612507,-1.350977 5.193788,-6.362659 5.193788,-10.083982 0,-1.227959 0.119584,-1.482139 1.654987,-3.517712 0.91024,-1.206761 1.847226,-2.267882 2.082188,-2.358045 1.254648,-0.481454 2.703815,0.158442 2.703815,1.193903 0,0.228539 -0.696519,0.951482 -1.547817,1.606542 -2.267545,1.744836 -2.832057,2.695732 -2.832057,4.770487 0,4.385778 -2.106399,8.217132 -5.956982,10.835216 -1.053765,0.716475 -1.562695,1.270645 -1.868263,2.034338 -0.518379,1.295554 -0.887306,6.094155 -1.089958,14.176924 -0.132658,5.291178 -0.08472,6.517413 0.380209,9.725884 0.51581,3.559608 0.50276,4.365317 -0.07714,4.762398 -0.469702,0.321625 -2.599173,0.21644 -3.104915,-0.153365 z M 19.367326,55.659001 c -1.445344,-0.925893 -1.57898,-2.463488 -0.412836,-4.750003 1.611602,-3.159945 2.692011,-9.21608 2.157304,-12.092575 -0.27525,-1.480726 -0.894799,-2.473156 -1.873345,-3.000841 -0.352551,-0.190115 -0.603436,0.08069 -1.39438,1.505085 -1.718728,3.095222 -2.980126,4.785817 -5.276443,7.071778 -2.287466,2.277148 -3.2823861,2.842622 -3.9811236,2.262723 -0.8576452,-0.711782 -0.4314008,-1.442211 2.6517796,-4.544191 2.450526,-2.465472 3.239607,-3.450266 4.098075,-5.114516 1.624819,-3.149923 1.770848,-3.941974 1.12114,-6.080995 -0.522686,-1.720827 -0.565992,-1.77682 -1.369665,-1.770896 -0.456452,0.0034 -1.514632,0.28761 -2.351512,0.631663 -1.852936,0.761767 -2.471815,0.571366 -2.471815,-0.76046 0,-0.482608 0.124022,-0.954117 0.275604,-1.0478 0.585382,-0.361788 7.048183,-1.912806 7.204213,-1.728952 0.09065,0.10682 0.425079,1.179688 0.743167,2.384153 0.7262,2.749819 1.48044,4.05905 3.146982,5.462627 0.72304,0.608951 1.424774,1.396037 1.559411,1.749081 0.400096,1.049135 0.292281,8.102244 -0.167412,10.951882 -0.709061,4.395463 -2.062633,9.406313 -2.539072,9.399504 -0.167073,-0.0023 -0.671105,-0.239657 -1.120072,-0.527267 z m 24.053257,-3.410144 c -1.219413,-5.047471 -1.4487,-6.890423 -1.458451,-11.722647 -0.0091,-4.511581 0.02087,-4.608636 2.164535,-7.011099 1.082409,-1.213079 1.572906,-2.059617 2.205076,-3.805711 0.447159,-1.235082 0.876977,-2.564433 0.955147,-2.954113 0.07817,-0.38968 0.170021,-0.708508 0.204118,-0.708508 0.35647,0 6.103358,1.372499 6.639916,1.585775 0.756069,0.300533 1.114528,1.137474 0.847508,1.978783 -0.246788,0.777556 -0.713061,0.82587 -2.576136,0.266935 -3.171098,-0.951351 -3.996338,-0.439965 -4.003129,2.480676 -0.0066,2.85274 2.100646,6.337903 6.279413,10.38532 2.586699,2.505388 3.014502,3.349886 1.97799,3.904612 -0.899021,0.48114 -1.25285,0.291221 -3.575741,-1.919314 -2.316577,-2.204521 -4.134882,-4.593953 -5.724294,-7.52229 -0.730941,-1.346684 -0.93509,-1.554852 -1.321843,-1.347867 -0.767652,0.410835 -1.792968,2.460508 -2.016184,4.030483 -0.349697,2.459563 0.778803,7.541209 2.602977,11.721225 0.90156,2.065891 0.814369,2.725043 -0.504237,3.81195 -1.568786,1.293126 -1.636723,1.213161 -2.696665,-3.17421 z M 30.90178,23.714492 c -0.915968,-0.915967 -1.457006,-2.474504 -1.206078,-3.474276 0.09669,-0.385249 0.508758,-1.03341 0.915707,-1.440359 0.57664,-0.576639 0.975419,-0.739906 1.807221,-0.739906 1.966015,0 3.079626,1.003142 3.088826,2.78242 0.01548,2.993246 -2.756151,4.721647 -4.605676,2.872121 z M 25.784336,11.920551 C 25.370449,11.349195 24.701066,10.250005 24.29682,9.4779037 23.584809,8.1179807 23.575659,8.0529757 24.004194,7.3989475 24.247496,7.0276213 24.568746,6.7238092 24.71808,6.7238092 c 0.55866,0 1.746165,1.5020925 1.919981,2.4286125 0.154267,0.822317 0.260342,0.9401793 0.73822,0.820239 0.306936,-0.07704 1.228567,-0.21887 2.048073,-0.315187 2.216641,-0.260522 2.51036,-0.736235 1.951433,-3.160574 -0.182318,-0.790812 -0.174453,-1.388482 0.02628,-1.9967066 0.248318,-0.7524112 0.399756,-0.8680589 1.136698,-0.8680589 1.304036,0 1.522364,0.4605923 1.319687,2.7840515 -0.152417,1.74726 -0.114975,2.059956 0.288945,2.413127 0.499087,0.436382 1.698332,0.847504 3.210535,1.100629 0.940385,0.1574093 0.944185,0.1543013 1.366494,-1.11715 0.375551,-1.1306826 1.234687,-2.0889825 1.872813,-2.0889825 0.113867,0 0.399626,0.317413 0.63502,0.7053622 0.415522,0.6848163 0.401434,0.7558953 -0.483654,2.4402183 -1.258992,2.3958693 -1.981107,3.1355973 -2.865449,2.9353493 -2.654149,-0.600998 -5.307005,-0.76106 -7.587427,-0.457792 -1.310602,0.174293 -2.692502,0.383393 -3.070888,0.464665 -0.583712,0.125372 -0.802033,-0.0097 -1.440505,-0.891061 z"
     style="fill:#ff8080;stroke:#ffb380;stroke-width:0.25764;fill-opacity:1" />
</svg>
