<svg xmlns="http://www.w3.org/2000/svg" viewBox="0 0 64 64">
    <path fill="#dededd" d="M42.09 8.161c2.345 7.754 3.258 13.067 2.024 16.115-1.424 3.519-5.131 5.35-7.994 7.884-2.463 2.18-2.55 4.997-2.631 7.365-.138 4.012-.252 8.662 0 12.67.086 1.386 3.675 1.653 8.298 2.665 1.323.29 1.281.75 0 1.04-6.093 1.372-13.481 1.372-19.574 0-1.281-.29-1.323-.75 0-1.04 4.623-1.012 8.212-1.279 8.298-2.664.252-4.009.138-8.659 0-12.671-.08-2.368-.168-5.185-2.63-7.365-2.864-2.534-6.571-4.365-7.996-7.884-1.233-3.048-.32-8.36 2.024-16.115 4.492-1.463 15.69-1.463 20.181 0z"/>
    <path fill="#671f13" d="M19.65 19.278c-.156 1.967-.014 3.55.475 4.758 1 2.47 3.176 4.109 5.37 5.761.863.65 1.73 1.303 2.548 2.026a.248.248 0 01.017.013v.001l.002.002c.433.384.794.785 1.096 1.199 1.844.529 3.81.514 5.68.003a7.514 7.514 0 011.1-1.201c.824-.73 1.697-1.388 2.567-2.043 2.194-1.652 4.37-3.29 5.37-5.761.488-1.208.631-2.789.475-4.753.163-.123.249-.25.249-.379 0-1.052-5.64-1.906-12.596-1.906-6.955 0-12.596.854-12.596 1.906 0 .128.084.253.243.374z"/>
    <path fill="#bb4234" d="M32.003 16.998c6.955 0 12.596.854 12.596 1.906 0 1.053-5.64 1.906-12.596 1.906-6.955 0-12.596-.853-12.596-1.906 0-1.052 5.64-1.906 12.596-1.906z"/>
    <path fill="none" d="M42.043 8.674c.077.06.117.122.117.184 0 .67-4.55 1.213-10.16 1.213s-10.16-.543-10.16-1.213c0-.057.034-.114.099-.17"/>
    <path fill="#969594" d="M42.34 7.95c1.174 3.883 1.99 7.155 2.357 9.84.371 2.709.288 4.83-.343 6.387-1.045 2.583-3.269 4.258-5.513 5.948-.873.657-1.749 1.317-2.54 2.016-2.384 2.11-2.478 4.869-2.558 7.192v.028a230.298 230.298 0 00-.146 6.332c-.014 2.159.02 4.319.145 6.322.057.896 2.098 1.286 5.051 1.85.954.183 1.997.382 3.057.614.473.103.798.235.974.379.172.14.154.256.26.427.075.084.111.174.11.268 0 .126-.066.242-.195.347-.181.147-.513.28-.989.386-.87.193-1.77.36-2.69.5-.922.14-1.857.251-2.8.336-4.869.438-10.04.159-14.527-.836-.475-.105-.807-.24-.988-.386-.13-.105-.196-.221-.196-.347 0-.132.274-.62.367-.695.176-.144.5-.275.974-.38l.01-.001c1.055-.231 2.096-.43 3.047-.612 2.953-.564 4.994-.954 5.05-1.85.126-2.003.16-4.163.146-6.322-.014-2.16-.077-4.325-.145-6.332l-.001-.028c-.08-2.322-.174-5.079-2.556-7.189H27.7a.24.24 0 01-.02-.019c-.786-.693-1.655-1.348-2.521-2-2.244-1.69-4.468-3.365-5.513-5.948-.63-1.557-.714-3.678-.343-6.388.368-2.687 1.185-5.964 2.36-9.852a.233.233 0 01.158-.15c.64-.208 1.413-.387 2.283-.537a35.46 35.46 0 012.836-.36c5.213-.466 11.974-.166 15.241.898a.23.23 0 01.16.162zM22.278 55.52c4.357.981 9.382 1.256 14.116.824a44.213 44.213 0 002.72-.332 38.813 38.813 0 002.608-.492c.256-.058.467-.124.612-.194.207-.1.22-.13.012-.232a2.91 2.91 0 00-.622-.193 113.353 113.353 0 00-3.04-.612c-3.176-.607-5.372-1.026-5.45-2.252-.125-2.005-.16-4.174-.145-6.346.014-2.17.077-4.337.146-6.342v-.029c.083-2.4.18-5.248 2.703-7.48.824-.73 1.697-1.388 2.567-2.043 2.194-1.653 4.37-3.291 5.37-5.762.603-1.49.68-3.55.316-6.197-.362-2.644-1.162-5.864-2.313-9.682-3.245-1.01-9.802-1.288-14.886-.833-1.002.09-1.944.207-2.788.353-.785.135-1.489.295-2.082.48-1.15 3.817-1.951 7.038-2.313 9.682-.363 2.648-.287 4.707.316 6.197 1 2.47 3.176 4.11 5.37 5.762.863.65 1.73 1.303 2.548 2.026a.248.248 0 01.017.013l.002.003c2.522 2.233 2.62 5.082 2.702 7.481l.001.029c.069 2.005.132 4.171.146 6.342.014 2.171-.02 4.34-.146 6.346-.077 1.226-2.273 1.645-5.449 2.252-.245.047-3.031.61-3.031.61l-.01.002a3.188 3.188 0 00-.573.172c-.216.094-.267.138-.045.248.145.072.359.14.62.198zm5.784-23.68"/>
    <path fill="#fff" fill-opacity=".502" d="M39.768 11.193c6.248 8.661 3.098 14.444-2.378 17.068 4.003-3.884 5.009-10.41 2.378-17.068z"/>
    <path fill="none" d="M28.057 32.604"/>
    <path fill="#aaa9a9" d="M37.97 54.522c1.176.14 2.527.311 2.527.623 0 .31-5.97 1.153-10.998.761 4.748-.208 8.905-.702 8.47-1.384z"/>
    <path fill="#969594" d="M42.18 7.81a.75.75 0 01.079.072c.07.076.105.156.105.241h-.001c0 .436-1.205.798-3.151 1.03-1.845.22-4.394.356-7.209.357h-.005c-2.815 0-5.365-.137-7.21-.357-1.946-.232-3.15-.594-3.151-1.03a.32.32 0 01.06-.187.56.56 0 01.097-.105l.03.024a.233.233 0 01.153.018c.08.04.116.121.094.195l.011.01a.205.205 0 00-.028.028l-.004.006c-.005.007 0-.002-.003.003a.024.024 0 00-.004.008c0 .234 1.07.479 2.8.685 1.832.219 4.362.354 7.155.354h.005c2.793 0 5.322-.135 7.153-.354 1.73-.206 2.8-.45 2.8-.684 0-.005-.006-.014-.017-.026a.223.223 0 00-.033-.03v-.001z"/>
</svg>
