<?xml version="1.0" encoding="UTF-8" standalone="no"?>
<svg
   xmlns:dc="http://purl.org/dc/elements/1.1/"
   xmlns:cc="http://creativecommons.org/ns#"
   xmlns:rdf="http://www.w3.org/1999/02/22-rdf-syntax-ns#"
   xmlns:svg="http://www.w3.org/2000/svg"
   xmlns="http://www.w3.org/2000/svg"
   xmlns:xlink="http://www.w3.org/1999/xlink"
   xmlns:sodipodi="http://sodipodi.sourceforge.net/DTD/sodipodi-0.dtd"
   xmlns:inkscape="http://www.inkscape.org/namespaces/inkscape"
   version="1.1"
   viewBox="0 0 256 256"
   id="svg364"
   sodipodi:docname="regular.svg"
   inkscape:version="1.0.2-2 (e86c870879, 2021-01-15)">
  <metadata
     id="metadata368">
    <rdf:RDF>
      <cc:Work
         rdf:about="">
        <dc:format>image/svg+xml</dc:format>
        <dc:type
           rdf:resource="http://purl.org/dc/dcmitype/StillImage" />
        <dc:title></dc:title>
      </cc:Work>
    </rdf:RDF>
  </metadata>
  <sodipodi:namedview
     pagecolor="#ffffff"
     bordercolor="#666666"
     borderopacity="1"
     objecttolerance="10"
     gridtolerance="10"
     guidetolerance="10"
     inkscape:pageopacity="0"
     inkscape:pageshadow="2"
     inkscape:window-width="1920"
     inkscape:window-height="1001"
     id="namedview366"
     showgrid="false"
     inkscape:zoom="12.526287"
     inkscape:cx="123.17455"
     inkscape:cy="20.650309"
     inkscape:window-x="-9"
     inkscape:window-y="-9"
     inkscape:window-maximized="1"
     inkscape:current-layer="svg364" />
  <defs
     id="defs220">
    <linearGradient
       id="linearGradient1114">
      <stop
         stop-color="#ff8080"
         offset="0"
         id="stop190" />
      <stop
         stop-color="#faa"
         offset="1"
         id="stop192" />
    </linearGradient>
    <linearGradient
       id="linearGradient1116"
       x1="135.59"
       x2="51.254"
       y1="194.71"
       y2="159.19"
       gradientUnits="userSpaceOnUse"
       xlink:href="#linearGradient1114" />
    <linearGradient
       id="linearGradient1118"
       x1="141.02"
       x2="200.68"
       y1="185.49"
       y2="168.14"
       gradientUnits="userSpaceOnUse"
       xlink:href="#linearGradient1114" />
    <linearGradient
       id="linearGradient1134"
       x1="145.9"
       x2="143.46"
       y1="358.51"
       y2="91.119"
       gradientUnits="userSpaceOnUse">
      <stop
         stop-color="#ff8080"
         offset="0"
         id="stop197" />
      <stop
         stop-color="#faa"
         offset="1"
         id="stop199" />
    </linearGradient>
    <linearGradient
       id="linearGradient1162"
       x1="97.404"
       x2="99.172"
       y1="254.67"
       y2="227.27"
       gradientUnits="userSpaceOnUse">
      <stop
         stop-color="#f55"
         offset="0"
         id="stop202" />
      <stop
         stop-color="#ff8080"
         offset=".31306"
         id="stop204" />
      <stop
         stop-color="#ff8080"
         offset=".51784"
         id="stop206" />
      <stop
         stop-color="#f55"
         offset="1"
         id="stop208" />
    </linearGradient>
    <linearGradient
       id="linearGradient1174"
       x1="156.09"
       x2="154.94"
       y1="254.67"
       y2="232.22"
       gradientUnits="userSpaceOnUse">
      <stop
         stop-color="#f55"
         offset="0"
         id="stop211" />
      <stop
         stop-color="#ff8080"
         offset=".3484"
         id="stop213" />
      <stop
         stop-color="#ff8080"
         offset=".62567"
         id="stop215" />
      <stop
         stop-color="#f55"
         offset="1"
         id="stop217" />
    </linearGradient>
  </defs>
  <style
     id="style222">svg { cursor: default; }</style>
  <style
     id="style342">svg { cursor: default; }</style>
  <style
     id="style344">svg { cursor: default; }</style>
  <style
     id="style346">svg { cursor: default; }</style>
  <style
     id="style348">svg { cursor: default; }</style>
  <style
     id="style350">svg { cursor: default; }</style>
  <style
     id="style352">svg { cursor: default; }</style>
  <style
     id="style354">svg { cursor: default; }</style>
  <style
     id="style356">svg { cursor: default;}</style>
  <style
     id="style358">svg { cursor: default; }</style>
  <style
     id="style360">svg { cursor: default; }</style>
  <style
     id="style362">svg { cursor: default;}</style>
  <path
     style="fill:#ff8080;stroke-width:0.159664"
     d=""
     id="path392" />
  <path
     style="fill:#ff8080;stroke-width:0.0798321"
     d=""
     id="path520" />
  <path
     style="fill:#000000;stroke-width:0.682059"
     d="m 101.07657,242.44359 c -2.235179,-0.41641 -4.359902,-1.20501 -4.721607,-1.75243 -0.361698,-0.54743 -0.662682,-3.68269 -0.668859,-6.96725 -0.0063,-3.28456 -0.507685,-13.73544 -1.11449,-23.22417 -0.607703,-9.50284 -1.212882,-30.81368 -1.347294,-47.44365 -0.134209,-16.60528 -0.442968,-32.1323 -0.686126,-34.50448 -0.243158,-2.37218 -1.831844,-8.94131 -3.530403,-14.59805 -3.379683,-11.25542 -6.839087,-25.395129 -8.117128,-33.177375 -0.863585,-5.258549 -0.501095,-21.202949 0.76183,-33.509156 0.374528,-3.649512 0.852606,-9.173546 1.0624,-12.275632 0.849998,-12.568308 3.1955,-22.077722 5.860474,-23.760181 1.417697,-0.89502 5.400659,-1.091636 26.991863,-1.3324169 40.78286,-0.454809 44.86959,-0.425832 46.28882,0.3282239 3.90838,2.076579 6.38799,15.64236 7.19484,39.362422 0.27931,8.211402 0.47532,17.617191 0.43557,20.901752 -0.0901,7.443093 -4.59719,29.504896 -9.01132,44.109393 -1.70698,5.64766 -3.10055,11.47029 -3.09683,12.93918 0.004,1.46889 -0.36253,5.50737 -0.81389,8.97441 -0.59588,4.57713 -0.62551,8.66638 -0.10817,14.92982 0.78418,9.49405 0.20374,32.88517 -1.53953,62.0417 -0.57824,9.67121 -1.05119,19.71228 -1.05098,22.31349 2.3e-4,2.97555 -0.32462,4.98401 -0.87599,5.41582 -0.482,0.3775 -3.43474,1.05649 -6.56164,1.50886 -6.26978,0.90706 -16.27029,0.11438 -19.84384,-1.57289 -1.54014,-0.72718 -2.1599,-0.7389 -3.25967,-0.0616 -1.55068,0.95495 -10.88781,2.29149 -15.25517,2.18364 -1.61089,-0.0397 -4.75768,-0.41301 -6.99286,-0.82943 z m 15.63191,-1.75604 c 5.36514,-0.93277 5.52425,-0.97814 6.42738,-1.83292 0.60527,-0.57286 0.57128,-1.02739 -0.13728,-1.83543 -0.66275,-0.75582 -0.71347,-1.20757 -0.17116,-1.52479 0.54955,-0.32145 0.59595,-3.49541 0.16177,-11.06385 -0.33487,-5.8372 -0.93719,-16.58501 -1.3385,-23.88403 -0.4013,-7.29903 -0.87797,-14.16675 -1.05925,-15.2616 -0.26546,-1.60331 -1.36188,-33.3953 -1.23573,-35.83157 0.0189,-0.36495 0.34194,-2.90302 0.71785,-5.64016 0.37593,-2.73713 0.57342,-8.34902 0.43889,-12.47086 -0.13453,-4.12185 0.0352,-8.89939 0.37717,-10.61676 0.3764,-1.89026 0.36575,-3.20979 -0.027,-3.34369 -0.35677,-0.12165 -0.64871,-0.51251 -0.64871,-0.86859 0,-0.35608 0.36711,-0.43268 0.8158,-0.17022 0.61524,0.35987 0.70373,-2.52596 0.35996,-11.73882 -0.26849,-7.195465 -0.19979,-11.834065 0.16716,-11.286675 0.3689,0.55028 0.46428,-3.618436 0.23384,-10.221021 -0.30538,-8.750189 -0.20286,-11.041359 0.47627,-10.644106 0.5826,0.340784 0.81097,0.103022 0.69879,-0.727521 -0.0916,-0.678557 0.23291,-2.12953 0.72125,-3.224383 0.8179,-1.833727 0.93318,-1.886035 1.46248,-0.663548 0.54612,1.261318 0.57704,1.253097 0.62387,-0.165887 0.0777,-2.352807 1.33869,-1.741374 1.86289,0.903255 0.32416,1.635406 0.11525,3.110187 -0.65798,4.644833 -0.62312,1.236727 -0.90143,2.248597 -0.61847,2.248597 0.5383,0 0.70464,2.66056 1.05789,16.920461 0.73646,29.729735 1.42089,45.830235 1.96168,46.146565 0.79903,0.46738 0.28138,41.24654 -0.67345,53.0538 -1.86913,23.1132 -2.46474,45.77839 -1.20342,45.79495 0.42567,0.005 0.30072,0.30418 -0.27768,0.66355 -0.93478,0.58079 -0.93478,0.72508 0,1.29863 0.82289,0.5049 1.14796,0.25233 1.4945,-1.16121 0.24357,-0.99355 0.48019,-1.48492 0.52582,-1.09194 0.0482,0.41565 1.00435,0.58652 2.28579,0.40852 1.41306,-0.1963 2.04162,-0.0591 1.75314,0.38268 -0.28145,0.43101 0.86184,0.7747 3.05575,0.91858 1.928,0.12644 3.50525,-0.005 3.50501,-0.29111 -2.4e-4,-0.28655 0.55333,-0.24051 1.23016,0.10232 0.78685,0.39857 2.8725,0.34558 5.78397,-0.14695 l 4.55338,-0.77027 0.46414,-4.64043 c 1.43943,-14.39092 2.78111,-47.65578 3.01065,-74.6447 0.14433,-16.97023 0.48275,-31.90005 0.75203,-33.17738 0.26928,-1.27733 1.69282,-6.35347 3.16342,-11.28031 1.47061,-4.92684 4.03283,-14.929815 5.69383,-22.228835 l 3.02,-13.270957 -0.15698,-17.779673 c -0.0922,-10.441559 -0.45034,-18.298494 -0.86778,-19.036731 -0.45594,-0.806316 -0.46698,-1.399667 -0.0308,-1.654814 0.37401,-0.218779 0.54923,-1.207339 0.38938,-2.196801 -0.15986,-0.989469 -0.67003,-5.456836 -1.13371,-9.927488 -0.68811,-6.634488 -1.04926,-8.138087 -1.96492,-8.180839 -0.62776,-0.02933 -0.7623,-0.191467 -0.30548,-0.368156 0.8645,-0.334369 0.44062,-2.386297 -1.16944,-5.661037 -1.06702,-2.170233 -2.36256,-2.523937 -9.28692,-2.535483 -4.41598,-0.0074 -5.43343,0.181215 -5.43343,1.007086 0,0.558881 0.47324,1.188017 1.05164,1.398089 0.57839,0.210066 1.05163,0.666209 1.05163,1.013656 0,0.34744 -0.36424,0.418658 -0.80942,0.158256 -0.47591,-0.278385 -0.62006,-0.183491 -0.34984,0.230317 0.25276,0.387081 1.06885,0.552981 1.81354,0.368667 1.13002,-0.279685 1.28288,-0.0773 0.92417,1.223502 -0.2364,0.857238 -0.84733,1.954453 -1.35765,2.438259 -0.77026,0.730254 -1.03884,0.617571 -1.58151,-0.663547 -0.35952,-0.848757 -0.67173,-1.095299 -0.69379,-0.547872 -0.0221,0.547427 0.42949,1.847542 1.00346,2.88914 1.0339,1.876214 0.88027,3.082789 -0.39252,3.082789 -0.36284,0 -0.58083,-0.373246 -0.48443,-0.829435 0.0979,-0.463468 -0.36607,-0.743405 -1.05163,-0.634457 -0.83548,0.132769 -1.22691,-0.237696 -1.22691,-1.161209 0,-1.069154 -0.48224,-1.375308 -2.27853,-1.446547 -1.66583,-0.06609 -1.85155,-0.168037 -0.69069,-0.379211 0.87331,-0.158873 1.42499,-0.538256 1.22593,-0.843077 -0.19904,-0.304827 0.26951,-0.397949 1.04124,-0.206947 0.78481,0.194247 1.40314,0.02077 1.40314,-0.393656 0,-0.407511 -0.23662,-0.705577 -0.52582,-0.66236 -1.3025,0.194652 -3.24573,-0.215593 -2.4538,-0.518032 0.482,-0.184074 0.87636,-0.764579 0.87636,-1.290003 0,-0.802607 -0.27343,-0.785759 -1.71041,0.105372 -1.10098,0.682764 -1.55814,1.436275 -1.28304,2.114792 0.26228,0.646886 0.14109,0.886633 -0.31369,0.62061 -0.41909,-0.245141 -0.69931,0.05687 -0.64496,0.695159 0.0529,0.620755 -0.43126,1.232122 -1.07583,1.358587 -0.89456,0.175528 -1.07819,-0.109372 -0.77582,-1.203702 0.23397,-0.846806 -0.004,-1.701024 -0.58078,-2.086837 -0.72803,-0.486792 -0.57521,-0.569875 0.59985,-0.326147 0.86722,0.179868 1.75343,0.05647 1.96937,-0.274218 0.21595,-0.330685 -0.0806,-0.601254 -0.65901,-0.601254 -0.5784,0 -1.24691,-0.299061 -1.4856,-0.664576 -0.27332,-0.418572 0.55479,-0.547128 2.23716,-0.347287 1.68458,0.200099 2.30987,0.102763 1.693,-0.263542 -0.78667,-0.467144 -0.71805,-0.652127 0.35055,-0.945084 0.73076,-0.200345 -0.091,-0.205242 -1.82623,-0.01088 -3.09158,0.346272 -3.12258,0.331071 -1.54493,-0.757453 0.88548,-0.610949 2.06857,-0.944256 2.62908,-0.740686 0.56051,0.20357 1.01911,0.03709 1.01911,-0.369961 0,-0.517467 -1.6171,-0.610709 -5.37602,-0.309983 -2.95682,0.236562 -5.52569,0.571759 -5.70861,0.744879 -0.90185,0.853569 1.45897,2.086281 3.53464,1.845625 1.75617,-0.203609 2.04604,-0.102013 1.24021,0.434691 -0.67808,0.451603 -0.74816,0.70401 -0.19728,0.710559 0.46989,0.0053 0.67276,0.458054 0.45081,1.005481 -0.22196,0.547427 -0.9219,0.990749 -1.55545,0.985162 -0.91366,-0.0081 -0.95517,-0.128137 -0.20068,-0.580604 0.66309,-0.397657 0.71618,-0.707919 0.17527,-1.024318 -0.98239,-0.574646 -2.33434,0.175462 -1.79762,0.997385 0.22184,0.339736 0.0167,0.617696 -0.45596,0.617696 -0.47263,0 -0.65389,0.194426 -0.40282,0.432056 0.25107,0.237623 -0.0907,0.825321 -0.75951,1.305988 -1.65771,1.191393 -2.63727,1.141886 -1.56655,-0.07917 0.72727,-0.829388 0.63444,-0.995321 -0.55682,-0.995321 -0.78628,0 -1.58873,-0.373246 -1.78322,-0.829435 -0.19448,-0.456189 -0.42148,0.215653 -0.50443,1.492983 -0.11735,1.806873 -0.22158,1.96712 -0.46956,0.721866 -0.24662,-1.238491 -0.46048,-1.388586 -0.94541,-0.663547 -0.45992,0.687641 -0.62956,0.466905 -0.63744,-0.829428 -0.009,-1.523207 -0.37472,-1.82463 -2.65416,-2.189123 -4.19912,-0.671451 -5.35602,-1.822779 -1.2984,-1.292167 2.74284,0.358681 3.35599,0.265612 3.09819,-0.470289 -0.23589,-0.673328 -2.04612,-0.968408 -6.80289,-1.108921 -6.22342,-0.18383 -6.53741,-0.124137 -7.88666,1.499306 -0.77285,0.929916 -1.73635,1.49705 -2.1411,1.260296 -0.42154,-0.246574 -0.58994,-0.03669 -0.39421,0.491344 0.18793,0.506983 0.83336,0.884502 1.43429,0.838916 1.64468,-0.124753 1.94387,2.171778 0.44967,3.451596 -0.72027,0.61694 -1.16275,1.346564 -0.98329,1.621385 0.17946,0.274828 -0.0956,0.831107 -0.61133,1.236176 -1.17225,0.920785 -4.65564,-1.67287 -4.65564,-3.466485 0,-0.648585 -0.30359,-1.001659 -0.67465,-0.784612 -0.79253,0.463581 0.45191,3.608776 1.87849,4.747709 0.78303,0.625142 0.77247,0.81203 -0.063,1.115484 -1.25175,0.454609 -1.8419,-0.07255 -1.8419,-1.64526 0,-0.669082 -0.26291,-1.216508 -0.58424,-1.216508 -0.32133,0 -0.58424,0.4381 -0.58424,0.973557 0,1.281204 -2.414426,6.325466 -3.027674,6.325466 -0.262768,0 -0.477763,-0.434756 -0.477763,-0.966131 0,-0.531376 0.262908,-0.812349 0.584244,-0.624386 0.789824,0.462002 0.735308,-0.220211 -0.141514,-1.770842 -0.437465,-0.773637 -0.460671,-1.283474 -0.0584,-1.283474 0.367033,0 0.786003,0.336943 0.931037,0.748761 0.145041,0.411817 0.620848,-0.352596 1.057352,-1.698702 0.684008,-2.109358 0.631438,-2.510712 -0.380557,-2.90529 -1.949121,-0.759975 -1.698763,-2.111296 0.403251,-2.176543 1.886964,-0.05859 1.879504,-0.07309 -0.350543,-0.682518 -1.253194,-0.342471 -2.278535,-0.905345 -2.278535,-1.250827 0,-0.385687 0.714079,-0.371196 1.849953,0.03756 2.755819,0.991659 2.892269,0.185668 0.159595,-0.942781 -1.298049,-0.536027 -1.947109,-0.998951 -1.442354,-1.028718 0.504755,-0.02979 0.728465,-0.34397 0.497141,-0.698225 -0.231323,-0.354255 0.302162,-0.790524 1.185525,-0.969489 0.883372,-0.178966 2.237102,-0.451678 3.008292,-0.606026 0.7712,-0.154348 -1.27948,-0.311197 -4.557064,-0.348548 -7.814587,-0.08905 -8.913226,0.232885 -9.560323,2.801525 -0.690466,2.740777 -0.60107,2.473394 -1.566601,4.685403 -0.513182,1.175667 -0.59115,2.171805 -0.199046,2.542914 0.392104,0.371109 0.233617,1.389873 -0.40459,2.600682 -0.709017,1.34515 -0.952245,3.259299 -0.750157,5.903536 0.181946,2.380637 0.0074,4.048285 -0.445716,4.258516 -0.487172,0.226038 -0.44015,0.479911 0.135955,0.734003 0.484402,0.213649 0.703134,0.660423 0.486071,0.992827 -0.429164,0.657217 -0.948768,2.523863 -1.527985,5.489171 -0.347915,1.781134 -0.27754,1.847038 1.18258,1.107448 0.853875,-0.432514 1.735808,-0.612899 1.959848,-0.400856 0.224039,0.212043 0.09958,0.385535 -0.276586,0.385535 -0.376169,0 -1.246393,0.389256 -1.933831,0.865007 -1.298077,0.89835 -1.894429,5.288103 -2.924831,21.52962 -0.6849,10.795648 1.819476,24.519976 8.566608,46.946096 4.118342,13.68854 5.751231,28.46196 4.363807,39.48108 -0.690564,5.48458 0.195169,35.93734 1.862418,64.03235 0.563092,9.48873 1.025733,18.37197 1.028095,19.74054 0.0042,2.40064 0.09073,2.4883 2.458088,2.4883 1.3496,0 2.45381,0.31213 2.45381,0.69362 0,0.43333 -0.92083,0.53012 -2.45381,0.25792 -1.557625,-0.27656 -2.453804,-0.17736 -2.453804,0.27165 0,0.38902 1.183085,0.89461 2.629074,1.1235 1.446,0.2289 2.91288,0.48127 3.25975,0.56081 2.0382,0.46741 9.74805,0.31551 13.04054,-0.25691 z m -11.2174,-1.02917 c -1.3496,-0.4713 -2.08525,-0.87962 -1.63479,-0.90738 0.45046,-0.0277 1.36981,-0.25053 2.043,-0.49502 0.83449,-0.30308 1.06267,-0.19751 0.71705,0.33177 -0.27881,0.42697 -0.17282,0.77631 0.23553,0.77631 0.40836,0 0.74247,-0.27608 0.74247,-0.61351 0,-0.33743 1.10421,-0.48389 2.45381,-0.32546 1.38488,0.16257 2.4538,-0.004 2.4538,-0.38181 0,-0.36842 0.33411,-0.66986 0.74247,-0.66986 0.40835,0 0.54748,0.2986 0.30916,0.66355 -0.73026,1.11831 3.30148,0.74367 4.67714,-0.43462 1.01966,-0.87337 1.2843,-0.90732 1.29284,-0.16589 0.009,0.7585 0.13742,0.74675 0.69035,-0.063 0.54957,-0.80486 0.68167,-0.70963 0.69036,0.49766 0.01,1.36854 -0.31067,1.49298 -3.84525,1.49298 -2.12079,0 -3.85628,0.22395 -3.85664,0.49766 -0.001,0.83891 -5.11271,0.70412 -7.7113,-0.20334 z m 29.2704,-2.06087 c 0.482,-0.18407 1.27072,-0.18407 1.75272,0 0.482,0.18408 0.0876,0.33469 -0.87636,0.33469 -0.964,0 -1.35836,-0.15061 -0.87636,-0.33469 z M 91.995145,57.77611 c 0.481998,-0.184075 1.270721,-0.184075 1.752719,0 0.481998,0.184075 0.08764,0.334687 -0.876359,0.334687 -0.963996,0 -1.358357,-0.150612 -0.87636,-0.334687 z m 34.703825,-0.02886 c -1.45142,-0.26459 -1.58408,-0.668199 -1.66047,-5.052132 -0.0456,-2.620509 0.018,-5.063167 0.14148,-5.428119 0.12349,-0.364951 0.34894,-2.604424 0.50101,-4.976607 0.15208,-2.372183 0.64052,-4.532428 1.08543,-4.800555 0.57845,-0.348614 0.54556,-0.490394 -0.11546,-0.49766 -0.72885,-0.008 -0.84473,-1.439706 -0.54786,-6.76867 0.24601,-4.41585 0.11139,-7.060864 -0.38837,-7.630798 -0.57786,-0.659009 -0.49003,-0.872293 0.35922,-0.872293 0.62871,0 1.32774,-0.767824 1.58614,-1.742231 0.38734,-1.46066 0.56509,-1.567903 1.09982,-0.663547 0.3508,0.593278 1.06746,1.078683 1.59258,1.078683 0.53137,0 0.85061,0.514932 0.71989,1.161208 -0.12918,0.638664 -0.25901,1.421717 -0.28851,1.74012 -0.0295,0.318397 -0.52874,0.205727 -1.1094,-0.250376 -0.93032,-0.730752 -1.04827,0.06712 -0.99277,6.715381 0.0414,4.962546 0.34277,7.71313 0.88048,8.036902 0.53463,0.321907 0.39297,0.495749 -0.4094,0.502392 -0.76306,0.0066 -1.2269,0.520705 -1.2269,1.360604 0,1.144819 0.21349,1.2423 1.40217,0.640197 0.89684,-0.454271 1.40218,-1.389349 1.40218,-2.59459 0,-2.929663 0.80475,-6.031529 1.56482,-6.031529 0.37865,0 0.52233,0.409721 0.3193,0.910487 -0.20304,0.500773 -0.57477,2.367001 -0.82608,4.147173 -0.33318,2.360073 -0.25641,2.967119 0.28341,2.241364 0.61487,-0.826641 0.74216,-0.74894 0.75107,0.458505 0.006,0.799601 -0.30475,1.638359 -0.69035,1.863912 -0.3856,0.225553 -0.71112,0.01924 -0.72338,-0.458498 -0.0148,-0.576929 -0.33504,-0.47867 -0.95366,0.292611 -0.51224,0.638664 -1.27386,1.161208 -1.69248,1.161208 -0.4635,0 -0.68765,1.180869 -0.5732,3.019726 0.10338,1.660853 -0.0765,3.174392 -0.39964,3.36343 -0.32317,0.189045 -0.53157,1.841716 -0.4631,3.672603 0.1162,3.107082 0.23373,3.309132 1.76388,3.032287 0.90168,-0.163133 1.63941,-0.03942 1.63941,0.274921 0,0.314342 -0.62108,0.571533 -1.38018,0.571533 -0.93878,0 -1.25111,0.318311 -0.97662,0.995322 0.22196,0.547427 0.29092,0.954659 0.15327,0.904959 -0.13766,-0.0497 -0.96013,-0.219767 -1.82773,-0.377923 z m -0.41204,-6.333078 c -0.19449,-0.456189 -0.35362,-0.08294 -0.35362,0.829435 0,0.912378 0.15913,1.285623 0.35362,0.829434 0.19449,-0.456189 0.19449,-1.20268 0,-1.658869 z m 0,-3.981286 c -0.19449,-0.456189 -0.35362,-0.08294 -0.35362,0.829435 0,0.912378 0.15913,1.285623 0.35362,0.829434 0.19449,-0.456189 0.19449,-1.20268 0,-1.658869 z m 0.73262,-6.627739 c -0.16769,-0.825394 -0.31127,-0.306333 -0.31905,1.153471 -0.008,1.459805 0.12943,2.135131 0.3049,1.500719 0.17548,-0.634411 0.18185,-1.828796 0.0142,-2.65419 z m 0.70109,-13.270953 c -0.16769,-0.825393 -0.31127,-0.306333 -0.31905,1.153472 -0.008,1.459805 0.12943,2.13513 0.3049,1.500719 0.17548,-0.634411 0.18184,-1.828797 0.0142,-2.654191 z m -0.0315,-3.989022 c -0.19449,-0.456189 -0.35362,-0.08294 -0.35362,0.829434 0,0.912378 0.15913,1.285624 0.35362,0.829435 0.19449,-0.456189 0.19449,-1.20268 0,-1.658869 z m 2.69058,-1.824756 c -0.23832,-0.364951 -0.80904,-0.658976 -1.26828,-0.653382 -0.50171,0.006 -0.41524,0.266892 0.21665,0.653382 1.34687,0.823814 1.58957,0.823814 1.05163,0 z m -1.01658,32.215237 c 0.88334,-0.836037 0.85639,-1.881715 -0.035,-1.360273 -0.3856,0.225553 -0.70109,-0.05541 -0.70109,-0.624385 0,-1.228711 2.77889,-1.42808 2.85799,-0.205049 0.0295,0.456189 0.14775,1.277329 0.26279,1.824756 0.13785,0.656076 -0.3464,0.995321 -1.42077,0.995321 -1.02941,0 -1.38452,-0.232241 -0.96387,-0.63037 z m 3.74935,-0.700282 c 0.0857,-0.552854 0.59493,-1.375421 1.13155,-1.827914 0.81436,-0.686706 0.83738,-0.648074 0.1392,0.233655 -0.46005,0.581009 -0.66046,1.222951 -0.44536,1.426541 0.21511,0.20359 0.0823,0.550784 -0.29508,0.77154 -0.3774,0.220756 -0.61604,-0.05096 -0.53031,-0.603822 z m -32.35375,-2.77626 c 0.6748,-0.166903 1.77901,-0.166903 2.4538,0 0.6748,0.166895 0.12269,0.303453 -1.2269,0.303453 -1.34959,0 -1.9017,-0.136558 -1.2269,-0.303453 z m 29.03809,-2.362681 c 0.58714,-2.919351 0.72365,-2.945043 1.06226,-0.199907 0.19866,1.610589 0.008,2.356437 -0.60266,2.356437 -0.62943,0 -0.7652,-0.637053 -0.4596,-2.15653 z m 4.95296,0.747095 c 0.47558,-0.453475 1.04128,-0.657357 1.25714,-0.453057 0.21586,0.204299 -0.17324,0.575329 -0.86467,0.824511 -0.99919,0.360094 -1.07972,0.283879 -0.39247,-0.371454 z m -3.31848,-1.244756 c 0,-0.364951 0.33411,-0.663547 0.74247,-0.663547 0.40835,0 0.54748,0.298596 0.30916,0.663547 -0.23831,0.364951 -0.57242,0.663548 -0.74246,0.663548 -0.17004,0 -0.30917,-0.298597 -0.30917,-0.663548 z m 3.1549,-0.663547 c -0.23832,-0.364952 -0.11781,-0.663548 0.26779,-0.663548 0.3856,0 0.89607,0.298596 1.13438,0.663548 0.23832,0.364951 0.11781,0.663547 -0.26779,0.663547 -0.3856,0 -0.89607,-0.298596 -1.13438,-0.663547 z m 2.32235,-5.09811 c 0.50609,-0.191679 1.11078,-0.16811 1.34375,0.05235 0.23297,0.22049 -0.18112,0.37732 -0.92017,0.348509 -0.81674,-0.03185 -0.98286,-0.189072 -0.42358,-0.400896 z m 24.66951,-2.200914 c -0.63188,-0.38649 -0.71835,-0.647278 -0.21665,-0.653382 0.45924,-0.0053 1.02997,0.28843 1.26828,0.653382 0.53795,0.823814 0.29525,0.823814 -1.05163,0 z m -25.51468,-1.713134 c -0.57225,-1.411432 -0.54314,-3.927718 0.039,-3.376681 0.5079,0.480687 1.09276,4.426267 0.65614,4.426267 -0.14831,0 -0.46114,-0.472313 -0.69519,-1.049586 z M 87.776934,34.909025 c 0.475575,-0.453475 1.041283,-0.657357 1.25714,-0.453057 0.215858,0.204299 -0.173245,0.575329 -0.864672,0.824511 -0.99919,0.360094 -1.079716,0.283879 -0.392468,-0.371454 z m 47.860906,-2.493526 c 0,-0.729902 -0.29852,-1.501714 -0.66338,-1.715131 -0.36666,-0.214479 -0.49092,-2.050362 -0.27781,-4.104633 0.28231,-2.721215 0.13138,-3.869033 -0.56353,-4.285794 -0.73771,-0.442434 -0.67584,-0.571467 0.27782,-0.579364 0.87108,-0.0072 1.23001,0.519041 1.23763,1.814591 0.008,1.421943 0.16077,1.605042 0.69036,0.829434 0.52143,-0.763657 0.67961,-0.531992 0.67961,0.995322 0,1.34012 -0.19371,1.701409 -0.59278,1.105576 -0.47287,-0.706028 -0.68344,-0.661497 -1.0409,0.220152 -0.63198,1.558733 -0.57967,1.666367 0.60138,1.237424 0.83789,-0.30431 1.02651,0.173955 0.93551,2.372003 -0.11308,2.731434 -1.28391,4.655974 -1.28391,2.11042 z M 91.819874,30.346531 c -1.14306,-0.464888 -1.183093,-0.578892 -0.216651,-0.616907 0.65204,-0.02568 1.380512,0.251956 1.618825,0.616907 0.498235,0.763 0.473872,0.763 -1.402174,0 z m 65.709296,-1.063846 c -1.2629,-0.941966 -2.84035,-1.788221 -3.50543,-1.88056 -0.79796,-0.110786 -1.22064,-0.787373 -1.24272,-1.98923 l -0.0334,-1.821332 1.78618,2.041517 c 0.9824,1.122835 2.87282,2.792003 4.20092,3.709258 1.32811,0.917262 2.11683,1.664429 1.75272,1.660382 -0.36411,-0.004 -1.69531,-0.778063 -2.9582,-1.720035 z m -69.565277,0.139517 c 0,-0.143425 0.489618,-0.438605 1.088045,-0.655943 0.623912,-0.226601 0.905328,-0.115358 0.659709,0.260781 -0.41172,0.630503 -1.747754,0.932576 -1.747754,0.395162 z m 2.979621,-2.187258 c 0.689478,-0.170532 1.231608,-0.93612 1.237637,-1.747785 0.0085,-1.146039 0.145027,-1.243368 0.660985,-0.471264 0.79781,1.193894 -0.358936,2.709125 -1.984463,2.599474 -0.962705,-0.06496 -0.949286,-0.124402 0.08584,-0.380425 z m 2.81915,-3.557717 c -0.105458,-1.325025 0.825495,-1.758594 1.51355,-0.7049 0.211314,0.323599 -0.01963,0.90557 -0.51321,1.293268 -0.674383,0.529716 -0.922989,0.383497 -1.00034,-0.588368 z m 39.674246,-3.355076 c -0.64859,-0.388938 -0.22458,-0.575309 1.32457,-0.582217 1.25319,-0.0053 2.27853,0.10431 2.27853,0.244219 0,0.603357 -2.73304,0.859739 -3.6031,0.337998 z m -11.99609,-7.003765 c 0.48199,-0.184075 1.27072,-0.184075 1.75272,0 0.48199,0.184075 0.0876,0.334687 -0.87636,0.334687 -0.964,0 -1.35836,-0.150612 -0.87636,-0.334687 z m 19.80572,227.297424 c 0,-0.44351 -0.84074,-0.62207 -2.10326,-0.44669 -1.1568,0.16069 -2.10327,0.10631 -2.10327,-0.12085 0,-0.22715 -1.03848,-0.47919 -2.30774,-0.5601 -1.26925,-0.0809 -3.02609,-0.27802 -3.90407,-0.43806 -1.0331,-0.1883 -1.49786,-0.009 -1.31724,0.50914 0.51662,1.48102 11.73558,2.49107 11.73558,1.05656 z m 7.01087,0.0579 c 1.87925,-0.006 4.05568,-1.01009 3.44387,-1.58914 -0.63969,-0.60543 -7.58858,0.42215 -8.87497,1.31241 -1.06367,0.73613 -0.9016,0.81082 1.22637,0.56518 1.34861,-0.15567 3.24074,-0.28548 4.20473,-0.28845 z m -20.33619,-70.31863 c 0.54967,-12.04334 0.55816,-19.40684 0.0294,-25.54658 -0.40856,-4.74437 -1.05027,-16.38963 -1.42604,-25.87836 -0.37577,-9.48873 -0.91895,-22.328375 -1.20707,-28.532545 -0.49978,-10.762039 -0.54743,-11.036416 -1.03695,-5.971928 -0.2822,2.919609 -0.83941,17.252233 -1.23825,31.850283 -0.39883,14.59805 -1.00842,28.48278 -1.35464,30.85496 -0.6616,4.53298 -0.10915,21.27173 1.69722,51.42494 0.56843,9.48873 1.07848,19.79031 1.13343,22.8924 0.1129,6.37303 2.23278,-25.45644 3.40286,-51.09317 z M 106.89325,21.056897 c 0,-0.364951 -0.13912,-0.663547 -0.30916,-0.663547 -0.17004,0 -0.50415,0.298596 -0.74247,0.663547 -0.23831,0.364952 -0.0992,0.663548 0.30917,0.663548 0.40835,0 0.74246,-0.298596 0.74246,-0.663548 z m 39.73982,-1.45151 c -0.2238,-0.529332 -0.38993,-0.372098 -0.42357,0.400896 -0.0304,0.699492 0.13525,1.091396 0.36823,0.870906 0.23296,-0.22049 0.25786,-0.7928 0.0553,-1.271802 z m -43.33508,-5.914094 c -0.52899,-0.317156 -1.75053,-0.551454 -2.71452,-0.520659 l -1.752722,0.056 1.752722,0.531263 c 1.7251,0.522889 1.71957,0.532709 -0.35055,0.623376 l -2.103259,0.09211 2.278539,0.937314 c 1.25319,0.515524 2.30344,1.324979 2.33388,1.798785 0.0304,0.473806 0.38438,0.006 0.78653,-1.040031 0.56546,-1.470501 0.51319,-2.032201 -0.23062,-2.478145 z m 1.97092,1.932808 c -0.2238,-0.529332 -0.38993,-0.372097 -0.42357,0.400896 -0.0304,0.699492 0.13525,1.091396 0.36823,0.870906 0.23296,-0.22049 0.25786,-0.7928 0.0553,-1.271802 z m 21.95588,-0.930891 c 0,-0.537341 0.47142,-1.148203 1.04761,-1.357466 0.57618,-0.209263 0.87305,-0.647781 0.6597,-0.974493 -0.74662,-1.143379 -1.47827,-0.574832 -2.22546,1.729352 -0.41437,1.27786 -0.46731,2.156025 -0.11763,1.951487 0.34968,-0.204539 0.63578,-0.811539 0.63578,-1.34888 z m 4.20652,1.136558 c 0,-0.320268 -0.44515,-0.931959 -0.98921,-1.359317 -1.09866,-0.862984 -2.22237,0.117613 -1.46459,1.278065 0.53392,0.817644 2.4538,0.881212 2.4538,0.08125 z m 15.48343,-1.477893 c -0.36944,-0.874125 -0.69171,-1.240496 -0.71615,-0.814153 -0.0594,1.035539 0.75734,3.00023 1.10886,2.667521 0.15345,-0.145224 -0.0233,-0.979244 -0.39271,-1.853368 z m -21.31429,-0.718417 c -0.2238,-0.529332 -0.38993,-0.372097 -0.42357,0.400896 -0.0304,0.699492 0.13525,1.091396 0.36822,0.870906 0.23297,-0.22049 0.25787,-0.7928 0.0553,-1.271802 z"
     id="path24" />
  <path
     style="fill:#ff8080;stroke-width:0.319328"
     d="m 102.15391,240.51264 c -1.77858,-0.31317 -3.395185,-0.66913 -3.592441,-0.79104 -0.88567,-0.54738 -0.184411,-0.77086 1.876651,-0.59807 1.87985,0.1576 2.2353,0.1093 2.2353,-0.30374 0,-0.62588 -0.66673,-0.87754 -2.34125,-0.88369 -0.732064,-0.003 -1.543112,-0.13901 -1.802326,-0.30293 -0.487802,-0.30847 -0.437632,0.42459 -2.066042,-30.18805 C 94.942333,178.84287 94.516139,160.23968 95.164253,150.7204 96.1368,136.43596 94.796213,126.42108 89.420912,107.81464 85.801973,95.287786 83.56235,85.393253 82.509449,77.280161 81.96175,73.05989 82.033303,64.894632 82.686804,57.041409 83.608422,45.966185 84.134292,43.988264 86.333835,43.32408 c 0.5565,-0.16804 1.011818,-0.411033 1.011818,-0.539978 0,-0.524961 -0.642373,-0.561825 -1.922116,-0.110305 -0.743306,0.262254 -1.401654,0.476824 -1.462997,0.476824 -0.185819,0 0.238566,-1.924721 1.054026,-4.780347 0.705146,-2.469321 0.727365,-2.737617 0.255304,-3.082797 -0.332363,-0.243029 -0.396169,-0.452801 -0.178625,-0.58725 0.207782,-0.128416 0.338438,-1.680748 0.338438,-4.020991 0,-3.035345 0.135598,-4.203647 0.665667,-5.735326 0.467635,-1.351269 0.60383,-2.28952 0.457804,-3.153836 -0.156752,-0.927808 -0.01536,-1.691834 0.575031,-3.107193 0.430592,-1.032272 0.888527,-2.379801 1.017633,-2.994509 0.387992,-1.847322 1.036424,-2.799036 2.14807,-3.152756 1.543663,-0.491184 6.851803,-0.73436 8.866919,-0.406209 0.965973,0.157302 1.439743,0.303932 1.052843,0.325843 -1.172813,0.06642 -2.330157,0.74608 -2.330157,1.368409 0,0.32307 -0.152179,0.5874 -0.338174,0.5874 -0.678316,0 0.0813,0.636399 1.518399,1.272095 1.672802,0.739962 1.717892,1.108715 0.07805,0.638414 -2.683463,-0.769607 -3.125891,0.249877 -0.539783,1.24382 0.996679,0.383063 1.395724,0.651081 0.984102,0.660973 -1.862727,0.04476 -2.309034,1.21265 -0.824438,2.157369 1.277141,0.812706 1.341171,1.004113 0.865121,2.58593 -0.433426,1.440163 -1.104617,2.48757 -1.104617,1.723775 0,-0.210756 -0.287396,-0.383194 -0.638657,-0.383194 -0.74667,0 -0.795166,0.484949 -0.159664,1.596643 0.587913,1.028446 0.587913,1.277313 0,1.277313 -0.321868,0 -0.478993,0.32193 -0.478993,0.9814 0,2.439187 2.220895,-0.340029 3.399821,-4.254516 0.30414,-1.009877 0.65112,-1.836139 0.77107,-1.836139 0.11994,0 0.30867,0.566545 0.4194,1.258989 0.23861,1.49219 0.53629,1.732042 1.80407,1.453592 1.11822,-0.245604 1.20985,-0.782127 0.27755,-1.625271 -0.89014,-0.805027 -1.88763,-2.794747 -1.85943,-3.709049 0.0177,-0.57324 0.1472,-0.45126 0.59952,0.564619 1.36388,3.063199 5.0419,4.446788 5.39724,2.030321 0.0615,-0.417942 0.52848,-1.234529 1.03782,-1.814638 0.89478,-1.019104 1.19327,-2.388651 0.68169,-3.127784 -0.12903,-0.186427 -0.72629,-0.475971 -1.32724,-0.643433 -1.28456,-0.35796 -1.70419,-1.093244 -0.62392,-1.093244 0.41294,0 1.2593,-0.515246 1.94298,-1.182847 1.43971,-1.405832 2.40823,-1.579784 7.97915,-1.433105 3.25949,0.08582 3.71018,0.163003 3.54009,0.606257 -0.16617,0.433028 0.0247,0.483165 1.29443,0.340046 0.91315,-0.102926 1.48935,-0.04128 1.48935,0.159342 0,0.214098 -0.93831,0.255088 -2.71429,0.118575 -2.26773,-0.17431 -2.7143,-0.131548 -2.7143,0.259911 0,0.469345 1.17327,0.887186 3.67228,1.30783 1.98544,0.334197 2.71429,0.932018 2.71429,2.226316 0,1.153618 0.25279,1.368427 0.87644,0.74477 0.27448,-0.274471 0.42194,-0.135273 0.59203,0.558825 0.12458,0.508389 0.36649,1.01605 0.53758,1.128137 0.44505,0.291571 -0.0186,0.902482 -0.95517,1.258572 -0.66707,0.253618 -0.75686,0.426027 -0.53021,1.01812 0.15007,0.392039 0.27602,3.689427 0.27988,7.327528 0.005,4.59187 0.12055,6.728249 0.37824,6.98594 0.2654,0.265399 0.27838,0.609971 0.0455,1.208819 -0.88103,2.265894 -1.68217,17.984568 -0.97344,19.099184 0.31543,0.496077 1.81561,1.057795 2.82504,1.057795 0.66938,0 0.7641,-0.110111 0.5837,-0.678525 -0.24474,-0.771114 0.25968,-1.225001 1.3698,-1.232557 0.4236,-0.0029 0.71849,-0.201483 0.71849,-0.483881 0,-0.354509 -0.37188,-0.478993 -1.4309,-0.478993 -2.03309,0 -2.00753,0.199954 -1.20137,-9.398425 0.17111,-2.037293 0.40814,-3.218776 0.66279,-3.30366 0.21804,-0.07268 0.84694,-0.511224 1.39757,-0.974547 0.6677,-0.561828 1.04489,-0.711192 1.13246,-0.448449 0.41461,1.243817 1.67474,-0.277453 1.67474,-2.021795 0,-0.818103 -0.76708,-1.086143 -1.08283,-0.378372 -0.28438,0.637441 0.17882,-3.257482 0.60587,-5.094575 0.40289,-1.733199 0.35014,-2.010484 -0.38248,-2.010484 -0.59245,0 -1.01179,1.229789 -1.40282,4.113965 -0.49914,3.681646 -0.54944,3.820655 -1.5743,4.350632 l -0.95336,0.493001 v -0.974169 c 0,-0.826947 0.14477,-1.003124 0.95798,-1.165766 0.94806,-0.189611 1.26442,-0.595058 0.62945,-0.806712 -0.59721,-0.199071 -0.97111,-4.180089 -0.87945,-9.3639 0.0769,-4.351667 0.16136,-5.091764 0.56933,-4.991293 1.3115,0.322985 1.43605,0.215908 1.53446,-1.319205 0.0835,-1.302437 9.6e-4,-1.556255 -0.57493,-1.769314 -0.61874,-0.228886 -0.58145,-0.292119 0.46708,-0.79213 0.62672,-0.298864 1.30368,-0.903726 1.50434,-1.34414 0.20067,-0.440412 0.48548,-0.80075 0.63292,-0.80075 0.14744,0 0.26807,-0.343871 0.26807,-0.764157 0,-0.845723 0.75448,-1.297436 1.4846,-0.888841 0.41238,0.230776 0.40893,0.316116 -0.0274,0.678267 -1.15066,0.954964 0.0539,1.382483 1.34575,0.477631 0.74924,-0.524796 0.97717,-1.738199 0.3265,-1.738199 -0.29804,0 -0.29804,-0.08516 0,-0.383195 0.69347,-0.693463 0.40484,-0.894059 -1.29328,-0.898827 -2.47058,-0.0069 -4.49115,-1.262694 -2.7282,-1.695536 1.87874,-0.46127 8.75711,-0.876844 9.51393,-0.574809 0.74287,0.296468 0.71261,0.320006 -0.43551,0.338841 -1.20143,0.01971 -3.71576,1.153591 -3.71576,1.675685 0,0.14329 0.72875,0.260527 1.61945,0.260527 1.01081,0 1.79875,0.179291 2.0965,0.477044 0.42317,0.423175 0.25314,0.46825 -1.50571,0.399161 -2.30205,-0.09043 -2.85662,0.445363 -1.11342,1.075714 1.36506,0.49361 0.86768,1.00802 -0.69766,0.721556 -1.1097,-0.203079 -1.36062,0.173706 -0.55882,0.839138 0.29228,0.242574 0.47899,0.942413 0.47899,1.795407 0,1.14585 0.10622,1.397878 0.58916,1.397878 0.70805,0 1.64614,-0.964003 1.64614,-1.691597 0,-0.347471 0.17084,-0.4581 0.50777,-0.328809 0.38539,0.147888 0.49232,0.01079 0.44365,-0.568847 -0.0353,-0.420033 -0.0482,-0.931599 -0.0288,-1.136813 0.0328,-0.346427 1.93504,-1.702518 2.38817,-1.702518 0.44,0 0.16819,0.945213 -0.35702,1.241559 -0.78609,0.443535 -0.19495,0.927974 1.28398,1.052233 0.66229,0.05564 1.16523,0.244869 1.11765,0.4205 -0.0476,0.17563 -0.47356,0.275297 -0.94664,0.221481 -0.54268,-0.06173 -1.1025,0.144515 -1.51681,0.558825 -0.36117,0.361169 -0.87222,0.656672 -1.13566,0.656672 -0.26345,0 -0.479,0.143697 -0.479,0.319328 0,0.175631 0.61072,0.321529 1.35715,0.324218 1.64966,0.0059 1.97028,0.199544 2.37171,1.432089 0.23015,0.706666 0.54027,0.984913 1.18211,1.060627 0.58418,0.06891 0.97104,0.368148 1.17729,0.910615 0.20873,0.54901 0.46766,0.746395 0.80786,0.615847 0.27537,-0.105669 0.56077,-0.192126 0.63422,-0.192126 0.32014,0 0.092,-2.035878 -0.34545,-3.082874 -0.58988,-1.411783 -0.58989,-1.410238 0.0119,-1.179309 0.96263,0.369403 2.70238,-2.019515 2.70238,-3.710772 0,-0.510911 -0.20774,-0.648913 -0.97684,-0.648913 -0.54525,0 -0.89281,-0.135938 -0.78667,-0.307681 0.17497,-0.283102 -0.22391,-0.755702 -1.58365,-1.876343 -1.49578,-1.232765 0.65753,-1.761879 6.38078,-1.567893 5.85688,0.198516 6.55401,0.481598 7.83086,3.179846 1.13762,2.404041 1.48832,3.994094 0.99068,4.49173 -0.51532,0.515323 -0.44598,0.773123 0.25742,0.957066 0.88731,0.232038 1.15752,1.548454 2.21068,10.77037 0.83947,7.350772 0.88394,8.232604 0.45714,9.065292 -0.37143,0.724646 -0.39507,1.093016 -0.11026,1.718112 0.55056,1.208357 0.94025,10.964666 0.99781,24.981384 l 0.0518,12.613475 -1.81162,7.823548 c -2.75087,11.879744 -5.00422,20.687098 -7.67416,29.994908 l -2.42108,8.44023 -0.30826,15.9884 c -1.03954,53.91745 -1.08471,55.51733 -2.08297,73.78684 -0.4835,8.84875 -1.25069,19.02358 -1.60529,21.29035 l -0.18345,1.17266 -2.29126,0.42399 c -1.40817,0.26057 -4.71668,0.42398 -8.58425,0.42398 -5.4792,0 -6.34638,-0.0684 -6.70589,-0.52902 -0.28962,-0.37106 -1.04978,-0.56584 -2.54592,-0.65236 l -2.133,-0.12334 -0.48168,1.22624 c -0.44316,1.12817 -0.53443,1.1933 -1.14131,0.8143 l -0.65962,-0.41194 0.70394,-0.53099 c 0.62678,-0.47278 0.65316,-0.59228 0.24069,-1.09022 -0.38321,-0.46261 -0.45724,-2.1644 -0.42845,-9.84946 0.0359,-9.58645 0.3452,-16.46693 1.40805,-31.3239 0.33923,-4.74202 0.77346,-13.65129 0.96495,-19.79836 0.40207,-12.90785 0.25231,-36.34884 -0.2591,-40.55472 -0.44072,-3.62441 -0.89694,-14.97224 -1.50204,-37.361428 -0.49357,-18.262468 -0.68758,-22.129159 -1.13801,-22.681495 -0.15256,-0.187073 0.0114,-0.943227 0.38081,-1.756307 1.30759,-2.878041 0.98334,-7.495045 -0.52638,-7.495045 -0.45162,0 -0.68603,0.275715 -0.81448,0.957986 -0.17029,0.904459 -0.19397,0.917839 -0.42382,0.239496 -0.1339,-0.395169 -0.37455,-0.718489 -0.53477,-0.718489 -0.50781,0 -1.6098,2.53854 -1.80033,4.147195 -0.12751,1.076648 -0.30806,1.501071 -0.59217,1.392046 -0.7461,-0.286304 -0.8604,1.182521 -0.8339,10.716095 0.0281,10.113101 -0.10874,31.321126 -0.20999,32.540936 -0.0337,0.40553 -0.2049,0.64852 -0.38053,0.53998 -0.69747,-0.43106 -0.9603,0.21686 -0.44313,1.09237 0.46682,0.79026 0.48508,1.33696 0.16474,4.93364 -0.19815,2.22469 -0.35643,7.23946 -0.35174,11.14392 0.006,4.62635 -0.18317,8.8425 -0.54183,12.1045 -0.50231,4.56854 -0.51506,6.1574 -0.14607,18.20173 0.40556,13.23783 0.69982,19.38561 1.31182,27.40636 0.53315,6.98754 2.24035,38.25434 2.24096,41.04249 3.2e-4,1.84727 -0.14402,2.76982 -0.51695,3.30225 -0.48472,0.69203 -0.47482,0.79659 0.15633,1.65026 1.16696,1.5784 0.44137,2.23669 -3.32227,3.01409 -5.83761,1.20579 -12.22776,1.39219 -17.27309,0.50385 z m 10.99961,-0.40635 c 0.23366,-0.23365 1.79877,-0.46153 3.91432,-0.56992 2.59835,-0.13313 3.60278,-0.3036 3.82092,-0.6485 0.37874,-0.59882 0.37657,-1.29831 -0.006,-1.90331 -0.25891,-0.40956 -0.37027,-0.38686 -0.78327,0.15966 -0.42993,0.56893 -0.48253,0.57731 -0.4916,0.0783 -0.0128,-0.70466 -0.18725,-0.7003 -1.23818,0.031 -1.03465,0.71999 -2.75756,1.32618 -3.76921,1.32618 -0.53779,0 -0.75067,-0.18112 -0.75067,-0.63866 0,-0.76633 -1.19878,-0.89556 -1.48117,-0.15967 -0.13927,0.36295 -0.72791,0.479 -2.42957,0.479 -1.76433,0 -2.3367,0.11979 -2.66997,0.55882 -0.39282,0.51748 -0.42496,0.50566 -0.43436,-0.15966 -0.006,-0.39517 -0.0902,-0.71849 -0.18808,-0.71849 -0.6487,0 -3.01536,0.7615 -3.01536,0.97023 0,0.23296 2.10101,1.01518 3.67227,1.36722 1.44306,0.32331 5.47297,0.20472 5.84984,-0.17215 z m 23.52838,-2.48463 c -0.10854,-0.17563 -0.61149,-0.31933 -1.11765,-0.31933 -0.50616,0 -1.0091,0.1437 -1.11765,0.31933 -0.11937,0.19314 0.3223,0.31933 1.11765,0.31933 0.79536,0 1.23702,-0.12619 1.11765,-0.31933 z M 94.051551,57.839731 c 0,-0.175631 -0.494461,-0.319329 -1.098803,-0.319329 -0.604343,0 -1.187614,0.143698 -1.29616,0.319329 -0.11919,0.192852 0.316012,0.319328 1.098804,0.319328 0.712887,0 1.296159,-0.143698 1.296159,-0.319328 z m 37.771089,-3.592446 c 0.20392,-0.567041 -0.11991,-2.559433 -0.49307,-3.03362 -0.33444,-0.424985 -1.45149,-0.525347 -2.28543,-0.205332 -0.76769,0.294587 -0.65699,1.722142 0.13354,1.722142 0.67349,0 0.85933,0.464585 0.31933,0.798321 -0.17563,0.108546 -0.31933,0.404423 -0.31933,0.657504 0,0.588902 2.43491,0.645044 2.64496,0.06098 z m 2.31903,-1.249912 c 0.008,-0.463144 0.20801,-1.075383 0.44466,-1.360528 0.7591,-0.914662 0.0856,-0.926106 -0.7607,-0.01293 -0.96216,1.038184 -1.12285,2.489772 -0.25718,2.323117 0.35883,-0.06908 0.56398,-0.408951 0.57322,-0.949663 z m -30.66993,-2.502197 c -0.10854,-0.175631 -0.83551,-0.319329 -1.61549,-0.319329 -0.77997,0 -1.41813,0.143698 -1.41813,0.319329 0,0.17563 0.72697,0.319328 1.61549,0.319328 0.99568,0 1.53977,-0.122516 1.41813,-0.319328 z m 27.47321,-0.673189 c 0.11752,-0.370255 0.11686,-1.447989 -0.002,-2.394964 -0.20907,-1.673303 -0.56495,-2.176613 -0.90763,-1.283608 -0.32865,0.856452 -0.60727,3.393526 -0.42488,3.868847 0.27089,0.705923 1.08645,0.589592 1.33397,-0.190275 z m 4.6403,-0.615359 c 0.33971,-0.18181 0.61766,-0.469205 0.61766,-0.638657 0,-0.435752 -1.07457,-0.383105 -1.53278,0.0751 -0.8224,0.822405 -0.2394,1.181435 0.91512,0.563557 z m -3.05462,-1.749447 c 0,-0.893501 -0.9353,-0.794483 -1.06375,0.112614 -0.082,0.579204 0.0255,0.721615 0.47899,0.634285 0.33274,-0.06408 0.58476,-0.385985 0.58476,-0.746899 z m 3.67228,-0.30372 c 0,-0.655543 -1.2463,-1.287625 -1.68126,-0.852671 -0.23428,0.234285 -0.21216,0.48384 0.0734,0.827904 0.51881,0.625133 1.60787,0.641911 1.60787,0.02478 z m 2.15707,-5.200322 c 0.0819,-0.248628 -0.17254,-0.39916 -0.67464,-0.39916 -0.83616,0 -1.30649,0.388826 -0.92806,0.767251 0.33605,0.336052 1.45547,0.07896 1.6027,-0.368091 z m 24.58808,-2.075635 c -0.17322,-0.525183 -1.55696,-1.211218 -1.95137,-0.967461 -0.37806,0.233655 0.959,1.366622 1.61281,1.366622 0.25862,0 0.41098,-0.179623 0.33856,-0.399161 z m -25.95654,-2.554628 c -0.29017,-2.121439 -0.6973,-3.207576 -1.10734,-2.954157 -0.81493,0.503652 -0.0494,4.630632 0.85892,4.630632 0.39254,0 0.43683,-0.298961 0.24842,-1.676475 z M 88.87843,35.103544 c 0.998815,-0.998815 -0.09949,-1.231142 -1.257904,-0.266087 l -0.753865,0.628033 0.814287,0.01062 c 0.447859,0.0058 0.986725,-0.161814 1.197482,-0.37257 z m 47.97095,-3.214697 c 0.20378,-0.919066 0.32131,-2.173971 0.26118,-2.788679 -0.0929,-0.949282 -0.24162,-1.132871 -0.98748,-1.218692 -0.48299,-0.05557 -0.87816,-0.207731 -0.87816,-0.338128 0,-0.425495 0.93731,-1.491172 0.94783,-1.07764 0.006,0.219539 0.22571,0.399161 0.48915,0.399161 0.35208,0 0.47899,-0.366636 0.47899,-1.383757 0,-1.540477 -0.22958,-1.962209 -0.80722,-1.482813 -0.28804,0.239059 -0.43785,0.0031 -0.58593,-0.922917 -0.20368,-1.27374 -0.97056,-1.814851 -2.00792,-1.41678 -0.38143,0.146371 -0.34692,0.304872 0.1911,0.877565 0.58456,0.622241 0.65322,1.082013 0.62571,4.19029 -0.0232,2.622022 0.0954,3.729896 0.4764,4.449346 0.27901,0.526892 0.50817,1.257356 0.50926,1.623253 0.002,0.75343 0.2884,1.14906 0.66348,0.917248 0.13921,-0.08604 0.41983,-0.908391 0.62361,-1.827457 z M 93.412894,30.377482 c -0.240836,-0.450007 -0.668617,-0.638657 -1.448213,-0.638657 -0.608528,0 -1.106414,0.06726 -1.106414,0.149466 0,0.267481 1.740924,1.101933 2.326366,1.115063 0.47191,0.01058 0.511211,-0.09718 0.228261,-0.625872 z m 66.108916,-0.57609 c -0.78598,-0.649119 -2.68997,-2.391728 -4.2311,-3.872464 l -2.80205,-2.692248 0.0318,1.095605 c 0.0615,2.117427 0.37712,2.601663 2.37226,3.639829 1.04876,0.545721 2.55348,1.449333 3.34382,2.008026 0.79034,0.558694 1.72437,1.012581 2.07564,1.008637 0.49957,-0.0056 0.32745,-0.264183 -0.7904,-1.187385 z M 89.395172,29.544996 c 0.622626,-0.238924 0.670559,-1.083485 0.06149,-1.083485 -0.243989,0 -0.782856,0.282615 -1.197482,0.628034 -0.751417,0.625993 -0.751617,0.628067 -0.06149,0.638656 0.380804,0.0058 0.919671,-0.0766 1.197482,-0.183205 z m 2.988684,-2.219242 c 0.695217,-0.486948 0.90347,-1.500361 0.515881,-2.510403 -0.318535,-0.830089 -0.679594,-0.576994 -0.907131,0.63588 -0.161606,0.861437 -0.445451,1.238287 -1.158506,1.538104 -0.519449,0.218412 -0.846262,0.495305 -0.726251,0.615316 0.379133,0.379132 1.539551,0.236937 2.276007,-0.278897 z m 2.743148,-3.371501 c 0.61239,-0.874308 0.335205,-1.559983 -0.630625,-1.559983 -0.660436,0 -0.764156,0.151701 -0.764156,1.11765 0,1.296872 0.651517,1.503491 1.394781,0.442333 z m 41.951836,-3.60678 c 0.40756,-0.407565 -0.69582,-0.817312 -2.21423,-0.822269 -1.54549,-0.005 -2.26947,0.480084 -1.49674,1.002929 0.4772,0.322875 3.34715,0.183158 3.71097,-0.18066 z"
     id="path556" />
  <path
     style="fill:#ff8080;stroke-width:0.0564498"
     d="m 136.83307,241.24503 c -3.42636,-0.2024 -6.51193,-0.8546 -7.13327,-1.50777 -0.21099,-0.2218 -0.25172,-0.42939 -0.11171,-0.5694 0.19168,-0.19168 0.47838,-0.1942 1.73258,-0.0152 0.652,0.093 1.62999,0.20823 2.17332,0.25601 1.80449,0.15869 2.22633,0.20497 2.63621,0.2892 0.51509,0.10585 0.78715,0.21938 0.86231,0.35981 0.13078,0.24436 0.82217,0.28866 2.16302,0.13862 1.13554,-0.12707 1.7107,-0.0532 1.98554,0.25516 0.10168,0.11406 0.10393,0.13719 0.0267,0.27471 -0.17709,0.31551 -1.03604,0.4955 -2.57477,0.53956 -0.5225,0.0149 -1.31449,0.006 -1.75998,-0.0206 z"
     id="path558" />
  <path
     style="fill:#ff8080;stroke-width:0.0564498"
     d="m 142.30082,241.02144 c -0.0699,-0.0442 -0.0536,-0.0846 0.0976,-0.24052 0.50973,-0.52591 1.55972,-0.90731 3.5992,-1.30737 1.75626,-0.34451 3.14382,-0.50487 4.41291,-0.50999 0.95852,-0.004 1.0364,0.004 1.18545,0.11474 0.22141,0.165 0.2228,0.26056 0.007,0.50656 -0.2412,0.27543 -1.01946,0.6465 -1.76714,0.84255 -0.48069,0.12605 -0.79077,0.15978 -2.08864,0.22723 -1.71813,0.0893 -1.72531,0.0898 -3.69009,0.28176 -1.60909,0.15718 -1.64019,0.15869 -1.75667,0.085 z"
     id="path560" />
  <path
     style="fill:#ff8080;stroke-width:0.0798321"
     d="m 102.73624,17.054762 c -0.1306,-0.315313 -0.77199,-0.886285 -1.38517,-1.233097 -0.26928,-0.152301 -1.04241,-0.502272 -1.718077,-0.777712 l -1.228481,-0.500801 0.789404,-0.05836 c 0.434172,-0.0321 1.199754,-0.08599 1.701294,-0.119748 0.58475,-0.03936 0.92305,-0.09539 0.94301,-0.156173 0.0198,-0.06022 -0.35646,-0.214851 -1.03163,-0.423999 -1.907723,-0.590948 -1.864027,-0.545464 -0.53092,-0.552642 2.38795,-0.01286 3.5783,0.479472 3.57921,1.480359 4.9e-4,0.542248 -0.68316,2.375194 -0.94664,2.53803 -0.0398,0.02459 -0.11719,-0.06354 -0.172,-0.195852 z"
     id="path562" />
  <path
     style="fill:#ff8080;stroke-width:0.0798321"
     d="m 126.24956,21.419386 c 0.55598,-0.260982 0.99643,-0.663121 0.99643,-0.909763 0,-0.07064 -0.0799,-0.213473 -0.17753,-0.317408 -0.13131,-0.139772 -0.15184,-0.204851 -0.0789,-0.249962 0.0621,-0.0384 0.14192,-0.511331 0.21544,-1.277069 0.0642,-0.668844 0.15681,-1.364851 0.20577,-1.546682 l 0.089,-0.330601 0.25228,0.293675 c 0.35573,0.414105 0.89504,0.624767 1.76859,0.690836 1.06868,0.08083 1.09874,0.122771 0.57143,0.797294 -0.41693,0.533328 -0.53102,0.739098 -0.53102,0.957705 0,0.140486 0.0497,0.164913 0.33529,0.164913 0.26079,0 0.31401,0.02129 0.2395,0.0958 -0.16257,0.162568 -0.10713,0.306145 0.16366,0.42384 l 0.25945,0.112769 -0.2221,0.0031 c -0.52196,0.0073 -1.08486,-0.394053 -1.5846,-1.12995 -0.27389,-0.403322 -0.35262,-0.469349 -0.53456,-0.448317 -0.1871,0.02163 -0.23631,0.09346 -0.39969,0.58349 -0.35636,1.068798 -0.42033,1.221968 -0.66382,1.589567 -0.28739,0.43388 -0.8078,0.766664 -1.19259,0.762613 -0.2536,-0.0027 -0.23372,-0.02102 0.2879,-0.265873 z"
     id="path564" />
  <path
     style="fill:#ff8080;stroke-width:0.0798321"
     d="m 126.41198,15.873718 c -0.0677,-0.213268 0.15468,-1.242384 0.44852,-2.07574 0.62999,-1.786743 1.18961,-2.302733 1.80681,-1.665947 0.46031,0.474922 0.31698,0.772842 -0.61218,1.272474 -0.53781,0.289195 -0.78317,0.671243 -0.88278,1.374595 -0.10838,0.76535 -0.62763,1.512845 -0.76037,1.094618 z"
     id="path566" />
  <path
     style="fill:#ff8080;stroke-width:0.0798321"
     d="m 129.55548,16.119837 c -0.33936,-0.171889 -0.47242,-0.296851 -0.61306,-0.575741 -0.25551,-0.506698 -0.2339,-0.763056 0.0918,-1.088759 0.31856,-0.318561 0.61717,-0.351696 1.06894,-0.118614 0.63168,0.325909 1.36193,1.263984 1.25245,1.608907 -0.13829,0.435715 -1.10009,0.528792 -1.80014,0.174207 z"
     id="path568" />
</svg>
