<?xml version="1.0" encoding="UTF-8" standalone="no"?>
<!-- Created with Inkscape (http://www.inkscape.org/) -->

<svg
   xmlns:dc="http://purl.org/dc/elements/1.1/"
   xmlns:cc="http://creativecommons.org/ns#"
   xmlns:rdf="http://www.w3.org/1999/02/22-rdf-syntax-ns#"
   xmlns:svg="http://www.w3.org/2000/svg"
   xmlns="http://www.w3.org/2000/svg"
   xmlns:sodipodi="http://sodipodi.sourceforge.net/DTD/sodipodi-0.dtd"
   xmlns:inkscape="http://www.inkscape.org/namespaces/inkscape"
   viewBox="0 0 256 256"
   id="svg4206"
   version="1.1"
   inkscape:version="0.92.3 (2405546, 2018-03-11)"
   sodipodi:docname="undershirt.svg">
  <style
     id="style3">
    svg { cursor: default; }
  </style>
  <defs
     id="defs4208" />
  <sodipodi:namedview
     id="base"
     pagecolor="#ffffff"
     bordercolor="#666666"
     borderopacity="1.0"
     inkscape:pageopacity="0.0"
     inkscape:pageshadow="2"
     inkscape:zoom="2.8284272"
     inkscape:cx="60.960307"
     inkscape:cy="163.09508"
     inkscape:document-units="px"
     inkscape:current-layer="layer1"
     showgrid="false"
     units="px"
     inkscape:window-width="1920"
     inkscape:window-height="1018"
     inkscape:window-x="-9"
     inkscape:window-y="-9"
     inkscape:window-maximized="1" />
  <metadata
     id="metadata4211">
    <rdf:RDF>
      <cc:Work
         rdf:about="">
        <dc:format>image/svg+xml</dc:format>
        <dc:type
           rdf:resource="http://purl.org/dc/dcmitype/StillImage" />
        <dc:title />
      </cc:Work>
    </rdf:RDF>
  </metadata>
  <g
     inkscape:groupmode="layer"
     id="layer1"
     inkscape:label="layer 2"
     style="display:inline">
    <path
       id="path914"
       style="display:inline;opacity:1;fill:#ff8080;fill-opacity:1;fill-rule:evenodd;stroke:none;stroke-width:1.51181114;stroke-linecap:round;stroke-linejoin:round;stroke-miterlimit:4;stroke-dasharray:none;stroke-dashoffset:0;stroke-opacity:1;paint-order:normal"
       d="m 190.43703,139.42252 c 0,0 3.6759,-25.34728 6.52342,-46.064409 -5.94768,-4.739076 -35.5693,-13.883022 -14.29652,-84.95052 L 173.60669,5.4446959 C 167.94764,80.993542 101.74975,95.891766 89.3162,5.4606189 L 79.575536,8.1872152 C 100.62507,72.196655 74.109393,87.923632 64.814629,92.597949 c 1.81416,14.262061 7.222179,49.127751 4.407963,52.753651 l 1.668779,14.89874 c -0.617548,12.02567 2.244395,15.59985 -2.1239,32.53393 0.408459,6.94262 -0.346136,14.79744 -0.303451,21.74003 1.06193,8.81763 0.91026,26.90891 0.91026,26.90891 46.95851,14.5798 89.46713,9.28372 125.46226,0.15202 v -16.26702 c 1.29389,-5.35357 -1.6668,-7.70158 -1.8205,-14.13854 2.65008,-22.97724 -0.29034,-29.6198 -1.21359,-31.46977 -0.46263,-10.11321 0.15164,-23.56432 0.15164,-23.56432 m -1.51706,-16.72306 c 0.25256,13.74988 1.52996,5.79509 1.51706,16.7231"
       inkscape:connector-curvature="0"
       sodipodi:nodetypes="ccccccccccccccccccc" />
    <path
       style="display:inline;opacity:1;fill:#ff5555;fill-opacity:1;fill-rule:evenodd;stroke:none;stroke-width:1.51181114;stroke-linecap:round;stroke-linejoin:round;stroke-miterlimit:4;stroke-dasharray:none;stroke-dashoffset:0;stroke-opacity:1;paint-order:normal"
       d="M 168.69145,11.036455 C 145.66244,29.724132 119.18043,35.020204 94.384908,10.667262 105.96312,84.092072 161.98559,79.536781 169.64532,4.1111122"
       id="path926"
       inkscape:connector-curvature="0"
       sodipodi:nodetypes="ccc" />
    <g
       aria-label="WIFE BEATER"
       transform="matrix(0.5503614,0,0,0.56432031,649.29722,-88.744081)"
       style="font-style:normal;font-weight:normal;font-size:40px;line-height:1.25;font-family:sans-serif;letter-spacing:0px;word-spacing:0px;display:inline;fill:#ffe680;fill-opacity:1;stroke:#ffe600;stroke-width:0.67818898;stroke-miterlimit:4;stroke-dasharray:none;stroke-opacity:0"
       id="flowRoot982" />
    <path
       id="path963"
       style="display:inline;opacity:1;fill:#ff9955;fill-opacity:1;fill-rule:evenodd;stroke:none;stroke-width:1.51199996;stroke-linecap:round;stroke-linejoin:round;stroke-miterlimit:4;stroke-dasharray:none;stroke-dashoffset:0;stroke-opacity:1;paint-order:normal"
       d="M 64.814629,92.597953 C 74.109393,87.923636 100.62507,72.196658 79.575536,8.1872171 l -4.739793,1.403556 C 88.435435,48.218169 84.501643,76.731159 64.216244,88.493216 M 186.79604,9.7428014 C 165.828,78.493106 193.69295,84.134305 197.41556,88.493216 v 0 l -0.45511,4.864895 M 64.814629,92.597936 64.216244,88.493183 m 5.325721,148.857647 -0.16767,4.08238 c 46.958495,14.5798 89.467095,9.28372 125.462235,0.15202 l 0.0188,-4.27 c -29.50104,5.78932 -60.4961,18.02182 -125.313365,0.0356 z M 196.96043,93.358111 C 191.01274,88.619035 161.39113,79.475089 182.6639,8.407591 l 4.13211,1.3352104 M 169.65306,4.1177738 c -7.88129,77.6070192 -66.96949,80.1959142 -76.157267,0 v 0 c 35.836167,34.9081822 63.489997,10.2004612 76.157267,0 l 3.95362,1.3269221 C 167.94764,80.993542 101.74975,95.891766 89.3162,5.4606189 l 4.179596,-1.3428484 0.889122,6.5494895 m 0,0 C 119.1825,35.028257 145.6674,29.732983 168.69861,11.043508 l 0.95446,-6.9257375"
       inkscape:connector-curvature="0"
       sodipodi:nodetypes="ccccccccccccccccccccccccccccc" />
    <path
       sodipodi:nodetypes="ccccccccccccccccccccccccccccccccccccc"
       inkscape:connector-curvature="0"
       d="m 69.541965,237.35083 c 45.746745,14.24866 93.047115,9.41811 125.313385,-0.0356 m -4.41832,-97.89267 c 0,0 3.6759,-25.34728 6.52342,-46.064409 l 0.45511,-4.864895 M 182.66393,8.407591 c -21.27278,71.067498 8.34884,80.211444 14.29652,84.95052 M 64.814629,92.597953 C 74.109393,87.923636 100.62507,72.196658 79.575536,8.1872171 m 13.92026,-4.0694433 c 9.187774,80.1959142 68.275984,77.6070192 76.157274,0 m 0,0 17.14297,5.6250276 C 165.828,78.493106 193.69295,84.134305 197.41556,88.493216 m -6.97853,50.929304 c 0.25256,13.74988 1.52996,5.79509 1.51706,16.7231 M 93.495796,4.1177738 c 35.836174,34.9081822 63.490004,10.2004612 76.157274,0 M 64.216244,88.493216 C 84.501643,76.731159 88.435435,48.218169 74.835743,9.5907731 L 93.495796,4.1177738 M 89.3162,5.4606209 c 12.43355,90.4311451 78.63144,75.5329211 84.29049,-0.015933 M 94.384918,10.667256 c 24.797582,24.361 51.282482,19.065718 74.313692,0.376249 m 23.25548,145.102075 c 0,0 -0.61427,13.45111 -0.15164,23.56432 0.92325,1.84997 3.86367,8.49253 1.21359,31.46977 0.1537,6.43696 3.11439,8.78497 1.8205,14.13854 v 16.26702 c -35.99513,9.1317 -78.50375,14.42778 -125.46226,-0.15202 0,0 0.15167,-18.09128 -0.91026,-26.90891 -0.04267,-6.94259 0.71191,-14.79741 0.303451,-21.74003 4.368295,-16.93408 1.506352,-20.50826 2.1239,-32.53393 L 69.222592,145.3516 c 2.814216,-3.6259 -2.593803,-38.49159 -4.407963,-52.753669 l -0.598385,-4.104753"
       style="display:inline;opacity:1;fill:none;fill-opacity:1;fill-rule:evenodd;stroke:#000000;stroke-width:1.51181114;stroke-linecap:round;stroke-linejoin:round;stroke-miterlimit:4;stroke-dasharray:none;stroke-dashoffset:0;stroke-opacity:1;paint-order:normal"
       id="path947" />
    <path
       id="path977"
       style="display:inline;opacity:1;fill:none;fill-opacity:1;fill-rule:evenodd;stroke:#000000;stroke-width:0.75590557;stroke-linecap:round;stroke-linejoin:round;stroke-miterlimit:4;stroke-dasharray:none;stroke-dashoffset:0;stroke-opacity:0.65602872;paint-order:normal"
       d="m 188.30557,216.73674 c 0.78159,-0.56829 3.34941,-41.69228 3.15969,-41.64474 m -19.51375,39.62276 c 4.07158,-2.85522 18.63127,-55.01256 18.37177,-69.38548 M 75.313728,232.69966 c -2.604655,-12.72915 -4.817512,-26.24357 -5.734607,-42.35498 m 1.805332,-10.32267 c 0,0 16.354081,32.77721 69.557987,34.58634 M 70.417818,139.79977 c 0,0 19.223402,60.27519 50.836912,56.0612"
       inkscape:connector-curvature="0"
       sodipodi:nodetypes="cccccccccc" />
  </g>
</svg>
