<?xml version="1.0" encoding="UTF-8" standalone="no"?>
<!-- Created with Inkscape (http://www.inkscape.org/) -->

<svg
   xmlns:dc="http://purl.org/dc/elements/1.1/"
   xmlns:cc="http://creativecommons.org/ns#"
   xmlns:rdf="http://www.w3.org/1999/02/22-rdf-syntax-ns#"
   xmlns:svg="http://www.w3.org/2000/svg"
   xmlns="http://www.w3.org/2000/svg"
   xmlns:sodipodi="http://sodipodi.sourceforge.net/DTD/sodipodi-0.dtd"
   xmlns:inkscape="http://www.inkscape.org/namespaces/inkscape"
   viewBox="0 0 256 256"
   id="svg4206"
   version="1.1"
   inkscape:version="0.92.3 (2405546, 2018-03-11)"
   sodipodi:docname="undershirt_stained.svg">
  <style
     id="style3">
    svg { cursor: default; }
  </style>
  <defs
     id="defs4208" />
  <sodipodi:namedview
     id="base"
     pagecolor="#ffffff"
     bordercolor="#666666"
     borderopacity="1.0"
     inkscape:pageopacity="0.0"
     inkscape:pageshadow="2"
     inkscape:zoom="1.0000001"
     inkscape:cx="-11.899081"
     inkscape:cy="243.5631"
     inkscape:document-units="px"
     inkscape:current-layer="layer1"
     showgrid="false"
     units="px"
     inkscape:window-width="1920"
     inkscape:window-height="1018"
     inkscape:window-x="-9"
     inkscape:window-y="-9"
     inkscape:window-maximized="1"
     showguides="false" />
  <metadata
     id="metadata4211">
    <rdf:RDF>
      <cc:Work
         rdf:about="">
        <dc:format>image/svg+xml</dc:format>
        <dc:type
           rdf:resource="http://purl.org/dc/dcmitype/StillImage" />
        <dc:title />
      </cc:Work>
    </rdf:RDF>
  </metadata>
  <g
     inkscape:groupmode="layer"
     id="layer1"
     inkscape:label="layer 2"
     style="display:inline">
    <path
       id="path914"
       style="display:inline;opacity:1;fill:#ff8080;fill-opacity:1;fill-rule:evenodd;stroke:none;stroke-width:1.51181114;stroke-linecap:round;stroke-linejoin:round;stroke-miterlimit:4;stroke-dasharray:none;stroke-dashoffset:0;stroke-opacity:1;paint-order:normal"
       d="m 190.43703,139.42252 c 0,0 3.6759,-25.34728 6.52342,-46.064409 -5.94768,-4.739076 -35.5693,-13.883022 -14.29652,-84.95052 L 173.60669,5.4446959 C 167.94764,80.993542 101.74975,95.891766 89.3162,5.4606189 L 79.575536,8.1872152 C 100.62507,72.196655 74.109393,87.923632 64.814629,92.597949 c 1.81416,14.262061 7.222179,49.127751 4.407963,52.753651 l 1.668779,14.89874 c -0.617548,12.02567 2.244395,15.59985 -2.1239,32.53393 0.408459,6.94262 -0.346136,14.79744 -0.303451,21.74003 1.06193,8.81763 0.91026,26.90891 0.91026,26.90891 46.95851,14.5798 89.46713,9.28372 125.46226,0.15202 v -16.26702 c 1.29389,-5.35357 -1.6668,-7.70158 -1.8205,-14.13854 2.65008,-22.97724 -0.29034,-29.6198 -1.21359,-31.46977 -0.46263,-10.11321 0.15164,-23.56432 0.15164,-23.56432 m -1.51706,-16.72306 c 0.25256,13.74988 1.52996,5.79509 1.51706,16.7231"
       inkscape:connector-curvature="0"
       sodipodi:nodetypes="ccccccccccccccccccc" />
    <path
       style="display:inline;opacity:1;fill:#ff5555;fill-opacity:1;fill-rule:evenodd;stroke:none;stroke-width:1.51181114;stroke-linecap:round;stroke-linejoin:round;stroke-miterlimit:4;stroke-dasharray:none;stroke-dashoffset:0;stroke-opacity:1;paint-order:normal"
       d="M 168.69145,11.036455 C 145.66244,29.724132 119.18043,35.020204 94.384908,10.667262 105.96312,84.092072 161.98559,79.536781 169.64532,4.1111122"
       id="path926"
       inkscape:connector-curvature="0"
       sodipodi:nodetypes="ccc" />
    <g
       aria-label="WIFE BEATER"
       transform="matrix(0.5503614,0,0,0.56432031,649.29722,-88.744081)"
       style="font-style:normal;font-weight:normal;font-size:40px;line-height:1.25;font-family:sans-serif;letter-spacing:0px;word-spacing:0px;display:inline;fill:#ffe680;fill-opacity:1;stroke:#ffe600;stroke-width:0.67818898;stroke-miterlimit:4;stroke-dasharray:none;stroke-opacity:0"
       id="flowRoot982" />
  </g>
  <g
     inkscape:groupmode="layer"
     id="layer2"
     inkscape:label="layer 4"
     style="display:inline">
    <g
       id="g1041"
       style="opacity:0.5">
      <g
         style="display:inline;stroke-width:0.9668777"
         transform="matrix(1.0587462,0,0,1.0103344,-5.9464817,20.445918)"
         id="g1280">
        <path
           style="display:inline;opacity:1;fill:#ffe680;fill-opacity:1;fill-rule:evenodd;stroke:#ffe680;stroke-width:3.00892353;stroke-linecap:round;stroke-linejoin:round;stroke-miterlimit:4;stroke-dasharray:none;stroke-dashoffset:0;stroke-opacity:1;paint-order:normal"
           d="m 140.3125,87.9375 c 0.23638,2.114174 -5.02346,5.560573 -0.9599,8.59993 2.42367,0.685685 5.86268,-0.135293 2.91159,-4.359632 -0.45839,-0.749083 -1.0476,-4.314144 -1.95169,-4.240298 z"
           id="path1009-1"
           inkscape:connector-curvature="0"
           sodipodi:nodetypes="cccc" />
        <path
           style="display:inline;opacity:1;fill:#ffe680;fill-opacity:1;fill-rule:evenodd;stroke:none;stroke-width:3.00892353;stroke-linecap:round;stroke-linejoin:round;stroke-miterlimit:4;stroke-dasharray:none;stroke-dashoffset:0;stroke-opacity:1;paint-order:normal"
           d="m 132.4043,100.66992 c 3.8e-4,0.2061 0.003,0.68343 9.4e-4,0.19846 z m -1.2793,0.59375 c -1.69918,0.17273 -0.74885,1.85616 -0.98287,3.3742 -2.69095,2.66202 -2.81578,4.62931 -0.59301,5.9632 0.81964,0.93752 2.33963,0.96419 3.14813,0.004 1.37942,-1.48848 1.56674,-3.70907 1.32206,-5.63627 -0.22362,-1.57472 -1.11285,-3.51423 -2.89431,-3.7049 z"
           id="path1096"
           inkscape:connector-curvature="0"
           sodipodi:nodetypes="cccccccccc" />
        <path
           style="display:inline;opacity:1;fill:#ffe680;fill-opacity:1;fill-rule:evenodd;stroke:none;stroke-width:3.00892353;stroke-linecap:round;stroke-linejoin:round;stroke-miterlimit:4;stroke-dasharray:none;stroke-dashoffset:0;stroke-opacity:1;paint-order:normal"
           d="m 137.8125,111.875 c -4.51016,-0.59092 -6.77367,4.03817 -10.13294,5.84499 -4.12371,2.64004 -4.39014,9.80746 -0.004,12.32567 -0.8097,3.06273 3.8615,6.33332 0.18462,7.68874 -1.66844,2.43851 -2.15073,5.35464 -5.39568,6.25081 -3.29334,-0.24737 -8.2989,-0.55029 -8.79798,4.16335 -0.56896,3.31432 2.86482,6.9639 6.21713,5.5249 3.10077,-0.0701 5.02482,3.70764 8.39192,2.7255 1.45676,1.80253 1.60302,5.54711 5.20367,4.64722 3.10279,-0.21621 4.36914,-4.69108 1.53557,-6.25305 -0.008,-2.62427 2.48694,-4.43441 4.95896,-4.04441 3.54095,-0.66685 2.36187,-4.71332 4.06326,-6.48008 2.22157,-0.43922 4.68083,-0.67478 4.84355,2.17434 0.1902,1.45906 -5.48546,0.37498 -5.83929,3.43643 -1.00112,4.07708 4.49537,5.87626 7.59523,4.55549 2.41559,-0.68502 3.78427,-4.23473 1.69363,-6.00572 4.75718,1.16928 8.45774,-5.25068 5.11803,-8.80653 0.33401,-2.66926 0.40667,-7.46916 -3.64847,-6.66935 -3.41993,-0.12487 -1.34423,6.34836 -4.08194,4.71486 -1.57051,-4.69052 -9.50818,-4.22524 -11.15356,0.29902 -0.16056,1.5527 -0.0727,3.66165 -0.92786,1.05979 -3.05865,-2.91872 3.86693,-2.23985 3.39283,-5.68865 1.58191,-2.48754 -3.79577,-5.56114 0.70299,-5.78644 5.38527,-2.02531 6.55692,-10.07735 2.01736,-13.59781 -1.66863,-1.32012 -3.80537,-2.08394 -5.93727,-2.07907 z m -16.89648,23.91602 c -4.46666,-0.32018 -4.98407,7.3868 -0.34458,7.45526 3.74971,-2.4e-4 6.11461,-6.84682 0.34458,-7.45526 z"
           id="path1100"
           inkscape:connector-curvature="0"
           sodipodi:nodetypes="ccccccccccccccccccccccccccccc" />
        <ellipse
           style="display:inline;opacity:1;fill:#ffe680;fill-opacity:1;fill-rule:evenodd;stroke:none;stroke-width:3.00892353;stroke-linecap:round;stroke-linejoin:round;stroke-miterlimit:4;stroke-dasharray:none;stroke-dashoffset:0;stroke-opacity:1;paint-order:normal"
           id="path1128"
           cx="128.2515"
           cy="165.84389"
           rx="3.0935922"
           ry="4.4194174" />
        <ellipse
           style="display:inline;opacity:1;fill:#ffe680;fill-opacity:1;fill-rule:evenodd;stroke:none;stroke-width:3.00892353;stroke-linecap:round;stroke-linejoin:round;stroke-miterlimit:4;stroke-dasharray:none;stroke-dashoffset:0;stroke-opacity:1;paint-order:normal"
           id="path1130"
           cx="121.09204"
           cy="176.36209"
           rx="2.1213202"
           ry="1.8561553" />
        <path
           style="display:inline;opacity:1;fill:#ffe680;fill-opacity:1;fill-rule:evenodd;stroke:none;stroke-width:3.00892353;stroke-linecap:round;stroke-linejoin:round;stroke-miterlimit:4;stroke-dasharray:none;stroke-dashoffset:0;stroke-opacity:1;paint-order:normal"
           d="m 132.28125,174.1875 c -1.45296,1.36442 -2.07973,4.09618 -0.98542,5.77726 0.10324,1.92752 -2.70653,3.18879 -2.0526,5.58358 -0.052,2.79626 2.54702,5.73566 5.48432,4.91169 3.17093,-0.75659 4.71145,-4.73782 3.13852,-7.534 -4.66484,-6.53084 -1.56111,-8.28127 -5.58482,-8.73853 z"
           id="path1132"
           inkscape:connector-curvature="0"
           sodipodi:nodetypes="cccccc" />
        <path
           style="display:inline;opacity:1;fill:#ffe680;fill-opacity:1;fill-rule:evenodd;stroke:none;stroke-width:3.00892353;stroke-linecap:round;stroke-linejoin:round;stroke-miterlimit:4;stroke-dasharray:none;stroke-dashoffset:0;stroke-opacity:1;paint-order:normal"
           d="m 140.65039,161.4082 c -3.52768,-0.0787 -5.39637,4.52121 -3.65591,7.30558 1.69159,1.77882 0.0868,5.82509 3.58278,5.54412 2.79795,-0.39042 1.66556,-3.96253 3.53985,-5.48001 1.73908,-2.66675 -0.0423,-7.32658 -3.46672,-7.36969 z"
           id="path1142"
           inkscape:connector-curvature="0" />
        <path
           style="opacity:1;fill:none;fill-opacity:1;fill-rule:evenodd;stroke:#ffe680;stroke-width:3.00892353;stroke-linecap:round;stroke-linejoin:round;stroke-miterlimit:4;stroke-dasharray:none;stroke-dashoffset:0;stroke-opacity:1;paint-order:normal"
           d="m 139.12326,80.814293 0.252,0.966955"
           id="path1009"
           inkscape:connector-curvature="0"
           sodipodi:nodetypes="cc" />
        <path
           style="display:inline;opacity:1;fill:none;fill-opacity:1;fill-rule:evenodd;stroke:#ffe680;stroke-width:3.00892353;stroke-linecap:round;stroke-linejoin:round;stroke-miterlimit:4;stroke-dasharray:none;stroke-dashoffset:0;stroke-opacity:1;paint-order:normal"
           d="m 112.07653,89.184098 0.002,0.591955"
           id="path1009-5"
           inkscape:connector-curvature="0" />
        <path
           id="path1009-8"
           style="display:inline;opacity:1;fill:#ffe680;fill-opacity:1;fill-rule:evenodd;stroke:#ffe680;stroke-width:3.00892353;stroke-linecap:round;stroke-linejoin:round;stroke-miterlimit:4;stroke-dasharray:none;stroke-dashoffset:0;stroke-opacity:1;paint-order:normal"
           d="m 124.90606,111.22771 c 0.12708,1.91549 -1.38483,3.47593 -3.09309,3.47593 -1.70826,0 -4.53705,-2.21092 -3.09309,-3.47593 1.98527,-1.73923 2.54257,-4.87533 3.09309,-3.47594 0.7862,1.99848 2.98879,1.90389 3.09309,3.47594 z"
           inkscape:connector-curvature="0"
           sodipodi:nodetypes="sssss" />
        <path
           style="display:inline;opacity:1;fill:none;fill-opacity:1;fill-rule:evenodd;stroke:#ffe680;stroke-width:3.00892353;stroke-linecap:round;stroke-linejoin:round;stroke-miterlimit:4;stroke-dasharray:none;stroke-dashoffset:0;stroke-opacity:1;paint-order:normal"
           d="m 144.42557,106.15094 0.002,0.59195"
           id="path1009-6"
           inkscape:connector-curvature="0" />
        <path
           style="display:inline;opacity:1;fill:none;fill-opacity:1;fill-rule:evenodd;stroke:#ffe680;stroke-width:3.00892353;stroke-linecap:round;stroke-linejoin:round;stroke-miterlimit:4;stroke-dasharray:none;stroke-dashoffset:0;stroke-opacity:1;paint-order:normal"
           d="m 107.83279,131.60678 0.002,0.59195"
           id="path1009-0"
           inkscape:connector-curvature="0" />
        <path
           style="display:inline;opacity:1;fill:none;fill-opacity:1;fill-rule:evenodd;stroke:#ffe680;stroke-width:3.00892353;stroke-linecap:round;stroke-linejoin:round;stroke-miterlimit:4;stroke-dasharray:none;stroke-dashoffset:0;stroke-opacity:1;paint-order:normal"
           d="m 147.78432,159.71427 c 6.7e-4,0.19732 0.001,0.39464 0.002,0.59196"
           id="path1009-85"
           inkscape:connector-curvature="0" />
        <path
           style="opacity:1;fill:#ffe680;fill-opacity:1;fill-rule:evenodd;stroke:none;stroke-width:3.00892353;stroke-linecap:round;stroke-linejoin:round;stroke-miterlimit:4;stroke-dasharray:none;stroke-dashoffset:0;stroke-opacity:1;paint-order:normal"
           d="m 144.01563,80.687498 c -96.01042,116.875002 -48.00521,58.437502 0,0 z"
           id="path1199"
           inkscape:connector-curvature="0"
           sodipodi:nodetypes="cc" />
      </g>
      <path
         sodipodi:nodetypes="csc"
         inkscape:connector-curvature="0"
         id="path1298"
         d="m 104.31873,162.03415 c -0.62554,-3.60213 -6.896933,5.86713 -3.55737,9.99851 3.23995,4.00814 10.12726,-3.04157 3.55737,-9.99851 z"
         style="opacity:1;fill:#ffe680;fill-opacity:1;fill-rule:evenodd;stroke:none;stroke-width:3.11199999;stroke-linecap:round;stroke-linejoin:round;stroke-miterlimit:4;stroke-dasharray:none;stroke-dashoffset:0;stroke-opacity:1;paint-order:normal" />
      <path
         sodipodi:nodetypes="ccc"
         inkscape:connector-curvature="0"
         id="path1300"
         d="m 106.05237,179.89867 c 0.79568,-3.10365 -2.49619,-8.2645 -4.63792,-1.0564 -0.93533,1.28796 1.96821,5.7898 4.63792,1.0564 z"
         style="opacity:1;fill:#ffe680;fill-opacity:1;fill-rule:evenodd;stroke:#54e680;stroke-width:0;stroke-linecap:round;stroke-linejoin:round;stroke-miterlimit:4;stroke-dasharray:none;stroke-dashoffset:0;stroke-opacity:1;paint-order:normal" />
    </g>
  </g>
  <g
     inkscape:groupmode="layer"
     id="layer8"
     inkscape:label="layer 3"
     style="display:inline">
    <path
       id="path963"
       style="display:inline;opacity:1;fill:#ff9955;fill-opacity:1;fill-rule:evenodd;stroke:none;stroke-width:1.51199996;stroke-linecap:round;stroke-linejoin:round;stroke-miterlimit:4;stroke-dasharray:none;stroke-dashoffset:0;stroke-opacity:1;paint-order:normal"
       d="M 64.814629,92.597953 C 74.109393,87.923636 100.62507,72.196658 79.575536,8.1872171 l -4.739793,1.403556 C 88.435435,48.218169 84.501643,76.731159 64.216244,88.493216 M 186.79604,9.7428014 C 165.828,78.493106 193.69295,84.134305 197.41556,88.493216 v 0 l -0.45511,4.864895 M 64.814629,92.597936 64.216244,88.493183 m 5.325721,148.857647 -0.16767,4.08238 c 46.958495,14.5798 89.467095,9.28372 125.462235,0.15202 l 0.0188,-4.27 c -29.50104,5.78932 -60.4961,18.02182 -125.313365,0.0356 z M 196.96043,93.358111 C 191.01274,88.619035 161.39113,79.475089 182.6639,8.407591 l 4.13211,1.3352104 M 169.65306,4.1177738 c -7.88129,77.6070192 -66.96949,80.1959142 -76.157267,0 v 0 c 35.836167,34.9081822 63.489997,10.2004612 76.157267,0 l 3.95362,1.3269221 C 167.94764,80.993542 101.74975,95.891766 89.3162,5.4606189 l 4.179596,-1.3428484 0.889122,6.5494895 m 0,0 C 119.1825,35.028257 145.6674,29.732983 168.69861,11.043508 l 0.95446,-6.9257375"
       inkscape:connector-curvature="0"
       sodipodi:nodetypes="ccccccccccccccccccccccccccccc" />
    <path
       sodipodi:nodetypes="ccccccccccccccccccccccccccccccccccccc"
       inkscape:connector-curvature="0"
       d="m 69.541965,237.35083 c 45.746745,14.24866 93.047115,9.41811 125.313385,-0.0356 m -4.41832,-97.89267 c 0,0 3.6759,-25.34728 6.52342,-46.064409 l 0.45511,-4.864895 M 182.66393,8.407591 c -21.27278,71.067498 8.34884,80.211444 14.29652,84.95052 M 64.814629,92.597953 C 74.109393,87.923636 100.62507,72.196658 79.575536,8.1872171 m 13.92026,-4.0694433 c 9.187774,80.1959142 68.275984,77.6070192 76.157274,0 m 0,0 17.14297,5.6250276 C 165.828,78.493106 193.69295,84.134305 197.41556,88.493216 m -6.97853,50.929304 c 0.25256,13.74988 1.52996,5.79509 1.51706,16.7231 M 93.495796,4.1177738 c 35.836174,34.9081822 63.490004,10.2004612 76.157274,0 M 64.216244,88.493216 C 84.501643,76.731159 88.435435,48.218169 74.835743,9.5907731 L 93.495796,4.1177738 M 89.3162,5.4606209 c 12.43355,90.4311451 78.63144,75.5329211 84.29049,-0.015933 M 94.384918,10.667256 c 24.797582,24.361 51.282482,19.065718 74.313692,0.376249 m 23.25548,145.102075 c 0,0 -0.61427,13.45111 -0.15164,23.56432 0.92325,1.84997 3.86367,8.49253 1.21359,31.46977 0.1537,6.43696 3.11439,8.78497 1.8205,14.13854 v 16.26702 c -35.99513,9.1317 -78.50375,14.42778 -125.46226,-0.15202 0,0 0.15167,-18.09128 -0.91026,-26.90891 -0.04267,-6.94259 0.71191,-14.79741 0.303451,-21.74003 4.368295,-16.93408 1.506352,-20.50826 2.1239,-32.53393 L 69.222592,145.3516 c 2.814216,-3.6259 -2.593803,-38.49159 -4.407963,-52.753669 l -0.598385,-4.104753"
       style="display:inline;opacity:1;fill:none;fill-opacity:1;fill-rule:evenodd;stroke:#000000;stroke-width:1.51181114;stroke-linecap:round;stroke-linejoin:round;stroke-miterlimit:4;stroke-dasharray:none;stroke-dashoffset:0;stroke-opacity:1;paint-order:normal"
       id="path947" />
    <path
       id="path977"
       style="display:inline;opacity:1;fill:none;fill-opacity:1;fill-rule:evenodd;stroke:#000000;stroke-width:0.75590557;stroke-linecap:round;stroke-linejoin:round;stroke-miterlimit:4;stroke-dasharray:none;stroke-dashoffset:0;stroke-opacity:0.65602872;paint-order:normal"
       d="m 188.30557,216.73674 c 0.78159,-0.56829 3.34941,-41.69228 3.15969,-41.64474 m -19.51375,39.62276 c 4.07158,-2.85522 18.63127,-55.01256 18.37177,-69.38548 M 75.313728,232.69966 c -2.604655,-12.72915 -4.817512,-26.24357 -5.734607,-42.35498 m 1.805332,-10.32267 c 0,0 16.354081,32.77721 69.557987,34.58634 M 70.417818,139.79977 c 0,0 19.223402,60.27519 50.836912,56.0612"
       inkscape:connector-curvature="0"
       sodipodi:nodetypes="cccccccccc" />
  </g>
</svg>
