<?xml version="1.0" encoding="UTF-8" standalone="no"?>
<!-- Created with Inkscape (http://www.inkscape.org/) -->

<svg
   xmlns:dc="http://purl.org/dc/elements/1.1/"
   xmlns:cc="http://creativecommons.org/ns#"
   xmlns:rdf="http://www.w3.org/1999/02/22-rdf-syntax-ns#"
   xmlns:svg="http://www.w3.org/2000/svg"
   xmlns="http://www.w3.org/2000/svg"
   xmlns:sodipodi="http://sodipodi.sourceforge.net/DTD/sodipodi-0.dtd"
   xmlns:inkscape="http://www.inkscape.org/namespaces/inkscape"
   viewBox="0 0 256 256"
   id="svg4206"
   version="1.1"
   inkscape:version="0.92.3 (2405546, 2018-03-11)"
   sodipodi:docname="undershirt_wife_beater.svg">
  <style
     id="style3">
    svg { cursor: default; }
  </style>
  <defs
     id="defs4208" />
  <sodipodi:namedview
     id="base"
     pagecolor="#ffffff"
     bordercolor="#666666"
     borderopacity="1.0"
     inkscape:pageopacity="0.0"
     inkscape:pageshadow="2"
     inkscape:zoom="2.8284271"
     inkscape:cx="-149.81669"
     inkscape:cy="170.16154"
     inkscape:document-units="px"
     inkscape:current-layer="layer8"
     showgrid="false"
     units="px"
     inkscape:window-width="1920"
     inkscape:window-height="1018"
     inkscape:window-x="-9"
     inkscape:window-y="-9"
     inkscape:window-maximized="1" />
  <metadata
     id="metadata4211">
    <rdf:RDF>
      <cc:Work
         rdf:about="">
        <dc:format>image/svg+xml</dc:format>
        <dc:type
           rdf:resource="http://purl.org/dc/dcmitype/StillImage" />
        <dc:title />
      </cc:Work>
    </rdf:RDF>
  </metadata>
  <g
     inkscape:groupmode="layer"
     id="layer1"
     inkscape:label="layer 2"
     style="display:inline">
    <path
       id="path914"
       style="display:inline;opacity:1;fill:#ff8080;fill-opacity:1;fill-rule:evenodd;stroke:none;stroke-width:1.51181114;stroke-linecap:round;stroke-linejoin:round;stroke-miterlimit:4;stroke-dasharray:none;stroke-dashoffset:0;stroke-opacity:1;paint-order:normal"
       d="m 190.43703,139.42252 c 0,0 3.6759,-25.34728 6.52342,-46.064409 -5.94768,-4.739076 -35.5693,-13.883022 -14.29652,-84.95052 L 173.60669,5.4446959 C 167.94764,80.993542 101.74975,95.891766 89.3162,5.4606189 L 79.575536,8.1872152 C 100.62507,72.196655 74.109393,87.923632 64.814629,92.597949 c 1.81416,14.262061 7.222179,49.127751 4.407963,52.753651 l 1.668779,14.89874 c -0.617548,12.02567 2.244395,15.59985 -2.1239,32.53393 0.408459,6.94262 -0.346136,14.79744 -0.303451,21.74003 1.06193,8.81763 0.91026,26.90891 0.91026,26.90891 46.95851,14.5798 89.46713,9.28372 125.46226,0.15202 v -16.26702 c 1.29389,-5.35357 -1.6668,-7.70158 -1.8205,-14.13854 2.65008,-22.97724 -0.29034,-29.6198 -1.21359,-31.46977 -0.46263,-10.11321 0.15164,-23.56432 0.15164,-23.56432 m -1.51706,-16.72306 c 0.25256,13.74988 1.52996,5.79509 1.51706,16.7231"
       inkscape:connector-curvature="0"
       sodipodi:nodetypes="ccccccccccccccccccc" />
    <path
       style="display:inline;opacity:1;fill:#ff5555;fill-opacity:1;fill-rule:evenodd;stroke:none;stroke-width:1.51181114;stroke-linecap:round;stroke-linejoin:round;stroke-miterlimit:4;stroke-dasharray:none;stroke-dashoffset:0;stroke-opacity:1;paint-order:normal"
       d="M 168.69145,11.036455 C 145.66244,29.724132 119.18043,35.020204 94.384908,10.667262 105.96312,84.092072 161.98559,79.536781 169.64532,4.1111122"
       id="path926"
       inkscape:connector-curvature="0"
       sodipodi:nodetypes="ccc" />
    <g
       aria-label="WIFE BEATER"
       transform="matrix(0.5503614,0,0,0.56432031,649.29722,-88.744081)"
       style="font-style:normal;font-weight:normal;font-size:40px;line-height:1.25;font-family:sans-serif;letter-spacing:0px;word-spacing:0px;display:inline;fill:#ffe680;fill-opacity:1;stroke:#ffe600;stroke-width:0.67818898;stroke-miterlimit:4;stroke-dasharray:none;stroke-opacity:0"
       id="flowRoot982" />
  </g>
  <g
     inkscape:groupmode="layer"
     id="layer8"
     inkscape:label="layer 3"
     style="display:inline">
    <path
       id="path963"
       style="display:inline;opacity:1;fill:#ff9955;fill-opacity:1;fill-rule:evenodd;stroke:none;stroke-width:1.51199996;stroke-linecap:round;stroke-linejoin:round;stroke-miterlimit:4;stroke-dasharray:none;stroke-dashoffset:0;stroke-opacity:1;paint-order:normal"
       d="M 64.814629,92.597953 C 74.109393,87.923636 100.62507,72.196658 79.575536,8.1872171 l -4.739793,1.403556 C 88.435435,48.218169 84.501643,76.731159 64.216244,88.493216 M 186.79604,9.7428014 C 165.828,78.493106 193.69295,84.134305 197.41556,88.493216 v 0 l -0.45511,4.864895 M 64.814629,92.597936 64.216244,88.493183 m 5.325721,148.857647 -0.16767,4.08238 c 46.958495,14.5798 89.467095,9.28372 125.462235,0.15202 l 0.0188,-4.27 c -29.50104,5.78932 -60.4961,18.02182 -125.313365,0.0356 z M 196.96043,93.358111 C 191.01274,88.619035 161.39113,79.475089 182.6639,8.407591 l 4.13211,1.3352104 M 169.65306,4.1177738 c -7.88129,77.6070192 -66.96949,80.1959142 -76.157267,0 v 0 c 35.836167,34.9081822 63.489997,10.2004612 76.157267,0 l 3.95362,1.3269221 C 167.94764,80.993542 101.74975,95.891766 89.3162,5.4606189 l 4.179596,-1.3428484 0.889122,6.5494895 m 0,0 C 119.1825,35.028257 145.6674,29.732983 168.69861,11.043508 l 0.95446,-6.9257375"
       inkscape:connector-curvature="0"
       sodipodi:nodetypes="ccccccccccccccccccccccccccccc" />
    <path
       sodipodi:nodetypes="ccccccccccccccccccccccccccccccccccccc"
       inkscape:connector-curvature="0"
       d="m 69.541965,237.35083 c 45.746745,14.24866 93.047115,9.41811 125.313385,-0.0356 m -4.41832,-97.89267 c 0,0 3.6759,-25.34728 6.52342,-46.064409 l 0.45511,-4.864895 M 182.66393,8.407591 c -21.27278,71.067498 8.34884,80.211444 14.29652,84.95052 M 64.814629,92.597953 C 74.109393,87.923636 100.62507,72.196658 79.575536,8.1872171 m 13.92026,-4.0694433 c 9.187774,80.1959142 68.275984,77.6070192 76.157274,0 m 0,0 17.14297,5.6250276 C 165.828,78.493106 193.69295,84.134305 197.41556,88.493216 m -6.97853,50.929304 c 0.25256,13.74988 1.52996,5.79509 1.51706,16.7231 M 93.495796,4.1177738 c 35.836174,34.9081822 63.490004,10.2004612 76.157274,0 M 64.216244,88.493216 C 84.501643,76.731159 88.435435,48.218169 74.835743,9.5907731 L 93.495796,4.1177738 M 89.3162,5.4606209 c 12.43355,90.4311451 78.63144,75.5329211 84.29049,-0.015933 M 94.384918,10.667256 c 24.797582,24.361 51.282482,19.065718 74.313692,0.376249 m 23.25548,145.102075 c 0,0 -0.61427,13.45111 -0.15164,23.56432 0.92325,1.84997 3.86367,8.49253 1.21359,31.46977 0.1537,6.43696 3.11439,8.78497 1.8205,14.13854 v 16.26702 c -35.99513,9.1317 -78.50375,14.42778 -125.46226,-0.15202 0,0 0.15167,-18.09128 -0.91026,-26.90891 -0.04267,-6.94259 0.71191,-14.79741 0.303451,-21.74003 4.368295,-16.93408 1.506352,-20.50826 2.1239,-32.53393 L 69.222592,145.3516 c 2.814216,-3.6259 -2.593803,-38.49159 -4.407963,-52.753669 l -0.598385,-4.104753"
       style="display:inline;opacity:1;fill:none;fill-opacity:1;fill-rule:evenodd;stroke:#000000;stroke-width:1.51181114;stroke-linecap:round;stroke-linejoin:round;stroke-miterlimit:4;stroke-dasharray:none;stroke-dashoffset:0;stroke-opacity:1;paint-order:normal"
       id="path947" />
    <path
       id="path977"
       style="display:inline;opacity:1;fill:none;fill-opacity:1;fill-rule:evenodd;stroke:#000000;stroke-width:0.75590557;stroke-linecap:round;stroke-linejoin:round;stroke-miterlimit:4;stroke-dasharray:none;stroke-dashoffset:0;stroke-opacity:0.65602872;paint-order:normal"
       d="m 188.30557,216.73674 c 0.78159,-0.56829 3.34941,-41.69228 3.15969,-41.64474 m -19.51375,39.62276 c 4.07158,-2.85522 18.63127,-55.01256 18.37177,-69.38548 M 75.313728,232.69966 c -2.604655,-12.72915 -4.817512,-26.24357 -5.734607,-42.35498 m 1.805332,-10.32267 c 0,0 16.354081,32.77721 69.557987,34.58634 M 70.417818,139.79977 c 0,0 19.223402,60.27519 50.836912,56.0612"
       inkscape:connector-curvature="0"
       sodipodi:nodetypes="cccccccccc" />
    <path
       id="path3414"
       style="opacity:1;fill:none;fill-opacity:1;fill-rule:evenodd;stroke:#ffdd55;stroke-width:3.01200008;stroke-linecap:round;stroke-linejoin:round;stroke-miterlimit:4;stroke-dasharray:none;stroke-dashoffset:0;stroke-opacity:1;paint-order:normal"
       d="m 159.97699,145.68849 c 0,0 7.96334,3.97715 8.14897,6.255 m -8.41146,-0.0924 c 0,0 -0.42661,-16.14186 0.1641,-15.51159 0,0 18.8042,6.1276 0.0984,9.34897 m -12.14226,-8.82375 c 0,0 7.51511,-1.57566 8.36835,-0.17507 m -8.2699,6.96796 c 0.29535,0 7.15413,-0.66528 7.15413,-0.66528 m -7.90893,-7.24808 c 1.4593,3.81735 -1.45394,14.978 0.72198,15.93177 0,0 6.79314,0.56024 7.41667,-0.17507 m -23.10325,-14.84632 c 0.13126,0.10499 9.8094,-1.37769 11.51588,-0.29222 m -5.87135,1.37769 c 0,0 0.98453,12.9555 0.59072,12.9555 m -10.89529,-4.58695 -8.65926,0.87261 m -0.19832,3.80629 c -0.72441,0.48644 2.96472,-11.42751 6.89689,-13.99269 0,0 1.54982,13.59656 3.54546,14.83451 m -22.74111,-14.55843 c 0,0 4.50182,-2.72353 8.67875,-0.44568 m -8.58592,7.52682 c 0.23205,-0.0495 7.65772,-1.13892 7.65772,-1.13892 m -7.40834,7.85741 c 0,0 5.87679,1.50159 7.59397,0.41218 m -8.26103,-15.3012 c 1.96566,3.09604 -1.03048,12.66236 0.66707,14.88906 M 94.191472,136.62528 v 14.70701 c 8.135138,2.31357 13.808398,-8.96723 0.278462,-7.22971 3.176479,-0.1167 14.538086,-8.18623 -0.278462,-7.4773 z m 54.671458,-31.29569 c 0,0 7.1472,-2.1293 8.63232,0.0991 m -8.49311,6.63543 c 0.3713,0 7.00799,-1.03987 7.5185,-0.84182 m -7.79695,-6.93258 c 0.80164,4.72033 -1.56519,15.88381 0.64975,15.30122 0,0 6.77592,0.59422 7.05437,0.24759 m -19.12108,-8.46766 c 0,0 5.43002,-0.7923 6.26541,-0.0495 m -7.0776,-6.04127 c 0,0 7.17041,-0.74277 8.09863,0.0991 m -8.12183,-0.81709 c 0,0 0.60335,14.68224 0.51052,15.3755 m -11.97388,-14.31087 c 0.0928,0 5.73168,-0.22282 7.91296,0.54473 m -7.58809,12.94908 c 0.23206,0 7.10079,-0.94086 7.5417,-0.51996 m -4.0145,-12.50341 -0.18565,12.4539 m -23.76213,-13.12241 c 0,0 3.45758,13.59284 3.45758,14.1623 0,0.56946 4.20015,-13.84042 4.45539,-13.59282 0.25526,0.24758 3.38797,13.86518 3.38797,13.86518 0,0 5.31399,-13.27096 5.47642,-14.48417"
       inkscape:connector-curvature="0" />
  </g>
</svg>
