<?xml version="1.0" encoding="UTF-8" standalone="no"?>
<!-- Created with Inkscape (http://www.inkscape.org/) -->

<svg
   xmlns:dc="http://purl.org/dc/elements/1.1/"
   xmlns:cc="http://creativecommons.org/ns#"
   xmlns:rdf="http://www.w3.org/1999/02/22-rdf-syntax-ns#"
   xmlns:svg="http://www.w3.org/2000/svg"
   xmlns="http://www.w3.org/2000/svg"
   xmlns:sodipodi="http://sodipodi.sourceforge.net/DTD/sodipodi-0.dtd"
   xmlns:inkscape="http://www.inkscape.org/namespaces/inkscape"
   version="1.1"
   viewBox="0 0 256 256"
   id="svg6"
   sodipodi:docname="Dragonslayer.svg"
   inkscape:version="0.92.3 (2405546, 2018-03-11)">
  <defs
     id="defs10" />
  <sodipodi:namedview
     pagecolor="#ffffff"
     bordercolor="#666666"
     borderopacity="1"
     objecttolerance="10"
     gridtolerance="10"
     guidetolerance="10"
     inkscape:pageopacity="0"
     inkscape:pageshadow="2"
     inkscape:window-width="1920"
     inkscape:window-height="1017"
     id="namedview8"
     showgrid="true"
     inkscape:zoom="14.75"
     inkscape:cx="28.059121"
     inkscape:cy="32.210223"
     inkscape:window-x="1912"
     inkscape:window-y="-8"
     inkscape:window-maximized="1"
     inkscape:current-layer="svg6">
    <inkscape:grid
       type="xygrid"
       id="grid817" />
  </sodipodi:namedview>
  <style
     id="style2">svg { cursor: default;}</style>
  <metadata
     id="metadata4">
    <rdf:RDF>
      <cc:Work
         rdf:about="">
        <dc:format>image/svg+xml</dc:format>
        <dc:type
           rdf:resource="http://purl.org/dc/dcmitype/StillImage" />
        <dc:title />
      </cc:Work>
    </rdf:RDF>
  </metadata>
  <path
     style="opacity:1;fill:none;stroke:#000000;stroke-width:1.12856436px;stroke-linecap:butt;stroke-linejoin:miter;stroke-opacity:1"
     d="M 32.901349,205.65911 230.79049,7.279403 254.89754,4.3520966 252.01973,28.476558 54.130613,226.85627 Z"
     id="path953"
     inkscape:connector-curvature="0"
     sodipodi:nodetypes="ccccc" />
  <path
     style="opacity:1;fill:none;stroke:#000000;stroke-width:1.12856436px;stroke-linecap:butt;stroke-linejoin:miter;stroke-opacity:1"
     d="M 36.439568,209.19197 229.83121,15.320897 245.90258,13.369355 243.98404,29.452332 50.592393,223.32342"
     id="path957"
     inkscape:connector-curvature="0"
     sodipodi:nodetypes="ccccc" />
  <path
     style="opacity:1;fill:none;stroke:#000000;stroke-width:1.12856436px;stroke-linecap:butt;stroke-linejoin:miter;stroke-opacity:1"
     d="m 40.937056,204.68334 c 0,0 5.411992,-1.97205 7.764276,-1.24675 3.326675,1.0257 6.044578,3.73951 7.076319,7.06582 0.72962,2.35198 -0.687897,8.31247 -0.687897,8.31247"
     id="path961"
     inkscape:connector-curvature="0"
     sodipodi:nodetypes="cssc" />
  <path
     style="opacity:1;fill:none;stroke:#000000;stroke-width:1.12856436px;stroke-linecap:butt;stroke-linejoin:miter;stroke-opacity:1"
     d="m 37.854858,210.60511 c 0,0 4.411591,-2.12069 6.620399,-2.38893 2.208805,-0.2682 4.861286,-0.54562 6.236686,0.82771 1.375017,1.37372 1.103396,4.02763 0.839721,6.23803 -0.263675,2.21039 -2.374549,6.62834 -2.374549,6.62834"
     id="path963"
     inkscape:connector-curvature="0"
     sodipodi:nodetypes="csssc" />
  <path
     style="opacity:1;fill:none;stroke:#000000;stroke-width:1.12856436px;stroke-linecap:butt;stroke-linejoin:miter;stroke-opacity:1"
     d="M 45.638906,218.3774 9.6590768,254.44645 5.4128465,250.2074 40.493166,215.04007 l 0.899499,-0.90172"
     id="path967"
     inkscape:connector-curvature="0"
     sodipodi:nodetypes="ccccc" />
  <path
     style="opacity:1;fill:none;stroke:#000000;stroke-width:1.12856436px;stroke-linecap:butt;stroke-linejoin:miter;stroke-opacity:1"
     d="m 38.694568,216.84315 2.44687,6.04288"
     id="path973"
     inkscape:connector-curvature="0" />
  <path
     style="opacity:1;fill:none;stroke:#000000;stroke-width:1.12856436px;stroke-linecap:butt;stroke-linejoin:miter;stroke-opacity:1"
     d="m 38.442938,225.59121 -2.44685,-6.04288"
     id="path975"
     inkscape:connector-curvature="0" />
  <path
     style="opacity:1;fill:none;stroke:#000000;stroke-width:1.12856436px;stroke-linecap:butt;stroke-linejoin:miter;stroke-opacity:1"
     d="m 35.744449,228.29639 -2.44686,-6.04287"
     id="path977"
     inkscape:connector-curvature="0" />
  <path
     style="opacity:1;fill:none;stroke:#000000;stroke-width:1.12856436px;stroke-linecap:butt;stroke-linejoin:miter;stroke-opacity:1"
     d="m 30.5991,224.95869 2.44687,6.04288"
     id="path973-9"
     inkscape:connector-curvature="0" />
  <path
     style="opacity:1;fill:none;stroke:#000000;stroke-width:1.12856436px;stroke-linecap:butt;stroke-linejoin:miter;stroke-opacity:1"
     d="m 30.34747,233.70675 -2.446858,-6.0429"
     id="path975-6"
     inkscape:connector-curvature="0" />
  <path
     style="opacity:1;fill:none;stroke:#000000;stroke-width:1.12856436px;stroke-linecap:butt;stroke-linejoin:miter;stroke-opacity:1"
     d="m 27.648982,236.41192 -2.446861,-6.04286"
     id="path977-4"
     inkscape:connector-curvature="0" />
  <path
     style="opacity:1;fill:none;stroke:#000000;stroke-width:1.12856436px;stroke-linecap:butt;stroke-linejoin:miter;stroke-opacity:1"
     d="m 22.503644,233.07421 2.446849,6.04289"
     id="path973-8"
     inkscape:connector-curvature="0" />
  <path
     style="opacity:1;fill:none;stroke:#000000;stroke-width:1.12856436px;stroke-linecap:butt;stroke-linejoin:miter;stroke-opacity:1"
     d="m 22.252003,241.82229 -2.446859,-6.0429"
     id="path975-3"
     inkscape:connector-curvature="0" />
  <path
     style="opacity:1;fill:none;stroke:#000000;stroke-width:1.12856436px;stroke-linecap:butt;stroke-linejoin:miter;stroke-opacity:1"
     d="m 19.553515,244.52745 -2.44685,-6.04288"
     id="path977-5"
     inkscape:connector-curvature="0" />
  <path
     style="opacity:1;fill:none;stroke:#000000;stroke-width:1.12856436px;stroke-linecap:butt;stroke-linejoin:miter;stroke-opacity:1"
     d="m 14.408176,241.18975 2.446848,6.0429"
     id="path973-9-8"
     inkscape:connector-curvature="0" />
  <path
     style="opacity:1;fill:none;stroke:#000000;stroke-width:1.12856436px;stroke-linecap:butt;stroke-linejoin:miter;stroke-opacity:1"
     d="m 14.156536,249.93782 -2.44685,-6.04289"
     id="path975-6-5"
     inkscape:connector-curvature="0" />
  <path
     style="opacity:1;fill:none;stroke:#000000;stroke-width:1.12856436px;stroke-linecap:butt;stroke-linejoin:miter;stroke-opacity:1"
     d="M 11.458056,252.643 9.0112082,246.6001"
     id="path977-4-2"
     inkscape:connector-curvature="0" />
  <path
     style="opacity:1;fill:#ff7f2a;fill-opacity:1;stroke:#000000;stroke-width:0.00541027;stroke-linecap:round;stroke-miterlimit:4;stroke-dasharray:none;stroke-dashoffset:0;stroke-opacity:1;paint-order:stroke markers fill"
     d="m 56.373785,214.7573 c 0.169898,-1.14423 0.278908,-2.59222 0.242356,-3.21775 -0.231919,-3.96192 -4.619325,-8.50513 -8.585051,-8.88989 -0.67965,-0.0659 -1.783467,0.028 -2.859654,0.24336 -0.963997,0.19288 -1.777035,0.33062 -1.806747,0.30607 -0.02995,-0.0242 41.951094,-42.1544 93.290651,-93.62186 L 230,16 l 4.28958,-0.537356 c 2.35928,-0.295555 5.7754,-0.722512 7.5914,-0.948811 l 3.30181,-0.411452 -0.78891,6.364833 c -0.43395,3.500657 -0.85801,6.916276 -0.94244,7.590274 l -0.15348,1.225451 -93.39481,93.632331 c -51.367174,51.49775 -93.494573,93.69761 -93.616529,93.7774 -0.131563,0.0862 -0.09614,-0.70052 0.0872,-1.93532 z"
     id="path830"
     inkscape:connector-curvature="0" />
  <path
     style="opacity:1;fill:#ffe6d5;fill-opacity:1;stroke:#000000;stroke-width:0.00541027;stroke-linecap:round;stroke-miterlimit:4;stroke-dasharray:none;stroke-dashoffset:0;stroke-opacity:1;paint-order:stroke markers fill"
     d="m 52.885688,224.55182 c -1.015325,-0.97723 -1.25155,-1.33798 -1.047207,-1.59809 0.145206,-0.18476 43.580769,-43.7508 96.524099,-96.81279 l 96.26016,-96.476741 1.01624,-8.461261 c 0.55893,-4.653688 0.99589,-8.490237 0.97101,-8.525649 -0.0247,-0.03552 -3.85662,0.398957 -8.51499,0.965281 l -8.46977,1.029677 -0.74362,0.749447 c -0.40906,0.412129 -43.86272,43.97565 -96.56394,96.807596 l -95.820336,96.05811 -1.303466,-1.40409 -1.303532,-1.40401 1.283385,-1.2537 c 0.705887,-0.68947 45.054247,-45.13926 98.551919,-98.77729 L 230.99419,7.924655 236.3665,7.272972 c 2.95476,-0.358434 8.12037,-0.992684 11.47913,-1.409452 3.35874,-0.416766 6.14877,-0.715866 6.20004,-0.66467 0.0511,0.05118 -0.52933,5.264332 -1.29025,11.584731 l -1.38346,11.491632 -98.47802,98.752187 c -54.162908,54.31368 -98.527314,98.75991 -98.587583,98.76929 -0.06021,0.009 -0.699619,-0.55083 -1.42076,-1.24498 z"
     id="path832"
     inkscape:connector-curvature="0" />
  <path
     style="opacity:1;fill:#ffe6d5;fill-opacity:1;stroke:#000000;stroke-width:0.00191283;stroke-linecap:round;stroke-miterlimit:4;stroke-dasharray:none;stroke-dashoffset:0;stroke-opacity:1;paint-order:stroke markers fill"
     d="m 44.008739,215.78742 c -2.740691,-2.73815 -4.981338,-5.01172 -4.977664,-5.05393 0.0091,-0.1017 2.206371,-1.00446 3.513758,-1.44373 l 1.035609,-0.34793 2.033386,-0.18593 c 1.839243,-0.16806 2.094768,-0.17513 2.676875,-0.0766 2.004552,0.33911 2.79508,1.3996 2.86096,3.83785 0.02544,0.94205 -0.256365,3.29198 -0.496284,4.13152 -0.320439,1.1235 -1.480164,4.09875 -1.602029,4.10996 -0.03308,0.003 -2.303125,-2.23418 -5.044591,-4.97155 z"
     id="path834"
     inkscape:connector-curvature="0" />
  <path
     style="opacity:1;fill:#ffe6d5;fill-opacity:1;stroke:#000000;stroke-width:0.00191283;stroke-linecap:round;stroke-miterlimit:4;stroke-dasharray:none;stroke-dashoffset:0;stroke-opacity:1;paint-order:stroke markers fill"
     d="m 50.284181,222.03861 -0.370679,-0.40518 0.338788,-0.7559 c 0.514525,-1.14801 1.282713,-3.18406 1.565429,-4.14914 0.195475,-0.6673 0.285612,-1.15495 0.398431,-2.1554 0.544023,-4.82483 -0.507822,-6.76411 -3.878358,-7.15044 -0.532102,-0.0609 -1.040239,-0.0406 -2.617226,0.10507 -1.873142,0.17303 -1.997257,0.19385 -2.898296,0.48063 -1.040734,0.3315 -2.508704,0.89775 -3.857279,1.4879 l -0.881674,0.38582 -0.380737,-0.4111 -0.380726,-0.4111 1.949001,-1.94551 1.949002,-1.94554 0.737827,-0.23185 c 2.094246,-0.6581 4.183998,-1.06943 5.298591,-1.04291 0.823864,0.0197 1.194962,0.10667 2.092511,0.49075 1.456143,0.62317 2.624775,1.48228 3.743466,2.75195 0.850478,0.96533 1.409137,1.87847 1.841956,3.01104 0.585819,1.53295 0.598374,2.3943 0.08436,5.79017 -0.212138,1.40188 -0.400452,2.44105 -0.463811,2.56019 -0.096,0.18038 -3.702171,3.86022 -3.842099,3.92052 -0.03195,0.0143 -0.224845,-0.15733 -0.428738,-0.38016 z"
     id="path836"
     inkscape:connector-curvature="0" />
  <path
     style="opacity:1;fill:#ffe6d5;fill-opacity:1;stroke:#000000;stroke-width:0.00191283;stroke-linecap:round;stroke-miterlimit:4;stroke-dasharray:none;stroke-dashoffset:0;stroke-opacity:1;paint-order:stroke markers fill"
     d="m 40.45557,219.43359 c -0.537513,-1.32513 -0.982793,-2.44774 -0.989521,-2.4947 -0.0066,-0.047 0.402522,-0.50575 0.909405,-1.01949 l 0.921732,-0.93396 1.196271,1.20135 c 0.657843,0.66085 1.43967,1.45195 1.737658,1.75778 l 0.541897,0.55595 -1.480742,1.48104 c -0.814262,0.81471 -1.565854,1.5665 -1.669873,1.67094 l -0.189226,0.18982 z"
     id="path840"
     inkscape:connector-curvature="0" />
  <path
     style="opacity:1;fill:#ffe6d5;fill-opacity:1;stroke:#000000;stroke-width:0.00191283;stroke-linecap:round;stroke-miterlimit:4;stroke-dasharray:none;stroke-dashoffset:0;stroke-opacity:1;paint-order:stroke markers fill"
     d="M 8.0419175,251.86923 C 7.0899274,250.92236 6.3251,250.11738 6.3424072,250.08028 c 0.07304,-0.15684 2.349995,-2.40568 2.3897762,-2.36016 0.023643,0.0278 0.4826476,1.13471 1.0192283,2.46059 l 0.9755963,2.41069 -0.472167,0.49915 c -0.259495,0.27472 -0.4743524,0.49937 -0.4770116,0.49963 -0.00307,7.5e-4 -0.7848339,-0.77322 -1.7361705,-1.72073 z"
     id="path842"
     inkscape:connector-curvature="0" />
  <path
     style="opacity:1;fill:#ffd42a;fill-opacity:1;stroke:#000000;stroke-width:0.00191283;stroke-linecap:round;stroke-miterlimit:4;stroke-dasharray:none;stroke-dashoffset:0;stroke-opacity:1;paint-order:stroke markers fill"
     d="m 11.669573,251.40712 c -0.03599,-0.0912 -0.486195,-1.20146 -1.000525,-2.46748 L 9.7338846,246.63781 10.559699,245.803 c 0.72988,-0.73708 0.834725,-0.82065 0.90179,-0.7141 0.0417,0.0664 0.500952,1.17559 1.020458,2.46499 l 0.944555,2.34439 -0.81862,0.83467 c -0.450187,0.45909 -0.830943,0.83571 -0.845456,0.83753 -0.01521,7.8e-4 -0.05637,-0.0724 -0.09263,-0.1631 z"
     id="path846"
     inkscape:connector-curvature="0" />
  <path
     style="opacity:1;fill:#ffd42a;fill-opacity:1;stroke:#000000;stroke-width:0.00191283;stroke-linecap:round;stroke-miterlimit:4;stroke-dasharray:none;stroke-dashoffset:0;stroke-opacity:1;paint-order:stroke markers fill"
     d="m 13.431723,246.40585 -1.004277,-2.4875 0.810286,-0.79925 c 0.445982,-0.43928 0.830402,-0.81008 0.855004,-0.8233 0.04792,-0.0257 2.012588,4.78559 1.996999,4.89061 -0.0048,0.0344 -0.379274,0.43266 -0.831495,0.88486 l -0.821925,0.82242 z"
     id="path848"
     inkscape:connector-curvature="0" />
  <path
     style="opacity:1;fill:#ffd42a;fill-opacity:1;stroke:#000000;stroke-width:0.00191283;stroke-linecap:round;stroke-miterlimit:4;stroke-dasharray:none;stroke-dashoffset:0;stroke-opacity:1;paint-order:stroke markers fill"
     d="m 16.132801,243.69034 c -0.647549,-1.59481 -0.959679,-2.46677 -0.909488,-2.54068 0.042,-0.0618 0.420105,-0.45056 0.840181,-0.86368 l 0.763769,-0.75113 0.698706,1.73441 c 0.384289,0.95391 0.834729,2.06926 1.000979,2.47852 l 0.30228,0.74414 -0.804281,0.80875 c -0.442365,0.44482 -0.827192,0.81083 -0.855233,0.81333 -0.02811,0.003 -0.494621,-1.08811 -1.036868,-2.4236 z"
     id="path850"
     inkscape:connector-curvature="0" />
  <path
     style="opacity:1;fill:#ffd42a;fill-opacity:1;stroke:#000000;stroke-width:0.00191283;stroke-linecap:round;stroke-miterlimit:4;stroke-dasharray:none;stroke-dashoffset:0;stroke-opacity:1;paint-order:stroke markers fill"
     d="m 19.152705,241.77817 c -0.376539,-0.92895 -0.828404,-2.04492 -1.004116,-2.47991 l -0.319496,-0.79094 0.835992,-0.82392 c 0.459824,-0.45318 0.849821,-0.80805 0.866647,-0.78865 0.01746,0.0187 0.470716,1.12256 1.008517,2.45146 0.83008,2.05102 0.960524,2.43676 0.863275,2.55254 -0.06321,0.0748 -0.441206,0.45857 -0.840461,0.85235 l -0.725834,0.71601 z"
     id="path852"
     inkscape:connector-curvature="0" />
  <path
     style="opacity:1;fill:#ffd42a;fill-opacity:1;stroke:#000000;stroke-width:0.00191283;stroke-linecap:round;stroke-miterlimit:4;stroke-dasharray:none;stroke-dashoffset:0;stroke-opacity:1;paint-order:stroke markers fill"
     d="m 21.547645,238.32083 c -0.540007,-1.33067 -0.976872,-2.45262 -0.970852,-2.49319 0.0063,-0.0405 0.380581,-0.44092 0.832226,-0.88971 l 0.821188,-0.816 1.003593,2.4859 1.003594,2.48591 -0.810188,0.79927 c -0.445233,0.43994 -0.829905,0.81002 -0.854031,0.82318 -0.02444,0.0132 -0.485655,-1.06481 -1.025641,-2.39548 z"
     id="path854"
     inkscape:connector-curvature="0" />
  <path
     style="opacity:1;fill:#ffd42a;fill-opacity:1;stroke:#000000;stroke-width:0.00191283;stroke-linecap:round;stroke-miterlimit:4;stroke-dasharray:none;stroke-dashoffset:0;stroke-opacity:1;paint-order:stroke markers fill"
     d="m 25.146263,237.81534 c -0.06331,-0.13428 -0.51934,-1.24568 -1.013305,-2.46999 l -0.898128,-2.22599 0.721928,-0.74184 c 0.396794,-0.40832 0.776564,-0.78677 0.842933,-0.84208 0.100163,-0.0826 0.295802,0.33046 1.126172,2.37699 l 1.00502,2.47705 -0.685375,0.68105 c -0.377136,0.37441 -0.752773,0.75014 -0.834565,0.8351 -0.14322,0.14805 -0.153712,0.14441 -0.264472,-0.0901 z"
     id="path856"
     inkscape:connector-curvature="0" />
  <path
     style="opacity:1;fill:#ffd42a;fill-opacity:1;stroke:#000000;stroke-width:0.00191283;stroke-linecap:round;stroke-miterlimit:4;stroke-dasharray:none;stroke-dashoffset:0;stroke-opacity:1;paint-order:stroke markers fill"
     d="m 26.936484,232.8901 -1.002218,-2.48517 0.808239,-0.82425 c 0.444489,-0.45338 0.829778,-0.82463 0.855162,-0.82602 0.04803,-0.002 1.977957,4.74365 1.986656,4.88513 0.0025,0.0434 -0.366612,0.45156 -0.820552,0.90704 l -0.825403,0.8281 z"
     id="path858"
     inkscape:connector-curvature="0" />
  <path
     style="opacity:1;fill:#ffd42a;fill-opacity:1;stroke:#000000;stroke-width:0.00191283;stroke-linecap:round;stroke-miterlimit:4;stroke-dasharray:none;stroke-dashoffset:0;stroke-opacity:1;paint-order:stroke markers fill"
     d="m 29.624469,230.18143 -0.996024,-2.48782 0.824342,-0.82887 c 0.453378,-0.45586 0.843569,-0.80815 0.866975,-0.7829 0.02377,0.025 0.483335,1.13416 1.021887,2.4642 l 0.979224,2.41822 -0.850195,0.85251 -0.850194,0.85249 z"
     id="path860"
     inkscape:connector-curvature="0" />
  <path
     style="opacity:1;fill:#ffd42a;fill-opacity:1;stroke:#000000;stroke-width:0.00191283;stroke-linecap:round;stroke-miterlimit:4;stroke-dasharray:none;stroke-dashoffset:0;stroke-opacity:1;paint-order:stroke markers fill"
     d="m 32.334854,227.49533 c -0.531869,-1.32434 -0.961491,-2.44529 -0.954696,-2.491 0.0067,-0.0458 0.37612,-0.44892 0.820705,-0.896 l 0.808353,-0.81285 0.97425,2.40923 c 0.535822,1.32507 0.97917,2.44862 0.98522,2.49679 0.01084,0.0871 -1.515507,1.6925 -1.614848,1.69858 -0.02853,0.002 -0.487087,-1.08038 -1.018966,-2.40472 z"
     id="path862"
     inkscape:connector-curvature="0" />
  <path
     style="opacity:1;fill:#ffd42a;fill-opacity:1;stroke:#000000;stroke-width:0.00191283;stroke-linecap:round;stroke-miterlimit:4;stroke-dasharray:none;stroke-dashoffset:0;stroke-opacity:1;paint-order:stroke markers fill"
     d="m 35.538979,226.02686 c -0.267446,-0.66115 -0.716192,-1.76453 -0.997219,-2.45198 -0.281048,-0.68744 -0.483674,-1.29197 -0.450306,-1.34336 0.03335,-0.0515 0.408236,-0.43525 0.832973,-0.85305 l 0.772303,-0.75955 0.109424,0.23233 c 0.06023,0.12775 0.513492,1.23384 1.007378,2.45787 l 0.897924,2.22556 -0.450525,0.47969 c -0.247801,0.26382 -0.627202,0.64504 -0.843121,0.84714 l -0.39255,0.3675 z"
     id="path864"
     inkscape:connector-curvature="0" />
  <path
     style="opacity:1;fill:#ffd42a;fill-opacity:1;stroke:#000000;stroke-width:0.00191283;stroke-linecap:round;stroke-miterlimit:4;stroke-dasharray:none;stroke-dashoffset:0;stroke-opacity:1;paint-order:stroke markers fill"
     d="m 37.749383,222.12462 c -0.532739,-1.31852 -0.97262,-2.44401 -0.977516,-2.50112 -0.0044,-0.0571 0.362486,-0.46697 0.816453,-0.91071 l 0.825304,-0.80696 0.989974,2.43956 c 0.895032,2.20554 0.978527,2.45722 0.870611,2.62382 -0.06566,0.10138 -0.442641,0.49217 -0.83777,0.86849 l -0.718434,0.6842 z"
     id="path866"
     inkscape:connector-curvature="0" />
</svg>
