<svg xmlns="http://www.w3.org/2000/svg" viewBox="0 0 7256.693 7256.693"><path d="M3620.532 3275.538c262.973-235.954 457.495-405.25 583.567-509.725 124.28-106.267 250.367-199.93 380.039-279.178 127.879-81.04 270.171-156.69 428.669-226.933 253.966-113.481 506.126-160.304 754.686-145.891 250.351 16.205 480.899 88.255 691.626 217.926 210.743 127.88 381.846 291.784 511.533 491.713 129.671 201.721 205.32 417.87 226.933 648.403 28.826 275.578-23.42 547.557-154.899 815.921-133.286 268.365-326 484.499-581.76 648.403-253.966 163.905-538.535 230.548-851.946 198.122-244.945-25.211-480.9-84.64-706.04-181.901-225.14-97.261-417.856-205.336-574.561-322.402-158.497-118.888-313.396-252.16-462.887-401.666-149.491-151.283-230.547-230.532-244.96-241.345-84.656 84.655-183.709 183.708-298.983 295.383-113.481 113.481-248.56 228.74-403.457 347.628-153.091 117.066-344.014 225.14-569.155 322.402-225.14 97.26-464.694 156.69-716.853 181.901-313.396 32.426-597.98-34.217-851.932-198.122-255.774-163.904-448.489-380.038-581.775-648.403C66.9 4019.41 14.668 3747.431 43.48 3471.853c25.212-234.147 102.668-452.073 232.355-653.81 129.671-199.914 300.79-363.818 511.517-489.905 210.728-126.072 441.275-198.122 691.627-214.327 248.56-14.413 498.927 32.41 749.279 145.891 158.497 70.243 300.79 145.892 428.67 226.933 129.686 79.249 255.758 172.91 380.038 279.178 126.087 104.475 320.61 273.771 583.567 509.725zm-353.02 354.827c-309.796-262.972-558.356-459.302-747.472-588.974-187.323-129.686-367.432-225.14-540.343-284.584-214.327-77.442-408.85-99.054-583.567-66.643-172.91 34.233-322.402 104.475-444.874 214.342-124.28 108.06-214.343 234.147-275.579 376.439-59.429 142.277-88.255 277.37-88.255 407.057 3.6 196.315 68.45 374.632 194.522 534.937 126.088 160.29 286.377 271.964 480.9 340.414 192.73 66.643 383.653 75.65 574.56 30.618 284.585-66.643 502.527-154.898 653.826-266.572 151.283-109.867 410.656-342.222 776.282-697.034zm711.447 0c239.553 235.94 425.07 410.657 554.756 524.123 129.671 113.467 257.55 203.529 385.43 270.172 126.087 68.45 288.184 124.28 484.514 169.311 192.715 45.031 387.238 36.025 579.968-30.618 194.522-68.45 354.812-180.125 480.9-340.414 126.071-160.305 190.922-338.622 194.522-534.937 7.198-171.118-45.032-351.228-154.899-538.551-111.674-187.308-273.77-326.001-486.306-410.657-212.534-86.447-464.694-81.04-756.477 18.013-176.51 63.043-356.62 160.305-543.943 291.783-185.516 131.479-432.269 326.001-738.465 581.775z" fill="#ffd5d5" fill-rule="evenodd"/><path d="M3620.532 3295.04c248.372-222.854 432.094-382.75 551.166-481.425 117.38-100.367 236.467-188.829 358.938-263.677 120.78-76.542 255.172-147.99 404.87-214.333 239.865-107.181 478.024-151.405 712.783-137.792 236.452 15.305 454.199 83.355 653.226 205.827 199.042 120.779 360.645 275.583 483.132 464.412 122.471 190.52 193.92 394.67 214.333 612.402 27.225 260.278-22.12 517.156-146.298 770.62-125.886 253.464-307.901 457.598-549.46 612.402-239.865 154.804-508.635 217.747-804.645 187.122-231.345-23.811-454.198-79.94-666.839-171.802-212.64-91.86-394.655-193.935-542.66-304.501-149.697-112.288-295.995-238.159-437.186-379.365-141.191-142.883-217.747-217.732-231.36-227.945-79.955 79.955-173.509 173.509-282.382 278.983-107.181 107.18-234.76 216.04-381.057 328.327-144.591 110.566-324.914 212.64-537.554 304.501-212.64 91.861-438.893 147.99-677.052 171.802-295.995 30.625-564.78-32.318-804.63-187.122-241.574-154.803-423.589-358.938-549.475-612.402-124.178-253.464-173.508-510.342-146.297-770.62 23.811-221.147 96.967-426.973 219.453-617.509 122.472-188.814 284.09-343.618 483.117-462.705 199.028-119.072 416.775-187.122 653.227-202.427 234.759-13.613 471.225 30.61 707.677 137.792 149.697 66.342 284.09 137.791 404.869 214.332 122.486 74.85 241.558 163.31 358.938 263.678 119.086 98.675 302.808 258.57 551.166 481.424zm-333.42 335.126c-292.595-248.372-527.354-433.801-705.97-556.273-176.923-122.486-347.032-212.64-510.342-268.784-202.427-73.142-386.15-93.554-551.167-62.943-163.31 32.332-304.501 98.675-420.174 202.441-117.38 102.06-202.441 221.147-260.278 355.539-56.129 134.377-83.354 261.97-83.354 384.457 3.4 185.414 64.65 353.831 183.722 505.235 119.086 151.39 270.476 256.864 454.198 321.514 182.03 62.943 362.353 71.45 542.66 28.918 268.785-62.943 474.626-146.298 617.524-251.771 142.884-103.767 387.856-323.221 733.182-658.333zm671.946 0c226.253 222.839 401.47 387.856 523.955 495.022 122.472 107.167 243.251 192.229 364.03 255.172 119.087 64.65 272.184 117.38 457.613 159.91 182.015 42.531 365.738 34.025 547.767-28.918 183.722-64.65 335.112-170.124 454.199-321.514 119.072-151.404 180.322-319.82 183.722-505.235 6.8-161.618-42.53-331.727-146.298-508.65-105.474-176.909-258.57-307.901-459.305-387.857-200.735-81.647-438.893-76.54-714.477 17.013-166.71 59.543-336.819 151.404-513.742 275.583-175.216 124.179-408.268 307.9-697.464 549.474z" fill="#f55" fill-rule="evenodd" stroke="#1b1918" stroke-width="28.346"/></svg>