<svg xmlns="http://www.w3.org/2000/svg" xmlns:xlink="http://www.w3.org/1999/xlink" cursor="default" version="1.1" viewBox="0 0 256 256">
    <defs>
        <linearGradient id="linearGradient2818" x1="464.209" x2="464.209" y1="568.429" y2="638.795" gradientTransform="rotate(-53.164 -57.338 288.797) scale(.59308)" gradientUnits="userSpaceOnUse" xlink:href="#InnoGrad1"/>
        <linearGradient id="InnoGrad1">
            <stop offset="0" stop-color="#000" stop-opacity="1"/>
            <stop offset="1" stop-color="#000" stop-opacity="0"/>
        </linearGradient>
        <linearGradient id="linearGradient2171" x1="207.807" x2="207.807" y1="620.012" y2="652.999" gradientTransform="rotate(-53.164 -57.338 288.797) scale(.59308)" gradientUnits="userSpaceOnUse" xlink:href="#InnoGrad1"/>
        <linearGradient id="linearGradient2459" x1="277.436" x2="277.436" y1="598.798" y2="627.545" gradientTransform="rotate(-53.164 -57.338 288.797) scale(.59308)" gradientUnits="userSpaceOnUse" xlink:href="#InnoGrad1"/>
        <linearGradient id="linearGradient2194-1" x1="523.595" x2="523.595" y1="634.211" y2="603.255" gradientTransform="rotate(-53.164 -89.341 304.81) scale(.59308)" gradientUnits="userSpaceOnUse" xlink:href="#InnoGrad1"/>
        <radialGradient id="radialGradient2289" cx="379.365" cy="699.495" r="4.994" fx="379.365" fy="699.495" gradientTransform="matrix(.76805 -.99045 2.06915 1.60453 -1543.252 -628.995)" gradientUnits="userSpaceOnUse" xlink:href="#InnoGrad2"/>
        <linearGradient id="InnoGrad2">
            <stop offset="0" stop-color="#faa" stop-opacity="1"/>
            <stop offset="1" stop-color="#faa" stop-opacity="0"/>
        </linearGradient>
        <linearGradient id="linearGradient2436" x1="544.912" x2="544.912" y1="596.537" y2="551.594" gradientTransform="rotate(-53.164 -30.856 332.868) scale(.59308)" gradientUnits="userSpaceOnUse" xlink:href="#InnoGrad1"/>
        <linearGradient id="linearGradient2434" x1="618.891" x2="618.891" y1="594.095" y2="551.902" gradientTransform="rotate(-53.164 -30.856 332.868) scale(.59308)" gradientUnits="userSpaceOnUse" xlink:href="#InnoGrad1"/>
        <linearGradient id="linearGradient2484" x1="90.397" x2="90.397" y1="547.898" y2="559.139" gradientTransform="rotate(-53.164 -66.467 207.883) scale(.59308)" gradientUnits="userSpaceOnUse" spreadMethod="repeat" xlink:href="#InnoGrad1"/>
        <linearGradient id="linearGradient2582" x1="376.578" x2="376.578" y1="602.498" y2="628.134" gradientTransform="rotate(-53.164 -57.338 288.797) scale(.59308)" gradientUnits="userSpaceOnUse" spreadMethod="repeat" xlink:href="#InnoGrad1"/>
        <linearGradient id="linearGradient2582-8" x1="376.578" x2="376.578" y1="602.498" y2="628.134" gradientTransform="rotate(-53.164 -83.453 236.606) scale(.59308)" gradientUnits="userSpaceOnUse" spreadMethod="repeat" xlink:href="#InnoGrad1"/>
        <linearGradient id="linearGradient2582-8-9" x1="376.578" x2="376.578" y1="615.129" y2="636.845" gradientTransform="rotate(-53.164 -75.332 252.837) scale(.59308)" gradientUnits="userSpaceOnUse" spreadMethod="repeat" xlink:href="#InnoGrad1"/>
        <linearGradient id="linearGradient2879" x1="277.433" x2="277.433" y1="653.221" y2="689.807" gradientTransform="rotate(-53.164 -57.338 288.797) scale(.59308)" gradientUnits="userSpaceOnUse" spreadMethod="repeat" xlink:href="#InnoGrad1"/>
        <linearGradient id="linearGradient2871" x1="262.657" x2="262.657" y1="589.187" y2="607.262" gradientTransform="rotate(-53.164 -57.338 288.797) scale(.59308)" gradientUnits="userSpaceOnUse" spreadMethod="repeat" xlink:href="#InnoGrad1"/>
        <radialGradient id="radialGradient3009" cx="297.369" cy="563.99" r="13.994" fx="297.369" fy="563.99" gradientTransform="matrix(.54142 -.72277 .60013 .44954 -389.863 103.542)" gradientUnits="userSpaceOnUse" xlink:href="#InnoGrad3"/>
        <linearGradient id="InnoGrad3">
            <stop offset="0" stop-color="#ff4240" stop-opacity="1"/>
            <stop offset="1" stop-color="#ff4240" stop-opacity="0"/>
        </linearGradient>
        <radialGradient id="radialGradient2289-4" cx="379.365" cy="699.495" r="4.994" fx="379.365" fy="699.495" gradientTransform="matrix(.76805 -.99045 2.06915 1.60453 -1547.483 -623.344)" gradientUnits="userSpaceOnUse" xlink:href="#InnoGrad2"/>
        <radialGradient id="radialGradient2289-49" cx="379.365" cy="699.495" r="4.994" fx="379.365" fy="699.495" gradientTransform="matrix(.76805 -.99045 2.06915 1.60453 -1551.714 -617.693)" gradientUnits="userSpaceOnUse" xlink:href="#InnoGrad2"/>
        <linearGradient id="linearGradient1030" x1="-25.977" x2="-15.163" y1="209.583" y2="216.986" gradientTransform="translate(83.883 -37.494)" gradientUnits="userSpaceOnUse" spreadMethod="repeat" xlink:href="#InnoGrad1"/>
        <linearGradient id="linearGradient1032" x1="-37.953" x2="-31.444" y1="216.689" y2="228.159" gradientTransform="translate(83.883 -37.494)" gradientUnits="userSpaceOnUse" spreadMethod="repeat" xlink:href="#InnoGrad1"/>
        <linearGradient id="linearGradient1034" x1="-43.407" x2="-29.092" y1="235.555" y2="238.37" gradientTransform="translate(83.883 -37.494)" gradientUnits="userSpaceOnUse" spreadMethod="repeat" xlink:href="#InnoGrad1"/>
        <linearGradient id="linearGradient1036" x1="-19.215" x2="-18.345" y1="198.666" y2="207.662" gradientTransform="translate(83.883 -37.494)" gradientUnits="userSpaceOnUse" spreadMethod="repeat" xlink:href="#InnoGrad1"/>
    </defs>
    <path fill="#f95" fill-rule="evenodd" stroke="#000" stroke-linecap="square" stroke-opacity="1" stroke-width=".356" d="M49.383 193.31s11.915-19.8 14.577-22.083c1.523-1.304 3.671-2.138 5.671-2.001 2.768.19 5.502 1.792 7.397 3.817 1.222 1.308 2.035 3.138 2.14 4.925.09 1.56-.42 3.235-1.357 4.486l-15.427 20.595z"/>
    <path fill="url(#linearGradient1030)" fill-opacity="1" fill-rule="evenodd" stroke="#000" stroke-linecap="square" stroke-opacity="1" stroke-width=".356" d="M49.383 193.31s11.915-19.8 14.577-22.083c1.523-1.304 3.671-2.138 5.671-2.001 2.768.19 5.502 1.792 7.397 3.817 1.222 1.308 2.035 3.138 2.14 4.925.09 1.56-.42 3.235-1.357 4.486l-15.427 20.595z" opacity=".6"/>
    <path fill="#ffb380" fill-rule="evenodd" stroke="#000" stroke-linecap="square" stroke-opacity="1" stroke-width=".356" d="M129.568 95.991l10.588-14.136-1.424-1.067 3.223-4.303 1.425 1.067 25.817-34.465 9.967 7.467-39.63 52.904z"/>
    <path fill="#ff2a2a" fill-rule="evenodd" stroke="#000" stroke-linecap="square" stroke-opacity="1" stroke-width=".356" d="M110.642 199.919l12.937-17.273 7.78 5.827-12.938 17.273z"/>
    <path fill="#f95" fill-rule="evenodd" stroke="#000" stroke-linecap="square" stroke-opacity="1" stroke-width=".356" d="M150.664 49.638l9.805-13.089 8.727 6.54-9.805 13.089z"/>
    <path fill="#ffe680" fill-rule="evenodd" stroke="#000" stroke-linecap="square" stroke-opacity="1" stroke-width=".356" d="M153.228 151.459l3.737-4.991s-.01 1.065.251 1.5c.685 1.137 2.006 1.77 3.166 2.415 1.339.744 3.264.498 4.295 1.63.213.234.313.604.254.915-.06.31-.307.586-.576.752-1.055.65-2.416.672-3.655.69-1.318.02-2.675-.151-3.906-.62-1.32-.504-3.567-2.292-3.567-2.292z"/>
    <path fill="#abc837" fill-rule="evenodd" stroke="#000" stroke-linecap="square" stroke-opacity="1" stroke-width=".356" d="M179.165 50.554l36.733 27.518-46.006 61.416s2.957 2.16 3.748 3.717c.72 1.421.906 2.86.583 4.42-.26 1.267-.997 2.414-1.771 3.448l-8.161 10.896-1.9-1.422 9.585-12.796c.79-1.055.215-2.786-.44-3.932-1.178-2.06-3.402-3.66-5.695-4.267-1.326-.35-3.257-.584-4.079.513l-9.6 12.817-31.803-23.823z"/>
    <path fill="url(#linearGradient2818)" fill-opacity="1" fill-rule="evenodd" stroke="#000" stroke-linecap="square" stroke-opacity="1" stroke-width=".356" d="M179.165 50.554l36.733 27.518-46.006 61.416s2.957 2.16 3.748 3.717c.72 1.421.906 2.86.583 4.42-.26 1.267-.997 2.414-1.771 3.448l-8.161 10.896-1.9-1.422 9.585-12.796c.79-1.055.215-2.786-.44-3.932-1.178-2.06-3.402-3.66-5.695-4.267-1.326-.35-3.257-.584-4.079.513l-9.6 12.817-31.803-23.823z"/>
    <path fill="#abc837" fill-rule="evenodd" stroke="#000" stroke-linecap="square" stroke-opacity="1" stroke-width=".356" d="M196.691 6.384l2.087-2.787 1.424 1.067 1.144-1.527 51.158 38.321-1.143 1.528 1.423 1.066-20.08 26.81c-1.155 1.54-1.502 3.602-1.705 5.516-.253 2.404.587 4.806.646 7.222.034 1.328.64 2.92-.157 3.982l-13.868 18.513c-.737.984-2.184 1.157-3.353 1.532-2.522.809-5.391.416-7.8 1.515-2.274 1.038-5.905 4.624-5.905 4.624l-7.305-5.47 9.601-12.817 6.17 4.622c.917.688 3.855.619 4.453-.179l10.666-14.24c.733-.98-.41-3.462-1.253-4.093l-6.17-4.622-.827 1.103-48.125-36.05 27.494-36.704z"/>
    <path fill="#000" fill-rule="evenodd" stroke="#000" stroke-linecap="square" stroke-opacity="1" stroke-width=".356" d="M196.691 6.384l2.087-2.787 1.424 1.067 1.144-1.527 51.158 38.321-1.143 1.528 1.423 1.066-20.08 26.81c-1.155 1.54-1.502 3.602-1.705 5.516-.253 2.404.587 4.806.646 7.222.034 1.328.64 2.92-.157 3.982l-13.868 18.513c-.737.984-2.184 1.157-3.353 1.532-2.522.809-5.391.416-7.8 1.515-2.274 1.038-5.905 4.624-5.905 4.624l-7.305-5.47 9.601-12.817 6.17 4.622c.917.688 3.855.619 4.453-.179l10.666-14.24c.733-.98-.41-3.462-1.253-4.093l-6.17-4.622-.827 1.103-48.125-36.05 27.494-36.704z" opacity=".4"/>
    <path fill="url(#linearGradient2171)" fill-opacity="1" fill-rule="evenodd" stroke="#000" stroke-linecap="square" stroke-opacity="1" stroke-width=".356" d="M109.93 200.868l14.362-19.17 7.778 5.826-14.361 19.17z"/>
    <path fill="#abc837" fill-rule="evenodd" stroke="#000" stroke-linecap="square" stroke-opacity="1" stroke-width=".356" d="M66.635 231.185l60.71-81.045 22.494 16.85-18.047 24.09-7.402-5.544-2.19 2.921 7.402 5.544-2.077 2.774-7.402-5.544-2.238 2.987 7.403 5.544-2.03 2.709-7.402-5.544-2.243 2.994 7.402 5.545-14.82 19.785zm96.997-180.668l2.087-2.786 9.967 7.466-2.086 2.786zm-4.22 5.633l2.086-2.785 9.97 7.466-2.088 2.786zm-1.251-16.454l1.033-1.38 8.698 6.512-1.033 1.38zm-2.102 2.805l1.034-1.38 8.699 6.512-1.035 1.38z"/>
    <path fill="#abc837" fill-rule="evenodd" stroke="#000" stroke-linecap="square" stroke-opacity="1" stroke-width=".356" d="M153.959 45.306l1.034-1.38 8.698 6.511-1.034 1.381zm-2.192 2.927l1.034-1.381 8.698 6.512-1.034 1.381z"/>
    <path fill="#f95" fill-rule="evenodd" stroke="#000" stroke-linecap="square" stroke-opacity="1" stroke-width=".356" d="M188.89 13.832l3.199-4.272 22.494 16.85-24.318 32.46-22.492-16.849 2.982-3.981 15.848 11.871 18.134-24.207z"/>
    <path fill="#ff2a2a" fill-rule="evenodd" stroke="#000" stroke-linecap="square" stroke-opacity="1" stroke-width=".356" d="M170.755 38.04l18.134-24.208 15.848 11.872-18.134 24.208z"/>
    <path fill="#f95" fill-rule="evenodd" stroke="#000" stroke-linecap="square" stroke-opacity="1" stroke-width=".356" d="M192.09 9.56l3.176-4.243 22.495 16.85-3.177 4.242zm22.43 23.473l3.201-4.273 22.493 16.85-24.316 32.461-6.646-4.978-15.847-11.872 2.981-3.981 15.848 11.871 18.135-24.207z"/>
    <path fill="#ff2a2a" fill-rule="evenodd" stroke="#000" stroke-linecap="square" stroke-opacity="1" stroke-width=".356" d="M196.387 57.241l18.134-24.208 15.848 11.872-18.133 24.208z"/>
    <path fill="#f95" fill-rule="evenodd" stroke="#000" stroke-linecap="square" stroke-opacity="1" stroke-width=".356" d="M198.472 54.458l3.339-4.455 14.424 10.804-3.338 4.456zm5.375-7.174l3.338-4.457 14.424 10.805-3.338 4.455zm5.292-7.066l3.34-4.457 14.423 10.805-3.338 4.456zm8.582-11.458l3.177-4.243 22.494 16.85-3.178 4.243z"/>
    <path fill="#ff7f2a" fill-rule="evenodd" stroke="#000" stroke-linecap="square" stroke-opacity="1" stroke-width=".356" d="M207.568 83.503l2.27-3.032 2.73 2.046-2.27 3.031zm-3.241 4.327l2.271-3.032 2.73 2.045-2.271 3.032z"/>
    <path fill="#abc837" fill-rule="evenodd" stroke="#000" stroke-linecap="square" stroke-opacity="1" stroke-width=".356" d="M176.052 131.264l17.205-22.968 14.426 10.805-10.175 13.582c-1.974 2.636-6.678 2.766-10.199 2.76-4.71-.009-11.256-4.179-11.256-4.179z"/>
    <path fill="#ff2a2a" fill-rule="evenodd" stroke="#000" stroke-linecap="square" stroke-opacity="1" stroke-width=".356" d="M187.913 115.431l3.338-4.456 11.792 8.834-3.338 4.455zm-4.356 5.816l3.339-4.457 11.791 8.834-3.338 4.456zm-4.162 5.556l3.338-4.455 11.792 8.833s-2.973 1.271-4.524 1.272c-1.755.002-4.203-.853-5.654-1.94z"/>
    <path fill="#f95" fill-rule="evenodd" stroke="#000" stroke-linecap="square" stroke-opacity="1" stroke-width=".356" d="M169.426 63.555l9.739-13 25.816 19.338-9.738 13zm-4.364 5.827l3.201-4.274L201.2 89.781l-19.008 25.374-32.935-24.672 2.981-3.98 27.24 20.405 2.133-2.849-27.237-20.401 3.2-4.273 27.238 20.401 2.132-2.847-27.236-20.401 3.2-4.273 27.238 20.401 2.157-2.88z"/>
    <path fill="#ffe680" fill-rule="evenodd" stroke="#000" stroke-linecap="square" stroke-opacity="1" stroke-width=".356" d="M90.363 204.662l6.537-8.73 20.022 15-6.538 8.727z"/>
    <path fill="url(#linearGradient2459)" fill-opacity="1" fill-rule="evenodd" stroke="#000" stroke-linecap="square" stroke-opacity="1" stroke-width=".356" d="M66.635 231.185l60.71-81.045 22.494 16.85-18.047 24.09-7.402-5.544-2.19 2.921 7.402 5.544-2.077 2.774-7.402-5.544-2.238 2.987 7.403 5.544-2.03 2.709-7.402-5.544-2.243 2.994 7.402 5.545-14.82 19.785z"/>
    <path fill="#f95" fill-rule="evenodd" stroke="#000" stroke-dasharray="none" stroke-linecap="square" stroke-miterlimit="4" stroke-opacity="1" stroke-width=".356" d="M77.3 165.768l52.268-69.777 9.967 7.467 8.316-11.102 25.817 19.339-60.584 80.877z"/>
    <path fill="#ff7f2a" fill-rule="evenodd" stroke="#000" stroke-linecap="square" stroke-opacity="1" stroke-width=".356" d="M138.568 158.548l7.604-10.152 32.57 24.398-7.605 10.152z"/>
    <path fill="#ffe680" fill-rule="evenodd" stroke="#000" stroke-linecap="square" stroke-opacity="1" stroke-width=".356" d="M140.767 157.973l6.539-8.728 2.959 2.217-6.538 8.728zm4.384 3.284l6.539-8.728 4.383 3.283-6.539 8.728zm5.608 4.2l6.539-8.727 4.382 3.283-6.537 8.728zm5.808 4.35l6.538-8.727 4.383 3.283-6.538 8.729zm5.72 4.286l6.539-8.727 4.384 3.283-6.539 8.729zm5.534 4.145l6.538-8.727 4.384 3.282-6.538 8.73z"/>
    <path fill="#ff7f2a" fill-rule="evenodd" stroke="#000" stroke-linecap="square" stroke-opacity="1" stroke-width=".356" d="M128.588 177.296l12.583-16.798 29.967 22.447-2.983 3.981c-1.497 2-13.26 1.547-19.642.088-7.204-1.646-19.925-9.719-19.925-9.719z"/>
    <path fill="#f95" fill-rule="evenodd" stroke="#000" stroke-linecap="square" stroke-opacity="1" stroke-width=".356" d="M42.955 244.812l4.851-22.302 37.828-50.499 18.696 14.004-50.273 67.113z"/>
    <path fill="#f00" fill-opacity="1" fill-rule="evenodd" stroke="#000" stroke-linecap="square" stroke-opacity="1" stroke-width=".356" d="M99.657 144.848l9.737-13 10.153 7.605-9.738 13z"/>
    <path fill="#abc837" fill-rule="evenodd" stroke="#000" stroke-linecap="square" stroke-opacity="1" stroke-width=".356" d="M155.165 61.82l2.087-2.786 9.967 7.466-2.086 2.787z"/>
    <path fill="#f95" fill-rule="evenodd" stroke="#000" stroke-linecap="square" stroke-opacity="1" stroke-width=".356" d="M136.245 81.108l4.271-5.703 1.44 1.08-3.223 4.303 1.425 1.067-15.982 21.334-7.12-5.332 1.066-1.425 5.696 4.268 13.868-18.513z"/>
    <path fill="#f95" fill-rule="evenodd" stroke="#000" stroke-linecap="square" stroke-opacity="1" stroke-width=".356" d="M136.076 72.08l16.013-21.374 7.303 5.472-16.012 21.374z"/>
    <path fill="#ffb380" fill-rule="evenodd" stroke="#000" stroke-linecap="square" stroke-opacity="1" stroke-width=".356" d="M137.143 70.656l6.538-8.728 5.987 4.485-6.537 8.728zm7.349-9.811l6.538-8.727 5.988 4.485-1.082 1.446 1.316.985-2.087 2.787-1.318-.985-3.368 4.494z"/>
    <path fill="#f95" fill-rule="evenodd" stroke="#000" stroke-linecap="square" stroke-opacity="1" stroke-width=".356" d="M131.625 75.66l18.272-24.392 1.133.85-18.272 24.39z"/>
    <path fill="#ffb380" fill-rule="evenodd" stroke="#000" stroke-linecap="square" stroke-opacity="1" stroke-width=".356" d="M132.15 71.607l3.339-4.456 1.608 1.205-3.339 4.456zm7.394-9.87l2.627-3.506 1.609 1.204-2.628 3.507zm-23.03 33.491l13.867-18.513 1.423 1.067 4.273-5.702 4.44 3.327-4.273 5.702 1.44 1.078-13.868 18.513z"/>
    <path fill="#f95" fill-rule="evenodd" stroke="#000" stroke-linecap="square" stroke-opacity="1" stroke-width=".356" d="M122.914 86.683l1.205-1.609 7.303 5.473-1.205 1.609z"/>
    <path fill="#ffb380" fill-rule="evenodd" stroke="#000" stroke-linecap="square" stroke-opacity="1" stroke-width=".356" d="M102.87 122.346l16.849-22.495 4.456 3.34-40.317 53.82-.75-5.008 20.266-27.056z"/>
    <path fill="#ff7f2a" fill-rule="evenodd" stroke="#000" stroke-linecap="square" stroke-opacity="1" stroke-width=".356" d="M100.67 122.92l17.916-23.918 1.133.85-16.85 22.494.507 2.601-14.934 19.936.496-3.333 12.09-16.139z"/>
    <path fill="#ffb380" fill-rule="evenodd" stroke="#000" stroke-linecap="square" stroke-opacity="1" stroke-width=".356" d="M90.17 130.617l25.383-33.886 3.033 2.271-17.917 23.918.358 2.49-12.09 16.14z"/>
    <path fill="url(#linearGradient2194-1)" fill-opacity="1" fill-rule="evenodd" stroke="#000" stroke-linecap="square" stroke-opacity="1" stroke-width=".356" d="M170.755 38.04l18.134-24.208 15.848 11.872-18.134 24.208z"/>
    <path fill="#f95" fill-rule="evenodd" stroke="#000" stroke-linecap="square" stroke-opacity="1" stroke-width=".356" d="M172.84 35.257l3.339-4.456 14.424 10.805-3.338 4.456zm5.374-7.173l3.339-4.457 14.424 10.805-3.338 4.455zm5.295-7.067l3.337-4.456 14.424 10.805-3.338 4.456z"/>
    <path fill="#000" fill-opacity="1" fill-rule="evenodd" stroke="#000" stroke-linecap="square" stroke-opacity="1" stroke-width=".356" d="M217.721 28.76l22.495 16.85-24.318 32.461-22.493-16.85z" opacity=".6"/>
    <path fill="#000" fill-rule="evenodd" stroke="#000" stroke-linecap="square" stroke-opacity="1" stroke-width=".356" d="M217.721 28.76l3.178-4.242 22.493 16.85-3.177 4.242z" opacity=".4"/>
    <path fill="url(#radialGradient2289)" fill-opacity="1" fill-rule="evenodd" d="M184.72 116.162l6.845-9.172 14.838 11.155-6.846 9.171z"/>
    <path fill="#000" fill-rule="evenodd" stroke="#000" stroke-linecap="square" stroke-opacity="1" stroke-width=".356" d="M136.245 81.108l4.271-5.703 1.44 1.08-3.223 4.303 1.424 1.067-15.981 21.334-7.12-5.333 1.065-1.424 5.697 4.267 13.868-18.512z" opacity=".4"/>
    <path fill="#bcd35f" fill-rule="evenodd" stroke="#000" stroke-linecap="square" stroke-opacity="1" stroke-width=".356" d="M162.907 72.264l2.155-2.882 27.236 20.401-2.153 2.883zm-5.333 7.12l2.132-2.848 27.238 20.402-2.132 2.848zm-5.337 7.119l2.138-2.847 27.236 20.403-2.136 2.846z"/>
    <path fill="url(#linearGradient2436)" fill-opacity="1" fill-rule="evenodd" stroke="#000" stroke-linecap="square" stroke-opacity="1" stroke-width=".356" d="M188.89 13.832l3.199-4.272 22.494 16.85-24.318 32.46-22.492-16.849 2.982-3.981 15.848 11.871 18.134-24.207z"/>
    <path fill="url(#linearGradient2434)" fill-opacity="1" fill-rule="evenodd" stroke="#000" stroke-linecap="square" stroke-opacity="1" stroke-width=".356" d="M192.09 9.56l3.176-4.243 22.495 16.85-3.177 4.242z"/>
    <path fill="url(#linearGradient2484)" fill-opacity="1" fill-rule="evenodd" d="M47.227 248.012l8.647-19.458 37.828-50.498 10.627 7.96-50.272 67.112z" opacity=".6"/>
    <path fill="#abc837" fill-rule="evenodd" stroke="#000" stroke-linecap="square" stroke-opacity="1" stroke-width=".356" d="M22.377 203.434s.523-1.313.735-1.944c1.313-3.911 1.14-7.945.804-12.058-.336-4.087-2.38-12.069-2.38-12.069l7.603-1.081s2.918 8.228 3.403 12.528c.511 4.552.135 9.205-.563 13.733-.355 2.293-1.823 6.718-1.823 6.718z"/>
    <path fill="#f95" fill-rule="evenodd" stroke="#000" stroke-linecap="square" stroke-opacity="1" stroke-width=".356" d="M23.215 200.193l27.15-15.973 6.832 11.048-27.287 16.156c-1.348.799-3.35.701-4.7-.095-2.177-1.287-3.61-4.048-3.798-6.569-.121-1.632.393-3.737 1.803-4.567z"/>
    <path fill="url(#linearGradient1032)" fill-opacity="1" fill-rule="evenodd" stroke="#000" stroke-linecap="square" stroke-opacity="1" stroke-width=".356" d="M23.215 200.193l27.15-15.973 6.832 11.048-27.287 16.156c-1.348.799-3.35.701-4.7-.095-2.177-1.287-3.61-4.048-3.798-6.569-.121-1.632.393-3.737 1.803-4.567z" opacity=".6"/>
    <path fill="#abc837" fill-rule="evenodd" stroke="#000" stroke-linecap="square" stroke-opacity="1" stroke-width=".356" d="M4.417 174.432s4.527-4.921 6.33-7.717c2.797-4.336 5.323-8.951 6.854-13.879 1.06-3.412 1.5-7.038 1.533-10.61.027-3.036-.671-6.036-1.14-9.034-.128-.819-.492-1.615-.456-2.444.01-.266.058-.555.213-.772.226-.319.575-.617.963-.668.205-.029.417.088.587.208.586.416.956 1.08 1.353 1.679 1.288 1.94 2.521 3.961 3.309 6.152.954 2.66 1.452 5.499 1.651 8.32.24 3.385.002 6.82-.558 10.168-.518 3.093-1.336 6.168-2.57 9.052-1.153 2.7-2.837 5.15-4.463 7.594-1.795 2.697-5.827 7.779-5.827 7.779z"/>
    <path fill="#abc837" fill-opacity="1" fill-rule="evenodd" stroke="#000" stroke-linecap="square" stroke-opacity="1" stroke-width=".356" d="M28.676 204.678a.927.927 0 0 1 .187 1.298.927.927 0 0 1-1.298.186.927.927 0 0 1-.185-1.298.927.927 0 0 1 1.296-.186zm43.087-26.913a1.039 1.039 0 0 1 .208 1.453 1.039 1.039 0 0 1-1.453.208 1.039 1.039 0 0 1-.208-1.453 1.039 1.039 0 0 1 1.453-.208z" opacity="1"/>
    <path fill="#f95" fill-rule="evenodd" stroke="#000" stroke-linecap="square" stroke-opacity="1" stroke-width=".356" d="M39.268 239.23l13.494-73.656c.326-1.78 2.687-2.706 4.45-3.11 2.853-.655 6.205-.189 8.67 1.389 1.708 1.092 3.756 3.053 3.391 5.045l-13.495 73.657c-.282 1.54-1.062 3.337-2.487 3.985-4.018 1.826-9.918.985-13.072-2.1-1.26-1.235-1.27-3.474-.951-5.21z" opacity="1"/>
    <path fill="url(#linearGradient1034)" fill-opacity="1" fill-rule="evenodd" stroke="#000" stroke-linecap="square" stroke-opacity="1" stroke-width=".356" d="M39.268 239.23l13.494-73.656c.326-1.78 2.687-2.706 4.45-3.11 2.853-.655 6.205-.189 8.67 1.389 1.708 1.092 3.756 3.053 3.391 5.045l-13.495 73.657c-.282 1.54-1.062 3.337-2.487 3.985-4.018 1.826-9.918.985-13.072-2.1-1.26-1.235-1.27-3.474-.951-5.21z" opacity=".6"/>
    <path fill="#abc837" fill-opacity="1" fill-rule="evenodd" stroke="#000" stroke-linecap="square" stroke-opacity="1" stroke-width=".356" d="M48.935 237.73a1.15 1.15 0 0 1 .23 1.609 1.15 1.15 0 0 1-1.608.23 1.15 1.15 0 0 1-.23-1.608 1.15 1.15 0 0 1 1.607-.23z" opacity="1"/>
    <path fill="#f95" fill-rule="evenodd" stroke="#000" stroke-linecap="square" stroke-opacity="1" stroke-width=".285" d="M60.835 177.553l-51.918 4.915c-1.444.137-3.674-1.265-4.354-2.547-1.099-2.072-1.433-4.764-.723-7 .491-1.548 3.159-3.632 4.774-3.79l51.37-5.05c1.25-.123 2.804.13 3.6 1.1 2.248 2.73 2.822 7.473 1.087 10.554-.695 1.233-2.428 1.685-3.836 1.818z" opacity="1"/>
    <path fill="url(#linearGradient1036)" fill-opacity="1" fill-rule="evenodd" stroke="#000" stroke-linecap="square" stroke-opacity="1" stroke-width=".285" d="M60.835 177.553l-51.918 4.915c-1.444.137-3.674-1.265-4.354-2.547-1.099-2.072-1.433-4.764-.723-7 .491-1.548 3.159-3.632 4.774-3.79l51.37-5.05c1.25-.123 2.804.13 3.6 1.1 2.248 2.73 2.822 7.473 1.087 10.554-.695 1.233-2.428 1.685-3.836 1.818z" opacity=".6"/>
    <path fill="#abc837" fill-opacity="1" fill-rule="evenodd" stroke="#000" stroke-linecap="square" stroke-opacity="1" stroke-width=".356" d="M60.727 169.868a1.186 1.186 0 0 1 .238 1.661 1.186 1.186 0 0 1-1.661.238 1.186 1.186 0 0 1-.238-1.66 1.186 1.186 0 0 1 1.661-.239z" opacity="1"/>
    <path fill="url(#linearGradient2582-8)" fill-opacity="1" fill-rule="evenodd" d="M178.92 70.667l9.737-13.001 16.324 12.227-9.739 13.001z" opacity=".6"/>
    <path fill="url(#linearGradient2582-8-9)" fill-opacity="1" fill-rule="evenodd" d="M164.445 101.86l19.007-25.374 17.747 13.295-19.007 25.374z" opacity=".6"/>
    <path fill="url(#linearGradient2879)" fill-opacity="1" fill-rule="evenodd" stroke="#000" stroke-linecap="square" stroke-opacity="1" stroke-width=".356" d="M131.57 173.316l9.6-12.817 29.97 22.446-.003.002c-1.498 2-13.26 1.547-19.643.088-7.203-1.645-19.924-9.72-19.924-9.72z" opacity=".6"/>
    <path fill="#f95" fill-rule="evenodd" stroke="#000" stroke-linecap="square" stroke-opacity="1" stroke-width=".356" d="M129.568 95.991l1.108-1.48 8.544 6.4 7.207-9.62 1.425 1.065-8.316 11.102zm18.265-6.577l2.982-3.981 1.423 1.07-2.983 3.98zm5.118-6.827l3.2-4.271 1.423 1.068-3.2 4.272zm5.333-7.12l3.2-4.272 1.423 1.069-3.2 4.272z"/>
    <path fill="url(#radialGradient3009)" fill-opacity="1" fill-rule="evenodd" d="M94.677 145.562l14.004-18.696 15.848 11.872-14.004 18.696z"/>
    <path fill="url(#radialGradient2289-4)" fill-opacity="1" fill-rule="evenodd" d="M180.488 121.812l6.846-9.17 14.838 11.155-6.846 9.17z"/>
    <path fill="url(#radialGradient2289-49)" fill-opacity="1" fill-rule="evenodd" d="M176.256 127.464l6.847-9.17 14.838 11.154-6.845 9.17z"/>
    <path fill="#fca" fill-opacity="1" fill-rule="evenodd" stroke="#000" stroke-dasharray="none" stroke-linecap="square" stroke-miterlimit="4" stroke-opacity="1" stroke-width=".356" d="M139.535 103.458l8.316-11.102 25.817 19.34-8.316 11.102zm-18.627 4.076l4.33-5.771 35.784 26.806-4.319 5.768z"/>
    <path fill="url(#linearGradient2582)" fill-opacity="1" fill-rule="evenodd" d="M96.76 180.346l60.585-80.878 16.323 12.228-60.585 80.878z" opacity=".6"/>
    <path fill="#ffb380" fill-opacity="1" fill-rule="evenodd" stroke="#000" stroke-linecap="square" stroke-opacity="1" stroke-width=".356" d="M109.399 167.545l9.547-12.745 16.97 12.711-9.547 12.746z"/>
    <path fill="url(#linearGradient2871)" fill-opacity="1" fill-rule="evenodd" stroke="#000" stroke-linecap="square" stroke-opacity="1" stroke-width=".356" d="M109.399 167.545l9.547-12.745 16.97 12.711-9.547 12.746z" opacity=".6"/>
</svg>
