<?xml version="1.0" encoding="UTF-8" standalone="no"?>
<svg
   xmlns:dc="http://purl.org/dc/elements/1.1/"
   xmlns:cc="http://creativecommons.org/ns#"
   xmlns:rdf="http://www.w3.org/1999/02/22-rdf-syntax-ns#"
   xmlns:svg="http://www.w3.org/2000/svg"
   xmlns="http://www.w3.org/2000/svg"
   xmlns:sodipodi="http://sodipodi.sourceforge.net/DTD/sodipodi-0.dtd"
   xmlns:inkscape="http://www.inkscape.org/namespaces/inkscape"
   version="1.1"
   viewBox="0 0 64 64"
   id="svg835"
   sodipodi:docname="crest_of_blaiddyd copy.svg"
   inkscape:version="1.1-dev (ddb55ca, 2020-02-02)">
  <metadata
     id="metadata841">
    <rdf:RDF>
      <cc:Work
         rdf:about="">
        <dc:format>image/svg+xml</dc:format>
        <dc:type
           rdf:resource="http://purl.org/dc/dcmitype/StillImage" />
        <dc:title />
      </cc:Work>
    </rdf:RDF>
  </metadata>
  <defs
     id="defs839" />
  <sodipodi:namedview
     pagecolor="#ffffff"
     bordercolor="#666666"
     borderopacity="1"
     objecttolerance="10"
     gridtolerance="10"
     guidetolerance="10"
     inkscape:pageopacity="0"
     inkscape:pageshadow="2"
     inkscape:window-width="1084"
     inkscape:window-height="682"
     id="namedview837"
     showgrid="false"
     inkscape:zoom="1.0355106"
     inkscape:cx="-14.955253"
     inkscape:cy="14.912227"
     inkscape:window-x="41"
     inkscape:window-y="35"
     inkscape:window-maximized="0"
     inkscape:current-layer="svg835" />
  <circle
     id="path840"
     style="fill:#0000ff;stroke:#000000;fill-opacity:1"
     cx="27.742577"
     cy="42.249702"
     r="0.0031588955" />
  <circle
     id="path844"
     style="fill:#0000ff;stroke:#000000"
     cx="23.208054"
     cy="34.218075"
     r="0.0031588955" />
  <path
     inkscape:connector-curvature="0"
     id="path854"
     d="m 32.170828,60.917626 c -0.113693,-0.175665 -0.264205,-2.094073 -0.334471,-4.263131 l -0.127756,-3.94374 -3.449413,-0.946368 C 26.36201,51.243883 24.319196,50.637149 23.719601,50.416085 18.534265,48.504326 11.139876,42.855237 11.139876,40.805557 c 0,-0.715089 0.232597,-0.940017 2.52598,-2.44266 1.458376,-0.955541 2.804477,-1.655044 3.184912,-1.655044 1.181494,0 1.635529,1.762185 0.613033,2.379283 -0.316197,0.190829 -1.130472,0.695039 -1.809501,1.120464 l -1.234599,0.773499 1.106843,1.35381 c 1.278271,1.563492 3.323535,3.060356 4.181561,3.060356 0.410668,0 1.077622,-0.546914 2.181154,-1.788585 1.62635,-1.829934 2.504581,-2.230072 3.252681,-1.48197 0.518087,0.518086 0.36418,0.849537 -1.354214,2.9164 -0.913456,1.098691 -1.660829,2.071089 -1.660829,2.160878 0,0.247042 4.280578,2.175655 5.859276,2.639898 0.763298,0.22446 1.882166,0.408109 2.486376,0.408109 1.213427,0 1.181235,0.05208 1.500321,-2.427365 0.09043,-0.702659 0.345327,-1.479707 0.566447,-1.726777 0.370253,-0.413699 0.437958,-0.416704 0.856436,-0.03799 0.280611,0.253951 0.517059,0.963225 0.618237,1.85453 0.262738,2.314562 0.277558,2.337599 1.503903,2.337599 1.382909,0 2.933619,-0.46771 6.059481,-1.827599 l 2.480445,-1.079107 -1.767025,-2.155247 c -1.827456,-2.228958 -1.978326,-2.545417 -1.46041,-3.063332 0.73868,-0.738681 1.599646,-0.344229 3.234684,1.48197 1.113246,1.243404 1.782621,1.788585 2.196032,1.788585 0.861132,0 2.904774,-1.494864 4.185919,-3.061876 l 1.108085,-1.355333 -0.724816,-0.444819 C 50.43164,40.288587 49.616807,39.78627 49.019547,39.416979 47.89475,38.721505 47.686078,38.158842 48.198122,37.20208 c 0.493861,-0.92279 1.469223,-0.611911 4.654107,1.483419 1.652249,1.08701 1.724707,1.177578 1.724707,2.155753 0,0.904653 -0.182083,1.210833 -1.596951,2.685355 -2.601351,2.711027 -7.560312,5.774273 -11.817435,7.299854 -0.983722,0.352527 -2.967135,0.903455 -4.407584,1.224286 l -2.619,0.583329 v 3.807243 c 0,2.135803 -0.11612,4.024216 -0.264501,4.30147 -0.297528,0.555935 -1.381837,0.66741 -1.700637,0.174837 z m 3.653228,-16.182237 c -0.08526,-0.222183 -0.155017,-0.970718 -0.155017,-1.663417 0,-1.895386 0.80414,-3.321683 2.969953,-5.267768 2.86344,-2.572938 3.723925,-4.865901 2.904485,-7.739666 -0.467135,-1.638229 -0.515513,-1.648066 -2.519686,-0.512373 -1.0118,0.573351 -1.962162,0.966732 -2.111913,0.874183 -0.420192,-0.259695 -0.05302,-1.558302 0.775737,-2.74361 1.311383,-1.875573 1.282043,-2.055517 -0.506005,-3.103463 -0.86683,-0.508036 -1.690231,-0.947686 -1.829779,-0.976999 -0.139545,-0.02931 -0.687305,1.153998 -1.217239,2.62958 -0.529932,1.475583 -1.04831,2.682877 -1.151946,2.682877 -0.103636,0 -0.605163,-1.167233 -1.114506,-2.593852 -0.50934,-1.426619 -1.017439,-2.615057 -1.129102,-2.640974 -0.441589,-0.10249 -3.500057,1.680555 -3.50081,2.040925 -4.35e-4,0.210797 0.458991,1.130641 1.02096,2.044097 1.003199,1.630658 1.308927,2.810633 0.728225,2.810633 -0.161602,0 -1.091546,-0.459922 -2.066542,-1.022048 -0.974995,-0.562127 -1.807624,-1.022049 -1.850287,-1.022049 -0.30724,0 -0.899135,2.32145 -0.897094,3.518463 0.0036,2.140706 0.81751,3.688057 2.899869,5.513367 1.803702,1.58105 2.807993,3.048814 3.074107,4.492787 0.179402,0.973445 -0.04398,2.572646 -0.359363,2.572646 -0.111539,0 -0.511318,-0.526452 -0.888399,-1.169893 -0.377081,-0.643438 -1.838993,-2.384244 -3.248694,-3.868453 -3.103633,-3.267675 -3.889017,-4.736479 -3.863937,-7.226235 0.0092,-0.913456 0.261896,-2.478089 0.561545,-3.47696 0.299648,-0.998874 0.544815,-1.934827 0.544815,-2.079896 0,-0.14507 -1.078054,-1.590774 -2.395675,-3.212676 -1.317621,-1.621902 -2.651078,-3.362163 -2.963238,-3.867247 -0.54357,-0.879516 -0.557214,-1.6719 -0.02879,-1.6719 0.137282,0 1.86006,1.316644 3.828396,2.925874 l 3.578791,2.925874 2.807156,-1.377704 c 1.569486,-0.770276 2.979844,-1.641257 3.198828,-1.975468 0.470791,-0.718518 0.789453,-3.604117 1.200178,-10.8680066 0.21311,-3.7689302 0.406878,-5.5138559 0.633144,-5.701642 0.609933,-0.5061976 0.799929,0.5740008 0.969416,5.5114173 0.175603,5.1155713 0.701332,9.6893813 1.241635,10.8021233 0.222697,0.458641 1.20766,1.127857 3.182912,2.162576 l 2.860417,1.498404 3.438698,-2.823967 c 1.953221,-1.604046 3.670173,-2.823968 3.974534,-2.823968 0.294708,0 0.535832,0.06505 0.535832,0.144553 0,0.37411 -0.767711,1.453264 -3.237078,4.550291 -2.992982,3.753731 -2.864224,3.287556 -1.879046,6.803201 1.036628,3.699253 0.21174,6.006203 -3.434579,9.605413 -1.329138,1.311968 -2.666813,2.87817 -2.97261,3.480453 -0.305799,0.60228 -0.757884,1.353673 -1.00464,1.669759 -0.379264,0.485833 -0.472616,0.512235 -0.60366,0.170738 z"
     style="fill:#ff8080;stroke:#ffb380;stroke-width:0.255512;fill-opacity:1" />
</svg>
