<?xml version="1.0" encoding="UTF-8" standalone="no"?>
<svg
   xmlns:dc="http://purl.org/dc/elements/1.1/"
   xmlns:cc="http://creativecommons.org/ns#"
   xmlns:rdf="http://www.w3.org/1999/02/22-rdf-syntax-ns#"
   xmlns:svg="http://www.w3.org/2000/svg"
   xmlns="http://www.w3.org/2000/svg"
   xmlns:sodipodi="http://sodipodi.sourceforge.net/DTD/sodipodi-0.dtd"
   xmlns:inkscape="http://www.inkscape.org/namespaces/inkscape"
   version="1.1"
   viewBox="0 0 64 64"
   id="svg2329"
   sodipodi:docname="gogmazios_meat.svg"
   inkscape:version="1.0.2-2 (e86c870879, 2021-01-15)">
  <metadata
     id="metadata2333">
    <rdf:RDF>
      <cc:Work
         rdf:about="">
        <dc:format>image/svg+xml</dc:format>
        <dc:type
           rdf:resource="http://purl.org/dc/dcmitype/StillImage" />
        <dc:title />
      </cc:Work>
    </rdf:RDF>
  </metadata>
  <sodipodi:namedview
     pagecolor="#ffffff"
     bordercolor="#666666"
     borderopacity="1"
     objecttolerance="10"
     gridtolerance="10"
     guidetolerance="10"
     inkscape:pageopacity="0"
     inkscape:pageshadow="2"
     inkscape:window-width="1920"
     inkscape:window-height="1001"
     id="namedview2331"
     showgrid="false"
     inkscape:zoom="10.927712"
     inkscape:cx="29.990645"
     inkscape:cy="30.502849"
     inkscape:window-x="-9"
     inkscape:window-y="-9"
     inkscape:window-maximized="1"
     inkscape:current-layer="layer1"
     inkscape:document-rotation="0" />
  <defs
     id="defs2197">
    <inkscape:path-effect
       effect="powerstroke"
       id="path-effect18"
       is_visible="true"
       lpeversion="1"
       offset_points="4,0.5"
       sort_points="true"
       interpolator_type="CubicBezierJohan"
       interpolator_beta="0.2"
       start_linecap_type="zerowidth"
       linejoin_type="extrp_arc"
       miter_limit="4"
       scale_width="1"
       end_linecap_type="zerowidth" />
    <linearGradient
       id="linearGradient1047"
       x1="11.322"
       x2="57.559"
       y1="8.8814"
       y2="55.797"
       gradientUnits="userSpaceOnUse">
      <stop
         stop-color="#c83737"
         offset="0"
         id="stop2188" />
      <stop
         stop-color="#d35f5f"
         offset=".44836"
         id="stop2190" />
      <stop
         stop-color="#c83737"
         offset=".77217"
         id="stop2192" />
      <stop
         stop-color="#a02c2c"
         offset="1"
         id="stop2194" />
    </linearGradient>
  </defs>
  <g
     inkscape:groupmode="layer"
     id="layer2"
     inkscape:label="Layer 2" />
  <g
     inkscape:groupmode="layer"
     id="layer1"
     inkscape:label="Layer 1">
    <g
       id="g31"
       transform="matrix(1.1245175,0,0,1.1245175,-3.8953026,-3.5353867)">
      <rect
         style="fill:#f89a66;fill-opacity:1;stroke:none;stroke-width:0.118507;stroke-linejoin:round;stroke-miterlimit:0"
         id="rect27"
         width="26.427004"
         height="27.687321"
         x="18.424463"
         y="17.607504" />
      <rect
         style="fill:#f89a66;fill-opacity:1;stroke:none;stroke-width:0.0482842;stroke-linejoin:round;stroke-miterlimit:0"
         id="rect27-9"
         width="7.8945928"
         height="15.392022"
         x="50.223488"
         y="23.820553" />
      <rect
         style="fill:#f89a66;fill-opacity:1;stroke:none;stroke-width:0.244965;stroke-linejoin:round;stroke-miterlimit:0"
         id="rect867"
         width="3.2889984"
         height="8.608674"
         x="47.238255"
         y="27.582308" />
      <rect
         style="fill:#f89a66;fill-opacity:1;stroke:none;stroke-width:0.0482842;stroke-linejoin:round;stroke-miterlimit:0"
         id="rect27-9-9"
         width="7.8945928"
         height="15.392022"
         x="6.3735561"
         y="24.164894" />
      <rect
         style="fill:#f89a66;fill-opacity:1;stroke:none;stroke-width:0.244965;stroke-linejoin:round;stroke-miterlimit:0"
         id="rect867-0"
         width="3.2889984"
         height="8.608674"
         x="13.252675"
         y="27.779951" />
      <path
         style="fill:#120d0b;stroke:none;stroke-width:0.29767"
         d="m 19.696894,15.229631 -1.272146,2.469857 -2.078717,1.482298 -0.220967,6.465715 C 15.084777,24.645222 14.837246,23.13608 13.444819,22.42658 12.542513,21.96683 11.449912,22.07607 10.46968,22.075656 c -2.6340661,-10e-4 -5.9843096,0.228755 -6.5043025,3.571845 -0.1831156,1.177283 -0.2695552,3.037622 0.1350433,4.166916 0.2546526,0.71078 1.1872102,1.414586 1.0778486,2.210009 -0.098059,0.713789 -0.8376127,1.277824 -1.0785343,1.957645 -0.4000293,1.128711 -0.3237123,2.996788 -0.110478,4.166845 0.6596493,3.62009 5.9156198,4.47852 8.8615959,3.350991 1.613482,-0.617629 2.114633,-2.264533 3.274178,-3.350991 l 0.179636,5.588454 2.347479,1.707059 1.706883,2.347594 4.100336,0.179473 h 9.524897 6.548355 l 2.893817,-0.305974 1.424827,-2.008299 2.221421,-1.679656 0.305961,-5.828651 c 1.304908,0.709646 1.691881,2.24373 2.978029,3.053363 0.984335,0.619691 2.158577,0.518185 3.272702,0.51849 2.588378,9.16e-4 5.61076,-0.432792 6.182839,-3.571853 0.213443,-1.171243 0.28875,-3.036948 -0.110835,-4.167109 -0.255369,-0.723326 -1.180499,-1.448091 -1.081994,-2.255067 0.08525,-0.700467 0.841806,-1.24942 1.081399,-1.913258 0.537273,-1.48901 0.44765,-4.383623 -0.510798,-5.653995 -1.61862,-2.145544 -3.413159,-2.084786 -5.858405,-2.083831 -1.105193,4.4e-4 -2.296084,-0.109018 -3.268522,0.518591 -1.127804,0.72823 -1.461474,1.833471 -1.791578,3.053254 H 47.6763 l -0.297651,-4.46482 -0.305965,-2.232627 -2.16396,-1.487796 -1.482284,-2.053066 -7.060934,-0.179561 H 19.696894 m 2.462766,2.560802 6.169199,-0.179561 h 8.929591 l 4.103757,0.179561 3.031879,2.944167 0.305709,6.103485 v 10.417892 l -0.179492,4.69578 -1.483228,1.404324 -1.43823,1.757027 -6.126326,0.179521 H 26.245305 L 22.144718,45.113108 20.509709,43.356081 19.10988,42.192866 18.803962,36.065357 V 25.945158 l 0.09477,-4.722948 1.865837,-1.890621 1.395256,-1.541156 M 16.12524,35.470048 c -1.172974,0.01398 -2.31852,0.06523 -2.969667,1.208166 -0.338046,0.593536 -0.2745,1.38468 -0.781555,1.88654 -0.760773,0.752477 -2.7147891,0.585781 -3.6899031,0.433072 -1.906894,-0.29882 -2.915225,-3.082166 -1.606497,-4.589204 0.628058,-0.72332 1.625984,-0.703344 2.499219,-0.724503 0,-0.944123 0.243671,-2.353508 -0.305924,-3.179575 -0.472891,-0.710712 -1.346062,-0.553902 -1.980647,-0.99446 -0.923721,-0.641278 -0.882136,-2.576805 -0.46896,-3.508672 0.66286,-1.494994 4.4235061,-1.886539 5.5527111,-0.769611 0.647247,0.640189 0.435793,1.702989 1.166965,2.319644 0.701679,0.591818 1.961361,0.265795 2.404639,1.167226 0.815716,1.658707 0.179618,4.915176 0.179618,6.751377 M 54.22482,33.684119 c 0.873318,0.02135 1.871354,10e-4 2.499395,0.724503 1.308488,1.507038 0.300324,4.290384 -1.606728,4.589204 -0.975119,0.152709 -2.928913,0.319405 -3.689696,-0.433072 -0.507222,-0.50186 -0.443507,-1.293004 -0.781671,-1.88654 -0.651235,-1.143261 -1.796637,-1.194171 -2.969649,-1.208166 0,-1.836201 -0.636122,-5.09267 0.179462,-6.751377 0.443511,-0.901431 1.703192,-0.575408 2.404757,-1.167226 0.731324,-0.616655 0.519682,-1.679455 1.1671,-2.319644 1.128982,-1.116928 4.889836,-0.725383 5.55271,0.769611 0.413145,0.931839 0.454813,2.867394 -0.469112,3.508672 -0.634586,0.440558 -1.507599,0.283748 -1.980584,0.99446 -0.549467,0.826067 -0.305985,2.235118 -0.305985,3.179575 m -17.56158,-7.143657 -3.869489,5.060104 h 7.738973 c -0.533984,-1.920932 -2.336265,-3.8229 -3.869484,-5.060104 m 2.083577,6.846035 -3.571827,4.762419 h 8.036632 L 39.639752,33.386497 H 38.746766 M 23.86412,40.232524 h 7.738969 c -0.518926,-1.13289 -2.445249,-4.403212 -3.869484,-4.403212 -1.424225,0 -3.350561,3.270322 -3.869485,4.403212 z"
         id="path12" />
    </g>
    <path
       style="fill:#aa4400;stroke-width:0.0915105"
       d="m 22.715563,47.240657 -1.647188,-0.08445 -1.098126,-1.132938 C 19.125399,45.151636 17.857693,43.989865 17.663084,43.9089 17.652414,43.9045 17.555232,42.214327 17.447127,40.153049 17.266455,36.70809 17.25446,35.759262 17.298673,28.409942 l 0.0481,-7.995333 1.224922,-1.247225 c 0.673708,-0.685973 1.511068,-1.563619 1.860801,-1.950325 l 0.635879,-0.703101 3.660418,-0.108625 c 3.564514,-0.10578 15.289899,-0.06476 17.066702,0.05971 l 0.777839,0.05449 1.711377,1.661176 1.711375,1.661176 0.18891,3.889195 c 0.224422,4.620336 0.249952,12.202712 0.05699,16.92484 l -0.121345,2.969494 -0.880008,0.82819 c -0.484004,0.455505 -1.214312,1.239987 -1.622907,1.743295 l -0.742899,0.915105 -0.974339,0.06272 c -1.599091,0.102938 -17.403684,0.157258 -19.184921,0.06594 z m 8.92227,-5.600249 c 0,-0.06502 -0.211059,-0.487117 -0.469022,-0.937982 -1.423624,-2.488203 -2.874127,-3.975148 -3.877725,-3.975148 -1.003598,0 -2.454101,1.486945 -3.877725,3.975148 -0.257962,0.450865 -0.469022,0.872957 -0.469022,0.937982 0,0.09497 0.855057,0.118228 4.346747,0.118228 3.491691,0 4.346747,-0.02326 4.346747,-0.118228 z m 13.021911,-2.385892 c -0.04025,-0.06867 -0.937954,-1.281779 -1.9949,-2.695808 l -1.921719,-2.570963 -0.561258,-0.0038 -0.561256,-0.0038 -1.978159,2.639548 c -1.087987,1.451758 -1.978158,2.666559 -1.978158,2.699564 0,0.03301 2.040442,0.06001 4.534315,0.06001 3.8048,0 4.522542,-0.02009 4.461135,-0.124848 z M 41.66615,31.806873 c -0.10481,-0.457303 -0.86316,-1.88817 -1.345875,-2.539415 -0.576087,-0.777218 -2.799428,-2.994526 -2.96401,-2.95597 -0.094,0.02202 -4.117754,5.197314 -4.37935,5.632651 -0.05461,0.09088 0.837175,0.114388 4.339087,0.114388 h 4.407824 z"
       id="path84" />
    <path
       style="fill:#aa4400;stroke-width:0.0915105"
       d="M 6.0019582,40.297548 C 5.0191582,40.120361 4.3379091,39.577635 3.8440853,38.578451 3.5207682,37.924263 3.4984198,37.825257 3.4992078,37.050593 3.499939,36.331895 3.5321191,36.16169 3.7423285,35.764701 4.220795,34.861097 4.7667527,34.546377 6.0391416,34.440692 c 0.4411427,-0.03664 0.8225878,-0.08713 0.8476559,-0.1122 0.025068,-0.02507 0.048244,-0.63872 0.051502,-1.36367 0.00924,-2.056142 -0.2658655,-2.557974 -1.630473,-2.974205 -1.3225426,-0.4034 -1.6853248,-0.898252 -1.7458141,-2.381369 -0.064942,-1.59228 0.2826222,-2.321356 1.3643122,-2.861883 0.8389328,-0.41922 1.7545095,-0.589126 2.9056518,-0.53921 1.6774156,0.07273 2.2710076,0.472142 2.7121316,1.824899 0.30163,0.924979 0.589694,1.394987 0.978069,1.595823 0.160577,0.08304 0.66441,0.250652 1.119628,0.372477 1.187672,0.317842 1.39451,0.550261 1.661927,1.86747 0.131948,0.649931 0.14643,1.052068 0.09204,2.555745 -0.09953,2.751798 -0.182402,3.753486 -0.317419,3.836931 -0.06518,0.04029 -0.457916,0.09442 -0.872736,0.120303 -1.592532,0.09935 -2.263242,0.702023 -2.749939,2.470968 -0.173603,0.630975 -0.5509866,1.089455 -1.0789314,1.310784 -0.4392542,0.184147 -2.6170022,0.270613 -3.3747895,0.133993 z"
       id="path86" />
    <path
       style="fill:#aa4400;stroke-width:0.0915105"
       d="m 55.110268,40.330351 c -1.082475,-0.27294 -1.36552,-0.593478 -1.77589,-2.011132 -0.36081,-1.246444 -1.16197,-1.830697 -2.683136,-1.956702 -0.443051,-0.0367 -0.820938,-0.08327 -0.839748,-0.103496 -0.01881,-0.02022 -0.108147,-1.117555 -0.198526,-2.438516 -0.184492,-2.69649 -0.124695,-3.80007 0.257958,-4.76077 0.261976,-0.657722 0.547328,-0.852975 1.641807,-1.123411 1.140231,-0.281741 1.443508,-0.559014 1.806962,-1.652022 0.354312,-1.065519 0.501866,-1.32581 0.900898,-1.589211 0.576615,-0.380625 1.391211,-0.535773 2.536863,-0.483171 1.663141,0.07636 2.932269,0.644098 3.344801,1.496275 0.464209,0.958927 0.440819,2.546255 -0.04986,3.383533 -0.279126,0.476292 -0.455766,0.58936 -1.418977,0.908297 -1.363735,0.451556 -1.648228,0.964493 -1.645787,2.967338 7.68e-4,0.632583 0.03966,1.210646 0.08642,1.284587 0.05826,0.09212 0.331574,0.153609 0.868327,0.195346 1.676817,0.130384 2.531412,1.005015 2.531412,2.590759 0,1.401762 -0.937401,2.820079 -2.094342,3.168807 -0.353724,0.10662 -2.947514,0.204597 -3.269188,0.123489 z"
       id="path88" />
  </g>
</svg>
