<?xml version="1.0" encoding="UTF-8" standalone="no"?>
<svg
   xmlns:dc="http://purl.org/dc/elements/1.1/"
   xmlns:cc="http://creativecommons.org/ns#"
   xmlns:rdf="http://www.w3.org/1999/02/22-rdf-syntax-ns#"
   xmlns:svg="http://www.w3.org/2000/svg"
   xmlns="http://www.w3.org/2000/svg"
   xmlns:sodipodi="http://sodipodi.sourceforge.net/DTD/sodipodi-0.dtd"
   xmlns:inkscape="http://www.inkscape.org/namespaces/inkscape"
   version="1.1"
   viewBox="0 0 64 64"
   id="svg2329"
   sodipodi:docname="fatalis_meat.svg"
   inkscape:version="1.0.2-2 (e86c870879, 2021-01-15)">
  <metadata
     id="metadata2333">
    <rdf:RDF>
      <cc:Work
         rdf:about="">
        <dc:format>image/svg+xml</dc:format>
        <dc:type
           rdf:resource="http://purl.org/dc/dcmitype/StillImage" />
        <dc:title />
      </cc:Work>
    </rdf:RDF>
  </metadata>
  <sodipodi:namedview
     pagecolor="#ffffff"
     bordercolor="#666666"
     borderopacity="1"
     objecttolerance="10"
     gridtolerance="10"
     guidetolerance="10"
     inkscape:pageopacity="0"
     inkscape:pageshadow="2"
     inkscape:window-width="1920"
     inkscape:window-height="1001"
     id="namedview2331"
     showgrid="false"
     inkscape:zoom="10.927712"
     inkscape:cx="29.990645"
     inkscape:cy="30.502849"
     inkscape:window-x="-9"
     inkscape:window-y="-9"
     inkscape:window-maximized="1"
     inkscape:current-layer="layer1"
     inkscape:document-rotation="0" />
  <defs
     id="defs2197">
    <inkscape:path-effect
       effect="powerstroke"
       id="path-effect18"
       is_visible="true"
       lpeversion="1"
       offset_points="4,0.5"
       sort_points="true"
       interpolator_type="CubicBezierJohan"
       interpolator_beta="0.2"
       start_linecap_type="zerowidth"
       linejoin_type="extrp_arc"
       miter_limit="4"
       scale_width="1"
       end_linecap_type="zerowidth" />
    <linearGradient
       id="linearGradient1047"
       x1="11.322"
       x2="57.559"
       y1="8.8814"
       y2="55.797"
       gradientUnits="userSpaceOnUse">
      <stop
         stop-color="#c83737"
         offset="0"
         id="stop2188" />
      <stop
         stop-color="#d35f5f"
         offset=".44836"
         id="stop2190" />
      <stop
         stop-color="#c83737"
         offset=".77217"
         id="stop2192" />
      <stop
         stop-color="#a02c2c"
         offset="1"
         id="stop2194" />
    </linearGradient>
  </defs>
  <g
     inkscape:groupmode="layer"
     id="layer2"
     inkscape:label="Layer 2" />
  <g
     inkscape:groupmode="layer"
     id="layer1"
     inkscape:label="Layer 1">
    <g
       id="g31"
       transform="matrix(1.1245175,0,0,1.1245175,-3.8953026,-3.5353867)">
      <rect
         style="fill:#f89a66;fill-opacity:1;stroke:none;stroke-width:0.118507;stroke-linejoin:round;stroke-miterlimit:0"
         id="rect27"
         width="26.427004"
         height="27.687321"
         x="18.424463"
         y="17.607504" />
      <rect
         style="fill:#f89a66;fill-opacity:1;stroke:none;stroke-width:0.0482842;stroke-linejoin:round;stroke-miterlimit:0"
         id="rect27-9"
         width="7.8945928"
         height="15.392022"
         x="50.223488"
         y="23.820553" />
      <rect
         style="fill:#f89a66;fill-opacity:1;stroke:none;stroke-width:0.244965;stroke-linejoin:round;stroke-miterlimit:0"
         id="rect867"
         width="3.2889984"
         height="8.608674"
         x="47.238255"
         y="27.582308" />
      <rect
         style="fill:#f89a66;fill-opacity:1;stroke:none;stroke-width:0.0482842;stroke-linejoin:round;stroke-miterlimit:0"
         id="rect27-9-9"
         width="7.8945928"
         height="15.392022"
         x="6.3735561"
         y="24.164894" />
      <rect
         style="fill:#f89a66;fill-opacity:1;stroke:none;stroke-width:0.244965;stroke-linejoin:round;stroke-miterlimit:0"
         id="rect867-0"
         width="3.2889984"
         height="8.608674"
         x="13.252675"
         y="27.779951" />
      <path
         style="fill:#120d0b;stroke:none;stroke-width:0.29767"
         d="m 19.696894,15.229631 -1.272146,2.469857 -2.078717,1.482298 -0.220967,6.465715 C 15.084777,24.645222 14.837246,23.13608 13.444819,22.42658 12.542513,21.96683 11.449912,22.07607 10.46968,22.075656 c -2.6340661,-10e-4 -5.9843096,0.228755 -6.5043025,3.571845 -0.1831156,1.177283 -0.2695552,3.037622 0.1350433,4.166916 0.2546526,0.71078 1.1872102,1.414586 1.0778486,2.210009 -0.098059,0.713789 -0.8376127,1.277824 -1.0785343,1.957645 -0.4000293,1.128711 -0.3237123,2.996788 -0.110478,4.166845 0.6596493,3.62009 5.9156198,4.47852 8.8615959,3.350991 1.613482,-0.617629 2.114633,-2.264533 3.274178,-3.350991 l 0.179636,5.588454 2.347479,1.707059 1.706883,2.347594 4.100336,0.179473 h 9.524897 6.548355 l 2.893817,-0.305974 1.424827,-2.008299 2.221421,-1.679656 0.305961,-5.828651 c 1.304908,0.709646 1.691881,2.24373 2.978029,3.053363 0.984335,0.619691 2.158577,0.518185 3.272702,0.51849 2.588378,9.16e-4 5.61076,-0.432792 6.182839,-3.571853 0.213443,-1.171243 0.28875,-3.036948 -0.110835,-4.167109 -0.255369,-0.723326 -1.180499,-1.448091 -1.081994,-2.255067 0.08525,-0.700467 0.841806,-1.24942 1.081399,-1.913258 0.537273,-1.48901 0.44765,-4.383623 -0.510798,-5.653995 -1.61862,-2.145544 -3.413159,-2.084786 -5.858405,-2.083831 -1.105193,4.4e-4 -2.296084,-0.109018 -3.268522,0.518591 -1.127804,0.72823 -1.461474,1.833471 -1.791578,3.053254 H 47.6763 l -0.297651,-4.46482 -0.305965,-2.232627 -2.16396,-1.487796 -1.482284,-2.053066 -7.060934,-0.179561 H 19.696894 m 2.462766,2.560802 6.169199,-0.179561 h 8.929591 l 4.103757,0.179561 3.031879,2.944167 0.305709,6.103485 v 10.417892 l -0.179492,4.69578 -1.483228,1.404324 -1.43823,1.757027 -6.126326,0.179521 H 26.245305 L 22.144718,45.113108 20.509709,43.356081 19.10988,42.192866 18.803962,36.065357 V 25.945158 l 0.09477,-4.722948 1.865837,-1.890621 1.395256,-1.541156 M 16.12524,35.470048 c -1.172974,0.01398 -2.31852,0.06523 -2.969667,1.208166 -0.338046,0.593536 -0.2745,1.38468 -0.781555,1.88654 -0.760773,0.752477 -2.7147891,0.585781 -3.6899031,0.433072 -1.906894,-0.29882 -2.915225,-3.082166 -1.606497,-4.589204 0.628058,-0.72332 1.625984,-0.703344 2.499219,-0.724503 0,-0.944123 0.243671,-2.353508 -0.305924,-3.179575 -0.472891,-0.710712 -1.346062,-0.553902 -1.980647,-0.99446 -0.923721,-0.641278 -0.882136,-2.576805 -0.46896,-3.508672 0.66286,-1.494994 4.4235061,-1.886539 5.5527111,-0.769611 0.647247,0.640189 0.435793,1.702989 1.166965,2.319644 0.701679,0.591818 1.961361,0.265795 2.404639,1.167226 0.815716,1.658707 0.179618,4.915176 0.179618,6.751377 M 54.22482,33.684119 c 0.873318,0.02135 1.871354,10e-4 2.499395,0.724503 1.308488,1.507038 0.300324,4.290384 -1.606728,4.589204 -0.975119,0.152709 -2.928913,0.319405 -3.689696,-0.433072 -0.507222,-0.50186 -0.443507,-1.293004 -0.781671,-1.88654 -0.651235,-1.143261 -1.796637,-1.194171 -2.969649,-1.208166 0,-1.836201 -0.636122,-5.09267 0.179462,-6.751377 0.443511,-0.901431 1.703192,-0.575408 2.404757,-1.167226 0.731324,-0.616655 0.519682,-1.679455 1.1671,-2.319644 1.128982,-1.116928 4.889836,-0.725383 5.55271,0.769611 0.413145,0.931839 0.454813,2.867394 -0.469112,3.508672 -0.634586,0.440558 -1.507599,0.283748 -1.980584,0.99446 -0.549467,0.826067 -0.305985,2.235118 -0.305985,3.179575 m -17.56158,-7.143657 -3.869489,5.060104 h 7.738973 c -0.533984,-1.920932 -2.336265,-3.8229 -3.869484,-5.060104 m 2.083577,6.846035 -3.571827,4.762419 h 8.036632 L 39.639752,33.386497 H 38.746766 M 23.86412,40.232524 h 7.738969 c -0.518926,-1.13289 -2.445249,-4.403212 -3.869484,-4.403212 -1.424225,0 -3.350561,3.270322 -3.869485,4.403212 z"
         id="path12" />
    </g>
    <path
       style="fill:#f4d7d7;stroke-width:0.0915105"
       d="m 22.715563,47.240657 -1.647188,-0.08445 -1.098126,-1.132938 C 19.125399,45.151636 17.857693,43.989865 17.663084,43.9089 17.652414,43.9045 17.555232,42.214327 17.447127,40.153049 17.266455,36.70809 17.25446,35.759262 17.298673,28.409942 l 0.0481,-7.995333 1.224922,-1.247225 c 0.673708,-0.685973 1.511068,-1.563619 1.860801,-1.950325 l 0.635879,-0.703101 3.660418,-0.108625 c 3.564514,-0.10578 15.289899,-0.06476 17.066702,0.05971 l 0.777839,0.05449 1.711377,1.661176 1.711375,1.661176 0.18891,3.889195 c 0.224422,4.620336 0.249952,12.202712 0.05699,16.92484 l -0.121345,2.969494 -0.880008,0.82819 c -0.484004,0.455505 -1.214312,1.239987 -1.622907,1.743295 l -0.742899,0.915105 -0.974339,0.06272 c -1.599091,0.102938 -17.403684,0.157258 -19.184921,0.06594 z m 8.92227,-5.600249 c 0,-0.06502 -0.211059,-0.487117 -0.469022,-0.937982 -1.423624,-2.488203 -2.874127,-3.975148 -3.877725,-3.975148 -1.003598,0 -2.454101,1.486945 -3.877725,3.975148 -0.257962,0.450865 -0.469022,0.872957 -0.469022,0.937982 0,0.09497 0.855057,0.118228 4.346747,0.118228 3.491691,0 4.346747,-0.02326 4.346747,-0.118228 z m 13.021911,-2.385892 c -0.04025,-0.06867 -0.937954,-1.281779 -1.9949,-2.695808 l -1.921719,-2.570963 -0.561258,-0.0038 -0.561256,-0.0038 -1.978159,2.639548 c -1.087987,1.451758 -1.978158,2.666559 -1.978158,2.699564 0,0.03301 2.040442,0.06001 4.534315,0.06001 3.8048,0 4.522542,-0.02009 4.461135,-0.124848 z M 41.66615,31.806873 c -0.10481,-0.457303 -0.86316,-1.88817 -1.345875,-2.539415 -0.576087,-0.777218 -2.799428,-2.994526 -2.96401,-2.95597 -0.094,0.02202 -4.117754,5.197314 -4.37935,5.632651 -0.05461,0.09088 0.837175,0.114388 4.339087,0.114388 h 4.407824 z"
       id="path70" />
    <path
       style="fill:#f4d7d7;stroke-width:0.0915105"
       d="M 6.0019582,40.297548 C 5.0191582,40.120361 4.3379091,39.577635 3.8440853,38.578451 3.5207682,37.924263 3.4984198,37.825257 3.4992078,37.050593 3.499939,36.331895 3.5321191,36.16169 3.7423285,35.764701 4.220795,34.861097 4.7667527,34.546377 6.0391416,34.440692 c 0.4411427,-0.03664 0.8225878,-0.08713 0.8476559,-0.1122 0.025068,-0.02507 0.048244,-0.63872 0.051502,-1.36367 0.00924,-2.056142 -0.2658655,-2.557974 -1.630473,-2.974205 -1.3225426,-0.4034 -1.6853248,-0.898252 -1.7458141,-2.381369 -0.064942,-1.59228 0.2826222,-2.321356 1.3643122,-2.861883 0.8389328,-0.41922 1.7545095,-0.589126 2.9056518,-0.53921 1.6774156,0.07273 2.2710076,0.472142 2.7121316,1.824899 0.30163,0.924979 0.589694,1.394987 0.978069,1.595823 0.160577,0.08304 0.66441,0.250652 1.119628,0.372477 1.187672,0.317842 1.39451,0.550261 1.661927,1.86747 0.131948,0.649931 0.14643,1.052068 0.09204,2.555745 -0.09953,2.751798 -0.182402,3.753486 -0.317419,3.836931 -0.06518,0.04029 -0.457916,0.09442 -0.872736,0.120303 -1.592532,0.09935 -2.263242,0.702023 -2.749939,2.470968 -0.173603,0.630975 -0.5509866,1.089455 -1.0789314,1.310784 -0.4392542,0.184147 -2.6170022,0.270613 -3.3747895,0.133993 z"
       id="path72" />
    <path
       style="fill:#e3dbdb;stroke-width:0.0915105"
       d="m 55.110268,40.330351 c -1.082475,-0.27294 -1.36552,-0.593478 -1.77589,-2.011132 -0.36081,-1.246444 -1.16197,-1.830697 -2.683136,-1.956702 -0.443051,-0.0367 -0.820938,-0.08327 -0.839748,-0.103496 -0.01881,-0.02022 -0.108147,-1.117555 -0.198526,-2.438516 -0.184492,-2.69649 -0.124695,-3.80007 0.257958,-4.76077 0.261976,-0.657722 0.547328,-0.852975 1.641807,-1.123411 1.140231,-0.281741 1.443508,-0.559014 1.806962,-1.652022 0.354312,-1.065519 0.501866,-1.32581 0.900898,-1.589211 0.576615,-0.380625 1.391211,-0.535773 2.536863,-0.483171 1.663141,0.07636 2.932269,0.644098 3.344801,1.496275 0.464209,0.958927 0.440819,2.546255 -0.04986,3.383533 -0.279126,0.476292 -0.455766,0.58936 -1.418977,0.908297 -1.363735,0.451556 -1.648228,0.964493 -1.645787,2.967338 7.68e-4,0.632583 0.03966,1.210646 0.08642,1.284587 0.05826,0.09212 0.331574,0.153609 0.868327,0.195346 1.676817,0.130384 2.531412,1.005015 2.531412,2.590759 0,1.401762 -0.937401,2.820079 -2.094342,3.168807 -0.353724,0.10662 -2.947514,0.204597 -3.269188,0.123489 z"
       id="path74" />
    <path
       style="fill:#e3dbdb;stroke-width:0.0915105"
       d="m 22.075067,47.187506 -0.915028,-0.03693 -1.372734,-1.350328 c -0.755004,-0.74268 -1.525364,-1.479466 -1.711911,-1.637303 -0.4127,-0.349183 -0.396555,-0.241686 -0.578215,-3.849943 -0.09889,-1.964226 -0.134978,-4.969199 -0.134978,-11.239428 V 20.51517 l 1.839921,-1.938079 c 1.011957,-1.065943 1.948796,-1.975211 2.081863,-2.020594 0.292864,-0.09988 20.508595,-0.130462 20.970643,-0.03172 0.253038,0.05408 0.68691,0.425881 2.028941,1.738698 l 1.707073,1.669915 0.05434,1.464168 c 0.02989,0.805292 0.09654,2.43189 0.148119,3.614663 0.127785,2.930402 0.123448,12.623993 -0.0071,15.877066 L 46.0795,43.54309 44.917601,44.732726 c -0.639045,0.6543 -1.357985,1.441974 -1.597646,1.750386 -0.412906,0.531359 -0.460681,0.563745 -0.911468,0.617875 -0.540351,0.06488 -18.930587,0.143135 -20.333417,0.08652 z m 9.562766,-5.580219 c 0,-0.352622 -1.359373,-2.502463 -2.234906,-3.534493 -0.278966,-0.328829 -0.759701,-0.766479 -1.0683,-0.972553 -0.476766,-0.318371 -0.632468,-0.37468 -1.036052,-0.37468 -1.052389,0 -2.241636,1.17556 -3.779316,3.73582 -0.316206,0.526487 -0.57492,1.033752 -0.57492,1.127253 0,0.163277 0.171964,0.170002 4.346747,0.170002 3.982536,0 4.346747,-0.01268 4.346747,-0.151349 z m 13.029164,-2.30151 c 0.02501,-0.04047 -0.836232,-1.255275 -1.913881,-2.699559 l -1.95936,-2.625971 h -0.624833 -0.624832 l -1.891087,2.546842 c -1.040097,1.400763 -1.917456,2.615564 -1.949688,2.699559 -0.05424,0.141336 0.275878,0.152716 4.429799,0.152716 2.468622,0 4.508869,-0.03311 4.533882,-0.07359 z m -2.960241,-7.498904 c -0.376087,-1.245934 -1.22661,-2.523264 -2.658897,-3.993178 -1.395934,-1.432606 -1.670103,-1.640767 -1.85183,-1.405991 -0.06233,0.08052 -0.689839,0.877429 -1.394469,1.770906 -1.923591,2.439126 -2.877115,3.723215 -2.826071,3.805806 0.02519,0.04076 2.017124,0.07411 4.426516,0.07411 h 4.380714 z"
       id="path76" />
    <path
       style="fill:#e3dbdb;stroke-width:0.0915105"
       d="M 5.6785266,40.167964 C 4.8043182,39.882664 4.3381253,39.437198 3.8503699,38.421086 3.5804986,37.858878 3.5443592,37.695827 3.5461302,37.048429 c 0.0022,-0.805663 0.1490352,-1.245575 0.59017,-1.768171 0.3812662,-0.451672 0.8800168,-0.661395 1.8670271,-0.785082 l 0.8809252,-0.110392 0.06076,-0.728454 C 7.0287014,32.652972 6.9092679,31.349403 6.6932429,30.908366 6.4812147,30.475489 6.1045524,30.212015 5.3285745,29.953786 4.3465961,29.627005 3.882491,29.214889 3.7232499,28.528292 3.6774609,28.330864 3.6394171,27.757535 3.638708,27.254228 c -0.00193,-1.37004 0.3125066,-1.951207 1.331596,-2.461165 0.7456257,-0.373115 1.4426359,-0.512926 2.5571387,-0.512926 1.7099598,0 2.452635,0.375546 2.8367233,1.434435 0.596705,1.645048 0.792641,1.866215 1.980158,2.235148 0.980398,0.304587 1.437464,0.564964 1.605715,0.91473 0.294817,0.612873 0.392301,1.328532 0.390959,2.870139 -0.0013,1.53289 -0.135154,4.0597 -0.230995,4.361667 -0.0372,0.117202 -0.206057,0.168323 -0.708954,0.214628 -0.36307,0.03343 -0.886236,0.123852 -1.162592,0.200937 -0.676441,0.188681 -1.271529,0.782043 -1.545125,1.540641 -0.108913,0.301985 -0.263009,0.725703 -0.342435,0.941596 -0.187694,0.510186 -0.4981657,0.871947 -0.9261655,1.079166 -0.4577615,0.221627 -3.1488617,0.289685 -3.7462049,0.09474 z"
       id="path78" />
    <path
       style="fill:#e3dbdb;stroke-width:0.0915105"
       d="m 54.540019,40.076221 c -0.559325,-0.267919 -0.74861,-0.537539 -1.084753,-1.545142 -0.502025,-1.504841 -1.111462,-2.000255 -2.691745,-2.188135 -0.478143,-0.05685 -0.880573,-0.111617 -0.89429,-0.121712 -0.07047,-0.05186 -0.291656,-3.550301 -0.292113,-4.620257 -8.11e-4,-1.897588 0.313004,-2.942173 0.987224,-3.286134 0.191082,-0.09748 0.61262,-0.24522 0.936751,-0.328304 1.192517,-0.305679 1.471178,-0.586543 1.975673,-1.991297 0.321474,-0.895136 0.520166,-1.14777 1.12191,-1.426491 0.424705,-0.196719 0.678072,-0.243049 1.49183,-0.272791 2.07981,-0.07602 3.454285,0.449553 3.978669,1.521355 0.468314,0.957201 0.38428,2.574722 -0.177038,3.407662 -0.169619,0.251698 -0.393237,0.386265 -1.156065,0.695688 -0.520173,0.210995 -1.065883,0.498705 -1.21269,0.639355 -0.40747,0.39038 -0.53715,0.976314 -0.53715,2.427003 0,1.453958 -0.03956,1.389247 0.915105,1.496841 1.492236,0.168179 2.251533,0.784996 2.47864,2.013532 0.242911,1.314025 -0.56618,2.973283 -1.722883,3.533234 -0.372482,0.180315 -0.597549,0.206815 -2.02865,0.238863 -1.566344,0.03508 -1.622577,0.02987 -2.088425,-0.19327 z"
       id="path80" />
  </g>
</svg>
