<svg xmlns="http://www.w3.org/2000/svg" cursor="default" version="1.1" viewBox="0 0 256 256">
    <g id="patternLayer">
        <path fill="#f55" fill-opacity="1" stroke="#000" stroke-dasharray="none" stroke-dashoffset="0" stroke-linecap="square" stroke-linejoin="miter" stroke-miterlimit="4" stroke-opacity="1" stroke-width="1" d="M65.535 161.507c.06-10.654-.488-21.308-.443-31.962.02-4.93.568-14.79.568-14.79.013-1.462-2.277 1.366-3.008 2.632-1.814 3.141-4.763 10.78-4.763 10.78s-7.07-2.091-10.403-3.636c-6.729-3.118-12.764-7.556-19.177-11.28-3.123-1.814-6.779-2.905-9.4-5.39-1.229-1.164-2.758-4.261-2.758-4.261s6.963-11.253 10.153-17.047c3.207-5.827 6.168-11.79 9.024-17.798 2.473-5.203 4.316-10.706 7.02-15.793 1.479-2.784 3.106-5.51 5.013-8.022 1.985-2.614 3.948-5.395 6.643-7.27 2.738-1.904 6.177-2.52 9.275-3.76 5.63-2.25 11.352-4.276 16.92-6.673 5.219-2.246 15.44-7.218 15.44-7.218s.944 4.304 2.072 6.15c1.727 2.825 4.102 5.394 6.93 7.115 4.55 2.768 10.036 3.77 15.292 4.637 3.753.62 7.606.556 11.406.376 5.259-.248 10.71-.231 15.667-2.005 3.11-1.113 5.901-3.1 8.398-5.264 2.15-1.864 4.44-3.882 5.515-6.518.7-1.716.398-5.545.398-5.545s13.196 5.483 19.907 7.927c5.624 2.047 11.41 3.625 17.046 5.64 2.192.783 4.664 1.099 6.518 2.507 2.901 2.203 4.525 5.723 6.517 8.773 2.814 4.309 5.195 8.887 7.646 13.412a531.13 531.13 0 0 1 10.717 20.856c4.183 8.609 11.965 26.101 11.965 26.101s-8.995 5.396-13.56 7.977c-4.448 2.514-8.842 5.15-13.472 7.312-3.713 1.734-7.433 3.629-11.433 4.52-2.802.624-8.597.531-8.597.531s-2.797-5.693-3.368-8.774c-.15-.813-.445-1.684-.664-2.481-.337-1.227-.956-4.508-1.286-3.28-.453 1.694-1.152 4.577-1.152 6.913 0 7.488.407 15.007.532 22.512.152 9.128.38 18.258.266 27.386-.106 8.513-.634 17.016-.886 25.525-.25 8.449-.62 25.348-.62 25.348s-11.98 7.906-18.79 9.75c-6.824 1.847-14.187.04-21.182 1.063-7.615 1.114-14.752 4.89-22.423 5.495-9.25.73-18.555-.998-27.741-2.304-5.014-.713-9.943-1.629-14.89-2.575-4.091-.783-8.133-1.468-12.23-2.566-3.923-1.05-9.13-8.065-9.13-8.065s1.844-15.822 2.57-23.753c.756-8.23 1.505-16.469 1.862-24.727.122-2.825.08-5.654.096-8.481z" opacity="1" vector-effect="none"/>
    </g>
    <g>
        <path fill="#ff2a2a" fill-opacity="1" stroke="#000" stroke-dasharray="none" stroke-dashoffset="0" stroke-linecap="square" stroke-linejoin="miter" stroke-miterlimit="4" stroke-opacity="1" stroke-width="1" d="M100.324 19.65h56.723l1.183 6.287-6.28 5.774-48.766-.272-4.507-6.535z" opacity="1" vector-effect="none"/>
        <path fill="#ff8080" fill-opacity="1" stroke="#000" stroke-dasharray="none" stroke-dashoffset="0" stroke-linecap="square" stroke-linejoin="miter" stroke-miterlimit="4" stroke-opacity="1" stroke-width="1" d="M103.2 14.483s11.154-.478 16.733-.69c3.007-.114 6.014-.319 9.024-.313 4.307.009 8.608.312 12.91.501 4.334.191 12.81.64 12.81.64l3.817 8.151s-11.029-.482-17.316-.69c-3.468-.114-11.32-.215-14.79-.25-3.928-.04-7.855.126-11.782.188-3.97.063-14.747.188-14.747.188z" opacity="1" vector-effect="none"/>
        <path fill="#ff8080" fill-opacity="1" fill-rule="evenodd" stroke="#000" stroke-dasharray="none" stroke-dashoffset="0" stroke-linecap="square" stroke-linejoin="miter" stroke-miterlimit="4" stroke-opacity="1" stroke-width="1" d="M16.151 103.6s-1.962 2.606-2.471 4.126c-.132.395-.2.83-.133 1.241a7.203 7.203 0 0 0 1.595 3.457c2.493 2.914 6.335 4.325 9.572 6.38 1.953 1.24 3.93 2.442 5.938 3.59 3.047 1.743 6.104 3.478 9.262 5.008a71.04 71.04 0 0 0 5.76 2.481c1.542.586 3.097 1.156 4.698 1.551 1.57.388 3.172.9 4.786.798.462-.03.99-.084 1.33-.399.958-.89 1.401-3.667 1.401-3.667s-7.07-2.09-10.403-3.635c-6.729-3.118-12.764-7.556-19.177-11.28-3.123-1.814-6.779-2.905-9.4-5.39-1.229-1.164-2.758-4.261-2.758-4.261zM194.571 124.521s.442 2.198 1.136 3.02c.593.701 1.516 1.077 2.381 1.388.933.335 1.944.466 2.935.478 1.602.018 3.206-.27 4.759-.66 4.068-1.023 7.96-2.684 11.799-4.371 3.294-1.448 6.435-3.225 9.608-4.923 2.03-1.086 4.033-2.225 6.034-3.366 1.44-.822 2.873-1.653 4.295-2.504 1.17-.7 2.371-1.355 3.486-2.14.941-.662 2.693-2.16 2.693-2.16l-2.064-5.102s-8.995 5.396-13.56 7.977c-4.448 2.514-8.842 5.15-13.472 7.312-3.713 1.734-7.433 3.629-11.433 4.52-2.802.624-8.597.531-8.597.531z" opacity="1" vector-effect="none"/>
        <path fill="#ff8080" fill-opacity="1" stroke="#000" stroke-dasharray="none" stroke-dashoffset="0" stroke-linecap="square" stroke-linejoin="miter" stroke-miterlimit="4" stroke-opacity="1" stroke-width="1" d="M187.392 217.67s.244 3.1-.266 4.52c-.148.413-.47.748-.775 1.064-1.168 1.212-2.628 2.104-3.966 3.124-.97.74-1.908 1.533-2.947 2.171-1.593.98-3.304 1.758-5.008 2.526-2.139.965-4.276 1.984-6.536 2.615-1.702.475-3.47.71-5.23.864-2.523.222-5.066.132-7.6.089-2.424-.042-4.86-.321-7.267-.023-2.717.338-5.234 1.303-7.865 2.061-2.172.625-4.325 1.333-6.537 1.795-2.63.548-5.301.907-7.976 1.152-2.643.242-5.302.35-7.955.31-2.561-.039-5.12-.246-7.666-.532-3.06-.343-6.09-.919-9.129-1.418-3.336-.547-6.685-1.03-9.993-1.728-3.731-.787-7.386-1.905-11.1-2.77-2.554-.594-5.182-.893-7.69-1.661-2.1-.645-4.247-1.302-6.115-2.46-1.311-.813-2.52-2.01-3.633-3.08-.86-.825-1.649-1.576-2.305-2.57-.084-.127-.167-.269-.177-.42-.105-1.67 1.352-4.831 1.352-4.831s5.206 7.014 9.128 8.065c4.101 1.099 8.14 1.783 12.231 2.566 4.947.946 9.894 1.936 14.89 2.574 9.204 1.176 18.49 3.035 27.74 2.305 7.672-.605 14.81-4.381 22.424-5.495 6.995-1.023 14.358.784 21.182-1.064 6.81-1.844 18.79-9.749 18.79-9.749zM161.317 18.965s.301 3.83-.398 5.545c-1.074 2.636-3.365 4.654-5.515 6.518-2.497 2.164-5.287 4.151-8.398 5.264-4.957 1.774-10.408 1.757-15.667 2.005-3.8.18-7.653.244-11.406-.376-5.256-.868-10.741-1.869-15.292-4.637-2.828-1.72-5.203-4.29-6.93-7.115-1.128-1.846-2.072-6.15-2.072-6.15s2.37-1.041 3.424-1.776c1.53-1.065 4.137-3.76 4.137-3.76s-.453 1.363-.439 2.068c.024 1.185.386 2.368.877 3.447.716 1.572 1.667 3.101 2.946 4.261 1.115 1.012 2.585 1.554 3.948 2.194 1.562.734 3.172 1.385 4.826 1.88 1.923.575 3.904.965 5.89 1.253 1.846.268 3.716.345 5.578.439 1.878.095 3.761.186 5.64.125 1.447-.046 2.895-.151 4.325-.376 1.757-.276 3.48-.742 5.201-1.19 1.728-.45 3.503-.793 5.14-1.504a19.18 19.18 0 0 0 4.01-2.382c1.043-.8 2.05-1.692 2.82-2.757.75-1.037 1.528-2.178 1.692-3.447.142-1.097-.43-2.17-.656-3.252-.022-.107-.256-.627-.256-.627l.123.007s1.045.91 1.596 1.33c.801.61 1.623 1.199 2.481 1.728.767.472 2.375 1.286 2.375 1.286z" opacity="1" vector-effect="none"/>
        <path fill="#000" fill-opacity="1" fill-rule="evenodd" d="M66.106 114.632c-.082-7.747-9.197-25.146-9.364-32.594-.166 7.414 8.26 25.183 8.374 32.726zm123.332-3.872c.178-.355.356-.713.532-1.074 1.818-4.64 1.779-14.408 2.207-18.237.53-4.738 1.693-3.139 1.593-7.195-.08 3.238-1.826 3.073-2.354 7.116-.659 5.05-.294 14.346-2.522 18.326.183.355.365.71.544 1.063z"/>
        <path fill="none" stroke="#000" stroke-dasharray="none" stroke-dashoffset="0" stroke-linecap="square" stroke-linejoin="miter" stroke-miterlimit="4" stroke-opacity="1" stroke-width="1" d="M65.535 161.507c.06-10.654-.488-21.308-.443-31.962.02-4.93.568-14.79.568-14.79.013-1.462-2.277 1.366-3.008 2.632-1.814 3.141-4.763 10.78-4.763 10.78s-7.07-2.091-10.403-3.636c-6.729-3.118-12.764-7.556-19.177-11.28-3.123-1.814-6.779-2.905-9.4-5.39-1.229-1.164-2.758-4.261-2.758-4.261s6.963-11.253 10.153-17.047c3.207-5.827 6.168-11.79 9.024-17.798 2.473-5.203 4.316-10.706 7.02-15.793 1.479-2.784 3.106-5.51 5.013-8.022 1.985-2.614 3.948-5.395 6.643-7.27 2.738-1.904 6.177-2.52 9.275-3.76 5.63-2.25 11.352-4.276 16.92-6.673 5.219-2.246 15.44-7.218 15.44-7.218s.944 4.304 2.072 6.15c1.727 2.824 4.102 5.394 6.93 7.115 4.55 2.768 10.036 3.77 15.292 4.637 3.753.62 7.606.556 11.406.376 5.259-.248 10.71-.231 15.667-2.005 3.11-1.113 5.901-3.1 8.398-5.264 2.15-1.864 4.44-3.882 5.515-6.518.7-1.716.398-5.545.398-5.545s13.196 5.483 19.907 7.927c5.624 2.047 11.41 3.625 17.046 5.64 2.192.783 4.664 1.099 6.518 2.507 2.901 2.203 4.525 5.723 6.517 8.773 2.814 4.309 5.195 8.887 7.646 13.412a531.13 531.13 0 0 1 10.717 20.856c4.183 8.609 11.965 26.101 11.965 26.101s-8.995 5.396-13.56 7.977c-4.448 2.514-8.842 5.15-13.472 7.312-3.713 1.734-7.433 3.629-11.433 4.52-2.802.624-8.597.531-8.597.531s-2.797-5.693-3.368-8.774c-.15-.813-.445-1.684-.664-2.481-.337-1.227-.956-4.508-1.286-3.28-.453 1.694-1.152 4.577-1.152 6.913 0 7.488.407 15.007.532 22.512.152 9.128.38 18.258.266 27.386-.106 8.513-.634 17.016-.886 25.525-.25 8.449-.62 25.348-.62 25.348s-11.98 7.906-18.79 9.75c-6.824 1.847-14.187.04-21.182 1.063-7.615 1.114-14.752 4.89-22.423 5.495-9.25.73-18.555-.998-27.741-2.304-5.014-.713-9.943-1.629-14.89-2.575-4.091-.783-8.133-1.468-12.23-2.566-3.923-1.05-9.13-8.065-9.13-8.065s1.844-15.822 2.57-23.753c.756-8.23 1.505-16.469 1.862-24.727.122-2.825.08-5.654.096-8.481z" display="inline" opacity="1" vector-effect="none"/>
        <path fill="#f95" fill-opacity="1" stroke="#000" stroke-dasharray="none" stroke-miterlimit="4" stroke-opacity="1" stroke-width=".6" d="M66.95 90.12c0-.05.428-.9.952-1.892l.951-1.804V70.958l-.95-1.863c-.525-1.025-.953-1.898-.953-1.94 0-.042 1.421-.076 3.158-.076h3.157l-.102.33c-.056.18-.39 1.077-.742 1.99l-.64 1.662v4.07h5.124V71.07l-.712-1.918c-.392-1.054-.677-1.952-.634-1.995.09-.09 6.178-.108 6.178-.02 0 .034-.46.963-1.02 2.066l-1.02 2.005-.007 7.413-.007 7.414.912 1.795c.816 1.604 1.142 2.078 1.142 1.657 0-.076.27-.71.598-1.41.375-.794.837-2.21 1.235-3.777.35-1.38.838-3.294 1.085-4.255.247-.962.45-1.86.45-1.995 0-.136-.23-.753-.513-1.371-.282-.62-.513-1.187-.513-1.263 0-.082 1.243-.138 3.075-.138 1.69 0 3.074.029 3.074.065 0 .035-.275.634-.612 1.33l-.613 1.265.606 2.366c1.687 6.595 1.622 6.387 2.476 7.82.444.745.85 1.353.903 1.35.052-.001.424-.545.827-1.207l.732-1.204.043-4.283.043-4.284-.42-.62a26.326 26.326 0 0 1-.967-1.613l-.547-.992 2.754.04 2.754.04.108.95c.304 2.676.587 4.91.63 4.956.05.054.116-.436.363-2.685.088-.806.23-1.876.314-2.38l.152-.914h3.28c1.803 0 3.278.026 3.278.057 0 .032-.428.782-.95 1.667l-.953 1.608v8.109l.82 1.49c.45.819.88 1.552.951 1.628.073.077.132.192.132.256 0 .065-1.45.118-3.223.118h-3.224l.908-1.718.908-1.717.015-4.722c.008-2.597-.027-4.674-.079-4.615-.05.06-.305 1.162-.564 2.45a485.6 485.6 0 0 1-1.624 7.833c-.17.765-.346 1.607-.392 1.87-.047.265-.11.455-.142.424-.032-.032-.184-.712-.34-1.512-.155-.8-.315-1.55-.357-1.668a4.844 4.844 0 0 1-.144-.578c-.065-.347-.452-2.17-1.336-6.296-.215-1.006-.434-1.876-.486-1.932-.052-.056-.073 1.92-.047 4.392l.047 4.495.85 1.568c.465.863.812 1.604.77 1.647-.045.043-2.61.079-5.706.079H86.54l.368-.628c.203-.346.604-.986.893-1.424.523-.795.598-1.096.432-1.718-.085-.316-.154-.33-1.675-.33h-1.587l-.102.544c-.09.475-.007.722.652 1.958.415.778.754 1.455.754 1.506 0 .05-2.404.092-5.343.092-3.224 0-5.344-.055-5.344-.138 0-.075.298-.946.661-1.935l.662-1.798-.04-3.57-.039-3.57-2.488.005-2.49.005-.038 3.524-.04 3.525.65 1.646c.357.906.692 1.795.744 1.976l.095.33H70.11c-1.737 0-3.158-.04-3.158-.09zm20.496-6.716c0-.165-.647-2.71-.929-3.653-.035-.117-.974 3.527-.974 3.78 0 .05.428.09.952.09.743 0 .951-.047.951-.217zm20.08 5.67c.34-.623.77-1.38.956-1.68.333-.537.34-.614.338-4.685 0-3.97-.013-4.16-.313-4.65a60.796 60.796 0 0 1-.942-1.648l-.628-1.134h5.504l.17 1.574c.337 3.13.502 4.43.555 4.378.045-.046.777-5.532.778-5.843 0-.06 1.483-.11 3.295-.11 1.812 0 3.294.05 3.294.113 0 .062-.154.342-.343.622-.188.28-.616 1.015-.95 1.632l-.61 1.123v4c0 3.83.014 4.025.314 4.516.413.676 1.59 2.802 1.59 2.872 0 .03-1.455.056-3.233.056h-3.23l.432-.77c.238-.422.672-1.216.964-1.763l.531-.996-.038-4.787-.039-4.787-.25 1.098a61.095 61.095 0 0 0-.388 1.83c-.256 1.363-1.958 9.514-2.032 9.735-.087.257-.228-.177-.547-1.683-.12-.564-.32-1.486-.444-2.05-.125-.563-.392-1.782-.593-2.708-.322-1.48-.733-3.36-1.09-4.978-.156-.71-.16-.607-.16 4.197v4.27l.535 1.066c.295.586.694 1.315.887 1.62.192.304.35.588.35.63 0 .04-1.188.076-2.64.076h-2.639zm13.65.513l.958-1.644.595-1.023v-8.367l-.479-.796a81.523 81.523 0 0 1-.953-1.638l-.474-.842h10.51l.053.33c.03.18.033 1.58.007 3.11l-.046 2.782-.952-1.948-.953-1.947-1.93.044-1.929.044-.04 1.647-.042 1.647h1.16c1.057 0 1.178-.03 1.385-.347.125-.19.43-.568.676-.838l.448-.49v6.58l-.366-.44a8.81 8.81 0 0 1-.689-.993l-.323-.555-1.104.042-1.104.043v3.22h3.904l.976-1.934c.536-1.064 1.025-1.937 1.085-1.94.06-.003.11 1.543.11 3.435v3.44h-10.846zm10.923.552c0-.038.428-.818.951-1.732l.952-1.663V82.69c0-4.011-.003-4.06-.347-4.6-.31-.49-1.41-2.43-1.532-2.704-.065-.146 7.463-.125 8.362.022 1.345.222 2.287 1.624 2.41 3.587.102 1.64-.193 2.645-.987 3.363-.323.292-.682.53-.798.53-.407 0-.402.324.012.782.23.255.492.595.582.757.214.388.585 1.7.768 2.712.083.464.4 1.252.742 1.845.328.569.597 1.077.597 1.13 0 .052-.824.095-1.83.095-1.007 0-1.83-.06-1.83-.133 0-.364-.772-4.388-.91-4.748-.273-.705-.5-.83-1.517-.83h-.94v2.362l.95 1.614c.524.887.953 1.64.953 1.674 0 .033-1.483.06-3.294.06-1.812 0-3.295-.031-3.295-.07zm7.71-8.91c.067-.066.145-.665.173-1.331.05-1.171.037-1.22-.35-1.525-.336-.265-.593-.315-1.624-.315h-1.225v1.672c0 .967.061 1.692.145 1.72.272.092 2.76-.098 2.881-.22zm13.225 8.828c0-.136.26-.731 1.175-2.702.255-.548.744-2.345 2-7.352.497-1.976.511-2.105.295-2.562-.126-.265-.379-.81-.562-1.213a58.708 58.708 0 0 0-.389-.841c-.03-.06 1.373-.11 3.117-.11 1.745 0 3.148.05 3.118.11-.793 1.593-1.14 2.405-1.14 2.658 0 .172.267 1.35.594 2.615l1.105 4.28c.28 1.086.63 2.142.776 2.346.147.204.41.632.583.952.556 1.02.83 1.438.976 1.487.078.026.273-.2.432-.503.16-.302.536-.992.84-1.533l.55-.984v-7.963l-.953-1.662c-.523-.915-.952-1.695-.952-1.733 0-.04 1.483-.07 3.294-.07 1.812 0 3.295.039 3.295.087 0 .048-.12.262-.269.476-.147.213-.576.958-.95 1.655l-.685 1.267v8.52h3.387l1.124-2.343c.618-1.288 1.173-2.342 1.234-2.342.131 0 .148 6.8.02 7.283l-.089.33h-8.4c-4.62 0-8.402-.037-8.402-.08 0-.045.242-.457.54-.916 1.023-1.587 1.232-2.068 1.13-2.61l-.094-.503-1.63.04-1.63.043-.044.612c-.035.482.07.825.497 1.61.298.55.587 1.064.644 1.145.056.08.143.26.193.402.085.238-.086.257-2.32.257-1.573 0-2.41-.053-2.41-.153zm6.003-6.545c0-.314-.938-3.697-1.026-3.697-.057 0-.25.708-.432 1.574-.18.866-.362 1.722-.404 1.903-.073.316-.037.33.893.33.532 0 .968-.05.97-.11zm16.396 6.584c0-.063.092-.244.203-.404.112-.16.54-.875.952-1.59l.748-1.302v-8l-.818-1.505c-.45-.828-.879-1.568-.952-1.645-.073-.076-.133-.192-.133-.256 0-.065 1.482-.117 3.294-.117s3.294.028 3.294.063c0 .06-.16.34-1.368 2.374l-.535.9v8.668h1.757c.97 0 1.757-.06 1.757-.135 0-.074.46-1.091 1.024-2.26.564-1.17 1.025-2.196 1.025-2.282 0-.085.066-.155.147-.155.093 0 .146 1.39.146 3.88v3.88h-5.27c-2.9 0-5.27-.052-5.27-.114zm-31.183-.118c0-.047.395-.816.878-1.707l.88-1.622v-14.47l-.43-1.196a94.988 94.988 0 0 0-.95-2.513 39.844 39.844 0 0 1-.525-1.354c0-.02 2.405-.038 5.344-.038h5.344l-.003 4.502c-.004 5.168.12 5.024-1.315 1.52l-.805-1.967-1.903-.014-1.903-.015v4.246l.66.038c.361.02.727-.012.811-.073.085-.061.44-.523.79-1.027.35-.503.66-.915.688-.915.03 0 .052 2.023.052 4.495s-.055 4.432-.122 4.355c-.067-.076-.412-.784-.768-1.572l-.647-1.434-.732.043-.732.043-.04 3.476-.039 3.477.387.769c.213.423.642 1.209.954 1.746.312.538.568 1.048.568 1.135 0 .107-1.02.157-3.22.157-1.772 0-3.22-.038-3.22-.085z"/>
    </g>
</svg>
