<?xml version="1.0" encoding="UTF-8"?>
<svg cursor="default" version="1.1" viewBox="0 0 256 256" xmlns="http://www.w3.org/2000/svg" xmlns:cc="http://creativecommons.org/ns#" xmlns:dc="http://purl.org/dc/elements/1.1/" xmlns:rdf="http://www.w3.org/1999/02/22-rdf-syntax-ns#">
 <metadata>
  <rdf:RDF>
   <cc:Work rdf:about="">
    <dc:format>image/svg+xml</dc:format>
    <dc:type rdf:resource="http://purl.org/dc/dcmitype/StillImage"/>
    <dc:title/>
   </cc:Work>
  </rdf:RDF>
 </metadata>
 <defs>
  <radialGradient id="innoGrad1" cx="228.69" cy="185.22" r="6.184" gradientTransform="matrix(.16671 0 0 .16671 99.368 148.74)" gradientUnits="userSpaceOnUse">
   <stop stop-color="#ffffff" offset="0"/>
   <stop stop-color="#ffd5d5" offset="1"/>
  </radialGradient>
 </defs>
 <g transform="matrix(1.1312 0 0 1 -22.806 0)">
  <g fill="#ff8080" stroke="#000000" stroke-width=".61001">
   <path d="m154.73 190.86c-1.5711 0.022-3.1802 0.076-4.6823 0.58006-0.74331 0.47528 0.64676 0.75961 1.0187 0.9488 2.5179 0.81329 4.9896 1.7687 7.531 2.509 1.8862 0.55604 3.911 0.89172 5.8555 0.44254 1.1347-0.36606 2.0775-1.4139 2.1362-2.6288-0.0903-0.52199-0.26155-1.3397-0.92995-1.3347-1.6242-0.12257-3.2566-0.0964-4.8815-0.22113-2.0139-0.13647-4.0268-0.31529-6.0476-0.29586z"/>
   <path d="m169.37 184.03c-1.1389 0.15592-2.281 0.34464-3.4304 0.44418-3.4118 0.37138-6.8975 0.53162-10.164 1.6838-2.1736 0.75724-4.3721 1.6318-6.18 3.0898-0.92151 0.71511 0.46528 0.94306 1.0498 0.76793 1.4319-0.20009 2.8734-0.30948 4.3197-0.32904 3.7932-0.12267 7.592-0.0624 11.382-0.27111 1.4059-0.15521 2.9514-0.59694 3.8324-1.7833 0.77805-1.0772 0.68999-2.9059-0.60595-3.546l-0.0994-0.0376z"/>
   <path d="m172.85 177.59c-1.7725 0.73618-3.5279 1.5304-5.383 2.0453-4.03 1.2278-8.1919 2.0842-12.074 3.756-1.899 0.85898-3.7227 1.9644-5.1868 3.461-0.59628 0.96724 1.051-0.0275 1.4319-0.19965 2.4293-1.1463 4.9413-2.1707 7.5634-2.7801 3.7972-0.672 7.6871-0.88549 11.409-1.9423 1.3187-0.40023 2.8794-1.0824 3.2254-2.5625 0.17983-0.7615-0.34243-1.4405-0.98563-1.7779z"/>
  </g>
  <g fill="#ffd5d5" stroke-width=".37622">
   <path d="m153.43 191.12c-1.4425 0.0202-2.9199 0.0698-4.2991 0.53257-0.68246 0.43638 0.59382 0.69744 0.93532 0.87114 2.3118 0.74672 4.5812 1.6239 6.9146 2.3037 1.7318 0.51053 3.5909 0.81873 5.3762 0.40632 1.0418-0.3361 1.9075-1.2982 1.9614-2.4136-0.0829-0.47927-0.24015-1.23-0.85383-1.2254-1.4913-0.11254-2.9901-0.0885-4.4819-0.20303-1.8491-0.1253-3.6972-0.28948-5.5526-0.27164z"/>
   <path d="m166.87 184.86c-1.0457 0.14316-2.0943 0.31644-3.1496 0.40782-3.1326 0.34099-6.3329 0.48811-9.3318 1.546-1.9957 0.69525-4.0143 1.4983-5.6742 2.8369-0.84608 0.65658 0.4272 0.86587 0.96388 0.70508 1.3147-0.18372 2.6382-0.28415 3.9661-0.30211 3.4827-0.11263 6.9706-0.0573 10.451-0.24892 1.2908-0.14251 2.7098-0.54808 3.5187-1.6373 0.71437-0.98901 0.63352-2.668-0.55635-3.2558l-0.0913-0.0345z"/>
   <path d="m170.07 178.94c-1.6274 0.67592-3.2392 1.4051-4.9424 1.8779-3.7001 1.1273-7.5214 1.9136-11.086 3.4485-1.7436 0.78867-3.418 1.8036-4.7622 3.1777-0.54747 0.88807 0.96497-0.0252 1.3147-0.1833 2.2304-1.0525 4.5368-1.993 6.9443-2.5525 3.4864-0.617 7.0579-0.81301 10.475-1.7833 1.2108-0.36747 2.6437-0.99382 2.9614-2.3527 0.16511-0.69916-0.3144-1.3226-0.90496-1.6323z"/>
  </g>
 </g>
 <g transform="matrix(1.0999 0 0 1 -10.37 0)">
  <g fill="#ff8080" stroke="#000000" stroke-width=".61001">
   <path d="m123.03 190.86c-3.2871-0.0116-6.5558 0.42086-9.842 0.44598-0.53347 0.10916-1.2544-0.1925-1.647 0.24112-0.70803 0.74449-0.54797 1.945 0.0803 2.6842 0.66045 0.88439 1.7704 1.2697 2.8417 1.2973 2.7548 0.15071 5.3716-0.87992 7.9436-1.7189 1.7064-0.58559 3.4302-1.1283 5.106-1.7973 0.79698-0.29151-0.0415-0.74248-0.48557-0.75281-1.3075-0.31429-2.6564-0.39415-3.997-0.39963z"/>
   <path d="m108.18 183.97c-0.5376 0.38221-1.1638 0.82419-1.1569 1.5611-0.15578 1.1485 0.32868 2.3915 1.3632 2.9757 0.70831 0.39653 1.4428 0.82616 2.2794 0.83161 2.2788 0.23745 4.577 0.18138 6.8655 0.24232 2.7459 0.0657 5.5014 0.0158 8.2374 0.28685 0.82194 0.0699 1.6819 0.31711 2.4941 0.0871 0.3722-0.64808-0.81026-1.1007-1.248-1.4654-3.1824-1.8778-6.7602-3.0954-10.435-3.5048-2.7982-0.35393-5.6235-0.48966-8.3993-1.0144z"/>
   <path d="m104.81 177.69c-0.92855 0.17952-1.2742 1.3927-0.82345 2.1612 0.78276 1.5604 2.6308 1.9668 4.1787 2.3596 3.0133 0.75314 6.1235 0.94466 9.1729 1.4906 3.4842 0.63099 6.777 1.9929 9.9408 3.545 0.94031 0.16175-0.50528-1.0278-0.80297-1.2804-3.1664-2.6673-7.2614-3.7442-11.154-4.8806-3.4001-0.9579-6.8586-1.8034-10.071-3.3054-0.14207-0.0487-0.28872-0.0903-0.44073-0.0897z"/>
  </g>
  <g fill="#ffd5d5" stroke-width=".37622">
   <path d="m124.32 191.13c-3.018-0.0106-6.0192 0.38641-9.0364 0.40948-0.4898 0.10022-1.1517-0.17675-1.5122 0.22138-0.65007 0.68355-0.50312 1.7858 0.0738 2.4645 0.60639 0.81199 1.6255 1.1658 2.6091 1.1911 2.5293 0.13837 4.9319-0.80789 7.2934-1.5782 1.5667-0.53765 3.1494-1.0359 4.6881-1.6502 0.73175-0.26765-0.0381-0.68171-0.44582-0.69119-1.2005-0.28857-2.439-0.36189-3.6698-0.36693z"/>
   <path d="m110.69 184.8c-0.4936 0.35093-1.0686 0.75673-1.0622 1.4333-0.14302 1.0545 0.30178 2.1957 1.2516 2.7321 0.65033 0.36407 1.3247 0.75853 2.0928 0.76353 2.0923 0.21802 4.2024 0.16653 6.3036 0.22249 2.5212 0.0603 5.0511 0.0145 7.5632 0.26337 0.75466 0.0642 1.5442 0.29115 2.2899 0.0799 0.34174-0.59503-0.74394-1.0106-1.1459-1.3454-2.922-1.7241-6.2069-2.842-9.5812-3.218-2.5692-0.32496-5.1632-0.44958-7.7118-0.93137z"/>
   <path d="m107.6 179.03c-0.85255 0.16482-1.1699 1.2787-0.75605 1.9843 0.7187 1.4327 2.4154 1.8058 3.8367 2.1664 2.7666 0.69149 5.6222 0.86733 8.4221 1.3686 3.199 0.57934 6.2223 1.8298 9.1271 3.2548 0.86335 0.1485-0.46391-0.94367-0.73724-1.1756-2.9072-2.449-6.667-3.4377-10.241-4.4812-3.1218-0.87949-6.2972-1.6557-9.2467-3.0348-0.13045-0.0447-0.26509-0.0829-0.40466-0.0824z"/>
  </g>
 </g>
 <path d="m138.77 170.99c-132.76-38.128-141.32-81.186-129.61-103.91 18.191-35.314 91.366-35.271 120.37-39.431l9.1444-1.5372-3.9753 2.2586 4.4698 1.4038-9.8868-0.3171c-30.368 2.2712-103.11 6.7623-118.65 38.188-25.886 56.369 106.43 96.952 128.53 101.45 38.655-8.1154 106.67-37.252 107.26-95.143 0.294-28.494-42.847-42.224-102.57-44.496l-5.7466-0.13545-2.5778-1.0952 2.7636-1.3912 5.313 0.81375c10.933 2.4906 104.65 2.2606 104.31 46.071-0.6111 78.833-116.6 97.668-109.15 97.268z" fill="#ffb380" fill-rule="evenodd" stroke="#000000" stroke-width=".5985"/>
 <path d="m137.69 177.33-0.0359-8.2521c0.1308-0.67602 1.4988-1.1656 1.8992 0.13035l0.023 8.5984c-1.1437 5.976-1.7315 2.4979-1.8863-0.47665z" fill="#ffccaa" fill-rule="evenodd" stroke="#000000" stroke-width=".5"/>
 <g fill="#ff8080" stroke="#000000" stroke-width=".61001">
  <path d="m134.14 189.61c-0.85537 3.2403-1.9866 6.6086-1.1007 9.9752 0.60611 3.3496 2.325 6.5348 2.0694 10.003-0.31058 3.0902-1.9787 5.792-3.7385 8.2632-0.44393 1.8936 2.5409 0.68586 3.3798 0.11261 1.3063-0.63017 0.0965 2.6126 1.9687 2.1775 1.5324-0.6559 3.0561-0.23506 4.6082-0.0646 1.4431-0.31171 0.37911-3.351 2.235-1.7872 1.0876 1.0039 4.0804 0.66303 2.2706-1.1383-2.2635-3.0022-4.0372-6.8877-3.0376-10.704 0.71597-3.4869 2.3807-6.8348 2.074-10.477-0.0485-2.6158-1.1735-5.0573-1.6563-7.6043-0.78531-3.2462-0.85542-6.6738-2.0794-9.8043-0.62788-1.6579-2.2469-2.2997-3.7866-2.787-0.7127-0.41374-2.3273-2.1209-1.6081-0.22634 0.66402 1.722-0.18795 3.4111-0.26032 5.1482-0.30086 2.9894-0.50782 6.0108-1.3385 8.9131z"/>
  <path d="m100.93 168.15c-1.1188 0.72806 0.31163 3.1724 0.82297 4.3021 2.1716 3.6523 6.448 5.1429 10.38 6.0181 3.6426 0.95479 7.2954 1.8892 10.901 2.9746 3.9199 1.2318 7.39 4.6803 7.6338 8.9262 0.0801 2.91-1.2872 5.676-2.9341 7.9899-0.28998-0.97245 1.226-2.4594 0.78014-3.748-1.2358-1.4314-3.3134-0.0487-4.8278 0.27171-2.7127 0.9072-5.8248 1.8919-8.5779 2.618-0.19575 2.2339 1.8605 4.0229 3.9575 4.2775 3.5068 0.55523 7.0806-0.65623 10.068-2.4316 2.2881-1.3952 2.7134-4.2127 3.336-6.5873 0.40612-1.8297 1.0276-3.621 1.3752-5.4572 0.19438-2.8167-2.1851-4.9339-4.5258-6.0321-4.6377-2.3645-9.8355-3.1127-14.803-4.4754-3.2755-0.96666-6.5943-2.2345-9.2311-4.4541-0.89688-0.84599-2.1095-1.9236-3.0376-2.9595-0.43422-0.41419-0.79501-0.92122-1.3176-1.2326z"/>
  <path d="m176.98 168.1c-1.973 1.2355-3.2232 3.3144-5.1339 4.645-4.0248 3.1395-9.1126 4.2463-13.976 5.3695-4.3689 1.079-9.0213 2.1452-12.487 5.1982-1.4294 1.3885-1.9954 3.6013-1.2222 5.4678 0.85443 2.941 1.266 6.0542 2.6131 8.825 1.5308 2.294 4.3631 3.117 6.8553 3.9089 2.6564 0.68815 5.9678 0.75671 8.0166-1.3532 1.1724-1.0071 1.1473-2.4729-0.69754-3.1316-3.376-1.1396-7.3398-2.6418-10.933-3.0387-2.3071 0.33609 0.0636 2.8029-0.0395 4.2718-1.09-0.8523-1.6604-2.6673-2.3128-3.9968-1.2849-3.0413-0.7306-6.7389 1.5068-9.1926 3.2588-3.5959 8.2448-4.5356 12.753-5.6322 4.0333-0.96343 8.3148-1.7872 11.681-4.3619 1.994-1.675 3.5731-4.1951 3.4978-6.8565l-0.0671-0.0673-0.055-0.0552z"/>
 </g>
 <g fill="#ffd5d5" stroke-width=".37622">
  <path d="m134.53 189.98c-0.78536 2.975-1.824 6.0677-1.0106 9.1587 0.5565 3.0754 2.1347 6 1.9001 9.1839-0.28516 2.8372-1.8168 5.3179-3.4325 7.5868-0.4076 1.7386 2.3329 0.62972 3.1032 0.1034 1.1994-0.57859 0.0886 2.3987 1.8075 1.9992 1.407-0.60221 2.8059-0.21582 4.231-0.0593 1.325-0.28619 0.34808-3.0767 2.0521-1.641 0.99852 0.9217 3.7464 0.60876 2.0848-1.0451-2.0782-2.7564-3.7067-6.3239-2.7889-9.8276 0.65737-3.2015 2.1859-6.2754 1.9042-9.6192-0.0445-2.4017-1.0774-4.6433-1.5208-6.9819-0.72103-2.9805-0.7854-6.1275-1.9092-9.0018-0.57648-1.5222-1.7551-2.758-3.1688-3.2054-0.65436-0.37987-2.1368-1.9473-1.4764-0.20781 0.60966 1.5811-0.48044 3.7784-0.54688 5.3736-0.27623 2.7447-0.46625 5.5188-1.2289 8.1835z"/>
  <path d="m103.75 174.63c1.9939 3.3533 6.9663 4.3167 10.577 5.1203 3.3445 0.87663 6.6982 1.7346 10.009 2.7311 3.599 1.131 6.7851 4.2972 7.009 8.1956 0.0735 2.6718-1.1818 5.2114-2.6939 7.3359-0.26625-0.89285 0.51536-1.9683 0.10598-3.1515-1.1347-1.3142-3.0422-0.0447-4.4326 0.24947-2.4906 0.83295-4.7377 1.4473-7.2655 2.1139-0.17972 2.051 1.7082 3.6936 3.6335 3.9274 3.2197 0.50977 6.5011-0.60252 9.2437-2.2326 2.1008-1.281 2.4913-3.8679 3.063-6.0481 0.37287-1.68 0.94348-3.3246 1.2627-5.0105 0.17847-2.5862-2.0062-4.5301-4.1554-5.5383-4.2581-2.1709-9.0304-2.858-13.591-4.1091-3.0074-0.88754-7.4706-2.4518-9.8916-4.4897-0.82347-0.77675-1.5668-0.96073-2.4189-1.9118-0.39868-0.38028-0.72995-0.84582-1.2097-1.1317-1.0993-0.72537 0.35224 3.0742 0.75573 3.9497z"/>
  <path d="m174.16 171.32c-1.8115 1.1344-3.2642 1.9547-5.0184 3.1764-3.6954 2.8826-8.3668 3.8988-12.832 4.93-4.0113 0.9907-8.2829 1.9696-11.465 4.7727-1.3124 1.2748-1.8321 3.3065-1.1222 5.0203 0.78449 2.7003 1.1624 5.5586 2.3992 8.1026 1.4055 2.1062 4.006 2.8619 6.2942 3.5889 2.439 0.63183 5.4793 0.69477 7.3604-1.2424 1.0764-0.92464 1.0534-2.2704-0.64044-2.8753-3.0996-1.0463-6.0195-2.0052-9.3186-2.3697-2.1183 0.30857-0.66117 2.1531-0.75579 3.5017-1.0008-0.78254-1.5245-2.449-2.1235-3.6697-1.1797-2.7923-0.6708-6.1873 1.3834-8.4401 2.9921-3.3016 7.5699-4.1644 11.709-5.1711 3.7032-0.88457 7.6342-1.6409 10.725-4.0049 1.9771-1.546 3.7014-2.2286 4.5017-5.0074 0.48062-1.0573-0.27802-0.82827-1.0973-0.31206z"/>
 </g>
 <circle cx="137.72" cy="179.78" r="1.0059" fill="url(#innoGrad1)"/>
</svg>
