<?xml version="1.0" encoding="UTF-8" standalone="no"?>
<!-- Created with Inkscape (http://www.inkscape.org/) -->

<svg
   xmlns:dc="http://purl.org/dc/elements/1.1/"
   xmlns:cc="http://creativecommons.org/ns#"
   xmlns:rdf="http://www.w3.org/1999/02/22-rdf-syntax-ns#"
   xmlns:svg="http://www.w3.org/2000/svg"
   xmlns="http://www.w3.org/2000/svg"
   xmlns:xlink="http://www.w3.org/1999/xlink"
   xmlns:sodipodi="http://sodipodi.sourceforge.net/DTD/sodipodi-0.dtd"
   xmlns:inkscape="http://www.inkscape.org/namespaces/inkscape"
   version="1.1"
   viewBox="0 0 256 256"
   id="svg22"
   sodipodi:docname="Nyarlathotep.svg"
   inkscape:version="0.92.3 (2405546, 2018-03-11)">
  <defs
     id="defs26">
    <linearGradient
       inkscape:collect="always"
       id="linearGradient836">
      <stop
         style="stop-color:#000000;stop-opacity:1;"
         offset="0"
         id="stop832" />
      <stop
         style="stop-color:#000000;stop-opacity:0;"
         offset="1"
         id="stop834" />
    </linearGradient>
    <linearGradient
       inkscape:collect="always"
       xlink:href="#linearGradient836"
       id="linearGradient838"
       x1="61.157792"
       y1="124.71609"
       x2="196.81349"
       y2="124.71609"
       gradientUnits="userSpaceOnUse"
       gradientTransform="translate(0,796.36)" />
  </defs>
  <sodipodi:namedview
     pagecolor="#ffffff"
     bordercolor="#666666"
     borderopacity="1"
     objecttolerance="10"
     gridtolerance="10"
     guidetolerance="10"
     inkscape:pageopacity="0"
     inkscape:pageshadow="2"
     inkscape:window-width="1920"
     inkscape:window-height="1017"
     id="namedview24"
     showgrid="false"
     inkscape:zoom="1.84375"
     inkscape:cx="3.4588186"
     inkscape:cy="111.28584"
     inkscape:window-x="1912"
     inkscape:window-y="-8"
     inkscape:window-maximized="1"
     inkscape:current-layer="g20" />
  <style
     id="style2">svg { cursor: default;}</style>
  <metadata
     id="metadata4">
    <rdf:RDF>
      <cc:Work
         rdf:about="">
        <dc:format>image/svg+xml</dc:format>
        <dc:type
           rdf:resource="http://purl.org/dc/dcmitype/StillImage" />
        <dc:title />
      </cc:Work>
    </rdf:RDF>
  </metadata>
  <g
     transform="translate(0 -796.36)"
     id="g20">
    <flowRoot
       fill="#ff5555"
       font-family="'R' lyehian '"
       font-size="40px"
       letter-spacing="0px"
       word-spacing="0px"
       writing-mode="lr"
       style="font-feature-settings:normal;font-variant-caps:normal;font-variant-ligatures:normal;font-variant-numeric:normal;line-height:1.25"
       xml:space="preserve"
       id="flowRoot12"><flowRegion
         fill="#ff5555"
         id="flowRegion8"><rect
           x="26.163"
           y="21.948"
           width="195.87"
           height="195.16"
           fill="#f55"
           id="rect6" /></flowRegion><flowPara
         id="flowPara10" /></flowRoot>    <text
       x="31.819807"
       y="841.64435"
       fill="#ff5555"
       font-size="40px"
       letter-spacing="0px"
       word-spacing="0px"
       style="font-feature-settings:normal;font-variant-caps:normal;font-variant-ligatures:normal;font-variant-numeric:normal;line-height:1.25"
       xml:space="preserve"
       id="text16"><tspan
         x="31.819807"
         y="878.13757"
         fill="#ff5555"
         id="tspan14" /></text>
    <path
       style="font-variant-ligatures:normal;font-variant-caps:normal;font-variant-numeric:normal;font-feature-settings:normal;fill:#ff5555;stroke:url(#linearGradient838);stroke-opacity:1"
       d="m 185.21094,814.00844 c -9.398,3.62905 -19.98961,-1.55346 -28.93884,3.88491 -9.68614,2.11419 -20.00972,2.64997 -29.98323,3.20889 -11.73704,-3.66029 -24.11329,-0.35375 -36.008812,-2.89096 -9.5121,-0.72723 -13.337786,9.50764 -17.457527,16.19955 -6.41635,11.77148 -10.255726,25.08529 -11.145273,38.45295 2.547461,7.67618 2.836376,15.69959 1.94001,23.72165 0.165713,10.55048 1.961161,21.05138 0.708033,31.62146 0.162078,14.83576 7.579895,29.63247 2.682082,44.43382 -2.109967,14.1767 -4.147652,29.25289 0.973086,43.04939 6.313252,7.0494 17.344561,2.9648 25.749832,3.875 11.466569,-0.1 22.958409,0.4204 34.369309,-0.8301 11.14129,1.1206 22.39487,2.3221 33.57604,0.8474 8.90954,-1.6994 8.66655,11.8068 18.63468,8.8593 11.00889,2.8535 15.11336,-7.9714 11.96342,-16.7573 -0.74251,-9.3756 -0.14777,-18.92076 3.07406,-27.79656 -0.43836,-16.07266 0.25251,-32.15498 0.93149,-48.20557 -2.2008,-14.37739 -2.78292,-28.99435 -2.90424,-43.53479 2.20945,-10.44085 -2.94155,-20.44164 -3.75761,-30.76425 -2.08613,-11.33884 -0.17918,-23.29297 -3.56075,-34.38098 0.29006,-3.00067 12.4825,-10.7639 2.70697,-13.13248 l -1.81977,-0.1463 z m -95.095706,9.55078 c 8.175622,2.6434 16.865526,0.40795 25.307416,0.96875 12.29124,-10e-4 24.70633,-1.40034 36.82872,1.39177 8.76879,2.07811 17.92552,-2.52322 26.26429,1.6551 8.3352,7.11383 2.01377,19.5395 4.7825,28.8951 3.26336,17.39272 7.57563,34.92707 5.75613,52.74742 -0.43154,10.90338 1.57146,21.8069 -0.0522,32.69363 -0.36361,12.65609 2.71333,25.3691 -0.19549,37.93715 -1.99971,10.79183 2.38867,24.08126 -6.85637,32.45196 -6.92644,3.0037 -15.77564,1.0016 -23.48509,1.9724 -12.69388,-1.3078 -25.54366,-2.0295 -38.15452,0.4488 -10.61892,2.061 -21.253307,-0.4895 -31.84233,-0.1205 -10.98533,3.394 -18.415484,-6.7332 -15.979939,-16.90486 -0.09818,-11.55334 -0.07023,-23.12945 1.700401,-34.56848 0.410748,-8.83633 -0.55382,-17.67293 -2.792198,-26.1991 -2.281287,-18.71446 1.950329,-37.68484 -1.446129,-56.3593 -1.948693,-7.18999 -0.972654,-14.45824 0.503348,-21.61833 0.93893,-7.88597 0.193584,-17.09322 7.091219,-22.65714 4.724775,-3.79247 5.968041,-11.53641 12.570272,-12.73437 z m 70.919926,3.97266 c 4.87521,6.84269 4.67968,15.54587 6.57603,23.6189 2.87902,4.09781 1.30456,17.77904 -3.85918,8.42438 -5.89696,-6.9947 -15.21675,-9.9291 -22.98271,-14.34755 -4.01722,-3.57368 -14.66666,-13.51537 -9.80055,-2.15081 -8.73492,-1.23314 -17.94054,-2.93263 -26.7079,0.84104 -6.656941,3.97433 -12.479678,10.72827 -15.065615,18.06206 -2.374802,9.93355 1.883471,19.68774 6.717649,28.13988 5.969146,4.19242 17.032766,11.57025 5.268756,17.04686 -1.611347,7.74009 11.69797,-4.34691 17.23224,-2.94081 10.26514,-0.0784 19.79534,4.81327 30.08491,4.99073 4.04141,0.79261 21.16519,1.63412 11.35568,-3.53359 -9.1511,-1.27583 -19.41164,0.87806 -27.31519,-5.78329 -7.74667,-1.90246 -15.86042,-3.48525 -21.32498,-10.09327 -7.78136,-8.49873 -9.89354,-21.84601 -6.09527,-32.55088 4.67995,-9.45685 15.37397,-10.4353 24.44779,-7.7076 12.94665,-0.62343 25.46843,6.6981 32.79246,17.12955 2.7845,5.53083 14.89422,10.11467 10.66469,-0.11706 0.003,-11.93527 2.24936,-25.54792 -5.98491,-35.52659 -1.77137,-1.5086 -3.78646,-2.76635 -6.0039,-3.50195 z m -27.33399,31.46289 c -6.33892,0.47497 -6.53836,12.42046 0.41016,5.25976 5.2859,5.0772 15.92524,7.09997 15.84961,-2.90625 -4.78553,4.0468 -9.79593,3.40184 -13.93743,-1.79953 l -1.19526,-0.45008 z m -12.02344,49.14062 c -11.00108,2.50857 -23.255846,3.33615 -31.937719,11.35031 6.519641,3.27818 18.084219,-5.53875 26.813869,-5.75259 9.19262,2.41246 18.88069,-0.50762 27.8983,2.89833 6.49741,4.10009 19.24452,-0.76241 16.71191,10.32622 -0.94492,6.50205 0.15915,17.0581 -9.49348,13.32963 -11.6355,0.49554 -21.65795,-5.95955 -31.22331,-11.66557 3.74215,8.04978 10.16316,15.61283 19.51066,16.66929 4.5265,3.11949 15.28572,1.15438 16.2741,4.44707 -4.77734,11.99023 -12.38763,24.63679 -25.43475,28.71517 -4.04335,1.92736 -14.24877,7.04955 -14.06394,7.86361 12.68271,-2.84054 27.39772,-4.41993 35.4314,-16.0945 6.77676,-6.58331 14.6801,-13.07309 17.28448,-22.59674 3.84025,-0.39749 8.65267,0.49358 6.06055,5.21876 9.2867,4.68427 12.74735,-18.31399 4.37304,-14.67188 -2.90113,3.75602 -11.40406,3.36656 -7.28587,-2.66194 2.44656,-6.34653 0.37531,-15.04433 4.1432,-18.93189 -8.5421,-2.88599 -17.26696,0.48301 -26.28287,-2.22363 -10.20175,0.52442 -18.61126,-7.20965 -28.77957,-6.21965 z m -36.072261,29.20703 c 0.988866,7.89414 8.258807,13.81195 7.789062,22.42383 1.318041,12.37583 3.02016,24.83075 1.874507,37.27568 -1.954133,11.58557 9.522002,14.28037 18.497452,11.40777 10.17746,-1.2432 20.33825,-2.5279 30.60045,-2.5711 8.9257,0.4985 16.80116,-6.23809 15.4865,-15.55917 1.54686,-5.74129 -5.25333,7.41829 -9.36702,7.5082 -4.04605,3.39617 -20.11531,6.25257 -13.88266,-2.34075 8.62399,-1.66291 14.41721,-8.37945 20.31409,-14.31366 4.15949,-4.63442 12.58115,-14.33969 10.24127,-18.16429 -12.23277,13.6892 -24.5867,29.1175 -42.47797,35.42403 -9.08523,4.36214 -19.54194,-0.57304 -19.25456,-11.23383 -2.91454,-15.02747 -3.29944,-30.9271 -9.755132,-44.98861 -1.539151,-2.88484 -7.125207,-9.33948 -10.065989,-4.8681 z"
       id="path18"
       inkscape:connector-curvature="0" />
  </g>
</svg>
