<?xml version="1.0" encoding="UTF-8" standalone="no"?>
<svg
   xmlns:dc="http://purl.org/dc/elements/1.1/"
   xmlns:cc="http://creativecommons.org/ns#"
   xmlns:rdf="http://www.w3.org/1999/02/22-rdf-syntax-ns#"
   xmlns:svg="http://www.w3.org/2000/svg"
   xmlns="http://www.w3.org/2000/svg"
   xmlns:xlink="http://www.w3.org/1999/xlink"
   xmlns:sodipodi="http://sodipodi.sourceforge.net/DTD/sodipodi-0.dtd"
   xmlns:inkscape="http://www.inkscape.org/namespaces/inkscape"
   cursor="default"
   viewBox="0 0 256 256"
   version="1.1"
   id="svg3887"
   sodipodi:docname="Womens_cropped_leather_jacket.svg"
   inkscape:version="0.92.5 (2060ec1f9f, 2020-04-08)">
  <metadata
     id="metadata3891">
    <rdf:RDF>
      <cc:Work
         rdf:about="">
        <dc:format>image/svg+xml</dc:format>
        <dc:type
           rdf:resource="http://purl.org/dc/dcmitype/StillImage" />
        <dc:title></dc:title>
      </cc:Work>
    </rdf:RDF>
  </metadata>
  <sodipodi:namedview
     pagecolor="#ffffff"
     bordercolor="#666666"
     borderopacity="1"
     objecttolerance="10"
     gridtolerance="10"
     guidetolerance="10"
     inkscape:pageopacity="0"
     inkscape:pageshadow="2"
     inkscape:window-width="1680"
     inkscape:window-height="998"
     id="namedview3889"
     showgrid="false"
     showguides="true"
     inkscape:zoom="3.1210938"
     inkscape:cx="128"
     inkscape:cy="128"
     inkscape:window-x="-8"
     inkscape:window-y="-8"
     inkscape:window-maximized="1"
     inkscape:current-layer="svg3887" />
  <defs
     id="defs3825">
    <linearGradient
       id="innoGrad1">
      <stop
         offset="0"
         stop-color="#f55"
         id="stop3803" />
      <stop
         offset="1"
         stop-color="#ff8080"
         id="stop3805" />
    </linearGradient>
    <linearGradient
       id="innoGrad2">
      <stop
         offset="0"
         stop-color="#f55"
         id="stop3808" />
      <stop
         offset="1"
         stop-color="#ff8080"
         id="stop3810" />
    </linearGradient>
    <linearGradient
       id="innoGrad3">
      <stop
         offset="0"
         stop-color="#ff2a2a"
         id="stop3813" />
      <stop
         offset=".307"
         stop-color="#f55"
         id="stop3815" />
      <stop
         offset=".522"
         stop-color="#f55"
         id="stop3817" />
      <stop
         offset="1"
         stop-color="#ff2a2a"
         id="stop3819" />
    </linearGradient>
    <linearGradient
       id="linearGradient4693"
       x1="96.429"
       x2="147.857"
       y1="85.464"
       y2="93.143"
       gradientUnits="userSpaceOnUse"
       xlink:href="#innoGrad3"
       gradientTransform="matrix(1.0183278,0,0,0.72639806,-3.6555766,6.7458749)" />
    <linearGradient
       id="linearGradient4705"
       x1="107.834"
       x2="76.772"
       y1="63.061"
       y2="71.395"
       gradientUnits="userSpaceOnUse"
       xlink:href="#innoGrad2"
       gradientTransform="matrix(1.0183278,0,0,0.72639806,-3.6555766,6.7458749)" />
    <linearGradient
       id="linearGradient4713"
       x1="141.421"
       x2="175.261"
       y1="51.444"
       y2="66.091"
       gradientUnits="userSpaceOnUse"
       xlink:href="#innoGrad1"
       gradientTransform="matrix(1.0183278,0,0,0.72639806,-3.6555766,6.7458749)" />
  </defs>
  <path
     d="M 95.037697,26.647729 C 114.10792,19.571158 133.2036,11.410077 151.77383,25.350382 L 141.77181,131.06746 89.218972,130.93742 Z"
     id="path3827"
     style="fill:url(#linearGradient4693);fill-rule:evenodd;stroke:#000000;stroke-width:0.86006469"
     inkscape:connector-curvature="0" />
  <path
     d="m 90.31062,146.76273 c 15.35638,-3.27605 35.34616,-2.69565 54.91638,-2.46466 l -2.18228,-20.4946 c -13.19243,0.4598 -24.2362,-0.13584 -49.461195,2.20534 z"
     id="path3829"
     inkscape:connector-curvature="0"
     style="fill:#ff5555;fill-rule:evenodd;stroke:#000000;stroke-width:0.86006469" />
  <path
     d="m 74.086744,32.943995 c -18.446517,-0.328 -17.397389,4.554 -17.115032,14.286 2.380614,81.977995 -7.928038,129.638995 -12.597306,193.476995 7.166451,5.49 25.676435,3.785 26.641373,0.08 5.6083,-80.403 12.697037,-84.384 10.935539,-135.522 C 79.329793,81.157995 100.96644,33.420995 74.086744,32.943995 Z"
     id="path3831"
     inkscape:connector-curvature="0"
     style="fill:#ff8080;fill-rule:evenodd;stroke:#000000;stroke-width:1.13807714" />
  <path
     d="m 91.709802,27.921105 c -7.724016,1.988878 -10.614031,5.179218 -20.402197,5.147256 -3.182274,5.686246 -1.786147,38.292074 7.124221,54.426828 7.426665,13.449251 -1.151729,33.950401 -4.252537,51.997031 5.782065,7.78699 9.93888,9.93712 16.898132,11.93835 1.744395,-3.23974 3.520359,-6.85139 5.050905,-9.33712 0,0 8.762714,-16.23864 9.365564,-24.77598 1.49694,-21.200663 -2.05703,-38.458427 -6.400188,-57.487151 4.007118,-11.165464 -2.380856,-30.061984 -7.3839,-31.909214 z"
     id="path3833"
     style="fill:url(#linearGradient4705);fill-rule:evenodd;stroke:#000000;stroke-width:0.86006469"
     inkscape:connector-curvature="0" />
  <path
     d="M 89.181294,151.06229 C 99.059076,134.65441 105.67718,116.89107 103.96843,95.662083"
     id="path3835"
     inkscape:connector-curvature="0"
     style="fill:none;stroke:#000000;stroke-width:0.43003234" />
  <path
     d="M 105.70264,101.62218 C 104.01426,87.66226 80.705752,80.608936 72.125322,65.950949 77.056066,53.374092 86.556045,46.541593 99.562129,42.87764 c 6.606901,21.46579 5.388991,39.527677 6.140511,58.74454 z"
     id="path3837"
     inkscape:connector-curvature="0"
     style="fill:#ff8080;fill-rule:evenodd;stroke:#000000;stroke-width:0.86006469" />
  <path
     d="m 105.7668,10.81028 -5.27291,15.495908 c 8.63543,-6.496975 36.16185,-9.663416 52.55285,2.415403 l -8.22809,-17.87164 C 135.14047,0.21280071 113.03257,4.1005262 105.7668,10.810289 Z"
     id="path3839"
     inkscape:connector-curvature="0"
     style="fill:#ff5555;fill-rule:evenodd;stroke:#000000;stroke-width:0.95819134" />
  <path
     d="m 179.43636,31.758413 c 6.48174,0.991339 8.79649,0.761348 14.63314,0.709799 6.11652,-0.05452 5.8758,4.937859 5.9505,9.039029 0.11147,6.13044 -0.78857,11.878224 -0.61306,17.997759 1.7645,61.49276 7.42566,122.83087 7.32132,184.7043 -8.77516,3.75717 -17.97839,2.87191 -27.31563,0.53136 -1.03404,-52.94741 1.15026,-105.75406 -9.95267,-159.1456 z"
     id="path3841"
     inkscape:connector-curvature="0"
     style="fill:#ff8080;fill-rule:evenodd;stroke:#000000;stroke-width:1.08423269" />
  <path
     d="m 124.13336,99.027482 c 3.51527,13.707138 4.50202,26.551298 10.54682,41.119948 3.20264,7.72015 9.68328,18.6815 12.91138,18.93792 5.00202,0.39807 24.47245,-9.11193 30.73109,-15.69529 -0.85132,-29.14889 -11.75456,-32.74529 -13.09264,-46.242497 -0.43074,-4.349669 8.16088,-19.857541 13.04682,-36.840727 2.76985,-9.624774 3.92362,-18.940103 5.40427,-27.951797 -11.54988,-2.118903 -22.47959,-4.23708 -33.54372,-6.355984 -2.28717,4.084537 -1.86965,9.159881 -6.056,12.008814 -6.03562,4.107053 -12.65781,40.485069 -19.94904,61.020346 z"
     id="path3843"
     style="fill:url(#linearGradient4713);fill-rule:evenodd;stroke:#000000;stroke-width:0.86006469"
     inkscape:connector-curvature="0" />
  <path
     d="m 126.11299,98.333052 c 2.93584,17.373258 6.9786,36.365658 16.77898,52.894118"
     id="path3845"
     inkscape:connector-curvature="0"
     style="fill:none;stroke:#000000;stroke-width:0.43003234" />
  <path
     d="m 144.86346,130.28948 c 0,0 2.80039,-18.93575 4.81872,-28.3426 2.56925,-11.975401 9.27392,-35.736607 9.27392,-35.736607"
     id="path3847"
     inkscape:connector-curvature="0"
     style="fill:none;stroke:#000000;stroke-width:0.86006469" />
  <path
     d="m 145.31763,130.2241 c 0,0 2.80041,-18.93502 4.81975,-28.3426 2.56923,-11.97467 9.27391,-35.735877 9.27391,-35.735877"
     id="path3849"
     inkscape:connector-curvature="0"
     style="fill:none;stroke:#e3dedb;stroke-width:0.86006469;stroke-dasharray:0.86006472, 0.86006472" />
  <path
     d="m 141.18119,41.013703 c -11.27493,19.298217 -19.71585,55.18446 -16.54783,59.279167 20.2077,-24.236998 32.17916,-26.734355 48.05183,-39.530583 -2.24235,-5.161785 -19.6802,-12.959668 -31.504,-19.748584 z"
     id="path3851"
     inkscape:connector-curvature="0"
     style="fill:#ff8080;fill-rule:evenodd;stroke:#000000;stroke-width:0.86006469" />
  <path
     d="m 119.76881,23.891684 -0.36355,3.863383 a 55.99479,49.576623 0 0 1 15.82074,0.563506 l 0.36354,-3.944529 c -5.6456,-0.592354 -10.65577,-1.59494 -15.82073,-0.48236 z"
     id="path3853"
     inkscape:connector-curvature="0"
     style="fill:#999999;fill-rule:evenodd;stroke:#000000;stroke-width:0.95819134" />
  <path
     d="M 99.948076,45.304832 C 94.446049,34.303435 84.286192,49.96163 75.399246,58.345665 73.43591,56.831869 71.570334,55.289221 71.034693,53.354375 81.798418,32.261295 93.380878,20.265425 107.03971,9.6427004 101.51731,19.83536 97.539728,30.856595 99.948076,45.304832 Z M 140.9541,7.831374 c 3.68227,9.591286 8.1568,20.310483 0.49287,33.125915 5.85742,-2.4136 10.10385,9.636368 28.51114,14.812489 l 8.36454,-5.956914 C 163.47645,31.170352 154.77382,17.087263 140.9541,7.831374 Z"
     id="path3855"
     inkscape:connector-curvature="0"
     style="fill:#ff8080;fill-rule:evenodd;stroke:#000000;stroke-width:0.95819134" />
  <path
     d="m 44.598479,236.06899 c 7.0447,2.311 14.382119,4.274 26.134942,0.982"
     id="path3857"
     inkscape:connector-curvature="0"
     style="fill:none;stroke:#000000;stroke-width:0.56903857" />
  <path
     d="m 74.435908,137.98422 c -0.415478,2.42035 -0.989815,6.31021 -1.156821,8.6187 -0.120162,1.66345 -0.526475,2.50825 0.483706,3.6625 3.329932,3.80851 6.052941,7.58215 11.305475,8.62888 1.604885,0.31962 3.919544,-3.54337 6.267807,-7.94534 -6.361493,-0.76997 -12.198547,-8.41313 -16.900167,-12.96474 z m 66.425522,14.01947 c 2.51119,3.94145 5.05701,6.94873 6.73013,7.08239 5.00202,0.39734 24.47245,-9.11266 30.73109,-15.69602 -0.13951,-3.19614 -0.4114,-6.23248 -0.76375,-9.20347 -5.57228,4.35404 -24.47652,14.53669 -36.69747,17.8171 z"
     id="path3859"
     inkscape:connector-curvature="0"
     style="fill:#ff5555;fill-rule:evenodd;stroke:#000000;stroke-width:0.86006469" />
  <path
     d="m 72.85139,65.026971 c 11.395088,13.248048 29.36654,22.639648 32.5315,30.726637 m 18.5855,2.920122 c 10.75354,-14.456049 37.15064,-31.854009 47.89502,-38.642199"
     id="path3861"
     inkscape:connector-curvature="0"
     style="fill:none;stroke:#000000;stroke-width:0.43003234" />
  <path
     d="M 98.885956,135.15998 C 103.6558,125.02891 106.84521,114.7925 104.99695,101.25752 105.04787,96.550467 99.07537,90.024507 91.770902,84.718168 80.653817,76.641349 77.345271,74.159247 71.746504,66.407853"
     id="path3863"
     inkscape:connector-curvature="0"
     style="fill:none;stroke:#e3dbdb;stroke-width:0.86006469;stroke-dasharray:0.86006472, 0.86006472" />
  <path
     d="m 72.02349,67.452414 -0.964357,4.127393 c 0.88289,0.890564 1.598774,0.469254 2.314659,0.04649 l -0.707738,-4.082358 z"
     id="path3865"
     inkscape:connector-curvature="0"
     style="fill:#e3dedb;fill-rule:evenodd;stroke:#000000;stroke-width:0.43003234" />
  <path
     d="m 72.651798,67.474932 0.199592,-0.958845 c -0.274949,-0.489594 -0.782076,-0.321795 -1.310588,-0.08934 l 0.384928,1.031485 z"
     id="path3867"
     inkscape:connector-curvature="0"
     style="fill:#e3dedb;fill-rule:evenodd;stroke:#000000;stroke-width:0.43003234" />
  <ellipse
     cx="76.126335"
     cy="64.604935"
     rx="1.8380816"
     ry="1.2624799"
     id="ellipse3869"
     style="fill:#e3dedb;stroke:#000000;stroke-width:0.43003234;stroke-linecap:round;stroke-linejoin:round" />
  <ellipse
     cx="168.13124"
     cy="59.661797"
     rx="1.8380816"
     ry="1.2624799"
     id="ellipse3871"
     style="fill:#e3dedb;stroke:#000000;stroke-width:0.43003234;stroke-linecap:round;stroke-linejoin:round" />
  <ellipse
     cx="169.41737"
     cy="50.249249"
     rx="1.8380816"
     ry="1.5669918"
     id="ellipse3873"
     style="fill:#e3dedb;stroke:#000000;stroke-width:0.47909567;stroke-linecap:round;stroke-linejoin:round" />
  <ellipse
     cx="28.463232"
     cy="84.483765"
     rx="1.6965249"
     ry="1.3058809"
     transform="matrix(0.8593508,-0.51138655,0.60464748,0.79649321,0,0)"
     id="ellipse3875"
     style="fill:#e3dedb;stroke:#000000;stroke-width:0.42006004;stroke-linecap:round;stroke-linejoin:round" />
  <path
     d="m 142.40623,39.102685 c 4.06822,-2.181887 14.43378,11.078034 27.13946,14.390538 2.30244,-0.861937 4.35538,-2.277459 6.17208,-4.212305 C 166.76362,39.157683 160.38176,28.750442 153.21578,18.428852 M 99.220993,41.439648 c -5.340116,-6.298623 -15.551908,6.52763 -23.731116,14.410372 -1.515272,-0.590553 -2.363539,-1.502978 -2.909362,-2.737278 5.5896,-9.811277 11.809547,-19.543215 19.093646,-29.140814"
     id="path3877"
     inkscape:connector-curvature="0"
     style="fill:none;stroke:#000000;stroke-width:0.47909567" />
  <path
     d="m 168.96422,107.99415 a 19.994867,14.262826 0 0 0 -0.51731,-0.7867 c -4.07942,-3.00366 -10.04479,-5.0521 -15.40017,-6.49326 5.30753,1.60242 11.07533,3.77872 14.89916,6.82594 0.34419,0.14383 0.68431,0.29493 1.01832,0.45402 z m -2.96231,-6.80635 a 7.4378661,5.3056114 0 0 0 -0.17211,-0.97411 c -0.87066,-1.2712 -2.39307,-2.324475 -4.09978,-3.218664 -2.09979,-1.10195 -4.53359,-1.993239 -6.50101,-2.766127 1.92464,0.84698 4.28207,1.798561 6.29836,2.954259 1.64154,0.940689 3.02037,1.997592 3.7556,3.210682 0.26782,0.24334 0.51018,0.50703 0.71894,0.79396 z m -0.53565,-5.882379 c 0.0326,-0.252787 0.0387,-0.507753 0.0214,-0.764171 -0.49083,-1.150614 -1.46944,-2.155949 -2.43992,-3.036345 0.86559,0.953761 1.68534,1.985247 2.01833,3.11407 0.15275,0.217193 0.28819,0.446008 0.4002,0.686446 z M 89.03771,135.34739 c -2.659872,-6.03491 -5.022393,-12.36185 -6.336036,-18.72655 -0.938897,-3.60147 -1.541748,-7.23275 -1.665984,-10.84729 -0.122199,3.61746 0.234216,7.27705 0.934825,10.93083 1.56517,6.37052 4.175144,12.66983 7.067195,18.64373 z m 5.455182,-16.60256 c -1.865577,-2.78065 -3.251521,-5.66299 -4.365572,-8.59692 -1.776981,-3.97049 -3.056001,-8.06519 -4.363534,-12.157725 1.089611,4.115045 2.158855,8.258425 3.735226,12.292105 1.33401,2.91213 2.930748,5.74945 4.99388,8.46254 z m -37.256541,-15.55 c 0.180245,-0.30074 0.358452,-0.59855 0.537678,-0.89346 2.219955,-12.854349 3.248465,-20.732864 2.492866,-32.202688 0.507127,11.469099 -0.766801,19.322188 -3.228099,32.134388 0.0662,0.31744 0.132383,0.63851 0.197555,0.96176 z m 121.491599,8.54681 c 0.20977,-0.17507 0.41548,-0.35377 0.61914,-0.53464 3.44195,-7.02718 2.40631,-15.306659 1.03462,-22.52633 1.16905,7.277056 1.96639,15.48753 -1.62728,22.37306 -0.005,0.22882 -0.0132,0.45763 -0.0265,0.68791 z m 20.10281,-51.919311 a 10.735212,7.6576884 0 0 1 -0.2271,-0.762718 c -1.21384,-1.593719 -1.80548,-3.691556 -2.13848,-5.878014 -0.38188,-2.501715 -0.41547,-5.008514 -0.69246,-7.006109 0.15275,1.965633 0.0733,4.540715 0.33095,7.03008 0.22709,2.189365 0.71895,4.369284 1.89409,6.07632 0.27088,0.196127 0.54787,0.377727 0.833,0.540441 z"
     id="path3879"
     inkscape:connector-curvature="0"
     style="fill-rule:evenodd;stroke-width:0.86006469" />
  <path
     d="m 179.16361,239.22782 c 6.45092,2.28999 16.76765,2.95221 27.52907,-0.31028"
     id="path3881"
     inkscape:connector-curvature="0"
     style="fill:none;stroke:#000000;stroke-width:0.54211634" />
  <path
     d="m 145.03352,130.92435 -0.96436,4.1274 c 0.88289,0.88983 1.59877,0.46925 2.31467,0.0457 l -0.70775,-4.08163 z"
     id="path3883"
     inkscape:connector-curvature="0"
     style="fill:#e3dedb;fill-rule:evenodd;stroke:#000000;stroke-width:0.43003234" />
  <path
     d="m 145.66182,130.94686 0.1996,-0.95956 c -0.27495,-0.48886 -0.78106,-0.3218 -1.31059,-0.0886 l 0.38493,1.03148 z"
     id="path3885"
     inkscape:connector-curvature="0"
     style="fill:#e3dedb;fill-rule:evenodd;stroke:#000000;stroke-width:0.43003234" />
</svg>
