<svg xmlns="http://www.w3.org/2000/svg" xmlns:xlink="http://www.w3.org/1999/xlink" viewBox="0 0 256 256">
    <defs>
        <linearGradient id="innoGrad2">
            <stop offset="0" stop-color="#222f37"/>
            <stop offset=".5" stop-color="#1f2a32"/>
            <stop offset="1" stop-color="#222f37"/>
        </linearGradient>
        <linearGradient id="innoGrad1">
            <stop offset="0" stop-color="#bbe601"/>
            <stop offset=".5" stop-color="#d0ff01"/>
            <stop offset="1" stop-color="#bbe601"/>
        </linearGradient>
        <linearGradient id="linearGradient906" x1="40.971" x2="82.25" y1="43.618" y2="40.75" gradientUnits="userSpaceOnUse" xlink:href="#innoGrad1"/>
        <linearGradient id="linearGradient916" x1="184" x2="208.494" y1="157.499" y2="122.324" gradientUnits="userSpaceOnUse" xlink:href="#innoGrad2"/>
        <linearGradient id="linearGradient926" x1="83.127" x2="71.5" y1="89.143" y2="125.5" gradientUnits="userSpaceOnUse" xlink:href="#innoGrad2"/>
        <linearGradient id="linearGradient934" x1="53.398" x2="83.126" y1="107.416" y2="89.144" gradientUnits="userSpaceOnUse" xlink:href="#innoGrad2"/>
        <linearGradient id="linearGradient942" x1="44.691" x2="83.127" y1="79.328" y2="79.328" gradientUnits="userSpaceOnUse" xlink:href="#innoGrad2"/>
        <linearGradient id="linearGradient950" x1="82.532" x2="92.125" y1="129.018" y2="92.717" gradientUnits="userSpaceOnUse" xlink:href="#innoGrad1"/>
        <linearGradient id="linearGradient958" x1="184" x2="208.494" y1="157.499" y2="122.324" gradientUnits="userSpaceOnUse" xlink:href="#innoGrad1"/>
        <linearGradient id="linearGradient987" x1="185.699" x2="226.252" y1="40.75" y2="45.068" gradientUnits="userSpaceOnUse" xlink:href="#innoGrad1"/>
        <linearGradient id="linearGradient995" x1="59.455" x2="83.949" y1="122.324" y2="157.499" gradientUnits="userSpaceOnUse" xlink:href="#innoGrad2"/>
        <linearGradient id="linearGradient1003" x1="184.587" x2="196.449" y1="88.7" y2="125.5" gradientUnits="userSpaceOnUse" xlink:href="#innoGrad2"/>
        <linearGradient id="linearGradient1011" x1="184.822" x2="209.392" y1="89.143" y2="108.244" gradientUnits="userSpaceOnUse" xlink:href="#innoGrad2"/>
        <linearGradient id="linearGradient1019" x1="184.822" x2="223.258" y1="79.328" y2="79.328" gradientUnits="userSpaceOnUse" xlink:href="#innoGrad2"/>
        <linearGradient id="linearGradient1027" x1="175.824" x2="185.418" y1="92.717" y2="129.018" gradientUnits="userSpaceOnUse" xlink:href="#innoGrad1"/>
        <linearGradient id="linearGradient1035" x1="59.455" x2="83.949" y1="122.324" y2="157.499" gradientUnits="userSpaceOnUse" xlink:href="#innoGrad1"/>
        <linearGradient id="linearGradient864" x1="184.822" x2="223.258" y1="79.328" y2="79.328" gradientUnits="userSpaceOnUse" xlink:href="#innoGrad2"/>
        <linearGradient id="linearGradient872" x1="44.691" x2="83.127" y1="79.328" y2="79.328" gradientUnits="userSpaceOnUse" xlink:href="#innoGrad2"/>
        <linearGradient id="linearGradient867" x1="184.822" x2="209.392" y1="89.143" y2="108.244" gradientUnits="userSpaceOnUse" xlink:href="#innoGrad2"/>
        <linearGradient id="linearGradient875" x1="53.398" x2="83.126" y1="107.416" y2="89.144" gradientUnits="userSpaceOnUse" xlink:href="#innoGrad2"/>
    </defs>
    <g stroke-width=".756">
        <path fill="#1f2c34" d="M59.62 45.887c.55 1.875-.45 5.107-.22 8.818.161 2.607 1.125 5.561 1.211 8.707.534 19.195-1.707 44.498.167 46.482 6.33 1.198 20.294 10.379 47.59 17.17 8.152 2.028 20.105 2.996 30.738 4.464 16.952 2.342 34.489 4.924 57.673 7.275 3.036.82 12.447 1.68 21.483 7.605 6.048 3.965 12.16 12.411 17.516 16.202 8.135 5.758 14.312 8.245 14.213 12.234-.08 3.188-5.535 13.857-13.552 23.642-8.617 10.517-19.94 18.441-23.135 19.013-1.471.263-2.825-2.154-6.61-5.456-1.847-1.613-4.717-1.557-6.94-3.637-3.478-3.255-1.877-4.208-5.62-8.102-9.506-9.894-27.1-19.012-28.423-24.799-17.752-.594-29.463-3.448-42.304-4.298-56.626-3.747-67.11-9.944-78-13.226-13.88-4.185-16.635-2.758-25.779-23.146-9.143-20.389-8.816-39.118-12.117-64.809-.496-3.865.704-6.944.551-10.03-.188-3.752-2.484-7.128-1.984-9.148 3.635-14.715 50.236-16.203 53.541-4.961z"/>
        <path fill="url(#linearGradient906)" d="M47.275 93.55c-2.31-10.445-2.734-21.267-4.441-34.55-.375-2.922.533-5.25.417-7.583-.142-2.837-1.879-5.39-1.501-6.917 2.75-11.125 38-12.25 40.5-3.75.417 1.418-.34 3.861-.166 6.667.122 1.971.851 4.205.916 6.583.404 14.513-1.291 33.644.126 35.144z" transform="matrix(1.32202 0 0 1.32262 -49.116 -8.01)"/>
        <path fill="url(#linearGradient916)" d="M172.373 109.496c4.271.51 8.786 1.014 13.627 1.504 2.297.62 9.415 1.271 16.25 5.75 4.575 2.998 9.199 9.384 13.25 12.25 6.153 4.354 10.826 6.234 10.751 9.25-.061 2.41-4.187 10.477-10.251 17.875-6.518 7.952-15.083 13.943-17.5 14.375-1.113.199-2.137-1.628-5-4.125-1.397-1.219-3.568-1.177-5.25-2.75-2.63-2.461-1.419-3.181-4.25-6.125-7.191-7.481-20.5-14.375-21.5-18.75z" transform="matrix(1.32202 0 0 1.32262 -49.116 -8.01)"/>
        <path fill="url(#linearGradient926)" d="M83.126 89.143c4.789.906 15.351 7.847 35.999 12.982 6.166 1.533 15.207 2.265 23.25 3.375 9.283 1.282 18.798 2.659 29.998 3.996L162.5 138.75c-13.428-.449-22.287-2.607-32-3.25-42.833-2.833-50.763-7.518-59-10z" transform="matrix(1.32202 0 0 1.32262 -49.116 -8.01)"/>
        <path fill="url(#linearGradient934)" stroke="url(#linearGradient875)" stroke-linejoin="round" stroke-width=".567" d="M47.275 93.55c1.067 4.829 2.538 9.577 4.725 14.45 6.916 15.415 9.001 14.336 19.5 17.5l11.626-36.357z" transform="matrix(1.32202 0 0 1.32262 -49.116 -8.01)"/>
        <path fill="url(#linearGradient942)" stroke="url(#linearGradient872)" stroke-linejoin="round" stroke-width=".567" d="M47.274 93.547c-1.243-5.621-1.939-11.351-2.583-17.515 0 0 1.382-9.199 17.721-10.699s20.455 5.001 20.455 5.001c-.276 9.612-.649 17.845.26 18.809z" transform="matrix(1.32202 0 0 1.32262 -49.116 -8.01)"/>
        <path fill="url(#linearGradient950)" d="M92.125 92.717c6.051 2.68 14.75 6.362 27 9.408 3.083.767 6.885 1.333 10.921 1.846 0 0-6.865 2.568-9.212 13.695-2.347 11.127 2.667 17.331 2.667 17.331-22.09-1.718-33.608-3.957-40.969-5.979 0 0-6.37-8.386-3.032-21.018 3.338-12.632 12.625-15.283 12.625-15.283z" transform="matrix(1.32202 0 0 1.32262 -49.116 -8.01)"/>
        <path fill="url(#linearGradient958)" d="M208.494 122.324c-2.052-2.125-4.153-4.204-6.244-5.574-6.835-4.479-13.953-5.13-16.25-5.75-4.841-.49-9.356-.994-13.627-1.504 0 0-3.873 2.337-7.373 14.17s-2.5 15.083-2.5 15.083c1 4.375 14.309 11.269 21.5 18.75 0 0-.499-7.5 9.667-19.833 10.166-12.333 14.827-15.342 14.827-15.342z" transform="matrix(1.32202 0 0 1.32262 -49.116 -8.01)"/>
        <path fill="#11181c" d="M240.237 165.209c-.35 5.397-1.312 10.537-3.762 15.415-2.179 4.34-5.371 8.62-9.4 11.413 3.743-2.847 6.657-7.031 8.625-11.258 2.32-4.983 3.11-10.183 3.215-15.627.44.02.882.037 1.322.057zm-179.471-56.02c-2.865-1.267-5.332-2.205-8.412-2.838-3.374-.695-6.826-.766-10.254-.536-5.94.398-12.28 2.18-17.513 5.046 5.812-2.917 12.587-4.31 19.052-4.432 3.696-.07 7.642.377 11.145 1.61.059.02.115.046.174.067-.69-.114-1.375-.244-2.072-.341-3.507-.496-7.025-.262-10.535-.01-5.945.693-12.588 2.854-16.937 7.157 5.023-4.624 12.372-6.247 18.974-6.616 2.379-.133 4.758.048 7.12.359-2.719.169-5.42.661-8.13 1.596-4.872 1.68-9.776 4.53-13.337 8.298 4.124-4.027 9.809-6.863 15.376-8.207 3.503-.845 7.058-1.004 10.632-.64 1.429.146 3.169.146 4.574.445z"/>
        <path fill="none" stroke="#000" stroke-linejoin="round" stroke-miterlimit="10" stroke-width=".572" d="M82.25 40.75c.417 1.418-.34 3.861-.166 6.667.122 1.971.851 4.205.916 6.583.404 14.513-1.291 33.644.126 35.144 4.789.906 15.351 7.847 35.999 12.982 6.166 1.533 15.207 2.265 23.25 3.375 12.823 1.771 26.088 3.723 43.625 5.5 2.297.62 9.415 1.271 16.25 5.75 4.575 2.998 9.199 9.384 13.25 12.25 6.153 4.354 10.826 6.234 10.751 9.25-.061 2.41-4.187 10.477-10.251 17.875-6.518 7.952-15.083 13.943-17.5 14.375-1.113.199-2.137-1.628-5-4.125-1.397-1.219-3.568-1.177-5.25-2.75-2.63-2.461-1.419-3.181-4.25-6.125-7.191-7.481-20.5-14.375-21.5-18.75-13.428-.449-22.287-2.607-32-3.25-42.833-2.833-50.763-7.518-59-10-10.499-3.164-12.584-2.085-19.5-17.5s-6.669-29.576-9.166-49c-.375-2.922.533-5.25.417-7.583-.142-2.837-1.879-5.39-1.501-6.917 2.75-11.126 38-12.251 40.5-3.751z" transform="matrix(1.32202 0 0 1.32262 -49.116 -8.01)"/>
    </g>
    <g stroke-width=".756">
        <path fill="#222f37" d="M196.38 45.887c-.55 1.875.45 5.107.22 8.818-.161 2.608-1.125 5.561-1.21 8.707-.535 19.195 1.706 44.498-.169 46.482-6.33 1.198-20.294 10.379-47.59 17.17-8.151 2.028-20.103 2.996-30.736 4.464-16.953 2.342-34.49 4.924-57.673 7.275-3.037.82-12.447 1.68-21.483 7.605-6.048 3.965-12.161 12.411-17.517 16.202-8.134 5.758-14.312 8.245-14.213 12.234.08 3.188 5.535 13.857 13.552 23.642 8.617 10.517 19.94 18.441 23.135 19.013 1.472.263 2.825-2.154 6.61-5.456 1.847-1.613 4.717-1.557 6.941-3.637 3.477-3.255 1.876-4.208 5.619-8.102 9.506-9.894 27.1-19.012 28.423-24.799 17.752-.594 29.464-3.448 42.305-4.298 56.626-3.747 67.11-9.944 77.999-13.226 13.878-4.185 16.636-2.758 25.779-23.146 9.143-20.389 8.818-39.118 12.118-64.809.495-3.865-.705-6.944-.553-10.03.189-3.752 2.484-7.128 1.986-9.148-3.636-14.715-50.237-16.203-53.542-4.961z"/>
        <path fill="url(#linearGradient987)" d="M220.674 93.55c2.31-10.445 2.734-21.267 4.441-34.55.375-2.922-.533-5.25-.418-7.583.143-2.837 1.879-5.39 1.502-6.917-2.75-11.125-38-12.25-40.5-3.75-.417 1.418.34 3.861.166 6.667-.122 1.972-.851 4.205-.916 6.583-.404 14.513 1.291 33.644-.127 35.144z" transform="matrix(1.32202 0 0 1.32262 -49.116 -8.01)"/>
        <path fill="url(#linearGradient995)" d="M95.576 109.496c-4.271.51-8.786 1.014-13.627 1.504-2.297.62-9.415 1.271-16.25 5.75-4.575 2.998-9.199 9.384-13.25 12.25-6.153 4.354-10.826 6.234-10.751 9.25.061 2.41 4.187 10.477 10.251 17.875 6.518 7.952 15.083 13.943 17.5 14.375 1.113.199 2.137-1.628 5-4.125 1.397-1.219 3.568-1.177 5.25-2.75 2.63-2.461 1.419-3.181 4.25-6.125 7.191-7.481 20.5-14.375 21.5-18.75z" transform="matrix(1.32202 0 0 1.32262 -49.116 -8.01)"/>
        <path fill="url(#linearGradient1003)" d="M184.822 89.143c-4.788.906-15.351 7.847-35.998 12.982-6.166 1.533-15.207 2.265-23.25 3.375-9.283 1.282-18.798 2.659-29.998 3.996l9.873 29.254c13.428-.449 22.287-2.607 32-3.25 42.833-2.833 50.764-7.518 59-10z" transform="matrix(1.32202 0 0 1.32262 -49.116 -8.01)"/>
        <path fill="url(#linearGradient1011)" stroke="url(#linearGradient867)" stroke-linejoin="round" stroke-width=".567" d="M220.674 93.55c-1.067 4.829-2.538 9.577-4.725 14.45-6.916 15.415-9.002 14.336-19.5 17.5l-11.627-36.357z" transform="matrix(1.32202 0 0 1.32262 -49.116 -8.01)"/>
        <path fill="url(#linearGradient1019)" stroke="url(#linearGradient864)" stroke-linejoin="round" stroke-width=".567" d="M220.675 93.547c1.243-5.621 1.939-11.351 2.583-17.515 0 0-1.382-9.199-17.721-10.699-16.338-1.5-20.454 5.001-20.454 5.001.276 9.612.649 17.845-.261 18.809z" transform="matrix(1.32202 0 0 1.32262 -49.116 -8.01)"/>
        <path fill="url(#linearGradient1027)" d="M175.824 92.717c-6.051 2.68-14.75 6.362-27 9.408-3.083.767-6.885 1.333-10.921 1.846 0 0 6.864 2.568 9.212 13.695s-2.666 17.331-2.666 17.331c22.09-1.718 33.607-3.957 40.969-5.979 0 0 6.369-8.386 3.031-21.018-3.338-12.632-12.625-15.283-12.625-15.283z" transform="matrix(1.32202 0 0 1.32262 -49.116 -8.01)"/>
        <path fill="url(#linearGradient1035)" d="M59.455 122.324c2.052-2.125 4.153-4.204 6.244-5.574 6.835-4.479 13.953-5.13 16.25-5.75 4.841-.49 9.356-.994 13.627-1.504 0 0 3.873 2.337 7.373 14.17s2.5 15.083 2.5 15.083c-1 4.375-14.309 11.269-21.5 18.75 0 0 .499-7.5-9.667-19.833-10.166-12.333-14.827-15.342-14.827-15.342z" transform="matrix(1.32202 0 0 1.32262 -49.116 -8.01)"/>
        <path fill="#11181c" d="M17.085 165.152c.112 5.284.834 10.33 3.018 15.195 1.971 4.392 4.956 8.75 8.822 11.69-3.899-2.705-7.013-6.808-9.18-10.983-2.594-4.996-3.621-10.281-3.98-15.845l1.32-.057zm195.02-56.827c6.445.429 13.58 2.072 18.483 6.586-4.44-4.393-11.345-6.636-17.436-7.198-4.178-.386-8.208-.146-12.243.452.248-.084.485-.192.737-.27 3.436-1.066 7.126-1.536 10.717-1.468 6.464.122 13.24 1.516 19.051 4.432-5.234-2.866-11.574-4.647-17.512-5.045-3.58-.241-7.118-.106-10.633.612-2.945.569-5.369 1.677-8.095 2.88-.215.7-.132.847.127.89 1.469-.314 3.613-.359 5.101-.545 3.516-.436 7.266-.11 10.681.818 5.4 1.468 10.837 4.133 14.878 8.079-3.561-3.767-8.465-6.62-13.336-8.298-2.725-.94-5.44-1.433-8.172-1.6 2.538-.329 5.1-.494 7.652-.325z"/>
        <path fill="none" stroke="#000" stroke-linejoin="round" stroke-miterlimit="10" stroke-width=".572" d="M185.699 40.75c-.417 1.418.34 3.861.166 6.667-.122 1.972-.851 4.205-.916 6.583-.404 14.513 1.291 33.644-.127 35.144-4.788.906-15.351 7.847-35.998 12.982-6.166 1.533-15.207 2.265-23.25 3.375-12.823 1.771-26.088 3.723-43.625 5.5-2.297.62-9.415 1.271-16.25 5.75-4.575 2.998-9.199 9.384-13.25 12.25-6.153 4.354-10.826 6.234-10.751 9.25.061 2.41 4.187 10.477 10.251 17.875 6.518 7.952 15.083 13.943 17.5 14.375 1.113.199 2.137-1.628 5-4.125 1.397-1.219 3.568-1.177 5.25-2.75 2.63-2.461 1.419-3.181 4.25-6.125 7.191-7.481 20.5-14.375 21.5-18.75 13.428-.449 22.287-2.607 32-3.25 42.833-2.833 50.764-7.518 59-10 10.498-3.164 12.584-2.085 19.5-17.5s6.67-29.576 9.166-49c.375-2.922-.533-5.25-.418-7.583.143-2.837 1.879-5.39 1.502-6.917-2.75-11.126-38-12.251-40.5-3.751z" transform="matrix(1.32202 0 0 1.32262 -49.116 -8.01)"/>
    </g>
</svg>
