<svg xmlns="http://www.w3.org/2000/svg" xmlns:xlink="http://www.w3.org/1999/xlink" viewBox="0 0 256 256">
    <defs>
        <linearGradient id="innoGrad14">
            <stop offset="0" stop-color="#1d1e1f"/>
            <stop offset="1" stop-color="#585b5e"/>
        </linearGradient>
        <linearGradient id="innoGrad13">
            <stop offset="0" stop-color="#1d1e1f"/>
            <stop offset="1" stop-color="#93989c"/>
        </linearGradient>
        <linearGradient id="innoGrad2">
            <stop offset="0" stop-color="#585b5e"/>
            <stop offset="1" stop-color="#93989c"/>
        </linearGradient>
        <linearGradient id="innoGrad11">
            <stop offset="0" stop-color="#92b301"/>
            <stop offset=".257" stop-color="#d0ff01"/>
            <stop offset=".708" stop-color="#d0ff01"/>
            <stop offset="1" stop-color="#a6cc01"/>
        </linearGradient>
        <linearGradient id="innoGrad10">
            <stop offset="0" stop-color="#92b301"/>
            <stop offset="1" stop-color="#d0ff01"/>
        </linearGradient>
        <linearGradient id="innoGrad9">
            <stop offset="0" stop-color="#141c21"/>
            <stop offset="1" stop-color="#222f37"/>
        </linearGradient>
        <linearGradient id="innoGrad8">
            <stop offset="0" stop-color="#182127"/>
            <stop offset="1" stop-color="#222f37"/>
        </linearGradient>
        <linearGradient id="innoGrad7">
            <stop offset="0" stop-color="#92b301"/>
            <stop offset=".257" stop-color="#d0ff01"/>
            <stop offset=".708" stop-color="#d0ff01"/>
            <stop offset="1" stop-color="#bbe601"/>
        </linearGradient>
        <linearGradient id="innoGrad6">
            <stop offset="0" stop-color="#92b301"/>
            <stop offset="1" stop-color="#92b301" stop-opacity="0"/>
        </linearGradient>
        <linearGradient id="innoGrad5">
            <stop offset="0" stop-color="#d0ff01"/>
            <stop offset="1" stop-color="#92b301"/>
        </linearGradient>
        <linearGradient id="innoGrad4">
            <stop offset="0" stop-color="#222f37"/>
            <stop offset="1" stop-color="#141c21"/>
        </linearGradient>
        <linearGradient id="innoGrad3">
            <stop offset="0" stop-color="#222f37"/>
            <stop offset="1" stop-color="#182127"/>
        </linearGradient>
        <linearGradient id="innoGrad1">
            <stop offset="0" stop-color="#959a9e"/>
            <stop offset="1" stop-color="#686c6f"/>
        </linearGradient>
        <radialGradient id="radialGradient915" cx="166.575" cy="123.499" r="28.037" fx="166.575" fy="123.499" gradientTransform="matrix(0 -3.42404 3.41557 0 -255.244 709.97)" gradientUnits="userSpaceOnUse" xlink:href="#innoGrad1"/>
        <linearGradient id="linearGradient970" x1="201.48" x2="209.333" y1="76.5" y2="76.5" gradientUnits="userSpaceOnUse" xlink:href="#innoGrad13"/>
        <radialGradient id="radialGradient980" cx="127.571" cy="160.223" r="54.292" fx="127.571" fy="160.223" gradientTransform="matrix(3.66619 0 0 3.63087 -339.849 -403.142)" gradientUnits="userSpaceOnUse" xlink:href="#innoGrad14"/>
        <linearGradient id="linearGradient988" x1="129.887" x2="201.568" y1="210.138" y2="210.138" gradientUnits="userSpaceOnUse" xlink:href="#innoGrad3"/>
        <linearGradient id="linearGradient996" x1="140.484" x2="201.558" y1="231.69" y2="185.285" gradientUnits="userSpaceOnUse" xlink:href="#innoGrad4"/>
        <linearGradient id="linearGradient1011" x1="127.921" x2="196.964" y1="211.122" y2="211.122" gradientUnits="userSpaceOnUse" xlink:href="#innoGrad5"/>
        <linearGradient id="linearGradient1019" x1="155.493" x2="128.855" y1="172.245" y2="213.603" gradientUnits="userSpaceOnUse" xlink:href="#innoGrad6"/>
        <linearGradient id="linearGradient1027" x1="169.829" x2="155.213" y1="173.832" y2="180.622" gradientUnits="userSpaceOnUse" xlink:href="#innoGrad2"/>
        <linearGradient id="linearGradient1035" x1="206.294" x2="207.364" y1="90.426" y2="44.121" gradientUnits="userSpaceOnUse" xlink:href="#innoGrad7"/>
        <radialGradient id="radialGradient1053" cx="182.024" cy="140.629" r="27.45" fx="182.024" fy="140.629" gradientTransform="matrix(-1.50893 0 0 -1.50195 456.685 350.882)" gradientUnits="userSpaceOnUse" xlink:href="#innoGrad3"/>
        <linearGradient id="linearGradient1062" x1="161.021" x2="172.543" y1="44.161" y2="45.549" gradientUnits="userSpaceOnUse" xlink:href="#innoGrad2"/>
        <linearGradient id="linearGradient1070" x1="53.923" x2="126.612" y1="210.138" y2="210.138" gradientUnits="userSpaceOnUse" xlink:href="#innoGrad8"/>
        <linearGradient id="linearGradient1086" x1="54.43" x2="112.018" y1="184.721" y2="236.128" gradientUnits="userSpaceOnUse" xlink:href="#innoGrad9"/>
        <linearGradient id="linearGradient1103" x1="54.518" x2="46.518" y1="82.602" y2="82.602" gradientUnits="userSpaceOnUse" xlink:href="#innoGrad13"/>
        <linearGradient id="linearGradient1111" x1="59.035" x2="128.078" y1="211.122" y2="211.122" gradientUnits="userSpaceOnUse" xlink:href="#innoGrad10"/>
        <linearGradient id="linearGradient1127" x1="127.05" x2="100.057" y1="213.603" y2="174.517" gradientUnits="userSpaceOnUse" xlink:href="#innoGrad5"/>
        <linearGradient id="linearGradient1135" x1="86.843" x2="101.006" y1="174.639" y2="180.876" gradientUnits="userSpaceOnUse" xlink:href="#innoGrad2"/>
        <linearGradient id="linearGradient1145" x1="48.634" x2="48.634" y1="94.515" y2="44.121" gradientUnits="userSpaceOnUse" xlink:href="#innoGrad7"/>
        <radialGradient id="radialGradient1155" cx="72.902" cy="100.603" r="28.036" fx="72.902" fy="100.603" gradientTransform="matrix(0 2.45685 -2.4354 0 334.636 -39.699)" gradientUnits="userSpaceOnUse" xlink:href="#innoGrad1"/>
        <radialGradient id="radialGradient1163" cx="50.165" cy="138.27" r="27.45" fx="50.165" fy="138.27" gradientTransform="matrix(0 1.08978 -1.09279 0 225.542 84.74)" gradientUnits="userSpaceOnUse" xlink:href="#innoGrad3"/>
        <linearGradient id="linearGradient1172" x1="94.99" x2="83.86" y1="46.195" y2="48.5" gradientUnits="userSpaceOnUse" xlink:href="#innoGrad2"/>
        <linearGradient id="linearGradient1186" x1="127.681" x2="127.681" y1="181.373" y2="5.147" gradientUnits="userSpaceOnUse" xlink:href="#innoGrad11"/>
    </defs>
    <path fill="url(#radialGradient980)" stroke="#000" stroke-miterlimit="10" d="M77.004 42.597l11.702-10.09 15.575-22.7h48.044l15.575 24.02 11.527 8.77 2.597 97.068-19.581 91.909-75.68-2.639-12.321-89.526zm50.916-9.31c-7.625 0-20.393 24.498-20.393 54.718 0 30.22 13.938 54.718 20.393 54.718s20.394-24.498 20.394-54.718c0-30.22-12.77-54.718-20.394-54.718z"/>
    <path fill="url(#linearGradient970)" stroke="#000" stroke-linejoin="round" stroke-miterlimit="10" d="M207.364 44.121c2.332 8.447 2.165 48.745-2.53 64.758 0 0-7.87-64.191 2.53-64.758z"/>
    <path fill="url(#linearGradient988)" d="M201.27 172.245c.81 2.332-.126 7.27-1.709 13.268.983 1.06.896 2.468-.783 2.881-2.845 10.185-6.933 22.522-7.607 30.472 2.158.523 2.686 3.603.09 4.484 1.98 11.086 4.13 15.305 4.13 15.305l-23.664 8.451-41.84.924.66-33.655 26.134-40.518c10.14 10.338 44.59-1.612 44.59-1.612z"/>
    <path fill="url(#linearGradient996)" d="M172.197 231.106c-7.875 2.58-16.358 4.428-21.545 2.802 0 0 14.648-.813 21.648-8.008 1.792-10.547 11.35-10.12 17.246-30.398-14.167 2.244-29.125-8.843-31.413-8.05-2.289.791-17.728 15.737-17.728 15.737l15.088-27.088 45.778-3.856c.81 2.332-.127 7.27-1.71 13.268.983 1.06.896 2.468-.783 2.881-2.845 10.185-6.933 22.522-7.607 30.472 2.158.523 2.686 3.603.09 4.484 1.98 11.086 4.13 15.305 4.13 15.305l-14.469 5.81s-7.553-4.77-8.725-13.359z"/>
    <path fill="#0e1316" d="M198.946 188.895c-7.699 2.423-16.035 2.389-24.008 2.077 4.284-.02 8.491-.177 12.75-.67 2.482-.287 4.924-.807 7.36-1.357 1.071-.293 2.145-.569 3.198-.925.285-.096.604-.27.883-.044.338.272.206.787-.183.919zm-48.294 45.013c5.626 1.342 11.572-.074 17.01-1.654 6.074-1.767 11.977-4.117 17.74-6.712a136.49 136.49 0 0 0 5.551-2.626c.658-.333 1.214.589.525.916-.313.15-.627.294-.943.439a165.648 165.648 0 0 1-13.298 5.424c-4.576 1.64-9.25 3.098-14.025 4.033-4.154.814-8.42 1.274-12.56.18z"/>
    <path fill="none" stroke="#000" stroke-linejoin="round" stroke-miterlimit="10" d="M201.27 172.245c.81 2.332-.126 7.27-1.709 13.268.983 1.06.896 2.468-.783 2.881-2.845 10.185-6.933 22.522-7.607 30.472 2.158.523 2.686 3.603.09 4.484 1.98 11.086 4.13 15.305 4.13 15.305l-23.664 8.451-41.84.924.66-33.655 26.134-40.518c10.14 10.338 44.59-1.612 44.59-1.612z"/>
    <path fill="url(#linearGradient1011)" d="M159.188 174.65l-3.695-2.405s-2.645 6.02-6.511 11.6c-3.866 5.579-16.455 20.915-19.095 25.59-2.64 4.675-1.848 36.615-1.848 36.615s-1.188 3.564 3.96 3.564c0 0 29.885 1.158 39.537-.54 8.683-1.528 24.659-9.01 25.231-10.023.573-1.012-.138-3.865-1.678-4.35-1.539-.484-11.144 8.83-27.54 11.878-6.865 1.277-32.119-.265-32.119-.265-3.607-.088-3.607-.088-3.673-5.539l.374-20.725c.22-7.082 2.771-10.6 5.852-13.944 6.48-7.034 21.205-31.457 21.205-31.457z"/>
    <path fill="url(#linearGradient1019)" d="M134.287 207.777c2.755-2.444 6.118-4.588 6.118-4.588 7.136-9.222 18.783-28.54 18.783-28.54l-3.695-2.404s-2.645 6.02-6.511 11.6c-3.866 5.579-16.455 20.915-19.095 25.59-.428.758-.766 2.23-1.032 4.168 0 .001 2.677-3.381 5.432-5.826z"/>
    <path fill="none" stroke="#000" stroke-linejoin="round" stroke-miterlimit="10" d="M159.188 174.65l-3.695-2.405s-2.645 6.02-6.511 11.6c-3.866 5.579-16.455 20.915-19.095 25.59-2.64 4.675-1.848 36.615-1.848 36.615s-1.188 3.564 3.96 3.564c0 0 29.885 1.158 39.537-.54 8.683-1.528 24.659-9.01 25.231-10.023.573-1.012-.138-3.865-1.678-4.35-1.539-.484-11.144 8.83-27.54 11.878-6.865 1.277-32.119-.265-32.119-.265-3.607-.088-3.607-.088-3.673-5.539l.374-20.725c.22-7.082 2.771-10.6 5.852-13.944 6.48-7.034 21.205-31.457 21.205-31.457z"/>
    <path fill="url(#linearGradient1027)" stroke="#000" stroke-linejoin="round" stroke-miterlimit="10" d="M168.956 180.324c-10.56.154-13.463-8.079-13.463-8.079 11.329 8.235 57.1-9.26 57.1-9.26z"/>
    <path fill="url(#linearGradient1035)" stroke="#000" stroke-linejoin="round" stroke-miterlimit="10" d="M207.364 44.121c-1.583-2.64-6.071-1.32-7.259 0l-5.221 23.756 6.673 26.396h4.407s-2.295-45.005 1.4-50.152z"/>
    <path fill="url(#radialGradient915)" d="M167.636 44.121s14.295 1.582 25.228.943c.708-1.07 1.698-1.235 2.474-.19 1.755-.172 3.373-.417 4.768-.753 0 0-3.696 34.843 2.376 42.234 32.896 40.044 26.794 91.858-33.525 93.97 21.382-26.22 3.974-54.119-.44-82.884-4.64-30.216-.881-53.32-.881-53.32z"/>
    <path fill="url(#radialGradient1053)" stroke="#000" stroke-miterlimit="10" d="M178.548 137.388s2.143 28.545-9.592 42.936c42.829-1.499 58.323-28.054 51.934-57.662l-.001.003s-23.863 29.68-42.341 14.722z"/>
    <path fill="#595d5e" d="M188.535 53.17c-.718 6.906.111 15.021 4.559 20.63-5.07-5.127-6.027-13.858-4.559-20.63zm4.825-7.927c0 .278-.258.701-.347.96a38.765 38.765 0 0 0-.77 2.498c-.573 2.114-1.007 4.252-1.246 6.43-.412 3.754-.068 7.317 1.365 10.811-1.624-3.455-2.14-7.048-1.911-10.856.128-2.13.435-4.235.883-6.32.189-.879.405-1.749.648-2.614.103-.363.383-.886.383-1.268l.995.36zm2.257 32.4l7.279 8.384-.829.654-6.45-9.037zM194.884 82c3.803 2.81 7.606 5.618 11.41 8.427-.22.274-.438.55-.658.825l-10.752-9.252z"/>
    <path fill="none" stroke="#000" stroke-linejoin="round" stroke-miterlimit="10" d="M167.636 44.121s14.295 1.582 25.228.943c.708-1.07 1.698-1.235 2.474-.19 1.755-.172 3.373-.417 4.768-.753 0 0-3.696 34.843 2.376 42.234 32.896 40.044 26.794 91.858-33.525 93.97 21.382-26.22 3.974-54.119-.44-82.884-4.64-30.216-.881-53.32-.881-53.32z"/>
    <path fill="url(#linearGradient1062)" stroke="#000" stroke-miterlimit="10" d="M161.82 29.882s-3.655 57.831 4.261 67.283l1.907-30.696 9.504-24.812z"/>
    <path fill="url(#linearGradient1070)" stroke="#000" stroke-linejoin="round" stroke-miterlimit="10" d="M54.727 172.245c-1.697 4.892 4.284 21.242 7.803 34.82-2.597 2.032-.767 4.672 1.16 4.822.58 2.66.202 5.216 1.16 7.253-1.926.778-1.837 2.89-.113 4.21-1.98 11.086-4.128 15.305-4.128 15.305l23.663 8.451 41.84.924-.66-33.655-26.134-40.518c-10.142 10.338-44.59-1.612-44.59-1.612z"/>
    <path fill="url(#linearGradient1086)" d="M91.962 222.888c-1.464.442-4.081.38-7.13.052 2.208 9.024 1.803 18.199-6.949 23.375l-17.274-7.659s2.148-4.219 4.128-15.305c-1.724-1.32-1.812-3.432.113-4.21-.958-2.036-.579-4.595-1.16-7.253-1.926-.151-3.757-2.791-1.16-4.821-3.52-13.577-9.5-29.93-7.803-34.82h-.297l45.627 2.27 11.826 23.582s-7.206-7.744-10.242-7.744c-3.035 0-11.84 8.315-26.07 8.447.421 1.936 2.222 5.592 4.21 10.103 0 0 2.937 1.602 10.491 2.217 7.554.616 14.01.765 14.01.765-5.513 1.01-14.65 1.082-22.86.87 0 0 .774 3.317 4.118 6.383 3.344 3.066 6.422 3.748 6.422 3.748z"/>
    <path fill="#0e1316" d="M64.977 218.627a209.605 209.605 0 0 0 11.364 2.691c4.972 1.035 10.539 2.437 15.622 1.57-5.066 1.066-10.706-.126-15.734-.973-3.853-.648-7.695-1.4-11.506-2.264l.254-1.024zm-1.248-7.267c13.442 1.178 27.112 1.974 40.552.527-13.422 1.803-27.135 1.353-40.628.526l.076-1.053z"/>
    <path fill="none" stroke="#000" stroke-linejoin="round" stroke-miterlimit="10" d="M54.727 172.245c-1.697 4.892 4.284 21.242 7.803 34.82-2.597 2.032-.767 4.672 1.16 4.822.58 2.66.202 5.216 1.16 7.253-1.926.778-1.837 2.89-.113 4.21-1.98 11.086-4.128 15.305-4.128 15.305l23.663 8.451 41.84.924-.66-33.655-26.134-40.518c-10.142 10.338-44.59-1.612-44.59-1.612z"/>
    <path fill="url(#linearGradient1103)" stroke="#000" stroke-linejoin="round" stroke-miterlimit="10" d="M48.634 44.121c-2.331 8.447-2.164 48.745 2.53 64.759 0 0 7.87-64.192-2.53-64.759z"/>
    <path fill="url(#linearGradient1111)" d="M96.81 174.65l3.696-2.405s2.645 6.02 6.51 11.6c3.867 5.579 16.456 20.915 19.096 25.59 2.64 4.675 1.848 36.615 1.848 36.615s1.188 3.564-3.96 3.564c0 0-29.885 1.158-39.537-.54-8.683-1.528-24.66-9.01-25.231-10.023-.573-1.012.138-3.865 1.677-4.35 1.54-.484 11.145 8.83 27.542 11.878 6.864 1.277 32.117-.265 32.117-.265 3.607-.088 3.607-.088 3.674-5.539l-.374-20.725c-.22-7.082-2.772-10.6-5.852-13.944-6.48-7.034-21.206-31.457-21.206-31.457z"/>
    <path fill="url(#linearGradient1127)" d="M121.618 207.777c-2.755-2.444-6.118-4.588-6.118-4.588-7.136-9.222-18.784-28.54-18.784-28.54l3.696-2.404s2.645 6.02 6.51 11.6c3.867 5.579 16.456 20.915 19.096 25.59.428.758.766 2.23 1.032 4.168 0 .001-2.677-3.381-5.432-5.826z"/>
    <path fill="none" stroke="#000" stroke-linejoin="round" stroke-miterlimit="10" d="M96.81 174.65l3.696-2.405s2.645 6.02 6.51 11.6c3.867 5.579 16.456 20.915 19.096 25.59 2.64 4.675 1.848 36.615 1.848 36.615s1.188 3.564-3.96 3.564c0 0-29.885 1.158-39.537-.54-8.683-1.528-24.66-9.01-25.231-10.023-.573-1.012.138-3.865 1.677-4.35 1.54-.484 11.145 8.83 27.542 11.878 6.864 1.277 32.117-.265 32.117-.265 3.607-.088 3.607-.088 3.674-5.539l-.374-20.725c-.22-7.082-2.772-10.6-5.852-13.944-6.48-7.034-21.206-31.457-21.206-31.457z"/>
    <path fill="url(#linearGradient1135)" stroke="#000" stroke-linejoin="round" stroke-miterlimit="10" d="M87.043 180.324c10.56.154 13.463-8.079 13.463-8.079-11.329 8.235-57.1-9.26-57.1-9.26z"/>
    <path fill="url(#linearGradient1145)" stroke="#000" stroke-linejoin="round" stroke-miterlimit="10" d="M48.634 44.121c1.584-2.64 6.072-1.32 7.26 0l5.221 23.756-6.673 26.396h-4.407s2.295-45.005-1.4-50.152z"/>
    <path fill="url(#radialGradient1155)" d="M88.363 44.121s-7.242.802-15.36 1.034c-.486-1.721-2.862-2.002-3.568.06-5.01.022-10-.24-13.541-1.094 0 0 3.696 34.843-2.376 42.234-32.896 40.045-26.794 91.858 33.525 93.97-21.382-26.22-3.974-54.119.44-82.884 4.637-30.216.88-53.32.88-53.32z"/>
    <path fill="url(#radialGradient1163)" stroke="#000" stroke-miterlimit="10" d="M77.451 137.388s-2.143 28.545 9.592 42.936c-42.829-1.499-58.323-28.054-51.934-57.662l.001.003s23.863 29.68 42.341 14.722z"/>
    <path fill="#595d5e" d="M69.002 48.097c-1.583 3.61-1.17 7.124-.805 10.95.203 2.132.272 4.312-.175 6.418-.348 1.646-1.102 3.034-2.022 4.42.698-1.345 1.286-2.658 1.6-4.152.452-2.157.311-4.464.072-6.638-.305-3.896-.678-7.48 1.33-10.998zm3.985-3.338c.151.005.43.716.435.848.021.6.026 1.201.021 1.802a33.368 33.368 0 0 1-.338 4.612c-.378 2.57-1.067 5.046-2.877 6.97 2.93-3.49 2.894-9.014 2.428-13.327-.044-.286.086-.561.331-.905.027 0-.219.01 0 0zM60.382 77.644l-6.449 9.038a448.31 448.31 0 0 0-.829-.654c2.426-2.796 4.851-5.59 7.278-8.384zm.733 4.355l-10.75 9.253-.66-.825 11.41-8.428z"/>
    <path fill="none" stroke="#000" stroke-linejoin="round" stroke-miterlimit="10" d="M88.363 44.121s-7.242.802-15.36 1.034c-.486-1.721-2.862-2.002-3.568.06-5.01.022-10-.24-13.541-1.094 0 0 3.696 34.843-2.376 42.234-32.896 40.045-26.794 91.858 33.525 93.97-21.382-26.22-3.974-54.119.44-82.884 4.637-30.216.88-53.32.88-53.32z"/>
    <path fill="url(#linearGradient1172)" stroke="#000" stroke-miterlimit="10" d="M94.178 29.882s3.656 57.831-4.26 67.283L88.01 66.47l-9.503-24.812z"/>
    <path fill="url(#linearGradient1186)" stroke="#000" stroke-linejoin="round" stroke-miterlimit="10" d="M104.378 13.15s-3.101.947-4.4 4.928c-2.772 8.49-9.604 20.366-20.59 23.403 21.47 31.5 7.743 64.582 7.215 70.742-.528 6.16-16.982 47.16 4.627 67.676-.315.785-3.51 1.141-4.187.425-38.014-40.21 22.262-92.21-9.749-131.716-3.377-4.167-5.394-9.569 1.39-10.822 9.82-1.815 21.12-30.41 25.694-30.796 16.666-1.407 29.997-1.23 47.243 0 4.58.328 15.873 28.98 25.694 30.796 6.785 1.254 4.768 6.655 1.39 10.822-32.011 39.507 28.265 91.507-9.75 131.716-.676.716-3.871.36-4.186-.425 21.61-20.516 5.155-61.517 4.627-67.676-.528-6.16-14.255-39.243 7.215-70.742-10.986-3.037-17.818-14.913-20.59-23.404-1.299-3.98-4.4-4.928-4.4-4.928-11.635-2.03-36.517-3.475-47.243.001z"/>
</svg>
