<svg xmlns="http://www.w3.org/2000/svg" xmlns:xlink="http://www.w3.org/1999/xlink" viewBox="0 0 256 256">
    <defs>
        <linearGradient id="innoGrad8">
            <stop offset="0" stop-color="#e30280"/>
            <stop offset="1" stop-color="#fc028e"/>
        </linearGradient>
        <linearGradient id="innoGrad7">
            <stop offset="0" stop-color="#bbe601"/>
            <stop offset="1" stop-color="#d0ff01"/>
        </linearGradient>
        <linearGradient id="innoGrad5">
            <stop offset="0" stop-color="#e6e6e6"/>
            <stop offset=".941" stop-color="#fff"/>
            <stop offset="1" stop-color="#e6e6e6"/>
        </linearGradient>
        <linearGradient id="innoGrad6">
            <stop offset="0" stop-color="#cc0273"/>
            <stop offset=".959" stop-color="#ff0290"/>
            <stop offset="1" stop-color="#cc0273"/>
        </linearGradient>
        <linearGradient id="innoGrad3">
            <stop offset="0" stop-color="#e6e6e6"/>
            <stop offset="1" stop-color="#fff"/>
        </linearGradient>
        <linearGradient id="innoGrad2">
            <stop offset="0" stop-color="#fff"/>
            <stop offset="1" stop-color="#e6e6e6"/>
        </linearGradient>
        <linearGradient id="innoGrad1">
            <stop offset="0" stop-color="#1a1a1a"/>
            <stop offset="1" stop-color="#4d4d4d"/>
        </linearGradient>
        <linearGradient id="linearGradient990" x1="23.334" x2="23.334" y1="87.951" y2="66.583" gradientUnits="userSpaceOnUse" xlink:href="#innoGrad1"/>
        <linearGradient id="linearGradient999" x1="76.577" x2="166.003" y1="117.487" y2="117.487" gradientUnits="userSpaceOnUse" xlink:href="#innoGrad2"/>
        <linearGradient id="linearGradient1014" x1="1.644" x2="215.092" y1="160.07" y2="160.07" gradientUnits="userSpaceOnUse" xlink:href="#innoGrad5"/>
        <linearGradient id="linearGradient1030" x1="2.413" x2="94.463" y1="126.875" y2="188.814" gradientUnits="userSpaceOnUse" xlink:href="#innoGrad3"/>
        <linearGradient id="linearGradient1038" x1="1.645" x2="216.707" y1="168.085" y2="168.085" gradientUnits="userSpaceOnUse" xlink:href="#innoGrad6"/>
        <linearGradient id="linearGradient1056" x1="144.457" x2="184.969" y1="144.227" y2="188.596" gradientUnits="userSpaceOnUse" xlink:href="#innoGrad7"/>
        <linearGradient id="linearGradient1064" x1="31.71" x2="140.468" y1="84.249" y2="193.744" gradientUnits="userSpaceOnUse" xlink:href="#innoGrad3"/>
        <linearGradient id="linearGradient1072" x1="35.736" x2="63.573" y1="146.625" y2="113.186" gradientUnits="userSpaceOnUse" xlink:href="#innoGrad3"/>
        <linearGradient id="linearGradient1082" x1="41.191" x2="70.826" y1="149.392" y2="118.238" gradientUnits="userSpaceOnUse" xlink:href="#innoGrad7"/>
        <linearGradient id="linearGradient1090" x1="32.521" x2="63.664" y1="144.588" y2="112.098" gradientUnits="userSpaceOnUse" xlink:href="#innoGrad8"/>
        <linearGradient id="linearGradient1098" x1="144.457" x2="190.894" y1="144.227" y2="187.738" gradientUnits="userSpaceOnUse" xlink:href="#innoGrad8"/>
        <linearGradient id="linearGradient1106" x1="22.015" x2="32.067" y1="61.88" y2="84.024" gradientUnits="userSpaceOnUse" xlink:href="#innoGrad3"/>
        <linearGradient id="linearGradient1114" x1="141.085" x2="75.55" y1="148.711" y2="59.584" gradientUnits="userSpaceOnUse" xlink:href="#innoGrad8"/>
        <linearGradient id="linearGradient1122" x1="139.647" x2="143.389" y1="109.919" y2="106.729" gradientUnits="userSpaceOnUse" xlink:href="#innoGrad3"/>
        <linearGradient id="linearGradient1130" x1="101.522" x2="117.625" y1="59.991" y2="69.247" gradientUnits="userSpaceOnUse" xlink:href="#innoGrad3"/>
        <linearGradient id="linearGradient1138" x1="22.476" x2="48.956" y1="59.852" y2="67.5" gradientUnits="userSpaceOnUse" xlink:href="#innoGrad3"/>
        <linearGradient id="linearGradient1146" x1="70.632" x2="70.632" y1="68.591" y2="39.719" gradientUnits="userSpaceOnUse" xlink:href="#innoGrad1"/>
        <linearGradient id="linearGradient1155" x1="123.845" x2="213.331" y1="90.623" y2="90.623" gradientUnits="userSpaceOnUse" xlink:href="#innoGrad2"/>
        <linearGradient id="linearGradient1197" x1="48.923" x2="262.409" y1="133.206" y2="133.206" gradientUnits="userSpaceOnUse" xlink:href="#innoGrad5"/>
        <linearGradient id="linearGradient1205" x1="48.924" x2="263.829" y1="141.221" y2="141.221" gradientUnits="userSpaceOnUse" xlink:href="#innoGrad6"/>
        <linearGradient id="linearGradient1213" x1="191.755" x2="231.965" y1="117.363" y2="162.458" gradientUnits="userSpaceOnUse" xlink:href="#innoGrad7"/>
        <linearGradient id="linearGradient1221" x1="77.852" x2="188.605" y1="55.783" y2="150.305" gradientUnits="userSpaceOnUse" xlink:href="#innoGrad3"/>
        <linearGradient id="linearGradient1231" x1="191.755" x2="238.565" y1="117.363" y2="160.144" gradientUnits="userSpaceOnUse" xlink:href="#innoGrad8"/>
        <linearGradient id="linearGradient1239" x1="68.131" x2="78.215" y1="34.219" y2="57.676" gradientUnits="userSpaceOnUse" xlink:href="#innoGrad3"/>
        <linearGradient id="linearGradient1247" x1="192.089" x2="123.713" y1="121.727" y2="39.943" gradientUnits="userSpaceOnUse" xlink:href="#innoGrad8"/>
        <linearGradient id="linearGradient1255" x1="186.605" x2="190.246" y1="83.407" y2="79.754" gradientUnits="userSpaceOnUse" xlink:href="#innoGrad3"/>
        <linearGradient id="linearGradient1263" x1="148.819" x2="164.923" y1="33.126" y2="42.382" gradientUnits="userSpaceOnUse" xlink:href="#innoGrad3"/>
        <linearGradient id="linearGradient1271" x1="68.131" x2="92.008" y1="34.219" y2="40.962" gradientUnits="userSpaceOnUse" xlink:href="#innoGrad3"/>
    </defs>
    <g stroke="#000" stroke-miterlimit="10" stroke-width="1.058">
        <path fill="url(#linearGradient1146)" stroke-linejoin="round" stroke-width="1.08" d="M124.384 58.897l-20.249 29.445-51.717-11.447 6.5-34.908 23.467-8.164z" transform="matrix(.94503 0 0 .94495 1.174 8.785)"/>
        <path fill="url(#linearGradient1271)" stroke-linejoin="round" stroke-width="1.08" d="M68.131 34.219s9.268-4.287 14.167-4.458c7.875-.276 13.479 8.501 16.677 11.5 3.198 2.999 0 13.75 0 13.75s-6.51-20.834-28.343-15.292z" transform="matrix(.94503 0 0 .94495 1.174 8.785)"/>
        <path fill="url(#linearGradient1263)" stroke-linejoin="round" stroke-width="1.08" d="M148.819 33.126c10.729-5.743 16.104 9.256 16.104 9.256l-5.375 7.003z" transform="matrix(.94503 0 0 .94495 1.174 8.785)"/>
        <path fill="url(#linearGradient1255)" stroke-linejoin="round" stroke-width="1.08" d="M159.548 49.386l5.375-7.003s10.038 18.64 24.628 36.628c8 9.862 16.202 20.063 23.664 27.209 6.327 6.061 12.546 9.475 13.22 13.341l-22.512-3.8z" transform="matrix(.94503 0 0 .94495 1.174 8.785)"/>
        <path fill="url(#linearGradient1247)" stroke-linejoin="round" stroke-width="1.08" d="M84.269 49.99c3.904-6.854 13.449-7.729 26.154-12.604 13.373-5.133 26.92-9.779 32.209-8.084 10.791 3.459 17.859 21.961 32.666 40.459 16.798 20.984 35.334 41.209 35.334 41.209s-23.332 5.331-24.841 14.664z" transform="matrix(.94503 0 0 .94495 1.174 8.785)"/>
        <path fill="url(#linearGradient1239)" stroke-linejoin="round" stroke-width="1.08" d="M119.68 62.769s-12.048-16.633-26.465-15.467c-14.417 1.166-23.25 17.5-27.25 11-2.945-4.787-.572-16.282 4.666-18.583l-2.5-5.5s-.572 1.135-2.333 1.416c-2.055.327-3.833-2.833-6.667.834-1.79 2.317-5.5 32-5.5 32l30 9.417z" transform="matrix(.94503 0 0 .94495 1.174 8.785)"/>
        <path fill="url(#linearGradient1231)" stroke-width="1.08" d="M259.548 143.136c.009-9.93-17.76-14.236-31-22.25-9.179-5.556-14.76-11.478-17.916-11.375-7.709.25-24.334 10.148-25.959 14.125-1.625 3.977 3.093 43.244 3.093 43.244l12.28 7.137 58.087-10.284c0-.001 1.407-11.95 1.415-20.597z" transform="matrix(.94503 0 0 .94495 1.174 8.785)"/>
        <path fill="#ec008c" stroke-linejoin="round" stroke-width="1.08" d="M59.131 36.469c.333 7.833-5.333 23 1.167 26.167 8.98 4.375 15.333-6.167 18.667-5.5 3.334.667 20.333 12.001 20.333 12.001l73 61.167-9 33.834-22.666 2.743-87.834-58.289-3-16.205c0-.001 1.167-54.751 9.333-55.918z" transform="matrix(.94503 0 0 .94495 1.174 8.785)"/>
        <path fill="#8dc63f" stroke-linejoin="round" stroke-width="1.08" d="M76.973 124.938c-6.378-3.01-9.875-4.24-17.331-5.91 9.482-22.802 25.448-39.833 44.375-54.768 8.507 4.655 12.429 7.344 19.51 13.208-19.981 12.754-34.412 26.636-46.554 47.47zm46.403 29.239c-5.65-4.224-8.83-6.125-15.803-9.25 13.844-20.45 32.889-33.952 54.416-44.807 7.406 6.26 10.713 9.678 16.48 16.837-22.125 8.508-39.036 19.229-55.093 37.22z" transform="matrix(.94503 0 0 .94495 1.174 8.785)"/>
        <path fill="#fff" stroke-linejoin="round" stroke-width="1.08" d="M50.154 94.316c8.238-14.773 19.171-27.686 31.603-39.771 9.761 3.207 14.356 5.241 22.832 9.932-18.948 14.854-34.962 31.823-44.484 54.58zm57.867 50.731c-6.944-3.157-10.746-4.451-18.877-6.212 12.755-22.651 31.445-38.872 52.973-52.678 8.925 5.092 13.021 8.001 20.389 14.289-21.531 10.773-40.61 24.202-54.485 44.601z" transform="matrix(.94503 0 0 .94495 1.174 8.785)"/>
        <path fill="url(#linearGradient1221)" stroke-linejoin="round" stroke-width="1.08" d="M187.766 166.88s4.538-23.948-.855-43.193c-2.35-8.385-7.329-13.509-16.778-21.389-41.875-34.921-66.334-51.996-74-51.996-7.667 0-17.161 3.995-17.167 6.833-.02 8.5 48.708 37.057 76.703 65.167 8.465 8.5 9.049 38.137 7.631 41.835z" transform="matrix(.94503 0 0 .94495 1.174 8.785)"/>
        <path fill="url(#linearGradient1213)" stroke-linejoin="round" stroke-width="1.08" d="M208.454 109.783s10.11 6.837 20.511 12.853c8.314 4.81 16.964 8.793 19.666 10.57 6.083 4 10.917 9.93 10.917 9.93-.008 8.647-1.415 20.597-1.415 20.597l-21.235 3.76-4.971-5.521c-2.649-2.942-16.047-8.705-19.879-12.961-13.143-14.595-20.293-31.647-20.293-31.648 5.104-3.314 11.873-6.625 16.699-7.582z" transform="matrix(.94503 0 0 .94495 1.174 8.785)"/>
        <path fill="url(#linearGradient1205)" stroke-linejoin="round" d="M49.798 92.386c-1.167.084.935 19.932 1.75 21.5 1.625 3.125 21.344 17.735 48.25 36.417 19.551 13.575 41.424 31.158 66.834 35.667 86.166 15.291 96.769-16.999 96.667-20.833-.093-3.515-.668-18-3.751-22.001-.785-1.019 9.75 36.001-96.25 21.001-26.436-3.741-45.961-20.019-66-34.626-17.22-12.553-36.321-23.285-43.25-30.5-3.336-3.474-4.038-6.641-4.25-6.625z" transform="matrix(.94503 0 0 .94495 1.174 8.785)"/>
        <path fill="#fff" stroke-linejoin="round" stroke-width="1.08" d="M141.761 161.95s-18.456.714-22.081-2.314c-2.296-1.918-38.834-25.893-52.757-35.875-8.062-5.779-16.441-13.288-16.188-14.116a169.43 169.43 0 0 1-1.024-9.636v.002c.098 1.147 34.558 23.792 34.558 23.792l29.175 20.833z" transform="matrix(.94503 0 0 .94495 1.174 8.785)"/>
        <path fill="url(#linearGradient1197)" stroke-linejoin="round" d="M49.71 100.009c-.318-4.135-.398-7.588.088-7.623.212-.016.914 3.151 4.25 6.625 6.929 7.215 26.03 17.947 43.25 30.5 20.039 14.607 39.564 30.885 66 34.626 20.994 2.971 37.417 3.901 50.262 3.49 9.172-.293 15.479-5.211 21.363-6.616 27.485-6.566 24.106-18.548 24.625-17.875 1.179 1.53 1.773 3.358 2.332 6.757 0 0 .315 11.118-25.582 17.118-5.784 1.34-12.826 6.307-21.501 6.728-8.735.425-19.058.401-31.249-.225-16.069-.825-54.408-12.691-83.417-35.878-4.731-3.781-8.659-7.221-13.208-10.375-20.82-14.437-37.028-25.097-37.212-27.25z" transform="matrix(.94503 0 0 .94495 1.174 8.785)"/>
        <path fill="none" stroke-linejoin="round" d="M131.185 161.888s1.32 1.646 19.738 7.998c39.779 13.721 101.25 11.625 111.714-14.746" transform="matrix(.94503 0 0 .94495 1.174 8.785)"/>
        <path d="M174.999 122.636a2.098 2.639 0 0 1-2.098 2.639 2.098 2.639 0 0 1-2.098-2.639 2.098 2.639 0 0 1 2.098-2.639 2.098 2.639 0 0 1 2.098 2.639zm-21.279 2.563a2.639 2.099 82.295 0 1-1.726 2.897 2.639 2.099 82.295 0 1-2.434-2.334 2.639 2.099 82.295 0 1 1.726-2.897 2.639 2.099 82.295 0 1 2.434 2.334zm-20.101 6.56a2.639 2.099 82.287 0 1-1.726 2.897 2.639 2.099 82.287 0 1-2.434-2.334 2.639 2.099 82.287 0 1 1.726-2.896 2.639 2.099 82.287 0 1 2.434 2.333zm-18.637 4.985a2.639 2.099 82.295 0 1-1.726 2.897 2.639 2.099 82.295 0 1-2.434-2.334 2.639 2.099 82.295 0 1 1.726-2.897 2.639 2.099 82.295 0 1 2.434 2.334zm-17.75 5.456a2.639 2.099 82.287 0 1-1.725 2.896 2.639 2.099 82.287 0 1-2.434-2.333 2.639 2.099 82.287 0 1 1.725-2.897 2.639 2.099 82.287 0 1 2.435 2.334zm-18.365 5.355a2.639 2.099 82.295 0 1-1.726 2.896 2.639 2.099 82.295 0 1-2.434-2.334 2.639 2.099 82.295 0 1 1.726-2.896 2.639 2.099 82.295 0 1 2.434 2.334z" transform="scale(.94504 .94496) rotate(53.9 164.374 128.498)"/>
        <g fill="none" stroke-width=".529">
            <path d="M80.91 54.624c.158.285.326.572.502.861" transform="matrix(.94503 0 0 .94495 1.174 8.785)"/>
            <path stroke-dasharray="2.11346834,2.11346834" d="M82.506 57.152c9.31 13.276 35.078 30.529 51.752 41.859 20.253 13.763 36.07 28.704 32.397 63.479" transform="matrix(.94503 0 0 .94495 1.174 8.785)"/>
            <path d="M166.544 163.492c-.037.33-.077.661-.119.995" transform="matrix(.94503 0 0 .94495 1.174 8.785)"/>
        </g>
        <g fill="none" stroke-width=".529">
            <path d="M101.503 51.788l.795.6" transform="matrix(.94503 0 0 .94495 1.174 8.785)"/>
            <path stroke-dasharray="2.12733097,2.12733097" d="M103.899 53.6a2477.507 2477.507 0 0 1 36.523 28.286c11.938 9.423 29.212 22.091 37.875 33.875 12.171 16.557 8.217 40.7 6.887 48.813" transform="matrix(.94503 0 0 .94495 1.174 8.785)"/>
            <path d="M185.022 165.571c-.063.389-.112.718-.146.984" transform="matrix(.94503 0 0 .94495 1.174 8.785)"/>
        </g>
        <path fill="url(#linearGradient1155)" d="M170.792 121.918c1.269-7.479 9.505-15.531 22.588-20.282 5.414-1.965 8.427-5.49 11.232-4.503 3.472 1.222 8.924 6.052 8.091 8.593-.447 1.363-16.44 6.227-26.406 11.078-8.609 4.191-10.598 7.592-12.159 7.527-3.368-.14-3.588-.985-3.346-2.413zm-15.061-14.782c-1.018-1.333-.073-9.268 7.76-12.377 5.675-2.252 18.409-7.377 25.766-10.531 2.798-1.199 2.347-1.711 3.136-1.713 6.167-.018 7.834 6.605 7.001 8.523-.526 1.211-14.687 6.507-26.492 11.598-6.871 2.964-7.188 6.348-13.387 6.016-2.088-.113-2.765-.183-3.784-1.516zm-15.233-14.547c-.951-14.953 38.862-24.766 41.498-23.451 7.115 3.548 6.42 5.659 5.587 7.409-.453.952-15.072 4.589-27.125 9.756-10.11 4.334-16.695 9.767-17.754 9.604-2.324-.354-2.036-.646-2.206-3.318zM124.47 81.122c1.161-7.237 32.158-27.757 49.528-23.668 1.971.464 2.442 2.083 2.442 3.708s-46.986 22.672-49.064 22.991c-2.078.319-3.344-.303-2.906-3.031z" transform="matrix(.94503 0 0 .94495 1.174 8.785)"/>
    </g>
    <g stroke="#000" stroke-miterlimit="10" stroke-width="1.021">
        <path fill="url(#linearGradient990)" stroke-linejoin="round" d="M36.966 61.083l41.998 25.074-20.248 29.445-51.717-11.448 6.5-34.907z" transform="matrix(.97982 0 0 .9798 3.889 7.35)"/>
        <path fill="url(#linearGradient1138)" stroke-linejoin="round" d="M20.833 61.083S30.101 56.796 35 56.625c7.875-.276 13.479 8.501 16.677 11.5 3.198 2.999 0 13.75 0 13.75s-6.51-20.834-28.343-15.292z" transform="matrix(.97982 0 0 .9798 3.889 7.35)"/>
        <path fill="url(#linearGradient1130)" stroke-linejoin="round" d="M101.522 59.991c10.728-5.743 16.103 9.256 16.103 9.256l-5.375 7.003z" transform="matrix(.97982 0 0 .9798 3.889 7.35)"/>
        <path fill="url(#linearGradient1122)" stroke-linejoin="round" d="M112.25 76.25l5.375-7.003s10.038 18.64 24.628 36.628c8 9.862 16.202 20.063 23.664 27.209 6.327 6.061 12.546 9.475 13.22 13.341l-22.512-3.8z" transform="matrix(.97982 0 0 .9798 3.889 7.35)"/>
        <path fill="url(#linearGradient1114)" stroke-linejoin="round" d="M36.971 76.854C40.875 70 50.419 69.125 63.125 64.25c13.374-5.133 26.92-9.779 32.208-8.084 10.792 3.459 17.859 21.961 32.667 40.459 16.798 20.984 35.334 41.209 35.334 41.209s-23.332 5.331-24.841 14.664z" transform="matrix(.97982 0 0 .9798 3.889 7.35)"/>
        <path fill="url(#linearGradient1106)" stroke-linejoin="round" d="M72.382 89.633S60.334 73 45.917 74.166c-14.417 1.166-23.25 17.5-27.25 11-2.945-4.787-.572-16.282 4.666-18.583l-2.5-5.5s-.572 1.135-2.333 1.416c-2.055.327-3.833-2.833-6.667.834-1.79 2.317-5.5 32-5.5 32l30 9.417z" transform="matrix(.97982 0 0 .9798 3.889 7.35)"/>
        <path fill="url(#linearGradient1098)" d="M212.25 170c.009-9.93-17.76-14.236-31-22.25-9.179-5.556-14.76-11.478-17.916-11.375-7.709.25-24.334 10.148-25.959 14.125-1.625 3.977 3.093 43.244 3.093 43.244l12.28 7.137 58.087-10.284s1.407-11.95 1.415-20.597z" transform="matrix(.97982 0 0 .9798 3.889 7.35)"/>
        <path fill="url(#linearGradient1090)" stroke-linejoin="round" d="M11.833 63.333c.334 7.834-5.333 23 1.167 26.167 8.98 4.375 15.333-6.167 18.667-5.5C35.001 84.667 52 96 52 96l73 61.167-9 33.834-22.666 2.743L5.5 135.455l-3-16.205s1.167-54.75 9.333-55.917z" transform="matrix(.97982 0 0 .9798 3.889 7.35)"/>
        <path fill="url(#linearGradient1082)" stroke-linejoin="round" d="M29.675 151.802c-6.378-3.01-9.875-4.24-17.331-5.91 9.482-22.801 25.448-39.833 44.375-54.768 8.506 4.655 12.428 7.344 19.51 13.208-19.981 12.754-34.412 26.636-46.554 47.47zm46.403 29.239c-5.649-4.224-8.83-6.125-15.802-9.25 13.844-20.45 32.888-33.952 54.417-44.807 7.406 6.26 10.712 9.678 16.48 16.837-22.127 8.508-39.038 19.229-55.095 37.22z" transform="matrix(.97982 0 0 .9798 3.889 7.35)"/>
        <path fill="url(#linearGradient1072)" stroke-linejoin="round" d="M2.856 121.181c8.238-14.773 19.171-27.686 31.603-39.771 9.762 3.207 14.356 5.241 22.831 9.932-18.947 14.854-34.961 31.822-44.483 54.58zm57.868 50.73c-6.944-3.157-10.746-4.451-18.877-6.212 12.756-22.651 31.445-38.872 52.973-52.678 8.925 5.091 13.021 8.001 20.389 14.29-21.532 10.772-40.612 24.202-54.485 44.6z" transform="matrix(.97982 0 0 .9798 3.889 7.35)"/>
        <path fill="url(#linearGradient1064)" stroke-linejoin="round" d="M140.468 193.744s4.538-23.948-.855-43.193c-2.35-8.385-7.329-13.509-16.778-21.389-41.875-34.921-66.333-51.996-74-51.996-7.667 0-17.162 3.995-17.168 6.834-.02 8.5 48.708 37.057 76.702 65.167 8.465 8.5 9.049 38.137 7.631 41.835z" transform="matrix(.97982 0 0 .9798 3.889 7.35)"/>
        <path fill="url(#linearGradient1056)" stroke-linejoin="round" d="M161.156 136.647s10.11 6.837 20.511 12.853c8.314 4.81 16.964 8.793 19.666 10.57 6.083 4 10.917 9.93 10.917 9.93-.008 8.647-1.415 20.597-1.415 20.597l-21.235 3.76-4.971-5.521c-2.649-2.942-16.047-8.705-19.879-12.961-13.143-14.595-20.293-31.647-20.293-31.648 5.104-3.314 11.873-6.625 16.699-7.582z" transform="matrix(.97982 0 0 .9798 3.889 7.35)"/>
        <path fill="url(#linearGradient1038)" stroke-linejoin="round" d="M2.5 119.25c-1.167.083.935 19.932 1.75 21.5 1.625 3.125 21.344 17.735 48.25 36.417 19.55 13.575 41.424 31.158 66.833 35.667 86.167 15.291 96.769-16.999 96.667-20.833-.093-3.515-.668-18-3.751-22.001-.785-1.019 9.75 36.001-96.25 21.001-26.436-3.741-45.961-20.019-66-34.626-17.22-12.553-36.321-23.285-43.25-30.5-3.335-3.474-4.037-6.641-4.249-6.625z" transform="matrix(.97982 0 0 .9798 3.889 7.35)"/>
        <path fill="url(#linearGradient1030)" stroke-linejoin="round" d="M94.463 188.814s-18.457.714-22.082-2.314c-2.295-1.918-38.834-25.893-52.757-35.875-8.062-5.779-16.441-13.288-16.188-14.116a169.488 169.488 0 0 1-1.024-9.635v.001c.098 1.147 34.558 23.792 34.558 23.792L66.146 171.5z" transform="matrix(.97982 0 0 .9798 3.889 7.35)"/>
        <path fill="url(#linearGradient1014)" stroke-linejoin="round" d="M2.412 126.874c-.318-4.135-.398-7.588.088-7.624.212-.016.914 3.151 4.25 6.625 6.929 7.215 26.03 17.947 43.25 30.5 20.039 14.607 39.564 30.885 66 34.626 20.994 2.971 37.417 3.901 50.262 3.49 9.172-.293 15.479-5.211 21.363-6.616 27.485-6.566 24.106-18.548 24.625-17.875 1.179 1.53 1.773 3.358 2.332 6.757 0 0 .315 11.118-25.582 17.118-5.784 1.34-12.826 6.307-21.501 6.728-8.735.425-19.058.401-31.249-.225-16.069-.825-54.408-12.691-83.417-35.878-4.731-3.781-8.659-7.221-13.208-10.375-20.82-14.437-37.028-25.097-37.212-27.25z" transform="matrix(.97982 0 0 .9798 3.889 7.35)"/>
        <path fill="none" stroke-linejoin="round" d="M83.886 188.752s1.321 1.646 19.739 7.998c39.779 13.721 101.25 11.625 111.714-14.746" transform="matrix(.97982 0 0 .9798 3.889 7.35)"/>
        <path d="M127.702 149.5a2.098 2.639 0 0 1-2.098 2.639 2.098 2.639 0 0 1-2.098-2.639 2.098 2.639 0 0 1 2.098-2.639 2.098 2.639 0 0 1 2.098 2.639zm-21.287 2.577a2.64 2.099 82.295 0 1-1.726 2.897 2.64 2.099 82.295 0 1-2.434-2.334 2.64 2.099 82.295 0 1 1.726-2.898 2.64 2.099 82.295 0 1 2.434 2.335zm-20.098 6.555a2.64 2.099 82.295 0 1-1.726 2.897 2.64 2.099 82.295 0 1-2.434-2.334 2.64 2.099 82.295 0 1 1.726-2.898 2.64 2.099 82.295 0 1 2.434 2.335zm-18.633 4.975a2.64 2.099 82.295 0 1-1.726 2.898 2.64 2.099 82.295 0 1-2.434-2.335 2.64 2.099 82.295 0 1 1.726-2.898 2.64 2.099 82.295 0 1 2.434 2.335zm-17.752 5.463a2.64 2.099 82.295 0 1-1.726 2.898 2.64 2.099 82.295 0 1-2.434-2.335 2.64 2.099 82.295 0 1 1.726-2.897 2.64 2.099 82.295 0 1 2.434 2.334zm-18.367 5.357a2.64 2.099 82.295 0 1-1.726 2.897 2.64 2.099 82.295 0 1-2.434-2.334 2.64 2.099 82.295 0 1 1.726-2.898 2.64 2.099 82.295 0 1 2.434 2.335z" transform="scale(.97983 .9798) rotate(53.9 120.21 157.145)"/>
        <g fill="none" stroke-width=".51">
            <path d="M33.612 81.488c.158.285.326.572.502.861" transform="matrix(.97982 0 0 .9798 3.889 7.35)"/>
            <path stroke-dasharray="2.03836335,2.03836335" d="M35.208 84.016c9.31 13.276 35.078 30.529 51.752 41.859 20.253 13.763 36.07 28.704 32.397 63.479" transform="matrix(.97982 0 0 .9798 3.889 7.35)"/>
            <path d="M119.247 190.356c-.038.33-.078.661-.119.995" transform="matrix(.97982 0 0 .9798 3.889 7.35)"/>
        </g>
        <g fill="none" stroke-width=".51">
            <path d="M54.206 78.652l.795.6" transform="matrix(.97982 0 0 .9798 3.889 7.35)"/>
            <path stroke-dasharray="2.05173335,2.05173335" d="M56.601 80.464a2481.373 2481.373 0 0 1 36.524 28.286c11.938 9.423 29.212 22.091 37.875 33.875 12.171 16.557 8.217 40.7 6.887 48.813" transform="matrix(.97982 0 0 .9798 3.889 7.35)"/>
            <path d="M137.725 192.436c-.063.389-.112.718-.146.984" transform="matrix(.97982 0 0 .9798 3.889 7.35)"/>
        </g>
        <path fill="url(#linearGradient999)" d="M123.494 148.782c1.269-7.479 9.505-15.531 22.588-20.282 5.414-1.966 8.427-5.491 11.232-4.503 3.472 1.222 8.924 6.052 8.091 8.593-.447 1.363-16.44 6.227-26.406 11.078-8.609 4.191-10.598 7.592-12.159 7.527-3.368-.139-3.588-.985-3.346-2.413zM108.434 134c-1.018-1.333-.074-9.268 7.759-12.376 5.675-2.252 18.409-7.378 25.766-10.532 2.798-1.199 2.347-1.71 3.136-1.712 6.167-.018 7.834 6.606 7.001 8.523-.526 1.212-14.687 6.507-26.492 11.598-6.872 2.964-7.188 6.348-13.387 6.016-2.088-.114-2.765-.184-3.783-1.517zM93.2 119.453c-.951-14.953 38.862-24.765 41.498-23.451 7.115 3.548 6.42 5.659 5.587 7.409-.453.952-15.072 4.589-27.125 9.756-10.11 4.334-16.694 9.767-17.754 9.605-2.323-.355-2.036-.647-2.206-3.319zm-16.028-11.467c1.161-7.237 32.158-27.757 49.528-23.668 1.971.464 2.442 2.083 2.442 3.708s-46.986 22.672-49.064 22.99c-2.078.318-3.343-.302-2.906-3.03z" transform="matrix(.97982 0 0 .9798 3.889 7.35)"/>
    </g>
</svg>
