<svg xmlns="http://www.w3.org/2000/svg" xmlns:xlink="http://www.w3.org/1999/xlink" viewBox="0 0 256 256">
    <defs>
        <linearGradient id="innoGrad8">
            <stop offset="0" stop-color="#182127"/>
            <stop offset=".5" stop-color="#222f37"/>
            <stop offset="1" stop-color="#182127"/>
        </linearGradient>
        <linearGradient id="innoGrad1">
            <stop offset="0" stop-color="#182127"/>
            <stop offset=".3" stop-color="#222f37"/>
            <stop offset=".7" stop-color="#222f37"/>
            <stop offset="1" stop-color="#182127"/>
        </linearGradient>
        <linearGradient id="innoGrad6">
            <stop offset="0" stop-color="#92b301"/>
            <stop offset=".5" stop-color="#bbe601"/>
            <stop offset="1" stop-color="#92b301"/>
        </linearGradient>
        <linearGradient id="innoGrad5">
            <stop offset="0" stop-color="#1b262c"/>
            <stop offset="1" stop-color="#222f37"/>
        </linearGradient>
        <linearGradient id="innoGrad4">
            <stop offset="0" stop-color="#414042"/>
            <stop offset="1" stop-color="#333"/>
        </linearGradient>
        <linearGradient id="innoGrad3">
            <stop offset="0" stop-color="#a6cc01"/>
            <stop offset="1" stop-color="#d0ff01"/>
        </linearGradient>
        <linearGradient id="innoGrad2">
            <stop offset="0" stop-color="#d0ff01"/>
            <stop offset="1" stop-color="#a6cc01"/>
        </linearGradient>
        <linearGradient id="linearGradient909" x1="48.245" x2="174.794" y1="123.04" y2="123.04" gradientUnits="userSpaceOnUse" xlink:href="#innoGrad8"/>
        <linearGradient id="linearGradient939" x1="126.151" x2="153.721" y1="55.098" y2="55.098" gradientUnits="userSpaceOnUse" xlink:href="#innoGrad2"/>
        <linearGradient id="linearGradient947" x1="69.303" x2="96.886" y1="55.117" y2="55.117" gradientUnits="userSpaceOnUse" xlink:href="#innoGrad3"/>
        <linearGradient id="linearGradient963" x1="114.742" x2="114.742" y1="30.18" y2="51.524" gradientUnits="userSpaceOnUse" xlink:href="#innoGrad2"/>
        <linearGradient id="linearGradient971" x1="71.762" x2="151.276" y1="23.72" y2="23.72" gradientUnits="userSpaceOnUse" xlink:href="#innoGrad1"/>
        <linearGradient id="linearGradient988" x1="68.274" x2="90.278" y1="91.696" y2="35.286" gradientUnits="userSpaceOnUse" xlink:href="#innoGrad3"/>
        <radialGradient id="radialGradient996" cx="111.518" cy="25.491" r="3.903" fx="111.518" fy="25.491" gradientUnits="userSpaceOnUse" xlink:href="#innoGrad4"/>
        <linearGradient id="linearGradient1066" x1="122.518" x2="122.518" y1="20.619" y2="16.339" gradientUnits="userSpaceOnUse" xlink:href="#innoGrad5"/>
        <linearGradient id="linearGradient1074" x1="95.499" x2="127.536" y1="15.355" y2="15.355" gradientUnits="userSpaceOnUse" xlink:href="#innoGrad6"/>
    </defs>
    <g stroke="#000" stroke-linejoin="round" stroke-miterlimit="10" stroke-width=".886">
        <path fill="url(#linearGradient1074)" d="M95.942 16.338l5.646 1.726c3.871-2.708 17.198-2.695 20.67 0l4.835-1.726c-3.842-4.88-25.703-4.963-31.151 0z" transform="matrix(1.12899 0 0 1.12854 2.097 -8.273)"/>
        <path fill="url(#linearGradient1066)" d="M111.518 40.59c-7.852 0-10.127-24.266-10.127-24.266-14.17.032-25.25.316-26.966 1l37.094 33.092 37.094-33.092c-1.717-.683-11.925-.954-26.095-.985 0 0-3.149 24.251-11 24.251z" transform="matrix(1.12899 0 0 1.12854 2.097 -8.273)"/>
    </g>
    <g stroke-width=".886" transform="matrix(1.12899 0 0 1.12854 2.097 -8.273)">
        <path fill="#222f37" stroke="#000" stroke-linejoin="round" stroke-miterlimit="10" d="M74.631 17.324c-.826-.097-2.577.745-3.264 3.833-1 4.5-.33 6.781 1.041 5.409l.354-1.531s-1.301.841-.207-3.503c.612-2.433 1.684-2.803 1.684-2.803zm73.98 0c.826-.097 2.577.745 3.264 3.833 1 4.5.33 6.781-1.041 5.409l-.354-1.531s1.301.841.207-3.503c-.612-2.433-1.684-2.803-1.684-2.803z"/>
        <path fill="#92b301" stroke="#000" stroke-linejoin="round" stroke-miterlimit="10" d="M70.863 89.501s-4.155.167-2.59 2.195c5.186 6.72 3.806 10.663 3.806 10.663l5.734.641z"/>
        <path fill="url(#linearGradient909)" stroke="#000" stroke-linejoin="round" stroke-miterlimit="10" d="M113.667 51c-.776-.742-3.602-.819-4.297 0 0 0-.657 14.48-2.834 34.666-.445 4.132-1.493 9.064-1.869 13.751-.247 3.074-.524 5.75-.833 8.917-.158 1.618.391 3.294.202 4.915-.374 3.209-2.016 5.733-2.167 9.083-.197 4.363 1.687 8.687 1.798 13.002.381 14.819-.43 29.217-.083 41.918.299 10.922.367 20.663-.25 28.832-.766 10.137-1.485 17.216-3.529 21.471-.89 1.852-10.596 1.603-20.853.027-1.858-.285-3.472.337-5.368 0-2.652-.472-6.536-1.26-9.083-1.75-9.287-1.784-15.472-4.664-15.798-6.165-.082-.38.466-1.064.666-2.336 1.277-8.108 7.427-33.644 14.313-65.203.827-3.792 1.971-7.323 2.688-11.296.563-3.119.696-6.655 1.334-9.834 1.422-7.085 3.2-14.259 4.5-21.579.342-1.923-.218-4.02-.251-6.169-.164-10.435-3.217-23.913-2.25-44.919.221-4.817.456-9.069.7-12.827.265-4.08 1.125-7.497 1.411-10.506.344-3.63.117-6.629.479-8.992.24-1.566.999-2.636 1.243-3.763.47-2.175.426-3.872.89-4.921.35-.792 19.818 3.551 37.093 3.551 17.275 0 36.744-4.343 37.094-3.551.464 1.049.42 2.747.89 4.921.244 1.126 1.003 2.197 1.243 3.763.939 6.126 1.838 15.969 2.59 32.325.967 21.006-2.086 34.484-2.25 44.919-.033 2.15-.593 4.247-.251 6.169 1.3 7.32 3.078 14.493 4.5 21.579.638 3.179.771 6.715 1.334 9.834.717 3.973 1.86 7.504 2.688 11.296 6.886 31.56 13.035 57.095 14.313 65.203.2 1.271.748 1.956.666 2.336-.326 1.501-7.296 3.631-16.583 5.415-2.548.49-6.014.695-8.666 1.167-1.896.337-3.142 1.048-5 1.333-10.257 1.575-19.963 1.824-20.853-.027-2.044-4.255-2.091-11.42-2.856-21.557-.618-8.169-1.923-17.828-1.625-28.75.347-12.701.744-26.806 1.125-41.625.111-4.315 1.489-8.929 1.292-13.292-.152-3.35-1.793-5.875-2.167-9.083-.188-1.62-.359-3.243-.517-4.861-.309-3.167-1.236-5.814-1.483-8.889-.376-4.687-.055-9.701-.5-13.833C114.323 65.48 113.667 51 113.667 51"/>
        <path fill="#141c21" fill-opacity=".498" d="M78.487 227.398L86.5 208.75l-7.084 19.02-.929-.372zm41.099-25.467L129.75 178.5l-9.239 23.812-.925-.381zM93.411 99.333c-.669 6.017-2.597 12.055-5.146 17.521-2.675 5.739-6.753 11.375-12.962 13.479 5.786-2.854 9.337-8.233 12.065-13.906 2.623-5.457 4.473-11.259 6.043-17.094zm16.414-48.54c-3.41-7.067-8.951-13.616-16.414-16.418 6.414 2.719 11.232 8.264 14.377 14.44-3.164-2.636-7.103-4.253-11.021-5.385 4.562 1.655 9.156 3.966 12.216 7.888l.387-.317.455-.208zm19.8-16.418c-7.463 2.802-13.003 9.352-16.414 16.418l.455.207.387.317c3.06-3.921 7.654-6.232 12.215-7.888-3.917 1.132-7.856 2.749-11.02 5.385 3.145-6.174 7.963-11.72 14.377-14.439zm-37.75 90.5a46.43 46.43 0 0 0-.807 7.246c-.092 2.937.337 5.833.498 8.759.06.972.264 2.615-.671 3.262-1.029.712-2.831-.132-3.819-.52-1.346-.529-2.649-1.161-3.992-1.699-1.126-.451-3.13-1.387-4.309-.663-.574.347-.656 1.119-.766 1.72-.295 1.614-.353 3.306-.454 4.942-.199 3.24-.35 6.484-.475 9.728-.24 6.223-.397 12.448-.584 18.672-.156 5.226-.329 10.451-.496 15.678a707.221 707.221 0 0 1 .081-32.076c.084-3.24.191-6.48.351-9.718.164-2.714.128-5.682.874-8.315 1.591-5.617 12.81 4.065 13.509 1.076.35-1.497.064-3.216-.033-4.732-.108-1.688-.229-3.39-.143-5.082a42.92 42.92 0 0 1 1.236-8.278zm41.042 9.5c-1.118 2.595-2.261 5.185-3.284 7.817-.665 1.709-1.321 3.435-1.795 5.207-.287 1.072-.873 2.651.083 3.524 2.463 2.252 5.573 3.844 8.313 5.733 1.399.967 2.808 1.946 4.083 3.075.201.179 2.698 2.889 2.185 3.018.191-.053-.768-1.284-.812-1.331-.481-.521-1.057-.954-1.628-1.37-1.461-1.063-2.992-2.021-4.539-2.953-1.602-.966-3.216-1.916-4.792-2.924-1.291-.824-2.702-1.647-3.746-2.786-.851-.929-.546-2.346-.272-3.453.457-1.848 1.188-3.635 1.963-5.368 1.253-2.8 2.639-5.57 4.241-8.189zm9.583-56.208c-.979 4.918-3.432 9.55-6.31 13.602-1.816 2.559-3.755 5.02-5.676 7.5-1.787 2.306-3.855 4.743-4.95 7.478-.451 1.127-.72 2.522-.439 3.726.334 1.436 1.84 1.371 3.034 1.398 1.159.026 2.495.144 3.074 1.312.261.526.313 1.172.269 1.753-.223 2.857-1.261 5.684-2.187 8.375-.97 2.82-2.025 5.614-3.152 8.376-.909 2.229-1.831 4.456-2.83 6.646 1.631-4.472 3.265-8.946 4.737-13.474.953-2.93 2.008-5.972 2.438-9.033.08-.569.132-1.214.079-1.752-.24-1.214-1.426-1.254-2.45-1.267-1.157-.015-2.545.031-3.381-.927-.897-1.028-.812-2.659-.58-3.911.536-2.896 2.727-5.479 4.473-7.75 3.708-4.823 7.851-9.346 10.794-14.704 1.268-2.307 2.346-4.809 3.057-7.348z"/>
        <path fill="none" stroke="#000" stroke-miterlimit="10" d="M109.37 51s-.657 14.48-2.834 34.666c-.445 4.132-1.493 9.064-1.869 13.751-.247 3.074-.524 5.75-.833 8.917-.158 1.618.391 3.294.202 4.915-.374 3.209-2.016 5.733-2.167 9.083-.197 4.363 1.687 8.687 1.798 13.002.381 14.819-.43 29.217-.083 41.918.299 10.922.367 20.663-.25 28.832-.766 10.137-1.485 17.216-3.529 21.471-.89 1.852-10.596 1.603-20.853.027-1.858-.285-3.472.337-5.368 0-2.652-.472-6.536-1.26-9.083-1.75-9.287-1.784-15.472-4.664-15.798-6.165-.082-.38.466-1.064.666-2.336 1.277-8.108 7.427-33.644 14.313-65.203.827-3.792 1.971-7.323 2.688-11.296.563-3.119.696-6.655 1.334-9.834 1.422-7.085 3.2-14.259 4.5-21.579.342-1.923-.218-4.02-.251-6.169-.164-10.435-3.217-23.913-2.25-44.919.221-4.817.456-9.069.7-12.827.265-4.08 1.125-7.497 1.411-10.506.344-3.63.117-6.629.479-8.992.24-1.566.999-2.636 1.243-3.763.47-2.175.426-3.872.89-4.921.35-.792 19.818 3.551 37.093 3.551 17.275 0 36.744-4.343 37.094-3.551.464 1.049.42 2.747.89 4.921.244 1.126 1.003 2.197 1.243 3.763.939 6.126 1.838 15.969 2.59 32.325.967 21.006-2.086 34.484-2.25 44.919-.033 2.15-.593 4.247-.251 6.169 1.3 7.32 3.078 14.493 4.5 21.579.638 3.179.771 6.715 1.334 9.834.717 3.973 1.86 7.504 2.688 11.296 6.886 31.56 13.035 57.095 14.313 65.203.2 1.271.748 1.956.666 2.336-.326 1.501-7.296 3.631-16.583 5.415-2.548.49-6.014.695-8.666 1.167-1.896.337-3.142 1.048-5 1.333-10.257 1.575-19.963 1.824-20.853-.027-2.044-4.255-2.091-11.42-2.856-21.557-.618-8.169-1.923-17.828-1.625-28.75.347-12.701.744-26.806 1.125-41.625.111-4.315 1.489-8.929 1.292-13.292-.152-3.35-1.793-5.875-2.167-9.083-.188-1.62-.359-3.243-.517-4.861-.309-3.167-1.236-5.814-1.483-8.889-.376-4.687-.055-9.701-.5-13.833C114.323 65.48 113.667 51 113.667 51c-.777-.742-3.602-.818-4.297 0z"/>
        <path fill="#acd401" stroke="#000" stroke-linejoin="round" stroke-miterlimit="10" d="M152.935 81.178c-.69 8.961-1.755 16.028-1.851 22.074-.033 2.15-.593 4.247-.251 6.169 1.3 7.32 3.078 14.493 4.5 21.579.638 3.179.771 6.715 1.334 9.834.717 3.973 1.86 7.504 2.688 11.296 6.886 31.56 13.035 57.095 14.313 65.203.2 1.271.748 1.956.666 2.336-.081.372-.57.782-1.401 1.217.312-2.995-10.317-46.946-17.557-80.136-.594-2.72-.704-6.85-1.25-9.375-2.754-12.74-5.425-22.589-5.541-25.791-.042-1.155.857-2.762 1-4.499.66-8.046 2.058-20.439 2.058-20.439zM153.278 75.873c.269-5.209.356-11.011.056-17.54-.729-15.87-1.598-25.607-2.506-31.768l-3.096.477s4.478 38.976 1.693 52.212z"/>
        <path fill="url(#linearGradient939)" d="M152.935 81.178c.131-1.698.249-3.465.343-5.305 0 0-17.777-9.498-19.61-12.54-1.192-1.979-2.917-33.216-2.034-34.314l-4.752.426c-1.256 4.805 2.044 35.723 2.952 37.221 1.869 3.084 23.101 14.512 23.101 14.512z"/>
        <path fill="#acd401" stroke="#000" stroke-linejoin="round" stroke-miterlimit="10" d="M69.746 75.655a178.076 178.076 0 0 1-.044-17.322c.221-4.817.456-9.069.7-12.827.265-4.08 1.125-7.497 1.411-10.506.318-3.349.149-6.161.405-8.433l3.086.475s-4.472 39.006-1.688 52.242z"/>
        <path fill="url(#linearGradient947)" d="M69.746 75.655c.098 1.933.22 3.785.358 5.561 0 0 21.229-11.466 23.099-14.55.908-1.498 4.208-32.416 2.952-37.221l-4.752-.426c.883 1.098-.842 32.335-2.034 34.314-1.833 3.042-19.623 12.322-19.623 12.322z"/>
        <path fill="#92b301" d="M126.643 35.914a23.388 23.388 0 0 1 2.982-1.539 23.382 23.382 0 0 0-2.987 1.379l.005.16zM93.411 34.375c1.037.439 2.028.96 2.982 1.539l.005-.16a23.382 23.382 0 0 0-2.987-1.379z"/>
        <path fill="none" stroke="#000" stroke-linejoin="round" stroke-miterlimit="10" d="M152.935 81.178c.131-1.698.249-3.465.343-5.305 0 0-17.777-9.498-19.61-12.54-1.192-1.979-2.917-33.216-2.034-34.314l-4.752.426c-1.256 4.805 2.044 35.723 2.952 37.221 1.869 3.084 23.101 14.512 23.101 14.512zM69.746 75.655c.098 1.933.22 3.785.358 5.561 0 0 21.229-11.466 23.099-14.55.908-1.498 4.208-32.416 2.952-37.221l-4.752-.426c.883 1.098-.842 32.335-2.034 34.314-1.833 3.042-19.623 12.322-19.623 12.322z"/>
        <path fill="#acd401" stroke="#000" stroke-linejoin="round" stroke-miterlimit="10" d="M70.104 81.217c.691 8.942 1.753 15.998 1.848 22.035.033 2.15.593 4.247.251 6.169-1.3 7.32-3.078 14.493-4.5 21.579-.638 3.179-.771 6.715-1.334 9.834-.717 3.973-1.86 7.504-2.688 11.296-6.886 31.56-13.035 57.095-14.313 65.203-.2 1.271-.748 1.956-.666 2.336.084.391.566.874 1.396 1.408l-.001-.002c-.312-2.995 10.324-47.136 17.563-80.325.594-2.72.704-6.85 1.25-9.375 2.754-12.74 5.425-22.589 5.541-25.791.042-1.155-.857-2.762-1-4.499-.66-8.046-2.058-20.439-2.058-20.439z"/>
        <path fill="url(#linearGradient963)" stroke="#000" stroke-linejoin="round" stroke-miterlimit="10" d="M108.295 30.18a151.126 151.126 0 0 0 6.447 0v.035s.309 12.036-.198 16.161c-.507 4.125-.877 4.624-.877 4.624-.776-.742-3.602-.819-4.297 0 0 0-.371-.5-.879-4.625-.507-4.125-.197-16.161-.197-16.161"/>
        <path fill="url(#linearGradient971)" stroke="#000" stroke-linejoin="round" stroke-miterlimit="10" d="M72.217 26.567c.021-.19.046-.377.074-.56.24-1.566.999-2.636 1.243-3.763.47-2.175.426-3.872.89-4.921.35-.792 19.818 3.551 37.093 3.551 17.275 0 36.744-4.343 37.094-3.551.464 1.049.42 2.747.89 4.921.244 1.126 1.003 2.197 1.243 3.763.028.183.057.368.084.557h.006s-20.667 3.649-39.316 3.649-39.316-3.649-39.316-3.649z"/>
        <path fill="#202c34" stroke="#000" stroke-linejoin="round" stroke-miterlimit="10" d="M131.032 19.509c.582 1.155 1.39 8.189.937 9.51.725.487 4.307.505 4.564-.519.316-1.258-.696-8.855-1.244-9.521-.336-.408-3.715-.375-4.257.53z"/>
        <path fill="#d0ff01" stroke="#000" stroke-linejoin="round" stroke-miterlimit="10" d="M89.223 33.048l-.168 2.168 1.223.07.229-2.749z"/>
        <path fill="#d0ff01" stroke="#000" stroke-miterlimit="10" d="M84.891 27.145c.585-.525 7.401-.485 7.838 1.046.437 1.531-1.085 4.926-4.503 4.974-3.417.047-3.92-5.495-3.335-6.02zm3.419 4.837c2.343.232 3.287-2.494 3.269-3.083-.018-.589-5.107-1.309-5.659-.832-.551.477.291 3.707 2.39 3.915z"/>
        <path fill="#202c34" stroke="#000" stroke-linejoin="round" stroke-miterlimit="10" d="M92.003 19.509c-.582 1.155-1.39 8.189-.937 9.51-.725.487-4.307.505-4.564-.519-.316-1.258.696-8.855 1.244-9.521.337-.408 3.715-.375 4.257.53z"/>
        <path fill="url(#linearGradient988)" stroke="#000" stroke-linejoin="round" stroke-miterlimit="10" d="M79.914 105c14.507-1.467 10.365-69.714 10.365-69.714l-5.028-.288s1.575 62.292-6.5 63.126c-4.769.493-9.727-6.741-10.477-6.428 2.769 4.928 2.615 9.322 2.615 9.322.614.638 3.142 4.607 9.025 3.982z"/>
        <path fill="#d0ff01" stroke="#000" stroke-linejoin="round" stroke-miterlimit="10" d="M86.624 35.077s-.108-3.869 1.14-3.833c1.493.042 1.459.67 1.459.67l1.392-.896s-1.24-1.149-3.365-.803-2 4.784-2 4.784z"/>
        <circle cx="111.518" cy="25.491" r="3.46" fill="url(#radialGradient996)" stroke="#000" stroke-linejoin="round" stroke-miterlimit="10"/>
        <circle cx="111.518" cy="25.491" r="2.365" fill="none" stroke="#000" stroke-linejoin="round" stroke-miterlimit="10" stroke-width=".443"/>
        <path fill="none" stroke="#000" stroke-linecap="round" stroke-linejoin="round" stroke-miterlimit="10" stroke-width=".443" d="M112.206 24.804l-1.375 1.375M110.831 24.804l1.375 1.375"/>
        <path fill="none" stroke="#000" stroke-linecap="round" stroke-linejoin="round" stroke-miterlimit="10" d="M107.375 20.797l-3.5 2.869v3.821l3.5 2.728"/>
    </g>
</svg>
