<?xml version="1.0" encoding="UTF-8" standalone="no"?>
<svg
   xmlns:dc="http://purl.org/dc/elements/1.1/"
   xmlns:cc="http://creativecommons.org/ns#"
   xmlns:rdf="http://www.w3.org/1999/02/22-rdf-syntax-ns#"
   xmlns:svg="http://www.w3.org/2000/svg"
   xmlns="http://www.w3.org/2000/svg"
   xmlns:xlink="http://www.w3.org/1999/xlink"
   xmlns:sodipodi="http://sodipodi.sourceforge.net/DTD/sodipodi-0.dtd"
   xmlns:inkscape="http://www.inkscape.org/namespaces/inkscape"
   version="1.1"
   id="svg4206"
   viewBox="0 0 256 256"
   sodipodi:docname="riderfit.svg"
   inkscape:version="0.92.3 (2405546, 2018-03-11)">
  <sodipodi:namedview
     pagecolor="#ffffff"
     bordercolor="#666666"
     borderopacity="1"
     objecttolerance="10"
     gridtolerance="10"
     guidetolerance="10"
     inkscape:pageopacity="0"
     inkscape:pageshadow="2"
     inkscape:window-width="1920"
     inkscape:window-height="1001"
     id="namedview4713"
     showgrid="false"
     inkscape:zoom="0.921875"
     inkscape:cx="128"
     inkscape:cy="128"
     inkscape:window-x="-9"
     inkscape:window-y="41"
     inkscape:window-maximized="1"
     inkscape:current-layer="svg4206" />
  <style
     id="style3">
    svg { cursor: default; }
  </style>
  <defs
     id="defs4208">
    <linearGradient
       id="innoGrad1">
      <stop
         id="stop2049"
         offset="0"
         style="stop-color:#ffb380;stop-opacity:1" />
      <stop
         id="stop2051"
         offset="1"
         style="stop-color:#ffccaa;stop-opacity:1" />
    </linearGradient>
    <linearGradient
       id="innoGrad2">
      <stop
         id="stop2041"
         offset="0"
         style="stop-color:#ff5555;stop-opacity:1" />
      <stop
         id="stop2043"
         offset="1"
         style="stop-color:#ff8080;stop-opacity:1" />
    </linearGradient>
    <linearGradient
       id="innoGrad3">
      <stop
         id="stop2029"
         offset="0"
         style="stop-color:#ff7f2a;stop-opacity:1" />
      <stop
         id="stop2031"
         offset="1"
         style="stop-color:#ffb380;stop-opacity:1" />
    </linearGradient>
    <linearGradient
       gradientTransform="matrix(1.331,0,0,1.331,-490.46908,-294.95669)"
       gradientUnits="userSpaceOnUse"
       y2="867.25134"
       x2="460.75552"
       y1="867.53186"
       x1="466.69437"
       id="linearGradient2027"
       xlink:href="#innoGrad1" />
    <linearGradient
       gradientTransform="matrix(1.331,0,0,1.331,-490.46908,-294.95669)"
       gradientUnits="userSpaceOnUse"
       y2="837.32593"
       x2="466.05914"
       y1="846.54358"
       x1="465.996"
       id="linearGradient2035"
       xlink:href="#innoGrad3" />
    <linearGradient
       gradientTransform="matrix(1.331,0,0,1.331,-490.46908,-294.95669)"
       gradientUnits="userSpaceOnUse"
       y2="932.22791"
       x2="459.06094"
       y1="931.9754"
       x1="472.66101"
       id="linearGradient2047"
       xlink:href="#innoGrad2" />
    <linearGradient
       gradientTransform="matrix(1.331,0,0,1.331,-490.46908,-294.95669)"
       gradientUnits="userSpaceOnUse"
       y2="949.95795"
       x2="416.43539"
       y1="951.97827"
       x1="429.4411"
       id="linearGradient2055"
       xlink:href="#innoGrad1" />
    <linearGradient
       gradientTransform="matrix(1.331,0,0,1.331,-490.46908,-294.95669)"
       gradientUnits="userSpaceOnUse"
       y2="927.8609"
       x2="511.01093"
       y1="928.87103"
       x1="501.16193"
       id="linearGradient2063"
       xlink:href="#innoGrad1" />
    <linearGradient
       gradientTransform="matrix(1.331,0,0,1.331,-490.46908,-294.95669)"
       gradientUnits="userSpaceOnUse"
       y2="977.54071"
       x2="472.67856"
       y1="973.07642"
       x1="471.96429"
       id="linearGradient2088"
       xlink:href="#innoGrad1" />
    <linearGradient
       gradientTransform="matrix(1.331,0,0,1.331,-490.46908,-294.95669)"
       gradientUnits="userSpaceOnUse"
       y2="976.64789"
       x2="449.375"
       y1="973.9693"
       x1="450.17856"
       id="linearGradient2090"
       xlink:href="#innoGrad1" />
  </defs>
  <metadata
     id="metadata4211">
    <rdf:RDF>
      <cc:Work
         rdf:about="">
        <dc:format>image/svg+xml</dc:format>
        <dc:type
           rdf:resource="http://purl.org/dc/dcmitype/StillImage" />
        <dc:title></dc:title>
      </cc:Work>
    </rdf:RDF>
  </metadata>
  <path
     style="fill:#1a1a1a;stroke:#000000;stroke-width:0.59692436px;stroke-linecap:butt;stroke-linejoin:miter;stroke-opacity:1"
     d="m 65.495375,104.323 c 0,0 8.16281,11.30573 7.87128,17.11137 -0.29153,5.80565 6.9967,23.52815 7.28823,24.75039 0,0 0.29153,11.00017 2.33223,13.75021 2.0407,2.75004 1.16611,8.25012 -0.58306,11.00017 -1.74917,2.75004 -3.78988,10.08349 -3.78988,13.44465 0,3.36116 1.74918,15.58357 7.28823,16.80582 5.53905,1.22224 20.115495,11.91685 20.115495,11.91685 0,0 34.40041,10.08349 45.77004,7.94456 11.36963,-2.13892 7.28822,-3.66672 7.28822,-3.66672 0,0 18.94939,1.83336 27.40373,-3.36116 8.45434,-5.19453 11.36963,-5.50009 11.36963,-7.63901 0,-2.13892 -4.37294,-15.27801 -3.49835,-20.7781 0.87458,-5.50008 -3.49835,-21.08366 -3.49835,-21.08366 0,0 6.70517,-49.50076 9.0374,-55.30641 2.33223,-5.80564 3.78987,-8.25012 3.78987,-8.25012 0,0 4.66447,1.22224 4.37294,6.41676 -0.29153,5.19453 1.45764,14.66689 -0.29153,20.16698 -1.74917,5.50008 6.70517,31.16715 3.78988,41.86176 -2.91529,10.69461 4.0814,25.66706 0.87458,33.61163 0,0 0.29153,6.41676 4.66447,7.02788 4.37293,0.61112 11.0781,5.19453 11.36962,6.72233 0.29153,1.5278 9.32893,-48.58409 12.53575,-51.02857 3.20682,-2.44448 8.16281,-36.66723 6.41364,-44.6118 -1.74918,-7.94456 -10.49505,-38.806147 -8.74587,-48.889636 1.74917,-10.08349 4.0814,-10.69461 6.70516,-13.139092 2.62376,-2.444483 -0.87458,-12.833533 -0.87458,-12.833533 0,0 -4.08141,-1.527798 -3.20682,-16.194692 0,0 2.62376,-9.166809 0.58306,-10.08349 -2.04071,-0.916681 -16.32562,1.222242 -19.24091,2.444483 -2.91529,1.222241 -18.36633,7.639007 -23.32232,9.777929 -4.95599,2.138922 -24.48843,3.972284 -28.86137,-0.61112 -4.37293,-4.583405 -25.65454,-5.194525 -28.56983,-10.694611 -2.91529,-5.500085 -5.24752,-3.972284 -5.24752,-3.972284 0,0 -5.24753,9.47237 -5.53905,5.805646 -0.29153,-3.666724 -4.66447,-4.277844 -4.66447,-4.277844 0,0 -7.87128,8.555688 -13.1188,10.38905 -5.24752,1.833362 -28.569835,13.444653 -34.400415,11.00017 -5.83058,-2.444482 -14.57645,-0.61112 -22.73926,-6.111205 0,0 -30.610536,-2.138922 -32.068181,2.444482 -1.457644,4.583404 -2.915289,6.722326 -2.915289,6.722326 0,0 3.498347,-6.111205 2.915289,1.527802 -0.583058,7.639004 2.91529,7.027883 1.457645,11.611288 -1.457645,4.583404 -10.203513,-2.138922 -6.122108,6.722326 4.081405,8.861248 2.040703,7.944568 4.664463,10.38905 2.623761,2.444482 1.749174,8.250127 0,11.00017 -1.749173,2.750042 2.623761,6.111205 1.166116,10.38905 -1.457645,4.277848 -4.081405,44.306235 -7.579753,49.195195 -3.498347,4.88897 -2.915289,27.19487 -2.915289,27.19487 0,0 3.789876,36.66723 6.413637,41.86176 2.62376,5.19452 0.583058,29.33378 2.915289,32.08383 2.332232,2.75004 9.037398,4.27784 9.911985,1.83336 0.874586,-2.44448 11.952686,0 11.952686,0 0,0 -4.37293,-23.8337 -2.0407,-30.55603 2.33223,-6.72233 -0.87459,-27.19487 3.78987,-31.47271 4.66447,-4.27784 6.12211,-2.13892 6.41364,-4.88896 0.29153,-2.75005 -1.45764,-12.83353 -4.37293,-15.58358 -2.91529,-2.75004 -3.49835,-17.72249 2.62376,-28.11154 6.12211,-10.38905 13.41033,-28.41711 13.1188,-31.77827 z"
     id="path850"
     inkscape:connector-curvature="0" />
  <path
     style="fill:#00ffff;stroke:#000000;stroke-width:0.59692436px;stroke-linecap:butt;stroke-linejoin:miter;stroke-opacity:1"
     d="m 127.88257,119.90657 c 0,0 -18.36633,2.13892 -20.99009,10.08349 0,0 -4.0814,3.66672 -6.70516,3.66672 -2.62376,0 -19.532435,18.02806 -20.407025,14.6669 -0.87459,-3.36116 2.0407,7.94457 2.0407,7.94457 0,0 6.41364,-9.16681 8.74587,-10.38905 2.332225,-1.22225 7.871275,-11.30573 11.369625,-11.30573 3.49835,0 6.70517,-6.11121 6.41364,-1.22225 -0.29153,4.88897 -8.16281,17.41694 -8.16281,19.86142 0,2.44449 -11.078095,-1.22224 -11.661155,-3.36116 -0.58306,-2.13892 -5.53905,4.27784 0.87459,7.33345 6.413625,3.0556 6.413625,-0.61112 6.996685,2.44448 0.58306,3.0556 -2.33223,4.5834 -3.78988,5.80564 -1.457635,1.22225 -9.328915,-5.50008 -10.495035,-8.55568 -1.16611,-3.05561 3.20682,12.52797 6.70517,15.58357 3.49835,3.0556 9.328915,1.22224 9.037395,6.41676 -0.29153,5.19453 -0.58306,6.41677 -0.87459,8.25013 -0.29153,1.83336 0.58306,4.58341 2.33223,6.41677 1.74917,1.83336 -2.0407,11.61129 -2.0407,11.61129 0,0 2.62376,3.36116 4.0814,2.44448 1.45765,-0.91668 1.16612,-8.55569 3.78988,-10.08349 2.62376,-1.5278 23.03079,3.97229 24.77996,4.88897 1.74917,0.91668 38.48182,-7.94457 37.60723,0.91668 -0.87458,8.86125 -0.87458,12.52797 1.74918,11.91685 2.62376,-0.61112 0.29153,-12.22241 2.91529,-17.11138 2.62376,-4.88896 4.37293,-6.41676 7.87128,-11.30573 3.49835,-4.88896 11.66116,-17.41693 11.66116,-17.41693 0,0 -8.74587,16.50025 -13.41033,17.11137 -4.66447,0.61112 -6.9967,-4.88896 -1.16612,-9.47237 5.83058,-4.5834 9.0374,-9.77792 11.95269,-13.13909 2.91529,-3.36116 0,-7.02788 0.87458,-9.47237 0.87459,-2.44448 -8.45434,12.22242 -9.62045,12.52798 -1.16612,0.30556 -5.83058,-6.41677 -5.83058,-6.41677 0,0 10.78657,-9.16681 11.0781,-11.91685 0.29153,-2.75004 -7.87128,5.50008 -7.87128,5.50008 0,0 -2.91529,3.05561 -5.24752,-1.22224 -2.33224,-4.27784 -11.36963,-15.58357 -12.82728,-18.63917 -1.45764,-3.05561 13.99339,27.19486 11.0781,30.25046 -2.91529,3.05561 -20.69855,8.55569 -25.65454,5.19453 -4.956,-3.36116 -15.45104,-2.44448 -16.0341,-1.22224 -0.58305,1.22224 -23.61384,4.27784 -26.82066,1.83336 -3.20682,-2.44449 7.28822,22.61146 12.53574,24.13926 5.24753,1.5278 14.28492,7.33345 19.82397,3.66672 5.53905,-3.66672 24.77996,-1.83336 28.27831,-7.02788 3.49835,-5.19453 8.45434,-9.47237 8.74587,-14.6669 0.29153,-5.19452 4.66446,-6.1112 0.29153,-6.41676 -4.37294,-0.30556 -27.11219,6.1112 -29.73595,3.36116 -2.62376,-2.75004 -8.74587,-3.66672 -13.11881,-2.75004 -4.37293,0.91668 -22.1562,4.88896 -23.03078,3.36116 -0.87459,-1.5278 -3.49835,0.30556 -3.49835,0.30556 0,0 -0.58306,-20.47254 1.74917,-25.3615 2.33223,-4.88897 5.53905,-13.44465 9.0374,-17.11138 3.49835,-3.66672 1.74917,-5.80564 14.57645,-11.91685 z"
     id="path33"
     inkscape:connector-curvature="0" />
  <path
     style="fill:none;stroke:#000000;stroke-width:0.59692436px;stroke-linecap:butt;stroke-linejoin:miter;stroke-opacity:1"
     d="m 70.742895,44.433191 c 0,0 -13.41033,10.694607 -14.57645,21.083657"
     id="path29"
     inkscape:connector-curvature="0" />
  <path
     style="fill:#00ffff;stroke:#000000;stroke-width:0.59692436px;stroke-linecap:butt;stroke-linejoin:miter;stroke-opacity:1"
     d="m 131.08939,22.73841 c 0,0 3.20681,6.111206 6.70516,4.277844 3.49835,-1.833362 6.70517,1.222241 6.70517,1.222241 0,0 11.36963,5.500086 5.83058,6.722327 -5.53905,1.222241 -12.53575,1.527801 -12.82728,3.666723 -0.29153,2.138922 -5.83058,45.52848 -2.62376,51.639685 3.20682,6.111206 6.9967,10.69461 6.9967,9.166813 0,-1.52781 -2.04071,-7.027891 4.37293,-6.41677 6.41364,0.611121 15.45104,7.944567 25.07149,2.138922 9.62046,-5.805645 29.73595,-23.222581 31.77666,-30.250468 2.0407,-7.027887 -2.62376,12.833532 -9.0374,20.778099 -6.41364,7.944568 -19.24091,20.778094 -24.77996,20.778094 -5.53905,0 -19.53244,-1.83336 -23.32232,-1.83336 -3.78987,0 -9.91198,7.02789 -6.70516,11.61129 3.20681,4.5834 2.0407,5.50008 2.0407,5.50008 0,0 -13.99339,2.13893 -14.28492,0 -0.29153,-2.13892 1.16612,-15.58357 -2.91529,-16.50025 -4.0814,-0.91668 -20.99008,8.86125 -27.40372,0.91668 C 90.275335,98.211793 71.617485,85.683826 68.119135,78.9615 c -3.49835,-6.722326 -8.45434,-4.583404 -8.45434,-4.583404 l -16.03409,10.083489 c 0,0 11.36962,-10.389049 11.95269,-14.666893 0.58305,-4.277844 0.58305,-4.277844 0.58305,-4.277844 0,0 10.78657,-23.52814 14.57645,-21.083657 0,0 3.49835,2.444479 2.91529,4.888961 -0.58306,2.444483 -7.28822,20.7781 -7.28822,20.7781 0,0 17.78326,16.805815 19.53244,19.861418 1.74917,3.055603 15.159495,12.83353 21.864665,10.08349 6.70517,-2.750047 15.74256,-4.277844 16.32562,-6.111206 0.58306,-1.833362 3.49835,0.916681 2.91529,3.972279 -0.58306,3.055607 8.16281,-42.778435 4.66446,-51.639684 -3.49834,-8.861245 -11.0781,-8.861245 -13.1188,-10.694607 -2.0407,-1.833361 -0.87459,-5.500085 2.33223,-3.972283 3.20682,1.527801 5.24752,0.91668 6.70517,-2.750043 1.45764,-3.666724 3.49835,-6.111206 3.49835,-6.111206 z"
     id="path31"
     inkscape:connector-curvature="0" />
  <path
     style="fill:#1a1a1a;stroke:#000000;stroke-width:0.59692436px;stroke-linecap:butt;stroke-linejoin:miter;stroke-opacity:1"
     d="m 102.51955,174.2963 c 0,0 5.83058,-1.22224 5.83058,0.61112 0,0 31.48512,-8.86124 33.81736,-1.22224 0,0 31.48512,-5.19452 30.90206,-2.75004 0,0 -4.66446,18.02805 -11.66115,21.08366 0,0 -24.77996,4.5834 -25.94608,5.80564 0,0 -6.70517,3.05561 -19.53244,-2.75004 0,0 -10.20351,-9.77793 -13.41033,-20.7781"
     id="path846"
     inkscape:connector-curvature="0" />
  <path
     style="fill:#00ffff;stroke:#000000;stroke-width:0.59692436px;stroke-linecap:butt;stroke-linejoin:miter;stroke-opacity:1"
     d="m 141.2929,121.73993 c 0,0 17.20021,11.61129 17.78326,14.6669 0.58306,3.0556 -0.87458,-7.33345 2.33224,-6.11121 3.20681,1.22224 21.28161,14.97246 20.99008,16.50026 -0.29153,1.5278 6.9967,3.36116 6.70517,5.50008 -0.29153,2.13892 3.20682,-6.72232 3.78987,-9.16681 0.58306,-2.44448 -5.83058,1.5278 -8.74587,-2.44448 -2.91529,-3.97228 -18.65785,-11.30573 -20.99008,-11.30573 -2.33223,0 -11.95269,-9.16681 -15.45103,-8.86125 -3.49835,0.30556 -8.45434,-3.66672 -8.45434,-3.66672"
     id="path848"
     inkscape:connector-curvature="0" />
</svg>
