<?xml version="1.0" encoding="UTF-8" standalone="no"?>
<!-- Created with Inkscape (http://www.inkscape.org/) -->

<svg
   xmlns:dc="http://purl.org/dc/elements/1.1/"
   xmlns:cc="http://creativecommons.org/ns#"
   xmlns:rdf="http://www.w3.org/1999/02/22-rdf-syntax-ns#"
   xmlns:svg="http://www.w3.org/2000/svg"
   xmlns="http://www.w3.org/2000/svg"
   xmlns:sodipodi="http://sodipodi.sourceforge.net/DTD/sodipodi-0.dtd"
   xmlns:inkscape="http://www.inkscape.org/namespaces/inkscape"
   viewBox="0 0 256 256"
   version="1.1"
   id="svg8"
   inkscape:version="0.92.4 (5da689c313, 2019-01-14)"
   sodipodi:docname="1st_Squad_Insignia.svg">
  <defs
     id="defs2" />
  <sodipodi:namedview
     id="base"
     pagecolor="#ffffff"
     bordercolor="#666666"
     borderopacity="1.0"
     inkscape:pageopacity="0.0"
     inkscape:pageshadow="2"
     inkscape:zoom="0.5"
     inkscape:cx="788.75451"
     inkscape:cy="545.10058"
     inkscape:document-units="mm"
     inkscape:current-layer="layer3"
     showgrid="false"
     showborder="true"
     inkscape:snap-page="false"
     inkscape:window-width="1366"
     inkscape:window-height="705"
     inkscape:window-x="-8"
     inkscape:window-y="-8"
     inkscape:window-maximized="1" />
  <metadata
     id="metadata5">
    <rdf:RDF>
      <cc:Work
         rdf:about="">
        <dc:format>image/svg+xml</dc:format>
        <dc:type
           rdf:resource="http://purl.org/dc/dcmitype/StillImage" />
        <dc:title></dc:title>
      </cc:Work>
    </rdf:RDF>
  </metadata>
  <g
     inkscape:groupmode="layer"
     id="layer3"
     inkscape:label="Layer 2"
     transform="translate(0,-41)">
    <g
       id="g4668"
       style="stroke-width:0.1;stroke-miterlimit:4;stroke-dasharray:none"
       transform="matrix(12.05321,0,0,12.05321,-89.258744,-545.05572)">
      <path
         inkscape:connector-curvature="0"
         id="path4535"
         d="m 22.886458,65.952602 c 0,0 9.326562,-0.926042 3.108854,-9.458854 0,0 2.447396,7.805206 -3.108854,9.458854 z"
         style="fill:#ff2a2a;fill-opacity:1;stroke:#000000;stroke-width:0.1;stroke-linecap:butt;stroke-linejoin:miter;stroke-miterlimit:4;stroke-dasharray:none;stroke-opacity:1" />
      <path
         inkscape:connector-curvature="0"
         id="path4537"
         d="m 23.547916,55.236977 c 0,0 4.828646,4.894792 0.198438,8.929688 1.984375,-3.83646 -0.198438,-8.929688 -0.198438,-8.929688 z"
         style="fill:#ffd42a;fill-opacity:1;stroke:#000000;stroke-width:0.1;stroke-linecap:butt;stroke-linejoin:miter;stroke-miterlimit:4;stroke-dasharray:none;stroke-opacity:1" />
      <path
         inkscape:connector-curvature="0"
         id="path4539"
         d="m 22.555729,57.022915 c 0,0 3.704167,4.7625 -1.653646,8.665104 2.778125,-3.175002 1.653646,-8.665104 1.653646,-8.665104 z"
         style="fill:#ff2a2a;fill-opacity:1;stroke:#000000;stroke-width:0.1;stroke-linecap:butt;stroke-linejoin:miter;stroke-miterlimit:4;stroke-dasharray:none;stroke-opacity:1" />
      <path
         inkscape:connector-curvature="0"
         id="path4541"
         d="m 20.703646,54.773956 v 9.061979 c 0,0 2.315104,-5.490104 0,-9.061979 z"
         style="fill:#ffd42a;fill-opacity:1;stroke:#000000;stroke-width:0.1;stroke-linecap:butt;stroke-linejoin:miter;stroke-miterlimit:4;stroke-dasharray:none;stroke-opacity:1" />
      <path
         inkscape:connector-curvature="0"
         id="path4543"
         d="m 19.380729,56.824477 -0.595313,8.665104 c 0,0 2.71198,-4.630208 0.595313,-8.665104 z"
         style="fill:#ff2a2a;fill-opacity:1;stroke:#000000;stroke-width:0.1;stroke-linecap:butt;stroke-linejoin:miter;stroke-miterlimit:4;stroke-dasharray:none;stroke-opacity:1" />
      <path
         inkscape:connector-curvature="0"
         id="path4547"
         d="m 17.991666,55.898435 c 0,0 1.190625,4.828646 -0.06614,8.069792 -1.322912,-3.241148 0.06614,-8.069792 0.06614,-8.069792 z"
         style="fill:#ffd42a;fill-opacity:1;stroke:#000000;stroke-width:0.1;stroke-linecap:butt;stroke-linejoin:miter;stroke-miterlimit:4;stroke-dasharray:none;stroke-opacity:1" />
      <path
         inkscape:connector-curvature="0"
         id="path4549"
         d="m 16.536458,56.824477 0.595313,8.929688 c 0,0 -2.645834,-5.490105 -0.595313,-8.929688 z"
         style="fill:#ff2a2a;fill-opacity:1;stroke:#000000;stroke-width:0.1;stroke-linecap:butt;stroke-linejoin:miter;stroke-miterlimit:4;stroke-dasharray:none;stroke-opacity:1" />
      <path
         inkscape:connector-curvature="0"
         id="path4551"
         d="m 15.147396,54.840102 0.132291,8.797396 c 0,0 -2.38125,-3.505729 -0.132291,-8.797396 z"
         style="fill:#ffd42a;fill-opacity:1;stroke:#000000;stroke-width:0.1;stroke-linecap:butt;stroke-linejoin:miter;stroke-miterlimit:4;stroke-dasharray:none;stroke-opacity:1" />
      <path
         inkscape:connector-curvature="0"
         id="path4555"
         d="m 13.361458,56.758331 c 0,0 -3.307291,5.225521 1.653646,8.929688 -2.38125,-3.439585 -1.653646,-8.929688 -1.653646,-8.929688 z"
         style="fill:#ff2a2a;fill-opacity:1;stroke:#000000;stroke-width:0.1;stroke-linecap:butt;stroke-linejoin:miter;stroke-miterlimit:4;stroke-dasharray:none;stroke-opacity:1" />
      <path
         inkscape:connector-curvature="0"
         id="path4559"
         d="m 12.303125,55.236977 c 0,0 -4.1010418,4.7625 -0.264583,8.73125 -1.521354,-3.439585 0.264583,-8.73125 0.264583,-8.73125 z"
         style="fill:#ffd42a;fill-opacity:1;stroke:#000000;stroke-width:0.1;stroke-linecap:butt;stroke-linejoin:miter;stroke-miterlimit:4;stroke-dasharray:none;stroke-opacity:1" />
      <path
         inkscape:connector-curvature="0"
         id="path4563"
         d="m 10.054167,56.229165 c 0,0 -2.5135421,6.680729 2.84427,9.657291 -8.929688,-1.190627 -2.84427,-9.657291 -2.84427,-9.657291 z"
         style="fill:#ff2a2a;fill-opacity:1;stroke:#000000;stroke-width:0.1;stroke-linecap:butt;stroke-linejoin:miter;stroke-miterlimit:4;stroke-dasharray:none;stroke-opacity:1" />
      <path
         inkscape:connector-curvature="0"
         id="path4579"
         d="m 18.825797,53.48071 c 0,0 1.426551,1.449938 0.491108,2.38538 0,0 -1.122533,0.257247 -0.491108,-2.38538 z"
         style="fill:#ff7f2a;fill-opacity:1;stroke:#000000;stroke-width:0.1;stroke-linecap:butt;stroke-linejoin:miter;stroke-miterlimit:4;stroke-dasharray:none;stroke-opacity:1" />
      <path
         inkscape:connector-curvature="0"
         id="path4581"
         d="m 21.211178,53.971816 c 0,0 2.221678,1.099148 1.403165,1.777344 -0.933573,0.512183 -1.403165,-1.777344 -1.403165,-1.777344 z"
         style="fill:#ff7f2a;fill-opacity:1;stroke:#000000;stroke-width:0.1;stroke-linecap:butt;stroke-linejoin:miter;stroke-miterlimit:4;stroke-dasharray:none;stroke-opacity:1" />
      <path
         inkscape:connector-curvature="0"
         id="path4583"
         d="m 16.791208,55.959634 c 0,0 1.145918,-0.631423 0.304019,-2.385381 0,0 -1.543482,1.800728 -0.304019,2.385381 z"
         style="fill:#ff7f2a;fill-opacity:1;stroke:#000000;stroke-width:0.1;stroke-linecap:butt;stroke-linejoin:miter;stroke-miterlimit:4;stroke-dasharray:none;stroke-opacity:1" />
      <path
         inkscape:connector-curvature="0"
         id="path4585"
         d="m 14.616302,53.854886 c 0,0 -0.09354,1.964431 -1.005602,1.800731 -0.912057,-0.163703 1.005602,-1.800731 1.005602,-1.800731 z"
         style="fill:#ff7f2a;fill-opacity:1;stroke:#000000;stroke-width:0.1;stroke-linecap:butt;stroke-linejoin:miter;stroke-miterlimit:4;stroke-dasharray:none;stroke-opacity:1" />
    </g>
  </g>
</svg>
