<?xml version="1.0" encoding="UTF-8" standalone="no"?>
<svg
   xmlns:dc="http://purl.org/dc/elements/1.1/"
   xmlns:cc="http://creativecommons.org/ns#"
   xmlns:rdf="http://www.w3.org/1999/02/22-rdf-syntax-ns#"
   xmlns:svg="http://www.w3.org/2000/svg"
   xmlns="http://www.w3.org/2000/svg"
   xmlns:sodipodi="http://sodipodi.sourceforge.net/DTD/sodipodi-0.dtd"
   xmlns:inkscape="http://www.inkscape.org/namespaces/inkscape"
   inkscape:version="1.1-dev (ddb55ca, 2020-02-02)"
   sodipodi:docname="crest_of_gautier.svg"
   id="svg835"
   viewBox="0 0 64 64"
   version="1.1">
  <metadata
     id="metadata841">
    <rdf:RDF>
      <cc:Work
         rdf:about="">
        <dc:format>image/svg+xml</dc:format>
        <dc:type
           rdf:resource="http://purl.org/dc/dcmitype/StillImage" />
      </cc:Work>
    </rdf:RDF>
  </metadata>
  <defs
     id="defs839" />
  <sodipodi:namedview
     inkscape:current-layer="svg835"
     inkscape:window-maximized="0"
     inkscape:window-y="23"
     inkscape:window-x="191"
     inkscape:cy="14.991651"
     inkscape:cx="33.091102"
     inkscape:zoom="1.8429498"
     showgrid="false"
     id="namedview837"
     inkscape:window-height="651"
     inkscape:window-width="900"
     inkscape:pageshadow="2"
     inkscape:pageopacity="0"
     guidetolerance="10"
     gridtolerance="10"
     objecttolerance="10"
     borderopacity="1"
     bordercolor="#666666"
     pagecolor="#ffffff" />
  <path
     inkscape:connector-curvature="0"
     id="path852"
     d="m 31.174081,59.072131 c -0.479935,-0.578285 0.01996,-0.894547 3.03092,-1.917518 5.544323,-1.883683 9.405501,-4.353043 12.57052,-8.039288 2.472216,-2.879347 3.587264,-5.54384 2.685916,-6.418187 -0.360777,-0.349972 -6.629107,-3.523708 -6.959543,-3.523708 -0.117008,0 -0.430133,0.405387 -0.695836,0.900862 -0.939341,1.751664 -3.332572,3.834983 -5.949894,5.179411 -1.347681,0.692256 -2.521175,1.373277 -2.607762,1.513377 -0.08659,0.140102 -0.40397,1.761387 -0.705295,3.602856 -0.476109,2.9096 -0.897833,4.439097 -1.223982,4.439097 -0.234429,0 -1.356401,-5.429097 -1.356401,-6.563462 0,-1.012562 -0.118197,-1.394748 -0.571564,-1.848114 -1.183578,-1.183579 -3.596027,-1.027824 -5.505596,0.355461 -0.94085,0.681548 -1.203219,1.082606 -1.953911,2.986759 -0.737696,1.871186 -4.119365,-0.303189 -6.014343,-3.867151 -0.600687,-1.129739 -0.760155,-2.12235 -0.464671,-2.892367 0.08156,-0.212544 0.225263,-0.386441 0.31934,-0.386441 0.09408,0 0.695604,0.714408 1.336725,1.587571 2.073555,2.824039 2.705727,2.947641 4.81005,0.940457 0.796235,-0.75948 1.447701,-1.575573 1.447701,-1.81354 0,-0.237964 -0.43421,-1.238154 -0.964911,-2.222645 -0.530701,-0.984488 -1.135359,-2.445218 -1.343685,-3.246068 -0.402294,-1.546508 -0.518797,-4.773721 -0.172332,-4.773721 0.50581,0 1.106536,1.088668 1.307352,2.369256 0.503738,3.212303 3.207316,6.725752 5.936278,7.714526 1.146402,0.415369 1.214701,0.415369 1.617676,0 0.231405,-0.238526 0.513019,-0.915624 0.625808,-1.504666 0.25361,-1.324472 1.026668,-1.977197 1.628695,-1.375171 0.211892,0.211892 0.450879,0.793991 0.531083,1.293553 0.306379,1.908321 0.352817,2.007673 0.93838,2.007673 0.972908,0 3.479769,-1.428075 4.555523,-2.595129 0.565904,-0.613932 1.45578,-2.04019 1.977503,-3.169456 1.142726,-2.473426 1.311111,-2.517899 3.923562,-1.036296 2.378013,1.348648 3.876964,2.019106 7.534291,3.36998 l 3.053828,1.127965 0.07721,0.930316 c 0.167047,2.012927 -3.110075,7.16287 -6.264475,9.844515 -3.935772,3.345914 -7.985735,5.383448 -13.261082,6.671639 -3.503394,0.855499 -3.481565,0.853493 -3.893074,0.357654 z M 41.324029,30.623884 c -0.242618,-0.268089 -0.537427,-1.101555 -0.655129,-1.852142 -0.441063,-2.812625 -2.763561,-6.106879 -5.140519,-7.291368 -2.135132,-1.063981 -2.708666,-0.841213 -3.04819,1.183959 -0.222771,1.328777 -0.786769,1.893135 -1.464624,1.465556 -0.439602,-0.277294 -0.673122,-0.8777 -0.924162,-2.376123 -0.0856,-0.510944 -0.307757,-0.987362 -0.493679,-1.058707 -0.185922,-0.07134 -1.000168,0.167428 -1.809437,0.530607 -2.014059,0.903855 -3.942374,2.956681 -5.040148,5.365589 -0.462574,1.015048 -0.98739,1.901704 -1.166258,1.970342 -0.178868,0.06864 -2.234121,-0.769162 -4.56723,-1.86178 -2.333108,-1.092618 -5.060877,-2.301893 -6.061708,-2.687278 -2.1721901,-0.836436 -2.73348,-1.2941 -2.73348,-2.22882 0,-1.413241 2.329329,-5.417862 4.50805,-7.750313 3.806916,-4.0755327 8.425548,-6.7109669 14.612191,-8.3378519 2.912248,-0.7658269 3.743026,-0.8589658 4.333162,-0.4857938 0.642057,0.4060044 -0.249839,0.9783239 -2.847824,1.8274148 -4.586785,1.4990833 -8.933497,4.1327559 -11.980077,7.2587269 -1.644439,1.687292 -4.036856,5.653561 -3.935795,6.52496 0.06482,0.558931 0.543794,0.879783 3.766608,2.523165 l 3.692342,1.882804 0.929898,-1.350169 c 1.67855,-2.43718 3.838233,-4.115237 7.018918,-5.45364 1.38495,-0.582774 1.446254,-0.717886 2.002413,-4.413141 0.46652,-3.099674 0.794765,-4.2173047 1.19903,-4.0825497 0.330417,0.1101387 1.058587,3.1681947 1.262983,5.3040807 0.206977,2.162863 0.501818,2.831006 1.416603,3.210178 1.150382,0.476825 2.433298,0.351618 3.937406,-0.384274 1.433528,-0.701359 2.091763,-1.437294 2.549984,-2.850985 0.619963,-1.912702 2.202423,-1.690674 4.382996,0.614961 1.981009,2.094624 2.940292,4.471063 2.227331,5.517778 -0.208034,0.305419 -0.36001,0.224336 -0.912409,-0.486791 -1.488844,-1.916663 -2.819424,-3.177804 -3.352773,-3.177804 -0.515391,0 -3.400566,2.32095 -3.869157,3.112507 -0.140596,0.237498 0.02392,0.637588 0.511958,1.245018 1.407788,1.752202 2.416522,4.569938 2.508097,7.005967 0.08744,2.32595 -0.01544,2.516243 -0.857371,1.585917 z"
     style="fill:#ff8080;stroke:#ffb380;fill-opacity:1;stroke-width:0.244306" />
</svg>
