<?xml version="1.0" encoding="UTF-8" standalone="no"?>
<svg
   xmlns:dc="http://purl.org/dc/elements/1.1/"
   xmlns:cc="http://creativecommons.org/ns#"
   xmlns:rdf="http://www.w3.org/1999/02/22-rdf-syntax-ns#"
   xmlns:svg="http://www.w3.org/2000/svg"
   xmlns="http://www.w3.org/2000/svg"
   xmlns:sodipodi="http://sodipodi.sourceforge.net/DTD/sodipodi-0.dtd"
   xmlns:inkscape="http://www.inkscape.org/namespaces/inkscape"
   cursor="default"
   viewBox="0 0 256 256"
   version="1.1"
   id="svg18"
   sodipodi:docname="tight_leather_pants.svg"
   inkscape:version="0.92.3 (2405546, 2018-03-11)">
  <metadata
     id="metadata24">
    <rdf:RDF>
      <cc:Work
         rdf:about="">
        <dc:format>image/svg+xml</dc:format>
        <dc:type
           rdf:resource="http://purl.org/dc/dcmitype/StillImage" />
        <dc:title />
      </cc:Work>
    </rdf:RDF>
  </metadata>
  <defs
     id="defs22" />
  <sodipodi:namedview
     pagecolor="#ffffff"
     bordercolor="#666666"
     borderopacity="1"
     objecttolerance="10"
     gridtolerance="10"
     guidetolerance="10"
     inkscape:pageopacity="0"
     inkscape:pageshadow="2"
     inkscape:window-width="1920"
     inkscape:window-height="1027"
     id="namedview20"
     showgrid="false"
     inkscape:zoom="8"
     inkscape:cx="111.46424"
     inkscape:cy="212.93279"
     inkscape:window-x="-8"
     inkscape:window-y="-8"
     inkscape:window-maximized="1"
     inkscape:current-layer="svg18" />
  <g
     id="g16"
     stroke="#000">
    <path
       d="m 93.871,4.606 c 4.701633,-0.538617 22.4856,-1.820062 38.4396,-1.226062 15.928,0.594 31.0191,3.2607262 33.9194,4.328062 2.647,10.486 -19.934,8.06 -29.862,11.958 C 121.197,15.646 91.548,16.6 93.871,4.606 Z"
       id="path2"
       inkscape:connector-curvature="0"
       style="fill:#ff2a2a;fill-rule:evenodd;stroke-width:0.52499998"
       sodipodi:nodetypes="ccccc" />
    <path
       d="M 94.230003,170.31617 C 96.855335,154.43484 93.901,140.936 91.092,126.566 85.049,95.657 81.474,82.398 80.502,65.557 77.791272,51.256616 83.920783,26.434088 86.622,23.912 89.838,16.296 91.46,10.958 93.777,4.625 c 25.069,13.814 61.188,9.489 72.52,3.3 1.898,6.856 4.747,13.711 5.679,20.567 3.64527,13.859979 2.16783,31.824367 1.581,45.882 -0.815,25.482 -7.14231,61.53171 -6.39422,66.76394 0.36466,7.30958 0.01,11.74374 -1.66889,24.49341 0.053,1.105 0.94583,13.8444 1.49983,16.6624 1.0216,21.608 -0.11985,34.14444 -2.88332,45.808 -0.57558,2.42928 -3.89322,21.00632 -3.89322,21.00632 -4.8648,0.87503 -8.4886,1.08955 -13.41895,-0.77289 0,0 -1.01599,-9.22143 -1.8822,-17.451 -0.80905,-7.68644 -5.7224,-30.44404 -4.44309,-41.85433 0,0 1.85723,-15.76137 1.03623,-23.18537 -0.73,-6.608 -2.82553,-17.79989 -3.55653,-24.22389 -0.996,-8.766 -2.49965,-19.04378 -3.81073,-30.52534 -0.58567,-14.64284 -2.67229,-29.176383 -4.40354,-46.784965 -1.10356,0.117168 -1.06375,1.382821 -3.12272,-0.01373 1.33,24.199 -1.08365,39.762445 -1.29765,52.292445 -0.68967,9.823 -1.6775,17.67433 -2.2705,28.71733 -0.461,8.586 -0.70216,12.696 -1.13716,24.143 -0.422,11.107 0.70799,16.93441 0.8241,28.42297 -0.26448,8.48833 -2.25253,26.74423 -3.15413,32.45882 -0.27813,1.76289 -1.82566,16.94856 -1.82566,16.94856 -10.08582,3.61455 -18.406712,-0.14153 -18.406712,-0.14153 -0.902319,-9.01069 -2.409683,-28.57739 -3.080597,-32.74938 -0.473942,-2.94715 -2.03398,-12.3575 -2.804365,-21.25703 -0.847042,-9.78507 1.183733,-20.88741 0.767027,-22.81557 z"
       id="path6"
       inkscape:connector-curvature="0"
       style="fill:#ff8080;fill-rule:evenodd;stroke-width:0.5"
       sodipodi:nodetypes="cccccccccccssssccccccccccsssssc" />
    <path
       d="M 92.014921,9.4135558 C 119.06954,25.823025 148.98986,19.301181 168.35305,14.444204"
       id="path10"
       inkscape:connector-curvature="0"
       style="fill:none;stroke-width:0.5"
       sodipodi:nodetypes="cc" />
    <path
       d="m 129.07569,20.168587 c 2.11221,7.663188 4.80734,26.435581 -1.07687,44.853331"
       id="path12"
       inkscape:connector-curvature="0"
       style="fill:none;stroke-width:0.25"
       sodipodi:nodetypes="cc" />
    <path
       d="m 158.44091,25.280094 c 6.26062,1.156078 9.39895,0.705769 12.97212,-0.287528 -0.73826,-3.195266 -2.00439,-6.803486 -3.05998,-10.548362 -1.88686,0.925 -15.28556,3.318406 -20.50856,4.668406 z M 92.014921,9.4135558 c 7.898644,4.6320742 19.613719,8.3670112 28.258439,9.6746822 -6.12267,4.873865 -14.50706,3.751953 -19.36844,3.328927 -2.556184,-0.638964 -9.416487,-3.150748 -11.640355,-5.443964 0,0 1.760976,-4.761353 2.750356,-7.5596452 z"
       id="path14"
       inkscape:connector-curvature="0"
       style="fill:#ff5555;fill-rule:evenodd;stroke-width:0.52499998"
       sodipodi:nodetypes="ccccccccsc" />
  </g>
  <path
     style="fill:none;stroke:#000000;stroke-width:0.2;stroke-linecap:butt;stroke-linejoin:miter;stroke-miterlimit:4;stroke-dasharray:none;stroke-opacity:1"
     d="m 131.37532,47.570674 c 1.5884,0.346416 2.52948,-0.05704 3.30874,-0.610301 1.11202,-0.779479 1.33043,-1.880009 1.39593,-2.750187 0.37611,-8.213949 -0.5476,-15.993472 -2.37211,-23.997838"
     id="path3757"
     inkscape:connector-curvature="0"
     sodipodi:nodetypes="cccc" />
  <ellipse
     style="fill:#ff7f2a;fill-opacity:1"
     id="path146"
     ry="2.1671388"
     rx="2.4899042"
     cy="16.784769"
     cx="131.8266" />
</svg>
