<?xml version="1.0" encoding="UTF-8" standalone="no"?>
<svg
   xmlns:dc="http://purl.org/dc/elements/1.1/"
   xmlns:cc="http://creativecommons.org/ns#"
   xmlns:rdf="http://www.w3.org/1999/02/22-rdf-syntax-ns#"
   xmlns:svg="http://www.w3.org/2000/svg"
   xmlns="http://www.w3.org/2000/svg"
   xmlns:sodipodi="http://sodipodi.sourceforge.net/DTD/sodipodi-0.dtd"
   xmlns:inkscape="http://www.inkscape.org/namespaces/inkscape"
   viewBox="0 0 256 256"
   version="1.1"
   id="svg34"
   sodipodi:docname="OneRingTattoo.svg"
   inkscape:version="0.92.3 (2405546, 2018-03-11)">
  <metadata
     id="metadata40">
    <rdf:RDF>
      <cc:Work
         rdf:about="">
        <dc:format>image/svg+xml</dc:format>
        <dc:type
           rdf:resource="http://purl.org/dc/dcmitype/StillImage" />
        <dc:title />
        <dc:title />
      </cc:Work>
    </rdf:RDF>
  </metadata>
  <defs
     id="defs38" />
  <sodipodi:namedview
     pagecolor="#ffffff"
     bordercolor="#666666"
     borderopacity="1"
     objecttolerance="10"
     gridtolerance="10"
     guidetolerance="10"
     inkscape:pageopacity="0"
     inkscape:pageshadow="2"
     inkscape:window-width="1920"
     inkscape:window-height="1018"
     id="namedview36"
     showgrid="false"
     inkscape:zoom="2.6074563"
     inkscape:cx="-3.7558195"
     inkscape:cy="109.44016"
     inkscape:window-x="-9"
     inkscape:window-y="-9"
     inkscape:window-maximized="1"
     inkscape:current-layer="layer1" />
  <g
     inkscape:groupmode="layer"
     id="layer1"
     inkscape:label="Layer 1"
     style="display:inline">
    <path
       id="path1137"
       style="opacity:1;fill:none;fill-opacity:1;fill-rule:nonzero;stroke:#ffb380;stroke-width:1.57799995;stroke-linecap:round;stroke-linejoin:round;stroke-miterlimit:4;stroke-dasharray:none;stroke-dashoffset:0;stroke-opacity:1;paint-order:normal"
       d="m 40.556769,64.242228 c -0.191758,5.321279 4.31455,8.149706 6.567703,-1.486122 m -2.157275,-4.889823 c 0.383516,4.937762 3.74305,7.565539 6.018287,1.313888 m -2.087252,-5.772257 c 2.205214,4.793945 7.095037,13.902439 7.095037,28.571908 M 38.255675,69.707325 c 1.342305,-8.437342 13.998318,-22.148023 15.724138,-19.127838 6.519764,22.675357 5.177459,28.044574 5.177459,28.044574 m -29.59795,-9.064739 1.728814,0.915254 m -1.457627,-4.135593 c 0.237288,0.135593 1.762711,1.932203 1.762711,1.932203 m 1.220339,-2.847457 0.745763,3.050847 m 5.830509,9.423729 c 1.288135,-8.81356 8.271186,0.0678 8.271186,13.830508 M 33.694915,77.423729 c 0.542373,-11.118645 9.084746,-9.627119 5.694916,0.474576 m -7.118645,7.18644 C 28.40678,76.677966 39.525424,72.610169 35.389831,83.59322 m -6.644068,7.254237 c -1.355932,-7.254237 5.966101,-8.881356 4.271186,-0.542373 m -6.851515,4.162847 c 0.207447,-5.247592 1.698973,-5.383186 5.088803,0.10834 m -13.787283,3.615825 3.007622,-0.564978 m -2.508474,-3.254237 2.521182,1.451098 m -0.0805,-2.942623 0.677966,2.508474 M 28,97.355932 c 3.728814,6.372878 -3.254237,13.423728 -3.525424,1.627119 M 15.728814,80.542373 c 1.966101,10.101695 12.338983,12.745762 27.728813,36.813557 m -22.55603,-10.30378 c 1.582002,3.83516 0.623213,2.49285 -9.923465,11.84104 -0.767031,0.4794 -0.958788,2.3011 0.191758,3.78722 m 13.662741,-12.70395 c -0.09588,-0.91085 3.49958,0.0959 -0.623212,5.08158 -4.122792,4.9857 -4.23195,6.03572 -3.865765,8.86647 m 1.758041,19.26193 c -6.508475,-6.16949 -13.1525424,-12.33898 -6.711864,-13.42373 1.864406,-0.59322 1.59322,4.27119 -0.169492,3.0678 m 6.542373,4.32203 c 1.627119,9.01695 14.033898,12.88136 9.355932,-2.10169 -2.305085,-4.47458 -4.949152,-3.93221 -4.677966,-2.77966 m -2.508475,16.81356 c -3.712995,-3.58792 -0.39848,-8.30114 -4.135593,-19.05085 m 33.423729,34.77966 c -5.355932,-3.72881 -19.254237,-7.59322 -27.831835,-9.09856 -5.117318,-3.17263 0.103021,-12.73195 3.764038,-3.44381 0.61017,0.88135 0,1.22034 0,1.22034 m -11.322033,-4.27119 1.762711,1.15254 m -3.932203,1.01695 2.714637,-0.0243 m -1.312,3.36795 2.529566,-1.10636 m 1.078194,11.64594 2.176044,0.15067 m -0.271187,-4.47458 c 2.033899,2.57627 1.423729,5.01695 4.40678,8.47458 m 6.033898,-6.91526 c -4.474576,-2.98305 -10.779661,-0.88135 -1.898305,6.84746 m 4.338983,-0.0678 c -2.508474,-7.72882 -2.271201,-11.39429 -10.084753,-13.59545 -3.271179,3.49375 1.881363,5.86663 1.881363,5.86663 m 4.61017,12.61017 C 28,166.91525 30.169492,168.13559 57.966102,173.9661 m -19.661017,0.67797 -3.593221,5.08474 m 0,0 c -6.033898,-6.16949 -2.169491,-5.9661 -2.169491,-5.9661 0,0 14.169491,0.47458 24.677966,4.54237 m -17.830508,4.74577 c 7.118644,2.84745 9.016949,7.8644 0.677966,6.0339 m -3.118644,-6.23729 c 8.745762,-1.69492 28.677966,1.49152 28.677966,1.49152 m -20.474577,9.9661 c -6.440678,-4 -8.406779,-12.54237 -10.440678,-14.57627 m 12.40678,18.1017 c -3.254237,-3.38983 -4.067796,-4.61017 2.847458,-4.67797 m 0.271186,7.79661 c 2.237288,3.45763 13.559322,2.23729 2.440678,-3.45762 m -15.014642,-0.23851 2.675659,-0.50726 m 2.915254,6.16949 1.627119,0.0678 m -14.644068,-4.13559 c 11.101084,2.8416 22.640401,-4.4758 45.559322,-4.40678 m -9.352542,15.63333 c -8.820858,0.0959 -12.368376,-2.63667 -4.793944,-5.36921 m 6.951219,4.9857 c -1.333768,-0.0732 -10.146847,3.00559 -1.102607,5.08157 m 7.095037,-1.29436 c -9.300252,2.39698 -10.738435,1.48613 -20.326324,1.86964 -6.519764,-1.62994 -3.45164,-6.51976 0.239698,-3.93103 2.588729,1.48612 0.04794,1.62994 0.04794,1.62994 m 3.739276,-10.4508 c 4.122792,1.582 10.786374,8.00589 16.29941,10.88225 -8.197645,2.73255 -4.889823,5.4651 -2.013456,5.2254 m -16.730866,5.56098 c 15.57547,2.11213 32.109275,-5.60471 20.709839,-8.19765 10.594617,1.96552 13.423044,-6.18418 4.36249,-5.17746 -2.780488,1.24643 -1.486123,3.16401 -1.342305,2.92431 m -2.54079,13.3751 c 2.253154,0.0959 1.67788,1.62995 1.342304,1.62995 m 10.594617,-0.4794 c -12.847771,5.80067 -17.785533,-0.86291 -11.936921,-1.15055 m 26.750205,-0.43145 c -7.026553,6.26702 -14.015184,3.08524 -6.471821,-1.53406 -5.608915,4.45837 -12.703952,4.9857 -5.704794,-1.29437 m 20.278385,4.60219 c -5.63627,5.90611 -15.072609,5.31644 -8.10177,-1.77376 m -10.594613,-3.83516 c -7.677625,6.81498 -17.558797,-1.1647 -6.711522,-2.10934 2.253154,-0.52732 1.67788,1.15056 1.67788,1.15056 m 23.730025,6.5677 c -17.689655,-4.84188 -18.600504,-4.55425 -18.696383,-5.60892 m 29.099243,8.34147 c 6.51976,-3.35576 8.85242,-0.28247 5.02545,3.7898 m -11.11376,-5.3718 c 6.18419,-1.00673 7.52649,2.54079 3.06812,5.12952 m -10.30698,-1.15055 c -2.20521,-0.43146 10.06729,-14.04626 19.12784,-22.0042 m 4.93776,22.33978 c -5.03364,2.78048 -19.36753,0.28763 -24.0656,-0.33558 m 23.25063,-20.51808 c -15.62825,13.23128 -24.40117,29.38688 -32.694697,32.26324 m 20.709837,-4.69806 -0.28763,-1.34231 m -3.28305,3.07497 1.55723,-2.35588 m -3.3214,0.46296 c 0.54091,-0.55883 2.50643,-1.66144 2.50643,-1.66144 m 29.33893,2.03743 c 0.81498,-1.98949 -7.98191,2.66063 0.59925,2.34903 m -7.51329,-12.72599 0.42544,-0.32384 m 5.50868,0.21843 c 5.9661,-5.35593 10.37288,-2.63461 6.0339,2.20812 m -10.10169,2.67323 c 6.64406,-1.22034 12.70784,-1.15978 15.26917,-3.73243 -5.50646,10.91887 -6.34217,11.30386 -9.84545,11.80023 0,0 7.45763,-9.9661 8.1356,-12.47458 m 1.69491,-22.71186 c -11.38983,16.54237 -11.66101,24.47458 -12.67796,26.0339 m 25.15254,-6.91526 c -4.94915,8.81356 -9.42373,14.1017 -11.25424,11.18644 -1.83051,-2.91525 3.32204,-4.06779 3.05085,-3.05084 m -6.91526,-9.35594 c 3.11865,-7.18644 7.79662,-4.06779 6.91526,-2.57627 -0.88136,1.49153 -7.25424,-4.61017 1.22034,-7.72881 8.47457,-3.11864 11.18644,6.98305 4.20339,11.86441 m 7.9322,-4 c -3.86441,5.35593 -8.13559,2.0339 -15.25424,7.59322 m 22.94373,-12.83876 c -3.9784,9.94794 -12.09287,6.28149 -4.69807,-0.76703 m 3.16401,8.9407 c 0.0719,0.19176 1.96552,1.77376 1.96552,1.77376 m -2.90034,-0.2397 c 0.0719,0.40749 0.40749,3.16401 0.40749,3.16401 m -1.48613,-3.4037 -0.91085,1.84567 m 14.78932,-9.87553 c 0.16779,-0.024 1.8217,1.53406 1.8217,1.53406 m -2.18124,0 0.16778,2.63667 m -1.29436,-3.11606 c -0.0719,0.19176 -1.10261,2.58873 -1.10261,2.58873 m -5.72876,-32.02355 c -1.43818,15.91589 -3.54753,27.13372 -0.52734,30.01009 m 3.25989,-5.17746 c 2.06139,-9.34819 8.25008,-7.32411 6.37594,-1.3423 m -5.32128,-25.21615 c -3.4037,24.83263 -0.67115,29.31497 -0.67115,29.31497 m 10.54668,-8.79689 c -1.77376,3.93104 -12.94365,10.11522 -14.19008,11.21783 m 18.64845,-15.48444 c -0.86291,4.60219 -4.45837,4.26661 -4.45837,4.26661 m -1.582,-25.6476 c 1.582,25.6476 -1.43819,21.42893 1.582,25.6476 m 7.62237,-7.0471 c -0.67115,4.17073 -4.17073,2.92431 -8.58116,0.4794 m 13.32717,-9.06056 c 0.76707,7.95795 -8.94053,12.75953 -5.27334,1.62994 0.47939,-1.582 0.86291,-0.81497 0.86291,-0.81497 m 8.77292,18.26493 c 0.81497,-6.32801 0.0959,-11.50546 -5.56098,-21.90832 m 13.95038,-8.58116 c -0.33558,-4.26661 -5.80067,-8.58116 -5.80067,1.19848 m -3.40371,7.71825 c -1.05466,-8.19764 2.87637,-11.84104 4.79395,-3.69134 m -12.60807,-22.0042 c 2.63666,17.88141 7.81412,27.709 8.96467,27.709 m 9.97141,-16.97056 c 0.0959,6.51976 -8.24559,13.27922 -11.21783,18.88814 m 16.44322,-16.1556 -0.14381,-1.86963 m 2.78048,1.39024 -1.62994,-1.96552 m 2.0614,-1.15054 -2.15728,-0.4794 m -17.49789,-20.23044 c 3.4037,13.18334 6.23213,19.60723 8.77292,15.67619 m 6.18418,-2.10933 c 0.43146,8.82086 -7.19091,11.88898 -5.80067,-0.43146 m 3.30782,-5.46509 c 0.28764,-1.05467 1.34231,-0.43146 1.34231,-0.43146 m 2.63667,-0.76703 c 2.63667,9.39613 -7.14298,8.24559 -3.97898,1.19849 m 1.8217,-5.80068 c 0.4794,-3.4037 1.24643,-2.06139 1.24643,-2.06139 m 3.73927,-0.76703 c 2.92431,9.25231 -4.84188,9.44407 -4.9857,2.82842 m 7.38268,-6.85534 c 0.57527,6.75947 -3.02019,3.69134 -6.04037,0.33558 m 11.3137,1.15055 c -1.05466,-2.34904 -0.40589,-2.83281 -0.40589,-2.83281 m 2.94668,1.20287 -2.49285,-1.72582 m 1.96552,-1.39025 c -2.0614,0.14382 -2.25315,0.0959 -2.25315,0.0959 m -8.10177,0.47938 c -4.26661,-9.92347 6.95122,-10.16317 3.93104,-1.58201 m -20.70984,-16.73086 c 16.92262,21.95626 27.70899,23.39445 30.72918,34.94785 m -5.65686,-40.70058 c 5.03365,4.41042 1.40145,6.84789 1.40145,6.84789 m -7.92121,-15.90845 c -1.00673,-0.47939 -4.36249,3.49958 6.51976,9.06056 m -11.02607,-9.49201 c -0.14382,-0.52734 -4.12279,-0.38352 4.50631,13.08746 0.43146,1.15055 -0.31263,3.14247 -1.00673,3.30783 m 1.86964,-31.496219 c 11.40959,7.622369 10.59179,12.247239 9.15643,12.751889 -1.43535,0.50466 -4.26661,-2.82842 -1.86963,-3.4037 m -7.14298,-6.5677 c -6.42388,-8.149706 -16.73087,-1.62994 -5.51304,8.82086 2.23202,1.19428 2.48783,-1.21609 1.91758,-1.10261 m 0.52733,-15.676199 c 4.21868,2.828428 2.10934,14.190079 6.08831,17.785529 m 0.52734,-19.031954 c -1.96552,-1.534062 -2.3011,-1.677881 -2.3011,-1.677881 m 3.4037,-0.671152 c -3.64339,-0.287636 -3.78721,-0.335576 -3.78721,-0.335576 m 1.582,-2.732548 -2.51498,1.909755 m -8.65491,-0.04012 c -0.86291,1.629941 2.78049,8.053826 5.27334,4.458368 m -31.06476,-12.89571 c 26.51051,6.759462 33.07822,4.362489 31.06476,12.89571 m -2.25315,-19.846929 2.44491,0.623213 m -9.1085,-7.095038 c 6.18419,3.643398 4.74601,11.409588 8.91674,13.80656 m -12.32044,-6.423886 c 5.75274,1.438184 6.75946,-3.211942 -0.43145,-5.896551 m 2.9243,11.313708 c 3.07143,4.325869 11.8702,-1.771437 -2.49285,-5.417157 m -4.90811,-5.157002 c 6.49011,3.958516 8.69533,16.662469 11.18818,16.614529 6.66358,1.150547 5.4651,-3.595458 1.15055,-5.225399 M 191.13456,68.460899 c 28.57191,0.623213 29.5842,1.645078 29.50951,-1.071069 M 210.19049,53.479823 c -9.01295,-1.576632 -7.44284,6.441661 4.21867,5.273339 -8.3894,-0.02397 -6.2561,7.406644 4.4344,5.776703 -17.4979,1.438184 -28.71573,1.150547 -29.48276,0 M 206.40678,49.728813 C 192,55.661017 176.81356,55.118644 176.81356,55.118644 m 23.9661,-10.067797 c -8.23694,2.780353 -5.39528,7.887407 5.62712,4.677966 m -11.86441,-9.288135 c -8.27118,1.59322 -4.33898,7.932203 6.23729,4.610169 m -11.08328,-7.223252 c 9.34819,2.253154 28.10023,22.511388 30.94769,29.562235 m -26.92078,-34.643815 -3.35576,0.143818 m 2.58873,-2.828427 c -1.91758,1.150546 -2.68461,1.486122 -2.68461,1.486122 m -0.86291,-2.253153 -0.52734,2.301093 m -8.1497,7.142976 c 4.84188,1.77376 6.42389,7.238857 -13.13541,7.766191 m 20.61396,-7.478553 c -8.10176,-0.287637 -7.47855,-0.287638 -7.47855,-0.287638 m 0.67115,-5.608914 c 9.68377,0.527334 9.30025,4.650126 6.8074,5.896552 m -13.23128,-8.245585 c 10.93019,-1.821698 5.36921,9.635828 0.86291,3.547519 m -7.0471,-6.567704 c 12.08074,-1.390243 4.41043,7.622372 -0.14382,4.218671 m -4.17073,-7.574432 c 6.85534,0.575274 4.79394,3.787216 0,5.944491 M 141.2296,41.806569 c 24.25736,-12.943649 25.69554,-25.983178 38.06392,-26.65433 m -18.53753,8.229133 c -1.71151,-4.650304 -13.79018,5.709295 -0.52734,4.698066 m 5.9774,-8.852346 -2.25316,0.86291 m 1.00673,-3.164004 c -1.77376,1.965518 -1.77376,2.013457 -1.77376,2.013457 m -1.67788,-2.061396 c 0.33558,2.301093 0.28764,2.349033 0.28764,2.349033 m -19.84693,4.793944 c 0.0959,0.191758 0.2397,0.191758 0.2397,0.191758 M 129.62712,18.27289 c 7.38983,-8.3389831 7.18644,-8.035602 10.50847,-8.238992 m -4.47457,7.932203 c -10.2234,1.438106 -4.25646,11.987035 3.72881,1.830509 m 2.57627,-1.084746 c 0.74576,6.779661 -15.76805,12.071276 -21.17216,22.916994 m 5.10437,-21.900045 c 8.94915,-4.610169 10.44067,1.288136 16.06779,-1.016949 m -16.33898,0.135593 c 12.27119,-14.7118642 13.28813,-8.677966 17.28813,-7.457627 -2.37288,6.305085 -6.98305,2.305085 -4.27118,0.40678 m -14.77966,0.949152 c -3.25424,3.525424 6.23729,1.491526 3.38983,-1.559322 -2.84746,-3.0508472 -17.15254,9.152543 -17.49153,14.440678 -0.33898,5.288136 6.50262,12.461142 12.93665,1.40538 -2.39399,-6.891078 -8.09965,6.280196 4.84353,-2.771765 m -20.85366,-2.181245 c 5.27334,-6.256097 13.8545,-0.599243 17.52187,-4.122792 m -18.00771,-2.905849 -2.51945,3.027316 m 0.24826,-4.010367 c -0.44067,3.152542 -0.64406,3.084746 -0.64406,3.084746 m -2.27119,-1.491526 1.52542,2.61017 m -4.338421,4.815031 c 2.540791,1.246425 -7.74222,28.595877 -7.74222,28.595877 m -3.49958,-18.984019 c 3.30241,-13.619488 8.618661,-4.63651 5.704794,-2.205214 z m -6.615643,3.403701 c 3.116064,-12.656013 7.957947,-9.012616 6.615643,-3.403701 0,0 0.04794,-0.383514 -6.615643,3.403701 z M 75.305085,33.77966 c 8.269849,-13.050782 4.437923,18.30927 2.308873,25.956261 M 59.205212,47.175787 c 1.965517,-11.313709 11.21783,-2.780488 3.978974,0.09588 m -9.204373,3.30782 c 2.349032,-9.827586 9.587888,-1.629941 4.074852,1.677881 m 9.369064,-14.376013 c 3.830508,0.372882 1.847458,5.898305 1.847458,5.898305 m -1.881356,-6.18644 c 3.966101,-15.288136 6.711864,-13.288136 7.830508,-12.372882 1.118644,0.915255 -1.322034,5.254238 -2.576271,2.949153 M 69.474576,38.508474 C 66,35.864406 64.237288,41.491525 64.237288,41.491525 m 9.050848,-1.237288 c 2.322034,-0.847458 5.559322,-4.355932 2.016949,-6.474577 -1.949153,-0.915254 -5.20339,2.796611 -5.830509,4.728814 M 102.23086,27.352827 c 0,0.239697 3.02019,0.215728 4.62616,-2.852397 0.49056,-6.409396 -5.96846,-1.558032 -6.99916,0 -1.030714,1.558001 -1.985925,4.297706 -7.190917,5.992431 m 0.479394,-3.787216 c 0.267245,-2.801862 3.074425,-3.278687 5.057612,-3.619428"
       inkscape:connector-curvature="0"
       sodipodi:nodetypes="cccccccccccccccccccccccccccccccccccccccccccccccccccccccccccccccccccccccccccccccccccccccccccccccccccccccccccccccccccccccccccccccccccccccccccccccccccccccccsccccccccccccccccccccccccccccccccccccccccccccccccccccccccccccccccccccccccccccccccccccccccccccccccccccccccccccccccccccccccccccccccccccccccccccccccccccccccccccccccccccccsccccccccccccscccccccccccccccccccscccccccc" />
  </g>
</svg>
